%TF.GenerationSoftware,KiCad,Pcbnew,(5.1.10-1-10_14)*%
%TF.CreationDate,2021-11-08T19:33:34-05:00*%
%TF.ProjectId,RAM-MODULE,52414d2d-4d4f-4445-954c-452e6b696361,rev?*%
%TF.SameCoordinates,Original*%
%TF.FileFunction,Copper,L2,Inr*%
%TF.FilePolarity,Positive*%
%FSLAX46Y46*%
G04 Gerber Fmt 4.6, Leading zero omitted, Abs format (unit mm)*
G04 Created by KiCad (PCBNEW (5.1.10-1-10_14)) date 2021-11-08 19:33:34*
%MOMM*%
%LPD*%
G01*
G04 APERTURE LIST*
%TA.AperFunction,ComponentPad*%
%ADD10O,1.600000X1.600000*%
%TD*%
%TA.AperFunction,ComponentPad*%
%ADD11R,1.600000X1.600000*%
%TD*%
%TA.AperFunction,ComponentPad*%
%ADD12O,1.700000X1.700000*%
%TD*%
%TA.AperFunction,ComponentPad*%
%ADD13R,1.700000X1.700000*%
%TD*%
%TA.AperFunction,ViaPad*%
%ADD14C,0.800000*%
%TD*%
%TA.AperFunction,Conductor*%
%ADD15C,0.200000*%
%TD*%
%TA.AperFunction,Conductor*%
%ADD16C,0.254000*%
%TD*%
%TA.AperFunction,Conductor*%
%ADD17C,0.100000*%
%TD*%
G04 APERTURE END LIST*
D10*
%TO.N,+5V*%
%TO.C,U9*%
X4826000Y-109474000D03*
%TO.N,GND*%
X37846000Y-124714000D03*
%TO.N,+5V*%
X7366000Y-109474000D03*
%TO.N,/IO2*%
X35306000Y-124714000D03*
%TO.N,/A13*%
X9906000Y-109474000D03*
%TO.N,/IO1*%
X32766000Y-124714000D03*
%TO.N,/A8*%
X12446000Y-109474000D03*
%TO.N,/IO0*%
X30226000Y-124714000D03*
%TO.N,/A9*%
X14986000Y-109474000D03*
%TO.N,/A0*%
X27686000Y-124714000D03*
%TO.N,/A11*%
X17526000Y-109474000D03*
%TO.N,/A1*%
X25146000Y-124714000D03*
%TO.N,~OE*%
X20066000Y-109474000D03*
%TO.N,/A2*%
X22606000Y-124714000D03*
%TO.N,/A10*%
X22606000Y-109474000D03*
%TO.N,/A3*%
X20066000Y-124714000D03*
%TO.N,/~ROM_EN*%
X25146000Y-109474000D03*
%TO.N,/A4*%
X17526000Y-124714000D03*
%TO.N,/IO7*%
X27686000Y-109474000D03*
%TO.N,/A5*%
X14986000Y-124714000D03*
%TO.N,/IO6*%
X30226000Y-109474000D03*
%TO.N,/A6*%
X12446000Y-124714000D03*
%TO.N,/IO5*%
X32766000Y-109474000D03*
%TO.N,/A7*%
X9906000Y-124714000D03*
%TO.N,/IO4*%
X35306000Y-109474000D03*
%TO.N,/A12*%
X7366000Y-124714000D03*
%TO.N,/IO3*%
X37846000Y-109474000D03*
D11*
%TO.N,/A14*%
X4826000Y-124714000D03*
%TD*%
D12*
%TO.N,MR*%
%TO.C,J1*%
X5080000Y-167894000D03*
%TO.N,MODE*%
X7620000Y-167894000D03*
%TO.N,CLOCK*%
X10160000Y-167894000D03*
%TO.N,~DS_IN*%
X12700000Y-167894000D03*
%TO.N,~CS_IN*%
X15240000Y-167894000D03*
%TO.N,~OE*%
X17780000Y-167894000D03*
%TO.N,~WE*%
X20320000Y-167894000D03*
%TO.N,GND*%
X22860000Y-167894000D03*
D13*
%TO.N,+5V*%
X25400000Y-167894000D03*
%TD*%
D12*
%TO.N,/A15*%
%TO.C,J3*%
X5080000Y-101854000D03*
%TO.N,/A14*%
X7620000Y-101854000D03*
%TO.N,/A13*%
X10160000Y-101854000D03*
%TO.N,/A12*%
X12700000Y-101854000D03*
%TO.N,/A11*%
X15240000Y-101854000D03*
%TO.N,/A10*%
X17780000Y-101854000D03*
%TO.N,/A9*%
X20320000Y-101854000D03*
%TO.N,/A8*%
X22860000Y-101854000D03*
%TO.N,/A7*%
X25400000Y-101854000D03*
%TO.N,/A6*%
X27940000Y-101854000D03*
%TO.N,/A5*%
X30480000Y-101854000D03*
%TO.N,/A4*%
X33020000Y-101854000D03*
%TO.N,/A3*%
X35560000Y-101854000D03*
%TO.N,/A2*%
X38100000Y-101854000D03*
%TO.N,/A1*%
X40640000Y-101854000D03*
D13*
%TO.N,/A0*%
X43180000Y-101854000D03*
%TD*%
D12*
%TO.N,/IO0*%
%TO.C,J2*%
X65278000Y-167894000D03*
%TO.N,/IO1*%
X62738000Y-167894000D03*
%TO.N,/IO2*%
X60198000Y-167894000D03*
%TO.N,/IO3*%
X57658000Y-167894000D03*
%TO.N,/IO4*%
X55118000Y-167894000D03*
%TO.N,/IO5*%
X52578000Y-167894000D03*
%TO.N,/IO6*%
X50038000Y-167894000D03*
D13*
%TO.N,/IO7*%
X47498000Y-167894000D03*
%TD*%
D14*
%TO.N,GND*%
X62888500Y-149756500D03*
X56642000Y-147320000D03*
X57589500Y-157040500D03*
X39777000Y-139293000D03*
X43677000Y-144791000D03*
X33020000Y-144018000D03*
X16123000Y-155581000D03*
X7620000Y-162306000D03*
X13462000Y-143952000D03*
X16002000Y-140462000D03*
X14853000Y-149473000D03*
X14224000Y-134366000D03*
X1016000Y-151775000D03*
X-3586000Y-132618000D03*
X-2286000Y-117602000D03*
X33020000Y-157226000D03*
X63500000Y-133858000D03*
X60960000Y-133858000D03*
X58420000Y-133858000D03*
X55880000Y-133858000D03*
X53340000Y-133858000D03*
X50800000Y-133858000D03*
X48260000Y-133858000D03*
X45720000Y-133858000D03*
X39116000Y-155448000D03*
X-254000Y-128016000D03*
X-762000Y-138176000D03*
X51054000Y-156972000D03*
X44821601Y-150440932D03*
%TO.N,/A17*%
X7112000Y-153670000D03*
X-762000Y-155194000D03*
X44958010Y-147066000D03*
%TO.N,/A16*%
X32258000Y-149352000D03*
X8636000Y-152654000D03*
X2794000Y-152654000D03*
X37592000Y-148082000D03*
%TO.N,/A15*%
X-5334000Y-150677000D03*
X9742980Y-150114000D03*
%TO.N,/A14*%
X19825018Y-136130982D03*
%TO.N,/A13*%
X21209000Y-134493000D03*
X17018000Y-127254000D03*
%TO.N,/A12*%
X22352000Y-131064000D03*
%TO.N,/A11*%
X24130000Y-131064000D03*
%TO.N,/A10*%
X25019000Y-134493000D03*
%TO.N,/A9*%
X23368000Y-122428000D03*
X32512000Y-131826000D03*
%TO.N,/A8*%
X15875000Y-118999000D03*
X25146000Y-139446000D03*
%TO.N,/A7*%
X23876000Y-140208000D03*
%TO.N,/A6*%
X22475989Y-140444323D03*
%TO.N,/A5*%
X21075977Y-140208000D03*
%TO.N,/IO7*%
X45720000Y-125222000D03*
%TO.N,/IO6*%
X48260000Y-125222000D03*
X22352000Y-129032000D03*
X20320000Y-129032000D03*
%TO.N,/IO5*%
X50800000Y-125222000D03*
X23622000Y-128524000D03*
X21082000Y-129794000D03*
%TO.N,/IO4*%
X53340000Y-125222000D03*
X24892000Y-128016000D03*
X18711545Y-130953509D03*
%TO.N,/IO3*%
X55880000Y-125222000D03*
X18926011Y-139934526D03*
X32983994Y-128500032D03*
X37878448Y-153145436D03*
%TO.N,/IO2*%
X58420000Y-125222000D03*
X17526000Y-139954000D03*
X31706744Y-128100021D03*
X36987772Y-153600101D03*
%TO.N,/IO1*%
X60960000Y-125222000D03*
X30480000Y-128016000D03*
X13716000Y-139954000D03*
X35997000Y-154107000D03*
%TO.N,/IO0*%
X63500000Y-125222000D03*
X29464000Y-128016000D03*
X12192000Y-139446000D03*
X34798000Y-154178000D03*
%TO.N,/A4*%
X5080000Y-127000000D03*
%TO.N,/A3*%
X2794000Y-126492000D03*
%TO.N,/A2*%
X2093990Y-124460000D03*
%TO.N,/A1*%
X1848708Y-122077353D03*
%TO.N,/A0*%
X972642Y-121595137D03*
%TO.N,/A18*%
X30226000Y-150114000D03*
X5842000Y-151384000D03*
X1270000Y-152908000D03*
%TO.N,+5V*%
X52137000Y-149927000D03*
X14986000Y-155702000D03*
X16123000Y-149473000D03*
X16256000Y-134366000D03*
X34047000Y-150125000D03*
X33086000Y-147000000D03*
X38354000Y-139446000D03*
X-4236000Y-147656000D03*
X-4318000Y-135890000D03*
X-4236000Y-117684000D03*
X20320000Y-162306000D03*
X11326500Y-163679500D03*
%TO.N,MR*%
X53340000Y-149860000D03*
X40640000Y-162306000D03*
X31750000Y-162306000D03*
X29210000Y-160528000D03*
%TO.N,CLOCK*%
X39878000Y-161290000D03*
X37866132Y-155611054D03*
%TO.N,~OE*%
X11176000Y-154940000D03*
X10922000Y-130556000D03*
%TO.N,~WE*%
X16002000Y-161290000D03*
%TO.N,/CS2*%
X43434000Y-158242000D03*
X42414246Y-142786227D03*
%TO.N,/CS1*%
X45720000Y-158242000D03*
X41656000Y-144780000D03*
%TO.N,/CS0*%
X48006000Y-158242000D03*
X39878000Y-144018000D03*
%TO.N,/DS2*%
X61468000Y-158496000D03*
X42987990Y-138938000D03*
%TO.N,/DS1*%
X63500000Y-158750000D03*
X47498000Y-145288000D03*
%TO.N,/DS0*%
X65024000Y-158496000D03*
X48768000Y-146050000D03*
%TO.N,/CS3*%
X41148000Y-158242000D03*
X40640000Y-142748000D03*
%TO.N,/DS3*%
X59182000Y-158496000D03*
X41148000Y-138938000D03*
%TO.N,Net-(U1-Pad6)*%
X2032000Y-136652000D03*
X10922000Y-140208000D03*
%TO.N,/~RAM_CS*%
X30988000Y-148844000D03*
X2032000Y-150876000D03*
X2032000Y-148590000D03*
X-4572000Y-143256000D03*
%TO.N,/~ROM_EN*%
X-1270000Y-132334000D03*
%TO.N,Net-(U6-Pad10)*%
X-1636000Y-144638000D03*
X-981716Y-149976990D03*
%TO.N,Net-(U6-Pad3)*%
X-762000Y-147574000D03*
X-2794000Y-149860000D03*
%TD*%
D15*
%TO.N,/A16*%
X32258000Y-149352000D02*
X36322000Y-149352000D01*
X36322000Y-149352000D02*
X37592000Y-148082000D01*
%TO.N,/A9*%
X33866001Y-124185999D02*
X33866001Y-130471999D01*
X32108002Y-122428000D02*
X33866001Y-124185999D01*
X23368000Y-122428000D02*
X32108002Y-122428000D01*
X33866001Y-130471999D02*
X32512000Y-131826000D01*
%TO.N,/A8*%
X31219002Y-118999000D02*
X36576000Y-124355998D01*
X15875000Y-118999000D02*
X31219002Y-118999000D01*
X36576000Y-124355998D02*
X36576000Y-129032000D01*
X36576000Y-129032000D02*
X26162000Y-139446000D01*
X26162000Y-139446000D02*
X25146000Y-139446000D01*
%TO.N,/A6*%
X22475989Y-137791989D02*
X22475989Y-140444323D01*
X16256000Y-131572000D02*
X22475989Y-137791989D01*
X16256000Y-123698000D02*
X16256000Y-131572000D01*
X12446000Y-124714000D02*
X13970000Y-123190000D01*
X15748000Y-123190000D02*
X16256000Y-123698000D01*
X13970000Y-123190000D02*
X15748000Y-123190000D01*
%TO.N,/A5*%
X14986000Y-124714000D02*
X14986000Y-134118023D01*
X14986000Y-134118023D02*
X21075977Y-140208000D01*
%TO.N,/A4*%
X17526000Y-124714000D02*
X17526000Y-122682000D01*
X17526000Y-122682000D02*
X16510000Y-121666000D01*
X16510000Y-121666000D02*
X4826000Y-121666000D01*
X4826000Y-121666000D02*
X3302000Y-123190000D01*
X3302000Y-123190000D02*
X3302000Y-125730000D01*
X3302000Y-125730000D02*
X4572000Y-127000000D01*
X4572000Y-127000000D02*
X5080000Y-127000000D01*
%TO.N,/A3*%
X20066000Y-124714000D02*
X20066000Y-122936000D01*
X20066000Y-122936000D02*
X18288000Y-121158000D01*
X18288000Y-121158000D02*
X4318000Y-121158000D01*
X4318000Y-121158000D02*
X2794000Y-122682000D01*
X2794000Y-122682000D02*
X2794000Y-125984000D01*
X2794000Y-125984000D02*
X2794000Y-126492000D01*
%TO.N,/A2*%
X18542000Y-120650000D02*
X4260300Y-120650000D01*
X22606000Y-124714000D02*
X18542000Y-120650000D01*
X2393989Y-124160001D02*
X2093990Y-124460000D01*
X2393989Y-122516311D02*
X2393989Y-124160001D01*
X4260300Y-120650000D02*
X2393989Y-122516311D01*
%TD*%
D16*
%TO.N,GND*%
X71222001Y-161257572D02*
X71222000Y-161257582D01*
X71222001Y-171806000D01*
X-6706000Y-171806000D01*
X-6706000Y-167747740D01*
X3595000Y-167747740D01*
X3595000Y-168040260D01*
X3652068Y-168327158D01*
X3764010Y-168597411D01*
X3926525Y-168840632D01*
X4133368Y-169047475D01*
X4376589Y-169209990D01*
X4646842Y-169321932D01*
X4933740Y-169379000D01*
X5226260Y-169379000D01*
X5513158Y-169321932D01*
X5783411Y-169209990D01*
X6026632Y-169047475D01*
X6233475Y-168840632D01*
X6350000Y-168666240D01*
X6466525Y-168840632D01*
X6673368Y-169047475D01*
X6916589Y-169209990D01*
X7186842Y-169321932D01*
X7473740Y-169379000D01*
X7766260Y-169379000D01*
X8053158Y-169321932D01*
X8323411Y-169209990D01*
X8566632Y-169047475D01*
X8773475Y-168840632D01*
X8890000Y-168666240D01*
X9006525Y-168840632D01*
X9213368Y-169047475D01*
X9456589Y-169209990D01*
X9726842Y-169321932D01*
X10013740Y-169379000D01*
X10306260Y-169379000D01*
X10593158Y-169321932D01*
X10863411Y-169209990D01*
X11106632Y-169047475D01*
X11313475Y-168840632D01*
X11430000Y-168666240D01*
X11546525Y-168840632D01*
X11753368Y-169047475D01*
X11996589Y-169209990D01*
X12266842Y-169321932D01*
X12553740Y-169379000D01*
X12846260Y-169379000D01*
X13133158Y-169321932D01*
X13403411Y-169209990D01*
X13646632Y-169047475D01*
X13853475Y-168840632D01*
X13970000Y-168666240D01*
X14086525Y-168840632D01*
X14293368Y-169047475D01*
X14536589Y-169209990D01*
X14806842Y-169321932D01*
X15093740Y-169379000D01*
X15386260Y-169379000D01*
X15673158Y-169321932D01*
X15943411Y-169209990D01*
X16186632Y-169047475D01*
X16393475Y-168840632D01*
X16510000Y-168666240D01*
X16626525Y-168840632D01*
X16833368Y-169047475D01*
X17076589Y-169209990D01*
X17346842Y-169321932D01*
X17633740Y-169379000D01*
X17926260Y-169379000D01*
X18213158Y-169321932D01*
X18483411Y-169209990D01*
X18726632Y-169047475D01*
X18933475Y-168840632D01*
X19050000Y-168666240D01*
X19166525Y-168840632D01*
X19373368Y-169047475D01*
X19616589Y-169209990D01*
X19886842Y-169321932D01*
X20173740Y-169379000D01*
X20466260Y-169379000D01*
X20753158Y-169321932D01*
X21023411Y-169209990D01*
X21266632Y-169047475D01*
X21473475Y-168840632D01*
X21595195Y-168658466D01*
X21664822Y-168775355D01*
X21859731Y-168991588D01*
X22093080Y-169165641D01*
X22355901Y-169290825D01*
X22503110Y-169335476D01*
X22733000Y-169214155D01*
X22733000Y-168021000D01*
X22713000Y-168021000D01*
X22713000Y-167767000D01*
X22733000Y-167767000D01*
X22733000Y-166573845D01*
X22987000Y-166573845D01*
X22987000Y-167767000D01*
X23007000Y-167767000D01*
X23007000Y-168021000D01*
X22987000Y-168021000D01*
X22987000Y-169214155D01*
X23216890Y-169335476D01*
X23364099Y-169290825D01*
X23626920Y-169165641D01*
X23860269Y-168991588D01*
X23936034Y-168907534D01*
X23960498Y-168988180D01*
X24019463Y-169098494D01*
X24098815Y-169195185D01*
X24195506Y-169274537D01*
X24305820Y-169333502D01*
X24425518Y-169369812D01*
X24550000Y-169382072D01*
X26250000Y-169382072D01*
X26374482Y-169369812D01*
X26494180Y-169333502D01*
X26604494Y-169274537D01*
X26701185Y-169195185D01*
X26780537Y-169098494D01*
X26839502Y-168988180D01*
X26875812Y-168868482D01*
X26888072Y-168744000D01*
X26888072Y-167044000D01*
X46009928Y-167044000D01*
X46009928Y-168744000D01*
X46022188Y-168868482D01*
X46058498Y-168988180D01*
X46117463Y-169098494D01*
X46196815Y-169195185D01*
X46293506Y-169274537D01*
X46403820Y-169333502D01*
X46523518Y-169369812D01*
X46648000Y-169382072D01*
X48348000Y-169382072D01*
X48472482Y-169369812D01*
X48592180Y-169333502D01*
X48702494Y-169274537D01*
X48799185Y-169195185D01*
X48878537Y-169098494D01*
X48937502Y-168988180D01*
X48959513Y-168915620D01*
X49091368Y-169047475D01*
X49334589Y-169209990D01*
X49604842Y-169321932D01*
X49891740Y-169379000D01*
X50184260Y-169379000D01*
X50471158Y-169321932D01*
X50741411Y-169209990D01*
X50984632Y-169047475D01*
X51191475Y-168840632D01*
X51308000Y-168666240D01*
X51424525Y-168840632D01*
X51631368Y-169047475D01*
X51874589Y-169209990D01*
X52144842Y-169321932D01*
X52431740Y-169379000D01*
X52724260Y-169379000D01*
X53011158Y-169321932D01*
X53281411Y-169209990D01*
X53524632Y-169047475D01*
X53731475Y-168840632D01*
X53848000Y-168666240D01*
X53964525Y-168840632D01*
X54171368Y-169047475D01*
X54414589Y-169209990D01*
X54684842Y-169321932D01*
X54971740Y-169379000D01*
X55264260Y-169379000D01*
X55551158Y-169321932D01*
X55821411Y-169209990D01*
X56064632Y-169047475D01*
X56271475Y-168840632D01*
X56388000Y-168666240D01*
X56504525Y-168840632D01*
X56711368Y-169047475D01*
X56954589Y-169209990D01*
X57224842Y-169321932D01*
X57511740Y-169379000D01*
X57804260Y-169379000D01*
X58091158Y-169321932D01*
X58361411Y-169209990D01*
X58604632Y-169047475D01*
X58811475Y-168840632D01*
X58928000Y-168666240D01*
X59044525Y-168840632D01*
X59251368Y-169047475D01*
X59494589Y-169209990D01*
X59764842Y-169321932D01*
X60051740Y-169379000D01*
X60344260Y-169379000D01*
X60631158Y-169321932D01*
X60901411Y-169209990D01*
X61144632Y-169047475D01*
X61351475Y-168840632D01*
X61468000Y-168666240D01*
X61584525Y-168840632D01*
X61791368Y-169047475D01*
X62034589Y-169209990D01*
X62304842Y-169321932D01*
X62591740Y-169379000D01*
X62884260Y-169379000D01*
X63171158Y-169321932D01*
X63441411Y-169209990D01*
X63684632Y-169047475D01*
X63891475Y-168840632D01*
X64008000Y-168666240D01*
X64124525Y-168840632D01*
X64331368Y-169047475D01*
X64574589Y-169209990D01*
X64844842Y-169321932D01*
X65131740Y-169379000D01*
X65424260Y-169379000D01*
X65711158Y-169321932D01*
X65981411Y-169209990D01*
X66224632Y-169047475D01*
X66431475Y-168840632D01*
X66593990Y-168597411D01*
X66705932Y-168327158D01*
X66763000Y-168040260D01*
X66763000Y-167747740D01*
X66705932Y-167460842D01*
X66593990Y-167190589D01*
X66431475Y-166947368D01*
X66224632Y-166740525D01*
X65981411Y-166578010D01*
X65711158Y-166466068D01*
X65424260Y-166409000D01*
X65131740Y-166409000D01*
X64844842Y-166466068D01*
X64574589Y-166578010D01*
X64331368Y-166740525D01*
X64124525Y-166947368D01*
X64008000Y-167121760D01*
X63891475Y-166947368D01*
X63684632Y-166740525D01*
X63441411Y-166578010D01*
X63171158Y-166466068D01*
X62884260Y-166409000D01*
X62591740Y-166409000D01*
X62304842Y-166466068D01*
X62034589Y-166578010D01*
X61791368Y-166740525D01*
X61584525Y-166947368D01*
X61468000Y-167121760D01*
X61351475Y-166947368D01*
X61144632Y-166740525D01*
X60901411Y-166578010D01*
X60631158Y-166466068D01*
X60344260Y-166409000D01*
X60051740Y-166409000D01*
X59764842Y-166466068D01*
X59494589Y-166578010D01*
X59251368Y-166740525D01*
X59044525Y-166947368D01*
X58928000Y-167121760D01*
X58811475Y-166947368D01*
X58604632Y-166740525D01*
X58361411Y-166578010D01*
X58091158Y-166466068D01*
X57804260Y-166409000D01*
X57511740Y-166409000D01*
X57224842Y-166466068D01*
X56954589Y-166578010D01*
X56711368Y-166740525D01*
X56504525Y-166947368D01*
X56388000Y-167121760D01*
X56271475Y-166947368D01*
X56064632Y-166740525D01*
X55821411Y-166578010D01*
X55551158Y-166466068D01*
X55264260Y-166409000D01*
X54971740Y-166409000D01*
X54684842Y-166466068D01*
X54414589Y-166578010D01*
X54171368Y-166740525D01*
X53964525Y-166947368D01*
X53848000Y-167121760D01*
X53731475Y-166947368D01*
X53524632Y-166740525D01*
X53281411Y-166578010D01*
X53011158Y-166466068D01*
X52724260Y-166409000D01*
X52431740Y-166409000D01*
X52144842Y-166466068D01*
X51874589Y-166578010D01*
X51631368Y-166740525D01*
X51424525Y-166947368D01*
X51308000Y-167121760D01*
X51191475Y-166947368D01*
X50984632Y-166740525D01*
X50741411Y-166578010D01*
X50471158Y-166466068D01*
X50184260Y-166409000D01*
X49891740Y-166409000D01*
X49604842Y-166466068D01*
X49334589Y-166578010D01*
X49091368Y-166740525D01*
X48959513Y-166872380D01*
X48937502Y-166799820D01*
X48878537Y-166689506D01*
X48799185Y-166592815D01*
X48702494Y-166513463D01*
X48592180Y-166454498D01*
X48472482Y-166418188D01*
X48348000Y-166405928D01*
X46648000Y-166405928D01*
X46523518Y-166418188D01*
X46403820Y-166454498D01*
X46293506Y-166513463D01*
X46196815Y-166592815D01*
X46117463Y-166689506D01*
X46058498Y-166799820D01*
X46022188Y-166919518D01*
X46009928Y-167044000D01*
X26888072Y-167044000D01*
X26875812Y-166919518D01*
X26839502Y-166799820D01*
X26780537Y-166689506D01*
X26701185Y-166592815D01*
X26604494Y-166513463D01*
X26494180Y-166454498D01*
X26374482Y-166418188D01*
X26250000Y-166405928D01*
X24550000Y-166405928D01*
X24425518Y-166418188D01*
X24305820Y-166454498D01*
X24195506Y-166513463D01*
X24098815Y-166592815D01*
X24019463Y-166689506D01*
X23960498Y-166799820D01*
X23936034Y-166880466D01*
X23860269Y-166796412D01*
X23626920Y-166622359D01*
X23364099Y-166497175D01*
X23216890Y-166452524D01*
X22987000Y-166573845D01*
X22733000Y-166573845D01*
X22503110Y-166452524D01*
X22355901Y-166497175D01*
X22093080Y-166622359D01*
X21859731Y-166796412D01*
X21664822Y-167012645D01*
X21595195Y-167129534D01*
X21473475Y-166947368D01*
X21266632Y-166740525D01*
X21023411Y-166578010D01*
X20753158Y-166466068D01*
X20466260Y-166409000D01*
X20173740Y-166409000D01*
X19886842Y-166466068D01*
X19616589Y-166578010D01*
X19373368Y-166740525D01*
X19166525Y-166947368D01*
X19050000Y-167121760D01*
X18933475Y-166947368D01*
X18726632Y-166740525D01*
X18483411Y-166578010D01*
X18213158Y-166466068D01*
X17926260Y-166409000D01*
X17633740Y-166409000D01*
X17346842Y-166466068D01*
X17076589Y-166578010D01*
X16833368Y-166740525D01*
X16626525Y-166947368D01*
X16510000Y-167121760D01*
X16393475Y-166947368D01*
X16186632Y-166740525D01*
X15943411Y-166578010D01*
X15673158Y-166466068D01*
X15386260Y-166409000D01*
X15093740Y-166409000D01*
X14806842Y-166466068D01*
X14536589Y-166578010D01*
X14293368Y-166740525D01*
X14086525Y-166947368D01*
X13970000Y-167121760D01*
X13853475Y-166947368D01*
X13646632Y-166740525D01*
X13403411Y-166578010D01*
X13133158Y-166466068D01*
X12846260Y-166409000D01*
X12553740Y-166409000D01*
X12266842Y-166466068D01*
X11996589Y-166578010D01*
X11753368Y-166740525D01*
X11546525Y-166947368D01*
X11430000Y-167121760D01*
X11313475Y-166947368D01*
X11106632Y-166740525D01*
X10863411Y-166578010D01*
X10593158Y-166466068D01*
X10306260Y-166409000D01*
X10013740Y-166409000D01*
X9726842Y-166466068D01*
X9456589Y-166578010D01*
X9213368Y-166740525D01*
X9006525Y-166947368D01*
X8890000Y-167121760D01*
X8773475Y-166947368D01*
X8566632Y-166740525D01*
X8323411Y-166578010D01*
X8053158Y-166466068D01*
X7766260Y-166409000D01*
X7473740Y-166409000D01*
X7186842Y-166466068D01*
X6916589Y-166578010D01*
X6673368Y-166740525D01*
X6466525Y-166947368D01*
X6350000Y-167121760D01*
X6233475Y-166947368D01*
X6026632Y-166740525D01*
X5783411Y-166578010D01*
X5513158Y-166466068D01*
X5226260Y-166409000D01*
X4933740Y-166409000D01*
X4646842Y-166466068D01*
X4376589Y-166578010D01*
X4133368Y-166740525D01*
X3926525Y-166947368D01*
X3764010Y-167190589D01*
X3652068Y-167460842D01*
X3595000Y-167747740D01*
X-6706000Y-167747740D01*
X-6706000Y-163577561D01*
X10291500Y-163577561D01*
X10291500Y-163781439D01*
X10331274Y-163981398D01*
X10409295Y-164169756D01*
X10522563Y-164339274D01*
X10666726Y-164483437D01*
X10836244Y-164596705D01*
X11024602Y-164674726D01*
X11224561Y-164714500D01*
X11428439Y-164714500D01*
X11628398Y-164674726D01*
X11816756Y-164596705D01*
X11986274Y-164483437D01*
X12130437Y-164339274D01*
X12243705Y-164169756D01*
X12321726Y-163981398D01*
X12361500Y-163781439D01*
X12361500Y-163577561D01*
X12321726Y-163377602D01*
X12243705Y-163189244D01*
X12130437Y-163019726D01*
X11986274Y-162875563D01*
X11816756Y-162762295D01*
X11628398Y-162684274D01*
X11428439Y-162644500D01*
X11224561Y-162644500D01*
X11024602Y-162684274D01*
X10836244Y-162762295D01*
X10666726Y-162875563D01*
X10522563Y-163019726D01*
X10409295Y-163189244D01*
X10331274Y-163377602D01*
X10291500Y-163577561D01*
X-6706000Y-163577561D01*
X-6706000Y-161188061D01*
X14967000Y-161188061D01*
X14967000Y-161391939D01*
X15006774Y-161591898D01*
X15084795Y-161780256D01*
X15198063Y-161949774D01*
X15342226Y-162093937D01*
X15511744Y-162207205D01*
X15700102Y-162285226D01*
X15900061Y-162325000D01*
X16103939Y-162325000D01*
X16303898Y-162285226D01*
X16492256Y-162207205D01*
X16496961Y-162204061D01*
X19285000Y-162204061D01*
X19285000Y-162407939D01*
X19324774Y-162607898D01*
X19402795Y-162796256D01*
X19516063Y-162965774D01*
X19660226Y-163109937D01*
X19829744Y-163223205D01*
X20018102Y-163301226D01*
X20218061Y-163341000D01*
X20421939Y-163341000D01*
X20621898Y-163301226D01*
X20810256Y-163223205D01*
X20979774Y-163109937D01*
X21123937Y-162965774D01*
X21237205Y-162796256D01*
X21315226Y-162607898D01*
X21355000Y-162407939D01*
X21355000Y-162204061D01*
X30715000Y-162204061D01*
X30715000Y-162407939D01*
X30754774Y-162607898D01*
X30832795Y-162796256D01*
X30946063Y-162965774D01*
X31090226Y-163109937D01*
X31259744Y-163223205D01*
X31448102Y-163301226D01*
X31648061Y-163341000D01*
X31851939Y-163341000D01*
X32051898Y-163301226D01*
X32240256Y-163223205D01*
X32409774Y-163109937D01*
X32553937Y-162965774D01*
X32667205Y-162796256D01*
X32745226Y-162607898D01*
X32785000Y-162407939D01*
X32785000Y-162204061D01*
X32745226Y-162004102D01*
X32667205Y-161815744D01*
X32553937Y-161646226D01*
X32409774Y-161502063D01*
X32240256Y-161388795D01*
X32051898Y-161310774D01*
X31851939Y-161271000D01*
X31648061Y-161271000D01*
X31448102Y-161310774D01*
X31259744Y-161388795D01*
X31090226Y-161502063D01*
X30946063Y-161646226D01*
X30832795Y-161815744D01*
X30754774Y-162004102D01*
X30715000Y-162204061D01*
X21355000Y-162204061D01*
X21315226Y-162004102D01*
X21237205Y-161815744D01*
X21123937Y-161646226D01*
X20979774Y-161502063D01*
X20810256Y-161388795D01*
X20621898Y-161310774D01*
X20421939Y-161271000D01*
X20218061Y-161271000D01*
X20018102Y-161310774D01*
X19829744Y-161388795D01*
X19660226Y-161502063D01*
X19516063Y-161646226D01*
X19402795Y-161815744D01*
X19324774Y-162004102D01*
X19285000Y-162204061D01*
X16496961Y-162204061D01*
X16661774Y-162093937D01*
X16805937Y-161949774D01*
X16919205Y-161780256D01*
X16997226Y-161591898D01*
X17037000Y-161391939D01*
X17037000Y-161188061D01*
X16997226Y-160988102D01*
X16919205Y-160799744D01*
X16805937Y-160630226D01*
X16661774Y-160486063D01*
X16571975Y-160426061D01*
X28175000Y-160426061D01*
X28175000Y-160629939D01*
X28214774Y-160829898D01*
X28292795Y-161018256D01*
X28406063Y-161187774D01*
X28550226Y-161331937D01*
X28719744Y-161445205D01*
X28908102Y-161523226D01*
X29108061Y-161563000D01*
X29311939Y-161563000D01*
X29511898Y-161523226D01*
X29700256Y-161445205D01*
X29869774Y-161331937D01*
X30013650Y-161188061D01*
X38843000Y-161188061D01*
X38843000Y-161391939D01*
X38882774Y-161591898D01*
X38960795Y-161780256D01*
X39074063Y-161949774D01*
X39218226Y-162093937D01*
X39387744Y-162207205D01*
X39576102Y-162285226D01*
X39605000Y-162290974D01*
X39605000Y-162407939D01*
X39644774Y-162607898D01*
X39722795Y-162796256D01*
X39836063Y-162965774D01*
X39980226Y-163109937D01*
X40149744Y-163223205D01*
X40338102Y-163301226D01*
X40538061Y-163341000D01*
X40741939Y-163341000D01*
X40941898Y-163301226D01*
X41130256Y-163223205D01*
X41299774Y-163109937D01*
X41443937Y-162965774D01*
X41557205Y-162796256D01*
X41635226Y-162607898D01*
X41675000Y-162407939D01*
X41675000Y-162204061D01*
X41635226Y-162004102D01*
X41557205Y-161815744D01*
X41443937Y-161646226D01*
X41299774Y-161502063D01*
X41130256Y-161388795D01*
X40941898Y-161310774D01*
X40913000Y-161305026D01*
X40913000Y-161188061D01*
X40873226Y-160988102D01*
X40795205Y-160799744D01*
X40681937Y-160630226D01*
X40537774Y-160486063D01*
X40368256Y-160372795D01*
X40179898Y-160294774D01*
X39979939Y-160255000D01*
X39776061Y-160255000D01*
X39576102Y-160294774D01*
X39387744Y-160372795D01*
X39218226Y-160486063D01*
X39074063Y-160630226D01*
X38960795Y-160799744D01*
X38882774Y-160988102D01*
X38843000Y-161188061D01*
X30013650Y-161188061D01*
X30013937Y-161187774D01*
X30127205Y-161018256D01*
X30205226Y-160829898D01*
X30245000Y-160629939D01*
X30245000Y-160426061D01*
X30205226Y-160226102D01*
X30127205Y-160037744D01*
X30013937Y-159868226D01*
X29869774Y-159724063D01*
X29700256Y-159610795D01*
X29511898Y-159532774D01*
X29311939Y-159493000D01*
X29108061Y-159493000D01*
X28908102Y-159532774D01*
X28719744Y-159610795D01*
X28550226Y-159724063D01*
X28406063Y-159868226D01*
X28292795Y-160037744D01*
X28214774Y-160226102D01*
X28175000Y-160426061D01*
X16571975Y-160426061D01*
X16492256Y-160372795D01*
X16303898Y-160294774D01*
X16103939Y-160255000D01*
X15900061Y-160255000D01*
X15700102Y-160294774D01*
X15511744Y-160372795D01*
X15342226Y-160486063D01*
X15198063Y-160630226D01*
X15084795Y-160799744D01*
X15006774Y-160988102D01*
X14967000Y-161188061D01*
X-6706000Y-161188061D01*
X-6706000Y-158140061D01*
X40113000Y-158140061D01*
X40113000Y-158343939D01*
X40152774Y-158543898D01*
X40230795Y-158732256D01*
X40344063Y-158901774D01*
X40488226Y-159045937D01*
X40657744Y-159159205D01*
X40846102Y-159237226D01*
X41046061Y-159277000D01*
X41249939Y-159277000D01*
X41449898Y-159237226D01*
X41638256Y-159159205D01*
X41807774Y-159045937D01*
X41951937Y-158901774D01*
X42065205Y-158732256D01*
X42143226Y-158543898D01*
X42183000Y-158343939D01*
X42183000Y-158140061D01*
X42399000Y-158140061D01*
X42399000Y-158343939D01*
X42438774Y-158543898D01*
X42516795Y-158732256D01*
X42630063Y-158901774D01*
X42774226Y-159045937D01*
X42943744Y-159159205D01*
X43132102Y-159237226D01*
X43332061Y-159277000D01*
X43535939Y-159277000D01*
X43735898Y-159237226D01*
X43924256Y-159159205D01*
X44093774Y-159045937D01*
X44237937Y-158901774D01*
X44351205Y-158732256D01*
X44429226Y-158543898D01*
X44469000Y-158343939D01*
X44469000Y-158140061D01*
X44685000Y-158140061D01*
X44685000Y-158343939D01*
X44724774Y-158543898D01*
X44802795Y-158732256D01*
X44916063Y-158901774D01*
X45060226Y-159045937D01*
X45229744Y-159159205D01*
X45418102Y-159237226D01*
X45618061Y-159277000D01*
X45821939Y-159277000D01*
X46021898Y-159237226D01*
X46210256Y-159159205D01*
X46379774Y-159045937D01*
X46523937Y-158901774D01*
X46637205Y-158732256D01*
X46715226Y-158543898D01*
X46755000Y-158343939D01*
X46755000Y-158140061D01*
X46971000Y-158140061D01*
X46971000Y-158343939D01*
X47010774Y-158543898D01*
X47088795Y-158732256D01*
X47202063Y-158901774D01*
X47346226Y-159045937D01*
X47515744Y-159159205D01*
X47704102Y-159237226D01*
X47904061Y-159277000D01*
X48107939Y-159277000D01*
X48307898Y-159237226D01*
X48496256Y-159159205D01*
X48665774Y-159045937D01*
X48809937Y-158901774D01*
X48923205Y-158732256D01*
X49001226Y-158543898D01*
X49031030Y-158394061D01*
X58147000Y-158394061D01*
X58147000Y-158597939D01*
X58186774Y-158797898D01*
X58264795Y-158986256D01*
X58378063Y-159155774D01*
X58522226Y-159299937D01*
X58691744Y-159413205D01*
X58880102Y-159491226D01*
X59080061Y-159531000D01*
X59283939Y-159531000D01*
X59483898Y-159491226D01*
X59672256Y-159413205D01*
X59841774Y-159299937D01*
X59985937Y-159155774D01*
X60099205Y-158986256D01*
X60177226Y-158797898D01*
X60217000Y-158597939D01*
X60217000Y-158394061D01*
X60433000Y-158394061D01*
X60433000Y-158597939D01*
X60472774Y-158797898D01*
X60550795Y-158986256D01*
X60664063Y-159155774D01*
X60808226Y-159299937D01*
X60977744Y-159413205D01*
X61166102Y-159491226D01*
X61366061Y-159531000D01*
X61569939Y-159531000D01*
X61769898Y-159491226D01*
X61958256Y-159413205D01*
X62127774Y-159299937D01*
X62271937Y-159155774D01*
X62385205Y-158986256D01*
X62463226Y-158797898D01*
X62465000Y-158788979D01*
X62465000Y-158851939D01*
X62504774Y-159051898D01*
X62582795Y-159240256D01*
X62696063Y-159409774D01*
X62840226Y-159553937D01*
X63009744Y-159667205D01*
X63198102Y-159745226D01*
X63398061Y-159785000D01*
X63601939Y-159785000D01*
X63801898Y-159745226D01*
X63990256Y-159667205D01*
X64159774Y-159553937D01*
X64303937Y-159409774D01*
X64373284Y-159305989D01*
X64533744Y-159413205D01*
X64722102Y-159491226D01*
X64922061Y-159531000D01*
X65125939Y-159531000D01*
X65325898Y-159491226D01*
X65514256Y-159413205D01*
X65683774Y-159299937D01*
X65827937Y-159155774D01*
X65941205Y-158986256D01*
X66019226Y-158797898D01*
X66059000Y-158597939D01*
X66059000Y-158394061D01*
X66019226Y-158194102D01*
X65941205Y-158005744D01*
X65827937Y-157836226D01*
X65683774Y-157692063D01*
X65514256Y-157578795D01*
X65325898Y-157500774D01*
X65125939Y-157461000D01*
X64922061Y-157461000D01*
X64722102Y-157500774D01*
X64533744Y-157578795D01*
X64364226Y-157692063D01*
X64220063Y-157836226D01*
X64150716Y-157940011D01*
X63990256Y-157832795D01*
X63801898Y-157754774D01*
X63601939Y-157715000D01*
X63398061Y-157715000D01*
X63198102Y-157754774D01*
X63009744Y-157832795D01*
X62840226Y-157946063D01*
X62696063Y-158090226D01*
X62582795Y-158259744D01*
X62504774Y-158448102D01*
X62503000Y-158457021D01*
X62503000Y-158394061D01*
X62463226Y-158194102D01*
X62385205Y-158005744D01*
X62271937Y-157836226D01*
X62127774Y-157692063D01*
X61958256Y-157578795D01*
X61769898Y-157500774D01*
X61569939Y-157461000D01*
X61366061Y-157461000D01*
X61166102Y-157500774D01*
X60977744Y-157578795D01*
X60808226Y-157692063D01*
X60664063Y-157836226D01*
X60550795Y-158005744D01*
X60472774Y-158194102D01*
X60433000Y-158394061D01*
X60217000Y-158394061D01*
X60177226Y-158194102D01*
X60099205Y-158005744D01*
X59985937Y-157836226D01*
X59841774Y-157692063D01*
X59672256Y-157578795D01*
X59483898Y-157500774D01*
X59283939Y-157461000D01*
X59080061Y-157461000D01*
X58880102Y-157500774D01*
X58691744Y-157578795D01*
X58522226Y-157692063D01*
X58378063Y-157836226D01*
X58264795Y-158005744D01*
X58186774Y-158194102D01*
X58147000Y-158394061D01*
X49031030Y-158394061D01*
X49041000Y-158343939D01*
X49041000Y-158140061D01*
X49001226Y-157940102D01*
X48923205Y-157751744D01*
X48809937Y-157582226D01*
X48665774Y-157438063D01*
X48496256Y-157324795D01*
X48307898Y-157246774D01*
X48107939Y-157207000D01*
X47904061Y-157207000D01*
X47704102Y-157246774D01*
X47515744Y-157324795D01*
X47346226Y-157438063D01*
X47202063Y-157582226D01*
X47088795Y-157751744D01*
X47010774Y-157940102D01*
X46971000Y-158140061D01*
X46755000Y-158140061D01*
X46715226Y-157940102D01*
X46637205Y-157751744D01*
X46523937Y-157582226D01*
X46379774Y-157438063D01*
X46210256Y-157324795D01*
X46021898Y-157246774D01*
X45821939Y-157207000D01*
X45618061Y-157207000D01*
X45418102Y-157246774D01*
X45229744Y-157324795D01*
X45060226Y-157438063D01*
X44916063Y-157582226D01*
X44802795Y-157751744D01*
X44724774Y-157940102D01*
X44685000Y-158140061D01*
X44469000Y-158140061D01*
X44429226Y-157940102D01*
X44351205Y-157751744D01*
X44237937Y-157582226D01*
X44093774Y-157438063D01*
X43924256Y-157324795D01*
X43735898Y-157246774D01*
X43535939Y-157207000D01*
X43332061Y-157207000D01*
X43132102Y-157246774D01*
X42943744Y-157324795D01*
X42774226Y-157438063D01*
X42630063Y-157582226D01*
X42516795Y-157751744D01*
X42438774Y-157940102D01*
X42399000Y-158140061D01*
X42183000Y-158140061D01*
X42143226Y-157940102D01*
X42065205Y-157751744D01*
X41951937Y-157582226D01*
X41807774Y-157438063D01*
X41638256Y-157324795D01*
X41449898Y-157246774D01*
X41249939Y-157207000D01*
X41046061Y-157207000D01*
X40846102Y-157246774D01*
X40657744Y-157324795D01*
X40488226Y-157438063D01*
X40344063Y-157582226D01*
X40230795Y-157751744D01*
X40152774Y-157940102D01*
X40113000Y-158140061D01*
X-6706000Y-158140061D01*
X-6706000Y-155092061D01*
X-1797000Y-155092061D01*
X-1797000Y-155295939D01*
X-1757226Y-155495898D01*
X-1679205Y-155684256D01*
X-1565937Y-155853774D01*
X-1421774Y-155997937D01*
X-1252256Y-156111205D01*
X-1063898Y-156189226D01*
X-863939Y-156229000D01*
X-660061Y-156229000D01*
X-460102Y-156189226D01*
X-271744Y-156111205D01*
X-102226Y-155997937D01*
X41937Y-155853774D01*
X155205Y-155684256D01*
X233226Y-155495898D01*
X273000Y-155295939D01*
X273000Y-155092061D01*
X233226Y-154892102D01*
X210842Y-154838061D01*
X10141000Y-154838061D01*
X10141000Y-155041939D01*
X10180774Y-155241898D01*
X10258795Y-155430256D01*
X10372063Y-155599774D01*
X10516226Y-155743937D01*
X10685744Y-155857205D01*
X10874102Y-155935226D01*
X11074061Y-155975000D01*
X11277939Y-155975000D01*
X11477898Y-155935226D01*
X11666256Y-155857205D01*
X11835774Y-155743937D01*
X11979650Y-155600061D01*
X13951000Y-155600061D01*
X13951000Y-155803939D01*
X13990774Y-156003898D01*
X14068795Y-156192256D01*
X14182063Y-156361774D01*
X14326226Y-156505937D01*
X14495744Y-156619205D01*
X14684102Y-156697226D01*
X14884061Y-156737000D01*
X15087939Y-156737000D01*
X15287898Y-156697226D01*
X15476256Y-156619205D01*
X15645774Y-156505937D01*
X15789937Y-156361774D01*
X15903205Y-156192256D01*
X15981226Y-156003898D01*
X16021000Y-155803939D01*
X16021000Y-155600061D01*
X16002910Y-155509115D01*
X36831132Y-155509115D01*
X36831132Y-155712993D01*
X36870906Y-155912952D01*
X36948927Y-156101310D01*
X37062195Y-156270828D01*
X37206358Y-156414991D01*
X37375876Y-156528259D01*
X37564234Y-156606280D01*
X37764193Y-156646054D01*
X37968071Y-156646054D01*
X38168030Y-156606280D01*
X38356388Y-156528259D01*
X38525906Y-156414991D01*
X38670069Y-156270828D01*
X38783337Y-156101310D01*
X38861358Y-155912952D01*
X38901132Y-155712993D01*
X38901132Y-155509115D01*
X38861358Y-155309156D01*
X38783337Y-155120798D01*
X38670069Y-154951280D01*
X38525906Y-154807117D01*
X38356388Y-154693849D01*
X38168030Y-154615828D01*
X37968071Y-154576054D01*
X37764193Y-154576054D01*
X37564234Y-154615828D01*
X37375876Y-154693849D01*
X37206358Y-154807117D01*
X37062195Y-154951280D01*
X36948927Y-155120798D01*
X36870906Y-155309156D01*
X36831132Y-155509115D01*
X16002910Y-155509115D01*
X15981226Y-155400102D01*
X15903205Y-155211744D01*
X15789937Y-155042226D01*
X15645774Y-154898063D01*
X15476256Y-154784795D01*
X15287898Y-154706774D01*
X15087939Y-154667000D01*
X14884061Y-154667000D01*
X14684102Y-154706774D01*
X14495744Y-154784795D01*
X14326226Y-154898063D01*
X14182063Y-155042226D01*
X14068795Y-155211744D01*
X13990774Y-155400102D01*
X13951000Y-155600061D01*
X11979650Y-155600061D01*
X11979937Y-155599774D01*
X12093205Y-155430256D01*
X12171226Y-155241898D01*
X12211000Y-155041939D01*
X12211000Y-154838061D01*
X12171226Y-154638102D01*
X12093205Y-154449744D01*
X11979937Y-154280226D01*
X11835774Y-154136063D01*
X11745975Y-154076061D01*
X33763000Y-154076061D01*
X33763000Y-154279939D01*
X33802774Y-154479898D01*
X33880795Y-154668256D01*
X33994063Y-154837774D01*
X34138226Y-154981937D01*
X34307744Y-155095205D01*
X34496102Y-155173226D01*
X34696061Y-155213000D01*
X34899939Y-155213000D01*
X35099898Y-155173226D01*
X35288256Y-155095205D01*
X35450630Y-154986711D01*
X35506744Y-155024205D01*
X35695102Y-155102226D01*
X35895061Y-155142000D01*
X36098939Y-155142000D01*
X36298898Y-155102226D01*
X36487256Y-155024205D01*
X36656774Y-154910937D01*
X36800937Y-154766774D01*
X36888918Y-154635101D01*
X37089711Y-154635101D01*
X37289670Y-154595327D01*
X37478028Y-154517306D01*
X37647546Y-154404038D01*
X37791709Y-154259875D01*
X37844788Y-154180436D01*
X37980387Y-154180436D01*
X38180346Y-154140662D01*
X38368704Y-154062641D01*
X38538222Y-153949373D01*
X38682385Y-153805210D01*
X38795653Y-153635692D01*
X38873674Y-153447334D01*
X38913448Y-153247375D01*
X38913448Y-153043497D01*
X38873674Y-152843538D01*
X38795653Y-152655180D01*
X38682385Y-152485662D01*
X38538222Y-152341499D01*
X38368704Y-152228231D01*
X38180346Y-152150210D01*
X37980387Y-152110436D01*
X37776509Y-152110436D01*
X37576550Y-152150210D01*
X37388192Y-152228231D01*
X37218674Y-152341499D01*
X37074511Y-152485662D01*
X37021432Y-152565101D01*
X36885833Y-152565101D01*
X36685874Y-152604875D01*
X36497516Y-152682896D01*
X36327998Y-152796164D01*
X36183835Y-152940327D01*
X36095854Y-153072000D01*
X35895061Y-153072000D01*
X35695102Y-153111774D01*
X35506744Y-153189795D01*
X35344370Y-153298289D01*
X35288256Y-153260795D01*
X35099898Y-153182774D01*
X34899939Y-153143000D01*
X34696061Y-153143000D01*
X34496102Y-153182774D01*
X34307744Y-153260795D01*
X34138226Y-153374063D01*
X33994063Y-153518226D01*
X33880795Y-153687744D01*
X33802774Y-153876102D01*
X33763000Y-154076061D01*
X11745975Y-154076061D01*
X11666256Y-154022795D01*
X11477898Y-153944774D01*
X11277939Y-153905000D01*
X11074061Y-153905000D01*
X10874102Y-153944774D01*
X10685744Y-154022795D01*
X10516226Y-154136063D01*
X10372063Y-154280226D01*
X10258795Y-154449744D01*
X10180774Y-154638102D01*
X10141000Y-154838061D01*
X210842Y-154838061D01*
X155205Y-154703744D01*
X41937Y-154534226D01*
X-102226Y-154390063D01*
X-271744Y-154276795D01*
X-460102Y-154198774D01*
X-660061Y-154159000D01*
X-863939Y-154159000D01*
X-1063898Y-154198774D01*
X-1252256Y-154276795D01*
X-1421774Y-154390063D01*
X-1565937Y-154534226D01*
X-1679205Y-154703744D01*
X-1757226Y-154892102D01*
X-1797000Y-155092061D01*
X-6706000Y-155092061D01*
X-6706000Y-152806061D01*
X235000Y-152806061D01*
X235000Y-153009939D01*
X274774Y-153209898D01*
X352795Y-153398256D01*
X466063Y-153567774D01*
X610226Y-153711937D01*
X779744Y-153825205D01*
X968102Y-153903226D01*
X1168061Y-153943000D01*
X1371939Y-153943000D01*
X1571898Y-153903226D01*
X1760256Y-153825205D01*
X1929774Y-153711937D01*
X2073937Y-153567774D01*
X2143284Y-153463989D01*
X2303744Y-153571205D01*
X2492102Y-153649226D01*
X2692061Y-153689000D01*
X2895939Y-153689000D01*
X3095898Y-153649226D01*
X3284256Y-153571205D01*
X3288961Y-153568061D01*
X6077000Y-153568061D01*
X6077000Y-153771939D01*
X6116774Y-153971898D01*
X6194795Y-154160256D01*
X6308063Y-154329774D01*
X6452226Y-154473937D01*
X6621744Y-154587205D01*
X6810102Y-154665226D01*
X7010061Y-154705000D01*
X7213939Y-154705000D01*
X7413898Y-154665226D01*
X7602256Y-154587205D01*
X7771774Y-154473937D01*
X7915937Y-154329774D01*
X8029205Y-154160256D01*
X8107226Y-153971898D01*
X8147000Y-153771939D01*
X8147000Y-153571725D01*
X8334102Y-153649226D01*
X8534061Y-153689000D01*
X8737939Y-153689000D01*
X8937898Y-153649226D01*
X9126256Y-153571205D01*
X9295774Y-153457937D01*
X9439937Y-153313774D01*
X9553205Y-153144256D01*
X9631226Y-152955898D01*
X9671000Y-152755939D01*
X9671000Y-152552061D01*
X9631226Y-152352102D01*
X9553205Y-152163744D01*
X9439937Y-151994226D01*
X9295774Y-151850063D01*
X9126256Y-151736795D01*
X8937898Y-151658774D01*
X8737939Y-151619000D01*
X8534061Y-151619000D01*
X8334102Y-151658774D01*
X8145744Y-151736795D01*
X7976226Y-151850063D01*
X7832063Y-151994226D01*
X7718795Y-152163744D01*
X7640774Y-152352102D01*
X7601000Y-152552061D01*
X7601000Y-152752275D01*
X7413898Y-152674774D01*
X7213939Y-152635000D01*
X7010061Y-152635000D01*
X6810102Y-152674774D01*
X6621744Y-152752795D01*
X6452226Y-152866063D01*
X6308063Y-153010226D01*
X6194795Y-153179744D01*
X6116774Y-153368102D01*
X6077000Y-153568061D01*
X3288961Y-153568061D01*
X3453774Y-153457937D01*
X3597937Y-153313774D01*
X3711205Y-153144256D01*
X3789226Y-152955898D01*
X3829000Y-152755939D01*
X3829000Y-152552061D01*
X3789226Y-152352102D01*
X3711205Y-152163744D01*
X3597937Y-151994226D01*
X3453774Y-151850063D01*
X3284256Y-151736795D01*
X3095898Y-151658774D01*
X2895939Y-151619000D01*
X2752711Y-151619000D01*
X2835937Y-151535774D01*
X2949205Y-151366256D01*
X2984079Y-151282061D01*
X4807000Y-151282061D01*
X4807000Y-151485939D01*
X4846774Y-151685898D01*
X4924795Y-151874256D01*
X5038063Y-152043774D01*
X5182226Y-152187937D01*
X5351744Y-152301205D01*
X5540102Y-152379226D01*
X5740061Y-152419000D01*
X5943939Y-152419000D01*
X6143898Y-152379226D01*
X6332256Y-152301205D01*
X6501774Y-152187937D01*
X6645937Y-152043774D01*
X6759205Y-151874256D01*
X6837226Y-151685898D01*
X6877000Y-151485939D01*
X6877000Y-151282061D01*
X6837226Y-151082102D01*
X6759205Y-150893744D01*
X6645937Y-150724226D01*
X6501774Y-150580063D01*
X6332256Y-150466795D01*
X6143898Y-150388774D01*
X5943939Y-150349000D01*
X5740061Y-150349000D01*
X5540102Y-150388774D01*
X5351744Y-150466795D01*
X5182226Y-150580063D01*
X5038063Y-150724226D01*
X4924795Y-150893744D01*
X4846774Y-151082102D01*
X4807000Y-151282061D01*
X2984079Y-151282061D01*
X3027226Y-151177898D01*
X3067000Y-150977939D01*
X3067000Y-150774061D01*
X3027226Y-150574102D01*
X2949205Y-150385744D01*
X2835937Y-150216226D01*
X2691774Y-150072063D01*
X2601975Y-150012061D01*
X8707980Y-150012061D01*
X8707980Y-150215939D01*
X8747754Y-150415898D01*
X8825775Y-150604256D01*
X8939043Y-150773774D01*
X9083206Y-150917937D01*
X9252724Y-151031205D01*
X9441082Y-151109226D01*
X9641041Y-151149000D01*
X9844919Y-151149000D01*
X10044878Y-151109226D01*
X10233236Y-151031205D01*
X10402754Y-150917937D01*
X10546917Y-150773774D01*
X10660185Y-150604256D01*
X10738206Y-150415898D01*
X10777980Y-150215939D01*
X10777980Y-150012061D01*
X10738206Y-149812102D01*
X10660185Y-149623744D01*
X10546917Y-149454226D01*
X10463752Y-149371061D01*
X15088000Y-149371061D01*
X15088000Y-149574939D01*
X15127774Y-149774898D01*
X15205795Y-149963256D01*
X15319063Y-150132774D01*
X15463226Y-150276937D01*
X15632744Y-150390205D01*
X15821102Y-150468226D01*
X16021061Y-150508000D01*
X16224939Y-150508000D01*
X16424898Y-150468226D01*
X16613256Y-150390205D01*
X16782774Y-150276937D01*
X16926937Y-150132774D01*
X17007594Y-150012061D01*
X29191000Y-150012061D01*
X29191000Y-150215939D01*
X29230774Y-150415898D01*
X29308795Y-150604256D01*
X29422063Y-150773774D01*
X29566226Y-150917937D01*
X29735744Y-151031205D01*
X29924102Y-151109226D01*
X30124061Y-151149000D01*
X30327939Y-151149000D01*
X30527898Y-151109226D01*
X30716256Y-151031205D01*
X30885774Y-150917937D01*
X31029937Y-150773774D01*
X31143205Y-150604256D01*
X31221226Y-150415898D01*
X31261000Y-150215939D01*
X31261000Y-150012061D01*
X31229030Y-149851333D01*
X31289898Y-149839226D01*
X31332270Y-149821675D01*
X31340795Y-149842256D01*
X31454063Y-150011774D01*
X31598226Y-150155937D01*
X31767744Y-150269205D01*
X31956102Y-150347226D01*
X32156061Y-150387000D01*
X32359939Y-150387000D01*
X32559898Y-150347226D01*
X32748256Y-150269205D01*
X32917774Y-150155937D01*
X32986711Y-150087000D01*
X33012000Y-150087000D01*
X33012000Y-150226939D01*
X33051774Y-150426898D01*
X33129795Y-150615256D01*
X33243063Y-150784774D01*
X33387226Y-150928937D01*
X33556744Y-151042205D01*
X33745102Y-151120226D01*
X33945061Y-151160000D01*
X34148939Y-151160000D01*
X34348898Y-151120226D01*
X34537256Y-151042205D01*
X34706774Y-150928937D01*
X34850937Y-150784774D01*
X34964205Y-150615256D01*
X35042226Y-150426898D01*
X35082000Y-150226939D01*
X35082000Y-150087000D01*
X36285895Y-150087000D01*
X36322000Y-150090556D01*
X36358105Y-150087000D01*
X36466085Y-150076365D01*
X36604633Y-150034337D01*
X36732320Y-149966087D01*
X36844238Y-149874238D01*
X36867258Y-149846188D01*
X36888385Y-149825061D01*
X51102000Y-149825061D01*
X51102000Y-150028939D01*
X51141774Y-150228898D01*
X51219795Y-150417256D01*
X51333063Y-150586774D01*
X51477226Y-150730937D01*
X51646744Y-150844205D01*
X51835102Y-150922226D01*
X52035061Y-150962000D01*
X52238939Y-150962000D01*
X52438898Y-150922226D01*
X52627256Y-150844205D01*
X52788636Y-150736374D01*
X52849744Y-150777205D01*
X53038102Y-150855226D01*
X53238061Y-150895000D01*
X53441939Y-150895000D01*
X53641898Y-150855226D01*
X53830256Y-150777205D01*
X53999774Y-150663937D01*
X54143937Y-150519774D01*
X54257205Y-150350256D01*
X54335226Y-150161898D01*
X54375000Y-149961939D01*
X54375000Y-149758061D01*
X54335226Y-149558102D01*
X54257205Y-149369744D01*
X54143937Y-149200226D01*
X53999774Y-149056063D01*
X53830256Y-148942795D01*
X53641898Y-148864774D01*
X53441939Y-148825000D01*
X53238061Y-148825000D01*
X53038102Y-148864774D01*
X52849744Y-148942795D01*
X52688364Y-149050626D01*
X52627256Y-149009795D01*
X52438898Y-148931774D01*
X52238939Y-148892000D01*
X52035061Y-148892000D01*
X51835102Y-148931774D01*
X51646744Y-149009795D01*
X51477226Y-149123063D01*
X51333063Y-149267226D01*
X51219795Y-149436744D01*
X51141774Y-149625102D01*
X51102000Y-149825061D01*
X36888385Y-149825061D01*
X37596447Y-149117000D01*
X37693939Y-149117000D01*
X37893898Y-149077226D01*
X38082256Y-148999205D01*
X38251774Y-148885937D01*
X38395937Y-148741774D01*
X38509205Y-148572256D01*
X38587226Y-148383898D01*
X38627000Y-148183939D01*
X38627000Y-147980061D01*
X38587226Y-147780102D01*
X38509205Y-147591744D01*
X38395937Y-147422226D01*
X38251774Y-147278063D01*
X38082256Y-147164795D01*
X37893898Y-147086774D01*
X37693939Y-147047000D01*
X37490061Y-147047000D01*
X37290102Y-147086774D01*
X37101744Y-147164795D01*
X36932226Y-147278063D01*
X36788063Y-147422226D01*
X36674795Y-147591744D01*
X36596774Y-147780102D01*
X36557000Y-147980061D01*
X36557000Y-148077553D01*
X36017554Y-148617000D01*
X32986711Y-148617000D01*
X32917774Y-148548063D01*
X32748256Y-148434795D01*
X32559898Y-148356774D01*
X32359939Y-148317000D01*
X32156061Y-148317000D01*
X31956102Y-148356774D01*
X31913730Y-148374325D01*
X31905205Y-148353744D01*
X31791937Y-148184226D01*
X31647774Y-148040063D01*
X31478256Y-147926795D01*
X31289898Y-147848774D01*
X31089939Y-147809000D01*
X30886061Y-147809000D01*
X30686102Y-147848774D01*
X30497744Y-147926795D01*
X30328226Y-148040063D01*
X30184063Y-148184226D01*
X30070795Y-148353744D01*
X29992774Y-148542102D01*
X29953000Y-148742061D01*
X29953000Y-148945939D01*
X29984970Y-149106667D01*
X29924102Y-149118774D01*
X29735744Y-149196795D01*
X29566226Y-149310063D01*
X29422063Y-149454226D01*
X29308795Y-149623744D01*
X29230774Y-149812102D01*
X29191000Y-150012061D01*
X17007594Y-150012061D01*
X17040205Y-149963256D01*
X17118226Y-149774898D01*
X17158000Y-149574939D01*
X17158000Y-149371061D01*
X17118226Y-149171102D01*
X17040205Y-148982744D01*
X16926937Y-148813226D01*
X16782774Y-148669063D01*
X16613256Y-148555795D01*
X16424898Y-148477774D01*
X16224939Y-148438000D01*
X16021061Y-148438000D01*
X15821102Y-148477774D01*
X15632744Y-148555795D01*
X15463226Y-148669063D01*
X15319063Y-148813226D01*
X15205795Y-148982744D01*
X15127774Y-149171102D01*
X15088000Y-149371061D01*
X10463752Y-149371061D01*
X10402754Y-149310063D01*
X10233236Y-149196795D01*
X10044878Y-149118774D01*
X9844919Y-149079000D01*
X9641041Y-149079000D01*
X9441082Y-149118774D01*
X9252724Y-149196795D01*
X9083206Y-149310063D01*
X8939043Y-149454226D01*
X8825775Y-149623744D01*
X8747754Y-149812102D01*
X8707980Y-150012061D01*
X2601975Y-150012061D01*
X2522256Y-149958795D01*
X2333898Y-149880774D01*
X2133939Y-149841000D01*
X1930061Y-149841000D01*
X1730102Y-149880774D01*
X1541744Y-149958795D01*
X1372226Y-150072063D01*
X1228063Y-150216226D01*
X1114795Y-150385744D01*
X1036774Y-150574102D01*
X997000Y-150774061D01*
X997000Y-150977939D01*
X1036774Y-151177898D01*
X1114795Y-151366256D01*
X1228063Y-151535774D01*
X1372226Y-151679937D01*
X1541744Y-151793205D01*
X1730102Y-151871226D01*
X1930061Y-151911000D01*
X2073289Y-151911000D01*
X1990063Y-151994226D01*
X1920716Y-152098011D01*
X1760256Y-151990795D01*
X1571898Y-151912774D01*
X1371939Y-151873000D01*
X1168061Y-151873000D01*
X968102Y-151912774D01*
X779744Y-151990795D01*
X610226Y-152104063D01*
X466063Y-152248226D01*
X352795Y-152417744D01*
X274774Y-152606102D01*
X235000Y-152806061D01*
X-6706000Y-152806061D01*
X-6706000Y-150575061D01*
X-6369000Y-150575061D01*
X-6369000Y-150778939D01*
X-6329226Y-150978898D01*
X-6251205Y-151167256D01*
X-6137937Y-151336774D01*
X-5993774Y-151480937D01*
X-5824256Y-151594205D01*
X-5635898Y-151672226D01*
X-5435939Y-151712000D01*
X-5232061Y-151712000D01*
X-5032102Y-151672226D01*
X-4843744Y-151594205D01*
X-4674226Y-151480937D01*
X-4530063Y-151336774D01*
X-4416795Y-151167256D01*
X-4338774Y-150978898D01*
X-4299000Y-150778939D01*
X-4299000Y-150575061D01*
X-4338774Y-150375102D01*
X-4416795Y-150186744D01*
X-4530063Y-150017226D01*
X-4674226Y-149873063D01*
X-4843744Y-149759795D01*
X-4847930Y-149758061D01*
X-3829000Y-149758061D01*
X-3829000Y-149961939D01*
X-3789226Y-150161898D01*
X-3711205Y-150350256D01*
X-3597937Y-150519774D01*
X-3453774Y-150663937D01*
X-3284256Y-150777205D01*
X-3095898Y-150855226D01*
X-2895939Y-150895000D01*
X-2692061Y-150895000D01*
X-2492102Y-150855226D01*
X-2303744Y-150777205D01*
X-2134226Y-150663937D01*
X-1990063Y-150519774D01*
X-1920368Y-150415468D01*
X-1898921Y-150467246D01*
X-1785653Y-150636764D01*
X-1641490Y-150780927D01*
X-1471972Y-150894195D01*
X-1283614Y-150972216D01*
X-1083655Y-151011990D01*
X-879777Y-151011990D01*
X-679818Y-150972216D01*
X-491460Y-150894195D01*
X-321942Y-150780927D01*
X-177779Y-150636764D01*
X-64511Y-150467246D01*
X13510Y-150278888D01*
X53284Y-150078929D01*
X53284Y-149875051D01*
X13510Y-149675092D01*
X-64511Y-149486734D01*
X-177779Y-149317216D01*
X-321942Y-149173053D01*
X-491460Y-149059785D01*
X-679818Y-148981764D01*
X-879777Y-148941990D01*
X-1083655Y-148941990D01*
X-1283614Y-148981764D01*
X-1471972Y-149059785D01*
X-1641490Y-149173053D01*
X-1785653Y-149317216D01*
X-1855348Y-149421522D01*
X-1876795Y-149369744D01*
X-1990063Y-149200226D01*
X-2134226Y-149056063D01*
X-2303744Y-148942795D01*
X-2492102Y-148864774D01*
X-2692061Y-148825000D01*
X-2895939Y-148825000D01*
X-3095898Y-148864774D01*
X-3284256Y-148942795D01*
X-3453774Y-149056063D01*
X-3597937Y-149200226D01*
X-3711205Y-149369744D01*
X-3789226Y-149558102D01*
X-3829000Y-149758061D01*
X-4847930Y-149758061D01*
X-5032102Y-149681774D01*
X-5232061Y-149642000D01*
X-5435939Y-149642000D01*
X-5635898Y-149681774D01*
X-5824256Y-149759795D01*
X-5993774Y-149873063D01*
X-6137937Y-150017226D01*
X-6251205Y-150186744D01*
X-6329226Y-150375102D01*
X-6369000Y-150575061D01*
X-6706000Y-150575061D01*
X-6706000Y-147554061D01*
X-5271000Y-147554061D01*
X-5271000Y-147757939D01*
X-5231226Y-147957898D01*
X-5153205Y-148146256D01*
X-5039937Y-148315774D01*
X-4895774Y-148459937D01*
X-4726256Y-148573205D01*
X-4537898Y-148651226D01*
X-4337939Y-148691000D01*
X-4134061Y-148691000D01*
X-3934102Y-148651226D01*
X-3745744Y-148573205D01*
X-3576226Y-148459937D01*
X-3432063Y-148315774D01*
X-3318795Y-148146256D01*
X-3240774Y-147957898D01*
X-3201000Y-147757939D01*
X-3201000Y-147554061D01*
X-3217310Y-147472061D01*
X-1797000Y-147472061D01*
X-1797000Y-147675939D01*
X-1757226Y-147875898D01*
X-1679205Y-148064256D01*
X-1565937Y-148233774D01*
X-1421774Y-148377937D01*
X-1252256Y-148491205D01*
X-1063898Y-148569226D01*
X-863939Y-148609000D01*
X-660061Y-148609000D01*
X-460102Y-148569226D01*
X-271744Y-148491205D01*
X-267039Y-148488061D01*
X997000Y-148488061D01*
X997000Y-148691939D01*
X1036774Y-148891898D01*
X1114795Y-149080256D01*
X1228063Y-149249774D01*
X1372226Y-149393937D01*
X1541744Y-149507205D01*
X1730102Y-149585226D01*
X1930061Y-149625000D01*
X2133939Y-149625000D01*
X2333898Y-149585226D01*
X2522256Y-149507205D01*
X2691774Y-149393937D01*
X2835937Y-149249774D01*
X2949205Y-149080256D01*
X3027226Y-148891898D01*
X3067000Y-148691939D01*
X3067000Y-148488061D01*
X3027226Y-148288102D01*
X2949205Y-148099744D01*
X2835937Y-147930226D01*
X2691774Y-147786063D01*
X2522256Y-147672795D01*
X2333898Y-147594774D01*
X2133939Y-147555000D01*
X1930061Y-147555000D01*
X1730102Y-147594774D01*
X1541744Y-147672795D01*
X1372226Y-147786063D01*
X1228063Y-147930226D01*
X1114795Y-148099744D01*
X1036774Y-148288102D01*
X997000Y-148488061D01*
X-267039Y-148488061D01*
X-102226Y-148377937D01*
X41937Y-148233774D01*
X155205Y-148064256D01*
X233226Y-147875898D01*
X273000Y-147675939D01*
X273000Y-147472061D01*
X233226Y-147272102D01*
X155205Y-147083744D01*
X41937Y-146914226D01*
X25772Y-146898061D01*
X32051000Y-146898061D01*
X32051000Y-147101939D01*
X32090774Y-147301898D01*
X32168795Y-147490256D01*
X32282063Y-147659774D01*
X32426226Y-147803937D01*
X32595744Y-147917205D01*
X32784102Y-147995226D01*
X32984061Y-148035000D01*
X33187939Y-148035000D01*
X33387898Y-147995226D01*
X33576256Y-147917205D01*
X33745774Y-147803937D01*
X33889937Y-147659774D01*
X34003205Y-147490256D01*
X34081226Y-147301898D01*
X34121000Y-147101939D01*
X34121000Y-146964061D01*
X43923010Y-146964061D01*
X43923010Y-147167939D01*
X43962784Y-147367898D01*
X44040805Y-147556256D01*
X44154073Y-147725774D01*
X44298236Y-147869937D01*
X44467754Y-147983205D01*
X44656112Y-148061226D01*
X44856071Y-148101000D01*
X45059949Y-148101000D01*
X45259908Y-148061226D01*
X45448266Y-147983205D01*
X45617784Y-147869937D01*
X45761947Y-147725774D01*
X45875215Y-147556256D01*
X45953236Y-147367898D01*
X45993010Y-147167939D01*
X45993010Y-146964061D01*
X45953236Y-146764102D01*
X45875215Y-146575744D01*
X45761947Y-146406226D01*
X45617784Y-146262063D01*
X45448266Y-146148795D01*
X45259908Y-146070774D01*
X45059949Y-146031000D01*
X44856071Y-146031000D01*
X44656112Y-146070774D01*
X44467754Y-146148795D01*
X44298236Y-146262063D01*
X44154073Y-146406226D01*
X44040805Y-146575744D01*
X43962784Y-146764102D01*
X43923010Y-146964061D01*
X34121000Y-146964061D01*
X34121000Y-146898061D01*
X34081226Y-146698102D01*
X34003205Y-146509744D01*
X33889937Y-146340226D01*
X33745774Y-146196063D01*
X33576256Y-146082795D01*
X33387898Y-146004774D01*
X33187939Y-145965000D01*
X32984061Y-145965000D01*
X32784102Y-146004774D01*
X32595744Y-146082795D01*
X32426226Y-146196063D01*
X32282063Y-146340226D01*
X32168795Y-146509744D01*
X32090774Y-146698102D01*
X32051000Y-146898061D01*
X25772Y-146898061D01*
X-102226Y-146770063D01*
X-271744Y-146656795D01*
X-460102Y-146578774D01*
X-660061Y-146539000D01*
X-863939Y-146539000D01*
X-1063898Y-146578774D01*
X-1252256Y-146656795D01*
X-1421774Y-146770063D01*
X-1565937Y-146914226D01*
X-1679205Y-147083744D01*
X-1757226Y-147272102D01*
X-1797000Y-147472061D01*
X-3217310Y-147472061D01*
X-3240774Y-147354102D01*
X-3318795Y-147165744D01*
X-3432063Y-146996226D01*
X-3576226Y-146852063D01*
X-3745744Y-146738795D01*
X-3934102Y-146660774D01*
X-4134061Y-146621000D01*
X-4337939Y-146621000D01*
X-4537898Y-146660774D01*
X-4726256Y-146738795D01*
X-4895774Y-146852063D01*
X-5039937Y-146996226D01*
X-5153205Y-147165744D01*
X-5231226Y-147354102D01*
X-5271000Y-147554061D01*
X-6706000Y-147554061D01*
X-6706000Y-144536061D01*
X-2671000Y-144536061D01*
X-2671000Y-144739939D01*
X-2631226Y-144939898D01*
X-2553205Y-145128256D01*
X-2439937Y-145297774D01*
X-2295774Y-145441937D01*
X-2126256Y-145555205D01*
X-1937898Y-145633226D01*
X-1737939Y-145673000D01*
X-1534061Y-145673000D01*
X-1334102Y-145633226D01*
X-1145744Y-145555205D01*
X-976226Y-145441937D01*
X-832063Y-145297774D01*
X-718795Y-145128256D01*
X-640774Y-144939898D01*
X-601000Y-144739939D01*
X-601000Y-144536061D01*
X-640774Y-144336102D01*
X-718795Y-144147744D01*
X-832063Y-143978226D01*
X-894228Y-143916061D01*
X38843000Y-143916061D01*
X38843000Y-144119939D01*
X38882774Y-144319898D01*
X38960795Y-144508256D01*
X39074063Y-144677774D01*
X39218226Y-144821937D01*
X39387744Y-144935205D01*
X39576102Y-145013226D01*
X39776061Y-145053000D01*
X39979939Y-145053000D01*
X40179898Y-145013226D01*
X40368256Y-144935205D01*
X40537774Y-144821937D01*
X40621000Y-144738711D01*
X40621000Y-144881939D01*
X40660774Y-145081898D01*
X40738795Y-145270256D01*
X40852063Y-145439774D01*
X40996226Y-145583937D01*
X41165744Y-145697205D01*
X41354102Y-145775226D01*
X41554061Y-145815000D01*
X41757939Y-145815000D01*
X41957898Y-145775226D01*
X42146256Y-145697205D01*
X42315774Y-145583937D01*
X42459937Y-145439774D01*
X42573205Y-145270256D01*
X42608079Y-145186061D01*
X46463000Y-145186061D01*
X46463000Y-145389939D01*
X46502774Y-145589898D01*
X46580795Y-145778256D01*
X46694063Y-145947774D01*
X46838226Y-146091937D01*
X47007744Y-146205205D01*
X47196102Y-146283226D01*
X47396061Y-146323000D01*
X47599939Y-146323000D01*
X47760667Y-146291030D01*
X47772774Y-146351898D01*
X47850795Y-146540256D01*
X47964063Y-146709774D01*
X48108226Y-146853937D01*
X48277744Y-146967205D01*
X48466102Y-147045226D01*
X48666061Y-147085000D01*
X48869939Y-147085000D01*
X49069898Y-147045226D01*
X49258256Y-146967205D01*
X49427774Y-146853937D01*
X49571937Y-146709774D01*
X49685205Y-146540256D01*
X49763226Y-146351898D01*
X49803000Y-146151939D01*
X49803000Y-145948061D01*
X49763226Y-145748102D01*
X49685205Y-145559744D01*
X49571937Y-145390226D01*
X49427774Y-145246063D01*
X49258256Y-145132795D01*
X49069898Y-145054774D01*
X48869939Y-145015000D01*
X48666061Y-145015000D01*
X48505333Y-145046970D01*
X48493226Y-144986102D01*
X48415205Y-144797744D01*
X48301937Y-144628226D01*
X48157774Y-144484063D01*
X47988256Y-144370795D01*
X47799898Y-144292774D01*
X47599939Y-144253000D01*
X47396061Y-144253000D01*
X47196102Y-144292774D01*
X47007744Y-144370795D01*
X46838226Y-144484063D01*
X46694063Y-144628226D01*
X46580795Y-144797744D01*
X46502774Y-144986102D01*
X46463000Y-145186061D01*
X42608079Y-145186061D01*
X42651226Y-145081898D01*
X42691000Y-144881939D01*
X42691000Y-144678061D01*
X42651226Y-144478102D01*
X42573205Y-144289744D01*
X42459937Y-144120226D01*
X42315774Y-143976063D01*
X42146256Y-143862795D01*
X41957898Y-143784774D01*
X41757939Y-143745000D01*
X41554061Y-143745000D01*
X41354102Y-143784774D01*
X41165744Y-143862795D01*
X40996226Y-143976063D01*
X40913000Y-144059289D01*
X40913000Y-143916061D01*
X40881030Y-143755333D01*
X40941898Y-143743226D01*
X41130256Y-143665205D01*
X41299774Y-143551937D01*
X41443937Y-143407774D01*
X41514352Y-143302391D01*
X41610309Y-143446001D01*
X41754472Y-143590164D01*
X41923990Y-143703432D01*
X42112348Y-143781453D01*
X42312307Y-143821227D01*
X42516185Y-143821227D01*
X42716144Y-143781453D01*
X42904502Y-143703432D01*
X43074020Y-143590164D01*
X43218183Y-143446001D01*
X43331451Y-143276483D01*
X43409472Y-143088125D01*
X43449246Y-142888166D01*
X43449246Y-142684288D01*
X43409472Y-142484329D01*
X43331451Y-142295971D01*
X43218183Y-142126453D01*
X43074020Y-141982290D01*
X42904502Y-141869022D01*
X42716144Y-141791001D01*
X42516185Y-141751227D01*
X42312307Y-141751227D01*
X42112348Y-141791001D01*
X41923990Y-141869022D01*
X41754472Y-141982290D01*
X41610309Y-142126453D01*
X41539894Y-142231836D01*
X41443937Y-142088226D01*
X41299774Y-141944063D01*
X41130256Y-141830795D01*
X40941898Y-141752774D01*
X40741939Y-141713000D01*
X40538061Y-141713000D01*
X40338102Y-141752774D01*
X40149744Y-141830795D01*
X39980226Y-141944063D01*
X39836063Y-142088226D01*
X39722795Y-142257744D01*
X39644774Y-142446102D01*
X39605000Y-142646061D01*
X39605000Y-142849939D01*
X39636970Y-143010667D01*
X39576102Y-143022774D01*
X39387744Y-143100795D01*
X39218226Y-143214063D01*
X39074063Y-143358226D01*
X38960795Y-143527744D01*
X38882774Y-143716102D01*
X38843000Y-143916061D01*
X-894228Y-143916061D01*
X-976226Y-143834063D01*
X-1145744Y-143720795D01*
X-1334102Y-143642774D01*
X-1534061Y-143603000D01*
X-1737939Y-143603000D01*
X-1937898Y-143642774D01*
X-2126256Y-143720795D01*
X-2295774Y-143834063D01*
X-2439937Y-143978226D01*
X-2553205Y-144147744D01*
X-2631226Y-144336102D01*
X-2671000Y-144536061D01*
X-6706000Y-144536061D01*
X-6706000Y-143154061D01*
X-5607000Y-143154061D01*
X-5607000Y-143357939D01*
X-5567226Y-143557898D01*
X-5489205Y-143746256D01*
X-5375937Y-143915774D01*
X-5231774Y-144059937D01*
X-5062256Y-144173205D01*
X-4873898Y-144251226D01*
X-4673939Y-144291000D01*
X-4470061Y-144291000D01*
X-4270102Y-144251226D01*
X-4081744Y-144173205D01*
X-3912226Y-144059937D01*
X-3768063Y-143915774D01*
X-3654795Y-143746256D01*
X-3576774Y-143557898D01*
X-3537000Y-143357939D01*
X-3537000Y-143154061D01*
X-3576774Y-142954102D01*
X-3654795Y-142765744D01*
X-3768063Y-142596226D01*
X-3912226Y-142452063D01*
X-4081744Y-142338795D01*
X-4270102Y-142260774D01*
X-4470061Y-142221000D01*
X-4673939Y-142221000D01*
X-4873898Y-142260774D01*
X-5062256Y-142338795D01*
X-5231774Y-142452063D01*
X-5375937Y-142596226D01*
X-5489205Y-142765744D01*
X-5567226Y-142954102D01*
X-5607000Y-143154061D01*
X-6706000Y-143154061D01*
X-6706000Y-140106061D01*
X9887000Y-140106061D01*
X9887000Y-140309939D01*
X9926774Y-140509898D01*
X10004795Y-140698256D01*
X10118063Y-140867774D01*
X10262226Y-141011937D01*
X10431744Y-141125205D01*
X10620102Y-141203226D01*
X10820061Y-141243000D01*
X11023939Y-141243000D01*
X11223898Y-141203226D01*
X11412256Y-141125205D01*
X11581774Y-141011937D01*
X11725937Y-140867774D01*
X11839205Y-140698256D01*
X11917226Y-140509898D01*
X11929333Y-140449030D01*
X12090061Y-140481000D01*
X12293939Y-140481000D01*
X12493898Y-140441226D01*
X12682256Y-140363205D01*
X12747237Y-140319786D01*
X12798795Y-140444256D01*
X12912063Y-140613774D01*
X13056226Y-140757937D01*
X13225744Y-140871205D01*
X13414102Y-140949226D01*
X13614061Y-140989000D01*
X13817939Y-140989000D01*
X14017898Y-140949226D01*
X14206256Y-140871205D01*
X14375774Y-140757937D01*
X14519937Y-140613774D01*
X14633205Y-140444256D01*
X14711226Y-140255898D01*
X14751000Y-140055939D01*
X14751000Y-139852061D01*
X14711226Y-139652102D01*
X14633205Y-139463744D01*
X14519937Y-139294226D01*
X14375774Y-139150063D01*
X14206256Y-139036795D01*
X14017898Y-138958774D01*
X13817939Y-138919000D01*
X13614061Y-138919000D01*
X13414102Y-138958774D01*
X13225744Y-139036795D01*
X13160763Y-139080214D01*
X13109205Y-138955744D01*
X12995937Y-138786226D01*
X12851774Y-138642063D01*
X12682256Y-138528795D01*
X12493898Y-138450774D01*
X12293939Y-138411000D01*
X12090061Y-138411000D01*
X11890102Y-138450774D01*
X11701744Y-138528795D01*
X11532226Y-138642063D01*
X11388063Y-138786226D01*
X11274795Y-138955744D01*
X11196774Y-139144102D01*
X11184667Y-139204970D01*
X11023939Y-139173000D01*
X10820061Y-139173000D01*
X10620102Y-139212774D01*
X10431744Y-139290795D01*
X10262226Y-139404063D01*
X10118063Y-139548226D01*
X10004795Y-139717744D01*
X9926774Y-139906102D01*
X9887000Y-140106061D01*
X-6706000Y-140106061D01*
X-6706000Y-135788061D01*
X-5353000Y-135788061D01*
X-5353000Y-135991939D01*
X-5313226Y-136191898D01*
X-5235205Y-136380256D01*
X-5121937Y-136549774D01*
X-4977774Y-136693937D01*
X-4808256Y-136807205D01*
X-4619898Y-136885226D01*
X-4419939Y-136925000D01*
X-4216061Y-136925000D01*
X-4016102Y-136885226D01*
X-3827744Y-136807205D01*
X-3658226Y-136693937D01*
X-3514350Y-136550061D01*
X997000Y-136550061D01*
X997000Y-136753939D01*
X1036774Y-136953898D01*
X1114795Y-137142256D01*
X1228063Y-137311774D01*
X1372226Y-137455937D01*
X1541744Y-137569205D01*
X1730102Y-137647226D01*
X1930061Y-137687000D01*
X2133939Y-137687000D01*
X2333898Y-137647226D01*
X2522256Y-137569205D01*
X2691774Y-137455937D01*
X2835937Y-137311774D01*
X2949205Y-137142256D01*
X3027226Y-136953898D01*
X3067000Y-136753939D01*
X3067000Y-136550061D01*
X3027226Y-136350102D01*
X2949205Y-136161744D01*
X2835937Y-135992226D01*
X2691774Y-135848063D01*
X2522256Y-135734795D01*
X2333898Y-135656774D01*
X2133939Y-135617000D01*
X1930061Y-135617000D01*
X1730102Y-135656774D01*
X1541744Y-135734795D01*
X1372226Y-135848063D01*
X1228063Y-135992226D01*
X1114795Y-136161744D01*
X1036774Y-136350102D01*
X997000Y-136550061D01*
X-3514350Y-136550061D01*
X-3514063Y-136549774D01*
X-3400795Y-136380256D01*
X-3322774Y-136191898D01*
X-3283000Y-135991939D01*
X-3283000Y-135788061D01*
X-3322774Y-135588102D01*
X-3400795Y-135399744D01*
X-3514063Y-135230226D01*
X-3658226Y-135086063D01*
X-3827744Y-134972795D01*
X-4016102Y-134894774D01*
X-4216061Y-134855000D01*
X-4419939Y-134855000D01*
X-4619898Y-134894774D01*
X-4808256Y-134972795D01*
X-4977774Y-135086063D01*
X-5121937Y-135230226D01*
X-5235205Y-135399744D01*
X-5313226Y-135588102D01*
X-5353000Y-135788061D01*
X-6706000Y-135788061D01*
X-6706000Y-132232061D01*
X-2305000Y-132232061D01*
X-2305000Y-132435939D01*
X-2265226Y-132635898D01*
X-2187205Y-132824256D01*
X-2073937Y-132993774D01*
X-1929774Y-133137937D01*
X-1760256Y-133251205D01*
X-1571898Y-133329226D01*
X-1371939Y-133369000D01*
X-1168061Y-133369000D01*
X-968102Y-133329226D01*
X-779744Y-133251205D01*
X-610226Y-133137937D01*
X-466063Y-132993774D01*
X-352795Y-132824256D01*
X-274774Y-132635898D01*
X-235000Y-132435939D01*
X-235000Y-132232061D01*
X-274774Y-132032102D01*
X-352795Y-131843744D01*
X-466063Y-131674226D01*
X-610226Y-131530063D01*
X-779744Y-131416795D01*
X-968102Y-131338774D01*
X-1168061Y-131299000D01*
X-1371939Y-131299000D01*
X-1571898Y-131338774D01*
X-1760256Y-131416795D01*
X-1929774Y-131530063D01*
X-2073937Y-131674226D01*
X-2187205Y-131843744D01*
X-2265226Y-132032102D01*
X-2305000Y-132232061D01*
X-6706000Y-132232061D01*
X-6706000Y-130454061D01*
X9887000Y-130454061D01*
X9887000Y-130657939D01*
X9926774Y-130857898D01*
X10004795Y-131046256D01*
X10118063Y-131215774D01*
X10262226Y-131359937D01*
X10431744Y-131473205D01*
X10620102Y-131551226D01*
X10820061Y-131591000D01*
X11023939Y-131591000D01*
X11223898Y-131551226D01*
X11412256Y-131473205D01*
X11581774Y-131359937D01*
X11725937Y-131215774D01*
X11839205Y-131046256D01*
X11917226Y-130857898D01*
X11957000Y-130657939D01*
X11957000Y-130454061D01*
X11917226Y-130254102D01*
X11839205Y-130065744D01*
X11725937Y-129896226D01*
X11581774Y-129752063D01*
X11412256Y-129638795D01*
X11223898Y-129560774D01*
X11023939Y-129521000D01*
X10820061Y-129521000D01*
X10620102Y-129560774D01*
X10431744Y-129638795D01*
X10262226Y-129752063D01*
X10118063Y-129896226D01*
X10004795Y-130065744D01*
X9926774Y-130254102D01*
X9887000Y-130454061D01*
X-6706000Y-130454061D01*
X-6706000Y-121493198D01*
X-62358Y-121493198D01*
X-62358Y-121697076D01*
X-22584Y-121897035D01*
X55437Y-122085393D01*
X168705Y-122254911D01*
X312868Y-122399074D01*
X482386Y-122512342D01*
X670744Y-122590363D01*
X870703Y-122630137D01*
X973283Y-122630137D01*
X1044771Y-122737127D01*
X1188934Y-122881290D01*
X1358452Y-122994558D01*
X1546810Y-123072579D01*
X1658989Y-123094893D01*
X1658990Y-123519907D01*
X1603734Y-123542795D01*
X1434216Y-123656063D01*
X1290053Y-123800226D01*
X1176785Y-123969744D01*
X1098764Y-124158102D01*
X1058990Y-124358061D01*
X1058990Y-124561939D01*
X1098764Y-124761898D01*
X1176785Y-124950256D01*
X1290053Y-125119774D01*
X1434216Y-125263937D01*
X1603734Y-125377205D01*
X1792092Y-125455226D01*
X1992051Y-125495000D01*
X2059001Y-125495000D01*
X2059001Y-125763288D01*
X1990063Y-125832226D01*
X1876795Y-126001744D01*
X1798774Y-126190102D01*
X1759000Y-126390061D01*
X1759000Y-126593939D01*
X1798774Y-126793898D01*
X1876795Y-126982256D01*
X1990063Y-127151774D01*
X2134226Y-127295937D01*
X2303744Y-127409205D01*
X2492102Y-127487226D01*
X2692061Y-127527000D01*
X2895939Y-127527000D01*
X3095898Y-127487226D01*
X3284256Y-127409205D01*
X3453774Y-127295937D01*
X3597937Y-127151774D01*
X3632540Y-127099987D01*
X4026746Y-127494193D01*
X4049762Y-127522238D01*
X4161680Y-127614087D01*
X4289367Y-127682337D01*
X4302658Y-127686369D01*
X4420226Y-127803937D01*
X4589744Y-127917205D01*
X4778102Y-127995226D01*
X4978061Y-128035000D01*
X5181939Y-128035000D01*
X5381898Y-127995226D01*
X5570256Y-127917205D01*
X5739774Y-127803937D01*
X5883937Y-127659774D01*
X5997205Y-127490256D01*
X6075226Y-127301898D01*
X6115000Y-127101939D01*
X6115000Y-126898061D01*
X6075226Y-126698102D01*
X5997205Y-126509744D01*
X5883937Y-126340226D01*
X5739774Y-126196063D01*
X5667779Y-126147957D01*
X5750482Y-126139812D01*
X5870180Y-126103502D01*
X5980494Y-126044537D01*
X6077185Y-125965185D01*
X6156537Y-125868494D01*
X6215502Y-125758180D01*
X6251812Y-125638482D01*
X6252643Y-125630039D01*
X6451241Y-125828637D01*
X6686273Y-125985680D01*
X6947426Y-126093853D01*
X7224665Y-126149000D01*
X7507335Y-126149000D01*
X7784574Y-126093853D01*
X8045727Y-125985680D01*
X8280759Y-125828637D01*
X8480637Y-125628759D01*
X8636000Y-125396241D01*
X8791363Y-125628759D01*
X8991241Y-125828637D01*
X9226273Y-125985680D01*
X9487426Y-126093853D01*
X9764665Y-126149000D01*
X10047335Y-126149000D01*
X10324574Y-126093853D01*
X10585727Y-125985680D01*
X10820759Y-125828637D01*
X11020637Y-125628759D01*
X11176000Y-125396241D01*
X11331363Y-125628759D01*
X11531241Y-125828637D01*
X11766273Y-125985680D01*
X12027426Y-126093853D01*
X12304665Y-126149000D01*
X12587335Y-126149000D01*
X12864574Y-126093853D01*
X13125727Y-125985680D01*
X13360759Y-125828637D01*
X13560637Y-125628759D01*
X13716000Y-125396241D01*
X13871363Y-125628759D01*
X14071241Y-125828637D01*
X14251000Y-125948748D01*
X14251001Y-134081908D01*
X14247444Y-134118023D01*
X14261635Y-134262108D01*
X14300753Y-134391061D01*
X14303664Y-134400656D01*
X14371914Y-134528343D01*
X14463763Y-134640261D01*
X14491808Y-134663277D01*
X18743986Y-138915456D01*
X18624113Y-138939300D01*
X18435755Y-139017321D01*
X18266237Y-139130589D01*
X18216269Y-139180558D01*
X18185774Y-139150063D01*
X18016256Y-139036795D01*
X17827898Y-138958774D01*
X17627939Y-138919000D01*
X17424061Y-138919000D01*
X17224102Y-138958774D01*
X17035744Y-139036795D01*
X16866226Y-139150063D01*
X16722063Y-139294226D01*
X16608795Y-139463744D01*
X16530774Y-139652102D01*
X16491000Y-139852061D01*
X16491000Y-140055939D01*
X16530774Y-140255898D01*
X16608795Y-140444256D01*
X16722063Y-140613774D01*
X16866226Y-140757937D01*
X17035744Y-140871205D01*
X17224102Y-140949226D01*
X17424061Y-140989000D01*
X17627939Y-140989000D01*
X17827898Y-140949226D01*
X18016256Y-140871205D01*
X18185774Y-140757937D01*
X18235743Y-140707969D01*
X18266237Y-140738463D01*
X18435755Y-140851731D01*
X18624113Y-140929752D01*
X18824072Y-140969526D01*
X19027950Y-140969526D01*
X19227909Y-140929752D01*
X19416267Y-140851731D01*
X19585785Y-140738463D01*
X19729948Y-140594300D01*
X19843216Y-140424782D01*
X19921237Y-140236424D01*
X19945081Y-140116551D01*
X20040977Y-140212447D01*
X20040977Y-140309939D01*
X20080751Y-140509898D01*
X20158772Y-140698256D01*
X20272040Y-140867774D01*
X20416203Y-141011937D01*
X20585721Y-141125205D01*
X20774079Y-141203226D01*
X20974038Y-141243000D01*
X21177916Y-141243000D01*
X21377875Y-141203226D01*
X21566233Y-141125205D01*
X21649141Y-141069808D01*
X21672052Y-141104097D01*
X21816215Y-141248260D01*
X21985733Y-141361528D01*
X22174091Y-141439549D01*
X22374050Y-141479323D01*
X22577928Y-141479323D01*
X22777887Y-141439549D01*
X22966245Y-141361528D01*
X23135763Y-141248260D01*
X23279926Y-141104097D01*
X23302837Y-141069808D01*
X23385744Y-141125205D01*
X23574102Y-141203226D01*
X23774061Y-141243000D01*
X23977939Y-141243000D01*
X24177898Y-141203226D01*
X24366256Y-141125205D01*
X24535774Y-141011937D01*
X24679937Y-140867774D01*
X24793205Y-140698256D01*
X24871226Y-140509898D01*
X24883333Y-140449030D01*
X25044061Y-140481000D01*
X25247939Y-140481000D01*
X25447898Y-140441226D01*
X25636256Y-140363205D01*
X25805774Y-140249937D01*
X25874711Y-140181000D01*
X26125895Y-140181000D01*
X26162000Y-140184556D01*
X26198105Y-140181000D01*
X26306085Y-140170365D01*
X26444633Y-140128337D01*
X26572320Y-140060087D01*
X26684238Y-139968238D01*
X26707259Y-139940187D01*
X27303385Y-139344061D01*
X37319000Y-139344061D01*
X37319000Y-139547939D01*
X37358774Y-139747898D01*
X37436795Y-139936256D01*
X37550063Y-140105774D01*
X37694226Y-140249937D01*
X37863744Y-140363205D01*
X38052102Y-140441226D01*
X38252061Y-140481000D01*
X38455939Y-140481000D01*
X38655898Y-140441226D01*
X38844256Y-140363205D01*
X39013774Y-140249937D01*
X39157937Y-140105774D01*
X39271205Y-139936256D01*
X39349226Y-139747898D01*
X39389000Y-139547939D01*
X39389000Y-139344061D01*
X39349226Y-139144102D01*
X39271205Y-138955744D01*
X39191236Y-138836061D01*
X40113000Y-138836061D01*
X40113000Y-139039939D01*
X40152774Y-139239898D01*
X40230795Y-139428256D01*
X40344063Y-139597774D01*
X40488226Y-139741937D01*
X40657744Y-139855205D01*
X40846102Y-139933226D01*
X41046061Y-139973000D01*
X41249939Y-139973000D01*
X41449898Y-139933226D01*
X41638256Y-139855205D01*
X41807774Y-139741937D01*
X41951937Y-139597774D01*
X42065205Y-139428256D01*
X42067995Y-139421520D01*
X42070785Y-139428256D01*
X42184053Y-139597774D01*
X42328216Y-139741937D01*
X42497734Y-139855205D01*
X42686092Y-139933226D01*
X42886051Y-139973000D01*
X43089929Y-139973000D01*
X43289888Y-139933226D01*
X43478246Y-139855205D01*
X43647764Y-139741937D01*
X43791927Y-139597774D01*
X43905195Y-139428256D01*
X43983216Y-139239898D01*
X44022990Y-139039939D01*
X44022990Y-138836061D01*
X43983216Y-138636102D01*
X43905195Y-138447744D01*
X43791927Y-138278226D01*
X43647764Y-138134063D01*
X43478246Y-138020795D01*
X43289888Y-137942774D01*
X43089929Y-137903000D01*
X42886051Y-137903000D01*
X42686092Y-137942774D01*
X42497734Y-138020795D01*
X42328216Y-138134063D01*
X42184053Y-138278226D01*
X42070785Y-138447744D01*
X42067995Y-138454480D01*
X42065205Y-138447744D01*
X41951937Y-138278226D01*
X41807774Y-138134063D01*
X41638256Y-138020795D01*
X41449898Y-137942774D01*
X41249939Y-137903000D01*
X41046061Y-137903000D01*
X40846102Y-137942774D01*
X40657744Y-138020795D01*
X40488226Y-138134063D01*
X40344063Y-138278226D01*
X40230795Y-138447744D01*
X40152774Y-138636102D01*
X40113000Y-138836061D01*
X39191236Y-138836061D01*
X39157937Y-138786226D01*
X39013774Y-138642063D01*
X38844256Y-138528795D01*
X38655898Y-138450774D01*
X38455939Y-138411000D01*
X38252061Y-138411000D01*
X38052102Y-138450774D01*
X37863744Y-138528795D01*
X37694226Y-138642063D01*
X37550063Y-138786226D01*
X37436795Y-138955744D01*
X37358774Y-139144102D01*
X37319000Y-139344061D01*
X27303385Y-139344061D01*
X37070193Y-129577254D01*
X37098238Y-129554238D01*
X37190087Y-129442320D01*
X37258337Y-129314633D01*
X37300365Y-129176085D01*
X37301968Y-129159806D01*
X37314556Y-129032001D01*
X37311000Y-128995896D01*
X37311000Y-126040710D01*
X37362913Y-126065246D01*
X37496961Y-126105904D01*
X37719000Y-125983915D01*
X37719000Y-124841000D01*
X37973000Y-124841000D01*
X37973000Y-125983915D01*
X38195039Y-126105904D01*
X38329087Y-126065246D01*
X38583420Y-125945037D01*
X38809414Y-125777519D01*
X38998385Y-125569131D01*
X39143070Y-125327881D01*
X39217489Y-125120061D01*
X44685000Y-125120061D01*
X44685000Y-125323939D01*
X44724774Y-125523898D01*
X44802795Y-125712256D01*
X44916063Y-125881774D01*
X45060226Y-126025937D01*
X45229744Y-126139205D01*
X45418102Y-126217226D01*
X45618061Y-126257000D01*
X45821939Y-126257000D01*
X46021898Y-126217226D01*
X46210256Y-126139205D01*
X46379774Y-126025937D01*
X46523937Y-125881774D01*
X46637205Y-125712256D01*
X46715226Y-125523898D01*
X46755000Y-125323939D01*
X46755000Y-125120061D01*
X47225000Y-125120061D01*
X47225000Y-125323939D01*
X47264774Y-125523898D01*
X47342795Y-125712256D01*
X47456063Y-125881774D01*
X47600226Y-126025937D01*
X47769744Y-126139205D01*
X47958102Y-126217226D01*
X48158061Y-126257000D01*
X48361939Y-126257000D01*
X48561898Y-126217226D01*
X48750256Y-126139205D01*
X48919774Y-126025937D01*
X49063937Y-125881774D01*
X49177205Y-125712256D01*
X49255226Y-125523898D01*
X49295000Y-125323939D01*
X49295000Y-125120061D01*
X49765000Y-125120061D01*
X49765000Y-125323939D01*
X49804774Y-125523898D01*
X49882795Y-125712256D01*
X49996063Y-125881774D01*
X50140226Y-126025937D01*
X50309744Y-126139205D01*
X50498102Y-126217226D01*
X50698061Y-126257000D01*
X50901939Y-126257000D01*
X51101898Y-126217226D01*
X51290256Y-126139205D01*
X51459774Y-126025937D01*
X51603937Y-125881774D01*
X51717205Y-125712256D01*
X51795226Y-125523898D01*
X51835000Y-125323939D01*
X51835000Y-125120061D01*
X52305000Y-125120061D01*
X52305000Y-125323939D01*
X52344774Y-125523898D01*
X52422795Y-125712256D01*
X52536063Y-125881774D01*
X52680226Y-126025937D01*
X52849744Y-126139205D01*
X53038102Y-126217226D01*
X53238061Y-126257000D01*
X53441939Y-126257000D01*
X53641898Y-126217226D01*
X53830256Y-126139205D01*
X53999774Y-126025937D01*
X54143937Y-125881774D01*
X54257205Y-125712256D01*
X54335226Y-125523898D01*
X54375000Y-125323939D01*
X54375000Y-125120061D01*
X54845000Y-125120061D01*
X54845000Y-125323939D01*
X54884774Y-125523898D01*
X54962795Y-125712256D01*
X55076063Y-125881774D01*
X55220226Y-126025937D01*
X55389744Y-126139205D01*
X55578102Y-126217226D01*
X55778061Y-126257000D01*
X55981939Y-126257000D01*
X56181898Y-126217226D01*
X56370256Y-126139205D01*
X56539774Y-126025937D01*
X56683937Y-125881774D01*
X56797205Y-125712256D01*
X56875226Y-125523898D01*
X56915000Y-125323939D01*
X56915000Y-125120061D01*
X57385000Y-125120061D01*
X57385000Y-125323939D01*
X57424774Y-125523898D01*
X57502795Y-125712256D01*
X57616063Y-125881774D01*
X57760226Y-126025937D01*
X57929744Y-126139205D01*
X58118102Y-126217226D01*
X58318061Y-126257000D01*
X58521939Y-126257000D01*
X58721898Y-126217226D01*
X58910256Y-126139205D01*
X59079774Y-126025937D01*
X59223937Y-125881774D01*
X59337205Y-125712256D01*
X59415226Y-125523898D01*
X59455000Y-125323939D01*
X59455000Y-125120061D01*
X59925000Y-125120061D01*
X59925000Y-125323939D01*
X59964774Y-125523898D01*
X60042795Y-125712256D01*
X60156063Y-125881774D01*
X60300226Y-126025937D01*
X60469744Y-126139205D01*
X60658102Y-126217226D01*
X60858061Y-126257000D01*
X61061939Y-126257000D01*
X61261898Y-126217226D01*
X61450256Y-126139205D01*
X61619774Y-126025937D01*
X61763937Y-125881774D01*
X61877205Y-125712256D01*
X61955226Y-125523898D01*
X61995000Y-125323939D01*
X61995000Y-125120061D01*
X62465000Y-125120061D01*
X62465000Y-125323939D01*
X62504774Y-125523898D01*
X62582795Y-125712256D01*
X62696063Y-125881774D01*
X62840226Y-126025937D01*
X63009744Y-126139205D01*
X63198102Y-126217226D01*
X63398061Y-126257000D01*
X63601939Y-126257000D01*
X63801898Y-126217226D01*
X63990256Y-126139205D01*
X64159774Y-126025937D01*
X64303937Y-125881774D01*
X64417205Y-125712256D01*
X64495226Y-125523898D01*
X64535000Y-125323939D01*
X64535000Y-125120061D01*
X64495226Y-124920102D01*
X64417205Y-124731744D01*
X64303937Y-124562226D01*
X64159774Y-124418063D01*
X63990256Y-124304795D01*
X63801898Y-124226774D01*
X63601939Y-124187000D01*
X63398061Y-124187000D01*
X63198102Y-124226774D01*
X63009744Y-124304795D01*
X62840226Y-124418063D01*
X62696063Y-124562226D01*
X62582795Y-124731744D01*
X62504774Y-124920102D01*
X62465000Y-125120061D01*
X61995000Y-125120061D01*
X61955226Y-124920102D01*
X61877205Y-124731744D01*
X61763937Y-124562226D01*
X61619774Y-124418063D01*
X61450256Y-124304795D01*
X61261898Y-124226774D01*
X61061939Y-124187000D01*
X60858061Y-124187000D01*
X60658102Y-124226774D01*
X60469744Y-124304795D01*
X60300226Y-124418063D01*
X60156063Y-124562226D01*
X60042795Y-124731744D01*
X59964774Y-124920102D01*
X59925000Y-125120061D01*
X59455000Y-125120061D01*
X59415226Y-124920102D01*
X59337205Y-124731744D01*
X59223937Y-124562226D01*
X59079774Y-124418063D01*
X58910256Y-124304795D01*
X58721898Y-124226774D01*
X58521939Y-124187000D01*
X58318061Y-124187000D01*
X58118102Y-124226774D01*
X57929744Y-124304795D01*
X57760226Y-124418063D01*
X57616063Y-124562226D01*
X57502795Y-124731744D01*
X57424774Y-124920102D01*
X57385000Y-125120061D01*
X56915000Y-125120061D01*
X56875226Y-124920102D01*
X56797205Y-124731744D01*
X56683937Y-124562226D01*
X56539774Y-124418063D01*
X56370256Y-124304795D01*
X56181898Y-124226774D01*
X55981939Y-124187000D01*
X55778061Y-124187000D01*
X55578102Y-124226774D01*
X55389744Y-124304795D01*
X55220226Y-124418063D01*
X55076063Y-124562226D01*
X54962795Y-124731744D01*
X54884774Y-124920102D01*
X54845000Y-125120061D01*
X54375000Y-125120061D01*
X54335226Y-124920102D01*
X54257205Y-124731744D01*
X54143937Y-124562226D01*
X53999774Y-124418063D01*
X53830256Y-124304795D01*
X53641898Y-124226774D01*
X53441939Y-124187000D01*
X53238061Y-124187000D01*
X53038102Y-124226774D01*
X52849744Y-124304795D01*
X52680226Y-124418063D01*
X52536063Y-124562226D01*
X52422795Y-124731744D01*
X52344774Y-124920102D01*
X52305000Y-125120061D01*
X51835000Y-125120061D01*
X51795226Y-124920102D01*
X51717205Y-124731744D01*
X51603937Y-124562226D01*
X51459774Y-124418063D01*
X51290256Y-124304795D01*
X51101898Y-124226774D01*
X50901939Y-124187000D01*
X50698061Y-124187000D01*
X50498102Y-124226774D01*
X50309744Y-124304795D01*
X50140226Y-124418063D01*
X49996063Y-124562226D01*
X49882795Y-124731744D01*
X49804774Y-124920102D01*
X49765000Y-125120061D01*
X49295000Y-125120061D01*
X49255226Y-124920102D01*
X49177205Y-124731744D01*
X49063937Y-124562226D01*
X48919774Y-124418063D01*
X48750256Y-124304795D01*
X48561898Y-124226774D01*
X48361939Y-124187000D01*
X48158061Y-124187000D01*
X47958102Y-124226774D01*
X47769744Y-124304795D01*
X47600226Y-124418063D01*
X47456063Y-124562226D01*
X47342795Y-124731744D01*
X47264774Y-124920102D01*
X47225000Y-125120061D01*
X46755000Y-125120061D01*
X46715226Y-124920102D01*
X46637205Y-124731744D01*
X46523937Y-124562226D01*
X46379774Y-124418063D01*
X46210256Y-124304795D01*
X46021898Y-124226774D01*
X45821939Y-124187000D01*
X45618061Y-124187000D01*
X45418102Y-124226774D01*
X45229744Y-124304795D01*
X45060226Y-124418063D01*
X44916063Y-124562226D01*
X44802795Y-124731744D01*
X44724774Y-124920102D01*
X44685000Y-125120061D01*
X39217489Y-125120061D01*
X39237909Y-125063040D01*
X39116624Y-124841000D01*
X37973000Y-124841000D01*
X37719000Y-124841000D01*
X37699000Y-124841000D01*
X37699000Y-124587000D01*
X37719000Y-124587000D01*
X37719000Y-123444085D01*
X37973000Y-123444085D01*
X37973000Y-124587000D01*
X39116624Y-124587000D01*
X39237909Y-124364960D01*
X39143070Y-124100119D01*
X38998385Y-123858869D01*
X38809414Y-123650481D01*
X38583420Y-123482963D01*
X38329087Y-123362754D01*
X38195039Y-123322096D01*
X37973000Y-123444085D01*
X37719000Y-123444085D01*
X37496961Y-123322096D01*
X37362913Y-123362754D01*
X37108580Y-123482963D01*
X36898290Y-123638841D01*
X31764261Y-118504813D01*
X31741240Y-118476762D01*
X31629322Y-118384913D01*
X31501635Y-118316663D01*
X31363087Y-118274635D01*
X31255107Y-118264000D01*
X31219002Y-118260444D01*
X31182897Y-118264000D01*
X16603711Y-118264000D01*
X16534774Y-118195063D01*
X16365256Y-118081795D01*
X16176898Y-118003774D01*
X15976939Y-117964000D01*
X15773061Y-117964000D01*
X15573102Y-118003774D01*
X15384744Y-118081795D01*
X15215226Y-118195063D01*
X15071063Y-118339226D01*
X14957795Y-118508744D01*
X14879774Y-118697102D01*
X14840000Y-118897061D01*
X14840000Y-119100939D01*
X14879774Y-119300898D01*
X14957795Y-119489256D01*
X15071063Y-119658774D01*
X15215226Y-119802937D01*
X15382941Y-119915000D01*
X4296394Y-119915000D01*
X4260299Y-119911445D01*
X4224204Y-119915000D01*
X4224195Y-119915000D01*
X4116215Y-119925635D01*
X3977667Y-119967663D01*
X3849980Y-120035913D01*
X3738062Y-120127762D01*
X3715046Y-120155807D01*
X2552960Y-121317894D01*
X2508482Y-121273416D01*
X2338964Y-121160148D01*
X2150606Y-121082127D01*
X1950647Y-121042353D01*
X1848067Y-121042353D01*
X1776579Y-120935363D01*
X1632416Y-120791200D01*
X1462898Y-120677932D01*
X1274540Y-120599911D01*
X1074581Y-120560137D01*
X870703Y-120560137D01*
X670744Y-120599911D01*
X482386Y-120677932D01*
X312868Y-120791200D01*
X168705Y-120935363D01*
X55437Y-121104881D01*
X-22584Y-121293239D01*
X-62358Y-121493198D01*
X-6706000Y-121493198D01*
X-6706000Y-117582061D01*
X-5271000Y-117582061D01*
X-5271000Y-117785939D01*
X-5231226Y-117985898D01*
X-5153205Y-118174256D01*
X-5039937Y-118343774D01*
X-4895774Y-118487937D01*
X-4726256Y-118601205D01*
X-4537898Y-118679226D01*
X-4337939Y-118719000D01*
X-4134061Y-118719000D01*
X-3934102Y-118679226D01*
X-3745744Y-118601205D01*
X-3576226Y-118487937D01*
X-3432063Y-118343774D01*
X-3318795Y-118174256D01*
X-3240774Y-117985898D01*
X-3201000Y-117785939D01*
X-3201000Y-117582061D01*
X-3240774Y-117382102D01*
X-3318795Y-117193744D01*
X-3432063Y-117024226D01*
X-3576226Y-116880063D01*
X-3745744Y-116766795D01*
X-3934102Y-116688774D01*
X-4134061Y-116649000D01*
X-4337939Y-116649000D01*
X-4537898Y-116688774D01*
X-4726256Y-116766795D01*
X-4895774Y-116880063D01*
X-5039937Y-117024226D01*
X-5153205Y-117193744D01*
X-5231226Y-117382102D01*
X-5271000Y-117582061D01*
X-6706000Y-117582061D01*
X-6706000Y-109332665D01*
X3391000Y-109332665D01*
X3391000Y-109615335D01*
X3446147Y-109892574D01*
X3554320Y-110153727D01*
X3711363Y-110388759D01*
X3911241Y-110588637D01*
X4146273Y-110745680D01*
X4407426Y-110853853D01*
X4684665Y-110909000D01*
X4967335Y-110909000D01*
X5244574Y-110853853D01*
X5505727Y-110745680D01*
X5740759Y-110588637D01*
X5940637Y-110388759D01*
X6096000Y-110156241D01*
X6251363Y-110388759D01*
X6451241Y-110588637D01*
X6686273Y-110745680D01*
X6947426Y-110853853D01*
X7224665Y-110909000D01*
X7507335Y-110909000D01*
X7784574Y-110853853D01*
X8045727Y-110745680D01*
X8280759Y-110588637D01*
X8480637Y-110388759D01*
X8636000Y-110156241D01*
X8791363Y-110388759D01*
X8991241Y-110588637D01*
X9226273Y-110745680D01*
X9487426Y-110853853D01*
X9764665Y-110909000D01*
X10047335Y-110909000D01*
X10324574Y-110853853D01*
X10585727Y-110745680D01*
X10820759Y-110588637D01*
X11020637Y-110388759D01*
X11176000Y-110156241D01*
X11331363Y-110388759D01*
X11531241Y-110588637D01*
X11766273Y-110745680D01*
X12027426Y-110853853D01*
X12304665Y-110909000D01*
X12587335Y-110909000D01*
X12864574Y-110853853D01*
X13125727Y-110745680D01*
X13360759Y-110588637D01*
X13560637Y-110388759D01*
X13716000Y-110156241D01*
X13871363Y-110388759D01*
X14071241Y-110588637D01*
X14306273Y-110745680D01*
X14567426Y-110853853D01*
X14844665Y-110909000D01*
X15127335Y-110909000D01*
X15404574Y-110853853D01*
X15665727Y-110745680D01*
X15900759Y-110588637D01*
X16100637Y-110388759D01*
X16256000Y-110156241D01*
X16411363Y-110388759D01*
X16611241Y-110588637D01*
X16846273Y-110745680D01*
X17107426Y-110853853D01*
X17384665Y-110909000D01*
X17667335Y-110909000D01*
X17944574Y-110853853D01*
X18205727Y-110745680D01*
X18440759Y-110588637D01*
X18640637Y-110388759D01*
X18796000Y-110156241D01*
X18951363Y-110388759D01*
X19151241Y-110588637D01*
X19386273Y-110745680D01*
X19647426Y-110853853D01*
X19924665Y-110909000D01*
X20207335Y-110909000D01*
X20484574Y-110853853D01*
X20745727Y-110745680D01*
X20980759Y-110588637D01*
X21180637Y-110388759D01*
X21336000Y-110156241D01*
X21491363Y-110388759D01*
X21691241Y-110588637D01*
X21926273Y-110745680D01*
X22187426Y-110853853D01*
X22464665Y-110909000D01*
X22747335Y-110909000D01*
X23024574Y-110853853D01*
X23285727Y-110745680D01*
X23520759Y-110588637D01*
X23720637Y-110388759D01*
X23876000Y-110156241D01*
X24031363Y-110388759D01*
X24231241Y-110588637D01*
X24466273Y-110745680D01*
X24727426Y-110853853D01*
X25004665Y-110909000D01*
X25287335Y-110909000D01*
X25564574Y-110853853D01*
X25825727Y-110745680D01*
X26060759Y-110588637D01*
X26260637Y-110388759D01*
X26416000Y-110156241D01*
X26571363Y-110388759D01*
X26771241Y-110588637D01*
X27006273Y-110745680D01*
X27267426Y-110853853D01*
X27544665Y-110909000D01*
X27827335Y-110909000D01*
X28104574Y-110853853D01*
X28365727Y-110745680D01*
X28600759Y-110588637D01*
X28800637Y-110388759D01*
X28956000Y-110156241D01*
X29111363Y-110388759D01*
X29311241Y-110588637D01*
X29546273Y-110745680D01*
X29807426Y-110853853D01*
X30084665Y-110909000D01*
X30367335Y-110909000D01*
X30644574Y-110853853D01*
X30905727Y-110745680D01*
X31140759Y-110588637D01*
X31340637Y-110388759D01*
X31496000Y-110156241D01*
X31651363Y-110388759D01*
X31851241Y-110588637D01*
X32086273Y-110745680D01*
X32347426Y-110853853D01*
X32624665Y-110909000D01*
X32907335Y-110909000D01*
X33184574Y-110853853D01*
X33445727Y-110745680D01*
X33680759Y-110588637D01*
X33880637Y-110388759D01*
X34036000Y-110156241D01*
X34191363Y-110388759D01*
X34391241Y-110588637D01*
X34626273Y-110745680D01*
X34887426Y-110853853D01*
X35164665Y-110909000D01*
X35447335Y-110909000D01*
X35724574Y-110853853D01*
X35985727Y-110745680D01*
X36220759Y-110588637D01*
X36420637Y-110388759D01*
X36576000Y-110156241D01*
X36731363Y-110388759D01*
X36931241Y-110588637D01*
X37166273Y-110745680D01*
X37427426Y-110853853D01*
X37704665Y-110909000D01*
X37987335Y-110909000D01*
X38264574Y-110853853D01*
X38525727Y-110745680D01*
X38760759Y-110588637D01*
X38960637Y-110388759D01*
X39117680Y-110153727D01*
X39225853Y-109892574D01*
X39281000Y-109615335D01*
X39281000Y-109332665D01*
X39225853Y-109055426D01*
X39117680Y-108794273D01*
X38960637Y-108559241D01*
X38760759Y-108359363D01*
X38525727Y-108202320D01*
X38264574Y-108094147D01*
X37987335Y-108039000D01*
X37704665Y-108039000D01*
X37427426Y-108094147D01*
X37166273Y-108202320D01*
X36931241Y-108359363D01*
X36731363Y-108559241D01*
X36576000Y-108791759D01*
X36420637Y-108559241D01*
X36220759Y-108359363D01*
X35985727Y-108202320D01*
X35724574Y-108094147D01*
X35447335Y-108039000D01*
X35164665Y-108039000D01*
X34887426Y-108094147D01*
X34626273Y-108202320D01*
X34391241Y-108359363D01*
X34191363Y-108559241D01*
X34036000Y-108791759D01*
X33880637Y-108559241D01*
X33680759Y-108359363D01*
X33445727Y-108202320D01*
X33184574Y-108094147D01*
X32907335Y-108039000D01*
X32624665Y-108039000D01*
X32347426Y-108094147D01*
X32086273Y-108202320D01*
X31851241Y-108359363D01*
X31651363Y-108559241D01*
X31496000Y-108791759D01*
X31340637Y-108559241D01*
X31140759Y-108359363D01*
X30905727Y-108202320D01*
X30644574Y-108094147D01*
X30367335Y-108039000D01*
X30084665Y-108039000D01*
X29807426Y-108094147D01*
X29546273Y-108202320D01*
X29311241Y-108359363D01*
X29111363Y-108559241D01*
X28956000Y-108791759D01*
X28800637Y-108559241D01*
X28600759Y-108359363D01*
X28365727Y-108202320D01*
X28104574Y-108094147D01*
X27827335Y-108039000D01*
X27544665Y-108039000D01*
X27267426Y-108094147D01*
X27006273Y-108202320D01*
X26771241Y-108359363D01*
X26571363Y-108559241D01*
X26416000Y-108791759D01*
X26260637Y-108559241D01*
X26060759Y-108359363D01*
X25825727Y-108202320D01*
X25564574Y-108094147D01*
X25287335Y-108039000D01*
X25004665Y-108039000D01*
X24727426Y-108094147D01*
X24466273Y-108202320D01*
X24231241Y-108359363D01*
X24031363Y-108559241D01*
X23876000Y-108791759D01*
X23720637Y-108559241D01*
X23520759Y-108359363D01*
X23285727Y-108202320D01*
X23024574Y-108094147D01*
X22747335Y-108039000D01*
X22464665Y-108039000D01*
X22187426Y-108094147D01*
X21926273Y-108202320D01*
X21691241Y-108359363D01*
X21491363Y-108559241D01*
X21336000Y-108791759D01*
X21180637Y-108559241D01*
X20980759Y-108359363D01*
X20745727Y-108202320D01*
X20484574Y-108094147D01*
X20207335Y-108039000D01*
X19924665Y-108039000D01*
X19647426Y-108094147D01*
X19386273Y-108202320D01*
X19151241Y-108359363D01*
X18951363Y-108559241D01*
X18796000Y-108791759D01*
X18640637Y-108559241D01*
X18440759Y-108359363D01*
X18205727Y-108202320D01*
X17944574Y-108094147D01*
X17667335Y-108039000D01*
X17384665Y-108039000D01*
X17107426Y-108094147D01*
X16846273Y-108202320D01*
X16611241Y-108359363D01*
X16411363Y-108559241D01*
X16256000Y-108791759D01*
X16100637Y-108559241D01*
X15900759Y-108359363D01*
X15665727Y-108202320D01*
X15404574Y-108094147D01*
X15127335Y-108039000D01*
X14844665Y-108039000D01*
X14567426Y-108094147D01*
X14306273Y-108202320D01*
X14071241Y-108359363D01*
X13871363Y-108559241D01*
X13716000Y-108791759D01*
X13560637Y-108559241D01*
X13360759Y-108359363D01*
X13125727Y-108202320D01*
X12864574Y-108094147D01*
X12587335Y-108039000D01*
X12304665Y-108039000D01*
X12027426Y-108094147D01*
X11766273Y-108202320D01*
X11531241Y-108359363D01*
X11331363Y-108559241D01*
X11176000Y-108791759D01*
X11020637Y-108559241D01*
X10820759Y-108359363D01*
X10585727Y-108202320D01*
X10324574Y-108094147D01*
X10047335Y-108039000D01*
X9764665Y-108039000D01*
X9487426Y-108094147D01*
X9226273Y-108202320D01*
X8991241Y-108359363D01*
X8791363Y-108559241D01*
X8636000Y-108791759D01*
X8480637Y-108559241D01*
X8280759Y-108359363D01*
X8045727Y-108202320D01*
X7784574Y-108094147D01*
X7507335Y-108039000D01*
X7224665Y-108039000D01*
X6947426Y-108094147D01*
X6686273Y-108202320D01*
X6451241Y-108359363D01*
X6251363Y-108559241D01*
X6096000Y-108791759D01*
X5940637Y-108559241D01*
X5740759Y-108359363D01*
X5505727Y-108202320D01*
X5244574Y-108094147D01*
X4967335Y-108039000D01*
X4684665Y-108039000D01*
X4407426Y-108094147D01*
X4146273Y-108202320D01*
X3911241Y-108359363D01*
X3711363Y-108559241D01*
X3554320Y-108794273D01*
X3446147Y-109055426D01*
X3391000Y-109332665D01*
X-6706000Y-109332665D01*
X-6706000Y-101707740D01*
X3595000Y-101707740D01*
X3595000Y-102000260D01*
X3652068Y-102287158D01*
X3764010Y-102557411D01*
X3926525Y-102800632D01*
X4133368Y-103007475D01*
X4376589Y-103169990D01*
X4646842Y-103281932D01*
X4933740Y-103339000D01*
X5226260Y-103339000D01*
X5513158Y-103281932D01*
X5783411Y-103169990D01*
X6026632Y-103007475D01*
X6233475Y-102800632D01*
X6350000Y-102626240D01*
X6466525Y-102800632D01*
X6673368Y-103007475D01*
X6916589Y-103169990D01*
X7186842Y-103281932D01*
X7473740Y-103339000D01*
X7766260Y-103339000D01*
X8053158Y-103281932D01*
X8323411Y-103169990D01*
X8566632Y-103007475D01*
X8773475Y-102800632D01*
X8890000Y-102626240D01*
X9006525Y-102800632D01*
X9213368Y-103007475D01*
X9456589Y-103169990D01*
X9726842Y-103281932D01*
X10013740Y-103339000D01*
X10306260Y-103339000D01*
X10593158Y-103281932D01*
X10863411Y-103169990D01*
X11106632Y-103007475D01*
X11313475Y-102800632D01*
X11430000Y-102626240D01*
X11546525Y-102800632D01*
X11753368Y-103007475D01*
X11996589Y-103169990D01*
X12266842Y-103281932D01*
X12553740Y-103339000D01*
X12846260Y-103339000D01*
X13133158Y-103281932D01*
X13403411Y-103169990D01*
X13646632Y-103007475D01*
X13853475Y-102800632D01*
X13970000Y-102626240D01*
X14086525Y-102800632D01*
X14293368Y-103007475D01*
X14536589Y-103169990D01*
X14806842Y-103281932D01*
X15093740Y-103339000D01*
X15386260Y-103339000D01*
X15673158Y-103281932D01*
X15943411Y-103169990D01*
X16186632Y-103007475D01*
X16393475Y-102800632D01*
X16510000Y-102626240D01*
X16626525Y-102800632D01*
X16833368Y-103007475D01*
X17076589Y-103169990D01*
X17346842Y-103281932D01*
X17633740Y-103339000D01*
X17926260Y-103339000D01*
X18213158Y-103281932D01*
X18483411Y-103169990D01*
X18726632Y-103007475D01*
X18933475Y-102800632D01*
X19050000Y-102626240D01*
X19166525Y-102800632D01*
X19373368Y-103007475D01*
X19616589Y-103169990D01*
X19886842Y-103281932D01*
X20173740Y-103339000D01*
X20466260Y-103339000D01*
X20753158Y-103281932D01*
X21023411Y-103169990D01*
X21266632Y-103007475D01*
X21473475Y-102800632D01*
X21590000Y-102626240D01*
X21706525Y-102800632D01*
X21913368Y-103007475D01*
X22156589Y-103169990D01*
X22426842Y-103281932D01*
X22713740Y-103339000D01*
X23006260Y-103339000D01*
X23293158Y-103281932D01*
X23563411Y-103169990D01*
X23806632Y-103007475D01*
X24013475Y-102800632D01*
X24130000Y-102626240D01*
X24246525Y-102800632D01*
X24453368Y-103007475D01*
X24696589Y-103169990D01*
X24966842Y-103281932D01*
X25253740Y-103339000D01*
X25546260Y-103339000D01*
X25833158Y-103281932D01*
X26103411Y-103169990D01*
X26346632Y-103007475D01*
X26553475Y-102800632D01*
X26670000Y-102626240D01*
X26786525Y-102800632D01*
X26993368Y-103007475D01*
X27236589Y-103169990D01*
X27506842Y-103281932D01*
X27793740Y-103339000D01*
X28086260Y-103339000D01*
X28373158Y-103281932D01*
X28643411Y-103169990D01*
X28886632Y-103007475D01*
X29093475Y-102800632D01*
X29210000Y-102626240D01*
X29326525Y-102800632D01*
X29533368Y-103007475D01*
X29776589Y-103169990D01*
X30046842Y-103281932D01*
X30333740Y-103339000D01*
X30626260Y-103339000D01*
X30913158Y-103281932D01*
X31183411Y-103169990D01*
X31426632Y-103007475D01*
X31633475Y-102800632D01*
X31750000Y-102626240D01*
X31866525Y-102800632D01*
X32073368Y-103007475D01*
X32316589Y-103169990D01*
X32586842Y-103281932D01*
X32873740Y-103339000D01*
X33166260Y-103339000D01*
X33453158Y-103281932D01*
X33723411Y-103169990D01*
X33966632Y-103007475D01*
X34173475Y-102800632D01*
X34290000Y-102626240D01*
X34406525Y-102800632D01*
X34613368Y-103007475D01*
X34856589Y-103169990D01*
X35126842Y-103281932D01*
X35413740Y-103339000D01*
X35706260Y-103339000D01*
X35993158Y-103281932D01*
X36263411Y-103169990D01*
X36506632Y-103007475D01*
X36713475Y-102800632D01*
X36830000Y-102626240D01*
X36946525Y-102800632D01*
X37153368Y-103007475D01*
X37396589Y-103169990D01*
X37666842Y-103281932D01*
X37953740Y-103339000D01*
X38246260Y-103339000D01*
X38533158Y-103281932D01*
X38803411Y-103169990D01*
X39046632Y-103007475D01*
X39253475Y-102800632D01*
X39370000Y-102626240D01*
X39486525Y-102800632D01*
X39693368Y-103007475D01*
X39936589Y-103169990D01*
X40206842Y-103281932D01*
X40493740Y-103339000D01*
X40786260Y-103339000D01*
X41073158Y-103281932D01*
X41343411Y-103169990D01*
X41586632Y-103007475D01*
X41718487Y-102875620D01*
X41740498Y-102948180D01*
X41799463Y-103058494D01*
X41878815Y-103155185D01*
X41975506Y-103234537D01*
X42085820Y-103293502D01*
X42205518Y-103329812D01*
X42330000Y-103342072D01*
X44030000Y-103342072D01*
X44154482Y-103329812D01*
X44274180Y-103293502D01*
X44384494Y-103234537D01*
X44481185Y-103155185D01*
X44560537Y-103058494D01*
X44619502Y-102948180D01*
X44655812Y-102828482D01*
X44668072Y-102704000D01*
X44668072Y-101004000D01*
X44655812Y-100879518D01*
X44619502Y-100759820D01*
X44560537Y-100649506D01*
X44481185Y-100552815D01*
X44384494Y-100473463D01*
X44274180Y-100414498D01*
X44154482Y-100378188D01*
X44030000Y-100365928D01*
X42330000Y-100365928D01*
X42205518Y-100378188D01*
X42085820Y-100414498D01*
X41975506Y-100473463D01*
X41878815Y-100552815D01*
X41799463Y-100649506D01*
X41740498Y-100759820D01*
X41718487Y-100832380D01*
X41586632Y-100700525D01*
X41343411Y-100538010D01*
X41073158Y-100426068D01*
X40786260Y-100369000D01*
X40493740Y-100369000D01*
X40206842Y-100426068D01*
X39936589Y-100538010D01*
X39693368Y-100700525D01*
X39486525Y-100907368D01*
X39370000Y-101081760D01*
X39253475Y-100907368D01*
X39046632Y-100700525D01*
X38803411Y-100538010D01*
X38533158Y-100426068D01*
X38246260Y-100369000D01*
X37953740Y-100369000D01*
X37666842Y-100426068D01*
X37396589Y-100538010D01*
X37153368Y-100700525D01*
X36946525Y-100907368D01*
X36830000Y-101081760D01*
X36713475Y-100907368D01*
X36506632Y-100700525D01*
X36263411Y-100538010D01*
X35993158Y-100426068D01*
X35706260Y-100369000D01*
X35413740Y-100369000D01*
X35126842Y-100426068D01*
X34856589Y-100538010D01*
X34613368Y-100700525D01*
X34406525Y-100907368D01*
X34290000Y-101081760D01*
X34173475Y-100907368D01*
X33966632Y-100700525D01*
X33723411Y-100538010D01*
X33453158Y-100426068D01*
X33166260Y-100369000D01*
X32873740Y-100369000D01*
X32586842Y-100426068D01*
X32316589Y-100538010D01*
X32073368Y-100700525D01*
X31866525Y-100907368D01*
X31750000Y-101081760D01*
X31633475Y-100907368D01*
X31426632Y-100700525D01*
X31183411Y-100538010D01*
X30913158Y-100426068D01*
X30626260Y-100369000D01*
X30333740Y-100369000D01*
X30046842Y-100426068D01*
X29776589Y-100538010D01*
X29533368Y-100700525D01*
X29326525Y-100907368D01*
X29210000Y-101081760D01*
X29093475Y-100907368D01*
X28886632Y-100700525D01*
X28643411Y-100538010D01*
X28373158Y-100426068D01*
X28086260Y-100369000D01*
X27793740Y-100369000D01*
X27506842Y-100426068D01*
X27236589Y-100538010D01*
X26993368Y-100700525D01*
X26786525Y-100907368D01*
X26670000Y-101081760D01*
X26553475Y-100907368D01*
X26346632Y-100700525D01*
X26103411Y-100538010D01*
X25833158Y-100426068D01*
X25546260Y-100369000D01*
X25253740Y-100369000D01*
X24966842Y-100426068D01*
X24696589Y-100538010D01*
X24453368Y-100700525D01*
X24246525Y-100907368D01*
X24130000Y-101081760D01*
X24013475Y-100907368D01*
X23806632Y-100700525D01*
X23563411Y-100538010D01*
X23293158Y-100426068D01*
X23006260Y-100369000D01*
X22713740Y-100369000D01*
X22426842Y-100426068D01*
X22156589Y-100538010D01*
X21913368Y-100700525D01*
X21706525Y-100907368D01*
X21590000Y-101081760D01*
X21473475Y-100907368D01*
X21266632Y-100700525D01*
X21023411Y-100538010D01*
X20753158Y-100426068D01*
X20466260Y-100369000D01*
X20173740Y-100369000D01*
X19886842Y-100426068D01*
X19616589Y-100538010D01*
X19373368Y-100700525D01*
X19166525Y-100907368D01*
X19050000Y-101081760D01*
X18933475Y-100907368D01*
X18726632Y-100700525D01*
X18483411Y-100538010D01*
X18213158Y-100426068D01*
X17926260Y-100369000D01*
X17633740Y-100369000D01*
X17346842Y-100426068D01*
X17076589Y-100538010D01*
X16833368Y-100700525D01*
X16626525Y-100907368D01*
X16510000Y-101081760D01*
X16393475Y-100907368D01*
X16186632Y-100700525D01*
X15943411Y-100538010D01*
X15673158Y-100426068D01*
X15386260Y-100369000D01*
X15093740Y-100369000D01*
X14806842Y-100426068D01*
X14536589Y-100538010D01*
X14293368Y-100700525D01*
X14086525Y-100907368D01*
X13970000Y-101081760D01*
X13853475Y-100907368D01*
X13646632Y-100700525D01*
X13403411Y-100538010D01*
X13133158Y-100426068D01*
X12846260Y-100369000D01*
X12553740Y-100369000D01*
X12266842Y-100426068D01*
X11996589Y-100538010D01*
X11753368Y-100700525D01*
X11546525Y-100907368D01*
X11430000Y-101081760D01*
X11313475Y-100907368D01*
X11106632Y-100700525D01*
X10863411Y-100538010D01*
X10593158Y-100426068D01*
X10306260Y-100369000D01*
X10013740Y-100369000D01*
X9726842Y-100426068D01*
X9456589Y-100538010D01*
X9213368Y-100700525D01*
X9006525Y-100907368D01*
X8890000Y-101081760D01*
X8773475Y-100907368D01*
X8566632Y-100700525D01*
X8323411Y-100538010D01*
X8053158Y-100426068D01*
X7766260Y-100369000D01*
X7473740Y-100369000D01*
X7186842Y-100426068D01*
X6916589Y-100538010D01*
X6673368Y-100700525D01*
X6466525Y-100907368D01*
X6350000Y-101081760D01*
X6233475Y-100907368D01*
X6026632Y-100700525D01*
X5783411Y-100538010D01*
X5513158Y-100426068D01*
X5226260Y-100369000D01*
X4933740Y-100369000D01*
X4646842Y-100426068D01*
X4376589Y-100538010D01*
X4133368Y-100700525D01*
X3926525Y-100907368D01*
X3764010Y-101150589D01*
X3652068Y-101420842D01*
X3595000Y-101707740D01*
X-6706000Y-101707740D01*
X-6706000Y-97434000D01*
X71222000Y-97434000D01*
X71222001Y-161257572D01*
%TA.AperFunction,Conductor*%
D17*
G36*
X71222001Y-161257572D02*
G01*
X71222000Y-161257582D01*
X71222001Y-171806000D01*
X-6706000Y-171806000D01*
X-6706000Y-167747740D01*
X3595000Y-167747740D01*
X3595000Y-168040260D01*
X3652068Y-168327158D01*
X3764010Y-168597411D01*
X3926525Y-168840632D01*
X4133368Y-169047475D01*
X4376589Y-169209990D01*
X4646842Y-169321932D01*
X4933740Y-169379000D01*
X5226260Y-169379000D01*
X5513158Y-169321932D01*
X5783411Y-169209990D01*
X6026632Y-169047475D01*
X6233475Y-168840632D01*
X6350000Y-168666240D01*
X6466525Y-168840632D01*
X6673368Y-169047475D01*
X6916589Y-169209990D01*
X7186842Y-169321932D01*
X7473740Y-169379000D01*
X7766260Y-169379000D01*
X8053158Y-169321932D01*
X8323411Y-169209990D01*
X8566632Y-169047475D01*
X8773475Y-168840632D01*
X8890000Y-168666240D01*
X9006525Y-168840632D01*
X9213368Y-169047475D01*
X9456589Y-169209990D01*
X9726842Y-169321932D01*
X10013740Y-169379000D01*
X10306260Y-169379000D01*
X10593158Y-169321932D01*
X10863411Y-169209990D01*
X11106632Y-169047475D01*
X11313475Y-168840632D01*
X11430000Y-168666240D01*
X11546525Y-168840632D01*
X11753368Y-169047475D01*
X11996589Y-169209990D01*
X12266842Y-169321932D01*
X12553740Y-169379000D01*
X12846260Y-169379000D01*
X13133158Y-169321932D01*
X13403411Y-169209990D01*
X13646632Y-169047475D01*
X13853475Y-168840632D01*
X13970000Y-168666240D01*
X14086525Y-168840632D01*
X14293368Y-169047475D01*
X14536589Y-169209990D01*
X14806842Y-169321932D01*
X15093740Y-169379000D01*
X15386260Y-169379000D01*
X15673158Y-169321932D01*
X15943411Y-169209990D01*
X16186632Y-169047475D01*
X16393475Y-168840632D01*
X16510000Y-168666240D01*
X16626525Y-168840632D01*
X16833368Y-169047475D01*
X17076589Y-169209990D01*
X17346842Y-169321932D01*
X17633740Y-169379000D01*
X17926260Y-169379000D01*
X18213158Y-169321932D01*
X18483411Y-169209990D01*
X18726632Y-169047475D01*
X18933475Y-168840632D01*
X19050000Y-168666240D01*
X19166525Y-168840632D01*
X19373368Y-169047475D01*
X19616589Y-169209990D01*
X19886842Y-169321932D01*
X20173740Y-169379000D01*
X20466260Y-169379000D01*
X20753158Y-169321932D01*
X21023411Y-169209990D01*
X21266632Y-169047475D01*
X21473475Y-168840632D01*
X21595195Y-168658466D01*
X21664822Y-168775355D01*
X21859731Y-168991588D01*
X22093080Y-169165641D01*
X22355901Y-169290825D01*
X22503110Y-169335476D01*
X22733000Y-169214155D01*
X22733000Y-168021000D01*
X22713000Y-168021000D01*
X22713000Y-167767000D01*
X22733000Y-167767000D01*
X22733000Y-166573845D01*
X22987000Y-166573845D01*
X22987000Y-167767000D01*
X23007000Y-167767000D01*
X23007000Y-168021000D01*
X22987000Y-168021000D01*
X22987000Y-169214155D01*
X23216890Y-169335476D01*
X23364099Y-169290825D01*
X23626920Y-169165641D01*
X23860269Y-168991588D01*
X23936034Y-168907534D01*
X23960498Y-168988180D01*
X24019463Y-169098494D01*
X24098815Y-169195185D01*
X24195506Y-169274537D01*
X24305820Y-169333502D01*
X24425518Y-169369812D01*
X24550000Y-169382072D01*
X26250000Y-169382072D01*
X26374482Y-169369812D01*
X26494180Y-169333502D01*
X26604494Y-169274537D01*
X26701185Y-169195185D01*
X26780537Y-169098494D01*
X26839502Y-168988180D01*
X26875812Y-168868482D01*
X26888072Y-168744000D01*
X26888072Y-167044000D01*
X46009928Y-167044000D01*
X46009928Y-168744000D01*
X46022188Y-168868482D01*
X46058498Y-168988180D01*
X46117463Y-169098494D01*
X46196815Y-169195185D01*
X46293506Y-169274537D01*
X46403820Y-169333502D01*
X46523518Y-169369812D01*
X46648000Y-169382072D01*
X48348000Y-169382072D01*
X48472482Y-169369812D01*
X48592180Y-169333502D01*
X48702494Y-169274537D01*
X48799185Y-169195185D01*
X48878537Y-169098494D01*
X48937502Y-168988180D01*
X48959513Y-168915620D01*
X49091368Y-169047475D01*
X49334589Y-169209990D01*
X49604842Y-169321932D01*
X49891740Y-169379000D01*
X50184260Y-169379000D01*
X50471158Y-169321932D01*
X50741411Y-169209990D01*
X50984632Y-169047475D01*
X51191475Y-168840632D01*
X51308000Y-168666240D01*
X51424525Y-168840632D01*
X51631368Y-169047475D01*
X51874589Y-169209990D01*
X52144842Y-169321932D01*
X52431740Y-169379000D01*
X52724260Y-169379000D01*
X53011158Y-169321932D01*
X53281411Y-169209990D01*
X53524632Y-169047475D01*
X53731475Y-168840632D01*
X53848000Y-168666240D01*
X53964525Y-168840632D01*
X54171368Y-169047475D01*
X54414589Y-169209990D01*
X54684842Y-169321932D01*
X54971740Y-169379000D01*
X55264260Y-169379000D01*
X55551158Y-169321932D01*
X55821411Y-169209990D01*
X56064632Y-169047475D01*
X56271475Y-168840632D01*
X56388000Y-168666240D01*
X56504525Y-168840632D01*
X56711368Y-169047475D01*
X56954589Y-169209990D01*
X57224842Y-169321932D01*
X57511740Y-169379000D01*
X57804260Y-169379000D01*
X58091158Y-169321932D01*
X58361411Y-169209990D01*
X58604632Y-169047475D01*
X58811475Y-168840632D01*
X58928000Y-168666240D01*
X59044525Y-168840632D01*
X59251368Y-169047475D01*
X59494589Y-169209990D01*
X59764842Y-169321932D01*
X60051740Y-169379000D01*
X60344260Y-169379000D01*
X60631158Y-169321932D01*
X60901411Y-169209990D01*
X61144632Y-169047475D01*
X61351475Y-168840632D01*
X61468000Y-168666240D01*
X61584525Y-168840632D01*
X61791368Y-169047475D01*
X62034589Y-169209990D01*
X62304842Y-169321932D01*
X62591740Y-169379000D01*
X62884260Y-169379000D01*
X63171158Y-169321932D01*
X63441411Y-169209990D01*
X63684632Y-169047475D01*
X63891475Y-168840632D01*
X64008000Y-168666240D01*
X64124525Y-168840632D01*
X64331368Y-169047475D01*
X64574589Y-169209990D01*
X64844842Y-169321932D01*
X65131740Y-169379000D01*
X65424260Y-169379000D01*
X65711158Y-169321932D01*
X65981411Y-169209990D01*
X66224632Y-169047475D01*
X66431475Y-168840632D01*
X66593990Y-168597411D01*
X66705932Y-168327158D01*
X66763000Y-168040260D01*
X66763000Y-167747740D01*
X66705932Y-167460842D01*
X66593990Y-167190589D01*
X66431475Y-166947368D01*
X66224632Y-166740525D01*
X65981411Y-166578010D01*
X65711158Y-166466068D01*
X65424260Y-166409000D01*
X65131740Y-166409000D01*
X64844842Y-166466068D01*
X64574589Y-166578010D01*
X64331368Y-166740525D01*
X64124525Y-166947368D01*
X64008000Y-167121760D01*
X63891475Y-166947368D01*
X63684632Y-166740525D01*
X63441411Y-166578010D01*
X63171158Y-166466068D01*
X62884260Y-166409000D01*
X62591740Y-166409000D01*
X62304842Y-166466068D01*
X62034589Y-166578010D01*
X61791368Y-166740525D01*
X61584525Y-166947368D01*
X61468000Y-167121760D01*
X61351475Y-166947368D01*
X61144632Y-166740525D01*
X60901411Y-166578010D01*
X60631158Y-166466068D01*
X60344260Y-166409000D01*
X60051740Y-166409000D01*
X59764842Y-166466068D01*
X59494589Y-166578010D01*
X59251368Y-166740525D01*
X59044525Y-166947368D01*
X58928000Y-167121760D01*
X58811475Y-166947368D01*
X58604632Y-166740525D01*
X58361411Y-166578010D01*
X58091158Y-166466068D01*
X57804260Y-166409000D01*
X57511740Y-166409000D01*
X57224842Y-166466068D01*
X56954589Y-166578010D01*
X56711368Y-166740525D01*
X56504525Y-166947368D01*
X56388000Y-167121760D01*
X56271475Y-166947368D01*
X56064632Y-166740525D01*
X55821411Y-166578010D01*
X55551158Y-166466068D01*
X55264260Y-166409000D01*
X54971740Y-166409000D01*
X54684842Y-166466068D01*
X54414589Y-166578010D01*
X54171368Y-166740525D01*
X53964525Y-166947368D01*
X53848000Y-167121760D01*
X53731475Y-166947368D01*
X53524632Y-166740525D01*
X53281411Y-166578010D01*
X53011158Y-166466068D01*
X52724260Y-166409000D01*
X52431740Y-166409000D01*
X52144842Y-166466068D01*
X51874589Y-166578010D01*
X51631368Y-166740525D01*
X51424525Y-166947368D01*
X51308000Y-167121760D01*
X51191475Y-166947368D01*
X50984632Y-166740525D01*
X50741411Y-166578010D01*
X50471158Y-166466068D01*
X50184260Y-166409000D01*
X49891740Y-166409000D01*
X49604842Y-166466068D01*
X49334589Y-166578010D01*
X49091368Y-166740525D01*
X48959513Y-166872380D01*
X48937502Y-166799820D01*
X48878537Y-166689506D01*
X48799185Y-166592815D01*
X48702494Y-166513463D01*
X48592180Y-166454498D01*
X48472482Y-166418188D01*
X48348000Y-166405928D01*
X46648000Y-166405928D01*
X46523518Y-166418188D01*
X46403820Y-166454498D01*
X46293506Y-166513463D01*
X46196815Y-166592815D01*
X46117463Y-166689506D01*
X46058498Y-166799820D01*
X46022188Y-166919518D01*
X46009928Y-167044000D01*
X26888072Y-167044000D01*
X26875812Y-166919518D01*
X26839502Y-166799820D01*
X26780537Y-166689506D01*
X26701185Y-166592815D01*
X26604494Y-166513463D01*
X26494180Y-166454498D01*
X26374482Y-166418188D01*
X26250000Y-166405928D01*
X24550000Y-166405928D01*
X24425518Y-166418188D01*
X24305820Y-166454498D01*
X24195506Y-166513463D01*
X24098815Y-166592815D01*
X24019463Y-166689506D01*
X23960498Y-166799820D01*
X23936034Y-166880466D01*
X23860269Y-166796412D01*
X23626920Y-166622359D01*
X23364099Y-166497175D01*
X23216890Y-166452524D01*
X22987000Y-166573845D01*
X22733000Y-166573845D01*
X22503110Y-166452524D01*
X22355901Y-166497175D01*
X22093080Y-166622359D01*
X21859731Y-166796412D01*
X21664822Y-167012645D01*
X21595195Y-167129534D01*
X21473475Y-166947368D01*
X21266632Y-166740525D01*
X21023411Y-166578010D01*
X20753158Y-166466068D01*
X20466260Y-166409000D01*
X20173740Y-166409000D01*
X19886842Y-166466068D01*
X19616589Y-166578010D01*
X19373368Y-166740525D01*
X19166525Y-166947368D01*
X19050000Y-167121760D01*
X18933475Y-166947368D01*
X18726632Y-166740525D01*
X18483411Y-166578010D01*
X18213158Y-166466068D01*
X17926260Y-166409000D01*
X17633740Y-166409000D01*
X17346842Y-166466068D01*
X17076589Y-166578010D01*
X16833368Y-166740525D01*
X16626525Y-166947368D01*
X16510000Y-167121760D01*
X16393475Y-166947368D01*
X16186632Y-166740525D01*
X15943411Y-166578010D01*
X15673158Y-166466068D01*
X15386260Y-166409000D01*
X15093740Y-166409000D01*
X14806842Y-166466068D01*
X14536589Y-166578010D01*
X14293368Y-166740525D01*
X14086525Y-166947368D01*
X13970000Y-167121760D01*
X13853475Y-166947368D01*
X13646632Y-166740525D01*
X13403411Y-166578010D01*
X13133158Y-166466068D01*
X12846260Y-166409000D01*
X12553740Y-166409000D01*
X12266842Y-166466068D01*
X11996589Y-166578010D01*
X11753368Y-166740525D01*
X11546525Y-166947368D01*
X11430000Y-167121760D01*
X11313475Y-166947368D01*
X11106632Y-166740525D01*
X10863411Y-166578010D01*
X10593158Y-166466068D01*
X10306260Y-166409000D01*
X10013740Y-166409000D01*
X9726842Y-166466068D01*
X9456589Y-166578010D01*
X9213368Y-166740525D01*
X9006525Y-166947368D01*
X8890000Y-167121760D01*
X8773475Y-166947368D01*
X8566632Y-166740525D01*
X8323411Y-166578010D01*
X8053158Y-166466068D01*
X7766260Y-166409000D01*
X7473740Y-166409000D01*
X7186842Y-166466068D01*
X6916589Y-166578010D01*
X6673368Y-166740525D01*
X6466525Y-166947368D01*
X6350000Y-167121760D01*
X6233475Y-166947368D01*
X6026632Y-166740525D01*
X5783411Y-166578010D01*
X5513158Y-166466068D01*
X5226260Y-166409000D01*
X4933740Y-166409000D01*
X4646842Y-166466068D01*
X4376589Y-166578010D01*
X4133368Y-166740525D01*
X3926525Y-166947368D01*
X3764010Y-167190589D01*
X3652068Y-167460842D01*
X3595000Y-167747740D01*
X-6706000Y-167747740D01*
X-6706000Y-163577561D01*
X10291500Y-163577561D01*
X10291500Y-163781439D01*
X10331274Y-163981398D01*
X10409295Y-164169756D01*
X10522563Y-164339274D01*
X10666726Y-164483437D01*
X10836244Y-164596705D01*
X11024602Y-164674726D01*
X11224561Y-164714500D01*
X11428439Y-164714500D01*
X11628398Y-164674726D01*
X11816756Y-164596705D01*
X11986274Y-164483437D01*
X12130437Y-164339274D01*
X12243705Y-164169756D01*
X12321726Y-163981398D01*
X12361500Y-163781439D01*
X12361500Y-163577561D01*
X12321726Y-163377602D01*
X12243705Y-163189244D01*
X12130437Y-163019726D01*
X11986274Y-162875563D01*
X11816756Y-162762295D01*
X11628398Y-162684274D01*
X11428439Y-162644500D01*
X11224561Y-162644500D01*
X11024602Y-162684274D01*
X10836244Y-162762295D01*
X10666726Y-162875563D01*
X10522563Y-163019726D01*
X10409295Y-163189244D01*
X10331274Y-163377602D01*
X10291500Y-163577561D01*
X-6706000Y-163577561D01*
X-6706000Y-161188061D01*
X14967000Y-161188061D01*
X14967000Y-161391939D01*
X15006774Y-161591898D01*
X15084795Y-161780256D01*
X15198063Y-161949774D01*
X15342226Y-162093937D01*
X15511744Y-162207205D01*
X15700102Y-162285226D01*
X15900061Y-162325000D01*
X16103939Y-162325000D01*
X16303898Y-162285226D01*
X16492256Y-162207205D01*
X16496961Y-162204061D01*
X19285000Y-162204061D01*
X19285000Y-162407939D01*
X19324774Y-162607898D01*
X19402795Y-162796256D01*
X19516063Y-162965774D01*
X19660226Y-163109937D01*
X19829744Y-163223205D01*
X20018102Y-163301226D01*
X20218061Y-163341000D01*
X20421939Y-163341000D01*
X20621898Y-163301226D01*
X20810256Y-163223205D01*
X20979774Y-163109937D01*
X21123937Y-162965774D01*
X21237205Y-162796256D01*
X21315226Y-162607898D01*
X21355000Y-162407939D01*
X21355000Y-162204061D01*
X30715000Y-162204061D01*
X30715000Y-162407939D01*
X30754774Y-162607898D01*
X30832795Y-162796256D01*
X30946063Y-162965774D01*
X31090226Y-163109937D01*
X31259744Y-163223205D01*
X31448102Y-163301226D01*
X31648061Y-163341000D01*
X31851939Y-163341000D01*
X32051898Y-163301226D01*
X32240256Y-163223205D01*
X32409774Y-163109937D01*
X32553937Y-162965774D01*
X32667205Y-162796256D01*
X32745226Y-162607898D01*
X32785000Y-162407939D01*
X32785000Y-162204061D01*
X32745226Y-162004102D01*
X32667205Y-161815744D01*
X32553937Y-161646226D01*
X32409774Y-161502063D01*
X32240256Y-161388795D01*
X32051898Y-161310774D01*
X31851939Y-161271000D01*
X31648061Y-161271000D01*
X31448102Y-161310774D01*
X31259744Y-161388795D01*
X31090226Y-161502063D01*
X30946063Y-161646226D01*
X30832795Y-161815744D01*
X30754774Y-162004102D01*
X30715000Y-162204061D01*
X21355000Y-162204061D01*
X21315226Y-162004102D01*
X21237205Y-161815744D01*
X21123937Y-161646226D01*
X20979774Y-161502063D01*
X20810256Y-161388795D01*
X20621898Y-161310774D01*
X20421939Y-161271000D01*
X20218061Y-161271000D01*
X20018102Y-161310774D01*
X19829744Y-161388795D01*
X19660226Y-161502063D01*
X19516063Y-161646226D01*
X19402795Y-161815744D01*
X19324774Y-162004102D01*
X19285000Y-162204061D01*
X16496961Y-162204061D01*
X16661774Y-162093937D01*
X16805937Y-161949774D01*
X16919205Y-161780256D01*
X16997226Y-161591898D01*
X17037000Y-161391939D01*
X17037000Y-161188061D01*
X16997226Y-160988102D01*
X16919205Y-160799744D01*
X16805937Y-160630226D01*
X16661774Y-160486063D01*
X16571975Y-160426061D01*
X28175000Y-160426061D01*
X28175000Y-160629939D01*
X28214774Y-160829898D01*
X28292795Y-161018256D01*
X28406063Y-161187774D01*
X28550226Y-161331937D01*
X28719744Y-161445205D01*
X28908102Y-161523226D01*
X29108061Y-161563000D01*
X29311939Y-161563000D01*
X29511898Y-161523226D01*
X29700256Y-161445205D01*
X29869774Y-161331937D01*
X30013650Y-161188061D01*
X38843000Y-161188061D01*
X38843000Y-161391939D01*
X38882774Y-161591898D01*
X38960795Y-161780256D01*
X39074063Y-161949774D01*
X39218226Y-162093937D01*
X39387744Y-162207205D01*
X39576102Y-162285226D01*
X39605000Y-162290974D01*
X39605000Y-162407939D01*
X39644774Y-162607898D01*
X39722795Y-162796256D01*
X39836063Y-162965774D01*
X39980226Y-163109937D01*
X40149744Y-163223205D01*
X40338102Y-163301226D01*
X40538061Y-163341000D01*
X40741939Y-163341000D01*
X40941898Y-163301226D01*
X41130256Y-163223205D01*
X41299774Y-163109937D01*
X41443937Y-162965774D01*
X41557205Y-162796256D01*
X41635226Y-162607898D01*
X41675000Y-162407939D01*
X41675000Y-162204061D01*
X41635226Y-162004102D01*
X41557205Y-161815744D01*
X41443937Y-161646226D01*
X41299774Y-161502063D01*
X41130256Y-161388795D01*
X40941898Y-161310774D01*
X40913000Y-161305026D01*
X40913000Y-161188061D01*
X40873226Y-160988102D01*
X40795205Y-160799744D01*
X40681937Y-160630226D01*
X40537774Y-160486063D01*
X40368256Y-160372795D01*
X40179898Y-160294774D01*
X39979939Y-160255000D01*
X39776061Y-160255000D01*
X39576102Y-160294774D01*
X39387744Y-160372795D01*
X39218226Y-160486063D01*
X39074063Y-160630226D01*
X38960795Y-160799744D01*
X38882774Y-160988102D01*
X38843000Y-161188061D01*
X30013650Y-161188061D01*
X30013937Y-161187774D01*
X30127205Y-161018256D01*
X30205226Y-160829898D01*
X30245000Y-160629939D01*
X30245000Y-160426061D01*
X30205226Y-160226102D01*
X30127205Y-160037744D01*
X30013937Y-159868226D01*
X29869774Y-159724063D01*
X29700256Y-159610795D01*
X29511898Y-159532774D01*
X29311939Y-159493000D01*
X29108061Y-159493000D01*
X28908102Y-159532774D01*
X28719744Y-159610795D01*
X28550226Y-159724063D01*
X28406063Y-159868226D01*
X28292795Y-160037744D01*
X28214774Y-160226102D01*
X28175000Y-160426061D01*
X16571975Y-160426061D01*
X16492256Y-160372795D01*
X16303898Y-160294774D01*
X16103939Y-160255000D01*
X15900061Y-160255000D01*
X15700102Y-160294774D01*
X15511744Y-160372795D01*
X15342226Y-160486063D01*
X15198063Y-160630226D01*
X15084795Y-160799744D01*
X15006774Y-160988102D01*
X14967000Y-161188061D01*
X-6706000Y-161188061D01*
X-6706000Y-158140061D01*
X40113000Y-158140061D01*
X40113000Y-158343939D01*
X40152774Y-158543898D01*
X40230795Y-158732256D01*
X40344063Y-158901774D01*
X40488226Y-159045937D01*
X40657744Y-159159205D01*
X40846102Y-159237226D01*
X41046061Y-159277000D01*
X41249939Y-159277000D01*
X41449898Y-159237226D01*
X41638256Y-159159205D01*
X41807774Y-159045937D01*
X41951937Y-158901774D01*
X42065205Y-158732256D01*
X42143226Y-158543898D01*
X42183000Y-158343939D01*
X42183000Y-158140061D01*
X42399000Y-158140061D01*
X42399000Y-158343939D01*
X42438774Y-158543898D01*
X42516795Y-158732256D01*
X42630063Y-158901774D01*
X42774226Y-159045937D01*
X42943744Y-159159205D01*
X43132102Y-159237226D01*
X43332061Y-159277000D01*
X43535939Y-159277000D01*
X43735898Y-159237226D01*
X43924256Y-159159205D01*
X44093774Y-159045937D01*
X44237937Y-158901774D01*
X44351205Y-158732256D01*
X44429226Y-158543898D01*
X44469000Y-158343939D01*
X44469000Y-158140061D01*
X44685000Y-158140061D01*
X44685000Y-158343939D01*
X44724774Y-158543898D01*
X44802795Y-158732256D01*
X44916063Y-158901774D01*
X45060226Y-159045937D01*
X45229744Y-159159205D01*
X45418102Y-159237226D01*
X45618061Y-159277000D01*
X45821939Y-159277000D01*
X46021898Y-159237226D01*
X46210256Y-159159205D01*
X46379774Y-159045937D01*
X46523937Y-158901774D01*
X46637205Y-158732256D01*
X46715226Y-158543898D01*
X46755000Y-158343939D01*
X46755000Y-158140061D01*
X46971000Y-158140061D01*
X46971000Y-158343939D01*
X47010774Y-158543898D01*
X47088795Y-158732256D01*
X47202063Y-158901774D01*
X47346226Y-159045937D01*
X47515744Y-159159205D01*
X47704102Y-159237226D01*
X47904061Y-159277000D01*
X48107939Y-159277000D01*
X48307898Y-159237226D01*
X48496256Y-159159205D01*
X48665774Y-159045937D01*
X48809937Y-158901774D01*
X48923205Y-158732256D01*
X49001226Y-158543898D01*
X49031030Y-158394061D01*
X58147000Y-158394061D01*
X58147000Y-158597939D01*
X58186774Y-158797898D01*
X58264795Y-158986256D01*
X58378063Y-159155774D01*
X58522226Y-159299937D01*
X58691744Y-159413205D01*
X58880102Y-159491226D01*
X59080061Y-159531000D01*
X59283939Y-159531000D01*
X59483898Y-159491226D01*
X59672256Y-159413205D01*
X59841774Y-159299937D01*
X59985937Y-159155774D01*
X60099205Y-158986256D01*
X60177226Y-158797898D01*
X60217000Y-158597939D01*
X60217000Y-158394061D01*
X60433000Y-158394061D01*
X60433000Y-158597939D01*
X60472774Y-158797898D01*
X60550795Y-158986256D01*
X60664063Y-159155774D01*
X60808226Y-159299937D01*
X60977744Y-159413205D01*
X61166102Y-159491226D01*
X61366061Y-159531000D01*
X61569939Y-159531000D01*
X61769898Y-159491226D01*
X61958256Y-159413205D01*
X62127774Y-159299937D01*
X62271937Y-159155774D01*
X62385205Y-158986256D01*
X62463226Y-158797898D01*
X62465000Y-158788979D01*
X62465000Y-158851939D01*
X62504774Y-159051898D01*
X62582795Y-159240256D01*
X62696063Y-159409774D01*
X62840226Y-159553937D01*
X63009744Y-159667205D01*
X63198102Y-159745226D01*
X63398061Y-159785000D01*
X63601939Y-159785000D01*
X63801898Y-159745226D01*
X63990256Y-159667205D01*
X64159774Y-159553937D01*
X64303937Y-159409774D01*
X64373284Y-159305989D01*
X64533744Y-159413205D01*
X64722102Y-159491226D01*
X64922061Y-159531000D01*
X65125939Y-159531000D01*
X65325898Y-159491226D01*
X65514256Y-159413205D01*
X65683774Y-159299937D01*
X65827937Y-159155774D01*
X65941205Y-158986256D01*
X66019226Y-158797898D01*
X66059000Y-158597939D01*
X66059000Y-158394061D01*
X66019226Y-158194102D01*
X65941205Y-158005744D01*
X65827937Y-157836226D01*
X65683774Y-157692063D01*
X65514256Y-157578795D01*
X65325898Y-157500774D01*
X65125939Y-157461000D01*
X64922061Y-157461000D01*
X64722102Y-157500774D01*
X64533744Y-157578795D01*
X64364226Y-157692063D01*
X64220063Y-157836226D01*
X64150716Y-157940011D01*
X63990256Y-157832795D01*
X63801898Y-157754774D01*
X63601939Y-157715000D01*
X63398061Y-157715000D01*
X63198102Y-157754774D01*
X63009744Y-157832795D01*
X62840226Y-157946063D01*
X62696063Y-158090226D01*
X62582795Y-158259744D01*
X62504774Y-158448102D01*
X62503000Y-158457021D01*
X62503000Y-158394061D01*
X62463226Y-158194102D01*
X62385205Y-158005744D01*
X62271937Y-157836226D01*
X62127774Y-157692063D01*
X61958256Y-157578795D01*
X61769898Y-157500774D01*
X61569939Y-157461000D01*
X61366061Y-157461000D01*
X61166102Y-157500774D01*
X60977744Y-157578795D01*
X60808226Y-157692063D01*
X60664063Y-157836226D01*
X60550795Y-158005744D01*
X60472774Y-158194102D01*
X60433000Y-158394061D01*
X60217000Y-158394061D01*
X60177226Y-158194102D01*
X60099205Y-158005744D01*
X59985937Y-157836226D01*
X59841774Y-157692063D01*
X59672256Y-157578795D01*
X59483898Y-157500774D01*
X59283939Y-157461000D01*
X59080061Y-157461000D01*
X58880102Y-157500774D01*
X58691744Y-157578795D01*
X58522226Y-157692063D01*
X58378063Y-157836226D01*
X58264795Y-158005744D01*
X58186774Y-158194102D01*
X58147000Y-158394061D01*
X49031030Y-158394061D01*
X49041000Y-158343939D01*
X49041000Y-158140061D01*
X49001226Y-157940102D01*
X48923205Y-157751744D01*
X48809937Y-157582226D01*
X48665774Y-157438063D01*
X48496256Y-157324795D01*
X48307898Y-157246774D01*
X48107939Y-157207000D01*
X47904061Y-157207000D01*
X47704102Y-157246774D01*
X47515744Y-157324795D01*
X47346226Y-157438063D01*
X47202063Y-157582226D01*
X47088795Y-157751744D01*
X47010774Y-157940102D01*
X46971000Y-158140061D01*
X46755000Y-158140061D01*
X46715226Y-157940102D01*
X46637205Y-157751744D01*
X46523937Y-157582226D01*
X46379774Y-157438063D01*
X46210256Y-157324795D01*
X46021898Y-157246774D01*
X45821939Y-157207000D01*
X45618061Y-157207000D01*
X45418102Y-157246774D01*
X45229744Y-157324795D01*
X45060226Y-157438063D01*
X44916063Y-157582226D01*
X44802795Y-157751744D01*
X44724774Y-157940102D01*
X44685000Y-158140061D01*
X44469000Y-158140061D01*
X44429226Y-157940102D01*
X44351205Y-157751744D01*
X44237937Y-157582226D01*
X44093774Y-157438063D01*
X43924256Y-157324795D01*
X43735898Y-157246774D01*
X43535939Y-157207000D01*
X43332061Y-157207000D01*
X43132102Y-157246774D01*
X42943744Y-157324795D01*
X42774226Y-157438063D01*
X42630063Y-157582226D01*
X42516795Y-157751744D01*
X42438774Y-157940102D01*
X42399000Y-158140061D01*
X42183000Y-158140061D01*
X42143226Y-157940102D01*
X42065205Y-157751744D01*
X41951937Y-157582226D01*
X41807774Y-157438063D01*
X41638256Y-157324795D01*
X41449898Y-157246774D01*
X41249939Y-157207000D01*
X41046061Y-157207000D01*
X40846102Y-157246774D01*
X40657744Y-157324795D01*
X40488226Y-157438063D01*
X40344063Y-157582226D01*
X40230795Y-157751744D01*
X40152774Y-157940102D01*
X40113000Y-158140061D01*
X-6706000Y-158140061D01*
X-6706000Y-155092061D01*
X-1797000Y-155092061D01*
X-1797000Y-155295939D01*
X-1757226Y-155495898D01*
X-1679205Y-155684256D01*
X-1565937Y-155853774D01*
X-1421774Y-155997937D01*
X-1252256Y-156111205D01*
X-1063898Y-156189226D01*
X-863939Y-156229000D01*
X-660061Y-156229000D01*
X-460102Y-156189226D01*
X-271744Y-156111205D01*
X-102226Y-155997937D01*
X41937Y-155853774D01*
X155205Y-155684256D01*
X233226Y-155495898D01*
X273000Y-155295939D01*
X273000Y-155092061D01*
X233226Y-154892102D01*
X210842Y-154838061D01*
X10141000Y-154838061D01*
X10141000Y-155041939D01*
X10180774Y-155241898D01*
X10258795Y-155430256D01*
X10372063Y-155599774D01*
X10516226Y-155743937D01*
X10685744Y-155857205D01*
X10874102Y-155935226D01*
X11074061Y-155975000D01*
X11277939Y-155975000D01*
X11477898Y-155935226D01*
X11666256Y-155857205D01*
X11835774Y-155743937D01*
X11979650Y-155600061D01*
X13951000Y-155600061D01*
X13951000Y-155803939D01*
X13990774Y-156003898D01*
X14068795Y-156192256D01*
X14182063Y-156361774D01*
X14326226Y-156505937D01*
X14495744Y-156619205D01*
X14684102Y-156697226D01*
X14884061Y-156737000D01*
X15087939Y-156737000D01*
X15287898Y-156697226D01*
X15476256Y-156619205D01*
X15645774Y-156505937D01*
X15789937Y-156361774D01*
X15903205Y-156192256D01*
X15981226Y-156003898D01*
X16021000Y-155803939D01*
X16021000Y-155600061D01*
X16002910Y-155509115D01*
X36831132Y-155509115D01*
X36831132Y-155712993D01*
X36870906Y-155912952D01*
X36948927Y-156101310D01*
X37062195Y-156270828D01*
X37206358Y-156414991D01*
X37375876Y-156528259D01*
X37564234Y-156606280D01*
X37764193Y-156646054D01*
X37968071Y-156646054D01*
X38168030Y-156606280D01*
X38356388Y-156528259D01*
X38525906Y-156414991D01*
X38670069Y-156270828D01*
X38783337Y-156101310D01*
X38861358Y-155912952D01*
X38901132Y-155712993D01*
X38901132Y-155509115D01*
X38861358Y-155309156D01*
X38783337Y-155120798D01*
X38670069Y-154951280D01*
X38525906Y-154807117D01*
X38356388Y-154693849D01*
X38168030Y-154615828D01*
X37968071Y-154576054D01*
X37764193Y-154576054D01*
X37564234Y-154615828D01*
X37375876Y-154693849D01*
X37206358Y-154807117D01*
X37062195Y-154951280D01*
X36948927Y-155120798D01*
X36870906Y-155309156D01*
X36831132Y-155509115D01*
X16002910Y-155509115D01*
X15981226Y-155400102D01*
X15903205Y-155211744D01*
X15789937Y-155042226D01*
X15645774Y-154898063D01*
X15476256Y-154784795D01*
X15287898Y-154706774D01*
X15087939Y-154667000D01*
X14884061Y-154667000D01*
X14684102Y-154706774D01*
X14495744Y-154784795D01*
X14326226Y-154898063D01*
X14182063Y-155042226D01*
X14068795Y-155211744D01*
X13990774Y-155400102D01*
X13951000Y-155600061D01*
X11979650Y-155600061D01*
X11979937Y-155599774D01*
X12093205Y-155430256D01*
X12171226Y-155241898D01*
X12211000Y-155041939D01*
X12211000Y-154838061D01*
X12171226Y-154638102D01*
X12093205Y-154449744D01*
X11979937Y-154280226D01*
X11835774Y-154136063D01*
X11745975Y-154076061D01*
X33763000Y-154076061D01*
X33763000Y-154279939D01*
X33802774Y-154479898D01*
X33880795Y-154668256D01*
X33994063Y-154837774D01*
X34138226Y-154981937D01*
X34307744Y-155095205D01*
X34496102Y-155173226D01*
X34696061Y-155213000D01*
X34899939Y-155213000D01*
X35099898Y-155173226D01*
X35288256Y-155095205D01*
X35450630Y-154986711D01*
X35506744Y-155024205D01*
X35695102Y-155102226D01*
X35895061Y-155142000D01*
X36098939Y-155142000D01*
X36298898Y-155102226D01*
X36487256Y-155024205D01*
X36656774Y-154910937D01*
X36800937Y-154766774D01*
X36888918Y-154635101D01*
X37089711Y-154635101D01*
X37289670Y-154595327D01*
X37478028Y-154517306D01*
X37647546Y-154404038D01*
X37791709Y-154259875D01*
X37844788Y-154180436D01*
X37980387Y-154180436D01*
X38180346Y-154140662D01*
X38368704Y-154062641D01*
X38538222Y-153949373D01*
X38682385Y-153805210D01*
X38795653Y-153635692D01*
X38873674Y-153447334D01*
X38913448Y-153247375D01*
X38913448Y-153043497D01*
X38873674Y-152843538D01*
X38795653Y-152655180D01*
X38682385Y-152485662D01*
X38538222Y-152341499D01*
X38368704Y-152228231D01*
X38180346Y-152150210D01*
X37980387Y-152110436D01*
X37776509Y-152110436D01*
X37576550Y-152150210D01*
X37388192Y-152228231D01*
X37218674Y-152341499D01*
X37074511Y-152485662D01*
X37021432Y-152565101D01*
X36885833Y-152565101D01*
X36685874Y-152604875D01*
X36497516Y-152682896D01*
X36327998Y-152796164D01*
X36183835Y-152940327D01*
X36095854Y-153072000D01*
X35895061Y-153072000D01*
X35695102Y-153111774D01*
X35506744Y-153189795D01*
X35344370Y-153298289D01*
X35288256Y-153260795D01*
X35099898Y-153182774D01*
X34899939Y-153143000D01*
X34696061Y-153143000D01*
X34496102Y-153182774D01*
X34307744Y-153260795D01*
X34138226Y-153374063D01*
X33994063Y-153518226D01*
X33880795Y-153687744D01*
X33802774Y-153876102D01*
X33763000Y-154076061D01*
X11745975Y-154076061D01*
X11666256Y-154022795D01*
X11477898Y-153944774D01*
X11277939Y-153905000D01*
X11074061Y-153905000D01*
X10874102Y-153944774D01*
X10685744Y-154022795D01*
X10516226Y-154136063D01*
X10372063Y-154280226D01*
X10258795Y-154449744D01*
X10180774Y-154638102D01*
X10141000Y-154838061D01*
X210842Y-154838061D01*
X155205Y-154703744D01*
X41937Y-154534226D01*
X-102226Y-154390063D01*
X-271744Y-154276795D01*
X-460102Y-154198774D01*
X-660061Y-154159000D01*
X-863939Y-154159000D01*
X-1063898Y-154198774D01*
X-1252256Y-154276795D01*
X-1421774Y-154390063D01*
X-1565937Y-154534226D01*
X-1679205Y-154703744D01*
X-1757226Y-154892102D01*
X-1797000Y-155092061D01*
X-6706000Y-155092061D01*
X-6706000Y-152806061D01*
X235000Y-152806061D01*
X235000Y-153009939D01*
X274774Y-153209898D01*
X352795Y-153398256D01*
X466063Y-153567774D01*
X610226Y-153711937D01*
X779744Y-153825205D01*
X968102Y-153903226D01*
X1168061Y-153943000D01*
X1371939Y-153943000D01*
X1571898Y-153903226D01*
X1760256Y-153825205D01*
X1929774Y-153711937D01*
X2073937Y-153567774D01*
X2143284Y-153463989D01*
X2303744Y-153571205D01*
X2492102Y-153649226D01*
X2692061Y-153689000D01*
X2895939Y-153689000D01*
X3095898Y-153649226D01*
X3284256Y-153571205D01*
X3288961Y-153568061D01*
X6077000Y-153568061D01*
X6077000Y-153771939D01*
X6116774Y-153971898D01*
X6194795Y-154160256D01*
X6308063Y-154329774D01*
X6452226Y-154473937D01*
X6621744Y-154587205D01*
X6810102Y-154665226D01*
X7010061Y-154705000D01*
X7213939Y-154705000D01*
X7413898Y-154665226D01*
X7602256Y-154587205D01*
X7771774Y-154473937D01*
X7915937Y-154329774D01*
X8029205Y-154160256D01*
X8107226Y-153971898D01*
X8147000Y-153771939D01*
X8147000Y-153571725D01*
X8334102Y-153649226D01*
X8534061Y-153689000D01*
X8737939Y-153689000D01*
X8937898Y-153649226D01*
X9126256Y-153571205D01*
X9295774Y-153457937D01*
X9439937Y-153313774D01*
X9553205Y-153144256D01*
X9631226Y-152955898D01*
X9671000Y-152755939D01*
X9671000Y-152552061D01*
X9631226Y-152352102D01*
X9553205Y-152163744D01*
X9439937Y-151994226D01*
X9295774Y-151850063D01*
X9126256Y-151736795D01*
X8937898Y-151658774D01*
X8737939Y-151619000D01*
X8534061Y-151619000D01*
X8334102Y-151658774D01*
X8145744Y-151736795D01*
X7976226Y-151850063D01*
X7832063Y-151994226D01*
X7718795Y-152163744D01*
X7640774Y-152352102D01*
X7601000Y-152552061D01*
X7601000Y-152752275D01*
X7413898Y-152674774D01*
X7213939Y-152635000D01*
X7010061Y-152635000D01*
X6810102Y-152674774D01*
X6621744Y-152752795D01*
X6452226Y-152866063D01*
X6308063Y-153010226D01*
X6194795Y-153179744D01*
X6116774Y-153368102D01*
X6077000Y-153568061D01*
X3288961Y-153568061D01*
X3453774Y-153457937D01*
X3597937Y-153313774D01*
X3711205Y-153144256D01*
X3789226Y-152955898D01*
X3829000Y-152755939D01*
X3829000Y-152552061D01*
X3789226Y-152352102D01*
X3711205Y-152163744D01*
X3597937Y-151994226D01*
X3453774Y-151850063D01*
X3284256Y-151736795D01*
X3095898Y-151658774D01*
X2895939Y-151619000D01*
X2752711Y-151619000D01*
X2835937Y-151535774D01*
X2949205Y-151366256D01*
X2984079Y-151282061D01*
X4807000Y-151282061D01*
X4807000Y-151485939D01*
X4846774Y-151685898D01*
X4924795Y-151874256D01*
X5038063Y-152043774D01*
X5182226Y-152187937D01*
X5351744Y-152301205D01*
X5540102Y-152379226D01*
X5740061Y-152419000D01*
X5943939Y-152419000D01*
X6143898Y-152379226D01*
X6332256Y-152301205D01*
X6501774Y-152187937D01*
X6645937Y-152043774D01*
X6759205Y-151874256D01*
X6837226Y-151685898D01*
X6877000Y-151485939D01*
X6877000Y-151282061D01*
X6837226Y-151082102D01*
X6759205Y-150893744D01*
X6645937Y-150724226D01*
X6501774Y-150580063D01*
X6332256Y-150466795D01*
X6143898Y-150388774D01*
X5943939Y-150349000D01*
X5740061Y-150349000D01*
X5540102Y-150388774D01*
X5351744Y-150466795D01*
X5182226Y-150580063D01*
X5038063Y-150724226D01*
X4924795Y-150893744D01*
X4846774Y-151082102D01*
X4807000Y-151282061D01*
X2984079Y-151282061D01*
X3027226Y-151177898D01*
X3067000Y-150977939D01*
X3067000Y-150774061D01*
X3027226Y-150574102D01*
X2949205Y-150385744D01*
X2835937Y-150216226D01*
X2691774Y-150072063D01*
X2601975Y-150012061D01*
X8707980Y-150012061D01*
X8707980Y-150215939D01*
X8747754Y-150415898D01*
X8825775Y-150604256D01*
X8939043Y-150773774D01*
X9083206Y-150917937D01*
X9252724Y-151031205D01*
X9441082Y-151109226D01*
X9641041Y-151149000D01*
X9844919Y-151149000D01*
X10044878Y-151109226D01*
X10233236Y-151031205D01*
X10402754Y-150917937D01*
X10546917Y-150773774D01*
X10660185Y-150604256D01*
X10738206Y-150415898D01*
X10777980Y-150215939D01*
X10777980Y-150012061D01*
X10738206Y-149812102D01*
X10660185Y-149623744D01*
X10546917Y-149454226D01*
X10463752Y-149371061D01*
X15088000Y-149371061D01*
X15088000Y-149574939D01*
X15127774Y-149774898D01*
X15205795Y-149963256D01*
X15319063Y-150132774D01*
X15463226Y-150276937D01*
X15632744Y-150390205D01*
X15821102Y-150468226D01*
X16021061Y-150508000D01*
X16224939Y-150508000D01*
X16424898Y-150468226D01*
X16613256Y-150390205D01*
X16782774Y-150276937D01*
X16926937Y-150132774D01*
X17007594Y-150012061D01*
X29191000Y-150012061D01*
X29191000Y-150215939D01*
X29230774Y-150415898D01*
X29308795Y-150604256D01*
X29422063Y-150773774D01*
X29566226Y-150917937D01*
X29735744Y-151031205D01*
X29924102Y-151109226D01*
X30124061Y-151149000D01*
X30327939Y-151149000D01*
X30527898Y-151109226D01*
X30716256Y-151031205D01*
X30885774Y-150917937D01*
X31029937Y-150773774D01*
X31143205Y-150604256D01*
X31221226Y-150415898D01*
X31261000Y-150215939D01*
X31261000Y-150012061D01*
X31229030Y-149851333D01*
X31289898Y-149839226D01*
X31332270Y-149821675D01*
X31340795Y-149842256D01*
X31454063Y-150011774D01*
X31598226Y-150155937D01*
X31767744Y-150269205D01*
X31956102Y-150347226D01*
X32156061Y-150387000D01*
X32359939Y-150387000D01*
X32559898Y-150347226D01*
X32748256Y-150269205D01*
X32917774Y-150155937D01*
X32986711Y-150087000D01*
X33012000Y-150087000D01*
X33012000Y-150226939D01*
X33051774Y-150426898D01*
X33129795Y-150615256D01*
X33243063Y-150784774D01*
X33387226Y-150928937D01*
X33556744Y-151042205D01*
X33745102Y-151120226D01*
X33945061Y-151160000D01*
X34148939Y-151160000D01*
X34348898Y-151120226D01*
X34537256Y-151042205D01*
X34706774Y-150928937D01*
X34850937Y-150784774D01*
X34964205Y-150615256D01*
X35042226Y-150426898D01*
X35082000Y-150226939D01*
X35082000Y-150087000D01*
X36285895Y-150087000D01*
X36322000Y-150090556D01*
X36358105Y-150087000D01*
X36466085Y-150076365D01*
X36604633Y-150034337D01*
X36732320Y-149966087D01*
X36844238Y-149874238D01*
X36867258Y-149846188D01*
X36888385Y-149825061D01*
X51102000Y-149825061D01*
X51102000Y-150028939D01*
X51141774Y-150228898D01*
X51219795Y-150417256D01*
X51333063Y-150586774D01*
X51477226Y-150730937D01*
X51646744Y-150844205D01*
X51835102Y-150922226D01*
X52035061Y-150962000D01*
X52238939Y-150962000D01*
X52438898Y-150922226D01*
X52627256Y-150844205D01*
X52788636Y-150736374D01*
X52849744Y-150777205D01*
X53038102Y-150855226D01*
X53238061Y-150895000D01*
X53441939Y-150895000D01*
X53641898Y-150855226D01*
X53830256Y-150777205D01*
X53999774Y-150663937D01*
X54143937Y-150519774D01*
X54257205Y-150350256D01*
X54335226Y-150161898D01*
X54375000Y-149961939D01*
X54375000Y-149758061D01*
X54335226Y-149558102D01*
X54257205Y-149369744D01*
X54143937Y-149200226D01*
X53999774Y-149056063D01*
X53830256Y-148942795D01*
X53641898Y-148864774D01*
X53441939Y-148825000D01*
X53238061Y-148825000D01*
X53038102Y-148864774D01*
X52849744Y-148942795D01*
X52688364Y-149050626D01*
X52627256Y-149009795D01*
X52438898Y-148931774D01*
X52238939Y-148892000D01*
X52035061Y-148892000D01*
X51835102Y-148931774D01*
X51646744Y-149009795D01*
X51477226Y-149123063D01*
X51333063Y-149267226D01*
X51219795Y-149436744D01*
X51141774Y-149625102D01*
X51102000Y-149825061D01*
X36888385Y-149825061D01*
X37596447Y-149117000D01*
X37693939Y-149117000D01*
X37893898Y-149077226D01*
X38082256Y-148999205D01*
X38251774Y-148885937D01*
X38395937Y-148741774D01*
X38509205Y-148572256D01*
X38587226Y-148383898D01*
X38627000Y-148183939D01*
X38627000Y-147980061D01*
X38587226Y-147780102D01*
X38509205Y-147591744D01*
X38395937Y-147422226D01*
X38251774Y-147278063D01*
X38082256Y-147164795D01*
X37893898Y-147086774D01*
X37693939Y-147047000D01*
X37490061Y-147047000D01*
X37290102Y-147086774D01*
X37101744Y-147164795D01*
X36932226Y-147278063D01*
X36788063Y-147422226D01*
X36674795Y-147591744D01*
X36596774Y-147780102D01*
X36557000Y-147980061D01*
X36557000Y-148077553D01*
X36017554Y-148617000D01*
X32986711Y-148617000D01*
X32917774Y-148548063D01*
X32748256Y-148434795D01*
X32559898Y-148356774D01*
X32359939Y-148317000D01*
X32156061Y-148317000D01*
X31956102Y-148356774D01*
X31913730Y-148374325D01*
X31905205Y-148353744D01*
X31791937Y-148184226D01*
X31647774Y-148040063D01*
X31478256Y-147926795D01*
X31289898Y-147848774D01*
X31089939Y-147809000D01*
X30886061Y-147809000D01*
X30686102Y-147848774D01*
X30497744Y-147926795D01*
X30328226Y-148040063D01*
X30184063Y-148184226D01*
X30070795Y-148353744D01*
X29992774Y-148542102D01*
X29953000Y-148742061D01*
X29953000Y-148945939D01*
X29984970Y-149106667D01*
X29924102Y-149118774D01*
X29735744Y-149196795D01*
X29566226Y-149310063D01*
X29422063Y-149454226D01*
X29308795Y-149623744D01*
X29230774Y-149812102D01*
X29191000Y-150012061D01*
X17007594Y-150012061D01*
X17040205Y-149963256D01*
X17118226Y-149774898D01*
X17158000Y-149574939D01*
X17158000Y-149371061D01*
X17118226Y-149171102D01*
X17040205Y-148982744D01*
X16926937Y-148813226D01*
X16782774Y-148669063D01*
X16613256Y-148555795D01*
X16424898Y-148477774D01*
X16224939Y-148438000D01*
X16021061Y-148438000D01*
X15821102Y-148477774D01*
X15632744Y-148555795D01*
X15463226Y-148669063D01*
X15319063Y-148813226D01*
X15205795Y-148982744D01*
X15127774Y-149171102D01*
X15088000Y-149371061D01*
X10463752Y-149371061D01*
X10402754Y-149310063D01*
X10233236Y-149196795D01*
X10044878Y-149118774D01*
X9844919Y-149079000D01*
X9641041Y-149079000D01*
X9441082Y-149118774D01*
X9252724Y-149196795D01*
X9083206Y-149310063D01*
X8939043Y-149454226D01*
X8825775Y-149623744D01*
X8747754Y-149812102D01*
X8707980Y-150012061D01*
X2601975Y-150012061D01*
X2522256Y-149958795D01*
X2333898Y-149880774D01*
X2133939Y-149841000D01*
X1930061Y-149841000D01*
X1730102Y-149880774D01*
X1541744Y-149958795D01*
X1372226Y-150072063D01*
X1228063Y-150216226D01*
X1114795Y-150385744D01*
X1036774Y-150574102D01*
X997000Y-150774061D01*
X997000Y-150977939D01*
X1036774Y-151177898D01*
X1114795Y-151366256D01*
X1228063Y-151535774D01*
X1372226Y-151679937D01*
X1541744Y-151793205D01*
X1730102Y-151871226D01*
X1930061Y-151911000D01*
X2073289Y-151911000D01*
X1990063Y-151994226D01*
X1920716Y-152098011D01*
X1760256Y-151990795D01*
X1571898Y-151912774D01*
X1371939Y-151873000D01*
X1168061Y-151873000D01*
X968102Y-151912774D01*
X779744Y-151990795D01*
X610226Y-152104063D01*
X466063Y-152248226D01*
X352795Y-152417744D01*
X274774Y-152606102D01*
X235000Y-152806061D01*
X-6706000Y-152806061D01*
X-6706000Y-150575061D01*
X-6369000Y-150575061D01*
X-6369000Y-150778939D01*
X-6329226Y-150978898D01*
X-6251205Y-151167256D01*
X-6137937Y-151336774D01*
X-5993774Y-151480937D01*
X-5824256Y-151594205D01*
X-5635898Y-151672226D01*
X-5435939Y-151712000D01*
X-5232061Y-151712000D01*
X-5032102Y-151672226D01*
X-4843744Y-151594205D01*
X-4674226Y-151480937D01*
X-4530063Y-151336774D01*
X-4416795Y-151167256D01*
X-4338774Y-150978898D01*
X-4299000Y-150778939D01*
X-4299000Y-150575061D01*
X-4338774Y-150375102D01*
X-4416795Y-150186744D01*
X-4530063Y-150017226D01*
X-4674226Y-149873063D01*
X-4843744Y-149759795D01*
X-4847930Y-149758061D01*
X-3829000Y-149758061D01*
X-3829000Y-149961939D01*
X-3789226Y-150161898D01*
X-3711205Y-150350256D01*
X-3597937Y-150519774D01*
X-3453774Y-150663937D01*
X-3284256Y-150777205D01*
X-3095898Y-150855226D01*
X-2895939Y-150895000D01*
X-2692061Y-150895000D01*
X-2492102Y-150855226D01*
X-2303744Y-150777205D01*
X-2134226Y-150663937D01*
X-1990063Y-150519774D01*
X-1920368Y-150415468D01*
X-1898921Y-150467246D01*
X-1785653Y-150636764D01*
X-1641490Y-150780927D01*
X-1471972Y-150894195D01*
X-1283614Y-150972216D01*
X-1083655Y-151011990D01*
X-879777Y-151011990D01*
X-679818Y-150972216D01*
X-491460Y-150894195D01*
X-321942Y-150780927D01*
X-177779Y-150636764D01*
X-64511Y-150467246D01*
X13510Y-150278888D01*
X53284Y-150078929D01*
X53284Y-149875051D01*
X13510Y-149675092D01*
X-64511Y-149486734D01*
X-177779Y-149317216D01*
X-321942Y-149173053D01*
X-491460Y-149059785D01*
X-679818Y-148981764D01*
X-879777Y-148941990D01*
X-1083655Y-148941990D01*
X-1283614Y-148981764D01*
X-1471972Y-149059785D01*
X-1641490Y-149173053D01*
X-1785653Y-149317216D01*
X-1855348Y-149421522D01*
X-1876795Y-149369744D01*
X-1990063Y-149200226D01*
X-2134226Y-149056063D01*
X-2303744Y-148942795D01*
X-2492102Y-148864774D01*
X-2692061Y-148825000D01*
X-2895939Y-148825000D01*
X-3095898Y-148864774D01*
X-3284256Y-148942795D01*
X-3453774Y-149056063D01*
X-3597937Y-149200226D01*
X-3711205Y-149369744D01*
X-3789226Y-149558102D01*
X-3829000Y-149758061D01*
X-4847930Y-149758061D01*
X-5032102Y-149681774D01*
X-5232061Y-149642000D01*
X-5435939Y-149642000D01*
X-5635898Y-149681774D01*
X-5824256Y-149759795D01*
X-5993774Y-149873063D01*
X-6137937Y-150017226D01*
X-6251205Y-150186744D01*
X-6329226Y-150375102D01*
X-6369000Y-150575061D01*
X-6706000Y-150575061D01*
X-6706000Y-147554061D01*
X-5271000Y-147554061D01*
X-5271000Y-147757939D01*
X-5231226Y-147957898D01*
X-5153205Y-148146256D01*
X-5039937Y-148315774D01*
X-4895774Y-148459937D01*
X-4726256Y-148573205D01*
X-4537898Y-148651226D01*
X-4337939Y-148691000D01*
X-4134061Y-148691000D01*
X-3934102Y-148651226D01*
X-3745744Y-148573205D01*
X-3576226Y-148459937D01*
X-3432063Y-148315774D01*
X-3318795Y-148146256D01*
X-3240774Y-147957898D01*
X-3201000Y-147757939D01*
X-3201000Y-147554061D01*
X-3217310Y-147472061D01*
X-1797000Y-147472061D01*
X-1797000Y-147675939D01*
X-1757226Y-147875898D01*
X-1679205Y-148064256D01*
X-1565937Y-148233774D01*
X-1421774Y-148377937D01*
X-1252256Y-148491205D01*
X-1063898Y-148569226D01*
X-863939Y-148609000D01*
X-660061Y-148609000D01*
X-460102Y-148569226D01*
X-271744Y-148491205D01*
X-267039Y-148488061D01*
X997000Y-148488061D01*
X997000Y-148691939D01*
X1036774Y-148891898D01*
X1114795Y-149080256D01*
X1228063Y-149249774D01*
X1372226Y-149393937D01*
X1541744Y-149507205D01*
X1730102Y-149585226D01*
X1930061Y-149625000D01*
X2133939Y-149625000D01*
X2333898Y-149585226D01*
X2522256Y-149507205D01*
X2691774Y-149393937D01*
X2835937Y-149249774D01*
X2949205Y-149080256D01*
X3027226Y-148891898D01*
X3067000Y-148691939D01*
X3067000Y-148488061D01*
X3027226Y-148288102D01*
X2949205Y-148099744D01*
X2835937Y-147930226D01*
X2691774Y-147786063D01*
X2522256Y-147672795D01*
X2333898Y-147594774D01*
X2133939Y-147555000D01*
X1930061Y-147555000D01*
X1730102Y-147594774D01*
X1541744Y-147672795D01*
X1372226Y-147786063D01*
X1228063Y-147930226D01*
X1114795Y-148099744D01*
X1036774Y-148288102D01*
X997000Y-148488061D01*
X-267039Y-148488061D01*
X-102226Y-148377937D01*
X41937Y-148233774D01*
X155205Y-148064256D01*
X233226Y-147875898D01*
X273000Y-147675939D01*
X273000Y-147472061D01*
X233226Y-147272102D01*
X155205Y-147083744D01*
X41937Y-146914226D01*
X25772Y-146898061D01*
X32051000Y-146898061D01*
X32051000Y-147101939D01*
X32090774Y-147301898D01*
X32168795Y-147490256D01*
X32282063Y-147659774D01*
X32426226Y-147803937D01*
X32595744Y-147917205D01*
X32784102Y-147995226D01*
X32984061Y-148035000D01*
X33187939Y-148035000D01*
X33387898Y-147995226D01*
X33576256Y-147917205D01*
X33745774Y-147803937D01*
X33889937Y-147659774D01*
X34003205Y-147490256D01*
X34081226Y-147301898D01*
X34121000Y-147101939D01*
X34121000Y-146964061D01*
X43923010Y-146964061D01*
X43923010Y-147167939D01*
X43962784Y-147367898D01*
X44040805Y-147556256D01*
X44154073Y-147725774D01*
X44298236Y-147869937D01*
X44467754Y-147983205D01*
X44656112Y-148061226D01*
X44856071Y-148101000D01*
X45059949Y-148101000D01*
X45259908Y-148061226D01*
X45448266Y-147983205D01*
X45617784Y-147869937D01*
X45761947Y-147725774D01*
X45875215Y-147556256D01*
X45953236Y-147367898D01*
X45993010Y-147167939D01*
X45993010Y-146964061D01*
X45953236Y-146764102D01*
X45875215Y-146575744D01*
X45761947Y-146406226D01*
X45617784Y-146262063D01*
X45448266Y-146148795D01*
X45259908Y-146070774D01*
X45059949Y-146031000D01*
X44856071Y-146031000D01*
X44656112Y-146070774D01*
X44467754Y-146148795D01*
X44298236Y-146262063D01*
X44154073Y-146406226D01*
X44040805Y-146575744D01*
X43962784Y-146764102D01*
X43923010Y-146964061D01*
X34121000Y-146964061D01*
X34121000Y-146898061D01*
X34081226Y-146698102D01*
X34003205Y-146509744D01*
X33889937Y-146340226D01*
X33745774Y-146196063D01*
X33576256Y-146082795D01*
X33387898Y-146004774D01*
X33187939Y-145965000D01*
X32984061Y-145965000D01*
X32784102Y-146004774D01*
X32595744Y-146082795D01*
X32426226Y-146196063D01*
X32282063Y-146340226D01*
X32168795Y-146509744D01*
X32090774Y-146698102D01*
X32051000Y-146898061D01*
X25772Y-146898061D01*
X-102226Y-146770063D01*
X-271744Y-146656795D01*
X-460102Y-146578774D01*
X-660061Y-146539000D01*
X-863939Y-146539000D01*
X-1063898Y-146578774D01*
X-1252256Y-146656795D01*
X-1421774Y-146770063D01*
X-1565937Y-146914226D01*
X-1679205Y-147083744D01*
X-1757226Y-147272102D01*
X-1797000Y-147472061D01*
X-3217310Y-147472061D01*
X-3240774Y-147354102D01*
X-3318795Y-147165744D01*
X-3432063Y-146996226D01*
X-3576226Y-146852063D01*
X-3745744Y-146738795D01*
X-3934102Y-146660774D01*
X-4134061Y-146621000D01*
X-4337939Y-146621000D01*
X-4537898Y-146660774D01*
X-4726256Y-146738795D01*
X-4895774Y-146852063D01*
X-5039937Y-146996226D01*
X-5153205Y-147165744D01*
X-5231226Y-147354102D01*
X-5271000Y-147554061D01*
X-6706000Y-147554061D01*
X-6706000Y-144536061D01*
X-2671000Y-144536061D01*
X-2671000Y-144739939D01*
X-2631226Y-144939898D01*
X-2553205Y-145128256D01*
X-2439937Y-145297774D01*
X-2295774Y-145441937D01*
X-2126256Y-145555205D01*
X-1937898Y-145633226D01*
X-1737939Y-145673000D01*
X-1534061Y-145673000D01*
X-1334102Y-145633226D01*
X-1145744Y-145555205D01*
X-976226Y-145441937D01*
X-832063Y-145297774D01*
X-718795Y-145128256D01*
X-640774Y-144939898D01*
X-601000Y-144739939D01*
X-601000Y-144536061D01*
X-640774Y-144336102D01*
X-718795Y-144147744D01*
X-832063Y-143978226D01*
X-894228Y-143916061D01*
X38843000Y-143916061D01*
X38843000Y-144119939D01*
X38882774Y-144319898D01*
X38960795Y-144508256D01*
X39074063Y-144677774D01*
X39218226Y-144821937D01*
X39387744Y-144935205D01*
X39576102Y-145013226D01*
X39776061Y-145053000D01*
X39979939Y-145053000D01*
X40179898Y-145013226D01*
X40368256Y-144935205D01*
X40537774Y-144821937D01*
X40621000Y-144738711D01*
X40621000Y-144881939D01*
X40660774Y-145081898D01*
X40738795Y-145270256D01*
X40852063Y-145439774D01*
X40996226Y-145583937D01*
X41165744Y-145697205D01*
X41354102Y-145775226D01*
X41554061Y-145815000D01*
X41757939Y-145815000D01*
X41957898Y-145775226D01*
X42146256Y-145697205D01*
X42315774Y-145583937D01*
X42459937Y-145439774D01*
X42573205Y-145270256D01*
X42608079Y-145186061D01*
X46463000Y-145186061D01*
X46463000Y-145389939D01*
X46502774Y-145589898D01*
X46580795Y-145778256D01*
X46694063Y-145947774D01*
X46838226Y-146091937D01*
X47007744Y-146205205D01*
X47196102Y-146283226D01*
X47396061Y-146323000D01*
X47599939Y-146323000D01*
X47760667Y-146291030D01*
X47772774Y-146351898D01*
X47850795Y-146540256D01*
X47964063Y-146709774D01*
X48108226Y-146853937D01*
X48277744Y-146967205D01*
X48466102Y-147045226D01*
X48666061Y-147085000D01*
X48869939Y-147085000D01*
X49069898Y-147045226D01*
X49258256Y-146967205D01*
X49427774Y-146853937D01*
X49571937Y-146709774D01*
X49685205Y-146540256D01*
X49763226Y-146351898D01*
X49803000Y-146151939D01*
X49803000Y-145948061D01*
X49763226Y-145748102D01*
X49685205Y-145559744D01*
X49571937Y-145390226D01*
X49427774Y-145246063D01*
X49258256Y-145132795D01*
X49069898Y-145054774D01*
X48869939Y-145015000D01*
X48666061Y-145015000D01*
X48505333Y-145046970D01*
X48493226Y-144986102D01*
X48415205Y-144797744D01*
X48301937Y-144628226D01*
X48157774Y-144484063D01*
X47988256Y-144370795D01*
X47799898Y-144292774D01*
X47599939Y-144253000D01*
X47396061Y-144253000D01*
X47196102Y-144292774D01*
X47007744Y-144370795D01*
X46838226Y-144484063D01*
X46694063Y-144628226D01*
X46580795Y-144797744D01*
X46502774Y-144986102D01*
X46463000Y-145186061D01*
X42608079Y-145186061D01*
X42651226Y-145081898D01*
X42691000Y-144881939D01*
X42691000Y-144678061D01*
X42651226Y-144478102D01*
X42573205Y-144289744D01*
X42459937Y-144120226D01*
X42315774Y-143976063D01*
X42146256Y-143862795D01*
X41957898Y-143784774D01*
X41757939Y-143745000D01*
X41554061Y-143745000D01*
X41354102Y-143784774D01*
X41165744Y-143862795D01*
X40996226Y-143976063D01*
X40913000Y-144059289D01*
X40913000Y-143916061D01*
X40881030Y-143755333D01*
X40941898Y-143743226D01*
X41130256Y-143665205D01*
X41299774Y-143551937D01*
X41443937Y-143407774D01*
X41514352Y-143302391D01*
X41610309Y-143446001D01*
X41754472Y-143590164D01*
X41923990Y-143703432D01*
X42112348Y-143781453D01*
X42312307Y-143821227D01*
X42516185Y-143821227D01*
X42716144Y-143781453D01*
X42904502Y-143703432D01*
X43074020Y-143590164D01*
X43218183Y-143446001D01*
X43331451Y-143276483D01*
X43409472Y-143088125D01*
X43449246Y-142888166D01*
X43449246Y-142684288D01*
X43409472Y-142484329D01*
X43331451Y-142295971D01*
X43218183Y-142126453D01*
X43074020Y-141982290D01*
X42904502Y-141869022D01*
X42716144Y-141791001D01*
X42516185Y-141751227D01*
X42312307Y-141751227D01*
X42112348Y-141791001D01*
X41923990Y-141869022D01*
X41754472Y-141982290D01*
X41610309Y-142126453D01*
X41539894Y-142231836D01*
X41443937Y-142088226D01*
X41299774Y-141944063D01*
X41130256Y-141830795D01*
X40941898Y-141752774D01*
X40741939Y-141713000D01*
X40538061Y-141713000D01*
X40338102Y-141752774D01*
X40149744Y-141830795D01*
X39980226Y-141944063D01*
X39836063Y-142088226D01*
X39722795Y-142257744D01*
X39644774Y-142446102D01*
X39605000Y-142646061D01*
X39605000Y-142849939D01*
X39636970Y-143010667D01*
X39576102Y-143022774D01*
X39387744Y-143100795D01*
X39218226Y-143214063D01*
X39074063Y-143358226D01*
X38960795Y-143527744D01*
X38882774Y-143716102D01*
X38843000Y-143916061D01*
X-894228Y-143916061D01*
X-976226Y-143834063D01*
X-1145744Y-143720795D01*
X-1334102Y-143642774D01*
X-1534061Y-143603000D01*
X-1737939Y-143603000D01*
X-1937898Y-143642774D01*
X-2126256Y-143720795D01*
X-2295774Y-143834063D01*
X-2439937Y-143978226D01*
X-2553205Y-144147744D01*
X-2631226Y-144336102D01*
X-2671000Y-144536061D01*
X-6706000Y-144536061D01*
X-6706000Y-143154061D01*
X-5607000Y-143154061D01*
X-5607000Y-143357939D01*
X-5567226Y-143557898D01*
X-5489205Y-143746256D01*
X-5375937Y-143915774D01*
X-5231774Y-144059937D01*
X-5062256Y-144173205D01*
X-4873898Y-144251226D01*
X-4673939Y-144291000D01*
X-4470061Y-144291000D01*
X-4270102Y-144251226D01*
X-4081744Y-144173205D01*
X-3912226Y-144059937D01*
X-3768063Y-143915774D01*
X-3654795Y-143746256D01*
X-3576774Y-143557898D01*
X-3537000Y-143357939D01*
X-3537000Y-143154061D01*
X-3576774Y-142954102D01*
X-3654795Y-142765744D01*
X-3768063Y-142596226D01*
X-3912226Y-142452063D01*
X-4081744Y-142338795D01*
X-4270102Y-142260774D01*
X-4470061Y-142221000D01*
X-4673939Y-142221000D01*
X-4873898Y-142260774D01*
X-5062256Y-142338795D01*
X-5231774Y-142452063D01*
X-5375937Y-142596226D01*
X-5489205Y-142765744D01*
X-5567226Y-142954102D01*
X-5607000Y-143154061D01*
X-6706000Y-143154061D01*
X-6706000Y-140106061D01*
X9887000Y-140106061D01*
X9887000Y-140309939D01*
X9926774Y-140509898D01*
X10004795Y-140698256D01*
X10118063Y-140867774D01*
X10262226Y-141011937D01*
X10431744Y-141125205D01*
X10620102Y-141203226D01*
X10820061Y-141243000D01*
X11023939Y-141243000D01*
X11223898Y-141203226D01*
X11412256Y-141125205D01*
X11581774Y-141011937D01*
X11725937Y-140867774D01*
X11839205Y-140698256D01*
X11917226Y-140509898D01*
X11929333Y-140449030D01*
X12090061Y-140481000D01*
X12293939Y-140481000D01*
X12493898Y-140441226D01*
X12682256Y-140363205D01*
X12747237Y-140319786D01*
X12798795Y-140444256D01*
X12912063Y-140613774D01*
X13056226Y-140757937D01*
X13225744Y-140871205D01*
X13414102Y-140949226D01*
X13614061Y-140989000D01*
X13817939Y-140989000D01*
X14017898Y-140949226D01*
X14206256Y-140871205D01*
X14375774Y-140757937D01*
X14519937Y-140613774D01*
X14633205Y-140444256D01*
X14711226Y-140255898D01*
X14751000Y-140055939D01*
X14751000Y-139852061D01*
X14711226Y-139652102D01*
X14633205Y-139463744D01*
X14519937Y-139294226D01*
X14375774Y-139150063D01*
X14206256Y-139036795D01*
X14017898Y-138958774D01*
X13817939Y-138919000D01*
X13614061Y-138919000D01*
X13414102Y-138958774D01*
X13225744Y-139036795D01*
X13160763Y-139080214D01*
X13109205Y-138955744D01*
X12995937Y-138786226D01*
X12851774Y-138642063D01*
X12682256Y-138528795D01*
X12493898Y-138450774D01*
X12293939Y-138411000D01*
X12090061Y-138411000D01*
X11890102Y-138450774D01*
X11701744Y-138528795D01*
X11532226Y-138642063D01*
X11388063Y-138786226D01*
X11274795Y-138955744D01*
X11196774Y-139144102D01*
X11184667Y-139204970D01*
X11023939Y-139173000D01*
X10820061Y-139173000D01*
X10620102Y-139212774D01*
X10431744Y-139290795D01*
X10262226Y-139404063D01*
X10118063Y-139548226D01*
X10004795Y-139717744D01*
X9926774Y-139906102D01*
X9887000Y-140106061D01*
X-6706000Y-140106061D01*
X-6706000Y-135788061D01*
X-5353000Y-135788061D01*
X-5353000Y-135991939D01*
X-5313226Y-136191898D01*
X-5235205Y-136380256D01*
X-5121937Y-136549774D01*
X-4977774Y-136693937D01*
X-4808256Y-136807205D01*
X-4619898Y-136885226D01*
X-4419939Y-136925000D01*
X-4216061Y-136925000D01*
X-4016102Y-136885226D01*
X-3827744Y-136807205D01*
X-3658226Y-136693937D01*
X-3514350Y-136550061D01*
X997000Y-136550061D01*
X997000Y-136753939D01*
X1036774Y-136953898D01*
X1114795Y-137142256D01*
X1228063Y-137311774D01*
X1372226Y-137455937D01*
X1541744Y-137569205D01*
X1730102Y-137647226D01*
X1930061Y-137687000D01*
X2133939Y-137687000D01*
X2333898Y-137647226D01*
X2522256Y-137569205D01*
X2691774Y-137455937D01*
X2835937Y-137311774D01*
X2949205Y-137142256D01*
X3027226Y-136953898D01*
X3067000Y-136753939D01*
X3067000Y-136550061D01*
X3027226Y-136350102D01*
X2949205Y-136161744D01*
X2835937Y-135992226D01*
X2691774Y-135848063D01*
X2522256Y-135734795D01*
X2333898Y-135656774D01*
X2133939Y-135617000D01*
X1930061Y-135617000D01*
X1730102Y-135656774D01*
X1541744Y-135734795D01*
X1372226Y-135848063D01*
X1228063Y-135992226D01*
X1114795Y-136161744D01*
X1036774Y-136350102D01*
X997000Y-136550061D01*
X-3514350Y-136550061D01*
X-3514063Y-136549774D01*
X-3400795Y-136380256D01*
X-3322774Y-136191898D01*
X-3283000Y-135991939D01*
X-3283000Y-135788061D01*
X-3322774Y-135588102D01*
X-3400795Y-135399744D01*
X-3514063Y-135230226D01*
X-3658226Y-135086063D01*
X-3827744Y-134972795D01*
X-4016102Y-134894774D01*
X-4216061Y-134855000D01*
X-4419939Y-134855000D01*
X-4619898Y-134894774D01*
X-4808256Y-134972795D01*
X-4977774Y-135086063D01*
X-5121937Y-135230226D01*
X-5235205Y-135399744D01*
X-5313226Y-135588102D01*
X-5353000Y-135788061D01*
X-6706000Y-135788061D01*
X-6706000Y-132232061D01*
X-2305000Y-132232061D01*
X-2305000Y-132435939D01*
X-2265226Y-132635898D01*
X-2187205Y-132824256D01*
X-2073937Y-132993774D01*
X-1929774Y-133137937D01*
X-1760256Y-133251205D01*
X-1571898Y-133329226D01*
X-1371939Y-133369000D01*
X-1168061Y-133369000D01*
X-968102Y-133329226D01*
X-779744Y-133251205D01*
X-610226Y-133137937D01*
X-466063Y-132993774D01*
X-352795Y-132824256D01*
X-274774Y-132635898D01*
X-235000Y-132435939D01*
X-235000Y-132232061D01*
X-274774Y-132032102D01*
X-352795Y-131843744D01*
X-466063Y-131674226D01*
X-610226Y-131530063D01*
X-779744Y-131416795D01*
X-968102Y-131338774D01*
X-1168061Y-131299000D01*
X-1371939Y-131299000D01*
X-1571898Y-131338774D01*
X-1760256Y-131416795D01*
X-1929774Y-131530063D01*
X-2073937Y-131674226D01*
X-2187205Y-131843744D01*
X-2265226Y-132032102D01*
X-2305000Y-132232061D01*
X-6706000Y-132232061D01*
X-6706000Y-130454061D01*
X9887000Y-130454061D01*
X9887000Y-130657939D01*
X9926774Y-130857898D01*
X10004795Y-131046256D01*
X10118063Y-131215774D01*
X10262226Y-131359937D01*
X10431744Y-131473205D01*
X10620102Y-131551226D01*
X10820061Y-131591000D01*
X11023939Y-131591000D01*
X11223898Y-131551226D01*
X11412256Y-131473205D01*
X11581774Y-131359937D01*
X11725937Y-131215774D01*
X11839205Y-131046256D01*
X11917226Y-130857898D01*
X11957000Y-130657939D01*
X11957000Y-130454061D01*
X11917226Y-130254102D01*
X11839205Y-130065744D01*
X11725937Y-129896226D01*
X11581774Y-129752063D01*
X11412256Y-129638795D01*
X11223898Y-129560774D01*
X11023939Y-129521000D01*
X10820061Y-129521000D01*
X10620102Y-129560774D01*
X10431744Y-129638795D01*
X10262226Y-129752063D01*
X10118063Y-129896226D01*
X10004795Y-130065744D01*
X9926774Y-130254102D01*
X9887000Y-130454061D01*
X-6706000Y-130454061D01*
X-6706000Y-121493198D01*
X-62358Y-121493198D01*
X-62358Y-121697076D01*
X-22584Y-121897035D01*
X55437Y-122085393D01*
X168705Y-122254911D01*
X312868Y-122399074D01*
X482386Y-122512342D01*
X670744Y-122590363D01*
X870703Y-122630137D01*
X973283Y-122630137D01*
X1044771Y-122737127D01*
X1188934Y-122881290D01*
X1358452Y-122994558D01*
X1546810Y-123072579D01*
X1658989Y-123094893D01*
X1658990Y-123519907D01*
X1603734Y-123542795D01*
X1434216Y-123656063D01*
X1290053Y-123800226D01*
X1176785Y-123969744D01*
X1098764Y-124158102D01*
X1058990Y-124358061D01*
X1058990Y-124561939D01*
X1098764Y-124761898D01*
X1176785Y-124950256D01*
X1290053Y-125119774D01*
X1434216Y-125263937D01*
X1603734Y-125377205D01*
X1792092Y-125455226D01*
X1992051Y-125495000D01*
X2059001Y-125495000D01*
X2059001Y-125763288D01*
X1990063Y-125832226D01*
X1876795Y-126001744D01*
X1798774Y-126190102D01*
X1759000Y-126390061D01*
X1759000Y-126593939D01*
X1798774Y-126793898D01*
X1876795Y-126982256D01*
X1990063Y-127151774D01*
X2134226Y-127295937D01*
X2303744Y-127409205D01*
X2492102Y-127487226D01*
X2692061Y-127527000D01*
X2895939Y-127527000D01*
X3095898Y-127487226D01*
X3284256Y-127409205D01*
X3453774Y-127295937D01*
X3597937Y-127151774D01*
X3632540Y-127099987D01*
X4026746Y-127494193D01*
X4049762Y-127522238D01*
X4161680Y-127614087D01*
X4289367Y-127682337D01*
X4302658Y-127686369D01*
X4420226Y-127803937D01*
X4589744Y-127917205D01*
X4778102Y-127995226D01*
X4978061Y-128035000D01*
X5181939Y-128035000D01*
X5381898Y-127995226D01*
X5570256Y-127917205D01*
X5739774Y-127803937D01*
X5883937Y-127659774D01*
X5997205Y-127490256D01*
X6075226Y-127301898D01*
X6115000Y-127101939D01*
X6115000Y-126898061D01*
X6075226Y-126698102D01*
X5997205Y-126509744D01*
X5883937Y-126340226D01*
X5739774Y-126196063D01*
X5667779Y-126147957D01*
X5750482Y-126139812D01*
X5870180Y-126103502D01*
X5980494Y-126044537D01*
X6077185Y-125965185D01*
X6156537Y-125868494D01*
X6215502Y-125758180D01*
X6251812Y-125638482D01*
X6252643Y-125630039D01*
X6451241Y-125828637D01*
X6686273Y-125985680D01*
X6947426Y-126093853D01*
X7224665Y-126149000D01*
X7507335Y-126149000D01*
X7784574Y-126093853D01*
X8045727Y-125985680D01*
X8280759Y-125828637D01*
X8480637Y-125628759D01*
X8636000Y-125396241D01*
X8791363Y-125628759D01*
X8991241Y-125828637D01*
X9226273Y-125985680D01*
X9487426Y-126093853D01*
X9764665Y-126149000D01*
X10047335Y-126149000D01*
X10324574Y-126093853D01*
X10585727Y-125985680D01*
X10820759Y-125828637D01*
X11020637Y-125628759D01*
X11176000Y-125396241D01*
X11331363Y-125628759D01*
X11531241Y-125828637D01*
X11766273Y-125985680D01*
X12027426Y-126093853D01*
X12304665Y-126149000D01*
X12587335Y-126149000D01*
X12864574Y-126093853D01*
X13125727Y-125985680D01*
X13360759Y-125828637D01*
X13560637Y-125628759D01*
X13716000Y-125396241D01*
X13871363Y-125628759D01*
X14071241Y-125828637D01*
X14251000Y-125948748D01*
X14251001Y-134081908D01*
X14247444Y-134118023D01*
X14261635Y-134262108D01*
X14300753Y-134391061D01*
X14303664Y-134400656D01*
X14371914Y-134528343D01*
X14463763Y-134640261D01*
X14491808Y-134663277D01*
X18743986Y-138915456D01*
X18624113Y-138939300D01*
X18435755Y-139017321D01*
X18266237Y-139130589D01*
X18216269Y-139180558D01*
X18185774Y-139150063D01*
X18016256Y-139036795D01*
X17827898Y-138958774D01*
X17627939Y-138919000D01*
X17424061Y-138919000D01*
X17224102Y-138958774D01*
X17035744Y-139036795D01*
X16866226Y-139150063D01*
X16722063Y-139294226D01*
X16608795Y-139463744D01*
X16530774Y-139652102D01*
X16491000Y-139852061D01*
X16491000Y-140055939D01*
X16530774Y-140255898D01*
X16608795Y-140444256D01*
X16722063Y-140613774D01*
X16866226Y-140757937D01*
X17035744Y-140871205D01*
X17224102Y-140949226D01*
X17424061Y-140989000D01*
X17627939Y-140989000D01*
X17827898Y-140949226D01*
X18016256Y-140871205D01*
X18185774Y-140757937D01*
X18235743Y-140707969D01*
X18266237Y-140738463D01*
X18435755Y-140851731D01*
X18624113Y-140929752D01*
X18824072Y-140969526D01*
X19027950Y-140969526D01*
X19227909Y-140929752D01*
X19416267Y-140851731D01*
X19585785Y-140738463D01*
X19729948Y-140594300D01*
X19843216Y-140424782D01*
X19921237Y-140236424D01*
X19945081Y-140116551D01*
X20040977Y-140212447D01*
X20040977Y-140309939D01*
X20080751Y-140509898D01*
X20158772Y-140698256D01*
X20272040Y-140867774D01*
X20416203Y-141011937D01*
X20585721Y-141125205D01*
X20774079Y-141203226D01*
X20974038Y-141243000D01*
X21177916Y-141243000D01*
X21377875Y-141203226D01*
X21566233Y-141125205D01*
X21649141Y-141069808D01*
X21672052Y-141104097D01*
X21816215Y-141248260D01*
X21985733Y-141361528D01*
X22174091Y-141439549D01*
X22374050Y-141479323D01*
X22577928Y-141479323D01*
X22777887Y-141439549D01*
X22966245Y-141361528D01*
X23135763Y-141248260D01*
X23279926Y-141104097D01*
X23302837Y-141069808D01*
X23385744Y-141125205D01*
X23574102Y-141203226D01*
X23774061Y-141243000D01*
X23977939Y-141243000D01*
X24177898Y-141203226D01*
X24366256Y-141125205D01*
X24535774Y-141011937D01*
X24679937Y-140867774D01*
X24793205Y-140698256D01*
X24871226Y-140509898D01*
X24883333Y-140449030D01*
X25044061Y-140481000D01*
X25247939Y-140481000D01*
X25447898Y-140441226D01*
X25636256Y-140363205D01*
X25805774Y-140249937D01*
X25874711Y-140181000D01*
X26125895Y-140181000D01*
X26162000Y-140184556D01*
X26198105Y-140181000D01*
X26306085Y-140170365D01*
X26444633Y-140128337D01*
X26572320Y-140060087D01*
X26684238Y-139968238D01*
X26707259Y-139940187D01*
X27303385Y-139344061D01*
X37319000Y-139344061D01*
X37319000Y-139547939D01*
X37358774Y-139747898D01*
X37436795Y-139936256D01*
X37550063Y-140105774D01*
X37694226Y-140249937D01*
X37863744Y-140363205D01*
X38052102Y-140441226D01*
X38252061Y-140481000D01*
X38455939Y-140481000D01*
X38655898Y-140441226D01*
X38844256Y-140363205D01*
X39013774Y-140249937D01*
X39157937Y-140105774D01*
X39271205Y-139936256D01*
X39349226Y-139747898D01*
X39389000Y-139547939D01*
X39389000Y-139344061D01*
X39349226Y-139144102D01*
X39271205Y-138955744D01*
X39191236Y-138836061D01*
X40113000Y-138836061D01*
X40113000Y-139039939D01*
X40152774Y-139239898D01*
X40230795Y-139428256D01*
X40344063Y-139597774D01*
X40488226Y-139741937D01*
X40657744Y-139855205D01*
X40846102Y-139933226D01*
X41046061Y-139973000D01*
X41249939Y-139973000D01*
X41449898Y-139933226D01*
X41638256Y-139855205D01*
X41807774Y-139741937D01*
X41951937Y-139597774D01*
X42065205Y-139428256D01*
X42067995Y-139421520D01*
X42070785Y-139428256D01*
X42184053Y-139597774D01*
X42328216Y-139741937D01*
X42497734Y-139855205D01*
X42686092Y-139933226D01*
X42886051Y-139973000D01*
X43089929Y-139973000D01*
X43289888Y-139933226D01*
X43478246Y-139855205D01*
X43647764Y-139741937D01*
X43791927Y-139597774D01*
X43905195Y-139428256D01*
X43983216Y-139239898D01*
X44022990Y-139039939D01*
X44022990Y-138836061D01*
X43983216Y-138636102D01*
X43905195Y-138447744D01*
X43791927Y-138278226D01*
X43647764Y-138134063D01*
X43478246Y-138020795D01*
X43289888Y-137942774D01*
X43089929Y-137903000D01*
X42886051Y-137903000D01*
X42686092Y-137942774D01*
X42497734Y-138020795D01*
X42328216Y-138134063D01*
X42184053Y-138278226D01*
X42070785Y-138447744D01*
X42067995Y-138454480D01*
X42065205Y-138447744D01*
X41951937Y-138278226D01*
X41807774Y-138134063D01*
X41638256Y-138020795D01*
X41449898Y-137942774D01*
X41249939Y-137903000D01*
X41046061Y-137903000D01*
X40846102Y-137942774D01*
X40657744Y-138020795D01*
X40488226Y-138134063D01*
X40344063Y-138278226D01*
X40230795Y-138447744D01*
X40152774Y-138636102D01*
X40113000Y-138836061D01*
X39191236Y-138836061D01*
X39157937Y-138786226D01*
X39013774Y-138642063D01*
X38844256Y-138528795D01*
X38655898Y-138450774D01*
X38455939Y-138411000D01*
X38252061Y-138411000D01*
X38052102Y-138450774D01*
X37863744Y-138528795D01*
X37694226Y-138642063D01*
X37550063Y-138786226D01*
X37436795Y-138955744D01*
X37358774Y-139144102D01*
X37319000Y-139344061D01*
X27303385Y-139344061D01*
X37070193Y-129577254D01*
X37098238Y-129554238D01*
X37190087Y-129442320D01*
X37258337Y-129314633D01*
X37300365Y-129176085D01*
X37301968Y-129159806D01*
X37314556Y-129032001D01*
X37311000Y-128995896D01*
X37311000Y-126040710D01*
X37362913Y-126065246D01*
X37496961Y-126105904D01*
X37719000Y-125983915D01*
X37719000Y-124841000D01*
X37973000Y-124841000D01*
X37973000Y-125983915D01*
X38195039Y-126105904D01*
X38329087Y-126065246D01*
X38583420Y-125945037D01*
X38809414Y-125777519D01*
X38998385Y-125569131D01*
X39143070Y-125327881D01*
X39217489Y-125120061D01*
X44685000Y-125120061D01*
X44685000Y-125323939D01*
X44724774Y-125523898D01*
X44802795Y-125712256D01*
X44916063Y-125881774D01*
X45060226Y-126025937D01*
X45229744Y-126139205D01*
X45418102Y-126217226D01*
X45618061Y-126257000D01*
X45821939Y-126257000D01*
X46021898Y-126217226D01*
X46210256Y-126139205D01*
X46379774Y-126025937D01*
X46523937Y-125881774D01*
X46637205Y-125712256D01*
X46715226Y-125523898D01*
X46755000Y-125323939D01*
X46755000Y-125120061D01*
X47225000Y-125120061D01*
X47225000Y-125323939D01*
X47264774Y-125523898D01*
X47342795Y-125712256D01*
X47456063Y-125881774D01*
X47600226Y-126025937D01*
X47769744Y-126139205D01*
X47958102Y-126217226D01*
X48158061Y-126257000D01*
X48361939Y-126257000D01*
X48561898Y-126217226D01*
X48750256Y-126139205D01*
X48919774Y-126025937D01*
X49063937Y-125881774D01*
X49177205Y-125712256D01*
X49255226Y-125523898D01*
X49295000Y-125323939D01*
X49295000Y-125120061D01*
X49765000Y-125120061D01*
X49765000Y-125323939D01*
X49804774Y-125523898D01*
X49882795Y-125712256D01*
X49996063Y-125881774D01*
X50140226Y-126025937D01*
X50309744Y-126139205D01*
X50498102Y-126217226D01*
X50698061Y-126257000D01*
X50901939Y-126257000D01*
X51101898Y-126217226D01*
X51290256Y-126139205D01*
X51459774Y-126025937D01*
X51603937Y-125881774D01*
X51717205Y-125712256D01*
X51795226Y-125523898D01*
X51835000Y-125323939D01*
X51835000Y-125120061D01*
X52305000Y-125120061D01*
X52305000Y-125323939D01*
X52344774Y-125523898D01*
X52422795Y-125712256D01*
X52536063Y-125881774D01*
X52680226Y-126025937D01*
X52849744Y-126139205D01*
X53038102Y-126217226D01*
X53238061Y-126257000D01*
X53441939Y-126257000D01*
X53641898Y-126217226D01*
X53830256Y-126139205D01*
X53999774Y-126025937D01*
X54143937Y-125881774D01*
X54257205Y-125712256D01*
X54335226Y-125523898D01*
X54375000Y-125323939D01*
X54375000Y-125120061D01*
X54845000Y-125120061D01*
X54845000Y-125323939D01*
X54884774Y-125523898D01*
X54962795Y-125712256D01*
X55076063Y-125881774D01*
X55220226Y-126025937D01*
X55389744Y-126139205D01*
X55578102Y-126217226D01*
X55778061Y-126257000D01*
X55981939Y-126257000D01*
X56181898Y-126217226D01*
X56370256Y-126139205D01*
X56539774Y-126025937D01*
X56683937Y-125881774D01*
X56797205Y-125712256D01*
X56875226Y-125523898D01*
X56915000Y-125323939D01*
X56915000Y-125120061D01*
X57385000Y-125120061D01*
X57385000Y-125323939D01*
X57424774Y-125523898D01*
X57502795Y-125712256D01*
X57616063Y-125881774D01*
X57760226Y-126025937D01*
X57929744Y-126139205D01*
X58118102Y-126217226D01*
X58318061Y-126257000D01*
X58521939Y-126257000D01*
X58721898Y-126217226D01*
X58910256Y-126139205D01*
X59079774Y-126025937D01*
X59223937Y-125881774D01*
X59337205Y-125712256D01*
X59415226Y-125523898D01*
X59455000Y-125323939D01*
X59455000Y-125120061D01*
X59925000Y-125120061D01*
X59925000Y-125323939D01*
X59964774Y-125523898D01*
X60042795Y-125712256D01*
X60156063Y-125881774D01*
X60300226Y-126025937D01*
X60469744Y-126139205D01*
X60658102Y-126217226D01*
X60858061Y-126257000D01*
X61061939Y-126257000D01*
X61261898Y-126217226D01*
X61450256Y-126139205D01*
X61619774Y-126025937D01*
X61763937Y-125881774D01*
X61877205Y-125712256D01*
X61955226Y-125523898D01*
X61995000Y-125323939D01*
X61995000Y-125120061D01*
X62465000Y-125120061D01*
X62465000Y-125323939D01*
X62504774Y-125523898D01*
X62582795Y-125712256D01*
X62696063Y-125881774D01*
X62840226Y-126025937D01*
X63009744Y-126139205D01*
X63198102Y-126217226D01*
X63398061Y-126257000D01*
X63601939Y-126257000D01*
X63801898Y-126217226D01*
X63990256Y-126139205D01*
X64159774Y-126025937D01*
X64303937Y-125881774D01*
X64417205Y-125712256D01*
X64495226Y-125523898D01*
X64535000Y-125323939D01*
X64535000Y-125120061D01*
X64495226Y-124920102D01*
X64417205Y-124731744D01*
X64303937Y-124562226D01*
X64159774Y-124418063D01*
X63990256Y-124304795D01*
X63801898Y-124226774D01*
X63601939Y-124187000D01*
X63398061Y-124187000D01*
X63198102Y-124226774D01*
X63009744Y-124304795D01*
X62840226Y-124418063D01*
X62696063Y-124562226D01*
X62582795Y-124731744D01*
X62504774Y-124920102D01*
X62465000Y-125120061D01*
X61995000Y-125120061D01*
X61955226Y-124920102D01*
X61877205Y-124731744D01*
X61763937Y-124562226D01*
X61619774Y-124418063D01*
X61450256Y-124304795D01*
X61261898Y-124226774D01*
X61061939Y-124187000D01*
X60858061Y-124187000D01*
X60658102Y-124226774D01*
X60469744Y-124304795D01*
X60300226Y-124418063D01*
X60156063Y-124562226D01*
X60042795Y-124731744D01*
X59964774Y-124920102D01*
X59925000Y-125120061D01*
X59455000Y-125120061D01*
X59415226Y-124920102D01*
X59337205Y-124731744D01*
X59223937Y-124562226D01*
X59079774Y-124418063D01*
X58910256Y-124304795D01*
X58721898Y-124226774D01*
X58521939Y-124187000D01*
X58318061Y-124187000D01*
X58118102Y-124226774D01*
X57929744Y-124304795D01*
X57760226Y-124418063D01*
X57616063Y-124562226D01*
X57502795Y-124731744D01*
X57424774Y-124920102D01*
X57385000Y-125120061D01*
X56915000Y-125120061D01*
X56875226Y-124920102D01*
X56797205Y-124731744D01*
X56683937Y-124562226D01*
X56539774Y-124418063D01*
X56370256Y-124304795D01*
X56181898Y-124226774D01*
X55981939Y-124187000D01*
X55778061Y-124187000D01*
X55578102Y-124226774D01*
X55389744Y-124304795D01*
X55220226Y-124418063D01*
X55076063Y-124562226D01*
X54962795Y-124731744D01*
X54884774Y-124920102D01*
X54845000Y-125120061D01*
X54375000Y-125120061D01*
X54335226Y-124920102D01*
X54257205Y-124731744D01*
X54143937Y-124562226D01*
X53999774Y-124418063D01*
X53830256Y-124304795D01*
X53641898Y-124226774D01*
X53441939Y-124187000D01*
X53238061Y-124187000D01*
X53038102Y-124226774D01*
X52849744Y-124304795D01*
X52680226Y-124418063D01*
X52536063Y-124562226D01*
X52422795Y-124731744D01*
X52344774Y-124920102D01*
X52305000Y-125120061D01*
X51835000Y-125120061D01*
X51795226Y-124920102D01*
X51717205Y-124731744D01*
X51603937Y-124562226D01*
X51459774Y-124418063D01*
X51290256Y-124304795D01*
X51101898Y-124226774D01*
X50901939Y-124187000D01*
X50698061Y-124187000D01*
X50498102Y-124226774D01*
X50309744Y-124304795D01*
X50140226Y-124418063D01*
X49996063Y-124562226D01*
X49882795Y-124731744D01*
X49804774Y-124920102D01*
X49765000Y-125120061D01*
X49295000Y-125120061D01*
X49255226Y-124920102D01*
X49177205Y-124731744D01*
X49063937Y-124562226D01*
X48919774Y-124418063D01*
X48750256Y-124304795D01*
X48561898Y-124226774D01*
X48361939Y-124187000D01*
X48158061Y-124187000D01*
X47958102Y-124226774D01*
X47769744Y-124304795D01*
X47600226Y-124418063D01*
X47456063Y-124562226D01*
X47342795Y-124731744D01*
X47264774Y-124920102D01*
X47225000Y-125120061D01*
X46755000Y-125120061D01*
X46715226Y-124920102D01*
X46637205Y-124731744D01*
X46523937Y-124562226D01*
X46379774Y-124418063D01*
X46210256Y-124304795D01*
X46021898Y-124226774D01*
X45821939Y-124187000D01*
X45618061Y-124187000D01*
X45418102Y-124226774D01*
X45229744Y-124304795D01*
X45060226Y-124418063D01*
X44916063Y-124562226D01*
X44802795Y-124731744D01*
X44724774Y-124920102D01*
X44685000Y-125120061D01*
X39217489Y-125120061D01*
X39237909Y-125063040D01*
X39116624Y-124841000D01*
X37973000Y-124841000D01*
X37719000Y-124841000D01*
X37699000Y-124841000D01*
X37699000Y-124587000D01*
X37719000Y-124587000D01*
X37719000Y-123444085D01*
X37973000Y-123444085D01*
X37973000Y-124587000D01*
X39116624Y-124587000D01*
X39237909Y-124364960D01*
X39143070Y-124100119D01*
X38998385Y-123858869D01*
X38809414Y-123650481D01*
X38583420Y-123482963D01*
X38329087Y-123362754D01*
X38195039Y-123322096D01*
X37973000Y-123444085D01*
X37719000Y-123444085D01*
X37496961Y-123322096D01*
X37362913Y-123362754D01*
X37108580Y-123482963D01*
X36898290Y-123638841D01*
X31764261Y-118504813D01*
X31741240Y-118476762D01*
X31629322Y-118384913D01*
X31501635Y-118316663D01*
X31363087Y-118274635D01*
X31255107Y-118264000D01*
X31219002Y-118260444D01*
X31182897Y-118264000D01*
X16603711Y-118264000D01*
X16534774Y-118195063D01*
X16365256Y-118081795D01*
X16176898Y-118003774D01*
X15976939Y-117964000D01*
X15773061Y-117964000D01*
X15573102Y-118003774D01*
X15384744Y-118081795D01*
X15215226Y-118195063D01*
X15071063Y-118339226D01*
X14957795Y-118508744D01*
X14879774Y-118697102D01*
X14840000Y-118897061D01*
X14840000Y-119100939D01*
X14879774Y-119300898D01*
X14957795Y-119489256D01*
X15071063Y-119658774D01*
X15215226Y-119802937D01*
X15382941Y-119915000D01*
X4296394Y-119915000D01*
X4260299Y-119911445D01*
X4224204Y-119915000D01*
X4224195Y-119915000D01*
X4116215Y-119925635D01*
X3977667Y-119967663D01*
X3849980Y-120035913D01*
X3738062Y-120127762D01*
X3715046Y-120155807D01*
X2552960Y-121317894D01*
X2508482Y-121273416D01*
X2338964Y-121160148D01*
X2150606Y-121082127D01*
X1950647Y-121042353D01*
X1848067Y-121042353D01*
X1776579Y-120935363D01*
X1632416Y-120791200D01*
X1462898Y-120677932D01*
X1274540Y-120599911D01*
X1074581Y-120560137D01*
X870703Y-120560137D01*
X670744Y-120599911D01*
X482386Y-120677932D01*
X312868Y-120791200D01*
X168705Y-120935363D01*
X55437Y-121104881D01*
X-22584Y-121293239D01*
X-62358Y-121493198D01*
X-6706000Y-121493198D01*
X-6706000Y-117582061D01*
X-5271000Y-117582061D01*
X-5271000Y-117785939D01*
X-5231226Y-117985898D01*
X-5153205Y-118174256D01*
X-5039937Y-118343774D01*
X-4895774Y-118487937D01*
X-4726256Y-118601205D01*
X-4537898Y-118679226D01*
X-4337939Y-118719000D01*
X-4134061Y-118719000D01*
X-3934102Y-118679226D01*
X-3745744Y-118601205D01*
X-3576226Y-118487937D01*
X-3432063Y-118343774D01*
X-3318795Y-118174256D01*
X-3240774Y-117985898D01*
X-3201000Y-117785939D01*
X-3201000Y-117582061D01*
X-3240774Y-117382102D01*
X-3318795Y-117193744D01*
X-3432063Y-117024226D01*
X-3576226Y-116880063D01*
X-3745744Y-116766795D01*
X-3934102Y-116688774D01*
X-4134061Y-116649000D01*
X-4337939Y-116649000D01*
X-4537898Y-116688774D01*
X-4726256Y-116766795D01*
X-4895774Y-116880063D01*
X-5039937Y-117024226D01*
X-5153205Y-117193744D01*
X-5231226Y-117382102D01*
X-5271000Y-117582061D01*
X-6706000Y-117582061D01*
X-6706000Y-109332665D01*
X3391000Y-109332665D01*
X3391000Y-109615335D01*
X3446147Y-109892574D01*
X3554320Y-110153727D01*
X3711363Y-110388759D01*
X3911241Y-110588637D01*
X4146273Y-110745680D01*
X4407426Y-110853853D01*
X4684665Y-110909000D01*
X4967335Y-110909000D01*
X5244574Y-110853853D01*
X5505727Y-110745680D01*
X5740759Y-110588637D01*
X5940637Y-110388759D01*
X6096000Y-110156241D01*
X6251363Y-110388759D01*
X6451241Y-110588637D01*
X6686273Y-110745680D01*
X6947426Y-110853853D01*
X7224665Y-110909000D01*
X7507335Y-110909000D01*
X7784574Y-110853853D01*
X8045727Y-110745680D01*
X8280759Y-110588637D01*
X8480637Y-110388759D01*
X8636000Y-110156241D01*
X8791363Y-110388759D01*
X8991241Y-110588637D01*
X9226273Y-110745680D01*
X9487426Y-110853853D01*
X9764665Y-110909000D01*
X10047335Y-110909000D01*
X10324574Y-110853853D01*
X10585727Y-110745680D01*
X10820759Y-110588637D01*
X11020637Y-110388759D01*
X11176000Y-110156241D01*
X11331363Y-110388759D01*
X11531241Y-110588637D01*
X11766273Y-110745680D01*
X12027426Y-110853853D01*
X12304665Y-110909000D01*
X12587335Y-110909000D01*
X12864574Y-110853853D01*
X13125727Y-110745680D01*
X13360759Y-110588637D01*
X13560637Y-110388759D01*
X13716000Y-110156241D01*
X13871363Y-110388759D01*
X14071241Y-110588637D01*
X14306273Y-110745680D01*
X14567426Y-110853853D01*
X14844665Y-110909000D01*
X15127335Y-110909000D01*
X15404574Y-110853853D01*
X15665727Y-110745680D01*
X15900759Y-110588637D01*
X16100637Y-110388759D01*
X16256000Y-110156241D01*
X16411363Y-110388759D01*
X16611241Y-110588637D01*
X16846273Y-110745680D01*
X17107426Y-110853853D01*
X17384665Y-110909000D01*
X17667335Y-110909000D01*
X17944574Y-110853853D01*
X18205727Y-110745680D01*
X18440759Y-110588637D01*
X18640637Y-110388759D01*
X18796000Y-110156241D01*
X18951363Y-110388759D01*
X19151241Y-110588637D01*
X19386273Y-110745680D01*
X19647426Y-110853853D01*
X19924665Y-110909000D01*
X20207335Y-110909000D01*
X20484574Y-110853853D01*
X20745727Y-110745680D01*
X20980759Y-110588637D01*
X21180637Y-110388759D01*
X21336000Y-110156241D01*
X21491363Y-110388759D01*
X21691241Y-110588637D01*
X21926273Y-110745680D01*
X22187426Y-110853853D01*
X22464665Y-110909000D01*
X22747335Y-110909000D01*
X23024574Y-110853853D01*
X23285727Y-110745680D01*
X23520759Y-110588637D01*
X23720637Y-110388759D01*
X23876000Y-110156241D01*
X24031363Y-110388759D01*
X24231241Y-110588637D01*
X24466273Y-110745680D01*
X24727426Y-110853853D01*
X25004665Y-110909000D01*
X25287335Y-110909000D01*
X25564574Y-110853853D01*
X25825727Y-110745680D01*
X26060759Y-110588637D01*
X26260637Y-110388759D01*
X26416000Y-110156241D01*
X26571363Y-110388759D01*
X26771241Y-110588637D01*
X27006273Y-110745680D01*
X27267426Y-110853853D01*
X27544665Y-110909000D01*
X27827335Y-110909000D01*
X28104574Y-110853853D01*
X28365727Y-110745680D01*
X28600759Y-110588637D01*
X28800637Y-110388759D01*
X28956000Y-110156241D01*
X29111363Y-110388759D01*
X29311241Y-110588637D01*
X29546273Y-110745680D01*
X29807426Y-110853853D01*
X30084665Y-110909000D01*
X30367335Y-110909000D01*
X30644574Y-110853853D01*
X30905727Y-110745680D01*
X31140759Y-110588637D01*
X31340637Y-110388759D01*
X31496000Y-110156241D01*
X31651363Y-110388759D01*
X31851241Y-110588637D01*
X32086273Y-110745680D01*
X32347426Y-110853853D01*
X32624665Y-110909000D01*
X32907335Y-110909000D01*
X33184574Y-110853853D01*
X33445727Y-110745680D01*
X33680759Y-110588637D01*
X33880637Y-110388759D01*
X34036000Y-110156241D01*
X34191363Y-110388759D01*
X34391241Y-110588637D01*
X34626273Y-110745680D01*
X34887426Y-110853853D01*
X35164665Y-110909000D01*
X35447335Y-110909000D01*
X35724574Y-110853853D01*
X35985727Y-110745680D01*
X36220759Y-110588637D01*
X36420637Y-110388759D01*
X36576000Y-110156241D01*
X36731363Y-110388759D01*
X36931241Y-110588637D01*
X37166273Y-110745680D01*
X37427426Y-110853853D01*
X37704665Y-110909000D01*
X37987335Y-110909000D01*
X38264574Y-110853853D01*
X38525727Y-110745680D01*
X38760759Y-110588637D01*
X38960637Y-110388759D01*
X39117680Y-110153727D01*
X39225853Y-109892574D01*
X39281000Y-109615335D01*
X39281000Y-109332665D01*
X39225853Y-109055426D01*
X39117680Y-108794273D01*
X38960637Y-108559241D01*
X38760759Y-108359363D01*
X38525727Y-108202320D01*
X38264574Y-108094147D01*
X37987335Y-108039000D01*
X37704665Y-108039000D01*
X37427426Y-108094147D01*
X37166273Y-108202320D01*
X36931241Y-108359363D01*
X36731363Y-108559241D01*
X36576000Y-108791759D01*
X36420637Y-108559241D01*
X36220759Y-108359363D01*
X35985727Y-108202320D01*
X35724574Y-108094147D01*
X35447335Y-108039000D01*
X35164665Y-108039000D01*
X34887426Y-108094147D01*
X34626273Y-108202320D01*
X34391241Y-108359363D01*
X34191363Y-108559241D01*
X34036000Y-108791759D01*
X33880637Y-108559241D01*
X33680759Y-108359363D01*
X33445727Y-108202320D01*
X33184574Y-108094147D01*
X32907335Y-108039000D01*
X32624665Y-108039000D01*
X32347426Y-108094147D01*
X32086273Y-108202320D01*
X31851241Y-108359363D01*
X31651363Y-108559241D01*
X31496000Y-108791759D01*
X31340637Y-108559241D01*
X31140759Y-108359363D01*
X30905727Y-108202320D01*
X30644574Y-108094147D01*
X30367335Y-108039000D01*
X30084665Y-108039000D01*
X29807426Y-108094147D01*
X29546273Y-108202320D01*
X29311241Y-108359363D01*
X29111363Y-108559241D01*
X28956000Y-108791759D01*
X28800637Y-108559241D01*
X28600759Y-108359363D01*
X28365727Y-108202320D01*
X28104574Y-108094147D01*
X27827335Y-108039000D01*
X27544665Y-108039000D01*
X27267426Y-108094147D01*
X27006273Y-108202320D01*
X26771241Y-108359363D01*
X26571363Y-108559241D01*
X26416000Y-108791759D01*
X26260637Y-108559241D01*
X26060759Y-108359363D01*
X25825727Y-108202320D01*
X25564574Y-108094147D01*
X25287335Y-108039000D01*
X25004665Y-108039000D01*
X24727426Y-108094147D01*
X24466273Y-108202320D01*
X24231241Y-108359363D01*
X24031363Y-108559241D01*
X23876000Y-108791759D01*
X23720637Y-108559241D01*
X23520759Y-108359363D01*
X23285727Y-108202320D01*
X23024574Y-108094147D01*
X22747335Y-108039000D01*
X22464665Y-108039000D01*
X22187426Y-108094147D01*
X21926273Y-108202320D01*
X21691241Y-108359363D01*
X21491363Y-108559241D01*
X21336000Y-108791759D01*
X21180637Y-108559241D01*
X20980759Y-108359363D01*
X20745727Y-108202320D01*
X20484574Y-108094147D01*
X20207335Y-108039000D01*
X19924665Y-108039000D01*
X19647426Y-108094147D01*
X19386273Y-108202320D01*
X19151241Y-108359363D01*
X18951363Y-108559241D01*
X18796000Y-108791759D01*
X18640637Y-108559241D01*
X18440759Y-108359363D01*
X18205727Y-108202320D01*
X17944574Y-108094147D01*
X17667335Y-108039000D01*
X17384665Y-108039000D01*
X17107426Y-108094147D01*
X16846273Y-108202320D01*
X16611241Y-108359363D01*
X16411363Y-108559241D01*
X16256000Y-108791759D01*
X16100637Y-108559241D01*
X15900759Y-108359363D01*
X15665727Y-108202320D01*
X15404574Y-108094147D01*
X15127335Y-108039000D01*
X14844665Y-108039000D01*
X14567426Y-108094147D01*
X14306273Y-108202320D01*
X14071241Y-108359363D01*
X13871363Y-108559241D01*
X13716000Y-108791759D01*
X13560637Y-108559241D01*
X13360759Y-108359363D01*
X13125727Y-108202320D01*
X12864574Y-108094147D01*
X12587335Y-108039000D01*
X12304665Y-108039000D01*
X12027426Y-108094147D01*
X11766273Y-108202320D01*
X11531241Y-108359363D01*
X11331363Y-108559241D01*
X11176000Y-108791759D01*
X11020637Y-108559241D01*
X10820759Y-108359363D01*
X10585727Y-108202320D01*
X10324574Y-108094147D01*
X10047335Y-108039000D01*
X9764665Y-108039000D01*
X9487426Y-108094147D01*
X9226273Y-108202320D01*
X8991241Y-108359363D01*
X8791363Y-108559241D01*
X8636000Y-108791759D01*
X8480637Y-108559241D01*
X8280759Y-108359363D01*
X8045727Y-108202320D01*
X7784574Y-108094147D01*
X7507335Y-108039000D01*
X7224665Y-108039000D01*
X6947426Y-108094147D01*
X6686273Y-108202320D01*
X6451241Y-108359363D01*
X6251363Y-108559241D01*
X6096000Y-108791759D01*
X5940637Y-108559241D01*
X5740759Y-108359363D01*
X5505727Y-108202320D01*
X5244574Y-108094147D01*
X4967335Y-108039000D01*
X4684665Y-108039000D01*
X4407426Y-108094147D01*
X4146273Y-108202320D01*
X3911241Y-108359363D01*
X3711363Y-108559241D01*
X3554320Y-108794273D01*
X3446147Y-109055426D01*
X3391000Y-109332665D01*
X-6706000Y-109332665D01*
X-6706000Y-101707740D01*
X3595000Y-101707740D01*
X3595000Y-102000260D01*
X3652068Y-102287158D01*
X3764010Y-102557411D01*
X3926525Y-102800632D01*
X4133368Y-103007475D01*
X4376589Y-103169990D01*
X4646842Y-103281932D01*
X4933740Y-103339000D01*
X5226260Y-103339000D01*
X5513158Y-103281932D01*
X5783411Y-103169990D01*
X6026632Y-103007475D01*
X6233475Y-102800632D01*
X6350000Y-102626240D01*
X6466525Y-102800632D01*
X6673368Y-103007475D01*
X6916589Y-103169990D01*
X7186842Y-103281932D01*
X7473740Y-103339000D01*
X7766260Y-103339000D01*
X8053158Y-103281932D01*
X8323411Y-103169990D01*
X8566632Y-103007475D01*
X8773475Y-102800632D01*
X8890000Y-102626240D01*
X9006525Y-102800632D01*
X9213368Y-103007475D01*
X9456589Y-103169990D01*
X9726842Y-103281932D01*
X10013740Y-103339000D01*
X10306260Y-103339000D01*
X10593158Y-103281932D01*
X10863411Y-103169990D01*
X11106632Y-103007475D01*
X11313475Y-102800632D01*
X11430000Y-102626240D01*
X11546525Y-102800632D01*
X11753368Y-103007475D01*
X11996589Y-103169990D01*
X12266842Y-103281932D01*
X12553740Y-103339000D01*
X12846260Y-103339000D01*
X13133158Y-103281932D01*
X13403411Y-103169990D01*
X13646632Y-103007475D01*
X13853475Y-102800632D01*
X13970000Y-102626240D01*
X14086525Y-102800632D01*
X14293368Y-103007475D01*
X14536589Y-103169990D01*
X14806842Y-103281932D01*
X15093740Y-103339000D01*
X15386260Y-103339000D01*
X15673158Y-103281932D01*
X15943411Y-103169990D01*
X16186632Y-103007475D01*
X16393475Y-102800632D01*
X16510000Y-102626240D01*
X16626525Y-102800632D01*
X16833368Y-103007475D01*
X17076589Y-103169990D01*
X17346842Y-103281932D01*
X17633740Y-103339000D01*
X17926260Y-103339000D01*
X18213158Y-103281932D01*
X18483411Y-103169990D01*
X18726632Y-103007475D01*
X18933475Y-102800632D01*
X19050000Y-102626240D01*
X19166525Y-102800632D01*
X19373368Y-103007475D01*
X19616589Y-103169990D01*
X19886842Y-103281932D01*
X20173740Y-103339000D01*
X20466260Y-103339000D01*
X20753158Y-103281932D01*
X21023411Y-103169990D01*
X21266632Y-103007475D01*
X21473475Y-102800632D01*
X21590000Y-102626240D01*
X21706525Y-102800632D01*
X21913368Y-103007475D01*
X22156589Y-103169990D01*
X22426842Y-103281932D01*
X22713740Y-103339000D01*
X23006260Y-103339000D01*
X23293158Y-103281932D01*
X23563411Y-103169990D01*
X23806632Y-103007475D01*
X24013475Y-102800632D01*
X24130000Y-102626240D01*
X24246525Y-102800632D01*
X24453368Y-103007475D01*
X24696589Y-103169990D01*
X24966842Y-103281932D01*
X25253740Y-103339000D01*
X25546260Y-103339000D01*
X25833158Y-103281932D01*
X26103411Y-103169990D01*
X26346632Y-103007475D01*
X26553475Y-102800632D01*
X26670000Y-102626240D01*
X26786525Y-102800632D01*
X26993368Y-103007475D01*
X27236589Y-103169990D01*
X27506842Y-103281932D01*
X27793740Y-103339000D01*
X28086260Y-103339000D01*
X28373158Y-103281932D01*
X28643411Y-103169990D01*
X28886632Y-103007475D01*
X29093475Y-102800632D01*
X29210000Y-102626240D01*
X29326525Y-102800632D01*
X29533368Y-103007475D01*
X29776589Y-103169990D01*
X30046842Y-103281932D01*
X30333740Y-103339000D01*
X30626260Y-103339000D01*
X30913158Y-103281932D01*
X31183411Y-103169990D01*
X31426632Y-103007475D01*
X31633475Y-102800632D01*
X31750000Y-102626240D01*
X31866525Y-102800632D01*
X32073368Y-103007475D01*
X32316589Y-103169990D01*
X32586842Y-103281932D01*
X32873740Y-103339000D01*
X33166260Y-103339000D01*
X33453158Y-103281932D01*
X33723411Y-103169990D01*
X33966632Y-103007475D01*
X34173475Y-102800632D01*
X34290000Y-102626240D01*
X34406525Y-102800632D01*
X34613368Y-103007475D01*
X34856589Y-103169990D01*
X35126842Y-103281932D01*
X35413740Y-103339000D01*
X35706260Y-103339000D01*
X35993158Y-103281932D01*
X36263411Y-103169990D01*
X36506632Y-103007475D01*
X36713475Y-102800632D01*
X36830000Y-102626240D01*
X36946525Y-102800632D01*
X37153368Y-103007475D01*
X37396589Y-103169990D01*
X37666842Y-103281932D01*
X37953740Y-103339000D01*
X38246260Y-103339000D01*
X38533158Y-103281932D01*
X38803411Y-103169990D01*
X39046632Y-103007475D01*
X39253475Y-102800632D01*
X39370000Y-102626240D01*
X39486525Y-102800632D01*
X39693368Y-103007475D01*
X39936589Y-103169990D01*
X40206842Y-103281932D01*
X40493740Y-103339000D01*
X40786260Y-103339000D01*
X41073158Y-103281932D01*
X41343411Y-103169990D01*
X41586632Y-103007475D01*
X41718487Y-102875620D01*
X41740498Y-102948180D01*
X41799463Y-103058494D01*
X41878815Y-103155185D01*
X41975506Y-103234537D01*
X42085820Y-103293502D01*
X42205518Y-103329812D01*
X42330000Y-103342072D01*
X44030000Y-103342072D01*
X44154482Y-103329812D01*
X44274180Y-103293502D01*
X44384494Y-103234537D01*
X44481185Y-103155185D01*
X44560537Y-103058494D01*
X44619502Y-102948180D01*
X44655812Y-102828482D01*
X44668072Y-102704000D01*
X44668072Y-101004000D01*
X44655812Y-100879518D01*
X44619502Y-100759820D01*
X44560537Y-100649506D01*
X44481185Y-100552815D01*
X44384494Y-100473463D01*
X44274180Y-100414498D01*
X44154482Y-100378188D01*
X44030000Y-100365928D01*
X42330000Y-100365928D01*
X42205518Y-100378188D01*
X42085820Y-100414498D01*
X41975506Y-100473463D01*
X41878815Y-100552815D01*
X41799463Y-100649506D01*
X41740498Y-100759820D01*
X41718487Y-100832380D01*
X41586632Y-100700525D01*
X41343411Y-100538010D01*
X41073158Y-100426068D01*
X40786260Y-100369000D01*
X40493740Y-100369000D01*
X40206842Y-100426068D01*
X39936589Y-100538010D01*
X39693368Y-100700525D01*
X39486525Y-100907368D01*
X39370000Y-101081760D01*
X39253475Y-100907368D01*
X39046632Y-100700525D01*
X38803411Y-100538010D01*
X38533158Y-100426068D01*
X38246260Y-100369000D01*
X37953740Y-100369000D01*
X37666842Y-100426068D01*
X37396589Y-100538010D01*
X37153368Y-100700525D01*
X36946525Y-100907368D01*
X36830000Y-101081760D01*
X36713475Y-100907368D01*
X36506632Y-100700525D01*
X36263411Y-100538010D01*
X35993158Y-100426068D01*
X35706260Y-100369000D01*
X35413740Y-100369000D01*
X35126842Y-100426068D01*
X34856589Y-100538010D01*
X34613368Y-100700525D01*
X34406525Y-100907368D01*
X34290000Y-101081760D01*
X34173475Y-100907368D01*
X33966632Y-100700525D01*
X33723411Y-100538010D01*
X33453158Y-100426068D01*
X33166260Y-100369000D01*
X32873740Y-100369000D01*
X32586842Y-100426068D01*
X32316589Y-100538010D01*
X32073368Y-100700525D01*
X31866525Y-100907368D01*
X31750000Y-101081760D01*
X31633475Y-100907368D01*
X31426632Y-100700525D01*
X31183411Y-100538010D01*
X30913158Y-100426068D01*
X30626260Y-100369000D01*
X30333740Y-100369000D01*
X30046842Y-100426068D01*
X29776589Y-100538010D01*
X29533368Y-100700525D01*
X29326525Y-100907368D01*
X29210000Y-101081760D01*
X29093475Y-100907368D01*
X28886632Y-100700525D01*
X28643411Y-100538010D01*
X28373158Y-100426068D01*
X28086260Y-100369000D01*
X27793740Y-100369000D01*
X27506842Y-100426068D01*
X27236589Y-100538010D01*
X26993368Y-100700525D01*
X26786525Y-100907368D01*
X26670000Y-101081760D01*
X26553475Y-100907368D01*
X26346632Y-100700525D01*
X26103411Y-100538010D01*
X25833158Y-100426068D01*
X25546260Y-100369000D01*
X25253740Y-100369000D01*
X24966842Y-100426068D01*
X24696589Y-100538010D01*
X24453368Y-100700525D01*
X24246525Y-100907368D01*
X24130000Y-101081760D01*
X24013475Y-100907368D01*
X23806632Y-100700525D01*
X23563411Y-100538010D01*
X23293158Y-100426068D01*
X23006260Y-100369000D01*
X22713740Y-100369000D01*
X22426842Y-100426068D01*
X22156589Y-100538010D01*
X21913368Y-100700525D01*
X21706525Y-100907368D01*
X21590000Y-101081760D01*
X21473475Y-100907368D01*
X21266632Y-100700525D01*
X21023411Y-100538010D01*
X20753158Y-100426068D01*
X20466260Y-100369000D01*
X20173740Y-100369000D01*
X19886842Y-100426068D01*
X19616589Y-100538010D01*
X19373368Y-100700525D01*
X19166525Y-100907368D01*
X19050000Y-101081760D01*
X18933475Y-100907368D01*
X18726632Y-100700525D01*
X18483411Y-100538010D01*
X18213158Y-100426068D01*
X17926260Y-100369000D01*
X17633740Y-100369000D01*
X17346842Y-100426068D01*
X17076589Y-100538010D01*
X16833368Y-100700525D01*
X16626525Y-100907368D01*
X16510000Y-101081760D01*
X16393475Y-100907368D01*
X16186632Y-100700525D01*
X15943411Y-100538010D01*
X15673158Y-100426068D01*
X15386260Y-100369000D01*
X15093740Y-100369000D01*
X14806842Y-100426068D01*
X14536589Y-100538010D01*
X14293368Y-100700525D01*
X14086525Y-100907368D01*
X13970000Y-101081760D01*
X13853475Y-100907368D01*
X13646632Y-100700525D01*
X13403411Y-100538010D01*
X13133158Y-100426068D01*
X12846260Y-100369000D01*
X12553740Y-100369000D01*
X12266842Y-100426068D01*
X11996589Y-100538010D01*
X11753368Y-100700525D01*
X11546525Y-100907368D01*
X11430000Y-101081760D01*
X11313475Y-100907368D01*
X11106632Y-100700525D01*
X10863411Y-100538010D01*
X10593158Y-100426068D01*
X10306260Y-100369000D01*
X10013740Y-100369000D01*
X9726842Y-100426068D01*
X9456589Y-100538010D01*
X9213368Y-100700525D01*
X9006525Y-100907368D01*
X8890000Y-101081760D01*
X8773475Y-100907368D01*
X8566632Y-100700525D01*
X8323411Y-100538010D01*
X8053158Y-100426068D01*
X7766260Y-100369000D01*
X7473740Y-100369000D01*
X7186842Y-100426068D01*
X6916589Y-100538010D01*
X6673368Y-100700525D01*
X6466525Y-100907368D01*
X6350000Y-101081760D01*
X6233475Y-100907368D01*
X6026632Y-100700525D01*
X5783411Y-100538010D01*
X5513158Y-100426068D01*
X5226260Y-100369000D01*
X4933740Y-100369000D01*
X4646842Y-100426068D01*
X4376589Y-100538010D01*
X4133368Y-100700525D01*
X3926525Y-100907368D01*
X3764010Y-101150589D01*
X3652068Y-101420842D01*
X3595000Y-101707740D01*
X-6706000Y-101707740D01*
X-6706000Y-97434000D01*
X71222000Y-97434000D01*
X71222001Y-161257572D01*
G37*
%TD.AperFunction*%
%TD*%
M02*
