%TF.GenerationSoftware,KiCad,Pcbnew,(5.1.10-1-10_14)*%
%TF.CreationDate,2021-09-10T18:45:47-04:00*%
%TF.ProjectId,led-bar,6c65642d-6261-4722-9e6b-696361645f70,rev?*%
%TF.SameCoordinates,Original*%
%TF.FileFunction,Legend,Top*%
%TF.FilePolarity,Positive*%
%FSLAX46Y46*%
G04 Gerber Fmt 4.6, Leading zero omitted, Abs format (unit mm)*
G04 Created by KiCad (PCBNEW (5.1.10-1-10_14)) date 2021-09-10 18:45:47*
%MOMM*%
%LPD*%
G01*
G04 APERTURE LIST*
%ADD10C,0.120000*%
%ADD11C,0.080000*%
G04 APERTURE END LIST*
D10*
%TO.C,R2*%
X163682000Y-80483064D02*
X163682000Y-79028936D01*
X165502000Y-80483064D02*
X165502000Y-79028936D01*
%TO.C,D2*%
X165727000Y-86306000D02*
X165727000Y-82421000D01*
X165727000Y-82421000D02*
X163457000Y-82421000D01*
X163457000Y-82421000D02*
X163457000Y-86306000D01*
%TO.C,R8*%
X181462000Y-80483064D02*
X181462000Y-79028936D01*
X183282000Y-80483064D02*
X183282000Y-79028936D01*
%TO.C,R7*%
X178922000Y-80483064D02*
X178922000Y-79028936D01*
X180742000Y-80483064D02*
X180742000Y-79028936D01*
%TO.C,R6*%
X176382000Y-80483064D02*
X176382000Y-79028936D01*
X178202000Y-80483064D02*
X178202000Y-79028936D01*
%TO.C,R5*%
X173842000Y-78258564D02*
X173842000Y-76804436D01*
X175662000Y-78258564D02*
X175662000Y-76804436D01*
%TO.C,R4*%
X171302000Y-78258564D02*
X171302000Y-76804436D01*
X173122000Y-78258564D02*
X173122000Y-76804436D01*
%TO.C,R3*%
X168762000Y-80483064D02*
X168762000Y-79028936D01*
X170582000Y-80483064D02*
X170582000Y-79028936D01*
%TO.C,R1*%
X166222000Y-80483064D02*
X166222000Y-79028936D01*
X168042000Y-80483064D02*
X168042000Y-79028936D01*
%TO.C,D8*%
X183507000Y-86306000D02*
X183507000Y-82421000D01*
X183507000Y-82421000D02*
X181237000Y-82421000D01*
X181237000Y-82421000D02*
X181237000Y-86306000D01*
%TO.C,D7*%
X180967000Y-86306000D02*
X180967000Y-82421000D01*
X180967000Y-82421000D02*
X178697000Y-82421000D01*
X178697000Y-82421000D02*
X178697000Y-86306000D01*
%TO.C,D6*%
X178427000Y-86306000D02*
X178427000Y-82421000D01*
X178427000Y-82421000D02*
X176157000Y-82421000D01*
X176157000Y-82421000D02*
X176157000Y-86306000D01*
%TO.C,D5*%
X175887000Y-86312000D02*
X175887000Y-82427000D01*
X175887000Y-82427000D02*
X173617000Y-82427000D01*
X173617000Y-82427000D02*
X173617000Y-86312000D01*
%TO.C,D4*%
X173347000Y-86312000D02*
X173347000Y-82427000D01*
X173347000Y-82427000D02*
X171077000Y-82427000D01*
X171077000Y-82427000D02*
X171077000Y-86312000D01*
%TO.C,D3*%
X170807000Y-86306000D02*
X170807000Y-82421000D01*
X170807000Y-82421000D02*
X168537000Y-82421000D01*
X168537000Y-82421000D02*
X168537000Y-86306000D01*
%TO.C,D1*%
X168267000Y-86306000D02*
X168267000Y-82421000D01*
X168267000Y-82421000D02*
X165997000Y-82421000D01*
X165997000Y-82421000D02*
X165997000Y-86306000D01*
%TO.C,R2*%
D11*
X164818190Y-79839333D02*
X164580095Y-80006000D01*
X164818190Y-80125047D02*
X164318190Y-80125047D01*
X164318190Y-79934571D01*
X164342000Y-79886952D01*
X164365809Y-79863142D01*
X164413428Y-79839333D01*
X164484857Y-79839333D01*
X164532476Y-79863142D01*
X164556285Y-79886952D01*
X164580095Y-79934571D01*
X164580095Y-80125047D01*
X164365809Y-79648857D02*
X164342000Y-79625047D01*
X164318190Y-79577428D01*
X164318190Y-79458380D01*
X164342000Y-79410761D01*
X164365809Y-79386952D01*
X164413428Y-79363142D01*
X164461047Y-79363142D01*
X164532476Y-79386952D01*
X164818190Y-79672666D01*
X164818190Y-79363142D01*
%TO.C,D2*%
X164818190Y-84951047D02*
X164318190Y-84951047D01*
X164318190Y-84832000D01*
X164342000Y-84760571D01*
X164389619Y-84712952D01*
X164437238Y-84689142D01*
X164532476Y-84665333D01*
X164603904Y-84665333D01*
X164699142Y-84689142D01*
X164746761Y-84712952D01*
X164794380Y-84760571D01*
X164818190Y-84832000D01*
X164818190Y-84951047D01*
X164365809Y-84474857D02*
X164342000Y-84451047D01*
X164318190Y-84403428D01*
X164318190Y-84284380D01*
X164342000Y-84236761D01*
X164365809Y-84212952D01*
X164413428Y-84189142D01*
X164461047Y-84189142D01*
X164532476Y-84212952D01*
X164818190Y-84498666D01*
X164818190Y-84189142D01*
%TO.C,R8*%
X182598190Y-79585333D02*
X182360095Y-79752000D01*
X182598190Y-79871047D02*
X182098190Y-79871047D01*
X182098190Y-79680571D01*
X182122000Y-79632952D01*
X182145809Y-79609142D01*
X182193428Y-79585333D01*
X182264857Y-79585333D01*
X182312476Y-79609142D01*
X182336285Y-79632952D01*
X182360095Y-79680571D01*
X182360095Y-79871047D01*
X182312476Y-79299619D02*
X182288666Y-79347238D01*
X182264857Y-79371047D01*
X182217238Y-79394857D01*
X182193428Y-79394857D01*
X182145809Y-79371047D01*
X182122000Y-79347238D01*
X182098190Y-79299619D01*
X182098190Y-79204380D01*
X182122000Y-79156761D01*
X182145809Y-79132952D01*
X182193428Y-79109142D01*
X182217238Y-79109142D01*
X182264857Y-79132952D01*
X182288666Y-79156761D01*
X182312476Y-79204380D01*
X182312476Y-79299619D01*
X182336285Y-79347238D01*
X182360095Y-79371047D01*
X182407714Y-79394857D01*
X182502952Y-79394857D01*
X182550571Y-79371047D01*
X182574380Y-79347238D01*
X182598190Y-79299619D01*
X182598190Y-79204380D01*
X182574380Y-79156761D01*
X182550571Y-79132952D01*
X182502952Y-79109142D01*
X182407714Y-79109142D01*
X182360095Y-79132952D01*
X182336285Y-79156761D01*
X182312476Y-79204380D01*
%TO.C,R7*%
X180058190Y-79839333D02*
X179820095Y-80006000D01*
X180058190Y-80125047D02*
X179558190Y-80125047D01*
X179558190Y-79934571D01*
X179582000Y-79886952D01*
X179605809Y-79863142D01*
X179653428Y-79839333D01*
X179724857Y-79839333D01*
X179772476Y-79863142D01*
X179796285Y-79886952D01*
X179820095Y-79934571D01*
X179820095Y-80125047D01*
X179558190Y-79672666D02*
X179558190Y-79339333D01*
X180058190Y-79553619D01*
%TO.C,R6*%
X177518190Y-79585333D02*
X177280095Y-79752000D01*
X177518190Y-79871047D02*
X177018190Y-79871047D01*
X177018190Y-79680571D01*
X177042000Y-79632952D01*
X177065809Y-79609142D01*
X177113428Y-79585333D01*
X177184857Y-79585333D01*
X177232476Y-79609142D01*
X177256285Y-79632952D01*
X177280095Y-79680571D01*
X177280095Y-79871047D01*
X177018190Y-79156761D02*
X177018190Y-79252000D01*
X177042000Y-79299619D01*
X177065809Y-79323428D01*
X177137238Y-79371047D01*
X177232476Y-79394857D01*
X177422952Y-79394857D01*
X177470571Y-79371047D01*
X177494380Y-79347238D01*
X177518190Y-79299619D01*
X177518190Y-79204380D01*
X177494380Y-79156761D01*
X177470571Y-79132952D01*
X177422952Y-79109142D01*
X177303904Y-79109142D01*
X177256285Y-79132952D01*
X177232476Y-79156761D01*
X177208666Y-79204380D01*
X177208666Y-79299619D01*
X177232476Y-79347238D01*
X177256285Y-79371047D01*
X177303904Y-79394857D01*
%TO.C,R5*%
X174978190Y-77614833D02*
X174740095Y-77781500D01*
X174978190Y-77900547D02*
X174478190Y-77900547D01*
X174478190Y-77710071D01*
X174502000Y-77662452D01*
X174525809Y-77638642D01*
X174573428Y-77614833D01*
X174644857Y-77614833D01*
X174692476Y-77638642D01*
X174716285Y-77662452D01*
X174740095Y-77710071D01*
X174740095Y-77900547D01*
X174478190Y-77162452D02*
X174478190Y-77400547D01*
X174716285Y-77424357D01*
X174692476Y-77400547D01*
X174668666Y-77352928D01*
X174668666Y-77233880D01*
X174692476Y-77186261D01*
X174716285Y-77162452D01*
X174763904Y-77138642D01*
X174882952Y-77138642D01*
X174930571Y-77162452D01*
X174954380Y-77186261D01*
X174978190Y-77233880D01*
X174978190Y-77352928D01*
X174954380Y-77400547D01*
X174930571Y-77424357D01*
%TO.C,R4*%
X172438190Y-77553333D02*
X172200095Y-77720000D01*
X172438190Y-77839047D02*
X171938190Y-77839047D01*
X171938190Y-77648571D01*
X171962000Y-77600952D01*
X171985809Y-77577142D01*
X172033428Y-77553333D01*
X172104857Y-77553333D01*
X172152476Y-77577142D01*
X172176285Y-77600952D01*
X172200095Y-77648571D01*
X172200095Y-77839047D01*
X172104857Y-77124761D02*
X172438190Y-77124761D01*
X171914380Y-77243809D02*
X172271523Y-77362857D01*
X172271523Y-77053333D01*
%TO.C,R3*%
X169898190Y-79839333D02*
X169660095Y-80006000D01*
X169898190Y-80125047D02*
X169398190Y-80125047D01*
X169398190Y-79934571D01*
X169422000Y-79886952D01*
X169445809Y-79863142D01*
X169493428Y-79839333D01*
X169564857Y-79839333D01*
X169612476Y-79863142D01*
X169636285Y-79886952D01*
X169660095Y-79934571D01*
X169660095Y-80125047D01*
X169398190Y-79672666D02*
X169398190Y-79363142D01*
X169588666Y-79529809D01*
X169588666Y-79458380D01*
X169612476Y-79410761D01*
X169636285Y-79386952D01*
X169683904Y-79363142D01*
X169802952Y-79363142D01*
X169850571Y-79386952D01*
X169874380Y-79410761D01*
X169898190Y-79458380D01*
X169898190Y-79601238D01*
X169874380Y-79648857D01*
X169850571Y-79672666D01*
%TO.C,R1*%
X167358190Y-79839333D02*
X167120095Y-80006000D01*
X167358190Y-80125047D02*
X166858190Y-80125047D01*
X166858190Y-79934571D01*
X166882000Y-79886952D01*
X166905809Y-79863142D01*
X166953428Y-79839333D01*
X167024857Y-79839333D01*
X167072476Y-79863142D01*
X167096285Y-79886952D01*
X167120095Y-79934571D01*
X167120095Y-80125047D01*
X167358190Y-79363142D02*
X167358190Y-79648857D01*
X167358190Y-79506000D02*
X166858190Y-79506000D01*
X166929619Y-79553619D01*
X166977238Y-79601238D01*
X167001047Y-79648857D01*
%TO.C,D8*%
X182852190Y-84951047D02*
X182352190Y-84951047D01*
X182352190Y-84832000D01*
X182376000Y-84760571D01*
X182423619Y-84712952D01*
X182471238Y-84689142D01*
X182566476Y-84665333D01*
X182637904Y-84665333D01*
X182733142Y-84689142D01*
X182780761Y-84712952D01*
X182828380Y-84760571D01*
X182852190Y-84832000D01*
X182852190Y-84951047D01*
X182566476Y-84379619D02*
X182542666Y-84427238D01*
X182518857Y-84451047D01*
X182471238Y-84474857D01*
X182447428Y-84474857D01*
X182399809Y-84451047D01*
X182376000Y-84427238D01*
X182352190Y-84379619D01*
X182352190Y-84284380D01*
X182376000Y-84236761D01*
X182399809Y-84212952D01*
X182447428Y-84189142D01*
X182471238Y-84189142D01*
X182518857Y-84212952D01*
X182542666Y-84236761D01*
X182566476Y-84284380D01*
X182566476Y-84379619D01*
X182590285Y-84427238D01*
X182614095Y-84451047D01*
X182661714Y-84474857D01*
X182756952Y-84474857D01*
X182804571Y-84451047D01*
X182828380Y-84427238D01*
X182852190Y-84379619D01*
X182852190Y-84284380D01*
X182828380Y-84236761D01*
X182804571Y-84212952D01*
X182756952Y-84189142D01*
X182661714Y-84189142D01*
X182614095Y-84212952D01*
X182590285Y-84236761D01*
X182566476Y-84284380D01*
%TO.C,D7*%
X180058190Y-85075047D02*
X179558190Y-85075047D01*
X179558190Y-84956000D01*
X179582000Y-84884571D01*
X179629619Y-84836952D01*
X179677238Y-84813142D01*
X179772476Y-84789333D01*
X179843904Y-84789333D01*
X179939142Y-84813142D01*
X179986761Y-84836952D01*
X180034380Y-84884571D01*
X180058190Y-84956000D01*
X180058190Y-85075047D01*
X179558190Y-84622666D02*
X179558190Y-84289333D01*
X180058190Y-84503619D01*
%TO.C,D6*%
X177518190Y-85075047D02*
X177018190Y-85075047D01*
X177018190Y-84956000D01*
X177042000Y-84884571D01*
X177089619Y-84836952D01*
X177137238Y-84813142D01*
X177232476Y-84789333D01*
X177303904Y-84789333D01*
X177399142Y-84813142D01*
X177446761Y-84836952D01*
X177494380Y-84884571D01*
X177518190Y-84956000D01*
X177518190Y-85075047D01*
X177018190Y-84360761D02*
X177018190Y-84456000D01*
X177042000Y-84503619D01*
X177065809Y-84527428D01*
X177137238Y-84575047D01*
X177232476Y-84598857D01*
X177422952Y-84598857D01*
X177470571Y-84575047D01*
X177494380Y-84551238D01*
X177518190Y-84503619D01*
X177518190Y-84408380D01*
X177494380Y-84360761D01*
X177470571Y-84336952D01*
X177422952Y-84313142D01*
X177303904Y-84313142D01*
X177256285Y-84336952D01*
X177232476Y-84360761D01*
X177208666Y-84408380D01*
X177208666Y-84503619D01*
X177232476Y-84551238D01*
X177256285Y-84575047D01*
X177303904Y-84598857D01*
%TO.C,D5*%
X174978190Y-84951047D02*
X174478190Y-84951047D01*
X174478190Y-84832000D01*
X174502000Y-84760571D01*
X174549619Y-84712952D01*
X174597238Y-84689142D01*
X174692476Y-84665333D01*
X174763904Y-84665333D01*
X174859142Y-84689142D01*
X174906761Y-84712952D01*
X174954380Y-84760571D01*
X174978190Y-84832000D01*
X174978190Y-84951047D01*
X174478190Y-84212952D02*
X174478190Y-84451047D01*
X174716285Y-84474857D01*
X174692476Y-84451047D01*
X174668666Y-84403428D01*
X174668666Y-84284380D01*
X174692476Y-84236761D01*
X174716285Y-84212952D01*
X174763904Y-84189142D01*
X174882952Y-84189142D01*
X174930571Y-84212952D01*
X174954380Y-84236761D01*
X174978190Y-84284380D01*
X174978190Y-84403428D01*
X174954380Y-84451047D01*
X174930571Y-84474857D01*
%TO.C,D4*%
X172438190Y-84951047D02*
X171938190Y-84951047D01*
X171938190Y-84832000D01*
X171962000Y-84760571D01*
X172009619Y-84712952D01*
X172057238Y-84689142D01*
X172152476Y-84665333D01*
X172223904Y-84665333D01*
X172319142Y-84689142D01*
X172366761Y-84712952D01*
X172414380Y-84760571D01*
X172438190Y-84832000D01*
X172438190Y-84951047D01*
X172104857Y-84236761D02*
X172438190Y-84236761D01*
X171914380Y-84355809D02*
X172271523Y-84474857D01*
X172271523Y-84165333D01*
%TO.C,D3*%
X169898190Y-85075047D02*
X169398190Y-85075047D01*
X169398190Y-84956000D01*
X169422000Y-84884571D01*
X169469619Y-84836952D01*
X169517238Y-84813142D01*
X169612476Y-84789333D01*
X169683904Y-84789333D01*
X169779142Y-84813142D01*
X169826761Y-84836952D01*
X169874380Y-84884571D01*
X169898190Y-84956000D01*
X169898190Y-85075047D01*
X169398190Y-84622666D02*
X169398190Y-84313142D01*
X169588666Y-84479809D01*
X169588666Y-84408380D01*
X169612476Y-84360761D01*
X169636285Y-84336952D01*
X169683904Y-84313142D01*
X169802952Y-84313142D01*
X169850571Y-84336952D01*
X169874380Y-84360761D01*
X169898190Y-84408380D01*
X169898190Y-84551238D01*
X169874380Y-84598857D01*
X169850571Y-84622666D01*
%TO.C,D1*%
X167358190Y-84951047D02*
X166858190Y-84951047D01*
X166858190Y-84832000D01*
X166882000Y-84760571D01*
X166929619Y-84712952D01*
X166977238Y-84689142D01*
X167072476Y-84665333D01*
X167143904Y-84665333D01*
X167239142Y-84689142D01*
X167286761Y-84712952D01*
X167334380Y-84760571D01*
X167358190Y-84832000D01*
X167358190Y-84951047D01*
X167358190Y-84189142D02*
X167358190Y-84474857D01*
X167358190Y-84332000D02*
X166858190Y-84332000D01*
X166929619Y-84379619D01*
X166977238Y-84427238D01*
X167001047Y-84474857D01*
%TD*%
M02*
