M48
; DRILL file {KiCad (5.1.10-1-10_14)} date Thursday, September 30, 2021 at 04:16:15 PM
; FORMAT={-:-/ absolute / inch / decimal}
; #@! TF.CreationDate,2021-09-30T16:16:15-04:00
; #@! TF.GenerationSoftware,Kicad,Pcbnew,(5.1.10-1-10_14)
; #@! TF.FileFunction,Plated,1,2,PTH
FMAT,2
INCH
T1C0.0157
T2C0.0394
%
G90
G05
T1
X4.14Y-4.5
X4.2748Y-4.7124
X4.2776Y-5.0676
X4.29Y-4.66
X4.29Y-4.77
X4.2976Y-4.8176
X4.2998Y-4.9198
X4.3Y-4.87
X4.3Y-4.97
X4.49Y-5.02
X4.5Y-4.83
X4.5Y-4.87
X4.66Y-4.61
X4.6609Y-4.9745
X4.67Y-4.66
X4.68Y-5.07
X4.6967Y-5.0222
X4.7Y-4.87
X4.71Y-4.61
X4.7514Y-4.7614
X4.77Y-4.53
X4.82Y-4.76
X4.89Y-4.76
X4.93Y-4.53
X4.96Y-4.76
X5.01Y-4.42
X5.03Y-4.76
X5.1Y-4.76
X5.17Y-4.76
X5.1803Y-4.4403
X5.2364Y-4.7636
X5.24Y-4.43
X5.29Y-4.43
X5.3161Y-4.7758
X5.38Y-4.76
X5.39Y-4.7
X5.45Y-4.76
X5.52Y-4.67
X5.52Y-4.76
X5.59Y-4.65
X5.59Y-4.76
X5.66Y-4.62
X5.66Y-4.76
X5.7Y-4.98
X5.72Y-4.47
X5.73Y-4.59
X5.73Y-4.76
X5.84Y-4.52
X5.85Y-5.1
X5.87Y-4.44
X5.98Y-4.6004
X5.9802Y-4.8898
X5.9852Y-4.8448
X5.9902Y-4.7998
X5.9902Y-4.9498
X5.9911Y-4.6989
X6.0Y-4.75
X6.1707Y-4.4697
X6.2097Y-4.9785
X6.21Y-4.4885
X6.21Y-4.7848
X6.21Y-4.92
X6.21Y-5.02
X6.21Y-5.07
X6.3815Y-4.8615
X6.4082Y-4.9172
X6.43Y-4.59
X6.43Y-4.95
X6.43Y-4.99
X6.47Y-4.7671
X6.478Y-5.0763
X6.54Y-4.76
X6.61Y-4.76
X6.6784Y-4.7631
X6.6814Y-5.1032
X6.75Y-4.76
X6.82Y-4.76
X6.89Y-4.76
X6.96Y-4.76
X7.03Y-4.76
X7.1Y-4.76
X7.17Y-4.76
X7.24Y-4.76
X7.26Y-4.56
X7.28Y-4.34
X7.31Y-4.76
X7.38Y-4.76
X7.45Y-4.76
X7.49Y-4.97
T2
X4.41Y-5.2197
X4.51Y-5.2197
X4.61Y-5.2197
X4.71Y-5.2197
X4.81Y-5.2197
X4.91Y-5.2197
X5.01Y-5.2197
X5.11Y-5.2197
X5.21Y-5.2197
X5.31Y-5.2197
X5.41Y-5.2197
X5.4122Y-4.3657
X5.51Y-5.2197
X5.5122Y-4.3657
X5.61Y-5.2197
X5.6122Y-4.3657
X5.71Y-5.2197
X5.7122Y-4.3657
X5.81Y-5.2197
X5.8122Y-4.3657
X5.91Y-5.2197
X5.9122Y-4.3657
X6.01Y-5.2197
X6.0122Y-4.3657
X6.11Y-5.2197
X6.1122Y-4.3657
X6.21Y-5.2197
X6.2122Y-4.3657
X6.31Y-5.2197
X6.3122Y-4.3657
X6.41Y-5.2197
X6.51Y-5.2197
X6.61Y-5.2197
X6.71Y-5.2197
X6.81Y-5.2197
X6.91Y-5.2197
X7.01Y-5.2197
X7.11Y-5.2197
X7.21Y-5.2197
X7.31Y-5.2197
T0
M30
