%TF.GenerationSoftware,KiCad,Pcbnew,(6.0.0-0)*%
%TF.CreationDate,2022-05-04T11:48:17-04:00*%
%TF.ProjectId,ADC-Backplane,4144432d-4261-4636-9b70-6c616e652e6b,rev?*%
%TF.SameCoordinates,Original*%
%TF.FileFunction,Legend,Top*%
%TF.FilePolarity,Positive*%
%FSLAX46Y46*%
G04 Gerber Fmt 4.6, Leading zero omitted, Abs format (unit mm)*
G04 Created by KiCad (PCBNEW (6.0.0-0)) date 2022-05-04 11:48:17*
%MOMM*%
%LPD*%
G01*
G04 APERTURE LIST*
%ADD10C,0.150000*%
%ADD11C,0.100000*%
%ADD12C,0.120000*%
G04 APERTURE END LIST*
D10*
X84074000Y-73406000D02*
X129286000Y-73406000D01*
X129286000Y-73406000D02*
X129286000Y-131318000D01*
X129286000Y-131318000D02*
X84074000Y-131318000D01*
X84074000Y-131318000D02*
X84074000Y-73406000D01*
X129794000Y-63754000D02*
X176022000Y-63754000D01*
X176022000Y-63754000D02*
X176022000Y-97282000D01*
X176022000Y-97282000D02*
X129794000Y-97282000D01*
X129794000Y-97282000D02*
X129794000Y-63754000D01*
X176530000Y-97790000D02*
X222758000Y-97790000D01*
X222758000Y-97790000D02*
X222758000Y-131318000D01*
X222758000Y-131318000D02*
X176530000Y-131318000D01*
X176530000Y-131318000D02*
X176530000Y-97790000D01*
X176530000Y-63754000D02*
X222758000Y-63754000D01*
X222758000Y-63754000D02*
X222758000Y-97282000D01*
X222758000Y-97282000D02*
X176530000Y-97282000D01*
X176530000Y-97282000D02*
X176530000Y-63754000D01*
X129794000Y-97790000D02*
X176022000Y-97790000D01*
X176022000Y-97790000D02*
X176022000Y-131318000D01*
X176022000Y-131318000D02*
X129794000Y-131318000D01*
X129794000Y-131318000D02*
X129794000Y-97790000D01*
D11*
X147613619Y-67724238D02*
X146613619Y-68057571D01*
X147613619Y-68390904D01*
X146613619Y-68724238D02*
X147280285Y-68724238D01*
X147089809Y-68724238D02*
X147185047Y-68771857D01*
X147232666Y-68819476D01*
X147280285Y-68914714D01*
X147280285Y-69009952D01*
X146661238Y-69724238D02*
X146613619Y-69629000D01*
X146613619Y-69438523D01*
X146661238Y-69343285D01*
X146756476Y-69295666D01*
X147137428Y-69295666D01*
X147232666Y-69343285D01*
X147280285Y-69438523D01*
X147280285Y-69629000D01*
X147232666Y-69724238D01*
X147137428Y-69771857D01*
X147042190Y-69771857D01*
X146946952Y-69295666D01*
X147280285Y-70057571D02*
X147280285Y-70438523D01*
X146613619Y-70200428D02*
X147470761Y-70200428D01*
X147566000Y-70248047D01*
X147613619Y-70343285D01*
X147613619Y-70438523D01*
X146613619Y-70914714D02*
X146661238Y-70819476D01*
X146708857Y-70771857D01*
X146804095Y-70724238D01*
X147089809Y-70724238D01*
X147185047Y-70771857D01*
X147232666Y-70819476D01*
X147280285Y-70914714D01*
X147280285Y-71057571D01*
X147232666Y-71152809D01*
X147185047Y-71200428D01*
X147089809Y-71248047D01*
X146804095Y-71248047D01*
X146708857Y-71200428D01*
X146661238Y-71152809D01*
X146613619Y-71057571D01*
X146613619Y-70914714D01*
X88266428Y-110672571D02*
X88409285Y-110720190D01*
X88456904Y-110767809D01*
X88504523Y-110863047D01*
X88504523Y-111005904D01*
X88456904Y-111101142D01*
X88409285Y-111148761D01*
X88314047Y-111196380D01*
X87933095Y-111196380D01*
X87933095Y-110196380D01*
X88266428Y-110196380D01*
X88361666Y-110244000D01*
X88409285Y-110291619D01*
X88456904Y-110386857D01*
X88456904Y-110482095D01*
X88409285Y-110577333D01*
X88361666Y-110624952D01*
X88266428Y-110672571D01*
X87933095Y-110672571D01*
X89361666Y-110529714D02*
X89361666Y-111196380D01*
X89123571Y-110148761D02*
X88885476Y-110863047D01*
X89504523Y-110863047D01*
X197310857Y-74592761D02*
X198548952Y-74592761D01*
X197882285Y-75354666D01*
X198168000Y-75354666D01*
X198358476Y-75449904D01*
X198453714Y-75545142D01*
X198548952Y-75735619D01*
X198548952Y-76211809D01*
X198453714Y-76402285D01*
X198358476Y-76497523D01*
X198168000Y-76592761D01*
X197596571Y-76592761D01*
X197406095Y-76497523D01*
X197310857Y-76402285D01*
X199406095Y-75830857D02*
X200929904Y-75830857D01*
X201882285Y-76592761D02*
X201882285Y-74592761D01*
X201882285Y-75354666D02*
X202072761Y-75259428D01*
X202453714Y-75259428D01*
X202644190Y-75354666D01*
X202739428Y-75449904D01*
X202834666Y-75640380D01*
X202834666Y-76211809D01*
X202739428Y-76402285D01*
X202644190Y-76497523D01*
X202453714Y-76592761D01*
X202072761Y-76592761D01*
X201882285Y-76497523D01*
X203691809Y-76592761D02*
X203691809Y-75259428D01*
X203691809Y-74592761D02*
X203596571Y-74688000D01*
X203691809Y-74783238D01*
X203787047Y-74688000D01*
X203691809Y-74592761D01*
X203691809Y-74783238D01*
X204358476Y-75259428D02*
X205120380Y-75259428D01*
X204644190Y-74592761D02*
X204644190Y-76307047D01*
X204739428Y-76497523D01*
X204929904Y-76592761D01*
X205120380Y-76592761D01*
X187929904Y-79241333D02*
X188882285Y-79241333D01*
X187739428Y-79812761D02*
X188406095Y-77812761D01*
X189072761Y-79812761D01*
X189739428Y-78479428D02*
X189739428Y-79812761D01*
X189739428Y-78669904D02*
X189834666Y-78574666D01*
X190025142Y-78479428D01*
X190310857Y-78479428D01*
X190501333Y-78574666D01*
X190596571Y-78765142D01*
X190596571Y-79812761D01*
X192406095Y-79812761D02*
X192406095Y-78765142D01*
X192310857Y-78574666D01*
X192120380Y-78479428D01*
X191739428Y-78479428D01*
X191548952Y-78574666D01*
X192406095Y-79717523D02*
X192215619Y-79812761D01*
X191739428Y-79812761D01*
X191548952Y-79717523D01*
X191453714Y-79527047D01*
X191453714Y-79336571D01*
X191548952Y-79146095D01*
X191739428Y-79050857D01*
X192215619Y-79050857D01*
X192406095Y-78955619D01*
X193644190Y-79812761D02*
X193453714Y-79717523D01*
X193358476Y-79527047D01*
X193358476Y-77812761D01*
X194691809Y-79812761D02*
X194501333Y-79717523D01*
X194406095Y-79622285D01*
X194310857Y-79431809D01*
X194310857Y-78860380D01*
X194406095Y-78669904D01*
X194501333Y-78574666D01*
X194691809Y-78479428D01*
X194977523Y-78479428D01*
X195168000Y-78574666D01*
X195263238Y-78669904D01*
X195358476Y-78860380D01*
X195358476Y-79431809D01*
X195263238Y-79622285D01*
X195168000Y-79717523D01*
X194977523Y-79812761D01*
X194691809Y-79812761D01*
X197072761Y-78479428D02*
X197072761Y-80098476D01*
X196977523Y-80288952D01*
X196882285Y-80384190D01*
X196691809Y-80479428D01*
X196406095Y-80479428D01*
X196215619Y-80384190D01*
X197072761Y-79717523D02*
X196882285Y-79812761D01*
X196501333Y-79812761D01*
X196310857Y-79717523D01*
X196215619Y-79622285D01*
X196120380Y-79431809D01*
X196120380Y-78860380D01*
X196215619Y-78669904D01*
X196310857Y-78574666D01*
X196501333Y-78479428D01*
X196882285Y-78479428D01*
X197072761Y-78574666D01*
X199263238Y-78479428D02*
X200025142Y-78479428D01*
X199548952Y-77812761D02*
X199548952Y-79527047D01*
X199644190Y-79717523D01*
X199834666Y-79812761D01*
X200025142Y-79812761D01*
X200977523Y-79812761D02*
X200787047Y-79717523D01*
X200691809Y-79622285D01*
X200596571Y-79431809D01*
X200596571Y-78860380D01*
X200691809Y-78669904D01*
X200787047Y-78574666D01*
X200977523Y-78479428D01*
X201263238Y-78479428D01*
X201453714Y-78574666D01*
X201548952Y-78669904D01*
X201644190Y-78860380D01*
X201644190Y-79431809D01*
X201548952Y-79622285D01*
X201453714Y-79717523D01*
X201263238Y-79812761D01*
X200977523Y-79812761D01*
X204025142Y-79812761D02*
X204025142Y-77812761D01*
X204501333Y-77812761D01*
X204787047Y-77908000D01*
X204977523Y-78098476D01*
X205072761Y-78288952D01*
X205168000Y-78669904D01*
X205168000Y-78955619D01*
X205072761Y-79336571D01*
X204977523Y-79527047D01*
X204787047Y-79717523D01*
X204501333Y-79812761D01*
X204025142Y-79812761D01*
X206025142Y-79812761D02*
X206025142Y-78479428D01*
X206025142Y-77812761D02*
X205929904Y-77908000D01*
X206025142Y-78003238D01*
X206120380Y-77908000D01*
X206025142Y-77812761D01*
X206025142Y-78003238D01*
X207834666Y-78479428D02*
X207834666Y-80098476D01*
X207739428Y-80288952D01*
X207644190Y-80384190D01*
X207453714Y-80479428D01*
X207168000Y-80479428D01*
X206977523Y-80384190D01*
X207834666Y-79717523D02*
X207644190Y-79812761D01*
X207263238Y-79812761D01*
X207072761Y-79717523D01*
X206977523Y-79622285D01*
X206882285Y-79431809D01*
X206882285Y-78860380D01*
X206977523Y-78669904D01*
X207072761Y-78574666D01*
X207263238Y-78479428D01*
X207644190Y-78479428D01*
X207834666Y-78574666D01*
X208787047Y-79812761D02*
X208787047Y-78479428D01*
X208787047Y-77812761D02*
X208691809Y-77908000D01*
X208787047Y-78003238D01*
X208882285Y-77908000D01*
X208787047Y-77812761D01*
X208787047Y-78003238D01*
X209453714Y-78479428D02*
X210215619Y-78479428D01*
X209739428Y-77812761D02*
X209739428Y-79527047D01*
X209834666Y-79717523D01*
X210025142Y-79812761D01*
X210215619Y-79812761D01*
X211739428Y-79812761D02*
X211739428Y-78765142D01*
X211644190Y-78574666D01*
X211453714Y-78479428D01*
X211072761Y-78479428D01*
X210882285Y-78574666D01*
X211739428Y-79717523D02*
X211548952Y-79812761D01*
X211072761Y-79812761D01*
X210882285Y-79717523D01*
X210787047Y-79527047D01*
X210787047Y-79336571D01*
X210882285Y-79146095D01*
X211072761Y-79050857D01*
X211548952Y-79050857D01*
X211739428Y-78955619D01*
X212977523Y-79812761D02*
X212787047Y-79717523D01*
X212691809Y-79527047D01*
X212691809Y-77812761D01*
X195691809Y-82842285D02*
X195596571Y-82937523D01*
X195310857Y-83032761D01*
X195120380Y-83032761D01*
X194834666Y-82937523D01*
X194644190Y-82747047D01*
X194548952Y-82556571D01*
X194453714Y-82175619D01*
X194453714Y-81889904D01*
X194548952Y-81508952D01*
X194644190Y-81318476D01*
X194834666Y-81128000D01*
X195120380Y-81032761D01*
X195310857Y-81032761D01*
X195596571Y-81128000D01*
X195691809Y-81223238D01*
X196834666Y-83032761D02*
X196644190Y-82937523D01*
X196548952Y-82842285D01*
X196453714Y-82651809D01*
X196453714Y-82080380D01*
X196548952Y-81889904D01*
X196644190Y-81794666D01*
X196834666Y-81699428D01*
X197120380Y-81699428D01*
X197310857Y-81794666D01*
X197406095Y-81889904D01*
X197501333Y-82080380D01*
X197501333Y-82651809D01*
X197406095Y-82842285D01*
X197310857Y-82937523D01*
X197120380Y-83032761D01*
X196834666Y-83032761D01*
X198358476Y-81699428D02*
X198358476Y-83032761D01*
X198358476Y-81889904D02*
X198453714Y-81794666D01*
X198644190Y-81699428D01*
X198929904Y-81699428D01*
X199120380Y-81794666D01*
X199215619Y-81985142D01*
X199215619Y-83032761D01*
X199977523Y-81699428D02*
X200453714Y-83032761D01*
X200929904Y-81699428D01*
X202453714Y-82937523D02*
X202263238Y-83032761D01*
X201882285Y-83032761D01*
X201691809Y-82937523D01*
X201596571Y-82747047D01*
X201596571Y-81985142D01*
X201691809Y-81794666D01*
X201882285Y-81699428D01*
X202263238Y-81699428D01*
X202453714Y-81794666D01*
X202548952Y-81985142D01*
X202548952Y-82175619D01*
X201596571Y-82366095D01*
X203406095Y-83032761D02*
X203406095Y-81699428D01*
X203406095Y-82080380D02*
X203501333Y-81889904D01*
X203596571Y-81794666D01*
X203787047Y-81699428D01*
X203977523Y-81699428D01*
X204358476Y-81699428D02*
X205120380Y-81699428D01*
X204644190Y-81032761D02*
X204644190Y-82747047D01*
X204739428Y-82937523D01*
X204929904Y-83032761D01*
X205120380Y-83032761D01*
X206548952Y-82937523D02*
X206358476Y-83032761D01*
X205977523Y-83032761D01*
X205787047Y-82937523D01*
X205691809Y-82747047D01*
X205691809Y-81985142D01*
X205787047Y-81794666D01*
X205977523Y-81699428D01*
X206358476Y-81699428D01*
X206548952Y-81794666D01*
X206644190Y-81985142D01*
X206644190Y-82175619D01*
X205691809Y-82366095D01*
X207501333Y-83032761D02*
X207501333Y-81699428D01*
X207501333Y-82080380D02*
X207596571Y-81889904D01*
X207691809Y-81794666D01*
X207882285Y-81699428D01*
X208072761Y-81699428D01*
X199929904Y-87014666D02*
X199834666Y-86919428D01*
X199644190Y-86633714D01*
X199548952Y-86443238D01*
X199453714Y-86157523D01*
X199358476Y-85681333D01*
X199358476Y-85300380D01*
X199453714Y-84824190D01*
X199548952Y-84538476D01*
X199644190Y-84348000D01*
X199834666Y-84062285D01*
X199929904Y-83967047D01*
X200596571Y-84443238D02*
X200691809Y-84348000D01*
X200882285Y-84252761D01*
X201358476Y-84252761D01*
X201548952Y-84348000D01*
X201644190Y-84443238D01*
X201739428Y-84633714D01*
X201739428Y-84824190D01*
X201644190Y-85109904D01*
X200501333Y-86252761D01*
X201739428Y-86252761D01*
X202406095Y-87014666D02*
X202501333Y-86919428D01*
X202691809Y-86633714D01*
X202787047Y-86443238D01*
X202882285Y-86157523D01*
X202977523Y-85681333D01*
X202977523Y-85300380D01*
X202882285Y-84824190D01*
X202787047Y-84538476D01*
X202691809Y-84348000D01*
X202501333Y-84062285D01*
X202406095Y-83967047D01*
X179992238Y-114260380D02*
X180325571Y-115260380D01*
X180658904Y-114260380D01*
X180992238Y-115260380D02*
X180992238Y-114593714D01*
X180992238Y-114784190D02*
X181039857Y-114688952D01*
X181087476Y-114641333D01*
X181182714Y-114593714D01*
X181277952Y-114593714D01*
X181992238Y-115212761D02*
X181897000Y-115260380D01*
X181706523Y-115260380D01*
X181611285Y-115212761D01*
X181563666Y-115117523D01*
X181563666Y-114736571D01*
X181611285Y-114641333D01*
X181706523Y-114593714D01*
X181897000Y-114593714D01*
X181992238Y-114641333D01*
X182039857Y-114736571D01*
X182039857Y-114831809D01*
X181563666Y-114927047D01*
X182325571Y-114593714D02*
X182706523Y-114593714D01*
X182468428Y-115260380D02*
X182468428Y-114403238D01*
X182516047Y-114308000D01*
X182611285Y-114260380D01*
X182706523Y-114260380D01*
X183039857Y-115260380D02*
X183039857Y-114593714D01*
X183039857Y-114260380D02*
X182992238Y-114308000D01*
X183039857Y-114355619D01*
X183087476Y-114308000D01*
X183039857Y-114260380D01*
X183039857Y-114355619D01*
X179992238Y-111720380D02*
X180325571Y-112720380D01*
X180658904Y-111720380D01*
X180992238Y-112720380D02*
X180992238Y-112053714D01*
X180992238Y-111720380D02*
X180944619Y-111768000D01*
X180992238Y-111815619D01*
X181039857Y-111768000D01*
X180992238Y-111720380D01*
X180992238Y-111815619D01*
X181468428Y-112053714D02*
X181468428Y-112720380D01*
X181468428Y-112148952D02*
X181516047Y-112101333D01*
X181611285Y-112053714D01*
X181754142Y-112053714D01*
X181849380Y-112101333D01*
X181897000Y-112196571D01*
X181897000Y-112720380D01*
X179897000Y-121598000D02*
X180754142Y-121598000D01*
X180087476Y-122594666D02*
X180563666Y-122594666D01*
X179992238Y-122880380D02*
X180325571Y-121880380D01*
X180658904Y-122880380D01*
X180754142Y-121598000D02*
X181706523Y-121598000D01*
X181516047Y-122880380D02*
X180944619Y-122880380D01*
X181230333Y-122880380D02*
X181230333Y-121880380D01*
X181135095Y-122023238D01*
X181039857Y-122118476D01*
X180944619Y-122166095D01*
X217137000Y-76144380D02*
X216565571Y-76144380D01*
X216851285Y-76144380D02*
X216851285Y-75144380D01*
X216756047Y-75287238D01*
X216660809Y-75382476D01*
X216565571Y-75430095D01*
X217517952Y-75239619D02*
X217565571Y-75192000D01*
X217660809Y-75144380D01*
X217898904Y-75144380D01*
X217994142Y-75192000D01*
X218041761Y-75239619D01*
X218089380Y-75334857D01*
X218089380Y-75430095D01*
X218041761Y-75572952D01*
X217470333Y-76144380D01*
X218089380Y-76144380D01*
X218375095Y-75144380D02*
X218708428Y-76144380D01*
X219041761Y-75144380D01*
X169591476Y-112339428D02*
X170353380Y-112339428D01*
X169972428Y-112720380D02*
X169972428Y-111958476D01*
X171305761Y-111720380D02*
X170829571Y-111720380D01*
X170781952Y-112196571D01*
X170829571Y-112148952D01*
X170924809Y-112101333D01*
X171162904Y-112101333D01*
X171258142Y-112148952D01*
X171305761Y-112196571D01*
X171353380Y-112291809D01*
X171353380Y-112529904D01*
X171305761Y-112625142D01*
X171258142Y-112672761D01*
X171162904Y-112720380D01*
X170924809Y-112720380D01*
X170829571Y-112672761D01*
X170781952Y-112625142D01*
X171639095Y-111720380D02*
X171972428Y-112720380D01*
X172305761Y-111720380D01*
X133161000Y-106358000D02*
X134065761Y-106358000D01*
X133399095Y-107116571D02*
X133732428Y-107116571D01*
X133875285Y-107640380D02*
X133399095Y-107640380D01*
X133399095Y-106640380D01*
X133875285Y-106640380D01*
X134065761Y-106358000D02*
X135113380Y-106358000D01*
X134494333Y-106640380D02*
X134684809Y-106640380D01*
X134780047Y-106688000D01*
X134875285Y-106783238D01*
X134922904Y-106973714D01*
X134922904Y-107307047D01*
X134875285Y-107497523D01*
X134780047Y-107592761D01*
X134684809Y-107640380D01*
X134494333Y-107640380D01*
X134399095Y-107592761D01*
X134303857Y-107497523D01*
X134256238Y-107307047D01*
X134256238Y-106973714D01*
X134303857Y-106783238D01*
X134399095Y-106688000D01*
X134494333Y-106640380D01*
X179897000Y-87562000D02*
X180754142Y-87562000D01*
X180087476Y-88558666D02*
X180563666Y-88558666D01*
X179992238Y-88844380D02*
X180325571Y-87844380D01*
X180658904Y-88844380D01*
X180754142Y-87562000D02*
X181706523Y-87562000D01*
X181516047Y-88844380D02*
X180944619Y-88844380D01*
X181230333Y-88844380D02*
X181230333Y-87844380D01*
X181135095Y-87987238D01*
X181039857Y-88082476D01*
X180944619Y-88130095D01*
X170353380Y-106688000D02*
X170258142Y-106640380D01*
X170115285Y-106640380D01*
X169972428Y-106688000D01*
X169877190Y-106783238D01*
X169829571Y-106878476D01*
X169781952Y-107068952D01*
X169781952Y-107211809D01*
X169829571Y-107402285D01*
X169877190Y-107497523D01*
X169972428Y-107592761D01*
X170115285Y-107640380D01*
X170210523Y-107640380D01*
X170353380Y-107592761D01*
X170401000Y-107545142D01*
X170401000Y-107211809D01*
X170210523Y-107211809D01*
X170829571Y-106973714D02*
X170829571Y-107640380D01*
X170829571Y-107068952D02*
X170877190Y-107021333D01*
X170972428Y-106973714D01*
X171115285Y-106973714D01*
X171210523Y-107021333D01*
X171258142Y-107116571D01*
X171258142Y-107640380D01*
X172162904Y-107640380D02*
X172162904Y-106640380D01*
X172162904Y-107592761D02*
X172067666Y-107640380D01*
X171877190Y-107640380D01*
X171781952Y-107592761D01*
X171734333Y-107545142D01*
X171686714Y-107449904D01*
X171686714Y-107164190D01*
X171734333Y-107068952D01*
X171781952Y-107021333D01*
X171877190Y-106973714D01*
X172067666Y-106973714D01*
X172162904Y-107021333D01*
X121887190Y-102294000D02*
X122744333Y-102294000D01*
X122077666Y-103290666D02*
X122553857Y-103290666D01*
X121982428Y-103576380D02*
X122315761Y-102576380D01*
X122649095Y-103576380D01*
X122744333Y-102294000D02*
X123696714Y-102294000D01*
X123506238Y-103576380D02*
X122934809Y-103576380D01*
X123220523Y-103576380D02*
X123220523Y-102576380D01*
X123125285Y-102719238D01*
X123030047Y-102814476D01*
X122934809Y-102862095D01*
X123696714Y-102294000D02*
X124458619Y-102294000D01*
X123696714Y-103671619D02*
X124458619Y-103671619D01*
X124458619Y-102294000D02*
X125411000Y-102294000D01*
X124649095Y-102671619D02*
X124696714Y-102624000D01*
X124791952Y-102576380D01*
X125030047Y-102576380D01*
X125125285Y-102624000D01*
X125172904Y-102671619D01*
X125220523Y-102766857D01*
X125220523Y-102862095D01*
X125172904Y-103004952D01*
X124601476Y-103576380D01*
X125220523Y-103576380D01*
X169591476Y-78303428D02*
X170353380Y-78303428D01*
X169972428Y-78684380D02*
X169972428Y-77922476D01*
X171305761Y-77684380D02*
X170829571Y-77684380D01*
X170781952Y-78160571D01*
X170829571Y-78112952D01*
X170924809Y-78065333D01*
X171162904Y-78065333D01*
X171258142Y-78112952D01*
X171305761Y-78160571D01*
X171353380Y-78255809D01*
X171353380Y-78493904D01*
X171305761Y-78589142D01*
X171258142Y-78636761D01*
X171162904Y-78684380D01*
X170924809Y-78684380D01*
X170829571Y-78636761D01*
X170781952Y-78589142D01*
X171639095Y-77684380D02*
X171972428Y-78684380D01*
X172305761Y-77684380D01*
X133161000Y-90102000D02*
X134018142Y-90102000D01*
X133351476Y-91098666D02*
X133827666Y-91098666D01*
X133256238Y-91384380D02*
X133589571Y-90384380D01*
X133922904Y-91384380D01*
X134018142Y-90102000D02*
X134970523Y-90102000D01*
X134446714Y-90384380D02*
X134541952Y-90384380D01*
X134637190Y-90432000D01*
X134684809Y-90479619D01*
X134732428Y-90574857D01*
X134780047Y-90765333D01*
X134780047Y-91003428D01*
X134732428Y-91193904D01*
X134684809Y-91289142D01*
X134637190Y-91336761D01*
X134541952Y-91384380D01*
X134446714Y-91384380D01*
X134351476Y-91336761D01*
X134303857Y-91289142D01*
X134256238Y-91193904D01*
X134208619Y-91003428D01*
X134208619Y-90765333D01*
X134256238Y-90574857D01*
X134303857Y-90479619D01*
X134351476Y-90432000D01*
X134446714Y-90384380D01*
X179897000Y-69782000D02*
X180801761Y-69782000D01*
X180135095Y-70540571D02*
X180468428Y-70540571D01*
X180611285Y-71064380D02*
X180135095Y-71064380D01*
X180135095Y-70064380D01*
X180611285Y-70064380D01*
X180801761Y-69782000D02*
X181277952Y-69782000D01*
X181039857Y-71064380D02*
X181039857Y-70064380D01*
X99076761Y-98894761D02*
X98124380Y-98894761D01*
X98029142Y-99847142D01*
X98124380Y-99751904D01*
X98314857Y-99656666D01*
X98791047Y-99656666D01*
X98981523Y-99751904D01*
X99076761Y-99847142D01*
X99172000Y-100037619D01*
X99172000Y-100513809D01*
X99076761Y-100704285D01*
X98981523Y-100799523D01*
X98791047Y-100894761D01*
X98314857Y-100894761D01*
X98124380Y-100799523D01*
X98029142Y-100704285D01*
X100029142Y-100132857D02*
X101552952Y-100132857D01*
X102505333Y-100894761D02*
X102505333Y-98894761D01*
X102505333Y-99656666D02*
X102695809Y-99561428D01*
X103076761Y-99561428D01*
X103267238Y-99656666D01*
X103362476Y-99751904D01*
X103457714Y-99942380D01*
X103457714Y-100513809D01*
X103362476Y-100704285D01*
X103267238Y-100799523D01*
X103076761Y-100894761D01*
X102695809Y-100894761D01*
X102505333Y-100799523D01*
X104314857Y-100894761D02*
X104314857Y-99561428D01*
X104314857Y-98894761D02*
X104219619Y-98990000D01*
X104314857Y-99085238D01*
X104410095Y-98990000D01*
X104314857Y-98894761D01*
X104314857Y-99085238D01*
X104981523Y-99561428D02*
X105743428Y-99561428D01*
X105267238Y-98894761D02*
X105267238Y-100609047D01*
X105362476Y-100799523D01*
X105552952Y-100894761D01*
X105743428Y-100894761D01*
X107838666Y-100323333D02*
X108791047Y-100323333D01*
X107648190Y-100894761D02*
X108314857Y-98894761D01*
X108981523Y-100894761D01*
X109648190Y-100894761D02*
X109648190Y-98894761D01*
X110124380Y-98894761D01*
X110410095Y-98990000D01*
X110600571Y-99180476D01*
X110695809Y-99370952D01*
X110791047Y-99751904D01*
X110791047Y-100037619D01*
X110695809Y-100418571D01*
X110600571Y-100609047D01*
X110410095Y-100799523D01*
X110124380Y-100894761D01*
X109648190Y-100894761D01*
X112791047Y-100704285D02*
X112695809Y-100799523D01*
X112410095Y-100894761D01*
X112219619Y-100894761D01*
X111933904Y-100799523D01*
X111743428Y-100609047D01*
X111648190Y-100418571D01*
X111552952Y-100037619D01*
X111552952Y-99751904D01*
X111648190Y-99370952D01*
X111743428Y-99180476D01*
X111933904Y-98990000D01*
X112219619Y-98894761D01*
X112410095Y-98894761D01*
X112695809Y-98990000D01*
X112791047Y-99085238D01*
X92505333Y-103067142D02*
X93172000Y-103067142D01*
X93457714Y-104114761D02*
X92505333Y-104114761D01*
X92505333Y-102114761D01*
X93457714Y-102114761D01*
X94314857Y-102781428D02*
X94314857Y-104114761D01*
X94314857Y-102971904D02*
X94410095Y-102876666D01*
X94600571Y-102781428D01*
X94886285Y-102781428D01*
X95076761Y-102876666D01*
X95172000Y-103067142D01*
X95172000Y-104114761D01*
X96981523Y-104019523D02*
X96791047Y-104114761D01*
X96410095Y-104114761D01*
X96219619Y-104019523D01*
X96124380Y-103924285D01*
X96029142Y-103733809D01*
X96029142Y-103162380D01*
X96124380Y-102971904D01*
X96219619Y-102876666D01*
X96410095Y-102781428D01*
X96791047Y-102781428D01*
X96981523Y-102876666D01*
X98124380Y-104114761D02*
X97933904Y-104019523D01*
X97838666Y-103924285D01*
X97743428Y-103733809D01*
X97743428Y-103162380D01*
X97838666Y-102971904D01*
X97933904Y-102876666D01*
X98124380Y-102781428D01*
X98410095Y-102781428D01*
X98600571Y-102876666D01*
X98695809Y-102971904D01*
X98791047Y-103162380D01*
X98791047Y-103733809D01*
X98695809Y-103924285D01*
X98600571Y-104019523D01*
X98410095Y-104114761D01*
X98124380Y-104114761D01*
X100505333Y-104114761D02*
X100505333Y-102114761D01*
X100505333Y-104019523D02*
X100314857Y-104114761D01*
X99933904Y-104114761D01*
X99743428Y-104019523D01*
X99648190Y-103924285D01*
X99552952Y-103733809D01*
X99552952Y-103162380D01*
X99648190Y-102971904D01*
X99743428Y-102876666D01*
X99933904Y-102781428D01*
X100314857Y-102781428D01*
X100505333Y-102876666D01*
X102219619Y-104019523D02*
X102029142Y-104114761D01*
X101648190Y-104114761D01*
X101457714Y-104019523D01*
X101362476Y-103829047D01*
X101362476Y-103067142D01*
X101457714Y-102876666D01*
X101648190Y-102781428D01*
X102029142Y-102781428D01*
X102219619Y-102876666D01*
X102314857Y-103067142D01*
X102314857Y-103257619D01*
X101362476Y-103448095D01*
X103172000Y-104114761D02*
X103172000Y-102781428D01*
X103172000Y-103162380D02*
X103267238Y-102971904D01*
X103362476Y-102876666D01*
X103552952Y-102781428D01*
X103743428Y-102781428D01*
X107552952Y-104114761D02*
X107457714Y-104114761D01*
X107267238Y-104019523D01*
X106981523Y-103733809D01*
X106505333Y-103162380D01*
X106314857Y-102876666D01*
X106219619Y-102590952D01*
X106219619Y-102400476D01*
X106314857Y-102210000D01*
X106505333Y-102114761D01*
X106600571Y-102114761D01*
X106791047Y-102210000D01*
X106886285Y-102400476D01*
X106886285Y-102495714D01*
X106791047Y-102686190D01*
X106695809Y-102781428D01*
X106124380Y-103162380D01*
X106029142Y-103257619D01*
X105933904Y-103448095D01*
X105933904Y-103733809D01*
X106029142Y-103924285D01*
X106124380Y-104019523D01*
X106314857Y-104114761D01*
X106600571Y-104114761D01*
X106791047Y-104019523D01*
X106886285Y-103924285D01*
X107172000Y-103543333D01*
X107267238Y-103257619D01*
X107267238Y-103067142D01*
X111076761Y-103924285D02*
X110981523Y-104019523D01*
X110695809Y-104114761D01*
X110505333Y-104114761D01*
X110219619Y-104019523D01*
X110029142Y-103829047D01*
X109933904Y-103638571D01*
X109838666Y-103257619D01*
X109838666Y-102971904D01*
X109933904Y-102590952D01*
X110029142Y-102400476D01*
X110219619Y-102210000D01*
X110505333Y-102114761D01*
X110695809Y-102114761D01*
X110981523Y-102210000D01*
X111076761Y-102305238D01*
X112219619Y-104114761D02*
X112029142Y-104019523D01*
X111933904Y-103924285D01*
X111838666Y-103733809D01*
X111838666Y-103162380D01*
X111933904Y-102971904D01*
X112029142Y-102876666D01*
X112219619Y-102781428D01*
X112505333Y-102781428D01*
X112695809Y-102876666D01*
X112791047Y-102971904D01*
X112886285Y-103162380D01*
X112886285Y-103733809D01*
X112791047Y-103924285D01*
X112695809Y-104019523D01*
X112505333Y-104114761D01*
X112219619Y-104114761D01*
X113743428Y-102781428D02*
X113743428Y-104114761D01*
X113743428Y-102971904D02*
X113838666Y-102876666D01*
X114029142Y-102781428D01*
X114314857Y-102781428D01*
X114505333Y-102876666D01*
X114600571Y-103067142D01*
X114600571Y-104114761D01*
X115267238Y-102781428D02*
X116029142Y-102781428D01*
X115552952Y-102114761D02*
X115552952Y-103829047D01*
X115648190Y-104019523D01*
X115838666Y-104114761D01*
X116029142Y-104114761D01*
X116695809Y-104114761D02*
X116695809Y-102781428D01*
X116695809Y-103162380D02*
X116791047Y-102971904D01*
X116886285Y-102876666D01*
X117076761Y-102781428D01*
X117267238Y-102781428D01*
X118219619Y-104114761D02*
X118029142Y-104019523D01*
X117933904Y-103924285D01*
X117838666Y-103733809D01*
X117838666Y-103162380D01*
X117933904Y-102971904D01*
X118029142Y-102876666D01*
X118219619Y-102781428D01*
X118505333Y-102781428D01*
X118695809Y-102876666D01*
X118791047Y-102971904D01*
X118886285Y-103162380D01*
X118886285Y-103733809D01*
X118791047Y-103924285D01*
X118695809Y-104019523D01*
X118505333Y-104114761D01*
X118219619Y-104114761D01*
X120029142Y-104114761D02*
X119838666Y-104019523D01*
X119743428Y-103829047D01*
X119743428Y-102114761D01*
X105672000Y-79074619D02*
X105624380Y-79169857D01*
X105624380Y-79312714D01*
X105672000Y-79455571D01*
X105767238Y-79550809D01*
X105862476Y-79598428D01*
X106052952Y-79646047D01*
X106195809Y-79646047D01*
X106386285Y-79598428D01*
X106481523Y-79550809D01*
X106576761Y-79455571D01*
X106624380Y-79312714D01*
X106624380Y-79217476D01*
X106576761Y-79074619D01*
X106529142Y-79027000D01*
X106195809Y-79027000D01*
X106195809Y-79217476D01*
X105957714Y-78598428D02*
X106624380Y-78598428D01*
X106052952Y-78598428D02*
X106005333Y-78550809D01*
X105957714Y-78455571D01*
X105957714Y-78312714D01*
X106005333Y-78217476D01*
X106100571Y-78169857D01*
X106624380Y-78169857D01*
X106624380Y-77265095D02*
X105624380Y-77265095D01*
X106576761Y-77265095D02*
X106624380Y-77360333D01*
X106624380Y-77550809D01*
X106576761Y-77646047D01*
X106529142Y-77693666D01*
X106433904Y-77741285D01*
X106148190Y-77741285D01*
X106052952Y-77693666D01*
X106005333Y-77646047D01*
X105957714Y-77550809D01*
X105957714Y-77360333D01*
X106005333Y-77265095D01*
X179897000Y-106358000D02*
X180801761Y-106358000D01*
X180135095Y-107116571D02*
X180468428Y-107116571D01*
X180611285Y-107640380D02*
X180135095Y-107640380D01*
X180135095Y-106640380D01*
X180611285Y-106640380D01*
X180801761Y-106358000D02*
X181849380Y-106358000D01*
X181230333Y-106640380D02*
X181420809Y-106640380D01*
X181516047Y-106688000D01*
X181611285Y-106783238D01*
X181658904Y-106973714D01*
X181658904Y-107307047D01*
X181611285Y-107497523D01*
X181516047Y-107592761D01*
X181420809Y-107640380D01*
X181230333Y-107640380D01*
X181135095Y-107592761D01*
X181039857Y-107497523D01*
X180992238Y-107307047D01*
X180992238Y-106973714D01*
X181039857Y-106783238D01*
X181135095Y-106688000D01*
X181230333Y-106640380D01*
X179897000Y-108898000D02*
X180897000Y-108898000D01*
X180658904Y-109228000D02*
X180563666Y-109180380D01*
X180420809Y-109180380D01*
X180277952Y-109228000D01*
X180182714Y-109323238D01*
X180135095Y-109418476D01*
X180087476Y-109608952D01*
X180087476Y-109751809D01*
X180135095Y-109942285D01*
X180182714Y-110037523D01*
X180277952Y-110132761D01*
X180420809Y-110180380D01*
X180516047Y-110180380D01*
X180658904Y-110132761D01*
X180706523Y-110085142D01*
X180706523Y-109751809D01*
X180516047Y-109751809D01*
X180897000Y-108898000D02*
X181849380Y-108898000D01*
X181087476Y-110132761D02*
X181230333Y-110180380D01*
X181468428Y-110180380D01*
X181563666Y-110132761D01*
X181611285Y-110085142D01*
X181658904Y-109989904D01*
X181658904Y-109894666D01*
X181611285Y-109799428D01*
X181563666Y-109751809D01*
X181468428Y-109704190D01*
X181277952Y-109656571D01*
X181182714Y-109608952D01*
X181135095Y-109561333D01*
X181087476Y-109466095D01*
X181087476Y-109370857D01*
X181135095Y-109275619D01*
X181182714Y-109228000D01*
X181277952Y-109180380D01*
X181516047Y-109180380D01*
X181658904Y-109228000D01*
X90709047Y-72416666D02*
X91185238Y-72416666D01*
X90613809Y-72702380D02*
X90947142Y-71702380D01*
X91280476Y-72702380D01*
X91613809Y-72035714D02*
X91613809Y-72702380D01*
X91613809Y-72130952D02*
X91661428Y-72083333D01*
X91756666Y-72035714D01*
X91899523Y-72035714D01*
X91994761Y-72083333D01*
X92042380Y-72178571D01*
X92042380Y-72702380D01*
X92947142Y-72702380D02*
X92947142Y-72178571D01*
X92899523Y-72083333D01*
X92804285Y-72035714D01*
X92613809Y-72035714D01*
X92518571Y-72083333D01*
X92947142Y-72654761D02*
X92851904Y-72702380D01*
X92613809Y-72702380D01*
X92518571Y-72654761D01*
X92470952Y-72559523D01*
X92470952Y-72464285D01*
X92518571Y-72369047D01*
X92613809Y-72321428D01*
X92851904Y-72321428D01*
X92947142Y-72273809D01*
X93566190Y-72702380D02*
X93470952Y-72654761D01*
X93423333Y-72559523D01*
X93423333Y-71702380D01*
X94090000Y-72702380D02*
X93994761Y-72654761D01*
X93947142Y-72607142D01*
X93899523Y-72511904D01*
X93899523Y-72226190D01*
X93947142Y-72130952D01*
X93994761Y-72083333D01*
X94090000Y-72035714D01*
X94232857Y-72035714D01*
X94328095Y-72083333D01*
X94375714Y-72130952D01*
X94423333Y-72226190D01*
X94423333Y-72511904D01*
X94375714Y-72607142D01*
X94328095Y-72654761D01*
X94232857Y-72702380D01*
X94090000Y-72702380D01*
X95280476Y-72035714D02*
X95280476Y-72845238D01*
X95232857Y-72940476D01*
X95185238Y-72988095D01*
X95090000Y-73035714D01*
X94947142Y-73035714D01*
X94851904Y-72988095D01*
X95280476Y-72654761D02*
X95185238Y-72702380D01*
X94994761Y-72702380D01*
X94899523Y-72654761D01*
X94851904Y-72607142D01*
X94804285Y-72511904D01*
X94804285Y-72226190D01*
X94851904Y-72130952D01*
X94899523Y-72083333D01*
X94994761Y-72035714D01*
X95185238Y-72035714D01*
X95280476Y-72083333D01*
X96518571Y-72702380D02*
X96518571Y-71702380D01*
X96994761Y-72035714D02*
X96994761Y-72702380D01*
X96994761Y-72130952D02*
X97042380Y-72083333D01*
X97137619Y-72035714D01*
X97280476Y-72035714D01*
X97375714Y-72083333D01*
X97423333Y-72178571D01*
X97423333Y-72702380D01*
X216327476Y-78303428D02*
X217089380Y-78303428D01*
X216708428Y-78684380D02*
X216708428Y-77922476D01*
X218041761Y-77684380D02*
X217565571Y-77684380D01*
X217517952Y-78160571D01*
X217565571Y-78112952D01*
X217660809Y-78065333D01*
X217898904Y-78065333D01*
X217994142Y-78112952D01*
X218041761Y-78160571D01*
X218089380Y-78255809D01*
X218089380Y-78493904D01*
X218041761Y-78589142D01*
X217994142Y-78636761D01*
X217898904Y-78684380D01*
X217660809Y-78684380D01*
X217565571Y-78636761D01*
X217517952Y-78589142D01*
X218375095Y-77684380D02*
X218708428Y-78684380D01*
X219041761Y-77684380D01*
X150574857Y-109898761D02*
X151812952Y-109898761D01*
X151146285Y-110660666D01*
X151432000Y-110660666D01*
X151622476Y-110755904D01*
X151717714Y-110851142D01*
X151812952Y-111041619D01*
X151812952Y-111517809D01*
X151717714Y-111708285D01*
X151622476Y-111803523D01*
X151432000Y-111898761D01*
X150860571Y-111898761D01*
X150670095Y-111803523D01*
X150574857Y-111708285D01*
X152670095Y-111136857D02*
X154193904Y-111136857D01*
X155146285Y-111898761D02*
X155146285Y-109898761D01*
X155146285Y-110660666D02*
X155336761Y-110565428D01*
X155717714Y-110565428D01*
X155908190Y-110660666D01*
X156003428Y-110755904D01*
X156098666Y-110946380D01*
X156098666Y-111517809D01*
X156003428Y-111708285D01*
X155908190Y-111803523D01*
X155717714Y-111898761D01*
X155336761Y-111898761D01*
X155146285Y-111803523D01*
X156955809Y-111898761D02*
X156955809Y-110565428D01*
X156955809Y-109898761D02*
X156860571Y-109994000D01*
X156955809Y-110089238D01*
X157051047Y-109994000D01*
X156955809Y-109898761D01*
X156955809Y-110089238D01*
X157622476Y-110565428D02*
X158384380Y-110565428D01*
X157908190Y-109898761D02*
X157908190Y-111613047D01*
X158003428Y-111803523D01*
X158193904Y-111898761D01*
X158384380Y-111898761D01*
X141193904Y-114547333D02*
X142146285Y-114547333D01*
X141003428Y-115118761D02*
X141670095Y-113118761D01*
X142336761Y-115118761D01*
X143003428Y-113785428D02*
X143003428Y-115118761D01*
X143003428Y-113975904D02*
X143098666Y-113880666D01*
X143289142Y-113785428D01*
X143574857Y-113785428D01*
X143765333Y-113880666D01*
X143860571Y-114071142D01*
X143860571Y-115118761D01*
X145670095Y-115118761D02*
X145670095Y-114071142D01*
X145574857Y-113880666D01*
X145384380Y-113785428D01*
X145003428Y-113785428D01*
X144812952Y-113880666D01*
X145670095Y-115023523D02*
X145479619Y-115118761D01*
X145003428Y-115118761D01*
X144812952Y-115023523D01*
X144717714Y-114833047D01*
X144717714Y-114642571D01*
X144812952Y-114452095D01*
X145003428Y-114356857D01*
X145479619Y-114356857D01*
X145670095Y-114261619D01*
X146908190Y-115118761D02*
X146717714Y-115023523D01*
X146622476Y-114833047D01*
X146622476Y-113118761D01*
X147955809Y-115118761D02*
X147765333Y-115023523D01*
X147670095Y-114928285D01*
X147574857Y-114737809D01*
X147574857Y-114166380D01*
X147670095Y-113975904D01*
X147765333Y-113880666D01*
X147955809Y-113785428D01*
X148241523Y-113785428D01*
X148432000Y-113880666D01*
X148527238Y-113975904D01*
X148622476Y-114166380D01*
X148622476Y-114737809D01*
X148527238Y-114928285D01*
X148432000Y-115023523D01*
X148241523Y-115118761D01*
X147955809Y-115118761D01*
X150336761Y-113785428D02*
X150336761Y-115404476D01*
X150241523Y-115594952D01*
X150146285Y-115690190D01*
X149955809Y-115785428D01*
X149670095Y-115785428D01*
X149479619Y-115690190D01*
X150336761Y-115023523D02*
X150146285Y-115118761D01*
X149765333Y-115118761D01*
X149574857Y-115023523D01*
X149479619Y-114928285D01*
X149384380Y-114737809D01*
X149384380Y-114166380D01*
X149479619Y-113975904D01*
X149574857Y-113880666D01*
X149765333Y-113785428D01*
X150146285Y-113785428D01*
X150336761Y-113880666D01*
X152527238Y-113785428D02*
X153289142Y-113785428D01*
X152812952Y-113118761D02*
X152812952Y-114833047D01*
X152908190Y-115023523D01*
X153098666Y-115118761D01*
X153289142Y-115118761D01*
X154241523Y-115118761D02*
X154051047Y-115023523D01*
X153955809Y-114928285D01*
X153860571Y-114737809D01*
X153860571Y-114166380D01*
X153955809Y-113975904D01*
X154051047Y-113880666D01*
X154241523Y-113785428D01*
X154527238Y-113785428D01*
X154717714Y-113880666D01*
X154812952Y-113975904D01*
X154908190Y-114166380D01*
X154908190Y-114737809D01*
X154812952Y-114928285D01*
X154717714Y-115023523D01*
X154527238Y-115118761D01*
X154241523Y-115118761D01*
X157289142Y-115118761D02*
X157289142Y-113118761D01*
X157765333Y-113118761D01*
X158051047Y-113214000D01*
X158241523Y-113404476D01*
X158336761Y-113594952D01*
X158432000Y-113975904D01*
X158432000Y-114261619D01*
X158336761Y-114642571D01*
X158241523Y-114833047D01*
X158051047Y-115023523D01*
X157765333Y-115118761D01*
X157289142Y-115118761D01*
X159289142Y-115118761D02*
X159289142Y-113785428D01*
X159289142Y-113118761D02*
X159193904Y-113214000D01*
X159289142Y-113309238D01*
X159384380Y-113214000D01*
X159289142Y-113118761D01*
X159289142Y-113309238D01*
X161098666Y-113785428D02*
X161098666Y-115404476D01*
X161003428Y-115594952D01*
X160908190Y-115690190D01*
X160717714Y-115785428D01*
X160432000Y-115785428D01*
X160241523Y-115690190D01*
X161098666Y-115023523D02*
X160908190Y-115118761D01*
X160527238Y-115118761D01*
X160336761Y-115023523D01*
X160241523Y-114928285D01*
X160146285Y-114737809D01*
X160146285Y-114166380D01*
X160241523Y-113975904D01*
X160336761Y-113880666D01*
X160527238Y-113785428D01*
X160908190Y-113785428D01*
X161098666Y-113880666D01*
X162051047Y-115118761D02*
X162051047Y-113785428D01*
X162051047Y-113118761D02*
X161955809Y-113214000D01*
X162051047Y-113309238D01*
X162146285Y-113214000D01*
X162051047Y-113118761D01*
X162051047Y-113309238D01*
X162717714Y-113785428D02*
X163479619Y-113785428D01*
X163003428Y-113118761D02*
X163003428Y-114833047D01*
X163098666Y-115023523D01*
X163289142Y-115118761D01*
X163479619Y-115118761D01*
X165003428Y-115118761D02*
X165003428Y-114071142D01*
X164908190Y-113880666D01*
X164717714Y-113785428D01*
X164336761Y-113785428D01*
X164146285Y-113880666D01*
X165003428Y-115023523D02*
X164812952Y-115118761D01*
X164336761Y-115118761D01*
X164146285Y-115023523D01*
X164051047Y-114833047D01*
X164051047Y-114642571D01*
X164146285Y-114452095D01*
X164336761Y-114356857D01*
X164812952Y-114356857D01*
X165003428Y-114261619D01*
X166241523Y-115118761D02*
X166051047Y-115023523D01*
X165955809Y-114833047D01*
X165955809Y-113118761D01*
X148955809Y-118148285D02*
X148860571Y-118243523D01*
X148574857Y-118338761D01*
X148384380Y-118338761D01*
X148098666Y-118243523D01*
X147908190Y-118053047D01*
X147812952Y-117862571D01*
X147717714Y-117481619D01*
X147717714Y-117195904D01*
X147812952Y-116814952D01*
X147908190Y-116624476D01*
X148098666Y-116434000D01*
X148384380Y-116338761D01*
X148574857Y-116338761D01*
X148860571Y-116434000D01*
X148955809Y-116529238D01*
X150098666Y-118338761D02*
X149908190Y-118243523D01*
X149812952Y-118148285D01*
X149717714Y-117957809D01*
X149717714Y-117386380D01*
X149812952Y-117195904D01*
X149908190Y-117100666D01*
X150098666Y-117005428D01*
X150384380Y-117005428D01*
X150574857Y-117100666D01*
X150670095Y-117195904D01*
X150765333Y-117386380D01*
X150765333Y-117957809D01*
X150670095Y-118148285D01*
X150574857Y-118243523D01*
X150384380Y-118338761D01*
X150098666Y-118338761D01*
X151622476Y-117005428D02*
X151622476Y-118338761D01*
X151622476Y-117195904D02*
X151717714Y-117100666D01*
X151908190Y-117005428D01*
X152193904Y-117005428D01*
X152384380Y-117100666D01*
X152479619Y-117291142D01*
X152479619Y-118338761D01*
X153241523Y-117005428D02*
X153717714Y-118338761D01*
X154193904Y-117005428D01*
X155717714Y-118243523D02*
X155527238Y-118338761D01*
X155146285Y-118338761D01*
X154955809Y-118243523D01*
X154860571Y-118053047D01*
X154860571Y-117291142D01*
X154955809Y-117100666D01*
X155146285Y-117005428D01*
X155527238Y-117005428D01*
X155717714Y-117100666D01*
X155812952Y-117291142D01*
X155812952Y-117481619D01*
X154860571Y-117672095D01*
X156670095Y-118338761D02*
X156670095Y-117005428D01*
X156670095Y-117386380D02*
X156765333Y-117195904D01*
X156860571Y-117100666D01*
X157051047Y-117005428D01*
X157241523Y-117005428D01*
X157622476Y-117005428D02*
X158384380Y-117005428D01*
X157908190Y-116338761D02*
X157908190Y-118053047D01*
X158003428Y-118243523D01*
X158193904Y-118338761D01*
X158384380Y-118338761D01*
X159812952Y-118243523D02*
X159622476Y-118338761D01*
X159241523Y-118338761D01*
X159051047Y-118243523D01*
X158955809Y-118053047D01*
X158955809Y-117291142D01*
X159051047Y-117100666D01*
X159241523Y-117005428D01*
X159622476Y-117005428D01*
X159812952Y-117100666D01*
X159908190Y-117291142D01*
X159908190Y-117481619D01*
X158955809Y-117672095D01*
X160765333Y-118338761D02*
X160765333Y-117005428D01*
X160765333Y-117386380D02*
X160860571Y-117195904D01*
X160955809Y-117100666D01*
X161146285Y-117005428D01*
X161336761Y-117005428D01*
X153193904Y-122320666D02*
X153098666Y-122225428D01*
X152908190Y-121939714D01*
X152812952Y-121749238D01*
X152717714Y-121463523D01*
X152622476Y-120987333D01*
X152622476Y-120606380D01*
X152717714Y-120130190D01*
X152812952Y-119844476D01*
X152908190Y-119654000D01*
X153098666Y-119368285D01*
X153193904Y-119273047D01*
X155003428Y-121558761D02*
X153860571Y-121558761D01*
X154432000Y-121558761D02*
X154432000Y-119558761D01*
X154241523Y-119844476D01*
X154051047Y-120034952D01*
X153860571Y-120130190D01*
X155670095Y-122320666D02*
X155765333Y-122225428D01*
X155955809Y-121939714D01*
X156051047Y-121749238D01*
X156146285Y-121463523D01*
X156241523Y-120987333D01*
X156241523Y-120606380D01*
X156146285Y-120130190D01*
X156051047Y-119844476D01*
X155955809Y-119654000D01*
X155765333Y-119368285D01*
X155670095Y-119273047D01*
X121887190Y-81974000D02*
X122744333Y-81974000D01*
X122077666Y-82970666D02*
X122553857Y-82970666D01*
X121982428Y-83256380D02*
X122315761Y-82256380D01*
X122649095Y-83256380D01*
X122744333Y-81974000D02*
X123696714Y-81974000D01*
X122887190Y-82256380D02*
X123506238Y-82256380D01*
X123172904Y-82637333D01*
X123315761Y-82637333D01*
X123411000Y-82684952D01*
X123458619Y-82732571D01*
X123506238Y-82827809D01*
X123506238Y-83065904D01*
X123458619Y-83161142D01*
X123411000Y-83208761D01*
X123315761Y-83256380D01*
X123030047Y-83256380D01*
X122934809Y-83208761D01*
X122887190Y-83161142D01*
X123696714Y-81974000D02*
X124458619Y-81974000D01*
X123696714Y-83351619D02*
X124458619Y-83351619D01*
X124458619Y-81974000D02*
X125411000Y-81974000D01*
X124649095Y-82351619D02*
X124696714Y-82304000D01*
X124791952Y-82256380D01*
X125030047Y-82256380D01*
X125125285Y-82304000D01*
X125172904Y-82351619D01*
X125220523Y-82446857D01*
X125220523Y-82542095D01*
X125172904Y-82684952D01*
X124601476Y-83256380D01*
X125220523Y-83256380D01*
X88266428Y-113212571D02*
X88409285Y-113260190D01*
X88456904Y-113307809D01*
X88504523Y-113403047D01*
X88504523Y-113545904D01*
X88456904Y-113641142D01*
X88409285Y-113688761D01*
X88314047Y-113736380D01*
X87933095Y-113736380D01*
X87933095Y-112736380D01*
X88266428Y-112736380D01*
X88361666Y-112784000D01*
X88409285Y-112831619D01*
X88456904Y-112926857D01*
X88456904Y-113022095D01*
X88409285Y-113117333D01*
X88361666Y-113164952D01*
X88266428Y-113212571D01*
X87933095Y-113212571D01*
X89409285Y-112736380D02*
X88933095Y-112736380D01*
X88885476Y-113212571D01*
X88933095Y-113164952D01*
X89028333Y-113117333D01*
X89266428Y-113117333D01*
X89361666Y-113164952D01*
X89409285Y-113212571D01*
X89456904Y-113307809D01*
X89456904Y-113545904D01*
X89409285Y-113641142D01*
X89361666Y-113688761D01*
X89266428Y-113736380D01*
X89028333Y-113736380D01*
X88933095Y-113688761D01*
X88885476Y-113641142D01*
X121887190Y-107374000D02*
X122744333Y-107374000D01*
X122077666Y-108370666D02*
X122553857Y-108370666D01*
X121982428Y-108656380D02*
X122315761Y-107656380D01*
X122649095Y-108656380D01*
X122744333Y-107374000D02*
X123696714Y-107374000D01*
X123506238Y-108656380D02*
X122934809Y-108656380D01*
X123220523Y-108656380D02*
X123220523Y-107656380D01*
X123125285Y-107799238D01*
X123030047Y-107894476D01*
X122934809Y-107942095D01*
X123696714Y-107374000D02*
X124458619Y-107374000D01*
X123696714Y-108751619D02*
X124458619Y-108751619D01*
X124458619Y-107374000D02*
X125411000Y-107374000D01*
X124887190Y-107656380D02*
X124982428Y-107656380D01*
X125077666Y-107704000D01*
X125125285Y-107751619D01*
X125172904Y-107846857D01*
X125220523Y-108037333D01*
X125220523Y-108275428D01*
X125172904Y-108465904D01*
X125125285Y-108561142D01*
X125077666Y-108608761D01*
X124982428Y-108656380D01*
X124887190Y-108656380D01*
X124791952Y-108608761D01*
X124744333Y-108561142D01*
X124696714Y-108465904D01*
X124649095Y-108275428D01*
X124649095Y-108037333D01*
X124696714Y-107846857D01*
X124744333Y-107751619D01*
X124791952Y-107704000D01*
X124887190Y-107656380D01*
X88266428Y-118292571D02*
X88409285Y-118340190D01*
X88456904Y-118387809D01*
X88504523Y-118483047D01*
X88504523Y-118625904D01*
X88456904Y-118721142D01*
X88409285Y-118768761D01*
X88314047Y-118816380D01*
X87933095Y-118816380D01*
X87933095Y-117816380D01*
X88266428Y-117816380D01*
X88361666Y-117864000D01*
X88409285Y-117911619D01*
X88456904Y-118006857D01*
X88456904Y-118102095D01*
X88409285Y-118197333D01*
X88361666Y-118244952D01*
X88266428Y-118292571D01*
X87933095Y-118292571D01*
X88837857Y-117816380D02*
X89504523Y-117816380D01*
X89075952Y-118816380D01*
X170401000Y-76144380D02*
X169829571Y-76144380D01*
X170115285Y-76144380D02*
X170115285Y-75144380D01*
X170020047Y-75287238D01*
X169924809Y-75382476D01*
X169829571Y-75430095D01*
X170781952Y-75239619D02*
X170829571Y-75192000D01*
X170924809Y-75144380D01*
X171162904Y-75144380D01*
X171258142Y-75192000D01*
X171305761Y-75239619D01*
X171353380Y-75334857D01*
X171353380Y-75430095D01*
X171305761Y-75572952D01*
X170734333Y-76144380D01*
X171353380Y-76144380D01*
X171639095Y-75144380D02*
X171972428Y-76144380D01*
X172305761Y-75144380D01*
X179897000Y-74862000D02*
X180897000Y-74862000D01*
X180658904Y-75192000D02*
X180563666Y-75144380D01*
X180420809Y-75144380D01*
X180277952Y-75192000D01*
X180182714Y-75287238D01*
X180135095Y-75382476D01*
X180087476Y-75572952D01*
X180087476Y-75715809D01*
X180135095Y-75906285D01*
X180182714Y-76001523D01*
X180277952Y-76096761D01*
X180420809Y-76144380D01*
X180516047Y-76144380D01*
X180658904Y-76096761D01*
X180706523Y-76049142D01*
X180706523Y-75715809D01*
X180516047Y-75715809D01*
X180897000Y-74862000D02*
X181849380Y-74862000D01*
X181087476Y-76096761D02*
X181230333Y-76144380D01*
X181468428Y-76144380D01*
X181563666Y-76096761D01*
X181611285Y-76049142D01*
X181658904Y-75953904D01*
X181658904Y-75858666D01*
X181611285Y-75763428D01*
X181563666Y-75715809D01*
X181468428Y-75668190D01*
X181277952Y-75620571D01*
X181182714Y-75572952D01*
X181135095Y-75525333D01*
X181087476Y-75430095D01*
X181087476Y-75334857D01*
X181135095Y-75239619D01*
X181182714Y-75192000D01*
X181277952Y-75144380D01*
X181516047Y-75144380D01*
X181658904Y-75192000D01*
X120887190Y-109914000D02*
X121744333Y-109914000D01*
X121077666Y-110910666D02*
X121553857Y-110910666D01*
X120982428Y-111196380D02*
X121315761Y-110196380D01*
X121649095Y-111196380D01*
X121744333Y-109914000D02*
X122696714Y-109914000D01*
X122172904Y-110196380D02*
X122268142Y-110196380D01*
X122363380Y-110244000D01*
X122411000Y-110291619D01*
X122458619Y-110386857D01*
X122506238Y-110577333D01*
X122506238Y-110815428D01*
X122458619Y-111005904D01*
X122411000Y-111101142D01*
X122363380Y-111148761D01*
X122268142Y-111196380D01*
X122172904Y-111196380D01*
X122077666Y-111148761D01*
X122030047Y-111101142D01*
X121982428Y-111005904D01*
X121934809Y-110815428D01*
X121934809Y-110577333D01*
X121982428Y-110386857D01*
X122030047Y-110291619D01*
X122077666Y-110244000D01*
X122172904Y-110196380D01*
X122696714Y-109914000D02*
X123458619Y-109914000D01*
X122696714Y-111291619D02*
X123458619Y-111291619D01*
X123458619Y-109914000D02*
X124458619Y-109914000D01*
X124220523Y-110244000D02*
X124125285Y-110196380D01*
X123982428Y-110196380D01*
X123839571Y-110244000D01*
X123744333Y-110339238D01*
X123696714Y-110434476D01*
X123649095Y-110624952D01*
X123649095Y-110767809D01*
X123696714Y-110958285D01*
X123744333Y-111053523D01*
X123839571Y-111148761D01*
X123982428Y-111196380D01*
X124077666Y-111196380D01*
X124220523Y-111148761D01*
X124268142Y-111101142D01*
X124268142Y-110767809D01*
X124077666Y-110767809D01*
X124458619Y-109914000D02*
X125411000Y-109914000D01*
X124649095Y-111148761D02*
X124791952Y-111196380D01*
X125030047Y-111196380D01*
X125125285Y-111148761D01*
X125172904Y-111101142D01*
X125220523Y-111005904D01*
X125220523Y-110910666D01*
X125172904Y-110815428D01*
X125125285Y-110767809D01*
X125030047Y-110720190D01*
X124839571Y-110672571D01*
X124744333Y-110624952D01*
X124696714Y-110577333D01*
X124649095Y-110482095D01*
X124649095Y-110386857D01*
X124696714Y-110291619D01*
X124744333Y-110244000D01*
X124839571Y-110196380D01*
X125077666Y-110196380D01*
X125220523Y-110244000D01*
X170353380Y-72652000D02*
X170258142Y-72604380D01*
X170115285Y-72604380D01*
X169972428Y-72652000D01*
X169877190Y-72747238D01*
X169829571Y-72842476D01*
X169781952Y-73032952D01*
X169781952Y-73175809D01*
X169829571Y-73366285D01*
X169877190Y-73461523D01*
X169972428Y-73556761D01*
X170115285Y-73604380D01*
X170210523Y-73604380D01*
X170353380Y-73556761D01*
X170401000Y-73509142D01*
X170401000Y-73175809D01*
X170210523Y-73175809D01*
X170829571Y-72937714D02*
X170829571Y-73604380D01*
X170829571Y-73032952D02*
X170877190Y-72985333D01*
X170972428Y-72937714D01*
X171115285Y-72937714D01*
X171210523Y-72985333D01*
X171258142Y-73080571D01*
X171258142Y-73604380D01*
X172162904Y-73604380D02*
X172162904Y-72604380D01*
X172162904Y-73556761D02*
X172067666Y-73604380D01*
X171877190Y-73604380D01*
X171781952Y-73556761D01*
X171734333Y-73509142D01*
X171686714Y-73413904D01*
X171686714Y-73128190D01*
X171734333Y-73032952D01*
X171781952Y-72985333D01*
X171877190Y-72937714D01*
X172067666Y-72937714D01*
X172162904Y-72985333D01*
X179992238Y-80224380D02*
X180325571Y-81224380D01*
X180658904Y-80224380D01*
X180992238Y-81224380D02*
X180992238Y-80557714D01*
X180992238Y-80748190D02*
X181039857Y-80652952D01*
X181087476Y-80605333D01*
X181182714Y-80557714D01*
X181277952Y-80557714D01*
X181992238Y-81176761D02*
X181897000Y-81224380D01*
X181706523Y-81224380D01*
X181611285Y-81176761D01*
X181563666Y-81081523D01*
X181563666Y-80700571D01*
X181611285Y-80605333D01*
X181706523Y-80557714D01*
X181897000Y-80557714D01*
X181992238Y-80605333D01*
X182039857Y-80700571D01*
X182039857Y-80795809D01*
X181563666Y-80891047D01*
X182325571Y-80557714D02*
X182706523Y-80557714D01*
X182468428Y-81224380D02*
X182468428Y-80367238D01*
X182516047Y-80272000D01*
X182611285Y-80224380D01*
X182706523Y-80224380D01*
X183039857Y-81224380D02*
X183039857Y-80557714D01*
X183039857Y-80224380D02*
X182992238Y-80272000D01*
X183039857Y-80319619D01*
X183087476Y-80272000D01*
X183039857Y-80224380D01*
X183039857Y-80319619D01*
X121887190Y-117534000D02*
X122744333Y-117534000D01*
X122077666Y-118530666D02*
X122553857Y-118530666D01*
X121982428Y-118816380D02*
X122315761Y-117816380D01*
X122649095Y-118816380D01*
X122744333Y-117534000D02*
X123696714Y-117534000D01*
X123172904Y-117816380D02*
X123268142Y-117816380D01*
X123363380Y-117864000D01*
X123411000Y-117911619D01*
X123458619Y-118006857D01*
X123506238Y-118197333D01*
X123506238Y-118435428D01*
X123458619Y-118625904D01*
X123411000Y-118721142D01*
X123363380Y-118768761D01*
X123268142Y-118816380D01*
X123172904Y-118816380D01*
X123077666Y-118768761D01*
X123030047Y-118721142D01*
X122982428Y-118625904D01*
X122934809Y-118435428D01*
X122934809Y-118197333D01*
X122982428Y-118006857D01*
X123030047Y-117911619D01*
X123077666Y-117864000D01*
X123172904Y-117816380D01*
X123696714Y-117534000D02*
X124458619Y-117534000D01*
X123696714Y-118911619D02*
X124458619Y-118911619D01*
X124458619Y-117534000D02*
X125411000Y-117534000D01*
X124887190Y-117816380D02*
X124982428Y-117816380D01*
X125077666Y-117864000D01*
X125125285Y-117911619D01*
X125172904Y-118006857D01*
X125220523Y-118197333D01*
X125220523Y-118435428D01*
X125172904Y-118625904D01*
X125125285Y-118721142D01*
X125077666Y-118768761D01*
X124982428Y-118816380D01*
X124887190Y-118816380D01*
X124791952Y-118768761D01*
X124744333Y-118721142D01*
X124696714Y-118625904D01*
X124649095Y-118435428D01*
X124649095Y-118197333D01*
X124696714Y-118006857D01*
X124744333Y-117911619D01*
X124791952Y-117864000D01*
X124887190Y-117816380D01*
X121887190Y-84514000D02*
X122744333Y-84514000D01*
X122077666Y-85510666D02*
X122553857Y-85510666D01*
X121982428Y-85796380D02*
X122315761Y-84796380D01*
X122649095Y-85796380D01*
X122744333Y-84514000D02*
X123696714Y-84514000D01*
X122887190Y-84796380D02*
X123506238Y-84796380D01*
X123172904Y-85177333D01*
X123315761Y-85177333D01*
X123411000Y-85224952D01*
X123458619Y-85272571D01*
X123506238Y-85367809D01*
X123506238Y-85605904D01*
X123458619Y-85701142D01*
X123411000Y-85748761D01*
X123315761Y-85796380D01*
X123030047Y-85796380D01*
X122934809Y-85748761D01*
X122887190Y-85701142D01*
X123696714Y-84514000D02*
X124458619Y-84514000D01*
X123696714Y-85891619D02*
X124458619Y-85891619D01*
X124458619Y-84514000D02*
X125411000Y-84514000D01*
X125220523Y-85796380D02*
X124649095Y-85796380D01*
X124934809Y-85796380D02*
X124934809Y-84796380D01*
X124839571Y-84939238D01*
X124744333Y-85034476D01*
X124649095Y-85082095D01*
X102802000Y-78979380D02*
X102802000Y-77931761D01*
X103084380Y-78550809D02*
X103084380Y-78360333D01*
X103132000Y-78265095D01*
X103227238Y-78169857D01*
X103417714Y-78122238D01*
X103751047Y-78122238D01*
X103941523Y-78169857D01*
X104036761Y-78265095D01*
X104084380Y-78360333D01*
X104084380Y-78550809D01*
X104036761Y-78646047D01*
X103941523Y-78741285D01*
X103751047Y-78788904D01*
X103417714Y-78788904D01*
X103227238Y-78741285D01*
X103132000Y-78646047D01*
X103084380Y-78550809D01*
X102802000Y-77931761D02*
X102802000Y-77027000D01*
X103560571Y-77693666D02*
X103560571Y-77360333D01*
X104084380Y-77217476D02*
X104084380Y-77693666D01*
X103084380Y-77693666D01*
X103084380Y-77217476D01*
X179897000Y-85022000D02*
X180754142Y-85022000D01*
X180087476Y-86018666D02*
X180563666Y-86018666D01*
X179992238Y-86304380D02*
X180325571Y-85304380D01*
X180658904Y-86304380D01*
X180754142Y-85022000D02*
X181706523Y-85022000D01*
X180944619Y-85399619D02*
X180992238Y-85352000D01*
X181087476Y-85304380D01*
X181325571Y-85304380D01*
X181420809Y-85352000D01*
X181468428Y-85399619D01*
X181516047Y-85494857D01*
X181516047Y-85590095D01*
X181468428Y-85732952D01*
X180897000Y-86304380D01*
X181516047Y-86304380D01*
X217089380Y-72652000D02*
X216994142Y-72604380D01*
X216851285Y-72604380D01*
X216708428Y-72652000D01*
X216613190Y-72747238D01*
X216565571Y-72842476D01*
X216517952Y-73032952D01*
X216517952Y-73175809D01*
X216565571Y-73366285D01*
X216613190Y-73461523D01*
X216708428Y-73556761D01*
X216851285Y-73604380D01*
X216946523Y-73604380D01*
X217089380Y-73556761D01*
X217137000Y-73509142D01*
X217137000Y-73175809D01*
X216946523Y-73175809D01*
X217565571Y-72937714D02*
X217565571Y-73604380D01*
X217565571Y-73032952D02*
X217613190Y-72985333D01*
X217708428Y-72937714D01*
X217851285Y-72937714D01*
X217946523Y-72985333D01*
X217994142Y-73080571D01*
X217994142Y-73604380D01*
X218898904Y-73604380D02*
X218898904Y-72604380D01*
X218898904Y-73556761D02*
X218803666Y-73604380D01*
X218613190Y-73604380D01*
X218517952Y-73556761D01*
X218470333Y-73509142D01*
X218422714Y-73413904D01*
X218422714Y-73128190D01*
X218470333Y-73032952D01*
X218517952Y-72985333D01*
X218613190Y-72937714D01*
X218803666Y-72937714D01*
X218898904Y-72985333D01*
X133256238Y-111720380D02*
X133589571Y-112720380D01*
X133922904Y-111720380D01*
X134256238Y-112720380D02*
X134256238Y-112053714D01*
X134256238Y-111720380D02*
X134208619Y-111768000D01*
X134256238Y-111815619D01*
X134303857Y-111768000D01*
X134256238Y-111720380D01*
X134256238Y-111815619D01*
X134732428Y-112053714D02*
X134732428Y-112720380D01*
X134732428Y-112148952D02*
X134780047Y-112101333D01*
X134875285Y-112053714D01*
X135018142Y-112053714D01*
X135113380Y-112101333D01*
X135161000Y-112196571D01*
X135161000Y-112720380D01*
X88266428Y-100512571D02*
X88409285Y-100560190D01*
X88456904Y-100607809D01*
X88504523Y-100703047D01*
X88504523Y-100845904D01*
X88456904Y-100941142D01*
X88409285Y-100988761D01*
X88314047Y-101036380D01*
X87933095Y-101036380D01*
X87933095Y-100036380D01*
X88266428Y-100036380D01*
X88361666Y-100084000D01*
X88409285Y-100131619D01*
X88456904Y-100226857D01*
X88456904Y-100322095D01*
X88409285Y-100417333D01*
X88361666Y-100464952D01*
X88266428Y-100512571D01*
X87933095Y-100512571D01*
X89123571Y-100036380D02*
X89218809Y-100036380D01*
X89314047Y-100084000D01*
X89361666Y-100131619D01*
X89409285Y-100226857D01*
X89456904Y-100417333D01*
X89456904Y-100655428D01*
X89409285Y-100845904D01*
X89361666Y-100941142D01*
X89314047Y-100988761D01*
X89218809Y-101036380D01*
X89123571Y-101036380D01*
X89028333Y-100988761D01*
X88980714Y-100941142D01*
X88933095Y-100845904D01*
X88885476Y-100655428D01*
X88885476Y-100417333D01*
X88933095Y-100226857D01*
X88980714Y-100131619D01*
X89028333Y-100084000D01*
X89123571Y-100036380D01*
X179897000Y-124138000D02*
X180754142Y-124138000D01*
X180087476Y-125134666D02*
X180563666Y-125134666D01*
X179992238Y-125420380D02*
X180325571Y-124420380D01*
X180658904Y-125420380D01*
X180754142Y-124138000D02*
X181706523Y-124138000D01*
X181182714Y-124420380D02*
X181277952Y-124420380D01*
X181373190Y-124468000D01*
X181420809Y-124515619D01*
X181468428Y-124610857D01*
X181516047Y-124801333D01*
X181516047Y-125039428D01*
X181468428Y-125229904D01*
X181420809Y-125325142D01*
X181373190Y-125372761D01*
X181277952Y-125420380D01*
X181182714Y-125420380D01*
X181087476Y-125372761D01*
X181039857Y-125325142D01*
X180992238Y-125229904D01*
X180944619Y-125039428D01*
X180944619Y-124801333D01*
X180992238Y-124610857D01*
X181039857Y-124515619D01*
X181087476Y-124468000D01*
X181182714Y-124420380D01*
X133256238Y-77684380D02*
X133589571Y-78684380D01*
X133922904Y-77684380D01*
X134256238Y-78684380D02*
X134256238Y-78017714D01*
X134256238Y-77684380D02*
X134208619Y-77732000D01*
X134256238Y-77779619D01*
X134303857Y-77732000D01*
X134256238Y-77684380D01*
X134256238Y-77779619D01*
X134732428Y-78017714D02*
X134732428Y-78684380D01*
X134732428Y-78112952D02*
X134780047Y-78065333D01*
X134875285Y-78017714D01*
X135018142Y-78017714D01*
X135113380Y-78065333D01*
X135161000Y-78160571D01*
X135161000Y-78684380D01*
X133161000Y-87562000D02*
X134018142Y-87562000D01*
X133351476Y-88558666D02*
X133827666Y-88558666D01*
X133256238Y-88844380D02*
X133589571Y-87844380D01*
X133922904Y-88844380D01*
X134018142Y-87562000D02*
X134970523Y-87562000D01*
X134780047Y-88844380D02*
X134208619Y-88844380D01*
X134494333Y-88844380D02*
X134494333Y-87844380D01*
X134399095Y-87987238D01*
X134303857Y-88082476D01*
X134208619Y-88130095D01*
X133161000Y-72322000D02*
X134065761Y-72322000D01*
X133399095Y-73080571D02*
X133732428Y-73080571D01*
X133875285Y-73604380D02*
X133399095Y-73604380D01*
X133399095Y-72604380D01*
X133875285Y-72604380D01*
X134065761Y-72322000D02*
X135113380Y-72322000D01*
X134494333Y-72604380D02*
X134684809Y-72604380D01*
X134780047Y-72652000D01*
X134875285Y-72747238D01*
X134922904Y-72937714D01*
X134922904Y-73271047D01*
X134875285Y-73461523D01*
X134780047Y-73556761D01*
X134684809Y-73604380D01*
X134494333Y-73604380D01*
X134399095Y-73556761D01*
X134303857Y-73461523D01*
X134256238Y-73271047D01*
X134256238Y-72937714D01*
X134303857Y-72747238D01*
X134399095Y-72652000D01*
X134494333Y-72604380D01*
X145356000Y-67629000D02*
X145356000Y-68533761D01*
X144597428Y-67867095D02*
X144597428Y-68200428D01*
X144073619Y-68343285D02*
X144073619Y-67867095D01*
X145073619Y-67867095D01*
X145073619Y-68343285D01*
X145356000Y-68533761D02*
X145356000Y-69581380D01*
X145073619Y-68962333D02*
X145073619Y-69152809D01*
X145026000Y-69248047D01*
X144930761Y-69343285D01*
X144740285Y-69390904D01*
X144406952Y-69390904D01*
X144216476Y-69343285D01*
X144121238Y-69248047D01*
X144073619Y-69152809D01*
X144073619Y-68962333D01*
X144121238Y-68867095D01*
X144216476Y-68771857D01*
X144406952Y-68724238D01*
X144740285Y-68724238D01*
X144930761Y-68771857D01*
X145026000Y-68867095D01*
X145073619Y-68962333D01*
X216327476Y-112339428D02*
X217089380Y-112339428D01*
X216708428Y-112720380D02*
X216708428Y-111958476D01*
X218041761Y-111720380D02*
X217565571Y-111720380D01*
X217517952Y-112196571D01*
X217565571Y-112148952D01*
X217660809Y-112101333D01*
X217898904Y-112101333D01*
X217994142Y-112148952D01*
X218041761Y-112196571D01*
X218089380Y-112291809D01*
X218089380Y-112529904D01*
X218041761Y-112625142D01*
X217994142Y-112672761D01*
X217898904Y-112720380D01*
X217660809Y-112720380D01*
X217565571Y-112672761D01*
X217517952Y-112625142D01*
X218375095Y-111720380D02*
X218708428Y-112720380D01*
X219041761Y-111720380D01*
X133256238Y-114260380D02*
X133589571Y-115260380D01*
X133922904Y-114260380D01*
X134256238Y-115260380D02*
X134256238Y-114593714D01*
X134256238Y-114784190D02*
X134303857Y-114688952D01*
X134351476Y-114641333D01*
X134446714Y-114593714D01*
X134541952Y-114593714D01*
X135256238Y-115212761D02*
X135161000Y-115260380D01*
X134970523Y-115260380D01*
X134875285Y-115212761D01*
X134827666Y-115117523D01*
X134827666Y-114736571D01*
X134875285Y-114641333D01*
X134970523Y-114593714D01*
X135161000Y-114593714D01*
X135256238Y-114641333D01*
X135303857Y-114736571D01*
X135303857Y-114831809D01*
X134827666Y-114927047D01*
X135589571Y-114593714D02*
X135970523Y-114593714D01*
X135732428Y-115260380D02*
X135732428Y-114403238D01*
X135780047Y-114308000D01*
X135875285Y-114260380D01*
X135970523Y-114260380D01*
X136303857Y-115260380D02*
X136303857Y-114593714D01*
X136303857Y-114260380D02*
X136256238Y-114308000D01*
X136303857Y-114355619D01*
X136351476Y-114308000D01*
X136303857Y-114260380D01*
X136303857Y-114355619D01*
X120887190Y-79434000D02*
X121744333Y-79434000D01*
X121077666Y-80430666D02*
X121553857Y-80430666D01*
X120982428Y-80716380D02*
X121315761Y-79716380D01*
X121649095Y-80716380D01*
X121744333Y-79434000D02*
X122696714Y-79434000D01*
X121887190Y-79716380D02*
X122506238Y-79716380D01*
X122172904Y-80097333D01*
X122315761Y-80097333D01*
X122411000Y-80144952D01*
X122458619Y-80192571D01*
X122506238Y-80287809D01*
X122506238Y-80525904D01*
X122458619Y-80621142D01*
X122411000Y-80668761D01*
X122315761Y-80716380D01*
X122030047Y-80716380D01*
X121934809Y-80668761D01*
X121887190Y-80621142D01*
X122696714Y-79434000D02*
X123458619Y-79434000D01*
X122696714Y-80811619D02*
X123458619Y-80811619D01*
X123458619Y-79434000D02*
X124458619Y-79434000D01*
X124220523Y-79764000D02*
X124125285Y-79716380D01*
X123982428Y-79716380D01*
X123839571Y-79764000D01*
X123744333Y-79859238D01*
X123696714Y-79954476D01*
X123649095Y-80144952D01*
X123649095Y-80287809D01*
X123696714Y-80478285D01*
X123744333Y-80573523D01*
X123839571Y-80668761D01*
X123982428Y-80716380D01*
X124077666Y-80716380D01*
X124220523Y-80668761D01*
X124268142Y-80621142D01*
X124268142Y-80287809D01*
X124077666Y-80287809D01*
X124458619Y-79434000D02*
X125411000Y-79434000D01*
X124649095Y-80668761D02*
X124791952Y-80716380D01*
X125030047Y-80716380D01*
X125125285Y-80668761D01*
X125172904Y-80621142D01*
X125220523Y-80525904D01*
X125220523Y-80430666D01*
X125172904Y-80335428D01*
X125125285Y-80287809D01*
X125030047Y-80240190D01*
X124839571Y-80192571D01*
X124744333Y-80144952D01*
X124696714Y-80097333D01*
X124649095Y-80002095D01*
X124649095Y-79906857D01*
X124696714Y-79811619D01*
X124744333Y-79764000D01*
X124839571Y-79716380D01*
X125077666Y-79716380D01*
X125220523Y-79764000D01*
X133161000Y-121598000D02*
X134018142Y-121598000D01*
X133351476Y-122594666D02*
X133827666Y-122594666D01*
X133256238Y-122880380D02*
X133589571Y-121880380D01*
X133922904Y-122880380D01*
X134018142Y-121598000D02*
X134970523Y-121598000D01*
X134780047Y-122880380D02*
X134208619Y-122880380D01*
X134494333Y-122880380D02*
X134494333Y-121880380D01*
X134399095Y-122023238D01*
X134303857Y-122118476D01*
X134208619Y-122166095D01*
X179992238Y-116800380D02*
X180325571Y-117800380D01*
X180658904Y-116800380D01*
X180992238Y-117800380D02*
X180992238Y-117133714D01*
X180992238Y-117324190D02*
X181039857Y-117228952D01*
X181087476Y-117181333D01*
X181182714Y-117133714D01*
X181277952Y-117133714D01*
X181992238Y-117752761D02*
X181897000Y-117800380D01*
X181706523Y-117800380D01*
X181611285Y-117752761D01*
X181563666Y-117657523D01*
X181563666Y-117276571D01*
X181611285Y-117181333D01*
X181706523Y-117133714D01*
X181897000Y-117133714D01*
X181992238Y-117181333D01*
X182039857Y-117276571D01*
X182039857Y-117371809D01*
X181563666Y-117467047D01*
X182325571Y-117133714D02*
X182706523Y-117133714D01*
X182468428Y-117800380D02*
X182468428Y-116943238D01*
X182516047Y-116848000D01*
X182611285Y-116800380D01*
X182706523Y-116800380D01*
X183182714Y-117800380D02*
X183087476Y-117752761D01*
X183039857Y-117705142D01*
X182992238Y-117609904D01*
X182992238Y-117324190D01*
X183039857Y-117228952D01*
X183087476Y-117181333D01*
X183182714Y-117133714D01*
X183325571Y-117133714D01*
X183420809Y-117181333D01*
X183468428Y-117228952D01*
X183516047Y-117324190D01*
X183516047Y-117609904D01*
X183468428Y-117705142D01*
X183420809Y-117752761D01*
X183325571Y-117800380D01*
X183182714Y-117800380D01*
X179897000Y-72322000D02*
X180801761Y-72322000D01*
X180135095Y-73080571D02*
X180468428Y-73080571D01*
X180611285Y-73604380D02*
X180135095Y-73604380D01*
X180135095Y-72604380D01*
X180611285Y-72604380D01*
X180801761Y-72322000D02*
X181849380Y-72322000D01*
X181230333Y-72604380D02*
X181420809Y-72604380D01*
X181516047Y-72652000D01*
X181611285Y-72747238D01*
X181658904Y-72937714D01*
X181658904Y-73271047D01*
X181611285Y-73461523D01*
X181516047Y-73556761D01*
X181420809Y-73604380D01*
X181230333Y-73604380D01*
X181135095Y-73556761D01*
X181039857Y-73461523D01*
X180992238Y-73271047D01*
X180992238Y-72937714D01*
X181039857Y-72747238D01*
X181135095Y-72652000D01*
X181230333Y-72604380D01*
X170401000Y-110180380D02*
X169829571Y-110180380D01*
X170115285Y-110180380D02*
X170115285Y-109180380D01*
X170020047Y-109323238D01*
X169924809Y-109418476D01*
X169829571Y-109466095D01*
X170781952Y-109275619D02*
X170829571Y-109228000D01*
X170924809Y-109180380D01*
X171162904Y-109180380D01*
X171258142Y-109228000D01*
X171305761Y-109275619D01*
X171353380Y-109370857D01*
X171353380Y-109466095D01*
X171305761Y-109608952D01*
X170734333Y-110180380D01*
X171353380Y-110180380D01*
X171639095Y-109180380D02*
X171972428Y-110180380D01*
X172305761Y-109180380D01*
X120887190Y-89594000D02*
X121744333Y-89594000D01*
X121077666Y-90590666D02*
X121553857Y-90590666D01*
X120982428Y-90876380D02*
X121315761Y-89876380D01*
X121649095Y-90876380D01*
X121744333Y-89594000D02*
X122696714Y-89594000D01*
X121934809Y-89971619D02*
X121982428Y-89924000D01*
X122077666Y-89876380D01*
X122315761Y-89876380D01*
X122411000Y-89924000D01*
X122458619Y-89971619D01*
X122506238Y-90066857D01*
X122506238Y-90162095D01*
X122458619Y-90304952D01*
X121887190Y-90876380D01*
X122506238Y-90876380D01*
X122696714Y-89594000D02*
X123458619Y-89594000D01*
X122696714Y-90971619D02*
X123458619Y-90971619D01*
X123458619Y-89594000D02*
X124458619Y-89594000D01*
X124220523Y-89924000D02*
X124125285Y-89876380D01*
X123982428Y-89876380D01*
X123839571Y-89924000D01*
X123744333Y-90019238D01*
X123696714Y-90114476D01*
X123649095Y-90304952D01*
X123649095Y-90447809D01*
X123696714Y-90638285D01*
X123744333Y-90733523D01*
X123839571Y-90828761D01*
X123982428Y-90876380D01*
X124077666Y-90876380D01*
X124220523Y-90828761D01*
X124268142Y-90781142D01*
X124268142Y-90447809D01*
X124077666Y-90447809D01*
X124458619Y-89594000D02*
X125411000Y-89594000D01*
X124649095Y-90828761D02*
X124791952Y-90876380D01*
X125030047Y-90876380D01*
X125125285Y-90828761D01*
X125172904Y-90781142D01*
X125220523Y-90685904D01*
X125220523Y-90590666D01*
X125172904Y-90495428D01*
X125125285Y-90447809D01*
X125030047Y-90400190D01*
X124839571Y-90352571D01*
X124744333Y-90304952D01*
X124696714Y-90257333D01*
X124649095Y-90162095D01*
X124649095Y-90066857D01*
X124696714Y-89971619D01*
X124744333Y-89924000D01*
X124839571Y-89876380D01*
X125077666Y-89876380D01*
X125220523Y-89924000D01*
X133161000Y-74862000D02*
X134161000Y-74862000D01*
X133922904Y-75192000D02*
X133827666Y-75144380D01*
X133684809Y-75144380D01*
X133541952Y-75192000D01*
X133446714Y-75287238D01*
X133399095Y-75382476D01*
X133351476Y-75572952D01*
X133351476Y-75715809D01*
X133399095Y-75906285D01*
X133446714Y-76001523D01*
X133541952Y-76096761D01*
X133684809Y-76144380D01*
X133780047Y-76144380D01*
X133922904Y-76096761D01*
X133970523Y-76049142D01*
X133970523Y-75715809D01*
X133780047Y-75715809D01*
X134161000Y-74862000D02*
X135113380Y-74862000D01*
X134351476Y-76096761D02*
X134494333Y-76144380D01*
X134732428Y-76144380D01*
X134827666Y-76096761D01*
X134875285Y-76049142D01*
X134922904Y-75953904D01*
X134922904Y-75858666D01*
X134875285Y-75763428D01*
X134827666Y-75715809D01*
X134732428Y-75668190D01*
X134541952Y-75620571D01*
X134446714Y-75572952D01*
X134399095Y-75525333D01*
X134351476Y-75430095D01*
X134351476Y-75334857D01*
X134399095Y-75239619D01*
X134446714Y-75192000D01*
X134541952Y-75144380D01*
X134780047Y-75144380D01*
X134922904Y-75192000D01*
X133161000Y-119058000D02*
X134018142Y-119058000D01*
X133351476Y-120054666D02*
X133827666Y-120054666D01*
X133256238Y-120340380D02*
X133589571Y-119340380D01*
X133922904Y-120340380D01*
X134018142Y-119058000D02*
X134970523Y-119058000D01*
X134208619Y-119435619D02*
X134256238Y-119388000D01*
X134351476Y-119340380D01*
X134589571Y-119340380D01*
X134684809Y-119388000D01*
X134732428Y-119435619D01*
X134780047Y-119530857D01*
X134780047Y-119626095D01*
X134732428Y-119768952D01*
X134161000Y-120340380D01*
X134780047Y-120340380D01*
X121887190Y-87054000D02*
X122744333Y-87054000D01*
X122077666Y-88050666D02*
X122553857Y-88050666D01*
X121982428Y-88336380D02*
X122315761Y-87336380D01*
X122649095Y-88336380D01*
X122744333Y-87054000D02*
X123696714Y-87054000D01*
X122887190Y-87336380D02*
X123506238Y-87336380D01*
X123172904Y-87717333D01*
X123315761Y-87717333D01*
X123411000Y-87764952D01*
X123458619Y-87812571D01*
X123506238Y-87907809D01*
X123506238Y-88145904D01*
X123458619Y-88241142D01*
X123411000Y-88288761D01*
X123315761Y-88336380D01*
X123030047Y-88336380D01*
X122934809Y-88288761D01*
X122887190Y-88241142D01*
X123696714Y-87054000D02*
X124458619Y-87054000D01*
X123696714Y-88431619D02*
X124458619Y-88431619D01*
X124458619Y-87054000D02*
X125411000Y-87054000D01*
X124887190Y-87336380D02*
X124982428Y-87336380D01*
X125077666Y-87384000D01*
X125125285Y-87431619D01*
X125172904Y-87526857D01*
X125220523Y-87717333D01*
X125220523Y-87955428D01*
X125172904Y-88145904D01*
X125125285Y-88241142D01*
X125077666Y-88288761D01*
X124982428Y-88336380D01*
X124887190Y-88336380D01*
X124791952Y-88288761D01*
X124744333Y-88241142D01*
X124696714Y-88145904D01*
X124649095Y-87955428D01*
X124649095Y-87717333D01*
X124696714Y-87526857D01*
X124744333Y-87431619D01*
X124791952Y-87384000D01*
X124887190Y-87336380D01*
X133161000Y-124138000D02*
X134018142Y-124138000D01*
X133351476Y-125134666D02*
X133827666Y-125134666D01*
X133256238Y-125420380D02*
X133589571Y-124420380D01*
X133922904Y-125420380D01*
X134018142Y-124138000D02*
X134970523Y-124138000D01*
X134446714Y-124420380D02*
X134541952Y-124420380D01*
X134637190Y-124468000D01*
X134684809Y-124515619D01*
X134732428Y-124610857D01*
X134780047Y-124801333D01*
X134780047Y-125039428D01*
X134732428Y-125229904D01*
X134684809Y-125325142D01*
X134637190Y-125372761D01*
X134541952Y-125420380D01*
X134446714Y-125420380D01*
X134351476Y-125372761D01*
X134303857Y-125325142D01*
X134256238Y-125229904D01*
X134208619Y-125039428D01*
X134208619Y-124801333D01*
X134256238Y-124610857D01*
X134303857Y-124515619D01*
X134351476Y-124468000D01*
X134446714Y-124420380D01*
X133161000Y-85022000D02*
X134018142Y-85022000D01*
X133351476Y-86018666D02*
X133827666Y-86018666D01*
X133256238Y-86304380D02*
X133589571Y-85304380D01*
X133922904Y-86304380D01*
X134018142Y-85022000D02*
X134970523Y-85022000D01*
X134208619Y-85399619D02*
X134256238Y-85352000D01*
X134351476Y-85304380D01*
X134589571Y-85304380D01*
X134684809Y-85352000D01*
X134732428Y-85399619D01*
X134780047Y-85494857D01*
X134780047Y-85590095D01*
X134732428Y-85732952D01*
X134161000Y-86304380D01*
X134780047Y-86304380D01*
X133161000Y-108898000D02*
X134161000Y-108898000D01*
X133922904Y-109228000D02*
X133827666Y-109180380D01*
X133684809Y-109180380D01*
X133541952Y-109228000D01*
X133446714Y-109323238D01*
X133399095Y-109418476D01*
X133351476Y-109608952D01*
X133351476Y-109751809D01*
X133399095Y-109942285D01*
X133446714Y-110037523D01*
X133541952Y-110132761D01*
X133684809Y-110180380D01*
X133780047Y-110180380D01*
X133922904Y-110132761D01*
X133970523Y-110085142D01*
X133970523Y-109751809D01*
X133780047Y-109751809D01*
X134161000Y-108898000D02*
X135113380Y-108898000D01*
X134351476Y-110132761D02*
X134494333Y-110180380D01*
X134732428Y-110180380D01*
X134827666Y-110132761D01*
X134875285Y-110085142D01*
X134922904Y-109989904D01*
X134922904Y-109894666D01*
X134875285Y-109799428D01*
X134827666Y-109751809D01*
X134732428Y-109704190D01*
X134541952Y-109656571D01*
X134446714Y-109608952D01*
X134399095Y-109561333D01*
X134351476Y-109466095D01*
X134351476Y-109370857D01*
X134399095Y-109275619D01*
X134446714Y-109228000D01*
X134541952Y-109180380D01*
X134780047Y-109180380D01*
X134922904Y-109228000D01*
X133161000Y-69528000D02*
X134065761Y-69528000D01*
X133399095Y-70286571D02*
X133732428Y-70286571D01*
X133875285Y-70810380D02*
X133399095Y-70810380D01*
X133399095Y-69810380D01*
X133875285Y-69810380D01*
X134065761Y-69528000D02*
X134541952Y-69528000D01*
X134303857Y-70810380D02*
X134303857Y-69810380D01*
X217137000Y-110180380D02*
X216565571Y-110180380D01*
X216851285Y-110180380D02*
X216851285Y-109180380D01*
X216756047Y-109323238D01*
X216660809Y-109418476D01*
X216565571Y-109466095D01*
X217517952Y-109275619D02*
X217565571Y-109228000D01*
X217660809Y-109180380D01*
X217898904Y-109180380D01*
X217994142Y-109228000D01*
X218041761Y-109275619D01*
X218089380Y-109370857D01*
X218089380Y-109466095D01*
X218041761Y-109608952D01*
X217470333Y-110180380D01*
X218089380Y-110180380D01*
X218375095Y-109180380D02*
X218708428Y-110180380D01*
X219041761Y-109180380D01*
X121887190Y-112454000D02*
X122744333Y-112454000D01*
X122077666Y-113450666D02*
X122553857Y-113450666D01*
X121982428Y-113736380D02*
X122315761Y-112736380D01*
X122649095Y-113736380D01*
X122744333Y-112454000D02*
X123696714Y-112454000D01*
X123172904Y-112736380D02*
X123268142Y-112736380D01*
X123363380Y-112784000D01*
X123411000Y-112831619D01*
X123458619Y-112926857D01*
X123506238Y-113117333D01*
X123506238Y-113355428D01*
X123458619Y-113545904D01*
X123411000Y-113641142D01*
X123363380Y-113688761D01*
X123268142Y-113736380D01*
X123172904Y-113736380D01*
X123077666Y-113688761D01*
X123030047Y-113641142D01*
X122982428Y-113545904D01*
X122934809Y-113355428D01*
X122934809Y-113117333D01*
X122982428Y-112926857D01*
X123030047Y-112831619D01*
X123077666Y-112784000D01*
X123172904Y-112736380D01*
X123696714Y-112454000D02*
X124458619Y-112454000D01*
X123696714Y-113831619D02*
X124458619Y-113831619D01*
X124458619Y-112454000D02*
X125411000Y-112454000D01*
X124649095Y-112831619D02*
X124696714Y-112784000D01*
X124791952Y-112736380D01*
X125030047Y-112736380D01*
X125125285Y-112784000D01*
X125172904Y-112831619D01*
X125220523Y-112926857D01*
X125220523Y-113022095D01*
X125172904Y-113164952D01*
X124601476Y-113736380D01*
X125220523Y-113736380D01*
X197056857Y-108882761D02*
X198294952Y-108882761D01*
X197628285Y-109644666D01*
X197914000Y-109644666D01*
X198104476Y-109739904D01*
X198199714Y-109835142D01*
X198294952Y-110025619D01*
X198294952Y-110501809D01*
X198199714Y-110692285D01*
X198104476Y-110787523D01*
X197914000Y-110882761D01*
X197342571Y-110882761D01*
X197152095Y-110787523D01*
X197056857Y-110692285D01*
X199152095Y-110120857D02*
X200675904Y-110120857D01*
X201628285Y-110882761D02*
X201628285Y-108882761D01*
X201628285Y-109644666D02*
X201818761Y-109549428D01*
X202199714Y-109549428D01*
X202390190Y-109644666D01*
X202485428Y-109739904D01*
X202580666Y-109930380D01*
X202580666Y-110501809D01*
X202485428Y-110692285D01*
X202390190Y-110787523D01*
X202199714Y-110882761D01*
X201818761Y-110882761D01*
X201628285Y-110787523D01*
X203437809Y-110882761D02*
X203437809Y-109549428D01*
X203437809Y-108882761D02*
X203342571Y-108978000D01*
X203437809Y-109073238D01*
X203533047Y-108978000D01*
X203437809Y-108882761D01*
X203437809Y-109073238D01*
X204104476Y-109549428D02*
X204866380Y-109549428D01*
X204390190Y-108882761D02*
X204390190Y-110597047D01*
X204485428Y-110787523D01*
X204675904Y-110882761D01*
X204866380Y-110882761D01*
X187675904Y-113531333D02*
X188628285Y-113531333D01*
X187485428Y-114102761D02*
X188152095Y-112102761D01*
X188818761Y-114102761D01*
X189485428Y-112769428D02*
X189485428Y-114102761D01*
X189485428Y-112959904D02*
X189580666Y-112864666D01*
X189771142Y-112769428D01*
X190056857Y-112769428D01*
X190247333Y-112864666D01*
X190342571Y-113055142D01*
X190342571Y-114102761D01*
X192152095Y-114102761D02*
X192152095Y-113055142D01*
X192056857Y-112864666D01*
X191866380Y-112769428D01*
X191485428Y-112769428D01*
X191294952Y-112864666D01*
X192152095Y-114007523D02*
X191961619Y-114102761D01*
X191485428Y-114102761D01*
X191294952Y-114007523D01*
X191199714Y-113817047D01*
X191199714Y-113626571D01*
X191294952Y-113436095D01*
X191485428Y-113340857D01*
X191961619Y-113340857D01*
X192152095Y-113245619D01*
X193390190Y-114102761D02*
X193199714Y-114007523D01*
X193104476Y-113817047D01*
X193104476Y-112102761D01*
X194437809Y-114102761D02*
X194247333Y-114007523D01*
X194152095Y-113912285D01*
X194056857Y-113721809D01*
X194056857Y-113150380D01*
X194152095Y-112959904D01*
X194247333Y-112864666D01*
X194437809Y-112769428D01*
X194723523Y-112769428D01*
X194914000Y-112864666D01*
X195009238Y-112959904D01*
X195104476Y-113150380D01*
X195104476Y-113721809D01*
X195009238Y-113912285D01*
X194914000Y-114007523D01*
X194723523Y-114102761D01*
X194437809Y-114102761D01*
X196818761Y-112769428D02*
X196818761Y-114388476D01*
X196723523Y-114578952D01*
X196628285Y-114674190D01*
X196437809Y-114769428D01*
X196152095Y-114769428D01*
X195961619Y-114674190D01*
X196818761Y-114007523D02*
X196628285Y-114102761D01*
X196247333Y-114102761D01*
X196056857Y-114007523D01*
X195961619Y-113912285D01*
X195866380Y-113721809D01*
X195866380Y-113150380D01*
X195961619Y-112959904D01*
X196056857Y-112864666D01*
X196247333Y-112769428D01*
X196628285Y-112769428D01*
X196818761Y-112864666D01*
X199009238Y-112769428D02*
X199771142Y-112769428D01*
X199294952Y-112102761D02*
X199294952Y-113817047D01*
X199390190Y-114007523D01*
X199580666Y-114102761D01*
X199771142Y-114102761D01*
X200723523Y-114102761D02*
X200533047Y-114007523D01*
X200437809Y-113912285D01*
X200342571Y-113721809D01*
X200342571Y-113150380D01*
X200437809Y-112959904D01*
X200533047Y-112864666D01*
X200723523Y-112769428D01*
X201009238Y-112769428D01*
X201199714Y-112864666D01*
X201294952Y-112959904D01*
X201390190Y-113150380D01*
X201390190Y-113721809D01*
X201294952Y-113912285D01*
X201199714Y-114007523D01*
X201009238Y-114102761D01*
X200723523Y-114102761D01*
X203771142Y-114102761D02*
X203771142Y-112102761D01*
X204247333Y-112102761D01*
X204533047Y-112198000D01*
X204723523Y-112388476D01*
X204818761Y-112578952D01*
X204914000Y-112959904D01*
X204914000Y-113245619D01*
X204818761Y-113626571D01*
X204723523Y-113817047D01*
X204533047Y-114007523D01*
X204247333Y-114102761D01*
X203771142Y-114102761D01*
X205771142Y-114102761D02*
X205771142Y-112769428D01*
X205771142Y-112102761D02*
X205675904Y-112198000D01*
X205771142Y-112293238D01*
X205866380Y-112198000D01*
X205771142Y-112102761D01*
X205771142Y-112293238D01*
X207580666Y-112769428D02*
X207580666Y-114388476D01*
X207485428Y-114578952D01*
X207390190Y-114674190D01*
X207199714Y-114769428D01*
X206914000Y-114769428D01*
X206723523Y-114674190D01*
X207580666Y-114007523D02*
X207390190Y-114102761D01*
X207009238Y-114102761D01*
X206818761Y-114007523D01*
X206723523Y-113912285D01*
X206628285Y-113721809D01*
X206628285Y-113150380D01*
X206723523Y-112959904D01*
X206818761Y-112864666D01*
X207009238Y-112769428D01*
X207390190Y-112769428D01*
X207580666Y-112864666D01*
X208533047Y-114102761D02*
X208533047Y-112769428D01*
X208533047Y-112102761D02*
X208437809Y-112198000D01*
X208533047Y-112293238D01*
X208628285Y-112198000D01*
X208533047Y-112102761D01*
X208533047Y-112293238D01*
X209199714Y-112769428D02*
X209961619Y-112769428D01*
X209485428Y-112102761D02*
X209485428Y-113817047D01*
X209580666Y-114007523D01*
X209771142Y-114102761D01*
X209961619Y-114102761D01*
X211485428Y-114102761D02*
X211485428Y-113055142D01*
X211390190Y-112864666D01*
X211199714Y-112769428D01*
X210818761Y-112769428D01*
X210628285Y-112864666D01*
X211485428Y-114007523D02*
X211294952Y-114102761D01*
X210818761Y-114102761D01*
X210628285Y-114007523D01*
X210533047Y-113817047D01*
X210533047Y-113626571D01*
X210628285Y-113436095D01*
X210818761Y-113340857D01*
X211294952Y-113340857D01*
X211485428Y-113245619D01*
X212723523Y-114102761D02*
X212533047Y-114007523D01*
X212437809Y-113817047D01*
X212437809Y-112102761D01*
X195437809Y-117132285D02*
X195342571Y-117227523D01*
X195056857Y-117322761D01*
X194866380Y-117322761D01*
X194580666Y-117227523D01*
X194390190Y-117037047D01*
X194294952Y-116846571D01*
X194199714Y-116465619D01*
X194199714Y-116179904D01*
X194294952Y-115798952D01*
X194390190Y-115608476D01*
X194580666Y-115418000D01*
X194866380Y-115322761D01*
X195056857Y-115322761D01*
X195342571Y-115418000D01*
X195437809Y-115513238D01*
X196580666Y-117322761D02*
X196390190Y-117227523D01*
X196294952Y-117132285D01*
X196199714Y-116941809D01*
X196199714Y-116370380D01*
X196294952Y-116179904D01*
X196390190Y-116084666D01*
X196580666Y-115989428D01*
X196866380Y-115989428D01*
X197056857Y-116084666D01*
X197152095Y-116179904D01*
X197247333Y-116370380D01*
X197247333Y-116941809D01*
X197152095Y-117132285D01*
X197056857Y-117227523D01*
X196866380Y-117322761D01*
X196580666Y-117322761D01*
X198104476Y-115989428D02*
X198104476Y-117322761D01*
X198104476Y-116179904D02*
X198199714Y-116084666D01*
X198390190Y-115989428D01*
X198675904Y-115989428D01*
X198866380Y-116084666D01*
X198961619Y-116275142D01*
X198961619Y-117322761D01*
X199723523Y-115989428D02*
X200199714Y-117322761D01*
X200675904Y-115989428D01*
X202199714Y-117227523D02*
X202009238Y-117322761D01*
X201628285Y-117322761D01*
X201437809Y-117227523D01*
X201342571Y-117037047D01*
X201342571Y-116275142D01*
X201437809Y-116084666D01*
X201628285Y-115989428D01*
X202009238Y-115989428D01*
X202199714Y-116084666D01*
X202294952Y-116275142D01*
X202294952Y-116465619D01*
X201342571Y-116656095D01*
X203152095Y-117322761D02*
X203152095Y-115989428D01*
X203152095Y-116370380D02*
X203247333Y-116179904D01*
X203342571Y-116084666D01*
X203533047Y-115989428D01*
X203723523Y-115989428D01*
X204104476Y-115989428D02*
X204866380Y-115989428D01*
X204390190Y-115322761D02*
X204390190Y-117037047D01*
X204485428Y-117227523D01*
X204675904Y-117322761D01*
X204866380Y-117322761D01*
X206294952Y-117227523D02*
X206104476Y-117322761D01*
X205723523Y-117322761D01*
X205533047Y-117227523D01*
X205437809Y-117037047D01*
X205437809Y-116275142D01*
X205533047Y-116084666D01*
X205723523Y-115989428D01*
X206104476Y-115989428D01*
X206294952Y-116084666D01*
X206390190Y-116275142D01*
X206390190Y-116465619D01*
X205437809Y-116656095D01*
X207247333Y-117322761D02*
X207247333Y-115989428D01*
X207247333Y-116370380D02*
X207342571Y-116179904D01*
X207437809Y-116084666D01*
X207628285Y-115989428D01*
X207818761Y-115989428D01*
X199675904Y-121304666D02*
X199580666Y-121209428D01*
X199390190Y-120923714D01*
X199294952Y-120733238D01*
X199199714Y-120447523D01*
X199104476Y-119971333D01*
X199104476Y-119590380D01*
X199199714Y-119114190D01*
X199294952Y-118828476D01*
X199390190Y-118638000D01*
X199580666Y-118352285D01*
X199675904Y-118257047D01*
X200818761Y-118542761D02*
X201009238Y-118542761D01*
X201199714Y-118638000D01*
X201294952Y-118733238D01*
X201390190Y-118923714D01*
X201485428Y-119304666D01*
X201485428Y-119780857D01*
X201390190Y-120161809D01*
X201294952Y-120352285D01*
X201199714Y-120447523D01*
X201009238Y-120542761D01*
X200818761Y-120542761D01*
X200628285Y-120447523D01*
X200533047Y-120352285D01*
X200437809Y-120161809D01*
X200342571Y-119780857D01*
X200342571Y-119304666D01*
X200437809Y-118923714D01*
X200533047Y-118733238D01*
X200628285Y-118638000D01*
X200818761Y-118542761D01*
X202152095Y-121304666D02*
X202247333Y-121209428D01*
X202437809Y-120923714D01*
X202533047Y-120733238D01*
X202628285Y-120447523D01*
X202723523Y-119971333D01*
X202723523Y-119590380D01*
X202628285Y-119114190D01*
X202533047Y-118828476D01*
X202437809Y-118638000D01*
X202247333Y-118352285D01*
X202152095Y-118257047D01*
X133161000Y-103818000D02*
X134065761Y-103818000D01*
X133399095Y-104576571D02*
X133732428Y-104576571D01*
X133875285Y-105100380D02*
X133399095Y-105100380D01*
X133399095Y-104100380D01*
X133875285Y-104100380D01*
X134065761Y-103818000D02*
X134541952Y-103818000D01*
X134303857Y-105100380D02*
X134303857Y-104100380D01*
X179897000Y-90102000D02*
X180754142Y-90102000D01*
X180087476Y-91098666D02*
X180563666Y-91098666D01*
X179992238Y-91384380D02*
X180325571Y-90384380D01*
X180658904Y-91384380D01*
X180754142Y-90102000D02*
X181706523Y-90102000D01*
X181182714Y-90384380D02*
X181277952Y-90384380D01*
X181373190Y-90432000D01*
X181420809Y-90479619D01*
X181468428Y-90574857D01*
X181516047Y-90765333D01*
X181516047Y-91003428D01*
X181468428Y-91193904D01*
X181420809Y-91289142D01*
X181373190Y-91336761D01*
X181277952Y-91384380D01*
X181182714Y-91384380D01*
X181087476Y-91336761D01*
X181039857Y-91289142D01*
X180992238Y-91193904D01*
X180944619Y-91003428D01*
X180944619Y-90765333D01*
X180992238Y-90574857D01*
X181039857Y-90479619D01*
X181087476Y-90432000D01*
X181182714Y-90384380D01*
X121887190Y-92134000D02*
X122744333Y-92134000D01*
X122077666Y-93130666D02*
X122553857Y-93130666D01*
X121982428Y-93416380D02*
X122315761Y-92416380D01*
X122649095Y-93416380D01*
X122744333Y-92134000D02*
X123696714Y-92134000D01*
X122934809Y-92511619D02*
X122982428Y-92464000D01*
X123077666Y-92416380D01*
X123315761Y-92416380D01*
X123411000Y-92464000D01*
X123458619Y-92511619D01*
X123506238Y-92606857D01*
X123506238Y-92702095D01*
X123458619Y-92844952D01*
X122887190Y-93416380D01*
X123506238Y-93416380D01*
X123696714Y-92134000D02*
X124458619Y-92134000D01*
X123696714Y-93511619D02*
X124458619Y-93511619D01*
X124458619Y-92134000D02*
X125411000Y-92134000D01*
X124649095Y-92511619D02*
X124696714Y-92464000D01*
X124791952Y-92416380D01*
X125030047Y-92416380D01*
X125125285Y-92464000D01*
X125172904Y-92511619D01*
X125220523Y-92606857D01*
X125220523Y-92702095D01*
X125172904Y-92844952D01*
X124601476Y-93416380D01*
X125220523Y-93416380D01*
X88266428Y-115752571D02*
X88409285Y-115800190D01*
X88456904Y-115847809D01*
X88504523Y-115943047D01*
X88504523Y-116085904D01*
X88456904Y-116181142D01*
X88409285Y-116228761D01*
X88314047Y-116276380D01*
X87933095Y-116276380D01*
X87933095Y-115276380D01*
X88266428Y-115276380D01*
X88361666Y-115324000D01*
X88409285Y-115371619D01*
X88456904Y-115466857D01*
X88456904Y-115562095D01*
X88409285Y-115657333D01*
X88361666Y-115704952D01*
X88266428Y-115752571D01*
X87933095Y-115752571D01*
X89361666Y-115276380D02*
X89171190Y-115276380D01*
X89075952Y-115324000D01*
X89028333Y-115371619D01*
X88933095Y-115514476D01*
X88885476Y-115704952D01*
X88885476Y-116085904D01*
X88933095Y-116181142D01*
X88980714Y-116228761D01*
X89075952Y-116276380D01*
X89266428Y-116276380D01*
X89361666Y-116228761D01*
X89409285Y-116181142D01*
X89456904Y-116085904D01*
X89456904Y-115847809D01*
X89409285Y-115752571D01*
X89361666Y-115704952D01*
X89266428Y-115657333D01*
X89075952Y-115657333D01*
X88980714Y-115704952D01*
X88933095Y-115752571D01*
X88885476Y-115847809D01*
X133256238Y-116800380D02*
X133589571Y-117800380D01*
X133922904Y-116800380D01*
X134256238Y-117800380D02*
X134256238Y-117133714D01*
X134256238Y-117324190D02*
X134303857Y-117228952D01*
X134351476Y-117181333D01*
X134446714Y-117133714D01*
X134541952Y-117133714D01*
X135256238Y-117752761D02*
X135161000Y-117800380D01*
X134970523Y-117800380D01*
X134875285Y-117752761D01*
X134827666Y-117657523D01*
X134827666Y-117276571D01*
X134875285Y-117181333D01*
X134970523Y-117133714D01*
X135161000Y-117133714D01*
X135256238Y-117181333D01*
X135303857Y-117276571D01*
X135303857Y-117371809D01*
X134827666Y-117467047D01*
X135589571Y-117133714D02*
X135970523Y-117133714D01*
X135732428Y-117800380D02*
X135732428Y-116943238D01*
X135780047Y-116848000D01*
X135875285Y-116800380D01*
X135970523Y-116800380D01*
X136446714Y-117800380D02*
X136351476Y-117752761D01*
X136303857Y-117705142D01*
X136256238Y-117609904D01*
X136256238Y-117324190D01*
X136303857Y-117228952D01*
X136351476Y-117181333D01*
X136446714Y-117133714D01*
X136589571Y-117133714D01*
X136684809Y-117181333D01*
X136732428Y-117228952D01*
X136780047Y-117324190D01*
X136780047Y-117609904D01*
X136732428Y-117705142D01*
X136684809Y-117752761D01*
X136589571Y-117800380D01*
X136446714Y-117800380D01*
X121887190Y-97214000D02*
X122744333Y-97214000D01*
X122077666Y-98210666D02*
X122553857Y-98210666D01*
X121982428Y-98496380D02*
X122315761Y-97496380D01*
X122649095Y-98496380D01*
X122744333Y-97214000D02*
X123696714Y-97214000D01*
X122934809Y-97591619D02*
X122982428Y-97544000D01*
X123077666Y-97496380D01*
X123315761Y-97496380D01*
X123411000Y-97544000D01*
X123458619Y-97591619D01*
X123506238Y-97686857D01*
X123506238Y-97782095D01*
X123458619Y-97924952D01*
X122887190Y-98496380D01*
X123506238Y-98496380D01*
X123696714Y-97214000D02*
X124458619Y-97214000D01*
X123696714Y-98591619D02*
X124458619Y-98591619D01*
X124458619Y-97214000D02*
X125411000Y-97214000D01*
X124887190Y-97496380D02*
X124982428Y-97496380D01*
X125077666Y-97544000D01*
X125125285Y-97591619D01*
X125172904Y-97686857D01*
X125220523Y-97877333D01*
X125220523Y-98115428D01*
X125172904Y-98305904D01*
X125125285Y-98401142D01*
X125077666Y-98448761D01*
X124982428Y-98496380D01*
X124887190Y-98496380D01*
X124791952Y-98448761D01*
X124744333Y-98401142D01*
X124696714Y-98305904D01*
X124649095Y-98115428D01*
X124649095Y-97877333D01*
X124696714Y-97686857D01*
X124744333Y-97591619D01*
X124791952Y-97544000D01*
X124887190Y-97496380D01*
X88266428Y-103052571D02*
X88409285Y-103100190D01*
X88456904Y-103147809D01*
X88504523Y-103243047D01*
X88504523Y-103385904D01*
X88456904Y-103481142D01*
X88409285Y-103528761D01*
X88314047Y-103576380D01*
X87933095Y-103576380D01*
X87933095Y-102576380D01*
X88266428Y-102576380D01*
X88361666Y-102624000D01*
X88409285Y-102671619D01*
X88456904Y-102766857D01*
X88456904Y-102862095D01*
X88409285Y-102957333D01*
X88361666Y-103004952D01*
X88266428Y-103052571D01*
X87933095Y-103052571D01*
X89456904Y-103576380D02*
X88885476Y-103576380D01*
X89171190Y-103576380D02*
X89171190Y-102576380D01*
X89075952Y-102719238D01*
X88980714Y-102814476D01*
X88885476Y-102862095D01*
X179897000Y-103818000D02*
X180801761Y-103818000D01*
X180135095Y-104576571D02*
X180468428Y-104576571D01*
X180611285Y-105100380D02*
X180135095Y-105100380D01*
X180135095Y-104100380D01*
X180611285Y-104100380D01*
X180801761Y-103818000D02*
X181277952Y-103818000D01*
X181039857Y-105100380D02*
X181039857Y-104100380D01*
X121887190Y-104834000D02*
X122744333Y-104834000D01*
X122077666Y-105830666D02*
X122553857Y-105830666D01*
X121982428Y-106116380D02*
X122315761Y-105116380D01*
X122649095Y-106116380D01*
X122744333Y-104834000D02*
X123696714Y-104834000D01*
X123506238Y-106116380D02*
X122934809Y-106116380D01*
X123220523Y-106116380D02*
X123220523Y-105116380D01*
X123125285Y-105259238D01*
X123030047Y-105354476D01*
X122934809Y-105402095D01*
X123696714Y-104834000D02*
X124458619Y-104834000D01*
X123696714Y-106211619D02*
X124458619Y-106211619D01*
X124458619Y-104834000D02*
X125411000Y-104834000D01*
X125220523Y-106116380D02*
X124649095Y-106116380D01*
X124934809Y-106116380D02*
X124934809Y-105116380D01*
X124839571Y-105259238D01*
X124744333Y-105354476D01*
X124649095Y-105402095D01*
X179992238Y-77684380D02*
X180325571Y-78684380D01*
X180658904Y-77684380D01*
X180992238Y-78684380D02*
X180992238Y-78017714D01*
X180992238Y-77684380D02*
X180944619Y-77732000D01*
X180992238Y-77779619D01*
X181039857Y-77732000D01*
X180992238Y-77684380D01*
X180992238Y-77779619D01*
X181468428Y-78017714D02*
X181468428Y-78684380D01*
X181468428Y-78112952D02*
X181516047Y-78065333D01*
X181611285Y-78017714D01*
X181754142Y-78017714D01*
X181849380Y-78065333D01*
X181897000Y-78160571D01*
X181897000Y-78684380D01*
X133256238Y-82764380D02*
X133589571Y-83764380D01*
X133922904Y-82764380D01*
X134256238Y-83764380D02*
X134256238Y-83097714D01*
X134256238Y-83288190D02*
X134303857Y-83192952D01*
X134351476Y-83145333D01*
X134446714Y-83097714D01*
X134541952Y-83097714D01*
X135256238Y-83716761D02*
X135161000Y-83764380D01*
X134970523Y-83764380D01*
X134875285Y-83716761D01*
X134827666Y-83621523D01*
X134827666Y-83240571D01*
X134875285Y-83145333D01*
X134970523Y-83097714D01*
X135161000Y-83097714D01*
X135256238Y-83145333D01*
X135303857Y-83240571D01*
X135303857Y-83335809D01*
X134827666Y-83431047D01*
X135589571Y-83097714D02*
X135970523Y-83097714D01*
X135732428Y-83764380D02*
X135732428Y-82907238D01*
X135780047Y-82812000D01*
X135875285Y-82764380D01*
X135970523Y-82764380D01*
X136446714Y-83764380D02*
X136351476Y-83716761D01*
X136303857Y-83669142D01*
X136256238Y-83573904D01*
X136256238Y-83288190D01*
X136303857Y-83192952D01*
X136351476Y-83145333D01*
X136446714Y-83097714D01*
X136589571Y-83097714D01*
X136684809Y-83145333D01*
X136732428Y-83192952D01*
X136780047Y-83288190D01*
X136780047Y-83573904D01*
X136732428Y-83669142D01*
X136684809Y-83716761D01*
X136589571Y-83764380D01*
X136446714Y-83764380D01*
X88266428Y-105592571D02*
X88409285Y-105640190D01*
X88456904Y-105687809D01*
X88504523Y-105783047D01*
X88504523Y-105925904D01*
X88456904Y-106021142D01*
X88409285Y-106068761D01*
X88314047Y-106116380D01*
X87933095Y-106116380D01*
X87933095Y-105116380D01*
X88266428Y-105116380D01*
X88361666Y-105164000D01*
X88409285Y-105211619D01*
X88456904Y-105306857D01*
X88456904Y-105402095D01*
X88409285Y-105497333D01*
X88361666Y-105544952D01*
X88266428Y-105592571D01*
X87933095Y-105592571D01*
X88885476Y-105211619D02*
X88933095Y-105164000D01*
X89028333Y-105116380D01*
X89266428Y-105116380D01*
X89361666Y-105164000D01*
X89409285Y-105211619D01*
X89456904Y-105306857D01*
X89456904Y-105402095D01*
X89409285Y-105544952D01*
X88837857Y-106116380D01*
X89456904Y-106116380D01*
X88266428Y-108132571D02*
X88409285Y-108180190D01*
X88456904Y-108227809D01*
X88504523Y-108323047D01*
X88504523Y-108465904D01*
X88456904Y-108561142D01*
X88409285Y-108608761D01*
X88314047Y-108656380D01*
X87933095Y-108656380D01*
X87933095Y-107656380D01*
X88266428Y-107656380D01*
X88361666Y-107704000D01*
X88409285Y-107751619D01*
X88456904Y-107846857D01*
X88456904Y-107942095D01*
X88409285Y-108037333D01*
X88361666Y-108084952D01*
X88266428Y-108132571D01*
X87933095Y-108132571D01*
X88837857Y-107656380D02*
X89456904Y-107656380D01*
X89123571Y-108037333D01*
X89266428Y-108037333D01*
X89361666Y-108084952D01*
X89409285Y-108132571D01*
X89456904Y-108227809D01*
X89456904Y-108465904D01*
X89409285Y-108561142D01*
X89361666Y-108608761D01*
X89266428Y-108656380D01*
X88980714Y-108656380D01*
X88885476Y-108608761D01*
X88837857Y-108561142D01*
X133256238Y-80224380D02*
X133589571Y-81224380D01*
X133922904Y-80224380D01*
X134256238Y-81224380D02*
X134256238Y-80557714D01*
X134256238Y-80748190D02*
X134303857Y-80652952D01*
X134351476Y-80605333D01*
X134446714Y-80557714D01*
X134541952Y-80557714D01*
X135256238Y-81176761D02*
X135161000Y-81224380D01*
X134970523Y-81224380D01*
X134875285Y-81176761D01*
X134827666Y-81081523D01*
X134827666Y-80700571D01*
X134875285Y-80605333D01*
X134970523Y-80557714D01*
X135161000Y-80557714D01*
X135256238Y-80605333D01*
X135303857Y-80700571D01*
X135303857Y-80795809D01*
X134827666Y-80891047D01*
X135589571Y-80557714D02*
X135970523Y-80557714D01*
X135732428Y-81224380D02*
X135732428Y-80367238D01*
X135780047Y-80272000D01*
X135875285Y-80224380D01*
X135970523Y-80224380D01*
X136303857Y-81224380D02*
X136303857Y-80557714D01*
X136303857Y-80224380D02*
X136256238Y-80272000D01*
X136303857Y-80319619D01*
X136351476Y-80272000D01*
X136303857Y-80224380D01*
X136303857Y-80319619D01*
X179992238Y-82764380D02*
X180325571Y-83764380D01*
X180658904Y-82764380D01*
X180992238Y-83764380D02*
X180992238Y-83097714D01*
X180992238Y-83288190D02*
X181039857Y-83192952D01*
X181087476Y-83145333D01*
X181182714Y-83097714D01*
X181277952Y-83097714D01*
X181992238Y-83716761D02*
X181897000Y-83764380D01*
X181706523Y-83764380D01*
X181611285Y-83716761D01*
X181563666Y-83621523D01*
X181563666Y-83240571D01*
X181611285Y-83145333D01*
X181706523Y-83097714D01*
X181897000Y-83097714D01*
X181992238Y-83145333D01*
X182039857Y-83240571D01*
X182039857Y-83335809D01*
X181563666Y-83431047D01*
X182325571Y-83097714D02*
X182706523Y-83097714D01*
X182468428Y-83764380D02*
X182468428Y-82907238D01*
X182516047Y-82812000D01*
X182611285Y-82764380D01*
X182706523Y-82764380D01*
X183182714Y-83764380D02*
X183087476Y-83716761D01*
X183039857Y-83669142D01*
X182992238Y-83573904D01*
X182992238Y-83288190D01*
X183039857Y-83192952D01*
X183087476Y-83145333D01*
X183182714Y-83097714D01*
X183325571Y-83097714D01*
X183420809Y-83145333D01*
X183468428Y-83192952D01*
X183516047Y-83288190D01*
X183516047Y-83573904D01*
X183468428Y-83669142D01*
X183420809Y-83716761D01*
X183325571Y-83764380D01*
X183182714Y-83764380D01*
X217089380Y-106688000D02*
X216994142Y-106640380D01*
X216851285Y-106640380D01*
X216708428Y-106688000D01*
X216613190Y-106783238D01*
X216565571Y-106878476D01*
X216517952Y-107068952D01*
X216517952Y-107211809D01*
X216565571Y-107402285D01*
X216613190Y-107497523D01*
X216708428Y-107592761D01*
X216851285Y-107640380D01*
X216946523Y-107640380D01*
X217089380Y-107592761D01*
X217137000Y-107545142D01*
X217137000Y-107211809D01*
X216946523Y-107211809D01*
X217565571Y-106973714D02*
X217565571Y-107640380D01*
X217565571Y-107068952D02*
X217613190Y-107021333D01*
X217708428Y-106973714D01*
X217851285Y-106973714D01*
X217946523Y-107021333D01*
X217994142Y-107116571D01*
X217994142Y-107640380D01*
X218898904Y-107640380D02*
X218898904Y-106640380D01*
X218898904Y-107592761D02*
X218803666Y-107640380D01*
X218613190Y-107640380D01*
X218517952Y-107592761D01*
X218470333Y-107545142D01*
X218422714Y-107449904D01*
X218422714Y-107164190D01*
X218470333Y-107068952D01*
X218517952Y-107021333D01*
X218613190Y-106973714D01*
X218803666Y-106973714D01*
X218898904Y-107021333D01*
X121887190Y-94674000D02*
X122744333Y-94674000D01*
X122077666Y-95670666D02*
X122553857Y-95670666D01*
X121982428Y-95956380D02*
X122315761Y-94956380D01*
X122649095Y-95956380D01*
X122744333Y-94674000D02*
X123696714Y-94674000D01*
X122934809Y-95051619D02*
X122982428Y-95004000D01*
X123077666Y-94956380D01*
X123315761Y-94956380D01*
X123411000Y-95004000D01*
X123458619Y-95051619D01*
X123506238Y-95146857D01*
X123506238Y-95242095D01*
X123458619Y-95384952D01*
X122887190Y-95956380D01*
X123506238Y-95956380D01*
X123696714Y-94674000D02*
X124458619Y-94674000D01*
X123696714Y-96051619D02*
X124458619Y-96051619D01*
X124458619Y-94674000D02*
X125411000Y-94674000D01*
X125220523Y-95956380D02*
X124649095Y-95956380D01*
X124934809Y-95956380D02*
X124934809Y-94956380D01*
X124839571Y-95099238D01*
X124744333Y-95194476D01*
X124649095Y-95242095D01*
X179897000Y-119058000D02*
X180754142Y-119058000D01*
X180087476Y-120054666D02*
X180563666Y-120054666D01*
X179992238Y-120340380D02*
X180325571Y-119340380D01*
X180658904Y-120340380D01*
X180754142Y-119058000D02*
X181706523Y-119058000D01*
X180944619Y-119435619D02*
X180992238Y-119388000D01*
X181087476Y-119340380D01*
X181325571Y-119340380D01*
X181420809Y-119388000D01*
X181468428Y-119435619D01*
X181516047Y-119530857D01*
X181516047Y-119626095D01*
X181468428Y-119768952D01*
X180897000Y-120340380D01*
X181516047Y-120340380D01*
X108164380Y-78122238D02*
X108164380Y-78598428D01*
X108640571Y-78646047D01*
X108592952Y-78598428D01*
X108545333Y-78503190D01*
X108545333Y-78265095D01*
X108592952Y-78169857D01*
X108640571Y-78122238D01*
X108735809Y-78074619D01*
X108973904Y-78074619D01*
X109069142Y-78122238D01*
X109116761Y-78169857D01*
X109164380Y-78265095D01*
X109164380Y-78503190D01*
X109116761Y-78598428D01*
X109069142Y-78646047D01*
X108164380Y-77788904D02*
X109164380Y-77455571D01*
X108164380Y-77122238D01*
X121887190Y-114994000D02*
X122744333Y-114994000D01*
X122077666Y-115990666D02*
X122553857Y-115990666D01*
X121982428Y-116276380D02*
X122315761Y-115276380D01*
X122649095Y-116276380D01*
X122744333Y-114994000D02*
X123696714Y-114994000D01*
X123172904Y-115276380D02*
X123268142Y-115276380D01*
X123363380Y-115324000D01*
X123411000Y-115371619D01*
X123458619Y-115466857D01*
X123506238Y-115657333D01*
X123506238Y-115895428D01*
X123458619Y-116085904D01*
X123411000Y-116181142D01*
X123363380Y-116228761D01*
X123268142Y-116276380D01*
X123172904Y-116276380D01*
X123077666Y-116228761D01*
X123030047Y-116181142D01*
X122982428Y-116085904D01*
X122934809Y-115895428D01*
X122934809Y-115657333D01*
X122982428Y-115466857D01*
X123030047Y-115371619D01*
X123077666Y-115324000D01*
X123172904Y-115276380D01*
X123696714Y-114994000D02*
X124458619Y-114994000D01*
X123696714Y-116371619D02*
X124458619Y-116371619D01*
X124458619Y-114994000D02*
X125411000Y-114994000D01*
X125220523Y-116276380D02*
X124649095Y-116276380D01*
X124934809Y-116276380D02*
X124934809Y-115276380D01*
X124839571Y-115419238D01*
X124744333Y-115514476D01*
X124649095Y-115562095D01*
X120887190Y-99754000D02*
X121744333Y-99754000D01*
X121077666Y-100750666D02*
X121553857Y-100750666D01*
X120982428Y-101036380D02*
X121315761Y-100036380D01*
X121649095Y-101036380D01*
X121744333Y-99754000D02*
X122696714Y-99754000D01*
X122506238Y-101036380D02*
X121934809Y-101036380D01*
X122220523Y-101036380D02*
X122220523Y-100036380D01*
X122125285Y-100179238D01*
X122030047Y-100274476D01*
X121934809Y-100322095D01*
X122696714Y-99754000D02*
X123458619Y-99754000D01*
X122696714Y-101131619D02*
X123458619Y-101131619D01*
X123458619Y-99754000D02*
X124458619Y-99754000D01*
X124220523Y-100084000D02*
X124125285Y-100036380D01*
X123982428Y-100036380D01*
X123839571Y-100084000D01*
X123744333Y-100179238D01*
X123696714Y-100274476D01*
X123649095Y-100464952D01*
X123649095Y-100607809D01*
X123696714Y-100798285D01*
X123744333Y-100893523D01*
X123839571Y-100988761D01*
X123982428Y-101036380D01*
X124077666Y-101036380D01*
X124220523Y-100988761D01*
X124268142Y-100941142D01*
X124268142Y-100607809D01*
X124077666Y-100607809D01*
X124458619Y-99754000D02*
X125411000Y-99754000D01*
X124649095Y-100988761D02*
X124791952Y-101036380D01*
X125030047Y-101036380D01*
X125125285Y-100988761D01*
X125172904Y-100941142D01*
X125220523Y-100845904D01*
X125220523Y-100750666D01*
X125172904Y-100655428D01*
X125125285Y-100607809D01*
X125030047Y-100560190D01*
X124839571Y-100512571D01*
X124744333Y-100464952D01*
X124696714Y-100417333D01*
X124649095Y-100322095D01*
X124649095Y-100226857D01*
X124696714Y-100131619D01*
X124744333Y-100084000D01*
X124839571Y-100036380D01*
X125077666Y-100036380D01*
X125220523Y-100084000D01*
X150828857Y-75608761D02*
X152066952Y-75608761D01*
X151400285Y-76370666D01*
X151686000Y-76370666D01*
X151876476Y-76465904D01*
X151971714Y-76561142D01*
X152066952Y-76751619D01*
X152066952Y-77227809D01*
X151971714Y-77418285D01*
X151876476Y-77513523D01*
X151686000Y-77608761D01*
X151114571Y-77608761D01*
X150924095Y-77513523D01*
X150828857Y-77418285D01*
X152924095Y-76846857D02*
X154447904Y-76846857D01*
X155400285Y-77608761D02*
X155400285Y-75608761D01*
X155400285Y-76370666D02*
X155590761Y-76275428D01*
X155971714Y-76275428D01*
X156162190Y-76370666D01*
X156257428Y-76465904D01*
X156352666Y-76656380D01*
X156352666Y-77227809D01*
X156257428Y-77418285D01*
X156162190Y-77513523D01*
X155971714Y-77608761D01*
X155590761Y-77608761D01*
X155400285Y-77513523D01*
X157209809Y-77608761D02*
X157209809Y-76275428D01*
X157209809Y-75608761D02*
X157114571Y-75704000D01*
X157209809Y-75799238D01*
X157305047Y-75704000D01*
X157209809Y-75608761D01*
X157209809Y-75799238D01*
X157876476Y-76275428D02*
X158638380Y-76275428D01*
X158162190Y-75608761D02*
X158162190Y-77323047D01*
X158257428Y-77513523D01*
X158447904Y-77608761D01*
X158638380Y-77608761D01*
X141447904Y-80257333D02*
X142400285Y-80257333D01*
X141257428Y-80828761D02*
X141924095Y-78828761D01*
X142590761Y-80828761D01*
X143257428Y-79495428D02*
X143257428Y-80828761D01*
X143257428Y-79685904D02*
X143352666Y-79590666D01*
X143543142Y-79495428D01*
X143828857Y-79495428D01*
X144019333Y-79590666D01*
X144114571Y-79781142D01*
X144114571Y-80828761D01*
X145924095Y-80828761D02*
X145924095Y-79781142D01*
X145828857Y-79590666D01*
X145638380Y-79495428D01*
X145257428Y-79495428D01*
X145066952Y-79590666D01*
X145924095Y-80733523D02*
X145733619Y-80828761D01*
X145257428Y-80828761D01*
X145066952Y-80733523D01*
X144971714Y-80543047D01*
X144971714Y-80352571D01*
X145066952Y-80162095D01*
X145257428Y-80066857D01*
X145733619Y-80066857D01*
X145924095Y-79971619D01*
X147162190Y-80828761D02*
X146971714Y-80733523D01*
X146876476Y-80543047D01*
X146876476Y-78828761D01*
X148209809Y-80828761D02*
X148019333Y-80733523D01*
X147924095Y-80638285D01*
X147828857Y-80447809D01*
X147828857Y-79876380D01*
X147924095Y-79685904D01*
X148019333Y-79590666D01*
X148209809Y-79495428D01*
X148495523Y-79495428D01*
X148686000Y-79590666D01*
X148781238Y-79685904D01*
X148876476Y-79876380D01*
X148876476Y-80447809D01*
X148781238Y-80638285D01*
X148686000Y-80733523D01*
X148495523Y-80828761D01*
X148209809Y-80828761D01*
X150590761Y-79495428D02*
X150590761Y-81114476D01*
X150495523Y-81304952D01*
X150400285Y-81400190D01*
X150209809Y-81495428D01*
X149924095Y-81495428D01*
X149733619Y-81400190D01*
X150590761Y-80733523D02*
X150400285Y-80828761D01*
X150019333Y-80828761D01*
X149828857Y-80733523D01*
X149733619Y-80638285D01*
X149638380Y-80447809D01*
X149638380Y-79876380D01*
X149733619Y-79685904D01*
X149828857Y-79590666D01*
X150019333Y-79495428D01*
X150400285Y-79495428D01*
X150590761Y-79590666D01*
X152781238Y-79495428D02*
X153543142Y-79495428D01*
X153066952Y-78828761D02*
X153066952Y-80543047D01*
X153162190Y-80733523D01*
X153352666Y-80828761D01*
X153543142Y-80828761D01*
X154495523Y-80828761D02*
X154305047Y-80733523D01*
X154209809Y-80638285D01*
X154114571Y-80447809D01*
X154114571Y-79876380D01*
X154209809Y-79685904D01*
X154305047Y-79590666D01*
X154495523Y-79495428D01*
X154781238Y-79495428D01*
X154971714Y-79590666D01*
X155066952Y-79685904D01*
X155162190Y-79876380D01*
X155162190Y-80447809D01*
X155066952Y-80638285D01*
X154971714Y-80733523D01*
X154781238Y-80828761D01*
X154495523Y-80828761D01*
X157543142Y-80828761D02*
X157543142Y-78828761D01*
X158019333Y-78828761D01*
X158305047Y-78924000D01*
X158495523Y-79114476D01*
X158590761Y-79304952D01*
X158686000Y-79685904D01*
X158686000Y-79971619D01*
X158590761Y-80352571D01*
X158495523Y-80543047D01*
X158305047Y-80733523D01*
X158019333Y-80828761D01*
X157543142Y-80828761D01*
X159543142Y-80828761D02*
X159543142Y-79495428D01*
X159543142Y-78828761D02*
X159447904Y-78924000D01*
X159543142Y-79019238D01*
X159638380Y-78924000D01*
X159543142Y-78828761D01*
X159543142Y-79019238D01*
X161352666Y-79495428D02*
X161352666Y-81114476D01*
X161257428Y-81304952D01*
X161162190Y-81400190D01*
X160971714Y-81495428D01*
X160686000Y-81495428D01*
X160495523Y-81400190D01*
X161352666Y-80733523D02*
X161162190Y-80828761D01*
X160781238Y-80828761D01*
X160590761Y-80733523D01*
X160495523Y-80638285D01*
X160400285Y-80447809D01*
X160400285Y-79876380D01*
X160495523Y-79685904D01*
X160590761Y-79590666D01*
X160781238Y-79495428D01*
X161162190Y-79495428D01*
X161352666Y-79590666D01*
X162305047Y-80828761D02*
X162305047Y-79495428D01*
X162305047Y-78828761D02*
X162209809Y-78924000D01*
X162305047Y-79019238D01*
X162400285Y-78924000D01*
X162305047Y-78828761D01*
X162305047Y-79019238D01*
X162971714Y-79495428D02*
X163733619Y-79495428D01*
X163257428Y-78828761D02*
X163257428Y-80543047D01*
X163352666Y-80733523D01*
X163543142Y-80828761D01*
X163733619Y-80828761D01*
X165257428Y-80828761D02*
X165257428Y-79781142D01*
X165162190Y-79590666D01*
X164971714Y-79495428D01*
X164590761Y-79495428D01*
X164400285Y-79590666D01*
X165257428Y-80733523D02*
X165066952Y-80828761D01*
X164590761Y-80828761D01*
X164400285Y-80733523D01*
X164305047Y-80543047D01*
X164305047Y-80352571D01*
X164400285Y-80162095D01*
X164590761Y-80066857D01*
X165066952Y-80066857D01*
X165257428Y-79971619D01*
X166495523Y-80828761D02*
X166305047Y-80733523D01*
X166209809Y-80543047D01*
X166209809Y-78828761D01*
X149209809Y-83858285D02*
X149114571Y-83953523D01*
X148828857Y-84048761D01*
X148638380Y-84048761D01*
X148352666Y-83953523D01*
X148162190Y-83763047D01*
X148066952Y-83572571D01*
X147971714Y-83191619D01*
X147971714Y-82905904D01*
X148066952Y-82524952D01*
X148162190Y-82334476D01*
X148352666Y-82144000D01*
X148638380Y-82048761D01*
X148828857Y-82048761D01*
X149114571Y-82144000D01*
X149209809Y-82239238D01*
X150352666Y-84048761D02*
X150162190Y-83953523D01*
X150066952Y-83858285D01*
X149971714Y-83667809D01*
X149971714Y-83096380D01*
X150066952Y-82905904D01*
X150162190Y-82810666D01*
X150352666Y-82715428D01*
X150638380Y-82715428D01*
X150828857Y-82810666D01*
X150924095Y-82905904D01*
X151019333Y-83096380D01*
X151019333Y-83667809D01*
X150924095Y-83858285D01*
X150828857Y-83953523D01*
X150638380Y-84048761D01*
X150352666Y-84048761D01*
X151876476Y-82715428D02*
X151876476Y-84048761D01*
X151876476Y-82905904D02*
X151971714Y-82810666D01*
X152162190Y-82715428D01*
X152447904Y-82715428D01*
X152638380Y-82810666D01*
X152733619Y-83001142D01*
X152733619Y-84048761D01*
X153495523Y-82715428D02*
X153971714Y-84048761D01*
X154447904Y-82715428D01*
X155971714Y-83953523D02*
X155781238Y-84048761D01*
X155400285Y-84048761D01*
X155209809Y-83953523D01*
X155114571Y-83763047D01*
X155114571Y-83001142D01*
X155209809Y-82810666D01*
X155400285Y-82715428D01*
X155781238Y-82715428D01*
X155971714Y-82810666D01*
X156066952Y-83001142D01*
X156066952Y-83191619D01*
X155114571Y-83382095D01*
X156924095Y-84048761D02*
X156924095Y-82715428D01*
X156924095Y-83096380D02*
X157019333Y-82905904D01*
X157114571Y-82810666D01*
X157305047Y-82715428D01*
X157495523Y-82715428D01*
X157876476Y-82715428D02*
X158638380Y-82715428D01*
X158162190Y-82048761D02*
X158162190Y-83763047D01*
X158257428Y-83953523D01*
X158447904Y-84048761D01*
X158638380Y-84048761D01*
X160066952Y-83953523D02*
X159876476Y-84048761D01*
X159495523Y-84048761D01*
X159305047Y-83953523D01*
X159209809Y-83763047D01*
X159209809Y-83001142D01*
X159305047Y-82810666D01*
X159495523Y-82715428D01*
X159876476Y-82715428D01*
X160066952Y-82810666D01*
X160162190Y-83001142D01*
X160162190Y-83191619D01*
X159209809Y-83382095D01*
X161019333Y-84048761D02*
X161019333Y-82715428D01*
X161019333Y-83096380D02*
X161114571Y-82905904D01*
X161209809Y-82810666D01*
X161400285Y-82715428D01*
X161590761Y-82715428D01*
X153447904Y-88030666D02*
X153352666Y-87935428D01*
X153162190Y-87649714D01*
X153066952Y-87459238D01*
X152971714Y-87173523D01*
X152876476Y-86697333D01*
X152876476Y-86316380D01*
X152971714Y-85840190D01*
X153066952Y-85554476D01*
X153162190Y-85364000D01*
X153352666Y-85078285D01*
X153447904Y-84983047D01*
X154019333Y-85268761D02*
X155257428Y-85268761D01*
X154590761Y-86030666D01*
X154876476Y-86030666D01*
X155066952Y-86125904D01*
X155162190Y-86221142D01*
X155257428Y-86411619D01*
X155257428Y-86887809D01*
X155162190Y-87078285D01*
X155066952Y-87173523D01*
X154876476Y-87268761D01*
X154305047Y-87268761D01*
X154114571Y-87173523D01*
X154019333Y-87078285D01*
X155924095Y-88030666D02*
X156019333Y-87935428D01*
X156209809Y-87649714D01*
X156305047Y-87459238D01*
X156400285Y-87173523D01*
X156495523Y-86697333D01*
X156495523Y-86316380D01*
X156400285Y-85840190D01*
X156305047Y-85554476D01*
X156209809Y-85364000D01*
X156019333Y-85078285D01*
X155924095Y-84983047D01*
D12*
%TO.C,J13*%
X84860000Y-101854000D02*
X84860000Y-119694000D01*
X84860000Y-101854000D02*
X87520000Y-101854000D01*
X84860000Y-119694000D02*
X87520000Y-119694000D01*
X87520000Y-99254000D02*
X87520000Y-100584000D01*
X87520000Y-101854000D02*
X87520000Y-119694000D01*
X86190000Y-99254000D02*
X87520000Y-99254000D01*
%TO.C,J8*%
X172660000Y-108458000D02*
X172660000Y-113598000D01*
X173990000Y-105858000D02*
X175320000Y-105858000D01*
X172660000Y-108458000D02*
X175320000Y-108458000D01*
X175320000Y-105858000D02*
X175320000Y-107188000D01*
X175320000Y-108458000D02*
X175320000Y-113598000D01*
X172660000Y-113598000D02*
X175320000Y-113598000D01*
%TO.C,J2*%
X132927000Y-69038000D02*
X132927000Y-70368000D01*
X131597000Y-69038000D02*
X132927000Y-69038000D01*
X130267000Y-71638000D02*
X130267000Y-92018000D01*
X130267000Y-71638000D02*
X132927000Y-71638000D01*
X130267000Y-92018000D02*
X132927000Y-92018000D01*
X132927000Y-71638000D02*
X132927000Y-92018000D01*
%TO.C,J5*%
X122245000Y-61295000D02*
X122245000Y-55295000D01*
X129035000Y-61295000D02*
X98435000Y-61295000D01*
X122245000Y-55295000D02*
X123005000Y-55295000D01*
X107005000Y-55295000D02*
X107765000Y-55295000D01*
X101925000Y-55295000D02*
X102685000Y-55295000D01*
X116275000Y-63955000D02*
X116275000Y-61295000D01*
X99565000Y-61295000D02*
X99565000Y-55295000D01*
X99805000Y-61295000D02*
X99805000Y-55295000D01*
X126435000Y-63955000D02*
X126435000Y-61295000D01*
X104465000Y-64352071D02*
X104465000Y-63955000D01*
X124785000Y-64352071D02*
X124785000Y-63955000D01*
X111195000Y-63955000D02*
X111195000Y-61295000D01*
X98495000Y-66665000D02*
X98495000Y-65395000D01*
X99385000Y-61295000D02*
X99385000Y-55295000D01*
X107765000Y-64352071D02*
X107765000Y-63955000D01*
X99385000Y-64285000D02*
X99385000Y-63955000D01*
X112845000Y-55295000D02*
X112845000Y-61295000D01*
X107005000Y-61295000D02*
X107005000Y-55295000D01*
X109545000Y-55295000D02*
X110305000Y-55295000D01*
X115385000Y-55295000D02*
X115385000Y-61295000D01*
X117165000Y-55295000D02*
X117925000Y-55295000D01*
X114625000Y-61295000D02*
X114625000Y-55295000D01*
X101035000Y-63955000D02*
X101035000Y-61295000D01*
X128085000Y-55295000D02*
X128085000Y-61295000D01*
X118815000Y-63955000D02*
X118815000Y-61295000D01*
X124785000Y-55295000D02*
X125545000Y-55295000D01*
X114625000Y-64352071D02*
X114625000Y-63955000D01*
X123895000Y-63955000D02*
X123895000Y-61295000D01*
X110305000Y-55295000D02*
X110305000Y-61295000D01*
X98435000Y-61295000D02*
X98435000Y-63955000D01*
X110305000Y-64352071D02*
X110305000Y-63955000D01*
X122245000Y-64352071D02*
X122245000Y-63955000D01*
X127325000Y-64352071D02*
X127325000Y-63955000D01*
X124785000Y-61295000D02*
X124785000Y-55295000D01*
X120465000Y-64352071D02*
X120465000Y-63955000D01*
X112085000Y-61295000D02*
X112085000Y-55295000D01*
X100045000Y-61295000D02*
X100045000Y-55295000D01*
X112085000Y-64352071D02*
X112085000Y-63955000D01*
X100145000Y-55295000D02*
X100145000Y-61295000D01*
X123005000Y-64352071D02*
X123005000Y-63955000D01*
X117925000Y-64352071D02*
X117925000Y-63955000D01*
X129035000Y-63955000D02*
X129035000Y-61295000D01*
X117925000Y-55295000D02*
X117925000Y-61295000D01*
X125545000Y-64352071D02*
X125545000Y-63955000D01*
X104465000Y-61295000D02*
X104465000Y-55295000D01*
X104465000Y-55295000D02*
X105225000Y-55295000D01*
X99765000Y-66665000D02*
X98495000Y-66665000D01*
X121355000Y-63955000D02*
X121355000Y-61295000D01*
X98435000Y-63955000D02*
X129035000Y-63955000D01*
X112085000Y-55295000D02*
X112845000Y-55295000D01*
X125545000Y-55295000D02*
X125545000Y-61295000D01*
X106115000Y-63955000D02*
X106115000Y-61295000D01*
X109545000Y-61295000D02*
X109545000Y-55295000D01*
X107005000Y-64352071D02*
X107005000Y-63955000D01*
X127325000Y-61295000D02*
X127325000Y-55295000D01*
X100145000Y-64285000D02*
X100145000Y-63955000D01*
X123005000Y-55295000D02*
X123005000Y-61295000D01*
X119705000Y-55295000D02*
X120465000Y-55295000D01*
X101925000Y-64352071D02*
X101925000Y-63955000D01*
X114625000Y-55295000D02*
X115385000Y-55295000D01*
X112845000Y-64352071D02*
X112845000Y-63955000D01*
X99925000Y-61295000D02*
X99925000Y-55295000D01*
X113735000Y-63955000D02*
X113735000Y-61295000D01*
X105225000Y-64352071D02*
X105225000Y-63955000D01*
X108655000Y-63955000D02*
X108655000Y-61295000D01*
X117165000Y-61295000D02*
X117165000Y-55295000D01*
X102685000Y-55295000D02*
X102685000Y-61295000D01*
X119705000Y-61295000D02*
X119705000Y-55295000D01*
X115385000Y-64352071D02*
X115385000Y-63955000D01*
X99385000Y-55295000D02*
X100145000Y-55295000D01*
X119705000Y-64352071D02*
X119705000Y-63955000D01*
X105225000Y-55295000D02*
X105225000Y-61295000D01*
X102685000Y-64352071D02*
X102685000Y-63955000D01*
X117165000Y-64352071D02*
X117165000Y-63955000D01*
X120465000Y-55295000D02*
X120465000Y-61295000D01*
X103575000Y-63955000D02*
X103575000Y-61295000D01*
X99445000Y-61295000D02*
X99445000Y-55295000D01*
X109545000Y-64352071D02*
X109545000Y-63955000D01*
X127325000Y-55295000D02*
X128085000Y-55295000D01*
X107765000Y-55295000D02*
X107765000Y-61295000D01*
X128085000Y-64352071D02*
X128085000Y-63955000D01*
X101925000Y-61295000D02*
X101925000Y-55295000D01*
X99685000Y-61295000D02*
X99685000Y-55295000D01*
%TO.C,R1*%
X119407000Y-69876936D02*
X119407000Y-70331064D01*
X120877000Y-69876936D02*
X120877000Y-70331064D01*
%TO.C,J3*%
X175345000Y-71837000D02*
X175345000Y-73167000D01*
X172685000Y-74437000D02*
X172685000Y-79577000D01*
X172685000Y-79577000D02*
X175345000Y-79577000D01*
X174015000Y-71837000D02*
X175345000Y-71837000D01*
X172685000Y-74437000D02*
X175345000Y-74437000D01*
X175345000Y-74437000D02*
X175345000Y-79577000D01*
%TO.C,J1*%
X144410000Y-61290000D02*
X144410000Y-55290000D01*
X144530000Y-61290000D02*
X144530000Y-55290000D01*
X144610000Y-66660000D02*
X143340000Y-66660000D01*
X144770000Y-61290000D02*
X144770000Y-55290000D01*
X147530000Y-55290000D02*
X147530000Y-61290000D01*
X144890000Y-61290000D02*
X144890000Y-55290000D01*
X144230000Y-64280000D02*
X144230000Y-63950000D01*
X147530000Y-64347071D02*
X147530000Y-63950000D01*
X144990000Y-64280000D02*
X144990000Y-63950000D01*
X143340000Y-66660000D02*
X143340000Y-65390000D01*
X146770000Y-64347071D02*
X146770000Y-63950000D01*
X144230000Y-55290000D02*
X144990000Y-55290000D01*
X144990000Y-55290000D02*
X144990000Y-61290000D01*
X144650000Y-61290000D02*
X144650000Y-55290000D01*
X146770000Y-61290000D02*
X146770000Y-55290000D01*
X145880000Y-63950000D02*
X145880000Y-61290000D01*
X144230000Y-61290000D02*
X144230000Y-55290000D01*
X144290000Y-61290000D02*
X144290000Y-55290000D01*
X148480000Y-63950000D02*
X148480000Y-61290000D01*
X146770000Y-55290000D02*
X147530000Y-55290000D01*
X148480000Y-61290000D02*
X143280000Y-61290000D01*
X143280000Y-61290000D02*
X143280000Y-63950000D01*
X143280000Y-63950000D02*
X148480000Y-63950000D01*
%TO.C,J9*%
X176978000Y-105918000D02*
X179638000Y-105918000D01*
X178308000Y-103318000D02*
X179638000Y-103318000D01*
X179638000Y-103318000D02*
X179638000Y-104648000D01*
X179638000Y-105918000D02*
X179638000Y-126298000D01*
X176978000Y-126298000D02*
X179638000Y-126298000D01*
X176978000Y-105918000D02*
X176978000Y-126298000D01*
%TO.C,J6*%
X219421000Y-79577000D02*
X222081000Y-79577000D01*
X222081000Y-74437000D02*
X222081000Y-79577000D01*
X219421000Y-74437000D02*
X222081000Y-74437000D01*
X219421000Y-74437000D02*
X219421000Y-79577000D01*
X222081000Y-71837000D02*
X222081000Y-73167000D01*
X220751000Y-71837000D02*
X222081000Y-71837000D01*
%TO.C,J12*%
X128584000Y-117094000D02*
X128584000Y-78934000D01*
X125924000Y-117094000D02*
X125924000Y-78934000D01*
X128584000Y-78934000D02*
X125924000Y-78934000D01*
X128584000Y-117094000D02*
X125924000Y-117094000D01*
X125924000Y-119694000D02*
X125924000Y-118364000D01*
X127254000Y-119694000D02*
X125924000Y-119694000D01*
%TO.C,J14*%
X91200000Y-64054000D02*
X91200000Y-70794000D01*
X91200000Y-65174000D02*
X96980000Y-65174000D01*
X91200000Y-70274000D02*
X96980000Y-70274000D01*
X96980000Y-64054000D02*
X96980000Y-70794000D01*
X91200000Y-70794000D02*
X96980000Y-70794000D01*
X90960000Y-70394000D02*
X90960000Y-71034000D01*
X91200000Y-64054000D02*
X96980000Y-64054000D01*
X90960000Y-71034000D02*
X91360000Y-71034000D01*
%TO.C,J7*%
X130242000Y-105918000D02*
X132902000Y-105918000D01*
X130242000Y-126298000D02*
X132902000Y-126298000D01*
X132902000Y-103318000D02*
X132902000Y-104648000D01*
X132902000Y-105918000D02*
X132902000Y-126298000D01*
X130242000Y-105918000D02*
X130242000Y-126298000D01*
X131572000Y-103318000D02*
X132902000Y-103318000D01*
%TO.C,J10*%
X219421000Y-108458000D02*
X219421000Y-113598000D01*
X222081000Y-108458000D02*
X222081000Y-113598000D01*
X220751000Y-105858000D02*
X222081000Y-105858000D01*
X219421000Y-108458000D02*
X222081000Y-108458000D01*
X219421000Y-113598000D02*
X222081000Y-113598000D01*
X222081000Y-105858000D02*
X222081000Y-107188000D01*
%TO.C,J4*%
X179638000Y-69282000D02*
X179638000Y-70612000D01*
X176978000Y-71882000D02*
X179638000Y-71882000D01*
X178308000Y-69282000D02*
X179638000Y-69282000D01*
X176978000Y-71882000D02*
X176978000Y-92262000D01*
X176978000Y-92262000D02*
X179638000Y-92262000D01*
X179638000Y-71882000D02*
X179638000Y-92262000D01*
%TO.C,J11*%
X102302000Y-75438000D02*
X102302000Y-74108000D01*
X102302000Y-74108000D02*
X103632000Y-74108000D01*
X104902000Y-76768000D02*
X104902000Y-74108000D01*
X104902000Y-74108000D02*
X110042000Y-74108000D01*
X104902000Y-76768000D02*
X110042000Y-76768000D01*
X110042000Y-76768000D02*
X110042000Y-74108000D01*
%TO.C,R2*%
X123827000Y-69876936D02*
X123827000Y-70331064D01*
X122357000Y-69876936D02*
X122357000Y-70331064D01*
%TD*%
M02*
