%TF.GenerationSoftware,KiCad,Pcbnew,(5.1.9-0-10_14)*%
%TF.CreationDate,2021-07-04T10:57:11-04:00*%
%TF.ProjectId,register-smd,72656769-7374-4657-922d-736d642e6b69,rev?*%
%TF.SameCoordinates,Original*%
%TF.FileFunction,Soldermask,Bot*%
%TF.FilePolarity,Negative*%
%FSLAX46Y46*%
G04 Gerber Fmt 4.6, Leading zero omitted, Abs format (unit mm)*
G04 Created by KiCad (PCBNEW (5.1.9-0-10_14)) date 2021-07-04 10:57:11*
%MOMM*%
%LPD*%
G01*
G04 APERTURE LIST*
%ADD10O,1.700000X1.700000*%
%ADD11R,1.700000X1.700000*%
%ADD12O,1.600000X1.600000*%
%ADD13R,1.600000X1.600000*%
%ADD14C,1.600000*%
%ADD15C,0.800000*%
%ADD16C,6.000000*%
%ADD17C,2.600000*%
%ADD18R,2.600000X2.600000*%
G04 APERTURE END LIST*
D10*
%TO.C,J2*%
X148590000Y-97028000D03*
X148590000Y-94488000D03*
X148590000Y-91948000D03*
X148590000Y-89408000D03*
X148590000Y-86868000D03*
X148590000Y-84328000D03*
X148590000Y-81788000D03*
X148590000Y-79248000D03*
X148590000Y-76708000D03*
X148590000Y-74168000D03*
X148590000Y-71628000D03*
X148590000Y-69088000D03*
X148590000Y-66548000D03*
X148590000Y-64008000D03*
X148590000Y-61468000D03*
D11*
X148590000Y-58928000D03*
%TD*%
D12*
%TO.C,U47*%
X66040000Y-67818000D03*
X88900000Y-75438000D03*
X68580000Y-67818000D03*
X86360000Y-75438000D03*
X71120000Y-67818000D03*
X83820000Y-75438000D03*
X73660000Y-67818000D03*
X81280000Y-75438000D03*
X76200000Y-67818000D03*
X78740000Y-75438000D03*
X78740000Y-67818000D03*
X76200000Y-75438000D03*
X81280000Y-67818000D03*
X73660000Y-75438000D03*
X83820000Y-67818000D03*
X71120000Y-75438000D03*
X86360000Y-67818000D03*
X68580000Y-75438000D03*
X88900000Y-67818000D03*
D13*
X66040000Y-75438000D03*
%TD*%
D12*
%TO.C,U7*%
X66040000Y-93218000D03*
X88900000Y-100838000D03*
X68580000Y-93218000D03*
X86360000Y-100838000D03*
X71120000Y-93218000D03*
X83820000Y-100838000D03*
X73660000Y-93218000D03*
X81280000Y-100838000D03*
X76200000Y-93218000D03*
X78740000Y-100838000D03*
X78740000Y-93218000D03*
X76200000Y-100838000D03*
X81280000Y-93218000D03*
X73660000Y-100838000D03*
X83820000Y-93218000D03*
X71120000Y-100838000D03*
X86360000Y-93218000D03*
X68580000Y-100838000D03*
X88900000Y-93218000D03*
D13*
X66040000Y-100838000D03*
%TD*%
D12*
%TO.C,U6*%
X94996000Y-93218000D03*
X117856000Y-100838000D03*
X97536000Y-93218000D03*
X115316000Y-100838000D03*
X100076000Y-93218000D03*
X112776000Y-100838000D03*
X102616000Y-93218000D03*
X110236000Y-100838000D03*
X105156000Y-93218000D03*
X107696000Y-100838000D03*
X107696000Y-93218000D03*
X105156000Y-100838000D03*
X110236000Y-93218000D03*
X102616000Y-100838000D03*
X112776000Y-93218000D03*
X100076000Y-100838000D03*
X115316000Y-93218000D03*
X97536000Y-100838000D03*
X117856000Y-93218000D03*
D13*
X94996000Y-100838000D03*
%TD*%
D12*
%TO.C,U5*%
X66040000Y-80264000D03*
X88900000Y-87884000D03*
X68580000Y-80264000D03*
X86360000Y-87884000D03*
X71120000Y-80264000D03*
X83820000Y-87884000D03*
X73660000Y-80264000D03*
X81280000Y-87884000D03*
X76200000Y-80264000D03*
X78740000Y-87884000D03*
X78740000Y-80264000D03*
X76200000Y-87884000D03*
X81280000Y-80264000D03*
X73660000Y-87884000D03*
X83820000Y-80264000D03*
X71120000Y-87884000D03*
X86360000Y-80264000D03*
X68580000Y-87884000D03*
X88900000Y-80264000D03*
D13*
X66040000Y-87884000D03*
%TD*%
D12*
%TO.C,U4*%
X101346000Y-52324000D03*
X116586000Y-59944000D03*
X103886000Y-52324000D03*
X114046000Y-59944000D03*
X106426000Y-52324000D03*
X111506000Y-59944000D03*
X108966000Y-52324000D03*
X108966000Y-59944000D03*
X111506000Y-52324000D03*
X106426000Y-59944000D03*
X114046000Y-52324000D03*
X103886000Y-59944000D03*
X116586000Y-52324000D03*
D13*
X101346000Y-59944000D03*
%TD*%
D12*
%TO.C,U3*%
X94996000Y-80264000D03*
X117856000Y-87884000D03*
X97536000Y-80264000D03*
X115316000Y-87884000D03*
X100076000Y-80264000D03*
X112776000Y-87884000D03*
X102616000Y-80264000D03*
X110236000Y-87884000D03*
X105156000Y-80264000D03*
X107696000Y-87884000D03*
X107696000Y-80264000D03*
X105156000Y-87884000D03*
X110236000Y-80264000D03*
X102616000Y-87884000D03*
X112776000Y-80264000D03*
X100076000Y-87884000D03*
X115316000Y-80264000D03*
X97536000Y-87884000D03*
X117856000Y-80264000D03*
D13*
X94996000Y-87884000D03*
%TD*%
D12*
%TO.C,U2*%
X76962000Y-52324000D03*
X92202000Y-59944000D03*
X79502000Y-52324000D03*
X89662000Y-59944000D03*
X82042000Y-52324000D03*
X87122000Y-59944000D03*
X84582000Y-52324000D03*
X84582000Y-59944000D03*
X87122000Y-52324000D03*
X82042000Y-59944000D03*
X89662000Y-52324000D03*
X79502000Y-59944000D03*
X92202000Y-52324000D03*
D13*
X76962000Y-59944000D03*
%TD*%
D12*
%TO.C,U1*%
X94996000Y-67818000D03*
X117856000Y-75438000D03*
X97536000Y-67818000D03*
X115316000Y-75438000D03*
X100076000Y-67818000D03*
X112776000Y-75438000D03*
X102616000Y-67818000D03*
X110236000Y-75438000D03*
X105156000Y-67818000D03*
X107696000Y-75438000D03*
X107696000Y-67818000D03*
X105156000Y-75438000D03*
X110236000Y-67818000D03*
X102616000Y-75438000D03*
X112776000Y-67818000D03*
X100076000Y-75438000D03*
X115316000Y-67818000D03*
X97536000Y-75438000D03*
X117856000Y-67818000D03*
D13*
X94996000Y-75438000D03*
%TD*%
D14*
%TO.C,C4*%
X65746000Y-60960000D03*
D13*
X63246000Y-60960000D03*
%TD*%
D10*
%TO.C,J8*%
X55118000Y-56134000D03*
X55118000Y-58674000D03*
X55118000Y-61214000D03*
X55118000Y-63754000D03*
X55118000Y-66294000D03*
X55118000Y-68834000D03*
X55118000Y-71374000D03*
X55118000Y-73914000D03*
X55118000Y-76454000D03*
X55118000Y-78994000D03*
X55118000Y-81534000D03*
X55118000Y-84074000D03*
X55118000Y-86614000D03*
X55118000Y-89154000D03*
X55118000Y-91694000D03*
X55118000Y-94234000D03*
X55118000Y-96774000D03*
D11*
X55118000Y-99314000D03*
%TD*%
D15*
%TO.C,REF\u002A\u002A*%
X148910990Y-104327010D03*
X147320000Y-103668000D03*
X145729010Y-104327010D03*
X145070000Y-105918000D03*
X145729010Y-107508990D03*
X147320000Y-108168000D03*
X148910990Y-107508990D03*
X149570000Y-105918000D03*
D16*
X147320000Y-105918000D03*
%TD*%
%TO.C,REF\u002A\u002A*%
X147320000Y-49784000D03*
D15*
X149570000Y-49784000D03*
X148910990Y-51374990D03*
X147320000Y-52034000D03*
X145729010Y-51374990D03*
X145070000Y-49784000D03*
X145729010Y-48193010D03*
X147320000Y-47534000D03*
X148910990Y-48193010D03*
%TD*%
D16*
%TO.C,REF\u002A\u002A*%
X55880000Y-105918000D03*
D15*
X58130000Y-105918000D03*
X57470990Y-107508990D03*
X55880000Y-108168000D03*
X54289010Y-107508990D03*
X53630000Y-105918000D03*
X54289010Y-104327010D03*
X55880000Y-103668000D03*
X57470990Y-104327010D03*
%TD*%
D17*
%TO.C,J1*%
X64596000Y-51562000D03*
D18*
X69596000Y-51562000D03*
%TD*%
D15*
%TO.C,REF\u002A\u002A*%
X57470990Y-48193010D03*
X55880000Y-47534000D03*
X54289010Y-48193010D03*
X53630000Y-49784000D03*
X54289010Y-51374990D03*
X55880000Y-52034000D03*
X57470990Y-51374990D03*
X58130000Y-49784000D03*
D16*
X55880000Y-49784000D03*
%TD*%
M02*
