%TF.GenerationSoftware,KiCad,Pcbnew,(5.1.9-0-10_14)*%
%TF.CreationDate,2021-06-29T22:32:57-04:00*%
%TF.ProjectId,COUNTER,434f554e-5445-4522-9e6b-696361645f70,rev?*%
%TF.SameCoordinates,Original*%
%TF.FileFunction,Copper,L3,Inr*%
%TF.FilePolarity,Positive*%
%FSLAX46Y46*%
G04 Gerber Fmt 4.6, Leading zero omitted, Abs format (unit mm)*
G04 Created by KiCad (PCBNEW (5.1.9-0-10_14)) date 2021-06-29 22:32:57*
%MOMM*%
%LPD*%
G01*
G04 APERTURE LIST*
%TA.AperFunction,ComponentPad*%
%ADD10O,1.700000X1.700000*%
%TD*%
%TA.AperFunction,ComponentPad*%
%ADD11R,1.700000X1.700000*%
%TD*%
%TA.AperFunction,ComponentPad*%
%ADD12C,0.800000*%
%TD*%
%TA.AperFunction,ComponentPad*%
%ADD13C,6.000000*%
%TD*%
%TA.AperFunction,ComponentPad*%
%ADD14O,1.600000X1.600000*%
%TD*%
%TA.AperFunction,ComponentPad*%
%ADD15R,1.600000X1.600000*%
%TD*%
%TA.AperFunction,ComponentPad*%
%ADD16C,2.032000*%
%TD*%
%TA.AperFunction,ComponentPad*%
%ADD17R,2.032000X2.032000*%
%TD*%
%TA.AperFunction,ComponentPad*%
%ADD18C,2.600000*%
%TD*%
%TA.AperFunction,ComponentPad*%
%ADD19R,2.600000X2.600000*%
%TD*%
%TA.AperFunction,ComponentPad*%
%ADD20C,1.600000*%
%TD*%
%TA.AperFunction,Conductor*%
%ADD21C,0.254000*%
%TD*%
%TA.AperFunction,Conductor*%
%ADD22C,0.100000*%
%TD*%
G04 APERTURE END LIST*
D10*
%TO.N,CARRY_OUT*%
%TO.C,J22*%
X85595500Y-36806000D03*
%TO.N,CE*%
X88135500Y-36806000D03*
%TO.N,OE*%
X90675500Y-36806000D03*
%TO.N,CLOCK*%
X93215500Y-36806000D03*
%TO.N,RESET*%
X95755500Y-36806000D03*
D11*
%TO.N,JUMP*%
X98295500Y-36806000D03*
%TD*%
D12*
%TO.N,N/C*%
%TO.C,REF\u002A\u002A*%
X144082490Y-71427510D03*
X142491500Y-70768500D03*
X140900510Y-71427510D03*
X140241500Y-73018500D03*
X140900510Y-74609490D03*
X142491500Y-75268500D03*
X144082490Y-74609490D03*
X144741500Y-73018500D03*
D13*
X142491500Y-73018500D03*
%TD*%
%TO.N,N/C*%
%TO.C,REF\u002A\u002A*%
X80191500Y-73008500D03*
D12*
X82441500Y-73008500D03*
X81782490Y-74599490D03*
X80191500Y-75258500D03*
X78600510Y-74599490D03*
X77941500Y-73008500D03*
X78600510Y-71417510D03*
X80191500Y-70758500D03*
X81782490Y-71417510D03*
%TD*%
D13*
%TO.N,N/C*%
%TO.C,REF\u002A\u002A*%
X142461500Y-34608500D03*
D12*
X144711500Y-34608500D03*
X144052490Y-36199490D03*
X142461500Y-36858500D03*
X140870510Y-36199490D03*
X140211500Y-34608500D03*
X140870510Y-33017510D03*
X142461500Y-32358500D03*
X144052490Y-33017510D03*
%TD*%
%TO.N,N/C*%
%TO.C,REF\u002A\u002A*%
X81782490Y-32957510D03*
X80191500Y-32298500D03*
X78600510Y-32957510D03*
X77941500Y-34548500D03*
X78600510Y-36139490D03*
X80191500Y-36798500D03*
X81782490Y-36139490D03*
X82441500Y-34548500D03*
D13*
X80191500Y-34548500D03*
%TD*%
D14*
%TO.N,Net-(BAR1-Pad13)*%
%TO.C,RN1*%
X116641500Y-70458500D03*
%TO.N,Net-(BAR1-Pad14)*%
X119181500Y-70458500D03*
%TO.N,Net-(BAR1-Pad15)*%
X121721500Y-70458500D03*
%TO.N,Net-(BAR1-Pad16)*%
X124261500Y-70458500D03*
%TO.N,Net-(BAR1-Pad17)*%
X126801500Y-70458500D03*
%TO.N,Net-(BAR1-Pad18)*%
X129341500Y-70458500D03*
%TO.N,Net-(BAR1-Pad19)*%
X131881500Y-70458500D03*
%TO.N,Net-(BAR1-Pad20)*%
X134421500Y-70458500D03*
D15*
%TO.N,GND*%
X136961500Y-70458500D03*
%TD*%
D16*
%TO.N,Net-(BAR1-Pad20)*%
%TO.C,BAR1*%
X139871500Y-63498500D03*
%TO.N,Net-(BAR1-Pad19)*%
X137331500Y-63498500D03*
%TO.N,Net-(BAR1-Pad18)*%
X134791500Y-63498500D03*
%TO.N,Net-(BAR1-Pad17)*%
X132251500Y-63498500D03*
%TO.N,Net-(BAR1-Pad9)*%
X119551500Y-55878500D03*
%TO.N,Net-(BAR1-Pad10)*%
X117011500Y-55878500D03*
%TO.N,Net-(BAR1-Pad11)*%
X117011500Y-63498500D03*
%TO.N,Net-(BAR1-Pad12)*%
X119551500Y-63498500D03*
%TO.N,B0*%
X122091500Y-55878500D03*
%TO.N,B1*%
X124631500Y-55878500D03*
%TO.N,B2*%
X127171500Y-55878500D03*
%TO.N,B3*%
X129711500Y-55878500D03*
%TO.N,Net-(BAR1-Pad16)*%
X129711500Y-63498500D03*
%TO.N,Net-(BAR1-Pad15)*%
X127171500Y-63498500D03*
%TO.N,Net-(BAR1-Pad14)*%
X124631500Y-63498500D03*
%TO.N,Net-(BAR1-Pad13)*%
X122091500Y-63498500D03*
%TO.N,B4*%
X132251500Y-55878500D03*
%TO.N,B5*%
X134791500Y-55878500D03*
%TO.N,B6*%
X137331500Y-55878500D03*
D17*
%TO.N,B7*%
X139871500Y-55878500D03*
%TD*%
D18*
%TO.N,VCC*%
%TO.C,J1*%
X140471500Y-43998500D03*
D19*
%TO.N,GND*%
X140471500Y-48998500D03*
%TD*%
D10*
%TO.N,D8*%
%TO.C,J23*%
X103121500Y-36806000D03*
%TO.N,D7*%
X105661500Y-36806000D03*
%TO.N,D6*%
X108201500Y-36806000D03*
%TO.N,D5*%
X110741500Y-36806000D03*
%TO.N,D4*%
X113281500Y-36806000D03*
%TO.N,D3*%
X115821500Y-36806000D03*
%TO.N,D2*%
X118361500Y-36806000D03*
D11*
%TO.N,D1*%
X120901500Y-36806000D03*
%TD*%
D10*
%TO.N,OUT_01*%
%TO.C,J24*%
X81244000Y-45168500D03*
%TO.N,OUT_02*%
X81244000Y-47708500D03*
%TO.N,OUT_03*%
X81244000Y-50248500D03*
%TO.N,OUT_04*%
X81244000Y-52788500D03*
%TO.N,OUT_05*%
X81244000Y-55328500D03*
%TO.N,OUT_06*%
X81244000Y-57868500D03*
%TO.N,OUT_07*%
X81244000Y-60408500D03*
D11*
%TO.N,OUT_08*%
X81244000Y-62948500D03*
%TD*%
D14*
%TO.N,VCC*%
%TO.C,U14*%
X128936000Y-50101500D03*
%TO.N,GND*%
X111156000Y-42481500D03*
%TO.N,Net-(U12-Pad10)*%
X126396000Y-50101500D03*
%TO.N,CE*%
X113696000Y-42481500D03*
%TO.N,B0*%
X123856000Y-50101500D03*
%TO.N,D4*%
X116236000Y-42481500D03*
%TO.N,B1*%
X121316000Y-50101500D03*
%TO.N,D3*%
X118776000Y-42481500D03*
%TO.N,B2*%
X118776000Y-50101500D03*
%TO.N,D2*%
X121316000Y-42481500D03*
%TO.N,B3*%
X116236000Y-50101500D03*
%TO.N,D1*%
X123856000Y-42481500D03*
%TO.N,CE*%
X113696000Y-50101500D03*
%TO.N,CLOCK*%
X126396000Y-42481500D03*
%TO.N,JUMP*%
X111156000Y-50101500D03*
D15*
%TO.N,RESET*%
X128936000Y-42481500D03*
%TD*%
D14*
%TO.N,VCC*%
%TO.C,U47*%
X87757000Y-55308500D03*
%TO.N,GND*%
X110617000Y-62928500D03*
%TO.N,OE*%
X90297000Y-55308500D03*
%TO.N,OUT_01*%
X108077000Y-62928500D03*
%TO.N,B0*%
X92837000Y-55308500D03*
%TO.N,OUT_02*%
X105537000Y-62928500D03*
%TO.N,B1*%
X95377000Y-55308500D03*
%TO.N,OUT_03*%
X102997000Y-62928500D03*
%TO.N,B2*%
X97917000Y-55308500D03*
%TO.N,OUT_04*%
X100457000Y-62928500D03*
%TO.N,B3*%
X100457000Y-55308500D03*
%TO.N,OUT_05*%
X97917000Y-62928500D03*
%TO.N,B4*%
X102997000Y-55308500D03*
%TO.N,OUT_06*%
X95377000Y-62928500D03*
%TO.N,B5*%
X105537000Y-55308500D03*
%TO.N,OUT_07*%
X92837000Y-62928500D03*
%TO.N,B6*%
X108077000Y-55308500D03*
%TO.N,OUT_08*%
X90297000Y-62928500D03*
%TO.N,B7*%
X110617000Y-55308500D03*
D15*
%TO.N,GND*%
X87757000Y-62928500D03*
%TD*%
D14*
%TO.N,VCC*%
%TO.C,U12*%
X105664000Y-49974500D03*
%TO.N,GND*%
X87884000Y-42354500D03*
%TO.N,CARRY_OUT*%
X103124000Y-49974500D03*
%TO.N,VCC*%
X90424000Y-42354500D03*
%TO.N,B4*%
X100584000Y-49974500D03*
%TO.N,D8*%
X92964000Y-42354500D03*
%TO.N,B5*%
X98044000Y-49974500D03*
%TO.N,D7*%
X95504000Y-42354500D03*
%TO.N,B6*%
X95504000Y-49974500D03*
%TO.N,D6*%
X98044000Y-42354500D03*
%TO.N,B7*%
X92964000Y-49974500D03*
%TO.N,D5*%
X100584000Y-42354500D03*
%TO.N,Net-(U12-Pad10)*%
X90424000Y-49974500D03*
%TO.N,CLOCK*%
X103124000Y-42354500D03*
%TO.N,JUMP*%
X87884000Y-49974500D03*
D15*
%TO.N,RESET*%
X105664000Y-42354500D03*
%TD*%
D10*
%TO.N,VCC*%
%TO.C,J10*%
X125989000Y-36719500D03*
D11*
%TO.N,GND*%
X128529000Y-36719500D03*
%TD*%
D20*
%TO.N,GND*%
%TO.C,C10*%
X136231500Y-36628500D03*
%TO.N,VCC*%
X133731500Y-36628500D03*
%TD*%
D21*
%TO.N,VCC*%
X139638011Y-32291323D02*
X139240205Y-32886682D01*
X138966191Y-33548210D01*
X138826500Y-34250484D01*
X138826500Y-34966516D01*
X138966191Y-35668790D01*
X139240205Y-36330318D01*
X139638011Y-36925677D01*
X140144323Y-37431989D01*
X140739682Y-37829795D01*
X141401210Y-38103809D01*
X142103484Y-38243500D01*
X142819516Y-38243500D01*
X143521790Y-38103809D01*
X144183318Y-37829795D01*
X144778677Y-37431989D01*
X145221500Y-36989166D01*
X145221501Y-70607835D01*
X144808677Y-70195011D01*
X144213318Y-69797205D01*
X143551790Y-69523191D01*
X142849516Y-69383500D01*
X142133484Y-69383500D01*
X141431210Y-69523191D01*
X140769682Y-69797205D01*
X140174323Y-70195011D01*
X139668011Y-70701323D01*
X139270205Y-71296682D01*
X138996191Y-71958210D01*
X138856500Y-72660484D01*
X138856500Y-73376516D01*
X138996191Y-74078790D01*
X139270205Y-74740318D01*
X139668011Y-75335677D01*
X140130834Y-75798500D01*
X82542166Y-75798500D01*
X83014989Y-75325677D01*
X83412795Y-74730318D01*
X83686809Y-74068790D01*
X83826500Y-73366516D01*
X83826500Y-72650484D01*
X83686809Y-71948210D01*
X83412795Y-71286682D01*
X83014989Y-70691323D01*
X82640831Y-70317165D01*
X115206500Y-70317165D01*
X115206500Y-70599835D01*
X115261647Y-70877074D01*
X115369820Y-71138227D01*
X115526863Y-71373259D01*
X115726741Y-71573137D01*
X115961773Y-71730180D01*
X116222926Y-71838353D01*
X116500165Y-71893500D01*
X116782835Y-71893500D01*
X117060074Y-71838353D01*
X117321227Y-71730180D01*
X117556259Y-71573137D01*
X117756137Y-71373259D01*
X117911500Y-71140741D01*
X118066863Y-71373259D01*
X118266741Y-71573137D01*
X118501773Y-71730180D01*
X118762926Y-71838353D01*
X119040165Y-71893500D01*
X119322835Y-71893500D01*
X119600074Y-71838353D01*
X119861227Y-71730180D01*
X120096259Y-71573137D01*
X120296137Y-71373259D01*
X120451500Y-71140741D01*
X120606863Y-71373259D01*
X120806741Y-71573137D01*
X121041773Y-71730180D01*
X121302926Y-71838353D01*
X121580165Y-71893500D01*
X121862835Y-71893500D01*
X122140074Y-71838353D01*
X122401227Y-71730180D01*
X122636259Y-71573137D01*
X122836137Y-71373259D01*
X122991500Y-71140741D01*
X123146863Y-71373259D01*
X123346741Y-71573137D01*
X123581773Y-71730180D01*
X123842926Y-71838353D01*
X124120165Y-71893500D01*
X124402835Y-71893500D01*
X124680074Y-71838353D01*
X124941227Y-71730180D01*
X125176259Y-71573137D01*
X125376137Y-71373259D01*
X125531500Y-71140741D01*
X125686863Y-71373259D01*
X125886741Y-71573137D01*
X126121773Y-71730180D01*
X126382926Y-71838353D01*
X126660165Y-71893500D01*
X126942835Y-71893500D01*
X127220074Y-71838353D01*
X127481227Y-71730180D01*
X127716259Y-71573137D01*
X127916137Y-71373259D01*
X128071500Y-71140741D01*
X128226863Y-71373259D01*
X128426741Y-71573137D01*
X128661773Y-71730180D01*
X128922926Y-71838353D01*
X129200165Y-71893500D01*
X129482835Y-71893500D01*
X129760074Y-71838353D01*
X130021227Y-71730180D01*
X130256259Y-71573137D01*
X130456137Y-71373259D01*
X130611500Y-71140741D01*
X130766863Y-71373259D01*
X130966741Y-71573137D01*
X131201773Y-71730180D01*
X131462926Y-71838353D01*
X131740165Y-71893500D01*
X132022835Y-71893500D01*
X132300074Y-71838353D01*
X132561227Y-71730180D01*
X132796259Y-71573137D01*
X132996137Y-71373259D01*
X133151500Y-71140741D01*
X133306863Y-71373259D01*
X133506741Y-71573137D01*
X133741773Y-71730180D01*
X134002926Y-71838353D01*
X134280165Y-71893500D01*
X134562835Y-71893500D01*
X134840074Y-71838353D01*
X135101227Y-71730180D01*
X135336259Y-71573137D01*
X135534857Y-71374539D01*
X135535688Y-71382982D01*
X135571998Y-71502680D01*
X135630963Y-71612994D01*
X135710315Y-71709685D01*
X135807006Y-71789037D01*
X135917320Y-71848002D01*
X136037018Y-71884312D01*
X136161500Y-71896572D01*
X137761500Y-71896572D01*
X137885982Y-71884312D01*
X138005680Y-71848002D01*
X138115994Y-71789037D01*
X138212685Y-71709685D01*
X138292037Y-71612994D01*
X138351002Y-71502680D01*
X138387312Y-71382982D01*
X138399572Y-71258500D01*
X138399572Y-69658500D01*
X138387312Y-69534018D01*
X138351002Y-69414320D01*
X138292037Y-69304006D01*
X138212685Y-69207315D01*
X138115994Y-69127963D01*
X138005680Y-69068998D01*
X137885982Y-69032688D01*
X137761500Y-69020428D01*
X136161500Y-69020428D01*
X136037018Y-69032688D01*
X135917320Y-69068998D01*
X135807006Y-69127963D01*
X135710315Y-69207315D01*
X135630963Y-69304006D01*
X135571998Y-69414320D01*
X135535688Y-69534018D01*
X135534857Y-69542461D01*
X135336259Y-69343863D01*
X135101227Y-69186820D01*
X134840074Y-69078647D01*
X134562835Y-69023500D01*
X134280165Y-69023500D01*
X134002926Y-69078647D01*
X133741773Y-69186820D01*
X133506741Y-69343863D01*
X133306863Y-69543741D01*
X133151500Y-69776259D01*
X132996137Y-69543741D01*
X132796259Y-69343863D01*
X132561227Y-69186820D01*
X132300074Y-69078647D01*
X132022835Y-69023500D01*
X131740165Y-69023500D01*
X131462926Y-69078647D01*
X131201773Y-69186820D01*
X130966741Y-69343863D01*
X130766863Y-69543741D01*
X130611500Y-69776259D01*
X130456137Y-69543741D01*
X130256259Y-69343863D01*
X130021227Y-69186820D01*
X129760074Y-69078647D01*
X129482835Y-69023500D01*
X129200165Y-69023500D01*
X128922926Y-69078647D01*
X128661773Y-69186820D01*
X128426741Y-69343863D01*
X128226863Y-69543741D01*
X128071500Y-69776259D01*
X127916137Y-69543741D01*
X127716259Y-69343863D01*
X127481227Y-69186820D01*
X127220074Y-69078647D01*
X126942835Y-69023500D01*
X126660165Y-69023500D01*
X126382926Y-69078647D01*
X126121773Y-69186820D01*
X125886741Y-69343863D01*
X125686863Y-69543741D01*
X125531500Y-69776259D01*
X125376137Y-69543741D01*
X125176259Y-69343863D01*
X124941227Y-69186820D01*
X124680074Y-69078647D01*
X124402835Y-69023500D01*
X124120165Y-69023500D01*
X123842926Y-69078647D01*
X123581773Y-69186820D01*
X123346741Y-69343863D01*
X123146863Y-69543741D01*
X122991500Y-69776259D01*
X122836137Y-69543741D01*
X122636259Y-69343863D01*
X122401227Y-69186820D01*
X122140074Y-69078647D01*
X121862835Y-69023500D01*
X121580165Y-69023500D01*
X121302926Y-69078647D01*
X121041773Y-69186820D01*
X120806741Y-69343863D01*
X120606863Y-69543741D01*
X120451500Y-69776259D01*
X120296137Y-69543741D01*
X120096259Y-69343863D01*
X119861227Y-69186820D01*
X119600074Y-69078647D01*
X119322835Y-69023500D01*
X119040165Y-69023500D01*
X118762926Y-69078647D01*
X118501773Y-69186820D01*
X118266741Y-69343863D01*
X118066863Y-69543741D01*
X117911500Y-69776259D01*
X117756137Y-69543741D01*
X117556259Y-69343863D01*
X117321227Y-69186820D01*
X117060074Y-69078647D01*
X116782835Y-69023500D01*
X116500165Y-69023500D01*
X116222926Y-69078647D01*
X115961773Y-69186820D01*
X115726741Y-69343863D01*
X115526863Y-69543741D01*
X115369820Y-69778773D01*
X115261647Y-70039926D01*
X115206500Y-70317165D01*
X82640831Y-70317165D01*
X82508677Y-70185011D01*
X81913318Y-69787205D01*
X81251790Y-69513191D01*
X80549516Y-69373500D01*
X79833484Y-69373500D01*
X79131210Y-69513191D01*
X78469682Y-69787205D01*
X77874323Y-70185011D01*
X77451500Y-70607834D01*
X77451500Y-62098500D01*
X79755928Y-62098500D01*
X79755928Y-63798500D01*
X79768188Y-63922982D01*
X79804498Y-64042680D01*
X79863463Y-64152994D01*
X79942815Y-64249685D01*
X80039506Y-64329037D01*
X80149820Y-64388002D01*
X80269518Y-64424312D01*
X80394000Y-64436572D01*
X82094000Y-64436572D01*
X82218482Y-64424312D01*
X82338180Y-64388002D01*
X82448494Y-64329037D01*
X82545185Y-64249685D01*
X82624537Y-64152994D01*
X82683502Y-64042680D01*
X82719812Y-63922982D01*
X82732072Y-63798500D01*
X82732072Y-62128500D01*
X86318928Y-62128500D01*
X86318928Y-63728500D01*
X86331188Y-63852982D01*
X86367498Y-63972680D01*
X86426463Y-64082994D01*
X86505815Y-64179685D01*
X86602506Y-64259037D01*
X86712820Y-64318002D01*
X86832518Y-64354312D01*
X86957000Y-64366572D01*
X88557000Y-64366572D01*
X88681482Y-64354312D01*
X88801180Y-64318002D01*
X88911494Y-64259037D01*
X89008185Y-64179685D01*
X89087537Y-64082994D01*
X89146502Y-63972680D01*
X89182812Y-63852982D01*
X89183643Y-63844539D01*
X89382241Y-64043137D01*
X89617273Y-64200180D01*
X89878426Y-64308353D01*
X90155665Y-64363500D01*
X90438335Y-64363500D01*
X90715574Y-64308353D01*
X90976727Y-64200180D01*
X91211759Y-64043137D01*
X91411637Y-63843259D01*
X91567000Y-63610741D01*
X91722363Y-63843259D01*
X91922241Y-64043137D01*
X92157273Y-64200180D01*
X92418426Y-64308353D01*
X92695665Y-64363500D01*
X92978335Y-64363500D01*
X93255574Y-64308353D01*
X93516727Y-64200180D01*
X93751759Y-64043137D01*
X93951637Y-63843259D01*
X94107000Y-63610741D01*
X94262363Y-63843259D01*
X94462241Y-64043137D01*
X94697273Y-64200180D01*
X94958426Y-64308353D01*
X95235665Y-64363500D01*
X95518335Y-64363500D01*
X95795574Y-64308353D01*
X96056727Y-64200180D01*
X96291759Y-64043137D01*
X96491637Y-63843259D01*
X96647000Y-63610741D01*
X96802363Y-63843259D01*
X97002241Y-64043137D01*
X97237273Y-64200180D01*
X97498426Y-64308353D01*
X97775665Y-64363500D01*
X98058335Y-64363500D01*
X98335574Y-64308353D01*
X98596727Y-64200180D01*
X98831759Y-64043137D01*
X99031637Y-63843259D01*
X99187000Y-63610741D01*
X99342363Y-63843259D01*
X99542241Y-64043137D01*
X99777273Y-64200180D01*
X100038426Y-64308353D01*
X100315665Y-64363500D01*
X100598335Y-64363500D01*
X100875574Y-64308353D01*
X101136727Y-64200180D01*
X101371759Y-64043137D01*
X101571637Y-63843259D01*
X101727000Y-63610741D01*
X101882363Y-63843259D01*
X102082241Y-64043137D01*
X102317273Y-64200180D01*
X102578426Y-64308353D01*
X102855665Y-64363500D01*
X103138335Y-64363500D01*
X103415574Y-64308353D01*
X103676727Y-64200180D01*
X103911759Y-64043137D01*
X104111637Y-63843259D01*
X104267000Y-63610741D01*
X104422363Y-63843259D01*
X104622241Y-64043137D01*
X104857273Y-64200180D01*
X105118426Y-64308353D01*
X105395665Y-64363500D01*
X105678335Y-64363500D01*
X105955574Y-64308353D01*
X106216727Y-64200180D01*
X106451759Y-64043137D01*
X106651637Y-63843259D01*
X106807000Y-63610741D01*
X106962363Y-63843259D01*
X107162241Y-64043137D01*
X107397273Y-64200180D01*
X107658426Y-64308353D01*
X107935665Y-64363500D01*
X108218335Y-64363500D01*
X108495574Y-64308353D01*
X108756727Y-64200180D01*
X108991759Y-64043137D01*
X109191637Y-63843259D01*
X109347000Y-63610741D01*
X109502363Y-63843259D01*
X109702241Y-64043137D01*
X109937273Y-64200180D01*
X110198426Y-64308353D01*
X110475665Y-64363500D01*
X110758335Y-64363500D01*
X111035574Y-64308353D01*
X111296727Y-64200180D01*
X111531759Y-64043137D01*
X111731637Y-63843259D01*
X111888680Y-63608227D01*
X111996853Y-63347074D01*
X111999077Y-63335891D01*
X115360500Y-63335891D01*
X115360500Y-63661109D01*
X115423947Y-63980079D01*
X115548403Y-64280542D01*
X115729085Y-64550951D01*
X115959049Y-64780915D01*
X116229458Y-64961597D01*
X116529921Y-65086053D01*
X116848891Y-65149500D01*
X117174109Y-65149500D01*
X117493079Y-65086053D01*
X117793542Y-64961597D01*
X118063951Y-64780915D01*
X118281500Y-64563366D01*
X118499049Y-64780915D01*
X118769458Y-64961597D01*
X119069921Y-65086053D01*
X119388891Y-65149500D01*
X119714109Y-65149500D01*
X120033079Y-65086053D01*
X120333542Y-64961597D01*
X120603951Y-64780915D01*
X120821500Y-64563366D01*
X121039049Y-64780915D01*
X121309458Y-64961597D01*
X121609921Y-65086053D01*
X121928891Y-65149500D01*
X122254109Y-65149500D01*
X122573079Y-65086053D01*
X122873542Y-64961597D01*
X123143951Y-64780915D01*
X123361500Y-64563366D01*
X123579049Y-64780915D01*
X123849458Y-64961597D01*
X124149921Y-65086053D01*
X124468891Y-65149500D01*
X124794109Y-65149500D01*
X125113079Y-65086053D01*
X125413542Y-64961597D01*
X125683951Y-64780915D01*
X125901500Y-64563366D01*
X126119049Y-64780915D01*
X126389458Y-64961597D01*
X126689921Y-65086053D01*
X127008891Y-65149500D01*
X127334109Y-65149500D01*
X127653079Y-65086053D01*
X127953542Y-64961597D01*
X128223951Y-64780915D01*
X128441500Y-64563366D01*
X128659049Y-64780915D01*
X128929458Y-64961597D01*
X129229921Y-65086053D01*
X129548891Y-65149500D01*
X129874109Y-65149500D01*
X130193079Y-65086053D01*
X130493542Y-64961597D01*
X130763951Y-64780915D01*
X130981500Y-64563366D01*
X131199049Y-64780915D01*
X131469458Y-64961597D01*
X131769921Y-65086053D01*
X132088891Y-65149500D01*
X132414109Y-65149500D01*
X132733079Y-65086053D01*
X133033542Y-64961597D01*
X133303951Y-64780915D01*
X133521500Y-64563366D01*
X133739049Y-64780915D01*
X134009458Y-64961597D01*
X134309921Y-65086053D01*
X134628891Y-65149500D01*
X134954109Y-65149500D01*
X135273079Y-65086053D01*
X135573542Y-64961597D01*
X135843951Y-64780915D01*
X136061500Y-64563366D01*
X136279049Y-64780915D01*
X136549458Y-64961597D01*
X136849921Y-65086053D01*
X137168891Y-65149500D01*
X137494109Y-65149500D01*
X137813079Y-65086053D01*
X138113542Y-64961597D01*
X138383951Y-64780915D01*
X138601500Y-64563366D01*
X138819049Y-64780915D01*
X139089458Y-64961597D01*
X139389921Y-65086053D01*
X139708891Y-65149500D01*
X140034109Y-65149500D01*
X140353079Y-65086053D01*
X140653542Y-64961597D01*
X140923951Y-64780915D01*
X141153915Y-64550951D01*
X141334597Y-64280542D01*
X141459053Y-63980079D01*
X141522500Y-63661109D01*
X141522500Y-63335891D01*
X141459053Y-63016921D01*
X141334597Y-62716458D01*
X141153915Y-62446049D01*
X140923951Y-62216085D01*
X140653542Y-62035403D01*
X140353079Y-61910947D01*
X140034109Y-61847500D01*
X139708891Y-61847500D01*
X139389921Y-61910947D01*
X139089458Y-62035403D01*
X138819049Y-62216085D01*
X138601500Y-62433634D01*
X138383951Y-62216085D01*
X138113542Y-62035403D01*
X137813079Y-61910947D01*
X137494109Y-61847500D01*
X137168891Y-61847500D01*
X136849921Y-61910947D01*
X136549458Y-62035403D01*
X136279049Y-62216085D01*
X136061500Y-62433634D01*
X135843951Y-62216085D01*
X135573542Y-62035403D01*
X135273079Y-61910947D01*
X134954109Y-61847500D01*
X134628891Y-61847500D01*
X134309921Y-61910947D01*
X134009458Y-62035403D01*
X133739049Y-62216085D01*
X133521500Y-62433634D01*
X133303951Y-62216085D01*
X133033542Y-62035403D01*
X132733079Y-61910947D01*
X132414109Y-61847500D01*
X132088891Y-61847500D01*
X131769921Y-61910947D01*
X131469458Y-62035403D01*
X131199049Y-62216085D01*
X130981500Y-62433634D01*
X130763951Y-62216085D01*
X130493542Y-62035403D01*
X130193079Y-61910947D01*
X129874109Y-61847500D01*
X129548891Y-61847500D01*
X129229921Y-61910947D01*
X128929458Y-62035403D01*
X128659049Y-62216085D01*
X128441500Y-62433634D01*
X128223951Y-62216085D01*
X127953542Y-62035403D01*
X127653079Y-61910947D01*
X127334109Y-61847500D01*
X127008891Y-61847500D01*
X126689921Y-61910947D01*
X126389458Y-62035403D01*
X126119049Y-62216085D01*
X125901500Y-62433634D01*
X125683951Y-62216085D01*
X125413542Y-62035403D01*
X125113079Y-61910947D01*
X124794109Y-61847500D01*
X124468891Y-61847500D01*
X124149921Y-61910947D01*
X123849458Y-62035403D01*
X123579049Y-62216085D01*
X123361500Y-62433634D01*
X123143951Y-62216085D01*
X122873542Y-62035403D01*
X122573079Y-61910947D01*
X122254109Y-61847500D01*
X121928891Y-61847500D01*
X121609921Y-61910947D01*
X121309458Y-62035403D01*
X121039049Y-62216085D01*
X120821500Y-62433634D01*
X120603951Y-62216085D01*
X120333542Y-62035403D01*
X120033079Y-61910947D01*
X119714109Y-61847500D01*
X119388891Y-61847500D01*
X119069921Y-61910947D01*
X118769458Y-62035403D01*
X118499049Y-62216085D01*
X118281500Y-62433634D01*
X118063951Y-62216085D01*
X117793542Y-62035403D01*
X117493079Y-61910947D01*
X117174109Y-61847500D01*
X116848891Y-61847500D01*
X116529921Y-61910947D01*
X116229458Y-62035403D01*
X115959049Y-62216085D01*
X115729085Y-62446049D01*
X115548403Y-62716458D01*
X115423947Y-63016921D01*
X115360500Y-63335891D01*
X111999077Y-63335891D01*
X112052000Y-63069835D01*
X112052000Y-62787165D01*
X111996853Y-62509926D01*
X111888680Y-62248773D01*
X111731637Y-62013741D01*
X111531759Y-61813863D01*
X111296727Y-61656820D01*
X111035574Y-61548647D01*
X110758335Y-61493500D01*
X110475665Y-61493500D01*
X110198426Y-61548647D01*
X109937273Y-61656820D01*
X109702241Y-61813863D01*
X109502363Y-62013741D01*
X109347000Y-62246259D01*
X109191637Y-62013741D01*
X108991759Y-61813863D01*
X108756727Y-61656820D01*
X108495574Y-61548647D01*
X108218335Y-61493500D01*
X107935665Y-61493500D01*
X107658426Y-61548647D01*
X107397273Y-61656820D01*
X107162241Y-61813863D01*
X106962363Y-62013741D01*
X106807000Y-62246259D01*
X106651637Y-62013741D01*
X106451759Y-61813863D01*
X106216727Y-61656820D01*
X105955574Y-61548647D01*
X105678335Y-61493500D01*
X105395665Y-61493500D01*
X105118426Y-61548647D01*
X104857273Y-61656820D01*
X104622241Y-61813863D01*
X104422363Y-62013741D01*
X104267000Y-62246259D01*
X104111637Y-62013741D01*
X103911759Y-61813863D01*
X103676727Y-61656820D01*
X103415574Y-61548647D01*
X103138335Y-61493500D01*
X102855665Y-61493500D01*
X102578426Y-61548647D01*
X102317273Y-61656820D01*
X102082241Y-61813863D01*
X101882363Y-62013741D01*
X101727000Y-62246259D01*
X101571637Y-62013741D01*
X101371759Y-61813863D01*
X101136727Y-61656820D01*
X100875574Y-61548647D01*
X100598335Y-61493500D01*
X100315665Y-61493500D01*
X100038426Y-61548647D01*
X99777273Y-61656820D01*
X99542241Y-61813863D01*
X99342363Y-62013741D01*
X99187000Y-62246259D01*
X99031637Y-62013741D01*
X98831759Y-61813863D01*
X98596727Y-61656820D01*
X98335574Y-61548647D01*
X98058335Y-61493500D01*
X97775665Y-61493500D01*
X97498426Y-61548647D01*
X97237273Y-61656820D01*
X97002241Y-61813863D01*
X96802363Y-62013741D01*
X96647000Y-62246259D01*
X96491637Y-62013741D01*
X96291759Y-61813863D01*
X96056727Y-61656820D01*
X95795574Y-61548647D01*
X95518335Y-61493500D01*
X95235665Y-61493500D01*
X94958426Y-61548647D01*
X94697273Y-61656820D01*
X94462241Y-61813863D01*
X94262363Y-62013741D01*
X94107000Y-62246259D01*
X93951637Y-62013741D01*
X93751759Y-61813863D01*
X93516727Y-61656820D01*
X93255574Y-61548647D01*
X92978335Y-61493500D01*
X92695665Y-61493500D01*
X92418426Y-61548647D01*
X92157273Y-61656820D01*
X91922241Y-61813863D01*
X91722363Y-62013741D01*
X91567000Y-62246259D01*
X91411637Y-62013741D01*
X91211759Y-61813863D01*
X90976727Y-61656820D01*
X90715574Y-61548647D01*
X90438335Y-61493500D01*
X90155665Y-61493500D01*
X89878426Y-61548647D01*
X89617273Y-61656820D01*
X89382241Y-61813863D01*
X89183643Y-62012461D01*
X89182812Y-62004018D01*
X89146502Y-61884320D01*
X89087537Y-61774006D01*
X89008185Y-61677315D01*
X88911494Y-61597963D01*
X88801180Y-61538998D01*
X88681482Y-61502688D01*
X88557000Y-61490428D01*
X86957000Y-61490428D01*
X86832518Y-61502688D01*
X86712820Y-61538998D01*
X86602506Y-61597963D01*
X86505815Y-61677315D01*
X86426463Y-61774006D01*
X86367498Y-61884320D01*
X86331188Y-62004018D01*
X86318928Y-62128500D01*
X82732072Y-62128500D01*
X82732072Y-62098500D01*
X82719812Y-61974018D01*
X82683502Y-61854320D01*
X82624537Y-61744006D01*
X82545185Y-61647315D01*
X82448494Y-61567963D01*
X82338180Y-61508998D01*
X82265620Y-61486987D01*
X82397475Y-61355132D01*
X82559990Y-61111911D01*
X82671932Y-60841658D01*
X82729000Y-60554760D01*
X82729000Y-60262240D01*
X82671932Y-59975342D01*
X82559990Y-59705089D01*
X82397475Y-59461868D01*
X82190632Y-59255025D01*
X82016240Y-59138500D01*
X82190632Y-59021975D01*
X82397475Y-58815132D01*
X82559990Y-58571911D01*
X82671932Y-58301658D01*
X82729000Y-58014760D01*
X82729000Y-57722240D01*
X82671932Y-57435342D01*
X82559990Y-57165089D01*
X82397475Y-56921868D01*
X82190632Y-56715025D01*
X82016240Y-56598500D01*
X82190632Y-56481975D01*
X82397475Y-56275132D01*
X82559990Y-56031911D01*
X82671932Y-55761658D01*
X82692642Y-55657540D01*
X86365091Y-55657540D01*
X86459930Y-55922381D01*
X86604615Y-56163631D01*
X86793586Y-56372019D01*
X87019580Y-56539537D01*
X87273913Y-56659746D01*
X87407961Y-56700404D01*
X87630000Y-56578415D01*
X87630000Y-55435500D01*
X86486376Y-55435500D01*
X86365091Y-55657540D01*
X82692642Y-55657540D01*
X82729000Y-55474760D01*
X82729000Y-55182240D01*
X82684686Y-54959460D01*
X86365091Y-54959460D01*
X86486376Y-55181500D01*
X87630000Y-55181500D01*
X87630000Y-54038585D01*
X87884000Y-54038585D01*
X87884000Y-55181500D01*
X87904000Y-55181500D01*
X87904000Y-55435500D01*
X87884000Y-55435500D01*
X87884000Y-56578415D01*
X88106039Y-56700404D01*
X88240087Y-56659746D01*
X88494420Y-56539537D01*
X88720414Y-56372019D01*
X88909385Y-56163631D01*
X89020933Y-55977635D01*
X89025320Y-55988227D01*
X89182363Y-56223259D01*
X89382241Y-56423137D01*
X89617273Y-56580180D01*
X89878426Y-56688353D01*
X90155665Y-56743500D01*
X90438335Y-56743500D01*
X90715574Y-56688353D01*
X90976727Y-56580180D01*
X91211759Y-56423137D01*
X91411637Y-56223259D01*
X91567000Y-55990741D01*
X91722363Y-56223259D01*
X91922241Y-56423137D01*
X92157273Y-56580180D01*
X92418426Y-56688353D01*
X92695665Y-56743500D01*
X92978335Y-56743500D01*
X93255574Y-56688353D01*
X93516727Y-56580180D01*
X93751759Y-56423137D01*
X93951637Y-56223259D01*
X94107000Y-55990741D01*
X94262363Y-56223259D01*
X94462241Y-56423137D01*
X94697273Y-56580180D01*
X94958426Y-56688353D01*
X95235665Y-56743500D01*
X95518335Y-56743500D01*
X95795574Y-56688353D01*
X96056727Y-56580180D01*
X96291759Y-56423137D01*
X96491637Y-56223259D01*
X96647000Y-55990741D01*
X96802363Y-56223259D01*
X97002241Y-56423137D01*
X97237273Y-56580180D01*
X97498426Y-56688353D01*
X97775665Y-56743500D01*
X98058335Y-56743500D01*
X98335574Y-56688353D01*
X98596727Y-56580180D01*
X98831759Y-56423137D01*
X99031637Y-56223259D01*
X99187000Y-55990741D01*
X99342363Y-56223259D01*
X99542241Y-56423137D01*
X99777273Y-56580180D01*
X100038426Y-56688353D01*
X100315665Y-56743500D01*
X100598335Y-56743500D01*
X100875574Y-56688353D01*
X101136727Y-56580180D01*
X101371759Y-56423137D01*
X101571637Y-56223259D01*
X101727000Y-55990741D01*
X101882363Y-56223259D01*
X102082241Y-56423137D01*
X102317273Y-56580180D01*
X102578426Y-56688353D01*
X102855665Y-56743500D01*
X103138335Y-56743500D01*
X103415574Y-56688353D01*
X103676727Y-56580180D01*
X103911759Y-56423137D01*
X104111637Y-56223259D01*
X104267000Y-55990741D01*
X104422363Y-56223259D01*
X104622241Y-56423137D01*
X104857273Y-56580180D01*
X105118426Y-56688353D01*
X105395665Y-56743500D01*
X105678335Y-56743500D01*
X105955574Y-56688353D01*
X106216727Y-56580180D01*
X106451759Y-56423137D01*
X106651637Y-56223259D01*
X106807000Y-55990741D01*
X106962363Y-56223259D01*
X107162241Y-56423137D01*
X107397273Y-56580180D01*
X107658426Y-56688353D01*
X107935665Y-56743500D01*
X108218335Y-56743500D01*
X108495574Y-56688353D01*
X108756727Y-56580180D01*
X108991759Y-56423137D01*
X109191637Y-56223259D01*
X109347000Y-55990741D01*
X109502363Y-56223259D01*
X109702241Y-56423137D01*
X109937273Y-56580180D01*
X110198426Y-56688353D01*
X110475665Y-56743500D01*
X110758335Y-56743500D01*
X111035574Y-56688353D01*
X111296727Y-56580180D01*
X111531759Y-56423137D01*
X111731637Y-56223259D01*
X111888680Y-55988227D01*
X111996853Y-55727074D01*
X111999077Y-55715891D01*
X115360500Y-55715891D01*
X115360500Y-56041109D01*
X115423947Y-56360079D01*
X115548403Y-56660542D01*
X115729085Y-56930951D01*
X115959049Y-57160915D01*
X116229458Y-57341597D01*
X116529921Y-57466053D01*
X116848891Y-57529500D01*
X117174109Y-57529500D01*
X117493079Y-57466053D01*
X117793542Y-57341597D01*
X118063951Y-57160915D01*
X118281500Y-56943366D01*
X118499049Y-57160915D01*
X118769458Y-57341597D01*
X119069921Y-57466053D01*
X119388891Y-57529500D01*
X119714109Y-57529500D01*
X120033079Y-57466053D01*
X120333542Y-57341597D01*
X120603951Y-57160915D01*
X120821500Y-56943366D01*
X121039049Y-57160915D01*
X121309458Y-57341597D01*
X121609921Y-57466053D01*
X121928891Y-57529500D01*
X122254109Y-57529500D01*
X122573079Y-57466053D01*
X122873542Y-57341597D01*
X123143951Y-57160915D01*
X123361500Y-56943366D01*
X123579049Y-57160915D01*
X123849458Y-57341597D01*
X124149921Y-57466053D01*
X124468891Y-57529500D01*
X124794109Y-57529500D01*
X125113079Y-57466053D01*
X125413542Y-57341597D01*
X125683951Y-57160915D01*
X125901500Y-56943366D01*
X126119049Y-57160915D01*
X126389458Y-57341597D01*
X126689921Y-57466053D01*
X127008891Y-57529500D01*
X127334109Y-57529500D01*
X127653079Y-57466053D01*
X127953542Y-57341597D01*
X128223951Y-57160915D01*
X128441500Y-56943366D01*
X128659049Y-57160915D01*
X128929458Y-57341597D01*
X129229921Y-57466053D01*
X129548891Y-57529500D01*
X129874109Y-57529500D01*
X130193079Y-57466053D01*
X130493542Y-57341597D01*
X130763951Y-57160915D01*
X130981500Y-56943366D01*
X131199049Y-57160915D01*
X131469458Y-57341597D01*
X131769921Y-57466053D01*
X132088891Y-57529500D01*
X132414109Y-57529500D01*
X132733079Y-57466053D01*
X133033542Y-57341597D01*
X133303951Y-57160915D01*
X133521500Y-56943366D01*
X133739049Y-57160915D01*
X134009458Y-57341597D01*
X134309921Y-57466053D01*
X134628891Y-57529500D01*
X134954109Y-57529500D01*
X135273079Y-57466053D01*
X135573542Y-57341597D01*
X135843951Y-57160915D01*
X136061500Y-56943366D01*
X136279049Y-57160915D01*
X136549458Y-57341597D01*
X136849921Y-57466053D01*
X137168891Y-57529500D01*
X137494109Y-57529500D01*
X137813079Y-57466053D01*
X138113542Y-57341597D01*
X138305796Y-57213136D01*
X138324963Y-57248994D01*
X138404315Y-57345685D01*
X138501006Y-57425037D01*
X138611320Y-57484002D01*
X138731018Y-57520312D01*
X138855500Y-57532572D01*
X140887500Y-57532572D01*
X141011982Y-57520312D01*
X141131680Y-57484002D01*
X141241994Y-57425037D01*
X141338685Y-57345685D01*
X141418037Y-57248994D01*
X141477002Y-57138680D01*
X141513312Y-57018982D01*
X141525572Y-56894500D01*
X141525572Y-54862500D01*
X141513312Y-54738018D01*
X141477002Y-54618320D01*
X141418037Y-54508006D01*
X141338685Y-54411315D01*
X141241994Y-54331963D01*
X141131680Y-54272998D01*
X141011982Y-54236688D01*
X140887500Y-54224428D01*
X138855500Y-54224428D01*
X138731018Y-54236688D01*
X138611320Y-54272998D01*
X138501006Y-54331963D01*
X138404315Y-54411315D01*
X138324963Y-54508006D01*
X138305796Y-54543864D01*
X138113542Y-54415403D01*
X137813079Y-54290947D01*
X137494109Y-54227500D01*
X137168891Y-54227500D01*
X136849921Y-54290947D01*
X136549458Y-54415403D01*
X136279049Y-54596085D01*
X136061500Y-54813634D01*
X135843951Y-54596085D01*
X135573542Y-54415403D01*
X135273079Y-54290947D01*
X134954109Y-54227500D01*
X134628891Y-54227500D01*
X134309921Y-54290947D01*
X134009458Y-54415403D01*
X133739049Y-54596085D01*
X133521500Y-54813634D01*
X133303951Y-54596085D01*
X133033542Y-54415403D01*
X132733079Y-54290947D01*
X132414109Y-54227500D01*
X132088891Y-54227500D01*
X131769921Y-54290947D01*
X131469458Y-54415403D01*
X131199049Y-54596085D01*
X130981500Y-54813634D01*
X130763951Y-54596085D01*
X130493542Y-54415403D01*
X130193079Y-54290947D01*
X129874109Y-54227500D01*
X129548891Y-54227500D01*
X129229921Y-54290947D01*
X128929458Y-54415403D01*
X128659049Y-54596085D01*
X128441500Y-54813634D01*
X128223951Y-54596085D01*
X127953542Y-54415403D01*
X127653079Y-54290947D01*
X127334109Y-54227500D01*
X127008891Y-54227500D01*
X126689921Y-54290947D01*
X126389458Y-54415403D01*
X126119049Y-54596085D01*
X125901500Y-54813634D01*
X125683951Y-54596085D01*
X125413542Y-54415403D01*
X125113079Y-54290947D01*
X124794109Y-54227500D01*
X124468891Y-54227500D01*
X124149921Y-54290947D01*
X123849458Y-54415403D01*
X123579049Y-54596085D01*
X123361500Y-54813634D01*
X123143951Y-54596085D01*
X122873542Y-54415403D01*
X122573079Y-54290947D01*
X122254109Y-54227500D01*
X121928891Y-54227500D01*
X121609921Y-54290947D01*
X121309458Y-54415403D01*
X121039049Y-54596085D01*
X120821500Y-54813634D01*
X120603951Y-54596085D01*
X120333542Y-54415403D01*
X120033079Y-54290947D01*
X119714109Y-54227500D01*
X119388891Y-54227500D01*
X119069921Y-54290947D01*
X118769458Y-54415403D01*
X118499049Y-54596085D01*
X118281500Y-54813634D01*
X118063951Y-54596085D01*
X117793542Y-54415403D01*
X117493079Y-54290947D01*
X117174109Y-54227500D01*
X116848891Y-54227500D01*
X116529921Y-54290947D01*
X116229458Y-54415403D01*
X115959049Y-54596085D01*
X115729085Y-54826049D01*
X115548403Y-55096458D01*
X115423947Y-55396921D01*
X115360500Y-55715891D01*
X111999077Y-55715891D01*
X112052000Y-55449835D01*
X112052000Y-55167165D01*
X111996853Y-54889926D01*
X111888680Y-54628773D01*
X111731637Y-54393741D01*
X111531759Y-54193863D01*
X111296727Y-54036820D01*
X111035574Y-53928647D01*
X110758335Y-53873500D01*
X110475665Y-53873500D01*
X110198426Y-53928647D01*
X109937273Y-54036820D01*
X109702241Y-54193863D01*
X109502363Y-54393741D01*
X109347000Y-54626259D01*
X109191637Y-54393741D01*
X108991759Y-54193863D01*
X108756727Y-54036820D01*
X108495574Y-53928647D01*
X108218335Y-53873500D01*
X107935665Y-53873500D01*
X107658426Y-53928647D01*
X107397273Y-54036820D01*
X107162241Y-54193863D01*
X106962363Y-54393741D01*
X106807000Y-54626259D01*
X106651637Y-54393741D01*
X106451759Y-54193863D01*
X106216727Y-54036820D01*
X105955574Y-53928647D01*
X105678335Y-53873500D01*
X105395665Y-53873500D01*
X105118426Y-53928647D01*
X104857273Y-54036820D01*
X104622241Y-54193863D01*
X104422363Y-54393741D01*
X104267000Y-54626259D01*
X104111637Y-54393741D01*
X103911759Y-54193863D01*
X103676727Y-54036820D01*
X103415574Y-53928647D01*
X103138335Y-53873500D01*
X102855665Y-53873500D01*
X102578426Y-53928647D01*
X102317273Y-54036820D01*
X102082241Y-54193863D01*
X101882363Y-54393741D01*
X101727000Y-54626259D01*
X101571637Y-54393741D01*
X101371759Y-54193863D01*
X101136727Y-54036820D01*
X100875574Y-53928647D01*
X100598335Y-53873500D01*
X100315665Y-53873500D01*
X100038426Y-53928647D01*
X99777273Y-54036820D01*
X99542241Y-54193863D01*
X99342363Y-54393741D01*
X99187000Y-54626259D01*
X99031637Y-54393741D01*
X98831759Y-54193863D01*
X98596727Y-54036820D01*
X98335574Y-53928647D01*
X98058335Y-53873500D01*
X97775665Y-53873500D01*
X97498426Y-53928647D01*
X97237273Y-54036820D01*
X97002241Y-54193863D01*
X96802363Y-54393741D01*
X96647000Y-54626259D01*
X96491637Y-54393741D01*
X96291759Y-54193863D01*
X96056727Y-54036820D01*
X95795574Y-53928647D01*
X95518335Y-53873500D01*
X95235665Y-53873500D01*
X94958426Y-53928647D01*
X94697273Y-54036820D01*
X94462241Y-54193863D01*
X94262363Y-54393741D01*
X94107000Y-54626259D01*
X93951637Y-54393741D01*
X93751759Y-54193863D01*
X93516727Y-54036820D01*
X93255574Y-53928647D01*
X92978335Y-53873500D01*
X92695665Y-53873500D01*
X92418426Y-53928647D01*
X92157273Y-54036820D01*
X91922241Y-54193863D01*
X91722363Y-54393741D01*
X91567000Y-54626259D01*
X91411637Y-54393741D01*
X91211759Y-54193863D01*
X90976727Y-54036820D01*
X90715574Y-53928647D01*
X90438335Y-53873500D01*
X90155665Y-53873500D01*
X89878426Y-53928647D01*
X89617273Y-54036820D01*
X89382241Y-54193863D01*
X89182363Y-54393741D01*
X89025320Y-54628773D01*
X89020933Y-54639365D01*
X88909385Y-54453369D01*
X88720414Y-54244981D01*
X88494420Y-54077463D01*
X88240087Y-53957254D01*
X88106039Y-53916596D01*
X87884000Y-54038585D01*
X87630000Y-54038585D01*
X87407961Y-53916596D01*
X87273913Y-53957254D01*
X87019580Y-54077463D01*
X86793586Y-54244981D01*
X86604615Y-54453369D01*
X86459930Y-54694619D01*
X86365091Y-54959460D01*
X82684686Y-54959460D01*
X82671932Y-54895342D01*
X82559990Y-54625089D01*
X82397475Y-54381868D01*
X82190632Y-54175025D01*
X82016240Y-54058500D01*
X82190632Y-53941975D01*
X82397475Y-53735132D01*
X82559990Y-53491911D01*
X82671932Y-53221658D01*
X82729000Y-52934760D01*
X82729000Y-52642240D01*
X82671932Y-52355342D01*
X82559990Y-52085089D01*
X82397475Y-51841868D01*
X82190632Y-51635025D01*
X82016240Y-51518500D01*
X82190632Y-51401975D01*
X82397475Y-51195132D01*
X82559990Y-50951911D01*
X82671932Y-50681658D01*
X82729000Y-50394760D01*
X82729000Y-50102240D01*
X82675478Y-49833165D01*
X86449000Y-49833165D01*
X86449000Y-50115835D01*
X86504147Y-50393074D01*
X86612320Y-50654227D01*
X86769363Y-50889259D01*
X86969241Y-51089137D01*
X87204273Y-51246180D01*
X87465426Y-51354353D01*
X87742665Y-51409500D01*
X88025335Y-51409500D01*
X88302574Y-51354353D01*
X88563727Y-51246180D01*
X88798759Y-51089137D01*
X88998637Y-50889259D01*
X89154000Y-50656741D01*
X89309363Y-50889259D01*
X89509241Y-51089137D01*
X89744273Y-51246180D01*
X90005426Y-51354353D01*
X90282665Y-51409500D01*
X90565335Y-51409500D01*
X90842574Y-51354353D01*
X91103727Y-51246180D01*
X91338759Y-51089137D01*
X91538637Y-50889259D01*
X91694000Y-50656741D01*
X91849363Y-50889259D01*
X92049241Y-51089137D01*
X92284273Y-51246180D01*
X92545426Y-51354353D01*
X92822665Y-51409500D01*
X93105335Y-51409500D01*
X93382574Y-51354353D01*
X93643727Y-51246180D01*
X93878759Y-51089137D01*
X94078637Y-50889259D01*
X94234000Y-50656741D01*
X94389363Y-50889259D01*
X94589241Y-51089137D01*
X94824273Y-51246180D01*
X95085426Y-51354353D01*
X95362665Y-51409500D01*
X95645335Y-51409500D01*
X95922574Y-51354353D01*
X96183727Y-51246180D01*
X96418759Y-51089137D01*
X96618637Y-50889259D01*
X96774000Y-50656741D01*
X96929363Y-50889259D01*
X97129241Y-51089137D01*
X97364273Y-51246180D01*
X97625426Y-51354353D01*
X97902665Y-51409500D01*
X98185335Y-51409500D01*
X98462574Y-51354353D01*
X98723727Y-51246180D01*
X98958759Y-51089137D01*
X99158637Y-50889259D01*
X99314000Y-50656741D01*
X99469363Y-50889259D01*
X99669241Y-51089137D01*
X99904273Y-51246180D01*
X100165426Y-51354353D01*
X100442665Y-51409500D01*
X100725335Y-51409500D01*
X101002574Y-51354353D01*
X101263727Y-51246180D01*
X101498759Y-51089137D01*
X101698637Y-50889259D01*
X101854000Y-50656741D01*
X102009363Y-50889259D01*
X102209241Y-51089137D01*
X102444273Y-51246180D01*
X102705426Y-51354353D01*
X102982665Y-51409500D01*
X103265335Y-51409500D01*
X103542574Y-51354353D01*
X103803727Y-51246180D01*
X104038759Y-51089137D01*
X104238637Y-50889259D01*
X104395680Y-50654227D01*
X104400067Y-50643635D01*
X104511615Y-50829631D01*
X104700586Y-51038019D01*
X104926580Y-51205537D01*
X105180913Y-51325746D01*
X105314961Y-51366404D01*
X105537000Y-51244415D01*
X105537000Y-50101500D01*
X105791000Y-50101500D01*
X105791000Y-51244415D01*
X106013039Y-51366404D01*
X106147087Y-51325746D01*
X106401420Y-51205537D01*
X106627414Y-51038019D01*
X106816385Y-50829631D01*
X106961070Y-50588381D01*
X107055909Y-50323540D01*
X106934624Y-50101500D01*
X105791000Y-50101500D01*
X105537000Y-50101500D01*
X105517000Y-50101500D01*
X105517000Y-49960165D01*
X109721000Y-49960165D01*
X109721000Y-50242835D01*
X109776147Y-50520074D01*
X109884320Y-50781227D01*
X110041363Y-51016259D01*
X110241241Y-51216137D01*
X110476273Y-51373180D01*
X110737426Y-51481353D01*
X111014665Y-51536500D01*
X111297335Y-51536500D01*
X111574574Y-51481353D01*
X111835727Y-51373180D01*
X112070759Y-51216137D01*
X112270637Y-51016259D01*
X112426000Y-50783741D01*
X112581363Y-51016259D01*
X112781241Y-51216137D01*
X113016273Y-51373180D01*
X113277426Y-51481353D01*
X113554665Y-51536500D01*
X113837335Y-51536500D01*
X114114574Y-51481353D01*
X114375727Y-51373180D01*
X114610759Y-51216137D01*
X114810637Y-51016259D01*
X114966000Y-50783741D01*
X115121363Y-51016259D01*
X115321241Y-51216137D01*
X115556273Y-51373180D01*
X115817426Y-51481353D01*
X116094665Y-51536500D01*
X116377335Y-51536500D01*
X116654574Y-51481353D01*
X116915727Y-51373180D01*
X117150759Y-51216137D01*
X117350637Y-51016259D01*
X117506000Y-50783741D01*
X117661363Y-51016259D01*
X117861241Y-51216137D01*
X118096273Y-51373180D01*
X118357426Y-51481353D01*
X118634665Y-51536500D01*
X118917335Y-51536500D01*
X119194574Y-51481353D01*
X119455727Y-51373180D01*
X119690759Y-51216137D01*
X119890637Y-51016259D01*
X120046000Y-50783741D01*
X120201363Y-51016259D01*
X120401241Y-51216137D01*
X120636273Y-51373180D01*
X120897426Y-51481353D01*
X121174665Y-51536500D01*
X121457335Y-51536500D01*
X121734574Y-51481353D01*
X121995727Y-51373180D01*
X122230759Y-51216137D01*
X122430637Y-51016259D01*
X122586000Y-50783741D01*
X122741363Y-51016259D01*
X122941241Y-51216137D01*
X123176273Y-51373180D01*
X123437426Y-51481353D01*
X123714665Y-51536500D01*
X123997335Y-51536500D01*
X124274574Y-51481353D01*
X124535727Y-51373180D01*
X124770759Y-51216137D01*
X124970637Y-51016259D01*
X125126000Y-50783741D01*
X125281363Y-51016259D01*
X125481241Y-51216137D01*
X125716273Y-51373180D01*
X125977426Y-51481353D01*
X126254665Y-51536500D01*
X126537335Y-51536500D01*
X126814574Y-51481353D01*
X127075727Y-51373180D01*
X127310759Y-51216137D01*
X127510637Y-51016259D01*
X127667680Y-50781227D01*
X127672067Y-50770635D01*
X127783615Y-50956631D01*
X127972586Y-51165019D01*
X128198580Y-51332537D01*
X128452913Y-51452746D01*
X128586961Y-51493404D01*
X128809000Y-51371415D01*
X128809000Y-50228500D01*
X129063000Y-50228500D01*
X129063000Y-51371415D01*
X129285039Y-51493404D01*
X129419087Y-51452746D01*
X129673420Y-51332537D01*
X129899414Y-51165019D01*
X130088385Y-50956631D01*
X130233070Y-50715381D01*
X130327909Y-50450540D01*
X130206624Y-50228500D01*
X129063000Y-50228500D01*
X128809000Y-50228500D01*
X128789000Y-50228500D01*
X128789000Y-49974500D01*
X128809000Y-49974500D01*
X128809000Y-48831585D01*
X129063000Y-48831585D01*
X129063000Y-49974500D01*
X130206624Y-49974500D01*
X130327909Y-49752460D01*
X130233070Y-49487619D01*
X130088385Y-49246369D01*
X129899414Y-49037981D01*
X129673420Y-48870463D01*
X129419087Y-48750254D01*
X129285039Y-48709596D01*
X129063000Y-48831585D01*
X128809000Y-48831585D01*
X128586961Y-48709596D01*
X128452913Y-48750254D01*
X128198580Y-48870463D01*
X127972586Y-49037981D01*
X127783615Y-49246369D01*
X127672067Y-49432365D01*
X127667680Y-49421773D01*
X127510637Y-49186741D01*
X127310759Y-48986863D01*
X127075727Y-48829820D01*
X126814574Y-48721647D01*
X126537335Y-48666500D01*
X126254665Y-48666500D01*
X125977426Y-48721647D01*
X125716273Y-48829820D01*
X125481241Y-48986863D01*
X125281363Y-49186741D01*
X125126000Y-49419259D01*
X124970637Y-49186741D01*
X124770759Y-48986863D01*
X124535727Y-48829820D01*
X124274574Y-48721647D01*
X123997335Y-48666500D01*
X123714665Y-48666500D01*
X123437426Y-48721647D01*
X123176273Y-48829820D01*
X122941241Y-48986863D01*
X122741363Y-49186741D01*
X122586000Y-49419259D01*
X122430637Y-49186741D01*
X122230759Y-48986863D01*
X121995727Y-48829820D01*
X121734574Y-48721647D01*
X121457335Y-48666500D01*
X121174665Y-48666500D01*
X120897426Y-48721647D01*
X120636273Y-48829820D01*
X120401241Y-48986863D01*
X120201363Y-49186741D01*
X120046000Y-49419259D01*
X119890637Y-49186741D01*
X119690759Y-48986863D01*
X119455727Y-48829820D01*
X119194574Y-48721647D01*
X118917335Y-48666500D01*
X118634665Y-48666500D01*
X118357426Y-48721647D01*
X118096273Y-48829820D01*
X117861241Y-48986863D01*
X117661363Y-49186741D01*
X117506000Y-49419259D01*
X117350637Y-49186741D01*
X117150759Y-48986863D01*
X116915727Y-48829820D01*
X116654574Y-48721647D01*
X116377335Y-48666500D01*
X116094665Y-48666500D01*
X115817426Y-48721647D01*
X115556273Y-48829820D01*
X115321241Y-48986863D01*
X115121363Y-49186741D01*
X114966000Y-49419259D01*
X114810637Y-49186741D01*
X114610759Y-48986863D01*
X114375727Y-48829820D01*
X114114574Y-48721647D01*
X113837335Y-48666500D01*
X113554665Y-48666500D01*
X113277426Y-48721647D01*
X113016273Y-48829820D01*
X112781241Y-48986863D01*
X112581363Y-49186741D01*
X112426000Y-49419259D01*
X112270637Y-49186741D01*
X112070759Y-48986863D01*
X111835727Y-48829820D01*
X111574574Y-48721647D01*
X111297335Y-48666500D01*
X111014665Y-48666500D01*
X110737426Y-48721647D01*
X110476273Y-48829820D01*
X110241241Y-48986863D01*
X110041363Y-49186741D01*
X109884320Y-49421773D01*
X109776147Y-49682926D01*
X109721000Y-49960165D01*
X105517000Y-49960165D01*
X105517000Y-49847500D01*
X105537000Y-49847500D01*
X105537000Y-48704585D01*
X105791000Y-48704585D01*
X105791000Y-49847500D01*
X106934624Y-49847500D01*
X107055909Y-49625460D01*
X106961070Y-49360619D01*
X106816385Y-49119369D01*
X106627414Y-48910981D01*
X106401420Y-48743463D01*
X106147087Y-48623254D01*
X106013039Y-48582596D01*
X105791000Y-48704585D01*
X105537000Y-48704585D01*
X105314961Y-48582596D01*
X105180913Y-48623254D01*
X104926580Y-48743463D01*
X104700586Y-48910981D01*
X104511615Y-49119369D01*
X104400067Y-49305365D01*
X104395680Y-49294773D01*
X104238637Y-49059741D01*
X104038759Y-48859863D01*
X103803727Y-48702820D01*
X103542574Y-48594647D01*
X103265335Y-48539500D01*
X102982665Y-48539500D01*
X102705426Y-48594647D01*
X102444273Y-48702820D01*
X102209241Y-48859863D01*
X102009363Y-49059741D01*
X101854000Y-49292259D01*
X101698637Y-49059741D01*
X101498759Y-48859863D01*
X101263727Y-48702820D01*
X101002574Y-48594647D01*
X100725335Y-48539500D01*
X100442665Y-48539500D01*
X100165426Y-48594647D01*
X99904273Y-48702820D01*
X99669241Y-48859863D01*
X99469363Y-49059741D01*
X99314000Y-49292259D01*
X99158637Y-49059741D01*
X98958759Y-48859863D01*
X98723727Y-48702820D01*
X98462574Y-48594647D01*
X98185335Y-48539500D01*
X97902665Y-48539500D01*
X97625426Y-48594647D01*
X97364273Y-48702820D01*
X97129241Y-48859863D01*
X96929363Y-49059741D01*
X96774000Y-49292259D01*
X96618637Y-49059741D01*
X96418759Y-48859863D01*
X96183727Y-48702820D01*
X95922574Y-48594647D01*
X95645335Y-48539500D01*
X95362665Y-48539500D01*
X95085426Y-48594647D01*
X94824273Y-48702820D01*
X94589241Y-48859863D01*
X94389363Y-49059741D01*
X94234000Y-49292259D01*
X94078637Y-49059741D01*
X93878759Y-48859863D01*
X93643727Y-48702820D01*
X93382574Y-48594647D01*
X93105335Y-48539500D01*
X92822665Y-48539500D01*
X92545426Y-48594647D01*
X92284273Y-48702820D01*
X92049241Y-48859863D01*
X91849363Y-49059741D01*
X91694000Y-49292259D01*
X91538637Y-49059741D01*
X91338759Y-48859863D01*
X91103727Y-48702820D01*
X90842574Y-48594647D01*
X90565335Y-48539500D01*
X90282665Y-48539500D01*
X90005426Y-48594647D01*
X89744273Y-48702820D01*
X89509241Y-48859863D01*
X89309363Y-49059741D01*
X89154000Y-49292259D01*
X88998637Y-49059741D01*
X88798759Y-48859863D01*
X88563727Y-48702820D01*
X88302574Y-48594647D01*
X88025335Y-48539500D01*
X87742665Y-48539500D01*
X87465426Y-48594647D01*
X87204273Y-48702820D01*
X86969241Y-48859863D01*
X86769363Y-49059741D01*
X86612320Y-49294773D01*
X86504147Y-49555926D01*
X86449000Y-49833165D01*
X82675478Y-49833165D01*
X82671932Y-49815342D01*
X82559990Y-49545089D01*
X82397475Y-49301868D01*
X82190632Y-49095025D01*
X82016240Y-48978500D01*
X82190632Y-48861975D01*
X82397475Y-48655132D01*
X82559990Y-48411911D01*
X82671932Y-48141658D01*
X82729000Y-47854760D01*
X82729000Y-47698500D01*
X138533428Y-47698500D01*
X138533428Y-50298500D01*
X138545688Y-50422982D01*
X138581998Y-50542680D01*
X138640963Y-50652994D01*
X138720315Y-50749685D01*
X138817006Y-50829037D01*
X138927320Y-50888002D01*
X139047018Y-50924312D01*
X139171500Y-50936572D01*
X141771500Y-50936572D01*
X141895982Y-50924312D01*
X142015680Y-50888002D01*
X142125994Y-50829037D01*
X142222685Y-50749685D01*
X142302037Y-50652994D01*
X142361002Y-50542680D01*
X142397312Y-50422982D01*
X142409572Y-50298500D01*
X142409572Y-47698500D01*
X142397312Y-47574018D01*
X142361002Y-47454320D01*
X142302037Y-47344006D01*
X142222685Y-47247315D01*
X142125994Y-47167963D01*
X142015680Y-47108998D01*
X141895982Y-47072688D01*
X141771500Y-47060428D01*
X139171500Y-47060428D01*
X139047018Y-47072688D01*
X138927320Y-47108998D01*
X138817006Y-47167963D01*
X138720315Y-47247315D01*
X138640963Y-47344006D01*
X138581998Y-47454320D01*
X138545688Y-47574018D01*
X138533428Y-47698500D01*
X82729000Y-47698500D01*
X82729000Y-47562240D01*
X82671932Y-47275342D01*
X82559990Y-47005089D01*
X82397475Y-46761868D01*
X82190632Y-46555025D01*
X82016240Y-46438500D01*
X82190632Y-46321975D01*
X82397475Y-46115132D01*
X82559990Y-45871911D01*
X82671932Y-45601658D01*
X82722443Y-45347724D01*
X139301881Y-45347724D01*
X139433817Y-45642812D01*
X139774545Y-45813659D01*
X140142057Y-45914750D01*
X140522229Y-45942201D01*
X140900451Y-45894957D01*
X141262190Y-45774833D01*
X141509183Y-45642812D01*
X141641119Y-45347724D01*
X140471500Y-44178105D01*
X139301881Y-45347724D01*
X82722443Y-45347724D01*
X82729000Y-45314760D01*
X82729000Y-45022240D01*
X82671932Y-44735342D01*
X82559990Y-44465089D01*
X82397475Y-44221868D01*
X82224836Y-44049229D01*
X138527799Y-44049229D01*
X138575043Y-44427451D01*
X138695167Y-44789190D01*
X138827188Y-45036183D01*
X139122276Y-45168119D01*
X140291895Y-43998500D01*
X140651105Y-43998500D01*
X141820724Y-45168119D01*
X142115812Y-45036183D01*
X142286659Y-44695455D01*
X142387750Y-44327943D01*
X142415201Y-43947771D01*
X142367957Y-43569549D01*
X142247833Y-43207810D01*
X142115812Y-42960817D01*
X141820724Y-42828881D01*
X140651105Y-43998500D01*
X140291895Y-43998500D01*
X139122276Y-42828881D01*
X138827188Y-42960817D01*
X138656341Y-43301545D01*
X138555250Y-43669057D01*
X138527799Y-44049229D01*
X82224836Y-44049229D01*
X82190632Y-44015025D01*
X81947411Y-43852510D01*
X81677158Y-43740568D01*
X81390260Y-43683500D01*
X81097740Y-43683500D01*
X80810842Y-43740568D01*
X80540589Y-43852510D01*
X80297368Y-44015025D01*
X80090525Y-44221868D01*
X79928010Y-44465089D01*
X79816068Y-44735342D01*
X79759000Y-45022240D01*
X79759000Y-45314760D01*
X79816068Y-45601658D01*
X79928010Y-45871911D01*
X80090525Y-46115132D01*
X80297368Y-46321975D01*
X80471760Y-46438500D01*
X80297368Y-46555025D01*
X80090525Y-46761868D01*
X79928010Y-47005089D01*
X79816068Y-47275342D01*
X79759000Y-47562240D01*
X79759000Y-47854760D01*
X79816068Y-48141658D01*
X79928010Y-48411911D01*
X80090525Y-48655132D01*
X80297368Y-48861975D01*
X80471760Y-48978500D01*
X80297368Y-49095025D01*
X80090525Y-49301868D01*
X79928010Y-49545089D01*
X79816068Y-49815342D01*
X79759000Y-50102240D01*
X79759000Y-50394760D01*
X79816068Y-50681658D01*
X79928010Y-50951911D01*
X80090525Y-51195132D01*
X80297368Y-51401975D01*
X80471760Y-51518500D01*
X80297368Y-51635025D01*
X80090525Y-51841868D01*
X79928010Y-52085089D01*
X79816068Y-52355342D01*
X79759000Y-52642240D01*
X79759000Y-52934760D01*
X79816068Y-53221658D01*
X79928010Y-53491911D01*
X80090525Y-53735132D01*
X80297368Y-53941975D01*
X80471760Y-54058500D01*
X80297368Y-54175025D01*
X80090525Y-54381868D01*
X79928010Y-54625089D01*
X79816068Y-54895342D01*
X79759000Y-55182240D01*
X79759000Y-55474760D01*
X79816068Y-55761658D01*
X79928010Y-56031911D01*
X80090525Y-56275132D01*
X80297368Y-56481975D01*
X80471760Y-56598500D01*
X80297368Y-56715025D01*
X80090525Y-56921868D01*
X79928010Y-57165089D01*
X79816068Y-57435342D01*
X79759000Y-57722240D01*
X79759000Y-58014760D01*
X79816068Y-58301658D01*
X79928010Y-58571911D01*
X80090525Y-58815132D01*
X80297368Y-59021975D01*
X80471760Y-59138500D01*
X80297368Y-59255025D01*
X80090525Y-59461868D01*
X79928010Y-59705089D01*
X79816068Y-59975342D01*
X79759000Y-60262240D01*
X79759000Y-60554760D01*
X79816068Y-60841658D01*
X79928010Y-61111911D01*
X80090525Y-61355132D01*
X80222380Y-61486987D01*
X80149820Y-61508998D01*
X80039506Y-61567963D01*
X79942815Y-61647315D01*
X79863463Y-61744006D01*
X79804498Y-61854320D01*
X79768188Y-61974018D01*
X79755928Y-62098500D01*
X77451500Y-62098500D01*
X77451500Y-42213165D01*
X86449000Y-42213165D01*
X86449000Y-42495835D01*
X86504147Y-42773074D01*
X86612320Y-43034227D01*
X86769363Y-43269259D01*
X86969241Y-43469137D01*
X87204273Y-43626180D01*
X87465426Y-43734353D01*
X87742665Y-43789500D01*
X88025335Y-43789500D01*
X88302574Y-43734353D01*
X88563727Y-43626180D01*
X88798759Y-43469137D01*
X88998637Y-43269259D01*
X89155680Y-43034227D01*
X89160067Y-43023635D01*
X89271615Y-43209631D01*
X89460586Y-43418019D01*
X89686580Y-43585537D01*
X89940913Y-43705746D01*
X90074961Y-43746404D01*
X90297000Y-43624415D01*
X90297000Y-42481500D01*
X90277000Y-42481500D01*
X90277000Y-42227500D01*
X90297000Y-42227500D01*
X90297000Y-41084585D01*
X90551000Y-41084585D01*
X90551000Y-42227500D01*
X90571000Y-42227500D01*
X90571000Y-42481500D01*
X90551000Y-42481500D01*
X90551000Y-43624415D01*
X90773039Y-43746404D01*
X90907087Y-43705746D01*
X91161420Y-43585537D01*
X91387414Y-43418019D01*
X91576385Y-43209631D01*
X91687933Y-43023635D01*
X91692320Y-43034227D01*
X91849363Y-43269259D01*
X92049241Y-43469137D01*
X92284273Y-43626180D01*
X92545426Y-43734353D01*
X92822665Y-43789500D01*
X93105335Y-43789500D01*
X93382574Y-43734353D01*
X93643727Y-43626180D01*
X93878759Y-43469137D01*
X94078637Y-43269259D01*
X94234000Y-43036741D01*
X94389363Y-43269259D01*
X94589241Y-43469137D01*
X94824273Y-43626180D01*
X95085426Y-43734353D01*
X95362665Y-43789500D01*
X95645335Y-43789500D01*
X95922574Y-43734353D01*
X96183727Y-43626180D01*
X96418759Y-43469137D01*
X96618637Y-43269259D01*
X96774000Y-43036741D01*
X96929363Y-43269259D01*
X97129241Y-43469137D01*
X97364273Y-43626180D01*
X97625426Y-43734353D01*
X97902665Y-43789500D01*
X98185335Y-43789500D01*
X98462574Y-43734353D01*
X98723727Y-43626180D01*
X98958759Y-43469137D01*
X99158637Y-43269259D01*
X99314000Y-43036741D01*
X99469363Y-43269259D01*
X99669241Y-43469137D01*
X99904273Y-43626180D01*
X100165426Y-43734353D01*
X100442665Y-43789500D01*
X100725335Y-43789500D01*
X101002574Y-43734353D01*
X101263727Y-43626180D01*
X101498759Y-43469137D01*
X101698637Y-43269259D01*
X101854000Y-43036741D01*
X102009363Y-43269259D01*
X102209241Y-43469137D01*
X102444273Y-43626180D01*
X102705426Y-43734353D01*
X102982665Y-43789500D01*
X103265335Y-43789500D01*
X103542574Y-43734353D01*
X103803727Y-43626180D01*
X104038759Y-43469137D01*
X104237357Y-43270539D01*
X104238188Y-43278982D01*
X104274498Y-43398680D01*
X104333463Y-43508994D01*
X104412815Y-43605685D01*
X104509506Y-43685037D01*
X104619820Y-43744002D01*
X104739518Y-43780312D01*
X104864000Y-43792572D01*
X106464000Y-43792572D01*
X106588482Y-43780312D01*
X106708180Y-43744002D01*
X106818494Y-43685037D01*
X106915185Y-43605685D01*
X106994537Y-43508994D01*
X107053502Y-43398680D01*
X107089812Y-43278982D01*
X107102072Y-43154500D01*
X107102072Y-42340165D01*
X109721000Y-42340165D01*
X109721000Y-42622835D01*
X109776147Y-42900074D01*
X109884320Y-43161227D01*
X110041363Y-43396259D01*
X110241241Y-43596137D01*
X110476273Y-43753180D01*
X110737426Y-43861353D01*
X111014665Y-43916500D01*
X111297335Y-43916500D01*
X111574574Y-43861353D01*
X111835727Y-43753180D01*
X112070759Y-43596137D01*
X112270637Y-43396259D01*
X112426000Y-43163741D01*
X112581363Y-43396259D01*
X112781241Y-43596137D01*
X113016273Y-43753180D01*
X113277426Y-43861353D01*
X113554665Y-43916500D01*
X113837335Y-43916500D01*
X114114574Y-43861353D01*
X114375727Y-43753180D01*
X114610759Y-43596137D01*
X114810637Y-43396259D01*
X114966000Y-43163741D01*
X115121363Y-43396259D01*
X115321241Y-43596137D01*
X115556273Y-43753180D01*
X115817426Y-43861353D01*
X116094665Y-43916500D01*
X116377335Y-43916500D01*
X116654574Y-43861353D01*
X116915727Y-43753180D01*
X117150759Y-43596137D01*
X117350637Y-43396259D01*
X117506000Y-43163741D01*
X117661363Y-43396259D01*
X117861241Y-43596137D01*
X118096273Y-43753180D01*
X118357426Y-43861353D01*
X118634665Y-43916500D01*
X118917335Y-43916500D01*
X119194574Y-43861353D01*
X119455727Y-43753180D01*
X119690759Y-43596137D01*
X119890637Y-43396259D01*
X120046000Y-43163741D01*
X120201363Y-43396259D01*
X120401241Y-43596137D01*
X120636273Y-43753180D01*
X120897426Y-43861353D01*
X121174665Y-43916500D01*
X121457335Y-43916500D01*
X121734574Y-43861353D01*
X121995727Y-43753180D01*
X122230759Y-43596137D01*
X122430637Y-43396259D01*
X122586000Y-43163741D01*
X122741363Y-43396259D01*
X122941241Y-43596137D01*
X123176273Y-43753180D01*
X123437426Y-43861353D01*
X123714665Y-43916500D01*
X123997335Y-43916500D01*
X124274574Y-43861353D01*
X124535727Y-43753180D01*
X124770759Y-43596137D01*
X124970637Y-43396259D01*
X125126000Y-43163741D01*
X125281363Y-43396259D01*
X125481241Y-43596137D01*
X125716273Y-43753180D01*
X125977426Y-43861353D01*
X126254665Y-43916500D01*
X126537335Y-43916500D01*
X126814574Y-43861353D01*
X127075727Y-43753180D01*
X127310759Y-43596137D01*
X127509357Y-43397539D01*
X127510188Y-43405982D01*
X127546498Y-43525680D01*
X127605463Y-43635994D01*
X127684815Y-43732685D01*
X127781506Y-43812037D01*
X127891820Y-43871002D01*
X128011518Y-43907312D01*
X128136000Y-43919572D01*
X129736000Y-43919572D01*
X129860482Y-43907312D01*
X129980180Y-43871002D01*
X130090494Y-43812037D01*
X130187185Y-43732685D01*
X130266537Y-43635994D01*
X130325502Y-43525680D01*
X130361812Y-43405982D01*
X130374072Y-43281500D01*
X130374072Y-42649276D01*
X139301881Y-42649276D01*
X140471500Y-43818895D01*
X141641119Y-42649276D01*
X141509183Y-42354188D01*
X141168455Y-42183341D01*
X140800943Y-42082250D01*
X140420771Y-42054799D01*
X140042549Y-42102043D01*
X139680810Y-42222167D01*
X139433817Y-42354188D01*
X139301881Y-42649276D01*
X130374072Y-42649276D01*
X130374072Y-41681500D01*
X130361812Y-41557018D01*
X130325502Y-41437320D01*
X130266537Y-41327006D01*
X130187185Y-41230315D01*
X130090494Y-41150963D01*
X129980180Y-41091998D01*
X129860482Y-41055688D01*
X129736000Y-41043428D01*
X128136000Y-41043428D01*
X128011518Y-41055688D01*
X127891820Y-41091998D01*
X127781506Y-41150963D01*
X127684815Y-41230315D01*
X127605463Y-41327006D01*
X127546498Y-41437320D01*
X127510188Y-41557018D01*
X127509357Y-41565461D01*
X127310759Y-41366863D01*
X127075727Y-41209820D01*
X126814574Y-41101647D01*
X126537335Y-41046500D01*
X126254665Y-41046500D01*
X125977426Y-41101647D01*
X125716273Y-41209820D01*
X125481241Y-41366863D01*
X125281363Y-41566741D01*
X125126000Y-41799259D01*
X124970637Y-41566741D01*
X124770759Y-41366863D01*
X124535727Y-41209820D01*
X124274574Y-41101647D01*
X123997335Y-41046500D01*
X123714665Y-41046500D01*
X123437426Y-41101647D01*
X123176273Y-41209820D01*
X122941241Y-41366863D01*
X122741363Y-41566741D01*
X122586000Y-41799259D01*
X122430637Y-41566741D01*
X122230759Y-41366863D01*
X121995727Y-41209820D01*
X121734574Y-41101647D01*
X121457335Y-41046500D01*
X121174665Y-41046500D01*
X120897426Y-41101647D01*
X120636273Y-41209820D01*
X120401241Y-41366863D01*
X120201363Y-41566741D01*
X120046000Y-41799259D01*
X119890637Y-41566741D01*
X119690759Y-41366863D01*
X119455727Y-41209820D01*
X119194574Y-41101647D01*
X118917335Y-41046500D01*
X118634665Y-41046500D01*
X118357426Y-41101647D01*
X118096273Y-41209820D01*
X117861241Y-41366863D01*
X117661363Y-41566741D01*
X117506000Y-41799259D01*
X117350637Y-41566741D01*
X117150759Y-41366863D01*
X116915727Y-41209820D01*
X116654574Y-41101647D01*
X116377335Y-41046500D01*
X116094665Y-41046500D01*
X115817426Y-41101647D01*
X115556273Y-41209820D01*
X115321241Y-41366863D01*
X115121363Y-41566741D01*
X114966000Y-41799259D01*
X114810637Y-41566741D01*
X114610759Y-41366863D01*
X114375727Y-41209820D01*
X114114574Y-41101647D01*
X113837335Y-41046500D01*
X113554665Y-41046500D01*
X113277426Y-41101647D01*
X113016273Y-41209820D01*
X112781241Y-41366863D01*
X112581363Y-41566741D01*
X112426000Y-41799259D01*
X112270637Y-41566741D01*
X112070759Y-41366863D01*
X111835727Y-41209820D01*
X111574574Y-41101647D01*
X111297335Y-41046500D01*
X111014665Y-41046500D01*
X110737426Y-41101647D01*
X110476273Y-41209820D01*
X110241241Y-41366863D01*
X110041363Y-41566741D01*
X109884320Y-41801773D01*
X109776147Y-42062926D01*
X109721000Y-42340165D01*
X107102072Y-42340165D01*
X107102072Y-41554500D01*
X107089812Y-41430018D01*
X107053502Y-41310320D01*
X106994537Y-41200006D01*
X106915185Y-41103315D01*
X106818494Y-41023963D01*
X106708180Y-40964998D01*
X106588482Y-40928688D01*
X106464000Y-40916428D01*
X104864000Y-40916428D01*
X104739518Y-40928688D01*
X104619820Y-40964998D01*
X104509506Y-41023963D01*
X104412815Y-41103315D01*
X104333463Y-41200006D01*
X104274498Y-41310320D01*
X104238188Y-41430018D01*
X104237357Y-41438461D01*
X104038759Y-41239863D01*
X103803727Y-41082820D01*
X103542574Y-40974647D01*
X103265335Y-40919500D01*
X102982665Y-40919500D01*
X102705426Y-40974647D01*
X102444273Y-41082820D01*
X102209241Y-41239863D01*
X102009363Y-41439741D01*
X101854000Y-41672259D01*
X101698637Y-41439741D01*
X101498759Y-41239863D01*
X101263727Y-41082820D01*
X101002574Y-40974647D01*
X100725335Y-40919500D01*
X100442665Y-40919500D01*
X100165426Y-40974647D01*
X99904273Y-41082820D01*
X99669241Y-41239863D01*
X99469363Y-41439741D01*
X99314000Y-41672259D01*
X99158637Y-41439741D01*
X98958759Y-41239863D01*
X98723727Y-41082820D01*
X98462574Y-40974647D01*
X98185335Y-40919500D01*
X97902665Y-40919500D01*
X97625426Y-40974647D01*
X97364273Y-41082820D01*
X97129241Y-41239863D01*
X96929363Y-41439741D01*
X96774000Y-41672259D01*
X96618637Y-41439741D01*
X96418759Y-41239863D01*
X96183727Y-41082820D01*
X95922574Y-40974647D01*
X95645335Y-40919500D01*
X95362665Y-40919500D01*
X95085426Y-40974647D01*
X94824273Y-41082820D01*
X94589241Y-41239863D01*
X94389363Y-41439741D01*
X94234000Y-41672259D01*
X94078637Y-41439741D01*
X93878759Y-41239863D01*
X93643727Y-41082820D01*
X93382574Y-40974647D01*
X93105335Y-40919500D01*
X92822665Y-40919500D01*
X92545426Y-40974647D01*
X92284273Y-41082820D01*
X92049241Y-41239863D01*
X91849363Y-41439741D01*
X91692320Y-41674773D01*
X91687933Y-41685365D01*
X91576385Y-41499369D01*
X91387414Y-41290981D01*
X91161420Y-41123463D01*
X90907087Y-41003254D01*
X90773039Y-40962596D01*
X90551000Y-41084585D01*
X90297000Y-41084585D01*
X90074961Y-40962596D01*
X89940913Y-41003254D01*
X89686580Y-41123463D01*
X89460586Y-41290981D01*
X89271615Y-41499369D01*
X89160067Y-41685365D01*
X89155680Y-41674773D01*
X88998637Y-41439741D01*
X88798759Y-41239863D01*
X88563727Y-41082820D01*
X88302574Y-40974647D01*
X88025335Y-40919500D01*
X87742665Y-40919500D01*
X87465426Y-40974647D01*
X87204273Y-41082820D01*
X86969241Y-41239863D01*
X86769363Y-41439741D01*
X86612320Y-41674773D01*
X86504147Y-41935926D01*
X86449000Y-42213165D01*
X77451500Y-42213165D01*
X77451500Y-36949166D01*
X77874323Y-37371989D01*
X78469682Y-37769795D01*
X79131210Y-38043809D01*
X79833484Y-38183500D01*
X80549516Y-38183500D01*
X81251790Y-38043809D01*
X81913318Y-37769795D01*
X82508677Y-37371989D01*
X83014989Y-36865677D01*
X83152591Y-36659740D01*
X84110500Y-36659740D01*
X84110500Y-36952260D01*
X84167568Y-37239158D01*
X84279510Y-37509411D01*
X84442025Y-37752632D01*
X84648868Y-37959475D01*
X84892089Y-38121990D01*
X85162342Y-38233932D01*
X85449240Y-38291000D01*
X85741760Y-38291000D01*
X86028658Y-38233932D01*
X86298911Y-38121990D01*
X86542132Y-37959475D01*
X86748975Y-37752632D01*
X86865500Y-37578240D01*
X86982025Y-37752632D01*
X87188868Y-37959475D01*
X87432089Y-38121990D01*
X87702342Y-38233932D01*
X87989240Y-38291000D01*
X88281760Y-38291000D01*
X88568658Y-38233932D01*
X88838911Y-38121990D01*
X89082132Y-37959475D01*
X89288975Y-37752632D01*
X89405500Y-37578240D01*
X89522025Y-37752632D01*
X89728868Y-37959475D01*
X89972089Y-38121990D01*
X90242342Y-38233932D01*
X90529240Y-38291000D01*
X90821760Y-38291000D01*
X91108658Y-38233932D01*
X91378911Y-38121990D01*
X91622132Y-37959475D01*
X91828975Y-37752632D01*
X91945500Y-37578240D01*
X92062025Y-37752632D01*
X92268868Y-37959475D01*
X92512089Y-38121990D01*
X92782342Y-38233932D01*
X93069240Y-38291000D01*
X93361760Y-38291000D01*
X93648658Y-38233932D01*
X93918911Y-38121990D01*
X94162132Y-37959475D01*
X94368975Y-37752632D01*
X94485500Y-37578240D01*
X94602025Y-37752632D01*
X94808868Y-37959475D01*
X95052089Y-38121990D01*
X95322342Y-38233932D01*
X95609240Y-38291000D01*
X95901760Y-38291000D01*
X96188658Y-38233932D01*
X96458911Y-38121990D01*
X96702132Y-37959475D01*
X96833987Y-37827620D01*
X96855998Y-37900180D01*
X96914963Y-38010494D01*
X96994315Y-38107185D01*
X97091006Y-38186537D01*
X97201320Y-38245502D01*
X97321018Y-38281812D01*
X97445500Y-38294072D01*
X99145500Y-38294072D01*
X99269982Y-38281812D01*
X99389680Y-38245502D01*
X99499994Y-38186537D01*
X99596685Y-38107185D01*
X99676037Y-38010494D01*
X99735002Y-37900180D01*
X99771312Y-37780482D01*
X99783572Y-37656000D01*
X99783572Y-36659740D01*
X101636500Y-36659740D01*
X101636500Y-36952260D01*
X101693568Y-37239158D01*
X101805510Y-37509411D01*
X101968025Y-37752632D01*
X102174868Y-37959475D01*
X102418089Y-38121990D01*
X102688342Y-38233932D01*
X102975240Y-38291000D01*
X103267760Y-38291000D01*
X103554658Y-38233932D01*
X103824911Y-38121990D01*
X104068132Y-37959475D01*
X104274975Y-37752632D01*
X104391500Y-37578240D01*
X104508025Y-37752632D01*
X104714868Y-37959475D01*
X104958089Y-38121990D01*
X105228342Y-38233932D01*
X105515240Y-38291000D01*
X105807760Y-38291000D01*
X106094658Y-38233932D01*
X106364911Y-38121990D01*
X106608132Y-37959475D01*
X106814975Y-37752632D01*
X106931500Y-37578240D01*
X107048025Y-37752632D01*
X107254868Y-37959475D01*
X107498089Y-38121990D01*
X107768342Y-38233932D01*
X108055240Y-38291000D01*
X108347760Y-38291000D01*
X108634658Y-38233932D01*
X108904911Y-38121990D01*
X109148132Y-37959475D01*
X109354975Y-37752632D01*
X109471500Y-37578240D01*
X109588025Y-37752632D01*
X109794868Y-37959475D01*
X110038089Y-38121990D01*
X110308342Y-38233932D01*
X110595240Y-38291000D01*
X110887760Y-38291000D01*
X111174658Y-38233932D01*
X111444911Y-38121990D01*
X111688132Y-37959475D01*
X111894975Y-37752632D01*
X112011500Y-37578240D01*
X112128025Y-37752632D01*
X112334868Y-37959475D01*
X112578089Y-38121990D01*
X112848342Y-38233932D01*
X113135240Y-38291000D01*
X113427760Y-38291000D01*
X113714658Y-38233932D01*
X113984911Y-38121990D01*
X114228132Y-37959475D01*
X114434975Y-37752632D01*
X114551500Y-37578240D01*
X114668025Y-37752632D01*
X114874868Y-37959475D01*
X115118089Y-38121990D01*
X115388342Y-38233932D01*
X115675240Y-38291000D01*
X115967760Y-38291000D01*
X116254658Y-38233932D01*
X116524911Y-38121990D01*
X116768132Y-37959475D01*
X116974975Y-37752632D01*
X117091500Y-37578240D01*
X117208025Y-37752632D01*
X117414868Y-37959475D01*
X117658089Y-38121990D01*
X117928342Y-38233932D01*
X118215240Y-38291000D01*
X118507760Y-38291000D01*
X118794658Y-38233932D01*
X119064911Y-38121990D01*
X119308132Y-37959475D01*
X119439987Y-37827620D01*
X119461998Y-37900180D01*
X119520963Y-38010494D01*
X119600315Y-38107185D01*
X119697006Y-38186537D01*
X119807320Y-38245502D01*
X119927018Y-38281812D01*
X120051500Y-38294072D01*
X121751500Y-38294072D01*
X121875982Y-38281812D01*
X121995680Y-38245502D01*
X122105994Y-38186537D01*
X122202685Y-38107185D01*
X122282037Y-38010494D01*
X122341002Y-37900180D01*
X122377312Y-37780482D01*
X122389572Y-37656000D01*
X122389572Y-37076391D01*
X124547519Y-37076391D01*
X124644843Y-37350752D01*
X124793822Y-37600855D01*
X124988731Y-37817088D01*
X125222080Y-37991141D01*
X125484901Y-38116325D01*
X125632110Y-38160976D01*
X125862000Y-38039655D01*
X125862000Y-36846500D01*
X124668186Y-36846500D01*
X124547519Y-37076391D01*
X122389572Y-37076391D01*
X122389572Y-36362609D01*
X124547519Y-36362609D01*
X124668186Y-36592500D01*
X125862000Y-36592500D01*
X125862000Y-35399345D01*
X126116000Y-35399345D01*
X126116000Y-36592500D01*
X126136000Y-36592500D01*
X126136000Y-36846500D01*
X126116000Y-36846500D01*
X126116000Y-38039655D01*
X126345890Y-38160976D01*
X126493099Y-38116325D01*
X126755920Y-37991141D01*
X126989269Y-37817088D01*
X127065034Y-37733034D01*
X127089498Y-37813680D01*
X127148463Y-37923994D01*
X127227815Y-38020685D01*
X127324506Y-38100037D01*
X127434820Y-38159002D01*
X127554518Y-38195312D01*
X127679000Y-38207572D01*
X129379000Y-38207572D01*
X129503482Y-38195312D01*
X129623180Y-38159002D01*
X129733494Y-38100037D01*
X129830185Y-38020685D01*
X129909537Y-37923994D01*
X129968502Y-37813680D01*
X130004812Y-37693982D01*
X130011979Y-37621202D01*
X132918403Y-37621202D01*
X132989986Y-37865171D01*
X133245496Y-37986071D01*
X133519684Y-38054800D01*
X133802012Y-38068717D01*
X134081630Y-38027287D01*
X134347792Y-37932103D01*
X134473014Y-37865171D01*
X134544597Y-37621202D01*
X133731500Y-36808105D01*
X132918403Y-37621202D01*
X130011979Y-37621202D01*
X130017072Y-37569500D01*
X130017072Y-36699012D01*
X132291283Y-36699012D01*
X132332713Y-36978630D01*
X132427897Y-37244792D01*
X132494829Y-37370014D01*
X132738798Y-37441597D01*
X133551895Y-36628500D01*
X133911105Y-36628500D01*
X134724202Y-37441597D01*
X134968171Y-37370014D01*
X134981824Y-37341159D01*
X135116863Y-37543259D01*
X135316741Y-37743137D01*
X135551773Y-37900180D01*
X135812926Y-38008353D01*
X136090165Y-38063500D01*
X136372835Y-38063500D01*
X136650074Y-38008353D01*
X136911227Y-37900180D01*
X137146259Y-37743137D01*
X137346137Y-37543259D01*
X137503180Y-37308227D01*
X137611353Y-37047074D01*
X137666500Y-36769835D01*
X137666500Y-36487165D01*
X137611353Y-36209926D01*
X137503180Y-35948773D01*
X137346137Y-35713741D01*
X137146259Y-35513863D01*
X136911227Y-35356820D01*
X136650074Y-35248647D01*
X136372835Y-35193500D01*
X136090165Y-35193500D01*
X135812926Y-35248647D01*
X135551773Y-35356820D01*
X135316741Y-35513863D01*
X135116863Y-35713741D01*
X134982808Y-35914369D01*
X134968171Y-35886986D01*
X134724202Y-35815403D01*
X133911105Y-36628500D01*
X133551895Y-36628500D01*
X132738798Y-35815403D01*
X132494829Y-35886986D01*
X132373929Y-36142496D01*
X132305200Y-36416684D01*
X132291283Y-36699012D01*
X130017072Y-36699012D01*
X130017072Y-35869500D01*
X130004812Y-35745018D01*
X129971681Y-35635798D01*
X132918403Y-35635798D01*
X133731500Y-36448895D01*
X134544597Y-35635798D01*
X134473014Y-35391829D01*
X134217504Y-35270929D01*
X133943316Y-35202200D01*
X133660988Y-35188283D01*
X133381370Y-35229713D01*
X133115208Y-35324897D01*
X132989986Y-35391829D01*
X132918403Y-35635798D01*
X129971681Y-35635798D01*
X129968502Y-35625320D01*
X129909537Y-35515006D01*
X129830185Y-35418315D01*
X129733494Y-35338963D01*
X129623180Y-35279998D01*
X129503482Y-35243688D01*
X129379000Y-35231428D01*
X127679000Y-35231428D01*
X127554518Y-35243688D01*
X127434820Y-35279998D01*
X127324506Y-35338963D01*
X127227815Y-35418315D01*
X127148463Y-35515006D01*
X127089498Y-35625320D01*
X127065034Y-35705966D01*
X126989269Y-35621912D01*
X126755920Y-35447859D01*
X126493099Y-35322675D01*
X126345890Y-35278024D01*
X126116000Y-35399345D01*
X125862000Y-35399345D01*
X125632110Y-35278024D01*
X125484901Y-35322675D01*
X125222080Y-35447859D01*
X124988731Y-35621912D01*
X124793822Y-35838145D01*
X124644843Y-36088248D01*
X124547519Y-36362609D01*
X122389572Y-36362609D01*
X122389572Y-35956000D01*
X122377312Y-35831518D01*
X122341002Y-35711820D01*
X122282037Y-35601506D01*
X122202685Y-35504815D01*
X122105994Y-35425463D01*
X121995680Y-35366498D01*
X121875982Y-35330188D01*
X121751500Y-35317928D01*
X120051500Y-35317928D01*
X119927018Y-35330188D01*
X119807320Y-35366498D01*
X119697006Y-35425463D01*
X119600315Y-35504815D01*
X119520963Y-35601506D01*
X119461998Y-35711820D01*
X119439987Y-35784380D01*
X119308132Y-35652525D01*
X119064911Y-35490010D01*
X118794658Y-35378068D01*
X118507760Y-35321000D01*
X118215240Y-35321000D01*
X117928342Y-35378068D01*
X117658089Y-35490010D01*
X117414868Y-35652525D01*
X117208025Y-35859368D01*
X117091500Y-36033760D01*
X116974975Y-35859368D01*
X116768132Y-35652525D01*
X116524911Y-35490010D01*
X116254658Y-35378068D01*
X115967760Y-35321000D01*
X115675240Y-35321000D01*
X115388342Y-35378068D01*
X115118089Y-35490010D01*
X114874868Y-35652525D01*
X114668025Y-35859368D01*
X114551500Y-36033760D01*
X114434975Y-35859368D01*
X114228132Y-35652525D01*
X113984911Y-35490010D01*
X113714658Y-35378068D01*
X113427760Y-35321000D01*
X113135240Y-35321000D01*
X112848342Y-35378068D01*
X112578089Y-35490010D01*
X112334868Y-35652525D01*
X112128025Y-35859368D01*
X112011500Y-36033760D01*
X111894975Y-35859368D01*
X111688132Y-35652525D01*
X111444911Y-35490010D01*
X111174658Y-35378068D01*
X110887760Y-35321000D01*
X110595240Y-35321000D01*
X110308342Y-35378068D01*
X110038089Y-35490010D01*
X109794868Y-35652525D01*
X109588025Y-35859368D01*
X109471500Y-36033760D01*
X109354975Y-35859368D01*
X109148132Y-35652525D01*
X108904911Y-35490010D01*
X108634658Y-35378068D01*
X108347760Y-35321000D01*
X108055240Y-35321000D01*
X107768342Y-35378068D01*
X107498089Y-35490010D01*
X107254868Y-35652525D01*
X107048025Y-35859368D01*
X106931500Y-36033760D01*
X106814975Y-35859368D01*
X106608132Y-35652525D01*
X106364911Y-35490010D01*
X106094658Y-35378068D01*
X105807760Y-35321000D01*
X105515240Y-35321000D01*
X105228342Y-35378068D01*
X104958089Y-35490010D01*
X104714868Y-35652525D01*
X104508025Y-35859368D01*
X104391500Y-36033760D01*
X104274975Y-35859368D01*
X104068132Y-35652525D01*
X103824911Y-35490010D01*
X103554658Y-35378068D01*
X103267760Y-35321000D01*
X102975240Y-35321000D01*
X102688342Y-35378068D01*
X102418089Y-35490010D01*
X102174868Y-35652525D01*
X101968025Y-35859368D01*
X101805510Y-36102589D01*
X101693568Y-36372842D01*
X101636500Y-36659740D01*
X99783572Y-36659740D01*
X99783572Y-35956000D01*
X99771312Y-35831518D01*
X99735002Y-35711820D01*
X99676037Y-35601506D01*
X99596685Y-35504815D01*
X99499994Y-35425463D01*
X99389680Y-35366498D01*
X99269982Y-35330188D01*
X99145500Y-35317928D01*
X97445500Y-35317928D01*
X97321018Y-35330188D01*
X97201320Y-35366498D01*
X97091006Y-35425463D01*
X96994315Y-35504815D01*
X96914963Y-35601506D01*
X96855998Y-35711820D01*
X96833987Y-35784380D01*
X96702132Y-35652525D01*
X96458911Y-35490010D01*
X96188658Y-35378068D01*
X95901760Y-35321000D01*
X95609240Y-35321000D01*
X95322342Y-35378068D01*
X95052089Y-35490010D01*
X94808868Y-35652525D01*
X94602025Y-35859368D01*
X94485500Y-36033760D01*
X94368975Y-35859368D01*
X94162132Y-35652525D01*
X93918911Y-35490010D01*
X93648658Y-35378068D01*
X93361760Y-35321000D01*
X93069240Y-35321000D01*
X92782342Y-35378068D01*
X92512089Y-35490010D01*
X92268868Y-35652525D01*
X92062025Y-35859368D01*
X91945500Y-36033760D01*
X91828975Y-35859368D01*
X91622132Y-35652525D01*
X91378911Y-35490010D01*
X91108658Y-35378068D01*
X90821760Y-35321000D01*
X90529240Y-35321000D01*
X90242342Y-35378068D01*
X89972089Y-35490010D01*
X89728868Y-35652525D01*
X89522025Y-35859368D01*
X89405500Y-36033760D01*
X89288975Y-35859368D01*
X89082132Y-35652525D01*
X88838911Y-35490010D01*
X88568658Y-35378068D01*
X88281760Y-35321000D01*
X87989240Y-35321000D01*
X87702342Y-35378068D01*
X87432089Y-35490010D01*
X87188868Y-35652525D01*
X86982025Y-35859368D01*
X86865500Y-36033760D01*
X86748975Y-35859368D01*
X86542132Y-35652525D01*
X86298911Y-35490010D01*
X86028658Y-35378068D01*
X85741760Y-35321000D01*
X85449240Y-35321000D01*
X85162342Y-35378068D01*
X84892089Y-35490010D01*
X84648868Y-35652525D01*
X84442025Y-35859368D01*
X84279510Y-36102589D01*
X84167568Y-36372842D01*
X84110500Y-36659740D01*
X83152591Y-36659740D01*
X83412795Y-36270318D01*
X83686809Y-35608790D01*
X83826500Y-34906516D01*
X83826500Y-34190484D01*
X83686809Y-33488210D01*
X83412795Y-32826682D01*
X83014989Y-32231323D01*
X82602166Y-31818500D01*
X140110834Y-31818500D01*
X139638011Y-32291323D01*
%TA.AperFunction,Conductor*%
D22*
G36*
X139638011Y-32291323D02*
G01*
X139240205Y-32886682D01*
X138966191Y-33548210D01*
X138826500Y-34250484D01*
X138826500Y-34966516D01*
X138966191Y-35668790D01*
X139240205Y-36330318D01*
X139638011Y-36925677D01*
X140144323Y-37431989D01*
X140739682Y-37829795D01*
X141401210Y-38103809D01*
X142103484Y-38243500D01*
X142819516Y-38243500D01*
X143521790Y-38103809D01*
X144183318Y-37829795D01*
X144778677Y-37431989D01*
X145221500Y-36989166D01*
X145221501Y-70607835D01*
X144808677Y-70195011D01*
X144213318Y-69797205D01*
X143551790Y-69523191D01*
X142849516Y-69383500D01*
X142133484Y-69383500D01*
X141431210Y-69523191D01*
X140769682Y-69797205D01*
X140174323Y-70195011D01*
X139668011Y-70701323D01*
X139270205Y-71296682D01*
X138996191Y-71958210D01*
X138856500Y-72660484D01*
X138856500Y-73376516D01*
X138996191Y-74078790D01*
X139270205Y-74740318D01*
X139668011Y-75335677D01*
X140130834Y-75798500D01*
X82542166Y-75798500D01*
X83014989Y-75325677D01*
X83412795Y-74730318D01*
X83686809Y-74068790D01*
X83826500Y-73366516D01*
X83826500Y-72650484D01*
X83686809Y-71948210D01*
X83412795Y-71286682D01*
X83014989Y-70691323D01*
X82640831Y-70317165D01*
X115206500Y-70317165D01*
X115206500Y-70599835D01*
X115261647Y-70877074D01*
X115369820Y-71138227D01*
X115526863Y-71373259D01*
X115726741Y-71573137D01*
X115961773Y-71730180D01*
X116222926Y-71838353D01*
X116500165Y-71893500D01*
X116782835Y-71893500D01*
X117060074Y-71838353D01*
X117321227Y-71730180D01*
X117556259Y-71573137D01*
X117756137Y-71373259D01*
X117911500Y-71140741D01*
X118066863Y-71373259D01*
X118266741Y-71573137D01*
X118501773Y-71730180D01*
X118762926Y-71838353D01*
X119040165Y-71893500D01*
X119322835Y-71893500D01*
X119600074Y-71838353D01*
X119861227Y-71730180D01*
X120096259Y-71573137D01*
X120296137Y-71373259D01*
X120451500Y-71140741D01*
X120606863Y-71373259D01*
X120806741Y-71573137D01*
X121041773Y-71730180D01*
X121302926Y-71838353D01*
X121580165Y-71893500D01*
X121862835Y-71893500D01*
X122140074Y-71838353D01*
X122401227Y-71730180D01*
X122636259Y-71573137D01*
X122836137Y-71373259D01*
X122991500Y-71140741D01*
X123146863Y-71373259D01*
X123346741Y-71573137D01*
X123581773Y-71730180D01*
X123842926Y-71838353D01*
X124120165Y-71893500D01*
X124402835Y-71893500D01*
X124680074Y-71838353D01*
X124941227Y-71730180D01*
X125176259Y-71573137D01*
X125376137Y-71373259D01*
X125531500Y-71140741D01*
X125686863Y-71373259D01*
X125886741Y-71573137D01*
X126121773Y-71730180D01*
X126382926Y-71838353D01*
X126660165Y-71893500D01*
X126942835Y-71893500D01*
X127220074Y-71838353D01*
X127481227Y-71730180D01*
X127716259Y-71573137D01*
X127916137Y-71373259D01*
X128071500Y-71140741D01*
X128226863Y-71373259D01*
X128426741Y-71573137D01*
X128661773Y-71730180D01*
X128922926Y-71838353D01*
X129200165Y-71893500D01*
X129482835Y-71893500D01*
X129760074Y-71838353D01*
X130021227Y-71730180D01*
X130256259Y-71573137D01*
X130456137Y-71373259D01*
X130611500Y-71140741D01*
X130766863Y-71373259D01*
X130966741Y-71573137D01*
X131201773Y-71730180D01*
X131462926Y-71838353D01*
X131740165Y-71893500D01*
X132022835Y-71893500D01*
X132300074Y-71838353D01*
X132561227Y-71730180D01*
X132796259Y-71573137D01*
X132996137Y-71373259D01*
X133151500Y-71140741D01*
X133306863Y-71373259D01*
X133506741Y-71573137D01*
X133741773Y-71730180D01*
X134002926Y-71838353D01*
X134280165Y-71893500D01*
X134562835Y-71893500D01*
X134840074Y-71838353D01*
X135101227Y-71730180D01*
X135336259Y-71573137D01*
X135534857Y-71374539D01*
X135535688Y-71382982D01*
X135571998Y-71502680D01*
X135630963Y-71612994D01*
X135710315Y-71709685D01*
X135807006Y-71789037D01*
X135917320Y-71848002D01*
X136037018Y-71884312D01*
X136161500Y-71896572D01*
X137761500Y-71896572D01*
X137885982Y-71884312D01*
X138005680Y-71848002D01*
X138115994Y-71789037D01*
X138212685Y-71709685D01*
X138292037Y-71612994D01*
X138351002Y-71502680D01*
X138387312Y-71382982D01*
X138399572Y-71258500D01*
X138399572Y-69658500D01*
X138387312Y-69534018D01*
X138351002Y-69414320D01*
X138292037Y-69304006D01*
X138212685Y-69207315D01*
X138115994Y-69127963D01*
X138005680Y-69068998D01*
X137885982Y-69032688D01*
X137761500Y-69020428D01*
X136161500Y-69020428D01*
X136037018Y-69032688D01*
X135917320Y-69068998D01*
X135807006Y-69127963D01*
X135710315Y-69207315D01*
X135630963Y-69304006D01*
X135571998Y-69414320D01*
X135535688Y-69534018D01*
X135534857Y-69542461D01*
X135336259Y-69343863D01*
X135101227Y-69186820D01*
X134840074Y-69078647D01*
X134562835Y-69023500D01*
X134280165Y-69023500D01*
X134002926Y-69078647D01*
X133741773Y-69186820D01*
X133506741Y-69343863D01*
X133306863Y-69543741D01*
X133151500Y-69776259D01*
X132996137Y-69543741D01*
X132796259Y-69343863D01*
X132561227Y-69186820D01*
X132300074Y-69078647D01*
X132022835Y-69023500D01*
X131740165Y-69023500D01*
X131462926Y-69078647D01*
X131201773Y-69186820D01*
X130966741Y-69343863D01*
X130766863Y-69543741D01*
X130611500Y-69776259D01*
X130456137Y-69543741D01*
X130256259Y-69343863D01*
X130021227Y-69186820D01*
X129760074Y-69078647D01*
X129482835Y-69023500D01*
X129200165Y-69023500D01*
X128922926Y-69078647D01*
X128661773Y-69186820D01*
X128426741Y-69343863D01*
X128226863Y-69543741D01*
X128071500Y-69776259D01*
X127916137Y-69543741D01*
X127716259Y-69343863D01*
X127481227Y-69186820D01*
X127220074Y-69078647D01*
X126942835Y-69023500D01*
X126660165Y-69023500D01*
X126382926Y-69078647D01*
X126121773Y-69186820D01*
X125886741Y-69343863D01*
X125686863Y-69543741D01*
X125531500Y-69776259D01*
X125376137Y-69543741D01*
X125176259Y-69343863D01*
X124941227Y-69186820D01*
X124680074Y-69078647D01*
X124402835Y-69023500D01*
X124120165Y-69023500D01*
X123842926Y-69078647D01*
X123581773Y-69186820D01*
X123346741Y-69343863D01*
X123146863Y-69543741D01*
X122991500Y-69776259D01*
X122836137Y-69543741D01*
X122636259Y-69343863D01*
X122401227Y-69186820D01*
X122140074Y-69078647D01*
X121862835Y-69023500D01*
X121580165Y-69023500D01*
X121302926Y-69078647D01*
X121041773Y-69186820D01*
X120806741Y-69343863D01*
X120606863Y-69543741D01*
X120451500Y-69776259D01*
X120296137Y-69543741D01*
X120096259Y-69343863D01*
X119861227Y-69186820D01*
X119600074Y-69078647D01*
X119322835Y-69023500D01*
X119040165Y-69023500D01*
X118762926Y-69078647D01*
X118501773Y-69186820D01*
X118266741Y-69343863D01*
X118066863Y-69543741D01*
X117911500Y-69776259D01*
X117756137Y-69543741D01*
X117556259Y-69343863D01*
X117321227Y-69186820D01*
X117060074Y-69078647D01*
X116782835Y-69023500D01*
X116500165Y-69023500D01*
X116222926Y-69078647D01*
X115961773Y-69186820D01*
X115726741Y-69343863D01*
X115526863Y-69543741D01*
X115369820Y-69778773D01*
X115261647Y-70039926D01*
X115206500Y-70317165D01*
X82640831Y-70317165D01*
X82508677Y-70185011D01*
X81913318Y-69787205D01*
X81251790Y-69513191D01*
X80549516Y-69373500D01*
X79833484Y-69373500D01*
X79131210Y-69513191D01*
X78469682Y-69787205D01*
X77874323Y-70185011D01*
X77451500Y-70607834D01*
X77451500Y-62098500D01*
X79755928Y-62098500D01*
X79755928Y-63798500D01*
X79768188Y-63922982D01*
X79804498Y-64042680D01*
X79863463Y-64152994D01*
X79942815Y-64249685D01*
X80039506Y-64329037D01*
X80149820Y-64388002D01*
X80269518Y-64424312D01*
X80394000Y-64436572D01*
X82094000Y-64436572D01*
X82218482Y-64424312D01*
X82338180Y-64388002D01*
X82448494Y-64329037D01*
X82545185Y-64249685D01*
X82624537Y-64152994D01*
X82683502Y-64042680D01*
X82719812Y-63922982D01*
X82732072Y-63798500D01*
X82732072Y-62128500D01*
X86318928Y-62128500D01*
X86318928Y-63728500D01*
X86331188Y-63852982D01*
X86367498Y-63972680D01*
X86426463Y-64082994D01*
X86505815Y-64179685D01*
X86602506Y-64259037D01*
X86712820Y-64318002D01*
X86832518Y-64354312D01*
X86957000Y-64366572D01*
X88557000Y-64366572D01*
X88681482Y-64354312D01*
X88801180Y-64318002D01*
X88911494Y-64259037D01*
X89008185Y-64179685D01*
X89087537Y-64082994D01*
X89146502Y-63972680D01*
X89182812Y-63852982D01*
X89183643Y-63844539D01*
X89382241Y-64043137D01*
X89617273Y-64200180D01*
X89878426Y-64308353D01*
X90155665Y-64363500D01*
X90438335Y-64363500D01*
X90715574Y-64308353D01*
X90976727Y-64200180D01*
X91211759Y-64043137D01*
X91411637Y-63843259D01*
X91567000Y-63610741D01*
X91722363Y-63843259D01*
X91922241Y-64043137D01*
X92157273Y-64200180D01*
X92418426Y-64308353D01*
X92695665Y-64363500D01*
X92978335Y-64363500D01*
X93255574Y-64308353D01*
X93516727Y-64200180D01*
X93751759Y-64043137D01*
X93951637Y-63843259D01*
X94107000Y-63610741D01*
X94262363Y-63843259D01*
X94462241Y-64043137D01*
X94697273Y-64200180D01*
X94958426Y-64308353D01*
X95235665Y-64363500D01*
X95518335Y-64363500D01*
X95795574Y-64308353D01*
X96056727Y-64200180D01*
X96291759Y-64043137D01*
X96491637Y-63843259D01*
X96647000Y-63610741D01*
X96802363Y-63843259D01*
X97002241Y-64043137D01*
X97237273Y-64200180D01*
X97498426Y-64308353D01*
X97775665Y-64363500D01*
X98058335Y-64363500D01*
X98335574Y-64308353D01*
X98596727Y-64200180D01*
X98831759Y-64043137D01*
X99031637Y-63843259D01*
X99187000Y-63610741D01*
X99342363Y-63843259D01*
X99542241Y-64043137D01*
X99777273Y-64200180D01*
X100038426Y-64308353D01*
X100315665Y-64363500D01*
X100598335Y-64363500D01*
X100875574Y-64308353D01*
X101136727Y-64200180D01*
X101371759Y-64043137D01*
X101571637Y-63843259D01*
X101727000Y-63610741D01*
X101882363Y-63843259D01*
X102082241Y-64043137D01*
X102317273Y-64200180D01*
X102578426Y-64308353D01*
X102855665Y-64363500D01*
X103138335Y-64363500D01*
X103415574Y-64308353D01*
X103676727Y-64200180D01*
X103911759Y-64043137D01*
X104111637Y-63843259D01*
X104267000Y-63610741D01*
X104422363Y-63843259D01*
X104622241Y-64043137D01*
X104857273Y-64200180D01*
X105118426Y-64308353D01*
X105395665Y-64363500D01*
X105678335Y-64363500D01*
X105955574Y-64308353D01*
X106216727Y-64200180D01*
X106451759Y-64043137D01*
X106651637Y-63843259D01*
X106807000Y-63610741D01*
X106962363Y-63843259D01*
X107162241Y-64043137D01*
X107397273Y-64200180D01*
X107658426Y-64308353D01*
X107935665Y-64363500D01*
X108218335Y-64363500D01*
X108495574Y-64308353D01*
X108756727Y-64200180D01*
X108991759Y-64043137D01*
X109191637Y-63843259D01*
X109347000Y-63610741D01*
X109502363Y-63843259D01*
X109702241Y-64043137D01*
X109937273Y-64200180D01*
X110198426Y-64308353D01*
X110475665Y-64363500D01*
X110758335Y-64363500D01*
X111035574Y-64308353D01*
X111296727Y-64200180D01*
X111531759Y-64043137D01*
X111731637Y-63843259D01*
X111888680Y-63608227D01*
X111996853Y-63347074D01*
X111999077Y-63335891D01*
X115360500Y-63335891D01*
X115360500Y-63661109D01*
X115423947Y-63980079D01*
X115548403Y-64280542D01*
X115729085Y-64550951D01*
X115959049Y-64780915D01*
X116229458Y-64961597D01*
X116529921Y-65086053D01*
X116848891Y-65149500D01*
X117174109Y-65149500D01*
X117493079Y-65086053D01*
X117793542Y-64961597D01*
X118063951Y-64780915D01*
X118281500Y-64563366D01*
X118499049Y-64780915D01*
X118769458Y-64961597D01*
X119069921Y-65086053D01*
X119388891Y-65149500D01*
X119714109Y-65149500D01*
X120033079Y-65086053D01*
X120333542Y-64961597D01*
X120603951Y-64780915D01*
X120821500Y-64563366D01*
X121039049Y-64780915D01*
X121309458Y-64961597D01*
X121609921Y-65086053D01*
X121928891Y-65149500D01*
X122254109Y-65149500D01*
X122573079Y-65086053D01*
X122873542Y-64961597D01*
X123143951Y-64780915D01*
X123361500Y-64563366D01*
X123579049Y-64780915D01*
X123849458Y-64961597D01*
X124149921Y-65086053D01*
X124468891Y-65149500D01*
X124794109Y-65149500D01*
X125113079Y-65086053D01*
X125413542Y-64961597D01*
X125683951Y-64780915D01*
X125901500Y-64563366D01*
X126119049Y-64780915D01*
X126389458Y-64961597D01*
X126689921Y-65086053D01*
X127008891Y-65149500D01*
X127334109Y-65149500D01*
X127653079Y-65086053D01*
X127953542Y-64961597D01*
X128223951Y-64780915D01*
X128441500Y-64563366D01*
X128659049Y-64780915D01*
X128929458Y-64961597D01*
X129229921Y-65086053D01*
X129548891Y-65149500D01*
X129874109Y-65149500D01*
X130193079Y-65086053D01*
X130493542Y-64961597D01*
X130763951Y-64780915D01*
X130981500Y-64563366D01*
X131199049Y-64780915D01*
X131469458Y-64961597D01*
X131769921Y-65086053D01*
X132088891Y-65149500D01*
X132414109Y-65149500D01*
X132733079Y-65086053D01*
X133033542Y-64961597D01*
X133303951Y-64780915D01*
X133521500Y-64563366D01*
X133739049Y-64780915D01*
X134009458Y-64961597D01*
X134309921Y-65086053D01*
X134628891Y-65149500D01*
X134954109Y-65149500D01*
X135273079Y-65086053D01*
X135573542Y-64961597D01*
X135843951Y-64780915D01*
X136061500Y-64563366D01*
X136279049Y-64780915D01*
X136549458Y-64961597D01*
X136849921Y-65086053D01*
X137168891Y-65149500D01*
X137494109Y-65149500D01*
X137813079Y-65086053D01*
X138113542Y-64961597D01*
X138383951Y-64780915D01*
X138601500Y-64563366D01*
X138819049Y-64780915D01*
X139089458Y-64961597D01*
X139389921Y-65086053D01*
X139708891Y-65149500D01*
X140034109Y-65149500D01*
X140353079Y-65086053D01*
X140653542Y-64961597D01*
X140923951Y-64780915D01*
X141153915Y-64550951D01*
X141334597Y-64280542D01*
X141459053Y-63980079D01*
X141522500Y-63661109D01*
X141522500Y-63335891D01*
X141459053Y-63016921D01*
X141334597Y-62716458D01*
X141153915Y-62446049D01*
X140923951Y-62216085D01*
X140653542Y-62035403D01*
X140353079Y-61910947D01*
X140034109Y-61847500D01*
X139708891Y-61847500D01*
X139389921Y-61910947D01*
X139089458Y-62035403D01*
X138819049Y-62216085D01*
X138601500Y-62433634D01*
X138383951Y-62216085D01*
X138113542Y-62035403D01*
X137813079Y-61910947D01*
X137494109Y-61847500D01*
X137168891Y-61847500D01*
X136849921Y-61910947D01*
X136549458Y-62035403D01*
X136279049Y-62216085D01*
X136061500Y-62433634D01*
X135843951Y-62216085D01*
X135573542Y-62035403D01*
X135273079Y-61910947D01*
X134954109Y-61847500D01*
X134628891Y-61847500D01*
X134309921Y-61910947D01*
X134009458Y-62035403D01*
X133739049Y-62216085D01*
X133521500Y-62433634D01*
X133303951Y-62216085D01*
X133033542Y-62035403D01*
X132733079Y-61910947D01*
X132414109Y-61847500D01*
X132088891Y-61847500D01*
X131769921Y-61910947D01*
X131469458Y-62035403D01*
X131199049Y-62216085D01*
X130981500Y-62433634D01*
X130763951Y-62216085D01*
X130493542Y-62035403D01*
X130193079Y-61910947D01*
X129874109Y-61847500D01*
X129548891Y-61847500D01*
X129229921Y-61910947D01*
X128929458Y-62035403D01*
X128659049Y-62216085D01*
X128441500Y-62433634D01*
X128223951Y-62216085D01*
X127953542Y-62035403D01*
X127653079Y-61910947D01*
X127334109Y-61847500D01*
X127008891Y-61847500D01*
X126689921Y-61910947D01*
X126389458Y-62035403D01*
X126119049Y-62216085D01*
X125901500Y-62433634D01*
X125683951Y-62216085D01*
X125413542Y-62035403D01*
X125113079Y-61910947D01*
X124794109Y-61847500D01*
X124468891Y-61847500D01*
X124149921Y-61910947D01*
X123849458Y-62035403D01*
X123579049Y-62216085D01*
X123361500Y-62433634D01*
X123143951Y-62216085D01*
X122873542Y-62035403D01*
X122573079Y-61910947D01*
X122254109Y-61847500D01*
X121928891Y-61847500D01*
X121609921Y-61910947D01*
X121309458Y-62035403D01*
X121039049Y-62216085D01*
X120821500Y-62433634D01*
X120603951Y-62216085D01*
X120333542Y-62035403D01*
X120033079Y-61910947D01*
X119714109Y-61847500D01*
X119388891Y-61847500D01*
X119069921Y-61910947D01*
X118769458Y-62035403D01*
X118499049Y-62216085D01*
X118281500Y-62433634D01*
X118063951Y-62216085D01*
X117793542Y-62035403D01*
X117493079Y-61910947D01*
X117174109Y-61847500D01*
X116848891Y-61847500D01*
X116529921Y-61910947D01*
X116229458Y-62035403D01*
X115959049Y-62216085D01*
X115729085Y-62446049D01*
X115548403Y-62716458D01*
X115423947Y-63016921D01*
X115360500Y-63335891D01*
X111999077Y-63335891D01*
X112052000Y-63069835D01*
X112052000Y-62787165D01*
X111996853Y-62509926D01*
X111888680Y-62248773D01*
X111731637Y-62013741D01*
X111531759Y-61813863D01*
X111296727Y-61656820D01*
X111035574Y-61548647D01*
X110758335Y-61493500D01*
X110475665Y-61493500D01*
X110198426Y-61548647D01*
X109937273Y-61656820D01*
X109702241Y-61813863D01*
X109502363Y-62013741D01*
X109347000Y-62246259D01*
X109191637Y-62013741D01*
X108991759Y-61813863D01*
X108756727Y-61656820D01*
X108495574Y-61548647D01*
X108218335Y-61493500D01*
X107935665Y-61493500D01*
X107658426Y-61548647D01*
X107397273Y-61656820D01*
X107162241Y-61813863D01*
X106962363Y-62013741D01*
X106807000Y-62246259D01*
X106651637Y-62013741D01*
X106451759Y-61813863D01*
X106216727Y-61656820D01*
X105955574Y-61548647D01*
X105678335Y-61493500D01*
X105395665Y-61493500D01*
X105118426Y-61548647D01*
X104857273Y-61656820D01*
X104622241Y-61813863D01*
X104422363Y-62013741D01*
X104267000Y-62246259D01*
X104111637Y-62013741D01*
X103911759Y-61813863D01*
X103676727Y-61656820D01*
X103415574Y-61548647D01*
X103138335Y-61493500D01*
X102855665Y-61493500D01*
X102578426Y-61548647D01*
X102317273Y-61656820D01*
X102082241Y-61813863D01*
X101882363Y-62013741D01*
X101727000Y-62246259D01*
X101571637Y-62013741D01*
X101371759Y-61813863D01*
X101136727Y-61656820D01*
X100875574Y-61548647D01*
X100598335Y-61493500D01*
X100315665Y-61493500D01*
X100038426Y-61548647D01*
X99777273Y-61656820D01*
X99542241Y-61813863D01*
X99342363Y-62013741D01*
X99187000Y-62246259D01*
X99031637Y-62013741D01*
X98831759Y-61813863D01*
X98596727Y-61656820D01*
X98335574Y-61548647D01*
X98058335Y-61493500D01*
X97775665Y-61493500D01*
X97498426Y-61548647D01*
X97237273Y-61656820D01*
X97002241Y-61813863D01*
X96802363Y-62013741D01*
X96647000Y-62246259D01*
X96491637Y-62013741D01*
X96291759Y-61813863D01*
X96056727Y-61656820D01*
X95795574Y-61548647D01*
X95518335Y-61493500D01*
X95235665Y-61493500D01*
X94958426Y-61548647D01*
X94697273Y-61656820D01*
X94462241Y-61813863D01*
X94262363Y-62013741D01*
X94107000Y-62246259D01*
X93951637Y-62013741D01*
X93751759Y-61813863D01*
X93516727Y-61656820D01*
X93255574Y-61548647D01*
X92978335Y-61493500D01*
X92695665Y-61493500D01*
X92418426Y-61548647D01*
X92157273Y-61656820D01*
X91922241Y-61813863D01*
X91722363Y-62013741D01*
X91567000Y-62246259D01*
X91411637Y-62013741D01*
X91211759Y-61813863D01*
X90976727Y-61656820D01*
X90715574Y-61548647D01*
X90438335Y-61493500D01*
X90155665Y-61493500D01*
X89878426Y-61548647D01*
X89617273Y-61656820D01*
X89382241Y-61813863D01*
X89183643Y-62012461D01*
X89182812Y-62004018D01*
X89146502Y-61884320D01*
X89087537Y-61774006D01*
X89008185Y-61677315D01*
X88911494Y-61597963D01*
X88801180Y-61538998D01*
X88681482Y-61502688D01*
X88557000Y-61490428D01*
X86957000Y-61490428D01*
X86832518Y-61502688D01*
X86712820Y-61538998D01*
X86602506Y-61597963D01*
X86505815Y-61677315D01*
X86426463Y-61774006D01*
X86367498Y-61884320D01*
X86331188Y-62004018D01*
X86318928Y-62128500D01*
X82732072Y-62128500D01*
X82732072Y-62098500D01*
X82719812Y-61974018D01*
X82683502Y-61854320D01*
X82624537Y-61744006D01*
X82545185Y-61647315D01*
X82448494Y-61567963D01*
X82338180Y-61508998D01*
X82265620Y-61486987D01*
X82397475Y-61355132D01*
X82559990Y-61111911D01*
X82671932Y-60841658D01*
X82729000Y-60554760D01*
X82729000Y-60262240D01*
X82671932Y-59975342D01*
X82559990Y-59705089D01*
X82397475Y-59461868D01*
X82190632Y-59255025D01*
X82016240Y-59138500D01*
X82190632Y-59021975D01*
X82397475Y-58815132D01*
X82559990Y-58571911D01*
X82671932Y-58301658D01*
X82729000Y-58014760D01*
X82729000Y-57722240D01*
X82671932Y-57435342D01*
X82559990Y-57165089D01*
X82397475Y-56921868D01*
X82190632Y-56715025D01*
X82016240Y-56598500D01*
X82190632Y-56481975D01*
X82397475Y-56275132D01*
X82559990Y-56031911D01*
X82671932Y-55761658D01*
X82692642Y-55657540D01*
X86365091Y-55657540D01*
X86459930Y-55922381D01*
X86604615Y-56163631D01*
X86793586Y-56372019D01*
X87019580Y-56539537D01*
X87273913Y-56659746D01*
X87407961Y-56700404D01*
X87630000Y-56578415D01*
X87630000Y-55435500D01*
X86486376Y-55435500D01*
X86365091Y-55657540D01*
X82692642Y-55657540D01*
X82729000Y-55474760D01*
X82729000Y-55182240D01*
X82684686Y-54959460D01*
X86365091Y-54959460D01*
X86486376Y-55181500D01*
X87630000Y-55181500D01*
X87630000Y-54038585D01*
X87884000Y-54038585D01*
X87884000Y-55181500D01*
X87904000Y-55181500D01*
X87904000Y-55435500D01*
X87884000Y-55435500D01*
X87884000Y-56578415D01*
X88106039Y-56700404D01*
X88240087Y-56659746D01*
X88494420Y-56539537D01*
X88720414Y-56372019D01*
X88909385Y-56163631D01*
X89020933Y-55977635D01*
X89025320Y-55988227D01*
X89182363Y-56223259D01*
X89382241Y-56423137D01*
X89617273Y-56580180D01*
X89878426Y-56688353D01*
X90155665Y-56743500D01*
X90438335Y-56743500D01*
X90715574Y-56688353D01*
X90976727Y-56580180D01*
X91211759Y-56423137D01*
X91411637Y-56223259D01*
X91567000Y-55990741D01*
X91722363Y-56223259D01*
X91922241Y-56423137D01*
X92157273Y-56580180D01*
X92418426Y-56688353D01*
X92695665Y-56743500D01*
X92978335Y-56743500D01*
X93255574Y-56688353D01*
X93516727Y-56580180D01*
X93751759Y-56423137D01*
X93951637Y-56223259D01*
X94107000Y-55990741D01*
X94262363Y-56223259D01*
X94462241Y-56423137D01*
X94697273Y-56580180D01*
X94958426Y-56688353D01*
X95235665Y-56743500D01*
X95518335Y-56743500D01*
X95795574Y-56688353D01*
X96056727Y-56580180D01*
X96291759Y-56423137D01*
X96491637Y-56223259D01*
X96647000Y-55990741D01*
X96802363Y-56223259D01*
X97002241Y-56423137D01*
X97237273Y-56580180D01*
X97498426Y-56688353D01*
X97775665Y-56743500D01*
X98058335Y-56743500D01*
X98335574Y-56688353D01*
X98596727Y-56580180D01*
X98831759Y-56423137D01*
X99031637Y-56223259D01*
X99187000Y-55990741D01*
X99342363Y-56223259D01*
X99542241Y-56423137D01*
X99777273Y-56580180D01*
X100038426Y-56688353D01*
X100315665Y-56743500D01*
X100598335Y-56743500D01*
X100875574Y-56688353D01*
X101136727Y-56580180D01*
X101371759Y-56423137D01*
X101571637Y-56223259D01*
X101727000Y-55990741D01*
X101882363Y-56223259D01*
X102082241Y-56423137D01*
X102317273Y-56580180D01*
X102578426Y-56688353D01*
X102855665Y-56743500D01*
X103138335Y-56743500D01*
X103415574Y-56688353D01*
X103676727Y-56580180D01*
X103911759Y-56423137D01*
X104111637Y-56223259D01*
X104267000Y-55990741D01*
X104422363Y-56223259D01*
X104622241Y-56423137D01*
X104857273Y-56580180D01*
X105118426Y-56688353D01*
X105395665Y-56743500D01*
X105678335Y-56743500D01*
X105955574Y-56688353D01*
X106216727Y-56580180D01*
X106451759Y-56423137D01*
X106651637Y-56223259D01*
X106807000Y-55990741D01*
X106962363Y-56223259D01*
X107162241Y-56423137D01*
X107397273Y-56580180D01*
X107658426Y-56688353D01*
X107935665Y-56743500D01*
X108218335Y-56743500D01*
X108495574Y-56688353D01*
X108756727Y-56580180D01*
X108991759Y-56423137D01*
X109191637Y-56223259D01*
X109347000Y-55990741D01*
X109502363Y-56223259D01*
X109702241Y-56423137D01*
X109937273Y-56580180D01*
X110198426Y-56688353D01*
X110475665Y-56743500D01*
X110758335Y-56743500D01*
X111035574Y-56688353D01*
X111296727Y-56580180D01*
X111531759Y-56423137D01*
X111731637Y-56223259D01*
X111888680Y-55988227D01*
X111996853Y-55727074D01*
X111999077Y-55715891D01*
X115360500Y-55715891D01*
X115360500Y-56041109D01*
X115423947Y-56360079D01*
X115548403Y-56660542D01*
X115729085Y-56930951D01*
X115959049Y-57160915D01*
X116229458Y-57341597D01*
X116529921Y-57466053D01*
X116848891Y-57529500D01*
X117174109Y-57529500D01*
X117493079Y-57466053D01*
X117793542Y-57341597D01*
X118063951Y-57160915D01*
X118281500Y-56943366D01*
X118499049Y-57160915D01*
X118769458Y-57341597D01*
X119069921Y-57466053D01*
X119388891Y-57529500D01*
X119714109Y-57529500D01*
X120033079Y-57466053D01*
X120333542Y-57341597D01*
X120603951Y-57160915D01*
X120821500Y-56943366D01*
X121039049Y-57160915D01*
X121309458Y-57341597D01*
X121609921Y-57466053D01*
X121928891Y-57529500D01*
X122254109Y-57529500D01*
X122573079Y-57466053D01*
X122873542Y-57341597D01*
X123143951Y-57160915D01*
X123361500Y-56943366D01*
X123579049Y-57160915D01*
X123849458Y-57341597D01*
X124149921Y-57466053D01*
X124468891Y-57529500D01*
X124794109Y-57529500D01*
X125113079Y-57466053D01*
X125413542Y-57341597D01*
X125683951Y-57160915D01*
X125901500Y-56943366D01*
X126119049Y-57160915D01*
X126389458Y-57341597D01*
X126689921Y-57466053D01*
X127008891Y-57529500D01*
X127334109Y-57529500D01*
X127653079Y-57466053D01*
X127953542Y-57341597D01*
X128223951Y-57160915D01*
X128441500Y-56943366D01*
X128659049Y-57160915D01*
X128929458Y-57341597D01*
X129229921Y-57466053D01*
X129548891Y-57529500D01*
X129874109Y-57529500D01*
X130193079Y-57466053D01*
X130493542Y-57341597D01*
X130763951Y-57160915D01*
X130981500Y-56943366D01*
X131199049Y-57160915D01*
X131469458Y-57341597D01*
X131769921Y-57466053D01*
X132088891Y-57529500D01*
X132414109Y-57529500D01*
X132733079Y-57466053D01*
X133033542Y-57341597D01*
X133303951Y-57160915D01*
X133521500Y-56943366D01*
X133739049Y-57160915D01*
X134009458Y-57341597D01*
X134309921Y-57466053D01*
X134628891Y-57529500D01*
X134954109Y-57529500D01*
X135273079Y-57466053D01*
X135573542Y-57341597D01*
X135843951Y-57160915D01*
X136061500Y-56943366D01*
X136279049Y-57160915D01*
X136549458Y-57341597D01*
X136849921Y-57466053D01*
X137168891Y-57529500D01*
X137494109Y-57529500D01*
X137813079Y-57466053D01*
X138113542Y-57341597D01*
X138305796Y-57213136D01*
X138324963Y-57248994D01*
X138404315Y-57345685D01*
X138501006Y-57425037D01*
X138611320Y-57484002D01*
X138731018Y-57520312D01*
X138855500Y-57532572D01*
X140887500Y-57532572D01*
X141011982Y-57520312D01*
X141131680Y-57484002D01*
X141241994Y-57425037D01*
X141338685Y-57345685D01*
X141418037Y-57248994D01*
X141477002Y-57138680D01*
X141513312Y-57018982D01*
X141525572Y-56894500D01*
X141525572Y-54862500D01*
X141513312Y-54738018D01*
X141477002Y-54618320D01*
X141418037Y-54508006D01*
X141338685Y-54411315D01*
X141241994Y-54331963D01*
X141131680Y-54272998D01*
X141011982Y-54236688D01*
X140887500Y-54224428D01*
X138855500Y-54224428D01*
X138731018Y-54236688D01*
X138611320Y-54272998D01*
X138501006Y-54331963D01*
X138404315Y-54411315D01*
X138324963Y-54508006D01*
X138305796Y-54543864D01*
X138113542Y-54415403D01*
X137813079Y-54290947D01*
X137494109Y-54227500D01*
X137168891Y-54227500D01*
X136849921Y-54290947D01*
X136549458Y-54415403D01*
X136279049Y-54596085D01*
X136061500Y-54813634D01*
X135843951Y-54596085D01*
X135573542Y-54415403D01*
X135273079Y-54290947D01*
X134954109Y-54227500D01*
X134628891Y-54227500D01*
X134309921Y-54290947D01*
X134009458Y-54415403D01*
X133739049Y-54596085D01*
X133521500Y-54813634D01*
X133303951Y-54596085D01*
X133033542Y-54415403D01*
X132733079Y-54290947D01*
X132414109Y-54227500D01*
X132088891Y-54227500D01*
X131769921Y-54290947D01*
X131469458Y-54415403D01*
X131199049Y-54596085D01*
X130981500Y-54813634D01*
X130763951Y-54596085D01*
X130493542Y-54415403D01*
X130193079Y-54290947D01*
X129874109Y-54227500D01*
X129548891Y-54227500D01*
X129229921Y-54290947D01*
X128929458Y-54415403D01*
X128659049Y-54596085D01*
X128441500Y-54813634D01*
X128223951Y-54596085D01*
X127953542Y-54415403D01*
X127653079Y-54290947D01*
X127334109Y-54227500D01*
X127008891Y-54227500D01*
X126689921Y-54290947D01*
X126389458Y-54415403D01*
X126119049Y-54596085D01*
X125901500Y-54813634D01*
X125683951Y-54596085D01*
X125413542Y-54415403D01*
X125113079Y-54290947D01*
X124794109Y-54227500D01*
X124468891Y-54227500D01*
X124149921Y-54290947D01*
X123849458Y-54415403D01*
X123579049Y-54596085D01*
X123361500Y-54813634D01*
X123143951Y-54596085D01*
X122873542Y-54415403D01*
X122573079Y-54290947D01*
X122254109Y-54227500D01*
X121928891Y-54227500D01*
X121609921Y-54290947D01*
X121309458Y-54415403D01*
X121039049Y-54596085D01*
X120821500Y-54813634D01*
X120603951Y-54596085D01*
X120333542Y-54415403D01*
X120033079Y-54290947D01*
X119714109Y-54227500D01*
X119388891Y-54227500D01*
X119069921Y-54290947D01*
X118769458Y-54415403D01*
X118499049Y-54596085D01*
X118281500Y-54813634D01*
X118063951Y-54596085D01*
X117793542Y-54415403D01*
X117493079Y-54290947D01*
X117174109Y-54227500D01*
X116848891Y-54227500D01*
X116529921Y-54290947D01*
X116229458Y-54415403D01*
X115959049Y-54596085D01*
X115729085Y-54826049D01*
X115548403Y-55096458D01*
X115423947Y-55396921D01*
X115360500Y-55715891D01*
X111999077Y-55715891D01*
X112052000Y-55449835D01*
X112052000Y-55167165D01*
X111996853Y-54889926D01*
X111888680Y-54628773D01*
X111731637Y-54393741D01*
X111531759Y-54193863D01*
X111296727Y-54036820D01*
X111035574Y-53928647D01*
X110758335Y-53873500D01*
X110475665Y-53873500D01*
X110198426Y-53928647D01*
X109937273Y-54036820D01*
X109702241Y-54193863D01*
X109502363Y-54393741D01*
X109347000Y-54626259D01*
X109191637Y-54393741D01*
X108991759Y-54193863D01*
X108756727Y-54036820D01*
X108495574Y-53928647D01*
X108218335Y-53873500D01*
X107935665Y-53873500D01*
X107658426Y-53928647D01*
X107397273Y-54036820D01*
X107162241Y-54193863D01*
X106962363Y-54393741D01*
X106807000Y-54626259D01*
X106651637Y-54393741D01*
X106451759Y-54193863D01*
X106216727Y-54036820D01*
X105955574Y-53928647D01*
X105678335Y-53873500D01*
X105395665Y-53873500D01*
X105118426Y-53928647D01*
X104857273Y-54036820D01*
X104622241Y-54193863D01*
X104422363Y-54393741D01*
X104267000Y-54626259D01*
X104111637Y-54393741D01*
X103911759Y-54193863D01*
X103676727Y-54036820D01*
X103415574Y-53928647D01*
X103138335Y-53873500D01*
X102855665Y-53873500D01*
X102578426Y-53928647D01*
X102317273Y-54036820D01*
X102082241Y-54193863D01*
X101882363Y-54393741D01*
X101727000Y-54626259D01*
X101571637Y-54393741D01*
X101371759Y-54193863D01*
X101136727Y-54036820D01*
X100875574Y-53928647D01*
X100598335Y-53873500D01*
X100315665Y-53873500D01*
X100038426Y-53928647D01*
X99777273Y-54036820D01*
X99542241Y-54193863D01*
X99342363Y-54393741D01*
X99187000Y-54626259D01*
X99031637Y-54393741D01*
X98831759Y-54193863D01*
X98596727Y-54036820D01*
X98335574Y-53928647D01*
X98058335Y-53873500D01*
X97775665Y-53873500D01*
X97498426Y-53928647D01*
X97237273Y-54036820D01*
X97002241Y-54193863D01*
X96802363Y-54393741D01*
X96647000Y-54626259D01*
X96491637Y-54393741D01*
X96291759Y-54193863D01*
X96056727Y-54036820D01*
X95795574Y-53928647D01*
X95518335Y-53873500D01*
X95235665Y-53873500D01*
X94958426Y-53928647D01*
X94697273Y-54036820D01*
X94462241Y-54193863D01*
X94262363Y-54393741D01*
X94107000Y-54626259D01*
X93951637Y-54393741D01*
X93751759Y-54193863D01*
X93516727Y-54036820D01*
X93255574Y-53928647D01*
X92978335Y-53873500D01*
X92695665Y-53873500D01*
X92418426Y-53928647D01*
X92157273Y-54036820D01*
X91922241Y-54193863D01*
X91722363Y-54393741D01*
X91567000Y-54626259D01*
X91411637Y-54393741D01*
X91211759Y-54193863D01*
X90976727Y-54036820D01*
X90715574Y-53928647D01*
X90438335Y-53873500D01*
X90155665Y-53873500D01*
X89878426Y-53928647D01*
X89617273Y-54036820D01*
X89382241Y-54193863D01*
X89182363Y-54393741D01*
X89025320Y-54628773D01*
X89020933Y-54639365D01*
X88909385Y-54453369D01*
X88720414Y-54244981D01*
X88494420Y-54077463D01*
X88240087Y-53957254D01*
X88106039Y-53916596D01*
X87884000Y-54038585D01*
X87630000Y-54038585D01*
X87407961Y-53916596D01*
X87273913Y-53957254D01*
X87019580Y-54077463D01*
X86793586Y-54244981D01*
X86604615Y-54453369D01*
X86459930Y-54694619D01*
X86365091Y-54959460D01*
X82684686Y-54959460D01*
X82671932Y-54895342D01*
X82559990Y-54625089D01*
X82397475Y-54381868D01*
X82190632Y-54175025D01*
X82016240Y-54058500D01*
X82190632Y-53941975D01*
X82397475Y-53735132D01*
X82559990Y-53491911D01*
X82671932Y-53221658D01*
X82729000Y-52934760D01*
X82729000Y-52642240D01*
X82671932Y-52355342D01*
X82559990Y-52085089D01*
X82397475Y-51841868D01*
X82190632Y-51635025D01*
X82016240Y-51518500D01*
X82190632Y-51401975D01*
X82397475Y-51195132D01*
X82559990Y-50951911D01*
X82671932Y-50681658D01*
X82729000Y-50394760D01*
X82729000Y-50102240D01*
X82675478Y-49833165D01*
X86449000Y-49833165D01*
X86449000Y-50115835D01*
X86504147Y-50393074D01*
X86612320Y-50654227D01*
X86769363Y-50889259D01*
X86969241Y-51089137D01*
X87204273Y-51246180D01*
X87465426Y-51354353D01*
X87742665Y-51409500D01*
X88025335Y-51409500D01*
X88302574Y-51354353D01*
X88563727Y-51246180D01*
X88798759Y-51089137D01*
X88998637Y-50889259D01*
X89154000Y-50656741D01*
X89309363Y-50889259D01*
X89509241Y-51089137D01*
X89744273Y-51246180D01*
X90005426Y-51354353D01*
X90282665Y-51409500D01*
X90565335Y-51409500D01*
X90842574Y-51354353D01*
X91103727Y-51246180D01*
X91338759Y-51089137D01*
X91538637Y-50889259D01*
X91694000Y-50656741D01*
X91849363Y-50889259D01*
X92049241Y-51089137D01*
X92284273Y-51246180D01*
X92545426Y-51354353D01*
X92822665Y-51409500D01*
X93105335Y-51409500D01*
X93382574Y-51354353D01*
X93643727Y-51246180D01*
X93878759Y-51089137D01*
X94078637Y-50889259D01*
X94234000Y-50656741D01*
X94389363Y-50889259D01*
X94589241Y-51089137D01*
X94824273Y-51246180D01*
X95085426Y-51354353D01*
X95362665Y-51409500D01*
X95645335Y-51409500D01*
X95922574Y-51354353D01*
X96183727Y-51246180D01*
X96418759Y-51089137D01*
X96618637Y-50889259D01*
X96774000Y-50656741D01*
X96929363Y-50889259D01*
X97129241Y-51089137D01*
X97364273Y-51246180D01*
X97625426Y-51354353D01*
X97902665Y-51409500D01*
X98185335Y-51409500D01*
X98462574Y-51354353D01*
X98723727Y-51246180D01*
X98958759Y-51089137D01*
X99158637Y-50889259D01*
X99314000Y-50656741D01*
X99469363Y-50889259D01*
X99669241Y-51089137D01*
X99904273Y-51246180D01*
X100165426Y-51354353D01*
X100442665Y-51409500D01*
X100725335Y-51409500D01*
X101002574Y-51354353D01*
X101263727Y-51246180D01*
X101498759Y-51089137D01*
X101698637Y-50889259D01*
X101854000Y-50656741D01*
X102009363Y-50889259D01*
X102209241Y-51089137D01*
X102444273Y-51246180D01*
X102705426Y-51354353D01*
X102982665Y-51409500D01*
X103265335Y-51409500D01*
X103542574Y-51354353D01*
X103803727Y-51246180D01*
X104038759Y-51089137D01*
X104238637Y-50889259D01*
X104395680Y-50654227D01*
X104400067Y-50643635D01*
X104511615Y-50829631D01*
X104700586Y-51038019D01*
X104926580Y-51205537D01*
X105180913Y-51325746D01*
X105314961Y-51366404D01*
X105537000Y-51244415D01*
X105537000Y-50101500D01*
X105791000Y-50101500D01*
X105791000Y-51244415D01*
X106013039Y-51366404D01*
X106147087Y-51325746D01*
X106401420Y-51205537D01*
X106627414Y-51038019D01*
X106816385Y-50829631D01*
X106961070Y-50588381D01*
X107055909Y-50323540D01*
X106934624Y-50101500D01*
X105791000Y-50101500D01*
X105537000Y-50101500D01*
X105517000Y-50101500D01*
X105517000Y-49960165D01*
X109721000Y-49960165D01*
X109721000Y-50242835D01*
X109776147Y-50520074D01*
X109884320Y-50781227D01*
X110041363Y-51016259D01*
X110241241Y-51216137D01*
X110476273Y-51373180D01*
X110737426Y-51481353D01*
X111014665Y-51536500D01*
X111297335Y-51536500D01*
X111574574Y-51481353D01*
X111835727Y-51373180D01*
X112070759Y-51216137D01*
X112270637Y-51016259D01*
X112426000Y-50783741D01*
X112581363Y-51016259D01*
X112781241Y-51216137D01*
X113016273Y-51373180D01*
X113277426Y-51481353D01*
X113554665Y-51536500D01*
X113837335Y-51536500D01*
X114114574Y-51481353D01*
X114375727Y-51373180D01*
X114610759Y-51216137D01*
X114810637Y-51016259D01*
X114966000Y-50783741D01*
X115121363Y-51016259D01*
X115321241Y-51216137D01*
X115556273Y-51373180D01*
X115817426Y-51481353D01*
X116094665Y-51536500D01*
X116377335Y-51536500D01*
X116654574Y-51481353D01*
X116915727Y-51373180D01*
X117150759Y-51216137D01*
X117350637Y-51016259D01*
X117506000Y-50783741D01*
X117661363Y-51016259D01*
X117861241Y-51216137D01*
X118096273Y-51373180D01*
X118357426Y-51481353D01*
X118634665Y-51536500D01*
X118917335Y-51536500D01*
X119194574Y-51481353D01*
X119455727Y-51373180D01*
X119690759Y-51216137D01*
X119890637Y-51016259D01*
X120046000Y-50783741D01*
X120201363Y-51016259D01*
X120401241Y-51216137D01*
X120636273Y-51373180D01*
X120897426Y-51481353D01*
X121174665Y-51536500D01*
X121457335Y-51536500D01*
X121734574Y-51481353D01*
X121995727Y-51373180D01*
X122230759Y-51216137D01*
X122430637Y-51016259D01*
X122586000Y-50783741D01*
X122741363Y-51016259D01*
X122941241Y-51216137D01*
X123176273Y-51373180D01*
X123437426Y-51481353D01*
X123714665Y-51536500D01*
X123997335Y-51536500D01*
X124274574Y-51481353D01*
X124535727Y-51373180D01*
X124770759Y-51216137D01*
X124970637Y-51016259D01*
X125126000Y-50783741D01*
X125281363Y-51016259D01*
X125481241Y-51216137D01*
X125716273Y-51373180D01*
X125977426Y-51481353D01*
X126254665Y-51536500D01*
X126537335Y-51536500D01*
X126814574Y-51481353D01*
X127075727Y-51373180D01*
X127310759Y-51216137D01*
X127510637Y-51016259D01*
X127667680Y-50781227D01*
X127672067Y-50770635D01*
X127783615Y-50956631D01*
X127972586Y-51165019D01*
X128198580Y-51332537D01*
X128452913Y-51452746D01*
X128586961Y-51493404D01*
X128809000Y-51371415D01*
X128809000Y-50228500D01*
X129063000Y-50228500D01*
X129063000Y-51371415D01*
X129285039Y-51493404D01*
X129419087Y-51452746D01*
X129673420Y-51332537D01*
X129899414Y-51165019D01*
X130088385Y-50956631D01*
X130233070Y-50715381D01*
X130327909Y-50450540D01*
X130206624Y-50228500D01*
X129063000Y-50228500D01*
X128809000Y-50228500D01*
X128789000Y-50228500D01*
X128789000Y-49974500D01*
X128809000Y-49974500D01*
X128809000Y-48831585D01*
X129063000Y-48831585D01*
X129063000Y-49974500D01*
X130206624Y-49974500D01*
X130327909Y-49752460D01*
X130233070Y-49487619D01*
X130088385Y-49246369D01*
X129899414Y-49037981D01*
X129673420Y-48870463D01*
X129419087Y-48750254D01*
X129285039Y-48709596D01*
X129063000Y-48831585D01*
X128809000Y-48831585D01*
X128586961Y-48709596D01*
X128452913Y-48750254D01*
X128198580Y-48870463D01*
X127972586Y-49037981D01*
X127783615Y-49246369D01*
X127672067Y-49432365D01*
X127667680Y-49421773D01*
X127510637Y-49186741D01*
X127310759Y-48986863D01*
X127075727Y-48829820D01*
X126814574Y-48721647D01*
X126537335Y-48666500D01*
X126254665Y-48666500D01*
X125977426Y-48721647D01*
X125716273Y-48829820D01*
X125481241Y-48986863D01*
X125281363Y-49186741D01*
X125126000Y-49419259D01*
X124970637Y-49186741D01*
X124770759Y-48986863D01*
X124535727Y-48829820D01*
X124274574Y-48721647D01*
X123997335Y-48666500D01*
X123714665Y-48666500D01*
X123437426Y-48721647D01*
X123176273Y-48829820D01*
X122941241Y-48986863D01*
X122741363Y-49186741D01*
X122586000Y-49419259D01*
X122430637Y-49186741D01*
X122230759Y-48986863D01*
X121995727Y-48829820D01*
X121734574Y-48721647D01*
X121457335Y-48666500D01*
X121174665Y-48666500D01*
X120897426Y-48721647D01*
X120636273Y-48829820D01*
X120401241Y-48986863D01*
X120201363Y-49186741D01*
X120046000Y-49419259D01*
X119890637Y-49186741D01*
X119690759Y-48986863D01*
X119455727Y-48829820D01*
X119194574Y-48721647D01*
X118917335Y-48666500D01*
X118634665Y-48666500D01*
X118357426Y-48721647D01*
X118096273Y-48829820D01*
X117861241Y-48986863D01*
X117661363Y-49186741D01*
X117506000Y-49419259D01*
X117350637Y-49186741D01*
X117150759Y-48986863D01*
X116915727Y-48829820D01*
X116654574Y-48721647D01*
X116377335Y-48666500D01*
X116094665Y-48666500D01*
X115817426Y-48721647D01*
X115556273Y-48829820D01*
X115321241Y-48986863D01*
X115121363Y-49186741D01*
X114966000Y-49419259D01*
X114810637Y-49186741D01*
X114610759Y-48986863D01*
X114375727Y-48829820D01*
X114114574Y-48721647D01*
X113837335Y-48666500D01*
X113554665Y-48666500D01*
X113277426Y-48721647D01*
X113016273Y-48829820D01*
X112781241Y-48986863D01*
X112581363Y-49186741D01*
X112426000Y-49419259D01*
X112270637Y-49186741D01*
X112070759Y-48986863D01*
X111835727Y-48829820D01*
X111574574Y-48721647D01*
X111297335Y-48666500D01*
X111014665Y-48666500D01*
X110737426Y-48721647D01*
X110476273Y-48829820D01*
X110241241Y-48986863D01*
X110041363Y-49186741D01*
X109884320Y-49421773D01*
X109776147Y-49682926D01*
X109721000Y-49960165D01*
X105517000Y-49960165D01*
X105517000Y-49847500D01*
X105537000Y-49847500D01*
X105537000Y-48704585D01*
X105791000Y-48704585D01*
X105791000Y-49847500D01*
X106934624Y-49847500D01*
X107055909Y-49625460D01*
X106961070Y-49360619D01*
X106816385Y-49119369D01*
X106627414Y-48910981D01*
X106401420Y-48743463D01*
X106147087Y-48623254D01*
X106013039Y-48582596D01*
X105791000Y-48704585D01*
X105537000Y-48704585D01*
X105314961Y-48582596D01*
X105180913Y-48623254D01*
X104926580Y-48743463D01*
X104700586Y-48910981D01*
X104511615Y-49119369D01*
X104400067Y-49305365D01*
X104395680Y-49294773D01*
X104238637Y-49059741D01*
X104038759Y-48859863D01*
X103803727Y-48702820D01*
X103542574Y-48594647D01*
X103265335Y-48539500D01*
X102982665Y-48539500D01*
X102705426Y-48594647D01*
X102444273Y-48702820D01*
X102209241Y-48859863D01*
X102009363Y-49059741D01*
X101854000Y-49292259D01*
X101698637Y-49059741D01*
X101498759Y-48859863D01*
X101263727Y-48702820D01*
X101002574Y-48594647D01*
X100725335Y-48539500D01*
X100442665Y-48539500D01*
X100165426Y-48594647D01*
X99904273Y-48702820D01*
X99669241Y-48859863D01*
X99469363Y-49059741D01*
X99314000Y-49292259D01*
X99158637Y-49059741D01*
X98958759Y-48859863D01*
X98723727Y-48702820D01*
X98462574Y-48594647D01*
X98185335Y-48539500D01*
X97902665Y-48539500D01*
X97625426Y-48594647D01*
X97364273Y-48702820D01*
X97129241Y-48859863D01*
X96929363Y-49059741D01*
X96774000Y-49292259D01*
X96618637Y-49059741D01*
X96418759Y-48859863D01*
X96183727Y-48702820D01*
X95922574Y-48594647D01*
X95645335Y-48539500D01*
X95362665Y-48539500D01*
X95085426Y-48594647D01*
X94824273Y-48702820D01*
X94589241Y-48859863D01*
X94389363Y-49059741D01*
X94234000Y-49292259D01*
X94078637Y-49059741D01*
X93878759Y-48859863D01*
X93643727Y-48702820D01*
X93382574Y-48594647D01*
X93105335Y-48539500D01*
X92822665Y-48539500D01*
X92545426Y-48594647D01*
X92284273Y-48702820D01*
X92049241Y-48859863D01*
X91849363Y-49059741D01*
X91694000Y-49292259D01*
X91538637Y-49059741D01*
X91338759Y-48859863D01*
X91103727Y-48702820D01*
X90842574Y-48594647D01*
X90565335Y-48539500D01*
X90282665Y-48539500D01*
X90005426Y-48594647D01*
X89744273Y-48702820D01*
X89509241Y-48859863D01*
X89309363Y-49059741D01*
X89154000Y-49292259D01*
X88998637Y-49059741D01*
X88798759Y-48859863D01*
X88563727Y-48702820D01*
X88302574Y-48594647D01*
X88025335Y-48539500D01*
X87742665Y-48539500D01*
X87465426Y-48594647D01*
X87204273Y-48702820D01*
X86969241Y-48859863D01*
X86769363Y-49059741D01*
X86612320Y-49294773D01*
X86504147Y-49555926D01*
X86449000Y-49833165D01*
X82675478Y-49833165D01*
X82671932Y-49815342D01*
X82559990Y-49545089D01*
X82397475Y-49301868D01*
X82190632Y-49095025D01*
X82016240Y-48978500D01*
X82190632Y-48861975D01*
X82397475Y-48655132D01*
X82559990Y-48411911D01*
X82671932Y-48141658D01*
X82729000Y-47854760D01*
X82729000Y-47698500D01*
X138533428Y-47698500D01*
X138533428Y-50298500D01*
X138545688Y-50422982D01*
X138581998Y-50542680D01*
X138640963Y-50652994D01*
X138720315Y-50749685D01*
X138817006Y-50829037D01*
X138927320Y-50888002D01*
X139047018Y-50924312D01*
X139171500Y-50936572D01*
X141771500Y-50936572D01*
X141895982Y-50924312D01*
X142015680Y-50888002D01*
X142125994Y-50829037D01*
X142222685Y-50749685D01*
X142302037Y-50652994D01*
X142361002Y-50542680D01*
X142397312Y-50422982D01*
X142409572Y-50298500D01*
X142409572Y-47698500D01*
X142397312Y-47574018D01*
X142361002Y-47454320D01*
X142302037Y-47344006D01*
X142222685Y-47247315D01*
X142125994Y-47167963D01*
X142015680Y-47108998D01*
X141895982Y-47072688D01*
X141771500Y-47060428D01*
X139171500Y-47060428D01*
X139047018Y-47072688D01*
X138927320Y-47108998D01*
X138817006Y-47167963D01*
X138720315Y-47247315D01*
X138640963Y-47344006D01*
X138581998Y-47454320D01*
X138545688Y-47574018D01*
X138533428Y-47698500D01*
X82729000Y-47698500D01*
X82729000Y-47562240D01*
X82671932Y-47275342D01*
X82559990Y-47005089D01*
X82397475Y-46761868D01*
X82190632Y-46555025D01*
X82016240Y-46438500D01*
X82190632Y-46321975D01*
X82397475Y-46115132D01*
X82559990Y-45871911D01*
X82671932Y-45601658D01*
X82722443Y-45347724D01*
X139301881Y-45347724D01*
X139433817Y-45642812D01*
X139774545Y-45813659D01*
X140142057Y-45914750D01*
X140522229Y-45942201D01*
X140900451Y-45894957D01*
X141262190Y-45774833D01*
X141509183Y-45642812D01*
X141641119Y-45347724D01*
X140471500Y-44178105D01*
X139301881Y-45347724D01*
X82722443Y-45347724D01*
X82729000Y-45314760D01*
X82729000Y-45022240D01*
X82671932Y-44735342D01*
X82559990Y-44465089D01*
X82397475Y-44221868D01*
X82224836Y-44049229D01*
X138527799Y-44049229D01*
X138575043Y-44427451D01*
X138695167Y-44789190D01*
X138827188Y-45036183D01*
X139122276Y-45168119D01*
X140291895Y-43998500D01*
X140651105Y-43998500D01*
X141820724Y-45168119D01*
X142115812Y-45036183D01*
X142286659Y-44695455D01*
X142387750Y-44327943D01*
X142415201Y-43947771D01*
X142367957Y-43569549D01*
X142247833Y-43207810D01*
X142115812Y-42960817D01*
X141820724Y-42828881D01*
X140651105Y-43998500D01*
X140291895Y-43998500D01*
X139122276Y-42828881D01*
X138827188Y-42960817D01*
X138656341Y-43301545D01*
X138555250Y-43669057D01*
X138527799Y-44049229D01*
X82224836Y-44049229D01*
X82190632Y-44015025D01*
X81947411Y-43852510D01*
X81677158Y-43740568D01*
X81390260Y-43683500D01*
X81097740Y-43683500D01*
X80810842Y-43740568D01*
X80540589Y-43852510D01*
X80297368Y-44015025D01*
X80090525Y-44221868D01*
X79928010Y-44465089D01*
X79816068Y-44735342D01*
X79759000Y-45022240D01*
X79759000Y-45314760D01*
X79816068Y-45601658D01*
X79928010Y-45871911D01*
X80090525Y-46115132D01*
X80297368Y-46321975D01*
X80471760Y-46438500D01*
X80297368Y-46555025D01*
X80090525Y-46761868D01*
X79928010Y-47005089D01*
X79816068Y-47275342D01*
X79759000Y-47562240D01*
X79759000Y-47854760D01*
X79816068Y-48141658D01*
X79928010Y-48411911D01*
X80090525Y-48655132D01*
X80297368Y-48861975D01*
X80471760Y-48978500D01*
X80297368Y-49095025D01*
X80090525Y-49301868D01*
X79928010Y-49545089D01*
X79816068Y-49815342D01*
X79759000Y-50102240D01*
X79759000Y-50394760D01*
X79816068Y-50681658D01*
X79928010Y-50951911D01*
X80090525Y-51195132D01*
X80297368Y-51401975D01*
X80471760Y-51518500D01*
X80297368Y-51635025D01*
X80090525Y-51841868D01*
X79928010Y-52085089D01*
X79816068Y-52355342D01*
X79759000Y-52642240D01*
X79759000Y-52934760D01*
X79816068Y-53221658D01*
X79928010Y-53491911D01*
X80090525Y-53735132D01*
X80297368Y-53941975D01*
X80471760Y-54058500D01*
X80297368Y-54175025D01*
X80090525Y-54381868D01*
X79928010Y-54625089D01*
X79816068Y-54895342D01*
X79759000Y-55182240D01*
X79759000Y-55474760D01*
X79816068Y-55761658D01*
X79928010Y-56031911D01*
X80090525Y-56275132D01*
X80297368Y-56481975D01*
X80471760Y-56598500D01*
X80297368Y-56715025D01*
X80090525Y-56921868D01*
X79928010Y-57165089D01*
X79816068Y-57435342D01*
X79759000Y-57722240D01*
X79759000Y-58014760D01*
X79816068Y-58301658D01*
X79928010Y-58571911D01*
X80090525Y-58815132D01*
X80297368Y-59021975D01*
X80471760Y-59138500D01*
X80297368Y-59255025D01*
X80090525Y-59461868D01*
X79928010Y-59705089D01*
X79816068Y-59975342D01*
X79759000Y-60262240D01*
X79759000Y-60554760D01*
X79816068Y-60841658D01*
X79928010Y-61111911D01*
X80090525Y-61355132D01*
X80222380Y-61486987D01*
X80149820Y-61508998D01*
X80039506Y-61567963D01*
X79942815Y-61647315D01*
X79863463Y-61744006D01*
X79804498Y-61854320D01*
X79768188Y-61974018D01*
X79755928Y-62098500D01*
X77451500Y-62098500D01*
X77451500Y-42213165D01*
X86449000Y-42213165D01*
X86449000Y-42495835D01*
X86504147Y-42773074D01*
X86612320Y-43034227D01*
X86769363Y-43269259D01*
X86969241Y-43469137D01*
X87204273Y-43626180D01*
X87465426Y-43734353D01*
X87742665Y-43789500D01*
X88025335Y-43789500D01*
X88302574Y-43734353D01*
X88563727Y-43626180D01*
X88798759Y-43469137D01*
X88998637Y-43269259D01*
X89155680Y-43034227D01*
X89160067Y-43023635D01*
X89271615Y-43209631D01*
X89460586Y-43418019D01*
X89686580Y-43585537D01*
X89940913Y-43705746D01*
X90074961Y-43746404D01*
X90297000Y-43624415D01*
X90297000Y-42481500D01*
X90277000Y-42481500D01*
X90277000Y-42227500D01*
X90297000Y-42227500D01*
X90297000Y-41084585D01*
X90551000Y-41084585D01*
X90551000Y-42227500D01*
X90571000Y-42227500D01*
X90571000Y-42481500D01*
X90551000Y-42481500D01*
X90551000Y-43624415D01*
X90773039Y-43746404D01*
X90907087Y-43705746D01*
X91161420Y-43585537D01*
X91387414Y-43418019D01*
X91576385Y-43209631D01*
X91687933Y-43023635D01*
X91692320Y-43034227D01*
X91849363Y-43269259D01*
X92049241Y-43469137D01*
X92284273Y-43626180D01*
X92545426Y-43734353D01*
X92822665Y-43789500D01*
X93105335Y-43789500D01*
X93382574Y-43734353D01*
X93643727Y-43626180D01*
X93878759Y-43469137D01*
X94078637Y-43269259D01*
X94234000Y-43036741D01*
X94389363Y-43269259D01*
X94589241Y-43469137D01*
X94824273Y-43626180D01*
X95085426Y-43734353D01*
X95362665Y-43789500D01*
X95645335Y-43789500D01*
X95922574Y-43734353D01*
X96183727Y-43626180D01*
X96418759Y-43469137D01*
X96618637Y-43269259D01*
X96774000Y-43036741D01*
X96929363Y-43269259D01*
X97129241Y-43469137D01*
X97364273Y-43626180D01*
X97625426Y-43734353D01*
X97902665Y-43789500D01*
X98185335Y-43789500D01*
X98462574Y-43734353D01*
X98723727Y-43626180D01*
X98958759Y-43469137D01*
X99158637Y-43269259D01*
X99314000Y-43036741D01*
X99469363Y-43269259D01*
X99669241Y-43469137D01*
X99904273Y-43626180D01*
X100165426Y-43734353D01*
X100442665Y-43789500D01*
X100725335Y-43789500D01*
X101002574Y-43734353D01*
X101263727Y-43626180D01*
X101498759Y-43469137D01*
X101698637Y-43269259D01*
X101854000Y-43036741D01*
X102009363Y-43269259D01*
X102209241Y-43469137D01*
X102444273Y-43626180D01*
X102705426Y-43734353D01*
X102982665Y-43789500D01*
X103265335Y-43789500D01*
X103542574Y-43734353D01*
X103803727Y-43626180D01*
X104038759Y-43469137D01*
X104237357Y-43270539D01*
X104238188Y-43278982D01*
X104274498Y-43398680D01*
X104333463Y-43508994D01*
X104412815Y-43605685D01*
X104509506Y-43685037D01*
X104619820Y-43744002D01*
X104739518Y-43780312D01*
X104864000Y-43792572D01*
X106464000Y-43792572D01*
X106588482Y-43780312D01*
X106708180Y-43744002D01*
X106818494Y-43685037D01*
X106915185Y-43605685D01*
X106994537Y-43508994D01*
X107053502Y-43398680D01*
X107089812Y-43278982D01*
X107102072Y-43154500D01*
X107102072Y-42340165D01*
X109721000Y-42340165D01*
X109721000Y-42622835D01*
X109776147Y-42900074D01*
X109884320Y-43161227D01*
X110041363Y-43396259D01*
X110241241Y-43596137D01*
X110476273Y-43753180D01*
X110737426Y-43861353D01*
X111014665Y-43916500D01*
X111297335Y-43916500D01*
X111574574Y-43861353D01*
X111835727Y-43753180D01*
X112070759Y-43596137D01*
X112270637Y-43396259D01*
X112426000Y-43163741D01*
X112581363Y-43396259D01*
X112781241Y-43596137D01*
X113016273Y-43753180D01*
X113277426Y-43861353D01*
X113554665Y-43916500D01*
X113837335Y-43916500D01*
X114114574Y-43861353D01*
X114375727Y-43753180D01*
X114610759Y-43596137D01*
X114810637Y-43396259D01*
X114966000Y-43163741D01*
X115121363Y-43396259D01*
X115321241Y-43596137D01*
X115556273Y-43753180D01*
X115817426Y-43861353D01*
X116094665Y-43916500D01*
X116377335Y-43916500D01*
X116654574Y-43861353D01*
X116915727Y-43753180D01*
X117150759Y-43596137D01*
X117350637Y-43396259D01*
X117506000Y-43163741D01*
X117661363Y-43396259D01*
X117861241Y-43596137D01*
X118096273Y-43753180D01*
X118357426Y-43861353D01*
X118634665Y-43916500D01*
X118917335Y-43916500D01*
X119194574Y-43861353D01*
X119455727Y-43753180D01*
X119690759Y-43596137D01*
X119890637Y-43396259D01*
X120046000Y-43163741D01*
X120201363Y-43396259D01*
X120401241Y-43596137D01*
X120636273Y-43753180D01*
X120897426Y-43861353D01*
X121174665Y-43916500D01*
X121457335Y-43916500D01*
X121734574Y-43861353D01*
X121995727Y-43753180D01*
X122230759Y-43596137D01*
X122430637Y-43396259D01*
X122586000Y-43163741D01*
X122741363Y-43396259D01*
X122941241Y-43596137D01*
X123176273Y-43753180D01*
X123437426Y-43861353D01*
X123714665Y-43916500D01*
X123997335Y-43916500D01*
X124274574Y-43861353D01*
X124535727Y-43753180D01*
X124770759Y-43596137D01*
X124970637Y-43396259D01*
X125126000Y-43163741D01*
X125281363Y-43396259D01*
X125481241Y-43596137D01*
X125716273Y-43753180D01*
X125977426Y-43861353D01*
X126254665Y-43916500D01*
X126537335Y-43916500D01*
X126814574Y-43861353D01*
X127075727Y-43753180D01*
X127310759Y-43596137D01*
X127509357Y-43397539D01*
X127510188Y-43405982D01*
X127546498Y-43525680D01*
X127605463Y-43635994D01*
X127684815Y-43732685D01*
X127781506Y-43812037D01*
X127891820Y-43871002D01*
X128011518Y-43907312D01*
X128136000Y-43919572D01*
X129736000Y-43919572D01*
X129860482Y-43907312D01*
X129980180Y-43871002D01*
X130090494Y-43812037D01*
X130187185Y-43732685D01*
X130266537Y-43635994D01*
X130325502Y-43525680D01*
X130361812Y-43405982D01*
X130374072Y-43281500D01*
X130374072Y-42649276D01*
X139301881Y-42649276D01*
X140471500Y-43818895D01*
X141641119Y-42649276D01*
X141509183Y-42354188D01*
X141168455Y-42183341D01*
X140800943Y-42082250D01*
X140420771Y-42054799D01*
X140042549Y-42102043D01*
X139680810Y-42222167D01*
X139433817Y-42354188D01*
X139301881Y-42649276D01*
X130374072Y-42649276D01*
X130374072Y-41681500D01*
X130361812Y-41557018D01*
X130325502Y-41437320D01*
X130266537Y-41327006D01*
X130187185Y-41230315D01*
X130090494Y-41150963D01*
X129980180Y-41091998D01*
X129860482Y-41055688D01*
X129736000Y-41043428D01*
X128136000Y-41043428D01*
X128011518Y-41055688D01*
X127891820Y-41091998D01*
X127781506Y-41150963D01*
X127684815Y-41230315D01*
X127605463Y-41327006D01*
X127546498Y-41437320D01*
X127510188Y-41557018D01*
X127509357Y-41565461D01*
X127310759Y-41366863D01*
X127075727Y-41209820D01*
X126814574Y-41101647D01*
X126537335Y-41046500D01*
X126254665Y-41046500D01*
X125977426Y-41101647D01*
X125716273Y-41209820D01*
X125481241Y-41366863D01*
X125281363Y-41566741D01*
X125126000Y-41799259D01*
X124970637Y-41566741D01*
X124770759Y-41366863D01*
X124535727Y-41209820D01*
X124274574Y-41101647D01*
X123997335Y-41046500D01*
X123714665Y-41046500D01*
X123437426Y-41101647D01*
X123176273Y-41209820D01*
X122941241Y-41366863D01*
X122741363Y-41566741D01*
X122586000Y-41799259D01*
X122430637Y-41566741D01*
X122230759Y-41366863D01*
X121995727Y-41209820D01*
X121734574Y-41101647D01*
X121457335Y-41046500D01*
X121174665Y-41046500D01*
X120897426Y-41101647D01*
X120636273Y-41209820D01*
X120401241Y-41366863D01*
X120201363Y-41566741D01*
X120046000Y-41799259D01*
X119890637Y-41566741D01*
X119690759Y-41366863D01*
X119455727Y-41209820D01*
X119194574Y-41101647D01*
X118917335Y-41046500D01*
X118634665Y-41046500D01*
X118357426Y-41101647D01*
X118096273Y-41209820D01*
X117861241Y-41366863D01*
X117661363Y-41566741D01*
X117506000Y-41799259D01*
X117350637Y-41566741D01*
X117150759Y-41366863D01*
X116915727Y-41209820D01*
X116654574Y-41101647D01*
X116377335Y-41046500D01*
X116094665Y-41046500D01*
X115817426Y-41101647D01*
X115556273Y-41209820D01*
X115321241Y-41366863D01*
X115121363Y-41566741D01*
X114966000Y-41799259D01*
X114810637Y-41566741D01*
X114610759Y-41366863D01*
X114375727Y-41209820D01*
X114114574Y-41101647D01*
X113837335Y-41046500D01*
X113554665Y-41046500D01*
X113277426Y-41101647D01*
X113016273Y-41209820D01*
X112781241Y-41366863D01*
X112581363Y-41566741D01*
X112426000Y-41799259D01*
X112270637Y-41566741D01*
X112070759Y-41366863D01*
X111835727Y-41209820D01*
X111574574Y-41101647D01*
X111297335Y-41046500D01*
X111014665Y-41046500D01*
X110737426Y-41101647D01*
X110476273Y-41209820D01*
X110241241Y-41366863D01*
X110041363Y-41566741D01*
X109884320Y-41801773D01*
X109776147Y-42062926D01*
X109721000Y-42340165D01*
X107102072Y-42340165D01*
X107102072Y-41554500D01*
X107089812Y-41430018D01*
X107053502Y-41310320D01*
X106994537Y-41200006D01*
X106915185Y-41103315D01*
X106818494Y-41023963D01*
X106708180Y-40964998D01*
X106588482Y-40928688D01*
X106464000Y-40916428D01*
X104864000Y-40916428D01*
X104739518Y-40928688D01*
X104619820Y-40964998D01*
X104509506Y-41023963D01*
X104412815Y-41103315D01*
X104333463Y-41200006D01*
X104274498Y-41310320D01*
X104238188Y-41430018D01*
X104237357Y-41438461D01*
X104038759Y-41239863D01*
X103803727Y-41082820D01*
X103542574Y-40974647D01*
X103265335Y-40919500D01*
X102982665Y-40919500D01*
X102705426Y-40974647D01*
X102444273Y-41082820D01*
X102209241Y-41239863D01*
X102009363Y-41439741D01*
X101854000Y-41672259D01*
X101698637Y-41439741D01*
X101498759Y-41239863D01*
X101263727Y-41082820D01*
X101002574Y-40974647D01*
X100725335Y-40919500D01*
X100442665Y-40919500D01*
X100165426Y-40974647D01*
X99904273Y-41082820D01*
X99669241Y-41239863D01*
X99469363Y-41439741D01*
X99314000Y-41672259D01*
X99158637Y-41439741D01*
X98958759Y-41239863D01*
X98723727Y-41082820D01*
X98462574Y-40974647D01*
X98185335Y-40919500D01*
X97902665Y-40919500D01*
X97625426Y-40974647D01*
X97364273Y-41082820D01*
X97129241Y-41239863D01*
X96929363Y-41439741D01*
X96774000Y-41672259D01*
X96618637Y-41439741D01*
X96418759Y-41239863D01*
X96183727Y-41082820D01*
X95922574Y-40974647D01*
X95645335Y-40919500D01*
X95362665Y-40919500D01*
X95085426Y-40974647D01*
X94824273Y-41082820D01*
X94589241Y-41239863D01*
X94389363Y-41439741D01*
X94234000Y-41672259D01*
X94078637Y-41439741D01*
X93878759Y-41239863D01*
X93643727Y-41082820D01*
X93382574Y-40974647D01*
X93105335Y-40919500D01*
X92822665Y-40919500D01*
X92545426Y-40974647D01*
X92284273Y-41082820D01*
X92049241Y-41239863D01*
X91849363Y-41439741D01*
X91692320Y-41674773D01*
X91687933Y-41685365D01*
X91576385Y-41499369D01*
X91387414Y-41290981D01*
X91161420Y-41123463D01*
X90907087Y-41003254D01*
X90773039Y-40962596D01*
X90551000Y-41084585D01*
X90297000Y-41084585D01*
X90074961Y-40962596D01*
X89940913Y-41003254D01*
X89686580Y-41123463D01*
X89460586Y-41290981D01*
X89271615Y-41499369D01*
X89160067Y-41685365D01*
X89155680Y-41674773D01*
X88998637Y-41439741D01*
X88798759Y-41239863D01*
X88563727Y-41082820D01*
X88302574Y-40974647D01*
X88025335Y-40919500D01*
X87742665Y-40919500D01*
X87465426Y-40974647D01*
X87204273Y-41082820D01*
X86969241Y-41239863D01*
X86769363Y-41439741D01*
X86612320Y-41674773D01*
X86504147Y-41935926D01*
X86449000Y-42213165D01*
X77451500Y-42213165D01*
X77451500Y-36949166D01*
X77874323Y-37371989D01*
X78469682Y-37769795D01*
X79131210Y-38043809D01*
X79833484Y-38183500D01*
X80549516Y-38183500D01*
X81251790Y-38043809D01*
X81913318Y-37769795D01*
X82508677Y-37371989D01*
X83014989Y-36865677D01*
X83152591Y-36659740D01*
X84110500Y-36659740D01*
X84110500Y-36952260D01*
X84167568Y-37239158D01*
X84279510Y-37509411D01*
X84442025Y-37752632D01*
X84648868Y-37959475D01*
X84892089Y-38121990D01*
X85162342Y-38233932D01*
X85449240Y-38291000D01*
X85741760Y-38291000D01*
X86028658Y-38233932D01*
X86298911Y-38121990D01*
X86542132Y-37959475D01*
X86748975Y-37752632D01*
X86865500Y-37578240D01*
X86982025Y-37752632D01*
X87188868Y-37959475D01*
X87432089Y-38121990D01*
X87702342Y-38233932D01*
X87989240Y-38291000D01*
X88281760Y-38291000D01*
X88568658Y-38233932D01*
X88838911Y-38121990D01*
X89082132Y-37959475D01*
X89288975Y-37752632D01*
X89405500Y-37578240D01*
X89522025Y-37752632D01*
X89728868Y-37959475D01*
X89972089Y-38121990D01*
X90242342Y-38233932D01*
X90529240Y-38291000D01*
X90821760Y-38291000D01*
X91108658Y-38233932D01*
X91378911Y-38121990D01*
X91622132Y-37959475D01*
X91828975Y-37752632D01*
X91945500Y-37578240D01*
X92062025Y-37752632D01*
X92268868Y-37959475D01*
X92512089Y-38121990D01*
X92782342Y-38233932D01*
X93069240Y-38291000D01*
X93361760Y-38291000D01*
X93648658Y-38233932D01*
X93918911Y-38121990D01*
X94162132Y-37959475D01*
X94368975Y-37752632D01*
X94485500Y-37578240D01*
X94602025Y-37752632D01*
X94808868Y-37959475D01*
X95052089Y-38121990D01*
X95322342Y-38233932D01*
X95609240Y-38291000D01*
X95901760Y-38291000D01*
X96188658Y-38233932D01*
X96458911Y-38121990D01*
X96702132Y-37959475D01*
X96833987Y-37827620D01*
X96855998Y-37900180D01*
X96914963Y-38010494D01*
X96994315Y-38107185D01*
X97091006Y-38186537D01*
X97201320Y-38245502D01*
X97321018Y-38281812D01*
X97445500Y-38294072D01*
X99145500Y-38294072D01*
X99269982Y-38281812D01*
X99389680Y-38245502D01*
X99499994Y-38186537D01*
X99596685Y-38107185D01*
X99676037Y-38010494D01*
X99735002Y-37900180D01*
X99771312Y-37780482D01*
X99783572Y-37656000D01*
X99783572Y-36659740D01*
X101636500Y-36659740D01*
X101636500Y-36952260D01*
X101693568Y-37239158D01*
X101805510Y-37509411D01*
X101968025Y-37752632D01*
X102174868Y-37959475D01*
X102418089Y-38121990D01*
X102688342Y-38233932D01*
X102975240Y-38291000D01*
X103267760Y-38291000D01*
X103554658Y-38233932D01*
X103824911Y-38121990D01*
X104068132Y-37959475D01*
X104274975Y-37752632D01*
X104391500Y-37578240D01*
X104508025Y-37752632D01*
X104714868Y-37959475D01*
X104958089Y-38121990D01*
X105228342Y-38233932D01*
X105515240Y-38291000D01*
X105807760Y-38291000D01*
X106094658Y-38233932D01*
X106364911Y-38121990D01*
X106608132Y-37959475D01*
X106814975Y-37752632D01*
X106931500Y-37578240D01*
X107048025Y-37752632D01*
X107254868Y-37959475D01*
X107498089Y-38121990D01*
X107768342Y-38233932D01*
X108055240Y-38291000D01*
X108347760Y-38291000D01*
X108634658Y-38233932D01*
X108904911Y-38121990D01*
X109148132Y-37959475D01*
X109354975Y-37752632D01*
X109471500Y-37578240D01*
X109588025Y-37752632D01*
X109794868Y-37959475D01*
X110038089Y-38121990D01*
X110308342Y-38233932D01*
X110595240Y-38291000D01*
X110887760Y-38291000D01*
X111174658Y-38233932D01*
X111444911Y-38121990D01*
X111688132Y-37959475D01*
X111894975Y-37752632D01*
X112011500Y-37578240D01*
X112128025Y-37752632D01*
X112334868Y-37959475D01*
X112578089Y-38121990D01*
X112848342Y-38233932D01*
X113135240Y-38291000D01*
X113427760Y-38291000D01*
X113714658Y-38233932D01*
X113984911Y-38121990D01*
X114228132Y-37959475D01*
X114434975Y-37752632D01*
X114551500Y-37578240D01*
X114668025Y-37752632D01*
X114874868Y-37959475D01*
X115118089Y-38121990D01*
X115388342Y-38233932D01*
X115675240Y-38291000D01*
X115967760Y-38291000D01*
X116254658Y-38233932D01*
X116524911Y-38121990D01*
X116768132Y-37959475D01*
X116974975Y-37752632D01*
X117091500Y-37578240D01*
X117208025Y-37752632D01*
X117414868Y-37959475D01*
X117658089Y-38121990D01*
X117928342Y-38233932D01*
X118215240Y-38291000D01*
X118507760Y-38291000D01*
X118794658Y-38233932D01*
X119064911Y-38121990D01*
X119308132Y-37959475D01*
X119439987Y-37827620D01*
X119461998Y-37900180D01*
X119520963Y-38010494D01*
X119600315Y-38107185D01*
X119697006Y-38186537D01*
X119807320Y-38245502D01*
X119927018Y-38281812D01*
X120051500Y-38294072D01*
X121751500Y-38294072D01*
X121875982Y-38281812D01*
X121995680Y-38245502D01*
X122105994Y-38186537D01*
X122202685Y-38107185D01*
X122282037Y-38010494D01*
X122341002Y-37900180D01*
X122377312Y-37780482D01*
X122389572Y-37656000D01*
X122389572Y-37076391D01*
X124547519Y-37076391D01*
X124644843Y-37350752D01*
X124793822Y-37600855D01*
X124988731Y-37817088D01*
X125222080Y-37991141D01*
X125484901Y-38116325D01*
X125632110Y-38160976D01*
X125862000Y-38039655D01*
X125862000Y-36846500D01*
X124668186Y-36846500D01*
X124547519Y-37076391D01*
X122389572Y-37076391D01*
X122389572Y-36362609D01*
X124547519Y-36362609D01*
X124668186Y-36592500D01*
X125862000Y-36592500D01*
X125862000Y-35399345D01*
X126116000Y-35399345D01*
X126116000Y-36592500D01*
X126136000Y-36592500D01*
X126136000Y-36846500D01*
X126116000Y-36846500D01*
X126116000Y-38039655D01*
X126345890Y-38160976D01*
X126493099Y-38116325D01*
X126755920Y-37991141D01*
X126989269Y-37817088D01*
X127065034Y-37733034D01*
X127089498Y-37813680D01*
X127148463Y-37923994D01*
X127227815Y-38020685D01*
X127324506Y-38100037D01*
X127434820Y-38159002D01*
X127554518Y-38195312D01*
X127679000Y-38207572D01*
X129379000Y-38207572D01*
X129503482Y-38195312D01*
X129623180Y-38159002D01*
X129733494Y-38100037D01*
X129830185Y-38020685D01*
X129909537Y-37923994D01*
X129968502Y-37813680D01*
X130004812Y-37693982D01*
X130011979Y-37621202D01*
X132918403Y-37621202D01*
X132989986Y-37865171D01*
X133245496Y-37986071D01*
X133519684Y-38054800D01*
X133802012Y-38068717D01*
X134081630Y-38027287D01*
X134347792Y-37932103D01*
X134473014Y-37865171D01*
X134544597Y-37621202D01*
X133731500Y-36808105D01*
X132918403Y-37621202D01*
X130011979Y-37621202D01*
X130017072Y-37569500D01*
X130017072Y-36699012D01*
X132291283Y-36699012D01*
X132332713Y-36978630D01*
X132427897Y-37244792D01*
X132494829Y-37370014D01*
X132738798Y-37441597D01*
X133551895Y-36628500D01*
X133911105Y-36628500D01*
X134724202Y-37441597D01*
X134968171Y-37370014D01*
X134981824Y-37341159D01*
X135116863Y-37543259D01*
X135316741Y-37743137D01*
X135551773Y-37900180D01*
X135812926Y-38008353D01*
X136090165Y-38063500D01*
X136372835Y-38063500D01*
X136650074Y-38008353D01*
X136911227Y-37900180D01*
X137146259Y-37743137D01*
X137346137Y-37543259D01*
X137503180Y-37308227D01*
X137611353Y-37047074D01*
X137666500Y-36769835D01*
X137666500Y-36487165D01*
X137611353Y-36209926D01*
X137503180Y-35948773D01*
X137346137Y-35713741D01*
X137146259Y-35513863D01*
X136911227Y-35356820D01*
X136650074Y-35248647D01*
X136372835Y-35193500D01*
X136090165Y-35193500D01*
X135812926Y-35248647D01*
X135551773Y-35356820D01*
X135316741Y-35513863D01*
X135116863Y-35713741D01*
X134982808Y-35914369D01*
X134968171Y-35886986D01*
X134724202Y-35815403D01*
X133911105Y-36628500D01*
X133551895Y-36628500D01*
X132738798Y-35815403D01*
X132494829Y-35886986D01*
X132373929Y-36142496D01*
X132305200Y-36416684D01*
X132291283Y-36699012D01*
X130017072Y-36699012D01*
X130017072Y-35869500D01*
X130004812Y-35745018D01*
X129971681Y-35635798D01*
X132918403Y-35635798D01*
X133731500Y-36448895D01*
X134544597Y-35635798D01*
X134473014Y-35391829D01*
X134217504Y-35270929D01*
X133943316Y-35202200D01*
X133660988Y-35188283D01*
X133381370Y-35229713D01*
X133115208Y-35324897D01*
X132989986Y-35391829D01*
X132918403Y-35635798D01*
X129971681Y-35635798D01*
X129968502Y-35625320D01*
X129909537Y-35515006D01*
X129830185Y-35418315D01*
X129733494Y-35338963D01*
X129623180Y-35279998D01*
X129503482Y-35243688D01*
X129379000Y-35231428D01*
X127679000Y-35231428D01*
X127554518Y-35243688D01*
X127434820Y-35279998D01*
X127324506Y-35338963D01*
X127227815Y-35418315D01*
X127148463Y-35515006D01*
X127089498Y-35625320D01*
X127065034Y-35705966D01*
X126989269Y-35621912D01*
X126755920Y-35447859D01*
X126493099Y-35322675D01*
X126345890Y-35278024D01*
X126116000Y-35399345D01*
X125862000Y-35399345D01*
X125632110Y-35278024D01*
X125484901Y-35322675D01*
X125222080Y-35447859D01*
X124988731Y-35621912D01*
X124793822Y-35838145D01*
X124644843Y-36088248D01*
X124547519Y-36362609D01*
X122389572Y-36362609D01*
X122389572Y-35956000D01*
X122377312Y-35831518D01*
X122341002Y-35711820D01*
X122282037Y-35601506D01*
X122202685Y-35504815D01*
X122105994Y-35425463D01*
X121995680Y-35366498D01*
X121875982Y-35330188D01*
X121751500Y-35317928D01*
X120051500Y-35317928D01*
X119927018Y-35330188D01*
X119807320Y-35366498D01*
X119697006Y-35425463D01*
X119600315Y-35504815D01*
X119520963Y-35601506D01*
X119461998Y-35711820D01*
X119439987Y-35784380D01*
X119308132Y-35652525D01*
X119064911Y-35490010D01*
X118794658Y-35378068D01*
X118507760Y-35321000D01*
X118215240Y-35321000D01*
X117928342Y-35378068D01*
X117658089Y-35490010D01*
X117414868Y-35652525D01*
X117208025Y-35859368D01*
X117091500Y-36033760D01*
X116974975Y-35859368D01*
X116768132Y-35652525D01*
X116524911Y-35490010D01*
X116254658Y-35378068D01*
X115967760Y-35321000D01*
X115675240Y-35321000D01*
X115388342Y-35378068D01*
X115118089Y-35490010D01*
X114874868Y-35652525D01*
X114668025Y-35859368D01*
X114551500Y-36033760D01*
X114434975Y-35859368D01*
X114228132Y-35652525D01*
X113984911Y-35490010D01*
X113714658Y-35378068D01*
X113427760Y-35321000D01*
X113135240Y-35321000D01*
X112848342Y-35378068D01*
X112578089Y-35490010D01*
X112334868Y-35652525D01*
X112128025Y-35859368D01*
X112011500Y-36033760D01*
X111894975Y-35859368D01*
X111688132Y-35652525D01*
X111444911Y-35490010D01*
X111174658Y-35378068D01*
X110887760Y-35321000D01*
X110595240Y-35321000D01*
X110308342Y-35378068D01*
X110038089Y-35490010D01*
X109794868Y-35652525D01*
X109588025Y-35859368D01*
X109471500Y-36033760D01*
X109354975Y-35859368D01*
X109148132Y-35652525D01*
X108904911Y-35490010D01*
X108634658Y-35378068D01*
X108347760Y-35321000D01*
X108055240Y-35321000D01*
X107768342Y-35378068D01*
X107498089Y-35490010D01*
X107254868Y-35652525D01*
X107048025Y-35859368D01*
X106931500Y-36033760D01*
X106814975Y-35859368D01*
X106608132Y-35652525D01*
X106364911Y-35490010D01*
X106094658Y-35378068D01*
X105807760Y-35321000D01*
X105515240Y-35321000D01*
X105228342Y-35378068D01*
X104958089Y-35490010D01*
X104714868Y-35652525D01*
X104508025Y-35859368D01*
X104391500Y-36033760D01*
X104274975Y-35859368D01*
X104068132Y-35652525D01*
X103824911Y-35490010D01*
X103554658Y-35378068D01*
X103267760Y-35321000D01*
X102975240Y-35321000D01*
X102688342Y-35378068D01*
X102418089Y-35490010D01*
X102174868Y-35652525D01*
X101968025Y-35859368D01*
X101805510Y-36102589D01*
X101693568Y-36372842D01*
X101636500Y-36659740D01*
X99783572Y-36659740D01*
X99783572Y-35956000D01*
X99771312Y-35831518D01*
X99735002Y-35711820D01*
X99676037Y-35601506D01*
X99596685Y-35504815D01*
X99499994Y-35425463D01*
X99389680Y-35366498D01*
X99269982Y-35330188D01*
X99145500Y-35317928D01*
X97445500Y-35317928D01*
X97321018Y-35330188D01*
X97201320Y-35366498D01*
X97091006Y-35425463D01*
X96994315Y-35504815D01*
X96914963Y-35601506D01*
X96855998Y-35711820D01*
X96833987Y-35784380D01*
X96702132Y-35652525D01*
X96458911Y-35490010D01*
X96188658Y-35378068D01*
X95901760Y-35321000D01*
X95609240Y-35321000D01*
X95322342Y-35378068D01*
X95052089Y-35490010D01*
X94808868Y-35652525D01*
X94602025Y-35859368D01*
X94485500Y-36033760D01*
X94368975Y-35859368D01*
X94162132Y-35652525D01*
X93918911Y-35490010D01*
X93648658Y-35378068D01*
X93361760Y-35321000D01*
X93069240Y-35321000D01*
X92782342Y-35378068D01*
X92512089Y-35490010D01*
X92268868Y-35652525D01*
X92062025Y-35859368D01*
X91945500Y-36033760D01*
X91828975Y-35859368D01*
X91622132Y-35652525D01*
X91378911Y-35490010D01*
X91108658Y-35378068D01*
X90821760Y-35321000D01*
X90529240Y-35321000D01*
X90242342Y-35378068D01*
X89972089Y-35490010D01*
X89728868Y-35652525D01*
X89522025Y-35859368D01*
X89405500Y-36033760D01*
X89288975Y-35859368D01*
X89082132Y-35652525D01*
X88838911Y-35490010D01*
X88568658Y-35378068D01*
X88281760Y-35321000D01*
X87989240Y-35321000D01*
X87702342Y-35378068D01*
X87432089Y-35490010D01*
X87188868Y-35652525D01*
X86982025Y-35859368D01*
X86865500Y-36033760D01*
X86748975Y-35859368D01*
X86542132Y-35652525D01*
X86298911Y-35490010D01*
X86028658Y-35378068D01*
X85741760Y-35321000D01*
X85449240Y-35321000D01*
X85162342Y-35378068D01*
X84892089Y-35490010D01*
X84648868Y-35652525D01*
X84442025Y-35859368D01*
X84279510Y-36102589D01*
X84167568Y-36372842D01*
X84110500Y-36659740D01*
X83152591Y-36659740D01*
X83412795Y-36270318D01*
X83686809Y-35608790D01*
X83826500Y-34906516D01*
X83826500Y-34190484D01*
X83686809Y-33488210D01*
X83412795Y-32826682D01*
X83014989Y-32231323D01*
X82602166Y-31818500D01*
X140110834Y-31818500D01*
X139638011Y-32291323D01*
G37*
%TD.AperFunction*%
%TD*%
M02*
