<?xml version="1.0" standalone="no"?>
 <!DOCTYPE svg PUBLIC "-//W3C//DTD SVG 1.1//EN" 
 "http://www.w3.org/Graphics/SVG/1.1/DTD/svg11.dtd"> 
<svg
  xmlns:svg="http://www.w3.org/2000/svg"
  xmlns="http://www.w3.org/2000/svg"
  xmlns:xlink="http://www.w3.org/1999/xlink"
  version="1.1"
  width="4.622800cm" height="4.892040cm" viewBox="0 0 18200 19260">
<title>SVG Picture created as POWER-brd.svg date 2021/05/10 15:43:34 </title>
  <desc>Picture generated by PCBNEW </desc>
<g style="fill:#000000; fill-opacity:1;stroke:#000000; stroke-opacity:1;
stroke-linecap:round; stroke-linejoin:round;"
 transform="translate(0 0) scale(1 1)">
</g>
<g style="fill:#000000; fill-opacity:0.0; 
stroke:#000000; stroke-width:-0.000393701; stroke-opacity:1; 
stroke-linecap:round; stroke-linejoin:round;">
<g >
</g>
<g >
</g>
<g >
</g>
<g >
</g>
<g >
</g>
<g >
</g>
<g >
</g>
<g >
</g>
<g >
</g>
<g >
</g>
<g >
</g>
<g >
</g>
<g >
</g>
<g >
</g>
<g >
</g>
<g >
</g>
<g >
</g>
</g>
<g style="fill:#000000; fill-opacity:0.0; 
stroke:#000000; stroke-width:-0.000393701; stroke-opacity:1; 
stroke-linecap:round; stroke-linejoin:round;">
<g >
</g>
<g >
</g>
<g >
</g>
<g >
</g>
<g >
</g>
<g >
</g>
<g >
</g>
<g >
</g>
<g >
</g>
<g >
</g>
<g >
</g>
<g >
</g>
<g >
</g>
<g >
</g>
<g >
</g>
<g >
</g>
<g >
</g>
</g>
<g style="fill:#000000; fill-opacity:0.0; 
stroke:#000000; stroke-width:-0.000393701; stroke-opacity:1; 
stroke-linecap:round; stroke-linejoin:round;">
<g >
</g>
<g >
</g>
<g >
</g>
<g >
</g>
<g >
</g>
<g >
</g>
<g >
</g>
<g >
</g>
<g >
</g>
<g >
</g>
<g >
</g>
<g >
</g>
<g >
</g>
<g >
</g>
<g >
</g>
<g >
</g>
<g >
</g>
<g >
</g>
<g >
</g>
</g>
<g style="fill:#000000; fill-opacity:0.0; 
stroke:#000000; stroke-width:-0.000393701; stroke-opacity:1; 
stroke-linecap:round; stroke-linejoin:round;">
<g >
</g>
</g>
<g style="fill:#000000; fill-opacity:0.0; 
stroke:#000000; stroke-width:-0.000393701; stroke-opacity:1; 
stroke-linecap:round; stroke-linejoin:round;">
<g >
</g>
<g >
</g>
<g >
</g>
<g >
</g>
<g >
</g>
<g >
</g>
<g >
</g>
<g >
</g>
<g >
</g>
<g >
</g>
<g >
</g>
<g >
</g>
<g >
</g>
<g >
</g>
<g >
</g>
<g >
</g>
<g >
</g>
<g >
</g>
<g >
</g>
</g>
<g style="fill:#000000; fill-opacity:0.0; 
stroke:#000000; stroke-width:-0.000393701; stroke-opacity:1; 
stroke-linecap:round; stroke-linejoin:round;">
<g >
</g>
<g style="fill:#848400; fill-opacity:0.0; 
stroke:#848400; stroke-width:-0.000393701; stroke-opacity:1; 
stroke-linecap:round; stroke-linejoin:round;">
</g>
<g style="fill:#848400; fill-opacity:0.0; 
stroke:#848400; stroke-width:0; stroke-opacity:1; 
stroke-linecap:round; stroke-linejoin:round;">
</g>
<g style="fill:#848400; fill-opacity:1.0; 
stroke:#848400; stroke-width:0; stroke-opacity:1; 
stroke-linecap:round; stroke-linejoin:round;">
<path style="fill:#848400; fill-opacity:1.0; 
stroke:#848400; stroke-width:0; stroke-opacity:1; 
stroke-linecap:round; stroke-linejoin:round;fill-rule:evenodd;"
d="M 10398.9,4857.76
10432.3,4862.72
10465.1,4870.94
10496.9,4882.32
10527.5,4896.78
10556.5,4914.16
10583.6,4934.3
10608.7,4957
10631.4,4982.05
10651.5,5009.2
10668.9,5038.2
10683.4,5068.76
10694.8,5100.59
10703,5133.38
10707.9,5166.82
10709.6,5200.59
10709.6,5889.57
10707.9,5923.33
10703,5956.77
10694.8,5989.57
10683.4,6021.4
10668.9,6051.96
10651.5,6080.95
10631.4,6108.11
10608.7,6133.16
10583.6,6155.86
10556.5,6176
10527.5,6193.38
10496.9,6207.83
10465.1,6219.22
10432.3,6227.44
10398.9,6232.4
10365.1,6234.06
9676.13,6234.06
9642.36,6232.4
9608.92,6227.44
9576.13,6219.22
9544.3,6207.83
9513.74,6193.38
9484.74,6176
9457.59,6155.86
9432.54,6133.16
9409.84,6108.11
9389.7,6080.95
9372.32,6051.96
9357.86,6021.4
9346.48,5989.57
9338.26,5956.77
9333.3,5923.33
9331.64,5889.57
9331.64,5200.59
9333.3,5166.82
9338.26,5133.38
9346.48,5100.59
9357.86,5068.76
9372.32,5038.2
9389.7,5009.2
9409.84,4982.05
9432.54,4957
9457.59,4934.3
9484.74,4914.16
9513.74,4896.78
9544.3,4882.32
9576.13,4870.94
9608.92,4862.72
9642.36,4857.76
9676.13,4856.1
10365.1,4856.1
Z" /> 
<path style="fill:#848400; fill-opacity:1.0; 
stroke:#848400; stroke-width:0; stroke-opacity:1; 
stroke-linecap:round; stroke-linejoin:round;fill-rule:evenodd;"
d="M 12293.7,3774.85
12322.3,3779.1
12350.4,3786.14
12377.7,3795.9
12403.9,3808.29
12428.8,3823.19
12452,3840.45
12473.5,3859.91
12493,3881.38
12510.2,3904.65
12525.1,3929.51
12537.5,3955.7
12547.3,3982.99
12554.3,4011.1
12558.6,4039.76
12560,4068.7
12560,4659.25
12558.6,4688.19
12554.3,4716.86
12547.3,4744.97
12537.5,4772.25
12525.1,4798.44
12510.2,4823.3
12493,4846.57
12473.5,4868.04
12452,4887.5
12428.8,4904.76
12403.9,4919.66
12377.7,4932.05
12350.4,4941.81
12322.3,4948.85
12293.7,4953.11
12264.7,4954.53
11477.3,4954.53
11448.4,4953.11
11419.7,4948.85
11391.6,4941.81
11364.3,4932.05
11338.1,4919.66
11313.3,4904.76
11290,4887.5
11268.5,4868.04
11249.1,4846.57
11231.8,4823.3
11216.9,4798.44
11204.5,4772.25
11194.8,4744.97
11187.7,4716.86
11183.5,4688.19
11182,4659.25
11182,4068.7
11183.5,4039.76
11187.7,4011.1
11194.8,3982.99
11204.5,3955.7
11216.9,3929.51
11231.8,3904.65
11249.1,3881.38
11268.5,3859.91
11290,3840.45
11313.3,3823.19
11338.1,3808.29
11364.3,3795.9
11391.6,3786.14
11419.7,3779.1
11448.4,3774.85
11477.3,3773.43
12264.7,3773.43
Z" /> 
<path style="fill:#848400; fill-opacity:1.0; 
stroke:#848400; stroke-width:0; stroke-opacity:1; 
stroke-linecap:round; stroke-linejoin:round;fill-rule:evenodd;"
d="M 11182,6037.2
12560,6037.2
12560,7415.16
11182,7415.16
Z" /> 
</g>
<g >
</g>
<g style="fill:#848400; fill-opacity:1.0; 
stroke:#848400; stroke-width:0; stroke-opacity:1; 
stroke-linecap:round; stroke-linejoin:round;">
<circle cx="15009" cy="1744.18" r="492.126" /> 
</g>
<g style="fill:#848400; fill-opacity:1.0; 
stroke:#848400; stroke-width:39.3701; stroke-opacity:1; 
stroke-linecap:round; stroke-linejoin:round;">
</g>
<g >
</g>
<g style="fill:#848400; fill-opacity:1.0; 
stroke:#848400; stroke-width:39.3701; stroke-opacity:1; 
stroke-linecap:round; stroke-linejoin:round;">
</g>
<g style="fill:#848400; fill-opacity:1.0; 
stroke:#848400; stroke-width:0; stroke-opacity:1; 
stroke-linecap:round; stroke-linejoin:round;">
<circle cx="3153.01" cy="1676.18" r="492.126" /> 
</g>
<g style="fill:#848400; fill-opacity:1.0; 
stroke:#848400; stroke-width:39.3701; stroke-opacity:1; 
stroke-linecap:round; stroke-linejoin:round;">
</g>
<g >
</g>
<g style="fill:#848400; fill-opacity:1.0; 
stroke:#848400; stroke-width:39.3701; stroke-opacity:1; 
stroke-linecap:round; stroke-linejoin:round;">
</g>
<g style="fill:#848400; fill-opacity:1.0; 
stroke:#848400; stroke-width:0; stroke-opacity:1; 
stroke-linecap:round; stroke-linejoin:round;">
<circle cx="15053" cy="16424.2" r="492.126" /> 
</g>
<g style="fill:#848400; fill-opacity:1.0; 
stroke:#848400; stroke-width:39.3701; stroke-opacity:1; 
stroke-linecap:round; stroke-linejoin:round;">
</g>
<g >
</g>
<g style="fill:#848400; fill-opacity:1.0; 
stroke:#848400; stroke-width:39.3701; stroke-opacity:1; 
stroke-linecap:round; stroke-linejoin:round;">
</g>
<g style="fill:#848400; fill-opacity:1.0; 
stroke:#848400; stroke-width:0; stroke-opacity:1; 
stroke-linecap:round; stroke-linejoin:round;">
<circle cx="3151.01" cy="16434.2" r="492.126" /> 
</g>
<g style="fill:#848400; fill-opacity:1.0; 
stroke:#848400; stroke-width:39.3701; stroke-opacity:1; 
stroke-linecap:round; stroke-linejoin:round;">
</g>
<g >
</g>
<g style="fill:#848400; fill-opacity:1.0; 
stroke:#848400; stroke-width:39.3701; stroke-opacity:1; 
stroke-linecap:round; stroke-linejoin:round;">
</g>
<g style="fill:#848400; fill-opacity:1.0; 
stroke:#848400; stroke-width:0; stroke-opacity:1; 
stroke-linecap:round; stroke-linejoin:round;">
<circle cx="11691.5" cy="15068.2" r="511.811" /> 
</g>
<g style="fill:#848400; fill-opacity:1.0; 
stroke:#848400; stroke-width:39.3701; stroke-opacity:1; 
stroke-linecap:round; stroke-linejoin:round;">
</g>
<g style="fill:#848400; fill-opacity:1.0; 
stroke:#848400; stroke-width:0; stroke-opacity:1; 
stroke-linecap:round; stroke-linejoin:round;">
<path style="fill:#848400; fill-opacity:1.0; 
stroke:#848400; stroke-width:0; stroke-opacity:1; 
stroke-linecap:round; stroke-linejoin:round;fill-rule:evenodd;"
d="M 9211.2,15580
9211.2,14556.4
10234.8,14556.4
10234.8,15580
Z" /> 
</g>
<g >
</g>
<g style="fill:#848400; fill-opacity:1.0; 
stroke:#848400; stroke-width:0; stroke-opacity:1; 
stroke-linecap:round; stroke-linejoin:round;">
<circle cx="6578.01" cy="13641.2" r="334.646" /> 
<path style="fill:#848400; fill-opacity:1.0; 
stroke:#848400; stroke-width:0; stroke-opacity:1; 
stroke-linecap:round; stroke-linejoin:round;fill-rule:evenodd;"
d="M 7243.37,13306.5
7912.66,13306.5
7912.66,13975.8
7243.37,13975.8
Z" /> 
</g>
<g >
</g>
<g style="fill:#848400; fill-opacity:1.0; 
stroke:#848400; stroke-width:0; stroke-opacity:1; 
stroke-linecap:round; stroke-linejoin:round;">
<circle cx="6578.01" cy="15101.2" r="334.646" /> 
<path style="fill:#848400; fill-opacity:1.0; 
stroke:#848400; stroke-width:0; stroke-opacity:1; 
stroke-linecap:round; stroke-linejoin:round;fill-rule:evenodd;"
d="M 7243.37,14766.5
7912.66,14766.5
7912.66,15435.8
7243.37,15435.8
Z" /> 
</g>
<g >
</g>
<g style="fill:#848400; fill-opacity:1.0; 
stroke:#848400; stroke-width:0; stroke-opacity:1; 
stroke-linecap:round; stroke-linejoin:round;">
<circle cx="14228" cy="11530.2" r="314.961" /> 
<path style="fill:#848400; fill-opacity:1.0; 
stroke:#848400; stroke-width:0; stroke-opacity:1; 
stroke-linecap:round; stroke-linejoin:round;fill-rule:evenodd;"
d="M 13913.1,8215.22
14543,8215.22
14543,8845.14
13913.1,8845.14
Z" /> 
</g>
<g >
</g>
<g style="fill:#848400; fill-opacity:1.0; 
stroke:#848400; stroke-width:0; stroke-opacity:1; 
stroke-linecap:round; stroke-linejoin:round;">
<circle cx="11943" cy="8390.18" r="314.961" /> 
<circle cx="11943" cy="12390.2" r="314.961" /> 
</g>
<g style="fill:#848400; fill-opacity:1.0; 
stroke:#848400; stroke-width:39.3701; stroke-opacity:1; 
stroke-linecap:round; stroke-linejoin:round;">
</g>
<g >
</g>
<g style="fill:#848400; fill-opacity:1.0; 
stroke:#848400; stroke-width:39.3701; stroke-opacity:1; 
stroke-linecap:round; stroke-linejoin:round;">
</g>
<g style="fill:#848400; fill-opacity:1.0; 
stroke:#848400; stroke-width:0; stroke-opacity:1; 
stroke-linecap:round; stroke-linejoin:round;">
<circle cx="14318" cy="13180.2" r="354.331" /> 
</g>
<g style="fill:#848400; fill-opacity:1.0; 
stroke:#848400; stroke-width:39.3701; stroke-opacity:1; 
stroke-linecap:round; stroke-linejoin:round;">
</g>
<g style="fill:#848400; fill-opacity:1.0; 
stroke:#848400; stroke-width:0; stroke-opacity:1; 
stroke-linecap:round; stroke-linejoin:round;">
<path style="fill:#848400; fill-opacity:1.0; 
stroke:#848400; stroke-width:0; stroke-opacity:1; 
stroke-linecap:round; stroke-linejoin:round;fill-rule:evenodd;"
d="M 14672.3,14534.5
13963.7,14534.5
13963.7,13825.9
14672.3,13825.9
Z" /> 
</g>
<g >
</g>
<g style="fill:#848400; fill-opacity:1.0; 
stroke:#848400; stroke-width:0; stroke-opacity:1; 
stroke-linecap:round; stroke-linejoin:round;">
<circle cx="3462.01" cy="4111.18" r="295.276" /> 
<path style="fill:#848400; fill-opacity:1.0; 
stroke:#848400; stroke-width:0; stroke-opacity:1; 
stroke-linecap:round; stroke-linejoin:round;fill-rule:evenodd;"
d="M 3757.29,7406.46
3166.74,7406.46
3166.74,6815.91
3757.29,6815.91
Z" /> 
</g>
<g >
</g>
<g style="fill:#848400; fill-opacity:1.0; 
stroke:#848400; stroke-width:0; stroke-opacity:1; 
stroke-linecap:round; stroke-linejoin:round;">
<circle cx="5545.51" cy="3184.18" r="511.811" /> 
</g>
<g style="fill:#848400; fill-opacity:1.0; 
stroke:#848400; stroke-width:39.3701; stroke-opacity:1; 
stroke-linecap:round; stroke-linejoin:round;">
</g>
<g style="fill:#848400; fill-opacity:1.0; 
stroke:#848400; stroke-width:0; stroke-opacity:1; 
stroke-linecap:round; stroke-linejoin:round;">
<path style="fill:#848400; fill-opacity:1.0; 
stroke:#848400; stroke-width:0; stroke-opacity:1; 
stroke-linecap:round; stroke-linejoin:round;fill-rule:evenodd;"
d="M 8025.82,2672.37
8025.82,3695.99
7002.2,3695.99
7002.2,2672.37
Z" /> 
</g>
<g >
</g>
<g style="fill:#848400; fill-opacity:1.0; 
stroke:#848400; stroke-width:0; stroke-opacity:1; 
stroke-linecap:round; stroke-linejoin:round;">
</g>
<g style="fill:#848400; fill-opacity:1.0; 
stroke:#848400; stroke-width:750; stroke-opacity:1; 
stroke-linecap:round; stroke-linejoin:round;">
</g>
<g style="fill:#848400; fill-opacity:0.0; 
stroke:#848400; stroke-width:750; stroke-opacity:1; 
stroke-linecap:round; stroke-linejoin:round;">
<path d="M9315 10613
L9315 10650
" />
<path d="M8315 10613
L8315 10650
" />
</g>
<g style="fill:#848400; fill-opacity:0.0; 
stroke:#848400; stroke-width:0; stroke-opacity:1; 
stroke-linecap:round; stroke-linejoin:round;">
</g>
<g style="fill:#848400; fill-opacity:1.0; 
stroke:#848400; stroke-width:0; stroke-opacity:1; 
stroke-linecap:round; stroke-linejoin:round;">
<path style="fill:#848400; fill-opacity:1.0; 
stroke:#848400; stroke-width:0; stroke-opacity:1; 
stroke-linecap:round; stroke-linejoin:round;fill-rule:evenodd;"
d="M 6940.01,11025.9
6940.01,10238.5
7690.01,10238.5
7690.01,11025.9
Z" /> 
</g>
<g >
</g>
<g style="fill:#848400; fill-opacity:1.0; 
stroke:#848400; stroke-width:0; stroke-opacity:1; 
stroke-linecap:round; stroke-linejoin:round;">
<circle cx="3646.76" cy="12172.2" r="314.961" /> 
</g>
<g style="fill:#848400; fill-opacity:1.0; 
stroke:#848400; stroke-width:39.3701; stroke-opacity:1; 
stroke-linecap:round; stroke-linejoin:round;">
</g>
<g style="fill:#848400; fill-opacity:1.0; 
stroke:#848400; stroke-width:0; stroke-opacity:1; 
stroke-linecap:round; stroke-linejoin:round;">
<path style="fill:#848400; fill-opacity:1.0; 
stroke:#848400; stroke-width:0; stroke-opacity:1; 
stroke-linecap:round; stroke-linejoin:round;fill-rule:evenodd;"
d="M 4945.97,11857.2
4945.97,12487.1
4316.05,12487.1
4316.05,11857.2
Z" /> 
</g>
<g >
</g>
<g style="fill:#848400; fill-opacity:1.0; 
stroke:#848400; stroke-width:0; stroke-opacity:1; 
stroke-linecap:round; stroke-linejoin:round;">
<circle cx="3684.76" cy="9358.18" r="314.961" /> 
</g>
<g style="fill:#848400; fill-opacity:1.0; 
stroke:#848400; stroke-width:39.3701; stroke-opacity:1; 
stroke-linecap:round; stroke-linejoin:round;">
</g>
<g style="fill:#848400; fill-opacity:1.0; 
stroke:#848400; stroke-width:0; stroke-opacity:1; 
stroke-linecap:round; stroke-linejoin:round;">
<path style="fill:#848400; fill-opacity:1.0; 
stroke:#848400; stroke-width:0; stroke-opacity:1; 
stroke-linecap:round; stroke-linejoin:round;fill-rule:evenodd;"
d="M 4983.97,9043.22
4983.97,9673.14
4354.05,9673.14
4354.05,9043.22
Z" /> 
</g>
<g >
</g>
<g >
</g>
<g >
</g>
</g>
<g style="fill:#000000; fill-opacity:1.0; 
stroke:#000000; stroke-width:0; stroke-opacity:1; 
stroke-linecap:round; stroke-linejoin:round;">
<g >
</g>
<g style="fill:#848400; fill-opacity:1.0; 
stroke:#848400; stroke-width:0; stroke-opacity:1; 
stroke-linecap:round; stroke-linejoin:round;">
<path style="fill:#848400; fill-opacity:1.0; 
stroke:#848400; stroke-width:0; stroke-opacity:1; 
stroke-linecap:round; stroke-linejoin:round;fill-rule:evenodd;"
d="M 10398.9,4857.76
10432.3,4862.72
10465.1,4870.94
10496.9,4882.32
10527.5,4896.78
10556.5,4914.16
10583.6,4934.3
10608.7,4957
10631.4,4982.05
10651.5,5009.2
10668.9,5038.2
10683.4,5068.76
10694.8,5100.59
10703,5133.38
10707.9,5166.82
10709.6,5200.59
10709.6,5889.57
10707.9,5923.33
10703,5956.77
10694.8,5989.57
10683.4,6021.4
10668.9,6051.96
10651.5,6080.95
10631.4,6108.11
10608.7,6133.16
10583.6,6155.86
10556.5,6176
10527.5,6193.38
10496.9,6207.83
10465.1,6219.22
10432.3,6227.44
10398.9,6232.4
10365.1,6234.06
9676.13,6234.06
9642.36,6232.4
9608.92,6227.44
9576.13,6219.22
9544.3,6207.83
9513.74,6193.38
9484.74,6176
9457.59,6155.86
9432.54,6133.16
9409.84,6108.11
9389.7,6080.95
9372.32,6051.96
9357.86,6021.4
9346.48,5989.57
9338.26,5956.77
9333.3,5923.33
9331.64,5889.57
9331.64,5200.59
9333.3,5166.82
9338.26,5133.38
9346.48,5100.59
9357.86,5068.76
9372.32,5038.2
9389.7,5009.2
9409.84,4982.05
9432.54,4957
9457.59,4934.3
9484.74,4914.16
9513.74,4896.78
9544.3,4882.32
9576.13,4870.94
9608.92,4862.72
9642.36,4857.76
9676.13,4856.1
10365.1,4856.1
Z" /> 
<path style="fill:#848400; fill-opacity:1.0; 
stroke:#848400; stroke-width:0; stroke-opacity:1; 
stroke-linecap:round; stroke-linejoin:round;fill-rule:evenodd;"
d="M 12293.7,3774.85
12322.3,3779.1
12350.4,3786.14
12377.7,3795.9
12403.9,3808.29
12428.8,3823.19
12452,3840.45
12473.5,3859.91
12493,3881.38
12510.2,3904.65
12525.1,3929.51
12537.5,3955.7
12547.3,3982.99
12554.3,4011.1
12558.6,4039.76
12560,4068.7
12560,4659.25
12558.6,4688.19
12554.3,4716.86
12547.3,4744.97
12537.5,4772.25
12525.1,4798.44
12510.2,4823.3
12493,4846.57
12473.5,4868.04
12452,4887.5
12428.8,4904.76
12403.9,4919.66
12377.7,4932.05
12350.4,4941.81
12322.3,4948.85
12293.7,4953.11
12264.7,4954.53
11477.3,4954.53
11448.4,4953.11
11419.7,4948.85
11391.6,4941.81
11364.3,4932.05
11338.1,4919.66
11313.3,4904.76
11290,4887.5
11268.5,4868.04
11249.1,4846.57
11231.8,4823.3
11216.9,4798.44
11204.5,4772.25
11194.8,4744.97
11187.7,4716.86
11183.5,4688.19
11182,4659.25
11182,4068.7
11183.5,4039.76
11187.7,4011.1
11194.8,3982.99
11204.5,3955.7
11216.9,3929.51
11231.8,3904.65
11249.1,3881.38
11268.5,3859.91
11290,3840.45
11313.3,3823.19
11338.1,3808.29
11364.3,3795.9
11391.6,3786.14
11419.7,3779.1
11448.4,3774.85
11477.3,3773.43
12264.7,3773.43
Z" /> 
<path style="fill:#848400; fill-opacity:1.0; 
stroke:#848400; stroke-width:0; stroke-opacity:1; 
stroke-linecap:round; stroke-linejoin:round;fill-rule:evenodd;"
d="M 11182,6037.2
12560,6037.2
12560,7415.16
11182,7415.16
Z" /> 
</g>
<g >
</g>
<g >
</g>
<g >
</g>
<g >
</g>
<g >
</g>
<g style="fill:#848400; fill-opacity:1.0; 
stroke:#848400; stroke-width:0; stroke-opacity:1; 
stroke-linecap:round; stroke-linejoin:round;">
<circle cx="11691.5" cy="15068.2" r="511.811" /> 
</g>
<g style="fill:#848400; fill-opacity:1.0; 
stroke:#848400; stroke-width:39.3701; stroke-opacity:1; 
stroke-linecap:round; stroke-linejoin:round;">
</g>
<g style="fill:#848400; fill-opacity:1.0; 
stroke:#848400; stroke-width:0; stroke-opacity:1; 
stroke-linecap:round; stroke-linejoin:round;">
<path style="fill:#848400; fill-opacity:1.0; 
stroke:#848400; stroke-width:0; stroke-opacity:1; 
stroke-linecap:round; stroke-linejoin:round;fill-rule:evenodd;"
d="M 9211.2,15580
9211.2,14556.4
10234.8,14556.4
10234.8,15580
Z" /> 
</g>
<g >
</g>
<g style="fill:#848400; fill-opacity:1.0; 
stroke:#848400; stroke-width:0; stroke-opacity:1; 
stroke-linecap:round; stroke-linejoin:round;">
<circle cx="6578.01" cy="13641.2" r="334.646" /> 
<path style="fill:#848400; fill-opacity:1.0; 
stroke:#848400; stroke-width:0; stroke-opacity:1; 
stroke-linecap:round; stroke-linejoin:round;fill-rule:evenodd;"
d="M 7243.37,13306.5
7912.66,13306.5
7912.66,13975.8
7243.37,13975.8
Z" /> 
</g>
<g >
</g>
<g style="fill:#848400; fill-opacity:1.0; 
stroke:#848400; stroke-width:0; stroke-opacity:1; 
stroke-linecap:round; stroke-linejoin:round;">
<circle cx="6578.01" cy="15101.2" r="334.646" /> 
<path style="fill:#848400; fill-opacity:1.0; 
stroke:#848400; stroke-width:0; stroke-opacity:1; 
stroke-linecap:round; stroke-linejoin:round;fill-rule:evenodd;"
d="M 7243.37,14766.5
7912.66,14766.5
7912.66,15435.8
7243.37,15435.8
Z" /> 
</g>
<g >
</g>
<g style="fill:#848400; fill-opacity:1.0; 
stroke:#848400; stroke-width:0; stroke-opacity:1; 
stroke-linecap:round; stroke-linejoin:round;">
<circle cx="14228" cy="11530.2" r="314.961" /> 
<path style="fill:#848400; fill-opacity:1.0; 
stroke:#848400; stroke-width:0; stroke-opacity:1; 
stroke-linecap:round; stroke-linejoin:round;fill-rule:evenodd;"
d="M 13913.1,8215.22
14543,8215.22
14543,8845.14
13913.1,8845.14
Z" /> 
</g>
<g >
</g>
<g style="fill:#848400; fill-opacity:1.0; 
stroke:#848400; stroke-width:0; stroke-opacity:1; 
stroke-linecap:round; stroke-linejoin:round;">
<circle cx="11943" cy="8390.18" r="314.961" /> 
<circle cx="11943" cy="12390.2" r="314.961" /> 
</g>
<g style="fill:#848400; fill-opacity:1.0; 
stroke:#848400; stroke-width:39.3701; stroke-opacity:1; 
stroke-linecap:round; stroke-linejoin:round;">
</g>
<g >
</g>
<g style="fill:#848400; fill-opacity:1.0; 
stroke:#848400; stroke-width:39.3701; stroke-opacity:1; 
stroke-linecap:round; stroke-linejoin:round;">
</g>
<g style="fill:#848400; fill-opacity:1.0; 
stroke:#848400; stroke-width:0; stroke-opacity:1; 
stroke-linecap:round; stroke-linejoin:round;">
<circle cx="14318" cy="13180.2" r="354.331" /> 
</g>
<g style="fill:#848400; fill-opacity:1.0; 
stroke:#848400; stroke-width:39.3701; stroke-opacity:1; 
stroke-linecap:round; stroke-linejoin:round;">
</g>
<g style="fill:#848400; fill-opacity:1.0; 
stroke:#848400; stroke-width:0; stroke-opacity:1; 
stroke-linecap:round; stroke-linejoin:round;">
<path style="fill:#848400; fill-opacity:1.0; 
stroke:#848400; stroke-width:0; stroke-opacity:1; 
stroke-linecap:round; stroke-linejoin:round;fill-rule:evenodd;"
d="M 14672.3,14534.5
13963.7,14534.5
13963.7,13825.9
14672.3,13825.9
Z" /> 
</g>
<g >
</g>
<g style="fill:#848400; fill-opacity:1.0; 
stroke:#848400; stroke-width:0; stroke-opacity:1; 
stroke-linecap:round; stroke-linejoin:round;">
<circle cx="3462.01" cy="4111.18" r="295.276" /> 
<path style="fill:#848400; fill-opacity:1.0; 
stroke:#848400; stroke-width:0; stroke-opacity:1; 
stroke-linecap:round; stroke-linejoin:round;fill-rule:evenodd;"
d="M 3757.29,7406.46
3166.74,7406.46
3166.74,6815.91
3757.29,6815.91
Z" /> 
</g>
<g >
</g>
<g style="fill:#848400; fill-opacity:1.0; 
stroke:#848400; stroke-width:0; stroke-opacity:1; 
stroke-linecap:round; stroke-linejoin:round;">
<circle cx="5545.51" cy="3184.18" r="511.811" /> 
</g>
<g style="fill:#848400; fill-opacity:1.0; 
stroke:#848400; stroke-width:39.3701; stroke-opacity:1; 
stroke-linecap:round; stroke-linejoin:round;">
</g>
<g style="fill:#848400; fill-opacity:1.0; 
stroke:#848400; stroke-width:0; stroke-opacity:1; 
stroke-linecap:round; stroke-linejoin:round;">
<path style="fill:#848400; fill-opacity:1.0; 
stroke:#848400; stroke-width:0; stroke-opacity:1; 
stroke-linecap:round; stroke-linejoin:round;fill-rule:evenodd;"
d="M 8025.82,2672.37
8025.82,3695.99
7002.2,3695.99
7002.2,2672.37
Z" /> 
</g>
<g >
</g>
<g style="fill:#848400; fill-opacity:1.0; 
stroke:#848400; stroke-width:0; stroke-opacity:1; 
stroke-linecap:round; stroke-linejoin:round;">
</g>
<g style="fill:#848400; fill-opacity:1.0; 
stroke:#848400; stroke-width:750; stroke-opacity:1; 
stroke-linecap:round; stroke-linejoin:round;">
</g>
<g style="fill:#848400; fill-opacity:0.0; 
stroke:#848400; stroke-width:750; stroke-opacity:1; 
stroke-linecap:round; stroke-linejoin:round;">
<path d="M9315 10613
L9315 10650
" />
<path d="M8315 10613
L8315 10650
" />
</g>
<g style="fill:#848400; fill-opacity:0.0; 
stroke:#848400; stroke-width:0; stroke-opacity:1; 
stroke-linecap:round; stroke-linejoin:round;">
</g>
<g style="fill:#848400; fill-opacity:1.0; 
stroke:#848400; stroke-width:0; stroke-opacity:1; 
stroke-linecap:round; stroke-linejoin:round;">
<path style="fill:#848400; fill-opacity:1.0; 
stroke:#848400; stroke-width:0; stroke-opacity:1; 
stroke-linecap:round; stroke-linejoin:round;fill-rule:evenodd;"
d="M 6940.01,11025.9
6940.01,10238.5
7690.01,10238.5
7690.01,11025.9
Z" /> 
</g>
<g >
</g>
<g style="fill:#848400; fill-opacity:1.0; 
stroke:#848400; stroke-width:0; stroke-opacity:1; 
stroke-linecap:round; stroke-linejoin:round;">
<circle cx="3646.76" cy="12172.2" r="314.961" /> 
</g>
<g style="fill:#848400; fill-opacity:1.0; 
stroke:#848400; stroke-width:39.3701; stroke-opacity:1; 
stroke-linecap:round; stroke-linejoin:round;">
</g>
<g style="fill:#848400; fill-opacity:1.0; 
stroke:#848400; stroke-width:0; stroke-opacity:1; 
stroke-linecap:round; stroke-linejoin:round;">
<path style="fill:#848400; fill-opacity:1.0; 
stroke:#848400; stroke-width:0; stroke-opacity:1; 
stroke-linecap:round; stroke-linejoin:round;fill-rule:evenodd;"
d="M 4945.97,11857.2
4945.97,12487.1
4316.05,12487.1
4316.05,11857.2
Z" /> 
</g>
<g >
</g>
<g style="fill:#848400; fill-opacity:1.0; 
stroke:#848400; stroke-width:0; stroke-opacity:1; 
stroke-linecap:round; stroke-linejoin:round;">
<circle cx="3684.76" cy="9358.18" r="314.961" /> 
</g>
<g style="fill:#848400; fill-opacity:1.0; 
stroke:#848400; stroke-width:39.3701; stroke-opacity:1; 
stroke-linecap:round; stroke-linejoin:round;">
</g>
<g style="fill:#848400; fill-opacity:1.0; 
stroke:#848400; stroke-width:0; stroke-opacity:1; 
stroke-linecap:round; stroke-linejoin:round;">
<path style="fill:#848400; fill-opacity:1.0; 
stroke:#848400; stroke-width:0; stroke-opacity:1; 
stroke-linecap:round; stroke-linejoin:round;fill-rule:evenodd;"
d="M 4983.97,9043.22
4983.97,9673.14
4354.05,9673.14
4354.05,9043.22
Z" /> 
</g>
<g >
</g>
<g >
</g>
<g style="fill:#840000; fill-opacity:1.0; 
stroke:#840000; stroke-width:0; stroke-opacity:1; 
stroke-linecap:round; stroke-linejoin:round;">
</g>
<g style="fill:#840000; fill-opacity:1.0; 
stroke:#840000; stroke-width:787.402; stroke-opacity:1; 
stroke-linecap:round; stroke-linejoin:round;">
</g>
<g style="fill:#840000; fill-opacity:0.0; 
stroke:#840000; stroke-width:787.402; stroke-opacity:1; 
stroke-linecap:round; stroke-linejoin:round;">
<path d="M4669 8318
L4669 9358
" />
<path d="M3462 7111
L4669 8318
" />
<path d="M5943 10632
L4669 9358
" />
<path d="M7315 10632
L5943 10632
" />
<path d="M14228 13090
L14318 13180
" />
<path d="M14228 11530
L14228 13090
" />
<path d="M7611 15068
L7578 15101
" />
<path d="M9723 15068
L7611 15068
" />
<path d="M7578 13641
L7578 15101
" />
<path d="M14228 11530
L14221 11524
" />
<path d="M9723 13385
L9723 15068
" />
<path d="M11584 11524
L9723 13385
" />
<path d="M14221 11524
L11584 11524
" />
<path d="M4389 3184
L3462 4111
" />
<path d="M5545 3184
L4389 3184
" />
<path d="M5545 3184
L5545 4920
" />
<path d="M7351 6726
L11871 6726
" />
<path d="M5545 4920
L7351 6726
" />
<path d="M14318 14180
L13733 14180
" />
<path d="M13733 14180
L11943 12390
" />
<path d="M9315 11813
L9315 10632
" />
<path d="M8956 12172
L9315 11813
" />
<path d="M4631 12172
L8956 12172
" />
<path d="M14228 8530
L13851 8530
" />
<path d="M11749 10632
L9315 10632
" />
<path d="M13851 8530
L11749 10632
" />
</g>
<g >
</g>
</g>
<g style="fill:#FFFFFF; fill-opacity:0.0; 
stroke:#FFFFFF; stroke-width:787.402; stroke-opacity:1; 
stroke-linecap:round; stroke-linejoin:round;">
</g>
<g style="fill:#FFFFFF; fill-opacity:0.0; 
stroke:#FFFFFF; stroke-width:393.701; stroke-opacity:1; 
stroke-linecap:round; stroke-linejoin:round;">
<path d="M10020 5151
L10020 5938
" />
<path d="M12264 4363
L11477 4363
" />
<path d="M12264 6726
L11477 6726
" />
</g>
<g style="fill:#FFFFFF; fill-opacity:1.0; 
stroke:#FFFFFF; stroke-width:0; stroke-opacity:1; 
stroke-linecap:round; stroke-linejoin:round;">
<circle cx="15009" cy="1744.18" r="492.126" /> 
</g>
<g style="fill:#FFFFFF; fill-opacity:1.0; 
stroke:#FFFFFF; stroke-width:39.3701; stroke-opacity:1; 
stroke-linecap:round; stroke-linejoin:round;">
</g>
<g style="fill:#FFFFFF; fill-opacity:1.0; 
stroke:#FFFFFF; stroke-width:0; stroke-opacity:1; 
stroke-linecap:round; stroke-linejoin:round;">
<circle cx="3153.01" cy="1676.18" r="492.126" /> 
</g>
<g style="fill:#FFFFFF; fill-opacity:1.0; 
stroke:#FFFFFF; stroke-width:39.3701; stroke-opacity:1; 
stroke-linecap:round; stroke-linejoin:round;">
</g>
<g style="fill:#FFFFFF; fill-opacity:1.0; 
stroke:#FFFFFF; stroke-width:0; stroke-opacity:1; 
stroke-linecap:round; stroke-linejoin:round;">
<circle cx="15053" cy="16424.2" r="492.126" /> 
</g>
<g style="fill:#FFFFFF; fill-opacity:1.0; 
stroke:#FFFFFF; stroke-width:39.3701; stroke-opacity:1; 
stroke-linecap:round; stroke-linejoin:round;">
</g>
<g style="fill:#FFFFFF; fill-opacity:1.0; 
stroke:#FFFFFF; stroke-width:0; stroke-opacity:1; 
stroke-linecap:round; stroke-linejoin:round;">
<circle cx="3151.01" cy="16434.2" r="492.126" /> 
</g>
<g style="fill:#FFFFFF; fill-opacity:1.0; 
stroke:#FFFFFF; stroke-width:39.3701; stroke-opacity:1; 
stroke-linecap:round; stroke-linejoin:round;">
</g>
<g style="fill:#FFFFFF; fill-opacity:1.0; 
stroke:#FFFFFF; stroke-width:0; stroke-opacity:1; 
stroke-linecap:round; stroke-linejoin:round;">
<circle cx="11691.5" cy="15068.2" r="255.906" /> 
</g>
<g style="fill:#FFFFFF; fill-opacity:1.0; 
stroke:#FFFFFF; stroke-width:39.3701; stroke-opacity:1; 
stroke-linecap:round; stroke-linejoin:round;">
</g>
<g style="fill:#FFFFFF; fill-opacity:1.0; 
stroke:#FFFFFF; stroke-width:0; stroke-opacity:1; 
stroke-linecap:round; stroke-linejoin:round;">
<circle cx="9723.01" cy="15068.2" r="255.906" /> 
</g>
<g style="fill:#FFFFFF; fill-opacity:1.0; 
stroke:#FFFFFF; stroke-width:39.3701; stroke-opacity:1; 
stroke-linecap:round; stroke-linejoin:round;">
</g>
<g style="fill:#FFFFFF; fill-opacity:1.0; 
stroke:#FFFFFF; stroke-width:0; stroke-opacity:1; 
stroke-linecap:round; stroke-linejoin:round;">
<circle cx="6578.01" cy="13641.2" r="196.85" /> 
</g>
<g style="fill:#FFFFFF; fill-opacity:1.0; 
stroke:#FFFFFF; stroke-width:39.3701; stroke-opacity:1; 
stroke-linecap:round; stroke-linejoin:round;">
</g>
<g style="fill:#FFFFFF; fill-opacity:1.0; 
stroke:#FFFFFF; stroke-width:0; stroke-opacity:1; 
stroke-linecap:round; stroke-linejoin:round;">
<circle cx="7578.01" cy="13641.2" r="196.85" /> 
</g>
<g style="fill:#FFFFFF; fill-opacity:1.0; 
stroke:#FFFFFF; stroke-width:39.3701; stroke-opacity:1; 
stroke-linecap:round; stroke-linejoin:round;">
</g>
<g style="fill:#FFFFFF; fill-opacity:1.0; 
stroke:#FFFFFF; stroke-width:0; stroke-opacity:1; 
stroke-linecap:round; stroke-linejoin:round;">
<circle cx="6578.01" cy="15101.2" r="196.85" /> 
</g>
<g style="fill:#FFFFFF; fill-opacity:1.0; 
stroke:#FFFFFF; stroke-width:39.3701; stroke-opacity:1; 
stroke-linecap:round; stroke-linejoin:round;">
</g>
<g style="fill:#FFFFFF; fill-opacity:1.0; 
stroke:#FFFFFF; stroke-width:0; stroke-opacity:1; 
stroke-linecap:round; stroke-linejoin:round;">
<circle cx="7578.01" cy="15101.2" r="196.85" /> 
</g>
<g style="fill:#FFFFFF; fill-opacity:1.0; 
stroke:#FFFFFF; stroke-width:39.3701; stroke-opacity:1; 
stroke-linecap:round; stroke-linejoin:round;">
</g>
<g style="fill:#FFFFFF; fill-opacity:1.0; 
stroke:#FFFFFF; stroke-width:0; stroke-opacity:1; 
stroke-linecap:round; stroke-linejoin:round;">
<circle cx="14228" cy="11530.2" r="157.48" /> 
</g>
<g style="fill:#FFFFFF; fill-opacity:1.0; 
stroke:#FFFFFF; stroke-width:39.3701; stroke-opacity:1; 
stroke-linecap:round; stroke-linejoin:round;">
</g>
<g style="fill:#FFFFFF; fill-opacity:1.0; 
stroke:#FFFFFF; stroke-width:0; stroke-opacity:1; 
stroke-linecap:round; stroke-linejoin:round;">
<circle cx="14228" cy="8530.18" r="157.48" /> 
</g>
<g style="fill:#FFFFFF; fill-opacity:1.0; 
stroke:#FFFFFF; stroke-width:39.3701; stroke-opacity:1; 
stroke-linecap:round; stroke-linejoin:round;">
</g>
<g style="fill:#FFFFFF; fill-opacity:1.0; 
stroke:#FFFFFF; stroke-width:0; stroke-opacity:1; 
stroke-linecap:round; stroke-linejoin:round;">
<circle cx="11943" cy="8390.18" r="157.48" /> 
</g>
<g style="fill:#FFFFFF; fill-opacity:1.0; 
stroke:#FFFFFF; stroke-width:39.3701; stroke-opacity:1; 
stroke-linecap:round; stroke-linejoin:round;">
</g>
<g style="fill:#FFFFFF; fill-opacity:1.0; 
stroke:#FFFFFF; stroke-width:0; stroke-opacity:1; 
stroke-linecap:round; stroke-linejoin:round;">
<circle cx="11943" cy="12390.2" r="157.48" /> 
</g>
<g style="fill:#FFFFFF; fill-opacity:1.0; 
stroke:#FFFFFF; stroke-width:39.3701; stroke-opacity:1; 
stroke-linecap:round; stroke-linejoin:round;">
</g>
<g style="fill:#FFFFFF; fill-opacity:1.0; 
stroke:#FFFFFF; stroke-width:0; stroke-opacity:1; 
stroke-linecap:round; stroke-linejoin:round;">
<circle cx="14318" cy="13180.2" r="177.165" /> 
</g>
<g style="fill:#FFFFFF; fill-opacity:1.0; 
stroke:#FFFFFF; stroke-width:39.3701; stroke-opacity:1; 
stroke-linecap:round; stroke-linejoin:round;">
</g>
<g style="fill:#FFFFFF; fill-opacity:1.0; 
stroke:#FFFFFF; stroke-width:0; stroke-opacity:1; 
stroke-linecap:round; stroke-linejoin:round;">
<circle cx="14318" cy="14180.2" r="177.165" /> 
</g>
<g style="fill:#FFFFFF; fill-opacity:1.0; 
stroke:#FFFFFF; stroke-width:39.3701; stroke-opacity:1; 
stroke-linecap:round; stroke-linejoin:round;">
</g>
<g style="fill:#FFFFFF; fill-opacity:1.0; 
stroke:#FFFFFF; stroke-width:0; stroke-opacity:1; 
stroke-linecap:round; stroke-linejoin:round;">
<circle cx="3462.01" cy="4111.18" r="147.638" /> 
</g>
<g style="fill:#FFFFFF; fill-opacity:1.0; 
stroke:#FFFFFF; stroke-width:39.3701; stroke-opacity:1; 
stroke-linecap:round; stroke-linejoin:round;">
</g>
<g style="fill:#FFFFFF; fill-opacity:1.0; 
stroke:#FFFFFF; stroke-width:0; stroke-opacity:1; 
stroke-linecap:round; stroke-linejoin:round;">
<circle cx="3462.01" cy="7111.18" r="147.638" /> 
</g>
<g style="fill:#FFFFFF; fill-opacity:1.0; 
stroke:#FFFFFF; stroke-width:39.3701; stroke-opacity:1; 
stroke-linecap:round; stroke-linejoin:round;">
</g>
<g style="fill:#FFFFFF; fill-opacity:1.0; 
stroke:#FFFFFF; stroke-width:0; stroke-opacity:1; 
stroke-linecap:round; stroke-linejoin:round;">
<circle cx="5545.51" cy="3184.18" r="255.906" /> 
</g>
<g style="fill:#FFFFFF; fill-opacity:1.0; 
stroke:#FFFFFF; stroke-width:39.3701; stroke-opacity:1; 
stroke-linecap:round; stroke-linejoin:round;">
</g>
<g style="fill:#FFFFFF; fill-opacity:1.0; 
stroke:#FFFFFF; stroke-width:0; stroke-opacity:1; 
stroke-linecap:round; stroke-linejoin:round;">
<circle cx="7514.01" cy="3184.18" r="255.906" /> 
</g>
<g style="fill:#FFFFFF; fill-opacity:1.0; 
stroke:#FFFFFF; stroke-width:39.3701; stroke-opacity:1; 
stroke-linecap:round; stroke-linejoin:round;">
</g>
<g style="fill:#FFFFFF; fill-opacity:1.0; 
stroke:#FFFFFF; stroke-width:0; stroke-opacity:1; 
stroke-linecap:round; stroke-linejoin:round;">
<circle cx="9315.01" cy="10632.2" r="216.535" /> 
</g>
<g style="fill:#FFFFFF; fill-opacity:1.0; 
stroke:#FFFFFF; stroke-width:39.3701; stroke-opacity:1; 
stroke-linecap:round; stroke-linejoin:round;">
</g>
<g style="fill:#FFFFFF; fill-opacity:1.0; 
stroke:#FFFFFF; stroke-width:0; stroke-opacity:1; 
stroke-linecap:round; stroke-linejoin:round;">
<circle cx="8315.01" cy="10632.2" r="216.535" /> 
</g>
<g style="fill:#FFFFFF; fill-opacity:1.0; 
stroke:#FFFFFF; stroke-width:39.3701; stroke-opacity:1; 
stroke-linecap:round; stroke-linejoin:round;">
</g>
<g style="fill:#FFFFFF; fill-opacity:1.0; 
stroke:#FFFFFF; stroke-width:0; stroke-opacity:1; 
stroke-linecap:round; stroke-linejoin:round;">
<circle cx="7315.01" cy="10632.2" r="216.535" /> 
</g>
<g style="fill:#FFFFFF; fill-opacity:1.0; 
stroke:#FFFFFF; stroke-width:39.3701; stroke-opacity:1; 
stroke-linecap:round; stroke-linejoin:round;">
</g>
<g style="fill:#FFFFFF; fill-opacity:1.0; 
stroke:#FFFFFF; stroke-width:0; stroke-opacity:1; 
stroke-linecap:round; stroke-linejoin:round;">
<circle cx="3646.76" cy="12172.2" r="157.48" /> 
</g>
<g style="fill:#FFFFFF; fill-opacity:1.0; 
stroke:#FFFFFF; stroke-width:39.3701; stroke-opacity:1; 
stroke-linecap:round; stroke-linejoin:round;">
</g>
<g style="fill:#FFFFFF; fill-opacity:1.0; 
stroke:#FFFFFF; stroke-width:0; stroke-opacity:1; 
stroke-linecap:round; stroke-linejoin:round;">
<circle cx="4631.01" cy="12172.2" r="157.48" /> 
</g>
<g style="fill:#FFFFFF; fill-opacity:1.0; 
stroke:#FFFFFF; stroke-width:39.3701; stroke-opacity:1; 
stroke-linecap:round; stroke-linejoin:round;">
</g>
<g style="fill:#FFFFFF; fill-opacity:1.0; 
stroke:#FFFFFF; stroke-width:0; stroke-opacity:1; 
stroke-linecap:round; stroke-linejoin:round;">
<circle cx="3684.76" cy="9358.18" r="157.48" /> 
</g>
<g style="fill:#FFFFFF; fill-opacity:1.0; 
stroke:#FFFFFF; stroke-width:39.3701; stroke-opacity:1; 
stroke-linecap:round; stroke-linejoin:round;">
</g>
<g style="fill:#FFFFFF; fill-opacity:1.0; 
stroke:#FFFFFF; stroke-width:0; stroke-opacity:1; 
stroke-linecap:round; stroke-linejoin:round;">
<circle cx="4669.01" cy="9358.18" r="157.48" /> 
</g>
<g style="fill:#FFFFFF; fill-opacity:1.0; 
stroke:#FFFFFF; stroke-width:39.3701; stroke-opacity:1; 
stroke-linecap:round; stroke-linejoin:round;">
</g>
<g style="fill:#000000; fill-opacity:1.0; 
stroke:#000000; stroke-width:39.3701; stroke-opacity:1; 
stroke-linecap:round; stroke-linejoin:round;">
<g >
</g>
<g style="fill:#848400; fill-opacity:1.0; 
stroke:#848400; stroke-width:39.3701; stroke-opacity:1; 
stroke-linecap:round; stroke-linejoin:round;">
</g>
<g style="fill:#848400; fill-opacity:1.0; 
stroke:#848400; stroke-width:0; stroke-opacity:1; 
stroke-linecap:round; stroke-linejoin:round;">
<path style="fill:#848400; fill-opacity:1.0; 
stroke:#848400; stroke-width:0; stroke-opacity:1; 
stroke-linecap:round; stroke-linejoin:round;fill-rule:evenodd;"
d="M 10398.9,4857.76
10432.3,4862.72
10465.1,4870.94
10496.9,4882.32
10527.5,4896.78
10556.5,4914.16
10583.6,4934.3
10608.7,4957
10631.4,4982.05
10651.5,5009.2
10668.9,5038.2
10683.4,5068.76
10694.8,5100.59
10703,5133.38
10707.9,5166.82
10709.6,5200.59
10709.6,5889.57
10707.9,5923.33
10703,5956.77
10694.8,5989.57
10683.4,6021.4
10668.9,6051.96
10651.5,6080.95
10631.4,6108.11
10608.7,6133.16
10583.6,6155.86
10556.5,6176
10527.5,6193.38
10496.9,6207.83
10465.1,6219.22
10432.3,6227.44
10398.9,6232.4
10365.1,6234.06
9676.13,6234.06
9642.36,6232.4
9608.92,6227.44
9576.13,6219.22
9544.3,6207.83
9513.74,6193.38
9484.74,6176
9457.59,6155.86
9432.54,6133.16
9409.84,6108.11
9389.7,6080.95
9372.32,6051.96
9357.86,6021.4
9346.48,5989.57
9338.26,5956.77
9333.3,5923.33
9331.64,5889.57
9331.64,5200.59
9333.3,5166.82
9338.26,5133.38
9346.48,5100.59
9357.86,5068.76
9372.32,5038.2
9389.7,5009.2
9409.84,4982.05
9432.54,4957
9457.59,4934.3
9484.74,4914.16
9513.74,4896.78
9544.3,4882.32
9576.13,4870.94
9608.92,4862.72
9642.36,4857.76
9676.13,4856.1
10365.1,4856.1
Z" /> 
<path style="fill:#848400; fill-opacity:1.0; 
stroke:#848400; stroke-width:0; stroke-opacity:1; 
stroke-linecap:round; stroke-linejoin:round;fill-rule:evenodd;"
d="M 12293.7,3774.85
12322.3,3779.1
12350.4,3786.14
12377.7,3795.9
12403.9,3808.29
12428.8,3823.19
12452,3840.45
12473.5,3859.91
12493,3881.38
12510.2,3904.65
12525.1,3929.51
12537.5,3955.7
12547.3,3982.99
12554.3,4011.1
12558.6,4039.76
12560,4068.7
12560,4659.25
12558.6,4688.19
12554.3,4716.86
12547.3,4744.97
12537.5,4772.25
12525.1,4798.44
12510.2,4823.3
12493,4846.57
12473.5,4868.04
12452,4887.5
12428.8,4904.76
12403.9,4919.66
12377.7,4932.05
12350.4,4941.81
12322.3,4948.85
12293.7,4953.11
12264.7,4954.53
11477.3,4954.53
11448.4,4953.11
11419.7,4948.85
11391.6,4941.81
11364.3,4932.05
11338.1,4919.66
11313.3,4904.76
11290,4887.5
11268.5,4868.04
11249.1,4846.57
11231.8,4823.3
11216.9,4798.44
11204.5,4772.25
11194.8,4744.97
11187.7,4716.86
11183.5,4688.19
11182,4659.25
11182,4068.7
11183.5,4039.76
11187.7,4011.1
11194.8,3982.99
11204.5,3955.7
11216.9,3929.51
11231.8,3904.65
11249.1,3881.38
11268.5,3859.91
11290,3840.45
11313.3,3823.19
11338.1,3808.29
11364.3,3795.9
11391.6,3786.14
11419.7,3779.1
11448.4,3774.85
11477.3,3773.43
12264.7,3773.43
Z" /> 
<path style="fill:#848400; fill-opacity:1.0; 
stroke:#848400; stroke-width:0; stroke-opacity:1; 
stroke-linecap:round; stroke-linejoin:round;fill-rule:evenodd;"
d="M 11182,6037.2
12560,6037.2
12560,7415.16
11182,7415.16
Z" /> 
</g>
<g >
</g>
<g style="fill:#848400; fill-opacity:1.0; 
stroke:#848400; stroke-width:0; stroke-opacity:1; 
stroke-linecap:round; stroke-linejoin:round;">
<circle cx="15009" cy="1744.18" r="492.126" /> 
</g>
<g style="fill:#848400; fill-opacity:1.0; 
stroke:#848400; stroke-width:39.3701; stroke-opacity:1; 
stroke-linecap:round; stroke-linejoin:round;">
</g>
<g >
</g>
<g style="fill:#848400; fill-opacity:1.0; 
stroke:#848400; stroke-width:39.3701; stroke-opacity:1; 
stroke-linecap:round; stroke-linejoin:round;">
</g>
<g style="fill:#848400; fill-opacity:1.0; 
stroke:#848400; stroke-width:0; stroke-opacity:1; 
stroke-linecap:round; stroke-linejoin:round;">
<circle cx="3153.01" cy="1676.18" r="492.126" /> 
</g>
<g style="fill:#848400; fill-opacity:1.0; 
stroke:#848400; stroke-width:39.3701; stroke-opacity:1; 
stroke-linecap:round; stroke-linejoin:round;">
</g>
<g >
</g>
<g style="fill:#848400; fill-opacity:1.0; 
stroke:#848400; stroke-width:39.3701; stroke-opacity:1; 
stroke-linecap:round; stroke-linejoin:round;">
</g>
<g style="fill:#848400; fill-opacity:1.0; 
stroke:#848400; stroke-width:0; stroke-opacity:1; 
stroke-linecap:round; stroke-linejoin:round;">
<circle cx="15053" cy="16424.2" r="492.126" /> 
</g>
<g style="fill:#848400; fill-opacity:1.0; 
stroke:#848400; stroke-width:39.3701; stroke-opacity:1; 
stroke-linecap:round; stroke-linejoin:round;">
</g>
<g >
</g>
<g style="fill:#848400; fill-opacity:1.0; 
stroke:#848400; stroke-width:39.3701; stroke-opacity:1; 
stroke-linecap:round; stroke-linejoin:round;">
</g>
<g style="fill:#848400; fill-opacity:1.0; 
stroke:#848400; stroke-width:0; stroke-opacity:1; 
stroke-linecap:round; stroke-linejoin:round;">
<circle cx="3151.01" cy="16434.2" r="492.126" /> 
</g>
<g style="fill:#848400; fill-opacity:1.0; 
stroke:#848400; stroke-width:39.3701; stroke-opacity:1; 
stroke-linecap:round; stroke-linejoin:round;">
</g>
<g >
</g>
<g style="fill:#848400; fill-opacity:1.0; 
stroke:#848400; stroke-width:39.3701; stroke-opacity:1; 
stroke-linecap:round; stroke-linejoin:round;">
</g>
<g style="fill:#848400; fill-opacity:1.0; 
stroke:#848400; stroke-width:0; stroke-opacity:1; 
stroke-linecap:round; stroke-linejoin:round;">
<circle cx="11691.5" cy="15068.2" r="511.811" /> 
</g>
<g style="fill:#848400; fill-opacity:1.0; 
stroke:#848400; stroke-width:39.3701; stroke-opacity:1; 
stroke-linecap:round; stroke-linejoin:round;">
</g>
<g style="fill:#848400; fill-opacity:1.0; 
stroke:#848400; stroke-width:0; stroke-opacity:1; 
stroke-linecap:round; stroke-linejoin:round;">
<path style="fill:#848400; fill-opacity:1.0; 
stroke:#848400; stroke-width:0; stroke-opacity:1; 
stroke-linecap:round; stroke-linejoin:round;fill-rule:evenodd;"
d="M 9211.2,15580
9211.2,14556.4
10234.8,14556.4
10234.8,15580
Z" /> 
</g>
<g >
</g>
<g style="fill:#848400; fill-opacity:1.0; 
stroke:#848400; stroke-width:0; stroke-opacity:1; 
stroke-linecap:round; stroke-linejoin:round;">
<circle cx="6578.01" cy="13641.2" r="334.646" /> 
<path style="fill:#848400; fill-opacity:1.0; 
stroke:#848400; stroke-width:0; stroke-opacity:1; 
stroke-linecap:round; stroke-linejoin:round;fill-rule:evenodd;"
d="M 7243.37,13306.5
7912.66,13306.5
7912.66,13975.8
7243.37,13975.8
Z" /> 
</g>
<g >
</g>
<g style="fill:#848400; fill-opacity:1.0; 
stroke:#848400; stroke-width:0; stroke-opacity:1; 
stroke-linecap:round; stroke-linejoin:round;">
<circle cx="6578.01" cy="15101.2" r="334.646" /> 
<path style="fill:#848400; fill-opacity:1.0; 
stroke:#848400; stroke-width:0; stroke-opacity:1; 
stroke-linecap:round; stroke-linejoin:round;fill-rule:evenodd;"
d="M 7243.37,14766.5
7912.66,14766.5
7912.66,15435.8
7243.37,15435.8
Z" /> 
</g>
<g >
</g>
<g style="fill:#848400; fill-opacity:1.0; 
stroke:#848400; stroke-width:0; stroke-opacity:1; 
stroke-linecap:round; stroke-linejoin:round;">
<circle cx="14228" cy="11530.2" r="314.961" /> 
<path style="fill:#848400; fill-opacity:1.0; 
stroke:#848400; stroke-width:0; stroke-opacity:1; 
stroke-linecap:round; stroke-linejoin:round;fill-rule:evenodd;"
d="M 13913.1,8215.22
14543,8215.22
14543,8845.14
13913.1,8845.14
Z" /> 
</g>
<g >
</g>
<g style="fill:#848400; fill-opacity:1.0; 
stroke:#848400; stroke-width:0; stroke-opacity:1; 
stroke-linecap:round; stroke-linejoin:round;">
<circle cx="11943" cy="8390.18" r="314.961" /> 
<circle cx="11943" cy="12390.2" r="314.961" /> 
</g>
<g style="fill:#848400; fill-opacity:1.0; 
stroke:#848400; stroke-width:39.3701; stroke-opacity:1; 
stroke-linecap:round; stroke-linejoin:round;">
</g>
<g >
</g>
<g style="fill:#848400; fill-opacity:1.0; 
stroke:#848400; stroke-width:39.3701; stroke-opacity:1; 
stroke-linecap:round; stroke-linejoin:round;">
</g>
<g style="fill:#848400; fill-opacity:1.0; 
stroke:#848400; stroke-width:0; stroke-opacity:1; 
stroke-linecap:round; stroke-linejoin:round;">
<circle cx="14318" cy="13180.2" r="354.331" /> 
</g>
<g style="fill:#848400; fill-opacity:1.0; 
stroke:#848400; stroke-width:39.3701; stroke-opacity:1; 
stroke-linecap:round; stroke-linejoin:round;">
</g>
<g style="fill:#848400; fill-opacity:1.0; 
stroke:#848400; stroke-width:0; stroke-opacity:1; 
stroke-linecap:round; stroke-linejoin:round;">
<path style="fill:#848400; fill-opacity:1.0; 
stroke:#848400; stroke-width:0; stroke-opacity:1; 
stroke-linecap:round; stroke-linejoin:round;fill-rule:evenodd;"
d="M 14672.3,14534.5
13963.7,14534.5
13963.7,13825.9
14672.3,13825.9
Z" /> 
</g>
<g >
</g>
<g style="fill:#848400; fill-opacity:1.0; 
stroke:#848400; stroke-width:0; stroke-opacity:1; 
stroke-linecap:round; stroke-linejoin:round;">
<circle cx="3462.01" cy="4111.18" r="295.276" /> 
<path style="fill:#848400; fill-opacity:1.0; 
stroke:#848400; stroke-width:0; stroke-opacity:1; 
stroke-linecap:round; stroke-linejoin:round;fill-rule:evenodd;"
d="M 3757.29,7406.46
3166.74,7406.46
3166.74,6815.91
3757.29,6815.91
Z" /> 
</g>
<g >
</g>
<g style="fill:#848400; fill-opacity:1.0; 
stroke:#848400; stroke-width:0; stroke-opacity:1; 
stroke-linecap:round; stroke-linejoin:round;">
<circle cx="5545.51" cy="3184.18" r="511.811" /> 
</g>
<g style="fill:#848400; fill-opacity:1.0; 
stroke:#848400; stroke-width:39.3701; stroke-opacity:1; 
stroke-linecap:round; stroke-linejoin:round;">
</g>
<g style="fill:#848400; fill-opacity:1.0; 
stroke:#848400; stroke-width:0; stroke-opacity:1; 
stroke-linecap:round; stroke-linejoin:round;">
<path style="fill:#848400; fill-opacity:1.0; 
stroke:#848400; stroke-width:0; stroke-opacity:1; 
stroke-linecap:round; stroke-linejoin:round;fill-rule:evenodd;"
d="M 8025.82,2672.37
8025.82,3695.99
7002.2,3695.99
7002.2,2672.37
Z" /> 
</g>
<g >
</g>
<g style="fill:#848400; fill-opacity:1.0; 
stroke:#848400; stroke-width:0; stroke-opacity:1; 
stroke-linecap:round; stroke-linejoin:round;">
</g>
<g style="fill:#848400; fill-opacity:1.0; 
stroke:#848400; stroke-width:750; stroke-opacity:1; 
stroke-linecap:round; stroke-linejoin:round;">
</g>
<g style="fill:#848400; fill-opacity:0.0; 
stroke:#848400; stroke-width:750; stroke-opacity:1; 
stroke-linecap:round; stroke-linejoin:round;">
<path d="M9315 10613
L9315 10650
" />
<path d="M8315 10613
L8315 10650
" />
</g>
<g style="fill:#848400; fill-opacity:0.0; 
stroke:#848400; stroke-width:0; stroke-opacity:1; 
stroke-linecap:round; stroke-linejoin:round;">
</g>
<g style="fill:#848400; fill-opacity:1.0; 
stroke:#848400; stroke-width:0; stroke-opacity:1; 
stroke-linecap:round; stroke-linejoin:round;">
<path style="fill:#848400; fill-opacity:1.0; 
stroke:#848400; stroke-width:0; stroke-opacity:1; 
stroke-linecap:round; stroke-linejoin:round;fill-rule:evenodd;"
d="M 6940.01,11025.9
6940.01,10238.5
7690.01,10238.5
7690.01,11025.9
Z" /> 
</g>
<g >
</g>
<g style="fill:#848400; fill-opacity:1.0; 
stroke:#848400; stroke-width:0; stroke-opacity:1; 
stroke-linecap:round; stroke-linejoin:round;">
<circle cx="3646.76" cy="12172.2" r="314.961" /> 
</g>
<g style="fill:#848400; fill-opacity:1.0; 
stroke:#848400; stroke-width:39.3701; stroke-opacity:1; 
stroke-linecap:round; stroke-linejoin:round;">
</g>
<g style="fill:#848400; fill-opacity:1.0; 
stroke:#848400; stroke-width:0; stroke-opacity:1; 
stroke-linecap:round; stroke-linejoin:round;">
<path style="fill:#848400; fill-opacity:1.0; 
stroke:#848400; stroke-width:0; stroke-opacity:1; 
stroke-linecap:round; stroke-linejoin:round;fill-rule:evenodd;"
d="M 4945.97,11857.2
4945.97,12487.1
4316.05,12487.1
4316.05,11857.2
Z" /> 
</g>
<g >
</g>
<g style="fill:#848400; fill-opacity:1.0; 
stroke:#848400; stroke-width:0; stroke-opacity:1; 
stroke-linecap:round; stroke-linejoin:round;">
<circle cx="3684.76" cy="9358.18" r="314.961" /> 
</g>
<g style="fill:#848400; fill-opacity:1.0; 
stroke:#848400; stroke-width:39.3701; stroke-opacity:1; 
stroke-linecap:round; stroke-linejoin:round;">
</g>
<g style="fill:#848400; fill-opacity:1.0; 
stroke:#848400; stroke-width:0; stroke-opacity:1; 
stroke-linecap:round; stroke-linejoin:round;">
<path style="fill:#848400; fill-opacity:1.0; 
stroke:#848400; stroke-width:0; stroke-opacity:1; 
stroke-linecap:round; stroke-linejoin:round;fill-rule:evenodd;"
d="M 4983.97,9043.22
4983.97,9673.14
4354.05,9673.14
4354.05,9043.22
Z" /> 
</g>
<g >
</g>
<g >
</g>
<g >
</g>
</g>
<g style="fill:#000000; fill-opacity:1.0; 
stroke:#000000; stroke-width:0; stroke-opacity:1; 
stroke-linecap:round; stroke-linejoin:round;">
<g >
</g>
<g >
</g>
<g >
</g>
<g >
</g>
<g >
</g>
<g >
</g>
<g >
</g>
<g >
</g>
<g >
</g>
<g >
</g>
<g >
</g>
<g >
</g>
<g >
</g>
<g >
</g>
<g >
</g>
<g >
</g>
<g >
</g>
<g >
</g>
<g >
</g>
</g>
<g style="fill:#000000; fill-opacity:1.0; 
stroke:#000000; stroke-width:0; stroke-opacity:1; 
stroke-linecap:round; stroke-linejoin:round;">
</g>
<g style="fill:#008484; fill-opacity:1.0; 
stroke:#008484; stroke-width:0; stroke-opacity:1; 
stroke-linecap:round; stroke-linejoin:round;">
</g>
<g style="fill:#008484; fill-opacity:0.0; 
stroke:#008484; stroke-width:0; stroke-opacity:1; 
stroke-linecap:round; stroke-linejoin:round;">
</g>
<g style="fill:#008484; fill-opacity:0.0; 
stroke:#008484; stroke-width:39.3701; stroke-opacity:1; 
stroke-linecap:round; stroke-linejoin:round;">
<g transform="rotate(-90 14686.1 5136.18)">
<text x="14686.1" y="5333.03"
textLength="3187.1" font-size="524.934" lengthAdjust="spacingAndGlyphs"
text-anchor="middle" opacity="0">5V Voltage</text>
</g>
<path d="M14470 6448
L14470 6635
L14657 6654
L14639 6635
L14620 6598
L14620 6504
L14639 6467
L14657 6448
L14695 6429
L14789 6429
L14826 6448
L14845 6467
L14864 6504
L14864 6598
L14845 6635
L14826 6654
" />
<path d="M14470 6317
L14864 6186
L14470 6054
" />
<path d="M14470 5679
L14864 5548
L14470 5417
" />
<path d="M14864 5229
L14845 5267
L14826 5286
L14789 5304
L14676 5304
L14639 5286
L14620 5267
L14601 5229
L14601 5173
L14620 5136
L14639 5117
L14676 5098
L14789 5098
L14826 5117
L14845 5136
L14864 5173
L14864 5229
" />
<path d="M14864 4873
L14845 4911
L14807 4929
L14470 4929
" />
<path d="M14601 4779
L14601 4629
" />
<path d="M14470 4723
L14807 4723
L14845 4704
L14864 4667
L14864 4629
" />
<path d="M14864 4330
L14657 4330
L14620 4348
L14601 4386
L14601 4461
L14620 4498
" />
<path d="M14845 4330
L14864 4367
L14864 4461
L14845 4498
L14807 4517
L14770 4517
L14732 4498
L14714 4461
L14714 4367
L14695 4330
" />
<path d="M14601 3973
L14920 3973
L14957 3992
L14976 4011
L14995 4048
L14995 4105
L14976 4142
" />
<path d="M14845 3973
L14864 4011
L14864 4086
L14845 4123
L14826 4142
L14789 4161
L14676 4161
L14639 4142
L14620 4123
L14601 4086
L14601 4011
L14620 3973
" />
<path d="M14845 3636
L14864 3673
L14864 3748
L14845 3786
L14807 3805
L14657 3805
L14620 3786
L14601 3748
L14601 3673
L14620 3636
L14657 3617
L14695 3617
L14732 3805
" />
<g transform="rotate(-90 15316 5136.18)">
<text x="15316" y="5333.03"
textLength="2882.08" font-size="524.934" lengthAdjust="spacingAndGlyphs"
text-anchor="middle" opacity="0">Regulator</text>
</g>
<path d="M15494 6232
L15306 6364
" />
<path d="M15494 6457
L15100 6457
L15100 6307
L15119 6270
L15137 6251
L15175 6232
L15231 6232
L15269 6251
L15287 6270
L15306 6307
L15306 6457
" />
<path d="M15475 5914
L15494 5951
L15494 6026
L15475 6064
L15437 6082
L15287 6082
L15250 6064
L15231 6026
L15231 5951
L15250 5914
L15287 5895
L15325 5895
L15362 6082
" />
<path d="M15231 5558
L15550 5558
L15587 5576
L15606 5595
L15625 5632
L15625 5689
L15606 5726
" />
<path d="M15475 5558
L15494 5595
L15494 5670
L15475 5707
L15456 5726
L15419 5745
L15306 5745
L15269 5726
L15250 5707
L15231 5670
L15231 5595
L15250 5558
" />
<path d="M15231 5201
L15494 5201
" />
<path d="M15231 5370
L15437 5370
L15475 5351
L15494 5314
L15494 5258
L15475 5220
L15456 5201
" />
<path d="M15494 4958
L15475 4995
L15437 5014
L15100 5014
" />
<path d="M15494 4639
L15287 4639
L15250 4658
L15231 4695
L15231 4770
L15250 4808
" />
<path d="M15475 4639
L15494 4676
L15494 4770
L15475 4808
L15437 4826
L15400 4826
L15362 4808
L15344 4770
L15344 4676
L15325 4639
" />
<path d="M15231 4508
L15231 4358
" />
<path d="M15100 4451
L15437 4451
L15475 4433
L15494 4395
L15494 4358
" />
<path d="M15494 4170
L15475 4208
L15456 4226
L15419 4245
L15306 4245
L15269 4226
L15250 4208
L15231 4170
L15231 4114
L15250 4076
L15269 4058
L15306 4039
L15419 4039
L15456 4058
L15475 4076
L15494 4114
L15494 4170
" />
<path d="M15494 3870
L15231 3870
" />
<path d="M15306 3870
L15269 3851
L15250 3833
L15231 3795
L15231 3758
" />
<g transform="rotate(-180 7527.01 942.181)">
<text x="7527.01" y="1040.61"
textLength="651.106" font-size="262.467" lengthAdjust="spacingAndGlyphs"
text-anchor="middle" opacity="0">GND</text>
</g>
<path d="M7676 1040
L7695 1049
L7723 1049
L7751 1040
L7770 1021
L7780 1003
L7789 965
L7789 937
L7780 899
L7770 881
L7751 862
L7723 853
L7705 853
L7676 862
L7667 871
L7667 937
L7705 937
" />
<path d="M7583 853
L7583 1049
L7470 853
L7470 1049
" />
<path d="M7377 853
L7377 1049
L7330 1049
L7302 1040
L7283 1021
L7273 1003
L7264 965
L7264 937
L7273 899
L7283 881
L7302 862
L7330 853
L7377 853
" />
<g transform="rotate(-180 5539.01 936.181)">
<text x="5539.01" y="1034.61"
textLength="519.872" font-size="262.467" lengthAdjust="spacingAndGlyphs"
text-anchor="middle" opacity="0">VIN</text>
</g>
<path d="M5754 1043
L5688 847
L5623 1043
" />
<path d="M5557 847
L5557 1043
" />
<path d="M5464 847
L5464 1043
L5351 847
L5351 1043
" />
</g>
<g style="fill:#008484; fill-opacity:0.0; 
stroke:#008484; stroke-width:31.4961; stroke-opacity:1; 
stroke-linecap:round; stroke-linejoin:round;">
<text x="15223" y="13246.6"
textLength="294.901" font-size="262.467" lengthAdjust="spacingAndGlyphs"
text-anchor="middle" opacity="0">+</text>
<path d="M15148 13162
L15298 13162
" />
<path d="M15223 13237
L15223 13087
" />
<text x="15227" y="14378.6"
textLength="284.665" font-size="262.467" lengthAdjust="spacingAndGlyphs"
text-anchor="middle" opacity="0">-</text>
<path d="M15152 14294
L15302 14294
" />
<text x="2837.01" y="5070.61"
textLength="284.665" font-size="262.467" lengthAdjust="spacingAndGlyphs"
text-anchor="middle" opacity="0">+</text>
<path d="M2762 4986
L2912 4986
" />
<path d="M2837 5061
L2837 4911
" />
<text x="2841.01" y="6202.61"
textLength="284.665" font-size="262.467" lengthAdjust="spacingAndGlyphs"
text-anchor="middle" opacity="0">-</text>
<path d="M2766 6118
L2916 6118
" />
</g>
<g style="fill:#008484; fill-opacity:0.0; 
stroke:#008484; stroke-width:23.622; stroke-opacity:1; 
stroke-linecap:round; stroke-linejoin:round;">
<g transform="rotate(-90 15947 14088.2)">
<text x="15947" y="14166.9"
textLength="2073.19" font-size="209.974" lengthAdjust="spacingAndGlyphs"
text-anchor="middle" opacity="0">theWickedWebDev</text>
</g>
<path d="M15913 15089
L15913 15029
" />
<path d="M15860 15066
L15995 15066
L16010 15059
L16018 15044
L16018 15029
" />
<path d="M16018 14976
L15860 14976
" />
<path d="M16018 14909
L15935 14909
L15920 14916
L15913 14931
L15913 14954
L15920 14969
L15928 14976
" />
<path d="M16010 14774
L16018 14789
L16018 14819
L16010 14834
L15995 14841
L15935 14841
L15920 14834
L15913 14819
L15913 14789
L15920 14774
L15935 14766
L15950 14766
L15965 14841
" />
<path d="M15860 14714
L16018 14676
L15905 14646
L16018 14616
L15860 14579
" />
<path d="M16018 14519
L15913 14519
" />
<path d="M15860 14519
L15868 14526
L15875 14519
L15868 14511
L15860 14519
L15875 14519
" />
<path d="M16010 14376
L16018 14391
L16018 14421
L16010 14436
L16003 14444
L15988 14451
L15943 14451
L15928 14444
L15920 14436
L15913 14421
L15913 14391
L15920 14376
" />
<path d="M16018 14309
L15860 14309
" />
<path d="M15958 14294
L16018 14249
" />
<path d="M15913 14249
L15973 14309
" />
<path d="M16010 14121
L16018 14136
L16018 14166
L16010 14181
L15995 14189
L15935 14189
L15920 14181
L15913 14166
L15913 14136
L15920 14121
L15935 14114
L15950 14114
L15965 14189
" />
<path d="M16018 13979
L15860 13979
" />
<path d="M16010 13979
L16018 13994
L16018 14024
L16010 14039
L16003 14046
L15988 14054
L15943 14054
L15928 14046
L15920 14039
L15913 14024
L15913 13994
L15920 13979
" />
<path d="M15860 13919
L16018 13881
L15905 13851
L16018 13821
L15860 13784
" />
<path d="M16010 13664
L16018 13679
L16018 13709
L16010 13724
L15995 13731
L15935 13731
L15920 13724
L15913 13709
L15913 13679
L15920 13664
L15935 13656
L15950 13656
L15965 13731
" />
<path d="M16018 13589
L15860 13589
" />
<path d="M15920 13589
L15913 13574
L15913 13544
L15920 13529
L15928 13522
L15943 13514
L15988 13514
L16003 13522
L16010 13529
L16018 13544
L16018 13574
L16010 13589
" />
<path d="M16018 13447
L15860 13447
L15860 13409
L15868 13387
L15883 13372
L15898 13364
L15928 13357
L15950 13357
L15980 13364
L15995 13372
L16010 13387
L16018 13409
L16018 13447
" />
<path d="M16010 13229
L16018 13244
L16018 13274
L16010 13289
L15995 13297
L15935 13297
L15920 13289
L15913 13274
L15913 13244
L15920 13229
L15935 13222
L15950 13222
L15965 13297
" />
<path d="M15913 13169
L16018 13132
L15913 13094
" />
</g>
<g style="fill:#008484; fill-opacity:0.0; 
stroke:#008484; stroke-width:39.3701; stroke-opacity:1; 
stroke-linecap:round; stroke-linejoin:round;">
<g transform="rotate(-180 11879 920.181)">
<text x="11879" y="1038.29"
textLength="1762.99" font-size="314.961" lengthAdjust="spacingAndGlyphs"
text-anchor="middle" opacity="0">7V - 25V</text>
</g>
<path d="M12711 1049
L12553 1049
L12655 813
" />
<path d="M12497 1049
L12418 813
L12340 1049
" />
<path d="M12081 903
L11901 903
" />
<path d="M11620 1027
L11609 1038
L11586 1049
L11530 1049
L11507 1038
L11496 1027
L11485 1004
L11485 982
L11496 948
L11631 813
L11485 813
" />
<path d="M11271 1049
L11384 1049
L11395 937
L11384 948
L11361 959
L11305 959
L11282 948
L11271 937
L11260 914
L11260 858
L11271 835
L11282 824
L11305 813
L11361 813
L11384 824
L11395 835
" />
<path d="M11192 1049
L11114 813
L11035 1049
" />
<text x="9717.01" y="17276.6"
textLength="407.387" font-size="262.467" lengthAdjust="spacingAndGlyphs"
text-anchor="middle" opacity="0">5V</text>
<path d="M9679 17070
L9585 17070
L9576 17164
L9585 17154
L9604 17145
L9651 17145
L9670 17154
L9679 17164
L9688 17182
L9688 17229
L9679 17248
L9670 17257
L9651 17267
L9604 17267
L9585 17257
L9576 17248
" />
<path d="M9745 17070
L9810 17267
L9876 17070
" />
<text x="11715" y="17268.6"
textLength="651.106" font-size="262.467" lengthAdjust="spacingAndGlyphs"
text-anchor="middle" opacity="0">GND</text>
<path d="M11565 17071
L11546 17062
L11518 17062
L11490 17071
L11471 17090
L11461 17109
L11452 17146
L11452 17174
L11461 17212
L11471 17231
L11490 17249
L11518 17259
L11536 17259
L11565 17249
L11574 17240
L11574 17174
L11536 17174
" />
<path d="M11658 17259
L11658 17062
L11771 17259
L11771 17062
" />
<path d="M11864 17259
L11864 17062
L11911 17062
L11939 17071
L11958 17090
L11968 17109
L11977 17146
L11977 17174
L11968 17212
L11958 17231
L11939 17249
L11911 17259
L11864 17259
" />
<text x="4173.01" y="10880"
textLength="1324.15" font-size="367.454" lengthAdjust="spacingAndGlyphs"
text-anchor="middle" opacity="0">330uF</text>
<path d="M3575 10591
L3746 10591
L3654 10696
L3694 10696
L3720 10709
L3733 10722
L3746 10748
L3746 10814
L3733 10840
L3720 10853
L3694 10866
L3615 10866
L3589 10853
L3575 10840
" />
<path d="M3838 10591
L4008 10591
L3917 10696
L3956 10696
L3982 10709
L3995 10722
L4008 10748
L4008 10814
L3995 10840
L3982 10853
L3956 10866
L3877 10866
L3851 10853
L3838 10840
" />
<path d="M4179 10591
L4205 10591
L4232 10604
L4245 10617
L4258 10643
L4271 10696
L4271 10761
L4258 10814
L4245 10840
L4232 10853
L4205 10866
L4179 10866
L4153 10853
L4140 10840
L4127 10814
L4113 10761
L4113 10696
L4127 10643
L4140 10617
L4153 10604
L4179 10591
" />
<path d="M4507 10683
L4507 10866
" />
<path d="M4389 10683
L4389 10827
L4402 10853
L4428 10866
L4468 10866
L4494 10853
L4507 10840
" />
<path d="M4730 10722
L4638 10722
" />
<path d="M4638 10866
L4638 10591
L4770 10591
" />
<text x="4179.01" y="13953"
textLength="1192.91" font-size="367.454" lengthAdjust="spacingAndGlyphs"
text-anchor="middle" opacity="0">0.1uF</text>
<path d="M3726 13664
L3752 13664
L3778 13677
L3791 13690
L3804 13716
L3818 13769
L3818 13834
L3804 13887
L3791 13913
L3778 13926
L3752 13939
L3726 13939
L3700 13926
L3686 13913
L3673 13887
L3660 13834
L3660 13769
L3673 13716
L3686 13690
L3700 13677
L3726 13664
" />
<path d="M3936 13913
L3949 13926
L3936 13939
L3923 13926
L3936 13913
L3936 13939
" />
<path d="M4211 13939
L4054 13939
" />
<path d="M4133 13939
L4133 13664
L4106 13703
L4080 13729
L4054 13743
" />
<path d="M4448 13756
L4448 13939
" />
<path d="M4329 13756
L4329 13900
L4343 13926
L4369 13939
L4408 13939
L4434 13926
L4448 13913
" />
<path d="M4671 13795
L4579 13795
" />
<path d="M4579 13939
L4579 13664
L4710 13664
" />
<text x="8333.01" y="11768"
textLength="1639.11" font-size="367.454" lengthAdjust="spacingAndGlyphs"
text-anchor="middle" opacity="0">LM7805</text>
<path d="M7735 11754
L7604 11754
L7604 11479
" />
<path d="M7827 11754
L7827 11479
L7919 11676
L8011 11479
L8011 11754
" />
<path d="M8116 11479
L8300 11479
L8182 11754
" />
<path d="M8444 11597
L8418 11584
L8405 11571
L8392 11544
L8392 11531
L8405 11505
L8418 11492
L8444 11479
L8497 11479
L8523 11492
L8536 11505
L8549 11531
L8549 11544
L8536 11571
L8523 11584
L8497 11597
L8444 11597
L8418 11610
L8405 11623
L8392 11649
L8392 11702
L8405 11728
L8418 11741
L8444 11754
L8497 11754
L8523 11741
L8536 11728
L8549 11702
L8549 11649
L8536 11623
L8523 11610
L8497 11597
" />
<path d="M8720 11479
L8746 11479
L8772 11492
L8785 11505
L8798 11531
L8812 11584
L8812 11649
L8798 11702
L8785 11728
L8772 11741
L8746 11754
L8720 11754
L8693 11741
L8680 11728
L8667 11702
L8654 11649
L8654 11584
L8667 11531
L8680 11505
L8693 11492
L8720 11479
" />
<path d="M9061 11479
L8930 11479
L8917 11610
L8930 11597
L8956 11584
L9021 11584
L9048 11597
L9061 11610
L9074 11636
L9074 11702
L9061 11728
L9048 11741
L9021 11754
L8956 11754
L8930 11741
L8917 11728
" />
<text x="6571.01" y="12894"
textLength="891.076" font-size="367.454" lengthAdjust="spacingAndGlyphs"
text-anchor="middle" opacity="0">GND</text>
<path d="M6361 12618
L6334 12605
L6295 12605
L6256 12618
L6229 12644
L6216 12670
L6203 12723
L6203 12762
L6216 12815
L6229 12841
L6256 12867
L6295 12880
L6321 12880
L6361 12867
L6374 12854
L6374 12762
L6321 12762
" />
<path d="M6492 12880
L6492 12605
L6649 12880
L6649 12605
" />
<path d="M6780 12880
L6780 12605
L6846 12605
L6885 12618
L6912 12644
L6925 12670
L6938 12723
L6938 12762
L6925 12815
L6912 12841
L6885 12867
L6846 12880
L6780 12880
" />
<text x="7545.01" y="12894"
textLength="549.869" font-size="367.454" lengthAdjust="spacingAndGlyphs"
text-anchor="middle" opacity="0">5V</text>
<path d="M7492 12605
L7361 12605
L7348 12736
L7361 12723
L7387 12710
L7453 12710
L7479 12723
L7492 12736
L7505 12762
L7505 12828
L7492 12854
L7479 12867
L7453 12880
L7387 12880
L7361 12867
L7348 12854
" />
<path d="M7584 12605
L7676 12880
L7768 12605
" />
</g>
<g style="fill:#008484; fill-opacity:0.0; 
stroke:#008484; stroke-width:59.0551; stroke-opacity:1; 
stroke-linecap:round; stroke-linejoin:round;">
<text x="14288" y="15073"
textLength="628.609" font-size="367.454" lengthAdjust="spacingAndGlyphs"
text-anchor="middle" opacity="0">ON</text>
<path d="M14117 14784
L14169 14784
L14196 14797
L14222 14823
L14235 14876
L14235 14967
L14222 15020
L14196 15046
L14169 15059
L14117 15059
L14091 15046
L14064 15020
L14051 14967
L14051 14876
L14064 14823
L14091 14797
L14117 14784
" />
<path d="M14353 15059
L14353 14784
L14511 15059
L14511 14784
" />
</g>
<g style="fill:#008484; fill-opacity:0.0; 
stroke:#008484; stroke-width:47.2441; stroke-opacity:1; 
stroke-linecap:round; stroke-linejoin:round;">
<path d="M13682 7080
L12658 7080
" />
<path d="M13682 1293
L13682 7080
" />
<path d="M10059 7080
L10059 6332
" />
<path d="M11122 7080
L10059 7080
" />
<path d="M10059 1293
L13682 1293
" />
<path d="M10059 4757
L10059 1293
" />
<path d="M13760 6745
L13760 7159
" />
<path d="M13347 7159
L13760 7159
" />
<path d="M8620 16997
L8817 16997
" />
<path d="M8620 16705
L8620 16997
" />
<path d="M11208 15470
L11189 15489
" />
<path d="M12112 14566
L12098 14580
" />
<path d="M11284 15555
L11270 15569
" />
<path d="M12193 14647
L12174 14665
" />
<path d="M12699 12996
L12699 16902
" />
<path d="M8715 12996
L8715 16902
" />
<path d="M8715 16902
L12699 16902
" />
<path d="M8715 12996
L12699 12996
" />
<path d="M8715 14162
L12699 14162
" />
<path d="M8715 16091
L12699 16091
" />
<path d="M8715 16682
L12699 16682
" />
<circle cx="11691.5" cy="15068.2" r="661.417" /> 
<path d="M9453.72 15672.5 A661.614 661.614 0.0 0 0 9734.35 15729.7" />
<path d="M9118.68 14798.9 A661.614 661.614 0.0 0 0 9118.51 15337.1" />
<path d="M9992.3 14463.9 A661.614 661.614 0.0 0 0 9454.1 14463.7" />
<path d="M10327.3 15337.5 A661.614 661.614 0.0 0 0 10327.5 14799.3" />
<path d="M9723.01 15729.6 A661.417 661.417 0.0 0 0 9992.03 15672.4" />
<path d="M8101 13117
L8101 13641
" />
<path d="M7578 13117
L8101 13117
" />
<path d="M7078 13117
L7078 14164
" />
<path d="M7078 14164
L6054 14164
" />
<path d="M7078 13117
L6054 13117
" />
<path d="M6054 13117
L6054 14164
" />
<path d="M8078 14601
L8078 15101
" />
<path d="M7578 14601
L8078 14601
" />
<path d="M6428 15511
L6428 15668
" />
<path d="M6727 15511
L6727 15668
" />
<path d="M6428 19077
L6428 16715
" />
<path d="M6727 19077
L6428 19077
" />
<path d="M6727 16715
L6727 19077
" />
<path d="M7078 15668
L7078 16715
" />
<path d="M7428 15538
L7428 15668
" />
<path d="M7727 15538
L7727 15668
" />
<path d="M7467 16715
L7467 19077
" />
<path d="M7515 16715
L7515 19077
" />
<path d="M7562 16715
L7562 19077
" />
<path d="M7609 16715
L7609 19077
" />
<path d="M7656 16715
L7656 19077
" />
<path d="M7703 16715
L7703 19077
" />
<path d="M7428 19077
L7428 16715
" />
<path d="M7727 19077
L7428 19077
" />
<path d="M7727 16715
L7727 19077
" />
<path d="M8101 16715
L8101 15668
" />
<path d="M6054 16715
L8101 16715
" />
<path d="M6054 15668
L6054 16715
" />
<path d="M8101 15668
L6054 15668
" />
<path d="M14478 9763
L13978 9763
" />
<path d="M14005 9230
L14005 9763
" />
<path d="M14052 9230
L14052 9763
" />
<path d="M14100 9230
L14100 9763
" />
<path d="M14147 9230
L14147 9763
" />
<path d="M14194 9230
L14194 9763
" />
<path d="M14241 9230
L14241 9763
" />
<path d="M14289 9230
L14289 9763
" />
<path d="M14336 9230
L14336 9763
" />
<path d="M14383 9230
L14383 9763
" />
<path d="M14430 9230
L14430 9763
" />
<path d="M14478 10829
L14478 9230
" />
<path d="M13978 10829
L14478 10829
" />
<path d="M13978 9230
L13978 10829
" />
<path d="M14478 9230
L13978 9230
" />
<path d="M15275 7986
L14730 7986
" />
<path d="M15275 7986
L15275 8531
" />
<path d="M15180 11979
L13275 11979
" />
<path d="M15180 8081
L13275 8081
" />
<path d="M13275 8081
L13275 11979
" />
<path d="M15180 8081
L15180 11979
" />
<path d="M11943 8799
L11943 9102
" />
<path d="M11943 11980
L11943 11677
" />
<path d="M11403 9102
L11403 11677
" />
<path d="M12482 9102
L11403 9102
" />
<path d="M12482 11677
L12482 9102
" />
<path d="M11403 11677
L12482 11677
" />
<path d="M14743 14294
L14804 14294
" />
<path d="M13831 14294
L13892 14294
" />
<path d="M14743.2 14090 A590.551 590.551 0.0 0 0 14743.1 13270.3" />
<path d="M13892.9 13270.3 A590.551 590.551 0.0 0 0 13892.8 14090" />
<path d="M14804.4 14294.4 A783.465 783.465 0.0 0 0 14742.7 13021.8" />
<path d="M13893.4 13021.8 A783.465 783.465 0.0 0 0 13831.6 14294.4" />
<path d="M3099 6077
L3824 6077
" />
<path d="M3099 5982
L3824 5982
" />
<path d="M3099 6030
L3824 6030
" />
<path d="M3462 4500
L3462 4965
" />
<path d="M3462 6721
L3462 6256
" />
<path d="M3099 4965
L3099 6256
" />
<path d="M3824 4965
L3099 4965
" />
<path d="M3824 6256
L3824 4965
" />
<path d="M3099 6256
L3824 6256
" />
<path d="M8616 1255
L8419 1255
" />
<path d="M8616 1546
L8616 1255
" />
<path d="M6028 2781
L6047 2763
" />
<path d="M5124 3686
L5138 3671
" />
<path d="M5952 2696
L5966 2682
" />
<path d="M5043 3605
L5062 3586
" />
<path d="M4537 5255
L4537 1349
" />
<path d="M8521 5255
L8521 1349
" />
<path d="M8521 1349
L4537 1349
" />
<path d="M8521 5255
L4537 5255
" />
<path d="M8521 4090
L4537 4090
" />
<path d="M8521 2160
L4537 2160
" />
<path d="M8521 1570
L4537 1570
" />
<circle cx="5545.51" cy="3184.18" r="661.417" /> 
<path d="M7783.3 2579.85 A661.614 661.614 0.0 0 0 7502.67 2522.66" />
<path d="M8118.34 3453.47 A661.614 661.614 0.0 0 0 8118.51 2915.27" />
<path d="M7244.72 3788.51 A661.614 661.614 0.0 0 0 7782.93 3788.68" />
<path d="M6909.68 2914.89 A661.614 661.614 0.0 0 0 6909.51 3453.1" />
<path d="M7514.01 2522.76 A661.417 661.417 0.0 0 0 7244.99 2579.95" />
<path d="M9043 9344
L9043 9939
" />
<path d="M7586 9344
L7586 9939
" />
<path d="M6299 9939
L10330 9939
" />
<path d="M10330 9344
L10330 11171
" />
<path d="M6299 9344
L6299 11171
" />
<path d="M6299 11171
L10330 11171
" />
<path d="M6299 9344
L10330 9344
" />
<path d="M5144 12851
L5144 12654
" />
<path d="M5243 12752
L5046 12752
" />
<path d="M3114 12283
L3114 12060
" />
<path d="M3130 12376
L3130 11968
" />
<path d="M3146 12438
L3146 11905
" />
<path d="M3162 12489
L3162 11855
" />
<path d="M3177 12532
L3177 11811
" />
<path d="M3193 12570
L3193 11774
" />
<path d="M3209 12604
L3209 11739
" />
<path d="M3225 12635
L3225 11708
" />
<path d="M3240 11762
L3240 11679
" />
<path d="M3240 12664
L3240 12581
" />
<path d="M3256 11762
L3256 11652
" />
<path d="M3256 12691
L3256 12581
" />
<path d="M3272 11762
L3272 11627
" />
<path d="M3272 12716
L3272 12581
" />
<path d="M3288 11762
L3288 11604
" />
<path d="M3288 12740
L3288 12581
" />
<path d="M3303 11762
L3303 11581
" />
<path d="M3303 12762
L3303 12581
" />
<path d="M3319 11762
L3319 11560
" />
<path d="M3319 12783
L3319 12581
" />
<path d="M3335 11762
L3335 11540
" />
<path d="M3335 12804
L3335 12581
" />
<path d="M3351 11762
L3351 11521
" />
<path d="M3351 12822
L3351 12581
" />
<path d="M3366 11762
L3366 11503
" />
<path d="M3366 12841
L3366 12581
" />
<path d="M3382 11762
L3382 11485
" />
<path d="M3382 12858
L3382 12581
" />
<path d="M3398 11762
L3398 11469
" />
<path d="M3398 12874
L3398 12581
" />
<path d="M3414 11762
L3414 11453
" />
<path d="M3414 12891
L3414 12581
" />
<path d="M3429 11762
L3429 11438
" />
<path d="M3429 12906
L3429 12581
" />
<path d="M3445 11762
L3445 11423
" />
<path d="M3445 12920
L3445 12581
" />
<path d="M3461 11762
L3461 11409
" />
<path d="M3461 12934
L3461 12581
" />
<path d="M3477 11762
L3477 11396
" />
<path d="M3477 12948
L3477 12581
" />
<path d="M3492 11762
L3492 11383
" />
<path d="M3492 12961
L3492 12581
" />
<path d="M3508 11762
L3508 11371
" />
<path d="M3508 12973
L3508 12581
" />
<path d="M3524 11762
L3524 11359
" />
<path d="M3524 12985
L3524 12581
" />
<path d="M3540 11762
L3540 11347
" />
<path d="M3540 12996
L3540 12581
" />
<path d="M3555 11762
L3555 11336
" />
<path d="M3555 13007
L3555 12581
" />
<path d="M3571 11762
L3571 11326
" />
<path d="M3571 13018
L3571 12581
" />
<path d="M3587 11762
L3587 11315
" />
<path d="M3587 13028
L3587 12581
" />
<path d="M3603 11762
L3603 11306
" />
<path d="M3603 13038
L3603 12581
" />
<path d="M3618 11762
L3618 11296
" />
<path d="M3618 13047
L3618 12581
" />
<path d="M3634 11762
L3634 11287
" />
<path d="M3634 13056
L3634 12581
" />
<path d="M3650 11762
L3650 11279
" />
<path d="M3650 13065
L3650 12581
" />
<path d="M3666 11762
L3666 11270
" />
<path d="M3666 13073
L3666 12581
" />
<path d="M3681 11762
L3681 11262
" />
<path d="M3681 13081
L3681 12581
" />
<path d="M3697 11762
L3697 11255
" />
<path d="M3697 13089
L3697 12581
" />
<path d="M3713 11762
L3713 11247
" />
<path d="M3713 13096
L3713 12581
" />
<path d="M3729 11762
L3729 11241
" />
<path d="M3729 13103
L3729 12581
" />
<path d="M3744 11762
L3744 11234
" />
<path d="M3744 13109
L3744 12581
" />
<path d="M3760 11762
L3760 11228
" />
<path d="M3760 13116
L3760 12581
" />
<path d="M3776 11762
L3776 11221
" />
<path d="M3776 13122
L3776 12581
" />
<path d="M3792 11762
L3792 11216
" />
<path d="M3792 13128
L3792 12581
" />
<path d="M3807 11762
L3807 11210
" />
<path d="M3807 13133
L3807 12581
" />
<path d="M3823 11762
L3823 11205
" />
<path d="M3823 13138
L3823 12581
" />
<path d="M3839 11762
L3839 11200
" />
<path d="M3839 13143
L3839 12581
" />
<path d="M3855 11762
L3855 11195
" />
<path d="M3855 13148
L3855 12581
" />
<path d="M3871 11762
L3871 11191
" />
<path d="M3871 13152
L3871 12581
" />
<path d="M3886 11762
L3886 11187
" />
<path d="M3886 13156
L3886 12581
" />
<path d="M3902 11762
L3902 11183
" />
<path d="M3902 13160
L3902 12581
" />
<path d="M3918 11762
L3918 11180
" />
<path d="M3918 13164
L3918 12581
" />
<path d="M3934 11762
L3934 11176
" />
<path d="M3934 13167
L3934 12581
" />
<path d="M3949 11762
L3949 11173
" />
<path d="M3949 13170
L3949 12581
" />
<path d="M3965 11762
L3965 11171
" />
<path d="M3965 13173
L3965 12581
" />
<path d="M3981 11762
L3981 11168
" />
<path d="M3981 13176
L3981 12581
" />
<path d="M3997 11762
L3997 11165
" />
<path d="M3997 13178
L3997 12581
" />
<path d="M4012 11762
L4012 11163
" />
<path d="M4012 13180
L4012 12581
" />
<path d="M4028 11762
L4028 11162
" />
<path d="M4028 13182
L4028 12581
" />
<path d="M4044 11762
L4044 11160
" />
<path d="M4044 13183
L4044 12581
" />
<path d="M4060 13185
L4060 11159
" />
<path d="M4075 13186
L4075 11158
" />
<path d="M4091 13187
L4091 11157
" />
<path d="M4107 13187
L4107 11156
" />
<path d="M4123 13187
L4123 11156
" />
<path d="M4138 13187
L4138 11156
" />
<circle cx="4138.89" cy="12172.2" r="1031.5" /> 
<path d="M5182 10037
L5182 9840
" />
<path d="M5281 9938
L5084 9938
" />
<path d="M3152 9469
L3152 9246
" />
<path d="M3168 9562
L3168 9154
" />
<path d="M3184 9624
L3184 9091
" />
<path d="M3200 9675
L3200 9041
" />
<path d="M3215 9718
L3215 8997
" />
<path d="M3231 9756
L3231 8960
" />
<path d="M3247 9790
L3247 8925
" />
<path d="M3263 9821
L3263 8894
" />
<path d="M3278 8948
L3278 8865
" />
<path d="M3278 9850
L3278 9767
" />
<path d="M3294 8948
L3294 8838
" />
<path d="M3294 9877
L3294 9767
" />
<path d="M3310 8948
L3310 8813
" />
<path d="M3310 9902
L3310 9767
" />
<path d="M3326 8948
L3326 8790
" />
<path d="M3326 9926
L3326 9767
" />
<path d="M3341 8948
L3341 8767
" />
<path d="M3341 9948
L3341 9767
" />
<path d="M3357 8948
L3357 8746
" />
<path d="M3357 9969
L3357 9767
" />
<path d="M3373 8948
L3373 8726
" />
<path d="M3373 9990
L3373 9767
" />
<path d="M3389 8948
L3389 8707
" />
<path d="M3389 10008
L3389 9767
" />
<path d="M3404 8948
L3404 8689
" />
<path d="M3404 10027
L3404 9767
" />
<path d="M3420 8948
L3420 8671
" />
<path d="M3420 10044
L3420 9767
" />
<path d="M3436 8948
L3436 8655
" />
<path d="M3436 10060
L3436 9767
" />
<path d="M3452 8948
L3452 8639
" />
<path d="M3452 10077
L3452 9767
" />
<path d="M3467 8948
L3467 8624
" />
<path d="M3467 10092
L3467 9767
" />
<path d="M3483 8948
L3483 8609
" />
<path d="M3483 10106
L3483 9767
" />
<path d="M3499 8948
L3499 8595
" />
<path d="M3499 10120
L3499 9767
" />
<path d="M3515 8948
L3515 8582
" />
<path d="M3515 10134
L3515 9767
" />
<path d="M3530 8948
L3530 8569
" />
<path d="M3530 10147
L3530 9767
" />
<path d="M3546 8948
L3546 8557
" />
<path d="M3546 10159
L3546 9767
" />
<path d="M3562 8948
L3562 8545
" />
<path d="M3562 10171
L3562 9767
" />
<path d="M3578 8948
L3578 8533
" />
<path d="M3578 10182
L3578 9767
" />
<path d="M3593 8948
L3593 8522
" />
<path d="M3593 10193
L3593 9767
" />
<path d="M3609 8948
L3609 8512
" />
<path d="M3609 10204
L3609 9767
" />
<path d="M3625 8948
L3625 8501
" />
<path d="M3625 10214
L3625 9767
" />
<path d="M3641 8948
L3641 8492
" />
<path d="M3641 10224
L3641 9767
" />
<path d="M3656 8948
L3656 8482
" />
<path d="M3656 10233
L3656 9767
" />
<path d="M3672 8948
L3672 8473
" />
<path d="M3672 10242
L3672 9767
" />
<path d="M3688 8948
L3688 8465
" />
<path d="M3688 10251
L3688 9767
" />
<path d="M3704 8948
L3704 8456
" />
<path d="M3704 10259
L3704 9767
" />
<path d="M3719 8948
L3719 8448
" />
<path d="M3719 10267
L3719 9767
" />
<path d="M3735 8948
L3735 8441
" />
<path d="M3735 10275
L3735 9767
" />
<path d="M3751 8948
L3751 8433
" />
<path d="M3751 10282
L3751 9767
" />
<path d="M3767 8948
L3767 8427
" />
<path d="M3767 10289
L3767 9767
" />
<path d="M3782 8948
L3782 8420
" />
<path d="M3782 10295
L3782 9767
" />
<path d="M3798 8948
L3798 8414
" />
<path d="M3798 10302
L3798 9767
" />
<path d="M3814 8948
L3814 8407
" />
<path d="M3814 10308
L3814 9767
" />
<path d="M3830 8948
L3830 8402
" />
<path d="M3830 10314
L3830 9767
" />
<path d="M3845 8948
L3845 8396
" />
<path d="M3845 10319
L3845 9767
" />
<path d="M3861 8948
L3861 8391
" />
<path d="M3861 10324
L3861 9767
" />
<path d="M3877 8948
L3877 8386
" />
<path d="M3877 10329
L3877 9767
" />
<path d="M3893 8948
L3893 8381
" />
<path d="M3893 10334
L3893 9767
" />
<path d="M3909 8948
L3909 8377
" />
<path d="M3909 10338
L3909 9767
" />
<path d="M3924 8948
L3924 8373
" />
<path d="M3924 10342
L3924 9767
" />
<path d="M3940 8948
L3940 8369
" />
<path d="M3940 10346
L3940 9767
" />
<path d="M3956 8948
L3956 8366
" />
<path d="M3956 10350
L3956 9767
" />
<path d="M3972 8948
L3972 8362
" />
<path d="M3972 10353
L3972 9767
" />
<path d="M3987 8948
L3987 8359
" />
<path d="M3987 10356
L3987 9767
" />
<path d="M4003 8948
L4003 8357
" />
<path d="M4003 10359
L4003 9767
" />
<path d="M4019 8948
L4019 8354
" />
<path d="M4019 10362
L4019 9767
" />
<path d="M4035 8948
L4035 8351
" />
<path d="M4035 10364
L4035 9767
" />
<path d="M4050 8948
L4050 8349
" />
<path d="M4050 10366
L4050 9767
" />
<path d="M4066 8948
L4066 8348
" />
<path d="M4066 10368
L4066 9767
" />
<path d="M4082 8948
L4082 8346
" />
<path d="M4082 10369
L4082 9767
" />
<path d="M4098 10371
L4098 8345
" />
<path d="M4113 10372
L4113 8344
" />
<path d="M4129 10373
L4129 8343
" />
<path d="M4145 10373
L4145 8342
" />
<path d="M4161 10373
L4161 8342
" />
<path d="M4176 10373
L4176 8342
" />
<circle cx="4176.89" cy="9358.18" r="1031.5" /> 
<g >
</g>
</g>
<g style="fill:#000000; fill-opacity:0.0; 
stroke:#000000; stroke-width:47.2441; stroke-opacity:1; 
stroke-linecap:round; stroke-linejoin:round;">
<g >
</g>
<g >
</g>
<g >
</g>
<g >
</g>
<g >
</g>
<g >
</g>
<g >
</g>
<g >
</g>
<g >
</g>
<g >
</g>
<g >
</g>
<g >
</g>
<g >
</g>
<g >
</g>
<g >
</g>
<g >
</g>
<g >
</g>
<g >
</g>
<g >
</g>
</g>
<g style="fill:#000000; fill-opacity:0.0; 
stroke:#000000; stroke-width:47.2441; stroke-opacity:1; 
stroke-linecap:round; stroke-linejoin:round;">
</g>
<g style="fill:#C2C2C2; fill-opacity:0.0; 
stroke:#C2C2C2; stroke-width:47.2441; stroke-opacity:1; 
stroke-linecap:round; stroke-linejoin:round;">
</g>
<g style="fill:#C2C2C2; fill-opacity:0.0; 
stroke:#C2C2C2; stroke-width:19.685; stroke-opacity:1; 
stroke-linecap:round; stroke-linejoin:round;">
<path d="M10000 1214
L13741 1214
" />
<path d="M10000 4757
L10000 1214
" />
<path d="M9213 4757
L10000 4757
" />
<path d="M9213 6332
L9213 4757
" />
<path d="M10000 6332
L9213 6332
" />
<path d="M10000 7119
L10000 6332
" />
<path d="M11083 7119
L10000 7119
" />
<path d="M11083 7513
L11083 7119
" />
<path d="M12658 7513
L11083 7513
" />
<path d="M12658 7119
L12658 7513
" />
<path d="M13642 7119
L12658 7119
" />
<path d="M13741 7119
L13741 1214
" />
<path d="M13642 7119
L13741 7119
" />
<circle cx="15009" cy="1744.18" r="1082.68" /> 
<circle cx="3153.01" cy="1676.18" r="1082.68" /> 
<circle cx="15053" cy="16424.2" r="1082.68" /> 
<circle cx="3151.01" cy="16434.2" r="1082.68" /> 
<path d="M12872 12820
L8541 12820
" />
<path d="M12872 17076
L12872 12820
" />
<path d="M8541 17076
L12872 17076
" />
<path d="M8541 12820
L8541 17076
" />
<path d="M8286 14349
L8286 12932
" />
<path d="M5865 14349
L8286 14349
" />
<path d="M5865 12932
L5865 14349
" />
<path d="M8286 12932
L5865 12932
" />
<path d="M8286 19254
L8286 14392
" />
<path d="M5865 19254
L8286 19254
" />
<path d="M5865 14392
L5865 19254
" />
<path d="M8286 14392
L5865 14392
" />
<path d="M15291 12053
L15291 7998
" />
<path d="M13165 12053
L15291 12053
" />
<path d="M13165 7998
L13165 12053
" />
<path d="M15291 7998
L13165 7998
" />
<path d="M11352 7976
L11352 12803
" />
<path d="M12533 7976
L11352 7976
" />
<path d="M12533 12803
L12533 7976
" />
<path d="M11352 12803
L12533 12803
" />
<path d="M13432 12723
L13432 14632
" />
<path d="M15203 12723
L13432 12723
" />
<path d="M15203 14632
L15203 12723
" />
<path d="M13432 14632
L15203 14632
" />
<path d="M3048 3713
L3048 7504
" />
<path d="M3875 3713
L3048 3713
" />
<path d="M3875 7504
L3875 3713
" />
<path d="M3048 7504
L3875 7504
" />
<path d="M4364 5432
L8695 5432
" />
<path d="M4364 1176
L4364 5432
" />
<path d="M8695 1176
L4364 1176
" />
<path d="M8695 5432
L8695 1176
" />
<path d="M10381 9293
L6248 9293
" />
<path d="M10381 11226
L10381 9293
" />
<path d="M6248 11226
L10381 11226
" />
<path d="M6248 9293
L6248 11226
" />
<circle cx="4138.89" cy="12172.2" r="1082.68" /> 
<circle cx="4176.89" cy="9358.18" r="1082.68" /> 
<g >
</g>
<g >
</g>
<g >
</g>
<g >
</g>
<g >
</g>
<g >
</g>
<g >
</g>
<g >
</g>
<g >
</g>
<g >
</g>
<g >
</g>
<g >
</g>
<g >
</g>
<g >
</g>
<g >
</g>
<g >
</g>
<g >
</g>
</g>
<g style="fill:#000000; fill-opacity:0.0; 
stroke:#000000; stroke-width:19.685; stroke-opacity:1; 
stroke-linecap:round; stroke-linejoin:round;">
</g>
<g style="fill:#848484; fill-opacity:0.0; 
stroke:#848484; stroke-width:19.685; stroke-opacity:1; 
stroke-linecap:round; stroke-linejoin:round;">
</g>
<g style="fill:#848484; fill-opacity:0.0; 
stroke:#848484; stroke-width:39.3701; stroke-opacity:1; 
stroke-linecap:round; stroke-linejoin:round;">
<path d="M13642 6726
L13642 1332
" />
<path d="M10099 7041
L13347 7041
" />
<path d="M10099 1332
L10099 7041
" />
<path d="M13642 1332
L10099 1332
" />
<path d="M13642 2710
L10099 2710
" />
<path d="M13644 6724
L13347 7041
" />
<path d="M12067 14620
L11243 15444
" />
<path d="M12139 14692
L11315 15516
" />
<path d="M10098 14620
L9274 15444
" />
<path d="M10171 14692
L9347 15516
" />
<path d="M8738 14162
L12675 14162
" />
<path d="M8738 16091
L12675 16091
" />
<path d="M8738 16682
L12675 16682
" />
<path d="M8738 16682
L8738 13020
" />
<path d="M8935 16879
L8738 16682
" />
<path d="M12675 16879
L8935 16879
" />
<path d="M12675 13020
L12675 16879
" />
<path d="M8738 13020
L12675 13020
" />
<circle cx="11691.5" cy="15068.2" r="590.551" /> 
<circle cx="9723.01" cy="15068.2" r="590.551" /> 
<path d="M7828 13141
L8078 13391
" />
<path d="M6078 13141
L7828 13141
" />
<path d="M6078 14141
L6078 13141
" />
<path d="M8078 14141
L6078 14141
" />
<path d="M8078 13391
L8078 14141
" />
<path d="M6452 16691
L6452 19053
" />
<path d="M6703 19053
L6452 19053
" />
<path d="M6703 16691
L6703 19053
" />
<path d="M6452 14975
L6452 15691
" />
<path d="M6703 14975
L6452 14975
" />
<path d="M6703 14975
L6703 15691
" />
<path d="M7452 16691
L7452 19053
" />
<path d="M7703 19053
L7452 19053
" />
<path d="M7703 16691
L7703 19053
" />
<path d="M7452 14975
L7452 15691
" />
<path d="M7703 14975
L7452 14975
" />
<path d="M7703 14975
L7703 15691
" />
<path d="M7828 15691
L8078 15941
" />
<path d="M6078 15691
L7828 15691
" />
<path d="M6078 16691
L6078 15691
" />
<path d="M8078 16691
L6078 16691
" />
<path d="M8078 15941
L8078 16691
" />
<path d="M14478 9763
L13978 9763
" />
<path d="M14005 9230
L14005 9763
" />
<path d="M14044 9230
L14044 9763
" />
<path d="M14084 9230
L14084 9763
" />
<path d="M14123 9230
L14123 9763
" />
<path d="M14163 9230
L14163 9763
" />
<path d="M14202 9230
L14202 9763
" />
<path d="M14241 9230
L14241 9763
" />
<path d="M14281 9230
L14281 9763
" />
<path d="M14320 9230
L14320 9763
" />
<path d="M14359 9230
L14359 9763
" />
<path d="M14399 9230
L14399 9763
" />
<path d="M14438 9230
L14438 9763
" />
<path d="M14478 10829
L14478 9230
" />
<path d="M13978 10829
L14478 10829
" />
<path d="M13978 9230
L13978 10829
" />
<path d="M14478 9230
L13978 9230
" />
<path d="M14763 8104
L15157 8498
" />
<path d="M13298 8104
L14763 8104
" />
<path d="M13298 11955
L13298 8104
" />
<path d="M15157 11955
L13298 11955
" />
<path d="M15157 8498
L15157 11955
" />
<path d="M11943 8390
L11943 9150
" />
<path d="M11943 12390
L11943 11630
" />
<path d="M11450 9150
L11450 11630
" />
<path d="M12435 9150
L11450 9150
" />
<path d="M12435 11630
L12435 9150
" />
<path d="M11450 11630
L12435 11630
" />
<path d="M13858 14270
L14777 14270
" />
<circle cx="14318" cy="13680.2" r="590.551" /> 
<path d="M14776.9 14271 A748.031 748.031 0.0 1 0 13858.9 14270.7" />
<path d="M3147 6069
L3776 6069
" />
<path d="M3147 5990
L3776 5990
" />
<path d="M3147 6030
L3776 6030
" />
<path d="M3462 4111
L3462 5012
" />
<path d="M3462 7111
L3462 6209
" />
<path d="M3147 5012
L3147 6209
" />
<path d="M3776 5012
L3147 5012
" />
<path d="M3776 6209
L3776 5012
" />
<path d="M3147 6209
L3776 6209
" />
<path d="M5169 3632
L5993 2808
" />
<path d="M5097 3560
L5921 2736
" />
<path d="M7138 3632
L7962 2808
" />
<path d="M7065 3560
L7889 2736
" />
<path d="M8498 4089
L4561 4089
" />
<path d="M8498 2160
L4561 2160
" />
<path d="M8498 1570
L4561 1570
" />
<path d="M8498 1570
L8498 5231
" />
<path d="M8301 1373
L8498 1570
" />
<path d="M4561 1373
L8301 1373
" />
<path d="M4561 5231
L4561 1373
" />
<path d="M8498 5231
L4561 5231
" />
<circle cx="5545.51" cy="3184.18" r="590.551" /> 
<circle cx="7514.01" cy="3184.18" r="590.551" /> 
<path d="M9043 9392
L9043 9892
" />
<path d="M7586 9392
L7586 9892
" />
<path d="M6346 9892
L10283 9892
" />
<path d="M10283 9392
L6346 9392
" />
<path d="M10283 11124
L10283 9392
" />
<path d="M6346 11124
L10283 11124
" />
<path d="M6346 9392
L6346 11124
" />
<path d="M4880 12698
L4880 12501
" />
<path d="M4978 12600
L4782 12600
" />
<circle cx="4138.89" cy="12172.2" r="984.252" /> 
<path d="M4918 9884
L4918 9687
" />
<path d="M5016 9786
L4820 9786
" />
<circle cx="4176.89" cy="9358.18" r="984.252" /> 
<g >
</g>
<g >
</g>
<g >
</g>
<g >
</g>
<g >
</g>
<g >
</g>
<g >
</g>
<g >
</g>
<g >
</g>
<g >
</g>
<g >
</g>
<g >
</g>
<g >
</g>
<g >
</g>
<g >
</g>
<g >
</g>
</g>
<g style="fill:#848484; fill-opacity:0.0; 
stroke:#848484; stroke-width:39.3701; stroke-opacity:1; 
stroke-linecap:round; stroke-linejoin:round;">
</g>
<g style="fill:#848484; fill-opacity:0.0; 
stroke:#848484; stroke-width:59.0551; stroke-opacity:1; 
stroke-linecap:round; stroke-linejoin:round;">
<g transform="rotate(-90 13032.4 5545.08)">
<text x="13032.4" y="5741.93"
textLength="751.687" font-size="524.934" lengthAdjust="spacingAndGlyphs"
text-anchor="middle" opacity="0">J5</text>
</g>
<path d="M12816 5676
L13098 5676
L13154 5695
L13191 5732
L13210 5788
L13210 5826
" />
<path d="M12816 5301
L12816 5488
L13004 5507
L12985 5488
L12966 5451
L12966 5357
L12985 5320
L13004 5301
L13041 5282
L13135 5282
L13173 5301
L13191 5320
L13210 5357
L13210 5451
L13191 5488
L13173 5507
" />
<text x="15127.1" y="1941.03"
textLength="1764.06" font-size="524.934" lengthAdjust="spacingAndGlyphs"
text-anchor="middle" opacity="0">REF**</text>
<path d="M14602 1922
L14470 1734
" />
<path d="M14377 1922
L14377 1528
L14527 1528
L14564 1547
L14583 1566
L14602 1603
L14602 1659
L14583 1697
L14564 1716
L14527 1734
L14377 1734
" />
<path d="M14770 1716
L14902 1716
" />
<path d="M14958 1922
L14770 1922
L14770 1528
L14958 1528
" />
<path d="M15258 1716
L15127 1716
" />
<path d="M15127 1922
L15127 1528
L15314 1528
" />
<path d="M15520 1528
L15520 1622
" />
<path d="M15427 1584
L15520 1622
L15614 1584
" />
<path d="M15464 1697
L15520 1622
L15577 1697
" />
<path d="M15820 1528
L15820 1622
" />
<path d="M15727 1584
L15820 1622
L15914 1584
" />
<path d="M15764 1697
L15820 1622
L15877 1697
" />
<text x="3271.12" y="1873.03"
textLength="1764.06" font-size="524.934" lengthAdjust="spacingAndGlyphs"
text-anchor="middle" opacity="0">REF**</text>
<path d="M2746 1854
L2614 1666
" />
<path d="M2521 1854
L2521 1460
L2671 1460
L2708 1479
L2727 1498
L2746 1535
L2746 1591
L2727 1629
L2708 1648
L2671 1666
L2521 1666
" />
<path d="M2914 1648
L3046 1648
" />
<path d="M3102 1854
L2914 1854
L2914 1460
L3102 1460
" />
<path d="M3402 1648
L3271 1648
" />
<path d="M3271 1854
L3271 1460
L3458 1460
" />
<path d="M3664 1460
L3664 1554
" />
<path d="M3571 1516
L3664 1554
L3758 1516
" />
<path d="M3608 1629
L3664 1554
L3721 1629
" />
<path d="M3964 1460
L3964 1554
" />
<path d="M3871 1516
L3964 1554
L4058 1516
" />
<path d="M3908 1629
L3964 1554
L4021 1629
" />
<text x="15171.1" y="16621"
textLength="1764.06" font-size="524.934" lengthAdjust="spacingAndGlyphs"
text-anchor="middle" opacity="0">REF**</text>
<path d="M14646 16602
L14514 16414
" />
<path d="M14421 16602
L14421 16208
L14571 16208
L14608 16227
L14627 16246
L14646 16283
L14646 16339
L14627 16377
L14608 16396
L14571 16414
L14421 16414
" />
<path d="M14814 16396
L14946 16396
" />
<path d="M15002 16602
L14814 16602
L14814 16208
L15002 16208
" />
<path d="M15302 16396
L15171 16396
" />
<path d="M15171 16602
L15171 16208
L15358 16208
" />
<path d="M15564 16208
L15564 16302
" />
<path d="M15471 16264
L15564 16302
L15658 16264
" />
<path d="M15508 16377
L15564 16302
L15621 16377
" />
<path d="M15864 16208
L15864 16302
" />
<path d="M15771 16264
L15864 16302
L15958 16264
" />
<path d="M15808 16377
L15864 16302
L15921 16377
" />
<text x="3269.12" y="16631"
textLength="1764.06" font-size="524.934" lengthAdjust="spacingAndGlyphs"
text-anchor="middle" opacity="0">REF**</text>
<path d="M2744 16612
L2612 16424
" />
<path d="M2519 16612
L2519 16218
L2669 16218
L2706 16237
L2725 16256
L2744 16293
L2744 16349
L2725 16387
L2706 16406
L2669 16424
L2519 16424
" />
<path d="M2912 16406
L3044 16406
" />
<path d="M3100 16612
L2912 16612
L2912 16218
L3100 16218
" />
<path d="M3400 16406
L3269 16406
" />
<path d="M3269 16612
L3269 16218
L3456 16218
" />
<path d="M3662 16218
L3662 16312
" />
<path d="M3569 16274
L3662 16312
L3756 16274
" />
<path d="M3606 16387
L3662 16312
L3719 16387
" />
<path d="M3962 16218
L3962 16312
" />
<path d="M3869 16274
L3962 16312
L4056 16274
" />
<path d="M3906 16387
L3962 16312
L4019 16387
" />
<text x="10707.3" y="16524.9"
textLength="751.687" font-size="524.934" lengthAdjust="spacingAndGlyphs"
text-anchor="middle" opacity="0">J4</text>
<path d="M10576 16112
L10576 16393
L10557 16449
L10519 16487
L10463 16506
L10426 16506
" />
<path d="M10932 16243
L10932 16506
" />
<path d="M10838 16093
L10744 16374
L10988 16374
" />
<text x="7078.01" y="13838"
textLength="751.687" font-size="524.934" lengthAdjust="spacingAndGlyphs"
text-anchor="middle" opacity="0">J3</text>
<path d="M6946 13425
L6946 13706
L6928 13763
L6890 13800
L6834 13819
L6796 13819
" />
<path d="M7096 13425
L7340 13425
L7209 13575
L7265 13575
L7302 13594
L7321 13613
L7340 13650
L7340 13744
L7321 13781
L7302 13800
L7265 13819
L7153 13819
L7115 13800
L7096 13781
" />
<text x="7078.01" y="16388.6"
textLength="751.687" font-size="524.934" lengthAdjust="spacingAndGlyphs"
text-anchor="middle" opacity="0">J2</text>
<path d="M6946 15976
L6946 16257
L6928 16313
L6890 16351
L6834 16369
L6796 16369
" />
<path d="M7115 16013
L7134 15994
L7171 15976
L7265 15976
L7302 15994
L7321 16013
L7340 16051
L7340 16088
L7321 16144
L7096 16369
L7340 16369
" />
</g>
<g style="fill:#848484; fill-opacity:0.0; 
stroke:#848484; stroke-width:35.4331; stroke-opacity:1; 
stroke-linecap:round; stroke-linejoin:round;">
<g transform="rotate(-90 14817.6 10642.4)">
<text x="14817.6" y="10760.5"
textLength="504.218" font-size="314.961" lengthAdjust="spacingAndGlyphs"
text-anchor="middle" opacity="0">on</text>
</g>
<path d="M14924 10766
L14913 10788
L14901 10799
L14879 10811
L14811 10811
L14789 10799
L14778 10788
L14766 10766
L14766 10732
L14778 10709
L14789 10698
L14811 10687
L14879 10687
L14901 10698
L14913 10709
L14924 10732
L14924 10766
" />
<path d="M14766 10586
L14924 10586
" />
<path d="M14789 10586
L14778 10574
L14766 10552
L14766 10518
L14778 10496
L14800 10484
L14924 10484
" />
<text x="14228" y="11510.5"
textLength="765.973" font-size="314.961" lengthAdjust="spacingAndGlyphs"
text-anchor="middle" opacity="0">SW1</text>
<path d="M13913 11487
L13946 11499
L14003 11499
L14025 11487
L14036 11476
L14048 11454
L14048 11431
L14036 11409
L14025 11398
L14003 11386
L13958 11375
L13935 11364
L13924 11353
L13913 11330
L13913 11308
L13924 11285
L13935 11274
L13958 11263
L14014 11263
L14048 11274
" />
<path d="M14126 11263
L14183 11499
L14228 11330
L14273 11499
L14329 11263
" />
<path d="M14542 11499
L14407 11499
" />
<path d="M14475 11499
L14475 11263
L14452 11296
L14430 11319
L14407 11330
" />
</g>
<g style="fill:#848484; fill-opacity:0.0; 
stroke:#848484; stroke-width:59.0551; stroke-opacity:1; 
stroke-linecap:round; stroke-linejoin:round;">
<g transform="rotate(-90 11943 10390.2)">
<text x="11943" y="10587"
textLength="814.717" font-size="524.934" lengthAdjust="spacingAndGlyphs"
text-anchor="middle" opacity="0">R1</text>
</g>
<path d="M12121 10455
L11933 10587
" />
<path d="M12121 10680
L11727 10680
L11727 10530
L11746 10493
L11764 10474
L11802 10455
L11858 10455
L11896 10474
L11914 10493
L11933 10530
L11933 10680
" />
<path d="M12121 10080
L12121 10305
" />
<path d="M12121 10193
L11727 10193
L11783 10230
L11821 10268
L11839 10305
" />
</g>
<g style="fill:#848484; fill-opacity:0.0; 
stroke:#848484; stroke-width:35.9055; stroke-opacity:1; 
stroke-linecap:round; stroke-linejoin:round;">
<g transform="rotate(-90 3462.01 5521.42)">
<text x="3462.01" y="5641.1"
textLength="544.113" font-size="319.16" lengthAdjust="spacingAndGlyphs"
text-anchor="middle" opacity="0">D1</text>
</g>
<path d="M3570 5698
L3330 5698
L3330 5641
L3342 5606
L3365 5584
L3387 5572
L3433 5561
L3467 5561
L3513 5572
L3536 5584
L3558 5606
L3570 5641
L3570 5698
" />
<path d="M3570 5333
L3570 5470
" />
<path d="M3570 5401
L3330 5401
L3365 5424
L3387 5447
L3399 5470
" />
</g>
<g style="fill:#848484; fill-opacity:0.0; 
stroke:#848484; stroke-width:59.0551; stroke-opacity:1; 
stroke-linecap:round; stroke-linejoin:round;">
<text x="6529.76" y="2121.19"
textLength="721.593" font-size="524.934" lengthAdjust="spacingAndGlyphs"
text-anchor="middle" opacity="0">J1</text>
<path d="M6398 1708
L6398 1989
L6379 2046
L6342 2083
L6286 2102
L6248 2102
" />
<path d="M6792 2102
L6567 2102
" />
<path d="M6679 2102
L6679 1708
L6642 1764
L6604 1802
L6567 1821
" />
<text x="4176.89" y="9555.03"
textLength="845.426" font-size="524.934" lengthAdjust="spacingAndGlyphs"
text-anchor="middle" opacity="0">C1</text>
<path d="M4111 9498
L4092 9517
L4036 9536
L3998 9536
L3942 9517
L3905 9480
L3886 9442
L3867 9367
L3867 9311
L3886 9236
L3905 9198
L3942 9161
L3998 9142
L4036 9142
L4092 9161
L4111 9180
" />
<path d="M4486 9536
L4261 9536
" />
<path d="M4373 9536
L4373 9142
L4336 9198
L4298 9236
L4261 9255
" />
<g >
</g>
</g>
<g style="fill:#000000; fill-opacity:0.0; 
stroke:#000000; stroke-width:59.0551; stroke-opacity:1; 
stroke-linecap:round; stroke-linejoin:round;">
<g >
</g>
<g >
</g>
<g >
</g>
<g >
</g>
<g >
</g>
<g >
</g>
<g >
</g>
<g >
</g>
<g >
</g>
<g >
</g>
<g >
</g>
<g >
</g>
<g >
</g>
<g >
</g>
<g >
</g>
<g >
</g>
<g >
</g>
</g>
<g style="fill:#000000; fill-opacity:0.0; 
stroke:#000000; stroke-width:59.0551; stroke-opacity:1; 
stroke-linecap:round; stroke-linejoin:round;">
</g>
<g style="fill:#000084; fill-opacity:0.0; 
stroke:#000084; stroke-width:59.0551; stroke-opacity:1; 
stroke-linecap:round; stroke-linejoin:round;">
<circle cx="15009" cy="1744.18" r="984.252" /> 
<circle cx="3153.01" cy="1676.18" r="984.252" /> 
<circle cx="15053" cy="16424.2" r="984.252" /> 
<circle cx="3151.01" cy="16434.2" r="984.252" /> 
<g >
</g>
<g >
</g>
<g >
</g>
<g >
</g>
<g >
</g>
<g >
</g>
<g >
</g>
<g >
</g>
<g >
</g>
<g >
</g>
<g >
</g>
<g >
</g>
<g >
</g>
<g >
</g>
<g >
</g>
<g >
</g>
<g >
</g>
</g>
<g style="fill:#000000; fill-opacity:0.0; 
stroke:#000000; stroke-width:59.0551; stroke-opacity:1; 
stroke-linecap:round; stroke-linejoin:round;">
<g >
</g>
<g >
</g>
<g >
</g>
<g >
</g>
<g >
</g>
<g >
</g>
<g >
</g>
<g >
</g>
<g >
</g>
<g >
</g>
<g >
</g>
<g >
</g>
<g >
</g>
<g >
</g>
<g >
</g>
<g >
</g>
<g >
</g>
</g>
<g style="fill:#000000; fill-opacity:0.0; 
stroke:#000000; stroke-width:59.0551; stroke-opacity:1; 
stroke-linecap:round; stroke-linejoin:round;">
<g >
</g>
<g >
</g>
<g >
</g>
<g >
</g>
<g >
</g>
<g >
</g>
<g >
</g>
<g >
</g>
<g >
</g>
<g >
</g>
<g >
</g>
<g >
</g>
<g >
</g>
<g >
</g>
<g >
</g>
<g >
</g>
<g >
</g>
</g>
<g style="fill:#000000; fill-opacity:0.0; 
stroke:#000000; stroke-width:59.0551; stroke-opacity:1; 
stroke-linecap:round; stroke-linejoin:round;">
<g >
</g>
<g >
</g>
<g >
</g>
<g >
</g>
<g >
</g>
<g >
</g>
<g >
</g>
<g >
</g>
<g >
</g>
<g >
</g>
<g >
</g>
<g >
</g>
<g >
</g>
<g >
</g>
<g >
</g>
<g >
</g>
<g >
</g>
</g>
<g style="fill:#000000; fill-opacity:0.0; 
stroke:#000000; stroke-width:59.0551; stroke-opacity:1; 
stroke-linecap:round; stroke-linejoin:round;">
</g>
<g style="fill:#C2C200; fill-opacity:0.0; 
stroke:#C2C200; stroke-width:59.0551; stroke-opacity:1; 
stroke-linecap:round; stroke-linejoin:round;">
</g>
<g style="fill:#C2C200; fill-opacity:0.0; 
stroke:#C2C200; stroke-width:19.685; stroke-opacity:1; 
stroke-linecap:round; stroke-linejoin:round;">
<path d="M2041 564
L2079 564
" />
<path d="M2041 17552
L2041 564
" />
<path d="M2179 17552
L2041 17552
" />
<path d="M16161 17552
L2179 17552
" />
<path d="M16161 564
L16161 17552
" />
<path d="M2079 564
L16161 564
" />
<g >
</g>
<g >
</g>
<g >
</g>
<g >
</g>
<g >
</g>
<g >
</g>
<g >
</g>
<g >
</g>
<g >
</g>
<g >
</g>
<g >
</g>
<g >
</g>
<g >
</g>
<g >
</g>
<g >
</g>
<g >
</g>
<g >
</g>
</g> 
</svg>
