%TF.GenerationSoftware,KiCad,Pcbnew,(5.1.10-1-10_14)*%
%TF.CreationDate,2021-12-06T09:48:52-05:00*%
%TF.ProjectId,control-unit-eeprom,636f6e74-726f-46c2-9d75-6e69742d6565,rev?*%
%TF.SameCoordinates,Original*%
%TF.FileFunction,Legend,Top*%
%TF.FilePolarity,Positive*%
%FSLAX46Y46*%
G04 Gerber Fmt 4.6, Leading zero omitted, Abs format (unit mm)*
G04 Created by KiCad (PCBNEW (5.1.10-1-10_14)) date 2021-12-06 09:48:52*
%MOMM*%
%LPD*%
G01*
G04 APERTURE LIST*
%ADD10C,0.100000*%
%ADD11C,0.150000*%
%ADD12C,0.600000*%
%ADD13C,0.120000*%
G04 APERTURE END LIST*
D10*
X64040095Y-162504380D02*
X64040095Y-161504380D01*
X64516285Y-161837714D02*
X64516285Y-162504380D01*
X64516285Y-161932952D02*
X64563904Y-161885333D01*
X64659142Y-161837714D01*
X64802000Y-161837714D01*
X64897238Y-161885333D01*
X64944857Y-161980571D01*
X64944857Y-162504380D01*
X65278190Y-161837714D02*
X65659142Y-161837714D01*
X65421047Y-161504380D02*
X65421047Y-162361523D01*
X65468666Y-162456761D01*
X65563904Y-162504380D01*
X65659142Y-162504380D01*
X66706761Y-162218666D02*
X67182952Y-162218666D01*
X66611523Y-162504380D02*
X66944857Y-161504380D01*
X67278190Y-162504380D01*
X68040095Y-162504380D02*
X68040095Y-161504380D01*
X68040095Y-162456761D02*
X67944857Y-162504380D01*
X67754380Y-162504380D01*
X67659142Y-162456761D01*
X67611523Y-162409142D01*
X67563904Y-162313904D01*
X67563904Y-162028190D01*
X67611523Y-161932952D01*
X67659142Y-161885333D01*
X67754380Y-161837714D01*
X67944857Y-161837714D01*
X68040095Y-161885333D01*
X68944857Y-162504380D02*
X68944857Y-161504380D01*
X68944857Y-162456761D02*
X68849619Y-162504380D01*
X68659142Y-162504380D01*
X68563904Y-162456761D01*
X68516285Y-162409142D01*
X68468666Y-162313904D01*
X68468666Y-162028190D01*
X68516285Y-161932952D01*
X68563904Y-161885333D01*
X68659142Y-161837714D01*
X68849619Y-161837714D01*
X68944857Y-161885333D01*
X69421047Y-162504380D02*
X69421047Y-161837714D01*
X69421047Y-162028190D02*
X69468666Y-161932952D01*
X69516285Y-161885333D01*
X69611523Y-161837714D01*
X69706761Y-161837714D01*
X63419190Y-158710380D02*
X63514428Y-158710380D01*
X63609666Y-158758000D01*
X63657285Y-158805619D01*
X63704904Y-158900857D01*
X63752523Y-159091333D01*
X63752523Y-159329428D01*
X63704904Y-159519904D01*
X63657285Y-159615142D01*
X63609666Y-159662761D01*
X63514428Y-159710380D01*
X63419190Y-159710380D01*
X63323952Y-159662761D01*
X63276333Y-159615142D01*
X63228714Y-159519904D01*
X63181095Y-159329428D01*
X63181095Y-159091333D01*
X63228714Y-158900857D01*
X63276333Y-158805619D01*
X63323952Y-158758000D01*
X63419190Y-158710380D01*
X63752523Y-157170380D02*
X63181095Y-157170380D01*
X63466809Y-157170380D02*
X63466809Y-156170380D01*
X63371571Y-156313238D01*
X63276333Y-156408476D01*
X63181095Y-156456095D01*
X63704904Y-153630380D02*
X63228714Y-153630380D01*
X63181095Y-154106571D01*
X63228714Y-154058952D01*
X63323952Y-154011333D01*
X63562047Y-154011333D01*
X63657285Y-154058952D01*
X63704904Y-154106571D01*
X63752523Y-154201809D01*
X63752523Y-154439904D01*
X63704904Y-154535142D01*
X63657285Y-154582761D01*
X63562047Y-154630380D01*
X63323952Y-154630380D01*
X63228714Y-154582761D01*
X63181095Y-154535142D01*
X63657285Y-151090380D02*
X63466809Y-151090380D01*
X63371571Y-151138000D01*
X63323952Y-151185619D01*
X63228714Y-151328476D01*
X63181095Y-151518952D01*
X63181095Y-151899904D01*
X63228714Y-151995142D01*
X63276333Y-152042761D01*
X63371571Y-152090380D01*
X63562047Y-152090380D01*
X63657285Y-152042761D01*
X63704904Y-151995142D01*
X63752523Y-151899904D01*
X63752523Y-151661809D01*
X63704904Y-151566571D01*
X63657285Y-151518952D01*
X63562047Y-151471333D01*
X63371571Y-151471333D01*
X63276333Y-151518952D01*
X63228714Y-151566571D01*
X63181095Y-151661809D01*
X63133476Y-148550380D02*
X63800142Y-148550380D01*
X63371571Y-149550380D01*
X50840190Y-165688095D02*
X50840190Y-164388095D01*
X51459238Y-164821428D02*
X51459238Y-165688095D01*
X51459238Y-164945238D02*
X51521142Y-164883333D01*
X51644952Y-164821428D01*
X51830666Y-164821428D01*
X51954476Y-164883333D01*
X52016380Y-165007142D01*
X52016380Y-165688095D01*
X52573523Y-165626190D02*
X52697333Y-165688095D01*
X52944952Y-165688095D01*
X53068761Y-165626190D01*
X53130666Y-165502380D01*
X53130666Y-165440476D01*
X53068761Y-165316666D01*
X52944952Y-165254761D01*
X52759238Y-165254761D01*
X52635428Y-165192857D01*
X52573523Y-165069047D01*
X52573523Y-165007142D01*
X52635428Y-164883333D01*
X52759238Y-164821428D01*
X52944952Y-164821428D01*
X53068761Y-164883333D01*
X53502095Y-164821428D02*
X53997333Y-164821428D01*
X53687809Y-164388095D02*
X53687809Y-165502380D01*
X53749714Y-165626190D01*
X53873523Y-165688095D01*
X53997333Y-165688095D01*
X55421142Y-165688095D02*
X55421142Y-164388095D01*
X55854476Y-165316666D01*
X56287809Y-164388095D01*
X56287809Y-165688095D01*
X56906857Y-164388095D02*
X56906857Y-165440476D01*
X56968761Y-165564285D01*
X57030666Y-165626190D01*
X57154476Y-165688095D01*
X57402095Y-165688095D01*
X57525904Y-165626190D01*
X57587809Y-165564285D01*
X57649714Y-165440476D01*
X57649714Y-164388095D01*
X58144952Y-164388095D02*
X59011619Y-165688095D01*
X59011619Y-164388095D02*
X58144952Y-165688095D01*
X-22659333Y-162356095D02*
X-22411714Y-162356095D01*
X-22287904Y-162418000D01*
X-22164095Y-162541809D01*
X-22102190Y-162789428D01*
X-22102190Y-163222761D01*
X-22164095Y-163470380D01*
X-22287904Y-163594190D01*
X-22411714Y-163656095D01*
X-22659333Y-163656095D01*
X-22783142Y-163594190D01*
X-22906952Y-163470380D01*
X-22968857Y-163222761D01*
X-22968857Y-162789428D01*
X-22906952Y-162541809D01*
X-22783142Y-162418000D01*
X-22659333Y-162356095D01*
X-21545047Y-162789428D02*
X-21545047Y-164089428D01*
X-21545047Y-162851333D02*
X-21421238Y-162789428D01*
X-21173619Y-162789428D01*
X-21049809Y-162851333D01*
X-20987904Y-162913238D01*
X-20926000Y-163037047D01*
X-20926000Y-163408476D01*
X-20987904Y-163532285D01*
X-21049809Y-163594190D01*
X-21173619Y-163656095D01*
X-21421238Y-163656095D01*
X-21545047Y-163594190D01*
X-19873619Y-163594190D02*
X-19997428Y-163656095D01*
X-20245047Y-163656095D01*
X-20368857Y-163594190D01*
X-20430761Y-163470380D01*
X-20430761Y-162975142D01*
X-20368857Y-162851333D01*
X-20245047Y-162789428D01*
X-19997428Y-162789428D01*
X-19873619Y-162851333D01*
X-19811714Y-162975142D01*
X-19811714Y-163098952D01*
X-20430761Y-163222761D01*
X-18697428Y-163656095D02*
X-18697428Y-162975142D01*
X-18759333Y-162851333D01*
X-18883142Y-162789428D01*
X-19130761Y-162789428D01*
X-19254571Y-162851333D01*
X-18697428Y-163594190D02*
X-18821238Y-163656095D01*
X-19130761Y-163656095D01*
X-19254571Y-163594190D01*
X-19316476Y-163470380D01*
X-19316476Y-163346571D01*
X-19254571Y-163222761D01*
X-19130761Y-163160857D01*
X-18821238Y-163160857D01*
X-18697428Y-163098952D01*
X-18264095Y-162789428D02*
X-17768857Y-162789428D01*
X-18078380Y-162356095D02*
X-18078380Y-163470380D01*
X-18016476Y-163594190D01*
X-17892666Y-163656095D01*
X-17768857Y-163656095D01*
X-17335523Y-163656095D02*
X-17335523Y-162789428D01*
X-17335523Y-162356095D02*
X-17397428Y-162418000D01*
X-17335523Y-162479904D01*
X-17273619Y-162418000D01*
X-17335523Y-162356095D01*
X-17335523Y-162479904D01*
X-16530761Y-163656095D02*
X-16654571Y-163594190D01*
X-16716476Y-163532285D01*
X-16778380Y-163408476D01*
X-16778380Y-163037047D01*
X-16716476Y-162913238D01*
X-16654571Y-162851333D01*
X-16530761Y-162789428D01*
X-16345047Y-162789428D01*
X-16221238Y-162851333D01*
X-16159333Y-162913238D01*
X-16097428Y-163037047D01*
X-16097428Y-163408476D01*
X-16159333Y-163532285D01*
X-16221238Y-163594190D01*
X-16345047Y-163656095D01*
X-16530761Y-163656095D01*
X-15540285Y-162789428D02*
X-15540285Y-163656095D01*
X-15540285Y-162913238D02*
X-15478380Y-162851333D01*
X-15354571Y-162789428D01*
X-15168857Y-162789428D01*
X-15045047Y-162851333D01*
X-14983142Y-162975142D01*
X-14983142Y-163656095D01*
X-12630761Y-163532285D02*
X-12692666Y-163594190D01*
X-12878380Y-163656095D01*
X-13002190Y-163656095D01*
X-13187904Y-163594190D01*
X-13311714Y-163470380D01*
X-13373619Y-163346571D01*
X-13435523Y-163098952D01*
X-13435523Y-162913238D01*
X-13373619Y-162665619D01*
X-13311714Y-162541809D01*
X-13187904Y-162418000D01*
X-13002190Y-162356095D01*
X-12878380Y-162356095D01*
X-12692666Y-162418000D01*
X-12630761Y-162479904D01*
X-11887904Y-163656095D02*
X-12011714Y-163594190D01*
X-12073619Y-163532285D01*
X-12135523Y-163408476D01*
X-12135523Y-163037047D01*
X-12073619Y-162913238D01*
X-12011714Y-162851333D01*
X-11887904Y-162789428D01*
X-11702190Y-162789428D01*
X-11578380Y-162851333D01*
X-11516476Y-162913238D01*
X-11454571Y-163037047D01*
X-11454571Y-163408476D01*
X-11516476Y-163532285D01*
X-11578380Y-163594190D01*
X-11702190Y-163656095D01*
X-11887904Y-163656095D01*
X-10340285Y-162789428D02*
X-10340285Y-163656095D01*
X-10897428Y-162789428D02*
X-10897428Y-163470380D01*
X-10835523Y-163594190D01*
X-10711714Y-163656095D01*
X-10526000Y-163656095D01*
X-10402190Y-163594190D01*
X-10340285Y-163532285D01*
X-9721238Y-162789428D02*
X-9721238Y-163656095D01*
X-9721238Y-162913238D02*
X-9659333Y-162851333D01*
X-9535523Y-162789428D01*
X-9349809Y-162789428D01*
X-9226000Y-162851333D01*
X-9164095Y-162975142D01*
X-9164095Y-163656095D01*
X-8730761Y-162789428D02*
X-8235523Y-162789428D01*
X-8545047Y-162356095D02*
X-8545047Y-163470380D01*
X-8483142Y-163594190D01*
X-8359333Y-163656095D01*
X-8235523Y-163656095D01*
X-7306952Y-163594190D02*
X-7430761Y-163656095D01*
X-7678380Y-163656095D01*
X-7802190Y-163594190D01*
X-7864095Y-163470380D01*
X-7864095Y-162975142D01*
X-7802190Y-162851333D01*
X-7678380Y-162789428D01*
X-7430761Y-162789428D01*
X-7306952Y-162851333D01*
X-7245047Y-162975142D01*
X-7245047Y-163098952D01*
X-7864095Y-163222761D01*
X-6687904Y-163656095D02*
X-6687904Y-162789428D01*
X-6687904Y-163037047D02*
X-6626000Y-162913238D01*
X-6564095Y-162851333D01*
X-6440285Y-162789428D01*
X-6316476Y-162789428D01*
X-5016476Y-162789428D02*
X-4768857Y-163656095D01*
X-4521238Y-163037047D01*
X-4273619Y-163656095D01*
X-4026000Y-162789428D01*
X-2602190Y-162294190D02*
X-3716476Y-163965619D01*
X-1302190Y-162356095D02*
X-435523Y-162356095D01*
X-1302190Y-163656095D01*
X-435523Y-163656095D01*
X493047Y-162975142D02*
X59714Y-162975142D01*
X59714Y-163656095D02*
X59714Y-162356095D01*
X678761Y-162356095D01*
D11*
X-14364690Y-147788380D02*
X-14364690Y-148502666D01*
X-14412309Y-148645523D01*
X-14507547Y-148740761D01*
X-14650404Y-148788380D01*
X-14745642Y-148788380D01*
X-13412309Y-148788380D02*
X-13888500Y-148788380D01*
X-13888500Y-147788380D01*
X-12507547Y-148693142D02*
X-12555166Y-148740761D01*
X-12698023Y-148788380D01*
X-12793261Y-148788380D01*
X-12936119Y-148740761D01*
X-13031357Y-148645523D01*
X-13078976Y-148550285D01*
X-13126595Y-148359809D01*
X-13126595Y-148216952D01*
X-13078976Y-148026476D01*
X-13031357Y-147931238D01*
X-12936119Y-147836000D01*
X-12793261Y-147788380D01*
X-12698023Y-147788380D01*
X-12555166Y-147836000D01*
X-12507547Y-147883619D01*
X-11793261Y-147788380D02*
X-11793261Y-148502666D01*
X-11840880Y-148645523D01*
X-11936119Y-148740761D01*
X-12078976Y-148788380D01*
X-12174214Y-148788380D01*
X-10840880Y-148788380D02*
X-11317071Y-148788380D01*
X-11317071Y-147788380D01*
X-9936119Y-148693142D02*
X-9983738Y-148740761D01*
X-10126595Y-148788380D01*
X-10221833Y-148788380D01*
X-10364690Y-148740761D01*
X-10459928Y-148645523D01*
X-10507547Y-148550285D01*
X-10555166Y-148359809D01*
X-10555166Y-148216952D01*
X-10507547Y-148026476D01*
X-10459928Y-147931238D01*
X-10364690Y-147836000D01*
X-10221833Y-147788380D01*
X-10126595Y-147788380D01*
X-9983738Y-147836000D01*
X-9936119Y-147883619D01*
X-9221833Y-147788380D02*
X-9221833Y-148502666D01*
X-9269452Y-148645523D01*
X-9364690Y-148740761D01*
X-9507547Y-148788380D01*
X-9602785Y-148788380D01*
X-8269452Y-148788380D02*
X-8745642Y-148788380D01*
X-8745642Y-147788380D01*
X-7364690Y-148693142D02*
X-7412309Y-148740761D01*
X-7555166Y-148788380D01*
X-7650404Y-148788380D01*
X-7793261Y-148740761D01*
X-7888500Y-148645523D01*
X-7936119Y-148550285D01*
X-7983738Y-148359809D01*
X-7983738Y-148216952D01*
X-7936119Y-148026476D01*
X-7888500Y-147931238D01*
X-7793261Y-147836000D01*
X-7650404Y-147788380D01*
X-7555166Y-147788380D01*
X-7412309Y-147836000D01*
X-7364690Y-147883619D01*
X-6650404Y-147788380D02*
X-6650404Y-148502666D01*
X-6698023Y-148645523D01*
X-6793261Y-148740761D01*
X-6936119Y-148788380D01*
X-7031357Y-148788380D01*
X-5698023Y-148788380D02*
X-6174214Y-148788380D01*
X-6174214Y-147788380D01*
X-4793261Y-148693142D02*
X-4840880Y-148740761D01*
X-4983738Y-148788380D01*
X-5078976Y-148788380D01*
X-5221833Y-148740761D01*
X-5317071Y-148645523D01*
X-5364690Y-148550285D01*
X-5412309Y-148359809D01*
X-5412309Y-148216952D01*
X-5364690Y-148026476D01*
X-5317071Y-147931238D01*
X-5221833Y-147836000D01*
X-5078976Y-147788380D01*
X-4983738Y-147788380D01*
X-4840880Y-147836000D01*
X-4793261Y-147883619D01*
D10*
X25079809Y-160009619D02*
X25079809Y-158909619D01*
X25446476Y-159695333D01*
X25813142Y-158909619D01*
X25813142Y-160009619D01*
X26336952Y-160009619D02*
X26336952Y-159276285D01*
X26336952Y-158909619D02*
X26284571Y-158962000D01*
X26336952Y-159014380D01*
X26389333Y-158962000D01*
X26336952Y-158909619D01*
X26336952Y-159014380D01*
X27332190Y-159957238D02*
X27227428Y-160009619D01*
X27017904Y-160009619D01*
X26913142Y-159957238D01*
X26860761Y-159904857D01*
X26808380Y-159800095D01*
X26808380Y-159485809D01*
X26860761Y-159381047D01*
X26913142Y-159328666D01*
X27017904Y-159276285D01*
X27227428Y-159276285D01*
X27332190Y-159328666D01*
X27803619Y-160009619D02*
X27803619Y-159276285D01*
X27803619Y-159485809D02*
X27856000Y-159381047D01*
X27908380Y-159328666D01*
X28013142Y-159276285D01*
X28117904Y-159276285D01*
X28641714Y-160009619D02*
X28536952Y-159957238D01*
X28484571Y-159904857D01*
X28432190Y-159800095D01*
X28432190Y-159485809D01*
X28484571Y-159381047D01*
X28536952Y-159328666D01*
X28641714Y-159276285D01*
X28798857Y-159276285D01*
X28903619Y-159328666D01*
X28956000Y-159381047D01*
X29008380Y-159485809D01*
X29008380Y-159800095D01*
X28956000Y-159904857D01*
X28903619Y-159957238D01*
X28798857Y-160009619D01*
X28641714Y-160009619D01*
X29951238Y-159957238D02*
X29846476Y-160009619D01*
X29636952Y-160009619D01*
X29532190Y-159957238D01*
X29479809Y-159904857D01*
X29427428Y-159800095D01*
X29427428Y-159485809D01*
X29479809Y-159381047D01*
X29532190Y-159328666D01*
X29636952Y-159276285D01*
X29846476Y-159276285D01*
X29951238Y-159328666D01*
X30579809Y-160009619D02*
X30475047Y-159957238D01*
X30422666Y-159904857D01*
X30370285Y-159800095D01*
X30370285Y-159485809D01*
X30422666Y-159381047D01*
X30475047Y-159328666D01*
X30579809Y-159276285D01*
X30736952Y-159276285D01*
X30841714Y-159328666D01*
X30894095Y-159381047D01*
X30946476Y-159485809D01*
X30946476Y-159800095D01*
X30894095Y-159904857D01*
X30841714Y-159957238D01*
X30736952Y-160009619D01*
X30579809Y-160009619D01*
X31889333Y-160009619D02*
X31889333Y-158909619D01*
X31889333Y-159957238D02*
X31784571Y-160009619D01*
X31575047Y-160009619D01*
X31470285Y-159957238D01*
X31417904Y-159904857D01*
X31365523Y-159800095D01*
X31365523Y-159485809D01*
X31417904Y-159381047D01*
X31470285Y-159328666D01*
X31575047Y-159276285D01*
X31784571Y-159276285D01*
X31889333Y-159328666D01*
X32832190Y-159957238D02*
X32727428Y-160009619D01*
X32517904Y-160009619D01*
X32413142Y-159957238D01*
X32360761Y-159852476D01*
X32360761Y-159433428D01*
X32413142Y-159328666D01*
X32517904Y-159276285D01*
X32727428Y-159276285D01*
X32832190Y-159328666D01*
X32884571Y-159433428D01*
X32884571Y-159538190D01*
X32360761Y-159642952D01*
X-13020190Y-160009619D02*
X-13020190Y-158909619D01*
X-12653523Y-159695333D01*
X-12286857Y-158909619D01*
X-12286857Y-160009619D01*
X-11763047Y-160009619D02*
X-11763047Y-159276285D01*
X-11763047Y-158909619D02*
X-11815428Y-158962000D01*
X-11763047Y-159014380D01*
X-11710666Y-158962000D01*
X-11763047Y-158909619D01*
X-11763047Y-159014380D01*
X-10767809Y-159957238D02*
X-10872571Y-160009619D01*
X-11082095Y-160009619D01*
X-11186857Y-159957238D01*
X-11239238Y-159904857D01*
X-11291619Y-159800095D01*
X-11291619Y-159485809D01*
X-11239238Y-159381047D01*
X-11186857Y-159328666D01*
X-11082095Y-159276285D01*
X-10872571Y-159276285D01*
X-10767809Y-159328666D01*
X-10296380Y-160009619D02*
X-10296380Y-159276285D01*
X-10296380Y-159485809D02*
X-10244000Y-159381047D01*
X-10191619Y-159328666D01*
X-10086857Y-159276285D01*
X-9982095Y-159276285D01*
X-9458285Y-160009619D02*
X-9563047Y-159957238D01*
X-9615428Y-159904857D01*
X-9667809Y-159800095D01*
X-9667809Y-159485809D01*
X-9615428Y-159381047D01*
X-9563047Y-159328666D01*
X-9458285Y-159276285D01*
X-9301142Y-159276285D01*
X-9196380Y-159328666D01*
X-9144000Y-159381047D01*
X-9091619Y-159485809D01*
X-9091619Y-159800095D01*
X-9144000Y-159904857D01*
X-9196380Y-159957238D01*
X-9301142Y-160009619D01*
X-9458285Y-160009619D01*
X-8148761Y-159957238D02*
X-8253523Y-160009619D01*
X-8463047Y-160009619D01*
X-8567809Y-159957238D01*
X-8620190Y-159904857D01*
X-8672571Y-159800095D01*
X-8672571Y-159485809D01*
X-8620190Y-159381047D01*
X-8567809Y-159328666D01*
X-8463047Y-159276285D01*
X-8253523Y-159276285D01*
X-8148761Y-159328666D01*
X-7520190Y-160009619D02*
X-7624952Y-159957238D01*
X-7677333Y-159904857D01*
X-7729714Y-159800095D01*
X-7729714Y-159485809D01*
X-7677333Y-159381047D01*
X-7624952Y-159328666D01*
X-7520190Y-159276285D01*
X-7363047Y-159276285D01*
X-7258285Y-159328666D01*
X-7205904Y-159381047D01*
X-7153523Y-159485809D01*
X-7153523Y-159800095D01*
X-7205904Y-159904857D01*
X-7258285Y-159957238D01*
X-7363047Y-160009619D01*
X-7520190Y-160009619D01*
X-6210666Y-160009619D02*
X-6210666Y-158909619D01*
X-6210666Y-159957238D02*
X-6315428Y-160009619D01*
X-6524952Y-160009619D01*
X-6629714Y-159957238D01*
X-6682095Y-159904857D01*
X-6734476Y-159800095D01*
X-6734476Y-159485809D01*
X-6682095Y-159381047D01*
X-6629714Y-159328666D01*
X-6524952Y-159276285D01*
X-6315428Y-159276285D01*
X-6210666Y-159328666D01*
X-5267809Y-159957238D02*
X-5372571Y-160009619D01*
X-5582095Y-160009619D01*
X-5686857Y-159957238D01*
X-5739238Y-159852476D01*
X-5739238Y-159433428D01*
X-5686857Y-159328666D01*
X-5582095Y-159276285D01*
X-5372571Y-159276285D01*
X-5267809Y-159328666D01*
X-5215428Y-159433428D01*
X-5215428Y-159538190D01*
X-5739238Y-159642952D01*
D11*
X48840285Y-135114571D02*
X48840285Y-133614571D01*
X49340285Y-134686000D01*
X49840285Y-133614571D01*
X49840285Y-135114571D01*
X50554571Y-135114571D02*
X50554571Y-134114571D01*
X50554571Y-133614571D02*
X50483142Y-133686000D01*
X50554571Y-133757428D01*
X50626000Y-133686000D01*
X50554571Y-133614571D01*
X50554571Y-133757428D01*
X51911714Y-135043142D02*
X51768857Y-135114571D01*
X51483142Y-135114571D01*
X51340285Y-135043142D01*
X51268857Y-134971714D01*
X51197428Y-134828857D01*
X51197428Y-134400285D01*
X51268857Y-134257428D01*
X51340285Y-134186000D01*
X51483142Y-134114571D01*
X51768857Y-134114571D01*
X51911714Y-134186000D01*
X52554571Y-135114571D02*
X52554571Y-134114571D01*
X52554571Y-134400285D02*
X52626000Y-134257428D01*
X52697428Y-134186000D01*
X52840285Y-134114571D01*
X52983142Y-134114571D01*
X53697428Y-135114571D02*
X53554571Y-135043142D01*
X53483142Y-134971714D01*
X53411714Y-134828857D01*
X53411714Y-134400285D01*
X53483142Y-134257428D01*
X53554571Y-134186000D01*
X53697428Y-134114571D01*
X53911714Y-134114571D01*
X54054571Y-134186000D01*
X54126000Y-134257428D01*
X54197428Y-134400285D01*
X54197428Y-134828857D01*
X54126000Y-134971714D01*
X54054571Y-135043142D01*
X53911714Y-135114571D01*
X53697428Y-135114571D01*
X55483142Y-135043142D02*
X55340285Y-135114571D01*
X55054571Y-135114571D01*
X54911714Y-135043142D01*
X54840285Y-134971714D01*
X54768857Y-134828857D01*
X54768857Y-134400285D01*
X54840285Y-134257428D01*
X54911714Y-134186000D01*
X55054571Y-134114571D01*
X55340285Y-134114571D01*
X55483142Y-134186000D01*
X56340285Y-135114571D02*
X56197428Y-135043142D01*
X56126000Y-134971714D01*
X56054571Y-134828857D01*
X56054571Y-134400285D01*
X56126000Y-134257428D01*
X56197428Y-134186000D01*
X56340285Y-134114571D01*
X56554571Y-134114571D01*
X56697428Y-134186000D01*
X56768857Y-134257428D01*
X56840285Y-134400285D01*
X56840285Y-134828857D01*
X56768857Y-134971714D01*
X56697428Y-135043142D01*
X56554571Y-135114571D01*
X56340285Y-135114571D01*
X58126000Y-135114571D02*
X58126000Y-133614571D01*
X58126000Y-135043142D02*
X57983142Y-135114571D01*
X57697428Y-135114571D01*
X57554571Y-135043142D01*
X57483142Y-134971714D01*
X57411714Y-134828857D01*
X57411714Y-134400285D01*
X57483142Y-134257428D01*
X57554571Y-134186000D01*
X57697428Y-134114571D01*
X57983142Y-134114571D01*
X58126000Y-134186000D01*
X59411714Y-135043142D02*
X59268857Y-135114571D01*
X58983142Y-135114571D01*
X58840285Y-135043142D01*
X58768857Y-134900285D01*
X58768857Y-134328857D01*
X58840285Y-134186000D01*
X58983142Y-134114571D01*
X59268857Y-134114571D01*
X59411714Y-134186000D01*
X59483142Y-134328857D01*
X59483142Y-134471714D01*
X58768857Y-134614571D01*
X62483142Y-135114571D02*
X62411714Y-135114571D01*
X62268857Y-135043142D01*
X62054571Y-134828857D01*
X61697428Y-134400285D01*
X61554571Y-134186000D01*
X61483142Y-133971714D01*
X61483142Y-133828857D01*
X61554571Y-133686000D01*
X61697428Y-133614571D01*
X61768857Y-133614571D01*
X61911714Y-133686000D01*
X61983142Y-133828857D01*
X61983142Y-133900285D01*
X61911714Y-134043142D01*
X61840285Y-134114571D01*
X61411714Y-134400285D01*
X61340285Y-134471714D01*
X61268857Y-134614571D01*
X61268857Y-134828857D01*
X61340285Y-134971714D01*
X61411714Y-135043142D01*
X61554571Y-135114571D01*
X61768857Y-135114571D01*
X61911714Y-135043142D01*
X61983142Y-134971714D01*
X62197428Y-134686000D01*
X62268857Y-134471714D01*
X62268857Y-134328857D01*
X49983142Y-137514571D02*
X49983142Y-136014571D01*
X50697428Y-136514571D02*
X50697428Y-137514571D01*
X50697428Y-136657428D02*
X50768857Y-136586000D01*
X50911714Y-136514571D01*
X51126000Y-136514571D01*
X51268857Y-136586000D01*
X51340285Y-136728857D01*
X51340285Y-137514571D01*
X51983142Y-137443142D02*
X52126000Y-137514571D01*
X52411714Y-137514571D01*
X52554571Y-137443142D01*
X52626000Y-137300285D01*
X52626000Y-137228857D01*
X52554571Y-137086000D01*
X52411714Y-137014571D01*
X52197428Y-137014571D01*
X52054571Y-136943142D01*
X51983142Y-136800285D01*
X51983142Y-136728857D01*
X52054571Y-136586000D01*
X52197428Y-136514571D01*
X52411714Y-136514571D01*
X52554571Y-136586000D01*
X53054571Y-136514571D02*
X53626000Y-136514571D01*
X53268857Y-136014571D02*
X53268857Y-137300285D01*
X53340285Y-137443142D01*
X53483142Y-137514571D01*
X53626000Y-137514571D01*
X54126000Y-137514571D02*
X54126000Y-136514571D01*
X54126000Y-136800285D02*
X54197428Y-136657428D01*
X54268857Y-136586000D01*
X54411714Y-136514571D01*
X54554571Y-136514571D01*
X55697428Y-136514571D02*
X55697428Y-137514571D01*
X55054571Y-136514571D02*
X55054571Y-137300285D01*
X55126000Y-137443142D01*
X55268857Y-137514571D01*
X55483142Y-137514571D01*
X55626000Y-137443142D01*
X55697428Y-137371714D01*
X57054571Y-137443142D02*
X56911714Y-137514571D01*
X56626000Y-137514571D01*
X56483142Y-137443142D01*
X56411714Y-137371714D01*
X56340285Y-137228857D01*
X56340285Y-136800285D01*
X56411714Y-136657428D01*
X56483142Y-136586000D01*
X56626000Y-136514571D01*
X56911714Y-136514571D01*
X57054571Y-136586000D01*
X57483142Y-136514571D02*
X58054571Y-136514571D01*
X57697428Y-136014571D02*
X57697428Y-137300285D01*
X57768857Y-137443142D01*
X57911714Y-137514571D01*
X58054571Y-137514571D01*
X58554571Y-137514571D02*
X58554571Y-136514571D01*
X58554571Y-136014571D02*
X58483142Y-136086000D01*
X58554571Y-136157428D01*
X58626000Y-136086000D01*
X58554571Y-136014571D01*
X58554571Y-136157428D01*
X59483142Y-137514571D02*
X59340285Y-137443142D01*
X59268857Y-137371714D01*
X59197428Y-137228857D01*
X59197428Y-136800285D01*
X59268857Y-136657428D01*
X59340285Y-136586000D01*
X59483142Y-136514571D01*
X59697428Y-136514571D01*
X59840285Y-136586000D01*
X59911714Y-136657428D01*
X59983142Y-136800285D01*
X59983142Y-137228857D01*
X59911714Y-137371714D01*
X59840285Y-137443142D01*
X59697428Y-137514571D01*
X59483142Y-137514571D01*
X60626000Y-136514571D02*
X60626000Y-137514571D01*
X60626000Y-136657428D02*
X60697428Y-136586000D01*
X60840285Y-136514571D01*
X61054571Y-136514571D01*
X61197428Y-136586000D01*
X61268857Y-136728857D01*
X61268857Y-137514571D01*
D10*
X25456000Y-138088666D02*
X25932190Y-138088666D01*
X25360761Y-138374380D02*
X25694095Y-137374380D01*
X26027428Y-138374380D01*
X26217904Y-137374380D02*
X26789333Y-137374380D01*
X26503619Y-138374380D02*
X26503619Y-137374380D01*
X27075047Y-137469619D02*
X27122666Y-137422000D01*
X27217904Y-137374380D01*
X27456000Y-137374380D01*
X27551238Y-137422000D01*
X27598857Y-137469619D01*
X27646476Y-137564857D01*
X27646476Y-137660095D01*
X27598857Y-137802952D01*
X27027428Y-138374380D01*
X27646476Y-138374380D01*
X28217904Y-137802952D02*
X28122666Y-137755333D01*
X28075047Y-137707714D01*
X28027428Y-137612476D01*
X28027428Y-137564857D01*
X28075047Y-137469619D01*
X28122666Y-137422000D01*
X28217904Y-137374380D01*
X28408380Y-137374380D01*
X28503619Y-137422000D01*
X28551238Y-137469619D01*
X28598857Y-137564857D01*
X28598857Y-137612476D01*
X28551238Y-137707714D01*
X28503619Y-137755333D01*
X28408380Y-137802952D01*
X28217904Y-137802952D01*
X28122666Y-137850571D01*
X28075047Y-137898190D01*
X28027428Y-137993428D01*
X28027428Y-138183904D01*
X28075047Y-138279142D01*
X28122666Y-138326761D01*
X28217904Y-138374380D01*
X28408380Y-138374380D01*
X28503619Y-138326761D01*
X28551238Y-138279142D01*
X28598857Y-138183904D01*
X28598857Y-137993428D01*
X28551238Y-137898190D01*
X28503619Y-137850571D01*
X28408380Y-137802952D01*
X29598857Y-138279142D02*
X29551238Y-138326761D01*
X29408380Y-138374380D01*
X29313142Y-138374380D01*
X29170285Y-138326761D01*
X29075047Y-138231523D01*
X29027428Y-138136285D01*
X28979809Y-137945809D01*
X28979809Y-137802952D01*
X29027428Y-137612476D01*
X29075047Y-137517238D01*
X29170285Y-137422000D01*
X29313142Y-137374380D01*
X29408380Y-137374380D01*
X29551238Y-137422000D01*
X29598857Y-137469619D01*
X29979809Y-137469619D02*
X30027428Y-137422000D01*
X30122666Y-137374380D01*
X30360761Y-137374380D01*
X30456000Y-137422000D01*
X30503619Y-137469619D01*
X30551238Y-137564857D01*
X30551238Y-137660095D01*
X30503619Y-137802952D01*
X29932190Y-138374380D01*
X30551238Y-138374380D01*
X31456000Y-137374380D02*
X30979809Y-137374380D01*
X30932190Y-137850571D01*
X30979809Y-137802952D01*
X31075047Y-137755333D01*
X31313142Y-137755333D01*
X31408380Y-137802952D01*
X31456000Y-137850571D01*
X31503619Y-137945809D01*
X31503619Y-138183904D01*
X31456000Y-138279142D01*
X31408380Y-138326761D01*
X31313142Y-138374380D01*
X31075047Y-138374380D01*
X30979809Y-138326761D01*
X30932190Y-138279142D01*
X32360761Y-137374380D02*
X32170285Y-137374380D01*
X32075047Y-137422000D01*
X32027428Y-137469619D01*
X31932190Y-137612476D01*
X31884571Y-137802952D01*
X31884571Y-138183904D01*
X31932190Y-138279142D01*
X31979809Y-138326761D01*
X32075047Y-138374380D01*
X32265523Y-138374380D01*
X32360761Y-138326761D01*
X32408380Y-138279142D01*
X32456000Y-138183904D01*
X32456000Y-137945809D01*
X32408380Y-137850571D01*
X32360761Y-137802952D01*
X32265523Y-137755333D01*
X32075047Y-137755333D01*
X31979809Y-137802952D01*
X31932190Y-137850571D01*
X31884571Y-137945809D01*
X18213904Y-165597619D02*
X18213904Y-164497619D01*
X18737714Y-164864285D02*
X18737714Y-165597619D01*
X18737714Y-164969047D02*
X18790095Y-164916666D01*
X18894857Y-164864285D01*
X19052000Y-164864285D01*
X19156761Y-164916666D01*
X19209142Y-165021428D01*
X19209142Y-165597619D01*
X19680571Y-165545238D02*
X19785333Y-165597619D01*
X19994857Y-165597619D01*
X20099619Y-165545238D01*
X20152000Y-165440476D01*
X20152000Y-165388095D01*
X20099619Y-165283333D01*
X19994857Y-165230952D01*
X19837714Y-165230952D01*
X19732952Y-165178571D01*
X19680571Y-165073809D01*
X19680571Y-165021428D01*
X19732952Y-164916666D01*
X19837714Y-164864285D01*
X19994857Y-164864285D01*
X20099619Y-164916666D01*
X20466285Y-164864285D02*
X20885333Y-164864285D01*
X20623428Y-164497619D02*
X20623428Y-165440476D01*
X20675809Y-165545238D01*
X20780571Y-165597619D01*
X20885333Y-165597619D01*
X21252000Y-165597619D02*
X21252000Y-164864285D01*
X21252000Y-165073809D02*
X21304380Y-164969047D01*
X21356761Y-164916666D01*
X21461523Y-164864285D01*
X21566285Y-164864285D01*
X22404380Y-164864285D02*
X22404380Y-165597619D01*
X21932952Y-164864285D02*
X21932952Y-165440476D01*
X21985333Y-165545238D01*
X22090095Y-165597619D01*
X22247238Y-165597619D01*
X22352000Y-165545238D01*
X22404380Y-165492857D01*
X23399619Y-165545238D02*
X23294857Y-165597619D01*
X23085333Y-165597619D01*
X22980571Y-165545238D01*
X22928190Y-165492857D01*
X22875809Y-165388095D01*
X22875809Y-165073809D01*
X22928190Y-164969047D01*
X22980571Y-164916666D01*
X23085333Y-164864285D01*
X23294857Y-164864285D01*
X23399619Y-164916666D01*
X23713904Y-164864285D02*
X24132952Y-164864285D01*
X23871047Y-164497619D02*
X23871047Y-165440476D01*
X23923428Y-165545238D01*
X24028190Y-165597619D01*
X24132952Y-165597619D01*
X24499619Y-165597619D02*
X24499619Y-164864285D01*
X24499619Y-164497619D02*
X24447238Y-164550000D01*
X24499619Y-164602380D01*
X24552000Y-164550000D01*
X24499619Y-164497619D01*
X24499619Y-164602380D01*
X25180571Y-165597619D02*
X25075809Y-165545238D01*
X25023428Y-165492857D01*
X24971047Y-165388095D01*
X24971047Y-165073809D01*
X25023428Y-164969047D01*
X25075809Y-164916666D01*
X25180571Y-164864285D01*
X25337714Y-164864285D01*
X25442476Y-164916666D01*
X25494857Y-164969047D01*
X25547238Y-165073809D01*
X25547238Y-165388095D01*
X25494857Y-165492857D01*
X25442476Y-165545238D01*
X25337714Y-165597619D01*
X25180571Y-165597619D01*
X26018666Y-164864285D02*
X26018666Y-165597619D01*
X26018666Y-164969047D02*
X26071047Y-164916666D01*
X26175809Y-164864285D01*
X26332952Y-164864285D01*
X26437714Y-164916666D01*
X26490095Y-165021428D01*
X26490095Y-165597619D01*
X47881523Y-142066095D02*
X47881523Y-140766095D01*
X48500571Y-141199428D02*
X48500571Y-142066095D01*
X48500571Y-141323238D02*
X48562476Y-141261333D01*
X48686285Y-141199428D01*
X48872000Y-141199428D01*
X48995809Y-141261333D01*
X49057714Y-141385142D01*
X49057714Y-142066095D01*
X49614857Y-142004190D02*
X49738666Y-142066095D01*
X49986285Y-142066095D01*
X50110095Y-142004190D01*
X50172000Y-141880380D01*
X50172000Y-141818476D01*
X50110095Y-141694666D01*
X49986285Y-141632761D01*
X49800571Y-141632761D01*
X49676761Y-141570857D01*
X49614857Y-141447047D01*
X49614857Y-141385142D01*
X49676761Y-141261333D01*
X49800571Y-141199428D01*
X49986285Y-141199428D01*
X50110095Y-141261333D01*
X50543428Y-141199428D02*
X51038666Y-141199428D01*
X50729142Y-140766095D02*
X50729142Y-141880380D01*
X50791047Y-142004190D01*
X50914857Y-142066095D01*
X51038666Y-142066095D01*
X51472000Y-142066095D02*
X51472000Y-141199428D01*
X51472000Y-141447047D02*
X51533904Y-141323238D01*
X51595809Y-141261333D01*
X51719619Y-141199428D01*
X51843428Y-141199428D01*
X52833904Y-141199428D02*
X52833904Y-142066095D01*
X52276761Y-141199428D02*
X52276761Y-141880380D01*
X52338666Y-142004190D01*
X52462476Y-142066095D01*
X52648190Y-142066095D01*
X52772000Y-142004190D01*
X52833904Y-141942285D01*
X54010095Y-142004190D02*
X53886285Y-142066095D01*
X53638666Y-142066095D01*
X53514857Y-142004190D01*
X53452952Y-141942285D01*
X53391047Y-141818476D01*
X53391047Y-141447047D01*
X53452952Y-141323238D01*
X53514857Y-141261333D01*
X53638666Y-141199428D01*
X53886285Y-141199428D01*
X54010095Y-141261333D01*
X54381523Y-141199428D02*
X54876761Y-141199428D01*
X54567238Y-140766095D02*
X54567238Y-141880380D01*
X54629142Y-142004190D01*
X54752952Y-142066095D01*
X54876761Y-142066095D01*
X55310095Y-142066095D02*
X55310095Y-141199428D01*
X55310095Y-140766095D02*
X55248190Y-140828000D01*
X55310095Y-140889904D01*
X55372000Y-140828000D01*
X55310095Y-140766095D01*
X55310095Y-140889904D01*
X56114857Y-142066095D02*
X55991047Y-142004190D01*
X55929142Y-141942285D01*
X55867238Y-141818476D01*
X55867238Y-141447047D01*
X55929142Y-141323238D01*
X55991047Y-141261333D01*
X56114857Y-141199428D01*
X56300571Y-141199428D01*
X56424380Y-141261333D01*
X56486285Y-141323238D01*
X56548190Y-141447047D01*
X56548190Y-141818476D01*
X56486285Y-141942285D01*
X56424380Y-142004190D01*
X56300571Y-142066095D01*
X56114857Y-142066095D01*
X57105333Y-141199428D02*
X57105333Y-142066095D01*
X57105333Y-141323238D02*
X57167238Y-141261333D01*
X57291047Y-141199428D01*
X57476761Y-141199428D01*
X57600571Y-141261333D01*
X57662476Y-141385142D01*
X57662476Y-142066095D01*
X60014857Y-142066095D02*
X59581523Y-141447047D01*
X59272000Y-142066095D02*
X59272000Y-140766095D01*
X59767238Y-140766095D01*
X59891047Y-140828000D01*
X59952952Y-140889904D01*
X60014857Y-141013714D01*
X60014857Y-141199428D01*
X59952952Y-141323238D01*
X59891047Y-141385142D01*
X59767238Y-141447047D01*
X59272000Y-141447047D01*
X61067238Y-142004190D02*
X60943428Y-142066095D01*
X60695809Y-142066095D01*
X60572000Y-142004190D01*
X60510095Y-141880380D01*
X60510095Y-141385142D01*
X60572000Y-141261333D01*
X60695809Y-141199428D01*
X60943428Y-141199428D01*
X61067238Y-141261333D01*
X61129142Y-141385142D01*
X61129142Y-141508952D01*
X60510095Y-141632761D01*
X62243428Y-141199428D02*
X62243428Y-142251809D01*
X62181523Y-142375619D01*
X62119619Y-142437523D01*
X61995809Y-142499428D01*
X61810095Y-142499428D01*
X61686285Y-142437523D01*
X62243428Y-142004190D02*
X62119619Y-142066095D01*
X61872000Y-142066095D01*
X61748190Y-142004190D01*
X61686285Y-141942285D01*
X61624380Y-141818476D01*
X61624380Y-141447047D01*
X61686285Y-141323238D01*
X61748190Y-141261333D01*
X61872000Y-141199428D01*
X62119619Y-141199428D01*
X62243428Y-141261333D01*
X62862476Y-141942285D02*
X62924380Y-142004190D01*
X62862476Y-142066095D01*
X62800571Y-142004190D01*
X62862476Y-141942285D01*
X62862476Y-142066095D01*
X32893523Y-164497619D02*
X33103047Y-164497619D01*
X33207809Y-164550000D01*
X33312571Y-164654761D01*
X33364952Y-164864285D01*
X33364952Y-165230952D01*
X33312571Y-165440476D01*
X33207809Y-165545238D01*
X33103047Y-165597619D01*
X32893523Y-165597619D01*
X32788761Y-165545238D01*
X32684000Y-165440476D01*
X32631619Y-165230952D01*
X32631619Y-164864285D01*
X32684000Y-164654761D01*
X32788761Y-164550000D01*
X32893523Y-164497619D01*
X33836380Y-164864285D02*
X33836380Y-165964285D01*
X33836380Y-164916666D02*
X33941142Y-164864285D01*
X34150666Y-164864285D01*
X34255428Y-164916666D01*
X34307809Y-164969047D01*
X34360190Y-165073809D01*
X34360190Y-165388095D01*
X34307809Y-165492857D01*
X34255428Y-165545238D01*
X34150666Y-165597619D01*
X33941142Y-165597619D01*
X33836380Y-165545238D01*
X36298285Y-165492857D02*
X36245904Y-165545238D01*
X36088761Y-165597619D01*
X35984000Y-165597619D01*
X35826857Y-165545238D01*
X35722095Y-165440476D01*
X35669714Y-165335714D01*
X35617333Y-165126190D01*
X35617333Y-164969047D01*
X35669714Y-164759523D01*
X35722095Y-164654761D01*
X35826857Y-164550000D01*
X35984000Y-164497619D01*
X36088761Y-164497619D01*
X36245904Y-164550000D01*
X36298285Y-164602380D01*
X36926857Y-165597619D02*
X36822095Y-165545238D01*
X36769714Y-165492857D01*
X36717333Y-165388095D01*
X36717333Y-165073809D01*
X36769714Y-164969047D01*
X36822095Y-164916666D01*
X36926857Y-164864285D01*
X37084000Y-164864285D01*
X37188761Y-164916666D01*
X37241142Y-164969047D01*
X37293523Y-165073809D01*
X37293523Y-165388095D01*
X37241142Y-165492857D01*
X37188761Y-165545238D01*
X37084000Y-165597619D01*
X36926857Y-165597619D01*
X38236380Y-164864285D02*
X38236380Y-165597619D01*
X37764952Y-164864285D02*
X37764952Y-165440476D01*
X37817333Y-165545238D01*
X37922095Y-165597619D01*
X38079238Y-165597619D01*
X38184000Y-165545238D01*
X38236380Y-165492857D01*
X38760190Y-164864285D02*
X38760190Y-165597619D01*
X38760190Y-164969047D02*
X38812571Y-164916666D01*
X38917333Y-164864285D01*
X39074476Y-164864285D01*
X39179238Y-164916666D01*
X39231619Y-165021428D01*
X39231619Y-165597619D01*
X39598285Y-164864285D02*
X40017333Y-164864285D01*
X39755428Y-164497619D02*
X39755428Y-165440476D01*
X39807809Y-165545238D01*
X39912571Y-165597619D01*
X40017333Y-165597619D01*
X40803047Y-165545238D02*
X40698285Y-165597619D01*
X40488761Y-165597619D01*
X40384000Y-165545238D01*
X40331619Y-165440476D01*
X40331619Y-165021428D01*
X40384000Y-164916666D01*
X40488761Y-164864285D01*
X40698285Y-164864285D01*
X40803047Y-164916666D01*
X40855428Y-165021428D01*
X40855428Y-165126190D01*
X40331619Y-165230952D01*
X41326857Y-165597619D02*
X41326857Y-164864285D01*
X41326857Y-165073809D02*
X41379238Y-164969047D01*
X41431619Y-164916666D01*
X41536380Y-164864285D01*
X41641142Y-164864285D01*
X-12994000Y-138105333D02*
X-12470190Y-138105333D01*
X-13098761Y-138419619D02*
X-12732095Y-137319619D01*
X-12365428Y-138419619D01*
X-12155904Y-137319619D02*
X-11527333Y-137319619D01*
X-11841619Y-138419619D02*
X-11841619Y-137319619D01*
X-11213047Y-137424380D02*
X-11160666Y-137372000D01*
X-11055904Y-137319619D01*
X-10794000Y-137319619D01*
X-10689238Y-137372000D01*
X-10636857Y-137424380D01*
X-10584476Y-137529142D01*
X-10584476Y-137633904D01*
X-10636857Y-137791047D01*
X-11265428Y-138419619D01*
X-10584476Y-138419619D01*
X-9955904Y-137791047D02*
X-10060666Y-137738666D01*
X-10113047Y-137686285D01*
X-10165428Y-137581523D01*
X-10165428Y-137529142D01*
X-10113047Y-137424380D01*
X-10060666Y-137372000D01*
X-9955904Y-137319619D01*
X-9746380Y-137319619D01*
X-9641619Y-137372000D01*
X-9589238Y-137424380D01*
X-9536857Y-137529142D01*
X-9536857Y-137581523D01*
X-9589238Y-137686285D01*
X-9641619Y-137738666D01*
X-9746380Y-137791047D01*
X-9955904Y-137791047D01*
X-10060666Y-137843428D01*
X-10113047Y-137895809D01*
X-10165428Y-138000571D01*
X-10165428Y-138210095D01*
X-10113047Y-138314857D01*
X-10060666Y-138367238D01*
X-9955904Y-138419619D01*
X-9746380Y-138419619D01*
X-9641619Y-138367238D01*
X-9589238Y-138314857D01*
X-9536857Y-138210095D01*
X-9536857Y-138000571D01*
X-9589238Y-137895809D01*
X-9641619Y-137843428D01*
X-9746380Y-137791047D01*
X-8436857Y-138314857D02*
X-8489238Y-138367238D01*
X-8646380Y-138419619D01*
X-8751142Y-138419619D01*
X-8908285Y-138367238D01*
X-9013047Y-138262476D01*
X-9065428Y-138157714D01*
X-9117809Y-137948190D01*
X-9117809Y-137791047D01*
X-9065428Y-137581523D01*
X-9013047Y-137476761D01*
X-8908285Y-137372000D01*
X-8751142Y-137319619D01*
X-8646380Y-137319619D01*
X-8489238Y-137372000D01*
X-8436857Y-137424380D01*
X-8017809Y-137424380D02*
X-7965428Y-137372000D01*
X-7860666Y-137319619D01*
X-7598761Y-137319619D01*
X-7494000Y-137372000D01*
X-7441619Y-137424380D01*
X-7389238Y-137529142D01*
X-7389238Y-137633904D01*
X-7441619Y-137791047D01*
X-8070190Y-138419619D01*
X-7389238Y-138419619D01*
X-6394000Y-137319619D02*
X-6917809Y-137319619D01*
X-6970190Y-137843428D01*
X-6917809Y-137791047D01*
X-6813047Y-137738666D01*
X-6551142Y-137738666D01*
X-6446380Y-137791047D01*
X-6394000Y-137843428D01*
X-6341619Y-137948190D01*
X-6341619Y-138210095D01*
X-6394000Y-138314857D01*
X-6446380Y-138367238D01*
X-6551142Y-138419619D01*
X-6813047Y-138419619D01*
X-6917809Y-138367238D01*
X-6970190Y-138314857D01*
X-5398761Y-137319619D02*
X-5608285Y-137319619D01*
X-5713047Y-137372000D01*
X-5765428Y-137424380D01*
X-5870190Y-137581523D01*
X-5922571Y-137791047D01*
X-5922571Y-138210095D01*
X-5870190Y-138314857D01*
X-5817809Y-138367238D01*
X-5713047Y-138419619D01*
X-5503523Y-138419619D01*
X-5398761Y-138367238D01*
X-5346380Y-138314857D01*
X-5294000Y-138210095D01*
X-5294000Y-137948190D01*
X-5346380Y-137843428D01*
X-5398761Y-137791047D01*
X-5503523Y-137738666D01*
X-5713047Y-137738666D01*
X-5817809Y-137791047D01*
X-5870190Y-137843428D01*
X-5922571Y-137948190D01*
D12*
X-25654000Y-153416000D02*
G75*
G03*
X-25654000Y-153416000I0J0D01*
G01*
X12446000Y-153416000D02*
G75*
G03*
X12446000Y-153416000I0J0D01*
G01*
X62230000Y-147066000D02*
G75*
G03*
X62230000Y-147066000I0J0D01*
G01*
X-27178000Y-171958000D02*
G75*
G03*
X-27178000Y-171958000I0J0D01*
G01*
X-14986000Y-172720000D02*
G75*
G03*
X-14986000Y-172720000I0J0D01*
G01*
X-762000Y-172720000D02*
G75*
G03*
X-762000Y-172720000I0J0D01*
G01*
X51308000Y-169672000D02*
G75*
G03*
X51308000Y-169672000I0J0D01*
G01*
X55372000Y-172720000D02*
G75*
G03*
X55372000Y-172720000I0J0D01*
G01*
X64008000Y-172720000D02*
G75*
G03*
X64008000Y-172720000I0J0D01*
G01*
D10*
X-24412571Y-129081000D02*
X-24412571Y-128319095D01*
X66408380Y-129557190D02*
X66408380Y-129461952D01*
X66456000Y-129366714D01*
X66503619Y-129319095D01*
X66598857Y-129271476D01*
X66789333Y-129223857D01*
X67027428Y-129223857D01*
X67217904Y-129271476D01*
X67313142Y-129319095D01*
X67360761Y-129366714D01*
X67408380Y-129461952D01*
X67408380Y-129557190D01*
X67360761Y-129652428D01*
X67313142Y-129700047D01*
X67217904Y-129747666D01*
X67027428Y-129795285D01*
X66789333Y-129795285D01*
X66598857Y-129747666D01*
X66503619Y-129700047D01*
X66456000Y-129652428D01*
X66408380Y-129557190D01*
X66408380Y-128604809D02*
X66408380Y-128509571D01*
X66456000Y-128414333D01*
X66503619Y-128366714D01*
X66598857Y-128319095D01*
X66789333Y-128271476D01*
X67027428Y-128271476D01*
X67217904Y-128319095D01*
X67313142Y-128366714D01*
X67360761Y-128414333D01*
X67408380Y-128509571D01*
X67408380Y-128604809D01*
X67360761Y-128700047D01*
X67313142Y-128747666D01*
X67217904Y-128795285D01*
X67027428Y-128842904D01*
X66789333Y-128842904D01*
X66598857Y-128795285D01*
X66503619Y-128747666D01*
X66456000Y-128700047D01*
X66408380Y-128604809D01*
X63868380Y-129557190D02*
X63868380Y-129461952D01*
X63916000Y-129366714D01*
X63963619Y-129319095D01*
X64058857Y-129271476D01*
X64249333Y-129223857D01*
X64487428Y-129223857D01*
X64677904Y-129271476D01*
X64773142Y-129319095D01*
X64820761Y-129366714D01*
X64868380Y-129461952D01*
X64868380Y-129557190D01*
X64820761Y-129652428D01*
X64773142Y-129700047D01*
X64677904Y-129747666D01*
X64487428Y-129795285D01*
X64249333Y-129795285D01*
X64058857Y-129747666D01*
X63963619Y-129700047D01*
X63916000Y-129652428D01*
X63868380Y-129557190D01*
X64868380Y-128271476D02*
X64868380Y-128842904D01*
X64868380Y-128557190D02*
X63868380Y-128557190D01*
X64011238Y-128652428D01*
X64106476Y-128747666D01*
X64154095Y-128842904D01*
X61328380Y-129557190D02*
X61328380Y-129461952D01*
X61376000Y-129366714D01*
X61423619Y-129319095D01*
X61518857Y-129271476D01*
X61709333Y-129223857D01*
X61947428Y-129223857D01*
X62137904Y-129271476D01*
X62233142Y-129319095D01*
X62280761Y-129366714D01*
X62328380Y-129461952D01*
X62328380Y-129557190D01*
X62280761Y-129652428D01*
X62233142Y-129700047D01*
X62137904Y-129747666D01*
X61947428Y-129795285D01*
X61709333Y-129795285D01*
X61518857Y-129747666D01*
X61423619Y-129700047D01*
X61376000Y-129652428D01*
X61328380Y-129557190D01*
X61423619Y-128842904D02*
X61376000Y-128795285D01*
X61328380Y-128700047D01*
X61328380Y-128461952D01*
X61376000Y-128366714D01*
X61423619Y-128319095D01*
X61518857Y-128271476D01*
X61614095Y-128271476D01*
X61756952Y-128319095D01*
X62328380Y-128890523D01*
X62328380Y-128271476D01*
X58788380Y-129557190D02*
X58788380Y-129461952D01*
X58836000Y-129366714D01*
X58883619Y-129319095D01*
X58978857Y-129271476D01*
X59169333Y-129223857D01*
X59407428Y-129223857D01*
X59597904Y-129271476D01*
X59693142Y-129319095D01*
X59740761Y-129366714D01*
X59788380Y-129461952D01*
X59788380Y-129557190D01*
X59740761Y-129652428D01*
X59693142Y-129700047D01*
X59597904Y-129747666D01*
X59407428Y-129795285D01*
X59169333Y-129795285D01*
X58978857Y-129747666D01*
X58883619Y-129700047D01*
X58836000Y-129652428D01*
X58788380Y-129557190D01*
X58788380Y-128890523D02*
X58788380Y-128271476D01*
X59169333Y-128604809D01*
X59169333Y-128461952D01*
X59216952Y-128366714D01*
X59264571Y-128319095D01*
X59359809Y-128271476D01*
X59597904Y-128271476D01*
X59693142Y-128319095D01*
X59740761Y-128366714D01*
X59788380Y-128461952D01*
X59788380Y-128747666D01*
X59740761Y-128842904D01*
X59693142Y-128890523D01*
X56248380Y-129557190D02*
X56248380Y-129461952D01*
X56296000Y-129366714D01*
X56343619Y-129319095D01*
X56438857Y-129271476D01*
X56629333Y-129223857D01*
X56867428Y-129223857D01*
X57057904Y-129271476D01*
X57153142Y-129319095D01*
X57200761Y-129366714D01*
X57248380Y-129461952D01*
X57248380Y-129557190D01*
X57200761Y-129652428D01*
X57153142Y-129700047D01*
X57057904Y-129747666D01*
X56867428Y-129795285D01*
X56629333Y-129795285D01*
X56438857Y-129747666D01*
X56343619Y-129700047D01*
X56296000Y-129652428D01*
X56248380Y-129557190D01*
X56581714Y-128366714D02*
X57248380Y-128366714D01*
X56200761Y-128604809D02*
X56915047Y-128842904D01*
X56915047Y-128223857D01*
X53708380Y-129557190D02*
X53708380Y-129461952D01*
X53756000Y-129366714D01*
X53803619Y-129319095D01*
X53898857Y-129271476D01*
X54089333Y-129223857D01*
X54327428Y-129223857D01*
X54517904Y-129271476D01*
X54613142Y-129319095D01*
X54660761Y-129366714D01*
X54708380Y-129461952D01*
X54708380Y-129557190D01*
X54660761Y-129652428D01*
X54613142Y-129700047D01*
X54517904Y-129747666D01*
X54327428Y-129795285D01*
X54089333Y-129795285D01*
X53898857Y-129747666D01*
X53803619Y-129700047D01*
X53756000Y-129652428D01*
X53708380Y-129557190D01*
X53708380Y-128319095D02*
X53708380Y-128795285D01*
X54184571Y-128842904D01*
X54136952Y-128795285D01*
X54089333Y-128700047D01*
X54089333Y-128461952D01*
X54136952Y-128366714D01*
X54184571Y-128319095D01*
X54279809Y-128271476D01*
X54517904Y-128271476D01*
X54613142Y-128319095D01*
X54660761Y-128366714D01*
X54708380Y-128461952D01*
X54708380Y-128700047D01*
X54660761Y-128795285D01*
X54613142Y-128842904D01*
X51168380Y-129557190D02*
X51168380Y-129461952D01*
X51216000Y-129366714D01*
X51263619Y-129319095D01*
X51358857Y-129271476D01*
X51549333Y-129223857D01*
X51787428Y-129223857D01*
X51977904Y-129271476D01*
X52073142Y-129319095D01*
X52120761Y-129366714D01*
X52168380Y-129461952D01*
X52168380Y-129557190D01*
X52120761Y-129652428D01*
X52073142Y-129700047D01*
X51977904Y-129747666D01*
X51787428Y-129795285D01*
X51549333Y-129795285D01*
X51358857Y-129747666D01*
X51263619Y-129700047D01*
X51216000Y-129652428D01*
X51168380Y-129557190D01*
X51168380Y-128366714D02*
X51168380Y-128557190D01*
X51216000Y-128652428D01*
X51263619Y-128700047D01*
X51406476Y-128795285D01*
X51596952Y-128842904D01*
X51977904Y-128842904D01*
X52073142Y-128795285D01*
X52120761Y-128747666D01*
X52168380Y-128652428D01*
X52168380Y-128461952D01*
X52120761Y-128366714D01*
X52073142Y-128319095D01*
X51977904Y-128271476D01*
X51739809Y-128271476D01*
X51644571Y-128319095D01*
X51596952Y-128366714D01*
X51549333Y-128461952D01*
X51549333Y-128652428D01*
X51596952Y-128747666D01*
X51644571Y-128795285D01*
X51739809Y-128842904D01*
X48628380Y-129557190D02*
X48628380Y-129461952D01*
X48676000Y-129366714D01*
X48723619Y-129319095D01*
X48818857Y-129271476D01*
X49009333Y-129223857D01*
X49247428Y-129223857D01*
X49437904Y-129271476D01*
X49533142Y-129319095D01*
X49580761Y-129366714D01*
X49628380Y-129461952D01*
X49628380Y-129557190D01*
X49580761Y-129652428D01*
X49533142Y-129700047D01*
X49437904Y-129747666D01*
X49247428Y-129795285D01*
X49009333Y-129795285D01*
X48818857Y-129747666D01*
X48723619Y-129700047D01*
X48676000Y-129652428D01*
X48628380Y-129557190D01*
X48628380Y-128890523D02*
X48628380Y-128223857D01*
X49628380Y-128652428D01*
X47088380Y-131081000D02*
X46088380Y-131081000D01*
X47088380Y-130604809D02*
X46088380Y-130604809D01*
X47088380Y-130033380D01*
X46088380Y-130033380D01*
X46088380Y-129700047D02*
X46088380Y-129128619D01*
X47088380Y-129414333D02*
X46088380Y-129414333D01*
X46183619Y-128842904D02*
X46136000Y-128795285D01*
X46088380Y-128700047D01*
X46088380Y-128461952D01*
X46136000Y-128366714D01*
X46183619Y-128319095D01*
X46278857Y-128271476D01*
X46374095Y-128271476D01*
X46516952Y-128319095D01*
X47088380Y-128890523D01*
X47088380Y-128271476D01*
X44548380Y-131081000D02*
X43548380Y-131081000D01*
X44548380Y-130604809D02*
X43548380Y-130604809D01*
X44548380Y-130033380D01*
X43548380Y-130033380D01*
X43548380Y-129700047D02*
X43548380Y-129128619D01*
X44548380Y-129414333D02*
X43548380Y-129414333D01*
X44548380Y-128271476D02*
X44548380Y-128842904D01*
X44548380Y-128557190D02*
X43548380Y-128557190D01*
X43691238Y-128652428D01*
X43786476Y-128747666D01*
X43834095Y-128842904D01*
X42008380Y-131081000D02*
X41008380Y-131081000D01*
X42008380Y-130604809D02*
X41008380Y-130604809D01*
X42008380Y-130033380D01*
X41008380Y-130033380D01*
X41008380Y-129700047D02*
X41008380Y-129128619D01*
X42008380Y-129414333D02*
X41008380Y-129414333D01*
X41008380Y-128604809D02*
X41008380Y-128509571D01*
X41056000Y-128414333D01*
X41103619Y-128366714D01*
X41198857Y-128319095D01*
X41389333Y-128271476D01*
X41627428Y-128271476D01*
X41817904Y-128319095D01*
X41913142Y-128366714D01*
X41960761Y-128414333D01*
X42008380Y-128509571D01*
X42008380Y-128604809D01*
X41960761Y-128700047D01*
X41913142Y-128747666D01*
X41817904Y-128795285D01*
X41627428Y-128842904D01*
X41389333Y-128842904D01*
X41198857Y-128795285D01*
X41103619Y-128747666D01*
X41056000Y-128700047D01*
X41008380Y-128604809D01*
X39373142Y-133176238D02*
X39420761Y-133128619D01*
X39468380Y-133176238D01*
X39420761Y-133223857D01*
X39373142Y-133176238D01*
X39468380Y-133176238D01*
X39087428Y-133176238D02*
X38516000Y-133223857D01*
X38468380Y-133176238D01*
X38516000Y-133128619D01*
X39087428Y-133176238D01*
X38468380Y-133176238D01*
X39373142Y-132128619D02*
X39420761Y-132176238D01*
X39468380Y-132319095D01*
X39468380Y-132414333D01*
X39420761Y-132557190D01*
X39325523Y-132652428D01*
X39230285Y-132700047D01*
X39039809Y-132747666D01*
X38896952Y-132747666D01*
X38706476Y-132700047D01*
X38611238Y-132652428D01*
X38516000Y-132557190D01*
X38468380Y-132414333D01*
X38468380Y-132319095D01*
X38516000Y-132176238D01*
X38563619Y-132128619D01*
X39468380Y-131223857D02*
X39468380Y-131700047D01*
X38468380Y-131700047D01*
X38468380Y-130700047D02*
X38468380Y-130509571D01*
X38516000Y-130414333D01*
X38611238Y-130319095D01*
X38801714Y-130271476D01*
X39135047Y-130271476D01*
X39325523Y-130319095D01*
X39420761Y-130414333D01*
X39468380Y-130509571D01*
X39468380Y-130700047D01*
X39420761Y-130795285D01*
X39325523Y-130890523D01*
X39135047Y-130938142D01*
X38801714Y-130938142D01*
X38611238Y-130890523D01*
X38516000Y-130795285D01*
X38468380Y-130700047D01*
X39373142Y-129271476D02*
X39420761Y-129319095D01*
X39468380Y-129461952D01*
X39468380Y-129557190D01*
X39420761Y-129700047D01*
X39325523Y-129795285D01*
X39230285Y-129842904D01*
X39039809Y-129890523D01*
X38896952Y-129890523D01*
X38706476Y-129842904D01*
X38611238Y-129795285D01*
X38516000Y-129700047D01*
X38468380Y-129557190D01*
X38468380Y-129461952D01*
X38516000Y-129319095D01*
X38563619Y-129271476D01*
X39468380Y-128842904D02*
X38468380Y-128842904D01*
X39468380Y-128271476D02*
X38896952Y-128700047D01*
X38468380Y-128271476D02*
X39039809Y-128842904D01*
X36833142Y-132128619D02*
X36880761Y-132176238D01*
X36928380Y-132319095D01*
X36928380Y-132414333D01*
X36880761Y-132557190D01*
X36785523Y-132652428D01*
X36690285Y-132700047D01*
X36499809Y-132747666D01*
X36356952Y-132747666D01*
X36166476Y-132700047D01*
X36071238Y-132652428D01*
X35976000Y-132557190D01*
X35928380Y-132414333D01*
X35928380Y-132319095D01*
X35976000Y-132176238D01*
X36023619Y-132128619D01*
X36928380Y-131223857D02*
X36928380Y-131700047D01*
X35928380Y-131700047D01*
X35928380Y-130700047D02*
X35928380Y-130509571D01*
X35976000Y-130414333D01*
X36071238Y-130319095D01*
X36261714Y-130271476D01*
X36595047Y-130271476D01*
X36785523Y-130319095D01*
X36880761Y-130414333D01*
X36928380Y-130509571D01*
X36928380Y-130700047D01*
X36880761Y-130795285D01*
X36785523Y-130890523D01*
X36595047Y-130938142D01*
X36261714Y-130938142D01*
X36071238Y-130890523D01*
X35976000Y-130795285D01*
X35928380Y-130700047D01*
X36833142Y-129271476D02*
X36880761Y-129319095D01*
X36928380Y-129461952D01*
X36928380Y-129557190D01*
X36880761Y-129700047D01*
X36785523Y-129795285D01*
X36690285Y-129842904D01*
X36499809Y-129890523D01*
X36356952Y-129890523D01*
X36166476Y-129842904D01*
X36071238Y-129795285D01*
X35976000Y-129700047D01*
X35928380Y-129557190D01*
X35928380Y-129461952D01*
X35976000Y-129319095D01*
X36023619Y-129271476D01*
X36928380Y-128842904D02*
X35928380Y-128842904D01*
X36928380Y-128271476D02*
X36356952Y-128700047D01*
X35928380Y-128271476D02*
X36499809Y-128842904D01*
X34388380Y-133176238D02*
X34388380Y-133652428D01*
X33388380Y-133652428D01*
X34388380Y-132842904D02*
X33388380Y-132842904D01*
X33388380Y-132604809D01*
X33436000Y-132461952D01*
X33531238Y-132366714D01*
X33626476Y-132319095D01*
X33816952Y-132271476D01*
X33959809Y-132271476D01*
X34150285Y-132319095D01*
X34245523Y-132366714D01*
X34340761Y-132461952D01*
X34388380Y-132604809D01*
X34388380Y-132842904D01*
X34388380Y-131081000D02*
X33388380Y-131081000D01*
X34388380Y-130604809D02*
X33388380Y-130604809D01*
X34388380Y-130033380D01*
X33388380Y-130033380D01*
X34340761Y-129604809D02*
X34388380Y-129461952D01*
X34388380Y-129223857D01*
X34340761Y-129128619D01*
X34293142Y-129081000D01*
X34197904Y-129033380D01*
X34102666Y-129033380D01*
X34007428Y-129081000D01*
X33959809Y-129128619D01*
X33912190Y-129223857D01*
X33864571Y-129414333D01*
X33816952Y-129509571D01*
X33769333Y-129557190D01*
X33674095Y-129604809D01*
X33578857Y-129604809D01*
X33483619Y-129557190D01*
X33436000Y-129509571D01*
X33388380Y-129414333D01*
X33388380Y-129176238D01*
X33436000Y-129033380D01*
X33388380Y-128747666D02*
X33388380Y-128176238D01*
X34388380Y-128461952D02*
X33388380Y-128461952D01*
X31848380Y-132795285D02*
X31372190Y-133128619D01*
X31848380Y-133366714D02*
X30848380Y-133366714D01*
X30848380Y-132985761D01*
X30896000Y-132890523D01*
X30943619Y-132842904D01*
X31038857Y-132795285D01*
X31181714Y-132795285D01*
X31276952Y-132842904D01*
X31324571Y-132890523D01*
X31372190Y-132985761D01*
X31372190Y-133366714D01*
X31800761Y-132414333D02*
X31848380Y-132271476D01*
X31848380Y-132033380D01*
X31800761Y-131938142D01*
X31753142Y-131890523D01*
X31657904Y-131842904D01*
X31562666Y-131842904D01*
X31467428Y-131890523D01*
X31419809Y-131938142D01*
X31372190Y-132033380D01*
X31324571Y-132223857D01*
X31276952Y-132319095D01*
X31229333Y-132366714D01*
X31134095Y-132414333D01*
X31038857Y-132414333D01*
X30943619Y-132366714D01*
X30896000Y-132319095D01*
X30848380Y-132223857D01*
X30848380Y-131985761D01*
X30896000Y-131842904D01*
X30848380Y-131557190D02*
X30848380Y-130985761D01*
X31848380Y-131271476D02*
X30848380Y-131271476D01*
X30848380Y-129700047D02*
X30848380Y-129509571D01*
X30896000Y-129414333D01*
X30991238Y-129319095D01*
X31181714Y-129271476D01*
X31515047Y-129271476D01*
X31705523Y-129319095D01*
X31800761Y-129414333D01*
X31848380Y-129509571D01*
X31848380Y-129700047D01*
X31800761Y-129795285D01*
X31705523Y-129890523D01*
X31515047Y-129938142D01*
X31181714Y-129938142D01*
X30991238Y-129890523D01*
X30896000Y-129795285D01*
X30848380Y-129700047D01*
X31848380Y-128842904D02*
X30848380Y-128842904D01*
X30848380Y-128461952D01*
X30896000Y-128366714D01*
X30943619Y-128319095D01*
X31038857Y-128271476D01*
X31181714Y-128271476D01*
X31276952Y-128319095D01*
X31324571Y-128366714D01*
X31372190Y-128461952D01*
X31372190Y-128842904D01*
X28006000Y-129890523D02*
X28006000Y-128938142D01*
X28308380Y-129747666D02*
X28308380Y-129081000D01*
X29308380Y-129747666D01*
X29308380Y-129081000D01*
X28006000Y-128938142D02*
X28006000Y-128081000D01*
X28784571Y-128366714D02*
X28784571Y-128700047D01*
X29308380Y-128700047D02*
X28308380Y-128700047D01*
X28308380Y-128223857D01*
X26768380Y-132842904D02*
X25768380Y-132842904D01*
X26768380Y-132366714D02*
X25768380Y-132366714D01*
X26768380Y-131795285D01*
X25768380Y-131795285D01*
X25768380Y-131461952D02*
X25768380Y-130890523D01*
X26768380Y-131176238D02*
X25768380Y-131176238D01*
X26244571Y-129795285D02*
X26244571Y-129461952D01*
X26768380Y-129319095D02*
X26768380Y-129795285D01*
X25768380Y-129795285D01*
X25768380Y-129319095D01*
X26768380Y-128890523D02*
X25768380Y-128890523D01*
X26768380Y-128319095D01*
X25768380Y-128319095D01*
X23704571Y-130652428D02*
X23704571Y-130319095D01*
X24228380Y-130176238D02*
X24228380Y-130652428D01*
X23228380Y-130652428D01*
X23228380Y-130176238D01*
X23228380Y-129557190D02*
X23228380Y-129461952D01*
X23276000Y-129366714D01*
X23323619Y-129319095D01*
X23418857Y-129271476D01*
X23609333Y-129223857D01*
X23847428Y-129223857D01*
X24037904Y-129271476D01*
X24133142Y-129319095D01*
X24180761Y-129366714D01*
X24228380Y-129461952D01*
X24228380Y-129557190D01*
X24180761Y-129652428D01*
X24133142Y-129700047D01*
X24037904Y-129747666D01*
X23847428Y-129795285D01*
X23609333Y-129795285D01*
X23418857Y-129747666D01*
X23323619Y-129700047D01*
X23276000Y-129652428D01*
X23228380Y-129557190D01*
X23228380Y-128604809D02*
X23228380Y-128509571D01*
X23276000Y-128414333D01*
X23323619Y-128366714D01*
X23418857Y-128319095D01*
X23609333Y-128271476D01*
X23847428Y-128271476D01*
X24037904Y-128319095D01*
X24133142Y-128366714D01*
X24180761Y-128414333D01*
X24228380Y-128509571D01*
X24228380Y-128604809D01*
X24180761Y-128700047D01*
X24133142Y-128747666D01*
X24037904Y-128795285D01*
X23847428Y-128842904D01*
X23609333Y-128842904D01*
X23418857Y-128795285D01*
X23323619Y-128747666D01*
X23276000Y-128700047D01*
X23228380Y-128604809D01*
X21164571Y-130652428D02*
X21164571Y-130319095D01*
X21688380Y-130176238D02*
X21688380Y-130652428D01*
X20688380Y-130652428D01*
X20688380Y-130176238D01*
X20688380Y-129557190D02*
X20688380Y-129461952D01*
X20736000Y-129366714D01*
X20783619Y-129319095D01*
X20878857Y-129271476D01*
X21069333Y-129223857D01*
X21307428Y-129223857D01*
X21497904Y-129271476D01*
X21593142Y-129319095D01*
X21640761Y-129366714D01*
X21688380Y-129461952D01*
X21688380Y-129557190D01*
X21640761Y-129652428D01*
X21593142Y-129700047D01*
X21497904Y-129747666D01*
X21307428Y-129795285D01*
X21069333Y-129795285D01*
X20878857Y-129747666D01*
X20783619Y-129700047D01*
X20736000Y-129652428D01*
X20688380Y-129557190D01*
X21688380Y-128271476D02*
X21688380Y-128842904D01*
X21688380Y-128557190D02*
X20688380Y-128557190D01*
X20831238Y-128652428D01*
X20926476Y-128747666D01*
X20974095Y-128842904D01*
X18624571Y-130652428D02*
X18624571Y-130319095D01*
X19148380Y-130176238D02*
X19148380Y-130652428D01*
X18148380Y-130652428D01*
X18148380Y-130176238D01*
X18148380Y-129557190D02*
X18148380Y-129461952D01*
X18196000Y-129366714D01*
X18243619Y-129319095D01*
X18338857Y-129271476D01*
X18529333Y-129223857D01*
X18767428Y-129223857D01*
X18957904Y-129271476D01*
X19053142Y-129319095D01*
X19100761Y-129366714D01*
X19148380Y-129461952D01*
X19148380Y-129557190D01*
X19100761Y-129652428D01*
X19053142Y-129700047D01*
X18957904Y-129747666D01*
X18767428Y-129795285D01*
X18529333Y-129795285D01*
X18338857Y-129747666D01*
X18243619Y-129700047D01*
X18196000Y-129652428D01*
X18148380Y-129557190D01*
X18243619Y-128842904D02*
X18196000Y-128795285D01*
X18148380Y-128700047D01*
X18148380Y-128461952D01*
X18196000Y-128366714D01*
X18243619Y-128319095D01*
X18338857Y-128271476D01*
X18434095Y-128271476D01*
X18576952Y-128319095D01*
X19148380Y-128890523D01*
X19148380Y-128271476D01*
X16084571Y-130652428D02*
X16084571Y-130319095D01*
X16608380Y-130176238D02*
X16608380Y-130652428D01*
X15608380Y-130652428D01*
X15608380Y-130176238D01*
X15608380Y-129557190D02*
X15608380Y-129461952D01*
X15656000Y-129366714D01*
X15703619Y-129319095D01*
X15798857Y-129271476D01*
X15989333Y-129223857D01*
X16227428Y-129223857D01*
X16417904Y-129271476D01*
X16513142Y-129319095D01*
X16560761Y-129366714D01*
X16608380Y-129461952D01*
X16608380Y-129557190D01*
X16560761Y-129652428D01*
X16513142Y-129700047D01*
X16417904Y-129747666D01*
X16227428Y-129795285D01*
X15989333Y-129795285D01*
X15798857Y-129747666D01*
X15703619Y-129700047D01*
X15656000Y-129652428D01*
X15608380Y-129557190D01*
X15608380Y-128890523D02*
X15608380Y-128271476D01*
X15989333Y-128604809D01*
X15989333Y-128461952D01*
X16036952Y-128366714D01*
X16084571Y-128319095D01*
X16179809Y-128271476D01*
X16417904Y-128271476D01*
X16513142Y-128319095D01*
X16560761Y-128366714D01*
X16608380Y-128461952D01*
X16608380Y-128747666D01*
X16560761Y-128842904D01*
X16513142Y-128890523D01*
X13544571Y-130652428D02*
X13544571Y-130319095D01*
X14068380Y-130176238D02*
X14068380Y-130652428D01*
X13068380Y-130652428D01*
X13068380Y-130176238D01*
X13068380Y-129557190D02*
X13068380Y-129461952D01*
X13116000Y-129366714D01*
X13163619Y-129319095D01*
X13258857Y-129271476D01*
X13449333Y-129223857D01*
X13687428Y-129223857D01*
X13877904Y-129271476D01*
X13973142Y-129319095D01*
X14020761Y-129366714D01*
X14068380Y-129461952D01*
X14068380Y-129557190D01*
X14020761Y-129652428D01*
X13973142Y-129700047D01*
X13877904Y-129747666D01*
X13687428Y-129795285D01*
X13449333Y-129795285D01*
X13258857Y-129747666D01*
X13163619Y-129700047D01*
X13116000Y-129652428D01*
X13068380Y-129557190D01*
X13401714Y-128366714D02*
X14068380Y-128366714D01*
X13020761Y-128604809D02*
X13735047Y-128842904D01*
X13735047Y-128223857D01*
X11004571Y-130652428D02*
X11004571Y-130319095D01*
X11528380Y-130176238D02*
X11528380Y-130652428D01*
X10528380Y-130652428D01*
X10528380Y-130176238D01*
X10528380Y-129557190D02*
X10528380Y-129461952D01*
X10576000Y-129366714D01*
X10623619Y-129319095D01*
X10718857Y-129271476D01*
X10909333Y-129223857D01*
X11147428Y-129223857D01*
X11337904Y-129271476D01*
X11433142Y-129319095D01*
X11480761Y-129366714D01*
X11528380Y-129461952D01*
X11528380Y-129557190D01*
X11480761Y-129652428D01*
X11433142Y-129700047D01*
X11337904Y-129747666D01*
X11147428Y-129795285D01*
X10909333Y-129795285D01*
X10718857Y-129747666D01*
X10623619Y-129700047D01*
X10576000Y-129652428D01*
X10528380Y-129557190D01*
X10528380Y-128319095D02*
X10528380Y-128795285D01*
X11004571Y-128842904D01*
X10956952Y-128795285D01*
X10909333Y-128700047D01*
X10909333Y-128461952D01*
X10956952Y-128366714D01*
X11004571Y-128319095D01*
X11099809Y-128271476D01*
X11337904Y-128271476D01*
X11433142Y-128319095D01*
X11480761Y-128366714D01*
X11528380Y-128461952D01*
X11528380Y-128700047D01*
X11480761Y-128795285D01*
X11433142Y-128842904D01*
X8464571Y-130652428D02*
X8464571Y-130319095D01*
X8988380Y-130176238D02*
X8988380Y-130652428D01*
X7988380Y-130652428D01*
X7988380Y-130176238D01*
X7988380Y-129557190D02*
X7988380Y-129461952D01*
X8036000Y-129366714D01*
X8083619Y-129319095D01*
X8178857Y-129271476D01*
X8369333Y-129223857D01*
X8607428Y-129223857D01*
X8797904Y-129271476D01*
X8893142Y-129319095D01*
X8940761Y-129366714D01*
X8988380Y-129461952D01*
X8988380Y-129557190D01*
X8940761Y-129652428D01*
X8893142Y-129700047D01*
X8797904Y-129747666D01*
X8607428Y-129795285D01*
X8369333Y-129795285D01*
X8178857Y-129747666D01*
X8083619Y-129700047D01*
X8036000Y-129652428D01*
X7988380Y-129557190D01*
X7988380Y-128366714D02*
X7988380Y-128557190D01*
X8036000Y-128652428D01*
X8083619Y-128700047D01*
X8226476Y-128795285D01*
X8416952Y-128842904D01*
X8797904Y-128842904D01*
X8893142Y-128795285D01*
X8940761Y-128747666D01*
X8988380Y-128652428D01*
X8988380Y-128461952D01*
X8940761Y-128366714D01*
X8893142Y-128319095D01*
X8797904Y-128271476D01*
X8559809Y-128271476D01*
X8464571Y-128319095D01*
X8416952Y-128366714D01*
X8369333Y-128461952D01*
X8369333Y-128652428D01*
X8416952Y-128747666D01*
X8464571Y-128795285D01*
X8559809Y-128842904D01*
X5924571Y-130652428D02*
X5924571Y-130319095D01*
X6448380Y-130176238D02*
X6448380Y-130652428D01*
X5448380Y-130652428D01*
X5448380Y-130176238D01*
X5448380Y-129557190D02*
X5448380Y-129461952D01*
X5496000Y-129366714D01*
X5543619Y-129319095D01*
X5638857Y-129271476D01*
X5829333Y-129223857D01*
X6067428Y-129223857D01*
X6257904Y-129271476D01*
X6353142Y-129319095D01*
X6400761Y-129366714D01*
X6448380Y-129461952D01*
X6448380Y-129557190D01*
X6400761Y-129652428D01*
X6353142Y-129700047D01*
X6257904Y-129747666D01*
X6067428Y-129795285D01*
X5829333Y-129795285D01*
X5638857Y-129747666D01*
X5543619Y-129700047D01*
X5496000Y-129652428D01*
X5448380Y-129557190D01*
X5448380Y-128890523D02*
X5448380Y-128223857D01*
X6448380Y-128652428D01*
X3384571Y-130652428D02*
X3384571Y-130319095D01*
X3908380Y-130176238D02*
X3908380Y-130652428D01*
X2908380Y-130652428D01*
X2908380Y-130176238D01*
X2908380Y-129557190D02*
X2908380Y-129461952D01*
X2956000Y-129366714D01*
X3003619Y-129319095D01*
X3098857Y-129271476D01*
X3289333Y-129223857D01*
X3527428Y-129223857D01*
X3717904Y-129271476D01*
X3813142Y-129319095D01*
X3860761Y-129366714D01*
X3908380Y-129461952D01*
X3908380Y-129557190D01*
X3860761Y-129652428D01*
X3813142Y-129700047D01*
X3717904Y-129747666D01*
X3527428Y-129795285D01*
X3289333Y-129795285D01*
X3098857Y-129747666D01*
X3003619Y-129700047D01*
X2956000Y-129652428D01*
X2908380Y-129557190D01*
X3336952Y-128652428D02*
X3289333Y-128747666D01*
X3241714Y-128795285D01*
X3146476Y-128842904D01*
X3098857Y-128842904D01*
X3003619Y-128795285D01*
X2956000Y-128747666D01*
X2908380Y-128652428D01*
X2908380Y-128461952D01*
X2956000Y-128366714D01*
X3003619Y-128319095D01*
X3098857Y-128271476D01*
X3146476Y-128271476D01*
X3241714Y-128319095D01*
X3289333Y-128366714D01*
X3336952Y-128461952D01*
X3336952Y-128652428D01*
X3384571Y-128747666D01*
X3432190Y-128795285D01*
X3527428Y-128842904D01*
X3717904Y-128842904D01*
X3813142Y-128795285D01*
X3860761Y-128747666D01*
X3908380Y-128652428D01*
X3908380Y-128461952D01*
X3860761Y-128366714D01*
X3813142Y-128319095D01*
X3717904Y-128271476D01*
X3527428Y-128271476D01*
X3432190Y-128319095D01*
X3384571Y-128366714D01*
X3336952Y-128461952D01*
X844571Y-130652428D02*
X844571Y-130319095D01*
X1368380Y-130176238D02*
X1368380Y-130652428D01*
X368380Y-130652428D01*
X368380Y-130176238D01*
X368380Y-129557190D02*
X368380Y-129461952D01*
X415999Y-129366714D01*
X463619Y-129319095D01*
X558857Y-129271476D01*
X749333Y-129223857D01*
X987428Y-129223857D01*
X1177904Y-129271476D01*
X1273142Y-129319095D01*
X1320761Y-129366714D01*
X1368380Y-129461952D01*
X1368380Y-129557190D01*
X1320761Y-129652428D01*
X1273142Y-129700047D01*
X1177904Y-129747666D01*
X987428Y-129795285D01*
X749333Y-129795285D01*
X558857Y-129747666D01*
X463619Y-129700047D01*
X415999Y-129652428D01*
X368380Y-129557190D01*
X1368380Y-128747666D02*
X1368380Y-128557190D01*
X1320761Y-128461952D01*
X1273142Y-128414333D01*
X1130285Y-128319095D01*
X939809Y-128271476D01*
X558857Y-128271476D01*
X463619Y-128319095D01*
X416000Y-128366714D01*
X368380Y-128461952D01*
X368380Y-128652428D01*
X415999Y-128747666D01*
X463619Y-128795285D01*
X558857Y-128842904D01*
X796952Y-128842904D01*
X892190Y-128795285D01*
X939809Y-128747666D01*
X987428Y-128652428D01*
X987428Y-128461952D01*
X939809Y-128366714D01*
X892190Y-128319095D01*
X796952Y-128271476D01*
X-1695428Y-130652428D02*
X-1695428Y-130319095D01*
X-1171619Y-130176238D02*
X-1171619Y-130652428D01*
X-2171619Y-130652428D01*
X-2171619Y-130176238D01*
X-1171619Y-129223857D02*
X-1171619Y-129795285D01*
X-1171619Y-129509571D02*
X-2171619Y-129509571D01*
X-2028761Y-129604809D01*
X-1933523Y-129700047D01*
X-1885904Y-129795285D01*
X-2171619Y-128604809D02*
X-2171619Y-128509571D01*
X-2124000Y-128414333D01*
X-2076380Y-128366714D01*
X-1981142Y-128319095D01*
X-1790666Y-128271476D01*
X-1552571Y-128271476D01*
X-1362095Y-128319095D01*
X-1266857Y-128366714D01*
X-1219238Y-128414333D01*
X-1171619Y-128509571D01*
X-1171619Y-128604809D01*
X-1219238Y-128700047D01*
X-1266857Y-128747666D01*
X-1362095Y-128795285D01*
X-1552571Y-128842904D01*
X-1790666Y-128842904D01*
X-1981142Y-128795285D01*
X-2076380Y-128747666D01*
X-2124000Y-128700047D01*
X-2171619Y-128604809D01*
X-4235428Y-130652428D02*
X-4235428Y-130319095D01*
X-3711619Y-130176238D02*
X-3711619Y-130652428D01*
X-4711619Y-130652428D01*
X-4711619Y-130176238D01*
X-3711619Y-129223857D02*
X-3711619Y-129795285D01*
X-3711619Y-129509571D02*
X-4711619Y-129509571D01*
X-4568761Y-129604809D01*
X-4473523Y-129700047D01*
X-4425904Y-129795285D01*
X-3711619Y-128271476D02*
X-3711619Y-128842904D01*
X-3711619Y-128557190D02*
X-4711619Y-128557190D01*
X-4568761Y-128652428D01*
X-4473523Y-128747666D01*
X-4425904Y-128842904D01*
X-6775428Y-130652428D02*
X-6775428Y-130319095D01*
X-6251619Y-130176238D02*
X-6251619Y-130652428D01*
X-7251619Y-130652428D01*
X-7251619Y-130176238D01*
X-6251619Y-129223857D02*
X-6251619Y-129795285D01*
X-6251619Y-129509571D02*
X-7251619Y-129509571D01*
X-7108761Y-129604809D01*
X-7013523Y-129700047D01*
X-6965904Y-129795285D01*
X-7156380Y-128842904D02*
X-7204000Y-128795285D01*
X-7251619Y-128700047D01*
X-7251619Y-128461952D01*
X-7204000Y-128366714D01*
X-7156380Y-128319095D01*
X-7061142Y-128271476D01*
X-6965904Y-128271476D01*
X-6823047Y-128319095D01*
X-6251619Y-128890523D01*
X-6251619Y-128271476D01*
X-9315428Y-130652428D02*
X-9315428Y-130319095D01*
X-8791619Y-130176238D02*
X-8791619Y-130652428D01*
X-9791619Y-130652428D01*
X-9791619Y-130176238D01*
X-8791619Y-129223857D02*
X-8791619Y-129795285D01*
X-8791619Y-129509571D02*
X-9791619Y-129509571D01*
X-9648761Y-129604809D01*
X-9553523Y-129700047D01*
X-9505904Y-129795285D01*
X-9791619Y-128890523D02*
X-9791619Y-128271476D01*
X-9410666Y-128604809D01*
X-9410666Y-128461952D01*
X-9363047Y-128366714D01*
X-9315428Y-128319095D01*
X-9220190Y-128271476D01*
X-8982095Y-128271476D01*
X-8886857Y-128319095D01*
X-8839238Y-128366714D01*
X-8791619Y-128461952D01*
X-8791619Y-128747666D01*
X-8839238Y-128842904D01*
X-8886857Y-128890523D01*
X-11855428Y-130652428D02*
X-11855428Y-130319095D01*
X-11331619Y-130176238D02*
X-11331619Y-130652428D01*
X-12331619Y-130652428D01*
X-12331619Y-130176238D01*
X-11331619Y-129223857D02*
X-11331619Y-129795285D01*
X-11331619Y-129509571D02*
X-12331619Y-129509571D01*
X-12188761Y-129604809D01*
X-12093523Y-129700047D01*
X-12045904Y-129795285D01*
X-11998285Y-128366714D02*
X-11331619Y-128366714D01*
X-12379238Y-128604809D02*
X-11664952Y-128842904D01*
X-11664952Y-128223857D01*
X-14395428Y-130652428D02*
X-14395428Y-130319095D01*
X-13871619Y-130176238D02*
X-13871619Y-130652428D01*
X-14871619Y-130652428D01*
X-14871619Y-130176238D01*
X-13871619Y-129223857D02*
X-13871619Y-129795285D01*
X-13871619Y-129509571D02*
X-14871619Y-129509571D01*
X-14728761Y-129604809D01*
X-14633523Y-129700047D01*
X-14585904Y-129795285D01*
X-14871619Y-128319095D02*
X-14871619Y-128795285D01*
X-14395428Y-128842904D01*
X-14443047Y-128795285D01*
X-14490666Y-128700047D01*
X-14490666Y-128461952D01*
X-14443047Y-128366714D01*
X-14395428Y-128319095D01*
X-14300190Y-128271476D01*
X-14062095Y-128271476D01*
X-13966857Y-128319095D01*
X-13919238Y-128366714D01*
X-13871619Y-128461952D01*
X-13871619Y-128700047D01*
X-13919238Y-128795285D01*
X-13966857Y-128842904D01*
X-16697333Y-130652428D02*
X-16697333Y-130176238D01*
X-16411619Y-130747666D02*
X-17411619Y-130414333D01*
X-16411619Y-130081000D01*
X-16411619Y-129223857D02*
X-16411619Y-129795285D01*
X-16411619Y-129509571D02*
X-17411619Y-129509571D01*
X-17268761Y-129604809D01*
X-17173523Y-129700047D01*
X-17125904Y-129795285D01*
X-17411619Y-128890523D02*
X-17411619Y-128271476D01*
X-17030666Y-128604809D01*
X-17030666Y-128461952D01*
X-16983047Y-128366714D01*
X-16935428Y-128319095D01*
X-16840190Y-128271476D01*
X-16602095Y-128271476D01*
X-16506857Y-128319095D01*
X-16459238Y-128366714D01*
X-16411619Y-128461952D01*
X-16411619Y-128747666D01*
X-16459238Y-128842904D01*
X-16506857Y-128890523D01*
X-19237333Y-130652428D02*
X-19237333Y-130176238D01*
X-18951619Y-130747666D02*
X-19951619Y-130414333D01*
X-18951619Y-130081000D01*
X-18951619Y-129223857D02*
X-18951619Y-129795285D01*
X-18951619Y-129509571D02*
X-19951619Y-129509571D01*
X-19808761Y-129604809D01*
X-19713523Y-129700047D01*
X-19665904Y-129795285D01*
X-19618285Y-128366714D02*
X-18951619Y-128366714D01*
X-19999238Y-128604809D02*
X-19284952Y-128842904D01*
X-19284952Y-128223857D01*
X-21872571Y-129081000D02*
X-21872571Y-128319095D01*
X-21491619Y-128700047D02*
X-22253523Y-128700047D01*
D13*
%TO.C,U9*%
X-28254000Y-149590000D02*
X-28254000Y-155050000D01*
X-28254000Y-155050000D02*
X7426000Y-155050000D01*
X7426000Y-155050000D02*
X7426000Y-142130000D01*
X7426000Y-142130000D02*
X-28254000Y-142130000D01*
X-28254000Y-142130000D02*
X-28254000Y-147590000D01*
X-28314000Y-157540000D02*
X7486000Y-157540000D01*
X7486000Y-157540000D02*
X7486000Y-139640000D01*
X7486000Y-139640000D02*
X-28314000Y-139640000D01*
X-28314000Y-139640000D02*
X-28314000Y-157540000D01*
X-28254000Y-147590000D02*
G75*
G02*
X-28254000Y-149590000I0J-1000000D01*
G01*
%TO.C,U5*%
X-5916000Y-171196000D02*
X-5916000Y-168811000D01*
X-5916000Y-168811000D02*
X-6196000Y-168811000D01*
X-5916000Y-171196000D02*
X-5916000Y-173581000D01*
X-5916000Y-173581000D02*
X-6196000Y-173581000D01*
X-16436000Y-171196000D02*
X-16436000Y-168811000D01*
X-16436000Y-168811000D02*
X-16156000Y-168811000D01*
X-16436000Y-171196000D02*
X-16436000Y-173581000D01*
X-16436000Y-173581000D02*
X-16156000Y-173581000D01*
X-16156000Y-173581000D02*
X-16156000Y-175246000D01*
%TO.C,U3*%
X8308000Y-171196000D02*
X8308000Y-168811000D01*
X8308000Y-168811000D02*
X8028000Y-168811000D01*
X8308000Y-171196000D02*
X8308000Y-173581000D01*
X8308000Y-173581000D02*
X8028000Y-173581000D01*
X-2212000Y-171196000D02*
X-2212000Y-168811000D01*
X-2212000Y-168811000D02*
X-1932000Y-168811000D01*
X-2212000Y-171196000D02*
X-2212000Y-173581000D01*
X-2212000Y-173581000D02*
X-1932000Y-173581000D01*
X-1932000Y-173581000D02*
X-1932000Y-175246000D01*
%TO.C,R21*%
X29491000Y-173455064D02*
X29491000Y-173000936D01*
X30961000Y-173455064D02*
X30961000Y-173000936D01*
%TO.C,R20*%
X27205000Y-173455064D02*
X27205000Y-173000936D01*
X28675000Y-173455064D02*
X28675000Y-173000936D01*
%TO.C,R19*%
X24919000Y-173455064D02*
X24919000Y-173000936D01*
X26389000Y-173455064D02*
X26389000Y-173000936D01*
%TO.C,R18*%
X22633000Y-173455064D02*
X22633000Y-173000936D01*
X24103000Y-173455064D02*
X24103000Y-173000936D01*
%TO.C,R17*%
X20347000Y-173455064D02*
X20347000Y-173000936D01*
X21817000Y-173455064D02*
X21817000Y-173000936D01*
%TO.C,R16*%
X18061000Y-173455064D02*
X18061000Y-173000936D01*
X19531000Y-173455064D02*
X19531000Y-173000936D01*
%TO.C,R15*%
X15775000Y-173455064D02*
X15775000Y-173000936D01*
X17245000Y-173455064D02*
X17245000Y-173000936D01*
%TO.C,R14*%
X13489000Y-173455064D02*
X13489000Y-173000936D01*
X14959000Y-173455064D02*
X14959000Y-173000936D01*
%TO.C,D13*%
X29266000Y-168164000D02*
X29266000Y-170849000D01*
X29266000Y-170849000D02*
X31186000Y-170849000D01*
X31186000Y-170849000D02*
X31186000Y-168164000D01*
%TO.C,D12*%
X26980000Y-168164000D02*
X26980000Y-170849000D01*
X26980000Y-170849000D02*
X28900000Y-170849000D01*
X28900000Y-170849000D02*
X28900000Y-168164000D01*
%TO.C,D11*%
X24694000Y-168164000D02*
X24694000Y-170849000D01*
X24694000Y-170849000D02*
X26614000Y-170849000D01*
X26614000Y-170849000D02*
X26614000Y-168164000D01*
%TO.C,D10*%
X22408000Y-168164000D02*
X22408000Y-170849000D01*
X22408000Y-170849000D02*
X24328000Y-170849000D01*
X24328000Y-170849000D02*
X24328000Y-168164000D01*
%TO.C,D9*%
X20122000Y-168164000D02*
X20122000Y-170849000D01*
X20122000Y-170849000D02*
X22042000Y-170849000D01*
X22042000Y-170849000D02*
X22042000Y-168164000D01*
%TO.C,D8*%
X17836000Y-168164000D02*
X17836000Y-170849000D01*
X17836000Y-170849000D02*
X19756000Y-170849000D01*
X19756000Y-170849000D02*
X19756000Y-168164000D01*
%TO.C,D7*%
X15550000Y-168164000D02*
X15550000Y-170849000D01*
X15550000Y-170849000D02*
X17470000Y-170849000D01*
X17470000Y-170849000D02*
X17470000Y-168164000D01*
%TO.C,D6*%
X13264000Y-168164000D02*
X13264000Y-170849000D01*
X13264000Y-170849000D02*
X15184000Y-170849000D01*
X15184000Y-170849000D02*
X15184000Y-168164000D01*
%TO.C,C4*%
X-2212748Y-166089000D02*
X-2735252Y-166089000D01*
X-2212748Y-164619000D02*
X-2735252Y-164619000D01*
%TO.C,C3*%
X-16314748Y-166089000D02*
X-16837252Y-166089000D01*
X-16314748Y-164619000D02*
X-16837252Y-164619000D01*
%TO.C,C2*%
X11864748Y-136933000D02*
X12387252Y-136933000D01*
X11864748Y-138403000D02*
X12387252Y-138403000D01*
%TO.C,C1*%
X-26103252Y-136933000D02*
X-25580748Y-136933000D01*
X-26103252Y-138403000D02*
X-25580748Y-138403000D01*
%TO.C,U8*%
X9846000Y-149590000D02*
X9846000Y-155050000D01*
X9846000Y-155050000D02*
X45526000Y-155050000D01*
X45526000Y-155050000D02*
X45526000Y-142130000D01*
X45526000Y-142130000D02*
X9846000Y-142130000D01*
X9846000Y-142130000D02*
X9846000Y-147590000D01*
X9786000Y-157540000D02*
X45586000Y-157540000D01*
X45586000Y-157540000D02*
X45586000Y-139640000D01*
X45586000Y-139640000D02*
X9786000Y-139640000D01*
X9786000Y-139640000D02*
X9786000Y-157540000D01*
X9846000Y-147590000D02*
G75*
G02*
X9846000Y-149590000I0J-1000000D01*
G01*
%TO.C,R13*%
X40921000Y-173455064D02*
X40921000Y-173000936D01*
X42391000Y-173455064D02*
X42391000Y-173000936D01*
%TO.C,R12*%
X38635000Y-173455064D02*
X38635000Y-173000936D01*
X40105000Y-173455064D02*
X40105000Y-173000936D01*
%TO.C,R11*%
X36349000Y-173455064D02*
X36349000Y-173000936D01*
X37819000Y-173455064D02*
X37819000Y-173000936D01*
%TO.C,R9*%
X34063000Y-173455064D02*
X34063000Y-173000936D01*
X35533000Y-173455064D02*
X35533000Y-173000936D01*
%TO.C,R7*%
X31777000Y-173455064D02*
X31777000Y-173000936D01*
X33247000Y-173455064D02*
X33247000Y-173000936D01*
%TO.C,D5*%
X40696000Y-168164000D02*
X40696000Y-170849000D01*
X40696000Y-170849000D02*
X42616000Y-170849000D01*
X42616000Y-170849000D02*
X42616000Y-168164000D01*
%TO.C,D4*%
X38410000Y-168164000D02*
X38410000Y-170849000D01*
X38410000Y-170849000D02*
X40330000Y-170849000D01*
X40330000Y-170849000D02*
X40330000Y-168164000D01*
%TO.C,D3*%
X36124000Y-168164000D02*
X36124000Y-170849000D01*
X36124000Y-170849000D02*
X38044000Y-170849000D01*
X38044000Y-170849000D02*
X38044000Y-168164000D01*
%TO.C,D2*%
X33838000Y-168164000D02*
X33838000Y-170849000D01*
X33838000Y-170849000D02*
X35758000Y-170849000D01*
X35758000Y-170849000D02*
X35758000Y-168164000D01*
%TO.C,D1*%
X31552000Y-168164000D02*
X31552000Y-170849000D01*
X31552000Y-170849000D02*
X33472000Y-170849000D01*
X33472000Y-170849000D02*
X33472000Y-168164000D01*
%TO.C,J1*%
X69656000Y-147768000D02*
X64456000Y-147768000D01*
X69656000Y-157988000D02*
X69656000Y-147768000D01*
X64456000Y-160588000D02*
X64456000Y-147768000D01*
X69656000Y-157988000D02*
X67056000Y-157988000D01*
X67056000Y-157988000D02*
X67056000Y-160588000D01*
X67056000Y-160588000D02*
X64456000Y-160588000D01*
X69656000Y-159258000D02*
X69656000Y-160588000D01*
X69656000Y-160588000D02*
X68326000Y-160588000D01*
%TO.C,U7*%
X-19441000Y-171196000D02*
X-19441000Y-169246000D01*
X-19441000Y-171196000D02*
X-19441000Y-173146000D01*
X-28311000Y-171196000D02*
X-28311000Y-169246000D01*
X-28311000Y-171196000D02*
X-28311000Y-174646000D01*
%TO.C,U6*%
X57853000Y-171196000D02*
X57853000Y-168996000D01*
X57853000Y-171196000D02*
X57853000Y-173396000D01*
X52383000Y-171196000D02*
X52383000Y-168996000D01*
X52383000Y-171196000D02*
X52383000Y-174796000D01*
%TO.C,U4*%
X66489000Y-171196000D02*
X66489000Y-168996000D01*
X66489000Y-171196000D02*
X66489000Y-173396000D01*
X61019000Y-171196000D02*
X61019000Y-168996000D01*
X61019000Y-171196000D02*
X61019000Y-174796000D01*
%TO.C,U2*%
X48962000Y-148590000D02*
X48962000Y-151240000D01*
X48962000Y-148590000D02*
X48962000Y-145940000D01*
X61782000Y-148590000D02*
X61782000Y-151240000D01*
X61782000Y-148590000D02*
X61782000Y-144140000D01*
%TO.C,U1*%
X44888000Y-171196000D02*
X44888000Y-173396000D01*
X44888000Y-171196000D02*
X44888000Y-168996000D01*
X50108000Y-171196000D02*
X50108000Y-173396000D01*
X50108000Y-171196000D02*
X50108000Y-167596000D01*
%TO.C,R10*%
X-21109000Y-136932936D02*
X-21109000Y-137387064D01*
X-22579000Y-136932936D02*
X-22579000Y-137387064D01*
%TO.C,R8*%
X-27659000Y-160501064D02*
X-27659000Y-160046936D01*
X-26189000Y-160501064D02*
X-26189000Y-160046936D01*
%TO.C,R6*%
X60171000Y-173254936D02*
X60171000Y-173709064D01*
X58701000Y-173254936D02*
X58701000Y-173709064D01*
%TO.C,R5*%
X67029064Y-136371000D02*
X66574936Y-136371000D01*
X67029064Y-134901000D02*
X66574936Y-134901000D01*
%TO.C,R4*%
X67029064Y-138911000D02*
X66574936Y-138911000D01*
X67029064Y-137441000D02*
X66574936Y-137441000D01*
%TO.C,R3*%
X67029064Y-141451000D02*
X66574936Y-141451000D01*
X67029064Y-139981000D02*
X66574936Y-139981000D01*
%TO.C,R2*%
X67029064Y-143991000D02*
X66574936Y-143991000D01*
X67029064Y-142521000D02*
X66574936Y-142521000D01*
%TO.C,R1*%
X67029064Y-146531000D02*
X66574936Y-146531000D01*
X67029064Y-145061000D02*
X66574936Y-145061000D01*
%TO.C,U5*%
D10*
X-14437904Y-176236380D02*
X-13771238Y-176236380D01*
X-14199809Y-177236380D01*
X-12961714Y-176569714D02*
X-12961714Y-177236380D01*
X-13199809Y-176188761D02*
X-13437904Y-176903047D01*
X-12818857Y-176903047D01*
X-12437904Y-177236380D02*
X-12437904Y-176236380D01*
X-12437904Y-176712571D02*
X-11866476Y-176712571D01*
X-11866476Y-177236380D02*
X-11866476Y-176236380D01*
X-10818857Y-177141142D02*
X-10866476Y-177188761D01*
X-11009333Y-177236380D01*
X-11104571Y-177236380D01*
X-11247428Y-177188761D01*
X-11342666Y-177093523D01*
X-11390285Y-176998285D01*
X-11437904Y-176807809D01*
X-11437904Y-176664952D01*
X-11390285Y-176474476D01*
X-11342666Y-176379238D01*
X-11247428Y-176284000D01*
X-11104571Y-176236380D01*
X-11009333Y-176236380D01*
X-10866476Y-176284000D01*
X-10818857Y-176331619D01*
X-9866476Y-177236380D02*
X-10437904Y-177236380D01*
X-10152190Y-177236380D02*
X-10152190Y-176236380D01*
X-10247428Y-176379238D01*
X-10342666Y-176474476D01*
X-10437904Y-176522095D01*
X-9009333Y-176236380D02*
X-9199809Y-176236380D01*
X-9295047Y-176284000D01*
X-9342666Y-176331619D01*
X-9437904Y-176474476D01*
X-9485523Y-176664952D01*
X-9485523Y-177045904D01*
X-9437904Y-177141142D01*
X-9390285Y-177188761D01*
X-9295047Y-177236380D01*
X-9104571Y-177236380D01*
X-9009333Y-177188761D01*
X-8961714Y-177141142D01*
X-8914095Y-177045904D01*
X-8914095Y-176807809D01*
X-8961714Y-176712571D01*
X-9009333Y-176664952D01*
X-9104571Y-176617333D01*
X-9295047Y-176617333D01*
X-9390285Y-176664952D01*
X-9437904Y-176712571D01*
X-9485523Y-176807809D01*
X-7961714Y-177236380D02*
X-8533142Y-177236380D01*
X-8247428Y-177236380D02*
X-8247428Y-176236380D01*
X-8342666Y-176379238D01*
X-8437904Y-176474476D01*
X-8533142Y-176522095D01*
%TO.C,U3*%
X-213904Y-176236380D02*
X452761Y-176236380D01*
X24190Y-177236380D01*
X1262285Y-176569714D02*
X1262285Y-177236380D01*
X1024190Y-176188761D02*
X786095Y-176903047D01*
X1405142Y-176903047D01*
X1786095Y-177236380D02*
X1786095Y-176236380D01*
X1786095Y-176712571D02*
X2357523Y-176712571D01*
X2357523Y-177236380D02*
X2357523Y-176236380D01*
X3405142Y-177141142D02*
X3357523Y-177188761D01*
X3214666Y-177236380D01*
X3119428Y-177236380D01*
X2976571Y-177188761D01*
X2881333Y-177093523D01*
X2833714Y-176998285D01*
X2786095Y-176807809D01*
X2786095Y-176664952D01*
X2833714Y-176474476D01*
X2881333Y-176379238D01*
X2976571Y-176284000D01*
X3119428Y-176236380D01*
X3214666Y-176236380D01*
X3357523Y-176284000D01*
X3405142Y-176331619D01*
X4357523Y-177236380D02*
X3786095Y-177236380D01*
X4071809Y-177236380D02*
X4071809Y-176236380D01*
X3976571Y-176379238D01*
X3881333Y-176474476D01*
X3786095Y-176522095D01*
X5214666Y-176236380D02*
X5024190Y-176236380D01*
X4928952Y-176284000D01*
X4881333Y-176331619D01*
X4786095Y-176474476D01*
X4738476Y-176664952D01*
X4738476Y-177045904D01*
X4786095Y-177141142D01*
X4833714Y-177188761D01*
X4928952Y-177236380D01*
X5119428Y-177236380D01*
X5214666Y-177188761D01*
X5262285Y-177141142D01*
X5309904Y-177045904D01*
X5309904Y-176807809D01*
X5262285Y-176712571D01*
X5214666Y-176664952D01*
X5119428Y-176617333D01*
X4928952Y-176617333D01*
X4833714Y-176664952D01*
X4786095Y-176712571D01*
X4738476Y-176807809D01*
X6262285Y-177236380D02*
X5690857Y-177236380D01*
X5976571Y-177236380D02*
X5976571Y-176236380D01*
X5881333Y-176379238D01*
X5786095Y-176474476D01*
X5690857Y-176522095D01*
%TO.C,C2*%
D11*
X11959333Y-136345142D02*
X11911714Y-136392761D01*
X11768857Y-136440380D01*
X11673619Y-136440380D01*
X11530761Y-136392761D01*
X11435523Y-136297523D01*
X11387904Y-136202285D01*
X11340285Y-136011809D01*
X11340285Y-135868952D01*
X11387904Y-135678476D01*
X11435523Y-135583238D01*
X11530761Y-135488000D01*
X11673619Y-135440380D01*
X11768857Y-135440380D01*
X11911714Y-135488000D01*
X11959333Y-135535619D01*
X12340285Y-135535619D02*
X12387904Y-135488000D01*
X12483142Y-135440380D01*
X12721238Y-135440380D01*
X12816476Y-135488000D01*
X12864095Y-135535619D01*
X12911714Y-135630857D01*
X12911714Y-135726095D01*
X12864095Y-135868952D01*
X12292666Y-136440380D01*
X12911714Y-136440380D01*
%TO.C,C1*%
X-26008666Y-136345142D02*
X-26056285Y-136392761D01*
X-26199142Y-136440380D01*
X-26294380Y-136440380D01*
X-26437238Y-136392761D01*
X-26532476Y-136297523D01*
X-26580095Y-136202285D01*
X-26627714Y-136011809D01*
X-26627714Y-135868952D01*
X-26580095Y-135678476D01*
X-26532476Y-135583238D01*
X-26437238Y-135488000D01*
X-26294380Y-135440380D01*
X-26199142Y-135440380D01*
X-26056285Y-135488000D01*
X-26008666Y-135535619D01*
X-25056285Y-136440380D02*
X-25627714Y-136440380D01*
X-25342000Y-136440380D02*
X-25342000Y-135440380D01*
X-25437238Y-135583238D01*
X-25532476Y-135678476D01*
X-25627714Y-135726095D01*
%TO.C,U7*%
D10*
X-25971238Y-176379142D02*
X-26018857Y-176426761D01*
X-26161714Y-176474380D01*
X-26256952Y-176474380D01*
X-26399809Y-176426761D01*
X-26495047Y-176331523D01*
X-26542666Y-176236285D01*
X-26590285Y-176045809D01*
X-26590285Y-175902952D01*
X-26542666Y-175712476D01*
X-26495047Y-175617238D01*
X-26399809Y-175522000D01*
X-26256952Y-175474380D01*
X-26161714Y-175474380D01*
X-26018857Y-175522000D01*
X-25971238Y-175569619D01*
X-25542666Y-176474380D02*
X-25542666Y-175474380D01*
X-25304571Y-175474380D01*
X-25161714Y-175522000D01*
X-25066476Y-175617238D01*
X-25018857Y-175712476D01*
X-24971238Y-175902952D01*
X-24971238Y-176045809D01*
X-25018857Y-176236285D01*
X-25066476Y-176331523D01*
X-25161714Y-176426761D01*
X-25304571Y-176474380D01*
X-25542666Y-176474380D01*
X-24114095Y-175807714D02*
X-24114095Y-176474380D01*
X-24352190Y-175426761D02*
X-24590285Y-176141047D01*
X-23971238Y-176141047D01*
X-23399809Y-175474380D02*
X-23304571Y-175474380D01*
X-23209333Y-175522000D01*
X-23161714Y-175569619D01*
X-23114095Y-175664857D01*
X-23066476Y-175855333D01*
X-23066476Y-176093428D01*
X-23114095Y-176283904D01*
X-23161714Y-176379142D01*
X-23209333Y-176426761D01*
X-23304571Y-176474380D01*
X-23399809Y-176474380D01*
X-23495047Y-176426761D01*
X-23542666Y-176379142D01*
X-23590285Y-176283904D01*
X-23637904Y-176093428D01*
X-23637904Y-175855333D01*
X-23590285Y-175664857D01*
X-23542666Y-175569619D01*
X-23495047Y-175522000D01*
X-23399809Y-175474380D01*
X-22733142Y-175474380D02*
X-22066476Y-175474380D01*
X-22495047Y-176474380D01*
X-21733142Y-175569619D02*
X-21685523Y-175522000D01*
X-21590285Y-175474380D01*
X-21352190Y-175474380D01*
X-21256952Y-175522000D01*
X-21209333Y-175569619D01*
X-21161714Y-175664857D01*
X-21161714Y-175760095D01*
X-21209333Y-175902952D01*
X-21780761Y-176474380D01*
X-21161714Y-176474380D01*
%TO.C,U6*%
X51856095Y-175474380D02*
X52522761Y-175474380D01*
X52094190Y-176474380D01*
X53332285Y-175807714D02*
X53332285Y-176474380D01*
X53094190Y-175426761D02*
X52856095Y-176141047D01*
X53475142Y-176141047D01*
X53856095Y-176474380D02*
X53856095Y-175474380D01*
X53856095Y-175950571D02*
X54427523Y-175950571D01*
X54427523Y-176474380D02*
X54427523Y-175474380D01*
X55475142Y-176379142D02*
X55427523Y-176426761D01*
X55284666Y-176474380D01*
X55189428Y-176474380D01*
X55046571Y-176426761D01*
X54951333Y-176331523D01*
X54903714Y-176236285D01*
X54856095Y-176045809D01*
X54856095Y-175902952D01*
X54903714Y-175712476D01*
X54951333Y-175617238D01*
X55046571Y-175522000D01*
X55189428Y-175474380D01*
X55284666Y-175474380D01*
X55427523Y-175522000D01*
X55475142Y-175569619D01*
X56427523Y-176474380D02*
X55856095Y-176474380D01*
X56141809Y-176474380D02*
X56141809Y-175474380D01*
X56046571Y-175617238D01*
X55951333Y-175712476D01*
X55856095Y-175760095D01*
X57332285Y-175474380D02*
X56856095Y-175474380D01*
X56808476Y-175950571D01*
X56856095Y-175902952D01*
X56951333Y-175855333D01*
X57189428Y-175855333D01*
X57284666Y-175902952D01*
X57332285Y-175950571D01*
X57379904Y-176045809D01*
X57379904Y-176283904D01*
X57332285Y-176379142D01*
X57284666Y-176426761D01*
X57189428Y-176474380D01*
X56951333Y-176474380D01*
X56856095Y-176426761D01*
X56808476Y-176379142D01*
X57713238Y-175474380D02*
X58379904Y-175474380D01*
X57951333Y-176474380D01*
%TO.C,U4*%
X60492095Y-175474380D02*
X61158761Y-175474380D01*
X60730190Y-176474380D01*
X61968285Y-175807714D02*
X61968285Y-176474380D01*
X61730190Y-175426761D02*
X61492095Y-176141047D01*
X62111142Y-176141047D01*
X62492095Y-176474380D02*
X62492095Y-175474380D01*
X62492095Y-175950571D02*
X63063523Y-175950571D01*
X63063523Y-176474380D02*
X63063523Y-175474380D01*
X64111142Y-176379142D02*
X64063523Y-176426761D01*
X63920666Y-176474380D01*
X63825428Y-176474380D01*
X63682571Y-176426761D01*
X63587333Y-176331523D01*
X63539714Y-176236285D01*
X63492095Y-176045809D01*
X63492095Y-175902952D01*
X63539714Y-175712476D01*
X63587333Y-175617238D01*
X63682571Y-175522000D01*
X63825428Y-175474380D01*
X63920666Y-175474380D01*
X64063523Y-175522000D01*
X64111142Y-175569619D01*
X65063523Y-176474380D02*
X64492095Y-176474380D01*
X64777809Y-176474380D02*
X64777809Y-175474380D01*
X64682571Y-175617238D01*
X64587333Y-175712476D01*
X64492095Y-175760095D01*
X65968285Y-175474380D02*
X65492095Y-175474380D01*
X65444476Y-175950571D01*
X65492095Y-175902952D01*
X65587333Y-175855333D01*
X65825428Y-175855333D01*
X65920666Y-175902952D01*
X65968285Y-175950571D01*
X66015904Y-176045809D01*
X66015904Y-176283904D01*
X65968285Y-176379142D01*
X65920666Y-176426761D01*
X65825428Y-176474380D01*
X65587333Y-176474380D01*
X65492095Y-176426761D01*
X65444476Y-176379142D01*
X66349238Y-175474380D02*
X67015904Y-175474380D01*
X66587333Y-176474380D01*
%TO.C,U2*%
X52110095Y-153884380D02*
X52776761Y-153884380D01*
X52348190Y-154884380D01*
X53586285Y-154217714D02*
X53586285Y-154884380D01*
X53348190Y-153836761D02*
X53110095Y-154551047D01*
X53729142Y-154551047D01*
X54110095Y-154884380D02*
X54110095Y-153884380D01*
X54110095Y-154360571D02*
X54681523Y-154360571D01*
X54681523Y-154884380D02*
X54681523Y-153884380D01*
X55729142Y-154789142D02*
X55681523Y-154836761D01*
X55538666Y-154884380D01*
X55443428Y-154884380D01*
X55300571Y-154836761D01*
X55205333Y-154741523D01*
X55157714Y-154646285D01*
X55110095Y-154455809D01*
X55110095Y-154312952D01*
X55157714Y-154122476D01*
X55205333Y-154027238D01*
X55300571Y-153932000D01*
X55443428Y-153884380D01*
X55538666Y-153884380D01*
X55681523Y-153932000D01*
X55729142Y-153979619D01*
X56633904Y-153884380D02*
X56157714Y-153884380D01*
X56110095Y-154360571D01*
X56157714Y-154312952D01*
X56252952Y-154265333D01*
X56491047Y-154265333D01*
X56586285Y-154312952D01*
X56633904Y-154360571D01*
X56681523Y-154455809D01*
X56681523Y-154693904D01*
X56633904Y-154789142D01*
X56586285Y-154836761D01*
X56491047Y-154884380D01*
X56252952Y-154884380D01*
X56157714Y-154836761D01*
X56110095Y-154789142D01*
X57014857Y-153884380D02*
X57681523Y-153884380D01*
X57252952Y-154884380D01*
X58491047Y-154217714D02*
X58491047Y-154884380D01*
X58252952Y-153836761D02*
X58014857Y-154551047D01*
X58633904Y-154551047D01*
%TO.C,U1*%
X44712285Y-175474380D02*
X45378952Y-175474380D01*
X44950380Y-176474380D01*
X46188476Y-175807714D02*
X46188476Y-176474380D01*
X45950380Y-175426761D02*
X45712285Y-176141047D01*
X46331333Y-176141047D01*
X46712285Y-176474380D02*
X46712285Y-175474380D01*
X46712285Y-175950571D02*
X47283714Y-175950571D01*
X47283714Y-176474380D02*
X47283714Y-175474380D01*
X48331333Y-176379142D02*
X48283714Y-176426761D01*
X48140857Y-176474380D01*
X48045619Y-176474380D01*
X47902761Y-176426761D01*
X47807523Y-176331523D01*
X47759904Y-176236285D01*
X47712285Y-176045809D01*
X47712285Y-175902952D01*
X47759904Y-175712476D01*
X47807523Y-175617238D01*
X47902761Y-175522000D01*
X48045619Y-175474380D01*
X48140857Y-175474380D01*
X48283714Y-175522000D01*
X48331333Y-175569619D01*
X48950380Y-175474380D02*
X49045619Y-175474380D01*
X49140857Y-175522000D01*
X49188476Y-175569619D01*
X49236095Y-175664857D01*
X49283714Y-175855333D01*
X49283714Y-176093428D01*
X49236095Y-176283904D01*
X49188476Y-176379142D01*
X49140857Y-176426761D01*
X49045619Y-176474380D01*
X48950380Y-176474380D01*
X48855142Y-176426761D01*
X48807523Y-176379142D01*
X48759904Y-176283904D01*
X48712285Y-176093428D01*
X48712285Y-175855333D01*
X48759904Y-175664857D01*
X48807523Y-175569619D01*
X48855142Y-175522000D01*
X48950380Y-175474380D01*
X49902761Y-175474380D02*
X49998000Y-175474380D01*
X50093238Y-175522000D01*
X50140857Y-175569619D01*
X50188476Y-175664857D01*
X50236095Y-175855333D01*
X50236095Y-176093428D01*
X50188476Y-176283904D01*
X50140857Y-176379142D01*
X50093238Y-176426761D01*
X49998000Y-176474380D01*
X49902761Y-176474380D01*
X49807523Y-176426761D01*
X49759904Y-176379142D01*
X49712285Y-176283904D01*
X49664666Y-176093428D01*
X49664666Y-175855333D01*
X49712285Y-175664857D01*
X49759904Y-175569619D01*
X49807523Y-175522000D01*
X49902761Y-175474380D01*
%TD*%
M02*
