M48
; DRILL file {KiCad (5.1.10-1-10_14)} date Sunday, November 14, 2021 at 12:00:48 PM
; FORMAT={-:-/ absolute / inch / decimal}
; #@! TF.CreationDate,2021-11-14T12:00:48-05:00
; #@! TF.GenerationSoftware,Kicad,Pcbnew,(5.1.10-1-10_14)
; #@! TF.FileFunction,Plated,1,4,PTH
FMAT,2
INCH
T1C0.0157
T2C0.0300
T3C0.0315
T4C0.0394
T5C0.0433
%
G90
G05
T1
X7.0926Y-2.0826
X7.23Y-2.15
X7.335Y-2.195
X7.41Y-2.45
X7.4844Y-2.5815
X7.57Y-2.15
X7.57Y-2.38
X7.75Y-2.1
X7.895Y-2.205
X8.0141Y-1.7541
X8.0415Y-2.5615
X8.2432Y-2.1885
X8.2797Y-2.3466
X8.2916Y-2.1887
X8.49Y-2.22
X8.49Y-2.46
X8.52Y-2.26
X8.5568Y-2.2885
X8.57Y-2.09
X8.58Y-2.4
X8.59Y-1.33
X8.59Y-1.56
X8.61Y-2.18
X8.67Y-2.59
X8.7464Y-2.3933
X8.79Y-2.34
X8.85Y-2.61
X8.8673Y-2.4627
X8.8677Y-2.3977
X8.88Y-2.14
X8.9Y-2.57
X8.92Y-2.34
X9.05Y-2.39
X9.08Y-2.14
X9.1Y-2.39
X9.11Y-2.3
X9.1393Y-2.3878
X9.21Y-2.17
X9.25Y-2.47
X9.2784Y-2.0937
X9.32Y-2.1
X9.36Y-1.27
X9.36Y-2.1
X9.48Y-1.52
X9.5726Y-1.3426
X9.6159Y-2.1559
X9.91Y-2.59
T2
X9.485Y-1.7789
X9.485Y-1.9789
X9.585Y-1.7789
X9.585Y-1.9789
X9.685Y-1.7789
X9.685Y-1.9789
X9.9663Y-2.2099
X10.1663Y-1.4099
X10.2663Y-1.4099
X10.3663Y-1.4099
X10.5663Y-2.2099
T3
X7.14Y-1.65
X7.14Y-1.95
X7.74Y-1.65
X7.74Y-1.95
X9.01Y-1.72
X9.01Y-2.02
X9.11Y-1.72
X9.11Y-2.02
X9.21Y-1.72
X9.21Y-2.02
T4
X8.41Y-2.7
X8.51Y-2.7
X8.61Y-2.7
X8.71Y-2.7
X8.81Y-2.7
X8.91Y-2.7
X8.95Y-1.42
X9.01Y-2.7
X9.05Y-1.42
X9.11Y-2.7
X9.15Y-1.42
X9.21Y-2.7
X9.25Y-1.42
T5
X8.53Y-1.79
X8.53Y-1.9672
X8.7859Y-1.79
X8.7859Y-1.9672
T0
M30
