%TF.GenerationSoftware,KiCad,Pcbnew,(5.1.10-1-10_14)*%
%TF.CreationDate,2021-07-27T09:10:43-04:00*%
%TF.ProjectId,COUNTER,434f554e-5445-4522-9e6b-696361645f70,rev?*%
%TF.SameCoordinates,Original*%
%TF.FileFunction,Copper,L3,Inr*%
%TF.FilePolarity,Positive*%
%FSLAX46Y46*%
G04 Gerber Fmt 4.6, Leading zero omitted, Abs format (unit mm)*
G04 Created by KiCad (PCBNEW (5.1.10-1-10_14)) date 2021-07-27 09:10:43*
%MOMM*%
%LPD*%
G01*
G04 APERTURE LIST*
%TA.AperFunction,ComponentPad*%
%ADD10R,1.700000X1.700000*%
%TD*%
%TA.AperFunction,ComponentPad*%
%ADD11O,1.700000X1.700000*%
%TD*%
%TA.AperFunction,ComponentPad*%
%ADD12C,1.600000*%
%TD*%
%TA.AperFunction,ComponentPad*%
%ADD13R,1.600000X1.600000*%
%TD*%
%TA.AperFunction,ComponentPad*%
%ADD14R,1.050000X1.500000*%
%TD*%
%TA.AperFunction,ComponentPad*%
%ADD15O,1.050000X1.500000*%
%TD*%
%TA.AperFunction,ComponentPad*%
%ADD16O,1.600000X1.600000*%
%TD*%
%TA.AperFunction,ComponentPad*%
%ADD17C,1.800000*%
%TD*%
%TA.AperFunction,ComponentPad*%
%ADD18R,1.800000X1.800000*%
%TD*%
%TA.AperFunction,ComponentPad*%
%ADD19C,0.800000*%
%TD*%
%TA.AperFunction,ComponentPad*%
%ADD20C,6.000000*%
%TD*%
%TA.AperFunction,Conductor*%
%ADD21C,0.254000*%
%TD*%
%TA.AperFunction,Conductor*%
%ADD22C,0.100000*%
%TD*%
G04 APERTURE END LIST*
D10*
%TO.N,VCC*%
%TO.C,J22*%
X148145500Y-74104500D03*
D11*
%TO.N,GND*%
X148145500Y-71564500D03*
%TO.N,BUS_00*%
X148145500Y-69024500D03*
%TO.N,BUS_01*%
X148145500Y-66484500D03*
%TO.N,BUS_02*%
X148145500Y-63944500D03*
%TO.N,BUS_03*%
X148145500Y-61404500D03*
%TO.N,BUS_04*%
X148145500Y-58864500D03*
%TO.N,BUS_05*%
X148145500Y-56324500D03*
%TO.N,BUS_06*%
X148145500Y-53784500D03*
%TO.N,BUS_07*%
X148145500Y-51244500D03*
%TO.N,JUMP*%
X148145500Y-48704500D03*
%TO.N,RESET*%
X148145500Y-46164500D03*
%TO.N,CLOCK*%
X148145500Y-43624500D03*
%TO.N,OE*%
X148145500Y-41084500D03*
%TO.N,CE*%
X148145500Y-38544500D03*
%TO.N,CARRY_OUT*%
X148145500Y-36004500D03*
%TD*%
D12*
%TO.N,GND*%
%TO.C,C10*%
X93027500Y-75618500D03*
D13*
%TO.N,VCC*%
X93027500Y-71818500D03*
%TD*%
D14*
%TO.N,GND*%
%TO.C,Q3*%
X83629500Y-45402500D03*
D15*
%TO.N,!RESET*%
X86169500Y-45402500D03*
%TO.N,RESET*%
X84899500Y-45402500D03*
%TD*%
D14*
%TO.N,GND*%
%TO.C,Q2*%
X83375500Y-68516500D03*
D15*
%TO.N,!OE*%
X85915500Y-68516500D03*
%TO.N,OE*%
X84645500Y-68516500D03*
%TD*%
D14*
%TO.N,GND*%
%TO.C,Q1*%
X83629500Y-36766500D03*
D15*
%TO.N,!JUMP*%
X86169500Y-36766500D03*
%TO.N,JUMP*%
X84899500Y-36766500D03*
%TD*%
D16*
%TO.N,Net-(D1-Pad1)*%
%TO.C,RN1*%
X101663500Y-62928500D03*
%TO.N,Net-(D2-Pad1)*%
X104203500Y-62928500D03*
%TO.N,Net-(D3-Pad1)*%
X106743500Y-62928500D03*
%TO.N,Net-(D4-Pad1)*%
X109283500Y-62928500D03*
%TO.N,Net-(D5-Pad1)*%
X111823500Y-62928500D03*
%TO.N,Net-(D6-Pad1)*%
X114363500Y-62928500D03*
%TO.N,Net-(D7-Pad1)*%
X116903500Y-62928500D03*
%TO.N,Net-(D8-Pad1)*%
X119443500Y-62928500D03*
D13*
%TO.N,GND*%
X121983500Y-62928500D03*
%TD*%
D17*
%TO.N,B7*%
%TO.C,D8*%
X134937500Y-54800500D03*
D18*
%TO.N,Net-(D8-Pad1)*%
X134937500Y-57340500D03*
%TD*%
D17*
%TO.N,B6*%
%TO.C,D7*%
X128333500Y-54800500D03*
D18*
%TO.N,Net-(D7-Pad1)*%
X128333500Y-57340500D03*
%TD*%
D17*
%TO.N,B5*%
%TO.C,D6*%
X121729500Y-54800500D03*
D18*
%TO.N,Net-(D6-Pad1)*%
X121729500Y-57340500D03*
%TD*%
D17*
%TO.N,B4*%
%TO.C,D5*%
X115125500Y-54800500D03*
D18*
%TO.N,Net-(D5-Pad1)*%
X115125500Y-57340500D03*
%TD*%
D17*
%TO.N,B3*%
%TO.C,D4*%
X108521500Y-54800500D03*
D18*
%TO.N,Net-(D4-Pad1)*%
X108521500Y-57340500D03*
%TD*%
D17*
%TO.N,B2*%
%TO.C,D3*%
X101917500Y-54800500D03*
D18*
%TO.N,Net-(D3-Pad1)*%
X101917500Y-57340500D03*
%TD*%
D17*
%TO.N,B1*%
%TO.C,D2*%
X95313500Y-54800500D03*
D18*
%TO.N,Net-(D2-Pad1)*%
X95313500Y-57340500D03*
%TD*%
D17*
%TO.N,B0*%
%TO.C,D1*%
X88709500Y-54800500D03*
D18*
%TO.N,Net-(D1-Pad1)*%
X88709500Y-57340500D03*
%TD*%
D19*
%TO.N,N/C*%
%TO.C,REF\u002A\u002A*%
X84458490Y-79117510D03*
X82867500Y-78458500D03*
X81276510Y-79117510D03*
X80617500Y-80708500D03*
X81276510Y-82299490D03*
X82867500Y-82958500D03*
X84458490Y-82299490D03*
X85117500Y-80708500D03*
D20*
X82867500Y-80708500D03*
%TD*%
%TO.N,N/C*%
%TO.C,REF\u002A\u002A*%
X82867500Y-29400500D03*
D19*
X85117500Y-29400500D03*
X84458490Y-30991490D03*
X82867500Y-31650500D03*
X81276510Y-30991490D03*
X80617500Y-29400500D03*
X81276510Y-27809510D03*
X82867500Y-27150500D03*
X84458490Y-27809510D03*
%TD*%
D20*
%TO.N,N/C*%
%TO.C,REF\u002A\u002A*%
X146621500Y-80708500D03*
D19*
X148871500Y-80708500D03*
X148212490Y-82299490D03*
X146621500Y-82958500D03*
X145030510Y-82299490D03*
X144371500Y-80708500D03*
X145030510Y-79117510D03*
X146621500Y-78458500D03*
X148212490Y-79117510D03*
%TD*%
%TO.N,N/C*%
%TO.C,REF\u002A\u002A*%
X148212490Y-27809510D03*
X146621500Y-27150500D03*
X145030510Y-27809510D03*
X144371500Y-29400500D03*
X145030510Y-30991490D03*
X146621500Y-31650500D03*
X148212490Y-30991490D03*
X148871500Y-29400500D03*
D20*
X146621500Y-29400500D03*
%TD*%
D16*
%TO.N,VCC*%
%TO.C,U14*%
X93789500Y-33972500D03*
%TO.N,GND*%
X111569500Y-41592500D03*
%TO.N,Net-(U12-Pad10)*%
X96329500Y-33972500D03*
%TO.N,CE*%
X109029500Y-41592500D03*
%TO.N,B0*%
X98869500Y-33972500D03*
%TO.N,BUS_03*%
X106489500Y-41592500D03*
%TO.N,B1*%
X101409500Y-33972500D03*
%TO.N,BUS_02*%
X103949500Y-41592500D03*
%TO.N,B2*%
X103949500Y-33972500D03*
%TO.N,BUS_01*%
X101409500Y-41592500D03*
%TO.N,B3*%
X106489500Y-33972500D03*
%TO.N,BUS_00*%
X98869500Y-41592500D03*
%TO.N,CE*%
X109029500Y-33972500D03*
%TO.N,CLOCK*%
X96329500Y-41592500D03*
%TO.N,!JUMP*%
X111569500Y-33972500D03*
D13*
%TO.N,!RESET*%
X93789500Y-41592500D03*
%TD*%
D16*
%TO.N,VCC*%
%TO.C,U47*%
X100139500Y-69532500D03*
%TO.N,GND*%
X122999500Y-77152500D03*
%TO.N,!OE*%
X102679500Y-69532500D03*
%TO.N,BUS_00*%
X120459500Y-77152500D03*
%TO.N,B0*%
X105219500Y-69532500D03*
%TO.N,BUS_01*%
X117919500Y-77152500D03*
%TO.N,B1*%
X107759500Y-69532500D03*
%TO.N,BUS_02*%
X115379500Y-77152500D03*
%TO.N,B2*%
X110299500Y-69532500D03*
%TO.N,BUS_03*%
X112839500Y-77152500D03*
%TO.N,B3*%
X112839500Y-69532500D03*
%TO.N,BUS_04*%
X110299500Y-77152500D03*
%TO.N,B4*%
X115379500Y-69532500D03*
%TO.N,BUS_05*%
X107759500Y-77152500D03*
%TO.N,B5*%
X117919500Y-69532500D03*
%TO.N,BUS_06*%
X105219500Y-77152500D03*
%TO.N,B6*%
X120459500Y-69532500D03*
%TO.N,BUS_07*%
X102679500Y-77152500D03*
%TO.N,B7*%
X122999500Y-69532500D03*
D13*
%TO.N,GND*%
X100139500Y-77152500D03*
%TD*%
D16*
%TO.N,VCC*%
%TO.C,U12*%
X117919500Y-33972500D03*
%TO.N,GND*%
X135699500Y-41592500D03*
%TO.N,CARRY_OUT*%
X120459500Y-33972500D03*
%TO.N,VCC*%
X133159500Y-41592500D03*
%TO.N,B4*%
X122999500Y-33972500D03*
%TO.N,BUS_07*%
X130619500Y-41592500D03*
%TO.N,B5*%
X125539500Y-33972500D03*
%TO.N,BUS_06*%
X128079500Y-41592500D03*
%TO.N,B6*%
X128079500Y-33972500D03*
%TO.N,BUS_05*%
X125539500Y-41592500D03*
%TO.N,B7*%
X130619500Y-33972500D03*
%TO.N,BUS_04*%
X122999500Y-41592500D03*
%TO.N,Net-(U12-Pad10)*%
X133159500Y-33972500D03*
%TO.N,CLOCK*%
X120459500Y-41592500D03*
%TO.N,!JUMP*%
X135699500Y-33972500D03*
D13*
%TO.N,!RESET*%
X117919500Y-41592500D03*
%TD*%
D21*
%TO.N,VCC*%
X144304323Y-26577011D02*
X143798011Y-27083323D01*
X143400205Y-27678682D01*
X143126191Y-28340210D01*
X142986500Y-29042484D01*
X142986500Y-29758516D01*
X143126191Y-30460790D01*
X143400205Y-31122318D01*
X143798011Y-31717677D01*
X144304323Y-32223989D01*
X144899682Y-32621795D01*
X145561210Y-32895809D01*
X146263484Y-33035500D01*
X146979516Y-33035500D01*
X147681790Y-32895809D01*
X148343318Y-32621795D01*
X148938677Y-32223989D01*
X149444989Y-31717677D01*
X149517501Y-31609155D01*
X149517501Y-35436312D01*
X149461490Y-35301089D01*
X149298975Y-35057868D01*
X149092132Y-34851025D01*
X148848911Y-34688510D01*
X148578658Y-34576568D01*
X148291760Y-34519500D01*
X147999240Y-34519500D01*
X147712342Y-34576568D01*
X147442089Y-34688510D01*
X147198868Y-34851025D01*
X146992025Y-35057868D01*
X146829510Y-35301089D01*
X146717568Y-35571342D01*
X146660500Y-35858240D01*
X146660500Y-36150760D01*
X146717568Y-36437658D01*
X146829510Y-36707911D01*
X146992025Y-36951132D01*
X147198868Y-37157975D01*
X147373260Y-37274500D01*
X147198868Y-37391025D01*
X146992025Y-37597868D01*
X146829510Y-37841089D01*
X146717568Y-38111342D01*
X146660500Y-38398240D01*
X146660500Y-38690760D01*
X146717568Y-38977658D01*
X146829510Y-39247911D01*
X146992025Y-39491132D01*
X147198868Y-39697975D01*
X147373260Y-39814500D01*
X147198868Y-39931025D01*
X146992025Y-40137868D01*
X146829510Y-40381089D01*
X146717568Y-40651342D01*
X146660500Y-40938240D01*
X146660500Y-41230760D01*
X146717568Y-41517658D01*
X146829510Y-41787911D01*
X146992025Y-42031132D01*
X147198868Y-42237975D01*
X147373260Y-42354500D01*
X147198868Y-42471025D01*
X146992025Y-42677868D01*
X146829510Y-42921089D01*
X146717568Y-43191342D01*
X146660500Y-43478240D01*
X146660500Y-43770760D01*
X146717568Y-44057658D01*
X146829510Y-44327911D01*
X146992025Y-44571132D01*
X147198868Y-44777975D01*
X147373260Y-44894500D01*
X147198868Y-45011025D01*
X146992025Y-45217868D01*
X146829510Y-45461089D01*
X146717568Y-45731342D01*
X146660500Y-46018240D01*
X146660500Y-46310760D01*
X146717568Y-46597658D01*
X146829510Y-46867911D01*
X146992025Y-47111132D01*
X147198868Y-47317975D01*
X147373260Y-47434500D01*
X147198868Y-47551025D01*
X146992025Y-47757868D01*
X146829510Y-48001089D01*
X146717568Y-48271342D01*
X146660500Y-48558240D01*
X146660500Y-48850760D01*
X146717568Y-49137658D01*
X146829510Y-49407911D01*
X146992025Y-49651132D01*
X147198868Y-49857975D01*
X147373260Y-49974500D01*
X147198868Y-50091025D01*
X146992025Y-50297868D01*
X146829510Y-50541089D01*
X146717568Y-50811342D01*
X146660500Y-51098240D01*
X146660500Y-51390760D01*
X146717568Y-51677658D01*
X146829510Y-51947911D01*
X146992025Y-52191132D01*
X147198868Y-52397975D01*
X147373260Y-52514500D01*
X147198868Y-52631025D01*
X146992025Y-52837868D01*
X146829510Y-53081089D01*
X146717568Y-53351342D01*
X146660500Y-53638240D01*
X146660500Y-53930760D01*
X146717568Y-54217658D01*
X146829510Y-54487911D01*
X146992025Y-54731132D01*
X147198868Y-54937975D01*
X147373260Y-55054500D01*
X147198868Y-55171025D01*
X146992025Y-55377868D01*
X146829510Y-55621089D01*
X146717568Y-55891342D01*
X146660500Y-56178240D01*
X146660500Y-56470760D01*
X146717568Y-56757658D01*
X146829510Y-57027911D01*
X146992025Y-57271132D01*
X147198868Y-57477975D01*
X147373260Y-57594500D01*
X147198868Y-57711025D01*
X146992025Y-57917868D01*
X146829510Y-58161089D01*
X146717568Y-58431342D01*
X146660500Y-58718240D01*
X146660500Y-59010760D01*
X146717568Y-59297658D01*
X146829510Y-59567911D01*
X146992025Y-59811132D01*
X147198868Y-60017975D01*
X147373260Y-60134500D01*
X147198868Y-60251025D01*
X146992025Y-60457868D01*
X146829510Y-60701089D01*
X146717568Y-60971342D01*
X146660500Y-61258240D01*
X146660500Y-61550760D01*
X146717568Y-61837658D01*
X146829510Y-62107911D01*
X146992025Y-62351132D01*
X147198868Y-62557975D01*
X147373260Y-62674500D01*
X147198868Y-62791025D01*
X146992025Y-62997868D01*
X146829510Y-63241089D01*
X146717568Y-63511342D01*
X146660500Y-63798240D01*
X146660500Y-64090760D01*
X146717568Y-64377658D01*
X146829510Y-64647911D01*
X146992025Y-64891132D01*
X147198868Y-65097975D01*
X147373260Y-65214500D01*
X147198868Y-65331025D01*
X146992025Y-65537868D01*
X146829510Y-65781089D01*
X146717568Y-66051342D01*
X146660500Y-66338240D01*
X146660500Y-66630760D01*
X146717568Y-66917658D01*
X146829510Y-67187911D01*
X146992025Y-67431132D01*
X147198868Y-67637975D01*
X147373260Y-67754500D01*
X147198868Y-67871025D01*
X146992025Y-68077868D01*
X146829510Y-68321089D01*
X146717568Y-68591342D01*
X146660500Y-68878240D01*
X146660500Y-69170760D01*
X146717568Y-69457658D01*
X146829510Y-69727911D01*
X146992025Y-69971132D01*
X147198868Y-70177975D01*
X147373260Y-70294500D01*
X147198868Y-70411025D01*
X146992025Y-70617868D01*
X146829510Y-70861089D01*
X146717568Y-71131342D01*
X146660500Y-71418240D01*
X146660500Y-71710760D01*
X146717568Y-71997658D01*
X146829510Y-72267911D01*
X146992025Y-72511132D01*
X147123880Y-72642987D01*
X147051320Y-72664998D01*
X146941006Y-72723963D01*
X146844315Y-72803315D01*
X146764963Y-72900006D01*
X146705998Y-73010320D01*
X146669688Y-73130018D01*
X146657428Y-73254500D01*
X146660500Y-73818750D01*
X146819250Y-73977500D01*
X148018500Y-73977500D01*
X148018500Y-73957500D01*
X148272500Y-73957500D01*
X148272500Y-73977500D01*
X148292500Y-73977500D01*
X148292500Y-74231500D01*
X148272500Y-74231500D01*
X148272500Y-75430750D01*
X148431250Y-75589500D01*
X148995500Y-75592572D01*
X149119982Y-75580312D01*
X149239680Y-75544002D01*
X149349994Y-75485037D01*
X149446685Y-75405685D01*
X149517500Y-75319396D01*
X149517500Y-78499844D01*
X149444989Y-78391323D01*
X148938677Y-77885011D01*
X148343318Y-77487205D01*
X147681790Y-77213191D01*
X146979516Y-77073500D01*
X146263484Y-77073500D01*
X145561210Y-77213191D01*
X144899682Y-77487205D01*
X144304323Y-77885011D01*
X143798011Y-78391323D01*
X143400205Y-78986682D01*
X143126191Y-79648210D01*
X142986500Y-80350484D01*
X142986500Y-81066516D01*
X143126191Y-81768790D01*
X143400205Y-82430318D01*
X143798011Y-83025677D01*
X144304323Y-83531989D01*
X144412843Y-83604500D01*
X85076157Y-83604500D01*
X85184677Y-83531989D01*
X85690989Y-83025677D01*
X86088795Y-82430318D01*
X86362809Y-81768790D01*
X86502500Y-81066516D01*
X86502500Y-80350484D01*
X86362809Y-79648210D01*
X86088795Y-78986682D01*
X85690989Y-78391323D01*
X85184677Y-77885011D01*
X84589318Y-77487205D01*
X83927790Y-77213191D01*
X83225516Y-77073500D01*
X82509484Y-77073500D01*
X81807210Y-77213191D01*
X81145682Y-77487205D01*
X80550323Y-77885011D01*
X80044011Y-78391323D01*
X79971500Y-78499843D01*
X79971500Y-75477165D01*
X91592500Y-75477165D01*
X91592500Y-75759835D01*
X91647647Y-76037074D01*
X91755820Y-76298227D01*
X91912863Y-76533259D01*
X92112741Y-76733137D01*
X92347773Y-76890180D01*
X92608926Y-76998353D01*
X92886165Y-77053500D01*
X93168835Y-77053500D01*
X93446074Y-76998353D01*
X93707227Y-76890180D01*
X93942259Y-76733137D01*
X94142137Y-76533259D01*
X94262916Y-76352500D01*
X98701428Y-76352500D01*
X98701428Y-77952500D01*
X98713688Y-78076982D01*
X98749998Y-78196680D01*
X98808963Y-78306994D01*
X98888315Y-78403685D01*
X98985006Y-78483037D01*
X99095320Y-78542002D01*
X99215018Y-78578312D01*
X99339500Y-78590572D01*
X100939500Y-78590572D01*
X101063982Y-78578312D01*
X101183680Y-78542002D01*
X101293994Y-78483037D01*
X101390685Y-78403685D01*
X101470037Y-78306994D01*
X101529002Y-78196680D01*
X101565312Y-78076982D01*
X101566143Y-78068539D01*
X101764741Y-78267137D01*
X101999773Y-78424180D01*
X102260926Y-78532353D01*
X102538165Y-78587500D01*
X102820835Y-78587500D01*
X103098074Y-78532353D01*
X103359227Y-78424180D01*
X103594259Y-78267137D01*
X103794137Y-78067259D01*
X103949500Y-77834741D01*
X104104863Y-78067259D01*
X104304741Y-78267137D01*
X104539773Y-78424180D01*
X104800926Y-78532353D01*
X105078165Y-78587500D01*
X105360835Y-78587500D01*
X105638074Y-78532353D01*
X105899227Y-78424180D01*
X106134259Y-78267137D01*
X106334137Y-78067259D01*
X106489500Y-77834741D01*
X106644863Y-78067259D01*
X106844741Y-78267137D01*
X107079773Y-78424180D01*
X107340926Y-78532353D01*
X107618165Y-78587500D01*
X107900835Y-78587500D01*
X108178074Y-78532353D01*
X108439227Y-78424180D01*
X108674259Y-78267137D01*
X108874137Y-78067259D01*
X109029500Y-77834741D01*
X109184863Y-78067259D01*
X109384741Y-78267137D01*
X109619773Y-78424180D01*
X109880926Y-78532353D01*
X110158165Y-78587500D01*
X110440835Y-78587500D01*
X110718074Y-78532353D01*
X110979227Y-78424180D01*
X111214259Y-78267137D01*
X111414137Y-78067259D01*
X111569500Y-77834741D01*
X111724863Y-78067259D01*
X111924741Y-78267137D01*
X112159773Y-78424180D01*
X112420926Y-78532353D01*
X112698165Y-78587500D01*
X112980835Y-78587500D01*
X113258074Y-78532353D01*
X113519227Y-78424180D01*
X113754259Y-78267137D01*
X113954137Y-78067259D01*
X114109500Y-77834741D01*
X114264863Y-78067259D01*
X114464741Y-78267137D01*
X114699773Y-78424180D01*
X114960926Y-78532353D01*
X115238165Y-78587500D01*
X115520835Y-78587500D01*
X115798074Y-78532353D01*
X116059227Y-78424180D01*
X116294259Y-78267137D01*
X116494137Y-78067259D01*
X116649500Y-77834741D01*
X116804863Y-78067259D01*
X117004741Y-78267137D01*
X117239773Y-78424180D01*
X117500926Y-78532353D01*
X117778165Y-78587500D01*
X118060835Y-78587500D01*
X118338074Y-78532353D01*
X118599227Y-78424180D01*
X118834259Y-78267137D01*
X119034137Y-78067259D01*
X119189500Y-77834741D01*
X119344863Y-78067259D01*
X119544741Y-78267137D01*
X119779773Y-78424180D01*
X120040926Y-78532353D01*
X120318165Y-78587500D01*
X120600835Y-78587500D01*
X120878074Y-78532353D01*
X121139227Y-78424180D01*
X121374259Y-78267137D01*
X121574137Y-78067259D01*
X121729500Y-77834741D01*
X121884863Y-78067259D01*
X122084741Y-78267137D01*
X122319773Y-78424180D01*
X122580926Y-78532353D01*
X122858165Y-78587500D01*
X123140835Y-78587500D01*
X123418074Y-78532353D01*
X123679227Y-78424180D01*
X123914259Y-78267137D01*
X124114137Y-78067259D01*
X124271180Y-77832227D01*
X124379353Y-77571074D01*
X124434500Y-77293835D01*
X124434500Y-77011165D01*
X124379353Y-76733926D01*
X124271180Y-76472773D01*
X124114137Y-76237741D01*
X123914259Y-76037863D01*
X123679227Y-75880820D01*
X123418074Y-75772647D01*
X123140835Y-75717500D01*
X122858165Y-75717500D01*
X122580926Y-75772647D01*
X122319773Y-75880820D01*
X122084741Y-76037863D01*
X121884863Y-76237741D01*
X121729500Y-76470259D01*
X121574137Y-76237741D01*
X121374259Y-76037863D01*
X121139227Y-75880820D01*
X120878074Y-75772647D01*
X120600835Y-75717500D01*
X120318165Y-75717500D01*
X120040926Y-75772647D01*
X119779773Y-75880820D01*
X119544741Y-76037863D01*
X119344863Y-76237741D01*
X119189500Y-76470259D01*
X119034137Y-76237741D01*
X118834259Y-76037863D01*
X118599227Y-75880820D01*
X118338074Y-75772647D01*
X118060835Y-75717500D01*
X117778165Y-75717500D01*
X117500926Y-75772647D01*
X117239773Y-75880820D01*
X117004741Y-76037863D01*
X116804863Y-76237741D01*
X116649500Y-76470259D01*
X116494137Y-76237741D01*
X116294259Y-76037863D01*
X116059227Y-75880820D01*
X115798074Y-75772647D01*
X115520835Y-75717500D01*
X115238165Y-75717500D01*
X114960926Y-75772647D01*
X114699773Y-75880820D01*
X114464741Y-76037863D01*
X114264863Y-76237741D01*
X114109500Y-76470259D01*
X113954137Y-76237741D01*
X113754259Y-76037863D01*
X113519227Y-75880820D01*
X113258074Y-75772647D01*
X112980835Y-75717500D01*
X112698165Y-75717500D01*
X112420926Y-75772647D01*
X112159773Y-75880820D01*
X111924741Y-76037863D01*
X111724863Y-76237741D01*
X111569500Y-76470259D01*
X111414137Y-76237741D01*
X111214259Y-76037863D01*
X110979227Y-75880820D01*
X110718074Y-75772647D01*
X110440835Y-75717500D01*
X110158165Y-75717500D01*
X109880926Y-75772647D01*
X109619773Y-75880820D01*
X109384741Y-76037863D01*
X109184863Y-76237741D01*
X109029500Y-76470259D01*
X108874137Y-76237741D01*
X108674259Y-76037863D01*
X108439227Y-75880820D01*
X108178074Y-75772647D01*
X107900835Y-75717500D01*
X107618165Y-75717500D01*
X107340926Y-75772647D01*
X107079773Y-75880820D01*
X106844741Y-76037863D01*
X106644863Y-76237741D01*
X106489500Y-76470259D01*
X106334137Y-76237741D01*
X106134259Y-76037863D01*
X105899227Y-75880820D01*
X105638074Y-75772647D01*
X105360835Y-75717500D01*
X105078165Y-75717500D01*
X104800926Y-75772647D01*
X104539773Y-75880820D01*
X104304741Y-76037863D01*
X104104863Y-76237741D01*
X103949500Y-76470259D01*
X103794137Y-76237741D01*
X103594259Y-76037863D01*
X103359227Y-75880820D01*
X103098074Y-75772647D01*
X102820835Y-75717500D01*
X102538165Y-75717500D01*
X102260926Y-75772647D01*
X101999773Y-75880820D01*
X101764741Y-76037863D01*
X101566143Y-76236461D01*
X101565312Y-76228018D01*
X101529002Y-76108320D01*
X101470037Y-75998006D01*
X101390685Y-75901315D01*
X101293994Y-75821963D01*
X101183680Y-75762998D01*
X101063982Y-75726688D01*
X100939500Y-75714428D01*
X99339500Y-75714428D01*
X99215018Y-75726688D01*
X99095320Y-75762998D01*
X98985006Y-75821963D01*
X98888315Y-75901315D01*
X98808963Y-75998006D01*
X98749998Y-76108320D01*
X98713688Y-76228018D01*
X98701428Y-76352500D01*
X94262916Y-76352500D01*
X94299180Y-76298227D01*
X94407353Y-76037074D01*
X94462500Y-75759835D01*
X94462500Y-75477165D01*
X94407353Y-75199926D01*
X94305695Y-74954500D01*
X146657428Y-74954500D01*
X146669688Y-75078982D01*
X146705998Y-75198680D01*
X146764963Y-75308994D01*
X146844315Y-75405685D01*
X146941006Y-75485037D01*
X147051320Y-75544002D01*
X147171018Y-75580312D01*
X147295500Y-75592572D01*
X147859750Y-75589500D01*
X148018500Y-75430750D01*
X148018500Y-74231500D01*
X146819250Y-74231500D01*
X146660500Y-74390250D01*
X146657428Y-74954500D01*
X94305695Y-74954500D01*
X94299180Y-74938773D01*
X94142137Y-74703741D01*
X93942259Y-74503863D01*
X93707227Y-74346820D01*
X93446074Y-74238647D01*
X93168835Y-74183500D01*
X92886165Y-74183500D01*
X92608926Y-74238647D01*
X92347773Y-74346820D01*
X92112741Y-74503863D01*
X91912863Y-74703741D01*
X91755820Y-74938773D01*
X91647647Y-75199926D01*
X91592500Y-75477165D01*
X79971500Y-75477165D01*
X79971500Y-72618500D01*
X91589428Y-72618500D01*
X91601688Y-72742982D01*
X91637998Y-72862680D01*
X91696963Y-72972994D01*
X91776315Y-73069685D01*
X91873006Y-73149037D01*
X91983320Y-73208002D01*
X92103018Y-73244312D01*
X92227500Y-73256572D01*
X92741750Y-73253500D01*
X92900500Y-73094750D01*
X92900500Y-71945500D01*
X93154500Y-71945500D01*
X93154500Y-73094750D01*
X93313250Y-73253500D01*
X93827500Y-73256572D01*
X93951982Y-73244312D01*
X94071680Y-73208002D01*
X94181994Y-73149037D01*
X94278685Y-73069685D01*
X94358037Y-72972994D01*
X94417002Y-72862680D01*
X94453312Y-72742982D01*
X94465572Y-72618500D01*
X94462500Y-72104250D01*
X94303750Y-71945500D01*
X93154500Y-71945500D01*
X92900500Y-71945500D01*
X91751250Y-71945500D01*
X91592500Y-72104250D01*
X91589428Y-72618500D01*
X79971500Y-72618500D01*
X79971500Y-71018500D01*
X91589428Y-71018500D01*
X91592500Y-71532750D01*
X91751250Y-71691500D01*
X92900500Y-71691500D01*
X92900500Y-70542250D01*
X93154500Y-70542250D01*
X93154500Y-71691500D01*
X94303750Y-71691500D01*
X94462500Y-71532750D01*
X94465572Y-71018500D01*
X94453312Y-70894018D01*
X94417002Y-70774320D01*
X94358037Y-70664006D01*
X94278685Y-70567315D01*
X94181994Y-70487963D01*
X94071680Y-70428998D01*
X93951982Y-70392688D01*
X93827500Y-70380428D01*
X93313250Y-70383500D01*
X93154500Y-70542250D01*
X92900500Y-70542250D01*
X92741750Y-70383500D01*
X92227500Y-70380428D01*
X92103018Y-70392688D01*
X91983320Y-70428998D01*
X91873006Y-70487963D01*
X91776315Y-70567315D01*
X91696963Y-70664006D01*
X91637998Y-70774320D01*
X91601688Y-70894018D01*
X91589428Y-71018500D01*
X79971500Y-71018500D01*
X79971500Y-67766500D01*
X82212428Y-67766500D01*
X82212428Y-69266500D01*
X82224688Y-69390982D01*
X82260998Y-69510680D01*
X82319963Y-69620994D01*
X82399315Y-69717685D01*
X82496006Y-69797037D01*
X82606320Y-69856002D01*
X82726018Y-69892312D01*
X82850500Y-69904572D01*
X83900500Y-69904572D01*
X84024982Y-69892312D01*
X84144680Y-69856002D01*
X84209402Y-69821407D01*
X84418101Y-69884715D01*
X84645500Y-69907112D01*
X84872900Y-69884715D01*
X85091560Y-69818385D01*
X85280500Y-69717394D01*
X85469441Y-69818385D01*
X85688101Y-69884715D01*
X85915500Y-69907112D01*
X86142900Y-69884715D01*
X86153366Y-69881540D01*
X98747591Y-69881540D01*
X98842430Y-70146381D01*
X98987115Y-70387631D01*
X99176086Y-70596019D01*
X99402080Y-70763537D01*
X99656413Y-70883746D01*
X99790461Y-70924404D01*
X100012500Y-70802415D01*
X100012500Y-69659500D01*
X98868876Y-69659500D01*
X98747591Y-69881540D01*
X86153366Y-69881540D01*
X86361560Y-69818385D01*
X86563079Y-69710671D01*
X86739712Y-69565712D01*
X86884671Y-69389079D01*
X86992385Y-69187559D01*
X86993628Y-69183460D01*
X98747591Y-69183460D01*
X98868876Y-69405500D01*
X100012500Y-69405500D01*
X100012500Y-68262585D01*
X100266500Y-68262585D01*
X100266500Y-69405500D01*
X100286500Y-69405500D01*
X100286500Y-69659500D01*
X100266500Y-69659500D01*
X100266500Y-70802415D01*
X100488539Y-70924404D01*
X100622587Y-70883746D01*
X100876920Y-70763537D01*
X101102914Y-70596019D01*
X101291885Y-70387631D01*
X101403433Y-70201635D01*
X101407820Y-70212227D01*
X101564863Y-70447259D01*
X101764741Y-70647137D01*
X101999773Y-70804180D01*
X102260926Y-70912353D01*
X102538165Y-70967500D01*
X102820835Y-70967500D01*
X103098074Y-70912353D01*
X103359227Y-70804180D01*
X103594259Y-70647137D01*
X103794137Y-70447259D01*
X103949500Y-70214741D01*
X104104863Y-70447259D01*
X104304741Y-70647137D01*
X104539773Y-70804180D01*
X104800926Y-70912353D01*
X105078165Y-70967500D01*
X105360835Y-70967500D01*
X105638074Y-70912353D01*
X105899227Y-70804180D01*
X106134259Y-70647137D01*
X106334137Y-70447259D01*
X106489500Y-70214741D01*
X106644863Y-70447259D01*
X106844741Y-70647137D01*
X107079773Y-70804180D01*
X107340926Y-70912353D01*
X107618165Y-70967500D01*
X107900835Y-70967500D01*
X108178074Y-70912353D01*
X108439227Y-70804180D01*
X108674259Y-70647137D01*
X108874137Y-70447259D01*
X109029500Y-70214741D01*
X109184863Y-70447259D01*
X109384741Y-70647137D01*
X109619773Y-70804180D01*
X109880926Y-70912353D01*
X110158165Y-70967500D01*
X110440835Y-70967500D01*
X110718074Y-70912353D01*
X110979227Y-70804180D01*
X111214259Y-70647137D01*
X111414137Y-70447259D01*
X111569500Y-70214741D01*
X111724863Y-70447259D01*
X111924741Y-70647137D01*
X112159773Y-70804180D01*
X112420926Y-70912353D01*
X112698165Y-70967500D01*
X112980835Y-70967500D01*
X113258074Y-70912353D01*
X113519227Y-70804180D01*
X113754259Y-70647137D01*
X113954137Y-70447259D01*
X114109500Y-70214741D01*
X114264863Y-70447259D01*
X114464741Y-70647137D01*
X114699773Y-70804180D01*
X114960926Y-70912353D01*
X115238165Y-70967500D01*
X115520835Y-70967500D01*
X115798074Y-70912353D01*
X116059227Y-70804180D01*
X116294259Y-70647137D01*
X116494137Y-70447259D01*
X116649500Y-70214741D01*
X116804863Y-70447259D01*
X117004741Y-70647137D01*
X117239773Y-70804180D01*
X117500926Y-70912353D01*
X117778165Y-70967500D01*
X118060835Y-70967500D01*
X118338074Y-70912353D01*
X118599227Y-70804180D01*
X118834259Y-70647137D01*
X119034137Y-70447259D01*
X119189500Y-70214741D01*
X119344863Y-70447259D01*
X119544741Y-70647137D01*
X119779773Y-70804180D01*
X120040926Y-70912353D01*
X120318165Y-70967500D01*
X120600835Y-70967500D01*
X120878074Y-70912353D01*
X121139227Y-70804180D01*
X121374259Y-70647137D01*
X121574137Y-70447259D01*
X121729500Y-70214741D01*
X121884863Y-70447259D01*
X122084741Y-70647137D01*
X122319773Y-70804180D01*
X122580926Y-70912353D01*
X122858165Y-70967500D01*
X123140835Y-70967500D01*
X123418074Y-70912353D01*
X123679227Y-70804180D01*
X123914259Y-70647137D01*
X124114137Y-70447259D01*
X124271180Y-70212227D01*
X124379353Y-69951074D01*
X124434500Y-69673835D01*
X124434500Y-69391165D01*
X124379353Y-69113926D01*
X124271180Y-68852773D01*
X124114137Y-68617741D01*
X123914259Y-68417863D01*
X123679227Y-68260820D01*
X123418074Y-68152647D01*
X123140835Y-68097500D01*
X122858165Y-68097500D01*
X122580926Y-68152647D01*
X122319773Y-68260820D01*
X122084741Y-68417863D01*
X121884863Y-68617741D01*
X121729500Y-68850259D01*
X121574137Y-68617741D01*
X121374259Y-68417863D01*
X121139227Y-68260820D01*
X120878074Y-68152647D01*
X120600835Y-68097500D01*
X120318165Y-68097500D01*
X120040926Y-68152647D01*
X119779773Y-68260820D01*
X119544741Y-68417863D01*
X119344863Y-68617741D01*
X119189500Y-68850259D01*
X119034137Y-68617741D01*
X118834259Y-68417863D01*
X118599227Y-68260820D01*
X118338074Y-68152647D01*
X118060835Y-68097500D01*
X117778165Y-68097500D01*
X117500926Y-68152647D01*
X117239773Y-68260820D01*
X117004741Y-68417863D01*
X116804863Y-68617741D01*
X116649500Y-68850259D01*
X116494137Y-68617741D01*
X116294259Y-68417863D01*
X116059227Y-68260820D01*
X115798074Y-68152647D01*
X115520835Y-68097500D01*
X115238165Y-68097500D01*
X114960926Y-68152647D01*
X114699773Y-68260820D01*
X114464741Y-68417863D01*
X114264863Y-68617741D01*
X114109500Y-68850259D01*
X113954137Y-68617741D01*
X113754259Y-68417863D01*
X113519227Y-68260820D01*
X113258074Y-68152647D01*
X112980835Y-68097500D01*
X112698165Y-68097500D01*
X112420926Y-68152647D01*
X112159773Y-68260820D01*
X111924741Y-68417863D01*
X111724863Y-68617741D01*
X111569500Y-68850259D01*
X111414137Y-68617741D01*
X111214259Y-68417863D01*
X110979227Y-68260820D01*
X110718074Y-68152647D01*
X110440835Y-68097500D01*
X110158165Y-68097500D01*
X109880926Y-68152647D01*
X109619773Y-68260820D01*
X109384741Y-68417863D01*
X109184863Y-68617741D01*
X109029500Y-68850259D01*
X108874137Y-68617741D01*
X108674259Y-68417863D01*
X108439227Y-68260820D01*
X108178074Y-68152647D01*
X107900835Y-68097500D01*
X107618165Y-68097500D01*
X107340926Y-68152647D01*
X107079773Y-68260820D01*
X106844741Y-68417863D01*
X106644863Y-68617741D01*
X106489500Y-68850259D01*
X106334137Y-68617741D01*
X106134259Y-68417863D01*
X105899227Y-68260820D01*
X105638074Y-68152647D01*
X105360835Y-68097500D01*
X105078165Y-68097500D01*
X104800926Y-68152647D01*
X104539773Y-68260820D01*
X104304741Y-68417863D01*
X104104863Y-68617741D01*
X103949500Y-68850259D01*
X103794137Y-68617741D01*
X103594259Y-68417863D01*
X103359227Y-68260820D01*
X103098074Y-68152647D01*
X102820835Y-68097500D01*
X102538165Y-68097500D01*
X102260926Y-68152647D01*
X101999773Y-68260820D01*
X101764741Y-68417863D01*
X101564863Y-68617741D01*
X101407820Y-68852773D01*
X101403433Y-68863365D01*
X101291885Y-68677369D01*
X101102914Y-68468981D01*
X100876920Y-68301463D01*
X100622587Y-68181254D01*
X100488539Y-68140596D01*
X100266500Y-68262585D01*
X100012500Y-68262585D01*
X99790461Y-68140596D01*
X99656413Y-68181254D01*
X99402080Y-68301463D01*
X99176086Y-68468981D01*
X98987115Y-68677369D01*
X98842430Y-68918619D01*
X98747591Y-69183460D01*
X86993628Y-69183460D01*
X87058715Y-68968899D01*
X87075500Y-68798478D01*
X87075500Y-68234521D01*
X87058715Y-68064100D01*
X86992385Y-67845440D01*
X86884671Y-67643921D01*
X86739712Y-67467288D01*
X86563078Y-67322329D01*
X86361559Y-67214615D01*
X86142899Y-67148285D01*
X85915500Y-67125888D01*
X85688100Y-67148285D01*
X85469440Y-67214615D01*
X85280499Y-67315606D01*
X85091559Y-67214615D01*
X84872899Y-67148285D01*
X84645500Y-67125888D01*
X84418100Y-67148285D01*
X84209402Y-67211593D01*
X84144680Y-67176998D01*
X84024982Y-67140688D01*
X83900500Y-67128428D01*
X82850500Y-67128428D01*
X82726018Y-67140688D01*
X82606320Y-67176998D01*
X82496006Y-67235963D01*
X82399315Y-67315315D01*
X82319963Y-67412006D01*
X82260998Y-67522320D01*
X82224688Y-67642018D01*
X82212428Y-67766500D01*
X79971500Y-67766500D01*
X79971500Y-62787165D01*
X100228500Y-62787165D01*
X100228500Y-63069835D01*
X100283647Y-63347074D01*
X100391820Y-63608227D01*
X100548863Y-63843259D01*
X100748741Y-64043137D01*
X100983773Y-64200180D01*
X101244926Y-64308353D01*
X101522165Y-64363500D01*
X101804835Y-64363500D01*
X102082074Y-64308353D01*
X102343227Y-64200180D01*
X102578259Y-64043137D01*
X102778137Y-63843259D01*
X102933500Y-63610741D01*
X103088863Y-63843259D01*
X103288741Y-64043137D01*
X103523773Y-64200180D01*
X103784926Y-64308353D01*
X104062165Y-64363500D01*
X104344835Y-64363500D01*
X104622074Y-64308353D01*
X104883227Y-64200180D01*
X105118259Y-64043137D01*
X105318137Y-63843259D01*
X105473500Y-63610741D01*
X105628863Y-63843259D01*
X105828741Y-64043137D01*
X106063773Y-64200180D01*
X106324926Y-64308353D01*
X106602165Y-64363500D01*
X106884835Y-64363500D01*
X107162074Y-64308353D01*
X107423227Y-64200180D01*
X107658259Y-64043137D01*
X107858137Y-63843259D01*
X108013500Y-63610741D01*
X108168863Y-63843259D01*
X108368741Y-64043137D01*
X108603773Y-64200180D01*
X108864926Y-64308353D01*
X109142165Y-64363500D01*
X109424835Y-64363500D01*
X109702074Y-64308353D01*
X109963227Y-64200180D01*
X110198259Y-64043137D01*
X110398137Y-63843259D01*
X110553500Y-63610741D01*
X110708863Y-63843259D01*
X110908741Y-64043137D01*
X111143773Y-64200180D01*
X111404926Y-64308353D01*
X111682165Y-64363500D01*
X111964835Y-64363500D01*
X112242074Y-64308353D01*
X112503227Y-64200180D01*
X112738259Y-64043137D01*
X112938137Y-63843259D01*
X113093500Y-63610741D01*
X113248863Y-63843259D01*
X113448741Y-64043137D01*
X113683773Y-64200180D01*
X113944926Y-64308353D01*
X114222165Y-64363500D01*
X114504835Y-64363500D01*
X114782074Y-64308353D01*
X115043227Y-64200180D01*
X115278259Y-64043137D01*
X115478137Y-63843259D01*
X115633500Y-63610741D01*
X115788863Y-63843259D01*
X115988741Y-64043137D01*
X116223773Y-64200180D01*
X116484926Y-64308353D01*
X116762165Y-64363500D01*
X117044835Y-64363500D01*
X117322074Y-64308353D01*
X117583227Y-64200180D01*
X117818259Y-64043137D01*
X118018137Y-63843259D01*
X118173500Y-63610741D01*
X118328863Y-63843259D01*
X118528741Y-64043137D01*
X118763773Y-64200180D01*
X119024926Y-64308353D01*
X119302165Y-64363500D01*
X119584835Y-64363500D01*
X119862074Y-64308353D01*
X120123227Y-64200180D01*
X120358259Y-64043137D01*
X120556857Y-63844539D01*
X120557688Y-63852982D01*
X120593998Y-63972680D01*
X120652963Y-64082994D01*
X120732315Y-64179685D01*
X120829006Y-64259037D01*
X120939320Y-64318002D01*
X121059018Y-64354312D01*
X121183500Y-64366572D01*
X122783500Y-64366572D01*
X122907982Y-64354312D01*
X123027680Y-64318002D01*
X123137994Y-64259037D01*
X123234685Y-64179685D01*
X123314037Y-64082994D01*
X123373002Y-63972680D01*
X123409312Y-63852982D01*
X123421572Y-63728500D01*
X123421572Y-62128500D01*
X123409312Y-62004018D01*
X123373002Y-61884320D01*
X123314037Y-61774006D01*
X123234685Y-61677315D01*
X123137994Y-61597963D01*
X123027680Y-61538998D01*
X122907982Y-61502688D01*
X122783500Y-61490428D01*
X121183500Y-61490428D01*
X121059018Y-61502688D01*
X120939320Y-61538998D01*
X120829006Y-61597963D01*
X120732315Y-61677315D01*
X120652963Y-61774006D01*
X120593998Y-61884320D01*
X120557688Y-62004018D01*
X120556857Y-62012461D01*
X120358259Y-61813863D01*
X120123227Y-61656820D01*
X119862074Y-61548647D01*
X119584835Y-61493500D01*
X119302165Y-61493500D01*
X119024926Y-61548647D01*
X118763773Y-61656820D01*
X118528741Y-61813863D01*
X118328863Y-62013741D01*
X118173500Y-62246259D01*
X118018137Y-62013741D01*
X117818259Y-61813863D01*
X117583227Y-61656820D01*
X117322074Y-61548647D01*
X117044835Y-61493500D01*
X116762165Y-61493500D01*
X116484926Y-61548647D01*
X116223773Y-61656820D01*
X115988741Y-61813863D01*
X115788863Y-62013741D01*
X115633500Y-62246259D01*
X115478137Y-62013741D01*
X115278259Y-61813863D01*
X115043227Y-61656820D01*
X114782074Y-61548647D01*
X114504835Y-61493500D01*
X114222165Y-61493500D01*
X113944926Y-61548647D01*
X113683773Y-61656820D01*
X113448741Y-61813863D01*
X113248863Y-62013741D01*
X113093500Y-62246259D01*
X112938137Y-62013741D01*
X112738259Y-61813863D01*
X112503227Y-61656820D01*
X112242074Y-61548647D01*
X111964835Y-61493500D01*
X111682165Y-61493500D01*
X111404926Y-61548647D01*
X111143773Y-61656820D01*
X110908741Y-61813863D01*
X110708863Y-62013741D01*
X110553500Y-62246259D01*
X110398137Y-62013741D01*
X110198259Y-61813863D01*
X109963227Y-61656820D01*
X109702074Y-61548647D01*
X109424835Y-61493500D01*
X109142165Y-61493500D01*
X108864926Y-61548647D01*
X108603773Y-61656820D01*
X108368741Y-61813863D01*
X108168863Y-62013741D01*
X108013500Y-62246259D01*
X107858137Y-62013741D01*
X107658259Y-61813863D01*
X107423227Y-61656820D01*
X107162074Y-61548647D01*
X106884835Y-61493500D01*
X106602165Y-61493500D01*
X106324926Y-61548647D01*
X106063773Y-61656820D01*
X105828741Y-61813863D01*
X105628863Y-62013741D01*
X105473500Y-62246259D01*
X105318137Y-62013741D01*
X105118259Y-61813863D01*
X104883227Y-61656820D01*
X104622074Y-61548647D01*
X104344835Y-61493500D01*
X104062165Y-61493500D01*
X103784926Y-61548647D01*
X103523773Y-61656820D01*
X103288741Y-61813863D01*
X103088863Y-62013741D01*
X102933500Y-62246259D01*
X102778137Y-62013741D01*
X102578259Y-61813863D01*
X102343227Y-61656820D01*
X102082074Y-61548647D01*
X101804835Y-61493500D01*
X101522165Y-61493500D01*
X101244926Y-61548647D01*
X100983773Y-61656820D01*
X100748741Y-61813863D01*
X100548863Y-62013741D01*
X100391820Y-62248773D01*
X100283647Y-62509926D01*
X100228500Y-62787165D01*
X79971500Y-62787165D01*
X79971500Y-56440500D01*
X87171428Y-56440500D01*
X87171428Y-58240500D01*
X87183688Y-58364982D01*
X87219998Y-58484680D01*
X87278963Y-58594994D01*
X87358315Y-58691685D01*
X87455006Y-58771037D01*
X87565320Y-58830002D01*
X87685018Y-58866312D01*
X87809500Y-58878572D01*
X89609500Y-58878572D01*
X89733982Y-58866312D01*
X89853680Y-58830002D01*
X89963994Y-58771037D01*
X90060685Y-58691685D01*
X90140037Y-58594994D01*
X90199002Y-58484680D01*
X90235312Y-58364982D01*
X90247572Y-58240500D01*
X90247572Y-56440500D01*
X93775428Y-56440500D01*
X93775428Y-58240500D01*
X93787688Y-58364982D01*
X93823998Y-58484680D01*
X93882963Y-58594994D01*
X93962315Y-58691685D01*
X94059006Y-58771037D01*
X94169320Y-58830002D01*
X94289018Y-58866312D01*
X94413500Y-58878572D01*
X96213500Y-58878572D01*
X96337982Y-58866312D01*
X96457680Y-58830002D01*
X96567994Y-58771037D01*
X96664685Y-58691685D01*
X96744037Y-58594994D01*
X96803002Y-58484680D01*
X96839312Y-58364982D01*
X96851572Y-58240500D01*
X96851572Y-56440500D01*
X100379428Y-56440500D01*
X100379428Y-58240500D01*
X100391688Y-58364982D01*
X100427998Y-58484680D01*
X100486963Y-58594994D01*
X100566315Y-58691685D01*
X100663006Y-58771037D01*
X100773320Y-58830002D01*
X100893018Y-58866312D01*
X101017500Y-58878572D01*
X102817500Y-58878572D01*
X102941982Y-58866312D01*
X103061680Y-58830002D01*
X103171994Y-58771037D01*
X103268685Y-58691685D01*
X103348037Y-58594994D01*
X103407002Y-58484680D01*
X103443312Y-58364982D01*
X103455572Y-58240500D01*
X103455572Y-56440500D01*
X106983428Y-56440500D01*
X106983428Y-58240500D01*
X106995688Y-58364982D01*
X107031998Y-58484680D01*
X107090963Y-58594994D01*
X107170315Y-58691685D01*
X107267006Y-58771037D01*
X107377320Y-58830002D01*
X107497018Y-58866312D01*
X107621500Y-58878572D01*
X109421500Y-58878572D01*
X109545982Y-58866312D01*
X109665680Y-58830002D01*
X109775994Y-58771037D01*
X109872685Y-58691685D01*
X109952037Y-58594994D01*
X110011002Y-58484680D01*
X110047312Y-58364982D01*
X110059572Y-58240500D01*
X110059572Y-56440500D01*
X113587428Y-56440500D01*
X113587428Y-58240500D01*
X113599688Y-58364982D01*
X113635998Y-58484680D01*
X113694963Y-58594994D01*
X113774315Y-58691685D01*
X113871006Y-58771037D01*
X113981320Y-58830002D01*
X114101018Y-58866312D01*
X114225500Y-58878572D01*
X116025500Y-58878572D01*
X116149982Y-58866312D01*
X116269680Y-58830002D01*
X116379994Y-58771037D01*
X116476685Y-58691685D01*
X116556037Y-58594994D01*
X116615002Y-58484680D01*
X116651312Y-58364982D01*
X116663572Y-58240500D01*
X116663572Y-56440500D01*
X120191428Y-56440500D01*
X120191428Y-58240500D01*
X120203688Y-58364982D01*
X120239998Y-58484680D01*
X120298963Y-58594994D01*
X120378315Y-58691685D01*
X120475006Y-58771037D01*
X120585320Y-58830002D01*
X120705018Y-58866312D01*
X120829500Y-58878572D01*
X122629500Y-58878572D01*
X122753982Y-58866312D01*
X122873680Y-58830002D01*
X122983994Y-58771037D01*
X123080685Y-58691685D01*
X123160037Y-58594994D01*
X123219002Y-58484680D01*
X123255312Y-58364982D01*
X123267572Y-58240500D01*
X123267572Y-56440500D01*
X126795428Y-56440500D01*
X126795428Y-58240500D01*
X126807688Y-58364982D01*
X126843998Y-58484680D01*
X126902963Y-58594994D01*
X126982315Y-58691685D01*
X127079006Y-58771037D01*
X127189320Y-58830002D01*
X127309018Y-58866312D01*
X127433500Y-58878572D01*
X129233500Y-58878572D01*
X129357982Y-58866312D01*
X129477680Y-58830002D01*
X129587994Y-58771037D01*
X129684685Y-58691685D01*
X129764037Y-58594994D01*
X129823002Y-58484680D01*
X129859312Y-58364982D01*
X129871572Y-58240500D01*
X129871572Y-56440500D01*
X133399428Y-56440500D01*
X133399428Y-58240500D01*
X133411688Y-58364982D01*
X133447998Y-58484680D01*
X133506963Y-58594994D01*
X133586315Y-58691685D01*
X133683006Y-58771037D01*
X133793320Y-58830002D01*
X133913018Y-58866312D01*
X134037500Y-58878572D01*
X135837500Y-58878572D01*
X135961982Y-58866312D01*
X136081680Y-58830002D01*
X136191994Y-58771037D01*
X136288685Y-58691685D01*
X136368037Y-58594994D01*
X136427002Y-58484680D01*
X136463312Y-58364982D01*
X136475572Y-58240500D01*
X136475572Y-56440500D01*
X136463312Y-56316018D01*
X136427002Y-56196320D01*
X136368037Y-56086006D01*
X136288685Y-55989315D01*
X136191994Y-55909963D01*
X136081680Y-55850998D01*
X136063373Y-55845444D01*
X136129812Y-55779005D01*
X136297799Y-55527595D01*
X136413511Y-55248243D01*
X136472500Y-54951684D01*
X136472500Y-54649316D01*
X136413511Y-54352757D01*
X136297799Y-54073405D01*
X136129812Y-53821995D01*
X135916005Y-53608188D01*
X135664595Y-53440201D01*
X135385243Y-53324489D01*
X135088684Y-53265500D01*
X134786316Y-53265500D01*
X134489757Y-53324489D01*
X134210405Y-53440201D01*
X133958995Y-53608188D01*
X133745188Y-53821995D01*
X133577201Y-54073405D01*
X133461489Y-54352757D01*
X133402500Y-54649316D01*
X133402500Y-54951684D01*
X133461489Y-55248243D01*
X133577201Y-55527595D01*
X133745188Y-55779005D01*
X133811627Y-55845444D01*
X133793320Y-55850998D01*
X133683006Y-55909963D01*
X133586315Y-55989315D01*
X133506963Y-56086006D01*
X133447998Y-56196320D01*
X133411688Y-56316018D01*
X133399428Y-56440500D01*
X129871572Y-56440500D01*
X129859312Y-56316018D01*
X129823002Y-56196320D01*
X129764037Y-56086006D01*
X129684685Y-55989315D01*
X129587994Y-55909963D01*
X129477680Y-55850998D01*
X129459373Y-55845444D01*
X129525812Y-55779005D01*
X129693799Y-55527595D01*
X129809511Y-55248243D01*
X129868500Y-54951684D01*
X129868500Y-54649316D01*
X129809511Y-54352757D01*
X129693799Y-54073405D01*
X129525812Y-53821995D01*
X129312005Y-53608188D01*
X129060595Y-53440201D01*
X128781243Y-53324489D01*
X128484684Y-53265500D01*
X128182316Y-53265500D01*
X127885757Y-53324489D01*
X127606405Y-53440201D01*
X127354995Y-53608188D01*
X127141188Y-53821995D01*
X126973201Y-54073405D01*
X126857489Y-54352757D01*
X126798500Y-54649316D01*
X126798500Y-54951684D01*
X126857489Y-55248243D01*
X126973201Y-55527595D01*
X127141188Y-55779005D01*
X127207627Y-55845444D01*
X127189320Y-55850998D01*
X127079006Y-55909963D01*
X126982315Y-55989315D01*
X126902963Y-56086006D01*
X126843998Y-56196320D01*
X126807688Y-56316018D01*
X126795428Y-56440500D01*
X123267572Y-56440500D01*
X123255312Y-56316018D01*
X123219002Y-56196320D01*
X123160037Y-56086006D01*
X123080685Y-55989315D01*
X122983994Y-55909963D01*
X122873680Y-55850998D01*
X122855373Y-55845444D01*
X122921812Y-55779005D01*
X123089799Y-55527595D01*
X123205511Y-55248243D01*
X123264500Y-54951684D01*
X123264500Y-54649316D01*
X123205511Y-54352757D01*
X123089799Y-54073405D01*
X122921812Y-53821995D01*
X122708005Y-53608188D01*
X122456595Y-53440201D01*
X122177243Y-53324489D01*
X121880684Y-53265500D01*
X121578316Y-53265500D01*
X121281757Y-53324489D01*
X121002405Y-53440201D01*
X120750995Y-53608188D01*
X120537188Y-53821995D01*
X120369201Y-54073405D01*
X120253489Y-54352757D01*
X120194500Y-54649316D01*
X120194500Y-54951684D01*
X120253489Y-55248243D01*
X120369201Y-55527595D01*
X120537188Y-55779005D01*
X120603627Y-55845444D01*
X120585320Y-55850998D01*
X120475006Y-55909963D01*
X120378315Y-55989315D01*
X120298963Y-56086006D01*
X120239998Y-56196320D01*
X120203688Y-56316018D01*
X120191428Y-56440500D01*
X116663572Y-56440500D01*
X116651312Y-56316018D01*
X116615002Y-56196320D01*
X116556037Y-56086006D01*
X116476685Y-55989315D01*
X116379994Y-55909963D01*
X116269680Y-55850998D01*
X116251373Y-55845444D01*
X116317812Y-55779005D01*
X116485799Y-55527595D01*
X116601511Y-55248243D01*
X116660500Y-54951684D01*
X116660500Y-54649316D01*
X116601511Y-54352757D01*
X116485799Y-54073405D01*
X116317812Y-53821995D01*
X116104005Y-53608188D01*
X115852595Y-53440201D01*
X115573243Y-53324489D01*
X115276684Y-53265500D01*
X114974316Y-53265500D01*
X114677757Y-53324489D01*
X114398405Y-53440201D01*
X114146995Y-53608188D01*
X113933188Y-53821995D01*
X113765201Y-54073405D01*
X113649489Y-54352757D01*
X113590500Y-54649316D01*
X113590500Y-54951684D01*
X113649489Y-55248243D01*
X113765201Y-55527595D01*
X113933188Y-55779005D01*
X113999627Y-55845444D01*
X113981320Y-55850998D01*
X113871006Y-55909963D01*
X113774315Y-55989315D01*
X113694963Y-56086006D01*
X113635998Y-56196320D01*
X113599688Y-56316018D01*
X113587428Y-56440500D01*
X110059572Y-56440500D01*
X110047312Y-56316018D01*
X110011002Y-56196320D01*
X109952037Y-56086006D01*
X109872685Y-55989315D01*
X109775994Y-55909963D01*
X109665680Y-55850998D01*
X109647373Y-55845444D01*
X109713812Y-55779005D01*
X109881799Y-55527595D01*
X109997511Y-55248243D01*
X110056500Y-54951684D01*
X110056500Y-54649316D01*
X109997511Y-54352757D01*
X109881799Y-54073405D01*
X109713812Y-53821995D01*
X109500005Y-53608188D01*
X109248595Y-53440201D01*
X108969243Y-53324489D01*
X108672684Y-53265500D01*
X108370316Y-53265500D01*
X108073757Y-53324489D01*
X107794405Y-53440201D01*
X107542995Y-53608188D01*
X107329188Y-53821995D01*
X107161201Y-54073405D01*
X107045489Y-54352757D01*
X106986500Y-54649316D01*
X106986500Y-54951684D01*
X107045489Y-55248243D01*
X107161201Y-55527595D01*
X107329188Y-55779005D01*
X107395627Y-55845444D01*
X107377320Y-55850998D01*
X107267006Y-55909963D01*
X107170315Y-55989315D01*
X107090963Y-56086006D01*
X107031998Y-56196320D01*
X106995688Y-56316018D01*
X106983428Y-56440500D01*
X103455572Y-56440500D01*
X103443312Y-56316018D01*
X103407002Y-56196320D01*
X103348037Y-56086006D01*
X103268685Y-55989315D01*
X103171994Y-55909963D01*
X103061680Y-55850998D01*
X103043373Y-55845444D01*
X103109812Y-55779005D01*
X103277799Y-55527595D01*
X103393511Y-55248243D01*
X103452500Y-54951684D01*
X103452500Y-54649316D01*
X103393511Y-54352757D01*
X103277799Y-54073405D01*
X103109812Y-53821995D01*
X102896005Y-53608188D01*
X102644595Y-53440201D01*
X102365243Y-53324489D01*
X102068684Y-53265500D01*
X101766316Y-53265500D01*
X101469757Y-53324489D01*
X101190405Y-53440201D01*
X100938995Y-53608188D01*
X100725188Y-53821995D01*
X100557201Y-54073405D01*
X100441489Y-54352757D01*
X100382500Y-54649316D01*
X100382500Y-54951684D01*
X100441489Y-55248243D01*
X100557201Y-55527595D01*
X100725188Y-55779005D01*
X100791627Y-55845444D01*
X100773320Y-55850998D01*
X100663006Y-55909963D01*
X100566315Y-55989315D01*
X100486963Y-56086006D01*
X100427998Y-56196320D01*
X100391688Y-56316018D01*
X100379428Y-56440500D01*
X96851572Y-56440500D01*
X96839312Y-56316018D01*
X96803002Y-56196320D01*
X96744037Y-56086006D01*
X96664685Y-55989315D01*
X96567994Y-55909963D01*
X96457680Y-55850998D01*
X96439373Y-55845444D01*
X96505812Y-55779005D01*
X96673799Y-55527595D01*
X96789511Y-55248243D01*
X96848500Y-54951684D01*
X96848500Y-54649316D01*
X96789511Y-54352757D01*
X96673799Y-54073405D01*
X96505812Y-53821995D01*
X96292005Y-53608188D01*
X96040595Y-53440201D01*
X95761243Y-53324489D01*
X95464684Y-53265500D01*
X95162316Y-53265500D01*
X94865757Y-53324489D01*
X94586405Y-53440201D01*
X94334995Y-53608188D01*
X94121188Y-53821995D01*
X93953201Y-54073405D01*
X93837489Y-54352757D01*
X93778500Y-54649316D01*
X93778500Y-54951684D01*
X93837489Y-55248243D01*
X93953201Y-55527595D01*
X94121188Y-55779005D01*
X94187627Y-55845444D01*
X94169320Y-55850998D01*
X94059006Y-55909963D01*
X93962315Y-55989315D01*
X93882963Y-56086006D01*
X93823998Y-56196320D01*
X93787688Y-56316018D01*
X93775428Y-56440500D01*
X90247572Y-56440500D01*
X90235312Y-56316018D01*
X90199002Y-56196320D01*
X90140037Y-56086006D01*
X90060685Y-55989315D01*
X89963994Y-55909963D01*
X89853680Y-55850998D01*
X89835373Y-55845444D01*
X89901812Y-55779005D01*
X90069799Y-55527595D01*
X90185511Y-55248243D01*
X90244500Y-54951684D01*
X90244500Y-54649316D01*
X90185511Y-54352757D01*
X90069799Y-54073405D01*
X89901812Y-53821995D01*
X89688005Y-53608188D01*
X89436595Y-53440201D01*
X89157243Y-53324489D01*
X88860684Y-53265500D01*
X88558316Y-53265500D01*
X88261757Y-53324489D01*
X87982405Y-53440201D01*
X87730995Y-53608188D01*
X87517188Y-53821995D01*
X87349201Y-54073405D01*
X87233489Y-54352757D01*
X87174500Y-54649316D01*
X87174500Y-54951684D01*
X87233489Y-55248243D01*
X87349201Y-55527595D01*
X87517188Y-55779005D01*
X87583627Y-55845444D01*
X87565320Y-55850998D01*
X87455006Y-55909963D01*
X87358315Y-55989315D01*
X87278963Y-56086006D01*
X87219998Y-56196320D01*
X87183688Y-56316018D01*
X87171428Y-56440500D01*
X79971500Y-56440500D01*
X79971500Y-44652500D01*
X82466428Y-44652500D01*
X82466428Y-46152500D01*
X82478688Y-46276982D01*
X82514998Y-46396680D01*
X82573963Y-46506994D01*
X82653315Y-46603685D01*
X82750006Y-46683037D01*
X82860320Y-46742002D01*
X82980018Y-46778312D01*
X83104500Y-46790572D01*
X84154500Y-46790572D01*
X84278982Y-46778312D01*
X84398680Y-46742002D01*
X84463402Y-46707407D01*
X84672101Y-46770715D01*
X84899500Y-46793112D01*
X85126900Y-46770715D01*
X85345560Y-46704385D01*
X85534501Y-46603394D01*
X85723441Y-46704385D01*
X85942101Y-46770715D01*
X86169500Y-46793112D01*
X86396900Y-46770715D01*
X86615560Y-46704385D01*
X86817079Y-46596671D01*
X86993712Y-46451712D01*
X87138671Y-46275079D01*
X87246385Y-46073559D01*
X87312715Y-45854899D01*
X87329500Y-45684478D01*
X87329500Y-45120521D01*
X87312715Y-44950100D01*
X87246385Y-44731440D01*
X87138671Y-44529921D01*
X86993712Y-44353288D01*
X86817078Y-44208329D01*
X86615559Y-44100615D01*
X86396899Y-44034285D01*
X86169500Y-44011888D01*
X85942100Y-44034285D01*
X85723440Y-44100615D01*
X85534500Y-44201606D01*
X85345559Y-44100615D01*
X85126899Y-44034285D01*
X84899500Y-44011888D01*
X84672100Y-44034285D01*
X84463402Y-44097593D01*
X84398680Y-44062998D01*
X84278982Y-44026688D01*
X84154500Y-44014428D01*
X83104500Y-44014428D01*
X82980018Y-44026688D01*
X82860320Y-44062998D01*
X82750006Y-44121963D01*
X82653315Y-44201315D01*
X82573963Y-44298006D01*
X82514998Y-44408320D01*
X82478688Y-44528018D01*
X82466428Y-44652500D01*
X79971500Y-44652500D01*
X79971500Y-40792500D01*
X92351428Y-40792500D01*
X92351428Y-42392500D01*
X92363688Y-42516982D01*
X92399998Y-42636680D01*
X92458963Y-42746994D01*
X92538315Y-42843685D01*
X92635006Y-42923037D01*
X92745320Y-42982002D01*
X92865018Y-43018312D01*
X92989500Y-43030572D01*
X94589500Y-43030572D01*
X94713982Y-43018312D01*
X94833680Y-42982002D01*
X94943994Y-42923037D01*
X95040685Y-42843685D01*
X95120037Y-42746994D01*
X95179002Y-42636680D01*
X95215312Y-42516982D01*
X95216143Y-42508539D01*
X95414741Y-42707137D01*
X95649773Y-42864180D01*
X95910926Y-42972353D01*
X96188165Y-43027500D01*
X96470835Y-43027500D01*
X96748074Y-42972353D01*
X97009227Y-42864180D01*
X97244259Y-42707137D01*
X97444137Y-42507259D01*
X97599500Y-42274741D01*
X97754863Y-42507259D01*
X97954741Y-42707137D01*
X98189773Y-42864180D01*
X98450926Y-42972353D01*
X98728165Y-43027500D01*
X99010835Y-43027500D01*
X99288074Y-42972353D01*
X99549227Y-42864180D01*
X99784259Y-42707137D01*
X99984137Y-42507259D01*
X100139500Y-42274741D01*
X100294863Y-42507259D01*
X100494741Y-42707137D01*
X100729773Y-42864180D01*
X100990926Y-42972353D01*
X101268165Y-43027500D01*
X101550835Y-43027500D01*
X101828074Y-42972353D01*
X102089227Y-42864180D01*
X102324259Y-42707137D01*
X102524137Y-42507259D01*
X102679500Y-42274741D01*
X102834863Y-42507259D01*
X103034741Y-42707137D01*
X103269773Y-42864180D01*
X103530926Y-42972353D01*
X103808165Y-43027500D01*
X104090835Y-43027500D01*
X104368074Y-42972353D01*
X104629227Y-42864180D01*
X104864259Y-42707137D01*
X105064137Y-42507259D01*
X105219500Y-42274741D01*
X105374863Y-42507259D01*
X105574741Y-42707137D01*
X105809773Y-42864180D01*
X106070926Y-42972353D01*
X106348165Y-43027500D01*
X106630835Y-43027500D01*
X106908074Y-42972353D01*
X107169227Y-42864180D01*
X107404259Y-42707137D01*
X107604137Y-42507259D01*
X107759500Y-42274741D01*
X107914863Y-42507259D01*
X108114741Y-42707137D01*
X108349773Y-42864180D01*
X108610926Y-42972353D01*
X108888165Y-43027500D01*
X109170835Y-43027500D01*
X109448074Y-42972353D01*
X109709227Y-42864180D01*
X109944259Y-42707137D01*
X110144137Y-42507259D01*
X110299500Y-42274741D01*
X110454863Y-42507259D01*
X110654741Y-42707137D01*
X110889773Y-42864180D01*
X111150926Y-42972353D01*
X111428165Y-43027500D01*
X111710835Y-43027500D01*
X111988074Y-42972353D01*
X112249227Y-42864180D01*
X112484259Y-42707137D01*
X112684137Y-42507259D01*
X112841180Y-42272227D01*
X112949353Y-42011074D01*
X113004500Y-41733835D01*
X113004500Y-41451165D01*
X112949353Y-41173926D01*
X112841180Y-40912773D01*
X112760817Y-40792500D01*
X116481428Y-40792500D01*
X116481428Y-42392500D01*
X116493688Y-42516982D01*
X116529998Y-42636680D01*
X116588963Y-42746994D01*
X116668315Y-42843685D01*
X116765006Y-42923037D01*
X116875320Y-42982002D01*
X116995018Y-43018312D01*
X117119500Y-43030572D01*
X118719500Y-43030572D01*
X118843982Y-43018312D01*
X118963680Y-42982002D01*
X119073994Y-42923037D01*
X119170685Y-42843685D01*
X119250037Y-42746994D01*
X119309002Y-42636680D01*
X119345312Y-42516982D01*
X119346143Y-42508539D01*
X119544741Y-42707137D01*
X119779773Y-42864180D01*
X120040926Y-42972353D01*
X120318165Y-43027500D01*
X120600835Y-43027500D01*
X120878074Y-42972353D01*
X121139227Y-42864180D01*
X121374259Y-42707137D01*
X121574137Y-42507259D01*
X121729500Y-42274741D01*
X121884863Y-42507259D01*
X122084741Y-42707137D01*
X122319773Y-42864180D01*
X122580926Y-42972353D01*
X122858165Y-43027500D01*
X123140835Y-43027500D01*
X123418074Y-42972353D01*
X123679227Y-42864180D01*
X123914259Y-42707137D01*
X124114137Y-42507259D01*
X124269500Y-42274741D01*
X124424863Y-42507259D01*
X124624741Y-42707137D01*
X124859773Y-42864180D01*
X125120926Y-42972353D01*
X125398165Y-43027500D01*
X125680835Y-43027500D01*
X125958074Y-42972353D01*
X126219227Y-42864180D01*
X126454259Y-42707137D01*
X126654137Y-42507259D01*
X126809500Y-42274741D01*
X126964863Y-42507259D01*
X127164741Y-42707137D01*
X127399773Y-42864180D01*
X127660926Y-42972353D01*
X127938165Y-43027500D01*
X128220835Y-43027500D01*
X128498074Y-42972353D01*
X128759227Y-42864180D01*
X128994259Y-42707137D01*
X129194137Y-42507259D01*
X129349500Y-42274741D01*
X129504863Y-42507259D01*
X129704741Y-42707137D01*
X129939773Y-42864180D01*
X130200926Y-42972353D01*
X130478165Y-43027500D01*
X130760835Y-43027500D01*
X131038074Y-42972353D01*
X131299227Y-42864180D01*
X131534259Y-42707137D01*
X131734137Y-42507259D01*
X131891180Y-42272227D01*
X131895567Y-42261635D01*
X132007115Y-42447631D01*
X132196086Y-42656019D01*
X132422080Y-42823537D01*
X132676413Y-42943746D01*
X132810461Y-42984404D01*
X133032500Y-42862415D01*
X133032500Y-41719500D01*
X133012500Y-41719500D01*
X133012500Y-41465500D01*
X133032500Y-41465500D01*
X133032500Y-40322585D01*
X133286500Y-40322585D01*
X133286500Y-41465500D01*
X133306500Y-41465500D01*
X133306500Y-41719500D01*
X133286500Y-41719500D01*
X133286500Y-42862415D01*
X133508539Y-42984404D01*
X133642587Y-42943746D01*
X133896920Y-42823537D01*
X134122914Y-42656019D01*
X134311885Y-42447631D01*
X134423433Y-42261635D01*
X134427820Y-42272227D01*
X134584863Y-42507259D01*
X134784741Y-42707137D01*
X135019773Y-42864180D01*
X135280926Y-42972353D01*
X135558165Y-43027500D01*
X135840835Y-43027500D01*
X136118074Y-42972353D01*
X136379227Y-42864180D01*
X136614259Y-42707137D01*
X136814137Y-42507259D01*
X136971180Y-42272227D01*
X137079353Y-42011074D01*
X137134500Y-41733835D01*
X137134500Y-41451165D01*
X137079353Y-41173926D01*
X136971180Y-40912773D01*
X136814137Y-40677741D01*
X136614259Y-40477863D01*
X136379227Y-40320820D01*
X136118074Y-40212647D01*
X135840835Y-40157500D01*
X135558165Y-40157500D01*
X135280926Y-40212647D01*
X135019773Y-40320820D01*
X134784741Y-40477863D01*
X134584863Y-40677741D01*
X134427820Y-40912773D01*
X134423433Y-40923365D01*
X134311885Y-40737369D01*
X134122914Y-40528981D01*
X133896920Y-40361463D01*
X133642587Y-40241254D01*
X133508539Y-40200596D01*
X133286500Y-40322585D01*
X133032500Y-40322585D01*
X132810461Y-40200596D01*
X132676413Y-40241254D01*
X132422080Y-40361463D01*
X132196086Y-40528981D01*
X132007115Y-40737369D01*
X131895567Y-40923365D01*
X131891180Y-40912773D01*
X131734137Y-40677741D01*
X131534259Y-40477863D01*
X131299227Y-40320820D01*
X131038074Y-40212647D01*
X130760835Y-40157500D01*
X130478165Y-40157500D01*
X130200926Y-40212647D01*
X129939773Y-40320820D01*
X129704741Y-40477863D01*
X129504863Y-40677741D01*
X129349500Y-40910259D01*
X129194137Y-40677741D01*
X128994259Y-40477863D01*
X128759227Y-40320820D01*
X128498074Y-40212647D01*
X128220835Y-40157500D01*
X127938165Y-40157500D01*
X127660926Y-40212647D01*
X127399773Y-40320820D01*
X127164741Y-40477863D01*
X126964863Y-40677741D01*
X126809500Y-40910259D01*
X126654137Y-40677741D01*
X126454259Y-40477863D01*
X126219227Y-40320820D01*
X125958074Y-40212647D01*
X125680835Y-40157500D01*
X125398165Y-40157500D01*
X125120926Y-40212647D01*
X124859773Y-40320820D01*
X124624741Y-40477863D01*
X124424863Y-40677741D01*
X124269500Y-40910259D01*
X124114137Y-40677741D01*
X123914259Y-40477863D01*
X123679227Y-40320820D01*
X123418074Y-40212647D01*
X123140835Y-40157500D01*
X122858165Y-40157500D01*
X122580926Y-40212647D01*
X122319773Y-40320820D01*
X122084741Y-40477863D01*
X121884863Y-40677741D01*
X121729500Y-40910259D01*
X121574137Y-40677741D01*
X121374259Y-40477863D01*
X121139227Y-40320820D01*
X120878074Y-40212647D01*
X120600835Y-40157500D01*
X120318165Y-40157500D01*
X120040926Y-40212647D01*
X119779773Y-40320820D01*
X119544741Y-40477863D01*
X119346143Y-40676461D01*
X119345312Y-40668018D01*
X119309002Y-40548320D01*
X119250037Y-40438006D01*
X119170685Y-40341315D01*
X119073994Y-40261963D01*
X118963680Y-40202998D01*
X118843982Y-40166688D01*
X118719500Y-40154428D01*
X117119500Y-40154428D01*
X116995018Y-40166688D01*
X116875320Y-40202998D01*
X116765006Y-40261963D01*
X116668315Y-40341315D01*
X116588963Y-40438006D01*
X116529998Y-40548320D01*
X116493688Y-40668018D01*
X116481428Y-40792500D01*
X112760817Y-40792500D01*
X112684137Y-40677741D01*
X112484259Y-40477863D01*
X112249227Y-40320820D01*
X111988074Y-40212647D01*
X111710835Y-40157500D01*
X111428165Y-40157500D01*
X111150926Y-40212647D01*
X110889773Y-40320820D01*
X110654741Y-40477863D01*
X110454863Y-40677741D01*
X110299500Y-40910259D01*
X110144137Y-40677741D01*
X109944259Y-40477863D01*
X109709227Y-40320820D01*
X109448074Y-40212647D01*
X109170835Y-40157500D01*
X108888165Y-40157500D01*
X108610926Y-40212647D01*
X108349773Y-40320820D01*
X108114741Y-40477863D01*
X107914863Y-40677741D01*
X107759500Y-40910259D01*
X107604137Y-40677741D01*
X107404259Y-40477863D01*
X107169227Y-40320820D01*
X106908074Y-40212647D01*
X106630835Y-40157500D01*
X106348165Y-40157500D01*
X106070926Y-40212647D01*
X105809773Y-40320820D01*
X105574741Y-40477863D01*
X105374863Y-40677741D01*
X105219500Y-40910259D01*
X105064137Y-40677741D01*
X104864259Y-40477863D01*
X104629227Y-40320820D01*
X104368074Y-40212647D01*
X104090835Y-40157500D01*
X103808165Y-40157500D01*
X103530926Y-40212647D01*
X103269773Y-40320820D01*
X103034741Y-40477863D01*
X102834863Y-40677741D01*
X102679500Y-40910259D01*
X102524137Y-40677741D01*
X102324259Y-40477863D01*
X102089227Y-40320820D01*
X101828074Y-40212647D01*
X101550835Y-40157500D01*
X101268165Y-40157500D01*
X100990926Y-40212647D01*
X100729773Y-40320820D01*
X100494741Y-40477863D01*
X100294863Y-40677741D01*
X100139500Y-40910259D01*
X99984137Y-40677741D01*
X99784259Y-40477863D01*
X99549227Y-40320820D01*
X99288074Y-40212647D01*
X99010835Y-40157500D01*
X98728165Y-40157500D01*
X98450926Y-40212647D01*
X98189773Y-40320820D01*
X97954741Y-40477863D01*
X97754863Y-40677741D01*
X97599500Y-40910259D01*
X97444137Y-40677741D01*
X97244259Y-40477863D01*
X97009227Y-40320820D01*
X96748074Y-40212647D01*
X96470835Y-40157500D01*
X96188165Y-40157500D01*
X95910926Y-40212647D01*
X95649773Y-40320820D01*
X95414741Y-40477863D01*
X95216143Y-40676461D01*
X95215312Y-40668018D01*
X95179002Y-40548320D01*
X95120037Y-40438006D01*
X95040685Y-40341315D01*
X94943994Y-40261963D01*
X94833680Y-40202998D01*
X94713982Y-40166688D01*
X94589500Y-40154428D01*
X92989500Y-40154428D01*
X92865018Y-40166688D01*
X92745320Y-40202998D01*
X92635006Y-40261963D01*
X92538315Y-40341315D01*
X92458963Y-40438006D01*
X92399998Y-40548320D01*
X92363688Y-40668018D01*
X92351428Y-40792500D01*
X79971500Y-40792500D01*
X79971500Y-36016500D01*
X82466428Y-36016500D01*
X82466428Y-37516500D01*
X82478688Y-37640982D01*
X82514998Y-37760680D01*
X82573963Y-37870994D01*
X82653315Y-37967685D01*
X82750006Y-38047037D01*
X82860320Y-38106002D01*
X82980018Y-38142312D01*
X83104500Y-38154572D01*
X84154500Y-38154572D01*
X84278982Y-38142312D01*
X84398680Y-38106002D01*
X84463402Y-38071407D01*
X84672101Y-38134715D01*
X84899500Y-38157112D01*
X85126900Y-38134715D01*
X85345560Y-38068385D01*
X85534501Y-37967394D01*
X85723441Y-38068385D01*
X85942101Y-38134715D01*
X86169500Y-38157112D01*
X86396900Y-38134715D01*
X86615560Y-38068385D01*
X86817079Y-37960671D01*
X86993712Y-37815712D01*
X87138671Y-37639079D01*
X87246385Y-37437559D01*
X87312715Y-37218899D01*
X87329500Y-37048478D01*
X87329500Y-36484521D01*
X87312715Y-36314100D01*
X87246385Y-36095440D01*
X87138671Y-35893921D01*
X86993712Y-35717288D01*
X86817078Y-35572329D01*
X86615559Y-35464615D01*
X86396899Y-35398285D01*
X86169500Y-35375888D01*
X85942100Y-35398285D01*
X85723440Y-35464615D01*
X85534499Y-35565606D01*
X85345559Y-35464615D01*
X85126899Y-35398285D01*
X84899500Y-35375888D01*
X84672100Y-35398285D01*
X84463402Y-35461593D01*
X84398680Y-35426998D01*
X84278982Y-35390688D01*
X84154500Y-35378428D01*
X83104500Y-35378428D01*
X82980018Y-35390688D01*
X82860320Y-35426998D01*
X82750006Y-35485963D01*
X82653315Y-35565315D01*
X82573963Y-35662006D01*
X82514998Y-35772320D01*
X82478688Y-35892018D01*
X82466428Y-36016500D01*
X79971500Y-36016500D01*
X79971500Y-34321540D01*
X92397591Y-34321540D01*
X92492430Y-34586381D01*
X92637115Y-34827631D01*
X92826086Y-35036019D01*
X93052080Y-35203537D01*
X93306413Y-35323746D01*
X93440461Y-35364404D01*
X93662500Y-35242415D01*
X93662500Y-34099500D01*
X92518876Y-34099500D01*
X92397591Y-34321540D01*
X79971500Y-34321540D01*
X79971500Y-33623460D01*
X92397591Y-33623460D01*
X92518876Y-33845500D01*
X93662500Y-33845500D01*
X93662500Y-32702585D01*
X93916500Y-32702585D01*
X93916500Y-33845500D01*
X93936500Y-33845500D01*
X93936500Y-34099500D01*
X93916500Y-34099500D01*
X93916500Y-35242415D01*
X94138539Y-35364404D01*
X94272587Y-35323746D01*
X94526920Y-35203537D01*
X94752914Y-35036019D01*
X94941885Y-34827631D01*
X95053433Y-34641635D01*
X95057820Y-34652227D01*
X95214863Y-34887259D01*
X95414741Y-35087137D01*
X95649773Y-35244180D01*
X95910926Y-35352353D01*
X96188165Y-35407500D01*
X96470835Y-35407500D01*
X96748074Y-35352353D01*
X97009227Y-35244180D01*
X97244259Y-35087137D01*
X97444137Y-34887259D01*
X97599500Y-34654741D01*
X97754863Y-34887259D01*
X97954741Y-35087137D01*
X98189773Y-35244180D01*
X98450926Y-35352353D01*
X98728165Y-35407500D01*
X99010835Y-35407500D01*
X99288074Y-35352353D01*
X99549227Y-35244180D01*
X99784259Y-35087137D01*
X99984137Y-34887259D01*
X100139500Y-34654741D01*
X100294863Y-34887259D01*
X100494741Y-35087137D01*
X100729773Y-35244180D01*
X100990926Y-35352353D01*
X101268165Y-35407500D01*
X101550835Y-35407500D01*
X101828074Y-35352353D01*
X102089227Y-35244180D01*
X102324259Y-35087137D01*
X102524137Y-34887259D01*
X102679500Y-34654741D01*
X102834863Y-34887259D01*
X103034741Y-35087137D01*
X103269773Y-35244180D01*
X103530926Y-35352353D01*
X103808165Y-35407500D01*
X104090835Y-35407500D01*
X104368074Y-35352353D01*
X104629227Y-35244180D01*
X104864259Y-35087137D01*
X105064137Y-34887259D01*
X105219500Y-34654741D01*
X105374863Y-34887259D01*
X105574741Y-35087137D01*
X105809773Y-35244180D01*
X106070926Y-35352353D01*
X106348165Y-35407500D01*
X106630835Y-35407500D01*
X106908074Y-35352353D01*
X107169227Y-35244180D01*
X107404259Y-35087137D01*
X107604137Y-34887259D01*
X107759500Y-34654741D01*
X107914863Y-34887259D01*
X108114741Y-35087137D01*
X108349773Y-35244180D01*
X108610926Y-35352353D01*
X108888165Y-35407500D01*
X109170835Y-35407500D01*
X109448074Y-35352353D01*
X109709227Y-35244180D01*
X109944259Y-35087137D01*
X110144137Y-34887259D01*
X110299500Y-34654741D01*
X110454863Y-34887259D01*
X110654741Y-35087137D01*
X110889773Y-35244180D01*
X111150926Y-35352353D01*
X111428165Y-35407500D01*
X111710835Y-35407500D01*
X111988074Y-35352353D01*
X112249227Y-35244180D01*
X112484259Y-35087137D01*
X112684137Y-34887259D01*
X112841180Y-34652227D01*
X112949353Y-34391074D01*
X112963184Y-34321540D01*
X116527591Y-34321540D01*
X116622430Y-34586381D01*
X116767115Y-34827631D01*
X116956086Y-35036019D01*
X117182080Y-35203537D01*
X117436413Y-35323746D01*
X117570461Y-35364404D01*
X117792500Y-35242415D01*
X117792500Y-34099500D01*
X116648876Y-34099500D01*
X116527591Y-34321540D01*
X112963184Y-34321540D01*
X113004500Y-34113835D01*
X113004500Y-33831165D01*
X112963185Y-33623460D01*
X116527591Y-33623460D01*
X116648876Y-33845500D01*
X117792500Y-33845500D01*
X117792500Y-32702585D01*
X118046500Y-32702585D01*
X118046500Y-33845500D01*
X118066500Y-33845500D01*
X118066500Y-34099500D01*
X118046500Y-34099500D01*
X118046500Y-35242415D01*
X118268539Y-35364404D01*
X118402587Y-35323746D01*
X118656920Y-35203537D01*
X118882914Y-35036019D01*
X119071885Y-34827631D01*
X119183433Y-34641635D01*
X119187820Y-34652227D01*
X119344863Y-34887259D01*
X119544741Y-35087137D01*
X119779773Y-35244180D01*
X120040926Y-35352353D01*
X120318165Y-35407500D01*
X120600835Y-35407500D01*
X120878074Y-35352353D01*
X121139227Y-35244180D01*
X121374259Y-35087137D01*
X121574137Y-34887259D01*
X121729500Y-34654741D01*
X121884863Y-34887259D01*
X122084741Y-35087137D01*
X122319773Y-35244180D01*
X122580926Y-35352353D01*
X122858165Y-35407500D01*
X123140835Y-35407500D01*
X123418074Y-35352353D01*
X123679227Y-35244180D01*
X123914259Y-35087137D01*
X124114137Y-34887259D01*
X124269500Y-34654741D01*
X124424863Y-34887259D01*
X124624741Y-35087137D01*
X124859773Y-35244180D01*
X125120926Y-35352353D01*
X125398165Y-35407500D01*
X125680835Y-35407500D01*
X125958074Y-35352353D01*
X126219227Y-35244180D01*
X126454259Y-35087137D01*
X126654137Y-34887259D01*
X126809500Y-34654741D01*
X126964863Y-34887259D01*
X127164741Y-35087137D01*
X127399773Y-35244180D01*
X127660926Y-35352353D01*
X127938165Y-35407500D01*
X128220835Y-35407500D01*
X128498074Y-35352353D01*
X128759227Y-35244180D01*
X128994259Y-35087137D01*
X129194137Y-34887259D01*
X129349500Y-34654741D01*
X129504863Y-34887259D01*
X129704741Y-35087137D01*
X129939773Y-35244180D01*
X130200926Y-35352353D01*
X130478165Y-35407500D01*
X130760835Y-35407500D01*
X131038074Y-35352353D01*
X131299227Y-35244180D01*
X131534259Y-35087137D01*
X131734137Y-34887259D01*
X131889500Y-34654741D01*
X132044863Y-34887259D01*
X132244741Y-35087137D01*
X132479773Y-35244180D01*
X132740926Y-35352353D01*
X133018165Y-35407500D01*
X133300835Y-35407500D01*
X133578074Y-35352353D01*
X133839227Y-35244180D01*
X134074259Y-35087137D01*
X134274137Y-34887259D01*
X134429500Y-34654741D01*
X134584863Y-34887259D01*
X134784741Y-35087137D01*
X135019773Y-35244180D01*
X135280926Y-35352353D01*
X135558165Y-35407500D01*
X135840835Y-35407500D01*
X136118074Y-35352353D01*
X136379227Y-35244180D01*
X136614259Y-35087137D01*
X136814137Y-34887259D01*
X136971180Y-34652227D01*
X137079353Y-34391074D01*
X137134500Y-34113835D01*
X137134500Y-33831165D01*
X137079353Y-33553926D01*
X136971180Y-33292773D01*
X136814137Y-33057741D01*
X136614259Y-32857863D01*
X136379227Y-32700820D01*
X136118074Y-32592647D01*
X135840835Y-32537500D01*
X135558165Y-32537500D01*
X135280926Y-32592647D01*
X135019773Y-32700820D01*
X134784741Y-32857863D01*
X134584863Y-33057741D01*
X134429500Y-33290259D01*
X134274137Y-33057741D01*
X134074259Y-32857863D01*
X133839227Y-32700820D01*
X133578074Y-32592647D01*
X133300835Y-32537500D01*
X133018165Y-32537500D01*
X132740926Y-32592647D01*
X132479773Y-32700820D01*
X132244741Y-32857863D01*
X132044863Y-33057741D01*
X131889500Y-33290259D01*
X131734137Y-33057741D01*
X131534259Y-32857863D01*
X131299227Y-32700820D01*
X131038074Y-32592647D01*
X130760835Y-32537500D01*
X130478165Y-32537500D01*
X130200926Y-32592647D01*
X129939773Y-32700820D01*
X129704741Y-32857863D01*
X129504863Y-33057741D01*
X129349500Y-33290259D01*
X129194137Y-33057741D01*
X128994259Y-32857863D01*
X128759227Y-32700820D01*
X128498074Y-32592647D01*
X128220835Y-32537500D01*
X127938165Y-32537500D01*
X127660926Y-32592647D01*
X127399773Y-32700820D01*
X127164741Y-32857863D01*
X126964863Y-33057741D01*
X126809500Y-33290259D01*
X126654137Y-33057741D01*
X126454259Y-32857863D01*
X126219227Y-32700820D01*
X125958074Y-32592647D01*
X125680835Y-32537500D01*
X125398165Y-32537500D01*
X125120926Y-32592647D01*
X124859773Y-32700820D01*
X124624741Y-32857863D01*
X124424863Y-33057741D01*
X124269500Y-33290259D01*
X124114137Y-33057741D01*
X123914259Y-32857863D01*
X123679227Y-32700820D01*
X123418074Y-32592647D01*
X123140835Y-32537500D01*
X122858165Y-32537500D01*
X122580926Y-32592647D01*
X122319773Y-32700820D01*
X122084741Y-32857863D01*
X121884863Y-33057741D01*
X121729500Y-33290259D01*
X121574137Y-33057741D01*
X121374259Y-32857863D01*
X121139227Y-32700820D01*
X120878074Y-32592647D01*
X120600835Y-32537500D01*
X120318165Y-32537500D01*
X120040926Y-32592647D01*
X119779773Y-32700820D01*
X119544741Y-32857863D01*
X119344863Y-33057741D01*
X119187820Y-33292773D01*
X119183433Y-33303365D01*
X119071885Y-33117369D01*
X118882914Y-32908981D01*
X118656920Y-32741463D01*
X118402587Y-32621254D01*
X118268539Y-32580596D01*
X118046500Y-32702585D01*
X117792500Y-32702585D01*
X117570461Y-32580596D01*
X117436413Y-32621254D01*
X117182080Y-32741463D01*
X116956086Y-32908981D01*
X116767115Y-33117369D01*
X116622430Y-33358619D01*
X116527591Y-33623460D01*
X112963185Y-33623460D01*
X112949353Y-33553926D01*
X112841180Y-33292773D01*
X112684137Y-33057741D01*
X112484259Y-32857863D01*
X112249227Y-32700820D01*
X111988074Y-32592647D01*
X111710835Y-32537500D01*
X111428165Y-32537500D01*
X111150926Y-32592647D01*
X110889773Y-32700820D01*
X110654741Y-32857863D01*
X110454863Y-33057741D01*
X110299500Y-33290259D01*
X110144137Y-33057741D01*
X109944259Y-32857863D01*
X109709227Y-32700820D01*
X109448074Y-32592647D01*
X109170835Y-32537500D01*
X108888165Y-32537500D01*
X108610926Y-32592647D01*
X108349773Y-32700820D01*
X108114741Y-32857863D01*
X107914863Y-33057741D01*
X107759500Y-33290259D01*
X107604137Y-33057741D01*
X107404259Y-32857863D01*
X107169227Y-32700820D01*
X106908074Y-32592647D01*
X106630835Y-32537500D01*
X106348165Y-32537500D01*
X106070926Y-32592647D01*
X105809773Y-32700820D01*
X105574741Y-32857863D01*
X105374863Y-33057741D01*
X105219500Y-33290259D01*
X105064137Y-33057741D01*
X104864259Y-32857863D01*
X104629227Y-32700820D01*
X104368074Y-32592647D01*
X104090835Y-32537500D01*
X103808165Y-32537500D01*
X103530926Y-32592647D01*
X103269773Y-32700820D01*
X103034741Y-32857863D01*
X102834863Y-33057741D01*
X102679500Y-33290259D01*
X102524137Y-33057741D01*
X102324259Y-32857863D01*
X102089227Y-32700820D01*
X101828074Y-32592647D01*
X101550835Y-32537500D01*
X101268165Y-32537500D01*
X100990926Y-32592647D01*
X100729773Y-32700820D01*
X100494741Y-32857863D01*
X100294863Y-33057741D01*
X100139500Y-33290259D01*
X99984137Y-33057741D01*
X99784259Y-32857863D01*
X99549227Y-32700820D01*
X99288074Y-32592647D01*
X99010835Y-32537500D01*
X98728165Y-32537500D01*
X98450926Y-32592647D01*
X98189773Y-32700820D01*
X97954741Y-32857863D01*
X97754863Y-33057741D01*
X97599500Y-33290259D01*
X97444137Y-33057741D01*
X97244259Y-32857863D01*
X97009227Y-32700820D01*
X96748074Y-32592647D01*
X96470835Y-32537500D01*
X96188165Y-32537500D01*
X95910926Y-32592647D01*
X95649773Y-32700820D01*
X95414741Y-32857863D01*
X95214863Y-33057741D01*
X95057820Y-33292773D01*
X95053433Y-33303365D01*
X94941885Y-33117369D01*
X94752914Y-32908981D01*
X94526920Y-32741463D01*
X94272587Y-32621254D01*
X94138539Y-32580596D01*
X93916500Y-32702585D01*
X93662500Y-32702585D01*
X93440461Y-32580596D01*
X93306413Y-32621254D01*
X93052080Y-32741463D01*
X92826086Y-32908981D01*
X92637115Y-33117369D01*
X92492430Y-33358619D01*
X92397591Y-33623460D01*
X79971500Y-33623460D01*
X79971500Y-31609157D01*
X80044011Y-31717677D01*
X80550323Y-32223989D01*
X81145682Y-32621795D01*
X81807210Y-32895809D01*
X82509484Y-33035500D01*
X83225516Y-33035500D01*
X83927790Y-32895809D01*
X84589318Y-32621795D01*
X85184677Y-32223989D01*
X85690989Y-31717677D01*
X86088795Y-31122318D01*
X86362809Y-30460790D01*
X86502500Y-29758516D01*
X86502500Y-29042484D01*
X86362809Y-28340210D01*
X86088795Y-27678682D01*
X85690989Y-27083323D01*
X85184677Y-26577011D01*
X85076157Y-26504500D01*
X144412843Y-26504500D01*
X144304323Y-26577011D01*
%TA.AperFunction,Conductor*%
D22*
G36*
X144304323Y-26577011D02*
G01*
X143798011Y-27083323D01*
X143400205Y-27678682D01*
X143126191Y-28340210D01*
X142986500Y-29042484D01*
X142986500Y-29758516D01*
X143126191Y-30460790D01*
X143400205Y-31122318D01*
X143798011Y-31717677D01*
X144304323Y-32223989D01*
X144899682Y-32621795D01*
X145561210Y-32895809D01*
X146263484Y-33035500D01*
X146979516Y-33035500D01*
X147681790Y-32895809D01*
X148343318Y-32621795D01*
X148938677Y-32223989D01*
X149444989Y-31717677D01*
X149517501Y-31609155D01*
X149517501Y-35436312D01*
X149461490Y-35301089D01*
X149298975Y-35057868D01*
X149092132Y-34851025D01*
X148848911Y-34688510D01*
X148578658Y-34576568D01*
X148291760Y-34519500D01*
X147999240Y-34519500D01*
X147712342Y-34576568D01*
X147442089Y-34688510D01*
X147198868Y-34851025D01*
X146992025Y-35057868D01*
X146829510Y-35301089D01*
X146717568Y-35571342D01*
X146660500Y-35858240D01*
X146660500Y-36150760D01*
X146717568Y-36437658D01*
X146829510Y-36707911D01*
X146992025Y-36951132D01*
X147198868Y-37157975D01*
X147373260Y-37274500D01*
X147198868Y-37391025D01*
X146992025Y-37597868D01*
X146829510Y-37841089D01*
X146717568Y-38111342D01*
X146660500Y-38398240D01*
X146660500Y-38690760D01*
X146717568Y-38977658D01*
X146829510Y-39247911D01*
X146992025Y-39491132D01*
X147198868Y-39697975D01*
X147373260Y-39814500D01*
X147198868Y-39931025D01*
X146992025Y-40137868D01*
X146829510Y-40381089D01*
X146717568Y-40651342D01*
X146660500Y-40938240D01*
X146660500Y-41230760D01*
X146717568Y-41517658D01*
X146829510Y-41787911D01*
X146992025Y-42031132D01*
X147198868Y-42237975D01*
X147373260Y-42354500D01*
X147198868Y-42471025D01*
X146992025Y-42677868D01*
X146829510Y-42921089D01*
X146717568Y-43191342D01*
X146660500Y-43478240D01*
X146660500Y-43770760D01*
X146717568Y-44057658D01*
X146829510Y-44327911D01*
X146992025Y-44571132D01*
X147198868Y-44777975D01*
X147373260Y-44894500D01*
X147198868Y-45011025D01*
X146992025Y-45217868D01*
X146829510Y-45461089D01*
X146717568Y-45731342D01*
X146660500Y-46018240D01*
X146660500Y-46310760D01*
X146717568Y-46597658D01*
X146829510Y-46867911D01*
X146992025Y-47111132D01*
X147198868Y-47317975D01*
X147373260Y-47434500D01*
X147198868Y-47551025D01*
X146992025Y-47757868D01*
X146829510Y-48001089D01*
X146717568Y-48271342D01*
X146660500Y-48558240D01*
X146660500Y-48850760D01*
X146717568Y-49137658D01*
X146829510Y-49407911D01*
X146992025Y-49651132D01*
X147198868Y-49857975D01*
X147373260Y-49974500D01*
X147198868Y-50091025D01*
X146992025Y-50297868D01*
X146829510Y-50541089D01*
X146717568Y-50811342D01*
X146660500Y-51098240D01*
X146660500Y-51390760D01*
X146717568Y-51677658D01*
X146829510Y-51947911D01*
X146992025Y-52191132D01*
X147198868Y-52397975D01*
X147373260Y-52514500D01*
X147198868Y-52631025D01*
X146992025Y-52837868D01*
X146829510Y-53081089D01*
X146717568Y-53351342D01*
X146660500Y-53638240D01*
X146660500Y-53930760D01*
X146717568Y-54217658D01*
X146829510Y-54487911D01*
X146992025Y-54731132D01*
X147198868Y-54937975D01*
X147373260Y-55054500D01*
X147198868Y-55171025D01*
X146992025Y-55377868D01*
X146829510Y-55621089D01*
X146717568Y-55891342D01*
X146660500Y-56178240D01*
X146660500Y-56470760D01*
X146717568Y-56757658D01*
X146829510Y-57027911D01*
X146992025Y-57271132D01*
X147198868Y-57477975D01*
X147373260Y-57594500D01*
X147198868Y-57711025D01*
X146992025Y-57917868D01*
X146829510Y-58161089D01*
X146717568Y-58431342D01*
X146660500Y-58718240D01*
X146660500Y-59010760D01*
X146717568Y-59297658D01*
X146829510Y-59567911D01*
X146992025Y-59811132D01*
X147198868Y-60017975D01*
X147373260Y-60134500D01*
X147198868Y-60251025D01*
X146992025Y-60457868D01*
X146829510Y-60701089D01*
X146717568Y-60971342D01*
X146660500Y-61258240D01*
X146660500Y-61550760D01*
X146717568Y-61837658D01*
X146829510Y-62107911D01*
X146992025Y-62351132D01*
X147198868Y-62557975D01*
X147373260Y-62674500D01*
X147198868Y-62791025D01*
X146992025Y-62997868D01*
X146829510Y-63241089D01*
X146717568Y-63511342D01*
X146660500Y-63798240D01*
X146660500Y-64090760D01*
X146717568Y-64377658D01*
X146829510Y-64647911D01*
X146992025Y-64891132D01*
X147198868Y-65097975D01*
X147373260Y-65214500D01*
X147198868Y-65331025D01*
X146992025Y-65537868D01*
X146829510Y-65781089D01*
X146717568Y-66051342D01*
X146660500Y-66338240D01*
X146660500Y-66630760D01*
X146717568Y-66917658D01*
X146829510Y-67187911D01*
X146992025Y-67431132D01*
X147198868Y-67637975D01*
X147373260Y-67754500D01*
X147198868Y-67871025D01*
X146992025Y-68077868D01*
X146829510Y-68321089D01*
X146717568Y-68591342D01*
X146660500Y-68878240D01*
X146660500Y-69170760D01*
X146717568Y-69457658D01*
X146829510Y-69727911D01*
X146992025Y-69971132D01*
X147198868Y-70177975D01*
X147373260Y-70294500D01*
X147198868Y-70411025D01*
X146992025Y-70617868D01*
X146829510Y-70861089D01*
X146717568Y-71131342D01*
X146660500Y-71418240D01*
X146660500Y-71710760D01*
X146717568Y-71997658D01*
X146829510Y-72267911D01*
X146992025Y-72511132D01*
X147123880Y-72642987D01*
X147051320Y-72664998D01*
X146941006Y-72723963D01*
X146844315Y-72803315D01*
X146764963Y-72900006D01*
X146705998Y-73010320D01*
X146669688Y-73130018D01*
X146657428Y-73254500D01*
X146660500Y-73818750D01*
X146819250Y-73977500D01*
X148018500Y-73977500D01*
X148018500Y-73957500D01*
X148272500Y-73957500D01*
X148272500Y-73977500D01*
X148292500Y-73977500D01*
X148292500Y-74231500D01*
X148272500Y-74231500D01*
X148272500Y-75430750D01*
X148431250Y-75589500D01*
X148995500Y-75592572D01*
X149119982Y-75580312D01*
X149239680Y-75544002D01*
X149349994Y-75485037D01*
X149446685Y-75405685D01*
X149517500Y-75319396D01*
X149517500Y-78499844D01*
X149444989Y-78391323D01*
X148938677Y-77885011D01*
X148343318Y-77487205D01*
X147681790Y-77213191D01*
X146979516Y-77073500D01*
X146263484Y-77073500D01*
X145561210Y-77213191D01*
X144899682Y-77487205D01*
X144304323Y-77885011D01*
X143798011Y-78391323D01*
X143400205Y-78986682D01*
X143126191Y-79648210D01*
X142986500Y-80350484D01*
X142986500Y-81066516D01*
X143126191Y-81768790D01*
X143400205Y-82430318D01*
X143798011Y-83025677D01*
X144304323Y-83531989D01*
X144412843Y-83604500D01*
X85076157Y-83604500D01*
X85184677Y-83531989D01*
X85690989Y-83025677D01*
X86088795Y-82430318D01*
X86362809Y-81768790D01*
X86502500Y-81066516D01*
X86502500Y-80350484D01*
X86362809Y-79648210D01*
X86088795Y-78986682D01*
X85690989Y-78391323D01*
X85184677Y-77885011D01*
X84589318Y-77487205D01*
X83927790Y-77213191D01*
X83225516Y-77073500D01*
X82509484Y-77073500D01*
X81807210Y-77213191D01*
X81145682Y-77487205D01*
X80550323Y-77885011D01*
X80044011Y-78391323D01*
X79971500Y-78499843D01*
X79971500Y-75477165D01*
X91592500Y-75477165D01*
X91592500Y-75759835D01*
X91647647Y-76037074D01*
X91755820Y-76298227D01*
X91912863Y-76533259D01*
X92112741Y-76733137D01*
X92347773Y-76890180D01*
X92608926Y-76998353D01*
X92886165Y-77053500D01*
X93168835Y-77053500D01*
X93446074Y-76998353D01*
X93707227Y-76890180D01*
X93942259Y-76733137D01*
X94142137Y-76533259D01*
X94262916Y-76352500D01*
X98701428Y-76352500D01*
X98701428Y-77952500D01*
X98713688Y-78076982D01*
X98749998Y-78196680D01*
X98808963Y-78306994D01*
X98888315Y-78403685D01*
X98985006Y-78483037D01*
X99095320Y-78542002D01*
X99215018Y-78578312D01*
X99339500Y-78590572D01*
X100939500Y-78590572D01*
X101063982Y-78578312D01*
X101183680Y-78542002D01*
X101293994Y-78483037D01*
X101390685Y-78403685D01*
X101470037Y-78306994D01*
X101529002Y-78196680D01*
X101565312Y-78076982D01*
X101566143Y-78068539D01*
X101764741Y-78267137D01*
X101999773Y-78424180D01*
X102260926Y-78532353D01*
X102538165Y-78587500D01*
X102820835Y-78587500D01*
X103098074Y-78532353D01*
X103359227Y-78424180D01*
X103594259Y-78267137D01*
X103794137Y-78067259D01*
X103949500Y-77834741D01*
X104104863Y-78067259D01*
X104304741Y-78267137D01*
X104539773Y-78424180D01*
X104800926Y-78532353D01*
X105078165Y-78587500D01*
X105360835Y-78587500D01*
X105638074Y-78532353D01*
X105899227Y-78424180D01*
X106134259Y-78267137D01*
X106334137Y-78067259D01*
X106489500Y-77834741D01*
X106644863Y-78067259D01*
X106844741Y-78267137D01*
X107079773Y-78424180D01*
X107340926Y-78532353D01*
X107618165Y-78587500D01*
X107900835Y-78587500D01*
X108178074Y-78532353D01*
X108439227Y-78424180D01*
X108674259Y-78267137D01*
X108874137Y-78067259D01*
X109029500Y-77834741D01*
X109184863Y-78067259D01*
X109384741Y-78267137D01*
X109619773Y-78424180D01*
X109880926Y-78532353D01*
X110158165Y-78587500D01*
X110440835Y-78587500D01*
X110718074Y-78532353D01*
X110979227Y-78424180D01*
X111214259Y-78267137D01*
X111414137Y-78067259D01*
X111569500Y-77834741D01*
X111724863Y-78067259D01*
X111924741Y-78267137D01*
X112159773Y-78424180D01*
X112420926Y-78532353D01*
X112698165Y-78587500D01*
X112980835Y-78587500D01*
X113258074Y-78532353D01*
X113519227Y-78424180D01*
X113754259Y-78267137D01*
X113954137Y-78067259D01*
X114109500Y-77834741D01*
X114264863Y-78067259D01*
X114464741Y-78267137D01*
X114699773Y-78424180D01*
X114960926Y-78532353D01*
X115238165Y-78587500D01*
X115520835Y-78587500D01*
X115798074Y-78532353D01*
X116059227Y-78424180D01*
X116294259Y-78267137D01*
X116494137Y-78067259D01*
X116649500Y-77834741D01*
X116804863Y-78067259D01*
X117004741Y-78267137D01*
X117239773Y-78424180D01*
X117500926Y-78532353D01*
X117778165Y-78587500D01*
X118060835Y-78587500D01*
X118338074Y-78532353D01*
X118599227Y-78424180D01*
X118834259Y-78267137D01*
X119034137Y-78067259D01*
X119189500Y-77834741D01*
X119344863Y-78067259D01*
X119544741Y-78267137D01*
X119779773Y-78424180D01*
X120040926Y-78532353D01*
X120318165Y-78587500D01*
X120600835Y-78587500D01*
X120878074Y-78532353D01*
X121139227Y-78424180D01*
X121374259Y-78267137D01*
X121574137Y-78067259D01*
X121729500Y-77834741D01*
X121884863Y-78067259D01*
X122084741Y-78267137D01*
X122319773Y-78424180D01*
X122580926Y-78532353D01*
X122858165Y-78587500D01*
X123140835Y-78587500D01*
X123418074Y-78532353D01*
X123679227Y-78424180D01*
X123914259Y-78267137D01*
X124114137Y-78067259D01*
X124271180Y-77832227D01*
X124379353Y-77571074D01*
X124434500Y-77293835D01*
X124434500Y-77011165D01*
X124379353Y-76733926D01*
X124271180Y-76472773D01*
X124114137Y-76237741D01*
X123914259Y-76037863D01*
X123679227Y-75880820D01*
X123418074Y-75772647D01*
X123140835Y-75717500D01*
X122858165Y-75717500D01*
X122580926Y-75772647D01*
X122319773Y-75880820D01*
X122084741Y-76037863D01*
X121884863Y-76237741D01*
X121729500Y-76470259D01*
X121574137Y-76237741D01*
X121374259Y-76037863D01*
X121139227Y-75880820D01*
X120878074Y-75772647D01*
X120600835Y-75717500D01*
X120318165Y-75717500D01*
X120040926Y-75772647D01*
X119779773Y-75880820D01*
X119544741Y-76037863D01*
X119344863Y-76237741D01*
X119189500Y-76470259D01*
X119034137Y-76237741D01*
X118834259Y-76037863D01*
X118599227Y-75880820D01*
X118338074Y-75772647D01*
X118060835Y-75717500D01*
X117778165Y-75717500D01*
X117500926Y-75772647D01*
X117239773Y-75880820D01*
X117004741Y-76037863D01*
X116804863Y-76237741D01*
X116649500Y-76470259D01*
X116494137Y-76237741D01*
X116294259Y-76037863D01*
X116059227Y-75880820D01*
X115798074Y-75772647D01*
X115520835Y-75717500D01*
X115238165Y-75717500D01*
X114960926Y-75772647D01*
X114699773Y-75880820D01*
X114464741Y-76037863D01*
X114264863Y-76237741D01*
X114109500Y-76470259D01*
X113954137Y-76237741D01*
X113754259Y-76037863D01*
X113519227Y-75880820D01*
X113258074Y-75772647D01*
X112980835Y-75717500D01*
X112698165Y-75717500D01*
X112420926Y-75772647D01*
X112159773Y-75880820D01*
X111924741Y-76037863D01*
X111724863Y-76237741D01*
X111569500Y-76470259D01*
X111414137Y-76237741D01*
X111214259Y-76037863D01*
X110979227Y-75880820D01*
X110718074Y-75772647D01*
X110440835Y-75717500D01*
X110158165Y-75717500D01*
X109880926Y-75772647D01*
X109619773Y-75880820D01*
X109384741Y-76037863D01*
X109184863Y-76237741D01*
X109029500Y-76470259D01*
X108874137Y-76237741D01*
X108674259Y-76037863D01*
X108439227Y-75880820D01*
X108178074Y-75772647D01*
X107900835Y-75717500D01*
X107618165Y-75717500D01*
X107340926Y-75772647D01*
X107079773Y-75880820D01*
X106844741Y-76037863D01*
X106644863Y-76237741D01*
X106489500Y-76470259D01*
X106334137Y-76237741D01*
X106134259Y-76037863D01*
X105899227Y-75880820D01*
X105638074Y-75772647D01*
X105360835Y-75717500D01*
X105078165Y-75717500D01*
X104800926Y-75772647D01*
X104539773Y-75880820D01*
X104304741Y-76037863D01*
X104104863Y-76237741D01*
X103949500Y-76470259D01*
X103794137Y-76237741D01*
X103594259Y-76037863D01*
X103359227Y-75880820D01*
X103098074Y-75772647D01*
X102820835Y-75717500D01*
X102538165Y-75717500D01*
X102260926Y-75772647D01*
X101999773Y-75880820D01*
X101764741Y-76037863D01*
X101566143Y-76236461D01*
X101565312Y-76228018D01*
X101529002Y-76108320D01*
X101470037Y-75998006D01*
X101390685Y-75901315D01*
X101293994Y-75821963D01*
X101183680Y-75762998D01*
X101063982Y-75726688D01*
X100939500Y-75714428D01*
X99339500Y-75714428D01*
X99215018Y-75726688D01*
X99095320Y-75762998D01*
X98985006Y-75821963D01*
X98888315Y-75901315D01*
X98808963Y-75998006D01*
X98749998Y-76108320D01*
X98713688Y-76228018D01*
X98701428Y-76352500D01*
X94262916Y-76352500D01*
X94299180Y-76298227D01*
X94407353Y-76037074D01*
X94462500Y-75759835D01*
X94462500Y-75477165D01*
X94407353Y-75199926D01*
X94305695Y-74954500D01*
X146657428Y-74954500D01*
X146669688Y-75078982D01*
X146705998Y-75198680D01*
X146764963Y-75308994D01*
X146844315Y-75405685D01*
X146941006Y-75485037D01*
X147051320Y-75544002D01*
X147171018Y-75580312D01*
X147295500Y-75592572D01*
X147859750Y-75589500D01*
X148018500Y-75430750D01*
X148018500Y-74231500D01*
X146819250Y-74231500D01*
X146660500Y-74390250D01*
X146657428Y-74954500D01*
X94305695Y-74954500D01*
X94299180Y-74938773D01*
X94142137Y-74703741D01*
X93942259Y-74503863D01*
X93707227Y-74346820D01*
X93446074Y-74238647D01*
X93168835Y-74183500D01*
X92886165Y-74183500D01*
X92608926Y-74238647D01*
X92347773Y-74346820D01*
X92112741Y-74503863D01*
X91912863Y-74703741D01*
X91755820Y-74938773D01*
X91647647Y-75199926D01*
X91592500Y-75477165D01*
X79971500Y-75477165D01*
X79971500Y-72618500D01*
X91589428Y-72618500D01*
X91601688Y-72742982D01*
X91637998Y-72862680D01*
X91696963Y-72972994D01*
X91776315Y-73069685D01*
X91873006Y-73149037D01*
X91983320Y-73208002D01*
X92103018Y-73244312D01*
X92227500Y-73256572D01*
X92741750Y-73253500D01*
X92900500Y-73094750D01*
X92900500Y-71945500D01*
X93154500Y-71945500D01*
X93154500Y-73094750D01*
X93313250Y-73253500D01*
X93827500Y-73256572D01*
X93951982Y-73244312D01*
X94071680Y-73208002D01*
X94181994Y-73149037D01*
X94278685Y-73069685D01*
X94358037Y-72972994D01*
X94417002Y-72862680D01*
X94453312Y-72742982D01*
X94465572Y-72618500D01*
X94462500Y-72104250D01*
X94303750Y-71945500D01*
X93154500Y-71945500D01*
X92900500Y-71945500D01*
X91751250Y-71945500D01*
X91592500Y-72104250D01*
X91589428Y-72618500D01*
X79971500Y-72618500D01*
X79971500Y-71018500D01*
X91589428Y-71018500D01*
X91592500Y-71532750D01*
X91751250Y-71691500D01*
X92900500Y-71691500D01*
X92900500Y-70542250D01*
X93154500Y-70542250D01*
X93154500Y-71691500D01*
X94303750Y-71691500D01*
X94462500Y-71532750D01*
X94465572Y-71018500D01*
X94453312Y-70894018D01*
X94417002Y-70774320D01*
X94358037Y-70664006D01*
X94278685Y-70567315D01*
X94181994Y-70487963D01*
X94071680Y-70428998D01*
X93951982Y-70392688D01*
X93827500Y-70380428D01*
X93313250Y-70383500D01*
X93154500Y-70542250D01*
X92900500Y-70542250D01*
X92741750Y-70383500D01*
X92227500Y-70380428D01*
X92103018Y-70392688D01*
X91983320Y-70428998D01*
X91873006Y-70487963D01*
X91776315Y-70567315D01*
X91696963Y-70664006D01*
X91637998Y-70774320D01*
X91601688Y-70894018D01*
X91589428Y-71018500D01*
X79971500Y-71018500D01*
X79971500Y-67766500D01*
X82212428Y-67766500D01*
X82212428Y-69266500D01*
X82224688Y-69390982D01*
X82260998Y-69510680D01*
X82319963Y-69620994D01*
X82399315Y-69717685D01*
X82496006Y-69797037D01*
X82606320Y-69856002D01*
X82726018Y-69892312D01*
X82850500Y-69904572D01*
X83900500Y-69904572D01*
X84024982Y-69892312D01*
X84144680Y-69856002D01*
X84209402Y-69821407D01*
X84418101Y-69884715D01*
X84645500Y-69907112D01*
X84872900Y-69884715D01*
X85091560Y-69818385D01*
X85280500Y-69717394D01*
X85469441Y-69818385D01*
X85688101Y-69884715D01*
X85915500Y-69907112D01*
X86142900Y-69884715D01*
X86153366Y-69881540D01*
X98747591Y-69881540D01*
X98842430Y-70146381D01*
X98987115Y-70387631D01*
X99176086Y-70596019D01*
X99402080Y-70763537D01*
X99656413Y-70883746D01*
X99790461Y-70924404D01*
X100012500Y-70802415D01*
X100012500Y-69659500D01*
X98868876Y-69659500D01*
X98747591Y-69881540D01*
X86153366Y-69881540D01*
X86361560Y-69818385D01*
X86563079Y-69710671D01*
X86739712Y-69565712D01*
X86884671Y-69389079D01*
X86992385Y-69187559D01*
X86993628Y-69183460D01*
X98747591Y-69183460D01*
X98868876Y-69405500D01*
X100012500Y-69405500D01*
X100012500Y-68262585D01*
X100266500Y-68262585D01*
X100266500Y-69405500D01*
X100286500Y-69405500D01*
X100286500Y-69659500D01*
X100266500Y-69659500D01*
X100266500Y-70802415D01*
X100488539Y-70924404D01*
X100622587Y-70883746D01*
X100876920Y-70763537D01*
X101102914Y-70596019D01*
X101291885Y-70387631D01*
X101403433Y-70201635D01*
X101407820Y-70212227D01*
X101564863Y-70447259D01*
X101764741Y-70647137D01*
X101999773Y-70804180D01*
X102260926Y-70912353D01*
X102538165Y-70967500D01*
X102820835Y-70967500D01*
X103098074Y-70912353D01*
X103359227Y-70804180D01*
X103594259Y-70647137D01*
X103794137Y-70447259D01*
X103949500Y-70214741D01*
X104104863Y-70447259D01*
X104304741Y-70647137D01*
X104539773Y-70804180D01*
X104800926Y-70912353D01*
X105078165Y-70967500D01*
X105360835Y-70967500D01*
X105638074Y-70912353D01*
X105899227Y-70804180D01*
X106134259Y-70647137D01*
X106334137Y-70447259D01*
X106489500Y-70214741D01*
X106644863Y-70447259D01*
X106844741Y-70647137D01*
X107079773Y-70804180D01*
X107340926Y-70912353D01*
X107618165Y-70967500D01*
X107900835Y-70967500D01*
X108178074Y-70912353D01*
X108439227Y-70804180D01*
X108674259Y-70647137D01*
X108874137Y-70447259D01*
X109029500Y-70214741D01*
X109184863Y-70447259D01*
X109384741Y-70647137D01*
X109619773Y-70804180D01*
X109880926Y-70912353D01*
X110158165Y-70967500D01*
X110440835Y-70967500D01*
X110718074Y-70912353D01*
X110979227Y-70804180D01*
X111214259Y-70647137D01*
X111414137Y-70447259D01*
X111569500Y-70214741D01*
X111724863Y-70447259D01*
X111924741Y-70647137D01*
X112159773Y-70804180D01*
X112420926Y-70912353D01*
X112698165Y-70967500D01*
X112980835Y-70967500D01*
X113258074Y-70912353D01*
X113519227Y-70804180D01*
X113754259Y-70647137D01*
X113954137Y-70447259D01*
X114109500Y-70214741D01*
X114264863Y-70447259D01*
X114464741Y-70647137D01*
X114699773Y-70804180D01*
X114960926Y-70912353D01*
X115238165Y-70967500D01*
X115520835Y-70967500D01*
X115798074Y-70912353D01*
X116059227Y-70804180D01*
X116294259Y-70647137D01*
X116494137Y-70447259D01*
X116649500Y-70214741D01*
X116804863Y-70447259D01*
X117004741Y-70647137D01*
X117239773Y-70804180D01*
X117500926Y-70912353D01*
X117778165Y-70967500D01*
X118060835Y-70967500D01*
X118338074Y-70912353D01*
X118599227Y-70804180D01*
X118834259Y-70647137D01*
X119034137Y-70447259D01*
X119189500Y-70214741D01*
X119344863Y-70447259D01*
X119544741Y-70647137D01*
X119779773Y-70804180D01*
X120040926Y-70912353D01*
X120318165Y-70967500D01*
X120600835Y-70967500D01*
X120878074Y-70912353D01*
X121139227Y-70804180D01*
X121374259Y-70647137D01*
X121574137Y-70447259D01*
X121729500Y-70214741D01*
X121884863Y-70447259D01*
X122084741Y-70647137D01*
X122319773Y-70804180D01*
X122580926Y-70912353D01*
X122858165Y-70967500D01*
X123140835Y-70967500D01*
X123418074Y-70912353D01*
X123679227Y-70804180D01*
X123914259Y-70647137D01*
X124114137Y-70447259D01*
X124271180Y-70212227D01*
X124379353Y-69951074D01*
X124434500Y-69673835D01*
X124434500Y-69391165D01*
X124379353Y-69113926D01*
X124271180Y-68852773D01*
X124114137Y-68617741D01*
X123914259Y-68417863D01*
X123679227Y-68260820D01*
X123418074Y-68152647D01*
X123140835Y-68097500D01*
X122858165Y-68097500D01*
X122580926Y-68152647D01*
X122319773Y-68260820D01*
X122084741Y-68417863D01*
X121884863Y-68617741D01*
X121729500Y-68850259D01*
X121574137Y-68617741D01*
X121374259Y-68417863D01*
X121139227Y-68260820D01*
X120878074Y-68152647D01*
X120600835Y-68097500D01*
X120318165Y-68097500D01*
X120040926Y-68152647D01*
X119779773Y-68260820D01*
X119544741Y-68417863D01*
X119344863Y-68617741D01*
X119189500Y-68850259D01*
X119034137Y-68617741D01*
X118834259Y-68417863D01*
X118599227Y-68260820D01*
X118338074Y-68152647D01*
X118060835Y-68097500D01*
X117778165Y-68097500D01*
X117500926Y-68152647D01*
X117239773Y-68260820D01*
X117004741Y-68417863D01*
X116804863Y-68617741D01*
X116649500Y-68850259D01*
X116494137Y-68617741D01*
X116294259Y-68417863D01*
X116059227Y-68260820D01*
X115798074Y-68152647D01*
X115520835Y-68097500D01*
X115238165Y-68097500D01*
X114960926Y-68152647D01*
X114699773Y-68260820D01*
X114464741Y-68417863D01*
X114264863Y-68617741D01*
X114109500Y-68850259D01*
X113954137Y-68617741D01*
X113754259Y-68417863D01*
X113519227Y-68260820D01*
X113258074Y-68152647D01*
X112980835Y-68097500D01*
X112698165Y-68097500D01*
X112420926Y-68152647D01*
X112159773Y-68260820D01*
X111924741Y-68417863D01*
X111724863Y-68617741D01*
X111569500Y-68850259D01*
X111414137Y-68617741D01*
X111214259Y-68417863D01*
X110979227Y-68260820D01*
X110718074Y-68152647D01*
X110440835Y-68097500D01*
X110158165Y-68097500D01*
X109880926Y-68152647D01*
X109619773Y-68260820D01*
X109384741Y-68417863D01*
X109184863Y-68617741D01*
X109029500Y-68850259D01*
X108874137Y-68617741D01*
X108674259Y-68417863D01*
X108439227Y-68260820D01*
X108178074Y-68152647D01*
X107900835Y-68097500D01*
X107618165Y-68097500D01*
X107340926Y-68152647D01*
X107079773Y-68260820D01*
X106844741Y-68417863D01*
X106644863Y-68617741D01*
X106489500Y-68850259D01*
X106334137Y-68617741D01*
X106134259Y-68417863D01*
X105899227Y-68260820D01*
X105638074Y-68152647D01*
X105360835Y-68097500D01*
X105078165Y-68097500D01*
X104800926Y-68152647D01*
X104539773Y-68260820D01*
X104304741Y-68417863D01*
X104104863Y-68617741D01*
X103949500Y-68850259D01*
X103794137Y-68617741D01*
X103594259Y-68417863D01*
X103359227Y-68260820D01*
X103098074Y-68152647D01*
X102820835Y-68097500D01*
X102538165Y-68097500D01*
X102260926Y-68152647D01*
X101999773Y-68260820D01*
X101764741Y-68417863D01*
X101564863Y-68617741D01*
X101407820Y-68852773D01*
X101403433Y-68863365D01*
X101291885Y-68677369D01*
X101102914Y-68468981D01*
X100876920Y-68301463D01*
X100622587Y-68181254D01*
X100488539Y-68140596D01*
X100266500Y-68262585D01*
X100012500Y-68262585D01*
X99790461Y-68140596D01*
X99656413Y-68181254D01*
X99402080Y-68301463D01*
X99176086Y-68468981D01*
X98987115Y-68677369D01*
X98842430Y-68918619D01*
X98747591Y-69183460D01*
X86993628Y-69183460D01*
X87058715Y-68968899D01*
X87075500Y-68798478D01*
X87075500Y-68234521D01*
X87058715Y-68064100D01*
X86992385Y-67845440D01*
X86884671Y-67643921D01*
X86739712Y-67467288D01*
X86563078Y-67322329D01*
X86361559Y-67214615D01*
X86142899Y-67148285D01*
X85915500Y-67125888D01*
X85688100Y-67148285D01*
X85469440Y-67214615D01*
X85280499Y-67315606D01*
X85091559Y-67214615D01*
X84872899Y-67148285D01*
X84645500Y-67125888D01*
X84418100Y-67148285D01*
X84209402Y-67211593D01*
X84144680Y-67176998D01*
X84024982Y-67140688D01*
X83900500Y-67128428D01*
X82850500Y-67128428D01*
X82726018Y-67140688D01*
X82606320Y-67176998D01*
X82496006Y-67235963D01*
X82399315Y-67315315D01*
X82319963Y-67412006D01*
X82260998Y-67522320D01*
X82224688Y-67642018D01*
X82212428Y-67766500D01*
X79971500Y-67766500D01*
X79971500Y-62787165D01*
X100228500Y-62787165D01*
X100228500Y-63069835D01*
X100283647Y-63347074D01*
X100391820Y-63608227D01*
X100548863Y-63843259D01*
X100748741Y-64043137D01*
X100983773Y-64200180D01*
X101244926Y-64308353D01*
X101522165Y-64363500D01*
X101804835Y-64363500D01*
X102082074Y-64308353D01*
X102343227Y-64200180D01*
X102578259Y-64043137D01*
X102778137Y-63843259D01*
X102933500Y-63610741D01*
X103088863Y-63843259D01*
X103288741Y-64043137D01*
X103523773Y-64200180D01*
X103784926Y-64308353D01*
X104062165Y-64363500D01*
X104344835Y-64363500D01*
X104622074Y-64308353D01*
X104883227Y-64200180D01*
X105118259Y-64043137D01*
X105318137Y-63843259D01*
X105473500Y-63610741D01*
X105628863Y-63843259D01*
X105828741Y-64043137D01*
X106063773Y-64200180D01*
X106324926Y-64308353D01*
X106602165Y-64363500D01*
X106884835Y-64363500D01*
X107162074Y-64308353D01*
X107423227Y-64200180D01*
X107658259Y-64043137D01*
X107858137Y-63843259D01*
X108013500Y-63610741D01*
X108168863Y-63843259D01*
X108368741Y-64043137D01*
X108603773Y-64200180D01*
X108864926Y-64308353D01*
X109142165Y-64363500D01*
X109424835Y-64363500D01*
X109702074Y-64308353D01*
X109963227Y-64200180D01*
X110198259Y-64043137D01*
X110398137Y-63843259D01*
X110553500Y-63610741D01*
X110708863Y-63843259D01*
X110908741Y-64043137D01*
X111143773Y-64200180D01*
X111404926Y-64308353D01*
X111682165Y-64363500D01*
X111964835Y-64363500D01*
X112242074Y-64308353D01*
X112503227Y-64200180D01*
X112738259Y-64043137D01*
X112938137Y-63843259D01*
X113093500Y-63610741D01*
X113248863Y-63843259D01*
X113448741Y-64043137D01*
X113683773Y-64200180D01*
X113944926Y-64308353D01*
X114222165Y-64363500D01*
X114504835Y-64363500D01*
X114782074Y-64308353D01*
X115043227Y-64200180D01*
X115278259Y-64043137D01*
X115478137Y-63843259D01*
X115633500Y-63610741D01*
X115788863Y-63843259D01*
X115988741Y-64043137D01*
X116223773Y-64200180D01*
X116484926Y-64308353D01*
X116762165Y-64363500D01*
X117044835Y-64363500D01*
X117322074Y-64308353D01*
X117583227Y-64200180D01*
X117818259Y-64043137D01*
X118018137Y-63843259D01*
X118173500Y-63610741D01*
X118328863Y-63843259D01*
X118528741Y-64043137D01*
X118763773Y-64200180D01*
X119024926Y-64308353D01*
X119302165Y-64363500D01*
X119584835Y-64363500D01*
X119862074Y-64308353D01*
X120123227Y-64200180D01*
X120358259Y-64043137D01*
X120556857Y-63844539D01*
X120557688Y-63852982D01*
X120593998Y-63972680D01*
X120652963Y-64082994D01*
X120732315Y-64179685D01*
X120829006Y-64259037D01*
X120939320Y-64318002D01*
X121059018Y-64354312D01*
X121183500Y-64366572D01*
X122783500Y-64366572D01*
X122907982Y-64354312D01*
X123027680Y-64318002D01*
X123137994Y-64259037D01*
X123234685Y-64179685D01*
X123314037Y-64082994D01*
X123373002Y-63972680D01*
X123409312Y-63852982D01*
X123421572Y-63728500D01*
X123421572Y-62128500D01*
X123409312Y-62004018D01*
X123373002Y-61884320D01*
X123314037Y-61774006D01*
X123234685Y-61677315D01*
X123137994Y-61597963D01*
X123027680Y-61538998D01*
X122907982Y-61502688D01*
X122783500Y-61490428D01*
X121183500Y-61490428D01*
X121059018Y-61502688D01*
X120939320Y-61538998D01*
X120829006Y-61597963D01*
X120732315Y-61677315D01*
X120652963Y-61774006D01*
X120593998Y-61884320D01*
X120557688Y-62004018D01*
X120556857Y-62012461D01*
X120358259Y-61813863D01*
X120123227Y-61656820D01*
X119862074Y-61548647D01*
X119584835Y-61493500D01*
X119302165Y-61493500D01*
X119024926Y-61548647D01*
X118763773Y-61656820D01*
X118528741Y-61813863D01*
X118328863Y-62013741D01*
X118173500Y-62246259D01*
X118018137Y-62013741D01*
X117818259Y-61813863D01*
X117583227Y-61656820D01*
X117322074Y-61548647D01*
X117044835Y-61493500D01*
X116762165Y-61493500D01*
X116484926Y-61548647D01*
X116223773Y-61656820D01*
X115988741Y-61813863D01*
X115788863Y-62013741D01*
X115633500Y-62246259D01*
X115478137Y-62013741D01*
X115278259Y-61813863D01*
X115043227Y-61656820D01*
X114782074Y-61548647D01*
X114504835Y-61493500D01*
X114222165Y-61493500D01*
X113944926Y-61548647D01*
X113683773Y-61656820D01*
X113448741Y-61813863D01*
X113248863Y-62013741D01*
X113093500Y-62246259D01*
X112938137Y-62013741D01*
X112738259Y-61813863D01*
X112503227Y-61656820D01*
X112242074Y-61548647D01*
X111964835Y-61493500D01*
X111682165Y-61493500D01*
X111404926Y-61548647D01*
X111143773Y-61656820D01*
X110908741Y-61813863D01*
X110708863Y-62013741D01*
X110553500Y-62246259D01*
X110398137Y-62013741D01*
X110198259Y-61813863D01*
X109963227Y-61656820D01*
X109702074Y-61548647D01*
X109424835Y-61493500D01*
X109142165Y-61493500D01*
X108864926Y-61548647D01*
X108603773Y-61656820D01*
X108368741Y-61813863D01*
X108168863Y-62013741D01*
X108013500Y-62246259D01*
X107858137Y-62013741D01*
X107658259Y-61813863D01*
X107423227Y-61656820D01*
X107162074Y-61548647D01*
X106884835Y-61493500D01*
X106602165Y-61493500D01*
X106324926Y-61548647D01*
X106063773Y-61656820D01*
X105828741Y-61813863D01*
X105628863Y-62013741D01*
X105473500Y-62246259D01*
X105318137Y-62013741D01*
X105118259Y-61813863D01*
X104883227Y-61656820D01*
X104622074Y-61548647D01*
X104344835Y-61493500D01*
X104062165Y-61493500D01*
X103784926Y-61548647D01*
X103523773Y-61656820D01*
X103288741Y-61813863D01*
X103088863Y-62013741D01*
X102933500Y-62246259D01*
X102778137Y-62013741D01*
X102578259Y-61813863D01*
X102343227Y-61656820D01*
X102082074Y-61548647D01*
X101804835Y-61493500D01*
X101522165Y-61493500D01*
X101244926Y-61548647D01*
X100983773Y-61656820D01*
X100748741Y-61813863D01*
X100548863Y-62013741D01*
X100391820Y-62248773D01*
X100283647Y-62509926D01*
X100228500Y-62787165D01*
X79971500Y-62787165D01*
X79971500Y-56440500D01*
X87171428Y-56440500D01*
X87171428Y-58240500D01*
X87183688Y-58364982D01*
X87219998Y-58484680D01*
X87278963Y-58594994D01*
X87358315Y-58691685D01*
X87455006Y-58771037D01*
X87565320Y-58830002D01*
X87685018Y-58866312D01*
X87809500Y-58878572D01*
X89609500Y-58878572D01*
X89733982Y-58866312D01*
X89853680Y-58830002D01*
X89963994Y-58771037D01*
X90060685Y-58691685D01*
X90140037Y-58594994D01*
X90199002Y-58484680D01*
X90235312Y-58364982D01*
X90247572Y-58240500D01*
X90247572Y-56440500D01*
X93775428Y-56440500D01*
X93775428Y-58240500D01*
X93787688Y-58364982D01*
X93823998Y-58484680D01*
X93882963Y-58594994D01*
X93962315Y-58691685D01*
X94059006Y-58771037D01*
X94169320Y-58830002D01*
X94289018Y-58866312D01*
X94413500Y-58878572D01*
X96213500Y-58878572D01*
X96337982Y-58866312D01*
X96457680Y-58830002D01*
X96567994Y-58771037D01*
X96664685Y-58691685D01*
X96744037Y-58594994D01*
X96803002Y-58484680D01*
X96839312Y-58364982D01*
X96851572Y-58240500D01*
X96851572Y-56440500D01*
X100379428Y-56440500D01*
X100379428Y-58240500D01*
X100391688Y-58364982D01*
X100427998Y-58484680D01*
X100486963Y-58594994D01*
X100566315Y-58691685D01*
X100663006Y-58771037D01*
X100773320Y-58830002D01*
X100893018Y-58866312D01*
X101017500Y-58878572D01*
X102817500Y-58878572D01*
X102941982Y-58866312D01*
X103061680Y-58830002D01*
X103171994Y-58771037D01*
X103268685Y-58691685D01*
X103348037Y-58594994D01*
X103407002Y-58484680D01*
X103443312Y-58364982D01*
X103455572Y-58240500D01*
X103455572Y-56440500D01*
X106983428Y-56440500D01*
X106983428Y-58240500D01*
X106995688Y-58364982D01*
X107031998Y-58484680D01*
X107090963Y-58594994D01*
X107170315Y-58691685D01*
X107267006Y-58771037D01*
X107377320Y-58830002D01*
X107497018Y-58866312D01*
X107621500Y-58878572D01*
X109421500Y-58878572D01*
X109545982Y-58866312D01*
X109665680Y-58830002D01*
X109775994Y-58771037D01*
X109872685Y-58691685D01*
X109952037Y-58594994D01*
X110011002Y-58484680D01*
X110047312Y-58364982D01*
X110059572Y-58240500D01*
X110059572Y-56440500D01*
X113587428Y-56440500D01*
X113587428Y-58240500D01*
X113599688Y-58364982D01*
X113635998Y-58484680D01*
X113694963Y-58594994D01*
X113774315Y-58691685D01*
X113871006Y-58771037D01*
X113981320Y-58830002D01*
X114101018Y-58866312D01*
X114225500Y-58878572D01*
X116025500Y-58878572D01*
X116149982Y-58866312D01*
X116269680Y-58830002D01*
X116379994Y-58771037D01*
X116476685Y-58691685D01*
X116556037Y-58594994D01*
X116615002Y-58484680D01*
X116651312Y-58364982D01*
X116663572Y-58240500D01*
X116663572Y-56440500D01*
X120191428Y-56440500D01*
X120191428Y-58240500D01*
X120203688Y-58364982D01*
X120239998Y-58484680D01*
X120298963Y-58594994D01*
X120378315Y-58691685D01*
X120475006Y-58771037D01*
X120585320Y-58830002D01*
X120705018Y-58866312D01*
X120829500Y-58878572D01*
X122629500Y-58878572D01*
X122753982Y-58866312D01*
X122873680Y-58830002D01*
X122983994Y-58771037D01*
X123080685Y-58691685D01*
X123160037Y-58594994D01*
X123219002Y-58484680D01*
X123255312Y-58364982D01*
X123267572Y-58240500D01*
X123267572Y-56440500D01*
X126795428Y-56440500D01*
X126795428Y-58240500D01*
X126807688Y-58364982D01*
X126843998Y-58484680D01*
X126902963Y-58594994D01*
X126982315Y-58691685D01*
X127079006Y-58771037D01*
X127189320Y-58830002D01*
X127309018Y-58866312D01*
X127433500Y-58878572D01*
X129233500Y-58878572D01*
X129357982Y-58866312D01*
X129477680Y-58830002D01*
X129587994Y-58771037D01*
X129684685Y-58691685D01*
X129764037Y-58594994D01*
X129823002Y-58484680D01*
X129859312Y-58364982D01*
X129871572Y-58240500D01*
X129871572Y-56440500D01*
X133399428Y-56440500D01*
X133399428Y-58240500D01*
X133411688Y-58364982D01*
X133447998Y-58484680D01*
X133506963Y-58594994D01*
X133586315Y-58691685D01*
X133683006Y-58771037D01*
X133793320Y-58830002D01*
X133913018Y-58866312D01*
X134037500Y-58878572D01*
X135837500Y-58878572D01*
X135961982Y-58866312D01*
X136081680Y-58830002D01*
X136191994Y-58771037D01*
X136288685Y-58691685D01*
X136368037Y-58594994D01*
X136427002Y-58484680D01*
X136463312Y-58364982D01*
X136475572Y-58240500D01*
X136475572Y-56440500D01*
X136463312Y-56316018D01*
X136427002Y-56196320D01*
X136368037Y-56086006D01*
X136288685Y-55989315D01*
X136191994Y-55909963D01*
X136081680Y-55850998D01*
X136063373Y-55845444D01*
X136129812Y-55779005D01*
X136297799Y-55527595D01*
X136413511Y-55248243D01*
X136472500Y-54951684D01*
X136472500Y-54649316D01*
X136413511Y-54352757D01*
X136297799Y-54073405D01*
X136129812Y-53821995D01*
X135916005Y-53608188D01*
X135664595Y-53440201D01*
X135385243Y-53324489D01*
X135088684Y-53265500D01*
X134786316Y-53265500D01*
X134489757Y-53324489D01*
X134210405Y-53440201D01*
X133958995Y-53608188D01*
X133745188Y-53821995D01*
X133577201Y-54073405D01*
X133461489Y-54352757D01*
X133402500Y-54649316D01*
X133402500Y-54951684D01*
X133461489Y-55248243D01*
X133577201Y-55527595D01*
X133745188Y-55779005D01*
X133811627Y-55845444D01*
X133793320Y-55850998D01*
X133683006Y-55909963D01*
X133586315Y-55989315D01*
X133506963Y-56086006D01*
X133447998Y-56196320D01*
X133411688Y-56316018D01*
X133399428Y-56440500D01*
X129871572Y-56440500D01*
X129859312Y-56316018D01*
X129823002Y-56196320D01*
X129764037Y-56086006D01*
X129684685Y-55989315D01*
X129587994Y-55909963D01*
X129477680Y-55850998D01*
X129459373Y-55845444D01*
X129525812Y-55779005D01*
X129693799Y-55527595D01*
X129809511Y-55248243D01*
X129868500Y-54951684D01*
X129868500Y-54649316D01*
X129809511Y-54352757D01*
X129693799Y-54073405D01*
X129525812Y-53821995D01*
X129312005Y-53608188D01*
X129060595Y-53440201D01*
X128781243Y-53324489D01*
X128484684Y-53265500D01*
X128182316Y-53265500D01*
X127885757Y-53324489D01*
X127606405Y-53440201D01*
X127354995Y-53608188D01*
X127141188Y-53821995D01*
X126973201Y-54073405D01*
X126857489Y-54352757D01*
X126798500Y-54649316D01*
X126798500Y-54951684D01*
X126857489Y-55248243D01*
X126973201Y-55527595D01*
X127141188Y-55779005D01*
X127207627Y-55845444D01*
X127189320Y-55850998D01*
X127079006Y-55909963D01*
X126982315Y-55989315D01*
X126902963Y-56086006D01*
X126843998Y-56196320D01*
X126807688Y-56316018D01*
X126795428Y-56440500D01*
X123267572Y-56440500D01*
X123255312Y-56316018D01*
X123219002Y-56196320D01*
X123160037Y-56086006D01*
X123080685Y-55989315D01*
X122983994Y-55909963D01*
X122873680Y-55850998D01*
X122855373Y-55845444D01*
X122921812Y-55779005D01*
X123089799Y-55527595D01*
X123205511Y-55248243D01*
X123264500Y-54951684D01*
X123264500Y-54649316D01*
X123205511Y-54352757D01*
X123089799Y-54073405D01*
X122921812Y-53821995D01*
X122708005Y-53608188D01*
X122456595Y-53440201D01*
X122177243Y-53324489D01*
X121880684Y-53265500D01*
X121578316Y-53265500D01*
X121281757Y-53324489D01*
X121002405Y-53440201D01*
X120750995Y-53608188D01*
X120537188Y-53821995D01*
X120369201Y-54073405D01*
X120253489Y-54352757D01*
X120194500Y-54649316D01*
X120194500Y-54951684D01*
X120253489Y-55248243D01*
X120369201Y-55527595D01*
X120537188Y-55779005D01*
X120603627Y-55845444D01*
X120585320Y-55850998D01*
X120475006Y-55909963D01*
X120378315Y-55989315D01*
X120298963Y-56086006D01*
X120239998Y-56196320D01*
X120203688Y-56316018D01*
X120191428Y-56440500D01*
X116663572Y-56440500D01*
X116651312Y-56316018D01*
X116615002Y-56196320D01*
X116556037Y-56086006D01*
X116476685Y-55989315D01*
X116379994Y-55909963D01*
X116269680Y-55850998D01*
X116251373Y-55845444D01*
X116317812Y-55779005D01*
X116485799Y-55527595D01*
X116601511Y-55248243D01*
X116660500Y-54951684D01*
X116660500Y-54649316D01*
X116601511Y-54352757D01*
X116485799Y-54073405D01*
X116317812Y-53821995D01*
X116104005Y-53608188D01*
X115852595Y-53440201D01*
X115573243Y-53324489D01*
X115276684Y-53265500D01*
X114974316Y-53265500D01*
X114677757Y-53324489D01*
X114398405Y-53440201D01*
X114146995Y-53608188D01*
X113933188Y-53821995D01*
X113765201Y-54073405D01*
X113649489Y-54352757D01*
X113590500Y-54649316D01*
X113590500Y-54951684D01*
X113649489Y-55248243D01*
X113765201Y-55527595D01*
X113933188Y-55779005D01*
X113999627Y-55845444D01*
X113981320Y-55850998D01*
X113871006Y-55909963D01*
X113774315Y-55989315D01*
X113694963Y-56086006D01*
X113635998Y-56196320D01*
X113599688Y-56316018D01*
X113587428Y-56440500D01*
X110059572Y-56440500D01*
X110047312Y-56316018D01*
X110011002Y-56196320D01*
X109952037Y-56086006D01*
X109872685Y-55989315D01*
X109775994Y-55909963D01*
X109665680Y-55850998D01*
X109647373Y-55845444D01*
X109713812Y-55779005D01*
X109881799Y-55527595D01*
X109997511Y-55248243D01*
X110056500Y-54951684D01*
X110056500Y-54649316D01*
X109997511Y-54352757D01*
X109881799Y-54073405D01*
X109713812Y-53821995D01*
X109500005Y-53608188D01*
X109248595Y-53440201D01*
X108969243Y-53324489D01*
X108672684Y-53265500D01*
X108370316Y-53265500D01*
X108073757Y-53324489D01*
X107794405Y-53440201D01*
X107542995Y-53608188D01*
X107329188Y-53821995D01*
X107161201Y-54073405D01*
X107045489Y-54352757D01*
X106986500Y-54649316D01*
X106986500Y-54951684D01*
X107045489Y-55248243D01*
X107161201Y-55527595D01*
X107329188Y-55779005D01*
X107395627Y-55845444D01*
X107377320Y-55850998D01*
X107267006Y-55909963D01*
X107170315Y-55989315D01*
X107090963Y-56086006D01*
X107031998Y-56196320D01*
X106995688Y-56316018D01*
X106983428Y-56440500D01*
X103455572Y-56440500D01*
X103443312Y-56316018D01*
X103407002Y-56196320D01*
X103348037Y-56086006D01*
X103268685Y-55989315D01*
X103171994Y-55909963D01*
X103061680Y-55850998D01*
X103043373Y-55845444D01*
X103109812Y-55779005D01*
X103277799Y-55527595D01*
X103393511Y-55248243D01*
X103452500Y-54951684D01*
X103452500Y-54649316D01*
X103393511Y-54352757D01*
X103277799Y-54073405D01*
X103109812Y-53821995D01*
X102896005Y-53608188D01*
X102644595Y-53440201D01*
X102365243Y-53324489D01*
X102068684Y-53265500D01*
X101766316Y-53265500D01*
X101469757Y-53324489D01*
X101190405Y-53440201D01*
X100938995Y-53608188D01*
X100725188Y-53821995D01*
X100557201Y-54073405D01*
X100441489Y-54352757D01*
X100382500Y-54649316D01*
X100382500Y-54951684D01*
X100441489Y-55248243D01*
X100557201Y-55527595D01*
X100725188Y-55779005D01*
X100791627Y-55845444D01*
X100773320Y-55850998D01*
X100663006Y-55909963D01*
X100566315Y-55989315D01*
X100486963Y-56086006D01*
X100427998Y-56196320D01*
X100391688Y-56316018D01*
X100379428Y-56440500D01*
X96851572Y-56440500D01*
X96839312Y-56316018D01*
X96803002Y-56196320D01*
X96744037Y-56086006D01*
X96664685Y-55989315D01*
X96567994Y-55909963D01*
X96457680Y-55850998D01*
X96439373Y-55845444D01*
X96505812Y-55779005D01*
X96673799Y-55527595D01*
X96789511Y-55248243D01*
X96848500Y-54951684D01*
X96848500Y-54649316D01*
X96789511Y-54352757D01*
X96673799Y-54073405D01*
X96505812Y-53821995D01*
X96292005Y-53608188D01*
X96040595Y-53440201D01*
X95761243Y-53324489D01*
X95464684Y-53265500D01*
X95162316Y-53265500D01*
X94865757Y-53324489D01*
X94586405Y-53440201D01*
X94334995Y-53608188D01*
X94121188Y-53821995D01*
X93953201Y-54073405D01*
X93837489Y-54352757D01*
X93778500Y-54649316D01*
X93778500Y-54951684D01*
X93837489Y-55248243D01*
X93953201Y-55527595D01*
X94121188Y-55779005D01*
X94187627Y-55845444D01*
X94169320Y-55850998D01*
X94059006Y-55909963D01*
X93962315Y-55989315D01*
X93882963Y-56086006D01*
X93823998Y-56196320D01*
X93787688Y-56316018D01*
X93775428Y-56440500D01*
X90247572Y-56440500D01*
X90235312Y-56316018D01*
X90199002Y-56196320D01*
X90140037Y-56086006D01*
X90060685Y-55989315D01*
X89963994Y-55909963D01*
X89853680Y-55850998D01*
X89835373Y-55845444D01*
X89901812Y-55779005D01*
X90069799Y-55527595D01*
X90185511Y-55248243D01*
X90244500Y-54951684D01*
X90244500Y-54649316D01*
X90185511Y-54352757D01*
X90069799Y-54073405D01*
X89901812Y-53821995D01*
X89688005Y-53608188D01*
X89436595Y-53440201D01*
X89157243Y-53324489D01*
X88860684Y-53265500D01*
X88558316Y-53265500D01*
X88261757Y-53324489D01*
X87982405Y-53440201D01*
X87730995Y-53608188D01*
X87517188Y-53821995D01*
X87349201Y-54073405D01*
X87233489Y-54352757D01*
X87174500Y-54649316D01*
X87174500Y-54951684D01*
X87233489Y-55248243D01*
X87349201Y-55527595D01*
X87517188Y-55779005D01*
X87583627Y-55845444D01*
X87565320Y-55850998D01*
X87455006Y-55909963D01*
X87358315Y-55989315D01*
X87278963Y-56086006D01*
X87219998Y-56196320D01*
X87183688Y-56316018D01*
X87171428Y-56440500D01*
X79971500Y-56440500D01*
X79971500Y-44652500D01*
X82466428Y-44652500D01*
X82466428Y-46152500D01*
X82478688Y-46276982D01*
X82514998Y-46396680D01*
X82573963Y-46506994D01*
X82653315Y-46603685D01*
X82750006Y-46683037D01*
X82860320Y-46742002D01*
X82980018Y-46778312D01*
X83104500Y-46790572D01*
X84154500Y-46790572D01*
X84278982Y-46778312D01*
X84398680Y-46742002D01*
X84463402Y-46707407D01*
X84672101Y-46770715D01*
X84899500Y-46793112D01*
X85126900Y-46770715D01*
X85345560Y-46704385D01*
X85534501Y-46603394D01*
X85723441Y-46704385D01*
X85942101Y-46770715D01*
X86169500Y-46793112D01*
X86396900Y-46770715D01*
X86615560Y-46704385D01*
X86817079Y-46596671D01*
X86993712Y-46451712D01*
X87138671Y-46275079D01*
X87246385Y-46073559D01*
X87312715Y-45854899D01*
X87329500Y-45684478D01*
X87329500Y-45120521D01*
X87312715Y-44950100D01*
X87246385Y-44731440D01*
X87138671Y-44529921D01*
X86993712Y-44353288D01*
X86817078Y-44208329D01*
X86615559Y-44100615D01*
X86396899Y-44034285D01*
X86169500Y-44011888D01*
X85942100Y-44034285D01*
X85723440Y-44100615D01*
X85534500Y-44201606D01*
X85345559Y-44100615D01*
X85126899Y-44034285D01*
X84899500Y-44011888D01*
X84672100Y-44034285D01*
X84463402Y-44097593D01*
X84398680Y-44062998D01*
X84278982Y-44026688D01*
X84154500Y-44014428D01*
X83104500Y-44014428D01*
X82980018Y-44026688D01*
X82860320Y-44062998D01*
X82750006Y-44121963D01*
X82653315Y-44201315D01*
X82573963Y-44298006D01*
X82514998Y-44408320D01*
X82478688Y-44528018D01*
X82466428Y-44652500D01*
X79971500Y-44652500D01*
X79971500Y-40792500D01*
X92351428Y-40792500D01*
X92351428Y-42392500D01*
X92363688Y-42516982D01*
X92399998Y-42636680D01*
X92458963Y-42746994D01*
X92538315Y-42843685D01*
X92635006Y-42923037D01*
X92745320Y-42982002D01*
X92865018Y-43018312D01*
X92989500Y-43030572D01*
X94589500Y-43030572D01*
X94713982Y-43018312D01*
X94833680Y-42982002D01*
X94943994Y-42923037D01*
X95040685Y-42843685D01*
X95120037Y-42746994D01*
X95179002Y-42636680D01*
X95215312Y-42516982D01*
X95216143Y-42508539D01*
X95414741Y-42707137D01*
X95649773Y-42864180D01*
X95910926Y-42972353D01*
X96188165Y-43027500D01*
X96470835Y-43027500D01*
X96748074Y-42972353D01*
X97009227Y-42864180D01*
X97244259Y-42707137D01*
X97444137Y-42507259D01*
X97599500Y-42274741D01*
X97754863Y-42507259D01*
X97954741Y-42707137D01*
X98189773Y-42864180D01*
X98450926Y-42972353D01*
X98728165Y-43027500D01*
X99010835Y-43027500D01*
X99288074Y-42972353D01*
X99549227Y-42864180D01*
X99784259Y-42707137D01*
X99984137Y-42507259D01*
X100139500Y-42274741D01*
X100294863Y-42507259D01*
X100494741Y-42707137D01*
X100729773Y-42864180D01*
X100990926Y-42972353D01*
X101268165Y-43027500D01*
X101550835Y-43027500D01*
X101828074Y-42972353D01*
X102089227Y-42864180D01*
X102324259Y-42707137D01*
X102524137Y-42507259D01*
X102679500Y-42274741D01*
X102834863Y-42507259D01*
X103034741Y-42707137D01*
X103269773Y-42864180D01*
X103530926Y-42972353D01*
X103808165Y-43027500D01*
X104090835Y-43027500D01*
X104368074Y-42972353D01*
X104629227Y-42864180D01*
X104864259Y-42707137D01*
X105064137Y-42507259D01*
X105219500Y-42274741D01*
X105374863Y-42507259D01*
X105574741Y-42707137D01*
X105809773Y-42864180D01*
X106070926Y-42972353D01*
X106348165Y-43027500D01*
X106630835Y-43027500D01*
X106908074Y-42972353D01*
X107169227Y-42864180D01*
X107404259Y-42707137D01*
X107604137Y-42507259D01*
X107759500Y-42274741D01*
X107914863Y-42507259D01*
X108114741Y-42707137D01*
X108349773Y-42864180D01*
X108610926Y-42972353D01*
X108888165Y-43027500D01*
X109170835Y-43027500D01*
X109448074Y-42972353D01*
X109709227Y-42864180D01*
X109944259Y-42707137D01*
X110144137Y-42507259D01*
X110299500Y-42274741D01*
X110454863Y-42507259D01*
X110654741Y-42707137D01*
X110889773Y-42864180D01*
X111150926Y-42972353D01*
X111428165Y-43027500D01*
X111710835Y-43027500D01*
X111988074Y-42972353D01*
X112249227Y-42864180D01*
X112484259Y-42707137D01*
X112684137Y-42507259D01*
X112841180Y-42272227D01*
X112949353Y-42011074D01*
X113004500Y-41733835D01*
X113004500Y-41451165D01*
X112949353Y-41173926D01*
X112841180Y-40912773D01*
X112760817Y-40792500D01*
X116481428Y-40792500D01*
X116481428Y-42392500D01*
X116493688Y-42516982D01*
X116529998Y-42636680D01*
X116588963Y-42746994D01*
X116668315Y-42843685D01*
X116765006Y-42923037D01*
X116875320Y-42982002D01*
X116995018Y-43018312D01*
X117119500Y-43030572D01*
X118719500Y-43030572D01*
X118843982Y-43018312D01*
X118963680Y-42982002D01*
X119073994Y-42923037D01*
X119170685Y-42843685D01*
X119250037Y-42746994D01*
X119309002Y-42636680D01*
X119345312Y-42516982D01*
X119346143Y-42508539D01*
X119544741Y-42707137D01*
X119779773Y-42864180D01*
X120040926Y-42972353D01*
X120318165Y-43027500D01*
X120600835Y-43027500D01*
X120878074Y-42972353D01*
X121139227Y-42864180D01*
X121374259Y-42707137D01*
X121574137Y-42507259D01*
X121729500Y-42274741D01*
X121884863Y-42507259D01*
X122084741Y-42707137D01*
X122319773Y-42864180D01*
X122580926Y-42972353D01*
X122858165Y-43027500D01*
X123140835Y-43027500D01*
X123418074Y-42972353D01*
X123679227Y-42864180D01*
X123914259Y-42707137D01*
X124114137Y-42507259D01*
X124269500Y-42274741D01*
X124424863Y-42507259D01*
X124624741Y-42707137D01*
X124859773Y-42864180D01*
X125120926Y-42972353D01*
X125398165Y-43027500D01*
X125680835Y-43027500D01*
X125958074Y-42972353D01*
X126219227Y-42864180D01*
X126454259Y-42707137D01*
X126654137Y-42507259D01*
X126809500Y-42274741D01*
X126964863Y-42507259D01*
X127164741Y-42707137D01*
X127399773Y-42864180D01*
X127660926Y-42972353D01*
X127938165Y-43027500D01*
X128220835Y-43027500D01*
X128498074Y-42972353D01*
X128759227Y-42864180D01*
X128994259Y-42707137D01*
X129194137Y-42507259D01*
X129349500Y-42274741D01*
X129504863Y-42507259D01*
X129704741Y-42707137D01*
X129939773Y-42864180D01*
X130200926Y-42972353D01*
X130478165Y-43027500D01*
X130760835Y-43027500D01*
X131038074Y-42972353D01*
X131299227Y-42864180D01*
X131534259Y-42707137D01*
X131734137Y-42507259D01*
X131891180Y-42272227D01*
X131895567Y-42261635D01*
X132007115Y-42447631D01*
X132196086Y-42656019D01*
X132422080Y-42823537D01*
X132676413Y-42943746D01*
X132810461Y-42984404D01*
X133032500Y-42862415D01*
X133032500Y-41719500D01*
X133012500Y-41719500D01*
X133012500Y-41465500D01*
X133032500Y-41465500D01*
X133032500Y-40322585D01*
X133286500Y-40322585D01*
X133286500Y-41465500D01*
X133306500Y-41465500D01*
X133306500Y-41719500D01*
X133286500Y-41719500D01*
X133286500Y-42862415D01*
X133508539Y-42984404D01*
X133642587Y-42943746D01*
X133896920Y-42823537D01*
X134122914Y-42656019D01*
X134311885Y-42447631D01*
X134423433Y-42261635D01*
X134427820Y-42272227D01*
X134584863Y-42507259D01*
X134784741Y-42707137D01*
X135019773Y-42864180D01*
X135280926Y-42972353D01*
X135558165Y-43027500D01*
X135840835Y-43027500D01*
X136118074Y-42972353D01*
X136379227Y-42864180D01*
X136614259Y-42707137D01*
X136814137Y-42507259D01*
X136971180Y-42272227D01*
X137079353Y-42011074D01*
X137134500Y-41733835D01*
X137134500Y-41451165D01*
X137079353Y-41173926D01*
X136971180Y-40912773D01*
X136814137Y-40677741D01*
X136614259Y-40477863D01*
X136379227Y-40320820D01*
X136118074Y-40212647D01*
X135840835Y-40157500D01*
X135558165Y-40157500D01*
X135280926Y-40212647D01*
X135019773Y-40320820D01*
X134784741Y-40477863D01*
X134584863Y-40677741D01*
X134427820Y-40912773D01*
X134423433Y-40923365D01*
X134311885Y-40737369D01*
X134122914Y-40528981D01*
X133896920Y-40361463D01*
X133642587Y-40241254D01*
X133508539Y-40200596D01*
X133286500Y-40322585D01*
X133032500Y-40322585D01*
X132810461Y-40200596D01*
X132676413Y-40241254D01*
X132422080Y-40361463D01*
X132196086Y-40528981D01*
X132007115Y-40737369D01*
X131895567Y-40923365D01*
X131891180Y-40912773D01*
X131734137Y-40677741D01*
X131534259Y-40477863D01*
X131299227Y-40320820D01*
X131038074Y-40212647D01*
X130760835Y-40157500D01*
X130478165Y-40157500D01*
X130200926Y-40212647D01*
X129939773Y-40320820D01*
X129704741Y-40477863D01*
X129504863Y-40677741D01*
X129349500Y-40910259D01*
X129194137Y-40677741D01*
X128994259Y-40477863D01*
X128759227Y-40320820D01*
X128498074Y-40212647D01*
X128220835Y-40157500D01*
X127938165Y-40157500D01*
X127660926Y-40212647D01*
X127399773Y-40320820D01*
X127164741Y-40477863D01*
X126964863Y-40677741D01*
X126809500Y-40910259D01*
X126654137Y-40677741D01*
X126454259Y-40477863D01*
X126219227Y-40320820D01*
X125958074Y-40212647D01*
X125680835Y-40157500D01*
X125398165Y-40157500D01*
X125120926Y-40212647D01*
X124859773Y-40320820D01*
X124624741Y-40477863D01*
X124424863Y-40677741D01*
X124269500Y-40910259D01*
X124114137Y-40677741D01*
X123914259Y-40477863D01*
X123679227Y-40320820D01*
X123418074Y-40212647D01*
X123140835Y-40157500D01*
X122858165Y-40157500D01*
X122580926Y-40212647D01*
X122319773Y-40320820D01*
X122084741Y-40477863D01*
X121884863Y-40677741D01*
X121729500Y-40910259D01*
X121574137Y-40677741D01*
X121374259Y-40477863D01*
X121139227Y-40320820D01*
X120878074Y-40212647D01*
X120600835Y-40157500D01*
X120318165Y-40157500D01*
X120040926Y-40212647D01*
X119779773Y-40320820D01*
X119544741Y-40477863D01*
X119346143Y-40676461D01*
X119345312Y-40668018D01*
X119309002Y-40548320D01*
X119250037Y-40438006D01*
X119170685Y-40341315D01*
X119073994Y-40261963D01*
X118963680Y-40202998D01*
X118843982Y-40166688D01*
X118719500Y-40154428D01*
X117119500Y-40154428D01*
X116995018Y-40166688D01*
X116875320Y-40202998D01*
X116765006Y-40261963D01*
X116668315Y-40341315D01*
X116588963Y-40438006D01*
X116529998Y-40548320D01*
X116493688Y-40668018D01*
X116481428Y-40792500D01*
X112760817Y-40792500D01*
X112684137Y-40677741D01*
X112484259Y-40477863D01*
X112249227Y-40320820D01*
X111988074Y-40212647D01*
X111710835Y-40157500D01*
X111428165Y-40157500D01*
X111150926Y-40212647D01*
X110889773Y-40320820D01*
X110654741Y-40477863D01*
X110454863Y-40677741D01*
X110299500Y-40910259D01*
X110144137Y-40677741D01*
X109944259Y-40477863D01*
X109709227Y-40320820D01*
X109448074Y-40212647D01*
X109170835Y-40157500D01*
X108888165Y-40157500D01*
X108610926Y-40212647D01*
X108349773Y-40320820D01*
X108114741Y-40477863D01*
X107914863Y-40677741D01*
X107759500Y-40910259D01*
X107604137Y-40677741D01*
X107404259Y-40477863D01*
X107169227Y-40320820D01*
X106908074Y-40212647D01*
X106630835Y-40157500D01*
X106348165Y-40157500D01*
X106070926Y-40212647D01*
X105809773Y-40320820D01*
X105574741Y-40477863D01*
X105374863Y-40677741D01*
X105219500Y-40910259D01*
X105064137Y-40677741D01*
X104864259Y-40477863D01*
X104629227Y-40320820D01*
X104368074Y-40212647D01*
X104090835Y-40157500D01*
X103808165Y-40157500D01*
X103530926Y-40212647D01*
X103269773Y-40320820D01*
X103034741Y-40477863D01*
X102834863Y-40677741D01*
X102679500Y-40910259D01*
X102524137Y-40677741D01*
X102324259Y-40477863D01*
X102089227Y-40320820D01*
X101828074Y-40212647D01*
X101550835Y-40157500D01*
X101268165Y-40157500D01*
X100990926Y-40212647D01*
X100729773Y-40320820D01*
X100494741Y-40477863D01*
X100294863Y-40677741D01*
X100139500Y-40910259D01*
X99984137Y-40677741D01*
X99784259Y-40477863D01*
X99549227Y-40320820D01*
X99288074Y-40212647D01*
X99010835Y-40157500D01*
X98728165Y-40157500D01*
X98450926Y-40212647D01*
X98189773Y-40320820D01*
X97954741Y-40477863D01*
X97754863Y-40677741D01*
X97599500Y-40910259D01*
X97444137Y-40677741D01*
X97244259Y-40477863D01*
X97009227Y-40320820D01*
X96748074Y-40212647D01*
X96470835Y-40157500D01*
X96188165Y-40157500D01*
X95910926Y-40212647D01*
X95649773Y-40320820D01*
X95414741Y-40477863D01*
X95216143Y-40676461D01*
X95215312Y-40668018D01*
X95179002Y-40548320D01*
X95120037Y-40438006D01*
X95040685Y-40341315D01*
X94943994Y-40261963D01*
X94833680Y-40202998D01*
X94713982Y-40166688D01*
X94589500Y-40154428D01*
X92989500Y-40154428D01*
X92865018Y-40166688D01*
X92745320Y-40202998D01*
X92635006Y-40261963D01*
X92538315Y-40341315D01*
X92458963Y-40438006D01*
X92399998Y-40548320D01*
X92363688Y-40668018D01*
X92351428Y-40792500D01*
X79971500Y-40792500D01*
X79971500Y-36016500D01*
X82466428Y-36016500D01*
X82466428Y-37516500D01*
X82478688Y-37640982D01*
X82514998Y-37760680D01*
X82573963Y-37870994D01*
X82653315Y-37967685D01*
X82750006Y-38047037D01*
X82860320Y-38106002D01*
X82980018Y-38142312D01*
X83104500Y-38154572D01*
X84154500Y-38154572D01*
X84278982Y-38142312D01*
X84398680Y-38106002D01*
X84463402Y-38071407D01*
X84672101Y-38134715D01*
X84899500Y-38157112D01*
X85126900Y-38134715D01*
X85345560Y-38068385D01*
X85534501Y-37967394D01*
X85723441Y-38068385D01*
X85942101Y-38134715D01*
X86169500Y-38157112D01*
X86396900Y-38134715D01*
X86615560Y-38068385D01*
X86817079Y-37960671D01*
X86993712Y-37815712D01*
X87138671Y-37639079D01*
X87246385Y-37437559D01*
X87312715Y-37218899D01*
X87329500Y-37048478D01*
X87329500Y-36484521D01*
X87312715Y-36314100D01*
X87246385Y-36095440D01*
X87138671Y-35893921D01*
X86993712Y-35717288D01*
X86817078Y-35572329D01*
X86615559Y-35464615D01*
X86396899Y-35398285D01*
X86169500Y-35375888D01*
X85942100Y-35398285D01*
X85723440Y-35464615D01*
X85534499Y-35565606D01*
X85345559Y-35464615D01*
X85126899Y-35398285D01*
X84899500Y-35375888D01*
X84672100Y-35398285D01*
X84463402Y-35461593D01*
X84398680Y-35426998D01*
X84278982Y-35390688D01*
X84154500Y-35378428D01*
X83104500Y-35378428D01*
X82980018Y-35390688D01*
X82860320Y-35426998D01*
X82750006Y-35485963D01*
X82653315Y-35565315D01*
X82573963Y-35662006D01*
X82514998Y-35772320D01*
X82478688Y-35892018D01*
X82466428Y-36016500D01*
X79971500Y-36016500D01*
X79971500Y-34321540D01*
X92397591Y-34321540D01*
X92492430Y-34586381D01*
X92637115Y-34827631D01*
X92826086Y-35036019D01*
X93052080Y-35203537D01*
X93306413Y-35323746D01*
X93440461Y-35364404D01*
X93662500Y-35242415D01*
X93662500Y-34099500D01*
X92518876Y-34099500D01*
X92397591Y-34321540D01*
X79971500Y-34321540D01*
X79971500Y-33623460D01*
X92397591Y-33623460D01*
X92518876Y-33845500D01*
X93662500Y-33845500D01*
X93662500Y-32702585D01*
X93916500Y-32702585D01*
X93916500Y-33845500D01*
X93936500Y-33845500D01*
X93936500Y-34099500D01*
X93916500Y-34099500D01*
X93916500Y-35242415D01*
X94138539Y-35364404D01*
X94272587Y-35323746D01*
X94526920Y-35203537D01*
X94752914Y-35036019D01*
X94941885Y-34827631D01*
X95053433Y-34641635D01*
X95057820Y-34652227D01*
X95214863Y-34887259D01*
X95414741Y-35087137D01*
X95649773Y-35244180D01*
X95910926Y-35352353D01*
X96188165Y-35407500D01*
X96470835Y-35407500D01*
X96748074Y-35352353D01*
X97009227Y-35244180D01*
X97244259Y-35087137D01*
X97444137Y-34887259D01*
X97599500Y-34654741D01*
X97754863Y-34887259D01*
X97954741Y-35087137D01*
X98189773Y-35244180D01*
X98450926Y-35352353D01*
X98728165Y-35407500D01*
X99010835Y-35407500D01*
X99288074Y-35352353D01*
X99549227Y-35244180D01*
X99784259Y-35087137D01*
X99984137Y-34887259D01*
X100139500Y-34654741D01*
X100294863Y-34887259D01*
X100494741Y-35087137D01*
X100729773Y-35244180D01*
X100990926Y-35352353D01*
X101268165Y-35407500D01*
X101550835Y-35407500D01*
X101828074Y-35352353D01*
X102089227Y-35244180D01*
X102324259Y-35087137D01*
X102524137Y-34887259D01*
X102679500Y-34654741D01*
X102834863Y-34887259D01*
X103034741Y-35087137D01*
X103269773Y-35244180D01*
X103530926Y-35352353D01*
X103808165Y-35407500D01*
X104090835Y-35407500D01*
X104368074Y-35352353D01*
X104629227Y-35244180D01*
X104864259Y-35087137D01*
X105064137Y-34887259D01*
X105219500Y-34654741D01*
X105374863Y-34887259D01*
X105574741Y-35087137D01*
X105809773Y-35244180D01*
X106070926Y-35352353D01*
X106348165Y-35407500D01*
X106630835Y-35407500D01*
X106908074Y-35352353D01*
X107169227Y-35244180D01*
X107404259Y-35087137D01*
X107604137Y-34887259D01*
X107759500Y-34654741D01*
X107914863Y-34887259D01*
X108114741Y-35087137D01*
X108349773Y-35244180D01*
X108610926Y-35352353D01*
X108888165Y-35407500D01*
X109170835Y-35407500D01*
X109448074Y-35352353D01*
X109709227Y-35244180D01*
X109944259Y-35087137D01*
X110144137Y-34887259D01*
X110299500Y-34654741D01*
X110454863Y-34887259D01*
X110654741Y-35087137D01*
X110889773Y-35244180D01*
X111150926Y-35352353D01*
X111428165Y-35407500D01*
X111710835Y-35407500D01*
X111988074Y-35352353D01*
X112249227Y-35244180D01*
X112484259Y-35087137D01*
X112684137Y-34887259D01*
X112841180Y-34652227D01*
X112949353Y-34391074D01*
X112963184Y-34321540D01*
X116527591Y-34321540D01*
X116622430Y-34586381D01*
X116767115Y-34827631D01*
X116956086Y-35036019D01*
X117182080Y-35203537D01*
X117436413Y-35323746D01*
X117570461Y-35364404D01*
X117792500Y-35242415D01*
X117792500Y-34099500D01*
X116648876Y-34099500D01*
X116527591Y-34321540D01*
X112963184Y-34321540D01*
X113004500Y-34113835D01*
X113004500Y-33831165D01*
X112963185Y-33623460D01*
X116527591Y-33623460D01*
X116648876Y-33845500D01*
X117792500Y-33845500D01*
X117792500Y-32702585D01*
X118046500Y-32702585D01*
X118046500Y-33845500D01*
X118066500Y-33845500D01*
X118066500Y-34099500D01*
X118046500Y-34099500D01*
X118046500Y-35242415D01*
X118268539Y-35364404D01*
X118402587Y-35323746D01*
X118656920Y-35203537D01*
X118882914Y-35036019D01*
X119071885Y-34827631D01*
X119183433Y-34641635D01*
X119187820Y-34652227D01*
X119344863Y-34887259D01*
X119544741Y-35087137D01*
X119779773Y-35244180D01*
X120040926Y-35352353D01*
X120318165Y-35407500D01*
X120600835Y-35407500D01*
X120878074Y-35352353D01*
X121139227Y-35244180D01*
X121374259Y-35087137D01*
X121574137Y-34887259D01*
X121729500Y-34654741D01*
X121884863Y-34887259D01*
X122084741Y-35087137D01*
X122319773Y-35244180D01*
X122580926Y-35352353D01*
X122858165Y-35407500D01*
X123140835Y-35407500D01*
X123418074Y-35352353D01*
X123679227Y-35244180D01*
X123914259Y-35087137D01*
X124114137Y-34887259D01*
X124269500Y-34654741D01*
X124424863Y-34887259D01*
X124624741Y-35087137D01*
X124859773Y-35244180D01*
X125120926Y-35352353D01*
X125398165Y-35407500D01*
X125680835Y-35407500D01*
X125958074Y-35352353D01*
X126219227Y-35244180D01*
X126454259Y-35087137D01*
X126654137Y-34887259D01*
X126809500Y-34654741D01*
X126964863Y-34887259D01*
X127164741Y-35087137D01*
X127399773Y-35244180D01*
X127660926Y-35352353D01*
X127938165Y-35407500D01*
X128220835Y-35407500D01*
X128498074Y-35352353D01*
X128759227Y-35244180D01*
X128994259Y-35087137D01*
X129194137Y-34887259D01*
X129349500Y-34654741D01*
X129504863Y-34887259D01*
X129704741Y-35087137D01*
X129939773Y-35244180D01*
X130200926Y-35352353D01*
X130478165Y-35407500D01*
X130760835Y-35407500D01*
X131038074Y-35352353D01*
X131299227Y-35244180D01*
X131534259Y-35087137D01*
X131734137Y-34887259D01*
X131889500Y-34654741D01*
X132044863Y-34887259D01*
X132244741Y-35087137D01*
X132479773Y-35244180D01*
X132740926Y-35352353D01*
X133018165Y-35407500D01*
X133300835Y-35407500D01*
X133578074Y-35352353D01*
X133839227Y-35244180D01*
X134074259Y-35087137D01*
X134274137Y-34887259D01*
X134429500Y-34654741D01*
X134584863Y-34887259D01*
X134784741Y-35087137D01*
X135019773Y-35244180D01*
X135280926Y-35352353D01*
X135558165Y-35407500D01*
X135840835Y-35407500D01*
X136118074Y-35352353D01*
X136379227Y-35244180D01*
X136614259Y-35087137D01*
X136814137Y-34887259D01*
X136971180Y-34652227D01*
X137079353Y-34391074D01*
X137134500Y-34113835D01*
X137134500Y-33831165D01*
X137079353Y-33553926D01*
X136971180Y-33292773D01*
X136814137Y-33057741D01*
X136614259Y-32857863D01*
X136379227Y-32700820D01*
X136118074Y-32592647D01*
X135840835Y-32537500D01*
X135558165Y-32537500D01*
X135280926Y-32592647D01*
X135019773Y-32700820D01*
X134784741Y-32857863D01*
X134584863Y-33057741D01*
X134429500Y-33290259D01*
X134274137Y-33057741D01*
X134074259Y-32857863D01*
X133839227Y-32700820D01*
X133578074Y-32592647D01*
X133300835Y-32537500D01*
X133018165Y-32537500D01*
X132740926Y-32592647D01*
X132479773Y-32700820D01*
X132244741Y-32857863D01*
X132044863Y-33057741D01*
X131889500Y-33290259D01*
X131734137Y-33057741D01*
X131534259Y-32857863D01*
X131299227Y-32700820D01*
X131038074Y-32592647D01*
X130760835Y-32537500D01*
X130478165Y-32537500D01*
X130200926Y-32592647D01*
X129939773Y-32700820D01*
X129704741Y-32857863D01*
X129504863Y-33057741D01*
X129349500Y-33290259D01*
X129194137Y-33057741D01*
X128994259Y-32857863D01*
X128759227Y-32700820D01*
X128498074Y-32592647D01*
X128220835Y-32537500D01*
X127938165Y-32537500D01*
X127660926Y-32592647D01*
X127399773Y-32700820D01*
X127164741Y-32857863D01*
X126964863Y-33057741D01*
X126809500Y-33290259D01*
X126654137Y-33057741D01*
X126454259Y-32857863D01*
X126219227Y-32700820D01*
X125958074Y-32592647D01*
X125680835Y-32537500D01*
X125398165Y-32537500D01*
X125120926Y-32592647D01*
X124859773Y-32700820D01*
X124624741Y-32857863D01*
X124424863Y-33057741D01*
X124269500Y-33290259D01*
X124114137Y-33057741D01*
X123914259Y-32857863D01*
X123679227Y-32700820D01*
X123418074Y-32592647D01*
X123140835Y-32537500D01*
X122858165Y-32537500D01*
X122580926Y-32592647D01*
X122319773Y-32700820D01*
X122084741Y-32857863D01*
X121884863Y-33057741D01*
X121729500Y-33290259D01*
X121574137Y-33057741D01*
X121374259Y-32857863D01*
X121139227Y-32700820D01*
X120878074Y-32592647D01*
X120600835Y-32537500D01*
X120318165Y-32537500D01*
X120040926Y-32592647D01*
X119779773Y-32700820D01*
X119544741Y-32857863D01*
X119344863Y-33057741D01*
X119187820Y-33292773D01*
X119183433Y-33303365D01*
X119071885Y-33117369D01*
X118882914Y-32908981D01*
X118656920Y-32741463D01*
X118402587Y-32621254D01*
X118268539Y-32580596D01*
X118046500Y-32702585D01*
X117792500Y-32702585D01*
X117570461Y-32580596D01*
X117436413Y-32621254D01*
X117182080Y-32741463D01*
X116956086Y-32908981D01*
X116767115Y-33117369D01*
X116622430Y-33358619D01*
X116527591Y-33623460D01*
X112963185Y-33623460D01*
X112949353Y-33553926D01*
X112841180Y-33292773D01*
X112684137Y-33057741D01*
X112484259Y-32857863D01*
X112249227Y-32700820D01*
X111988074Y-32592647D01*
X111710835Y-32537500D01*
X111428165Y-32537500D01*
X111150926Y-32592647D01*
X110889773Y-32700820D01*
X110654741Y-32857863D01*
X110454863Y-33057741D01*
X110299500Y-33290259D01*
X110144137Y-33057741D01*
X109944259Y-32857863D01*
X109709227Y-32700820D01*
X109448074Y-32592647D01*
X109170835Y-32537500D01*
X108888165Y-32537500D01*
X108610926Y-32592647D01*
X108349773Y-32700820D01*
X108114741Y-32857863D01*
X107914863Y-33057741D01*
X107759500Y-33290259D01*
X107604137Y-33057741D01*
X107404259Y-32857863D01*
X107169227Y-32700820D01*
X106908074Y-32592647D01*
X106630835Y-32537500D01*
X106348165Y-32537500D01*
X106070926Y-32592647D01*
X105809773Y-32700820D01*
X105574741Y-32857863D01*
X105374863Y-33057741D01*
X105219500Y-33290259D01*
X105064137Y-33057741D01*
X104864259Y-32857863D01*
X104629227Y-32700820D01*
X104368074Y-32592647D01*
X104090835Y-32537500D01*
X103808165Y-32537500D01*
X103530926Y-32592647D01*
X103269773Y-32700820D01*
X103034741Y-32857863D01*
X102834863Y-33057741D01*
X102679500Y-33290259D01*
X102524137Y-33057741D01*
X102324259Y-32857863D01*
X102089227Y-32700820D01*
X101828074Y-32592647D01*
X101550835Y-32537500D01*
X101268165Y-32537500D01*
X100990926Y-32592647D01*
X100729773Y-32700820D01*
X100494741Y-32857863D01*
X100294863Y-33057741D01*
X100139500Y-33290259D01*
X99984137Y-33057741D01*
X99784259Y-32857863D01*
X99549227Y-32700820D01*
X99288074Y-32592647D01*
X99010835Y-32537500D01*
X98728165Y-32537500D01*
X98450926Y-32592647D01*
X98189773Y-32700820D01*
X97954741Y-32857863D01*
X97754863Y-33057741D01*
X97599500Y-33290259D01*
X97444137Y-33057741D01*
X97244259Y-32857863D01*
X97009227Y-32700820D01*
X96748074Y-32592647D01*
X96470835Y-32537500D01*
X96188165Y-32537500D01*
X95910926Y-32592647D01*
X95649773Y-32700820D01*
X95414741Y-32857863D01*
X95214863Y-33057741D01*
X95057820Y-33292773D01*
X95053433Y-33303365D01*
X94941885Y-33117369D01*
X94752914Y-32908981D01*
X94526920Y-32741463D01*
X94272587Y-32621254D01*
X94138539Y-32580596D01*
X93916500Y-32702585D01*
X93662500Y-32702585D01*
X93440461Y-32580596D01*
X93306413Y-32621254D01*
X93052080Y-32741463D01*
X92826086Y-32908981D01*
X92637115Y-33117369D01*
X92492430Y-33358619D01*
X92397591Y-33623460D01*
X79971500Y-33623460D01*
X79971500Y-31609157D01*
X80044011Y-31717677D01*
X80550323Y-32223989D01*
X81145682Y-32621795D01*
X81807210Y-32895809D01*
X82509484Y-33035500D01*
X83225516Y-33035500D01*
X83927790Y-32895809D01*
X84589318Y-32621795D01*
X85184677Y-32223989D01*
X85690989Y-31717677D01*
X86088795Y-31122318D01*
X86362809Y-30460790D01*
X86502500Y-29758516D01*
X86502500Y-29042484D01*
X86362809Y-28340210D01*
X86088795Y-27678682D01*
X85690989Y-27083323D01*
X85184677Y-26577011D01*
X85076157Y-26504500D01*
X144412843Y-26504500D01*
X144304323Y-26577011D01*
G37*
%TD.AperFunction*%
%TD*%
M02*
