M48
; DRILL file {KiCad (6.0.0-0)} date Friday, August 12, 2022 at 09:14:53 AM
; FORMAT={-:-/ absolute / inch / decimal}
; #@! TF.CreationDate,2022-08-12T09:14:53-04:00
; #@! TF.GenerationSoftware,Kicad,Pcbnew,(6.0.0-0)
; #@! TF.FileFunction,Plated,1,2,PTH
FMAT,2
INCH
; #@! TA.AperFunction,Plated,PTH,ComponentDrill
T1C0.0394
%
G90
G05
T1
X4.0Y-3.33
X4.0Y-3.43
X4.0Y-3.53
X4.0Y-3.63
X4.0Y-3.73
X4.0Y-3.83
X4.0Y-3.93
X4.0Y-4.03
X4.171Y-2.531
X4.171Y-2.631
X4.171Y-2.731
X4.171Y-2.831
X4.171Y-2.931
X4.171Y-3.031
X4.171Y-3.131
X4.171Y-3.3306
X4.171Y-3.4306
X4.171Y-3.5306
X4.171Y-3.6306
X4.171Y-3.7306
X4.171Y-3.8306
X4.171Y-3.9306
X4.171Y-4.0306
X6.97Y-2.82
X6.97Y-2.92
X6.97Y-3.02
X6.97Y-3.12
X6.97Y-3.22
X6.97Y-3.32
X6.97Y-3.42
X6.97Y-3.52
X6.97Y-3.62
X6.97Y-3.72
X6.97Y-3.82
X6.97Y-3.92
X6.97Y-4.02
X7.2378Y-2.4104
X7.2378Y-2.5104
X7.2378Y-2.6104
X7.2378Y-2.7104
X7.2378Y-2.8104
X7.2378Y-2.9104
X7.2378Y-3.0104
X7.2378Y-3.1104
X7.2378Y-3.2104
X7.2378Y-3.3104
X7.2378Y-3.4104
X7.2378Y-3.5104
X7.2378Y-3.6104
X7.2378Y-3.7104
X7.2378Y-3.8104
X7.2378Y-3.9104
X7.2378Y-4.0104
X7.2378Y-4.1104
X7.2378Y-4.2104
X7.2378Y-4.3104
T0
M30
