%TF.GenerationSoftware,KiCad,Pcbnew,(6.0.0-0)*%
%TF.CreationDate,2022-08-12T09:14:49-04:00*%
%TF.ProjectId,Backplane-Instruction-Reg-2022,4261636b-706c-4616-9e65-2d496e737472,rev?*%
%TF.SameCoordinates,Original*%
%TF.FileFunction,Legend,Top*%
%TF.FilePolarity,Positive*%
%FSLAX46Y46*%
G04 Gerber Fmt 4.6, Leading zero omitted, Abs format (unit mm)*
G04 Created by KiCad (PCBNEW (6.0.0-0)) date 2022-08-12 09:14:49*
%MOMM*%
%LPD*%
G01*
G04 APERTURE LIST*
%ADD10C,0.100000*%
%ADD11C,0.120000*%
G04 APERTURE END LIST*
D10*
X180084714Y-94638761D02*
X180227571Y-94686380D01*
X180465666Y-94686380D01*
X180560904Y-94638761D01*
X180608523Y-94591142D01*
X180656142Y-94495904D01*
X180656142Y-94400666D01*
X180608523Y-94305428D01*
X180560904Y-94257809D01*
X180465666Y-94210190D01*
X180275190Y-94162571D01*
X180179952Y-94114952D01*
X180132333Y-94067333D01*
X180084714Y-93972095D01*
X180084714Y-93876857D01*
X180132333Y-93781619D01*
X180179952Y-93734000D01*
X180275190Y-93686380D01*
X180513285Y-93686380D01*
X180656142Y-93734000D01*
X181513285Y-94019714D02*
X181513285Y-94686380D01*
X181275190Y-93638761D02*
X181037095Y-94353047D01*
X181656142Y-94353047D01*
X179084714Y-70544000D02*
X180084714Y-70544000D01*
X179894238Y-71826380D02*
X179560904Y-71350190D01*
X179322809Y-71826380D02*
X179322809Y-70826380D01*
X179703761Y-70826380D01*
X179799000Y-70874000D01*
X179846619Y-70921619D01*
X179894238Y-71016857D01*
X179894238Y-71159714D01*
X179846619Y-71254952D01*
X179799000Y-71302571D01*
X179703761Y-71350190D01*
X179322809Y-71350190D01*
X180084714Y-70544000D02*
X181037095Y-70544000D01*
X180275190Y-71778761D02*
X180418047Y-71826380D01*
X180656142Y-71826380D01*
X180751380Y-71778761D01*
X180799000Y-71731142D01*
X180846619Y-71635904D01*
X180846619Y-71540666D01*
X180799000Y-71445428D01*
X180751380Y-71397809D01*
X180656142Y-71350190D01*
X180465666Y-71302571D01*
X180370428Y-71254952D01*
X180322809Y-71207333D01*
X180275190Y-71112095D01*
X180275190Y-71016857D01*
X180322809Y-70921619D01*
X180370428Y-70874000D01*
X180465666Y-70826380D01*
X180703761Y-70826380D01*
X180846619Y-70874000D01*
X181037095Y-70544000D02*
X181799000Y-70544000D01*
X181132333Y-70826380D02*
X181703761Y-70826380D01*
X181418047Y-71826380D02*
X181418047Y-70826380D01*
X109005619Y-97505337D02*
X109005619Y-97029146D01*
X108529428Y-96981527D01*
X108577047Y-97029146D01*
X108624666Y-97124384D01*
X108624666Y-97362480D01*
X108577047Y-97457718D01*
X108529428Y-97505337D01*
X108434190Y-97552956D01*
X108196095Y-97552956D01*
X108100857Y-97505337D01*
X108053238Y-97457718D01*
X108005619Y-97362480D01*
X108005619Y-97124384D01*
X108053238Y-97029146D01*
X108100857Y-96981527D01*
X108015000Y-68512242D02*
X108824523Y-68512242D01*
X108729285Y-69794622D02*
X108253095Y-69794622D01*
X108253095Y-68794622D01*
X108824523Y-68512242D02*
X109824523Y-68512242D01*
X109062619Y-69794622D02*
X109062619Y-68794622D01*
X109300714Y-68794622D01*
X109443571Y-68842242D01*
X109538809Y-68937480D01*
X109586428Y-69032718D01*
X109634047Y-69223194D01*
X109634047Y-69366051D01*
X109586428Y-69556527D01*
X109538809Y-69651765D01*
X109443571Y-69747003D01*
X109300714Y-69794622D01*
X109062619Y-69794622D01*
X109824523Y-68512242D02*
X110300714Y-68512242D01*
X110062619Y-69794622D02*
X110062619Y-68794622D01*
X110300714Y-68512242D02*
X111300714Y-68512242D01*
X111110238Y-69794622D02*
X110776904Y-69318432D01*
X110538809Y-69794622D02*
X110538809Y-68794622D01*
X110919761Y-68794622D01*
X111015000Y-68842242D01*
X111062619Y-68889861D01*
X111110238Y-68985099D01*
X111110238Y-69127956D01*
X111062619Y-69223194D01*
X111015000Y-69270813D01*
X110919761Y-69318432D01*
X110538809Y-69318432D01*
X108910380Y-89361527D02*
X108958000Y-89409146D01*
X109005619Y-89504384D01*
X109005619Y-89742480D01*
X108958000Y-89837718D01*
X108910380Y-89885337D01*
X108815142Y-89932956D01*
X108719904Y-89932956D01*
X108577047Y-89885337D01*
X108005619Y-89313908D01*
X108005619Y-89932956D01*
X108015000Y-73592242D02*
X109015000Y-73592242D01*
X108824523Y-74874622D02*
X108491190Y-74398432D01*
X108253095Y-74874622D02*
X108253095Y-73874622D01*
X108634047Y-73874622D01*
X108729285Y-73922242D01*
X108776904Y-73969861D01*
X108824523Y-74065099D01*
X108824523Y-74207956D01*
X108776904Y-74303194D01*
X108729285Y-74350813D01*
X108634047Y-74398432D01*
X108253095Y-74398432D01*
X109015000Y-73592242D02*
X109967380Y-73592242D01*
X109205476Y-74827003D02*
X109348333Y-74874622D01*
X109586428Y-74874622D01*
X109681666Y-74827003D01*
X109729285Y-74779384D01*
X109776904Y-74684146D01*
X109776904Y-74588908D01*
X109729285Y-74493670D01*
X109681666Y-74446051D01*
X109586428Y-74398432D01*
X109395952Y-74350813D01*
X109300714Y-74303194D01*
X109253095Y-74255575D01*
X109205476Y-74160337D01*
X109205476Y-74065099D01*
X109253095Y-73969861D01*
X109300714Y-73922242D01*
X109395952Y-73874622D01*
X109634047Y-73874622D01*
X109776904Y-73922242D01*
X109967380Y-73592242D02*
X110919761Y-73592242D01*
X110157857Y-74827003D02*
X110300714Y-74874622D01*
X110538809Y-74874622D01*
X110634047Y-74827003D01*
X110681666Y-74779384D01*
X110729285Y-74684146D01*
X110729285Y-74588908D01*
X110681666Y-74493670D01*
X110634047Y-74446051D01*
X110538809Y-74398432D01*
X110348333Y-74350813D01*
X110253095Y-74303194D01*
X110205476Y-74255575D01*
X110157857Y-74160337D01*
X110157857Y-74065099D01*
X110205476Y-73969861D01*
X110253095Y-73922242D01*
X110348333Y-73874622D01*
X110586428Y-73874622D01*
X110729285Y-73922242D01*
X107910380Y-84614861D02*
X107910380Y-84519622D01*
X107958000Y-84424384D01*
X108005619Y-84376765D01*
X108100857Y-84329146D01*
X108291333Y-84281527D01*
X108529428Y-84281527D01*
X108719904Y-84329146D01*
X108815142Y-84376765D01*
X108862761Y-84424384D01*
X108910380Y-84519622D01*
X108910380Y-84614861D01*
X108862761Y-84710099D01*
X108815142Y-84757718D01*
X108719904Y-84805337D01*
X108529428Y-84852956D01*
X108291333Y-84852956D01*
X108100857Y-84805337D01*
X108005619Y-84757718D01*
X107958000Y-84710099D01*
X107910380Y-84614861D01*
X174004523Y-87350380D02*
X174004523Y-86350380D01*
X175004523Y-87350380D02*
X174433095Y-87350380D01*
X174718809Y-87350380D02*
X174718809Y-86350380D01*
X174623571Y-86493238D01*
X174528333Y-86588476D01*
X174433095Y-86636095D01*
X173480714Y-102507761D02*
X173623571Y-102555380D01*
X173861666Y-102555380D01*
X173956904Y-102507761D01*
X174004523Y-102460142D01*
X174052142Y-102364904D01*
X174052142Y-102269666D01*
X174004523Y-102174428D01*
X173956904Y-102126809D01*
X173861666Y-102079190D01*
X173671190Y-102031571D01*
X173575952Y-101983952D01*
X173528333Y-101936333D01*
X173480714Y-101841095D01*
X173480714Y-101745857D01*
X173528333Y-101650619D01*
X173575952Y-101603000D01*
X173671190Y-101555380D01*
X173909285Y-101555380D01*
X174052142Y-101603000D01*
X174671190Y-101555380D02*
X174766428Y-101555380D01*
X174861666Y-101603000D01*
X174909285Y-101650619D01*
X174956904Y-101745857D01*
X175004523Y-101936333D01*
X175004523Y-102174428D01*
X174956904Y-102364904D01*
X174909285Y-102460142D01*
X174861666Y-102507761D01*
X174766428Y-102555380D01*
X174671190Y-102555380D01*
X174575952Y-102507761D01*
X174528333Y-102460142D01*
X174480714Y-102364904D01*
X174433095Y-102174428D01*
X174433095Y-101936333D01*
X174480714Y-101745857D01*
X174528333Y-101650619D01*
X174575952Y-101603000D01*
X174671190Y-101555380D01*
X108110238Y-78954622D02*
X108443571Y-79954622D01*
X108776904Y-78954622D01*
X109538809Y-79907003D02*
X109443571Y-79954622D01*
X109253095Y-79954622D01*
X109157857Y-79907003D01*
X109110238Y-79859384D01*
X109062619Y-79764146D01*
X109062619Y-79478432D01*
X109110238Y-79383194D01*
X109157857Y-79335575D01*
X109253095Y-79287956D01*
X109443571Y-79287956D01*
X109538809Y-79335575D01*
X110395952Y-79907003D02*
X110300714Y-79954622D01*
X110110238Y-79954622D01*
X110015000Y-79907003D01*
X109967380Y-79859384D01*
X109919761Y-79764146D01*
X109919761Y-79478432D01*
X109967380Y-79383194D01*
X110015000Y-79335575D01*
X110110238Y-79287956D01*
X110300714Y-79287956D01*
X110395952Y-79335575D01*
X174004523Y-82270380D02*
X174004523Y-81270380D01*
X174385476Y-81270380D02*
X175004523Y-81270380D01*
X174671190Y-81651333D01*
X174814047Y-81651333D01*
X174909285Y-81698952D01*
X174956904Y-81746571D01*
X175004523Y-81841809D01*
X175004523Y-82079904D01*
X174956904Y-82175142D01*
X174909285Y-82222761D01*
X174814047Y-82270380D01*
X174528333Y-82270380D01*
X174433095Y-82222761D01*
X174385476Y-82175142D01*
X174004523Y-74650380D02*
X174004523Y-73650380D01*
X174909285Y-73650380D02*
X174718809Y-73650380D01*
X174623571Y-73698000D01*
X174575952Y-73745619D01*
X174480714Y-73888476D01*
X174433095Y-74078952D01*
X174433095Y-74459904D01*
X174480714Y-74555142D01*
X174528333Y-74602761D01*
X174623571Y-74650380D01*
X174814047Y-74650380D01*
X174909285Y-74602761D01*
X174956904Y-74555142D01*
X175004523Y-74459904D01*
X175004523Y-74221809D01*
X174956904Y-74126571D01*
X174909285Y-74078952D01*
X174814047Y-74031333D01*
X174623571Y-74031333D01*
X174528333Y-74078952D01*
X174480714Y-74126571D01*
X174433095Y-74221809D01*
X108015000Y-63432242D02*
X109015000Y-63432242D01*
X108824523Y-64714622D02*
X108491190Y-64238432D01*
X108253095Y-64714622D02*
X108253095Y-63714622D01*
X108634047Y-63714622D01*
X108729285Y-63762242D01*
X108776904Y-63809861D01*
X108824523Y-63905099D01*
X108824523Y-64047956D01*
X108776904Y-64143194D01*
X108729285Y-64190813D01*
X108634047Y-64238432D01*
X108253095Y-64238432D01*
X109015000Y-63432242D02*
X109967380Y-63432242D01*
X109205476Y-64667003D02*
X109348333Y-64714622D01*
X109586428Y-64714622D01*
X109681666Y-64667003D01*
X109729285Y-64619384D01*
X109776904Y-64524146D01*
X109776904Y-64428908D01*
X109729285Y-64333670D01*
X109681666Y-64286051D01*
X109586428Y-64238432D01*
X109395952Y-64190813D01*
X109300714Y-64143194D01*
X109253095Y-64095575D01*
X109205476Y-64000337D01*
X109205476Y-63905099D01*
X109253095Y-63809861D01*
X109300714Y-63762242D01*
X109395952Y-63714622D01*
X109634047Y-63714622D01*
X109776904Y-63762242D01*
X109967380Y-63432242D02*
X110729285Y-63432242D01*
X110062619Y-63714622D02*
X110634047Y-63714622D01*
X110348333Y-64714622D02*
X110348333Y-63714622D01*
X174004523Y-89890380D02*
X174004523Y-88890380D01*
X174671190Y-88890380D02*
X174766428Y-88890380D01*
X174861666Y-88938000D01*
X174909285Y-88985619D01*
X174956904Y-89080857D01*
X175004523Y-89271333D01*
X175004523Y-89509428D01*
X174956904Y-89699904D01*
X174909285Y-89795142D01*
X174861666Y-89842761D01*
X174766428Y-89890380D01*
X174671190Y-89890380D01*
X174575952Y-89842761D01*
X174528333Y-89795142D01*
X174480714Y-89699904D01*
X174433095Y-89509428D01*
X174433095Y-89271333D01*
X174480714Y-89080857D01*
X174528333Y-88985619D01*
X174575952Y-88938000D01*
X174671190Y-88890380D01*
X108776904Y-76462242D02*
X108681666Y-76414622D01*
X108538809Y-76414622D01*
X108395952Y-76462242D01*
X108300714Y-76557480D01*
X108253095Y-76652718D01*
X108205476Y-76843194D01*
X108205476Y-76986051D01*
X108253095Y-77176527D01*
X108300714Y-77271765D01*
X108395952Y-77367003D01*
X108538809Y-77414622D01*
X108634047Y-77414622D01*
X108776904Y-77367003D01*
X108824523Y-77319384D01*
X108824523Y-76986051D01*
X108634047Y-76986051D01*
X109253095Y-76747956D02*
X109253095Y-77414622D01*
X109253095Y-76843194D02*
X109300714Y-76795575D01*
X109395952Y-76747956D01*
X109538809Y-76747956D01*
X109634047Y-76795575D01*
X109681666Y-76890813D01*
X109681666Y-77414622D01*
X110586428Y-77414622D02*
X110586428Y-76414622D01*
X110586428Y-77367003D02*
X110491190Y-77414622D01*
X110300714Y-77414622D01*
X110205476Y-77367003D01*
X110157857Y-77319384D01*
X110110238Y-77224146D01*
X110110238Y-76938432D01*
X110157857Y-76843194D01*
X110205476Y-76795575D01*
X110300714Y-76747956D01*
X110491190Y-76747956D01*
X110586428Y-76795575D01*
X108672285Y-94917718D02*
X108005619Y-94917718D01*
X109053238Y-94679622D02*
X108338952Y-94441527D01*
X108338952Y-95060575D01*
X108015000Y-71052242D02*
X108491190Y-71052242D01*
X108253095Y-72334622D02*
X108253095Y-71334622D01*
X108491190Y-71052242D02*
X109491190Y-71052242D01*
X109300714Y-72334622D02*
X108967380Y-71858432D01*
X108729285Y-72334622D02*
X108729285Y-71334622D01*
X109110238Y-71334622D01*
X109205476Y-71382242D01*
X109253095Y-71429861D01*
X109300714Y-71525099D01*
X109300714Y-71667956D01*
X109253095Y-71763194D01*
X109205476Y-71810813D01*
X109110238Y-71858432D01*
X108729285Y-71858432D01*
X109491190Y-71052242D02*
X110538809Y-71052242D01*
X110395952Y-72429861D02*
X110300714Y-72382242D01*
X110205476Y-72287003D01*
X110062619Y-72144146D01*
X109967380Y-72096527D01*
X109872142Y-72096527D01*
X109919761Y-72334622D02*
X109824523Y-72287003D01*
X109729285Y-72191765D01*
X109681666Y-72001289D01*
X109681666Y-71667956D01*
X109729285Y-71477480D01*
X109824523Y-71382242D01*
X109919761Y-71334622D01*
X110110238Y-71334622D01*
X110205476Y-71382242D01*
X110300714Y-71477480D01*
X110348333Y-71667956D01*
X110348333Y-72001289D01*
X110300714Y-72191765D01*
X110205476Y-72287003D01*
X110110238Y-72334622D01*
X109919761Y-72334622D01*
X173480714Y-92382761D02*
X173623571Y-92430380D01*
X173861666Y-92430380D01*
X173956904Y-92382761D01*
X174004523Y-92335142D01*
X174052142Y-92239904D01*
X174052142Y-92144666D01*
X174004523Y-92049428D01*
X173956904Y-92001809D01*
X173861666Y-91954190D01*
X173671190Y-91906571D01*
X173575952Y-91858952D01*
X173528333Y-91811333D01*
X173480714Y-91716095D01*
X173480714Y-91620857D01*
X173528333Y-91525619D01*
X173575952Y-91478000D01*
X173671190Y-91430380D01*
X173909285Y-91430380D01*
X174052142Y-91478000D01*
X174909285Y-91763714D02*
X174909285Y-92430380D01*
X174671190Y-91382761D02*
X174433095Y-92097047D01*
X175052142Y-92097047D01*
X174004523Y-84810380D02*
X174004523Y-83810380D01*
X174433095Y-83905619D02*
X174480714Y-83858000D01*
X174575952Y-83810380D01*
X174814047Y-83810380D01*
X174909285Y-83858000D01*
X174956904Y-83905619D01*
X175004523Y-84000857D01*
X175004523Y-84096095D01*
X174956904Y-84238952D01*
X174385476Y-84810380D01*
X175004523Y-84810380D01*
X109005619Y-99997718D02*
X109005619Y-99807242D01*
X108958000Y-99712003D01*
X108910380Y-99664384D01*
X108767523Y-99569146D01*
X108577047Y-99521527D01*
X108196095Y-99521527D01*
X108100857Y-99569146D01*
X108053238Y-99616765D01*
X108005619Y-99712003D01*
X108005619Y-99902480D01*
X108053238Y-99997718D01*
X108100857Y-100045337D01*
X108196095Y-100092956D01*
X108434190Y-100092956D01*
X108529428Y-100045337D01*
X108577047Y-99997718D01*
X108624666Y-99902480D01*
X108624666Y-99712003D01*
X108577047Y-99616765D01*
X108529428Y-99569146D01*
X108434190Y-99521527D01*
X174004523Y-72110380D02*
X174004523Y-71110380D01*
X174385476Y-71110380D02*
X175052142Y-71110380D01*
X174623571Y-72110380D01*
X108005619Y-87392956D02*
X108005619Y-86821527D01*
X108005619Y-87107242D02*
X109005619Y-87107242D01*
X108862761Y-87012003D01*
X108767523Y-86916765D01*
X108719904Y-86821527D01*
X173480714Y-94887761D02*
X173623571Y-94935380D01*
X173861666Y-94935380D01*
X173956904Y-94887761D01*
X174004523Y-94840142D01*
X174052142Y-94744904D01*
X174052142Y-94649666D01*
X174004523Y-94554428D01*
X173956904Y-94506809D01*
X173861666Y-94459190D01*
X173671190Y-94411571D01*
X173575952Y-94363952D01*
X173528333Y-94316333D01*
X173480714Y-94221095D01*
X173480714Y-94125857D01*
X173528333Y-94030619D01*
X173575952Y-93983000D01*
X173671190Y-93935380D01*
X173909285Y-93935380D01*
X174052142Y-93983000D01*
X174385476Y-93935380D02*
X175004523Y-93935380D01*
X174671190Y-94316333D01*
X174814047Y-94316333D01*
X174909285Y-94363952D01*
X174956904Y-94411571D01*
X175004523Y-94506809D01*
X175004523Y-94744904D01*
X174956904Y-94840142D01*
X174909285Y-94887761D01*
X174814047Y-94935380D01*
X174528333Y-94935380D01*
X174433095Y-94887761D01*
X174385476Y-94840142D01*
X174004523Y-77190380D02*
X174004523Y-76190380D01*
X174956904Y-76190380D02*
X174480714Y-76190380D01*
X174433095Y-76666571D01*
X174480714Y-76618952D01*
X174575952Y-76571333D01*
X174814047Y-76571333D01*
X174909285Y-76618952D01*
X174956904Y-76666571D01*
X175004523Y-76761809D01*
X175004523Y-76999904D01*
X174956904Y-77095142D01*
X174909285Y-77142761D01*
X174814047Y-77190380D01*
X174575952Y-77190380D01*
X174480714Y-77142761D01*
X174433095Y-77095142D01*
X109005619Y-102013908D02*
X109005619Y-102680575D01*
X108005619Y-102252003D01*
X109005619Y-91853908D02*
X109005619Y-92472956D01*
X108624666Y-92139622D01*
X108624666Y-92282480D01*
X108577047Y-92377718D01*
X108529428Y-92425337D01*
X108434190Y-92472956D01*
X108196095Y-92472956D01*
X108100857Y-92425337D01*
X108053238Y-92377718D01*
X108005619Y-92282480D01*
X108005619Y-91996765D01*
X108053238Y-91901527D01*
X108100857Y-91853908D01*
X173480714Y-97427761D02*
X173623571Y-97475380D01*
X173861666Y-97475380D01*
X173956904Y-97427761D01*
X174004523Y-97380142D01*
X174052142Y-97284904D01*
X174052142Y-97189666D01*
X174004523Y-97094428D01*
X173956904Y-97046809D01*
X173861666Y-96999190D01*
X173671190Y-96951571D01*
X173575952Y-96903952D01*
X173528333Y-96856333D01*
X173480714Y-96761095D01*
X173480714Y-96665857D01*
X173528333Y-96570619D01*
X173575952Y-96523000D01*
X173671190Y-96475380D01*
X173909285Y-96475380D01*
X174052142Y-96523000D01*
X174433095Y-96570619D02*
X174480714Y-96523000D01*
X174575952Y-96475380D01*
X174814047Y-96475380D01*
X174909285Y-96523000D01*
X174956904Y-96570619D01*
X175004523Y-96665857D01*
X175004523Y-96761095D01*
X174956904Y-96903952D01*
X174385476Y-97475380D01*
X175004523Y-97475380D01*
X174004523Y-79730380D02*
X174004523Y-78730380D01*
X174909285Y-79063714D02*
X174909285Y-79730380D01*
X174671190Y-78682761D02*
X174433095Y-79397047D01*
X175052142Y-79397047D01*
X108824523Y-67159384D02*
X108776904Y-67207003D01*
X108634047Y-67254622D01*
X108538809Y-67254622D01*
X108395952Y-67207003D01*
X108300714Y-67111765D01*
X108253095Y-67016527D01*
X108205476Y-66826051D01*
X108205476Y-66683194D01*
X108253095Y-66492718D01*
X108300714Y-66397480D01*
X108395952Y-66302242D01*
X108538809Y-66254622D01*
X108634047Y-66254622D01*
X108776904Y-66302242D01*
X108824523Y-66349861D01*
X109729285Y-67254622D02*
X109253095Y-67254622D01*
X109253095Y-66254622D01*
X110062619Y-67254622D02*
X110062619Y-66254622D01*
X110634047Y-67254622D02*
X110205476Y-66683194D01*
X110634047Y-66254622D02*
X110062619Y-66826051D01*
X173480714Y-99967761D02*
X173623571Y-100015380D01*
X173861666Y-100015380D01*
X173956904Y-99967761D01*
X174004523Y-99920142D01*
X174052142Y-99824904D01*
X174052142Y-99729666D01*
X174004523Y-99634428D01*
X173956904Y-99586809D01*
X173861666Y-99539190D01*
X173671190Y-99491571D01*
X173575952Y-99443952D01*
X173528333Y-99396333D01*
X173480714Y-99301095D01*
X173480714Y-99205857D01*
X173528333Y-99110619D01*
X173575952Y-99063000D01*
X173671190Y-99015380D01*
X173909285Y-99015380D01*
X174052142Y-99063000D01*
X175004523Y-100015380D02*
X174433095Y-100015380D01*
X174718809Y-100015380D02*
X174718809Y-99015380D01*
X174623571Y-99158238D01*
X174528333Y-99253476D01*
X174433095Y-99301095D01*
X180084714Y-102258761D02*
X180227571Y-102306380D01*
X180465666Y-102306380D01*
X180560904Y-102258761D01*
X180608523Y-102211142D01*
X180656142Y-102115904D01*
X180656142Y-102020666D01*
X180608523Y-101925428D01*
X180560904Y-101877809D01*
X180465666Y-101830190D01*
X180275190Y-101782571D01*
X180179952Y-101734952D01*
X180132333Y-101687333D01*
X180084714Y-101592095D01*
X180084714Y-101496857D01*
X180132333Y-101401619D01*
X180179952Y-101354000D01*
X180275190Y-101306380D01*
X180513285Y-101306380D01*
X180656142Y-101354000D01*
X181608523Y-102306380D02*
X181037095Y-102306380D01*
X181322809Y-102306380D02*
X181322809Y-101306380D01*
X181227571Y-101449238D01*
X181132333Y-101544476D01*
X181037095Y-101592095D01*
X180084714Y-104798761D02*
X180227571Y-104846380D01*
X180465666Y-104846380D01*
X180560904Y-104798761D01*
X180608523Y-104751142D01*
X180656142Y-104655904D01*
X180656142Y-104560666D01*
X180608523Y-104465428D01*
X180560904Y-104417809D01*
X180465666Y-104370190D01*
X180275190Y-104322571D01*
X180179952Y-104274952D01*
X180132333Y-104227333D01*
X180084714Y-104132095D01*
X180084714Y-104036857D01*
X180132333Y-103941619D01*
X180179952Y-103894000D01*
X180275190Y-103846380D01*
X180513285Y-103846380D01*
X180656142Y-103894000D01*
X181275190Y-103846380D02*
X181370428Y-103846380D01*
X181465666Y-103894000D01*
X181513285Y-103941619D01*
X181560904Y-104036857D01*
X181608523Y-104227333D01*
X181608523Y-104465428D01*
X181560904Y-104655904D01*
X181513285Y-104751142D01*
X181465666Y-104798761D01*
X181370428Y-104846380D01*
X181275190Y-104846380D01*
X181179952Y-104798761D01*
X181132333Y-104751142D01*
X181084714Y-104655904D01*
X181037095Y-104465428D01*
X181037095Y-104227333D01*
X181084714Y-104036857D01*
X181132333Y-103941619D01*
X181179952Y-103894000D01*
X181275190Y-103846380D01*
X180608523Y-81986380D02*
X180608523Y-80986380D01*
X181513285Y-81319714D02*
X181513285Y-81986380D01*
X181275190Y-80938761D02*
X181037095Y-81653047D01*
X181656142Y-81653047D01*
X180608523Y-79446380D02*
X180608523Y-78446380D01*
X181560904Y-78446380D02*
X181084714Y-78446380D01*
X181037095Y-78922571D01*
X181084714Y-78874952D01*
X181179952Y-78827333D01*
X181418047Y-78827333D01*
X181513285Y-78874952D01*
X181560904Y-78922571D01*
X181608523Y-79017809D01*
X181608523Y-79255904D01*
X181560904Y-79351142D01*
X181513285Y-79398761D01*
X181418047Y-79446380D01*
X181179952Y-79446380D01*
X181084714Y-79398761D01*
X181037095Y-79351142D01*
X179275190Y-62924000D02*
X179751380Y-62924000D01*
X179513285Y-64206380D02*
X179513285Y-63206380D01*
X179751380Y-62924000D02*
X180751380Y-62924000D01*
X180560904Y-64206380D02*
X180227571Y-63730190D01*
X179989476Y-64206380D02*
X179989476Y-63206380D01*
X180370428Y-63206380D01*
X180465666Y-63254000D01*
X180513285Y-63301619D01*
X180560904Y-63396857D01*
X180560904Y-63539714D01*
X180513285Y-63634952D01*
X180465666Y-63682571D01*
X180370428Y-63730190D01*
X179989476Y-63730190D01*
X180751380Y-62924000D02*
X181799000Y-62924000D01*
X181656142Y-64301619D02*
X181560904Y-64254000D01*
X181465666Y-64158761D01*
X181322809Y-64015904D01*
X181227571Y-63968285D01*
X181132333Y-63968285D01*
X181179952Y-64206380D02*
X181084714Y-64158761D01*
X180989476Y-64063523D01*
X180941857Y-63873047D01*
X180941857Y-63539714D01*
X180989476Y-63349238D01*
X181084714Y-63254000D01*
X181179952Y-63206380D01*
X181370428Y-63206380D01*
X181465666Y-63254000D01*
X181560904Y-63349238D01*
X181608523Y-63539714D01*
X181608523Y-63873047D01*
X181560904Y-64063523D01*
X181465666Y-64158761D01*
X181370428Y-64206380D01*
X181179952Y-64206380D01*
X180084714Y-99718761D02*
X180227571Y-99766380D01*
X180465666Y-99766380D01*
X180560904Y-99718761D01*
X180608523Y-99671142D01*
X180656142Y-99575904D01*
X180656142Y-99480666D01*
X180608523Y-99385428D01*
X180560904Y-99337809D01*
X180465666Y-99290190D01*
X180275190Y-99242571D01*
X180179952Y-99194952D01*
X180132333Y-99147333D01*
X180084714Y-99052095D01*
X180084714Y-98956857D01*
X180132333Y-98861619D01*
X180179952Y-98814000D01*
X180275190Y-98766380D01*
X180513285Y-98766380D01*
X180656142Y-98814000D01*
X181037095Y-98861619D02*
X181084714Y-98814000D01*
X181179952Y-98766380D01*
X181418047Y-98766380D01*
X181513285Y-98814000D01*
X181560904Y-98861619D01*
X181608523Y-98956857D01*
X181608523Y-99052095D01*
X181560904Y-99194952D01*
X180989476Y-99766380D01*
X181608523Y-99766380D01*
X178894238Y-60384000D02*
X179894238Y-60384000D01*
X179703761Y-61666380D02*
X179370428Y-61190190D01*
X179132333Y-61666380D02*
X179132333Y-60666380D01*
X179513285Y-60666380D01*
X179608523Y-60714000D01*
X179656142Y-60761619D01*
X179703761Y-60856857D01*
X179703761Y-60999714D01*
X179656142Y-61094952D01*
X179608523Y-61142571D01*
X179513285Y-61190190D01*
X179132333Y-61190190D01*
X179894238Y-60384000D02*
X180846619Y-60384000D01*
X180084714Y-61618761D02*
X180227571Y-61666380D01*
X180465666Y-61666380D01*
X180560904Y-61618761D01*
X180608523Y-61571142D01*
X180656142Y-61475904D01*
X180656142Y-61380666D01*
X180608523Y-61285428D01*
X180560904Y-61237809D01*
X180465666Y-61190190D01*
X180275190Y-61142571D01*
X180179952Y-61094952D01*
X180132333Y-61047333D01*
X180084714Y-60952095D01*
X180084714Y-60856857D01*
X180132333Y-60761619D01*
X180179952Y-60714000D01*
X180275190Y-60666380D01*
X180513285Y-60666380D01*
X180656142Y-60714000D01*
X180846619Y-60384000D02*
X181799000Y-60384000D01*
X181037095Y-61618761D02*
X181179952Y-61666380D01*
X181418047Y-61666380D01*
X181513285Y-61618761D01*
X181560904Y-61571142D01*
X181608523Y-61475904D01*
X181608523Y-61380666D01*
X181560904Y-61285428D01*
X181513285Y-61237809D01*
X181418047Y-61190190D01*
X181227571Y-61142571D01*
X181132333Y-61094952D01*
X181084714Y-61047333D01*
X181037095Y-60952095D01*
X181037095Y-60856857D01*
X181084714Y-60761619D01*
X181132333Y-60714000D01*
X181227571Y-60666380D01*
X181465666Y-60666380D01*
X181608523Y-60714000D01*
X180608523Y-74366380D02*
X180608523Y-73366380D01*
X180989476Y-73366380D02*
X181656142Y-73366380D01*
X181227571Y-74366380D01*
X180608523Y-76906380D02*
X180608523Y-75906380D01*
X181513285Y-75906380D02*
X181322809Y-75906380D01*
X181227571Y-75954000D01*
X181179952Y-76001619D01*
X181084714Y-76144476D01*
X181037095Y-76334952D01*
X181037095Y-76715904D01*
X181084714Y-76811142D01*
X181132333Y-76858761D01*
X181227571Y-76906380D01*
X181418047Y-76906380D01*
X181513285Y-76858761D01*
X181560904Y-76811142D01*
X181608523Y-76715904D01*
X181608523Y-76477809D01*
X181560904Y-76382571D01*
X181513285Y-76334952D01*
X181418047Y-76287333D01*
X181227571Y-76287333D01*
X181132333Y-76334952D01*
X181084714Y-76382571D01*
X181037095Y-76477809D01*
X133938476Y-84462452D02*
X133938476Y-81962452D01*
X134771809Y-83748166D01*
X135605142Y-81962452D01*
X135605142Y-84462452D01*
X136795619Y-84462452D02*
X136795619Y-82795785D01*
X136795619Y-81962452D02*
X136676571Y-82081500D01*
X136795619Y-82200547D01*
X136914666Y-82081500D01*
X136795619Y-81962452D01*
X136795619Y-82200547D01*
X139057523Y-84343404D02*
X138819428Y-84462452D01*
X138343238Y-84462452D01*
X138105142Y-84343404D01*
X137986095Y-84224357D01*
X137867047Y-83986261D01*
X137867047Y-83271976D01*
X137986095Y-83033880D01*
X138105142Y-82914833D01*
X138343238Y-82795785D01*
X138819428Y-82795785D01*
X139057523Y-82914833D01*
X140128952Y-84462452D02*
X140128952Y-82795785D01*
X140128952Y-83271976D02*
X140248000Y-83033880D01*
X140367047Y-82914833D01*
X140605142Y-82795785D01*
X140843238Y-82795785D01*
X142033714Y-84462452D02*
X141795619Y-84343404D01*
X141676571Y-84224357D01*
X141557523Y-83986261D01*
X141557523Y-83271976D01*
X141676571Y-83033880D01*
X141795619Y-82914833D01*
X142033714Y-82795785D01*
X142390857Y-82795785D01*
X142628952Y-82914833D01*
X142748000Y-83033880D01*
X142867047Y-83271976D01*
X142867047Y-83986261D01*
X142748000Y-84224357D01*
X142628952Y-84343404D01*
X142390857Y-84462452D01*
X142033714Y-84462452D01*
X145009904Y-84343404D02*
X144771809Y-84462452D01*
X144295619Y-84462452D01*
X144057523Y-84343404D01*
X143938476Y-84224357D01*
X143819428Y-83986261D01*
X143819428Y-83271976D01*
X143938476Y-83033880D01*
X144057523Y-82914833D01*
X144295619Y-82795785D01*
X144771809Y-82795785D01*
X145009904Y-82914833D01*
X146438476Y-84462452D02*
X146200380Y-84343404D01*
X146081333Y-84224357D01*
X145962285Y-83986261D01*
X145962285Y-83271976D01*
X146081333Y-83033880D01*
X146200380Y-82914833D01*
X146438476Y-82795785D01*
X146795619Y-82795785D01*
X147033714Y-82914833D01*
X147152761Y-83033880D01*
X147271809Y-83271976D01*
X147271809Y-83986261D01*
X147152761Y-84224357D01*
X147033714Y-84343404D01*
X146795619Y-84462452D01*
X146438476Y-84462452D01*
X149414666Y-84462452D02*
X149414666Y-81962452D01*
X149414666Y-84343404D02*
X149176571Y-84462452D01*
X148700380Y-84462452D01*
X148462285Y-84343404D01*
X148343238Y-84224357D01*
X148224190Y-83986261D01*
X148224190Y-83271976D01*
X148343238Y-83033880D01*
X148462285Y-82914833D01*
X148700380Y-82795785D01*
X149176571Y-82795785D01*
X149414666Y-82914833D01*
X151557523Y-84343404D02*
X151319428Y-84462452D01*
X150843238Y-84462452D01*
X150605142Y-84343404D01*
X150486095Y-84105309D01*
X150486095Y-83152928D01*
X150605142Y-82914833D01*
X150843238Y-82795785D01*
X151319428Y-82795785D01*
X151557523Y-82914833D01*
X151676571Y-83152928D01*
X151676571Y-83391023D01*
X150486095Y-83629119D01*
X125188476Y-88487452D02*
X125188476Y-85987452D01*
X126378952Y-86820785D02*
X126378952Y-88487452D01*
X126378952Y-87058880D02*
X126498000Y-86939833D01*
X126736095Y-86820785D01*
X127093238Y-86820785D01*
X127331333Y-86939833D01*
X127450380Y-87177928D01*
X127450380Y-88487452D01*
X128521809Y-88368404D02*
X128759904Y-88487452D01*
X129236095Y-88487452D01*
X129474190Y-88368404D01*
X129593238Y-88130309D01*
X129593238Y-88011261D01*
X129474190Y-87773166D01*
X129236095Y-87654119D01*
X128878952Y-87654119D01*
X128640857Y-87535071D01*
X128521809Y-87296976D01*
X128521809Y-87177928D01*
X128640857Y-86939833D01*
X128878952Y-86820785D01*
X129236095Y-86820785D01*
X129474190Y-86939833D01*
X130307523Y-86820785D02*
X131259904Y-86820785D01*
X130664666Y-85987452D02*
X130664666Y-88130309D01*
X130783714Y-88368404D01*
X131021809Y-88487452D01*
X131259904Y-88487452D01*
X132093238Y-88487452D02*
X132093238Y-86820785D01*
X132093238Y-87296976D02*
X132212285Y-87058880D01*
X132331333Y-86939833D01*
X132569428Y-86820785D01*
X132807523Y-86820785D01*
X134712285Y-86820785D02*
X134712285Y-88487452D01*
X133640857Y-86820785D02*
X133640857Y-88130309D01*
X133759904Y-88368404D01*
X133998000Y-88487452D01*
X134355142Y-88487452D01*
X134593238Y-88368404D01*
X134712285Y-88249357D01*
X136974190Y-88368404D02*
X136736095Y-88487452D01*
X136259904Y-88487452D01*
X136021809Y-88368404D01*
X135902761Y-88249357D01*
X135783714Y-88011261D01*
X135783714Y-87296976D01*
X135902761Y-87058880D01*
X136021809Y-86939833D01*
X136259904Y-86820785D01*
X136736095Y-86820785D01*
X136974190Y-86939833D01*
X137688476Y-86820785D02*
X138640857Y-86820785D01*
X138045619Y-85987452D02*
X138045619Y-88130309D01*
X138164666Y-88368404D01*
X138402761Y-88487452D01*
X138640857Y-88487452D01*
X139474190Y-88487452D02*
X139474190Y-86820785D01*
X139474190Y-85987452D02*
X139355142Y-86106500D01*
X139474190Y-86225547D01*
X139593238Y-86106500D01*
X139474190Y-85987452D01*
X139474190Y-86225547D01*
X141021809Y-88487452D02*
X140783714Y-88368404D01*
X140664666Y-88249357D01*
X140545619Y-88011261D01*
X140545619Y-87296976D01*
X140664666Y-87058880D01*
X140783714Y-86939833D01*
X141021809Y-86820785D01*
X141378952Y-86820785D01*
X141617047Y-86939833D01*
X141736095Y-87058880D01*
X141855142Y-87296976D01*
X141855142Y-88011261D01*
X141736095Y-88249357D01*
X141617047Y-88368404D01*
X141378952Y-88487452D01*
X141021809Y-88487452D01*
X142926571Y-86820785D02*
X142926571Y-88487452D01*
X142926571Y-87058880D02*
X143045619Y-86939833D01*
X143283714Y-86820785D01*
X143640857Y-86820785D01*
X143878952Y-86939833D01*
X143998000Y-87177928D01*
X143998000Y-88487452D01*
X146974190Y-87773166D02*
X148164666Y-87773166D01*
X146736095Y-88487452D02*
X147569428Y-85987452D01*
X148402761Y-88487452D01*
X150307523Y-88487452D02*
X150307523Y-85987452D01*
X150307523Y-88368404D02*
X150069428Y-88487452D01*
X149593238Y-88487452D01*
X149355142Y-88368404D01*
X149236095Y-88249357D01*
X149117047Y-88011261D01*
X149117047Y-87296976D01*
X149236095Y-87058880D01*
X149355142Y-86939833D01*
X149593238Y-86820785D01*
X150069428Y-86820785D01*
X150307523Y-86939833D01*
X152569428Y-88487452D02*
X152569428Y-85987452D01*
X152569428Y-88368404D02*
X152331333Y-88487452D01*
X151855142Y-88487452D01*
X151617047Y-88368404D01*
X151498000Y-88249357D01*
X151378952Y-88011261D01*
X151378952Y-87296976D01*
X151498000Y-87058880D01*
X151617047Y-86939833D01*
X151855142Y-86820785D01*
X152331333Y-86820785D01*
X152569428Y-86939833D01*
X153759904Y-88487452D02*
X153759904Y-86820785D01*
X153759904Y-87296976D02*
X153878952Y-87058880D01*
X153998000Y-86939833D01*
X154236095Y-86820785D01*
X154474190Y-86820785D01*
X156259904Y-88368404D02*
X156021809Y-88487452D01*
X155545619Y-88487452D01*
X155307523Y-88368404D01*
X155188476Y-88130309D01*
X155188476Y-87177928D01*
X155307523Y-86939833D01*
X155545619Y-86820785D01*
X156021809Y-86820785D01*
X156259904Y-86939833D01*
X156378952Y-87177928D01*
X156378952Y-87416023D01*
X155188476Y-87654119D01*
X157331333Y-88368404D02*
X157569428Y-88487452D01*
X158045619Y-88487452D01*
X158283714Y-88368404D01*
X158402761Y-88130309D01*
X158402761Y-88011261D01*
X158283714Y-87773166D01*
X158045619Y-87654119D01*
X157688476Y-87654119D01*
X157450380Y-87535071D01*
X157331333Y-87296976D01*
X157331333Y-87177928D01*
X157450380Y-86939833D01*
X157688476Y-86820785D01*
X158045619Y-86820785D01*
X158283714Y-86939833D01*
X159355142Y-88368404D02*
X159593238Y-88487452D01*
X160069428Y-88487452D01*
X160307523Y-88368404D01*
X160426571Y-88130309D01*
X160426571Y-88011261D01*
X160307523Y-87773166D01*
X160069428Y-87654119D01*
X159712285Y-87654119D01*
X159474190Y-87535071D01*
X159355142Y-87296976D01*
X159355142Y-87177928D01*
X159474190Y-86939833D01*
X159712285Y-86820785D01*
X160069428Y-86820785D01*
X160307523Y-86939833D01*
X101011285Y-81970571D02*
X101154142Y-82018190D01*
X101201761Y-82065809D01*
X101249380Y-82161047D01*
X101249380Y-82303904D01*
X101201761Y-82399142D01*
X101154142Y-82446761D01*
X101058904Y-82494380D01*
X100677952Y-82494380D01*
X100677952Y-81494380D01*
X101011285Y-81494380D01*
X101106523Y-81542000D01*
X101154142Y-81589619D01*
X101201761Y-81684857D01*
X101201761Y-81780095D01*
X101154142Y-81875333D01*
X101106523Y-81922952D01*
X101011285Y-81970571D01*
X100677952Y-81970571D01*
X102106523Y-81827714D02*
X102106523Y-82494380D01*
X101677952Y-81827714D02*
X101677952Y-82351523D01*
X101725571Y-82446761D01*
X101820809Y-82494380D01*
X101963666Y-82494380D01*
X102058904Y-82446761D01*
X102106523Y-82399142D01*
X102535095Y-82446761D02*
X102630333Y-82494380D01*
X102820809Y-82494380D01*
X102916047Y-82446761D01*
X102963666Y-82351523D01*
X102963666Y-82303904D01*
X102916047Y-82208666D01*
X102820809Y-82161047D01*
X102677952Y-82161047D01*
X102582714Y-82113428D01*
X102535095Y-82018190D01*
X102535095Y-81970571D01*
X102582714Y-81875333D01*
X102677952Y-81827714D01*
X102820809Y-81827714D01*
X102916047Y-81875333D01*
X180322809Y-65464000D02*
X180799000Y-65464000D01*
X180560904Y-66746380D02*
X180560904Y-65746380D01*
X180799000Y-65464000D02*
X181799000Y-65464000D01*
X181608523Y-66746380D02*
X181275190Y-66270190D01*
X181037095Y-66746380D02*
X181037095Y-65746380D01*
X181418047Y-65746380D01*
X181513285Y-65794000D01*
X181560904Y-65841619D01*
X181608523Y-65936857D01*
X181608523Y-66079714D01*
X181560904Y-66174952D01*
X181513285Y-66222571D01*
X181418047Y-66270190D01*
X181037095Y-66270190D01*
X179751380Y-106434000D02*
X179656142Y-106386380D01*
X179513285Y-106386380D01*
X179370428Y-106434000D01*
X179275190Y-106529238D01*
X179227571Y-106624476D01*
X179179952Y-106814952D01*
X179179952Y-106957809D01*
X179227571Y-107148285D01*
X179275190Y-107243523D01*
X179370428Y-107338761D01*
X179513285Y-107386380D01*
X179608523Y-107386380D01*
X179751380Y-107338761D01*
X179799000Y-107291142D01*
X179799000Y-106957809D01*
X179608523Y-106957809D01*
X180227571Y-106719714D02*
X180227571Y-107386380D01*
X180227571Y-106814952D02*
X180275190Y-106767333D01*
X180370428Y-106719714D01*
X180513285Y-106719714D01*
X180608523Y-106767333D01*
X180656142Y-106862571D01*
X180656142Y-107386380D01*
X181560904Y-107386380D02*
X181560904Y-106386380D01*
X181560904Y-107338761D02*
X181465666Y-107386380D01*
X181275190Y-107386380D01*
X181179952Y-107338761D01*
X181132333Y-107291142D01*
X181084714Y-107195904D01*
X181084714Y-106910190D01*
X181132333Y-106814952D01*
X181179952Y-106767333D01*
X181275190Y-106719714D01*
X181465666Y-106719714D01*
X181560904Y-106767333D01*
X180084714Y-97178761D02*
X180227571Y-97226380D01*
X180465666Y-97226380D01*
X180560904Y-97178761D01*
X180608523Y-97131142D01*
X180656142Y-97035904D01*
X180656142Y-96940666D01*
X180608523Y-96845428D01*
X180560904Y-96797809D01*
X180465666Y-96750190D01*
X180275190Y-96702571D01*
X180179952Y-96654952D01*
X180132333Y-96607333D01*
X180084714Y-96512095D01*
X180084714Y-96416857D01*
X180132333Y-96321619D01*
X180179952Y-96274000D01*
X180275190Y-96226380D01*
X180513285Y-96226380D01*
X180656142Y-96274000D01*
X180989476Y-96226380D02*
X181608523Y-96226380D01*
X181275190Y-96607333D01*
X181418047Y-96607333D01*
X181513285Y-96654952D01*
X181560904Y-96702571D01*
X181608523Y-96797809D01*
X181608523Y-97035904D01*
X181560904Y-97131142D01*
X181513285Y-97178761D01*
X181418047Y-97226380D01*
X181132333Y-97226380D01*
X181037095Y-97178761D01*
X180989476Y-97131142D01*
X180608523Y-89606380D02*
X180608523Y-88606380D01*
X181608523Y-89606380D02*
X181037095Y-89606380D01*
X181322809Y-89606380D02*
X181322809Y-88606380D01*
X181227571Y-88749238D01*
X181132333Y-88844476D01*
X181037095Y-88892095D01*
X180608523Y-84526380D02*
X180608523Y-83526380D01*
X180989476Y-83526380D02*
X181608523Y-83526380D01*
X181275190Y-83907333D01*
X181418047Y-83907333D01*
X181513285Y-83954952D01*
X181560904Y-84002571D01*
X181608523Y-84097809D01*
X181608523Y-84335904D01*
X181560904Y-84431142D01*
X181513285Y-84478761D01*
X181418047Y-84526380D01*
X181132333Y-84526380D01*
X181037095Y-84478761D01*
X180989476Y-84431142D01*
X180608523Y-92146380D02*
X180608523Y-91146380D01*
X181275190Y-91146380D02*
X181370428Y-91146380D01*
X181465666Y-91194000D01*
X181513285Y-91241619D01*
X181560904Y-91336857D01*
X181608523Y-91527333D01*
X181608523Y-91765428D01*
X181560904Y-91955904D01*
X181513285Y-92051142D01*
X181465666Y-92098761D01*
X181370428Y-92146380D01*
X181275190Y-92146380D01*
X181179952Y-92098761D01*
X181132333Y-92051142D01*
X181084714Y-91955904D01*
X181037095Y-91765428D01*
X181037095Y-91527333D01*
X181084714Y-91336857D01*
X181132333Y-91241619D01*
X181179952Y-91194000D01*
X181275190Y-91146380D01*
X180608523Y-87066380D02*
X180608523Y-86066380D01*
X181037095Y-86161619D02*
X181084714Y-86114000D01*
X181179952Y-86066380D01*
X181418047Y-86066380D01*
X181513285Y-86114000D01*
X181560904Y-86161619D01*
X181608523Y-86256857D01*
X181608523Y-86352095D01*
X181560904Y-86494952D01*
X180989476Y-87066380D01*
X181608523Y-87066380D01*
X179799000Y-69191142D02*
X179751380Y-69238761D01*
X179608523Y-69286380D01*
X179513285Y-69286380D01*
X179370428Y-69238761D01*
X179275190Y-69143523D01*
X179227571Y-69048285D01*
X179179952Y-68857809D01*
X179179952Y-68714952D01*
X179227571Y-68524476D01*
X179275190Y-68429238D01*
X179370428Y-68334000D01*
X179513285Y-68286380D01*
X179608523Y-68286380D01*
X179751380Y-68334000D01*
X179799000Y-68381619D01*
X180703761Y-69286380D02*
X180227571Y-69286380D01*
X180227571Y-68286380D01*
X181037095Y-69286380D02*
X181037095Y-68286380D01*
X181608523Y-69286380D02*
X181179952Y-68714952D01*
X181608523Y-68286380D02*
X181037095Y-68857809D01*
X179322809Y-108926380D02*
X179656142Y-109926380D01*
X179989476Y-108926380D01*
X180751380Y-109878761D02*
X180656142Y-109926380D01*
X180465666Y-109926380D01*
X180370428Y-109878761D01*
X180322809Y-109831142D01*
X180275190Y-109735904D01*
X180275190Y-109450190D01*
X180322809Y-109354952D01*
X180370428Y-109307333D01*
X180465666Y-109259714D01*
X180656142Y-109259714D01*
X180751380Y-109307333D01*
X181608523Y-109878761D02*
X181513285Y-109926380D01*
X181322809Y-109926380D01*
X181227571Y-109878761D01*
X181179952Y-109831142D01*
X181132333Y-109735904D01*
X181132333Y-109450190D01*
X181179952Y-109354952D01*
X181227571Y-109307333D01*
X181322809Y-109259714D01*
X181513285Y-109259714D01*
X181608523Y-109307333D01*
D11*
%TO.C,J4*%
X185279000Y-59894000D02*
X185279000Y-110814000D01*
X185279000Y-110814000D02*
X187939000Y-110814000D01*
X187939000Y-110814000D02*
X187939000Y-59894000D01*
X187939000Y-59894000D02*
X185279000Y-59894000D01*
X187939000Y-60844000D02*
X193939000Y-60844000D01*
X193939000Y-60844000D02*
X193939000Y-61604000D01*
X193939000Y-61604000D02*
X187939000Y-61604000D01*
X187939000Y-60904000D02*
X193939000Y-60904000D01*
X187939000Y-61024000D02*
X193939000Y-61024000D01*
X187939000Y-61144000D02*
X193939000Y-61144000D01*
X187939000Y-61264000D02*
X193939000Y-61264000D01*
X187939000Y-61384000D02*
X193939000Y-61384000D01*
X187939000Y-61504000D02*
X193939000Y-61504000D01*
X184949000Y-60844000D02*
X185279000Y-60844000D01*
X184949000Y-61604000D02*
X185279000Y-61604000D01*
X185279000Y-62494000D02*
X187939000Y-62494000D01*
X187939000Y-63384000D02*
X193939000Y-63384000D01*
X193939000Y-63384000D02*
X193939000Y-64144000D01*
X193939000Y-64144000D02*
X187939000Y-64144000D01*
X184881929Y-63384000D02*
X185279000Y-63384000D01*
X184881929Y-64144000D02*
X185279000Y-64144000D01*
X185279000Y-65034000D02*
X187939000Y-65034000D01*
X187939000Y-65924000D02*
X193939000Y-65924000D01*
X193939000Y-65924000D02*
X193939000Y-66684000D01*
X193939000Y-66684000D02*
X187939000Y-66684000D01*
X184881929Y-65924000D02*
X185279000Y-65924000D01*
X184881929Y-66684000D02*
X185279000Y-66684000D01*
X185279000Y-67574000D02*
X187939000Y-67574000D01*
X187939000Y-68464000D02*
X193939000Y-68464000D01*
X193939000Y-68464000D02*
X193939000Y-69224000D01*
X193939000Y-69224000D02*
X187939000Y-69224000D01*
X184881929Y-68464000D02*
X185279000Y-68464000D01*
X184881929Y-69224000D02*
X185279000Y-69224000D01*
X185279000Y-70114000D02*
X187939000Y-70114000D01*
X187939000Y-71004000D02*
X193939000Y-71004000D01*
X193939000Y-71004000D02*
X193939000Y-71764000D01*
X193939000Y-71764000D02*
X187939000Y-71764000D01*
X184881929Y-71004000D02*
X185279000Y-71004000D01*
X184881929Y-71764000D02*
X185279000Y-71764000D01*
X185279000Y-72654000D02*
X187939000Y-72654000D01*
X187939000Y-73544000D02*
X193939000Y-73544000D01*
X193939000Y-73544000D02*
X193939000Y-74304000D01*
X193939000Y-74304000D02*
X187939000Y-74304000D01*
X184881929Y-73544000D02*
X185279000Y-73544000D01*
X184881929Y-74304000D02*
X185279000Y-74304000D01*
X185279000Y-75194000D02*
X187939000Y-75194000D01*
X187939000Y-76084000D02*
X193939000Y-76084000D01*
X193939000Y-76084000D02*
X193939000Y-76844000D01*
X193939000Y-76844000D02*
X187939000Y-76844000D01*
X184881929Y-76084000D02*
X185279000Y-76084000D01*
X184881929Y-76844000D02*
X185279000Y-76844000D01*
X185279000Y-77734000D02*
X187939000Y-77734000D01*
X187939000Y-78624000D02*
X193939000Y-78624000D01*
X193939000Y-78624000D02*
X193939000Y-79384000D01*
X193939000Y-79384000D02*
X187939000Y-79384000D01*
X184881929Y-78624000D02*
X185279000Y-78624000D01*
X184881929Y-79384000D02*
X185279000Y-79384000D01*
X185279000Y-80274000D02*
X187939000Y-80274000D01*
X187939000Y-81164000D02*
X193939000Y-81164000D01*
X193939000Y-81164000D02*
X193939000Y-81924000D01*
X193939000Y-81924000D02*
X187939000Y-81924000D01*
X184881929Y-81164000D02*
X185279000Y-81164000D01*
X184881929Y-81924000D02*
X185279000Y-81924000D01*
X185279000Y-82814000D02*
X187939000Y-82814000D01*
X187939000Y-83704000D02*
X193939000Y-83704000D01*
X193939000Y-83704000D02*
X193939000Y-84464000D01*
X193939000Y-84464000D02*
X187939000Y-84464000D01*
X184881929Y-83704000D02*
X185279000Y-83704000D01*
X184881929Y-84464000D02*
X185279000Y-84464000D01*
X185279000Y-85354000D02*
X187939000Y-85354000D01*
X187939000Y-86244000D02*
X193939000Y-86244000D01*
X193939000Y-86244000D02*
X193939000Y-87004000D01*
X193939000Y-87004000D02*
X187939000Y-87004000D01*
X184881929Y-86244000D02*
X185279000Y-86244000D01*
X184881929Y-87004000D02*
X185279000Y-87004000D01*
X185279000Y-87894000D02*
X187939000Y-87894000D01*
X187939000Y-88784000D02*
X193939000Y-88784000D01*
X193939000Y-88784000D02*
X193939000Y-89544000D01*
X193939000Y-89544000D02*
X187939000Y-89544000D01*
X184881929Y-88784000D02*
X185279000Y-88784000D01*
X184881929Y-89544000D02*
X185279000Y-89544000D01*
X185279000Y-90434000D02*
X187939000Y-90434000D01*
X187939000Y-91324000D02*
X193939000Y-91324000D01*
X193939000Y-91324000D02*
X193939000Y-92084000D01*
X193939000Y-92084000D02*
X187939000Y-92084000D01*
X184881929Y-91324000D02*
X185279000Y-91324000D01*
X184881929Y-92084000D02*
X185279000Y-92084000D01*
X185279000Y-92974000D02*
X187939000Y-92974000D01*
X187939000Y-93864000D02*
X193939000Y-93864000D01*
X193939000Y-93864000D02*
X193939000Y-94624000D01*
X193939000Y-94624000D02*
X187939000Y-94624000D01*
X184881929Y-93864000D02*
X185279000Y-93864000D01*
X184881929Y-94624000D02*
X185279000Y-94624000D01*
X185279000Y-95514000D02*
X187939000Y-95514000D01*
X187939000Y-96404000D02*
X193939000Y-96404000D01*
X193939000Y-96404000D02*
X193939000Y-97164000D01*
X193939000Y-97164000D02*
X187939000Y-97164000D01*
X184881929Y-96404000D02*
X185279000Y-96404000D01*
X184881929Y-97164000D02*
X185279000Y-97164000D01*
X185279000Y-98054000D02*
X187939000Y-98054000D01*
X187939000Y-98944000D02*
X193939000Y-98944000D01*
X193939000Y-98944000D02*
X193939000Y-99704000D01*
X193939000Y-99704000D02*
X187939000Y-99704000D01*
X184881929Y-98944000D02*
X185279000Y-98944000D01*
X184881929Y-99704000D02*
X185279000Y-99704000D01*
X185279000Y-100594000D02*
X187939000Y-100594000D01*
X187939000Y-101484000D02*
X193939000Y-101484000D01*
X193939000Y-101484000D02*
X193939000Y-102244000D01*
X193939000Y-102244000D02*
X187939000Y-102244000D01*
X184881929Y-101484000D02*
X185279000Y-101484000D01*
X184881929Y-102244000D02*
X185279000Y-102244000D01*
X185279000Y-103134000D02*
X187939000Y-103134000D01*
X187939000Y-104024000D02*
X193939000Y-104024000D01*
X193939000Y-104024000D02*
X193939000Y-104784000D01*
X193939000Y-104784000D02*
X187939000Y-104784000D01*
X184881929Y-104024000D02*
X185279000Y-104024000D01*
X184881929Y-104784000D02*
X185279000Y-104784000D01*
X185279000Y-105674000D02*
X187939000Y-105674000D01*
X187939000Y-106564000D02*
X193939000Y-106564000D01*
X193939000Y-106564000D02*
X193939000Y-107324000D01*
X193939000Y-107324000D02*
X187939000Y-107324000D01*
X184881929Y-106564000D02*
X185279000Y-106564000D01*
X184881929Y-107324000D02*
X185279000Y-107324000D01*
X185279000Y-108214000D02*
X187939000Y-108214000D01*
X187939000Y-109104000D02*
X193939000Y-109104000D01*
X193939000Y-109104000D02*
X193939000Y-109864000D01*
X193939000Y-109864000D02*
X187939000Y-109864000D01*
X184881929Y-109104000D02*
X185279000Y-109104000D01*
X184881929Y-109864000D02*
X185279000Y-109864000D01*
X182569000Y-61224000D02*
X182569000Y-59954000D01*
X182569000Y-59954000D02*
X183839000Y-59954000D01*
%TO.C,J3*%
X178368000Y-100838000D02*
X175708000Y-100838000D01*
X178368000Y-100838000D02*
X178368000Y-70298000D01*
X178368000Y-70298000D02*
X175708000Y-70298000D01*
X175708000Y-100838000D02*
X175708000Y-70298000D01*
X175708000Y-103438000D02*
X175708000Y-102108000D01*
X177038000Y-103438000D02*
X175708000Y-103438000D01*
%TO.C,J1*%
X102870000Y-103632242D02*
X101600000Y-103632242D01*
X102870000Y-102362242D02*
X102870000Y-103632242D01*
X100557071Y-84202242D02*
X100160000Y-84202242D01*
X100557071Y-84962242D02*
X100160000Y-84962242D01*
X91500000Y-84202242D02*
X97500000Y-84202242D01*
X91500000Y-84962242D02*
X91500000Y-84202242D01*
X97500000Y-84962242D02*
X91500000Y-84962242D01*
X100160000Y-85852242D02*
X97500000Y-85852242D01*
X100557071Y-86742242D02*
X100160000Y-86742242D01*
X100557071Y-87502242D02*
X100160000Y-87502242D01*
X91500000Y-86742242D02*
X97500000Y-86742242D01*
X91500000Y-87502242D02*
X91500000Y-86742242D01*
X97500000Y-87502242D02*
X91500000Y-87502242D01*
X100160000Y-88392242D02*
X97500000Y-88392242D01*
X100557071Y-89282242D02*
X100160000Y-89282242D01*
X100557071Y-90042242D02*
X100160000Y-90042242D01*
X91500000Y-89282242D02*
X97500000Y-89282242D01*
X91500000Y-90042242D02*
X91500000Y-89282242D01*
X97500000Y-90042242D02*
X91500000Y-90042242D01*
X100160000Y-90932242D02*
X97500000Y-90932242D01*
X100557071Y-91822242D02*
X100160000Y-91822242D01*
X100557071Y-92582242D02*
X100160000Y-92582242D01*
X91500000Y-91822242D02*
X97500000Y-91822242D01*
X91500000Y-92582242D02*
X91500000Y-91822242D01*
X97500000Y-92582242D02*
X91500000Y-92582242D01*
X100160000Y-93472242D02*
X97500000Y-93472242D01*
X100557071Y-94362242D02*
X100160000Y-94362242D01*
X100557071Y-95122242D02*
X100160000Y-95122242D01*
X91500000Y-94362242D02*
X97500000Y-94362242D01*
X91500000Y-95122242D02*
X91500000Y-94362242D01*
X97500000Y-95122242D02*
X91500000Y-95122242D01*
X100160000Y-96012242D02*
X97500000Y-96012242D01*
X100557071Y-96902242D02*
X100160000Y-96902242D01*
X100557071Y-97662242D02*
X100160000Y-97662242D01*
X91500000Y-96902242D02*
X97500000Y-96902242D01*
X91500000Y-97662242D02*
X91500000Y-96902242D01*
X97500000Y-97662242D02*
X91500000Y-97662242D01*
X100160000Y-98552242D02*
X97500000Y-98552242D01*
X100557071Y-99442242D02*
X100160000Y-99442242D01*
X100557071Y-100202242D02*
X100160000Y-100202242D01*
X91500000Y-99442242D02*
X97500000Y-99442242D01*
X91500000Y-100202242D02*
X91500000Y-99442242D01*
X97500000Y-100202242D02*
X91500000Y-100202242D01*
X100160000Y-101092242D02*
X97500000Y-101092242D01*
X100490000Y-101982242D02*
X100160000Y-101982242D01*
X100490000Y-102742242D02*
X100160000Y-102742242D01*
X97500000Y-102082242D02*
X91500000Y-102082242D01*
X97500000Y-102202242D02*
X91500000Y-102202242D01*
X97500000Y-102322242D02*
X91500000Y-102322242D01*
X97500000Y-102442242D02*
X91500000Y-102442242D01*
X97500000Y-102562242D02*
X91500000Y-102562242D01*
X97500000Y-102682242D02*
X91500000Y-102682242D01*
X91500000Y-101982242D02*
X97500000Y-101982242D01*
X91500000Y-102742242D02*
X91500000Y-101982242D01*
X97500000Y-102742242D02*
X91500000Y-102742242D01*
X97500000Y-103692242D02*
X100160000Y-103692242D01*
X97500000Y-83252242D02*
X97500000Y-103692242D01*
X100160000Y-83252242D02*
X97500000Y-83252242D01*
X100160000Y-103692242D02*
X100160000Y-83252242D01*
%TO.C,J5*%
X104613000Y-65557242D02*
X107273000Y-65557242D01*
X104613000Y-65557242D02*
X104613000Y-80857242D01*
X104613000Y-80857242D02*
X107273000Y-80857242D01*
X107273000Y-65557242D02*
X107273000Y-80857242D01*
X107273000Y-62957242D02*
X107273000Y-64287242D01*
X105943000Y-62957242D02*
X107273000Y-62957242D01*
%TO.C,J2*%
X104613000Y-85867000D02*
X107273000Y-85867000D01*
X104613000Y-85867000D02*
X104613000Y-103707000D01*
X104613000Y-103707000D02*
X107273000Y-103707000D01*
X107273000Y-85867000D02*
X107273000Y-103707000D01*
X107273000Y-83267000D02*
X107273000Y-84597000D01*
X105943000Y-83267000D02*
X107273000Y-83267000D01*
%TD*%
M02*
