%TF.GenerationSoftware,KiCad,Pcbnew,(6.0.0-0)*%
%TF.CreationDate,2022-08-12T09:14:50-04:00*%
%TF.ProjectId,Backplane-Instruction-Reg-2022,4261636b-706c-4616-9e65-2d496e737472,rev?*%
%TF.SameCoordinates,Original*%
%TF.FileFunction,Soldermask,Bot*%
%TF.FilePolarity,Negative*%
%FSLAX46Y46*%
G04 Gerber Fmt 4.6, Leading zero omitted, Abs format (unit mm)*
G04 Created by KiCad (PCBNEW (6.0.0-0)) date 2022-08-12 09:14:50*
%MOMM*%
%LPD*%
G01*
G04 APERTURE LIST*
%ADD10R,1.700000X1.700000*%
%ADD11O,1.700000X1.700000*%
G04 APERTURE END LIST*
D10*
%TO.C,J4*%
X183839000Y-61224000D03*
D11*
X183839000Y-63764000D03*
X183839000Y-66304000D03*
X183839000Y-68844000D03*
X183839000Y-71384000D03*
X183839000Y-73924000D03*
X183839000Y-76464000D03*
X183839000Y-79004000D03*
X183839000Y-81544000D03*
X183839000Y-84084000D03*
X183839000Y-86624000D03*
X183839000Y-89164000D03*
X183839000Y-91704000D03*
X183839000Y-94244000D03*
X183839000Y-96784000D03*
X183839000Y-99324000D03*
X183839000Y-101864000D03*
X183839000Y-104404000D03*
X183839000Y-106944000D03*
X183839000Y-109484000D03*
%TD*%
D10*
%TO.C,J3*%
X177038000Y-102108000D03*
D11*
X177038000Y-99568000D03*
X177038000Y-97028000D03*
X177038000Y-94488000D03*
X177038000Y-91948000D03*
X177038000Y-89408000D03*
X177038000Y-86868000D03*
X177038000Y-84328000D03*
X177038000Y-81788000D03*
X177038000Y-79248000D03*
X177038000Y-76708000D03*
X177038000Y-74168000D03*
X177038000Y-71628000D03*
%TD*%
%TO.C,J1*%
X101600000Y-84582242D03*
X101600000Y-87122242D03*
X101600000Y-89662242D03*
X101600000Y-92202242D03*
X101600000Y-94742242D03*
X101600000Y-97282242D03*
X101600000Y-99822242D03*
D10*
X101600000Y-102362242D03*
%TD*%
%TO.C,J5*%
X105943000Y-64287242D03*
D11*
X105943000Y-66827242D03*
X105943000Y-69367242D03*
X105943000Y-71907242D03*
X105943000Y-74447242D03*
X105943000Y-76987242D03*
X105943000Y-79527242D03*
%TD*%
D10*
%TO.C,J2*%
X105943000Y-84597000D03*
D11*
X105943000Y-87137000D03*
X105943000Y-89677000D03*
X105943000Y-92217000D03*
X105943000Y-94757000D03*
X105943000Y-97297000D03*
X105943000Y-99837000D03*
X105943000Y-102377000D03*
%TD*%
M02*
