%TF.GenerationSoftware,KiCad,Pcbnew,(5.1.9-0-10_14)*%
%TF.CreationDate,2021-05-04T15:01:54-04:00*%
%TF.ProjectId,POWER,504f5745-522e-46b6-9963-61645f706362,rev?*%
%TF.SameCoordinates,Original*%
%TF.FileFunction,Copper,L2,Bot*%
%TF.FilePolarity,Positive*%
%FSLAX46Y46*%
G04 Gerber Fmt 4.6, Leading zero omitted, Abs format (unit mm)*
G04 Created by KiCad (PCBNEW (5.1.9-0-10_14)) date 2021-05-04 15:01:54*
%MOMM*%
%LPD*%
G01*
G04 APERTURE LIST*
%TA.AperFunction,ComponentPad*%
%ADD10R,3.500000X3.500000*%
%TD*%
%TA.AperFunction,ComponentPad*%
%ADD11C,2.600000*%
%TD*%
%TA.AperFunction,ComponentPad*%
%ADD12R,2.600000X2.600000*%
%TD*%
%TA.AperFunction,ComponentPad*%
%ADD13O,1.700000X1.700000*%
%TD*%
%TA.AperFunction,ComponentPad*%
%ADD14R,1.700000X1.700000*%
%TD*%
%TA.AperFunction,ComponentPad*%
%ADD15O,1.600000X1.600000*%
%TD*%
%TA.AperFunction,ComponentPad*%
%ADD16R,1.600000X1.600000*%
%TD*%
%TA.AperFunction,ComponentPad*%
%ADD17C,1.600000*%
%TD*%
%TA.AperFunction,ComponentPad*%
%ADD18C,1.800000*%
%TD*%
%TA.AperFunction,ComponentPad*%
%ADD19R,1.800000X1.800000*%
%TD*%
%TA.AperFunction,ComponentPad*%
%ADD20O,1.500000X1.500000*%
%TD*%
%TA.AperFunction,ComponentPad*%
%ADD21R,1.500000X1.500000*%
%TD*%
%TA.AperFunction,ComponentPad*%
%ADD22O,1.905000X2.000000*%
%TD*%
%TA.AperFunction,ComponentPad*%
%ADD23R,1.905000X2.000000*%
%TD*%
%TA.AperFunction,Conductor*%
%ADD24C,0.254000*%
%TD*%
%TA.AperFunction,Conductor*%
%ADD25C,0.100000*%
%TD*%
G04 APERTURE END LIST*
%TO.P,J5,3*%
%TO.N,N/C*%
%TA.AperFunction,ComponentPad*%
G36*
G01*
X128989120Y-68188640D02*
X130739120Y-68188640D01*
G75*
G02*
X131614120Y-69063640I0J-875000D01*
G01*
X131614120Y-70813640D01*
G75*
G02*
X130739120Y-71688640I-875000J0D01*
G01*
X128989120Y-71688640D01*
G75*
G02*
X128114120Y-70813640I0J875000D01*
G01*
X128114120Y-69063640D01*
G75*
G02*
X128989120Y-68188640I875000J0D01*
G01*
G37*
%TD.AperFunction*%
%TO.P,J5,2*%
%TO.N,GND*%
%TA.AperFunction,ComponentPad*%
G36*
G01*
X133564120Y-65438640D02*
X135564120Y-65438640D01*
G75*
G02*
X136314120Y-66188640I0J-750000D01*
G01*
X136314120Y-67688640D01*
G75*
G02*
X135564120Y-68438640I-750000J0D01*
G01*
X133564120Y-68438640D01*
G75*
G02*
X132814120Y-67688640I0J750000D01*
G01*
X132814120Y-66188640D01*
G75*
G02*
X133564120Y-65438640I750000J0D01*
G01*
G37*
%TD.AperFunction*%
D10*
%TO.P,J5,1*%
%TO.N,Net-(D1-Pad2)*%
X134564120Y-72938640D03*
%TD*%
D11*
%TO.P,J4,2*%
%TO.N,GND*%
X134108200Y-94127320D03*
D12*
%TO.P,J4,1*%
%TO.N,VCC*%
X129108200Y-94127320D03*
%TD*%
D13*
%TO.P,J3,2*%
%TO.N,GND*%
X121119900Y-90502740D03*
D14*
%TO.P,J3,1*%
%TO.N,VCC*%
X123659900Y-90502740D03*
%TD*%
D13*
%TO.P,J2,2*%
%TO.N,GND*%
X121119900Y-94211140D03*
D14*
%TO.P,J2,1*%
%TO.N,VCC*%
X123659900Y-94211140D03*
%TD*%
D15*
%TO.P,SW1,2*%
%TO.N,VCC*%
X140550900Y-85140800D03*
D16*
%TO.P,SW1,1*%
%TO.N,Net-(C2-Pad1)*%
X140550900Y-77520800D03*
%TD*%
D15*
%TO.P,R1,2*%
%TO.N,GND*%
X134747000Y-77165200D03*
D17*
%TO.P,R1,1*%
%TO.N,Net-(D2-Pad1)*%
X134747000Y-87325200D03*
%TD*%
D18*
%TO.P,D2,2*%
%TO.N,VCC*%
X140779500Y-89331800D03*
D19*
%TO.P,D2,1*%
%TO.N,Net-(D2-Pad1)*%
X140779500Y-91871800D03*
%TD*%
D20*
%TO.P,D1,2*%
%TO.N,Net-(D1-Pad2)*%
X113205260Y-66296540D03*
D21*
%TO.P,D1,1*%
%TO.N,Net-(C1-Pad1)*%
X113205260Y-73916540D03*
%TD*%
D11*
%TO.P,J1,2*%
%TO.N,Net-(D1-Pad2)*%
X118497340Y-63941960D03*
D12*
%TO.P,J1,1*%
%TO.N,GND*%
X123497340Y-63941960D03*
%TD*%
D22*
%TO.P,U1,3*%
%TO.N,Net-(C2-Pad1)*%
X128071880Y-82859880D03*
%TO.P,U1,2*%
%TO.N,GND*%
X125531880Y-82859880D03*
D23*
%TO.P,U1,1*%
%TO.N,Net-(C1-Pad1)*%
X122991880Y-82859880D03*
%TD*%
D17*
%TO.P,C2,2*%
%TO.N,GND*%
X113674520Y-86771480D03*
D16*
%TO.P,C2,1*%
%TO.N,Net-(C2-Pad1)*%
X116174520Y-86771480D03*
%TD*%
D17*
%TO.P,C1,2*%
%TO.N,GND*%
X113771040Y-79623920D03*
D16*
%TO.P,C1,1*%
%TO.N,Net-(C1-Pad1)*%
X116271040Y-79623920D03*
%TD*%
D24*
%TO.N,GND*%
X144800721Y-99776680D02*
X110255920Y-99776680D01*
X110255920Y-97411304D01*
X110530320Y-97411304D01*
X110530320Y-97782616D01*
X110602759Y-98146794D01*
X110744854Y-98489842D01*
X110951145Y-98798578D01*
X111213702Y-99061135D01*
X111522438Y-99267426D01*
X111865486Y-99409521D01*
X112229664Y-99481960D01*
X112600976Y-99481960D01*
X112965154Y-99409521D01*
X113308202Y-99267426D01*
X113616938Y-99061135D01*
X113879495Y-98798578D01*
X114085786Y-98489842D01*
X114227881Y-98146794D01*
X114300320Y-97782616D01*
X114300320Y-97411304D01*
X114295268Y-97385904D01*
X140761400Y-97385904D01*
X140761400Y-97757216D01*
X140833839Y-98121394D01*
X140975934Y-98464442D01*
X141182225Y-98773178D01*
X141444782Y-99035735D01*
X141753518Y-99242026D01*
X142096566Y-99384121D01*
X142460744Y-99456560D01*
X142832056Y-99456560D01*
X143196234Y-99384121D01*
X143539282Y-99242026D01*
X143848018Y-99035735D01*
X144110575Y-98773178D01*
X144316866Y-98464442D01*
X144458961Y-98121394D01*
X144531400Y-97757216D01*
X144531400Y-97385904D01*
X144458961Y-97021726D01*
X144316866Y-96678678D01*
X144110575Y-96369942D01*
X143848018Y-96107385D01*
X143539282Y-95901094D01*
X143196234Y-95758999D01*
X142832056Y-95686560D01*
X142460744Y-95686560D01*
X142096566Y-95758999D01*
X141753518Y-95901094D01*
X141444782Y-96107385D01*
X141182225Y-96369942D01*
X140975934Y-96678678D01*
X140833839Y-97021726D01*
X140761400Y-97385904D01*
X114295268Y-97385904D01*
X114227881Y-97047126D01*
X114085786Y-96704078D01*
X113879495Y-96395342D01*
X113616938Y-96132785D01*
X113308202Y-95926494D01*
X112965154Y-95784399D01*
X112600976Y-95711960D01*
X112229664Y-95711960D01*
X111865486Y-95784399D01*
X111522438Y-95926494D01*
X111213702Y-96132785D01*
X110951145Y-96395342D01*
X110744854Y-96704078D01*
X110602759Y-97047126D01*
X110530320Y-97411304D01*
X110255920Y-97411304D01*
X110255920Y-94568031D01*
X119678419Y-94568031D01*
X119775743Y-94842392D01*
X119924722Y-95092495D01*
X120119631Y-95308728D01*
X120352980Y-95482781D01*
X120615801Y-95607965D01*
X120763010Y-95652616D01*
X120992900Y-95531295D01*
X120992900Y-94338140D01*
X119799086Y-94338140D01*
X119678419Y-94568031D01*
X110255920Y-94568031D01*
X110255920Y-93854249D01*
X119678419Y-93854249D01*
X119799086Y-94084140D01*
X120992900Y-94084140D01*
X120992900Y-92890985D01*
X121246900Y-92890985D01*
X121246900Y-94084140D01*
X121266900Y-94084140D01*
X121266900Y-94338140D01*
X121246900Y-94338140D01*
X121246900Y-95531295D01*
X121476790Y-95652616D01*
X121623999Y-95607965D01*
X121886820Y-95482781D01*
X122120169Y-95308728D01*
X122195934Y-95224674D01*
X122220398Y-95305320D01*
X122279363Y-95415634D01*
X122358715Y-95512325D01*
X122455406Y-95591677D01*
X122565720Y-95650642D01*
X122685418Y-95686952D01*
X122809900Y-95699212D01*
X124509900Y-95699212D01*
X124634382Y-95686952D01*
X124754080Y-95650642D01*
X124864394Y-95591677D01*
X124961085Y-95512325D01*
X125040437Y-95415634D01*
X125099402Y-95305320D01*
X125135712Y-95185622D01*
X125147972Y-95061140D01*
X125147972Y-93361140D01*
X125135712Y-93236658D01*
X125099402Y-93116960D01*
X125040437Y-93006646D01*
X124961085Y-92909955D01*
X124864394Y-92830603D01*
X124858253Y-92827320D01*
X127170128Y-92827320D01*
X127170128Y-95427320D01*
X127182388Y-95551802D01*
X127218698Y-95671500D01*
X127277663Y-95781814D01*
X127357015Y-95878505D01*
X127453706Y-95957857D01*
X127564020Y-96016822D01*
X127683718Y-96053132D01*
X127808200Y-96065392D01*
X130408200Y-96065392D01*
X130532682Y-96053132D01*
X130652380Y-96016822D01*
X130762694Y-95957857D01*
X130859385Y-95878505D01*
X130938737Y-95781814D01*
X130997702Y-95671500D01*
X131034012Y-95551802D01*
X131041424Y-95476544D01*
X132938581Y-95476544D01*
X133070517Y-95771632D01*
X133411245Y-95942479D01*
X133778757Y-96043570D01*
X134158929Y-96071021D01*
X134537151Y-96023777D01*
X134898890Y-95903653D01*
X135145883Y-95771632D01*
X135277819Y-95476544D01*
X134108200Y-94306925D01*
X132938581Y-95476544D01*
X131041424Y-95476544D01*
X131046272Y-95427320D01*
X131046272Y-94178049D01*
X132164499Y-94178049D01*
X132211743Y-94556271D01*
X132331867Y-94918010D01*
X132463888Y-95165003D01*
X132758976Y-95296939D01*
X133928595Y-94127320D01*
X134287805Y-94127320D01*
X135457424Y-95296939D01*
X135752512Y-95165003D01*
X135923359Y-94824275D01*
X136024450Y-94456763D01*
X136051901Y-94076591D01*
X136004657Y-93698369D01*
X135884533Y-93336630D01*
X135752512Y-93089637D01*
X135457424Y-92957701D01*
X134287805Y-94127320D01*
X133928595Y-94127320D01*
X132758976Y-92957701D01*
X132463888Y-93089637D01*
X132293041Y-93430365D01*
X132191950Y-93797877D01*
X132164499Y-94178049D01*
X131046272Y-94178049D01*
X131046272Y-92827320D01*
X131041425Y-92778096D01*
X132938581Y-92778096D01*
X134108200Y-93947715D01*
X135277819Y-92778096D01*
X135145883Y-92483008D01*
X134805155Y-92312161D01*
X134437643Y-92211070D01*
X134057471Y-92183619D01*
X133679249Y-92230863D01*
X133317510Y-92350987D01*
X133070517Y-92483008D01*
X132938581Y-92778096D01*
X131041425Y-92778096D01*
X131034012Y-92702838D01*
X130997702Y-92583140D01*
X130938737Y-92472826D01*
X130859385Y-92376135D01*
X130762694Y-92296783D01*
X130652380Y-92237818D01*
X130532682Y-92201508D01*
X130408200Y-92189248D01*
X127808200Y-92189248D01*
X127683718Y-92201508D01*
X127564020Y-92237818D01*
X127453706Y-92296783D01*
X127357015Y-92376135D01*
X127277663Y-92472826D01*
X127218698Y-92583140D01*
X127182388Y-92702838D01*
X127170128Y-92827320D01*
X124858253Y-92827320D01*
X124754080Y-92771638D01*
X124634382Y-92735328D01*
X124509900Y-92723068D01*
X122809900Y-92723068D01*
X122685418Y-92735328D01*
X122565720Y-92771638D01*
X122455406Y-92830603D01*
X122358715Y-92909955D01*
X122279363Y-93006646D01*
X122220398Y-93116960D01*
X122195934Y-93197606D01*
X122120169Y-93113552D01*
X121886820Y-92939499D01*
X121623999Y-92814315D01*
X121476790Y-92769664D01*
X121246900Y-92890985D01*
X120992900Y-92890985D01*
X120763010Y-92769664D01*
X120615801Y-92814315D01*
X120352980Y-92939499D01*
X120119631Y-93113552D01*
X119924722Y-93329785D01*
X119775743Y-93579888D01*
X119678419Y-93854249D01*
X110255920Y-93854249D01*
X110255920Y-90859631D01*
X119678419Y-90859631D01*
X119775743Y-91133992D01*
X119924722Y-91384095D01*
X120119631Y-91600328D01*
X120352980Y-91774381D01*
X120615801Y-91899565D01*
X120763010Y-91944216D01*
X120992900Y-91822895D01*
X120992900Y-90629740D01*
X119799086Y-90629740D01*
X119678419Y-90859631D01*
X110255920Y-90859631D01*
X110255920Y-90145849D01*
X119678419Y-90145849D01*
X119799086Y-90375740D01*
X120992900Y-90375740D01*
X120992900Y-89182585D01*
X121246900Y-89182585D01*
X121246900Y-90375740D01*
X121266900Y-90375740D01*
X121266900Y-90629740D01*
X121246900Y-90629740D01*
X121246900Y-91822895D01*
X121476790Y-91944216D01*
X121623999Y-91899565D01*
X121886820Y-91774381D01*
X122120169Y-91600328D01*
X122195934Y-91516274D01*
X122220398Y-91596920D01*
X122279363Y-91707234D01*
X122358715Y-91803925D01*
X122455406Y-91883277D01*
X122565720Y-91942242D01*
X122685418Y-91978552D01*
X122809900Y-91990812D01*
X124509900Y-91990812D01*
X124634382Y-91978552D01*
X124754080Y-91942242D01*
X124864394Y-91883277D01*
X124961085Y-91803925D01*
X125040437Y-91707234D01*
X125099402Y-91596920D01*
X125135712Y-91477222D01*
X125147972Y-91352740D01*
X125147972Y-90971800D01*
X139241428Y-90971800D01*
X139241428Y-92771800D01*
X139253688Y-92896282D01*
X139289998Y-93015980D01*
X139348963Y-93126294D01*
X139428315Y-93222985D01*
X139525006Y-93302337D01*
X139635320Y-93361302D01*
X139755018Y-93397612D01*
X139879500Y-93409872D01*
X141679500Y-93409872D01*
X141803982Y-93397612D01*
X141923680Y-93361302D01*
X142033994Y-93302337D01*
X142130685Y-93222985D01*
X142210037Y-93126294D01*
X142269002Y-93015980D01*
X142305312Y-92896282D01*
X142317572Y-92771800D01*
X142317572Y-90971800D01*
X142305312Y-90847318D01*
X142269002Y-90727620D01*
X142210037Y-90617306D01*
X142130685Y-90520615D01*
X142033994Y-90441263D01*
X141923680Y-90382298D01*
X141905373Y-90376744D01*
X141971812Y-90310305D01*
X142139799Y-90058895D01*
X142255511Y-89779543D01*
X142314500Y-89482984D01*
X142314500Y-89180616D01*
X142255511Y-88884057D01*
X142139799Y-88604705D01*
X141971812Y-88353295D01*
X141758005Y-88139488D01*
X141506595Y-87971501D01*
X141227243Y-87855789D01*
X140930684Y-87796800D01*
X140628316Y-87796800D01*
X140331757Y-87855789D01*
X140052405Y-87971501D01*
X139800995Y-88139488D01*
X139587188Y-88353295D01*
X139419201Y-88604705D01*
X139303489Y-88884057D01*
X139244500Y-89180616D01*
X139244500Y-89482984D01*
X139303489Y-89779543D01*
X139419201Y-90058895D01*
X139587188Y-90310305D01*
X139653627Y-90376744D01*
X139635320Y-90382298D01*
X139525006Y-90441263D01*
X139428315Y-90520615D01*
X139348963Y-90617306D01*
X139289998Y-90727620D01*
X139253688Y-90847318D01*
X139241428Y-90971800D01*
X125147972Y-90971800D01*
X125147972Y-89652740D01*
X125135712Y-89528258D01*
X125099402Y-89408560D01*
X125040437Y-89298246D01*
X124961085Y-89201555D01*
X124864394Y-89122203D01*
X124754080Y-89063238D01*
X124634382Y-89026928D01*
X124509900Y-89014668D01*
X122809900Y-89014668D01*
X122685418Y-89026928D01*
X122565720Y-89063238D01*
X122455406Y-89122203D01*
X122358715Y-89201555D01*
X122279363Y-89298246D01*
X122220398Y-89408560D01*
X122195934Y-89489206D01*
X122120169Y-89405152D01*
X121886820Y-89231099D01*
X121623999Y-89105915D01*
X121476790Y-89061264D01*
X121246900Y-89182585D01*
X120992900Y-89182585D01*
X120763010Y-89061264D01*
X120615801Y-89105915D01*
X120352980Y-89231099D01*
X120119631Y-89405152D01*
X119924722Y-89621385D01*
X119775743Y-89871488D01*
X119678419Y-90145849D01*
X110255920Y-90145849D01*
X110255920Y-87764182D01*
X112861423Y-87764182D01*
X112933006Y-88008151D01*
X113188516Y-88129051D01*
X113462704Y-88197780D01*
X113745032Y-88211697D01*
X114024650Y-88170267D01*
X114290812Y-88075083D01*
X114416034Y-88008151D01*
X114487617Y-87764182D01*
X113674520Y-86951085D01*
X112861423Y-87764182D01*
X110255920Y-87764182D01*
X110255920Y-86841992D01*
X112234303Y-86841992D01*
X112275733Y-87121610D01*
X112370917Y-87387772D01*
X112437849Y-87512994D01*
X112681818Y-87584577D01*
X113494915Y-86771480D01*
X113854125Y-86771480D01*
X114667222Y-87584577D01*
X114736448Y-87564265D01*
X114736448Y-87571480D01*
X114748708Y-87695962D01*
X114785018Y-87815660D01*
X114843983Y-87925974D01*
X114923335Y-88022665D01*
X115020026Y-88102017D01*
X115130340Y-88160982D01*
X115250038Y-88197292D01*
X115374520Y-88209552D01*
X116974520Y-88209552D01*
X117099002Y-88197292D01*
X117218700Y-88160982D01*
X117329014Y-88102017D01*
X117425705Y-88022665D01*
X117505057Y-87925974D01*
X117564022Y-87815660D01*
X117600332Y-87695962D01*
X117612592Y-87571480D01*
X117612592Y-87183865D01*
X133312000Y-87183865D01*
X133312000Y-87466535D01*
X133367147Y-87743774D01*
X133475320Y-88004927D01*
X133632363Y-88239959D01*
X133832241Y-88439837D01*
X134067273Y-88596880D01*
X134328426Y-88705053D01*
X134605665Y-88760200D01*
X134888335Y-88760200D01*
X135165574Y-88705053D01*
X135426727Y-88596880D01*
X135661759Y-88439837D01*
X135861637Y-88239959D01*
X136018680Y-88004927D01*
X136126853Y-87743774D01*
X136182000Y-87466535D01*
X136182000Y-87183865D01*
X136126853Y-86906626D01*
X136018680Y-86645473D01*
X135861637Y-86410441D01*
X135661759Y-86210563D01*
X135426727Y-86053520D01*
X135165574Y-85945347D01*
X134888335Y-85890200D01*
X134605665Y-85890200D01*
X134328426Y-85945347D01*
X134067273Y-86053520D01*
X133832241Y-86210563D01*
X133632363Y-86410441D01*
X133475320Y-86645473D01*
X133367147Y-86906626D01*
X133312000Y-87183865D01*
X117612592Y-87183865D01*
X117612592Y-85971480D01*
X117600332Y-85846998D01*
X117564022Y-85727300D01*
X117505057Y-85616986D01*
X117425705Y-85520295D01*
X117329014Y-85440943D01*
X117218700Y-85381978D01*
X117099002Y-85345668D01*
X116974520Y-85333408D01*
X115374520Y-85333408D01*
X115250038Y-85345668D01*
X115130340Y-85381978D01*
X115020026Y-85440943D01*
X114923335Y-85520295D01*
X114843983Y-85616986D01*
X114785018Y-85727300D01*
X114748708Y-85846998D01*
X114736448Y-85971480D01*
X114736448Y-85978695D01*
X114667222Y-85958383D01*
X113854125Y-86771480D01*
X113494915Y-86771480D01*
X112681818Y-85958383D01*
X112437849Y-86029966D01*
X112316949Y-86285476D01*
X112248220Y-86559664D01*
X112234303Y-86841992D01*
X110255920Y-86841992D01*
X110255920Y-85778778D01*
X112861423Y-85778778D01*
X113674520Y-86591875D01*
X114487617Y-85778778D01*
X114416034Y-85534809D01*
X114160524Y-85413909D01*
X113886336Y-85345180D01*
X113604008Y-85331263D01*
X113324390Y-85372693D01*
X113058228Y-85467877D01*
X112933006Y-85534809D01*
X112861423Y-85778778D01*
X110255920Y-85778778D01*
X110255920Y-84999465D01*
X139115900Y-84999465D01*
X139115900Y-85282135D01*
X139171047Y-85559374D01*
X139279220Y-85820527D01*
X139436263Y-86055559D01*
X139636141Y-86255437D01*
X139871173Y-86412480D01*
X140132326Y-86520653D01*
X140409565Y-86575800D01*
X140692235Y-86575800D01*
X140969474Y-86520653D01*
X141230627Y-86412480D01*
X141465659Y-86255437D01*
X141665537Y-86055559D01*
X141822580Y-85820527D01*
X141930753Y-85559374D01*
X141985900Y-85282135D01*
X141985900Y-84999465D01*
X141930753Y-84722226D01*
X141822580Y-84461073D01*
X141665537Y-84226041D01*
X141465659Y-84026163D01*
X141230627Y-83869120D01*
X140969474Y-83760947D01*
X140692235Y-83705800D01*
X140409565Y-83705800D01*
X140132326Y-83760947D01*
X139871173Y-83869120D01*
X139636141Y-84026163D01*
X139436263Y-84226041D01*
X139279220Y-84461073D01*
X139171047Y-84722226D01*
X139115900Y-84999465D01*
X110255920Y-84999465D01*
X110255920Y-81859880D01*
X121401308Y-81859880D01*
X121401308Y-83859880D01*
X121413568Y-83984362D01*
X121449878Y-84104060D01*
X121508843Y-84214374D01*
X121588195Y-84311065D01*
X121684886Y-84390417D01*
X121795200Y-84449382D01*
X121914898Y-84485692D01*
X122039380Y-84497952D01*
X123944380Y-84497952D01*
X124068862Y-84485692D01*
X124188560Y-84449382D01*
X124298874Y-84390417D01*
X124395565Y-84311065D01*
X124474917Y-84214374D01*
X124523939Y-84122661D01*
X124664957Y-84235849D01*
X124940786Y-84379451D01*
X125158900Y-84450443D01*
X125404880Y-84330474D01*
X125404880Y-82986880D01*
X125384880Y-82986880D01*
X125384880Y-82732880D01*
X125404880Y-82732880D01*
X125404880Y-81389286D01*
X125658880Y-81389286D01*
X125658880Y-82732880D01*
X125678880Y-82732880D01*
X125678880Y-82986880D01*
X125658880Y-82986880D01*
X125658880Y-84330474D01*
X125904860Y-84450443D01*
X126122974Y-84379451D01*
X126398803Y-84235849D01*
X126641317Y-84041195D01*
X126796717Y-83855981D01*
X126943917Y-84035343D01*
X127185646Y-84233725D01*
X127461432Y-84381135D01*
X127760677Y-84471910D01*
X128071880Y-84502561D01*
X128383084Y-84471910D01*
X128682329Y-84381135D01*
X128958115Y-84233725D01*
X129199843Y-84035343D01*
X129398225Y-83793614D01*
X129545635Y-83517828D01*
X129636410Y-83218583D01*
X129659380Y-82985365D01*
X129659380Y-82734394D01*
X129636410Y-82501176D01*
X129545635Y-82201931D01*
X129398225Y-81926145D01*
X129199843Y-81684417D01*
X128958114Y-81486035D01*
X128682328Y-81338625D01*
X128383083Y-81247850D01*
X128071880Y-81217199D01*
X127760676Y-81247850D01*
X127461431Y-81338625D01*
X127185645Y-81486035D01*
X126943917Y-81684417D01*
X126796718Y-81863780D01*
X126641317Y-81678565D01*
X126398803Y-81483911D01*
X126122974Y-81340309D01*
X125904860Y-81269317D01*
X125658880Y-81389286D01*
X125404880Y-81389286D01*
X125158900Y-81269317D01*
X124940786Y-81340309D01*
X124664957Y-81483911D01*
X124523939Y-81597099D01*
X124474917Y-81505386D01*
X124395565Y-81408695D01*
X124298874Y-81329343D01*
X124188560Y-81270378D01*
X124068862Y-81234068D01*
X123944380Y-81221808D01*
X122039380Y-81221808D01*
X121914898Y-81234068D01*
X121795200Y-81270378D01*
X121684886Y-81329343D01*
X121588195Y-81408695D01*
X121508843Y-81505386D01*
X121449878Y-81615700D01*
X121413568Y-81735398D01*
X121401308Y-81859880D01*
X110255920Y-81859880D01*
X110255920Y-80616622D01*
X112957943Y-80616622D01*
X113029526Y-80860591D01*
X113285036Y-80981491D01*
X113559224Y-81050220D01*
X113841552Y-81064137D01*
X114121170Y-81022707D01*
X114387332Y-80927523D01*
X114512554Y-80860591D01*
X114584137Y-80616622D01*
X113771040Y-79803525D01*
X112957943Y-80616622D01*
X110255920Y-80616622D01*
X110255920Y-79694432D01*
X112330823Y-79694432D01*
X112372253Y-79974050D01*
X112467437Y-80240212D01*
X112534369Y-80365434D01*
X112778338Y-80437017D01*
X113591435Y-79623920D01*
X113950645Y-79623920D01*
X114763742Y-80437017D01*
X114832968Y-80416705D01*
X114832968Y-80423920D01*
X114845228Y-80548402D01*
X114881538Y-80668100D01*
X114940503Y-80778414D01*
X115019855Y-80875105D01*
X115116546Y-80954457D01*
X115226860Y-81013422D01*
X115346558Y-81049732D01*
X115471040Y-81061992D01*
X117071040Y-81061992D01*
X117195522Y-81049732D01*
X117315220Y-81013422D01*
X117425534Y-80954457D01*
X117522225Y-80875105D01*
X117601577Y-80778414D01*
X117660542Y-80668100D01*
X117696852Y-80548402D01*
X117709112Y-80423920D01*
X117709112Y-78823920D01*
X117696852Y-78699438D01*
X117660542Y-78579740D01*
X117601577Y-78469426D01*
X117522225Y-78372735D01*
X117425534Y-78293383D01*
X117315220Y-78234418D01*
X117195522Y-78198108D01*
X117071040Y-78185848D01*
X115471040Y-78185848D01*
X115346558Y-78198108D01*
X115226860Y-78234418D01*
X115116546Y-78293383D01*
X115019855Y-78372735D01*
X114940503Y-78469426D01*
X114881538Y-78579740D01*
X114845228Y-78699438D01*
X114832968Y-78823920D01*
X114832968Y-78831135D01*
X114763742Y-78810823D01*
X113950645Y-79623920D01*
X113591435Y-79623920D01*
X112778338Y-78810823D01*
X112534369Y-78882406D01*
X112413469Y-79137916D01*
X112344740Y-79412104D01*
X112330823Y-79694432D01*
X110255920Y-79694432D01*
X110255920Y-78631218D01*
X112957943Y-78631218D01*
X113771040Y-79444315D01*
X114584137Y-78631218D01*
X114512554Y-78387249D01*
X114257044Y-78266349D01*
X113982856Y-78197620D01*
X113700528Y-78183703D01*
X113420910Y-78225133D01*
X113154748Y-78320317D01*
X113029526Y-78387249D01*
X112957943Y-78631218D01*
X110255920Y-78631218D01*
X110255920Y-77514240D01*
X133355091Y-77514240D01*
X133449930Y-77779081D01*
X133594615Y-78020331D01*
X133783586Y-78228719D01*
X134009580Y-78396237D01*
X134263913Y-78516446D01*
X134397961Y-78557104D01*
X134620000Y-78435115D01*
X134620000Y-77292200D01*
X134874000Y-77292200D01*
X134874000Y-78435115D01*
X135096039Y-78557104D01*
X135230087Y-78516446D01*
X135484420Y-78396237D01*
X135710414Y-78228719D01*
X135899385Y-78020331D01*
X136044070Y-77779081D01*
X136138909Y-77514240D01*
X136017624Y-77292200D01*
X134874000Y-77292200D01*
X134620000Y-77292200D01*
X133476376Y-77292200D01*
X133355091Y-77514240D01*
X110255920Y-77514240D01*
X110255920Y-76816160D01*
X133355091Y-76816160D01*
X133476376Y-77038200D01*
X134620000Y-77038200D01*
X134620000Y-75895285D01*
X134874000Y-75895285D01*
X134874000Y-77038200D01*
X136017624Y-77038200D01*
X136138909Y-76816160D01*
X136104761Y-76720800D01*
X139112828Y-76720800D01*
X139112828Y-78320800D01*
X139125088Y-78445282D01*
X139161398Y-78564980D01*
X139220363Y-78675294D01*
X139299715Y-78771985D01*
X139396406Y-78851337D01*
X139506720Y-78910302D01*
X139626418Y-78946612D01*
X139750900Y-78958872D01*
X141350900Y-78958872D01*
X141475382Y-78946612D01*
X141595080Y-78910302D01*
X141705394Y-78851337D01*
X141802085Y-78771985D01*
X141881437Y-78675294D01*
X141940402Y-78564980D01*
X141976712Y-78445282D01*
X141988972Y-78320800D01*
X141988972Y-76720800D01*
X141976712Y-76596318D01*
X141940402Y-76476620D01*
X141881437Y-76366306D01*
X141802085Y-76269615D01*
X141705394Y-76190263D01*
X141595080Y-76131298D01*
X141475382Y-76094988D01*
X141350900Y-76082728D01*
X139750900Y-76082728D01*
X139626418Y-76094988D01*
X139506720Y-76131298D01*
X139396406Y-76190263D01*
X139299715Y-76269615D01*
X139220363Y-76366306D01*
X139161398Y-76476620D01*
X139125088Y-76596318D01*
X139112828Y-76720800D01*
X136104761Y-76720800D01*
X136044070Y-76551319D01*
X135899385Y-76310069D01*
X135710414Y-76101681D01*
X135484420Y-75934163D01*
X135230087Y-75813954D01*
X135096039Y-75773296D01*
X134874000Y-75895285D01*
X134620000Y-75895285D01*
X134397961Y-75773296D01*
X134263913Y-75813954D01*
X134009580Y-75934163D01*
X133783586Y-76101681D01*
X133594615Y-76310069D01*
X133449930Y-76551319D01*
X133355091Y-76816160D01*
X110255920Y-76816160D01*
X110255920Y-73166540D01*
X111817188Y-73166540D01*
X111817188Y-74666540D01*
X111829448Y-74791022D01*
X111865758Y-74910720D01*
X111924723Y-75021034D01*
X112004075Y-75117725D01*
X112100766Y-75197077D01*
X112211080Y-75256042D01*
X112330778Y-75292352D01*
X112455260Y-75304612D01*
X113955260Y-75304612D01*
X114079742Y-75292352D01*
X114199440Y-75256042D01*
X114309754Y-75197077D01*
X114406445Y-75117725D01*
X114485797Y-75021034D01*
X114544762Y-74910720D01*
X114581072Y-74791022D01*
X114593332Y-74666540D01*
X114593332Y-73166540D01*
X114581072Y-73042058D01*
X114544762Y-72922360D01*
X114485797Y-72812046D01*
X114406445Y-72715355D01*
X114309754Y-72636003D01*
X114199440Y-72577038D01*
X114079742Y-72540728D01*
X113955260Y-72528468D01*
X112455260Y-72528468D01*
X112330778Y-72540728D01*
X112211080Y-72577038D01*
X112100766Y-72636003D01*
X112004075Y-72715355D01*
X111924723Y-72812046D01*
X111865758Y-72922360D01*
X111829448Y-73042058D01*
X111817188Y-73166540D01*
X110255920Y-73166540D01*
X110255920Y-69063640D01*
X127476048Y-69063640D01*
X127476048Y-70813640D01*
X127505121Y-71108826D01*
X127591224Y-71392668D01*
X127731047Y-71654258D01*
X127919217Y-71883543D01*
X128148502Y-72071713D01*
X128410092Y-72211536D01*
X128693934Y-72297639D01*
X128989120Y-72326712D01*
X130739120Y-72326712D01*
X131034306Y-72297639D01*
X131318148Y-72211536D01*
X131579738Y-72071713D01*
X131809023Y-71883543D01*
X131997193Y-71654258D01*
X132137016Y-71392668D01*
X132176048Y-71263997D01*
X132176048Y-74688640D01*
X132188308Y-74813122D01*
X132224618Y-74932820D01*
X132283583Y-75043134D01*
X132362935Y-75139825D01*
X132459626Y-75219177D01*
X132569940Y-75278142D01*
X132689638Y-75314452D01*
X132814120Y-75326712D01*
X136314120Y-75326712D01*
X136438602Y-75314452D01*
X136558300Y-75278142D01*
X136668614Y-75219177D01*
X136765305Y-75139825D01*
X136844657Y-75043134D01*
X136903622Y-74932820D01*
X136939932Y-74813122D01*
X136952192Y-74688640D01*
X136952192Y-71188640D01*
X136939932Y-71064158D01*
X136903622Y-70944460D01*
X136844657Y-70834146D01*
X136765305Y-70737455D01*
X136668614Y-70658103D01*
X136558300Y-70599138D01*
X136438602Y-70562828D01*
X136314120Y-70550568D01*
X132814120Y-70550568D01*
X132689638Y-70562828D01*
X132569940Y-70599138D01*
X132459626Y-70658103D01*
X132362935Y-70737455D01*
X132283583Y-70834146D01*
X132242626Y-70910771D01*
X132252192Y-70813640D01*
X132252192Y-69063640D01*
X132223119Y-68768454D01*
X132137016Y-68484612D01*
X132112444Y-68438640D01*
X132176048Y-68438640D01*
X132188308Y-68563122D01*
X132224618Y-68682820D01*
X132283583Y-68793134D01*
X132362935Y-68889825D01*
X132459626Y-68969177D01*
X132569940Y-69028142D01*
X132689638Y-69064452D01*
X132814120Y-69076712D01*
X134278370Y-69073640D01*
X134437120Y-68914890D01*
X134437120Y-67065640D01*
X134691120Y-67065640D01*
X134691120Y-68914890D01*
X134849870Y-69073640D01*
X136314120Y-69076712D01*
X136438602Y-69064452D01*
X136558300Y-69028142D01*
X136668614Y-68969177D01*
X136765305Y-68889825D01*
X136844657Y-68793134D01*
X136903622Y-68682820D01*
X136939932Y-68563122D01*
X136952192Y-68438640D01*
X136949120Y-67224390D01*
X136790370Y-67065640D01*
X134691120Y-67065640D01*
X134437120Y-67065640D01*
X132337870Y-67065640D01*
X132179120Y-67224390D01*
X132176048Y-68438640D01*
X132112444Y-68438640D01*
X131997193Y-68223022D01*
X131809023Y-67993737D01*
X131579738Y-67805567D01*
X131318148Y-67665744D01*
X131034306Y-67579641D01*
X130739120Y-67550568D01*
X128989120Y-67550568D01*
X128693934Y-67579641D01*
X128410092Y-67665744D01*
X128148502Y-67805567D01*
X127919217Y-67993737D01*
X127731047Y-68223022D01*
X127591224Y-68484612D01*
X127505121Y-68768454D01*
X127476048Y-69063640D01*
X110255920Y-69063640D01*
X110255920Y-66160129D01*
X111820260Y-66160129D01*
X111820260Y-66432951D01*
X111873485Y-66700529D01*
X111977889Y-66952583D01*
X112129461Y-67179426D01*
X112322374Y-67372339D01*
X112549217Y-67523911D01*
X112801271Y-67628315D01*
X113068849Y-67681540D01*
X113341671Y-67681540D01*
X113609249Y-67628315D01*
X113861303Y-67523911D01*
X114088146Y-67372339D01*
X114281059Y-67179426D01*
X114432631Y-66952583D01*
X114537035Y-66700529D01*
X114590260Y-66432951D01*
X114590260Y-66160129D01*
X114537035Y-65892551D01*
X114432631Y-65640497D01*
X114281059Y-65413654D01*
X114088146Y-65220741D01*
X113861303Y-65069169D01*
X113609249Y-64964765D01*
X113341671Y-64911540D01*
X113068849Y-64911540D01*
X112801271Y-64964765D01*
X112549217Y-65069169D01*
X112322374Y-65220741D01*
X112129461Y-65413654D01*
X111977889Y-65640497D01*
X111873485Y-65892551D01*
X111820260Y-66160129D01*
X110255920Y-66160129D01*
X110255920Y-63751379D01*
X116562340Y-63751379D01*
X116562340Y-64132541D01*
X116636701Y-64506379D01*
X116782565Y-64858526D01*
X116994327Y-65175451D01*
X117263849Y-65444973D01*
X117580774Y-65656735D01*
X117932921Y-65802599D01*
X118306759Y-65876960D01*
X118687921Y-65876960D01*
X119061759Y-65802599D01*
X119413906Y-65656735D01*
X119730831Y-65444973D01*
X119933844Y-65241960D01*
X121559268Y-65241960D01*
X121571528Y-65366442D01*
X121607838Y-65486140D01*
X121666803Y-65596454D01*
X121746155Y-65693145D01*
X121842846Y-65772497D01*
X121953160Y-65831462D01*
X122072858Y-65867772D01*
X122197340Y-65880032D01*
X123211590Y-65876960D01*
X123370340Y-65718210D01*
X123370340Y-64068960D01*
X123624340Y-64068960D01*
X123624340Y-65718210D01*
X123783090Y-65876960D01*
X124797340Y-65880032D01*
X124921822Y-65867772D01*
X125041520Y-65831462D01*
X125151834Y-65772497D01*
X125248525Y-65693145D01*
X125327877Y-65596454D01*
X125386842Y-65486140D01*
X125401250Y-65438640D01*
X132176048Y-65438640D01*
X132179120Y-66652890D01*
X132337870Y-66811640D01*
X134437120Y-66811640D01*
X134437120Y-64962390D01*
X134691120Y-64962390D01*
X134691120Y-66811640D01*
X136790370Y-66811640D01*
X136949120Y-66652890D01*
X136952192Y-65438640D01*
X136939932Y-65314158D01*
X136903622Y-65194460D01*
X136844657Y-65084146D01*
X136765305Y-64987455D01*
X136668614Y-64908103D01*
X136558300Y-64849138D01*
X136438602Y-64812828D01*
X136314120Y-64800568D01*
X134849870Y-64803640D01*
X134691120Y-64962390D01*
X134437120Y-64962390D01*
X134278370Y-64803640D01*
X132814120Y-64800568D01*
X132689638Y-64812828D01*
X132569940Y-64849138D01*
X132459626Y-64908103D01*
X132362935Y-64987455D01*
X132283583Y-65084146D01*
X132224618Y-65194460D01*
X132188308Y-65314158D01*
X132176048Y-65438640D01*
X125401250Y-65438640D01*
X125423152Y-65366442D01*
X125435412Y-65241960D01*
X125432340Y-64227710D01*
X125273590Y-64068960D01*
X123624340Y-64068960D01*
X123370340Y-64068960D01*
X121721090Y-64068960D01*
X121562340Y-64227710D01*
X121559268Y-65241960D01*
X119933844Y-65241960D01*
X120000353Y-65175451D01*
X120212115Y-64858526D01*
X120357979Y-64506379D01*
X120432340Y-64132541D01*
X120432340Y-63751379D01*
X120357979Y-63377541D01*
X120212115Y-63025394D01*
X120000353Y-62708469D01*
X119933844Y-62641960D01*
X121559268Y-62641960D01*
X121562340Y-63656210D01*
X121721090Y-63814960D01*
X123370340Y-63814960D01*
X123370340Y-62165710D01*
X123624340Y-62165710D01*
X123624340Y-63814960D01*
X125273590Y-63814960D01*
X125432340Y-63656210D01*
X125435412Y-62641960D01*
X125423152Y-62517478D01*
X125386842Y-62397780D01*
X125327877Y-62287466D01*
X125248525Y-62190775D01*
X125151834Y-62111423D01*
X125041520Y-62052458D01*
X124921822Y-62016148D01*
X124797340Y-62003888D01*
X123783090Y-62006960D01*
X123624340Y-62165710D01*
X123370340Y-62165710D01*
X123211590Y-62006960D01*
X122197340Y-62003888D01*
X122072858Y-62016148D01*
X121953160Y-62052458D01*
X121842846Y-62111423D01*
X121746155Y-62190775D01*
X121666803Y-62287466D01*
X121607838Y-62397780D01*
X121571528Y-62517478D01*
X121559268Y-62641960D01*
X119933844Y-62641960D01*
X119730831Y-62438947D01*
X119413906Y-62227185D01*
X119061759Y-62081321D01*
X118687921Y-62006960D01*
X118306759Y-62006960D01*
X117932921Y-62081321D01*
X117580774Y-62227185D01*
X117263849Y-62438947D01*
X116994327Y-62708469D01*
X116782565Y-63025394D01*
X116636701Y-63377541D01*
X116562340Y-63751379D01*
X110255920Y-63751379D01*
X110255920Y-59925984D01*
X110535400Y-59925984D01*
X110535400Y-60297296D01*
X110607839Y-60661474D01*
X110749934Y-61004522D01*
X110956225Y-61313258D01*
X111218782Y-61575815D01*
X111527518Y-61782106D01*
X111870566Y-61924201D01*
X112234744Y-61996640D01*
X112606056Y-61996640D01*
X112970234Y-61924201D01*
X113313282Y-61782106D01*
X113622018Y-61575815D01*
X113884575Y-61313258D01*
X114090866Y-61004522D01*
X114232961Y-60661474D01*
X114305400Y-60297296D01*
X114305400Y-60098704D01*
X140649640Y-60098704D01*
X140649640Y-60470016D01*
X140722079Y-60834194D01*
X140864174Y-61177242D01*
X141070465Y-61485978D01*
X141333022Y-61748535D01*
X141641758Y-61954826D01*
X141984806Y-62096921D01*
X142348984Y-62169360D01*
X142720296Y-62169360D01*
X143084474Y-62096921D01*
X143427522Y-61954826D01*
X143736258Y-61748535D01*
X143998815Y-61485978D01*
X144205106Y-61177242D01*
X144347201Y-60834194D01*
X144419640Y-60470016D01*
X144419640Y-60098704D01*
X144347201Y-59734526D01*
X144205106Y-59391478D01*
X143998815Y-59082742D01*
X143736258Y-58820185D01*
X143427522Y-58613894D01*
X143084474Y-58471799D01*
X142720296Y-58399360D01*
X142348984Y-58399360D01*
X141984806Y-58471799D01*
X141641758Y-58613894D01*
X141333022Y-58820185D01*
X141070465Y-59082742D01*
X140864174Y-59391478D01*
X140722079Y-59734526D01*
X140649640Y-60098704D01*
X114305400Y-60098704D01*
X114305400Y-59925984D01*
X114232961Y-59561806D01*
X114090866Y-59218758D01*
X113884575Y-58910022D01*
X113622018Y-58647465D01*
X113313282Y-58441174D01*
X112970234Y-58299079D01*
X112606056Y-58226640D01*
X112234744Y-58226640D01*
X111870566Y-58299079D01*
X111527518Y-58441174D01*
X111218782Y-58647465D01*
X110956225Y-58910022D01*
X110749934Y-59218758D01*
X110607839Y-59561806D01*
X110535400Y-59925984D01*
X110255920Y-59925984D01*
X110255920Y-57947160D01*
X144800720Y-57947160D01*
X144800721Y-99776680D01*
%TA.AperFunction,Conductor*%
D25*
G36*
X144800721Y-99776680D02*
G01*
X110255920Y-99776680D01*
X110255920Y-97411304D01*
X110530320Y-97411304D01*
X110530320Y-97782616D01*
X110602759Y-98146794D01*
X110744854Y-98489842D01*
X110951145Y-98798578D01*
X111213702Y-99061135D01*
X111522438Y-99267426D01*
X111865486Y-99409521D01*
X112229664Y-99481960D01*
X112600976Y-99481960D01*
X112965154Y-99409521D01*
X113308202Y-99267426D01*
X113616938Y-99061135D01*
X113879495Y-98798578D01*
X114085786Y-98489842D01*
X114227881Y-98146794D01*
X114300320Y-97782616D01*
X114300320Y-97411304D01*
X114295268Y-97385904D01*
X140761400Y-97385904D01*
X140761400Y-97757216D01*
X140833839Y-98121394D01*
X140975934Y-98464442D01*
X141182225Y-98773178D01*
X141444782Y-99035735D01*
X141753518Y-99242026D01*
X142096566Y-99384121D01*
X142460744Y-99456560D01*
X142832056Y-99456560D01*
X143196234Y-99384121D01*
X143539282Y-99242026D01*
X143848018Y-99035735D01*
X144110575Y-98773178D01*
X144316866Y-98464442D01*
X144458961Y-98121394D01*
X144531400Y-97757216D01*
X144531400Y-97385904D01*
X144458961Y-97021726D01*
X144316866Y-96678678D01*
X144110575Y-96369942D01*
X143848018Y-96107385D01*
X143539282Y-95901094D01*
X143196234Y-95758999D01*
X142832056Y-95686560D01*
X142460744Y-95686560D01*
X142096566Y-95758999D01*
X141753518Y-95901094D01*
X141444782Y-96107385D01*
X141182225Y-96369942D01*
X140975934Y-96678678D01*
X140833839Y-97021726D01*
X140761400Y-97385904D01*
X114295268Y-97385904D01*
X114227881Y-97047126D01*
X114085786Y-96704078D01*
X113879495Y-96395342D01*
X113616938Y-96132785D01*
X113308202Y-95926494D01*
X112965154Y-95784399D01*
X112600976Y-95711960D01*
X112229664Y-95711960D01*
X111865486Y-95784399D01*
X111522438Y-95926494D01*
X111213702Y-96132785D01*
X110951145Y-96395342D01*
X110744854Y-96704078D01*
X110602759Y-97047126D01*
X110530320Y-97411304D01*
X110255920Y-97411304D01*
X110255920Y-94568031D01*
X119678419Y-94568031D01*
X119775743Y-94842392D01*
X119924722Y-95092495D01*
X120119631Y-95308728D01*
X120352980Y-95482781D01*
X120615801Y-95607965D01*
X120763010Y-95652616D01*
X120992900Y-95531295D01*
X120992900Y-94338140D01*
X119799086Y-94338140D01*
X119678419Y-94568031D01*
X110255920Y-94568031D01*
X110255920Y-93854249D01*
X119678419Y-93854249D01*
X119799086Y-94084140D01*
X120992900Y-94084140D01*
X120992900Y-92890985D01*
X121246900Y-92890985D01*
X121246900Y-94084140D01*
X121266900Y-94084140D01*
X121266900Y-94338140D01*
X121246900Y-94338140D01*
X121246900Y-95531295D01*
X121476790Y-95652616D01*
X121623999Y-95607965D01*
X121886820Y-95482781D01*
X122120169Y-95308728D01*
X122195934Y-95224674D01*
X122220398Y-95305320D01*
X122279363Y-95415634D01*
X122358715Y-95512325D01*
X122455406Y-95591677D01*
X122565720Y-95650642D01*
X122685418Y-95686952D01*
X122809900Y-95699212D01*
X124509900Y-95699212D01*
X124634382Y-95686952D01*
X124754080Y-95650642D01*
X124864394Y-95591677D01*
X124961085Y-95512325D01*
X125040437Y-95415634D01*
X125099402Y-95305320D01*
X125135712Y-95185622D01*
X125147972Y-95061140D01*
X125147972Y-93361140D01*
X125135712Y-93236658D01*
X125099402Y-93116960D01*
X125040437Y-93006646D01*
X124961085Y-92909955D01*
X124864394Y-92830603D01*
X124858253Y-92827320D01*
X127170128Y-92827320D01*
X127170128Y-95427320D01*
X127182388Y-95551802D01*
X127218698Y-95671500D01*
X127277663Y-95781814D01*
X127357015Y-95878505D01*
X127453706Y-95957857D01*
X127564020Y-96016822D01*
X127683718Y-96053132D01*
X127808200Y-96065392D01*
X130408200Y-96065392D01*
X130532682Y-96053132D01*
X130652380Y-96016822D01*
X130762694Y-95957857D01*
X130859385Y-95878505D01*
X130938737Y-95781814D01*
X130997702Y-95671500D01*
X131034012Y-95551802D01*
X131041424Y-95476544D01*
X132938581Y-95476544D01*
X133070517Y-95771632D01*
X133411245Y-95942479D01*
X133778757Y-96043570D01*
X134158929Y-96071021D01*
X134537151Y-96023777D01*
X134898890Y-95903653D01*
X135145883Y-95771632D01*
X135277819Y-95476544D01*
X134108200Y-94306925D01*
X132938581Y-95476544D01*
X131041424Y-95476544D01*
X131046272Y-95427320D01*
X131046272Y-94178049D01*
X132164499Y-94178049D01*
X132211743Y-94556271D01*
X132331867Y-94918010D01*
X132463888Y-95165003D01*
X132758976Y-95296939D01*
X133928595Y-94127320D01*
X134287805Y-94127320D01*
X135457424Y-95296939D01*
X135752512Y-95165003D01*
X135923359Y-94824275D01*
X136024450Y-94456763D01*
X136051901Y-94076591D01*
X136004657Y-93698369D01*
X135884533Y-93336630D01*
X135752512Y-93089637D01*
X135457424Y-92957701D01*
X134287805Y-94127320D01*
X133928595Y-94127320D01*
X132758976Y-92957701D01*
X132463888Y-93089637D01*
X132293041Y-93430365D01*
X132191950Y-93797877D01*
X132164499Y-94178049D01*
X131046272Y-94178049D01*
X131046272Y-92827320D01*
X131041425Y-92778096D01*
X132938581Y-92778096D01*
X134108200Y-93947715D01*
X135277819Y-92778096D01*
X135145883Y-92483008D01*
X134805155Y-92312161D01*
X134437643Y-92211070D01*
X134057471Y-92183619D01*
X133679249Y-92230863D01*
X133317510Y-92350987D01*
X133070517Y-92483008D01*
X132938581Y-92778096D01*
X131041425Y-92778096D01*
X131034012Y-92702838D01*
X130997702Y-92583140D01*
X130938737Y-92472826D01*
X130859385Y-92376135D01*
X130762694Y-92296783D01*
X130652380Y-92237818D01*
X130532682Y-92201508D01*
X130408200Y-92189248D01*
X127808200Y-92189248D01*
X127683718Y-92201508D01*
X127564020Y-92237818D01*
X127453706Y-92296783D01*
X127357015Y-92376135D01*
X127277663Y-92472826D01*
X127218698Y-92583140D01*
X127182388Y-92702838D01*
X127170128Y-92827320D01*
X124858253Y-92827320D01*
X124754080Y-92771638D01*
X124634382Y-92735328D01*
X124509900Y-92723068D01*
X122809900Y-92723068D01*
X122685418Y-92735328D01*
X122565720Y-92771638D01*
X122455406Y-92830603D01*
X122358715Y-92909955D01*
X122279363Y-93006646D01*
X122220398Y-93116960D01*
X122195934Y-93197606D01*
X122120169Y-93113552D01*
X121886820Y-92939499D01*
X121623999Y-92814315D01*
X121476790Y-92769664D01*
X121246900Y-92890985D01*
X120992900Y-92890985D01*
X120763010Y-92769664D01*
X120615801Y-92814315D01*
X120352980Y-92939499D01*
X120119631Y-93113552D01*
X119924722Y-93329785D01*
X119775743Y-93579888D01*
X119678419Y-93854249D01*
X110255920Y-93854249D01*
X110255920Y-90859631D01*
X119678419Y-90859631D01*
X119775743Y-91133992D01*
X119924722Y-91384095D01*
X120119631Y-91600328D01*
X120352980Y-91774381D01*
X120615801Y-91899565D01*
X120763010Y-91944216D01*
X120992900Y-91822895D01*
X120992900Y-90629740D01*
X119799086Y-90629740D01*
X119678419Y-90859631D01*
X110255920Y-90859631D01*
X110255920Y-90145849D01*
X119678419Y-90145849D01*
X119799086Y-90375740D01*
X120992900Y-90375740D01*
X120992900Y-89182585D01*
X121246900Y-89182585D01*
X121246900Y-90375740D01*
X121266900Y-90375740D01*
X121266900Y-90629740D01*
X121246900Y-90629740D01*
X121246900Y-91822895D01*
X121476790Y-91944216D01*
X121623999Y-91899565D01*
X121886820Y-91774381D01*
X122120169Y-91600328D01*
X122195934Y-91516274D01*
X122220398Y-91596920D01*
X122279363Y-91707234D01*
X122358715Y-91803925D01*
X122455406Y-91883277D01*
X122565720Y-91942242D01*
X122685418Y-91978552D01*
X122809900Y-91990812D01*
X124509900Y-91990812D01*
X124634382Y-91978552D01*
X124754080Y-91942242D01*
X124864394Y-91883277D01*
X124961085Y-91803925D01*
X125040437Y-91707234D01*
X125099402Y-91596920D01*
X125135712Y-91477222D01*
X125147972Y-91352740D01*
X125147972Y-90971800D01*
X139241428Y-90971800D01*
X139241428Y-92771800D01*
X139253688Y-92896282D01*
X139289998Y-93015980D01*
X139348963Y-93126294D01*
X139428315Y-93222985D01*
X139525006Y-93302337D01*
X139635320Y-93361302D01*
X139755018Y-93397612D01*
X139879500Y-93409872D01*
X141679500Y-93409872D01*
X141803982Y-93397612D01*
X141923680Y-93361302D01*
X142033994Y-93302337D01*
X142130685Y-93222985D01*
X142210037Y-93126294D01*
X142269002Y-93015980D01*
X142305312Y-92896282D01*
X142317572Y-92771800D01*
X142317572Y-90971800D01*
X142305312Y-90847318D01*
X142269002Y-90727620D01*
X142210037Y-90617306D01*
X142130685Y-90520615D01*
X142033994Y-90441263D01*
X141923680Y-90382298D01*
X141905373Y-90376744D01*
X141971812Y-90310305D01*
X142139799Y-90058895D01*
X142255511Y-89779543D01*
X142314500Y-89482984D01*
X142314500Y-89180616D01*
X142255511Y-88884057D01*
X142139799Y-88604705D01*
X141971812Y-88353295D01*
X141758005Y-88139488D01*
X141506595Y-87971501D01*
X141227243Y-87855789D01*
X140930684Y-87796800D01*
X140628316Y-87796800D01*
X140331757Y-87855789D01*
X140052405Y-87971501D01*
X139800995Y-88139488D01*
X139587188Y-88353295D01*
X139419201Y-88604705D01*
X139303489Y-88884057D01*
X139244500Y-89180616D01*
X139244500Y-89482984D01*
X139303489Y-89779543D01*
X139419201Y-90058895D01*
X139587188Y-90310305D01*
X139653627Y-90376744D01*
X139635320Y-90382298D01*
X139525006Y-90441263D01*
X139428315Y-90520615D01*
X139348963Y-90617306D01*
X139289998Y-90727620D01*
X139253688Y-90847318D01*
X139241428Y-90971800D01*
X125147972Y-90971800D01*
X125147972Y-89652740D01*
X125135712Y-89528258D01*
X125099402Y-89408560D01*
X125040437Y-89298246D01*
X124961085Y-89201555D01*
X124864394Y-89122203D01*
X124754080Y-89063238D01*
X124634382Y-89026928D01*
X124509900Y-89014668D01*
X122809900Y-89014668D01*
X122685418Y-89026928D01*
X122565720Y-89063238D01*
X122455406Y-89122203D01*
X122358715Y-89201555D01*
X122279363Y-89298246D01*
X122220398Y-89408560D01*
X122195934Y-89489206D01*
X122120169Y-89405152D01*
X121886820Y-89231099D01*
X121623999Y-89105915D01*
X121476790Y-89061264D01*
X121246900Y-89182585D01*
X120992900Y-89182585D01*
X120763010Y-89061264D01*
X120615801Y-89105915D01*
X120352980Y-89231099D01*
X120119631Y-89405152D01*
X119924722Y-89621385D01*
X119775743Y-89871488D01*
X119678419Y-90145849D01*
X110255920Y-90145849D01*
X110255920Y-87764182D01*
X112861423Y-87764182D01*
X112933006Y-88008151D01*
X113188516Y-88129051D01*
X113462704Y-88197780D01*
X113745032Y-88211697D01*
X114024650Y-88170267D01*
X114290812Y-88075083D01*
X114416034Y-88008151D01*
X114487617Y-87764182D01*
X113674520Y-86951085D01*
X112861423Y-87764182D01*
X110255920Y-87764182D01*
X110255920Y-86841992D01*
X112234303Y-86841992D01*
X112275733Y-87121610D01*
X112370917Y-87387772D01*
X112437849Y-87512994D01*
X112681818Y-87584577D01*
X113494915Y-86771480D01*
X113854125Y-86771480D01*
X114667222Y-87584577D01*
X114736448Y-87564265D01*
X114736448Y-87571480D01*
X114748708Y-87695962D01*
X114785018Y-87815660D01*
X114843983Y-87925974D01*
X114923335Y-88022665D01*
X115020026Y-88102017D01*
X115130340Y-88160982D01*
X115250038Y-88197292D01*
X115374520Y-88209552D01*
X116974520Y-88209552D01*
X117099002Y-88197292D01*
X117218700Y-88160982D01*
X117329014Y-88102017D01*
X117425705Y-88022665D01*
X117505057Y-87925974D01*
X117564022Y-87815660D01*
X117600332Y-87695962D01*
X117612592Y-87571480D01*
X117612592Y-87183865D01*
X133312000Y-87183865D01*
X133312000Y-87466535D01*
X133367147Y-87743774D01*
X133475320Y-88004927D01*
X133632363Y-88239959D01*
X133832241Y-88439837D01*
X134067273Y-88596880D01*
X134328426Y-88705053D01*
X134605665Y-88760200D01*
X134888335Y-88760200D01*
X135165574Y-88705053D01*
X135426727Y-88596880D01*
X135661759Y-88439837D01*
X135861637Y-88239959D01*
X136018680Y-88004927D01*
X136126853Y-87743774D01*
X136182000Y-87466535D01*
X136182000Y-87183865D01*
X136126853Y-86906626D01*
X136018680Y-86645473D01*
X135861637Y-86410441D01*
X135661759Y-86210563D01*
X135426727Y-86053520D01*
X135165574Y-85945347D01*
X134888335Y-85890200D01*
X134605665Y-85890200D01*
X134328426Y-85945347D01*
X134067273Y-86053520D01*
X133832241Y-86210563D01*
X133632363Y-86410441D01*
X133475320Y-86645473D01*
X133367147Y-86906626D01*
X133312000Y-87183865D01*
X117612592Y-87183865D01*
X117612592Y-85971480D01*
X117600332Y-85846998D01*
X117564022Y-85727300D01*
X117505057Y-85616986D01*
X117425705Y-85520295D01*
X117329014Y-85440943D01*
X117218700Y-85381978D01*
X117099002Y-85345668D01*
X116974520Y-85333408D01*
X115374520Y-85333408D01*
X115250038Y-85345668D01*
X115130340Y-85381978D01*
X115020026Y-85440943D01*
X114923335Y-85520295D01*
X114843983Y-85616986D01*
X114785018Y-85727300D01*
X114748708Y-85846998D01*
X114736448Y-85971480D01*
X114736448Y-85978695D01*
X114667222Y-85958383D01*
X113854125Y-86771480D01*
X113494915Y-86771480D01*
X112681818Y-85958383D01*
X112437849Y-86029966D01*
X112316949Y-86285476D01*
X112248220Y-86559664D01*
X112234303Y-86841992D01*
X110255920Y-86841992D01*
X110255920Y-85778778D01*
X112861423Y-85778778D01*
X113674520Y-86591875D01*
X114487617Y-85778778D01*
X114416034Y-85534809D01*
X114160524Y-85413909D01*
X113886336Y-85345180D01*
X113604008Y-85331263D01*
X113324390Y-85372693D01*
X113058228Y-85467877D01*
X112933006Y-85534809D01*
X112861423Y-85778778D01*
X110255920Y-85778778D01*
X110255920Y-84999465D01*
X139115900Y-84999465D01*
X139115900Y-85282135D01*
X139171047Y-85559374D01*
X139279220Y-85820527D01*
X139436263Y-86055559D01*
X139636141Y-86255437D01*
X139871173Y-86412480D01*
X140132326Y-86520653D01*
X140409565Y-86575800D01*
X140692235Y-86575800D01*
X140969474Y-86520653D01*
X141230627Y-86412480D01*
X141465659Y-86255437D01*
X141665537Y-86055559D01*
X141822580Y-85820527D01*
X141930753Y-85559374D01*
X141985900Y-85282135D01*
X141985900Y-84999465D01*
X141930753Y-84722226D01*
X141822580Y-84461073D01*
X141665537Y-84226041D01*
X141465659Y-84026163D01*
X141230627Y-83869120D01*
X140969474Y-83760947D01*
X140692235Y-83705800D01*
X140409565Y-83705800D01*
X140132326Y-83760947D01*
X139871173Y-83869120D01*
X139636141Y-84026163D01*
X139436263Y-84226041D01*
X139279220Y-84461073D01*
X139171047Y-84722226D01*
X139115900Y-84999465D01*
X110255920Y-84999465D01*
X110255920Y-81859880D01*
X121401308Y-81859880D01*
X121401308Y-83859880D01*
X121413568Y-83984362D01*
X121449878Y-84104060D01*
X121508843Y-84214374D01*
X121588195Y-84311065D01*
X121684886Y-84390417D01*
X121795200Y-84449382D01*
X121914898Y-84485692D01*
X122039380Y-84497952D01*
X123944380Y-84497952D01*
X124068862Y-84485692D01*
X124188560Y-84449382D01*
X124298874Y-84390417D01*
X124395565Y-84311065D01*
X124474917Y-84214374D01*
X124523939Y-84122661D01*
X124664957Y-84235849D01*
X124940786Y-84379451D01*
X125158900Y-84450443D01*
X125404880Y-84330474D01*
X125404880Y-82986880D01*
X125384880Y-82986880D01*
X125384880Y-82732880D01*
X125404880Y-82732880D01*
X125404880Y-81389286D01*
X125658880Y-81389286D01*
X125658880Y-82732880D01*
X125678880Y-82732880D01*
X125678880Y-82986880D01*
X125658880Y-82986880D01*
X125658880Y-84330474D01*
X125904860Y-84450443D01*
X126122974Y-84379451D01*
X126398803Y-84235849D01*
X126641317Y-84041195D01*
X126796717Y-83855981D01*
X126943917Y-84035343D01*
X127185646Y-84233725D01*
X127461432Y-84381135D01*
X127760677Y-84471910D01*
X128071880Y-84502561D01*
X128383084Y-84471910D01*
X128682329Y-84381135D01*
X128958115Y-84233725D01*
X129199843Y-84035343D01*
X129398225Y-83793614D01*
X129545635Y-83517828D01*
X129636410Y-83218583D01*
X129659380Y-82985365D01*
X129659380Y-82734394D01*
X129636410Y-82501176D01*
X129545635Y-82201931D01*
X129398225Y-81926145D01*
X129199843Y-81684417D01*
X128958114Y-81486035D01*
X128682328Y-81338625D01*
X128383083Y-81247850D01*
X128071880Y-81217199D01*
X127760676Y-81247850D01*
X127461431Y-81338625D01*
X127185645Y-81486035D01*
X126943917Y-81684417D01*
X126796718Y-81863780D01*
X126641317Y-81678565D01*
X126398803Y-81483911D01*
X126122974Y-81340309D01*
X125904860Y-81269317D01*
X125658880Y-81389286D01*
X125404880Y-81389286D01*
X125158900Y-81269317D01*
X124940786Y-81340309D01*
X124664957Y-81483911D01*
X124523939Y-81597099D01*
X124474917Y-81505386D01*
X124395565Y-81408695D01*
X124298874Y-81329343D01*
X124188560Y-81270378D01*
X124068862Y-81234068D01*
X123944380Y-81221808D01*
X122039380Y-81221808D01*
X121914898Y-81234068D01*
X121795200Y-81270378D01*
X121684886Y-81329343D01*
X121588195Y-81408695D01*
X121508843Y-81505386D01*
X121449878Y-81615700D01*
X121413568Y-81735398D01*
X121401308Y-81859880D01*
X110255920Y-81859880D01*
X110255920Y-80616622D01*
X112957943Y-80616622D01*
X113029526Y-80860591D01*
X113285036Y-80981491D01*
X113559224Y-81050220D01*
X113841552Y-81064137D01*
X114121170Y-81022707D01*
X114387332Y-80927523D01*
X114512554Y-80860591D01*
X114584137Y-80616622D01*
X113771040Y-79803525D01*
X112957943Y-80616622D01*
X110255920Y-80616622D01*
X110255920Y-79694432D01*
X112330823Y-79694432D01*
X112372253Y-79974050D01*
X112467437Y-80240212D01*
X112534369Y-80365434D01*
X112778338Y-80437017D01*
X113591435Y-79623920D01*
X113950645Y-79623920D01*
X114763742Y-80437017D01*
X114832968Y-80416705D01*
X114832968Y-80423920D01*
X114845228Y-80548402D01*
X114881538Y-80668100D01*
X114940503Y-80778414D01*
X115019855Y-80875105D01*
X115116546Y-80954457D01*
X115226860Y-81013422D01*
X115346558Y-81049732D01*
X115471040Y-81061992D01*
X117071040Y-81061992D01*
X117195522Y-81049732D01*
X117315220Y-81013422D01*
X117425534Y-80954457D01*
X117522225Y-80875105D01*
X117601577Y-80778414D01*
X117660542Y-80668100D01*
X117696852Y-80548402D01*
X117709112Y-80423920D01*
X117709112Y-78823920D01*
X117696852Y-78699438D01*
X117660542Y-78579740D01*
X117601577Y-78469426D01*
X117522225Y-78372735D01*
X117425534Y-78293383D01*
X117315220Y-78234418D01*
X117195522Y-78198108D01*
X117071040Y-78185848D01*
X115471040Y-78185848D01*
X115346558Y-78198108D01*
X115226860Y-78234418D01*
X115116546Y-78293383D01*
X115019855Y-78372735D01*
X114940503Y-78469426D01*
X114881538Y-78579740D01*
X114845228Y-78699438D01*
X114832968Y-78823920D01*
X114832968Y-78831135D01*
X114763742Y-78810823D01*
X113950645Y-79623920D01*
X113591435Y-79623920D01*
X112778338Y-78810823D01*
X112534369Y-78882406D01*
X112413469Y-79137916D01*
X112344740Y-79412104D01*
X112330823Y-79694432D01*
X110255920Y-79694432D01*
X110255920Y-78631218D01*
X112957943Y-78631218D01*
X113771040Y-79444315D01*
X114584137Y-78631218D01*
X114512554Y-78387249D01*
X114257044Y-78266349D01*
X113982856Y-78197620D01*
X113700528Y-78183703D01*
X113420910Y-78225133D01*
X113154748Y-78320317D01*
X113029526Y-78387249D01*
X112957943Y-78631218D01*
X110255920Y-78631218D01*
X110255920Y-77514240D01*
X133355091Y-77514240D01*
X133449930Y-77779081D01*
X133594615Y-78020331D01*
X133783586Y-78228719D01*
X134009580Y-78396237D01*
X134263913Y-78516446D01*
X134397961Y-78557104D01*
X134620000Y-78435115D01*
X134620000Y-77292200D01*
X134874000Y-77292200D01*
X134874000Y-78435115D01*
X135096039Y-78557104D01*
X135230087Y-78516446D01*
X135484420Y-78396237D01*
X135710414Y-78228719D01*
X135899385Y-78020331D01*
X136044070Y-77779081D01*
X136138909Y-77514240D01*
X136017624Y-77292200D01*
X134874000Y-77292200D01*
X134620000Y-77292200D01*
X133476376Y-77292200D01*
X133355091Y-77514240D01*
X110255920Y-77514240D01*
X110255920Y-76816160D01*
X133355091Y-76816160D01*
X133476376Y-77038200D01*
X134620000Y-77038200D01*
X134620000Y-75895285D01*
X134874000Y-75895285D01*
X134874000Y-77038200D01*
X136017624Y-77038200D01*
X136138909Y-76816160D01*
X136104761Y-76720800D01*
X139112828Y-76720800D01*
X139112828Y-78320800D01*
X139125088Y-78445282D01*
X139161398Y-78564980D01*
X139220363Y-78675294D01*
X139299715Y-78771985D01*
X139396406Y-78851337D01*
X139506720Y-78910302D01*
X139626418Y-78946612D01*
X139750900Y-78958872D01*
X141350900Y-78958872D01*
X141475382Y-78946612D01*
X141595080Y-78910302D01*
X141705394Y-78851337D01*
X141802085Y-78771985D01*
X141881437Y-78675294D01*
X141940402Y-78564980D01*
X141976712Y-78445282D01*
X141988972Y-78320800D01*
X141988972Y-76720800D01*
X141976712Y-76596318D01*
X141940402Y-76476620D01*
X141881437Y-76366306D01*
X141802085Y-76269615D01*
X141705394Y-76190263D01*
X141595080Y-76131298D01*
X141475382Y-76094988D01*
X141350900Y-76082728D01*
X139750900Y-76082728D01*
X139626418Y-76094988D01*
X139506720Y-76131298D01*
X139396406Y-76190263D01*
X139299715Y-76269615D01*
X139220363Y-76366306D01*
X139161398Y-76476620D01*
X139125088Y-76596318D01*
X139112828Y-76720800D01*
X136104761Y-76720800D01*
X136044070Y-76551319D01*
X135899385Y-76310069D01*
X135710414Y-76101681D01*
X135484420Y-75934163D01*
X135230087Y-75813954D01*
X135096039Y-75773296D01*
X134874000Y-75895285D01*
X134620000Y-75895285D01*
X134397961Y-75773296D01*
X134263913Y-75813954D01*
X134009580Y-75934163D01*
X133783586Y-76101681D01*
X133594615Y-76310069D01*
X133449930Y-76551319D01*
X133355091Y-76816160D01*
X110255920Y-76816160D01*
X110255920Y-73166540D01*
X111817188Y-73166540D01*
X111817188Y-74666540D01*
X111829448Y-74791022D01*
X111865758Y-74910720D01*
X111924723Y-75021034D01*
X112004075Y-75117725D01*
X112100766Y-75197077D01*
X112211080Y-75256042D01*
X112330778Y-75292352D01*
X112455260Y-75304612D01*
X113955260Y-75304612D01*
X114079742Y-75292352D01*
X114199440Y-75256042D01*
X114309754Y-75197077D01*
X114406445Y-75117725D01*
X114485797Y-75021034D01*
X114544762Y-74910720D01*
X114581072Y-74791022D01*
X114593332Y-74666540D01*
X114593332Y-73166540D01*
X114581072Y-73042058D01*
X114544762Y-72922360D01*
X114485797Y-72812046D01*
X114406445Y-72715355D01*
X114309754Y-72636003D01*
X114199440Y-72577038D01*
X114079742Y-72540728D01*
X113955260Y-72528468D01*
X112455260Y-72528468D01*
X112330778Y-72540728D01*
X112211080Y-72577038D01*
X112100766Y-72636003D01*
X112004075Y-72715355D01*
X111924723Y-72812046D01*
X111865758Y-72922360D01*
X111829448Y-73042058D01*
X111817188Y-73166540D01*
X110255920Y-73166540D01*
X110255920Y-69063640D01*
X127476048Y-69063640D01*
X127476048Y-70813640D01*
X127505121Y-71108826D01*
X127591224Y-71392668D01*
X127731047Y-71654258D01*
X127919217Y-71883543D01*
X128148502Y-72071713D01*
X128410092Y-72211536D01*
X128693934Y-72297639D01*
X128989120Y-72326712D01*
X130739120Y-72326712D01*
X131034306Y-72297639D01*
X131318148Y-72211536D01*
X131579738Y-72071713D01*
X131809023Y-71883543D01*
X131997193Y-71654258D01*
X132137016Y-71392668D01*
X132176048Y-71263997D01*
X132176048Y-74688640D01*
X132188308Y-74813122D01*
X132224618Y-74932820D01*
X132283583Y-75043134D01*
X132362935Y-75139825D01*
X132459626Y-75219177D01*
X132569940Y-75278142D01*
X132689638Y-75314452D01*
X132814120Y-75326712D01*
X136314120Y-75326712D01*
X136438602Y-75314452D01*
X136558300Y-75278142D01*
X136668614Y-75219177D01*
X136765305Y-75139825D01*
X136844657Y-75043134D01*
X136903622Y-74932820D01*
X136939932Y-74813122D01*
X136952192Y-74688640D01*
X136952192Y-71188640D01*
X136939932Y-71064158D01*
X136903622Y-70944460D01*
X136844657Y-70834146D01*
X136765305Y-70737455D01*
X136668614Y-70658103D01*
X136558300Y-70599138D01*
X136438602Y-70562828D01*
X136314120Y-70550568D01*
X132814120Y-70550568D01*
X132689638Y-70562828D01*
X132569940Y-70599138D01*
X132459626Y-70658103D01*
X132362935Y-70737455D01*
X132283583Y-70834146D01*
X132242626Y-70910771D01*
X132252192Y-70813640D01*
X132252192Y-69063640D01*
X132223119Y-68768454D01*
X132137016Y-68484612D01*
X132112444Y-68438640D01*
X132176048Y-68438640D01*
X132188308Y-68563122D01*
X132224618Y-68682820D01*
X132283583Y-68793134D01*
X132362935Y-68889825D01*
X132459626Y-68969177D01*
X132569940Y-69028142D01*
X132689638Y-69064452D01*
X132814120Y-69076712D01*
X134278370Y-69073640D01*
X134437120Y-68914890D01*
X134437120Y-67065640D01*
X134691120Y-67065640D01*
X134691120Y-68914890D01*
X134849870Y-69073640D01*
X136314120Y-69076712D01*
X136438602Y-69064452D01*
X136558300Y-69028142D01*
X136668614Y-68969177D01*
X136765305Y-68889825D01*
X136844657Y-68793134D01*
X136903622Y-68682820D01*
X136939932Y-68563122D01*
X136952192Y-68438640D01*
X136949120Y-67224390D01*
X136790370Y-67065640D01*
X134691120Y-67065640D01*
X134437120Y-67065640D01*
X132337870Y-67065640D01*
X132179120Y-67224390D01*
X132176048Y-68438640D01*
X132112444Y-68438640D01*
X131997193Y-68223022D01*
X131809023Y-67993737D01*
X131579738Y-67805567D01*
X131318148Y-67665744D01*
X131034306Y-67579641D01*
X130739120Y-67550568D01*
X128989120Y-67550568D01*
X128693934Y-67579641D01*
X128410092Y-67665744D01*
X128148502Y-67805567D01*
X127919217Y-67993737D01*
X127731047Y-68223022D01*
X127591224Y-68484612D01*
X127505121Y-68768454D01*
X127476048Y-69063640D01*
X110255920Y-69063640D01*
X110255920Y-66160129D01*
X111820260Y-66160129D01*
X111820260Y-66432951D01*
X111873485Y-66700529D01*
X111977889Y-66952583D01*
X112129461Y-67179426D01*
X112322374Y-67372339D01*
X112549217Y-67523911D01*
X112801271Y-67628315D01*
X113068849Y-67681540D01*
X113341671Y-67681540D01*
X113609249Y-67628315D01*
X113861303Y-67523911D01*
X114088146Y-67372339D01*
X114281059Y-67179426D01*
X114432631Y-66952583D01*
X114537035Y-66700529D01*
X114590260Y-66432951D01*
X114590260Y-66160129D01*
X114537035Y-65892551D01*
X114432631Y-65640497D01*
X114281059Y-65413654D01*
X114088146Y-65220741D01*
X113861303Y-65069169D01*
X113609249Y-64964765D01*
X113341671Y-64911540D01*
X113068849Y-64911540D01*
X112801271Y-64964765D01*
X112549217Y-65069169D01*
X112322374Y-65220741D01*
X112129461Y-65413654D01*
X111977889Y-65640497D01*
X111873485Y-65892551D01*
X111820260Y-66160129D01*
X110255920Y-66160129D01*
X110255920Y-63751379D01*
X116562340Y-63751379D01*
X116562340Y-64132541D01*
X116636701Y-64506379D01*
X116782565Y-64858526D01*
X116994327Y-65175451D01*
X117263849Y-65444973D01*
X117580774Y-65656735D01*
X117932921Y-65802599D01*
X118306759Y-65876960D01*
X118687921Y-65876960D01*
X119061759Y-65802599D01*
X119413906Y-65656735D01*
X119730831Y-65444973D01*
X119933844Y-65241960D01*
X121559268Y-65241960D01*
X121571528Y-65366442D01*
X121607838Y-65486140D01*
X121666803Y-65596454D01*
X121746155Y-65693145D01*
X121842846Y-65772497D01*
X121953160Y-65831462D01*
X122072858Y-65867772D01*
X122197340Y-65880032D01*
X123211590Y-65876960D01*
X123370340Y-65718210D01*
X123370340Y-64068960D01*
X123624340Y-64068960D01*
X123624340Y-65718210D01*
X123783090Y-65876960D01*
X124797340Y-65880032D01*
X124921822Y-65867772D01*
X125041520Y-65831462D01*
X125151834Y-65772497D01*
X125248525Y-65693145D01*
X125327877Y-65596454D01*
X125386842Y-65486140D01*
X125401250Y-65438640D01*
X132176048Y-65438640D01*
X132179120Y-66652890D01*
X132337870Y-66811640D01*
X134437120Y-66811640D01*
X134437120Y-64962390D01*
X134691120Y-64962390D01*
X134691120Y-66811640D01*
X136790370Y-66811640D01*
X136949120Y-66652890D01*
X136952192Y-65438640D01*
X136939932Y-65314158D01*
X136903622Y-65194460D01*
X136844657Y-65084146D01*
X136765305Y-64987455D01*
X136668614Y-64908103D01*
X136558300Y-64849138D01*
X136438602Y-64812828D01*
X136314120Y-64800568D01*
X134849870Y-64803640D01*
X134691120Y-64962390D01*
X134437120Y-64962390D01*
X134278370Y-64803640D01*
X132814120Y-64800568D01*
X132689638Y-64812828D01*
X132569940Y-64849138D01*
X132459626Y-64908103D01*
X132362935Y-64987455D01*
X132283583Y-65084146D01*
X132224618Y-65194460D01*
X132188308Y-65314158D01*
X132176048Y-65438640D01*
X125401250Y-65438640D01*
X125423152Y-65366442D01*
X125435412Y-65241960D01*
X125432340Y-64227710D01*
X125273590Y-64068960D01*
X123624340Y-64068960D01*
X123370340Y-64068960D01*
X121721090Y-64068960D01*
X121562340Y-64227710D01*
X121559268Y-65241960D01*
X119933844Y-65241960D01*
X120000353Y-65175451D01*
X120212115Y-64858526D01*
X120357979Y-64506379D01*
X120432340Y-64132541D01*
X120432340Y-63751379D01*
X120357979Y-63377541D01*
X120212115Y-63025394D01*
X120000353Y-62708469D01*
X119933844Y-62641960D01*
X121559268Y-62641960D01*
X121562340Y-63656210D01*
X121721090Y-63814960D01*
X123370340Y-63814960D01*
X123370340Y-62165710D01*
X123624340Y-62165710D01*
X123624340Y-63814960D01*
X125273590Y-63814960D01*
X125432340Y-63656210D01*
X125435412Y-62641960D01*
X125423152Y-62517478D01*
X125386842Y-62397780D01*
X125327877Y-62287466D01*
X125248525Y-62190775D01*
X125151834Y-62111423D01*
X125041520Y-62052458D01*
X124921822Y-62016148D01*
X124797340Y-62003888D01*
X123783090Y-62006960D01*
X123624340Y-62165710D01*
X123370340Y-62165710D01*
X123211590Y-62006960D01*
X122197340Y-62003888D01*
X122072858Y-62016148D01*
X121953160Y-62052458D01*
X121842846Y-62111423D01*
X121746155Y-62190775D01*
X121666803Y-62287466D01*
X121607838Y-62397780D01*
X121571528Y-62517478D01*
X121559268Y-62641960D01*
X119933844Y-62641960D01*
X119730831Y-62438947D01*
X119413906Y-62227185D01*
X119061759Y-62081321D01*
X118687921Y-62006960D01*
X118306759Y-62006960D01*
X117932921Y-62081321D01*
X117580774Y-62227185D01*
X117263849Y-62438947D01*
X116994327Y-62708469D01*
X116782565Y-63025394D01*
X116636701Y-63377541D01*
X116562340Y-63751379D01*
X110255920Y-63751379D01*
X110255920Y-59925984D01*
X110535400Y-59925984D01*
X110535400Y-60297296D01*
X110607839Y-60661474D01*
X110749934Y-61004522D01*
X110956225Y-61313258D01*
X111218782Y-61575815D01*
X111527518Y-61782106D01*
X111870566Y-61924201D01*
X112234744Y-61996640D01*
X112606056Y-61996640D01*
X112970234Y-61924201D01*
X113313282Y-61782106D01*
X113622018Y-61575815D01*
X113884575Y-61313258D01*
X114090866Y-61004522D01*
X114232961Y-60661474D01*
X114305400Y-60297296D01*
X114305400Y-60098704D01*
X140649640Y-60098704D01*
X140649640Y-60470016D01*
X140722079Y-60834194D01*
X140864174Y-61177242D01*
X141070465Y-61485978D01*
X141333022Y-61748535D01*
X141641758Y-61954826D01*
X141984806Y-62096921D01*
X142348984Y-62169360D01*
X142720296Y-62169360D01*
X143084474Y-62096921D01*
X143427522Y-61954826D01*
X143736258Y-61748535D01*
X143998815Y-61485978D01*
X144205106Y-61177242D01*
X144347201Y-60834194D01*
X144419640Y-60470016D01*
X144419640Y-60098704D01*
X144347201Y-59734526D01*
X144205106Y-59391478D01*
X143998815Y-59082742D01*
X143736258Y-58820185D01*
X143427522Y-58613894D01*
X143084474Y-58471799D01*
X142720296Y-58399360D01*
X142348984Y-58399360D01*
X141984806Y-58471799D01*
X141641758Y-58613894D01*
X141333022Y-58820185D01*
X141070465Y-59082742D01*
X140864174Y-59391478D01*
X140722079Y-59734526D01*
X140649640Y-60098704D01*
X114305400Y-60098704D01*
X114305400Y-59925984D01*
X114232961Y-59561806D01*
X114090866Y-59218758D01*
X113884575Y-58910022D01*
X113622018Y-58647465D01*
X113313282Y-58441174D01*
X112970234Y-58299079D01*
X112606056Y-58226640D01*
X112234744Y-58226640D01*
X111870566Y-58299079D01*
X111527518Y-58441174D01*
X111218782Y-58647465D01*
X110956225Y-58910022D01*
X110749934Y-59218758D01*
X110607839Y-59561806D01*
X110535400Y-59925984D01*
X110255920Y-59925984D01*
X110255920Y-57947160D01*
X144800720Y-57947160D01*
X144800721Y-99776680D01*
G37*
%TD.AperFunction*%
%TD*%
M02*
