M48
; DRILL file {KiCad (5.1.10-1-10_14)} date Thursday, October 28, 2021 at 01:44:05 PM
; FORMAT={-:-/ absolute / inch / decimal}
; #@! TF.CreationDate,2021-10-28T13:44:05-04:00
; #@! TF.GenerationSoftware,Kicad,Pcbnew,(5.1.10-1-10_14)
; #@! TF.FileFunction,Plated,1,2,PTH
FMAT,2
INCH
T1C0.0157
T2C0.0394
%
G90
G05
T1
X4.35Y-3.19
X4.38Y-3.43
X4.3932Y-3.7032
X4.4Y-3.48
X4.44Y-3.29
X4.44Y-3.51
X4.44Y-3.57
X4.5Y-3.57
X4.55Y-3.45
X4.68Y-3.26
X4.6861Y-3.9376
X4.69Y-3.45
X4.7076Y-3.8399
X4.7223Y-3.5746
X4.74Y-3.3
X4.74Y-3.8176
X4.75Y-3.96
X4.79Y-3.65
X4.81Y-3.31
X4.84Y-3.82
X4.8494Y-3.31
X4.89Y-3.76
X4.9Y-3.55
X4.9352Y-3.6198
X4.973Y-3.6309
X4.98Y-3.16
X5.0489Y-3.5562
X5.1021Y-3.5133
X5.18Y-3.28
X5.197Y-3.4424
X5.21Y-3.56
X5.276Y-3.5052
X5.28Y-3.27
X5.29Y-3.7
X5.32Y-4.04
X5.33Y-3.8176
X5.34Y-3.7
X5.38Y-3.22
X5.4Y-3.7
X5.4Y-3.75
X5.47Y-3.19
X5.4944Y-3.6067
X5.5Y-3.39
X5.54Y-3.62
X5.5608Y-3.7796
X5.57Y-3.3676
X5.58Y-3.6
X5.58Y-3.73
X5.61Y-3.63
X5.62Y-3.98
X5.64Y-3.43
X5.64Y-3.59
X5.6775Y-4.0945
X5.68Y-3.79
X5.6964Y-4.06
X5.7Y-3.6
X5.74Y-3.34
X5.76Y-3.89
X5.78Y-3.18
X5.7822Y-3.2534
X5.7867Y-3.4577
X5.8Y-3.86
X5.8261Y-3.5675
X5.86Y-3.92
X5.8602Y-3.4651
X6.01Y-3.8
X6.03Y-3.99
X6.04Y-3.77
X6.14Y-3.47
X6.36Y-3.7
X6.43Y-3.69
X6.88Y-4.04
X7.06Y-4.01
T2
X4.43Y-3.05
X4.53Y-3.05
X4.63Y-3.05
X4.73Y-3.05
X4.83Y-3.05
X4.93Y-3.05
X5.03Y-3.05
X5.13Y-3.05
X5.23Y-3.05
X5.33Y-3.05
X5.43Y-3.05
X5.53Y-3.05
X5.63Y-3.05
X5.73Y-3.05
X5.76Y-4.19
X5.83Y-3.05
X5.86Y-4.19
X5.93Y-3.05
X5.96Y-4.19
X6.06Y-4.19
X6.16Y-4.19
X6.26Y-4.19
X6.36Y-4.19
X6.46Y-4.19
X6.56Y-4.19
X6.66Y-4.19
X6.76Y-4.19
X6.86Y-4.19
X6.96Y-4.19
X7.06Y-4.19
X7.16Y-4.19
X7.26Y-4.19
T0
M30
