M48
; DRILL file {KiCad (6.0.0-0)} date Friday, January 07, 2022 at 10:13:46 PM
; FORMAT={-:-/ absolute / inch / decimal}
; #@! TF.CreationDate,2022-01-07T22:13:46-05:00
; #@! TF.GenerationSoftware,Kicad,Pcbnew,(6.0.0-0)
; #@! TF.FileFunction,Plated,1,2,PTH
FMAT,2
INCH
; #@! TA.AperFunction,Plated,PTH,ComponentDrill
T1C0.0394
; #@! TA.AperFunction,Plated,PTH,ComponentDrill
T2C0.0472
; #@! TA.AperFunction,Plated,PTH,ComponentDrill
T3C0.0984
%
G90
G05
T1
X4.67Y-3.76
X4.67Y-3.86
X4.77Y-3.76
X4.77Y-3.86
X4.85Y-4.35
X4.87Y-3.76
X4.87Y-3.86
X4.95Y-4.35
X4.97Y-3.76
X4.97Y-3.86
X5.05Y-4.35
X5.07Y-3.76
X5.07Y-3.86
X5.15Y-4.35
X5.17Y-3.76
X5.17Y-3.86
X5.25Y-4.35
X5.27Y-3.76
X5.27Y-3.86
X5.35Y-4.35
X5.37Y-3.76
X5.37Y-3.86
X5.45Y-4.35
X5.47Y-3.76
X5.47Y-3.86
X5.55Y-4.35
X5.57Y-3.76
X5.57Y-3.86
X5.65Y-4.35
X5.75Y-4.35
X5.85Y-4.35
X5.95Y-4.35
T2
X4.12Y-3.2
X4.22Y-3.2
X4.32Y-3.2
X4.42Y-3.2
X4.52Y-3.2
X4.62Y-3.2
X4.72Y-3.2
X4.82Y-3.2
X4.92Y-3.2
X5.02Y-3.2
X5.12Y-3.2
X5.22Y-3.2
X5.32Y-3.2
X5.42Y-3.2
X5.52Y-3.2
X5.62Y-3.2
T3
X3.9035Y-3.2
X3.9035Y-4.4205
X6.8562Y-4.4205
X6.8562Y-3.2
T0
M30
