%TF.GenerationSoftware,KiCad,Pcbnew,(6.0.0-0)*%
%TF.CreationDate,2022-07-05T21:41:23-04:00*%
%TF.ProjectId,IO-VGA-DAC,494f2d56-4741-42d4-9441-432e6b696361,rev?*%
%TF.SameCoordinates,Original*%
%TF.FileFunction,Copper,L2,Bot*%
%TF.FilePolarity,Positive*%
%FSLAX46Y46*%
G04 Gerber Fmt 4.6, Leading zero omitted, Abs format (unit mm)*
G04 Created by KiCad (PCBNEW (6.0.0-0)) date 2022-07-05 21:41:23*
%MOMM*%
%LPD*%
G01*
G04 APERTURE LIST*
%TA.AperFunction,ComponentPad*%
%ADD10O,1.700000X1.700000*%
%TD*%
%TA.AperFunction,ComponentPad*%
%ADD11R,1.700000X1.700000*%
%TD*%
%TA.AperFunction,ViaPad*%
%ADD12C,0.800000*%
%TD*%
G04 APERTURE END LIST*
D10*
%TO.P,J2,9,Pin_9*%
%TO.N,COLOR0*%
X172720000Y-130810000D03*
%TO.P,J2,8,Pin_8*%
%TO.N,COLOR1*%
X170180000Y-130810000D03*
%TO.P,J2,7,Pin_7*%
%TO.N,COLOR2*%
X167640000Y-130810000D03*
%TO.P,J2,6,Pin_6*%
%TO.N,COLOR3*%
X165100000Y-130810000D03*
%TO.P,J2,5,Pin_5*%
%TO.N,COLOR4*%
X162560000Y-130810000D03*
%TO.P,J2,4,Pin_4*%
%TO.N,COLOR5*%
X160020000Y-130810000D03*
%TO.P,J2,3,Pin_3*%
%TO.N,COLOR6*%
X157480000Y-130810000D03*
%TO.P,J2,2,Pin_2*%
%TO.N,COLOR7*%
X154940000Y-130810000D03*
D11*
%TO.P,J2,1,Pin_1*%
%TO.N,GND*%
X152400000Y-130810000D03*
%TD*%
%TO.P,J4,1,Pin_1*%
%TO.N,unconnected-(J4-Pad1)*%
X173228000Y-115570000D03*
D10*
%TO.P,J4,2,Pin_2*%
%TO.N,unconnected-(J4-Pad2)*%
X175768000Y-115570000D03*
%TO.P,J4,3,Pin_3*%
%TO.N,unconnected-(J4-Pad3)*%
X178308000Y-115570000D03*
%TO.P,J4,4,Pin_4*%
%TO.N,unconnected-(J4-Pad4)*%
X180848000Y-115570000D03*
%TD*%
D11*
%TO.P,J1,1,Pin_1*%
%TO.N,VGA_RED*%
X149845000Y-115570000D03*
D10*
%TO.P,J1,2,Pin_2*%
%TO.N,VGA_GREEN*%
X147305000Y-115570000D03*
%TO.P,J1,3,Pin_3*%
%TO.N,VGA_BLUE*%
X144765000Y-115570000D03*
%TD*%
D12*
%TO.N,GND*%
X173228000Y-119888000D03*
X152908000Y-121666000D03*
X164592000Y-119888000D03*
%TD*%
%TA.AperFunction,Conductor*%
%TO.N,GND*%
G36*
X172119260Y-114066002D02*
G01*
X172165753Y-114119658D01*
X172175857Y-114189932D01*
X172146363Y-114254512D01*
X172126705Y-114272825D01*
X172014739Y-114356739D01*
X171927385Y-114473295D01*
X171876255Y-114609684D01*
X171869500Y-114671866D01*
X171869500Y-116468134D01*
X171876255Y-116530316D01*
X171927385Y-116666705D01*
X172014739Y-116783261D01*
X172131295Y-116870615D01*
X172267684Y-116921745D01*
X172329866Y-116928500D01*
X174126134Y-116928500D01*
X174188316Y-116921745D01*
X174324705Y-116870615D01*
X174441261Y-116783261D01*
X174528615Y-116666705D01*
X174550799Y-116607529D01*
X174572598Y-116549382D01*
X174615240Y-116492618D01*
X174681802Y-116467918D01*
X174751150Y-116483126D01*
X174785817Y-116511114D01*
X174814250Y-116543938D01*
X174986126Y-116686632D01*
X175179000Y-116799338D01*
X175387692Y-116879030D01*
X175392760Y-116880061D01*
X175392763Y-116880062D01*
X175500017Y-116901883D01*
X175606597Y-116923567D01*
X175611772Y-116923757D01*
X175611774Y-116923757D01*
X175824673Y-116931564D01*
X175824677Y-116931564D01*
X175829837Y-116931753D01*
X175834957Y-116931097D01*
X175834959Y-116931097D01*
X176046288Y-116904025D01*
X176046289Y-116904025D01*
X176051416Y-116903368D01*
X176056366Y-116901883D01*
X176260429Y-116840661D01*
X176260434Y-116840659D01*
X176265384Y-116839174D01*
X176465994Y-116740896D01*
X176647860Y-116611173D01*
X176806096Y-116453489D01*
X176865594Y-116370689D01*
X176936453Y-116272077D01*
X176937776Y-116273028D01*
X176984645Y-116229857D01*
X177054580Y-116217625D01*
X177120026Y-116245144D01*
X177147875Y-116276994D01*
X177207987Y-116375088D01*
X177354250Y-116543938D01*
X177526126Y-116686632D01*
X177719000Y-116799338D01*
X177927692Y-116879030D01*
X177932760Y-116880061D01*
X177932763Y-116880062D01*
X178040017Y-116901883D01*
X178146597Y-116923567D01*
X178151772Y-116923757D01*
X178151774Y-116923757D01*
X178364673Y-116931564D01*
X178364677Y-116931564D01*
X178369837Y-116931753D01*
X178374957Y-116931097D01*
X178374959Y-116931097D01*
X178586288Y-116904025D01*
X178586289Y-116904025D01*
X178591416Y-116903368D01*
X178596366Y-116901883D01*
X178800429Y-116840661D01*
X178800434Y-116840659D01*
X178805384Y-116839174D01*
X179005994Y-116740896D01*
X179187860Y-116611173D01*
X179346096Y-116453489D01*
X179405594Y-116370689D01*
X179476453Y-116272077D01*
X179477776Y-116273028D01*
X179524645Y-116229857D01*
X179594580Y-116217625D01*
X179660026Y-116245144D01*
X179687875Y-116276994D01*
X179747987Y-116375088D01*
X179894250Y-116543938D01*
X180066126Y-116686632D01*
X180259000Y-116799338D01*
X180467692Y-116879030D01*
X180472760Y-116880061D01*
X180472763Y-116880062D01*
X180580017Y-116901883D01*
X180686597Y-116923567D01*
X180691772Y-116923757D01*
X180691774Y-116923757D01*
X180904673Y-116931564D01*
X180904677Y-116931564D01*
X180909837Y-116931753D01*
X180914957Y-116931097D01*
X180914959Y-116931097D01*
X181126288Y-116904025D01*
X181126289Y-116904025D01*
X181131416Y-116903368D01*
X181136366Y-116901883D01*
X181340429Y-116840661D01*
X181340434Y-116840659D01*
X181345384Y-116839174D01*
X181545994Y-116740896D01*
X181727860Y-116611173D01*
X181886096Y-116453489D01*
X181945594Y-116370689D01*
X182013435Y-116276277D01*
X182016453Y-116272077D01*
X182037320Y-116229857D01*
X182113136Y-116076453D01*
X182113137Y-116076451D01*
X182115430Y-116071811D01*
X182125442Y-116038858D01*
X182164383Y-115979494D01*
X182229237Y-115950607D01*
X182299413Y-115961369D01*
X182352631Y-116008362D01*
X182372000Y-116075487D01*
X182372000Y-133478000D01*
X182351998Y-133546121D01*
X182298342Y-133592614D01*
X182246000Y-133604000D01*
X143382000Y-133604000D01*
X143313879Y-133583998D01*
X143267386Y-133530342D01*
X143256000Y-133478000D01*
X143256000Y-131704669D01*
X151042001Y-131704669D01*
X151042371Y-131711490D01*
X151047895Y-131762352D01*
X151051521Y-131777604D01*
X151096676Y-131898054D01*
X151105214Y-131913649D01*
X151181715Y-132015724D01*
X151194276Y-132028285D01*
X151296351Y-132104786D01*
X151311946Y-132113324D01*
X151432394Y-132158478D01*
X151447649Y-132162105D01*
X151498514Y-132167631D01*
X151505328Y-132168000D01*
X152127885Y-132168000D01*
X152143124Y-132163525D01*
X152144329Y-132162135D01*
X152146000Y-132154452D01*
X152146000Y-132149884D01*
X152654000Y-132149884D01*
X152658475Y-132165123D01*
X152659865Y-132166328D01*
X152667548Y-132167999D01*
X153294669Y-132167999D01*
X153301490Y-132167629D01*
X153352352Y-132162105D01*
X153367604Y-132158479D01*
X153488054Y-132113324D01*
X153503649Y-132104786D01*
X153605724Y-132028285D01*
X153618285Y-132015724D01*
X153694786Y-131913649D01*
X153703324Y-131898054D01*
X153744225Y-131788952D01*
X153786867Y-131732188D01*
X153853428Y-131707488D01*
X153922777Y-131722696D01*
X153957444Y-131750684D01*
X153982865Y-131780031D01*
X153982869Y-131780035D01*
X153986250Y-131783938D01*
X154158126Y-131926632D01*
X154351000Y-132039338D01*
X154559692Y-132119030D01*
X154564760Y-132120061D01*
X154564763Y-132120062D01*
X154672017Y-132141883D01*
X154778597Y-132163567D01*
X154783772Y-132163757D01*
X154783774Y-132163757D01*
X154996673Y-132171564D01*
X154996677Y-132171564D01*
X155001837Y-132171753D01*
X155006957Y-132171097D01*
X155006959Y-132171097D01*
X155218288Y-132144025D01*
X155218289Y-132144025D01*
X155223416Y-132143368D01*
X155228366Y-132141883D01*
X155432429Y-132080661D01*
X155432434Y-132080659D01*
X155437384Y-132079174D01*
X155637994Y-131980896D01*
X155819860Y-131851173D01*
X155978096Y-131693489D01*
X156108453Y-131512077D01*
X156109776Y-131513028D01*
X156156645Y-131469857D01*
X156226580Y-131457625D01*
X156292026Y-131485144D01*
X156319875Y-131516994D01*
X156379987Y-131615088D01*
X156526250Y-131783938D01*
X156698126Y-131926632D01*
X156891000Y-132039338D01*
X157099692Y-132119030D01*
X157104760Y-132120061D01*
X157104763Y-132120062D01*
X157212017Y-132141883D01*
X157318597Y-132163567D01*
X157323772Y-132163757D01*
X157323774Y-132163757D01*
X157536673Y-132171564D01*
X157536677Y-132171564D01*
X157541837Y-132171753D01*
X157546957Y-132171097D01*
X157546959Y-132171097D01*
X157758288Y-132144025D01*
X157758289Y-132144025D01*
X157763416Y-132143368D01*
X157768366Y-132141883D01*
X157972429Y-132080661D01*
X157972434Y-132080659D01*
X157977384Y-132079174D01*
X158177994Y-131980896D01*
X158359860Y-131851173D01*
X158518096Y-131693489D01*
X158648453Y-131512077D01*
X158649776Y-131513028D01*
X158696645Y-131469857D01*
X158766580Y-131457625D01*
X158832026Y-131485144D01*
X158859875Y-131516994D01*
X158919987Y-131615088D01*
X159066250Y-131783938D01*
X159238126Y-131926632D01*
X159431000Y-132039338D01*
X159639692Y-132119030D01*
X159644760Y-132120061D01*
X159644763Y-132120062D01*
X159752017Y-132141883D01*
X159858597Y-132163567D01*
X159863772Y-132163757D01*
X159863774Y-132163757D01*
X160076673Y-132171564D01*
X160076677Y-132171564D01*
X160081837Y-132171753D01*
X160086957Y-132171097D01*
X160086959Y-132171097D01*
X160298288Y-132144025D01*
X160298289Y-132144025D01*
X160303416Y-132143368D01*
X160308366Y-132141883D01*
X160512429Y-132080661D01*
X160512434Y-132080659D01*
X160517384Y-132079174D01*
X160717994Y-131980896D01*
X160899860Y-131851173D01*
X161058096Y-131693489D01*
X161188453Y-131512077D01*
X161189776Y-131513028D01*
X161236645Y-131469857D01*
X161306580Y-131457625D01*
X161372026Y-131485144D01*
X161399875Y-131516994D01*
X161459987Y-131615088D01*
X161606250Y-131783938D01*
X161778126Y-131926632D01*
X161971000Y-132039338D01*
X162179692Y-132119030D01*
X162184760Y-132120061D01*
X162184763Y-132120062D01*
X162292017Y-132141883D01*
X162398597Y-132163567D01*
X162403772Y-132163757D01*
X162403774Y-132163757D01*
X162616673Y-132171564D01*
X162616677Y-132171564D01*
X162621837Y-132171753D01*
X162626957Y-132171097D01*
X162626959Y-132171097D01*
X162838288Y-132144025D01*
X162838289Y-132144025D01*
X162843416Y-132143368D01*
X162848366Y-132141883D01*
X163052429Y-132080661D01*
X163052434Y-132080659D01*
X163057384Y-132079174D01*
X163257994Y-131980896D01*
X163439860Y-131851173D01*
X163598096Y-131693489D01*
X163728453Y-131512077D01*
X163729776Y-131513028D01*
X163776645Y-131469857D01*
X163846580Y-131457625D01*
X163912026Y-131485144D01*
X163939875Y-131516994D01*
X163999987Y-131615088D01*
X164146250Y-131783938D01*
X164318126Y-131926632D01*
X164511000Y-132039338D01*
X164719692Y-132119030D01*
X164724760Y-132120061D01*
X164724763Y-132120062D01*
X164832017Y-132141883D01*
X164938597Y-132163567D01*
X164943772Y-132163757D01*
X164943774Y-132163757D01*
X165156673Y-132171564D01*
X165156677Y-132171564D01*
X165161837Y-132171753D01*
X165166957Y-132171097D01*
X165166959Y-132171097D01*
X165378288Y-132144025D01*
X165378289Y-132144025D01*
X165383416Y-132143368D01*
X165388366Y-132141883D01*
X165592429Y-132080661D01*
X165592434Y-132080659D01*
X165597384Y-132079174D01*
X165797994Y-131980896D01*
X165979860Y-131851173D01*
X166138096Y-131693489D01*
X166268453Y-131512077D01*
X166269776Y-131513028D01*
X166316645Y-131469857D01*
X166386580Y-131457625D01*
X166452026Y-131485144D01*
X166479875Y-131516994D01*
X166539987Y-131615088D01*
X166686250Y-131783938D01*
X166858126Y-131926632D01*
X167051000Y-132039338D01*
X167259692Y-132119030D01*
X167264760Y-132120061D01*
X167264763Y-132120062D01*
X167372017Y-132141883D01*
X167478597Y-132163567D01*
X167483772Y-132163757D01*
X167483774Y-132163757D01*
X167696673Y-132171564D01*
X167696677Y-132171564D01*
X167701837Y-132171753D01*
X167706957Y-132171097D01*
X167706959Y-132171097D01*
X167918288Y-132144025D01*
X167918289Y-132144025D01*
X167923416Y-132143368D01*
X167928366Y-132141883D01*
X168132429Y-132080661D01*
X168132434Y-132080659D01*
X168137384Y-132079174D01*
X168337994Y-131980896D01*
X168519860Y-131851173D01*
X168678096Y-131693489D01*
X168808453Y-131512077D01*
X168809776Y-131513028D01*
X168856645Y-131469857D01*
X168926580Y-131457625D01*
X168992026Y-131485144D01*
X169019875Y-131516994D01*
X169079987Y-131615088D01*
X169226250Y-131783938D01*
X169398126Y-131926632D01*
X169591000Y-132039338D01*
X169799692Y-132119030D01*
X169804760Y-132120061D01*
X169804763Y-132120062D01*
X169912017Y-132141883D01*
X170018597Y-132163567D01*
X170023772Y-132163757D01*
X170023774Y-132163757D01*
X170236673Y-132171564D01*
X170236677Y-132171564D01*
X170241837Y-132171753D01*
X170246957Y-132171097D01*
X170246959Y-132171097D01*
X170458288Y-132144025D01*
X170458289Y-132144025D01*
X170463416Y-132143368D01*
X170468366Y-132141883D01*
X170672429Y-132080661D01*
X170672434Y-132080659D01*
X170677384Y-132079174D01*
X170877994Y-131980896D01*
X171059860Y-131851173D01*
X171218096Y-131693489D01*
X171348453Y-131512077D01*
X171349776Y-131513028D01*
X171396645Y-131469857D01*
X171466580Y-131457625D01*
X171532026Y-131485144D01*
X171559875Y-131516994D01*
X171619987Y-131615088D01*
X171766250Y-131783938D01*
X171938126Y-131926632D01*
X172131000Y-132039338D01*
X172339692Y-132119030D01*
X172344760Y-132120061D01*
X172344763Y-132120062D01*
X172452017Y-132141883D01*
X172558597Y-132163567D01*
X172563772Y-132163757D01*
X172563774Y-132163757D01*
X172776673Y-132171564D01*
X172776677Y-132171564D01*
X172781837Y-132171753D01*
X172786957Y-132171097D01*
X172786959Y-132171097D01*
X172998288Y-132144025D01*
X172998289Y-132144025D01*
X173003416Y-132143368D01*
X173008366Y-132141883D01*
X173212429Y-132080661D01*
X173212434Y-132080659D01*
X173217384Y-132079174D01*
X173417994Y-131980896D01*
X173599860Y-131851173D01*
X173758096Y-131693489D01*
X173888453Y-131512077D01*
X173909320Y-131469857D01*
X173985136Y-131316453D01*
X173985137Y-131316451D01*
X173987430Y-131311811D01*
X174052370Y-131098069D01*
X174081529Y-130876590D01*
X174083156Y-130810000D01*
X174064852Y-130587361D01*
X174010431Y-130370702D01*
X173921354Y-130165840D01*
X173800014Y-129978277D01*
X173649670Y-129813051D01*
X173645619Y-129809852D01*
X173645615Y-129809848D01*
X173478414Y-129677800D01*
X173478410Y-129677798D01*
X173474359Y-129674598D01*
X173278789Y-129566638D01*
X173273920Y-129564914D01*
X173273916Y-129564912D01*
X173073087Y-129493795D01*
X173073083Y-129493794D01*
X173068212Y-129492069D01*
X173063119Y-129491162D01*
X173063116Y-129491161D01*
X172853373Y-129453800D01*
X172853367Y-129453799D01*
X172848284Y-129452894D01*
X172774452Y-129451992D01*
X172630081Y-129450228D01*
X172630079Y-129450228D01*
X172624911Y-129450165D01*
X172404091Y-129483955D01*
X172191756Y-129553357D01*
X171993607Y-129656507D01*
X171989474Y-129659610D01*
X171989471Y-129659612D01*
X171906450Y-129721946D01*
X171814965Y-129790635D01*
X171660629Y-129952138D01*
X171553201Y-130109621D01*
X171498293Y-130154621D01*
X171427768Y-130162792D01*
X171364021Y-130131538D01*
X171343324Y-130107054D01*
X171262822Y-129982617D01*
X171262820Y-129982614D01*
X171260014Y-129978277D01*
X171109670Y-129813051D01*
X171105619Y-129809852D01*
X171105615Y-129809848D01*
X170938414Y-129677800D01*
X170938410Y-129677798D01*
X170934359Y-129674598D01*
X170738789Y-129566638D01*
X170733920Y-129564914D01*
X170733916Y-129564912D01*
X170533087Y-129493795D01*
X170533083Y-129493794D01*
X170528212Y-129492069D01*
X170523119Y-129491162D01*
X170523116Y-129491161D01*
X170313373Y-129453800D01*
X170313367Y-129453799D01*
X170308284Y-129452894D01*
X170234452Y-129451992D01*
X170090081Y-129450228D01*
X170090079Y-129450228D01*
X170084911Y-129450165D01*
X169864091Y-129483955D01*
X169651756Y-129553357D01*
X169453607Y-129656507D01*
X169449474Y-129659610D01*
X169449471Y-129659612D01*
X169366450Y-129721946D01*
X169274965Y-129790635D01*
X169120629Y-129952138D01*
X169013201Y-130109621D01*
X168958293Y-130154621D01*
X168887768Y-130162792D01*
X168824021Y-130131538D01*
X168803324Y-130107054D01*
X168722822Y-129982617D01*
X168722820Y-129982614D01*
X168720014Y-129978277D01*
X168569670Y-129813051D01*
X168565619Y-129809852D01*
X168565615Y-129809848D01*
X168398414Y-129677800D01*
X168398410Y-129677798D01*
X168394359Y-129674598D01*
X168198789Y-129566638D01*
X168193920Y-129564914D01*
X168193916Y-129564912D01*
X167993087Y-129493795D01*
X167993083Y-129493794D01*
X167988212Y-129492069D01*
X167983119Y-129491162D01*
X167983116Y-129491161D01*
X167773373Y-129453800D01*
X167773367Y-129453799D01*
X167768284Y-129452894D01*
X167694452Y-129451992D01*
X167550081Y-129450228D01*
X167550079Y-129450228D01*
X167544911Y-129450165D01*
X167324091Y-129483955D01*
X167111756Y-129553357D01*
X166913607Y-129656507D01*
X166909474Y-129659610D01*
X166909471Y-129659612D01*
X166826450Y-129721946D01*
X166734965Y-129790635D01*
X166580629Y-129952138D01*
X166473201Y-130109621D01*
X166418293Y-130154621D01*
X166347768Y-130162792D01*
X166284021Y-130131538D01*
X166263324Y-130107054D01*
X166182822Y-129982617D01*
X166182820Y-129982614D01*
X166180014Y-129978277D01*
X166029670Y-129813051D01*
X166025619Y-129809852D01*
X166025615Y-129809848D01*
X165858414Y-129677800D01*
X165858410Y-129677798D01*
X165854359Y-129674598D01*
X165658789Y-129566638D01*
X165653920Y-129564914D01*
X165653916Y-129564912D01*
X165453087Y-129493795D01*
X165453083Y-129493794D01*
X165448212Y-129492069D01*
X165443119Y-129491162D01*
X165443116Y-129491161D01*
X165233373Y-129453800D01*
X165233367Y-129453799D01*
X165228284Y-129452894D01*
X165154452Y-129451992D01*
X165010081Y-129450228D01*
X165010079Y-129450228D01*
X165004911Y-129450165D01*
X164784091Y-129483955D01*
X164571756Y-129553357D01*
X164373607Y-129656507D01*
X164369474Y-129659610D01*
X164369471Y-129659612D01*
X164286450Y-129721946D01*
X164194965Y-129790635D01*
X164040629Y-129952138D01*
X163933201Y-130109621D01*
X163878293Y-130154621D01*
X163807768Y-130162792D01*
X163744021Y-130131538D01*
X163723324Y-130107054D01*
X163642822Y-129982617D01*
X163642820Y-129982614D01*
X163640014Y-129978277D01*
X163489670Y-129813051D01*
X163485619Y-129809852D01*
X163485615Y-129809848D01*
X163318414Y-129677800D01*
X163318410Y-129677798D01*
X163314359Y-129674598D01*
X163118789Y-129566638D01*
X163113920Y-129564914D01*
X163113916Y-129564912D01*
X162913087Y-129493795D01*
X162913083Y-129493794D01*
X162908212Y-129492069D01*
X162903119Y-129491162D01*
X162903116Y-129491161D01*
X162693373Y-129453800D01*
X162693367Y-129453799D01*
X162688284Y-129452894D01*
X162614452Y-129451992D01*
X162470081Y-129450228D01*
X162470079Y-129450228D01*
X162464911Y-129450165D01*
X162244091Y-129483955D01*
X162031756Y-129553357D01*
X161833607Y-129656507D01*
X161829474Y-129659610D01*
X161829471Y-129659612D01*
X161746450Y-129721946D01*
X161654965Y-129790635D01*
X161500629Y-129952138D01*
X161393201Y-130109621D01*
X161338293Y-130154621D01*
X161267768Y-130162792D01*
X161204021Y-130131538D01*
X161183324Y-130107054D01*
X161102822Y-129982617D01*
X161102820Y-129982614D01*
X161100014Y-129978277D01*
X160949670Y-129813051D01*
X160945619Y-129809852D01*
X160945615Y-129809848D01*
X160778414Y-129677800D01*
X160778410Y-129677798D01*
X160774359Y-129674598D01*
X160578789Y-129566638D01*
X160573920Y-129564914D01*
X160573916Y-129564912D01*
X160373087Y-129493795D01*
X160373083Y-129493794D01*
X160368212Y-129492069D01*
X160363119Y-129491162D01*
X160363116Y-129491161D01*
X160153373Y-129453800D01*
X160153367Y-129453799D01*
X160148284Y-129452894D01*
X160074452Y-129451992D01*
X159930081Y-129450228D01*
X159930079Y-129450228D01*
X159924911Y-129450165D01*
X159704091Y-129483955D01*
X159491756Y-129553357D01*
X159293607Y-129656507D01*
X159289474Y-129659610D01*
X159289471Y-129659612D01*
X159206450Y-129721946D01*
X159114965Y-129790635D01*
X158960629Y-129952138D01*
X158853201Y-130109621D01*
X158798293Y-130154621D01*
X158727768Y-130162792D01*
X158664021Y-130131538D01*
X158643324Y-130107054D01*
X158562822Y-129982617D01*
X158562820Y-129982614D01*
X158560014Y-129978277D01*
X158409670Y-129813051D01*
X158405619Y-129809852D01*
X158405615Y-129809848D01*
X158238414Y-129677800D01*
X158238410Y-129677798D01*
X158234359Y-129674598D01*
X158038789Y-129566638D01*
X158033920Y-129564914D01*
X158033916Y-129564912D01*
X157833087Y-129493795D01*
X157833083Y-129493794D01*
X157828212Y-129492069D01*
X157823119Y-129491162D01*
X157823116Y-129491161D01*
X157613373Y-129453800D01*
X157613367Y-129453799D01*
X157608284Y-129452894D01*
X157534452Y-129451992D01*
X157390081Y-129450228D01*
X157390079Y-129450228D01*
X157384911Y-129450165D01*
X157164091Y-129483955D01*
X156951756Y-129553357D01*
X156753607Y-129656507D01*
X156749474Y-129659610D01*
X156749471Y-129659612D01*
X156666450Y-129721946D01*
X156574965Y-129790635D01*
X156420629Y-129952138D01*
X156313201Y-130109621D01*
X156258293Y-130154621D01*
X156187768Y-130162792D01*
X156124021Y-130131538D01*
X156103324Y-130107054D01*
X156022822Y-129982617D01*
X156022820Y-129982614D01*
X156020014Y-129978277D01*
X155869670Y-129813051D01*
X155865619Y-129809852D01*
X155865615Y-129809848D01*
X155698414Y-129677800D01*
X155698410Y-129677798D01*
X155694359Y-129674598D01*
X155498789Y-129566638D01*
X155493920Y-129564914D01*
X155493916Y-129564912D01*
X155293087Y-129493795D01*
X155293083Y-129493794D01*
X155288212Y-129492069D01*
X155283119Y-129491162D01*
X155283116Y-129491161D01*
X155073373Y-129453800D01*
X155073367Y-129453799D01*
X155068284Y-129452894D01*
X154994452Y-129451992D01*
X154850081Y-129450228D01*
X154850079Y-129450228D01*
X154844911Y-129450165D01*
X154624091Y-129483955D01*
X154411756Y-129553357D01*
X154213607Y-129656507D01*
X154209474Y-129659610D01*
X154209471Y-129659612D01*
X154126450Y-129721946D01*
X154034965Y-129790635D01*
X154031393Y-129794373D01*
X153953898Y-129875466D01*
X153892374Y-129910895D01*
X153821462Y-129907438D01*
X153763676Y-129866192D01*
X153744823Y-129832644D01*
X153703324Y-129721946D01*
X153694786Y-129706351D01*
X153618285Y-129604276D01*
X153605724Y-129591715D01*
X153503649Y-129515214D01*
X153488054Y-129506676D01*
X153367606Y-129461522D01*
X153352351Y-129457895D01*
X153301486Y-129452369D01*
X153294672Y-129452000D01*
X152672115Y-129452000D01*
X152656876Y-129456475D01*
X152655671Y-129457865D01*
X152654000Y-129465548D01*
X152654000Y-132149884D01*
X152146000Y-132149884D01*
X152146000Y-131082115D01*
X152141525Y-131066876D01*
X152140135Y-131065671D01*
X152132452Y-131064000D01*
X151060116Y-131064000D01*
X151044877Y-131068475D01*
X151043672Y-131069865D01*
X151042001Y-131077548D01*
X151042001Y-131704669D01*
X143256000Y-131704669D01*
X143256000Y-130537885D01*
X151042000Y-130537885D01*
X151046475Y-130553124D01*
X151047865Y-130554329D01*
X151055548Y-130556000D01*
X152127885Y-130556000D01*
X152143124Y-130551525D01*
X152144329Y-130550135D01*
X152146000Y-130542452D01*
X152146000Y-129470116D01*
X152141525Y-129454877D01*
X152140135Y-129453672D01*
X152132452Y-129452001D01*
X151505331Y-129452001D01*
X151498510Y-129452371D01*
X151447648Y-129457895D01*
X151432396Y-129461521D01*
X151311946Y-129506676D01*
X151296351Y-129515214D01*
X151194276Y-129591715D01*
X151181715Y-129604276D01*
X151105214Y-129706351D01*
X151096676Y-129721946D01*
X151051522Y-129842394D01*
X151047895Y-129857649D01*
X151042369Y-129908514D01*
X151042000Y-129915328D01*
X151042000Y-130537885D01*
X143256000Y-130537885D01*
X143256000Y-116110059D01*
X143276002Y-116041938D01*
X143329658Y-115995445D01*
X143399932Y-115985341D01*
X143464512Y-116014835D01*
X143498743Y-116062655D01*
X143503954Y-116075487D01*
X143548266Y-116184616D01*
X143585685Y-116245678D01*
X143662291Y-116370688D01*
X143664987Y-116375088D01*
X143811250Y-116543938D01*
X143983126Y-116686632D01*
X144176000Y-116799338D01*
X144384692Y-116879030D01*
X144389760Y-116880061D01*
X144389763Y-116880062D01*
X144497017Y-116901883D01*
X144603597Y-116923567D01*
X144608772Y-116923757D01*
X144608774Y-116923757D01*
X144821673Y-116931564D01*
X144821677Y-116931564D01*
X144826837Y-116931753D01*
X144831957Y-116931097D01*
X144831959Y-116931097D01*
X145043288Y-116904025D01*
X145043289Y-116904025D01*
X145048416Y-116903368D01*
X145053366Y-116901883D01*
X145257429Y-116840661D01*
X145257434Y-116840659D01*
X145262384Y-116839174D01*
X145462994Y-116740896D01*
X145644860Y-116611173D01*
X145803096Y-116453489D01*
X145862594Y-116370689D01*
X145933453Y-116272077D01*
X145934776Y-116273028D01*
X145981645Y-116229857D01*
X146051580Y-116217625D01*
X146117026Y-116245144D01*
X146144875Y-116276994D01*
X146204987Y-116375088D01*
X146351250Y-116543938D01*
X146523126Y-116686632D01*
X146716000Y-116799338D01*
X146924692Y-116879030D01*
X146929760Y-116880061D01*
X146929763Y-116880062D01*
X147037017Y-116901883D01*
X147143597Y-116923567D01*
X147148772Y-116923757D01*
X147148774Y-116923757D01*
X147361673Y-116931564D01*
X147361677Y-116931564D01*
X147366837Y-116931753D01*
X147371957Y-116931097D01*
X147371959Y-116931097D01*
X147583288Y-116904025D01*
X147583289Y-116904025D01*
X147588416Y-116903368D01*
X147593366Y-116901883D01*
X147797429Y-116840661D01*
X147797434Y-116840659D01*
X147802384Y-116839174D01*
X148002994Y-116740896D01*
X148184860Y-116611173D01*
X148293091Y-116503319D01*
X148355462Y-116469404D01*
X148426268Y-116474592D01*
X148483030Y-116517238D01*
X148500012Y-116548341D01*
X148522201Y-116607529D01*
X148544385Y-116666705D01*
X148631739Y-116783261D01*
X148748295Y-116870615D01*
X148884684Y-116921745D01*
X148946866Y-116928500D01*
X150743134Y-116928500D01*
X150805316Y-116921745D01*
X150941705Y-116870615D01*
X151058261Y-116783261D01*
X151145615Y-116666705D01*
X151196745Y-116530316D01*
X151203500Y-116468134D01*
X151203500Y-114671866D01*
X151196745Y-114609684D01*
X151145615Y-114473295D01*
X151058261Y-114356739D01*
X150946296Y-114272825D01*
X150903781Y-114215967D01*
X150898755Y-114145148D01*
X150932815Y-114082855D01*
X150995146Y-114048865D01*
X151021861Y-114046000D01*
X172051139Y-114046000D01*
X172119260Y-114066002D01*
G37*
%TD.AperFunction*%
%TD*%
M02*
