%TF.GenerationSoftware,KiCad,Pcbnew,(5.1.10-1-10_14)*%
%TF.CreationDate,2021-11-14T11:47:48-05:00*%
%TF.ProjectId,ALU-74181,414c552d-3734-4313-9831-2e6b69636164,rev?*%
%TF.SameCoordinates,Original*%
%TF.FileFunction,Copper,L4,Bot*%
%TF.FilePolarity,Positive*%
%FSLAX46Y46*%
G04 Gerber Fmt 4.6, Leading zero omitted, Abs format (unit mm)*
G04 Created by KiCad (PCBNEW (5.1.10-1-10_14)) date 2021-11-14 11:47:48*
%MOMM*%
%LPD*%
G01*
G04 APERTURE LIST*
%ADD10C,0.100000*%
%ADD11C,0.150000*%
%ADD12C,0.300000*%
%ADD13C,0.400000*%
%TA.AperFunction,ComponentPad*%
%ADD14O,1.700000X1.700000*%
%TD*%
%TA.AperFunction,ComponentPad*%
%ADD15R,1.700000X1.700000*%
%TD*%
%TA.AperFunction,ComponentPad*%
%ADD16O,1.600000X1.600000*%
%TD*%
%TA.AperFunction,ComponentPad*%
%ADD17R,1.600000X1.600000*%
%TD*%
%TA.AperFunction,ViaPad*%
%ADD18C,0.800000*%
%TD*%
%TA.AperFunction,Conductor*%
%ADD19C,0.200000*%
%TD*%
G04 APERTURE END LIST*
D10*
D11*
X177002200Y-166007200D02*
X177002200Y-198007200D01*
X285002200Y-198007200D01*
X285002200Y-166007200D01*
X177002200Y-166007200D01*
D10*
D11*
X10000000Y-10000000D02*
X10000000Y-200007200D01*
X287002200Y-200007200D01*
X287002200Y-10000000D01*
X10000000Y-10000000D01*
D10*
D11*
X12000000Y-12000000D02*
X12000000Y-198007200D01*
X285002200Y-198007200D01*
X285002200Y-12000000D01*
X12000000Y-12000000D01*
D10*
D11*
X60000000Y-12000000D02*
X60000000Y-10000000D01*
D10*
D11*
X110000000Y-12000000D02*
X110000000Y-10000000D01*
D10*
D11*
X160000000Y-12000000D02*
X160000000Y-10000000D01*
D10*
D11*
X210000000Y-12000000D02*
X210000000Y-10000000D01*
D10*
D11*
X260000000Y-12000000D02*
X260000000Y-10000000D01*
D10*
D11*
X36065476Y-11588095D02*
X35322619Y-11588095D01*
X35694047Y-11588095D02*
X35694047Y-10288095D01*
X35570238Y-10473809D01*
X35446428Y-10597619D01*
X35322619Y-10659523D01*
D10*
D11*
X85322619Y-10411904D02*
X85384523Y-10350000D01*
X85508333Y-10288095D01*
X85817857Y-10288095D01*
X85941666Y-10350000D01*
X86003571Y-10411904D01*
X86065476Y-10535714D01*
X86065476Y-10659523D01*
X86003571Y-10845238D01*
X85260714Y-11588095D01*
X86065476Y-11588095D01*
D10*
D11*
X135260714Y-10288095D02*
X136065476Y-10288095D01*
X135632142Y-10783333D01*
X135817857Y-10783333D01*
X135941666Y-10845238D01*
X136003571Y-10907142D01*
X136065476Y-11030952D01*
X136065476Y-11340476D01*
X136003571Y-11464285D01*
X135941666Y-11526190D01*
X135817857Y-11588095D01*
X135446428Y-11588095D01*
X135322619Y-11526190D01*
X135260714Y-11464285D01*
D10*
D11*
X185941666Y-10721428D02*
X185941666Y-11588095D01*
X185632142Y-10226190D02*
X185322619Y-11154761D01*
X186127380Y-11154761D01*
D10*
D11*
X236003571Y-10288095D02*
X235384523Y-10288095D01*
X235322619Y-10907142D01*
X235384523Y-10845238D01*
X235508333Y-10783333D01*
X235817857Y-10783333D01*
X235941666Y-10845238D01*
X236003571Y-10907142D01*
X236065476Y-11030952D01*
X236065476Y-11340476D01*
X236003571Y-11464285D01*
X235941666Y-11526190D01*
X235817857Y-11588095D01*
X235508333Y-11588095D01*
X235384523Y-11526190D01*
X235322619Y-11464285D01*
D10*
D11*
X285941666Y-10288095D02*
X285694047Y-10288095D01*
X285570238Y-10350000D01*
X285508333Y-10411904D01*
X285384523Y-10597619D01*
X285322619Y-10845238D01*
X285322619Y-11340476D01*
X285384523Y-11464285D01*
X285446428Y-11526190D01*
X285570238Y-11588095D01*
X285817857Y-11588095D01*
X285941666Y-11526190D01*
X286003571Y-11464285D01*
X286065476Y-11340476D01*
X286065476Y-11030952D01*
X286003571Y-10907142D01*
X285941666Y-10845238D01*
X285817857Y-10783333D01*
X285570238Y-10783333D01*
X285446428Y-10845238D01*
X285384523Y-10907142D01*
X285322619Y-11030952D01*
D10*
D11*
X60000000Y-198007200D02*
X60000000Y-200007200D01*
D10*
D11*
X110000000Y-198007200D02*
X110000000Y-200007200D01*
D10*
D11*
X160000000Y-198007200D02*
X160000000Y-200007200D01*
D10*
D11*
X210000000Y-198007200D02*
X210000000Y-200007200D01*
D10*
D11*
X260000000Y-198007200D02*
X260000000Y-200007200D01*
D10*
D11*
X36065476Y-199595295D02*
X35322619Y-199595295D01*
X35694047Y-199595295D02*
X35694047Y-198295295D01*
X35570238Y-198481009D01*
X35446428Y-198604819D01*
X35322619Y-198666723D01*
D10*
D11*
X85322619Y-198419104D02*
X85384523Y-198357200D01*
X85508333Y-198295295D01*
X85817857Y-198295295D01*
X85941666Y-198357200D01*
X86003571Y-198419104D01*
X86065476Y-198542914D01*
X86065476Y-198666723D01*
X86003571Y-198852438D01*
X85260714Y-199595295D01*
X86065476Y-199595295D01*
D10*
D11*
X135260714Y-198295295D02*
X136065476Y-198295295D01*
X135632142Y-198790533D01*
X135817857Y-198790533D01*
X135941666Y-198852438D01*
X136003571Y-198914342D01*
X136065476Y-199038152D01*
X136065476Y-199347676D01*
X136003571Y-199471485D01*
X135941666Y-199533390D01*
X135817857Y-199595295D01*
X135446428Y-199595295D01*
X135322619Y-199533390D01*
X135260714Y-199471485D01*
D10*
D11*
X185941666Y-198728628D02*
X185941666Y-199595295D01*
X185632142Y-198233390D02*
X185322619Y-199161961D01*
X186127380Y-199161961D01*
D10*
D11*
X236003571Y-198295295D02*
X235384523Y-198295295D01*
X235322619Y-198914342D01*
X235384523Y-198852438D01*
X235508333Y-198790533D01*
X235817857Y-198790533D01*
X235941666Y-198852438D01*
X236003571Y-198914342D01*
X236065476Y-199038152D01*
X236065476Y-199347676D01*
X236003571Y-199471485D01*
X235941666Y-199533390D01*
X235817857Y-199595295D01*
X235508333Y-199595295D01*
X235384523Y-199533390D01*
X235322619Y-199471485D01*
D10*
D11*
X285941666Y-198295295D02*
X285694047Y-198295295D01*
X285570238Y-198357200D01*
X285508333Y-198419104D01*
X285384523Y-198604819D01*
X285322619Y-198852438D01*
X285322619Y-199347676D01*
X285384523Y-199471485D01*
X285446428Y-199533390D01*
X285570238Y-199595295D01*
X285817857Y-199595295D01*
X285941666Y-199533390D01*
X286003571Y-199471485D01*
X286065476Y-199347676D01*
X286065476Y-199038152D01*
X286003571Y-198914342D01*
X285941666Y-198852438D01*
X285817857Y-198790533D01*
X285570238Y-198790533D01*
X285446428Y-198852438D01*
X285384523Y-198914342D01*
X285322619Y-199038152D01*
D10*
D11*
X10000000Y-60000000D02*
X12000000Y-60000000D01*
D10*
D11*
X10000000Y-110000000D02*
X12000000Y-110000000D01*
D10*
D11*
X10000000Y-160000000D02*
X12000000Y-160000000D01*
D10*
D11*
X10690476Y-35216666D02*
X11309523Y-35216666D01*
X10566666Y-35588095D02*
X11000000Y-34288095D01*
X11433333Y-35588095D01*
D10*
D11*
X11092857Y-84907142D02*
X11278571Y-84969047D01*
X11340476Y-85030952D01*
X11402380Y-85154761D01*
X11402380Y-85340476D01*
X11340476Y-85464285D01*
X11278571Y-85526190D01*
X11154761Y-85588095D01*
X10659523Y-85588095D01*
X10659523Y-84288095D01*
X11092857Y-84288095D01*
X11216666Y-84350000D01*
X11278571Y-84411904D01*
X11340476Y-84535714D01*
X11340476Y-84659523D01*
X11278571Y-84783333D01*
X11216666Y-84845238D01*
X11092857Y-84907142D01*
X10659523Y-84907142D01*
D10*
D11*
X11402380Y-135464285D02*
X11340476Y-135526190D01*
X11154761Y-135588095D01*
X11030952Y-135588095D01*
X10845238Y-135526190D01*
X10721428Y-135402380D01*
X10659523Y-135278571D01*
X10597619Y-135030952D01*
X10597619Y-134845238D01*
X10659523Y-134597619D01*
X10721428Y-134473809D01*
X10845238Y-134350000D01*
X11030952Y-134288095D01*
X11154761Y-134288095D01*
X11340476Y-134350000D01*
X11402380Y-134411904D01*
D10*
D11*
X10659523Y-185588095D02*
X10659523Y-184288095D01*
X10969047Y-184288095D01*
X11154761Y-184350000D01*
X11278571Y-184473809D01*
X11340476Y-184597619D01*
X11402380Y-184845238D01*
X11402380Y-185030952D01*
X11340476Y-185278571D01*
X11278571Y-185402380D01*
X11154761Y-185526190D01*
X10969047Y-185588095D01*
X10659523Y-185588095D01*
D10*
D11*
X287002200Y-60000000D02*
X285002200Y-60000000D01*
D10*
D11*
X287002200Y-110000000D02*
X285002200Y-110000000D01*
D10*
D11*
X287002200Y-160000000D02*
X285002200Y-160000000D01*
D10*
D11*
X285692676Y-35216666D02*
X286311723Y-35216666D01*
X285568866Y-35588095D02*
X286002200Y-34288095D01*
X286435533Y-35588095D01*
D10*
D11*
X286095057Y-84907142D02*
X286280771Y-84969047D01*
X286342676Y-85030952D01*
X286404580Y-85154761D01*
X286404580Y-85340476D01*
X286342676Y-85464285D01*
X286280771Y-85526190D01*
X286156961Y-85588095D01*
X285661723Y-85588095D01*
X285661723Y-84288095D01*
X286095057Y-84288095D01*
X286218866Y-84350000D01*
X286280771Y-84411904D01*
X286342676Y-84535714D01*
X286342676Y-84659523D01*
X286280771Y-84783333D01*
X286218866Y-84845238D01*
X286095057Y-84907142D01*
X285661723Y-84907142D01*
D10*
D11*
X286404580Y-135464285D02*
X286342676Y-135526190D01*
X286156961Y-135588095D01*
X286033152Y-135588095D01*
X285847438Y-135526190D01*
X285723628Y-135402380D01*
X285661723Y-135278571D01*
X285599819Y-135030952D01*
X285599819Y-134845238D01*
X285661723Y-134597619D01*
X285723628Y-134473809D01*
X285847438Y-134350000D01*
X286033152Y-134288095D01*
X286156961Y-134288095D01*
X286342676Y-134350000D01*
X286404580Y-134411904D01*
D10*
D11*
X285661723Y-185588095D02*
X285661723Y-184288095D01*
X285971247Y-184288095D01*
X286156961Y-184350000D01*
X286280771Y-184473809D01*
X286342676Y-184597619D01*
X286404580Y-184845238D01*
X286404580Y-185030952D01*
X286342676Y-185278571D01*
X286280771Y-185402380D01*
X286156961Y-185526190D01*
X285971247Y-185588095D01*
X285661723Y-185588095D01*
D10*
D11*
X200434342Y-193785771D02*
X200434342Y-192285771D01*
X200791485Y-192285771D01*
X201005771Y-192357200D01*
X201148628Y-192500057D01*
X201220057Y-192642914D01*
X201291485Y-192928628D01*
X201291485Y-193142914D01*
X201220057Y-193428628D01*
X201148628Y-193571485D01*
X201005771Y-193714342D01*
X200791485Y-193785771D01*
X200434342Y-193785771D01*
X202577200Y-193785771D02*
X202577200Y-193000057D01*
X202505771Y-192857200D01*
X202362914Y-192785771D01*
X202077200Y-192785771D01*
X201934342Y-192857200D01*
X202577200Y-193714342D02*
X202434342Y-193785771D01*
X202077200Y-193785771D01*
X201934342Y-193714342D01*
X201862914Y-193571485D01*
X201862914Y-193428628D01*
X201934342Y-193285771D01*
X202077200Y-193214342D01*
X202434342Y-193214342D01*
X202577200Y-193142914D01*
X203077200Y-192785771D02*
X203648628Y-192785771D01*
X203291485Y-192285771D02*
X203291485Y-193571485D01*
X203362914Y-193714342D01*
X203505771Y-193785771D01*
X203648628Y-193785771D01*
X204720057Y-193714342D02*
X204577200Y-193785771D01*
X204291485Y-193785771D01*
X204148628Y-193714342D01*
X204077200Y-193571485D01*
X204077200Y-193000057D01*
X204148628Y-192857200D01*
X204291485Y-192785771D01*
X204577200Y-192785771D01*
X204720057Y-192857200D01*
X204791485Y-193000057D01*
X204791485Y-193142914D01*
X204077200Y-193285771D01*
X205434342Y-193642914D02*
X205505771Y-193714342D01*
X205434342Y-193785771D01*
X205362914Y-193714342D01*
X205434342Y-193642914D01*
X205434342Y-193785771D01*
X205434342Y-192857200D02*
X205505771Y-192928628D01*
X205434342Y-193000057D01*
X205362914Y-192928628D01*
X205434342Y-192857200D01*
X205434342Y-193000057D01*
D10*
D11*
X177002200Y-194507200D02*
X285002200Y-194507200D01*
D10*
D11*
X178434342Y-196585771D02*
X178434342Y-195085771D01*
X179291485Y-196585771D02*
X178648628Y-195728628D01*
X179291485Y-195085771D02*
X178434342Y-195942914D01*
X179934342Y-196585771D02*
X179934342Y-195585771D01*
X179934342Y-195085771D02*
X179862914Y-195157200D01*
X179934342Y-195228628D01*
X180005771Y-195157200D01*
X179934342Y-195085771D01*
X179934342Y-195228628D01*
X181505771Y-196442914D02*
X181434342Y-196514342D01*
X181220057Y-196585771D01*
X181077200Y-196585771D01*
X180862914Y-196514342D01*
X180720057Y-196371485D01*
X180648628Y-196228628D01*
X180577200Y-195942914D01*
X180577200Y-195728628D01*
X180648628Y-195442914D01*
X180720057Y-195300057D01*
X180862914Y-195157200D01*
X181077200Y-195085771D01*
X181220057Y-195085771D01*
X181434342Y-195157200D01*
X181505771Y-195228628D01*
X182791485Y-196585771D02*
X182791485Y-195800057D01*
X182720057Y-195657200D01*
X182577200Y-195585771D01*
X182291485Y-195585771D01*
X182148628Y-195657200D01*
X182791485Y-196514342D02*
X182648628Y-196585771D01*
X182291485Y-196585771D01*
X182148628Y-196514342D01*
X182077200Y-196371485D01*
X182077200Y-196228628D01*
X182148628Y-196085771D01*
X182291485Y-196014342D01*
X182648628Y-196014342D01*
X182791485Y-195942914D01*
X184148628Y-196585771D02*
X184148628Y-195085771D01*
X184148628Y-196514342D02*
X184005771Y-196585771D01*
X183720057Y-196585771D01*
X183577200Y-196514342D01*
X183505771Y-196442914D01*
X183434342Y-196300057D01*
X183434342Y-195871485D01*
X183505771Y-195728628D01*
X183577200Y-195657200D01*
X183720057Y-195585771D01*
X184005771Y-195585771D01*
X184148628Y-195657200D01*
X186005771Y-195800057D02*
X186505771Y-195800057D01*
X186720057Y-196585771D02*
X186005771Y-196585771D01*
X186005771Y-195085771D01*
X186720057Y-195085771D01*
X187362914Y-196442914D02*
X187434342Y-196514342D01*
X187362914Y-196585771D01*
X187291485Y-196514342D01*
X187362914Y-196442914D01*
X187362914Y-196585771D01*
X188077200Y-196585771D02*
X188077200Y-195085771D01*
X188434342Y-195085771D01*
X188648628Y-195157200D01*
X188791485Y-195300057D01*
X188862914Y-195442914D01*
X188934342Y-195728628D01*
X188934342Y-195942914D01*
X188862914Y-196228628D01*
X188791485Y-196371485D01*
X188648628Y-196514342D01*
X188434342Y-196585771D01*
X188077200Y-196585771D01*
X189577200Y-196442914D02*
X189648628Y-196514342D01*
X189577200Y-196585771D01*
X189505771Y-196514342D01*
X189577200Y-196442914D01*
X189577200Y-196585771D01*
X190220057Y-196157200D02*
X190934342Y-196157200D01*
X190077200Y-196585771D02*
X190577200Y-195085771D01*
X191077200Y-196585771D01*
X191577200Y-196442914D02*
X191648628Y-196514342D01*
X191577200Y-196585771D01*
X191505771Y-196514342D01*
X191577200Y-196442914D01*
X191577200Y-196585771D01*
X194577200Y-196585771D02*
X194577200Y-195085771D01*
X194720057Y-196014342D02*
X195148628Y-196585771D01*
X195148628Y-195585771D02*
X194577200Y-196157200D01*
X195791485Y-196585771D02*
X195791485Y-195585771D01*
X195791485Y-195085771D02*
X195720057Y-195157200D01*
X195791485Y-195228628D01*
X195862914Y-195157200D01*
X195791485Y-195085771D01*
X195791485Y-195228628D01*
X197148628Y-196514342D02*
X197005771Y-196585771D01*
X196720057Y-196585771D01*
X196577200Y-196514342D01*
X196505771Y-196442914D01*
X196434342Y-196300057D01*
X196434342Y-195871485D01*
X196505771Y-195728628D01*
X196577200Y-195657200D01*
X196720057Y-195585771D01*
X197005771Y-195585771D01*
X197148628Y-195657200D01*
X198434342Y-196585771D02*
X198434342Y-195800057D01*
X198362914Y-195657200D01*
X198220057Y-195585771D01*
X197934342Y-195585771D01*
X197791485Y-195657200D01*
X198434342Y-196514342D02*
X198291485Y-196585771D01*
X197934342Y-196585771D01*
X197791485Y-196514342D01*
X197720057Y-196371485D01*
X197720057Y-196228628D01*
X197791485Y-196085771D01*
X197934342Y-196014342D01*
X198291485Y-196014342D01*
X198434342Y-195942914D01*
X199791485Y-196585771D02*
X199791485Y-195085771D01*
X199791485Y-196514342D02*
X199648628Y-196585771D01*
X199362914Y-196585771D01*
X199220057Y-196514342D01*
X199148628Y-196442914D01*
X199077200Y-196300057D01*
X199077200Y-195871485D01*
X199148628Y-195728628D01*
X199220057Y-195657200D01*
X199362914Y-195585771D01*
X199648628Y-195585771D01*
X199791485Y-195657200D01*
X202077200Y-197157200D02*
X202005771Y-197085771D01*
X201862914Y-196871485D01*
X201791485Y-196728628D01*
X201720057Y-196514342D01*
X201648628Y-196157200D01*
X201648628Y-195871485D01*
X201720057Y-195514342D01*
X201791485Y-195300057D01*
X201862914Y-195157200D01*
X202005771Y-194942914D01*
X202077200Y-194871485D01*
X203362914Y-195085771D02*
X202648628Y-195085771D01*
X202577200Y-195800057D01*
X202648628Y-195728628D01*
X202791485Y-195657200D01*
X203148628Y-195657200D01*
X203291485Y-195728628D01*
X203362914Y-195800057D01*
X203434342Y-195942914D01*
X203434342Y-196300057D01*
X203362914Y-196442914D01*
X203291485Y-196514342D01*
X203148628Y-196585771D01*
X202791485Y-196585771D01*
X202648628Y-196514342D01*
X202577200Y-196442914D01*
X204077200Y-196442914D02*
X204148628Y-196514342D01*
X204077200Y-196585771D01*
X204005771Y-196514342D01*
X204077200Y-196442914D01*
X204077200Y-196585771D01*
X205577200Y-196585771D02*
X204720057Y-196585771D01*
X205148628Y-196585771D02*
X205148628Y-195085771D01*
X205005771Y-195300057D01*
X204862914Y-195442914D01*
X204720057Y-195514342D01*
X206220057Y-196442914D02*
X206291485Y-196514342D01*
X206220057Y-196585771D01*
X206148628Y-196514342D01*
X206220057Y-196442914D01*
X206220057Y-196585771D01*
X207720057Y-196585771D02*
X206862914Y-196585771D01*
X207291485Y-196585771D02*
X207291485Y-195085771D01*
X207148628Y-195300057D01*
X207005771Y-195442914D01*
X206862914Y-195514342D01*
X208648628Y-195085771D02*
X208791485Y-195085771D01*
X208934342Y-195157200D01*
X209005771Y-195228628D01*
X209077200Y-195371485D01*
X209148628Y-195657200D01*
X209148628Y-196014342D01*
X209077200Y-196300057D01*
X209005771Y-196442914D01*
X208934342Y-196514342D01*
X208791485Y-196585771D01*
X208648628Y-196585771D01*
X208505771Y-196514342D01*
X208434342Y-196442914D01*
X208362914Y-196300057D01*
X208291485Y-196014342D01*
X208291485Y-195657200D01*
X208362914Y-195371485D01*
X208434342Y-195228628D01*
X208505771Y-195157200D01*
X208648628Y-195085771D01*
X209791485Y-196014342D02*
X210934342Y-196014342D01*
X212434342Y-196585771D02*
X211577200Y-196585771D01*
X212005771Y-196585771D02*
X212005771Y-195085771D01*
X211862914Y-195300057D01*
X211720057Y-195442914D01*
X211577200Y-195514342D01*
X213077200Y-196014342D02*
X214220057Y-196014342D01*
X215720057Y-196585771D02*
X214862914Y-196585771D01*
X215291485Y-196585771D02*
X215291485Y-195085771D01*
X215148628Y-195300057D01*
X215005771Y-195442914D01*
X214862914Y-195514342D01*
X216648628Y-195085771D02*
X216791485Y-195085771D01*
X216934342Y-195157200D01*
X217005771Y-195228628D01*
X217077200Y-195371485D01*
X217148628Y-195657200D01*
X217148628Y-196014342D01*
X217077200Y-196300057D01*
X217005771Y-196442914D01*
X216934342Y-196514342D01*
X216791485Y-196585771D01*
X216648628Y-196585771D01*
X216505771Y-196514342D01*
X216434342Y-196442914D01*
X216362914Y-196300057D01*
X216291485Y-196014342D01*
X216291485Y-195657200D01*
X216362914Y-195371485D01*
X216434342Y-195228628D01*
X216505771Y-195157200D01*
X216648628Y-195085771D01*
X217434342Y-196728628D02*
X218577200Y-196728628D01*
X219720057Y-196585771D02*
X218862914Y-196585771D01*
X219291485Y-196585771D02*
X219291485Y-195085771D01*
X219148628Y-195300057D01*
X219005771Y-195442914D01*
X218862914Y-195514342D01*
X221005771Y-195585771D02*
X221005771Y-196585771D01*
X220648628Y-195014342D02*
X220291485Y-196085771D01*
X221220057Y-196085771D01*
X221648628Y-197157200D02*
X221720057Y-197085771D01*
X221862914Y-196871485D01*
X221934342Y-196728628D01*
X222005771Y-196514342D01*
X222077200Y-196157200D01*
X222077200Y-195871485D01*
X222005771Y-195514342D01*
X221934342Y-195300057D01*
X221862914Y-195157200D01*
X221720057Y-194942914D01*
X221648628Y-194871485D01*
D10*
D11*
X177002200Y-191507200D02*
X285002200Y-191507200D01*
D10*
D12*
X264411485Y-193785771D02*
X263911485Y-193071485D01*
X263554342Y-193785771D02*
X263554342Y-192285771D01*
X264125771Y-192285771D01*
X264268628Y-192357200D01*
X264340057Y-192428628D01*
X264411485Y-192571485D01*
X264411485Y-192785771D01*
X264340057Y-192928628D01*
X264268628Y-193000057D01*
X264125771Y-193071485D01*
X263554342Y-193071485D01*
X265625771Y-193714342D02*
X265482914Y-193785771D01*
X265197200Y-193785771D01*
X265054342Y-193714342D01*
X264982914Y-193571485D01*
X264982914Y-193000057D01*
X265054342Y-192857200D01*
X265197200Y-192785771D01*
X265482914Y-192785771D01*
X265625771Y-192857200D01*
X265697200Y-193000057D01*
X265697200Y-193142914D01*
X264982914Y-193285771D01*
X266197200Y-192785771D02*
X266554342Y-193785771D01*
X266911485Y-192785771D01*
X267482914Y-193642914D02*
X267554342Y-193714342D01*
X267482914Y-193785771D01*
X267411485Y-193714342D01*
X267482914Y-193642914D01*
X267482914Y-193785771D01*
X267482914Y-192857200D02*
X267554342Y-192928628D01*
X267482914Y-193000057D01*
X267411485Y-192928628D01*
X267482914Y-192857200D01*
X267482914Y-193000057D01*
D10*
D11*
X178362914Y-193714342D02*
X178577200Y-193785771D01*
X178934342Y-193785771D01*
X179077200Y-193714342D01*
X179148628Y-193642914D01*
X179220057Y-193500057D01*
X179220057Y-193357200D01*
X179148628Y-193214342D01*
X179077200Y-193142914D01*
X178934342Y-193071485D01*
X178648628Y-193000057D01*
X178505771Y-192928628D01*
X178434342Y-192857200D01*
X178362914Y-192714342D01*
X178362914Y-192571485D01*
X178434342Y-192428628D01*
X178505771Y-192357200D01*
X178648628Y-192285771D01*
X179005771Y-192285771D01*
X179220057Y-192357200D01*
X179862914Y-193785771D02*
X179862914Y-192785771D01*
X179862914Y-192285771D02*
X179791485Y-192357200D01*
X179862914Y-192428628D01*
X179934342Y-192357200D01*
X179862914Y-192285771D01*
X179862914Y-192428628D01*
X180434342Y-192785771D02*
X181220057Y-192785771D01*
X180434342Y-193785771D01*
X181220057Y-193785771D01*
X182362914Y-193714342D02*
X182220057Y-193785771D01*
X181934342Y-193785771D01*
X181791485Y-193714342D01*
X181720057Y-193571485D01*
X181720057Y-193000057D01*
X181791485Y-192857200D01*
X181934342Y-192785771D01*
X182220057Y-192785771D01*
X182362914Y-192857200D01*
X182434342Y-193000057D01*
X182434342Y-193142914D01*
X181720057Y-193285771D01*
X183077200Y-193642914D02*
X183148628Y-193714342D01*
X183077200Y-193785771D01*
X183005771Y-193714342D01*
X183077200Y-193642914D01*
X183077200Y-193785771D01*
X183077200Y-192857200D02*
X183148628Y-192928628D01*
X183077200Y-193000057D01*
X183005771Y-192928628D01*
X183077200Y-192857200D01*
X183077200Y-193000057D01*
X184862914Y-193357200D02*
X185577200Y-193357200D01*
X184720057Y-193785771D02*
X185220057Y-192285771D01*
X185720057Y-193785771D01*
X186862914Y-192785771D02*
X186862914Y-193785771D01*
X186505771Y-192214342D02*
X186148628Y-193285771D01*
X187077200Y-193285771D01*
D10*
D11*
X263434342Y-196585771D02*
X263434342Y-195085771D01*
X264791485Y-196585771D02*
X264791485Y-195085771D01*
X264791485Y-196514342D02*
X264648628Y-196585771D01*
X264362914Y-196585771D01*
X264220057Y-196514342D01*
X264148628Y-196442914D01*
X264077200Y-196300057D01*
X264077200Y-195871485D01*
X264148628Y-195728628D01*
X264220057Y-195657200D01*
X264362914Y-195585771D01*
X264648628Y-195585771D01*
X264791485Y-195657200D01*
X265505771Y-196442914D02*
X265577200Y-196514342D01*
X265505771Y-196585771D01*
X265434342Y-196514342D01*
X265505771Y-196442914D01*
X265505771Y-196585771D01*
X265505771Y-195657200D02*
X265577200Y-195728628D01*
X265505771Y-195800057D01*
X265434342Y-195728628D01*
X265505771Y-195657200D01*
X265505771Y-195800057D01*
X268148628Y-196585771D02*
X267291485Y-196585771D01*
X267720057Y-196585771D02*
X267720057Y-195085771D01*
X267577200Y-195300057D01*
X267434342Y-195442914D01*
X267291485Y-195514342D01*
X269862914Y-195014342D02*
X268577200Y-196942914D01*
X271148628Y-196585771D02*
X270291485Y-196585771D01*
X270720057Y-196585771D02*
X270720057Y-195085771D01*
X270577200Y-195300057D01*
X270434342Y-195442914D01*
X270291485Y-195514342D01*
D10*
D11*
X177002200Y-187507200D02*
X285002200Y-187507200D01*
D10*
D13*
X178714580Y-188211961D02*
X179857438Y-188211961D01*
X179036009Y-190211961D02*
X179286009Y-188211961D01*
X180274104Y-190211961D02*
X180440771Y-188878628D01*
X180524104Y-188211961D02*
X180416961Y-188307200D01*
X180500295Y-188402438D01*
X180607438Y-188307200D01*
X180524104Y-188211961D01*
X180500295Y-188402438D01*
X181107438Y-188878628D02*
X181869342Y-188878628D01*
X181476485Y-188211961D02*
X181262200Y-189926247D01*
X181333628Y-190116723D01*
X181512200Y-190211961D01*
X181702676Y-190211961D01*
X182655057Y-190211961D02*
X182476485Y-190116723D01*
X182405057Y-189926247D01*
X182619342Y-188211961D01*
X184190771Y-190116723D02*
X183988390Y-190211961D01*
X183607438Y-190211961D01*
X183428866Y-190116723D01*
X183357438Y-189926247D01*
X183452676Y-189164342D01*
X183571723Y-188973866D01*
X183774104Y-188878628D01*
X184155057Y-188878628D01*
X184333628Y-188973866D01*
X184405057Y-189164342D01*
X184381247Y-189354819D01*
X183405057Y-189545295D01*
X185155057Y-190021485D02*
X185238390Y-190116723D01*
X185131247Y-190211961D01*
X185047914Y-190116723D01*
X185155057Y-190021485D01*
X185131247Y-190211961D01*
X185286009Y-188973866D02*
X185369342Y-189069104D01*
X185262200Y-189164342D01*
X185178866Y-189069104D01*
X185286009Y-188973866D01*
X185262200Y-189164342D01*
D10*
D11*
X178934342Y-185600057D02*
X178434342Y-185600057D01*
X178434342Y-186385771D02*
X178434342Y-184885771D01*
X179148628Y-184885771D01*
X179720057Y-186385771D02*
X179720057Y-185385771D01*
X179720057Y-184885771D02*
X179648628Y-184957200D01*
X179720057Y-185028628D01*
X179791485Y-184957200D01*
X179720057Y-184885771D01*
X179720057Y-185028628D01*
X180648628Y-186385771D02*
X180505771Y-186314342D01*
X180434342Y-186171485D01*
X180434342Y-184885771D01*
X181791485Y-186314342D02*
X181648628Y-186385771D01*
X181362914Y-186385771D01*
X181220057Y-186314342D01*
X181148628Y-186171485D01*
X181148628Y-185600057D01*
X181220057Y-185457200D01*
X181362914Y-185385771D01*
X181648628Y-185385771D01*
X181791485Y-185457200D01*
X181862914Y-185600057D01*
X181862914Y-185742914D01*
X181148628Y-185885771D01*
X182505771Y-186242914D02*
X182577200Y-186314342D01*
X182505771Y-186385771D01*
X182434342Y-186314342D01*
X182505771Y-186242914D01*
X182505771Y-186385771D01*
X182505771Y-185457200D02*
X182577200Y-185528628D01*
X182505771Y-185600057D01*
X182434342Y-185528628D01*
X182505771Y-185457200D01*
X182505771Y-185600057D01*
X184291485Y-185957200D02*
X185005771Y-185957200D01*
X184148628Y-186385771D02*
X184648628Y-184885771D01*
X185148628Y-186385771D01*
X186362914Y-186385771D02*
X185648628Y-186385771D01*
X185648628Y-184885771D01*
X186862914Y-184885771D02*
X186862914Y-186100057D01*
X186934342Y-186242914D01*
X187005771Y-186314342D01*
X187148628Y-186385771D01*
X187434342Y-186385771D01*
X187577200Y-186314342D01*
X187648628Y-186242914D01*
X187720057Y-186100057D01*
X187720057Y-184885771D01*
X188434342Y-185814342D02*
X189577200Y-185814342D01*
X190148628Y-184885771D02*
X191148628Y-184885771D01*
X190505771Y-186385771D01*
X192362914Y-185385771D02*
X192362914Y-186385771D01*
X192005771Y-184814342D02*
X191648628Y-185885771D01*
X192577200Y-185885771D01*
X193934342Y-186385771D02*
X193077200Y-186385771D01*
X193505771Y-186385771D02*
X193505771Y-184885771D01*
X193362914Y-185100057D01*
X193220057Y-185242914D01*
X193077200Y-185314342D01*
X194791485Y-185528628D02*
X194648628Y-185457200D01*
X194577200Y-185385771D01*
X194505771Y-185242914D01*
X194505771Y-185171485D01*
X194577200Y-185028628D01*
X194648628Y-184957200D01*
X194791485Y-184885771D01*
X195077200Y-184885771D01*
X195220057Y-184957200D01*
X195291485Y-185028628D01*
X195362914Y-185171485D01*
X195362914Y-185242914D01*
X195291485Y-185385771D01*
X195220057Y-185457200D01*
X195077200Y-185528628D01*
X194791485Y-185528628D01*
X194648628Y-185600057D01*
X194577200Y-185671485D01*
X194505771Y-185814342D01*
X194505771Y-186100057D01*
X194577200Y-186242914D01*
X194648628Y-186314342D01*
X194791485Y-186385771D01*
X195077200Y-186385771D01*
X195220057Y-186314342D01*
X195291485Y-186242914D01*
X195362914Y-186100057D01*
X195362914Y-185814342D01*
X195291485Y-185671485D01*
X195220057Y-185600057D01*
X195077200Y-185528628D01*
X196791485Y-186385771D02*
X195934342Y-186385771D01*
X196362914Y-186385771D02*
X196362914Y-184885771D01*
X196220057Y-185100057D01*
X196077200Y-185242914D01*
X195934342Y-185314342D01*
X197434342Y-186242914D02*
X197505771Y-186314342D01*
X197434342Y-186385771D01*
X197362914Y-186314342D01*
X197434342Y-186242914D01*
X197434342Y-186385771D01*
X198148628Y-186385771D02*
X198148628Y-184885771D01*
X198291485Y-185814342D02*
X198720057Y-186385771D01*
X198720057Y-185385771D02*
X198148628Y-185957200D01*
X199362914Y-186385771D02*
X199362914Y-185385771D01*
X199362914Y-184885771D02*
X199291485Y-184957200D01*
X199362914Y-185028628D01*
X199434342Y-184957200D01*
X199362914Y-184885771D01*
X199362914Y-185028628D01*
X200720057Y-186314342D02*
X200577200Y-186385771D01*
X200291485Y-186385771D01*
X200148628Y-186314342D01*
X200077200Y-186242914D01*
X200005771Y-186100057D01*
X200005771Y-185671485D01*
X200077200Y-185528628D01*
X200148628Y-185457200D01*
X200291485Y-185385771D01*
X200577200Y-185385771D01*
X200720057Y-185457200D01*
X202005771Y-186385771D02*
X202005771Y-185600057D01*
X201934342Y-185457200D01*
X201791485Y-185385771D01*
X201505771Y-185385771D01*
X201362914Y-185457200D01*
X202005771Y-186314342D02*
X201862914Y-186385771D01*
X201505771Y-186385771D01*
X201362914Y-186314342D01*
X201291485Y-186171485D01*
X201291485Y-186028628D01*
X201362914Y-185885771D01*
X201505771Y-185814342D01*
X201862914Y-185814342D01*
X202005771Y-185742914D01*
X203362914Y-186385771D02*
X203362914Y-184885771D01*
X203362914Y-186314342D02*
X203220057Y-186385771D01*
X202934342Y-186385771D01*
X202791485Y-186314342D01*
X202720057Y-186242914D01*
X202648628Y-186100057D01*
X202648628Y-185671485D01*
X202720057Y-185528628D01*
X202791485Y-185457200D01*
X202934342Y-185385771D01*
X203220057Y-185385771D01*
X203362914Y-185457200D01*
X203720057Y-186528628D02*
X204862914Y-186528628D01*
X205220057Y-185385771D02*
X205220057Y-186885771D01*
X205220057Y-185457200D02*
X205362914Y-185385771D01*
X205648628Y-185385771D01*
X205791485Y-185457200D01*
X205862914Y-185528628D01*
X205934342Y-185671485D01*
X205934342Y-186100057D01*
X205862914Y-186242914D01*
X205791485Y-186314342D01*
X205648628Y-186385771D01*
X205362914Y-186385771D01*
X205220057Y-186314342D01*
X207220057Y-186314342D02*
X207077200Y-186385771D01*
X206791485Y-186385771D01*
X206648628Y-186314342D01*
X206577200Y-186242914D01*
X206505771Y-186100057D01*
X206505771Y-185671485D01*
X206577200Y-185528628D01*
X206648628Y-185457200D01*
X206791485Y-185385771D01*
X207077200Y-185385771D01*
X207220057Y-185457200D01*
X207862914Y-186385771D02*
X207862914Y-184885771D01*
X207862914Y-185457200D02*
X208005771Y-185385771D01*
X208291485Y-185385771D01*
X208434342Y-185457200D01*
X208505771Y-185528628D01*
X208577200Y-185671485D01*
X208577200Y-186100057D01*
X208505771Y-186242914D01*
X208434342Y-186314342D01*
X208291485Y-186385771D01*
X208005771Y-186385771D01*
X207862914Y-186314342D01*
D10*
D11*
X177002200Y-181507200D02*
X285002200Y-181507200D01*
D10*
D11*
X178362914Y-183614342D02*
X178577200Y-183685771D01*
X178934342Y-183685771D01*
X179077200Y-183614342D01*
X179148628Y-183542914D01*
X179220057Y-183400057D01*
X179220057Y-183257200D01*
X179148628Y-183114342D01*
X179077200Y-183042914D01*
X178934342Y-182971485D01*
X178648628Y-182900057D01*
X178505771Y-182828628D01*
X178434342Y-182757200D01*
X178362914Y-182614342D01*
X178362914Y-182471485D01*
X178434342Y-182328628D01*
X178505771Y-182257200D01*
X178648628Y-182185771D01*
X179005771Y-182185771D01*
X179220057Y-182257200D01*
X179862914Y-183685771D02*
X179862914Y-182185771D01*
X180505771Y-183685771D02*
X180505771Y-182900057D01*
X180434342Y-182757200D01*
X180291485Y-182685771D01*
X180077200Y-182685771D01*
X179934342Y-182757200D01*
X179862914Y-182828628D01*
X181791485Y-183614342D02*
X181648628Y-183685771D01*
X181362914Y-183685771D01*
X181220057Y-183614342D01*
X181148628Y-183471485D01*
X181148628Y-182900057D01*
X181220057Y-182757200D01*
X181362914Y-182685771D01*
X181648628Y-182685771D01*
X181791485Y-182757200D01*
X181862914Y-182900057D01*
X181862914Y-183042914D01*
X181148628Y-183185771D01*
X183077200Y-183614342D02*
X182934342Y-183685771D01*
X182648628Y-183685771D01*
X182505771Y-183614342D01*
X182434342Y-183471485D01*
X182434342Y-182900057D01*
X182505771Y-182757200D01*
X182648628Y-182685771D01*
X182934342Y-182685771D01*
X183077200Y-182757200D01*
X183148628Y-182900057D01*
X183148628Y-183042914D01*
X182434342Y-183185771D01*
X183577200Y-182685771D02*
X184148628Y-182685771D01*
X183791485Y-182185771D02*
X183791485Y-183471485D01*
X183862914Y-183614342D01*
X184005771Y-183685771D01*
X184148628Y-183685771D01*
X184648628Y-183542914D02*
X184720057Y-183614342D01*
X184648628Y-183685771D01*
X184577200Y-183614342D01*
X184648628Y-183542914D01*
X184648628Y-183685771D01*
X184648628Y-182757200D02*
X184720057Y-182828628D01*
X184648628Y-182900057D01*
X184577200Y-182828628D01*
X184648628Y-182757200D01*
X184648628Y-182900057D01*
D10*
D11*
X197002200Y-191507200D02*
X197002200Y-194507200D01*
D10*
D11*
X261002200Y-191507200D02*
X261002200Y-198007200D01*
D14*
%TO.P,J3,7*%
%TO.N,FLAG_IN_0*%
X151638000Y-74422000D03*
%TO.P,J3,6*%
%TO.N,FLAG_IN_1*%
X151638000Y-71882000D03*
%TO.P,J3,5*%
%TO.N,FLAG_IN_2*%
X151638000Y-69342000D03*
%TO.P,J3,4*%
%TO.N,FLAG_IN_3*%
X151638000Y-66802000D03*
%TO.P,J3,3*%
%TO.N,FLAG_IN_4*%
X151638000Y-64262000D03*
%TO.P,J3,2*%
%TO.N,FLAG_IN_5*%
X151638000Y-61722000D03*
D15*
%TO.P,J3,1*%
%TO.N,FLAG_IN_6*%
X151638000Y-59182000D03*
%TD*%
D14*
%TO.P,J2,23*%
%TO.N,FLAG_REG_IN*%
X122174000Y-94234000D03*
%TO.P,J2,22*%
%TO.N,CF*%
X119634000Y-94234000D03*
%TO.P,J2,21*%
%TO.N,OF*%
X117094000Y-94234000D03*
%TO.P,J2,20*%
%TO.N,SF*%
X114554000Y-94234000D03*
%TO.P,J2,19*%
%TO.N,ZF*%
X112014000Y-94234000D03*
%TO.P,J2,18*%
%TO.N,LTF*%
X109474000Y-94234000D03*
%TO.P,J2,17*%
%TO.N,GTF*%
X106934000Y-94234000D03*
%TO.P,J2,16*%
%TO.N,EQF*%
X104394000Y-94234000D03*
%TO.P,J2,15*%
%TO.N,ALU_MODE*%
X101854000Y-94234000D03*
%TO.P,J2,14*%
%TO.N,ALU_F0*%
X99314000Y-94234000D03*
%TO.P,J2,13*%
%TO.N,ALU_F1*%
X96774000Y-94234000D03*
%TO.P,J2,12*%
%TO.N,ALU_F2*%
X94234000Y-94234000D03*
%TO.P,J2,11*%
%TO.N,ALU_F3*%
X91694000Y-94234000D03*
%TO.P,J2,10*%
%TO.N,ALU_CARRY_IN*%
X89154000Y-94234000D03*
%TO.P,J2,9*%
%TO.N,~ALU_OUT*%
X86614000Y-94234000D03*
%TO.P,J2,8*%
%TO.N,LOAD_B*%
X84074000Y-94234000D03*
%TO.P,J2,7*%
%TO.N,A_SHL*%
X81534000Y-94234000D03*
%TO.P,J2,6*%
%TO.N,A_SHR*%
X78994000Y-94234000D03*
%TO.P,J2,5*%
%TO.N,~A_OUT*%
X76454000Y-94234000D03*
%TO.P,J2,4*%
%TO.N,~RESET*%
X73914000Y-94234000D03*
%TO.P,J2,3*%
%TO.N,CLOCK*%
X71374000Y-94234000D03*
%TO.P,J2,2*%
%TO.N,GND*%
X68834000Y-94234000D03*
D15*
%TO.P,J2,1*%
%TO.N,VCC*%
X66294000Y-94234000D03*
%TD*%
D16*
%TO.P,U8,24*%
%TO.N,VCC*%
X98298000Y-68834000D03*
%TO.P,U8,12*%
%TO.N,GND*%
X126238000Y-84074000D03*
%TO.P,U8,23*%
%TO.N,/A1*%
X100838000Y-68834000D03*
%TO.P,U8,11*%
%TO.N,/ALU2*%
X123698000Y-84074000D03*
%TO.P,U8,22*%
%TO.N,/B1*%
X103378000Y-68834000D03*
%TO.P,U8,10*%
%TO.N,/ALU1*%
X121158000Y-84074000D03*
%TO.P,U8,21*%
%TO.N,/A2*%
X105918000Y-68834000D03*
%TO.P,U8,9*%
%TO.N,/ALU0*%
X118618000Y-84074000D03*
%TO.P,U8,20*%
%TO.N,/B2*%
X108458000Y-68834000D03*
%TO.P,U8,8*%
%TO.N,ALU_MODE*%
X116078000Y-84074000D03*
%TO.P,U8,19*%
%TO.N,/A3*%
X110998000Y-68834000D03*
%TO.P,U8,7*%
%TO.N,ALU_CARRY_IN*%
X113538000Y-84074000D03*
%TO.P,U8,18*%
%TO.N,/B3*%
X113538000Y-68834000D03*
%TO.P,U8,6*%
%TO.N,ALU_F0*%
X110998000Y-84074000D03*
%TO.P,U8,17*%
%TO.N,Net-(U8-Pad17)*%
X116078000Y-68834000D03*
%TO.P,U8,5*%
%TO.N,ALU_F1*%
X108458000Y-84074000D03*
%TO.P,U8,16*%
%TO.N,Net-(U6-Pad7)*%
X118618000Y-68834000D03*
%TO.P,U8,4*%
%TO.N,ALU_F2*%
X105918000Y-84074000D03*
%TO.P,U8,15*%
%TO.N,Net-(U8-Pad15)*%
X121158000Y-68834000D03*
%TO.P,U8,3*%
%TO.N,ALU_F3*%
X103378000Y-84074000D03*
%TO.P,U8,14*%
%TO.N,Net-(U8-Pad14)*%
X123698000Y-68834000D03*
%TO.P,U8,2*%
%TO.N,/A0*%
X100838000Y-84074000D03*
%TO.P,U8,13*%
%TO.N,/ALU3*%
X126238000Y-68834000D03*
D17*
%TO.P,U8,1*%
%TO.N,/B0*%
X98298000Y-84074000D03*
%TD*%
D16*
%TO.P,U6,24*%
%TO.N,VCC*%
X61722000Y-68834000D03*
%TO.P,U6,12*%
%TO.N,GND*%
X89662000Y-84074000D03*
%TO.P,U6,23*%
%TO.N,/A5*%
X64262000Y-68834000D03*
%TO.P,U6,11*%
%TO.N,/ALU6*%
X87122000Y-84074000D03*
%TO.P,U6,22*%
%TO.N,/B5*%
X66802000Y-68834000D03*
%TO.P,U6,10*%
%TO.N,/ALU5*%
X84582000Y-84074000D03*
%TO.P,U6,21*%
%TO.N,/A6*%
X69342000Y-68834000D03*
%TO.P,U6,9*%
%TO.N,/ALU4*%
X82042000Y-84074000D03*
%TO.P,U6,20*%
%TO.N,/B6*%
X71882000Y-68834000D03*
%TO.P,U6,8*%
%TO.N,ALU_MODE*%
X79502000Y-84074000D03*
%TO.P,U6,19*%
%TO.N,/A7*%
X74422000Y-68834000D03*
%TO.P,U6,7*%
%TO.N,Net-(U6-Pad7)*%
X76962000Y-84074000D03*
%TO.P,U6,18*%
%TO.N,/B7*%
X76962000Y-68834000D03*
%TO.P,U6,6*%
%TO.N,ALU_F0*%
X74422000Y-84074000D03*
%TO.P,U6,17*%
%TO.N,Net-(U6-Pad17)*%
X79502000Y-68834000D03*
%TO.P,U6,5*%
%TO.N,ALU_F1*%
X71882000Y-84074000D03*
%TO.P,U6,16*%
%TO.N,ALU_CARRY_OUT*%
X82042000Y-68834000D03*
%TO.P,U6,4*%
%TO.N,ALU_F2*%
X69342000Y-84074000D03*
%TO.P,U6,15*%
%TO.N,Net-(U6-Pad15)*%
X84582000Y-68834000D03*
%TO.P,U6,3*%
%TO.N,ALU_F3*%
X66802000Y-84074000D03*
%TO.P,U6,14*%
%TO.N,Net-(U6-Pad14)*%
X87122000Y-68834000D03*
%TO.P,U6,2*%
%TO.N,/A4*%
X64262000Y-84074000D03*
%TO.P,U6,13*%
%TO.N,/ALU7*%
X89662000Y-68834000D03*
D17*
%TO.P,U6,1*%
%TO.N,/B4*%
X61722000Y-84074000D03*
%TD*%
D14*
%TO.P,J1,8*%
%TO.N,BUS7*%
X60706000Y-31242000D03*
%TO.P,J1,7*%
%TO.N,BUS6*%
X63246000Y-31242000D03*
%TO.P,J1,6*%
%TO.N,BUS5*%
X65786000Y-31242000D03*
%TO.P,J1,5*%
%TO.N,BUS4*%
X68326000Y-31242000D03*
%TO.P,J1,4*%
%TO.N,BUS3*%
X70866000Y-31242000D03*
%TO.P,J1,3*%
%TO.N,BUS2*%
X73406000Y-31242000D03*
%TO.P,J1,2*%
%TO.N,BUS1*%
X75946000Y-31242000D03*
D15*
%TO.P,J1,1*%
%TO.N,BUS0*%
X78486000Y-31242000D03*
%TD*%
D18*
%TO.N,GND*%
X65786000Y-43434000D03*
X81026000Y-46990000D03*
X92964000Y-42926000D03*
X142240000Y-41656000D03*
X151384000Y-43180000D03*
X119380000Y-45720000D03*
X106172000Y-42926000D03*
X122870000Y-35372000D03*
X130302000Y-43434000D03*
X63500000Y-51308000D03*
X111101500Y-58062500D03*
X137922000Y-56388000D03*
X96774000Y-88392000D03*
X99314000Y-88392000D03*
X101854000Y-88392000D03*
X104394000Y-88392000D03*
X84074000Y-88392000D03*
X81534000Y-88392000D03*
X94234000Y-71882000D03*
X57658000Y-72136000D03*
X90170000Y-58358010D03*
X69731861Y-57796901D03*
X94322649Y-88470419D03*
X136652000Y-53848000D03*
X103886000Y-46990000D03*
X109489987Y-47244000D03*
X138222706Y-49276000D03*
X60452008Y-49022000D03*
X144526000Y-50546010D03*
X150876000Y-82042000D03*
X144567000Y-57699000D03*
X148782010Y-63948946D03*
X134112000Y-69596000D03*
X134366000Y-73660000D03*
X149017020Y-73455920D03*
X141696951Y-68961326D03*
X143457913Y-69693582D03*
X124140268Y-90362010D03*
%TO.N,VCC*%
X70104000Y-40132000D03*
X82804000Y-38100000D03*
X132588000Y-39370000D03*
X140208000Y-38354000D03*
X108396010Y-39363484D03*
X106426000Y-38608000D03*
X120904000Y-35306000D03*
X93726000Y-67310000D03*
X143510000Y-50546000D03*
X91694000Y-88392000D03*
X89154000Y-88392000D03*
X86614000Y-88392000D03*
X76454000Y-88392000D03*
X73914000Y-88392000D03*
X98044000Y-42672000D03*
X96080500Y-39809500D03*
X60279872Y-37723837D03*
X110494660Y-47248660D03*
X67564000Y-60452000D03*
X143267000Y-57669000D03*
X132659364Y-52287781D03*
X143510000Y-66802000D03*
X134366000Y-72644000D03*
X134180500Y-64701500D03*
%TO.N,CLOCK*%
X150114000Y-50546000D03*
X89277988Y-38260172D03*
X78486000Y-38608000D03*
%TO.N,~ALU_OUT*%
X93218000Y-47244000D03*
X88646000Y-66294000D03*
X92964000Y-86106000D03*
%TO.N,/ALU0*%
X128524000Y-51054000D03*
%TO.N,/ALU1*%
X126238000Y-51054000D03*
X135128000Y-49276000D03*
%TO.N,/ALU2*%
X123952000Y-51054000D03*
X130048000Y-59944000D03*
X136144000Y-49276000D03*
%TO.N,/ALU3*%
X121666000Y-51054000D03*
X129286000Y-64516000D03*
X137160000Y-49276000D03*
%TO.N,/ALU4*%
X119380000Y-51054000D03*
X137922000Y-41910000D03*
X94996000Y-79502000D03*
%TO.N,/ALU5*%
X117094000Y-51054000D03*
X136906000Y-41910000D03*
X94234000Y-78486000D03*
%TO.N,/ALU6*%
X114808000Y-51054000D03*
X135636000Y-41402000D03*
X93218000Y-77470000D03*
%TO.N,SF*%
X136709078Y-63041667D03*
X138430000Y-77216000D03*
X138430000Y-87805500D03*
%TO.N,BUS7*%
X103841318Y-37801318D03*
%TO.N,BUS6*%
X102842363Y-37847271D03*
%TO.N,BUS5*%
X101802698Y-38027933D03*
%TO.N,BUS4*%
X100803942Y-38078036D03*
%TO.N,BUS3*%
X99807463Y-38161990D03*
%TO.N,BUS2*%
X98827767Y-37961468D03*
%TO.N,BUS1*%
X97833880Y-38071980D03*
%TO.N,~A_OUT*%
X61468000Y-37338000D03*
X59436000Y-48006000D03*
X60706000Y-50422011D03*
%TO.N,/A0*%
X87122000Y-51054000D03*
X67241500Y-39809500D03*
X104722709Y-41570920D03*
X94996000Y-66040000D03*
X88900000Y-61976000D03*
%TO.N,/A1*%
X67056000Y-41148000D03*
X84836000Y-51054000D03*
X103876648Y-39861463D03*
X96266000Y-65786000D03*
X89916000Y-61976000D03*
%TO.N,/A2*%
X82550000Y-51054000D03*
X66223940Y-41702706D03*
X110236000Y-42418000D03*
X113030000Y-42418000D03*
X97536000Y-65786000D03*
X90932000Y-61976000D03*
X90593987Y-48344013D03*
%TO.N,/A3*%
X80264000Y-51054000D03*
X65528656Y-42421457D03*
X97282000Y-70866000D03*
X87884000Y-61976000D03*
%TO.N,/A4*%
X83830500Y-37835500D03*
X77978000Y-51054000D03*
X64696026Y-42975309D03*
X89084112Y-35458760D03*
X80010000Y-47244000D03*
%TO.N,/A5*%
X63754000Y-42418000D03*
X75692000Y-51054000D03*
X67818000Y-54356000D03*
X85608500Y-38343500D03*
X90051892Y-36516946D03*
%TO.N,/A6*%
X63031163Y-41726828D03*
X73406000Y-51068054D03*
X69342000Y-64262000D03*
X67818000Y-55880000D03*
X90678000Y-37338000D03*
X86878500Y-38343500D03*
%TO.N,/A7*%
X69596000Y-51562000D03*
X86442429Y-36493571D03*
X68518010Y-58608268D03*
X130810000Y-52324000D03*
X121854979Y-42126021D03*
X91632010Y-36768010D03*
X62468013Y-37846000D03*
%TO.N,/B0*%
X118364000Y-42418000D03*
X72152240Y-60944576D03*
X68733074Y-61344012D03*
X95611989Y-76307989D03*
X107188000Y-51054000D03*
%TO.N,/B1*%
X105410000Y-51054000D03*
X115824000Y-42418000D03*
X107442000Y-64939979D03*
X73448750Y-61675386D03*
X69540965Y-61952630D03*
%TO.N,/B2*%
X103124000Y-51054000D03*
X111760000Y-42418000D03*
X74676000Y-62230000D03*
X70385729Y-62543394D03*
%TO.N,/B3*%
X100838000Y-51054000D03*
X108326043Y-45720000D03*
X76313982Y-62878018D03*
X70915567Y-63391506D03*
%TO.N,/B4*%
X98552000Y-51054000D03*
X130302000Y-38608000D03*
%TO.N,/B5*%
X96266000Y-51054000D03*
X127762000Y-38100000D03*
%TO.N,/B6*%
X93980000Y-51054000D03*
X124460000Y-37761979D03*
%TO.N,/B7*%
X107188000Y-43180000D03*
X91694000Y-51292013D03*
X119888000Y-43942000D03*
X132842000Y-53848000D03*
%TO.N,A_SHR*%
X79756000Y-38608000D03*
%TO.N,A_SHL*%
X81534000Y-40640000D03*
%TO.N,Net-(U6-Pad7)*%
X81788000Y-77978000D03*
X99568000Y-72898000D03*
%TO.N,ALU_CARRY_OUT*%
X129794000Y-78740000D03*
%TO.N,Net-(U11-Pad1)*%
X137668000Y-44196000D03*
X135128000Y-43942000D03*
%TO.N,OVERFLOW*%
X149098000Y-70612000D03*
X151638000Y-38100000D03*
%TO.N,ZF*%
X139446000Y-76708000D03*
X137668006Y-62230000D03*
X139446000Y-86535500D03*
%TO.N,LTF*%
X140462000Y-76200000D03*
X138622010Y-63020849D03*
X140462000Y-85265500D03*
%TO.N,EQF*%
X142126120Y-75090588D03*
X140620424Y-62996084D03*
X142240000Y-82296000D03*
%TO.N,GTF*%
X141294060Y-75645294D03*
X139620744Y-62970312D03*
X141294060Y-83811560D03*
%TO.N,ALU_MODE*%
X79502000Y-88138000D03*
%TO.N,CF*%
X134620000Y-62738000D03*
X136652000Y-78486000D03*
X136652000Y-90599500D03*
%TO.N,OF*%
X135726694Y-62854730D03*
X137484060Y-77931293D03*
X137668000Y-89329500D03*
%TO.N,/ALU7*%
X112522000Y-51054000D03*
X133604000Y-41656000D03*
X109982000Y-63246000D03*
X135890000Y-56642000D03*
X133350000Y-49976010D03*
X146517000Y-69809000D03*
%TO.N,ZERO*%
X144526000Y-69850000D03*
X150114000Y-43180000D03*
%TO.N,EQ*%
X127635000Y-43561000D03*
X140462000Y-50038000D03*
%TO.N,GT*%
X132235794Y-50887770D03*
X146304000Y-63246000D03*
%TO.N,LT*%
X130048000Y-50800000D03*
X144271350Y-63245777D03*
%TO.N,~RESET*%
X70104000Y-45720000D03*
X62484000Y-49022000D03*
%TO.N,Net-(Q1-Pad3)*%
X143256000Y-55880000D03*
X141986000Y-58674000D03*
%TO.N,Net-(Q2-Pad3)*%
X131318000Y-69596000D03*
X144425036Y-72035036D03*
%TO.N,FLAG_REG_IN*%
X130556000Y-84074000D03*
X143256000Y-77724000D03*
%TO.N,FLAG5*%
X147320000Y-63246000D03*
X140714055Y-67845901D03*
%TO.N,FLAG4*%
X145217000Y-63571000D03*
X140150931Y-66846563D03*
%TO.N,FLAG3*%
X145542000Y-70104000D03*
X138914033Y-66631724D03*
%TO.N,FLAG2*%
X149098000Y-68326000D03*
X138914033Y-67631737D03*
%TO.N,FLAG1*%
X147574000Y-72644000D03*
X135128000Y-67818000D03*
%TO.N,FLAG0*%
X134112000Y-68580000D03*
X145443998Y-72006038D03*
%TD*%
D19*
%TO.N,CLOCK*%
X68618022Y-91478022D02*
X71374000Y-94234000D01*
X58381978Y-86437378D02*
X63422622Y-91478022D01*
X58381978Y-38585729D02*
X58381978Y-86437378D01*
X60329708Y-36637999D02*
X58381978Y-38585729D01*
X63422622Y-91478022D02*
X68618022Y-91478022D01*
X76515999Y-36637999D02*
X60329708Y-36637999D01*
X78486000Y-38608000D02*
X76515999Y-36637999D01*
X150114000Y-50546000D02*
X152507989Y-48152011D01*
X152507989Y-41255989D02*
X148590000Y-37338000D01*
X152507989Y-48152011D02*
X152507989Y-41255989D01*
X124796001Y-37061978D02*
X124123999Y-37061978D01*
X125072023Y-37338000D02*
X124796001Y-37061978D01*
X89879816Y-38862000D02*
X89277988Y-38260172D01*
X124123999Y-37061978D02*
X123847977Y-37338000D01*
X123847977Y-37338000D02*
X106172000Y-37338000D01*
X104648000Y-38862000D02*
X89879816Y-38862000D01*
X106172000Y-37338000D02*
X104648000Y-38862000D01*
X148590000Y-37338000D02*
X125072023Y-37338000D01*
%TO.N,~ALU_OUT*%
X92964000Y-86106000D02*
X92964000Y-86868000D01*
X92964000Y-86868000D02*
X92456000Y-87376000D01*
X92456000Y-87376000D02*
X90932000Y-87376000D01*
X90932000Y-87376000D02*
X90170000Y-88138000D01*
X90170000Y-88138000D02*
X90170000Y-90170000D01*
X86614000Y-93726000D02*
X86614000Y-94234000D01*
X90170000Y-90170000D02*
X86614000Y-93726000D01*
%TO.N,/ALU1*%
X130928346Y-49950455D02*
X131398650Y-49950455D01*
X131398650Y-49950455D02*
X132073105Y-49276000D01*
X132073105Y-49276000D02*
X135128000Y-49276000D01*
X130872746Y-50006055D02*
X130928346Y-49950455D01*
X127285945Y-50006055D02*
X130872746Y-50006055D01*
X126238000Y-51054000D02*
X127285945Y-50006055D01*
%TO.N,/ALU2*%
X123952000Y-53848000D02*
X123952000Y-51054000D01*
X130048000Y-59944000D02*
X123952000Y-53848000D01*
X136398000Y-49022000D02*
X136144000Y-49276000D01*
X125399956Y-49606044D02*
X130707057Y-49606044D01*
X132461406Y-48321999D02*
X135189999Y-48321999D01*
X123952000Y-51054000D02*
X125399956Y-49606044D01*
X130707057Y-49606044D02*
X130762657Y-49550444D01*
X131232961Y-49550444D02*
X132461406Y-48321999D01*
X135189999Y-48321999D02*
X136144000Y-49276000D01*
X130762657Y-49550444D02*
X131232961Y-49550444D01*
%TO.N,/ALU3*%
X121666000Y-51054000D02*
X121666000Y-54356000D01*
X121666000Y-54356000D02*
X125222000Y-57912000D01*
X125222000Y-57912000D02*
X125222000Y-60960000D01*
X125222000Y-60960000D02*
X128778000Y-64516000D01*
X128778000Y-64516000D02*
X129286000Y-64516000D01*
X121666000Y-51054000D02*
X123513967Y-49206033D01*
X131067272Y-49150433D02*
X132927935Y-47289770D01*
X137160000Y-47948301D02*
X137160000Y-49276000D01*
X130541368Y-49206033D02*
X130596968Y-49150433D01*
X130596968Y-49150433D02*
X131067272Y-49150433D01*
X123513967Y-49206033D02*
X130541368Y-49206033D01*
X132927935Y-47289770D02*
X136501469Y-47289770D01*
X136501469Y-47289770D02*
X137160000Y-47948301D01*
%TO.N,/ALU4*%
X120230311Y-77831989D02*
X129393991Y-68668309D01*
X119380000Y-52889700D02*
X119380000Y-51054000D01*
X129393991Y-68668309D02*
X129393991Y-65697691D01*
X124821989Y-61125689D02*
X124821989Y-58331689D01*
X108701067Y-80194033D02*
X111063111Y-77831989D01*
X129393991Y-65697691D02*
X124821989Y-61125689D01*
X94996000Y-79502000D02*
X97108900Y-79502000D01*
X97108900Y-79502000D02*
X97800933Y-80194033D01*
X111063111Y-77831989D02*
X120230311Y-77831989D01*
X124821989Y-58331689D02*
X119380000Y-52889700D01*
X97800933Y-80194033D02*
X108701067Y-80194033D01*
X130375679Y-48806022D02*
X130431279Y-48750422D01*
X137221999Y-42610001D02*
X137922000Y-41910000D01*
X121627978Y-48806022D02*
X130375679Y-48806022D01*
X134935999Y-42610001D02*
X137221999Y-42610001D01*
X130901583Y-48750422D02*
X132880022Y-46771983D01*
X132880022Y-46771983D02*
X132880022Y-44665978D01*
X119380000Y-51054000D02*
X121627978Y-48806022D01*
X132880022Y-44665978D02*
X134935999Y-42610001D01*
X130431279Y-48750422D02*
X130901583Y-48750422D01*
%TO.N,/ALU5*%
X96658600Y-78486000D02*
X94234000Y-78486000D01*
X124421978Y-60783378D02*
X124421978Y-61291378D01*
X117094000Y-51054000D02*
X117094000Y-53455400D01*
X108535378Y-79794022D02*
X97966622Y-79794022D01*
X117094000Y-53455400D02*
X124421978Y-60783378D01*
X120064622Y-77431978D02*
X110897422Y-77431978D01*
X110897422Y-77431978D02*
X108535378Y-79794022D01*
X97966622Y-79794022D02*
X96658600Y-78486000D01*
X124421978Y-61291378D02*
X128993980Y-65863380D01*
X128993980Y-65863380D02*
X128993980Y-68502620D01*
X128993980Y-68502620D02*
X120064622Y-77431978D01*
X130209990Y-48406011D02*
X119741989Y-48406011D01*
X130735894Y-48350411D02*
X130265590Y-48350411D01*
X130265590Y-48350411D02*
X130209990Y-48406011D01*
X134739698Y-42102002D02*
X132480011Y-44361689D01*
X119741989Y-48406011D02*
X117094000Y-51054000D01*
X132480011Y-44361689D02*
X132480011Y-46606294D01*
X136713998Y-42102002D02*
X134739698Y-42102002D01*
X136906000Y-41910000D02*
X136713998Y-42102002D01*
X132480011Y-46606294D02*
X130735894Y-48350411D01*
%TO.N,/ALU6*%
X128593969Y-68336931D02*
X128593969Y-66029069D01*
X114808000Y-51735100D02*
X114808000Y-51054000D01*
X124021967Y-60949067D02*
X114808000Y-51735100D01*
X93218000Y-77470000D02*
X96208300Y-77470000D01*
X96208300Y-77470000D02*
X98132311Y-79394011D01*
X98132311Y-79394011D02*
X108369689Y-79394011D01*
X124021967Y-61457067D02*
X124021967Y-60949067D01*
X108369689Y-79394011D02*
X110731733Y-77031967D01*
X110731733Y-77031967D02*
X119898933Y-77031967D01*
X119898933Y-77031967D02*
X128593969Y-68336931D01*
X128593969Y-66029069D02*
X124021967Y-61457067D01*
X132080000Y-44196000D02*
X134874000Y-41402000D01*
X114808000Y-51054000D02*
X117911600Y-47950400D01*
X117911600Y-47950400D02*
X130570205Y-47950400D01*
X132080000Y-46440605D02*
X132080000Y-44196000D01*
X134874000Y-41402000D02*
X135636000Y-41402000D01*
X130570205Y-47950400D02*
X132080000Y-46440605D01*
%TO.N,SF*%
X138430000Y-87805500D02*
X131142500Y-87805500D01*
X131142500Y-87805500D02*
X130302000Y-88646000D01*
X120142000Y-88646000D02*
X114554000Y-94234000D01*
X130302000Y-88646000D02*
X120142000Y-88646000D01*
%TO.N,BUS7*%
X93980000Y-27940000D02*
X103841318Y-37801318D01*
X64008000Y-27940000D02*
X93980000Y-27940000D01*
X60706000Y-31242000D02*
X64008000Y-27940000D01*
%TO.N,BUS6*%
X66040000Y-28448000D02*
X93443092Y-28448000D01*
X93443092Y-28448000D02*
X102842363Y-37847271D01*
X63246000Y-31242000D02*
X66040000Y-28448000D01*
%TO.N,BUS5*%
X96832787Y-33058022D02*
X101802698Y-38027933D01*
X80029113Y-28848011D02*
X84239124Y-33058022D01*
X84239124Y-33058022D02*
X96832787Y-33058022D01*
X65786000Y-31242000D02*
X68179989Y-28848011D01*
X68179989Y-28848011D02*
X80029113Y-28848011D01*
%TO.N,BUS4*%
X96530933Y-33458033D02*
X100803942Y-37731042D01*
X100803942Y-37731042D02*
X100803942Y-38078036D01*
X68326000Y-31242000D02*
X70319978Y-29248022D01*
X84073435Y-33458033D02*
X96530933Y-33458033D01*
X79863424Y-29248022D02*
X84073435Y-33458033D01*
X70319978Y-29248022D02*
X79863424Y-29248022D01*
%TO.N,BUS3*%
X99807463Y-37596305D02*
X99807463Y-38161990D01*
X79697735Y-29648033D02*
X83907746Y-33858044D01*
X70866000Y-31242000D02*
X72459967Y-29648033D01*
X72459967Y-29648033D02*
X79697735Y-29648033D01*
X96069202Y-33858044D02*
X99807463Y-37596305D01*
X83907746Y-33858044D02*
X96069202Y-33858044D01*
%TO.N,BUS2*%
X95124354Y-34258055D02*
X98827767Y-37961468D01*
X83742057Y-34258055D02*
X95124354Y-34258055D01*
X79532046Y-30048044D02*
X83742057Y-34258055D01*
X73406000Y-31242000D02*
X74599956Y-30048044D01*
X74599956Y-30048044D02*
X79532046Y-30048044D01*
%TO.N,BUS1*%
X79362066Y-34658066D02*
X94419966Y-34658066D01*
X94419966Y-34658066D02*
X97833880Y-38071980D01*
X75946000Y-31242000D02*
X79362066Y-34658066D01*
%TO.N,~A_OUT*%
X61468000Y-37338000D02*
X61468000Y-39878000D01*
X61468000Y-39878000D02*
X59182000Y-42164000D01*
X59182000Y-42164000D02*
X59182000Y-47752000D01*
X59182000Y-47752000D02*
X59436000Y-48006000D01*
X76454000Y-94234000D02*
X72898000Y-90678000D01*
X63754000Y-90678000D02*
X59182000Y-86106000D01*
X59182000Y-86106000D02*
X59182000Y-51946011D01*
X72898000Y-90678000D02*
X63754000Y-90678000D01*
X59182000Y-51946011D02*
X60706000Y-50422011D01*
%TO.N,/A0*%
X67241500Y-40063500D02*
X67241500Y-39809500D01*
X67818000Y-40640000D02*
X67241500Y-40063500D01*
X68834000Y-48260000D02*
X67818000Y-47244000D01*
X87122000Y-51054000D02*
X84328000Y-48260000D01*
X84328000Y-48260000D02*
X68834000Y-48260000D01*
X67818000Y-47244000D02*
X67818000Y-40640000D01*
X94996000Y-66040000D02*
X93218000Y-64262000D01*
X93218000Y-64262000D02*
X91186000Y-64262000D01*
X91186000Y-64262000D02*
X88900000Y-61976000D01*
X87122000Y-51054000D02*
X89131986Y-49044014D01*
X99060000Y-46990000D02*
X101268298Y-46990000D01*
X101268298Y-46990000D02*
X104722709Y-43535589D01*
X90929988Y-49044014D02*
X91206002Y-48768000D01*
X89131986Y-49044014D02*
X90929988Y-49044014D01*
X104722709Y-43535589D02*
X104722709Y-41570920D01*
X91206002Y-48768000D02*
X97282000Y-48768000D01*
X97282000Y-48768000D02*
X99060000Y-46990000D01*
%TO.N,/A1*%
X67056000Y-41148000D02*
X67056000Y-42418000D01*
X67056000Y-42418000D02*
X67310000Y-42672000D01*
X67310000Y-42672000D02*
X67310000Y-47752000D01*
X67310000Y-47752000D02*
X68326000Y-48768000D01*
X68326000Y-48768000D02*
X82550000Y-48768000D01*
X82550000Y-48768000D02*
X84836000Y-51054000D01*
X96266000Y-65786000D02*
X93980000Y-63500000D01*
X93980000Y-63500000D02*
X91440000Y-63500000D01*
X91440000Y-63500000D02*
X89916000Y-61976000D01*
X84836000Y-51054000D02*
X85598000Y-51816000D01*
X87630000Y-51816000D02*
X90001975Y-49444025D01*
X97339700Y-49276000D02*
X99225689Y-47390011D01*
X91263702Y-49276000D02*
X97339700Y-49276000D01*
X102865701Y-46035999D02*
X105422710Y-43478990D01*
X90001975Y-49444025D02*
X91095677Y-49444025D01*
X99225689Y-47390011D02*
X101433987Y-47390011D01*
X101433987Y-47390011D02*
X102787999Y-46035999D01*
X91095677Y-49444025D02*
X91263702Y-49276000D01*
X85598000Y-51816000D02*
X87630000Y-51816000D01*
X105422710Y-40841840D02*
X104442333Y-39861463D01*
X105422710Y-43478990D02*
X105422710Y-40841840D01*
X102787999Y-46035999D02*
X102865701Y-46035999D01*
X104442333Y-39861463D02*
X103876648Y-39861463D01*
%TO.N,/A2*%
X66909989Y-42837689D02*
X66223940Y-42151640D01*
X68160311Y-49168011D02*
X66909989Y-47917689D01*
X66909989Y-47917689D02*
X66909989Y-42837689D01*
X80664011Y-49168011D02*
X68160311Y-49168011D01*
X82550000Y-51054000D02*
X80664011Y-49168011D01*
X66223940Y-42151640D02*
X66223940Y-41702706D01*
X110236000Y-42418000D02*
X111252000Y-41402000D01*
X111252000Y-41402000D02*
X112522000Y-41402000D01*
X112522000Y-41402000D02*
X113030000Y-41910000D01*
X113030000Y-41910000D02*
X113030000Y-42418000D01*
X97536000Y-65786000D02*
X94742000Y-62992000D01*
X94742000Y-62992000D02*
X92202000Y-62992000D01*
X91186000Y-61976000D02*
X90932000Y-61976000D01*
X92202000Y-62992000D02*
X91186000Y-61976000D01*
%TO.N,/A3*%
X65928057Y-42421457D02*
X65528656Y-42421457D01*
X67994622Y-49568022D02*
X66509978Y-48083378D01*
X78778022Y-49568022D02*
X67994622Y-49568022D01*
X80264000Y-51054000D02*
X78778022Y-49568022D01*
X66509978Y-48083378D02*
X66509978Y-43003378D01*
X66509978Y-43003378D02*
X65928057Y-42421457D01*
X97282000Y-70866000D02*
X96266000Y-69850000D01*
X96266000Y-69850000D02*
X96266000Y-68326000D01*
X96266000Y-68326000D02*
X92964000Y-65024000D01*
X92964000Y-65024000D02*
X90932000Y-65024000D01*
X90932000Y-65024000D02*
X87884000Y-61976000D01*
%TO.N,/A4*%
X77978000Y-51054000D02*
X76892033Y-49968033D01*
X67828933Y-49968033D02*
X64696026Y-46835126D01*
X64696026Y-46835126D02*
X64696026Y-42975309D01*
X76892033Y-49968033D02*
X67828933Y-49968033D01*
X77978000Y-51054000D02*
X77978000Y-59944000D01*
X77978000Y-59944000D02*
X77216000Y-60706000D01*
X77216000Y-60706000D02*
X77216000Y-65532000D01*
X77216000Y-65532000D02*
X76200000Y-66548000D01*
X76200000Y-66548000D02*
X67310000Y-66548000D01*
X67310000Y-66548000D02*
X65532000Y-68326000D01*
X65532000Y-68326000D02*
X65532000Y-73406000D01*
X65532000Y-73406000D02*
X59944000Y-78994000D01*
X59944000Y-78994000D02*
X59944000Y-85090000D01*
X59944000Y-85090000D02*
X60706000Y-85852000D01*
X62484000Y-85852000D02*
X64262000Y-84074000D01*
X60706000Y-85852000D02*
X62484000Y-85852000D01*
X83830500Y-37835500D02*
X86207240Y-35458760D01*
X86207240Y-35458760D02*
X89084112Y-35458760D01*
X83830500Y-43169500D02*
X80010000Y-46990000D01*
X80010000Y-46990000D02*
X80010000Y-47244000D01*
X83830500Y-37835500D02*
X83830500Y-43169500D01*
%TO.N,/A5*%
X63754000Y-46458800D02*
X67663244Y-50368044D01*
X63754000Y-42418000D02*
X63754000Y-46458800D01*
X75006044Y-50368044D02*
X75692000Y-51054000D01*
X67663244Y-50368044D02*
X75006044Y-50368044D01*
X64262000Y-68834000D02*
X64262000Y-67564000D01*
X64262000Y-67564000D02*
X65532000Y-66294000D01*
X65532000Y-66294000D02*
X65532000Y-56642000D01*
X65532000Y-56642000D02*
X67818000Y-54356000D01*
X89651893Y-36916945D02*
X90051892Y-36516946D01*
X87035055Y-36916945D02*
X89651893Y-36916945D01*
X85608500Y-38343500D02*
X87035055Y-36916945D01*
%TO.N,/A6*%
X72840315Y-51068054D02*
X73406000Y-51068054D01*
X63031163Y-46301663D02*
X67591498Y-50861998D01*
X63031163Y-41726828D02*
X63031163Y-46301663D01*
X67591498Y-50861998D02*
X72634259Y-50861998D01*
X72634259Y-50861998D02*
X72840315Y-51068054D01*
X86889000Y-38354000D02*
X86878500Y-38343500D01*
X87630000Y-38354000D02*
X86889000Y-38354000D01*
X88646000Y-37338000D02*
X87630000Y-38354000D01*
X90678000Y-37338000D02*
X88646000Y-37338000D01*
X68010001Y-61042001D02*
X68264001Y-60788001D01*
X69342000Y-64262000D02*
X68010001Y-62930001D01*
X68264001Y-60788001D02*
X68264001Y-59861999D01*
X67818000Y-59415998D02*
X67818000Y-55880000D01*
X68264001Y-59861999D02*
X67818000Y-59415998D01*
X68010001Y-62930001D02*
X68010001Y-61042001D01*
%TO.N,/A7*%
X69596000Y-51562000D02*
X68518010Y-52639990D01*
X68518010Y-52639990D02*
X68518010Y-58608268D01*
X90680945Y-35816945D02*
X91632010Y-36768010D01*
X89715891Y-35816945D02*
X90680945Y-35816945D01*
X89039265Y-36493571D02*
X89715891Y-35816945D01*
X86442429Y-36493571D02*
X89039265Y-36493571D01*
X62068014Y-38245999D02*
X62468013Y-37846000D01*
X62068014Y-46066014D02*
X62068014Y-38245999D01*
X67564000Y-51562000D02*
X62068014Y-46066014D01*
X69596000Y-51562000D02*
X67564000Y-51562000D01*
%TO.N,/B0*%
X72152240Y-60944576D02*
X69132510Y-60944576D01*
X69132510Y-60944576D02*
X68733074Y-61344012D01*
X95611989Y-76307989D02*
X110890011Y-76307989D01*
X110890011Y-76307989D02*
X117348000Y-69850000D01*
X117348000Y-67056000D02*
X115824000Y-65532000D01*
X117348000Y-69850000D02*
X117348000Y-67056000D01*
X109728000Y-65532000D02*
X107188000Y-62992000D01*
X109728000Y-51054000D02*
X107188000Y-51054000D01*
X118364000Y-42418000D02*
X109728000Y-51054000D01*
X107188000Y-62992000D02*
X107188000Y-51054000D01*
X115824000Y-65532000D02*
X109728000Y-65532000D01*
%TO.N,/B1*%
X105410000Y-51054000D02*
X105410000Y-62907979D01*
X105410000Y-62907979D02*
X107442000Y-64939979D01*
X73448750Y-61675386D02*
X69818209Y-61675386D01*
X69818209Y-61675386D02*
X69540965Y-61952630D01*
X105410000Y-51054000D02*
X106203945Y-50260055D01*
X106203945Y-50260055D02*
X109817645Y-50260055D01*
X115824000Y-44253700D02*
X115824000Y-42418000D01*
X109817645Y-50260055D02*
X115824000Y-44253700D01*
%TO.N,/B2*%
X114808000Y-69850000D02*
X114046000Y-70612000D01*
X114808000Y-67056000D02*
X114808000Y-69850000D01*
X110236000Y-70612000D02*
X108458000Y-68834000D01*
X113792000Y-66040000D02*
X114808000Y-67056000D01*
X107167996Y-66040000D02*
X113792000Y-66040000D01*
X103124000Y-61996004D02*
X107167996Y-66040000D01*
X114046000Y-70612000D02*
X110236000Y-70612000D01*
X103124000Y-51054000D02*
X103124000Y-61996004D01*
X74276001Y-62629999D02*
X70472334Y-62629999D01*
X74676000Y-62230000D02*
X74276001Y-62629999D01*
X70472334Y-62629999D02*
X70385729Y-62543394D01*
X106015056Y-49860044D02*
X108789986Y-47085114D01*
X108789986Y-47085114D02*
X108789986Y-46907999D01*
X108789986Y-46907999D02*
X111760000Y-43937985D01*
X111760000Y-43937985D02*
X111760000Y-42418000D01*
X103124000Y-51054000D02*
X104317956Y-49860044D01*
X104317956Y-49860044D02*
X106015056Y-49860044D01*
%TO.N,/B3*%
X105710767Y-49460033D02*
X108326043Y-46844757D01*
X100838000Y-51054000D02*
X102431967Y-49460033D01*
X102431967Y-49460033D02*
X105710767Y-49460033D01*
X108326043Y-46844757D02*
X108326043Y-45720000D01*
X107002307Y-66440011D02*
X111144011Y-66440011D01*
X100838000Y-51054000D02*
X100838000Y-60275704D01*
X111144011Y-66440011D02*
X113538000Y-68834000D01*
X100838000Y-60275704D02*
X107002307Y-66440011D01*
X76313982Y-62878018D02*
X75800494Y-63391506D01*
X75800494Y-63391506D02*
X70915567Y-63391506D01*
%TO.N,/B4*%
X98552000Y-51054000D02*
X100545978Y-49060022D01*
X105545078Y-49060022D02*
X107626033Y-46979067D01*
X107626033Y-45085667D02*
X108750022Y-43961678D01*
X107626033Y-46979067D02*
X107626033Y-45085667D01*
X100545978Y-49060022D02*
X105545078Y-49060022D01*
X108750022Y-41441680D02*
X111291680Y-38900022D01*
X129444293Y-38900022D02*
X129736315Y-38608000D01*
X129736315Y-38608000D02*
X130302000Y-38608000D01*
X111291680Y-38900022D02*
X129444293Y-38900022D01*
X108750022Y-43961678D02*
X108750022Y-41441680D01*
X98552000Y-51054000D02*
X98552000Y-53086000D01*
X98552000Y-53086000D02*
X95250000Y-56388000D01*
X95250000Y-56388000D02*
X84836000Y-56388000D01*
X84836000Y-56388000D02*
X83312000Y-57912000D01*
X83312000Y-57912000D02*
X83312000Y-70104000D01*
X83312000Y-70104000D02*
X81280000Y-72136000D01*
X81280000Y-72136000D02*
X68326000Y-72136000D01*
X61722000Y-78740000D02*
X61722000Y-84074000D01*
X68326000Y-72136000D02*
X61722000Y-78740000D01*
%TO.N,/B5*%
X127762000Y-38100000D02*
X127362001Y-38499999D01*
X99652789Y-48660011D02*
X97258800Y-51054000D01*
X97258800Y-51054000D02*
X96266000Y-51054000D01*
X105379389Y-48660011D02*
X99652789Y-48660011D01*
X108350011Y-41275991D02*
X108350011Y-43795989D01*
X107226022Y-44919978D02*
X107226022Y-46813378D01*
X108350011Y-43795989D02*
X107226022Y-44919978D01*
X127362001Y-38499999D02*
X111126003Y-38499999D01*
X111126003Y-38499999D02*
X108350011Y-41275991D01*
X107226022Y-46813378D02*
X105379389Y-48660011D01*
X96266000Y-51054000D02*
X91440000Y-55880000D01*
X80772000Y-59886300D02*
X80772000Y-69596000D01*
X80772000Y-69596000D02*
X78994000Y-71374000D01*
X69342000Y-71374000D02*
X66802000Y-68834000D01*
X84778300Y-55880000D02*
X80772000Y-59886300D01*
X78994000Y-71374000D02*
X69342000Y-71374000D01*
X91440000Y-55880000D02*
X84778300Y-55880000D01*
%TO.N,/B6*%
X97671078Y-50076022D02*
X99487100Y-48260000D01*
X93980000Y-51054000D02*
X94957978Y-50076022D01*
X99487100Y-48260000D02*
X105213700Y-48260000D01*
X107950000Y-40845496D02*
X111033517Y-37761979D01*
X111033517Y-37761979D02*
X124460000Y-37761979D01*
X107950000Y-43434000D02*
X107950000Y-40845496D01*
X106826011Y-46647689D02*
X106826011Y-44557989D01*
X94957978Y-50076022D02*
X97671078Y-50076022D01*
X106826011Y-44557989D02*
X107950000Y-43434000D01*
X105213700Y-48260000D02*
X106826011Y-46647689D01*
X89554011Y-55479989D02*
X84612611Y-55479989D01*
X80371989Y-59720611D02*
X80371989Y-64662011D01*
X80371989Y-64662011D02*
X78401999Y-66632001D01*
X76812002Y-70612000D02*
X73660000Y-70612000D01*
X84612611Y-55479989D02*
X80371989Y-59720611D01*
X93980000Y-51054000D02*
X89554011Y-55479989D01*
X78401999Y-69022003D02*
X76812002Y-70612000D01*
X78401999Y-66632001D02*
X78401999Y-69022003D01*
X73660000Y-70612000D02*
X71882000Y-68834000D01*
%TO.N,/B7*%
X77761999Y-68034001D02*
X77761999Y-61764901D01*
X76962000Y-68834000D02*
X77761999Y-68034001D01*
X84446922Y-55079978D02*
X87906035Y-55079978D01*
X87906035Y-55079978D02*
X91694000Y-51292013D01*
X77761999Y-61764901D02*
X84446922Y-55079978D01*
X93310002Y-49676011D02*
X91694000Y-51292013D01*
X97505389Y-49676011D02*
X93310002Y-49676011D01*
X106426000Y-43942000D02*
X106426000Y-46482000D01*
X99391378Y-47790022D02*
X97505389Y-49676011D01*
X106426000Y-46482000D02*
X105117978Y-47790022D01*
X105117978Y-47790022D02*
X99391378Y-47790022D01*
X107188000Y-43180000D02*
X106426000Y-43942000D01*
%TO.N,A_SHR*%
X56896000Y-73348300D02*
X57912000Y-74364300D01*
X79756000Y-38608000D02*
X77108011Y-35960011D01*
X57912000Y-68891700D02*
X56896000Y-69907700D01*
X77108011Y-35960011D02*
X60305989Y-35960011D01*
X60305989Y-35960011D02*
X57912000Y-38354000D01*
X57912000Y-38354000D02*
X57912000Y-68891700D01*
X57912000Y-74364300D02*
X57912000Y-86556300D01*
X64408011Y-93052311D02*
X64408011Y-95338311D01*
X65589700Y-96520000D02*
X76708000Y-96520000D01*
X64408011Y-95338311D02*
X65589700Y-96520000D01*
X56896000Y-69907700D02*
X56896000Y-73348300D01*
X57912000Y-86556300D02*
X64408011Y-93052311D01*
X76708000Y-96520000D02*
X78994000Y-94234000D01*
%TO.N,A_SHL*%
X81534000Y-94234000D02*
X78740000Y-97028000D01*
X78740000Y-97028000D02*
X65278000Y-97028000D01*
X65278000Y-97028000D02*
X64008000Y-95758000D01*
X64008000Y-95758000D02*
X64008000Y-93218000D01*
X64008000Y-93218000D02*
X57404000Y-86614000D01*
X57404000Y-86614000D02*
X57404000Y-74422000D01*
X57404000Y-74422000D02*
X56388000Y-73406000D01*
X56388000Y-73406000D02*
X56388000Y-69850000D01*
X56388000Y-69850000D02*
X57404000Y-68834000D01*
X57404000Y-68834000D02*
X57404000Y-38100000D01*
X57404000Y-38100000D02*
X59944000Y-35560000D01*
X59944000Y-35560000D02*
X78232000Y-35560000D01*
X78232000Y-35560000D02*
X81534000Y-38862000D01*
X81534000Y-38862000D02*
X81534000Y-40640000D01*
%TO.N,Net-(U6-Pad7)*%
X81788000Y-77978000D02*
X86868000Y-72898000D01*
X86868000Y-72898000D02*
X99568000Y-72898000D01*
%TO.N,Net-(U11-Pad1)*%
X137668000Y-44196000D02*
X135382000Y-44196000D01*
X135382000Y-44196000D02*
X135128000Y-43942000D01*
%TO.N,OVERFLOW*%
X149098000Y-70612000D02*
X150114000Y-69596000D01*
X150114000Y-69596000D02*
X150114000Y-55118000D01*
X150114000Y-55118000D02*
X152908000Y-52324000D01*
X152908000Y-52324000D02*
X152908000Y-39370000D01*
X152908000Y-39370000D02*
X151638000Y-38100000D01*
%TO.N,ZF*%
X112014000Y-94234000D02*
X118110000Y-88138000D01*
X118110000Y-88138000D02*
X130048000Y-88138000D01*
X131650500Y-86535500D02*
X139446000Y-86535500D01*
X130048000Y-88138000D02*
X131650500Y-86535500D01*
%TO.N,LTF*%
X140462000Y-85265500D02*
X132158500Y-85265500D01*
X132158500Y-85265500D02*
X129794000Y-87630000D01*
X116078000Y-87630000D02*
X109474000Y-94234000D01*
X129794000Y-87630000D02*
X116078000Y-87630000D01*
%TO.N,EQF*%
X112014000Y-86614000D02*
X104394000Y-94234000D01*
X129286000Y-86614000D02*
X112014000Y-86614000D01*
X133604000Y-82296000D02*
X129286000Y-86614000D01*
X142240000Y-82296000D02*
X133604000Y-82296000D01*
%TO.N,GTF*%
X106934000Y-94234000D02*
X114046000Y-87122000D01*
X114046000Y-87122000D02*
X129540000Y-87122000D01*
X129540000Y-87122000D02*
X132842000Y-83820000D01*
X141285620Y-83820000D02*
X141294060Y-83811560D01*
X132842000Y-83820000D02*
X141285620Y-83820000D01*
%TO.N,ALU_F0*%
X77254020Y-81241980D02*
X74422000Y-84074000D01*
X108165980Y-81241980D02*
X77254020Y-81241980D01*
X110998000Y-84074000D02*
X108165980Y-81241980D01*
%TO.N,ALU_F1*%
X103093389Y-82149989D02*
X106533989Y-82149989D01*
X94722322Y-81749978D02*
X102693378Y-81749978D01*
X102693378Y-81749978D02*
X103093389Y-82149989D01*
X106533989Y-82149989D02*
X108458000Y-84074000D01*
X90766311Y-85705989D02*
X94722322Y-81749978D01*
X73513989Y-85705989D02*
X90766311Y-85705989D01*
X71882000Y-84074000D02*
X73513989Y-85705989D01*
%TO.N,ALU_F2*%
X102927700Y-82550000D02*
X104394000Y-82550000D01*
X94888011Y-82149989D02*
X102527689Y-82149989D01*
X71374000Y-86106000D02*
X90932000Y-86106000D01*
X90932000Y-86106000D02*
X94888011Y-82149989D01*
X104394000Y-82550000D02*
X105918000Y-84074000D01*
X102527689Y-82149989D02*
X102927700Y-82550000D01*
X69342000Y-84074000D02*
X71374000Y-86106000D01*
%TO.N,ALU_F3*%
X92627999Y-85405999D02*
X91419998Y-86614000D01*
X103378000Y-84074000D02*
X102046001Y-85405999D01*
X69342000Y-86614000D02*
X66802000Y-84074000D01*
X102046001Y-85405999D02*
X92627999Y-85405999D01*
X91419998Y-86614000D02*
X69342000Y-86614000D01*
%TO.N,ALU_MODE*%
X101854000Y-94234000D02*
X99822000Y-96266000D01*
X99822000Y-96266000D02*
X83820000Y-96266000D01*
X83820000Y-96266000D02*
X82804000Y-95250000D01*
X82804000Y-95250000D02*
X82804000Y-92202000D01*
X82804000Y-92202000D02*
X79502000Y-88900000D01*
X79502000Y-88900000D02*
X79502000Y-88138000D01*
%TO.N,CF*%
X136652000Y-90599500D02*
X135811500Y-90599500D01*
X135811500Y-90599500D02*
X134874000Y-89662000D01*
X134874000Y-89662000D02*
X122682000Y-89662000D01*
X122682000Y-89662000D02*
X119634000Y-92710000D01*
X119634000Y-92710000D02*
X119634000Y-94234000D01*
%TO.N,OF*%
X117094000Y-94234000D02*
X122174000Y-89154000D01*
X137492500Y-89154000D02*
X137668000Y-89329500D01*
X122174000Y-89154000D02*
X137492500Y-89154000D01*
%TO.N,/ALU7*%
X112522000Y-51054000D02*
X112522000Y-60706000D01*
X112522000Y-60706000D02*
X109982000Y-63246000D01*
X116078000Y-47498000D02*
X112522000Y-51054000D01*
X133604000Y-41656000D02*
X131572000Y-43688000D01*
X131572000Y-46382905D02*
X130456905Y-47498000D01*
X131572000Y-43688000D02*
X131572000Y-46382905D01*
X130456905Y-47498000D02*
X116078000Y-47498000D01*
%TO.N,ZERO*%
X144526000Y-69850000D02*
X144526000Y-67818000D01*
X144526000Y-67818000D02*
X148082000Y-64262000D01*
X148082000Y-64262000D02*
X148082000Y-50292000D01*
X148082000Y-50292000D02*
X150114000Y-48260000D01*
X150114000Y-48260000D02*
X150114000Y-43180000D01*
%TO.N,GT*%
X132424046Y-51076022D02*
X132235794Y-50887770D01*
X146304000Y-63246000D02*
X145288000Y-62230000D01*
X145288000Y-62230000D02*
X144018000Y-62230000D01*
X144018000Y-62230000D02*
X141224000Y-59436000D01*
X141224000Y-59436000D02*
X141224000Y-54610000D01*
X141224000Y-54610000D02*
X137414000Y-50800000D01*
X132323564Y-50800000D02*
X132235794Y-50887770D01*
X137414000Y-50800000D02*
X132323564Y-50800000D01*
%TO.N,LT*%
X130048000Y-50800000D02*
X130835771Y-51587771D01*
X137439771Y-51587771D02*
X140716000Y-54864000D01*
X130835771Y-51587771D02*
X137439771Y-51587771D01*
X140716000Y-54864000D02*
X140716000Y-59690427D01*
X140716000Y-59690427D02*
X144271350Y-63245777D01*
%TO.N,~RESET*%
X58781989Y-50380311D02*
X58781989Y-86271689D01*
X63588311Y-91078011D02*
X70758011Y-91078011D01*
X62484000Y-49022000D02*
X61783999Y-49722001D01*
X59440299Y-49722001D02*
X58781989Y-50380311D01*
X61783999Y-49722001D02*
X59440299Y-49722001D01*
X70758011Y-91078011D02*
X73914000Y-94234000D01*
X58781989Y-86271689D02*
X63588311Y-91078011D01*
%TO.N,Net-(Q1-Pad3)*%
X143256000Y-55880000D02*
X141986000Y-57150000D01*
X141986000Y-57150000D02*
X141986000Y-58674000D01*
%TO.N,Net-(Q2-Pad3)*%
X134196013Y-66717987D02*
X135667387Y-66717987D01*
X140984436Y-72035036D02*
X144425036Y-72035036D01*
X135667387Y-66717987D02*
X140984436Y-72035036D01*
X131318000Y-69596000D02*
X134196013Y-66717987D01*
%TO.N,FLAG_REG_IN*%
X130556000Y-84074000D02*
X132759011Y-81870989D01*
X132759011Y-81870989D02*
X139109011Y-81870989D01*
X139109011Y-81870989D02*
X143256000Y-77724000D01*
%TO.N,FLAG5*%
X143482099Y-67845901D02*
X140714055Y-67845901D01*
X147320000Y-63246000D02*
X147320000Y-64008000D01*
X147320000Y-64008000D02*
X143482099Y-67845901D01*
%TO.N,FLAG4*%
X141941437Y-66846563D02*
X140150931Y-66846563D01*
X145217000Y-63571000D02*
X141941437Y-66846563D01*
%TO.N,FLAG3*%
X145072022Y-70573978D02*
X142220274Y-70573978D01*
X145542000Y-70104000D02*
X145072022Y-70573978D01*
X139614035Y-67967739D02*
X139614035Y-67331726D01*
X139614035Y-67331726D02*
X138914033Y-66631724D01*
X142220274Y-70573978D02*
X139614035Y-67967739D01*
%TO.N,FLAG2*%
X138914033Y-68197422D02*
X138914033Y-67631737D01*
X146117964Y-71306036D02*
X142022647Y-71306036D01*
X142022647Y-71306036D02*
X138914033Y-68197422D01*
X149098000Y-68326000D02*
X146117964Y-71306036D01*
%TO.N,FLAG1*%
X147574000Y-72644000D02*
X146558000Y-72644000D01*
X146558000Y-72644000D02*
X145796000Y-73406000D01*
X145796000Y-73406000D02*
X140462000Y-73406000D01*
X140462000Y-73406000D02*
X135128000Y-68072000D01*
X135128000Y-68072000D02*
X135128000Y-67818000D01*
%TO.N,FLAG0*%
X135501698Y-67117998D02*
X141281700Y-72898000D01*
X134112000Y-68580000D02*
X134112000Y-67797996D01*
X134112000Y-67797996D02*
X134791998Y-67117998D01*
X134791998Y-67117998D02*
X135501698Y-67117998D01*
X141281700Y-72898000D02*
X144552036Y-72898000D01*
X144552036Y-72898000D02*
X145443998Y-72006038D01*
%TD*%
M02*
