%TF.GenerationSoftware,KiCad,Pcbnew,(6.0.0-0)*%
%TF.CreationDate,2022-07-05T22:02:19-04:00*%
%TF.ProjectId,Comparator,436f6d70-6172-4617-946f-722e6b696361,rev?*%
%TF.SameCoordinates,Original*%
%TF.FileFunction,Paste,Top*%
%TF.FilePolarity,Positive*%
%FSLAX46Y46*%
G04 Gerber Fmt 4.6, Leading zero omitted, Abs format (unit mm)*
G04 Created by KiCad (PCBNEW (6.0.0-0)) date 2022-07-05 22:02:19*
%MOMM*%
%LPD*%
G01*
G04 APERTURE LIST*
G04 Aperture macros list*
%AMRoundRect*
0 Rectangle with rounded corners*
0 $1 Rounding radius*
0 $2 $3 $4 $5 $6 $7 $8 $9 X,Y pos of 4 corners*
0 Add a 4 corners polygon primitive as box body*
4,1,4,$2,$3,$4,$5,$6,$7,$8,$9,$2,$3,0*
0 Add four circle primitives for the rounded corners*
1,1,$1+$1,$2,$3*
1,1,$1+$1,$4,$5*
1,1,$1+$1,$6,$7*
1,1,$1+$1,$8,$9*
0 Add four rect primitives between the rounded corners*
20,1,$1+$1,$2,$3,$4,$5,0*
20,1,$1+$1,$4,$5,$6,$7,0*
20,1,$1+$1,$6,$7,$8,$9,0*
20,1,$1+$1,$8,$9,$2,$3,0*%
G04 Aperture macros list end*
%ADD10RoundRect,0.243750X-0.456250X0.243750X-0.456250X-0.243750X0.456250X-0.243750X0.456250X0.243750X0*%
%ADD11RoundRect,0.250000X-0.475000X0.250000X-0.475000X-0.250000X0.475000X-0.250000X0.475000X0.250000X0*%
%ADD12R,0.500000X0.800000*%
%ADD13R,0.400000X0.800000*%
%ADD14RoundRect,0.137500X0.137500X-0.662500X0.137500X0.662500X-0.137500X0.662500X-0.137500X-0.662500X0*%
%ADD15RoundRect,0.250000X0.450000X-0.262500X0.450000X0.262500X-0.450000X0.262500X-0.450000X-0.262500X0*%
G04 APERTURE END LIST*
D10*
%TO.C,D6*%
X197612000Y-98122500D03*
X197612000Y-99997500D03*
%TD*%
D11*
%TO.C,C11*%
X161544000Y-93538000D03*
X161544000Y-95438000D03*
%TD*%
%TO.C,C12*%
X147320000Y-93538000D03*
X147320000Y-95438000D03*
%TD*%
D12*
%TO.C,RN6*%
X120072000Y-102361021D03*
D13*
X119272000Y-102361021D03*
X118472000Y-102361021D03*
D12*
X117672000Y-102361021D03*
X117672000Y-104161021D03*
D13*
X118472000Y-104161021D03*
X119272000Y-104161021D03*
D12*
X120072000Y-104161021D03*
%TD*%
%TO.C,RN4*%
X137852000Y-102361021D03*
D13*
X137052000Y-102361021D03*
X136252000Y-102361021D03*
D12*
X135452000Y-102361021D03*
X135452000Y-104161021D03*
D13*
X136252000Y-104161021D03*
X137052000Y-104161021D03*
D12*
X137852000Y-104161021D03*
%TD*%
D14*
%TO.C,U4*%
X177927000Y-100278000D03*
X179197000Y-100278000D03*
X180467000Y-100278000D03*
X181737000Y-100278000D03*
X183007000Y-100278000D03*
X184277000Y-100278000D03*
X185547000Y-100278000D03*
X186817000Y-100278000D03*
X186817000Y-93778000D03*
X185547000Y-93778000D03*
X184277000Y-93778000D03*
X183007000Y-93778000D03*
X181737000Y-93778000D03*
X180467000Y-93778000D03*
X179197000Y-93778000D03*
X177927000Y-93778000D03*
%TD*%
D15*
%TO.C,R4*%
X192532000Y-96162500D03*
X192532000Y-94337500D03*
%TD*%
D10*
%TO.C,D5*%
X195072000Y-98122500D03*
X195072000Y-99997500D03*
%TD*%
D15*
%TO.C,R5*%
X195072000Y-96162500D03*
X195072000Y-94337500D03*
%TD*%
%TO.C,R6*%
X197612000Y-96162500D03*
X197612000Y-94337500D03*
%TD*%
D14*
%TO.C,U6*%
X149987000Y-100278000D03*
X151257000Y-100278000D03*
X152527000Y-100278000D03*
X153797000Y-100278000D03*
X155067000Y-100278000D03*
X156337000Y-100278000D03*
X157607000Y-100278000D03*
X158877000Y-100278000D03*
X158877000Y-93778000D03*
X157607000Y-93778000D03*
X156337000Y-93778000D03*
X155067000Y-93778000D03*
X153797000Y-93778000D03*
X152527000Y-93778000D03*
X151257000Y-93778000D03*
X149987000Y-93778000D03*
%TD*%
D10*
%TO.C,D4*%
X192532000Y-98122500D03*
X192532000Y-99997500D03*
%TD*%
D12*
%TO.C,RN5*%
X128962000Y-102361021D03*
D13*
X128162000Y-102361021D03*
X127362000Y-102361021D03*
D12*
X126562000Y-102361021D03*
X126562000Y-104161021D03*
D13*
X127362000Y-104161021D03*
X128162000Y-104161021D03*
D12*
X128962000Y-104161021D03*
%TD*%
D14*
%TO.C,U5*%
X164211000Y-100278000D03*
X165481000Y-100278000D03*
X166751000Y-100278000D03*
X168021000Y-100278000D03*
X169291000Y-100278000D03*
X170561000Y-100278000D03*
X171831000Y-100278000D03*
X173101000Y-100278000D03*
X173101000Y-93778000D03*
X171831000Y-93778000D03*
X170561000Y-93778000D03*
X169291000Y-93778000D03*
X168021000Y-93778000D03*
X166751000Y-93778000D03*
X165481000Y-93778000D03*
X164211000Y-93778000D03*
%TD*%
D11*
%TO.C,C13*%
X175514000Y-93538000D03*
X175514000Y-95438000D03*
%TD*%
M02*
