%TF.GenerationSoftware,KiCad,Pcbnew,(6.0.0-0)*%
%TF.CreationDate,2022-07-05T22:02:20-04:00*%
%TF.ProjectId,Comparator,436f6d70-6172-4617-946f-722e6b696361,rev?*%
%TF.SameCoordinates,Original*%
%TF.FileFunction,Soldermask,Bot*%
%TF.FilePolarity,Negative*%
%FSLAX46Y46*%
G04 Gerber Fmt 4.6, Leading zero omitted, Abs format (unit mm)*
G04 Created by KiCad (PCBNEW (6.0.0-0)) date 2022-07-05 22:02:20*
%MOMM*%
%LPD*%
G01*
G04 APERTURE LIST*
%ADD10R,1.600000X1.600000*%
%ADD11O,1.600000X1.600000*%
%ADD12R,1.700000X1.700000*%
%ADD13O,1.700000X1.700000*%
G04 APERTURE END LIST*
D10*
%TO.C,SW2*%
X113787000Y-99822000D03*
D11*
X116327000Y-99822000D03*
X118867000Y-99822000D03*
X121407000Y-99822000D03*
X123947000Y-99822000D03*
X126487000Y-99822000D03*
X129027000Y-99822000D03*
X131567000Y-99822000D03*
X134107000Y-99822000D03*
X136647000Y-99822000D03*
X139187000Y-99822000D03*
X141727000Y-99822000D03*
X141727000Y-92202000D03*
X139187000Y-92202000D03*
X136647000Y-92202000D03*
X134107000Y-92202000D03*
X131567000Y-92202000D03*
X129027000Y-92202000D03*
X126487000Y-92202000D03*
X123947000Y-92202000D03*
X121407000Y-92202000D03*
X118867000Y-92202000D03*
X116327000Y-92202000D03*
X113787000Y-92202000D03*
%TD*%
D12*
%TO.C,J8*%
X202697000Y-104902000D03*
D13*
X200157000Y-104902000D03*
X197617000Y-104902000D03*
X195077000Y-104902000D03*
X192537000Y-104902000D03*
%TD*%
D12*
%TO.C,J29*%
X108712000Y-104902000D03*
D13*
X111252000Y-104902000D03*
X113792000Y-104902000D03*
%TD*%
D12*
%TO.C,J7*%
X159497000Y-89662000D03*
D13*
X162037000Y-89662000D03*
X164577000Y-89662000D03*
X167117000Y-89662000D03*
X169657000Y-89662000D03*
X172197000Y-89662000D03*
X174737000Y-89662000D03*
X177277000Y-89662000D03*
X179817000Y-89662000D03*
X182357000Y-89662000D03*
X184897000Y-89662000D03*
X187437000Y-89662000D03*
%TD*%
M02*
