M48
; DRILL file {KiCad (6.0.0-0)} date Tuesday, July 05, 2022 at 10:02:22 PM
; FORMAT={-:-/ absolute / inch / decimal}
; #@! TF.CreationDate,2022-07-05T22:02:22-04:00
; #@! TF.GenerationSoftware,Kicad,Pcbnew,(6.0.0-0)
; #@! TF.FileFunction,Plated,1,2,PTH
FMAT,2
INCH
; #@! TA.AperFunction,Plated,PTH,ViaDrill
T1C0.0157
; #@! TA.AperFunction,Plated,PTH,ComponentDrill
T2C0.0315
; #@! TA.AperFunction,Plated,PTH,ComponentDrill
T3C0.0394
%
G90
G05
T1
X4.78Y-4.1054
X5.13Y-4.1054
X5.48Y-4.1054
X5.95Y-3.89
X5.9839Y-3.57
X6.0Y-3.89
X6.05Y-3.89
X6.1Y-3.89
X6.15Y-3.89
X6.2Y-3.89
X6.31Y-3.6439
X6.31Y-3.73
X6.31Y-3.94
X6.4Y-4.01
X6.51Y-3.89
X6.56Y-3.89
X6.61Y-3.89
X6.66Y-3.89
X6.71Y-3.89
X6.76Y-3.89
X6.8Y-4.003
X6.91Y-3.81
X6.93Y-3.63
X7.065Y-3.845
X7.15Y-3.88
X7.19Y-4.0207
X7.2363Y-4.0384
X7.28Y-4.0561
X7.41Y-3.95
X7.45Y-3.78
X7.53Y-4.0
X7.58Y-3.66
X7.63Y-4.0
X7.68Y-3.66
X7.73Y-4.0
X7.78Y-3.66
T2
X4.4798Y-3.63
X4.4798Y-3.93
X4.5798Y-3.63
X4.5798Y-3.93
X4.6798Y-3.63
X4.6798Y-3.93
X4.7798Y-3.63
X4.7798Y-3.93
X4.8798Y-3.63
X4.8798Y-3.93
X4.9798Y-3.63
X4.9798Y-3.93
X5.0798Y-3.63
X5.0798Y-3.93
X5.1798Y-3.63
X5.1798Y-3.93
X5.2798Y-3.63
X5.2798Y-3.93
X5.3798Y-3.63
X5.3798Y-3.93
X5.4798Y-3.63
X5.4798Y-3.93
X5.5798Y-3.63
X5.5798Y-3.93
T3
X4.28Y-4.13
X4.38Y-4.13
X4.48Y-4.13
X6.2794Y-3.53
X6.3794Y-3.53
X6.4794Y-3.53
X6.5794Y-3.53
X6.6794Y-3.53
X6.7794Y-3.53
X6.8794Y-3.53
X6.9794Y-3.53
X7.0794Y-3.53
X7.1794Y-3.53
X7.2794Y-3.53
X7.3794Y-3.53
X7.5802Y-4.13
X7.6802Y-4.13
X7.7802Y-4.13
X7.8802Y-4.13
X7.9802Y-4.13
T0
M30
