M48
; DRILL file {KiCad (5.1.10-1-10_14)} date Saturday, October 02, 2021 at 01:03:46 AM
; FORMAT={-:-/ absolute / inch / decimal}
; #@! TF.CreationDate,2021-10-02T01:03:46-04:00
; #@! TF.GenerationSoftware,Kicad,Pcbnew,(5.1.10-1-10_14)
; #@! TF.FileFunction,Plated,1,2,PTH
FMAT,2
INCH
T1C0.0157
T2C0.0394
%
G90
G05
T1
X3.89Y-4.09
X3.92Y-4.2
X3.93Y-4.14
X3.95Y-4.07
X3.9524Y-4.03
X4.0Y-4.24
X4.14Y-4.24
X4.22Y-4.24
X4.29Y-3.66
X4.29Y-4.24
X4.3Y-3.93
X4.36Y-4.24
X4.42Y-3.66
X4.46Y-3.64
X4.58Y-3.83
X4.71Y-3.64
X4.98Y-3.66
X5.12Y-3.87
X5.14Y-3.39
X5.14Y-4.12
X5.24Y-4.12
X5.34Y-4.12
X5.4Y-4.24
X5.47Y-4.24
X5.54Y-4.24
X5.58Y-4.49
T2
X4.09Y-3.45
X4.09Y-4.05
X4.19Y-3.45
X4.19Y-4.05
X4.29Y-3.45
X4.29Y-4.05
X4.39Y-3.45
X4.39Y-4.05
X4.49Y-3.45
X4.49Y-4.05
X4.59Y-3.45
X4.59Y-4.05
X4.69Y-3.45
X4.69Y-4.05
X4.79Y-3.45
X4.79Y-4.05
X4.89Y-3.45
X4.89Y-4.05
X4.99Y-3.45
X4.99Y-4.05
X5.09Y-3.45
X5.09Y-4.05
X5.19Y-3.45
X5.19Y-4.05
X5.29Y-3.45
X5.29Y-4.05
X5.39Y-3.45
X5.39Y-4.05
T0
M30
