%TF.GenerationSoftware,KiCad,Pcbnew,(5.1.10-1-10_14)*%
%TF.CreationDate,2021-09-25T13:26:57-04:00*%
%TF.ProjectId,RAM,52414d2e-6b69-4636-9164-5f7063625858,rev?*%
%TF.SameCoordinates,Original*%
%TF.FileFunction,Copper,L1,Top*%
%TF.FilePolarity,Positive*%
%FSLAX46Y46*%
G04 Gerber Fmt 4.6, Leading zero omitted, Abs format (unit mm)*
G04 Created by KiCad (PCBNEW (5.1.10-1-10_14)) date 2021-09-25 13:26:57*
%MOMM*%
%LPD*%
G01*
G04 APERTURE LIST*
%TA.AperFunction,ComponentPad*%
%ADD10O,1.700000X1.700000*%
%TD*%
%TA.AperFunction,ComponentPad*%
%ADD11R,1.700000X1.700000*%
%TD*%
%TA.AperFunction,ViaPad*%
%ADD12C,0.800000*%
%TD*%
%TA.AperFunction,Conductor*%
%ADD13C,1.000000*%
%TD*%
%TA.AperFunction,Conductor*%
%ADD14C,0.500000*%
%TD*%
%TA.AperFunction,Conductor*%
%ADD15C,0.200000*%
%TD*%
%TA.AperFunction,Conductor*%
%ADD16C,0.250000*%
%TD*%
%TA.AperFunction,Conductor*%
%ADD17C,0.254000*%
%TD*%
%TA.AperFunction,Conductor*%
%ADD18C,0.100000*%
%TD*%
G04 APERTURE END LIST*
%TO.P,C2,2*%
%TO.N,GND*%
%TA.AperFunction,SMDPad,CuDef*%
G36*
G01*
X225744000Y-97578000D02*
X225744000Y-96478000D01*
G75*
G02*
X225994000Y-96228000I250000J0D01*
G01*
X228494000Y-96228000D01*
G75*
G02*
X228744000Y-96478000I0J-250000D01*
G01*
X228744000Y-97578000D01*
G75*
G02*
X228494000Y-97828000I-250000J0D01*
G01*
X225994000Y-97828000D01*
G75*
G02*
X225744000Y-97578000I0J250000D01*
G01*
G37*
%TD.AperFunction*%
%TO.P,C2,1*%
%TO.N,VCC*%
%TA.AperFunction,SMDPad,CuDef*%
G36*
G01*
X221344000Y-97578000D02*
X221344000Y-96478000D01*
G75*
G02*
X221594000Y-96228000I250000J0D01*
G01*
X224094000Y-96228000D01*
G75*
G02*
X224344000Y-96478000I0J-250000D01*
G01*
X224344000Y-97578000D01*
G75*
G02*
X224094000Y-97828000I-250000J0D01*
G01*
X221594000Y-97828000D01*
G75*
G02*
X221344000Y-97578000I0J250000D01*
G01*
G37*
%TD.AperFunction*%
%TD*%
%TO.P,C1,2*%
%TO.N,GND*%
%TA.AperFunction,SMDPad,CuDef*%
G36*
G01*
X234612000Y-73664000D02*
X234612000Y-74164000D01*
G75*
G02*
X234387000Y-74389000I-225000J0D01*
G01*
X233937000Y-74389000D01*
G75*
G02*
X233712000Y-74164000I0J225000D01*
G01*
X233712000Y-73664000D01*
G75*
G02*
X233937000Y-73439000I225000J0D01*
G01*
X234387000Y-73439000D01*
G75*
G02*
X234612000Y-73664000I0J-225000D01*
G01*
G37*
%TD.AperFunction*%
%TO.P,C1,1*%
%TO.N,VCC*%
%TA.AperFunction,SMDPad,CuDef*%
G36*
G01*
X236162000Y-73664000D02*
X236162000Y-74164000D01*
G75*
G02*
X235937000Y-74389000I-225000J0D01*
G01*
X235487000Y-74389000D01*
G75*
G02*
X235262000Y-74164000I0J225000D01*
G01*
X235262000Y-73664000D01*
G75*
G02*
X235487000Y-73439000I225000J0D01*
G01*
X235937000Y-73439000D01*
G75*
G02*
X236162000Y-73664000I0J-225000D01*
G01*
G37*
%TD.AperFunction*%
%TD*%
%TO.P,U70,2*%
%TO.N,~CE*%
%TA.AperFunction,SMDPad,CuDef*%
G36*
G01*
X226397000Y-92181000D02*
X226397000Y-92731000D01*
G75*
G02*
X226197000Y-92931000I-200000J0D01*
G01*
X225797000Y-92931000D01*
G75*
G02*
X225597000Y-92731000I0J200000D01*
G01*
X225597000Y-92181000D01*
G75*
G02*
X225797000Y-91981000I200000J0D01*
G01*
X226197000Y-91981000D01*
G75*
G02*
X226397000Y-92181000I0J-200000D01*
G01*
G37*
%TD.AperFunction*%
%TO.P,U70,1*%
%TO.N,GND*%
%TA.AperFunction,SMDPad,CuDef*%
G36*
G01*
X228047000Y-92181000D02*
X228047000Y-92731000D01*
G75*
G02*
X227847000Y-92931000I-200000J0D01*
G01*
X227447000Y-92931000D01*
G75*
G02*
X227247000Y-92731000I0J200000D01*
G01*
X227247000Y-92181000D01*
G75*
G02*
X227447000Y-91981000I200000J0D01*
G01*
X227847000Y-91981000D01*
G75*
G02*
X228047000Y-92181000I0J-200000D01*
G01*
G37*
%TD.AperFunction*%
%TD*%
%TO.P,U69,2*%
%TO.N,~LB*%
%TA.AperFunction,SMDPad,CuDef*%
G36*
G01*
X227055000Y-73006000D02*
X227605000Y-73006000D01*
G75*
G02*
X227805000Y-73206000I0J-200000D01*
G01*
X227805000Y-73606000D01*
G75*
G02*
X227605000Y-73806000I-200000J0D01*
G01*
X227055000Y-73806000D01*
G75*
G02*
X226855000Y-73606000I0J200000D01*
G01*
X226855000Y-73206000D01*
G75*
G02*
X227055000Y-73006000I200000J0D01*
G01*
G37*
%TD.AperFunction*%
%TO.P,U69,1*%
%TO.N,GND*%
%TA.AperFunction,SMDPad,CuDef*%
G36*
G01*
X227055000Y-71356000D02*
X227605000Y-71356000D01*
G75*
G02*
X227805000Y-71556000I0J-200000D01*
G01*
X227805000Y-71956000D01*
G75*
G02*
X227605000Y-72156000I-200000J0D01*
G01*
X227055000Y-72156000D01*
G75*
G02*
X226855000Y-71956000I0J200000D01*
G01*
X226855000Y-71556000D01*
G75*
G02*
X227055000Y-71356000I200000J0D01*
G01*
G37*
%TD.AperFunction*%
%TD*%
%TO.P,U68,14*%
%TO.N,VCC*%
%TA.AperFunction,SMDPad,CuDef*%
G36*
G01*
X231036000Y-94004000D02*
X230736000Y-94004000D01*
G75*
G02*
X230586000Y-93854000I0J150000D01*
G01*
X230586000Y-92204000D01*
G75*
G02*
X230736000Y-92054000I150000J0D01*
G01*
X231036000Y-92054000D01*
G75*
G02*
X231186000Y-92204000I0J-150000D01*
G01*
X231186000Y-93854000D01*
G75*
G02*
X231036000Y-94004000I-150000J0D01*
G01*
G37*
%TD.AperFunction*%
%TO.P,U68,13*%
%TO.N,N/C*%
%TA.AperFunction,SMDPad,CuDef*%
G36*
G01*
X232306000Y-94004000D02*
X232006000Y-94004000D01*
G75*
G02*
X231856000Y-93854000I0J150000D01*
G01*
X231856000Y-92204000D01*
G75*
G02*
X232006000Y-92054000I150000J0D01*
G01*
X232306000Y-92054000D01*
G75*
G02*
X232456000Y-92204000I0J-150000D01*
G01*
X232456000Y-93854000D01*
G75*
G02*
X232306000Y-94004000I-150000J0D01*
G01*
G37*
%TD.AperFunction*%
%TO.P,U68,12*%
%TA.AperFunction,SMDPad,CuDef*%
G36*
G01*
X233576000Y-94004000D02*
X233276000Y-94004000D01*
G75*
G02*
X233126000Y-93854000I0J150000D01*
G01*
X233126000Y-92204000D01*
G75*
G02*
X233276000Y-92054000I150000J0D01*
G01*
X233576000Y-92054000D01*
G75*
G02*
X233726000Y-92204000I0J-150000D01*
G01*
X233726000Y-93854000D01*
G75*
G02*
X233576000Y-94004000I-150000J0D01*
G01*
G37*
%TD.AperFunction*%
%TO.P,U68,11*%
%TA.AperFunction,SMDPad,CuDef*%
G36*
G01*
X234846000Y-94004000D02*
X234546000Y-94004000D01*
G75*
G02*
X234396000Y-93854000I0J150000D01*
G01*
X234396000Y-92204000D01*
G75*
G02*
X234546000Y-92054000I150000J0D01*
G01*
X234846000Y-92054000D01*
G75*
G02*
X234996000Y-92204000I0J-150000D01*
G01*
X234996000Y-93854000D01*
G75*
G02*
X234846000Y-94004000I-150000J0D01*
G01*
G37*
%TD.AperFunction*%
%TO.P,U68,10*%
%TA.AperFunction,SMDPad,CuDef*%
G36*
G01*
X236116000Y-94004000D02*
X235816000Y-94004000D01*
G75*
G02*
X235666000Y-93854000I0J150000D01*
G01*
X235666000Y-92204000D01*
G75*
G02*
X235816000Y-92054000I150000J0D01*
G01*
X236116000Y-92054000D01*
G75*
G02*
X236266000Y-92204000I0J-150000D01*
G01*
X236266000Y-93854000D01*
G75*
G02*
X236116000Y-94004000I-150000J0D01*
G01*
G37*
%TD.AperFunction*%
%TO.P,U68,9*%
%TA.AperFunction,SMDPad,CuDef*%
G36*
G01*
X237386000Y-94004000D02*
X237086000Y-94004000D01*
G75*
G02*
X236936000Y-93854000I0J150000D01*
G01*
X236936000Y-92204000D01*
G75*
G02*
X237086000Y-92054000I150000J0D01*
G01*
X237386000Y-92054000D01*
G75*
G02*
X237536000Y-92204000I0J-150000D01*
G01*
X237536000Y-93854000D01*
G75*
G02*
X237386000Y-94004000I-150000J0D01*
G01*
G37*
%TD.AperFunction*%
%TO.P,U68,8*%
%TA.AperFunction,SMDPad,CuDef*%
G36*
G01*
X238656000Y-94004000D02*
X238356000Y-94004000D01*
G75*
G02*
X238206000Y-93854000I0J150000D01*
G01*
X238206000Y-92204000D01*
G75*
G02*
X238356000Y-92054000I150000J0D01*
G01*
X238656000Y-92054000D01*
G75*
G02*
X238806000Y-92204000I0J-150000D01*
G01*
X238806000Y-93854000D01*
G75*
G02*
X238656000Y-94004000I-150000J0D01*
G01*
G37*
%TD.AperFunction*%
%TO.P,U68,7*%
%TO.N,GND*%
%TA.AperFunction,SMDPad,CuDef*%
G36*
G01*
X238656000Y-98954000D02*
X238356000Y-98954000D01*
G75*
G02*
X238206000Y-98804000I0J150000D01*
G01*
X238206000Y-97154000D01*
G75*
G02*
X238356000Y-97004000I150000J0D01*
G01*
X238656000Y-97004000D01*
G75*
G02*
X238806000Y-97154000I0J-150000D01*
G01*
X238806000Y-98804000D01*
G75*
G02*
X238656000Y-98954000I-150000J0D01*
G01*
G37*
%TD.AperFunction*%
%TO.P,U68,6*%
%TO.N,N/C*%
%TA.AperFunction,SMDPad,CuDef*%
G36*
G01*
X237386000Y-98954000D02*
X237086000Y-98954000D01*
G75*
G02*
X236936000Y-98804000I0J150000D01*
G01*
X236936000Y-97154000D01*
G75*
G02*
X237086000Y-97004000I150000J0D01*
G01*
X237386000Y-97004000D01*
G75*
G02*
X237536000Y-97154000I0J-150000D01*
G01*
X237536000Y-98804000D01*
G75*
G02*
X237386000Y-98954000I-150000J0D01*
G01*
G37*
%TD.AperFunction*%
%TO.P,U68,5*%
%TA.AperFunction,SMDPad,CuDef*%
G36*
G01*
X236116000Y-98954000D02*
X235816000Y-98954000D01*
G75*
G02*
X235666000Y-98804000I0J150000D01*
G01*
X235666000Y-97154000D01*
G75*
G02*
X235816000Y-97004000I150000J0D01*
G01*
X236116000Y-97004000D01*
G75*
G02*
X236266000Y-97154000I0J-150000D01*
G01*
X236266000Y-98804000D01*
G75*
G02*
X236116000Y-98954000I-150000J0D01*
G01*
G37*
%TD.AperFunction*%
%TO.P,U68,4*%
%TA.AperFunction,SMDPad,CuDef*%
G36*
G01*
X234846000Y-98954000D02*
X234546000Y-98954000D01*
G75*
G02*
X234396000Y-98804000I0J150000D01*
G01*
X234396000Y-97154000D01*
G75*
G02*
X234546000Y-97004000I150000J0D01*
G01*
X234846000Y-97004000D01*
G75*
G02*
X234996000Y-97154000I0J-150000D01*
G01*
X234996000Y-98804000D01*
G75*
G02*
X234846000Y-98954000I-150000J0D01*
G01*
G37*
%TD.AperFunction*%
%TO.P,U68,3*%
%TO.N,Net-(U67-Pad17)*%
%TA.AperFunction,SMDPad,CuDef*%
G36*
G01*
X233576000Y-98954000D02*
X233276000Y-98954000D01*
G75*
G02*
X233126000Y-98804000I0J150000D01*
G01*
X233126000Y-97154000D01*
G75*
G02*
X233276000Y-97004000I150000J0D01*
G01*
X233576000Y-97004000D01*
G75*
G02*
X233726000Y-97154000I0J-150000D01*
G01*
X233726000Y-98804000D01*
G75*
G02*
X233576000Y-98954000I-150000J0D01*
G01*
G37*
%TD.AperFunction*%
%TO.P,U68,2*%
%TO.N,CP*%
%TA.AperFunction,SMDPad,CuDef*%
G36*
G01*
X232306000Y-98954000D02*
X232006000Y-98954000D01*
G75*
G02*
X231856000Y-98804000I0J150000D01*
G01*
X231856000Y-97154000D01*
G75*
G02*
X232006000Y-97004000I150000J0D01*
G01*
X232306000Y-97004000D01*
G75*
G02*
X232456000Y-97154000I0J-150000D01*
G01*
X232456000Y-98804000D01*
G75*
G02*
X232306000Y-98954000I-150000J0D01*
G01*
G37*
%TD.AperFunction*%
%TO.P,U68,1*%
%TO.N,WE*%
%TA.AperFunction,SMDPad,CuDef*%
G36*
G01*
X231036000Y-98954000D02*
X230736000Y-98954000D01*
G75*
G02*
X230586000Y-98804000I0J150000D01*
G01*
X230586000Y-97154000D01*
G75*
G02*
X230736000Y-97004000I150000J0D01*
G01*
X231036000Y-97004000D01*
G75*
G02*
X231186000Y-97154000I0J-150000D01*
G01*
X231186000Y-98804000D01*
G75*
G02*
X231036000Y-98954000I-150000J0D01*
G01*
G37*
%TD.AperFunction*%
%TD*%
%TO.P,U67,44*%
%TO.N,Net-(J2-Pad18)*%
%TA.AperFunction,SMDPad,CuDef*%
G36*
G01*
X226687500Y-77725000D02*
X226412500Y-77725000D01*
G75*
G02*
X226275000Y-77587500I0J137500D01*
G01*
X226275000Y-76337500D01*
G75*
G02*
X226412500Y-76200000I137500J0D01*
G01*
X226687500Y-76200000D01*
G75*
G02*
X226825000Y-76337500I0J-137500D01*
G01*
X226825000Y-77587500D01*
G75*
G02*
X226687500Y-77725000I-137500J0D01*
G01*
G37*
%TD.AperFunction*%
%TO.P,U67,43*%
%TO.N,Net-(J2-Pad17)*%
%TA.AperFunction,SMDPad,CuDef*%
G36*
G01*
X227487500Y-77725000D02*
X227212500Y-77725000D01*
G75*
G02*
X227075000Y-77587500I0J137500D01*
G01*
X227075000Y-76337500D01*
G75*
G02*
X227212500Y-76200000I137500J0D01*
G01*
X227487500Y-76200000D01*
G75*
G02*
X227625000Y-76337500I0J-137500D01*
G01*
X227625000Y-77587500D01*
G75*
G02*
X227487500Y-77725000I-137500J0D01*
G01*
G37*
%TD.AperFunction*%
%TO.P,U67,42*%
%TO.N,/A15*%
%TA.AperFunction,SMDPad,CuDef*%
G36*
G01*
X228287500Y-77725000D02*
X228012500Y-77725000D01*
G75*
G02*
X227875000Y-77587500I0J137500D01*
G01*
X227875000Y-76337500D01*
G75*
G02*
X228012500Y-76200000I137500J0D01*
G01*
X228287500Y-76200000D01*
G75*
G02*
X228425000Y-76337500I0J-137500D01*
G01*
X228425000Y-77587500D01*
G75*
G02*
X228287500Y-77725000I-137500J0D01*
G01*
G37*
%TD.AperFunction*%
%TO.P,U67,41*%
%TO.N,~OE*%
%TA.AperFunction,SMDPad,CuDef*%
G36*
G01*
X229087500Y-77725000D02*
X228812500Y-77725000D01*
G75*
G02*
X228675000Y-77587500I0J137500D01*
G01*
X228675000Y-76337500D01*
G75*
G02*
X228812500Y-76200000I137500J0D01*
G01*
X229087500Y-76200000D01*
G75*
G02*
X229225000Y-76337500I0J-137500D01*
G01*
X229225000Y-77587500D01*
G75*
G02*
X229087500Y-77725000I-137500J0D01*
G01*
G37*
%TD.AperFunction*%
%TO.P,U67,40*%
%TO.N,~UB*%
%TA.AperFunction,SMDPad,CuDef*%
G36*
G01*
X229887500Y-77725000D02*
X229612500Y-77725000D01*
G75*
G02*
X229475000Y-77587500I0J137500D01*
G01*
X229475000Y-76337500D01*
G75*
G02*
X229612500Y-76200000I137500J0D01*
G01*
X229887500Y-76200000D01*
G75*
G02*
X230025000Y-76337500I0J-137500D01*
G01*
X230025000Y-77587500D01*
G75*
G02*
X229887500Y-77725000I-137500J0D01*
G01*
G37*
%TD.AperFunction*%
%TO.P,U67,39*%
%TO.N,~LB*%
%TA.AperFunction,SMDPad,CuDef*%
G36*
G01*
X230687500Y-77725000D02*
X230412500Y-77725000D01*
G75*
G02*
X230275000Y-77587500I0J137500D01*
G01*
X230275000Y-76337500D01*
G75*
G02*
X230412500Y-76200000I137500J0D01*
G01*
X230687500Y-76200000D01*
G75*
G02*
X230825000Y-76337500I0J-137500D01*
G01*
X230825000Y-77587500D01*
G75*
G02*
X230687500Y-77725000I-137500J0D01*
G01*
G37*
%TD.AperFunction*%
%TO.P,U67,38*%
%TO.N,/IO15*%
%TA.AperFunction,SMDPad,CuDef*%
G36*
G01*
X231487500Y-77725000D02*
X231212500Y-77725000D01*
G75*
G02*
X231075000Y-77587500I0J137500D01*
G01*
X231075000Y-76337500D01*
G75*
G02*
X231212500Y-76200000I137500J0D01*
G01*
X231487500Y-76200000D01*
G75*
G02*
X231625000Y-76337500I0J-137500D01*
G01*
X231625000Y-77587500D01*
G75*
G02*
X231487500Y-77725000I-137500J0D01*
G01*
G37*
%TD.AperFunction*%
%TO.P,U67,37*%
%TO.N,/IO14*%
%TA.AperFunction,SMDPad,CuDef*%
G36*
G01*
X232287500Y-77725000D02*
X232012500Y-77725000D01*
G75*
G02*
X231875000Y-77587500I0J137500D01*
G01*
X231875000Y-76337500D01*
G75*
G02*
X232012500Y-76200000I137500J0D01*
G01*
X232287500Y-76200000D01*
G75*
G02*
X232425000Y-76337500I0J-137500D01*
G01*
X232425000Y-77587500D01*
G75*
G02*
X232287500Y-77725000I-137500J0D01*
G01*
G37*
%TD.AperFunction*%
%TO.P,U67,36*%
%TO.N,/IO13*%
%TA.AperFunction,SMDPad,CuDef*%
G36*
G01*
X233087500Y-77725000D02*
X232812500Y-77725000D01*
G75*
G02*
X232675000Y-77587500I0J137500D01*
G01*
X232675000Y-76337500D01*
G75*
G02*
X232812500Y-76200000I137500J0D01*
G01*
X233087500Y-76200000D01*
G75*
G02*
X233225000Y-76337500I0J-137500D01*
G01*
X233225000Y-77587500D01*
G75*
G02*
X233087500Y-77725000I-137500J0D01*
G01*
G37*
%TD.AperFunction*%
%TO.P,U67,35*%
%TO.N,/IO12*%
%TA.AperFunction,SMDPad,CuDef*%
G36*
G01*
X233887500Y-77725000D02*
X233612500Y-77725000D01*
G75*
G02*
X233475000Y-77587500I0J137500D01*
G01*
X233475000Y-76337500D01*
G75*
G02*
X233612500Y-76200000I137500J0D01*
G01*
X233887500Y-76200000D01*
G75*
G02*
X234025000Y-76337500I0J-137500D01*
G01*
X234025000Y-77587500D01*
G75*
G02*
X233887500Y-77725000I-137500J0D01*
G01*
G37*
%TD.AperFunction*%
%TO.P,U67,34*%
%TO.N,GND*%
%TA.AperFunction,SMDPad,CuDef*%
G36*
G01*
X234687500Y-77725000D02*
X234412500Y-77725000D01*
G75*
G02*
X234275000Y-77587500I0J137500D01*
G01*
X234275000Y-76337500D01*
G75*
G02*
X234412500Y-76200000I137500J0D01*
G01*
X234687500Y-76200000D01*
G75*
G02*
X234825000Y-76337500I0J-137500D01*
G01*
X234825000Y-77587500D01*
G75*
G02*
X234687500Y-77725000I-137500J0D01*
G01*
G37*
%TD.AperFunction*%
%TO.P,U67,33*%
%TO.N,VCC*%
%TA.AperFunction,SMDPad,CuDef*%
G36*
G01*
X235487500Y-77725000D02*
X235212500Y-77725000D01*
G75*
G02*
X235075000Y-77587500I0J137500D01*
G01*
X235075000Y-76337500D01*
G75*
G02*
X235212500Y-76200000I137500J0D01*
G01*
X235487500Y-76200000D01*
G75*
G02*
X235625000Y-76337500I0J-137500D01*
G01*
X235625000Y-77587500D01*
G75*
G02*
X235487500Y-77725000I-137500J0D01*
G01*
G37*
%TD.AperFunction*%
%TO.P,U67,32*%
%TO.N,/IO11*%
%TA.AperFunction,SMDPad,CuDef*%
G36*
G01*
X236287500Y-77725000D02*
X236012500Y-77725000D01*
G75*
G02*
X235875000Y-77587500I0J137500D01*
G01*
X235875000Y-76337500D01*
G75*
G02*
X236012500Y-76200000I137500J0D01*
G01*
X236287500Y-76200000D01*
G75*
G02*
X236425000Y-76337500I0J-137500D01*
G01*
X236425000Y-77587500D01*
G75*
G02*
X236287500Y-77725000I-137500J0D01*
G01*
G37*
%TD.AperFunction*%
%TO.P,U67,31*%
%TO.N,/IO10*%
%TA.AperFunction,SMDPad,CuDef*%
G36*
G01*
X237087500Y-77725000D02*
X236812500Y-77725000D01*
G75*
G02*
X236675000Y-77587500I0J137500D01*
G01*
X236675000Y-76337500D01*
G75*
G02*
X236812500Y-76200000I137500J0D01*
G01*
X237087500Y-76200000D01*
G75*
G02*
X237225000Y-76337500I0J-137500D01*
G01*
X237225000Y-77587500D01*
G75*
G02*
X237087500Y-77725000I-137500J0D01*
G01*
G37*
%TD.AperFunction*%
%TO.P,U67,30*%
%TO.N,/IO9*%
%TA.AperFunction,SMDPad,CuDef*%
G36*
G01*
X237887500Y-77725000D02*
X237612500Y-77725000D01*
G75*
G02*
X237475000Y-77587500I0J137500D01*
G01*
X237475000Y-76337500D01*
G75*
G02*
X237612500Y-76200000I137500J0D01*
G01*
X237887500Y-76200000D01*
G75*
G02*
X238025000Y-76337500I0J-137500D01*
G01*
X238025000Y-77587500D01*
G75*
G02*
X237887500Y-77725000I-137500J0D01*
G01*
G37*
%TD.AperFunction*%
%TO.P,U67,29*%
%TO.N,/IO8*%
%TA.AperFunction,SMDPad,CuDef*%
G36*
G01*
X238687500Y-77725000D02*
X238412500Y-77725000D01*
G75*
G02*
X238275000Y-77587500I0J137500D01*
G01*
X238275000Y-76337500D01*
G75*
G02*
X238412500Y-76200000I137500J0D01*
G01*
X238687500Y-76200000D01*
G75*
G02*
X238825000Y-76337500I0J-137500D01*
G01*
X238825000Y-77587500D01*
G75*
G02*
X238687500Y-77725000I-137500J0D01*
G01*
G37*
%TD.AperFunction*%
%TO.P,U67,28*%
%TO.N,Net-(U67-Pad28)*%
%TA.AperFunction,SMDPad,CuDef*%
G36*
G01*
X239487500Y-77725000D02*
X239212500Y-77725000D01*
G75*
G02*
X239075000Y-77587500I0J137500D01*
G01*
X239075000Y-76337500D01*
G75*
G02*
X239212500Y-76200000I137500J0D01*
G01*
X239487500Y-76200000D01*
G75*
G02*
X239625000Y-76337500I0J-137500D01*
G01*
X239625000Y-77587500D01*
G75*
G02*
X239487500Y-77725000I-137500J0D01*
G01*
G37*
%TD.AperFunction*%
%TO.P,U67,27*%
%TO.N,/A14*%
%TA.AperFunction,SMDPad,CuDef*%
G36*
G01*
X240287500Y-77725000D02*
X240012500Y-77725000D01*
G75*
G02*
X239875000Y-77587500I0J137500D01*
G01*
X239875000Y-76337500D01*
G75*
G02*
X240012500Y-76200000I137500J0D01*
G01*
X240287500Y-76200000D01*
G75*
G02*
X240425000Y-76337500I0J-137500D01*
G01*
X240425000Y-77587500D01*
G75*
G02*
X240287500Y-77725000I-137500J0D01*
G01*
G37*
%TD.AperFunction*%
%TO.P,U67,26*%
%TO.N,/A13*%
%TA.AperFunction,SMDPad,CuDef*%
G36*
G01*
X241087500Y-77725000D02*
X240812500Y-77725000D01*
G75*
G02*
X240675000Y-77587500I0J137500D01*
G01*
X240675000Y-76337500D01*
G75*
G02*
X240812500Y-76200000I137500J0D01*
G01*
X241087500Y-76200000D01*
G75*
G02*
X241225000Y-76337500I0J-137500D01*
G01*
X241225000Y-77587500D01*
G75*
G02*
X241087500Y-77725000I-137500J0D01*
G01*
G37*
%TD.AperFunction*%
%TO.P,U67,25*%
%TO.N,/A12*%
%TA.AperFunction,SMDPad,CuDef*%
G36*
G01*
X241887500Y-77725000D02*
X241612500Y-77725000D01*
G75*
G02*
X241475000Y-77587500I0J137500D01*
G01*
X241475000Y-76337500D01*
G75*
G02*
X241612500Y-76200000I137500J0D01*
G01*
X241887500Y-76200000D01*
G75*
G02*
X242025000Y-76337500I0J-137500D01*
G01*
X242025000Y-77587500D01*
G75*
G02*
X241887500Y-77725000I-137500J0D01*
G01*
G37*
%TD.AperFunction*%
%TO.P,U67,24*%
%TO.N,/A11*%
%TA.AperFunction,SMDPad,CuDef*%
G36*
G01*
X242687500Y-77725000D02*
X242412500Y-77725000D01*
G75*
G02*
X242275000Y-77587500I0J137500D01*
G01*
X242275000Y-76337500D01*
G75*
G02*
X242412500Y-76200000I137500J0D01*
G01*
X242687500Y-76200000D01*
G75*
G02*
X242825000Y-76337500I0J-137500D01*
G01*
X242825000Y-77587500D01*
G75*
G02*
X242687500Y-77725000I-137500J0D01*
G01*
G37*
%TD.AperFunction*%
%TO.P,U67,23*%
%TO.N,/A10*%
%TA.AperFunction,SMDPad,CuDef*%
G36*
G01*
X243487500Y-77725000D02*
X243212500Y-77725000D01*
G75*
G02*
X243075000Y-77587500I0J137500D01*
G01*
X243075000Y-76337500D01*
G75*
G02*
X243212500Y-76200000I137500J0D01*
G01*
X243487500Y-76200000D01*
G75*
G02*
X243625000Y-76337500I0J-137500D01*
G01*
X243625000Y-77587500D01*
G75*
G02*
X243487500Y-77725000I-137500J0D01*
G01*
G37*
%TD.AperFunction*%
%TO.P,U67,22*%
%TO.N,/A09*%
%TA.AperFunction,SMDPad,CuDef*%
G36*
G01*
X243487500Y-88900000D02*
X243212500Y-88900000D01*
G75*
G02*
X243075000Y-88762500I0J137500D01*
G01*
X243075000Y-87512500D01*
G75*
G02*
X243212500Y-87375000I137500J0D01*
G01*
X243487500Y-87375000D01*
G75*
G02*
X243625000Y-87512500I0J-137500D01*
G01*
X243625000Y-88762500D01*
G75*
G02*
X243487500Y-88900000I-137500J0D01*
G01*
G37*
%TD.AperFunction*%
%TO.P,U67,21*%
%TO.N,/A08*%
%TA.AperFunction,SMDPad,CuDef*%
G36*
G01*
X242687500Y-88900000D02*
X242412500Y-88900000D01*
G75*
G02*
X242275000Y-88762500I0J137500D01*
G01*
X242275000Y-87512500D01*
G75*
G02*
X242412500Y-87375000I137500J0D01*
G01*
X242687500Y-87375000D01*
G75*
G02*
X242825000Y-87512500I0J-137500D01*
G01*
X242825000Y-88762500D01*
G75*
G02*
X242687500Y-88900000I-137500J0D01*
G01*
G37*
%TD.AperFunction*%
%TO.P,U67,20*%
%TO.N,/A07*%
%TA.AperFunction,SMDPad,CuDef*%
G36*
G01*
X241887500Y-88900000D02*
X241612500Y-88900000D01*
G75*
G02*
X241475000Y-88762500I0J137500D01*
G01*
X241475000Y-87512500D01*
G75*
G02*
X241612500Y-87375000I137500J0D01*
G01*
X241887500Y-87375000D01*
G75*
G02*
X242025000Y-87512500I0J-137500D01*
G01*
X242025000Y-88762500D01*
G75*
G02*
X241887500Y-88900000I-137500J0D01*
G01*
G37*
%TD.AperFunction*%
%TO.P,U67,19*%
%TO.N,/A06*%
%TA.AperFunction,SMDPad,CuDef*%
G36*
G01*
X241087500Y-88900000D02*
X240812500Y-88900000D01*
G75*
G02*
X240675000Y-88762500I0J137500D01*
G01*
X240675000Y-87512500D01*
G75*
G02*
X240812500Y-87375000I137500J0D01*
G01*
X241087500Y-87375000D01*
G75*
G02*
X241225000Y-87512500I0J-137500D01*
G01*
X241225000Y-88762500D01*
G75*
G02*
X241087500Y-88900000I-137500J0D01*
G01*
G37*
%TD.AperFunction*%
%TO.P,U67,18*%
%TO.N,/A05*%
%TA.AperFunction,SMDPad,CuDef*%
G36*
G01*
X240287500Y-88900000D02*
X240012500Y-88900000D01*
G75*
G02*
X239875000Y-88762500I0J137500D01*
G01*
X239875000Y-87512500D01*
G75*
G02*
X240012500Y-87375000I137500J0D01*
G01*
X240287500Y-87375000D01*
G75*
G02*
X240425000Y-87512500I0J-137500D01*
G01*
X240425000Y-88762500D01*
G75*
G02*
X240287500Y-88900000I-137500J0D01*
G01*
G37*
%TD.AperFunction*%
%TO.P,U67,17*%
%TO.N,Net-(U67-Pad17)*%
%TA.AperFunction,SMDPad,CuDef*%
G36*
G01*
X239487500Y-88900000D02*
X239212500Y-88900000D01*
G75*
G02*
X239075000Y-88762500I0J137500D01*
G01*
X239075000Y-87512500D01*
G75*
G02*
X239212500Y-87375000I137500J0D01*
G01*
X239487500Y-87375000D01*
G75*
G02*
X239625000Y-87512500I0J-137500D01*
G01*
X239625000Y-88762500D01*
G75*
G02*
X239487500Y-88900000I-137500J0D01*
G01*
G37*
%TD.AperFunction*%
%TO.P,U67,16*%
%TO.N,/IO7*%
%TA.AperFunction,SMDPad,CuDef*%
G36*
G01*
X238687500Y-88900000D02*
X238412500Y-88900000D01*
G75*
G02*
X238275000Y-88762500I0J137500D01*
G01*
X238275000Y-87512500D01*
G75*
G02*
X238412500Y-87375000I137500J0D01*
G01*
X238687500Y-87375000D01*
G75*
G02*
X238825000Y-87512500I0J-137500D01*
G01*
X238825000Y-88762500D01*
G75*
G02*
X238687500Y-88900000I-137500J0D01*
G01*
G37*
%TD.AperFunction*%
%TO.P,U67,15*%
%TO.N,/IO6*%
%TA.AperFunction,SMDPad,CuDef*%
G36*
G01*
X237887500Y-88900000D02*
X237612500Y-88900000D01*
G75*
G02*
X237475000Y-88762500I0J137500D01*
G01*
X237475000Y-87512500D01*
G75*
G02*
X237612500Y-87375000I137500J0D01*
G01*
X237887500Y-87375000D01*
G75*
G02*
X238025000Y-87512500I0J-137500D01*
G01*
X238025000Y-88762500D01*
G75*
G02*
X237887500Y-88900000I-137500J0D01*
G01*
G37*
%TD.AperFunction*%
%TO.P,U67,14*%
%TO.N,/IO5*%
%TA.AperFunction,SMDPad,CuDef*%
G36*
G01*
X237087500Y-88900000D02*
X236812500Y-88900000D01*
G75*
G02*
X236675000Y-88762500I0J137500D01*
G01*
X236675000Y-87512500D01*
G75*
G02*
X236812500Y-87375000I137500J0D01*
G01*
X237087500Y-87375000D01*
G75*
G02*
X237225000Y-87512500I0J-137500D01*
G01*
X237225000Y-88762500D01*
G75*
G02*
X237087500Y-88900000I-137500J0D01*
G01*
G37*
%TD.AperFunction*%
%TO.P,U67,13*%
%TO.N,/IO4*%
%TA.AperFunction,SMDPad,CuDef*%
G36*
G01*
X236287500Y-88900000D02*
X236012500Y-88900000D01*
G75*
G02*
X235875000Y-88762500I0J137500D01*
G01*
X235875000Y-87512500D01*
G75*
G02*
X236012500Y-87375000I137500J0D01*
G01*
X236287500Y-87375000D01*
G75*
G02*
X236425000Y-87512500I0J-137500D01*
G01*
X236425000Y-88762500D01*
G75*
G02*
X236287500Y-88900000I-137500J0D01*
G01*
G37*
%TD.AperFunction*%
%TO.P,U67,12*%
%TO.N,GND*%
%TA.AperFunction,SMDPad,CuDef*%
G36*
G01*
X235487500Y-88900000D02*
X235212500Y-88900000D01*
G75*
G02*
X235075000Y-88762500I0J137500D01*
G01*
X235075000Y-87512500D01*
G75*
G02*
X235212500Y-87375000I137500J0D01*
G01*
X235487500Y-87375000D01*
G75*
G02*
X235625000Y-87512500I0J-137500D01*
G01*
X235625000Y-88762500D01*
G75*
G02*
X235487500Y-88900000I-137500J0D01*
G01*
G37*
%TD.AperFunction*%
%TO.P,U67,11*%
%TO.N,VCC*%
%TA.AperFunction,SMDPad,CuDef*%
G36*
G01*
X234687500Y-88900000D02*
X234412500Y-88900000D01*
G75*
G02*
X234275000Y-88762500I0J137500D01*
G01*
X234275000Y-87512500D01*
G75*
G02*
X234412500Y-87375000I137500J0D01*
G01*
X234687500Y-87375000D01*
G75*
G02*
X234825000Y-87512500I0J-137500D01*
G01*
X234825000Y-88762500D01*
G75*
G02*
X234687500Y-88900000I-137500J0D01*
G01*
G37*
%TD.AperFunction*%
%TO.P,U67,10*%
%TO.N,/IO3*%
%TA.AperFunction,SMDPad,CuDef*%
G36*
G01*
X233887500Y-88900000D02*
X233612500Y-88900000D01*
G75*
G02*
X233475000Y-88762500I0J137500D01*
G01*
X233475000Y-87512500D01*
G75*
G02*
X233612500Y-87375000I137500J0D01*
G01*
X233887500Y-87375000D01*
G75*
G02*
X234025000Y-87512500I0J-137500D01*
G01*
X234025000Y-88762500D01*
G75*
G02*
X233887500Y-88900000I-137500J0D01*
G01*
G37*
%TD.AperFunction*%
%TO.P,U67,9*%
%TO.N,/IO2*%
%TA.AperFunction,SMDPad,CuDef*%
G36*
G01*
X233087500Y-88900000D02*
X232812500Y-88900000D01*
G75*
G02*
X232675000Y-88762500I0J137500D01*
G01*
X232675000Y-87512500D01*
G75*
G02*
X232812500Y-87375000I137500J0D01*
G01*
X233087500Y-87375000D01*
G75*
G02*
X233225000Y-87512500I0J-137500D01*
G01*
X233225000Y-88762500D01*
G75*
G02*
X233087500Y-88900000I-137500J0D01*
G01*
G37*
%TD.AperFunction*%
%TO.P,U67,8*%
%TO.N,/IO1*%
%TA.AperFunction,SMDPad,CuDef*%
G36*
G01*
X232287500Y-88900000D02*
X232012500Y-88900000D01*
G75*
G02*
X231875000Y-88762500I0J137500D01*
G01*
X231875000Y-87512500D01*
G75*
G02*
X232012500Y-87375000I137500J0D01*
G01*
X232287500Y-87375000D01*
G75*
G02*
X232425000Y-87512500I0J-137500D01*
G01*
X232425000Y-88762500D01*
G75*
G02*
X232287500Y-88900000I-137500J0D01*
G01*
G37*
%TD.AperFunction*%
%TO.P,U67,7*%
%TO.N,/IO0*%
%TA.AperFunction,SMDPad,CuDef*%
G36*
G01*
X231487500Y-88900000D02*
X231212500Y-88900000D01*
G75*
G02*
X231075000Y-88762500I0J137500D01*
G01*
X231075000Y-87512500D01*
G75*
G02*
X231212500Y-87375000I137500J0D01*
G01*
X231487500Y-87375000D01*
G75*
G02*
X231625000Y-87512500I0J-137500D01*
G01*
X231625000Y-88762500D01*
G75*
G02*
X231487500Y-88900000I-137500J0D01*
G01*
G37*
%TD.AperFunction*%
%TO.P,U67,6*%
%TO.N,~CE*%
%TA.AperFunction,SMDPad,CuDef*%
G36*
G01*
X230687500Y-88900000D02*
X230412500Y-88900000D01*
G75*
G02*
X230275000Y-88762500I0J137500D01*
G01*
X230275000Y-87512500D01*
G75*
G02*
X230412500Y-87375000I137500J0D01*
G01*
X230687500Y-87375000D01*
G75*
G02*
X230825000Y-87512500I0J-137500D01*
G01*
X230825000Y-88762500D01*
G75*
G02*
X230687500Y-88900000I-137500J0D01*
G01*
G37*
%TD.AperFunction*%
%TO.P,U67,5*%
%TO.N,/A04*%
%TA.AperFunction,SMDPad,CuDef*%
G36*
G01*
X229887500Y-88900000D02*
X229612500Y-88900000D01*
G75*
G02*
X229475000Y-88762500I0J137500D01*
G01*
X229475000Y-87512500D01*
G75*
G02*
X229612500Y-87375000I137500J0D01*
G01*
X229887500Y-87375000D01*
G75*
G02*
X230025000Y-87512500I0J-137500D01*
G01*
X230025000Y-88762500D01*
G75*
G02*
X229887500Y-88900000I-137500J0D01*
G01*
G37*
%TD.AperFunction*%
%TO.P,U67,4*%
%TO.N,/A03*%
%TA.AperFunction,SMDPad,CuDef*%
G36*
G01*
X229087500Y-88900000D02*
X228812500Y-88900000D01*
G75*
G02*
X228675000Y-88762500I0J137500D01*
G01*
X228675000Y-87512500D01*
G75*
G02*
X228812500Y-87375000I137500J0D01*
G01*
X229087500Y-87375000D01*
G75*
G02*
X229225000Y-87512500I0J-137500D01*
G01*
X229225000Y-88762500D01*
G75*
G02*
X229087500Y-88900000I-137500J0D01*
G01*
G37*
%TD.AperFunction*%
%TO.P,U67,3*%
%TO.N,/A02*%
%TA.AperFunction,SMDPad,CuDef*%
G36*
G01*
X228287500Y-88900000D02*
X228012500Y-88900000D01*
G75*
G02*
X227875000Y-88762500I0J137500D01*
G01*
X227875000Y-87512500D01*
G75*
G02*
X228012500Y-87375000I137500J0D01*
G01*
X228287500Y-87375000D01*
G75*
G02*
X228425000Y-87512500I0J-137500D01*
G01*
X228425000Y-88762500D01*
G75*
G02*
X228287500Y-88900000I-137500J0D01*
G01*
G37*
%TD.AperFunction*%
%TO.P,U67,2*%
%TO.N,/A01*%
%TA.AperFunction,SMDPad,CuDef*%
G36*
G01*
X227487500Y-88900000D02*
X227212500Y-88900000D01*
G75*
G02*
X227075000Y-88762500I0J137500D01*
G01*
X227075000Y-87512500D01*
G75*
G02*
X227212500Y-87375000I137500J0D01*
G01*
X227487500Y-87375000D01*
G75*
G02*
X227625000Y-87512500I0J-137500D01*
G01*
X227625000Y-88762500D01*
G75*
G02*
X227487500Y-88900000I-137500J0D01*
G01*
G37*
%TD.AperFunction*%
%TO.P,U67,1*%
%TO.N,/A00*%
%TA.AperFunction,SMDPad,CuDef*%
G36*
G01*
X226687500Y-88900000D02*
X226412500Y-88900000D01*
G75*
G02*
X226275000Y-88762500I0J137500D01*
G01*
X226275000Y-87512500D01*
G75*
G02*
X226412500Y-87375000I137500J0D01*
G01*
X226687500Y-87375000D01*
G75*
G02*
X226825000Y-87512500I0J-137500D01*
G01*
X226825000Y-88762500D01*
G75*
G02*
X226687500Y-88900000I-137500J0D01*
G01*
G37*
%TD.AperFunction*%
%TD*%
%TO.P,U34,2*%
%TO.N,~UB*%
%TA.AperFunction,SMDPad,CuDef*%
G36*
G01*
X230103000Y-73006000D02*
X230653000Y-73006000D01*
G75*
G02*
X230853000Y-73206000I0J-200000D01*
G01*
X230853000Y-73606000D01*
G75*
G02*
X230653000Y-73806000I-200000J0D01*
G01*
X230103000Y-73806000D01*
G75*
G02*
X229903000Y-73606000I0J200000D01*
G01*
X229903000Y-73206000D01*
G75*
G02*
X230103000Y-73006000I200000J0D01*
G01*
G37*
%TD.AperFunction*%
%TO.P,U34,1*%
%TO.N,GND*%
%TA.AperFunction,SMDPad,CuDef*%
G36*
G01*
X230103000Y-71356000D02*
X230653000Y-71356000D01*
G75*
G02*
X230853000Y-71556000I0J-200000D01*
G01*
X230853000Y-71956000D01*
G75*
G02*
X230653000Y-72156000I-200000J0D01*
G01*
X230103000Y-72156000D01*
G75*
G02*
X229903000Y-71956000I0J200000D01*
G01*
X229903000Y-71556000D01*
G75*
G02*
X230103000Y-71356000I200000J0D01*
G01*
G37*
%TD.AperFunction*%
%TD*%
%TO.P,U1,2*%
%TO.N,~OE*%
%TA.AperFunction,SMDPad,CuDef*%
G36*
G01*
X228579000Y-73006000D02*
X229129000Y-73006000D01*
G75*
G02*
X229329000Y-73206000I0J-200000D01*
G01*
X229329000Y-73606000D01*
G75*
G02*
X229129000Y-73806000I-200000J0D01*
G01*
X228579000Y-73806000D01*
G75*
G02*
X228379000Y-73606000I0J200000D01*
G01*
X228379000Y-73206000D01*
G75*
G02*
X228579000Y-73006000I200000J0D01*
G01*
G37*
%TD.AperFunction*%
%TO.P,U1,1*%
%TO.N,GND*%
%TA.AperFunction,SMDPad,CuDef*%
G36*
G01*
X228579000Y-71356000D02*
X229129000Y-71356000D01*
G75*
G02*
X229329000Y-71556000I0J-200000D01*
G01*
X229329000Y-71956000D01*
G75*
G02*
X229129000Y-72156000I-200000J0D01*
G01*
X228579000Y-72156000D01*
G75*
G02*
X228379000Y-71956000I0J200000D01*
G01*
X228379000Y-71556000D01*
G75*
G02*
X228579000Y-71356000I200000J0D01*
G01*
G37*
%TD.AperFunction*%
%TD*%
D10*
%TO.P,J3,16*%
%TO.N,/IO0*%
X288036000Y-96520000D03*
%TO.P,J3,15*%
%TO.N,/IO1*%
X285496000Y-96520000D03*
%TO.P,J3,14*%
%TO.N,/IO2*%
X282956000Y-96520000D03*
%TO.P,J3,13*%
%TO.N,/IO3*%
X280416000Y-96520000D03*
%TO.P,J3,12*%
%TO.N,/IO4*%
X277876000Y-96520000D03*
%TO.P,J3,11*%
%TO.N,/IO5*%
X275336000Y-96520000D03*
%TO.P,J3,10*%
%TO.N,/IO6*%
X272796000Y-96520000D03*
%TO.P,J3,9*%
%TO.N,/IO7*%
X270256000Y-96520000D03*
%TO.P,J3,8*%
%TO.N,/IO8*%
X267716000Y-96520000D03*
%TO.P,J3,7*%
%TO.N,/IO9*%
X265176000Y-96520000D03*
%TO.P,J3,6*%
%TO.N,/IO10*%
X262636000Y-96520000D03*
%TO.P,J3,5*%
%TO.N,/IO11*%
X260096000Y-96520000D03*
%TO.P,J3,4*%
%TO.N,/IO12*%
X257556000Y-96520000D03*
%TO.P,J3,3*%
%TO.N,/IO13*%
X255016000Y-96520000D03*
%TO.P,J3,2*%
%TO.N,/IO14*%
X252476000Y-96520000D03*
D11*
%TO.P,J3,1*%
%TO.N,/IO15*%
X249936000Y-96520000D03*
%TD*%
D10*
%TO.P,J2,18*%
%TO.N,Net-(J2-Pad18)*%
X244856000Y-71374000D03*
%TO.P,J2,17*%
%TO.N,Net-(J2-Pad17)*%
X247396000Y-71374000D03*
%TO.P,J2,16*%
%TO.N,/A15*%
X249936000Y-71374000D03*
%TO.P,J2,15*%
%TO.N,/A14*%
X252476000Y-71374000D03*
%TO.P,J2,14*%
%TO.N,/A13*%
X255016000Y-71374000D03*
%TO.P,J2,13*%
%TO.N,/A12*%
X257556000Y-71374000D03*
%TO.P,J2,12*%
%TO.N,/A11*%
X260096000Y-71374000D03*
%TO.P,J2,11*%
%TO.N,/A10*%
X262636000Y-71374000D03*
%TO.P,J2,10*%
%TO.N,/A09*%
X265176000Y-71374000D03*
%TO.P,J2,9*%
%TO.N,/A08*%
X267716000Y-71374000D03*
%TO.P,J2,8*%
%TO.N,/A07*%
X270256000Y-71374000D03*
%TO.P,J2,7*%
%TO.N,/A06*%
X272796000Y-71374000D03*
%TO.P,J2,6*%
%TO.N,/A05*%
X275336000Y-71374000D03*
%TO.P,J2,5*%
%TO.N,/A04*%
X277876000Y-71374000D03*
%TO.P,J2,4*%
%TO.N,/A03*%
X280416000Y-71374000D03*
%TO.P,J2,3*%
%TO.N,/A02*%
X282956000Y-71374000D03*
%TO.P,J2,2*%
%TO.N,/A01*%
X285496000Y-71374000D03*
D11*
%TO.P,J2,1*%
%TO.N,/A00*%
X288036000Y-71374000D03*
%TD*%
D10*
%TO.P,J1,8*%
%TO.N,~CE*%
X221996000Y-91690000D03*
%TO.P,J1,7*%
%TO.N,~LB*%
X221996000Y-89150000D03*
%TO.P,J1,6*%
%TO.N,~UB*%
X221996000Y-86610000D03*
%TO.P,J1,5*%
%TO.N,~OE*%
X221996000Y-84070000D03*
%TO.P,J1,4*%
%TO.N,WE*%
X221996000Y-81530000D03*
%TO.P,J1,3*%
%TO.N,CP*%
X221996000Y-78990000D03*
%TO.P,J1,2*%
%TO.N,GND*%
X221996000Y-76450000D03*
D11*
%TO.P,J1,1*%
%TO.N,VCC*%
X221996000Y-73910000D03*
%TD*%
%TO.P,U65,1*%
%TO.N,Net-(U65-Pad1)*%
%TA.AperFunction,SMDPad,CuDef*%
G36*
G01*
X289054250Y-79711000D02*
X288541750Y-79711000D01*
G75*
G02*
X288323000Y-79492250I0J218750D01*
G01*
X288323000Y-79054750D01*
G75*
G02*
X288541750Y-78836000I218750J0D01*
G01*
X289054250Y-78836000D01*
G75*
G02*
X289273000Y-79054750I0J-218750D01*
G01*
X289273000Y-79492250D01*
G75*
G02*
X289054250Y-79711000I-218750J0D01*
G01*
G37*
%TD.AperFunction*%
%TO.P,U65,2*%
%TO.N,/A00*%
%TA.AperFunction,SMDPad,CuDef*%
G36*
G01*
X289054250Y-78136000D02*
X288541750Y-78136000D01*
G75*
G02*
X288323000Y-77917250I0J218750D01*
G01*
X288323000Y-77479750D01*
G75*
G02*
X288541750Y-77261000I218750J0D01*
G01*
X289054250Y-77261000D01*
G75*
G02*
X289273000Y-77479750I0J-218750D01*
G01*
X289273000Y-77917250D01*
G75*
G02*
X289054250Y-78136000I-218750J0D01*
G01*
G37*
%TD.AperFunction*%
%TD*%
%TO.P,U61,1*%
%TO.N,Net-(U61-Pad1)*%
%TA.AperFunction,SMDPad,CuDef*%
G36*
G01*
X286514250Y-79711000D02*
X286001750Y-79711000D01*
G75*
G02*
X285783000Y-79492250I0J218750D01*
G01*
X285783000Y-79054750D01*
G75*
G02*
X286001750Y-78836000I218750J0D01*
G01*
X286514250Y-78836000D01*
G75*
G02*
X286733000Y-79054750I0J-218750D01*
G01*
X286733000Y-79492250D01*
G75*
G02*
X286514250Y-79711000I-218750J0D01*
G01*
G37*
%TD.AperFunction*%
%TO.P,U61,2*%
%TO.N,/A01*%
%TA.AperFunction,SMDPad,CuDef*%
G36*
G01*
X286514250Y-78136000D02*
X286001750Y-78136000D01*
G75*
G02*
X285783000Y-77917250I0J218750D01*
G01*
X285783000Y-77479750D01*
G75*
G02*
X286001750Y-77261000I218750J0D01*
G01*
X286514250Y-77261000D01*
G75*
G02*
X286733000Y-77479750I0J-218750D01*
G01*
X286733000Y-77917250D01*
G75*
G02*
X286514250Y-78136000I-218750J0D01*
G01*
G37*
%TD.AperFunction*%
%TD*%
%TO.P,U57,1*%
%TO.N,Net-(U57-Pad1)*%
%TA.AperFunction,SMDPad,CuDef*%
G36*
G01*
X283974250Y-79711000D02*
X283461750Y-79711000D01*
G75*
G02*
X283243000Y-79492250I0J218750D01*
G01*
X283243000Y-79054750D01*
G75*
G02*
X283461750Y-78836000I218750J0D01*
G01*
X283974250Y-78836000D01*
G75*
G02*
X284193000Y-79054750I0J-218750D01*
G01*
X284193000Y-79492250D01*
G75*
G02*
X283974250Y-79711000I-218750J0D01*
G01*
G37*
%TD.AperFunction*%
%TO.P,U57,2*%
%TO.N,/A02*%
%TA.AperFunction,SMDPad,CuDef*%
G36*
G01*
X283974250Y-78136000D02*
X283461750Y-78136000D01*
G75*
G02*
X283243000Y-77917250I0J218750D01*
G01*
X283243000Y-77479750D01*
G75*
G02*
X283461750Y-77261000I218750J0D01*
G01*
X283974250Y-77261000D01*
G75*
G02*
X284193000Y-77479750I0J-218750D01*
G01*
X284193000Y-77917250D01*
G75*
G02*
X283974250Y-78136000I-218750J0D01*
G01*
G37*
%TD.AperFunction*%
%TD*%
%TO.P,U53,1*%
%TO.N,Net-(U53-Pad1)*%
%TA.AperFunction,SMDPad,CuDef*%
G36*
G01*
X281434250Y-79711000D02*
X280921750Y-79711000D01*
G75*
G02*
X280703000Y-79492250I0J218750D01*
G01*
X280703000Y-79054750D01*
G75*
G02*
X280921750Y-78836000I218750J0D01*
G01*
X281434250Y-78836000D01*
G75*
G02*
X281653000Y-79054750I0J-218750D01*
G01*
X281653000Y-79492250D01*
G75*
G02*
X281434250Y-79711000I-218750J0D01*
G01*
G37*
%TD.AperFunction*%
%TO.P,U53,2*%
%TO.N,/A03*%
%TA.AperFunction,SMDPad,CuDef*%
G36*
G01*
X281434250Y-78136000D02*
X280921750Y-78136000D01*
G75*
G02*
X280703000Y-77917250I0J218750D01*
G01*
X280703000Y-77479750D01*
G75*
G02*
X280921750Y-77261000I218750J0D01*
G01*
X281434250Y-77261000D01*
G75*
G02*
X281653000Y-77479750I0J-218750D01*
G01*
X281653000Y-77917250D01*
G75*
G02*
X281434250Y-78136000I-218750J0D01*
G01*
G37*
%TD.AperFunction*%
%TD*%
%TO.P,U49,1*%
%TO.N,Net-(U49-Pad1)*%
%TA.AperFunction,SMDPad,CuDef*%
G36*
G01*
X278894250Y-79711000D02*
X278381750Y-79711000D01*
G75*
G02*
X278163000Y-79492250I0J218750D01*
G01*
X278163000Y-79054750D01*
G75*
G02*
X278381750Y-78836000I218750J0D01*
G01*
X278894250Y-78836000D01*
G75*
G02*
X279113000Y-79054750I0J-218750D01*
G01*
X279113000Y-79492250D01*
G75*
G02*
X278894250Y-79711000I-218750J0D01*
G01*
G37*
%TD.AperFunction*%
%TO.P,U49,2*%
%TO.N,/A04*%
%TA.AperFunction,SMDPad,CuDef*%
G36*
G01*
X278894250Y-78136000D02*
X278381750Y-78136000D01*
G75*
G02*
X278163000Y-77917250I0J218750D01*
G01*
X278163000Y-77479750D01*
G75*
G02*
X278381750Y-77261000I218750J0D01*
G01*
X278894250Y-77261000D01*
G75*
G02*
X279113000Y-77479750I0J-218750D01*
G01*
X279113000Y-77917250D01*
G75*
G02*
X278894250Y-78136000I-218750J0D01*
G01*
G37*
%TD.AperFunction*%
%TD*%
%TO.P,U45,1*%
%TO.N,Net-(U45-Pad1)*%
%TA.AperFunction,SMDPad,CuDef*%
G36*
G01*
X276328750Y-79711000D02*
X275816250Y-79711000D01*
G75*
G02*
X275597500Y-79492250I0J218750D01*
G01*
X275597500Y-79054750D01*
G75*
G02*
X275816250Y-78836000I218750J0D01*
G01*
X276328750Y-78836000D01*
G75*
G02*
X276547500Y-79054750I0J-218750D01*
G01*
X276547500Y-79492250D01*
G75*
G02*
X276328750Y-79711000I-218750J0D01*
G01*
G37*
%TD.AperFunction*%
%TO.P,U45,2*%
%TO.N,/A05*%
%TA.AperFunction,SMDPad,CuDef*%
G36*
G01*
X276328750Y-78136000D02*
X275816250Y-78136000D01*
G75*
G02*
X275597500Y-77917250I0J218750D01*
G01*
X275597500Y-77479750D01*
G75*
G02*
X275816250Y-77261000I218750J0D01*
G01*
X276328750Y-77261000D01*
G75*
G02*
X276547500Y-77479750I0J-218750D01*
G01*
X276547500Y-77917250D01*
G75*
G02*
X276328750Y-78136000I-218750J0D01*
G01*
G37*
%TD.AperFunction*%
%TD*%
%TO.P,U41,1*%
%TO.N,Net-(U41-Pad1)*%
%TA.AperFunction,SMDPad,CuDef*%
G36*
G01*
X273814250Y-79711000D02*
X273301750Y-79711000D01*
G75*
G02*
X273083000Y-79492250I0J218750D01*
G01*
X273083000Y-79054750D01*
G75*
G02*
X273301750Y-78836000I218750J0D01*
G01*
X273814250Y-78836000D01*
G75*
G02*
X274033000Y-79054750I0J-218750D01*
G01*
X274033000Y-79492250D01*
G75*
G02*
X273814250Y-79711000I-218750J0D01*
G01*
G37*
%TD.AperFunction*%
%TO.P,U41,2*%
%TO.N,/A06*%
%TA.AperFunction,SMDPad,CuDef*%
G36*
G01*
X273814250Y-78136000D02*
X273301750Y-78136000D01*
G75*
G02*
X273083000Y-77917250I0J218750D01*
G01*
X273083000Y-77479750D01*
G75*
G02*
X273301750Y-77261000I218750J0D01*
G01*
X273814250Y-77261000D01*
G75*
G02*
X274033000Y-77479750I0J-218750D01*
G01*
X274033000Y-77917250D01*
G75*
G02*
X273814250Y-78136000I-218750J0D01*
G01*
G37*
%TD.AperFunction*%
%TD*%
%TO.P,U37,1*%
%TO.N,Net-(U37-Pad1)*%
%TA.AperFunction,SMDPad,CuDef*%
G36*
G01*
X271274250Y-79711000D02*
X270761750Y-79711000D01*
G75*
G02*
X270543000Y-79492250I0J218750D01*
G01*
X270543000Y-79054750D01*
G75*
G02*
X270761750Y-78836000I218750J0D01*
G01*
X271274250Y-78836000D01*
G75*
G02*
X271493000Y-79054750I0J-218750D01*
G01*
X271493000Y-79492250D01*
G75*
G02*
X271274250Y-79711000I-218750J0D01*
G01*
G37*
%TD.AperFunction*%
%TO.P,U37,2*%
%TO.N,/A07*%
%TA.AperFunction,SMDPad,CuDef*%
G36*
G01*
X271274250Y-78136000D02*
X270761750Y-78136000D01*
G75*
G02*
X270543000Y-77917250I0J218750D01*
G01*
X270543000Y-77479750D01*
G75*
G02*
X270761750Y-77261000I218750J0D01*
G01*
X271274250Y-77261000D01*
G75*
G02*
X271493000Y-77479750I0J-218750D01*
G01*
X271493000Y-77917250D01*
G75*
G02*
X271274250Y-78136000I-218750J0D01*
G01*
G37*
%TD.AperFunction*%
%TD*%
%TO.P,U32,1*%
%TO.N,Net-(U32-Pad1)*%
%TA.AperFunction,SMDPad,CuDef*%
G36*
G01*
X266942250Y-79711000D02*
X266429750Y-79711000D01*
G75*
G02*
X266211000Y-79492250I0J218750D01*
G01*
X266211000Y-79054750D01*
G75*
G02*
X266429750Y-78836000I218750J0D01*
G01*
X266942250Y-78836000D01*
G75*
G02*
X267161000Y-79054750I0J-218750D01*
G01*
X267161000Y-79492250D01*
G75*
G02*
X266942250Y-79711000I-218750J0D01*
G01*
G37*
%TD.AperFunction*%
%TO.P,U32,2*%
%TO.N,/A08*%
%TA.AperFunction,SMDPad,CuDef*%
G36*
G01*
X266942250Y-78136000D02*
X266429750Y-78136000D01*
G75*
G02*
X266211000Y-77917250I0J218750D01*
G01*
X266211000Y-77479750D01*
G75*
G02*
X266429750Y-77261000I218750J0D01*
G01*
X266942250Y-77261000D01*
G75*
G02*
X267161000Y-77479750I0J-218750D01*
G01*
X267161000Y-77917250D01*
G75*
G02*
X266942250Y-78136000I-218750J0D01*
G01*
G37*
%TD.AperFunction*%
%TD*%
%TO.P,U28,1*%
%TO.N,Net-(U28-Pad1)*%
%TA.AperFunction,SMDPad,CuDef*%
G36*
G01*
X264416250Y-79736500D02*
X263903750Y-79736500D01*
G75*
G02*
X263685000Y-79517750I0J218750D01*
G01*
X263685000Y-79080250D01*
G75*
G02*
X263903750Y-78861500I218750J0D01*
G01*
X264416250Y-78861500D01*
G75*
G02*
X264635000Y-79080250I0J-218750D01*
G01*
X264635000Y-79517750D01*
G75*
G02*
X264416250Y-79736500I-218750J0D01*
G01*
G37*
%TD.AperFunction*%
%TO.P,U28,2*%
%TO.N,/A09*%
%TA.AperFunction,SMDPad,CuDef*%
G36*
G01*
X264416250Y-78161500D02*
X263903750Y-78161500D01*
G75*
G02*
X263685000Y-77942750I0J218750D01*
G01*
X263685000Y-77505250D01*
G75*
G02*
X263903750Y-77286500I218750J0D01*
G01*
X264416250Y-77286500D01*
G75*
G02*
X264635000Y-77505250I0J-218750D01*
G01*
X264635000Y-77942750D01*
G75*
G02*
X264416250Y-78161500I-218750J0D01*
G01*
G37*
%TD.AperFunction*%
%TD*%
%TO.P,U24,1*%
%TO.N,Net-(U24-Pad1)*%
%TA.AperFunction,SMDPad,CuDef*%
G36*
G01*
X261876250Y-79711000D02*
X261363750Y-79711000D01*
G75*
G02*
X261145000Y-79492250I0J218750D01*
G01*
X261145000Y-79054750D01*
G75*
G02*
X261363750Y-78836000I218750J0D01*
G01*
X261876250Y-78836000D01*
G75*
G02*
X262095000Y-79054750I0J-218750D01*
G01*
X262095000Y-79492250D01*
G75*
G02*
X261876250Y-79711000I-218750J0D01*
G01*
G37*
%TD.AperFunction*%
%TO.P,U24,2*%
%TO.N,/A10*%
%TA.AperFunction,SMDPad,CuDef*%
G36*
G01*
X261876250Y-78136000D02*
X261363750Y-78136000D01*
G75*
G02*
X261145000Y-77917250I0J218750D01*
G01*
X261145000Y-77479750D01*
G75*
G02*
X261363750Y-77261000I218750J0D01*
G01*
X261876250Y-77261000D01*
G75*
G02*
X262095000Y-77479750I0J-218750D01*
G01*
X262095000Y-77917250D01*
G75*
G02*
X261876250Y-78136000I-218750J0D01*
G01*
G37*
%TD.AperFunction*%
%TD*%
%TO.P,U20,1*%
%TO.N,Net-(U20-Pad1)*%
%TA.AperFunction,SMDPad,CuDef*%
G36*
G01*
X259336250Y-79711000D02*
X258823750Y-79711000D01*
G75*
G02*
X258605000Y-79492250I0J218750D01*
G01*
X258605000Y-79054750D01*
G75*
G02*
X258823750Y-78836000I218750J0D01*
G01*
X259336250Y-78836000D01*
G75*
G02*
X259555000Y-79054750I0J-218750D01*
G01*
X259555000Y-79492250D01*
G75*
G02*
X259336250Y-79711000I-218750J0D01*
G01*
G37*
%TD.AperFunction*%
%TO.P,U20,2*%
%TO.N,/A11*%
%TA.AperFunction,SMDPad,CuDef*%
G36*
G01*
X259336250Y-78136000D02*
X258823750Y-78136000D01*
G75*
G02*
X258605000Y-77917250I0J218750D01*
G01*
X258605000Y-77479750D01*
G75*
G02*
X258823750Y-77261000I218750J0D01*
G01*
X259336250Y-77261000D01*
G75*
G02*
X259555000Y-77479750I0J-218750D01*
G01*
X259555000Y-77917250D01*
G75*
G02*
X259336250Y-78136000I-218750J0D01*
G01*
G37*
%TD.AperFunction*%
%TD*%
%TO.P,U16,1*%
%TO.N,Net-(U16-Pad1)*%
%TA.AperFunction,SMDPad,CuDef*%
G36*
G01*
X256796250Y-79711000D02*
X256283750Y-79711000D01*
G75*
G02*
X256065000Y-79492250I0J218750D01*
G01*
X256065000Y-79054750D01*
G75*
G02*
X256283750Y-78836000I218750J0D01*
G01*
X256796250Y-78836000D01*
G75*
G02*
X257015000Y-79054750I0J-218750D01*
G01*
X257015000Y-79492250D01*
G75*
G02*
X256796250Y-79711000I-218750J0D01*
G01*
G37*
%TD.AperFunction*%
%TO.P,U16,2*%
%TO.N,/A12*%
%TA.AperFunction,SMDPad,CuDef*%
G36*
G01*
X256796250Y-78136000D02*
X256283750Y-78136000D01*
G75*
G02*
X256065000Y-77917250I0J218750D01*
G01*
X256065000Y-77479750D01*
G75*
G02*
X256283750Y-77261000I218750J0D01*
G01*
X256796250Y-77261000D01*
G75*
G02*
X257015000Y-77479750I0J-218750D01*
G01*
X257015000Y-77917250D01*
G75*
G02*
X256796250Y-78136000I-218750J0D01*
G01*
G37*
%TD.AperFunction*%
%TD*%
%TO.P,U12,1*%
%TO.N,Net-(U12-Pad1)*%
%TA.AperFunction,SMDPad,CuDef*%
G36*
G01*
X254256250Y-79711000D02*
X253743750Y-79711000D01*
G75*
G02*
X253525000Y-79492250I0J218750D01*
G01*
X253525000Y-79054750D01*
G75*
G02*
X253743750Y-78836000I218750J0D01*
G01*
X254256250Y-78836000D01*
G75*
G02*
X254475000Y-79054750I0J-218750D01*
G01*
X254475000Y-79492250D01*
G75*
G02*
X254256250Y-79711000I-218750J0D01*
G01*
G37*
%TD.AperFunction*%
%TO.P,U12,2*%
%TO.N,/A13*%
%TA.AperFunction,SMDPad,CuDef*%
G36*
G01*
X254256250Y-78136000D02*
X253743750Y-78136000D01*
G75*
G02*
X253525000Y-77917250I0J218750D01*
G01*
X253525000Y-77479750D01*
G75*
G02*
X253743750Y-77261000I218750J0D01*
G01*
X254256250Y-77261000D01*
G75*
G02*
X254475000Y-77479750I0J-218750D01*
G01*
X254475000Y-77917250D01*
G75*
G02*
X254256250Y-78136000I-218750J0D01*
G01*
G37*
%TD.AperFunction*%
%TD*%
%TO.P,U8,1*%
%TO.N,Net-(U38-Pad1)*%
%TA.AperFunction,SMDPad,CuDef*%
G36*
G01*
X251716250Y-79711000D02*
X251203750Y-79711000D01*
G75*
G02*
X250985000Y-79492250I0J218750D01*
G01*
X250985000Y-79054750D01*
G75*
G02*
X251203750Y-78836000I218750J0D01*
G01*
X251716250Y-78836000D01*
G75*
G02*
X251935000Y-79054750I0J-218750D01*
G01*
X251935000Y-79492250D01*
G75*
G02*
X251716250Y-79711000I-218750J0D01*
G01*
G37*
%TD.AperFunction*%
%TO.P,U8,2*%
%TO.N,/A14*%
%TA.AperFunction,SMDPad,CuDef*%
G36*
G01*
X251716250Y-78136000D02*
X251203750Y-78136000D01*
G75*
G02*
X250985000Y-77917250I0J218750D01*
G01*
X250985000Y-77479750D01*
G75*
G02*
X251203750Y-77261000I218750J0D01*
G01*
X251716250Y-77261000D01*
G75*
G02*
X251935000Y-77479750I0J-218750D01*
G01*
X251935000Y-77917250D01*
G75*
G02*
X251716250Y-78136000I-218750J0D01*
G01*
G37*
%TD.AperFunction*%
%TD*%
%TO.P,U4,1*%
%TO.N,Net-(U36-Pad1)*%
%TA.AperFunction,SMDPad,CuDef*%
G36*
G01*
X249176250Y-79711000D02*
X248663750Y-79711000D01*
G75*
G02*
X248445000Y-79492250I0J218750D01*
G01*
X248445000Y-79054750D01*
G75*
G02*
X248663750Y-78836000I218750J0D01*
G01*
X249176250Y-78836000D01*
G75*
G02*
X249395000Y-79054750I0J-218750D01*
G01*
X249395000Y-79492250D01*
G75*
G02*
X249176250Y-79711000I-218750J0D01*
G01*
G37*
%TD.AperFunction*%
%TO.P,U4,2*%
%TO.N,/A15*%
%TA.AperFunction,SMDPad,CuDef*%
G36*
G01*
X249176250Y-78136000D02*
X248663750Y-78136000D01*
G75*
G02*
X248445000Y-77917250I0J218750D01*
G01*
X248445000Y-77479750D01*
G75*
G02*
X248663750Y-77261000I218750J0D01*
G01*
X249176250Y-77261000D01*
G75*
G02*
X249395000Y-77479750I0J-218750D01*
G01*
X249395000Y-77917250D01*
G75*
G02*
X249176250Y-78136000I-218750J0D01*
G01*
G37*
%TD.AperFunction*%
%TD*%
%TO.P,U63,1*%
%TO.N,Net-(U33-Pad1)*%
%TA.AperFunction,SMDPad,CuDef*%
G36*
G01*
X288541750Y-89453000D02*
X289054250Y-89453000D01*
G75*
G02*
X289273000Y-89671750I0J-218750D01*
G01*
X289273000Y-90109250D01*
G75*
G02*
X289054250Y-90328000I-218750J0D01*
G01*
X288541750Y-90328000D01*
G75*
G02*
X288323000Y-90109250I0J218750D01*
G01*
X288323000Y-89671750D01*
G75*
G02*
X288541750Y-89453000I218750J0D01*
G01*
G37*
%TD.AperFunction*%
%TO.P,U63,2*%
%TO.N,/IO0*%
%TA.AperFunction,SMDPad,CuDef*%
G36*
G01*
X288541750Y-91028000D02*
X289054250Y-91028000D01*
G75*
G02*
X289273000Y-91246750I0J-218750D01*
G01*
X289273000Y-91684250D01*
G75*
G02*
X289054250Y-91903000I-218750J0D01*
G01*
X288541750Y-91903000D01*
G75*
G02*
X288323000Y-91684250I0J218750D01*
G01*
X288323000Y-91246750D01*
G75*
G02*
X288541750Y-91028000I218750J0D01*
G01*
G37*
%TD.AperFunction*%
%TD*%
%TO.P,U59,1*%
%TO.N,Net-(U31-Pad1)*%
%TA.AperFunction,SMDPad,CuDef*%
G36*
G01*
X286001750Y-89453000D02*
X286514250Y-89453000D01*
G75*
G02*
X286733000Y-89671750I0J-218750D01*
G01*
X286733000Y-90109250D01*
G75*
G02*
X286514250Y-90328000I-218750J0D01*
G01*
X286001750Y-90328000D01*
G75*
G02*
X285783000Y-90109250I0J218750D01*
G01*
X285783000Y-89671750D01*
G75*
G02*
X286001750Y-89453000I218750J0D01*
G01*
G37*
%TD.AperFunction*%
%TO.P,U59,2*%
%TO.N,/IO1*%
%TA.AperFunction,SMDPad,CuDef*%
G36*
G01*
X286001750Y-91028000D02*
X286514250Y-91028000D01*
G75*
G02*
X286733000Y-91246750I0J-218750D01*
G01*
X286733000Y-91684250D01*
G75*
G02*
X286514250Y-91903000I-218750J0D01*
G01*
X286001750Y-91903000D01*
G75*
G02*
X285783000Y-91684250I0J218750D01*
G01*
X285783000Y-91246750D01*
G75*
G02*
X286001750Y-91028000I218750J0D01*
G01*
G37*
%TD.AperFunction*%
%TD*%
%TO.P,U55,1*%
%TO.N,Net-(U29-Pad1)*%
%TA.AperFunction,SMDPad,CuDef*%
G36*
G01*
X283461750Y-89453000D02*
X283974250Y-89453000D01*
G75*
G02*
X284193000Y-89671750I0J-218750D01*
G01*
X284193000Y-90109250D01*
G75*
G02*
X283974250Y-90328000I-218750J0D01*
G01*
X283461750Y-90328000D01*
G75*
G02*
X283243000Y-90109250I0J218750D01*
G01*
X283243000Y-89671750D01*
G75*
G02*
X283461750Y-89453000I218750J0D01*
G01*
G37*
%TD.AperFunction*%
%TO.P,U55,2*%
%TO.N,/IO2*%
%TA.AperFunction,SMDPad,CuDef*%
G36*
G01*
X283461750Y-91028000D02*
X283974250Y-91028000D01*
G75*
G02*
X284193000Y-91246750I0J-218750D01*
G01*
X284193000Y-91684250D01*
G75*
G02*
X283974250Y-91903000I-218750J0D01*
G01*
X283461750Y-91903000D01*
G75*
G02*
X283243000Y-91684250I0J218750D01*
G01*
X283243000Y-91246750D01*
G75*
G02*
X283461750Y-91028000I218750J0D01*
G01*
G37*
%TD.AperFunction*%
%TD*%
%TO.P,U51,1*%
%TO.N,Net-(U27-Pad1)*%
%TA.AperFunction,SMDPad,CuDef*%
G36*
G01*
X280921750Y-89453000D02*
X281434250Y-89453000D01*
G75*
G02*
X281653000Y-89671750I0J-218750D01*
G01*
X281653000Y-90109250D01*
G75*
G02*
X281434250Y-90328000I-218750J0D01*
G01*
X280921750Y-90328000D01*
G75*
G02*
X280703000Y-90109250I0J218750D01*
G01*
X280703000Y-89671750D01*
G75*
G02*
X280921750Y-89453000I218750J0D01*
G01*
G37*
%TD.AperFunction*%
%TO.P,U51,2*%
%TO.N,/IO3*%
%TA.AperFunction,SMDPad,CuDef*%
G36*
G01*
X280921750Y-91028000D02*
X281434250Y-91028000D01*
G75*
G02*
X281653000Y-91246750I0J-218750D01*
G01*
X281653000Y-91684250D01*
G75*
G02*
X281434250Y-91903000I-218750J0D01*
G01*
X280921750Y-91903000D01*
G75*
G02*
X280703000Y-91684250I0J218750D01*
G01*
X280703000Y-91246750D01*
G75*
G02*
X280921750Y-91028000I218750J0D01*
G01*
G37*
%TD.AperFunction*%
%TD*%
%TO.P,U47,1*%
%TO.N,Net-(U25-Pad1)*%
%TA.AperFunction,SMDPad,CuDef*%
G36*
G01*
X278381750Y-89453000D02*
X278894250Y-89453000D01*
G75*
G02*
X279113000Y-89671750I0J-218750D01*
G01*
X279113000Y-90109250D01*
G75*
G02*
X278894250Y-90328000I-218750J0D01*
G01*
X278381750Y-90328000D01*
G75*
G02*
X278163000Y-90109250I0J218750D01*
G01*
X278163000Y-89671750D01*
G75*
G02*
X278381750Y-89453000I218750J0D01*
G01*
G37*
%TD.AperFunction*%
%TO.P,U47,2*%
%TO.N,/IO4*%
%TA.AperFunction,SMDPad,CuDef*%
G36*
G01*
X278381750Y-91028000D02*
X278894250Y-91028000D01*
G75*
G02*
X279113000Y-91246750I0J-218750D01*
G01*
X279113000Y-91684250D01*
G75*
G02*
X278894250Y-91903000I-218750J0D01*
G01*
X278381750Y-91903000D01*
G75*
G02*
X278163000Y-91684250I0J218750D01*
G01*
X278163000Y-91246750D01*
G75*
G02*
X278381750Y-91028000I218750J0D01*
G01*
G37*
%TD.AperFunction*%
%TD*%
%TO.P,U43,1*%
%TO.N,Net-(U23-Pad1)*%
%TA.AperFunction,SMDPad,CuDef*%
G36*
G01*
X275841750Y-89453000D02*
X276354250Y-89453000D01*
G75*
G02*
X276573000Y-89671750I0J-218750D01*
G01*
X276573000Y-90109250D01*
G75*
G02*
X276354250Y-90328000I-218750J0D01*
G01*
X275841750Y-90328000D01*
G75*
G02*
X275623000Y-90109250I0J218750D01*
G01*
X275623000Y-89671750D01*
G75*
G02*
X275841750Y-89453000I218750J0D01*
G01*
G37*
%TD.AperFunction*%
%TO.P,U43,2*%
%TO.N,/IO5*%
%TA.AperFunction,SMDPad,CuDef*%
G36*
G01*
X275841750Y-91028000D02*
X276354250Y-91028000D01*
G75*
G02*
X276573000Y-91246750I0J-218750D01*
G01*
X276573000Y-91684250D01*
G75*
G02*
X276354250Y-91903000I-218750J0D01*
G01*
X275841750Y-91903000D01*
G75*
G02*
X275623000Y-91684250I0J218750D01*
G01*
X275623000Y-91246750D01*
G75*
G02*
X275841750Y-91028000I218750J0D01*
G01*
G37*
%TD.AperFunction*%
%TD*%
%TO.P,U39,1*%
%TO.N,Net-(U21-Pad1)*%
%TA.AperFunction,SMDPad,CuDef*%
G36*
G01*
X273301750Y-89453000D02*
X273814250Y-89453000D01*
G75*
G02*
X274033000Y-89671750I0J-218750D01*
G01*
X274033000Y-90109250D01*
G75*
G02*
X273814250Y-90328000I-218750J0D01*
G01*
X273301750Y-90328000D01*
G75*
G02*
X273083000Y-90109250I0J218750D01*
G01*
X273083000Y-89671750D01*
G75*
G02*
X273301750Y-89453000I218750J0D01*
G01*
G37*
%TD.AperFunction*%
%TO.P,U39,2*%
%TO.N,/IO6*%
%TA.AperFunction,SMDPad,CuDef*%
G36*
G01*
X273301750Y-91028000D02*
X273814250Y-91028000D01*
G75*
G02*
X274033000Y-91246750I0J-218750D01*
G01*
X274033000Y-91684250D01*
G75*
G02*
X273814250Y-91903000I-218750J0D01*
G01*
X273301750Y-91903000D01*
G75*
G02*
X273083000Y-91684250I0J218750D01*
G01*
X273083000Y-91246750D01*
G75*
G02*
X273301750Y-91028000I218750J0D01*
G01*
G37*
%TD.AperFunction*%
%TD*%
%TO.P,U35,1*%
%TO.N,Net-(U19-Pad1)*%
%TA.AperFunction,SMDPad,CuDef*%
G36*
G01*
X270761750Y-89453000D02*
X271274250Y-89453000D01*
G75*
G02*
X271493000Y-89671750I0J-218750D01*
G01*
X271493000Y-90109250D01*
G75*
G02*
X271274250Y-90328000I-218750J0D01*
G01*
X270761750Y-90328000D01*
G75*
G02*
X270543000Y-90109250I0J218750D01*
G01*
X270543000Y-89671750D01*
G75*
G02*
X270761750Y-89453000I218750J0D01*
G01*
G37*
%TD.AperFunction*%
%TO.P,U35,2*%
%TO.N,/IO7*%
%TA.AperFunction,SMDPad,CuDef*%
G36*
G01*
X270761750Y-91028000D02*
X271274250Y-91028000D01*
G75*
G02*
X271493000Y-91246750I0J-218750D01*
G01*
X271493000Y-91684250D01*
G75*
G02*
X271274250Y-91903000I-218750J0D01*
G01*
X270761750Y-91903000D01*
G75*
G02*
X270543000Y-91684250I0J218750D01*
G01*
X270543000Y-91246750D01*
G75*
G02*
X270761750Y-91028000I218750J0D01*
G01*
G37*
%TD.AperFunction*%
%TD*%
%TO.P,U30,1*%
%TO.N,Net-(U17-Pad1)*%
%TA.AperFunction,SMDPad,CuDef*%
G36*
G01*
X266443750Y-89453000D02*
X266956250Y-89453000D01*
G75*
G02*
X267175000Y-89671750I0J-218750D01*
G01*
X267175000Y-90109250D01*
G75*
G02*
X266956250Y-90328000I-218750J0D01*
G01*
X266443750Y-90328000D01*
G75*
G02*
X266225000Y-90109250I0J218750D01*
G01*
X266225000Y-89671750D01*
G75*
G02*
X266443750Y-89453000I218750J0D01*
G01*
G37*
%TD.AperFunction*%
%TO.P,U30,2*%
%TO.N,/IO8*%
%TA.AperFunction,SMDPad,CuDef*%
G36*
G01*
X266443750Y-91028000D02*
X266956250Y-91028000D01*
G75*
G02*
X267175000Y-91246750I0J-218750D01*
G01*
X267175000Y-91684250D01*
G75*
G02*
X266956250Y-91903000I-218750J0D01*
G01*
X266443750Y-91903000D01*
G75*
G02*
X266225000Y-91684250I0J218750D01*
G01*
X266225000Y-91246750D01*
G75*
G02*
X266443750Y-91028000I218750J0D01*
G01*
G37*
%TD.AperFunction*%
%TD*%
%TO.P,U26,1*%
%TO.N,Net-(U15-Pad1)*%
%TA.AperFunction,SMDPad,CuDef*%
G36*
G01*
X263903750Y-89453000D02*
X264416250Y-89453000D01*
G75*
G02*
X264635000Y-89671750I0J-218750D01*
G01*
X264635000Y-90109250D01*
G75*
G02*
X264416250Y-90328000I-218750J0D01*
G01*
X263903750Y-90328000D01*
G75*
G02*
X263685000Y-90109250I0J218750D01*
G01*
X263685000Y-89671750D01*
G75*
G02*
X263903750Y-89453000I218750J0D01*
G01*
G37*
%TD.AperFunction*%
%TO.P,U26,2*%
%TO.N,/IO9*%
%TA.AperFunction,SMDPad,CuDef*%
G36*
G01*
X263903750Y-91028000D02*
X264416250Y-91028000D01*
G75*
G02*
X264635000Y-91246750I0J-218750D01*
G01*
X264635000Y-91684250D01*
G75*
G02*
X264416250Y-91903000I-218750J0D01*
G01*
X263903750Y-91903000D01*
G75*
G02*
X263685000Y-91684250I0J218750D01*
G01*
X263685000Y-91246750D01*
G75*
G02*
X263903750Y-91028000I218750J0D01*
G01*
G37*
%TD.AperFunction*%
%TD*%
%TO.P,U22,1*%
%TO.N,Net-(U13-Pad1)*%
%TA.AperFunction,SMDPad,CuDef*%
G36*
G01*
X261363750Y-89453000D02*
X261876250Y-89453000D01*
G75*
G02*
X262095000Y-89671750I0J-218750D01*
G01*
X262095000Y-90109250D01*
G75*
G02*
X261876250Y-90328000I-218750J0D01*
G01*
X261363750Y-90328000D01*
G75*
G02*
X261145000Y-90109250I0J218750D01*
G01*
X261145000Y-89671750D01*
G75*
G02*
X261363750Y-89453000I218750J0D01*
G01*
G37*
%TD.AperFunction*%
%TO.P,U22,2*%
%TO.N,/IO10*%
%TA.AperFunction,SMDPad,CuDef*%
G36*
G01*
X261363750Y-91028000D02*
X261876250Y-91028000D01*
G75*
G02*
X262095000Y-91246750I0J-218750D01*
G01*
X262095000Y-91684250D01*
G75*
G02*
X261876250Y-91903000I-218750J0D01*
G01*
X261363750Y-91903000D01*
G75*
G02*
X261145000Y-91684250I0J218750D01*
G01*
X261145000Y-91246750D01*
G75*
G02*
X261363750Y-91028000I218750J0D01*
G01*
G37*
%TD.AperFunction*%
%TD*%
%TO.P,U18,1*%
%TO.N,Net-(U11-Pad1)*%
%TA.AperFunction,SMDPad,CuDef*%
G36*
G01*
X258823750Y-89453000D02*
X259336250Y-89453000D01*
G75*
G02*
X259555000Y-89671750I0J-218750D01*
G01*
X259555000Y-90109250D01*
G75*
G02*
X259336250Y-90328000I-218750J0D01*
G01*
X258823750Y-90328000D01*
G75*
G02*
X258605000Y-90109250I0J218750D01*
G01*
X258605000Y-89671750D01*
G75*
G02*
X258823750Y-89453000I218750J0D01*
G01*
G37*
%TD.AperFunction*%
%TO.P,U18,2*%
%TO.N,/IO11*%
%TA.AperFunction,SMDPad,CuDef*%
G36*
G01*
X258823750Y-91028000D02*
X259336250Y-91028000D01*
G75*
G02*
X259555000Y-91246750I0J-218750D01*
G01*
X259555000Y-91684250D01*
G75*
G02*
X259336250Y-91903000I-218750J0D01*
G01*
X258823750Y-91903000D01*
G75*
G02*
X258605000Y-91684250I0J218750D01*
G01*
X258605000Y-91246750D01*
G75*
G02*
X258823750Y-91028000I218750J0D01*
G01*
G37*
%TD.AperFunction*%
%TD*%
%TO.P,U14,1*%
%TO.N,Net-(U14-Pad1)*%
%TA.AperFunction,SMDPad,CuDef*%
G36*
G01*
X256283750Y-89453000D02*
X256796250Y-89453000D01*
G75*
G02*
X257015000Y-89671750I0J-218750D01*
G01*
X257015000Y-90109250D01*
G75*
G02*
X256796250Y-90328000I-218750J0D01*
G01*
X256283750Y-90328000D01*
G75*
G02*
X256065000Y-90109250I0J218750D01*
G01*
X256065000Y-89671750D01*
G75*
G02*
X256283750Y-89453000I218750J0D01*
G01*
G37*
%TD.AperFunction*%
%TO.P,U14,2*%
%TO.N,/IO12*%
%TA.AperFunction,SMDPad,CuDef*%
G36*
G01*
X256283750Y-91028000D02*
X256796250Y-91028000D01*
G75*
G02*
X257015000Y-91246750I0J-218750D01*
G01*
X257015000Y-91684250D01*
G75*
G02*
X256796250Y-91903000I-218750J0D01*
G01*
X256283750Y-91903000D01*
G75*
G02*
X256065000Y-91684250I0J218750D01*
G01*
X256065000Y-91246750D01*
G75*
G02*
X256283750Y-91028000I218750J0D01*
G01*
G37*
%TD.AperFunction*%
%TD*%
%TO.P,U10,1*%
%TO.N,Net-(U10-Pad1)*%
%TA.AperFunction,SMDPad,CuDef*%
G36*
G01*
X253743750Y-89453000D02*
X254256250Y-89453000D01*
G75*
G02*
X254475000Y-89671750I0J-218750D01*
G01*
X254475000Y-90109250D01*
G75*
G02*
X254256250Y-90328000I-218750J0D01*
G01*
X253743750Y-90328000D01*
G75*
G02*
X253525000Y-90109250I0J218750D01*
G01*
X253525000Y-89671750D01*
G75*
G02*
X253743750Y-89453000I218750J0D01*
G01*
G37*
%TD.AperFunction*%
%TO.P,U10,2*%
%TO.N,/IO13*%
%TA.AperFunction,SMDPad,CuDef*%
G36*
G01*
X253743750Y-91028000D02*
X254256250Y-91028000D01*
G75*
G02*
X254475000Y-91246750I0J-218750D01*
G01*
X254475000Y-91684250D01*
G75*
G02*
X254256250Y-91903000I-218750J0D01*
G01*
X253743750Y-91903000D01*
G75*
G02*
X253525000Y-91684250I0J218750D01*
G01*
X253525000Y-91246750D01*
G75*
G02*
X253743750Y-91028000I218750J0D01*
G01*
G37*
%TD.AperFunction*%
%TD*%
%TO.P,U6,1*%
%TO.N,Net-(U5-Pad1)*%
%TA.AperFunction,SMDPad,CuDef*%
G36*
G01*
X251203750Y-89453000D02*
X251716250Y-89453000D01*
G75*
G02*
X251935000Y-89671750I0J-218750D01*
G01*
X251935000Y-90109250D01*
G75*
G02*
X251716250Y-90328000I-218750J0D01*
G01*
X251203750Y-90328000D01*
G75*
G02*
X250985000Y-90109250I0J218750D01*
G01*
X250985000Y-89671750D01*
G75*
G02*
X251203750Y-89453000I218750J0D01*
G01*
G37*
%TD.AperFunction*%
%TO.P,U6,2*%
%TO.N,/IO14*%
%TA.AperFunction,SMDPad,CuDef*%
G36*
G01*
X251203750Y-91028000D02*
X251716250Y-91028000D01*
G75*
G02*
X251935000Y-91246750I0J-218750D01*
G01*
X251935000Y-91684250D01*
G75*
G02*
X251716250Y-91903000I-218750J0D01*
G01*
X251203750Y-91903000D01*
G75*
G02*
X250985000Y-91684250I0J218750D01*
G01*
X250985000Y-91246750D01*
G75*
G02*
X251203750Y-91028000I218750J0D01*
G01*
G37*
%TD.AperFunction*%
%TD*%
%TO.P,U2,1*%
%TO.N,Net-(U2-Pad1)*%
%TA.AperFunction,SMDPad,CuDef*%
G36*
G01*
X248663750Y-89453000D02*
X249176250Y-89453000D01*
G75*
G02*
X249395000Y-89671750I0J-218750D01*
G01*
X249395000Y-90109250D01*
G75*
G02*
X249176250Y-90328000I-218750J0D01*
G01*
X248663750Y-90328000D01*
G75*
G02*
X248445000Y-90109250I0J218750D01*
G01*
X248445000Y-89671750D01*
G75*
G02*
X248663750Y-89453000I218750J0D01*
G01*
G37*
%TD.AperFunction*%
%TO.P,U2,2*%
%TO.N,/IO15*%
%TA.AperFunction,SMDPad,CuDef*%
G36*
G01*
X248663750Y-91028000D02*
X249176250Y-91028000D01*
G75*
G02*
X249395000Y-91246750I0J-218750D01*
G01*
X249395000Y-91684250D01*
G75*
G02*
X249176250Y-91903000I-218750J0D01*
G01*
X248663750Y-91903000D01*
G75*
G02*
X248445000Y-91684250I0J218750D01*
G01*
X248445000Y-91246750D01*
G75*
G02*
X248663750Y-91028000I218750J0D01*
G01*
G37*
%TD.AperFunction*%
%TD*%
%TO.P,U66,1*%
%TO.N,Net-(U65-Pad1)*%
%TA.AperFunction,SMDPad,CuDef*%
G36*
G01*
X288523000Y-80754000D02*
X289073000Y-80754000D01*
G75*
G02*
X289273000Y-80954000I0J-200000D01*
G01*
X289273000Y-81354000D01*
G75*
G02*
X289073000Y-81554000I-200000J0D01*
G01*
X288523000Y-81554000D01*
G75*
G02*
X288323000Y-81354000I0J200000D01*
G01*
X288323000Y-80954000D01*
G75*
G02*
X288523000Y-80754000I200000J0D01*
G01*
G37*
%TD.AperFunction*%
%TO.P,U66,2*%
%TO.N,GND*%
%TA.AperFunction,SMDPad,CuDef*%
G36*
G01*
X288523000Y-82404000D02*
X289073000Y-82404000D01*
G75*
G02*
X289273000Y-82604000I0J-200000D01*
G01*
X289273000Y-83004000D01*
G75*
G02*
X289073000Y-83204000I-200000J0D01*
G01*
X288523000Y-83204000D01*
G75*
G02*
X288323000Y-83004000I0J200000D01*
G01*
X288323000Y-82604000D01*
G75*
G02*
X288523000Y-82404000I200000J0D01*
G01*
G37*
%TD.AperFunction*%
%TD*%
%TO.P,U64,1*%
%TO.N,Net-(U61-Pad1)*%
%TA.AperFunction,SMDPad,CuDef*%
G36*
G01*
X285983000Y-80754000D02*
X286533000Y-80754000D01*
G75*
G02*
X286733000Y-80954000I0J-200000D01*
G01*
X286733000Y-81354000D01*
G75*
G02*
X286533000Y-81554000I-200000J0D01*
G01*
X285983000Y-81554000D01*
G75*
G02*
X285783000Y-81354000I0J200000D01*
G01*
X285783000Y-80954000D01*
G75*
G02*
X285983000Y-80754000I200000J0D01*
G01*
G37*
%TD.AperFunction*%
%TO.P,U64,2*%
%TO.N,GND*%
%TA.AperFunction,SMDPad,CuDef*%
G36*
G01*
X285983000Y-82404000D02*
X286533000Y-82404000D01*
G75*
G02*
X286733000Y-82604000I0J-200000D01*
G01*
X286733000Y-83004000D01*
G75*
G02*
X286533000Y-83204000I-200000J0D01*
G01*
X285983000Y-83204000D01*
G75*
G02*
X285783000Y-83004000I0J200000D01*
G01*
X285783000Y-82604000D01*
G75*
G02*
X285983000Y-82404000I200000J0D01*
G01*
G37*
%TD.AperFunction*%
%TD*%
%TO.P,U62,1*%
%TO.N,Net-(U57-Pad1)*%
%TA.AperFunction,SMDPad,CuDef*%
G36*
G01*
X283443000Y-80754000D02*
X283993000Y-80754000D01*
G75*
G02*
X284193000Y-80954000I0J-200000D01*
G01*
X284193000Y-81354000D01*
G75*
G02*
X283993000Y-81554000I-200000J0D01*
G01*
X283443000Y-81554000D01*
G75*
G02*
X283243000Y-81354000I0J200000D01*
G01*
X283243000Y-80954000D01*
G75*
G02*
X283443000Y-80754000I200000J0D01*
G01*
G37*
%TD.AperFunction*%
%TO.P,U62,2*%
%TO.N,GND*%
%TA.AperFunction,SMDPad,CuDef*%
G36*
G01*
X283443000Y-82404000D02*
X283993000Y-82404000D01*
G75*
G02*
X284193000Y-82604000I0J-200000D01*
G01*
X284193000Y-83004000D01*
G75*
G02*
X283993000Y-83204000I-200000J0D01*
G01*
X283443000Y-83204000D01*
G75*
G02*
X283243000Y-83004000I0J200000D01*
G01*
X283243000Y-82604000D01*
G75*
G02*
X283443000Y-82404000I200000J0D01*
G01*
G37*
%TD.AperFunction*%
%TD*%
%TO.P,U60,1*%
%TO.N,Net-(U53-Pad1)*%
%TA.AperFunction,SMDPad,CuDef*%
G36*
G01*
X280903000Y-80817000D02*
X281453000Y-80817000D01*
G75*
G02*
X281653000Y-81017000I0J-200000D01*
G01*
X281653000Y-81417000D01*
G75*
G02*
X281453000Y-81617000I-200000J0D01*
G01*
X280903000Y-81617000D01*
G75*
G02*
X280703000Y-81417000I0J200000D01*
G01*
X280703000Y-81017000D01*
G75*
G02*
X280903000Y-80817000I200000J0D01*
G01*
G37*
%TD.AperFunction*%
%TO.P,U60,2*%
%TO.N,GND*%
%TA.AperFunction,SMDPad,CuDef*%
G36*
G01*
X280903000Y-82467000D02*
X281453000Y-82467000D01*
G75*
G02*
X281653000Y-82667000I0J-200000D01*
G01*
X281653000Y-83067000D01*
G75*
G02*
X281453000Y-83267000I-200000J0D01*
G01*
X280903000Y-83267000D01*
G75*
G02*
X280703000Y-83067000I0J200000D01*
G01*
X280703000Y-82667000D01*
G75*
G02*
X280903000Y-82467000I200000J0D01*
G01*
G37*
%TD.AperFunction*%
%TD*%
%TO.P,U58,1*%
%TO.N,Net-(U49-Pad1)*%
%TA.AperFunction,SMDPad,CuDef*%
G36*
G01*
X278426000Y-80817000D02*
X278976000Y-80817000D01*
G75*
G02*
X279176000Y-81017000I0J-200000D01*
G01*
X279176000Y-81417000D01*
G75*
G02*
X278976000Y-81617000I-200000J0D01*
G01*
X278426000Y-81617000D01*
G75*
G02*
X278226000Y-81417000I0J200000D01*
G01*
X278226000Y-81017000D01*
G75*
G02*
X278426000Y-80817000I200000J0D01*
G01*
G37*
%TD.AperFunction*%
%TO.P,U58,2*%
%TO.N,GND*%
%TA.AperFunction,SMDPad,CuDef*%
G36*
G01*
X278426000Y-82467000D02*
X278976000Y-82467000D01*
G75*
G02*
X279176000Y-82667000I0J-200000D01*
G01*
X279176000Y-83067000D01*
G75*
G02*
X278976000Y-83267000I-200000J0D01*
G01*
X278426000Y-83267000D01*
G75*
G02*
X278226000Y-83067000I0J200000D01*
G01*
X278226000Y-82667000D01*
G75*
G02*
X278426000Y-82467000I200000J0D01*
G01*
G37*
%TD.AperFunction*%
%TD*%
%TO.P,U56,1*%
%TO.N,Net-(U45-Pad1)*%
%TA.AperFunction,SMDPad,CuDef*%
G36*
G01*
X275823000Y-80817000D02*
X276373000Y-80817000D01*
G75*
G02*
X276573000Y-81017000I0J-200000D01*
G01*
X276573000Y-81417000D01*
G75*
G02*
X276373000Y-81617000I-200000J0D01*
G01*
X275823000Y-81617000D01*
G75*
G02*
X275623000Y-81417000I0J200000D01*
G01*
X275623000Y-81017000D01*
G75*
G02*
X275823000Y-80817000I200000J0D01*
G01*
G37*
%TD.AperFunction*%
%TO.P,U56,2*%
%TO.N,GND*%
%TA.AperFunction,SMDPad,CuDef*%
G36*
G01*
X275823000Y-82467000D02*
X276373000Y-82467000D01*
G75*
G02*
X276573000Y-82667000I0J-200000D01*
G01*
X276573000Y-83067000D01*
G75*
G02*
X276373000Y-83267000I-200000J0D01*
G01*
X275823000Y-83267000D01*
G75*
G02*
X275623000Y-83067000I0J200000D01*
G01*
X275623000Y-82667000D01*
G75*
G02*
X275823000Y-82467000I200000J0D01*
G01*
G37*
%TD.AperFunction*%
%TD*%
%TO.P,U54,1*%
%TO.N,Net-(U41-Pad1)*%
%TA.AperFunction,SMDPad,CuDef*%
G36*
G01*
X273283000Y-80817000D02*
X273833000Y-80817000D01*
G75*
G02*
X274033000Y-81017000I0J-200000D01*
G01*
X274033000Y-81417000D01*
G75*
G02*
X273833000Y-81617000I-200000J0D01*
G01*
X273283000Y-81617000D01*
G75*
G02*
X273083000Y-81417000I0J200000D01*
G01*
X273083000Y-81017000D01*
G75*
G02*
X273283000Y-80817000I200000J0D01*
G01*
G37*
%TD.AperFunction*%
%TO.P,U54,2*%
%TO.N,GND*%
%TA.AperFunction,SMDPad,CuDef*%
G36*
G01*
X273283000Y-82467000D02*
X273833000Y-82467000D01*
G75*
G02*
X274033000Y-82667000I0J-200000D01*
G01*
X274033000Y-83067000D01*
G75*
G02*
X273833000Y-83267000I-200000J0D01*
G01*
X273283000Y-83267000D01*
G75*
G02*
X273083000Y-83067000I0J200000D01*
G01*
X273083000Y-82667000D01*
G75*
G02*
X273283000Y-82467000I200000J0D01*
G01*
G37*
%TD.AperFunction*%
%TD*%
%TO.P,U52,1*%
%TO.N,Net-(U37-Pad1)*%
%TA.AperFunction,SMDPad,CuDef*%
G36*
G01*
X270743000Y-80817000D02*
X271293000Y-80817000D01*
G75*
G02*
X271493000Y-81017000I0J-200000D01*
G01*
X271493000Y-81417000D01*
G75*
G02*
X271293000Y-81617000I-200000J0D01*
G01*
X270743000Y-81617000D01*
G75*
G02*
X270543000Y-81417000I0J200000D01*
G01*
X270543000Y-81017000D01*
G75*
G02*
X270743000Y-80817000I200000J0D01*
G01*
G37*
%TD.AperFunction*%
%TO.P,U52,2*%
%TO.N,GND*%
%TA.AperFunction,SMDPad,CuDef*%
G36*
G01*
X270743000Y-82467000D02*
X271293000Y-82467000D01*
G75*
G02*
X271493000Y-82667000I0J-200000D01*
G01*
X271493000Y-83067000D01*
G75*
G02*
X271293000Y-83267000I-200000J0D01*
G01*
X270743000Y-83267000D01*
G75*
G02*
X270543000Y-83067000I0J200000D01*
G01*
X270543000Y-82667000D01*
G75*
G02*
X270743000Y-82467000I200000J0D01*
G01*
G37*
%TD.AperFunction*%
%TD*%
%TO.P,U50,1*%
%TO.N,Net-(U32-Pad1)*%
%TA.AperFunction,SMDPad,CuDef*%
G36*
G01*
X266425000Y-80817000D02*
X266975000Y-80817000D01*
G75*
G02*
X267175000Y-81017000I0J-200000D01*
G01*
X267175000Y-81417000D01*
G75*
G02*
X266975000Y-81617000I-200000J0D01*
G01*
X266425000Y-81617000D01*
G75*
G02*
X266225000Y-81417000I0J200000D01*
G01*
X266225000Y-81017000D01*
G75*
G02*
X266425000Y-80817000I200000J0D01*
G01*
G37*
%TD.AperFunction*%
%TO.P,U50,2*%
%TO.N,GND*%
%TA.AperFunction,SMDPad,CuDef*%
G36*
G01*
X266425000Y-82467000D02*
X266975000Y-82467000D01*
G75*
G02*
X267175000Y-82667000I0J-200000D01*
G01*
X267175000Y-83067000D01*
G75*
G02*
X266975000Y-83267000I-200000J0D01*
G01*
X266425000Y-83267000D01*
G75*
G02*
X266225000Y-83067000I0J200000D01*
G01*
X266225000Y-82667000D01*
G75*
G02*
X266425000Y-82467000I200000J0D01*
G01*
G37*
%TD.AperFunction*%
%TD*%
%TO.P,U48,1*%
%TO.N,Net-(U28-Pad1)*%
%TA.AperFunction,SMDPad,CuDef*%
G36*
G01*
X263885000Y-80817000D02*
X264435000Y-80817000D01*
G75*
G02*
X264635000Y-81017000I0J-200000D01*
G01*
X264635000Y-81417000D01*
G75*
G02*
X264435000Y-81617000I-200000J0D01*
G01*
X263885000Y-81617000D01*
G75*
G02*
X263685000Y-81417000I0J200000D01*
G01*
X263685000Y-81017000D01*
G75*
G02*
X263885000Y-80817000I200000J0D01*
G01*
G37*
%TD.AperFunction*%
%TO.P,U48,2*%
%TO.N,GND*%
%TA.AperFunction,SMDPad,CuDef*%
G36*
G01*
X263885000Y-82467000D02*
X264435000Y-82467000D01*
G75*
G02*
X264635000Y-82667000I0J-200000D01*
G01*
X264635000Y-83067000D01*
G75*
G02*
X264435000Y-83267000I-200000J0D01*
G01*
X263885000Y-83267000D01*
G75*
G02*
X263685000Y-83067000I0J200000D01*
G01*
X263685000Y-82667000D01*
G75*
G02*
X263885000Y-82467000I200000J0D01*
G01*
G37*
%TD.AperFunction*%
%TD*%
%TO.P,U46,1*%
%TO.N,Net-(U24-Pad1)*%
%TA.AperFunction,SMDPad,CuDef*%
G36*
G01*
X261345000Y-80817000D02*
X261895000Y-80817000D01*
G75*
G02*
X262095000Y-81017000I0J-200000D01*
G01*
X262095000Y-81417000D01*
G75*
G02*
X261895000Y-81617000I-200000J0D01*
G01*
X261345000Y-81617000D01*
G75*
G02*
X261145000Y-81417000I0J200000D01*
G01*
X261145000Y-81017000D01*
G75*
G02*
X261345000Y-80817000I200000J0D01*
G01*
G37*
%TD.AperFunction*%
%TO.P,U46,2*%
%TO.N,GND*%
%TA.AperFunction,SMDPad,CuDef*%
G36*
G01*
X261345000Y-82467000D02*
X261895000Y-82467000D01*
G75*
G02*
X262095000Y-82667000I0J-200000D01*
G01*
X262095000Y-83067000D01*
G75*
G02*
X261895000Y-83267000I-200000J0D01*
G01*
X261345000Y-83267000D01*
G75*
G02*
X261145000Y-83067000I0J200000D01*
G01*
X261145000Y-82667000D01*
G75*
G02*
X261345000Y-82467000I200000J0D01*
G01*
G37*
%TD.AperFunction*%
%TD*%
%TO.P,U44,1*%
%TO.N,Net-(U20-Pad1)*%
%TA.AperFunction,SMDPad,CuDef*%
G36*
G01*
X258805000Y-80817000D02*
X259355000Y-80817000D01*
G75*
G02*
X259555000Y-81017000I0J-200000D01*
G01*
X259555000Y-81417000D01*
G75*
G02*
X259355000Y-81617000I-200000J0D01*
G01*
X258805000Y-81617000D01*
G75*
G02*
X258605000Y-81417000I0J200000D01*
G01*
X258605000Y-81017000D01*
G75*
G02*
X258805000Y-80817000I200000J0D01*
G01*
G37*
%TD.AperFunction*%
%TO.P,U44,2*%
%TO.N,GND*%
%TA.AperFunction,SMDPad,CuDef*%
G36*
G01*
X258805000Y-82467000D02*
X259355000Y-82467000D01*
G75*
G02*
X259555000Y-82667000I0J-200000D01*
G01*
X259555000Y-83067000D01*
G75*
G02*
X259355000Y-83267000I-200000J0D01*
G01*
X258805000Y-83267000D01*
G75*
G02*
X258605000Y-83067000I0J200000D01*
G01*
X258605000Y-82667000D01*
G75*
G02*
X258805000Y-82467000I200000J0D01*
G01*
G37*
%TD.AperFunction*%
%TD*%
%TO.P,U42,1*%
%TO.N,Net-(U16-Pad1)*%
%TA.AperFunction,SMDPad,CuDef*%
G36*
G01*
X256265000Y-80754000D02*
X256815000Y-80754000D01*
G75*
G02*
X257015000Y-80954000I0J-200000D01*
G01*
X257015000Y-81354000D01*
G75*
G02*
X256815000Y-81554000I-200000J0D01*
G01*
X256265000Y-81554000D01*
G75*
G02*
X256065000Y-81354000I0J200000D01*
G01*
X256065000Y-80954000D01*
G75*
G02*
X256265000Y-80754000I200000J0D01*
G01*
G37*
%TD.AperFunction*%
%TO.P,U42,2*%
%TO.N,GND*%
%TA.AperFunction,SMDPad,CuDef*%
G36*
G01*
X256265000Y-82404000D02*
X256815000Y-82404000D01*
G75*
G02*
X257015000Y-82604000I0J-200000D01*
G01*
X257015000Y-83004000D01*
G75*
G02*
X256815000Y-83204000I-200000J0D01*
G01*
X256265000Y-83204000D01*
G75*
G02*
X256065000Y-83004000I0J200000D01*
G01*
X256065000Y-82604000D01*
G75*
G02*
X256265000Y-82404000I200000J0D01*
G01*
G37*
%TD.AperFunction*%
%TD*%
%TO.P,U40,1*%
%TO.N,Net-(U12-Pad1)*%
%TA.AperFunction,SMDPad,CuDef*%
G36*
G01*
X253725000Y-80817000D02*
X254275000Y-80817000D01*
G75*
G02*
X254475000Y-81017000I0J-200000D01*
G01*
X254475000Y-81417000D01*
G75*
G02*
X254275000Y-81617000I-200000J0D01*
G01*
X253725000Y-81617000D01*
G75*
G02*
X253525000Y-81417000I0J200000D01*
G01*
X253525000Y-81017000D01*
G75*
G02*
X253725000Y-80817000I200000J0D01*
G01*
G37*
%TD.AperFunction*%
%TO.P,U40,2*%
%TO.N,GND*%
%TA.AperFunction,SMDPad,CuDef*%
G36*
G01*
X253725000Y-82467000D02*
X254275000Y-82467000D01*
G75*
G02*
X254475000Y-82667000I0J-200000D01*
G01*
X254475000Y-83067000D01*
G75*
G02*
X254275000Y-83267000I-200000J0D01*
G01*
X253725000Y-83267000D01*
G75*
G02*
X253525000Y-83067000I0J200000D01*
G01*
X253525000Y-82667000D01*
G75*
G02*
X253725000Y-82467000I200000J0D01*
G01*
G37*
%TD.AperFunction*%
%TD*%
%TO.P,U38,1*%
%TO.N,Net-(U38-Pad1)*%
%TA.AperFunction,SMDPad,CuDef*%
G36*
G01*
X251185000Y-80817000D02*
X251735000Y-80817000D01*
G75*
G02*
X251935000Y-81017000I0J-200000D01*
G01*
X251935000Y-81417000D01*
G75*
G02*
X251735000Y-81617000I-200000J0D01*
G01*
X251185000Y-81617000D01*
G75*
G02*
X250985000Y-81417000I0J200000D01*
G01*
X250985000Y-81017000D01*
G75*
G02*
X251185000Y-80817000I200000J0D01*
G01*
G37*
%TD.AperFunction*%
%TO.P,U38,2*%
%TO.N,GND*%
%TA.AperFunction,SMDPad,CuDef*%
G36*
G01*
X251185000Y-82467000D02*
X251735000Y-82467000D01*
G75*
G02*
X251935000Y-82667000I0J-200000D01*
G01*
X251935000Y-83067000D01*
G75*
G02*
X251735000Y-83267000I-200000J0D01*
G01*
X251185000Y-83267000D01*
G75*
G02*
X250985000Y-83067000I0J200000D01*
G01*
X250985000Y-82667000D01*
G75*
G02*
X251185000Y-82467000I200000J0D01*
G01*
G37*
%TD.AperFunction*%
%TD*%
%TO.P,U36,1*%
%TO.N,Net-(U36-Pad1)*%
%TA.AperFunction,SMDPad,CuDef*%
G36*
G01*
X248645000Y-80817000D02*
X249195000Y-80817000D01*
G75*
G02*
X249395000Y-81017000I0J-200000D01*
G01*
X249395000Y-81417000D01*
G75*
G02*
X249195000Y-81617000I-200000J0D01*
G01*
X248645000Y-81617000D01*
G75*
G02*
X248445000Y-81417000I0J200000D01*
G01*
X248445000Y-81017000D01*
G75*
G02*
X248645000Y-80817000I200000J0D01*
G01*
G37*
%TD.AperFunction*%
%TO.P,U36,2*%
%TO.N,GND*%
%TA.AperFunction,SMDPad,CuDef*%
G36*
G01*
X248645000Y-82467000D02*
X249195000Y-82467000D01*
G75*
G02*
X249395000Y-82667000I0J-200000D01*
G01*
X249395000Y-83067000D01*
G75*
G02*
X249195000Y-83267000I-200000J0D01*
G01*
X248645000Y-83267000D01*
G75*
G02*
X248445000Y-83067000I0J200000D01*
G01*
X248445000Y-82667000D01*
G75*
G02*
X248645000Y-82467000I200000J0D01*
G01*
G37*
%TD.AperFunction*%
%TD*%
%TO.P,U33,1*%
%TO.N,Net-(U33-Pad1)*%
%TA.AperFunction,SMDPad,CuDef*%
G36*
G01*
X289073000Y-88601000D02*
X288523000Y-88601000D01*
G75*
G02*
X288323000Y-88401000I0J200000D01*
G01*
X288323000Y-88001000D01*
G75*
G02*
X288523000Y-87801000I200000J0D01*
G01*
X289073000Y-87801000D01*
G75*
G02*
X289273000Y-88001000I0J-200000D01*
G01*
X289273000Y-88401000D01*
G75*
G02*
X289073000Y-88601000I-200000J0D01*
G01*
G37*
%TD.AperFunction*%
%TO.P,U33,2*%
%TO.N,GND*%
%TA.AperFunction,SMDPad,CuDef*%
G36*
G01*
X289073000Y-86951000D02*
X288523000Y-86951000D01*
G75*
G02*
X288323000Y-86751000I0J200000D01*
G01*
X288323000Y-86351000D01*
G75*
G02*
X288523000Y-86151000I200000J0D01*
G01*
X289073000Y-86151000D01*
G75*
G02*
X289273000Y-86351000I0J-200000D01*
G01*
X289273000Y-86751000D01*
G75*
G02*
X289073000Y-86951000I-200000J0D01*
G01*
G37*
%TD.AperFunction*%
%TD*%
%TO.P,U31,1*%
%TO.N,Net-(U31-Pad1)*%
%TA.AperFunction,SMDPad,CuDef*%
G36*
G01*
X286533000Y-88601000D02*
X285983000Y-88601000D01*
G75*
G02*
X285783000Y-88401000I0J200000D01*
G01*
X285783000Y-88001000D01*
G75*
G02*
X285983000Y-87801000I200000J0D01*
G01*
X286533000Y-87801000D01*
G75*
G02*
X286733000Y-88001000I0J-200000D01*
G01*
X286733000Y-88401000D01*
G75*
G02*
X286533000Y-88601000I-200000J0D01*
G01*
G37*
%TD.AperFunction*%
%TO.P,U31,2*%
%TO.N,GND*%
%TA.AperFunction,SMDPad,CuDef*%
G36*
G01*
X286533000Y-86951000D02*
X285983000Y-86951000D01*
G75*
G02*
X285783000Y-86751000I0J200000D01*
G01*
X285783000Y-86351000D01*
G75*
G02*
X285983000Y-86151000I200000J0D01*
G01*
X286533000Y-86151000D01*
G75*
G02*
X286733000Y-86351000I0J-200000D01*
G01*
X286733000Y-86751000D01*
G75*
G02*
X286533000Y-86951000I-200000J0D01*
G01*
G37*
%TD.AperFunction*%
%TD*%
%TO.P,U29,1*%
%TO.N,Net-(U29-Pad1)*%
%TA.AperFunction,SMDPad,CuDef*%
G36*
G01*
X283993000Y-88601000D02*
X283443000Y-88601000D01*
G75*
G02*
X283243000Y-88401000I0J200000D01*
G01*
X283243000Y-88001000D01*
G75*
G02*
X283443000Y-87801000I200000J0D01*
G01*
X283993000Y-87801000D01*
G75*
G02*
X284193000Y-88001000I0J-200000D01*
G01*
X284193000Y-88401000D01*
G75*
G02*
X283993000Y-88601000I-200000J0D01*
G01*
G37*
%TD.AperFunction*%
%TO.P,U29,2*%
%TO.N,GND*%
%TA.AperFunction,SMDPad,CuDef*%
G36*
G01*
X283993000Y-86951000D02*
X283443000Y-86951000D01*
G75*
G02*
X283243000Y-86751000I0J200000D01*
G01*
X283243000Y-86351000D01*
G75*
G02*
X283443000Y-86151000I200000J0D01*
G01*
X283993000Y-86151000D01*
G75*
G02*
X284193000Y-86351000I0J-200000D01*
G01*
X284193000Y-86751000D01*
G75*
G02*
X283993000Y-86951000I-200000J0D01*
G01*
G37*
%TD.AperFunction*%
%TD*%
%TO.P,U27,1*%
%TO.N,Net-(U27-Pad1)*%
%TA.AperFunction,SMDPad,CuDef*%
G36*
G01*
X281453000Y-88601000D02*
X280903000Y-88601000D01*
G75*
G02*
X280703000Y-88401000I0J200000D01*
G01*
X280703000Y-88001000D01*
G75*
G02*
X280903000Y-87801000I200000J0D01*
G01*
X281453000Y-87801000D01*
G75*
G02*
X281653000Y-88001000I0J-200000D01*
G01*
X281653000Y-88401000D01*
G75*
G02*
X281453000Y-88601000I-200000J0D01*
G01*
G37*
%TD.AperFunction*%
%TO.P,U27,2*%
%TO.N,GND*%
%TA.AperFunction,SMDPad,CuDef*%
G36*
G01*
X281453000Y-86951000D02*
X280903000Y-86951000D01*
G75*
G02*
X280703000Y-86751000I0J200000D01*
G01*
X280703000Y-86351000D01*
G75*
G02*
X280903000Y-86151000I200000J0D01*
G01*
X281453000Y-86151000D01*
G75*
G02*
X281653000Y-86351000I0J-200000D01*
G01*
X281653000Y-86751000D01*
G75*
G02*
X281453000Y-86951000I-200000J0D01*
G01*
G37*
%TD.AperFunction*%
%TD*%
%TO.P,U25,1*%
%TO.N,Net-(U25-Pad1)*%
%TA.AperFunction,SMDPad,CuDef*%
G36*
G01*
X278913000Y-88601000D02*
X278363000Y-88601000D01*
G75*
G02*
X278163000Y-88401000I0J200000D01*
G01*
X278163000Y-88001000D01*
G75*
G02*
X278363000Y-87801000I200000J0D01*
G01*
X278913000Y-87801000D01*
G75*
G02*
X279113000Y-88001000I0J-200000D01*
G01*
X279113000Y-88401000D01*
G75*
G02*
X278913000Y-88601000I-200000J0D01*
G01*
G37*
%TD.AperFunction*%
%TO.P,U25,2*%
%TO.N,GND*%
%TA.AperFunction,SMDPad,CuDef*%
G36*
G01*
X278913000Y-86951000D02*
X278363000Y-86951000D01*
G75*
G02*
X278163000Y-86751000I0J200000D01*
G01*
X278163000Y-86351000D01*
G75*
G02*
X278363000Y-86151000I200000J0D01*
G01*
X278913000Y-86151000D01*
G75*
G02*
X279113000Y-86351000I0J-200000D01*
G01*
X279113000Y-86751000D01*
G75*
G02*
X278913000Y-86951000I-200000J0D01*
G01*
G37*
%TD.AperFunction*%
%TD*%
%TO.P,U23,1*%
%TO.N,Net-(U23-Pad1)*%
%TA.AperFunction,SMDPad,CuDef*%
G36*
G01*
X276373000Y-88601000D02*
X275823000Y-88601000D01*
G75*
G02*
X275623000Y-88401000I0J200000D01*
G01*
X275623000Y-88001000D01*
G75*
G02*
X275823000Y-87801000I200000J0D01*
G01*
X276373000Y-87801000D01*
G75*
G02*
X276573000Y-88001000I0J-200000D01*
G01*
X276573000Y-88401000D01*
G75*
G02*
X276373000Y-88601000I-200000J0D01*
G01*
G37*
%TD.AperFunction*%
%TO.P,U23,2*%
%TO.N,GND*%
%TA.AperFunction,SMDPad,CuDef*%
G36*
G01*
X276373000Y-86951000D02*
X275823000Y-86951000D01*
G75*
G02*
X275623000Y-86751000I0J200000D01*
G01*
X275623000Y-86351000D01*
G75*
G02*
X275823000Y-86151000I200000J0D01*
G01*
X276373000Y-86151000D01*
G75*
G02*
X276573000Y-86351000I0J-200000D01*
G01*
X276573000Y-86751000D01*
G75*
G02*
X276373000Y-86951000I-200000J0D01*
G01*
G37*
%TD.AperFunction*%
%TD*%
%TO.P,U21,1*%
%TO.N,Net-(U21-Pad1)*%
%TA.AperFunction,SMDPad,CuDef*%
G36*
G01*
X273833000Y-88601000D02*
X273283000Y-88601000D01*
G75*
G02*
X273083000Y-88401000I0J200000D01*
G01*
X273083000Y-88001000D01*
G75*
G02*
X273283000Y-87801000I200000J0D01*
G01*
X273833000Y-87801000D01*
G75*
G02*
X274033000Y-88001000I0J-200000D01*
G01*
X274033000Y-88401000D01*
G75*
G02*
X273833000Y-88601000I-200000J0D01*
G01*
G37*
%TD.AperFunction*%
%TO.P,U21,2*%
%TO.N,GND*%
%TA.AperFunction,SMDPad,CuDef*%
G36*
G01*
X273833000Y-86951000D02*
X273283000Y-86951000D01*
G75*
G02*
X273083000Y-86751000I0J200000D01*
G01*
X273083000Y-86351000D01*
G75*
G02*
X273283000Y-86151000I200000J0D01*
G01*
X273833000Y-86151000D01*
G75*
G02*
X274033000Y-86351000I0J-200000D01*
G01*
X274033000Y-86751000D01*
G75*
G02*
X273833000Y-86951000I-200000J0D01*
G01*
G37*
%TD.AperFunction*%
%TD*%
%TO.P,U19,1*%
%TO.N,Net-(U19-Pad1)*%
%TA.AperFunction,SMDPad,CuDef*%
G36*
G01*
X271293000Y-88601000D02*
X270743000Y-88601000D01*
G75*
G02*
X270543000Y-88401000I0J200000D01*
G01*
X270543000Y-88001000D01*
G75*
G02*
X270743000Y-87801000I200000J0D01*
G01*
X271293000Y-87801000D01*
G75*
G02*
X271493000Y-88001000I0J-200000D01*
G01*
X271493000Y-88401000D01*
G75*
G02*
X271293000Y-88601000I-200000J0D01*
G01*
G37*
%TD.AperFunction*%
%TO.P,U19,2*%
%TO.N,GND*%
%TA.AperFunction,SMDPad,CuDef*%
G36*
G01*
X271293000Y-86951000D02*
X270743000Y-86951000D01*
G75*
G02*
X270543000Y-86751000I0J200000D01*
G01*
X270543000Y-86351000D01*
G75*
G02*
X270743000Y-86151000I200000J0D01*
G01*
X271293000Y-86151000D01*
G75*
G02*
X271493000Y-86351000I0J-200000D01*
G01*
X271493000Y-86751000D01*
G75*
G02*
X271293000Y-86951000I-200000J0D01*
G01*
G37*
%TD.AperFunction*%
%TD*%
%TO.P,U17,1*%
%TO.N,Net-(U17-Pad1)*%
%TA.AperFunction,SMDPad,CuDef*%
G36*
G01*
X266975000Y-88601000D02*
X266425000Y-88601000D01*
G75*
G02*
X266225000Y-88401000I0J200000D01*
G01*
X266225000Y-88001000D01*
G75*
G02*
X266425000Y-87801000I200000J0D01*
G01*
X266975000Y-87801000D01*
G75*
G02*
X267175000Y-88001000I0J-200000D01*
G01*
X267175000Y-88401000D01*
G75*
G02*
X266975000Y-88601000I-200000J0D01*
G01*
G37*
%TD.AperFunction*%
%TO.P,U17,2*%
%TO.N,GND*%
%TA.AperFunction,SMDPad,CuDef*%
G36*
G01*
X266975000Y-86951000D02*
X266425000Y-86951000D01*
G75*
G02*
X266225000Y-86751000I0J200000D01*
G01*
X266225000Y-86351000D01*
G75*
G02*
X266425000Y-86151000I200000J0D01*
G01*
X266975000Y-86151000D01*
G75*
G02*
X267175000Y-86351000I0J-200000D01*
G01*
X267175000Y-86751000D01*
G75*
G02*
X266975000Y-86951000I-200000J0D01*
G01*
G37*
%TD.AperFunction*%
%TD*%
%TO.P,U15,1*%
%TO.N,Net-(U15-Pad1)*%
%TA.AperFunction,SMDPad,CuDef*%
G36*
G01*
X264435000Y-88601000D02*
X263885000Y-88601000D01*
G75*
G02*
X263685000Y-88401000I0J200000D01*
G01*
X263685000Y-88001000D01*
G75*
G02*
X263885000Y-87801000I200000J0D01*
G01*
X264435000Y-87801000D01*
G75*
G02*
X264635000Y-88001000I0J-200000D01*
G01*
X264635000Y-88401000D01*
G75*
G02*
X264435000Y-88601000I-200000J0D01*
G01*
G37*
%TD.AperFunction*%
%TO.P,U15,2*%
%TO.N,GND*%
%TA.AperFunction,SMDPad,CuDef*%
G36*
G01*
X264435000Y-86951000D02*
X263885000Y-86951000D01*
G75*
G02*
X263685000Y-86751000I0J200000D01*
G01*
X263685000Y-86351000D01*
G75*
G02*
X263885000Y-86151000I200000J0D01*
G01*
X264435000Y-86151000D01*
G75*
G02*
X264635000Y-86351000I0J-200000D01*
G01*
X264635000Y-86751000D01*
G75*
G02*
X264435000Y-86951000I-200000J0D01*
G01*
G37*
%TD.AperFunction*%
%TD*%
%TO.P,U13,1*%
%TO.N,Net-(U13-Pad1)*%
%TA.AperFunction,SMDPad,CuDef*%
G36*
G01*
X261895000Y-88601000D02*
X261345000Y-88601000D01*
G75*
G02*
X261145000Y-88401000I0J200000D01*
G01*
X261145000Y-88001000D01*
G75*
G02*
X261345000Y-87801000I200000J0D01*
G01*
X261895000Y-87801000D01*
G75*
G02*
X262095000Y-88001000I0J-200000D01*
G01*
X262095000Y-88401000D01*
G75*
G02*
X261895000Y-88601000I-200000J0D01*
G01*
G37*
%TD.AperFunction*%
%TO.P,U13,2*%
%TO.N,GND*%
%TA.AperFunction,SMDPad,CuDef*%
G36*
G01*
X261895000Y-86951000D02*
X261345000Y-86951000D01*
G75*
G02*
X261145000Y-86751000I0J200000D01*
G01*
X261145000Y-86351000D01*
G75*
G02*
X261345000Y-86151000I200000J0D01*
G01*
X261895000Y-86151000D01*
G75*
G02*
X262095000Y-86351000I0J-200000D01*
G01*
X262095000Y-86751000D01*
G75*
G02*
X261895000Y-86951000I-200000J0D01*
G01*
G37*
%TD.AperFunction*%
%TD*%
%TO.P,U11,1*%
%TO.N,Net-(U11-Pad1)*%
%TA.AperFunction,SMDPad,CuDef*%
G36*
G01*
X259355000Y-88601000D02*
X258805000Y-88601000D01*
G75*
G02*
X258605000Y-88401000I0J200000D01*
G01*
X258605000Y-88001000D01*
G75*
G02*
X258805000Y-87801000I200000J0D01*
G01*
X259355000Y-87801000D01*
G75*
G02*
X259555000Y-88001000I0J-200000D01*
G01*
X259555000Y-88401000D01*
G75*
G02*
X259355000Y-88601000I-200000J0D01*
G01*
G37*
%TD.AperFunction*%
%TO.P,U11,2*%
%TO.N,GND*%
%TA.AperFunction,SMDPad,CuDef*%
G36*
G01*
X259355000Y-86951000D02*
X258805000Y-86951000D01*
G75*
G02*
X258605000Y-86751000I0J200000D01*
G01*
X258605000Y-86351000D01*
G75*
G02*
X258805000Y-86151000I200000J0D01*
G01*
X259355000Y-86151000D01*
G75*
G02*
X259555000Y-86351000I0J-200000D01*
G01*
X259555000Y-86751000D01*
G75*
G02*
X259355000Y-86951000I-200000J0D01*
G01*
G37*
%TD.AperFunction*%
%TD*%
%TO.P,U9,1*%
%TO.N,Net-(U14-Pad1)*%
%TA.AperFunction,SMDPad,CuDef*%
G36*
G01*
X256815000Y-88601000D02*
X256265000Y-88601000D01*
G75*
G02*
X256065000Y-88401000I0J200000D01*
G01*
X256065000Y-88001000D01*
G75*
G02*
X256265000Y-87801000I200000J0D01*
G01*
X256815000Y-87801000D01*
G75*
G02*
X257015000Y-88001000I0J-200000D01*
G01*
X257015000Y-88401000D01*
G75*
G02*
X256815000Y-88601000I-200000J0D01*
G01*
G37*
%TD.AperFunction*%
%TO.P,U9,2*%
%TO.N,GND*%
%TA.AperFunction,SMDPad,CuDef*%
G36*
G01*
X256815000Y-86951000D02*
X256265000Y-86951000D01*
G75*
G02*
X256065000Y-86751000I0J200000D01*
G01*
X256065000Y-86351000D01*
G75*
G02*
X256265000Y-86151000I200000J0D01*
G01*
X256815000Y-86151000D01*
G75*
G02*
X257015000Y-86351000I0J-200000D01*
G01*
X257015000Y-86751000D01*
G75*
G02*
X256815000Y-86951000I-200000J0D01*
G01*
G37*
%TD.AperFunction*%
%TD*%
%TO.P,U7,1*%
%TO.N,Net-(U10-Pad1)*%
%TA.AperFunction,SMDPad,CuDef*%
G36*
G01*
X254275000Y-88601000D02*
X253725000Y-88601000D01*
G75*
G02*
X253525000Y-88401000I0J200000D01*
G01*
X253525000Y-88001000D01*
G75*
G02*
X253725000Y-87801000I200000J0D01*
G01*
X254275000Y-87801000D01*
G75*
G02*
X254475000Y-88001000I0J-200000D01*
G01*
X254475000Y-88401000D01*
G75*
G02*
X254275000Y-88601000I-200000J0D01*
G01*
G37*
%TD.AperFunction*%
%TO.P,U7,2*%
%TO.N,GND*%
%TA.AperFunction,SMDPad,CuDef*%
G36*
G01*
X254275000Y-86951000D02*
X253725000Y-86951000D01*
G75*
G02*
X253525000Y-86751000I0J200000D01*
G01*
X253525000Y-86351000D01*
G75*
G02*
X253725000Y-86151000I200000J0D01*
G01*
X254275000Y-86151000D01*
G75*
G02*
X254475000Y-86351000I0J-200000D01*
G01*
X254475000Y-86751000D01*
G75*
G02*
X254275000Y-86951000I-200000J0D01*
G01*
G37*
%TD.AperFunction*%
%TD*%
%TO.P,U5,1*%
%TO.N,Net-(U5-Pad1)*%
%TA.AperFunction,SMDPad,CuDef*%
G36*
G01*
X251735000Y-88601000D02*
X251185000Y-88601000D01*
G75*
G02*
X250985000Y-88401000I0J200000D01*
G01*
X250985000Y-88001000D01*
G75*
G02*
X251185000Y-87801000I200000J0D01*
G01*
X251735000Y-87801000D01*
G75*
G02*
X251935000Y-88001000I0J-200000D01*
G01*
X251935000Y-88401000D01*
G75*
G02*
X251735000Y-88601000I-200000J0D01*
G01*
G37*
%TD.AperFunction*%
%TO.P,U5,2*%
%TO.N,GND*%
%TA.AperFunction,SMDPad,CuDef*%
G36*
G01*
X251735000Y-86951000D02*
X251185000Y-86951000D01*
G75*
G02*
X250985000Y-86751000I0J200000D01*
G01*
X250985000Y-86351000D01*
G75*
G02*
X251185000Y-86151000I200000J0D01*
G01*
X251735000Y-86151000D01*
G75*
G02*
X251935000Y-86351000I0J-200000D01*
G01*
X251935000Y-86751000D01*
G75*
G02*
X251735000Y-86951000I-200000J0D01*
G01*
G37*
%TD.AperFunction*%
%TD*%
%TO.P,U3,1*%
%TO.N,Net-(U2-Pad1)*%
%TA.AperFunction,SMDPad,CuDef*%
G36*
G01*
X249195000Y-88601000D02*
X248645000Y-88601000D01*
G75*
G02*
X248445000Y-88401000I0J200000D01*
G01*
X248445000Y-88001000D01*
G75*
G02*
X248645000Y-87801000I200000J0D01*
G01*
X249195000Y-87801000D01*
G75*
G02*
X249395000Y-88001000I0J-200000D01*
G01*
X249395000Y-88401000D01*
G75*
G02*
X249195000Y-88601000I-200000J0D01*
G01*
G37*
%TD.AperFunction*%
%TO.P,U3,2*%
%TO.N,GND*%
%TA.AperFunction,SMDPad,CuDef*%
G36*
G01*
X249195000Y-86951000D02*
X248645000Y-86951000D01*
G75*
G02*
X248445000Y-86751000I0J200000D01*
G01*
X248445000Y-86351000D01*
G75*
G02*
X248645000Y-86151000I200000J0D01*
G01*
X249195000Y-86151000D01*
G75*
G02*
X249395000Y-86351000I0J-200000D01*
G01*
X249395000Y-86751000D01*
G75*
G02*
X249195000Y-86951000I-200000J0D01*
G01*
G37*
%TD.AperFunction*%
%TD*%
D12*
%TO.N,GND*%
X272288000Y-82804000D03*
X265367000Y-82867000D03*
X272297944Y-86604056D03*
X265239000Y-86551000D03*
X233934000Y-75184000D03*
X234412262Y-86492206D03*
X247142000Y-81788000D03*
X227647000Y-94933000D03*
X243586000Y-74930000D03*
%TO.N,VCC*%
X235712000Y-74930000D03*
X234696000Y-89408000D03*
X236982000Y-94996000D03*
X231902000Y-94996000D03*
X225552000Y-99060000D03*
%TO.N,/IO15*%
X248605521Y-92149926D03*
X231328268Y-84389990D03*
%TO.N,/IO14*%
X251390857Y-92149926D03*
X232161761Y-83811438D03*
%TO.N,/IO13*%
X254000000Y-92269923D03*
X233214750Y-84281386D03*
%TO.N,/IO12*%
X233934000Y-83566000D03*
X256497864Y-92269923D03*
%TO.N,/IO11*%
X236220000Y-83820000D03*
X259093226Y-92149926D03*
%TO.N,/IO10*%
X236982000Y-82804000D03*
X261605294Y-92269923D03*
%TO.N,/IO9*%
X237744000Y-82042000D03*
X264165236Y-92685929D03*
%TO.N,/IO8*%
X266700000Y-92710000D03*
X238760000Y-82296000D03*
%TO.N,/IO7*%
X238982026Y-86614000D03*
X240060225Y-93315039D03*
%TO.N,/IO6*%
X237982013Y-86614000D03*
X240824768Y-94111867D03*
%TO.N,/IO5*%
X236727986Y-86614000D03*
X240027164Y-94715050D03*
%TO.N,/IO4*%
X235458000Y-86614000D03*
X239775867Y-95682973D03*
%TO.N,/IO3*%
X239777652Y-96682983D03*
X233372292Y-86715588D03*
%TO.N,/IO2*%
X239759497Y-97682830D03*
X232372673Y-86687550D03*
%TO.N,/IO1*%
X239911693Y-98671192D03*
X231607245Y-86044010D03*
%TO.N,/IO0*%
X239202268Y-99375990D03*
X230691284Y-86445308D03*
%TO.N,~LB*%
X231140000Y-75184000D03*
X227838000Y-74676000D03*
%TO.N,/A15*%
X248920000Y-76454000D03*
X242824004Y-81280000D03*
X228150000Y-80206000D03*
%TO.N,/A14*%
X251370102Y-76563929D03*
%TO.N,/A13*%
X254000000Y-76454000D03*
%TO.N,/A12*%
X256443297Y-76628466D03*
%TO.N,/A11*%
X259080000Y-76454000D03*
%TO.N,/A10*%
X261608970Y-76538021D03*
%TO.N,/A09*%
X264160000Y-76454000D03*
X245110000Y-78486000D03*
X245110000Y-82042000D03*
%TO.N,/A08*%
X266686000Y-76468000D03*
X244348000Y-77724000D03*
X244094000Y-82042000D03*
%TO.N,/A07*%
X271018000Y-76454000D03*
%TO.N,/A06*%
X273558000Y-76454000D03*
X245615328Y-89793957D03*
X240994349Y-90193968D03*
%TO.N,/A05*%
X276072500Y-76479500D03*
X240095952Y-89754776D03*
X244351261Y-89782445D03*
%TO.N,/A04*%
X278638000Y-76454000D03*
X274896254Y-83904010D03*
%TO.N,/A03*%
X281178000Y-76454000D03*
X278358619Y-84148631D03*
%TO.N,/A02*%
X283718000Y-76454000D03*
X281247537Y-84504486D03*
%TO.N,/A01*%
X286258000Y-76454000D03*
X284226000Y-84836000D03*
%TO.N,/A00*%
X288798000Y-76454000D03*
X286512000Y-85344000D03*
%TO.N,CP*%
X228854000Y-92456000D03*
X224536000Y-80264000D03*
%TO.N,WE*%
X230316010Y-96012000D03*
X226568000Y-83312000D03*
%TO.N,Net-(J2-Pad18)*%
X226568000Y-75184000D03*
%TO.N,Net-(J2-Pad17)*%
X226541755Y-78478122D03*
%TO.N,Net-(U67-Pad17)*%
X240241076Y-86694342D03*
X233426000Y-99375990D03*
%TD*%
D13*
%TO.N,GND*%
X248920000Y-82867000D02*
X265367000Y-82867000D01*
X271081000Y-82804000D02*
X272288000Y-82804000D01*
X271018000Y-82867000D02*
X271081000Y-82804000D01*
X288323000Y-82804000D02*
X288798000Y-82804000D01*
X271018000Y-86551000D02*
X271071056Y-86604056D01*
X271071056Y-86604056D02*
X272297944Y-86604056D01*
X288744944Y-86604056D02*
X288798000Y-86551000D01*
X248920000Y-86551000D02*
X265239000Y-86551000D01*
X272288000Y-82804000D02*
X288323000Y-82804000D01*
X265367000Y-82867000D02*
X266700000Y-82867000D01*
X272297944Y-86604056D02*
X288744944Y-86604056D01*
X265239000Y-86551000D02*
X266700000Y-86551000D01*
D14*
X227330000Y-71756000D02*
X230378000Y-71756000D01*
D15*
X234550000Y-76962500D02*
X234550000Y-75800000D01*
X234550000Y-75800000D02*
X233934000Y-75184000D01*
X235350000Y-88137500D02*
X235350000Y-87522000D01*
X235350000Y-87522000D02*
X234412262Y-86584262D01*
X234412262Y-86584262D02*
X234412262Y-86492206D01*
X248920000Y-82867000D02*
X248221000Y-82867000D01*
X248221000Y-82867000D02*
X247142000Y-81788000D01*
X233934000Y-74142000D02*
X234162000Y-73914000D01*
X233934000Y-75184000D02*
X233934000Y-74142000D01*
X227647000Y-92931000D02*
X227647000Y-92456000D01*
D14*
X227647000Y-96625000D02*
X227244000Y-97028000D01*
X227647000Y-92456000D02*
X227647000Y-94933000D01*
D15*
X230292000Y-100076000D02*
X227244000Y-97028000D01*
X237384000Y-100076000D02*
X230292000Y-100076000D01*
X238506000Y-98954000D02*
X237384000Y-100076000D01*
X238506000Y-97979000D02*
X238506000Y-98954000D01*
D14*
X227647000Y-94933000D02*
X227647000Y-96625000D01*
X227330000Y-71756000D02*
X225717999Y-73368001D01*
X225717999Y-73368001D02*
X225717999Y-75780001D01*
X225717999Y-75780001D02*
X225044000Y-76454000D01*
X225044000Y-76454000D02*
X222758000Y-76454000D01*
D15*
%TO.N,VCC*%
X235350000Y-76962500D02*
X235350000Y-75292000D01*
X235350000Y-75292000D02*
X235712000Y-74930000D01*
X234550000Y-88137500D02*
X234550000Y-89262000D01*
X234550000Y-89262000D02*
X234696000Y-89408000D01*
X230886000Y-94004000D02*
X230886000Y-93029000D01*
X231878000Y-94996000D02*
X230886000Y-94004000D01*
X236982000Y-94996000D02*
X231902000Y-94996000D01*
X231902000Y-94996000D02*
X231878000Y-94996000D01*
X235712000Y-73914000D02*
X235712000Y-74930000D01*
X224876000Y-99060000D02*
X222844000Y-97028000D01*
X225552000Y-99060000D02*
X224876000Y-99060000D01*
X220726000Y-94910000D02*
X222844000Y-97028000D01*
X220726000Y-75504000D02*
X220726000Y-94910000D01*
X222320000Y-73910000D02*
X220726000Y-75504000D01*
D13*
%TO.N,Net-(U2-Pad1)*%
X248920000Y-88201000D02*
X248920000Y-89890500D01*
%TO.N,Net-(U10-Pad1)*%
X254000000Y-88201000D02*
X254000000Y-89890500D01*
%TO.N,Net-(U12-Pad1)*%
X254000000Y-79273500D02*
X254000000Y-81217000D01*
%TO.N,Net-(U14-Pad1)*%
X256540000Y-89890500D02*
X256540000Y-88201000D01*
%TO.N,Net-(U16-Pad1)*%
X256540000Y-81154000D02*
X256540000Y-79273500D01*
%TO.N,Net-(U20-Pad1)*%
X259080000Y-79273500D02*
X259080000Y-81217000D01*
%TO.N,Net-(U24-Pad1)*%
X261620000Y-81217000D02*
X261620000Y-79273500D01*
%TO.N,Net-(U28-Pad1)*%
X264160000Y-79299000D02*
X264160000Y-81217000D01*
%TO.N,Net-(U32-Pad1)*%
X266700000Y-79287500D02*
X266686000Y-79273500D01*
X266700000Y-81217000D02*
X266700000Y-79287500D01*
D15*
%TO.N,/IO15*%
X248920000Y-91835447D02*
X248605521Y-92149926D01*
X248920000Y-91465500D02*
X248920000Y-91835447D01*
X231350000Y-84368258D02*
X231328268Y-84389990D01*
X231350000Y-76962500D02*
X231350000Y-84368258D01*
%TO.N,/IO14*%
X251460000Y-91465500D02*
X251460000Y-92080783D01*
X251460000Y-92080783D02*
X251390857Y-92149926D01*
X232150000Y-76962500D02*
X232150000Y-83799677D01*
X232150000Y-83799677D02*
X232161761Y-83811438D01*
%TO.N,/IO13*%
X254000000Y-91465500D02*
X254000000Y-92269923D01*
X232950000Y-76962500D02*
X232950000Y-84016636D01*
X232950000Y-84016636D02*
X233214750Y-84281386D01*
%TO.N,/IO12*%
X233934000Y-83566000D02*
X233934000Y-82550000D01*
X233750000Y-82366000D02*
X233750000Y-76962500D01*
X233934000Y-82550000D02*
X233750000Y-82366000D01*
X256540000Y-92227787D02*
X256497864Y-92269923D01*
X256540000Y-91465500D02*
X256540000Y-92227787D01*
%TO.N,/IO11*%
X236220000Y-77032500D02*
X236150000Y-76962500D01*
X236220000Y-83820000D02*
X236220000Y-77032500D01*
X259080000Y-91465500D02*
X259080000Y-92136700D01*
X259080000Y-92136700D02*
X259093226Y-92149926D01*
%TO.N,/IO10*%
X236982000Y-76994500D02*
X236950000Y-76962500D01*
X236982000Y-82804000D02*
X236982000Y-76994500D01*
X261620000Y-91465500D02*
X261620000Y-92255217D01*
X261620000Y-92255217D02*
X261605294Y-92269923D01*
%TO.N,/IO9*%
X237744000Y-76968500D02*
X237750000Y-76962500D01*
X237744000Y-82042000D02*
X237744000Y-76968500D01*
X264160000Y-92680693D02*
X264165236Y-92685929D01*
X264160000Y-91465500D02*
X264160000Y-92680693D01*
%TO.N,/IO8*%
X266700000Y-91465500D02*
X266700000Y-92710000D01*
X238760000Y-82296000D02*
X238760000Y-81280000D01*
X238550000Y-81070000D02*
X238550000Y-76962500D01*
X238760000Y-81280000D02*
X238550000Y-81070000D01*
%TO.N,/IO7*%
X271018000Y-95758000D02*
X270256000Y-96520000D01*
X271018000Y-91465500D02*
X271018000Y-95758000D01*
X238550000Y-88137500D02*
X238550000Y-87046026D01*
X238550000Y-87046026D02*
X238982026Y-86614000D01*
X261710768Y-94169966D02*
X261310757Y-93769955D01*
X251106758Y-93649958D02*
X246999060Y-93649958D01*
X264073069Y-94557967D02*
X263685068Y-94169966D01*
X246664141Y-93315039D02*
X240060225Y-93315039D01*
X263685068Y-94169966D02*
X261710768Y-94169966D01*
X261310757Y-93769955D02*
X251226755Y-93769955D01*
X268293967Y-94557967D02*
X264073069Y-94557967D01*
X270256000Y-96520000D02*
X268293967Y-94557967D01*
X251226755Y-93769955D02*
X251106758Y-93649958D01*
X246999060Y-93649958D02*
X246664141Y-93315039D01*
%TO.N,/IO6*%
X273558000Y-95758000D02*
X272796000Y-96520000D01*
X273558000Y-91465500D02*
X273558000Y-95758000D01*
X237750000Y-86846013D02*
X237982013Y-86614000D01*
X237750000Y-88137500D02*
X237750000Y-86846013D01*
X267855980Y-94957978D02*
X263907380Y-94957978D01*
X251061066Y-94169966D02*
X250941069Y-94049969D01*
X269703999Y-97670001D02*
X268866001Y-96832003D01*
X261545079Y-94569977D02*
X261145068Y-94169966D01*
X268866001Y-96832003D02*
X268866001Y-95967999D01*
X271645999Y-97670001D02*
X269703999Y-97670001D01*
X263519379Y-94569977D02*
X261545079Y-94569977D01*
X272796000Y-96520000D02*
X271645999Y-97670001D01*
X268866001Y-95967999D02*
X267855980Y-94957978D01*
X263907380Y-94957978D02*
X263519379Y-94569977D01*
X250941069Y-94049969D02*
X240886666Y-94049969D01*
X261145068Y-94169966D02*
X251061066Y-94169966D01*
X240886666Y-94049969D02*
X240824768Y-94111867D01*
%TO.N,/IO5*%
X276098000Y-95758000D02*
X275336000Y-96520000D01*
X276098000Y-91465500D02*
X276098000Y-95758000D01*
X236950000Y-88137500D02*
X236950000Y-86836014D01*
X236950000Y-86836014D02*
X236727986Y-86614000D01*
X267564010Y-98070012D02*
X266446000Y-96952002D01*
X265715991Y-95357989D02*
X263741691Y-95357989D01*
X261379390Y-94969988D02*
X260979379Y-94569977D01*
X241476622Y-94449978D02*
X240811551Y-95115049D01*
X266446000Y-96952002D02*
X266446000Y-96087998D01*
X263741691Y-95357989D02*
X263353690Y-94969988D01*
X240427163Y-95115049D02*
X240027164Y-94715050D01*
X240811551Y-95115049D02*
X240427163Y-95115049D01*
X273785988Y-98070012D02*
X267564010Y-98070012D01*
X263353690Y-94969988D02*
X261379390Y-94969988D01*
X250775378Y-94449978D02*
X241476622Y-94449978D01*
X250895377Y-94569977D02*
X250775378Y-94449978D01*
X260979379Y-94569977D02*
X250895377Y-94569977D01*
X275336000Y-96520000D02*
X273785988Y-98070012D01*
X266446000Y-96087998D02*
X265715991Y-95357989D01*
%TO.N,/IO4*%
X278638000Y-95758000D02*
X277876000Y-96520000D01*
X278638000Y-91465500D02*
X278638000Y-95758000D01*
X236150000Y-87306000D02*
X236150000Y-88137500D01*
X235458000Y-86614000D02*
X236150000Y-87306000D01*
X277876000Y-96520000D02*
X275925977Y-98470023D01*
X265348023Y-98470023D02*
X263906000Y-97028000D01*
X248831689Y-94849989D02*
X241642311Y-94849989D01*
X275925977Y-98470023D02*
X265348023Y-98470023D01*
X263906000Y-97028000D02*
X263906000Y-96087998D01*
X263906000Y-96087998D02*
X263188001Y-95369999D01*
X263188001Y-95369999D02*
X261213701Y-95369999D01*
X260813690Y-94969988D02*
X248951688Y-94969988D01*
X248951688Y-94969988D02*
X248831689Y-94849989D01*
X240809327Y-95682973D02*
X239775867Y-95682973D01*
X261213701Y-95369999D02*
X260813690Y-94969988D01*
X241642311Y-94849989D02*
X240809327Y-95682973D01*
%TO.N,/IO3*%
X281178000Y-95758000D02*
X280416000Y-96520000D01*
X281178000Y-91465500D02*
X281178000Y-95758000D01*
X248666000Y-95250000D02*
X241865685Y-95250000D01*
X280416000Y-96520000D02*
X278065966Y-98870034D01*
X278065966Y-98870034D02*
X263284032Y-98870034D01*
X248785999Y-95369999D02*
X248666000Y-95250000D01*
X263284032Y-98870034D02*
X261366000Y-96952002D01*
X261366000Y-96952002D02*
X261366000Y-96087998D01*
X240432702Y-96682983D02*
X239777652Y-96682983D01*
X261366000Y-96087998D02*
X260648001Y-95369999D01*
X260648001Y-95369999D02*
X248785999Y-95369999D01*
X241865685Y-95250000D02*
X240432702Y-96682983D01*
X233750000Y-87093296D02*
X233372292Y-86715588D01*
X233750000Y-88137500D02*
X233750000Y-87093296D01*
%TO.N,/IO2*%
X283718000Y-95758000D02*
X282956000Y-96520000D01*
X283718000Y-91465500D02*
X283718000Y-95758000D01*
X240325182Y-97682830D02*
X239759497Y-97682830D01*
X282956000Y-96520000D02*
X280205955Y-99270045D01*
X280205955Y-99270045D02*
X241912397Y-99270045D01*
X241912397Y-99270045D02*
X240325182Y-97682830D01*
X232950000Y-88137500D02*
X232950000Y-87370077D01*
X232372673Y-86792750D02*
X232372673Y-86687550D01*
X232950000Y-87370077D02*
X232372673Y-86792750D01*
%TO.N,/IO1*%
X286258000Y-95758000D02*
X285496000Y-96520000D01*
X286258000Y-91465500D02*
X286258000Y-95758000D01*
X285496000Y-96520000D02*
X282345944Y-99670056D01*
X240910557Y-99670056D02*
X239911693Y-98671192D01*
X282345944Y-99670056D02*
X240910557Y-99670056D01*
X231607245Y-86964572D02*
X231607245Y-86044010D01*
X232150000Y-88137500D02*
X232150000Y-87507327D01*
X232150000Y-87507327D02*
X231607245Y-86964572D01*
%TO.N,/IO0*%
X288798000Y-95758000D02*
X288036000Y-96520000D01*
X288798000Y-91465500D02*
X288798000Y-95758000D01*
X288036000Y-96520000D02*
X284452109Y-100103891D01*
X239930169Y-100103891D02*
X239202268Y-99375990D01*
X284452109Y-100103891D02*
X239930169Y-100103891D01*
X230691284Y-86716284D02*
X230691284Y-86445308D01*
X231350000Y-88137500D02*
X231350000Y-87375000D01*
X231350000Y-87375000D02*
X230691284Y-86716284D01*
%TO.N,~OE*%
X228950000Y-82142300D02*
X228950000Y-76962500D01*
X227018300Y-84074000D02*
X228950000Y-82142300D01*
X222758000Y-84074000D02*
X227018300Y-84074000D01*
X228854000Y-76866500D02*
X228950000Y-76962500D01*
X228854000Y-73406000D02*
X228854000Y-76866500D01*
%TO.N,~LB*%
X230378000Y-76790500D02*
X230550000Y-76962500D01*
X230550000Y-75774000D02*
X231140000Y-75184000D01*
X230550000Y-76962500D02*
X230550000Y-75774000D01*
X230550000Y-82181700D02*
X224427699Y-88304001D01*
X224427699Y-88304001D02*
X223607999Y-88304001D01*
X230550000Y-76962500D02*
X230550000Y-82181700D01*
X223607999Y-88304001D02*
X222758000Y-89154000D01*
X227330000Y-73406000D02*
X227330000Y-74168000D01*
X227330000Y-74168000D02*
X227838000Y-74676000D01*
%TO.N,~CE*%
X223520000Y-92456000D02*
X222913849Y-91849849D01*
X225997000Y-92456000D02*
X223520000Y-92456000D01*
X229535000Y-86360000D02*
X230550000Y-87375000D01*
X225806000Y-92647000D02*
X225806000Y-87491400D01*
X225806000Y-87491400D02*
X226937400Y-86360000D01*
X226937400Y-86360000D02*
X229535000Y-86360000D01*
X230550000Y-87375000D02*
X230550000Y-88137500D01*
D16*
X222155849Y-91849849D02*
X221996000Y-91690000D01*
X222913849Y-91849849D02*
X222155849Y-91849849D01*
D15*
%TO.N,/A15*%
X228150000Y-77725000D02*
X228150000Y-76962500D01*
X248920000Y-77698500D02*
X248920000Y-76454000D01*
X248088033Y-78530467D02*
X248088033Y-79372471D01*
X248088033Y-79372471D02*
X246180504Y-81280000D01*
X246180504Y-81280000D02*
X242824004Y-81280000D01*
X248920000Y-77698500D02*
X248088033Y-78530467D01*
X228150000Y-76962500D02*
X228150000Y-80206000D01*
%TO.N,/A14*%
X251460000Y-77698500D02*
X251434500Y-77698500D01*
X251460000Y-77698500D02*
X251460000Y-76653827D01*
X251460000Y-76653827D02*
X251370102Y-76563929D01*
X240150000Y-77725000D02*
X242242998Y-79817998D01*
X246108758Y-80786046D02*
X247688022Y-79206782D01*
X242242998Y-79817998D02*
X242906002Y-79817998D01*
X247688022Y-79206782D02*
X247688022Y-77544180D01*
X249515498Y-75753998D02*
X251460000Y-77698500D01*
X247956067Y-77276135D02*
X247956067Y-76381929D01*
X247956067Y-76381929D02*
X248583998Y-75753998D01*
X242906002Y-79817998D02*
X243874050Y-80786046D01*
X248583998Y-75753998D02*
X249515498Y-75753998D01*
X240150000Y-76962500D02*
X240150000Y-77725000D01*
X247688022Y-77544180D02*
X247956067Y-77276135D01*
X243874050Y-80786046D02*
X246108758Y-80786046D01*
%TO.N,/A13*%
X254000000Y-77698500D02*
X254000000Y-76454000D01*
X247556056Y-76097644D02*
X247556056Y-77110446D01*
X247288011Y-79041093D02*
X245943069Y-80386035D01*
X245943069Y-80386035D02*
X244039739Y-80386035D01*
X247288011Y-77378491D02*
X247288011Y-79041093D01*
X254000000Y-77698500D02*
X252323544Y-76022044D01*
X252323544Y-76022044D02*
X251813244Y-76022044D01*
X247556056Y-77110446D02*
X247288011Y-77378491D01*
X243071691Y-79417987D02*
X242642987Y-79417987D01*
X251813244Y-76022044D02*
X251145187Y-75353987D01*
X244039739Y-80386035D02*
X243071691Y-79417987D01*
X242642987Y-79417987D02*
X240950000Y-77725000D01*
X251145187Y-75353987D02*
X248299713Y-75353987D01*
X248299713Y-75353987D02*
X247556056Y-76097644D01*
X240950000Y-77725000D02*
X240950000Y-76962500D01*
%TO.N,/A12*%
X256540000Y-76725169D02*
X256443297Y-76628466D01*
X256540000Y-77698500D02*
X256540000Y-76725169D01*
X242983380Y-79017976D02*
X243237380Y-79017976D01*
X247156045Y-76944757D02*
X247156045Y-75931955D01*
X247156045Y-75931955D02*
X248134024Y-74953976D01*
X245777380Y-79986024D02*
X246888000Y-78875404D01*
X254463533Y-75622033D02*
X256540000Y-77698500D01*
X251978933Y-75622033D02*
X254463533Y-75622033D01*
X251310876Y-74953976D02*
X251978933Y-75622033D01*
X244205428Y-79986024D02*
X245777380Y-79986024D01*
X248134024Y-74953976D02*
X251310876Y-74953976D01*
X241750000Y-76962500D02*
X241750000Y-77784596D01*
X243237380Y-79017976D02*
X244205428Y-79986024D01*
X241750000Y-77784596D02*
X242983380Y-79017976D01*
X246888000Y-78875404D02*
X246888000Y-77212802D01*
X246888000Y-77212802D02*
X247156045Y-76944757D01*
%TO.N,/A11*%
X259080000Y-77698500D02*
X259080000Y-76454000D01*
X246418022Y-77117080D02*
X246418022Y-78779682D01*
X242550000Y-77725000D02*
X242550000Y-76962500D01*
X246756034Y-75743066D02*
X246756034Y-76779068D01*
X247945135Y-74553965D02*
X246756034Y-75743066D01*
X252144622Y-75222022D02*
X251476565Y-74553965D01*
X256128522Y-75222022D02*
X252144622Y-75222022D01*
X245611691Y-79586013D02*
X244411013Y-79586013D01*
X258605000Y-77698500D02*
X256128522Y-75222022D01*
X246756034Y-76779068D02*
X246418022Y-77117080D01*
X244411013Y-79586013D02*
X242550000Y-77725000D01*
X251476565Y-74553965D02*
X247945135Y-74553965D01*
X259080000Y-77698500D02*
X258605000Y-77698500D01*
X246418022Y-78779682D02*
X245611691Y-79586013D01*
%TO.N,/A10*%
X261620000Y-76549051D02*
X261608970Y-76538021D01*
X261620000Y-77698500D02*
X261620000Y-76549051D01*
X244811002Y-79186002D02*
X243350000Y-77725000D01*
X256316611Y-74822011D02*
X252310311Y-74822011D01*
X246018011Y-76951391D02*
X246018011Y-78613993D01*
X261620000Y-77698500D02*
X259651522Y-75730022D01*
X259651522Y-75730022D02*
X257224622Y-75730022D01*
X246356023Y-76613379D02*
X246018011Y-76951391D01*
X246356023Y-75577377D02*
X246356023Y-76613379D01*
X252310311Y-74822011D02*
X251642254Y-74153954D01*
X246018011Y-78613993D02*
X245446002Y-79186002D01*
X245446002Y-79186002D02*
X244811002Y-79186002D01*
X251642254Y-74153954D02*
X247779446Y-74153954D01*
X257224622Y-75730022D02*
X256316611Y-74822011D01*
X243350000Y-77725000D02*
X243350000Y-76962500D01*
X247779446Y-74153954D02*
X246356023Y-75577377D01*
%TO.N,/A09*%
X264160000Y-77724000D02*
X264160000Y-76454000D01*
X243350000Y-88137500D02*
X243350000Y-83802000D01*
X243350000Y-83802000D02*
X245110000Y-82042000D01*
X252476000Y-74422000D02*
X251807943Y-73753943D01*
X245956012Y-75411688D02*
X245956012Y-76447690D01*
X262274011Y-75838011D02*
X260946311Y-75838011D01*
X264160000Y-77724000D02*
X262274011Y-75838011D01*
X256482300Y-74422000D02*
X252476000Y-74422000D01*
X260438311Y-75330011D02*
X257390311Y-75330011D01*
X251807943Y-73753943D02*
X247613757Y-73753943D01*
X247613757Y-73753943D02*
X245956012Y-75411688D01*
X260946311Y-75838011D02*
X260438311Y-75330011D01*
X245110000Y-77293702D02*
X245110000Y-78486000D01*
X245956012Y-76447690D02*
X245110000Y-77293702D01*
X257390311Y-75330011D02*
X256482300Y-74422000D01*
%TO.N,/A08*%
X266686000Y-77698500D02*
X266686000Y-76468000D01*
X242550000Y-83586000D02*
X242550000Y-88137500D01*
X244094000Y-82042000D02*
X242550000Y-83586000D01*
X266686000Y-77698500D02*
X266686000Y-77261000D01*
X266686000Y-77261000D02*
X264863000Y-75438000D01*
X247448068Y-73353932D02*
X245556001Y-75245999D01*
X261112000Y-75438000D02*
X260604000Y-74930000D01*
X256540000Y-73914000D02*
X252730000Y-73914000D01*
X244348000Y-77490002D02*
X244348000Y-77724000D01*
X245556001Y-75245999D02*
X245556001Y-76282001D01*
X252169932Y-73353932D02*
X247448068Y-73353932D01*
X260604000Y-74930000D02*
X257556000Y-74930000D01*
X264863000Y-75438000D02*
X261112000Y-75438000D01*
X245556001Y-76282001D02*
X244348000Y-77490002D01*
X252730000Y-73914000D02*
X252169932Y-73353932D01*
X257556000Y-74930000D02*
X256540000Y-73914000D01*
%TO.N,/A07*%
X271018000Y-77698500D02*
X271018000Y-76454000D01*
X246341978Y-90288922D02*
X246136933Y-90493967D01*
X246341978Y-85970922D02*
X246341978Y-90288922D01*
X243343967Y-90493967D02*
X241750000Y-88900000D01*
X247845867Y-84467033D02*
X246341978Y-85970922D01*
X267461537Y-84467033D02*
X247845867Y-84467033D01*
X246136933Y-90493967D02*
X243343967Y-90493967D01*
X271018000Y-77698500D02*
X269532022Y-79184478D01*
X269532022Y-82396548D02*
X267461537Y-84467033D01*
X241750000Y-88900000D02*
X241750000Y-88137500D01*
X269532022Y-79184478D02*
X269532022Y-82396548D01*
%TO.N,/A06*%
X273558000Y-77698500D02*
X273558000Y-76454000D01*
X240950000Y-90149619D02*
X240994349Y-90193968D01*
X240950000Y-88137500D02*
X240950000Y-90149619D01*
X247680178Y-84067022D02*
X245615328Y-86131872D01*
X270313700Y-75692000D02*
X269132011Y-76873689D01*
X269132011Y-82230859D02*
X267295848Y-84067022D01*
X267295848Y-84067022D02*
X247680178Y-84067022D01*
X269132011Y-76873689D02*
X269132011Y-82230859D01*
X271551500Y-75692000D02*
X270313700Y-75692000D01*
X273558000Y-77698500D02*
X271551500Y-75692000D01*
X245615328Y-86131872D02*
X245615328Y-89793957D01*
%TO.N,/A05*%
X276072500Y-77698500D02*
X276072500Y-76479500D01*
X240150000Y-88137500D02*
X240150000Y-89700728D01*
X240150000Y-89700728D02*
X240095952Y-89754776D01*
X267130159Y-83667011D02*
X247514489Y-83667011D01*
X276072500Y-77698500D02*
X273558000Y-75184000D01*
X273558000Y-75184000D02*
X270256000Y-75184000D01*
X268732000Y-82065170D02*
X267130159Y-83667011D01*
X247514489Y-83667011D02*
X244351261Y-86830239D01*
X268732000Y-76708000D02*
X268732000Y-82065170D01*
X270256000Y-75184000D02*
X268732000Y-76708000D01*
X244351261Y-86830239D02*
X244351261Y-89782445D01*
%TO.N,/A04*%
X278638000Y-77698500D02*
X278638000Y-76454000D01*
X268590260Y-83904010D02*
X274896254Y-83904010D01*
X240245190Y-90893978D02*
X246302622Y-90893978D01*
X239494447Y-90143235D02*
X240245190Y-90893978D01*
X248011556Y-84867044D02*
X267627226Y-84867044D01*
X267627226Y-84867044D02*
X268590260Y-83904010D01*
X230435956Y-89585956D02*
X233837952Y-89585956D01*
X234395231Y-90143235D02*
X239494447Y-90143235D01*
X246741989Y-86136611D02*
X248011556Y-84867044D01*
X246302622Y-90893978D02*
X246741989Y-90454611D01*
X233837952Y-89585956D02*
X234395231Y-90143235D01*
X246741989Y-90454611D02*
X246741989Y-86136611D01*
X229750000Y-88900000D02*
X230435956Y-89585956D01*
X229750000Y-88137500D02*
X229750000Y-88900000D01*
%TO.N,/A03*%
X281178000Y-77698500D02*
X281178000Y-76454000D01*
X274316197Y-84359957D02*
X268780943Y-84359957D01*
X278246588Y-84604012D02*
X274560252Y-84604012D01*
X247142000Y-86302300D02*
X247142000Y-90620300D01*
X247142000Y-90620300D02*
X246468311Y-91293989D01*
X239328758Y-90543246D02*
X234229542Y-90543246D01*
X234229542Y-90543246D02*
X233672263Y-89985967D01*
X230035967Y-89985967D02*
X228950000Y-88900000D01*
X233672263Y-89985967D02*
X230035967Y-89985967D01*
X274560252Y-84604012D02*
X274316197Y-84359957D01*
X267873845Y-85267055D02*
X248177245Y-85267055D01*
X246468311Y-91293989D02*
X240079501Y-91293989D01*
X278376589Y-84474011D02*
X278246588Y-84604012D01*
X240079501Y-91293989D02*
X239328758Y-90543246D01*
X228950000Y-88900000D02*
X228950000Y-88137500D01*
X248177245Y-85267055D02*
X247142000Y-86302300D01*
X268780943Y-84359957D02*
X267873845Y-85267055D01*
%TO.N,/A02*%
X283718000Y-77698500D02*
X283718000Y-76454000D01*
X234063853Y-90943257D02*
X239163069Y-90943257D01*
X228150000Y-88137500D02*
X228150000Y-88900000D01*
X228150000Y-88900000D02*
X229635978Y-90385978D01*
X247650000Y-90678000D02*
X247650000Y-86360000D01*
X280829224Y-85004023D02*
X281082278Y-84750969D01*
X247650000Y-86360000D02*
X248342934Y-85667066D01*
X248342934Y-85667066D02*
X268039534Y-85667066D01*
X268039534Y-85667066D02*
X268755633Y-84950967D01*
X246634000Y-91694000D02*
X247650000Y-90678000D01*
X274341507Y-84950967D02*
X274394563Y-85004023D01*
X268755633Y-84950967D02*
X274341507Y-84950967D01*
X229635978Y-90385978D02*
X233506574Y-90385978D01*
X233506574Y-90385978D02*
X234063853Y-90943257D01*
X239913812Y-91694000D02*
X246634000Y-91694000D01*
X239163069Y-90943257D02*
X239913812Y-91694000D01*
X274394563Y-85004023D02*
X280829224Y-85004023D01*
%TO.N,/A01*%
X286258000Y-77698500D02*
X286258000Y-76454000D01*
X286258000Y-77698500D02*
X285783000Y-77698500D01*
X284118011Y-84943989D02*
X283657966Y-85404034D01*
X274228874Y-85404034D02*
X274175818Y-85350978D01*
X283657966Y-85404034D02*
X274228874Y-85404034D01*
X268224000Y-86048300D02*
X268224000Y-92398300D01*
X264016446Y-93369944D02*
X262042146Y-93369944D01*
X264296458Y-93649956D02*
X264016446Y-93369944D01*
X251558133Y-92969933D02*
X251438136Y-92849936D01*
X251438136Y-92849936D02*
X247847636Y-92849936D01*
X233898164Y-91343268D02*
X233340885Y-90785989D01*
X247847636Y-92849936D02*
X247199700Y-92202000D01*
X247199700Y-92202000D02*
X239856112Y-92202000D01*
X233340885Y-90785989D02*
X229235989Y-90785989D01*
X274175818Y-85350978D02*
X268921322Y-85350978D01*
X239856112Y-92202000D02*
X238997380Y-91343268D01*
X229235989Y-90785989D02*
X227350000Y-88900000D01*
X268224000Y-92398300D02*
X266972344Y-93649956D01*
X262042146Y-93369944D02*
X261642135Y-92969933D01*
X266972344Y-93649956D02*
X264296458Y-93649956D01*
X227350000Y-88900000D02*
X227350000Y-88137500D01*
X268921322Y-85350978D02*
X268224000Y-86048300D01*
X238997380Y-91343268D02*
X233898164Y-91343268D01*
X261642135Y-92969933D02*
X251558133Y-92969933D01*
%TO.N,/A00*%
X288798000Y-77698500D02*
X288798000Y-76454000D01*
X247681947Y-93249947D02*
X251272447Y-93249947D01*
X240468776Y-92687588D02*
X247119588Y-92687588D01*
X269087011Y-85750989D02*
X274010129Y-85750989D01*
X251392444Y-93369944D02*
X261476446Y-93369944D01*
X239703450Y-92615038D02*
X240396226Y-92615038D01*
X261476446Y-93369944D02*
X261876457Y-93769955D01*
X267138033Y-94049967D02*
X268732000Y-92456000D01*
X274063185Y-85804045D02*
X286051955Y-85804045D01*
X268732000Y-86106000D02*
X269087011Y-85750989D01*
X233732475Y-91743279D02*
X238831691Y-91743279D01*
X226550000Y-88137500D02*
X226550000Y-88900000D01*
X226550000Y-88900000D02*
X228836000Y-91186000D01*
X228836000Y-91186000D02*
X233175196Y-91186000D01*
X240396226Y-92615038D02*
X240468776Y-92687588D01*
X264130769Y-94049967D02*
X267138033Y-94049967D01*
X238831691Y-91743279D02*
X239703450Y-92615038D01*
X247119588Y-92687588D02*
X247681947Y-93249947D01*
X251272447Y-93249947D02*
X251392444Y-93369944D01*
X268732000Y-92456000D02*
X268732000Y-86106000D01*
X261876457Y-93769955D02*
X263850757Y-93769955D01*
X274010129Y-85750989D02*
X274063185Y-85804045D01*
X263850757Y-93769955D02*
X264130769Y-94049967D01*
X233175196Y-91186000D02*
X233732475Y-91743279D01*
X286051955Y-85804045D02*
X286512000Y-85344000D01*
D13*
%TO.N,Net-(U37-Pad1)*%
X271018000Y-79273500D02*
X271018000Y-81217000D01*
%TO.N,Net-(U41-Pad1)*%
X273558000Y-81217000D02*
X273558000Y-79273500D01*
%TO.N,Net-(U45-Pad1)*%
X276072500Y-81191500D02*
X276098000Y-81217000D01*
X276072500Y-79273500D02*
X276072500Y-81191500D01*
%TO.N,Net-(U49-Pad1)*%
X278638000Y-81154000D02*
X278701000Y-81217000D01*
X278638000Y-79273500D02*
X278638000Y-81154000D01*
%TO.N,Net-(U53-Pad1)*%
X281178000Y-81217000D02*
X281178000Y-79273500D01*
%TO.N,Net-(U57-Pad1)*%
X283718000Y-79273500D02*
X283718000Y-81154000D01*
%TO.N,Net-(U61-Pad1)*%
X286258000Y-81154000D02*
X286258000Y-79273500D01*
%TO.N,Net-(U65-Pad1)*%
X288798000Y-79273500D02*
X288798000Y-80772000D01*
X288798000Y-80772000D02*
X288798000Y-81154000D01*
D15*
%TO.N,CP*%
X232156000Y-96323685D02*
X228854000Y-93021685D01*
X228854000Y-93021685D02*
X228854000Y-92456000D01*
X232156000Y-97979000D02*
X232156000Y-96323685D01*
X223266000Y-78994000D02*
X224536000Y-80264000D01*
X222758000Y-78994000D02*
X223266000Y-78994000D01*
%TO.N,WE*%
X230886000Y-97979000D02*
X230886000Y-96581990D01*
X230886000Y-96581990D02*
X230316010Y-96012000D01*
X222758000Y-81534000D02*
X224536000Y-81534000D01*
X226314000Y-83312000D02*
X226568000Y-83312000D01*
X224536000Y-81534000D02*
X226314000Y-83312000D01*
D13*
%TO.N,Net-(U36-Pad1)*%
X248920000Y-79273500D02*
X248920000Y-81217000D01*
%TO.N,Net-(U5-Pad1)*%
X251460000Y-89890500D02*
X251460000Y-88201000D01*
%TO.N,Net-(U38-Pad1)*%
X251460000Y-81217000D02*
X251460000Y-79273500D01*
%TO.N,Net-(U11-Pad1)*%
X259080000Y-88201000D02*
X259080000Y-89890500D01*
%TO.N,Net-(U13-Pad1)*%
X261620000Y-89890500D02*
X261620000Y-88201000D01*
%TO.N,Net-(U15-Pad1)*%
X264160000Y-88201000D02*
X264160000Y-89890500D01*
%TO.N,Net-(U17-Pad1)*%
X266700000Y-89890500D02*
X266700000Y-88201000D01*
%TO.N,Net-(U19-Pad1)*%
X271018000Y-88201000D02*
X271018000Y-89890500D01*
%TO.N,Net-(U21-Pad1)*%
X273558000Y-89890500D02*
X273558000Y-88201000D01*
%TO.N,Net-(U23-Pad1)*%
X276098000Y-88201000D02*
X276098000Y-89890500D01*
%TO.N,Net-(U25-Pad1)*%
X278638000Y-89890500D02*
X278638000Y-88201000D01*
%TO.N,Net-(U27-Pad1)*%
X281178000Y-88201000D02*
X281178000Y-89890500D01*
%TO.N,Net-(U29-Pad1)*%
X283718000Y-89890500D02*
X283718000Y-88201000D01*
%TO.N,Net-(U31-Pad1)*%
X286258000Y-88201000D02*
X286258000Y-89890500D01*
%TO.N,Net-(U33-Pad1)*%
X288798000Y-88201000D02*
X288798000Y-89890500D01*
D15*
%TO.N,Net-(J2-Pad18)*%
X226568000Y-76944500D02*
X226550000Y-76962500D01*
X226568000Y-75184000D02*
X226568000Y-76944500D01*
%TO.N,Net-(J2-Pad17)*%
X227350000Y-77669877D02*
X226541755Y-78478122D01*
X227350000Y-76962500D02*
X227350000Y-77669877D01*
%TO.N,Net-(U67-Pad17)*%
X239350000Y-88137500D02*
X239350000Y-87294000D01*
X239949658Y-86694342D02*
X240241076Y-86694342D01*
X239350000Y-87294000D02*
X239949658Y-86694342D01*
X233426000Y-97979000D02*
X233426000Y-99375990D01*
%TO.N,~UB*%
X230378000Y-73406000D02*
X230378000Y-74930000D01*
X229750000Y-75558000D02*
X229750000Y-76962500D01*
X230378000Y-74930000D02*
X229750000Y-75558000D01*
X225552002Y-86614000D02*
X222758000Y-86614000D01*
X229750000Y-82416002D02*
X225552002Y-86614000D01*
X229750000Y-76962500D02*
X229750000Y-82416002D01*
%TD*%
D17*
%TO.N,VCC*%
X290170001Y-99535572D02*
X290170000Y-99535582D01*
X290170001Y-100805572D01*
X290170000Y-100805582D01*
X290170001Y-101702000D01*
X220624000Y-101702000D01*
X220624000Y-97828000D01*
X220705928Y-97828000D01*
X220718188Y-97952482D01*
X220754498Y-98072180D01*
X220813463Y-98182494D01*
X220892815Y-98279185D01*
X220989506Y-98358537D01*
X221099820Y-98417502D01*
X221219518Y-98453812D01*
X221344000Y-98466072D01*
X222558250Y-98463000D01*
X222717000Y-98304250D01*
X222717000Y-97155000D01*
X222971000Y-97155000D01*
X222971000Y-98304250D01*
X223129750Y-98463000D01*
X224344000Y-98466072D01*
X224468482Y-98453812D01*
X224588180Y-98417502D01*
X224698494Y-98358537D01*
X224795185Y-98279185D01*
X224874537Y-98182494D01*
X224933502Y-98072180D01*
X224969812Y-97952482D01*
X224982072Y-97828000D01*
X224979000Y-97313750D01*
X224820250Y-97155000D01*
X222971000Y-97155000D01*
X222717000Y-97155000D01*
X220867750Y-97155000D01*
X220709000Y-97313750D01*
X220705928Y-97828000D01*
X220624000Y-97828000D01*
X220624000Y-96228000D01*
X220705928Y-96228000D01*
X220709000Y-96742250D01*
X220867750Y-96901000D01*
X222717000Y-96901000D01*
X222717000Y-95751750D01*
X222971000Y-95751750D01*
X222971000Y-96901000D01*
X224820250Y-96901000D01*
X224979000Y-96742250D01*
X224982072Y-96228000D01*
X224969812Y-96103518D01*
X224933502Y-95983820D01*
X224874537Y-95873506D01*
X224795185Y-95776815D01*
X224698494Y-95697463D01*
X224588180Y-95638498D01*
X224468482Y-95602188D01*
X224344000Y-95589928D01*
X223129750Y-95593000D01*
X222971000Y-95751750D01*
X222717000Y-95751750D01*
X222558250Y-95593000D01*
X221344000Y-95589928D01*
X221219518Y-95602188D01*
X221099820Y-95638498D01*
X220989506Y-95697463D01*
X220892815Y-95776815D01*
X220813463Y-95873506D01*
X220754498Y-95983820D01*
X220718188Y-96103518D01*
X220705928Y-96228000D01*
X220624000Y-96228000D01*
X220624000Y-92258190D01*
X220680010Y-92393411D01*
X220842525Y-92636632D01*
X221049368Y-92843475D01*
X221292589Y-93005990D01*
X221562842Y-93117932D01*
X221849740Y-93175000D01*
X222142260Y-93175000D01*
X222429158Y-93117932D01*
X222699411Y-93005990D01*
X222897910Y-92873357D01*
X222974746Y-92950193D01*
X222997762Y-92978238D01*
X223109680Y-93070087D01*
X223237367Y-93138337D01*
X223309740Y-93160291D01*
X223375914Y-93180365D01*
X223520000Y-93194556D01*
X223556105Y-93191000D01*
X225097171Y-93191000D01*
X225100169Y-93196608D01*
X225204394Y-93323606D01*
X225331392Y-93427831D01*
X225476284Y-93505278D01*
X225633500Y-93552969D01*
X225797000Y-93569072D01*
X226197000Y-93569072D01*
X226360500Y-93552969D01*
X226517716Y-93505278D01*
X226662608Y-93427831D01*
X226762000Y-93346261D01*
X226762001Y-94394545D01*
X226729795Y-94442744D01*
X226651774Y-94631102D01*
X226612000Y-94831061D01*
X226612000Y-95034939D01*
X226651774Y-95234898D01*
X226729795Y-95423256D01*
X226762000Y-95471455D01*
X226762000Y-95589928D01*
X225994000Y-95589928D01*
X225820746Y-95606992D01*
X225654150Y-95657528D01*
X225500614Y-95739595D01*
X225366038Y-95850038D01*
X225255595Y-95984614D01*
X225173528Y-96138150D01*
X225122992Y-96304746D01*
X225105928Y-96478000D01*
X225105928Y-97578000D01*
X225122992Y-97751254D01*
X225173528Y-97917850D01*
X225255595Y-98071386D01*
X225366038Y-98205962D01*
X225500614Y-98316405D01*
X225654150Y-98398472D01*
X225820746Y-98449008D01*
X225994000Y-98466072D01*
X227642626Y-98466072D01*
X229746746Y-100570193D01*
X229769762Y-100598238D01*
X229881680Y-100690087D01*
X230009367Y-100758337D01*
X230147915Y-100800365D01*
X230292000Y-100814556D01*
X230328105Y-100811000D01*
X237347895Y-100811000D01*
X237384000Y-100814556D01*
X237420105Y-100811000D01*
X237528085Y-100800365D01*
X237666633Y-100758337D01*
X237794320Y-100690087D01*
X237906238Y-100598238D01*
X237929258Y-100570188D01*
X238431007Y-100068440D01*
X238542494Y-100179927D01*
X238712012Y-100293195D01*
X238900370Y-100371216D01*
X239100329Y-100410990D01*
X239197821Y-100410990D01*
X239384915Y-100598084D01*
X239407931Y-100626129D01*
X239519849Y-100717978D01*
X239647536Y-100786228D01*
X239786084Y-100828256D01*
X239894064Y-100838891D01*
X239894073Y-100838891D01*
X239930168Y-100842446D01*
X239966263Y-100838891D01*
X284416004Y-100838891D01*
X284452109Y-100842447D01*
X284488214Y-100838891D01*
X284596194Y-100828256D01*
X284734742Y-100786228D01*
X284862429Y-100717978D01*
X284974347Y-100626129D01*
X284997368Y-100598078D01*
X287640103Y-97955344D01*
X287889740Y-98005000D01*
X288182260Y-98005000D01*
X288469158Y-97947932D01*
X288739411Y-97835990D01*
X288982632Y-97673475D01*
X289189475Y-97466632D01*
X289351990Y-97223411D01*
X289463932Y-96953158D01*
X289521000Y-96666260D01*
X289521000Y-96373740D01*
X289463932Y-96086842D01*
X289460311Y-96078100D01*
X289480337Y-96040634D01*
X289522365Y-95902085D01*
X289536556Y-95758000D01*
X289533000Y-95721895D01*
X289533000Y-92394435D01*
X289660115Y-92290115D01*
X289766671Y-92160275D01*
X289845850Y-92012142D01*
X289894608Y-91851408D01*
X289911072Y-91684250D01*
X289911072Y-91246750D01*
X289894608Y-91079592D01*
X289845850Y-90918858D01*
X289766671Y-90770725D01*
X289690574Y-90678000D01*
X289766671Y-90585275D01*
X289845850Y-90437142D01*
X289894608Y-90276408D01*
X289907878Y-90141674D01*
X289916577Y-90112999D01*
X289933000Y-89946252D01*
X289933000Y-88145248D01*
X289916577Y-87978501D01*
X289905144Y-87940812D01*
X289894969Y-87837500D01*
X289847278Y-87680284D01*
X289769831Y-87535392D01*
X289665606Y-87408394D01*
X289626134Y-87376000D01*
X289665606Y-87343606D01*
X289769831Y-87216608D01*
X289847278Y-87071716D01*
X289894969Y-86914500D01*
X289905144Y-86811186D01*
X289916577Y-86773498D01*
X289938491Y-86551000D01*
X289916577Y-86328501D01*
X289905144Y-86290812D01*
X289894969Y-86187500D01*
X289847278Y-86030284D01*
X289769831Y-85885392D01*
X289665606Y-85758394D01*
X289538608Y-85654169D01*
X289393716Y-85576722D01*
X289368917Y-85569199D01*
X289234447Y-85497324D01*
X289020499Y-85432423D01*
X288798000Y-85410509D01*
X288575502Y-85432423D01*
X288454740Y-85469056D01*
X287542402Y-85469056D01*
X287547000Y-85445939D01*
X287547000Y-85242061D01*
X287507226Y-85042102D01*
X287429205Y-84853744D01*
X287315937Y-84684226D01*
X287171774Y-84540063D01*
X287002256Y-84426795D01*
X286813898Y-84348774D01*
X286613939Y-84309000D01*
X286410061Y-84309000D01*
X286210102Y-84348774D01*
X286021744Y-84426795D01*
X285852226Y-84540063D01*
X285708063Y-84684226D01*
X285594795Y-84853744D01*
X285516774Y-85042102D01*
X285511415Y-85069045D01*
X285234922Y-85069045D01*
X285261000Y-84937939D01*
X285261000Y-84734061D01*
X285221226Y-84534102D01*
X285143205Y-84345744D01*
X285029937Y-84176226D01*
X284885774Y-84032063D01*
X284746495Y-83939000D01*
X288853752Y-83939000D01*
X289020499Y-83922577D01*
X289234447Y-83857676D01*
X289368917Y-83785801D01*
X289393716Y-83778278D01*
X289538608Y-83700831D01*
X289665606Y-83596606D01*
X289769831Y-83469608D01*
X289847278Y-83324716D01*
X289894969Y-83167500D01*
X289905144Y-83064188D01*
X289916577Y-83026499D01*
X289938491Y-82804000D01*
X289916577Y-82581501D01*
X289905144Y-82543812D01*
X289894969Y-82440500D01*
X289847278Y-82283284D01*
X289769831Y-82138392D01*
X289665606Y-82011394D01*
X289626134Y-81979000D01*
X289665606Y-81946606D01*
X289769831Y-81819608D01*
X289847278Y-81674716D01*
X289894969Y-81517500D01*
X289905144Y-81414186D01*
X289916577Y-81376498D01*
X289933000Y-81209751D01*
X289933000Y-79217748D01*
X289916577Y-79051001D01*
X289907878Y-79022326D01*
X289894608Y-78887592D01*
X289845850Y-78726858D01*
X289766671Y-78578725D01*
X289690574Y-78486000D01*
X289766671Y-78393275D01*
X289845850Y-78245142D01*
X289894608Y-78084408D01*
X289911072Y-77917250D01*
X289911072Y-77479750D01*
X289894608Y-77312592D01*
X289845850Y-77151858D01*
X289766671Y-77003725D01*
X289716098Y-76942101D01*
X289793226Y-76755898D01*
X289833000Y-76555939D01*
X289833000Y-76352061D01*
X289793226Y-76152102D01*
X289715205Y-75963744D01*
X289601937Y-75794226D01*
X289457774Y-75650063D01*
X289288256Y-75536795D01*
X289099898Y-75458774D01*
X288899939Y-75419000D01*
X288696061Y-75419000D01*
X288496102Y-75458774D01*
X288307744Y-75536795D01*
X288138226Y-75650063D01*
X287994063Y-75794226D01*
X287880795Y-75963744D01*
X287802774Y-76152102D01*
X287763000Y-76352061D01*
X287763000Y-76555939D01*
X287802774Y-76755898D01*
X287879902Y-76942101D01*
X287829329Y-77003725D01*
X287750150Y-77151858D01*
X287701392Y-77312592D01*
X287684928Y-77479750D01*
X287684928Y-77917250D01*
X287701392Y-78084408D01*
X287750150Y-78245142D01*
X287829329Y-78393275D01*
X287905426Y-78486000D01*
X287829329Y-78578725D01*
X287750150Y-78726858D01*
X287701392Y-78887592D01*
X287688121Y-79022327D01*
X287679423Y-79051002D01*
X287663000Y-79217749D01*
X287663000Y-81209752D01*
X287679423Y-81376499D01*
X287690856Y-81414188D01*
X287701031Y-81517500D01*
X287746988Y-81669000D01*
X287309012Y-81669000D01*
X287354969Y-81517500D01*
X287365144Y-81414188D01*
X287376577Y-81376499D01*
X287393000Y-81209752D01*
X287393000Y-79217748D01*
X287376577Y-79051001D01*
X287367878Y-79022326D01*
X287354608Y-78887592D01*
X287305850Y-78726858D01*
X287226671Y-78578725D01*
X287150574Y-78486000D01*
X287226671Y-78393275D01*
X287305850Y-78245142D01*
X287354608Y-78084408D01*
X287371072Y-77917250D01*
X287371072Y-77479750D01*
X287354608Y-77312592D01*
X287305850Y-77151858D01*
X287226671Y-77003725D01*
X287176098Y-76942101D01*
X287253226Y-76755898D01*
X287293000Y-76555939D01*
X287293000Y-76352061D01*
X287253226Y-76152102D01*
X287175205Y-75963744D01*
X287061937Y-75794226D01*
X286917774Y-75650063D01*
X286748256Y-75536795D01*
X286559898Y-75458774D01*
X286359939Y-75419000D01*
X286156061Y-75419000D01*
X285956102Y-75458774D01*
X285767744Y-75536795D01*
X285598226Y-75650063D01*
X285454063Y-75794226D01*
X285340795Y-75963744D01*
X285262774Y-76152102D01*
X285223000Y-76352061D01*
X285223000Y-76555939D01*
X285262774Y-76755898D01*
X285339902Y-76942101D01*
X285289329Y-77003725D01*
X285210150Y-77151858D01*
X285168645Y-77288681D01*
X285100663Y-77415867D01*
X285058635Y-77554415D01*
X285044444Y-77698500D01*
X285058635Y-77842585D01*
X285100663Y-77981133D01*
X285168645Y-78108319D01*
X285210150Y-78245142D01*
X285289329Y-78393275D01*
X285365426Y-78486000D01*
X285289329Y-78578725D01*
X285210150Y-78726858D01*
X285161392Y-78887592D01*
X285148121Y-79022331D01*
X285139424Y-79051001D01*
X285123001Y-79217748D01*
X285123000Y-81209751D01*
X285139423Y-81376498D01*
X285150856Y-81414186D01*
X285161031Y-81517500D01*
X285206988Y-81669000D01*
X284769012Y-81669000D01*
X284814969Y-81517500D01*
X284825144Y-81414188D01*
X284836577Y-81376499D01*
X284853000Y-81209752D01*
X284853000Y-79217748D01*
X284836577Y-79051001D01*
X284827878Y-79022326D01*
X284814608Y-78887592D01*
X284765850Y-78726858D01*
X284686671Y-78578725D01*
X284610574Y-78486000D01*
X284686671Y-78393275D01*
X284765850Y-78245142D01*
X284814608Y-78084408D01*
X284831072Y-77917250D01*
X284831072Y-77479750D01*
X284814608Y-77312592D01*
X284765850Y-77151858D01*
X284686671Y-77003725D01*
X284636098Y-76942101D01*
X284713226Y-76755898D01*
X284753000Y-76555939D01*
X284753000Y-76352061D01*
X284713226Y-76152102D01*
X284635205Y-75963744D01*
X284521937Y-75794226D01*
X284377774Y-75650063D01*
X284208256Y-75536795D01*
X284019898Y-75458774D01*
X283819939Y-75419000D01*
X283616061Y-75419000D01*
X283416102Y-75458774D01*
X283227744Y-75536795D01*
X283058226Y-75650063D01*
X282914063Y-75794226D01*
X282800795Y-75963744D01*
X282722774Y-76152102D01*
X282683000Y-76352061D01*
X282683000Y-76555939D01*
X282722774Y-76755898D01*
X282799902Y-76942101D01*
X282749329Y-77003725D01*
X282670150Y-77151858D01*
X282621392Y-77312592D01*
X282604928Y-77479750D01*
X282604928Y-77917250D01*
X282621392Y-78084408D01*
X282670150Y-78245142D01*
X282749329Y-78393275D01*
X282825426Y-78486000D01*
X282749329Y-78578725D01*
X282670150Y-78726858D01*
X282621392Y-78887592D01*
X282608121Y-79022327D01*
X282599423Y-79051002D01*
X282583000Y-79217749D01*
X282583001Y-81209752D01*
X282599424Y-81376499D01*
X282610855Y-81414183D01*
X282621031Y-81517500D01*
X282666988Y-81669000D01*
X282248123Y-81669000D01*
X282274969Y-81580500D01*
X282285144Y-81477188D01*
X282296577Y-81439499D01*
X282313000Y-81272752D01*
X282313000Y-79217748D01*
X282296577Y-79051001D01*
X282287878Y-79022326D01*
X282274608Y-78887592D01*
X282225850Y-78726858D01*
X282146671Y-78578725D01*
X282070574Y-78486000D01*
X282146671Y-78393275D01*
X282225850Y-78245142D01*
X282274608Y-78084408D01*
X282291072Y-77917250D01*
X282291072Y-77479750D01*
X282274608Y-77312592D01*
X282225850Y-77151858D01*
X282146671Y-77003725D01*
X282096098Y-76942101D01*
X282173226Y-76755898D01*
X282213000Y-76555939D01*
X282213000Y-76352061D01*
X282173226Y-76152102D01*
X282095205Y-75963744D01*
X281981937Y-75794226D01*
X281837774Y-75650063D01*
X281668256Y-75536795D01*
X281479898Y-75458774D01*
X281279939Y-75419000D01*
X281076061Y-75419000D01*
X280876102Y-75458774D01*
X280687744Y-75536795D01*
X280518226Y-75650063D01*
X280374063Y-75794226D01*
X280260795Y-75963744D01*
X280182774Y-76152102D01*
X280143000Y-76352061D01*
X280143000Y-76555939D01*
X280182774Y-76755898D01*
X280259902Y-76942101D01*
X280209329Y-77003725D01*
X280130150Y-77151858D01*
X280081392Y-77312592D01*
X280064928Y-77479750D01*
X280064928Y-77917250D01*
X280081392Y-78084408D01*
X280130150Y-78245142D01*
X280209329Y-78393275D01*
X280285426Y-78486000D01*
X280209329Y-78578725D01*
X280130150Y-78726858D01*
X280081392Y-78887592D01*
X280068121Y-79022331D01*
X280059424Y-79051001D01*
X280043001Y-79217748D01*
X280043000Y-81272751D01*
X280059423Y-81439498D01*
X280070856Y-81477186D01*
X280081031Y-81580500D01*
X280107877Y-81669000D01*
X279771123Y-81669000D01*
X279797969Y-81580500D01*
X279808145Y-81477181D01*
X279819576Y-81439498D01*
X279841490Y-81216999D01*
X279819576Y-80994501D01*
X279808145Y-80956817D01*
X279797969Y-80853500D01*
X279773000Y-80771188D01*
X279773000Y-79217748D01*
X279756577Y-79051001D01*
X279747878Y-79022326D01*
X279734608Y-78887592D01*
X279685850Y-78726858D01*
X279606671Y-78578725D01*
X279530574Y-78486000D01*
X279606671Y-78393275D01*
X279685850Y-78245142D01*
X279734608Y-78084408D01*
X279751072Y-77917250D01*
X279751072Y-77479750D01*
X279734608Y-77312592D01*
X279685850Y-77151858D01*
X279606671Y-77003725D01*
X279556098Y-76942101D01*
X279633226Y-76755898D01*
X279673000Y-76555939D01*
X279673000Y-76352061D01*
X279633226Y-76152102D01*
X279555205Y-75963744D01*
X279441937Y-75794226D01*
X279297774Y-75650063D01*
X279128256Y-75536795D01*
X278939898Y-75458774D01*
X278739939Y-75419000D01*
X278536061Y-75419000D01*
X278336102Y-75458774D01*
X278147744Y-75536795D01*
X277978226Y-75650063D01*
X277834063Y-75794226D01*
X277720795Y-75963744D01*
X277642774Y-76152102D01*
X277603000Y-76352061D01*
X277603000Y-76555939D01*
X277642774Y-76755898D01*
X277719902Y-76942101D01*
X277669329Y-77003725D01*
X277590150Y-77151858D01*
X277541392Y-77312592D01*
X277524928Y-77479750D01*
X277524928Y-77917250D01*
X277541392Y-78084408D01*
X277590150Y-78245142D01*
X277669329Y-78393275D01*
X277745426Y-78486000D01*
X277669329Y-78578725D01*
X277590150Y-78726858D01*
X277541392Y-78887592D01*
X277528121Y-79022327D01*
X277519423Y-79051002D01*
X277503000Y-79217749D01*
X277503001Y-81098239D01*
X277497509Y-81154000D01*
X277519423Y-81376498D01*
X277584324Y-81590446D01*
X277623378Y-81663510D01*
X277626312Y-81669000D01*
X277168123Y-81669000D01*
X277194969Y-81580500D01*
X277205145Y-81477181D01*
X277216576Y-81439498D01*
X277238490Y-81216999D01*
X277216576Y-80994501D01*
X277207500Y-80964582D01*
X277207500Y-79217748D01*
X277191077Y-79051001D01*
X277182378Y-79022326D01*
X277169108Y-78887592D01*
X277120350Y-78726858D01*
X277041171Y-78578725D01*
X276965074Y-78486000D01*
X277041171Y-78393275D01*
X277120350Y-78245142D01*
X277169108Y-78084408D01*
X277185572Y-77917250D01*
X277185572Y-77479750D01*
X277169108Y-77312592D01*
X277120350Y-77151858D01*
X277041171Y-77003725D01*
X276997617Y-76950654D01*
X277067726Y-76781398D01*
X277107500Y-76581439D01*
X277107500Y-76377561D01*
X277067726Y-76177602D01*
X276989705Y-75989244D01*
X276876437Y-75819726D01*
X276732274Y-75675563D01*
X276562756Y-75562295D01*
X276374398Y-75484274D01*
X276174439Y-75444500D01*
X275970561Y-75444500D01*
X275770602Y-75484274D01*
X275582244Y-75562295D01*
X275412726Y-75675563D01*
X275268563Y-75819726D01*
X275254388Y-75840941D01*
X274103259Y-74689812D01*
X274080238Y-74661762D01*
X273968320Y-74569913D01*
X273840633Y-74501663D01*
X273702085Y-74459635D01*
X273594105Y-74449000D01*
X273558000Y-74445444D01*
X273521895Y-74449000D01*
X270292094Y-74449000D01*
X270255999Y-74445445D01*
X270219904Y-74449000D01*
X270219895Y-74449000D01*
X270111915Y-74459635D01*
X269973367Y-74501663D01*
X269845680Y-74569913D01*
X269733762Y-74661762D01*
X269710746Y-74689807D01*
X268237808Y-76162746D01*
X268209762Y-76185763D01*
X268117913Y-76297681D01*
X268049663Y-76425368D01*
X268023911Y-76510262D01*
X268007635Y-76563915D01*
X267993444Y-76708000D01*
X267997000Y-76744105D01*
X267997001Y-81760722D01*
X267619769Y-82137954D01*
X267567606Y-82074394D01*
X267528134Y-82042000D01*
X267567606Y-82009606D01*
X267671831Y-81882608D01*
X267749278Y-81737716D01*
X267796969Y-81580500D01*
X267807144Y-81477188D01*
X267818577Y-81439499D01*
X267835000Y-81272752D01*
X267835000Y-79343251D01*
X267840491Y-79287500D01*
X267832118Y-79202487D01*
X267818577Y-79065001D01*
X267791189Y-78974716D01*
X267782608Y-78887592D01*
X267733850Y-78726858D01*
X267654671Y-78578725D01*
X267578574Y-78486000D01*
X267654671Y-78393275D01*
X267733850Y-78245142D01*
X267782608Y-78084408D01*
X267799072Y-77917250D01*
X267799072Y-77479750D01*
X267782608Y-77312592D01*
X267733850Y-77151858D01*
X267654671Y-77003725D01*
X267607952Y-76946797D01*
X267681226Y-76769898D01*
X267721000Y-76569939D01*
X267721000Y-76366061D01*
X267681226Y-76166102D01*
X267603205Y-75977744D01*
X267489937Y-75808226D01*
X267345774Y-75664063D01*
X267176256Y-75550795D01*
X266987898Y-75472774D01*
X266787939Y-75433000D01*
X266584061Y-75433000D01*
X266384102Y-75472774D01*
X266195744Y-75550795D01*
X266087540Y-75623094D01*
X265408258Y-74943812D01*
X265385238Y-74915762D01*
X265273320Y-74823913D01*
X265145633Y-74755663D01*
X265007085Y-74713635D01*
X264899105Y-74703000D01*
X264863000Y-74699444D01*
X264826895Y-74703000D01*
X261416447Y-74703000D01*
X261149258Y-74435812D01*
X261126238Y-74407762D01*
X261014320Y-74315913D01*
X260886633Y-74247663D01*
X260748085Y-74205635D01*
X260640105Y-74195000D01*
X260604000Y-74191444D01*
X260567895Y-74195000D01*
X257860447Y-74195000D01*
X257085258Y-73419812D01*
X257062238Y-73391762D01*
X256950320Y-73299913D01*
X256822633Y-73231663D01*
X256684085Y-73189635D01*
X256576105Y-73179000D01*
X256540000Y-73175444D01*
X256503895Y-73179000D01*
X253034447Y-73179000D01*
X252715190Y-72859744D01*
X252701624Y-72843213D01*
X252909158Y-72801932D01*
X253179411Y-72689990D01*
X253422632Y-72527475D01*
X253629475Y-72320632D01*
X253746000Y-72146240D01*
X253862525Y-72320632D01*
X254069368Y-72527475D01*
X254312589Y-72689990D01*
X254582842Y-72801932D01*
X254869740Y-72859000D01*
X255162260Y-72859000D01*
X255449158Y-72801932D01*
X255719411Y-72689990D01*
X255962632Y-72527475D01*
X256169475Y-72320632D01*
X256286000Y-72146240D01*
X256402525Y-72320632D01*
X256609368Y-72527475D01*
X256852589Y-72689990D01*
X257122842Y-72801932D01*
X257409740Y-72859000D01*
X257702260Y-72859000D01*
X257989158Y-72801932D01*
X258259411Y-72689990D01*
X258502632Y-72527475D01*
X258709475Y-72320632D01*
X258826000Y-72146240D01*
X258942525Y-72320632D01*
X259149368Y-72527475D01*
X259392589Y-72689990D01*
X259662842Y-72801932D01*
X259949740Y-72859000D01*
X260242260Y-72859000D01*
X260529158Y-72801932D01*
X260799411Y-72689990D01*
X261042632Y-72527475D01*
X261249475Y-72320632D01*
X261366000Y-72146240D01*
X261482525Y-72320632D01*
X261689368Y-72527475D01*
X261932589Y-72689990D01*
X262202842Y-72801932D01*
X262489740Y-72859000D01*
X262782260Y-72859000D01*
X263069158Y-72801932D01*
X263339411Y-72689990D01*
X263582632Y-72527475D01*
X263789475Y-72320632D01*
X263906000Y-72146240D01*
X264022525Y-72320632D01*
X264229368Y-72527475D01*
X264472589Y-72689990D01*
X264742842Y-72801932D01*
X265029740Y-72859000D01*
X265322260Y-72859000D01*
X265609158Y-72801932D01*
X265879411Y-72689990D01*
X266122632Y-72527475D01*
X266329475Y-72320632D01*
X266446000Y-72146240D01*
X266562525Y-72320632D01*
X266769368Y-72527475D01*
X267012589Y-72689990D01*
X267282842Y-72801932D01*
X267569740Y-72859000D01*
X267862260Y-72859000D01*
X268149158Y-72801932D01*
X268419411Y-72689990D01*
X268662632Y-72527475D01*
X268869475Y-72320632D01*
X268986000Y-72146240D01*
X269102525Y-72320632D01*
X269309368Y-72527475D01*
X269552589Y-72689990D01*
X269822842Y-72801932D01*
X270109740Y-72859000D01*
X270402260Y-72859000D01*
X270689158Y-72801932D01*
X270959411Y-72689990D01*
X271202632Y-72527475D01*
X271409475Y-72320632D01*
X271526000Y-72146240D01*
X271642525Y-72320632D01*
X271849368Y-72527475D01*
X272092589Y-72689990D01*
X272362842Y-72801932D01*
X272649740Y-72859000D01*
X272942260Y-72859000D01*
X273229158Y-72801932D01*
X273499411Y-72689990D01*
X273742632Y-72527475D01*
X273949475Y-72320632D01*
X274066000Y-72146240D01*
X274182525Y-72320632D01*
X274389368Y-72527475D01*
X274632589Y-72689990D01*
X274902842Y-72801932D01*
X275189740Y-72859000D01*
X275482260Y-72859000D01*
X275769158Y-72801932D01*
X276039411Y-72689990D01*
X276282632Y-72527475D01*
X276489475Y-72320632D01*
X276606000Y-72146240D01*
X276722525Y-72320632D01*
X276929368Y-72527475D01*
X277172589Y-72689990D01*
X277442842Y-72801932D01*
X277729740Y-72859000D01*
X278022260Y-72859000D01*
X278309158Y-72801932D01*
X278579411Y-72689990D01*
X278822632Y-72527475D01*
X279029475Y-72320632D01*
X279146000Y-72146240D01*
X279262525Y-72320632D01*
X279469368Y-72527475D01*
X279712589Y-72689990D01*
X279982842Y-72801932D01*
X280269740Y-72859000D01*
X280562260Y-72859000D01*
X280849158Y-72801932D01*
X281119411Y-72689990D01*
X281362632Y-72527475D01*
X281569475Y-72320632D01*
X281686000Y-72146240D01*
X281802525Y-72320632D01*
X282009368Y-72527475D01*
X282252589Y-72689990D01*
X282522842Y-72801932D01*
X282809740Y-72859000D01*
X283102260Y-72859000D01*
X283389158Y-72801932D01*
X283659411Y-72689990D01*
X283902632Y-72527475D01*
X284109475Y-72320632D01*
X284226000Y-72146240D01*
X284342525Y-72320632D01*
X284549368Y-72527475D01*
X284792589Y-72689990D01*
X285062842Y-72801932D01*
X285349740Y-72859000D01*
X285642260Y-72859000D01*
X285929158Y-72801932D01*
X286199411Y-72689990D01*
X286442632Y-72527475D01*
X286574487Y-72395620D01*
X286596498Y-72468180D01*
X286655463Y-72578494D01*
X286734815Y-72675185D01*
X286831506Y-72754537D01*
X286941820Y-72813502D01*
X287061518Y-72849812D01*
X287186000Y-72862072D01*
X288886000Y-72862072D01*
X289010482Y-72849812D01*
X289130180Y-72813502D01*
X289240494Y-72754537D01*
X289337185Y-72675185D01*
X289416537Y-72578494D01*
X289475502Y-72468180D01*
X289511812Y-72348482D01*
X289524072Y-72224000D01*
X289524072Y-70524000D01*
X289511812Y-70399518D01*
X289475502Y-70279820D01*
X289416537Y-70169506D01*
X289337185Y-70072815D01*
X289250896Y-70002000D01*
X290170000Y-70002000D01*
X290170001Y-99535572D01*
%TA.AperFunction,Conductor*%
D18*
G36*
X290170001Y-99535572D02*
G01*
X290170000Y-99535582D01*
X290170001Y-100805572D01*
X290170000Y-100805582D01*
X290170001Y-101702000D01*
X220624000Y-101702000D01*
X220624000Y-97828000D01*
X220705928Y-97828000D01*
X220718188Y-97952482D01*
X220754498Y-98072180D01*
X220813463Y-98182494D01*
X220892815Y-98279185D01*
X220989506Y-98358537D01*
X221099820Y-98417502D01*
X221219518Y-98453812D01*
X221344000Y-98466072D01*
X222558250Y-98463000D01*
X222717000Y-98304250D01*
X222717000Y-97155000D01*
X222971000Y-97155000D01*
X222971000Y-98304250D01*
X223129750Y-98463000D01*
X224344000Y-98466072D01*
X224468482Y-98453812D01*
X224588180Y-98417502D01*
X224698494Y-98358537D01*
X224795185Y-98279185D01*
X224874537Y-98182494D01*
X224933502Y-98072180D01*
X224969812Y-97952482D01*
X224982072Y-97828000D01*
X224979000Y-97313750D01*
X224820250Y-97155000D01*
X222971000Y-97155000D01*
X222717000Y-97155000D01*
X220867750Y-97155000D01*
X220709000Y-97313750D01*
X220705928Y-97828000D01*
X220624000Y-97828000D01*
X220624000Y-96228000D01*
X220705928Y-96228000D01*
X220709000Y-96742250D01*
X220867750Y-96901000D01*
X222717000Y-96901000D01*
X222717000Y-95751750D01*
X222971000Y-95751750D01*
X222971000Y-96901000D01*
X224820250Y-96901000D01*
X224979000Y-96742250D01*
X224982072Y-96228000D01*
X224969812Y-96103518D01*
X224933502Y-95983820D01*
X224874537Y-95873506D01*
X224795185Y-95776815D01*
X224698494Y-95697463D01*
X224588180Y-95638498D01*
X224468482Y-95602188D01*
X224344000Y-95589928D01*
X223129750Y-95593000D01*
X222971000Y-95751750D01*
X222717000Y-95751750D01*
X222558250Y-95593000D01*
X221344000Y-95589928D01*
X221219518Y-95602188D01*
X221099820Y-95638498D01*
X220989506Y-95697463D01*
X220892815Y-95776815D01*
X220813463Y-95873506D01*
X220754498Y-95983820D01*
X220718188Y-96103518D01*
X220705928Y-96228000D01*
X220624000Y-96228000D01*
X220624000Y-92258190D01*
X220680010Y-92393411D01*
X220842525Y-92636632D01*
X221049368Y-92843475D01*
X221292589Y-93005990D01*
X221562842Y-93117932D01*
X221849740Y-93175000D01*
X222142260Y-93175000D01*
X222429158Y-93117932D01*
X222699411Y-93005990D01*
X222897910Y-92873357D01*
X222974746Y-92950193D01*
X222997762Y-92978238D01*
X223109680Y-93070087D01*
X223237367Y-93138337D01*
X223309740Y-93160291D01*
X223375914Y-93180365D01*
X223520000Y-93194556D01*
X223556105Y-93191000D01*
X225097171Y-93191000D01*
X225100169Y-93196608D01*
X225204394Y-93323606D01*
X225331392Y-93427831D01*
X225476284Y-93505278D01*
X225633500Y-93552969D01*
X225797000Y-93569072D01*
X226197000Y-93569072D01*
X226360500Y-93552969D01*
X226517716Y-93505278D01*
X226662608Y-93427831D01*
X226762000Y-93346261D01*
X226762001Y-94394545D01*
X226729795Y-94442744D01*
X226651774Y-94631102D01*
X226612000Y-94831061D01*
X226612000Y-95034939D01*
X226651774Y-95234898D01*
X226729795Y-95423256D01*
X226762000Y-95471455D01*
X226762000Y-95589928D01*
X225994000Y-95589928D01*
X225820746Y-95606992D01*
X225654150Y-95657528D01*
X225500614Y-95739595D01*
X225366038Y-95850038D01*
X225255595Y-95984614D01*
X225173528Y-96138150D01*
X225122992Y-96304746D01*
X225105928Y-96478000D01*
X225105928Y-97578000D01*
X225122992Y-97751254D01*
X225173528Y-97917850D01*
X225255595Y-98071386D01*
X225366038Y-98205962D01*
X225500614Y-98316405D01*
X225654150Y-98398472D01*
X225820746Y-98449008D01*
X225994000Y-98466072D01*
X227642626Y-98466072D01*
X229746746Y-100570193D01*
X229769762Y-100598238D01*
X229881680Y-100690087D01*
X230009367Y-100758337D01*
X230147915Y-100800365D01*
X230292000Y-100814556D01*
X230328105Y-100811000D01*
X237347895Y-100811000D01*
X237384000Y-100814556D01*
X237420105Y-100811000D01*
X237528085Y-100800365D01*
X237666633Y-100758337D01*
X237794320Y-100690087D01*
X237906238Y-100598238D01*
X237929258Y-100570188D01*
X238431007Y-100068440D01*
X238542494Y-100179927D01*
X238712012Y-100293195D01*
X238900370Y-100371216D01*
X239100329Y-100410990D01*
X239197821Y-100410990D01*
X239384915Y-100598084D01*
X239407931Y-100626129D01*
X239519849Y-100717978D01*
X239647536Y-100786228D01*
X239786084Y-100828256D01*
X239894064Y-100838891D01*
X239894073Y-100838891D01*
X239930168Y-100842446D01*
X239966263Y-100838891D01*
X284416004Y-100838891D01*
X284452109Y-100842447D01*
X284488214Y-100838891D01*
X284596194Y-100828256D01*
X284734742Y-100786228D01*
X284862429Y-100717978D01*
X284974347Y-100626129D01*
X284997368Y-100598078D01*
X287640103Y-97955344D01*
X287889740Y-98005000D01*
X288182260Y-98005000D01*
X288469158Y-97947932D01*
X288739411Y-97835990D01*
X288982632Y-97673475D01*
X289189475Y-97466632D01*
X289351990Y-97223411D01*
X289463932Y-96953158D01*
X289521000Y-96666260D01*
X289521000Y-96373740D01*
X289463932Y-96086842D01*
X289460311Y-96078100D01*
X289480337Y-96040634D01*
X289522365Y-95902085D01*
X289536556Y-95758000D01*
X289533000Y-95721895D01*
X289533000Y-92394435D01*
X289660115Y-92290115D01*
X289766671Y-92160275D01*
X289845850Y-92012142D01*
X289894608Y-91851408D01*
X289911072Y-91684250D01*
X289911072Y-91246750D01*
X289894608Y-91079592D01*
X289845850Y-90918858D01*
X289766671Y-90770725D01*
X289690574Y-90678000D01*
X289766671Y-90585275D01*
X289845850Y-90437142D01*
X289894608Y-90276408D01*
X289907878Y-90141674D01*
X289916577Y-90112999D01*
X289933000Y-89946252D01*
X289933000Y-88145248D01*
X289916577Y-87978501D01*
X289905144Y-87940812D01*
X289894969Y-87837500D01*
X289847278Y-87680284D01*
X289769831Y-87535392D01*
X289665606Y-87408394D01*
X289626134Y-87376000D01*
X289665606Y-87343606D01*
X289769831Y-87216608D01*
X289847278Y-87071716D01*
X289894969Y-86914500D01*
X289905144Y-86811186D01*
X289916577Y-86773498D01*
X289938491Y-86551000D01*
X289916577Y-86328501D01*
X289905144Y-86290812D01*
X289894969Y-86187500D01*
X289847278Y-86030284D01*
X289769831Y-85885392D01*
X289665606Y-85758394D01*
X289538608Y-85654169D01*
X289393716Y-85576722D01*
X289368917Y-85569199D01*
X289234447Y-85497324D01*
X289020499Y-85432423D01*
X288798000Y-85410509D01*
X288575502Y-85432423D01*
X288454740Y-85469056D01*
X287542402Y-85469056D01*
X287547000Y-85445939D01*
X287547000Y-85242061D01*
X287507226Y-85042102D01*
X287429205Y-84853744D01*
X287315937Y-84684226D01*
X287171774Y-84540063D01*
X287002256Y-84426795D01*
X286813898Y-84348774D01*
X286613939Y-84309000D01*
X286410061Y-84309000D01*
X286210102Y-84348774D01*
X286021744Y-84426795D01*
X285852226Y-84540063D01*
X285708063Y-84684226D01*
X285594795Y-84853744D01*
X285516774Y-85042102D01*
X285511415Y-85069045D01*
X285234922Y-85069045D01*
X285261000Y-84937939D01*
X285261000Y-84734061D01*
X285221226Y-84534102D01*
X285143205Y-84345744D01*
X285029937Y-84176226D01*
X284885774Y-84032063D01*
X284746495Y-83939000D01*
X288853752Y-83939000D01*
X289020499Y-83922577D01*
X289234447Y-83857676D01*
X289368917Y-83785801D01*
X289393716Y-83778278D01*
X289538608Y-83700831D01*
X289665606Y-83596606D01*
X289769831Y-83469608D01*
X289847278Y-83324716D01*
X289894969Y-83167500D01*
X289905144Y-83064188D01*
X289916577Y-83026499D01*
X289938491Y-82804000D01*
X289916577Y-82581501D01*
X289905144Y-82543812D01*
X289894969Y-82440500D01*
X289847278Y-82283284D01*
X289769831Y-82138392D01*
X289665606Y-82011394D01*
X289626134Y-81979000D01*
X289665606Y-81946606D01*
X289769831Y-81819608D01*
X289847278Y-81674716D01*
X289894969Y-81517500D01*
X289905144Y-81414186D01*
X289916577Y-81376498D01*
X289933000Y-81209751D01*
X289933000Y-79217748D01*
X289916577Y-79051001D01*
X289907878Y-79022326D01*
X289894608Y-78887592D01*
X289845850Y-78726858D01*
X289766671Y-78578725D01*
X289690574Y-78486000D01*
X289766671Y-78393275D01*
X289845850Y-78245142D01*
X289894608Y-78084408D01*
X289911072Y-77917250D01*
X289911072Y-77479750D01*
X289894608Y-77312592D01*
X289845850Y-77151858D01*
X289766671Y-77003725D01*
X289716098Y-76942101D01*
X289793226Y-76755898D01*
X289833000Y-76555939D01*
X289833000Y-76352061D01*
X289793226Y-76152102D01*
X289715205Y-75963744D01*
X289601937Y-75794226D01*
X289457774Y-75650063D01*
X289288256Y-75536795D01*
X289099898Y-75458774D01*
X288899939Y-75419000D01*
X288696061Y-75419000D01*
X288496102Y-75458774D01*
X288307744Y-75536795D01*
X288138226Y-75650063D01*
X287994063Y-75794226D01*
X287880795Y-75963744D01*
X287802774Y-76152102D01*
X287763000Y-76352061D01*
X287763000Y-76555939D01*
X287802774Y-76755898D01*
X287879902Y-76942101D01*
X287829329Y-77003725D01*
X287750150Y-77151858D01*
X287701392Y-77312592D01*
X287684928Y-77479750D01*
X287684928Y-77917250D01*
X287701392Y-78084408D01*
X287750150Y-78245142D01*
X287829329Y-78393275D01*
X287905426Y-78486000D01*
X287829329Y-78578725D01*
X287750150Y-78726858D01*
X287701392Y-78887592D01*
X287688121Y-79022327D01*
X287679423Y-79051002D01*
X287663000Y-79217749D01*
X287663000Y-81209752D01*
X287679423Y-81376499D01*
X287690856Y-81414188D01*
X287701031Y-81517500D01*
X287746988Y-81669000D01*
X287309012Y-81669000D01*
X287354969Y-81517500D01*
X287365144Y-81414188D01*
X287376577Y-81376499D01*
X287393000Y-81209752D01*
X287393000Y-79217748D01*
X287376577Y-79051001D01*
X287367878Y-79022326D01*
X287354608Y-78887592D01*
X287305850Y-78726858D01*
X287226671Y-78578725D01*
X287150574Y-78486000D01*
X287226671Y-78393275D01*
X287305850Y-78245142D01*
X287354608Y-78084408D01*
X287371072Y-77917250D01*
X287371072Y-77479750D01*
X287354608Y-77312592D01*
X287305850Y-77151858D01*
X287226671Y-77003725D01*
X287176098Y-76942101D01*
X287253226Y-76755898D01*
X287293000Y-76555939D01*
X287293000Y-76352061D01*
X287253226Y-76152102D01*
X287175205Y-75963744D01*
X287061937Y-75794226D01*
X286917774Y-75650063D01*
X286748256Y-75536795D01*
X286559898Y-75458774D01*
X286359939Y-75419000D01*
X286156061Y-75419000D01*
X285956102Y-75458774D01*
X285767744Y-75536795D01*
X285598226Y-75650063D01*
X285454063Y-75794226D01*
X285340795Y-75963744D01*
X285262774Y-76152102D01*
X285223000Y-76352061D01*
X285223000Y-76555939D01*
X285262774Y-76755898D01*
X285339902Y-76942101D01*
X285289329Y-77003725D01*
X285210150Y-77151858D01*
X285168645Y-77288681D01*
X285100663Y-77415867D01*
X285058635Y-77554415D01*
X285044444Y-77698500D01*
X285058635Y-77842585D01*
X285100663Y-77981133D01*
X285168645Y-78108319D01*
X285210150Y-78245142D01*
X285289329Y-78393275D01*
X285365426Y-78486000D01*
X285289329Y-78578725D01*
X285210150Y-78726858D01*
X285161392Y-78887592D01*
X285148121Y-79022331D01*
X285139424Y-79051001D01*
X285123001Y-79217748D01*
X285123000Y-81209751D01*
X285139423Y-81376498D01*
X285150856Y-81414186D01*
X285161031Y-81517500D01*
X285206988Y-81669000D01*
X284769012Y-81669000D01*
X284814969Y-81517500D01*
X284825144Y-81414188D01*
X284836577Y-81376499D01*
X284853000Y-81209752D01*
X284853000Y-79217748D01*
X284836577Y-79051001D01*
X284827878Y-79022326D01*
X284814608Y-78887592D01*
X284765850Y-78726858D01*
X284686671Y-78578725D01*
X284610574Y-78486000D01*
X284686671Y-78393275D01*
X284765850Y-78245142D01*
X284814608Y-78084408D01*
X284831072Y-77917250D01*
X284831072Y-77479750D01*
X284814608Y-77312592D01*
X284765850Y-77151858D01*
X284686671Y-77003725D01*
X284636098Y-76942101D01*
X284713226Y-76755898D01*
X284753000Y-76555939D01*
X284753000Y-76352061D01*
X284713226Y-76152102D01*
X284635205Y-75963744D01*
X284521937Y-75794226D01*
X284377774Y-75650063D01*
X284208256Y-75536795D01*
X284019898Y-75458774D01*
X283819939Y-75419000D01*
X283616061Y-75419000D01*
X283416102Y-75458774D01*
X283227744Y-75536795D01*
X283058226Y-75650063D01*
X282914063Y-75794226D01*
X282800795Y-75963744D01*
X282722774Y-76152102D01*
X282683000Y-76352061D01*
X282683000Y-76555939D01*
X282722774Y-76755898D01*
X282799902Y-76942101D01*
X282749329Y-77003725D01*
X282670150Y-77151858D01*
X282621392Y-77312592D01*
X282604928Y-77479750D01*
X282604928Y-77917250D01*
X282621392Y-78084408D01*
X282670150Y-78245142D01*
X282749329Y-78393275D01*
X282825426Y-78486000D01*
X282749329Y-78578725D01*
X282670150Y-78726858D01*
X282621392Y-78887592D01*
X282608121Y-79022327D01*
X282599423Y-79051002D01*
X282583000Y-79217749D01*
X282583001Y-81209752D01*
X282599424Y-81376499D01*
X282610855Y-81414183D01*
X282621031Y-81517500D01*
X282666988Y-81669000D01*
X282248123Y-81669000D01*
X282274969Y-81580500D01*
X282285144Y-81477188D01*
X282296577Y-81439499D01*
X282313000Y-81272752D01*
X282313000Y-79217748D01*
X282296577Y-79051001D01*
X282287878Y-79022326D01*
X282274608Y-78887592D01*
X282225850Y-78726858D01*
X282146671Y-78578725D01*
X282070574Y-78486000D01*
X282146671Y-78393275D01*
X282225850Y-78245142D01*
X282274608Y-78084408D01*
X282291072Y-77917250D01*
X282291072Y-77479750D01*
X282274608Y-77312592D01*
X282225850Y-77151858D01*
X282146671Y-77003725D01*
X282096098Y-76942101D01*
X282173226Y-76755898D01*
X282213000Y-76555939D01*
X282213000Y-76352061D01*
X282173226Y-76152102D01*
X282095205Y-75963744D01*
X281981937Y-75794226D01*
X281837774Y-75650063D01*
X281668256Y-75536795D01*
X281479898Y-75458774D01*
X281279939Y-75419000D01*
X281076061Y-75419000D01*
X280876102Y-75458774D01*
X280687744Y-75536795D01*
X280518226Y-75650063D01*
X280374063Y-75794226D01*
X280260795Y-75963744D01*
X280182774Y-76152102D01*
X280143000Y-76352061D01*
X280143000Y-76555939D01*
X280182774Y-76755898D01*
X280259902Y-76942101D01*
X280209329Y-77003725D01*
X280130150Y-77151858D01*
X280081392Y-77312592D01*
X280064928Y-77479750D01*
X280064928Y-77917250D01*
X280081392Y-78084408D01*
X280130150Y-78245142D01*
X280209329Y-78393275D01*
X280285426Y-78486000D01*
X280209329Y-78578725D01*
X280130150Y-78726858D01*
X280081392Y-78887592D01*
X280068121Y-79022331D01*
X280059424Y-79051001D01*
X280043001Y-79217748D01*
X280043000Y-81272751D01*
X280059423Y-81439498D01*
X280070856Y-81477186D01*
X280081031Y-81580500D01*
X280107877Y-81669000D01*
X279771123Y-81669000D01*
X279797969Y-81580500D01*
X279808145Y-81477181D01*
X279819576Y-81439498D01*
X279841490Y-81216999D01*
X279819576Y-80994501D01*
X279808145Y-80956817D01*
X279797969Y-80853500D01*
X279773000Y-80771188D01*
X279773000Y-79217748D01*
X279756577Y-79051001D01*
X279747878Y-79022326D01*
X279734608Y-78887592D01*
X279685850Y-78726858D01*
X279606671Y-78578725D01*
X279530574Y-78486000D01*
X279606671Y-78393275D01*
X279685850Y-78245142D01*
X279734608Y-78084408D01*
X279751072Y-77917250D01*
X279751072Y-77479750D01*
X279734608Y-77312592D01*
X279685850Y-77151858D01*
X279606671Y-77003725D01*
X279556098Y-76942101D01*
X279633226Y-76755898D01*
X279673000Y-76555939D01*
X279673000Y-76352061D01*
X279633226Y-76152102D01*
X279555205Y-75963744D01*
X279441937Y-75794226D01*
X279297774Y-75650063D01*
X279128256Y-75536795D01*
X278939898Y-75458774D01*
X278739939Y-75419000D01*
X278536061Y-75419000D01*
X278336102Y-75458774D01*
X278147744Y-75536795D01*
X277978226Y-75650063D01*
X277834063Y-75794226D01*
X277720795Y-75963744D01*
X277642774Y-76152102D01*
X277603000Y-76352061D01*
X277603000Y-76555939D01*
X277642774Y-76755898D01*
X277719902Y-76942101D01*
X277669329Y-77003725D01*
X277590150Y-77151858D01*
X277541392Y-77312592D01*
X277524928Y-77479750D01*
X277524928Y-77917250D01*
X277541392Y-78084408D01*
X277590150Y-78245142D01*
X277669329Y-78393275D01*
X277745426Y-78486000D01*
X277669329Y-78578725D01*
X277590150Y-78726858D01*
X277541392Y-78887592D01*
X277528121Y-79022327D01*
X277519423Y-79051002D01*
X277503000Y-79217749D01*
X277503001Y-81098239D01*
X277497509Y-81154000D01*
X277519423Y-81376498D01*
X277584324Y-81590446D01*
X277623378Y-81663510D01*
X277626312Y-81669000D01*
X277168123Y-81669000D01*
X277194969Y-81580500D01*
X277205145Y-81477181D01*
X277216576Y-81439498D01*
X277238490Y-81216999D01*
X277216576Y-80994501D01*
X277207500Y-80964582D01*
X277207500Y-79217748D01*
X277191077Y-79051001D01*
X277182378Y-79022326D01*
X277169108Y-78887592D01*
X277120350Y-78726858D01*
X277041171Y-78578725D01*
X276965074Y-78486000D01*
X277041171Y-78393275D01*
X277120350Y-78245142D01*
X277169108Y-78084408D01*
X277185572Y-77917250D01*
X277185572Y-77479750D01*
X277169108Y-77312592D01*
X277120350Y-77151858D01*
X277041171Y-77003725D01*
X276997617Y-76950654D01*
X277067726Y-76781398D01*
X277107500Y-76581439D01*
X277107500Y-76377561D01*
X277067726Y-76177602D01*
X276989705Y-75989244D01*
X276876437Y-75819726D01*
X276732274Y-75675563D01*
X276562756Y-75562295D01*
X276374398Y-75484274D01*
X276174439Y-75444500D01*
X275970561Y-75444500D01*
X275770602Y-75484274D01*
X275582244Y-75562295D01*
X275412726Y-75675563D01*
X275268563Y-75819726D01*
X275254388Y-75840941D01*
X274103259Y-74689812D01*
X274080238Y-74661762D01*
X273968320Y-74569913D01*
X273840633Y-74501663D01*
X273702085Y-74459635D01*
X273594105Y-74449000D01*
X273558000Y-74445444D01*
X273521895Y-74449000D01*
X270292094Y-74449000D01*
X270255999Y-74445445D01*
X270219904Y-74449000D01*
X270219895Y-74449000D01*
X270111915Y-74459635D01*
X269973367Y-74501663D01*
X269845680Y-74569913D01*
X269733762Y-74661762D01*
X269710746Y-74689807D01*
X268237808Y-76162746D01*
X268209762Y-76185763D01*
X268117913Y-76297681D01*
X268049663Y-76425368D01*
X268023911Y-76510262D01*
X268007635Y-76563915D01*
X267993444Y-76708000D01*
X267997000Y-76744105D01*
X267997001Y-81760722D01*
X267619769Y-82137954D01*
X267567606Y-82074394D01*
X267528134Y-82042000D01*
X267567606Y-82009606D01*
X267671831Y-81882608D01*
X267749278Y-81737716D01*
X267796969Y-81580500D01*
X267807144Y-81477188D01*
X267818577Y-81439499D01*
X267835000Y-81272752D01*
X267835000Y-79343251D01*
X267840491Y-79287500D01*
X267832118Y-79202487D01*
X267818577Y-79065001D01*
X267791189Y-78974716D01*
X267782608Y-78887592D01*
X267733850Y-78726858D01*
X267654671Y-78578725D01*
X267578574Y-78486000D01*
X267654671Y-78393275D01*
X267733850Y-78245142D01*
X267782608Y-78084408D01*
X267799072Y-77917250D01*
X267799072Y-77479750D01*
X267782608Y-77312592D01*
X267733850Y-77151858D01*
X267654671Y-77003725D01*
X267607952Y-76946797D01*
X267681226Y-76769898D01*
X267721000Y-76569939D01*
X267721000Y-76366061D01*
X267681226Y-76166102D01*
X267603205Y-75977744D01*
X267489937Y-75808226D01*
X267345774Y-75664063D01*
X267176256Y-75550795D01*
X266987898Y-75472774D01*
X266787939Y-75433000D01*
X266584061Y-75433000D01*
X266384102Y-75472774D01*
X266195744Y-75550795D01*
X266087540Y-75623094D01*
X265408258Y-74943812D01*
X265385238Y-74915762D01*
X265273320Y-74823913D01*
X265145633Y-74755663D01*
X265007085Y-74713635D01*
X264899105Y-74703000D01*
X264863000Y-74699444D01*
X264826895Y-74703000D01*
X261416447Y-74703000D01*
X261149258Y-74435812D01*
X261126238Y-74407762D01*
X261014320Y-74315913D01*
X260886633Y-74247663D01*
X260748085Y-74205635D01*
X260640105Y-74195000D01*
X260604000Y-74191444D01*
X260567895Y-74195000D01*
X257860447Y-74195000D01*
X257085258Y-73419812D01*
X257062238Y-73391762D01*
X256950320Y-73299913D01*
X256822633Y-73231663D01*
X256684085Y-73189635D01*
X256576105Y-73179000D01*
X256540000Y-73175444D01*
X256503895Y-73179000D01*
X253034447Y-73179000D01*
X252715190Y-72859744D01*
X252701624Y-72843213D01*
X252909158Y-72801932D01*
X253179411Y-72689990D01*
X253422632Y-72527475D01*
X253629475Y-72320632D01*
X253746000Y-72146240D01*
X253862525Y-72320632D01*
X254069368Y-72527475D01*
X254312589Y-72689990D01*
X254582842Y-72801932D01*
X254869740Y-72859000D01*
X255162260Y-72859000D01*
X255449158Y-72801932D01*
X255719411Y-72689990D01*
X255962632Y-72527475D01*
X256169475Y-72320632D01*
X256286000Y-72146240D01*
X256402525Y-72320632D01*
X256609368Y-72527475D01*
X256852589Y-72689990D01*
X257122842Y-72801932D01*
X257409740Y-72859000D01*
X257702260Y-72859000D01*
X257989158Y-72801932D01*
X258259411Y-72689990D01*
X258502632Y-72527475D01*
X258709475Y-72320632D01*
X258826000Y-72146240D01*
X258942525Y-72320632D01*
X259149368Y-72527475D01*
X259392589Y-72689990D01*
X259662842Y-72801932D01*
X259949740Y-72859000D01*
X260242260Y-72859000D01*
X260529158Y-72801932D01*
X260799411Y-72689990D01*
X261042632Y-72527475D01*
X261249475Y-72320632D01*
X261366000Y-72146240D01*
X261482525Y-72320632D01*
X261689368Y-72527475D01*
X261932589Y-72689990D01*
X262202842Y-72801932D01*
X262489740Y-72859000D01*
X262782260Y-72859000D01*
X263069158Y-72801932D01*
X263339411Y-72689990D01*
X263582632Y-72527475D01*
X263789475Y-72320632D01*
X263906000Y-72146240D01*
X264022525Y-72320632D01*
X264229368Y-72527475D01*
X264472589Y-72689990D01*
X264742842Y-72801932D01*
X265029740Y-72859000D01*
X265322260Y-72859000D01*
X265609158Y-72801932D01*
X265879411Y-72689990D01*
X266122632Y-72527475D01*
X266329475Y-72320632D01*
X266446000Y-72146240D01*
X266562525Y-72320632D01*
X266769368Y-72527475D01*
X267012589Y-72689990D01*
X267282842Y-72801932D01*
X267569740Y-72859000D01*
X267862260Y-72859000D01*
X268149158Y-72801932D01*
X268419411Y-72689990D01*
X268662632Y-72527475D01*
X268869475Y-72320632D01*
X268986000Y-72146240D01*
X269102525Y-72320632D01*
X269309368Y-72527475D01*
X269552589Y-72689990D01*
X269822842Y-72801932D01*
X270109740Y-72859000D01*
X270402260Y-72859000D01*
X270689158Y-72801932D01*
X270959411Y-72689990D01*
X271202632Y-72527475D01*
X271409475Y-72320632D01*
X271526000Y-72146240D01*
X271642525Y-72320632D01*
X271849368Y-72527475D01*
X272092589Y-72689990D01*
X272362842Y-72801932D01*
X272649740Y-72859000D01*
X272942260Y-72859000D01*
X273229158Y-72801932D01*
X273499411Y-72689990D01*
X273742632Y-72527475D01*
X273949475Y-72320632D01*
X274066000Y-72146240D01*
X274182525Y-72320632D01*
X274389368Y-72527475D01*
X274632589Y-72689990D01*
X274902842Y-72801932D01*
X275189740Y-72859000D01*
X275482260Y-72859000D01*
X275769158Y-72801932D01*
X276039411Y-72689990D01*
X276282632Y-72527475D01*
X276489475Y-72320632D01*
X276606000Y-72146240D01*
X276722525Y-72320632D01*
X276929368Y-72527475D01*
X277172589Y-72689990D01*
X277442842Y-72801932D01*
X277729740Y-72859000D01*
X278022260Y-72859000D01*
X278309158Y-72801932D01*
X278579411Y-72689990D01*
X278822632Y-72527475D01*
X279029475Y-72320632D01*
X279146000Y-72146240D01*
X279262525Y-72320632D01*
X279469368Y-72527475D01*
X279712589Y-72689990D01*
X279982842Y-72801932D01*
X280269740Y-72859000D01*
X280562260Y-72859000D01*
X280849158Y-72801932D01*
X281119411Y-72689990D01*
X281362632Y-72527475D01*
X281569475Y-72320632D01*
X281686000Y-72146240D01*
X281802525Y-72320632D01*
X282009368Y-72527475D01*
X282252589Y-72689990D01*
X282522842Y-72801932D01*
X282809740Y-72859000D01*
X283102260Y-72859000D01*
X283389158Y-72801932D01*
X283659411Y-72689990D01*
X283902632Y-72527475D01*
X284109475Y-72320632D01*
X284226000Y-72146240D01*
X284342525Y-72320632D01*
X284549368Y-72527475D01*
X284792589Y-72689990D01*
X285062842Y-72801932D01*
X285349740Y-72859000D01*
X285642260Y-72859000D01*
X285929158Y-72801932D01*
X286199411Y-72689990D01*
X286442632Y-72527475D01*
X286574487Y-72395620D01*
X286596498Y-72468180D01*
X286655463Y-72578494D01*
X286734815Y-72675185D01*
X286831506Y-72754537D01*
X286941820Y-72813502D01*
X287061518Y-72849812D01*
X287186000Y-72862072D01*
X288886000Y-72862072D01*
X289010482Y-72849812D01*
X289130180Y-72813502D01*
X289240494Y-72754537D01*
X289337185Y-72675185D01*
X289416537Y-72578494D01*
X289475502Y-72468180D01*
X289511812Y-72348482D01*
X289524072Y-72224000D01*
X289524072Y-70524000D01*
X289511812Y-70399518D01*
X289475502Y-70279820D01*
X289416537Y-70169506D01*
X289337185Y-70072815D01*
X289250896Y-70002000D01*
X290170000Y-70002000D01*
X290170001Y-99535572D01*
G37*
%TD.AperFunction*%
D17*
X237918171Y-94509258D02*
X238054418Y-94582084D01*
X238202255Y-94626929D01*
X238356000Y-94642072D01*
X238656000Y-94642072D01*
X238809745Y-94626929D01*
X238957582Y-94582084D01*
X239003184Y-94557709D01*
X238992164Y-94613111D01*
X238992164Y-94816989D01*
X239023019Y-94972110D01*
X238971930Y-95023199D01*
X238858662Y-95192717D01*
X238780641Y-95381075D01*
X238740867Y-95581034D01*
X238740867Y-95784912D01*
X238780641Y-95984871D01*
X238858662Y-96173229D01*
X238866069Y-96184314D01*
X238860447Y-96192727D01*
X238783502Y-96378486D01*
X238656000Y-96365928D01*
X238356000Y-96365928D01*
X238202255Y-96381071D01*
X238054418Y-96425916D01*
X237918171Y-96498742D01*
X237871000Y-96537454D01*
X237823829Y-96498742D01*
X237687582Y-96425916D01*
X237539745Y-96381071D01*
X237386000Y-96365928D01*
X237086000Y-96365928D01*
X236932255Y-96381071D01*
X236784418Y-96425916D01*
X236648171Y-96498742D01*
X236601000Y-96537454D01*
X236553829Y-96498742D01*
X236417582Y-96425916D01*
X236269745Y-96381071D01*
X236116000Y-96365928D01*
X235816000Y-96365928D01*
X235662255Y-96381071D01*
X235514418Y-96425916D01*
X235378171Y-96498742D01*
X235331000Y-96537454D01*
X235283829Y-96498742D01*
X235147582Y-96425916D01*
X234999745Y-96381071D01*
X234846000Y-96365928D01*
X234546000Y-96365928D01*
X234392255Y-96381071D01*
X234244418Y-96425916D01*
X234108171Y-96498742D01*
X234061000Y-96537454D01*
X234013829Y-96498742D01*
X233877582Y-96425916D01*
X233729745Y-96381071D01*
X233576000Y-96365928D01*
X233276000Y-96365928D01*
X233122255Y-96381071D01*
X232974418Y-96425916D01*
X232891000Y-96470504D01*
X232891000Y-96359781D01*
X232894555Y-96323684D01*
X232891000Y-96287587D01*
X232891000Y-96287580D01*
X232880365Y-96179600D01*
X232878433Y-96173229D01*
X232858813Y-96108554D01*
X232838337Y-96041052D01*
X232770087Y-95913365D01*
X232678238Y-95801447D01*
X232650193Y-95778431D01*
X231453043Y-94581281D01*
X231540494Y-94534537D01*
X231570064Y-94510270D01*
X231704418Y-94582084D01*
X231852255Y-94626929D01*
X232006000Y-94642072D01*
X232306000Y-94642072D01*
X232459745Y-94626929D01*
X232607582Y-94582084D01*
X232743829Y-94509258D01*
X232791000Y-94470546D01*
X232838171Y-94509258D01*
X232974418Y-94582084D01*
X233122255Y-94626929D01*
X233276000Y-94642072D01*
X233576000Y-94642072D01*
X233729745Y-94626929D01*
X233877582Y-94582084D01*
X234013829Y-94509258D01*
X234061000Y-94470546D01*
X234108171Y-94509258D01*
X234244418Y-94582084D01*
X234392255Y-94626929D01*
X234546000Y-94642072D01*
X234846000Y-94642072D01*
X234999745Y-94626929D01*
X235147582Y-94582084D01*
X235283829Y-94509258D01*
X235331000Y-94470546D01*
X235378171Y-94509258D01*
X235514418Y-94582084D01*
X235662255Y-94626929D01*
X235816000Y-94642072D01*
X236116000Y-94642072D01*
X236269745Y-94626929D01*
X236417582Y-94582084D01*
X236553829Y-94509258D01*
X236601000Y-94470546D01*
X236648171Y-94509258D01*
X236784418Y-94582084D01*
X236932255Y-94626929D01*
X237086000Y-94642072D01*
X237386000Y-94642072D01*
X237539745Y-94626929D01*
X237687582Y-94582084D01*
X237823829Y-94509258D01*
X237871000Y-94470546D01*
X237918171Y-94509258D01*
%TA.AperFunction,Conductor*%
D18*
G36*
X237918171Y-94509258D02*
G01*
X238054418Y-94582084D01*
X238202255Y-94626929D01*
X238356000Y-94642072D01*
X238656000Y-94642072D01*
X238809745Y-94626929D01*
X238957582Y-94582084D01*
X239003184Y-94557709D01*
X238992164Y-94613111D01*
X238992164Y-94816989D01*
X239023019Y-94972110D01*
X238971930Y-95023199D01*
X238858662Y-95192717D01*
X238780641Y-95381075D01*
X238740867Y-95581034D01*
X238740867Y-95784912D01*
X238780641Y-95984871D01*
X238858662Y-96173229D01*
X238866069Y-96184314D01*
X238860447Y-96192727D01*
X238783502Y-96378486D01*
X238656000Y-96365928D01*
X238356000Y-96365928D01*
X238202255Y-96381071D01*
X238054418Y-96425916D01*
X237918171Y-96498742D01*
X237871000Y-96537454D01*
X237823829Y-96498742D01*
X237687582Y-96425916D01*
X237539745Y-96381071D01*
X237386000Y-96365928D01*
X237086000Y-96365928D01*
X236932255Y-96381071D01*
X236784418Y-96425916D01*
X236648171Y-96498742D01*
X236601000Y-96537454D01*
X236553829Y-96498742D01*
X236417582Y-96425916D01*
X236269745Y-96381071D01*
X236116000Y-96365928D01*
X235816000Y-96365928D01*
X235662255Y-96381071D01*
X235514418Y-96425916D01*
X235378171Y-96498742D01*
X235331000Y-96537454D01*
X235283829Y-96498742D01*
X235147582Y-96425916D01*
X234999745Y-96381071D01*
X234846000Y-96365928D01*
X234546000Y-96365928D01*
X234392255Y-96381071D01*
X234244418Y-96425916D01*
X234108171Y-96498742D01*
X234061000Y-96537454D01*
X234013829Y-96498742D01*
X233877582Y-96425916D01*
X233729745Y-96381071D01*
X233576000Y-96365928D01*
X233276000Y-96365928D01*
X233122255Y-96381071D01*
X232974418Y-96425916D01*
X232891000Y-96470504D01*
X232891000Y-96359781D01*
X232894555Y-96323684D01*
X232891000Y-96287587D01*
X232891000Y-96287580D01*
X232880365Y-96179600D01*
X232878433Y-96173229D01*
X232858813Y-96108554D01*
X232838337Y-96041052D01*
X232770087Y-95913365D01*
X232678238Y-95801447D01*
X232650193Y-95778431D01*
X231453043Y-94581281D01*
X231540494Y-94534537D01*
X231570064Y-94510270D01*
X231704418Y-94582084D01*
X231852255Y-94626929D01*
X232006000Y-94642072D01*
X232306000Y-94642072D01*
X232459745Y-94626929D01*
X232607582Y-94582084D01*
X232743829Y-94509258D01*
X232791000Y-94470546D01*
X232838171Y-94509258D01*
X232974418Y-94582084D01*
X233122255Y-94626929D01*
X233276000Y-94642072D01*
X233576000Y-94642072D01*
X233729745Y-94626929D01*
X233877582Y-94582084D01*
X234013829Y-94509258D01*
X234061000Y-94470546D01*
X234108171Y-94509258D01*
X234244418Y-94582084D01*
X234392255Y-94626929D01*
X234546000Y-94642072D01*
X234846000Y-94642072D01*
X234999745Y-94626929D01*
X235147582Y-94582084D01*
X235283829Y-94509258D01*
X235331000Y-94470546D01*
X235378171Y-94509258D01*
X235514418Y-94582084D01*
X235662255Y-94626929D01*
X235816000Y-94642072D01*
X236116000Y-94642072D01*
X236269745Y-94626929D01*
X236417582Y-94582084D01*
X236553829Y-94509258D01*
X236601000Y-94470546D01*
X236648171Y-94509258D01*
X236784418Y-94582084D01*
X236932255Y-94626929D01*
X237086000Y-94642072D01*
X237386000Y-94642072D01*
X237539745Y-94626929D01*
X237687582Y-94582084D01*
X237823829Y-94509258D01*
X237871000Y-94470546D01*
X237918171Y-94509258D01*
G37*
%TD.AperFunction*%
D17*
X229960188Y-91929518D02*
X229947928Y-92054000D01*
X229951000Y-92743250D01*
X230109750Y-92902000D01*
X230759000Y-92902000D01*
X230759000Y-92882000D01*
X231013000Y-92882000D01*
X231013000Y-92902000D01*
X231033000Y-92902000D01*
X231033000Y-93156000D01*
X231013000Y-93156000D01*
X231013000Y-93176000D01*
X230759000Y-93176000D01*
X230759000Y-93156000D01*
X230109750Y-93156000D01*
X230068756Y-93196994D01*
X229784916Y-92913155D01*
X229849226Y-92757898D01*
X229889000Y-92557939D01*
X229889000Y-92354061D01*
X229849226Y-92154102D01*
X229771205Y-91965744D01*
X229741308Y-91921000D01*
X229962772Y-91921000D01*
X229960188Y-91929518D01*
%TA.AperFunction,Conductor*%
D18*
G36*
X229960188Y-91929518D02*
G01*
X229947928Y-92054000D01*
X229951000Y-92743250D01*
X230109750Y-92902000D01*
X230759000Y-92902000D01*
X230759000Y-92882000D01*
X231013000Y-92882000D01*
X231013000Y-92902000D01*
X231033000Y-92902000D01*
X231033000Y-93156000D01*
X231013000Y-93156000D01*
X231013000Y-93176000D01*
X230759000Y-93176000D01*
X230759000Y-93156000D01*
X230109750Y-93156000D01*
X230068756Y-93196994D01*
X229784916Y-92913155D01*
X229849226Y-92757898D01*
X229889000Y-92557939D01*
X229889000Y-92354061D01*
X229849226Y-92154102D01*
X229771205Y-91965744D01*
X229741308Y-91921000D01*
X229962772Y-91921000D01*
X229960188Y-91929518D01*
G37*
%TD.AperFunction*%
D17*
X234708985Y-89408235D02*
X234699678Y-89408235D01*
X234677002Y-89385559D01*
X234677002Y-89376252D01*
X234708985Y-89408235D01*
%TA.AperFunction,Conductor*%
D18*
G36*
X234708985Y-89408235D02*
G01*
X234699678Y-89408235D01*
X234677002Y-89385559D01*
X234677002Y-89376252D01*
X234708985Y-89408235D01*
G37*
%TD.AperFunction*%
D17*
X244152589Y-70058010D02*
X243909368Y-70220525D01*
X243702525Y-70427368D01*
X243540010Y-70670589D01*
X243428068Y-70940842D01*
X243371000Y-71227740D01*
X243371000Y-71520260D01*
X243428068Y-71807158D01*
X243540010Y-72077411D01*
X243702525Y-72320632D01*
X243909368Y-72527475D01*
X244152589Y-72689990D01*
X244422842Y-72801932D01*
X244709740Y-72859000D01*
X245002260Y-72859000D01*
X245289158Y-72801932D01*
X245559411Y-72689990D01*
X245802632Y-72527475D01*
X246009475Y-72320632D01*
X246126000Y-72146240D01*
X246242525Y-72320632D01*
X246449368Y-72527475D01*
X246692589Y-72689990D01*
X246962346Y-72801726D01*
X246925830Y-72831694D01*
X246902814Y-72859739D01*
X245061809Y-74700745D01*
X245033763Y-74723762D01*
X244941914Y-74835680D01*
X244873664Y-74963367D01*
X244848086Y-75047686D01*
X244831636Y-75101914D01*
X244817445Y-75245999D01*
X244821001Y-75282105D01*
X244821002Y-75977553D01*
X244263072Y-76535484D01*
X244263072Y-76337500D01*
X244248170Y-76186193D01*
X244204035Y-76040701D01*
X244132365Y-75906615D01*
X244081004Y-75844032D01*
X244245774Y-75733937D01*
X244389937Y-75589774D01*
X244503205Y-75420256D01*
X244581226Y-75231898D01*
X244621000Y-75031939D01*
X244621000Y-74828061D01*
X244581226Y-74628102D01*
X244503205Y-74439744D01*
X244389937Y-74270226D01*
X244245774Y-74126063D01*
X244076256Y-74012795D01*
X243887898Y-73934774D01*
X243687939Y-73895000D01*
X243484061Y-73895000D01*
X243284102Y-73934774D01*
X243095744Y-74012795D01*
X242926226Y-74126063D01*
X242782063Y-74270226D01*
X242668795Y-74439744D01*
X242590774Y-74628102D01*
X242551000Y-74828061D01*
X242551000Y-75031939D01*
X242590774Y-75231898D01*
X242668795Y-75420256D01*
X242768808Y-75569936D01*
X242687500Y-75561928D01*
X242412500Y-75561928D01*
X242261193Y-75576830D01*
X242150000Y-75610560D01*
X242038807Y-75576830D01*
X241887500Y-75561928D01*
X241612500Y-75561928D01*
X241461193Y-75576830D01*
X241350000Y-75610560D01*
X241238807Y-75576830D01*
X241087500Y-75561928D01*
X240812500Y-75561928D01*
X240661193Y-75576830D01*
X240550000Y-75610560D01*
X240438807Y-75576830D01*
X240287500Y-75561928D01*
X240012500Y-75561928D01*
X239861193Y-75576830D01*
X239750000Y-75610560D01*
X239638807Y-75576830D01*
X239487500Y-75561928D01*
X239212500Y-75561928D01*
X239061193Y-75576830D01*
X238950000Y-75610560D01*
X238838807Y-75576830D01*
X238687500Y-75561928D01*
X238412500Y-75561928D01*
X238261193Y-75576830D01*
X238150000Y-75610560D01*
X238038807Y-75576830D01*
X237887500Y-75561928D01*
X237612500Y-75561928D01*
X237461193Y-75576830D01*
X237350000Y-75610560D01*
X237238807Y-75576830D01*
X237087500Y-75561928D01*
X236812500Y-75561928D01*
X236661193Y-75576830D01*
X236550000Y-75610560D01*
X236438807Y-75576830D01*
X236287500Y-75561928D01*
X236012500Y-75561928D01*
X235861193Y-75576830D01*
X235809702Y-75592450D01*
X235752595Y-75574816D01*
X235635750Y-75565000D01*
X235477000Y-75723750D01*
X235477000Y-75778491D01*
X235464088Y-75789088D01*
X235367635Y-75906615D01*
X235350000Y-75939608D01*
X235332365Y-75906615D01*
X235285000Y-75848901D01*
X235285000Y-75836105D01*
X235288556Y-75800000D01*
X235274365Y-75655915D01*
X235232337Y-75517366D01*
X235164087Y-75389680D01*
X235138981Y-75359088D01*
X235072238Y-75277762D01*
X235044193Y-75254746D01*
X234969000Y-75179553D01*
X234969000Y-75082061D01*
X234940142Y-74936982D01*
X235017820Y-74978502D01*
X235137518Y-75014812D01*
X235262000Y-75027072D01*
X235426250Y-75024000D01*
X235585000Y-74865250D01*
X235585000Y-74041000D01*
X235839000Y-74041000D01*
X235839000Y-74865250D01*
X235997750Y-75024000D01*
X236162000Y-75027072D01*
X236286482Y-75014812D01*
X236406180Y-74978502D01*
X236516494Y-74919537D01*
X236613185Y-74840185D01*
X236692537Y-74743494D01*
X236751502Y-74633180D01*
X236787812Y-74513482D01*
X236800072Y-74389000D01*
X236797000Y-74199750D01*
X236638250Y-74041000D01*
X235839000Y-74041000D01*
X235585000Y-74041000D01*
X235565000Y-74041000D01*
X235565000Y-73787000D01*
X235585000Y-73787000D01*
X235585000Y-72962750D01*
X235839000Y-72962750D01*
X235839000Y-73787000D01*
X236638250Y-73787000D01*
X236797000Y-73628250D01*
X236800072Y-73439000D01*
X236787812Y-73314518D01*
X236751502Y-73194820D01*
X236692537Y-73084506D01*
X236613185Y-72987815D01*
X236516494Y-72908463D01*
X236406180Y-72849498D01*
X236286482Y-72813188D01*
X236162000Y-72800928D01*
X235997750Y-72804000D01*
X235839000Y-72962750D01*
X235585000Y-72962750D01*
X235426250Y-72804000D01*
X235262000Y-72800928D01*
X235137518Y-72813188D01*
X235017820Y-72849498D01*
X234907506Y-72908463D01*
X234863351Y-72944700D01*
X234717283Y-72866625D01*
X234555377Y-72817512D01*
X234387000Y-72800928D01*
X233937000Y-72800928D01*
X233768623Y-72817512D01*
X233606717Y-72866625D01*
X233457503Y-72946382D01*
X233326716Y-73053716D01*
X233219382Y-73184503D01*
X233139625Y-73333717D01*
X233090512Y-73495623D01*
X233073928Y-73664000D01*
X233073928Y-74164000D01*
X233090512Y-74332377D01*
X233139625Y-74494283D01*
X233146724Y-74507565D01*
X233130063Y-74524226D01*
X233016795Y-74693744D01*
X232938774Y-74882102D01*
X232899000Y-75082061D01*
X232899000Y-75285939D01*
X232938774Y-75485898D01*
X232970267Y-75561928D01*
X232812500Y-75561928D01*
X232661193Y-75576830D01*
X232550000Y-75610560D01*
X232438807Y-75576830D01*
X232287500Y-75561928D01*
X232103733Y-75561928D01*
X232135226Y-75485898D01*
X232175000Y-75285939D01*
X232175000Y-75082061D01*
X232135226Y-74882102D01*
X232057205Y-74693744D01*
X231943937Y-74524226D01*
X231799774Y-74380063D01*
X231630256Y-74266795D01*
X231441898Y-74188774D01*
X231280089Y-74156588D01*
X231349831Y-74071608D01*
X231427278Y-73926716D01*
X231474969Y-73769500D01*
X231491072Y-73606000D01*
X231491072Y-73206000D01*
X231474969Y-73042500D01*
X231427278Y-72885284D01*
X231349831Y-72740392D01*
X231245606Y-72613394D01*
X231206134Y-72581000D01*
X231245606Y-72548606D01*
X231349831Y-72421608D01*
X231427278Y-72276716D01*
X231474969Y-72119500D01*
X231491072Y-71956000D01*
X231491072Y-71556000D01*
X231474969Y-71392500D01*
X231427278Y-71235284D01*
X231349831Y-71090392D01*
X231245606Y-70963394D01*
X231118608Y-70859169D01*
X230973716Y-70781722D01*
X230816500Y-70734031D01*
X230653000Y-70717928D01*
X230103000Y-70717928D01*
X229939500Y-70734031D01*
X229782284Y-70781722D01*
X229637392Y-70859169D01*
X229622976Y-70871000D01*
X229609024Y-70871000D01*
X229594608Y-70859169D01*
X229449716Y-70781722D01*
X229292500Y-70734031D01*
X229129000Y-70717928D01*
X228579000Y-70717928D01*
X228415500Y-70734031D01*
X228258284Y-70781722D01*
X228113392Y-70859169D01*
X228098976Y-70871000D01*
X228085024Y-70871000D01*
X228070608Y-70859169D01*
X227925716Y-70781722D01*
X227768500Y-70734031D01*
X227605000Y-70717928D01*
X227055000Y-70717928D01*
X226891500Y-70734031D01*
X226734284Y-70781722D01*
X226589392Y-70859169D01*
X226462394Y-70963394D01*
X226358169Y-71090392D01*
X226280722Y-71235284D01*
X226233031Y-71392500D01*
X226216928Y-71556000D01*
X226216928Y-71617493D01*
X225122955Y-72711467D01*
X225089182Y-72739184D01*
X224978588Y-72873943D01*
X224896410Y-73027689D01*
X224867386Y-73123367D01*
X224850510Y-73179000D01*
X224845804Y-73194512D01*
X224832999Y-73324525D01*
X224832999Y-73324532D01*
X224828718Y-73368001D01*
X224832999Y-73411470D01*
X224833000Y-75413422D01*
X224677422Y-75569000D01*
X223193329Y-75569000D01*
X223149475Y-75503368D01*
X223017620Y-75371513D01*
X223090180Y-75349502D01*
X223200494Y-75290537D01*
X223297185Y-75211185D01*
X223376537Y-75114494D01*
X223435502Y-75004180D01*
X223471812Y-74884482D01*
X223484072Y-74760000D01*
X223481000Y-74195750D01*
X223322250Y-74037000D01*
X222123000Y-74037000D01*
X222123000Y-74057000D01*
X221869000Y-74057000D01*
X221869000Y-74037000D01*
X221849000Y-74037000D01*
X221849000Y-73783000D01*
X221869000Y-73783000D01*
X221869000Y-72583750D01*
X222123000Y-72583750D01*
X222123000Y-73783000D01*
X223322250Y-73783000D01*
X223481000Y-73624250D01*
X223484072Y-73060000D01*
X223471812Y-72935518D01*
X223435502Y-72815820D01*
X223376537Y-72705506D01*
X223297185Y-72608815D01*
X223200494Y-72529463D01*
X223090180Y-72470498D01*
X222970482Y-72434188D01*
X222846000Y-72421928D01*
X222281750Y-72425000D01*
X222123000Y-72583750D01*
X221869000Y-72583750D01*
X221710250Y-72425000D01*
X221146000Y-72421928D01*
X221021518Y-72434188D01*
X220901820Y-72470498D01*
X220791506Y-72529463D01*
X220694815Y-72608815D01*
X220624000Y-72695104D01*
X220624000Y-70002000D01*
X244287810Y-70002000D01*
X244152589Y-70058010D01*
%TA.AperFunction,Conductor*%
D18*
G36*
X244152589Y-70058010D02*
G01*
X243909368Y-70220525D01*
X243702525Y-70427368D01*
X243540010Y-70670589D01*
X243428068Y-70940842D01*
X243371000Y-71227740D01*
X243371000Y-71520260D01*
X243428068Y-71807158D01*
X243540010Y-72077411D01*
X243702525Y-72320632D01*
X243909368Y-72527475D01*
X244152589Y-72689990D01*
X244422842Y-72801932D01*
X244709740Y-72859000D01*
X245002260Y-72859000D01*
X245289158Y-72801932D01*
X245559411Y-72689990D01*
X245802632Y-72527475D01*
X246009475Y-72320632D01*
X246126000Y-72146240D01*
X246242525Y-72320632D01*
X246449368Y-72527475D01*
X246692589Y-72689990D01*
X246962346Y-72801726D01*
X246925830Y-72831694D01*
X246902814Y-72859739D01*
X245061809Y-74700745D01*
X245033763Y-74723762D01*
X244941914Y-74835680D01*
X244873664Y-74963367D01*
X244848086Y-75047686D01*
X244831636Y-75101914D01*
X244817445Y-75245999D01*
X244821001Y-75282105D01*
X244821002Y-75977553D01*
X244263072Y-76535484D01*
X244263072Y-76337500D01*
X244248170Y-76186193D01*
X244204035Y-76040701D01*
X244132365Y-75906615D01*
X244081004Y-75844032D01*
X244245774Y-75733937D01*
X244389937Y-75589774D01*
X244503205Y-75420256D01*
X244581226Y-75231898D01*
X244621000Y-75031939D01*
X244621000Y-74828061D01*
X244581226Y-74628102D01*
X244503205Y-74439744D01*
X244389937Y-74270226D01*
X244245774Y-74126063D01*
X244076256Y-74012795D01*
X243887898Y-73934774D01*
X243687939Y-73895000D01*
X243484061Y-73895000D01*
X243284102Y-73934774D01*
X243095744Y-74012795D01*
X242926226Y-74126063D01*
X242782063Y-74270226D01*
X242668795Y-74439744D01*
X242590774Y-74628102D01*
X242551000Y-74828061D01*
X242551000Y-75031939D01*
X242590774Y-75231898D01*
X242668795Y-75420256D01*
X242768808Y-75569936D01*
X242687500Y-75561928D01*
X242412500Y-75561928D01*
X242261193Y-75576830D01*
X242150000Y-75610560D01*
X242038807Y-75576830D01*
X241887500Y-75561928D01*
X241612500Y-75561928D01*
X241461193Y-75576830D01*
X241350000Y-75610560D01*
X241238807Y-75576830D01*
X241087500Y-75561928D01*
X240812500Y-75561928D01*
X240661193Y-75576830D01*
X240550000Y-75610560D01*
X240438807Y-75576830D01*
X240287500Y-75561928D01*
X240012500Y-75561928D01*
X239861193Y-75576830D01*
X239750000Y-75610560D01*
X239638807Y-75576830D01*
X239487500Y-75561928D01*
X239212500Y-75561928D01*
X239061193Y-75576830D01*
X238950000Y-75610560D01*
X238838807Y-75576830D01*
X238687500Y-75561928D01*
X238412500Y-75561928D01*
X238261193Y-75576830D01*
X238150000Y-75610560D01*
X238038807Y-75576830D01*
X237887500Y-75561928D01*
X237612500Y-75561928D01*
X237461193Y-75576830D01*
X237350000Y-75610560D01*
X237238807Y-75576830D01*
X237087500Y-75561928D01*
X236812500Y-75561928D01*
X236661193Y-75576830D01*
X236550000Y-75610560D01*
X236438807Y-75576830D01*
X236287500Y-75561928D01*
X236012500Y-75561928D01*
X235861193Y-75576830D01*
X235809702Y-75592450D01*
X235752595Y-75574816D01*
X235635750Y-75565000D01*
X235477000Y-75723750D01*
X235477000Y-75778491D01*
X235464088Y-75789088D01*
X235367635Y-75906615D01*
X235350000Y-75939608D01*
X235332365Y-75906615D01*
X235285000Y-75848901D01*
X235285000Y-75836105D01*
X235288556Y-75800000D01*
X235274365Y-75655915D01*
X235232337Y-75517366D01*
X235164087Y-75389680D01*
X235138981Y-75359088D01*
X235072238Y-75277762D01*
X235044193Y-75254746D01*
X234969000Y-75179553D01*
X234969000Y-75082061D01*
X234940142Y-74936982D01*
X235017820Y-74978502D01*
X235137518Y-75014812D01*
X235262000Y-75027072D01*
X235426250Y-75024000D01*
X235585000Y-74865250D01*
X235585000Y-74041000D01*
X235839000Y-74041000D01*
X235839000Y-74865250D01*
X235997750Y-75024000D01*
X236162000Y-75027072D01*
X236286482Y-75014812D01*
X236406180Y-74978502D01*
X236516494Y-74919537D01*
X236613185Y-74840185D01*
X236692537Y-74743494D01*
X236751502Y-74633180D01*
X236787812Y-74513482D01*
X236800072Y-74389000D01*
X236797000Y-74199750D01*
X236638250Y-74041000D01*
X235839000Y-74041000D01*
X235585000Y-74041000D01*
X235565000Y-74041000D01*
X235565000Y-73787000D01*
X235585000Y-73787000D01*
X235585000Y-72962750D01*
X235839000Y-72962750D01*
X235839000Y-73787000D01*
X236638250Y-73787000D01*
X236797000Y-73628250D01*
X236800072Y-73439000D01*
X236787812Y-73314518D01*
X236751502Y-73194820D01*
X236692537Y-73084506D01*
X236613185Y-72987815D01*
X236516494Y-72908463D01*
X236406180Y-72849498D01*
X236286482Y-72813188D01*
X236162000Y-72800928D01*
X235997750Y-72804000D01*
X235839000Y-72962750D01*
X235585000Y-72962750D01*
X235426250Y-72804000D01*
X235262000Y-72800928D01*
X235137518Y-72813188D01*
X235017820Y-72849498D01*
X234907506Y-72908463D01*
X234863351Y-72944700D01*
X234717283Y-72866625D01*
X234555377Y-72817512D01*
X234387000Y-72800928D01*
X233937000Y-72800928D01*
X233768623Y-72817512D01*
X233606717Y-72866625D01*
X233457503Y-72946382D01*
X233326716Y-73053716D01*
X233219382Y-73184503D01*
X233139625Y-73333717D01*
X233090512Y-73495623D01*
X233073928Y-73664000D01*
X233073928Y-74164000D01*
X233090512Y-74332377D01*
X233139625Y-74494283D01*
X233146724Y-74507565D01*
X233130063Y-74524226D01*
X233016795Y-74693744D01*
X232938774Y-74882102D01*
X232899000Y-75082061D01*
X232899000Y-75285939D01*
X232938774Y-75485898D01*
X232970267Y-75561928D01*
X232812500Y-75561928D01*
X232661193Y-75576830D01*
X232550000Y-75610560D01*
X232438807Y-75576830D01*
X232287500Y-75561928D01*
X232103733Y-75561928D01*
X232135226Y-75485898D01*
X232175000Y-75285939D01*
X232175000Y-75082061D01*
X232135226Y-74882102D01*
X232057205Y-74693744D01*
X231943937Y-74524226D01*
X231799774Y-74380063D01*
X231630256Y-74266795D01*
X231441898Y-74188774D01*
X231280089Y-74156588D01*
X231349831Y-74071608D01*
X231427278Y-73926716D01*
X231474969Y-73769500D01*
X231491072Y-73606000D01*
X231491072Y-73206000D01*
X231474969Y-73042500D01*
X231427278Y-72885284D01*
X231349831Y-72740392D01*
X231245606Y-72613394D01*
X231206134Y-72581000D01*
X231245606Y-72548606D01*
X231349831Y-72421608D01*
X231427278Y-72276716D01*
X231474969Y-72119500D01*
X231491072Y-71956000D01*
X231491072Y-71556000D01*
X231474969Y-71392500D01*
X231427278Y-71235284D01*
X231349831Y-71090392D01*
X231245606Y-70963394D01*
X231118608Y-70859169D01*
X230973716Y-70781722D01*
X230816500Y-70734031D01*
X230653000Y-70717928D01*
X230103000Y-70717928D01*
X229939500Y-70734031D01*
X229782284Y-70781722D01*
X229637392Y-70859169D01*
X229622976Y-70871000D01*
X229609024Y-70871000D01*
X229594608Y-70859169D01*
X229449716Y-70781722D01*
X229292500Y-70734031D01*
X229129000Y-70717928D01*
X228579000Y-70717928D01*
X228415500Y-70734031D01*
X228258284Y-70781722D01*
X228113392Y-70859169D01*
X228098976Y-70871000D01*
X228085024Y-70871000D01*
X228070608Y-70859169D01*
X227925716Y-70781722D01*
X227768500Y-70734031D01*
X227605000Y-70717928D01*
X227055000Y-70717928D01*
X226891500Y-70734031D01*
X226734284Y-70781722D01*
X226589392Y-70859169D01*
X226462394Y-70963394D01*
X226358169Y-71090392D01*
X226280722Y-71235284D01*
X226233031Y-71392500D01*
X226216928Y-71556000D01*
X226216928Y-71617493D01*
X225122955Y-72711467D01*
X225089182Y-72739184D01*
X224978588Y-72873943D01*
X224896410Y-73027689D01*
X224867386Y-73123367D01*
X224850510Y-73179000D01*
X224845804Y-73194512D01*
X224832999Y-73324525D01*
X224832999Y-73324532D01*
X224828718Y-73368001D01*
X224832999Y-73411470D01*
X224833000Y-75413422D01*
X224677422Y-75569000D01*
X223193329Y-75569000D01*
X223149475Y-75503368D01*
X223017620Y-75371513D01*
X223090180Y-75349502D01*
X223200494Y-75290537D01*
X223297185Y-75211185D01*
X223376537Y-75114494D01*
X223435502Y-75004180D01*
X223471812Y-74884482D01*
X223484072Y-74760000D01*
X223481000Y-74195750D01*
X223322250Y-74037000D01*
X222123000Y-74037000D01*
X222123000Y-74057000D01*
X221869000Y-74057000D01*
X221869000Y-74037000D01*
X221849000Y-74037000D01*
X221849000Y-73783000D01*
X221869000Y-73783000D01*
X221869000Y-72583750D01*
X222123000Y-72583750D01*
X222123000Y-73783000D01*
X223322250Y-73783000D01*
X223481000Y-73624250D01*
X223484072Y-73060000D01*
X223471812Y-72935518D01*
X223435502Y-72815820D01*
X223376537Y-72705506D01*
X223297185Y-72608815D01*
X223200494Y-72529463D01*
X223090180Y-72470498D01*
X222970482Y-72434188D01*
X222846000Y-72421928D01*
X222281750Y-72425000D01*
X222123000Y-72583750D01*
X221869000Y-72583750D01*
X221710250Y-72425000D01*
X221146000Y-72421928D01*
X221021518Y-72434188D01*
X220901820Y-72470498D01*
X220791506Y-72529463D01*
X220694815Y-72608815D01*
X220624000Y-72695104D01*
X220624000Y-70002000D01*
X244287810Y-70002000D01*
X244152589Y-70058010D01*
G37*
%TD.AperFunction*%
D17*
X220694815Y-75211185D02*
X220791506Y-75290537D01*
X220901820Y-75349502D01*
X220974380Y-75371513D01*
X220842525Y-75503368D01*
X220680010Y-75746589D01*
X220624000Y-75881810D01*
X220624000Y-75124896D01*
X220694815Y-75211185D01*
%TA.AperFunction,Conductor*%
D18*
G36*
X220694815Y-75211185D02*
G01*
X220791506Y-75290537D01*
X220901820Y-75349502D01*
X220974380Y-75371513D01*
X220842525Y-75503368D01*
X220680010Y-75746589D01*
X220624000Y-75881810D01*
X220624000Y-75124896D01*
X220694815Y-75211185D01*
G37*
%TD.AperFunction*%
%TD*%
M02*
