M48
; DRILL file {KiCad (5.1.9-0-10_14)} date Wednesday, April 21, 2021 at 09:15:23 AM
; FORMAT={-:-/ absolute / inch / decimal}
; #@! TF.CreationDate,2021-04-21T09:15:23-04:00
; #@! TF.GenerationSoftware,Kicad,Pcbnew,(5.1.9-0-10_14)
; #@! TF.FileFunction,Plated,1,2,PTH
FMAT,2
INCH
T1C0.0157
T2C0.0315
T3C0.0354
T4C0.0394
%
G90
G05
T1
X4.145Y-1.82
T2
X3.455Y-2.1775
X3.455Y-2.4775
X3.46Y-1.6675
X3.46Y-1.9675
X3.52Y-3.02
X3.52Y-3.42
X3.555Y-2.1775
X3.555Y-2.4775
X3.56Y-1.6675
X3.56Y-1.9675
X3.655Y-2.1775
X3.655Y-2.4775
X3.66Y-1.6675
X3.66Y-1.9675
X3.755Y-2.1775
X3.755Y-2.4775
X3.76Y-1.6675
X3.76Y-1.9675
X3.7825Y-3.0225
X3.7825Y-3.4225
X3.855Y-2.1775
X3.855Y-2.4775
X3.86Y-1.6675
X3.86Y-1.9675
X3.955Y-2.1775
X3.955Y-2.4775
X3.96Y-1.6675
X3.96Y-1.9675
X4.045Y-3.0225
X4.045Y-3.4225
X4.055Y-2.1775
X4.055Y-2.4775
X4.06Y-1.6675
X4.06Y-1.9675
X4.155Y-2.1775
X4.155Y-2.4775
X4.16Y-1.6675
X4.16Y-1.9675
X4.255Y-2.1775
X4.255Y-2.4775
X4.3075Y-3.0225
X4.3075Y-3.4225
X4.34Y-1.6725
X4.34Y-1.9725
X4.355Y-2.1775
X4.355Y-2.4775
X4.44Y-1.6725
X4.44Y-1.9725
X4.54Y-1.6725
X4.54Y-1.9725
X4.57Y-3.0225
X4.57Y-3.4225
X4.64Y-1.6725
X4.64Y-1.9725
X4.74Y-1.6725
X4.74Y-1.9725
X4.8325Y-3.02
X4.8325Y-3.42
X4.84Y-1.6725
X4.84Y-1.9725
X4.94Y-1.6725
X4.94Y-1.9725
X5.04Y-1.6725
X5.04Y-1.9725
X5.095Y-3.0225
X5.095Y-3.4225
X5.2941Y-1.8425
X5.36Y-3.0225
X5.36Y-3.4225
X5.3925Y-1.8425
T3
X3.52Y-2.75
X3.52Y-2.85
X3.7825Y-2.75
X3.7825Y-2.85
X4.045Y-2.75
X4.045Y-2.85
X4.3075Y-2.75
X4.3075Y-2.85
X4.57Y-2.75
X4.57Y-2.85
X4.8325Y-2.75
X4.8325Y-2.85
X5.095Y-2.75
X5.095Y-2.85
X5.36Y-2.75
X5.36Y-2.85
T4
X2.985Y-2.2775
X2.985Y-2.3775
X2.985Y-2.4775
X2.985Y-2.5775
X2.985Y-2.6775
X2.985Y-2.7775
X2.985Y-2.8775
X2.985Y-2.9775
X3.2325Y-1.44
X3.3325Y-1.44
X3.4325Y-1.44
X3.6225Y-1.44
X3.7225Y-1.44
X3.8225Y-1.44
X3.9225Y-1.44
X4.0225Y-1.44
X4.1225Y-1.44
X4.2225Y-1.44
X4.3225Y-1.44
X5.285Y-1.4425
X5.385Y-1.4425
T0
M30
