%TF.GenerationSoftware,KiCad,Pcbnew,(5.1.9-0-10_14)*%
%TF.CreationDate,2021-04-28T01:42:20-04:00*%
%TF.ProjectId,COUNTER,434f554e-5445-4522-9e6b-696361645f70,rev?*%
%TF.SameCoordinates,Original*%
%TF.FileFunction,Soldermask,Bot*%
%TF.FilePolarity,Negative*%
%FSLAX46Y46*%
G04 Gerber Fmt 4.6, Leading zero omitted, Abs format (unit mm)*
G04 Created by KiCad (PCBNEW (5.1.9-0-10_14)) date 2021-04-28 01:42:20*
%MOMM*%
%LPD*%
G01*
G04 APERTURE LIST*
%ADD10O,1.700000X1.700000*%
%ADD11R,1.700000X1.700000*%
%ADD12C,3.000000*%
%ADD13O,1.600000X1.600000*%
%ADD14R,1.600000X1.600000*%
%ADD15C,1.600000*%
%ADD16C,1.800000*%
%ADD17R,1.800000X1.800000*%
G04 APERTURE END LIST*
D10*
%TO.C,J2*%
X79565500Y-36576000D03*
X82105500Y-36576000D03*
X84645500Y-36576000D03*
D11*
X87185500Y-36576000D03*
%TD*%
D12*
%TO.C,REF\u002A\u002A*%
X74891900Y-90322400D03*
%TD*%
%TO.C,REF\u002A\u002A*%
X74942700Y-32537400D03*
%TD*%
%TO.C,REF\u002A\u002A*%
X144259300Y-90297000D03*
%TD*%
%TO.C,REF\u002A\u002A*%
X144259300Y-32473900D03*
%TD*%
D10*
%TO.C,J3*%
X92011500Y-36576000D03*
X94551500Y-36576000D03*
X97091500Y-36576000D03*
X99631500Y-36576000D03*
X102171500Y-36576000D03*
X104711500Y-36576000D03*
X107251500Y-36576000D03*
D11*
X109791500Y-36576000D03*
%TD*%
D10*
%TO.C,J1*%
X75819000Y-75628500D03*
X75819000Y-73088500D03*
X75819000Y-70548500D03*
X75819000Y-68008500D03*
X75819000Y-65468500D03*
X75819000Y-62928500D03*
X75819000Y-60388500D03*
D11*
X75819000Y-57848500D03*
%TD*%
D13*
%TO.C,U48*%
X128016000Y-50101500D03*
X110236000Y-42481500D03*
X125476000Y-50101500D03*
X112776000Y-42481500D03*
X122936000Y-50101500D03*
X115316000Y-42481500D03*
X120396000Y-50101500D03*
X117856000Y-42481500D03*
X117856000Y-50101500D03*
X120396000Y-42481500D03*
X115316000Y-50101500D03*
X122936000Y-42481500D03*
X112776000Y-50101500D03*
X125476000Y-42481500D03*
X110236000Y-50101500D03*
D14*
X128016000Y-42481500D03*
%TD*%
D13*
%TO.C,U47*%
X87757000Y-55308500D03*
X110617000Y-62928500D03*
X90297000Y-55308500D03*
X108077000Y-62928500D03*
X92837000Y-55308500D03*
X105537000Y-62928500D03*
X95377000Y-55308500D03*
X102997000Y-62928500D03*
X97917000Y-55308500D03*
X100457000Y-62928500D03*
X100457000Y-55308500D03*
X97917000Y-62928500D03*
X102997000Y-55308500D03*
X95377000Y-62928500D03*
X105537000Y-55308500D03*
X92837000Y-62928500D03*
X108077000Y-55308500D03*
X90297000Y-62928500D03*
X110617000Y-55308500D03*
D14*
X87757000Y-62928500D03*
%TD*%
D13*
%TO.C,U46*%
X105664000Y-49974500D03*
X87884000Y-42354500D03*
X103124000Y-49974500D03*
X90424000Y-42354500D03*
X100584000Y-49974500D03*
X92964000Y-42354500D03*
X98044000Y-49974500D03*
X95504000Y-42354500D03*
X95504000Y-49974500D03*
X98044000Y-42354500D03*
X92964000Y-49974500D03*
X100584000Y-42354500D03*
X90424000Y-49974500D03*
X103124000Y-42354500D03*
X87884000Y-49974500D03*
D14*
X105664000Y-42354500D03*
%TD*%
D13*
%TO.C,R18*%
X136144000Y-86931500D03*
D15*
X136144000Y-76771500D03*
%TD*%
D13*
%TO.C,R17*%
X129413000Y-86931500D03*
D15*
X129413000Y-76771500D03*
%TD*%
D13*
%TO.C,R16*%
X122745500Y-86868000D03*
D15*
X122745500Y-76708000D03*
%TD*%
D13*
%TO.C,R15*%
X116078000Y-86931500D03*
D15*
X116078000Y-76771500D03*
%TD*%
D13*
%TO.C,R14*%
X109410500Y-86931500D03*
D15*
X109410500Y-76771500D03*
%TD*%
D13*
%TO.C,R13*%
X102743000Y-86931500D03*
D15*
X102743000Y-76771500D03*
%TD*%
D13*
%TO.C,R12*%
X96075500Y-86931500D03*
D15*
X96075500Y-76771500D03*
%TD*%
D13*
%TO.C,R11*%
X89408000Y-86868000D03*
D15*
X89408000Y-76708000D03*
%TD*%
D10*
%TO.C,J10*%
X134239000Y-36639500D03*
D11*
X136779000Y-36639500D03*
%TD*%
D16*
%TO.C,D51*%
X136144000Y-69850000D03*
D17*
X136144000Y-72390000D03*
%TD*%
D16*
%TO.C,D50*%
X129413000Y-69850000D03*
D17*
X129413000Y-72390000D03*
%TD*%
D16*
%TO.C,D49*%
X122745500Y-69850000D03*
D17*
X122745500Y-72390000D03*
%TD*%
D16*
%TO.C,D48*%
X116078000Y-69850000D03*
D17*
X116078000Y-72390000D03*
%TD*%
D16*
%TO.C,D47*%
X109410500Y-69850000D03*
D17*
X109410500Y-72390000D03*
%TD*%
D16*
%TO.C,D46*%
X102743000Y-69850000D03*
D17*
X102743000Y-72390000D03*
%TD*%
D16*
%TO.C,D45*%
X96075500Y-69850000D03*
D17*
X96075500Y-72390000D03*
%TD*%
D16*
%TO.C,D44*%
X89408000Y-69850000D03*
D17*
X89408000Y-72390000D03*
%TD*%
D15*
%TO.C,C8*%
X134469500Y-46799500D03*
X136969500Y-46799500D03*
%TD*%
M02*
