%TF.GenerationSoftware,KiCad,Pcbnew,(5.1.10-1-10_14)*%
%TF.CreationDate,2021-12-11T09:19:18-05:00*%
%TF.ProjectId,control-unit,636f6e74-726f-46c2-9d75-6e69742e6b69,rev?*%
%TF.SameCoordinates,Original*%
%TF.FileFunction,Copper,L1,Top*%
%TF.FilePolarity,Positive*%
%FSLAX46Y46*%
G04 Gerber Fmt 4.6, Leading zero omitted, Abs format (unit mm)*
G04 Created by KiCad (PCBNEW (5.1.10-1-10_14)) date 2021-12-11 09:19:18*
%MOMM*%
%LPD*%
G01*
G04 APERTURE LIST*
%TA.AperFunction,ComponentPad*%
%ADD10O,1.700000X1.700000*%
%TD*%
%TA.AperFunction,ComponentPad*%
%ADD11R,1.700000X1.700000*%
%TD*%
%TA.AperFunction,ViaPad*%
%ADD12C,0.800000*%
%TD*%
%TA.AperFunction,Conductor*%
%ADD13C,0.200000*%
%TD*%
G04 APERTURE END LIST*
%TO.P,C4,2*%
%TO.N,GND*%
%TA.AperFunction,SMDPad,CuDef*%
G36*
G01*
X179865000Y-87572000D02*
X180815000Y-87572000D01*
G75*
G02*
X181065000Y-87822000I0J-250000D01*
G01*
X181065000Y-88322000D01*
G75*
G02*
X180815000Y-88572000I-250000J0D01*
G01*
X179865000Y-88572000D01*
G75*
G02*
X179615000Y-88322000I0J250000D01*
G01*
X179615000Y-87822000D01*
G75*
G02*
X179865000Y-87572000I250000J0D01*
G01*
G37*
%TD.AperFunction*%
%TO.P,C4,1*%
%TO.N,VCC*%
%TA.AperFunction,SMDPad,CuDef*%
G36*
G01*
X179865000Y-85672000D02*
X180815000Y-85672000D01*
G75*
G02*
X181065000Y-85922000I0J-250000D01*
G01*
X181065000Y-86422000D01*
G75*
G02*
X180815000Y-86672000I-250000J0D01*
G01*
X179865000Y-86672000D01*
G75*
G02*
X179615000Y-86422000I0J250000D01*
G01*
X179615000Y-85922000D01*
G75*
G02*
X179865000Y-85672000I250000J0D01*
G01*
G37*
%TD.AperFunction*%
%TD*%
%TO.P,C3,2*%
%TO.N,GND*%
%TA.AperFunction,SMDPad,CuDef*%
G36*
G01*
X135857000Y-85148000D02*
X134907000Y-85148000D01*
G75*
G02*
X134657000Y-84898000I0J250000D01*
G01*
X134657000Y-84398000D01*
G75*
G02*
X134907000Y-84148000I250000J0D01*
G01*
X135857000Y-84148000D01*
G75*
G02*
X136107000Y-84398000I0J-250000D01*
G01*
X136107000Y-84898000D01*
G75*
G02*
X135857000Y-85148000I-250000J0D01*
G01*
G37*
%TD.AperFunction*%
%TO.P,C3,1*%
%TO.N,VCC*%
%TA.AperFunction,SMDPad,CuDef*%
G36*
G01*
X135857000Y-87048000D02*
X134907000Y-87048000D01*
G75*
G02*
X134657000Y-86798000I0J250000D01*
G01*
X134657000Y-86298000D01*
G75*
G02*
X134907000Y-86048000I250000J0D01*
G01*
X135857000Y-86048000D01*
G75*
G02*
X136107000Y-86298000I0J-250000D01*
G01*
X136107000Y-86798000D01*
G75*
G02*
X135857000Y-87048000I-250000J0D01*
G01*
G37*
%TD.AperFunction*%
%TD*%
%TO.P,C2,2*%
%TO.N,GND*%
%TA.AperFunction,SMDPad,CuDef*%
G36*
G01*
X157701000Y-85148000D02*
X156751000Y-85148000D01*
G75*
G02*
X156501000Y-84898000I0J250000D01*
G01*
X156501000Y-84398000D01*
G75*
G02*
X156751000Y-84148000I250000J0D01*
G01*
X157701000Y-84148000D01*
G75*
G02*
X157951000Y-84398000I0J-250000D01*
G01*
X157951000Y-84898000D01*
G75*
G02*
X157701000Y-85148000I-250000J0D01*
G01*
G37*
%TD.AperFunction*%
%TO.P,C2,1*%
%TO.N,VCC*%
%TA.AperFunction,SMDPad,CuDef*%
G36*
G01*
X157701000Y-87048000D02*
X156751000Y-87048000D01*
G75*
G02*
X156501000Y-86798000I0J250000D01*
G01*
X156501000Y-86298000D01*
G75*
G02*
X156751000Y-86048000I250000J0D01*
G01*
X157701000Y-86048000D01*
G75*
G02*
X157951000Y-86298000I0J-250000D01*
G01*
X157951000Y-86798000D01*
G75*
G02*
X157701000Y-87048000I-250000J0D01*
G01*
G37*
%TD.AperFunction*%
%TD*%
%TO.P,C1,2*%
%TO.N,GND*%
%TA.AperFunction,SMDPad,CuDef*%
G36*
G01*
X143985000Y-85468000D02*
X143035000Y-85468000D01*
G75*
G02*
X142785000Y-85218000I0J250000D01*
G01*
X142785000Y-84718000D01*
G75*
G02*
X143035000Y-84468000I250000J0D01*
G01*
X143985000Y-84468000D01*
G75*
G02*
X144235000Y-84718000I0J-250000D01*
G01*
X144235000Y-85218000D01*
G75*
G02*
X143985000Y-85468000I-250000J0D01*
G01*
G37*
%TD.AperFunction*%
%TO.P,C1,1*%
%TO.N,VCC*%
%TA.AperFunction,SMDPad,CuDef*%
G36*
G01*
X143985000Y-87368000D02*
X143035000Y-87368000D01*
G75*
G02*
X142785000Y-87118000I0J250000D01*
G01*
X142785000Y-86618000D01*
G75*
G02*
X143035000Y-86368000I250000J0D01*
G01*
X143985000Y-86368000D01*
G75*
G02*
X144235000Y-86618000I0J-250000D01*
G01*
X144235000Y-87118000D01*
G75*
G02*
X143985000Y-87368000I-250000J0D01*
G01*
G37*
%TD.AperFunction*%
%TD*%
%TO.P,U3,20*%
%TO.N,VCC*%
%TA.AperFunction,SMDPad,CuDef*%
G36*
G01*
X182341000Y-86775000D02*
X182141000Y-86775000D01*
G75*
G02*
X182041000Y-86675000I0J100000D01*
G01*
X182041000Y-85400000D01*
G75*
G02*
X182141000Y-85300000I100000J0D01*
G01*
X182341000Y-85300000D01*
G75*
G02*
X182441000Y-85400000I0J-100000D01*
G01*
X182441000Y-86675000D01*
G75*
G02*
X182341000Y-86775000I-100000J0D01*
G01*
G37*
%TD.AperFunction*%
%TO.P,U3,19*%
%TO.N,B7*%
%TA.AperFunction,SMDPad,CuDef*%
G36*
G01*
X182991000Y-86775000D02*
X182791000Y-86775000D01*
G75*
G02*
X182691000Y-86675000I0J100000D01*
G01*
X182691000Y-85400000D01*
G75*
G02*
X182791000Y-85300000I100000J0D01*
G01*
X182991000Y-85300000D01*
G75*
G02*
X183091000Y-85400000I0J-100000D01*
G01*
X183091000Y-86675000D01*
G75*
G02*
X182991000Y-86775000I-100000J0D01*
G01*
G37*
%TD.AperFunction*%
%TO.P,U3,18*%
%TO.N,B6*%
%TA.AperFunction,SMDPad,CuDef*%
G36*
G01*
X183641000Y-86775000D02*
X183441000Y-86775000D01*
G75*
G02*
X183341000Y-86675000I0J100000D01*
G01*
X183341000Y-85400000D01*
G75*
G02*
X183441000Y-85300000I100000J0D01*
G01*
X183641000Y-85300000D01*
G75*
G02*
X183741000Y-85400000I0J-100000D01*
G01*
X183741000Y-86675000D01*
G75*
G02*
X183641000Y-86775000I-100000J0D01*
G01*
G37*
%TD.AperFunction*%
%TO.P,U3,17*%
%TO.N,B5*%
%TA.AperFunction,SMDPad,CuDef*%
G36*
G01*
X184291000Y-86775000D02*
X184091000Y-86775000D01*
G75*
G02*
X183991000Y-86675000I0J100000D01*
G01*
X183991000Y-85400000D01*
G75*
G02*
X184091000Y-85300000I100000J0D01*
G01*
X184291000Y-85300000D01*
G75*
G02*
X184391000Y-85400000I0J-100000D01*
G01*
X184391000Y-86675000D01*
G75*
G02*
X184291000Y-86775000I-100000J0D01*
G01*
G37*
%TD.AperFunction*%
%TO.P,U3,16*%
%TO.N,B4*%
%TA.AperFunction,SMDPad,CuDef*%
G36*
G01*
X184941000Y-86775000D02*
X184741000Y-86775000D01*
G75*
G02*
X184641000Y-86675000I0J100000D01*
G01*
X184641000Y-85400000D01*
G75*
G02*
X184741000Y-85300000I100000J0D01*
G01*
X184941000Y-85300000D01*
G75*
G02*
X185041000Y-85400000I0J-100000D01*
G01*
X185041000Y-86675000D01*
G75*
G02*
X184941000Y-86775000I-100000J0D01*
G01*
G37*
%TD.AperFunction*%
%TO.P,U3,15*%
%TO.N,B3*%
%TA.AperFunction,SMDPad,CuDef*%
G36*
G01*
X185591000Y-86775000D02*
X185391000Y-86775000D01*
G75*
G02*
X185291000Y-86675000I0J100000D01*
G01*
X185291000Y-85400000D01*
G75*
G02*
X185391000Y-85300000I100000J0D01*
G01*
X185591000Y-85300000D01*
G75*
G02*
X185691000Y-85400000I0J-100000D01*
G01*
X185691000Y-86675000D01*
G75*
G02*
X185591000Y-86775000I-100000J0D01*
G01*
G37*
%TD.AperFunction*%
%TO.P,U3,14*%
%TO.N,B2*%
%TA.AperFunction,SMDPad,CuDef*%
G36*
G01*
X186241000Y-86775000D02*
X186041000Y-86775000D01*
G75*
G02*
X185941000Y-86675000I0J100000D01*
G01*
X185941000Y-85400000D01*
G75*
G02*
X186041000Y-85300000I100000J0D01*
G01*
X186241000Y-85300000D01*
G75*
G02*
X186341000Y-85400000I0J-100000D01*
G01*
X186341000Y-86675000D01*
G75*
G02*
X186241000Y-86775000I-100000J0D01*
G01*
G37*
%TD.AperFunction*%
%TO.P,U3,13*%
%TO.N,B1*%
%TA.AperFunction,SMDPad,CuDef*%
G36*
G01*
X186891000Y-86775000D02*
X186691000Y-86775000D01*
G75*
G02*
X186591000Y-86675000I0J100000D01*
G01*
X186591000Y-85400000D01*
G75*
G02*
X186691000Y-85300000I100000J0D01*
G01*
X186891000Y-85300000D01*
G75*
G02*
X186991000Y-85400000I0J-100000D01*
G01*
X186991000Y-86675000D01*
G75*
G02*
X186891000Y-86775000I-100000J0D01*
G01*
G37*
%TD.AperFunction*%
%TO.P,U3,12*%
%TO.N,B0*%
%TA.AperFunction,SMDPad,CuDef*%
G36*
G01*
X187541000Y-86775000D02*
X187341000Y-86775000D01*
G75*
G02*
X187241000Y-86675000I0J100000D01*
G01*
X187241000Y-85400000D01*
G75*
G02*
X187341000Y-85300000I100000J0D01*
G01*
X187541000Y-85300000D01*
G75*
G02*
X187641000Y-85400000I0J-100000D01*
G01*
X187641000Y-86675000D01*
G75*
G02*
X187541000Y-86775000I-100000J0D01*
G01*
G37*
%TD.AperFunction*%
%TO.P,U3,11*%
%TO.N,LDB*%
%TA.AperFunction,SMDPad,CuDef*%
G36*
G01*
X188191000Y-86775000D02*
X187991000Y-86775000D01*
G75*
G02*
X187891000Y-86675000I0J100000D01*
G01*
X187891000Y-85400000D01*
G75*
G02*
X187991000Y-85300000I100000J0D01*
G01*
X188191000Y-85300000D01*
G75*
G02*
X188291000Y-85400000I0J-100000D01*
G01*
X188291000Y-86675000D01*
G75*
G02*
X188191000Y-86775000I-100000J0D01*
G01*
G37*
%TD.AperFunction*%
%TO.P,U3,10*%
%TO.N,GND*%
%TA.AperFunction,SMDPad,CuDef*%
G36*
G01*
X188191000Y-92500000D02*
X187991000Y-92500000D01*
G75*
G02*
X187891000Y-92400000I0J100000D01*
G01*
X187891000Y-91125000D01*
G75*
G02*
X187991000Y-91025000I100000J0D01*
G01*
X188191000Y-91025000D01*
G75*
G02*
X188291000Y-91125000I0J-100000D01*
G01*
X188291000Y-92400000D01*
G75*
G02*
X188191000Y-92500000I-100000J0D01*
G01*
G37*
%TD.AperFunction*%
%TO.P,U3,9*%
%TO.N,BUS0*%
%TA.AperFunction,SMDPad,CuDef*%
G36*
G01*
X187541000Y-92500000D02*
X187341000Y-92500000D01*
G75*
G02*
X187241000Y-92400000I0J100000D01*
G01*
X187241000Y-91125000D01*
G75*
G02*
X187341000Y-91025000I100000J0D01*
G01*
X187541000Y-91025000D01*
G75*
G02*
X187641000Y-91125000I0J-100000D01*
G01*
X187641000Y-92400000D01*
G75*
G02*
X187541000Y-92500000I-100000J0D01*
G01*
G37*
%TD.AperFunction*%
%TO.P,U3,8*%
%TO.N,BUS1*%
%TA.AperFunction,SMDPad,CuDef*%
G36*
G01*
X186891000Y-92500000D02*
X186691000Y-92500000D01*
G75*
G02*
X186591000Y-92400000I0J100000D01*
G01*
X186591000Y-91125000D01*
G75*
G02*
X186691000Y-91025000I100000J0D01*
G01*
X186891000Y-91025000D01*
G75*
G02*
X186991000Y-91125000I0J-100000D01*
G01*
X186991000Y-92400000D01*
G75*
G02*
X186891000Y-92500000I-100000J0D01*
G01*
G37*
%TD.AperFunction*%
%TO.P,U3,7*%
%TO.N,BUS2*%
%TA.AperFunction,SMDPad,CuDef*%
G36*
G01*
X186241000Y-92500000D02*
X186041000Y-92500000D01*
G75*
G02*
X185941000Y-92400000I0J100000D01*
G01*
X185941000Y-91125000D01*
G75*
G02*
X186041000Y-91025000I100000J0D01*
G01*
X186241000Y-91025000D01*
G75*
G02*
X186341000Y-91125000I0J-100000D01*
G01*
X186341000Y-92400000D01*
G75*
G02*
X186241000Y-92500000I-100000J0D01*
G01*
G37*
%TD.AperFunction*%
%TO.P,U3,6*%
%TO.N,BUS3*%
%TA.AperFunction,SMDPad,CuDef*%
G36*
G01*
X185591000Y-92500000D02*
X185391000Y-92500000D01*
G75*
G02*
X185291000Y-92400000I0J100000D01*
G01*
X185291000Y-91125000D01*
G75*
G02*
X185391000Y-91025000I100000J0D01*
G01*
X185591000Y-91025000D01*
G75*
G02*
X185691000Y-91125000I0J-100000D01*
G01*
X185691000Y-92400000D01*
G75*
G02*
X185591000Y-92500000I-100000J0D01*
G01*
G37*
%TD.AperFunction*%
%TO.P,U3,5*%
%TO.N,BUS4*%
%TA.AperFunction,SMDPad,CuDef*%
G36*
G01*
X184941000Y-92500000D02*
X184741000Y-92500000D01*
G75*
G02*
X184641000Y-92400000I0J100000D01*
G01*
X184641000Y-91125000D01*
G75*
G02*
X184741000Y-91025000I100000J0D01*
G01*
X184941000Y-91025000D01*
G75*
G02*
X185041000Y-91125000I0J-100000D01*
G01*
X185041000Y-92400000D01*
G75*
G02*
X184941000Y-92500000I-100000J0D01*
G01*
G37*
%TD.AperFunction*%
%TO.P,U3,4*%
%TO.N,BUS5*%
%TA.AperFunction,SMDPad,CuDef*%
G36*
G01*
X184291000Y-92500000D02*
X184091000Y-92500000D01*
G75*
G02*
X183991000Y-92400000I0J100000D01*
G01*
X183991000Y-91125000D01*
G75*
G02*
X184091000Y-91025000I100000J0D01*
G01*
X184291000Y-91025000D01*
G75*
G02*
X184391000Y-91125000I0J-100000D01*
G01*
X184391000Y-92400000D01*
G75*
G02*
X184291000Y-92500000I-100000J0D01*
G01*
G37*
%TD.AperFunction*%
%TO.P,U3,3*%
%TO.N,BUS6*%
%TA.AperFunction,SMDPad,CuDef*%
G36*
G01*
X183641000Y-92500000D02*
X183441000Y-92500000D01*
G75*
G02*
X183341000Y-92400000I0J100000D01*
G01*
X183341000Y-91125000D01*
G75*
G02*
X183441000Y-91025000I100000J0D01*
G01*
X183641000Y-91025000D01*
G75*
G02*
X183741000Y-91125000I0J-100000D01*
G01*
X183741000Y-92400000D01*
G75*
G02*
X183641000Y-92500000I-100000J0D01*
G01*
G37*
%TD.AperFunction*%
%TO.P,U3,2*%
%TO.N,BUS7*%
%TA.AperFunction,SMDPad,CuDef*%
G36*
G01*
X182991000Y-92500000D02*
X182791000Y-92500000D01*
G75*
G02*
X182691000Y-92400000I0J100000D01*
G01*
X182691000Y-91125000D01*
G75*
G02*
X182791000Y-91025000I100000J0D01*
G01*
X182991000Y-91025000D01*
G75*
G02*
X183091000Y-91125000I0J-100000D01*
G01*
X183091000Y-92400000D01*
G75*
G02*
X182991000Y-92500000I-100000J0D01*
G01*
G37*
%TD.AperFunction*%
%TO.P,U3,1*%
%TO.N,GND*%
%TA.AperFunction,SMDPad,CuDef*%
G36*
G01*
X182341000Y-92500000D02*
X182141000Y-92500000D01*
G75*
G02*
X182041000Y-92400000I0J100000D01*
G01*
X182041000Y-91125000D01*
G75*
G02*
X182141000Y-91025000I100000J0D01*
G01*
X182341000Y-91025000D01*
G75*
G02*
X182441000Y-91125000I0J-100000D01*
G01*
X182441000Y-92400000D01*
G75*
G02*
X182341000Y-92500000I-100000J0D01*
G01*
G37*
%TD.AperFunction*%
%TD*%
D10*
%TO.P,J4,8*%
%TO.N,B0*%
X169164000Y-79756000D03*
%TO.P,J4,7*%
%TO.N,B1*%
X171704000Y-79756000D03*
%TO.P,J4,6*%
%TO.N,B2*%
X174244000Y-79756000D03*
%TO.P,J4,5*%
%TO.N,B3*%
X176784000Y-79756000D03*
%TO.P,J4,4*%
%TO.N,B4*%
X179324000Y-79756000D03*
%TO.P,J4,3*%
%TO.N,B5*%
X181864000Y-79756000D03*
%TO.P,J4,2*%
%TO.N,B6*%
X184404000Y-79756000D03*
D11*
%TO.P,J4,1*%
%TO.N,B7*%
X186944000Y-79756000D03*
%TD*%
D10*
%TO.P,J3,8*%
%TO.N,A0*%
X146304000Y-79756000D03*
%TO.P,J3,7*%
%TO.N,A1*%
X148844000Y-79756000D03*
%TO.P,J3,6*%
%TO.N,A2*%
X151384000Y-79756000D03*
%TO.P,J3,5*%
%TO.N,A3*%
X153924000Y-79756000D03*
%TO.P,J3,4*%
%TO.N,A4*%
X156464000Y-79756000D03*
%TO.P,J3,3*%
%TO.N,A5*%
X159004000Y-79756000D03*
%TO.P,J3,2*%
%TO.N,A6*%
X161544000Y-79756000D03*
D11*
%TO.P,J3,1*%
%TO.N,A7*%
X164084000Y-79756000D03*
%TD*%
D10*
%TO.P,J2,11*%
%TO.N,VCC*%
X153924000Y-97536000D03*
%TO.P,J2,10*%
%TO.N,GND*%
X151384000Y-97536000D03*
%TO.P,J2,9*%
%TO.N,~LDA*%
X148844000Y-97536000D03*
%TO.P,J2,8*%
%TO.N,~A_OUT*%
X146304000Y-97536000D03*
%TO.P,J2,7*%
%TO.N,LDB*%
X143764000Y-97536000D03*
%TO.P,J2,6*%
%TO.N,~SHL*%
X141224000Y-97536000D03*
%TO.P,J2,5*%
%TO.N,~SHR*%
X138684000Y-97536000D03*
%TO.P,J2,4*%
%TO.N,~ROR*%
X136144000Y-97536000D03*
%TO.P,J2,3*%
%TO.N,~ROL*%
X133604000Y-97536000D03*
%TO.P,J2,2*%
%TO.N,CLOCK*%
X131064000Y-97536000D03*
D11*
%TO.P,J2,1*%
%TO.N,~RESET*%
X128524000Y-97536000D03*
%TD*%
D10*
%TO.P,J1,8*%
%TO.N,BUS0*%
X186944000Y-97536000D03*
%TO.P,J1,7*%
%TO.N,BUS1*%
X184404000Y-97536000D03*
%TO.P,J1,6*%
%TO.N,BUS2*%
X181864000Y-97536000D03*
%TO.P,J1,5*%
%TO.N,BUS3*%
X179324000Y-97536000D03*
%TO.P,J1,4*%
%TO.N,BUS4*%
X176784000Y-97536000D03*
%TO.P,J1,3*%
%TO.N,BUS5*%
X174244000Y-97536000D03*
%TO.P,J1,2*%
%TO.N,BUS6*%
X171704000Y-97536000D03*
D11*
%TO.P,J1,1*%
%TO.N,BUS7*%
X169164000Y-97536000D03*
%TD*%
%TO.P,U5,16*%
%TO.N,VCC*%
%TA.AperFunction,SMDPad,CuDef*%
G36*
G01*
X137017000Y-86775000D02*
X136817000Y-86775000D01*
G75*
G02*
X136717000Y-86675000I0J100000D01*
G01*
X136717000Y-85400000D01*
G75*
G02*
X136817000Y-85300000I100000J0D01*
G01*
X137017000Y-85300000D01*
G75*
G02*
X137117000Y-85400000I0J-100000D01*
G01*
X137117000Y-86675000D01*
G75*
G02*
X137017000Y-86775000I-100000J0D01*
G01*
G37*
%TD.AperFunction*%
%TO.P,U5,15*%
%TO.N,GND*%
%TA.AperFunction,SMDPad,CuDef*%
G36*
G01*
X137667000Y-86775000D02*
X137467000Y-86775000D01*
G75*
G02*
X137367000Y-86675000I0J100000D01*
G01*
X137367000Y-85400000D01*
G75*
G02*
X137467000Y-85300000I100000J0D01*
G01*
X137667000Y-85300000D01*
G75*
G02*
X137767000Y-85400000I0J-100000D01*
G01*
X137767000Y-86675000D01*
G75*
G02*
X137667000Y-86775000I-100000J0D01*
G01*
G37*
%TD.AperFunction*%
%TO.P,U5,14*%
%TA.AperFunction,SMDPad,CuDef*%
G36*
G01*
X138317000Y-86775000D02*
X138117000Y-86775000D01*
G75*
G02*
X138017000Y-86675000I0J100000D01*
G01*
X138017000Y-85400000D01*
G75*
G02*
X138117000Y-85300000I100000J0D01*
G01*
X138317000Y-85300000D01*
G75*
G02*
X138417000Y-85400000I0J-100000D01*
G01*
X138417000Y-86675000D01*
G75*
G02*
X138317000Y-86775000I-100000J0D01*
G01*
G37*
%TD.AperFunction*%
%TO.P,U5,13*%
%TA.AperFunction,SMDPad,CuDef*%
G36*
G01*
X138967000Y-86775000D02*
X138767000Y-86775000D01*
G75*
G02*
X138667000Y-86675000I0J100000D01*
G01*
X138667000Y-85400000D01*
G75*
G02*
X138767000Y-85300000I100000J0D01*
G01*
X138967000Y-85300000D01*
G75*
G02*
X139067000Y-85400000I0J-100000D01*
G01*
X139067000Y-86675000D01*
G75*
G02*
X138967000Y-86775000I-100000J0D01*
G01*
G37*
%TD.AperFunction*%
%TO.P,U5,12*%
%TO.N,Net-(U5-Pad12)*%
%TA.AperFunction,SMDPad,CuDef*%
G36*
G01*
X139617000Y-86775000D02*
X139417000Y-86775000D01*
G75*
G02*
X139317000Y-86675000I0J100000D01*
G01*
X139317000Y-85400000D01*
G75*
G02*
X139417000Y-85300000I100000J0D01*
G01*
X139617000Y-85300000D01*
G75*
G02*
X139717000Y-85400000I0J-100000D01*
G01*
X139717000Y-86675000D01*
G75*
G02*
X139617000Y-86775000I-100000J0D01*
G01*
G37*
%TD.AperFunction*%
%TO.P,U5,11*%
%TO.N,GND*%
%TA.AperFunction,SMDPad,CuDef*%
G36*
G01*
X140267000Y-86775000D02*
X140067000Y-86775000D01*
G75*
G02*
X139967000Y-86675000I0J100000D01*
G01*
X139967000Y-85400000D01*
G75*
G02*
X140067000Y-85300000I100000J0D01*
G01*
X140267000Y-85300000D01*
G75*
G02*
X140367000Y-85400000I0J-100000D01*
G01*
X140367000Y-86675000D01*
G75*
G02*
X140267000Y-86775000I-100000J0D01*
G01*
G37*
%TD.AperFunction*%
%TO.P,U5,10*%
%TA.AperFunction,SMDPad,CuDef*%
G36*
G01*
X140917000Y-86775000D02*
X140717000Y-86775000D01*
G75*
G02*
X140617000Y-86675000I0J100000D01*
G01*
X140617000Y-85400000D01*
G75*
G02*
X140717000Y-85300000I100000J0D01*
G01*
X140917000Y-85300000D01*
G75*
G02*
X141017000Y-85400000I0J-100000D01*
G01*
X141017000Y-86675000D01*
G75*
G02*
X140917000Y-86775000I-100000J0D01*
G01*
G37*
%TD.AperFunction*%
%TO.P,U5,9*%
%TO.N,Net-(U5-Pad9)*%
%TA.AperFunction,SMDPad,CuDef*%
G36*
G01*
X141567000Y-86775000D02*
X141367000Y-86775000D01*
G75*
G02*
X141267000Y-86675000I0J100000D01*
G01*
X141267000Y-85400000D01*
G75*
G02*
X141367000Y-85300000I100000J0D01*
G01*
X141567000Y-85300000D01*
G75*
G02*
X141667000Y-85400000I0J-100000D01*
G01*
X141667000Y-86675000D01*
G75*
G02*
X141567000Y-86775000I-100000J0D01*
G01*
G37*
%TD.AperFunction*%
%TO.P,U5,8*%
%TO.N,GND*%
%TA.AperFunction,SMDPad,CuDef*%
G36*
G01*
X141567000Y-92500000D02*
X141367000Y-92500000D01*
G75*
G02*
X141267000Y-92400000I0J100000D01*
G01*
X141267000Y-91125000D01*
G75*
G02*
X141367000Y-91025000I100000J0D01*
G01*
X141567000Y-91025000D01*
G75*
G02*
X141667000Y-91125000I0J-100000D01*
G01*
X141667000Y-92400000D01*
G75*
G02*
X141567000Y-92500000I-100000J0D01*
G01*
G37*
%TD.AperFunction*%
%TO.P,U5,7*%
%TO.N,CISR*%
%TA.AperFunction,SMDPad,CuDef*%
G36*
G01*
X140917000Y-92500000D02*
X140717000Y-92500000D01*
G75*
G02*
X140617000Y-92400000I0J100000D01*
G01*
X140617000Y-91125000D01*
G75*
G02*
X140717000Y-91025000I100000J0D01*
G01*
X140917000Y-91025000D01*
G75*
G02*
X141017000Y-91125000I0J-100000D01*
G01*
X141017000Y-92400000D01*
G75*
G02*
X140917000Y-92500000I-100000J0D01*
G01*
G37*
%TD.AperFunction*%
%TO.P,U5,6*%
%TO.N,A0*%
%TA.AperFunction,SMDPad,CuDef*%
G36*
G01*
X140267000Y-92500000D02*
X140067000Y-92500000D01*
G75*
G02*
X139967000Y-92400000I0J100000D01*
G01*
X139967000Y-91125000D01*
G75*
G02*
X140067000Y-91025000I100000J0D01*
G01*
X140267000Y-91025000D01*
G75*
G02*
X140367000Y-91125000I0J-100000D01*
G01*
X140367000Y-92400000D01*
G75*
G02*
X140267000Y-92500000I-100000J0D01*
G01*
G37*
%TD.AperFunction*%
%TO.P,U5,5*%
%TO.N,GND*%
%TA.AperFunction,SMDPad,CuDef*%
G36*
G01*
X139617000Y-92500000D02*
X139417000Y-92500000D01*
G75*
G02*
X139317000Y-92400000I0J100000D01*
G01*
X139317000Y-91125000D01*
G75*
G02*
X139417000Y-91025000I100000J0D01*
G01*
X139617000Y-91025000D01*
G75*
G02*
X139717000Y-91125000I0J-100000D01*
G01*
X139717000Y-92400000D01*
G75*
G02*
X139617000Y-92500000I-100000J0D01*
G01*
G37*
%TD.AperFunction*%
%TO.P,U5,4*%
%TO.N,CISL*%
%TA.AperFunction,SMDPad,CuDef*%
G36*
G01*
X138967000Y-92500000D02*
X138767000Y-92500000D01*
G75*
G02*
X138667000Y-92400000I0J100000D01*
G01*
X138667000Y-91125000D01*
G75*
G02*
X138767000Y-91025000I100000J0D01*
G01*
X138967000Y-91025000D01*
G75*
G02*
X139067000Y-91125000I0J-100000D01*
G01*
X139067000Y-92400000D01*
G75*
G02*
X138967000Y-92500000I-100000J0D01*
G01*
G37*
%TD.AperFunction*%
%TO.P,U5,3*%
%TO.N,A7*%
%TA.AperFunction,SMDPad,CuDef*%
G36*
G01*
X138317000Y-92500000D02*
X138117000Y-92500000D01*
G75*
G02*
X138017000Y-92400000I0J100000D01*
G01*
X138017000Y-91125000D01*
G75*
G02*
X138117000Y-91025000I100000J0D01*
G01*
X138317000Y-91025000D01*
G75*
G02*
X138417000Y-91125000I0J-100000D01*
G01*
X138417000Y-92400000D01*
G75*
G02*
X138317000Y-92500000I-100000J0D01*
G01*
G37*
%TD.AperFunction*%
%TO.P,U5,2*%
%TO.N,GND*%
%TA.AperFunction,SMDPad,CuDef*%
G36*
G01*
X137667000Y-92500000D02*
X137467000Y-92500000D01*
G75*
G02*
X137367000Y-92400000I0J100000D01*
G01*
X137367000Y-91125000D01*
G75*
G02*
X137467000Y-91025000I100000J0D01*
G01*
X137667000Y-91025000D01*
G75*
G02*
X137767000Y-91125000I0J-100000D01*
G01*
X137767000Y-92400000D01*
G75*
G02*
X137667000Y-92500000I-100000J0D01*
G01*
G37*
%TD.AperFunction*%
%TO.P,U5,1*%
%TO.N,Net-(U1-Pad8)*%
%TA.AperFunction,SMDPad,CuDef*%
G36*
G01*
X137017000Y-92500000D02*
X136817000Y-92500000D01*
G75*
G02*
X136717000Y-92400000I0J100000D01*
G01*
X136717000Y-91125000D01*
G75*
G02*
X136817000Y-91025000I100000J0D01*
G01*
X137017000Y-91025000D01*
G75*
G02*
X137117000Y-91125000I0J-100000D01*
G01*
X137117000Y-92400000D01*
G75*
G02*
X137017000Y-92500000I-100000J0D01*
G01*
G37*
%TD.AperFunction*%
%TD*%
%TO.P,U7,16*%
%TO.N,VCC*%
%TA.AperFunction,SMDPad,CuDef*%
G36*
G01*
X159535000Y-87400000D02*
X159235000Y-87400000D01*
G75*
G02*
X159085000Y-87250000I0J150000D01*
G01*
X159085000Y-85600000D01*
G75*
G02*
X159235000Y-85450000I150000J0D01*
G01*
X159535000Y-85450000D01*
G75*
G02*
X159685000Y-85600000I0J-150000D01*
G01*
X159685000Y-87250000D01*
G75*
G02*
X159535000Y-87400000I-150000J0D01*
G01*
G37*
%TD.AperFunction*%
%TO.P,U7,15*%
%TO.N,A4*%
%TA.AperFunction,SMDPad,CuDef*%
G36*
G01*
X160805000Y-87400000D02*
X160505000Y-87400000D01*
G75*
G02*
X160355000Y-87250000I0J150000D01*
G01*
X160355000Y-85600000D01*
G75*
G02*
X160505000Y-85450000I150000J0D01*
G01*
X160805000Y-85450000D01*
G75*
G02*
X160955000Y-85600000I0J-150000D01*
G01*
X160955000Y-87250000D01*
G75*
G02*
X160805000Y-87400000I-150000J0D01*
G01*
G37*
%TD.AperFunction*%
%TO.P,U7,14*%
%TO.N,A5*%
%TA.AperFunction,SMDPad,CuDef*%
G36*
G01*
X162075000Y-87400000D02*
X161775000Y-87400000D01*
G75*
G02*
X161625000Y-87250000I0J150000D01*
G01*
X161625000Y-85600000D01*
G75*
G02*
X161775000Y-85450000I150000J0D01*
G01*
X162075000Y-85450000D01*
G75*
G02*
X162225000Y-85600000I0J-150000D01*
G01*
X162225000Y-87250000D01*
G75*
G02*
X162075000Y-87400000I-150000J0D01*
G01*
G37*
%TD.AperFunction*%
%TO.P,U7,13*%
%TO.N,A6*%
%TA.AperFunction,SMDPad,CuDef*%
G36*
G01*
X163345000Y-87400000D02*
X163045000Y-87400000D01*
G75*
G02*
X162895000Y-87250000I0J150000D01*
G01*
X162895000Y-85600000D01*
G75*
G02*
X163045000Y-85450000I150000J0D01*
G01*
X163345000Y-85450000D01*
G75*
G02*
X163495000Y-85600000I0J-150000D01*
G01*
X163495000Y-87250000D01*
G75*
G02*
X163345000Y-87400000I-150000J0D01*
G01*
G37*
%TD.AperFunction*%
%TO.P,U7,12*%
%TO.N,A7*%
%TA.AperFunction,SMDPad,CuDef*%
G36*
G01*
X164615000Y-87400000D02*
X164315000Y-87400000D01*
G75*
G02*
X164165000Y-87250000I0J150000D01*
G01*
X164165000Y-85600000D01*
G75*
G02*
X164315000Y-85450000I150000J0D01*
G01*
X164615000Y-85450000D01*
G75*
G02*
X164765000Y-85600000I0J-150000D01*
G01*
X164765000Y-87250000D01*
G75*
G02*
X164615000Y-87400000I-150000J0D01*
G01*
G37*
%TD.AperFunction*%
%TO.P,U7,11*%
%TO.N,CLOCK*%
%TA.AperFunction,SMDPad,CuDef*%
G36*
G01*
X165885000Y-87400000D02*
X165585000Y-87400000D01*
G75*
G02*
X165435000Y-87250000I0J150000D01*
G01*
X165435000Y-85600000D01*
G75*
G02*
X165585000Y-85450000I150000J0D01*
G01*
X165885000Y-85450000D01*
G75*
G02*
X166035000Y-85600000I0J-150000D01*
G01*
X166035000Y-87250000D01*
G75*
G02*
X165885000Y-87400000I-150000J0D01*
G01*
G37*
%TD.AperFunction*%
%TO.P,U7,10*%
%TO.N,S1*%
%TA.AperFunction,SMDPad,CuDef*%
G36*
G01*
X167155000Y-87400000D02*
X166855000Y-87400000D01*
G75*
G02*
X166705000Y-87250000I0J150000D01*
G01*
X166705000Y-85600000D01*
G75*
G02*
X166855000Y-85450000I150000J0D01*
G01*
X167155000Y-85450000D01*
G75*
G02*
X167305000Y-85600000I0J-150000D01*
G01*
X167305000Y-87250000D01*
G75*
G02*
X167155000Y-87400000I-150000J0D01*
G01*
G37*
%TD.AperFunction*%
%TO.P,U7,9*%
%TO.N,S0*%
%TA.AperFunction,SMDPad,CuDef*%
G36*
G01*
X168425000Y-87400000D02*
X168125000Y-87400000D01*
G75*
G02*
X167975000Y-87250000I0J150000D01*
G01*
X167975000Y-85600000D01*
G75*
G02*
X168125000Y-85450000I150000J0D01*
G01*
X168425000Y-85450000D01*
G75*
G02*
X168575000Y-85600000I0J-150000D01*
G01*
X168575000Y-87250000D01*
G75*
G02*
X168425000Y-87400000I-150000J0D01*
G01*
G37*
%TD.AperFunction*%
%TO.P,U7,8*%
%TO.N,GND*%
%TA.AperFunction,SMDPad,CuDef*%
G36*
G01*
X168425000Y-92350000D02*
X168125000Y-92350000D01*
G75*
G02*
X167975000Y-92200000I0J150000D01*
G01*
X167975000Y-90550000D01*
G75*
G02*
X168125000Y-90400000I150000J0D01*
G01*
X168425000Y-90400000D01*
G75*
G02*
X168575000Y-90550000I0J-150000D01*
G01*
X168575000Y-92200000D01*
G75*
G02*
X168425000Y-92350000I-150000J0D01*
G01*
G37*
%TD.AperFunction*%
%TO.P,U7,7*%
%TO.N,CISL*%
%TA.AperFunction,SMDPad,CuDef*%
G36*
G01*
X167155000Y-92350000D02*
X166855000Y-92350000D01*
G75*
G02*
X166705000Y-92200000I0J150000D01*
G01*
X166705000Y-90550000D01*
G75*
G02*
X166855000Y-90400000I150000J0D01*
G01*
X167155000Y-90400000D01*
G75*
G02*
X167305000Y-90550000I0J-150000D01*
G01*
X167305000Y-92200000D01*
G75*
G02*
X167155000Y-92350000I-150000J0D01*
G01*
G37*
%TD.AperFunction*%
%TO.P,U7,6*%
%TO.N,BUS7*%
%TA.AperFunction,SMDPad,CuDef*%
G36*
G01*
X165885000Y-92350000D02*
X165585000Y-92350000D01*
G75*
G02*
X165435000Y-92200000I0J150000D01*
G01*
X165435000Y-90550000D01*
G75*
G02*
X165585000Y-90400000I150000J0D01*
G01*
X165885000Y-90400000D01*
G75*
G02*
X166035000Y-90550000I0J-150000D01*
G01*
X166035000Y-92200000D01*
G75*
G02*
X165885000Y-92350000I-150000J0D01*
G01*
G37*
%TD.AperFunction*%
%TO.P,U7,5*%
%TO.N,BUS6*%
%TA.AperFunction,SMDPad,CuDef*%
G36*
G01*
X164615000Y-92350000D02*
X164315000Y-92350000D01*
G75*
G02*
X164165000Y-92200000I0J150000D01*
G01*
X164165000Y-90550000D01*
G75*
G02*
X164315000Y-90400000I150000J0D01*
G01*
X164615000Y-90400000D01*
G75*
G02*
X164765000Y-90550000I0J-150000D01*
G01*
X164765000Y-92200000D01*
G75*
G02*
X164615000Y-92350000I-150000J0D01*
G01*
G37*
%TD.AperFunction*%
%TO.P,U7,4*%
%TO.N,BUS5*%
%TA.AperFunction,SMDPad,CuDef*%
G36*
G01*
X163345000Y-92350000D02*
X163045000Y-92350000D01*
G75*
G02*
X162895000Y-92200000I0J150000D01*
G01*
X162895000Y-90550000D01*
G75*
G02*
X163045000Y-90400000I150000J0D01*
G01*
X163345000Y-90400000D01*
G75*
G02*
X163495000Y-90550000I0J-150000D01*
G01*
X163495000Y-92200000D01*
G75*
G02*
X163345000Y-92350000I-150000J0D01*
G01*
G37*
%TD.AperFunction*%
%TO.P,U7,3*%
%TO.N,BUS4*%
%TA.AperFunction,SMDPad,CuDef*%
G36*
G01*
X162075000Y-92350000D02*
X161775000Y-92350000D01*
G75*
G02*
X161625000Y-92200000I0J150000D01*
G01*
X161625000Y-90550000D01*
G75*
G02*
X161775000Y-90400000I150000J0D01*
G01*
X162075000Y-90400000D01*
G75*
G02*
X162225000Y-90550000I0J-150000D01*
G01*
X162225000Y-92200000D01*
G75*
G02*
X162075000Y-92350000I-150000J0D01*
G01*
G37*
%TD.AperFunction*%
%TO.P,U7,2*%
%TO.N,A3*%
%TA.AperFunction,SMDPad,CuDef*%
G36*
G01*
X160805000Y-92350000D02*
X160505000Y-92350000D01*
G75*
G02*
X160355000Y-92200000I0J150000D01*
G01*
X160355000Y-90550000D01*
G75*
G02*
X160505000Y-90400000I150000J0D01*
G01*
X160805000Y-90400000D01*
G75*
G02*
X160955000Y-90550000I0J-150000D01*
G01*
X160955000Y-92200000D01*
G75*
G02*
X160805000Y-92350000I-150000J0D01*
G01*
G37*
%TD.AperFunction*%
%TO.P,U7,1*%
%TO.N,~RESET*%
%TA.AperFunction,SMDPad,CuDef*%
G36*
G01*
X159535000Y-92350000D02*
X159235000Y-92350000D01*
G75*
G02*
X159085000Y-92200000I0J150000D01*
G01*
X159085000Y-90550000D01*
G75*
G02*
X159235000Y-90400000I150000J0D01*
G01*
X159535000Y-90400000D01*
G75*
G02*
X159685000Y-90550000I0J-150000D01*
G01*
X159685000Y-92200000D01*
G75*
G02*
X159535000Y-92350000I-150000J0D01*
G01*
G37*
%TD.AperFunction*%
%TD*%
%TO.P,U4,16*%
%TO.N,VCC*%
%TA.AperFunction,SMDPad,CuDef*%
G36*
G01*
X146073000Y-87400000D02*
X145773000Y-87400000D01*
G75*
G02*
X145623000Y-87250000I0J150000D01*
G01*
X145623000Y-85600000D01*
G75*
G02*
X145773000Y-85450000I150000J0D01*
G01*
X146073000Y-85450000D01*
G75*
G02*
X146223000Y-85600000I0J-150000D01*
G01*
X146223000Y-87250000D01*
G75*
G02*
X146073000Y-87400000I-150000J0D01*
G01*
G37*
%TD.AperFunction*%
%TO.P,U4,15*%
%TO.N,A0*%
%TA.AperFunction,SMDPad,CuDef*%
G36*
G01*
X147343000Y-87400000D02*
X147043000Y-87400000D01*
G75*
G02*
X146893000Y-87250000I0J150000D01*
G01*
X146893000Y-85600000D01*
G75*
G02*
X147043000Y-85450000I150000J0D01*
G01*
X147343000Y-85450000D01*
G75*
G02*
X147493000Y-85600000I0J-150000D01*
G01*
X147493000Y-87250000D01*
G75*
G02*
X147343000Y-87400000I-150000J0D01*
G01*
G37*
%TD.AperFunction*%
%TO.P,U4,14*%
%TO.N,A1*%
%TA.AperFunction,SMDPad,CuDef*%
G36*
G01*
X148613000Y-87400000D02*
X148313000Y-87400000D01*
G75*
G02*
X148163000Y-87250000I0J150000D01*
G01*
X148163000Y-85600000D01*
G75*
G02*
X148313000Y-85450000I150000J0D01*
G01*
X148613000Y-85450000D01*
G75*
G02*
X148763000Y-85600000I0J-150000D01*
G01*
X148763000Y-87250000D01*
G75*
G02*
X148613000Y-87400000I-150000J0D01*
G01*
G37*
%TD.AperFunction*%
%TO.P,U4,13*%
%TO.N,A2*%
%TA.AperFunction,SMDPad,CuDef*%
G36*
G01*
X149883000Y-87400000D02*
X149583000Y-87400000D01*
G75*
G02*
X149433000Y-87250000I0J150000D01*
G01*
X149433000Y-85600000D01*
G75*
G02*
X149583000Y-85450000I150000J0D01*
G01*
X149883000Y-85450000D01*
G75*
G02*
X150033000Y-85600000I0J-150000D01*
G01*
X150033000Y-87250000D01*
G75*
G02*
X149883000Y-87400000I-150000J0D01*
G01*
G37*
%TD.AperFunction*%
%TO.P,U4,12*%
%TO.N,A3*%
%TA.AperFunction,SMDPad,CuDef*%
G36*
G01*
X151153000Y-87400000D02*
X150853000Y-87400000D01*
G75*
G02*
X150703000Y-87250000I0J150000D01*
G01*
X150703000Y-85600000D01*
G75*
G02*
X150853000Y-85450000I150000J0D01*
G01*
X151153000Y-85450000D01*
G75*
G02*
X151303000Y-85600000I0J-150000D01*
G01*
X151303000Y-87250000D01*
G75*
G02*
X151153000Y-87400000I-150000J0D01*
G01*
G37*
%TD.AperFunction*%
%TO.P,U4,11*%
%TO.N,CLOCK*%
%TA.AperFunction,SMDPad,CuDef*%
G36*
G01*
X152423000Y-87400000D02*
X152123000Y-87400000D01*
G75*
G02*
X151973000Y-87250000I0J150000D01*
G01*
X151973000Y-85600000D01*
G75*
G02*
X152123000Y-85450000I150000J0D01*
G01*
X152423000Y-85450000D01*
G75*
G02*
X152573000Y-85600000I0J-150000D01*
G01*
X152573000Y-87250000D01*
G75*
G02*
X152423000Y-87400000I-150000J0D01*
G01*
G37*
%TD.AperFunction*%
%TO.P,U4,10*%
%TO.N,S1*%
%TA.AperFunction,SMDPad,CuDef*%
G36*
G01*
X153693000Y-87400000D02*
X153393000Y-87400000D01*
G75*
G02*
X153243000Y-87250000I0J150000D01*
G01*
X153243000Y-85600000D01*
G75*
G02*
X153393000Y-85450000I150000J0D01*
G01*
X153693000Y-85450000D01*
G75*
G02*
X153843000Y-85600000I0J-150000D01*
G01*
X153843000Y-87250000D01*
G75*
G02*
X153693000Y-87400000I-150000J0D01*
G01*
G37*
%TD.AperFunction*%
%TO.P,U4,9*%
%TO.N,S0*%
%TA.AperFunction,SMDPad,CuDef*%
G36*
G01*
X154963000Y-87400000D02*
X154663000Y-87400000D01*
G75*
G02*
X154513000Y-87250000I0J150000D01*
G01*
X154513000Y-85600000D01*
G75*
G02*
X154663000Y-85450000I150000J0D01*
G01*
X154963000Y-85450000D01*
G75*
G02*
X155113000Y-85600000I0J-150000D01*
G01*
X155113000Y-87250000D01*
G75*
G02*
X154963000Y-87400000I-150000J0D01*
G01*
G37*
%TD.AperFunction*%
%TO.P,U4,8*%
%TO.N,GND*%
%TA.AperFunction,SMDPad,CuDef*%
G36*
G01*
X154963000Y-92350000D02*
X154663000Y-92350000D01*
G75*
G02*
X154513000Y-92200000I0J150000D01*
G01*
X154513000Y-90550000D01*
G75*
G02*
X154663000Y-90400000I150000J0D01*
G01*
X154963000Y-90400000D01*
G75*
G02*
X155113000Y-90550000I0J-150000D01*
G01*
X155113000Y-92200000D01*
G75*
G02*
X154963000Y-92350000I-150000J0D01*
G01*
G37*
%TD.AperFunction*%
%TO.P,U4,7*%
%TO.N,A4*%
%TA.AperFunction,SMDPad,CuDef*%
G36*
G01*
X153693000Y-92350000D02*
X153393000Y-92350000D01*
G75*
G02*
X153243000Y-92200000I0J150000D01*
G01*
X153243000Y-90550000D01*
G75*
G02*
X153393000Y-90400000I150000J0D01*
G01*
X153693000Y-90400000D01*
G75*
G02*
X153843000Y-90550000I0J-150000D01*
G01*
X153843000Y-92200000D01*
G75*
G02*
X153693000Y-92350000I-150000J0D01*
G01*
G37*
%TD.AperFunction*%
%TO.P,U4,6*%
%TO.N,BUS3*%
%TA.AperFunction,SMDPad,CuDef*%
G36*
G01*
X152423000Y-92350000D02*
X152123000Y-92350000D01*
G75*
G02*
X151973000Y-92200000I0J150000D01*
G01*
X151973000Y-90550000D01*
G75*
G02*
X152123000Y-90400000I150000J0D01*
G01*
X152423000Y-90400000D01*
G75*
G02*
X152573000Y-90550000I0J-150000D01*
G01*
X152573000Y-92200000D01*
G75*
G02*
X152423000Y-92350000I-150000J0D01*
G01*
G37*
%TD.AperFunction*%
%TO.P,U4,5*%
%TO.N,BUS2*%
%TA.AperFunction,SMDPad,CuDef*%
G36*
G01*
X151153000Y-92350000D02*
X150853000Y-92350000D01*
G75*
G02*
X150703000Y-92200000I0J150000D01*
G01*
X150703000Y-90550000D01*
G75*
G02*
X150853000Y-90400000I150000J0D01*
G01*
X151153000Y-90400000D01*
G75*
G02*
X151303000Y-90550000I0J-150000D01*
G01*
X151303000Y-92200000D01*
G75*
G02*
X151153000Y-92350000I-150000J0D01*
G01*
G37*
%TD.AperFunction*%
%TO.P,U4,4*%
%TO.N,BUS1*%
%TA.AperFunction,SMDPad,CuDef*%
G36*
G01*
X149883000Y-92350000D02*
X149583000Y-92350000D01*
G75*
G02*
X149433000Y-92200000I0J150000D01*
G01*
X149433000Y-90550000D01*
G75*
G02*
X149583000Y-90400000I150000J0D01*
G01*
X149883000Y-90400000D01*
G75*
G02*
X150033000Y-90550000I0J-150000D01*
G01*
X150033000Y-92200000D01*
G75*
G02*
X149883000Y-92350000I-150000J0D01*
G01*
G37*
%TD.AperFunction*%
%TO.P,U4,3*%
%TO.N,BUS0*%
%TA.AperFunction,SMDPad,CuDef*%
G36*
G01*
X148613000Y-92350000D02*
X148313000Y-92350000D01*
G75*
G02*
X148163000Y-92200000I0J150000D01*
G01*
X148163000Y-90550000D01*
G75*
G02*
X148313000Y-90400000I150000J0D01*
G01*
X148613000Y-90400000D01*
G75*
G02*
X148763000Y-90550000I0J-150000D01*
G01*
X148763000Y-92200000D01*
G75*
G02*
X148613000Y-92350000I-150000J0D01*
G01*
G37*
%TD.AperFunction*%
%TO.P,U4,2*%
%TO.N,CISR*%
%TA.AperFunction,SMDPad,CuDef*%
G36*
G01*
X147343000Y-92350000D02*
X147043000Y-92350000D01*
G75*
G02*
X146893000Y-92200000I0J150000D01*
G01*
X146893000Y-90550000D01*
G75*
G02*
X147043000Y-90400000I150000J0D01*
G01*
X147343000Y-90400000D01*
G75*
G02*
X147493000Y-90550000I0J-150000D01*
G01*
X147493000Y-92200000D01*
G75*
G02*
X147343000Y-92350000I-150000J0D01*
G01*
G37*
%TD.AperFunction*%
%TO.P,U4,1*%
%TO.N,~RESET*%
%TA.AperFunction,SMDPad,CuDef*%
G36*
G01*
X146073000Y-92350000D02*
X145773000Y-92350000D01*
G75*
G02*
X145623000Y-92200000I0J150000D01*
G01*
X145623000Y-90550000D01*
G75*
G02*
X145773000Y-90400000I150000J0D01*
G01*
X146073000Y-90400000D01*
G75*
G02*
X146223000Y-90550000I0J-150000D01*
G01*
X146223000Y-92200000D01*
G75*
G02*
X146073000Y-92350000I-150000J0D01*
G01*
G37*
%TD.AperFunction*%
%TD*%
%TO.P,U2,20*%
%TO.N,VCC*%
%TA.AperFunction,SMDPad,CuDef*%
G36*
G01*
X172689000Y-86775000D02*
X172489000Y-86775000D01*
G75*
G02*
X172389000Y-86675000I0J100000D01*
G01*
X172389000Y-85400000D01*
G75*
G02*
X172489000Y-85300000I100000J0D01*
G01*
X172689000Y-85300000D01*
G75*
G02*
X172789000Y-85400000I0J-100000D01*
G01*
X172789000Y-86675000D01*
G75*
G02*
X172689000Y-86775000I-100000J0D01*
G01*
G37*
%TD.AperFunction*%
%TO.P,U2,19*%
%TO.N,~A_OUT*%
%TA.AperFunction,SMDPad,CuDef*%
G36*
G01*
X173339000Y-86775000D02*
X173139000Y-86775000D01*
G75*
G02*
X173039000Y-86675000I0J100000D01*
G01*
X173039000Y-85400000D01*
G75*
G02*
X173139000Y-85300000I100000J0D01*
G01*
X173339000Y-85300000D01*
G75*
G02*
X173439000Y-85400000I0J-100000D01*
G01*
X173439000Y-86675000D01*
G75*
G02*
X173339000Y-86775000I-100000J0D01*
G01*
G37*
%TD.AperFunction*%
%TO.P,U2,18*%
%TO.N,A7*%
%TA.AperFunction,SMDPad,CuDef*%
G36*
G01*
X173989000Y-86775000D02*
X173789000Y-86775000D01*
G75*
G02*
X173689000Y-86675000I0J100000D01*
G01*
X173689000Y-85400000D01*
G75*
G02*
X173789000Y-85300000I100000J0D01*
G01*
X173989000Y-85300000D01*
G75*
G02*
X174089000Y-85400000I0J-100000D01*
G01*
X174089000Y-86675000D01*
G75*
G02*
X173989000Y-86775000I-100000J0D01*
G01*
G37*
%TD.AperFunction*%
%TO.P,U2,17*%
%TO.N,A6*%
%TA.AperFunction,SMDPad,CuDef*%
G36*
G01*
X174639000Y-86775000D02*
X174439000Y-86775000D01*
G75*
G02*
X174339000Y-86675000I0J100000D01*
G01*
X174339000Y-85400000D01*
G75*
G02*
X174439000Y-85300000I100000J0D01*
G01*
X174639000Y-85300000D01*
G75*
G02*
X174739000Y-85400000I0J-100000D01*
G01*
X174739000Y-86675000D01*
G75*
G02*
X174639000Y-86775000I-100000J0D01*
G01*
G37*
%TD.AperFunction*%
%TO.P,U2,16*%
%TO.N,A5*%
%TA.AperFunction,SMDPad,CuDef*%
G36*
G01*
X175289000Y-86775000D02*
X175089000Y-86775000D01*
G75*
G02*
X174989000Y-86675000I0J100000D01*
G01*
X174989000Y-85400000D01*
G75*
G02*
X175089000Y-85300000I100000J0D01*
G01*
X175289000Y-85300000D01*
G75*
G02*
X175389000Y-85400000I0J-100000D01*
G01*
X175389000Y-86675000D01*
G75*
G02*
X175289000Y-86775000I-100000J0D01*
G01*
G37*
%TD.AperFunction*%
%TO.P,U2,15*%
%TO.N,A4*%
%TA.AperFunction,SMDPad,CuDef*%
G36*
G01*
X175939000Y-86775000D02*
X175739000Y-86775000D01*
G75*
G02*
X175639000Y-86675000I0J100000D01*
G01*
X175639000Y-85400000D01*
G75*
G02*
X175739000Y-85300000I100000J0D01*
G01*
X175939000Y-85300000D01*
G75*
G02*
X176039000Y-85400000I0J-100000D01*
G01*
X176039000Y-86675000D01*
G75*
G02*
X175939000Y-86775000I-100000J0D01*
G01*
G37*
%TD.AperFunction*%
%TO.P,U2,14*%
%TO.N,A3*%
%TA.AperFunction,SMDPad,CuDef*%
G36*
G01*
X176589000Y-86775000D02*
X176389000Y-86775000D01*
G75*
G02*
X176289000Y-86675000I0J100000D01*
G01*
X176289000Y-85400000D01*
G75*
G02*
X176389000Y-85300000I100000J0D01*
G01*
X176589000Y-85300000D01*
G75*
G02*
X176689000Y-85400000I0J-100000D01*
G01*
X176689000Y-86675000D01*
G75*
G02*
X176589000Y-86775000I-100000J0D01*
G01*
G37*
%TD.AperFunction*%
%TO.P,U2,13*%
%TO.N,A2*%
%TA.AperFunction,SMDPad,CuDef*%
G36*
G01*
X177239000Y-86775000D02*
X177039000Y-86775000D01*
G75*
G02*
X176939000Y-86675000I0J100000D01*
G01*
X176939000Y-85400000D01*
G75*
G02*
X177039000Y-85300000I100000J0D01*
G01*
X177239000Y-85300000D01*
G75*
G02*
X177339000Y-85400000I0J-100000D01*
G01*
X177339000Y-86675000D01*
G75*
G02*
X177239000Y-86775000I-100000J0D01*
G01*
G37*
%TD.AperFunction*%
%TO.P,U2,12*%
%TO.N,A1*%
%TA.AperFunction,SMDPad,CuDef*%
G36*
G01*
X177889000Y-86775000D02*
X177689000Y-86775000D01*
G75*
G02*
X177589000Y-86675000I0J100000D01*
G01*
X177589000Y-85400000D01*
G75*
G02*
X177689000Y-85300000I100000J0D01*
G01*
X177889000Y-85300000D01*
G75*
G02*
X177989000Y-85400000I0J-100000D01*
G01*
X177989000Y-86675000D01*
G75*
G02*
X177889000Y-86775000I-100000J0D01*
G01*
G37*
%TD.AperFunction*%
%TO.P,U2,11*%
%TO.N,A0*%
%TA.AperFunction,SMDPad,CuDef*%
G36*
G01*
X178539000Y-86775000D02*
X178339000Y-86775000D01*
G75*
G02*
X178239000Y-86675000I0J100000D01*
G01*
X178239000Y-85400000D01*
G75*
G02*
X178339000Y-85300000I100000J0D01*
G01*
X178539000Y-85300000D01*
G75*
G02*
X178639000Y-85400000I0J-100000D01*
G01*
X178639000Y-86675000D01*
G75*
G02*
X178539000Y-86775000I-100000J0D01*
G01*
G37*
%TD.AperFunction*%
%TO.P,U2,10*%
%TO.N,GND*%
%TA.AperFunction,SMDPad,CuDef*%
G36*
G01*
X178539000Y-92500000D02*
X178339000Y-92500000D01*
G75*
G02*
X178239000Y-92400000I0J100000D01*
G01*
X178239000Y-91125000D01*
G75*
G02*
X178339000Y-91025000I100000J0D01*
G01*
X178539000Y-91025000D01*
G75*
G02*
X178639000Y-91125000I0J-100000D01*
G01*
X178639000Y-92400000D01*
G75*
G02*
X178539000Y-92500000I-100000J0D01*
G01*
G37*
%TD.AperFunction*%
%TO.P,U2,9*%
%TO.N,BUS0*%
%TA.AperFunction,SMDPad,CuDef*%
G36*
G01*
X177889000Y-92500000D02*
X177689000Y-92500000D01*
G75*
G02*
X177589000Y-92400000I0J100000D01*
G01*
X177589000Y-91125000D01*
G75*
G02*
X177689000Y-91025000I100000J0D01*
G01*
X177889000Y-91025000D01*
G75*
G02*
X177989000Y-91125000I0J-100000D01*
G01*
X177989000Y-92400000D01*
G75*
G02*
X177889000Y-92500000I-100000J0D01*
G01*
G37*
%TD.AperFunction*%
%TO.P,U2,8*%
%TO.N,BUS1*%
%TA.AperFunction,SMDPad,CuDef*%
G36*
G01*
X177239000Y-92500000D02*
X177039000Y-92500000D01*
G75*
G02*
X176939000Y-92400000I0J100000D01*
G01*
X176939000Y-91125000D01*
G75*
G02*
X177039000Y-91025000I100000J0D01*
G01*
X177239000Y-91025000D01*
G75*
G02*
X177339000Y-91125000I0J-100000D01*
G01*
X177339000Y-92400000D01*
G75*
G02*
X177239000Y-92500000I-100000J0D01*
G01*
G37*
%TD.AperFunction*%
%TO.P,U2,7*%
%TO.N,BUS2*%
%TA.AperFunction,SMDPad,CuDef*%
G36*
G01*
X176589000Y-92500000D02*
X176389000Y-92500000D01*
G75*
G02*
X176289000Y-92400000I0J100000D01*
G01*
X176289000Y-91125000D01*
G75*
G02*
X176389000Y-91025000I100000J0D01*
G01*
X176589000Y-91025000D01*
G75*
G02*
X176689000Y-91125000I0J-100000D01*
G01*
X176689000Y-92400000D01*
G75*
G02*
X176589000Y-92500000I-100000J0D01*
G01*
G37*
%TD.AperFunction*%
%TO.P,U2,6*%
%TO.N,BUS3*%
%TA.AperFunction,SMDPad,CuDef*%
G36*
G01*
X175939000Y-92500000D02*
X175739000Y-92500000D01*
G75*
G02*
X175639000Y-92400000I0J100000D01*
G01*
X175639000Y-91125000D01*
G75*
G02*
X175739000Y-91025000I100000J0D01*
G01*
X175939000Y-91025000D01*
G75*
G02*
X176039000Y-91125000I0J-100000D01*
G01*
X176039000Y-92400000D01*
G75*
G02*
X175939000Y-92500000I-100000J0D01*
G01*
G37*
%TD.AperFunction*%
%TO.P,U2,5*%
%TO.N,BUS4*%
%TA.AperFunction,SMDPad,CuDef*%
G36*
G01*
X175289000Y-92500000D02*
X175089000Y-92500000D01*
G75*
G02*
X174989000Y-92400000I0J100000D01*
G01*
X174989000Y-91125000D01*
G75*
G02*
X175089000Y-91025000I100000J0D01*
G01*
X175289000Y-91025000D01*
G75*
G02*
X175389000Y-91125000I0J-100000D01*
G01*
X175389000Y-92400000D01*
G75*
G02*
X175289000Y-92500000I-100000J0D01*
G01*
G37*
%TD.AperFunction*%
%TO.P,U2,4*%
%TO.N,BUS5*%
%TA.AperFunction,SMDPad,CuDef*%
G36*
G01*
X174639000Y-92500000D02*
X174439000Y-92500000D01*
G75*
G02*
X174339000Y-92400000I0J100000D01*
G01*
X174339000Y-91125000D01*
G75*
G02*
X174439000Y-91025000I100000J0D01*
G01*
X174639000Y-91025000D01*
G75*
G02*
X174739000Y-91125000I0J-100000D01*
G01*
X174739000Y-92400000D01*
G75*
G02*
X174639000Y-92500000I-100000J0D01*
G01*
G37*
%TD.AperFunction*%
%TO.P,U2,3*%
%TO.N,BUS6*%
%TA.AperFunction,SMDPad,CuDef*%
G36*
G01*
X173989000Y-92500000D02*
X173789000Y-92500000D01*
G75*
G02*
X173689000Y-92400000I0J100000D01*
G01*
X173689000Y-91125000D01*
G75*
G02*
X173789000Y-91025000I100000J0D01*
G01*
X173989000Y-91025000D01*
G75*
G02*
X174089000Y-91125000I0J-100000D01*
G01*
X174089000Y-92400000D01*
G75*
G02*
X173989000Y-92500000I-100000J0D01*
G01*
G37*
%TD.AperFunction*%
%TO.P,U2,2*%
%TO.N,BUS7*%
%TA.AperFunction,SMDPad,CuDef*%
G36*
G01*
X173339000Y-92500000D02*
X173139000Y-92500000D01*
G75*
G02*
X173039000Y-92400000I0J100000D01*
G01*
X173039000Y-91125000D01*
G75*
G02*
X173139000Y-91025000I100000J0D01*
G01*
X173339000Y-91025000D01*
G75*
G02*
X173439000Y-91125000I0J-100000D01*
G01*
X173439000Y-92400000D01*
G75*
G02*
X173339000Y-92500000I-100000J0D01*
G01*
G37*
%TD.AperFunction*%
%TO.P,U2,1*%
%TO.N,GND*%
%TA.AperFunction,SMDPad,CuDef*%
G36*
G01*
X172689000Y-92500000D02*
X172489000Y-92500000D01*
G75*
G02*
X172389000Y-92400000I0J100000D01*
G01*
X172389000Y-91125000D01*
G75*
G02*
X172489000Y-91025000I100000J0D01*
G01*
X172689000Y-91025000D01*
G75*
G02*
X172789000Y-91125000I0J-100000D01*
G01*
X172789000Y-92400000D01*
G75*
G02*
X172689000Y-92500000I-100000J0D01*
G01*
G37*
%TD.AperFunction*%
%TD*%
%TO.P,U1,14*%
%TO.N,VCC*%
%TA.AperFunction,SMDPad,CuDef*%
G36*
G01*
X129722000Y-86775000D02*
X129522000Y-86775000D01*
G75*
G02*
X129422000Y-86675000I0J100000D01*
G01*
X129422000Y-85400000D01*
G75*
G02*
X129522000Y-85300000I100000J0D01*
G01*
X129722000Y-85300000D01*
G75*
G02*
X129822000Y-85400000I0J-100000D01*
G01*
X129822000Y-86675000D01*
G75*
G02*
X129722000Y-86775000I-100000J0D01*
G01*
G37*
%TD.AperFunction*%
%TO.P,U1,13*%
%TO.N,Net-(U1-Pad13)*%
%TA.AperFunction,SMDPad,CuDef*%
G36*
G01*
X130372000Y-86775000D02*
X130172000Y-86775000D01*
G75*
G02*
X130072000Y-86675000I0J100000D01*
G01*
X130072000Y-85400000D01*
G75*
G02*
X130172000Y-85300000I100000J0D01*
G01*
X130372000Y-85300000D01*
G75*
G02*
X130472000Y-85400000I0J-100000D01*
G01*
X130472000Y-86675000D01*
G75*
G02*
X130372000Y-86775000I-100000J0D01*
G01*
G37*
%TD.AperFunction*%
%TO.P,U1,12*%
%TO.N,Net-(U1-Pad12)*%
%TA.AperFunction,SMDPad,CuDef*%
G36*
G01*
X131022000Y-86775000D02*
X130822000Y-86775000D01*
G75*
G02*
X130722000Y-86675000I0J100000D01*
G01*
X130722000Y-85400000D01*
G75*
G02*
X130822000Y-85300000I100000J0D01*
G01*
X131022000Y-85300000D01*
G75*
G02*
X131122000Y-85400000I0J-100000D01*
G01*
X131122000Y-86675000D01*
G75*
G02*
X131022000Y-86775000I-100000J0D01*
G01*
G37*
%TD.AperFunction*%
%TO.P,U1,11*%
%TO.N,Net-(U1-Pad11)*%
%TA.AperFunction,SMDPad,CuDef*%
G36*
G01*
X131672000Y-86775000D02*
X131472000Y-86775000D01*
G75*
G02*
X131372000Y-86675000I0J100000D01*
G01*
X131372000Y-85400000D01*
G75*
G02*
X131472000Y-85300000I100000J0D01*
G01*
X131672000Y-85300000D01*
G75*
G02*
X131772000Y-85400000I0J-100000D01*
G01*
X131772000Y-86675000D01*
G75*
G02*
X131672000Y-86775000I-100000J0D01*
G01*
G37*
%TD.AperFunction*%
%TO.P,U1,10*%
%TO.N,~ROL*%
%TA.AperFunction,SMDPad,CuDef*%
G36*
G01*
X132322000Y-86775000D02*
X132122000Y-86775000D01*
G75*
G02*
X132022000Y-86675000I0J100000D01*
G01*
X132022000Y-85400000D01*
G75*
G02*
X132122000Y-85300000I100000J0D01*
G01*
X132322000Y-85300000D01*
G75*
G02*
X132422000Y-85400000I0J-100000D01*
G01*
X132422000Y-86675000D01*
G75*
G02*
X132322000Y-86775000I-100000J0D01*
G01*
G37*
%TD.AperFunction*%
%TO.P,U1,9*%
%TO.N,~ROR*%
%TA.AperFunction,SMDPad,CuDef*%
G36*
G01*
X132972000Y-86775000D02*
X132772000Y-86775000D01*
G75*
G02*
X132672000Y-86675000I0J100000D01*
G01*
X132672000Y-85400000D01*
G75*
G02*
X132772000Y-85300000I100000J0D01*
G01*
X132972000Y-85300000D01*
G75*
G02*
X133072000Y-85400000I0J-100000D01*
G01*
X133072000Y-86675000D01*
G75*
G02*
X132972000Y-86775000I-100000J0D01*
G01*
G37*
%TD.AperFunction*%
%TO.P,U1,8*%
%TO.N,Net-(U1-Pad8)*%
%TA.AperFunction,SMDPad,CuDef*%
G36*
G01*
X133622000Y-86775000D02*
X133422000Y-86775000D01*
G75*
G02*
X133322000Y-86675000I0J100000D01*
G01*
X133322000Y-85400000D01*
G75*
G02*
X133422000Y-85300000I100000J0D01*
G01*
X133622000Y-85300000D01*
G75*
G02*
X133722000Y-85400000I0J-100000D01*
G01*
X133722000Y-86675000D01*
G75*
G02*
X133622000Y-86775000I-100000J0D01*
G01*
G37*
%TD.AperFunction*%
%TO.P,U1,7*%
%TO.N,GND*%
%TA.AperFunction,SMDPad,CuDef*%
G36*
G01*
X133622000Y-92500000D02*
X133422000Y-92500000D01*
G75*
G02*
X133322000Y-92400000I0J100000D01*
G01*
X133322000Y-91125000D01*
G75*
G02*
X133422000Y-91025000I100000J0D01*
G01*
X133622000Y-91025000D01*
G75*
G02*
X133722000Y-91125000I0J-100000D01*
G01*
X133722000Y-92400000D01*
G75*
G02*
X133622000Y-92500000I-100000J0D01*
G01*
G37*
%TD.AperFunction*%
%TO.P,U1,6*%
%TO.N,S1*%
%TA.AperFunction,SMDPad,CuDef*%
G36*
G01*
X132972000Y-92500000D02*
X132772000Y-92500000D01*
G75*
G02*
X132672000Y-92400000I0J100000D01*
G01*
X132672000Y-91125000D01*
G75*
G02*
X132772000Y-91025000I100000J0D01*
G01*
X132972000Y-91025000D01*
G75*
G02*
X133072000Y-91125000I0J-100000D01*
G01*
X133072000Y-92400000D01*
G75*
G02*
X132972000Y-92500000I-100000J0D01*
G01*
G37*
%TD.AperFunction*%
%TO.P,U1,5*%
%TO.N,~SHR*%
%TA.AperFunction,SMDPad,CuDef*%
G36*
G01*
X132322000Y-92500000D02*
X132122000Y-92500000D01*
G75*
G02*
X132022000Y-92400000I0J100000D01*
G01*
X132022000Y-91125000D01*
G75*
G02*
X132122000Y-91025000I100000J0D01*
G01*
X132322000Y-91025000D01*
G75*
G02*
X132422000Y-91125000I0J-100000D01*
G01*
X132422000Y-92400000D01*
G75*
G02*
X132322000Y-92500000I-100000J0D01*
G01*
G37*
%TD.AperFunction*%
%TO.P,U1,4*%
%TO.N,~LDA*%
%TA.AperFunction,SMDPad,CuDef*%
G36*
G01*
X131672000Y-92500000D02*
X131472000Y-92500000D01*
G75*
G02*
X131372000Y-92400000I0J100000D01*
G01*
X131372000Y-91125000D01*
G75*
G02*
X131472000Y-91025000I100000J0D01*
G01*
X131672000Y-91025000D01*
G75*
G02*
X131772000Y-91125000I0J-100000D01*
G01*
X131772000Y-92400000D01*
G75*
G02*
X131672000Y-92500000I-100000J0D01*
G01*
G37*
%TD.AperFunction*%
%TO.P,U1,3*%
%TO.N,S0*%
%TA.AperFunction,SMDPad,CuDef*%
G36*
G01*
X131022000Y-92500000D02*
X130822000Y-92500000D01*
G75*
G02*
X130722000Y-92400000I0J100000D01*
G01*
X130722000Y-91125000D01*
G75*
G02*
X130822000Y-91025000I100000J0D01*
G01*
X131022000Y-91025000D01*
G75*
G02*
X131122000Y-91125000I0J-100000D01*
G01*
X131122000Y-92400000D01*
G75*
G02*
X131022000Y-92500000I-100000J0D01*
G01*
G37*
%TD.AperFunction*%
%TO.P,U1,2*%
%TO.N,~SHL*%
%TA.AperFunction,SMDPad,CuDef*%
G36*
G01*
X130372000Y-92500000D02*
X130172000Y-92500000D01*
G75*
G02*
X130072000Y-92400000I0J100000D01*
G01*
X130072000Y-91125000D01*
G75*
G02*
X130172000Y-91025000I100000J0D01*
G01*
X130372000Y-91025000D01*
G75*
G02*
X130472000Y-91125000I0J-100000D01*
G01*
X130472000Y-92400000D01*
G75*
G02*
X130372000Y-92500000I-100000J0D01*
G01*
G37*
%TD.AperFunction*%
%TO.P,U1,1*%
%TO.N,~LDA*%
%TA.AperFunction,SMDPad,CuDef*%
G36*
G01*
X129722000Y-92500000D02*
X129522000Y-92500000D01*
G75*
G02*
X129422000Y-92400000I0J100000D01*
G01*
X129422000Y-91125000D01*
G75*
G02*
X129522000Y-91025000I100000J0D01*
G01*
X129722000Y-91025000D01*
G75*
G02*
X129822000Y-91125000I0J-100000D01*
G01*
X129822000Y-92400000D01*
G75*
G02*
X129722000Y-92500000I-100000J0D01*
G01*
G37*
%TD.AperFunction*%
%TD*%
D12*
%TO.N,VCC*%
X170756500Y-86037500D03*
X128524000Y-86360000D03*
X142494000Y-89154000D03*
X158750000Y-84328000D03*
X182372000Y-88138004D03*
X136652000Y-89662000D03*
%TO.N,A3*%
X161036000Y-89916000D03*
X151130000Y-88138000D03*
%TO.N,GND*%
X179324000Y-93218000D03*
X182880000Y-89916000D03*
X188091000Y-94611000D03*
X171450000Y-93472000D03*
X168910000Y-93472000D03*
X156399000Y-91375000D03*
X142696249Y-91500922D03*
X140208000Y-84328000D03*
X134942500Y-91762500D03*
X144526000Y-82550000D03*
X157226000Y-82042000D03*
X181610000Y-89408000D03*
X137668000Y-84074000D03*
%TO.N,~LDA*%
X131572000Y-89916000D03*
X129286000Y-89916000D03*
%TO.N,~A_OUT*%
X171450000Y-87630000D03*
%TO.N,A7*%
X142240000Y-83820000D03*
%TO.N,A4*%
X154928970Y-88815979D03*
X159739961Y-84186577D03*
%TO.N,BUS0*%
X179832000Y-94742000D03*
%TO.N,BUS1*%
X178562000Y-94742000D03*
%TO.N,BUS2*%
X177413420Y-94680933D03*
%TO.N,CLOCK*%
X153659500Y-84063500D03*
%TO.N,CISR*%
X143764000Y-94488000D03*
X140970000Y-90170000D03*
%TO.N,~RESET*%
X157734000Y-90932000D03*
X146050000Y-89662000D03*
%TO.N,CISL*%
X138938000Y-89916000D03*
X167750491Y-89323545D03*
%TO.N,LDB*%
X177800000Y-87884000D03*
%TD*%
D13*
%TO.N,VCC*%
X172589000Y-86037500D02*
X170756500Y-86037500D01*
X129622000Y-86037500D02*
X128846500Y-86037500D01*
X128846500Y-86037500D02*
X128524000Y-86360000D01*
X145923000Y-86425000D02*
X145223000Y-86425000D01*
X144780000Y-86868000D02*
X143510000Y-86868000D01*
X145223000Y-86425000D02*
X144780000Y-86868000D01*
X143510000Y-86868000D02*
X143510000Y-87884000D01*
X143510000Y-87884000D02*
X142494000Y-88900000D01*
X142494000Y-88900000D02*
X142494000Y-89154000D01*
X159262000Y-86548000D02*
X159385000Y-86425000D01*
X157226000Y-86548000D02*
X159262000Y-86548000D01*
X157226000Y-86548000D02*
X158750000Y-85024000D01*
X158750000Y-85024000D02*
X158750000Y-84328000D01*
X180474500Y-86037500D02*
X180340000Y-86172000D01*
X182241000Y-86037500D02*
X180474500Y-86037500D01*
X182306004Y-88138004D02*
X182372000Y-88138004D01*
X180340000Y-86172000D02*
X182306004Y-88138004D01*
X136406500Y-86548000D02*
X135382000Y-86548000D01*
X136917000Y-86037500D02*
X136406500Y-86548000D01*
X135382000Y-86548000D02*
X135382000Y-88138000D01*
X135382000Y-88138000D02*
X135382000Y-88392000D01*
X135382000Y-88392000D02*
X136652000Y-89662000D01*
%TO.N,A0*%
X147193000Y-81915000D02*
X146304000Y-81026000D01*
X147193000Y-86425000D02*
X147193000Y-81915000D01*
X146304000Y-81026000D02*
X146304000Y-79756000D01*
X149606000Y-76454000D02*
X146304000Y-79756000D01*
X167970044Y-78562044D02*
X165862000Y-76454000D01*
X176969367Y-83381967D02*
X169776467Y-83381967D01*
X167970044Y-81575544D02*
X167970044Y-78562044D01*
X169776467Y-83381967D02*
X167970044Y-81575544D01*
X165862000Y-76454000D02*
X149606000Y-76454000D01*
X178439000Y-84851600D02*
X176969367Y-83381967D01*
X178439000Y-86037500D02*
X178439000Y-84851600D01*
X146455000Y-88138000D02*
X147193000Y-87400000D01*
X140167000Y-91762500D02*
X140167000Y-89936998D01*
X140633999Y-89469999D02*
X141773995Y-89469999D01*
X145288000Y-88138000D02*
X146455000Y-88138000D01*
X140167000Y-89936998D02*
X140633999Y-89469999D01*
X142157998Y-89854002D02*
X143571998Y-89854002D01*
X143571998Y-89854002D02*
X145288000Y-88138000D01*
X141773995Y-89469999D02*
X142157998Y-89854002D01*
X147193000Y-87400000D02*
X147193000Y-86425000D01*
%TO.N,A1*%
X148463000Y-80137000D02*
X148844000Y-79756000D01*
X148463000Y-86425000D02*
X148463000Y-80137000D01*
X176803678Y-83781978D02*
X169610778Y-83781978D01*
X151638000Y-76962000D02*
X148844000Y-79756000D01*
X177789000Y-86037500D02*
X177789000Y-84767300D01*
X165804300Y-76962000D02*
X151638000Y-76962000D01*
X167570033Y-78727733D02*
X165804300Y-76962000D01*
X167570033Y-81741233D02*
X167570033Y-78727733D01*
X169610778Y-83781978D02*
X167570033Y-81741233D01*
X177789000Y-84767300D02*
X176803678Y-83781978D01*
%TO.N,A2*%
X149733000Y-82677000D02*
X151384000Y-81026000D01*
X149733000Y-86425000D02*
X149733000Y-82677000D01*
X151384000Y-79756000D02*
X151384000Y-81026000D01*
X169445089Y-84181989D02*
X167170022Y-81906922D01*
X167170022Y-81906922D02*
X167170022Y-78893422D01*
X177139000Y-84683000D02*
X176637989Y-84181989D01*
X152233999Y-78906001D02*
X151384000Y-79756000D01*
X165638611Y-77362011D02*
X153777989Y-77362011D01*
X176637989Y-84181989D02*
X169445089Y-84181989D01*
X153777989Y-77362011D02*
X152233999Y-78906001D01*
X167170022Y-78893422D02*
X165638611Y-77362011D01*
X177139000Y-86037500D02*
X177139000Y-84683000D01*
%TO.N,A3*%
X151003000Y-83947000D02*
X153924000Y-81026000D01*
X151003000Y-86425000D02*
X151003000Y-83947000D01*
X160655000Y-91375000D02*
X160655000Y-90400000D01*
X153924000Y-81026000D02*
X153924000Y-79756000D01*
X160655000Y-90400000D02*
X161036000Y-89916000D01*
X151003000Y-88011000D02*
X151130000Y-88138000D01*
X151003000Y-86425000D02*
X151003000Y-88011000D01*
X176489000Y-86775000D02*
X176489000Y-86037500D01*
X168399548Y-88623544D02*
X169330015Y-89554011D01*
X161435999Y-89516001D02*
X161462979Y-89516001D01*
X161462979Y-89516001D02*
X161500989Y-89554011D01*
X161500989Y-89554011D02*
X166484023Y-89554011D01*
X166484023Y-89554011D02*
X167414490Y-88623544D01*
X169330015Y-89554011D02*
X173709989Y-89554011D01*
X173709989Y-89554011D02*
X176489000Y-86775000D01*
X167414490Y-88623544D02*
X168399548Y-88623544D01*
X161036000Y-89916000D02*
X161435999Y-89516001D01*
%TO.N,GND*%
X178439000Y-91762500D02*
X179324000Y-92647500D01*
X179324000Y-92647500D02*
X179324000Y-93218000D01*
X182241000Y-91762500D02*
X182241000Y-90555000D01*
X182241000Y-90555000D02*
X182880000Y-89916000D01*
X188091000Y-91762500D02*
X188091000Y-94611000D01*
X172589000Y-91762500D02*
X172589000Y-93095000D01*
X172589000Y-93095000D02*
X172212000Y-93472000D01*
X172212000Y-93472000D02*
X171450000Y-93472000D01*
X168275000Y-91375000D02*
X168275000Y-93091000D01*
X168656000Y-93472000D02*
X168910000Y-93472000D01*
X168275000Y-93091000D02*
X168656000Y-93472000D01*
X156653000Y-91375000D02*
X156399000Y-91375000D01*
X154813000Y-91375000D02*
X156399000Y-91375000D01*
X142434671Y-91762500D02*
X142696249Y-91500922D01*
X141467000Y-91762500D02*
X142434671Y-91762500D01*
X137567000Y-86037500D02*
X138867000Y-86037500D01*
X140167000Y-86775000D02*
X140167000Y-86037500D01*
X138867000Y-86775000D02*
X139167010Y-87075010D01*
X139866990Y-87075010D02*
X140167000Y-86775000D01*
X139167010Y-87075010D02*
X139866990Y-87075010D01*
X138867000Y-86037500D02*
X138867000Y-86775000D01*
X140817000Y-86037500D02*
X140167000Y-86037500D01*
X140167000Y-86037500D02*
X140167000Y-84623000D01*
X140208000Y-84582000D02*
X140208000Y-84328000D01*
X140167000Y-84623000D02*
X140208000Y-84582000D01*
X139132692Y-92800010D02*
X139517000Y-92415702D01*
X139517000Y-92415702D02*
X139517000Y-91762500D01*
X137867010Y-92800010D02*
X139132692Y-92800010D01*
X137567000Y-92500000D02*
X137867010Y-92800010D01*
X137567000Y-91762500D02*
X137567000Y-92500000D01*
X141467000Y-92500000D02*
X141467000Y-91762500D01*
X141166990Y-92800010D02*
X141467000Y-92500000D01*
X139517000Y-92500000D02*
X139817010Y-92800010D01*
X139817010Y-92800010D02*
X141166990Y-92800010D01*
X139517000Y-91762500D02*
X139517000Y-92500000D01*
X135059500Y-91762500D02*
X134942500Y-91762500D01*
X133522000Y-91762500D02*
X134942500Y-91762500D01*
X143510000Y-84968000D02*
X143510000Y-83566000D01*
X143510000Y-83566000D02*
X144526000Y-82550000D01*
X157226000Y-84648000D02*
X157226000Y-82042000D01*
X180340000Y-88072000D02*
X181356000Y-89088000D01*
X181356000Y-89154000D02*
X181610000Y-89408000D01*
X181356000Y-89088000D02*
X181356000Y-89154000D01*
X136991000Y-84074000D02*
X137668000Y-84074000D01*
X136417000Y-84648000D02*
X136991000Y-84074000D01*
X135382000Y-84648000D02*
X136417000Y-84648000D01*
%TO.N,~ROL*%
X131396011Y-84474011D02*
X132222000Y-85300000D01*
X132222000Y-85300000D02*
X132222000Y-86037500D01*
X132010033Y-95942033D02*
X130116633Y-95942033D01*
X127762000Y-93587400D02*
X127762000Y-85401700D01*
X133604000Y-97536000D02*
X132010033Y-95942033D01*
X130116633Y-95942033D02*
X127762000Y-93587400D01*
X127762000Y-85401700D02*
X128689689Y-84474011D01*
X128689689Y-84474011D02*
X131396011Y-84474011D01*
%TO.N,~ROR*%
X131646000Y-84074000D02*
X132872000Y-85300000D01*
X128524000Y-84074000D02*
X131646000Y-84074000D01*
X127361989Y-85236011D02*
X128524000Y-84074000D01*
X127361989Y-93753089D02*
X127361989Y-85236011D01*
X129950944Y-96342044D02*
X127361989Y-93753089D01*
X132334000Y-98552000D02*
X132334000Y-97004800D01*
X132872000Y-85300000D02*
X132872000Y-86037500D01*
X132842000Y-99060000D02*
X132334000Y-98552000D01*
X134620000Y-99060000D02*
X132842000Y-99060000D01*
X136144000Y-97536000D02*
X134620000Y-99060000D01*
X132334000Y-97004800D02*
X131671244Y-96342044D01*
X131671244Y-96342044D02*
X129950944Y-96342044D01*
%TO.N,Net-(U1-Pad8)*%
X133522000Y-88367500D02*
X136917000Y-91762500D01*
X133522000Y-86037500D02*
X133522000Y-88367500D01*
%TO.N,S1*%
X132872000Y-91762500D02*
X132872000Y-92500000D01*
X133697989Y-93325989D02*
X142074311Y-93325989D01*
X132872000Y-92500000D02*
X133697989Y-93325989D01*
X145429712Y-88561988D02*
X147059690Y-88561988D01*
X142074311Y-93325989D02*
X143510000Y-91890300D01*
X153543000Y-87400000D02*
X153543000Y-86425000D01*
X143510000Y-91890300D02*
X143510000Y-90481700D01*
X147059690Y-88561988D02*
X147335703Y-88838001D01*
X143510000Y-90481700D02*
X145429712Y-88561988D01*
X147335703Y-88838001D02*
X152104999Y-88838001D01*
X152104999Y-88838001D02*
X153543000Y-87400000D01*
X167005000Y-86425000D02*
X167005000Y-87335934D01*
X167005000Y-87335934D02*
X166094945Y-88245989D01*
X154727423Y-84728011D02*
X154264989Y-84728011D01*
X155413010Y-87398710D02*
X155413010Y-85413598D01*
X166094945Y-88245989D02*
X156260289Y-88245989D01*
X155413010Y-85413598D02*
X154727423Y-84728011D01*
X156260289Y-88245989D02*
X155413010Y-87398710D01*
X154264989Y-84728011D02*
X153543000Y-85450000D01*
X153543000Y-85450000D02*
X153543000Y-86425000D01*
%TO.N,~SHR*%
X138684000Y-97536000D02*
X136690022Y-95542022D01*
X130282322Y-95542022D02*
X128162011Y-93421711D01*
X131507991Y-88815987D02*
X132272008Y-89580004D01*
X136690022Y-95542022D02*
X130282322Y-95542022D01*
X128162011Y-93421711D02*
X128162011Y-89438285D01*
X128162011Y-89438285D02*
X128784309Y-88815987D01*
X128784309Y-88815987D02*
X131507991Y-88815987D01*
X132272008Y-89580004D02*
X132272008Y-91712492D01*
X132272008Y-91712492D02*
X132222000Y-91762500D01*
%TO.N,~LDA*%
X148844000Y-97536000D02*
X146812000Y-95504000D01*
X146812000Y-95504000D02*
X140462000Y-95504000D01*
X140462000Y-95504000D02*
X139700000Y-94742000D01*
X139700000Y-94742000D02*
X130810000Y-94742000D01*
X129622000Y-93554000D02*
X129622000Y-91762500D01*
X130810000Y-94742000D02*
X129622000Y-93554000D01*
X131572000Y-91762500D02*
X131572000Y-89916000D01*
X129622000Y-91762500D02*
X129622000Y-91014000D01*
X129622000Y-91014000D02*
X129286000Y-90678000D01*
X129286000Y-90678000D02*
X129286000Y-89916000D01*
%TO.N,S0*%
X154813000Y-86425000D02*
X154813000Y-87400000D01*
X167851478Y-87823522D02*
X168275000Y-87400000D01*
X154813000Y-87400000D02*
X156059000Y-88646000D01*
X156059000Y-88646000D02*
X166260634Y-88646000D01*
X167083112Y-87823522D02*
X167851478Y-87823522D01*
X168275000Y-87400000D02*
X168275000Y-86425000D01*
X166260634Y-88646000D02*
X167083112Y-87823522D01*
X130922000Y-92415702D02*
X130922000Y-91762500D01*
X130922000Y-93076000D02*
X130922000Y-91762500D01*
X131572000Y-93726000D02*
X130922000Y-93076000D01*
X144018000Y-90678000D02*
X144018000Y-92714940D01*
X144018000Y-92714940D02*
X143006940Y-93726000D01*
X145734001Y-88961999D02*
X144018000Y-90678000D01*
X147170014Y-89238012D02*
X146894001Y-88961999D01*
X146894001Y-88961999D02*
X145734001Y-88961999D01*
X152974988Y-89238012D02*
X147170014Y-89238012D01*
X143006940Y-93726000D02*
X131572000Y-93726000D01*
X154813000Y-87400000D02*
X152974988Y-89238012D01*
%TO.N,~SHL*%
X129622002Y-89215998D02*
X130272000Y-89865996D01*
X128562022Y-89603974D02*
X128949998Y-89215998D01*
X130272000Y-89865996D02*
X130272000Y-91762500D01*
X138830011Y-95142011D02*
X130448011Y-95142011D01*
X128949998Y-89215998D02*
X129622002Y-89215998D01*
X130448011Y-95142011D02*
X128562022Y-93256022D01*
X128562022Y-93256022D02*
X128562022Y-89603974D01*
X141224000Y-97536000D02*
X138830011Y-95142011D01*
%TO.N,~A_OUT*%
X173239000Y-86037500D02*
X173239000Y-87365000D01*
X173239000Y-87365000D02*
X172974000Y-87630000D01*
X172974000Y-87630000D02*
X171450000Y-87630000D01*
%TO.N,A7*%
X164084000Y-81026000D02*
X164084000Y-81788000D01*
X164465000Y-82169000D02*
X164465000Y-86425000D01*
X164084000Y-81788000D02*
X164465000Y-82169000D01*
X165354000Y-81026000D02*
X164084000Y-79756000D01*
X165354000Y-82804000D02*
X165354000Y-81026000D01*
X167490588Y-84940588D02*
X165354000Y-82804000D01*
X169672000Y-86210588D02*
X168402000Y-84940588D01*
X169672000Y-87122000D02*
X169672000Y-86210588D01*
X168402000Y-84940588D02*
X167490588Y-84940588D01*
X170942000Y-88392000D02*
X169672000Y-87122000D01*
X173228000Y-88392000D02*
X170942000Y-88392000D01*
X173889000Y-87731000D02*
X173228000Y-88392000D01*
X173889000Y-86037500D02*
X173889000Y-87731000D01*
X164084000Y-81026000D02*
X164084000Y-79756000D01*
X142240000Y-86671685D02*
X142240000Y-83820000D01*
X138217000Y-91762500D02*
X138217000Y-89600998D01*
X138217000Y-89600998D02*
X139933998Y-87884000D01*
X139933998Y-87884000D02*
X141027685Y-87884000D01*
X141027685Y-87884000D02*
X142240000Y-86671685D01*
%TO.N,A6*%
X163195000Y-82677000D02*
X163195000Y-86425000D01*
X161544000Y-81026000D02*
X163195000Y-82677000D01*
X161544000Y-81026000D02*
X161544000Y-79756000D01*
X166370000Y-79224800D02*
X165307233Y-78162033D01*
X163137967Y-78162033D02*
X161544000Y-79756000D01*
X174539000Y-86037500D02*
X174539000Y-85300000D01*
X174539000Y-85300000D02*
X174238990Y-84999990D01*
X165307233Y-78162033D02*
X163137967Y-78162033D01*
X174238990Y-84999990D02*
X169131690Y-84999990D01*
X166370000Y-82238300D02*
X166370000Y-79224800D01*
X169131690Y-84999990D02*
X166370000Y-82238300D01*
%TO.N,A5*%
X161925000Y-83947000D02*
X161925000Y-86425000D01*
X159004000Y-81026000D02*
X161925000Y-83947000D01*
X159004000Y-81026000D02*
X159004000Y-79756000D01*
X166770011Y-82072611D02*
X169297379Y-84599979D01*
X160997978Y-77762022D02*
X165472922Y-77762022D01*
X159004000Y-79756000D02*
X160997978Y-77762022D01*
X169297379Y-84599979D02*
X174488979Y-84599979D01*
X174488979Y-84599979D02*
X175189000Y-85300000D01*
X165472922Y-77762022D02*
X166770011Y-79059111D01*
X175189000Y-85300000D02*
X175189000Y-86037500D01*
X166770011Y-79059111D02*
X166770011Y-82072611D01*
%TO.N,A4*%
X153543000Y-91375000D02*
X153543000Y-90201949D01*
X153543000Y-90201949D02*
X154928970Y-88815979D01*
X173460000Y-89154000D02*
X169495704Y-89154000D01*
X169495704Y-89154000D02*
X168565237Y-88223533D01*
X168565237Y-88223533D02*
X167248801Y-88223533D01*
X166402355Y-89069979D02*
X155182970Y-89069979D01*
X175839000Y-86037500D02*
X175839000Y-86775000D01*
X155182970Y-89069979D02*
X154928970Y-88815979D01*
X175839000Y-86775000D02*
X173460000Y-89154000D01*
X167248801Y-88223533D02*
X166402355Y-89069979D01*
X156464000Y-79756000D02*
X159739961Y-83031961D01*
X159739961Y-83031961D02*
X159739961Y-84186577D01*
X160655000Y-86425000D02*
X160655000Y-85101616D01*
X160655000Y-85101616D02*
X159739961Y-84186577D01*
%TO.N,BUS0*%
X187441000Y-93483000D02*
X187441000Y-91762500D01*
X186944000Y-93980000D02*
X187441000Y-93483000D01*
X186944000Y-97536000D02*
X186944000Y-93980000D01*
X177789000Y-91762500D02*
X177789000Y-92699000D01*
X177789000Y-92699000D02*
X179324000Y-94234000D01*
X179324000Y-94234000D02*
X179832000Y-94742000D01*
X167132000Y-101092000D02*
X183388000Y-101092000D01*
X160782000Y-94742000D02*
X167132000Y-101092000D01*
X183388000Y-101092000D02*
X186944000Y-97536000D01*
X151384000Y-94742000D02*
X160782000Y-94742000D01*
X148463000Y-91821000D02*
X151384000Y-94742000D01*
X148463000Y-91375000D02*
X148463000Y-91821000D01*
%TO.N,BUS1*%
X186791000Y-93567300D02*
X186791000Y-91762500D01*
X184404000Y-97536000D02*
X184404000Y-95954300D01*
X184404000Y-95954300D02*
X186791000Y-93567300D01*
X177139000Y-91762500D02*
X177139000Y-93319000D01*
X177139000Y-93319000D02*
X178562000Y-94742000D01*
X181253945Y-100686055D02*
X184404000Y-97536000D01*
X149733000Y-91375000D02*
X149733000Y-92350000D01*
X149733000Y-92350000D02*
X151724989Y-94341989D01*
X151724989Y-94341989D02*
X160947689Y-94341989D01*
X160947689Y-94341989D02*
X167291755Y-100686055D01*
X167291755Y-100686055D02*
X181253945Y-100686055D01*
%TO.N,BUS2*%
X181864000Y-97536000D02*
X186182000Y-93218000D01*
X186182000Y-91803500D02*
X186141000Y-91762500D01*
X186182000Y-93218000D02*
X186182000Y-91803500D01*
X176489000Y-91762500D02*
X176489000Y-93756513D01*
X176489000Y-93756513D02*
X177413420Y-94680933D01*
X179113956Y-100286044D02*
X181864000Y-97536000D01*
X167457444Y-100286044D02*
X179113956Y-100286044D01*
X151003000Y-92350000D02*
X152594978Y-93941978D01*
X151003000Y-91375000D02*
X151003000Y-92350000D01*
X152594978Y-93941978D02*
X161113378Y-93941978D01*
X161113378Y-93941978D02*
X167457444Y-100286044D01*
%TO.N,BUS3*%
X175839000Y-94142517D02*
X175839000Y-91762500D01*
X179324000Y-97536000D02*
X179232483Y-97536000D01*
X179232483Y-97536000D02*
X175839000Y-94142517D01*
X183356989Y-94634011D02*
X185491000Y-92500000D01*
X185491000Y-92500000D02*
X185491000Y-91762500D01*
X179324000Y-97536000D02*
X179598004Y-97536000D01*
X179598004Y-97536000D02*
X182499993Y-94634011D01*
X182499993Y-94634011D02*
X183356989Y-94634011D01*
X152273000Y-92350000D02*
X153464967Y-93541967D01*
X167623133Y-99886033D02*
X176973967Y-99886033D01*
X153464967Y-93541967D02*
X161279067Y-93541967D01*
X152273000Y-91375000D02*
X152273000Y-92350000D01*
X161279067Y-93541967D02*
X167623133Y-99886033D01*
X176973967Y-99886033D02*
X179324000Y-97536000D01*
%TO.N,BUS4*%
X175189000Y-95941000D02*
X175189000Y-91762500D01*
X176784000Y-97536000D02*
X175189000Y-95941000D01*
X183276702Y-93980000D02*
X183192401Y-93980000D01*
X184841000Y-92415702D02*
X183276702Y-93980000D01*
X183192401Y-93980000D02*
X183172360Y-94000041D01*
X184841000Y-91762500D02*
X184841000Y-92415702D01*
X183172360Y-94000041D02*
X181376041Y-94000041D01*
X181376041Y-94000041D02*
X179832000Y-92456000D01*
X179832000Y-92456000D02*
X179832000Y-90932000D01*
X179832000Y-90932000D02*
X179070000Y-90170000D01*
X175189000Y-91025000D02*
X175189000Y-91762500D01*
X176044000Y-90170000D02*
X175189000Y-91025000D01*
X179070000Y-90170000D02*
X176044000Y-90170000D01*
X167788822Y-99486022D02*
X174833978Y-99486022D01*
X174833978Y-99486022D02*
X176784000Y-97536000D01*
X161925000Y-91375000D02*
X161925000Y-93622200D01*
X161925000Y-93622200D02*
X167788822Y-99486022D01*
%TO.N,BUS5*%
X174539000Y-97241000D02*
X174539000Y-91762500D01*
X174244000Y-97536000D02*
X174539000Y-97241000D01*
X184191000Y-91762500D02*
X184191000Y-92415702D01*
X174539000Y-91025000D02*
X174539000Y-91762500D01*
X183006672Y-93600030D02*
X181541730Y-93600030D01*
X180232011Y-90766311D02*
X179235689Y-89769989D01*
X179235689Y-89769989D02*
X175794011Y-89769989D01*
X181541730Y-93600030D02*
X180232011Y-92290311D01*
X175794011Y-89769989D02*
X174539000Y-91025000D01*
X180232011Y-92290311D02*
X180232011Y-90766311D01*
X184191000Y-92415702D02*
X183006672Y-93600030D01*
X163195000Y-94326500D02*
X167954511Y-99086011D01*
X167954511Y-99086011D02*
X172693989Y-99086011D01*
X163195000Y-91375000D02*
X163195000Y-94326500D01*
X172693989Y-99086011D02*
X174244000Y-97536000D01*
%TO.N,BUS6*%
X173889000Y-95351000D02*
X173889000Y-91762500D01*
X171704000Y-97536000D02*
X173889000Y-95351000D01*
X183541000Y-91762500D02*
X183541000Y-92500000D01*
X182840981Y-93200019D02*
X181707419Y-93200019D01*
X181707419Y-93200019D02*
X180632022Y-92124622D01*
X183541000Y-92500000D02*
X182840981Y-93200019D01*
X173889000Y-91025000D02*
X173889000Y-91762500D01*
X180632022Y-92124622D02*
X180632022Y-90600622D01*
X179401378Y-89369978D02*
X175544022Y-89369978D01*
X180632022Y-90600622D02*
X179401378Y-89369978D01*
X175544022Y-89369978D02*
X173889000Y-91025000D01*
X170554000Y-98686000D02*
X171704000Y-97536000D01*
X168120200Y-98686000D02*
X170554000Y-98686000D01*
X164465000Y-91375000D02*
X164465000Y-95030800D01*
X164465000Y-95030800D02*
X168120200Y-98686000D01*
%TO.N,BUS7*%
X173239000Y-93461000D02*
X173239000Y-91762500D01*
X169164000Y-97536000D02*
X173239000Y-93461000D01*
X181032033Y-91958933D02*
X181032033Y-90434933D01*
X182590992Y-92800008D02*
X181873108Y-92800008D01*
X179567067Y-88969967D02*
X175294033Y-88969967D01*
X182891000Y-92500000D02*
X182590992Y-92800008D01*
X181873108Y-92800008D02*
X181032033Y-91958933D01*
X181032033Y-90434933D02*
X179567067Y-88969967D01*
X182891000Y-91762500D02*
X182891000Y-92500000D01*
X175294033Y-88969967D02*
X173239000Y-91025000D01*
X173239000Y-91025000D02*
X173239000Y-91762500D01*
X165735000Y-94107000D02*
X169164000Y-97536000D01*
X165735000Y-91375000D02*
X165735000Y-94107000D01*
%TO.N,B0*%
X188578177Y-87115923D02*
X188969923Y-86724177D01*
X188969923Y-86724177D02*
X188969923Y-85233823D01*
X178873700Y-84582000D02*
X177273656Y-82981956D01*
X187441000Y-86037500D02*
X187441000Y-86857000D01*
X187699923Y-87115923D02*
X188578177Y-87115923D01*
X188318100Y-84582000D02*
X178873700Y-84582000D01*
X188969923Y-85233823D02*
X188318100Y-84582000D01*
X187441000Y-86857000D02*
X187699923Y-87115923D01*
X177273656Y-82981956D02*
X172389956Y-82981956D01*
X172389956Y-82981956D02*
X169164000Y-79756000D01*
%TO.N,B1*%
X188483789Y-84181989D02*
X189369934Y-85068134D01*
X179039389Y-84181989D02*
X188483789Y-84181989D01*
X188743866Y-87515934D02*
X187531934Y-87515934D01*
X187531934Y-87515934D02*
X186791000Y-86775000D01*
X189369934Y-85068134D02*
X189369934Y-86889866D01*
X174529945Y-82581945D02*
X177439345Y-82581945D01*
X171704000Y-79756000D02*
X174529945Y-82581945D01*
X177439345Y-82581945D02*
X179039389Y-84181989D01*
X186791000Y-86775000D02*
X186791000Y-86037500D01*
X189369934Y-86889866D02*
X188743866Y-87515934D01*
%TO.N,B2*%
X187172245Y-87915945D02*
X188909555Y-87915945D01*
X176669934Y-82181934D02*
X174244000Y-79756000D01*
X186141000Y-86037500D02*
X186141000Y-86884700D01*
X188909555Y-87915945D02*
X189769945Y-87055555D01*
X186141000Y-86884700D02*
X187172245Y-87915945D01*
X189769945Y-84902445D02*
X188649478Y-83781978D01*
X189769945Y-87055555D02*
X189769945Y-84902445D01*
X188649478Y-83781978D02*
X179205078Y-83781978D01*
X179205078Y-83781978D02*
X177605034Y-82181934D01*
X177605034Y-82181934D02*
X176669934Y-82181934D01*
%TO.N,B3*%
X187006556Y-88315956D02*
X185491000Y-86800400D01*
X180409967Y-83381967D02*
X188815167Y-83381967D01*
X190169956Y-84736756D02*
X190169956Y-87221244D01*
X190169956Y-87221244D02*
X189075244Y-88315956D01*
X176784000Y-79756000D02*
X180409967Y-83381967D01*
X188815167Y-83381967D02*
X190169956Y-84736756D01*
X189075244Y-88315956D02*
X187006556Y-88315956D01*
X185491000Y-86800400D02*
X185491000Y-86037500D01*
%TO.N,B4*%
X188980856Y-82981956D02*
X182549956Y-82981956D01*
X184841000Y-87108700D02*
X186448267Y-88715967D01*
X184841000Y-86037500D02*
X184841000Y-87108700D01*
X190569967Y-84571067D02*
X188980856Y-82981956D01*
X186448267Y-88715967D02*
X189240933Y-88715967D01*
X189240933Y-88715967D02*
X190569967Y-87386933D01*
X190569967Y-87386933D02*
X190569967Y-84571067D01*
X182549956Y-82981956D02*
X179324000Y-79756000D01*
%TO.N,B5*%
X184191000Y-87024400D02*
X184191000Y-86037500D01*
X190969978Y-84405378D02*
X190969978Y-87552622D01*
X189146545Y-82581945D02*
X190969978Y-84405378D01*
X181864000Y-79756000D02*
X184689945Y-82581945D01*
X189406622Y-89115978D02*
X186282578Y-89115978D01*
X190969978Y-87552622D02*
X189406622Y-89115978D01*
X186282578Y-89115978D02*
X184191000Y-87024400D01*
X184689945Y-82581945D02*
X189146545Y-82581945D01*
%TO.N,B6*%
X186829934Y-82181934D02*
X184404000Y-79756000D01*
X191369989Y-84239689D02*
X189312234Y-82181934D01*
X186116889Y-89515989D02*
X189572311Y-89515989D01*
X189572311Y-89515989D02*
X191369989Y-87718311D01*
X183541000Y-86037500D02*
X183541000Y-86940100D01*
X189312234Y-82181934D02*
X186829934Y-82181934D01*
X191369989Y-87718311D02*
X191369989Y-84239689D01*
X183541000Y-86940100D02*
X186116889Y-89515989D01*
%TO.N,B7*%
X187452000Y-79756000D02*
X186944000Y-79756000D01*
X191770000Y-84074000D02*
X187452000Y-79756000D01*
X191770000Y-87884000D02*
X191770000Y-84074000D01*
X189738000Y-89916000D02*
X191770000Y-87884000D01*
X182891000Y-86855800D02*
X185951200Y-89916000D01*
X182891000Y-86037500D02*
X182891000Y-86855800D01*
X185951200Y-89916000D02*
X189738000Y-89916000D01*
%TO.N,CLOCK*%
X152273000Y-85450000D02*
X152273000Y-86425000D01*
X153659500Y-84063500D02*
X152273000Y-85450000D01*
X153924000Y-84328000D02*
X153659500Y-84063500D01*
X154940000Y-84328000D02*
X153924000Y-84328000D01*
X155702000Y-85136888D02*
X155702000Y-85090000D01*
X155813021Y-87233021D02*
X155813021Y-85247909D01*
X156425978Y-87845978D02*
X155813021Y-87233021D01*
X165289022Y-87845978D02*
X156425978Y-87845978D01*
X165735000Y-87400000D02*
X165289022Y-87845978D01*
X165735000Y-86425000D02*
X165735000Y-87400000D01*
X155702000Y-85090000D02*
X154940000Y-84328000D01*
X155813021Y-85247909D02*
X155702000Y-85136888D01*
%TO.N,CISR*%
X147193000Y-91375000D02*
X147193000Y-93091000D01*
X147193000Y-93091000D02*
X145796000Y-94488000D01*
X145796000Y-94488000D02*
X143764000Y-94488000D01*
X140817000Y-91762500D02*
X140817000Y-90323000D01*
X140817000Y-90323000D02*
X140970000Y-90170000D01*
%TO.N,~RESET*%
X159385000Y-91375000D02*
X158431000Y-91375000D01*
X157988000Y-90932000D02*
X157734000Y-90932000D01*
X158431000Y-91375000D02*
X157988000Y-90932000D01*
X146050000Y-91248000D02*
X145923000Y-91375000D01*
X146050000Y-89662000D02*
X146050000Y-91248000D01*
%TO.N,CISL*%
X138867000Y-89987000D02*
X138938000Y-89916000D01*
X138867000Y-91762500D02*
X138867000Y-89987000D01*
X167005000Y-90069036D02*
X167750491Y-89323545D01*
X167005000Y-91375000D02*
X167005000Y-90069036D01*
%TO.N,LDB*%
X179070000Y-87122000D02*
X178308000Y-87884000D01*
X187852010Y-84982010D02*
X179685990Y-84982010D01*
X178308000Y-87884000D02*
X177800000Y-87884000D01*
X188091000Y-85221000D02*
X187852010Y-84982010D01*
X179070000Y-85598000D02*
X179070000Y-87122000D01*
X179685990Y-84982010D02*
X179070000Y-85598000D01*
X188091000Y-86037500D02*
X188091000Y-85221000D01*
%TD*%
M02*
