%TF.GenerationSoftware,KiCad,Pcbnew,(5.1.10-1-10_14)*%
%TF.CreationDate,2021-12-11T09:19:18-05:00*%
%TF.ProjectId,control-unit,636f6e74-726f-46c2-9d75-6e69742e6b69,rev?*%
%TF.SameCoordinates,Original*%
%TF.FileFunction,Legend,Bot*%
%TF.FilePolarity,Positive*%
%FSLAX46Y46*%
G04 Gerber Fmt 4.6, Leading zero omitted, Abs format (unit mm)*
G04 Created by KiCad (PCBNEW (5.1.10-1-10_14)) date 2021-12-11 09:19:18*
%MOMM*%
%LPD*%
G01*
G04 APERTURE LIST*
%ADD10C,0.120000*%
G04 APERTURE END LIST*
D10*
%TO.C,J4*%
X167834000Y-81086000D02*
X167834000Y-78426000D01*
X185674000Y-81086000D02*
X167834000Y-81086000D01*
X185674000Y-78426000D02*
X167834000Y-78426000D01*
X185674000Y-81086000D02*
X185674000Y-78426000D01*
X186944000Y-81086000D02*
X188274000Y-81086000D01*
X188274000Y-81086000D02*
X188274000Y-79756000D01*
%TO.C,J3*%
X144974000Y-81086000D02*
X144974000Y-78426000D01*
X162814000Y-81086000D02*
X144974000Y-81086000D01*
X162814000Y-78426000D02*
X144974000Y-78426000D01*
X162814000Y-81086000D02*
X162814000Y-78426000D01*
X164084000Y-81086000D02*
X165414000Y-81086000D01*
X165414000Y-81086000D02*
X165414000Y-79756000D01*
%TO.C,J2*%
X155254000Y-96206000D02*
X155254000Y-98866000D01*
X129794000Y-96206000D02*
X155254000Y-96206000D01*
X129794000Y-98866000D02*
X155254000Y-98866000D01*
X129794000Y-96206000D02*
X129794000Y-98866000D01*
X128524000Y-96206000D02*
X127194000Y-96206000D01*
X127194000Y-96206000D02*
X127194000Y-97536000D01*
%TO.C,J1*%
X188274000Y-96206000D02*
X188274000Y-98866000D01*
X170434000Y-96206000D02*
X188274000Y-96206000D01*
X170434000Y-98866000D02*
X188274000Y-98866000D01*
X170434000Y-96206000D02*
X170434000Y-98866000D01*
X169164000Y-96206000D02*
X167834000Y-96206000D01*
X167834000Y-96206000D02*
X167834000Y-97536000D01*
%TD*%
M02*
