%TF.GenerationSoftware,KiCad,Pcbnew,(6.0.0-0)*%
%TF.CreationDate,2022-08-18T21:47:30-04:00*%
%TF.ProjectId,CPU-Microcode-EEPROMs,4350552d-4d69-4637-926f-636f64652d45,rev?*%
%TF.SameCoordinates,Original*%
%TF.FileFunction,Paste,Top*%
%TF.FilePolarity,Positive*%
%FSLAX46Y46*%
G04 Gerber Fmt 4.6, Leading zero omitted, Abs format (unit mm)*
G04 Created by KiCad (PCBNEW (6.0.0-0)) date 2022-08-18 21:47:30*
%MOMM*%
%LPD*%
G01*
G04 APERTURE LIST*
G04 Aperture macros list*
%AMRoundRect*
0 Rectangle with rounded corners*
0 $1 Rounding radius*
0 $2 $3 $4 $5 $6 $7 $8 $9 X,Y pos of 4 corners*
0 Add a 4 corners polygon primitive as box body*
4,1,4,$2,$3,$4,$5,$6,$7,$8,$9,$2,$3,0*
0 Add four circle primitives for the rounded corners*
1,1,$1+$1,$2,$3*
1,1,$1+$1,$4,$5*
1,1,$1+$1,$6,$7*
1,1,$1+$1,$8,$9*
0 Add four rect primitives between the rounded corners*
20,1,$1+$1,$2,$3,$4,$5,0*
20,1,$1+$1,$4,$5,$6,$7,0*
20,1,$1+$1,$6,$7,$8,$9,0*
20,1,$1+$1,$8,$9,$2,$3,0*%
G04 Aperture macros list end*
%ADD10RoundRect,0.250000X-0.250000X-0.475000X0.250000X-0.475000X0.250000X0.475000X-0.250000X0.475000X0*%
%ADD11RoundRect,0.100000X0.100000X-0.637500X0.100000X0.637500X-0.100000X0.637500X-0.100000X-0.637500X0*%
%ADD12RoundRect,0.250000X0.450000X-0.262500X0.450000X0.262500X-0.450000X0.262500X-0.450000X-0.262500X0*%
%ADD13RoundRect,0.243750X-0.456250X0.243750X-0.456250X-0.243750X0.456250X-0.243750X0.456250X0.243750X0*%
%ADD14R,0.644962X2.535553*%
%ADD15RoundRect,0.322481X0.000000X-0.945295X0.000000X-0.945295X0.000000X0.945295X0.000000X0.945295X0*%
%ADD16RoundRect,0.322481X-0.945295X0.000000X0.945295X0.000000X0.945295X0.000000X-0.945295X0.000000X0*%
G04 APERTURE END LIST*
D10*
%TO.C,C1*%
X60386000Y-79502000D03*
X58486000Y-79502000D03*
%TD*%
D11*
%TO.C,U1*%
X104913000Y-92778500D03*
X105563000Y-92778500D03*
X106213000Y-92778500D03*
X106863000Y-92778500D03*
X107513000Y-92778500D03*
X108163000Y-92778500D03*
X108813000Y-92778500D03*
X109463000Y-92778500D03*
X109463000Y-87053500D03*
X108813000Y-87053500D03*
X108163000Y-87053500D03*
X107513000Y-87053500D03*
X106863000Y-87053500D03*
X106213000Y-87053500D03*
X105563000Y-87053500D03*
X104913000Y-87053500D03*
%TD*%
D12*
%TO.C,R2*%
X101600000Y-99972500D03*
X101600000Y-98147500D03*
%TD*%
D13*
%TO.C,D2*%
X101600000Y-101932500D03*
X101600000Y-103807500D03*
%TD*%
D14*
%TO.C,U2*%
X67564000Y-86374448D03*
D15*
X66294000Y-86374448D03*
X65024000Y-86374448D03*
X63754000Y-86374448D03*
D16*
X61990448Y-88138000D03*
X61990448Y-89408000D03*
X61990448Y-90678000D03*
X61990448Y-91948000D03*
X61990448Y-93218000D03*
X61990448Y-94488000D03*
X61990448Y-95758000D03*
X61990448Y-97028000D03*
X61990448Y-98298000D03*
D15*
X63754000Y-100061553D03*
X65024000Y-100061553D03*
X66294000Y-100061553D03*
X67564000Y-100061553D03*
X68834000Y-100061553D03*
X70104000Y-100061553D03*
X71374000Y-100061553D03*
D16*
X73137553Y-98298000D03*
X73137553Y-97028000D03*
X73137553Y-95758000D03*
X73137553Y-94488000D03*
X73137553Y-93218000D03*
X73137553Y-91948000D03*
X73137553Y-90678000D03*
X73137553Y-89408000D03*
X73137553Y-88138000D03*
D15*
X71374000Y-86374448D03*
X70104000Y-86374448D03*
X68834000Y-86374448D03*
%TD*%
D13*
%TO.C,D15*%
X93980000Y-101932500D03*
X93980000Y-103807500D03*
%TD*%
%TO.C,D5*%
X108458000Y-101932500D03*
X108458000Y-103807500D03*
%TD*%
%TO.C,D9*%
X80264000Y-101932500D03*
X80264000Y-103807500D03*
%TD*%
D12*
%TO.C,R4*%
X106172000Y-99972500D03*
X106172000Y-98147500D03*
%TD*%
D13*
%TO.C,D8*%
X115316000Y-101932500D03*
X115316000Y-103807500D03*
%TD*%
D12*
%TO.C,R12*%
X87122000Y-99972500D03*
X87122000Y-98147500D03*
%TD*%
%TO.C,R14*%
X91694000Y-99972500D03*
X91694000Y-98147500D03*
%TD*%
%TO.C,R9*%
X80264000Y-99972500D03*
X80264000Y-98147500D03*
%TD*%
%TO.C,R15*%
X93980000Y-99972500D03*
X93980000Y-98147500D03*
%TD*%
%TO.C,R11*%
X84836000Y-99972500D03*
X84836000Y-98147500D03*
%TD*%
D13*
%TO.C,D11*%
X84836000Y-101932500D03*
X84836000Y-103807500D03*
%TD*%
D12*
%TO.C,R10*%
X82550000Y-99972500D03*
X82550000Y-98147500D03*
%TD*%
D13*
%TO.C,D6*%
X110744000Y-101932500D03*
X110744000Y-103807500D03*
%TD*%
%TO.C,D7*%
X113030000Y-101932500D03*
X113030000Y-103807500D03*
%TD*%
%TO.C,D4*%
X106172000Y-101932500D03*
X106172000Y-103807500D03*
%TD*%
%TO.C,D3*%
X103886000Y-101932500D03*
X103886000Y-103807500D03*
%TD*%
D12*
%TO.C,R3*%
X103886000Y-99972500D03*
X103886000Y-98147500D03*
%TD*%
%TO.C,R6*%
X110744000Y-99972500D03*
X110744000Y-98147500D03*
%TD*%
D13*
%TO.C,D16*%
X96266000Y-101932500D03*
X96266000Y-103807500D03*
%TD*%
%TO.C,D12*%
X87122000Y-101932500D03*
X87122000Y-103807500D03*
%TD*%
D12*
%TO.C,R7*%
X113030000Y-99972500D03*
X113030000Y-98147500D03*
%TD*%
D13*
%TO.C,D1*%
X99314000Y-101932500D03*
X99314000Y-103807500D03*
%TD*%
%TO.C,D13*%
X89408000Y-101932500D03*
X89408000Y-103807500D03*
%TD*%
%TO.C,D10*%
X82550000Y-101932500D03*
X82550000Y-103807500D03*
%TD*%
D12*
%TO.C,R1*%
X99314000Y-99972500D03*
X99314000Y-98147500D03*
%TD*%
%TO.C,R5*%
X108458000Y-99972500D03*
X108458000Y-98147500D03*
%TD*%
%TO.C,R13*%
X89408000Y-99972500D03*
X89408000Y-98147500D03*
%TD*%
D13*
%TO.C,D14*%
X91694000Y-101932500D03*
X91694000Y-103807500D03*
%TD*%
D12*
%TO.C,R16*%
X96266000Y-99972500D03*
X96266000Y-98147500D03*
%TD*%
%TO.C,R8*%
X115316000Y-99972500D03*
X115316000Y-98147500D03*
%TD*%
M02*
