%TF.GenerationSoftware,KiCad,Pcbnew,(6.0.0-0)*%
%TF.CreationDate,2022-10-19T23:06:28-04:00*%
%TF.ProjectId,Backplane-Concept-Vertical,4261636b-706c-4616-9e65-2d436f6e6365,rev?*%
%TF.SameCoordinates,Original*%
%TF.FileFunction,Legend,Bot*%
%TF.FilePolarity,Positive*%
%FSLAX46Y46*%
G04 Gerber Fmt 4.6, Leading zero omitted, Abs format (unit mm)*
G04 Created by KiCad (PCBNEW (6.0.0-0)) date 2022-10-19 23:06:28*
%MOMM*%
%LPD*%
G01*
G04 APERTURE LIST*
%ADD10C,0.150000*%
G04 APERTURE END LIST*
D10*
X242601333Y-333462380D02*
X242601333Y-334176666D01*
X242648952Y-334319523D01*
X242744190Y-334414761D01*
X242887047Y-334462380D01*
X242982285Y-334462380D01*
X241648952Y-334462380D02*
X242125142Y-334462380D01*
X242125142Y-333462380D01*
X240744190Y-334367142D02*
X240791809Y-334414761D01*
X240934666Y-334462380D01*
X241029904Y-334462380D01*
X241172761Y-334414761D01*
X241268000Y-334319523D01*
X241315619Y-334224285D01*
X241363238Y-334033809D01*
X241363238Y-333890952D01*
X241315619Y-333700476D01*
X241268000Y-333605238D01*
X241172761Y-333510000D01*
X241029904Y-333462380D01*
X240934666Y-333462380D01*
X240791809Y-333510000D01*
X240744190Y-333557619D01*
X240029904Y-333462380D02*
X240029904Y-334176666D01*
X240077523Y-334319523D01*
X240172761Y-334414761D01*
X240315619Y-334462380D01*
X240410857Y-334462380D01*
X239077523Y-334462380D02*
X239553714Y-334462380D01*
X239553714Y-333462380D01*
X238172761Y-334367142D02*
X238220380Y-334414761D01*
X238363238Y-334462380D01*
X238458476Y-334462380D01*
X238601333Y-334414761D01*
X238696571Y-334319523D01*
X238744190Y-334224285D01*
X238791809Y-334033809D01*
X238791809Y-333890952D01*
X238744190Y-333700476D01*
X238696571Y-333605238D01*
X238601333Y-333510000D01*
X238458476Y-333462380D01*
X238363238Y-333462380D01*
X238220380Y-333510000D01*
X238172761Y-333557619D01*
X237458476Y-333462380D02*
X237458476Y-334176666D01*
X237506095Y-334319523D01*
X237601333Y-334414761D01*
X237744190Y-334462380D01*
X237839428Y-334462380D01*
X236506095Y-334462380D02*
X236982285Y-334462380D01*
X236982285Y-333462380D01*
X235601333Y-334367142D02*
X235648952Y-334414761D01*
X235791809Y-334462380D01*
X235887047Y-334462380D01*
X236029904Y-334414761D01*
X236125142Y-334319523D01*
X236172761Y-334224285D01*
X236220380Y-334033809D01*
X236220380Y-333890952D01*
X236172761Y-333700476D01*
X236125142Y-333605238D01*
X236029904Y-333510000D01*
X235887047Y-333462380D01*
X235791809Y-333462380D01*
X235648952Y-333510000D01*
X235601333Y-333557619D01*
M02*
