%TF.GenerationSoftware,KiCad,Pcbnew,(6.0.0-0)*%
%TF.CreationDate,2022-10-19T23:06:28-04:00*%
%TF.ProjectId,Backplane-Concept-Vertical,4261636b-706c-4616-9e65-2d436f6e6365,rev?*%
%TF.SameCoordinates,Original*%
%TF.FileFunction,Copper,L4,Bot*%
%TF.FilePolarity,Positive*%
%FSLAX46Y46*%
G04 Gerber Fmt 4.6, Leading zero omitted, Abs format (unit mm)*
G04 Created by KiCad (PCBNEW (6.0.0-0)) date 2022-10-19 23:06:28*
%MOMM*%
%LPD*%
G01*
G04 APERTURE LIST*
G04 Aperture macros list*
%AMRoundRect*
0 Rectangle with rounded corners*
0 $1 Rounding radius*
0 $2 $3 $4 $5 $6 $7 $8 $9 X,Y pos of 4 corners*
0 Add a 4 corners polygon primitive as box body*
4,1,4,$2,$3,$4,$5,$6,$7,$8,$9,$2,$3,0*
0 Add four circle primitives for the rounded corners*
1,1,$1+$1,$2,$3*
1,1,$1+$1,$4,$5*
1,1,$1+$1,$6,$7*
1,1,$1+$1,$8,$9*
0 Add four rect primitives between the rounded corners*
20,1,$1+$1,$2,$3,$4,$5,0*
20,1,$1+$1,$4,$5,$6,$7,0*
20,1,$1+$1,$6,$7,$8,$9,0*
20,1,$1+$1,$8,$9,$2,$3,0*%
G04 Aperture macros list end*
%TA.AperFunction,ComponentPad*%
%ADD10R,3.500000X3.500000*%
%TD*%
%TA.AperFunction,ComponentPad*%
%ADD11RoundRect,0.750000X-1.000000X0.750000X-1.000000X-0.750000X1.000000X-0.750000X1.000000X0.750000X0*%
%TD*%
%TA.AperFunction,ComponentPad*%
%ADD12RoundRect,0.875000X-0.875000X0.875000X-0.875000X-0.875000X0.875000X-0.875000X0.875000X0.875000X0*%
%TD*%
%TA.AperFunction,ComponentPad*%
%ADD13RoundRect,0.250000X0.600000X0.600000X-0.600000X0.600000X-0.600000X-0.600000X0.600000X-0.600000X0*%
%TD*%
%TA.AperFunction,ComponentPad*%
%ADD14C,1.700000*%
%TD*%
%TA.AperFunction,ComponentPad*%
%ADD15R,1.700000X1.700000*%
%TD*%
%TA.AperFunction,ComponentPad*%
%ADD16O,1.700000X1.700000*%
%TD*%
%TA.AperFunction,ComponentPad*%
%ADD17C,0.800000*%
%TD*%
%TA.AperFunction,ComponentPad*%
%ADD18C,6.000000*%
%TD*%
%TA.AperFunction,ComponentPad*%
%ADD19C,8.000000*%
%TD*%
%TA.AperFunction,ComponentPad*%
%ADD20R,2.600000X2.600000*%
%TD*%
%TA.AperFunction,ComponentPad*%
%ADD21C,2.600000*%
%TD*%
%TA.AperFunction,ComponentPad*%
%ADD22R,2.400000X2.000000*%
%TD*%
%TA.AperFunction,ViaPad*%
%ADD23C,0.800000*%
%TD*%
%TA.AperFunction,Conductor*%
%ADD24C,0.250000*%
%TD*%
%TA.AperFunction,Conductor*%
%ADD25C,0.500000*%
%TD*%
G04 APERTURE END LIST*
D10*
%TO.P,J22,1*%
%TO.N,VCC*%
X302455500Y-94440000D03*
D11*
%TO.P,J22,2*%
%TO.N,Net-(J11-Pad1)*%
X302455500Y-88440000D03*
D12*
%TO.P,J22,3*%
%TO.N,N/C*%
X297755500Y-91440000D03*
%TD*%
D13*
%TO.P,J19,1,Pin_1*%
%TO.N,A0*%
X239771500Y-266446000D03*
D14*
%TO.P,J19,2,Pin_2*%
%TO.N,unconnected-(J19-Pad2)*%
X237231500Y-266446000D03*
%TO.P,J19,3,Pin_3*%
%TO.N,A1*%
X239771500Y-263906000D03*
%TO.P,J19,4,Pin_4*%
%TO.N,unconnected-(J19-Pad4)*%
X237231500Y-263906000D03*
%TO.P,J19,5,Pin_5*%
%TO.N,A2*%
X239771500Y-261366000D03*
%TO.P,J19,6,Pin_6*%
%TO.N,unconnected-(J19-Pad6)*%
X237231500Y-261366000D03*
%TO.P,J19,7,Pin_7*%
%TO.N,A3*%
X239771500Y-258826000D03*
%TO.P,J19,8,Pin_8*%
%TO.N,unconnected-(J19-Pad8)*%
X237231500Y-258826000D03*
%TO.P,J19,9,Pin_9*%
%TO.N,A4*%
X239771500Y-256286000D03*
%TO.P,J19,10,Pin_10*%
%TO.N,A15*%
X237231500Y-256286000D03*
%TO.P,J19,11,Pin_11*%
%TO.N,A5*%
X239771500Y-253746000D03*
%TO.P,J19,12,Pin_12*%
%TO.N,A14*%
X237231500Y-253746000D03*
%TO.P,J19,13,Pin_13*%
%TO.N,A6*%
X239771500Y-251206000D03*
%TO.P,J19,14,Pin_14*%
%TO.N,A13*%
X237231500Y-251206000D03*
%TO.P,J19,15,Pin_15*%
%TO.N,A7*%
X239771500Y-248666000D03*
%TO.P,J19,16,Pin_16*%
%TO.N,A12*%
X237231500Y-248666000D03*
%TO.P,J19,17,Pin_17*%
%TO.N,A8*%
X239771500Y-246126000D03*
%TO.P,J19,18,Pin_18*%
%TO.N,A11*%
X237231500Y-246126000D03*
%TO.P,J19,19,Pin_19*%
%TO.N,A9*%
X239771500Y-243586000D03*
%TO.P,J19,20,Pin_20*%
%TO.N,A10*%
X237231500Y-243586000D03*
%TD*%
D15*
%TO.P,J9,1,Pin_1*%
%TO.N,~{FLAGS_OUT}*%
X342782000Y-211504000D03*
D16*
%TO.P,J9,2,Pin_2*%
%TO.N,RESTORE_FLAGS*%
X340242000Y-211504000D03*
%TO.P,J9,3,Pin_3*%
%TO.N,~{FLAGS_IN}*%
X337702000Y-211504000D03*
%TO.P,J9,4,Pin_4*%
%TO.N,unconnected-(J9-Pad4)*%
X335162000Y-211504000D03*
%TO.P,J9,5,Pin_5*%
%TO.N,unconnected-(J9-Pad5)*%
X332622000Y-211504000D03*
%TO.P,J9,6,Pin_6*%
%TO.N,unconnected-(J9-Pad6)*%
X330082000Y-211504000D03*
%TO.P,J9,7,Pin_7*%
%TO.N,unconnected-(J9-Pad7)*%
X327542000Y-211504000D03*
%TO.P,J9,8,Pin_8*%
%TO.N,/JCC_LD_PC_COND*%
X325002000Y-211504000D03*
%TO.P,J9,9,Pin_9*%
%TO.N,~{WR3}*%
X322462000Y-211504000D03*
%TO.P,J9,10,Pin_10*%
%TO.N,JCC_ADR3*%
X319922000Y-211504000D03*
%TO.P,J9,11,Pin_11*%
%TO.N,JCC_ADR2*%
X317382000Y-211504000D03*
%TO.P,J9,12,Pin_12*%
%TO.N,JCC_ADR1*%
X314842000Y-211504000D03*
%TO.P,J9,13,Pin_13*%
%TO.N,JCC_ADR0*%
X312302000Y-211504000D03*
%TD*%
D15*
%TO.P,J2,1,Pin_1*%
%TO.N,VCC*%
X283347000Y-211504000D03*
D16*
%TO.P,J2,2,Pin_2*%
%TO.N,GND*%
X280807000Y-211504000D03*
%TO.P,J2,3,Pin_3*%
%TO.N,CLOCK*%
X278267000Y-211504000D03*
%TO.P,J2,4,Pin_4*%
%TO.N,~{A_IN}*%
X275727000Y-211504000D03*
%TO.P,J2,5,Pin_5*%
%TO.N,~{B_IN}*%
X273187000Y-211504000D03*
%TO.P,J2,6,Pin_6*%
%TO.N,ALU_FUNC_0*%
X270647000Y-211504000D03*
%TO.P,J2,7,Pin_7*%
%TO.N,ALU_FUNC_1*%
X268107000Y-211504000D03*
%TO.P,J2,8,Pin_8*%
%TO.N,ALU_FUNC_2*%
X265567000Y-211504000D03*
%TO.P,J2,9,Pin_9*%
%TO.N,ALU_FUNC_3*%
X263027000Y-211504000D03*
%TO.P,J2,10,Pin_10*%
%TO.N,ALU_FUNC_4*%
X260487000Y-211504000D03*
%TO.P,J2,11,Pin_11*%
%TO.N,ALU_FUNC_5*%
X257947000Y-211504000D03*
%TD*%
D17*
%TO.P,REF\u002A\u002A,1*%
%TO.N,N/C*%
X387416990Y-194630990D03*
X385826000Y-195290000D03*
X388076000Y-193040000D03*
D18*
X385826000Y-193040000D03*
D17*
X384235010Y-191449010D03*
X385826000Y-190790000D03*
X387416990Y-191449010D03*
X384235010Y-194630990D03*
X383576000Y-193040000D03*
%TD*%
D15*
%TO.P,J21,1,Pin_1*%
%TO.N,~{RD5_00}*%
X271018000Y-332912000D03*
D16*
%TO.P,J21,2,Pin_2*%
%TO.N,~{RD5_01}*%
X273558000Y-332912000D03*
%TO.P,J21,3,Pin_3*%
%TO.N,~{RD5_02}*%
X276098000Y-332912000D03*
%TO.P,J21,4,Pin_4*%
%TO.N,~{RD5_03}*%
X278638000Y-332912000D03*
%TO.P,J21,5,Pin_5*%
%TO.N,~{RD6_00}*%
X281178000Y-332912000D03*
%TO.P,J21,6,Pin_6*%
%TO.N,~{RD6_01}*%
X283718000Y-332912000D03*
%TO.P,J21,7,Pin_7*%
%TO.N,~{RD6_02}*%
X286258000Y-332912000D03*
%TO.P,J21,8,Pin_8*%
%TO.N,~{RD6_03}*%
X288798000Y-332912000D03*
%TO.P,J21,9,Pin_9*%
%TO.N,~{RD6_04}*%
X291338000Y-332912000D03*
%TO.P,J21,10,Pin_10*%
%TO.N,~{RD6_05}*%
X293878000Y-332912000D03*
%TO.P,J21,11,Pin_11*%
%TO.N,~{RD6_06}*%
X296418000Y-332912000D03*
%TO.P,J21,12,Pin_12*%
%TO.N,~{RD6_07}*%
X298958000Y-332912000D03*
%TO.P,J21,13,Pin_13*%
%TO.N,~{RD6_08}*%
X301498000Y-332912000D03*
%TO.P,J21,14,Pin_14*%
%TO.N,~{RD6_09}*%
X304038000Y-332912000D03*
%TO.P,J21,15,Pin_15*%
%TO.N,~{RD6_10}*%
X306578000Y-332912000D03*
%TO.P,J21,16,Pin_16*%
%TO.N,~{RD6_11}*%
X309118000Y-332912000D03*
%TO.P,J21,17,Pin_17*%
%TO.N,~{RD6_12}*%
X311658000Y-332912000D03*
%TO.P,J21,18,Pin_18*%
%TO.N,~{RD6_13}*%
X314198000Y-332912000D03*
%TO.P,J21,19,Pin_19*%
%TO.N,~{RD6_14}*%
X316738000Y-332912000D03*
%TO.P,J21,20,Pin_20*%
%TO.N,~{RD6_15}*%
X319278000Y-332912000D03*
%TO.P,J21,21,Pin_21*%
%TO.N,~{WR4_00}*%
X321818000Y-332912000D03*
%TO.P,J21,22,Pin_22*%
%TO.N,~{WR4_01}*%
X324358000Y-332912000D03*
%TO.P,J21,23,Pin_23*%
%TO.N,~{WR4_02}*%
X326898000Y-332912000D03*
%TO.P,J21,24,Pin_24*%
%TO.N,~{WR4_03}*%
X329438000Y-332912000D03*
%TO.P,J21,25,Pin_25*%
%TO.N,~{WR5_00}*%
X331978000Y-332912000D03*
%TO.P,J21,26,Pin_26*%
%TO.N,~{WR5_01}*%
X334518000Y-332912000D03*
%TO.P,J21,27,Pin_27*%
%TO.N,~{WR5_02}*%
X337058000Y-332912000D03*
%TO.P,J21,28,Pin_28*%
%TO.N,~{WR5_03}*%
X339598000Y-332912000D03*
%TO.P,J21,29,Pin_29*%
%TO.N,~{WR5_04}*%
X342138000Y-332912000D03*
%TO.P,J21,30,Pin_30*%
%TO.N,~{WR5_05}*%
X344678000Y-332912000D03*
%TO.P,J21,31,Pin_31*%
%TO.N,~{WR5_06}*%
X347218000Y-332912000D03*
%TO.P,J21,32,Pin_32*%
%TO.N,~{WR5_07}*%
X349758000Y-332912000D03*
%TO.P,J21,33,Pin_33*%
%TO.N,~{WR5_08}*%
X352298000Y-332912000D03*
%TO.P,J21,34,Pin_34*%
%TO.N,~{WR5_09}*%
X354838000Y-332912000D03*
%TO.P,J21,35,Pin_35*%
%TO.N,~{WR5_10}*%
X357378000Y-332912000D03*
%TO.P,J21,36,Pin_36*%
%TO.N,~{WR5_11}*%
X359918000Y-332912000D03*
%TO.P,J21,37,Pin_37*%
%TO.N,~{WR5_12}*%
X362458000Y-332912000D03*
%TO.P,J21,38,Pin_38*%
%TO.N,~{WR5_13}*%
X364998000Y-332912000D03*
%TO.P,J21,39,Pin_39*%
%TO.N,~{WR5_14}*%
X367538000Y-332912000D03*
%TO.P,J21,40,Pin_40*%
%TO.N,~{WR5_15}*%
X370078000Y-332912000D03*
%TD*%
D15*
%TO.P,J5,1,Pin_1*%
%TO.N,BUS0*%
X306951000Y-211595000D03*
D16*
%TO.P,J5,2,Pin_2*%
%TO.N,BUS1*%
X304411000Y-211595000D03*
%TO.P,J5,3,Pin_3*%
%TO.N,BUS2*%
X301871000Y-211595000D03*
%TO.P,J5,4,Pin_4*%
%TO.N,BUS3*%
X299331000Y-211595000D03*
%TO.P,J5,5,Pin_5*%
%TO.N,BUS4*%
X296791000Y-211595000D03*
%TO.P,J5,6,Pin_6*%
%TO.N,BUS5*%
X294251000Y-211595000D03*
%TO.P,J5,7,Pin_7*%
%TO.N,BUS6*%
X291711000Y-211595000D03*
%TO.P,J5,8,Pin_8*%
%TO.N,BUS7*%
X289171000Y-211595000D03*
%TD*%
D18*
%TO.P,REF\u002A\u002A,1*%
%TO.N,N/C*%
X385826000Y-88392000D03*
D17*
X383576000Y-88392000D03*
X388076000Y-88392000D03*
X387416990Y-89982990D03*
X385826000Y-86142000D03*
X384235010Y-89982990D03*
X384235010Y-86801010D03*
X387416990Y-86801010D03*
X385826000Y-90642000D03*
%TD*%
D15*
%TO.P,J17,1,Pin_1*%
%TO.N,BUS0*%
X233934000Y-167640000D03*
D16*
%TO.P,J17,2,Pin_2*%
X236474000Y-167640000D03*
%TO.P,J17,3,Pin_3*%
%TO.N,BUS1*%
X233934000Y-170180000D03*
%TO.P,J17,4,Pin_4*%
X236474000Y-170180000D03*
%TO.P,J17,5,Pin_5*%
%TO.N,BUS2*%
X233934000Y-172720000D03*
%TO.P,J17,6,Pin_6*%
X236474000Y-172720000D03*
%TO.P,J17,7,Pin_7*%
%TO.N,BUS3*%
X233934000Y-175260000D03*
%TO.P,J17,8,Pin_8*%
X236474000Y-175260000D03*
%TO.P,J17,9,Pin_9*%
%TO.N,BUS4*%
X233934000Y-177800000D03*
%TO.P,J17,10,Pin_10*%
X236474000Y-177800000D03*
%TO.P,J17,11,Pin_11*%
%TO.N,BUS5*%
X233934000Y-180340000D03*
%TO.P,J17,12,Pin_12*%
X236474000Y-180340000D03*
%TO.P,J17,13,Pin_13*%
%TO.N,BUS6*%
X233934000Y-182880000D03*
%TO.P,J17,14,Pin_14*%
X236474000Y-182880000D03*
%TO.P,J17,15,Pin_15*%
%TO.N,BUS7*%
X233934000Y-185420000D03*
%TO.P,J17,16,Pin_16*%
X236474000Y-185420000D03*
%TD*%
D15*
%TO.P,J7,1,Pin_1*%
%TO.N,VCC*%
X367114000Y-269313000D03*
D16*
%TO.P,J7,2,Pin_2*%
%TO.N,GND*%
X364574000Y-269313000D03*
%TO.P,J7,3,Pin_3*%
%TO.N,CLOCK*%
X362034000Y-269313000D03*
%TO.P,J7,4,Pin_4*%
%TO.N,~{RESET_CONTROL}*%
X359494000Y-269313000D03*
%TO.P,J7,5,Pin_5*%
%TO.N,GPR6*%
X356954000Y-269313000D03*
%TO.P,J7,6,Pin_6*%
%TO.N,GPR5*%
X354414000Y-269313000D03*
%TO.P,J7,7,Pin_7*%
%TO.N,GPR4*%
X351874000Y-269313000D03*
%TO.P,J7,8,Pin_8*%
%TO.N,GPR3*%
X349334000Y-269313000D03*
%TO.P,J7,9,Pin_9*%
%TO.N,GPR2*%
X346794000Y-269313000D03*
%TO.P,J7,10,Pin_10*%
%TO.N,GPR1*%
X344254000Y-269313000D03*
%TO.P,J7,11,Pin_11*%
%TO.N,GPR0*%
X341714000Y-269313000D03*
%TO.P,J7,12,Pin_12*%
%TO.N,BUS0*%
X339174000Y-269313000D03*
%TO.P,J7,13,Pin_13*%
%TO.N,BUS1*%
X336634000Y-269313000D03*
%TO.P,J7,14,Pin_14*%
%TO.N,BUS2*%
X334094000Y-269313000D03*
%TO.P,J7,15,Pin_15*%
%TO.N,BUS3*%
X331554000Y-269313000D03*
%TO.P,J7,16,Pin_16*%
%TO.N,BUS4*%
X329014000Y-269313000D03*
%TO.P,J7,17,Pin_17*%
%TO.N,BUS5*%
X326474000Y-269313000D03*
%TO.P,J7,18,Pin_18*%
%TO.N,BUS6*%
X323934000Y-269313000D03*
%TO.P,J7,19,Pin_19*%
%TO.N,BUS7*%
X321394000Y-269313000D03*
%TO.P,J7,20,Pin_20*%
%TO.N,A0*%
X318854000Y-269313000D03*
%TO.P,J7,21,Pin_21*%
%TO.N,A1*%
X316314000Y-269313000D03*
%TO.P,J7,22,Pin_22*%
%TO.N,A2*%
X313774000Y-269313000D03*
%TO.P,J7,23,Pin_23*%
%TO.N,A3*%
X311234000Y-269313000D03*
%TO.P,J7,24,Pin_24*%
%TO.N,A4*%
X308694000Y-269313000D03*
%TO.P,J7,25,Pin_25*%
%TO.N,A5*%
X306154000Y-269313000D03*
%TO.P,J7,26,Pin_26*%
%TO.N,A6*%
X303614000Y-269313000D03*
%TO.P,J7,27,Pin_27*%
%TO.N,A7*%
X301074000Y-269313000D03*
%TO.P,J7,28,Pin_28*%
%TO.N,A8*%
X298534000Y-269313000D03*
%TO.P,J7,29,Pin_29*%
%TO.N,A9*%
X295994000Y-269313000D03*
%TO.P,J7,30,Pin_30*%
%TO.N,A10*%
X293454000Y-269313000D03*
%TO.P,J7,31,Pin_31*%
%TO.N,A11*%
X290914000Y-269313000D03*
%TO.P,J7,32,Pin_32*%
%TO.N,A12*%
X288374000Y-269313000D03*
%TO.P,J7,33,Pin_33*%
%TO.N,A13*%
X285834000Y-269313000D03*
%TO.P,J7,34,Pin_34*%
%TO.N,A14*%
X283294000Y-269313000D03*
%TO.P,J7,35,Pin_35*%
%TO.N,A15*%
X280754000Y-269313000D03*
%TD*%
D19*
%TO.P,J12,1,Pin_1*%
%TO.N,VCC*%
X283464000Y-91376000D03*
%TD*%
%TO.P,J11,1,Pin_1*%
%TO.N,Net-(J11-Pad1)*%
X266378000Y-91376000D03*
%TD*%
D15*
%TO.P,J14,1,Pin_1*%
%TO.N,~{RD4_15}*%
X384810000Y-131826000D03*
D16*
%TO.P,J14,2,Pin_2*%
%TO.N,~{RD4_14}*%
X384810000Y-134366000D03*
%TO.P,J14,3,Pin_3*%
%TO.N,~{RD4_13}*%
X384810000Y-136906000D03*
%TO.P,J14,4,Pin_4*%
%TO.N,~{RD4_12}*%
X384810000Y-139446000D03*
%TO.P,J14,5,Pin_5*%
%TO.N,~{RD4_11}*%
X384810000Y-141986000D03*
%TO.P,J14,6,Pin_6*%
%TO.N,~{RD4_10}*%
X384810000Y-144526000D03*
%TO.P,J14,7,Pin_7*%
%TO.N,~{RD4_9}*%
X384810000Y-147066000D03*
%TO.P,J14,8,Pin_8*%
%TO.N,~{RD4_8}*%
X384810000Y-149606000D03*
%TO.P,J14,9,Pin_9*%
%TO.N,~{RD4_7}*%
X384810000Y-152146000D03*
%TO.P,J14,10,Pin_10*%
%TO.N,~{RD4_6}*%
X384810000Y-154686000D03*
%TO.P,J14,11,Pin_11*%
%TO.N,~{WR2_15}*%
X384810000Y-157226000D03*
%TO.P,J14,12,Pin_12*%
%TO.N,~{WR2_14}*%
X384810000Y-159766000D03*
%TO.P,J14,13,Pin_13*%
%TO.N,~{WR2_13}*%
X384810000Y-162306000D03*
%TO.P,J14,14,Pin_14*%
%TO.N,~{WR2_12}*%
X384810000Y-164846000D03*
%TD*%
D17*
%TO.P,REF\u002A\u002A,1*%
%TO.N,N/C*%
X383322000Y-331724000D03*
X385572000Y-333974000D03*
D18*
X385572000Y-331724000D03*
D17*
X383981010Y-333314990D03*
X385572000Y-329474000D03*
X387822000Y-331724000D03*
X387162990Y-330133010D03*
X387162990Y-333314990D03*
X383981010Y-330133010D03*
%TD*%
D15*
%TO.P,J8,1,Pin_1*%
%TO.N,A0*%
X316298000Y-141489000D03*
D16*
%TO.P,J8,2,Pin_2*%
%TO.N,A1*%
X313758000Y-141489000D03*
%TO.P,J8,3,Pin_3*%
%TO.N,A2*%
X311218000Y-141489000D03*
%TO.P,J8,4,Pin_4*%
%TO.N,A3*%
X308678000Y-141489000D03*
%TO.P,J8,5,Pin_5*%
%TO.N,A4*%
X306138000Y-141489000D03*
%TO.P,J8,6,Pin_6*%
%TO.N,A5*%
X303598000Y-141489000D03*
%TO.P,J8,7,Pin_7*%
%TO.N,A6*%
X301058000Y-141489000D03*
%TO.P,J8,8,Pin_8*%
%TO.N,A7*%
X298518000Y-141489000D03*
%TO.P,J8,9,Pin_9*%
%TO.N,A8*%
X295978000Y-141489000D03*
%TO.P,J8,10,Pin_10*%
%TO.N,A9*%
X293438000Y-141489000D03*
%TO.P,J8,11,Pin_11*%
%TO.N,A10*%
X290898000Y-141489000D03*
%TO.P,J8,12,Pin_12*%
%TO.N,A11*%
X288358000Y-141489000D03*
%TO.P,J8,13,Pin_13*%
%TO.N,A12*%
X285818000Y-141489000D03*
%TO.P,J8,14,Pin_14*%
%TO.N,A13*%
X283278000Y-141489000D03*
%TO.P,J8,15,Pin_15*%
%TO.N,A14*%
X280738000Y-141489000D03*
%TO.P,J8,16,Pin_16*%
%TO.N,A15*%
X278198000Y-141489000D03*
%TD*%
D15*
%TO.P,J15,1,Pin_1*%
%TO.N,\u03BCA7*%
X263720000Y-110620000D03*
D16*
%TO.P,J15,2,Pin_2*%
%TO.N,/\u03BCA6*%
X266260000Y-110620000D03*
%TO.P,J15,3,Pin_3*%
%TO.N,/\u03BCA5*%
X268800000Y-110620000D03*
%TO.P,J15,4,Pin_4*%
%TO.N,/\u03BCA4*%
X271340000Y-110620000D03*
%TO.P,J15,5,Pin_5*%
%TO.N,\u03BCRD3*%
X273880000Y-110620000D03*
%TO.P,J15,6,Pin_6*%
%TO.N,\u03BCRD2*%
X276420000Y-110620000D03*
%TO.P,J15,7,Pin_7*%
%TO.N,\u03BCRD1*%
X278960000Y-110620000D03*
%TO.P,J15,8,Pin_8*%
%TO.N,\u03BCRD0*%
X281500000Y-110620000D03*
%TO.P,J15,9,Pin_9*%
%TO.N,unconnected-(J15-Pad9)*%
X284040000Y-110620000D03*
%TO.P,J15,10,Pin_10*%
%TO.N,~{RD6}*%
X286580000Y-110620000D03*
%TO.P,J15,11,Pin_11*%
%TO.N,~{RD5}*%
X289120000Y-110620000D03*
%TO.P,J15,12,Pin_12*%
%TO.N,~{RD4}*%
X291660000Y-110620000D03*
%TO.P,J15,13,Pin_13*%
%TO.N,~{RD3}*%
X294200000Y-110620000D03*
%TO.P,J15,14,Pin_14*%
%TO.N,~{RD2}*%
X296740000Y-110620000D03*
%TO.P,J15,15,Pin_15*%
%TO.N,~{RD1}*%
X299280000Y-110620000D03*
%TO.P,J15,16,Pin_16*%
%TO.N,~{RD0}*%
X301820000Y-110620000D03*
%TO.P,J15,17,Pin_17*%
%TO.N,\u03BCB7*%
X304360000Y-110620000D03*
%TO.P,J15,18,Pin_18*%
%TO.N,/\u03BCB6*%
X306900000Y-110620000D03*
%TO.P,J15,19,Pin_19*%
%TO.N,/\u03BCB5*%
X309440000Y-110620000D03*
%TO.P,J15,20,Pin_20*%
%TO.N,/\u03BCB4*%
X311980000Y-110620000D03*
%TO.P,J15,21,Pin_21*%
%TO.N,\u03BCWR3*%
X314520000Y-110620000D03*
%TO.P,J15,22,Pin_22*%
%TO.N,\u03BCWR2*%
X317060000Y-110620000D03*
%TO.P,J15,23,Pin_23*%
%TO.N,\u03BCWR1*%
X319600000Y-110620000D03*
%TO.P,J15,24,Pin_24*%
%TO.N,\u03BCWR0*%
X322140000Y-110620000D03*
%TO.P,J15,25,Pin_25*%
%TO.N,~{RESET_CONTROL}*%
X324680000Y-110620000D03*
%TO.P,J15,26,Pin_26*%
%TO.N,unconnected-(J15-Pad26)*%
X327220000Y-110620000D03*
%TO.P,J15,27,Pin_27*%
%TO.N,~{WR5}*%
X329760000Y-110620000D03*
%TO.P,J15,28,Pin_28*%
%TO.N,~{WR4}*%
X332300000Y-110620000D03*
%TO.P,J15,29,Pin_29*%
%TO.N,~{WR3}*%
X334840000Y-110620000D03*
%TO.P,J15,30,Pin_30*%
%TO.N,~{WR2}*%
X337380000Y-110620000D03*
%TO.P,J15,31,Pin_31*%
%TO.N,~{WR1}*%
X339920000Y-110620000D03*
%TO.P,J15,32,Pin_32*%
%TO.N,~{WR0}*%
X342460000Y-110620000D03*
%TO.P,J15,33,Pin_33*%
%TO.N,unconnected-(J15-Pad33)*%
X345000000Y-110620000D03*
%TO.P,J15,34,Pin_34*%
%TO.N,CLOCK*%
X347540000Y-110620000D03*
%TO.P,J15,35,Pin_35*%
%TO.N,~{LD_IR}*%
X350080000Y-110620000D03*
%TO.P,J15,36,Pin_36*%
%TO.N,~{INT_REQUEST}*%
X352620000Y-110620000D03*
%TO.P,J15,37,Pin_37*%
%TO.N,~{RESET_STEP}*%
X355160000Y-110620000D03*
%TO.P,J15,38,Pin_38*%
%TO.N,GND*%
X357700000Y-110620000D03*
%TO.P,J15,39,Pin_39*%
%TO.N,VCC*%
X360240000Y-110620000D03*
%TD*%
D20*
%TO.P,J13,1,Pin_1*%
%TO.N,Net-(J11-Pad1)*%
X254400000Y-90817000D03*
D21*
%TO.P,J13,2,Pin_2*%
%TO.N,VCC*%
X249400000Y-90817000D03*
%TD*%
D15*
%TO.P,J16,1,Pin_1*%
%TO.N,VCC*%
X384914000Y-296672000D03*
D16*
%TO.P,J16,2,Pin_2*%
%TO.N,GND*%
X384914000Y-294132000D03*
%TO.P,J16,3,Pin_3*%
%TO.N,CLOCK*%
X384914000Y-291592000D03*
%TO.P,J16,4,Pin_4*%
%TO.N,~{IO_MEM_REQUEST}*%
X384914000Y-289052000D03*
%TO.P,J16,5,Pin_5*%
%TO.N,~{IO_REQUEST}*%
X384914000Y-286512000D03*
%TO.P,J16,6,Pin_6*%
%TO.N,~{IO_WRITE}*%
X384914000Y-283972000D03*
%TO.P,J16,7,Pin_7*%
%TO.N,~{IO_READ}*%
X384914000Y-281432000D03*
%TO.P,J16,8,Pin_8*%
%TO.N,BUS7*%
X384914000Y-278892000D03*
%TO.P,J16,9,Pin_9*%
%TO.N,BUS6*%
X384914000Y-276352000D03*
%TO.P,J16,10,Pin_10*%
%TO.N,BUS5*%
X384914000Y-273812000D03*
%TO.P,J16,11,Pin_11*%
%TO.N,BUS4*%
X384914000Y-271272000D03*
%TO.P,J16,12,Pin_12*%
%TO.N,BUS3*%
X384914000Y-268732000D03*
%TO.P,J16,13,Pin_13*%
%TO.N,BUS2*%
X384914000Y-266192000D03*
%TO.P,J16,14,Pin_14*%
%TO.N,BUS1*%
X384914000Y-263652000D03*
%TO.P,J16,15,Pin_15*%
%TO.N,BUS0*%
X384914000Y-261112000D03*
%TO.P,J16,16,Pin_16*%
%TO.N,A15*%
X384914000Y-258572000D03*
%TO.P,J16,17,Pin_17*%
%TO.N,A14*%
X384914000Y-256032000D03*
%TO.P,J16,18,Pin_18*%
%TO.N,A13*%
X384914000Y-253492000D03*
%TO.P,J16,19,Pin_19*%
%TO.N,A12*%
X384914000Y-250952000D03*
%TO.P,J16,20,Pin_20*%
%TO.N,A11*%
X384914000Y-248412000D03*
%TO.P,J16,21,Pin_21*%
%TO.N,A10*%
X384914000Y-245872000D03*
%TO.P,J16,22,Pin_22*%
%TO.N,A9*%
X384914000Y-243332000D03*
%TO.P,J16,23,Pin_23*%
%TO.N,A8*%
X384914000Y-240792000D03*
%TO.P,J16,24,Pin_24*%
%TO.N,A7*%
X384914000Y-238252000D03*
%TO.P,J16,25,Pin_25*%
%TO.N,A6*%
X384914000Y-235712000D03*
%TO.P,J16,26,Pin_26*%
%TO.N,A5*%
X384914000Y-233172000D03*
%TO.P,J16,27,Pin_27*%
%TO.N,A4*%
X384914000Y-230632000D03*
%TO.P,J16,28,Pin_28*%
%TO.N,A3*%
X384914000Y-228092000D03*
%TO.P,J16,29,Pin_29*%
%TO.N,A2*%
X384914000Y-225552000D03*
%TO.P,J16,30,Pin_30*%
%TO.N,A1*%
X384914000Y-223012000D03*
%TO.P,J16,31,Pin_31*%
%TO.N,A0*%
X384914000Y-220472000D03*
%TO.P,J16,32,Pin_32*%
%TO.N,~{IRQ0}*%
X384914000Y-217932000D03*
%TO.P,J16,33,Pin_33*%
%TO.N,~{IRQ1}*%
X384914000Y-215392000D03*
%TO.P,J16,34,Pin_34*%
%TO.N,~{IRQ2}*%
X384914000Y-212852000D03*
%TO.P,J16,35,Pin_35*%
%TO.N,~{IRQ3}*%
X384914000Y-210312000D03*
%TO.P,J16,36,Pin_36*%
%TO.N,~{IRQ4}*%
X384914000Y-207772000D03*
%TO.P,J16,37,Pin_37*%
%TO.N,~{IRQ5}*%
X384914000Y-205232000D03*
%TO.P,J16,38,Pin_38*%
%TO.N,~{IRQ6}*%
X384914000Y-202692000D03*
%TO.P,J16,39,Pin_39*%
%TO.N,~{IRQ7}*%
X384914000Y-200152000D03*
%TD*%
D15*
%TO.P,J6,1,Pin_1*%
%TO.N,~{STACK_SEG_OUT}*%
X266530000Y-245973000D03*
D16*
%TO.P,J6,2,Pin_2*%
%TO.N,~{STACK_SEG_EN}*%
X269070000Y-245973000D03*
%TO.P,J6,3,Pin_3*%
%TO.N,~{STACK_SEG_IN}*%
X271610000Y-245973000D03*
%TO.P,J6,4,Pin_4*%
%TO.N,~{DATA_SEG_OUT}*%
X274150000Y-245973000D03*
%TO.P,J6,5,Pin_5*%
%TO.N,~{DATA_SEG_EN}*%
X276690000Y-245973000D03*
%TO.P,J6,6,Pin_6*%
%TO.N,~{DATA_SEG_IN}*%
X279230000Y-245973000D03*
%TO.P,J6,7,Pin_7*%
%TO.N,~{CODE_SEG_OUT}*%
X281770000Y-245973000D03*
%TO.P,J6,8,Pin_8*%
%TO.N,~{CODE_SEG_EN}*%
X284310000Y-245973000D03*
%TO.P,J6,9,Pin_9*%
%TO.N,~{CODE_SEG_IN}*%
X286850000Y-245973000D03*
%TO.P,J6,10,Pin_10*%
%TO.N,A15*%
X289390000Y-245973000D03*
%TO.P,J6,11,Pin_11*%
%TO.N,A14*%
X291930000Y-245973000D03*
%TO.P,J6,12,Pin_12*%
%TO.N,A13*%
X294470000Y-245973000D03*
%TO.P,J6,13,Pin_13*%
%TO.N,A12*%
X297010000Y-245973000D03*
%TO.P,J6,14,Pin_14*%
%TO.N,A11*%
X299550000Y-245973000D03*
%TO.P,J6,15,Pin_15*%
%TO.N,A10*%
X302090000Y-245973000D03*
%TO.P,J6,16,Pin_16*%
%TO.N,A9*%
X304630000Y-245973000D03*
%TO.P,J6,17,Pin_17*%
%TO.N,A8*%
X307170000Y-245973000D03*
%TO.P,J6,18,Pin_18*%
%TO.N,A7*%
X309710000Y-245973000D03*
%TO.P,J6,19,Pin_19*%
%TO.N,A6*%
X312250000Y-245973000D03*
%TO.P,J6,20,Pin_20*%
%TO.N,A5*%
X314790000Y-245973000D03*
%TO.P,J6,21,Pin_21*%
%TO.N,A4*%
X317330000Y-245973000D03*
%TO.P,J6,22,Pin_22*%
%TO.N,A3*%
X319870000Y-245973000D03*
%TO.P,J6,23,Pin_23*%
%TO.N,A2*%
X322410000Y-245973000D03*
%TO.P,J6,24,Pin_24*%
%TO.N,A1*%
X324950000Y-245973000D03*
%TO.P,J6,25,Pin_25*%
%TO.N,A0*%
X327490000Y-245973000D03*
%TO.P,J6,26,Pin_26*%
%TO.N,BUS7*%
X330030000Y-245973000D03*
%TO.P,J6,27,Pin_27*%
%TO.N,BUS6*%
X332570000Y-245973000D03*
%TO.P,J6,28,Pin_28*%
%TO.N,BUS5*%
X335110000Y-245973000D03*
%TO.P,J6,29,Pin_29*%
%TO.N,BUS4*%
X337650000Y-245973000D03*
%TO.P,J6,30,Pin_30*%
%TO.N,BUS3*%
X340190000Y-245973000D03*
%TO.P,J6,31,Pin_31*%
%TO.N,BUS2*%
X342730000Y-245973000D03*
%TO.P,J6,32,Pin_32*%
%TO.N,BUS1*%
X345270000Y-245973000D03*
%TO.P,J6,33,Pin_33*%
%TO.N,BUS0*%
X347810000Y-245973000D03*
%TO.P,J6,34,Pin_34*%
%TO.N,~{MEM_WRITE}*%
X350350000Y-245973000D03*
%TO.P,J6,35,Pin_35*%
%TO.N,~{MEM_READ}*%
X352890000Y-245973000D03*
%TO.P,J6,36,Pin_36*%
%TO.N,~{MEM_LATCH_MAR}*%
X355430000Y-245973000D03*
%TO.P,J6,37,Pin_37*%
%TO.N,RESET_CONTROL*%
X357970000Y-245973000D03*
%TO.P,J6,38,Pin_38*%
%TO.N,CLOCK*%
X360510000Y-245973000D03*
%TO.P,J6,39,Pin_39*%
%TO.N,GND*%
X363050000Y-245973000D03*
%TO.P,J6,40,Pin_40*%
%TO.N,VCC*%
X365590000Y-245973000D03*
%TD*%
D22*
%TO.P,SW1,1,A*%
%TO.N,unconnected-(SW1-Pad1)*%
X231871000Y-99605000D03*
%TO.P,SW1,2,B*%
%TO.N,GND*%
X231871000Y-104304000D03*
%TO.P,SW1,3,C*%
%TO.N,Net-(J11-Pad1)*%
X231871000Y-109003000D03*
%TD*%
D15*
%TO.P,J1,1,Pin_1*%
%TO.N,VCC*%
X360172000Y-172583000D03*
D16*
%TO.P,J1,2,Pin_2*%
%TO.N,~{A_IN}*%
X360172000Y-170043000D03*
%TO.P,J1,3,Pin_3*%
%TO.N,GND*%
X357632000Y-172583000D03*
%TO.P,J1,4,Pin_4*%
%TO.N,~{B_IN}*%
X357632000Y-170043000D03*
%TO.P,J1,5,Pin_5*%
%TO.N,unconnected-(J1-Pad5)*%
X355092000Y-172583000D03*
%TO.P,J1,6,Pin_6*%
%TO.N,~{SP_DEC}*%
X355092000Y-170043000D03*
%TO.P,J1,7,Pin_7*%
%TO.N,unconnected-(J1-Pad7)*%
X352552000Y-172583000D03*
%TO.P,J1,8,Pin_8*%
%TO.N,~{SP_INC}*%
X352552000Y-170043000D03*
%TO.P,J1,9,Pin_9*%
%TO.N,unconnected-(J1-Pad9)*%
X350012000Y-172583000D03*
%TO.P,J1,10,Pin_10*%
%TO.N,~{SP_LOAD}*%
X350012000Y-170043000D03*
%TO.P,J1,11,Pin_11*%
%TO.N,unconnected-(J1-Pad11)*%
X347472000Y-172583000D03*
%TO.P,J1,12,Pin_12*%
%TO.N,RESTORE_FLAGS*%
X347472000Y-170043000D03*
%TO.P,J1,13,Pin_13*%
%TO.N,unconnected-(J1-Pad13)*%
X344932000Y-172583000D03*
%TO.P,J1,14,Pin_14*%
%TO.N,~{FLAGS_IN}*%
X344932000Y-170043000D03*
%TO.P,J1,15,Pin_15*%
%TO.N,unconnected-(J1-Pad15)*%
X342392000Y-172583000D03*
%TO.P,J1,16,Pin_16*%
%TO.N,~{WR2_12}*%
X342392000Y-170043000D03*
%TO.P,J1,17,Pin_17*%
%TO.N,unconnected-(J1-Pad17)*%
X339852000Y-172583000D03*
%TO.P,J1,18,Pin_18*%
%TO.N,~{WR2_13}*%
X339852000Y-170043000D03*
%TO.P,J1,19,Pin_19*%
%TO.N,unconnected-(J1-Pad19)*%
X337312000Y-172583000D03*
%TO.P,J1,20,Pin_20*%
%TO.N,~{WR2_14}*%
X337312000Y-170043000D03*
%TO.P,J1,21,Pin_21*%
%TO.N,unconnected-(J1-Pad21)*%
X334772000Y-172583000D03*
%TO.P,J1,22,Pin_22*%
%TO.N,~{WR2_15}*%
X334772000Y-170043000D03*
%TO.P,J1,23,Pin_23*%
%TO.N,unconnected-(J1-Pad23)*%
X332232000Y-172583000D03*
%TO.P,J1,24,Pin_24*%
%TO.N,~{PC_OUT}*%
X332232000Y-170043000D03*
%TO.P,J1,25,Pin_25*%
%TO.N,unconnected-(J1-Pad25)*%
X329692000Y-172583000D03*
%TO.P,J1,26,Pin_26*%
%TO.N,~{SP_OUT}*%
X329692000Y-170043000D03*
%TO.P,J1,27,Pin_27*%
%TO.N,unconnected-(J1-Pad27)*%
X327152000Y-172583000D03*
%TO.P,J1,28,Pin_28*%
%TO.N,~{FLAGS_OUT}*%
X327152000Y-170043000D03*
%TO.P,J1,29,Pin_29*%
%TO.N,unconnected-(J1-Pad29)*%
X324612000Y-172583000D03*
%TO.P,J1,30,Pin_30*%
%TO.N,~{INT_HNDLR_EN}*%
X324612000Y-170043000D03*
%TO.P,J1,31,Pin_31*%
%TO.N,unconnected-(J1-Pad31)*%
X322072000Y-172583000D03*
%TO.P,J1,32,Pin_32*%
%TO.N,~{INT_HNDLR_READ}*%
X322072000Y-170043000D03*
%TO.P,J1,33,Pin_33*%
%TO.N,unconnected-(J1-Pad33)*%
X319532000Y-172583000D03*
%TO.P,J1,34,Pin_34*%
%TO.N,~{INT_HNDLR_WRITE}*%
X319532000Y-170043000D03*
%TO.P,J1,35,Pin_35*%
%TO.N,unconnected-(J1-Pad35)*%
X316992000Y-172583000D03*
%TO.P,J1,36,Pin_36*%
%TO.N,INT_HNDLR_REG_SEL*%
X316992000Y-170043000D03*
%TO.P,J1,37,Pin_37*%
%TO.N,unconnected-(J1-Pad37)*%
X314452000Y-172583000D03*
%TO.P,J1,38,Pin_38*%
%TO.N,unconnected-(J1-Pad38)*%
X314452000Y-170043000D03*
%TO.P,J1,39,Pin_39*%
%TO.N,unconnected-(J1-Pad39)*%
X311912000Y-172583000D03*
%TO.P,J1,40,Pin_40*%
%TO.N,unconnected-(J1-Pad40)*%
X311912000Y-170043000D03*
%TO.P,J1,41,Pin_41*%
%TO.N,unconnected-(J1-Pad41)*%
X309372000Y-172583000D03*
%TO.P,J1,42,Pin_42*%
%TO.N,~{RD4_6}*%
X309372000Y-170043000D03*
%TO.P,J1,43,Pin_43*%
%TO.N,unconnected-(J1-Pad43)*%
X306832000Y-172583000D03*
%TO.P,J1,44,Pin_44*%
%TO.N,~{RD4_7}*%
X306832000Y-170043000D03*
%TO.P,J1,45,Pin_45*%
%TO.N,~{IO_READ}*%
X304292000Y-172583000D03*
%TO.P,J1,46,Pin_46*%
%TO.N,~{RD4_8}*%
X304292000Y-170043000D03*
%TO.P,J1,47,Pin_47*%
%TO.N,~{IO_WRITE}*%
X301752000Y-172583000D03*
%TO.P,J1,48,Pin_48*%
%TO.N,~{RD4_9}*%
X301752000Y-170043000D03*
%TO.P,J1,49,Pin_49*%
%TO.N,~{IO_REQUEST}*%
X299212000Y-172583000D03*
%TO.P,J1,50,Pin_50*%
%TO.N,~{RD4_10}*%
X299212000Y-170043000D03*
%TO.P,J1,51,Pin_51*%
%TO.N,~{IO_MEM_REQUEST}*%
X296672000Y-172583000D03*
%TO.P,J1,52,Pin_52*%
%TO.N,~{RD4_11}*%
X296672000Y-170043000D03*
%TO.P,J1,53,Pin_53*%
%TO.N,~{LD_IR}*%
X294132000Y-172583000D03*
%TO.P,J1,54,Pin_54*%
%TO.N,~{RD4_12}*%
X294132000Y-170043000D03*
%TO.P,J1,55,Pin_55*%
%TO.N,\u03BCRD0*%
X291592000Y-172583000D03*
%TO.P,J1,56,Pin_56*%
%TO.N,~{RD4_13}*%
X291592000Y-170043000D03*
%TO.P,J1,57,Pin_57*%
%TO.N,\u03BCRD1*%
X289052000Y-172583000D03*
%TO.P,J1,58,Pin_58*%
%TO.N,~{RD4_14}*%
X289052000Y-170043000D03*
%TO.P,J1,59,Pin_59*%
%TO.N,\u03BCRD2*%
X286512000Y-172583000D03*
%TO.P,J1,60,Pin_60*%
%TO.N,~{RD4_15}*%
X286512000Y-170043000D03*
%TO.P,J1,61,Pin_61*%
%TO.N,\u03BCRD3*%
X283972000Y-172583000D03*
%TO.P,J1,62,Pin_62*%
%TO.N,ALU_FUNC_0*%
X283972000Y-170043000D03*
%TO.P,J1,63,Pin_63*%
%TO.N,\u03BCWR0*%
X281432000Y-172583000D03*
%TO.P,J1,64,Pin_64*%
%TO.N,ALU_FUNC_1*%
X281432000Y-170043000D03*
%TO.P,J1,65,Pin_65*%
%TO.N,\u03BCWR1*%
X278892000Y-172583000D03*
%TO.P,J1,66,Pin_66*%
%TO.N,ALU_FUNC_2*%
X278892000Y-170043000D03*
%TO.P,J1,67,Pin_67*%
%TO.N,\u03BCWR2*%
X276352000Y-172583000D03*
%TO.P,J1,68,Pin_68*%
%TO.N,ALU_FUNC_3*%
X276352000Y-170043000D03*
%TO.P,J1,69,Pin_69*%
%TO.N,\u03BCWR3*%
X273812000Y-172583000D03*
%TO.P,J1,70,Pin_70*%
%TO.N,ALU_FUNC_4*%
X273812000Y-170043000D03*
%TO.P,J1,71,Pin_71*%
%TO.N,~{RD2}*%
X271272000Y-172583000D03*
%TO.P,J1,72,Pin_72*%
%TO.N,ALU_FUNC_5*%
X271272000Y-170043000D03*
%TO.P,J1,73,Pin_73*%
%TO.N,~{RD3}*%
X268732000Y-172583000D03*
%TO.P,J1,74,Pin_74*%
%TO.N,JCC_ADR0*%
X268732000Y-170043000D03*
%TO.P,J1,75,Pin_75*%
%TO.N,~{RD4}*%
X266192000Y-172583000D03*
%TO.P,J1,76,Pin_76*%
%TO.N,JCC_ADR1*%
X266192000Y-170043000D03*
%TO.P,J1,77,Pin_77*%
%TO.N,~{WR2}*%
X263652000Y-172583000D03*
%TO.P,J1,78,Pin_78*%
%TO.N,JCC_ADR2*%
X263652000Y-170043000D03*
%TO.P,J1,79,Pin_79*%
%TO.N,~{WR3}*%
X261112000Y-172583000D03*
%TO.P,J1,80,Pin_80*%
%TO.N,JCC_ADR3*%
X261112000Y-170043000D03*
%TD*%
D15*
%TO.P,J18,1,Pin_1*%
%TO.N,~{MEM_WRITE}*%
X359918000Y-291084000D03*
D16*
%TO.P,J18,2,Pin_2*%
%TO.N,~{MEM_READ}*%
X357378000Y-291084000D03*
%TO.P,J18,3,Pin_3*%
%TO.N,~{STACK_SEG_EN}*%
X354838000Y-291084000D03*
%TO.P,J18,4,Pin_4*%
%TO.N,~{DATA_SEG_EN}*%
X352298000Y-291084000D03*
%TO.P,J18,5,Pin_5*%
%TO.N,~{CODE_SEG_EN}*%
X349758000Y-291084000D03*
%TO.P,J18,6,Pin_6*%
%TO.N,~{STACK_SEG_OUT}*%
X347218000Y-291084000D03*
%TO.P,J18,7,Pin_7*%
%TO.N,~{DATA_SEG_OUT}*%
X344678000Y-291084000D03*
%TO.P,J18,8,Pin_8*%
%TO.N,~{CODE_SEG_OUT}*%
X342138000Y-291084000D03*
%TO.P,J18,9,Pin_9*%
%TO.N,~{MEM_LATCH_MAR}*%
X339598000Y-291084000D03*
%TO.P,J18,10,Pin_10*%
%TO.N,~{STACK_SEG_IN}*%
X337058000Y-291084000D03*
%TO.P,J18,11,Pin_11*%
%TO.N,~{DATA_SEG_IN}*%
X334518000Y-291084000D03*
%TO.P,J18,12,Pin_12*%
%TO.N,~{CODE_SEG_IN}*%
X331978000Y-291084000D03*
%TO.P,J18,13,Pin_13*%
%TO.N,GPR6*%
X329438000Y-291084000D03*
%TO.P,J18,14,Pin_14*%
%TO.N,GPR5*%
X326898000Y-291084000D03*
%TO.P,J18,15,Pin_15*%
%TO.N,GPR4*%
X324358000Y-291084000D03*
%TO.P,J18,16,Pin_16*%
%TO.N,GPR3*%
X321818000Y-291084000D03*
%TO.P,J18,17,Pin_17*%
%TO.N,GPR2*%
X319278000Y-291084000D03*
%TO.P,J18,18,Pin_18*%
%TO.N,GPR1*%
X316738000Y-291084000D03*
%TO.P,J18,19,Pin_19*%
%TO.N,GPR0*%
X314198000Y-291084000D03*
%TO.P,J18,20,Pin_20*%
%TO.N,~{WR1}*%
X311658000Y-291084000D03*
%TO.P,J18,21,Pin_21*%
%TO.N,~{WR0}*%
X309118000Y-291084000D03*
%TO.P,J18,22,Pin_22*%
%TO.N,~{RD1}*%
X306578000Y-291084000D03*
%TO.P,J18,23,Pin_23*%
%TO.N,~{RD0}*%
X304038000Y-291084000D03*
%TO.P,J18,24,Pin_24*%
%TO.N,\u03BCWR2*%
X301498000Y-291084000D03*
%TO.P,J18,25,Pin_25*%
%TO.N,\u03BCWR1*%
X298958000Y-291084000D03*
%TO.P,J18,26,Pin_26*%
%TO.N,\u03BCWR0*%
X296418000Y-291084000D03*
%TO.P,J18,27,Pin_27*%
%TO.N,\u03BCRD3*%
X293878000Y-291084000D03*
%TO.P,J18,28,Pin_28*%
%TO.N,\u03BCRD2*%
X291338000Y-291084000D03*
%TO.P,J18,29,Pin_29*%
%TO.N,\u03BCRD1*%
X288798000Y-291084000D03*
%TO.P,J18,30,Pin_30*%
%TO.N,\u03BCRD0*%
X286258000Y-291084000D03*
%TO.P,J18,31,Pin_31*%
%TO.N,GND*%
X283718000Y-291084000D03*
%TO.P,J18,32,Pin_32*%
%TO.N,VCC*%
X281178000Y-291084000D03*
%TD*%
D15*
%TO.P,J25,1,Pin_1*%
%TO.N,~{WR5_15}*%
X360680000Y-311850000D03*
D16*
%TO.P,J25,2,Pin_2*%
%TO.N,~{RD6_15}*%
X360680000Y-309310000D03*
%TO.P,J25,3,Pin_3*%
%TO.N,~{WR5_14}*%
X358140000Y-311850000D03*
%TO.P,J25,4,Pin_4*%
%TO.N,~{RD6_14}*%
X358140000Y-309310000D03*
%TO.P,J25,5,Pin_5*%
%TO.N,~{WR5_13}*%
X355600000Y-311850000D03*
%TO.P,J25,6,Pin_6*%
%TO.N,~{RD6_13}*%
X355600000Y-309310000D03*
%TO.P,J25,7,Pin_7*%
%TO.N,~{WR5_12}*%
X353060000Y-311850000D03*
%TO.P,J25,8,Pin_8*%
%TO.N,~{RD6_12}*%
X353060000Y-309310000D03*
%TO.P,J25,9,Pin_9*%
%TO.N,~{WR5_11}*%
X350520000Y-311850000D03*
%TO.P,J25,10,Pin_10*%
%TO.N,~{RD6_11}*%
X350520000Y-309310000D03*
%TO.P,J25,11,Pin_11*%
%TO.N,~{WR5_10}*%
X347980000Y-311850000D03*
%TO.P,J25,12,Pin_12*%
%TO.N,~{RD6_10}*%
X347980000Y-309310000D03*
%TO.P,J25,13,Pin_13*%
%TO.N,~{WR5_09}*%
X345440000Y-311850000D03*
%TO.P,J25,14,Pin_14*%
%TO.N,~{RD6_09}*%
X345440000Y-309310000D03*
%TO.P,J25,15,Pin_15*%
%TO.N,~{WR5_08}*%
X342900000Y-311850000D03*
%TO.P,J25,16,Pin_16*%
%TO.N,~{RD6_08}*%
X342900000Y-309310000D03*
%TO.P,J25,17,Pin_17*%
%TO.N,~{WR5_07}*%
X340360000Y-311850000D03*
%TO.P,J25,18,Pin_18*%
%TO.N,~{RD6_07}*%
X340360000Y-309310000D03*
%TO.P,J25,19,Pin_19*%
%TO.N,~{WR5_06}*%
X337820000Y-311850000D03*
%TO.P,J25,20,Pin_20*%
%TO.N,~{RD6_06}*%
X337820000Y-309310000D03*
%TO.P,J25,21,Pin_21*%
%TO.N,~{WR5_05}*%
X335280000Y-311850000D03*
%TO.P,J25,22,Pin_22*%
%TO.N,~{RD6_05}*%
X335280000Y-309310000D03*
%TO.P,J25,23,Pin_23*%
%TO.N,~{WR5_04}*%
X332740000Y-311850000D03*
%TO.P,J25,24,Pin_24*%
%TO.N,~{RD6_04}*%
X332740000Y-309310000D03*
%TO.P,J25,25,Pin_25*%
%TO.N,~{WR5_03}*%
X330200000Y-311850000D03*
%TO.P,J25,26,Pin_26*%
%TO.N,~{RD6_03}*%
X330200000Y-309310000D03*
%TO.P,J25,27,Pin_27*%
%TO.N,~{WR5_02}*%
X327660000Y-311850000D03*
%TO.P,J25,28,Pin_28*%
%TO.N,~{RD6_02}*%
X327660000Y-309310000D03*
%TO.P,J25,29,Pin_29*%
%TO.N,~{WR5_01}*%
X325120000Y-311850000D03*
%TO.P,J25,30,Pin_30*%
%TO.N,~{RD6_01}*%
X325120000Y-309310000D03*
%TO.P,J25,31,Pin_31*%
%TO.N,~{WR5_00}*%
X322580000Y-311850000D03*
%TO.P,J25,32,Pin_32*%
%TO.N,~{RD6_00}*%
X322580000Y-309310000D03*
%TO.P,J25,33,Pin_33*%
%TO.N,unconnected-(J25-Pad33)*%
X320040000Y-311850000D03*
%TO.P,J25,34,Pin_34*%
%TO.N,unconnected-(J25-Pad34)*%
X320040000Y-309310000D03*
%TO.P,J25,35,Pin_35*%
%TO.N,unconnected-(J25-Pad35)*%
X317500000Y-311850000D03*
%TO.P,J25,36,Pin_36*%
%TO.N,unconnected-(J25-Pad36)*%
X317500000Y-309310000D03*
%TO.P,J25,37,Pin_37*%
%TO.N,unconnected-(J25-Pad37)*%
X314960000Y-311850000D03*
%TO.P,J25,38,Pin_38*%
%TO.N,~{WR5}*%
X314960000Y-309310000D03*
%TO.P,J25,39,Pin_39*%
%TO.N,GND*%
X312420000Y-311850000D03*
%TO.P,J25,40,Pin_40*%
%TO.N,~{WR4}*%
X312420000Y-309310000D03*
%TO.P,J25,41,Pin_41*%
%TO.N,VCC*%
X309880000Y-311850000D03*
%TO.P,J25,42,Pin_42*%
%TO.N,\u03BCWR3*%
X309880000Y-309310000D03*
%TO.P,J25,43,Pin_43*%
%TO.N,unconnected-(J25-Pad43)*%
X307340000Y-311850000D03*
%TO.P,J25,44,Pin_44*%
%TO.N,\u03BCWR2*%
X307340000Y-309310000D03*
%TO.P,J25,45,Pin_45*%
%TO.N,unconnected-(J25-Pad45)*%
X304800000Y-311850000D03*
%TO.P,J25,46,Pin_46*%
%TO.N,\u03BCWR1*%
X304800000Y-309310000D03*
%TO.P,J25,47,Pin_47*%
%TO.N,unconnected-(J25-Pad47)*%
X302260000Y-311850000D03*
%TO.P,J25,48,Pin_48*%
%TO.N,\u03BCWR0*%
X302260000Y-309310000D03*
%TO.P,J25,49,Pin_49*%
%TO.N,~{RD5_00}*%
X299720000Y-311850000D03*
%TO.P,J25,50,Pin_50*%
%TO.N,~{RD6}*%
X299720000Y-309310000D03*
%TO.P,J25,51,Pin_51*%
%TO.N,~{RD5_01}*%
X297180000Y-311850000D03*
%TO.P,J25,52,Pin_52*%
%TO.N,~{RD5}*%
X297180000Y-309310000D03*
%TO.P,J25,53,Pin_53*%
%TO.N,~{RD5_02}*%
X294640000Y-311850000D03*
%TO.P,J25,54,Pin_54*%
%TO.N,\u03BCRD3*%
X294640000Y-309310000D03*
%TO.P,J25,55,Pin_55*%
%TO.N,~{RD5_03}*%
X292100000Y-311850000D03*
%TO.P,J25,56,Pin_56*%
%TO.N,\u03BCRD2*%
X292100000Y-309310000D03*
%TO.P,J25,57,Pin_57*%
%TO.N,~{WR4_00}*%
X289560000Y-311850000D03*
%TO.P,J25,58,Pin_58*%
%TO.N,\u03BCRD1*%
X289560000Y-309310000D03*
%TO.P,J25,59,Pin_59*%
%TO.N,~{WR4_01}*%
X287020000Y-311850000D03*
%TO.P,J25,60,Pin_60*%
%TO.N,\u03BCRD0*%
X287020000Y-309310000D03*
%TO.P,J25,61,Pin_61*%
%TO.N,~{WR4_02}*%
X284480000Y-311850000D03*
%TO.P,J25,62,Pin_62*%
%TO.N,unconnected-(J25-Pad62)*%
X284480000Y-309310000D03*
%TO.P,J25,63,Pin_63*%
%TO.N,~{WR4_03}*%
X281940000Y-311850000D03*
%TO.P,J25,64,Pin_64*%
%TO.N,unconnected-(J25-Pad64)*%
X281940000Y-309310000D03*
%TD*%
D15*
%TO.P,J23,1,Pin_1*%
%TO.N,BUS0*%
X233934000Y-140716000D03*
D16*
%TO.P,J23,2,Pin_2*%
X236474000Y-140716000D03*
%TO.P,J23,3,Pin_3*%
%TO.N,BUS1*%
X233934000Y-143256000D03*
%TO.P,J23,4,Pin_4*%
X236474000Y-143256000D03*
%TO.P,J23,5,Pin_5*%
%TO.N,BUS2*%
X233934000Y-145796000D03*
%TO.P,J23,6,Pin_6*%
X236474000Y-145796000D03*
%TO.P,J23,7,Pin_7*%
%TO.N,BUS3*%
X233934000Y-148336000D03*
%TO.P,J23,8,Pin_8*%
X236474000Y-148336000D03*
%TO.P,J23,9,Pin_9*%
%TO.N,BUS4*%
X233934000Y-150876000D03*
%TO.P,J23,10,Pin_10*%
X236474000Y-150876000D03*
%TO.P,J23,11,Pin_11*%
%TO.N,BUS5*%
X233934000Y-153416000D03*
%TO.P,J23,12,Pin_12*%
X236474000Y-153416000D03*
%TO.P,J23,13,Pin_13*%
%TO.N,BUS6*%
X233934000Y-155956000D03*
%TO.P,J23,14,Pin_14*%
X236474000Y-155956000D03*
%TO.P,J23,15,Pin_15*%
%TO.N,BUS7*%
X233934000Y-158496000D03*
%TO.P,J23,16,Pin_16*%
X236474000Y-158496000D03*
%TD*%
D15*
%TO.P,J4,1,Pin_1*%
%TO.N,VCC*%
X303490000Y-191513000D03*
D16*
%TO.P,J4,2,Pin_2*%
%TO.N,GND*%
X306030000Y-191513000D03*
%TO.P,J4,3,Pin_3*%
%TO.N,CLOCK*%
X308570000Y-191513000D03*
%TO.P,J4,4,Pin_4*%
%TO.N,~{INT_HNDLR_EN}*%
X311110000Y-191513000D03*
%TO.P,J4,5,Pin_5*%
%TO.N,INT_HNDLR_REG_SEL*%
X313650000Y-191513000D03*
%TO.P,J4,6,Pin_6*%
%TO.N,~{INT_HNDLR_READ}*%
X316190000Y-191513000D03*
%TO.P,J4,7,Pin_7*%
%TO.N,~{INT_HNDLR_WRITE}*%
X318730000Y-191513000D03*
%TO.P,J4,8,Pin_8*%
%TO.N,~{INT_REQUEST}*%
X321270000Y-191513000D03*
%TO.P,J4,9,Pin_9*%
%TO.N,BUS7*%
X323810000Y-191513000D03*
%TO.P,J4,10,Pin_10*%
%TO.N,BUS6*%
X326350000Y-191513000D03*
%TO.P,J4,11,Pin_11*%
%TO.N,BUS5*%
X328890000Y-191513000D03*
%TO.P,J4,12,Pin_12*%
%TO.N,BUS4*%
X331430000Y-191513000D03*
%TO.P,J4,13,Pin_13*%
%TO.N,BUS3*%
X333970000Y-191513000D03*
%TO.P,J4,14,Pin_14*%
%TO.N,BUS2*%
X336510000Y-191513000D03*
%TO.P,J4,15,Pin_15*%
%TO.N,BUS1*%
X339050000Y-191513000D03*
%TO.P,J4,16,Pin_16*%
%TO.N,BUS0*%
X341590000Y-191513000D03*
%TO.P,J4,17,Pin_17*%
%TO.N,~{IRQ7}*%
X344130000Y-191513000D03*
%TO.P,J4,18,Pin_18*%
%TO.N,~{IRQ6}*%
X346670000Y-191513000D03*
%TO.P,J4,19,Pin_19*%
%TO.N,~{IRQ5}*%
X349210000Y-191513000D03*
%TO.P,J4,20,Pin_20*%
%TO.N,~{IRQ4}*%
X351750000Y-191513000D03*
%TO.P,J4,21,Pin_21*%
%TO.N,~{IRQ3}*%
X354290000Y-191513000D03*
%TO.P,J4,22,Pin_22*%
%TO.N,~{IRQ2}*%
X356830000Y-191513000D03*
%TO.P,J4,23,Pin_23*%
%TO.N,~{IRQ1}*%
X359370000Y-191513000D03*
%TO.P,J4,24,Pin_24*%
%TO.N,~{IRQ0}*%
X361910000Y-191513000D03*
%TD*%
D15*
%TO.P,J10,1,Pin_1*%
%TO.N,VCC*%
X332486000Y-91186000D03*
D16*
%TO.P,J10,2,Pin_2*%
%TO.N,GND*%
X335026000Y-91186000D03*
%TO.P,J10,3,Pin_3*%
%TO.N,CLOCK*%
X337566000Y-91186000D03*
%TO.P,J10,4,Pin_4*%
X340106000Y-91186000D03*
%TO.P,J10,5,Pin_5*%
%TO.N,~{CLOCK}*%
X342646000Y-91186000D03*
%TO.P,J10,6,Pin_6*%
X345186000Y-91186000D03*
%TD*%
D17*
%TO.P,REF\u002A\u002A,1*%
%TO.N,N/C*%
X233898000Y-331724000D03*
X229398000Y-331724000D03*
X233238990Y-333314990D03*
X231648000Y-333974000D03*
X230057010Y-333314990D03*
X230057010Y-330133010D03*
X233238990Y-330133010D03*
X231648000Y-329474000D03*
D18*
X231648000Y-331724000D03*
%TD*%
D17*
%TO.P,REF\u002A\u002A,1*%
%TO.N,N/C*%
X229398000Y-88392000D03*
X231648000Y-90642000D03*
D18*
X231648000Y-88392000D03*
D17*
X233238990Y-86801010D03*
X233238990Y-89982990D03*
X233898000Y-88392000D03*
X230057010Y-86801010D03*
X231648000Y-86142000D03*
X230057010Y-89982990D03*
%TD*%
%TO.P,REF\u002A\u002A,1*%
%TO.N,N/C*%
X236794990Y-194630990D03*
X237454000Y-193040000D03*
X233613010Y-191449010D03*
D18*
X235204000Y-193040000D03*
D17*
X235204000Y-195290000D03*
X233613010Y-194630990D03*
X235204000Y-190790000D03*
X236794990Y-191449010D03*
X232954000Y-193040000D03*
%TD*%
D15*
%TO.P,J3,1,Pin_1*%
%TO.N,VCC*%
X356764000Y-141493000D03*
D16*
%TO.P,J3,2,Pin_2*%
%TO.N,GND*%
X354224000Y-141493000D03*
%TO.P,J3,3,Pin_3*%
%TO.N,CLOCK*%
X351684000Y-141493000D03*
%TO.P,J3,4,Pin_4*%
%TO.N,RESET_CONTROL*%
X349144000Y-141493000D03*
%TO.P,J3,5,Pin_5*%
%TO.N,~{SP_DEC}*%
X346604000Y-141493000D03*
%TO.P,J3,6,Pin_6*%
%TO.N,~{SP_INC}*%
X344064000Y-141493000D03*
%TO.P,J3,7,Pin_7*%
%TO.N,~{SP_LOAD}*%
X341524000Y-141493000D03*
%TO.P,J3,8,Pin_8*%
%TO.N,~{SP_OUT}*%
X338984000Y-141493000D03*
%TO.P,J3,9,Pin_9*%
%TO.N,unconnected-(J3-Pad9)*%
X336444000Y-141493000D03*
%TO.P,J3,10,Pin_10*%
%TO.N,~{PC_INC}*%
X333904000Y-141493000D03*
%TO.P,J3,11,Pin_11*%
%TO.N,/JCC_LD_PC_COND*%
X331364000Y-141493000D03*
%TO.P,J3,12,Pin_12*%
%TO.N,~{PC_OUT}*%
X328824000Y-141493000D03*
%TD*%
D15*
%TO.P,J20,1,Pin_1*%
%TO.N,/\u03BCA6*%
X384810000Y-110490000D03*
D16*
%TO.P,J20,2,Pin_2*%
%TO.N,/\u03BCA5*%
X384810000Y-113030000D03*
%TO.P,J20,3,Pin_3*%
%TO.N,/\u03BCA4*%
X384810000Y-115570000D03*
%TO.P,J20,4,Pin_4*%
%TO.N,/\u03BCB6*%
X384810000Y-118110000D03*
%TO.P,J20,5,Pin_5*%
%TO.N,/\u03BCB5*%
X384810000Y-120650000D03*
%TO.P,J20,6,Pin_6*%
%TO.N,/\u03BCB4*%
X384810000Y-123190000D03*
%TD*%
D23*
%TO.N,VCC*%
X246811946Y-106747456D03*
%TO.N,GND*%
X247518701Y-106040701D03*
X252979701Y-106421701D03*
X255778000Y-114554000D03*
%TO.N,CLOCK*%
X316484000Y-225552000D03*
%TO.N,~{PC_INC}*%
X282702000Y-135128000D03*
%TO.N,A15*%
X337058000Y-231648000D03*
%TO.N,A14*%
X337820000Y-230886000D03*
%TO.N,A13*%
X338582000Y-230124000D03*
%TO.N,A12*%
X339344000Y-229362000D03*
%TO.N,A11*%
X340106000Y-228600000D03*
%TO.N,A10*%
X340868000Y-227838000D03*
%TO.N,A9*%
X341630000Y-227076000D03*
%TO.N,A8*%
X247396000Y-246126000D03*
X268092701Y-258440701D03*
X342392000Y-226314000D03*
%TO.N,A7*%
X247396000Y-248666000D03*
X267462000Y-259334000D03*
X343154000Y-225552000D03*
%TO.N,A6*%
X266700000Y-260096000D03*
X247396000Y-251206000D03*
X343916000Y-224790000D03*
%TO.N,A5*%
X265938000Y-260858000D03*
X344678000Y-224028000D03*
X247396000Y-253746000D03*
%TO.N,A4*%
X265176000Y-261620000D03*
X345440000Y-223266000D03*
X247396000Y-256286000D03*
%TO.N,A3*%
X264414000Y-262382000D03*
X346202000Y-222504000D03*
X247396000Y-258826000D03*
%TO.N,A2*%
X247396000Y-261366000D03*
X263652000Y-263144000D03*
X346964000Y-221742000D03*
%TO.N,A1*%
X347726000Y-220980000D03*
X247396000Y-263906000D03*
X262890000Y-263906000D03*
%TO.N,A0*%
X247396000Y-266446000D03*
X348488000Y-220218000D03*
X262128000Y-264922000D03*
%TO.N,~{MEM_WRITE}*%
X355600000Y-265938000D03*
%TO.N,~{MEM_READ}*%
X352098977Y-261412379D03*
%TO.N,~{FLAGS_OUT}*%
X328422000Y-185674000D03*
%TO.N,\u03BCB7*%
X261053151Y-108362011D03*
%TO.N,~{LD_IR}*%
X284988000Y-161036000D03*
%TO.N,~{INT_REQUEST}*%
X325882000Y-168402000D03*
X332994000Y-130048000D03*
%TO.N,~{RESET_STEP}*%
X258572000Y-110998001D03*
%TO.N,~{IO_REQUEST}*%
X372110000Y-251714000D03*
X315722000Y-166878000D03*
%TO.N,~{IO_READ}*%
X313177701Y-165358299D03*
X373596500Y-250123995D03*
%TO.N,~{IO_WRITE}*%
X372872000Y-250952000D03*
X314452000Y-166116000D03*
%TO.N,~{IO_MEM_REQUEST}*%
X316992000Y-167640000D03*
X371348000Y-252476000D03*
%TO.N,~{RD2}*%
X255994501Y-165423636D03*
X270002000Y-175260000D03*
%TO.N,~{RD3}*%
X256798301Y-164596299D03*
%TO.N,\u03BCRD0*%
X262013377Y-182854097D03*
%TO.N,\u03BCRD1*%
X263118839Y-182384339D03*
%TO.N,\u03BCRD2*%
X264160000Y-181647500D03*
%TO.N,\u03BCRD3*%
X265176000Y-180885500D03*
%TO.N,~{RD4}*%
X257560299Y-163834299D03*
%TO.N,~{WR2}*%
X275844000Y-157734000D03*
%TO.N,\u03BCWR0*%
X266192000Y-180123500D03*
%TO.N,\u03BCWR1*%
X267208000Y-179324000D03*
%TO.N,\u03BCWR2*%
X268218468Y-178566060D03*
%TO.N,~{CODE_SEG_IN}*%
X320548000Y-278892000D03*
%TO.N,~{DATA_SEG_IN}*%
X317500000Y-279163456D03*
%TO.N,~{STACK_SEG_IN}*%
X323342000Y-279146000D03*
%TO.N,~{CODE_SEG_OUT}*%
X316677166Y-278596050D03*
%TO.N,~{DATA_SEG_OUT}*%
X332063827Y-277151500D03*
%TO.N,~{STACK_SEG_OUT}*%
X335026000Y-279146000D03*
%TO.N,~{CODE_SEG_EN}*%
X315976000Y-277871550D03*
%TO.N,~{DATA_SEG_EN}*%
X336042000Y-276352000D03*
%TO.N,~{STACK_SEG_EN}*%
X339090000Y-276352000D03*
%TO.N,~{WR2_12}*%
X345186000Y-164592000D03*
%TO.N,~{WR2_13}*%
X343154000Y-163830000D03*
%TO.N,~{WR2_14}*%
X341516987Y-163384022D03*
%TO.N,~{WR2_15}*%
X340106000Y-162659522D03*
%TO.N,~{INT_HNDLR_EN}*%
X319786000Y-184658000D03*
%TO.N,\u03BCWR3*%
X269023500Y-177973667D03*
%TO.N,~{WR3}*%
X275082000Y-156972000D03*
%TO.N,~{RD1}*%
X269620999Y-151764999D03*
%TO.N,~{RD0}*%
X270256000Y-150876000D03*
%TO.N,~{WR1}*%
X333756000Y-98044000D03*
%TO.N,~{WR0}*%
X335026000Y-98044000D03*
%TO.N,RESET_CONTROL*%
X370586000Y-173990000D03*
X360680000Y-137922000D03*
X299212000Y-125222000D03*
X286766000Y-125222000D03*
%TO.N,~{RESET_CONTROL}*%
X369861500Y-174821636D03*
X345825299Y-120781299D03*
X259568358Y-111489238D03*
X353314000Y-120650000D03*
X355600000Y-243078000D03*
%TO.N,/\u03BCA6*%
X266192000Y-105664000D03*
X345559971Y-101087969D03*
%TO.N,/\u03BCA5*%
X268732000Y-105664000D03*
X346202000Y-101854000D03*
%TO.N,/\u03BCA4*%
X346964000Y-102616000D03*
X271526000Y-105664000D03*
%TO.N,/\u03BCB6*%
X306832000Y-106172000D03*
X347726000Y-103340500D03*
%TO.N,/\u03BCB5*%
X348488000Y-104140000D03*
X309372000Y-106172000D03*
%TO.N,/\u03BCB4*%
X349250000Y-104902000D03*
X311912000Y-106172000D03*
%TO.N,/JCC_LD_PC_COND*%
X333502000Y-176784000D03*
%TO.N,~{RD5}*%
X281686000Y-306190739D03*
%TO.N,~{RD6}*%
X282448000Y-305524500D03*
%TO.N,~{WR4}*%
X279908000Y-304292000D03*
%TO.N,~{RD5_01}*%
X274828000Y-329946000D03*
%TO.N,~{RD5_02}*%
X276098000Y-327872969D03*
%TO.N,~{RD5_03}*%
X278638000Y-327423458D03*
%TO.N,~{WR4_00}*%
X289560001Y-326643999D03*
%TO.N,~{WR4_01}*%
X287020000Y-325882000D03*
%TO.N,~{WR4_02}*%
X284480000Y-325120000D03*
%TO.N,~{WR4_03}*%
X281940000Y-324358000D03*
%TO.N,~{WR5}*%
X279885345Y-303244746D03*
%TD*%
D24*
%TO.N,~{WR0}*%
X264630501Y-97319499D02*
X334301499Y-97319499D01*
%TO.N,~{WR1}*%
X302260000Y-281686000D02*
X239268000Y-281686000D01*
X231140000Y-273558000D02*
X231140000Y-131445704D01*
X311658000Y-291084000D02*
X302260000Y-281686000D01*
%TO.N,~{WR0}*%
X239081806Y-282135510D02*
X230690490Y-273744194D01*
X334301499Y-97319499D02*
X335026000Y-98044000D01*
X230690490Y-273744194D02*
X230690490Y-131259510D01*
X300169511Y-282135511D02*
X239081806Y-282135510D01*
X230690490Y-131259510D02*
X264630501Y-97319499D01*
X309118000Y-291084000D02*
X300169511Y-282135511D01*
%TO.N,~{WR1}*%
X239268000Y-281686000D02*
X231140000Y-273558000D01*
X231140000Y-131445704D02*
X264541704Y-98044000D01*
X264541704Y-98044000D02*
X333756000Y-98044000D01*
%TO.N,A13*%
X268536517Y-254429467D02*
X253159495Y-269806489D01*
%TO.N,A14*%
X236593793Y-269356977D02*
X252973304Y-269356978D01*
%TO.N,A10*%
X232488533Y-248328967D02*
X232488533Y-267794533D01*
%TO.N,A14*%
X234286577Y-267049761D02*
X236593793Y-269356977D01*
%TO.N,A13*%
X236407600Y-269806488D02*
X233837066Y-267235954D01*
%TO.N,A11*%
X268908904Y-255328490D02*
X253473394Y-270764000D01*
%TO.N,A13*%
X233837066Y-267235954D02*
X233837066Y-254600434D01*
%TO.N,A15*%
X236779987Y-268907467D02*
X234736088Y-266863568D01*
%TO.N,A13*%
X286013534Y-254429466D02*
X268536517Y-254429467D01*
%TO.N,A12*%
X288104021Y-254878979D02*
X297010000Y-245973000D01*
%TO.N,A10*%
X253601098Y-271272000D02*
X269095098Y-255778000D01*
%TO.N,A12*%
X237231500Y-248666000D02*
X233387555Y-252509945D01*
%TO.N,A14*%
X252973304Y-269356978D02*
X268350326Y-253979956D01*
X234286577Y-256690923D02*
X234286577Y-267049761D01*
%TO.N,A11*%
X290194510Y-255328490D02*
X268908904Y-255328490D01*
%TO.N,A13*%
X253159495Y-269806489D02*
X236407600Y-269806488D01*
%TO.N,A12*%
X268722711Y-254878979D02*
X288104021Y-254878979D01*
%TO.N,A10*%
X269095098Y-255778000D02*
X292285000Y-255778000D01*
X235966000Y-271272000D02*
X253601098Y-271272000D01*
%TO.N,A12*%
X233387555Y-267422147D02*
X236221408Y-270256000D01*
%TO.N,A15*%
X281832555Y-253530445D02*
X268164129Y-253530445D01*
%TO.N,A11*%
X232938044Y-267608340D02*
X232938044Y-250419456D01*
X236093704Y-270764000D02*
X232938044Y-267608340D01*
X253473394Y-270764000D02*
X236093704Y-270764000D01*
%TO.N,A15*%
X252787107Y-268907467D02*
X236779987Y-268907467D01*
%TO.N,A9*%
X235712000Y-271780000D02*
X232039022Y-268107022D01*
%TO.N,A10*%
X232488533Y-267794533D02*
X235966000Y-271272000D01*
%TO.N,A15*%
X234736088Y-266863568D02*
X234736088Y-258781412D01*
%TO.N,A10*%
X237231500Y-243586000D02*
X232488533Y-248328967D01*
%TO.N,A9*%
X236474000Y-241808000D02*
X237993500Y-241808000D01*
%TO.N,A13*%
X233837066Y-254600434D02*
X237231500Y-251206000D01*
%TO.N,A9*%
X237993500Y-241808000D02*
X239771500Y-243586000D01*
%TO.N,A11*%
X232938044Y-250419456D02*
X237231500Y-246126000D01*
%TO.N,A13*%
X294470000Y-245973000D02*
X286013534Y-254429466D01*
%TO.N,A11*%
X299550000Y-245973000D02*
X290194510Y-255328490D01*
%TO.N,A9*%
X232039022Y-268107022D02*
X232039022Y-246242978D01*
X269222802Y-256286000D02*
X253728802Y-271780000D01*
X304630000Y-245973000D02*
X294317000Y-256286000D01*
%TO.N,A15*%
X268164129Y-253530445D02*
X252787107Y-268907467D01*
%TO.N,A9*%
X294317000Y-256286000D02*
X269222802Y-256286000D01*
%TO.N,A14*%
X283923045Y-253979955D02*
X291930000Y-245973000D01*
%TO.N,A9*%
X253728802Y-271780000D02*
X235712000Y-271780000D01*
X232039022Y-246242978D02*
X236474000Y-241808000D01*
%TO.N,A12*%
X236221408Y-270256000D02*
X253345690Y-270256000D01*
X253345690Y-270256000D02*
X268722711Y-254878979D01*
%TO.N,A15*%
X234736088Y-258781412D02*
X237231500Y-256286000D01*
%TO.N,A10*%
X292285000Y-255778000D02*
X302090000Y-245973000D01*
%TO.N,A12*%
X233387555Y-252509945D02*
X233387555Y-267422147D01*
%TO.N,A14*%
X237231500Y-253746000D02*
X234286577Y-256690923D01*
%TO.N,A15*%
X289390000Y-245973000D02*
X281832555Y-253530445D01*
%TO.N,A14*%
X268350326Y-253979956D02*
X283923045Y-253979955D01*
D25*
%TO.N,CLOCK*%
X292315000Y-225552000D02*
X316484000Y-225552000D01*
X278267000Y-211504000D02*
X292315000Y-225552000D01*
D24*
%TO.N,~{PC_INC}*%
X333904000Y-141493000D02*
X333904000Y-140102000D01*
X328930000Y-135128000D02*
X282702000Y-135128000D01*
X333248000Y-139446000D02*
X328930000Y-135128000D01*
X333904000Y-140102000D02*
X333248000Y-139446000D01*
%TO.N,BUS0*%
X240792000Y-170180000D02*
X238252000Y-167640000D01*
X306951000Y-211595000D02*
X306951000Y-211447000D01*
X240792000Y-177800000D02*
X240792000Y-170180000D01*
X267970000Y-204978000D02*
X240792000Y-177800000D01*
X306951000Y-211447000D02*
X300482000Y-204978000D01*
X358377000Y-256540000D02*
X380342000Y-256540000D01*
X238252000Y-167640000D02*
X233934000Y-167640000D01*
X300482000Y-204978000D02*
X267970000Y-204978000D01*
X347810000Y-245973000D02*
X358377000Y-256540000D01*
X380342000Y-256540000D02*
X384914000Y-261112000D01*
%TO.N,BUS1*%
X356345000Y-257048000D02*
X378310000Y-257048000D01*
X237744000Y-170180000D02*
X240284000Y-172720000D01*
X233934000Y-170180000D02*
X237744000Y-170180000D01*
X240284000Y-178054000D02*
X267716000Y-205486000D01*
X298302000Y-205486000D02*
X304411000Y-211595000D01*
X345270000Y-245973000D02*
X356345000Y-257048000D01*
X378310000Y-257048000D02*
X384914000Y-263652000D01*
X240284000Y-172720000D02*
X240284000Y-178054000D01*
X267716000Y-205486000D02*
X298302000Y-205486000D01*
%TO.N,BUS2*%
X354313000Y-257556000D02*
X376278000Y-257556000D01*
X267529806Y-205935510D02*
X239776000Y-178181704D01*
X237490000Y-172720000D02*
X233934000Y-172720000D01*
X296211510Y-205935510D02*
X267529806Y-205935510D01*
X239776000Y-178181704D02*
X239776000Y-175006000D01*
X301871000Y-211595000D02*
X296211510Y-205935510D01*
X376278000Y-257556000D02*
X384914000Y-266192000D01*
X342730000Y-245973000D02*
X354313000Y-257556000D01*
X239776000Y-175006000D02*
X237490000Y-172720000D01*
%TO.N,BUS3*%
X352281000Y-258064000D02*
X374246000Y-258064000D01*
X236218592Y-175260000D02*
X267343613Y-206385021D01*
X374246000Y-258064000D02*
X384914000Y-268732000D01*
X340190000Y-245973000D02*
X352281000Y-258064000D01*
X233934000Y-175260000D02*
X236218592Y-175260000D01*
X294121021Y-206385021D02*
X299331000Y-211595000D01*
X267343613Y-206385021D02*
X294121021Y-206385021D01*
%TO.N,BUS4*%
X292030531Y-206834531D02*
X267157419Y-206834531D01*
X267157419Y-206834531D02*
X238122888Y-177800000D01*
X296791000Y-211595000D02*
X292030531Y-206834531D01*
X337650000Y-245973000D02*
X350249000Y-258572000D01*
X350249000Y-258572000D02*
X372214000Y-258572000D01*
X372214000Y-258572000D02*
X384914000Y-271272000D01*
X238122888Y-177800000D02*
X233934000Y-177800000D01*
%TO.N,BUS5*%
X348217000Y-259080000D02*
X335110000Y-245973000D01*
X384914000Y-273812000D02*
X370182000Y-259080000D01*
X240027184Y-180340000D02*
X266971226Y-207284042D01*
X233934000Y-180340000D02*
X240027184Y-180340000D01*
X266971226Y-207284042D02*
X289940042Y-207284042D01*
X289940042Y-207284042D02*
X294251000Y-211595000D01*
X370182000Y-259080000D02*
X348217000Y-259080000D01*
%TO.N,BUS6*%
X291711000Y-211595000D02*
X287888000Y-207772000D01*
X346185000Y-259588000D02*
X368150000Y-259588000D01*
X332570000Y-245973000D02*
X346185000Y-259588000D01*
X266700000Y-207772000D02*
X241808000Y-182880000D01*
X368150000Y-259588000D02*
X384914000Y-276352000D01*
X241808000Y-182880000D02*
X233934000Y-182880000D01*
X287888000Y-207772000D02*
X266700000Y-207772000D01*
%TO.N,BUS7*%
X285856000Y-208280000D02*
X289171000Y-211595000D01*
X366059510Y-260037510D02*
X344094510Y-260037510D01*
X233934000Y-185420000D02*
X236474000Y-185420000D01*
X243586000Y-185420000D02*
X266446000Y-208280000D01*
X236474000Y-185420000D02*
X243586000Y-185420000D01*
X344094510Y-260037510D02*
X330030000Y-245973000D01*
X384914000Y-278892000D02*
X366059510Y-260037510D01*
X266446000Y-208280000D02*
X285856000Y-208280000D01*
%TO.N,A15*%
X337058000Y-233542440D02*
X337058000Y-231648000D01*
X333618440Y-236982000D02*
X337058000Y-233542440D01*
X289390000Y-245973000D02*
X298381000Y-236982000D01*
X298381000Y-236982000D02*
X333618440Y-236982000D01*
%TO.N,A14*%
X337820000Y-233416144D02*
X337820000Y-230886000D01*
X300471490Y-237431510D02*
X333804634Y-237431510D01*
X333804634Y-237431510D02*
X337820000Y-233416144D01*
X291930000Y-245973000D02*
X300471490Y-237431510D01*
%TO.N,A13*%
X302561979Y-237881021D02*
X333990827Y-237881021D01*
X333990827Y-237881021D02*
X338582000Y-233289848D01*
X294470000Y-245973000D02*
X302561979Y-237881021D01*
X338582000Y-233289848D02*
X338582000Y-230124000D01*
%TO.N,A12*%
X304652469Y-238330531D02*
X334177021Y-238330531D01*
X334177021Y-238330531D02*
X339344000Y-233163552D01*
X297010000Y-245973000D02*
X304652469Y-238330531D01*
X339344000Y-233163552D02*
X339344000Y-229362000D01*
%TO.N,A11*%
X299550000Y-245973000D02*
X306684468Y-238838532D01*
X340106000Y-233037256D02*
X340106000Y-228600000D01*
X334304724Y-238838532D02*
X340106000Y-233037256D01*
X306684468Y-238838532D02*
X334304724Y-238838532D01*
%TO.N,A10*%
X308774958Y-239288042D02*
X334490918Y-239288042D01*
X334490918Y-239288042D02*
X340868000Y-232910960D01*
X302090000Y-245973000D02*
X308774958Y-239288042D01*
X340868000Y-232910960D02*
X340868000Y-227838000D01*
%TO.N,A9*%
X341630000Y-232784664D02*
X341630000Y-227076000D01*
X334677111Y-239737553D02*
X341630000Y-232784664D01*
X310865447Y-239737553D02*
X334677111Y-239737553D01*
X304630000Y-245973000D02*
X310865447Y-239737553D01*
%TO.N,A8*%
X342392000Y-232658368D02*
X342392000Y-226314000D01*
X294112404Y-256753912D02*
X269779490Y-256753912D01*
X307170000Y-245973000D02*
X296465978Y-256677022D01*
X294561682Y-256677022D02*
X294503193Y-256735511D01*
X296465978Y-256677022D02*
X294561682Y-256677022D01*
X334863305Y-240187063D02*
X342392000Y-232658368D01*
X269779490Y-256753912D02*
X268092701Y-258440701D01*
X307170000Y-245973000D02*
X312955937Y-240187063D01*
X312955937Y-240187063D02*
X334863305Y-240187063D01*
X247396000Y-246126000D02*
X239771500Y-246126000D01*
X294503193Y-256735511D02*
X294130806Y-256735510D01*
X294130806Y-256735510D02*
X294112404Y-256753912D01*
%TO.N,A7*%
X315046426Y-240636574D02*
X335049498Y-240636574D01*
X309710000Y-245973000D02*
X315046426Y-240636574D01*
X293926210Y-257203422D02*
X270354577Y-257203423D01*
X247396000Y-248666000D02*
X239771500Y-248666000D01*
X270354577Y-257203423D02*
X268224000Y-259334000D01*
X335049498Y-240636574D02*
X343154000Y-232532072D01*
X309710000Y-245973000D02*
X298497978Y-257185022D01*
X268224000Y-259334000D02*
X267462000Y-259334000D01*
X294298597Y-257203423D02*
X293926210Y-257203422D01*
X298497978Y-257185022D02*
X294316999Y-257185021D01*
X343154000Y-232532072D02*
X343154000Y-225552000D01*
X294316999Y-257185021D02*
X294298597Y-257203423D01*
%TO.N,A6*%
X300588467Y-257634533D02*
X312250000Y-245973000D01*
X312250000Y-245973000D02*
X317136916Y-241086084D01*
X268222592Y-260096000D02*
X270665658Y-257652934D01*
X294503191Y-257634533D02*
X300588467Y-257634533D01*
X270665658Y-257652934D02*
X294484791Y-257652933D01*
X266700000Y-260096000D02*
X268222592Y-260096000D01*
X317136916Y-241086084D02*
X335235692Y-241086084D01*
X239771500Y-251206000D02*
X247396000Y-251206000D01*
X343916000Y-232405776D02*
X343916000Y-224790000D01*
X335235692Y-241086084D02*
X343916000Y-232405776D01*
X294484791Y-257652933D02*
X294503191Y-257634533D01*
%TO.N,A5*%
X302678956Y-258084044D02*
X294689384Y-258084044D01*
X319227405Y-241535595D02*
X335421885Y-241535595D01*
X344678000Y-232279480D02*
X344678000Y-224028000D01*
X247396000Y-253746000D02*
X239771500Y-253746000D01*
X314790000Y-245973000D02*
X319227405Y-241535595D01*
X314790000Y-245973000D02*
X302678956Y-258084044D01*
X294689384Y-258084044D02*
X294670984Y-258102444D01*
X294670984Y-258102444D02*
X270851851Y-258102445D01*
X268096296Y-260858000D02*
X265938000Y-260858000D01*
X335421885Y-241535595D02*
X344678000Y-232279480D01*
X270851851Y-258102445D02*
X268096296Y-260858000D01*
%TO.N,A4*%
X271038044Y-258551956D02*
X271543228Y-258551956D01*
X239771500Y-256286000D02*
X247396000Y-256286000D01*
X294875578Y-258533554D02*
X304769446Y-258533554D01*
X271543228Y-258551956D02*
X294857178Y-258551954D01*
X304769446Y-258533554D02*
X317330000Y-245973000D01*
X345440000Y-232153184D02*
X345440000Y-223266000D01*
X294857178Y-258551954D02*
X294875578Y-258533554D01*
X335608078Y-241985106D02*
X345440000Y-232153184D01*
X317330000Y-245973000D02*
X321317894Y-241985106D01*
X321317894Y-241985106D02*
X335608078Y-241985106D01*
X265176000Y-261620000D02*
X267970000Y-261620000D01*
X267970000Y-261620000D02*
X271038044Y-258551956D01*
%TO.N,A3*%
X319870000Y-245973000D02*
X323408384Y-242434616D01*
X247396000Y-258826000D02*
X239771500Y-258826000D01*
X323408384Y-242434616D02*
X335794272Y-242434616D01*
X271350533Y-259001467D02*
X267970000Y-262382000D01*
X267970000Y-262382000D02*
X264414000Y-262382000D01*
X335794272Y-242434616D02*
X346202000Y-232026888D01*
X346202000Y-232026888D02*
X346202000Y-222504000D01*
X306859935Y-258983065D02*
X295061772Y-258983064D01*
X319870000Y-245973000D02*
X306859935Y-258983065D01*
X295043371Y-259001465D02*
X271350533Y-259001467D01*
X295061772Y-258983064D02*
X295043371Y-259001465D01*
%TO.N,A2*%
X322410000Y-245973000D02*
X325498872Y-242884128D01*
X267970000Y-263144000D02*
X271663022Y-259450978D01*
X335980464Y-242884128D02*
X346964000Y-231900592D01*
X346964000Y-231900592D02*
X346964000Y-221742000D01*
X325498872Y-242884128D02*
X335980464Y-242884128D01*
X295247965Y-259432575D02*
X308950425Y-259432575D01*
X271663022Y-259450978D02*
X271915614Y-259450978D01*
X295229565Y-259450975D02*
X295247965Y-259432575D01*
X271915614Y-259450978D02*
X295229565Y-259450975D01*
X263652000Y-263144000D02*
X267970000Y-263144000D01*
X308950425Y-259432575D02*
X322410000Y-245973000D01*
X239771500Y-261366000D02*
X247396000Y-261366000D01*
%TO.N,A1*%
X267970000Y-263906000D02*
X262890000Y-263906000D01*
X295415758Y-259900486D02*
X271975511Y-259900489D01*
X347726000Y-231774296D02*
X347726000Y-220980000D01*
X327589361Y-243333639D02*
X336166657Y-243333639D01*
X324950000Y-245973000D02*
X327589361Y-243333639D01*
X324950000Y-245973000D02*
X311022514Y-259900486D01*
X247396000Y-263906000D02*
X239771500Y-263906000D01*
X271975511Y-259900489D02*
X267970000Y-263906000D01*
X336166657Y-243333639D02*
X347726000Y-231774296D01*
X311022514Y-259900486D02*
X295415758Y-259900486D01*
%TO.N,A0*%
X336352851Y-243783149D02*
X348488000Y-231648000D01*
X295601952Y-260349996D02*
X313113004Y-260349996D01*
X348488000Y-231648000D02*
X348488000Y-220218000D01*
X327490000Y-245973000D02*
X329679851Y-243783149D01*
X239771500Y-266446000D02*
X247396000Y-266446000D01*
X267716000Y-264922000D02*
X272288000Y-260350000D01*
X313113004Y-260349996D02*
X327490000Y-245973000D01*
X272288000Y-260350000D02*
X295601952Y-260349996D01*
X329679851Y-243783149D02*
X336352851Y-243783149D01*
X262128000Y-264922000D02*
X267716000Y-264922000D01*
%TO.N,~{MEM_WRITE}*%
X359918000Y-291084000D02*
X355600000Y-286766000D01*
X355600000Y-286766000D02*
X355600000Y-265938000D01*
%TO.N,~{MEM_READ}*%
X350616232Y-284322232D02*
X350616232Y-262895124D01*
X350616232Y-262895124D02*
X352098977Y-261412379D01*
X357378000Y-291084000D02*
X350616232Y-284322232D01*
%TO.N,~{FLAGS_OUT}*%
X328422000Y-185674000D02*
X328422000Y-171313000D01*
X328422000Y-171313000D02*
X327152000Y-170043000D01*
%TO.N,RESTORE_FLAGS*%
X340242000Y-204842000D02*
X340242000Y-211504000D01*
X342900000Y-202184000D02*
X340242000Y-204842000D01*
X347472000Y-170043000D02*
X346202000Y-171313000D01*
X346202000Y-171313000D02*
X346202000Y-175260000D01*
X342900000Y-178562000D02*
X342900000Y-202184000D01*
X346202000Y-175260000D02*
X342900000Y-178562000D01*
%TO.N,JCC_ADR3*%
X311364000Y-202946000D02*
X319922000Y-211504000D01*
X274574000Y-202946000D02*
X311364000Y-202946000D01*
X256540000Y-167640000D02*
X253746000Y-170434000D01*
X261112000Y-170043000D02*
X258709000Y-167640000D01*
X253746000Y-182118000D02*
X274574000Y-202946000D01*
X258709000Y-167640000D02*
X256540000Y-167640000D01*
X253746000Y-170434000D02*
X253746000Y-182118000D01*
%TO.N,JCC_ADR2*%
X260741000Y-167132000D02*
X263652000Y-170043000D01*
X274387806Y-203395510D02*
X253296489Y-182304193D01*
X309273510Y-203395510D02*
X274387806Y-203395510D01*
X256286000Y-167132000D02*
X260741000Y-167132000D01*
X253296489Y-182304193D02*
X253296489Y-170121511D01*
X317382000Y-211504000D02*
X309273510Y-203395510D01*
X253296489Y-170121511D02*
X256286000Y-167132000D01*
%TO.N,JCC_ADR1*%
X252846979Y-182490387D02*
X274201613Y-203845021D01*
X256099806Y-166682490D02*
X252846978Y-169935318D01*
X274201613Y-203845021D02*
X307183021Y-203845021D01*
X252846978Y-169935318D02*
X252846979Y-182490387D01*
X262831490Y-166682490D02*
X256099806Y-166682490D01*
X307183021Y-203845021D02*
X314842000Y-211504000D01*
X266192000Y-170043000D02*
X262831490Y-166682490D01*
%TO.N,JCC_ADR0*%
X252397467Y-169749125D02*
X252397469Y-182676581D01*
X252397469Y-182676581D02*
X274015420Y-204294532D01*
X305092532Y-204294532D02*
X312302000Y-211504000D01*
X264921980Y-166232980D02*
X255913612Y-166232980D01*
X255913612Y-166232980D02*
X252397467Y-169749125D01*
X268732000Y-170043000D02*
X264921980Y-166232980D01*
X274015420Y-204294532D02*
X305092532Y-204294532D01*
%TO.N,\u03BCB7*%
X302102011Y-108362011D02*
X261053151Y-108362011D01*
X304360000Y-110620000D02*
X302102011Y-108362011D01*
%TO.N,~{LD_IR}*%
X350080000Y-110620000D02*
X340812000Y-119888000D01*
X290322000Y-119888000D02*
X275336000Y-134874000D01*
X275336000Y-155194000D02*
X281178000Y-161036000D01*
X281178000Y-161036000D02*
X284988000Y-161036000D01*
X275336000Y-134874000D02*
X275336000Y-155194000D01*
X340812000Y-119888000D02*
X290322000Y-119888000D01*
%TO.N,~{INT_REQUEST}*%
X325882000Y-180340000D02*
X325882000Y-168402000D01*
X321270000Y-191513000D02*
X321270000Y-184952000D01*
X321270000Y-184952000D02*
X322834000Y-183388000D01*
X322834000Y-183388000D02*
X325882000Y-180340000D01*
X352620000Y-110620000D02*
X333192000Y-130048000D01*
X333192000Y-130048000D02*
X332994000Y-130048000D01*
%TO.N,~{RESET_STEP}*%
X355160000Y-110620000D02*
X351728000Y-107188000D01*
X260350000Y-107188000D02*
X258572000Y-108966000D01*
X258572000Y-108966000D02*
X258572000Y-110998001D01*
X351728000Y-107188000D02*
X260350000Y-107188000D01*
%TO.N,~{IO_REQUEST}*%
X372110000Y-251714000D02*
X372110000Y-172592296D01*
X372110000Y-172592296D02*
X366395704Y-166878000D01*
X366395704Y-166878000D02*
X315722000Y-166878000D01*
%TO.N,~{IO_READ}*%
X313177701Y-165358299D02*
X366147411Y-165358299D01*
X373596500Y-172807388D02*
X373596500Y-250123995D01*
X366147411Y-165358299D02*
X373596500Y-172807388D01*
%TO.N,~{IO_WRITE}*%
X372872000Y-172718592D02*
X372872000Y-250952000D01*
X366269408Y-166116000D02*
X372872000Y-172718592D01*
X314452000Y-166116000D02*
X366269408Y-166116000D01*
%TO.N,~{IO_MEM_REQUEST}*%
X366522000Y-167640000D02*
X371348000Y-172466000D01*
X371348000Y-172466000D02*
X371348000Y-252476000D01*
X316992000Y-167640000D02*
X366522000Y-167640000D01*
%TO.N,~{RD2}*%
X257631266Y-165423636D02*
X255994501Y-165423636D01*
X258734310Y-164320592D02*
X257631266Y-165423636D01*
X296740000Y-110620000D02*
X293001511Y-114358489D01*
X271272000Y-172583000D02*
X270002000Y-173853000D01*
X293001511Y-114358489D02*
X286833806Y-114358490D01*
X286833806Y-114358490D02*
X258734310Y-142457986D01*
X270002000Y-173853000D02*
X270002000Y-175260000D01*
X258734310Y-142457986D02*
X258734310Y-164320592D01*
%TO.N,~{RD3}*%
X294200000Y-110620000D02*
X290911022Y-113908978D01*
X286647612Y-113908980D02*
X258284799Y-142271793D01*
X258284799Y-142271793D02*
X258284800Y-164134398D01*
X257822899Y-164596299D02*
X256798301Y-164596299D01*
X290911022Y-113908978D02*
X286647612Y-113908980D01*
X258284800Y-164134398D02*
X257822899Y-164596299D01*
%TO.N,\u03BCRD0*%
X281041000Y-183134000D02*
X262293280Y-183134000D01*
X262293280Y-183134000D02*
X262013377Y-182854097D01*
X291592000Y-172583000D02*
X281041000Y-183134000D01*
%TO.N,\u03BCRD1*%
X279250661Y-182384339D02*
X263118839Y-182384339D01*
X289052000Y-172583000D02*
X279250661Y-182384339D01*
%TO.N,\u03BCRD2*%
X286512000Y-172583000D02*
X277485000Y-181610000D01*
X277485000Y-181610000D02*
X264197500Y-181610000D01*
X264197500Y-181610000D02*
X264160000Y-181647500D01*
%TO.N,\u03BCRD3*%
X265213500Y-180848000D02*
X265176000Y-180885500D01*
X275707000Y-180848000D02*
X265213500Y-180848000D01*
X283972000Y-172583000D02*
X275707000Y-180848000D01*
%TO.N,~{RD4}*%
X291660000Y-110620000D02*
X288820532Y-113459468D01*
X257560299Y-142360589D02*
X257560299Y-163834299D01*
X288820532Y-113459468D02*
X286461418Y-113459470D01*
X286461418Y-113459470D02*
X257560299Y-142360589D01*
%TO.N,~{WR2}*%
X337380000Y-110620000D02*
X328561511Y-119438489D01*
X290135806Y-119438490D02*
X274886489Y-134687807D01*
X274886489Y-134687807D02*
X274886490Y-155380194D01*
X275844000Y-156337704D02*
X275844000Y-157734000D01*
X328561511Y-119438489D02*
X290135806Y-119438490D01*
X274886490Y-155380194D02*
X275844000Y-156337704D01*
%TO.N,\u03BCWR0*%
X280162000Y-167894000D02*
X273987468Y-161719468D01*
X289763419Y-118539469D02*
X314220531Y-118539469D01*
X280162000Y-171313000D02*
X280162000Y-167894000D01*
X273987468Y-134315420D02*
X289763419Y-118539469D01*
X281432000Y-172583000D02*
X280162000Y-171313000D01*
X281432000Y-172583000D02*
X273891500Y-180123500D01*
X273987468Y-161719468D02*
X273987468Y-134315420D01*
X273891500Y-180123500D02*
X266192000Y-180123500D01*
X314220531Y-118539469D02*
X322140000Y-110620000D01*
%TO.N,\u03BCWR1*%
X319600000Y-110620000D02*
X312130041Y-118089959D01*
X277622000Y-165989704D02*
X277622000Y-171313000D01*
X278892000Y-172583000D02*
X272151000Y-179324000D01*
X272151000Y-179324000D02*
X267208000Y-179324000D01*
X312130041Y-118089959D02*
X289577225Y-118089959D01*
X277622000Y-171313000D02*
X278892000Y-172583000D01*
X289577225Y-118089959D02*
X273537957Y-134129227D01*
X273537958Y-161905662D02*
X277622000Y-165989704D01*
X273537957Y-134129227D02*
X273537958Y-161905662D01*
%TO.N,\u03BCWR2*%
X270156499Y-178778501D02*
X268430909Y-178778501D01*
X276352000Y-172583000D02*
X275140489Y-171371489D01*
X310039552Y-117640448D02*
X317060000Y-110620000D01*
X275140489Y-171371489D02*
X275140489Y-164143897D01*
X268430909Y-178778501D02*
X268218468Y-178566060D01*
X273088447Y-162091855D02*
X273088447Y-133943033D01*
X273088447Y-133943033D02*
X289391032Y-117640448D01*
X289391032Y-117640448D02*
X310039552Y-117640448D01*
X276352000Y-172583000D02*
X270156499Y-178778501D01*
X275140489Y-164143897D02*
X273088447Y-162091855D01*
%TO.N,~{CODE_SEG_IN}*%
X320548000Y-279654000D02*
X320548000Y-278892000D01*
X331978000Y-291084000D02*
X320548000Y-279654000D01*
%TO.N,~{DATA_SEG_IN}*%
X334255400Y-291084000D02*
X321047400Y-277876000D01*
X334518000Y-291084000D02*
X334255400Y-291084000D01*
X318787456Y-277876000D02*
X317500000Y-279163456D01*
X321047400Y-277876000D02*
X318787456Y-277876000D01*
%TO.N,~{STACK_SEG_IN}*%
X337058000Y-291084000D02*
X337058000Y-290576000D01*
X325628000Y-279146000D02*
X323342000Y-279146000D01*
X337058000Y-290576000D02*
X325628000Y-279146000D01*
%TO.N,~{CODE_SEG_OUT}*%
X328168000Y-277114000D02*
X318159216Y-277114000D01*
X318159216Y-277114000D02*
X316677166Y-278596050D01*
X342138000Y-291084000D02*
X328168000Y-277114000D01*
%TO.N,~{DATA_SEG_OUT}*%
X332063827Y-278469827D02*
X332063827Y-277151500D01*
X344678000Y-291084000D02*
X332063827Y-278469827D01*
%TO.N,~{STACK_SEG_OUT}*%
X335026000Y-279146000D02*
X335280000Y-279146000D01*
X335280000Y-279146000D02*
X347218000Y-291084000D01*
%TO.N,~{CODE_SEG_EN}*%
X349758000Y-291084000D02*
X349241400Y-291084000D01*
X334584399Y-276426999D02*
X317420551Y-276426999D01*
X317420551Y-276426999D02*
X315976000Y-277871550D01*
X349241400Y-291084000D02*
X334584399Y-276426999D01*
%TO.N,~{DATA_SEG_EN}*%
X352298000Y-291084000D02*
X337566000Y-276352000D01*
X337566000Y-276352000D02*
X336042000Y-276352000D01*
%TO.N,~{STACK_SEG_EN}*%
X354838000Y-291084000D02*
X340106000Y-276352000D01*
X340106000Y-276352000D02*
X339090000Y-276352000D01*
%TO.N,~{FLAGS_IN}*%
X343662000Y-171313000D02*
X343662000Y-175260000D01*
X340360000Y-178562000D02*
X340360000Y-202946000D01*
X340360000Y-202946000D02*
X337702000Y-205604000D01*
X343662000Y-175260000D02*
X340360000Y-178562000D01*
X344932000Y-170043000D02*
X343662000Y-171313000D01*
X337702000Y-205604000D02*
X337702000Y-211504000D01*
%TO.N,~{WR2_12}*%
X384810000Y-164846000D02*
X384556000Y-164592000D01*
X384556000Y-164592000D02*
X345186000Y-164592000D01*
%TO.N,~{WR2_13}*%
X383286000Y-163830000D02*
X384810000Y-162306000D01*
X343154000Y-163830000D02*
X383286000Y-163830000D01*
%TO.N,~{WR2_14}*%
X384810000Y-159766000D02*
X381508000Y-163068000D01*
X381508000Y-163068000D02*
X342039656Y-163068000D01*
X341791977Y-163109032D02*
X341516987Y-163384022D01*
X341998623Y-163109033D02*
X341791977Y-163109032D01*
X342039656Y-163068000D02*
X341998623Y-163109033D01*
%TO.N,~{WR2_15}*%
X342087420Y-162384532D02*
X341812430Y-162659522D01*
X341812430Y-162659522D02*
X340106000Y-162659522D01*
X379651468Y-162384532D02*
X342087420Y-162384532D01*
X384810000Y-157226000D02*
X379651468Y-162384532D01*
%TO.N,~{INT_HNDLR_EN}*%
X323437489Y-171217511D02*
X323437489Y-181006511D01*
X323437489Y-181006511D02*
X319786000Y-184658000D01*
X324612000Y-170043000D02*
X323437489Y-171217511D01*
%TO.N,~{INT_HNDLR_READ}*%
X318262000Y-169418000D02*
X319024000Y-168656000D01*
X316190000Y-180126000D02*
X318262000Y-178054000D01*
X318262000Y-178054000D02*
X318262000Y-169418000D01*
X316190000Y-191513000D02*
X316190000Y-180126000D01*
X320685000Y-168656000D02*
X322072000Y-170043000D01*
X319024000Y-168656000D02*
X320685000Y-168656000D01*
%TO.N,~{INT_HNDLR_WRITE}*%
X319532000Y-170043000D02*
X320802000Y-171313000D01*
X318730000Y-180380000D02*
X318730000Y-191513000D01*
X320802000Y-178308000D02*
X318730000Y-180380000D01*
X320802000Y-171313000D02*
X320802000Y-178308000D01*
%TO.N,INT_HNDLR_REG_SEL*%
X315817489Y-171217511D02*
X315817489Y-178212511D01*
X313650000Y-180380000D02*
X313650000Y-191513000D01*
X316992000Y-170043000D02*
X315817489Y-171217511D01*
X315817489Y-178212511D02*
X313650000Y-180380000D01*
%TO.N,~{RD4_6}*%
X314060978Y-161935022D02*
X309372000Y-166624000D01*
X377560979Y-161935021D02*
X314060978Y-161935022D01*
X384810000Y-154686000D02*
X377560979Y-161935021D01*
X309372000Y-166624000D02*
X309372000Y-170043000D01*
%TO.N,~{RD4_7}*%
X306832000Y-167132000D02*
X312478489Y-161485511D01*
X375470489Y-161485511D02*
X384810000Y-152146000D01*
X306832000Y-170043000D02*
X306832000Y-167132000D01*
X312478489Y-161485511D02*
X375470489Y-161485511D01*
%TO.N,~{RD4_8}*%
X373380000Y-161036000D02*
X310388000Y-161036000D01*
X304292000Y-167132000D02*
X304292000Y-170043000D01*
X384810000Y-149606000D02*
X373380000Y-161036000D01*
X310388000Y-161036000D02*
X304292000Y-167132000D01*
%TO.N,~{RD4_9}*%
X371348000Y-160528000D02*
X384810000Y-147066000D01*
X308356000Y-160528000D02*
X371348000Y-160528000D01*
X301752000Y-170043000D02*
X301752000Y-167132000D01*
X301752000Y-167132000D02*
X308356000Y-160528000D01*
%TO.N,~{RD4_10}*%
X369316000Y-160020000D02*
X306578000Y-160020000D01*
X299212000Y-167386000D02*
X299212000Y-170043000D01*
X306578000Y-160020000D02*
X299212000Y-167386000D01*
X384810000Y-144526000D02*
X369316000Y-160020000D01*
%TO.N,~{RD4_11}*%
X367284000Y-159512000D02*
X384810000Y-141986000D01*
X296672000Y-167386000D02*
X304546000Y-159512000D01*
X304546000Y-159512000D02*
X367284000Y-159512000D01*
X296672000Y-170043000D02*
X296672000Y-167386000D01*
%TO.N,~{RD4_12}*%
X365252000Y-159004000D02*
X302768000Y-159004000D01*
X302768000Y-159004000D02*
X294132000Y-167640000D01*
X294132000Y-167640000D02*
X294132000Y-170043000D01*
X384810000Y-139446000D02*
X365252000Y-159004000D01*
%TO.N,~{RD4_13}*%
X300736000Y-158496000D02*
X363220000Y-158496000D01*
X363220000Y-158496000D02*
X384810000Y-136906000D01*
X291592000Y-170043000D02*
X291592000Y-167640000D01*
X291592000Y-167640000D02*
X300736000Y-158496000D01*
%TO.N,~{RD4_14}*%
X289052000Y-167640000D02*
X289052000Y-170043000D01*
X361188000Y-157988000D02*
X298704000Y-157988000D01*
X384810000Y-134366000D02*
X361188000Y-157988000D01*
X298704000Y-157988000D02*
X289052000Y-167640000D01*
%TO.N,~{RD4_15}*%
X286512000Y-170043000D02*
X286512000Y-167894000D01*
X296926000Y-157480000D02*
X359156000Y-157480000D01*
X359156000Y-157480000D02*
X384810000Y-131826000D01*
X286512000Y-167894000D02*
X296926000Y-157480000D01*
%TO.N,\u03BCWR3*%
X269023500Y-177371500D02*
X269023500Y-177973667D01*
X289204838Y-117190938D02*
X272521958Y-133873818D01*
X272521958Y-171292958D02*
X273812000Y-172583000D01*
X307949062Y-117190938D02*
X289204838Y-117190938D01*
X272521958Y-133873818D02*
X272521958Y-171292958D01*
X314520000Y-110620000D02*
X307949062Y-117190938D01*
X273812000Y-172583000D02*
X269023500Y-177371500D01*
%TO.N,~{WR3}*%
X274828000Y-202438000D02*
X261112000Y-188722000D01*
X322462000Y-211504000D02*
X313396000Y-202438000D01*
X274436978Y-134501614D02*
X274436979Y-156326979D01*
X261112000Y-188722000D02*
X261112000Y-172583000D01*
X274436979Y-156326979D02*
X275082000Y-156972000D01*
X313396000Y-202438000D02*
X274828000Y-202438000D01*
X289949612Y-118988980D02*
X274436978Y-134501614D01*
X334840000Y-110620000D02*
X326471022Y-118988978D01*
X326471022Y-118988978D02*
X289949612Y-118988980D01*
%TO.N,~{RD1}*%
X269498299Y-135626068D02*
X269498299Y-151642299D01*
X295092000Y-114808000D02*
X290316367Y-114808000D01*
X269498299Y-151642299D02*
X269620999Y-151764999D01*
X290316367Y-114808000D02*
X269498299Y-135626068D01*
X299280000Y-110620000D02*
X295092000Y-114808000D01*
%TO.N,~{RD0}*%
X270256000Y-150876000D02*
X270256000Y-135504072D01*
X295698573Y-116741427D02*
X301820000Y-110620000D01*
X270256000Y-135504072D02*
X289018645Y-116741427D01*
X289018645Y-116741427D02*
X295698573Y-116741427D01*
%TO.N,RESET_CONTROL*%
X360680000Y-137922000D02*
X351028000Y-137922000D01*
X370586000Y-208280000D02*
X370586000Y-173990000D01*
X351028000Y-137922000D02*
X349144000Y-139806000D01*
X299212000Y-125222000D02*
X286766000Y-125222000D01*
X357970000Y-245973000D02*
X357970000Y-220896000D01*
X357970000Y-220896000D02*
X370586000Y-208280000D01*
X349144000Y-139806000D02*
X349144000Y-141493000D01*
%TO.N,~{RESET_CONTROL}*%
X355600000Y-222630296D02*
X369861500Y-208368796D01*
X355600000Y-243078000D02*
X355600000Y-222630296D01*
X259568358Y-108605346D02*
X259568358Y-111489238D01*
X321697511Y-107637511D02*
X260536193Y-107637511D01*
X260536193Y-107637511D02*
X259568358Y-108605346D01*
X345956598Y-120650000D02*
X345825299Y-120781299D01*
X324680000Y-110620000D02*
X321697511Y-107637511D01*
X353314000Y-120650000D02*
X345956598Y-120650000D01*
X369861500Y-208368796D02*
X369861500Y-174821636D01*
%TO.N,/\u03BCA6*%
X270768031Y-101087969D02*
X345559971Y-101087969D01*
X266192000Y-105664000D02*
X270768031Y-101087969D01*
%TO.N,/\u03BCA5*%
X272542000Y-101854000D02*
X346202000Y-101854000D01*
X268732000Y-105664000D02*
X272542000Y-101854000D01*
%TO.N,/\u03BCA4*%
X274574000Y-102616000D02*
X346964000Y-102616000D01*
X271526000Y-105664000D02*
X274574000Y-102616000D01*
%TO.N,/\u03BCB6*%
X306832000Y-106172000D02*
X309663500Y-103340500D01*
X309663500Y-103340500D02*
X347726000Y-103340500D01*
%TO.N,/\u03BCB5*%
X309372000Y-106172000D02*
X311404000Y-104140000D01*
X311404000Y-104140000D02*
X348488000Y-104140000D01*
%TO.N,/\u03BCB4*%
X311912000Y-106172000D02*
X313182000Y-104902000D01*
X313182000Y-104902000D02*
X349250000Y-104902000D01*
%TO.N,/JCC_LD_PC_COND*%
X325002000Y-202810000D02*
X327524511Y-200287489D01*
X325002000Y-211504000D02*
X325002000Y-202810000D01*
X333502000Y-183134000D02*
X333502000Y-176784000D01*
X327524511Y-189111489D02*
X333502000Y-183134000D01*
X327524511Y-200287489D02*
X327524511Y-189111489D01*
%TO.N,~{RD5}*%
X297180000Y-309310000D02*
X294119001Y-306249001D01*
X281744262Y-306249001D02*
X281686000Y-306190739D01*
X294119001Y-306249001D02*
X281744262Y-306249001D01*
%TO.N,~{RD6}*%
X295934500Y-305524500D02*
X282448000Y-305524500D01*
X299720000Y-309310000D02*
X295934500Y-305524500D01*
%TO.N,~{WR4}*%
X312420000Y-309310000D02*
X307402000Y-304292000D01*
X307402000Y-304292000D02*
X279908000Y-304292000D01*
%TO.N,~{RD6_00}*%
X322580000Y-309310000D02*
X321405489Y-310484511D01*
X302556887Y-317246001D02*
X290306398Y-329496490D01*
X321405489Y-313086511D02*
X317245999Y-317246001D01*
X284593510Y-329496490D02*
X281178000Y-332912000D01*
X317245999Y-317246001D02*
X302556887Y-317246001D01*
X321405489Y-310484511D02*
X321405489Y-313086511D01*
X290306398Y-329496490D02*
X284593510Y-329496490D01*
%TO.N,~{RD6_01}*%
X302743081Y-317695511D02*
X290434103Y-330004489D01*
X319336489Y-317695511D02*
X302743081Y-317695511D01*
X286625511Y-330004489D02*
X283718000Y-332912000D01*
X290434103Y-330004489D02*
X286625511Y-330004489D01*
X323850000Y-313182000D02*
X319336489Y-317695511D01*
X323850000Y-310580000D02*
X323850000Y-313182000D01*
X325120000Y-309310000D02*
X323850000Y-310580000D01*
%TO.N,~{RD6_02}*%
X302929276Y-318145020D02*
X290620296Y-330454000D01*
X288716000Y-330454000D02*
X286258000Y-332912000D01*
X321426980Y-318145020D02*
X302929276Y-318145020D01*
X290620296Y-330454000D02*
X288716000Y-330454000D01*
X327660000Y-309310000D02*
X326390000Y-310580000D01*
X326390000Y-313182000D02*
X321426980Y-318145020D01*
X326390000Y-310580000D02*
X326390000Y-313182000D01*
%TO.N,~{RD6_03}*%
X323517470Y-318594530D02*
X303115470Y-318594530D01*
X330200000Y-309310000D02*
X328930000Y-310580000D01*
X303115470Y-318594530D02*
X288798000Y-332912000D01*
X328930000Y-310580000D02*
X328930000Y-313182000D01*
X328930000Y-313182000D02*
X323517470Y-318594530D01*
%TO.N,~{RD6_04}*%
X323908489Y-324299511D02*
X299950489Y-324299511D01*
X332740000Y-309310000D02*
X331470000Y-310580000D01*
X299950489Y-324299511D02*
X291338000Y-332912000D01*
X331470000Y-316738000D02*
X323908489Y-324299511D01*
X331470000Y-310580000D02*
X331470000Y-316738000D01*
%TO.N,~{RD6_05}*%
X335280000Y-309310000D02*
X334010000Y-310580000D01*
X326506979Y-324749021D02*
X302040979Y-324749021D01*
X302040979Y-324749021D02*
X293878000Y-332912000D01*
X334010000Y-317246000D02*
X326506979Y-324749021D01*
X334010000Y-310580000D02*
X334010000Y-317246000D01*
%TO.N,~{RD6_06}*%
X336550000Y-317754000D02*
X329105469Y-325198531D01*
X329105469Y-325198531D02*
X304131469Y-325198531D01*
X337820000Y-309310000D02*
X336550000Y-310580000D01*
X304131469Y-325198531D02*
X296418000Y-332912000D01*
X336550000Y-310580000D02*
X336550000Y-317754000D01*
%TO.N,~{RD6_07}*%
X331703959Y-325648041D02*
X306221959Y-325648041D01*
X340360000Y-309310000D02*
X339090000Y-310580000D01*
X339090000Y-310580000D02*
X339090000Y-318262000D01*
X339090000Y-318262000D02*
X331703959Y-325648041D01*
X306221959Y-325648041D02*
X298958000Y-332912000D01*
%TO.N,~{RD5_00}*%
X271018000Y-332912000D02*
X273259499Y-330670501D01*
X273259499Y-330670501D02*
X275128099Y-330670501D01*
X276751621Y-329046979D02*
X290120205Y-329046979D01*
X290120205Y-329046979D02*
X299720000Y-319447184D01*
X275128099Y-330670501D02*
X276751621Y-329046979D01*
X299720000Y-319447184D02*
X299720000Y-311850000D01*
%TO.N,~{RD6_08}*%
X308312449Y-326097551D02*
X301498000Y-332912000D01*
X342900000Y-309310000D02*
X341630000Y-310580000D01*
X334302449Y-326097551D02*
X308312449Y-326097551D01*
X341630000Y-318770000D02*
X334302449Y-326097551D01*
X341630000Y-310580000D02*
X341630000Y-318770000D01*
%TO.N,~{RD5_01}*%
X297180000Y-311850000D02*
X297180000Y-321351480D01*
X276176531Y-328597469D02*
X274828000Y-329946000D01*
X289934011Y-328597469D02*
X276176531Y-328597469D01*
X297180000Y-321351480D02*
X289934011Y-328597469D01*
%TO.N,~{RD6_09}*%
X345440000Y-309310000D02*
X344170000Y-310580000D01*
X344170000Y-310580000D02*
X344170000Y-319278000D01*
X310402939Y-326547061D02*
X304038000Y-332912000D01*
X336900939Y-326547061D02*
X310402939Y-326547061D01*
X344170000Y-319278000D02*
X336900939Y-326547061D01*
%TO.N,~{RD5_02}*%
X294640000Y-323255776D02*
X289747817Y-328147959D01*
X289747817Y-328147959D02*
X276372989Y-328147958D01*
X276372989Y-328147958D02*
X276098000Y-327872969D01*
X294640000Y-311850000D02*
X294640000Y-323255776D01*
%TO.N,~{RD6_10}*%
X347980000Y-309310000D02*
X346710000Y-310580000D01*
X339499428Y-326996572D02*
X312493428Y-326996572D01*
X312493428Y-326996572D02*
X306578000Y-332912000D01*
X346710000Y-319786000D02*
X339499428Y-326996572D01*
X346710000Y-310580000D02*
X346710000Y-319786000D01*
%TO.N,~{RD5_03}*%
X292100000Y-311850000D02*
X292100000Y-325160072D01*
X289600072Y-327660000D02*
X278874542Y-327660000D01*
X292100000Y-325160072D02*
X289600072Y-327660000D01*
X278874542Y-327660000D02*
X278638000Y-327423458D01*
%TO.N,~{RD6_11}*%
X341843916Y-327446084D02*
X314583916Y-327446084D01*
X314583916Y-327446084D02*
X309118000Y-332912000D01*
X349250000Y-310580000D02*
X349250000Y-320040000D01*
X350520000Y-309310000D02*
X349250000Y-310580000D01*
X349250000Y-320040000D02*
X341843916Y-327446084D01*
%TO.N,~{WR4_00}*%
X289560000Y-311850000D02*
X289560001Y-326643999D01*
%TO.N,~{RD6_12}*%
X353060000Y-309310000D02*
X351790000Y-310580000D01*
X316674404Y-327895596D02*
X311658000Y-332912000D01*
X351790000Y-320294000D02*
X344188404Y-327895596D01*
X344188404Y-327895596D02*
X316674404Y-327895596D01*
X351790000Y-310580000D02*
X351790000Y-320294000D01*
%TO.N,~{WR4_01}*%
X287020000Y-311850000D02*
X287020000Y-325882000D01*
%TO.N,~{RD6_13}*%
X346278892Y-328345108D02*
X318764892Y-328345108D01*
X318764892Y-328345108D02*
X314198000Y-332912000D01*
X354330000Y-310580000D02*
X354330000Y-320294000D01*
X354330000Y-320294000D02*
X346278892Y-328345108D01*
X355600000Y-309310000D02*
X354330000Y-310580000D01*
%TO.N,~{WR4_02}*%
X284480000Y-311850000D02*
X284480000Y-325120000D01*
%TO.N,~{RD6_14}*%
X320855366Y-328794634D02*
X348369366Y-328794634D01*
X356870000Y-310580000D02*
X358078000Y-309372000D01*
X348369366Y-328794634D02*
X356870000Y-320294000D01*
X356870000Y-320294000D02*
X356870000Y-310580000D01*
X316738000Y-332912000D02*
X320855366Y-328794634D01*
%TO.N,~{WR4_03}*%
X281940000Y-311850000D02*
X281940000Y-324358000D01*
%TO.N,~{RD6_15}*%
X350459859Y-329244141D02*
X322945859Y-329244141D01*
X359410000Y-320294000D02*
X350459859Y-329244141D01*
X322945859Y-329244141D02*
X319278000Y-332912000D01*
X360680000Y-309310000D02*
X359410000Y-310580000D01*
X359410000Y-310580000D02*
X359410000Y-320294000D01*
%TO.N,~{WR5}*%
X314960000Y-309310000D02*
X308894746Y-303244746D01*
X308894746Y-303244746D02*
X279885345Y-303244746D01*
%TD*%
M02*
