%TF.GenerationSoftware,KiCad,Pcbnew,(6.0.0-0)*%
%TF.CreationDate,2022-01-13T01:42:20-05:00*%
%TF.ProjectId,ROM-Cartridge-programmer,524f4d2d-4361-4727-9472-696467652d70,rev?*%
%TF.SameCoordinates,Original*%
%TF.FileFunction,Paste,Top*%
%TF.FilePolarity,Positive*%
%FSLAX46Y46*%
G04 Gerber Fmt 4.6, Leading zero omitted, Abs format (unit mm)*
G04 Created by KiCad (PCBNEW (6.0.0-0)) date 2022-01-13 01:42:20*
%MOMM*%
%LPD*%
G01*
G04 APERTURE LIST*
G04 Aperture macros list*
%AMRoundRect*
0 Rectangle with rounded corners*
0 $1 Rounding radius*
0 $2 $3 $4 $5 $6 $7 $8 $9 X,Y pos of 4 corners*
0 Add a 4 corners polygon primitive as box body*
4,1,4,$2,$3,$4,$5,$6,$7,$8,$9,$2,$3,0*
0 Add four circle primitives for the rounded corners*
1,1,$1+$1,$2,$3*
1,1,$1+$1,$4,$5*
1,1,$1+$1,$6,$7*
1,1,$1+$1,$8,$9*
0 Add four rect primitives between the rounded corners*
20,1,$1+$1,$2,$3,$4,$5,0*
20,1,$1+$1,$4,$5,$6,$7,0*
20,1,$1+$1,$6,$7,$8,$9,0*
20,1,$1+$1,$8,$9,$2,$3,0*%
G04 Aperture macros list end*
%ADD10RoundRect,0.250000X0.450000X-0.262500X0.450000X0.262500X-0.450000X0.262500X-0.450000X-0.262500X0*%
%ADD11RoundRect,0.243750X-0.456250X0.243750X-0.456250X-0.243750X0.456250X-0.243750X0.456250X0.243750X0*%
%ADD12RoundRect,0.250000X-0.450000X0.262500X-0.450000X-0.262500X0.450000X-0.262500X0.450000X0.262500X0*%
%ADD13RoundRect,0.150000X-0.825000X-0.150000X0.825000X-0.150000X0.825000X0.150000X-0.825000X0.150000X0*%
%ADD14RoundRect,0.250000X-0.262500X-0.450000X0.262500X-0.450000X0.262500X0.450000X-0.262500X0.450000X0*%
%ADD15RoundRect,0.243750X0.456250X-0.243750X0.456250X0.243750X-0.456250X0.243750X-0.456250X-0.243750X0*%
G04 APERTURE END LIST*
D10*
%TO.C,R4*%
X158242000Y-97432500D03*
X158242000Y-95607500D03*
%TD*%
D11*
%TO.C,D20*%
X123502055Y-79580500D03*
X123502055Y-81455500D03*
%TD*%
D12*
%TO.C,R15*%
X153670000Y-75541500D03*
X153670000Y-77366500D03*
%TD*%
D13*
%TO.C,U1*%
X133796000Y-96393000D03*
X133796000Y-97663000D03*
X133796000Y-98933000D03*
X133796000Y-100203000D03*
X133796000Y-101473000D03*
X133796000Y-102743000D03*
X133796000Y-104013000D03*
X133796000Y-105283000D03*
X138746000Y-105283000D03*
X138746000Y-104013000D03*
X138746000Y-102743000D03*
X138746000Y-101473000D03*
X138746000Y-100203000D03*
X138746000Y-98933000D03*
X138746000Y-97663000D03*
X138746000Y-96393000D03*
%TD*%
D11*
%TO.C,D5*%
X150977600Y-79834500D03*
X150977600Y-81709500D03*
%TD*%
%TO.C,D11*%
X167132000Y-79834500D03*
X167132000Y-81709500D03*
%TD*%
%TO.C,D10*%
X164439600Y-79834500D03*
X164439600Y-81709500D03*
%TD*%
D10*
%TO.C,R37*%
X118110000Y-130706500D03*
X118110000Y-128881500D03*
%TD*%
D11*
%TO.C,D19*%
X120925770Y-79580500D03*
X120925770Y-81455500D03*
%TD*%
D12*
%TO.C,R32*%
X131230910Y-75541500D03*
X131230910Y-77366500D03*
%TD*%
D11*
%TO.C,D8*%
X159054800Y-79834500D03*
X159054800Y-81709500D03*
%TD*%
D12*
%TO.C,R31*%
X128654625Y-75541500D03*
X128654625Y-77366500D03*
%TD*%
%TO.C,R27*%
X118349485Y-75541500D03*
X118349485Y-77366500D03*
%TD*%
D11*
%TO.C,D7*%
X156362400Y-79834500D03*
X156362400Y-81709500D03*
%TD*%
D12*
%TO.C,R24*%
X177901600Y-75541500D03*
X177901600Y-77366500D03*
%TD*%
%TO.C,R14*%
X150977600Y-75541500D03*
X150977600Y-77366500D03*
%TD*%
D11*
%TO.C,D15*%
X177901600Y-79834500D03*
X177901600Y-81709500D03*
%TD*%
D10*
%TO.C,R34*%
X124206000Y-130706500D03*
X124206000Y-128881500D03*
%TD*%
D11*
%TO.C,D16*%
X180594000Y-79834500D03*
X180594000Y-81709500D03*
%TD*%
%TO.C,D23*%
X131230910Y-79580500D03*
X131230910Y-81455500D03*
%TD*%
D14*
%TO.C,R9*%
X194495500Y-118182000D03*
X196320500Y-118182000D03*
%TD*%
D12*
%TO.C,R23*%
X175209200Y-75541500D03*
X175209200Y-77366500D03*
%TD*%
D11*
%TO.C,D14*%
X175209200Y-79834500D03*
X175209200Y-81709500D03*
%TD*%
D12*
%TO.C,R33*%
X133807200Y-75541500D03*
X133807200Y-77366500D03*
%TD*%
D11*
%TO.C,D17*%
X115773200Y-79580500D03*
X115773200Y-81455500D03*
%TD*%
D10*
%TO.C,R2*%
X157734000Y-116586000D03*
X157734000Y-114761000D03*
%TD*%
D11*
%TO.C,D24*%
X133807200Y-79580500D03*
X133807200Y-81455500D03*
%TD*%
D14*
%TO.C,R6*%
X182284000Y-105694000D03*
X184109000Y-105694000D03*
%TD*%
D15*
%TO.C,D28*%
X118110000Y-126667500D03*
X118110000Y-124792500D03*
%TD*%
D10*
%TO.C,R5*%
X137414000Y-116633000D03*
X137414000Y-114808000D03*
%TD*%
D11*
%TO.C,D6*%
X153670000Y-79834500D03*
X153670000Y-81709500D03*
%TD*%
D10*
%TO.C,R3*%
X160274000Y-116633000D03*
X160274000Y-114808000D03*
%TD*%
D11*
%TO.C,D1*%
X140208000Y-79834500D03*
X140208000Y-81709500D03*
%TD*%
D12*
%TO.C,R16*%
X156362400Y-75541500D03*
X156362400Y-77366500D03*
%TD*%
D13*
%TO.C,U2*%
X149925000Y-96393000D03*
X149925000Y-97663000D03*
X149925000Y-98933000D03*
X149925000Y-100203000D03*
X149925000Y-101473000D03*
X149925000Y-102743000D03*
X149925000Y-104013000D03*
X149925000Y-105283000D03*
X154875000Y-105283000D03*
X154875000Y-104013000D03*
X154875000Y-102743000D03*
X154875000Y-101473000D03*
X154875000Y-100203000D03*
X154875000Y-98933000D03*
X154875000Y-97663000D03*
X154875000Y-96393000D03*
%TD*%
D12*
%TO.C,R29*%
X123502055Y-75541500D03*
X123502055Y-77366500D03*
%TD*%
D11*
%TO.C,D9*%
X161747200Y-79834500D03*
X161747200Y-81709500D03*
%TD*%
D15*
%TO.C,D25*%
X124206000Y-126667500D03*
X124206000Y-124792500D03*
%TD*%
D11*
%TO.C,D18*%
X118349485Y-79580500D03*
X118349485Y-81455500D03*
%TD*%
%TO.C,D21*%
X126078340Y-79580500D03*
X126078340Y-81455500D03*
%TD*%
D15*
%TO.C,D27*%
X115062000Y-126667500D03*
X115062000Y-124792500D03*
%TD*%
D12*
%TO.C,R10*%
X140208000Y-75541500D03*
X140208000Y-77366500D03*
%TD*%
D10*
%TO.C,R35*%
X121158000Y-130706500D03*
X121158000Y-128881500D03*
%TD*%
D14*
%TO.C,R7*%
X194015000Y-105392000D03*
X195840000Y-105392000D03*
%TD*%
D12*
%TO.C,R22*%
X172516800Y-75541500D03*
X172516800Y-77366500D03*
%TD*%
%TO.C,R21*%
X169824400Y-75541500D03*
X169824400Y-77366500D03*
%TD*%
D11*
%TO.C,D3*%
X145592800Y-79834500D03*
X145592800Y-81709500D03*
%TD*%
%TO.C,D12*%
X169824400Y-79834500D03*
X169824400Y-81709500D03*
%TD*%
D13*
%TO.C,U3*%
X166054000Y-96393000D03*
X166054000Y-97663000D03*
X166054000Y-98933000D03*
X166054000Y-100203000D03*
X166054000Y-101473000D03*
X166054000Y-102743000D03*
X166054000Y-104013000D03*
X166054000Y-105283000D03*
X171004000Y-105283000D03*
X171004000Y-104013000D03*
X171004000Y-102743000D03*
X171004000Y-101473000D03*
X171004000Y-100203000D03*
X171004000Y-98933000D03*
X171004000Y-97663000D03*
X171004000Y-96393000D03*
%TD*%
D11*
%TO.C,D4*%
X148285200Y-79834500D03*
X148285200Y-81709500D03*
%TD*%
D12*
%TO.C,R20*%
X167132000Y-75541500D03*
X167132000Y-77366500D03*
%TD*%
D11*
%TO.C,D13*%
X172516800Y-79834500D03*
X172516800Y-81709500D03*
%TD*%
D15*
%TO.C,D26*%
X121158000Y-126667500D03*
X121158000Y-124792500D03*
%TD*%
D10*
%TO.C,R1*%
X155194000Y-116633000D03*
X155194000Y-114808000D03*
%TD*%
%TO.C,R36*%
X115062000Y-130706500D03*
X115062000Y-128881500D03*
%TD*%
D14*
%TO.C,R8*%
X182191000Y-118508000D03*
X184016000Y-118508000D03*
%TD*%
D12*
%TO.C,R19*%
X164439600Y-75541500D03*
X164439600Y-77366500D03*
%TD*%
%TO.C,R17*%
X159054800Y-75541500D03*
X159054800Y-77366500D03*
%TD*%
%TO.C,R26*%
X115773200Y-75541500D03*
X115773200Y-77366500D03*
%TD*%
%TO.C,R12*%
X145542000Y-75541500D03*
X145542000Y-77366500D03*
%TD*%
%TO.C,R30*%
X126078340Y-75541500D03*
X126078340Y-77366500D03*
%TD*%
%TO.C,R18*%
X161747200Y-75541500D03*
X161747200Y-77366500D03*
%TD*%
%TO.C,R28*%
X120925770Y-75541500D03*
X120925770Y-77366500D03*
%TD*%
%TO.C,R11*%
X142900400Y-75541500D03*
X142900400Y-77366500D03*
%TD*%
%TO.C,R25*%
X180594000Y-75541500D03*
X180594000Y-77366500D03*
%TD*%
%TO.C,R13*%
X148285200Y-75541500D03*
X148285200Y-77366500D03*
%TD*%
D11*
%TO.C,D22*%
X128654625Y-79580500D03*
X128654625Y-81455500D03*
%TD*%
%TO.C,D2*%
X142900400Y-79834500D03*
X142900400Y-81709500D03*
%TD*%
M02*
