M48
; DRILL file {KiCad (6.0.0-0)} date Wednesday, October 19, 2022 at 10:30:38 PM
; FORMAT={-:-/ absolute / inch / decimal}
; #@! TF.CreationDate,2022-10-19T22:30:38-04:00
; #@! TF.GenerationSoftware,Kicad,Pcbnew,(6.0.0-0)
; #@! TF.FileFunction,Plated,1,2,PTH
FMAT,2
INCH
; #@! TA.AperFunction,Plated,PTH,ViaDrill
T1C0.0157
; #@! TA.AperFunction,Plated,PTH,ComponentDrill
T2C0.0197
; #@! TA.AperFunction,Plated,PTH,ComponentDrill
T3C0.0276
; #@! TA.AperFunction,Plated,PTH,ComponentDrill
T4C0.0394
; #@! TA.AperFunction,Plated,PTH,ComponentDrill
T5C0.1181
%
G90
G05
T1
X2.2045Y-3.811
X2.2645Y-2.551
X2.2953Y-13.4777
X2.3043Y-5.4431
X2.3043Y-6.3436
X2.3043Y-7.2431
X2.3043Y-9.9131
X2.3045Y-2.221
X2.3045Y-10.831
X2.3045Y-15.2873
X2.3053Y-8.1031
X2.3053Y-9.011
X2.3053Y-11.7077
X2.3053Y-12.614
X2.3059Y-14.3877
X2.3145Y-2.671
X2.4035Y-2.6
X2.4045Y-2.311
X2.4145Y-3.061
X2.4245Y-2.661
X2.4445Y-4.321
X2.6245Y-3.201
X2.6445Y-2.871
X2.6645Y-3.221
X2.7045Y-3.251
X2.7145Y-2.601
X2.7445Y-3.611
X2.7445Y-3.861
X2.8945Y-3.061
X3.0145Y-2.711
X3.0279Y-3.1893
X3.0579Y-3.1626
X3.0879Y-3.1344
X3.1214Y-3.061
X3.13Y-2.71
X3.1745Y-2.641
X3.2045Y-3.601
X3.2045Y-3.651
X3.23Y-2.67
X3.2545Y-2.631
X3.3245Y-3.671
X3.4245Y-3.151
X3.4345Y-3.211
X3.4589Y-2.8614
X3.5245Y-2.861
X3.5245Y-3.151
X3.771Y-3.321
X3.8045Y-3.021
X3.8417Y-3.0392
X3.8845Y-3.051
X3.9245Y-3.071
X3.9645Y-3.091
X4.0022Y-3.1033
X4.0445Y-3.121
X4.0845Y-3.141
X4.4845Y-3.331
X4.4932Y-2.841
X4.5324Y-3.6271
X4.6083Y-2.9636
X4.6242Y-2.9996
X4.6425Y-3.0345
X4.6624Y-3.0684
X4.6845Y-3.101
X4.7079Y-3.1347
X4.7173Y-3.5881
X4.7327Y-3.1683
X4.7545Y-3.201
X4.7645Y-3.591
X4.7845Y-3.921
X4.786Y-4.2055
X4.7945Y-3.961
X4.8072Y-3.5939
X4.8245Y-4.261
X4.8345Y-4.151
X4.8429Y-3.5774
X4.8852Y-3.5824
X4.9145Y-11.061
X4.9145Y-11.951
X4.9145Y-12.851
X4.9145Y-14.631
X4.9145Y-15.511
X4.9245Y-3.581
X4.9498Y-13.2256
X4.9537Y-14.0703
X4.9545Y-12.361
X4.9545Y-13.721
X4.9545Y-14.911
X4.9547Y-11.5112
X4.9618Y-3.6093
X4.9946Y-3.6311
X5.0314Y-3.6479
X5.0704Y-3.6529
X5.0845Y-15.721
X5.113Y-14.761
X5.1145Y-3.651
X5.133Y-13.911
X5.1507Y-13.2291
X5.1545Y-3.651
X5.1684Y-12.3597
X5.1835Y-11.5158
X5.1945Y-3.651
X5.2345Y-3.631
X5.2745Y-3.611
X5.2845Y-3.761
X5.3145Y-3.591
X5.3145Y-3.731
X5.3445Y-3.701
X5.3545Y-3.581
X5.3745Y-3.671
X5.3845Y-3.551
X5.4145Y-3.641
X5.5045Y-2.651
X5.6245Y-2.551
T2
X1.9959Y-2.451
X1.9959Y-9.731
X1.9959Y-16.311
X2.0218Y-2.3884
X2.0218Y-2.5136
X2.0218Y-9.6684
X2.0218Y-9.7936
X2.0218Y-16.2484
X2.0218Y-16.3736
X2.0845Y-2.3624
X2.0845Y-2.5396
X2.0845Y-9.6424
X2.0845Y-9.8196
X2.0845Y-16.2224
X2.0845Y-16.3996
X2.1471Y-2.3884
X2.1471Y-2.5136
X2.1471Y-9.6684
X2.1471Y-9.7936
X2.1471Y-16.2484
X2.1471Y-16.3736
X2.1731Y-2.451
X2.1731Y-9.731
X2.1731Y-16.311
X5.7359Y-2.451
X5.7359Y-9.731
X5.7359Y-16.311
X5.7618Y-2.3884
X5.7618Y-2.5136
X5.7618Y-9.6684
X5.7618Y-9.7936
X5.7618Y-16.2484
X5.7618Y-16.3736
X5.8245Y-2.3624
X5.8245Y-2.5396
X5.8245Y-9.6424
X5.8245Y-9.8196
X5.8245Y-16.2224
X5.8245Y-16.3996
X5.8871Y-2.3884
X5.8871Y-2.5136
X5.8871Y-9.6684
X5.8871Y-9.7936
X5.8871Y-16.2484
X5.8871Y-16.3736
X5.9131Y-2.451
X5.9131Y-9.731
X5.9131Y-16.311
T3
X2.2157Y-2.8169
X2.2157Y-2.8957
X2.2157Y-2.9744
X2.2157Y-3.0531
X2.2157Y-3.2106
X2.2157Y-3.2894
X2.2157Y-3.3681
X2.2157Y-3.4469
X2.2157Y-3.5256
X2.2945Y-2.8563
X2.2945Y-2.935
X2.2945Y-3.0138
X2.2945Y-3.1713
X2.2945Y-3.25
X2.2945Y-3.3287
X2.2945Y-3.4075
X2.2945Y-3.4862
X2.2945Y-3.565
X2.3929Y-2.8563
X2.3929Y-2.935
X2.3929Y-3.0138
X2.3929Y-3.1713
X2.3929Y-3.25
X2.3929Y-3.3287
X2.3929Y-3.4075
X2.3929Y-3.4862
X2.3929Y-3.565
X2.4717Y-2.8169
X2.4717Y-2.8957
X2.4717Y-2.9744
X2.4717Y-3.0531
X2.4717Y-3.2106
X2.4717Y-3.2894
X2.4717Y-3.3681
X2.4717Y-3.4469
X2.4717Y-3.5256
T4
X2.0445Y-11.181
X2.0445Y-12.061
X2.0445Y-12.961
X2.0445Y-13.841
X2.0445Y-14.741
X2.0445Y-15.631
X2.0451Y-4.07
X2.0545Y-2.1242
X2.1445Y-11.181
X2.1445Y-12.061
X2.1445Y-12.961
X2.1445Y-13.841
X2.1445Y-14.741
X2.1445Y-15.631
X2.1451Y-4.07
X2.1545Y-2.1242
X2.2445Y-11.181
X2.2445Y-12.061
X2.2445Y-12.961
X2.2445Y-13.841
X2.2445Y-14.741
X2.2445Y-15.631
X2.2451Y-4.07
X2.2455Y-4.941
X2.2455Y-5.8
X2.2455Y-6.691
X2.2455Y-7.581
X2.2455Y-8.471
X2.2455Y-9.361
X2.2455Y-10.261
X2.2545Y-2.1242
X2.3445Y-11.181
X2.3445Y-12.061
X2.3445Y-12.961
X2.3445Y-13.841
X2.3445Y-14.741
X2.3445Y-15.631
X2.3451Y-4.07
X2.3455Y-4.941
X2.3455Y-5.8
X2.3455Y-6.691
X2.3455Y-7.581
X2.3455Y-8.471
X2.3455Y-9.361
X2.3455Y-10.261
X2.3545Y-2.1242
X2.4445Y-11.181
X2.4445Y-12.061
X2.4445Y-12.961
X2.4445Y-13.841
X2.4445Y-14.741
X2.4445Y-15.631
X2.4451Y-4.07
X2.4455Y-4.941
X2.4455Y-5.8
X2.4455Y-6.691
X2.4455Y-7.581
X2.4455Y-8.471
X2.4455Y-9.361
X2.4455Y-10.261
X2.4545Y-2.1242
X2.5445Y-11.181
X2.5445Y-12.061
X2.5445Y-12.961
X2.5445Y-13.841
X2.5445Y-14.741
X2.5445Y-15.631
X2.5451Y-4.07
X2.5455Y-4.941
X2.5455Y-5.8
X2.5455Y-6.691
X2.5455Y-7.581
X2.5455Y-8.471
X2.5455Y-9.361
X2.5455Y-10.261
X2.5545Y-2.1242
X2.6445Y-11.181
X2.6445Y-12.061
X2.6445Y-12.961
X2.6445Y-13.841
X2.6445Y-14.741
X2.6445Y-15.631
X2.6451Y-4.07
X2.6455Y-4.941
X2.6455Y-5.8
X2.6455Y-6.691
X2.6455Y-7.581
X2.6455Y-8.471
X2.6455Y-9.361
X2.6455Y-10.261
X2.6545Y-2.1242
X2.7445Y-11.181
X2.7445Y-12.061
X2.7445Y-12.961
X2.7445Y-13.841
X2.7445Y-14.741
X2.7445Y-15.631
X2.7451Y-4.07
X2.7455Y-4.941
X2.7455Y-5.8
X2.7455Y-6.691
X2.7455Y-7.581
X2.7455Y-8.471
X2.7455Y-9.361
X2.7455Y-10.261
X2.7545Y-2.1242
X2.8445Y-11.181
X2.8445Y-12.061
X2.8445Y-12.961
X2.8445Y-13.841
X2.8445Y-14.741
X2.8445Y-15.631
X2.8451Y-4.07
X2.8455Y-4.941
X2.8455Y-5.8
X2.8455Y-6.691
X2.8455Y-7.581
X2.8455Y-8.471
X2.8455Y-9.361
X2.8455Y-10.261
X2.8545Y-2.1242
X2.9445Y-11.181
X2.9445Y-12.061
X2.9445Y-12.961
X2.9445Y-13.841
X2.9445Y-14.741
X2.9445Y-15.631
X2.9451Y-4.07
X2.9455Y-4.941
X2.9455Y-5.8
X2.9455Y-6.691
X2.9455Y-7.581
X2.9455Y-8.471
X2.9455Y-9.361
X2.9455Y-10.261
X2.9545Y-2.1242
X3.0445Y-11.181
X3.0445Y-12.061
X3.0445Y-12.961
X3.0445Y-13.841
X3.0445Y-14.741
X3.0445Y-15.631
X3.0451Y-4.07
X3.0455Y-4.941
X3.0455Y-5.8
X3.0455Y-6.691
X3.0455Y-7.581
X3.0455Y-8.471
X3.0455Y-9.361
X3.0455Y-10.261
X3.0545Y-2.1242
X3.1445Y-11.181
X3.1445Y-12.061
X3.1445Y-12.961
X3.1445Y-13.841
X3.1445Y-14.741
X3.1445Y-15.631
X3.1451Y-4.07
X3.1455Y-4.941
X3.1455Y-5.8
X3.1455Y-6.691
X3.1455Y-7.581
X3.1455Y-8.471
X3.1455Y-9.361
X3.1455Y-10.261
X3.1545Y-2.1242
X3.2445Y-11.181
X3.2445Y-12.061
X3.2445Y-12.961
X3.2445Y-13.841
X3.2445Y-14.741
X3.2445Y-15.631
X3.2451Y-4.07
X3.2455Y-4.941
X3.2455Y-5.8
X3.2455Y-6.691
X3.2455Y-7.581
X3.2455Y-8.471
X3.2455Y-9.361
X3.2455Y-10.261
X3.2545Y-2.1242
X3.3445Y-11.181
X3.3445Y-12.061
X3.3445Y-12.961
X3.3445Y-13.841
X3.3445Y-14.741
X3.3445Y-15.631
X3.3451Y-4.07
X3.3455Y-4.941
X3.3455Y-5.8
X3.3455Y-6.691
X3.3455Y-7.581
X3.3455Y-8.471
X3.3455Y-9.361
X3.3455Y-10.261
X3.3545Y-2.1242
X3.4445Y-11.181
X3.4445Y-12.061
X3.4445Y-12.961
X3.4445Y-13.841
X3.4445Y-14.741
X3.4445Y-15.631
X3.4451Y-4.07
X3.4455Y-4.941
X3.4455Y-5.8
X3.4455Y-6.691
X3.4455Y-7.581
X3.4455Y-8.471
X3.4455Y-9.361
X3.4455Y-10.261
X3.4545Y-2.1242
X3.5445Y-11.181
X3.5445Y-12.061
X3.5445Y-12.961
X3.5445Y-13.841
X3.5445Y-14.741
X3.5445Y-15.631
X3.5451Y-4.07
X3.5455Y-4.941
X3.5455Y-5.8
X3.5455Y-6.691
X3.5455Y-7.581
X3.5455Y-8.471
X3.5455Y-9.361
X3.5455Y-10.261
X3.5545Y-2.1242
X3.6445Y-11.181
X3.6445Y-12.061
X3.6445Y-12.961
X3.6445Y-13.841
X3.6445Y-14.741
X3.6445Y-15.631
X3.6451Y-4.07
X3.6455Y-4.941
X3.6455Y-5.8
X3.6455Y-6.691
X3.6455Y-7.581
X3.6455Y-8.471
X3.6455Y-9.361
X3.6455Y-10.261
X3.6545Y-2.1242
X3.7445Y-11.181
X3.7445Y-12.061
X3.7445Y-12.961
X3.7445Y-13.841
X3.7445Y-14.741
X3.7445Y-15.631
X3.7451Y-4.07
X3.7455Y-4.941
X3.7455Y-5.8
X3.7455Y-6.691
X3.7455Y-7.581
X3.7455Y-8.471
X3.7455Y-9.361
X3.7455Y-10.261
X3.7545Y-2.1242
X3.8445Y-11.181
X3.8445Y-12.061
X3.8445Y-12.961
X3.8445Y-13.841
X3.8445Y-14.741
X3.8445Y-15.631
X3.8451Y-4.07
X3.8455Y-4.941
X3.8455Y-5.8
X3.8455Y-6.691
X3.8455Y-7.581
X3.8455Y-8.471
X3.8455Y-9.361
X3.8455Y-10.261
X3.8545Y-2.1242
X3.9445Y-11.181
X3.9445Y-12.061
X3.9445Y-12.961
X3.9445Y-13.841
X3.9445Y-14.741
X3.9445Y-15.631
X3.9451Y-4.07
X3.9455Y-4.941
X3.9455Y-5.8
X3.9455Y-6.691
X3.9455Y-7.581
X3.9455Y-8.471
X3.9455Y-9.361
X3.9455Y-10.261
X3.9545Y-2.1242
X4.0445Y-11.181
X4.0445Y-12.061
X4.0445Y-12.961
X4.0445Y-13.841
X4.0445Y-14.741
X4.0445Y-15.631
X4.0451Y-4.07
X4.0455Y-4.941
X4.0455Y-5.8
X4.0455Y-6.691
X4.0455Y-7.581
X4.0455Y-8.471
X4.0455Y-9.361
X4.0455Y-10.261
X4.0545Y-2.1242
X4.1445Y-11.181
X4.1445Y-12.061
X4.1445Y-12.961
X4.1445Y-13.841
X4.1445Y-14.741
X4.1445Y-15.631
X4.1451Y-4.07
X4.1455Y-4.941
X4.1455Y-5.8
X4.1455Y-6.691
X4.1455Y-7.581
X4.1455Y-8.471
X4.1455Y-9.361
X4.1455Y-10.261
X4.1545Y-2.1242
X4.2445Y-11.181
X4.2445Y-12.061
X4.2445Y-12.961
X4.2445Y-13.841
X4.2445Y-14.741
X4.2445Y-15.631
X4.2451Y-4.07
X4.2455Y-4.941
X4.2455Y-5.8
X4.2455Y-6.691
X4.2455Y-7.581
X4.2455Y-8.471
X4.2455Y-9.361
X4.2455Y-10.261
X4.2545Y-2.1242
X4.3445Y-11.181
X4.3445Y-12.061
X4.3445Y-12.961
X4.3445Y-13.841
X4.3445Y-14.741
X4.3445Y-15.631
X4.3451Y-4.07
X4.3455Y-4.941
X4.3455Y-5.8
X4.3455Y-6.691
X4.3455Y-7.581
X4.3455Y-8.471
X4.3455Y-9.361
X4.3455Y-10.261
X4.3545Y-2.1242
X4.4445Y-11.181
X4.4445Y-12.061
X4.4445Y-12.961
X4.4445Y-13.841
X4.4445Y-14.741
X4.4445Y-15.631
X4.4451Y-4.07
X4.4455Y-4.941
X4.4455Y-5.8
X4.4455Y-6.691
X4.4455Y-7.581
X4.4455Y-8.471
X4.4455Y-9.361
X4.4455Y-10.261
X4.4545Y-2.1242
X4.5445Y-11.181
X4.5445Y-12.061
X4.5445Y-12.961
X4.5445Y-13.841
X4.5445Y-14.741
X4.5445Y-15.631
X4.5451Y-4.07
X4.5455Y-4.941
X4.5455Y-5.8
X4.5455Y-6.691
X4.5455Y-7.581
X4.5455Y-8.471
X4.5455Y-9.361
X4.5455Y-10.261
X4.5545Y-2.1242
X4.6445Y-11.181
X4.6445Y-12.061
X4.6445Y-12.961
X4.6445Y-13.841
X4.6445Y-14.741
X4.6445Y-15.631
X4.6451Y-4.07
X4.6455Y-4.941
X4.6455Y-5.8
X4.6455Y-6.691
X4.6455Y-7.581
X4.6455Y-8.471
X4.6455Y-9.361
X4.6455Y-10.261
X4.6545Y-2.1242
X4.7445Y-11.181
X4.7445Y-12.061
X4.7445Y-12.961
X4.7445Y-13.841
X4.7445Y-14.741
X4.7445Y-15.631
X4.7451Y-4.07
X4.7455Y-4.941
X4.7455Y-5.8
X4.7455Y-6.691
X4.7455Y-7.581
X4.7455Y-8.471
X4.7455Y-9.361
X4.7455Y-10.261
X4.7545Y-2.1242
X4.8545Y-2.1242
X4.9545Y-2.1242
X5.0545Y-2.1242
X5.1545Y-2.1242
X5.2545Y-2.1242
X5.3545Y-2.1242
X5.4545Y-2.1242
X5.5545Y-2.1242
X5.6141Y-2.961
X5.6141Y-3.061
X5.6141Y-3.161
X5.6141Y-3.261
X5.6141Y-3.361
X5.6141Y-3.461
X5.6141Y-3.561
X5.6141Y-3.661
X5.6141Y-3.761
X5.6141Y-3.861
X5.6545Y-2.1242
X5.7141Y-2.961
X5.7141Y-3.061
X5.7141Y-3.161
X5.7141Y-3.261
X5.7141Y-3.361
X5.7141Y-3.461
X5.7141Y-3.561
X5.7141Y-3.661
X5.7141Y-3.761
X5.7141Y-3.861
X5.7545Y-2.1242
X5.8545Y-2.1242
T5
X2.0845Y-2.451
X2.0845Y-9.731
X2.0845Y-16.311
X5.8245Y-2.451
X5.8245Y-9.731
X5.8245Y-16.311
T0
M30
