%TF.GenerationSoftware,KiCad,Pcbnew,(5.1.9-0-10_14)*%
%TF.CreationDate,2021-05-30T08:25:23-04:00*%
%TF.ProjectId,MULTIPLEXER,4d554c54-4950-44c4-9558-45522e6b6963,rev?*%
%TF.SameCoordinates,Original*%
%TF.FileFunction,Copper,L1,Top*%
%TF.FilePolarity,Positive*%
%FSLAX46Y46*%
G04 Gerber Fmt 4.6, Leading zero omitted, Abs format (unit mm)*
G04 Created by KiCad (PCBNEW (5.1.9-0-10_14)) date 2021-05-30 08:25:23*
%MOMM*%
%LPD*%
G01*
G04 APERTURE LIST*
%TA.AperFunction,ComponentPad*%
%ADD10C,0.800000*%
%TD*%
%TA.AperFunction,ComponentPad*%
%ADD11C,5.000000*%
%TD*%
%TA.AperFunction,ComponentPad*%
%ADD12O,1.700000X1.700000*%
%TD*%
%TA.AperFunction,ComponentPad*%
%ADD13R,1.700000X1.700000*%
%TD*%
%TA.AperFunction,ComponentPad*%
%ADD14O,1.600000X1.600000*%
%TD*%
%TA.AperFunction,ComponentPad*%
%ADD15R,1.600000X1.600000*%
%TD*%
%TA.AperFunction,ComponentPad*%
%ADD16C,1.600000*%
%TD*%
%TA.AperFunction,ComponentPad*%
%ADD17C,2.032000*%
%TD*%
%TA.AperFunction,ComponentPad*%
%ADD18R,2.032000X2.032000*%
%TD*%
%TA.AperFunction,ComponentPad*%
%ADD19C,2.600000*%
%TD*%
%TA.AperFunction,ComponentPad*%
%ADD20R,2.600000X2.600000*%
%TD*%
%TA.AperFunction,Conductor*%
%ADD21C,1.000000*%
%TD*%
%TA.AperFunction,Conductor*%
%ADD22C,0.250000*%
%TD*%
%TA.AperFunction,Conductor*%
%ADD23C,0.500000*%
%TD*%
G04 APERTURE END LIST*
D10*
%TO.P,REF\u002A\u002A,1*%
%TO.N,N/C*%
X191571825Y-114752175D03*
X190246000Y-114203000D03*
X188920175Y-114752175D03*
X188371000Y-116078000D03*
X188920175Y-117403825D03*
X190246000Y-117953000D03*
X191571825Y-117403825D03*
X192121000Y-116078000D03*
D11*
X190246000Y-116078000D03*
%TD*%
%TO.P,REF\u002A\u002A,1*%
%TO.N,N/C*%
X190246000Y-76708000D03*
D10*
X192121000Y-76708000D03*
X191571825Y-78033825D03*
X190246000Y-78583000D03*
X188920175Y-78033825D03*
X188371000Y-76708000D03*
X188920175Y-75382175D03*
X190246000Y-74833000D03*
X191571825Y-75382175D03*
%TD*%
D11*
%TO.P,REF\u002A\u002A,1*%
%TO.N,N/C*%
X107188000Y-116078000D03*
D10*
X109063000Y-116078000D03*
X108513825Y-117403825D03*
X107188000Y-117953000D03*
X105862175Y-117403825D03*
X105313000Y-116078000D03*
X105862175Y-114752175D03*
X107188000Y-114203000D03*
X108513825Y-114752175D03*
%TD*%
%TO.P,REF\u002A\u002A,1*%
%TO.N,N/C*%
X108513825Y-75382175D03*
X107188000Y-74833000D03*
X105862175Y-75382175D03*
X105313000Y-76708000D03*
X105862175Y-78033825D03*
X107188000Y-78583000D03*
X108513825Y-78033825D03*
X109063000Y-76708000D03*
D11*
X107188000Y-76708000D03*
%TD*%
D12*
%TO.P,J3,4*%
%TO.N,Net-(J3-Pad4)*%
X172212000Y-113284000D03*
%TO.P,J3,3*%
%TO.N,OE*%
X174752000Y-113284000D03*
%TO.P,J3,2*%
%TO.N,SELECT*%
X177292000Y-113284000D03*
D13*
%TO.P,J3,1*%
X179832000Y-113284000D03*
%TD*%
D14*
%TO.P,RN2,9*%
%TO.N,Net-(BAR2-Pad13)*%
X149098000Y-94488000D03*
%TO.P,RN2,8*%
%TO.N,Net-(BAR2-Pad14)*%
X151638000Y-94488000D03*
%TO.P,RN2,7*%
%TO.N,Net-(BAR2-Pad15)*%
X154178000Y-94488000D03*
%TO.P,RN2,6*%
%TO.N,Net-(BAR2-Pad16)*%
X156718000Y-94488000D03*
%TO.P,RN2,5*%
%TO.N,Net-(BAR2-Pad17)*%
X159258000Y-94488000D03*
%TO.P,RN2,4*%
%TO.N,Net-(BAR2-Pad18)*%
X161798000Y-94488000D03*
%TO.P,RN2,3*%
%TO.N,Net-(BAR2-Pad19)*%
X164338000Y-94488000D03*
%TO.P,RN2,2*%
%TO.N,Net-(BAR2-Pad20)*%
X166878000Y-94488000D03*
D15*
%TO.P,RN2,1*%
%TO.N,GND*%
X169418000Y-94488000D03*
%TD*%
D14*
%TO.P,RN1,9*%
%TO.N,Net-(BAR1-Pad13)*%
X113284000Y-94488000D03*
%TO.P,RN1,8*%
%TO.N,Net-(BAR1-Pad14)*%
X115824000Y-94488000D03*
%TO.P,RN1,7*%
%TO.N,Net-(BAR1-Pad15)*%
X118364000Y-94488000D03*
%TO.P,RN1,6*%
%TO.N,Net-(BAR1-Pad16)*%
X120904000Y-94488000D03*
%TO.P,RN1,5*%
%TO.N,Net-(BAR1-Pad17)*%
X123444000Y-94488000D03*
%TO.P,RN1,4*%
%TO.N,Net-(BAR1-Pad18)*%
X125984000Y-94488000D03*
%TO.P,RN1,3*%
%TO.N,Net-(BAR1-Pad19)*%
X128524000Y-94488000D03*
%TO.P,RN1,2*%
%TO.N,Net-(BAR1-Pad20)*%
X131064000Y-94488000D03*
D15*
%TO.P,RN1,1*%
%TO.N,GND*%
X133604000Y-94488000D03*
%TD*%
D14*
%TO.P,R3,2*%
%TO.N,Net-(BAR2-Pad11)*%
X142748000Y-92456000D03*
D16*
%TO.P,R3,1*%
%TO.N,GND*%
X142748000Y-82296000D03*
%TD*%
D14*
%TO.P,R1,2*%
%TO.N,Net-(BAR1-Pad11)*%
X106934000Y-92456000D03*
D16*
%TO.P,R1,1*%
%TO.N,VCC*%
X106934000Y-82296000D03*
%TD*%
D17*
%TO.P,BAR2,20*%
%TO.N,Net-(BAR2-Pad20)*%
X169164000Y-90424000D03*
%TO.P,BAR2,19*%
%TO.N,Net-(BAR2-Pad19)*%
X166624000Y-90424000D03*
%TO.P,BAR2,18*%
%TO.N,Net-(BAR2-Pad18)*%
X164084000Y-90424000D03*
%TO.P,BAR2,17*%
%TO.N,Net-(BAR2-Pad17)*%
X161544000Y-90424000D03*
%TO.P,BAR2,9*%
%TO.N,Net-(BAR2-Pad9)*%
X148844000Y-82804000D03*
%TO.P,BAR2,10*%
%TO.N,SELECT*%
X146304000Y-82804000D03*
%TO.P,BAR2,11*%
%TO.N,Net-(BAR2-Pad11)*%
X146304000Y-90424000D03*
%TO.P,BAR2,12*%
%TO.N,Net-(BAR2-Pad12)*%
X148844000Y-90424000D03*
%TO.P,BAR2,8*%
%TO.N,B7*%
X151384000Y-82804000D03*
%TO.P,BAR2,7*%
%TO.N,B6*%
X153924000Y-82804000D03*
%TO.P,BAR2,6*%
%TO.N,B5*%
X156464000Y-82804000D03*
%TO.P,BAR2,5*%
%TO.N,B4*%
X159004000Y-82804000D03*
%TO.P,BAR2,16*%
%TO.N,Net-(BAR2-Pad16)*%
X159004000Y-90424000D03*
%TO.P,BAR2,15*%
%TO.N,Net-(BAR2-Pad15)*%
X156464000Y-90424000D03*
%TO.P,BAR2,14*%
%TO.N,Net-(BAR2-Pad14)*%
X153924000Y-90424000D03*
%TO.P,BAR2,13*%
%TO.N,Net-(BAR2-Pad13)*%
X151384000Y-90424000D03*
%TO.P,BAR2,4*%
%TO.N,B3*%
X161544000Y-82804000D03*
%TO.P,BAR2,3*%
%TO.N,B2*%
X164084000Y-82804000D03*
%TO.P,BAR2,2*%
%TO.N,B1*%
X166624000Y-82804000D03*
D18*
%TO.P,BAR2,1*%
%TO.N,B0*%
X169164000Y-82804000D03*
%TD*%
D17*
%TO.P,BAR1,20*%
%TO.N,Net-(BAR1-Pad20)*%
X133350000Y-90424000D03*
%TO.P,BAR1,19*%
%TO.N,Net-(BAR1-Pad19)*%
X130810000Y-90424000D03*
%TO.P,BAR1,18*%
%TO.N,Net-(BAR1-Pad18)*%
X128270000Y-90424000D03*
%TO.P,BAR1,17*%
%TO.N,Net-(BAR1-Pad17)*%
X125730000Y-90424000D03*
%TO.P,BAR1,9*%
%TO.N,Net-(BAR1-Pad9)*%
X113030000Y-82804000D03*
%TO.P,BAR1,10*%
%TO.N,SELECT*%
X110490000Y-82804000D03*
%TO.P,BAR1,11*%
%TO.N,Net-(BAR1-Pad11)*%
X110490000Y-90424000D03*
%TO.P,BAR1,12*%
%TO.N,Net-(BAR1-Pad12)*%
X113030000Y-90424000D03*
%TO.P,BAR1,8*%
%TO.N,A7*%
X115570000Y-82804000D03*
%TO.P,BAR1,7*%
%TO.N,A6*%
X118110000Y-82804000D03*
%TO.P,BAR1,6*%
%TO.N,A5*%
X120650000Y-82804000D03*
%TO.P,BAR1,5*%
%TO.N,A4*%
X123190000Y-82804000D03*
%TO.P,BAR1,16*%
%TO.N,Net-(BAR1-Pad16)*%
X123190000Y-90424000D03*
%TO.P,BAR1,15*%
%TO.N,Net-(BAR1-Pad15)*%
X120650000Y-90424000D03*
%TO.P,BAR1,14*%
%TO.N,Net-(BAR1-Pad14)*%
X118110000Y-90424000D03*
%TO.P,BAR1,13*%
%TO.N,Net-(BAR1-Pad13)*%
X115570000Y-90424000D03*
%TO.P,BAR1,4*%
%TO.N,A3*%
X125730000Y-82804000D03*
%TO.P,BAR1,3*%
%TO.N,A2*%
X128270000Y-82804000D03*
%TO.P,BAR1,2*%
%TO.N,A1*%
X130810000Y-82804000D03*
D18*
%TO.P,BAR1,1*%
%TO.N,A0*%
X133350000Y-82804000D03*
%TD*%
D14*
%TO.P,U3,20*%
%TO.N,VCC*%
X157226000Y-101854000D03*
%TO.P,U3,10*%
%TO.N,GND*%
X180086000Y-109474000D03*
%TO.P,U3,19*%
%TO.N,OE*%
X159766000Y-101854000D03*
%TO.P,U3,9*%
%TO.N,Z7*%
X177546000Y-109474000D03*
%TO.P,U3,18*%
%TO.N,Y0*%
X162306000Y-101854000D03*
%TO.P,U3,8*%
%TO.N,Z6*%
X175006000Y-109474000D03*
%TO.P,U3,17*%
%TO.N,Y1*%
X164846000Y-101854000D03*
%TO.P,U3,7*%
%TO.N,Z5*%
X172466000Y-109474000D03*
%TO.P,U3,16*%
%TO.N,Y2*%
X167386000Y-101854000D03*
%TO.P,U3,6*%
%TO.N,Z4*%
X169926000Y-109474000D03*
%TO.P,U3,15*%
%TO.N,Y3*%
X169926000Y-101854000D03*
%TO.P,U3,5*%
%TO.N,Z3*%
X167386000Y-109474000D03*
%TO.P,U3,14*%
%TO.N,Y4*%
X172466000Y-101854000D03*
%TO.P,U3,4*%
%TO.N,Z2*%
X164846000Y-109474000D03*
%TO.P,U3,13*%
%TO.N,Y5*%
X175006000Y-101854000D03*
%TO.P,U3,3*%
%TO.N,Z1*%
X162306000Y-109474000D03*
%TO.P,U3,12*%
%TO.N,Y6*%
X177546000Y-101854000D03*
%TO.P,U3,2*%
%TO.N,Z0*%
X159766000Y-109474000D03*
%TO.P,U3,11*%
%TO.N,Y7*%
X180086000Y-101854000D03*
D15*
%TO.P,U3,1*%
%TO.N,VCC*%
X157226000Y-109474000D03*
%TD*%
D14*
%TO.P,U2,16*%
%TO.N,VCC*%
X133858000Y-101854000D03*
%TO.P,U2,8*%
%TO.N,GND*%
X151638000Y-109474000D03*
%TO.P,U2,15*%
X136398000Y-101854000D03*
%TO.P,U2,7*%
%TO.N,Z5*%
X149098000Y-109474000D03*
%TO.P,U2,14*%
%TO.N,A7*%
X138938000Y-101854000D03*
%TO.P,U2,6*%
%TO.N,B5*%
X146558000Y-109474000D03*
%TO.P,U2,13*%
%TO.N,B7*%
X141478000Y-101854000D03*
%TO.P,U2,5*%
%TO.N,A5*%
X144018000Y-109474000D03*
%TO.P,U2,12*%
%TO.N,Z7*%
X144018000Y-101854000D03*
%TO.P,U2,4*%
%TO.N,Z4*%
X141478000Y-109474000D03*
%TO.P,U2,11*%
%TO.N,A6*%
X146558000Y-101854000D03*
%TO.P,U2,3*%
%TO.N,B4*%
X138938000Y-109474000D03*
%TO.P,U2,10*%
%TO.N,B6*%
X149098000Y-101854000D03*
%TO.P,U2,2*%
%TO.N,A4*%
X136398000Y-109474000D03*
%TO.P,U2,9*%
%TO.N,Z6*%
X151638000Y-101854000D03*
D15*
%TO.P,U2,1*%
%TO.N,SELECT*%
X133858000Y-109474000D03*
%TD*%
D14*
%TO.P,U1,16*%
%TO.N,VCC*%
X109728000Y-102108000D03*
%TO.P,U1,8*%
%TO.N,GND*%
X127508000Y-109728000D03*
%TO.P,U1,15*%
X112268000Y-102108000D03*
%TO.P,U1,7*%
%TO.N,Z1*%
X124968000Y-109728000D03*
%TO.P,U1,14*%
%TO.N,A3*%
X114808000Y-102108000D03*
%TO.P,U1,6*%
%TO.N,B1*%
X122428000Y-109728000D03*
%TO.P,U1,13*%
%TO.N,B3*%
X117348000Y-102108000D03*
%TO.P,U1,5*%
%TO.N,A1*%
X119888000Y-109728000D03*
%TO.P,U1,12*%
%TO.N,Z3*%
X119888000Y-102108000D03*
%TO.P,U1,4*%
%TO.N,Z0*%
X117348000Y-109728000D03*
%TO.P,U1,11*%
%TO.N,A2*%
X122428000Y-102108000D03*
%TO.P,U1,3*%
%TO.N,B0*%
X114808000Y-109728000D03*
%TO.P,U1,10*%
%TO.N,B2*%
X124968000Y-102108000D03*
%TO.P,U1,2*%
%TO.N,A0*%
X112268000Y-109728000D03*
%TO.P,U1,9*%
%TO.N,Z2*%
X127508000Y-102108000D03*
D15*
%TO.P,U1,1*%
%TO.N,SELECT*%
X109728000Y-109728000D03*
%TD*%
D12*
%TO.P,J6,8*%
%TO.N,Y7*%
X189992000Y-105156000D03*
%TO.P,J6,7*%
%TO.N,Y6*%
X189992000Y-102616000D03*
%TO.P,J6,6*%
%TO.N,Y5*%
X189992000Y-100076000D03*
%TO.P,J6,5*%
%TO.N,Y4*%
X189992000Y-97536000D03*
%TO.P,J6,4*%
%TO.N,Y3*%
X189992000Y-94996000D03*
%TO.P,J6,3*%
%TO.N,Y2*%
X189992000Y-92456000D03*
%TO.P,J6,2*%
%TO.N,Y1*%
X189992000Y-89916000D03*
D13*
%TO.P,J6,1*%
%TO.N,Y0*%
X189992000Y-87376000D03*
%TD*%
D12*
%TO.P,J5,8*%
%TO.N,B7*%
X151384000Y-75184000D03*
%TO.P,J5,7*%
%TO.N,B6*%
X153924000Y-75184000D03*
%TO.P,J5,6*%
%TO.N,B5*%
X156464000Y-75184000D03*
%TO.P,J5,5*%
%TO.N,B4*%
X159004000Y-75184000D03*
%TO.P,J5,4*%
%TO.N,B3*%
X161544000Y-75184000D03*
%TO.P,J5,3*%
%TO.N,B2*%
X164084000Y-75184000D03*
%TO.P,J5,2*%
%TO.N,B1*%
X166624000Y-75184000D03*
D13*
%TO.P,J5,1*%
%TO.N,B0*%
X169164000Y-75184000D03*
%TD*%
D12*
%TO.P,J4,8*%
%TO.N,A7*%
X115570000Y-75184000D03*
%TO.P,J4,7*%
%TO.N,A6*%
X118110000Y-75184000D03*
%TO.P,J4,6*%
%TO.N,A5*%
X120650000Y-75184000D03*
%TO.P,J4,5*%
%TO.N,A4*%
X123190000Y-75184000D03*
%TO.P,J4,4*%
%TO.N,A3*%
X125730000Y-75184000D03*
%TO.P,J4,3*%
%TO.N,A2*%
X128270000Y-75184000D03*
%TO.P,J4,2*%
%TO.N,A1*%
X130810000Y-75184000D03*
D13*
%TO.P,J4,1*%
%TO.N,A0*%
X133350000Y-75184000D03*
%TD*%
D19*
%TO.P,J1,2*%
%TO.N,GND*%
X175848000Y-78486000D03*
D20*
%TO.P,J1,1*%
%TO.N,VCC*%
X180848000Y-78486000D03*
%TD*%
D16*
%TO.P,C1,2*%
%TO.N,GND*%
X176540000Y-89408000D03*
D15*
%TO.P,C1,1*%
%TO.N,VCC*%
X180340000Y-89408000D03*
%TD*%
D21*
%TO.N,VCC*%
X180340000Y-78994000D02*
X180848000Y-78486000D01*
X180340000Y-89408000D02*
X180340000Y-78994000D01*
D22*
X105808999Y-83421001D02*
X105808999Y-98188999D01*
X105808999Y-98188999D02*
X109728000Y-102108000D01*
X106934000Y-82296000D02*
X105808999Y-83421001D01*
D23*
X109728000Y-102108000D02*
X111506000Y-100330000D01*
X132334000Y-100330000D02*
X133858000Y-101854000D01*
X111506000Y-100330000D02*
X132334000Y-100330000D01*
D22*
%TO.N,SELECT*%
X109728000Y-109728000D02*
X109728000Y-109982000D01*
X109728000Y-109982000D02*
X111760000Y-112014000D01*
X111760000Y-112014000D02*
X132588000Y-112014000D01*
X133858000Y-110744000D02*
X133858000Y-109474000D01*
X132588000Y-112014000D02*
X133858000Y-110744000D01*
X133858000Y-109474000D02*
X139446000Y-115062000D01*
X175514000Y-115062000D02*
X177292000Y-113284000D01*
X139446000Y-115062000D02*
X175514000Y-115062000D01*
X179832000Y-113284000D02*
X177292000Y-113284000D01*
%TO.N,OE*%
X174752000Y-113284000D02*
X172720000Y-111252000D01*
X172720000Y-111252000D02*
X169418000Y-111252000D01*
X169418000Y-111252000D02*
X168656000Y-110490000D01*
X168656000Y-110490000D02*
X168656000Y-108458000D01*
X168656000Y-108458000D02*
X163830000Y-103632000D01*
X163830000Y-103632000D02*
X160274000Y-103632000D01*
X159766000Y-103124000D02*
X159766000Y-101854000D01*
X160274000Y-103632000D02*
X159766000Y-103124000D01*
D23*
%TO.N,A7*%
X115570000Y-75184000D02*
X115570000Y-82804000D01*
D22*
X120171171Y-88842011D02*
X134179601Y-88842011D01*
X115570000Y-82804000D02*
X115570000Y-84240840D01*
X134179601Y-88842011D02*
X138938000Y-93600410D01*
X115570000Y-84240840D02*
X120171171Y-88842011D01*
X138938000Y-93600410D02*
X138938000Y-101854000D01*
D23*
%TO.N,A6*%
X118110000Y-82804000D02*
X118110000Y-75184000D01*
D22*
X118110000Y-82804000D02*
X118110000Y-86106000D01*
X120396000Y-88392000D02*
X134366000Y-88392000D01*
X118110000Y-86106000D02*
X120396000Y-88392000D01*
X134366000Y-88392000D02*
X139503989Y-93529989D01*
X142053600Y-100018011D02*
X144722011Y-100018011D01*
X139503989Y-97468400D02*
X142053600Y-100018011D01*
X139503989Y-93529989D02*
X139503989Y-97468400D01*
X144722011Y-100018011D02*
X146558000Y-101854000D01*
D23*
%TO.N,A5*%
X120650000Y-75184000D02*
X120650000Y-82804000D01*
D22*
X120650000Y-82804000D02*
X120650000Y-86868000D01*
X120650000Y-86868000D02*
X121666000Y-87884000D01*
X121666000Y-87884000D02*
X134620000Y-87884000D01*
X134620000Y-87884000D02*
X139954000Y-93218000D01*
X139954000Y-93218000D02*
X139954000Y-97282000D01*
X139954000Y-97282000D02*
X142240000Y-99568000D01*
X145937002Y-99568000D02*
X147828000Y-101458998D01*
X142240000Y-99568000D02*
X145937002Y-99568000D01*
X147828000Y-101458998D02*
X147828000Y-103886000D01*
X147828000Y-103886000D02*
X145796000Y-105918000D01*
X145796000Y-105918000D02*
X145288000Y-105918000D01*
X144018000Y-107188000D02*
X144018000Y-109474000D01*
X145288000Y-105918000D02*
X144018000Y-107188000D01*
D23*
%TO.N,A4*%
X123190000Y-75184000D02*
X123190000Y-82804000D01*
%TO.N,A3*%
X125730000Y-75184000D02*
X125730000Y-82804000D01*
%TO.N,A2*%
X128270000Y-82804000D02*
X128270000Y-75184000D01*
%TO.N,A1*%
X130810000Y-75184000D02*
X130810000Y-82804000D01*
%TO.N,A0*%
X133350000Y-82804000D02*
X133350000Y-75184000D01*
%TO.N,B7*%
X151384000Y-75184000D02*
X151384000Y-82804000D01*
%TO.N,B6*%
X153924000Y-82804000D02*
X153924000Y-75184000D01*
%TO.N,B5*%
X156464000Y-75184000D02*
X156464000Y-82804000D01*
%TO.N,B4*%
X159004000Y-82804000D02*
X159004000Y-75184000D01*
%TO.N,B3*%
X161544000Y-75184000D02*
X161544000Y-82804000D01*
%TO.N,B2*%
X164084000Y-82804000D02*
X164084000Y-75184000D01*
%TO.N,B1*%
X166624000Y-75184000D02*
X166624000Y-82804000D01*
%TO.N,B0*%
X169164000Y-82804000D02*
X169164000Y-75184000D01*
%TO.N,Y7*%
X186182000Y-101346000D02*
X180594000Y-101346000D01*
X180594000Y-101346000D02*
X180086000Y-101854000D01*
X189992000Y-105156000D02*
X186182000Y-101346000D01*
%TO.N,Y6*%
X187842066Y-100466066D02*
X178933934Y-100466066D01*
X178933934Y-100466066D02*
X177546000Y-101854000D01*
X189992000Y-102616000D02*
X187842066Y-100466066D01*
%TO.N,Y5*%
X189992000Y-100076000D02*
X189682055Y-99766055D01*
X189682055Y-99766055D02*
X177093945Y-99766055D01*
X177093945Y-99766055D02*
X175006000Y-101854000D01*
%TO.N,Y4*%
X189992000Y-97536000D02*
X188461956Y-99066044D01*
X188461956Y-99066044D02*
X175253956Y-99066044D01*
X175253956Y-99066044D02*
X172466000Y-101854000D01*
%TO.N,Y3*%
X186621967Y-98366033D02*
X173413967Y-98366033D01*
X173413967Y-98366033D02*
X169926000Y-101854000D01*
X189992000Y-94996000D02*
X186621967Y-98366033D01*
%TO.N,Y2*%
X171573978Y-97666022D02*
X167386000Y-101854000D01*
X184781978Y-97666022D02*
X171573978Y-97666022D01*
X189992000Y-92456000D02*
X184781978Y-97666022D01*
%TO.N,Y1*%
X169733989Y-96966011D02*
X164846000Y-101854000D01*
X182941989Y-96966011D02*
X169733989Y-96966011D01*
X189992000Y-89916000D02*
X182941989Y-96966011D01*
%TO.N,Y0*%
X189992000Y-87376000D02*
X189992000Y-87884000D01*
X189992000Y-87884000D02*
X181610000Y-96266000D01*
X167894000Y-96266000D02*
X162306000Y-101854000D01*
X181610000Y-96266000D02*
X167894000Y-96266000D01*
D22*
%TO.N,Z3*%
X119888000Y-105664000D02*
X119888000Y-102108000D01*
X139192000Y-112014000D02*
X137668000Y-110490000D01*
X137668000Y-110490000D02*
X137668000Y-108895499D01*
X136214501Y-107442000D02*
X121666000Y-107442000D01*
X164846000Y-112014000D02*
X139192000Y-112014000D01*
X137668000Y-108895499D02*
X136214501Y-107442000D01*
X121666000Y-107442000D02*
X119888000Y-105664000D01*
X167386000Y-109474000D02*
X164846000Y-112014000D01*
%TO.N,Z2*%
X164846000Y-109474000D02*
X162814000Y-111506000D01*
X162814000Y-111506000D02*
X141224000Y-111506000D01*
X141224000Y-111506000D02*
X140208000Y-110490000D01*
X140208000Y-109078998D02*
X137809002Y-106680000D01*
X140208000Y-110490000D02*
X140208000Y-109078998D01*
X137809002Y-106680000D02*
X128524000Y-106680000D01*
X127508000Y-105664000D02*
X127508000Y-102108000D01*
X128524000Y-106680000D02*
X127508000Y-105664000D01*
D23*
%TO.N,Net-(BAR1-Pad20)*%
X133350000Y-92202000D02*
X131064000Y-94488000D01*
X133350000Y-90424000D02*
X133350000Y-92202000D01*
%TO.N,Net-(BAR1-Pad19)*%
X130810000Y-92202000D02*
X128524000Y-94488000D01*
X130810000Y-90424000D02*
X130810000Y-92202000D01*
%TO.N,Net-(BAR1-Pad18)*%
X128270000Y-92202000D02*
X125984000Y-94488000D01*
X128270000Y-90424000D02*
X128270000Y-92202000D01*
%TO.N,Net-(BAR1-Pad17)*%
X125730000Y-92202000D02*
X123444000Y-94488000D01*
X125730000Y-90424000D02*
X125730000Y-92202000D01*
D22*
%TO.N,Net-(BAR1-Pad11)*%
X108458000Y-92456000D02*
X110490000Y-90424000D01*
X106934000Y-92456000D02*
X108458000Y-92456000D01*
D23*
%TO.N,Net-(BAR1-Pad16)*%
X123190000Y-92202000D02*
X120904000Y-94488000D01*
X123190000Y-90424000D02*
X123190000Y-92202000D01*
%TO.N,Net-(BAR1-Pad15)*%
X120650000Y-92202000D02*
X118364000Y-94488000D01*
X120650000Y-90424000D02*
X120650000Y-92202000D01*
%TO.N,Net-(BAR1-Pad14)*%
X118110000Y-92202000D02*
X115824000Y-94488000D01*
X118110000Y-90424000D02*
X118110000Y-92202000D01*
%TO.N,Net-(BAR1-Pad13)*%
X115570000Y-92202000D02*
X113284000Y-94488000D01*
X115570000Y-90424000D02*
X115570000Y-92202000D01*
%TO.N,Net-(BAR2-Pad20)*%
X169164000Y-92202000D02*
X166878000Y-94488000D01*
X169164000Y-90424000D02*
X169164000Y-92202000D01*
%TO.N,Net-(BAR2-Pad19)*%
X166624000Y-92202000D02*
X164338000Y-94488000D01*
X166624000Y-90424000D02*
X166624000Y-92202000D01*
%TO.N,Net-(BAR2-Pad18)*%
X164084000Y-92202000D02*
X161798000Y-94488000D01*
X164084000Y-90424000D02*
X164084000Y-92202000D01*
%TO.N,Net-(BAR2-Pad17)*%
X161544000Y-92202000D02*
X159258000Y-94488000D01*
X161544000Y-90424000D02*
X161544000Y-92202000D01*
%TO.N,Net-(BAR2-Pad16)*%
X159004000Y-92202000D02*
X156718000Y-94488000D01*
X159004000Y-90424000D02*
X159004000Y-92202000D01*
%TO.N,Net-(BAR2-Pad15)*%
X156464000Y-92202000D02*
X154178000Y-94488000D01*
X156464000Y-90424000D02*
X156464000Y-92202000D01*
%TO.N,Net-(BAR2-Pad14)*%
X153924000Y-92202000D02*
X151638000Y-94488000D01*
X153924000Y-90424000D02*
X153924000Y-92202000D01*
%TO.N,Net-(BAR2-Pad13)*%
X151384000Y-92202000D02*
X149098000Y-94488000D01*
X151384000Y-90424000D02*
X151384000Y-92202000D01*
%TD*%
M02*
