M48
; DRILL file {KiCad (6.0.0-0)} date Monday, February 14, 2022 at 08:59:43 PM
; FORMAT={-:-/ absolute / inch / decimal}
; #@! TF.CreationDate,2022-02-14T20:59:43-05:00
; #@! TF.GenerationSoftware,Kicad,Pcbnew,(6.0.0-0)
; #@! TF.FileFunction,Plated,1,4,PTH
FMAT,2
INCH
; #@! TA.AperFunction,Plated,PTH,ViaDrill
T1C0.0157
; #@! TA.AperFunction,Plated,PTH,ComponentDrill
T2C0.0394
%
G90
G05
T1
X6.36Y-3.31
X6.36Y-3.5
X6.47Y-2.64
X6.4867Y-3.1296
X6.51Y-2.77
X6.51Y-2.84
X6.51Y-2.91
X6.56Y-3.05
X6.57Y-3.55
X6.5875Y-3.1324
X6.59Y-2.76
X6.59Y-3.42
X6.5948Y-3.7852
X6.6398Y-3.6796
X6.64Y-3.72
X6.6414Y-3.2017
X6.6432Y-3.5557
X6.67Y-2.9
X6.68Y-3.43
X6.7Y-2.86
X6.7264Y-3.1927
X6.74Y-2.97
X6.7623Y-3.3146
X6.7653Y-3.6387
X6.77Y-2.91
X6.78Y-2.73
X6.78Y-3.42
X6.7818Y-3.6744
X6.7891Y-3.2519
X6.8Y-2.97
X6.8192Y-3.03
X6.83Y-3.17
X6.83Y-3.78
X6.8331Y-3.5674
X6.84Y-3.08
X6.87Y-3.11
X6.87Y-3.39
X6.89Y-3.05
X6.9Y-2.77
X6.9201Y-3.1809
X6.9275Y-3.28
X6.93Y-3.45
X6.9429Y-2.9571
X6.9625Y-3.6519
X6.9632Y-3.5732
X6.9685Y-3.19
X6.98Y-3.7
X6.998Y-3.3031
X7.006Y-3.7709
X7.007Y-3.7315
X7.01Y-3.82
X7.02Y-3.09
X7.02Y-3.24
X7.0231Y-3.661
X7.0344Y-3.6233
X7.0358Y-3.7047
X7.05Y-2.86
X7.05Y-2.96
X7.05Y-3.27
X7.05Y-3.58
X7.08Y-2.9
X7.0833Y-3.2157
X7.1Y-2.74
X7.1009Y-3.4752
X7.11Y-2.95
X7.13Y-3.1
X7.14Y-3.02
X7.14Y-3.48
X7.152Y-3.4025
X7.18Y-2.88
X7.18Y-3.47
X7.18Y-3.5765
X7.2Y-3.63
X7.21Y-2.75
X7.28Y-2.75
T2
X6.4815Y-3.9803
X6.5384Y-2.5748
X6.5815Y-3.9803
X6.6384Y-2.5748
X6.6815Y-3.9803
X6.7384Y-2.5748
X6.7815Y-3.9803
X6.8384Y-2.5748
X6.8815Y-3.9803
X6.9384Y-2.5748
X6.9815Y-3.9803
X7.0384Y-2.5748
X7.0815Y-3.9803
X7.1384Y-2.5748
X7.1815Y-3.9803
X7.2717Y-2.9516
X7.2717Y-3.0516
X7.2717Y-3.1516
X7.2717Y-3.2516
X7.2717Y-3.3516
X7.2717Y-3.4516
X7.2717Y-3.5516
X7.2717Y-3.6516
T0
M30
