%TF.GenerationSoftware,KiCad,Pcbnew,(5.1.10-1-10_14)*%
%TF.CreationDate,2021-09-22T20:52:25-04:00*%
%TF.ProjectId,SHIFT,53484946-542e-46b6-9963-61645f706362,rev?*%
%TF.SameCoordinates,Original*%
%TF.FileFunction,Legend,Bot*%
%TF.FilePolarity,Positive*%
%FSLAX46Y46*%
G04 Gerber Fmt 4.6, Leading zero omitted, Abs format (unit mm)*
G04 Created by KiCad (PCBNEW (5.1.10-1-10_14)) date 2021-09-22 20:52:25*
%MOMM*%
%LPD*%
G01*
G04 APERTURE LIST*
%ADD10C,0.120000*%
G04 APERTURE END LIST*
D10*
%TO.C,J4*%
X128464000Y-86554000D02*
X128464000Y-87884000D01*
X129794000Y-86554000D02*
X128464000Y-86554000D01*
X131064000Y-86554000D02*
X131064000Y-89214000D01*
X131064000Y-89214000D02*
X138744000Y-89214000D01*
X131064000Y-86554000D02*
X138744000Y-86554000D01*
X138744000Y-86554000D02*
X138744000Y-89214000D01*
%TO.C,J1*%
X163516000Y-53146000D02*
X163516000Y-50486000D01*
X171196000Y-53146000D02*
X163516000Y-53146000D01*
X171196000Y-50486000D02*
X163516000Y-50486000D01*
X171196000Y-53146000D02*
X171196000Y-50486000D01*
X172466000Y-53146000D02*
X173796000Y-53146000D01*
X173796000Y-53146000D02*
X173796000Y-51816000D01*
%TO.C,J3*%
X141672000Y-89214000D02*
X141672000Y-86554000D01*
X159512000Y-89214000D02*
X141672000Y-89214000D01*
X159512000Y-86554000D02*
X141672000Y-86554000D01*
X159512000Y-89214000D02*
X159512000Y-86554000D01*
X160782000Y-89214000D02*
X162112000Y-89214000D01*
X162112000Y-89214000D02*
X162112000Y-87884000D01*
%TO.C,J2*%
X128718000Y-53146000D02*
X128718000Y-50486000D01*
X146558000Y-53146000D02*
X128718000Y-53146000D01*
X146558000Y-50486000D02*
X128718000Y-50486000D01*
X146558000Y-53146000D02*
X146558000Y-50486000D01*
X147828000Y-53146000D02*
X149158000Y-53146000D01*
X149158000Y-53146000D02*
X149158000Y-51816000D01*
%TD*%
M02*
