%TF.GenerationSoftware,KiCad,Pcbnew,(5.1.9-0-10_14)*%
%TF.CreationDate,2021-05-22T09:47:39-04:00*%
%TF.ProjectId,CONTROL_LOGIC,434f4e54-524f-44c5-9f4c-4f4749432e6b,rev?*%
%TF.SameCoordinates,Original*%
%TF.FileFunction,Legend,Top*%
%TF.FilePolarity,Positive*%
%FSLAX46Y46*%
G04 Gerber Fmt 4.6, Leading zero omitted, Abs format (unit mm)*
G04 Created by KiCad (PCBNEW (5.1.9-0-10_14)) date 2021-05-22 09:47:39*
%MOMM*%
%LPD*%
G01*
G04 APERTURE LIST*
%ADD10C,0.150000*%
%ADD11C,0.120000*%
G04 APERTURE END LIST*
D10*
X176089257Y-116589838D02*
X176089257Y-116323171D01*
X176508304Y-116208885D02*
X176508304Y-116589838D01*
X175708304Y-116589838D01*
X175708304Y-116208885D01*
X176089257Y-115866028D02*
X176089257Y-115599361D01*
X176508304Y-115485076D02*
X176508304Y-115866028D01*
X175708304Y-115866028D01*
X175708304Y-115485076D01*
X176508304Y-115142219D02*
X175708304Y-115142219D01*
X175708304Y-114837457D01*
X175746400Y-114761266D01*
X175784495Y-114723171D01*
X175860685Y-114685076D01*
X175974971Y-114685076D01*
X176051161Y-114723171D01*
X176089257Y-114761266D01*
X176127352Y-114837457D01*
X176127352Y-115142219D01*
X176508304Y-113885076D02*
X176127352Y-114151742D01*
X176508304Y-114342219D02*
X175708304Y-114342219D01*
X175708304Y-114037457D01*
X175746400Y-113961266D01*
X175784495Y-113923171D01*
X175860685Y-113885076D01*
X175974971Y-113885076D01*
X176051161Y-113923171D01*
X176089257Y-113961266D01*
X176127352Y-114037457D01*
X176127352Y-114342219D01*
X175708304Y-113389838D02*
X175708304Y-113237457D01*
X175746400Y-113161266D01*
X175822590Y-113085076D01*
X175974971Y-113046980D01*
X176241638Y-113046980D01*
X176394019Y-113085076D01*
X176470209Y-113161266D01*
X176508304Y-113237457D01*
X176508304Y-113389838D01*
X176470209Y-113466028D01*
X176394019Y-113542219D01*
X176241638Y-113580314D01*
X175974971Y-113580314D01*
X175822590Y-113542219D01*
X175746400Y-113466028D01*
X175708304Y-113389838D01*
X176508304Y-112704123D02*
X175708304Y-112704123D01*
X176279733Y-112437457D01*
X175708304Y-112170790D01*
X176508304Y-112170790D01*
X175708304Y-111256504D02*
X175708304Y-110761266D01*
X176013066Y-111027933D01*
X176013066Y-110913647D01*
X176051161Y-110837457D01*
X176089257Y-110799361D01*
X176165447Y-110761266D01*
X176355923Y-110761266D01*
X176432114Y-110799361D01*
X176470209Y-110837457D01*
X176508304Y-110913647D01*
X176508304Y-111142219D01*
X176470209Y-111218409D01*
X176432114Y-111256504D01*
D11*
X177086400Y-110244600D02*
X177086400Y-125324600D01*
X177086400Y-86114600D02*
X177086400Y-99354600D01*
D10*
X176129257Y-90379838D02*
X176129257Y-90113171D01*
X176548304Y-89998885D02*
X176548304Y-90379838D01*
X175748304Y-90379838D01*
X175748304Y-89998885D01*
X176129257Y-89656028D02*
X176129257Y-89389361D01*
X176548304Y-89275076D02*
X176548304Y-89656028D01*
X175748304Y-89656028D01*
X175748304Y-89275076D01*
X176548304Y-88932219D02*
X175748304Y-88932219D01*
X175748304Y-88627457D01*
X175786400Y-88551266D01*
X175824495Y-88513171D01*
X175900685Y-88475076D01*
X176014971Y-88475076D01*
X176091161Y-88513171D01*
X176129257Y-88551266D01*
X176167352Y-88627457D01*
X176167352Y-88932219D01*
X176548304Y-87675076D02*
X176167352Y-87941742D01*
X176548304Y-88132219D02*
X175748304Y-88132219D01*
X175748304Y-87827457D01*
X175786400Y-87751266D01*
X175824495Y-87713171D01*
X175900685Y-87675076D01*
X176014971Y-87675076D01*
X176091161Y-87713171D01*
X176129257Y-87751266D01*
X176167352Y-87827457D01*
X176167352Y-88132219D01*
X175748304Y-87179838D02*
X175748304Y-87027457D01*
X175786400Y-86951266D01*
X175862590Y-86875076D01*
X176014971Y-86836980D01*
X176281638Y-86836980D01*
X176434019Y-86875076D01*
X176510209Y-86951266D01*
X176548304Y-87027457D01*
X176548304Y-87179838D01*
X176510209Y-87256028D01*
X176434019Y-87332219D01*
X176281638Y-87370314D01*
X176014971Y-87370314D01*
X175862590Y-87332219D01*
X175786400Y-87256028D01*
X175748304Y-87179838D01*
X176548304Y-86494123D02*
X175748304Y-86494123D01*
X176319733Y-86227457D01*
X175748304Y-85960790D01*
X176548304Y-85960790D01*
X175824495Y-85008409D02*
X175786400Y-84970314D01*
X175748304Y-84894123D01*
X175748304Y-84703647D01*
X175786400Y-84627457D01*
X175824495Y-84589361D01*
X175900685Y-84551266D01*
X175976876Y-84551266D01*
X176091161Y-84589361D01*
X176548304Y-85046504D01*
X176548304Y-84551266D01*
D11*
X177086400Y-101844600D02*
X177086400Y-110244600D01*
X177086400Y-75594600D02*
X177086400Y-86114600D01*
X172986400Y-155564600D02*
X173666400Y-155564600D01*
X170526400Y-155564600D02*
X171206400Y-155564600D01*
X168016400Y-155564600D02*
X168696400Y-155564600D01*
X165546400Y-155564600D02*
X166226400Y-155564600D01*
X162896400Y-155554600D02*
X163576400Y-155554600D01*
D10*
X165620685Y-155892219D02*
X165668304Y-155844600D01*
X165763542Y-155796980D01*
X166001638Y-155796980D01*
X166096876Y-155844600D01*
X166144495Y-155892219D01*
X166192114Y-155987457D01*
X166192114Y-156082695D01*
X166144495Y-156225552D01*
X165573066Y-156796980D01*
X166192114Y-156796980D01*
X168033066Y-155806980D02*
X168652114Y-155806980D01*
X168318780Y-156187933D01*
X168461638Y-156187933D01*
X168556876Y-156235552D01*
X168604495Y-156283171D01*
X168652114Y-156378409D01*
X168652114Y-156616504D01*
X168604495Y-156711742D01*
X168556876Y-156759361D01*
X168461638Y-156806980D01*
X168175923Y-156806980D01*
X168080685Y-156759361D01*
X168033066Y-156711742D01*
X173564495Y-155816980D02*
X173088304Y-155816980D01*
X173040685Y-156293171D01*
X173088304Y-156245552D01*
X173183542Y-156197933D01*
X173421638Y-156197933D01*
X173516876Y-156245552D01*
X173564495Y-156293171D01*
X173612114Y-156388409D01*
X173612114Y-156626504D01*
X173564495Y-156721742D01*
X173516876Y-156769361D01*
X173421638Y-156816980D01*
X173183542Y-156816980D01*
X173088304Y-156769361D01*
X173040685Y-156721742D01*
X171046876Y-156150314D02*
X171046876Y-156816980D01*
X170808780Y-155769361D02*
X170570685Y-156483647D01*
X171189733Y-156483647D01*
X163552114Y-156786980D02*
X162980685Y-156786980D01*
X163266400Y-156786980D02*
X163266400Y-155786980D01*
X163171161Y-155929838D01*
X163075923Y-156025076D01*
X162980685Y-156072695D01*
X173444495Y-149856980D02*
X172968304Y-149856980D01*
X172920685Y-150333171D01*
X172968304Y-150285552D01*
X173063542Y-150237933D01*
X173301638Y-150237933D01*
X173396876Y-150285552D01*
X173444495Y-150333171D01*
X173492114Y-150428409D01*
X173492114Y-150666504D01*
X173444495Y-150761742D01*
X173396876Y-150809361D01*
X173301638Y-150856980D01*
X173063542Y-150856980D01*
X172968304Y-150809361D01*
X172920685Y-150761742D01*
X170926876Y-150190314D02*
X170926876Y-150856980D01*
X170688780Y-149809361D02*
X170450685Y-150523647D01*
X171069733Y-150523647D01*
X167913066Y-149846980D02*
X168532114Y-149846980D01*
X168198780Y-150227933D01*
X168341638Y-150227933D01*
X168436876Y-150275552D01*
X168484495Y-150323171D01*
X168532114Y-150418409D01*
X168532114Y-150656504D01*
X168484495Y-150751742D01*
X168436876Y-150799361D01*
X168341638Y-150846980D01*
X168055923Y-150846980D01*
X167960685Y-150799361D01*
X167913066Y-150751742D01*
X165500685Y-149932219D02*
X165548304Y-149884600D01*
X165643542Y-149836980D01*
X165881638Y-149836980D01*
X165976876Y-149884600D01*
X166024495Y-149932219D01*
X166072114Y-150027457D01*
X166072114Y-150122695D01*
X166024495Y-150265552D01*
X165453066Y-150836980D01*
X166072114Y-150836980D01*
X163432114Y-150826980D02*
X162860685Y-150826980D01*
X163146400Y-150826980D02*
X163146400Y-149826980D01*
X163051161Y-149969838D01*
X162955923Y-150065076D01*
X162860685Y-150112695D01*
X159888780Y-159894600D02*
X159888780Y-159704123D01*
X159936400Y-159608885D01*
X160031638Y-159513647D01*
X160222114Y-159466028D01*
X160555447Y-159466028D01*
X160745923Y-159513647D01*
X160841161Y-159608885D01*
X160888780Y-159704123D01*
X160888780Y-159894600D01*
X160841161Y-159989838D01*
X160745923Y-160085076D01*
X160555447Y-160132695D01*
X160222114Y-160132695D01*
X160031638Y-160085076D01*
X159936400Y-159989838D01*
X159888780Y-159894600D01*
X159888780Y-159037457D02*
X160698304Y-159037457D01*
X160793542Y-158989838D01*
X160841161Y-158942219D01*
X160888780Y-158846980D01*
X160888780Y-158656504D01*
X160841161Y-158561266D01*
X160793542Y-158513647D01*
X160698304Y-158466028D01*
X159888780Y-158466028D01*
X159888780Y-158132695D02*
X159888780Y-157561266D01*
X160888780Y-157846980D02*
X159888780Y-157846980D01*
X160898780Y-153627814D02*
X159898780Y-153627814D01*
X160898780Y-153151623D02*
X159898780Y-153151623D01*
X160898780Y-152580195D01*
X159898780Y-152580195D01*
D11*
X126886400Y-153984600D02*
X126886400Y-152854600D01*
D10*
X178851638Y-52991742D02*
X178804019Y-53039361D01*
X178661161Y-53086980D01*
X178565923Y-53086980D01*
X178423066Y-53039361D01*
X178327828Y-52944123D01*
X178280209Y-52848885D01*
X178232590Y-52658409D01*
X178232590Y-52515552D01*
X178280209Y-52325076D01*
X178327828Y-52229838D01*
X178423066Y-52134600D01*
X178565923Y-52086980D01*
X178661161Y-52086980D01*
X178804019Y-52134600D01*
X178851638Y-52182219D01*
X179423066Y-53086980D02*
X179327828Y-53039361D01*
X179280209Y-52991742D01*
X179232590Y-52896504D01*
X179232590Y-52610790D01*
X179280209Y-52515552D01*
X179327828Y-52467933D01*
X179423066Y-52420314D01*
X179565923Y-52420314D01*
X179661161Y-52467933D01*
X179708780Y-52515552D01*
X179756400Y-52610790D01*
X179756400Y-52896504D01*
X179708780Y-52991742D01*
X179661161Y-53039361D01*
X179565923Y-53086980D01*
X179423066Y-53086980D01*
X180184971Y-52420314D02*
X180184971Y-53086980D01*
X180184971Y-52515552D02*
X180232590Y-52467933D01*
X180327828Y-52420314D01*
X180470685Y-52420314D01*
X180565923Y-52467933D01*
X180613542Y-52563171D01*
X180613542Y-53086980D01*
X180946876Y-52420314D02*
X181327828Y-52420314D01*
X181089733Y-52086980D02*
X181089733Y-52944123D01*
X181137352Y-53039361D01*
X181232590Y-53086980D01*
X181327828Y-53086980D01*
X181661161Y-53086980D02*
X181661161Y-52420314D01*
X181661161Y-52610790D02*
X181708780Y-52515552D01*
X181756400Y-52467933D01*
X181851638Y-52420314D01*
X181946876Y-52420314D01*
X182423066Y-53086980D02*
X182327828Y-53039361D01*
X182280209Y-52991742D01*
X182232590Y-52896504D01*
X182232590Y-52610790D01*
X182280209Y-52515552D01*
X182327828Y-52467933D01*
X182423066Y-52420314D01*
X182565923Y-52420314D01*
X182661161Y-52467933D01*
X182708780Y-52515552D01*
X182756400Y-52610790D01*
X182756400Y-52896504D01*
X182708780Y-52991742D01*
X182661161Y-53039361D01*
X182565923Y-53086980D01*
X182423066Y-53086980D01*
X183327828Y-53086980D02*
X183232590Y-53039361D01*
X183184971Y-52944123D01*
X183184971Y-52086980D01*
D11*
X113246400Y-52794600D02*
X113916400Y-52794600D01*
X113246400Y-51004600D02*
X113246400Y-52794600D01*
X113266400Y-41464600D02*
X113896400Y-41464600D01*
X113266400Y-43834600D02*
X113266400Y-41464600D01*
D10*
X113523066Y-50658290D02*
X113523066Y-50182100D01*
X113808780Y-50753528D02*
X112808780Y-50420195D01*
X113808780Y-50086861D01*
X113808780Y-49753528D02*
X112808780Y-49753528D01*
X112808780Y-49515433D01*
X112856400Y-49372576D01*
X112951638Y-49277338D01*
X113046876Y-49229719D01*
X113237352Y-49182100D01*
X113380209Y-49182100D01*
X113570685Y-49229719D01*
X113665923Y-49277338D01*
X113761161Y-49372576D01*
X113808780Y-49515433D01*
X113808780Y-49753528D01*
X113808780Y-48753528D02*
X112808780Y-48753528D01*
X112808780Y-48515433D01*
X112856400Y-48372576D01*
X112951638Y-48277338D01*
X113046876Y-48229719D01*
X113237352Y-48182100D01*
X113380209Y-48182100D01*
X113570685Y-48229719D01*
X113665923Y-48277338D01*
X113761161Y-48372576D01*
X113808780Y-48515433D01*
X113808780Y-48753528D01*
X113808780Y-47182100D02*
X113332590Y-47515433D01*
X113808780Y-47753528D02*
X112808780Y-47753528D01*
X112808780Y-47372576D01*
X112856400Y-47277338D01*
X112904019Y-47229719D01*
X112999257Y-47182100D01*
X113142114Y-47182100D01*
X113237352Y-47229719D01*
X113284971Y-47277338D01*
X113332590Y-47372576D01*
X113332590Y-47753528D01*
X113284971Y-46753528D02*
X113284971Y-46420195D01*
X113808780Y-46277338D02*
X113808780Y-46753528D01*
X112808780Y-46753528D01*
X112808780Y-46277338D01*
X113761161Y-45896385D02*
X113808780Y-45753528D01*
X113808780Y-45515433D01*
X113761161Y-45420195D01*
X113713542Y-45372576D01*
X113618304Y-45324957D01*
X113523066Y-45324957D01*
X113427828Y-45372576D01*
X113380209Y-45420195D01*
X113332590Y-45515433D01*
X113284971Y-45705909D01*
X113237352Y-45801147D01*
X113189733Y-45848766D01*
X113094495Y-45896385D01*
X112999257Y-45896385D01*
X112904019Y-45848766D01*
X112856400Y-45801147D01*
X112808780Y-45705909D01*
X112808780Y-45467814D01*
X112856400Y-45324957D01*
X113761161Y-44944004D02*
X113808780Y-44801147D01*
X113808780Y-44563052D01*
X113761161Y-44467814D01*
X113713542Y-44420195D01*
X113618304Y-44372576D01*
X113523066Y-44372576D01*
X113427828Y-44420195D01*
X113380209Y-44467814D01*
X113332590Y-44563052D01*
X113284971Y-44753528D01*
X113237352Y-44848766D01*
X113189733Y-44896385D01*
X113094495Y-44944004D01*
X112999257Y-44944004D01*
X112904019Y-44896385D01*
X112856400Y-44848766D01*
X112808780Y-44753528D01*
X112808780Y-44515433D01*
X112856400Y-44372576D01*
X156233066Y-48934600D02*
X156499733Y-48934600D01*
X156333066Y-48701266D02*
X156333066Y-49301266D01*
X156366400Y-49367933D01*
X156433066Y-49401266D01*
X156499733Y-49401266D01*
X156733066Y-49401266D02*
X156733066Y-48701266D01*
X157033066Y-49401266D02*
X157033066Y-49034600D01*
X156999733Y-48967933D01*
X156933066Y-48934600D01*
X156833066Y-48934600D01*
X156766400Y-48967933D01*
X156733066Y-49001266D01*
X157633066Y-49367933D02*
X157566400Y-49401266D01*
X157433066Y-49401266D01*
X157366400Y-49367933D01*
X157333066Y-49301266D01*
X157333066Y-49034600D01*
X157366400Y-48967933D01*
X157433066Y-48934600D01*
X157566400Y-48934600D01*
X157633066Y-48967933D01*
X157666400Y-49034600D01*
X157666400Y-49101266D01*
X157333066Y-49167933D01*
X157899733Y-48701266D02*
X158066400Y-49401266D01*
X158199733Y-48901266D01*
X158333066Y-49401266D01*
X158499733Y-48701266D01*
X158766400Y-49401266D02*
X158766400Y-48934600D01*
X158766400Y-48701266D02*
X158733066Y-48734600D01*
X158766400Y-48767933D01*
X158799733Y-48734600D01*
X158766400Y-48701266D01*
X158766400Y-48767933D01*
X159399733Y-49367933D02*
X159333066Y-49401266D01*
X159199733Y-49401266D01*
X159133066Y-49367933D01*
X159099733Y-49334600D01*
X159066400Y-49267933D01*
X159066400Y-49067933D01*
X159099733Y-49001266D01*
X159133066Y-48967933D01*
X159199733Y-48934600D01*
X159333066Y-48934600D01*
X159399733Y-48967933D01*
X159699733Y-49401266D02*
X159699733Y-48701266D01*
X159766400Y-49134600D02*
X159966400Y-49401266D01*
X159966400Y-48934600D02*
X159699733Y-49201266D01*
X160533066Y-49367933D02*
X160466400Y-49401266D01*
X160333066Y-49401266D01*
X160266400Y-49367933D01*
X160233066Y-49301266D01*
X160233066Y-49034600D01*
X160266400Y-48967933D01*
X160333066Y-48934600D01*
X160466400Y-48934600D01*
X160533066Y-48967933D01*
X160566400Y-49034600D01*
X160566400Y-49101266D01*
X160233066Y-49167933D01*
X161166400Y-49401266D02*
X161166400Y-48701266D01*
X161166400Y-49367933D02*
X161099733Y-49401266D01*
X160966400Y-49401266D01*
X160899733Y-49367933D01*
X160866400Y-49334600D01*
X160833066Y-49267933D01*
X160833066Y-49067933D01*
X160866400Y-49001266D01*
X160899733Y-48967933D01*
X160966400Y-48934600D01*
X161099733Y-48934600D01*
X161166400Y-48967933D01*
X161433066Y-48701266D02*
X161599733Y-49401266D01*
X161733066Y-48901266D01*
X161866400Y-49401266D01*
X162033066Y-48701266D01*
X162566400Y-49367933D02*
X162499733Y-49401266D01*
X162366400Y-49401266D01*
X162299733Y-49367933D01*
X162266400Y-49301266D01*
X162266400Y-49034600D01*
X162299733Y-48967933D01*
X162366400Y-48934600D01*
X162499733Y-48934600D01*
X162566400Y-48967933D01*
X162599733Y-49034600D01*
X162599733Y-49101266D01*
X162266400Y-49167933D01*
X162899733Y-49401266D02*
X162899733Y-48701266D01*
X162899733Y-48967933D02*
X162966400Y-48934600D01*
X163099733Y-48934600D01*
X163166400Y-48967933D01*
X163199733Y-49001266D01*
X163233066Y-49067933D01*
X163233066Y-49267933D01*
X163199733Y-49334600D01*
X163166400Y-49367933D01*
X163099733Y-49401266D01*
X162966400Y-49401266D01*
X162899733Y-49367933D01*
X163533066Y-49401266D02*
X163533066Y-48701266D01*
X163699733Y-48701266D01*
X163799733Y-48734600D01*
X163866400Y-48801266D01*
X163899733Y-48867933D01*
X163933066Y-49001266D01*
X163933066Y-49101266D01*
X163899733Y-49234600D01*
X163866400Y-49301266D01*
X163799733Y-49367933D01*
X163699733Y-49401266D01*
X163533066Y-49401266D01*
X164499733Y-49367933D02*
X164433066Y-49401266D01*
X164299733Y-49401266D01*
X164233066Y-49367933D01*
X164199733Y-49301266D01*
X164199733Y-49034600D01*
X164233066Y-48967933D01*
X164299733Y-48934600D01*
X164433066Y-48934600D01*
X164499733Y-48967933D01*
X164533066Y-49034600D01*
X164533066Y-49101266D01*
X164199733Y-49167933D01*
X164766400Y-48934600D02*
X164933066Y-49401266D01*
X165099733Y-48934600D01*
X165866400Y-48667933D02*
X165266400Y-49567933D01*
X166199733Y-49001266D02*
X166133066Y-48967933D01*
X166099733Y-48934600D01*
X166066400Y-48867933D01*
X166066400Y-48834600D01*
X166099733Y-48767933D01*
X166133066Y-48734600D01*
X166199733Y-48701266D01*
X166333066Y-48701266D01*
X166399733Y-48734600D01*
X166433066Y-48767933D01*
X166466400Y-48834600D01*
X166466400Y-48867933D01*
X166433066Y-48934600D01*
X166399733Y-48967933D01*
X166333066Y-49001266D01*
X166199733Y-49001266D01*
X166133066Y-49034600D01*
X166099733Y-49067933D01*
X166066400Y-49134600D01*
X166066400Y-49267933D01*
X166099733Y-49334600D01*
X166133066Y-49367933D01*
X166199733Y-49401266D01*
X166333066Y-49401266D01*
X166399733Y-49367933D01*
X166433066Y-49334600D01*
X166466400Y-49267933D01*
X166466400Y-49134600D01*
X166433066Y-49067933D01*
X166399733Y-49034600D01*
X166333066Y-49001266D01*
X166766400Y-49134600D02*
X167299733Y-49134600D01*
X167633066Y-49401266D02*
X167633066Y-48701266D01*
X167633066Y-48967933D02*
X167699733Y-48934600D01*
X167833066Y-48934600D01*
X167899733Y-48967933D01*
X167933066Y-49001266D01*
X167966400Y-49067933D01*
X167966400Y-49267933D01*
X167933066Y-49334600D01*
X167899733Y-49367933D01*
X167833066Y-49401266D01*
X167699733Y-49401266D01*
X167633066Y-49367933D01*
X168266400Y-49401266D02*
X168266400Y-48934600D01*
X168266400Y-48701266D02*
X168233066Y-48734600D01*
X168266400Y-48767933D01*
X168299733Y-48734600D01*
X168266400Y-48701266D01*
X168266400Y-48767933D01*
X168499733Y-48934600D02*
X168766400Y-48934600D01*
X168599733Y-48701266D02*
X168599733Y-49301266D01*
X168633066Y-49367933D01*
X168699733Y-49401266D01*
X168766400Y-49401266D01*
X168999733Y-49134600D02*
X169533066Y-49134600D01*
X170166400Y-49367933D02*
X170099733Y-49401266D01*
X169966400Y-49401266D01*
X169899733Y-49367933D01*
X169866400Y-49334600D01*
X169833066Y-49267933D01*
X169833066Y-49067933D01*
X169866400Y-49001266D01*
X169899733Y-48967933D01*
X169966400Y-48934600D01*
X170099733Y-48934600D01*
X170166400Y-48967933D01*
X170566400Y-49401266D02*
X170499733Y-49367933D01*
X170466400Y-49334600D01*
X170433066Y-49267933D01*
X170433066Y-49067933D01*
X170466400Y-49001266D01*
X170499733Y-48967933D01*
X170566400Y-48934600D01*
X170666400Y-48934600D01*
X170733066Y-48967933D01*
X170766400Y-49001266D01*
X170799733Y-49067933D01*
X170799733Y-49267933D01*
X170766400Y-49334600D01*
X170733066Y-49367933D01*
X170666400Y-49401266D01*
X170566400Y-49401266D01*
X171099733Y-49401266D02*
X171099733Y-48934600D01*
X171099733Y-49001266D02*
X171133066Y-48967933D01*
X171199733Y-48934600D01*
X171299733Y-48934600D01*
X171366400Y-48967933D01*
X171399733Y-49034600D01*
X171399733Y-49401266D01*
X171399733Y-49034600D02*
X171433066Y-48967933D01*
X171499733Y-48934600D01*
X171599733Y-48934600D01*
X171666400Y-48967933D01*
X171699733Y-49034600D01*
X171699733Y-49401266D01*
X172033066Y-48934600D02*
X172033066Y-49634600D01*
X172033066Y-48967933D02*
X172099733Y-48934600D01*
X172233066Y-48934600D01*
X172299733Y-48967933D01*
X172333066Y-49001266D01*
X172366400Y-49067933D01*
X172366400Y-49267933D01*
X172333066Y-49334600D01*
X172299733Y-49367933D01*
X172233066Y-49401266D01*
X172099733Y-49401266D01*
X172033066Y-49367933D01*
X172966400Y-48934600D02*
X172966400Y-49401266D01*
X172666400Y-48934600D02*
X172666400Y-49301266D01*
X172699733Y-49367933D01*
X172766400Y-49401266D01*
X172866400Y-49401266D01*
X172933066Y-49367933D01*
X172966400Y-49334600D01*
X173199733Y-48934600D02*
X173466400Y-48934600D01*
X173299733Y-48701266D02*
X173299733Y-49301266D01*
X173333066Y-49367933D01*
X173399733Y-49401266D01*
X173466400Y-49401266D01*
X173966400Y-49367933D02*
X173899733Y-49401266D01*
X173766400Y-49401266D01*
X173699733Y-49367933D01*
X173666400Y-49301266D01*
X173666400Y-49034600D01*
X173699733Y-48967933D01*
X173766400Y-48934600D01*
X173899733Y-48934600D01*
X173966400Y-48967933D01*
X173999733Y-49034600D01*
X173999733Y-49101266D01*
X173666400Y-49167933D01*
X174299733Y-49401266D02*
X174299733Y-48934600D01*
X174299733Y-49067933D02*
X174333066Y-49001266D01*
X174366400Y-48967933D01*
X174433066Y-48934600D01*
X174499733Y-48934600D01*
X164435447Y-47886980D02*
X164435447Y-46886980D01*
X164768780Y-47601266D01*
X165102114Y-46886980D01*
X165102114Y-47886980D01*
X165721161Y-47886980D02*
X165625923Y-47839361D01*
X165578304Y-47791742D01*
X165530685Y-47696504D01*
X165530685Y-47410790D01*
X165578304Y-47315552D01*
X165625923Y-47267933D01*
X165721161Y-47220314D01*
X165864019Y-47220314D01*
X165959257Y-47267933D01*
X166006876Y-47315552D01*
X166054495Y-47410790D01*
X166054495Y-47696504D01*
X166006876Y-47791742D01*
X165959257Y-47839361D01*
X165864019Y-47886980D01*
X165721161Y-47886980D01*
X166911638Y-47886980D02*
X166911638Y-46886980D01*
X166911638Y-47839361D02*
X166816400Y-47886980D01*
X166625923Y-47886980D01*
X166530685Y-47839361D01*
X166483066Y-47791742D01*
X166435447Y-47696504D01*
X166435447Y-47410790D01*
X166483066Y-47315552D01*
X166530685Y-47267933D01*
X166625923Y-47220314D01*
X166816400Y-47220314D01*
X166911638Y-47267933D01*
X167816400Y-47220314D02*
X167816400Y-47886980D01*
X167387828Y-47220314D02*
X167387828Y-47744123D01*
X167435447Y-47839361D01*
X167530685Y-47886980D01*
X167673542Y-47886980D01*
X167768780Y-47839361D01*
X167816400Y-47791742D01*
X168435447Y-47886980D02*
X168340209Y-47839361D01*
X168292590Y-47744123D01*
X168292590Y-46886980D01*
X169197352Y-47839361D02*
X169102114Y-47886980D01*
X168911638Y-47886980D01*
X168816400Y-47839361D01*
X168768780Y-47744123D01*
X168768780Y-47363171D01*
X168816400Y-47267933D01*
X168911638Y-47220314D01*
X169102114Y-47220314D01*
X169197352Y-47267933D01*
X169244971Y-47363171D01*
X169244971Y-47458409D01*
X168768780Y-47553647D01*
X156309257Y-44271742D02*
X156309257Y-47271742D01*
X157737828Y-45843171D02*
X157880685Y-46128885D01*
X158166400Y-46271742D01*
X156309257Y-45843171D02*
X156452114Y-46128885D01*
X156737828Y-46271742D01*
X157309257Y-46271742D01*
X157594971Y-46128885D01*
X157737828Y-45843171D01*
X157737828Y-44271742D01*
X161166400Y-45986028D02*
X161023542Y-46128885D01*
X160594971Y-46271742D01*
X160309257Y-46271742D01*
X159880685Y-46128885D01*
X159594971Y-45843171D01*
X159452114Y-45557457D01*
X159309257Y-44986028D01*
X159309257Y-44557457D01*
X159452114Y-43986028D01*
X159594971Y-43700314D01*
X159880685Y-43414600D01*
X160309257Y-43271742D01*
X160594971Y-43271742D01*
X161023542Y-43414600D01*
X161166400Y-43557457D01*
X162880685Y-46271742D02*
X162594971Y-46128885D01*
X162452114Y-45986028D01*
X162309257Y-45700314D01*
X162309257Y-44843171D01*
X162452114Y-44557457D01*
X162594971Y-44414600D01*
X162880685Y-44271742D01*
X163309257Y-44271742D01*
X163594971Y-44414600D01*
X163737828Y-44557457D01*
X163880685Y-44843171D01*
X163880685Y-45700314D01*
X163737828Y-45986028D01*
X163594971Y-46128885D01*
X163309257Y-46271742D01*
X162880685Y-46271742D01*
X166452114Y-46271742D02*
X166452114Y-43271742D01*
X166452114Y-46128885D02*
X166166400Y-46271742D01*
X165594971Y-46271742D01*
X165309257Y-46128885D01*
X165166400Y-45986028D01*
X165023542Y-45700314D01*
X165023542Y-44843171D01*
X165166400Y-44557457D01*
X165309257Y-44414600D01*
X165594971Y-44271742D01*
X166166400Y-44271742D01*
X166452114Y-44414600D01*
X169023542Y-46128885D02*
X168737828Y-46271742D01*
X168166400Y-46271742D01*
X167880685Y-46128885D01*
X167737828Y-45843171D01*
X167737828Y-44700314D01*
X167880685Y-44414600D01*
X168166400Y-44271742D01*
X168737828Y-44271742D01*
X169023542Y-44414600D01*
X169166400Y-44700314D01*
X169166400Y-44986028D01*
X167737828Y-45271742D01*
X152771161Y-53023052D02*
X152818780Y-52880195D01*
X152818780Y-52642100D01*
X152771161Y-52546861D01*
X152723542Y-52499242D01*
X152628304Y-52451623D01*
X152533066Y-52451623D01*
X152437828Y-52499242D01*
X152390209Y-52546861D01*
X152342590Y-52642100D01*
X152294971Y-52832576D01*
X152247352Y-52927814D01*
X152199733Y-52975433D01*
X152104495Y-53023052D01*
X152009257Y-53023052D01*
X151914019Y-52975433D01*
X151866400Y-52927814D01*
X151818780Y-52832576D01*
X151818780Y-52594480D01*
X151866400Y-52451623D01*
X151818780Y-52165909D02*
X151818780Y-51594480D01*
X152818780Y-51880195D02*
X151818780Y-51880195D01*
X152294971Y-51261147D02*
X152294971Y-50927814D01*
X152818780Y-50784957D02*
X152818780Y-51261147D01*
X151818780Y-51261147D01*
X151818780Y-50784957D01*
X152818780Y-50356385D02*
X151818780Y-50356385D01*
X151818780Y-49975433D01*
X151866400Y-49880195D01*
X151914019Y-49832576D01*
X152009257Y-49784957D01*
X152152114Y-49784957D01*
X152247352Y-49832576D01*
X152294971Y-49880195D01*
X152342590Y-49975433D01*
X152342590Y-50356385D01*
X152818780Y-48832576D02*
X152818780Y-49404004D01*
X152818780Y-49118290D02*
X151818780Y-49118290D01*
X151961638Y-49213528D01*
X152056876Y-49308766D01*
X152104495Y-49404004D01*
X150231161Y-53023052D02*
X150278780Y-52880195D01*
X150278780Y-52642100D01*
X150231161Y-52546861D01*
X150183542Y-52499242D01*
X150088304Y-52451623D01*
X149993066Y-52451623D01*
X149897828Y-52499242D01*
X149850209Y-52546861D01*
X149802590Y-52642100D01*
X149754971Y-52832576D01*
X149707352Y-52927814D01*
X149659733Y-52975433D01*
X149564495Y-53023052D01*
X149469257Y-53023052D01*
X149374019Y-52975433D01*
X149326400Y-52927814D01*
X149278780Y-52832576D01*
X149278780Y-52594480D01*
X149326400Y-52451623D01*
X149278780Y-52165909D02*
X149278780Y-51594480D01*
X150278780Y-51880195D02*
X149278780Y-51880195D01*
X149754971Y-51261147D02*
X149754971Y-50927814D01*
X150278780Y-50784957D02*
X150278780Y-51261147D01*
X149278780Y-51261147D01*
X149278780Y-50784957D01*
X150278780Y-50356385D02*
X149278780Y-50356385D01*
X149278780Y-49975433D01*
X149326400Y-49880195D01*
X149374019Y-49832576D01*
X149469257Y-49784957D01*
X149612114Y-49784957D01*
X149707352Y-49832576D01*
X149754971Y-49880195D01*
X149802590Y-49975433D01*
X149802590Y-50356385D01*
X149374019Y-49404004D02*
X149326400Y-49356385D01*
X149278780Y-49261147D01*
X149278780Y-49023052D01*
X149326400Y-48927814D01*
X149374019Y-48880195D01*
X149469257Y-48832576D01*
X149564495Y-48832576D01*
X149707352Y-48880195D01*
X150278780Y-49451623D01*
X150278780Y-48832576D01*
X147691161Y-53023052D02*
X147738780Y-52880195D01*
X147738780Y-52642100D01*
X147691161Y-52546861D01*
X147643542Y-52499242D01*
X147548304Y-52451623D01*
X147453066Y-52451623D01*
X147357828Y-52499242D01*
X147310209Y-52546861D01*
X147262590Y-52642100D01*
X147214971Y-52832576D01*
X147167352Y-52927814D01*
X147119733Y-52975433D01*
X147024495Y-53023052D01*
X146929257Y-53023052D01*
X146834019Y-52975433D01*
X146786400Y-52927814D01*
X146738780Y-52832576D01*
X146738780Y-52594480D01*
X146786400Y-52451623D01*
X146738780Y-52165909D02*
X146738780Y-51594480D01*
X147738780Y-51880195D02*
X146738780Y-51880195D01*
X147214971Y-51261147D02*
X147214971Y-50927814D01*
X147738780Y-50784957D02*
X147738780Y-51261147D01*
X146738780Y-51261147D01*
X146738780Y-50784957D01*
X147738780Y-50356385D02*
X146738780Y-50356385D01*
X146738780Y-49975433D01*
X146786400Y-49880195D01*
X146834019Y-49832576D01*
X146929257Y-49784957D01*
X147072114Y-49784957D01*
X147167352Y-49832576D01*
X147214971Y-49880195D01*
X147262590Y-49975433D01*
X147262590Y-50356385D01*
X146738780Y-49451623D02*
X146738780Y-48832576D01*
X147119733Y-49165909D01*
X147119733Y-49023052D01*
X147167352Y-48927814D01*
X147214971Y-48880195D01*
X147310209Y-48832576D01*
X147548304Y-48832576D01*
X147643542Y-48880195D01*
X147691161Y-48927814D01*
X147738780Y-49023052D01*
X147738780Y-49308766D01*
X147691161Y-49404004D01*
X147643542Y-49451623D01*
X144674971Y-52546861D02*
X144674971Y-52880195D01*
X145198780Y-52880195D02*
X144198780Y-52880195D01*
X144198780Y-52404004D01*
X145198780Y-51546861D02*
X145198780Y-52023052D01*
X144198780Y-52023052D01*
X144913066Y-51261147D02*
X144913066Y-50784957D01*
X145198780Y-51356385D02*
X144198780Y-51023052D01*
X145198780Y-50689719D01*
X144246400Y-49832576D02*
X144198780Y-49927814D01*
X144198780Y-50070671D01*
X144246400Y-50213528D01*
X144341638Y-50308766D01*
X144436876Y-50356385D01*
X144627352Y-50404004D01*
X144770209Y-50404004D01*
X144960685Y-50356385D01*
X145055923Y-50308766D01*
X145151161Y-50213528D01*
X145198780Y-50070671D01*
X145198780Y-49975433D01*
X145151161Y-49832576D01*
X145103542Y-49784957D01*
X144770209Y-49784957D01*
X144770209Y-49975433D01*
X145198780Y-48832576D02*
X145198780Y-49404004D01*
X145198780Y-49118290D02*
X144198780Y-49118290D01*
X144341638Y-49213528D01*
X144436876Y-49308766D01*
X144484495Y-49404004D01*
X142134971Y-52546861D02*
X142134971Y-52880195D01*
X142658780Y-52880195D02*
X141658780Y-52880195D01*
X141658780Y-52404004D01*
X142658780Y-51546861D02*
X142658780Y-52023052D01*
X141658780Y-52023052D01*
X142373066Y-51261147D02*
X142373066Y-50784957D01*
X142658780Y-51356385D02*
X141658780Y-51023052D01*
X142658780Y-50689719D01*
X141706400Y-49832576D02*
X141658780Y-49927814D01*
X141658780Y-50070671D01*
X141706400Y-50213528D01*
X141801638Y-50308766D01*
X141896876Y-50356385D01*
X142087352Y-50404004D01*
X142230209Y-50404004D01*
X142420685Y-50356385D01*
X142515923Y-50308766D01*
X142611161Y-50213528D01*
X142658780Y-50070671D01*
X142658780Y-49975433D01*
X142611161Y-49832576D01*
X142563542Y-49784957D01*
X142230209Y-49784957D01*
X142230209Y-49975433D01*
X141754019Y-49404004D02*
X141706400Y-49356385D01*
X141658780Y-49261147D01*
X141658780Y-49023052D01*
X141706400Y-48927814D01*
X141754019Y-48880195D01*
X141849257Y-48832576D01*
X141944495Y-48832576D01*
X142087352Y-48880195D01*
X142658780Y-49451623D01*
X142658780Y-48832576D01*
X139594971Y-52546861D02*
X139594971Y-52880195D01*
X140118780Y-52880195D02*
X139118780Y-52880195D01*
X139118780Y-52404004D01*
X140118780Y-51546861D02*
X140118780Y-52023052D01*
X139118780Y-52023052D01*
X139833066Y-51261147D02*
X139833066Y-50784957D01*
X140118780Y-51356385D02*
X139118780Y-51023052D01*
X140118780Y-50689719D01*
X139166400Y-49832576D02*
X139118780Y-49927814D01*
X139118780Y-50070671D01*
X139166400Y-50213528D01*
X139261638Y-50308766D01*
X139356876Y-50356385D01*
X139547352Y-50404004D01*
X139690209Y-50404004D01*
X139880685Y-50356385D01*
X139975923Y-50308766D01*
X140071161Y-50213528D01*
X140118780Y-50070671D01*
X140118780Y-49975433D01*
X140071161Y-49832576D01*
X140023542Y-49784957D01*
X139690209Y-49784957D01*
X139690209Y-49975433D01*
X139118780Y-49451623D02*
X139118780Y-48832576D01*
X139499733Y-49165909D01*
X139499733Y-49023052D01*
X139547352Y-48927814D01*
X139594971Y-48880195D01*
X139690209Y-48832576D01*
X139928304Y-48832576D01*
X140023542Y-48880195D01*
X140071161Y-48927814D01*
X140118780Y-49023052D01*
X140118780Y-49308766D01*
X140071161Y-49404004D01*
X140023542Y-49451623D01*
X137054971Y-52546861D02*
X137054971Y-52880195D01*
X137578780Y-52880195D02*
X136578780Y-52880195D01*
X136578780Y-52404004D01*
X137578780Y-51546861D02*
X137578780Y-52023052D01*
X136578780Y-52023052D01*
X137293066Y-51261147D02*
X137293066Y-50784957D01*
X137578780Y-51356385D02*
X136578780Y-51023052D01*
X137578780Y-50689719D01*
X136626400Y-49832576D02*
X136578780Y-49927814D01*
X136578780Y-50070671D01*
X136626400Y-50213528D01*
X136721638Y-50308766D01*
X136816876Y-50356385D01*
X137007352Y-50404004D01*
X137150209Y-50404004D01*
X137340685Y-50356385D01*
X137435923Y-50308766D01*
X137531161Y-50213528D01*
X137578780Y-50070671D01*
X137578780Y-49975433D01*
X137531161Y-49832576D01*
X137483542Y-49784957D01*
X137150209Y-49784957D01*
X137150209Y-49975433D01*
X136912114Y-48927814D02*
X137578780Y-48927814D01*
X136531161Y-49165909D02*
X137245447Y-49404004D01*
X137245447Y-48784957D01*
X135038780Y-52594480D02*
X134038780Y-52594480D01*
X135038780Y-52118290D02*
X134038780Y-52118290D01*
X135038780Y-51546861D01*
X134038780Y-51546861D01*
X134991161Y-51118290D02*
X135038780Y-50975433D01*
X135038780Y-50737338D01*
X134991161Y-50642100D01*
X134943542Y-50594480D01*
X134848304Y-50546861D01*
X134753066Y-50546861D01*
X134657828Y-50594480D01*
X134610209Y-50642100D01*
X134562590Y-50737338D01*
X134514971Y-50927814D01*
X134467352Y-51023052D01*
X134419733Y-51070671D01*
X134324495Y-51118290D01*
X134229257Y-51118290D01*
X134134019Y-51070671D01*
X134086400Y-51023052D01*
X134038780Y-50927814D01*
X134038780Y-50689719D01*
X134086400Y-50546861D01*
X134038780Y-50261147D02*
X134038780Y-49689719D01*
X135038780Y-49975433D02*
X134038780Y-49975433D01*
X135038780Y-48832576D02*
X135038780Y-49404004D01*
X135038780Y-49118290D02*
X134038780Y-49118290D01*
X134181638Y-49213528D01*
X134276876Y-49308766D01*
X134324495Y-49404004D01*
X132498780Y-52594480D02*
X131498780Y-52594480D01*
X132498780Y-52118290D02*
X131498780Y-52118290D01*
X132498780Y-51546861D01*
X131498780Y-51546861D01*
X132451161Y-51118290D02*
X132498780Y-50975433D01*
X132498780Y-50737338D01*
X132451161Y-50642100D01*
X132403542Y-50594480D01*
X132308304Y-50546861D01*
X132213066Y-50546861D01*
X132117828Y-50594480D01*
X132070209Y-50642100D01*
X132022590Y-50737338D01*
X131974971Y-50927814D01*
X131927352Y-51023052D01*
X131879733Y-51070671D01*
X131784495Y-51118290D01*
X131689257Y-51118290D01*
X131594019Y-51070671D01*
X131546400Y-51023052D01*
X131498780Y-50927814D01*
X131498780Y-50689719D01*
X131546400Y-50546861D01*
X131498780Y-50261147D02*
X131498780Y-49689719D01*
X132498780Y-49975433D02*
X131498780Y-49975433D01*
X131594019Y-49404004D02*
X131546400Y-49356385D01*
X131498780Y-49261147D01*
X131498780Y-49023052D01*
X131546400Y-48927814D01*
X131594019Y-48880195D01*
X131689257Y-48832576D01*
X131784495Y-48832576D01*
X131927352Y-48880195D01*
X132498780Y-49451623D01*
X132498780Y-48832576D01*
X129958780Y-52594480D02*
X128958780Y-52594480D01*
X129958780Y-52118290D02*
X128958780Y-52118290D01*
X129958780Y-51546861D01*
X128958780Y-51546861D01*
X129911161Y-51118290D02*
X129958780Y-50975433D01*
X129958780Y-50737338D01*
X129911161Y-50642100D01*
X129863542Y-50594480D01*
X129768304Y-50546861D01*
X129673066Y-50546861D01*
X129577828Y-50594480D01*
X129530209Y-50642100D01*
X129482590Y-50737338D01*
X129434971Y-50927814D01*
X129387352Y-51023052D01*
X129339733Y-51070671D01*
X129244495Y-51118290D01*
X129149257Y-51118290D01*
X129054019Y-51070671D01*
X129006400Y-51023052D01*
X128958780Y-50927814D01*
X128958780Y-50689719D01*
X129006400Y-50546861D01*
X128958780Y-50261147D02*
X128958780Y-49689719D01*
X129958780Y-49975433D02*
X128958780Y-49975433D01*
X128958780Y-49451623D02*
X128958780Y-48832576D01*
X129339733Y-49165909D01*
X129339733Y-49023052D01*
X129387352Y-48927814D01*
X129434971Y-48880195D01*
X129530209Y-48832576D01*
X129768304Y-48832576D01*
X129863542Y-48880195D01*
X129911161Y-48927814D01*
X129958780Y-49023052D01*
X129958780Y-49308766D01*
X129911161Y-49404004D01*
X129863542Y-49451623D01*
X127418780Y-52594480D02*
X126418780Y-52594480D01*
X127418780Y-52118290D02*
X126418780Y-52118290D01*
X127418780Y-51546861D01*
X126418780Y-51546861D01*
X127371161Y-51118290D02*
X127418780Y-50975433D01*
X127418780Y-50737338D01*
X127371161Y-50642100D01*
X127323542Y-50594480D01*
X127228304Y-50546861D01*
X127133066Y-50546861D01*
X127037828Y-50594480D01*
X126990209Y-50642100D01*
X126942590Y-50737338D01*
X126894971Y-50927814D01*
X126847352Y-51023052D01*
X126799733Y-51070671D01*
X126704495Y-51118290D01*
X126609257Y-51118290D01*
X126514019Y-51070671D01*
X126466400Y-51023052D01*
X126418780Y-50927814D01*
X126418780Y-50689719D01*
X126466400Y-50546861D01*
X126418780Y-50261147D02*
X126418780Y-49689719D01*
X127418780Y-49975433D02*
X126418780Y-49975433D01*
X126752114Y-48927814D02*
X127418780Y-48927814D01*
X126371161Y-49165909D02*
X127085447Y-49404004D01*
X127085447Y-48784957D01*
X124878780Y-52594480D02*
X123878780Y-52594480D01*
X124878780Y-52118290D02*
X123878780Y-52118290D01*
X124878780Y-51546861D01*
X123878780Y-51546861D01*
X124831161Y-51118290D02*
X124878780Y-50975433D01*
X124878780Y-50737338D01*
X124831161Y-50642100D01*
X124783542Y-50594480D01*
X124688304Y-50546861D01*
X124593066Y-50546861D01*
X124497828Y-50594480D01*
X124450209Y-50642100D01*
X124402590Y-50737338D01*
X124354971Y-50927814D01*
X124307352Y-51023052D01*
X124259733Y-51070671D01*
X124164495Y-51118290D01*
X124069257Y-51118290D01*
X123974019Y-51070671D01*
X123926400Y-51023052D01*
X123878780Y-50927814D01*
X123878780Y-50689719D01*
X123926400Y-50546861D01*
X123878780Y-50261147D02*
X123878780Y-49689719D01*
X124878780Y-49975433D02*
X123878780Y-49975433D01*
X123878780Y-48880195D02*
X123878780Y-49356385D01*
X124354971Y-49404004D01*
X124307352Y-49356385D01*
X124259733Y-49261147D01*
X124259733Y-49023052D01*
X124307352Y-48927814D01*
X124354971Y-48880195D01*
X124450209Y-48832576D01*
X124688304Y-48832576D01*
X124783542Y-48880195D01*
X124831161Y-48927814D01*
X124878780Y-49023052D01*
X124878780Y-49261147D01*
X124831161Y-49356385D01*
X124783542Y-49404004D01*
X122338780Y-52594480D02*
X121338780Y-52594480D01*
X122338780Y-52118290D02*
X121338780Y-52118290D01*
X122338780Y-51546861D01*
X121338780Y-51546861D01*
X122291161Y-51118290D02*
X122338780Y-50975433D01*
X122338780Y-50737338D01*
X122291161Y-50642100D01*
X122243542Y-50594480D01*
X122148304Y-50546861D01*
X122053066Y-50546861D01*
X121957828Y-50594480D01*
X121910209Y-50642100D01*
X121862590Y-50737338D01*
X121814971Y-50927814D01*
X121767352Y-51023052D01*
X121719733Y-51070671D01*
X121624495Y-51118290D01*
X121529257Y-51118290D01*
X121434019Y-51070671D01*
X121386400Y-51023052D01*
X121338780Y-50927814D01*
X121338780Y-50689719D01*
X121386400Y-50546861D01*
X121338780Y-50261147D02*
X121338780Y-49689719D01*
X122338780Y-49975433D02*
X121338780Y-49975433D01*
X121338780Y-48927814D02*
X121338780Y-49118290D01*
X121386400Y-49213528D01*
X121434019Y-49261147D01*
X121576876Y-49356385D01*
X121767352Y-49404004D01*
X122148304Y-49404004D01*
X122243542Y-49356385D01*
X122291161Y-49308766D01*
X122338780Y-49213528D01*
X122338780Y-49023052D01*
X122291161Y-48927814D01*
X122243542Y-48880195D01*
X122148304Y-48832576D01*
X121910209Y-48832576D01*
X121814971Y-48880195D01*
X121767352Y-48927814D01*
X121719733Y-49023052D01*
X121719733Y-49213528D01*
X121767352Y-49308766D01*
X121814971Y-49356385D01*
X121910209Y-49404004D01*
X119798780Y-52594480D02*
X118798780Y-52594480D01*
X119798780Y-52118290D02*
X118798780Y-52118290D01*
X119798780Y-51546861D01*
X118798780Y-51546861D01*
X119751161Y-51118290D02*
X119798780Y-50975433D01*
X119798780Y-50737338D01*
X119751161Y-50642100D01*
X119703542Y-50594480D01*
X119608304Y-50546861D01*
X119513066Y-50546861D01*
X119417828Y-50594480D01*
X119370209Y-50642100D01*
X119322590Y-50737338D01*
X119274971Y-50927814D01*
X119227352Y-51023052D01*
X119179733Y-51070671D01*
X119084495Y-51118290D01*
X118989257Y-51118290D01*
X118894019Y-51070671D01*
X118846400Y-51023052D01*
X118798780Y-50927814D01*
X118798780Y-50689719D01*
X118846400Y-50546861D01*
X118798780Y-50261147D02*
X118798780Y-49689719D01*
X119798780Y-49975433D02*
X118798780Y-49975433D01*
X118798780Y-49451623D02*
X118798780Y-48784957D01*
X119798780Y-49213528D01*
X117258780Y-52594480D02*
X116258780Y-52594480D01*
X117258780Y-52118290D02*
X116258780Y-52118290D01*
X117258780Y-51546861D01*
X116258780Y-51546861D01*
X117211161Y-51118290D02*
X117258780Y-50975433D01*
X117258780Y-50737338D01*
X117211161Y-50642100D01*
X117163542Y-50594480D01*
X117068304Y-50546861D01*
X116973066Y-50546861D01*
X116877828Y-50594480D01*
X116830209Y-50642100D01*
X116782590Y-50737338D01*
X116734971Y-50927814D01*
X116687352Y-51023052D01*
X116639733Y-51070671D01*
X116544495Y-51118290D01*
X116449257Y-51118290D01*
X116354019Y-51070671D01*
X116306400Y-51023052D01*
X116258780Y-50927814D01*
X116258780Y-50689719D01*
X116306400Y-50546861D01*
X116258780Y-50261147D02*
X116258780Y-49689719D01*
X117258780Y-49975433D02*
X116258780Y-49975433D01*
X116687352Y-49213528D02*
X116639733Y-49308766D01*
X116592114Y-49356385D01*
X116496876Y-49404004D01*
X116449257Y-49404004D01*
X116354019Y-49356385D01*
X116306400Y-49308766D01*
X116258780Y-49213528D01*
X116258780Y-49023052D01*
X116306400Y-48927814D01*
X116354019Y-48880195D01*
X116449257Y-48832576D01*
X116496876Y-48832576D01*
X116592114Y-48880195D01*
X116639733Y-48927814D01*
X116687352Y-49023052D01*
X116687352Y-49213528D01*
X116734971Y-49308766D01*
X116782590Y-49356385D01*
X116877828Y-49404004D01*
X117068304Y-49404004D01*
X117163542Y-49356385D01*
X117211161Y-49308766D01*
X117258780Y-49213528D01*
X117258780Y-49023052D01*
X117211161Y-48927814D01*
X117163542Y-48880195D01*
X117068304Y-48832576D01*
X116877828Y-48832576D01*
X116782590Y-48880195D01*
X116734971Y-48927814D01*
X116687352Y-49023052D01*
X176160685Y-143700314D02*
X175398780Y-143986028D01*
X176160685Y-144271742D01*
X176541638Y-144033647D02*
X177398780Y-144033647D01*
X178541638Y-143700314D02*
X178541638Y-144700314D01*
X179017828Y-144224123D02*
X179065447Y-144319361D01*
X179160685Y-144366980D01*
X178541638Y-144224123D02*
X178589257Y-144319361D01*
X178684495Y-144366980D01*
X178874971Y-144366980D01*
X178970209Y-144319361D01*
X179017828Y-144224123D01*
X179017828Y-143700314D01*
X179874971Y-144700314D02*
X179636876Y-144700314D01*
X179636876Y-143271742D01*
X179874971Y-143271742D01*
X180160685Y-143366980D02*
X180779733Y-143366980D01*
X180446400Y-143747933D01*
X180589257Y-143747933D01*
X180684495Y-143795552D01*
X180732114Y-143843171D01*
X180779733Y-143938409D01*
X180779733Y-144176504D01*
X180732114Y-144271742D01*
X180684495Y-144319361D01*
X180589257Y-144366980D01*
X180303542Y-144366980D01*
X180208304Y-144319361D01*
X180160685Y-144271742D01*
X181732114Y-144366980D02*
X181160685Y-144366980D01*
X181446400Y-144366980D02*
X181446400Y-143366980D01*
X181351161Y-143509838D01*
X181255923Y-143605076D01*
X181160685Y-143652695D01*
X182208304Y-144319361D02*
X182208304Y-144366980D01*
X182160685Y-144462219D01*
X182113066Y-144509838D01*
X183303542Y-143366980D02*
X183922590Y-143366980D01*
X183589257Y-143747933D01*
X183732114Y-143747933D01*
X183827352Y-143795552D01*
X183874971Y-143843171D01*
X183922590Y-143938409D01*
X183922590Y-144176504D01*
X183874971Y-144271742D01*
X183827352Y-144319361D01*
X183732114Y-144366980D01*
X183446400Y-144366980D01*
X183351161Y-144319361D01*
X183303542Y-144271742D01*
X184303542Y-143462219D02*
X184351161Y-143414600D01*
X184446400Y-143366980D01*
X184684495Y-143366980D01*
X184779733Y-143414600D01*
X184827352Y-143462219D01*
X184874971Y-143557457D01*
X184874971Y-143652695D01*
X184827352Y-143795552D01*
X184255923Y-144366980D01*
X184874971Y-144366980D01*
X185208304Y-144700314D02*
X185446400Y-144700314D01*
X185446400Y-143271742D01*
X185208304Y-143271742D01*
X176169257Y-137169838D02*
X176169257Y-136903171D01*
X176588304Y-136788885D02*
X176588304Y-137169838D01*
X175788304Y-137169838D01*
X175788304Y-136788885D01*
X176169257Y-136446028D02*
X176169257Y-136179361D01*
X176588304Y-136065076D02*
X176588304Y-136446028D01*
X175788304Y-136446028D01*
X175788304Y-136065076D01*
X176588304Y-135722219D02*
X175788304Y-135722219D01*
X175788304Y-135417457D01*
X175826400Y-135341266D01*
X175864495Y-135303171D01*
X175940685Y-135265076D01*
X176054971Y-135265076D01*
X176131161Y-135303171D01*
X176169257Y-135341266D01*
X176207352Y-135417457D01*
X176207352Y-135722219D01*
X176588304Y-134465076D02*
X176207352Y-134731742D01*
X176588304Y-134922219D02*
X175788304Y-134922219D01*
X175788304Y-134617457D01*
X175826400Y-134541266D01*
X175864495Y-134503171D01*
X175940685Y-134465076D01*
X176054971Y-134465076D01*
X176131161Y-134503171D01*
X176169257Y-134541266D01*
X176207352Y-134617457D01*
X176207352Y-134922219D01*
X175788304Y-133969838D02*
X175788304Y-133817457D01*
X175826400Y-133741266D01*
X175902590Y-133665076D01*
X176054971Y-133626980D01*
X176321638Y-133626980D01*
X176474019Y-133665076D01*
X176550209Y-133741266D01*
X176588304Y-133817457D01*
X176588304Y-133969838D01*
X176550209Y-134046028D01*
X176474019Y-134122219D01*
X176321638Y-134160314D01*
X176054971Y-134160314D01*
X175902590Y-134122219D01*
X175826400Y-134046028D01*
X175788304Y-133969838D01*
X176588304Y-133284123D02*
X175788304Y-133284123D01*
X176359733Y-133017457D01*
X175788304Y-132750790D01*
X176588304Y-132750790D01*
X176054971Y-131417457D02*
X176588304Y-131417457D01*
X175750209Y-131607933D02*
X176321638Y-131798409D01*
X176321638Y-131303171D01*
X176189257Y-67189838D02*
X176189257Y-66923171D01*
X176608304Y-66808885D02*
X176608304Y-67189838D01*
X175808304Y-67189838D01*
X175808304Y-66808885D01*
X176189257Y-66466028D02*
X176189257Y-66199361D01*
X176608304Y-66085076D02*
X176608304Y-66466028D01*
X175808304Y-66466028D01*
X175808304Y-66085076D01*
X176608304Y-65742219D02*
X175808304Y-65742219D01*
X175808304Y-65437457D01*
X175846400Y-65361266D01*
X175884495Y-65323171D01*
X175960685Y-65285076D01*
X176074971Y-65285076D01*
X176151161Y-65323171D01*
X176189257Y-65361266D01*
X176227352Y-65437457D01*
X176227352Y-65742219D01*
X176608304Y-64485076D02*
X176227352Y-64751742D01*
X176608304Y-64942219D02*
X175808304Y-64942219D01*
X175808304Y-64637457D01*
X175846400Y-64561266D01*
X175884495Y-64523171D01*
X175960685Y-64485076D01*
X176074971Y-64485076D01*
X176151161Y-64523171D01*
X176189257Y-64561266D01*
X176227352Y-64637457D01*
X176227352Y-64942219D01*
X175808304Y-63989838D02*
X175808304Y-63837457D01*
X175846400Y-63761266D01*
X175922590Y-63685076D01*
X176074971Y-63646980D01*
X176341638Y-63646980D01*
X176494019Y-63685076D01*
X176570209Y-63761266D01*
X176608304Y-63837457D01*
X176608304Y-63989838D01*
X176570209Y-64066028D01*
X176494019Y-64142219D01*
X176341638Y-64180314D01*
X176074971Y-64180314D01*
X175922590Y-64142219D01*
X175846400Y-64066028D01*
X175808304Y-63989838D01*
X176608304Y-63304123D02*
X175808304Y-63304123D01*
X176379733Y-63037457D01*
X175808304Y-62770790D01*
X176608304Y-62770790D01*
X176608304Y-61361266D02*
X176608304Y-61818409D01*
X176608304Y-61589838D02*
X175808304Y-61589838D01*
X175922590Y-61666028D01*
X175998780Y-61742219D01*
X176036876Y-61818409D01*
D11*
X177156400Y-141514600D02*
X177156400Y-127424600D01*
X177156400Y-141514600D02*
X177946400Y-141514600D01*
X177156400Y-127424600D02*
X177896400Y-127424600D01*
X177086400Y-101844600D02*
X177826400Y-101844600D01*
X177106400Y-125324600D02*
X177896400Y-125324600D01*
X177086400Y-75594600D02*
X177826400Y-75594600D01*
X177086400Y-99354600D02*
X177876400Y-99354600D01*
X177026400Y-54864600D02*
X177766400Y-54864600D01*
X177026400Y-73774600D02*
X177026400Y-54864600D01*
X177026400Y-73774600D02*
X177816400Y-73774600D01*
D10*
X102354614Y-128670314D02*
X102354614Y-129670314D01*
X102830804Y-129194123D02*
X102878423Y-129289361D01*
X102973661Y-129336980D01*
X102354614Y-129194123D02*
X102402233Y-129289361D01*
X102497471Y-129336980D01*
X102687947Y-129336980D01*
X102783185Y-129289361D01*
X102830804Y-129194123D01*
X102830804Y-128670314D01*
X103306995Y-128336980D02*
X103926042Y-128336980D01*
X103592709Y-128717933D01*
X103735566Y-128717933D01*
X103830804Y-128765552D01*
X103878423Y-128813171D01*
X103926042Y-128908409D01*
X103926042Y-129146504D01*
X103878423Y-129241742D01*
X103830804Y-129289361D01*
X103735566Y-129336980D01*
X103449852Y-129336980D01*
X103354614Y-129289361D01*
X103306995Y-129241742D01*
X104878423Y-129336980D02*
X104306995Y-129336980D01*
X104592709Y-129336980D02*
X104592709Y-128336980D01*
X104497471Y-128479838D01*
X104402233Y-128575076D01*
X104306995Y-128622695D01*
X102204614Y-126110314D02*
X102204614Y-127110314D01*
X102680804Y-126634123D02*
X102728423Y-126729361D01*
X102823661Y-126776980D01*
X102204614Y-126634123D02*
X102252233Y-126729361D01*
X102347471Y-126776980D01*
X102537947Y-126776980D01*
X102633185Y-126729361D01*
X102680804Y-126634123D01*
X102680804Y-126110314D01*
X103156995Y-125776980D02*
X103776042Y-125776980D01*
X103442709Y-126157933D01*
X103585566Y-126157933D01*
X103680804Y-126205552D01*
X103728423Y-126253171D01*
X103776042Y-126348409D01*
X103776042Y-126586504D01*
X103728423Y-126681742D01*
X103680804Y-126729361D01*
X103585566Y-126776980D01*
X103299852Y-126776980D01*
X103204614Y-126729361D01*
X103156995Y-126681742D01*
X104156995Y-125872219D02*
X104204614Y-125824600D01*
X104299852Y-125776980D01*
X104537947Y-125776980D01*
X104633185Y-125824600D01*
X104680804Y-125872219D01*
X104728423Y-125967457D01*
X104728423Y-126062695D01*
X104680804Y-126205552D01*
X104109376Y-126776980D01*
X104728423Y-126776980D01*
X105491280Y-129296504D02*
X105491280Y-128496504D01*
X105491280Y-128877457D02*
X105948423Y-128877457D01*
X105948423Y-129296504D02*
X105948423Y-128496504D01*
X106672233Y-129296504D02*
X106672233Y-128877457D01*
X106634138Y-128801266D01*
X106557947Y-128763171D01*
X106405566Y-128763171D01*
X106329376Y-128801266D01*
X106672233Y-129258409D02*
X106596042Y-129296504D01*
X106405566Y-129296504D01*
X106329376Y-129258409D01*
X106291280Y-129182219D01*
X106291280Y-129106028D01*
X106329376Y-129029838D01*
X106405566Y-128991742D01*
X106596042Y-128991742D01*
X106672233Y-128953647D01*
X107167471Y-129296504D02*
X107091280Y-129258409D01*
X107053185Y-129182219D01*
X107053185Y-128496504D01*
X107357947Y-128763171D02*
X107662709Y-128763171D01*
X107472233Y-128496504D02*
X107472233Y-129182219D01*
X107510328Y-129258409D01*
X107586519Y-129296504D01*
X107662709Y-129296504D01*
X105830328Y-126756504D02*
X105563661Y-126375552D01*
X105373185Y-126756504D02*
X105373185Y-125956504D01*
X105677947Y-125956504D01*
X105754138Y-125994600D01*
X105792233Y-126032695D01*
X105830328Y-126108885D01*
X105830328Y-126223171D01*
X105792233Y-126299361D01*
X105754138Y-126337457D01*
X105677947Y-126375552D01*
X105373185Y-126375552D01*
X106477947Y-126718409D02*
X106401757Y-126756504D01*
X106249376Y-126756504D01*
X106173185Y-126718409D01*
X106135090Y-126642219D01*
X106135090Y-126337457D01*
X106173185Y-126261266D01*
X106249376Y-126223171D01*
X106401757Y-126223171D01*
X106477947Y-126261266D01*
X106516042Y-126337457D01*
X106516042Y-126413647D01*
X106135090Y-126489838D01*
X106820804Y-126718409D02*
X106896995Y-126756504D01*
X107049376Y-126756504D01*
X107125566Y-126718409D01*
X107163661Y-126642219D01*
X107163661Y-126604123D01*
X107125566Y-126527933D01*
X107049376Y-126489838D01*
X106935090Y-126489838D01*
X106858900Y-126451742D01*
X106820804Y-126375552D01*
X106820804Y-126337457D01*
X106858900Y-126261266D01*
X106935090Y-126223171D01*
X107049376Y-126223171D01*
X107125566Y-126261266D01*
X107811280Y-126718409D02*
X107735090Y-126756504D01*
X107582709Y-126756504D01*
X107506519Y-126718409D01*
X107468423Y-126642219D01*
X107468423Y-126337457D01*
X107506519Y-126261266D01*
X107582709Y-126223171D01*
X107735090Y-126223171D01*
X107811280Y-126261266D01*
X107849376Y-126337457D01*
X107849376Y-126413647D01*
X107468423Y-126489838D01*
X108077947Y-126223171D02*
X108382709Y-126223171D01*
X108192233Y-125956504D02*
X108192233Y-126642219D01*
X108230328Y-126718409D01*
X108306519Y-126756504D01*
X108382709Y-126756504D01*
X102661280Y-133816504D02*
X102661280Y-133016504D01*
X102661280Y-133397457D02*
X103118423Y-133397457D01*
X103118423Y-133816504D02*
X103118423Y-133016504D01*
X103842233Y-133816504D02*
X103842233Y-133397457D01*
X103804138Y-133321266D01*
X103727947Y-133283171D01*
X103575566Y-133283171D01*
X103499376Y-133321266D01*
X103842233Y-133778409D02*
X103766042Y-133816504D01*
X103575566Y-133816504D01*
X103499376Y-133778409D01*
X103461280Y-133702219D01*
X103461280Y-133626028D01*
X103499376Y-133549838D01*
X103575566Y-133511742D01*
X103766042Y-133511742D01*
X103842233Y-133473647D01*
X104337471Y-133816504D02*
X104261280Y-133778409D01*
X104223185Y-133702219D01*
X104223185Y-133016504D01*
X104527947Y-133283171D02*
X104832709Y-133283171D01*
X104642233Y-133016504D02*
X104642233Y-133702219D01*
X104680328Y-133778409D01*
X104756519Y-133816504D01*
X104832709Y-133816504D01*
X102740328Y-141666504D02*
X102473661Y-141285552D01*
X102283185Y-141666504D02*
X102283185Y-140866504D01*
X102587947Y-140866504D01*
X102664138Y-140904600D01*
X102702233Y-140942695D01*
X102740328Y-141018885D01*
X102740328Y-141133171D01*
X102702233Y-141209361D01*
X102664138Y-141247457D01*
X102587947Y-141285552D01*
X102283185Y-141285552D01*
X103387947Y-141628409D02*
X103311757Y-141666504D01*
X103159376Y-141666504D01*
X103083185Y-141628409D01*
X103045090Y-141552219D01*
X103045090Y-141247457D01*
X103083185Y-141171266D01*
X103159376Y-141133171D01*
X103311757Y-141133171D01*
X103387947Y-141171266D01*
X103426042Y-141247457D01*
X103426042Y-141323647D01*
X103045090Y-141399838D01*
X103730804Y-141628409D02*
X103806995Y-141666504D01*
X103959376Y-141666504D01*
X104035566Y-141628409D01*
X104073661Y-141552219D01*
X104073661Y-141514123D01*
X104035566Y-141437933D01*
X103959376Y-141399838D01*
X103845090Y-141399838D01*
X103768900Y-141361742D01*
X103730804Y-141285552D01*
X103730804Y-141247457D01*
X103768900Y-141171266D01*
X103845090Y-141133171D01*
X103959376Y-141133171D01*
X104035566Y-141171266D01*
X104721280Y-141628409D02*
X104645090Y-141666504D01*
X104492709Y-141666504D01*
X104416519Y-141628409D01*
X104378423Y-141552219D01*
X104378423Y-141247457D01*
X104416519Y-141171266D01*
X104492709Y-141133171D01*
X104645090Y-141133171D01*
X104721280Y-141171266D01*
X104759376Y-141247457D01*
X104759376Y-141323647D01*
X104378423Y-141399838D01*
X104987947Y-141133171D02*
X105292709Y-141133171D01*
X105102233Y-140866504D02*
X105102233Y-141552219D01*
X105140328Y-141628409D01*
X105216519Y-141666504D01*
X105292709Y-141666504D01*
D11*
X105036400Y-150944600D02*
X105036400Y-152674600D01*
X106966400Y-150944600D02*
X105036400Y-150944600D01*
X137476400Y-151004600D02*
X137476400Y-153314600D01*
X121146400Y-151004600D02*
X137476400Y-151004600D01*
D10*
X128324495Y-153571266D02*
X128800685Y-153571266D01*
X128229257Y-153856980D02*
X128562590Y-152856980D01*
X128895923Y-153856980D01*
X129657828Y-153809361D02*
X129562590Y-153856980D01*
X129372114Y-153856980D01*
X129276876Y-153809361D01*
X129229257Y-153761742D01*
X129181638Y-153666504D01*
X129181638Y-153380790D01*
X129229257Y-153285552D01*
X129276876Y-153237933D01*
X129372114Y-153190314D01*
X129562590Y-153190314D01*
X129657828Y-153237933D01*
X129943542Y-153190314D02*
X130324495Y-153190314D01*
X130086400Y-152856980D02*
X130086400Y-153714123D01*
X130134019Y-153809361D01*
X130229257Y-153856980D01*
X130324495Y-153856980D01*
X130657828Y-153856980D02*
X130657828Y-153190314D01*
X130657828Y-152856980D02*
X130610209Y-152904600D01*
X130657828Y-152952219D01*
X130705447Y-152904600D01*
X130657828Y-152856980D01*
X130657828Y-152952219D01*
X131038780Y-153190314D02*
X131276876Y-153856980D01*
X131514971Y-153190314D01*
X132276876Y-153809361D02*
X132181638Y-153856980D01*
X131991161Y-153856980D01*
X131895923Y-153809361D01*
X131848304Y-153714123D01*
X131848304Y-153333171D01*
X131895923Y-153237933D01*
X131991161Y-153190314D01*
X132181638Y-153190314D01*
X132276876Y-153237933D01*
X132324495Y-153333171D01*
X132324495Y-153428409D01*
X131848304Y-153523647D01*
X133991161Y-153856980D02*
X133514971Y-153856980D01*
X133514971Y-152856980D01*
X134467352Y-153856980D02*
X134372114Y-153809361D01*
X134324495Y-153761742D01*
X134276876Y-153666504D01*
X134276876Y-153380790D01*
X134324495Y-153285552D01*
X134372114Y-153237933D01*
X134467352Y-153190314D01*
X134610209Y-153190314D01*
X134705447Y-153237933D01*
X134753066Y-153285552D01*
X134800685Y-153380790D01*
X134800685Y-153666504D01*
X134753066Y-153761742D01*
X134705447Y-153809361D01*
X134610209Y-153856980D01*
X134467352Y-153856980D01*
X135134019Y-153190314D02*
X135324495Y-153856980D01*
X135514971Y-153380790D01*
X135705447Y-153856980D01*
X135895923Y-153190314D01*
X117818780Y-153561266D02*
X118294971Y-153561266D01*
X117723542Y-153846980D02*
X118056876Y-152846980D01*
X118390209Y-153846980D01*
X119152114Y-153799361D02*
X119056876Y-153846980D01*
X118866400Y-153846980D01*
X118771161Y-153799361D01*
X118723542Y-153751742D01*
X118675923Y-153656504D01*
X118675923Y-153370790D01*
X118723542Y-153275552D01*
X118771161Y-153227933D01*
X118866400Y-153180314D01*
X119056876Y-153180314D01*
X119152114Y-153227933D01*
X119437828Y-153180314D02*
X119818780Y-153180314D01*
X119580685Y-152846980D02*
X119580685Y-153704123D01*
X119628304Y-153799361D01*
X119723542Y-153846980D01*
X119818780Y-153846980D01*
X120152114Y-153846980D02*
X120152114Y-153180314D01*
X120152114Y-152846980D02*
X120104495Y-152894600D01*
X120152114Y-152942219D01*
X120199733Y-152894600D01*
X120152114Y-152846980D01*
X120152114Y-152942219D01*
X120533066Y-153180314D02*
X120771161Y-153846980D01*
X121009257Y-153180314D01*
X121771161Y-153799361D02*
X121675923Y-153846980D01*
X121485447Y-153846980D01*
X121390209Y-153799361D01*
X121342590Y-153704123D01*
X121342590Y-153323171D01*
X121390209Y-153227933D01*
X121485447Y-153180314D01*
X121675923Y-153180314D01*
X121771161Y-153227933D01*
X121818780Y-153323171D01*
X121818780Y-153418409D01*
X121342590Y-153513647D01*
X123009257Y-153846980D02*
X123009257Y-152846980D01*
X123009257Y-153323171D02*
X123580685Y-153323171D01*
X123580685Y-153846980D02*
X123580685Y-152846980D01*
X124056876Y-153846980D02*
X124056876Y-153180314D01*
X124056876Y-152846980D02*
X124009257Y-152894600D01*
X124056876Y-152942219D01*
X124104495Y-152894600D01*
X124056876Y-152846980D01*
X124056876Y-152942219D01*
X124961638Y-153180314D02*
X124961638Y-153989838D01*
X124914019Y-154085076D01*
X124866400Y-154132695D01*
X124771161Y-154180314D01*
X124628304Y-154180314D01*
X124533066Y-154132695D01*
X124961638Y-153799361D02*
X124866400Y-153846980D01*
X124675923Y-153846980D01*
X124580685Y-153799361D01*
X124533066Y-153751742D01*
X124485447Y-153656504D01*
X124485447Y-153370790D01*
X124533066Y-153275552D01*
X124580685Y-153227933D01*
X124675923Y-153180314D01*
X124866400Y-153180314D01*
X124961638Y-153227933D01*
X125437828Y-153846980D02*
X125437828Y-152846980D01*
X125866400Y-153846980D02*
X125866400Y-153323171D01*
X125818780Y-153227933D01*
X125723542Y-153180314D01*
X125580685Y-153180314D01*
X125485447Y-153227933D01*
X125437828Y-153275552D01*
X110607828Y-144502100D02*
X110607828Y-143740195D01*
X110517828Y-137172100D02*
X110517828Y-136410195D01*
X110898780Y-136791147D02*
X110136876Y-136791147D01*
X110527828Y-116232100D02*
X110527828Y-115470195D01*
X110908780Y-115851147D02*
X110146876Y-115851147D01*
X110617828Y-123562100D02*
X110617828Y-122800195D01*
X110557828Y-94572100D02*
X110557828Y-93810195D01*
X110467828Y-87242100D02*
X110467828Y-86480195D01*
X110848780Y-86861147D02*
X110086876Y-86861147D01*
X97801757Y-62696028D02*
X98563661Y-62696028D01*
X98182709Y-63076980D02*
X98182709Y-62315076D01*
X98896995Y-62076980D02*
X99230328Y-63076980D01*
X99563661Y-62076980D01*
X100468423Y-62981742D02*
X100420804Y-63029361D01*
X100277947Y-63076980D01*
X100182709Y-63076980D01*
X100039852Y-63029361D01*
X99944614Y-62934123D01*
X99896995Y-62838885D01*
X99849376Y-62648409D01*
X99849376Y-62505552D01*
X99896995Y-62315076D01*
X99944614Y-62219838D01*
X100039852Y-62124600D01*
X100182709Y-62076980D01*
X100277947Y-62076980D01*
X100420804Y-62124600D01*
X100468423Y-62172219D01*
X101468423Y-62981742D02*
X101420804Y-63029361D01*
X101277947Y-63076980D01*
X101182709Y-63076980D01*
X101039852Y-63029361D01*
X100944614Y-62934123D01*
X100896995Y-62838885D01*
X100849376Y-62648409D01*
X100849376Y-62505552D01*
X100896995Y-62315076D01*
X100944614Y-62219838D01*
X101039852Y-62124600D01*
X101182709Y-62076980D01*
X101277947Y-62076980D01*
X101420804Y-62124600D01*
X101468423Y-62172219D01*
X110537828Y-67102100D02*
X110537828Y-66340195D01*
X110447828Y-59772100D02*
X110447828Y-59010195D01*
X110828780Y-59391147D02*
X110066876Y-59391147D01*
X97731280Y-49836028D02*
X98493185Y-49836028D01*
X99493185Y-49264600D02*
X99397947Y-49216980D01*
X99255090Y-49216980D01*
X99112233Y-49264600D01*
X99016995Y-49359838D01*
X98969376Y-49455076D01*
X98921757Y-49645552D01*
X98921757Y-49788409D01*
X98969376Y-49978885D01*
X99016995Y-50074123D01*
X99112233Y-50169361D01*
X99255090Y-50216980D01*
X99350328Y-50216980D01*
X99493185Y-50169361D01*
X99540804Y-50121742D01*
X99540804Y-49788409D01*
X99350328Y-49788409D01*
X99969376Y-50216980D02*
X99969376Y-49216980D01*
X100540804Y-50216980D01*
X100540804Y-49216980D01*
X101016995Y-50216980D02*
X101016995Y-49216980D01*
X101255090Y-49216980D01*
X101397947Y-49264600D01*
X101493185Y-49359838D01*
X101540804Y-49455076D01*
X101588423Y-49645552D01*
X101588423Y-49788409D01*
X101540804Y-49978885D01*
X101493185Y-50074123D01*
X101397947Y-50169361D01*
X101255090Y-50216980D01*
X101016995Y-50216980D01*
X102958900Y-82046028D02*
X103720804Y-82046028D01*
X102898900Y-75146028D02*
X103660804Y-75146028D01*
X103279852Y-75526980D02*
X103279852Y-74765076D01*
X96541757Y-74456028D02*
X97303661Y-74456028D01*
X96922709Y-74836980D02*
X96922709Y-74075076D01*
X97636995Y-73836980D02*
X97970328Y-74836980D01*
X98303661Y-73836980D01*
X99208423Y-74741742D02*
X99160804Y-74789361D01*
X99017947Y-74836980D01*
X98922709Y-74836980D01*
X98779852Y-74789361D01*
X98684614Y-74694123D01*
X98636995Y-74598885D01*
X98589376Y-74408409D01*
X98589376Y-74265552D01*
X98636995Y-74075076D01*
X98684614Y-73979838D01*
X98779852Y-73884600D01*
X98922709Y-73836980D01*
X99017947Y-73836980D01*
X99160804Y-73884600D01*
X99208423Y-73932219D01*
X100208423Y-74741742D02*
X100160804Y-74789361D01*
X100017947Y-74836980D01*
X99922709Y-74836980D01*
X99779852Y-74789361D01*
X99684614Y-74694123D01*
X99636995Y-74598885D01*
X99589376Y-74408409D01*
X99589376Y-74265552D01*
X99636995Y-74075076D01*
X99684614Y-73979838D01*
X99779852Y-73884600D01*
X99922709Y-73836980D01*
X100017947Y-73836980D01*
X100160804Y-73884600D01*
X100208423Y-73932219D01*
X96371280Y-82566028D02*
X97133185Y-82566028D01*
X98133185Y-81994600D02*
X98037947Y-81946980D01*
X97895090Y-81946980D01*
X97752233Y-81994600D01*
X97656995Y-82089838D01*
X97609376Y-82185076D01*
X97561757Y-82375552D01*
X97561757Y-82518409D01*
X97609376Y-82708885D01*
X97656995Y-82804123D01*
X97752233Y-82899361D01*
X97895090Y-82946980D01*
X97990328Y-82946980D01*
X98133185Y-82899361D01*
X98180804Y-82851742D01*
X98180804Y-82518409D01*
X97990328Y-82518409D01*
X98609376Y-82946980D02*
X98609376Y-81946980D01*
X99180804Y-82946980D01*
X99180804Y-81946980D01*
X99656995Y-82946980D02*
X99656995Y-81946980D01*
X99895090Y-81946980D01*
X100037947Y-81994600D01*
X100133185Y-82089838D01*
X100180804Y-82185076D01*
X100228423Y-82375552D01*
X100228423Y-82518409D01*
X100180804Y-82708885D01*
X100133185Y-82804123D01*
X100037947Y-82899361D01*
X99895090Y-82946980D01*
X99656995Y-82946980D01*
X182834614Y-117660314D02*
X182834614Y-118660314D01*
X183310804Y-118184123D02*
X183358423Y-118279361D01*
X183453661Y-118326980D01*
X182834614Y-118184123D02*
X182882233Y-118279361D01*
X182977471Y-118326980D01*
X183167947Y-118326980D01*
X183263185Y-118279361D01*
X183310804Y-118184123D01*
X183310804Y-117660314D01*
X183786995Y-117326980D02*
X184406042Y-117326980D01*
X184072709Y-117707933D01*
X184215566Y-117707933D01*
X184310804Y-117755552D01*
X184358423Y-117803171D01*
X184406042Y-117898409D01*
X184406042Y-118136504D01*
X184358423Y-118231742D01*
X184310804Y-118279361D01*
X184215566Y-118326980D01*
X183929852Y-118326980D01*
X183834614Y-118279361D01*
X183786995Y-118231742D01*
X185025090Y-117326980D02*
X185120328Y-117326980D01*
X185215566Y-117374600D01*
X185263185Y-117422219D01*
X185310804Y-117517457D01*
X185358423Y-117707933D01*
X185358423Y-117946028D01*
X185310804Y-118136504D01*
X185263185Y-118231742D01*
X185215566Y-118279361D01*
X185120328Y-118326980D01*
X185025090Y-118326980D01*
X184929852Y-118279361D01*
X184882233Y-118231742D01*
X184834614Y-118136504D01*
X184786995Y-117946028D01*
X184786995Y-117707933D01*
X184834614Y-117517457D01*
X184882233Y-117422219D01*
X184929852Y-117374600D01*
X185025090Y-117326980D01*
X182844614Y-120140314D02*
X182844614Y-121140314D01*
X183320804Y-120664123D02*
X183368423Y-120759361D01*
X183463661Y-120806980D01*
X182844614Y-120664123D02*
X182892233Y-120759361D01*
X182987471Y-120806980D01*
X183177947Y-120806980D01*
X183273185Y-120759361D01*
X183320804Y-120664123D01*
X183320804Y-120140314D01*
X183844614Y-119902219D02*
X183892233Y-119854600D01*
X183987471Y-119806980D01*
X184225566Y-119806980D01*
X184320804Y-119854600D01*
X184368423Y-119902219D01*
X184416042Y-119997457D01*
X184416042Y-120092695D01*
X184368423Y-120235552D01*
X183796995Y-120806980D01*
X184416042Y-120806980D01*
X184892233Y-120806980D02*
X185082709Y-120806980D01*
X185177947Y-120759361D01*
X185225566Y-120711742D01*
X185320804Y-120568885D01*
X185368423Y-120378409D01*
X185368423Y-119997457D01*
X185320804Y-119902219D01*
X185273185Y-119854600D01*
X185177947Y-119806980D01*
X184987471Y-119806980D01*
X184892233Y-119854600D01*
X184844614Y-119902219D01*
X184796995Y-119997457D01*
X184796995Y-120235552D01*
X184844614Y-120330790D01*
X184892233Y-120378409D01*
X184987471Y-120426028D01*
X185177947Y-120426028D01*
X185273185Y-120378409D01*
X185320804Y-120330790D01*
X185368423Y-120235552D01*
X182894614Y-122640314D02*
X182894614Y-123640314D01*
X183370804Y-123164123D02*
X183418423Y-123259361D01*
X183513661Y-123306980D01*
X182894614Y-123164123D02*
X182942233Y-123259361D01*
X183037471Y-123306980D01*
X183227947Y-123306980D01*
X183323185Y-123259361D01*
X183370804Y-123164123D01*
X183370804Y-122640314D01*
X183894614Y-122402219D02*
X183942233Y-122354600D01*
X184037471Y-122306980D01*
X184275566Y-122306980D01*
X184370804Y-122354600D01*
X184418423Y-122402219D01*
X184466042Y-122497457D01*
X184466042Y-122592695D01*
X184418423Y-122735552D01*
X183846995Y-123306980D01*
X184466042Y-123306980D01*
X185037471Y-122735552D02*
X184942233Y-122687933D01*
X184894614Y-122640314D01*
X184846995Y-122545076D01*
X184846995Y-122497457D01*
X184894614Y-122402219D01*
X184942233Y-122354600D01*
X185037471Y-122306980D01*
X185227947Y-122306980D01*
X185323185Y-122354600D01*
X185370804Y-122402219D01*
X185418423Y-122497457D01*
X185418423Y-122545076D01*
X185370804Y-122640314D01*
X185323185Y-122687933D01*
X185227947Y-122735552D01*
X185037471Y-122735552D01*
X184942233Y-122783171D01*
X184894614Y-122830790D01*
X184846995Y-122926028D01*
X184846995Y-123116504D01*
X184894614Y-123211742D01*
X184942233Y-123259361D01*
X185037471Y-123306980D01*
X185227947Y-123306980D01*
X185323185Y-123259361D01*
X185370804Y-123211742D01*
X185418423Y-123116504D01*
X185418423Y-122926028D01*
X185370804Y-122830790D01*
X185323185Y-122783171D01*
X185227947Y-122735552D01*
X182904614Y-125200314D02*
X182904614Y-126200314D01*
X183380804Y-125724123D02*
X183428423Y-125819361D01*
X183523661Y-125866980D01*
X182904614Y-125724123D02*
X182952233Y-125819361D01*
X183047471Y-125866980D01*
X183237947Y-125866980D01*
X183333185Y-125819361D01*
X183380804Y-125724123D01*
X183380804Y-125200314D01*
X183904614Y-124962219D02*
X183952233Y-124914600D01*
X184047471Y-124866980D01*
X184285566Y-124866980D01*
X184380804Y-124914600D01*
X184428423Y-124962219D01*
X184476042Y-125057457D01*
X184476042Y-125152695D01*
X184428423Y-125295552D01*
X183856995Y-125866980D01*
X184476042Y-125866980D01*
X184809376Y-124866980D02*
X185476042Y-124866980D01*
X185047471Y-125866980D01*
X182914614Y-127740314D02*
X182914614Y-128740314D01*
X183390804Y-128264123D02*
X183438423Y-128359361D01*
X183533661Y-128406980D01*
X182914614Y-128264123D02*
X182962233Y-128359361D01*
X183057471Y-128406980D01*
X183247947Y-128406980D01*
X183343185Y-128359361D01*
X183390804Y-128264123D01*
X183390804Y-127740314D01*
X183914614Y-127502219D02*
X183962233Y-127454600D01*
X184057471Y-127406980D01*
X184295566Y-127406980D01*
X184390804Y-127454600D01*
X184438423Y-127502219D01*
X184486042Y-127597457D01*
X184486042Y-127692695D01*
X184438423Y-127835552D01*
X183866995Y-128406980D01*
X184486042Y-128406980D01*
X185343185Y-127406980D02*
X185152709Y-127406980D01*
X185057471Y-127454600D01*
X185009852Y-127502219D01*
X184914614Y-127645076D01*
X184866995Y-127835552D01*
X184866995Y-128216504D01*
X184914614Y-128311742D01*
X184962233Y-128359361D01*
X185057471Y-128406980D01*
X185247947Y-128406980D01*
X185343185Y-128359361D01*
X185390804Y-128311742D01*
X185438423Y-128216504D01*
X185438423Y-127978409D01*
X185390804Y-127883171D01*
X185343185Y-127835552D01*
X185247947Y-127787933D01*
X185057471Y-127787933D01*
X184962233Y-127835552D01*
X184914614Y-127883171D01*
X184866995Y-127978409D01*
X182924614Y-130260314D02*
X182924614Y-131260314D01*
X183400804Y-130784123D02*
X183448423Y-130879361D01*
X183543661Y-130926980D01*
X182924614Y-130784123D02*
X182972233Y-130879361D01*
X183067471Y-130926980D01*
X183257947Y-130926980D01*
X183353185Y-130879361D01*
X183400804Y-130784123D01*
X183400804Y-130260314D01*
X183924614Y-130022219D02*
X183972233Y-129974600D01*
X184067471Y-129926980D01*
X184305566Y-129926980D01*
X184400804Y-129974600D01*
X184448423Y-130022219D01*
X184496042Y-130117457D01*
X184496042Y-130212695D01*
X184448423Y-130355552D01*
X183876995Y-130926980D01*
X184496042Y-130926980D01*
X185400804Y-129926980D02*
X184924614Y-129926980D01*
X184876995Y-130403171D01*
X184924614Y-130355552D01*
X185019852Y-130307933D01*
X185257947Y-130307933D01*
X185353185Y-130355552D01*
X185400804Y-130403171D01*
X185448423Y-130498409D01*
X185448423Y-130736504D01*
X185400804Y-130831742D01*
X185353185Y-130879361D01*
X185257947Y-130926980D01*
X185019852Y-130926980D01*
X184924614Y-130879361D01*
X184876995Y-130831742D01*
X183014614Y-132810314D02*
X183014614Y-133810314D01*
X183490804Y-133334123D02*
X183538423Y-133429361D01*
X183633661Y-133476980D01*
X183014614Y-133334123D02*
X183062233Y-133429361D01*
X183157471Y-133476980D01*
X183347947Y-133476980D01*
X183443185Y-133429361D01*
X183490804Y-133334123D01*
X183490804Y-132810314D01*
X184014614Y-132572219D02*
X184062233Y-132524600D01*
X184157471Y-132476980D01*
X184395566Y-132476980D01*
X184490804Y-132524600D01*
X184538423Y-132572219D01*
X184586042Y-132667457D01*
X184586042Y-132762695D01*
X184538423Y-132905552D01*
X183966995Y-133476980D01*
X184586042Y-133476980D01*
X185443185Y-132810314D02*
X185443185Y-133476980D01*
X185205090Y-132429361D02*
X184966995Y-133143647D01*
X185586042Y-133143647D01*
X183024614Y-135350314D02*
X183024614Y-136350314D01*
X183500804Y-135874123D02*
X183548423Y-135969361D01*
X183643661Y-136016980D01*
X183024614Y-135874123D02*
X183072233Y-135969361D01*
X183167471Y-136016980D01*
X183357947Y-136016980D01*
X183453185Y-135969361D01*
X183500804Y-135874123D01*
X183500804Y-135350314D01*
X184024614Y-135112219D02*
X184072233Y-135064600D01*
X184167471Y-135016980D01*
X184405566Y-135016980D01*
X184500804Y-135064600D01*
X184548423Y-135112219D01*
X184596042Y-135207457D01*
X184596042Y-135302695D01*
X184548423Y-135445552D01*
X183976995Y-136016980D01*
X184596042Y-136016980D01*
X184929376Y-135016980D02*
X185548423Y-135016980D01*
X185215090Y-135397933D01*
X185357947Y-135397933D01*
X185453185Y-135445552D01*
X185500804Y-135493171D01*
X185548423Y-135588409D01*
X185548423Y-135826504D01*
X185500804Y-135921742D01*
X185453185Y-135969361D01*
X185357947Y-136016980D01*
X185072233Y-136016980D01*
X184976995Y-135969361D01*
X184929376Y-135921742D01*
X183014614Y-137890314D02*
X183014614Y-138890314D01*
X183490804Y-138414123D02*
X183538423Y-138509361D01*
X183633661Y-138556980D01*
X183014614Y-138414123D02*
X183062233Y-138509361D01*
X183157471Y-138556980D01*
X183347947Y-138556980D01*
X183443185Y-138509361D01*
X183490804Y-138414123D01*
X183490804Y-137890314D01*
X184014614Y-137652219D02*
X184062233Y-137604600D01*
X184157471Y-137556980D01*
X184395566Y-137556980D01*
X184490804Y-137604600D01*
X184538423Y-137652219D01*
X184586042Y-137747457D01*
X184586042Y-137842695D01*
X184538423Y-137985552D01*
X183966995Y-138556980D01*
X184586042Y-138556980D01*
X184966995Y-137652219D02*
X185014614Y-137604600D01*
X185109852Y-137556980D01*
X185347947Y-137556980D01*
X185443185Y-137604600D01*
X185490804Y-137652219D01*
X185538423Y-137747457D01*
X185538423Y-137842695D01*
X185490804Y-137985552D01*
X184919376Y-138556980D01*
X185538423Y-138556980D01*
X183004614Y-140420314D02*
X183004614Y-141420314D01*
X183480804Y-140944123D02*
X183528423Y-141039361D01*
X183623661Y-141086980D01*
X183004614Y-140944123D02*
X183052233Y-141039361D01*
X183147471Y-141086980D01*
X183337947Y-141086980D01*
X183433185Y-141039361D01*
X183480804Y-140944123D01*
X183480804Y-140420314D01*
X184004614Y-140182219D02*
X184052233Y-140134600D01*
X184147471Y-140086980D01*
X184385566Y-140086980D01*
X184480804Y-140134600D01*
X184528423Y-140182219D01*
X184576042Y-140277457D01*
X184576042Y-140372695D01*
X184528423Y-140515552D01*
X183956995Y-141086980D01*
X184576042Y-141086980D01*
X185528423Y-141086980D02*
X184956995Y-141086980D01*
X185242709Y-141086980D02*
X185242709Y-140086980D01*
X185147471Y-140229838D01*
X185052233Y-140325076D01*
X184956995Y-140372695D01*
X182648304Y-101750314D02*
X182648304Y-102750314D01*
X183124495Y-102274123D02*
X183172114Y-102369361D01*
X183267352Y-102416980D01*
X182648304Y-102274123D02*
X182695923Y-102369361D01*
X182791161Y-102416980D01*
X182981638Y-102416980D01*
X183076876Y-102369361D01*
X183124495Y-102274123D01*
X183124495Y-101750314D01*
X184219733Y-102416980D02*
X183648304Y-102416980D01*
X183934019Y-102416980D02*
X183934019Y-101416980D01*
X183838780Y-101559838D01*
X183743542Y-101655076D01*
X183648304Y-101702695D01*
X185076876Y-101750314D02*
X185076876Y-102416980D01*
X184838780Y-101369361D02*
X184600685Y-102083647D01*
X185219733Y-102083647D01*
X182648304Y-106830314D02*
X182648304Y-107830314D01*
X183124495Y-107354123D02*
X183172114Y-107449361D01*
X183267352Y-107496980D01*
X182648304Y-107354123D02*
X182695923Y-107449361D01*
X182791161Y-107496980D01*
X182981638Y-107496980D01*
X183076876Y-107449361D01*
X183124495Y-107354123D01*
X183124495Y-106830314D01*
X184219733Y-107496980D02*
X183648304Y-107496980D01*
X183934019Y-107496980D02*
X183934019Y-106496980D01*
X183838780Y-106639838D01*
X183743542Y-106735076D01*
X183648304Y-106782695D01*
X184600685Y-106592219D02*
X184648304Y-106544600D01*
X184743542Y-106496980D01*
X184981638Y-106496980D01*
X185076876Y-106544600D01*
X185124495Y-106592219D01*
X185172114Y-106687457D01*
X185172114Y-106782695D01*
X185124495Y-106925552D01*
X184553066Y-107496980D01*
X185172114Y-107496980D01*
X182648304Y-99210314D02*
X182648304Y-100210314D01*
X183124495Y-99734123D02*
X183172114Y-99829361D01*
X183267352Y-99876980D01*
X182648304Y-99734123D02*
X182695923Y-99829361D01*
X182791161Y-99876980D01*
X182981638Y-99876980D01*
X183076876Y-99829361D01*
X183124495Y-99734123D01*
X183124495Y-99210314D01*
X184219733Y-99876980D02*
X183648304Y-99876980D01*
X183934019Y-99876980D02*
X183934019Y-98876980D01*
X183838780Y-99019838D01*
X183743542Y-99115076D01*
X183648304Y-99162695D01*
X185124495Y-98876980D02*
X184648304Y-98876980D01*
X184600685Y-99353171D01*
X184648304Y-99305552D01*
X184743542Y-99257933D01*
X184981638Y-99257933D01*
X185076876Y-99305552D01*
X185124495Y-99353171D01*
X185172114Y-99448409D01*
X185172114Y-99686504D01*
X185124495Y-99781742D01*
X185076876Y-99829361D01*
X184981638Y-99876980D01*
X184743542Y-99876980D01*
X184648304Y-99829361D01*
X184600685Y-99781742D01*
X182648304Y-89050314D02*
X182648304Y-90050314D01*
X183124495Y-89574123D02*
X183172114Y-89669361D01*
X183267352Y-89716980D01*
X182648304Y-89574123D02*
X182695923Y-89669361D01*
X182791161Y-89716980D01*
X182981638Y-89716980D01*
X183076876Y-89669361D01*
X183124495Y-89574123D01*
X183124495Y-89050314D01*
X184219733Y-89716980D02*
X183648304Y-89716980D01*
X183934019Y-89716980D02*
X183934019Y-88716980D01*
X183838780Y-88859838D01*
X183743542Y-88955076D01*
X183648304Y-89002695D01*
X184695923Y-89716980D02*
X184886400Y-89716980D01*
X184981638Y-89669361D01*
X185029257Y-89621742D01*
X185124495Y-89478885D01*
X185172114Y-89288409D01*
X185172114Y-88907457D01*
X185124495Y-88812219D01*
X185076876Y-88764600D01*
X184981638Y-88716980D01*
X184791161Y-88716980D01*
X184695923Y-88764600D01*
X184648304Y-88812219D01*
X184600685Y-88907457D01*
X184600685Y-89145552D01*
X184648304Y-89240790D01*
X184695923Y-89288409D01*
X184791161Y-89336028D01*
X184981638Y-89336028D01*
X185076876Y-89288409D01*
X185124495Y-89240790D01*
X185172114Y-89145552D01*
X182648304Y-104290314D02*
X182648304Y-105290314D01*
X183124495Y-104814123D02*
X183172114Y-104909361D01*
X183267352Y-104956980D01*
X182648304Y-104814123D02*
X182695923Y-104909361D01*
X182791161Y-104956980D01*
X182981638Y-104956980D01*
X183076876Y-104909361D01*
X183124495Y-104814123D01*
X183124495Y-104290314D01*
X184219733Y-104956980D02*
X183648304Y-104956980D01*
X183934019Y-104956980D02*
X183934019Y-103956980D01*
X183838780Y-104099838D01*
X183743542Y-104195076D01*
X183648304Y-104242695D01*
X184553066Y-103956980D02*
X185172114Y-103956980D01*
X184838780Y-104337933D01*
X184981638Y-104337933D01*
X185076876Y-104385552D01*
X185124495Y-104433171D01*
X185172114Y-104528409D01*
X185172114Y-104766504D01*
X185124495Y-104861742D01*
X185076876Y-104909361D01*
X184981638Y-104956980D01*
X184695923Y-104956980D01*
X184600685Y-104909361D01*
X184553066Y-104861742D01*
X182648304Y-96670314D02*
X182648304Y-97670314D01*
X183124495Y-97194123D02*
X183172114Y-97289361D01*
X183267352Y-97336980D01*
X182648304Y-97194123D02*
X182695923Y-97289361D01*
X182791161Y-97336980D01*
X182981638Y-97336980D01*
X183076876Y-97289361D01*
X183124495Y-97194123D01*
X183124495Y-96670314D01*
X184219733Y-97336980D02*
X183648304Y-97336980D01*
X183934019Y-97336980D02*
X183934019Y-96336980D01*
X183838780Y-96479838D01*
X183743542Y-96575076D01*
X183648304Y-96622695D01*
X185076876Y-96336980D02*
X184886400Y-96336980D01*
X184791161Y-96384600D01*
X184743542Y-96432219D01*
X184648304Y-96575076D01*
X184600685Y-96765552D01*
X184600685Y-97146504D01*
X184648304Y-97241742D01*
X184695923Y-97289361D01*
X184791161Y-97336980D01*
X184981638Y-97336980D01*
X185076876Y-97289361D01*
X185124495Y-97241742D01*
X185172114Y-97146504D01*
X185172114Y-96908409D01*
X185124495Y-96813171D01*
X185076876Y-96765552D01*
X184981638Y-96717933D01*
X184791161Y-96717933D01*
X184695923Y-96765552D01*
X184648304Y-96813171D01*
X184600685Y-96908409D01*
X182648304Y-86510314D02*
X182648304Y-87510314D01*
X183124495Y-87034123D02*
X183172114Y-87129361D01*
X183267352Y-87176980D01*
X182648304Y-87034123D02*
X182695923Y-87129361D01*
X182791161Y-87176980D01*
X182981638Y-87176980D01*
X183076876Y-87129361D01*
X183124495Y-87034123D01*
X183124495Y-86510314D01*
X183648304Y-86272219D02*
X183695923Y-86224600D01*
X183791161Y-86176980D01*
X184029257Y-86176980D01*
X184124495Y-86224600D01*
X184172114Y-86272219D01*
X184219733Y-86367457D01*
X184219733Y-86462695D01*
X184172114Y-86605552D01*
X183600685Y-87176980D01*
X184219733Y-87176980D01*
X184838780Y-86176980D02*
X184934019Y-86176980D01*
X185029257Y-86224600D01*
X185076876Y-86272219D01*
X185124495Y-86367457D01*
X185172114Y-86557933D01*
X185172114Y-86796028D01*
X185124495Y-86986504D01*
X185076876Y-87081742D01*
X185029257Y-87129361D01*
X184934019Y-87176980D01*
X184838780Y-87176980D01*
X184743542Y-87129361D01*
X184695923Y-87081742D01*
X184648304Y-86986504D01*
X184600685Y-86796028D01*
X184600685Y-86557933D01*
X184648304Y-86367457D01*
X184695923Y-86272219D01*
X184743542Y-86224600D01*
X184838780Y-86176980D01*
X182648304Y-94130314D02*
X182648304Y-95130314D01*
X183124495Y-94654123D02*
X183172114Y-94749361D01*
X183267352Y-94796980D01*
X182648304Y-94654123D02*
X182695923Y-94749361D01*
X182791161Y-94796980D01*
X182981638Y-94796980D01*
X183076876Y-94749361D01*
X183124495Y-94654123D01*
X183124495Y-94130314D01*
X184219733Y-94796980D02*
X183648304Y-94796980D01*
X183934019Y-94796980D02*
X183934019Y-93796980D01*
X183838780Y-93939838D01*
X183743542Y-94035076D01*
X183648304Y-94082695D01*
X184553066Y-93796980D02*
X185219733Y-93796980D01*
X184791161Y-94796980D01*
X182648304Y-91590314D02*
X182648304Y-92590314D01*
X183124495Y-92114123D02*
X183172114Y-92209361D01*
X183267352Y-92256980D01*
X182648304Y-92114123D02*
X182695923Y-92209361D01*
X182791161Y-92256980D01*
X182981638Y-92256980D01*
X183076876Y-92209361D01*
X183124495Y-92114123D01*
X183124495Y-91590314D01*
X184219733Y-92256980D02*
X183648304Y-92256980D01*
X183934019Y-92256980D02*
X183934019Y-91256980D01*
X183838780Y-91399838D01*
X183743542Y-91495076D01*
X183648304Y-91542695D01*
X184791161Y-91685552D02*
X184695923Y-91637933D01*
X184648304Y-91590314D01*
X184600685Y-91495076D01*
X184600685Y-91447457D01*
X184648304Y-91352219D01*
X184695923Y-91304600D01*
X184791161Y-91256980D01*
X184981638Y-91256980D01*
X185076876Y-91304600D01*
X185124495Y-91352219D01*
X185172114Y-91447457D01*
X185172114Y-91495076D01*
X185124495Y-91590314D01*
X185076876Y-91637933D01*
X184981638Y-91685552D01*
X184791161Y-91685552D01*
X184695923Y-91733171D01*
X184648304Y-91780790D01*
X184600685Y-91876028D01*
X184600685Y-92066504D01*
X184648304Y-92161742D01*
X184695923Y-92209361D01*
X184791161Y-92256980D01*
X184981638Y-92256980D01*
X185076876Y-92209361D01*
X185124495Y-92161742D01*
X185172114Y-92066504D01*
X185172114Y-91876028D01*
X185124495Y-91780790D01*
X185076876Y-91733171D01*
X184981638Y-91685552D01*
X182648304Y-109370314D02*
X182648304Y-110370314D01*
X183124495Y-109894123D02*
X183172114Y-109989361D01*
X183267352Y-110036980D01*
X182648304Y-109894123D02*
X182695923Y-109989361D01*
X182791161Y-110036980D01*
X182981638Y-110036980D01*
X183076876Y-109989361D01*
X183124495Y-109894123D01*
X183124495Y-109370314D01*
X184219733Y-110036980D02*
X183648304Y-110036980D01*
X183934019Y-110036980D02*
X183934019Y-109036980D01*
X183838780Y-109179838D01*
X183743542Y-109275076D01*
X183648304Y-109322695D01*
X185172114Y-110036980D02*
X184600685Y-110036980D01*
X184886400Y-110036980D02*
X184886400Y-109036980D01*
X184791161Y-109179838D01*
X184695923Y-109275076D01*
X184600685Y-109322695D01*
X182438304Y-55100314D02*
X182438304Y-56100314D01*
X182914495Y-55624123D02*
X182962114Y-55719361D01*
X183057352Y-55766980D01*
X182438304Y-55624123D02*
X182485923Y-55719361D01*
X182581161Y-55766980D01*
X182771638Y-55766980D01*
X182866876Y-55719361D01*
X182914495Y-55624123D01*
X182914495Y-55100314D01*
X184009733Y-55766980D02*
X183438304Y-55766980D01*
X183724019Y-55766980D02*
X183724019Y-54766980D01*
X183628780Y-54909838D01*
X183533542Y-55005076D01*
X183438304Y-55052695D01*
X184628780Y-54766980D02*
X184724019Y-54766980D01*
X184819257Y-54814600D01*
X184866876Y-54862219D01*
X184914495Y-54957457D01*
X184962114Y-55147933D01*
X184962114Y-55386028D01*
X184914495Y-55576504D01*
X184866876Y-55671742D01*
X184819257Y-55719361D01*
X184724019Y-55766980D01*
X184628780Y-55766980D01*
X184533542Y-55719361D01*
X184485923Y-55671742D01*
X184438304Y-55576504D01*
X184390685Y-55386028D01*
X184390685Y-55147933D01*
X184438304Y-54957457D01*
X184485923Y-54862219D01*
X184533542Y-54814600D01*
X184628780Y-54766980D01*
X182424495Y-57650314D02*
X182424495Y-58650314D01*
X182900685Y-58174123D02*
X182948304Y-58269361D01*
X183043542Y-58316980D01*
X182424495Y-58174123D02*
X182472114Y-58269361D01*
X182567352Y-58316980D01*
X182757828Y-58316980D01*
X182853066Y-58269361D01*
X182900685Y-58174123D01*
X182900685Y-57650314D01*
X183519733Y-58316980D02*
X183710209Y-58316980D01*
X183805447Y-58269361D01*
X183853066Y-58221742D01*
X183948304Y-58078885D01*
X183995923Y-57888409D01*
X183995923Y-57507457D01*
X183948304Y-57412219D01*
X183900685Y-57364600D01*
X183805447Y-57316980D01*
X183614971Y-57316980D01*
X183519733Y-57364600D01*
X183472114Y-57412219D01*
X183424495Y-57507457D01*
X183424495Y-57745552D01*
X183472114Y-57840790D01*
X183519733Y-57888409D01*
X183614971Y-57936028D01*
X183805447Y-57936028D01*
X183900685Y-57888409D01*
X183948304Y-57840790D01*
X183995923Y-57745552D01*
X182424495Y-60190314D02*
X182424495Y-61190314D01*
X182900685Y-60714123D02*
X182948304Y-60809361D01*
X183043542Y-60856980D01*
X182424495Y-60714123D02*
X182472114Y-60809361D01*
X182567352Y-60856980D01*
X182757828Y-60856980D01*
X182853066Y-60809361D01*
X182900685Y-60714123D01*
X182900685Y-60190314D01*
X183614971Y-60285552D02*
X183519733Y-60237933D01*
X183472114Y-60190314D01*
X183424495Y-60095076D01*
X183424495Y-60047457D01*
X183472114Y-59952219D01*
X183519733Y-59904600D01*
X183614971Y-59856980D01*
X183805447Y-59856980D01*
X183900685Y-59904600D01*
X183948304Y-59952219D01*
X183995923Y-60047457D01*
X183995923Y-60095076D01*
X183948304Y-60190314D01*
X183900685Y-60237933D01*
X183805447Y-60285552D01*
X183614971Y-60285552D01*
X183519733Y-60333171D01*
X183472114Y-60380790D01*
X183424495Y-60476028D01*
X183424495Y-60666504D01*
X183472114Y-60761742D01*
X183519733Y-60809361D01*
X183614971Y-60856980D01*
X183805447Y-60856980D01*
X183900685Y-60809361D01*
X183948304Y-60761742D01*
X183995923Y-60666504D01*
X183995923Y-60476028D01*
X183948304Y-60380790D01*
X183900685Y-60333171D01*
X183805447Y-60285552D01*
X182424495Y-62730314D02*
X182424495Y-63730314D01*
X182900685Y-63254123D02*
X182948304Y-63349361D01*
X183043542Y-63396980D01*
X182424495Y-63254123D02*
X182472114Y-63349361D01*
X182567352Y-63396980D01*
X182757828Y-63396980D01*
X182853066Y-63349361D01*
X182900685Y-63254123D01*
X182900685Y-62730314D01*
X183376876Y-62396980D02*
X184043542Y-62396980D01*
X183614971Y-63396980D01*
X182424495Y-65270314D02*
X182424495Y-66270314D01*
X182900685Y-65794123D02*
X182948304Y-65889361D01*
X183043542Y-65936980D01*
X182424495Y-65794123D02*
X182472114Y-65889361D01*
X182567352Y-65936980D01*
X182757828Y-65936980D01*
X182853066Y-65889361D01*
X182900685Y-65794123D01*
X182900685Y-65270314D01*
X183900685Y-64936980D02*
X183710209Y-64936980D01*
X183614971Y-64984600D01*
X183567352Y-65032219D01*
X183472114Y-65175076D01*
X183424495Y-65365552D01*
X183424495Y-65746504D01*
X183472114Y-65841742D01*
X183519733Y-65889361D01*
X183614971Y-65936980D01*
X183805447Y-65936980D01*
X183900685Y-65889361D01*
X183948304Y-65841742D01*
X183995923Y-65746504D01*
X183995923Y-65508409D01*
X183948304Y-65413171D01*
X183900685Y-65365552D01*
X183805447Y-65317933D01*
X183614971Y-65317933D01*
X183519733Y-65365552D01*
X183472114Y-65413171D01*
X183424495Y-65508409D01*
X182424495Y-67810314D02*
X182424495Y-68810314D01*
X182900685Y-68334123D02*
X182948304Y-68429361D01*
X183043542Y-68476980D01*
X182424495Y-68334123D02*
X182472114Y-68429361D01*
X182567352Y-68476980D01*
X182757828Y-68476980D01*
X182853066Y-68429361D01*
X182900685Y-68334123D01*
X182900685Y-67810314D01*
X183948304Y-67476980D02*
X183472114Y-67476980D01*
X183424495Y-67953171D01*
X183472114Y-67905552D01*
X183567352Y-67857933D01*
X183805447Y-67857933D01*
X183900685Y-67905552D01*
X183948304Y-67953171D01*
X183995923Y-68048409D01*
X183995923Y-68286504D01*
X183948304Y-68381742D01*
X183900685Y-68429361D01*
X183805447Y-68476980D01*
X183567352Y-68476980D01*
X183472114Y-68429361D01*
X183424495Y-68381742D01*
X182424495Y-70350314D02*
X182424495Y-71350314D01*
X182900685Y-70874123D02*
X182948304Y-70969361D01*
X183043542Y-71016980D01*
X182424495Y-70874123D02*
X182472114Y-70969361D01*
X182567352Y-71016980D01*
X182757828Y-71016980D01*
X182853066Y-70969361D01*
X182900685Y-70874123D01*
X182900685Y-70350314D01*
X183900685Y-70350314D02*
X183900685Y-71016980D01*
X183662590Y-69969361D02*
X183424495Y-70683647D01*
X184043542Y-70683647D01*
X182424495Y-72890314D02*
X182424495Y-73890314D01*
X182900685Y-73414123D02*
X182948304Y-73509361D01*
X183043542Y-73556980D01*
X182424495Y-73414123D02*
X182472114Y-73509361D01*
X182567352Y-73556980D01*
X182757828Y-73556980D01*
X182853066Y-73509361D01*
X182900685Y-73414123D01*
X182900685Y-72890314D01*
X183376876Y-72556980D02*
X183995923Y-72556980D01*
X183662590Y-72937933D01*
X183805447Y-72937933D01*
X183900685Y-72985552D01*
X183948304Y-73033171D01*
X183995923Y-73128409D01*
X183995923Y-73366504D01*
X183948304Y-73461742D01*
X183900685Y-73509361D01*
X183805447Y-73556980D01*
X183519733Y-73556980D01*
X183424495Y-73509361D01*
X183376876Y-73461742D01*
X182424495Y-75430314D02*
X182424495Y-76430314D01*
X182900685Y-75954123D02*
X182948304Y-76049361D01*
X183043542Y-76096980D01*
X182424495Y-75954123D02*
X182472114Y-76049361D01*
X182567352Y-76096980D01*
X182757828Y-76096980D01*
X182853066Y-76049361D01*
X182900685Y-75954123D01*
X182900685Y-75430314D01*
X183424495Y-75192219D02*
X183472114Y-75144600D01*
X183567352Y-75096980D01*
X183805447Y-75096980D01*
X183900685Y-75144600D01*
X183948304Y-75192219D01*
X183995923Y-75287457D01*
X183995923Y-75382695D01*
X183948304Y-75525552D01*
X183376876Y-76096980D01*
X183995923Y-76096980D01*
X182414495Y-77960314D02*
X182414495Y-78960314D01*
X182890685Y-78484123D02*
X182938304Y-78579361D01*
X183033542Y-78626980D01*
X182414495Y-78484123D02*
X182462114Y-78579361D01*
X182557352Y-78626980D01*
X182747828Y-78626980D01*
X182843066Y-78579361D01*
X182890685Y-78484123D01*
X182890685Y-77960314D01*
X183985923Y-78626980D02*
X183414495Y-78626980D01*
X183700209Y-78626980D02*
X183700209Y-77626980D01*
X183604971Y-77769838D01*
X183509733Y-77865076D01*
X183414495Y-77912695D01*
X107316400Y-151607933D02*
X107316400Y-150207933D01*
X107783066Y-151207933D01*
X108249733Y-150207933D01*
X108249733Y-151607933D01*
X109516400Y-151607933D02*
X109516400Y-150874600D01*
X109449733Y-150741266D01*
X109316400Y-150674600D01*
X109049733Y-150674600D01*
X108916400Y-150741266D01*
X109516400Y-151541266D02*
X109383066Y-151607933D01*
X109049733Y-151607933D01*
X108916400Y-151541266D01*
X108849733Y-151407933D01*
X108849733Y-151274600D01*
X108916400Y-151141266D01*
X109049733Y-151074600D01*
X109383066Y-151074600D01*
X109516400Y-151007933D01*
X110116400Y-151541266D02*
X110249733Y-151607933D01*
X110516400Y-151607933D01*
X110649733Y-151541266D01*
X110716400Y-151407933D01*
X110716400Y-151341266D01*
X110649733Y-151207933D01*
X110516400Y-151141266D01*
X110316400Y-151141266D01*
X110183066Y-151074600D01*
X110116400Y-150941266D01*
X110116400Y-150874600D01*
X110183066Y-150741266D01*
X110316400Y-150674600D01*
X110516400Y-150674600D01*
X110649733Y-150741266D01*
X111116400Y-150674600D02*
X111649733Y-150674600D01*
X111316400Y-150207933D02*
X111316400Y-151407933D01*
X111383066Y-151541266D01*
X111516400Y-151607933D01*
X111649733Y-151607933D01*
X112649733Y-151541266D02*
X112516400Y-151607933D01*
X112249733Y-151607933D01*
X112116400Y-151541266D01*
X112049733Y-151407933D01*
X112049733Y-150874600D01*
X112116400Y-150741266D01*
X112249733Y-150674600D01*
X112516400Y-150674600D01*
X112649733Y-150741266D01*
X112716400Y-150874600D01*
X112716400Y-151007933D01*
X112049733Y-151141266D01*
X113316400Y-151607933D02*
X113316400Y-150674600D01*
X113316400Y-150941266D02*
X113383066Y-150807933D01*
X113449733Y-150741266D01*
X113583066Y-150674600D01*
X113716400Y-150674600D01*
X116049733Y-151607933D02*
X115583066Y-150941266D01*
X115249733Y-151607933D02*
X115249733Y-150207933D01*
X115783066Y-150207933D01*
X115916400Y-150274600D01*
X115983066Y-150341266D01*
X116049733Y-150474600D01*
X116049733Y-150674600D01*
X115983066Y-150807933D01*
X115916400Y-150874600D01*
X115783066Y-150941266D01*
X115249733Y-150941266D01*
X117183066Y-151541266D02*
X117049733Y-151607933D01*
X116783066Y-151607933D01*
X116649733Y-151541266D01*
X116583066Y-151407933D01*
X116583066Y-150874600D01*
X116649733Y-150741266D01*
X116783066Y-150674600D01*
X117049733Y-150674600D01*
X117183066Y-150741266D01*
X117249733Y-150874600D01*
X117249733Y-151007933D01*
X116583066Y-151141266D01*
X117783066Y-151541266D02*
X117916400Y-151607933D01*
X118183066Y-151607933D01*
X118316400Y-151541266D01*
X118383066Y-151407933D01*
X118383066Y-151341266D01*
X118316400Y-151207933D01*
X118183066Y-151141266D01*
X117983066Y-151141266D01*
X117849733Y-151074600D01*
X117783066Y-150941266D01*
X117783066Y-150874600D01*
X117849733Y-150741266D01*
X117983066Y-150674600D01*
X118183066Y-150674600D01*
X118316400Y-150741266D01*
X119516400Y-151541266D02*
X119383066Y-151607933D01*
X119116400Y-151607933D01*
X118983066Y-151541266D01*
X118916400Y-151407933D01*
X118916400Y-150874600D01*
X118983066Y-150741266D01*
X119116400Y-150674600D01*
X119383066Y-150674600D01*
X119516400Y-150741266D01*
X119583066Y-150874600D01*
X119583066Y-151007933D01*
X118916400Y-151141266D01*
X119983066Y-150674600D02*
X120516400Y-150674600D01*
X120183066Y-150207933D02*
X120183066Y-151407933D01*
X120249733Y-151541266D01*
X120383066Y-151607933D01*
X120516400Y-151607933D01*
X114194971Y-66443647D02*
X114194971Y-66110314D01*
X114718780Y-65967457D02*
X114718780Y-66443647D01*
X113718780Y-66443647D01*
X113718780Y-65967457D01*
X114194971Y-65538885D02*
X114194971Y-65205552D01*
X114718780Y-65062695D02*
X114718780Y-65538885D01*
X113718780Y-65538885D01*
X113718780Y-65062695D01*
X114718780Y-64634123D02*
X113718780Y-64634123D01*
X113718780Y-64253171D01*
X113766400Y-64157933D01*
X113814019Y-64110314D01*
X113909257Y-64062695D01*
X114052114Y-64062695D01*
X114147352Y-64110314D01*
X114194971Y-64157933D01*
X114242590Y-64253171D01*
X114242590Y-64634123D01*
X114718780Y-63062695D02*
X114242590Y-63396028D01*
X114718780Y-63634123D02*
X113718780Y-63634123D01*
X113718780Y-63253171D01*
X113766400Y-63157933D01*
X113814019Y-63110314D01*
X113909257Y-63062695D01*
X114052114Y-63062695D01*
X114147352Y-63110314D01*
X114194971Y-63157933D01*
X114242590Y-63253171D01*
X114242590Y-63634123D01*
X113718780Y-62443647D02*
X113718780Y-62253171D01*
X113766400Y-62157933D01*
X113861638Y-62062695D01*
X114052114Y-62015076D01*
X114385447Y-62015076D01*
X114575923Y-62062695D01*
X114671161Y-62157933D01*
X114718780Y-62253171D01*
X114718780Y-62443647D01*
X114671161Y-62538885D01*
X114575923Y-62634123D01*
X114385447Y-62681742D01*
X114052114Y-62681742D01*
X113861638Y-62634123D01*
X113766400Y-62538885D01*
X113718780Y-62443647D01*
X114718780Y-61586504D02*
X113718780Y-61586504D01*
X114433066Y-61253171D01*
X113718780Y-60919838D01*
X114718780Y-60919838D01*
X114718780Y-59157933D02*
X114718780Y-59729361D01*
X114718780Y-59443647D02*
X113718780Y-59443647D01*
X113861638Y-59538885D01*
X113956876Y-59634123D01*
X114004495Y-59729361D01*
X114284971Y-94178647D02*
X114284971Y-93845314D01*
X114808780Y-93702457D02*
X114808780Y-94178647D01*
X113808780Y-94178647D01*
X113808780Y-93702457D01*
X114284971Y-93273885D02*
X114284971Y-92940552D01*
X114808780Y-92797695D02*
X114808780Y-93273885D01*
X113808780Y-93273885D01*
X113808780Y-92797695D01*
X114808780Y-92369123D02*
X113808780Y-92369123D01*
X113808780Y-91988171D01*
X113856400Y-91892933D01*
X113904019Y-91845314D01*
X113999257Y-91797695D01*
X114142114Y-91797695D01*
X114237352Y-91845314D01*
X114284971Y-91892933D01*
X114332590Y-91988171D01*
X114332590Y-92369123D01*
X114808780Y-90797695D02*
X114332590Y-91131028D01*
X114808780Y-91369123D02*
X113808780Y-91369123D01*
X113808780Y-90988171D01*
X113856400Y-90892933D01*
X113904019Y-90845314D01*
X113999257Y-90797695D01*
X114142114Y-90797695D01*
X114237352Y-90845314D01*
X114284971Y-90892933D01*
X114332590Y-90988171D01*
X114332590Y-91369123D01*
X113808780Y-90178647D02*
X113808780Y-89988171D01*
X113856400Y-89892933D01*
X113951638Y-89797695D01*
X114142114Y-89750076D01*
X114475447Y-89750076D01*
X114665923Y-89797695D01*
X114761161Y-89892933D01*
X114808780Y-89988171D01*
X114808780Y-90178647D01*
X114761161Y-90273885D01*
X114665923Y-90369123D01*
X114475447Y-90416742D01*
X114142114Y-90416742D01*
X113951638Y-90369123D01*
X113856400Y-90273885D01*
X113808780Y-90178647D01*
X114808780Y-89321504D02*
X113808780Y-89321504D01*
X114523066Y-88988171D01*
X113808780Y-88654838D01*
X114808780Y-88654838D01*
X113904019Y-87464361D02*
X113856400Y-87416742D01*
X113808780Y-87321504D01*
X113808780Y-87083409D01*
X113856400Y-86988171D01*
X113904019Y-86940552D01*
X113999257Y-86892933D01*
X114094495Y-86892933D01*
X114237352Y-86940552D01*
X114808780Y-87511980D01*
X114808780Y-86892933D01*
X114249971Y-123008647D02*
X114249971Y-122675314D01*
X114773780Y-122532457D02*
X114773780Y-123008647D01*
X113773780Y-123008647D01*
X113773780Y-122532457D01*
X114249971Y-122103885D02*
X114249971Y-121770552D01*
X114773780Y-121627695D02*
X114773780Y-122103885D01*
X113773780Y-122103885D01*
X113773780Y-121627695D01*
X114773780Y-121199123D02*
X113773780Y-121199123D01*
X113773780Y-120818171D01*
X113821400Y-120722933D01*
X113869019Y-120675314D01*
X113964257Y-120627695D01*
X114107114Y-120627695D01*
X114202352Y-120675314D01*
X114249971Y-120722933D01*
X114297590Y-120818171D01*
X114297590Y-121199123D01*
X114773780Y-119627695D02*
X114297590Y-119961028D01*
X114773780Y-120199123D02*
X113773780Y-120199123D01*
X113773780Y-119818171D01*
X113821400Y-119722933D01*
X113869019Y-119675314D01*
X113964257Y-119627695D01*
X114107114Y-119627695D01*
X114202352Y-119675314D01*
X114249971Y-119722933D01*
X114297590Y-119818171D01*
X114297590Y-120199123D01*
X113773780Y-119008647D02*
X113773780Y-118818171D01*
X113821400Y-118722933D01*
X113916638Y-118627695D01*
X114107114Y-118580076D01*
X114440447Y-118580076D01*
X114630923Y-118627695D01*
X114726161Y-118722933D01*
X114773780Y-118818171D01*
X114773780Y-119008647D01*
X114726161Y-119103885D01*
X114630923Y-119199123D01*
X114440447Y-119246742D01*
X114107114Y-119246742D01*
X113916638Y-119199123D01*
X113821400Y-119103885D01*
X113773780Y-119008647D01*
X114773780Y-118151504D02*
X113773780Y-118151504D01*
X114488066Y-117818171D01*
X113773780Y-117484838D01*
X114773780Y-117484838D01*
X113773780Y-116341980D02*
X113773780Y-115722933D01*
X114154733Y-116056266D01*
X114154733Y-115913409D01*
X114202352Y-115818171D01*
X114249971Y-115770552D01*
X114345209Y-115722933D01*
X114583304Y-115722933D01*
X114678542Y-115770552D01*
X114726161Y-115818171D01*
X114773780Y-115913409D01*
X114773780Y-116199123D01*
X114726161Y-116294361D01*
X114678542Y-116341980D01*
X114249971Y-143908647D02*
X114249971Y-143575314D01*
X114773780Y-143432457D02*
X114773780Y-143908647D01*
X113773780Y-143908647D01*
X113773780Y-143432457D01*
X114249971Y-143003885D02*
X114249971Y-142670552D01*
X114773780Y-142527695D02*
X114773780Y-143003885D01*
X113773780Y-143003885D01*
X113773780Y-142527695D01*
X114773780Y-142099123D02*
X113773780Y-142099123D01*
X113773780Y-141718171D01*
X113821400Y-141622933D01*
X113869019Y-141575314D01*
X113964257Y-141527695D01*
X114107114Y-141527695D01*
X114202352Y-141575314D01*
X114249971Y-141622933D01*
X114297590Y-141718171D01*
X114297590Y-142099123D01*
X114773780Y-140527695D02*
X114297590Y-140861028D01*
X114773780Y-141099123D02*
X113773780Y-141099123D01*
X113773780Y-140718171D01*
X113821400Y-140622933D01*
X113869019Y-140575314D01*
X113964257Y-140527695D01*
X114107114Y-140527695D01*
X114202352Y-140575314D01*
X114249971Y-140622933D01*
X114297590Y-140718171D01*
X114297590Y-141099123D01*
X113773780Y-139908647D02*
X113773780Y-139718171D01*
X113821400Y-139622933D01*
X113916638Y-139527695D01*
X114107114Y-139480076D01*
X114440447Y-139480076D01*
X114630923Y-139527695D01*
X114726161Y-139622933D01*
X114773780Y-139718171D01*
X114773780Y-139908647D01*
X114726161Y-140003885D01*
X114630923Y-140099123D01*
X114440447Y-140146742D01*
X114107114Y-140146742D01*
X113916638Y-140099123D01*
X113821400Y-140003885D01*
X113773780Y-139908647D01*
X114773780Y-139051504D02*
X113773780Y-139051504D01*
X114488066Y-138718171D01*
X113773780Y-138384838D01*
X114773780Y-138384838D01*
X114107114Y-136718171D02*
X114773780Y-136718171D01*
X113726161Y-136956266D02*
X114440447Y-137194361D01*
X114440447Y-136575314D01*
D11*
%TO.C,J11*%
X161922400Y-157572600D02*
X161922400Y-160232600D01*
X172142400Y-157572600D02*
X161922400Y-157572600D01*
X172142400Y-160232600D02*
X161922400Y-160232600D01*
X172142400Y-157572600D02*
X172142400Y-160232600D01*
X173412400Y-157572600D02*
X174742400Y-157572600D01*
X174742400Y-157572600D02*
X174742400Y-158902600D01*
%TO.C,R32*%
X173226400Y-117374600D02*
X172276400Y-117374600D01*
X167486400Y-117374600D02*
X168436400Y-117374600D01*
X172276400Y-116454600D02*
X168436400Y-116454600D01*
X172276400Y-118294600D02*
X172276400Y-116454600D01*
X168436400Y-118294600D02*
X172276400Y-118294600D01*
X168436400Y-116454600D02*
X168436400Y-118294600D01*
%TO.C,R31*%
X173226400Y-119954600D02*
X172276400Y-119954600D01*
X167486400Y-119954600D02*
X168436400Y-119954600D01*
X172276400Y-119034600D02*
X168436400Y-119034600D01*
X172276400Y-120874600D02*
X172276400Y-119034600D01*
X168436400Y-120874600D02*
X172276400Y-120874600D01*
X168436400Y-119034600D02*
X168436400Y-120874600D01*
%TO.C,R30*%
X173226400Y-122494600D02*
X172276400Y-122494600D01*
X167486400Y-122494600D02*
X168436400Y-122494600D01*
X172276400Y-121574600D02*
X168436400Y-121574600D01*
X172276400Y-123414600D02*
X172276400Y-121574600D01*
X168436400Y-123414600D02*
X172276400Y-123414600D01*
X168436400Y-121574600D02*
X168436400Y-123414600D01*
%TO.C,R29*%
X173226400Y-125014600D02*
X172276400Y-125014600D01*
X167486400Y-125014600D02*
X168436400Y-125014600D01*
X172276400Y-124094600D02*
X168436400Y-124094600D01*
X172276400Y-125934600D02*
X172276400Y-124094600D01*
X168436400Y-125934600D02*
X172276400Y-125934600D01*
X168436400Y-124094600D02*
X168436400Y-125934600D01*
%TO.C,R28*%
X173216400Y-127564600D02*
X172266400Y-127564600D01*
X167476400Y-127564600D02*
X168426400Y-127564600D01*
X172266400Y-126644600D02*
X168426400Y-126644600D01*
X172266400Y-128484600D02*
X172266400Y-126644600D01*
X168426400Y-128484600D02*
X172266400Y-128484600D01*
X168426400Y-126644600D02*
X168426400Y-128484600D01*
%TO.C,R27*%
X173216400Y-130104600D02*
X172266400Y-130104600D01*
X167476400Y-130104600D02*
X168426400Y-130104600D01*
X172266400Y-129184600D02*
X168426400Y-129184600D01*
X172266400Y-131024600D02*
X172266400Y-129184600D01*
X168426400Y-131024600D02*
X172266400Y-131024600D01*
X168426400Y-129184600D02*
X168426400Y-131024600D01*
%TO.C,R26*%
X173206400Y-132594600D02*
X172256400Y-132594600D01*
X167466400Y-132594600D02*
X168416400Y-132594600D01*
X172256400Y-131674600D02*
X168416400Y-131674600D01*
X172256400Y-133514600D02*
X172256400Y-131674600D01*
X168416400Y-133514600D02*
X172256400Y-133514600D01*
X168416400Y-131674600D02*
X168416400Y-133514600D01*
%TO.C,R25*%
X173216400Y-135154600D02*
X172266400Y-135154600D01*
X167476400Y-135154600D02*
X168426400Y-135154600D01*
X172266400Y-134234600D02*
X168426400Y-134234600D01*
X172266400Y-136074600D02*
X172266400Y-134234600D01*
X168426400Y-136074600D02*
X172266400Y-136074600D01*
X168426400Y-134234600D02*
X168426400Y-136074600D01*
%TO.C,R24*%
X173216400Y-137694600D02*
X172266400Y-137694600D01*
X167476400Y-137694600D02*
X168426400Y-137694600D01*
X172266400Y-136774600D02*
X168426400Y-136774600D01*
X172266400Y-138614600D02*
X172266400Y-136774600D01*
X168426400Y-138614600D02*
X172266400Y-138614600D01*
X168426400Y-136774600D02*
X168426400Y-138614600D01*
%TO.C,R23*%
X173226400Y-140214600D02*
X172276400Y-140214600D01*
X167486400Y-140214600D02*
X168436400Y-140214600D01*
X172276400Y-139294600D02*
X168436400Y-139294600D01*
X172276400Y-141134600D02*
X172276400Y-139294600D01*
X168436400Y-141134600D02*
X172276400Y-141134600D01*
X168436400Y-139294600D02*
X168436400Y-141134600D01*
%TO.C,R22*%
X172976400Y-86594600D02*
X172026400Y-86594600D01*
X167236400Y-86594600D02*
X168186400Y-86594600D01*
X172026400Y-85674600D02*
X168186400Y-85674600D01*
X172026400Y-87514600D02*
X172026400Y-85674600D01*
X168186400Y-87514600D02*
X172026400Y-87514600D01*
X168186400Y-85674600D02*
X168186400Y-87514600D01*
%TO.C,R21*%
X172976400Y-89124600D02*
X172026400Y-89124600D01*
X167236400Y-89124600D02*
X168186400Y-89124600D01*
X172026400Y-88204600D02*
X168186400Y-88204600D01*
X172026400Y-90044600D02*
X172026400Y-88204600D01*
X168186400Y-90044600D02*
X172026400Y-90044600D01*
X168186400Y-88204600D02*
X168186400Y-90044600D01*
%TO.C,R20*%
X172976400Y-91674600D02*
X172026400Y-91674600D01*
X167236400Y-91674600D02*
X168186400Y-91674600D01*
X172026400Y-90754600D02*
X168186400Y-90754600D01*
X172026400Y-92594600D02*
X172026400Y-90754600D01*
X168186400Y-92594600D02*
X172026400Y-92594600D01*
X168186400Y-90754600D02*
X168186400Y-92594600D01*
%TO.C,R19*%
X172976400Y-94204600D02*
X172026400Y-94204600D01*
X167236400Y-94204600D02*
X168186400Y-94204600D01*
X172026400Y-93284600D02*
X168186400Y-93284600D01*
X172026400Y-95124600D02*
X172026400Y-93284600D01*
X168186400Y-95124600D02*
X172026400Y-95124600D01*
X168186400Y-93284600D02*
X168186400Y-95124600D01*
%TO.C,R18*%
X172976400Y-96754600D02*
X172026400Y-96754600D01*
X167236400Y-96754600D02*
X168186400Y-96754600D01*
X172026400Y-95834600D02*
X168186400Y-95834600D01*
X172026400Y-97674600D02*
X172026400Y-95834600D01*
X168186400Y-97674600D02*
X172026400Y-97674600D01*
X168186400Y-95834600D02*
X168186400Y-97674600D01*
%TO.C,R17*%
X172966400Y-99294600D02*
X172016400Y-99294600D01*
X167226400Y-99294600D02*
X168176400Y-99294600D01*
X172016400Y-98374600D02*
X168176400Y-98374600D01*
X172016400Y-100214600D02*
X172016400Y-98374600D01*
X168176400Y-100214600D02*
X172016400Y-100214600D01*
X168176400Y-98374600D02*
X168176400Y-100214600D01*
%TO.C,R16*%
X172976400Y-101824600D02*
X172026400Y-101824600D01*
X167236400Y-101824600D02*
X168186400Y-101824600D01*
X172026400Y-100904600D02*
X168186400Y-100904600D01*
X172026400Y-102744600D02*
X172026400Y-100904600D01*
X168186400Y-102744600D02*
X172026400Y-102744600D01*
X168186400Y-100904600D02*
X168186400Y-102744600D01*
%TO.C,R15*%
X172976400Y-104374600D02*
X172026400Y-104374600D01*
X167236400Y-104374600D02*
X168186400Y-104374600D01*
X172026400Y-103454600D02*
X168186400Y-103454600D01*
X172026400Y-105294600D02*
X172026400Y-103454600D01*
X168186400Y-105294600D02*
X172026400Y-105294600D01*
X168186400Y-103454600D02*
X168186400Y-105294600D01*
%TO.C,R14*%
X172976400Y-106914600D02*
X172026400Y-106914600D01*
X167236400Y-106914600D02*
X168186400Y-106914600D01*
X172026400Y-105994600D02*
X168186400Y-105994600D01*
X172026400Y-107834600D02*
X172026400Y-105994600D01*
X168186400Y-107834600D02*
X172026400Y-107834600D01*
X168186400Y-105994600D02*
X168186400Y-107834600D01*
%TO.C,R13*%
X172986400Y-109464600D02*
X172036400Y-109464600D01*
X167246400Y-109464600D02*
X168196400Y-109464600D01*
X172036400Y-108544600D02*
X168196400Y-108544600D01*
X172036400Y-110384600D02*
X172036400Y-108544600D01*
X168196400Y-110384600D02*
X172036400Y-110384600D01*
X168196400Y-108544600D02*
X168196400Y-110384600D01*
%TO.C,R12*%
X172756400Y-55624600D02*
X171806400Y-55624600D01*
X167016400Y-55624600D02*
X167966400Y-55624600D01*
X171806400Y-54704600D02*
X167966400Y-54704600D01*
X171806400Y-56544600D02*
X171806400Y-54704600D01*
X167966400Y-56544600D02*
X171806400Y-56544600D01*
X167966400Y-54704600D02*
X167966400Y-56544600D01*
%TO.C,R11*%
X172756400Y-58174600D02*
X171806400Y-58174600D01*
X167016400Y-58174600D02*
X167966400Y-58174600D01*
X171806400Y-57254600D02*
X167966400Y-57254600D01*
X171806400Y-59094600D02*
X171806400Y-57254600D01*
X167966400Y-59094600D02*
X171806400Y-59094600D01*
X167966400Y-57254600D02*
X167966400Y-59094600D01*
%TO.C,R10*%
X172756400Y-60704600D02*
X171806400Y-60704600D01*
X167016400Y-60704600D02*
X167966400Y-60704600D01*
X171806400Y-59784600D02*
X167966400Y-59784600D01*
X171806400Y-61624600D02*
X171806400Y-59784600D01*
X167966400Y-61624600D02*
X171806400Y-61624600D01*
X167966400Y-59784600D02*
X167966400Y-61624600D01*
%TO.C,R9*%
X172756400Y-63224600D02*
X171806400Y-63224600D01*
X167016400Y-63224600D02*
X167966400Y-63224600D01*
X171806400Y-62304600D02*
X167966400Y-62304600D01*
X171806400Y-64144600D02*
X171806400Y-62304600D01*
X167966400Y-64144600D02*
X171806400Y-64144600D01*
X167966400Y-62304600D02*
X167966400Y-64144600D01*
%TO.C,R8*%
X172756400Y-65784600D02*
X171806400Y-65784600D01*
X167016400Y-65784600D02*
X167966400Y-65784600D01*
X171806400Y-64864600D02*
X167966400Y-64864600D01*
X171806400Y-66704600D02*
X171806400Y-64864600D01*
X167966400Y-66704600D02*
X171806400Y-66704600D01*
X167966400Y-64864600D02*
X167966400Y-66704600D01*
%TO.C,R7*%
X172756400Y-68324600D02*
X171806400Y-68324600D01*
X167016400Y-68324600D02*
X167966400Y-68324600D01*
X171806400Y-67404600D02*
X167966400Y-67404600D01*
X171806400Y-69244600D02*
X171806400Y-67404600D01*
X167966400Y-69244600D02*
X171806400Y-69244600D01*
X167966400Y-67404600D02*
X167966400Y-69244600D01*
%TO.C,R6*%
X172766400Y-70864600D02*
X171816400Y-70864600D01*
X167026400Y-70864600D02*
X167976400Y-70864600D01*
X171816400Y-69944600D02*
X167976400Y-69944600D01*
X171816400Y-71784600D02*
X171816400Y-69944600D01*
X167976400Y-71784600D02*
X171816400Y-71784600D01*
X167976400Y-69944600D02*
X167976400Y-71784600D01*
%TO.C,R5*%
X172766400Y-73414600D02*
X171816400Y-73414600D01*
X167026400Y-73414600D02*
X167976400Y-73414600D01*
X171816400Y-72494600D02*
X167976400Y-72494600D01*
X171816400Y-74334600D02*
X171816400Y-72494600D01*
X167976400Y-74334600D02*
X171816400Y-74334600D01*
X167976400Y-72494600D02*
X167976400Y-74334600D01*
%TO.C,R4*%
X172776400Y-75944600D02*
X171826400Y-75944600D01*
X167036400Y-75944600D02*
X167986400Y-75944600D01*
X171826400Y-75024600D02*
X167986400Y-75024600D01*
X171826400Y-76864600D02*
X171826400Y-75024600D01*
X167986400Y-76864600D02*
X171826400Y-76864600D01*
X167986400Y-75024600D02*
X167986400Y-76864600D01*
%TO.C,R3*%
X172776400Y-78484600D02*
X171826400Y-78484600D01*
X167036400Y-78484600D02*
X167986400Y-78484600D01*
X171826400Y-77564600D02*
X167986400Y-77564600D01*
X171826400Y-79404600D02*
X171826400Y-77564600D01*
X167986400Y-79404600D02*
X171826400Y-79404600D01*
X167986400Y-77564600D02*
X167986400Y-79404600D01*
%TO.C,J10*%
X174626400Y-154274600D02*
X174626400Y-151614600D01*
X164406400Y-154274600D02*
X174626400Y-154274600D01*
X164406400Y-151614600D02*
X174626400Y-151614600D01*
X164406400Y-154274600D02*
X164406400Y-151614600D01*
X163136400Y-154274600D02*
X161806400Y-154274600D01*
X161806400Y-154274600D02*
X161806400Y-152944600D01*
%TO.C,R2*%
X100386400Y-145594600D02*
X98546400Y-145594600D01*
X98546400Y-145594600D02*
X98546400Y-149434600D01*
X98546400Y-149434600D02*
X100386400Y-149434600D01*
X100386400Y-149434600D02*
X100386400Y-145594600D01*
X99466400Y-144644600D02*
X99466400Y-145594600D01*
X99466400Y-150384600D02*
X99466400Y-149434600D01*
%TO.C,R1*%
X100366400Y-135704600D02*
X98526400Y-135704600D01*
X98526400Y-135704600D02*
X98526400Y-139544600D01*
X98526400Y-139544600D02*
X100366400Y-139544600D01*
X100366400Y-139544600D02*
X100366400Y-135704600D01*
X99446400Y-134754600D02*
X99446400Y-135704600D01*
X99446400Y-140494600D02*
X99446400Y-139544600D01*
%TO.C,U1*%
X140246400Y-156784600D02*
X140246400Y-158434600D01*
X140246400Y-158434600D02*
X158146400Y-158434600D01*
X158146400Y-158434600D02*
X158146400Y-153134600D01*
X158146400Y-153134600D02*
X140246400Y-153134600D01*
X140246400Y-153134600D02*
X140246400Y-154784600D01*
X140246400Y-154784600D02*
G75*
G02*
X140246400Y-156784600I0J-1000000D01*
G01*
%TO.C,J9*%
X98806400Y-130144600D02*
X101466400Y-130144600D01*
X98806400Y-127544600D02*
X98806400Y-130144600D01*
X101466400Y-127544600D02*
X101466400Y-130144600D01*
X98806400Y-127544600D02*
X101466400Y-127544600D01*
X98806400Y-126274600D02*
X98806400Y-124944600D01*
X98806400Y-124944600D02*
X100136400Y-124944600D01*
%TO.C,J8*%
X179236400Y-141974600D02*
X181896400Y-141974600D01*
X179236400Y-119054600D02*
X179236400Y-141974600D01*
X181896400Y-119054600D02*
X181896400Y-141974600D01*
X179236400Y-119054600D02*
X181896400Y-119054600D01*
X179236400Y-117784600D02*
X179236400Y-116454600D01*
X179236400Y-116454600D02*
X180566400Y-116454600D01*
%TO.C,J7*%
X178996400Y-110904600D02*
X181656400Y-110904600D01*
X178996400Y-87984600D02*
X178996400Y-110904600D01*
X181656400Y-87984600D02*
X181656400Y-110904600D01*
X178996400Y-87984600D02*
X181656400Y-87984600D01*
X178996400Y-86714600D02*
X178996400Y-85384600D01*
X178996400Y-85384600D02*
X180326400Y-85384600D01*
%TO.C,J3*%
X178816400Y-54034600D02*
X180146400Y-54034600D01*
X178816400Y-55364600D02*
X178816400Y-54034600D01*
X178816400Y-56634600D02*
X181476400Y-56634600D01*
X181476400Y-56634600D02*
X181476400Y-79554600D01*
X178816400Y-56634600D02*
X178816400Y-79554600D01*
X178816400Y-79554600D02*
X181476400Y-79554600D01*
%TO.C,J4*%
X137016400Y-160204600D02*
X137016400Y-155004600D01*
X119176400Y-160204600D02*
X137016400Y-160204600D01*
X116576400Y-155004600D02*
X137016400Y-155004600D01*
X119176400Y-160204600D02*
X119176400Y-157604600D01*
X119176400Y-157604600D02*
X116576400Y-157604600D01*
X116576400Y-157604600D02*
X116576400Y-155004600D01*
X117906400Y-160204600D02*
X116576400Y-160204600D01*
X116576400Y-160204600D02*
X116576400Y-158874600D01*
%TO.C,J6*%
X153696400Y-41739600D02*
X153696400Y-43069600D01*
X152366400Y-41739600D02*
X153696400Y-41739600D01*
X151096400Y-41739600D02*
X151096400Y-44399600D01*
X151096400Y-44399600D02*
X115476400Y-44399600D01*
X151096400Y-41739600D02*
X115476400Y-41739600D01*
X115476400Y-41739600D02*
X115476400Y-44399600D01*
%TO.C,J5*%
X104211400Y-61129600D02*
X104211400Y-50969600D01*
X96591400Y-61129600D02*
X104211400Y-61129600D01*
X96591400Y-50969600D02*
X96591400Y-61129600D01*
X104211400Y-50969600D02*
X96591400Y-50969600D01*
X102941400Y-50969600D02*
X102941400Y-61129600D01*
%TO.C,D2*%
X102256400Y-142988600D02*
X102256400Y-143144600D01*
X102256400Y-145304600D02*
X102256400Y-145460600D01*
X105488735Y-143145992D02*
G75*
G03*
X102256400Y-142989084I-1672335J-1078608D01*
G01*
X105488735Y-145303208D02*
G75*
G02*
X102256400Y-145460116I-1672335J1078608D01*
G01*
X104857530Y-143144763D02*
G75*
G03*
X102775439Y-143144600I-1041130J-1079837D01*
G01*
X104857530Y-145304437D02*
G75*
G02*
X102775439Y-145304600I-1041130J1079837D01*
G01*
%TO.C,D1*%
X105336400Y-137620600D02*
X105336400Y-137464600D01*
X105336400Y-135304600D02*
X105336400Y-135148600D01*
X102104065Y-137463208D02*
G75*
G03*
X105336400Y-137620116I1672335J1078608D01*
G01*
X102104065Y-135305992D02*
G75*
G02*
X105336400Y-135149084I1672335J-1078608D01*
G01*
X102735270Y-137464437D02*
G75*
G03*
X104817361Y-137464600I1041130J1079837D01*
G01*
X102735270Y-135304763D02*
G75*
G02*
X104817361Y-135304600I1041130J-1079837D01*
G01*
%TO.C,BAR3*%
X165356400Y-115954600D02*
X165356400Y-141634600D01*
X154916400Y-115954600D02*
X165356400Y-115954600D01*
X154916400Y-141634600D02*
X154916400Y-115954600D01*
X165356400Y-141634600D02*
X154916400Y-141634600D01*
X154626400Y-115664600D02*
X154626400Y-117364600D01*
X156326400Y-115664600D02*
X154626400Y-115664600D01*
%TO.C,BAR2*%
X156086400Y-84894600D02*
X154386400Y-84894600D01*
X154386400Y-84894600D02*
X154386400Y-86594600D01*
X165116400Y-110864600D02*
X154676400Y-110864600D01*
X154676400Y-110864600D02*
X154676400Y-85184600D01*
X154676400Y-85184600D02*
X165116400Y-85184600D01*
X165116400Y-85184600D02*
X165116400Y-110864600D01*
%TO.C,BAR1*%
X164926400Y-54214600D02*
X164926400Y-79894600D01*
X154486400Y-54214600D02*
X164926400Y-54214600D01*
X154486400Y-79894600D02*
X154486400Y-54214600D01*
X164926400Y-79894600D02*
X154486400Y-79894600D01*
X154196400Y-53924600D02*
X154196400Y-55624600D01*
X155896400Y-53924600D02*
X154196400Y-53924600D01*
%TO.C,SW1*%
X107496400Y-160159600D02*
X111996400Y-160159600D01*
X106246400Y-156159600D02*
X106246400Y-157659600D01*
X111996400Y-153659600D02*
X107496400Y-153659600D01*
X113246400Y-157659600D02*
X113246400Y-156159600D01*
%TO.C,J2*%
X153696400Y-45339600D02*
X153696400Y-46669600D01*
X152366400Y-45339600D02*
X153696400Y-45339600D01*
X151096400Y-45339600D02*
X151096400Y-47999600D01*
X151096400Y-47999600D02*
X115476400Y-47999600D01*
X151096400Y-45339600D02*
X115476400Y-45339600D01*
X115476400Y-45339600D02*
X115476400Y-47999600D01*
%TO.C,J1*%
X99561400Y-75799600D02*
X96901400Y-75799600D01*
X99561400Y-78399600D02*
X99561400Y-75799600D01*
X96901400Y-78399600D02*
X96901400Y-75799600D01*
X99561400Y-78399600D02*
X96901400Y-78399600D01*
X99561400Y-79669600D02*
X99561400Y-80999600D01*
X99561400Y-80999600D02*
X98231400Y-80999600D01*
%TO.C,EEPROM4*%
X115666400Y-141394600D02*
X115666400Y-146854600D01*
X115666400Y-146854600D02*
X151346400Y-146854600D01*
X151346400Y-146854600D02*
X151346400Y-133934600D01*
X151346400Y-133934600D02*
X115666400Y-133934600D01*
X115666400Y-133934600D02*
X115666400Y-139394600D01*
X115666400Y-139394600D02*
G75*
G02*
X115666400Y-141394600I0J-1000000D01*
G01*
%TO.C,EEPROM3*%
X115570400Y-120394600D02*
X115570400Y-125854600D01*
X115570400Y-125854600D02*
X151250400Y-125854600D01*
X151250400Y-125854600D02*
X151250400Y-112934600D01*
X151250400Y-112934600D02*
X115570400Y-112934600D01*
X115570400Y-112934600D02*
X115570400Y-118394600D01*
X115570400Y-118394600D02*
G75*
G02*
X115570400Y-120394600I0J-1000000D01*
G01*
%TO.C,EEPROM2*%
X115580400Y-91558600D02*
X115580400Y-97018600D01*
X115580400Y-97018600D02*
X151260400Y-97018600D01*
X151260400Y-97018600D02*
X151260400Y-84098600D01*
X151260400Y-84098600D02*
X115580400Y-84098600D01*
X115580400Y-84098600D02*
X115580400Y-89558600D01*
X115580400Y-89558600D02*
G75*
G02*
X115580400Y-91558600I0J-1000000D01*
G01*
%TO.C,EEPROM1*%
X115586400Y-56394600D02*
X115586400Y-61854600D01*
X151266400Y-56394600D02*
X115586400Y-56394600D01*
X151266400Y-69314600D02*
X151266400Y-56394600D01*
X115586400Y-69314600D02*
X151266400Y-69314600D01*
X115586400Y-63854600D02*
X115586400Y-69314600D01*
X115586400Y-61854600D02*
G75*
G02*
X115586400Y-63854600I0J-1000000D01*
G01*
%TO.C,C5*%
X113186400Y-119434600D02*
G75*
G03*
X113186400Y-119434600I-2620000J0D01*
G01*
%TO.C,C4*%
X113191400Y-140464600D02*
G75*
G03*
X113191400Y-140464600I-2620000J0D01*
G01*
%TO.C,C3*%
X113111400Y-62924600D02*
G75*
G03*
X113111400Y-62924600I-2620000J0D01*
G01*
%TO.C,C2*%
X113126400Y-90509600D02*
G75*
G03*
X113126400Y-90509600I-2620000J0D01*
G01*
%TO.C,C1*%
X106026400Y-78544600D02*
G75*
G03*
X106026400Y-78544600I-2620000J0D01*
G01*
%TD*%
M02*
