%TF.GenerationSoftware,KiCad,Pcbnew,(5.1.10-1-10_14)*%
%TF.CreationDate,2021-11-22T02:45:21-05:00*%
%TF.ProjectId,control-unit,636f6e74-726f-46c2-9d75-6e69742e6b69,rev?*%
%TF.SameCoordinates,Original*%
%TF.FileFunction,Copper,L1,Top*%
%TF.FilePolarity,Positive*%
%FSLAX46Y46*%
G04 Gerber Fmt 4.6, Leading zero omitted, Abs format (unit mm)*
G04 Created by KiCad (PCBNEW (5.1.10-1-10_14)) date 2021-11-22 02:45:21*
%MOMM*%
%LPD*%
G01*
G04 APERTURE LIST*
%TA.AperFunction,ComponentPad*%
%ADD10R,1.700000X1.700000*%
%TD*%
%TA.AperFunction,ComponentPad*%
%ADD11O,1.700000X1.700000*%
%TD*%
%TA.AperFunction,ViaPad*%
%ADD12C,0.800000*%
%TD*%
%TA.AperFunction,Conductor*%
%ADD13C,0.200000*%
%TD*%
G04 APERTURE END LIST*
%TO.P,R5,2*%
%TO.N,GND*%
%TA.AperFunction,SMDPad,CuDef*%
G36*
G01*
X151949999Y-114192000D02*
X152850001Y-114192000D01*
G75*
G02*
X153100000Y-114441999I0J-249999D01*
G01*
X153100000Y-114967001D01*
G75*
G02*
X152850001Y-115217000I-249999J0D01*
G01*
X151949999Y-115217000D01*
G75*
G02*
X151700000Y-114967001I0J249999D01*
G01*
X151700000Y-114441999D01*
G75*
G02*
X151949999Y-114192000I249999J0D01*
G01*
G37*
%TD.AperFunction*%
%TO.P,R5,1*%
%TO.N,Net-(D5-Pad1)*%
%TA.AperFunction,SMDPad,CuDef*%
G36*
G01*
X151949999Y-112367000D02*
X152850001Y-112367000D01*
G75*
G02*
X153100000Y-112616999I0J-249999D01*
G01*
X153100000Y-113142001D01*
G75*
G02*
X152850001Y-113392000I-249999J0D01*
G01*
X151949999Y-113392000D01*
G75*
G02*
X151700000Y-113142001I0J249999D01*
G01*
X151700000Y-112616999D01*
G75*
G02*
X151949999Y-112367000I249999J0D01*
G01*
G37*
%TD.AperFunction*%
%TD*%
%TO.P,R4,2*%
%TO.N,GND*%
%TA.AperFunction,SMDPad,CuDef*%
G36*
G01*
X154235999Y-114192000D02*
X155136001Y-114192000D01*
G75*
G02*
X155386000Y-114441999I0J-249999D01*
G01*
X155386000Y-114967001D01*
G75*
G02*
X155136001Y-115217000I-249999J0D01*
G01*
X154235999Y-115217000D01*
G75*
G02*
X153986000Y-114967001I0J249999D01*
G01*
X153986000Y-114441999D01*
G75*
G02*
X154235999Y-114192000I249999J0D01*
G01*
G37*
%TD.AperFunction*%
%TO.P,R4,1*%
%TO.N,Net-(D4-Pad1)*%
%TA.AperFunction,SMDPad,CuDef*%
G36*
G01*
X154235999Y-112367000D02*
X155136001Y-112367000D01*
G75*
G02*
X155386000Y-112616999I0J-249999D01*
G01*
X155386000Y-113142001D01*
G75*
G02*
X155136001Y-113392000I-249999J0D01*
G01*
X154235999Y-113392000D01*
G75*
G02*
X153986000Y-113142001I0J249999D01*
G01*
X153986000Y-112616999D01*
G75*
G02*
X154235999Y-112367000I249999J0D01*
G01*
G37*
%TD.AperFunction*%
%TD*%
%TO.P,R3,2*%
%TO.N,GND*%
%TA.AperFunction,SMDPad,CuDef*%
G36*
G01*
X156521999Y-114192000D02*
X157422001Y-114192000D01*
G75*
G02*
X157672000Y-114441999I0J-249999D01*
G01*
X157672000Y-114967001D01*
G75*
G02*
X157422001Y-115217000I-249999J0D01*
G01*
X156521999Y-115217000D01*
G75*
G02*
X156272000Y-114967001I0J249999D01*
G01*
X156272000Y-114441999D01*
G75*
G02*
X156521999Y-114192000I249999J0D01*
G01*
G37*
%TD.AperFunction*%
%TO.P,R3,1*%
%TO.N,Net-(D3-Pad1)*%
%TA.AperFunction,SMDPad,CuDef*%
G36*
G01*
X156521999Y-112367000D02*
X157422001Y-112367000D01*
G75*
G02*
X157672000Y-112616999I0J-249999D01*
G01*
X157672000Y-113142001D01*
G75*
G02*
X157422001Y-113392000I-249999J0D01*
G01*
X156521999Y-113392000D01*
G75*
G02*
X156272000Y-113142001I0J249999D01*
G01*
X156272000Y-112616999D01*
G75*
G02*
X156521999Y-112367000I249999J0D01*
G01*
G37*
%TD.AperFunction*%
%TD*%
%TO.P,R2,2*%
%TO.N,GND*%
%TA.AperFunction,SMDPad,CuDef*%
G36*
G01*
X158807999Y-114192000D02*
X159708001Y-114192000D01*
G75*
G02*
X159958000Y-114441999I0J-249999D01*
G01*
X159958000Y-114967001D01*
G75*
G02*
X159708001Y-115217000I-249999J0D01*
G01*
X158807999Y-115217000D01*
G75*
G02*
X158558000Y-114967001I0J249999D01*
G01*
X158558000Y-114441999D01*
G75*
G02*
X158807999Y-114192000I249999J0D01*
G01*
G37*
%TD.AperFunction*%
%TO.P,R2,1*%
%TO.N,Net-(D2-Pad1)*%
%TA.AperFunction,SMDPad,CuDef*%
G36*
G01*
X158807999Y-112367000D02*
X159708001Y-112367000D01*
G75*
G02*
X159958000Y-112616999I0J-249999D01*
G01*
X159958000Y-113142001D01*
G75*
G02*
X159708001Y-113392000I-249999J0D01*
G01*
X158807999Y-113392000D01*
G75*
G02*
X158558000Y-113142001I0J249999D01*
G01*
X158558000Y-112616999D01*
G75*
G02*
X158807999Y-112367000I249999J0D01*
G01*
G37*
%TD.AperFunction*%
%TD*%
%TO.P,D5,2*%
%TO.N,OVERFLOW_FLAG*%
%TA.AperFunction,SMDPad,CuDef*%
G36*
G01*
X152856250Y-109532000D02*
X151943750Y-109532000D01*
G75*
G02*
X151700000Y-109288250I0J243750D01*
G01*
X151700000Y-108800750D01*
G75*
G02*
X151943750Y-108557000I243750J0D01*
G01*
X152856250Y-108557000D01*
G75*
G02*
X153100000Y-108800750I0J-243750D01*
G01*
X153100000Y-109288250D01*
G75*
G02*
X152856250Y-109532000I-243750J0D01*
G01*
G37*
%TD.AperFunction*%
%TO.P,D5,1*%
%TO.N,Net-(D5-Pad1)*%
%TA.AperFunction,SMDPad,CuDef*%
G36*
G01*
X152856250Y-111407000D02*
X151943750Y-111407000D01*
G75*
G02*
X151700000Y-111163250I0J243750D01*
G01*
X151700000Y-110675750D01*
G75*
G02*
X151943750Y-110432000I243750J0D01*
G01*
X152856250Y-110432000D01*
G75*
G02*
X153100000Y-110675750I0J-243750D01*
G01*
X153100000Y-111163250D01*
G75*
G02*
X152856250Y-111407000I-243750J0D01*
G01*
G37*
%TD.AperFunction*%
%TD*%
%TO.P,D4,2*%
%TO.N,ZERO_FLAG*%
%TA.AperFunction,SMDPad,CuDef*%
G36*
G01*
X155142250Y-109532000D02*
X154229750Y-109532000D01*
G75*
G02*
X153986000Y-109288250I0J243750D01*
G01*
X153986000Y-108800750D01*
G75*
G02*
X154229750Y-108557000I243750J0D01*
G01*
X155142250Y-108557000D01*
G75*
G02*
X155386000Y-108800750I0J-243750D01*
G01*
X155386000Y-109288250D01*
G75*
G02*
X155142250Y-109532000I-243750J0D01*
G01*
G37*
%TD.AperFunction*%
%TO.P,D4,1*%
%TO.N,Net-(D4-Pad1)*%
%TA.AperFunction,SMDPad,CuDef*%
G36*
G01*
X155142250Y-111407000D02*
X154229750Y-111407000D01*
G75*
G02*
X153986000Y-111163250I0J243750D01*
G01*
X153986000Y-110675750D01*
G75*
G02*
X154229750Y-110432000I243750J0D01*
G01*
X155142250Y-110432000D01*
G75*
G02*
X155386000Y-110675750I0J-243750D01*
G01*
X155386000Y-111163250D01*
G75*
G02*
X155142250Y-111407000I-243750J0D01*
G01*
G37*
%TD.AperFunction*%
%TD*%
%TO.P,D3,2*%
%TO.N,SIGN_FLAG*%
%TA.AperFunction,SMDPad,CuDef*%
G36*
G01*
X157428250Y-109532000D02*
X156515750Y-109532000D01*
G75*
G02*
X156272000Y-109288250I0J243750D01*
G01*
X156272000Y-108800750D01*
G75*
G02*
X156515750Y-108557000I243750J0D01*
G01*
X157428250Y-108557000D01*
G75*
G02*
X157672000Y-108800750I0J-243750D01*
G01*
X157672000Y-109288250D01*
G75*
G02*
X157428250Y-109532000I-243750J0D01*
G01*
G37*
%TD.AperFunction*%
%TO.P,D3,1*%
%TO.N,Net-(D3-Pad1)*%
%TA.AperFunction,SMDPad,CuDef*%
G36*
G01*
X157428250Y-111407000D02*
X156515750Y-111407000D01*
G75*
G02*
X156272000Y-111163250I0J243750D01*
G01*
X156272000Y-110675750D01*
G75*
G02*
X156515750Y-110432000I243750J0D01*
G01*
X157428250Y-110432000D01*
G75*
G02*
X157672000Y-110675750I0J-243750D01*
G01*
X157672000Y-111163250D01*
G75*
G02*
X157428250Y-111407000I-243750J0D01*
G01*
G37*
%TD.AperFunction*%
%TD*%
%TO.P,D2,2*%
%TO.N,CARRY_FLAG*%
%TA.AperFunction,SMDPad,CuDef*%
G36*
G01*
X159714250Y-109532000D02*
X158801750Y-109532000D01*
G75*
G02*
X158558000Y-109288250I0J243750D01*
G01*
X158558000Y-108800750D01*
G75*
G02*
X158801750Y-108557000I243750J0D01*
G01*
X159714250Y-108557000D01*
G75*
G02*
X159958000Y-108800750I0J-243750D01*
G01*
X159958000Y-109288250D01*
G75*
G02*
X159714250Y-109532000I-243750J0D01*
G01*
G37*
%TD.AperFunction*%
%TO.P,D2,1*%
%TO.N,Net-(D2-Pad1)*%
%TA.AperFunction,SMDPad,CuDef*%
G36*
G01*
X159714250Y-111407000D02*
X158801750Y-111407000D01*
G75*
G02*
X158558000Y-111163250I0J243750D01*
G01*
X158558000Y-110675750D01*
G75*
G02*
X158801750Y-110432000I243750J0D01*
G01*
X159714250Y-110432000D01*
G75*
G02*
X159958000Y-110675750I0J-243750D01*
G01*
X159958000Y-111163250D01*
G75*
G02*
X159714250Y-111407000I-243750J0D01*
G01*
G37*
%TD.AperFunction*%
%TD*%
%TO.P,U11,14*%
%TO.N,VCC*%
%TA.AperFunction,SMDPad,CuDef*%
G36*
G01*
X181792000Y-101507000D02*
X181592000Y-101507000D01*
G75*
G02*
X181492000Y-101407000I0J100000D01*
G01*
X181492000Y-100132000D01*
G75*
G02*
X181592000Y-100032000I100000J0D01*
G01*
X181792000Y-100032000D01*
G75*
G02*
X181892000Y-100132000I0J-100000D01*
G01*
X181892000Y-101407000D01*
G75*
G02*
X181792000Y-101507000I-100000J0D01*
G01*
G37*
%TD.AperFunction*%
%TO.P,U11,13*%
%TO.N,Net-(U11-Pad13)*%
%TA.AperFunction,SMDPad,CuDef*%
G36*
G01*
X182442000Y-101507000D02*
X182242000Y-101507000D01*
G75*
G02*
X182142000Y-101407000I0J100000D01*
G01*
X182142000Y-100132000D01*
G75*
G02*
X182242000Y-100032000I100000J0D01*
G01*
X182442000Y-100032000D01*
G75*
G02*
X182542000Y-100132000I0J-100000D01*
G01*
X182542000Y-101407000D01*
G75*
G02*
X182442000Y-101507000I-100000J0D01*
G01*
G37*
%TD.AperFunction*%
%TO.P,U11,12*%
%TO.N,Net-(U11-Pad12)*%
%TA.AperFunction,SMDPad,CuDef*%
G36*
G01*
X183092000Y-101507000D02*
X182892000Y-101507000D01*
G75*
G02*
X182792000Y-101407000I0J100000D01*
G01*
X182792000Y-100132000D01*
G75*
G02*
X182892000Y-100032000I100000J0D01*
G01*
X183092000Y-100032000D01*
G75*
G02*
X183192000Y-100132000I0J-100000D01*
G01*
X183192000Y-101407000D01*
G75*
G02*
X183092000Y-101507000I-100000J0D01*
G01*
G37*
%TD.AperFunction*%
%TO.P,U11,11*%
%TO.N,Net-(U11-Pad11)*%
%TA.AperFunction,SMDPad,CuDef*%
G36*
G01*
X183742000Y-101507000D02*
X183542000Y-101507000D01*
G75*
G02*
X183442000Y-101407000I0J100000D01*
G01*
X183442000Y-100132000D01*
G75*
G02*
X183542000Y-100032000I100000J0D01*
G01*
X183742000Y-100032000D01*
G75*
G02*
X183842000Y-100132000I0J-100000D01*
G01*
X183842000Y-101407000D01*
G75*
G02*
X183742000Y-101507000I-100000J0D01*
G01*
G37*
%TD.AperFunction*%
%TO.P,U11,10*%
%TO.N,Net-(U11-Pad10)*%
%TA.AperFunction,SMDPad,CuDef*%
G36*
G01*
X184392000Y-101507000D02*
X184192000Y-101507000D01*
G75*
G02*
X184092000Y-101407000I0J100000D01*
G01*
X184092000Y-100132000D01*
G75*
G02*
X184192000Y-100032000I100000J0D01*
G01*
X184392000Y-100032000D01*
G75*
G02*
X184492000Y-100132000I0J-100000D01*
G01*
X184492000Y-101407000D01*
G75*
G02*
X184392000Y-101507000I-100000J0D01*
G01*
G37*
%TD.AperFunction*%
%TO.P,U11,9*%
%TO.N,Net-(U11-Pad9)*%
%TA.AperFunction,SMDPad,CuDef*%
G36*
G01*
X185042000Y-101507000D02*
X184842000Y-101507000D01*
G75*
G02*
X184742000Y-101407000I0J100000D01*
G01*
X184742000Y-100132000D01*
G75*
G02*
X184842000Y-100032000I100000J0D01*
G01*
X185042000Y-100032000D01*
G75*
G02*
X185142000Y-100132000I0J-100000D01*
G01*
X185142000Y-101407000D01*
G75*
G02*
X185042000Y-101507000I-100000J0D01*
G01*
G37*
%TD.AperFunction*%
%TO.P,U11,8*%
%TO.N,Net-(U11-Pad8)*%
%TA.AperFunction,SMDPad,CuDef*%
G36*
G01*
X185692000Y-101507000D02*
X185492000Y-101507000D01*
G75*
G02*
X185392000Y-101407000I0J100000D01*
G01*
X185392000Y-100132000D01*
G75*
G02*
X185492000Y-100032000I100000J0D01*
G01*
X185692000Y-100032000D01*
G75*
G02*
X185792000Y-100132000I0J-100000D01*
G01*
X185792000Y-101407000D01*
G75*
G02*
X185692000Y-101507000I-100000J0D01*
G01*
G37*
%TD.AperFunction*%
%TO.P,U11,7*%
%TO.N,GND*%
%TA.AperFunction,SMDPad,CuDef*%
G36*
G01*
X185692000Y-107232000D02*
X185492000Y-107232000D01*
G75*
G02*
X185392000Y-107132000I0J100000D01*
G01*
X185392000Y-105857000D01*
G75*
G02*
X185492000Y-105757000I100000J0D01*
G01*
X185692000Y-105757000D01*
G75*
G02*
X185792000Y-105857000I0J-100000D01*
G01*
X185792000Y-107132000D01*
G75*
G02*
X185692000Y-107232000I-100000J0D01*
G01*
G37*
%TD.AperFunction*%
%TO.P,U11,6*%
%TO.N,OR_JG_JNLE*%
%TA.AperFunction,SMDPad,CuDef*%
G36*
G01*
X185042000Y-107232000D02*
X184842000Y-107232000D01*
G75*
G02*
X184742000Y-107132000I0J100000D01*
G01*
X184742000Y-105857000D01*
G75*
G02*
X184842000Y-105757000I100000J0D01*
G01*
X185042000Y-105757000D01*
G75*
G02*
X185142000Y-105857000I0J-100000D01*
G01*
X185142000Y-107132000D01*
G75*
G02*
X185042000Y-107232000I-100000J0D01*
G01*
G37*
%TD.AperFunction*%
%TO.P,U11,5*%
%TO.N,Net-(U11-Pad3)*%
%TA.AperFunction,SMDPad,CuDef*%
G36*
G01*
X184392000Y-107232000D02*
X184192000Y-107232000D01*
G75*
G02*
X184092000Y-107132000I0J100000D01*
G01*
X184092000Y-105857000D01*
G75*
G02*
X184192000Y-105757000I100000J0D01*
G01*
X184392000Y-105757000D01*
G75*
G02*
X184492000Y-105857000I0J-100000D01*
G01*
X184492000Y-107132000D01*
G75*
G02*
X184392000Y-107232000I-100000J0D01*
G01*
G37*
%TD.AperFunction*%
%TO.P,U11,4*%
%TO.N,Net-(U11-Pad4)*%
%TA.AperFunction,SMDPad,CuDef*%
G36*
G01*
X183742000Y-107232000D02*
X183542000Y-107232000D01*
G75*
G02*
X183442000Y-107132000I0J100000D01*
G01*
X183442000Y-105857000D01*
G75*
G02*
X183542000Y-105757000I100000J0D01*
G01*
X183742000Y-105757000D01*
G75*
G02*
X183842000Y-105857000I0J-100000D01*
G01*
X183842000Y-107132000D01*
G75*
G02*
X183742000Y-107232000I-100000J0D01*
G01*
G37*
%TD.AperFunction*%
%TO.P,U11,3*%
%TO.N,Net-(U11-Pad3)*%
%TA.AperFunction,SMDPad,CuDef*%
G36*
G01*
X183092000Y-107232000D02*
X182892000Y-107232000D01*
G75*
G02*
X182792000Y-107132000I0J100000D01*
G01*
X182792000Y-105857000D01*
G75*
G02*
X182892000Y-105757000I100000J0D01*
G01*
X183092000Y-105757000D01*
G75*
G02*
X183192000Y-105857000I0J-100000D01*
G01*
X183192000Y-107132000D01*
G75*
G02*
X183092000Y-107232000I-100000J0D01*
G01*
G37*
%TD.AperFunction*%
%TO.P,U11,2*%
%TO.N,Net-(U10-Pad11)*%
%TA.AperFunction,SMDPad,CuDef*%
G36*
G01*
X182442000Y-107232000D02*
X182242000Y-107232000D01*
G75*
G02*
X182142000Y-107132000I0J100000D01*
G01*
X182142000Y-105857000D01*
G75*
G02*
X182242000Y-105757000I100000J0D01*
G01*
X182442000Y-105757000D01*
G75*
G02*
X182542000Y-105857000I0J-100000D01*
G01*
X182542000Y-107132000D01*
G75*
G02*
X182442000Y-107232000I-100000J0D01*
G01*
G37*
%TD.AperFunction*%
%TO.P,U11,1*%
%TO.N,Net-(U11-Pad1)*%
%TA.AperFunction,SMDPad,CuDef*%
G36*
G01*
X181792000Y-107232000D02*
X181592000Y-107232000D01*
G75*
G02*
X181492000Y-107132000I0J100000D01*
G01*
X181492000Y-105857000D01*
G75*
G02*
X181592000Y-105757000I100000J0D01*
G01*
X181792000Y-105757000D01*
G75*
G02*
X181892000Y-105857000I0J-100000D01*
G01*
X181892000Y-107132000D01*
G75*
G02*
X181792000Y-107232000I-100000J0D01*
G01*
G37*
%TD.AperFunction*%
%TD*%
D10*
%TO.P,J4,1*%
%TO.N,VCC*%
X177800000Y-111506000D03*
D11*
%TO.P,J4,2*%
X180340000Y-111506000D03*
%TD*%
%TO.P,R1,2*%
%TO.N,GND*%
%TA.AperFunction,SMDPad,CuDef*%
G36*
G01*
X181413999Y-76346000D02*
X182314001Y-76346000D01*
G75*
G02*
X182564000Y-76595999I0J-249999D01*
G01*
X182564000Y-77121001D01*
G75*
G02*
X182314001Y-77371000I-249999J0D01*
G01*
X181413999Y-77371000D01*
G75*
G02*
X181164000Y-77121001I0J249999D01*
G01*
X181164000Y-76595999D01*
G75*
G02*
X181413999Y-76346000I249999J0D01*
G01*
G37*
%TD.AperFunction*%
%TO.P,R1,1*%
%TO.N,Net-(D1-Pad1)*%
%TA.AperFunction,SMDPad,CuDef*%
G36*
G01*
X181413999Y-74521000D02*
X182314001Y-74521000D01*
G75*
G02*
X182564000Y-74770999I0J-249999D01*
G01*
X182564000Y-75296001D01*
G75*
G02*
X182314001Y-75546000I-249999J0D01*
G01*
X181413999Y-75546000D01*
G75*
G02*
X181164000Y-75296001I0J249999D01*
G01*
X181164000Y-74770999D01*
G75*
G02*
X181413999Y-74521000I249999J0D01*
G01*
G37*
%TD.AperFunction*%
%TD*%
%TO.P,D1,2*%
%TO.N,~LOAD_PROGRAM_COUNTER_COND*%
%TA.AperFunction,SMDPad,CuDef*%
G36*
G01*
X179780250Y-75496000D02*
X178867750Y-75496000D01*
G75*
G02*
X178624000Y-75252250I0J243750D01*
G01*
X178624000Y-74764750D01*
G75*
G02*
X178867750Y-74521000I243750J0D01*
G01*
X179780250Y-74521000D01*
G75*
G02*
X180024000Y-74764750I0J-243750D01*
G01*
X180024000Y-75252250D01*
G75*
G02*
X179780250Y-75496000I-243750J0D01*
G01*
G37*
%TD.AperFunction*%
%TO.P,D1,1*%
%TO.N,Net-(D1-Pad1)*%
%TA.AperFunction,SMDPad,CuDef*%
G36*
G01*
X179780250Y-77371000D02*
X178867750Y-77371000D01*
G75*
G02*
X178624000Y-77127250I0J243750D01*
G01*
X178624000Y-76639750D01*
G75*
G02*
X178867750Y-76396000I243750J0D01*
G01*
X179780250Y-76396000D01*
G75*
G02*
X180024000Y-76639750I0J-243750D01*
G01*
X180024000Y-77127250D01*
G75*
G02*
X179780250Y-77371000I-243750J0D01*
G01*
G37*
%TD.AperFunction*%
%TD*%
%TO.P,J3,2*%
%TO.N,GND*%
X99060000Y-111506000D03*
D10*
%TO.P,J3,1*%
X101600000Y-111506000D03*
%TD*%
%TO.P,U14,14*%
%TO.N,VCC*%
%TA.AperFunction,SMDPad,CuDef*%
G36*
G01*
X144422000Y-99592000D02*
X144122000Y-99592000D01*
G75*
G02*
X143972000Y-99442000I0J150000D01*
G01*
X143972000Y-97792000D01*
G75*
G02*
X144122000Y-97642000I150000J0D01*
G01*
X144422000Y-97642000D01*
G75*
G02*
X144572000Y-97792000I0J-150000D01*
G01*
X144572000Y-99442000D01*
G75*
G02*
X144422000Y-99592000I-150000J0D01*
G01*
G37*
%TD.AperFunction*%
%TO.P,U14,13*%
%TO.N,Net-(U12-Pad2)*%
%TA.AperFunction,SMDPad,CuDef*%
G36*
G01*
X145692000Y-99592000D02*
X145392000Y-99592000D01*
G75*
G02*
X145242000Y-99442000I0J150000D01*
G01*
X145242000Y-97792000D01*
G75*
G02*
X145392000Y-97642000I150000J0D01*
G01*
X145692000Y-97642000D01*
G75*
G02*
X145842000Y-97792000I0J-150000D01*
G01*
X145842000Y-99442000D01*
G75*
G02*
X145692000Y-99592000I-150000J0D01*
G01*
G37*
%TD.AperFunction*%
%TO.P,U14,12*%
%TO.N,Net-(U14-Pad1)*%
%TA.AperFunction,SMDPad,CuDef*%
G36*
G01*
X146962000Y-99592000D02*
X146662000Y-99592000D01*
G75*
G02*
X146512000Y-99442000I0J150000D01*
G01*
X146512000Y-97792000D01*
G75*
G02*
X146662000Y-97642000I150000J0D01*
G01*
X146962000Y-97642000D01*
G75*
G02*
X147112000Y-97792000I0J-150000D01*
G01*
X147112000Y-99442000D01*
G75*
G02*
X146962000Y-99592000I-150000J0D01*
G01*
G37*
%TD.AperFunction*%
%TO.P,U14,11*%
%TO.N,OR_JUMP*%
%TA.AperFunction,SMDPad,CuDef*%
G36*
G01*
X148232000Y-99592000D02*
X147932000Y-99592000D01*
G75*
G02*
X147782000Y-99442000I0J150000D01*
G01*
X147782000Y-97792000D01*
G75*
G02*
X147932000Y-97642000I150000J0D01*
G01*
X148232000Y-97642000D01*
G75*
G02*
X148382000Y-97792000I0J-150000D01*
G01*
X148382000Y-99442000D01*
G75*
G02*
X148232000Y-99592000I-150000J0D01*
G01*
G37*
%TD.AperFunction*%
%TO.P,U14,10*%
%TO.N,OR_JLE_JNG*%
%TA.AperFunction,SMDPad,CuDef*%
G36*
G01*
X149502000Y-99592000D02*
X149202000Y-99592000D01*
G75*
G02*
X149052000Y-99442000I0J150000D01*
G01*
X149052000Y-97792000D01*
G75*
G02*
X149202000Y-97642000I150000J0D01*
G01*
X149502000Y-97642000D01*
G75*
G02*
X149652000Y-97792000I0J-150000D01*
G01*
X149652000Y-99442000D01*
G75*
G02*
X149502000Y-99592000I-150000J0D01*
G01*
G37*
%TD.AperFunction*%
%TO.P,U14,9*%
%TO.N,OR_JG_JNLE*%
%TA.AperFunction,SMDPad,CuDef*%
G36*
G01*
X150772000Y-99592000D02*
X150472000Y-99592000D01*
G75*
G02*
X150322000Y-99442000I0J150000D01*
G01*
X150322000Y-97792000D01*
G75*
G02*
X150472000Y-97642000I150000J0D01*
G01*
X150772000Y-97642000D01*
G75*
G02*
X150922000Y-97792000I0J-150000D01*
G01*
X150922000Y-99442000D01*
G75*
G02*
X150772000Y-99592000I-150000J0D01*
G01*
G37*
%TD.AperFunction*%
%TO.P,U14,8*%
%TO.N,N/C*%
%TA.AperFunction,SMDPad,CuDef*%
G36*
G01*
X152042000Y-99592000D02*
X151742000Y-99592000D01*
G75*
G02*
X151592000Y-99442000I0J150000D01*
G01*
X151592000Y-97792000D01*
G75*
G02*
X151742000Y-97642000I150000J0D01*
G01*
X152042000Y-97642000D01*
G75*
G02*
X152192000Y-97792000I0J-150000D01*
G01*
X152192000Y-99442000D01*
G75*
G02*
X152042000Y-99592000I-150000J0D01*
G01*
G37*
%TD.AperFunction*%
%TO.P,U14,7*%
%TO.N,GND*%
%TA.AperFunction,SMDPad,CuDef*%
G36*
G01*
X152042000Y-104542000D02*
X151742000Y-104542000D01*
G75*
G02*
X151592000Y-104392000I0J150000D01*
G01*
X151592000Y-102742000D01*
G75*
G02*
X151742000Y-102592000I150000J0D01*
G01*
X152042000Y-102592000D01*
G75*
G02*
X152192000Y-102742000I0J-150000D01*
G01*
X152192000Y-104392000D01*
G75*
G02*
X152042000Y-104542000I-150000J0D01*
G01*
G37*
%TD.AperFunction*%
%TO.P,U14,6*%
%TO.N,N/C*%
%TA.AperFunction,SMDPad,CuDef*%
G36*
G01*
X150772000Y-104542000D02*
X150472000Y-104542000D01*
G75*
G02*
X150322000Y-104392000I0J150000D01*
G01*
X150322000Y-102742000D01*
G75*
G02*
X150472000Y-102592000I150000J0D01*
G01*
X150772000Y-102592000D01*
G75*
G02*
X150922000Y-102742000I0J-150000D01*
G01*
X150922000Y-104392000D01*
G75*
G02*
X150772000Y-104542000I-150000J0D01*
G01*
G37*
%TD.AperFunction*%
%TO.P,U14,5*%
%TO.N,OR_JGE_JNL*%
%TA.AperFunction,SMDPad,CuDef*%
G36*
G01*
X149502000Y-104542000D02*
X149202000Y-104542000D01*
G75*
G02*
X149052000Y-104392000I0J150000D01*
G01*
X149052000Y-102742000D01*
G75*
G02*
X149202000Y-102592000I150000J0D01*
G01*
X149502000Y-102592000D01*
G75*
G02*
X149652000Y-102742000I0J-150000D01*
G01*
X149652000Y-104392000D01*
G75*
G02*
X149502000Y-104542000I-150000J0D01*
G01*
G37*
%TD.AperFunction*%
%TO.P,U14,4*%
%TO.N,OR_JL_JNGE*%
%TA.AperFunction,SMDPad,CuDef*%
G36*
G01*
X148232000Y-104542000D02*
X147932000Y-104542000D01*
G75*
G02*
X147782000Y-104392000I0J150000D01*
G01*
X147782000Y-102742000D01*
G75*
G02*
X147932000Y-102592000I150000J0D01*
G01*
X148232000Y-102592000D01*
G75*
G02*
X148382000Y-102742000I0J-150000D01*
G01*
X148382000Y-104392000D01*
G75*
G02*
X148232000Y-104542000I-150000J0D01*
G01*
G37*
%TD.AperFunction*%
%TO.P,U14,3*%
%TO.N,OR_JA_JNBE*%
%TA.AperFunction,SMDPad,CuDef*%
G36*
G01*
X146962000Y-104542000D02*
X146662000Y-104542000D01*
G75*
G02*
X146512000Y-104392000I0J150000D01*
G01*
X146512000Y-102742000D01*
G75*
G02*
X146662000Y-102592000I150000J0D01*
G01*
X146962000Y-102592000D01*
G75*
G02*
X147112000Y-102742000I0J-150000D01*
G01*
X147112000Y-104392000D01*
G75*
G02*
X146962000Y-104542000I-150000J0D01*
G01*
G37*
%TD.AperFunction*%
%TO.P,U14,2*%
%TO.N,OR_JBE_JNA*%
%TA.AperFunction,SMDPad,CuDef*%
G36*
G01*
X145692000Y-104542000D02*
X145392000Y-104542000D01*
G75*
G02*
X145242000Y-104392000I0J150000D01*
G01*
X145242000Y-102742000D01*
G75*
G02*
X145392000Y-102592000I150000J0D01*
G01*
X145692000Y-102592000D01*
G75*
G02*
X145842000Y-102742000I0J-150000D01*
G01*
X145842000Y-104392000D01*
G75*
G02*
X145692000Y-104542000I-150000J0D01*
G01*
G37*
%TD.AperFunction*%
%TO.P,U14,1*%
%TO.N,Net-(U14-Pad1)*%
%TA.AperFunction,SMDPad,CuDef*%
G36*
G01*
X144422000Y-104542000D02*
X144122000Y-104542000D01*
G75*
G02*
X143972000Y-104392000I0J150000D01*
G01*
X143972000Y-102742000D01*
G75*
G02*
X144122000Y-102592000I150000J0D01*
G01*
X144422000Y-102592000D01*
G75*
G02*
X144572000Y-102742000I0J-150000D01*
G01*
X144572000Y-104392000D01*
G75*
G02*
X144422000Y-104542000I-150000J0D01*
G01*
G37*
%TD.AperFunction*%
%TD*%
%TO.P,U13,14*%
%TO.N,VCC*%
%TA.AperFunction,SMDPad,CuDef*%
G36*
G01*
X128928000Y-99592000D02*
X128628000Y-99592000D01*
G75*
G02*
X128478000Y-99442000I0J150000D01*
G01*
X128478000Y-97792000D01*
G75*
G02*
X128628000Y-97642000I150000J0D01*
G01*
X128928000Y-97642000D01*
G75*
G02*
X129078000Y-97792000I0J-150000D01*
G01*
X129078000Y-99442000D01*
G75*
G02*
X128928000Y-99592000I-150000J0D01*
G01*
G37*
%TD.AperFunction*%
%TO.P,U13,13*%
%TO.N,Net-(U12-Pad5)*%
%TA.AperFunction,SMDPad,CuDef*%
G36*
G01*
X130198000Y-99592000D02*
X129898000Y-99592000D01*
G75*
G02*
X129748000Y-99442000I0J150000D01*
G01*
X129748000Y-97792000D01*
G75*
G02*
X129898000Y-97642000I150000J0D01*
G01*
X130198000Y-97642000D01*
G75*
G02*
X130348000Y-97792000I0J-150000D01*
G01*
X130348000Y-99442000D01*
G75*
G02*
X130198000Y-99592000I-150000J0D01*
G01*
G37*
%TD.AperFunction*%
%TO.P,U13,12*%
%TO.N,OR_JNB_JAE_JNC*%
%TA.AperFunction,SMDPad,CuDef*%
G36*
G01*
X131468000Y-99592000D02*
X131168000Y-99592000D01*
G75*
G02*
X131018000Y-99442000I0J150000D01*
G01*
X131018000Y-97792000D01*
G75*
G02*
X131168000Y-97642000I150000J0D01*
G01*
X131468000Y-97642000D01*
G75*
G02*
X131618000Y-97792000I0J-150000D01*
G01*
X131618000Y-99442000D01*
G75*
G02*
X131468000Y-99592000I-150000J0D01*
G01*
G37*
%TD.AperFunction*%
%TO.P,U13,11*%
%TO.N,OR_JB_JNAE_JC*%
%TA.AperFunction,SMDPad,CuDef*%
G36*
G01*
X132738000Y-99592000D02*
X132438000Y-99592000D01*
G75*
G02*
X132288000Y-99442000I0J150000D01*
G01*
X132288000Y-97792000D01*
G75*
G02*
X132438000Y-97642000I150000J0D01*
G01*
X132738000Y-97642000D01*
G75*
G02*
X132888000Y-97792000I0J-150000D01*
G01*
X132888000Y-99442000D01*
G75*
G02*
X132738000Y-99592000I-150000J0D01*
G01*
G37*
%TD.AperFunction*%
%TO.P,U13,10*%
%TO.N,OR_JNE_JNZ*%
%TA.AperFunction,SMDPad,CuDef*%
G36*
G01*
X134008000Y-99592000D02*
X133708000Y-99592000D01*
G75*
G02*
X133558000Y-99442000I0J150000D01*
G01*
X133558000Y-97792000D01*
G75*
G02*
X133708000Y-97642000I150000J0D01*
G01*
X134008000Y-97642000D01*
G75*
G02*
X134158000Y-97792000I0J-150000D01*
G01*
X134158000Y-99442000D01*
G75*
G02*
X134008000Y-99592000I-150000J0D01*
G01*
G37*
%TD.AperFunction*%
%TO.P,U13,9*%
%TO.N,OR_JE_JZ*%
%TA.AperFunction,SMDPad,CuDef*%
G36*
G01*
X135278000Y-99592000D02*
X134978000Y-99592000D01*
G75*
G02*
X134828000Y-99442000I0J150000D01*
G01*
X134828000Y-97792000D01*
G75*
G02*
X134978000Y-97642000I150000J0D01*
G01*
X135278000Y-97642000D01*
G75*
G02*
X135428000Y-97792000I0J-150000D01*
G01*
X135428000Y-99442000D01*
G75*
G02*
X135278000Y-99592000I-150000J0D01*
G01*
G37*
%TD.AperFunction*%
%TO.P,U13,8*%
%TO.N,N/C*%
%TA.AperFunction,SMDPad,CuDef*%
G36*
G01*
X136548000Y-99592000D02*
X136248000Y-99592000D01*
G75*
G02*
X136098000Y-99442000I0J150000D01*
G01*
X136098000Y-97792000D01*
G75*
G02*
X136248000Y-97642000I150000J0D01*
G01*
X136548000Y-97642000D01*
G75*
G02*
X136698000Y-97792000I0J-150000D01*
G01*
X136698000Y-99442000D01*
G75*
G02*
X136548000Y-99592000I-150000J0D01*
G01*
G37*
%TD.AperFunction*%
%TO.P,U13,7*%
%TO.N,GND*%
%TA.AperFunction,SMDPad,CuDef*%
G36*
G01*
X136548000Y-104542000D02*
X136248000Y-104542000D01*
G75*
G02*
X136098000Y-104392000I0J150000D01*
G01*
X136098000Y-102742000D01*
G75*
G02*
X136248000Y-102592000I150000J0D01*
G01*
X136548000Y-102592000D01*
G75*
G02*
X136698000Y-102742000I0J-150000D01*
G01*
X136698000Y-104392000D01*
G75*
G02*
X136548000Y-104542000I-150000J0D01*
G01*
G37*
%TD.AperFunction*%
%TO.P,U13,6*%
%TO.N,N/C*%
%TA.AperFunction,SMDPad,CuDef*%
G36*
G01*
X135278000Y-104542000D02*
X134978000Y-104542000D01*
G75*
G02*
X134828000Y-104392000I0J150000D01*
G01*
X134828000Y-102742000D01*
G75*
G02*
X134978000Y-102592000I150000J0D01*
G01*
X135278000Y-102592000D01*
G75*
G02*
X135428000Y-102742000I0J-150000D01*
G01*
X135428000Y-104392000D01*
G75*
G02*
X135278000Y-104542000I-150000J0D01*
G01*
G37*
%TD.AperFunction*%
%TO.P,U13,5*%
%TO.N,OR_JNS*%
%TA.AperFunction,SMDPad,CuDef*%
G36*
G01*
X134008000Y-104542000D02*
X133708000Y-104542000D01*
G75*
G02*
X133558000Y-104392000I0J150000D01*
G01*
X133558000Y-102742000D01*
G75*
G02*
X133708000Y-102592000I150000J0D01*
G01*
X134008000Y-102592000D01*
G75*
G02*
X134158000Y-102742000I0J-150000D01*
G01*
X134158000Y-104392000D01*
G75*
G02*
X134008000Y-104542000I-150000J0D01*
G01*
G37*
%TD.AperFunction*%
%TO.P,U13,4*%
%TO.N,OR_JS*%
%TA.AperFunction,SMDPad,CuDef*%
G36*
G01*
X132738000Y-104542000D02*
X132438000Y-104542000D01*
G75*
G02*
X132288000Y-104392000I0J150000D01*
G01*
X132288000Y-102742000D01*
G75*
G02*
X132438000Y-102592000I150000J0D01*
G01*
X132738000Y-102592000D01*
G75*
G02*
X132888000Y-102742000I0J-150000D01*
G01*
X132888000Y-104392000D01*
G75*
G02*
X132738000Y-104542000I-150000J0D01*
G01*
G37*
%TD.AperFunction*%
%TO.P,U13,3*%
%TO.N,OR_JNO*%
%TA.AperFunction,SMDPad,CuDef*%
G36*
G01*
X131468000Y-104542000D02*
X131168000Y-104542000D01*
G75*
G02*
X131018000Y-104392000I0J150000D01*
G01*
X131018000Y-102742000D01*
G75*
G02*
X131168000Y-102592000I150000J0D01*
G01*
X131468000Y-102592000D01*
G75*
G02*
X131618000Y-102742000I0J-150000D01*
G01*
X131618000Y-104392000D01*
G75*
G02*
X131468000Y-104542000I-150000J0D01*
G01*
G37*
%TD.AperFunction*%
%TO.P,U13,2*%
%TO.N,OR_JO*%
%TA.AperFunction,SMDPad,CuDef*%
G36*
G01*
X130198000Y-104542000D02*
X129898000Y-104542000D01*
G75*
G02*
X129748000Y-104392000I0J150000D01*
G01*
X129748000Y-102742000D01*
G75*
G02*
X129898000Y-102592000I150000J0D01*
G01*
X130198000Y-102592000D01*
G75*
G02*
X130348000Y-102742000I0J-150000D01*
G01*
X130348000Y-104392000D01*
G75*
G02*
X130198000Y-104542000I-150000J0D01*
G01*
G37*
%TD.AperFunction*%
%TO.P,U13,1*%
%TO.N,Net-(U12-Pad4)*%
%TA.AperFunction,SMDPad,CuDef*%
G36*
G01*
X128928000Y-104542000D02*
X128628000Y-104542000D01*
G75*
G02*
X128478000Y-104392000I0J150000D01*
G01*
X128478000Y-102742000D01*
G75*
G02*
X128628000Y-102592000I150000J0D01*
G01*
X128928000Y-102592000D01*
G75*
G02*
X129078000Y-102742000I0J-150000D01*
G01*
X129078000Y-104392000D01*
G75*
G02*
X128928000Y-104542000I-150000J0D01*
G01*
G37*
%TD.AperFunction*%
%TD*%
%TO.P,U12,14*%
%TO.N,VCC*%
%TA.AperFunction,SMDPad,CuDef*%
G36*
G01*
X160202000Y-98967000D02*
X160002000Y-98967000D01*
G75*
G02*
X159902000Y-98867000I0J100000D01*
G01*
X159902000Y-97592000D01*
G75*
G02*
X160002000Y-97492000I100000J0D01*
G01*
X160202000Y-97492000D01*
G75*
G02*
X160302000Y-97592000I0J-100000D01*
G01*
X160302000Y-98867000D01*
G75*
G02*
X160202000Y-98967000I-100000J0D01*
G01*
G37*
%TD.AperFunction*%
%TO.P,U12,13*%
%TO.N,Net-(U12-Pad13)*%
%TA.AperFunction,SMDPad,CuDef*%
G36*
G01*
X160852000Y-98967000D02*
X160652000Y-98967000D01*
G75*
G02*
X160552000Y-98867000I0J100000D01*
G01*
X160552000Y-97592000D01*
G75*
G02*
X160652000Y-97492000I100000J0D01*
G01*
X160852000Y-97492000D01*
G75*
G02*
X160952000Y-97592000I0J-100000D01*
G01*
X160952000Y-98867000D01*
G75*
G02*
X160852000Y-98967000I-100000J0D01*
G01*
G37*
%TD.AperFunction*%
%TO.P,U12,12*%
%TO.N,Net-(U12-Pad12)*%
%TA.AperFunction,SMDPad,CuDef*%
G36*
G01*
X161502000Y-98967000D02*
X161302000Y-98967000D01*
G75*
G02*
X161202000Y-98867000I0J100000D01*
G01*
X161202000Y-97592000D01*
G75*
G02*
X161302000Y-97492000I100000J0D01*
G01*
X161502000Y-97492000D01*
G75*
G02*
X161602000Y-97592000I0J-100000D01*
G01*
X161602000Y-98867000D01*
G75*
G02*
X161502000Y-98967000I-100000J0D01*
G01*
G37*
%TD.AperFunction*%
%TO.P,U12,11*%
%TO.N,Net-(U12-Pad11)*%
%TA.AperFunction,SMDPad,CuDef*%
G36*
G01*
X162152000Y-98967000D02*
X161952000Y-98967000D01*
G75*
G02*
X161852000Y-98867000I0J100000D01*
G01*
X161852000Y-97592000D01*
G75*
G02*
X161952000Y-97492000I100000J0D01*
G01*
X162152000Y-97492000D01*
G75*
G02*
X162252000Y-97592000I0J-100000D01*
G01*
X162252000Y-98867000D01*
G75*
G02*
X162152000Y-98967000I-100000J0D01*
G01*
G37*
%TD.AperFunction*%
%TO.P,U12,10*%
%TO.N,Net-(U12-Pad10)*%
%TA.AperFunction,SMDPad,CuDef*%
G36*
G01*
X162802000Y-98967000D02*
X162602000Y-98967000D01*
G75*
G02*
X162502000Y-98867000I0J100000D01*
G01*
X162502000Y-97592000D01*
G75*
G02*
X162602000Y-97492000I100000J0D01*
G01*
X162802000Y-97492000D01*
G75*
G02*
X162902000Y-97592000I0J-100000D01*
G01*
X162902000Y-98867000D01*
G75*
G02*
X162802000Y-98967000I-100000J0D01*
G01*
G37*
%TD.AperFunction*%
%TO.P,U12,9*%
%TO.N,Net-(U12-Pad6)*%
%TA.AperFunction,SMDPad,CuDef*%
G36*
G01*
X163452000Y-98967000D02*
X163252000Y-98967000D01*
G75*
G02*
X163152000Y-98867000I0J100000D01*
G01*
X163152000Y-97592000D01*
G75*
G02*
X163252000Y-97492000I100000J0D01*
G01*
X163452000Y-97492000D01*
G75*
G02*
X163552000Y-97592000I0J-100000D01*
G01*
X163552000Y-98867000D01*
G75*
G02*
X163452000Y-98967000I-100000J0D01*
G01*
G37*
%TD.AperFunction*%
%TO.P,U12,8*%
%TO.N,~LOAD_PROGRAM_COUNTER_COND*%
%TA.AperFunction,SMDPad,CuDef*%
G36*
G01*
X164102000Y-98967000D02*
X163902000Y-98967000D01*
G75*
G02*
X163802000Y-98867000I0J100000D01*
G01*
X163802000Y-97592000D01*
G75*
G02*
X163902000Y-97492000I100000J0D01*
G01*
X164102000Y-97492000D01*
G75*
G02*
X164202000Y-97592000I0J-100000D01*
G01*
X164202000Y-98867000D01*
G75*
G02*
X164102000Y-98967000I-100000J0D01*
G01*
G37*
%TD.AperFunction*%
%TO.P,U12,7*%
%TO.N,GND*%
%TA.AperFunction,SMDPad,CuDef*%
G36*
G01*
X164102000Y-104692000D02*
X163902000Y-104692000D01*
G75*
G02*
X163802000Y-104592000I0J100000D01*
G01*
X163802000Y-103317000D01*
G75*
G02*
X163902000Y-103217000I100000J0D01*
G01*
X164102000Y-103217000D01*
G75*
G02*
X164202000Y-103317000I0J-100000D01*
G01*
X164202000Y-104592000D01*
G75*
G02*
X164102000Y-104692000I-100000J0D01*
G01*
G37*
%TD.AperFunction*%
%TO.P,U12,6*%
%TO.N,Net-(U12-Pad6)*%
%TA.AperFunction,SMDPad,CuDef*%
G36*
G01*
X163452000Y-104692000D02*
X163252000Y-104692000D01*
G75*
G02*
X163152000Y-104592000I0J100000D01*
G01*
X163152000Y-103317000D01*
G75*
G02*
X163252000Y-103217000I100000J0D01*
G01*
X163452000Y-103217000D01*
G75*
G02*
X163552000Y-103317000I0J-100000D01*
G01*
X163552000Y-104592000D01*
G75*
G02*
X163452000Y-104692000I-100000J0D01*
G01*
G37*
%TD.AperFunction*%
%TO.P,U12,5*%
%TO.N,Net-(U12-Pad5)*%
%TA.AperFunction,SMDPad,CuDef*%
G36*
G01*
X162802000Y-104692000D02*
X162602000Y-104692000D01*
G75*
G02*
X162502000Y-104592000I0J100000D01*
G01*
X162502000Y-103317000D01*
G75*
G02*
X162602000Y-103217000I100000J0D01*
G01*
X162802000Y-103217000D01*
G75*
G02*
X162902000Y-103317000I0J-100000D01*
G01*
X162902000Y-104592000D01*
G75*
G02*
X162802000Y-104692000I-100000J0D01*
G01*
G37*
%TD.AperFunction*%
%TO.P,U12,4*%
%TO.N,Net-(U12-Pad4)*%
%TA.AperFunction,SMDPad,CuDef*%
G36*
G01*
X162152000Y-104692000D02*
X161952000Y-104692000D01*
G75*
G02*
X161852000Y-104592000I0J100000D01*
G01*
X161852000Y-103317000D01*
G75*
G02*
X161952000Y-103217000I100000J0D01*
G01*
X162152000Y-103217000D01*
G75*
G02*
X162252000Y-103317000I0J-100000D01*
G01*
X162252000Y-104592000D01*
G75*
G02*
X162152000Y-104692000I-100000J0D01*
G01*
G37*
%TD.AperFunction*%
%TO.P,U12,3*%
%TO.N,Net-(U12-Pad10)*%
%TA.AperFunction,SMDPad,CuDef*%
G36*
G01*
X161502000Y-104692000D02*
X161302000Y-104692000D01*
G75*
G02*
X161202000Y-104592000I0J100000D01*
G01*
X161202000Y-103317000D01*
G75*
G02*
X161302000Y-103217000I100000J0D01*
G01*
X161502000Y-103217000D01*
G75*
G02*
X161602000Y-103317000I0J-100000D01*
G01*
X161602000Y-104592000D01*
G75*
G02*
X161502000Y-104692000I-100000J0D01*
G01*
G37*
%TD.AperFunction*%
%TO.P,U12,2*%
%TO.N,Net-(U12-Pad2)*%
%TA.AperFunction,SMDPad,CuDef*%
G36*
G01*
X160852000Y-104692000D02*
X160652000Y-104692000D01*
G75*
G02*
X160552000Y-104592000I0J100000D01*
G01*
X160552000Y-103317000D01*
G75*
G02*
X160652000Y-103217000I100000J0D01*
G01*
X160852000Y-103217000D01*
G75*
G02*
X160952000Y-103317000I0J-100000D01*
G01*
X160952000Y-104592000D01*
G75*
G02*
X160852000Y-104692000I-100000J0D01*
G01*
G37*
%TD.AperFunction*%
%TO.P,U12,1*%
%TO.N,Net-(U12-Pad1)*%
%TA.AperFunction,SMDPad,CuDef*%
G36*
G01*
X160202000Y-104692000D02*
X160002000Y-104692000D01*
G75*
G02*
X159902000Y-104592000I0J100000D01*
G01*
X159902000Y-103317000D01*
G75*
G02*
X160002000Y-103217000I100000J0D01*
G01*
X160202000Y-103217000D01*
G75*
G02*
X160302000Y-103317000I0J-100000D01*
G01*
X160302000Y-104592000D01*
G75*
G02*
X160202000Y-104692000I-100000J0D01*
G01*
G37*
%TD.AperFunction*%
%TD*%
%TO.P,U10,14*%
%TO.N,VCC*%
%TA.AperFunction,SMDPad,CuDef*%
G36*
G01*
X181538000Y-87791000D02*
X181338000Y-87791000D01*
G75*
G02*
X181238000Y-87691000I0J100000D01*
G01*
X181238000Y-86416000D01*
G75*
G02*
X181338000Y-86316000I100000J0D01*
G01*
X181538000Y-86316000D01*
G75*
G02*
X181638000Y-86416000I0J-100000D01*
G01*
X181638000Y-87691000D01*
G75*
G02*
X181538000Y-87791000I-100000J0D01*
G01*
G37*
%TD.AperFunction*%
%TO.P,U10,13*%
%TO.N,Net-(U10-Pad13)*%
%TA.AperFunction,SMDPad,CuDef*%
G36*
G01*
X182188000Y-87791000D02*
X181988000Y-87791000D01*
G75*
G02*
X181888000Y-87691000I0J100000D01*
G01*
X181888000Y-86416000D01*
G75*
G02*
X181988000Y-86316000I100000J0D01*
G01*
X182188000Y-86316000D01*
G75*
G02*
X182288000Y-86416000I0J-100000D01*
G01*
X182288000Y-87691000D01*
G75*
G02*
X182188000Y-87791000I-100000J0D01*
G01*
G37*
%TD.AperFunction*%
%TO.P,U10,12*%
%TO.N,Net-(U10-Pad12)*%
%TA.AperFunction,SMDPad,CuDef*%
G36*
G01*
X182838000Y-87791000D02*
X182638000Y-87791000D01*
G75*
G02*
X182538000Y-87691000I0J100000D01*
G01*
X182538000Y-86416000D01*
G75*
G02*
X182638000Y-86316000I100000J0D01*
G01*
X182838000Y-86316000D01*
G75*
G02*
X182938000Y-86416000I0J-100000D01*
G01*
X182938000Y-87691000D01*
G75*
G02*
X182838000Y-87791000I-100000J0D01*
G01*
G37*
%TD.AperFunction*%
%TO.P,U10,11*%
%TO.N,Net-(U10-Pad11)*%
%TA.AperFunction,SMDPad,CuDef*%
G36*
G01*
X183488000Y-87791000D02*
X183288000Y-87791000D01*
G75*
G02*
X183188000Y-87691000I0J100000D01*
G01*
X183188000Y-86416000D01*
G75*
G02*
X183288000Y-86316000I100000J0D01*
G01*
X183488000Y-86316000D01*
G75*
G02*
X183588000Y-86416000I0J-100000D01*
G01*
X183588000Y-87691000D01*
G75*
G02*
X183488000Y-87791000I-100000J0D01*
G01*
G37*
%TD.AperFunction*%
%TO.P,U10,10*%
%TO.N,Net-(U10-Pad10)*%
%TA.AperFunction,SMDPad,CuDef*%
G36*
G01*
X184138000Y-87791000D02*
X183938000Y-87791000D01*
G75*
G02*
X183838000Y-87691000I0J100000D01*
G01*
X183838000Y-86416000D01*
G75*
G02*
X183938000Y-86316000I100000J0D01*
G01*
X184138000Y-86316000D01*
G75*
G02*
X184238000Y-86416000I0J-100000D01*
G01*
X184238000Y-87691000D01*
G75*
G02*
X184138000Y-87791000I-100000J0D01*
G01*
G37*
%TD.AperFunction*%
%TO.P,U10,9*%
%TO.N,Net-(U10-Pad9)*%
%TA.AperFunction,SMDPad,CuDef*%
G36*
G01*
X184788000Y-87791000D02*
X184588000Y-87791000D01*
G75*
G02*
X184488000Y-87691000I0J100000D01*
G01*
X184488000Y-86416000D01*
G75*
G02*
X184588000Y-86316000I100000J0D01*
G01*
X184788000Y-86316000D01*
G75*
G02*
X184888000Y-86416000I0J-100000D01*
G01*
X184888000Y-87691000D01*
G75*
G02*
X184788000Y-87791000I-100000J0D01*
G01*
G37*
%TD.AperFunction*%
%TO.P,U10,8*%
%TO.N,OR_JLE_JNG*%
%TA.AperFunction,SMDPad,CuDef*%
G36*
G01*
X185438000Y-87791000D02*
X185238000Y-87791000D01*
G75*
G02*
X185138000Y-87691000I0J100000D01*
G01*
X185138000Y-86416000D01*
G75*
G02*
X185238000Y-86316000I100000J0D01*
G01*
X185438000Y-86316000D01*
G75*
G02*
X185538000Y-86416000I0J-100000D01*
G01*
X185538000Y-87691000D01*
G75*
G02*
X185438000Y-87791000I-100000J0D01*
G01*
G37*
%TD.AperFunction*%
%TO.P,U10,7*%
%TO.N,GND*%
%TA.AperFunction,SMDPad,CuDef*%
G36*
G01*
X185438000Y-93516000D02*
X185238000Y-93516000D01*
G75*
G02*
X185138000Y-93416000I0J100000D01*
G01*
X185138000Y-92141000D01*
G75*
G02*
X185238000Y-92041000I100000J0D01*
G01*
X185438000Y-92041000D01*
G75*
G02*
X185538000Y-92141000I0J-100000D01*
G01*
X185538000Y-93416000D01*
G75*
G02*
X185438000Y-93516000I-100000J0D01*
G01*
G37*
%TD.AperFunction*%
%TO.P,U10,6*%
%TO.N,OR_JGE_JNL*%
%TA.AperFunction,SMDPad,CuDef*%
G36*
G01*
X184788000Y-93516000D02*
X184588000Y-93516000D01*
G75*
G02*
X184488000Y-93416000I0J100000D01*
G01*
X184488000Y-92141000D01*
G75*
G02*
X184588000Y-92041000I100000J0D01*
G01*
X184788000Y-92041000D01*
G75*
G02*
X184888000Y-92141000I0J-100000D01*
G01*
X184888000Y-93416000D01*
G75*
G02*
X184788000Y-93516000I-100000J0D01*
G01*
G37*
%TD.AperFunction*%
%TO.P,U10,5*%
%TO.N,SF=OF*%
%TA.AperFunction,SMDPad,CuDef*%
G36*
G01*
X184138000Y-93516000D02*
X183938000Y-93516000D01*
G75*
G02*
X183838000Y-93416000I0J100000D01*
G01*
X183838000Y-92141000D01*
G75*
G02*
X183938000Y-92041000I100000J0D01*
G01*
X184138000Y-92041000D01*
G75*
G02*
X184238000Y-92141000I0J-100000D01*
G01*
X184238000Y-93416000D01*
G75*
G02*
X184138000Y-93516000I-100000J0D01*
G01*
G37*
%TD.AperFunction*%
%TO.P,U10,4*%
%TO.N,Net-(U10-Pad4)*%
%TA.AperFunction,SMDPad,CuDef*%
G36*
G01*
X183488000Y-93516000D02*
X183288000Y-93516000D01*
G75*
G02*
X183188000Y-93416000I0J100000D01*
G01*
X183188000Y-92141000D01*
G75*
G02*
X183288000Y-92041000I100000J0D01*
G01*
X183488000Y-92041000D01*
G75*
G02*
X183588000Y-92141000I0J-100000D01*
G01*
X183588000Y-93416000D01*
G75*
G02*
X183488000Y-93516000I-100000J0D01*
G01*
G37*
%TD.AperFunction*%
%TO.P,U10,3*%
%TO.N,OR_JBE_JNA*%
%TA.AperFunction,SMDPad,CuDef*%
G36*
G01*
X182838000Y-93516000D02*
X182638000Y-93516000D01*
G75*
G02*
X182538000Y-93416000I0J100000D01*
G01*
X182538000Y-92141000D01*
G75*
G02*
X182638000Y-92041000I100000J0D01*
G01*
X182838000Y-92041000D01*
G75*
G02*
X182938000Y-92141000I0J-100000D01*
G01*
X182938000Y-93416000D01*
G75*
G02*
X182838000Y-93516000I-100000J0D01*
G01*
G37*
%TD.AperFunction*%
%TO.P,U10,2*%
%TO.N,Net-(U10-Pad2)*%
%TA.AperFunction,SMDPad,CuDef*%
G36*
G01*
X182188000Y-93516000D02*
X181988000Y-93516000D01*
G75*
G02*
X181888000Y-93416000I0J100000D01*
G01*
X181888000Y-92141000D01*
G75*
G02*
X181988000Y-92041000I100000J0D01*
G01*
X182188000Y-92041000D01*
G75*
G02*
X182288000Y-92141000I0J-100000D01*
G01*
X182288000Y-93416000D01*
G75*
G02*
X182188000Y-93516000I-100000J0D01*
G01*
G37*
%TD.AperFunction*%
%TO.P,U10,1*%
%TO.N,Net-(U10-Pad1)*%
%TA.AperFunction,SMDPad,CuDef*%
G36*
G01*
X181538000Y-93516000D02*
X181338000Y-93516000D01*
G75*
G02*
X181238000Y-93416000I0J100000D01*
G01*
X181238000Y-92141000D01*
G75*
G02*
X181338000Y-92041000I100000J0D01*
G01*
X181538000Y-92041000D01*
G75*
G02*
X181638000Y-92141000I0J-100000D01*
G01*
X181638000Y-93416000D01*
G75*
G02*
X181538000Y-93516000I-100000J0D01*
G01*
G37*
%TD.AperFunction*%
%TD*%
%TO.P,U9,14*%
%TO.N,VCC*%
%TA.AperFunction,SMDPad,CuDef*%
G36*
G01*
X172902000Y-87791000D02*
X172702000Y-87791000D01*
G75*
G02*
X172602000Y-87691000I0J100000D01*
G01*
X172602000Y-86416000D01*
G75*
G02*
X172702000Y-86316000I100000J0D01*
G01*
X172902000Y-86316000D01*
G75*
G02*
X173002000Y-86416000I0J-100000D01*
G01*
X173002000Y-87691000D01*
G75*
G02*
X172902000Y-87791000I-100000J0D01*
G01*
G37*
%TD.AperFunction*%
%TO.P,U9,13*%
%TO.N,~J*%
%TA.AperFunction,SMDPad,CuDef*%
G36*
G01*
X173552000Y-87791000D02*
X173352000Y-87791000D01*
G75*
G02*
X173252000Y-87691000I0J100000D01*
G01*
X173252000Y-86416000D01*
G75*
G02*
X173352000Y-86316000I100000J0D01*
G01*
X173552000Y-86316000D01*
G75*
G02*
X173652000Y-86416000I0J-100000D01*
G01*
X173652000Y-87691000D01*
G75*
G02*
X173552000Y-87791000I-100000J0D01*
G01*
G37*
%TD.AperFunction*%
%TO.P,U9,12*%
%TO.N,OR_JUMP*%
%TA.AperFunction,SMDPad,CuDef*%
G36*
G01*
X174202000Y-87791000D02*
X174002000Y-87791000D01*
G75*
G02*
X173902000Y-87691000I0J100000D01*
G01*
X173902000Y-86416000D01*
G75*
G02*
X174002000Y-86316000I100000J0D01*
G01*
X174202000Y-86316000D01*
G75*
G02*
X174302000Y-86416000I0J-100000D01*
G01*
X174302000Y-87691000D01*
G75*
G02*
X174202000Y-87791000I-100000J0D01*
G01*
G37*
%TD.AperFunction*%
%TO.P,U9,11*%
%TO.N,ZERO_FLAG*%
%TA.AperFunction,SMDPad,CuDef*%
G36*
G01*
X174852000Y-87791000D02*
X174652000Y-87791000D01*
G75*
G02*
X174552000Y-87691000I0J100000D01*
G01*
X174552000Y-86416000D01*
G75*
G02*
X174652000Y-86316000I100000J0D01*
G01*
X174852000Y-86316000D01*
G75*
G02*
X174952000Y-86416000I0J-100000D01*
G01*
X174952000Y-87691000D01*
G75*
G02*
X174852000Y-87791000I-100000J0D01*
G01*
G37*
%TD.AperFunction*%
%TO.P,U9,10*%
%TO.N,Net-(U11-Pad1)*%
%TA.AperFunction,SMDPad,CuDef*%
G36*
G01*
X175502000Y-87791000D02*
X175302000Y-87791000D01*
G75*
G02*
X175202000Y-87691000I0J100000D01*
G01*
X175202000Y-86416000D01*
G75*
G02*
X175302000Y-86316000I100000J0D01*
G01*
X175502000Y-86316000D01*
G75*
G02*
X175602000Y-86416000I0J-100000D01*
G01*
X175602000Y-87691000D01*
G75*
G02*
X175502000Y-87791000I-100000J0D01*
G01*
G37*
%TD.AperFunction*%
%TO.P,U9,9*%
%TO.N,~JLE_JNG*%
%TA.AperFunction,SMDPad,CuDef*%
G36*
G01*
X176152000Y-87791000D02*
X175952000Y-87791000D01*
G75*
G02*
X175852000Y-87691000I0J100000D01*
G01*
X175852000Y-86416000D01*
G75*
G02*
X175952000Y-86316000I100000J0D01*
G01*
X176152000Y-86316000D01*
G75*
G02*
X176252000Y-86416000I0J-100000D01*
G01*
X176252000Y-87691000D01*
G75*
G02*
X176152000Y-87791000I-100000J0D01*
G01*
G37*
%TD.AperFunction*%
%TO.P,U9,8*%
%TO.N,Net-(U10-Pad9)*%
%TA.AperFunction,SMDPad,CuDef*%
G36*
G01*
X176802000Y-87791000D02*
X176602000Y-87791000D01*
G75*
G02*
X176502000Y-87691000I0J100000D01*
G01*
X176502000Y-86416000D01*
G75*
G02*
X176602000Y-86316000I100000J0D01*
G01*
X176802000Y-86316000D01*
G75*
G02*
X176902000Y-86416000I0J-100000D01*
G01*
X176902000Y-87691000D01*
G75*
G02*
X176802000Y-87791000I-100000J0D01*
G01*
G37*
%TD.AperFunction*%
%TO.P,U9,7*%
%TO.N,GND*%
%TA.AperFunction,SMDPad,CuDef*%
G36*
G01*
X176802000Y-93516000D02*
X176602000Y-93516000D01*
G75*
G02*
X176502000Y-93416000I0J100000D01*
G01*
X176502000Y-92141000D01*
G75*
G02*
X176602000Y-92041000I100000J0D01*
G01*
X176802000Y-92041000D01*
G75*
G02*
X176902000Y-92141000I0J-100000D01*
G01*
X176902000Y-93416000D01*
G75*
G02*
X176802000Y-93516000I-100000J0D01*
G01*
G37*
%TD.AperFunction*%
%TO.P,U9,6*%
%TO.N,Net-(U10-Pad4)*%
%TA.AperFunction,SMDPad,CuDef*%
G36*
G01*
X176152000Y-93516000D02*
X175952000Y-93516000D01*
G75*
G02*
X175852000Y-93416000I0J100000D01*
G01*
X175852000Y-92141000D01*
G75*
G02*
X175952000Y-92041000I100000J0D01*
G01*
X176152000Y-92041000D01*
G75*
G02*
X176252000Y-92141000I0J-100000D01*
G01*
X176252000Y-93416000D01*
G75*
G02*
X176152000Y-93516000I-100000J0D01*
G01*
G37*
%TD.AperFunction*%
%TO.P,U9,5*%
%TO.N,~JGE_JNL*%
%TA.AperFunction,SMDPad,CuDef*%
G36*
G01*
X175502000Y-93516000D02*
X175302000Y-93516000D01*
G75*
G02*
X175202000Y-93416000I0J100000D01*
G01*
X175202000Y-92141000D01*
G75*
G02*
X175302000Y-92041000I100000J0D01*
G01*
X175502000Y-92041000D01*
G75*
G02*
X175602000Y-92141000I0J-100000D01*
G01*
X175602000Y-93416000D01*
G75*
G02*
X175502000Y-93516000I-100000J0D01*
G01*
G37*
%TD.AperFunction*%
%TO.P,U9,4*%
%TO.N,Net-(U7-Pad13)*%
%TA.AperFunction,SMDPad,CuDef*%
G36*
G01*
X174852000Y-93516000D02*
X174652000Y-93516000D01*
G75*
G02*
X174552000Y-93416000I0J100000D01*
G01*
X174552000Y-92141000D01*
G75*
G02*
X174652000Y-92041000I100000J0D01*
G01*
X174852000Y-92041000D01*
G75*
G02*
X174952000Y-92141000I0J-100000D01*
G01*
X174952000Y-93416000D01*
G75*
G02*
X174852000Y-93516000I-100000J0D01*
G01*
G37*
%TD.AperFunction*%
%TO.P,U9,3*%
%TO.N,SIGN_FLAG*%
%TA.AperFunction,SMDPad,CuDef*%
G36*
G01*
X174202000Y-93516000D02*
X174002000Y-93516000D01*
G75*
G02*
X173902000Y-93416000I0J100000D01*
G01*
X173902000Y-92141000D01*
G75*
G02*
X174002000Y-92041000I100000J0D01*
G01*
X174202000Y-92041000D01*
G75*
G02*
X174302000Y-92141000I0J-100000D01*
G01*
X174302000Y-93416000D01*
G75*
G02*
X174202000Y-93516000I-100000J0D01*
G01*
G37*
%TD.AperFunction*%
%TO.P,U9,2*%
%TO.N,Net-(U7-Pad12)*%
%TA.AperFunction,SMDPad,CuDef*%
G36*
G01*
X173552000Y-93516000D02*
X173352000Y-93516000D01*
G75*
G02*
X173252000Y-93416000I0J100000D01*
G01*
X173252000Y-92141000D01*
G75*
G02*
X173352000Y-92041000I100000J0D01*
G01*
X173552000Y-92041000D01*
G75*
G02*
X173652000Y-92141000I0J-100000D01*
G01*
X173652000Y-93416000D01*
G75*
G02*
X173552000Y-93516000I-100000J0D01*
G01*
G37*
%TD.AperFunction*%
%TO.P,U9,1*%
%TO.N,OVERFLOW_FLAG*%
%TA.AperFunction,SMDPad,CuDef*%
G36*
G01*
X172902000Y-93516000D02*
X172702000Y-93516000D01*
G75*
G02*
X172602000Y-93416000I0J100000D01*
G01*
X172602000Y-92141000D01*
G75*
G02*
X172702000Y-92041000I100000J0D01*
G01*
X172902000Y-92041000D01*
G75*
G02*
X173002000Y-92141000I0J-100000D01*
G01*
X173002000Y-93416000D01*
G75*
G02*
X172902000Y-93516000I-100000J0D01*
G01*
G37*
%TD.AperFunction*%
%TD*%
%TO.P,U8,14*%
%TO.N,VCC*%
%TA.AperFunction,SMDPad,CuDef*%
G36*
G01*
X161726000Y-87791000D02*
X161526000Y-87791000D01*
G75*
G02*
X161426000Y-87691000I0J100000D01*
G01*
X161426000Y-86416000D01*
G75*
G02*
X161526000Y-86316000I100000J0D01*
G01*
X161726000Y-86316000D01*
G75*
G02*
X161826000Y-86416000I0J-100000D01*
G01*
X161826000Y-87691000D01*
G75*
G02*
X161726000Y-87791000I-100000J0D01*
G01*
G37*
%TD.AperFunction*%
%TO.P,U8,13*%
%TO.N,Net-(U8-Pad13)*%
%TA.AperFunction,SMDPad,CuDef*%
G36*
G01*
X162376000Y-87791000D02*
X162176000Y-87791000D01*
G75*
G02*
X162076000Y-87691000I0J100000D01*
G01*
X162076000Y-86416000D01*
G75*
G02*
X162176000Y-86316000I100000J0D01*
G01*
X162376000Y-86316000D01*
G75*
G02*
X162476000Y-86416000I0J-100000D01*
G01*
X162476000Y-87691000D01*
G75*
G02*
X162376000Y-87791000I-100000J0D01*
G01*
G37*
%TD.AperFunction*%
%TO.P,U8,12*%
%TO.N,Net-(U8-Pad12)*%
%TA.AperFunction,SMDPad,CuDef*%
G36*
G01*
X163026000Y-87791000D02*
X162826000Y-87791000D01*
G75*
G02*
X162726000Y-87691000I0J100000D01*
G01*
X162726000Y-86416000D01*
G75*
G02*
X162826000Y-86316000I100000J0D01*
G01*
X163026000Y-86316000D01*
G75*
G02*
X163126000Y-86416000I0J-100000D01*
G01*
X163126000Y-87691000D01*
G75*
G02*
X163026000Y-87791000I-100000J0D01*
G01*
G37*
%TD.AperFunction*%
%TO.P,U8,11*%
%TO.N,Net-(U8-Pad11)*%
%TA.AperFunction,SMDPad,CuDef*%
G36*
G01*
X163676000Y-87791000D02*
X163476000Y-87791000D01*
G75*
G02*
X163376000Y-87691000I0J100000D01*
G01*
X163376000Y-86416000D01*
G75*
G02*
X163476000Y-86316000I100000J0D01*
G01*
X163676000Y-86316000D01*
G75*
G02*
X163776000Y-86416000I0J-100000D01*
G01*
X163776000Y-87691000D01*
G75*
G02*
X163676000Y-87791000I-100000J0D01*
G01*
G37*
%TD.AperFunction*%
%TO.P,U8,10*%
%TO.N,Net-(U8-Pad10)*%
%TA.AperFunction,SMDPad,CuDef*%
G36*
G01*
X164326000Y-87791000D02*
X164126000Y-87791000D01*
G75*
G02*
X164026000Y-87691000I0J100000D01*
G01*
X164026000Y-86416000D01*
G75*
G02*
X164126000Y-86316000I100000J0D01*
G01*
X164326000Y-86316000D01*
G75*
G02*
X164426000Y-86416000I0J-100000D01*
G01*
X164426000Y-87691000D01*
G75*
G02*
X164326000Y-87791000I-100000J0D01*
G01*
G37*
%TD.AperFunction*%
%TO.P,U8,9*%
%TO.N,Net-(U8-Pad9)*%
%TA.AperFunction,SMDPad,CuDef*%
G36*
G01*
X164976000Y-87791000D02*
X164776000Y-87791000D01*
G75*
G02*
X164676000Y-87691000I0J100000D01*
G01*
X164676000Y-86416000D01*
G75*
G02*
X164776000Y-86316000I100000J0D01*
G01*
X164976000Y-86316000D01*
G75*
G02*
X165076000Y-86416000I0J-100000D01*
G01*
X165076000Y-87691000D01*
G75*
G02*
X164976000Y-87791000I-100000J0D01*
G01*
G37*
%TD.AperFunction*%
%TO.P,U8,8*%
%TO.N,Net-(U8-Pad8)*%
%TA.AperFunction,SMDPad,CuDef*%
G36*
G01*
X165626000Y-87791000D02*
X165426000Y-87791000D01*
G75*
G02*
X165326000Y-87691000I0J100000D01*
G01*
X165326000Y-86416000D01*
G75*
G02*
X165426000Y-86316000I100000J0D01*
G01*
X165626000Y-86316000D01*
G75*
G02*
X165726000Y-86416000I0J-100000D01*
G01*
X165726000Y-87691000D01*
G75*
G02*
X165626000Y-87791000I-100000J0D01*
G01*
G37*
%TD.AperFunction*%
%TO.P,U8,7*%
%TO.N,GND*%
%TA.AperFunction,SMDPad,CuDef*%
G36*
G01*
X165626000Y-93516000D02*
X165426000Y-93516000D01*
G75*
G02*
X165326000Y-93416000I0J100000D01*
G01*
X165326000Y-92141000D01*
G75*
G02*
X165426000Y-92041000I100000J0D01*
G01*
X165626000Y-92041000D01*
G75*
G02*
X165726000Y-92141000I0J-100000D01*
G01*
X165726000Y-93416000D01*
G75*
G02*
X165626000Y-93516000I-100000J0D01*
G01*
G37*
%TD.AperFunction*%
%TO.P,U8,6*%
%TO.N,SF=OF*%
%TA.AperFunction,SMDPad,CuDef*%
G36*
G01*
X164976000Y-93516000D02*
X164776000Y-93516000D01*
G75*
G02*
X164676000Y-93416000I0J100000D01*
G01*
X164676000Y-92141000D01*
G75*
G02*
X164776000Y-92041000I100000J0D01*
G01*
X164976000Y-92041000D01*
G75*
G02*
X165076000Y-92141000I0J-100000D01*
G01*
X165076000Y-93416000D01*
G75*
G02*
X164976000Y-93516000I-100000J0D01*
G01*
G37*
%TD.AperFunction*%
%TO.P,U8,5*%
%TO.N,Net-(U7-Pad3)*%
%TA.AperFunction,SMDPad,CuDef*%
G36*
G01*
X164326000Y-93516000D02*
X164126000Y-93516000D01*
G75*
G02*
X164026000Y-93416000I0J100000D01*
G01*
X164026000Y-92141000D01*
G75*
G02*
X164126000Y-92041000I100000J0D01*
G01*
X164326000Y-92041000D01*
G75*
G02*
X164426000Y-92141000I0J-100000D01*
G01*
X164426000Y-93416000D01*
G75*
G02*
X164326000Y-93516000I-100000J0D01*
G01*
G37*
%TD.AperFunction*%
%TO.P,U8,4*%
%TO.N,Net-(U7-Pad11)*%
%TA.AperFunction,SMDPad,CuDef*%
G36*
G01*
X163676000Y-93516000D02*
X163476000Y-93516000D01*
G75*
G02*
X163376000Y-93416000I0J100000D01*
G01*
X163376000Y-92141000D01*
G75*
G02*
X163476000Y-92041000I100000J0D01*
G01*
X163676000Y-92041000D01*
G75*
G02*
X163776000Y-92141000I0J-100000D01*
G01*
X163776000Y-93416000D01*
G75*
G02*
X163676000Y-93516000I-100000J0D01*
G01*
G37*
%TD.AperFunction*%
%TO.P,U8,3*%
%TO.N,SF<>OF*%
%TA.AperFunction,SMDPad,CuDef*%
G36*
G01*
X163026000Y-93516000D02*
X162826000Y-93516000D01*
G75*
G02*
X162726000Y-93416000I0J100000D01*
G01*
X162726000Y-92141000D01*
G75*
G02*
X162826000Y-92041000I100000J0D01*
G01*
X163026000Y-92041000D01*
G75*
G02*
X163126000Y-92141000I0J-100000D01*
G01*
X163126000Y-93416000D01*
G75*
G02*
X163026000Y-93516000I-100000J0D01*
G01*
G37*
%TD.AperFunction*%
%TO.P,U8,2*%
%TO.N,SIGN_FLAG*%
%TA.AperFunction,SMDPad,CuDef*%
G36*
G01*
X162376000Y-93516000D02*
X162176000Y-93516000D01*
G75*
G02*
X162076000Y-93416000I0J100000D01*
G01*
X162076000Y-92141000D01*
G75*
G02*
X162176000Y-92041000I100000J0D01*
G01*
X162376000Y-92041000D01*
G75*
G02*
X162476000Y-92141000I0J-100000D01*
G01*
X162476000Y-93416000D01*
G75*
G02*
X162376000Y-93516000I-100000J0D01*
G01*
G37*
%TD.AperFunction*%
%TO.P,U8,1*%
%TO.N,OVERFLOW_FLAG*%
%TA.AperFunction,SMDPad,CuDef*%
G36*
G01*
X161726000Y-93516000D02*
X161526000Y-93516000D01*
G75*
G02*
X161426000Y-93416000I0J100000D01*
G01*
X161426000Y-92141000D01*
G75*
G02*
X161526000Y-92041000I100000J0D01*
G01*
X161726000Y-92041000D01*
G75*
G02*
X161826000Y-92141000I0J-100000D01*
G01*
X161826000Y-93416000D01*
G75*
G02*
X161726000Y-93516000I-100000J0D01*
G01*
G37*
%TD.AperFunction*%
%TD*%
%TO.P,U7,14*%
%TO.N,VCC*%
%TA.AperFunction,SMDPad,CuDef*%
G36*
G01*
X150296000Y-87791000D02*
X150096000Y-87791000D01*
G75*
G02*
X149996000Y-87691000I0J100000D01*
G01*
X149996000Y-86416000D01*
G75*
G02*
X150096000Y-86316000I100000J0D01*
G01*
X150296000Y-86316000D01*
G75*
G02*
X150396000Y-86416000I0J-100000D01*
G01*
X150396000Y-87691000D01*
G75*
G02*
X150296000Y-87791000I-100000J0D01*
G01*
G37*
%TD.AperFunction*%
%TO.P,U7,13*%
%TO.N,Net-(U7-Pad13)*%
%TA.AperFunction,SMDPad,CuDef*%
G36*
G01*
X150946000Y-87791000D02*
X150746000Y-87791000D01*
G75*
G02*
X150646000Y-87691000I0J100000D01*
G01*
X150646000Y-86416000D01*
G75*
G02*
X150746000Y-86316000I100000J0D01*
G01*
X150946000Y-86316000D01*
G75*
G02*
X151046000Y-86416000I0J-100000D01*
G01*
X151046000Y-87691000D01*
G75*
G02*
X150946000Y-87791000I-100000J0D01*
G01*
G37*
%TD.AperFunction*%
%TO.P,U7,12*%
%TO.N,Net-(U7-Pad12)*%
%TA.AperFunction,SMDPad,CuDef*%
G36*
G01*
X151596000Y-87791000D02*
X151396000Y-87791000D01*
G75*
G02*
X151296000Y-87691000I0J100000D01*
G01*
X151296000Y-86416000D01*
G75*
G02*
X151396000Y-86316000I100000J0D01*
G01*
X151596000Y-86316000D01*
G75*
G02*
X151696000Y-86416000I0J-100000D01*
G01*
X151696000Y-87691000D01*
G75*
G02*
X151596000Y-87791000I-100000J0D01*
G01*
G37*
%TD.AperFunction*%
%TO.P,U7,11*%
%TO.N,Net-(U7-Pad11)*%
%TA.AperFunction,SMDPad,CuDef*%
G36*
G01*
X152246000Y-87791000D02*
X152046000Y-87791000D01*
G75*
G02*
X151946000Y-87691000I0J100000D01*
G01*
X151946000Y-86416000D01*
G75*
G02*
X152046000Y-86316000I100000J0D01*
G01*
X152246000Y-86316000D01*
G75*
G02*
X152346000Y-86416000I0J-100000D01*
G01*
X152346000Y-87691000D01*
G75*
G02*
X152246000Y-87791000I-100000J0D01*
G01*
G37*
%TD.AperFunction*%
%TO.P,U7,10*%
%TO.N,SF<>OF*%
%TA.AperFunction,SMDPad,CuDef*%
G36*
G01*
X152896000Y-87791000D02*
X152696000Y-87791000D01*
G75*
G02*
X152596000Y-87691000I0J100000D01*
G01*
X152596000Y-86416000D01*
G75*
G02*
X152696000Y-86316000I100000J0D01*
G01*
X152896000Y-86316000D01*
G75*
G02*
X152996000Y-86416000I0J-100000D01*
G01*
X152996000Y-87691000D01*
G75*
G02*
X152896000Y-87791000I-100000J0D01*
G01*
G37*
%TD.AperFunction*%
%TO.P,U7,9*%
%TO.N,Net-(U5-Pad10)*%
%TA.AperFunction,SMDPad,CuDef*%
G36*
G01*
X153546000Y-87791000D02*
X153346000Y-87791000D01*
G75*
G02*
X153246000Y-87691000I0J100000D01*
G01*
X153246000Y-86416000D01*
G75*
G02*
X153346000Y-86316000I100000J0D01*
G01*
X153546000Y-86316000D01*
G75*
G02*
X153646000Y-86416000I0J-100000D01*
G01*
X153646000Y-87691000D01*
G75*
G02*
X153546000Y-87791000I-100000J0D01*
G01*
G37*
%TD.AperFunction*%
%TO.P,U7,8*%
%TO.N,OR_JL_JNGE*%
%TA.AperFunction,SMDPad,CuDef*%
G36*
G01*
X154196000Y-87791000D02*
X153996000Y-87791000D01*
G75*
G02*
X153896000Y-87691000I0J100000D01*
G01*
X153896000Y-86416000D01*
G75*
G02*
X153996000Y-86316000I100000J0D01*
G01*
X154196000Y-86316000D01*
G75*
G02*
X154296000Y-86416000I0J-100000D01*
G01*
X154296000Y-87691000D01*
G75*
G02*
X154196000Y-87791000I-100000J0D01*
G01*
G37*
%TD.AperFunction*%
%TO.P,U7,7*%
%TO.N,GND*%
%TA.AperFunction,SMDPad,CuDef*%
G36*
G01*
X154196000Y-93516000D02*
X153996000Y-93516000D01*
G75*
G02*
X153896000Y-93416000I0J100000D01*
G01*
X153896000Y-92141000D01*
G75*
G02*
X153996000Y-92041000I100000J0D01*
G01*
X154196000Y-92041000D01*
G75*
G02*
X154296000Y-92141000I0J-100000D01*
G01*
X154296000Y-93416000D01*
G75*
G02*
X154196000Y-93516000I-100000J0D01*
G01*
G37*
%TD.AperFunction*%
%TO.P,U7,6*%
%TO.N,OR_JA_JNBE*%
%TA.AperFunction,SMDPad,CuDef*%
G36*
G01*
X153546000Y-93516000D02*
X153346000Y-93516000D01*
G75*
G02*
X153246000Y-93416000I0J100000D01*
G01*
X153246000Y-92141000D01*
G75*
G02*
X153346000Y-92041000I100000J0D01*
G01*
X153546000Y-92041000D01*
G75*
G02*
X153646000Y-92141000I0J-100000D01*
G01*
X153646000Y-93416000D01*
G75*
G02*
X153546000Y-93516000I-100000J0D01*
G01*
G37*
%TD.AperFunction*%
%TO.P,U7,5*%
%TO.N,Net-(U6-Pad6)*%
%TA.AperFunction,SMDPad,CuDef*%
G36*
G01*
X152896000Y-93516000D02*
X152696000Y-93516000D01*
G75*
G02*
X152596000Y-93416000I0J100000D01*
G01*
X152596000Y-92141000D01*
G75*
G02*
X152696000Y-92041000I100000J0D01*
G01*
X152896000Y-92041000D01*
G75*
G02*
X152996000Y-92141000I0J-100000D01*
G01*
X152996000Y-93416000D01*
G75*
G02*
X152896000Y-93516000I-100000J0D01*
G01*
G37*
%TD.AperFunction*%
%TO.P,U7,4*%
%TO.N,Net-(U5-Pad4)*%
%TA.AperFunction,SMDPad,CuDef*%
G36*
G01*
X152246000Y-93516000D02*
X152046000Y-93516000D01*
G75*
G02*
X151946000Y-93416000I0J100000D01*
G01*
X151946000Y-92141000D01*
G75*
G02*
X152046000Y-92041000I100000J0D01*
G01*
X152246000Y-92041000D01*
G75*
G02*
X152346000Y-92141000I0J-100000D01*
G01*
X152346000Y-93416000D01*
G75*
G02*
X152246000Y-93516000I-100000J0D01*
G01*
G37*
%TD.AperFunction*%
%TO.P,U7,3*%
%TO.N,Net-(U7-Pad3)*%
%TA.AperFunction,SMDPad,CuDef*%
G36*
G01*
X151596000Y-93516000D02*
X151396000Y-93516000D01*
G75*
G02*
X151296000Y-93416000I0J100000D01*
G01*
X151296000Y-92141000D01*
G75*
G02*
X151396000Y-92041000I100000J0D01*
G01*
X151596000Y-92041000D01*
G75*
G02*
X151696000Y-92141000I0J-100000D01*
G01*
X151696000Y-93416000D01*
G75*
G02*
X151596000Y-93516000I-100000J0D01*
G01*
G37*
%TD.AperFunction*%
%TO.P,U7,2*%
%TO.N,SIGN_FLAG*%
%TA.AperFunction,SMDPad,CuDef*%
G36*
G01*
X150946000Y-93516000D02*
X150746000Y-93516000D01*
G75*
G02*
X150646000Y-93416000I0J100000D01*
G01*
X150646000Y-92141000D01*
G75*
G02*
X150746000Y-92041000I100000J0D01*
G01*
X150946000Y-92041000D01*
G75*
G02*
X151046000Y-92141000I0J-100000D01*
G01*
X151046000Y-93416000D01*
G75*
G02*
X150946000Y-93516000I-100000J0D01*
G01*
G37*
%TD.AperFunction*%
%TO.P,U7,1*%
%TO.N,OVERFLOW_FLAG*%
%TA.AperFunction,SMDPad,CuDef*%
G36*
G01*
X150296000Y-93516000D02*
X150096000Y-93516000D01*
G75*
G02*
X149996000Y-93416000I0J100000D01*
G01*
X149996000Y-92141000D01*
G75*
G02*
X150096000Y-92041000I100000J0D01*
G01*
X150296000Y-92041000D01*
G75*
G02*
X150396000Y-92141000I0J-100000D01*
G01*
X150396000Y-93416000D01*
G75*
G02*
X150296000Y-93516000I-100000J0D01*
G01*
G37*
%TD.AperFunction*%
%TD*%
%TO.P,U6,14*%
%TO.N,VCC*%
%TA.AperFunction,SMDPad,CuDef*%
G36*
G01*
X139374000Y-87791000D02*
X139174000Y-87791000D01*
G75*
G02*
X139074000Y-87691000I0J100000D01*
G01*
X139074000Y-86416000D01*
G75*
G02*
X139174000Y-86316000I100000J0D01*
G01*
X139374000Y-86316000D01*
G75*
G02*
X139474000Y-86416000I0J-100000D01*
G01*
X139474000Y-87691000D01*
G75*
G02*
X139374000Y-87791000I-100000J0D01*
G01*
G37*
%TD.AperFunction*%
%TO.P,U6,13*%
%TO.N,Net-(U6-Pad13)*%
%TA.AperFunction,SMDPad,CuDef*%
G36*
G01*
X140024000Y-87791000D02*
X139824000Y-87791000D01*
G75*
G02*
X139724000Y-87691000I0J100000D01*
G01*
X139724000Y-86416000D01*
G75*
G02*
X139824000Y-86316000I100000J0D01*
G01*
X140024000Y-86316000D01*
G75*
G02*
X140124000Y-86416000I0J-100000D01*
G01*
X140124000Y-87691000D01*
G75*
G02*
X140024000Y-87791000I-100000J0D01*
G01*
G37*
%TD.AperFunction*%
%TO.P,U6,12*%
%TO.N,Net-(U6-Pad12)*%
%TA.AperFunction,SMDPad,CuDef*%
G36*
G01*
X140674000Y-87791000D02*
X140474000Y-87791000D01*
G75*
G02*
X140374000Y-87691000I0J100000D01*
G01*
X140374000Y-86416000D01*
G75*
G02*
X140474000Y-86316000I100000J0D01*
G01*
X140674000Y-86316000D01*
G75*
G02*
X140774000Y-86416000I0J-100000D01*
G01*
X140774000Y-87691000D01*
G75*
G02*
X140674000Y-87791000I-100000J0D01*
G01*
G37*
%TD.AperFunction*%
%TO.P,U6,11*%
%TO.N,Net-(U6-Pad11)*%
%TA.AperFunction,SMDPad,CuDef*%
G36*
G01*
X141324000Y-87791000D02*
X141124000Y-87791000D01*
G75*
G02*
X141024000Y-87691000I0J100000D01*
G01*
X141024000Y-86416000D01*
G75*
G02*
X141124000Y-86316000I100000J0D01*
G01*
X141324000Y-86316000D01*
G75*
G02*
X141424000Y-86416000I0J-100000D01*
G01*
X141424000Y-87691000D01*
G75*
G02*
X141324000Y-87791000I-100000J0D01*
G01*
G37*
%TD.AperFunction*%
%TO.P,U6,10*%
%TO.N,SF<>OF*%
%TA.AperFunction,SMDPad,CuDef*%
G36*
G01*
X141974000Y-87791000D02*
X141774000Y-87791000D01*
G75*
G02*
X141674000Y-87691000I0J100000D01*
G01*
X141674000Y-86416000D01*
G75*
G02*
X141774000Y-86316000I100000J0D01*
G01*
X141974000Y-86316000D01*
G75*
G02*
X142074000Y-86416000I0J-100000D01*
G01*
X142074000Y-87691000D01*
G75*
G02*
X141974000Y-87791000I-100000J0D01*
G01*
G37*
%TD.AperFunction*%
%TO.P,U6,9*%
%TO.N,ZERO_FLAG*%
%TA.AperFunction,SMDPad,CuDef*%
G36*
G01*
X142624000Y-87791000D02*
X142424000Y-87791000D01*
G75*
G02*
X142324000Y-87691000I0J100000D01*
G01*
X142324000Y-86416000D01*
G75*
G02*
X142424000Y-86316000I100000J0D01*
G01*
X142624000Y-86316000D01*
G75*
G02*
X142724000Y-86416000I0J-100000D01*
G01*
X142724000Y-87691000D01*
G75*
G02*
X142624000Y-87791000I-100000J0D01*
G01*
G37*
%TD.AperFunction*%
%TO.P,U6,8*%
%TO.N,Net-(U10-Pad10)*%
%TA.AperFunction,SMDPad,CuDef*%
G36*
G01*
X143274000Y-87791000D02*
X143074000Y-87791000D01*
G75*
G02*
X142974000Y-87691000I0J100000D01*
G01*
X142974000Y-86416000D01*
G75*
G02*
X143074000Y-86316000I100000J0D01*
G01*
X143274000Y-86316000D01*
G75*
G02*
X143374000Y-86416000I0J-100000D01*
G01*
X143374000Y-87691000D01*
G75*
G02*
X143274000Y-87791000I-100000J0D01*
G01*
G37*
%TD.AperFunction*%
%TO.P,U6,7*%
%TO.N,GND*%
%TA.AperFunction,SMDPad,CuDef*%
G36*
G01*
X143274000Y-93516000D02*
X143074000Y-93516000D01*
G75*
G02*
X142974000Y-93416000I0J100000D01*
G01*
X142974000Y-92141000D01*
G75*
G02*
X143074000Y-92041000I100000J0D01*
G01*
X143274000Y-92041000D01*
G75*
G02*
X143374000Y-92141000I0J-100000D01*
G01*
X143374000Y-93416000D01*
G75*
G02*
X143274000Y-93516000I-100000J0D01*
G01*
G37*
%TD.AperFunction*%
%TO.P,U6,6*%
%TO.N,Net-(U6-Pad6)*%
%TA.AperFunction,SMDPad,CuDef*%
G36*
G01*
X142624000Y-93516000D02*
X142424000Y-93516000D01*
G75*
G02*
X142324000Y-93416000I0J100000D01*
G01*
X142324000Y-92141000D01*
G75*
G02*
X142424000Y-92041000I100000J0D01*
G01*
X142624000Y-92041000D01*
G75*
G02*
X142724000Y-92141000I0J-100000D01*
G01*
X142724000Y-93416000D01*
G75*
G02*
X142624000Y-93516000I-100000J0D01*
G01*
G37*
%TD.AperFunction*%
%TO.P,U6,5*%
%TO.N,Net-(U5-Pad8)*%
%TA.AperFunction,SMDPad,CuDef*%
G36*
G01*
X141974000Y-93516000D02*
X141774000Y-93516000D01*
G75*
G02*
X141674000Y-93416000I0J100000D01*
G01*
X141674000Y-92141000D01*
G75*
G02*
X141774000Y-92041000I100000J0D01*
G01*
X141974000Y-92041000D01*
G75*
G02*
X142074000Y-92141000I0J-100000D01*
G01*
X142074000Y-93416000D01*
G75*
G02*
X141974000Y-93516000I-100000J0D01*
G01*
G37*
%TD.AperFunction*%
%TO.P,U6,4*%
%TO.N,Net-(U5-Pad6)*%
%TA.AperFunction,SMDPad,CuDef*%
G36*
G01*
X141324000Y-93516000D02*
X141124000Y-93516000D01*
G75*
G02*
X141024000Y-93416000I0J100000D01*
G01*
X141024000Y-92141000D01*
G75*
G02*
X141124000Y-92041000I100000J0D01*
G01*
X141324000Y-92041000D01*
G75*
G02*
X141424000Y-92141000I0J-100000D01*
G01*
X141424000Y-93416000D01*
G75*
G02*
X141324000Y-93516000I-100000J0D01*
G01*
G37*
%TD.AperFunction*%
%TO.P,U6,3*%
%TO.N,Net-(U10-Pad2)*%
%TA.AperFunction,SMDPad,CuDef*%
G36*
G01*
X140674000Y-93516000D02*
X140474000Y-93516000D01*
G75*
G02*
X140374000Y-93416000I0J100000D01*
G01*
X140374000Y-92141000D01*
G75*
G02*
X140474000Y-92041000I100000J0D01*
G01*
X140674000Y-92041000D01*
G75*
G02*
X140774000Y-92141000I0J-100000D01*
G01*
X140774000Y-93416000D01*
G75*
G02*
X140674000Y-93516000I-100000J0D01*
G01*
G37*
%TD.AperFunction*%
%TO.P,U6,2*%
%TO.N,ZERO_FLAG*%
%TA.AperFunction,SMDPad,CuDef*%
G36*
G01*
X140024000Y-93516000D02*
X139824000Y-93516000D01*
G75*
G02*
X139724000Y-93416000I0J100000D01*
G01*
X139724000Y-92141000D01*
G75*
G02*
X139824000Y-92041000I100000J0D01*
G01*
X140024000Y-92041000D01*
G75*
G02*
X140124000Y-92141000I0J-100000D01*
G01*
X140124000Y-93416000D01*
G75*
G02*
X140024000Y-93516000I-100000J0D01*
G01*
G37*
%TD.AperFunction*%
%TO.P,U6,1*%
%TO.N,CARRY_FLAG*%
%TA.AperFunction,SMDPad,CuDef*%
G36*
G01*
X139374000Y-93516000D02*
X139174000Y-93516000D01*
G75*
G02*
X139074000Y-93416000I0J100000D01*
G01*
X139074000Y-92141000D01*
G75*
G02*
X139174000Y-92041000I100000J0D01*
G01*
X139374000Y-92041000D01*
G75*
G02*
X139474000Y-92141000I0J-100000D01*
G01*
X139474000Y-93416000D01*
G75*
G02*
X139374000Y-93516000I-100000J0D01*
G01*
G37*
%TD.AperFunction*%
%TD*%
%TO.P,U5,14*%
%TO.N,VCC*%
%TA.AperFunction,SMDPad,CuDef*%
G36*
G01*
X128960000Y-87791000D02*
X128760000Y-87791000D01*
G75*
G02*
X128660000Y-87691000I0J100000D01*
G01*
X128660000Y-86416000D01*
G75*
G02*
X128760000Y-86316000I100000J0D01*
G01*
X128960000Y-86316000D01*
G75*
G02*
X129060000Y-86416000I0J-100000D01*
G01*
X129060000Y-87691000D01*
G75*
G02*
X128960000Y-87791000I-100000J0D01*
G01*
G37*
%TD.AperFunction*%
%TO.P,U5,13*%
%TO.N,~JG_JNLE*%
%TA.AperFunction,SMDPad,CuDef*%
G36*
G01*
X129610000Y-87791000D02*
X129410000Y-87791000D01*
G75*
G02*
X129310000Y-87691000I0J100000D01*
G01*
X129310000Y-86416000D01*
G75*
G02*
X129410000Y-86316000I100000J0D01*
G01*
X129610000Y-86316000D01*
G75*
G02*
X129710000Y-86416000I0J-100000D01*
G01*
X129710000Y-87691000D01*
G75*
G02*
X129610000Y-87791000I-100000J0D01*
G01*
G37*
%TD.AperFunction*%
%TO.P,U5,12*%
%TO.N,Net-(U11-Pad4)*%
%TA.AperFunction,SMDPad,CuDef*%
G36*
G01*
X130260000Y-87791000D02*
X130060000Y-87791000D01*
G75*
G02*
X129960000Y-87691000I0J100000D01*
G01*
X129960000Y-86416000D01*
G75*
G02*
X130060000Y-86316000I100000J0D01*
G01*
X130260000Y-86316000D01*
G75*
G02*
X130360000Y-86416000I0J-100000D01*
G01*
X130360000Y-87691000D01*
G75*
G02*
X130260000Y-87791000I-100000J0D01*
G01*
G37*
%TD.AperFunction*%
%TO.P,U5,11*%
%TO.N,~JL_JNGE*%
%TA.AperFunction,SMDPad,CuDef*%
G36*
G01*
X130910000Y-87791000D02*
X130710000Y-87791000D01*
G75*
G02*
X130610000Y-87691000I0J100000D01*
G01*
X130610000Y-86416000D01*
G75*
G02*
X130710000Y-86316000I100000J0D01*
G01*
X130910000Y-86316000D01*
G75*
G02*
X131010000Y-86416000I0J-100000D01*
G01*
X131010000Y-87691000D01*
G75*
G02*
X130910000Y-87791000I-100000J0D01*
G01*
G37*
%TD.AperFunction*%
%TO.P,U5,10*%
%TO.N,Net-(U5-Pad10)*%
%TA.AperFunction,SMDPad,CuDef*%
G36*
G01*
X131560000Y-87791000D02*
X131360000Y-87791000D01*
G75*
G02*
X131260000Y-87691000I0J100000D01*
G01*
X131260000Y-86416000D01*
G75*
G02*
X131360000Y-86316000I100000J0D01*
G01*
X131560000Y-86316000D01*
G75*
G02*
X131660000Y-86416000I0J-100000D01*
G01*
X131660000Y-87691000D01*
G75*
G02*
X131560000Y-87791000I-100000J0D01*
G01*
G37*
%TD.AperFunction*%
%TO.P,U5,9*%
%TO.N,ZERO_FLAG*%
%TA.AperFunction,SMDPad,CuDef*%
G36*
G01*
X132210000Y-87791000D02*
X132010000Y-87791000D01*
G75*
G02*
X131910000Y-87691000I0J100000D01*
G01*
X131910000Y-86416000D01*
G75*
G02*
X132010000Y-86316000I100000J0D01*
G01*
X132210000Y-86316000D01*
G75*
G02*
X132310000Y-86416000I0J-100000D01*
G01*
X132310000Y-87691000D01*
G75*
G02*
X132210000Y-87791000I-100000J0D01*
G01*
G37*
%TD.AperFunction*%
%TO.P,U5,8*%
%TO.N,Net-(U5-Pad8)*%
%TA.AperFunction,SMDPad,CuDef*%
G36*
G01*
X132860000Y-87791000D02*
X132660000Y-87791000D01*
G75*
G02*
X132560000Y-87691000I0J100000D01*
G01*
X132560000Y-86416000D01*
G75*
G02*
X132660000Y-86316000I100000J0D01*
G01*
X132860000Y-86316000D01*
G75*
G02*
X132960000Y-86416000I0J-100000D01*
G01*
X132960000Y-87691000D01*
G75*
G02*
X132860000Y-87791000I-100000J0D01*
G01*
G37*
%TD.AperFunction*%
%TO.P,U5,7*%
%TO.N,GND*%
%TA.AperFunction,SMDPad,CuDef*%
G36*
G01*
X132860000Y-93516000D02*
X132660000Y-93516000D01*
G75*
G02*
X132560000Y-93416000I0J100000D01*
G01*
X132560000Y-92141000D01*
G75*
G02*
X132660000Y-92041000I100000J0D01*
G01*
X132860000Y-92041000D01*
G75*
G02*
X132960000Y-92141000I0J-100000D01*
G01*
X132960000Y-93416000D01*
G75*
G02*
X132860000Y-93516000I-100000J0D01*
G01*
G37*
%TD.AperFunction*%
%TO.P,U5,6*%
%TO.N,Net-(U5-Pad6)*%
%TA.AperFunction,SMDPad,CuDef*%
G36*
G01*
X132210000Y-93516000D02*
X132010000Y-93516000D01*
G75*
G02*
X131910000Y-93416000I0J100000D01*
G01*
X131910000Y-92141000D01*
G75*
G02*
X132010000Y-92041000I100000J0D01*
G01*
X132210000Y-92041000D01*
G75*
G02*
X132310000Y-92141000I0J-100000D01*
G01*
X132310000Y-93416000D01*
G75*
G02*
X132210000Y-93516000I-100000J0D01*
G01*
G37*
%TD.AperFunction*%
%TO.P,U5,5*%
%TO.N,CARRY_FLAG*%
%TA.AperFunction,SMDPad,CuDef*%
G36*
G01*
X131560000Y-93516000D02*
X131360000Y-93516000D01*
G75*
G02*
X131260000Y-93416000I0J100000D01*
G01*
X131260000Y-92141000D01*
G75*
G02*
X131360000Y-92041000I100000J0D01*
G01*
X131560000Y-92041000D01*
G75*
G02*
X131660000Y-92141000I0J-100000D01*
G01*
X131660000Y-93416000D01*
G75*
G02*
X131560000Y-93516000I-100000J0D01*
G01*
G37*
%TD.AperFunction*%
%TO.P,U5,4*%
%TO.N,Net-(U5-Pad4)*%
%TA.AperFunction,SMDPad,CuDef*%
G36*
G01*
X130910000Y-93516000D02*
X130710000Y-93516000D01*
G75*
G02*
X130610000Y-93416000I0J100000D01*
G01*
X130610000Y-92141000D01*
G75*
G02*
X130710000Y-92041000I100000J0D01*
G01*
X130910000Y-92041000D01*
G75*
G02*
X131010000Y-92141000I0J-100000D01*
G01*
X131010000Y-93416000D01*
G75*
G02*
X130910000Y-93516000I-100000J0D01*
G01*
G37*
%TD.AperFunction*%
%TO.P,U5,3*%
%TO.N,~JA_JNBE*%
%TA.AperFunction,SMDPad,CuDef*%
G36*
G01*
X130260000Y-93516000D02*
X130060000Y-93516000D01*
G75*
G02*
X129960000Y-93416000I0J100000D01*
G01*
X129960000Y-92141000D01*
G75*
G02*
X130060000Y-92041000I100000J0D01*
G01*
X130260000Y-92041000D01*
G75*
G02*
X130360000Y-92141000I0J-100000D01*
G01*
X130360000Y-93416000D01*
G75*
G02*
X130260000Y-93516000I-100000J0D01*
G01*
G37*
%TD.AperFunction*%
%TO.P,U5,2*%
%TO.N,Net-(U10-Pad1)*%
%TA.AperFunction,SMDPad,CuDef*%
G36*
G01*
X129610000Y-93516000D02*
X129410000Y-93516000D01*
G75*
G02*
X129310000Y-93416000I0J100000D01*
G01*
X129310000Y-92141000D01*
G75*
G02*
X129410000Y-92041000I100000J0D01*
G01*
X129610000Y-92041000D01*
G75*
G02*
X129710000Y-92141000I0J-100000D01*
G01*
X129710000Y-93416000D01*
G75*
G02*
X129610000Y-93516000I-100000J0D01*
G01*
G37*
%TD.AperFunction*%
%TO.P,U5,1*%
%TO.N,~JBE_JNA*%
%TA.AperFunction,SMDPad,CuDef*%
G36*
G01*
X128960000Y-93516000D02*
X128760000Y-93516000D01*
G75*
G02*
X128660000Y-93416000I0J100000D01*
G01*
X128660000Y-92141000D01*
G75*
G02*
X128760000Y-92041000I100000J0D01*
G01*
X128960000Y-92041000D01*
G75*
G02*
X129060000Y-92141000I0J-100000D01*
G01*
X129060000Y-93416000D01*
G75*
G02*
X128960000Y-93516000I-100000J0D01*
G01*
G37*
%TD.AperFunction*%
%TD*%
%TO.P,U4,14*%
%TO.N,VCC*%
%TA.AperFunction,SMDPad,CuDef*%
G36*
G01*
X119308000Y-87791000D02*
X119108000Y-87791000D01*
G75*
G02*
X119008000Y-87691000I0J100000D01*
G01*
X119008000Y-86416000D01*
G75*
G02*
X119108000Y-86316000I100000J0D01*
G01*
X119308000Y-86316000D01*
G75*
G02*
X119408000Y-86416000I0J-100000D01*
G01*
X119408000Y-87691000D01*
G75*
G02*
X119308000Y-87791000I-100000J0D01*
G01*
G37*
%TD.AperFunction*%
%TO.P,U4,13*%
%TO.N,Net-(U3-Pad10)*%
%TA.AperFunction,SMDPad,CuDef*%
G36*
G01*
X119958000Y-87791000D02*
X119758000Y-87791000D01*
G75*
G02*
X119658000Y-87691000I0J100000D01*
G01*
X119658000Y-86416000D01*
G75*
G02*
X119758000Y-86316000I100000J0D01*
G01*
X119958000Y-86316000D01*
G75*
G02*
X120058000Y-86416000I0J-100000D01*
G01*
X120058000Y-87691000D01*
G75*
G02*
X119958000Y-87791000I-100000J0D01*
G01*
G37*
%TD.AperFunction*%
%TO.P,U4,12*%
%TO.N,Net-(U3-Pad12)*%
%TA.AperFunction,SMDPad,CuDef*%
G36*
G01*
X120608000Y-87791000D02*
X120408000Y-87791000D01*
G75*
G02*
X120308000Y-87691000I0J100000D01*
G01*
X120308000Y-86416000D01*
G75*
G02*
X120408000Y-86316000I100000J0D01*
G01*
X120608000Y-86316000D01*
G75*
G02*
X120708000Y-86416000I0J-100000D01*
G01*
X120708000Y-87691000D01*
G75*
G02*
X120608000Y-87791000I-100000J0D01*
G01*
G37*
%TD.AperFunction*%
%TO.P,U4,11*%
%TO.N,OR_JNB_JAE_JNC*%
%TA.AperFunction,SMDPad,CuDef*%
G36*
G01*
X121258000Y-87791000D02*
X121058000Y-87791000D01*
G75*
G02*
X120958000Y-87691000I0J100000D01*
G01*
X120958000Y-86416000D01*
G75*
G02*
X121058000Y-86316000I100000J0D01*
G01*
X121258000Y-86316000D01*
G75*
G02*
X121358000Y-86416000I0J-100000D01*
G01*
X121358000Y-87691000D01*
G75*
G02*
X121258000Y-87791000I-100000J0D01*
G01*
G37*
%TD.AperFunction*%
%TO.P,U4,10*%
%TO.N,CARRY_FLAG*%
%TA.AperFunction,SMDPad,CuDef*%
G36*
G01*
X121908000Y-87791000D02*
X121708000Y-87791000D01*
G75*
G02*
X121608000Y-87691000I0J100000D01*
G01*
X121608000Y-86416000D01*
G75*
G02*
X121708000Y-86316000I100000J0D01*
G01*
X121908000Y-86316000D01*
G75*
G02*
X122008000Y-86416000I0J-100000D01*
G01*
X122008000Y-87691000D01*
G75*
G02*
X121908000Y-87791000I-100000J0D01*
G01*
G37*
%TD.AperFunction*%
%TO.P,U4,9*%
%TO.N,Net-(U3-Pad8)*%
%TA.AperFunction,SMDPad,CuDef*%
G36*
G01*
X122558000Y-87791000D02*
X122358000Y-87791000D01*
G75*
G02*
X122258000Y-87691000I0J100000D01*
G01*
X122258000Y-86416000D01*
G75*
G02*
X122358000Y-86316000I100000J0D01*
G01*
X122558000Y-86316000D01*
G75*
G02*
X122658000Y-86416000I0J-100000D01*
G01*
X122658000Y-87691000D01*
G75*
G02*
X122558000Y-87791000I-100000J0D01*
G01*
G37*
%TD.AperFunction*%
%TO.P,U4,8*%
%TO.N,OR_JB_JNAE_JC*%
%TA.AperFunction,SMDPad,CuDef*%
G36*
G01*
X123208000Y-87791000D02*
X123008000Y-87791000D01*
G75*
G02*
X122908000Y-87691000I0J100000D01*
G01*
X122908000Y-86416000D01*
G75*
G02*
X123008000Y-86316000I100000J0D01*
G01*
X123208000Y-86316000D01*
G75*
G02*
X123308000Y-86416000I0J-100000D01*
G01*
X123308000Y-87691000D01*
G75*
G02*
X123208000Y-87791000I-100000J0D01*
G01*
G37*
%TD.AperFunction*%
%TO.P,U4,7*%
%TO.N,GND*%
%TA.AperFunction,SMDPad,CuDef*%
G36*
G01*
X123208000Y-93516000D02*
X123008000Y-93516000D01*
G75*
G02*
X122908000Y-93416000I0J100000D01*
G01*
X122908000Y-92141000D01*
G75*
G02*
X123008000Y-92041000I100000J0D01*
G01*
X123208000Y-92041000D01*
G75*
G02*
X123308000Y-92141000I0J-100000D01*
G01*
X123308000Y-93416000D01*
G75*
G02*
X123208000Y-93516000I-100000J0D01*
G01*
G37*
%TD.AperFunction*%
%TO.P,U4,6*%
%TO.N,OR_JNE_JNZ*%
%TA.AperFunction,SMDPad,CuDef*%
G36*
G01*
X122558000Y-93516000D02*
X122358000Y-93516000D01*
G75*
G02*
X122258000Y-93416000I0J100000D01*
G01*
X122258000Y-92141000D01*
G75*
G02*
X122358000Y-92041000I100000J0D01*
G01*
X122558000Y-92041000D01*
G75*
G02*
X122658000Y-92141000I0J-100000D01*
G01*
X122658000Y-93416000D01*
G75*
G02*
X122558000Y-93516000I-100000J0D01*
G01*
G37*
%TD.AperFunction*%
%TO.P,U4,5*%
%TO.N,Net-(U3-Pad6)*%
%TA.AperFunction,SMDPad,CuDef*%
G36*
G01*
X121908000Y-93516000D02*
X121708000Y-93516000D01*
G75*
G02*
X121608000Y-93416000I0J100000D01*
G01*
X121608000Y-92141000D01*
G75*
G02*
X121708000Y-92041000I100000J0D01*
G01*
X121908000Y-92041000D01*
G75*
G02*
X122008000Y-92141000I0J-100000D01*
G01*
X122008000Y-93416000D01*
G75*
G02*
X121908000Y-93516000I-100000J0D01*
G01*
G37*
%TD.AperFunction*%
%TO.P,U4,4*%
%TO.N,Net-(U3-Pad4)*%
%TA.AperFunction,SMDPad,CuDef*%
G36*
G01*
X121258000Y-93516000D02*
X121058000Y-93516000D01*
G75*
G02*
X120958000Y-93416000I0J100000D01*
G01*
X120958000Y-92141000D01*
G75*
G02*
X121058000Y-92041000I100000J0D01*
G01*
X121258000Y-92041000D01*
G75*
G02*
X121358000Y-92141000I0J-100000D01*
G01*
X121358000Y-93416000D01*
G75*
G02*
X121258000Y-93516000I-100000J0D01*
G01*
G37*
%TD.AperFunction*%
%TO.P,U4,3*%
%TO.N,OR_JE_JZ*%
%TA.AperFunction,SMDPad,CuDef*%
G36*
G01*
X120608000Y-93516000D02*
X120408000Y-93516000D01*
G75*
G02*
X120308000Y-93416000I0J100000D01*
G01*
X120308000Y-92141000D01*
G75*
G02*
X120408000Y-92041000I100000J0D01*
G01*
X120608000Y-92041000D01*
G75*
G02*
X120708000Y-92141000I0J-100000D01*
G01*
X120708000Y-93416000D01*
G75*
G02*
X120608000Y-93516000I-100000J0D01*
G01*
G37*
%TD.AperFunction*%
%TO.P,U4,2*%
%TO.N,ZERO_FLAG*%
%TA.AperFunction,SMDPad,CuDef*%
G36*
G01*
X119958000Y-93516000D02*
X119758000Y-93516000D01*
G75*
G02*
X119658000Y-93416000I0J100000D01*
G01*
X119658000Y-92141000D01*
G75*
G02*
X119758000Y-92041000I100000J0D01*
G01*
X119958000Y-92041000D01*
G75*
G02*
X120058000Y-92141000I0J-100000D01*
G01*
X120058000Y-93416000D01*
G75*
G02*
X119958000Y-93516000I-100000J0D01*
G01*
G37*
%TD.AperFunction*%
%TO.P,U4,1*%
%TO.N,Net-(U3-Pad2)*%
%TA.AperFunction,SMDPad,CuDef*%
G36*
G01*
X119308000Y-93516000D02*
X119108000Y-93516000D01*
G75*
G02*
X119008000Y-93416000I0J100000D01*
G01*
X119008000Y-92141000D01*
G75*
G02*
X119108000Y-92041000I100000J0D01*
G01*
X119308000Y-92041000D01*
G75*
G02*
X119408000Y-92141000I0J-100000D01*
G01*
X119408000Y-93416000D01*
G75*
G02*
X119308000Y-93516000I-100000J0D01*
G01*
G37*
%TD.AperFunction*%
%TD*%
%TO.P,U3,14*%
%TO.N,VCC*%
%TA.AperFunction,SMDPad,CuDef*%
G36*
G01*
X109656000Y-87791000D02*
X109456000Y-87791000D01*
G75*
G02*
X109356000Y-87691000I0J100000D01*
G01*
X109356000Y-86416000D01*
G75*
G02*
X109456000Y-86316000I100000J0D01*
G01*
X109656000Y-86316000D01*
G75*
G02*
X109756000Y-86416000I0J-100000D01*
G01*
X109756000Y-87691000D01*
G75*
G02*
X109656000Y-87791000I-100000J0D01*
G01*
G37*
%TD.AperFunction*%
%TO.P,U3,13*%
%TO.N,~JNB_JAE_JNC*%
%TA.AperFunction,SMDPad,CuDef*%
G36*
G01*
X110306000Y-87791000D02*
X110106000Y-87791000D01*
G75*
G02*
X110006000Y-87691000I0J100000D01*
G01*
X110006000Y-86416000D01*
G75*
G02*
X110106000Y-86316000I100000J0D01*
G01*
X110306000Y-86316000D01*
G75*
G02*
X110406000Y-86416000I0J-100000D01*
G01*
X110406000Y-87691000D01*
G75*
G02*
X110306000Y-87791000I-100000J0D01*
G01*
G37*
%TD.AperFunction*%
%TO.P,U3,12*%
%TO.N,Net-(U3-Pad12)*%
%TA.AperFunction,SMDPad,CuDef*%
G36*
G01*
X110956000Y-87791000D02*
X110756000Y-87791000D01*
G75*
G02*
X110656000Y-87691000I0J100000D01*
G01*
X110656000Y-86416000D01*
G75*
G02*
X110756000Y-86316000I100000J0D01*
G01*
X110956000Y-86316000D01*
G75*
G02*
X111056000Y-86416000I0J-100000D01*
G01*
X111056000Y-87691000D01*
G75*
G02*
X110956000Y-87791000I-100000J0D01*
G01*
G37*
%TD.AperFunction*%
%TO.P,U3,11*%
%TO.N,CARRY_FLAG*%
%TA.AperFunction,SMDPad,CuDef*%
G36*
G01*
X111606000Y-87791000D02*
X111406000Y-87791000D01*
G75*
G02*
X111306000Y-87691000I0J100000D01*
G01*
X111306000Y-86416000D01*
G75*
G02*
X111406000Y-86316000I100000J0D01*
G01*
X111606000Y-86316000D01*
G75*
G02*
X111706000Y-86416000I0J-100000D01*
G01*
X111706000Y-87691000D01*
G75*
G02*
X111606000Y-87791000I-100000J0D01*
G01*
G37*
%TD.AperFunction*%
%TO.P,U3,10*%
%TO.N,Net-(U3-Pad10)*%
%TA.AperFunction,SMDPad,CuDef*%
G36*
G01*
X112256000Y-87791000D02*
X112056000Y-87791000D01*
G75*
G02*
X111956000Y-87691000I0J100000D01*
G01*
X111956000Y-86416000D01*
G75*
G02*
X112056000Y-86316000I100000J0D01*
G01*
X112256000Y-86316000D01*
G75*
G02*
X112356000Y-86416000I0J-100000D01*
G01*
X112356000Y-87691000D01*
G75*
G02*
X112256000Y-87791000I-100000J0D01*
G01*
G37*
%TD.AperFunction*%
%TO.P,U3,9*%
%TO.N,~JB_JNAE_JC*%
%TA.AperFunction,SMDPad,CuDef*%
G36*
G01*
X112906000Y-87791000D02*
X112706000Y-87791000D01*
G75*
G02*
X112606000Y-87691000I0J100000D01*
G01*
X112606000Y-86416000D01*
G75*
G02*
X112706000Y-86316000I100000J0D01*
G01*
X112906000Y-86316000D01*
G75*
G02*
X113006000Y-86416000I0J-100000D01*
G01*
X113006000Y-87691000D01*
G75*
G02*
X112906000Y-87791000I-100000J0D01*
G01*
G37*
%TD.AperFunction*%
%TO.P,U3,8*%
%TO.N,Net-(U3-Pad8)*%
%TA.AperFunction,SMDPad,CuDef*%
G36*
G01*
X113556000Y-87791000D02*
X113356000Y-87791000D01*
G75*
G02*
X113256000Y-87691000I0J100000D01*
G01*
X113256000Y-86416000D01*
G75*
G02*
X113356000Y-86316000I100000J0D01*
G01*
X113556000Y-86316000D01*
G75*
G02*
X113656000Y-86416000I0J-100000D01*
G01*
X113656000Y-87691000D01*
G75*
G02*
X113556000Y-87791000I-100000J0D01*
G01*
G37*
%TD.AperFunction*%
%TO.P,U3,7*%
%TO.N,GND*%
%TA.AperFunction,SMDPad,CuDef*%
G36*
G01*
X113556000Y-93516000D02*
X113356000Y-93516000D01*
G75*
G02*
X113256000Y-93416000I0J100000D01*
G01*
X113256000Y-92141000D01*
G75*
G02*
X113356000Y-92041000I100000J0D01*
G01*
X113556000Y-92041000D01*
G75*
G02*
X113656000Y-92141000I0J-100000D01*
G01*
X113656000Y-93416000D01*
G75*
G02*
X113556000Y-93516000I-100000J0D01*
G01*
G37*
%TD.AperFunction*%
%TO.P,U3,6*%
%TO.N,Net-(U3-Pad6)*%
%TA.AperFunction,SMDPad,CuDef*%
G36*
G01*
X112906000Y-93516000D02*
X112706000Y-93516000D01*
G75*
G02*
X112606000Y-93416000I0J100000D01*
G01*
X112606000Y-92141000D01*
G75*
G02*
X112706000Y-92041000I100000J0D01*
G01*
X112906000Y-92041000D01*
G75*
G02*
X113006000Y-92141000I0J-100000D01*
G01*
X113006000Y-93416000D01*
G75*
G02*
X112906000Y-93516000I-100000J0D01*
G01*
G37*
%TD.AperFunction*%
%TO.P,U3,5*%
%TO.N,ZERO_FLAG*%
%TA.AperFunction,SMDPad,CuDef*%
G36*
G01*
X112256000Y-93516000D02*
X112056000Y-93516000D01*
G75*
G02*
X111956000Y-93416000I0J100000D01*
G01*
X111956000Y-92141000D01*
G75*
G02*
X112056000Y-92041000I100000J0D01*
G01*
X112256000Y-92041000D01*
G75*
G02*
X112356000Y-92141000I0J-100000D01*
G01*
X112356000Y-93416000D01*
G75*
G02*
X112256000Y-93516000I-100000J0D01*
G01*
G37*
%TD.AperFunction*%
%TO.P,U3,4*%
%TO.N,Net-(U3-Pad4)*%
%TA.AperFunction,SMDPad,CuDef*%
G36*
G01*
X111606000Y-93516000D02*
X111406000Y-93516000D01*
G75*
G02*
X111306000Y-93416000I0J100000D01*
G01*
X111306000Y-92141000D01*
G75*
G02*
X111406000Y-92041000I100000J0D01*
G01*
X111606000Y-92041000D01*
G75*
G02*
X111706000Y-92141000I0J-100000D01*
G01*
X111706000Y-93416000D01*
G75*
G02*
X111606000Y-93516000I-100000J0D01*
G01*
G37*
%TD.AperFunction*%
%TO.P,U3,3*%
%TO.N,~JNE_JNZ*%
%TA.AperFunction,SMDPad,CuDef*%
G36*
G01*
X110956000Y-93516000D02*
X110756000Y-93516000D01*
G75*
G02*
X110656000Y-93416000I0J100000D01*
G01*
X110656000Y-92141000D01*
G75*
G02*
X110756000Y-92041000I100000J0D01*
G01*
X110956000Y-92041000D01*
G75*
G02*
X111056000Y-92141000I0J-100000D01*
G01*
X111056000Y-93416000D01*
G75*
G02*
X110956000Y-93516000I-100000J0D01*
G01*
G37*
%TD.AperFunction*%
%TO.P,U3,2*%
%TO.N,Net-(U3-Pad2)*%
%TA.AperFunction,SMDPad,CuDef*%
G36*
G01*
X110306000Y-93516000D02*
X110106000Y-93516000D01*
G75*
G02*
X110006000Y-93416000I0J100000D01*
G01*
X110006000Y-92141000D01*
G75*
G02*
X110106000Y-92041000I100000J0D01*
G01*
X110306000Y-92041000D01*
G75*
G02*
X110406000Y-92141000I0J-100000D01*
G01*
X110406000Y-93416000D01*
G75*
G02*
X110306000Y-93516000I-100000J0D01*
G01*
G37*
%TD.AperFunction*%
%TO.P,U3,1*%
%TO.N,~JE_JZ*%
%TA.AperFunction,SMDPad,CuDef*%
G36*
G01*
X109656000Y-93516000D02*
X109456000Y-93516000D01*
G75*
G02*
X109356000Y-93416000I0J100000D01*
G01*
X109356000Y-92141000D01*
G75*
G02*
X109456000Y-92041000I100000J0D01*
G01*
X109656000Y-92041000D01*
G75*
G02*
X109756000Y-92141000I0J-100000D01*
G01*
X109756000Y-93416000D01*
G75*
G02*
X109656000Y-93516000I-100000J0D01*
G01*
G37*
%TD.AperFunction*%
%TD*%
%TO.P,U2,14*%
%TO.N,VCC*%
%TA.AperFunction,SMDPad,CuDef*%
G36*
G01*
X99496000Y-87791000D02*
X99296000Y-87791000D01*
G75*
G02*
X99196000Y-87691000I0J100000D01*
G01*
X99196000Y-86416000D01*
G75*
G02*
X99296000Y-86316000I100000J0D01*
G01*
X99496000Y-86316000D01*
G75*
G02*
X99596000Y-86416000I0J-100000D01*
G01*
X99596000Y-87691000D01*
G75*
G02*
X99496000Y-87791000I-100000J0D01*
G01*
G37*
%TD.AperFunction*%
%TO.P,U2,13*%
%TO.N,Net-(U1-Pad12)*%
%TA.AperFunction,SMDPad,CuDef*%
G36*
G01*
X100146000Y-87791000D02*
X99946000Y-87791000D01*
G75*
G02*
X99846000Y-87691000I0J100000D01*
G01*
X99846000Y-86416000D01*
G75*
G02*
X99946000Y-86316000I100000J0D01*
G01*
X100146000Y-86316000D01*
G75*
G02*
X100246000Y-86416000I0J-100000D01*
G01*
X100246000Y-87691000D01*
G75*
G02*
X100146000Y-87791000I-100000J0D01*
G01*
G37*
%TD.AperFunction*%
%TO.P,U2,12*%
%TO.N,Net-(U1-Pad10)*%
%TA.AperFunction,SMDPad,CuDef*%
G36*
G01*
X100796000Y-87791000D02*
X100596000Y-87791000D01*
G75*
G02*
X100496000Y-87691000I0J100000D01*
G01*
X100496000Y-86416000D01*
G75*
G02*
X100596000Y-86316000I100000J0D01*
G01*
X100796000Y-86316000D01*
G75*
G02*
X100896000Y-86416000I0J-100000D01*
G01*
X100896000Y-87691000D01*
G75*
G02*
X100796000Y-87791000I-100000J0D01*
G01*
G37*
%TD.AperFunction*%
%TO.P,U2,11*%
%TO.N,OR_JNS*%
%TA.AperFunction,SMDPad,CuDef*%
G36*
G01*
X101446000Y-87791000D02*
X101246000Y-87791000D01*
G75*
G02*
X101146000Y-87691000I0J100000D01*
G01*
X101146000Y-86416000D01*
G75*
G02*
X101246000Y-86316000I100000J0D01*
G01*
X101446000Y-86316000D01*
G75*
G02*
X101546000Y-86416000I0J-100000D01*
G01*
X101546000Y-87691000D01*
G75*
G02*
X101446000Y-87791000I-100000J0D01*
G01*
G37*
%TD.AperFunction*%
%TO.P,U2,10*%
%TO.N,SIGN_FLAG*%
%TA.AperFunction,SMDPad,CuDef*%
G36*
G01*
X102096000Y-87791000D02*
X101896000Y-87791000D01*
G75*
G02*
X101796000Y-87691000I0J100000D01*
G01*
X101796000Y-86416000D01*
G75*
G02*
X101896000Y-86316000I100000J0D01*
G01*
X102096000Y-86316000D01*
G75*
G02*
X102196000Y-86416000I0J-100000D01*
G01*
X102196000Y-87691000D01*
G75*
G02*
X102096000Y-87791000I-100000J0D01*
G01*
G37*
%TD.AperFunction*%
%TO.P,U2,9*%
%TO.N,Net-(U1-Pad8)*%
%TA.AperFunction,SMDPad,CuDef*%
G36*
G01*
X102746000Y-87791000D02*
X102546000Y-87791000D01*
G75*
G02*
X102446000Y-87691000I0J100000D01*
G01*
X102446000Y-86416000D01*
G75*
G02*
X102546000Y-86316000I100000J0D01*
G01*
X102746000Y-86316000D01*
G75*
G02*
X102846000Y-86416000I0J-100000D01*
G01*
X102846000Y-87691000D01*
G75*
G02*
X102746000Y-87791000I-100000J0D01*
G01*
G37*
%TD.AperFunction*%
%TO.P,U2,8*%
%TO.N,OR_JS*%
%TA.AperFunction,SMDPad,CuDef*%
G36*
G01*
X103396000Y-87791000D02*
X103196000Y-87791000D01*
G75*
G02*
X103096000Y-87691000I0J100000D01*
G01*
X103096000Y-86416000D01*
G75*
G02*
X103196000Y-86316000I100000J0D01*
G01*
X103396000Y-86316000D01*
G75*
G02*
X103496000Y-86416000I0J-100000D01*
G01*
X103496000Y-87691000D01*
G75*
G02*
X103396000Y-87791000I-100000J0D01*
G01*
G37*
%TD.AperFunction*%
%TO.P,U2,7*%
%TO.N,GND*%
%TA.AperFunction,SMDPad,CuDef*%
G36*
G01*
X103396000Y-93516000D02*
X103196000Y-93516000D01*
G75*
G02*
X103096000Y-93416000I0J100000D01*
G01*
X103096000Y-92141000D01*
G75*
G02*
X103196000Y-92041000I100000J0D01*
G01*
X103396000Y-92041000D01*
G75*
G02*
X103496000Y-92141000I0J-100000D01*
G01*
X103496000Y-93416000D01*
G75*
G02*
X103396000Y-93516000I-100000J0D01*
G01*
G37*
%TD.AperFunction*%
%TO.P,U2,6*%
%TO.N,OR_JNO*%
%TA.AperFunction,SMDPad,CuDef*%
G36*
G01*
X102746000Y-93516000D02*
X102546000Y-93516000D01*
G75*
G02*
X102446000Y-93416000I0J100000D01*
G01*
X102446000Y-92141000D01*
G75*
G02*
X102546000Y-92041000I100000J0D01*
G01*
X102746000Y-92041000D01*
G75*
G02*
X102846000Y-92141000I0J-100000D01*
G01*
X102846000Y-93416000D01*
G75*
G02*
X102746000Y-93516000I-100000J0D01*
G01*
G37*
%TD.AperFunction*%
%TO.P,U2,5*%
%TO.N,Net-(U1-Pad6)*%
%TA.AperFunction,SMDPad,CuDef*%
G36*
G01*
X102096000Y-93516000D02*
X101896000Y-93516000D01*
G75*
G02*
X101796000Y-93416000I0J100000D01*
G01*
X101796000Y-92141000D01*
G75*
G02*
X101896000Y-92041000I100000J0D01*
G01*
X102096000Y-92041000D01*
G75*
G02*
X102196000Y-92141000I0J-100000D01*
G01*
X102196000Y-93416000D01*
G75*
G02*
X102096000Y-93516000I-100000J0D01*
G01*
G37*
%TD.AperFunction*%
%TO.P,U2,4*%
%TO.N,Net-(U1-Pad4)*%
%TA.AperFunction,SMDPad,CuDef*%
G36*
G01*
X101446000Y-93516000D02*
X101246000Y-93516000D01*
G75*
G02*
X101146000Y-93416000I0J100000D01*
G01*
X101146000Y-92141000D01*
G75*
G02*
X101246000Y-92041000I100000J0D01*
G01*
X101446000Y-92041000D01*
G75*
G02*
X101546000Y-92141000I0J-100000D01*
G01*
X101546000Y-93416000D01*
G75*
G02*
X101446000Y-93516000I-100000J0D01*
G01*
G37*
%TD.AperFunction*%
%TO.P,U2,3*%
%TO.N,OR_JO*%
%TA.AperFunction,SMDPad,CuDef*%
G36*
G01*
X100796000Y-93516000D02*
X100596000Y-93516000D01*
G75*
G02*
X100496000Y-93416000I0J100000D01*
G01*
X100496000Y-92141000D01*
G75*
G02*
X100596000Y-92041000I100000J0D01*
G01*
X100796000Y-92041000D01*
G75*
G02*
X100896000Y-92141000I0J-100000D01*
G01*
X100896000Y-93416000D01*
G75*
G02*
X100796000Y-93516000I-100000J0D01*
G01*
G37*
%TD.AperFunction*%
%TO.P,U2,2*%
%TO.N,OVERFLOW_FLAG*%
%TA.AperFunction,SMDPad,CuDef*%
G36*
G01*
X100146000Y-93516000D02*
X99946000Y-93516000D01*
G75*
G02*
X99846000Y-93416000I0J100000D01*
G01*
X99846000Y-92141000D01*
G75*
G02*
X99946000Y-92041000I100000J0D01*
G01*
X100146000Y-92041000D01*
G75*
G02*
X100246000Y-92141000I0J-100000D01*
G01*
X100246000Y-93416000D01*
G75*
G02*
X100146000Y-93516000I-100000J0D01*
G01*
G37*
%TD.AperFunction*%
%TO.P,U2,1*%
%TO.N,Net-(U1-Pad2)*%
%TA.AperFunction,SMDPad,CuDef*%
G36*
G01*
X99496000Y-93516000D02*
X99296000Y-93516000D01*
G75*
G02*
X99196000Y-93416000I0J100000D01*
G01*
X99196000Y-92141000D01*
G75*
G02*
X99296000Y-92041000I100000J0D01*
G01*
X99496000Y-92041000D01*
G75*
G02*
X99596000Y-92141000I0J-100000D01*
G01*
X99596000Y-93416000D01*
G75*
G02*
X99496000Y-93516000I-100000J0D01*
G01*
G37*
%TD.AperFunction*%
%TD*%
%TO.P,U1,14*%
%TO.N,VCC*%
%TA.AperFunction,SMDPad,CuDef*%
G36*
G01*
X90098000Y-87725000D02*
X89898000Y-87725000D01*
G75*
G02*
X89798000Y-87625000I0J100000D01*
G01*
X89798000Y-86350000D01*
G75*
G02*
X89898000Y-86250000I100000J0D01*
G01*
X90098000Y-86250000D01*
G75*
G02*
X90198000Y-86350000I0J-100000D01*
G01*
X90198000Y-87625000D01*
G75*
G02*
X90098000Y-87725000I-100000J0D01*
G01*
G37*
%TD.AperFunction*%
%TO.P,U1,13*%
%TO.N,SIGN_FLAG*%
%TA.AperFunction,SMDPad,CuDef*%
G36*
G01*
X90748000Y-87725000D02*
X90548000Y-87725000D01*
G75*
G02*
X90448000Y-87625000I0J100000D01*
G01*
X90448000Y-86350000D01*
G75*
G02*
X90548000Y-86250000I100000J0D01*
G01*
X90748000Y-86250000D01*
G75*
G02*
X90848000Y-86350000I0J-100000D01*
G01*
X90848000Y-87625000D01*
G75*
G02*
X90748000Y-87725000I-100000J0D01*
G01*
G37*
%TD.AperFunction*%
%TO.P,U1,12*%
%TO.N,Net-(U1-Pad12)*%
%TA.AperFunction,SMDPad,CuDef*%
G36*
G01*
X91398000Y-87725000D02*
X91198000Y-87725000D01*
G75*
G02*
X91098000Y-87625000I0J100000D01*
G01*
X91098000Y-86350000D01*
G75*
G02*
X91198000Y-86250000I100000J0D01*
G01*
X91398000Y-86250000D01*
G75*
G02*
X91498000Y-86350000I0J-100000D01*
G01*
X91498000Y-87625000D01*
G75*
G02*
X91398000Y-87725000I-100000J0D01*
G01*
G37*
%TD.AperFunction*%
%TO.P,U1,11*%
%TO.N,~JNS*%
%TA.AperFunction,SMDPad,CuDef*%
G36*
G01*
X92048000Y-87725000D02*
X91848000Y-87725000D01*
G75*
G02*
X91748000Y-87625000I0J100000D01*
G01*
X91748000Y-86350000D01*
G75*
G02*
X91848000Y-86250000I100000J0D01*
G01*
X92048000Y-86250000D01*
G75*
G02*
X92148000Y-86350000I0J-100000D01*
G01*
X92148000Y-87625000D01*
G75*
G02*
X92048000Y-87725000I-100000J0D01*
G01*
G37*
%TD.AperFunction*%
%TO.P,U1,10*%
%TO.N,Net-(U1-Pad10)*%
%TA.AperFunction,SMDPad,CuDef*%
G36*
G01*
X92698000Y-87725000D02*
X92498000Y-87725000D01*
G75*
G02*
X92398000Y-87625000I0J100000D01*
G01*
X92398000Y-86350000D01*
G75*
G02*
X92498000Y-86250000I100000J0D01*
G01*
X92698000Y-86250000D01*
G75*
G02*
X92798000Y-86350000I0J-100000D01*
G01*
X92798000Y-87625000D01*
G75*
G02*
X92698000Y-87725000I-100000J0D01*
G01*
G37*
%TD.AperFunction*%
%TO.P,U1,9*%
%TO.N,~JS*%
%TA.AperFunction,SMDPad,CuDef*%
G36*
G01*
X93348000Y-87725000D02*
X93148000Y-87725000D01*
G75*
G02*
X93048000Y-87625000I0J100000D01*
G01*
X93048000Y-86350000D01*
G75*
G02*
X93148000Y-86250000I100000J0D01*
G01*
X93348000Y-86250000D01*
G75*
G02*
X93448000Y-86350000I0J-100000D01*
G01*
X93448000Y-87625000D01*
G75*
G02*
X93348000Y-87725000I-100000J0D01*
G01*
G37*
%TD.AperFunction*%
%TO.P,U1,8*%
%TO.N,Net-(U1-Pad8)*%
%TA.AperFunction,SMDPad,CuDef*%
G36*
G01*
X93998000Y-87725000D02*
X93798000Y-87725000D01*
G75*
G02*
X93698000Y-87625000I0J100000D01*
G01*
X93698000Y-86350000D01*
G75*
G02*
X93798000Y-86250000I100000J0D01*
G01*
X93998000Y-86250000D01*
G75*
G02*
X94098000Y-86350000I0J-100000D01*
G01*
X94098000Y-87625000D01*
G75*
G02*
X93998000Y-87725000I-100000J0D01*
G01*
G37*
%TD.AperFunction*%
%TO.P,U1,7*%
%TO.N,GND*%
%TA.AperFunction,SMDPad,CuDef*%
G36*
G01*
X93998000Y-93450000D02*
X93798000Y-93450000D01*
G75*
G02*
X93698000Y-93350000I0J100000D01*
G01*
X93698000Y-92075000D01*
G75*
G02*
X93798000Y-91975000I100000J0D01*
G01*
X93998000Y-91975000D01*
G75*
G02*
X94098000Y-92075000I0J-100000D01*
G01*
X94098000Y-93350000D01*
G75*
G02*
X93998000Y-93450000I-100000J0D01*
G01*
G37*
%TD.AperFunction*%
%TO.P,U1,6*%
%TO.N,Net-(U1-Pad6)*%
%TA.AperFunction,SMDPad,CuDef*%
G36*
G01*
X93348000Y-93450000D02*
X93148000Y-93450000D01*
G75*
G02*
X93048000Y-93350000I0J100000D01*
G01*
X93048000Y-92075000D01*
G75*
G02*
X93148000Y-91975000I100000J0D01*
G01*
X93348000Y-91975000D01*
G75*
G02*
X93448000Y-92075000I0J-100000D01*
G01*
X93448000Y-93350000D01*
G75*
G02*
X93348000Y-93450000I-100000J0D01*
G01*
G37*
%TD.AperFunction*%
%TO.P,U1,5*%
%TO.N,OVERFLOW_FLAG*%
%TA.AperFunction,SMDPad,CuDef*%
G36*
G01*
X92698000Y-93450000D02*
X92498000Y-93450000D01*
G75*
G02*
X92398000Y-93350000I0J100000D01*
G01*
X92398000Y-92075000D01*
G75*
G02*
X92498000Y-91975000I100000J0D01*
G01*
X92698000Y-91975000D01*
G75*
G02*
X92798000Y-92075000I0J-100000D01*
G01*
X92798000Y-93350000D01*
G75*
G02*
X92698000Y-93450000I-100000J0D01*
G01*
G37*
%TD.AperFunction*%
%TO.P,U1,4*%
%TO.N,Net-(U1-Pad4)*%
%TA.AperFunction,SMDPad,CuDef*%
G36*
G01*
X92048000Y-93450000D02*
X91848000Y-93450000D01*
G75*
G02*
X91748000Y-93350000I0J100000D01*
G01*
X91748000Y-92075000D01*
G75*
G02*
X91848000Y-91975000I100000J0D01*
G01*
X92048000Y-91975000D01*
G75*
G02*
X92148000Y-92075000I0J-100000D01*
G01*
X92148000Y-93350000D01*
G75*
G02*
X92048000Y-93450000I-100000J0D01*
G01*
G37*
%TD.AperFunction*%
%TO.P,U1,3*%
%TO.N,~JNO*%
%TA.AperFunction,SMDPad,CuDef*%
G36*
G01*
X91398000Y-93450000D02*
X91198000Y-93450000D01*
G75*
G02*
X91098000Y-93350000I0J100000D01*
G01*
X91098000Y-92075000D01*
G75*
G02*
X91198000Y-91975000I100000J0D01*
G01*
X91398000Y-91975000D01*
G75*
G02*
X91498000Y-92075000I0J-100000D01*
G01*
X91498000Y-93350000D01*
G75*
G02*
X91398000Y-93450000I-100000J0D01*
G01*
G37*
%TD.AperFunction*%
%TO.P,U1,2*%
%TO.N,Net-(U1-Pad2)*%
%TA.AperFunction,SMDPad,CuDef*%
G36*
G01*
X90748000Y-93450000D02*
X90548000Y-93450000D01*
G75*
G02*
X90448000Y-93350000I0J100000D01*
G01*
X90448000Y-92075000D01*
G75*
G02*
X90548000Y-91975000I100000J0D01*
G01*
X90748000Y-91975000D01*
G75*
G02*
X90848000Y-92075000I0J-100000D01*
G01*
X90848000Y-93350000D01*
G75*
G02*
X90748000Y-93450000I-100000J0D01*
G01*
G37*
%TD.AperFunction*%
%TO.P,U1,1*%
%TO.N,~JO*%
%TA.AperFunction,SMDPad,CuDef*%
G36*
G01*
X90098000Y-93450000D02*
X89898000Y-93450000D01*
G75*
G02*
X89798000Y-93350000I0J100000D01*
G01*
X89798000Y-92075000D01*
G75*
G02*
X89898000Y-91975000I100000J0D01*
G01*
X90098000Y-91975000D01*
G75*
G02*
X90198000Y-92075000I0J-100000D01*
G01*
X90198000Y-93350000D01*
G75*
G02*
X90098000Y-93450000I-100000J0D01*
G01*
G37*
%TD.AperFunction*%
%TD*%
D11*
%TO.P,J2,18*%
%TO.N,GND*%
X121920000Y-81026000D03*
%TO.P,J2,17*%
%TO.N,VCC*%
X124460000Y-81026000D03*
%TO.P,J2,16*%
%TO.N,~LOAD_PROGRAM_COUNTER_COND*%
X127000000Y-81026000D03*
%TO.P,J2,15*%
%TO.N,~JO*%
X129540000Y-81026000D03*
%TO.P,J2,14*%
%TO.N,~JNO*%
X132080000Y-81026000D03*
%TO.P,J2,13*%
%TO.N,~JS*%
X134620000Y-81026000D03*
%TO.P,J2,12*%
%TO.N,~JNS*%
X137160000Y-81026000D03*
%TO.P,J2,11*%
%TO.N,~JE_JZ*%
X139700000Y-81026000D03*
%TO.P,J2,10*%
%TO.N,~JNE_JNZ*%
X142240000Y-81026000D03*
%TO.P,J2,9*%
%TO.N,~JB_JNAE_JC*%
X144780000Y-81026000D03*
%TO.P,J2,8*%
%TO.N,~JNB_JAE_JNC*%
X147320000Y-81026000D03*
%TO.P,J2,7*%
%TO.N,~JBE_JNA*%
X149860000Y-81026000D03*
%TO.P,J2,6*%
%TO.N,~JA_JNBE*%
X152400000Y-81026000D03*
%TO.P,J2,5*%
%TO.N,~JL_JNGE*%
X154940000Y-81026000D03*
%TO.P,J2,4*%
%TO.N,~JGE_JNL*%
X157480000Y-81026000D03*
%TO.P,J2,3*%
%TO.N,~JG_JNLE*%
X160020000Y-81026000D03*
%TO.P,J2,2*%
%TO.N,~JLE_JNG*%
X162560000Y-81026000D03*
D10*
%TO.P,J2,1*%
%TO.N,~J*%
X165100000Y-81026000D03*
%TD*%
D11*
%TO.P,J1,4*%
%TO.N,CARRY_FLAG*%
X147320000Y-111506000D03*
%TO.P,J1,3*%
%TO.N,SIGN_FLAG*%
X144780000Y-111506000D03*
%TO.P,J1,2*%
%TO.N,ZERO_FLAG*%
X142240000Y-111506000D03*
D10*
%TO.P,J1,1*%
%TO.N,OVERFLOW_FLAG*%
X139700000Y-111506000D03*
%TD*%
D12*
%TO.N,VCC*%
X90932000Y-84836000D03*
X109728000Y-85598000D03*
X127508000Y-86360000D03*
X158564500Y-98229500D03*
X143256000Y-98044000D03*
X127254000Y-98298000D03*
X180408500Y-100769500D03*
X179900500Y-87053500D03*
X171264500Y-87053500D03*
X160088500Y-87053500D03*
X138938000Y-88646000D03*
X99381178Y-85442843D03*
X118110000Y-86628054D03*
X148658500Y-87053500D03*
%TO.N,GND*%
X95247500Y-92712500D03*
X104579500Y-92778500D03*
X114485500Y-92778500D03*
X124137500Y-92778500D03*
X133789500Y-92778500D03*
X144272000Y-92710000D03*
X166809500Y-92778500D03*
X177985500Y-92778500D03*
X186875500Y-106494500D03*
X138111000Y-103567000D03*
X153605000Y-103567000D03*
X165285500Y-103954500D03*
X155671954Y-92967742D03*
X181864000Y-78232000D03*
X186459968Y-92653630D03*
X160678500Y-114704500D03*
X151026500Y-114704500D03*
%TO.N,Net-(U3-Pad6)*%
X117856000Y-92202000D03*
X121666000Y-96012000D03*
%TO.N,Net-(U7-Pad13)*%
X149352000Y-86106000D03*
X156085250Y-91462022D03*
%TO.N,Net-(U7-Pad12)*%
X152654000Y-85598000D03*
X172402095Y-88899039D03*
%TO.N,Net-(U7-Pad11)*%
X148844000Y-88392000D03*
X157541990Y-92267732D03*
%TO.N,Net-(U7-Pad3)*%
X164338000Y-91440000D03*
X164846000Y-96012000D03*
%TO.N,~LOAD_PROGRAM_COUNTER_COND*%
X163931911Y-96509204D03*
X129540000Y-75692000D03*
%TO.N,CARRY_FLAG*%
X142494000Y-98806000D03*
X125730000Y-90678000D03*
X122174000Y-89154000D03*
X132142231Y-95571305D03*
X139061988Y-95775677D03*
X146050000Y-114046000D03*
%TO.N,SIGN_FLAG*%
X90760987Y-88817013D03*
X143510000Y-114046000D03*
%TO.N,OVERFLOW_FLAG*%
X161036000Y-91186000D03*
X137668000Y-113792000D03*
%TO.N,ZERO_FLAG*%
X140462000Y-99822000D03*
X144042847Y-86488794D03*
X140451636Y-97412011D03*
X140970000Y-114046000D03*
%TO.N,Net-(U1-Pad6)*%
X98044000Y-91948000D03*
X101854000Y-90932000D03*
%TO.N,Net-(U1-Pad4)*%
X97536000Y-90932000D03*
X100330000Y-90932000D03*
%TO.N,Net-(U10-Pad1)*%
X165608000Y-97028000D03*
X128016000Y-94234000D03*
%TO.N,Net-(U3-Pad12)*%
X117620810Y-88995756D03*
X117787541Y-90395768D03*
%TO.N,Net-(U3-Pad4)*%
X119380000Y-90932000D03*
X121920000Y-91186000D03*
%TO.N,Net-(U10-Pad10)*%
X177800000Y-84582000D03*
X151581246Y-85325087D03*
%TO.N,Net-(U11-Pad1)*%
X176022000Y-90170000D03*
X185928000Y-90170000D03*
%TO.N,~JNO*%
X91613324Y-90986641D03*
X89154000Y-90170000D03*
%TO.N,~JO*%
X90554011Y-90014114D03*
X89600010Y-88646000D03*
%TO.N,OR_JNS*%
X100330000Y-88646000D03*
X106426000Y-94234000D03*
%TO.N,Net-(U3-Pad2)*%
X116586000Y-93218000D03*
X107696008Y-94234000D03*
%TO.N,OR_JNB_JAE_JNC*%
X120904000Y-88900000D03*
X124460000Y-91186000D03*
%TO.N,OR_JB_JNAE_JC*%
X131826000Y-96520000D03*
X124714000Y-87884000D03*
%TO.N,~JG_JNLE*%
X137922000Y-85852000D03*
X129286000Y-88900000D03*
%TO.N,Net-(U11-Pad4)*%
X133635708Y-85636041D03*
X145796000Y-84582000D03*
X179324000Y-84328000D03*
%TO.N,~JL_JNGE*%
X136906000Y-85598000D03*
X130302000Y-88646000D03*
%TO.N,Net-(U5-Pad10)*%
X136144000Y-87376000D03*
X146558000Y-86360000D03*
%TO.N,Net-(U5-Pad8)*%
X142604934Y-90307035D03*
X133846370Y-88054855D03*
%TO.N,Net-(U5-Pad6)*%
X139446000Y-90932000D03*
X141224000Y-91186000D03*
%TO.N,Net-(U5-Pad4)*%
X140208000Y-89916000D03*
X145034000Y-90424000D03*
X152147808Y-89868322D03*
X152127907Y-91668345D03*
%TO.N,~JA_JNBE*%
X135890000Y-85090000D03*
X134249609Y-90339979D03*
%TO.N,~JBE_JNA*%
X134620000Y-85090000D03*
X133784206Y-89454867D03*
%TO.N,SF<>OF*%
X141224000Y-88646000D03*
X144526000Y-88646000D03*
X147574000Y-89154000D03*
X155956000Y-87122000D03*
X159512000Y-89154000D03*
X163068000Y-91440000D03*
%TO.N,Net-(U6-Pad6)*%
X149606000Y-90616010D03*
X153418899Y-91188899D03*
%TO.N,Net-(U10-Pad2)*%
X165877832Y-98213979D03*
X140716022Y-96012000D03*
%TO.N,OR_JL_JNGE*%
X158242000Y-89154000D03*
X155195407Y-97283407D03*
%TO.N,OR_JA_JNBE*%
X153416000Y-96774000D03*
X153162000Y-98298000D03*
%TO.N,SF=OF*%
X169418000Y-92202000D03*
X178308000Y-91186000D03*
%TO.N,~JLE_JNG*%
X176022000Y-84836000D03*
X176022000Y-88900000D03*
%TO.N,Net-(U10-Pad9)*%
X177038000Y-88392000D03*
X184658000Y-85598000D03*
%TO.N,Net-(U10-Pad11)*%
X186944000Y-88900000D03*
X184309572Y-89188716D03*
%TO.N,OR_JLE_JNG*%
X151130000Y-96774000D03*
X179832000Y-90932000D03*
%TO.N,OR_JGE_JNL*%
X185674000Y-95504000D03*
X181610000Y-95250000D03*
%TO.N,OR_JG_JNLE*%
X151384000Y-100330000D03*
X173228000Y-97028000D03*
%TO.N,OR_JUMP*%
X174498000Y-89662000D03*
X150454680Y-96036459D03*
%TO.N,~J*%
X173497172Y-84012010D03*
X173401990Y-88914278D03*
%TO.N,Net-(U12-Pad5)*%
X128524000Y-96520000D03*
X154940000Y-103124000D03*
%TO.N,Net-(U12-Pad4)*%
X138684000Y-105664000D03*
X162102010Y-102355135D03*
%TO.N,Net-(U12-Pad2)*%
X145288000Y-100584000D03*
X160593083Y-102296268D03*
%TD*%
D13*
%TO.N,VCC*%
X89998000Y-86987500D02*
X89998000Y-85262000D01*
X89998000Y-85262000D02*
X90424000Y-84836000D01*
X90424000Y-84836000D02*
X90932000Y-84836000D01*
X109556000Y-87053500D02*
X109556000Y-85770000D01*
X109556000Y-85770000D02*
X109728000Y-85598000D01*
X128860000Y-87053500D02*
X128201500Y-87053500D01*
X128201500Y-87053500D02*
X127508000Y-86360000D01*
X160102000Y-98229500D02*
X158564500Y-98229500D01*
X144272000Y-98617000D02*
X143575000Y-98617000D01*
X143256000Y-98298000D02*
X143256000Y-98044000D01*
X143575000Y-98617000D02*
X143256000Y-98298000D01*
X128778000Y-98617000D02*
X127573000Y-98617000D01*
X127573000Y-98617000D02*
X127254000Y-98298000D01*
X181692000Y-100769500D02*
X180408500Y-100769500D01*
X181438000Y-87053500D02*
X179900500Y-87053500D01*
X172802000Y-87053500D02*
X171264500Y-87053500D01*
X159834500Y-87053500D02*
X160088500Y-87053500D01*
X161626000Y-87053500D02*
X160088500Y-87053500D01*
X139274000Y-87053500D02*
X139274000Y-88310000D01*
X139274000Y-88310000D02*
X138938000Y-88646000D01*
X99396000Y-87053500D02*
X99396000Y-85457665D01*
X99396000Y-85457665D02*
X99381178Y-85442843D01*
X119208000Y-87053500D02*
X118535446Y-87053500D01*
X118535446Y-87053500D02*
X118110000Y-86628054D01*
X150196000Y-87053500D02*
X148658500Y-87053500D01*
%TO.N,GND*%
X93898000Y-92712500D02*
X95247500Y-92712500D01*
X103296000Y-92778500D02*
X104579500Y-92778500D01*
X113456000Y-92778500D02*
X114485500Y-92778500D01*
X123108000Y-92778500D02*
X124137500Y-92778500D01*
X132760000Y-92778500D02*
X133789500Y-92778500D01*
X143174000Y-92778500D02*
X144086500Y-92778500D01*
X144155000Y-92710000D02*
X144272000Y-92710000D01*
X144086500Y-92778500D02*
X144155000Y-92710000D01*
X165526000Y-92778500D02*
X166809500Y-92778500D01*
X176702000Y-92778500D02*
X177985500Y-92778500D01*
X185592000Y-106494500D02*
X186875500Y-106494500D01*
X136398000Y-103567000D02*
X138111000Y-103567000D01*
X151892000Y-103567000D02*
X153605000Y-103567000D01*
X164002000Y-103954500D02*
X165285500Y-103954500D01*
X154096000Y-92778500D02*
X155482712Y-92778500D01*
X155482712Y-92778500D02*
X155671954Y-92967742D01*
X181864000Y-78486000D02*
X181864000Y-78232000D01*
X181864000Y-76604500D02*
X181864000Y-78232000D01*
X185338000Y-92778500D02*
X186335098Y-92778500D01*
X186335098Y-92778500D02*
X186459968Y-92653630D01*
X152400000Y-114704500D02*
X159258000Y-114704500D01*
X159258000Y-114704500D02*
X160678500Y-114704500D01*
X152400000Y-114704500D02*
X151026500Y-114704500D01*
%TO.N,Net-(U3-Pad6)*%
X112806000Y-92778500D02*
X112806000Y-91918000D01*
X112806000Y-91918000D02*
X113284000Y-91440000D01*
X113284000Y-91440000D02*
X117094000Y-91440000D01*
X117094000Y-91440000D02*
X117856000Y-92202000D01*
X121666000Y-96012000D02*
X121666000Y-95250000D01*
X121808000Y-95108000D02*
X121808000Y-92778500D01*
X121666000Y-95250000D02*
X121808000Y-95108000D01*
%TO.N,Net-(U7-Pad13)*%
X150846000Y-87053500D02*
X150846000Y-86330000D01*
X150846000Y-86330000D02*
X150368000Y-85852000D01*
X149606000Y-85852000D02*
X149352000Y-86106000D01*
X150368000Y-85852000D02*
X149606000Y-85852000D01*
X158945554Y-94888011D02*
X156085250Y-92027707D01*
X174752000Y-93516000D02*
X173818022Y-94449978D01*
X174752000Y-92778500D02*
X174752000Y-93516000D01*
X173818022Y-94449978D02*
X163163722Y-94449978D01*
X162725689Y-94888011D02*
X158945554Y-94888011D01*
X156085250Y-92027707D02*
X156085250Y-91462022D01*
X163163722Y-94449978D02*
X162725689Y-94888011D01*
%TO.N,Net-(U7-Pad12)*%
X151496000Y-86400298D02*
X152298298Y-85598000D01*
X151496000Y-87053500D02*
X151496000Y-86400298D01*
X152298298Y-85598000D02*
X152654000Y-85598000D01*
X173452000Y-90497236D02*
X172402095Y-89447331D01*
X173452000Y-92778500D02*
X173452000Y-90497236D01*
X172402095Y-89447331D02*
X172402095Y-88899039D01*
%TO.N,Net-(U7-Pad11)*%
X152146000Y-87053500D02*
X152146000Y-88392000D01*
X152146000Y-88392000D02*
X151892000Y-88646000D01*
X151892000Y-88646000D02*
X149860000Y-88646000D01*
X149860000Y-88646000D02*
X149098000Y-88646000D01*
X149098000Y-88646000D02*
X148844000Y-88392000D01*
X162560000Y-94488000D02*
X159762258Y-94488000D01*
X163576000Y-92778500D02*
X163576000Y-93472000D01*
X163576000Y-93472000D02*
X162560000Y-94488000D01*
X159762258Y-94488000D02*
X157541990Y-92267732D01*
%TO.N,Net-(U7-Pad3)*%
X164226000Y-91552000D02*
X164338000Y-91440000D01*
X164226000Y-92778500D02*
X164226000Y-91552000D01*
X151496000Y-95890004D02*
X153079998Y-97474002D01*
X153079998Y-97474002D02*
X154014848Y-97474002D01*
X154014848Y-97474002D02*
X155876849Y-95612001D01*
X155876849Y-95612001D02*
X164446001Y-95612001D01*
X164446001Y-95612001D02*
X164846000Y-96012000D01*
X151496000Y-92778500D02*
X151496000Y-95890004D01*
%TO.N,~LOAD_PROGRAM_COUNTER_COND*%
X164002000Y-98229500D02*
X164002000Y-96579293D01*
X164002000Y-96579293D02*
X163931911Y-96509204D01*
X179324000Y-75008500D02*
X178229500Y-75008500D01*
X178229500Y-75008500D02*
X175006000Y-78232000D01*
X130302000Y-75692000D02*
X129540000Y-75692000D01*
X132842000Y-78232000D02*
X130302000Y-75692000D01*
X175006000Y-78232000D02*
X132842000Y-78232000D01*
%TO.N,CARRY_FLAG*%
X145796000Y-106680000D02*
X142748000Y-106680000D01*
X142748000Y-106680000D02*
X141732000Y-105664000D01*
X141732000Y-105664000D02*
X141732000Y-99568000D01*
X141732000Y-99568000D02*
X142494000Y-98806000D01*
X121808000Y-88788000D02*
X121808000Y-87053500D01*
X122174000Y-89154000D02*
X121808000Y-88788000D01*
X113063766Y-89695766D02*
X121632234Y-89695766D01*
X111506000Y-87053500D02*
X111506000Y-88138000D01*
X111506000Y-88138000D02*
X113063766Y-89695766D01*
X121632234Y-89695766D02*
X122174000Y-89154000D01*
X131460000Y-92778500D02*
X131460000Y-94889074D01*
X131460000Y-94889074D02*
X132142231Y-95571305D01*
X131742232Y-95171306D02*
X132142231Y-95571305D01*
X131504928Y-94934002D02*
X131742232Y-95171306D01*
X127680000Y-94934002D02*
X131504928Y-94934002D01*
X125730000Y-92984002D02*
X127680000Y-94934002D01*
X125730000Y-90678000D02*
X125730000Y-92984002D01*
X139061988Y-92990512D02*
X139061988Y-95775677D01*
X139274000Y-92778500D02*
X139061988Y-92990512D01*
X138857616Y-95571305D02*
X139061988Y-95775677D01*
X132142231Y-95571305D02*
X138857616Y-95571305D01*
X147320000Y-108204000D02*
X147320000Y-111506000D01*
X147320000Y-108204000D02*
X145796000Y-106680000D01*
X146050000Y-114046000D02*
X147064958Y-115060958D01*
X147064958Y-115060958D02*
X147829042Y-115060958D01*
X147829042Y-115060958D02*
X149352000Y-113538000D01*
X149352000Y-113538000D02*
X149352000Y-108966000D01*
X149352000Y-108966000D02*
X150876000Y-107442000D01*
X157655500Y-107442000D02*
X159258000Y-109044500D01*
X150876000Y-107442000D02*
X157655500Y-107442000D01*
%TO.N,SIGN_FLAG*%
X90648000Y-88930000D02*
X90648000Y-86987500D01*
X150846000Y-91216000D02*
X150846000Y-92778500D01*
X155708310Y-90762012D02*
X155370298Y-90424000D01*
X162276000Y-93516000D02*
X161812000Y-93980000D01*
X155370298Y-90424000D02*
X153193834Y-90424000D01*
X157330014Y-90762012D02*
X155708310Y-90762012D01*
X160548002Y-93980000D02*
X157330014Y-90762012D01*
X162276000Y-92778500D02*
X162276000Y-93516000D01*
X153193834Y-90424000D02*
X152649499Y-90968335D01*
X152649499Y-90968335D02*
X151093665Y-90968335D01*
X151093665Y-90968335D02*
X150846000Y-91216000D01*
X161812000Y-93980000D02*
X160548002Y-93980000D01*
X173706000Y-93980000D02*
X174102000Y-93584000D01*
X174102000Y-93584000D02*
X174102000Y-92778500D01*
X168910000Y-90678000D02*
X172212000Y-93980000D01*
X162814000Y-90678000D02*
X168910000Y-90678000D01*
X162276000Y-92778500D02*
X162276000Y-91216000D01*
X172212000Y-93980000D02*
X173706000Y-93980000D01*
X162276000Y-91216000D02*
X162814000Y-90678000D01*
X101996000Y-88250000D02*
X100899998Y-89346002D01*
X90648000Y-88930000D02*
X90760987Y-88817013D01*
X91289976Y-89346002D02*
X90760987Y-88817013D01*
X101996000Y-87053500D02*
X101996000Y-88250000D01*
X100899998Y-89346002D02*
X91289976Y-89346002D01*
X141224000Y-98806000D02*
X141224000Y-105918000D01*
X150846000Y-92778500D02*
X150846000Y-94609135D01*
X143510000Y-96520000D02*
X141224000Y-98806000D01*
X148935135Y-96520000D02*
X143510000Y-96520000D01*
X150846000Y-94609135D02*
X148935135Y-96520000D01*
X144780000Y-109474000D02*
X144780000Y-111506000D01*
X141224000Y-105918000D02*
X144780000Y-109474000D01*
X89854001Y-90506001D02*
X89154000Y-91206002D01*
X90648000Y-88930000D02*
X89854001Y-89723999D01*
X89854001Y-89723999D02*
X89854001Y-90506001D01*
X118110000Y-97028000D02*
X127546022Y-106464022D01*
X90678000Y-95758000D02*
X99314000Y-95758000D01*
X134912022Y-106464022D02*
X137668000Y-109220000D01*
X137668000Y-109220000D02*
X137668000Y-112522000D01*
X89154000Y-94234000D02*
X90678000Y-95758000D01*
X99314000Y-95758000D02*
X100584000Y-97028000D01*
X89154000Y-91206002D02*
X89154000Y-94234000D01*
X127546022Y-106464022D02*
X134912022Y-106464022D01*
X100584000Y-97028000D02*
X118110000Y-97028000D01*
X137668000Y-112522000D02*
X138491999Y-113345999D01*
X138491999Y-113345999D02*
X142940001Y-113345999D01*
X142940001Y-113345999D02*
X144780000Y-111506000D01*
X149752011Y-109131689D02*
X149752011Y-113703689D01*
X156972000Y-109044500D02*
X155769511Y-107842011D01*
X155769511Y-107842011D02*
X151041689Y-107842011D01*
X151041689Y-107842011D02*
X149752011Y-109131689D01*
X149752011Y-113703689D02*
X147994731Y-115460969D01*
X147994731Y-115460969D02*
X144924969Y-115460969D01*
X144924969Y-115460969D02*
X143510000Y-114046000D01*
%TO.N,OVERFLOW_FLAG*%
X150196000Y-92778500D02*
X150196000Y-94660000D01*
X150196000Y-94660000D02*
X148844000Y-96012000D01*
X148844000Y-96012000D02*
X143256000Y-96012000D01*
X143256000Y-96012000D02*
X139700000Y-99568000D01*
X161626000Y-92778500D02*
X161626000Y-91776000D01*
X161626000Y-91776000D02*
X161036000Y-91186000D01*
X172802000Y-92041000D02*
X171038989Y-90277989D01*
X172802000Y-92778500D02*
X172802000Y-92041000D01*
X161944011Y-90277989D02*
X161036000Y-91186000D01*
X171038989Y-90277989D02*
X161944011Y-90277989D01*
X155535987Y-90023989D02*
X153028145Y-90023989D01*
X150196000Y-91300300D02*
X150196000Y-92778500D01*
X161036000Y-91186000D02*
X160212001Y-90362001D01*
X152483810Y-90568324D02*
X150927976Y-90568324D01*
X153028145Y-90023989D02*
X152483810Y-90568324D01*
X155873999Y-90362001D02*
X155535987Y-90023989D01*
X150927976Y-90568324D02*
X150196000Y-91300300D01*
X160212001Y-90362001D02*
X155873999Y-90362001D01*
X92598000Y-93868000D02*
X92598000Y-92712500D01*
X100046000Y-92778500D02*
X100046000Y-93502000D01*
X99314000Y-94234000D02*
X92964000Y-94234000D01*
X100046000Y-93502000D02*
X99314000Y-94234000D01*
X92964000Y-94234000D02*
X92598000Y-93868000D01*
X127711711Y-106064011D02*
X118275689Y-96627989D01*
X118275689Y-96627989D02*
X103157989Y-96627989D01*
X100046000Y-93516000D02*
X100046000Y-92778500D01*
X136578011Y-106064011D02*
X127711711Y-106064011D01*
X103157989Y-96627989D02*
X100046000Y-93516000D01*
X139700000Y-99568000D02*
X139700000Y-109186000D01*
X139700000Y-111506000D02*
X139700000Y-109186000D01*
X139700000Y-109186000D02*
X136578011Y-106064011D01*
X150552033Y-114035067D02*
X148326109Y-116260991D01*
X148326109Y-116260991D02*
X144593591Y-116260991D01*
X138067999Y-114191999D02*
X137668000Y-113792000D01*
X144593591Y-116260991D02*
X144156600Y-115824000D01*
X150552033Y-110892467D02*
X150552033Y-114035067D01*
X152400000Y-109044500D02*
X150552033Y-110892467D01*
X144156600Y-115824000D02*
X139700000Y-115824000D01*
X139700000Y-115824000D02*
X138067999Y-114191999D01*
%TO.N,ZERO_FLAG*%
X142240000Y-107696000D02*
X140462000Y-105918000D01*
X140462000Y-105918000D02*
X140462000Y-99822000D01*
X119858000Y-92778500D02*
X119858000Y-94010000D01*
X119858000Y-94010000D02*
X119380000Y-94488000D01*
X119380000Y-94488000D02*
X113030000Y-94488000D01*
X112156000Y-93614000D02*
X112156000Y-92778500D01*
X113030000Y-94488000D02*
X112156000Y-93614000D01*
X142524000Y-86316000D02*
X142824010Y-86015990D01*
X143570043Y-86015990D02*
X144042847Y-86488794D01*
X142524000Y-87053500D02*
X142524000Y-86316000D01*
X142824010Y-86015990D02*
X143570043Y-86015990D01*
X130440600Y-89916000D02*
X121983000Y-89916000D01*
X119858000Y-92041000D02*
X119858000Y-92778500D01*
X121983000Y-89916000D02*
X119858000Y-92041000D01*
X132022300Y-88334300D02*
X130440600Y-89916000D01*
X132110000Y-88246600D02*
X132022300Y-88334300D01*
X132110000Y-87053500D02*
X132110000Y-88246600D01*
X132442865Y-88754865D02*
X132022300Y-88334300D01*
X143570043Y-86015990D02*
X138831710Y-86015990D01*
X136092835Y-88754865D02*
X132442865Y-88754865D01*
X138831710Y-86015990D02*
X136092835Y-88754865D01*
X139924000Y-92778500D02*
X139924000Y-91449998D01*
X139924000Y-91449998D02*
X142524000Y-88849998D01*
X142524000Y-88849998D02*
X142524000Y-87053500D01*
X152120779Y-84225075D02*
X147873225Y-84225075D01*
X172337791Y-85020033D02*
X167396933Y-85020033D01*
X167396933Y-85020033D02*
X166812891Y-84435991D01*
X166812891Y-84435991D02*
X152331695Y-84435991D01*
X147873225Y-84225075D02*
X146646309Y-85451991D01*
X174752000Y-87053500D02*
X174752000Y-86150975D01*
X172829792Y-85512034D02*
X172337791Y-85020033D01*
X152331695Y-84435991D02*
X152120779Y-84225075D01*
X174113059Y-85512034D02*
X172829792Y-85512034D01*
X145079650Y-85451991D02*
X144042847Y-86488794D01*
X174752000Y-86150975D02*
X174113059Y-85512034D01*
X146646309Y-85451991D02*
X145079650Y-85451991D01*
X139924000Y-96884375D02*
X140451636Y-97412011D01*
X139924000Y-92778500D02*
X139924000Y-96884375D01*
X142240000Y-107696000D02*
X142240000Y-111506000D01*
X140970000Y-114046000D02*
X142132011Y-115208011D01*
X142132011Y-115208011D02*
X144106311Y-115208011D01*
X144106311Y-115208011D02*
X144759280Y-115860980D01*
X148160420Y-115860980D02*
X150152022Y-113869378D01*
X153883522Y-108242022D02*
X154686000Y-109044500D01*
X151207378Y-108242022D02*
X153883522Y-108242022D01*
X150152022Y-113869378D02*
X150152022Y-109297378D01*
X150152022Y-109297378D02*
X151207378Y-108242022D01*
X144759280Y-115860980D02*
X148160420Y-115860980D01*
%TO.N,Net-(U1-Pad12)*%
X91298000Y-87996000D02*
X92094011Y-88792011D01*
X92094011Y-88792011D02*
X99044989Y-88792011D01*
X91298000Y-86987500D02*
X91298000Y-87996000D01*
X99044989Y-88792011D02*
X100046000Y-87791000D01*
X100046000Y-87791000D02*
X100046000Y-87053500D01*
%TO.N,Net-(U1-Pad10)*%
X100696000Y-85767700D02*
X100696000Y-87053500D01*
X94742000Y-87630000D02*
X94742000Y-85598000D01*
X94234000Y-88138000D02*
X94742000Y-87630000D01*
X95611989Y-84728011D02*
X99656311Y-84728011D01*
X94742000Y-85598000D02*
X95611989Y-84728011D01*
X92964000Y-88138000D02*
X94234000Y-88138000D01*
X99656311Y-84728011D02*
X100696000Y-85767700D01*
X92598000Y-87772000D02*
X92964000Y-88138000D01*
X92598000Y-86987500D02*
X92598000Y-87772000D01*
%TO.N,Net-(U1-Pad8)*%
X93898000Y-86987500D02*
X93898000Y-85680000D01*
X93898000Y-85680000D02*
X95250000Y-84328000D01*
X95250000Y-84328000D02*
X101600000Y-84328000D01*
X101600000Y-84328000D02*
X102616000Y-85344000D01*
X102616000Y-87023500D02*
X102646000Y-87053500D01*
X102616000Y-85344000D02*
X102616000Y-87023500D01*
%TO.N,Net-(U1-Pad6)*%
X93248000Y-92712500D02*
X93248000Y-91918000D01*
X93491010Y-91674990D02*
X96754990Y-91674990D01*
X93248000Y-91918000D02*
X93491010Y-91674990D01*
X96754990Y-91674990D02*
X97028000Y-91948000D01*
X97028000Y-91948000D02*
X98044000Y-91948000D01*
X101996000Y-91074000D02*
X101996000Y-92778500D01*
X101854000Y-90932000D02*
X101996000Y-91074000D01*
%TO.N,Net-(U1-Pad4)*%
X91948000Y-92712500D02*
X91948000Y-91948000D01*
X91948000Y-91948000D02*
X92964000Y-90932000D01*
X92964000Y-90932000D02*
X97536000Y-90932000D01*
X101346000Y-92778500D02*
X101346000Y-91440000D01*
X100838000Y-90932000D02*
X100330000Y-90932000D01*
X101346000Y-91440000D02*
X100838000Y-90932000D01*
%TO.N,Net-(U1-Pad2)*%
X90648000Y-92712500D02*
X90648000Y-91470000D01*
X90648000Y-91470000D02*
X90678000Y-91440000D01*
X90678000Y-91440000D02*
X90678000Y-90932000D01*
X90678000Y-90932000D02*
X91440000Y-90170000D01*
X91440000Y-90170000D02*
X98044000Y-90170000D01*
X99396000Y-91522000D02*
X99396000Y-92778500D01*
X98044000Y-90170000D02*
X99396000Y-91522000D01*
%TO.N,Net-(U10-Pad1)*%
X167131985Y-97028000D02*
X169309996Y-94849989D01*
X179366511Y-94849989D02*
X181438000Y-92778500D01*
X165608000Y-97028000D02*
X167131985Y-97028000D01*
X128792000Y-94234000D02*
X128016000Y-94234000D01*
X129510000Y-93516000D02*
X128792000Y-94234000D01*
X129510000Y-92778500D02*
X129510000Y-93516000D01*
X179366511Y-94849989D02*
X169309996Y-94849989D01*
%TO.N,Net-(U3-Pad12)*%
X110856000Y-88758000D02*
X112493768Y-90395768D01*
X120508000Y-87053500D02*
X120508000Y-88280000D01*
X110856000Y-87053500D02*
X110856000Y-88758000D01*
X112493768Y-90395768D02*
X117787541Y-90395768D01*
X120508000Y-88280000D02*
X119792244Y-88995756D01*
X119792244Y-88995756D02*
X117620810Y-88995756D01*
%TO.N,Net-(U3-Pad10)*%
X119353245Y-88295755D02*
X119858000Y-87791000D01*
X119858000Y-87791000D02*
X119858000Y-87053500D01*
X112660755Y-88295755D02*
X119353245Y-88295755D01*
X112156000Y-87791000D02*
X112660755Y-88295755D01*
X112156000Y-87053500D02*
X112156000Y-87791000D01*
%TO.N,Net-(U3-Pad8)*%
X122250044Y-85928044D02*
X114581456Y-85928044D01*
X122458000Y-87053500D02*
X122458000Y-86136000D01*
X114581456Y-85928044D02*
X113456000Y-87053500D01*
X122458000Y-86136000D02*
X122250044Y-85928044D01*
%TO.N,Net-(U3-Pad4)*%
X121920000Y-91186000D02*
X121666000Y-91186000D01*
X121158000Y-91694000D02*
X121158000Y-92778500D01*
X121666000Y-91186000D02*
X121158000Y-91694000D01*
X111506000Y-92778500D02*
X111506000Y-91694000D01*
X111506000Y-91694000D02*
X112160011Y-91039989D01*
X117805699Y-91331999D02*
X118980001Y-91331999D01*
X118980001Y-91331999D02*
X119380000Y-90932000D01*
X112160011Y-91039989D02*
X117513689Y-91039989D01*
X117513689Y-91039989D02*
X117805699Y-91331999D01*
%TO.N,Net-(U10-Pad10)*%
X184038000Y-86400298D02*
X184038000Y-87053500D01*
X183489702Y-85852000D02*
X184038000Y-86400298D01*
X143750500Y-87630000D02*
X146558000Y-87630000D01*
X146558000Y-87630000D02*
X148862913Y-85325087D01*
X143174000Y-87053500D02*
X143750500Y-87630000D01*
X148862913Y-85325087D02*
X151581246Y-85325087D01*
X183489702Y-85852000D02*
X179070000Y-85852000D01*
X179070000Y-85852000D02*
X177800000Y-84582000D01*
%TO.N,Net-(U10-Pad4)*%
X176052000Y-93502000D02*
X176052000Y-92778500D01*
X178054000Y-93980000D02*
X176530000Y-93980000D01*
X180398649Y-92514649D02*
X179519351Y-92514649D01*
X179519351Y-92514649D02*
X178054000Y-93980000D01*
X183041000Y-91694000D02*
X181219298Y-91694000D01*
X176530000Y-93980000D02*
X176052000Y-93502000D01*
X181219298Y-91694000D02*
X180398649Y-92514649D01*
X183388000Y-92041000D02*
X183041000Y-91694000D01*
X183388000Y-92778500D02*
X183388000Y-92041000D01*
%TO.N,Net-(U11-Pad1)*%
X175402000Y-87053500D02*
X175402000Y-88250000D01*
X175402000Y-88250000D02*
X175006000Y-88646000D01*
X175006000Y-88646000D02*
X175006000Y-89154000D01*
X175006000Y-89154000D02*
X175260000Y-89408000D01*
X175260000Y-89408000D02*
X176022000Y-90170000D01*
X184889600Y-103378000D02*
X187159978Y-101107622D01*
X183134000Y-103378000D02*
X184889600Y-103378000D01*
X181692000Y-106494500D02*
X181692000Y-104820000D01*
X181692000Y-104820000D02*
X183134000Y-103378000D01*
X187159978Y-101107622D02*
X187159978Y-91401978D01*
X187159978Y-91401978D02*
X185928000Y-90170000D01*
%TO.N,~JNS*%
X91948000Y-86250000D02*
X91948000Y-86987500D01*
X94670022Y-83527978D02*
X91948000Y-86250000D01*
X129231822Y-83527978D02*
X94670022Y-83527978D01*
X132279496Y-83058000D02*
X129701800Y-83058000D01*
X133350000Y-80010000D02*
X133350000Y-81987496D01*
X133858000Y-79502000D02*
X133350000Y-80010000D01*
X129701800Y-83058000D02*
X129231822Y-83527978D01*
X135636000Y-79502000D02*
X133858000Y-79502000D01*
X137160000Y-81026000D02*
X135636000Y-79502000D01*
X133350000Y-81987496D02*
X132279496Y-83058000D01*
%TO.N,~JS*%
X129397511Y-83927989D02*
X95084311Y-83927989D01*
X95084311Y-83927989D02*
X93248000Y-85764300D01*
X132445185Y-83458011D02*
X129867489Y-83458011D01*
X93248000Y-85764300D02*
X93248000Y-86987500D01*
X134620000Y-81283196D02*
X132445185Y-83458011D01*
X129867489Y-83458011D02*
X129397511Y-83927989D01*
X134620000Y-81026000D02*
X134620000Y-81283196D01*
%TO.N,~JNO*%
X91298000Y-91301965D02*
X91613324Y-90986641D01*
X91298000Y-92712500D02*
X91298000Y-91301965D01*
X95388600Y-78740000D02*
X88900000Y-85228600D01*
X132080000Y-81026000D02*
X129794000Y-78740000D01*
X88900000Y-89916000D02*
X89154000Y-90170000D01*
X88900000Y-85228600D02*
X88900000Y-89916000D01*
X129794000Y-78740000D02*
X95388600Y-78740000D01*
%TO.N,~JO*%
X89998000Y-90933721D02*
X90554011Y-90377710D01*
X89998000Y-92712500D02*
X89998000Y-90933721D01*
X90554011Y-90377710D02*
X90554011Y-90014114D01*
X127508000Y-83058000D02*
X91636300Y-83058000D01*
X129540000Y-81026000D02*
X127508000Y-83058000D01*
X91636300Y-83058000D02*
X89408000Y-85286300D01*
X89408000Y-88453990D02*
X89600010Y-88646000D01*
X89408000Y-85286300D02*
X89408000Y-88453990D01*
%TO.N,OR_JNS*%
X101346000Y-87053500D02*
X101346000Y-87791000D01*
X101346000Y-87791000D02*
X101346000Y-88138000D01*
X101346000Y-88138000D02*
X100838000Y-88646000D01*
X100838000Y-88646000D02*
X100330000Y-88646000D01*
X106426000Y-94234000D02*
X107219945Y-95027945D01*
X125106557Y-101091957D02*
X132357957Y-101091957D01*
X119042545Y-95027945D02*
X125106557Y-101091957D01*
X133858000Y-102592000D02*
X133858000Y-103567000D01*
X107219945Y-95027945D02*
X119042545Y-95027945D01*
X132357957Y-101091957D02*
X133858000Y-102592000D01*
%TO.N,OR_JS*%
X124940868Y-101491968D02*
X131487968Y-101491968D01*
X131487968Y-101491968D02*
X132588000Y-102592000D01*
X106465356Y-95427956D02*
X118876856Y-95427956D01*
X103296000Y-87053500D02*
X105410000Y-89167500D01*
X105410000Y-89167500D02*
X105410000Y-94372600D01*
X132588000Y-102592000D02*
X132588000Y-103567000D01*
X105410000Y-94372600D02*
X106465356Y-95427956D01*
X118876856Y-95427956D02*
X124940868Y-101491968D01*
%TO.N,OR_JNO*%
X124775179Y-101891979D02*
X130617979Y-101891979D01*
X118711167Y-95827967D02*
X124775179Y-101891979D01*
X104957967Y-95827967D02*
X118711167Y-95827967D01*
X102646000Y-93516000D02*
X104957967Y-95827967D01*
X102646000Y-92778500D02*
X102646000Y-93516000D01*
X131318000Y-102592000D02*
X131318000Y-103567000D01*
X130617979Y-101891979D02*
X131318000Y-102592000D01*
%TO.N,OR_JO*%
X100696000Y-93516000D02*
X103407978Y-96227978D01*
X100696000Y-92778500D02*
X100696000Y-93516000D01*
X118545478Y-96227978D02*
X124609490Y-102291990D01*
X124609490Y-102291990D02*
X129747990Y-102291990D01*
X129747990Y-102291990D02*
X130048000Y-102592000D01*
X103407978Y-96227978D02*
X118545478Y-96227978D01*
X130048000Y-102592000D02*
X130048000Y-103567000D01*
%TO.N,~JNB_JAE_JNC*%
X130364556Y-84658044D02*
X129894578Y-85128022D01*
X144272000Y-79502000D02*
X143510000Y-80264000D01*
X145796000Y-79502000D02*
X144272000Y-79502000D01*
X134218329Y-83381967D02*
X132942252Y-84658044D01*
X147320000Y-81026000D02*
X145796000Y-79502000D01*
X141742933Y-83381967D02*
X134218329Y-83381967D01*
X143510000Y-80264000D02*
X143510000Y-81614900D01*
X129894578Y-85128022D02*
X111393978Y-85128022D01*
X111393978Y-85128022D02*
X110206000Y-86316000D01*
X143510000Y-81614900D02*
X141742933Y-83381967D01*
X132942252Y-84658044D02*
X130364556Y-84658044D01*
X110206000Y-86316000D02*
X110206000Y-87053500D01*
%TO.N,~JB_JNAE_JC*%
X130530245Y-85058055D02*
X130060267Y-85528033D01*
X133107941Y-85058055D02*
X130530245Y-85058055D01*
X113593967Y-85528033D02*
X112806000Y-86316000D01*
X144780000Y-81026000D02*
X142024022Y-83781978D01*
X142024022Y-83781978D02*
X134384018Y-83781978D01*
X130060267Y-85528033D02*
X113593967Y-85528033D01*
X134384018Y-83781978D02*
X133107941Y-85058055D01*
X112806000Y-86316000D02*
X112806000Y-87053500D01*
%TO.N,~JNE_JNZ*%
X108458000Y-89643000D02*
X110856000Y-92041000D01*
X129728889Y-84728011D02*
X109561985Y-84728011D01*
X110856000Y-92041000D02*
X110856000Y-92778500D01*
X108458000Y-85831996D02*
X108458000Y-89643000D01*
X130198867Y-84258033D02*
X129728889Y-84728011D01*
X132776563Y-84258033D02*
X130198867Y-84258033D01*
X134052640Y-82981956D02*
X132776563Y-84258033D01*
X140284044Y-82981956D02*
X134052640Y-82981956D01*
X109561985Y-84728011D02*
X108458000Y-85831996D01*
X142240000Y-81026000D02*
X140284044Y-82981956D01*
%TO.N,Net-(U3-Pad2)*%
X110206000Y-92778500D02*
X110206000Y-93516000D01*
X110206000Y-93516000D02*
X109488000Y-94234000D01*
X109488000Y-94234000D02*
X107696008Y-94234000D01*
X118768500Y-93218000D02*
X116586000Y-93218000D01*
X119208000Y-92778500D02*
X118768500Y-93218000D01*
%TO.N,~JE_JZ*%
X107950000Y-85774296D02*
X107950000Y-91172500D01*
X109396296Y-84328000D02*
X107950000Y-85774296D01*
X133886951Y-82581945D02*
X132610874Y-83858022D01*
X130033178Y-83858022D02*
X129563200Y-84328000D01*
X138144055Y-82581945D02*
X133886951Y-82581945D01*
X109356000Y-92578500D02*
X109556000Y-92778500D01*
X132610874Y-83858022D02*
X130033178Y-83858022D01*
X139700000Y-81026000D02*
X138144055Y-82581945D01*
X129563200Y-84328000D02*
X109396296Y-84328000D01*
X107950000Y-91172500D02*
X109356000Y-92578500D01*
%TO.N,OR_JNB_JAE_JNC*%
X121158000Y-87053500D02*
X121158000Y-88646000D01*
X121158000Y-88646000D02*
X120904000Y-88900000D01*
X129264012Y-95588012D02*
X131318000Y-97642000D01*
X124859999Y-91585999D02*
X124859999Y-92679701D01*
X127768310Y-95588012D02*
X129264012Y-95588012D01*
X131318000Y-97642000D02*
X131318000Y-98617000D01*
X124460000Y-91186000D02*
X124859999Y-91585999D01*
X124859999Y-92679701D02*
X127768310Y-95588012D01*
%TO.N,OR_JNE_JNZ*%
X133858000Y-99822000D02*
X133858000Y-98617000D01*
X133388065Y-100291935D02*
X133858000Y-99822000D01*
X125437935Y-100291935D02*
X133388065Y-100291935D01*
X122458000Y-97312000D02*
X125437935Y-100291935D01*
X122458000Y-92778500D02*
X122458000Y-97312000D01*
%TO.N,OR_JE_JZ*%
X125272246Y-100691946D02*
X134028054Y-100691946D01*
X120508000Y-95927700D02*
X125272246Y-100691946D01*
X135128000Y-99592000D02*
X135128000Y-98617000D01*
X134028054Y-100691946D02*
X135128000Y-99592000D01*
X120508000Y-92778500D02*
X120508000Y-95927700D01*
%TO.N,OR_JB_JNAE_JC*%
X132588000Y-98617000D02*
X132588000Y-97282000D01*
X132588000Y-97282000D02*
X131826000Y-96520000D01*
X123883500Y-87053500D02*
X124714000Y-87884000D01*
X123108000Y-87053500D02*
X123883500Y-87053500D01*
%TO.N,~JG_JNLE*%
X129510000Y-88676000D02*
X129510000Y-87053500D01*
X129286000Y-88900000D02*
X129510000Y-88676000D01*
X154686000Y-83820000D02*
X145034000Y-83820000D01*
X160020000Y-80264000D02*
X159258000Y-79502000D01*
X160020000Y-81026000D02*
X160020000Y-80264000D01*
X159258000Y-79502000D02*
X156718000Y-79502000D01*
X145034000Y-83820000D02*
X143256000Y-85598000D01*
X143256000Y-85598000D02*
X138684000Y-85598000D01*
X156718000Y-79502000D02*
X156210000Y-80010000D01*
X138430000Y-85852000D02*
X137922000Y-85852000D01*
X156210000Y-80010000D02*
X156210000Y-82296000D01*
X138684000Y-85598000D02*
X138430000Y-85852000D01*
X156210000Y-82296000D02*
X154686000Y-83820000D01*
%TO.N,Net-(U11-Pad4)*%
X130160000Y-87053500D02*
X130160000Y-85994000D01*
X130160000Y-85994000D02*
X130695934Y-85458066D01*
X130695934Y-85458066D02*
X133457733Y-85458066D01*
X133457733Y-85458066D02*
X133635708Y-85636041D01*
X187960000Y-101439000D02*
X183642000Y-105757000D01*
X187960000Y-86106000D02*
X187960000Y-101439000D01*
X186544001Y-84690001D02*
X187960000Y-86106000D01*
X183642000Y-105757000D02*
X183642000Y-106494500D01*
X179869998Y-84328000D02*
X179324000Y-84328000D01*
X180231999Y-84690001D02*
X179869998Y-84328000D01*
X180231999Y-84690001D02*
X186544001Y-84690001D01*
%TO.N,~JL_JNGE*%
X130302000Y-88646000D02*
X130810000Y-88138000D01*
X130810000Y-88138000D02*
X130810000Y-87053500D01*
X152546011Y-83419989D02*
X144164011Y-83419989D01*
X144164011Y-83419989D02*
X142494000Y-85090000D01*
X154940000Y-81026000D02*
X152546011Y-83419989D01*
X137414000Y-85090000D02*
X136906000Y-85598000D01*
X142494000Y-85090000D02*
X137414000Y-85090000D01*
%TO.N,Net-(U5-Pad10)*%
X134385702Y-87376000D02*
X136144000Y-87376000D01*
X132867779Y-85858077D02*
X134385702Y-87376000D01*
X131460000Y-86218000D02*
X131819923Y-85858077D01*
X131819923Y-85858077D02*
X132867779Y-85858077D01*
X131460000Y-87053500D02*
X131460000Y-86218000D01*
X151955090Y-84625086D02*
X152228002Y-84897998D01*
X148292914Y-84625086D02*
X151955090Y-84625086D01*
X152990002Y-84897998D02*
X153446000Y-85353996D01*
X146558000Y-86360000D02*
X148292914Y-84625086D01*
X152228002Y-84897998D02*
X152990002Y-84897998D01*
X153446000Y-85353996D02*
X153446000Y-87053500D01*
%TO.N,Net-(U5-Pad8)*%
X132760000Y-87053500D02*
X133761355Y-88054855D01*
X133761355Y-88054855D02*
X133846370Y-88054855D01*
X142604934Y-91095068D02*
X142604934Y-90307035D01*
X141874000Y-91826002D02*
X142604934Y-91095068D01*
X141874000Y-92778500D02*
X141874000Y-91826002D01*
%TO.N,Net-(U5-Pad6)*%
X132110000Y-92778500D02*
X132110000Y-91918000D01*
X132110000Y-91918000D02*
X132588000Y-91440000D01*
X132588000Y-91440000D02*
X137414000Y-91440000D01*
X137414000Y-91440000D02*
X137922000Y-90932000D01*
X137922000Y-90932000D02*
X139446000Y-90932000D01*
X141224000Y-91186000D02*
X141224000Y-92778500D01*
%TO.N,Net-(U5-Pad4)*%
X130810000Y-92778500D02*
X130810000Y-91948000D01*
X130810000Y-91948000D02*
X131718011Y-91039989D01*
X137248311Y-91039989D02*
X138372300Y-89916000D01*
X131718011Y-91039989D02*
X137248311Y-91039989D01*
X138372300Y-89916000D02*
X140208000Y-89916000D01*
X145589678Y-89868322D02*
X152147808Y-89868322D01*
X152146000Y-92778500D02*
X152146000Y-91686438D01*
X145034000Y-90424000D02*
X145589678Y-89868322D01*
X152146000Y-91686438D02*
X152127907Y-91668345D01*
%TO.N,~JA_JNBE*%
X143998322Y-83019978D02*
X142328311Y-84689989D01*
X136290011Y-84689989D02*
X136289999Y-84690001D01*
X136289999Y-84690001D02*
X135890000Y-85090000D01*
X150406022Y-83019978D02*
X143998322Y-83019978D01*
X152400000Y-81026000D02*
X150406022Y-83019978D01*
X142328311Y-84689989D02*
X136290011Y-84689989D01*
X131148021Y-90339979D02*
X134249609Y-90339979D01*
X130160000Y-92778500D02*
X130160000Y-91328000D01*
X130160000Y-91328000D02*
X131148021Y-90339979D01*
%TO.N,~JBE_JNA*%
X143832633Y-82619967D02*
X142270611Y-84181989D01*
X149860000Y-81026000D02*
X148266033Y-82619967D01*
X148266033Y-82619967D02*
X143832633Y-82619967D01*
X142270611Y-84181989D02*
X135528011Y-84181989D01*
X135528011Y-84181989D02*
X134620000Y-85090000D01*
X128860000Y-92778500D02*
X128860000Y-92062300D01*
X128860000Y-92062300D02*
X131467433Y-89454867D01*
X131467433Y-89454867D02*
X133784206Y-89454867D01*
%TO.N,SF<>OF*%
X141874000Y-87053500D02*
X141874000Y-87996000D01*
X141874000Y-87996000D02*
X141224000Y-88646000D01*
X145091685Y-88646000D02*
X144526000Y-88646000D01*
X152796000Y-88532850D02*
X152174850Y-89154000D01*
X145599685Y-89154000D02*
X145091685Y-88646000D01*
X152796000Y-87053500D02*
X152796000Y-88532850D01*
X152174850Y-89154000D02*
X147574000Y-89154000D01*
X147574000Y-89154000D02*
X145599685Y-89154000D01*
X155956000Y-87122000D02*
X156972000Y-88138000D01*
X156972000Y-88138000D02*
X158496000Y-88138000D01*
X158496000Y-88138000D02*
X159512000Y-89154000D01*
X162926000Y-91582000D02*
X163068000Y-91440000D01*
X162926000Y-92778500D02*
X162926000Y-91582000D01*
%TO.N,Net-(U6-Pad6)*%
X148782010Y-91440000D02*
X149606000Y-90616010D01*
X142524000Y-92778500D02*
X142524000Y-92041000D01*
X142524000Y-92041000D02*
X143125000Y-91440000D01*
X143125000Y-91440000D02*
X148782010Y-91440000D01*
X152796000Y-92778500D02*
X152796000Y-92041000D01*
X152796000Y-92041000D02*
X153418899Y-91418101D01*
X153418899Y-91418101D02*
X153418899Y-91188899D01*
%TO.N,Net-(U10-Pad2)*%
X169475685Y-95250000D02*
X166511706Y-98213979D01*
X166511706Y-98213979D02*
X165877832Y-98213979D01*
X182088000Y-92778500D02*
X182088000Y-93756000D01*
X182088000Y-93756000D02*
X180594000Y-95250000D01*
X140574000Y-95869978D02*
X140716022Y-96012000D01*
X140574000Y-92778500D02*
X140574000Y-95869978D01*
X169475685Y-95250000D02*
X180594000Y-95250000D01*
%TO.N,OR_JL_JNGE*%
X154096000Y-87053500D02*
X156196500Y-89154000D01*
X156196500Y-89154000D02*
X158242000Y-89154000D01*
X155195407Y-99003351D02*
X155195407Y-97283407D01*
X148082000Y-103567000D02*
X148082000Y-102592000D01*
X152090758Y-102108000D02*
X155195407Y-99003351D01*
X148566000Y-102108000D02*
X152090758Y-102108000D01*
X148082000Y-102592000D02*
X148566000Y-102108000D01*
%TO.N,OR_JA_JNBE*%
X153446000Y-92778500D02*
X153446000Y-96744000D01*
X153446000Y-96744000D02*
X153416000Y-96774000D01*
X146812000Y-102592000D02*
X146812000Y-103567000D01*
X147804000Y-101600000D02*
X146812000Y-102592000D01*
X153162000Y-98298000D02*
X153162000Y-100471058D01*
X152033058Y-101600000D02*
X147804000Y-101600000D01*
X153162000Y-100471058D02*
X152033058Y-101600000D01*
%TO.N,SF=OF*%
X164876000Y-92778500D02*
X164876000Y-91918000D01*
X164876000Y-91918000D02*
X165608000Y-91186000D01*
X165608000Y-91186000D02*
X168402000Y-91186000D01*
X168402000Y-91186000D02*
X169418000Y-92202000D01*
X178308000Y-91186000D02*
X179070000Y-91948000D01*
X184038000Y-92041000D02*
X184038000Y-92778500D01*
X181053609Y-91293989D02*
X183290989Y-91293989D01*
X183290989Y-91293989D02*
X184038000Y-92041000D01*
X180399598Y-91948000D02*
X181053609Y-91293989D01*
X179070000Y-91948000D02*
X180399598Y-91948000D01*
%TO.N,~JLE_JNG*%
X176052000Y-88870000D02*
X176022000Y-88900000D01*
X176052000Y-87053500D02*
X176052000Y-88870000D01*
X162560000Y-81026000D02*
X165169969Y-83635969D01*
X165169969Y-83635969D02*
X167144269Y-83635969D01*
X167144269Y-83635969D02*
X167728311Y-84220011D01*
X172669169Y-84220011D02*
X173161170Y-84712012D01*
X173161170Y-84712012D02*
X175898012Y-84712012D01*
X175898012Y-84712012D02*
X176022000Y-84836000D01*
X167728311Y-84220011D02*
X172669169Y-84220011D01*
%TO.N,Net-(U10-Pad9)*%
X176702000Y-87053500D02*
X176702000Y-88056000D01*
X176702000Y-88056000D02*
X177038000Y-88392000D01*
X184658000Y-87023500D02*
X184688000Y-87053500D01*
X184658000Y-85598000D02*
X184658000Y-87023500D01*
%TO.N,~JGE_JNL*%
X172995481Y-85112023D02*
X174323723Y-85112023D01*
X177800000Y-89643000D02*
X175402000Y-92041000D01*
X177800000Y-86106000D02*
X177800000Y-89643000D01*
X157480000Y-81026000D02*
X160489980Y-84035980D01*
X174747702Y-85536002D02*
X177230002Y-85536002D01*
X167562622Y-84620022D02*
X172503480Y-84620022D01*
X172503480Y-84620022D02*
X172995481Y-85112023D01*
X174323723Y-85112023D02*
X174747702Y-85536002D01*
X177230002Y-85536002D02*
X177800000Y-86106000D01*
X175402000Y-92041000D02*
X175402000Y-92778500D01*
X166978580Y-84035980D02*
X167562622Y-84620022D01*
X160489980Y-84035980D02*
X166978580Y-84035980D01*
%TO.N,Net-(U10-Pad11)*%
X183388000Y-87053500D02*
X183388000Y-88267144D01*
X183388000Y-88267144D02*
X184309572Y-89188716D01*
X182342000Y-106494500D02*
X182342000Y-105126000D01*
X183328000Y-104140000D02*
X184693300Y-104140000D01*
X187559989Y-89515989D02*
X186944000Y-88900000D01*
X184693300Y-104140000D02*
X187559989Y-101273311D01*
X187559989Y-101273311D02*
X187559989Y-89515989D01*
X182342000Y-105126000D02*
X183328000Y-104140000D01*
%TO.N,OR_JLE_JNG*%
X149352000Y-98617000D02*
X149352000Y-97536000D01*
X149352000Y-97536000D02*
X150114000Y-96774000D01*
X150114000Y-96774000D02*
X151130000Y-96774000D01*
X180231999Y-90532001D02*
X179832000Y-90932000D01*
X185338000Y-87053500D02*
X185338000Y-89490000D01*
X185338000Y-89490000D02*
X184295999Y-90532001D01*
X184295999Y-90532001D02*
X180231999Y-90532001D01*
%TO.N,OR_JGE_JNL*%
X184688000Y-94518000D02*
X185674000Y-95504000D01*
X184688000Y-92778500D02*
X184688000Y-94518000D01*
X168148000Y-103886000D02*
X168148000Y-98806000D01*
X166116000Y-105918000D02*
X168148000Y-103886000D01*
X149352000Y-105410000D02*
X149860000Y-105918000D01*
X168148000Y-98806000D02*
X171196000Y-95758000D01*
X181102000Y-95758000D02*
X181610000Y-95250000D01*
X149352000Y-103567000D02*
X149352000Y-105410000D01*
X149860000Y-105918000D02*
X166116000Y-105918000D01*
X181102000Y-95758000D02*
X171196000Y-95758000D01*
%TO.N,OR_JBE_JNA*%
X145542000Y-103567000D02*
X145542000Y-105410000D01*
X145542000Y-105410000D02*
X146558000Y-106426000D01*
X146558000Y-106426000D02*
X166173700Y-106426000D01*
X182738000Y-95412004D02*
X182738000Y-92778500D01*
X166173700Y-106426000D02*
X168656000Y-103943700D01*
X181991993Y-96158011D02*
X182738000Y-95412004D01*
X168656000Y-99117700D02*
X171615689Y-96158011D01*
X168656000Y-103943700D02*
X168656000Y-99117700D01*
X171615689Y-96158011D02*
X181991993Y-96158011D01*
%TO.N,OR_JG_JNLE*%
X150622000Y-98617000D02*
X150622000Y-99822000D01*
X151130000Y-100330000D02*
X151384000Y-100330000D01*
X150622000Y-99822000D02*
X151130000Y-100330000D01*
X184061689Y-108350011D02*
X184942000Y-107469700D01*
X181502011Y-108350011D02*
X184061689Y-108350011D01*
X177292000Y-97028000D02*
X179578000Y-99314000D01*
X179578000Y-106426000D02*
X181502011Y-108350011D01*
X179578000Y-99314000D02*
X179578000Y-106426000D01*
X184942000Y-107469700D02*
X184942000Y-106494500D01*
X173228000Y-97028000D02*
X177292000Y-97028000D01*
%TO.N,Net-(U11-Pad3)*%
X184292000Y-107554000D02*
X184292000Y-106494500D01*
X183388000Y-107950000D02*
X183896000Y-107950000D01*
X182992000Y-107554000D02*
X183388000Y-107950000D01*
X182992000Y-106494500D02*
X182992000Y-107554000D01*
X183896000Y-107950000D02*
X184292000Y-107554000D01*
%TO.N,OR_JUMP*%
X174102000Y-89266000D02*
X174498000Y-89662000D01*
X174102000Y-87053500D02*
X174102000Y-89266000D01*
X148082000Y-98617000D02*
X148082000Y-98155306D01*
X148082000Y-98155306D02*
X150200847Y-96036459D01*
X150200847Y-96036459D02*
X150454680Y-96036459D01*
%TO.N,~J*%
X170511162Y-81026000D02*
X173497172Y-84012010D01*
X165100000Y-81026000D02*
X170511162Y-81026000D01*
X173452000Y-88864268D02*
X173401990Y-88914278D01*
X173452000Y-87053500D02*
X173452000Y-88864268D01*
%TO.N,Net-(U12-Pad10)*%
X161402000Y-103954500D02*
X161402000Y-101488000D01*
X162702000Y-100188000D02*
X162702000Y-98229500D01*
X161402000Y-101488000D02*
X162702000Y-100188000D01*
%TO.N,Net-(U12-Pad6)*%
X163352000Y-98229500D02*
X163352000Y-103954500D01*
%TO.N,Net-(U12-Pad5)*%
X130048000Y-97642000D02*
X129434000Y-97028000D01*
X130048000Y-98617000D02*
X130048000Y-97642000D01*
X129434000Y-97028000D02*
X129032000Y-97028000D01*
X129032000Y-97028000D02*
X128524000Y-96520000D01*
X162702000Y-105014000D02*
X162702000Y-103954500D01*
X162306000Y-105410000D02*
X162702000Y-105014000D01*
X157226000Y-105410000D02*
X162306000Y-105410000D01*
X154940000Y-103124000D02*
X157226000Y-105410000D01*
%TO.N,Net-(U12-Pad4)*%
X162052000Y-103954500D02*
X162052000Y-102405145D01*
X162052000Y-102405145D02*
X162102010Y-102355135D01*
X138118315Y-105664000D02*
X138684000Y-105664000D01*
X128778000Y-103567000D02*
X128778000Y-104902000D01*
X129540000Y-105664000D02*
X138118315Y-105664000D01*
X128778000Y-104902000D02*
X129540000Y-105664000D01*
%TO.N,Net-(U12-Pad2)*%
X145542000Y-98617000D02*
X145542000Y-100076000D01*
X145288000Y-100330000D02*
X145288000Y-100584000D01*
X145542000Y-100076000D02*
X145288000Y-100330000D01*
X160752000Y-103954500D02*
X160752000Y-102455185D01*
X160752000Y-102455185D02*
X160593083Y-102296268D01*
%TO.N,Net-(U14-Pad1)*%
X146812000Y-98617000D02*
X146812000Y-100096004D01*
X146812000Y-100096004D02*
X144272000Y-102636004D01*
X144272000Y-102636004D02*
X144272000Y-103567000D01*
%TO.N,Net-(D1-Pad1)*%
X181864000Y-75033500D02*
X181252500Y-75033500D01*
X179402500Y-76883500D02*
X179324000Y-76883500D01*
X181252500Y-75033500D02*
X179402500Y-76883500D01*
%TO.N,Net-(D2-Pad1)*%
X159258000Y-110919500D02*
X159258000Y-112879500D01*
%TO.N,Net-(D3-Pad1)*%
X156972000Y-112879500D02*
X156972000Y-110919500D01*
%TO.N,Net-(D4-Pad1)*%
X154686000Y-110919500D02*
X154686000Y-112879500D01*
%TO.N,Net-(D5-Pad1)*%
X152400000Y-112879500D02*
X152400000Y-110919500D01*
%TD*%
M02*
