%TF.GenerationSoftware,KiCad,Pcbnew,(6.0.0-0)*%
%TF.CreationDate,2022-10-19T23:34:28-04:00*%
%TF.ProjectId,Backplane-Interrupt-Handler,4261636b-706c-4616-9e65-2d496e746572,rev?*%
%TF.SameCoordinates,Original*%
%TF.FileFunction,Legend,Bot*%
%TF.FilePolarity,Positive*%
%FSLAX46Y46*%
G04 Gerber Fmt 4.6, Leading zero omitted, Abs format (unit mm)*
G04 Created by KiCad (PCBNEW (6.0.0-0)) date 2022-10-19 23:34:28*
%MOMM*%
%LPD*%
G01*
G04 APERTURE LIST*
%ADD10C,0.150000*%
G04 APERTURE END LIST*
D10*
X174204380Y-99520952D02*
X174918666Y-99520952D01*
X175061523Y-99473333D01*
X175156761Y-99378095D01*
X175204380Y-99235238D01*
X175204380Y-99140000D01*
X175204380Y-100473333D02*
X175204380Y-99997142D01*
X174204380Y-99997142D01*
X175109142Y-101378095D02*
X175156761Y-101330476D01*
X175204380Y-101187619D01*
X175204380Y-101092380D01*
X175156761Y-100949523D01*
X175061523Y-100854285D01*
X174966285Y-100806666D01*
X174775809Y-100759047D01*
X174632952Y-100759047D01*
X174442476Y-100806666D01*
X174347238Y-100854285D01*
X174252000Y-100949523D01*
X174204380Y-101092380D01*
X174204380Y-101187619D01*
X174252000Y-101330476D01*
X174299619Y-101378095D01*
X174204380Y-102092380D02*
X174918666Y-102092380D01*
X175061523Y-102044761D01*
X175156761Y-101949523D01*
X175204380Y-101806666D01*
X175204380Y-101711428D01*
X175204380Y-103044761D02*
X175204380Y-102568571D01*
X174204380Y-102568571D01*
X175109142Y-103949523D02*
X175156761Y-103901904D01*
X175204380Y-103759047D01*
X175204380Y-103663809D01*
X175156761Y-103520952D01*
X175061523Y-103425714D01*
X174966285Y-103378095D01*
X174775809Y-103330476D01*
X174632952Y-103330476D01*
X174442476Y-103378095D01*
X174347238Y-103425714D01*
X174252000Y-103520952D01*
X174204380Y-103663809D01*
X174204380Y-103759047D01*
X174252000Y-103901904D01*
X174299619Y-103949523D01*
X174204380Y-104663809D02*
X174918666Y-104663809D01*
X175061523Y-104616190D01*
X175156761Y-104520952D01*
X175204380Y-104378095D01*
X175204380Y-104282857D01*
X175204380Y-105616190D02*
X175204380Y-105140000D01*
X174204380Y-105140000D01*
X175109142Y-106520952D02*
X175156761Y-106473333D01*
X175204380Y-106330476D01*
X175204380Y-106235238D01*
X175156761Y-106092380D01*
X175061523Y-105997142D01*
X174966285Y-105949523D01*
X174775809Y-105901904D01*
X174632952Y-105901904D01*
X174442476Y-105949523D01*
X174347238Y-105997142D01*
X174252000Y-106092380D01*
X174204380Y-106235238D01*
X174204380Y-106330476D01*
X174252000Y-106473333D01*
X174299619Y-106520952D01*
X174204380Y-107235238D02*
X174918666Y-107235238D01*
X175061523Y-107187619D01*
X175156761Y-107092380D01*
X175204380Y-106949523D01*
X175204380Y-106854285D01*
X175204380Y-108187619D02*
X175204380Y-107711428D01*
X174204380Y-107711428D01*
X175109142Y-109092380D02*
X175156761Y-109044761D01*
X175204380Y-108901904D01*
X175204380Y-108806666D01*
X175156761Y-108663809D01*
X175061523Y-108568571D01*
X174966285Y-108520952D01*
X174775809Y-108473333D01*
X174632952Y-108473333D01*
X174442476Y-108520952D01*
X174347238Y-108568571D01*
X174252000Y-108663809D01*
X174204380Y-108806666D01*
X174204380Y-108901904D01*
X174252000Y-109044761D01*
X174299619Y-109092380D01*
M02*
