%TF.GenerationSoftware,KiCad,Pcbnew,(6.0.0-0)*%
%TF.CreationDate,2022-10-19T23:34:28-04:00*%
%TF.ProjectId,Backplane-Interrupt-Handler,4261636b-706c-4616-9e65-2d496e746572,rev?*%
%TF.SameCoordinates,Original*%
%TF.FileFunction,Soldermask,Bot*%
%TF.FilePolarity,Negative*%
%FSLAX46Y46*%
G04 Gerber Fmt 4.6, Leading zero omitted, Abs format (unit mm)*
G04 Created by KiCad (PCBNEW (6.0.0-0)) date 2022-10-19 23:34:28*
%MOMM*%
%LPD*%
G01*
G04 APERTURE LIST*
%ADD10C,0.800000*%
%ADD11C,6.000000*%
%ADD12R,1.700000X1.700000*%
%ADD13O,1.700000X1.700000*%
G04 APERTURE END LIST*
D10*
%TO.C,REF\u002A\u002A*%
X171383010Y-65852990D03*
X174564990Y-62671010D03*
X172974000Y-62012000D03*
D11*
X172974000Y-64262000D03*
D10*
X174564990Y-65852990D03*
X172974000Y-66512000D03*
X175224000Y-64262000D03*
X170724000Y-64262000D03*
X171383010Y-62671010D03*
%TD*%
%TO.C,REF\u002A\u002A*%
X171383010Y-116906990D03*
X174564990Y-113725010D03*
X172974000Y-113066000D03*
D11*
X172974000Y-115316000D03*
D10*
X174564990Y-116906990D03*
X172974000Y-117566000D03*
X175224000Y-115316000D03*
X170724000Y-115316000D03*
X171383010Y-113725010D03*
%TD*%
D12*
%TO.C,J3*%
X109962000Y-92391000D03*
D13*
X109962000Y-94931000D03*
X109962000Y-97471000D03*
X109962000Y-100011000D03*
X109962000Y-102551000D03*
X109962000Y-105091000D03*
X109962000Y-107631000D03*
X109962000Y-110171000D03*
%TD*%
D12*
%TO.C,J2*%
X110704000Y-119806000D03*
D13*
X113244000Y-119806000D03*
X115784000Y-119806000D03*
X118324000Y-119806000D03*
X120864000Y-119806000D03*
X123404000Y-119806000D03*
X125944000Y-119806000D03*
X128484000Y-119806000D03*
X131024000Y-119806000D03*
X133564000Y-119806000D03*
X136104000Y-119806000D03*
X138644000Y-119806000D03*
X141184000Y-119806000D03*
X143724000Y-119806000D03*
X146264000Y-119806000D03*
X148804000Y-119806000D03*
X151344000Y-119806000D03*
X153884000Y-119806000D03*
X156424000Y-119806000D03*
X158964000Y-119806000D03*
X161504000Y-119806000D03*
X164044000Y-119806000D03*
X166584000Y-119806000D03*
X169124000Y-119806000D03*
%TD*%
D12*
%TO.C,J1*%
X109962000Y-64516000D03*
D13*
X109962000Y-67056000D03*
X109962000Y-69596000D03*
X109962000Y-72136000D03*
X109962000Y-74676000D03*
X109962000Y-77216000D03*
X109962000Y-79756000D03*
X109962000Y-82296000D03*
%TD*%
D10*
%TO.C,REF\u002A\u002A*%
X114487010Y-66360990D03*
X117668990Y-63179010D03*
X116078000Y-62520000D03*
D11*
X116078000Y-64770000D03*
D10*
X117668990Y-66360990D03*
X116078000Y-67020000D03*
X118328000Y-64770000D03*
X113828000Y-64770000D03*
X114487010Y-63179010D03*
%TD*%
D12*
%TO.C,J4*%
X174040000Y-75831000D03*
D13*
X174040000Y-78371000D03*
X174040000Y-80911000D03*
X174040000Y-83451000D03*
X174040000Y-85991000D03*
X174040000Y-88531000D03*
X174040000Y-91071000D03*
X174040000Y-93611000D03*
%TD*%
M02*
