%TF.GenerationSoftware,KiCad,Pcbnew,(6.0.0-0)*%
%TF.CreationDate,2022-10-19T21:39:46-04:00*%
%TF.ProjectId,CPU-Instruction-Decoder,4350552d-496e-4737-9472-756374696f6e,rev?*%
%TF.SameCoordinates,Original*%
%TF.FileFunction,Legend,Bot*%
%TF.FilePolarity,Positive*%
%FSLAX46Y46*%
G04 Gerber Fmt 4.6, Leading zero omitted, Abs format (unit mm)*
G04 Created by KiCad (PCBNEW (6.0.0-0)) date 2022-10-19 21:39:46*
%MOMM*%
%LPD*%
G01*
G04 APERTURE LIST*
%ADD10C,0.150000*%
G04 APERTURE END LIST*
D10*
X241768380Y-223980952D02*
X242482666Y-223980952D01*
X242625523Y-223933333D01*
X242720761Y-223838095D01*
X242768380Y-223695238D01*
X242768380Y-223600000D01*
X242768380Y-224933333D02*
X242768380Y-224457142D01*
X241768380Y-224457142D01*
X242673142Y-225838095D02*
X242720761Y-225790476D01*
X242768380Y-225647619D01*
X242768380Y-225552380D01*
X242720761Y-225409523D01*
X242625523Y-225314285D01*
X242530285Y-225266666D01*
X242339809Y-225219047D01*
X242196952Y-225219047D01*
X242006476Y-225266666D01*
X241911238Y-225314285D01*
X241816000Y-225409523D01*
X241768380Y-225552380D01*
X241768380Y-225647619D01*
X241816000Y-225790476D01*
X241863619Y-225838095D01*
X241768380Y-226552380D02*
X242482666Y-226552380D01*
X242625523Y-226504761D01*
X242720761Y-226409523D01*
X242768380Y-226266666D01*
X242768380Y-226171428D01*
X242768380Y-227504761D02*
X242768380Y-227028571D01*
X241768380Y-227028571D01*
X242673142Y-228409523D02*
X242720761Y-228361904D01*
X242768380Y-228219047D01*
X242768380Y-228123809D01*
X242720761Y-227980952D01*
X242625523Y-227885714D01*
X242530285Y-227838095D01*
X242339809Y-227790476D01*
X242196952Y-227790476D01*
X242006476Y-227838095D01*
X241911238Y-227885714D01*
X241816000Y-227980952D01*
X241768380Y-228123809D01*
X241768380Y-228219047D01*
X241816000Y-228361904D01*
X241863619Y-228409523D01*
X241768380Y-229123809D02*
X242482666Y-229123809D01*
X242625523Y-229076190D01*
X242720761Y-228980952D01*
X242768380Y-228838095D01*
X242768380Y-228742857D01*
X242768380Y-230076190D02*
X242768380Y-229600000D01*
X241768380Y-229600000D01*
X242673142Y-230980952D02*
X242720761Y-230933333D01*
X242768380Y-230790476D01*
X242768380Y-230695238D01*
X242720761Y-230552380D01*
X242625523Y-230457142D01*
X242530285Y-230409523D01*
X242339809Y-230361904D01*
X242196952Y-230361904D01*
X242006476Y-230409523D01*
X241911238Y-230457142D01*
X241816000Y-230552380D01*
X241768380Y-230695238D01*
X241768380Y-230790476D01*
X241816000Y-230933333D01*
X241863619Y-230980952D01*
X241768380Y-231695238D02*
X242482666Y-231695238D01*
X242625523Y-231647619D01*
X242720761Y-231552380D01*
X242768380Y-231409523D01*
X242768380Y-231314285D01*
X242768380Y-232647619D02*
X242768380Y-232171428D01*
X241768380Y-232171428D01*
X242673142Y-233552380D02*
X242720761Y-233504761D01*
X242768380Y-233361904D01*
X242768380Y-233266666D01*
X242720761Y-233123809D01*
X242625523Y-233028571D01*
X242530285Y-232980952D01*
X242339809Y-232933333D01*
X242196952Y-232933333D01*
X242006476Y-232980952D01*
X241911238Y-233028571D01*
X241816000Y-233123809D01*
X241768380Y-233266666D01*
X241768380Y-233361904D01*
X241816000Y-233504761D01*
X241863619Y-233552380D01*
M02*
