%TF.GenerationSoftware,KiCad,Pcbnew,(5.1.10-1-10_14)*%
%TF.CreationDate,2021-07-31T09:22:51-04:00*%
%TF.ProjectId,register-smd,72656769-7374-4657-922d-736d642e6b69,rev?*%
%TF.SameCoordinates,Original*%
%TF.FileFunction,Copper,L1,Top*%
%TF.FilePolarity,Positive*%
%FSLAX46Y46*%
G04 Gerber Fmt 4.6, Leading zero omitted, Abs format (unit mm)*
G04 Created by KiCad (PCBNEW (5.1.10-1-10_14)) date 2021-07-31 09:22:51*
%MOMM*%
%LPD*%
G01*
G04 APERTURE LIST*
%TA.AperFunction,ComponentPad*%
%ADD10O,1.600000X1.600000*%
%TD*%
%TA.AperFunction,ComponentPad*%
%ADD11R,1.600000X1.600000*%
%TD*%
%TA.AperFunction,ComponentPad*%
%ADD12O,1.700000X1.700000*%
%TD*%
%TA.AperFunction,ComponentPad*%
%ADD13R,1.700000X1.700000*%
%TD*%
%TA.AperFunction,ComponentPad*%
%ADD14C,0.800000*%
%TD*%
%TA.AperFunction,ComponentPad*%
%ADD15C,6.000000*%
%TD*%
%TA.AperFunction,ViaPad*%
%ADD16C,0.800000*%
%TD*%
%TA.AperFunction,Conductor*%
%ADD17C,0.250000*%
%TD*%
%TA.AperFunction,Conductor*%
%ADD18C,0.500000*%
%TD*%
%TA.AperFunction,Conductor*%
%ADD19C,1.000000*%
%TD*%
%TA.AperFunction,Conductor*%
%ADD20C,0.750000*%
%TD*%
G04 APERTURE END LIST*
D10*
%TO.P,RN2,9*%
%TO.N,Net-(D12-Pad1)*%
X104394000Y-120396000D03*
%TO.P,RN2,8*%
%TO.N,Net-(D13-Pad1)*%
X101854000Y-120396000D03*
%TO.P,RN2,7*%
%TO.N,Net-(D14-Pad1)*%
X99314000Y-120396000D03*
%TO.P,RN2,6*%
%TO.N,Net-(D15-Pad1)*%
X96774000Y-120396000D03*
%TO.P,RN2,5*%
%TO.N,Net-(D16-Pad1)*%
X94234000Y-120396000D03*
%TO.P,RN2,4*%
%TO.N,Net-(D17-Pad1)*%
X91694000Y-120396000D03*
%TO.P,RN2,3*%
%TO.N,Net-(D18-Pad1)*%
X89154000Y-120396000D03*
%TO.P,RN2,2*%
%TO.N,Net-(D19-Pad1)*%
X86614000Y-120396000D03*
D11*
%TO.P,RN2,1*%
%TO.N,-5V_IN*%
X84074000Y-120396000D03*
%TD*%
%TO.P,R11,2*%
%TO.N,-5V_IN*%
%TA.AperFunction,SMDPad,CuDef*%
G36*
G01*
X112210001Y-90532000D02*
X111309999Y-90532000D01*
G75*
G02*
X111060000Y-90282001I0J249999D01*
G01*
X111060000Y-89756999D01*
G75*
G02*
X111309999Y-89507000I249999J0D01*
G01*
X112210001Y-89507000D01*
G75*
G02*
X112460000Y-89756999I0J-249999D01*
G01*
X112460000Y-90282001D01*
G75*
G02*
X112210001Y-90532000I-249999J0D01*
G01*
G37*
%TD.AperFunction*%
%TO.P,R11,1*%
%TO.N,Net-(D21-Pad1)*%
%TA.AperFunction,SMDPad,CuDef*%
G36*
G01*
X112210001Y-92357000D02*
X111309999Y-92357000D01*
G75*
G02*
X111060000Y-92107001I0J249999D01*
G01*
X111060000Y-91581999D01*
G75*
G02*
X111309999Y-91332000I249999J0D01*
G01*
X112210001Y-91332000D01*
G75*
G02*
X112460000Y-91581999I0J-249999D01*
G01*
X112460000Y-92107001D01*
G75*
G02*
X112210001Y-92357000I-249999J0D01*
G01*
G37*
%TD.AperFunction*%
%TD*%
%TO.P,R10,2*%
%TO.N,-5V_IN*%
%TA.AperFunction,SMDPad,CuDef*%
G36*
G01*
X109924001Y-90532000D02*
X109023999Y-90532000D01*
G75*
G02*
X108774000Y-90282001I0J249999D01*
G01*
X108774000Y-89756999D01*
G75*
G02*
X109023999Y-89507000I249999J0D01*
G01*
X109924001Y-89507000D01*
G75*
G02*
X110174000Y-89756999I0J-249999D01*
G01*
X110174000Y-90282001D01*
G75*
G02*
X109924001Y-90532000I-249999J0D01*
G01*
G37*
%TD.AperFunction*%
%TO.P,R10,1*%
%TO.N,Net-(D20-Pad1)*%
%TA.AperFunction,SMDPad,CuDef*%
G36*
G01*
X109924001Y-92357000D02*
X109023999Y-92357000D01*
G75*
G02*
X108774000Y-92107001I0J249999D01*
G01*
X108774000Y-91581999D01*
G75*
G02*
X109023999Y-91332000I249999J0D01*
G01*
X109924001Y-91332000D01*
G75*
G02*
X110174000Y-91581999I0J-249999D01*
G01*
X110174000Y-92107001D01*
G75*
G02*
X109924001Y-92357000I-249999J0D01*
G01*
G37*
%TD.AperFunction*%
%TD*%
%TO.P,D21,2*%
%TO.N,AO*%
%TA.AperFunction,SMDPad,CuDef*%
G36*
G01*
X111303750Y-95192000D02*
X112216250Y-95192000D01*
G75*
G02*
X112460000Y-95435750I0J-243750D01*
G01*
X112460000Y-95923250D01*
G75*
G02*
X112216250Y-96167000I-243750J0D01*
G01*
X111303750Y-96167000D01*
G75*
G02*
X111060000Y-95923250I0J243750D01*
G01*
X111060000Y-95435750D01*
G75*
G02*
X111303750Y-95192000I243750J0D01*
G01*
G37*
%TD.AperFunction*%
%TO.P,D21,1*%
%TO.N,Net-(D21-Pad1)*%
%TA.AperFunction,SMDPad,CuDef*%
G36*
G01*
X111303750Y-93317000D02*
X112216250Y-93317000D01*
G75*
G02*
X112460000Y-93560750I0J-243750D01*
G01*
X112460000Y-94048250D01*
G75*
G02*
X112216250Y-94292000I-243750J0D01*
G01*
X111303750Y-94292000D01*
G75*
G02*
X111060000Y-94048250I0J243750D01*
G01*
X111060000Y-93560750D01*
G75*
G02*
X111303750Y-93317000I243750J0D01*
G01*
G37*
%TD.AperFunction*%
%TD*%
%TO.P,D20,2*%
%TO.N,/A_IN_CP*%
%TA.AperFunction,SMDPad,CuDef*%
G36*
G01*
X109025750Y-95192000D02*
X109938250Y-95192000D01*
G75*
G02*
X110182000Y-95435750I0J-243750D01*
G01*
X110182000Y-95923250D01*
G75*
G02*
X109938250Y-96167000I-243750J0D01*
G01*
X109025750Y-96167000D01*
G75*
G02*
X108782000Y-95923250I0J243750D01*
G01*
X108782000Y-95435750D01*
G75*
G02*
X109025750Y-95192000I243750J0D01*
G01*
G37*
%TD.AperFunction*%
%TO.P,D20,1*%
%TO.N,Net-(D20-Pad1)*%
%TA.AperFunction,SMDPad,CuDef*%
G36*
G01*
X109025750Y-93317000D02*
X109938250Y-93317000D01*
G75*
G02*
X110182000Y-93560750I0J-243750D01*
G01*
X110182000Y-94048250D01*
G75*
G02*
X109938250Y-94292000I-243750J0D01*
G01*
X109025750Y-94292000D01*
G75*
G02*
X108782000Y-94048250I0J243750D01*
G01*
X108782000Y-93560750D01*
G75*
G02*
X109025750Y-93317000I243750J0D01*
G01*
G37*
%TD.AperFunction*%
%TD*%
%TO.P,D19,2*%
%TO.N,/A7*%
%TA.AperFunction,SMDPad,CuDef*%
G36*
G01*
X88340250Y-115882000D02*
X87427750Y-115882000D01*
G75*
G02*
X87184000Y-115638250I0J243750D01*
G01*
X87184000Y-115150750D01*
G75*
G02*
X87427750Y-114907000I243750J0D01*
G01*
X88340250Y-114907000D01*
G75*
G02*
X88584000Y-115150750I0J-243750D01*
G01*
X88584000Y-115638250D01*
G75*
G02*
X88340250Y-115882000I-243750J0D01*
G01*
G37*
%TD.AperFunction*%
%TO.P,D19,1*%
%TO.N,Net-(D19-Pad1)*%
%TA.AperFunction,SMDPad,CuDef*%
G36*
G01*
X88340250Y-117757000D02*
X87427750Y-117757000D01*
G75*
G02*
X87184000Y-117513250I0J243750D01*
G01*
X87184000Y-117025750D01*
G75*
G02*
X87427750Y-116782000I243750J0D01*
G01*
X88340250Y-116782000D01*
G75*
G02*
X88584000Y-117025750I0J-243750D01*
G01*
X88584000Y-117513250D01*
G75*
G02*
X88340250Y-117757000I-243750J0D01*
G01*
G37*
%TD.AperFunction*%
%TD*%
%TO.P,D18,2*%
%TO.N,/A6*%
%TA.AperFunction,SMDPad,CuDef*%
G36*
G01*
X90880250Y-115882000D02*
X89967750Y-115882000D01*
G75*
G02*
X89724000Y-115638250I0J243750D01*
G01*
X89724000Y-115150750D01*
G75*
G02*
X89967750Y-114907000I243750J0D01*
G01*
X90880250Y-114907000D01*
G75*
G02*
X91124000Y-115150750I0J-243750D01*
G01*
X91124000Y-115638250D01*
G75*
G02*
X90880250Y-115882000I-243750J0D01*
G01*
G37*
%TD.AperFunction*%
%TO.P,D18,1*%
%TO.N,Net-(D18-Pad1)*%
%TA.AperFunction,SMDPad,CuDef*%
G36*
G01*
X90880250Y-117757000D02*
X89967750Y-117757000D01*
G75*
G02*
X89724000Y-117513250I0J243750D01*
G01*
X89724000Y-117025750D01*
G75*
G02*
X89967750Y-116782000I243750J0D01*
G01*
X90880250Y-116782000D01*
G75*
G02*
X91124000Y-117025750I0J-243750D01*
G01*
X91124000Y-117513250D01*
G75*
G02*
X90880250Y-117757000I-243750J0D01*
G01*
G37*
%TD.AperFunction*%
%TD*%
%TO.P,D17,2*%
%TO.N,/A5*%
%TA.AperFunction,SMDPad,CuDef*%
G36*
G01*
X93420250Y-115882000D02*
X92507750Y-115882000D01*
G75*
G02*
X92264000Y-115638250I0J243750D01*
G01*
X92264000Y-115150750D01*
G75*
G02*
X92507750Y-114907000I243750J0D01*
G01*
X93420250Y-114907000D01*
G75*
G02*
X93664000Y-115150750I0J-243750D01*
G01*
X93664000Y-115638250D01*
G75*
G02*
X93420250Y-115882000I-243750J0D01*
G01*
G37*
%TD.AperFunction*%
%TO.P,D17,1*%
%TO.N,Net-(D17-Pad1)*%
%TA.AperFunction,SMDPad,CuDef*%
G36*
G01*
X93420250Y-117757000D02*
X92507750Y-117757000D01*
G75*
G02*
X92264000Y-117513250I0J243750D01*
G01*
X92264000Y-117025750D01*
G75*
G02*
X92507750Y-116782000I243750J0D01*
G01*
X93420250Y-116782000D01*
G75*
G02*
X93664000Y-117025750I0J-243750D01*
G01*
X93664000Y-117513250D01*
G75*
G02*
X93420250Y-117757000I-243750J0D01*
G01*
G37*
%TD.AperFunction*%
%TD*%
%TO.P,D16,2*%
%TO.N,/A4*%
%TA.AperFunction,SMDPad,CuDef*%
G36*
G01*
X95960250Y-115882000D02*
X95047750Y-115882000D01*
G75*
G02*
X94804000Y-115638250I0J243750D01*
G01*
X94804000Y-115150750D01*
G75*
G02*
X95047750Y-114907000I243750J0D01*
G01*
X95960250Y-114907000D01*
G75*
G02*
X96204000Y-115150750I0J-243750D01*
G01*
X96204000Y-115638250D01*
G75*
G02*
X95960250Y-115882000I-243750J0D01*
G01*
G37*
%TD.AperFunction*%
%TO.P,D16,1*%
%TO.N,Net-(D16-Pad1)*%
%TA.AperFunction,SMDPad,CuDef*%
G36*
G01*
X95960250Y-117757000D02*
X95047750Y-117757000D01*
G75*
G02*
X94804000Y-117513250I0J243750D01*
G01*
X94804000Y-117025750D01*
G75*
G02*
X95047750Y-116782000I243750J0D01*
G01*
X95960250Y-116782000D01*
G75*
G02*
X96204000Y-117025750I0J-243750D01*
G01*
X96204000Y-117513250D01*
G75*
G02*
X95960250Y-117757000I-243750J0D01*
G01*
G37*
%TD.AperFunction*%
%TD*%
%TO.P,D15,2*%
%TO.N,/A3*%
%TA.AperFunction,SMDPad,CuDef*%
G36*
G01*
X98500250Y-115882000D02*
X97587750Y-115882000D01*
G75*
G02*
X97344000Y-115638250I0J243750D01*
G01*
X97344000Y-115150750D01*
G75*
G02*
X97587750Y-114907000I243750J0D01*
G01*
X98500250Y-114907000D01*
G75*
G02*
X98744000Y-115150750I0J-243750D01*
G01*
X98744000Y-115638250D01*
G75*
G02*
X98500250Y-115882000I-243750J0D01*
G01*
G37*
%TD.AperFunction*%
%TO.P,D15,1*%
%TO.N,Net-(D15-Pad1)*%
%TA.AperFunction,SMDPad,CuDef*%
G36*
G01*
X98500250Y-117757000D02*
X97587750Y-117757000D01*
G75*
G02*
X97344000Y-117513250I0J243750D01*
G01*
X97344000Y-117025750D01*
G75*
G02*
X97587750Y-116782000I243750J0D01*
G01*
X98500250Y-116782000D01*
G75*
G02*
X98744000Y-117025750I0J-243750D01*
G01*
X98744000Y-117513250D01*
G75*
G02*
X98500250Y-117757000I-243750J0D01*
G01*
G37*
%TD.AperFunction*%
%TD*%
%TO.P,D14,2*%
%TO.N,/A2*%
%TA.AperFunction,SMDPad,CuDef*%
G36*
G01*
X101040250Y-115882000D02*
X100127750Y-115882000D01*
G75*
G02*
X99884000Y-115638250I0J243750D01*
G01*
X99884000Y-115150750D01*
G75*
G02*
X100127750Y-114907000I243750J0D01*
G01*
X101040250Y-114907000D01*
G75*
G02*
X101284000Y-115150750I0J-243750D01*
G01*
X101284000Y-115638250D01*
G75*
G02*
X101040250Y-115882000I-243750J0D01*
G01*
G37*
%TD.AperFunction*%
%TO.P,D14,1*%
%TO.N,Net-(D14-Pad1)*%
%TA.AperFunction,SMDPad,CuDef*%
G36*
G01*
X101040250Y-117757000D02*
X100127750Y-117757000D01*
G75*
G02*
X99884000Y-117513250I0J243750D01*
G01*
X99884000Y-117025750D01*
G75*
G02*
X100127750Y-116782000I243750J0D01*
G01*
X101040250Y-116782000D01*
G75*
G02*
X101284000Y-117025750I0J-243750D01*
G01*
X101284000Y-117513250D01*
G75*
G02*
X101040250Y-117757000I-243750J0D01*
G01*
G37*
%TD.AperFunction*%
%TD*%
%TO.P,D13,2*%
%TO.N,/A1*%
%TA.AperFunction,SMDPad,CuDef*%
G36*
G01*
X103580250Y-115882000D02*
X102667750Y-115882000D01*
G75*
G02*
X102424000Y-115638250I0J243750D01*
G01*
X102424000Y-115150750D01*
G75*
G02*
X102667750Y-114907000I243750J0D01*
G01*
X103580250Y-114907000D01*
G75*
G02*
X103824000Y-115150750I0J-243750D01*
G01*
X103824000Y-115638250D01*
G75*
G02*
X103580250Y-115882000I-243750J0D01*
G01*
G37*
%TD.AperFunction*%
%TO.P,D13,1*%
%TO.N,Net-(D13-Pad1)*%
%TA.AperFunction,SMDPad,CuDef*%
G36*
G01*
X103580250Y-117757000D02*
X102667750Y-117757000D01*
G75*
G02*
X102424000Y-117513250I0J243750D01*
G01*
X102424000Y-117025750D01*
G75*
G02*
X102667750Y-116782000I243750J0D01*
G01*
X103580250Y-116782000D01*
G75*
G02*
X103824000Y-117025750I0J-243750D01*
G01*
X103824000Y-117513250D01*
G75*
G02*
X103580250Y-117757000I-243750J0D01*
G01*
G37*
%TD.AperFunction*%
%TD*%
%TO.P,D12,2*%
%TO.N,/A0*%
%TA.AperFunction,SMDPad,CuDef*%
G36*
G01*
X106120250Y-115882000D02*
X105207750Y-115882000D01*
G75*
G02*
X104964000Y-115638250I0J243750D01*
G01*
X104964000Y-115150750D01*
G75*
G02*
X105207750Y-114907000I243750J0D01*
G01*
X106120250Y-114907000D01*
G75*
G02*
X106364000Y-115150750I0J-243750D01*
G01*
X106364000Y-115638250D01*
G75*
G02*
X106120250Y-115882000I-243750J0D01*
G01*
G37*
%TD.AperFunction*%
%TO.P,D12,1*%
%TO.N,Net-(D12-Pad1)*%
%TA.AperFunction,SMDPad,CuDef*%
G36*
G01*
X106120250Y-117757000D02*
X105207750Y-117757000D01*
G75*
G02*
X104964000Y-117513250I0J243750D01*
G01*
X104964000Y-117025750D01*
G75*
G02*
X105207750Y-116782000I243750J0D01*
G01*
X106120250Y-116782000D01*
G75*
G02*
X106364000Y-117025750I0J-243750D01*
G01*
X106364000Y-117513250D01*
G75*
G02*
X106120250Y-117757000I-243750J0D01*
G01*
G37*
%TD.AperFunction*%
%TD*%
D10*
%TO.P,RN3,9*%
%TO.N,Net-(D22-Pad1)*%
X104394000Y-140208000D03*
%TO.P,RN3,8*%
%TO.N,Net-(D23-Pad1)*%
X101854000Y-140208000D03*
%TO.P,RN3,7*%
%TO.N,Net-(D24-Pad1)*%
X99314000Y-140208000D03*
%TO.P,RN3,6*%
%TO.N,Net-(D25-Pad1)*%
X96774000Y-140208000D03*
%TO.P,RN3,5*%
%TO.N,Net-(D26-Pad1)*%
X94234000Y-140208000D03*
%TO.P,RN3,4*%
%TO.N,Net-(D27-Pad1)*%
X91694000Y-140208000D03*
%TO.P,RN3,3*%
%TO.N,Net-(D28-Pad1)*%
X89154000Y-140208000D03*
%TO.P,RN3,2*%
%TO.N,Net-(D29-Pad1)*%
X86614000Y-140208000D03*
D11*
%TO.P,RN3,1*%
%TO.N,-5V_IN*%
X84074000Y-140208000D03*
%TD*%
%TO.P,R14,2*%
%TO.N,-5V_IN*%
%TA.AperFunction,SMDPad,CuDef*%
G36*
G01*
X116782001Y-90532000D02*
X115881999Y-90532000D01*
G75*
G02*
X115632000Y-90282001I0J249999D01*
G01*
X115632000Y-89756999D01*
G75*
G02*
X115881999Y-89507000I249999J0D01*
G01*
X116782001Y-89507000D01*
G75*
G02*
X117032000Y-89756999I0J-249999D01*
G01*
X117032000Y-90282001D01*
G75*
G02*
X116782001Y-90532000I-249999J0D01*
G01*
G37*
%TD.AperFunction*%
%TO.P,R14,1*%
%TO.N,Net-(D31-Pad1)*%
%TA.AperFunction,SMDPad,CuDef*%
G36*
G01*
X116782001Y-92357000D02*
X115881999Y-92357000D01*
G75*
G02*
X115632000Y-92107001I0J249999D01*
G01*
X115632000Y-91581999D01*
G75*
G02*
X115881999Y-91332000I249999J0D01*
G01*
X116782001Y-91332000D01*
G75*
G02*
X117032000Y-91581999I0J-249999D01*
G01*
X117032000Y-92107001D01*
G75*
G02*
X116782001Y-92357000I-249999J0D01*
G01*
G37*
%TD.AperFunction*%
%TD*%
%TO.P,R13,2*%
%TO.N,-5V_IN*%
%TA.AperFunction,SMDPad,CuDef*%
G36*
G01*
X114496001Y-90532000D02*
X113595999Y-90532000D01*
G75*
G02*
X113346000Y-90282001I0J249999D01*
G01*
X113346000Y-89756999D01*
G75*
G02*
X113595999Y-89507000I249999J0D01*
G01*
X114496001Y-89507000D01*
G75*
G02*
X114746000Y-89756999I0J-249999D01*
G01*
X114746000Y-90282001D01*
G75*
G02*
X114496001Y-90532000I-249999J0D01*
G01*
G37*
%TD.AperFunction*%
%TO.P,R13,1*%
%TO.N,Net-(D30-Pad1)*%
%TA.AperFunction,SMDPad,CuDef*%
G36*
G01*
X114496001Y-92357000D02*
X113595999Y-92357000D01*
G75*
G02*
X113346000Y-92107001I0J249999D01*
G01*
X113346000Y-91581999D01*
G75*
G02*
X113595999Y-91332000I249999J0D01*
G01*
X114496001Y-91332000D01*
G75*
G02*
X114746000Y-91581999I0J-249999D01*
G01*
X114746000Y-92107001D01*
G75*
G02*
X114496001Y-92357000I-249999J0D01*
G01*
G37*
%TD.AperFunction*%
%TD*%
%TO.P,D31,2*%
%TO.N,BO*%
%TA.AperFunction,SMDPad,CuDef*%
G36*
G01*
X115875750Y-95192000D02*
X116788250Y-95192000D01*
G75*
G02*
X117032000Y-95435750I0J-243750D01*
G01*
X117032000Y-95923250D01*
G75*
G02*
X116788250Y-96167000I-243750J0D01*
G01*
X115875750Y-96167000D01*
G75*
G02*
X115632000Y-95923250I0J243750D01*
G01*
X115632000Y-95435750D01*
G75*
G02*
X115875750Y-95192000I243750J0D01*
G01*
G37*
%TD.AperFunction*%
%TO.P,D31,1*%
%TO.N,Net-(D31-Pad1)*%
%TA.AperFunction,SMDPad,CuDef*%
G36*
G01*
X115875750Y-93317000D02*
X116788250Y-93317000D01*
G75*
G02*
X117032000Y-93560750I0J-243750D01*
G01*
X117032000Y-94048250D01*
G75*
G02*
X116788250Y-94292000I-243750J0D01*
G01*
X115875750Y-94292000D01*
G75*
G02*
X115632000Y-94048250I0J243750D01*
G01*
X115632000Y-93560750D01*
G75*
G02*
X115875750Y-93317000I243750J0D01*
G01*
G37*
%TD.AperFunction*%
%TD*%
%TO.P,D30,2*%
%TO.N,/B_IN_CP*%
%TA.AperFunction,SMDPad,CuDef*%
G36*
G01*
X113589750Y-95192000D02*
X114502250Y-95192000D01*
G75*
G02*
X114746000Y-95435750I0J-243750D01*
G01*
X114746000Y-95923250D01*
G75*
G02*
X114502250Y-96167000I-243750J0D01*
G01*
X113589750Y-96167000D01*
G75*
G02*
X113346000Y-95923250I0J243750D01*
G01*
X113346000Y-95435750D01*
G75*
G02*
X113589750Y-95192000I243750J0D01*
G01*
G37*
%TD.AperFunction*%
%TO.P,D30,1*%
%TO.N,Net-(D30-Pad1)*%
%TA.AperFunction,SMDPad,CuDef*%
G36*
G01*
X113589750Y-93317000D02*
X114502250Y-93317000D01*
G75*
G02*
X114746000Y-93560750I0J-243750D01*
G01*
X114746000Y-94048250D01*
G75*
G02*
X114502250Y-94292000I-243750J0D01*
G01*
X113589750Y-94292000D01*
G75*
G02*
X113346000Y-94048250I0J243750D01*
G01*
X113346000Y-93560750D01*
G75*
G02*
X113589750Y-93317000I243750J0D01*
G01*
G37*
%TD.AperFunction*%
%TD*%
%TO.P,D29,2*%
%TO.N,/B7*%
%TA.AperFunction,SMDPad,CuDef*%
G36*
G01*
X88340250Y-135694000D02*
X87427750Y-135694000D01*
G75*
G02*
X87184000Y-135450250I0J243750D01*
G01*
X87184000Y-134962750D01*
G75*
G02*
X87427750Y-134719000I243750J0D01*
G01*
X88340250Y-134719000D01*
G75*
G02*
X88584000Y-134962750I0J-243750D01*
G01*
X88584000Y-135450250D01*
G75*
G02*
X88340250Y-135694000I-243750J0D01*
G01*
G37*
%TD.AperFunction*%
%TO.P,D29,1*%
%TO.N,Net-(D29-Pad1)*%
%TA.AperFunction,SMDPad,CuDef*%
G36*
G01*
X88340250Y-137569000D02*
X87427750Y-137569000D01*
G75*
G02*
X87184000Y-137325250I0J243750D01*
G01*
X87184000Y-136837750D01*
G75*
G02*
X87427750Y-136594000I243750J0D01*
G01*
X88340250Y-136594000D01*
G75*
G02*
X88584000Y-136837750I0J-243750D01*
G01*
X88584000Y-137325250D01*
G75*
G02*
X88340250Y-137569000I-243750J0D01*
G01*
G37*
%TD.AperFunction*%
%TD*%
%TO.P,D28,2*%
%TO.N,/B6*%
%TA.AperFunction,SMDPad,CuDef*%
G36*
G01*
X90880250Y-135694000D02*
X89967750Y-135694000D01*
G75*
G02*
X89724000Y-135450250I0J243750D01*
G01*
X89724000Y-134962750D01*
G75*
G02*
X89967750Y-134719000I243750J0D01*
G01*
X90880250Y-134719000D01*
G75*
G02*
X91124000Y-134962750I0J-243750D01*
G01*
X91124000Y-135450250D01*
G75*
G02*
X90880250Y-135694000I-243750J0D01*
G01*
G37*
%TD.AperFunction*%
%TO.P,D28,1*%
%TO.N,Net-(D28-Pad1)*%
%TA.AperFunction,SMDPad,CuDef*%
G36*
G01*
X90880250Y-137569000D02*
X89967750Y-137569000D01*
G75*
G02*
X89724000Y-137325250I0J243750D01*
G01*
X89724000Y-136837750D01*
G75*
G02*
X89967750Y-136594000I243750J0D01*
G01*
X90880250Y-136594000D01*
G75*
G02*
X91124000Y-136837750I0J-243750D01*
G01*
X91124000Y-137325250D01*
G75*
G02*
X90880250Y-137569000I-243750J0D01*
G01*
G37*
%TD.AperFunction*%
%TD*%
%TO.P,D27,2*%
%TO.N,/B5*%
%TA.AperFunction,SMDPad,CuDef*%
G36*
G01*
X93420250Y-135694000D02*
X92507750Y-135694000D01*
G75*
G02*
X92264000Y-135450250I0J243750D01*
G01*
X92264000Y-134962750D01*
G75*
G02*
X92507750Y-134719000I243750J0D01*
G01*
X93420250Y-134719000D01*
G75*
G02*
X93664000Y-134962750I0J-243750D01*
G01*
X93664000Y-135450250D01*
G75*
G02*
X93420250Y-135694000I-243750J0D01*
G01*
G37*
%TD.AperFunction*%
%TO.P,D27,1*%
%TO.N,Net-(D27-Pad1)*%
%TA.AperFunction,SMDPad,CuDef*%
G36*
G01*
X93420250Y-137569000D02*
X92507750Y-137569000D01*
G75*
G02*
X92264000Y-137325250I0J243750D01*
G01*
X92264000Y-136837750D01*
G75*
G02*
X92507750Y-136594000I243750J0D01*
G01*
X93420250Y-136594000D01*
G75*
G02*
X93664000Y-136837750I0J-243750D01*
G01*
X93664000Y-137325250D01*
G75*
G02*
X93420250Y-137569000I-243750J0D01*
G01*
G37*
%TD.AperFunction*%
%TD*%
%TO.P,D26,2*%
%TO.N,/B4*%
%TA.AperFunction,SMDPad,CuDef*%
G36*
G01*
X95960250Y-135694000D02*
X95047750Y-135694000D01*
G75*
G02*
X94804000Y-135450250I0J243750D01*
G01*
X94804000Y-134962750D01*
G75*
G02*
X95047750Y-134719000I243750J0D01*
G01*
X95960250Y-134719000D01*
G75*
G02*
X96204000Y-134962750I0J-243750D01*
G01*
X96204000Y-135450250D01*
G75*
G02*
X95960250Y-135694000I-243750J0D01*
G01*
G37*
%TD.AperFunction*%
%TO.P,D26,1*%
%TO.N,Net-(D26-Pad1)*%
%TA.AperFunction,SMDPad,CuDef*%
G36*
G01*
X95960250Y-137569000D02*
X95047750Y-137569000D01*
G75*
G02*
X94804000Y-137325250I0J243750D01*
G01*
X94804000Y-136837750D01*
G75*
G02*
X95047750Y-136594000I243750J0D01*
G01*
X95960250Y-136594000D01*
G75*
G02*
X96204000Y-136837750I0J-243750D01*
G01*
X96204000Y-137325250D01*
G75*
G02*
X95960250Y-137569000I-243750J0D01*
G01*
G37*
%TD.AperFunction*%
%TD*%
%TO.P,D25,2*%
%TO.N,/B3*%
%TA.AperFunction,SMDPad,CuDef*%
G36*
G01*
X98500250Y-135694000D02*
X97587750Y-135694000D01*
G75*
G02*
X97344000Y-135450250I0J243750D01*
G01*
X97344000Y-134962750D01*
G75*
G02*
X97587750Y-134719000I243750J0D01*
G01*
X98500250Y-134719000D01*
G75*
G02*
X98744000Y-134962750I0J-243750D01*
G01*
X98744000Y-135450250D01*
G75*
G02*
X98500250Y-135694000I-243750J0D01*
G01*
G37*
%TD.AperFunction*%
%TO.P,D25,1*%
%TO.N,Net-(D25-Pad1)*%
%TA.AperFunction,SMDPad,CuDef*%
G36*
G01*
X98500250Y-137569000D02*
X97587750Y-137569000D01*
G75*
G02*
X97344000Y-137325250I0J243750D01*
G01*
X97344000Y-136837750D01*
G75*
G02*
X97587750Y-136594000I243750J0D01*
G01*
X98500250Y-136594000D01*
G75*
G02*
X98744000Y-136837750I0J-243750D01*
G01*
X98744000Y-137325250D01*
G75*
G02*
X98500250Y-137569000I-243750J0D01*
G01*
G37*
%TD.AperFunction*%
%TD*%
%TO.P,D24,2*%
%TO.N,/B2*%
%TA.AperFunction,SMDPad,CuDef*%
G36*
G01*
X101040250Y-135694000D02*
X100127750Y-135694000D01*
G75*
G02*
X99884000Y-135450250I0J243750D01*
G01*
X99884000Y-134962750D01*
G75*
G02*
X100127750Y-134719000I243750J0D01*
G01*
X101040250Y-134719000D01*
G75*
G02*
X101284000Y-134962750I0J-243750D01*
G01*
X101284000Y-135450250D01*
G75*
G02*
X101040250Y-135694000I-243750J0D01*
G01*
G37*
%TD.AperFunction*%
%TO.P,D24,1*%
%TO.N,Net-(D24-Pad1)*%
%TA.AperFunction,SMDPad,CuDef*%
G36*
G01*
X101040250Y-137569000D02*
X100127750Y-137569000D01*
G75*
G02*
X99884000Y-137325250I0J243750D01*
G01*
X99884000Y-136837750D01*
G75*
G02*
X100127750Y-136594000I243750J0D01*
G01*
X101040250Y-136594000D01*
G75*
G02*
X101284000Y-136837750I0J-243750D01*
G01*
X101284000Y-137325250D01*
G75*
G02*
X101040250Y-137569000I-243750J0D01*
G01*
G37*
%TD.AperFunction*%
%TD*%
%TO.P,D23,2*%
%TO.N,/B1*%
%TA.AperFunction,SMDPad,CuDef*%
G36*
G01*
X103580250Y-135694000D02*
X102667750Y-135694000D01*
G75*
G02*
X102424000Y-135450250I0J243750D01*
G01*
X102424000Y-134962750D01*
G75*
G02*
X102667750Y-134719000I243750J0D01*
G01*
X103580250Y-134719000D01*
G75*
G02*
X103824000Y-134962750I0J-243750D01*
G01*
X103824000Y-135450250D01*
G75*
G02*
X103580250Y-135694000I-243750J0D01*
G01*
G37*
%TD.AperFunction*%
%TO.P,D23,1*%
%TO.N,Net-(D23-Pad1)*%
%TA.AperFunction,SMDPad,CuDef*%
G36*
G01*
X103580250Y-137569000D02*
X102667750Y-137569000D01*
G75*
G02*
X102424000Y-137325250I0J243750D01*
G01*
X102424000Y-136837750D01*
G75*
G02*
X102667750Y-136594000I243750J0D01*
G01*
X103580250Y-136594000D01*
G75*
G02*
X103824000Y-136837750I0J-243750D01*
G01*
X103824000Y-137325250D01*
G75*
G02*
X103580250Y-137569000I-243750J0D01*
G01*
G37*
%TD.AperFunction*%
%TD*%
%TO.P,D22,2*%
%TO.N,/B0*%
%TA.AperFunction,SMDPad,CuDef*%
G36*
G01*
X106120250Y-135694000D02*
X105207750Y-135694000D01*
G75*
G02*
X104964000Y-135450250I0J243750D01*
G01*
X104964000Y-134962750D01*
G75*
G02*
X105207750Y-134719000I243750J0D01*
G01*
X106120250Y-134719000D01*
G75*
G02*
X106364000Y-134962750I0J-243750D01*
G01*
X106364000Y-135450250D01*
G75*
G02*
X106120250Y-135694000I-243750J0D01*
G01*
G37*
%TD.AperFunction*%
%TO.P,D22,1*%
%TO.N,Net-(D22-Pad1)*%
%TA.AperFunction,SMDPad,CuDef*%
G36*
G01*
X106120250Y-137569000D02*
X105207750Y-137569000D01*
G75*
G02*
X104964000Y-137325250I0J243750D01*
G01*
X104964000Y-136837750D01*
G75*
G02*
X105207750Y-136594000I243750J0D01*
G01*
X106120250Y-136594000D01*
G75*
G02*
X106364000Y-136837750I0J-243750D01*
G01*
X106364000Y-137325250D01*
G75*
G02*
X106120250Y-137569000I-243750J0D01*
G01*
G37*
%TD.AperFunction*%
%TD*%
D10*
%TO.P,RN4,9*%
%TO.N,Net-(D32-Pad1)*%
X104394000Y-161036000D03*
%TO.P,RN4,8*%
%TO.N,Net-(D33-Pad1)*%
X101854000Y-161036000D03*
%TO.P,RN4,7*%
%TO.N,Net-(D34-Pad1)*%
X99314000Y-161036000D03*
%TO.P,RN4,6*%
%TO.N,Net-(D35-Pad1)*%
X96774000Y-161036000D03*
%TO.P,RN4,5*%
%TO.N,Net-(D36-Pad1)*%
X94234000Y-161036000D03*
%TO.P,RN4,4*%
%TO.N,Net-(D37-Pad1)*%
X91694000Y-161036000D03*
%TO.P,RN4,3*%
%TO.N,Net-(D38-Pad1)*%
X89154000Y-161036000D03*
%TO.P,RN4,2*%
%TO.N,Net-(D39-Pad1)*%
X86614000Y-161036000D03*
D11*
%TO.P,RN4,1*%
%TO.N,-5V_IN*%
X84074000Y-161036000D03*
%TD*%
%TO.P,R17,1*%
%TO.N,Net-(D42-Pad1)*%
%TA.AperFunction,SMDPad,CuDef*%
G36*
G01*
X81125000Y-92652001D02*
X81125000Y-91751999D01*
G75*
G02*
X81374999Y-91502000I249999J0D01*
G01*
X81900001Y-91502000D01*
G75*
G02*
X82150000Y-91751999I0J-249999D01*
G01*
X82150000Y-92652001D01*
G75*
G02*
X81900001Y-92902000I-249999J0D01*
G01*
X81374999Y-92902000D01*
G75*
G02*
X81125000Y-92652001I0J249999D01*
G01*
G37*
%TD.AperFunction*%
%TO.P,R17,2*%
%TO.N,-5V_IN*%
%TA.AperFunction,SMDPad,CuDef*%
G36*
G01*
X82950000Y-92652001D02*
X82950000Y-91751999D01*
G75*
G02*
X83199999Y-91502000I249999J0D01*
G01*
X83725001Y-91502000D01*
G75*
G02*
X83975000Y-91751999I0J-249999D01*
G01*
X83975000Y-92652001D01*
G75*
G02*
X83725001Y-92902000I-249999J0D01*
G01*
X83199999Y-92902000D01*
G75*
G02*
X82950000Y-92652001I0J249999D01*
G01*
G37*
%TD.AperFunction*%
%TD*%
%TO.P,R16,2*%
%TO.N,-5V_IN*%
%TA.AperFunction,SMDPad,CuDef*%
G36*
G01*
X121354001Y-90532000D02*
X120453999Y-90532000D01*
G75*
G02*
X120204000Y-90282001I0J249999D01*
G01*
X120204000Y-89756999D01*
G75*
G02*
X120453999Y-89507000I249999J0D01*
G01*
X121354001Y-89507000D01*
G75*
G02*
X121604000Y-89756999I0J-249999D01*
G01*
X121604000Y-90282001D01*
G75*
G02*
X121354001Y-90532000I-249999J0D01*
G01*
G37*
%TD.AperFunction*%
%TO.P,R16,1*%
%TO.N,Net-(D41-Pad1)*%
%TA.AperFunction,SMDPad,CuDef*%
G36*
G01*
X121354001Y-92357000D02*
X120453999Y-92357000D01*
G75*
G02*
X120204000Y-92107001I0J249999D01*
G01*
X120204000Y-91581999D01*
G75*
G02*
X120453999Y-91332000I249999J0D01*
G01*
X121354001Y-91332000D01*
G75*
G02*
X121604000Y-91581999I0J-249999D01*
G01*
X121604000Y-92107001D01*
G75*
G02*
X121354001Y-92357000I-249999J0D01*
G01*
G37*
%TD.AperFunction*%
%TD*%
%TO.P,R15,2*%
%TO.N,-5V_IN*%
%TA.AperFunction,SMDPad,CuDef*%
G36*
G01*
X119068001Y-90532000D02*
X118167999Y-90532000D01*
G75*
G02*
X117918000Y-90282001I0J249999D01*
G01*
X117918000Y-89756999D01*
G75*
G02*
X118167999Y-89507000I249999J0D01*
G01*
X119068001Y-89507000D01*
G75*
G02*
X119318000Y-89756999I0J-249999D01*
G01*
X119318000Y-90282001D01*
G75*
G02*
X119068001Y-90532000I-249999J0D01*
G01*
G37*
%TD.AperFunction*%
%TO.P,R15,1*%
%TO.N,Net-(D40-Pad1)*%
%TA.AperFunction,SMDPad,CuDef*%
G36*
G01*
X119068001Y-92357000D02*
X118167999Y-92357000D01*
G75*
G02*
X117918000Y-92107001I0J249999D01*
G01*
X117918000Y-91581999D01*
G75*
G02*
X118167999Y-91332000I249999J0D01*
G01*
X119068001Y-91332000D01*
G75*
G02*
X119318000Y-91581999I0J-249999D01*
G01*
X119318000Y-92107001D01*
G75*
G02*
X119068001Y-92357000I-249999J0D01*
G01*
G37*
%TD.AperFunction*%
%TD*%
%TO.P,D42,1*%
%TO.N,Net-(D42-Pad1)*%
%TA.AperFunction,SMDPad,CuDef*%
G36*
G01*
X80419000Y-91745750D02*
X80419000Y-92658250D01*
G75*
G02*
X80175250Y-92902000I-243750J0D01*
G01*
X79687750Y-92902000D01*
G75*
G02*
X79444000Y-92658250I0J243750D01*
G01*
X79444000Y-91745750D01*
G75*
G02*
X79687750Y-91502000I243750J0D01*
G01*
X80175250Y-91502000D01*
G75*
G02*
X80419000Y-91745750I0J-243750D01*
G01*
G37*
%TD.AperFunction*%
%TO.P,D42,2*%
%TO.N,MR*%
%TA.AperFunction,SMDPad,CuDef*%
G36*
G01*
X78544000Y-91745750D02*
X78544000Y-92658250D01*
G75*
G02*
X78300250Y-92902000I-243750J0D01*
G01*
X77812750Y-92902000D01*
G75*
G02*
X77569000Y-92658250I0J243750D01*
G01*
X77569000Y-91745750D01*
G75*
G02*
X77812750Y-91502000I243750J0D01*
G01*
X78300250Y-91502000D01*
G75*
G02*
X78544000Y-91745750I0J-243750D01*
G01*
G37*
%TD.AperFunction*%
%TD*%
%TO.P,D41,2*%
%TO.N,CO*%
%TA.AperFunction,SMDPad,CuDef*%
G36*
G01*
X120447750Y-95192000D02*
X121360250Y-95192000D01*
G75*
G02*
X121604000Y-95435750I0J-243750D01*
G01*
X121604000Y-95923250D01*
G75*
G02*
X121360250Y-96167000I-243750J0D01*
G01*
X120447750Y-96167000D01*
G75*
G02*
X120204000Y-95923250I0J243750D01*
G01*
X120204000Y-95435750D01*
G75*
G02*
X120447750Y-95192000I243750J0D01*
G01*
G37*
%TD.AperFunction*%
%TO.P,D41,1*%
%TO.N,Net-(D41-Pad1)*%
%TA.AperFunction,SMDPad,CuDef*%
G36*
G01*
X120447750Y-93317000D02*
X121360250Y-93317000D01*
G75*
G02*
X121604000Y-93560750I0J-243750D01*
G01*
X121604000Y-94048250D01*
G75*
G02*
X121360250Y-94292000I-243750J0D01*
G01*
X120447750Y-94292000D01*
G75*
G02*
X120204000Y-94048250I0J243750D01*
G01*
X120204000Y-93560750D01*
G75*
G02*
X120447750Y-93317000I243750J0D01*
G01*
G37*
%TD.AperFunction*%
%TD*%
%TO.P,D40,2*%
%TO.N,/C_IN_CP*%
%TA.AperFunction,SMDPad,CuDef*%
G36*
G01*
X118161750Y-95192000D02*
X119074250Y-95192000D01*
G75*
G02*
X119318000Y-95435750I0J-243750D01*
G01*
X119318000Y-95923250D01*
G75*
G02*
X119074250Y-96167000I-243750J0D01*
G01*
X118161750Y-96167000D01*
G75*
G02*
X117918000Y-95923250I0J243750D01*
G01*
X117918000Y-95435750D01*
G75*
G02*
X118161750Y-95192000I243750J0D01*
G01*
G37*
%TD.AperFunction*%
%TO.P,D40,1*%
%TO.N,Net-(D40-Pad1)*%
%TA.AperFunction,SMDPad,CuDef*%
G36*
G01*
X118161750Y-93317000D02*
X119074250Y-93317000D01*
G75*
G02*
X119318000Y-93560750I0J-243750D01*
G01*
X119318000Y-94048250D01*
G75*
G02*
X119074250Y-94292000I-243750J0D01*
G01*
X118161750Y-94292000D01*
G75*
G02*
X117918000Y-94048250I0J243750D01*
G01*
X117918000Y-93560750D01*
G75*
G02*
X118161750Y-93317000I243750J0D01*
G01*
G37*
%TD.AperFunction*%
%TD*%
%TO.P,D39,2*%
%TO.N,/C7*%
%TA.AperFunction,SMDPad,CuDef*%
G36*
G01*
X88340250Y-156014000D02*
X87427750Y-156014000D01*
G75*
G02*
X87184000Y-155770250I0J243750D01*
G01*
X87184000Y-155282750D01*
G75*
G02*
X87427750Y-155039000I243750J0D01*
G01*
X88340250Y-155039000D01*
G75*
G02*
X88584000Y-155282750I0J-243750D01*
G01*
X88584000Y-155770250D01*
G75*
G02*
X88340250Y-156014000I-243750J0D01*
G01*
G37*
%TD.AperFunction*%
%TO.P,D39,1*%
%TO.N,Net-(D39-Pad1)*%
%TA.AperFunction,SMDPad,CuDef*%
G36*
G01*
X88340250Y-157889000D02*
X87427750Y-157889000D01*
G75*
G02*
X87184000Y-157645250I0J243750D01*
G01*
X87184000Y-157157750D01*
G75*
G02*
X87427750Y-156914000I243750J0D01*
G01*
X88340250Y-156914000D01*
G75*
G02*
X88584000Y-157157750I0J-243750D01*
G01*
X88584000Y-157645250D01*
G75*
G02*
X88340250Y-157889000I-243750J0D01*
G01*
G37*
%TD.AperFunction*%
%TD*%
%TO.P,D38,2*%
%TO.N,/C6*%
%TA.AperFunction,SMDPad,CuDef*%
G36*
G01*
X90880250Y-156014000D02*
X89967750Y-156014000D01*
G75*
G02*
X89724000Y-155770250I0J243750D01*
G01*
X89724000Y-155282750D01*
G75*
G02*
X89967750Y-155039000I243750J0D01*
G01*
X90880250Y-155039000D01*
G75*
G02*
X91124000Y-155282750I0J-243750D01*
G01*
X91124000Y-155770250D01*
G75*
G02*
X90880250Y-156014000I-243750J0D01*
G01*
G37*
%TD.AperFunction*%
%TO.P,D38,1*%
%TO.N,Net-(D38-Pad1)*%
%TA.AperFunction,SMDPad,CuDef*%
G36*
G01*
X90880250Y-157889000D02*
X89967750Y-157889000D01*
G75*
G02*
X89724000Y-157645250I0J243750D01*
G01*
X89724000Y-157157750D01*
G75*
G02*
X89967750Y-156914000I243750J0D01*
G01*
X90880250Y-156914000D01*
G75*
G02*
X91124000Y-157157750I0J-243750D01*
G01*
X91124000Y-157645250D01*
G75*
G02*
X90880250Y-157889000I-243750J0D01*
G01*
G37*
%TD.AperFunction*%
%TD*%
%TO.P,D37,2*%
%TO.N,/C5*%
%TA.AperFunction,SMDPad,CuDef*%
G36*
G01*
X93420250Y-156014000D02*
X92507750Y-156014000D01*
G75*
G02*
X92264000Y-155770250I0J243750D01*
G01*
X92264000Y-155282750D01*
G75*
G02*
X92507750Y-155039000I243750J0D01*
G01*
X93420250Y-155039000D01*
G75*
G02*
X93664000Y-155282750I0J-243750D01*
G01*
X93664000Y-155770250D01*
G75*
G02*
X93420250Y-156014000I-243750J0D01*
G01*
G37*
%TD.AperFunction*%
%TO.P,D37,1*%
%TO.N,Net-(D37-Pad1)*%
%TA.AperFunction,SMDPad,CuDef*%
G36*
G01*
X93420250Y-157889000D02*
X92507750Y-157889000D01*
G75*
G02*
X92264000Y-157645250I0J243750D01*
G01*
X92264000Y-157157750D01*
G75*
G02*
X92507750Y-156914000I243750J0D01*
G01*
X93420250Y-156914000D01*
G75*
G02*
X93664000Y-157157750I0J-243750D01*
G01*
X93664000Y-157645250D01*
G75*
G02*
X93420250Y-157889000I-243750J0D01*
G01*
G37*
%TD.AperFunction*%
%TD*%
%TO.P,D36,2*%
%TO.N,/C4*%
%TA.AperFunction,SMDPad,CuDef*%
G36*
G01*
X95960250Y-156014000D02*
X95047750Y-156014000D01*
G75*
G02*
X94804000Y-155770250I0J243750D01*
G01*
X94804000Y-155282750D01*
G75*
G02*
X95047750Y-155039000I243750J0D01*
G01*
X95960250Y-155039000D01*
G75*
G02*
X96204000Y-155282750I0J-243750D01*
G01*
X96204000Y-155770250D01*
G75*
G02*
X95960250Y-156014000I-243750J0D01*
G01*
G37*
%TD.AperFunction*%
%TO.P,D36,1*%
%TO.N,Net-(D36-Pad1)*%
%TA.AperFunction,SMDPad,CuDef*%
G36*
G01*
X95960250Y-157889000D02*
X95047750Y-157889000D01*
G75*
G02*
X94804000Y-157645250I0J243750D01*
G01*
X94804000Y-157157750D01*
G75*
G02*
X95047750Y-156914000I243750J0D01*
G01*
X95960250Y-156914000D01*
G75*
G02*
X96204000Y-157157750I0J-243750D01*
G01*
X96204000Y-157645250D01*
G75*
G02*
X95960250Y-157889000I-243750J0D01*
G01*
G37*
%TD.AperFunction*%
%TD*%
%TO.P,D35,2*%
%TO.N,/C3*%
%TA.AperFunction,SMDPad,CuDef*%
G36*
G01*
X98500250Y-156014000D02*
X97587750Y-156014000D01*
G75*
G02*
X97344000Y-155770250I0J243750D01*
G01*
X97344000Y-155282750D01*
G75*
G02*
X97587750Y-155039000I243750J0D01*
G01*
X98500250Y-155039000D01*
G75*
G02*
X98744000Y-155282750I0J-243750D01*
G01*
X98744000Y-155770250D01*
G75*
G02*
X98500250Y-156014000I-243750J0D01*
G01*
G37*
%TD.AperFunction*%
%TO.P,D35,1*%
%TO.N,Net-(D35-Pad1)*%
%TA.AperFunction,SMDPad,CuDef*%
G36*
G01*
X98500250Y-157889000D02*
X97587750Y-157889000D01*
G75*
G02*
X97344000Y-157645250I0J243750D01*
G01*
X97344000Y-157157750D01*
G75*
G02*
X97587750Y-156914000I243750J0D01*
G01*
X98500250Y-156914000D01*
G75*
G02*
X98744000Y-157157750I0J-243750D01*
G01*
X98744000Y-157645250D01*
G75*
G02*
X98500250Y-157889000I-243750J0D01*
G01*
G37*
%TD.AperFunction*%
%TD*%
%TO.P,D34,2*%
%TO.N,/C2*%
%TA.AperFunction,SMDPad,CuDef*%
G36*
G01*
X101040250Y-156014000D02*
X100127750Y-156014000D01*
G75*
G02*
X99884000Y-155770250I0J243750D01*
G01*
X99884000Y-155282750D01*
G75*
G02*
X100127750Y-155039000I243750J0D01*
G01*
X101040250Y-155039000D01*
G75*
G02*
X101284000Y-155282750I0J-243750D01*
G01*
X101284000Y-155770250D01*
G75*
G02*
X101040250Y-156014000I-243750J0D01*
G01*
G37*
%TD.AperFunction*%
%TO.P,D34,1*%
%TO.N,Net-(D34-Pad1)*%
%TA.AperFunction,SMDPad,CuDef*%
G36*
G01*
X101040250Y-157889000D02*
X100127750Y-157889000D01*
G75*
G02*
X99884000Y-157645250I0J243750D01*
G01*
X99884000Y-157157750D01*
G75*
G02*
X100127750Y-156914000I243750J0D01*
G01*
X101040250Y-156914000D01*
G75*
G02*
X101284000Y-157157750I0J-243750D01*
G01*
X101284000Y-157645250D01*
G75*
G02*
X101040250Y-157889000I-243750J0D01*
G01*
G37*
%TD.AperFunction*%
%TD*%
%TO.P,D33,2*%
%TO.N,/C1*%
%TA.AperFunction,SMDPad,CuDef*%
G36*
G01*
X103580250Y-156014000D02*
X102667750Y-156014000D01*
G75*
G02*
X102424000Y-155770250I0J243750D01*
G01*
X102424000Y-155282750D01*
G75*
G02*
X102667750Y-155039000I243750J0D01*
G01*
X103580250Y-155039000D01*
G75*
G02*
X103824000Y-155282750I0J-243750D01*
G01*
X103824000Y-155770250D01*
G75*
G02*
X103580250Y-156014000I-243750J0D01*
G01*
G37*
%TD.AperFunction*%
%TO.P,D33,1*%
%TO.N,Net-(D33-Pad1)*%
%TA.AperFunction,SMDPad,CuDef*%
G36*
G01*
X103580250Y-157889000D02*
X102667750Y-157889000D01*
G75*
G02*
X102424000Y-157645250I0J243750D01*
G01*
X102424000Y-157157750D01*
G75*
G02*
X102667750Y-156914000I243750J0D01*
G01*
X103580250Y-156914000D01*
G75*
G02*
X103824000Y-157157750I0J-243750D01*
G01*
X103824000Y-157645250D01*
G75*
G02*
X103580250Y-157889000I-243750J0D01*
G01*
G37*
%TD.AperFunction*%
%TD*%
%TO.P,D32,2*%
%TO.N,/C0*%
%TA.AperFunction,SMDPad,CuDef*%
G36*
G01*
X106120250Y-156014000D02*
X105207750Y-156014000D01*
G75*
G02*
X104964000Y-155770250I0J243750D01*
G01*
X104964000Y-155282750D01*
G75*
G02*
X105207750Y-155039000I243750J0D01*
G01*
X106120250Y-155039000D01*
G75*
G02*
X106364000Y-155282750I0J-243750D01*
G01*
X106364000Y-155770250D01*
G75*
G02*
X106120250Y-156014000I-243750J0D01*
G01*
G37*
%TD.AperFunction*%
%TO.P,D32,1*%
%TO.N,Net-(D32-Pad1)*%
%TA.AperFunction,SMDPad,CuDef*%
G36*
G01*
X106120250Y-157889000D02*
X105207750Y-157889000D01*
G75*
G02*
X104964000Y-157645250I0J243750D01*
G01*
X104964000Y-157157750D01*
G75*
G02*
X105207750Y-156914000I243750J0D01*
G01*
X106120250Y-156914000D01*
G75*
G02*
X106364000Y-157157750I0J-243750D01*
G01*
X106364000Y-157645250D01*
G75*
G02*
X106120250Y-157889000I-243750J0D01*
G01*
G37*
%TD.AperFunction*%
%TD*%
D10*
%TO.P,RN1,9*%
%TO.N,Net-(D1-Pad1)*%
X105918000Y-180594000D03*
%TO.P,RN1,8*%
%TO.N,Net-(D2-Pad1)*%
X103378000Y-180594000D03*
%TO.P,RN1,7*%
%TO.N,Net-(D3-Pad1)*%
X100838000Y-180594000D03*
%TO.P,RN1,6*%
%TO.N,Net-(D4-Pad1)*%
X98298000Y-180594000D03*
%TO.P,RN1,5*%
%TO.N,Net-(D5-Pad1)*%
X95758000Y-180594000D03*
%TO.P,RN1,4*%
%TO.N,Net-(D6-Pad1)*%
X93218000Y-180594000D03*
%TO.P,RN1,3*%
%TO.N,Net-(D7-Pad1)*%
X90678000Y-180594000D03*
%TO.P,RN1,2*%
%TO.N,Net-(D8-Pad1)*%
X88138000Y-180594000D03*
D11*
%TO.P,RN1,1*%
%TO.N,-5V_IN*%
X85598000Y-180594000D03*
%TD*%
%TO.P,R9,2*%
%TO.N,-5V_IN*%
%TA.AperFunction,SMDPad,CuDef*%
G36*
G01*
X115881999Y-163976000D02*
X116782001Y-163976000D01*
G75*
G02*
X117032000Y-164225999I0J-249999D01*
G01*
X117032000Y-164751001D01*
G75*
G02*
X116782001Y-165001000I-249999J0D01*
G01*
X115881999Y-165001000D01*
G75*
G02*
X115632000Y-164751001I0J249999D01*
G01*
X115632000Y-164225999D01*
G75*
G02*
X115881999Y-163976000I249999J0D01*
G01*
G37*
%TD.AperFunction*%
%TO.P,R9,1*%
%TO.N,Net-(D11-Pad1)*%
%TA.AperFunction,SMDPad,CuDef*%
G36*
G01*
X115881999Y-162151000D02*
X116782001Y-162151000D01*
G75*
G02*
X117032000Y-162400999I0J-249999D01*
G01*
X117032000Y-162926001D01*
G75*
G02*
X116782001Y-163176000I-249999J0D01*
G01*
X115881999Y-163176000D01*
G75*
G02*
X115632000Y-162926001I0J249999D01*
G01*
X115632000Y-162400999D01*
G75*
G02*
X115881999Y-162151000I249999J0D01*
G01*
G37*
%TD.AperFunction*%
%TD*%
%TO.P,R8,2*%
%TO.N,-5V_IN*%
%TA.AperFunction,SMDPad,CuDef*%
G36*
G01*
X120961999Y-163976000D02*
X121862001Y-163976000D01*
G75*
G02*
X122112000Y-164225999I0J-249999D01*
G01*
X122112000Y-164751001D01*
G75*
G02*
X121862001Y-165001000I-249999J0D01*
G01*
X120961999Y-165001000D01*
G75*
G02*
X120712000Y-164751001I0J249999D01*
G01*
X120712000Y-164225999D01*
G75*
G02*
X120961999Y-163976000I249999J0D01*
G01*
G37*
%TD.AperFunction*%
%TO.P,R8,1*%
%TO.N,Net-(D10-Pad1)*%
%TA.AperFunction,SMDPad,CuDef*%
G36*
G01*
X120961999Y-162151000D02*
X121862001Y-162151000D01*
G75*
G02*
X122112000Y-162400999I0J-249999D01*
G01*
X122112000Y-162926001D01*
G75*
G02*
X121862001Y-163176000I-249999J0D01*
G01*
X120961999Y-163176000D01*
G75*
G02*
X120712000Y-162926001I0J249999D01*
G01*
X120712000Y-162400999D01*
G75*
G02*
X120961999Y-162151000I249999J0D01*
G01*
G37*
%TD.AperFunction*%
%TD*%
%TO.P,R7,2*%
%TO.N,-5V_IN*%
%TA.AperFunction,SMDPad,CuDef*%
G36*
G01*
X118421999Y-163976000D02*
X119322001Y-163976000D01*
G75*
G02*
X119572000Y-164225999I0J-249999D01*
G01*
X119572000Y-164751001D01*
G75*
G02*
X119322001Y-165001000I-249999J0D01*
G01*
X118421999Y-165001000D01*
G75*
G02*
X118172000Y-164751001I0J249999D01*
G01*
X118172000Y-164225999D01*
G75*
G02*
X118421999Y-163976000I249999J0D01*
G01*
G37*
%TD.AperFunction*%
%TO.P,R7,1*%
%TO.N,Net-(D9-Pad1)*%
%TA.AperFunction,SMDPad,CuDef*%
G36*
G01*
X118421999Y-162151000D02*
X119322001Y-162151000D01*
G75*
G02*
X119572000Y-162400999I0J-249999D01*
G01*
X119572000Y-162926001D01*
G75*
G02*
X119322001Y-163176000I-249999J0D01*
G01*
X118421999Y-163176000D01*
G75*
G02*
X118172000Y-162926001I0J249999D01*
G01*
X118172000Y-162400999D01*
G75*
G02*
X118421999Y-162151000I249999J0D01*
G01*
G37*
%TD.AperFunction*%
%TD*%
%TO.P,D11,2*%
%TO.N,A_GT_B*%
%TA.AperFunction,SMDPad,CuDef*%
G36*
G01*
X116788250Y-159316000D02*
X115875750Y-159316000D01*
G75*
G02*
X115632000Y-159072250I0J243750D01*
G01*
X115632000Y-158584750D01*
G75*
G02*
X115875750Y-158341000I243750J0D01*
G01*
X116788250Y-158341000D01*
G75*
G02*
X117032000Y-158584750I0J-243750D01*
G01*
X117032000Y-159072250D01*
G75*
G02*
X116788250Y-159316000I-243750J0D01*
G01*
G37*
%TD.AperFunction*%
%TO.P,D11,1*%
%TO.N,Net-(D11-Pad1)*%
%TA.AperFunction,SMDPad,CuDef*%
G36*
G01*
X116788250Y-161191000D02*
X115875750Y-161191000D01*
G75*
G02*
X115632000Y-160947250I0J243750D01*
G01*
X115632000Y-160459750D01*
G75*
G02*
X115875750Y-160216000I243750J0D01*
G01*
X116788250Y-160216000D01*
G75*
G02*
X117032000Y-160459750I0J-243750D01*
G01*
X117032000Y-160947250D01*
G75*
G02*
X116788250Y-161191000I-243750J0D01*
G01*
G37*
%TD.AperFunction*%
%TD*%
%TO.P,D10,2*%
%TO.N,A_EQ_B*%
%TA.AperFunction,SMDPad,CuDef*%
G36*
G01*
X121868250Y-159316000D02*
X120955750Y-159316000D01*
G75*
G02*
X120712000Y-159072250I0J243750D01*
G01*
X120712000Y-158584750D01*
G75*
G02*
X120955750Y-158341000I243750J0D01*
G01*
X121868250Y-158341000D01*
G75*
G02*
X122112000Y-158584750I0J-243750D01*
G01*
X122112000Y-159072250D01*
G75*
G02*
X121868250Y-159316000I-243750J0D01*
G01*
G37*
%TD.AperFunction*%
%TO.P,D10,1*%
%TO.N,Net-(D10-Pad1)*%
%TA.AperFunction,SMDPad,CuDef*%
G36*
G01*
X121868250Y-161191000D02*
X120955750Y-161191000D01*
G75*
G02*
X120712000Y-160947250I0J243750D01*
G01*
X120712000Y-160459750D01*
G75*
G02*
X120955750Y-160216000I243750J0D01*
G01*
X121868250Y-160216000D01*
G75*
G02*
X122112000Y-160459750I0J-243750D01*
G01*
X122112000Y-160947250D01*
G75*
G02*
X121868250Y-161191000I-243750J0D01*
G01*
G37*
%TD.AperFunction*%
%TD*%
%TO.P,D9,2*%
%TO.N,CARRY*%
%TA.AperFunction,SMDPad,CuDef*%
G36*
G01*
X119328250Y-159316000D02*
X118415750Y-159316000D01*
G75*
G02*
X118172000Y-159072250I0J243750D01*
G01*
X118172000Y-158584750D01*
G75*
G02*
X118415750Y-158341000I243750J0D01*
G01*
X119328250Y-158341000D01*
G75*
G02*
X119572000Y-158584750I0J-243750D01*
G01*
X119572000Y-159072250D01*
G75*
G02*
X119328250Y-159316000I-243750J0D01*
G01*
G37*
%TD.AperFunction*%
%TO.P,D9,1*%
%TO.N,Net-(D9-Pad1)*%
%TA.AperFunction,SMDPad,CuDef*%
G36*
G01*
X119328250Y-161191000D02*
X118415750Y-161191000D01*
G75*
G02*
X118172000Y-160947250I0J243750D01*
G01*
X118172000Y-160459750D01*
G75*
G02*
X118415750Y-160216000I243750J0D01*
G01*
X119328250Y-160216000D01*
G75*
G02*
X119572000Y-160459750I0J-243750D01*
G01*
X119572000Y-160947250D01*
G75*
G02*
X119328250Y-161191000I-243750J0D01*
G01*
G37*
%TD.AperFunction*%
%TD*%
%TO.P,D8,2*%
%TO.N,/ALU7*%
%TA.AperFunction,SMDPad,CuDef*%
G36*
G01*
X88340250Y-175938000D02*
X87427750Y-175938000D01*
G75*
G02*
X87184000Y-175694250I0J243750D01*
G01*
X87184000Y-175206750D01*
G75*
G02*
X87427750Y-174963000I243750J0D01*
G01*
X88340250Y-174963000D01*
G75*
G02*
X88584000Y-175206750I0J-243750D01*
G01*
X88584000Y-175694250D01*
G75*
G02*
X88340250Y-175938000I-243750J0D01*
G01*
G37*
%TD.AperFunction*%
%TO.P,D8,1*%
%TO.N,Net-(D8-Pad1)*%
%TA.AperFunction,SMDPad,CuDef*%
G36*
G01*
X88340250Y-177813000D02*
X87427750Y-177813000D01*
G75*
G02*
X87184000Y-177569250I0J243750D01*
G01*
X87184000Y-177081750D01*
G75*
G02*
X87427750Y-176838000I243750J0D01*
G01*
X88340250Y-176838000D01*
G75*
G02*
X88584000Y-177081750I0J-243750D01*
G01*
X88584000Y-177569250D01*
G75*
G02*
X88340250Y-177813000I-243750J0D01*
G01*
G37*
%TD.AperFunction*%
%TD*%
%TO.P,D7,2*%
%TO.N,/ALU6*%
%TA.AperFunction,SMDPad,CuDef*%
G36*
G01*
X90880250Y-175938000D02*
X89967750Y-175938000D01*
G75*
G02*
X89724000Y-175694250I0J243750D01*
G01*
X89724000Y-175206750D01*
G75*
G02*
X89967750Y-174963000I243750J0D01*
G01*
X90880250Y-174963000D01*
G75*
G02*
X91124000Y-175206750I0J-243750D01*
G01*
X91124000Y-175694250D01*
G75*
G02*
X90880250Y-175938000I-243750J0D01*
G01*
G37*
%TD.AperFunction*%
%TO.P,D7,1*%
%TO.N,Net-(D7-Pad1)*%
%TA.AperFunction,SMDPad,CuDef*%
G36*
G01*
X90880250Y-177813000D02*
X89967750Y-177813000D01*
G75*
G02*
X89724000Y-177569250I0J243750D01*
G01*
X89724000Y-177081750D01*
G75*
G02*
X89967750Y-176838000I243750J0D01*
G01*
X90880250Y-176838000D01*
G75*
G02*
X91124000Y-177081750I0J-243750D01*
G01*
X91124000Y-177569250D01*
G75*
G02*
X90880250Y-177813000I-243750J0D01*
G01*
G37*
%TD.AperFunction*%
%TD*%
%TO.P,D6,2*%
%TO.N,/ALU5*%
%TA.AperFunction,SMDPad,CuDef*%
G36*
G01*
X93420250Y-175938000D02*
X92507750Y-175938000D01*
G75*
G02*
X92264000Y-175694250I0J243750D01*
G01*
X92264000Y-175206750D01*
G75*
G02*
X92507750Y-174963000I243750J0D01*
G01*
X93420250Y-174963000D01*
G75*
G02*
X93664000Y-175206750I0J-243750D01*
G01*
X93664000Y-175694250D01*
G75*
G02*
X93420250Y-175938000I-243750J0D01*
G01*
G37*
%TD.AperFunction*%
%TO.P,D6,1*%
%TO.N,Net-(D6-Pad1)*%
%TA.AperFunction,SMDPad,CuDef*%
G36*
G01*
X93420250Y-177813000D02*
X92507750Y-177813000D01*
G75*
G02*
X92264000Y-177569250I0J243750D01*
G01*
X92264000Y-177081750D01*
G75*
G02*
X92507750Y-176838000I243750J0D01*
G01*
X93420250Y-176838000D01*
G75*
G02*
X93664000Y-177081750I0J-243750D01*
G01*
X93664000Y-177569250D01*
G75*
G02*
X93420250Y-177813000I-243750J0D01*
G01*
G37*
%TD.AperFunction*%
%TD*%
%TO.P,D5,2*%
%TO.N,/ALU4*%
%TA.AperFunction,SMDPad,CuDef*%
G36*
G01*
X95960250Y-175938000D02*
X95047750Y-175938000D01*
G75*
G02*
X94804000Y-175694250I0J243750D01*
G01*
X94804000Y-175206750D01*
G75*
G02*
X95047750Y-174963000I243750J0D01*
G01*
X95960250Y-174963000D01*
G75*
G02*
X96204000Y-175206750I0J-243750D01*
G01*
X96204000Y-175694250D01*
G75*
G02*
X95960250Y-175938000I-243750J0D01*
G01*
G37*
%TD.AperFunction*%
%TO.P,D5,1*%
%TO.N,Net-(D5-Pad1)*%
%TA.AperFunction,SMDPad,CuDef*%
G36*
G01*
X95960250Y-177813000D02*
X95047750Y-177813000D01*
G75*
G02*
X94804000Y-177569250I0J243750D01*
G01*
X94804000Y-177081750D01*
G75*
G02*
X95047750Y-176838000I243750J0D01*
G01*
X95960250Y-176838000D01*
G75*
G02*
X96204000Y-177081750I0J-243750D01*
G01*
X96204000Y-177569250D01*
G75*
G02*
X95960250Y-177813000I-243750J0D01*
G01*
G37*
%TD.AperFunction*%
%TD*%
%TO.P,D4,2*%
%TO.N,/ALU3*%
%TA.AperFunction,SMDPad,CuDef*%
G36*
G01*
X98500250Y-175948000D02*
X97587750Y-175948000D01*
G75*
G02*
X97344000Y-175704250I0J243750D01*
G01*
X97344000Y-175216750D01*
G75*
G02*
X97587750Y-174973000I243750J0D01*
G01*
X98500250Y-174973000D01*
G75*
G02*
X98744000Y-175216750I0J-243750D01*
G01*
X98744000Y-175704250D01*
G75*
G02*
X98500250Y-175948000I-243750J0D01*
G01*
G37*
%TD.AperFunction*%
%TO.P,D4,1*%
%TO.N,Net-(D4-Pad1)*%
%TA.AperFunction,SMDPad,CuDef*%
G36*
G01*
X98500250Y-177823000D02*
X97587750Y-177823000D01*
G75*
G02*
X97344000Y-177579250I0J243750D01*
G01*
X97344000Y-177091750D01*
G75*
G02*
X97587750Y-176848000I243750J0D01*
G01*
X98500250Y-176848000D01*
G75*
G02*
X98744000Y-177091750I0J-243750D01*
G01*
X98744000Y-177579250D01*
G75*
G02*
X98500250Y-177823000I-243750J0D01*
G01*
G37*
%TD.AperFunction*%
%TD*%
%TO.P,D3,2*%
%TO.N,/ALU2*%
%TA.AperFunction,SMDPad,CuDef*%
G36*
G01*
X101040250Y-175948000D02*
X100127750Y-175948000D01*
G75*
G02*
X99884000Y-175704250I0J243750D01*
G01*
X99884000Y-175216750D01*
G75*
G02*
X100127750Y-174973000I243750J0D01*
G01*
X101040250Y-174973000D01*
G75*
G02*
X101284000Y-175216750I0J-243750D01*
G01*
X101284000Y-175704250D01*
G75*
G02*
X101040250Y-175948000I-243750J0D01*
G01*
G37*
%TD.AperFunction*%
%TO.P,D3,1*%
%TO.N,Net-(D3-Pad1)*%
%TA.AperFunction,SMDPad,CuDef*%
G36*
G01*
X101040250Y-177823000D02*
X100127750Y-177823000D01*
G75*
G02*
X99884000Y-177579250I0J243750D01*
G01*
X99884000Y-177091750D01*
G75*
G02*
X100127750Y-176848000I243750J0D01*
G01*
X101040250Y-176848000D01*
G75*
G02*
X101284000Y-177091750I0J-243750D01*
G01*
X101284000Y-177579250D01*
G75*
G02*
X101040250Y-177823000I-243750J0D01*
G01*
G37*
%TD.AperFunction*%
%TD*%
%TO.P,D2,2*%
%TO.N,/ALU1*%
%TA.AperFunction,SMDPad,CuDef*%
G36*
G01*
X103580250Y-175948000D02*
X102667750Y-175948000D01*
G75*
G02*
X102424000Y-175704250I0J243750D01*
G01*
X102424000Y-175216750D01*
G75*
G02*
X102667750Y-174973000I243750J0D01*
G01*
X103580250Y-174973000D01*
G75*
G02*
X103824000Y-175216750I0J-243750D01*
G01*
X103824000Y-175704250D01*
G75*
G02*
X103580250Y-175948000I-243750J0D01*
G01*
G37*
%TD.AperFunction*%
%TO.P,D2,1*%
%TO.N,Net-(D2-Pad1)*%
%TA.AperFunction,SMDPad,CuDef*%
G36*
G01*
X103580250Y-177823000D02*
X102667750Y-177823000D01*
G75*
G02*
X102424000Y-177579250I0J243750D01*
G01*
X102424000Y-177091750D01*
G75*
G02*
X102667750Y-176848000I243750J0D01*
G01*
X103580250Y-176848000D01*
G75*
G02*
X103824000Y-177091750I0J-243750D01*
G01*
X103824000Y-177579250D01*
G75*
G02*
X103580250Y-177823000I-243750J0D01*
G01*
G37*
%TD.AperFunction*%
%TD*%
%TO.P,D1,2*%
%TO.N,/ALU0*%
%TA.AperFunction,SMDPad,CuDef*%
G36*
G01*
X106120250Y-175948000D02*
X105207750Y-175948000D01*
G75*
G02*
X104964000Y-175704250I0J243750D01*
G01*
X104964000Y-175216750D01*
G75*
G02*
X105207750Y-174973000I243750J0D01*
G01*
X106120250Y-174973000D01*
G75*
G02*
X106364000Y-175216750I0J-243750D01*
G01*
X106364000Y-175704250D01*
G75*
G02*
X106120250Y-175948000I-243750J0D01*
G01*
G37*
%TD.AperFunction*%
%TO.P,D1,1*%
%TO.N,Net-(D1-Pad1)*%
%TA.AperFunction,SMDPad,CuDef*%
G36*
G01*
X106120250Y-177823000D02*
X105207750Y-177823000D01*
G75*
G02*
X104964000Y-177579250I0J243750D01*
G01*
X104964000Y-177091750D01*
G75*
G02*
X105207750Y-176848000I243750J0D01*
G01*
X106120250Y-176848000D01*
G75*
G02*
X106364000Y-177091750I0J-243750D01*
G01*
X106364000Y-177579250D01*
G75*
G02*
X106120250Y-177823000I-243750J0D01*
G01*
G37*
%TD.AperFunction*%
%TD*%
D12*
%TO.P,J2,8*%
%TO.N,/C0*%
X127762000Y-169164000D03*
%TO.P,J2,7*%
%TO.N,/C1*%
X125222000Y-169164000D03*
%TO.P,J2,6*%
%TO.N,/C2*%
X122682000Y-169164000D03*
%TO.P,J2,5*%
%TO.N,/C3*%
X120142000Y-169164000D03*
%TO.P,J2,4*%
%TO.N,/C4*%
X117602000Y-169164000D03*
%TO.P,J2,3*%
%TO.N,/C5*%
X115062000Y-169164000D03*
%TO.P,J2,2*%
%TO.N,/C6*%
X112522000Y-169164000D03*
D13*
%TO.P,J2,1*%
%TO.N,/C7*%
X109982000Y-169164000D03*
%TD*%
D14*
%TO.P,REF\u002A\u002A,1*%
%TO.N,N/C*%
X172532990Y-177987010D03*
X170942000Y-177328000D03*
X169351010Y-177987010D03*
X168692000Y-179578000D03*
X169351010Y-181168990D03*
X170942000Y-181828000D03*
X172532990Y-181168990D03*
X173192000Y-179578000D03*
D15*
X170942000Y-179578000D03*
%TD*%
%TO.P,REF\u002A\u002A,1*%
%TO.N,N/C*%
X170942000Y-85344000D03*
D14*
X173192000Y-85344000D03*
X172532990Y-86934990D03*
X170942000Y-87594000D03*
X169351010Y-86934990D03*
X168692000Y-85344000D03*
X169351010Y-83753010D03*
X170942000Y-83094000D03*
X172532990Y-83753010D03*
%TD*%
D15*
%TO.P,REF\u002A\u002A,1*%
%TO.N,N/C*%
X78994000Y-179578000D03*
D14*
X81244000Y-179578000D03*
X80584990Y-181168990D03*
X78994000Y-181828000D03*
X77403010Y-181168990D03*
X76744000Y-179578000D03*
X77403010Y-177987010D03*
X78994000Y-177328000D03*
X80584990Y-177987010D03*
%TD*%
%TO.P,REF\u002A\u002A,1*%
%TO.N,N/C*%
X80584990Y-83499010D03*
X78994000Y-82840000D03*
X77403010Y-83499010D03*
X76744000Y-85090000D03*
X77403010Y-86680990D03*
X78994000Y-87340000D03*
X80584990Y-86680990D03*
X81244000Y-85090000D03*
D15*
X78994000Y-85090000D03*
%TD*%
D10*
%TO.P,U2,14*%
%TO.N,+5V_IN*%
X88646000Y-91186000D03*
%TO.P,U2,7*%
%TO.N,-5V_IN*%
X103886000Y-98806000D03*
%TO.P,U2,13*%
%TO.N,Net-(U10-Pad16)*%
X91186000Y-91186000D03*
%TO.P,U2,6*%
%TO.N,Net-(U1-Pad4)*%
X101346000Y-98806000D03*
%TO.P,U2,12*%
%TO.N,CARRY*%
X93726000Y-91186000D03*
%TO.P,U2,5*%
%TO.N,BI*%
X98806000Y-98806000D03*
%TO.P,U2,11*%
%TO.N,CI*%
X96266000Y-91186000D03*
%TO.P,U2,4*%
%TO.N,N/C*%
X96266000Y-98806000D03*
%TO.P,U2,10*%
%TO.N,Net-(U1-Pad9)*%
X98806000Y-91186000D03*
%TO.P,U2,3*%
%TO.N,N/C*%
X93726000Y-98806000D03*
%TO.P,U2,9*%
X101346000Y-91186000D03*
%TO.P,U2,2*%
%TO.N,Net-(U1-Pad1)*%
X91186000Y-98806000D03*
%TO.P,U2,8*%
%TO.N,N/C*%
X103886000Y-91186000D03*
D11*
%TO.P,U2,1*%
%TO.N,AI*%
X88646000Y-98806000D03*
%TD*%
D10*
%TO.P,U1,14*%
%TO.N,+5V_IN*%
X126492000Y-91186000D03*
%TO.P,U1,7*%
%TO.N,-5V_IN*%
X141732000Y-98806000D03*
%TO.P,U1,13*%
%TO.N,N/C*%
X129032000Y-91186000D03*
%TO.P,U1,6*%
%TO.N,/B_IN_CP*%
X139192000Y-98806000D03*
%TO.P,U1,12*%
%TO.N,N/C*%
X131572000Y-91186000D03*
%TO.P,U1,5*%
%TO.N,CLOCK*%
X136652000Y-98806000D03*
%TO.P,U1,11*%
%TO.N,N/C*%
X134112000Y-91186000D03*
%TO.P,U1,4*%
%TO.N,Net-(U1-Pad4)*%
X134112000Y-98806000D03*
%TO.P,U1,10*%
%TO.N,CLOCK*%
X136652000Y-91186000D03*
%TO.P,U1,3*%
%TO.N,/A_IN_CP*%
X131572000Y-98806000D03*
%TO.P,U1,9*%
%TO.N,Net-(U1-Pad9)*%
X139192000Y-91186000D03*
%TO.P,U1,2*%
%TO.N,CLOCK*%
X129032000Y-98806000D03*
%TO.P,U1,8*%
%TO.N,/C_IN_CP*%
X141732000Y-91186000D03*
D11*
%TO.P,U1,1*%
%TO.N,Net-(U1-Pad1)*%
X126492000Y-98806000D03*
%TD*%
D10*
%TO.P,U8,20*%
%TO.N,+5V_IN*%
X82296000Y-144272000D03*
%TO.P,U8,10*%
%TO.N,-5V_IN*%
X105156000Y-151892000D03*
%TO.P,U8,19*%
%TO.N,CO*%
X84836000Y-144272000D03*
%TO.P,U8,9*%
%TO.N,/C0*%
X102616000Y-151892000D03*
%TO.P,U8,18*%
%TO.N,BUS_07*%
X87376000Y-144272000D03*
%TO.P,U8,8*%
%TO.N,/C1*%
X100076000Y-151892000D03*
%TO.P,U8,17*%
%TO.N,BUS_06*%
X89916000Y-144272000D03*
%TO.P,U8,7*%
%TO.N,/C2*%
X97536000Y-151892000D03*
%TO.P,U8,16*%
%TO.N,BUS_05*%
X92456000Y-144272000D03*
%TO.P,U8,6*%
%TO.N,/C3*%
X94996000Y-151892000D03*
%TO.P,U8,15*%
%TO.N,BUS_04*%
X94996000Y-144272000D03*
%TO.P,U8,5*%
%TO.N,/C4*%
X92456000Y-151892000D03*
%TO.P,U8,14*%
%TO.N,BUS_03*%
X97536000Y-144272000D03*
%TO.P,U8,4*%
%TO.N,/C5*%
X89916000Y-151892000D03*
%TO.P,U8,13*%
%TO.N,BUS_02*%
X100076000Y-144272000D03*
%TO.P,U8,3*%
%TO.N,/C6*%
X87376000Y-151892000D03*
%TO.P,U8,12*%
%TO.N,BUS_01*%
X102616000Y-144272000D03*
%TO.P,U8,2*%
%TO.N,/C7*%
X84836000Y-151892000D03*
%TO.P,U8,11*%
%TO.N,BUS_00*%
X105156000Y-144272000D03*
D11*
%TO.P,U8,1*%
%TO.N,-5V_IN*%
X82296000Y-151892000D03*
%TD*%
D10*
%TO.P,U7,20*%
%TO.N,+5V_IN*%
X82296000Y-124460000D03*
%TO.P,U7,10*%
%TO.N,-5V_IN*%
X105156000Y-132080000D03*
%TO.P,U7,19*%
%TO.N,BO*%
X84836000Y-124460000D03*
%TO.P,U7,9*%
%TO.N,/B0*%
X102616000Y-132080000D03*
%TO.P,U7,18*%
%TO.N,BUS_07*%
X87376000Y-124460000D03*
%TO.P,U7,8*%
%TO.N,/B1*%
X100076000Y-132080000D03*
%TO.P,U7,17*%
%TO.N,BUS_06*%
X89916000Y-124460000D03*
%TO.P,U7,7*%
%TO.N,/B2*%
X97536000Y-132080000D03*
%TO.P,U7,16*%
%TO.N,BUS_05*%
X92456000Y-124460000D03*
%TO.P,U7,6*%
%TO.N,/B3*%
X94996000Y-132080000D03*
%TO.P,U7,15*%
%TO.N,BUS_04*%
X94996000Y-124460000D03*
%TO.P,U7,5*%
%TO.N,/B4*%
X92456000Y-132080000D03*
%TO.P,U7,14*%
%TO.N,BUS_03*%
X97536000Y-124460000D03*
%TO.P,U7,4*%
%TO.N,/B5*%
X89916000Y-132080000D03*
%TO.P,U7,13*%
%TO.N,BUS_02*%
X100076000Y-124460000D03*
%TO.P,U7,3*%
%TO.N,/B6*%
X87376000Y-132080000D03*
%TO.P,U7,12*%
%TO.N,BUS_01*%
X102616000Y-124460000D03*
%TO.P,U7,2*%
%TO.N,/B7*%
X84836000Y-132080000D03*
%TO.P,U7,11*%
%TO.N,BUS_00*%
X105156000Y-124460000D03*
D11*
%TO.P,U7,1*%
%TO.N,-5V_IN*%
X82296000Y-132080000D03*
%TD*%
D10*
%TO.P,U6,20*%
%TO.N,+5V_IN*%
X82296000Y-104902000D03*
%TO.P,U6,10*%
%TO.N,-5V_IN*%
X105156000Y-112522000D03*
%TO.P,U6,19*%
%TO.N,AO*%
X84836000Y-104902000D03*
%TO.P,U6,9*%
%TO.N,/A0*%
X102616000Y-112522000D03*
%TO.P,U6,18*%
%TO.N,BUS_07*%
X87376000Y-104902000D03*
%TO.P,U6,8*%
%TO.N,/A1*%
X100076000Y-112522000D03*
%TO.P,U6,17*%
%TO.N,BUS_06*%
X89916000Y-104902000D03*
%TO.P,U6,7*%
%TO.N,/A2*%
X97536000Y-112522000D03*
%TO.P,U6,16*%
%TO.N,BUS_05*%
X92456000Y-104902000D03*
%TO.P,U6,6*%
%TO.N,/A3*%
X94996000Y-112522000D03*
%TO.P,U6,15*%
%TO.N,BUS_04*%
X94996000Y-104902000D03*
%TO.P,U6,5*%
%TO.N,/A4*%
X92456000Y-112522000D03*
%TO.P,U6,14*%
%TO.N,BUS_03*%
X97536000Y-104902000D03*
%TO.P,U6,4*%
%TO.N,/A5*%
X89916000Y-112522000D03*
%TO.P,U6,13*%
%TO.N,BUS_02*%
X100076000Y-104902000D03*
%TO.P,U6,3*%
%TO.N,/A6*%
X87376000Y-112522000D03*
%TO.P,U6,12*%
%TO.N,BUS_01*%
X102616000Y-104902000D03*
%TO.P,U6,2*%
%TO.N,/A7*%
X84836000Y-112522000D03*
%TO.P,U6,11*%
%TO.N,BUS_00*%
X105156000Y-104902000D03*
D11*
%TO.P,U6,1*%
%TO.N,-5V_IN*%
X82296000Y-112522000D03*
%TD*%
D10*
%TO.P,U5,20*%
%TO.N,+5V_IN*%
X112522000Y-144272000D03*
%TO.P,U5,10*%
%TO.N,-5V_IN*%
X135382000Y-151892000D03*
%TO.P,U5,19*%
%TO.N,/C0*%
X115062000Y-144272000D03*
%TO.P,U5,9*%
%TO.N,/C4*%
X132842000Y-151892000D03*
%TO.P,U5,18*%
%TO.N,BUS_00*%
X117602000Y-144272000D03*
%TO.P,U5,8*%
%TO.N,BUS_04*%
X130302000Y-151892000D03*
%TO.P,U5,17*%
%TO.N,BUS_01*%
X120142000Y-144272000D03*
%TO.P,U5,7*%
%TO.N,BUS_05*%
X127762000Y-151892000D03*
%TO.P,U5,16*%
%TO.N,/C1*%
X122682000Y-144272000D03*
%TO.P,U5,6*%
%TO.N,/C5*%
X125222000Y-151892000D03*
%TO.P,U5,15*%
%TO.N,/C2*%
X125222000Y-144272000D03*
%TO.P,U5,5*%
%TO.N,/C6*%
X122682000Y-151892000D03*
%TO.P,U5,14*%
%TO.N,BUS_02*%
X127762000Y-144272000D03*
%TO.P,U5,4*%
%TO.N,BUS_06*%
X120142000Y-151892000D03*
%TO.P,U5,13*%
%TO.N,BUS_03*%
X130302000Y-144272000D03*
%TO.P,U5,3*%
%TO.N,BUS_07*%
X117602000Y-151892000D03*
%TO.P,U5,12*%
%TO.N,/C3*%
X132842000Y-144272000D03*
%TO.P,U5,2*%
%TO.N,/C7*%
X115062000Y-151892000D03*
%TO.P,U5,11*%
%TO.N,/C_IN_CP*%
X135382000Y-144272000D03*
D11*
%TO.P,U5,1*%
%TO.N,RESET*%
X112522000Y-151892000D03*
%TD*%
D10*
%TO.P,U4,20*%
%TO.N,+5V_IN*%
X112522000Y-124714000D03*
%TO.P,U4,10*%
%TO.N,-5V_IN*%
X135382000Y-132334000D03*
%TO.P,U4,19*%
%TO.N,/B0*%
X115062000Y-124714000D03*
%TO.P,U4,9*%
%TO.N,/B4*%
X132842000Y-132334000D03*
%TO.P,U4,18*%
%TO.N,BUS_00*%
X117602000Y-124714000D03*
%TO.P,U4,8*%
%TO.N,BUS_04*%
X130302000Y-132334000D03*
%TO.P,U4,17*%
%TO.N,BUS_01*%
X120142000Y-124714000D03*
%TO.P,U4,7*%
%TO.N,BUS_05*%
X127762000Y-132334000D03*
%TO.P,U4,16*%
%TO.N,/B1*%
X122682000Y-124714000D03*
%TO.P,U4,6*%
%TO.N,/B5*%
X125222000Y-132334000D03*
%TO.P,U4,15*%
%TO.N,/B2*%
X125222000Y-124714000D03*
%TO.P,U4,5*%
%TO.N,/B6*%
X122682000Y-132334000D03*
%TO.P,U4,14*%
%TO.N,BUS_02*%
X127762000Y-124714000D03*
%TO.P,U4,4*%
%TO.N,BUS_06*%
X120142000Y-132334000D03*
%TO.P,U4,13*%
%TO.N,BUS_03*%
X130302000Y-124714000D03*
%TO.P,U4,3*%
%TO.N,BUS_07*%
X117602000Y-132334000D03*
%TO.P,U4,12*%
%TO.N,/B3*%
X132842000Y-124714000D03*
%TO.P,U4,2*%
%TO.N,/B7*%
X115062000Y-132334000D03*
%TO.P,U4,11*%
%TO.N,/B_IN_CP*%
X135382000Y-124714000D03*
D11*
%TO.P,U4,1*%
%TO.N,RESET*%
X112522000Y-132334000D03*
%TD*%
D10*
%TO.P,U3,20*%
%TO.N,+5V_IN*%
X112522000Y-104902000D03*
%TO.P,U3,10*%
%TO.N,-5V_IN*%
X135382000Y-112522000D03*
%TO.P,U3,19*%
%TO.N,/A0*%
X115062000Y-104902000D03*
%TO.P,U3,9*%
%TO.N,/A4*%
X132842000Y-112522000D03*
%TO.P,U3,18*%
%TO.N,BUS_00*%
X117602000Y-104902000D03*
%TO.P,U3,8*%
%TO.N,BUS_04*%
X130302000Y-112522000D03*
%TO.P,U3,17*%
%TO.N,BUS_01*%
X120142000Y-104902000D03*
%TO.P,U3,7*%
%TO.N,BUS_05*%
X127762000Y-112522000D03*
%TO.P,U3,16*%
%TO.N,/A1*%
X122682000Y-104902000D03*
%TO.P,U3,6*%
%TO.N,/A5*%
X125222000Y-112522000D03*
%TO.P,U3,15*%
%TO.N,/A2*%
X125222000Y-104902000D03*
%TO.P,U3,5*%
%TO.N,/A6*%
X122682000Y-112522000D03*
%TO.P,U3,14*%
%TO.N,BUS_02*%
X127762000Y-104902000D03*
%TO.P,U3,4*%
%TO.N,BUS_06*%
X120142000Y-112522000D03*
%TO.P,U3,13*%
%TO.N,BUS_03*%
X130302000Y-104902000D03*
%TO.P,U3,3*%
%TO.N,BUS_07*%
X117602000Y-112522000D03*
%TO.P,U3,12*%
%TO.N,/A3*%
X132842000Y-104902000D03*
%TO.P,U3,2*%
%TO.N,/A7*%
X115062000Y-112522000D03*
%TO.P,U3,11*%
%TO.N,/A_IN_CP*%
X135382000Y-104902000D03*
D11*
%TO.P,U3,1*%
%TO.N,RESET*%
X112522000Y-112522000D03*
%TD*%
D10*
%TO.P,U13,20*%
%TO.N,+5V_IN*%
X82296000Y-165100000D03*
%TO.P,U13,10*%
%TO.N,-5V_IN*%
X105156000Y-172720000D03*
%TO.P,U13,19*%
%TO.N,ALU_OUT*%
X84836000Y-165100000D03*
%TO.P,U13,9*%
%TO.N,BUS_00*%
X102616000Y-172720000D03*
%TO.P,U13,18*%
%TO.N,/ALU7*%
X87376000Y-165100000D03*
%TO.P,U13,8*%
%TO.N,BUS_01*%
X100076000Y-172720000D03*
%TO.P,U13,17*%
%TO.N,/ALU6*%
X89916000Y-165100000D03*
%TO.P,U13,7*%
%TO.N,BUS_02*%
X97536000Y-172720000D03*
%TO.P,U13,16*%
%TO.N,/ALU5*%
X92456000Y-165100000D03*
%TO.P,U13,6*%
%TO.N,BUS_03*%
X94996000Y-172720000D03*
%TO.P,U13,15*%
%TO.N,/ALU4*%
X94996000Y-165100000D03*
%TO.P,U13,5*%
%TO.N,BUS_04*%
X92456000Y-172720000D03*
%TO.P,U13,14*%
%TO.N,/ALU3*%
X97536000Y-165100000D03*
%TO.P,U13,4*%
%TO.N,BUS_05*%
X89916000Y-172720000D03*
%TO.P,U13,13*%
%TO.N,/ALU2*%
X100076000Y-165100000D03*
%TO.P,U13,3*%
%TO.N,BUS_06*%
X87376000Y-172720000D03*
%TO.P,U13,12*%
%TO.N,/ALU1*%
X102616000Y-165100000D03*
%TO.P,U13,2*%
%TO.N,BUS_07*%
X84836000Y-172720000D03*
%TO.P,U13,11*%
%TO.N,/ALU0*%
X105156000Y-165100000D03*
D11*
%TO.P,U13,1*%
%TO.N,-5V_IN*%
X82296000Y-172720000D03*
%TD*%
D10*
%TO.P,U10,24*%
%TO.N,+5V_IN*%
X142038000Y-134620000D03*
%TO.P,U10,12*%
%TO.N,-5V_IN*%
X169978000Y-149860000D03*
%TO.P,U10,23*%
%TO.N,/A5*%
X144578000Y-134620000D03*
%TO.P,U10,11*%
%TO.N,/ALU6*%
X167438000Y-149860000D03*
%TO.P,U10,22*%
%TO.N,/B5*%
X147118000Y-134620000D03*
%TO.P,U10,10*%
%TO.N,/ALU5*%
X164898000Y-149860000D03*
%TO.P,U10,21*%
%TO.N,/A6*%
X149658000Y-134620000D03*
%TO.P,U10,9*%
%TO.N,/ALU4*%
X162358000Y-149860000D03*
%TO.P,U10,20*%
%TO.N,/B6*%
X152198000Y-134620000D03*
%TO.P,U10,8*%
%TO.N,ALU_MODE*%
X159818000Y-149860000D03*
%TO.P,U10,19*%
%TO.N,/A7*%
X154738000Y-134620000D03*
%TO.P,U10,7*%
%TO.N,Net-(U10-Pad7)*%
X157278000Y-149860000D03*
%TO.P,U10,18*%
%TO.N,/B7*%
X157278000Y-134620000D03*
%TO.P,U10,6*%
%TO.N,ALU_S0*%
X154738000Y-149860000D03*
%TO.P,U10,17*%
%TO.N,Net-(U10-Pad17)*%
X159818000Y-134620000D03*
%TO.P,U10,5*%
%TO.N,ALU_S1*%
X152198000Y-149860000D03*
%TO.P,U10,16*%
%TO.N,Net-(U10-Pad16)*%
X162358000Y-134620000D03*
%TO.P,U10,4*%
%TO.N,ALU_S2*%
X149658000Y-149860000D03*
%TO.P,U10,15*%
%TO.N,Net-(U10-Pad15)*%
X164898000Y-134620000D03*
%TO.P,U10,3*%
%TO.N,ALU_S3*%
X147118000Y-149860000D03*
%TO.P,U10,14*%
%TO.N,A_EQ_B*%
X167438000Y-134620000D03*
%TO.P,U10,2*%
%TO.N,/A4*%
X144578000Y-149860000D03*
%TO.P,U10,13*%
%TO.N,/ALU7*%
X169978000Y-134620000D03*
D11*
%TO.P,U10,1*%
%TO.N,/B4*%
X142038000Y-149860000D03*
%TD*%
D10*
%TO.P,U9,24*%
%TO.N,+5V_IN*%
X141986000Y-106934000D03*
%TO.P,U9,12*%
%TO.N,-5V_IN*%
X169926000Y-122174000D03*
%TO.P,U9,23*%
%TO.N,/A1*%
X144526000Y-106934000D03*
%TO.P,U9,11*%
%TO.N,/ALU2*%
X167386000Y-122174000D03*
%TO.P,U9,22*%
%TO.N,/B1*%
X147066000Y-106934000D03*
%TO.P,U9,10*%
%TO.N,/ALU1*%
X164846000Y-122174000D03*
%TO.P,U9,21*%
%TO.N,/A2*%
X149606000Y-106934000D03*
%TO.P,U9,9*%
%TO.N,/ALU0*%
X162306000Y-122174000D03*
%TO.P,U9,20*%
%TO.N,/B2*%
X152146000Y-106934000D03*
%TO.P,U9,8*%
%TO.N,ALU_MODE*%
X159766000Y-122174000D03*
%TO.P,U9,19*%
%TO.N,/A3*%
X154686000Y-106934000D03*
%TO.P,U9,7*%
%TO.N,/Cn*%
X157226000Y-122174000D03*
%TO.P,U9,18*%
%TO.N,/B3*%
X157226000Y-106934000D03*
%TO.P,U9,6*%
%TO.N,ALU_S0*%
X154686000Y-122174000D03*
%TO.P,U9,17*%
%TO.N,Net-(U9-Pad17)*%
X159766000Y-106934000D03*
%TO.P,U9,5*%
%TO.N,ALU_S1*%
X152146000Y-122174000D03*
%TO.P,U9,16*%
%TO.N,Net-(U10-Pad7)*%
X162306000Y-106934000D03*
%TO.P,U9,4*%
%TO.N,ALU_S2*%
X149606000Y-122174000D03*
%TO.P,U9,15*%
%TO.N,Net-(U9-Pad15)*%
X164846000Y-106934000D03*
%TO.P,U9,3*%
%TO.N,ALU_S3*%
X147066000Y-122174000D03*
%TO.P,U9,14*%
%TO.N,A_EQ_B*%
X167386000Y-106934000D03*
%TO.P,U9,2*%
%TO.N,/A0*%
X144526000Y-122174000D03*
%TO.P,U9,13*%
%TO.N,/ALU3*%
X169926000Y-106934000D03*
D11*
%TO.P,U9,1*%
%TO.N,/B0*%
X141986000Y-122174000D03*
%TD*%
D10*
%TO.P,U12,14*%
%TO.N,+5V_IN*%
X132588000Y-165354000D03*
%TO.P,U12,7*%
%TO.N,-5V_IN*%
X147828000Y-172974000D03*
%TO.P,U12,13*%
%TO.N,N/C*%
X135128000Y-165354000D03*
%TO.P,U12,6*%
%TO.N,A_EQ_B*%
X145288000Y-172974000D03*
%TO.P,U12,12*%
%TO.N,N/C*%
X137668000Y-165354000D03*
%TO.P,U12,5*%
%TO.N,CARRY*%
X142748000Y-172974000D03*
%TO.P,U12,11*%
%TO.N,N/C*%
X140208000Y-165354000D03*
%TO.P,U12,4*%
%TO.N,A_GT_B*%
X140208000Y-172974000D03*
%TO.P,U12,10*%
%TO.N,N/C*%
X142748000Y-165354000D03*
%TO.P,U12,3*%
X137668000Y-172974000D03*
%TO.P,U12,9*%
X145288000Y-165354000D03*
%TO.P,U12,2*%
X135128000Y-172974000D03*
%TO.P,U12,8*%
X147828000Y-165354000D03*
D11*
%TO.P,U12,1*%
X132588000Y-172974000D03*
%TD*%
%TO.P,R4,2*%
%TO.N,+5V_IN*%
%TA.AperFunction,SMDPad,CuDef*%
G36*
G01*
X92906001Y-85960000D02*
X92005999Y-85960000D01*
G75*
G02*
X91756000Y-85710001I0J249999D01*
G01*
X91756000Y-85184999D01*
G75*
G02*
X92005999Y-84935000I249999J0D01*
G01*
X92906001Y-84935000D01*
G75*
G02*
X93156000Y-85184999I0J-249999D01*
G01*
X93156000Y-85710001D01*
G75*
G02*
X92906001Y-85960000I-249999J0D01*
G01*
G37*
%TD.AperFunction*%
%TO.P,R4,1*%
%TO.N,AO*%
%TA.AperFunction,SMDPad,CuDef*%
G36*
G01*
X92906001Y-87785000D02*
X92005999Y-87785000D01*
G75*
G02*
X91756000Y-87535001I0J249999D01*
G01*
X91756000Y-87009999D01*
G75*
G02*
X92005999Y-86760000I249999J0D01*
G01*
X92906001Y-86760000D01*
G75*
G02*
X93156000Y-87009999I0J-249999D01*
G01*
X93156000Y-87535001D01*
G75*
G02*
X92906001Y-87785000I-249999J0D01*
G01*
G37*
%TD.AperFunction*%
%TD*%
%TO.P,R1,2*%
%TO.N,AI*%
%TA.AperFunction,SMDPad,CuDef*%
G36*
G01*
X89973999Y-86760000D02*
X90874001Y-86760000D01*
G75*
G02*
X91124000Y-87009999I0J-249999D01*
G01*
X91124000Y-87535001D01*
G75*
G02*
X90874001Y-87785000I-249999J0D01*
G01*
X89973999Y-87785000D01*
G75*
G02*
X89724000Y-87535001I0J249999D01*
G01*
X89724000Y-87009999D01*
G75*
G02*
X89973999Y-86760000I249999J0D01*
G01*
G37*
%TD.AperFunction*%
%TO.P,R1,1*%
%TO.N,+5V_IN*%
%TA.AperFunction,SMDPad,CuDef*%
G36*
G01*
X89973999Y-84935000D02*
X90874001Y-84935000D01*
G75*
G02*
X91124000Y-85184999I0J-249999D01*
G01*
X91124000Y-85710001D01*
G75*
G02*
X90874001Y-85960000I-249999J0D01*
G01*
X89973999Y-85960000D01*
G75*
G02*
X89724000Y-85710001I0J249999D01*
G01*
X89724000Y-85184999D01*
G75*
G02*
X89973999Y-84935000I249999J0D01*
G01*
G37*
%TD.AperFunction*%
%TD*%
%TO.P,R12,2*%
%TO.N,ALU_OUT*%
%TA.AperFunction,SMDPad,CuDef*%
G36*
G01*
X102165999Y-86760000D02*
X103066001Y-86760000D01*
G75*
G02*
X103316000Y-87009999I0J-249999D01*
G01*
X103316000Y-87535001D01*
G75*
G02*
X103066001Y-87785000I-249999J0D01*
G01*
X102165999Y-87785000D01*
G75*
G02*
X101916000Y-87535001I0J249999D01*
G01*
X101916000Y-87009999D01*
G75*
G02*
X102165999Y-86760000I249999J0D01*
G01*
G37*
%TD.AperFunction*%
%TO.P,R12,1*%
%TO.N,+5V_IN*%
%TA.AperFunction,SMDPad,CuDef*%
G36*
G01*
X102165999Y-84935000D02*
X103066001Y-84935000D01*
G75*
G02*
X103316000Y-85184999I0J-249999D01*
G01*
X103316000Y-85710001D01*
G75*
G02*
X103066001Y-85960000I-249999J0D01*
G01*
X102165999Y-85960000D01*
G75*
G02*
X101916000Y-85710001I0J249999D01*
G01*
X101916000Y-85184999D01*
G75*
G02*
X102165999Y-84935000I249999J0D01*
G01*
G37*
%TD.AperFunction*%
%TD*%
%TO.P,R6,2*%
%TO.N,+5V_IN*%
%TA.AperFunction,SMDPad,CuDef*%
G36*
G01*
X101034001Y-85960000D02*
X100133999Y-85960000D01*
G75*
G02*
X99884000Y-85710001I0J249999D01*
G01*
X99884000Y-85184999D01*
G75*
G02*
X100133999Y-84935000I249999J0D01*
G01*
X101034001Y-84935000D01*
G75*
G02*
X101284000Y-85184999I0J-249999D01*
G01*
X101284000Y-85710001D01*
G75*
G02*
X101034001Y-85960000I-249999J0D01*
G01*
G37*
%TD.AperFunction*%
%TO.P,R6,1*%
%TO.N,CO*%
%TA.AperFunction,SMDPad,CuDef*%
G36*
G01*
X101034001Y-87785000D02*
X100133999Y-87785000D01*
G75*
G02*
X99884000Y-87535001I0J249999D01*
G01*
X99884000Y-87009999D01*
G75*
G02*
X100133999Y-86760000I249999J0D01*
G01*
X101034001Y-86760000D01*
G75*
G02*
X101284000Y-87009999I0J-249999D01*
G01*
X101284000Y-87535001D01*
G75*
G02*
X101034001Y-87785000I-249999J0D01*
G01*
G37*
%TD.AperFunction*%
%TD*%
%TO.P,R5,2*%
%TO.N,+5V_IN*%
%TA.AperFunction,SMDPad,CuDef*%
G36*
G01*
X96970001Y-85960000D02*
X96069999Y-85960000D01*
G75*
G02*
X95820000Y-85710001I0J249999D01*
G01*
X95820000Y-85184999D01*
G75*
G02*
X96069999Y-84935000I249999J0D01*
G01*
X96970001Y-84935000D01*
G75*
G02*
X97220000Y-85184999I0J-249999D01*
G01*
X97220000Y-85710001D01*
G75*
G02*
X96970001Y-85960000I-249999J0D01*
G01*
G37*
%TD.AperFunction*%
%TO.P,R5,1*%
%TO.N,BO*%
%TA.AperFunction,SMDPad,CuDef*%
G36*
G01*
X96970001Y-87785000D02*
X96069999Y-87785000D01*
G75*
G02*
X95820000Y-87535001I0J249999D01*
G01*
X95820000Y-87009999D01*
G75*
G02*
X96069999Y-86760000I249999J0D01*
G01*
X96970001Y-86760000D01*
G75*
G02*
X97220000Y-87009999I0J-249999D01*
G01*
X97220000Y-87535001D01*
G75*
G02*
X96970001Y-87785000I-249999J0D01*
G01*
G37*
%TD.AperFunction*%
%TD*%
%TO.P,R3,2*%
%TO.N,CI*%
%TA.AperFunction,SMDPad,CuDef*%
G36*
G01*
X98101999Y-86760000D02*
X99002001Y-86760000D01*
G75*
G02*
X99252000Y-87009999I0J-249999D01*
G01*
X99252000Y-87535001D01*
G75*
G02*
X99002001Y-87785000I-249999J0D01*
G01*
X98101999Y-87785000D01*
G75*
G02*
X97852000Y-87535001I0J249999D01*
G01*
X97852000Y-87009999D01*
G75*
G02*
X98101999Y-86760000I249999J0D01*
G01*
G37*
%TD.AperFunction*%
%TO.P,R3,1*%
%TO.N,+5V_IN*%
%TA.AperFunction,SMDPad,CuDef*%
G36*
G01*
X98101999Y-84935000D02*
X99002001Y-84935000D01*
G75*
G02*
X99252000Y-85184999I0J-249999D01*
G01*
X99252000Y-85710001D01*
G75*
G02*
X99002001Y-85960000I-249999J0D01*
G01*
X98101999Y-85960000D01*
G75*
G02*
X97852000Y-85710001I0J249999D01*
G01*
X97852000Y-85184999D01*
G75*
G02*
X98101999Y-84935000I249999J0D01*
G01*
G37*
%TD.AperFunction*%
%TD*%
%TO.P,R2,2*%
%TO.N,BI*%
%TA.AperFunction,SMDPad,CuDef*%
G36*
G01*
X94037999Y-86760000D02*
X94938001Y-86760000D01*
G75*
G02*
X95188000Y-87009999I0J-249999D01*
G01*
X95188000Y-87535001D01*
G75*
G02*
X94938001Y-87785000I-249999J0D01*
G01*
X94037999Y-87785000D01*
G75*
G02*
X93788000Y-87535001I0J249999D01*
G01*
X93788000Y-87009999D01*
G75*
G02*
X94037999Y-86760000I249999J0D01*
G01*
G37*
%TD.AperFunction*%
%TO.P,R2,1*%
%TO.N,+5V_IN*%
%TA.AperFunction,SMDPad,CuDef*%
G36*
G01*
X94037999Y-84935000D02*
X94938001Y-84935000D01*
G75*
G02*
X95188000Y-85184999I0J-249999D01*
G01*
X95188000Y-85710001D01*
G75*
G02*
X94938001Y-85960000I-249999J0D01*
G01*
X94037999Y-85960000D01*
G75*
G02*
X93788000Y-85710001I0J249999D01*
G01*
X93788000Y-85184999D01*
G75*
G02*
X94037999Y-84935000I249999J0D01*
G01*
G37*
%TD.AperFunction*%
%TD*%
D12*
%TO.P,J3,3*%
%TO.N,+5V_IN*%
X159766000Y-101346000D03*
%TO.P,J3,2*%
%TO.N,/Cn*%
X157226000Y-101346000D03*
D13*
%TO.P,J3,1*%
%TO.N,-5V_IN*%
X154686000Y-101346000D03*
%TD*%
D12*
%TO.P,J1,27*%
%TO.N,ALU_OUT*%
X76962000Y-99060000D03*
%TO.P,J1,26*%
%TO.N,ALU_S3*%
X76962000Y-101600000D03*
%TO.P,J1,25*%
%TO.N,ALU_S2*%
X76962000Y-104140000D03*
%TO.P,J1,24*%
%TO.N,ALU_S1*%
X76962000Y-106680000D03*
%TO.P,J1,23*%
%TO.N,ALU_S0*%
X76962000Y-109220000D03*
%TO.P,J1,22*%
%TO.N,ALU_MODE*%
X76962000Y-111760000D03*
%TO.P,J1,21*%
%TO.N,CARRY*%
X76962000Y-114300000D03*
%TO.P,J1,20*%
%TO.N,A_EQ_B*%
X76962000Y-116840000D03*
%TO.P,J1,19*%
%TO.N,A_GT_B*%
X76962000Y-119380000D03*
%TO.P,J1,18*%
%TO.N,CO*%
X76962000Y-121920000D03*
%TO.P,J1,17*%
%TO.N,CI*%
X76962000Y-124460000D03*
%TO.P,J1,16*%
%TO.N,BO*%
X76962000Y-127000000D03*
%TO.P,J1,15*%
%TO.N,BI*%
X76962000Y-129540000D03*
%TO.P,J1,14*%
%TO.N,AO*%
X76962000Y-132080000D03*
%TO.P,J1,13*%
%TO.N,AI*%
X76962000Y-134620000D03*
%TO.P,J1,12*%
%TO.N,RESET*%
X76962000Y-137160000D03*
%TO.P,J1,11*%
%TO.N,CLOCK*%
X76962000Y-139700000D03*
%TO.P,J1,10*%
%TO.N,BUS_07*%
X76962000Y-142240000D03*
%TO.P,J1,9*%
%TO.N,BUS_06*%
X76962000Y-144780000D03*
%TO.P,J1,8*%
%TO.N,BUS_05*%
X76962000Y-147320000D03*
%TO.P,J1,7*%
%TO.N,BUS_04*%
X76962000Y-149860000D03*
%TO.P,J1,6*%
%TO.N,BUS_03*%
X76962000Y-152400000D03*
%TO.P,J1,5*%
%TO.N,BUS_02*%
X76962000Y-154940000D03*
%TO.P,J1,4*%
%TO.N,BUS_01*%
X76962000Y-157480000D03*
%TO.P,J1,3*%
%TO.N,BUS_00*%
X76962000Y-160020000D03*
%TO.P,J1,2*%
%TO.N,+5V_IN*%
X76962000Y-162560000D03*
D13*
%TO.P,J1,1*%
%TO.N,-5V_IN*%
X76962000Y-165100000D03*
%TD*%
%TO.P,C10,2*%
%TO.N,-5V_IN*%
%TA.AperFunction,SMDPad,CuDef*%
G36*
G01*
X142461000Y-102928000D02*
X141511000Y-102928000D01*
G75*
G02*
X141261000Y-102678000I0J250000D01*
G01*
X141261000Y-102178000D01*
G75*
G02*
X141511000Y-101928000I250000J0D01*
G01*
X142461000Y-101928000D01*
G75*
G02*
X142711000Y-102178000I0J-250000D01*
G01*
X142711000Y-102678000D01*
G75*
G02*
X142461000Y-102928000I-250000J0D01*
G01*
G37*
%TD.AperFunction*%
%TO.P,C10,1*%
%TO.N,+5V_IN*%
%TA.AperFunction,SMDPad,CuDef*%
G36*
G01*
X142461000Y-104828000D02*
X141511000Y-104828000D01*
G75*
G02*
X141261000Y-104578000I0J250000D01*
G01*
X141261000Y-104078000D01*
G75*
G02*
X141511000Y-103828000I250000J0D01*
G01*
X142461000Y-103828000D01*
G75*
G02*
X142711000Y-104078000I0J-250000D01*
G01*
X142711000Y-104578000D01*
G75*
G02*
X142461000Y-104828000I-250000J0D01*
G01*
G37*
%TD.AperFunction*%
%TD*%
%TO.P,C9,2*%
%TO.N,-5V_IN*%
%TA.AperFunction,SMDPad,CuDef*%
G36*
G01*
X125026000Y-87917000D02*
X125026000Y-88867000D01*
G75*
G02*
X124776000Y-89117000I-250000J0D01*
G01*
X124276000Y-89117000D01*
G75*
G02*
X124026000Y-88867000I0J250000D01*
G01*
X124026000Y-87917000D01*
G75*
G02*
X124276000Y-87667000I250000J0D01*
G01*
X124776000Y-87667000D01*
G75*
G02*
X125026000Y-87917000I0J-250000D01*
G01*
G37*
%TD.AperFunction*%
%TO.P,C9,1*%
%TO.N,+5V_IN*%
%TA.AperFunction,SMDPad,CuDef*%
G36*
G01*
X126926000Y-87917000D02*
X126926000Y-88867000D01*
G75*
G02*
X126676000Y-89117000I-250000J0D01*
G01*
X126176000Y-89117000D01*
G75*
G02*
X125926000Y-88867000I0J250000D01*
G01*
X125926000Y-87917000D01*
G75*
G02*
X126176000Y-87667000I250000J0D01*
G01*
X126676000Y-87667000D01*
G75*
G02*
X126926000Y-87917000I0J-250000D01*
G01*
G37*
%TD.AperFunction*%
%TD*%
%TO.P,C8,2*%
%TO.N,-5V_IN*%
%TA.AperFunction,SMDPad,CuDef*%
G36*
G01*
X142461000Y-130614000D02*
X141511000Y-130614000D01*
G75*
G02*
X141261000Y-130364000I0J250000D01*
G01*
X141261000Y-129864000D01*
G75*
G02*
X141511000Y-129614000I250000J0D01*
G01*
X142461000Y-129614000D01*
G75*
G02*
X142711000Y-129864000I0J-250000D01*
G01*
X142711000Y-130364000D01*
G75*
G02*
X142461000Y-130614000I-250000J0D01*
G01*
G37*
%TD.AperFunction*%
%TO.P,C8,1*%
%TO.N,+5V_IN*%
%TA.AperFunction,SMDPad,CuDef*%
G36*
G01*
X142461000Y-132514000D02*
X141511000Y-132514000D01*
G75*
G02*
X141261000Y-132264000I0J250000D01*
G01*
X141261000Y-131764000D01*
G75*
G02*
X141511000Y-131514000I250000J0D01*
G01*
X142461000Y-131514000D01*
G75*
G02*
X142711000Y-131764000I0J-250000D01*
G01*
X142711000Y-132264000D01*
G75*
G02*
X142461000Y-132514000I-250000J0D01*
G01*
G37*
%TD.AperFunction*%
%TD*%
%TO.P,C7,2*%
%TO.N,-5V_IN*%
%TA.AperFunction,SMDPad,CuDef*%
G36*
G01*
X112997000Y-101150000D02*
X112047000Y-101150000D01*
G75*
G02*
X111797000Y-100900000I0J250000D01*
G01*
X111797000Y-100400000D01*
G75*
G02*
X112047000Y-100150000I250000J0D01*
G01*
X112997000Y-100150000D01*
G75*
G02*
X113247000Y-100400000I0J-250000D01*
G01*
X113247000Y-100900000D01*
G75*
G02*
X112997000Y-101150000I-250000J0D01*
G01*
G37*
%TD.AperFunction*%
%TO.P,C7,1*%
%TO.N,+5V_IN*%
%TA.AperFunction,SMDPad,CuDef*%
G36*
G01*
X112997000Y-103050000D02*
X112047000Y-103050000D01*
G75*
G02*
X111797000Y-102800000I0J250000D01*
G01*
X111797000Y-102300000D01*
G75*
G02*
X112047000Y-102050000I250000J0D01*
G01*
X112997000Y-102050000D01*
G75*
G02*
X113247000Y-102300000I0J-250000D01*
G01*
X113247000Y-102800000D01*
G75*
G02*
X112997000Y-103050000I-250000J0D01*
G01*
G37*
%TD.AperFunction*%
%TD*%
%TO.P,C6,2*%
%TO.N,-5V_IN*%
%TA.AperFunction,SMDPad,CuDef*%
G36*
G01*
X82771000Y-100896000D02*
X81821000Y-100896000D01*
G75*
G02*
X81571000Y-100646000I0J250000D01*
G01*
X81571000Y-100146000D01*
G75*
G02*
X81821000Y-99896000I250000J0D01*
G01*
X82771000Y-99896000D01*
G75*
G02*
X83021000Y-100146000I0J-250000D01*
G01*
X83021000Y-100646000D01*
G75*
G02*
X82771000Y-100896000I-250000J0D01*
G01*
G37*
%TD.AperFunction*%
%TO.P,C6,1*%
%TO.N,+5V_IN*%
%TA.AperFunction,SMDPad,CuDef*%
G36*
G01*
X82771000Y-102796000D02*
X81821000Y-102796000D01*
G75*
G02*
X81571000Y-102546000I0J250000D01*
G01*
X81571000Y-102046000D01*
G75*
G02*
X81821000Y-101796000I250000J0D01*
G01*
X82771000Y-101796000D01*
G75*
G02*
X83021000Y-102046000I0J-250000D01*
G01*
X83021000Y-102546000D01*
G75*
G02*
X82771000Y-102796000I-250000J0D01*
G01*
G37*
%TD.AperFunction*%
%TD*%
%TO.P,C5,2*%
%TO.N,-5V_IN*%
%TA.AperFunction,SMDPad,CuDef*%
G36*
G01*
X112997000Y-140266000D02*
X112047000Y-140266000D01*
G75*
G02*
X111797000Y-140016000I0J250000D01*
G01*
X111797000Y-139516000D01*
G75*
G02*
X112047000Y-139266000I250000J0D01*
G01*
X112997000Y-139266000D01*
G75*
G02*
X113247000Y-139516000I0J-250000D01*
G01*
X113247000Y-140016000D01*
G75*
G02*
X112997000Y-140266000I-250000J0D01*
G01*
G37*
%TD.AperFunction*%
%TO.P,C5,1*%
%TO.N,+5V_IN*%
%TA.AperFunction,SMDPad,CuDef*%
G36*
G01*
X112997000Y-142166000D02*
X112047000Y-142166000D01*
G75*
G02*
X111797000Y-141916000I0J250000D01*
G01*
X111797000Y-141416000D01*
G75*
G02*
X112047000Y-141166000I250000J0D01*
G01*
X112997000Y-141166000D01*
G75*
G02*
X113247000Y-141416000I0J-250000D01*
G01*
X113247000Y-141916000D01*
G75*
G02*
X112997000Y-142166000I-250000J0D01*
G01*
G37*
%TD.AperFunction*%
%TD*%
%TO.P,C4,2*%
%TO.N,-5V_IN*%
%TA.AperFunction,SMDPad,CuDef*%
G36*
G01*
X112997000Y-120962000D02*
X112047000Y-120962000D01*
G75*
G02*
X111797000Y-120712000I0J250000D01*
G01*
X111797000Y-120212000D01*
G75*
G02*
X112047000Y-119962000I250000J0D01*
G01*
X112997000Y-119962000D01*
G75*
G02*
X113247000Y-120212000I0J-250000D01*
G01*
X113247000Y-120712000D01*
G75*
G02*
X112997000Y-120962000I-250000J0D01*
G01*
G37*
%TD.AperFunction*%
%TO.P,C4,1*%
%TO.N,+5V_IN*%
%TA.AperFunction,SMDPad,CuDef*%
G36*
G01*
X112997000Y-122862000D02*
X112047000Y-122862000D01*
G75*
G02*
X111797000Y-122612000I0J250000D01*
G01*
X111797000Y-122112000D01*
G75*
G02*
X112047000Y-121862000I250000J0D01*
G01*
X112997000Y-121862000D01*
G75*
G02*
X113247000Y-122112000I0J-250000D01*
G01*
X113247000Y-122612000D01*
G75*
G02*
X112997000Y-122862000I-250000J0D01*
G01*
G37*
%TD.AperFunction*%
%TD*%
%TO.P,C3,2*%
%TO.N,-5V_IN*%
%TA.AperFunction,SMDPad,CuDef*%
G36*
G01*
X81501000Y-139758000D02*
X80551000Y-139758000D01*
G75*
G02*
X80301000Y-139508000I0J250000D01*
G01*
X80301000Y-139008000D01*
G75*
G02*
X80551000Y-138758000I250000J0D01*
G01*
X81501000Y-138758000D01*
G75*
G02*
X81751000Y-139008000I0J-250000D01*
G01*
X81751000Y-139508000D01*
G75*
G02*
X81501000Y-139758000I-250000J0D01*
G01*
G37*
%TD.AperFunction*%
%TO.P,C3,1*%
%TO.N,+5V_IN*%
%TA.AperFunction,SMDPad,CuDef*%
G36*
G01*
X81501000Y-141658000D02*
X80551000Y-141658000D01*
G75*
G02*
X80301000Y-141408000I0J250000D01*
G01*
X80301000Y-140908000D01*
G75*
G02*
X80551000Y-140658000I250000J0D01*
G01*
X81501000Y-140658000D01*
G75*
G02*
X81751000Y-140908000I0J-250000D01*
G01*
X81751000Y-141408000D01*
G75*
G02*
X81501000Y-141658000I-250000J0D01*
G01*
G37*
%TD.AperFunction*%
%TD*%
%TO.P,C2,2*%
%TO.N,-5V_IN*%
%TA.AperFunction,SMDPad,CuDef*%
G36*
G01*
X81501000Y-160586000D02*
X80551000Y-160586000D01*
G75*
G02*
X80301000Y-160336000I0J250000D01*
G01*
X80301000Y-159836000D01*
G75*
G02*
X80551000Y-159586000I250000J0D01*
G01*
X81501000Y-159586000D01*
G75*
G02*
X81751000Y-159836000I0J-250000D01*
G01*
X81751000Y-160336000D01*
G75*
G02*
X81501000Y-160586000I-250000J0D01*
G01*
G37*
%TD.AperFunction*%
%TO.P,C2,1*%
%TO.N,+5V_IN*%
%TA.AperFunction,SMDPad,CuDef*%
G36*
G01*
X81501000Y-162486000D02*
X80551000Y-162486000D01*
G75*
G02*
X80301000Y-162236000I0J250000D01*
G01*
X80301000Y-161736000D01*
G75*
G02*
X80551000Y-161486000I250000J0D01*
G01*
X81501000Y-161486000D01*
G75*
G02*
X81751000Y-161736000I0J-250000D01*
G01*
X81751000Y-162236000D01*
G75*
G02*
X81501000Y-162486000I-250000J0D01*
G01*
G37*
%TD.AperFunction*%
%TD*%
%TO.P,C1,2*%
%TO.N,-5V_IN*%
%TA.AperFunction,SMDPad,CuDef*%
G36*
G01*
X81501000Y-119946000D02*
X80551000Y-119946000D01*
G75*
G02*
X80301000Y-119696000I0J250000D01*
G01*
X80301000Y-119196000D01*
G75*
G02*
X80551000Y-118946000I250000J0D01*
G01*
X81501000Y-118946000D01*
G75*
G02*
X81751000Y-119196000I0J-250000D01*
G01*
X81751000Y-119696000D01*
G75*
G02*
X81501000Y-119946000I-250000J0D01*
G01*
G37*
%TD.AperFunction*%
%TO.P,C1,1*%
%TO.N,+5V_IN*%
%TA.AperFunction,SMDPad,CuDef*%
G36*
G01*
X81501000Y-121846000D02*
X80551000Y-121846000D01*
G75*
G02*
X80301000Y-121596000I0J250000D01*
G01*
X80301000Y-121096000D01*
G75*
G02*
X80551000Y-120846000I250000J0D01*
G01*
X81501000Y-120846000D01*
G75*
G02*
X81751000Y-121096000I0J-250000D01*
G01*
X81751000Y-121596000D01*
G75*
G02*
X81501000Y-121846000I-250000J0D01*
G01*
G37*
%TD.AperFunction*%
%TD*%
D16*
%TO.N,CLOCK*%
X138684000Y-127762000D03*
X116332000Y-135128000D03*
%TO.N,BUS_07*%
X113534922Y-109009043D03*
%TO.N,BUS_06*%
X107950000Y-108204000D03*
%TO.N,BUS_05*%
X107828327Y-107211418D03*
%TO.N,BUS_04*%
X107981417Y-106223194D03*
%TO.N,/A4*%
X140462000Y-125730000D03*
X137668000Y-120396000D03*
%TO.N,AI*%
X79248000Y-125730000D03*
%TO.N,AO*%
X106934000Y-97282000D03*
%TO.N,/B5*%
X137160000Y-136652000D03*
%TO.N,/B6*%
X136398000Y-137414000D03*
%TO.N,/B7*%
X135636000Y-138176000D03*
%TO.N,BO*%
X96012000Y-88900000D03*
X83566000Y-109728000D03*
X116332000Y-97536000D03*
%TO.N,/C3*%
X107188000Y-159258000D03*
%TO.N,CI*%
X84582000Y-101092000D03*
%TO.N,CO*%
X100076000Y-93472000D03*
%TO.N,CARRY*%
X109220000Y-124460000D03*
%TO.N,A_EQ_B*%
X125222000Y-160782000D03*
X110236000Y-126238000D03*
%TO.N,A_GT_B*%
X116332000Y-154686000D03*
X108204000Y-126238000D03*
%TO.N,ALU_S3*%
X148336000Y-125730000D03*
%TO.N,ALU_S2*%
X150876000Y-125730000D03*
%TO.N,ALU_MODE*%
X82550000Y-114554000D03*
%TO.N,CARRY*%
X122467250Y-155233250D03*
X78232000Y-110490000D03*
%TO.N,-5V_IN*%
X107950000Y-164338000D03*
X110998000Y-118938000D03*
X110932000Y-138176000D03*
X140396000Y-128524000D03*
X144018000Y-103378000D03*
X110744000Y-100584000D03*
X81026000Y-158242000D03*
X107442000Y-88646000D03*
X82393895Y-110273000D03*
X80264000Y-101092000D03*
%TO.N,/ALU2*%
X105918000Y-168910000D03*
%TO.N,/ALU1*%
X105918000Y-167640000D03*
%TO.N,/ALU3*%
X105918000Y-170180000D03*
%TO.N,Net-(U10-Pad16)*%
X106426000Y-93726000D03*
X172051048Y-103792952D03*
%TO.N,/A_IN_CP*%
X109482000Y-97020000D03*
%TO.N,/B_IN_CP*%
X114304653Y-97277347D03*
%TO.N,/C_IN_CP*%
X121920000Y-97536000D03*
X118618000Y-97536000D03*
X135382000Y-148336000D03*
%TO.N,RESET*%
X109728000Y-139700000D03*
X109728000Y-148082000D03*
X83312000Y-136398000D03*
%TD*%
D17*
%TO.N,Net-(D1-Pad1)*%
X105664000Y-180340000D02*
X105918000Y-180594000D01*
X105664000Y-177335500D02*
X105664000Y-180340000D01*
%TO.N,Net-(D2-Pad1)*%
X103124000Y-180340000D02*
X103378000Y-180594000D01*
X103124000Y-177335500D02*
X103124000Y-180340000D01*
%TO.N,Net-(D3-Pad1)*%
X100584000Y-180340000D02*
X100838000Y-180594000D01*
X100584000Y-177335500D02*
X100584000Y-180340000D01*
%TO.N,Net-(D4-Pad1)*%
X98044000Y-180340000D02*
X98298000Y-180594000D01*
X98044000Y-177335500D02*
X98044000Y-180340000D01*
%TO.N,Net-(D5-Pad1)*%
X95504000Y-180340000D02*
X95758000Y-180594000D01*
X95504000Y-177325500D02*
X95504000Y-180340000D01*
%TO.N,Net-(D6-Pad1)*%
X92964000Y-180340000D02*
X93218000Y-180594000D01*
X92964000Y-177325500D02*
X92964000Y-180340000D01*
%TO.N,Net-(D7-Pad1)*%
X90424000Y-180340000D02*
X90678000Y-180594000D01*
X90424000Y-177325500D02*
X90424000Y-180340000D01*
%TO.N,Net-(D8-Pad1)*%
X87884000Y-180340000D02*
X88138000Y-180594000D01*
X87884000Y-177325500D02*
X87884000Y-180340000D01*
D18*
%TO.N,CLOCK*%
X136652000Y-91186000D02*
X136652000Y-98806000D01*
X129032000Y-98806000D02*
X130810000Y-97028000D01*
X134874000Y-97028000D02*
X136652000Y-98806000D01*
X130810000Y-97028000D02*
X134874000Y-97028000D01*
X138684000Y-127762000D02*
X137414000Y-129032000D01*
X137414000Y-129032000D02*
X117602000Y-129032000D01*
X117602000Y-129032000D02*
X116332000Y-130302000D01*
X116332000Y-130302000D02*
X116332000Y-133604000D01*
X116332000Y-133604000D02*
X116332000Y-135128000D01*
D17*
%TO.N,BUS_07*%
X87884000Y-143764000D02*
X87376000Y-144272000D01*
X87884000Y-138938000D02*
X87884000Y-143764000D01*
X89154000Y-137668000D02*
X87884000Y-138938000D01*
X89154000Y-134874000D02*
X89154000Y-137668000D01*
X87504410Y-134112000D02*
X88392000Y-134112000D01*
X86106000Y-132713590D02*
X87504410Y-134112000D01*
X88392000Y-134112000D02*
X89154000Y-134874000D01*
X86106000Y-125730000D02*
X86106000Y-132713590D01*
X87376000Y-124460000D02*
X86106000Y-125730000D01*
X87884000Y-118872000D02*
X87884000Y-123952000D01*
X89154000Y-115062000D02*
X89154000Y-117602000D01*
X87250410Y-114300000D02*
X88392000Y-114300000D01*
X88392000Y-114300000D02*
X89154000Y-115062000D01*
X87884000Y-123952000D02*
X87376000Y-124460000D01*
X89154000Y-117602000D02*
X87884000Y-118872000D01*
X86106000Y-113155590D02*
X87250410Y-114300000D01*
X86106000Y-106172000D02*
X86106000Y-113155590D01*
X87376000Y-104902000D02*
X86106000Y-106172000D01*
X84836000Y-170180000D02*
X84836000Y-172720000D01*
X82550000Y-167894000D02*
X84836000Y-170180000D01*
X87376000Y-144272000D02*
X87376000Y-147574000D01*
X82296000Y-149098000D02*
X81026000Y-150368000D01*
X83566000Y-165862000D02*
X82550000Y-166878000D01*
X83566000Y-164338000D02*
X83566000Y-165862000D01*
X82550000Y-163322000D02*
X83566000Y-164338000D01*
X82550000Y-166878000D02*
X82550000Y-167894000D01*
X81026000Y-150368000D02*
X81026000Y-154940000D01*
X82550000Y-156464000D02*
X82550000Y-163322000D01*
X87376000Y-147574000D02*
X85852000Y-149098000D01*
X81026000Y-154940000D02*
X82550000Y-156464000D01*
X85852000Y-149098000D02*
X82296000Y-149098000D01*
X117602000Y-112522000D02*
X114089043Y-109009043D01*
X114089043Y-109009043D02*
X113534922Y-109009043D01*
%TO.N,BUS_06*%
X88646000Y-132713590D02*
X88646000Y-125730000D01*
X90044410Y-134112000D02*
X88646000Y-132713590D01*
X91186000Y-134112000D02*
X90044410Y-134112000D01*
X88646000Y-125730000D02*
X89916000Y-124460000D01*
X91694000Y-134620000D02*
X91186000Y-134112000D01*
X91694000Y-137668000D02*
X91694000Y-134620000D01*
X90424000Y-138938000D02*
X91694000Y-137668000D01*
X90424000Y-143764000D02*
X90424000Y-138938000D01*
X89916000Y-144272000D02*
X90424000Y-143764000D01*
X88646000Y-106172000D02*
X89916000Y-104902000D01*
X90932000Y-114300000D02*
X89916000Y-114300000D01*
X89916000Y-114300000D02*
X88646000Y-113030000D01*
X91694000Y-115062000D02*
X90932000Y-114300000D01*
X90424000Y-119380000D02*
X91694000Y-118110000D01*
X88646000Y-113030000D02*
X88646000Y-106172000D01*
X91694000Y-118110000D02*
X91694000Y-115062000D01*
X90424000Y-123952000D02*
X90424000Y-119380000D01*
X89916000Y-124460000D02*
X90424000Y-123952000D01*
X86106000Y-171450000D02*
X87376000Y-172720000D01*
X86106000Y-164084000D02*
X86106000Y-171450000D01*
X85344000Y-163322000D02*
X86106000Y-164084000D01*
X85344000Y-156718000D02*
X85344000Y-163322000D01*
X83566000Y-154940000D02*
X85344000Y-156718000D01*
X83566000Y-151130000D02*
X83566000Y-154940000D01*
X85090000Y-149606000D02*
X83566000Y-151130000D01*
X89916000Y-144272000D02*
X89916000Y-147828000D01*
X88138000Y-149606000D02*
X85090000Y-149606000D01*
X89916000Y-147828000D02*
X88138000Y-149606000D01*
X108030033Y-108284033D02*
X107950000Y-108204000D01*
X115904033Y-108284033D02*
X108030033Y-108284033D01*
X120142000Y-112522000D02*
X115904033Y-108284033D01*
%TO.N,BUS_05*%
X88646000Y-165733590D02*
X89916000Y-167003590D01*
X89154000Y-158750000D02*
X87884000Y-160020000D01*
X89154000Y-154686000D02*
X89154000Y-158750000D01*
X88646000Y-154178000D02*
X89154000Y-154686000D01*
X88646000Y-164338000D02*
X88646000Y-165733590D01*
X86106000Y-152400000D02*
X87884000Y-154178000D01*
X87122000Y-150114000D02*
X86106000Y-151130000D01*
X87884000Y-154178000D02*
X88646000Y-154178000D01*
X88392000Y-150114000D02*
X87122000Y-150114000D01*
X89916000Y-167003590D02*
X89916000Y-172720000D01*
X90678000Y-147828000D02*
X88392000Y-150114000D01*
X91694000Y-147828000D02*
X90678000Y-147828000D01*
X87884000Y-163576000D02*
X88646000Y-164338000D01*
X87884000Y-160020000D02*
X87884000Y-163576000D01*
X92456000Y-147066000D02*
X91694000Y-147828000D01*
X86106000Y-151130000D02*
X86106000Y-152400000D01*
X92456000Y-144272000D02*
X92456000Y-147066000D01*
X91330999Y-132620001D02*
X92822998Y-134112000D01*
X91330999Y-125585001D02*
X91330999Y-132620001D01*
X92456000Y-124460000D02*
X91330999Y-125585001D01*
X92822998Y-134112000D02*
X93726000Y-134112000D01*
X93726000Y-134112000D02*
X94234000Y-134620000D01*
X94234000Y-134620000D02*
X94234000Y-137668000D01*
X94234000Y-137668000D02*
X92964000Y-138938000D01*
X92964000Y-143764000D02*
X92456000Y-144272000D01*
X92964000Y-138938000D02*
X92964000Y-143764000D01*
X92456000Y-104902000D02*
X91186000Y-106172000D01*
X91186000Y-106172000D02*
X91186000Y-113155590D01*
X91186000Y-113155590D02*
X92330410Y-114300000D01*
X92330410Y-114300000D02*
X93472000Y-114300000D01*
X93472000Y-114300000D02*
X94234000Y-115062000D01*
X94234000Y-115062000D02*
X94234000Y-118110000D01*
X92819001Y-124096999D02*
X92456000Y-124460000D01*
X92819001Y-119524999D02*
X92819001Y-124096999D01*
X94234000Y-118110000D02*
X92819001Y-119524999D01*
X117280400Y-109023989D02*
X116090433Y-107834022D01*
X124263989Y-109023989D02*
X117280400Y-109023989D01*
X116090433Y-107834022D02*
X108796647Y-107834022D01*
X127762000Y-112522000D02*
X124263989Y-109023989D01*
X108796647Y-107834022D02*
X108174043Y-107211418D01*
X108174043Y-107211418D02*
X107828327Y-107211418D01*
%TO.N,BUS_04*%
X92456000Y-167003590D02*
X92456000Y-172720000D01*
X91186000Y-163576000D02*
X91186000Y-165733590D01*
X90424000Y-162814000D02*
X91186000Y-163576000D01*
X91449010Y-158740990D02*
X90424000Y-159766000D01*
X90932000Y-154178000D02*
X91449010Y-154695010D01*
X90298410Y-154178000D02*
X90932000Y-154178000D01*
X88646000Y-150622000D02*
X88646000Y-152525590D01*
X91186000Y-165733590D02*
X92456000Y-167003590D01*
X93160010Y-148393990D02*
X90874010Y-148393990D01*
X91449010Y-154695010D02*
X91449010Y-158740990D01*
X88646000Y-152525590D02*
X90298410Y-154178000D01*
X94996000Y-146558000D02*
X93160010Y-148393990D01*
X90874010Y-148393990D02*
X88646000Y-150622000D01*
X90424000Y-159766000D02*
X90424000Y-162814000D01*
X94996000Y-144272000D02*
X94996000Y-146558000D01*
X93726000Y-125730000D02*
X94996000Y-124460000D01*
X93726000Y-132588000D02*
X93726000Y-125730000D01*
X95250000Y-134112000D02*
X93726000Y-132588000D01*
X96266000Y-134112000D02*
X95250000Y-134112000D01*
X96774000Y-134620000D02*
X96266000Y-134112000D01*
X95504000Y-138938000D02*
X96774000Y-137668000D01*
X96774000Y-137668000D02*
X96774000Y-134620000D01*
X95504000Y-143764000D02*
X95504000Y-138938000D01*
X94996000Y-144272000D02*
X95504000Y-143764000D01*
X94996000Y-124460000D02*
X95504000Y-123952000D01*
X95504000Y-123952000D02*
X95504000Y-119126000D01*
X95504000Y-119126000D02*
X96774000Y-117856000D01*
X96774000Y-117856000D02*
X96774000Y-115062000D01*
X96774000Y-115062000D02*
X96012000Y-114300000D01*
X96012000Y-114300000D02*
X94870410Y-114300000D01*
X94870410Y-114300000D02*
X93726000Y-113155590D01*
X93726000Y-106172000D02*
X94996000Y-104902000D01*
X93726000Y-113155590D02*
X93726000Y-106172000D01*
X116276833Y-107384011D02*
X109142234Y-107384011D01*
X130302000Y-112522000D02*
X126353978Y-108573978D01*
X126353978Y-108573978D02*
X117466800Y-108573978D01*
X117466800Y-108573978D02*
X116276833Y-107384011D01*
X109142234Y-107384011D02*
X107981417Y-106223194D01*
%TO.N,BUS_03*%
X97536000Y-144272000D02*
X97536000Y-146304000D01*
X97536000Y-146304000D02*
X96012000Y-147828000D01*
X96012000Y-147828000D02*
X94488000Y-147828000D01*
X93472000Y-148844000D02*
X92710000Y-148844000D01*
X94488000Y-147828000D02*
X93472000Y-148844000D01*
X92710000Y-148844000D02*
X91186000Y-150368000D01*
X91186000Y-150368000D02*
X91186000Y-152400000D01*
X91341850Y-152400000D02*
X93119850Y-154178000D01*
X91186000Y-152400000D02*
X91341850Y-152400000D01*
X93119850Y-154178000D02*
X93726000Y-154178000D01*
X93726000Y-154178000D02*
X94234000Y-154686000D01*
X94234000Y-154686000D02*
X94234000Y-158242000D01*
X94234000Y-158242000D02*
X92964000Y-159512000D01*
X92964000Y-159512000D02*
X92964000Y-163322000D01*
X92964000Y-163322000D02*
X93726000Y-164084000D01*
X94996000Y-167003590D02*
X94996000Y-172720000D01*
X93726000Y-165733590D02*
X94996000Y-167003590D01*
X93726000Y-164084000D02*
X93726000Y-165733590D01*
X96266000Y-125730000D02*
X97536000Y-124460000D01*
X96266000Y-132588000D02*
X96266000Y-125730000D01*
X99314000Y-134620000D02*
X98806000Y-134112000D01*
X98806000Y-134112000D02*
X97790000Y-134112000D01*
X99314000Y-137668000D02*
X99314000Y-134620000D01*
X98044000Y-138938000D02*
X99314000Y-137668000D01*
X98044000Y-143764000D02*
X98044000Y-138938000D01*
X97790000Y-134112000D02*
X96266000Y-132588000D01*
X97536000Y-144272000D02*
X98044000Y-143764000D01*
X98044000Y-123952000D02*
X97536000Y-124460000D01*
X98044000Y-119126000D02*
X98044000Y-123952000D01*
X99314000Y-117856000D02*
X98044000Y-119126000D01*
X99314000Y-115062000D02*
X99314000Y-117856000D01*
X98298000Y-114046000D02*
X99314000Y-115062000D01*
X97394998Y-114046000D02*
X98298000Y-114046000D01*
X97536000Y-104902000D02*
X96266000Y-106172000D01*
X96266000Y-112917002D02*
X97394998Y-114046000D01*
X96266000Y-106172000D02*
X96266000Y-112917002D01*
%TO.N,BUS_02*%
X97536000Y-167386000D02*
X97536000Y-172720000D01*
X96266000Y-166116000D02*
X97536000Y-167386000D01*
X96266000Y-163576000D02*
X96266000Y-166116000D01*
X95504000Y-162814000D02*
X96266000Y-163576000D01*
X95504000Y-159766000D02*
X95504000Y-162814000D01*
X96774000Y-158496000D02*
X95504000Y-159766000D01*
X96774000Y-154686000D02*
X96774000Y-158496000D01*
X96266000Y-154178000D02*
X96774000Y-154686000D01*
X93726000Y-149352000D02*
X93726000Y-152400000D01*
X98298000Y-148336000D02*
X94742000Y-148336000D01*
X94742000Y-148336000D02*
X93726000Y-149352000D01*
X95504000Y-154178000D02*
X96266000Y-154178000D01*
X93726000Y-152400000D02*
X95504000Y-154178000D01*
X100076000Y-146558000D02*
X98298000Y-148336000D01*
X100076000Y-144272000D02*
X100076000Y-146558000D01*
X100584000Y-143764000D02*
X100076000Y-144272000D01*
X100584000Y-138938000D02*
X100584000Y-143764000D01*
X101854000Y-137668000D02*
X100584000Y-138938000D01*
X98806000Y-132588000D02*
X100330000Y-134112000D01*
X98806000Y-125730000D02*
X98806000Y-132588000D01*
X101346000Y-134112000D02*
X101854000Y-134620000D01*
X100330000Y-134112000D02*
X101346000Y-134112000D01*
X101854000Y-134620000D02*
X101854000Y-137668000D01*
X100076000Y-124460000D02*
X98806000Y-125730000D01*
X101854000Y-117856000D02*
X101854000Y-115160150D01*
X100584000Y-123952000D02*
X100584000Y-119126000D01*
X98806000Y-113030000D02*
X98806000Y-106172000D01*
X100584000Y-119126000D02*
X101854000Y-117856000D01*
X101854000Y-115160150D02*
X100739850Y-114046000D01*
X100076000Y-124460000D02*
X100584000Y-123952000D01*
X99822000Y-114046000D02*
X98806000Y-113030000D01*
X98806000Y-106172000D02*
X100076000Y-104902000D01*
X100739850Y-114046000D02*
X99822000Y-114046000D01*
%TO.N,BUS_01*%
X98044000Y-162814000D02*
X98806000Y-163576000D01*
X98044000Y-159766000D02*
X98044000Y-162814000D01*
X97918410Y-154178000D02*
X98806000Y-154178000D01*
X99314000Y-154686000D02*
X99314000Y-158496000D01*
X100076000Y-167003590D02*
X100076000Y-172720000D01*
X96266000Y-152525590D02*
X97918410Y-154178000D01*
X98806000Y-165733590D02*
X100076000Y-167003590D01*
X98806000Y-163576000D02*
X98806000Y-165733590D01*
X96266000Y-150114000D02*
X96266000Y-152525590D01*
X97282000Y-149098000D02*
X96266000Y-150114000D01*
X100076000Y-149098000D02*
X97282000Y-149098000D01*
X99314000Y-158496000D02*
X98044000Y-159766000D01*
X98806000Y-154178000D02*
X99314000Y-154686000D01*
X102616000Y-146558000D02*
X100076000Y-149098000D01*
X102616000Y-144272000D02*
X102616000Y-146558000D01*
X103632000Y-134112000D02*
X102982998Y-134112000D01*
X104394000Y-134874000D02*
X103632000Y-134112000D01*
X103124000Y-139192000D02*
X104394000Y-137922000D01*
X101346000Y-132475002D02*
X101346000Y-125730000D01*
X104394000Y-137922000D02*
X104394000Y-134874000D01*
X101346000Y-125730000D02*
X102616000Y-124460000D01*
X103124000Y-143256000D02*
X103124000Y-139192000D01*
X102982998Y-134112000D02*
X101346000Y-132475002D01*
X102616000Y-143764000D02*
X103124000Y-143256000D01*
X102616000Y-144272000D02*
X102616000Y-143764000D01*
X101346000Y-106172000D02*
X101346000Y-112917002D01*
X103279850Y-114046000D02*
X104394000Y-115160150D01*
X104394000Y-117856000D02*
X103124000Y-119126000D01*
X101346000Y-112917002D02*
X102474998Y-114046000D01*
X102474998Y-114046000D02*
X103279850Y-114046000D01*
X103124000Y-119126000D02*
X103124000Y-123952000D01*
X104394000Y-115160150D02*
X104394000Y-117856000D01*
X103124000Y-123952000D02*
X102616000Y-124460000D01*
X102616000Y-104902000D02*
X101346000Y-106172000D01*
%TO.N,BUS_00*%
X102616000Y-167003590D02*
X102616000Y-172720000D01*
X101346000Y-164338000D02*
X101346000Y-165733590D01*
X101854000Y-155292150D02*
X101854000Y-158496000D01*
X101346000Y-150368000D02*
X99568000Y-150368000D01*
X105156000Y-144272000D02*
X105156000Y-146558000D01*
X101247850Y-154686000D02*
X101854000Y-155292150D01*
X101346000Y-165733590D02*
X102616000Y-167003590D01*
X101148499Y-154686000D02*
X101247850Y-154686000D01*
X100584000Y-163576000D02*
X101346000Y-164338000D01*
X98806000Y-152343501D02*
X101148499Y-154686000D01*
X99568000Y-150368000D02*
X98806000Y-151130000D01*
X100584000Y-159766000D02*
X100584000Y-163576000D01*
X101854000Y-158496000D02*
X100584000Y-159766000D01*
X98806000Y-151130000D02*
X98806000Y-152343501D01*
X105156000Y-146558000D02*
X101346000Y-150368000D01*
X105156000Y-144272000D02*
X105664000Y-143764000D01*
X105664000Y-143764000D02*
X105664000Y-139192000D01*
X105664000Y-139192000D02*
X107188000Y-137668000D01*
X107188000Y-126492000D02*
X105156000Y-124460000D01*
X107188000Y-137668000D02*
X107188000Y-126492000D01*
X107188000Y-122428000D02*
X105156000Y-124460000D01*
X107188000Y-108065370D02*
X107188000Y-122428000D01*
X105156000Y-104902000D02*
X105156000Y-106033370D01*
X105156000Y-106033370D02*
X107188000Y-108065370D01*
D19*
%TO.N,Net-(D9-Pad1)*%
X118872000Y-162663500D02*
X118872000Y-160703500D01*
%TO.N,Net-(D10-Pad1)*%
X121412000Y-160703500D02*
X121412000Y-162663500D01*
%TO.N,Net-(D11-Pad1)*%
X116332000Y-160703500D02*
X116332000Y-162663500D01*
D17*
%TO.N,/A0*%
X105488500Y-115394500D02*
X105664000Y-115394500D01*
X102616000Y-112522000D02*
X105488500Y-115394500D01*
X117602000Y-107950000D02*
X115062000Y-105410000D01*
X133604000Y-107950000D02*
X117602000Y-107950000D01*
X115062000Y-105410000D02*
X115062000Y-104902000D01*
X144526000Y-118872000D02*
X133604000Y-107950000D01*
X144526000Y-122174000D02*
X144526000Y-118872000D01*
X113538000Y-106934000D02*
X115062000Y-105410000D01*
X102616000Y-112522000D02*
X103886000Y-111252000D01*
X104705989Y-103574011D02*
X108146011Y-103574011D01*
X103886000Y-104394000D02*
X104705989Y-103574011D01*
X103886000Y-111252000D02*
X103886000Y-104394000D01*
X111506000Y-106934000D02*
X113538000Y-106934000D01*
X108146011Y-103574011D02*
X111506000Y-106934000D01*
%TO.N,/A1*%
X102948500Y-115394500D02*
X103124000Y-115394500D01*
X100076000Y-112522000D02*
X102948500Y-115394500D01*
X142609978Y-108850022D02*
X135140433Y-108850022D01*
X144526000Y-106934000D02*
X142609978Y-108850022D01*
X135140433Y-108850022D02*
X133790400Y-107499989D01*
X133790400Y-107499989D02*
X125279989Y-107499989D01*
X125279989Y-107499989D02*
X122682000Y-104902000D01*
X121412000Y-103632000D02*
X122682000Y-104902000D01*
X113792000Y-104394000D02*
X114554000Y-103632000D01*
X113792000Y-105664000D02*
X113792000Y-104394000D01*
X114554000Y-103632000D02*
X121412000Y-103632000D01*
X113030000Y-106426000D02*
X113792000Y-105664000D01*
X111760000Y-106426000D02*
X113030000Y-106426000D01*
X108458000Y-103124000D02*
X111760000Y-106426000D01*
X101346000Y-104140000D02*
X102362000Y-103124000D01*
X101346000Y-105297002D02*
X101346000Y-104140000D01*
X102362000Y-103124000D02*
X108458000Y-103124000D01*
X100076000Y-106567002D02*
X101346000Y-105297002D01*
X100076000Y-112522000D02*
X100076000Y-106567002D01*
%TO.N,/A2*%
X100408500Y-115394500D02*
X100584000Y-115394500D01*
X97536000Y-112522000D02*
X100408500Y-115394500D01*
X123444000Y-103124000D02*
X125222000Y-104902000D01*
X114554000Y-99314000D02*
X118364000Y-103124000D01*
X110744000Y-99314000D02*
X114554000Y-99314000D01*
X107442000Y-102616000D02*
X110744000Y-99314000D01*
X98806000Y-105297002D02*
X98806000Y-104506998D01*
X98806000Y-104506998D02*
X100696998Y-102616000D01*
X97536000Y-106567002D02*
X98806000Y-105297002D01*
X118364000Y-103124000D02*
X123444000Y-103124000D01*
X100696998Y-102616000D02*
X107442000Y-102616000D01*
X97536000Y-112522000D02*
X97536000Y-106567002D01*
X143256000Y-106393999D02*
X143256000Y-107512501D01*
X127369978Y-107049978D02*
X125222000Y-104902000D01*
X148481000Y-105809000D02*
X143840999Y-105809000D01*
X143840999Y-105809000D02*
X143256000Y-106393999D01*
X143256000Y-107512501D02*
X142368490Y-108400011D01*
X149606000Y-106934000D02*
X148481000Y-105809000D01*
X142368490Y-108400011D02*
X135326833Y-108400011D01*
X133976800Y-107049978D02*
X127369978Y-107049978D01*
X135326833Y-108400011D02*
X133976800Y-107049978D01*
%TO.N,/A3*%
X97868500Y-115394500D02*
X98044000Y-115394500D01*
X94996000Y-112522000D02*
X97868500Y-115394500D01*
X94996000Y-106567002D02*
X96410999Y-105152003D01*
X96410999Y-105152003D02*
X96410999Y-104249001D01*
X94996000Y-112522000D02*
X94996000Y-106567002D01*
X96410999Y-104249001D02*
X98552000Y-102108000D01*
X98552000Y-102108000D02*
X107313590Y-102108000D01*
X107313590Y-102108000D02*
X110615590Y-98806000D01*
X110615590Y-98806000D02*
X114808000Y-98806000D01*
X114808000Y-98806000D02*
X118618000Y-102616000D01*
X130556000Y-102616000D02*
X132842000Y-104902000D01*
X118618000Y-102616000D02*
X130556000Y-102616000D01*
X135890000Y-107950000D02*
X132842000Y-104902000D01*
X138430000Y-107950000D02*
X135890000Y-107950000D01*
X148844000Y-101092000D02*
X140716000Y-101092000D01*
X139700000Y-106680000D02*
X138430000Y-107950000D01*
X140716000Y-101092000D02*
X139700000Y-102108000D01*
X139700000Y-102108000D02*
X139700000Y-106680000D01*
X154686000Y-106934000D02*
X148844000Y-101092000D01*
%TO.N,/A4*%
X95328500Y-115394500D02*
X95504000Y-115394500D01*
X92456000Y-112522000D02*
X95328500Y-115394500D01*
X144578000Y-149860000D02*
X144578000Y-140156000D01*
X144578000Y-140156000D02*
X145796000Y-138938000D01*
X145796000Y-138938000D02*
X145796000Y-129286000D01*
X145796000Y-129286000D02*
X142240000Y-125730000D01*
X142240000Y-125730000D02*
X140462000Y-125730000D01*
X132842000Y-115570000D02*
X132842000Y-112522000D01*
X137668000Y-120396000D02*
X132842000Y-115570000D01*
%TO.N,/A5*%
X92788500Y-115394500D02*
X92964000Y-115394500D01*
X89916000Y-112522000D02*
X92788500Y-115394500D01*
%TO.N,/A6*%
X90248500Y-115394500D02*
X90424000Y-115394500D01*
X87376000Y-112522000D02*
X90248500Y-115394500D01*
%TO.N,/A7*%
X87708500Y-115394500D02*
X87884000Y-115394500D01*
X84836000Y-112522000D02*
X87708500Y-115394500D01*
%TO.N,AI*%
X89916000Y-92964000D02*
X88646000Y-94234000D01*
X90424000Y-89154000D02*
X89916000Y-89662000D01*
X88646000Y-94234000D02*
X88646000Y-98806000D01*
X89916000Y-89662000D02*
X89916000Y-92964000D01*
X90424000Y-87272500D02*
X90424000Y-89154000D01*
X79248000Y-125730000D02*
X79248000Y-132334000D01*
X79248000Y-132334000D02*
X76962000Y-134620000D01*
%TO.N,AO*%
X86106000Y-102108000D02*
X84836000Y-103378000D01*
X89916000Y-95250000D02*
X89916000Y-100076000D01*
X87884000Y-102108000D02*
X86106000Y-102108000D01*
X84836000Y-103378000D02*
X84836000Y-104902000D01*
X89916000Y-100076000D02*
X87884000Y-102108000D01*
X92456000Y-92710000D02*
X89916000Y-95250000D01*
X92456000Y-87272500D02*
X92456000Y-92710000D01*
X107442000Y-97790000D02*
X106934000Y-97282000D01*
X110998000Y-97790000D02*
X107442000Y-97790000D01*
X111760000Y-97028000D02*
X110998000Y-97790000D01*
X111760000Y-95679500D02*
X111760000Y-97028000D01*
%TO.N,/B0*%
X105664000Y-135128000D02*
X105664000Y-135206500D01*
X102616000Y-132080000D02*
X105664000Y-135128000D01*
X141986000Y-122174000D02*
X141732000Y-121920000D01*
X117856000Y-121920000D02*
X115062000Y-124714000D01*
X141732000Y-121920000D02*
X117856000Y-121920000D01*
%TO.N,Net-(D12-Pad1)*%
X104394000Y-118539500D02*
X104394000Y-120396000D01*
X105664000Y-117269500D02*
X104394000Y-118539500D01*
%TO.N,/B1*%
X103124000Y-135128000D02*
X103124000Y-135206500D01*
X100076000Y-132080000D02*
X103124000Y-135128000D01*
X124968000Y-122428000D02*
X122682000Y-124714000D01*
X145796000Y-122936000D02*
X145034000Y-123698000D01*
X136400820Y-122428000D02*
X124968000Y-122428000D01*
X147066000Y-106934000D02*
X145796000Y-108204000D01*
X145034000Y-123698000D02*
X137670820Y-123698000D01*
X145796000Y-108204000D02*
X145796000Y-122936000D01*
X137670820Y-123698000D02*
X136400820Y-122428000D01*
%TO.N,Net-(D13-Pad1)*%
X101854000Y-118539500D02*
X101854000Y-120396000D01*
X103124000Y-117269500D02*
X101854000Y-118539500D01*
%TO.N,/B2*%
X100584000Y-135128000D02*
X100584000Y-135206500D01*
X97536000Y-132080000D02*
X100584000Y-135128000D01*
X148336000Y-110744000D02*
X148336000Y-123444000D01*
X137542409Y-124205999D02*
X136272410Y-122936000D01*
X147574001Y-124205999D02*
X137542409Y-124205999D01*
X136272410Y-122936000D02*
X127000000Y-122936000D01*
X148336000Y-123444000D02*
X147574001Y-124205999D01*
X127000000Y-122936000D02*
X125222000Y-124714000D01*
X152146000Y-106934000D02*
X148336000Y-110744000D01*
%TO.N,Net-(D14-Pad1)*%
X99314000Y-118539500D02*
X99314000Y-120396000D01*
X100584000Y-117269500D02*
X99314000Y-118539500D01*
%TO.N,/B3*%
X98044000Y-135128000D02*
X98044000Y-135206500D01*
X94996000Y-132080000D02*
X98044000Y-135128000D01*
X132842000Y-124206000D02*
X132842000Y-124714000D01*
X133661990Y-123386010D02*
X132842000Y-124206000D01*
X136086010Y-123386010D02*
X133661990Y-123386010D01*
X137356010Y-124656010D02*
X136086010Y-123386010D01*
X150876000Y-113284000D02*
X150876000Y-123698000D01*
X149917990Y-124656010D02*
X137356010Y-124656010D01*
X150876000Y-123698000D02*
X149917990Y-124656010D01*
X157226000Y-106934000D02*
X150876000Y-113284000D01*
%TO.N,Net-(D15-Pad1)*%
X96774000Y-118539500D02*
X96774000Y-120396000D01*
X98044000Y-117269500D02*
X96774000Y-118539500D01*
%TO.N,/B4*%
X95504000Y-135128000D02*
X95504000Y-135206500D01*
X92456000Y-132080000D02*
X95504000Y-135128000D01*
X132842000Y-133858000D02*
X132842000Y-132334000D01*
X136906000Y-134874000D02*
X133858000Y-134874000D01*
X133858000Y-134874000D02*
X132842000Y-133858000D01*
X142038000Y-140006000D02*
X136906000Y-134874000D01*
X142038000Y-149860000D02*
X142038000Y-140006000D01*
%TO.N,Net-(D16-Pad1)*%
X94234000Y-119027000D02*
X94234000Y-120396000D01*
X95504000Y-117757000D02*
X94234000Y-119027000D01*
X95504000Y-117269500D02*
X95504000Y-117757000D01*
%TO.N,/B5*%
X92964000Y-135128000D02*
X92964000Y-135206500D01*
X89916000Y-132080000D02*
X92964000Y-135128000D01*
X125222000Y-133604000D02*
X125222000Y-132334000D01*
X127000000Y-135382000D02*
X125222000Y-133604000D01*
X135890000Y-135382000D02*
X127000000Y-135382000D01*
X137160000Y-136652000D02*
X135890000Y-135382000D01*
%TO.N,Net-(D17-Pad1)*%
X91694000Y-119027000D02*
X91694000Y-120396000D01*
X92964000Y-117757000D02*
X91694000Y-119027000D01*
X92964000Y-117269500D02*
X92964000Y-117757000D01*
%TO.N,/B6*%
X90424000Y-135128000D02*
X90424000Y-135206500D01*
X87376000Y-132080000D02*
X90424000Y-135128000D01*
X122682000Y-134112000D02*
X122682000Y-132334000D01*
X124714000Y-136144000D02*
X122682000Y-134112000D01*
X135128000Y-136144000D02*
X124714000Y-136144000D01*
X136398000Y-137414000D02*
X135128000Y-136144000D01*
%TO.N,Net-(D18-Pad1)*%
X89154000Y-118539500D02*
X89154000Y-120396000D01*
X90424000Y-117269500D02*
X89154000Y-118539500D01*
%TO.N,/B7*%
X87884000Y-135128000D02*
X87884000Y-135206500D01*
X84836000Y-132080000D02*
X87884000Y-135128000D01*
X135636000Y-138176000D02*
X134366000Y-136906000D01*
X134366000Y-136906000D02*
X116332000Y-136906000D01*
X115062000Y-135636000D02*
X115062000Y-132334000D01*
X116332000Y-136906000D02*
X115062000Y-135636000D01*
%TO.N,Net-(D19-Pad1)*%
X86614000Y-118539500D02*
X86614000Y-120396000D01*
X87884000Y-117269500D02*
X86614000Y-118539500D01*
%TO.N,BI*%
X94488000Y-87272500D02*
X94488000Y-88646000D01*
X94488000Y-88646000D02*
X94996000Y-89154000D01*
X94996000Y-89154000D02*
X94996000Y-93472000D01*
X98806000Y-97282000D02*
X98806000Y-98806000D01*
X94996000Y-93472000D02*
X98806000Y-97282000D01*
D19*
%TO.N,Net-(D20-Pad1)*%
X109474000Y-93796500D02*
X109482000Y-93804500D01*
X109474000Y-91844500D02*
X109474000Y-93796500D01*
D17*
%TO.N,BO*%
X96520000Y-87272500D02*
X96520000Y-88392000D01*
X96520000Y-88392000D02*
X96012000Y-88900000D01*
X85344000Y-123952000D02*
X84836000Y-124460000D01*
X83566000Y-113284000D02*
X85344000Y-115062000D01*
X85344000Y-115062000D02*
X85344000Y-123952000D01*
X83566000Y-109728000D02*
X83566000Y-113284000D01*
X116332000Y-97536000D02*
X116332000Y-95679500D01*
X84836000Y-124460000D02*
X84836000Y-125222000D01*
X84836000Y-125222000D02*
X84074000Y-125984000D01*
X84074000Y-125984000D02*
X81280000Y-125984000D01*
X81280000Y-125984000D02*
X80010000Y-124714000D01*
X80010000Y-124714000D02*
X78740000Y-124714000D01*
X78740000Y-124714000D02*
X78232000Y-125222000D01*
X78232000Y-125222000D02*
X78232000Y-125984000D01*
X77216000Y-127000000D02*
X76962000Y-127000000D01*
X78232000Y-125984000D02*
X77216000Y-127000000D01*
D19*
%TO.N,Net-(D21-Pad1)*%
X111760000Y-91844500D02*
X111760000Y-93804500D01*
D17*
%TO.N,/C0*%
X105664000Y-154940000D02*
X105664000Y-155526500D01*
X102616000Y-151892000D02*
X105664000Y-154940000D01*
X104648000Y-149860000D02*
X102616000Y-151892000D01*
X109474000Y-149860000D02*
X104648000Y-149860000D01*
X115062000Y-144272000D02*
X109474000Y-149860000D01*
%TO.N,Net-(D22-Pad1)*%
X104394000Y-138839000D02*
X104394000Y-140208000D01*
X105664000Y-137569000D02*
X104394000Y-138839000D01*
X105664000Y-137081500D02*
X105664000Y-137569000D01*
%TO.N,/C1*%
X103124000Y-154940000D02*
X103124000Y-155526500D01*
X100076000Y-151892000D02*
X103124000Y-154940000D01*
%TO.N,Net-(D23-Pad1)*%
X101854000Y-138351500D02*
X101854000Y-140208000D01*
X103124000Y-137081500D02*
X101854000Y-138351500D01*
%TO.N,/C2*%
X100584000Y-154940000D02*
X100584000Y-155526500D01*
X97536000Y-151892000D02*
X100584000Y-154940000D01*
%TO.N,Net-(D24-Pad1)*%
X99314000Y-138351500D02*
X99314000Y-140208000D01*
X100584000Y-137081500D02*
X99314000Y-138351500D01*
%TO.N,/C3*%
X98044000Y-154940000D02*
X98044000Y-155526500D01*
X94996000Y-151892000D02*
X98044000Y-154940000D01*
X111760000Y-148844000D02*
X107188000Y-153416000D01*
X107188000Y-153416000D02*
X107188000Y-159258000D01*
X128270000Y-148844000D02*
X111760000Y-148844000D01*
X132842000Y-144272000D02*
X128270000Y-148844000D01*
%TO.N,Net-(D25-Pad1)*%
X96774000Y-138351500D02*
X96774000Y-140208000D01*
X98044000Y-137081500D02*
X96774000Y-138351500D01*
%TO.N,/C4*%
X95504000Y-154940000D02*
X95504000Y-155526500D01*
X92456000Y-151892000D02*
X95504000Y-154940000D01*
%TO.N,Net-(D26-Pad1)*%
X94234000Y-138351500D02*
X94234000Y-140208000D01*
X95504000Y-137081500D02*
X94234000Y-138351500D01*
%TO.N,/C5*%
X92964000Y-154940000D02*
X92964000Y-155526500D01*
X89916000Y-151892000D02*
X92964000Y-154940000D01*
%TO.N,Net-(D27-Pad1)*%
X91694000Y-138351500D02*
X91694000Y-140208000D01*
X92964000Y-137081500D02*
X91694000Y-138351500D01*
%TO.N,/C6*%
X90424000Y-154940000D02*
X90424000Y-155526500D01*
X87376000Y-151892000D02*
X90424000Y-154940000D01*
%TO.N,Net-(D28-Pad1)*%
X89154000Y-138351500D02*
X89154000Y-140208000D01*
X90424000Y-137081500D02*
X89154000Y-138351500D01*
%TO.N,/C7*%
X87884000Y-154940000D02*
X87884000Y-155526500D01*
X84836000Y-151892000D02*
X87884000Y-154940000D01*
%TO.N,Net-(D29-Pad1)*%
X86614000Y-138351500D02*
X86614000Y-140208000D01*
X87884000Y-137081500D02*
X86614000Y-138351500D01*
%TO.N,CI*%
X98552000Y-87272500D02*
X98552000Y-87884000D01*
X96266000Y-90170000D02*
X96266000Y-91186000D01*
X98552000Y-87884000D02*
X96266000Y-90170000D01*
D19*
%TO.N,Net-(D30-Pad1)*%
X114046000Y-91844500D02*
X114046000Y-93804500D01*
D17*
%TO.N,CO*%
X119888000Y-98298000D02*
X120904000Y-97282000D01*
X120904000Y-97282000D02*
X120904000Y-95679500D01*
X106426000Y-98298000D02*
X119888000Y-98298000D01*
X105156000Y-97028000D02*
X106426000Y-98298000D01*
X105156000Y-89916000D02*
X105156000Y-97028000D01*
X104140000Y-88900000D02*
X105156000Y-89916000D01*
X101346000Y-88900000D02*
X104140000Y-88900000D01*
X100584000Y-88138000D02*
X101346000Y-88900000D01*
X100584000Y-87272500D02*
X100584000Y-88138000D01*
X100076000Y-88646000D02*
X100584000Y-88138000D01*
X100076000Y-93472000D02*
X100076000Y-88646000D01*
D19*
%TO.N,Net-(D31-Pad1)*%
X116332000Y-93804500D02*
X116332000Y-91844500D01*
D17*
%TO.N,Net-(D32-Pad1)*%
X105664000Y-157401500D02*
X104394000Y-158671500D01*
X104394000Y-158671500D02*
X104394000Y-161036000D01*
%TO.N,Net-(D33-Pad1)*%
X103124000Y-157401500D02*
X103124000Y-158242000D01*
X101854000Y-159512000D02*
X101854000Y-161036000D01*
X103124000Y-158242000D02*
X101854000Y-159512000D01*
%TO.N,Net-(D34-Pad1)*%
X100584000Y-157889000D02*
X99314000Y-159159000D01*
X99314000Y-159159000D02*
X99314000Y-161036000D01*
X100584000Y-157401500D02*
X100584000Y-157889000D01*
%TO.N,Net-(D35-Pad1)*%
X96774000Y-159159000D02*
X96774000Y-161036000D01*
X98044000Y-157889000D02*
X96774000Y-159159000D01*
X98044000Y-157401500D02*
X98044000Y-157889000D01*
%TO.N,Net-(D36-Pad1)*%
X94234000Y-159159000D02*
X94234000Y-161036000D01*
X95504000Y-157889000D02*
X94234000Y-159159000D01*
X95504000Y-157401500D02*
X95504000Y-157889000D01*
%TO.N,Net-(D37-Pad1)*%
X92964000Y-157889000D02*
X91694000Y-159159000D01*
X91694000Y-159159000D02*
X91694000Y-161036000D01*
X92964000Y-157401500D02*
X92964000Y-157889000D01*
%TO.N,Net-(D38-Pad1)*%
X89938473Y-157887027D02*
X89938473Y-160251527D01*
X89938473Y-160251527D02*
X89154000Y-161036000D01*
X90424000Y-157401500D02*
X89938473Y-157887027D01*
%TO.N,Net-(D39-Pad1)*%
X86614000Y-158671500D02*
X86614000Y-161036000D01*
X87884000Y-157401500D02*
X86614000Y-158671500D01*
D19*
%TO.N,Net-(D40-Pad1)*%
X118618000Y-91844500D02*
X118618000Y-93804500D01*
D17*
%TO.N,CARRY*%
X115444410Y-138176000D02*
X109220000Y-131951590D01*
X109220000Y-131951590D02*
X109220000Y-124460000D01*
X133350000Y-138176000D02*
X115444410Y-138176000D01*
X118872000Y-158828500D02*
X122467250Y-155233250D01*
X122506500Y-155194000D02*
X135636000Y-155194000D01*
X135636000Y-155194000D02*
X138176000Y-152654000D01*
X138176000Y-152654000D02*
X138176000Y-143002000D01*
X138176000Y-143002000D02*
X133350000Y-138176000D01*
D19*
%TO.N,Net-(D41-Pad1)*%
X120904000Y-91844500D02*
X120904000Y-93804500D01*
D17*
%TO.N,A_EQ_B*%
X167438000Y-130354000D02*
X167438000Y-134620000D01*
X161036000Y-117094000D02*
X161036000Y-123952000D01*
X161036000Y-123952000D02*
X167438000Y-130354000D01*
X167386000Y-110744000D02*
X161036000Y-117094000D01*
X167386000Y-106934000D02*
X167386000Y-110744000D01*
X125808500Y-158828500D02*
X121412000Y-158828500D01*
X170688000Y-133096000D02*
X171704000Y-134112000D01*
X128778000Y-161798000D02*
X125808500Y-158828500D01*
X167640000Y-161798000D02*
X128778000Y-161798000D01*
X171704000Y-157734000D02*
X167640000Y-161798000D01*
X171704000Y-134112000D02*
X171704000Y-157734000D01*
X168962000Y-133096000D02*
X170688000Y-133096000D01*
X167438000Y-134620000D02*
X168962000Y-133096000D01*
X125222000Y-160782000D02*
X123698000Y-160782000D01*
X121744500Y-158828500D02*
X121412000Y-158828500D01*
X123698000Y-160782000D02*
X121744500Y-158828500D01*
X121412000Y-158828500D02*
X121412000Y-157734000D01*
X121412000Y-157734000D02*
X123190000Y-155956000D01*
X123190000Y-155956000D02*
X135510410Y-155956000D01*
X135510410Y-155956000D02*
X138626010Y-152840400D01*
X138626010Y-152840400D02*
X138626010Y-142690010D01*
X138626010Y-142690010D02*
X133604000Y-137668000D01*
X133604000Y-137668000D02*
X115824000Y-137668000D01*
X112270820Y-134366000D02*
X109728000Y-131823180D01*
X112522000Y-134366000D02*
X112270820Y-134366000D01*
X115824000Y-137668000D02*
X112522000Y-134366000D01*
X109728000Y-131823180D02*
X109982000Y-131569180D01*
X109982000Y-126492000D02*
X110236000Y-126238000D01*
X109982000Y-131569180D02*
X109982000Y-126492000D01*
D18*
%TO.N,Net-(D42-Pad1)*%
X81637500Y-92202000D02*
X79931500Y-92202000D01*
D17*
%TO.N,A_GT_B*%
X116332000Y-154686000D02*
X116332000Y-158828500D01*
X133096000Y-138684000D02*
X115316000Y-138684000D01*
X137414000Y-143002000D02*
X133096000Y-138684000D01*
X120982500Y-154178000D02*
X135636000Y-154178000D01*
X115316000Y-138684000D02*
X108204000Y-131572000D01*
X108204000Y-131572000D02*
X108204000Y-126238000D01*
X116332000Y-158828500D02*
X120982500Y-154178000D01*
X135636000Y-154178000D02*
X137414000Y-152400000D01*
X137414000Y-152400000D02*
X137414000Y-143002000D01*
%TO.N,ALU_OUT*%
X76708000Y-98806000D02*
X76962000Y-99060000D01*
X103472000Y-83566000D02*
X88138000Y-83566000D01*
X104695000Y-84789000D02*
X103472000Y-83566000D01*
X85852000Y-85852000D02*
X85852000Y-88900000D01*
X76708000Y-91186000D02*
X76708000Y-98806000D01*
X88138000Y-83566000D02*
X85852000Y-85852000D01*
X104695000Y-86614000D02*
X104695000Y-84789000D01*
X77470000Y-90424000D02*
X76708000Y-91186000D01*
X84328000Y-90424000D02*
X77470000Y-90424000D01*
X85852000Y-88900000D02*
X84328000Y-90424000D01*
X104036500Y-87272500D02*
X104695000Y-86614000D01*
X102616000Y-87272500D02*
X104036500Y-87272500D01*
%TO.N,ALU_S3*%
X147118000Y-149860000D02*
X147118000Y-143562000D01*
X147118000Y-143562000D02*
X148336000Y-142344000D01*
X148336000Y-142344000D02*
X148336000Y-125730000D01*
%TO.N,ALU_S2*%
X150876000Y-142240000D02*
X149606000Y-143510000D01*
X149606000Y-149808000D02*
X149658000Y-149860000D01*
X149606000Y-143510000D02*
X149606000Y-149808000D01*
X150876000Y-125730000D02*
X150876000Y-142240000D01*
%TO.N,ALU_S1*%
X152198000Y-149860000D02*
X152198000Y-144220000D01*
X152198000Y-144220000D02*
X153416000Y-143002000D01*
X153416000Y-123444000D02*
X152146000Y-122174000D01*
X153416000Y-143002000D02*
X153416000Y-123444000D01*
%TO.N,ALU_S0*%
X154686000Y-122174000D02*
X155956000Y-123444000D01*
X155956000Y-123444000D02*
X155956000Y-143002000D01*
X154738000Y-144220000D02*
X154738000Y-149860000D01*
X155956000Y-143002000D02*
X154738000Y-144220000D01*
%TO.N,ALU_MODE*%
X161036000Y-143256000D02*
X159818000Y-144474000D01*
X159818000Y-144474000D02*
X159818000Y-149860000D01*
X161036000Y-128270000D02*
X161036000Y-143256000D01*
X159766000Y-127000000D02*
X161036000Y-128270000D01*
X159766000Y-122174000D02*
X159766000Y-127000000D01*
X76962000Y-111760000D02*
X79756000Y-114554000D01*
X79756000Y-114554000D02*
X82550000Y-114554000D01*
%TO.N,CARRY*%
X122467250Y-155233250D02*
X122506500Y-155194000D01*
X86106000Y-103632000D02*
X86106000Y-105535590D01*
X92456000Y-100076000D02*
X89408000Y-103124000D01*
X86106000Y-105535590D02*
X81151590Y-110490000D01*
X93726000Y-94996000D02*
X92456000Y-96266000D01*
X86614000Y-103124000D02*
X86106000Y-103632000D01*
X93726000Y-91186000D02*
X93726000Y-94996000D01*
X89408000Y-103124000D02*
X86614000Y-103124000D01*
X81151590Y-110490000D02*
X78232000Y-110490000D01*
X92456000Y-96266000D02*
X92456000Y-100076000D01*
D19*
%TO.N,-5V_IN*%
X109069500Y-90019500D02*
X109474000Y-90019500D01*
X109474000Y-90019500D02*
X120904000Y-90019500D01*
X124526000Y-88392000D02*
X123002000Y-89916000D01*
X121007500Y-89916000D02*
X120904000Y-90019500D01*
X123002000Y-89916000D02*
X121007500Y-89916000D01*
X116332000Y-164488500D02*
X121412000Y-164488500D01*
D17*
X108100500Y-164488500D02*
X107950000Y-164338000D01*
X116332000Y-164488500D02*
X108100500Y-164488500D01*
D19*
X83462500Y-99229500D02*
X82296000Y-100396000D01*
X83462500Y-92202000D02*
X83462500Y-99229500D01*
D17*
X112522000Y-120462000D02*
X110998000Y-118938000D01*
X112522000Y-139766000D02*
X110932000Y-138176000D01*
X141986000Y-130114000D02*
X140396000Y-128524000D01*
X141986000Y-102428000D02*
X142814000Y-102428000D01*
X143764000Y-103378000D02*
X144018000Y-103378000D01*
X142814000Y-102428000D02*
X143764000Y-103378000D01*
X110810000Y-100650000D02*
X110744000Y-100584000D01*
X112522000Y-100650000D02*
X110810000Y-100650000D01*
X83124000Y-119446000D02*
X84074000Y-120396000D01*
X81026000Y-119446000D02*
X83124000Y-119446000D01*
X83124000Y-139258000D02*
X84074000Y-140208000D01*
X81026000Y-139258000D02*
X83124000Y-139258000D01*
X81026000Y-160086000D02*
X81026000Y-158242000D01*
D18*
X109474000Y-90019500D02*
X108815500Y-90019500D01*
X108815500Y-90019500D02*
X107442000Y-88646000D01*
D17*
X84074000Y-114808000D02*
X84074000Y-120396000D01*
X82296000Y-113030000D02*
X84074000Y-114808000D01*
X82296000Y-112522000D02*
X82296000Y-113030000D01*
X82296000Y-110370895D02*
X82393895Y-110273000D01*
X82296000Y-112522000D02*
X82296000Y-110370895D01*
X80518000Y-100330000D02*
X82230000Y-100330000D01*
X82230000Y-100330000D02*
X82296000Y-100396000D01*
X80264000Y-100584000D02*
X80518000Y-100330000D01*
X80264000Y-101092000D02*
X80264000Y-100584000D01*
D19*
%TO.N,+5V_IN*%
X112522000Y-122362000D02*
X112522000Y-124714000D01*
X112522000Y-141666000D02*
X112522000Y-144272000D01*
X81026000Y-143002000D02*
X82296000Y-144272000D01*
X81026000Y-141158000D02*
X81026000Y-143002000D01*
X81026000Y-163830000D02*
X82296000Y-165100000D01*
X81026000Y-161986000D02*
X81026000Y-163830000D01*
X81026000Y-123190000D02*
X82296000Y-124460000D01*
X81026000Y-121346000D02*
X81026000Y-123190000D01*
X82296000Y-102296000D02*
X82296000Y-104902000D01*
X141986000Y-134568000D02*
X142038000Y-134620000D01*
X141986000Y-132014000D02*
X141986000Y-134568000D01*
X141986000Y-104328000D02*
X141986000Y-106934000D01*
X90424000Y-85447500D02*
X102616000Y-85447500D01*
D18*
X90424000Y-85447500D02*
X89304500Y-85447500D01*
X89304500Y-85447500D02*
X88646000Y-86106000D01*
X88646000Y-86106000D02*
X88646000Y-91186000D01*
X126426000Y-91120000D02*
X126492000Y-91186000D01*
X126426000Y-88392000D02*
X126426000Y-91120000D01*
D20*
X112522000Y-102550000D02*
X112522000Y-104902000D01*
D17*
%TO.N,/Cn*%
X158496000Y-113030000D02*
X157226000Y-114300000D01*
X157226000Y-114300000D02*
X157226000Y-122174000D01*
X158496000Y-102616000D02*
X158496000Y-113030000D01*
X157226000Y-101346000D02*
X158496000Y-102616000D01*
%TO.N,/ALU2*%
X101346000Y-174698500D02*
X100584000Y-175460500D01*
X101346000Y-166370000D02*
X101346000Y-174698500D01*
X100076000Y-165100000D02*
X101346000Y-166370000D01*
X125466388Y-167016022D02*
X108319978Y-167016022D01*
X168656000Y-163322000D02*
X129160410Y-163322000D01*
X173228000Y-158750000D02*
X168656000Y-163322000D01*
X129160410Y-163322000D02*
X125466388Y-167016022D01*
X106426000Y-168910000D02*
X105918000Y-168910000D01*
X108319978Y-167016022D02*
X106426000Y-168910000D01*
X173228000Y-128016000D02*
X173228000Y-158750000D01*
X167386000Y-122174000D02*
X173228000Y-128016000D01*
%TO.N,/ALU1*%
X172662011Y-129990011D02*
X172662011Y-158553989D01*
X125279989Y-166566011D02*
X106991989Y-166566011D01*
X168402000Y-162814000D02*
X129032000Y-162814000D01*
X172662011Y-158553989D02*
X168402000Y-162814000D01*
X129032000Y-162814000D02*
X125279989Y-166566011D01*
X164846000Y-122174000D02*
X172662011Y-129990011D01*
X103886000Y-174698500D02*
X103124000Y-175460500D01*
X103886000Y-166370000D02*
X103886000Y-174698500D01*
X102616000Y-165100000D02*
X103886000Y-166370000D01*
X106991989Y-166566011D02*
X105918000Y-167640000D01*
%TO.N,/ALU0*%
X105664000Y-165100000D02*
X105156000Y-165100000D01*
X106680000Y-166116000D02*
X105664000Y-165100000D01*
X124968000Y-166116000D02*
X106680000Y-166116000D01*
X167894000Y-162306000D02*
X128778000Y-162306000D01*
X172212000Y-157988000D02*
X167894000Y-162306000D01*
X128778000Y-162306000D02*
X124968000Y-166116000D01*
X172212000Y-132080000D02*
X172212000Y-157988000D01*
X162306000Y-122174000D02*
X172212000Y-132080000D01*
X104648000Y-165608000D02*
X105156000Y-165100000D01*
X104648000Y-170180000D02*
X104648000Y-165608000D01*
X106426000Y-171958000D02*
X104648000Y-170180000D01*
X106426000Y-174698500D02*
X106426000Y-171958000D01*
X105664000Y-175460500D02*
X106426000Y-174698500D01*
%TO.N,/ALU3*%
X129288821Y-163830000D02*
X125652788Y-167466033D01*
X168910000Y-163830000D02*
X129288821Y-163830000D01*
X173736000Y-159004000D02*
X168910000Y-163830000D01*
X173736000Y-110744000D02*
X173736000Y-159004000D01*
X169926000Y-106934000D02*
X173736000Y-110744000D01*
X125652788Y-167466033D02*
X108631967Y-167466033D01*
X98806000Y-174698500D02*
X98044000Y-175460500D01*
X98806000Y-166370000D02*
X98806000Y-174698500D01*
X97536000Y-165100000D02*
X98806000Y-166370000D01*
X108631967Y-167466033D02*
X107188000Y-168910000D01*
X107188000Y-168910000D02*
X107188000Y-169672000D01*
X107188000Y-169672000D02*
X106680000Y-170180000D01*
X106680000Y-170180000D02*
X105918000Y-170180000D01*
%TO.N,/ALU6*%
X91186000Y-174688500D02*
X90424000Y-175450500D01*
X91186000Y-166370000D02*
X91186000Y-174688500D01*
X89916000Y-165100000D02*
X91186000Y-166370000D01*
%TO.N,/ALU5*%
X93726000Y-174688500D02*
X92964000Y-175450500D01*
X93726000Y-166370000D02*
X93726000Y-174688500D01*
X92456000Y-165100000D02*
X93726000Y-166370000D01*
%TO.N,/ALU4*%
X96266000Y-174688500D02*
X95504000Y-175450500D01*
X96266000Y-167501370D02*
X96266000Y-174688500D01*
X94996000Y-166231370D02*
X96266000Y-167501370D01*
X94996000Y-165100000D02*
X94996000Y-166231370D01*
%TO.N,/ALU7*%
X88646000Y-166370000D02*
X88646000Y-174688500D01*
X88646000Y-174688500D02*
X87884000Y-175450500D01*
X87376000Y-165100000D02*
X88646000Y-166370000D01*
%TO.N,Net-(U10-Pad7)*%
X157278000Y-144474000D02*
X157278000Y-149860000D01*
X158496000Y-143256000D02*
X157278000Y-144474000D01*
X158496000Y-116840000D02*
X158496000Y-143256000D01*
X162306000Y-113030000D02*
X158496000Y-116840000D01*
X162306000Y-106934000D02*
X162306000Y-113030000D01*
%TO.N,Net-(U10-Pad16)*%
X144526000Y-88138000D02*
X144526000Y-91948000D01*
X106426000Y-93726000D02*
X106426000Y-87122000D01*
X108458000Y-85090000D02*
X141478000Y-85090000D01*
X147828000Y-95250000D02*
X163508096Y-95250000D01*
X144526000Y-91948000D02*
X147828000Y-95250000D01*
X106426000Y-87122000D02*
X108458000Y-85090000D01*
X141478000Y-85090000D02*
X144526000Y-88138000D01*
X163508096Y-95250000D02*
X172051048Y-103792952D01*
%TO.N,/A_IN_CP*%
X109482000Y-95679500D02*
X109482000Y-97020000D01*
%TO.N,/B_IN_CP*%
X114046000Y-97018694D02*
X114304653Y-97277347D01*
X114046000Y-95679500D02*
X114046000Y-97018694D01*
%TO.N,/C_IN_CP*%
X118618000Y-95679500D02*
X118618000Y-97536000D01*
X124206000Y-97536000D02*
X121920000Y-97536000D01*
X126238000Y-95504000D02*
X124206000Y-97536000D01*
X132842000Y-92456000D02*
X129794000Y-95504000D01*
X139954000Y-89408000D02*
X133604000Y-89408000D01*
X132842000Y-90170000D02*
X132842000Y-92456000D01*
X133604000Y-89408000D02*
X132842000Y-90170000D01*
X129794000Y-95504000D02*
X126238000Y-95504000D01*
X141732000Y-91186000D02*
X139954000Y-89408000D01*
X135382000Y-144272000D02*
X135382000Y-148082000D01*
X135382000Y-148082000D02*
X135382000Y-148336000D01*
%TO.N,RESET*%
X112522000Y-112522000D02*
X112522000Y-116332000D01*
X112522000Y-116332000D02*
X114300000Y-118110000D01*
X114300000Y-118110000D02*
X114300000Y-123444000D01*
X114300000Y-123444000D02*
X113792000Y-123952000D01*
X113792000Y-131064000D02*
X112522000Y-132334000D01*
X113792000Y-123952000D02*
X113792000Y-131064000D01*
X109728000Y-139700000D02*
X109728000Y-145034000D01*
X109728000Y-145034000D02*
X109728000Y-148082000D01*
X77724000Y-136398000D02*
X76962000Y-137160000D01*
X83312000Y-136398000D02*
X77724000Y-136398000D01*
%TD*%
M02*
