%TF.GenerationSoftware,KiCad,Pcbnew,(5.1.9-0-10_14)*%
%TF.CreationDate,2021-06-04T12:06:49-04:00*%
%TF.ProjectId,CONTROL_LOGIC,434f4e54-524f-44c5-9f4c-4f4749432e6b,rev?*%
%TF.SameCoordinates,Original*%
%TF.FileFunction,Legend,Top*%
%TF.FilePolarity,Positive*%
%FSLAX46Y46*%
G04 Gerber Fmt 4.6, Leading zero omitted, Abs format (unit mm)*
G04 Created by KiCad (PCBNEW (5.1.9-0-10_14)) date 2021-06-04 12:06:49*
%MOMM*%
%LPD*%
G01*
G04 APERTURE LIST*
%ADD10C,0.150000*%
%ADD11C,0.120000*%
%ADD12C,0.100000*%
%ADD13C,0.200000*%
G04 APERTURE END LIST*
D10*
X220022614Y-53110314D02*
X220022614Y-54110314D01*
X220498804Y-53634123D02*
X220546423Y-53729361D01*
X220641661Y-53776980D01*
X220022614Y-53634123D02*
X220070233Y-53729361D01*
X220165471Y-53776980D01*
X220355947Y-53776980D01*
X220451185Y-53729361D01*
X220498804Y-53634123D01*
X220498804Y-53110314D01*
X221022614Y-52872219D02*
X221070233Y-52824600D01*
X221165471Y-52776980D01*
X221403566Y-52776980D01*
X221498804Y-52824600D01*
X221546423Y-52872219D01*
X221594042Y-52967457D01*
X221594042Y-53062695D01*
X221546423Y-53205552D01*
X220974995Y-53776980D01*
X221594042Y-53776980D01*
X221927376Y-52776980D02*
X222594042Y-52776980D01*
X222165471Y-53776980D01*
X219962614Y-48050314D02*
X219962614Y-49050314D01*
X220438804Y-48574123D02*
X220486423Y-48669361D01*
X220581661Y-48716980D01*
X219962614Y-48574123D02*
X220010233Y-48669361D01*
X220105471Y-48716980D01*
X220295947Y-48716980D01*
X220391185Y-48669361D01*
X220438804Y-48574123D01*
X220438804Y-48050314D01*
X220962614Y-47812219D02*
X221010233Y-47764600D01*
X221105471Y-47716980D01*
X221343566Y-47716980D01*
X221438804Y-47764600D01*
X221486423Y-47812219D01*
X221534042Y-47907457D01*
X221534042Y-48002695D01*
X221486423Y-48145552D01*
X220914995Y-48716980D01*
X221534042Y-48716980D01*
X222010233Y-48716980D02*
X222200709Y-48716980D01*
X222295947Y-48669361D01*
X222343566Y-48621742D01*
X222438804Y-48478885D01*
X222486423Y-48288409D01*
X222486423Y-47907457D01*
X222438804Y-47812219D01*
X222391185Y-47764600D01*
X222295947Y-47716980D01*
X222105471Y-47716980D01*
X222010233Y-47764600D01*
X221962614Y-47812219D01*
X221914995Y-47907457D01*
X221914995Y-48145552D01*
X221962614Y-48240790D01*
X222010233Y-48288409D01*
X222105471Y-48336028D01*
X222295947Y-48336028D01*
X222391185Y-48288409D01*
X222438804Y-48240790D01*
X222486423Y-48145552D01*
X220012614Y-50550314D02*
X220012614Y-51550314D01*
X220488804Y-51074123D02*
X220536423Y-51169361D01*
X220631661Y-51216980D01*
X220012614Y-51074123D02*
X220060233Y-51169361D01*
X220155471Y-51216980D01*
X220345947Y-51216980D01*
X220441185Y-51169361D01*
X220488804Y-51074123D01*
X220488804Y-50550314D01*
X221012614Y-50312219D02*
X221060233Y-50264600D01*
X221155471Y-50216980D01*
X221393566Y-50216980D01*
X221488804Y-50264600D01*
X221536423Y-50312219D01*
X221584042Y-50407457D01*
X221584042Y-50502695D01*
X221536423Y-50645552D01*
X220964995Y-51216980D01*
X221584042Y-51216980D01*
X222155471Y-50645552D02*
X222060233Y-50597933D01*
X222012614Y-50550314D01*
X221964995Y-50455076D01*
X221964995Y-50407457D01*
X222012614Y-50312219D01*
X222060233Y-50264600D01*
X222155471Y-50216980D01*
X222345947Y-50216980D01*
X222441185Y-50264600D01*
X222488804Y-50312219D01*
X222536423Y-50407457D01*
X222536423Y-50455076D01*
X222488804Y-50550314D01*
X222441185Y-50597933D01*
X222345947Y-50645552D01*
X222155471Y-50645552D01*
X222060233Y-50693171D01*
X222012614Y-50740790D01*
X221964995Y-50836028D01*
X221964995Y-51026504D01*
X222012614Y-51121742D01*
X222060233Y-51169361D01*
X222155471Y-51216980D01*
X222345947Y-51216980D01*
X222441185Y-51169361D01*
X222488804Y-51121742D01*
X222536423Y-51026504D01*
X222536423Y-50836028D01*
X222488804Y-50740790D01*
X222441185Y-50693171D01*
X222345947Y-50645552D01*
X219952614Y-45570314D02*
X219952614Y-46570314D01*
X220428804Y-46094123D02*
X220476423Y-46189361D01*
X220571661Y-46236980D01*
X219952614Y-46094123D02*
X220000233Y-46189361D01*
X220095471Y-46236980D01*
X220285947Y-46236980D01*
X220381185Y-46189361D01*
X220428804Y-46094123D01*
X220428804Y-45570314D01*
X220904995Y-45236980D02*
X221524042Y-45236980D01*
X221190709Y-45617933D01*
X221333566Y-45617933D01*
X221428804Y-45665552D01*
X221476423Y-45713171D01*
X221524042Y-45808409D01*
X221524042Y-46046504D01*
X221476423Y-46141742D01*
X221428804Y-46189361D01*
X221333566Y-46236980D01*
X221047852Y-46236980D01*
X220952614Y-46189361D01*
X220904995Y-46141742D01*
X222143090Y-45236980D02*
X222238328Y-45236980D01*
X222333566Y-45284600D01*
X222381185Y-45332219D01*
X222428804Y-45427457D01*
X222476423Y-45617933D01*
X222476423Y-45856028D01*
X222428804Y-46046504D01*
X222381185Y-46141742D01*
X222333566Y-46189361D01*
X222238328Y-46236980D01*
X222143090Y-46236980D01*
X222047852Y-46189361D01*
X222000233Y-46141742D01*
X221952614Y-46046504D01*
X221904995Y-45856028D01*
X221904995Y-45617933D01*
X221952614Y-45427457D01*
X222000233Y-45332219D01*
X222047852Y-45284600D01*
X222143090Y-45236980D01*
X220122614Y-68280314D02*
X220122614Y-69280314D01*
X220598804Y-68804123D02*
X220646423Y-68899361D01*
X220741661Y-68946980D01*
X220122614Y-68804123D02*
X220170233Y-68899361D01*
X220265471Y-68946980D01*
X220455947Y-68946980D01*
X220551185Y-68899361D01*
X220598804Y-68804123D01*
X220598804Y-68280314D01*
X221122614Y-68042219D02*
X221170233Y-67994600D01*
X221265471Y-67946980D01*
X221503566Y-67946980D01*
X221598804Y-67994600D01*
X221646423Y-68042219D01*
X221694042Y-68137457D01*
X221694042Y-68232695D01*
X221646423Y-68375552D01*
X221074995Y-68946980D01*
X221694042Y-68946980D01*
X222646423Y-68946980D02*
X222074995Y-68946980D01*
X222360709Y-68946980D02*
X222360709Y-67946980D01*
X222265471Y-68089838D01*
X222170233Y-68185076D01*
X222074995Y-68232695D01*
X220132614Y-65750314D02*
X220132614Y-66750314D01*
X220608804Y-66274123D02*
X220656423Y-66369361D01*
X220751661Y-66416980D01*
X220132614Y-66274123D02*
X220180233Y-66369361D01*
X220275471Y-66416980D01*
X220465947Y-66416980D01*
X220561185Y-66369361D01*
X220608804Y-66274123D01*
X220608804Y-65750314D01*
X221132614Y-65512219D02*
X221180233Y-65464600D01*
X221275471Y-65416980D01*
X221513566Y-65416980D01*
X221608804Y-65464600D01*
X221656423Y-65512219D01*
X221704042Y-65607457D01*
X221704042Y-65702695D01*
X221656423Y-65845552D01*
X221084995Y-66416980D01*
X221704042Y-66416980D01*
X222084995Y-65512219D02*
X222132614Y-65464600D01*
X222227852Y-65416980D01*
X222465947Y-65416980D01*
X222561185Y-65464600D01*
X222608804Y-65512219D01*
X222656423Y-65607457D01*
X222656423Y-65702695D01*
X222608804Y-65845552D01*
X222037376Y-66416980D01*
X222656423Y-66416980D01*
X220142614Y-63260314D02*
X220142614Y-64260314D01*
X220618804Y-63784123D02*
X220666423Y-63879361D01*
X220761661Y-63926980D01*
X220142614Y-63784123D02*
X220190233Y-63879361D01*
X220285471Y-63926980D01*
X220475947Y-63926980D01*
X220571185Y-63879361D01*
X220618804Y-63784123D01*
X220618804Y-63260314D01*
X221142614Y-63022219D02*
X221190233Y-62974600D01*
X221285471Y-62926980D01*
X221523566Y-62926980D01*
X221618804Y-62974600D01*
X221666423Y-63022219D01*
X221714042Y-63117457D01*
X221714042Y-63212695D01*
X221666423Y-63355552D01*
X221094995Y-63926980D01*
X221714042Y-63926980D01*
X222047376Y-62926980D02*
X222666423Y-62926980D01*
X222333090Y-63307933D01*
X222475947Y-63307933D01*
X222571185Y-63355552D01*
X222618804Y-63403171D01*
X222666423Y-63498409D01*
X222666423Y-63736504D01*
X222618804Y-63831742D01*
X222571185Y-63879361D01*
X222475947Y-63926980D01*
X222190233Y-63926980D01*
X222094995Y-63879361D01*
X222047376Y-63831742D01*
X220132614Y-60720314D02*
X220132614Y-61720314D01*
X220608804Y-61244123D02*
X220656423Y-61339361D01*
X220751661Y-61386980D01*
X220132614Y-61244123D02*
X220180233Y-61339361D01*
X220275471Y-61386980D01*
X220465947Y-61386980D01*
X220561185Y-61339361D01*
X220608804Y-61244123D01*
X220608804Y-60720314D01*
X221132614Y-60482219D02*
X221180233Y-60434600D01*
X221275471Y-60386980D01*
X221513566Y-60386980D01*
X221608804Y-60434600D01*
X221656423Y-60482219D01*
X221704042Y-60577457D01*
X221704042Y-60672695D01*
X221656423Y-60815552D01*
X221084995Y-61386980D01*
X221704042Y-61386980D01*
X222561185Y-60720314D02*
X222561185Y-61386980D01*
X222323090Y-60339361D02*
X222084995Y-61053647D01*
X222704042Y-61053647D01*
X220042614Y-58170314D02*
X220042614Y-59170314D01*
X220518804Y-58694123D02*
X220566423Y-58789361D01*
X220661661Y-58836980D01*
X220042614Y-58694123D02*
X220090233Y-58789361D01*
X220185471Y-58836980D01*
X220375947Y-58836980D01*
X220471185Y-58789361D01*
X220518804Y-58694123D01*
X220518804Y-58170314D01*
X221042614Y-57932219D02*
X221090233Y-57884600D01*
X221185471Y-57836980D01*
X221423566Y-57836980D01*
X221518804Y-57884600D01*
X221566423Y-57932219D01*
X221614042Y-58027457D01*
X221614042Y-58122695D01*
X221566423Y-58265552D01*
X220994995Y-58836980D01*
X221614042Y-58836980D01*
X222518804Y-57836980D02*
X222042614Y-57836980D01*
X221994995Y-58313171D01*
X222042614Y-58265552D01*
X222137852Y-58217933D01*
X222375947Y-58217933D01*
X222471185Y-58265552D01*
X222518804Y-58313171D01*
X222566423Y-58408409D01*
X222566423Y-58646504D01*
X222518804Y-58741742D01*
X222471185Y-58789361D01*
X222375947Y-58836980D01*
X222137852Y-58836980D01*
X222042614Y-58789361D01*
X221994995Y-58741742D01*
X220032614Y-55650314D02*
X220032614Y-56650314D01*
X220508804Y-56174123D02*
X220556423Y-56269361D01*
X220651661Y-56316980D01*
X220032614Y-56174123D02*
X220080233Y-56269361D01*
X220175471Y-56316980D01*
X220365947Y-56316980D01*
X220461185Y-56269361D01*
X220508804Y-56174123D01*
X220508804Y-55650314D01*
X221032614Y-55412219D02*
X221080233Y-55364600D01*
X221175471Y-55316980D01*
X221413566Y-55316980D01*
X221508804Y-55364600D01*
X221556423Y-55412219D01*
X221604042Y-55507457D01*
X221604042Y-55602695D01*
X221556423Y-55745552D01*
X220984995Y-56316980D01*
X221604042Y-56316980D01*
X222461185Y-55316980D02*
X222270709Y-55316980D01*
X222175471Y-55364600D01*
X222127852Y-55412219D01*
X222032614Y-55555076D01*
X221984995Y-55745552D01*
X221984995Y-56126504D01*
X222032614Y-56221742D01*
X222080233Y-56269361D01*
X222175471Y-56316980D01*
X222365947Y-56316980D01*
X222461185Y-56269361D01*
X222508804Y-56221742D01*
X222556423Y-56126504D01*
X222556423Y-55888409D01*
X222508804Y-55793171D01*
X222461185Y-55745552D01*
X222365947Y-55697933D01*
X222175471Y-55697933D01*
X222080233Y-55745552D01*
X222032614Y-55793171D01*
X221984995Y-55888409D01*
X220170304Y-99460314D02*
X220170304Y-100460314D01*
X220646495Y-99984123D02*
X220694114Y-100079361D01*
X220789352Y-100126980D01*
X220170304Y-99984123D02*
X220217923Y-100079361D01*
X220313161Y-100126980D01*
X220503638Y-100126980D01*
X220598876Y-100079361D01*
X220646495Y-99984123D01*
X220646495Y-99460314D01*
X221741733Y-100126980D02*
X221170304Y-100126980D01*
X221456019Y-100126980D02*
X221456019Y-99126980D01*
X221360780Y-99269838D01*
X221265542Y-99365076D01*
X221170304Y-99412695D01*
X222694114Y-100126980D02*
X222122685Y-100126980D01*
X222408400Y-100126980D02*
X222408400Y-99126980D01*
X222313161Y-99269838D01*
X222217923Y-99365076D01*
X222122685Y-99412695D01*
X220170304Y-81680314D02*
X220170304Y-82680314D01*
X220646495Y-82204123D02*
X220694114Y-82299361D01*
X220789352Y-82346980D01*
X220170304Y-82204123D02*
X220217923Y-82299361D01*
X220313161Y-82346980D01*
X220503638Y-82346980D01*
X220598876Y-82299361D01*
X220646495Y-82204123D01*
X220646495Y-81680314D01*
X221741733Y-82346980D02*
X221170304Y-82346980D01*
X221456019Y-82346980D02*
X221456019Y-81346980D01*
X221360780Y-81489838D01*
X221265542Y-81585076D01*
X221170304Y-81632695D01*
X222313161Y-81775552D02*
X222217923Y-81727933D01*
X222170304Y-81680314D01*
X222122685Y-81585076D01*
X222122685Y-81537457D01*
X222170304Y-81442219D01*
X222217923Y-81394600D01*
X222313161Y-81346980D01*
X222503638Y-81346980D01*
X222598876Y-81394600D01*
X222646495Y-81442219D01*
X222694114Y-81537457D01*
X222694114Y-81585076D01*
X222646495Y-81680314D01*
X222598876Y-81727933D01*
X222503638Y-81775552D01*
X222313161Y-81775552D01*
X222217923Y-81823171D01*
X222170304Y-81870790D01*
X222122685Y-81966028D01*
X222122685Y-82156504D01*
X222170304Y-82251742D01*
X222217923Y-82299361D01*
X222313161Y-82346980D01*
X222503638Y-82346980D01*
X222598876Y-82299361D01*
X222646495Y-82251742D01*
X222694114Y-82156504D01*
X222694114Y-81966028D01*
X222646495Y-81870790D01*
X222598876Y-81823171D01*
X222503638Y-81775552D01*
X220170304Y-84220314D02*
X220170304Y-85220314D01*
X220646495Y-84744123D02*
X220694114Y-84839361D01*
X220789352Y-84886980D01*
X220170304Y-84744123D02*
X220217923Y-84839361D01*
X220313161Y-84886980D01*
X220503638Y-84886980D01*
X220598876Y-84839361D01*
X220646495Y-84744123D01*
X220646495Y-84220314D01*
X221741733Y-84886980D02*
X221170304Y-84886980D01*
X221456019Y-84886980D02*
X221456019Y-83886980D01*
X221360780Y-84029838D01*
X221265542Y-84125076D01*
X221170304Y-84172695D01*
X222075066Y-83886980D02*
X222741733Y-83886980D01*
X222313161Y-84886980D01*
X220170304Y-76850314D02*
X220170304Y-77850314D01*
X220646495Y-77374123D02*
X220694114Y-77469361D01*
X220789352Y-77516980D01*
X220170304Y-77374123D02*
X220217923Y-77469361D01*
X220313161Y-77516980D01*
X220503638Y-77516980D01*
X220598876Y-77469361D01*
X220646495Y-77374123D01*
X220646495Y-76850314D01*
X221170304Y-76612219D02*
X221217923Y-76564600D01*
X221313161Y-76516980D01*
X221551257Y-76516980D01*
X221646495Y-76564600D01*
X221694114Y-76612219D01*
X221741733Y-76707457D01*
X221741733Y-76802695D01*
X221694114Y-76945552D01*
X221122685Y-77516980D01*
X221741733Y-77516980D01*
X222360780Y-76516980D02*
X222456019Y-76516980D01*
X222551257Y-76564600D01*
X222598876Y-76612219D01*
X222646495Y-76707457D01*
X222694114Y-76897933D01*
X222694114Y-77136028D01*
X222646495Y-77326504D01*
X222598876Y-77421742D01*
X222551257Y-77469361D01*
X222456019Y-77516980D01*
X222360780Y-77516980D01*
X222265542Y-77469361D01*
X222217923Y-77421742D01*
X222170304Y-77326504D01*
X222122685Y-77136028D01*
X222122685Y-76897933D01*
X222170304Y-76707457D01*
X222217923Y-76612219D01*
X222265542Y-76564600D01*
X222360780Y-76516980D01*
X220170304Y-86760314D02*
X220170304Y-87760314D01*
X220646495Y-87284123D02*
X220694114Y-87379361D01*
X220789352Y-87426980D01*
X220170304Y-87284123D02*
X220217923Y-87379361D01*
X220313161Y-87426980D01*
X220503638Y-87426980D01*
X220598876Y-87379361D01*
X220646495Y-87284123D01*
X220646495Y-86760314D01*
X221741733Y-87426980D02*
X221170304Y-87426980D01*
X221456019Y-87426980D02*
X221456019Y-86426980D01*
X221360780Y-86569838D01*
X221265542Y-86665076D01*
X221170304Y-86712695D01*
X222598876Y-86426980D02*
X222408400Y-86426980D01*
X222313161Y-86474600D01*
X222265542Y-86522219D01*
X222170304Y-86665076D01*
X222122685Y-86855552D01*
X222122685Y-87236504D01*
X222170304Y-87331742D01*
X222217923Y-87379361D01*
X222313161Y-87426980D01*
X222503638Y-87426980D01*
X222598876Y-87379361D01*
X222646495Y-87331742D01*
X222694114Y-87236504D01*
X222694114Y-86998409D01*
X222646495Y-86903171D01*
X222598876Y-86855552D01*
X222503638Y-86807933D01*
X222313161Y-86807933D01*
X222217923Y-86855552D01*
X222170304Y-86903171D01*
X222122685Y-86998409D01*
X220170304Y-94380314D02*
X220170304Y-95380314D01*
X220646495Y-94904123D02*
X220694114Y-94999361D01*
X220789352Y-95046980D01*
X220170304Y-94904123D02*
X220217923Y-94999361D01*
X220313161Y-95046980D01*
X220503638Y-95046980D01*
X220598876Y-94999361D01*
X220646495Y-94904123D01*
X220646495Y-94380314D01*
X221741733Y-95046980D02*
X221170304Y-95046980D01*
X221456019Y-95046980D02*
X221456019Y-94046980D01*
X221360780Y-94189838D01*
X221265542Y-94285076D01*
X221170304Y-94332695D01*
X222075066Y-94046980D02*
X222694114Y-94046980D01*
X222360780Y-94427933D01*
X222503638Y-94427933D01*
X222598876Y-94475552D01*
X222646495Y-94523171D01*
X222694114Y-94618409D01*
X222694114Y-94856504D01*
X222646495Y-94951742D01*
X222598876Y-94999361D01*
X222503638Y-95046980D01*
X222217923Y-95046980D01*
X222122685Y-94999361D01*
X222075066Y-94951742D01*
X220168304Y-79190314D02*
X220168304Y-80190314D01*
X220644495Y-79714123D02*
X220692114Y-79809361D01*
X220787352Y-79856980D01*
X220168304Y-79714123D02*
X220215923Y-79809361D01*
X220311161Y-79856980D01*
X220501638Y-79856980D01*
X220596876Y-79809361D01*
X220644495Y-79714123D01*
X220644495Y-79190314D01*
X221739733Y-79856980D02*
X221168304Y-79856980D01*
X221454019Y-79856980D02*
X221454019Y-78856980D01*
X221358780Y-78999838D01*
X221263542Y-79095076D01*
X221168304Y-79142695D01*
X222215923Y-79856980D02*
X222406400Y-79856980D01*
X222501638Y-79809361D01*
X222549257Y-79761742D01*
X222644495Y-79618885D01*
X222692114Y-79428409D01*
X222692114Y-79047457D01*
X222644495Y-78952219D01*
X222596876Y-78904600D01*
X222501638Y-78856980D01*
X222311161Y-78856980D01*
X222215923Y-78904600D01*
X222168304Y-78952219D01*
X222120685Y-79047457D01*
X222120685Y-79285552D01*
X222168304Y-79380790D01*
X222215923Y-79428409D01*
X222311161Y-79476028D01*
X222501638Y-79476028D01*
X222596876Y-79428409D01*
X222644495Y-79380790D01*
X222692114Y-79285552D01*
X220170304Y-89300314D02*
X220170304Y-90300314D01*
X220646495Y-89824123D02*
X220694114Y-89919361D01*
X220789352Y-89966980D01*
X220170304Y-89824123D02*
X220217923Y-89919361D01*
X220313161Y-89966980D01*
X220503638Y-89966980D01*
X220598876Y-89919361D01*
X220646495Y-89824123D01*
X220646495Y-89300314D01*
X221741733Y-89966980D02*
X221170304Y-89966980D01*
X221456019Y-89966980D02*
X221456019Y-88966980D01*
X221360780Y-89109838D01*
X221265542Y-89205076D01*
X221170304Y-89252695D01*
X222646495Y-88966980D02*
X222170304Y-88966980D01*
X222122685Y-89443171D01*
X222170304Y-89395552D01*
X222265542Y-89347933D01*
X222503638Y-89347933D01*
X222598876Y-89395552D01*
X222646495Y-89443171D01*
X222694114Y-89538409D01*
X222694114Y-89776504D01*
X222646495Y-89871742D01*
X222598876Y-89919361D01*
X222503638Y-89966980D01*
X222265542Y-89966980D01*
X222170304Y-89919361D01*
X222122685Y-89871742D01*
X220170304Y-96920314D02*
X220170304Y-97920314D01*
X220646495Y-97444123D02*
X220694114Y-97539361D01*
X220789352Y-97586980D01*
X220170304Y-97444123D02*
X220217923Y-97539361D01*
X220313161Y-97586980D01*
X220503638Y-97586980D01*
X220598876Y-97539361D01*
X220646495Y-97444123D01*
X220646495Y-96920314D01*
X221741733Y-97586980D02*
X221170304Y-97586980D01*
X221456019Y-97586980D02*
X221456019Y-96586980D01*
X221360780Y-96729838D01*
X221265542Y-96825076D01*
X221170304Y-96872695D01*
X222122685Y-96682219D02*
X222170304Y-96634600D01*
X222265542Y-96586980D01*
X222503638Y-96586980D01*
X222598876Y-96634600D01*
X222646495Y-96682219D01*
X222694114Y-96777457D01*
X222694114Y-96872695D01*
X222646495Y-97015552D01*
X222075066Y-97586980D01*
X222694114Y-97586980D01*
X220170304Y-91840314D02*
X220170304Y-92840314D01*
X220646495Y-92364123D02*
X220694114Y-92459361D01*
X220789352Y-92506980D01*
X220170304Y-92364123D02*
X220217923Y-92459361D01*
X220313161Y-92506980D01*
X220503638Y-92506980D01*
X220598876Y-92459361D01*
X220646495Y-92364123D01*
X220646495Y-91840314D01*
X221741733Y-92506980D02*
X221170304Y-92506980D01*
X221456019Y-92506980D02*
X221456019Y-91506980D01*
X221360780Y-91649838D01*
X221265542Y-91745076D01*
X221170304Y-91792695D01*
X222598876Y-91840314D02*
X222598876Y-92506980D01*
X222360780Y-91459361D02*
X222122685Y-92173647D01*
X222741733Y-92173647D01*
X220540495Y-131034314D02*
X220540495Y-132034314D01*
X221016685Y-131558123D02*
X221064304Y-131653361D01*
X221159542Y-131700980D01*
X220540495Y-131558123D02*
X220588114Y-131653361D01*
X220683352Y-131700980D01*
X220873828Y-131700980D01*
X220969066Y-131653361D01*
X221016685Y-131558123D01*
X221016685Y-131034314D01*
X222111923Y-131700980D02*
X221540495Y-131700980D01*
X221826209Y-131700980D02*
X221826209Y-130700980D01*
X221730971Y-130843838D01*
X221635733Y-130939076D01*
X221540495Y-130986695D01*
X220550495Y-128504314D02*
X220550495Y-129504314D01*
X221026685Y-129028123D02*
X221074304Y-129123361D01*
X221169542Y-129170980D01*
X220550495Y-129028123D02*
X220598114Y-129123361D01*
X220693352Y-129170980D01*
X220883828Y-129170980D01*
X220979066Y-129123361D01*
X221026685Y-129028123D01*
X221026685Y-128504314D01*
X221550495Y-128266219D02*
X221598114Y-128218600D01*
X221693352Y-128170980D01*
X221931447Y-128170980D01*
X222026685Y-128218600D01*
X222074304Y-128266219D01*
X222121923Y-128361457D01*
X222121923Y-128456695D01*
X222074304Y-128599552D01*
X221502876Y-129170980D01*
X222121923Y-129170980D01*
X220550495Y-125964314D02*
X220550495Y-126964314D01*
X221026685Y-126488123D02*
X221074304Y-126583361D01*
X221169542Y-126630980D01*
X220550495Y-126488123D02*
X220598114Y-126583361D01*
X220693352Y-126630980D01*
X220883828Y-126630980D01*
X220979066Y-126583361D01*
X221026685Y-126488123D01*
X221026685Y-125964314D01*
X221502876Y-125630980D02*
X222121923Y-125630980D01*
X221788590Y-126011933D01*
X221931447Y-126011933D01*
X222026685Y-126059552D01*
X222074304Y-126107171D01*
X222121923Y-126202409D01*
X222121923Y-126440504D01*
X222074304Y-126535742D01*
X222026685Y-126583361D01*
X221931447Y-126630980D01*
X221645733Y-126630980D01*
X221550495Y-126583361D01*
X221502876Y-126535742D01*
X220550495Y-123424314D02*
X220550495Y-124424314D01*
X221026685Y-123948123D02*
X221074304Y-124043361D01*
X221169542Y-124090980D01*
X220550495Y-123948123D02*
X220598114Y-124043361D01*
X220693352Y-124090980D01*
X220883828Y-124090980D01*
X220979066Y-124043361D01*
X221026685Y-123948123D01*
X221026685Y-123424314D01*
X222026685Y-123424314D02*
X222026685Y-124090980D01*
X221788590Y-123043361D02*
X221550495Y-123757647D01*
X222169542Y-123757647D01*
X220550495Y-120884314D02*
X220550495Y-121884314D01*
X221026685Y-121408123D02*
X221074304Y-121503361D01*
X221169542Y-121550980D01*
X220550495Y-121408123D02*
X220598114Y-121503361D01*
X220693352Y-121550980D01*
X220883828Y-121550980D01*
X220979066Y-121503361D01*
X221026685Y-121408123D01*
X221026685Y-120884314D01*
X222074304Y-120550980D02*
X221598114Y-120550980D01*
X221550495Y-121027171D01*
X221598114Y-120979552D01*
X221693352Y-120931933D01*
X221931447Y-120931933D01*
X222026685Y-120979552D01*
X222074304Y-121027171D01*
X222121923Y-121122409D01*
X222121923Y-121360504D01*
X222074304Y-121455742D01*
X222026685Y-121503361D01*
X221931447Y-121550980D01*
X221693352Y-121550980D01*
X221598114Y-121503361D01*
X221550495Y-121455742D01*
X220550495Y-118344314D02*
X220550495Y-119344314D01*
X221026685Y-118868123D02*
X221074304Y-118963361D01*
X221169542Y-119010980D01*
X220550495Y-118868123D02*
X220598114Y-118963361D01*
X220693352Y-119010980D01*
X220883828Y-119010980D01*
X220979066Y-118963361D01*
X221026685Y-118868123D01*
X221026685Y-118344314D01*
X222026685Y-118010980D02*
X221836209Y-118010980D01*
X221740971Y-118058600D01*
X221693352Y-118106219D01*
X221598114Y-118249076D01*
X221550495Y-118439552D01*
X221550495Y-118820504D01*
X221598114Y-118915742D01*
X221645733Y-118963361D01*
X221740971Y-119010980D01*
X221931447Y-119010980D01*
X222026685Y-118963361D01*
X222074304Y-118915742D01*
X222121923Y-118820504D01*
X222121923Y-118582409D01*
X222074304Y-118487171D01*
X222026685Y-118439552D01*
X221931447Y-118391933D01*
X221740971Y-118391933D01*
X221645733Y-118439552D01*
X221598114Y-118487171D01*
X221550495Y-118582409D01*
X220550495Y-115804314D02*
X220550495Y-116804314D01*
X221026685Y-116328123D02*
X221074304Y-116423361D01*
X221169542Y-116470980D01*
X220550495Y-116328123D02*
X220598114Y-116423361D01*
X220693352Y-116470980D01*
X220883828Y-116470980D01*
X220979066Y-116423361D01*
X221026685Y-116328123D01*
X221026685Y-115804314D01*
X221502876Y-115470980D02*
X222169542Y-115470980D01*
X221740971Y-116470980D01*
X220550495Y-113264314D02*
X220550495Y-114264314D01*
X221026685Y-113788123D02*
X221074304Y-113883361D01*
X221169542Y-113930980D01*
X220550495Y-113788123D02*
X220598114Y-113883361D01*
X220693352Y-113930980D01*
X220883828Y-113930980D01*
X220979066Y-113883361D01*
X221026685Y-113788123D01*
X221026685Y-113264314D01*
X221740971Y-113359552D02*
X221645733Y-113311933D01*
X221598114Y-113264314D01*
X221550495Y-113169076D01*
X221550495Y-113121457D01*
X221598114Y-113026219D01*
X221645733Y-112978600D01*
X221740971Y-112930980D01*
X221931447Y-112930980D01*
X222026685Y-112978600D01*
X222074304Y-113026219D01*
X222121923Y-113121457D01*
X222121923Y-113169076D01*
X222074304Y-113264314D01*
X222026685Y-113311933D01*
X221931447Y-113359552D01*
X221740971Y-113359552D01*
X221645733Y-113407171D01*
X221598114Y-113454790D01*
X221550495Y-113550028D01*
X221550495Y-113740504D01*
X221598114Y-113835742D01*
X221645733Y-113883361D01*
X221740971Y-113930980D01*
X221931447Y-113930980D01*
X222026685Y-113883361D01*
X222074304Y-113835742D01*
X222121923Y-113740504D01*
X222121923Y-113550028D01*
X222074304Y-113454790D01*
X222026685Y-113407171D01*
X221931447Y-113359552D01*
X220550495Y-110724314D02*
X220550495Y-111724314D01*
X221026685Y-111248123D02*
X221074304Y-111343361D01*
X221169542Y-111390980D01*
X220550495Y-111248123D02*
X220598114Y-111343361D01*
X220693352Y-111390980D01*
X220883828Y-111390980D01*
X220979066Y-111343361D01*
X221026685Y-111248123D01*
X221026685Y-110724314D01*
X221645733Y-111390980D02*
X221836209Y-111390980D01*
X221931447Y-111343361D01*
X221979066Y-111295742D01*
X222074304Y-111152885D01*
X222121923Y-110962409D01*
X222121923Y-110581457D01*
X222074304Y-110486219D01*
X222026685Y-110438600D01*
X221931447Y-110390980D01*
X221740971Y-110390980D01*
X221645733Y-110438600D01*
X221598114Y-110486219D01*
X221550495Y-110581457D01*
X221550495Y-110819552D01*
X221598114Y-110914790D01*
X221645733Y-110962409D01*
X221740971Y-111010028D01*
X221931447Y-111010028D01*
X222026685Y-110962409D01*
X222074304Y-110914790D01*
X222121923Y-110819552D01*
X220564304Y-108174314D02*
X220564304Y-109174314D01*
X221040495Y-108698123D02*
X221088114Y-108793361D01*
X221183352Y-108840980D01*
X220564304Y-108698123D02*
X220611923Y-108793361D01*
X220707161Y-108840980D01*
X220897638Y-108840980D01*
X220992876Y-108793361D01*
X221040495Y-108698123D01*
X221040495Y-108174314D01*
X222135733Y-108840980D02*
X221564304Y-108840980D01*
X221850019Y-108840980D02*
X221850019Y-107840980D01*
X221754780Y-107983838D01*
X221659542Y-108079076D01*
X221564304Y-108126695D01*
X222754780Y-107840980D02*
X222850019Y-107840980D01*
X222945257Y-107888600D01*
X222992876Y-107936219D01*
X223040495Y-108031457D01*
X223088114Y-108221933D01*
X223088114Y-108460028D01*
X223040495Y-108650504D01*
X222992876Y-108745742D01*
X222945257Y-108793361D01*
X222850019Y-108840980D01*
X222754780Y-108840980D01*
X222659542Y-108793361D01*
X222611923Y-108745742D01*
X222564304Y-108650504D01*
X222516685Y-108460028D01*
X222516685Y-108221933D01*
X222564304Y-108031457D01*
X222611923Y-107936219D01*
X222659542Y-107888600D01*
X222754780Y-107840980D01*
D11*
X243356400Y-47704600D02*
X243356400Y-48654600D01*
X246106400Y-47704600D02*
X243356400Y-47704600D01*
X254906400Y-47704600D02*
X254906400Y-48604600D01*
X252406400Y-47704600D02*
X254906400Y-47704600D01*
D10*
X245529900Y-149521171D02*
X244767995Y-149521171D01*
X238199900Y-149611171D02*
X237437995Y-149611171D01*
X237818947Y-149230219D02*
X237818947Y-149992123D01*
D11*
X213788400Y-26442600D02*
X214468400Y-26442600D01*
X211328400Y-26442600D02*
X212008400Y-26442600D01*
X208818400Y-26442600D02*
X209498400Y-26442600D01*
X206348400Y-26442600D02*
X207028400Y-26442600D01*
X203698400Y-26432600D02*
X204378400Y-26432600D01*
D10*
X206422685Y-26770219D02*
X206470304Y-26722600D01*
X206565542Y-26674980D01*
X206803638Y-26674980D01*
X206898876Y-26722600D01*
X206946495Y-26770219D01*
X206994114Y-26865457D01*
X206994114Y-26960695D01*
X206946495Y-27103552D01*
X206375066Y-27674980D01*
X206994114Y-27674980D01*
X208835066Y-26684980D02*
X209454114Y-26684980D01*
X209120780Y-27065933D01*
X209263638Y-27065933D01*
X209358876Y-27113552D01*
X209406495Y-27161171D01*
X209454114Y-27256409D01*
X209454114Y-27494504D01*
X209406495Y-27589742D01*
X209358876Y-27637361D01*
X209263638Y-27684980D01*
X208977923Y-27684980D01*
X208882685Y-27637361D01*
X208835066Y-27589742D01*
X214366495Y-26694980D02*
X213890304Y-26694980D01*
X213842685Y-27171171D01*
X213890304Y-27123552D01*
X213985542Y-27075933D01*
X214223638Y-27075933D01*
X214318876Y-27123552D01*
X214366495Y-27171171D01*
X214414114Y-27266409D01*
X214414114Y-27504504D01*
X214366495Y-27599742D01*
X214318876Y-27647361D01*
X214223638Y-27694980D01*
X213985542Y-27694980D01*
X213890304Y-27647361D01*
X213842685Y-27599742D01*
X211848876Y-27028314D02*
X211848876Y-27694980D01*
X211610780Y-26647361D02*
X211372685Y-27361647D01*
X211991733Y-27361647D01*
X204354114Y-27664980D02*
X203782685Y-27664980D01*
X204068400Y-27664980D02*
X204068400Y-26664980D01*
X203973161Y-26807838D01*
X203877923Y-26903076D01*
X203782685Y-26950695D01*
X214246495Y-20734980D02*
X213770304Y-20734980D01*
X213722685Y-21211171D01*
X213770304Y-21163552D01*
X213865542Y-21115933D01*
X214103638Y-21115933D01*
X214198876Y-21163552D01*
X214246495Y-21211171D01*
X214294114Y-21306409D01*
X214294114Y-21544504D01*
X214246495Y-21639742D01*
X214198876Y-21687361D01*
X214103638Y-21734980D01*
X213865542Y-21734980D01*
X213770304Y-21687361D01*
X213722685Y-21639742D01*
X211728876Y-21068314D02*
X211728876Y-21734980D01*
X211490780Y-20687361D02*
X211252685Y-21401647D01*
X211871733Y-21401647D01*
X208715066Y-20724980D02*
X209334114Y-20724980D01*
X209000780Y-21105933D01*
X209143638Y-21105933D01*
X209238876Y-21153552D01*
X209286495Y-21201171D01*
X209334114Y-21296409D01*
X209334114Y-21534504D01*
X209286495Y-21629742D01*
X209238876Y-21677361D01*
X209143638Y-21724980D01*
X208857923Y-21724980D01*
X208762685Y-21677361D01*
X208715066Y-21629742D01*
X206302685Y-20810219D02*
X206350304Y-20762600D01*
X206445542Y-20714980D01*
X206683638Y-20714980D01*
X206778876Y-20762600D01*
X206826495Y-20810219D01*
X206874114Y-20905457D01*
X206874114Y-21000695D01*
X206826495Y-21143552D01*
X206255066Y-21714980D01*
X206874114Y-21714980D01*
X204234114Y-21704980D02*
X203662685Y-21704980D01*
X203948400Y-21704980D02*
X203948400Y-20704980D01*
X203853161Y-20847838D01*
X203757923Y-20943076D01*
X203662685Y-20990695D01*
X200690780Y-30772600D02*
X200690780Y-30582123D01*
X200738400Y-30486885D01*
X200833638Y-30391647D01*
X201024114Y-30344028D01*
X201357447Y-30344028D01*
X201547923Y-30391647D01*
X201643161Y-30486885D01*
X201690780Y-30582123D01*
X201690780Y-30772600D01*
X201643161Y-30867838D01*
X201547923Y-30963076D01*
X201357447Y-31010695D01*
X201024114Y-31010695D01*
X200833638Y-30963076D01*
X200738400Y-30867838D01*
X200690780Y-30772600D01*
X200690780Y-29915457D02*
X201500304Y-29915457D01*
X201595542Y-29867838D01*
X201643161Y-29820219D01*
X201690780Y-29724980D01*
X201690780Y-29534504D01*
X201643161Y-29439266D01*
X201595542Y-29391647D01*
X201500304Y-29344028D01*
X200690780Y-29344028D01*
X200690780Y-29010695D02*
X200690780Y-28439266D01*
X201690780Y-28724980D02*
X200690780Y-28724980D01*
X201700780Y-24505814D02*
X200700780Y-24505814D01*
X201700780Y-24029623D02*
X200700780Y-24029623D01*
X201700780Y-23458195D01*
X200700780Y-23458195D01*
D11*
X187726400Y-25124600D02*
X187726400Y-23994600D01*
D10*
X247351638Y-48111742D02*
X247304019Y-48159361D01*
X247161161Y-48206980D01*
X247065923Y-48206980D01*
X246923066Y-48159361D01*
X246827828Y-48064123D01*
X246780209Y-47968885D01*
X246732590Y-47778409D01*
X246732590Y-47635552D01*
X246780209Y-47445076D01*
X246827828Y-47349838D01*
X246923066Y-47254600D01*
X247065923Y-47206980D01*
X247161161Y-47206980D01*
X247304019Y-47254600D01*
X247351638Y-47302219D01*
X247923066Y-48206980D02*
X247827828Y-48159361D01*
X247780209Y-48111742D01*
X247732590Y-48016504D01*
X247732590Y-47730790D01*
X247780209Y-47635552D01*
X247827828Y-47587933D01*
X247923066Y-47540314D01*
X248065923Y-47540314D01*
X248161161Y-47587933D01*
X248208780Y-47635552D01*
X248256400Y-47730790D01*
X248256400Y-48016504D01*
X248208780Y-48111742D01*
X248161161Y-48159361D01*
X248065923Y-48206980D01*
X247923066Y-48206980D01*
X248684971Y-47540314D02*
X248684971Y-48206980D01*
X248684971Y-47635552D02*
X248732590Y-47587933D01*
X248827828Y-47540314D01*
X248970685Y-47540314D01*
X249065923Y-47587933D01*
X249113542Y-47683171D01*
X249113542Y-48206980D01*
X249446876Y-47540314D02*
X249827828Y-47540314D01*
X249589733Y-47206980D02*
X249589733Y-48064123D01*
X249637352Y-48159361D01*
X249732590Y-48206980D01*
X249827828Y-48206980D01*
X250161161Y-48206980D02*
X250161161Y-47540314D01*
X250161161Y-47730790D02*
X250208780Y-47635552D01*
X250256400Y-47587933D01*
X250351638Y-47540314D01*
X250446876Y-47540314D01*
X250923066Y-48206980D02*
X250827828Y-48159361D01*
X250780209Y-48111742D01*
X250732590Y-48016504D01*
X250732590Y-47730790D01*
X250780209Y-47635552D01*
X250827828Y-47587933D01*
X250923066Y-47540314D01*
X251065923Y-47540314D01*
X251161161Y-47587933D01*
X251208780Y-47635552D01*
X251256400Y-47730790D01*
X251256400Y-48016504D01*
X251208780Y-48111742D01*
X251161161Y-48159361D01*
X251065923Y-48206980D01*
X250923066Y-48206980D01*
X251827828Y-48206980D02*
X251732590Y-48159361D01*
X251684971Y-48064123D01*
X251684971Y-47206980D01*
D11*
X167912400Y-157660600D02*
X168582400Y-157660600D01*
X167912400Y-155870600D02*
X167912400Y-157660600D01*
X167932400Y-146330600D02*
X168562400Y-146330600D01*
X167932400Y-148700600D02*
X167932400Y-146330600D01*
D10*
X168189066Y-155524290D02*
X168189066Y-155048100D01*
X168474780Y-155619528D02*
X167474780Y-155286195D01*
X168474780Y-154952861D01*
X168474780Y-154619528D02*
X167474780Y-154619528D01*
X167474780Y-154381433D01*
X167522400Y-154238576D01*
X167617638Y-154143338D01*
X167712876Y-154095719D01*
X167903352Y-154048100D01*
X168046209Y-154048100D01*
X168236685Y-154095719D01*
X168331923Y-154143338D01*
X168427161Y-154238576D01*
X168474780Y-154381433D01*
X168474780Y-154619528D01*
X168474780Y-153619528D02*
X167474780Y-153619528D01*
X167474780Y-153381433D01*
X167522400Y-153238576D01*
X167617638Y-153143338D01*
X167712876Y-153095719D01*
X167903352Y-153048100D01*
X168046209Y-153048100D01*
X168236685Y-153095719D01*
X168331923Y-153143338D01*
X168427161Y-153238576D01*
X168474780Y-153381433D01*
X168474780Y-153619528D01*
X168474780Y-152048100D02*
X167998590Y-152381433D01*
X168474780Y-152619528D02*
X167474780Y-152619528D01*
X167474780Y-152238576D01*
X167522400Y-152143338D01*
X167570019Y-152095719D01*
X167665257Y-152048100D01*
X167808114Y-152048100D01*
X167903352Y-152095719D01*
X167950971Y-152143338D01*
X167998590Y-152238576D01*
X167998590Y-152619528D01*
X167950971Y-151619528D02*
X167950971Y-151286195D01*
X168474780Y-151143338D02*
X168474780Y-151619528D01*
X167474780Y-151619528D01*
X167474780Y-151143338D01*
X168427161Y-150762385D02*
X168474780Y-150619528D01*
X168474780Y-150381433D01*
X168427161Y-150286195D01*
X168379542Y-150238576D01*
X168284304Y-150190957D01*
X168189066Y-150190957D01*
X168093828Y-150238576D01*
X168046209Y-150286195D01*
X167998590Y-150381433D01*
X167950971Y-150571909D01*
X167903352Y-150667147D01*
X167855733Y-150714766D01*
X167760495Y-150762385D01*
X167665257Y-150762385D01*
X167570019Y-150714766D01*
X167522400Y-150667147D01*
X167474780Y-150571909D01*
X167474780Y-150333814D01*
X167522400Y-150190957D01*
X168427161Y-149810004D02*
X168474780Y-149667147D01*
X168474780Y-149429052D01*
X168427161Y-149333814D01*
X168379542Y-149286195D01*
X168284304Y-149238576D01*
X168189066Y-149238576D01*
X168093828Y-149286195D01*
X168046209Y-149333814D01*
X167998590Y-149429052D01*
X167950971Y-149619528D01*
X167903352Y-149714766D01*
X167855733Y-149762385D01*
X167760495Y-149810004D01*
X167665257Y-149810004D01*
X167570019Y-149762385D01*
X167522400Y-149714766D01*
X167474780Y-149619528D01*
X167474780Y-149381433D01*
X167522400Y-149238576D01*
D12*
X158770685Y-124556980D02*
X158770685Y-124937933D01*
X159104019Y-124699838D02*
X158246876Y-124699838D01*
X158151638Y-124747457D01*
X158104019Y-124842695D01*
X158104019Y-124937933D01*
X158104019Y-125271266D02*
X159104019Y-125271266D01*
X158104019Y-125699838D02*
X158627828Y-125699838D01*
X158723066Y-125652219D01*
X158770685Y-125556980D01*
X158770685Y-125414123D01*
X158723066Y-125318885D01*
X158675447Y-125271266D01*
X158151638Y-126556980D02*
X158104019Y-126461742D01*
X158104019Y-126271266D01*
X158151638Y-126176028D01*
X158246876Y-126128409D01*
X158627828Y-126128409D01*
X158723066Y-126176028D01*
X158770685Y-126271266D01*
X158770685Y-126461742D01*
X158723066Y-126556980D01*
X158627828Y-126604600D01*
X158532590Y-126604600D01*
X158437352Y-126128409D01*
X159104019Y-126937933D02*
X158104019Y-127176028D01*
X158818304Y-127366504D01*
X158104019Y-127556980D01*
X159104019Y-127795076D01*
X158104019Y-128176028D02*
X158770685Y-128176028D01*
X159104019Y-128176028D02*
X159056400Y-128128409D01*
X159008780Y-128176028D01*
X159056400Y-128223647D01*
X159104019Y-128176028D01*
X159008780Y-128176028D01*
X158151638Y-129080790D02*
X158104019Y-128985552D01*
X158104019Y-128795076D01*
X158151638Y-128699838D01*
X158199257Y-128652219D01*
X158294495Y-128604600D01*
X158580209Y-128604600D01*
X158675447Y-128652219D01*
X158723066Y-128699838D01*
X158770685Y-128795076D01*
X158770685Y-128985552D01*
X158723066Y-129080790D01*
X158104019Y-129509361D02*
X159104019Y-129509361D01*
X158484971Y-129604600D02*
X158104019Y-129890314D01*
X158770685Y-129890314D02*
X158389733Y-129509361D01*
X158151638Y-130699838D02*
X158104019Y-130604600D01*
X158104019Y-130414123D01*
X158151638Y-130318885D01*
X158246876Y-130271266D01*
X158627828Y-130271266D01*
X158723066Y-130318885D01*
X158770685Y-130414123D01*
X158770685Y-130604600D01*
X158723066Y-130699838D01*
X158627828Y-130747457D01*
X158532590Y-130747457D01*
X158437352Y-130271266D01*
X158104019Y-131604600D02*
X159104019Y-131604600D01*
X158151638Y-131604600D02*
X158104019Y-131509361D01*
X158104019Y-131318885D01*
X158151638Y-131223647D01*
X158199257Y-131176028D01*
X158294495Y-131128409D01*
X158580209Y-131128409D01*
X158675447Y-131176028D01*
X158723066Y-131223647D01*
X158770685Y-131318885D01*
X158770685Y-131509361D01*
X158723066Y-131604600D01*
X159104019Y-131985552D02*
X158104019Y-132223647D01*
X158818304Y-132414123D01*
X158104019Y-132604600D01*
X159104019Y-132842695D01*
X158151638Y-133604600D02*
X158104019Y-133509361D01*
X158104019Y-133318885D01*
X158151638Y-133223647D01*
X158246876Y-133176028D01*
X158627828Y-133176028D01*
X158723066Y-133223647D01*
X158770685Y-133318885D01*
X158770685Y-133509361D01*
X158723066Y-133604600D01*
X158627828Y-133652219D01*
X158532590Y-133652219D01*
X158437352Y-133176028D01*
X158104019Y-134080790D02*
X159104019Y-134080790D01*
X158723066Y-134080790D02*
X158770685Y-134176028D01*
X158770685Y-134366504D01*
X158723066Y-134461742D01*
X158675447Y-134509361D01*
X158580209Y-134556980D01*
X158294495Y-134556980D01*
X158199257Y-134509361D01*
X158151638Y-134461742D01*
X158104019Y-134366504D01*
X158104019Y-134176028D01*
X158151638Y-134080790D01*
X158104019Y-134985552D02*
X159104019Y-134985552D01*
X159104019Y-135223647D01*
X159056400Y-135366504D01*
X158961161Y-135461742D01*
X158865923Y-135509361D01*
X158675447Y-135556980D01*
X158532590Y-135556980D01*
X158342114Y-135509361D01*
X158246876Y-135461742D01*
X158151638Y-135366504D01*
X158104019Y-135223647D01*
X158104019Y-134985552D01*
X158151638Y-136366504D02*
X158104019Y-136271266D01*
X158104019Y-136080790D01*
X158151638Y-135985552D01*
X158246876Y-135937933D01*
X158627828Y-135937933D01*
X158723066Y-135985552D01*
X158770685Y-136080790D01*
X158770685Y-136271266D01*
X158723066Y-136366504D01*
X158627828Y-136414123D01*
X158532590Y-136414123D01*
X158437352Y-135937933D01*
X158770685Y-136747457D02*
X158104019Y-136985552D01*
X158770685Y-137223647D01*
X159151638Y-138318885D02*
X157865923Y-137461742D01*
X158675447Y-138795076D02*
X158723066Y-138699838D01*
X158770685Y-138652219D01*
X158865923Y-138604600D01*
X158913542Y-138604600D01*
X159008780Y-138652219D01*
X159056400Y-138699838D01*
X159104019Y-138795076D01*
X159104019Y-138985552D01*
X159056400Y-139080790D01*
X159008780Y-139128409D01*
X158913542Y-139176028D01*
X158865923Y-139176028D01*
X158770685Y-139128409D01*
X158723066Y-139080790D01*
X158675447Y-138985552D01*
X158675447Y-138795076D01*
X158627828Y-138699838D01*
X158580209Y-138652219D01*
X158484971Y-138604600D01*
X158294495Y-138604600D01*
X158199257Y-138652219D01*
X158151638Y-138699838D01*
X158104019Y-138795076D01*
X158104019Y-138985552D01*
X158151638Y-139080790D01*
X158199257Y-139128409D01*
X158294495Y-139176028D01*
X158484971Y-139176028D01*
X158580209Y-139128409D01*
X158627828Y-139080790D01*
X158675447Y-138985552D01*
X158484971Y-139604600D02*
X158484971Y-140366504D01*
X158104019Y-140842695D02*
X159104019Y-140842695D01*
X158723066Y-140842695D02*
X158770685Y-140937933D01*
X158770685Y-141128409D01*
X158723066Y-141223647D01*
X158675447Y-141271266D01*
X158580209Y-141318885D01*
X158294495Y-141318885D01*
X158199257Y-141271266D01*
X158151638Y-141223647D01*
X158104019Y-141128409D01*
X158104019Y-140937933D01*
X158151638Y-140842695D01*
X158104019Y-141747457D02*
X158770685Y-141747457D01*
X159104019Y-141747457D02*
X159056400Y-141699838D01*
X159008780Y-141747457D01*
X159056400Y-141795076D01*
X159104019Y-141747457D01*
X159008780Y-141747457D01*
X158770685Y-142080790D02*
X158770685Y-142461742D01*
X159104019Y-142223647D02*
X158246876Y-142223647D01*
X158151638Y-142271266D01*
X158104019Y-142366504D01*
X158104019Y-142461742D01*
X158484971Y-142795076D02*
X158484971Y-143556980D01*
X158151638Y-144461742D02*
X158104019Y-144366504D01*
X158104019Y-144176028D01*
X158151638Y-144080790D01*
X158199257Y-144033171D01*
X158294495Y-143985552D01*
X158580209Y-143985552D01*
X158675447Y-144033171D01*
X158723066Y-144080790D01*
X158770685Y-144176028D01*
X158770685Y-144366504D01*
X158723066Y-144461742D01*
X158104019Y-145033171D02*
X158151638Y-144937933D01*
X158199257Y-144890314D01*
X158294495Y-144842695D01*
X158580209Y-144842695D01*
X158675447Y-144890314D01*
X158723066Y-144937933D01*
X158770685Y-145033171D01*
X158770685Y-145176028D01*
X158723066Y-145271266D01*
X158675447Y-145318885D01*
X158580209Y-145366504D01*
X158294495Y-145366504D01*
X158199257Y-145318885D01*
X158151638Y-145271266D01*
X158104019Y-145176028D01*
X158104019Y-145033171D01*
X158104019Y-145795076D02*
X158770685Y-145795076D01*
X158675447Y-145795076D02*
X158723066Y-145842695D01*
X158770685Y-145937933D01*
X158770685Y-146080790D01*
X158723066Y-146176028D01*
X158627828Y-146223647D01*
X158104019Y-146223647D01*
X158627828Y-146223647D02*
X158723066Y-146271266D01*
X158770685Y-146366504D01*
X158770685Y-146509361D01*
X158723066Y-146604600D01*
X158627828Y-146652219D01*
X158104019Y-146652219D01*
X158770685Y-147128409D02*
X157770685Y-147128409D01*
X158723066Y-147128409D02*
X158770685Y-147223647D01*
X158770685Y-147414123D01*
X158723066Y-147509361D01*
X158675447Y-147556980D01*
X158580209Y-147604600D01*
X158294495Y-147604600D01*
X158199257Y-147556980D01*
X158151638Y-147509361D01*
X158104019Y-147414123D01*
X158104019Y-147223647D01*
X158151638Y-147128409D01*
X158770685Y-148461742D02*
X158104019Y-148461742D01*
X158770685Y-148033171D02*
X158246876Y-148033171D01*
X158151638Y-148080790D01*
X158104019Y-148176028D01*
X158104019Y-148318885D01*
X158151638Y-148414123D01*
X158199257Y-148461742D01*
X158770685Y-148795076D02*
X158770685Y-149176028D01*
X159104019Y-148937933D02*
X158246876Y-148937933D01*
X158151638Y-148985552D01*
X158104019Y-149080790D01*
X158104019Y-149176028D01*
X158151638Y-149890314D02*
X158104019Y-149795076D01*
X158104019Y-149604600D01*
X158151638Y-149509361D01*
X158246876Y-149461742D01*
X158627828Y-149461742D01*
X158723066Y-149509361D01*
X158770685Y-149604600D01*
X158770685Y-149795076D01*
X158723066Y-149890314D01*
X158627828Y-149937933D01*
X158532590Y-149937933D01*
X158437352Y-149461742D01*
X158104019Y-150366504D02*
X158770685Y-150366504D01*
X158580209Y-150366504D02*
X158675447Y-150414123D01*
X158723066Y-150461742D01*
X158770685Y-150556980D01*
X158770685Y-150652219D01*
D13*
X217830209Y-139297457D02*
X217830209Y-143297457D01*
X219734971Y-141392695D02*
X219925447Y-141773647D01*
X220306400Y-141964123D01*
X217830209Y-141392695D02*
X218020685Y-141773647D01*
X218401638Y-141964123D01*
X219163542Y-141964123D01*
X219544495Y-141773647D01*
X219734971Y-141392695D01*
X219734971Y-139297457D01*
X224306400Y-141583171D02*
X224115923Y-141773647D01*
X223544495Y-141964123D01*
X223163542Y-141964123D01*
X222592114Y-141773647D01*
X222211161Y-141392695D01*
X222020685Y-141011742D01*
X221830209Y-140249838D01*
X221830209Y-139678409D01*
X222020685Y-138916504D01*
X222211161Y-138535552D01*
X222592114Y-138154600D01*
X223163542Y-137964123D01*
X223544495Y-137964123D01*
X224115923Y-138154600D01*
X224306400Y-138345076D01*
X226592114Y-141964123D02*
X226211161Y-141773647D01*
X226020685Y-141583171D01*
X225830209Y-141202219D01*
X225830209Y-140059361D01*
X226020685Y-139678409D01*
X226211161Y-139487933D01*
X226592114Y-139297457D01*
X227163542Y-139297457D01*
X227544495Y-139487933D01*
X227734971Y-139678409D01*
X227925447Y-140059361D01*
X227925447Y-141202219D01*
X227734971Y-141583171D01*
X227544495Y-141773647D01*
X227163542Y-141964123D01*
X226592114Y-141964123D01*
X231354019Y-141964123D02*
X231354019Y-137964123D01*
X231354019Y-141773647D02*
X230973066Y-141964123D01*
X230211161Y-141964123D01*
X229830209Y-141773647D01*
X229639733Y-141583171D01*
X229449257Y-141202219D01*
X229449257Y-140059361D01*
X229639733Y-139678409D01*
X229830209Y-139487933D01*
X230211161Y-139297457D01*
X230973066Y-139297457D01*
X231354019Y-139487933D01*
X234782590Y-141773647D02*
X234401638Y-141964123D01*
X233639733Y-141964123D01*
X233258780Y-141773647D01*
X233068304Y-141392695D01*
X233068304Y-139868885D01*
X233258780Y-139487933D01*
X233639733Y-139297457D01*
X234401638Y-139297457D01*
X234782590Y-139487933D01*
X234973066Y-139868885D01*
X234973066Y-140249838D01*
X233068304Y-140630790D01*
D10*
X207187161Y-150039052D02*
X207234780Y-149896195D01*
X207234780Y-149658100D01*
X207187161Y-149562861D01*
X207139542Y-149515242D01*
X207044304Y-149467623D01*
X206949066Y-149467623D01*
X206853828Y-149515242D01*
X206806209Y-149562861D01*
X206758590Y-149658100D01*
X206710971Y-149848576D01*
X206663352Y-149943814D01*
X206615733Y-149991433D01*
X206520495Y-150039052D01*
X206425257Y-150039052D01*
X206330019Y-149991433D01*
X206282400Y-149943814D01*
X206234780Y-149848576D01*
X206234780Y-149610480D01*
X206282400Y-149467623D01*
X206234780Y-149181909D02*
X206234780Y-148610480D01*
X207234780Y-148896195D02*
X206234780Y-148896195D01*
X206710971Y-148277147D02*
X206710971Y-147943814D01*
X207234780Y-147800957D02*
X207234780Y-148277147D01*
X206234780Y-148277147D01*
X206234780Y-147800957D01*
X207234780Y-147372385D02*
X206234780Y-147372385D01*
X206234780Y-146991433D01*
X206282400Y-146896195D01*
X206330019Y-146848576D01*
X206425257Y-146800957D01*
X206568114Y-146800957D01*
X206663352Y-146848576D01*
X206710971Y-146896195D01*
X206758590Y-146991433D01*
X206758590Y-147372385D01*
X207234780Y-145848576D02*
X207234780Y-146420004D01*
X207234780Y-146134290D02*
X206234780Y-146134290D01*
X206377638Y-146229528D01*
X206472876Y-146324766D01*
X206520495Y-146420004D01*
X204647161Y-150039052D02*
X204694780Y-149896195D01*
X204694780Y-149658100D01*
X204647161Y-149562861D01*
X204599542Y-149515242D01*
X204504304Y-149467623D01*
X204409066Y-149467623D01*
X204313828Y-149515242D01*
X204266209Y-149562861D01*
X204218590Y-149658100D01*
X204170971Y-149848576D01*
X204123352Y-149943814D01*
X204075733Y-149991433D01*
X203980495Y-150039052D01*
X203885257Y-150039052D01*
X203790019Y-149991433D01*
X203742400Y-149943814D01*
X203694780Y-149848576D01*
X203694780Y-149610480D01*
X203742400Y-149467623D01*
X203694780Y-149181909D02*
X203694780Y-148610480D01*
X204694780Y-148896195D02*
X203694780Y-148896195D01*
X204170971Y-148277147D02*
X204170971Y-147943814D01*
X204694780Y-147800957D02*
X204694780Y-148277147D01*
X203694780Y-148277147D01*
X203694780Y-147800957D01*
X204694780Y-147372385D02*
X203694780Y-147372385D01*
X203694780Y-146991433D01*
X203742400Y-146896195D01*
X203790019Y-146848576D01*
X203885257Y-146800957D01*
X204028114Y-146800957D01*
X204123352Y-146848576D01*
X204170971Y-146896195D01*
X204218590Y-146991433D01*
X204218590Y-147372385D01*
X203790019Y-146420004D02*
X203742400Y-146372385D01*
X203694780Y-146277147D01*
X203694780Y-146039052D01*
X203742400Y-145943814D01*
X203790019Y-145896195D01*
X203885257Y-145848576D01*
X203980495Y-145848576D01*
X204123352Y-145896195D01*
X204694780Y-146467623D01*
X204694780Y-145848576D01*
X202107161Y-150039052D02*
X202154780Y-149896195D01*
X202154780Y-149658100D01*
X202107161Y-149562861D01*
X202059542Y-149515242D01*
X201964304Y-149467623D01*
X201869066Y-149467623D01*
X201773828Y-149515242D01*
X201726209Y-149562861D01*
X201678590Y-149658100D01*
X201630971Y-149848576D01*
X201583352Y-149943814D01*
X201535733Y-149991433D01*
X201440495Y-150039052D01*
X201345257Y-150039052D01*
X201250019Y-149991433D01*
X201202400Y-149943814D01*
X201154780Y-149848576D01*
X201154780Y-149610480D01*
X201202400Y-149467623D01*
X201154780Y-149181909D02*
X201154780Y-148610480D01*
X202154780Y-148896195D02*
X201154780Y-148896195D01*
X201630971Y-148277147D02*
X201630971Y-147943814D01*
X202154780Y-147800957D02*
X202154780Y-148277147D01*
X201154780Y-148277147D01*
X201154780Y-147800957D01*
X202154780Y-147372385D02*
X201154780Y-147372385D01*
X201154780Y-146991433D01*
X201202400Y-146896195D01*
X201250019Y-146848576D01*
X201345257Y-146800957D01*
X201488114Y-146800957D01*
X201583352Y-146848576D01*
X201630971Y-146896195D01*
X201678590Y-146991433D01*
X201678590Y-147372385D01*
X201154780Y-146467623D02*
X201154780Y-145848576D01*
X201535733Y-146181909D01*
X201535733Y-146039052D01*
X201583352Y-145943814D01*
X201630971Y-145896195D01*
X201726209Y-145848576D01*
X201964304Y-145848576D01*
X202059542Y-145896195D01*
X202107161Y-145943814D01*
X202154780Y-146039052D01*
X202154780Y-146324766D01*
X202107161Y-146420004D01*
X202059542Y-146467623D01*
X199090971Y-149562861D02*
X199090971Y-149896195D01*
X199614780Y-149896195D02*
X198614780Y-149896195D01*
X198614780Y-149420004D01*
X199614780Y-148562861D02*
X199614780Y-149039052D01*
X198614780Y-149039052D01*
X199329066Y-148277147D02*
X199329066Y-147800957D01*
X199614780Y-148372385D02*
X198614780Y-148039052D01*
X199614780Y-147705719D01*
X198662400Y-146848576D02*
X198614780Y-146943814D01*
X198614780Y-147086671D01*
X198662400Y-147229528D01*
X198757638Y-147324766D01*
X198852876Y-147372385D01*
X199043352Y-147420004D01*
X199186209Y-147420004D01*
X199376685Y-147372385D01*
X199471923Y-147324766D01*
X199567161Y-147229528D01*
X199614780Y-147086671D01*
X199614780Y-146991433D01*
X199567161Y-146848576D01*
X199519542Y-146800957D01*
X199186209Y-146800957D01*
X199186209Y-146991433D01*
X199614780Y-145848576D02*
X199614780Y-146420004D01*
X199614780Y-146134290D02*
X198614780Y-146134290D01*
X198757638Y-146229528D01*
X198852876Y-146324766D01*
X198900495Y-146420004D01*
X196550971Y-149562861D02*
X196550971Y-149896195D01*
X197074780Y-149896195D02*
X196074780Y-149896195D01*
X196074780Y-149420004D01*
X197074780Y-148562861D02*
X197074780Y-149039052D01*
X196074780Y-149039052D01*
X196789066Y-148277147D02*
X196789066Y-147800957D01*
X197074780Y-148372385D02*
X196074780Y-148039052D01*
X197074780Y-147705719D01*
X196122400Y-146848576D02*
X196074780Y-146943814D01*
X196074780Y-147086671D01*
X196122400Y-147229528D01*
X196217638Y-147324766D01*
X196312876Y-147372385D01*
X196503352Y-147420004D01*
X196646209Y-147420004D01*
X196836685Y-147372385D01*
X196931923Y-147324766D01*
X197027161Y-147229528D01*
X197074780Y-147086671D01*
X197074780Y-146991433D01*
X197027161Y-146848576D01*
X196979542Y-146800957D01*
X196646209Y-146800957D01*
X196646209Y-146991433D01*
X196170019Y-146420004D02*
X196122400Y-146372385D01*
X196074780Y-146277147D01*
X196074780Y-146039052D01*
X196122400Y-145943814D01*
X196170019Y-145896195D01*
X196265257Y-145848576D01*
X196360495Y-145848576D01*
X196503352Y-145896195D01*
X197074780Y-146467623D01*
X197074780Y-145848576D01*
X194010971Y-149562861D02*
X194010971Y-149896195D01*
X194534780Y-149896195D02*
X193534780Y-149896195D01*
X193534780Y-149420004D01*
X194534780Y-148562861D02*
X194534780Y-149039052D01*
X193534780Y-149039052D01*
X194249066Y-148277147D02*
X194249066Y-147800957D01*
X194534780Y-148372385D02*
X193534780Y-148039052D01*
X194534780Y-147705719D01*
X193582400Y-146848576D02*
X193534780Y-146943814D01*
X193534780Y-147086671D01*
X193582400Y-147229528D01*
X193677638Y-147324766D01*
X193772876Y-147372385D01*
X193963352Y-147420004D01*
X194106209Y-147420004D01*
X194296685Y-147372385D01*
X194391923Y-147324766D01*
X194487161Y-147229528D01*
X194534780Y-147086671D01*
X194534780Y-146991433D01*
X194487161Y-146848576D01*
X194439542Y-146800957D01*
X194106209Y-146800957D01*
X194106209Y-146991433D01*
X193534780Y-146467623D02*
X193534780Y-145848576D01*
X193915733Y-146181909D01*
X193915733Y-146039052D01*
X193963352Y-145943814D01*
X194010971Y-145896195D01*
X194106209Y-145848576D01*
X194344304Y-145848576D01*
X194439542Y-145896195D01*
X194487161Y-145943814D01*
X194534780Y-146039052D01*
X194534780Y-146324766D01*
X194487161Y-146420004D01*
X194439542Y-146467623D01*
X191470971Y-149562861D02*
X191470971Y-149896195D01*
X191994780Y-149896195D02*
X190994780Y-149896195D01*
X190994780Y-149420004D01*
X191994780Y-148562861D02*
X191994780Y-149039052D01*
X190994780Y-149039052D01*
X191709066Y-148277147D02*
X191709066Y-147800957D01*
X191994780Y-148372385D02*
X190994780Y-148039052D01*
X191994780Y-147705719D01*
X191042400Y-146848576D02*
X190994780Y-146943814D01*
X190994780Y-147086671D01*
X191042400Y-147229528D01*
X191137638Y-147324766D01*
X191232876Y-147372385D01*
X191423352Y-147420004D01*
X191566209Y-147420004D01*
X191756685Y-147372385D01*
X191851923Y-147324766D01*
X191947161Y-147229528D01*
X191994780Y-147086671D01*
X191994780Y-146991433D01*
X191947161Y-146848576D01*
X191899542Y-146800957D01*
X191566209Y-146800957D01*
X191566209Y-146991433D01*
X191328114Y-145943814D02*
X191994780Y-145943814D01*
X190947161Y-146181909D02*
X191661447Y-146420004D01*
X191661447Y-145800957D01*
X189454780Y-149910480D02*
X188454780Y-149910480D01*
X189454780Y-149434290D02*
X188454780Y-149434290D01*
X189454780Y-148862861D01*
X188454780Y-148862861D01*
X189407161Y-148434290D02*
X189454780Y-148291433D01*
X189454780Y-148053338D01*
X189407161Y-147958100D01*
X189359542Y-147910480D01*
X189264304Y-147862861D01*
X189169066Y-147862861D01*
X189073828Y-147910480D01*
X189026209Y-147958100D01*
X188978590Y-148053338D01*
X188930971Y-148243814D01*
X188883352Y-148339052D01*
X188835733Y-148386671D01*
X188740495Y-148434290D01*
X188645257Y-148434290D01*
X188550019Y-148386671D01*
X188502400Y-148339052D01*
X188454780Y-148243814D01*
X188454780Y-148005719D01*
X188502400Y-147862861D01*
X188454780Y-147577147D02*
X188454780Y-147005719D01*
X189454780Y-147291433D02*
X188454780Y-147291433D01*
X189454780Y-146148576D02*
X189454780Y-146720004D01*
X189454780Y-146434290D02*
X188454780Y-146434290D01*
X188597638Y-146529528D01*
X188692876Y-146624766D01*
X188740495Y-146720004D01*
X186914780Y-149910480D02*
X185914780Y-149910480D01*
X186914780Y-149434290D02*
X185914780Y-149434290D01*
X186914780Y-148862861D01*
X185914780Y-148862861D01*
X186867161Y-148434290D02*
X186914780Y-148291433D01*
X186914780Y-148053338D01*
X186867161Y-147958100D01*
X186819542Y-147910480D01*
X186724304Y-147862861D01*
X186629066Y-147862861D01*
X186533828Y-147910480D01*
X186486209Y-147958100D01*
X186438590Y-148053338D01*
X186390971Y-148243814D01*
X186343352Y-148339052D01*
X186295733Y-148386671D01*
X186200495Y-148434290D01*
X186105257Y-148434290D01*
X186010019Y-148386671D01*
X185962400Y-148339052D01*
X185914780Y-148243814D01*
X185914780Y-148005719D01*
X185962400Y-147862861D01*
X185914780Y-147577147D02*
X185914780Y-147005719D01*
X186914780Y-147291433D02*
X185914780Y-147291433D01*
X186010019Y-146720004D02*
X185962400Y-146672385D01*
X185914780Y-146577147D01*
X185914780Y-146339052D01*
X185962400Y-146243814D01*
X186010019Y-146196195D01*
X186105257Y-146148576D01*
X186200495Y-146148576D01*
X186343352Y-146196195D01*
X186914780Y-146767623D01*
X186914780Y-146148576D01*
X184374780Y-149910480D02*
X183374780Y-149910480D01*
X184374780Y-149434290D02*
X183374780Y-149434290D01*
X184374780Y-148862861D01*
X183374780Y-148862861D01*
X184327161Y-148434290D02*
X184374780Y-148291433D01*
X184374780Y-148053338D01*
X184327161Y-147958100D01*
X184279542Y-147910480D01*
X184184304Y-147862861D01*
X184089066Y-147862861D01*
X183993828Y-147910480D01*
X183946209Y-147958100D01*
X183898590Y-148053338D01*
X183850971Y-148243814D01*
X183803352Y-148339052D01*
X183755733Y-148386671D01*
X183660495Y-148434290D01*
X183565257Y-148434290D01*
X183470019Y-148386671D01*
X183422400Y-148339052D01*
X183374780Y-148243814D01*
X183374780Y-148005719D01*
X183422400Y-147862861D01*
X183374780Y-147577147D02*
X183374780Y-147005719D01*
X184374780Y-147291433D02*
X183374780Y-147291433D01*
X183374780Y-146767623D02*
X183374780Y-146148576D01*
X183755733Y-146481909D01*
X183755733Y-146339052D01*
X183803352Y-146243814D01*
X183850971Y-146196195D01*
X183946209Y-146148576D01*
X184184304Y-146148576D01*
X184279542Y-146196195D01*
X184327161Y-146243814D01*
X184374780Y-146339052D01*
X184374780Y-146624766D01*
X184327161Y-146720004D01*
X184279542Y-146767623D01*
X181834780Y-149910480D02*
X180834780Y-149910480D01*
X181834780Y-149434290D02*
X180834780Y-149434290D01*
X181834780Y-148862861D01*
X180834780Y-148862861D01*
X181787161Y-148434290D02*
X181834780Y-148291433D01*
X181834780Y-148053338D01*
X181787161Y-147958100D01*
X181739542Y-147910480D01*
X181644304Y-147862861D01*
X181549066Y-147862861D01*
X181453828Y-147910480D01*
X181406209Y-147958100D01*
X181358590Y-148053338D01*
X181310971Y-148243814D01*
X181263352Y-148339052D01*
X181215733Y-148386671D01*
X181120495Y-148434290D01*
X181025257Y-148434290D01*
X180930019Y-148386671D01*
X180882400Y-148339052D01*
X180834780Y-148243814D01*
X180834780Y-148005719D01*
X180882400Y-147862861D01*
X180834780Y-147577147D02*
X180834780Y-147005719D01*
X181834780Y-147291433D02*
X180834780Y-147291433D01*
X181168114Y-146243814D02*
X181834780Y-146243814D01*
X180787161Y-146481909D02*
X181501447Y-146720004D01*
X181501447Y-146100957D01*
X179294780Y-149910480D02*
X178294780Y-149910480D01*
X179294780Y-149434290D02*
X178294780Y-149434290D01*
X179294780Y-148862861D01*
X178294780Y-148862861D01*
X179247161Y-148434290D02*
X179294780Y-148291433D01*
X179294780Y-148053338D01*
X179247161Y-147958100D01*
X179199542Y-147910480D01*
X179104304Y-147862861D01*
X179009066Y-147862861D01*
X178913828Y-147910480D01*
X178866209Y-147958100D01*
X178818590Y-148053338D01*
X178770971Y-148243814D01*
X178723352Y-148339052D01*
X178675733Y-148386671D01*
X178580495Y-148434290D01*
X178485257Y-148434290D01*
X178390019Y-148386671D01*
X178342400Y-148339052D01*
X178294780Y-148243814D01*
X178294780Y-148005719D01*
X178342400Y-147862861D01*
X178294780Y-147577147D02*
X178294780Y-147005719D01*
X179294780Y-147291433D02*
X178294780Y-147291433D01*
X178294780Y-146196195D02*
X178294780Y-146672385D01*
X178770971Y-146720004D01*
X178723352Y-146672385D01*
X178675733Y-146577147D01*
X178675733Y-146339052D01*
X178723352Y-146243814D01*
X178770971Y-146196195D01*
X178866209Y-146148576D01*
X179104304Y-146148576D01*
X179199542Y-146196195D01*
X179247161Y-146243814D01*
X179294780Y-146339052D01*
X179294780Y-146577147D01*
X179247161Y-146672385D01*
X179199542Y-146720004D01*
X176754780Y-149910480D02*
X175754780Y-149910480D01*
X176754780Y-149434290D02*
X175754780Y-149434290D01*
X176754780Y-148862861D01*
X175754780Y-148862861D01*
X176707161Y-148434290D02*
X176754780Y-148291433D01*
X176754780Y-148053338D01*
X176707161Y-147958100D01*
X176659542Y-147910480D01*
X176564304Y-147862861D01*
X176469066Y-147862861D01*
X176373828Y-147910480D01*
X176326209Y-147958100D01*
X176278590Y-148053338D01*
X176230971Y-148243814D01*
X176183352Y-148339052D01*
X176135733Y-148386671D01*
X176040495Y-148434290D01*
X175945257Y-148434290D01*
X175850019Y-148386671D01*
X175802400Y-148339052D01*
X175754780Y-148243814D01*
X175754780Y-148005719D01*
X175802400Y-147862861D01*
X175754780Y-147577147D02*
X175754780Y-147005719D01*
X176754780Y-147291433D02*
X175754780Y-147291433D01*
X175754780Y-146243814D02*
X175754780Y-146434290D01*
X175802400Y-146529528D01*
X175850019Y-146577147D01*
X175992876Y-146672385D01*
X176183352Y-146720004D01*
X176564304Y-146720004D01*
X176659542Y-146672385D01*
X176707161Y-146624766D01*
X176754780Y-146529528D01*
X176754780Y-146339052D01*
X176707161Y-146243814D01*
X176659542Y-146196195D01*
X176564304Y-146148576D01*
X176326209Y-146148576D01*
X176230971Y-146196195D01*
X176183352Y-146243814D01*
X176135733Y-146339052D01*
X176135733Y-146529528D01*
X176183352Y-146624766D01*
X176230971Y-146672385D01*
X176326209Y-146720004D01*
X174214780Y-149910480D02*
X173214780Y-149910480D01*
X174214780Y-149434290D02*
X173214780Y-149434290D01*
X174214780Y-148862861D01*
X173214780Y-148862861D01*
X174167161Y-148434290D02*
X174214780Y-148291433D01*
X174214780Y-148053338D01*
X174167161Y-147958100D01*
X174119542Y-147910480D01*
X174024304Y-147862861D01*
X173929066Y-147862861D01*
X173833828Y-147910480D01*
X173786209Y-147958100D01*
X173738590Y-148053338D01*
X173690971Y-148243814D01*
X173643352Y-148339052D01*
X173595733Y-148386671D01*
X173500495Y-148434290D01*
X173405257Y-148434290D01*
X173310019Y-148386671D01*
X173262400Y-148339052D01*
X173214780Y-148243814D01*
X173214780Y-148005719D01*
X173262400Y-147862861D01*
X173214780Y-147577147D02*
X173214780Y-147005719D01*
X174214780Y-147291433D02*
X173214780Y-147291433D01*
X173214780Y-146767623D02*
X173214780Y-146100957D01*
X174214780Y-146529528D01*
X171674780Y-149910480D02*
X170674780Y-149910480D01*
X171674780Y-149434290D02*
X170674780Y-149434290D01*
X171674780Y-148862861D01*
X170674780Y-148862861D01*
X171627161Y-148434290D02*
X171674780Y-148291433D01*
X171674780Y-148053338D01*
X171627161Y-147958100D01*
X171579542Y-147910480D01*
X171484304Y-147862861D01*
X171389066Y-147862861D01*
X171293828Y-147910480D01*
X171246209Y-147958100D01*
X171198590Y-148053338D01*
X171150971Y-148243814D01*
X171103352Y-148339052D01*
X171055733Y-148386671D01*
X170960495Y-148434290D01*
X170865257Y-148434290D01*
X170770019Y-148386671D01*
X170722400Y-148339052D01*
X170674780Y-148243814D01*
X170674780Y-148005719D01*
X170722400Y-147862861D01*
X170674780Y-147577147D02*
X170674780Y-147005719D01*
X171674780Y-147291433D02*
X170674780Y-147291433D01*
X171103352Y-146529528D02*
X171055733Y-146624766D01*
X171008114Y-146672385D01*
X170912876Y-146720004D01*
X170865257Y-146720004D01*
X170770019Y-146672385D01*
X170722400Y-146624766D01*
X170674780Y-146529528D01*
X170674780Y-146339052D01*
X170722400Y-146243814D01*
X170770019Y-146196195D01*
X170865257Y-146148576D01*
X170912876Y-146148576D01*
X171008114Y-146196195D01*
X171055733Y-146243814D01*
X171103352Y-146339052D01*
X171103352Y-146529528D01*
X171150971Y-146624766D01*
X171198590Y-146672385D01*
X171293828Y-146720004D01*
X171484304Y-146720004D01*
X171579542Y-146672385D01*
X171627161Y-146624766D01*
X171674780Y-146529528D01*
X171674780Y-146339052D01*
X171627161Y-146243814D01*
X171579542Y-146196195D01*
X171484304Y-146148576D01*
X171293828Y-146148576D01*
X171198590Y-146196195D01*
X171150971Y-146243814D01*
X171103352Y-146339052D01*
X219600685Y-25926814D02*
X218600685Y-25926814D01*
X219076876Y-26403004D02*
X218981638Y-26450623D01*
X218934019Y-26545861D01*
X219076876Y-25926814D02*
X218981638Y-25974433D01*
X218934019Y-26069671D01*
X218934019Y-26260147D01*
X218981638Y-26355385D01*
X219076876Y-26403004D01*
X219600685Y-26403004D01*
X219934019Y-26879195D02*
X219934019Y-27498242D01*
X219553066Y-27164909D01*
X219553066Y-27307766D01*
X219505447Y-27403004D01*
X219457828Y-27450623D01*
X219362590Y-27498242D01*
X219124495Y-27498242D01*
X219029257Y-27450623D01*
X218981638Y-27403004D01*
X218934019Y-27307766D01*
X218934019Y-27022052D01*
X218981638Y-26926814D01*
X219029257Y-26879195D01*
X218934019Y-28450623D02*
X218934019Y-27879195D01*
X218934019Y-28164909D02*
X219934019Y-28164909D01*
X219791161Y-28069671D01*
X219695923Y-27974433D01*
X219648304Y-27879195D01*
X222160685Y-25776814D02*
X221160685Y-25776814D01*
X221636876Y-26253004D02*
X221541638Y-26300623D01*
X221494019Y-26395861D01*
X221636876Y-25776814D02*
X221541638Y-25824433D01*
X221494019Y-25919671D01*
X221494019Y-26110147D01*
X221541638Y-26205385D01*
X221636876Y-26253004D01*
X222160685Y-26253004D01*
X222494019Y-26729195D02*
X222494019Y-27348242D01*
X222113066Y-27014909D01*
X222113066Y-27157766D01*
X222065447Y-27253004D01*
X222017828Y-27300623D01*
X221922590Y-27348242D01*
X221684495Y-27348242D01*
X221589257Y-27300623D01*
X221541638Y-27253004D01*
X221494019Y-27157766D01*
X221494019Y-26872052D01*
X221541638Y-26776814D01*
X221589257Y-26729195D01*
X222398780Y-27729195D02*
X222446400Y-27776814D01*
X222494019Y-27872052D01*
X222494019Y-28110147D01*
X222446400Y-28205385D01*
X222398780Y-28253004D01*
X222303542Y-28300623D01*
X222208304Y-28300623D01*
X222065447Y-28253004D01*
X221494019Y-27681576D01*
X221494019Y-28300623D01*
X218974495Y-29063480D02*
X219774495Y-29063480D01*
X219393542Y-29063480D02*
X219393542Y-29520623D01*
X218974495Y-29520623D02*
X219774495Y-29520623D01*
X218974495Y-30244433D02*
X219393542Y-30244433D01*
X219469733Y-30206338D01*
X219507828Y-30130147D01*
X219507828Y-29977766D01*
X219469733Y-29901576D01*
X219012590Y-30244433D02*
X218974495Y-30168242D01*
X218974495Y-29977766D01*
X219012590Y-29901576D01*
X219088780Y-29863480D01*
X219164971Y-29863480D01*
X219241161Y-29901576D01*
X219279257Y-29977766D01*
X219279257Y-30168242D01*
X219317352Y-30244433D01*
X218974495Y-30739671D02*
X219012590Y-30663480D01*
X219088780Y-30625385D01*
X219774495Y-30625385D01*
X219507828Y-30930147D02*
X219507828Y-31234909D01*
X219774495Y-31044433D02*
X219088780Y-31044433D01*
X219012590Y-31082528D01*
X218974495Y-31158719D01*
X218974495Y-31234909D01*
X221514495Y-29402528D02*
X221895447Y-29135861D01*
X221514495Y-28945385D02*
X222314495Y-28945385D01*
X222314495Y-29250147D01*
X222276400Y-29326338D01*
X222238304Y-29364433D01*
X222162114Y-29402528D01*
X222047828Y-29402528D01*
X221971638Y-29364433D01*
X221933542Y-29326338D01*
X221895447Y-29250147D01*
X221895447Y-28945385D01*
X221552590Y-30050147D02*
X221514495Y-29973957D01*
X221514495Y-29821576D01*
X221552590Y-29745385D01*
X221628780Y-29707290D01*
X221933542Y-29707290D01*
X222009733Y-29745385D01*
X222047828Y-29821576D01*
X222047828Y-29973957D01*
X222009733Y-30050147D01*
X221933542Y-30088242D01*
X221857352Y-30088242D01*
X221781161Y-29707290D01*
X221552590Y-30393004D02*
X221514495Y-30469195D01*
X221514495Y-30621576D01*
X221552590Y-30697766D01*
X221628780Y-30735861D01*
X221666876Y-30735861D01*
X221743066Y-30697766D01*
X221781161Y-30621576D01*
X221781161Y-30507290D01*
X221819257Y-30431100D01*
X221895447Y-30393004D01*
X221933542Y-30393004D01*
X222009733Y-30431100D01*
X222047828Y-30507290D01*
X222047828Y-30621576D01*
X222009733Y-30697766D01*
X221552590Y-31383480D02*
X221514495Y-31307290D01*
X221514495Y-31154909D01*
X221552590Y-31078719D01*
X221628780Y-31040623D01*
X221933542Y-31040623D01*
X222009733Y-31078719D01*
X222047828Y-31154909D01*
X222047828Y-31307290D01*
X222009733Y-31383480D01*
X221933542Y-31421576D01*
X221857352Y-31421576D01*
X221781161Y-31040623D01*
X222047828Y-31650147D02*
X222047828Y-31954909D01*
X222314495Y-31764433D02*
X221628780Y-31764433D01*
X221552590Y-31802528D01*
X221514495Y-31878719D01*
X221514495Y-31954909D01*
X248253280Y-37420504D02*
X248253280Y-36620504D01*
X248253280Y-37001457D02*
X248710423Y-37001457D01*
X248710423Y-37420504D02*
X248710423Y-36620504D01*
X249434233Y-37420504D02*
X249434233Y-37001457D01*
X249396138Y-36925266D01*
X249319947Y-36887171D01*
X249167566Y-36887171D01*
X249091376Y-36925266D01*
X249434233Y-37382409D02*
X249358042Y-37420504D01*
X249167566Y-37420504D01*
X249091376Y-37382409D01*
X249053280Y-37306219D01*
X249053280Y-37230028D01*
X249091376Y-37153838D01*
X249167566Y-37115742D01*
X249358042Y-37115742D01*
X249434233Y-37077647D01*
X249929471Y-37420504D02*
X249853280Y-37382409D01*
X249815185Y-37306219D01*
X249815185Y-36620504D01*
X250119947Y-36887171D02*
X250424709Y-36887171D01*
X250234233Y-36620504D02*
X250234233Y-37306219D01*
X250272328Y-37382409D01*
X250348519Y-37420504D01*
X250424709Y-37420504D01*
X248304328Y-29320504D02*
X248037661Y-28939552D01*
X247847185Y-29320504D02*
X247847185Y-28520504D01*
X248151947Y-28520504D01*
X248228138Y-28558600D01*
X248266233Y-28596695D01*
X248304328Y-28672885D01*
X248304328Y-28787171D01*
X248266233Y-28863361D01*
X248228138Y-28901457D01*
X248151947Y-28939552D01*
X247847185Y-28939552D01*
X248951947Y-29282409D02*
X248875757Y-29320504D01*
X248723376Y-29320504D01*
X248647185Y-29282409D01*
X248609090Y-29206219D01*
X248609090Y-28901457D01*
X248647185Y-28825266D01*
X248723376Y-28787171D01*
X248875757Y-28787171D01*
X248951947Y-28825266D01*
X248990042Y-28901457D01*
X248990042Y-28977647D01*
X248609090Y-29053838D01*
X249294804Y-29282409D02*
X249370995Y-29320504D01*
X249523376Y-29320504D01*
X249599566Y-29282409D01*
X249637661Y-29206219D01*
X249637661Y-29168123D01*
X249599566Y-29091933D01*
X249523376Y-29053838D01*
X249409090Y-29053838D01*
X249332900Y-29015742D01*
X249294804Y-28939552D01*
X249294804Y-28901457D01*
X249332900Y-28825266D01*
X249409090Y-28787171D01*
X249523376Y-28787171D01*
X249599566Y-28825266D01*
X250285280Y-29282409D02*
X250209090Y-29320504D01*
X250056709Y-29320504D01*
X249980519Y-29282409D01*
X249942423Y-29206219D01*
X249942423Y-28901457D01*
X249980519Y-28825266D01*
X250056709Y-28787171D01*
X250209090Y-28787171D01*
X250285280Y-28825266D01*
X250323376Y-28901457D01*
X250323376Y-28977647D01*
X249942423Y-29053838D01*
X250551947Y-28787171D02*
X250856709Y-28787171D01*
X250666233Y-28520504D02*
X250666233Y-29206219D01*
X250704328Y-29282409D01*
X250780519Y-29320504D01*
X250856709Y-29320504D01*
D11*
X165826400Y-21834600D02*
X165826400Y-23564600D01*
X167756400Y-21834600D02*
X165826400Y-21834600D01*
X198266400Y-21894600D02*
X198266400Y-24204600D01*
X181936400Y-21894600D02*
X198266400Y-21894600D01*
D10*
X189164495Y-24711266D02*
X189640685Y-24711266D01*
X189069257Y-24996980D02*
X189402590Y-23996980D01*
X189735923Y-24996980D01*
X190497828Y-24949361D02*
X190402590Y-24996980D01*
X190212114Y-24996980D01*
X190116876Y-24949361D01*
X190069257Y-24901742D01*
X190021638Y-24806504D01*
X190021638Y-24520790D01*
X190069257Y-24425552D01*
X190116876Y-24377933D01*
X190212114Y-24330314D01*
X190402590Y-24330314D01*
X190497828Y-24377933D01*
X190783542Y-24330314D02*
X191164495Y-24330314D01*
X190926400Y-23996980D02*
X190926400Y-24854123D01*
X190974019Y-24949361D01*
X191069257Y-24996980D01*
X191164495Y-24996980D01*
X191497828Y-24996980D02*
X191497828Y-24330314D01*
X191497828Y-23996980D02*
X191450209Y-24044600D01*
X191497828Y-24092219D01*
X191545447Y-24044600D01*
X191497828Y-23996980D01*
X191497828Y-24092219D01*
X191878780Y-24330314D02*
X192116876Y-24996980D01*
X192354971Y-24330314D01*
X193116876Y-24949361D02*
X193021638Y-24996980D01*
X192831161Y-24996980D01*
X192735923Y-24949361D01*
X192688304Y-24854123D01*
X192688304Y-24473171D01*
X192735923Y-24377933D01*
X192831161Y-24330314D01*
X193021638Y-24330314D01*
X193116876Y-24377933D01*
X193164495Y-24473171D01*
X193164495Y-24568409D01*
X192688304Y-24663647D01*
X194831161Y-24996980D02*
X194354971Y-24996980D01*
X194354971Y-23996980D01*
X195307352Y-24996980D02*
X195212114Y-24949361D01*
X195164495Y-24901742D01*
X195116876Y-24806504D01*
X195116876Y-24520790D01*
X195164495Y-24425552D01*
X195212114Y-24377933D01*
X195307352Y-24330314D01*
X195450209Y-24330314D01*
X195545447Y-24377933D01*
X195593066Y-24425552D01*
X195640685Y-24520790D01*
X195640685Y-24806504D01*
X195593066Y-24901742D01*
X195545447Y-24949361D01*
X195450209Y-24996980D01*
X195307352Y-24996980D01*
X195974019Y-24330314D02*
X196164495Y-24996980D01*
X196354971Y-24520790D01*
X196545447Y-24996980D01*
X196735923Y-24330314D01*
X178658780Y-24701266D02*
X179134971Y-24701266D01*
X178563542Y-24986980D02*
X178896876Y-23986980D01*
X179230209Y-24986980D01*
X179992114Y-24939361D02*
X179896876Y-24986980D01*
X179706400Y-24986980D01*
X179611161Y-24939361D01*
X179563542Y-24891742D01*
X179515923Y-24796504D01*
X179515923Y-24510790D01*
X179563542Y-24415552D01*
X179611161Y-24367933D01*
X179706400Y-24320314D01*
X179896876Y-24320314D01*
X179992114Y-24367933D01*
X180277828Y-24320314D02*
X180658780Y-24320314D01*
X180420685Y-23986980D02*
X180420685Y-24844123D01*
X180468304Y-24939361D01*
X180563542Y-24986980D01*
X180658780Y-24986980D01*
X180992114Y-24986980D02*
X180992114Y-24320314D01*
X180992114Y-23986980D02*
X180944495Y-24034600D01*
X180992114Y-24082219D01*
X181039733Y-24034600D01*
X180992114Y-23986980D01*
X180992114Y-24082219D01*
X181373066Y-24320314D02*
X181611161Y-24986980D01*
X181849257Y-24320314D01*
X182611161Y-24939361D02*
X182515923Y-24986980D01*
X182325447Y-24986980D01*
X182230209Y-24939361D01*
X182182590Y-24844123D01*
X182182590Y-24463171D01*
X182230209Y-24367933D01*
X182325447Y-24320314D01*
X182515923Y-24320314D01*
X182611161Y-24367933D01*
X182658780Y-24463171D01*
X182658780Y-24558409D01*
X182182590Y-24653647D01*
X183849257Y-24986980D02*
X183849257Y-23986980D01*
X183849257Y-24463171D02*
X184420685Y-24463171D01*
X184420685Y-24986980D02*
X184420685Y-23986980D01*
X184896876Y-24986980D02*
X184896876Y-24320314D01*
X184896876Y-23986980D02*
X184849257Y-24034600D01*
X184896876Y-24082219D01*
X184944495Y-24034600D01*
X184896876Y-23986980D01*
X184896876Y-24082219D01*
X185801638Y-24320314D02*
X185801638Y-25129838D01*
X185754019Y-25225076D01*
X185706400Y-25272695D01*
X185611161Y-25320314D01*
X185468304Y-25320314D01*
X185373066Y-25272695D01*
X185801638Y-24939361D02*
X185706400Y-24986980D01*
X185515923Y-24986980D01*
X185420685Y-24939361D01*
X185373066Y-24891742D01*
X185325447Y-24796504D01*
X185325447Y-24510790D01*
X185373066Y-24415552D01*
X185420685Y-24367933D01*
X185515923Y-24320314D01*
X185706400Y-24320314D01*
X185801638Y-24367933D01*
X186277828Y-24986980D02*
X186277828Y-23986980D01*
X186706400Y-24986980D02*
X186706400Y-24463171D01*
X186658780Y-24367933D01*
X186563542Y-24320314D01*
X186420685Y-24320314D01*
X186325447Y-24367933D01*
X186277828Y-24415552D01*
X157434900Y-28994028D02*
X158196804Y-28994028D01*
X164764900Y-28904028D02*
X165526804Y-28904028D01*
X165145852Y-29284980D02*
X165145852Y-28523076D01*
X219577828Y-155509242D02*
X219577828Y-154747338D01*
X219958780Y-155128290D02*
X219196876Y-155128290D01*
X218958780Y-154414004D02*
X219958780Y-154080671D01*
X218958780Y-153747338D01*
X219863542Y-152842576D02*
X219911161Y-152890195D01*
X219958780Y-153033052D01*
X219958780Y-153128290D01*
X219911161Y-153271147D01*
X219815923Y-153366385D01*
X219720685Y-153414004D01*
X219530209Y-153461623D01*
X219387352Y-153461623D01*
X219196876Y-153414004D01*
X219101638Y-153366385D01*
X219006400Y-153271147D01*
X218958780Y-153128290D01*
X218958780Y-153033052D01*
X219006400Y-152890195D01*
X219054019Y-152842576D01*
X219863542Y-151842576D02*
X219911161Y-151890195D01*
X219958780Y-152033052D01*
X219958780Y-152128290D01*
X219911161Y-152271147D01*
X219815923Y-152366385D01*
X219720685Y-152414004D01*
X219530209Y-152461623D01*
X219387352Y-152461623D01*
X219196876Y-152414004D01*
X219101638Y-152366385D01*
X219006400Y-152271147D01*
X218958780Y-152128290D01*
X218958780Y-152033052D01*
X219006400Y-151890195D01*
X219054019Y-151842576D01*
X232377828Y-155899719D02*
X232377828Y-155137814D01*
X231806400Y-154137814D02*
X231758780Y-154233052D01*
X231758780Y-154375909D01*
X231806400Y-154518766D01*
X231901638Y-154614004D01*
X231996876Y-154661623D01*
X232187352Y-154709242D01*
X232330209Y-154709242D01*
X232520685Y-154661623D01*
X232615923Y-154614004D01*
X232711161Y-154518766D01*
X232758780Y-154375909D01*
X232758780Y-154280671D01*
X232711161Y-154137814D01*
X232663542Y-154090195D01*
X232330209Y-154090195D01*
X232330209Y-154280671D01*
X232758780Y-153661623D02*
X231758780Y-153661623D01*
X232758780Y-153090195D01*
X231758780Y-153090195D01*
X232758780Y-152614004D02*
X231758780Y-152614004D01*
X231758780Y-152375909D01*
X231806400Y-152233052D01*
X231901638Y-152137814D01*
X231996876Y-152090195D01*
X232187352Y-152042576D01*
X232330209Y-152042576D01*
X232520685Y-152090195D01*
X232615923Y-152137814D01*
X232711161Y-152233052D01*
X232758780Y-152375909D01*
X232758780Y-152614004D01*
X237477828Y-157399242D02*
X237477828Y-156637338D01*
X237858780Y-157018290D02*
X237096876Y-157018290D01*
X236858780Y-156304004D02*
X237858780Y-155970671D01*
X236858780Y-155637338D01*
X237763542Y-154732576D02*
X237811161Y-154780195D01*
X237858780Y-154923052D01*
X237858780Y-155018290D01*
X237811161Y-155161147D01*
X237715923Y-155256385D01*
X237620685Y-155304004D01*
X237430209Y-155351623D01*
X237287352Y-155351623D01*
X237096876Y-155304004D01*
X237001638Y-155256385D01*
X236906400Y-155161147D01*
X236858780Y-155018290D01*
X236858780Y-154923052D01*
X236906400Y-154780195D01*
X236954019Y-154732576D01*
X237763542Y-153732576D02*
X237811161Y-153780195D01*
X237858780Y-153923052D01*
X237858780Y-154018290D01*
X237811161Y-154161147D01*
X237715923Y-154256385D01*
X237620685Y-154304004D01*
X237430209Y-154351623D01*
X237287352Y-154351623D01*
X237096876Y-154304004D01*
X237001638Y-154256385D01*
X236906400Y-154161147D01*
X236858780Y-154018290D01*
X236858780Y-153923052D01*
X236906400Y-153780195D01*
X236954019Y-153732576D01*
X245587828Y-157569719D02*
X245587828Y-156807814D01*
X245016400Y-155807814D02*
X244968780Y-155903052D01*
X244968780Y-156045909D01*
X245016400Y-156188766D01*
X245111638Y-156284004D01*
X245206876Y-156331623D01*
X245397352Y-156379242D01*
X245540209Y-156379242D01*
X245730685Y-156331623D01*
X245825923Y-156284004D01*
X245921161Y-156188766D01*
X245968780Y-156045909D01*
X245968780Y-155950671D01*
X245921161Y-155807814D01*
X245873542Y-155760195D01*
X245540209Y-155760195D01*
X245540209Y-155950671D01*
X245968780Y-155331623D02*
X244968780Y-155331623D01*
X245968780Y-154760195D01*
X244968780Y-154760195D01*
X245968780Y-154284004D02*
X244968780Y-154284004D01*
X244968780Y-154045909D01*
X245016400Y-153903052D01*
X245111638Y-153807814D01*
X245206876Y-153760195D01*
X245397352Y-153712576D01*
X245540209Y-153712576D01*
X245730685Y-153760195D01*
X245825923Y-153807814D01*
X245921161Y-153903052D01*
X245968780Y-154045909D01*
X245968780Y-154284004D01*
X251802614Y-51120314D02*
X251802614Y-52120314D01*
X252278804Y-51644123D02*
X252326423Y-51739361D01*
X252421661Y-51786980D01*
X251802614Y-51644123D02*
X251850233Y-51739361D01*
X251945471Y-51786980D01*
X252135947Y-51786980D01*
X252231185Y-51739361D01*
X252278804Y-51644123D01*
X252278804Y-51120314D01*
X252754995Y-50786980D02*
X253374042Y-50786980D01*
X253040709Y-51167933D01*
X253183566Y-51167933D01*
X253278804Y-51215552D01*
X253326423Y-51263171D01*
X253374042Y-51358409D01*
X253374042Y-51596504D01*
X253326423Y-51691742D01*
X253278804Y-51739361D01*
X253183566Y-51786980D01*
X252897852Y-51786980D01*
X252802614Y-51739361D01*
X252754995Y-51691742D01*
X253993090Y-50786980D02*
X254088328Y-50786980D01*
X254183566Y-50834600D01*
X254231185Y-50882219D01*
X254278804Y-50977457D01*
X254326423Y-51167933D01*
X254326423Y-51406028D01*
X254278804Y-51596504D01*
X254231185Y-51691742D01*
X254183566Y-51739361D01*
X254088328Y-51786980D01*
X253993090Y-51786980D01*
X253897852Y-51739361D01*
X253850233Y-51691742D01*
X253802614Y-51596504D01*
X253754995Y-51406028D01*
X253754995Y-51167933D01*
X253802614Y-50977457D01*
X253850233Y-50882219D01*
X253897852Y-50834600D01*
X253993090Y-50786980D01*
X251812614Y-53600314D02*
X251812614Y-54600314D01*
X252288804Y-54124123D02*
X252336423Y-54219361D01*
X252431661Y-54266980D01*
X251812614Y-54124123D02*
X251860233Y-54219361D01*
X251955471Y-54266980D01*
X252145947Y-54266980D01*
X252241185Y-54219361D01*
X252288804Y-54124123D01*
X252288804Y-53600314D01*
X252812614Y-53362219D02*
X252860233Y-53314600D01*
X252955471Y-53266980D01*
X253193566Y-53266980D01*
X253288804Y-53314600D01*
X253336423Y-53362219D01*
X253384042Y-53457457D01*
X253384042Y-53552695D01*
X253336423Y-53695552D01*
X252764995Y-54266980D01*
X253384042Y-54266980D01*
X253860233Y-54266980D02*
X254050709Y-54266980D01*
X254145947Y-54219361D01*
X254193566Y-54171742D01*
X254288804Y-54028885D01*
X254336423Y-53838409D01*
X254336423Y-53457457D01*
X254288804Y-53362219D01*
X254241185Y-53314600D01*
X254145947Y-53266980D01*
X253955471Y-53266980D01*
X253860233Y-53314600D01*
X253812614Y-53362219D01*
X253764995Y-53457457D01*
X253764995Y-53695552D01*
X253812614Y-53790790D01*
X253860233Y-53838409D01*
X253955471Y-53886028D01*
X254145947Y-53886028D01*
X254241185Y-53838409D01*
X254288804Y-53790790D01*
X254336423Y-53695552D01*
X251862614Y-56100314D02*
X251862614Y-57100314D01*
X252338804Y-56624123D02*
X252386423Y-56719361D01*
X252481661Y-56766980D01*
X251862614Y-56624123D02*
X251910233Y-56719361D01*
X252005471Y-56766980D01*
X252195947Y-56766980D01*
X252291185Y-56719361D01*
X252338804Y-56624123D01*
X252338804Y-56100314D01*
X252862614Y-55862219D02*
X252910233Y-55814600D01*
X253005471Y-55766980D01*
X253243566Y-55766980D01*
X253338804Y-55814600D01*
X253386423Y-55862219D01*
X253434042Y-55957457D01*
X253434042Y-56052695D01*
X253386423Y-56195552D01*
X252814995Y-56766980D01*
X253434042Y-56766980D01*
X254005471Y-56195552D02*
X253910233Y-56147933D01*
X253862614Y-56100314D01*
X253814995Y-56005076D01*
X253814995Y-55957457D01*
X253862614Y-55862219D01*
X253910233Y-55814600D01*
X254005471Y-55766980D01*
X254195947Y-55766980D01*
X254291185Y-55814600D01*
X254338804Y-55862219D01*
X254386423Y-55957457D01*
X254386423Y-56005076D01*
X254338804Y-56100314D01*
X254291185Y-56147933D01*
X254195947Y-56195552D01*
X254005471Y-56195552D01*
X253910233Y-56243171D01*
X253862614Y-56290790D01*
X253814995Y-56386028D01*
X253814995Y-56576504D01*
X253862614Y-56671742D01*
X253910233Y-56719361D01*
X254005471Y-56766980D01*
X254195947Y-56766980D01*
X254291185Y-56719361D01*
X254338804Y-56671742D01*
X254386423Y-56576504D01*
X254386423Y-56386028D01*
X254338804Y-56290790D01*
X254291185Y-56243171D01*
X254195947Y-56195552D01*
X251872614Y-58660314D02*
X251872614Y-59660314D01*
X252348804Y-59184123D02*
X252396423Y-59279361D01*
X252491661Y-59326980D01*
X251872614Y-59184123D02*
X251920233Y-59279361D01*
X252015471Y-59326980D01*
X252205947Y-59326980D01*
X252301185Y-59279361D01*
X252348804Y-59184123D01*
X252348804Y-58660314D01*
X252872614Y-58422219D02*
X252920233Y-58374600D01*
X253015471Y-58326980D01*
X253253566Y-58326980D01*
X253348804Y-58374600D01*
X253396423Y-58422219D01*
X253444042Y-58517457D01*
X253444042Y-58612695D01*
X253396423Y-58755552D01*
X252824995Y-59326980D01*
X253444042Y-59326980D01*
X253777376Y-58326980D02*
X254444042Y-58326980D01*
X254015471Y-59326980D01*
X251882614Y-61200314D02*
X251882614Y-62200314D01*
X252358804Y-61724123D02*
X252406423Y-61819361D01*
X252501661Y-61866980D01*
X251882614Y-61724123D02*
X251930233Y-61819361D01*
X252025471Y-61866980D01*
X252215947Y-61866980D01*
X252311185Y-61819361D01*
X252358804Y-61724123D01*
X252358804Y-61200314D01*
X252882614Y-60962219D02*
X252930233Y-60914600D01*
X253025471Y-60866980D01*
X253263566Y-60866980D01*
X253358804Y-60914600D01*
X253406423Y-60962219D01*
X253454042Y-61057457D01*
X253454042Y-61152695D01*
X253406423Y-61295552D01*
X252834995Y-61866980D01*
X253454042Y-61866980D01*
X254311185Y-60866980D02*
X254120709Y-60866980D01*
X254025471Y-60914600D01*
X253977852Y-60962219D01*
X253882614Y-61105076D01*
X253834995Y-61295552D01*
X253834995Y-61676504D01*
X253882614Y-61771742D01*
X253930233Y-61819361D01*
X254025471Y-61866980D01*
X254215947Y-61866980D01*
X254311185Y-61819361D01*
X254358804Y-61771742D01*
X254406423Y-61676504D01*
X254406423Y-61438409D01*
X254358804Y-61343171D01*
X254311185Y-61295552D01*
X254215947Y-61247933D01*
X254025471Y-61247933D01*
X253930233Y-61295552D01*
X253882614Y-61343171D01*
X253834995Y-61438409D01*
X251892614Y-63720314D02*
X251892614Y-64720314D01*
X252368804Y-64244123D02*
X252416423Y-64339361D01*
X252511661Y-64386980D01*
X251892614Y-64244123D02*
X251940233Y-64339361D01*
X252035471Y-64386980D01*
X252225947Y-64386980D01*
X252321185Y-64339361D01*
X252368804Y-64244123D01*
X252368804Y-63720314D01*
X252892614Y-63482219D02*
X252940233Y-63434600D01*
X253035471Y-63386980D01*
X253273566Y-63386980D01*
X253368804Y-63434600D01*
X253416423Y-63482219D01*
X253464042Y-63577457D01*
X253464042Y-63672695D01*
X253416423Y-63815552D01*
X252844995Y-64386980D01*
X253464042Y-64386980D01*
X254368804Y-63386980D02*
X253892614Y-63386980D01*
X253844995Y-63863171D01*
X253892614Y-63815552D01*
X253987852Y-63767933D01*
X254225947Y-63767933D01*
X254321185Y-63815552D01*
X254368804Y-63863171D01*
X254416423Y-63958409D01*
X254416423Y-64196504D01*
X254368804Y-64291742D01*
X254321185Y-64339361D01*
X254225947Y-64386980D01*
X253987852Y-64386980D01*
X253892614Y-64339361D01*
X253844995Y-64291742D01*
X251982614Y-66270314D02*
X251982614Y-67270314D01*
X252458804Y-66794123D02*
X252506423Y-66889361D01*
X252601661Y-66936980D01*
X251982614Y-66794123D02*
X252030233Y-66889361D01*
X252125471Y-66936980D01*
X252315947Y-66936980D01*
X252411185Y-66889361D01*
X252458804Y-66794123D01*
X252458804Y-66270314D01*
X252982614Y-66032219D02*
X253030233Y-65984600D01*
X253125471Y-65936980D01*
X253363566Y-65936980D01*
X253458804Y-65984600D01*
X253506423Y-66032219D01*
X253554042Y-66127457D01*
X253554042Y-66222695D01*
X253506423Y-66365552D01*
X252934995Y-66936980D01*
X253554042Y-66936980D01*
X254411185Y-66270314D02*
X254411185Y-66936980D01*
X254173090Y-65889361D02*
X253934995Y-66603647D01*
X254554042Y-66603647D01*
X251992614Y-68810314D02*
X251992614Y-69810314D01*
X252468804Y-69334123D02*
X252516423Y-69429361D01*
X252611661Y-69476980D01*
X251992614Y-69334123D02*
X252040233Y-69429361D01*
X252135471Y-69476980D01*
X252325947Y-69476980D01*
X252421185Y-69429361D01*
X252468804Y-69334123D01*
X252468804Y-68810314D01*
X252992614Y-68572219D02*
X253040233Y-68524600D01*
X253135471Y-68476980D01*
X253373566Y-68476980D01*
X253468804Y-68524600D01*
X253516423Y-68572219D01*
X253564042Y-68667457D01*
X253564042Y-68762695D01*
X253516423Y-68905552D01*
X252944995Y-69476980D01*
X253564042Y-69476980D01*
X253897376Y-68476980D02*
X254516423Y-68476980D01*
X254183090Y-68857933D01*
X254325947Y-68857933D01*
X254421185Y-68905552D01*
X254468804Y-68953171D01*
X254516423Y-69048409D01*
X254516423Y-69286504D01*
X254468804Y-69381742D01*
X254421185Y-69429361D01*
X254325947Y-69476980D01*
X254040233Y-69476980D01*
X253944995Y-69429361D01*
X253897376Y-69381742D01*
X251982614Y-71300314D02*
X251982614Y-72300314D01*
X252458804Y-71824123D02*
X252506423Y-71919361D01*
X252601661Y-71966980D01*
X251982614Y-71824123D02*
X252030233Y-71919361D01*
X252125471Y-71966980D01*
X252315947Y-71966980D01*
X252411185Y-71919361D01*
X252458804Y-71824123D01*
X252458804Y-71300314D01*
X252982614Y-71062219D02*
X253030233Y-71014600D01*
X253125471Y-70966980D01*
X253363566Y-70966980D01*
X253458804Y-71014600D01*
X253506423Y-71062219D01*
X253554042Y-71157457D01*
X253554042Y-71252695D01*
X253506423Y-71395552D01*
X252934995Y-71966980D01*
X253554042Y-71966980D01*
X253934995Y-71062219D02*
X253982614Y-71014600D01*
X254077852Y-70966980D01*
X254315947Y-70966980D01*
X254411185Y-71014600D01*
X254458804Y-71062219D01*
X254506423Y-71157457D01*
X254506423Y-71252695D01*
X254458804Y-71395552D01*
X253887376Y-71966980D01*
X254506423Y-71966980D01*
X251972614Y-73830314D02*
X251972614Y-74830314D01*
X252448804Y-74354123D02*
X252496423Y-74449361D01*
X252591661Y-74496980D01*
X251972614Y-74354123D02*
X252020233Y-74449361D01*
X252115471Y-74496980D01*
X252305947Y-74496980D01*
X252401185Y-74449361D01*
X252448804Y-74354123D01*
X252448804Y-73830314D01*
X252972614Y-73592219D02*
X253020233Y-73544600D01*
X253115471Y-73496980D01*
X253353566Y-73496980D01*
X253448804Y-73544600D01*
X253496423Y-73592219D01*
X253544042Y-73687457D01*
X253544042Y-73782695D01*
X253496423Y-73925552D01*
X252924995Y-74496980D01*
X253544042Y-74496980D01*
X254496423Y-74496980D02*
X253924995Y-74496980D01*
X254210709Y-74496980D02*
X254210709Y-73496980D01*
X254115471Y-73639838D01*
X254020233Y-73735076D01*
X253924995Y-73782695D01*
X252020304Y-91590314D02*
X252020304Y-92590314D01*
X252496495Y-92114123D02*
X252544114Y-92209361D01*
X252639352Y-92256980D01*
X252020304Y-92114123D02*
X252067923Y-92209361D01*
X252163161Y-92256980D01*
X252353638Y-92256980D01*
X252448876Y-92209361D01*
X252496495Y-92114123D01*
X252496495Y-91590314D01*
X253591733Y-92256980D02*
X253020304Y-92256980D01*
X253306019Y-92256980D02*
X253306019Y-91256980D01*
X253210780Y-91399838D01*
X253115542Y-91495076D01*
X253020304Y-91542695D01*
X254448876Y-91590314D02*
X254448876Y-92256980D01*
X254210780Y-91209361D02*
X253972685Y-91923647D01*
X254591733Y-91923647D01*
X252020304Y-96670314D02*
X252020304Y-97670314D01*
X252496495Y-97194123D02*
X252544114Y-97289361D01*
X252639352Y-97336980D01*
X252020304Y-97194123D02*
X252067923Y-97289361D01*
X252163161Y-97336980D01*
X252353638Y-97336980D01*
X252448876Y-97289361D01*
X252496495Y-97194123D01*
X252496495Y-96670314D01*
X253591733Y-97336980D02*
X253020304Y-97336980D01*
X253306019Y-97336980D02*
X253306019Y-96336980D01*
X253210780Y-96479838D01*
X253115542Y-96575076D01*
X253020304Y-96622695D01*
X253972685Y-96432219D02*
X254020304Y-96384600D01*
X254115542Y-96336980D01*
X254353638Y-96336980D01*
X254448876Y-96384600D01*
X254496495Y-96432219D01*
X254544114Y-96527457D01*
X254544114Y-96622695D01*
X254496495Y-96765552D01*
X253925066Y-97336980D01*
X254544114Y-97336980D01*
X252020304Y-89050314D02*
X252020304Y-90050314D01*
X252496495Y-89574123D02*
X252544114Y-89669361D01*
X252639352Y-89716980D01*
X252020304Y-89574123D02*
X252067923Y-89669361D01*
X252163161Y-89716980D01*
X252353638Y-89716980D01*
X252448876Y-89669361D01*
X252496495Y-89574123D01*
X252496495Y-89050314D01*
X253591733Y-89716980D02*
X253020304Y-89716980D01*
X253306019Y-89716980D02*
X253306019Y-88716980D01*
X253210780Y-88859838D01*
X253115542Y-88955076D01*
X253020304Y-89002695D01*
X254496495Y-88716980D02*
X254020304Y-88716980D01*
X253972685Y-89193171D01*
X254020304Y-89145552D01*
X254115542Y-89097933D01*
X254353638Y-89097933D01*
X254448876Y-89145552D01*
X254496495Y-89193171D01*
X254544114Y-89288409D01*
X254544114Y-89526504D01*
X254496495Y-89621742D01*
X254448876Y-89669361D01*
X254353638Y-89716980D01*
X254115542Y-89716980D01*
X254020304Y-89669361D01*
X253972685Y-89621742D01*
X252018304Y-78940314D02*
X252018304Y-79940314D01*
X252494495Y-79464123D02*
X252542114Y-79559361D01*
X252637352Y-79606980D01*
X252018304Y-79464123D02*
X252065923Y-79559361D01*
X252161161Y-79606980D01*
X252351638Y-79606980D01*
X252446876Y-79559361D01*
X252494495Y-79464123D01*
X252494495Y-78940314D01*
X253589733Y-79606980D02*
X253018304Y-79606980D01*
X253304019Y-79606980D02*
X253304019Y-78606980D01*
X253208780Y-78749838D01*
X253113542Y-78845076D01*
X253018304Y-78892695D01*
X254065923Y-79606980D02*
X254256400Y-79606980D01*
X254351638Y-79559361D01*
X254399257Y-79511742D01*
X254494495Y-79368885D01*
X254542114Y-79178409D01*
X254542114Y-78797457D01*
X254494495Y-78702219D01*
X254446876Y-78654600D01*
X254351638Y-78606980D01*
X254161161Y-78606980D01*
X254065923Y-78654600D01*
X254018304Y-78702219D01*
X253970685Y-78797457D01*
X253970685Y-79035552D01*
X254018304Y-79130790D01*
X254065923Y-79178409D01*
X254161161Y-79226028D01*
X254351638Y-79226028D01*
X254446876Y-79178409D01*
X254494495Y-79130790D01*
X254542114Y-79035552D01*
X252020304Y-94130314D02*
X252020304Y-95130314D01*
X252496495Y-94654123D02*
X252544114Y-94749361D01*
X252639352Y-94796980D01*
X252020304Y-94654123D02*
X252067923Y-94749361D01*
X252163161Y-94796980D01*
X252353638Y-94796980D01*
X252448876Y-94749361D01*
X252496495Y-94654123D01*
X252496495Y-94130314D01*
X253591733Y-94796980D02*
X253020304Y-94796980D01*
X253306019Y-94796980D02*
X253306019Y-93796980D01*
X253210780Y-93939838D01*
X253115542Y-94035076D01*
X253020304Y-94082695D01*
X253925066Y-93796980D02*
X254544114Y-93796980D01*
X254210780Y-94177933D01*
X254353638Y-94177933D01*
X254448876Y-94225552D01*
X254496495Y-94273171D01*
X254544114Y-94368409D01*
X254544114Y-94606504D01*
X254496495Y-94701742D01*
X254448876Y-94749361D01*
X254353638Y-94796980D01*
X254067923Y-94796980D01*
X253972685Y-94749361D01*
X253925066Y-94701742D01*
X252020304Y-86510314D02*
X252020304Y-87510314D01*
X252496495Y-87034123D02*
X252544114Y-87129361D01*
X252639352Y-87176980D01*
X252020304Y-87034123D02*
X252067923Y-87129361D01*
X252163161Y-87176980D01*
X252353638Y-87176980D01*
X252448876Y-87129361D01*
X252496495Y-87034123D01*
X252496495Y-86510314D01*
X253591733Y-87176980D02*
X253020304Y-87176980D01*
X253306019Y-87176980D02*
X253306019Y-86176980D01*
X253210780Y-86319838D01*
X253115542Y-86415076D01*
X253020304Y-86462695D01*
X254448876Y-86176980D02*
X254258400Y-86176980D01*
X254163161Y-86224600D01*
X254115542Y-86272219D01*
X254020304Y-86415076D01*
X253972685Y-86605552D01*
X253972685Y-86986504D01*
X254020304Y-87081742D01*
X254067923Y-87129361D01*
X254163161Y-87176980D01*
X254353638Y-87176980D01*
X254448876Y-87129361D01*
X254496495Y-87081742D01*
X254544114Y-86986504D01*
X254544114Y-86748409D01*
X254496495Y-86653171D01*
X254448876Y-86605552D01*
X254353638Y-86557933D01*
X254163161Y-86557933D01*
X254067923Y-86605552D01*
X254020304Y-86653171D01*
X253972685Y-86748409D01*
X252020304Y-76600314D02*
X252020304Y-77600314D01*
X252496495Y-77124123D02*
X252544114Y-77219361D01*
X252639352Y-77266980D01*
X252020304Y-77124123D02*
X252067923Y-77219361D01*
X252163161Y-77266980D01*
X252353638Y-77266980D01*
X252448876Y-77219361D01*
X252496495Y-77124123D01*
X252496495Y-76600314D01*
X253020304Y-76362219D02*
X253067923Y-76314600D01*
X253163161Y-76266980D01*
X253401257Y-76266980D01*
X253496495Y-76314600D01*
X253544114Y-76362219D01*
X253591733Y-76457457D01*
X253591733Y-76552695D01*
X253544114Y-76695552D01*
X252972685Y-77266980D01*
X253591733Y-77266980D01*
X254210780Y-76266980D02*
X254306019Y-76266980D01*
X254401257Y-76314600D01*
X254448876Y-76362219D01*
X254496495Y-76457457D01*
X254544114Y-76647933D01*
X254544114Y-76886028D01*
X254496495Y-77076504D01*
X254448876Y-77171742D01*
X254401257Y-77219361D01*
X254306019Y-77266980D01*
X254210780Y-77266980D01*
X254115542Y-77219361D01*
X254067923Y-77171742D01*
X254020304Y-77076504D01*
X253972685Y-76886028D01*
X253972685Y-76647933D01*
X254020304Y-76457457D01*
X254067923Y-76362219D01*
X254115542Y-76314600D01*
X254210780Y-76266980D01*
X252020304Y-83970314D02*
X252020304Y-84970314D01*
X252496495Y-84494123D02*
X252544114Y-84589361D01*
X252639352Y-84636980D01*
X252020304Y-84494123D02*
X252067923Y-84589361D01*
X252163161Y-84636980D01*
X252353638Y-84636980D01*
X252448876Y-84589361D01*
X252496495Y-84494123D01*
X252496495Y-83970314D01*
X253591733Y-84636980D02*
X253020304Y-84636980D01*
X253306019Y-84636980D02*
X253306019Y-83636980D01*
X253210780Y-83779838D01*
X253115542Y-83875076D01*
X253020304Y-83922695D01*
X253925066Y-83636980D02*
X254591733Y-83636980D01*
X254163161Y-84636980D01*
X252020304Y-81430314D02*
X252020304Y-82430314D01*
X252496495Y-81954123D02*
X252544114Y-82049361D01*
X252639352Y-82096980D01*
X252020304Y-81954123D02*
X252067923Y-82049361D01*
X252163161Y-82096980D01*
X252353638Y-82096980D01*
X252448876Y-82049361D01*
X252496495Y-81954123D01*
X252496495Y-81430314D01*
X253591733Y-82096980D02*
X253020304Y-82096980D01*
X253306019Y-82096980D02*
X253306019Y-81096980D01*
X253210780Y-81239838D01*
X253115542Y-81335076D01*
X253020304Y-81382695D01*
X254163161Y-81525552D02*
X254067923Y-81477933D01*
X254020304Y-81430314D01*
X253972685Y-81335076D01*
X253972685Y-81287457D01*
X254020304Y-81192219D01*
X254067923Y-81144600D01*
X254163161Y-81096980D01*
X254353638Y-81096980D01*
X254448876Y-81144600D01*
X254496495Y-81192219D01*
X254544114Y-81287457D01*
X254544114Y-81335076D01*
X254496495Y-81430314D01*
X254448876Y-81477933D01*
X254353638Y-81525552D01*
X254163161Y-81525552D01*
X254067923Y-81573171D01*
X254020304Y-81620790D01*
X253972685Y-81716028D01*
X253972685Y-81906504D01*
X254020304Y-82001742D01*
X254067923Y-82049361D01*
X254163161Y-82096980D01*
X254353638Y-82096980D01*
X254448876Y-82049361D01*
X254496495Y-82001742D01*
X254544114Y-81906504D01*
X254544114Y-81716028D01*
X254496495Y-81620790D01*
X254448876Y-81573171D01*
X254353638Y-81525552D01*
X252020304Y-99210314D02*
X252020304Y-100210314D01*
X252496495Y-99734123D02*
X252544114Y-99829361D01*
X252639352Y-99876980D01*
X252020304Y-99734123D02*
X252067923Y-99829361D01*
X252163161Y-99876980D01*
X252353638Y-99876980D01*
X252448876Y-99829361D01*
X252496495Y-99734123D01*
X252496495Y-99210314D01*
X253591733Y-99876980D02*
X253020304Y-99876980D01*
X253306019Y-99876980D02*
X253306019Y-98876980D01*
X253210780Y-99019838D01*
X253115542Y-99115076D01*
X253020304Y-99162695D01*
X254544114Y-99876980D02*
X253972685Y-99876980D01*
X254258400Y-99876980D02*
X254258400Y-98876980D01*
X254163161Y-99019838D01*
X254067923Y-99115076D01*
X253972685Y-99162695D01*
X252064304Y-101774314D02*
X252064304Y-102774314D01*
X252540495Y-102298123D02*
X252588114Y-102393361D01*
X252683352Y-102440980D01*
X252064304Y-102298123D02*
X252111923Y-102393361D01*
X252207161Y-102440980D01*
X252397638Y-102440980D01*
X252492876Y-102393361D01*
X252540495Y-102298123D01*
X252540495Y-101774314D01*
X253635733Y-102440980D02*
X253064304Y-102440980D01*
X253350019Y-102440980D02*
X253350019Y-101440980D01*
X253254780Y-101583838D01*
X253159542Y-101679076D01*
X253064304Y-101726695D01*
X254254780Y-101440980D02*
X254350019Y-101440980D01*
X254445257Y-101488600D01*
X254492876Y-101536219D01*
X254540495Y-101631457D01*
X254588114Y-101821933D01*
X254588114Y-102060028D01*
X254540495Y-102250504D01*
X254492876Y-102345742D01*
X254445257Y-102393361D01*
X254350019Y-102440980D01*
X254254780Y-102440980D01*
X254159542Y-102393361D01*
X254111923Y-102345742D01*
X254064304Y-102250504D01*
X254016685Y-102060028D01*
X254016685Y-101821933D01*
X254064304Y-101631457D01*
X254111923Y-101536219D01*
X254159542Y-101488600D01*
X254254780Y-101440980D01*
X252050495Y-104324314D02*
X252050495Y-105324314D01*
X252526685Y-104848123D02*
X252574304Y-104943361D01*
X252669542Y-104990980D01*
X252050495Y-104848123D02*
X252098114Y-104943361D01*
X252193352Y-104990980D01*
X252383828Y-104990980D01*
X252479066Y-104943361D01*
X252526685Y-104848123D01*
X252526685Y-104324314D01*
X253145733Y-104990980D02*
X253336209Y-104990980D01*
X253431447Y-104943361D01*
X253479066Y-104895742D01*
X253574304Y-104752885D01*
X253621923Y-104562409D01*
X253621923Y-104181457D01*
X253574304Y-104086219D01*
X253526685Y-104038600D01*
X253431447Y-103990980D01*
X253240971Y-103990980D01*
X253145733Y-104038600D01*
X253098114Y-104086219D01*
X253050495Y-104181457D01*
X253050495Y-104419552D01*
X253098114Y-104514790D01*
X253145733Y-104562409D01*
X253240971Y-104610028D01*
X253431447Y-104610028D01*
X253526685Y-104562409D01*
X253574304Y-104514790D01*
X253621923Y-104419552D01*
X252050495Y-106864314D02*
X252050495Y-107864314D01*
X252526685Y-107388123D02*
X252574304Y-107483361D01*
X252669542Y-107530980D01*
X252050495Y-107388123D02*
X252098114Y-107483361D01*
X252193352Y-107530980D01*
X252383828Y-107530980D01*
X252479066Y-107483361D01*
X252526685Y-107388123D01*
X252526685Y-106864314D01*
X253240971Y-106959552D02*
X253145733Y-106911933D01*
X253098114Y-106864314D01*
X253050495Y-106769076D01*
X253050495Y-106721457D01*
X253098114Y-106626219D01*
X253145733Y-106578600D01*
X253240971Y-106530980D01*
X253431447Y-106530980D01*
X253526685Y-106578600D01*
X253574304Y-106626219D01*
X253621923Y-106721457D01*
X253621923Y-106769076D01*
X253574304Y-106864314D01*
X253526685Y-106911933D01*
X253431447Y-106959552D01*
X253240971Y-106959552D01*
X253145733Y-107007171D01*
X253098114Y-107054790D01*
X253050495Y-107150028D01*
X253050495Y-107340504D01*
X253098114Y-107435742D01*
X253145733Y-107483361D01*
X253240971Y-107530980D01*
X253431447Y-107530980D01*
X253526685Y-107483361D01*
X253574304Y-107435742D01*
X253621923Y-107340504D01*
X253621923Y-107150028D01*
X253574304Y-107054790D01*
X253526685Y-107007171D01*
X253431447Y-106959552D01*
X252050495Y-109404314D02*
X252050495Y-110404314D01*
X252526685Y-109928123D02*
X252574304Y-110023361D01*
X252669542Y-110070980D01*
X252050495Y-109928123D02*
X252098114Y-110023361D01*
X252193352Y-110070980D01*
X252383828Y-110070980D01*
X252479066Y-110023361D01*
X252526685Y-109928123D01*
X252526685Y-109404314D01*
X253002876Y-109070980D02*
X253669542Y-109070980D01*
X253240971Y-110070980D01*
X252050495Y-111944314D02*
X252050495Y-112944314D01*
X252526685Y-112468123D02*
X252574304Y-112563361D01*
X252669542Y-112610980D01*
X252050495Y-112468123D02*
X252098114Y-112563361D01*
X252193352Y-112610980D01*
X252383828Y-112610980D01*
X252479066Y-112563361D01*
X252526685Y-112468123D01*
X252526685Y-111944314D01*
X253526685Y-111610980D02*
X253336209Y-111610980D01*
X253240971Y-111658600D01*
X253193352Y-111706219D01*
X253098114Y-111849076D01*
X253050495Y-112039552D01*
X253050495Y-112420504D01*
X253098114Y-112515742D01*
X253145733Y-112563361D01*
X253240971Y-112610980D01*
X253431447Y-112610980D01*
X253526685Y-112563361D01*
X253574304Y-112515742D01*
X253621923Y-112420504D01*
X253621923Y-112182409D01*
X253574304Y-112087171D01*
X253526685Y-112039552D01*
X253431447Y-111991933D01*
X253240971Y-111991933D01*
X253145733Y-112039552D01*
X253098114Y-112087171D01*
X253050495Y-112182409D01*
X252050495Y-114484314D02*
X252050495Y-115484314D01*
X252526685Y-115008123D02*
X252574304Y-115103361D01*
X252669542Y-115150980D01*
X252050495Y-115008123D02*
X252098114Y-115103361D01*
X252193352Y-115150980D01*
X252383828Y-115150980D01*
X252479066Y-115103361D01*
X252526685Y-115008123D01*
X252526685Y-114484314D01*
X253574304Y-114150980D02*
X253098114Y-114150980D01*
X253050495Y-114627171D01*
X253098114Y-114579552D01*
X253193352Y-114531933D01*
X253431447Y-114531933D01*
X253526685Y-114579552D01*
X253574304Y-114627171D01*
X253621923Y-114722409D01*
X253621923Y-114960504D01*
X253574304Y-115055742D01*
X253526685Y-115103361D01*
X253431447Y-115150980D01*
X253193352Y-115150980D01*
X253098114Y-115103361D01*
X253050495Y-115055742D01*
X252050495Y-117024314D02*
X252050495Y-118024314D01*
X252526685Y-117548123D02*
X252574304Y-117643361D01*
X252669542Y-117690980D01*
X252050495Y-117548123D02*
X252098114Y-117643361D01*
X252193352Y-117690980D01*
X252383828Y-117690980D01*
X252479066Y-117643361D01*
X252526685Y-117548123D01*
X252526685Y-117024314D01*
X253526685Y-117024314D02*
X253526685Y-117690980D01*
X253288590Y-116643361D02*
X253050495Y-117357647D01*
X253669542Y-117357647D01*
X252050495Y-119564314D02*
X252050495Y-120564314D01*
X252526685Y-120088123D02*
X252574304Y-120183361D01*
X252669542Y-120230980D01*
X252050495Y-120088123D02*
X252098114Y-120183361D01*
X252193352Y-120230980D01*
X252383828Y-120230980D01*
X252479066Y-120183361D01*
X252526685Y-120088123D01*
X252526685Y-119564314D01*
X253002876Y-119230980D02*
X253621923Y-119230980D01*
X253288590Y-119611933D01*
X253431447Y-119611933D01*
X253526685Y-119659552D01*
X253574304Y-119707171D01*
X253621923Y-119802409D01*
X253621923Y-120040504D01*
X253574304Y-120135742D01*
X253526685Y-120183361D01*
X253431447Y-120230980D01*
X253145733Y-120230980D01*
X253050495Y-120183361D01*
X253002876Y-120135742D01*
X252050495Y-122104314D02*
X252050495Y-123104314D01*
X252526685Y-122628123D02*
X252574304Y-122723361D01*
X252669542Y-122770980D01*
X252050495Y-122628123D02*
X252098114Y-122723361D01*
X252193352Y-122770980D01*
X252383828Y-122770980D01*
X252479066Y-122723361D01*
X252526685Y-122628123D01*
X252526685Y-122104314D01*
X253050495Y-121866219D02*
X253098114Y-121818600D01*
X253193352Y-121770980D01*
X253431447Y-121770980D01*
X253526685Y-121818600D01*
X253574304Y-121866219D01*
X253621923Y-121961457D01*
X253621923Y-122056695D01*
X253574304Y-122199552D01*
X253002876Y-122770980D01*
X253621923Y-122770980D01*
X252040495Y-124634314D02*
X252040495Y-125634314D01*
X252516685Y-125158123D02*
X252564304Y-125253361D01*
X252659542Y-125300980D01*
X252040495Y-125158123D02*
X252088114Y-125253361D01*
X252183352Y-125300980D01*
X252373828Y-125300980D01*
X252469066Y-125253361D01*
X252516685Y-125158123D01*
X252516685Y-124634314D01*
X253611923Y-125300980D02*
X253040495Y-125300980D01*
X253326209Y-125300980D02*
X253326209Y-124300980D01*
X253230971Y-124443838D01*
X253135733Y-124539076D01*
X253040495Y-124586695D01*
X168106400Y-22497933D02*
X168106400Y-21097933D01*
X168573066Y-22097933D01*
X169039733Y-21097933D01*
X169039733Y-22497933D01*
X170306400Y-22497933D02*
X170306400Y-21764600D01*
X170239733Y-21631266D01*
X170106400Y-21564600D01*
X169839733Y-21564600D01*
X169706400Y-21631266D01*
X170306400Y-22431266D02*
X170173066Y-22497933D01*
X169839733Y-22497933D01*
X169706400Y-22431266D01*
X169639733Y-22297933D01*
X169639733Y-22164600D01*
X169706400Y-22031266D01*
X169839733Y-21964600D01*
X170173066Y-21964600D01*
X170306400Y-21897933D01*
X170906400Y-22431266D02*
X171039733Y-22497933D01*
X171306400Y-22497933D01*
X171439733Y-22431266D01*
X171506400Y-22297933D01*
X171506400Y-22231266D01*
X171439733Y-22097933D01*
X171306400Y-22031266D01*
X171106400Y-22031266D01*
X170973066Y-21964600D01*
X170906400Y-21831266D01*
X170906400Y-21764600D01*
X170973066Y-21631266D01*
X171106400Y-21564600D01*
X171306400Y-21564600D01*
X171439733Y-21631266D01*
X171906400Y-21564600D02*
X172439733Y-21564600D01*
X172106400Y-21097933D02*
X172106400Y-22297933D01*
X172173066Y-22431266D01*
X172306400Y-22497933D01*
X172439733Y-22497933D01*
X173439733Y-22431266D02*
X173306400Y-22497933D01*
X173039733Y-22497933D01*
X172906400Y-22431266D01*
X172839733Y-22297933D01*
X172839733Y-21764600D01*
X172906400Y-21631266D01*
X173039733Y-21564600D01*
X173306400Y-21564600D01*
X173439733Y-21631266D01*
X173506400Y-21764600D01*
X173506400Y-21897933D01*
X172839733Y-22031266D01*
X174106400Y-22497933D02*
X174106400Y-21564600D01*
X174106400Y-21831266D02*
X174173066Y-21697933D01*
X174239733Y-21631266D01*
X174373066Y-21564600D01*
X174506400Y-21564600D01*
X176839733Y-22497933D02*
X176373066Y-21831266D01*
X176039733Y-22497933D02*
X176039733Y-21097933D01*
X176573066Y-21097933D01*
X176706400Y-21164600D01*
X176773066Y-21231266D01*
X176839733Y-21364600D01*
X176839733Y-21564600D01*
X176773066Y-21697933D01*
X176706400Y-21764600D01*
X176573066Y-21831266D01*
X176039733Y-21831266D01*
X177973066Y-22431266D02*
X177839733Y-22497933D01*
X177573066Y-22497933D01*
X177439733Y-22431266D01*
X177373066Y-22297933D01*
X177373066Y-21764600D01*
X177439733Y-21631266D01*
X177573066Y-21564600D01*
X177839733Y-21564600D01*
X177973066Y-21631266D01*
X178039733Y-21764600D01*
X178039733Y-21897933D01*
X177373066Y-22031266D01*
X178573066Y-22431266D02*
X178706400Y-22497933D01*
X178973066Y-22497933D01*
X179106400Y-22431266D01*
X179173066Y-22297933D01*
X179173066Y-22231266D01*
X179106400Y-22097933D01*
X178973066Y-22031266D01*
X178773066Y-22031266D01*
X178639733Y-21964600D01*
X178573066Y-21831266D01*
X178573066Y-21764600D01*
X178639733Y-21631266D01*
X178773066Y-21564600D01*
X178973066Y-21564600D01*
X179106400Y-21631266D01*
X180306400Y-22431266D02*
X180173066Y-22497933D01*
X179906400Y-22497933D01*
X179773066Y-22431266D01*
X179706400Y-22297933D01*
X179706400Y-21764600D01*
X179773066Y-21631266D01*
X179906400Y-21564600D01*
X180173066Y-21564600D01*
X180306400Y-21631266D01*
X180373066Y-21764600D01*
X180373066Y-21897933D01*
X179706400Y-22031266D01*
X180773066Y-21564600D02*
X181306400Y-21564600D01*
X180973066Y-21097933D02*
X180973066Y-22297933D01*
X181039733Y-22431266D01*
X181173066Y-22497933D01*
X181306400Y-22497933D01*
D11*
%TO.C,J8*%
X244226400Y-49924600D02*
X245556400Y-49924600D01*
X244226400Y-51254600D02*
X244226400Y-49924600D01*
X244226400Y-52524600D02*
X246886400Y-52524600D01*
X246886400Y-52524600D02*
X246886400Y-126244600D01*
X244226400Y-52524600D02*
X244226400Y-126244600D01*
X244226400Y-126244600D02*
X246886400Y-126244600D01*
%TO.C,J7*%
X197836400Y-31574600D02*
X197836400Y-32904600D01*
X196506400Y-31574600D02*
X197836400Y-31574600D01*
X195236400Y-31574600D02*
X195236400Y-34234600D01*
X195236400Y-34234600D02*
X177396400Y-34234600D01*
X195236400Y-31574600D02*
X177396400Y-31574600D01*
X177396400Y-31574600D02*
X177396400Y-34234600D01*
%TO.C,EEPROM4*%
X214516800Y-52961700D02*
X195771600Y-52961700D01*
X214516800Y-39804500D02*
X195746200Y-39804500D01*
X215659800Y-40947500D02*
X215659800Y-51818700D01*
X200242000Y-52415600D02*
X164682000Y-52415600D01*
X200242000Y-40325200D02*
X164682000Y-40325200D01*
X200242000Y-52415600D02*
X200242000Y-40325200D01*
X164672800Y-39910400D02*
X164672800Y-45370400D01*
X164672800Y-47370400D02*
X164672800Y-52830400D01*
X214516800Y-39804500D02*
G75*
G02*
X215659800Y-40947500I0J-1143000D01*
G01*
X215659800Y-51818700D02*
G75*
G02*
X214516800Y-52961700I-1143000J0D01*
G01*
X164672800Y-45370400D02*
G75*
G02*
X164672800Y-47370400I0J-1000000D01*
G01*
%TO.C,EEPROM3*%
X214516800Y-81661700D02*
X195771600Y-81661700D01*
X214516800Y-68504500D02*
X195746200Y-68504500D01*
X215659800Y-69647500D02*
X215659800Y-80518700D01*
X200242000Y-81115600D02*
X164682000Y-81115600D01*
X200242000Y-69025200D02*
X164682000Y-69025200D01*
X200242000Y-81115600D02*
X200242000Y-69025200D01*
X164672800Y-68610400D02*
X164672800Y-74070400D01*
X164672800Y-76070400D02*
X164672800Y-81530400D01*
X214516800Y-68504500D02*
G75*
G02*
X215659800Y-69647500I0J-1143000D01*
G01*
X215659800Y-80518700D02*
G75*
G02*
X214516800Y-81661700I-1143000J0D01*
G01*
X164672800Y-74070400D02*
G75*
G02*
X164672800Y-76070400I0J-1000000D01*
G01*
%TO.C,EEPROM2*%
X214466800Y-109961700D02*
X195721600Y-109961700D01*
X214466800Y-96804500D02*
X195696200Y-96804500D01*
X215609800Y-97947500D02*
X215609800Y-108818700D01*
X200192000Y-109415600D02*
X164632000Y-109415600D01*
X200192000Y-97325200D02*
X164632000Y-97325200D01*
X200192000Y-109415600D02*
X200192000Y-97325200D01*
X164622800Y-96910400D02*
X164622800Y-102370400D01*
X164622800Y-104370400D02*
X164622800Y-109830400D01*
X214466800Y-96804500D02*
G75*
G02*
X215609800Y-97947500I0J-1143000D01*
G01*
X215609800Y-108818700D02*
G75*
G02*
X214466800Y-109961700I-1143000J0D01*
G01*
X164622800Y-102370400D02*
G75*
G02*
X164622800Y-104370400I0J-1000000D01*
G01*
%TO.C,EEPROM1*%
X214466800Y-137311700D02*
X195721600Y-137311700D01*
X214466800Y-124154500D02*
X195696200Y-124154500D01*
X215609800Y-125297500D02*
X215609800Y-136168700D01*
X200192000Y-136765600D02*
X164632000Y-136765600D01*
X200192000Y-124675200D02*
X164632000Y-124675200D01*
X200192000Y-136765600D02*
X200192000Y-124675200D01*
X164622800Y-124260400D02*
X164622800Y-129720400D01*
X164622800Y-131720400D02*
X164622800Y-137180400D01*
X214466800Y-124154500D02*
G75*
G02*
X215609800Y-125297500I0J-1143000D01*
G01*
X215609800Y-136168700D02*
G75*
G02*
X214466800Y-137311700I-1143000J0D01*
G01*
X164622800Y-129720400D02*
G75*
G02*
X164622800Y-131720400I0J-1000000D01*
G01*
%TO.C,C5*%
X244022400Y-149572600D02*
G75*
G03*
X244022400Y-149572600I-2620000J0D01*
G01*
%TO.C,J3*%
X247876400Y-49924600D02*
X249206400Y-49924600D01*
X247876400Y-51254600D02*
X247876400Y-49924600D01*
X247876400Y-52524600D02*
X250536400Y-52524600D01*
X250536400Y-52524600D02*
X250536400Y-126244600D01*
X247876400Y-52524600D02*
X247876400Y-126244600D01*
X247876400Y-126244600D02*
X250536400Y-126244600D01*
%TO.C,RN4*%
X239556400Y-40374600D02*
X236756400Y-40374600D01*
X239556400Y-60864600D02*
X239556400Y-37664600D01*
X236756400Y-60864600D02*
X239556400Y-60864600D01*
X236756400Y-37664600D02*
X236756400Y-60864600D01*
X239556400Y-37664600D02*
X236756400Y-37664600D01*
%TO.C,RN3*%
X239606400Y-66424600D02*
X236806400Y-66424600D01*
X239606400Y-86914600D02*
X239606400Y-63714600D01*
X236806400Y-86914600D02*
X239606400Y-86914600D01*
X236806400Y-63714600D02*
X236806400Y-86914600D01*
X239606400Y-63714600D02*
X236806400Y-63714600D01*
%TO.C,RN2*%
X239606400Y-92424600D02*
X236806400Y-92424600D01*
X239606400Y-112914600D02*
X239606400Y-89714600D01*
X236806400Y-112914600D02*
X239606400Y-112914600D01*
X236806400Y-89714600D02*
X236806400Y-112914600D01*
X239606400Y-89714600D02*
X236806400Y-89714600D01*
%TO.C,RN1*%
X239656400Y-118324600D02*
X236856400Y-118324600D01*
X239656400Y-138814600D02*
X239656400Y-115614600D01*
X236856400Y-138814600D02*
X239656400Y-138814600D01*
X236856400Y-115614600D02*
X236856400Y-138814600D01*
X239656400Y-115614600D02*
X236856400Y-115614600D01*
%TO.C,J5*%
X220451400Y-158119600D02*
X220951400Y-158119600D01*
X220451400Y-157379600D02*
X220451400Y-158119600D01*
X227024400Y-154242600D02*
X226977400Y-154288600D01*
X229321400Y-151944600D02*
X229286400Y-151980600D01*
X227217400Y-154458600D02*
X227182400Y-154493600D01*
X229526400Y-152150600D02*
X229479400Y-152196600D01*
X230811400Y-147958600D02*
X230811400Y-157879600D01*
X220691400Y-147958600D02*
X220691400Y-157879600D01*
X220691400Y-157879600D02*
X230811400Y-157879600D01*
X220691400Y-147958600D02*
X230811400Y-147958600D01*
X220691400Y-150918600D02*
X230811400Y-150918600D01*
X220691400Y-155819600D02*
X230811400Y-155819600D01*
X220691400Y-157319600D02*
X230811400Y-157319600D01*
X229931400Y-153219600D02*
G75*
G03*
X229931400Y-153219600I-1680000J0D01*
G01*
X223280205Y-154899853D02*
G75*
G02*
X222567400Y-154754600I-28805J1680253D01*
G01*
X221715974Y-153902642D02*
G75*
G02*
X221716400Y-152535600I1535426J683042D01*
G01*
X222568358Y-151684174D02*
G75*
G02*
X223935400Y-151684600I683042J-1535426D01*
G01*
X224786826Y-152536558D02*
G75*
G02*
X224786400Y-153903600I-1535426J-683042D01*
G01*
X223934718Y-154754356D02*
G75*
G02*
X223251400Y-154899600I-683318J1534756D01*
G01*
%TO.C,J11*%
X215544400Y-28450600D02*
X215544400Y-29780600D01*
X214214400Y-28450600D02*
X215544400Y-28450600D01*
X212944400Y-28450600D02*
X212944400Y-31110600D01*
X212944400Y-31110600D02*
X202724400Y-31110600D01*
X212944400Y-28450600D02*
X202724400Y-28450600D01*
X202724400Y-28450600D02*
X202724400Y-31110600D01*
%TO.C,J10*%
X202608400Y-25152600D02*
X202608400Y-23822600D01*
X203938400Y-25152600D02*
X202608400Y-25152600D01*
X205208400Y-25152600D02*
X205208400Y-22492600D01*
X205208400Y-22492600D02*
X215428400Y-22492600D01*
X205208400Y-25152600D02*
X215428400Y-25152600D01*
X215428400Y-25152600D02*
X215428400Y-22492600D01*
%TO.C,U1*%
X225826400Y-24094600D02*
X225826400Y-25744600D01*
X243726400Y-24094600D02*
X225826400Y-24094600D01*
X243726400Y-29394600D02*
X243726400Y-24094600D01*
X225826400Y-29394600D02*
X243726400Y-29394600D01*
X225826400Y-27744600D02*
X225826400Y-29394600D01*
X225826400Y-25744600D02*
G75*
G02*
X225826400Y-27744600I0J-1000000D01*
G01*
%TO.C,J9*%
X223326400Y-22378600D02*
X223326400Y-23708600D01*
X221996400Y-22378600D02*
X223326400Y-22378600D01*
X220726400Y-22378600D02*
X220726400Y-25038600D01*
X220726400Y-25038600D02*
X218126400Y-25038600D01*
X220726400Y-22378600D02*
X218126400Y-22378600D01*
X218126400Y-22378600D02*
X218126400Y-25038600D01*
%TO.C,J4*%
X177416400Y-31344600D02*
X177416400Y-30014600D01*
X178746400Y-31344600D02*
X177416400Y-31344600D01*
X177416400Y-28744600D02*
X177416400Y-26144600D01*
X180016400Y-28744600D02*
X177416400Y-28744600D01*
X180016400Y-31344600D02*
X180016400Y-28744600D01*
X177416400Y-26144600D02*
X197856400Y-26144600D01*
X180016400Y-31344600D02*
X197856400Y-31344600D01*
X197856400Y-31344600D02*
X197856400Y-26144600D01*
%TO.C,J6*%
X169892400Y-151005600D02*
X169892400Y-153665600D01*
X205512400Y-151005600D02*
X169892400Y-151005600D01*
X205512400Y-153665600D02*
X169892400Y-153665600D01*
X205512400Y-151005600D02*
X205512400Y-153665600D01*
X206782400Y-151005600D02*
X208112400Y-151005600D01*
X208112400Y-151005600D02*
X208112400Y-152335600D01*
%TO.C,D2*%
X250386400Y-33566600D02*
X250542400Y-33566600D01*
X248070400Y-33566600D02*
X248226400Y-33566600D01*
X248227792Y-30334265D02*
G75*
G03*
X248070884Y-33566600I1078608J-1672335D01*
G01*
X250385008Y-30334265D02*
G75*
G02*
X250541916Y-33566600I-1078608J-1672335D01*
G01*
X248226563Y-30965470D02*
G75*
G03*
X248226400Y-33047561I1079837J-1041130D01*
G01*
X250386237Y-30965470D02*
G75*
G02*
X250386400Y-33047561I-1079837J-1041130D01*
G01*
%TO.C,D1*%
X248336400Y-38586600D02*
X248180400Y-38586600D01*
X250652400Y-38586600D02*
X250496400Y-38586600D01*
X250495008Y-41818935D02*
G75*
G03*
X250651916Y-38586600I-1078608J1672335D01*
G01*
X248337792Y-41818935D02*
G75*
G02*
X248180884Y-38586600I1078608J1672335D01*
G01*
X250496237Y-41187730D02*
G75*
G03*
X250496400Y-39105639I-1079837J1041130D01*
G01*
X248336563Y-41187730D02*
G75*
G02*
X248336400Y-39105639I1079837J1041130D01*
G01*
%TO.C,BAR3*%
X224856400Y-43854600D02*
X223156400Y-43854600D01*
X223156400Y-43854600D02*
X223156400Y-45554600D01*
X233886400Y-69824600D02*
X223446400Y-69824600D01*
X223446400Y-69824600D02*
X223446400Y-44144600D01*
X223446400Y-44144600D02*
X233886400Y-44144600D01*
X233886400Y-44144600D02*
X233886400Y-69824600D01*
%TO.C,BAR2*%
X233938400Y-75374600D02*
X233938400Y-101054600D01*
X223498400Y-75374600D02*
X233938400Y-75374600D01*
X223498400Y-101054600D02*
X223498400Y-75374600D01*
X233938400Y-101054600D02*
X223498400Y-101054600D01*
X223208400Y-75084600D02*
X223208400Y-76784600D01*
X224908400Y-75084600D02*
X223208400Y-75084600D01*
%TO.C,BAR1*%
X224972400Y-106598600D02*
X223272400Y-106598600D01*
X223272400Y-106598600D02*
X223272400Y-108298600D01*
X234002400Y-132568600D02*
X223562400Y-132568600D01*
X223562400Y-132568600D02*
X223562400Y-106888600D01*
X223562400Y-106888600D02*
X234002400Y-106888600D01*
X234002400Y-106888600D02*
X234002400Y-132568600D01*
%TO.C,SW1*%
X174756400Y-28654600D02*
X174756400Y-27154600D01*
X173506400Y-24654600D02*
X169006400Y-24654600D01*
X167756400Y-27154600D02*
X167756400Y-28654600D01*
X169006400Y-31154600D02*
X173506400Y-31154600D01*
%TO.C,J2*%
X169892400Y-154605600D02*
X169892400Y-157265600D01*
X205512400Y-154605600D02*
X169892400Y-154605600D01*
X205512400Y-157265600D02*
X169892400Y-157265600D01*
X205512400Y-154605600D02*
X205512400Y-157265600D01*
X206782400Y-154605600D02*
X208112400Y-154605600D01*
X208112400Y-154605600D02*
X208112400Y-155935600D01*
%TO.C,J1*%
X244021400Y-154379600D02*
X244021400Y-155709600D01*
X242691400Y-154379600D02*
X244021400Y-154379600D01*
X241421400Y-154379600D02*
X241421400Y-157039600D01*
X241421400Y-157039600D02*
X238821400Y-157039600D01*
X241421400Y-154379600D02*
X238821400Y-154379600D01*
X238821400Y-154379600D02*
X238821400Y-157039600D01*
%TO.C,C2*%
X164117400Y-28942600D02*
G75*
G03*
X164117400Y-28942600I-2620000J0D01*
G01*
%TO.C,EEPROM4*%
D10*
X163315171Y-49633895D02*
X163315171Y-49300561D01*
X163838980Y-49157704D02*
X163838980Y-49633895D01*
X162838980Y-49633895D01*
X162838980Y-49157704D01*
X163315171Y-48729133D02*
X163315171Y-48395800D01*
X163838980Y-48252942D02*
X163838980Y-48729133D01*
X162838980Y-48729133D01*
X162838980Y-48252942D01*
X163838980Y-47824371D02*
X162838980Y-47824371D01*
X162838980Y-47443419D01*
X162886600Y-47348180D01*
X162934219Y-47300561D01*
X163029457Y-47252942D01*
X163172314Y-47252942D01*
X163267552Y-47300561D01*
X163315171Y-47348180D01*
X163362790Y-47443419D01*
X163362790Y-47824371D01*
X163838980Y-46252942D02*
X163362790Y-46586276D01*
X163838980Y-46824371D02*
X162838980Y-46824371D01*
X162838980Y-46443419D01*
X162886600Y-46348180D01*
X162934219Y-46300561D01*
X163029457Y-46252942D01*
X163172314Y-46252942D01*
X163267552Y-46300561D01*
X163315171Y-46348180D01*
X163362790Y-46443419D01*
X163362790Y-46824371D01*
X162838980Y-45633895D02*
X162838980Y-45443419D01*
X162886600Y-45348180D01*
X162981838Y-45252942D01*
X163172314Y-45205323D01*
X163505647Y-45205323D01*
X163696123Y-45252942D01*
X163791361Y-45348180D01*
X163838980Y-45443419D01*
X163838980Y-45633895D01*
X163791361Y-45729133D01*
X163696123Y-45824371D01*
X163505647Y-45871990D01*
X163172314Y-45871990D01*
X162981838Y-45824371D01*
X162886600Y-45729133D01*
X162838980Y-45633895D01*
X163838980Y-44776752D02*
X162838980Y-44776752D01*
X163553266Y-44443419D01*
X162838980Y-44110085D01*
X163838980Y-44110085D01*
X163172314Y-43205323D02*
X163838980Y-43205323D01*
X162791361Y-43443419D02*
X163505647Y-43681514D01*
X163505647Y-43062466D01*
%TO.C,EEPROM3*%
X163315171Y-78333895D02*
X163315171Y-78000561D01*
X163838980Y-77857704D02*
X163838980Y-78333895D01*
X162838980Y-78333895D01*
X162838980Y-77857704D01*
X163315171Y-77429133D02*
X163315171Y-77095800D01*
X163838980Y-76952942D02*
X163838980Y-77429133D01*
X162838980Y-77429133D01*
X162838980Y-76952942D01*
X163838980Y-76524371D02*
X162838980Y-76524371D01*
X162838980Y-76143419D01*
X162886600Y-76048180D01*
X162934219Y-76000561D01*
X163029457Y-75952942D01*
X163172314Y-75952942D01*
X163267552Y-76000561D01*
X163315171Y-76048180D01*
X163362790Y-76143419D01*
X163362790Y-76524371D01*
X163838980Y-74952942D02*
X163362790Y-75286276D01*
X163838980Y-75524371D02*
X162838980Y-75524371D01*
X162838980Y-75143419D01*
X162886600Y-75048180D01*
X162934219Y-75000561D01*
X163029457Y-74952942D01*
X163172314Y-74952942D01*
X163267552Y-75000561D01*
X163315171Y-75048180D01*
X163362790Y-75143419D01*
X163362790Y-75524371D01*
X162838980Y-74333895D02*
X162838980Y-74143419D01*
X162886600Y-74048180D01*
X162981838Y-73952942D01*
X163172314Y-73905323D01*
X163505647Y-73905323D01*
X163696123Y-73952942D01*
X163791361Y-74048180D01*
X163838980Y-74143419D01*
X163838980Y-74333895D01*
X163791361Y-74429133D01*
X163696123Y-74524371D01*
X163505647Y-74571990D01*
X163172314Y-74571990D01*
X162981838Y-74524371D01*
X162886600Y-74429133D01*
X162838980Y-74333895D01*
X163838980Y-73476752D02*
X162838980Y-73476752D01*
X163553266Y-73143419D01*
X162838980Y-72810085D01*
X163838980Y-72810085D01*
X162838980Y-72429133D02*
X162838980Y-71810085D01*
X163219933Y-72143419D01*
X163219933Y-72000561D01*
X163267552Y-71905323D01*
X163315171Y-71857704D01*
X163410409Y-71810085D01*
X163648504Y-71810085D01*
X163743742Y-71857704D01*
X163791361Y-71905323D01*
X163838980Y-72000561D01*
X163838980Y-72286276D01*
X163791361Y-72381514D01*
X163743742Y-72429133D01*
%TO.C,EEPROM2*%
X163265171Y-106633895D02*
X163265171Y-106300561D01*
X163788980Y-106157704D02*
X163788980Y-106633895D01*
X162788980Y-106633895D01*
X162788980Y-106157704D01*
X163265171Y-105729133D02*
X163265171Y-105395800D01*
X163788980Y-105252942D02*
X163788980Y-105729133D01*
X162788980Y-105729133D01*
X162788980Y-105252942D01*
X163788980Y-104824371D02*
X162788980Y-104824371D01*
X162788980Y-104443419D01*
X162836600Y-104348180D01*
X162884219Y-104300561D01*
X162979457Y-104252942D01*
X163122314Y-104252942D01*
X163217552Y-104300561D01*
X163265171Y-104348180D01*
X163312790Y-104443419D01*
X163312790Y-104824371D01*
X163788980Y-103252942D02*
X163312790Y-103586276D01*
X163788980Y-103824371D02*
X162788980Y-103824371D01*
X162788980Y-103443419D01*
X162836600Y-103348180D01*
X162884219Y-103300561D01*
X162979457Y-103252942D01*
X163122314Y-103252942D01*
X163217552Y-103300561D01*
X163265171Y-103348180D01*
X163312790Y-103443419D01*
X163312790Y-103824371D01*
X162788980Y-102633895D02*
X162788980Y-102443419D01*
X162836600Y-102348180D01*
X162931838Y-102252942D01*
X163122314Y-102205323D01*
X163455647Y-102205323D01*
X163646123Y-102252942D01*
X163741361Y-102348180D01*
X163788980Y-102443419D01*
X163788980Y-102633895D01*
X163741361Y-102729133D01*
X163646123Y-102824371D01*
X163455647Y-102871990D01*
X163122314Y-102871990D01*
X162931838Y-102824371D01*
X162836600Y-102729133D01*
X162788980Y-102633895D01*
X163788980Y-101776752D02*
X162788980Y-101776752D01*
X163503266Y-101443419D01*
X162788980Y-101110085D01*
X163788980Y-101110085D01*
X162884219Y-100681514D02*
X162836600Y-100633895D01*
X162788980Y-100538657D01*
X162788980Y-100300561D01*
X162836600Y-100205323D01*
X162884219Y-100157704D01*
X162979457Y-100110085D01*
X163074695Y-100110085D01*
X163217552Y-100157704D01*
X163788980Y-100729133D01*
X163788980Y-100110085D01*
%TO.C,EEPROM1*%
X163265171Y-133983895D02*
X163265171Y-133650561D01*
X163788980Y-133507704D02*
X163788980Y-133983895D01*
X162788980Y-133983895D01*
X162788980Y-133507704D01*
X163265171Y-133079133D02*
X163265171Y-132745800D01*
X163788980Y-132602942D02*
X163788980Y-133079133D01*
X162788980Y-133079133D01*
X162788980Y-132602942D01*
X163788980Y-132174371D02*
X162788980Y-132174371D01*
X162788980Y-131793419D01*
X162836600Y-131698180D01*
X162884219Y-131650561D01*
X162979457Y-131602942D01*
X163122314Y-131602942D01*
X163217552Y-131650561D01*
X163265171Y-131698180D01*
X163312790Y-131793419D01*
X163312790Y-132174371D01*
X163788980Y-130602942D02*
X163312790Y-130936276D01*
X163788980Y-131174371D02*
X162788980Y-131174371D01*
X162788980Y-130793419D01*
X162836600Y-130698180D01*
X162884219Y-130650561D01*
X162979457Y-130602942D01*
X163122314Y-130602942D01*
X163217552Y-130650561D01*
X163265171Y-130698180D01*
X163312790Y-130793419D01*
X163312790Y-131174371D01*
X162788980Y-129983895D02*
X162788980Y-129793419D01*
X162836600Y-129698180D01*
X162931838Y-129602942D01*
X163122314Y-129555323D01*
X163455647Y-129555323D01*
X163646123Y-129602942D01*
X163741361Y-129698180D01*
X163788980Y-129793419D01*
X163788980Y-129983895D01*
X163741361Y-130079133D01*
X163646123Y-130174371D01*
X163455647Y-130221990D01*
X163122314Y-130221990D01*
X162931838Y-130174371D01*
X162836600Y-130079133D01*
X162788980Y-129983895D01*
X163788980Y-129126752D02*
X162788980Y-129126752D01*
X163503266Y-128793419D01*
X162788980Y-128460085D01*
X163788980Y-128460085D01*
X163788980Y-127460085D02*
X163788980Y-128031514D01*
X163788980Y-127745800D02*
X162788980Y-127745800D01*
X162931838Y-127841038D01*
X163027076Y-127936276D01*
X163074695Y-128031514D01*
%TD*%
M02*
