%TF.GenerationSoftware,KiCad,Pcbnew,(5.1.10-1-10_14)*%
%TF.CreationDate,2021-11-14T12:00:46-05:00*%
%TF.ProjectId,clockv2,636c6f63-6b76-4322-9e6b-696361645f70,rev?*%
%TF.SameCoordinates,Original*%
%TF.FileFunction,Soldermask,Top*%
%TF.FilePolarity,Negative*%
%FSLAX46Y46*%
G04 Gerber Fmt 4.6, Leading zero omitted, Abs format (unit mm)*
G04 Created by KiCad (PCBNEW (5.1.10-1-10_14)) date 2021-11-14 12:00:46*
%MOMM*%
%LPD*%
G01*
G04 APERTURE LIST*
%ADD10R,0.800000X0.900000*%
%ADD11O,1.600000X1.600000*%
%ADD12R,1.600000X1.600000*%
%ADD13C,1.524000*%
%ADD14C,2.000000*%
%ADD15O,1.700000X1.700000*%
%ADD16R,1.700000X1.700000*%
G04 APERTURE END LIST*
%TO.C,U6*%
G36*
G01*
X195590500Y-58256000D02*
X195315500Y-58256000D01*
G75*
G02*
X195178000Y-58118500I0J137500D01*
G01*
X195178000Y-56793500D01*
G75*
G02*
X195315500Y-56656000I137500J0D01*
G01*
X195590500Y-56656000D01*
G75*
G02*
X195728000Y-56793500I0J-137500D01*
G01*
X195728000Y-58118500D01*
G75*
G02*
X195590500Y-58256000I-137500J0D01*
G01*
G37*
G36*
G01*
X196860500Y-58256000D02*
X196585500Y-58256000D01*
G75*
G02*
X196448000Y-58118500I0J137500D01*
G01*
X196448000Y-56793500D01*
G75*
G02*
X196585500Y-56656000I137500J0D01*
G01*
X196860500Y-56656000D01*
G75*
G02*
X196998000Y-56793500I0J-137500D01*
G01*
X196998000Y-58118500D01*
G75*
G02*
X196860500Y-58256000I-137500J0D01*
G01*
G37*
G36*
G01*
X198130500Y-58256000D02*
X197855500Y-58256000D01*
G75*
G02*
X197718000Y-58118500I0J137500D01*
G01*
X197718000Y-56793500D01*
G75*
G02*
X197855500Y-56656000I137500J0D01*
G01*
X198130500Y-56656000D01*
G75*
G02*
X198268000Y-56793500I0J-137500D01*
G01*
X198268000Y-58118500D01*
G75*
G02*
X198130500Y-58256000I-137500J0D01*
G01*
G37*
G36*
G01*
X199400500Y-58256000D02*
X199125500Y-58256000D01*
G75*
G02*
X198988000Y-58118500I0J137500D01*
G01*
X198988000Y-56793500D01*
G75*
G02*
X199125500Y-56656000I137500J0D01*
G01*
X199400500Y-56656000D01*
G75*
G02*
X199538000Y-56793500I0J-137500D01*
G01*
X199538000Y-58118500D01*
G75*
G02*
X199400500Y-58256000I-137500J0D01*
G01*
G37*
G36*
G01*
X200670500Y-58256000D02*
X200395500Y-58256000D01*
G75*
G02*
X200258000Y-58118500I0J137500D01*
G01*
X200258000Y-56793500D01*
G75*
G02*
X200395500Y-56656000I137500J0D01*
G01*
X200670500Y-56656000D01*
G75*
G02*
X200808000Y-56793500I0J-137500D01*
G01*
X200808000Y-58118500D01*
G75*
G02*
X200670500Y-58256000I-137500J0D01*
G01*
G37*
G36*
G01*
X201940500Y-58256000D02*
X201665500Y-58256000D01*
G75*
G02*
X201528000Y-58118500I0J137500D01*
G01*
X201528000Y-56793500D01*
G75*
G02*
X201665500Y-56656000I137500J0D01*
G01*
X201940500Y-56656000D01*
G75*
G02*
X202078000Y-56793500I0J-137500D01*
G01*
X202078000Y-58118500D01*
G75*
G02*
X201940500Y-58256000I-137500J0D01*
G01*
G37*
G36*
G01*
X203210500Y-58256000D02*
X202935500Y-58256000D01*
G75*
G02*
X202798000Y-58118500I0J137500D01*
G01*
X202798000Y-56793500D01*
G75*
G02*
X202935500Y-56656000I137500J0D01*
G01*
X203210500Y-56656000D01*
G75*
G02*
X203348000Y-56793500I0J-137500D01*
G01*
X203348000Y-58118500D01*
G75*
G02*
X203210500Y-58256000I-137500J0D01*
G01*
G37*
G36*
G01*
X204480500Y-58256000D02*
X204205500Y-58256000D01*
G75*
G02*
X204068000Y-58118500I0J137500D01*
G01*
X204068000Y-56793500D01*
G75*
G02*
X204205500Y-56656000I137500J0D01*
G01*
X204480500Y-56656000D01*
G75*
G02*
X204618000Y-56793500I0J-137500D01*
G01*
X204618000Y-58118500D01*
G75*
G02*
X204480500Y-58256000I-137500J0D01*
G01*
G37*
G36*
G01*
X204480500Y-64756000D02*
X204205500Y-64756000D01*
G75*
G02*
X204068000Y-64618500I0J137500D01*
G01*
X204068000Y-63293500D01*
G75*
G02*
X204205500Y-63156000I137500J0D01*
G01*
X204480500Y-63156000D01*
G75*
G02*
X204618000Y-63293500I0J-137500D01*
G01*
X204618000Y-64618500D01*
G75*
G02*
X204480500Y-64756000I-137500J0D01*
G01*
G37*
G36*
G01*
X203210500Y-64756000D02*
X202935500Y-64756000D01*
G75*
G02*
X202798000Y-64618500I0J137500D01*
G01*
X202798000Y-63293500D01*
G75*
G02*
X202935500Y-63156000I137500J0D01*
G01*
X203210500Y-63156000D01*
G75*
G02*
X203348000Y-63293500I0J-137500D01*
G01*
X203348000Y-64618500D01*
G75*
G02*
X203210500Y-64756000I-137500J0D01*
G01*
G37*
G36*
G01*
X201940500Y-64756000D02*
X201665500Y-64756000D01*
G75*
G02*
X201528000Y-64618500I0J137500D01*
G01*
X201528000Y-63293500D01*
G75*
G02*
X201665500Y-63156000I137500J0D01*
G01*
X201940500Y-63156000D01*
G75*
G02*
X202078000Y-63293500I0J-137500D01*
G01*
X202078000Y-64618500D01*
G75*
G02*
X201940500Y-64756000I-137500J0D01*
G01*
G37*
G36*
G01*
X200670500Y-64756000D02*
X200395500Y-64756000D01*
G75*
G02*
X200258000Y-64618500I0J137500D01*
G01*
X200258000Y-63293500D01*
G75*
G02*
X200395500Y-63156000I137500J0D01*
G01*
X200670500Y-63156000D01*
G75*
G02*
X200808000Y-63293500I0J-137500D01*
G01*
X200808000Y-64618500D01*
G75*
G02*
X200670500Y-64756000I-137500J0D01*
G01*
G37*
G36*
G01*
X199400500Y-64756000D02*
X199125500Y-64756000D01*
G75*
G02*
X198988000Y-64618500I0J137500D01*
G01*
X198988000Y-63293500D01*
G75*
G02*
X199125500Y-63156000I137500J0D01*
G01*
X199400500Y-63156000D01*
G75*
G02*
X199538000Y-63293500I0J-137500D01*
G01*
X199538000Y-64618500D01*
G75*
G02*
X199400500Y-64756000I-137500J0D01*
G01*
G37*
G36*
G01*
X198130500Y-64756000D02*
X197855500Y-64756000D01*
G75*
G02*
X197718000Y-64618500I0J137500D01*
G01*
X197718000Y-63293500D01*
G75*
G02*
X197855500Y-63156000I137500J0D01*
G01*
X198130500Y-63156000D01*
G75*
G02*
X198268000Y-63293500I0J-137500D01*
G01*
X198268000Y-64618500D01*
G75*
G02*
X198130500Y-64756000I-137500J0D01*
G01*
G37*
G36*
G01*
X196860500Y-64756000D02*
X196585500Y-64756000D01*
G75*
G02*
X196448000Y-64618500I0J137500D01*
G01*
X196448000Y-63293500D01*
G75*
G02*
X196585500Y-63156000I137500J0D01*
G01*
X196860500Y-63156000D01*
G75*
G02*
X196998000Y-63293500I0J-137500D01*
G01*
X196998000Y-64618500D01*
G75*
G02*
X196860500Y-64756000I-137500J0D01*
G01*
G37*
G36*
G01*
X195590500Y-64756000D02*
X195315500Y-64756000D01*
G75*
G02*
X195178000Y-64618500I0J137500D01*
G01*
X195178000Y-63293500D01*
G75*
G02*
X195315500Y-63156000I137500J0D01*
G01*
X195590500Y-63156000D01*
G75*
G02*
X195728000Y-63293500I0J-137500D01*
G01*
X195728000Y-64618500D01*
G75*
G02*
X195590500Y-64756000I-137500J0D01*
G01*
G37*
%TD*%
%TO.C,U3*%
G36*
G01*
X181366500Y-58256000D02*
X181091500Y-58256000D01*
G75*
G02*
X180954000Y-58118500I0J137500D01*
G01*
X180954000Y-56793500D01*
G75*
G02*
X181091500Y-56656000I137500J0D01*
G01*
X181366500Y-56656000D01*
G75*
G02*
X181504000Y-56793500I0J-137500D01*
G01*
X181504000Y-58118500D01*
G75*
G02*
X181366500Y-58256000I-137500J0D01*
G01*
G37*
G36*
G01*
X182636500Y-58256000D02*
X182361500Y-58256000D01*
G75*
G02*
X182224000Y-58118500I0J137500D01*
G01*
X182224000Y-56793500D01*
G75*
G02*
X182361500Y-56656000I137500J0D01*
G01*
X182636500Y-56656000D01*
G75*
G02*
X182774000Y-56793500I0J-137500D01*
G01*
X182774000Y-58118500D01*
G75*
G02*
X182636500Y-58256000I-137500J0D01*
G01*
G37*
G36*
G01*
X183906500Y-58256000D02*
X183631500Y-58256000D01*
G75*
G02*
X183494000Y-58118500I0J137500D01*
G01*
X183494000Y-56793500D01*
G75*
G02*
X183631500Y-56656000I137500J0D01*
G01*
X183906500Y-56656000D01*
G75*
G02*
X184044000Y-56793500I0J-137500D01*
G01*
X184044000Y-58118500D01*
G75*
G02*
X183906500Y-58256000I-137500J0D01*
G01*
G37*
G36*
G01*
X185176500Y-58256000D02*
X184901500Y-58256000D01*
G75*
G02*
X184764000Y-58118500I0J137500D01*
G01*
X184764000Y-56793500D01*
G75*
G02*
X184901500Y-56656000I137500J0D01*
G01*
X185176500Y-56656000D01*
G75*
G02*
X185314000Y-56793500I0J-137500D01*
G01*
X185314000Y-58118500D01*
G75*
G02*
X185176500Y-58256000I-137500J0D01*
G01*
G37*
G36*
G01*
X186446500Y-58256000D02*
X186171500Y-58256000D01*
G75*
G02*
X186034000Y-58118500I0J137500D01*
G01*
X186034000Y-56793500D01*
G75*
G02*
X186171500Y-56656000I137500J0D01*
G01*
X186446500Y-56656000D01*
G75*
G02*
X186584000Y-56793500I0J-137500D01*
G01*
X186584000Y-58118500D01*
G75*
G02*
X186446500Y-58256000I-137500J0D01*
G01*
G37*
G36*
G01*
X187716500Y-58256000D02*
X187441500Y-58256000D01*
G75*
G02*
X187304000Y-58118500I0J137500D01*
G01*
X187304000Y-56793500D01*
G75*
G02*
X187441500Y-56656000I137500J0D01*
G01*
X187716500Y-56656000D01*
G75*
G02*
X187854000Y-56793500I0J-137500D01*
G01*
X187854000Y-58118500D01*
G75*
G02*
X187716500Y-58256000I-137500J0D01*
G01*
G37*
G36*
G01*
X188986500Y-58256000D02*
X188711500Y-58256000D01*
G75*
G02*
X188574000Y-58118500I0J137500D01*
G01*
X188574000Y-56793500D01*
G75*
G02*
X188711500Y-56656000I137500J0D01*
G01*
X188986500Y-56656000D01*
G75*
G02*
X189124000Y-56793500I0J-137500D01*
G01*
X189124000Y-58118500D01*
G75*
G02*
X188986500Y-58256000I-137500J0D01*
G01*
G37*
G36*
G01*
X190256500Y-58256000D02*
X189981500Y-58256000D01*
G75*
G02*
X189844000Y-58118500I0J137500D01*
G01*
X189844000Y-56793500D01*
G75*
G02*
X189981500Y-56656000I137500J0D01*
G01*
X190256500Y-56656000D01*
G75*
G02*
X190394000Y-56793500I0J-137500D01*
G01*
X190394000Y-58118500D01*
G75*
G02*
X190256500Y-58256000I-137500J0D01*
G01*
G37*
G36*
G01*
X190256500Y-64756000D02*
X189981500Y-64756000D01*
G75*
G02*
X189844000Y-64618500I0J137500D01*
G01*
X189844000Y-63293500D01*
G75*
G02*
X189981500Y-63156000I137500J0D01*
G01*
X190256500Y-63156000D01*
G75*
G02*
X190394000Y-63293500I0J-137500D01*
G01*
X190394000Y-64618500D01*
G75*
G02*
X190256500Y-64756000I-137500J0D01*
G01*
G37*
G36*
G01*
X188986500Y-64756000D02*
X188711500Y-64756000D01*
G75*
G02*
X188574000Y-64618500I0J137500D01*
G01*
X188574000Y-63293500D01*
G75*
G02*
X188711500Y-63156000I137500J0D01*
G01*
X188986500Y-63156000D01*
G75*
G02*
X189124000Y-63293500I0J-137500D01*
G01*
X189124000Y-64618500D01*
G75*
G02*
X188986500Y-64756000I-137500J0D01*
G01*
G37*
G36*
G01*
X187716500Y-64756000D02*
X187441500Y-64756000D01*
G75*
G02*
X187304000Y-64618500I0J137500D01*
G01*
X187304000Y-63293500D01*
G75*
G02*
X187441500Y-63156000I137500J0D01*
G01*
X187716500Y-63156000D01*
G75*
G02*
X187854000Y-63293500I0J-137500D01*
G01*
X187854000Y-64618500D01*
G75*
G02*
X187716500Y-64756000I-137500J0D01*
G01*
G37*
G36*
G01*
X186446500Y-64756000D02*
X186171500Y-64756000D01*
G75*
G02*
X186034000Y-64618500I0J137500D01*
G01*
X186034000Y-63293500D01*
G75*
G02*
X186171500Y-63156000I137500J0D01*
G01*
X186446500Y-63156000D01*
G75*
G02*
X186584000Y-63293500I0J-137500D01*
G01*
X186584000Y-64618500D01*
G75*
G02*
X186446500Y-64756000I-137500J0D01*
G01*
G37*
G36*
G01*
X185176500Y-64756000D02*
X184901500Y-64756000D01*
G75*
G02*
X184764000Y-64618500I0J137500D01*
G01*
X184764000Y-63293500D01*
G75*
G02*
X184901500Y-63156000I137500J0D01*
G01*
X185176500Y-63156000D01*
G75*
G02*
X185314000Y-63293500I0J-137500D01*
G01*
X185314000Y-64618500D01*
G75*
G02*
X185176500Y-64756000I-137500J0D01*
G01*
G37*
G36*
G01*
X183906500Y-64756000D02*
X183631500Y-64756000D01*
G75*
G02*
X183494000Y-64618500I0J137500D01*
G01*
X183494000Y-63293500D01*
G75*
G02*
X183631500Y-63156000I137500J0D01*
G01*
X183906500Y-63156000D01*
G75*
G02*
X184044000Y-63293500I0J-137500D01*
G01*
X184044000Y-64618500D01*
G75*
G02*
X183906500Y-64756000I-137500J0D01*
G01*
G37*
G36*
G01*
X182636500Y-64756000D02*
X182361500Y-64756000D01*
G75*
G02*
X182224000Y-64618500I0J137500D01*
G01*
X182224000Y-63293500D01*
G75*
G02*
X182361500Y-63156000I137500J0D01*
G01*
X182636500Y-63156000D01*
G75*
G02*
X182774000Y-63293500I0J-137500D01*
G01*
X182774000Y-64618500D01*
G75*
G02*
X182636500Y-64756000I-137500J0D01*
G01*
G37*
G36*
G01*
X181366500Y-64756000D02*
X181091500Y-64756000D01*
G75*
G02*
X180954000Y-64618500I0J137500D01*
G01*
X180954000Y-63293500D01*
G75*
G02*
X181091500Y-63156000I137500J0D01*
G01*
X181366500Y-63156000D01*
G75*
G02*
X181504000Y-63293500I0J-137500D01*
G01*
X181504000Y-64618500D01*
G75*
G02*
X181366500Y-64756000I-137500J0D01*
G01*
G37*
%TD*%
%TO.C,R10*%
G36*
G01*
X241242001Y-35922000D02*
X240341999Y-35922000D01*
G75*
G02*
X240092000Y-35672001I0J249999D01*
G01*
X240092000Y-35146999D01*
G75*
G02*
X240341999Y-34897000I249999J0D01*
G01*
X241242001Y-34897000D01*
G75*
G02*
X241492000Y-35146999I0J-249999D01*
G01*
X241492000Y-35672001D01*
G75*
G02*
X241242001Y-35922000I-249999J0D01*
G01*
G37*
G36*
G01*
X241242001Y-37747000D02*
X240341999Y-37747000D01*
G75*
G02*
X240092000Y-37497001I0J249999D01*
G01*
X240092000Y-36971999D01*
G75*
G02*
X240341999Y-36722000I249999J0D01*
G01*
X241242001Y-36722000D01*
G75*
G02*
X241492000Y-36971999I0J-249999D01*
G01*
X241492000Y-37497001D01*
G75*
G02*
X241242001Y-37747000I-249999J0D01*
G01*
G37*
%TD*%
%TO.C,R9*%
G36*
G01*
X247846001Y-35922000D02*
X246945999Y-35922000D01*
G75*
G02*
X246696000Y-35672001I0J249999D01*
G01*
X246696000Y-35146999D01*
G75*
G02*
X246945999Y-34897000I249999J0D01*
G01*
X247846001Y-34897000D01*
G75*
G02*
X248096000Y-35146999I0J-249999D01*
G01*
X248096000Y-35672001D01*
G75*
G02*
X247846001Y-35922000I-249999J0D01*
G01*
G37*
G36*
G01*
X247846001Y-37747000D02*
X246945999Y-37747000D01*
G75*
G02*
X246696000Y-37497001I0J249999D01*
G01*
X246696000Y-36971999D01*
G75*
G02*
X246945999Y-36722000I249999J0D01*
G01*
X247846001Y-36722000D01*
G75*
G02*
X248096000Y-36971999I0J-249999D01*
G01*
X248096000Y-37497001D01*
G75*
G02*
X247846001Y-37747000I-249999J0D01*
G01*
G37*
%TD*%
D10*
%TO.C,Q1*%
X244094000Y-37322000D03*
X243144000Y-35322000D03*
X245044000Y-35322000D03*
%TD*%
%TO.C,U13*%
G36*
G01*
X243827000Y-65161000D02*
X243827000Y-66411000D01*
G75*
G02*
X243577000Y-66661000I-250000J0D01*
G01*
X242827000Y-66661000D01*
G75*
G02*
X242577000Y-66411000I0J250000D01*
G01*
X242577000Y-65161000D01*
G75*
G02*
X242827000Y-64911000I250000J0D01*
G01*
X243577000Y-64911000D01*
G75*
G02*
X243827000Y-65161000I0J-250000D01*
G01*
G37*
G36*
G01*
X246627000Y-65161000D02*
X246627000Y-66411000D01*
G75*
G02*
X246377000Y-66661000I-250000J0D01*
G01*
X245627000Y-66661000D01*
G75*
G02*
X245377000Y-66411000I0J250000D01*
G01*
X245377000Y-65161000D01*
G75*
G02*
X245627000Y-64911000I250000J0D01*
G01*
X246377000Y-64911000D01*
G75*
G02*
X246627000Y-65161000I0J-250000D01*
G01*
G37*
%TD*%
%TO.C,U12*%
G36*
G01*
X243827000Y-67955000D02*
X243827000Y-69205000D01*
G75*
G02*
X243577000Y-69455000I-250000J0D01*
G01*
X242827000Y-69455000D01*
G75*
G02*
X242577000Y-69205000I0J250000D01*
G01*
X242577000Y-67955000D01*
G75*
G02*
X242827000Y-67705000I250000J0D01*
G01*
X243577000Y-67705000D01*
G75*
G02*
X243827000Y-67955000I0J-250000D01*
G01*
G37*
G36*
G01*
X246627000Y-67955000D02*
X246627000Y-69205000D01*
G75*
G02*
X246377000Y-69455000I-250000J0D01*
G01*
X245627000Y-69455000D01*
G75*
G02*
X245377000Y-69205000I0J250000D01*
G01*
X245377000Y-67955000D01*
G75*
G02*
X245627000Y-67705000I250000J0D01*
G01*
X246377000Y-67705000D01*
G75*
G02*
X246627000Y-67955000I0J-250000D01*
G01*
G37*
%TD*%
%TO.C,U11*%
G36*
G01*
X243827000Y-62367000D02*
X243827000Y-63617000D01*
G75*
G02*
X243577000Y-63867000I-250000J0D01*
G01*
X242827000Y-63867000D01*
G75*
G02*
X242577000Y-63617000I0J250000D01*
G01*
X242577000Y-62367000D01*
G75*
G02*
X242827000Y-62117000I250000J0D01*
G01*
X243577000Y-62117000D01*
G75*
G02*
X243827000Y-62367000I0J-250000D01*
G01*
G37*
G36*
G01*
X246627000Y-62367000D02*
X246627000Y-63617000D01*
G75*
G02*
X246377000Y-63867000I-250000J0D01*
G01*
X245627000Y-63867000D01*
G75*
G02*
X245377000Y-63617000I0J250000D01*
G01*
X245377000Y-62367000D01*
G75*
G02*
X245627000Y-62117000I250000J0D01*
G01*
X246377000Y-62117000D01*
G75*
G02*
X246627000Y-62367000I0J-250000D01*
G01*
G37*
%TD*%
%TO.C,U10*%
G36*
G01*
X219802000Y-57565000D02*
X219602000Y-57565000D01*
G75*
G02*
X219502000Y-57465000I0J100000D01*
G01*
X219502000Y-56190000D01*
G75*
G02*
X219602000Y-56090000I100000J0D01*
G01*
X219802000Y-56090000D01*
G75*
G02*
X219902000Y-56190000I0J-100000D01*
G01*
X219902000Y-57465000D01*
G75*
G02*
X219802000Y-57565000I-100000J0D01*
G01*
G37*
G36*
G01*
X220452000Y-57565000D02*
X220252000Y-57565000D01*
G75*
G02*
X220152000Y-57465000I0J100000D01*
G01*
X220152000Y-56190000D01*
G75*
G02*
X220252000Y-56090000I100000J0D01*
G01*
X220452000Y-56090000D01*
G75*
G02*
X220552000Y-56190000I0J-100000D01*
G01*
X220552000Y-57465000D01*
G75*
G02*
X220452000Y-57565000I-100000J0D01*
G01*
G37*
G36*
G01*
X221102000Y-57565000D02*
X220902000Y-57565000D01*
G75*
G02*
X220802000Y-57465000I0J100000D01*
G01*
X220802000Y-56190000D01*
G75*
G02*
X220902000Y-56090000I100000J0D01*
G01*
X221102000Y-56090000D01*
G75*
G02*
X221202000Y-56190000I0J-100000D01*
G01*
X221202000Y-57465000D01*
G75*
G02*
X221102000Y-57565000I-100000J0D01*
G01*
G37*
G36*
G01*
X221752000Y-57565000D02*
X221552000Y-57565000D01*
G75*
G02*
X221452000Y-57465000I0J100000D01*
G01*
X221452000Y-56190000D01*
G75*
G02*
X221552000Y-56090000I100000J0D01*
G01*
X221752000Y-56090000D01*
G75*
G02*
X221852000Y-56190000I0J-100000D01*
G01*
X221852000Y-57465000D01*
G75*
G02*
X221752000Y-57565000I-100000J0D01*
G01*
G37*
G36*
G01*
X222402000Y-57565000D02*
X222202000Y-57565000D01*
G75*
G02*
X222102000Y-57465000I0J100000D01*
G01*
X222102000Y-56190000D01*
G75*
G02*
X222202000Y-56090000I100000J0D01*
G01*
X222402000Y-56090000D01*
G75*
G02*
X222502000Y-56190000I0J-100000D01*
G01*
X222502000Y-57465000D01*
G75*
G02*
X222402000Y-57565000I-100000J0D01*
G01*
G37*
G36*
G01*
X223052000Y-57565000D02*
X222852000Y-57565000D01*
G75*
G02*
X222752000Y-57465000I0J100000D01*
G01*
X222752000Y-56190000D01*
G75*
G02*
X222852000Y-56090000I100000J0D01*
G01*
X223052000Y-56090000D01*
G75*
G02*
X223152000Y-56190000I0J-100000D01*
G01*
X223152000Y-57465000D01*
G75*
G02*
X223052000Y-57565000I-100000J0D01*
G01*
G37*
G36*
G01*
X223702000Y-57565000D02*
X223502000Y-57565000D01*
G75*
G02*
X223402000Y-57465000I0J100000D01*
G01*
X223402000Y-56190000D01*
G75*
G02*
X223502000Y-56090000I100000J0D01*
G01*
X223702000Y-56090000D01*
G75*
G02*
X223802000Y-56190000I0J-100000D01*
G01*
X223802000Y-57465000D01*
G75*
G02*
X223702000Y-57565000I-100000J0D01*
G01*
G37*
G36*
G01*
X224352000Y-57565000D02*
X224152000Y-57565000D01*
G75*
G02*
X224052000Y-57465000I0J100000D01*
G01*
X224052000Y-56190000D01*
G75*
G02*
X224152000Y-56090000I100000J0D01*
G01*
X224352000Y-56090000D01*
G75*
G02*
X224452000Y-56190000I0J-100000D01*
G01*
X224452000Y-57465000D01*
G75*
G02*
X224352000Y-57565000I-100000J0D01*
G01*
G37*
G36*
G01*
X224352000Y-63290000D02*
X224152000Y-63290000D01*
G75*
G02*
X224052000Y-63190000I0J100000D01*
G01*
X224052000Y-61915000D01*
G75*
G02*
X224152000Y-61815000I100000J0D01*
G01*
X224352000Y-61815000D01*
G75*
G02*
X224452000Y-61915000I0J-100000D01*
G01*
X224452000Y-63190000D01*
G75*
G02*
X224352000Y-63290000I-100000J0D01*
G01*
G37*
G36*
G01*
X223702000Y-63290000D02*
X223502000Y-63290000D01*
G75*
G02*
X223402000Y-63190000I0J100000D01*
G01*
X223402000Y-61915000D01*
G75*
G02*
X223502000Y-61815000I100000J0D01*
G01*
X223702000Y-61815000D01*
G75*
G02*
X223802000Y-61915000I0J-100000D01*
G01*
X223802000Y-63190000D01*
G75*
G02*
X223702000Y-63290000I-100000J0D01*
G01*
G37*
G36*
G01*
X223052000Y-63290000D02*
X222852000Y-63290000D01*
G75*
G02*
X222752000Y-63190000I0J100000D01*
G01*
X222752000Y-61915000D01*
G75*
G02*
X222852000Y-61815000I100000J0D01*
G01*
X223052000Y-61815000D01*
G75*
G02*
X223152000Y-61915000I0J-100000D01*
G01*
X223152000Y-63190000D01*
G75*
G02*
X223052000Y-63290000I-100000J0D01*
G01*
G37*
G36*
G01*
X222402000Y-63290000D02*
X222202000Y-63290000D01*
G75*
G02*
X222102000Y-63190000I0J100000D01*
G01*
X222102000Y-61915000D01*
G75*
G02*
X222202000Y-61815000I100000J0D01*
G01*
X222402000Y-61815000D01*
G75*
G02*
X222502000Y-61915000I0J-100000D01*
G01*
X222502000Y-63190000D01*
G75*
G02*
X222402000Y-63290000I-100000J0D01*
G01*
G37*
G36*
G01*
X221752000Y-63290000D02*
X221552000Y-63290000D01*
G75*
G02*
X221452000Y-63190000I0J100000D01*
G01*
X221452000Y-61915000D01*
G75*
G02*
X221552000Y-61815000I100000J0D01*
G01*
X221752000Y-61815000D01*
G75*
G02*
X221852000Y-61915000I0J-100000D01*
G01*
X221852000Y-63190000D01*
G75*
G02*
X221752000Y-63290000I-100000J0D01*
G01*
G37*
G36*
G01*
X221102000Y-63290000D02*
X220902000Y-63290000D01*
G75*
G02*
X220802000Y-63190000I0J100000D01*
G01*
X220802000Y-61915000D01*
G75*
G02*
X220902000Y-61815000I100000J0D01*
G01*
X221102000Y-61815000D01*
G75*
G02*
X221202000Y-61915000I0J-100000D01*
G01*
X221202000Y-63190000D01*
G75*
G02*
X221102000Y-63290000I-100000J0D01*
G01*
G37*
G36*
G01*
X220452000Y-63290000D02*
X220252000Y-63290000D01*
G75*
G02*
X220152000Y-63190000I0J100000D01*
G01*
X220152000Y-61915000D01*
G75*
G02*
X220252000Y-61815000I100000J0D01*
G01*
X220452000Y-61815000D01*
G75*
G02*
X220552000Y-61915000I0J-100000D01*
G01*
X220552000Y-63190000D01*
G75*
G02*
X220452000Y-63290000I-100000J0D01*
G01*
G37*
G36*
G01*
X219802000Y-63290000D02*
X219602000Y-63290000D01*
G75*
G02*
X219502000Y-63190000I0J100000D01*
G01*
X219502000Y-61915000D01*
G75*
G02*
X219602000Y-61815000I100000J0D01*
G01*
X219802000Y-61815000D01*
G75*
G02*
X219902000Y-61915000I0J-100000D01*
G01*
X219902000Y-63190000D01*
G75*
G02*
X219802000Y-63290000I-100000J0D01*
G01*
G37*
%TD*%
%TO.C,U9*%
G36*
G01*
X210131000Y-57565000D02*
X209931000Y-57565000D01*
G75*
G02*
X209831000Y-57465000I0J100000D01*
G01*
X209831000Y-56190000D01*
G75*
G02*
X209931000Y-56090000I100000J0D01*
G01*
X210131000Y-56090000D01*
G75*
G02*
X210231000Y-56190000I0J-100000D01*
G01*
X210231000Y-57465000D01*
G75*
G02*
X210131000Y-57565000I-100000J0D01*
G01*
G37*
G36*
G01*
X210781000Y-57565000D02*
X210581000Y-57565000D01*
G75*
G02*
X210481000Y-57465000I0J100000D01*
G01*
X210481000Y-56190000D01*
G75*
G02*
X210581000Y-56090000I100000J0D01*
G01*
X210781000Y-56090000D01*
G75*
G02*
X210881000Y-56190000I0J-100000D01*
G01*
X210881000Y-57465000D01*
G75*
G02*
X210781000Y-57565000I-100000J0D01*
G01*
G37*
G36*
G01*
X211431000Y-57565000D02*
X211231000Y-57565000D01*
G75*
G02*
X211131000Y-57465000I0J100000D01*
G01*
X211131000Y-56190000D01*
G75*
G02*
X211231000Y-56090000I100000J0D01*
G01*
X211431000Y-56090000D01*
G75*
G02*
X211531000Y-56190000I0J-100000D01*
G01*
X211531000Y-57465000D01*
G75*
G02*
X211431000Y-57565000I-100000J0D01*
G01*
G37*
G36*
G01*
X212081000Y-57565000D02*
X211881000Y-57565000D01*
G75*
G02*
X211781000Y-57465000I0J100000D01*
G01*
X211781000Y-56190000D01*
G75*
G02*
X211881000Y-56090000I100000J0D01*
G01*
X212081000Y-56090000D01*
G75*
G02*
X212181000Y-56190000I0J-100000D01*
G01*
X212181000Y-57465000D01*
G75*
G02*
X212081000Y-57565000I-100000J0D01*
G01*
G37*
G36*
G01*
X212731000Y-57565000D02*
X212531000Y-57565000D01*
G75*
G02*
X212431000Y-57465000I0J100000D01*
G01*
X212431000Y-56190000D01*
G75*
G02*
X212531000Y-56090000I100000J0D01*
G01*
X212731000Y-56090000D01*
G75*
G02*
X212831000Y-56190000I0J-100000D01*
G01*
X212831000Y-57465000D01*
G75*
G02*
X212731000Y-57565000I-100000J0D01*
G01*
G37*
G36*
G01*
X213381000Y-57565000D02*
X213181000Y-57565000D01*
G75*
G02*
X213081000Y-57465000I0J100000D01*
G01*
X213081000Y-56190000D01*
G75*
G02*
X213181000Y-56090000I100000J0D01*
G01*
X213381000Y-56090000D01*
G75*
G02*
X213481000Y-56190000I0J-100000D01*
G01*
X213481000Y-57465000D01*
G75*
G02*
X213381000Y-57565000I-100000J0D01*
G01*
G37*
G36*
G01*
X214031000Y-57565000D02*
X213831000Y-57565000D01*
G75*
G02*
X213731000Y-57465000I0J100000D01*
G01*
X213731000Y-56190000D01*
G75*
G02*
X213831000Y-56090000I100000J0D01*
G01*
X214031000Y-56090000D01*
G75*
G02*
X214131000Y-56190000I0J-100000D01*
G01*
X214131000Y-57465000D01*
G75*
G02*
X214031000Y-57565000I-100000J0D01*
G01*
G37*
G36*
G01*
X214681000Y-57565000D02*
X214481000Y-57565000D01*
G75*
G02*
X214381000Y-57465000I0J100000D01*
G01*
X214381000Y-56190000D01*
G75*
G02*
X214481000Y-56090000I100000J0D01*
G01*
X214681000Y-56090000D01*
G75*
G02*
X214781000Y-56190000I0J-100000D01*
G01*
X214781000Y-57465000D01*
G75*
G02*
X214681000Y-57565000I-100000J0D01*
G01*
G37*
G36*
G01*
X214681000Y-63290000D02*
X214481000Y-63290000D01*
G75*
G02*
X214381000Y-63190000I0J100000D01*
G01*
X214381000Y-61915000D01*
G75*
G02*
X214481000Y-61815000I100000J0D01*
G01*
X214681000Y-61815000D01*
G75*
G02*
X214781000Y-61915000I0J-100000D01*
G01*
X214781000Y-63190000D01*
G75*
G02*
X214681000Y-63290000I-100000J0D01*
G01*
G37*
G36*
G01*
X214031000Y-63290000D02*
X213831000Y-63290000D01*
G75*
G02*
X213731000Y-63190000I0J100000D01*
G01*
X213731000Y-61915000D01*
G75*
G02*
X213831000Y-61815000I100000J0D01*
G01*
X214031000Y-61815000D01*
G75*
G02*
X214131000Y-61915000I0J-100000D01*
G01*
X214131000Y-63190000D01*
G75*
G02*
X214031000Y-63290000I-100000J0D01*
G01*
G37*
G36*
G01*
X213381000Y-63290000D02*
X213181000Y-63290000D01*
G75*
G02*
X213081000Y-63190000I0J100000D01*
G01*
X213081000Y-61915000D01*
G75*
G02*
X213181000Y-61815000I100000J0D01*
G01*
X213381000Y-61815000D01*
G75*
G02*
X213481000Y-61915000I0J-100000D01*
G01*
X213481000Y-63190000D01*
G75*
G02*
X213381000Y-63290000I-100000J0D01*
G01*
G37*
G36*
G01*
X212731000Y-63290000D02*
X212531000Y-63290000D01*
G75*
G02*
X212431000Y-63190000I0J100000D01*
G01*
X212431000Y-61915000D01*
G75*
G02*
X212531000Y-61815000I100000J0D01*
G01*
X212731000Y-61815000D01*
G75*
G02*
X212831000Y-61915000I0J-100000D01*
G01*
X212831000Y-63190000D01*
G75*
G02*
X212731000Y-63290000I-100000J0D01*
G01*
G37*
G36*
G01*
X212081000Y-63290000D02*
X211881000Y-63290000D01*
G75*
G02*
X211781000Y-63190000I0J100000D01*
G01*
X211781000Y-61915000D01*
G75*
G02*
X211881000Y-61815000I100000J0D01*
G01*
X212081000Y-61815000D01*
G75*
G02*
X212181000Y-61915000I0J-100000D01*
G01*
X212181000Y-63190000D01*
G75*
G02*
X212081000Y-63290000I-100000J0D01*
G01*
G37*
G36*
G01*
X211431000Y-63290000D02*
X211231000Y-63290000D01*
G75*
G02*
X211131000Y-63190000I0J100000D01*
G01*
X211131000Y-61915000D01*
G75*
G02*
X211231000Y-61815000I100000J0D01*
G01*
X211431000Y-61815000D01*
G75*
G02*
X211531000Y-61915000I0J-100000D01*
G01*
X211531000Y-63190000D01*
G75*
G02*
X211431000Y-63290000I-100000J0D01*
G01*
G37*
G36*
G01*
X210781000Y-63290000D02*
X210581000Y-63290000D01*
G75*
G02*
X210481000Y-63190000I0J100000D01*
G01*
X210481000Y-61915000D01*
G75*
G02*
X210581000Y-61815000I100000J0D01*
G01*
X210781000Y-61815000D01*
G75*
G02*
X210881000Y-61915000I0J-100000D01*
G01*
X210881000Y-63190000D01*
G75*
G02*
X210781000Y-63290000I-100000J0D01*
G01*
G37*
G36*
G01*
X210131000Y-63290000D02*
X209931000Y-63290000D01*
G75*
G02*
X209831000Y-63190000I0J100000D01*
G01*
X209831000Y-61915000D01*
G75*
G02*
X209931000Y-61815000I100000J0D01*
G01*
X210131000Y-61815000D01*
G75*
G02*
X210231000Y-61915000I0J-100000D01*
G01*
X210231000Y-63190000D01*
G75*
G02*
X210131000Y-63290000I-100000J0D01*
G01*
G37*
%TD*%
%TO.C,U8*%
G36*
G01*
X204861000Y-50813000D02*
X206111000Y-50813000D01*
G75*
G02*
X206361000Y-51063000I0J-250000D01*
G01*
X206361000Y-51813000D01*
G75*
G02*
X206111000Y-52063000I-250000J0D01*
G01*
X204861000Y-52063000D01*
G75*
G02*
X204611000Y-51813000I0J250000D01*
G01*
X204611000Y-51063000D01*
G75*
G02*
X204861000Y-50813000I250000J0D01*
G01*
G37*
G36*
G01*
X204861000Y-48013000D02*
X206111000Y-48013000D01*
G75*
G02*
X206361000Y-48263000I0J-250000D01*
G01*
X206361000Y-49013000D01*
G75*
G02*
X206111000Y-49263000I-250000J0D01*
G01*
X204861000Y-49263000D01*
G75*
G02*
X204611000Y-49013000I0J250000D01*
G01*
X204611000Y-48263000D01*
G75*
G02*
X204861000Y-48013000I250000J0D01*
G01*
G37*
%TD*%
%TO.C,U5*%
G36*
G01*
X210957000Y-50813000D02*
X212207000Y-50813000D01*
G75*
G02*
X212457000Y-51063000I0J-250000D01*
G01*
X212457000Y-51813000D01*
G75*
G02*
X212207000Y-52063000I-250000J0D01*
G01*
X210957000Y-52063000D01*
G75*
G02*
X210707000Y-51813000I0J250000D01*
G01*
X210707000Y-51063000D01*
G75*
G02*
X210957000Y-50813000I250000J0D01*
G01*
G37*
G36*
G01*
X210957000Y-48013000D02*
X212207000Y-48013000D01*
G75*
G02*
X212457000Y-48263000I0J-250000D01*
G01*
X212457000Y-49013000D01*
G75*
G02*
X212207000Y-49263000I-250000J0D01*
G01*
X210957000Y-49263000D01*
G75*
G02*
X210707000Y-49013000I0J250000D01*
G01*
X210707000Y-48263000D01*
G75*
G02*
X210957000Y-48013000I250000J0D01*
G01*
G37*
%TD*%
%TO.C,U4*%
G36*
G01*
X207909000Y-50813000D02*
X209159000Y-50813000D01*
G75*
G02*
X209409000Y-51063000I0J-250000D01*
G01*
X209409000Y-51813000D01*
G75*
G02*
X209159000Y-52063000I-250000J0D01*
G01*
X207909000Y-52063000D01*
G75*
G02*
X207659000Y-51813000I0J250000D01*
G01*
X207659000Y-51063000D01*
G75*
G02*
X207909000Y-50813000I250000J0D01*
G01*
G37*
G36*
G01*
X207909000Y-48013000D02*
X209159000Y-48013000D01*
G75*
G02*
X209409000Y-48263000I0J-250000D01*
G01*
X209409000Y-49013000D01*
G75*
G02*
X209159000Y-49263000I-250000J0D01*
G01*
X207909000Y-49263000D01*
G75*
G02*
X207659000Y-49013000I0J250000D01*
G01*
X207659000Y-48263000D01*
G75*
G02*
X207909000Y-48013000I250000J0D01*
G01*
G37*
%TD*%
%TO.C,U2*%
G36*
G01*
X229473000Y-57565000D02*
X229273000Y-57565000D01*
G75*
G02*
X229173000Y-57465000I0J100000D01*
G01*
X229173000Y-56190000D01*
G75*
G02*
X229273000Y-56090000I100000J0D01*
G01*
X229473000Y-56090000D01*
G75*
G02*
X229573000Y-56190000I0J-100000D01*
G01*
X229573000Y-57465000D01*
G75*
G02*
X229473000Y-57565000I-100000J0D01*
G01*
G37*
G36*
G01*
X230123000Y-57565000D02*
X229923000Y-57565000D01*
G75*
G02*
X229823000Y-57465000I0J100000D01*
G01*
X229823000Y-56190000D01*
G75*
G02*
X229923000Y-56090000I100000J0D01*
G01*
X230123000Y-56090000D01*
G75*
G02*
X230223000Y-56190000I0J-100000D01*
G01*
X230223000Y-57465000D01*
G75*
G02*
X230123000Y-57565000I-100000J0D01*
G01*
G37*
G36*
G01*
X230773000Y-57565000D02*
X230573000Y-57565000D01*
G75*
G02*
X230473000Y-57465000I0J100000D01*
G01*
X230473000Y-56190000D01*
G75*
G02*
X230573000Y-56090000I100000J0D01*
G01*
X230773000Y-56090000D01*
G75*
G02*
X230873000Y-56190000I0J-100000D01*
G01*
X230873000Y-57465000D01*
G75*
G02*
X230773000Y-57565000I-100000J0D01*
G01*
G37*
G36*
G01*
X231423000Y-57565000D02*
X231223000Y-57565000D01*
G75*
G02*
X231123000Y-57465000I0J100000D01*
G01*
X231123000Y-56190000D01*
G75*
G02*
X231223000Y-56090000I100000J0D01*
G01*
X231423000Y-56090000D01*
G75*
G02*
X231523000Y-56190000I0J-100000D01*
G01*
X231523000Y-57465000D01*
G75*
G02*
X231423000Y-57565000I-100000J0D01*
G01*
G37*
G36*
G01*
X232073000Y-57565000D02*
X231873000Y-57565000D01*
G75*
G02*
X231773000Y-57465000I0J100000D01*
G01*
X231773000Y-56190000D01*
G75*
G02*
X231873000Y-56090000I100000J0D01*
G01*
X232073000Y-56090000D01*
G75*
G02*
X232173000Y-56190000I0J-100000D01*
G01*
X232173000Y-57465000D01*
G75*
G02*
X232073000Y-57565000I-100000J0D01*
G01*
G37*
G36*
G01*
X232723000Y-57565000D02*
X232523000Y-57565000D01*
G75*
G02*
X232423000Y-57465000I0J100000D01*
G01*
X232423000Y-56190000D01*
G75*
G02*
X232523000Y-56090000I100000J0D01*
G01*
X232723000Y-56090000D01*
G75*
G02*
X232823000Y-56190000I0J-100000D01*
G01*
X232823000Y-57465000D01*
G75*
G02*
X232723000Y-57565000I-100000J0D01*
G01*
G37*
G36*
G01*
X233373000Y-57565000D02*
X233173000Y-57565000D01*
G75*
G02*
X233073000Y-57465000I0J100000D01*
G01*
X233073000Y-56190000D01*
G75*
G02*
X233173000Y-56090000I100000J0D01*
G01*
X233373000Y-56090000D01*
G75*
G02*
X233473000Y-56190000I0J-100000D01*
G01*
X233473000Y-57465000D01*
G75*
G02*
X233373000Y-57565000I-100000J0D01*
G01*
G37*
G36*
G01*
X234023000Y-57565000D02*
X233823000Y-57565000D01*
G75*
G02*
X233723000Y-57465000I0J100000D01*
G01*
X233723000Y-56190000D01*
G75*
G02*
X233823000Y-56090000I100000J0D01*
G01*
X234023000Y-56090000D01*
G75*
G02*
X234123000Y-56190000I0J-100000D01*
G01*
X234123000Y-57465000D01*
G75*
G02*
X234023000Y-57565000I-100000J0D01*
G01*
G37*
G36*
G01*
X234023000Y-63290000D02*
X233823000Y-63290000D01*
G75*
G02*
X233723000Y-63190000I0J100000D01*
G01*
X233723000Y-61915000D01*
G75*
G02*
X233823000Y-61815000I100000J0D01*
G01*
X234023000Y-61815000D01*
G75*
G02*
X234123000Y-61915000I0J-100000D01*
G01*
X234123000Y-63190000D01*
G75*
G02*
X234023000Y-63290000I-100000J0D01*
G01*
G37*
G36*
G01*
X233373000Y-63290000D02*
X233173000Y-63290000D01*
G75*
G02*
X233073000Y-63190000I0J100000D01*
G01*
X233073000Y-61915000D01*
G75*
G02*
X233173000Y-61815000I100000J0D01*
G01*
X233373000Y-61815000D01*
G75*
G02*
X233473000Y-61915000I0J-100000D01*
G01*
X233473000Y-63190000D01*
G75*
G02*
X233373000Y-63290000I-100000J0D01*
G01*
G37*
G36*
G01*
X232723000Y-63290000D02*
X232523000Y-63290000D01*
G75*
G02*
X232423000Y-63190000I0J100000D01*
G01*
X232423000Y-61915000D01*
G75*
G02*
X232523000Y-61815000I100000J0D01*
G01*
X232723000Y-61815000D01*
G75*
G02*
X232823000Y-61915000I0J-100000D01*
G01*
X232823000Y-63190000D01*
G75*
G02*
X232723000Y-63290000I-100000J0D01*
G01*
G37*
G36*
G01*
X232073000Y-63290000D02*
X231873000Y-63290000D01*
G75*
G02*
X231773000Y-63190000I0J100000D01*
G01*
X231773000Y-61915000D01*
G75*
G02*
X231873000Y-61815000I100000J0D01*
G01*
X232073000Y-61815000D01*
G75*
G02*
X232173000Y-61915000I0J-100000D01*
G01*
X232173000Y-63190000D01*
G75*
G02*
X232073000Y-63290000I-100000J0D01*
G01*
G37*
G36*
G01*
X231423000Y-63290000D02*
X231223000Y-63290000D01*
G75*
G02*
X231123000Y-63190000I0J100000D01*
G01*
X231123000Y-61915000D01*
G75*
G02*
X231223000Y-61815000I100000J0D01*
G01*
X231423000Y-61815000D01*
G75*
G02*
X231523000Y-61915000I0J-100000D01*
G01*
X231523000Y-63190000D01*
G75*
G02*
X231423000Y-63290000I-100000J0D01*
G01*
G37*
G36*
G01*
X230773000Y-63290000D02*
X230573000Y-63290000D01*
G75*
G02*
X230473000Y-63190000I0J100000D01*
G01*
X230473000Y-61915000D01*
G75*
G02*
X230573000Y-61815000I100000J0D01*
G01*
X230773000Y-61815000D01*
G75*
G02*
X230873000Y-61915000I0J-100000D01*
G01*
X230873000Y-63190000D01*
G75*
G02*
X230773000Y-63290000I-100000J0D01*
G01*
G37*
G36*
G01*
X230123000Y-63290000D02*
X229923000Y-63290000D01*
G75*
G02*
X229823000Y-63190000I0J100000D01*
G01*
X229823000Y-61915000D01*
G75*
G02*
X229923000Y-61815000I100000J0D01*
G01*
X230123000Y-61815000D01*
G75*
G02*
X230223000Y-61915000I0J-100000D01*
G01*
X230223000Y-63190000D01*
G75*
G02*
X230123000Y-63290000I-100000J0D01*
G01*
G37*
G36*
G01*
X229473000Y-63290000D02*
X229273000Y-63290000D01*
G75*
G02*
X229173000Y-63190000I0J100000D01*
G01*
X229173000Y-61915000D01*
G75*
G02*
X229273000Y-61815000I100000J0D01*
G01*
X229473000Y-61815000D01*
G75*
G02*
X229573000Y-61915000I0J-100000D01*
G01*
X229573000Y-63190000D01*
G75*
G02*
X229473000Y-63290000I-100000J0D01*
G01*
G37*
%TD*%
D11*
%TO.C,SW3*%
X228854000Y-43688000D03*
X233934000Y-51308000D03*
X231394000Y-43688000D03*
X231394000Y-51308000D03*
X233934000Y-43688000D03*
D12*
X228854000Y-51308000D03*
%TD*%
D13*
%TO.C,SW2*%
X246000000Y-50264000D03*
X243460000Y-50264000D03*
X240920000Y-50264000D03*
X246000000Y-45184000D03*
X243460000Y-45184000D03*
X240920000Y-45184000D03*
%TD*%
D14*
%TO.C,SW1*%
X223162000Y-45466000D03*
X223162000Y-49966000D03*
X216662000Y-45466000D03*
X216662000Y-49966000D03*
%TD*%
%TO.C,R13*%
G36*
G01*
X235350000Y-33470002D02*
X235350000Y-32569998D01*
G75*
G02*
X235599998Y-32320000I249998J0D01*
G01*
X236125002Y-32320000D01*
G75*
G02*
X236375000Y-32569998I0J-249998D01*
G01*
X236375000Y-33470002D01*
G75*
G02*
X236125002Y-33720000I-249998J0D01*
G01*
X235599998Y-33720000D01*
G75*
G02*
X235350000Y-33470002I0J249998D01*
G01*
G37*
G36*
G01*
X233525000Y-33470002D02*
X233525000Y-32569998D01*
G75*
G02*
X233774998Y-32320000I249998J0D01*
G01*
X234300002Y-32320000D01*
G75*
G02*
X234550000Y-32569998I0J-249998D01*
G01*
X234550000Y-33470002D01*
G75*
G02*
X234300002Y-33720000I-249998J0D01*
G01*
X233774998Y-33720000D01*
G75*
G02*
X233525000Y-33470002I0J249998D01*
G01*
G37*
%TD*%
%TO.C,R12*%
G36*
G01*
X231286000Y-33470002D02*
X231286000Y-32569998D01*
G75*
G02*
X231535998Y-32320000I249998J0D01*
G01*
X232061002Y-32320000D01*
G75*
G02*
X232311000Y-32569998I0J-249998D01*
G01*
X232311000Y-33470002D01*
G75*
G02*
X232061002Y-33720000I-249998J0D01*
G01*
X231535998Y-33720000D01*
G75*
G02*
X231286000Y-33470002I0J249998D01*
G01*
G37*
G36*
G01*
X229461000Y-33470002D02*
X229461000Y-32569998D01*
G75*
G02*
X229710998Y-32320000I249998J0D01*
G01*
X230236002Y-32320000D01*
G75*
G02*
X230486000Y-32569998I0J-249998D01*
G01*
X230486000Y-33470002D01*
G75*
G02*
X230236002Y-33720000I-249998J0D01*
G01*
X229710998Y-33720000D01*
G75*
G02*
X229461000Y-33470002I0J249998D01*
G01*
G37*
%TD*%
%TO.C,R11*%
G36*
G01*
X227071500Y-33470002D02*
X227071500Y-32569998D01*
G75*
G02*
X227321498Y-32320000I249998J0D01*
G01*
X227846502Y-32320000D01*
G75*
G02*
X228096500Y-32569998I0J-249998D01*
G01*
X228096500Y-33470002D01*
G75*
G02*
X227846502Y-33720000I-249998J0D01*
G01*
X227321498Y-33720000D01*
G75*
G02*
X227071500Y-33470002I0J249998D01*
G01*
G37*
G36*
G01*
X225246500Y-33470002D02*
X225246500Y-32569998D01*
G75*
G02*
X225496498Y-32320000I249998J0D01*
G01*
X226021502Y-32320000D01*
G75*
G02*
X226271500Y-32569998I0J-249998D01*
G01*
X226271500Y-33470002D01*
G75*
G02*
X226021502Y-33720000I-249998J0D01*
G01*
X225496498Y-33720000D01*
G75*
G02*
X225246500Y-33470002I0J249998D01*
G01*
G37*
%TD*%
%TO.C,R8*%
G36*
G01*
X248774000Y-65335998D02*
X248774000Y-66236002D01*
G75*
G02*
X248524002Y-66486000I-249998J0D01*
G01*
X247998998Y-66486000D01*
G75*
G02*
X247749000Y-66236002I0J249998D01*
G01*
X247749000Y-65335998D01*
G75*
G02*
X247998998Y-65086000I249998J0D01*
G01*
X248524002Y-65086000D01*
G75*
G02*
X248774000Y-65335998I0J-249998D01*
G01*
G37*
G36*
G01*
X250599000Y-65335998D02*
X250599000Y-66236002D01*
G75*
G02*
X250349002Y-66486000I-249998J0D01*
G01*
X249823998Y-66486000D01*
G75*
G02*
X249574000Y-66236002I0J249998D01*
G01*
X249574000Y-65335998D01*
G75*
G02*
X249823998Y-65086000I249998J0D01*
G01*
X250349002Y-65086000D01*
G75*
G02*
X250599000Y-65335998I0J-249998D01*
G01*
G37*
%TD*%
%TO.C,R7*%
G36*
G01*
X248774000Y-68129998D02*
X248774000Y-69030002D01*
G75*
G02*
X248524002Y-69280000I-249998J0D01*
G01*
X247998998Y-69280000D01*
G75*
G02*
X247749000Y-69030002I0J249998D01*
G01*
X247749000Y-68129998D01*
G75*
G02*
X247998998Y-67880000I249998J0D01*
G01*
X248524002Y-67880000D01*
G75*
G02*
X248774000Y-68129998I0J-249998D01*
G01*
G37*
G36*
G01*
X250599000Y-68129998D02*
X250599000Y-69030002D01*
G75*
G02*
X250349002Y-69280000I-249998J0D01*
G01*
X249823998Y-69280000D01*
G75*
G02*
X249574000Y-69030002I0J249998D01*
G01*
X249574000Y-68129998D01*
G75*
G02*
X249823998Y-67880000I249998J0D01*
G01*
X250349002Y-67880000D01*
G75*
G02*
X250599000Y-68129998I0J-249998D01*
G01*
G37*
%TD*%
%TO.C,R6*%
G36*
G01*
X243732000Y-53536002D02*
X243732000Y-52635998D01*
G75*
G02*
X243981998Y-52386000I249998J0D01*
G01*
X244507002Y-52386000D01*
G75*
G02*
X244757000Y-52635998I0J-249998D01*
G01*
X244757000Y-53536002D01*
G75*
G02*
X244507002Y-53786000I-249998J0D01*
G01*
X243981998Y-53786000D01*
G75*
G02*
X243732000Y-53536002I0J249998D01*
G01*
G37*
G36*
G01*
X241907000Y-53536002D02*
X241907000Y-52635998D01*
G75*
G02*
X242156998Y-52386000I249998J0D01*
G01*
X242682002Y-52386000D01*
G75*
G02*
X242932000Y-52635998I0J-249998D01*
G01*
X242932000Y-53536002D01*
G75*
G02*
X242682002Y-53786000I-249998J0D01*
G01*
X242156998Y-53786000D01*
G75*
G02*
X241907000Y-53536002I0J249998D01*
G01*
G37*
%TD*%
%TO.C,R5*%
G36*
G01*
X249574000Y-63442002D02*
X249574000Y-62541998D01*
G75*
G02*
X249823998Y-62292000I249998J0D01*
G01*
X250349002Y-62292000D01*
G75*
G02*
X250599000Y-62541998I0J-249998D01*
G01*
X250599000Y-63442002D01*
G75*
G02*
X250349002Y-63692000I-249998J0D01*
G01*
X249823998Y-63692000D01*
G75*
G02*
X249574000Y-63442002I0J249998D01*
G01*
G37*
G36*
G01*
X247749000Y-63442002D02*
X247749000Y-62541998D01*
G75*
G02*
X247998998Y-62292000I249998J0D01*
G01*
X248524002Y-62292000D01*
G75*
G02*
X248774000Y-62541998I0J-249998D01*
G01*
X248774000Y-63442002D01*
G75*
G02*
X248524002Y-63692000I-249998J0D01*
G01*
X247998998Y-63692000D01*
G75*
G02*
X247749000Y-63442002I0J249998D01*
G01*
G37*
%TD*%
%TO.C,R4*%
G36*
G01*
X212032002Y-45066000D02*
X211131998Y-45066000D01*
G75*
G02*
X210882000Y-44816002I0J249998D01*
G01*
X210882000Y-44290998D01*
G75*
G02*
X211131998Y-44041000I249998J0D01*
G01*
X212032002Y-44041000D01*
G75*
G02*
X212282000Y-44290998I0J-249998D01*
G01*
X212282000Y-44816002D01*
G75*
G02*
X212032002Y-45066000I-249998J0D01*
G01*
G37*
G36*
G01*
X212032002Y-46891000D02*
X211131998Y-46891000D01*
G75*
G02*
X210882000Y-46641002I0J249998D01*
G01*
X210882000Y-46115998D01*
G75*
G02*
X211131998Y-45866000I249998J0D01*
G01*
X212032002Y-45866000D01*
G75*
G02*
X212282000Y-46115998I0J-249998D01*
G01*
X212282000Y-46641002D01*
G75*
G02*
X212032002Y-46891000I-249998J0D01*
G01*
G37*
%TD*%
%TO.C,R3*%
G36*
G01*
X208984002Y-45066000D02*
X208083998Y-45066000D01*
G75*
G02*
X207834000Y-44816002I0J249998D01*
G01*
X207834000Y-44290998D01*
G75*
G02*
X208083998Y-44041000I249998J0D01*
G01*
X208984002Y-44041000D01*
G75*
G02*
X209234000Y-44290998I0J-249998D01*
G01*
X209234000Y-44816002D01*
G75*
G02*
X208984002Y-45066000I-249998J0D01*
G01*
G37*
G36*
G01*
X208984002Y-46891000D02*
X208083998Y-46891000D01*
G75*
G02*
X207834000Y-46641002I0J249998D01*
G01*
X207834000Y-46115998D01*
G75*
G02*
X208083998Y-45866000I249998J0D01*
G01*
X208984002Y-45866000D01*
G75*
G02*
X209234000Y-46115998I0J-249998D01*
G01*
X209234000Y-46641002D01*
G75*
G02*
X208984002Y-46891000I-249998J0D01*
G01*
G37*
%TD*%
%TO.C,R2*%
G36*
G01*
X205936002Y-45066000D02*
X205035998Y-45066000D01*
G75*
G02*
X204786000Y-44816002I0J249998D01*
G01*
X204786000Y-44290998D01*
G75*
G02*
X205035998Y-44041000I249998J0D01*
G01*
X205936002Y-44041000D01*
G75*
G02*
X206186000Y-44290998I0J-249998D01*
G01*
X206186000Y-44816002D01*
G75*
G02*
X205936002Y-45066000I-249998J0D01*
G01*
G37*
G36*
G01*
X205936002Y-46891000D02*
X205035998Y-46891000D01*
G75*
G02*
X204786000Y-46641002I0J249998D01*
G01*
X204786000Y-46115998D01*
G75*
G02*
X205035998Y-45866000I249998J0D01*
G01*
X205936002Y-45866000D01*
G75*
G02*
X206186000Y-46115998I0J-249998D01*
G01*
X206186000Y-46641002D01*
G75*
G02*
X205936002Y-46891000I-249998J0D01*
G01*
G37*
%TD*%
%TO.C,R1*%
G36*
G01*
X220364000Y-53536002D02*
X220364000Y-52635998D01*
G75*
G02*
X220613998Y-52386000I249998J0D01*
G01*
X221139002Y-52386000D01*
G75*
G02*
X221389000Y-52635998I0J-249998D01*
G01*
X221389000Y-53536002D01*
G75*
G02*
X221139002Y-53786000I-249998J0D01*
G01*
X220613998Y-53786000D01*
G75*
G02*
X220364000Y-53536002I0J249998D01*
G01*
G37*
G36*
G01*
X218539000Y-53536002D02*
X218539000Y-52635998D01*
G75*
G02*
X218788998Y-52386000I249998J0D01*
G01*
X219314002Y-52386000D01*
G75*
G02*
X219564000Y-52635998I0J-249998D01*
G01*
X219564000Y-53536002D01*
G75*
G02*
X219314002Y-53786000I-249998J0D01*
G01*
X218788998Y-53786000D01*
G75*
G02*
X218539000Y-53536002I0J249998D01*
G01*
G37*
%TD*%
D15*
%TO.C,J2*%
X233934000Y-68580000D03*
X231394000Y-68580000D03*
X228854000Y-68580000D03*
X226314000Y-68580000D03*
X223774000Y-68580000D03*
X221234000Y-68580000D03*
X218694000Y-68580000D03*
X216154000Y-68580000D03*
D16*
X213614000Y-68580000D03*
%TD*%
D15*
%TO.C,J1*%
X234950000Y-36068000D03*
X232410000Y-36068000D03*
X229870000Y-36068000D03*
D16*
X227330000Y-36068000D03*
%TD*%
%TO.C,C5*%
G36*
G01*
X219686000Y-37576000D02*
X219686000Y-35576000D01*
G75*
G02*
X219936000Y-35326000I250000J0D01*
G01*
X222936000Y-35326000D01*
G75*
G02*
X223186000Y-35576000I0J-250000D01*
G01*
X223186000Y-37576000D01*
G75*
G02*
X222936000Y-37826000I-250000J0D01*
G01*
X219936000Y-37826000D01*
G75*
G02*
X219686000Y-37576000I0J250000D01*
G01*
G37*
G36*
G01*
X213186000Y-37576000D02*
X213186000Y-35576000D01*
G75*
G02*
X213436000Y-35326000I250000J0D01*
G01*
X216436000Y-35326000D01*
G75*
G02*
X216686000Y-35576000I0J-250000D01*
G01*
X216686000Y-37576000D01*
G75*
G02*
X216436000Y-37826000I-250000J0D01*
G01*
X213436000Y-37826000D01*
G75*
G02*
X213186000Y-37576000I0J250000D01*
G01*
G37*
%TD*%
%TO.C,C3*%
G36*
G01*
X194368000Y-54135000D02*
X194368000Y-55085000D01*
G75*
G02*
X194118000Y-55335000I-250000J0D01*
G01*
X193618000Y-55335000D01*
G75*
G02*
X193368000Y-55085000I0J250000D01*
G01*
X193368000Y-54135000D01*
G75*
G02*
X193618000Y-53885000I250000J0D01*
G01*
X194118000Y-53885000D01*
G75*
G02*
X194368000Y-54135000I0J-250000D01*
G01*
G37*
G36*
G01*
X196268000Y-54135000D02*
X196268000Y-55085000D01*
G75*
G02*
X196018000Y-55335000I-250000J0D01*
G01*
X195518000Y-55335000D01*
G75*
G02*
X195268000Y-55085000I0J250000D01*
G01*
X195268000Y-54135000D01*
G75*
G02*
X195518000Y-53885000I250000J0D01*
G01*
X196018000Y-53885000D01*
G75*
G02*
X196268000Y-54135000I0J-250000D01*
G01*
G37*
%TD*%
%TO.C,C2*%
G36*
G01*
X227642000Y-53881000D02*
X227642000Y-54831000D01*
G75*
G02*
X227392000Y-55081000I-250000J0D01*
G01*
X226892000Y-55081000D01*
G75*
G02*
X226642000Y-54831000I0J250000D01*
G01*
X226642000Y-53881000D01*
G75*
G02*
X226892000Y-53631000I250000J0D01*
G01*
X227392000Y-53631000D01*
G75*
G02*
X227642000Y-53881000I0J-250000D01*
G01*
G37*
G36*
G01*
X229542000Y-53881000D02*
X229542000Y-54831000D01*
G75*
G02*
X229292000Y-55081000I-250000J0D01*
G01*
X228792000Y-55081000D01*
G75*
G02*
X228542000Y-54831000I0J250000D01*
G01*
X228542000Y-53881000D01*
G75*
G02*
X228792000Y-53631000I250000J0D01*
G01*
X229292000Y-53631000D01*
G75*
G02*
X229542000Y-53881000I0J-250000D01*
G01*
G37*
%TD*%
%TO.C,C1*%
G36*
G01*
X180652000Y-54135000D02*
X180652000Y-55085000D01*
G75*
G02*
X180402000Y-55335000I-250000J0D01*
G01*
X179902000Y-55335000D01*
G75*
G02*
X179652000Y-55085000I0J250000D01*
G01*
X179652000Y-54135000D01*
G75*
G02*
X179902000Y-53885000I250000J0D01*
G01*
X180402000Y-53885000D01*
G75*
G02*
X180652000Y-54135000I0J-250000D01*
G01*
G37*
G36*
G01*
X182552000Y-54135000D02*
X182552000Y-55085000D01*
G75*
G02*
X182302000Y-55335000I-250000J0D01*
G01*
X181802000Y-55335000D01*
G75*
G02*
X181552000Y-55085000I0J250000D01*
G01*
X181552000Y-54135000D01*
G75*
G02*
X181802000Y-53885000I250000J0D01*
G01*
X182302000Y-53885000D01*
G75*
G02*
X182552000Y-54135000I0J-250000D01*
G01*
G37*
%TD*%
D12*
%TO.C,U1*%
X181356000Y-49530000D03*
D11*
X196596000Y-41910000D03*
X196596000Y-49530000D03*
X181356000Y-41910000D03*
%TD*%
D13*
%TO.C,U7*%
X268384000Y-56132000D03*
X253144000Y-56132000D03*
X263304000Y-35812000D03*
X260764000Y-35812000D03*
X258224000Y-35812000D03*
%TD*%
M02*
