M48
; DRILL file {KiCad (5.1.10-1-10_14)} date Monday, November 29, 2021 at 12:45:20 AM
; FORMAT={-:-/ absolute / inch / decimal}
; #@! TF.CreationDate,2021-11-29T00:45:20-05:00
; #@! TF.GenerationSoftware,Kicad,Pcbnew,(5.1.10-1-10_14)
; #@! TF.FileFunction,Plated,1,2,PTH
FMAT,2
INCH
T1C0.0157
T2C0.0433
T3C0.0591
%
G90
G05
T1
X4.9241Y-4.6323
X5.0858Y-4.0472
X5.3783Y-4.6992
X5.4303Y-3.0504
X5.4394Y-3.1299
X5.4563Y-4.4772
X5.4642Y-3.5489
X5.5213Y-2.9862
X5.528Y-3.0417
X5.5295Y-3.1024
X5.5377Y-2.92
X5.6157Y-4.1429
X5.6927Y-3.2179
X5.7118Y-3.0899
X5.7141Y-2.5615
X5.7291Y-4.1925
X5.7515Y-2.879
X5.8217Y-3.924
X5.8283Y-2.939
X5.8354Y-3.1799
X5.8386Y-3.4154
X5.8821Y-2.9852
X5.8925Y-3.587
X5.898Y-2.152
X5.8988Y-1.9055
X5.9071Y-3.1898
X5.9488Y-2.4142
X5.9547Y-2.8787
X5.9738Y-4.1669
X5.9819Y-4.7996
X5.9835Y-3.7953
X5.9894Y-3.6665
X6.0094Y-3.8862
X6.0472Y-3.6665
X6.0535Y-2.8689
X6.0886Y-3.4665
X6.0894Y-2.5366
X6.0921Y-3.4177
X6.0929Y-3.522
X6.0937Y-3.2657
X6.1146Y-3.1319
X6.1823Y-4.5114
X6.2482Y-3.0707
X6.2873Y-3.2536
X6.3402Y-3.6201
X6.3416Y-3.9686
X6.4299Y-4.7673
X6.465Y-3.3717
X6.5173Y-4.0937
X6.5731Y-4.6336
X6.6535Y-4.2445
X6.8141Y-4.6489
T2
X5.7846Y-5.0559
X5.7846Y-5.2331
X6.0406Y-5.0559
X6.0406Y-5.2331
T3
X5.3461Y-4.2717
X6.1528Y-4.2717
T0
M30
