%TF.GenerationSoftware,KiCad,Pcbnew,(5.1.9-0-10_14)*%
%TF.CreationDate,2021-04-21T15:02:01-04:00*%
%TF.ProjectId,MAR,4d41522e-6b69-4636-9164-5f7063625858,rev?*%
%TF.SameCoordinates,Original*%
%TF.FileFunction,Copper,L2,Bot*%
%TF.FilePolarity,Positive*%
%FSLAX46Y46*%
G04 Gerber Fmt 4.6, Leading zero omitted, Abs format (unit mm)*
G04 Created by KiCad (PCBNEW (5.1.9-0-10_14)) date 2021-04-21 15:02:01*
%MOMM*%
%LPD*%
G01*
G04 APERTURE LIST*
%TA.AperFunction,ComponentPad*%
%ADD10O,1.600000X1.600000*%
%TD*%
%TA.AperFunction,ComponentPad*%
%ADD11R,1.600000X1.600000*%
%TD*%
%TA.AperFunction,ComponentPad*%
%ADD12C,1.600000*%
%TD*%
%TA.AperFunction,ComponentPad*%
%ADD13O,1.700000X1.700000*%
%TD*%
%TA.AperFunction,ComponentPad*%
%ADD14R,1.700000X1.700000*%
%TD*%
%TA.AperFunction,Conductor*%
%ADD15C,0.600000*%
%TD*%
%TA.AperFunction,Conductor*%
%ADD16C,0.250000*%
%TD*%
%TA.AperFunction,Conductor*%
%ADD17C,0.254000*%
%TD*%
%TA.AperFunction,Conductor*%
%ADD18C,0.100000*%
%TD*%
G04 APERTURE END LIST*
D10*
%TO.P,RN1,9*%
%TO.N,/D1*%
X116636800Y-23876000D03*
%TO.P,RN1,8*%
%TO.N,/D2*%
X114096800Y-23876000D03*
%TO.P,RN1,7*%
%TO.N,/D3*%
X111556800Y-23876000D03*
%TO.P,RN1,6*%
%TO.N,/D4*%
X109016800Y-23876000D03*
%TO.P,RN1,5*%
%TO.N,/D5*%
X106476800Y-23876000D03*
%TO.P,RN1,4*%
%TO.N,/D6*%
X103936800Y-23876000D03*
%TO.P,RN1,3*%
%TO.N,/D7*%
X101396800Y-23876000D03*
%TO.P,RN1,2*%
%TO.N,/D8*%
X98856800Y-23876000D03*
D11*
%TO.P,RN1,1*%
%TO.N,GND*%
X96316800Y-23876000D03*
%TD*%
D10*
%TO.P,R1,2*%
%TO.N,GND*%
X81991200Y-37998400D03*
D12*
%TO.P,R1,1*%
%TO.N,/RESET*%
X81991200Y-48158400D03*
%TD*%
D13*
%TO.P,J4,16*%
%TO.N,/Y1*%
X125780800Y-62280800D03*
%TO.P,J4,15*%
%TO.N,/Y2*%
X123240800Y-62280800D03*
%TO.P,J4,14*%
%TO.N,/Y3*%
X120700800Y-62280800D03*
%TO.P,J4,13*%
%TO.N,/Y4*%
X118160800Y-62280800D03*
%TO.P,J4,12*%
%TO.N,/Y5*%
X115620800Y-62280800D03*
%TO.P,J4,11*%
%TO.N,/Y6*%
X113080800Y-62280800D03*
%TO.P,J4,10*%
%TO.N,/Y7*%
X110540800Y-62280800D03*
%TO.P,J4,9*%
%TO.N,/Y8*%
X108000800Y-62280800D03*
%TO.P,J4,8*%
%TO.N,/Y9*%
X105460800Y-62280800D03*
%TO.P,J4,7*%
%TO.N,/Y10*%
X102920800Y-62280800D03*
%TO.P,J4,6*%
%TO.N,/Y11*%
X100380800Y-62280800D03*
%TO.P,J4,5*%
%TO.N,/Y12*%
X97840800Y-62280800D03*
%TO.P,J4,4*%
%TO.N,/Y13*%
X95300800Y-62280800D03*
%TO.P,J4,3*%
%TO.N,/Y14*%
X92760800Y-62280800D03*
%TO.P,J4,2*%
%TO.N,/Y15*%
X90220800Y-62280800D03*
D14*
%TO.P,J4,1*%
%TO.N,/Y16*%
X87680800Y-62280800D03*
%TD*%
D10*
%TO.P,U4,16*%
%TO.N,VCC*%
X109626400Y-34239200D03*
%TO.P,U4,8*%
%TO.N,GND*%
X127406400Y-41859200D03*
%TO.P,U4,15*%
%TO.N,/RESET*%
X112166400Y-34239200D03*
%TO.P,U4,7*%
%TO.N,/CLOCK*%
X124866400Y-41859200D03*
%TO.P,U4,14*%
%TO.N,/D4*%
X114706400Y-34239200D03*
%TO.P,U4,6*%
%TO.N,/Y9*%
X122326400Y-41859200D03*
%TO.P,U4,13*%
%TO.N,/D3*%
X117246400Y-34239200D03*
%TO.P,U4,5*%
%TO.N,/Y10*%
X119786400Y-41859200D03*
%TO.P,U4,12*%
%TO.N,/D2*%
X119786400Y-34239200D03*
%TO.P,U4,4*%
%TO.N,/Y11*%
X117246400Y-41859200D03*
%TO.P,U4,11*%
%TO.N,/D1*%
X122326400Y-34239200D03*
%TO.P,U4,3*%
%TO.N,/Y12*%
X114706400Y-41859200D03*
%TO.P,U4,10*%
%TO.N,/MAR2_IN*%
X124866400Y-34239200D03*
%TO.P,U4,2*%
%TO.N,GND*%
X112166400Y-41859200D03*
%TO.P,U4,9*%
%TO.N,/MAR2_IN*%
X127406400Y-34239200D03*
D11*
%TO.P,U4,1*%
%TO.N,GND*%
X109626400Y-41859200D03*
%TD*%
D10*
%TO.P,U3,16*%
%TO.N,VCC*%
X109626400Y-46380400D03*
%TO.P,U3,8*%
%TO.N,GND*%
X127406400Y-54000400D03*
%TO.P,U3,15*%
%TO.N,/RESET*%
X112166400Y-46380400D03*
%TO.P,U3,7*%
%TO.N,/CLOCK*%
X124866400Y-54000400D03*
%TO.P,U3,14*%
%TO.N,/D4*%
X114706400Y-46380400D03*
%TO.P,U3,6*%
%TO.N,/Y1*%
X122326400Y-54000400D03*
%TO.P,U3,13*%
%TO.N,/D3*%
X117246400Y-46380400D03*
%TO.P,U3,5*%
%TO.N,/Y2*%
X119786400Y-54000400D03*
%TO.P,U3,12*%
%TO.N,/D2*%
X119786400Y-46380400D03*
%TO.P,U3,4*%
%TO.N,/Y3*%
X117246400Y-54000400D03*
%TO.P,U3,11*%
%TO.N,/D1*%
X122326400Y-46380400D03*
%TO.P,U3,3*%
%TO.N,/Y4*%
X114706400Y-54000400D03*
%TO.P,U3,10*%
%TO.N,/MAR1_IN*%
X124866400Y-46380400D03*
%TO.P,U3,2*%
%TO.N,GND*%
X112166400Y-54000400D03*
%TO.P,U3,9*%
%TO.N,/MAR1_IN*%
X127406400Y-46380400D03*
D11*
%TO.P,U3,1*%
%TO.N,GND*%
X109626400Y-54000400D03*
%TD*%
D10*
%TO.P,U2,16*%
%TO.N,VCC*%
X86614000Y-34340800D03*
%TO.P,U2,8*%
%TO.N,GND*%
X104394000Y-41960800D03*
%TO.P,U2,15*%
%TO.N,/RESET*%
X89154000Y-34340800D03*
%TO.P,U2,7*%
%TO.N,/CLOCK*%
X101854000Y-41960800D03*
%TO.P,U2,14*%
%TO.N,/D8*%
X91694000Y-34340800D03*
%TO.P,U2,6*%
%TO.N,/Y13*%
X99314000Y-41960800D03*
%TO.P,U2,13*%
%TO.N,/D7*%
X94234000Y-34340800D03*
%TO.P,U2,5*%
%TO.N,/Y14*%
X96774000Y-41960800D03*
%TO.P,U2,12*%
%TO.N,/D6*%
X96774000Y-34340800D03*
%TO.P,U2,4*%
%TO.N,/Y15*%
X94234000Y-41960800D03*
%TO.P,U2,11*%
%TO.N,/D5*%
X99314000Y-34340800D03*
%TO.P,U2,3*%
%TO.N,/Y16*%
X91694000Y-41960800D03*
%TO.P,U2,10*%
%TO.N,/MAR2_IN*%
X101854000Y-34340800D03*
%TO.P,U2,2*%
%TO.N,GND*%
X89154000Y-41960800D03*
%TO.P,U2,9*%
%TO.N,/MAR2_IN*%
X104394000Y-34340800D03*
D11*
%TO.P,U2,1*%
%TO.N,GND*%
X86614000Y-41960800D03*
%TD*%
D10*
%TO.P,U1,16*%
%TO.N,VCC*%
X86614000Y-46431200D03*
%TO.P,U1,8*%
%TO.N,GND*%
X104394000Y-54051200D03*
%TO.P,U1,15*%
%TO.N,/RESET*%
X89154000Y-46431200D03*
%TO.P,U1,7*%
%TO.N,/CLOCK*%
X101854000Y-54051200D03*
%TO.P,U1,14*%
%TO.N,/D8*%
X91694000Y-46431200D03*
%TO.P,U1,6*%
%TO.N,/Y5*%
X99314000Y-54051200D03*
%TO.P,U1,13*%
%TO.N,/D7*%
X94234000Y-46431200D03*
%TO.P,U1,5*%
%TO.N,/Y6*%
X96774000Y-54051200D03*
%TO.P,U1,12*%
%TO.N,/D6*%
X96774000Y-46431200D03*
%TO.P,U1,4*%
%TO.N,/Y7*%
X94234000Y-54051200D03*
%TO.P,U1,11*%
%TO.N,/D5*%
X99314000Y-46431200D03*
%TO.P,U1,3*%
%TO.N,/Y8*%
X91694000Y-54051200D03*
%TO.P,U1,10*%
%TO.N,/MAR1_IN*%
X101854000Y-46431200D03*
%TO.P,U1,2*%
%TO.N,GND*%
X89154000Y-54051200D03*
%TO.P,U1,9*%
%TO.N,/MAR1_IN*%
X104394000Y-46431200D03*
D11*
%TO.P,U1,1*%
%TO.N,GND*%
X86614000Y-54051200D03*
%TD*%
D13*
%TO.P,J3,8*%
%TO.N,/D8*%
X98602800Y-28600400D03*
%TO.P,J3,7*%
%TO.N,/D7*%
X101142800Y-28600400D03*
%TO.P,J3,6*%
%TO.N,/D6*%
X103682800Y-28600400D03*
%TO.P,J3,5*%
%TO.N,/D5*%
X106222800Y-28600400D03*
%TO.P,J3,4*%
%TO.N,/D4*%
X108762800Y-28600400D03*
%TO.P,J3,3*%
%TO.N,/D3*%
X111302800Y-28600400D03*
%TO.P,J3,2*%
%TO.N,/D2*%
X113842800Y-28600400D03*
D14*
%TO.P,J3,1*%
%TO.N,/D1*%
X116382800Y-28600400D03*
%TD*%
D13*
%TO.P,J2,4*%
%TO.N,/MAR2_IN*%
X133553200Y-45262800D03*
%TO.P,J2,3*%
%TO.N,/MAR1_IN*%
X133553200Y-42722800D03*
%TO.P,J2,2*%
%TO.N,/CLOCK*%
X133553200Y-40182800D03*
D14*
%TO.P,J2,1*%
%TO.N,/RESET*%
X133553200Y-37642800D03*
%TD*%
D13*
%TO.P,J1,2*%
%TO.N,GND*%
X133553200Y-33375600D03*
D14*
%TO.P,J1,1*%
%TO.N,VCC*%
X133553200Y-30835600D03*
%TD*%
D12*
%TO.P,C2,2*%
%TO.N,GND*%
X89266400Y-29210000D03*
%TO.P,C2,1*%
%TO.N,VCC*%
X86766400Y-29210000D03*
%TD*%
%TO.P,C1,2*%
%TO.N,GND*%
X127417200Y-29006800D03*
%TO.P,C1,1*%
%TO.N,VCC*%
X124917200Y-29006800D03*
%TD*%
D15*
%TO.N,GND*%
X81991200Y-37998400D02*
X84582000Y-37998400D01*
X86614000Y-40030400D02*
X86614000Y-41960800D01*
X84582000Y-37998400D02*
X86614000Y-40030400D01*
D16*
%TO.N,/RESET*%
X115570000Y-37642800D02*
X112166400Y-34239200D01*
X133553200Y-37642800D02*
X115570000Y-37642800D01*
X112166400Y-34239200D02*
X109677200Y-36728400D01*
X91541600Y-36728400D02*
X89154000Y-34340800D01*
X109677200Y-36728400D02*
X91541600Y-36728400D01*
X89154000Y-46431200D02*
X90779600Y-44805600D01*
X110591600Y-44805600D02*
X112166400Y-46380400D01*
X90779600Y-44805600D02*
X110591600Y-44805600D01*
X112166400Y-34239200D02*
X112166400Y-38506400D01*
X111041399Y-39631401D02*
X111041399Y-43121799D01*
X112166400Y-38506400D02*
X111041399Y-39631401D01*
X112166400Y-44246800D02*
X112166400Y-46380400D01*
X111041399Y-43121799D02*
X112166400Y-44246800D01*
X89154000Y-34340800D02*
X89154000Y-38760400D01*
X88028999Y-39885401D02*
X88028999Y-43070999D01*
X89154000Y-38760400D02*
X88028999Y-39885401D01*
X89154000Y-44196000D02*
X89154000Y-46431200D01*
X88028999Y-43070999D02*
X89154000Y-44196000D01*
%TO.N,/CLOCK*%
X126542800Y-40182800D02*
X124866400Y-41859200D01*
X133553200Y-40182800D02*
X126542800Y-40182800D01*
X124866400Y-54000400D02*
X123240800Y-55626000D01*
X103428800Y-55626000D02*
X101854000Y-54051200D01*
X123240800Y-55626000D02*
X103428800Y-55626000D01*
X126136400Y-43129200D02*
X126136400Y-52730400D01*
X126136400Y-52730400D02*
X124866400Y-54000400D01*
X124866400Y-41859200D02*
X126136400Y-43129200D01*
%TO.N,/D5*%
X106476800Y-28346400D02*
X106222800Y-28600400D01*
X106476800Y-23876000D02*
X106476800Y-28346400D01*
%TO.N,/D6*%
X103682800Y-24130000D02*
X103936800Y-23876000D01*
X103682800Y-28600400D02*
X103682800Y-24130000D01*
%TO.N,/D7*%
X101396800Y-28346400D02*
X101142800Y-28600400D01*
X101396800Y-23876000D02*
X101396800Y-28346400D01*
%TO.N,/D8*%
X98602800Y-24130000D02*
X98856800Y-23876000D01*
X98602800Y-28600400D02*
X98602800Y-24130000D01*
%TO.N,/Y5*%
X115620800Y-62280800D02*
X110388400Y-57048400D01*
X102311200Y-57048400D02*
X99314000Y-54051200D01*
X110388400Y-57048400D02*
X102311200Y-57048400D01*
%TO.N,/Y6*%
X96774000Y-54051200D02*
X100634800Y-57912000D01*
X108712000Y-57912000D02*
X113080800Y-62280800D01*
X100634800Y-57912000D02*
X108712000Y-57912000D01*
%TO.N,/Y7*%
X94234000Y-54051200D02*
X98907600Y-58724800D01*
X106984800Y-58724800D02*
X110540800Y-62280800D01*
X98907600Y-58724800D02*
X106984800Y-58724800D01*
%TO.N,/Y8*%
X91694000Y-54051200D02*
X97231200Y-59588400D01*
X105308400Y-59588400D02*
X108000800Y-62280800D01*
X97231200Y-59588400D02*
X105308400Y-59588400D01*
%TO.N,/D1*%
X116636800Y-28346400D02*
X116382800Y-28600400D01*
X116636800Y-23876000D02*
X116636800Y-28346400D01*
%TO.N,/D2*%
X113842800Y-24130000D02*
X114096800Y-23876000D01*
X113842800Y-28600400D02*
X113842800Y-24130000D01*
%TO.N,/D3*%
X111556800Y-28346400D02*
X111302800Y-28600400D01*
X111556800Y-23876000D02*
X111556800Y-28346400D01*
%TO.N,/D4*%
X108762800Y-24130000D02*
X109016800Y-23876000D01*
X108762800Y-28600400D02*
X108762800Y-24130000D01*
%TO.N,/MAR2_IN*%
X133553200Y-45262800D02*
X135636000Y-43180000D01*
X135636000Y-43180000D02*
X135636000Y-36474400D01*
X135636000Y-36474400D02*
X134670800Y-35509200D01*
X128676400Y-35509200D02*
X127406400Y-34239200D01*
X134670800Y-35509200D02*
X128676400Y-35509200D01*
X124866400Y-34239200D02*
X127406400Y-34239200D01*
X124866400Y-34239200D02*
X123291600Y-32664400D01*
X106070400Y-32664400D02*
X104394000Y-34340800D01*
X123291600Y-32664400D02*
X106070400Y-32664400D01*
X101854000Y-34340800D02*
X104394000Y-34340800D01*
%TO.N,/MAR1_IN*%
X124866400Y-46380400D02*
X122478800Y-48768000D01*
X106730800Y-48768000D02*
X104394000Y-46431200D01*
X122478800Y-48768000D02*
X106730800Y-48768000D01*
X101854000Y-46431200D02*
X104394000Y-46431200D01*
%TD*%
D17*
%TO.N,GND*%
X136754001Y-67513600D02*
X79654000Y-67513600D01*
X79654000Y-64407321D01*
X80415000Y-64407321D01*
X80415000Y-64827879D01*
X80497047Y-65240356D01*
X80657988Y-65628902D01*
X80891637Y-65978583D01*
X81189017Y-66275963D01*
X81538698Y-66509612D01*
X81927244Y-66670553D01*
X82339721Y-66752600D01*
X82760279Y-66752600D01*
X83172756Y-66670553D01*
X83561302Y-66509612D01*
X83910983Y-66275963D01*
X84208363Y-65978583D01*
X84442012Y-65628902D01*
X84602953Y-65240356D01*
X84685000Y-64827879D01*
X84685000Y-64407321D01*
X84624372Y-64102521D01*
X131672200Y-64102521D01*
X131672200Y-64523079D01*
X131754247Y-64935556D01*
X131915188Y-65324102D01*
X132148837Y-65673783D01*
X132446217Y-65971163D01*
X132795898Y-66204812D01*
X133184444Y-66365753D01*
X133596921Y-66447800D01*
X134017479Y-66447800D01*
X134429956Y-66365753D01*
X134818502Y-66204812D01*
X135168183Y-65971163D01*
X135465563Y-65673783D01*
X135699212Y-65324102D01*
X135860153Y-64935556D01*
X135942200Y-64523079D01*
X135942200Y-64102521D01*
X135860153Y-63690044D01*
X135699212Y-63301498D01*
X135465563Y-62951817D01*
X135168183Y-62654437D01*
X134818502Y-62420788D01*
X134429956Y-62259847D01*
X134017479Y-62177800D01*
X133596921Y-62177800D01*
X133184444Y-62259847D01*
X132795898Y-62420788D01*
X132446217Y-62654437D01*
X132148837Y-62951817D01*
X131915188Y-63301498D01*
X131754247Y-63690044D01*
X131672200Y-64102521D01*
X84624372Y-64102521D01*
X84602953Y-63994844D01*
X84442012Y-63606298D01*
X84208363Y-63256617D01*
X83910983Y-62959237D01*
X83561302Y-62725588D01*
X83172756Y-62564647D01*
X82760279Y-62482600D01*
X82339721Y-62482600D01*
X81927244Y-62564647D01*
X81538698Y-62725588D01*
X81189017Y-62959237D01*
X80891637Y-63256617D01*
X80657988Y-63606298D01*
X80497047Y-63994844D01*
X80415000Y-64407321D01*
X79654000Y-64407321D01*
X79654000Y-54851200D01*
X85175928Y-54851200D01*
X85188188Y-54975682D01*
X85224498Y-55095380D01*
X85283463Y-55205694D01*
X85362815Y-55302385D01*
X85459506Y-55381737D01*
X85569820Y-55440702D01*
X85689518Y-55477012D01*
X85814000Y-55489272D01*
X86328250Y-55486200D01*
X86487000Y-55327450D01*
X86487000Y-54178200D01*
X86741000Y-54178200D01*
X86741000Y-55327450D01*
X86899750Y-55486200D01*
X87414000Y-55489272D01*
X87538482Y-55477012D01*
X87658180Y-55440702D01*
X87768494Y-55381737D01*
X87865185Y-55302385D01*
X87944537Y-55205694D01*
X88003502Y-55095380D01*
X88039812Y-54975682D01*
X88042231Y-54951120D01*
X88190586Y-55114719D01*
X88416580Y-55282237D01*
X88670913Y-55402446D01*
X88804961Y-55443104D01*
X89027000Y-55321115D01*
X89027000Y-54178200D01*
X86741000Y-54178200D01*
X86487000Y-54178200D01*
X85337750Y-54178200D01*
X85179000Y-54336950D01*
X85175928Y-54851200D01*
X79654000Y-54851200D01*
X79654000Y-53251200D01*
X85175928Y-53251200D01*
X85179000Y-53765450D01*
X85337750Y-53924200D01*
X86487000Y-53924200D01*
X86487000Y-52774950D01*
X86741000Y-52774950D01*
X86741000Y-53924200D01*
X89027000Y-53924200D01*
X89027000Y-52781285D01*
X88804961Y-52659296D01*
X88670913Y-52699954D01*
X88416580Y-52820163D01*
X88190586Y-52987681D01*
X88042231Y-53151280D01*
X88039812Y-53126718D01*
X88003502Y-53007020D01*
X87944537Y-52896706D01*
X87865185Y-52800015D01*
X87768494Y-52720663D01*
X87658180Y-52661698D01*
X87538482Y-52625388D01*
X87414000Y-52613128D01*
X86899750Y-52616200D01*
X86741000Y-52774950D01*
X86487000Y-52774950D01*
X86328250Y-52616200D01*
X85814000Y-52613128D01*
X85689518Y-52625388D01*
X85569820Y-52661698D01*
X85459506Y-52720663D01*
X85362815Y-52800015D01*
X85283463Y-52896706D01*
X85224498Y-53007020D01*
X85188188Y-53126718D01*
X85175928Y-53251200D01*
X79654000Y-53251200D01*
X79654000Y-48017065D01*
X80556200Y-48017065D01*
X80556200Y-48299735D01*
X80611347Y-48576974D01*
X80719520Y-48838127D01*
X80876563Y-49073159D01*
X81076441Y-49273037D01*
X81311473Y-49430080D01*
X81572626Y-49538253D01*
X81849865Y-49593400D01*
X82132535Y-49593400D01*
X82409774Y-49538253D01*
X82670927Y-49430080D01*
X82905959Y-49273037D01*
X83105837Y-49073159D01*
X83262880Y-48838127D01*
X83371053Y-48576974D01*
X83426200Y-48299735D01*
X83426200Y-48017065D01*
X83371053Y-47739826D01*
X83262880Y-47478673D01*
X83105837Y-47243641D01*
X82905959Y-47043763D01*
X82670927Y-46886720D01*
X82409774Y-46778547D01*
X82132535Y-46723400D01*
X81849865Y-46723400D01*
X81572626Y-46778547D01*
X81311473Y-46886720D01*
X81076441Y-47043763D01*
X80876563Y-47243641D01*
X80719520Y-47478673D01*
X80611347Y-47739826D01*
X80556200Y-48017065D01*
X79654000Y-48017065D01*
X79654000Y-42760800D01*
X85175928Y-42760800D01*
X85188188Y-42885282D01*
X85224498Y-43004980D01*
X85283463Y-43115294D01*
X85362815Y-43211985D01*
X85459506Y-43291337D01*
X85569820Y-43350302D01*
X85689518Y-43386612D01*
X85814000Y-43398872D01*
X86328250Y-43395800D01*
X86487000Y-43237050D01*
X86487000Y-42087800D01*
X85337750Y-42087800D01*
X85179000Y-42246550D01*
X85175928Y-42760800D01*
X79654000Y-42760800D01*
X79654000Y-41160800D01*
X85175928Y-41160800D01*
X85179000Y-41675050D01*
X85337750Y-41833800D01*
X86487000Y-41833800D01*
X86487000Y-40684550D01*
X86328250Y-40525800D01*
X85814000Y-40522728D01*
X85689518Y-40534988D01*
X85569820Y-40571298D01*
X85459506Y-40630263D01*
X85362815Y-40709615D01*
X85283463Y-40806306D01*
X85224498Y-40916620D01*
X85188188Y-41036318D01*
X85175928Y-41160800D01*
X79654000Y-41160800D01*
X79654000Y-38347440D01*
X80599291Y-38347440D01*
X80694130Y-38612281D01*
X80838815Y-38853531D01*
X81027786Y-39061919D01*
X81253780Y-39229437D01*
X81508113Y-39349646D01*
X81642161Y-39390304D01*
X81864200Y-39268315D01*
X81864200Y-38125400D01*
X82118200Y-38125400D01*
X82118200Y-39268315D01*
X82340239Y-39390304D01*
X82474287Y-39349646D01*
X82728620Y-39229437D01*
X82954614Y-39061919D01*
X83143585Y-38853531D01*
X83288270Y-38612281D01*
X83383109Y-38347440D01*
X83261824Y-38125400D01*
X82118200Y-38125400D01*
X81864200Y-38125400D01*
X80720576Y-38125400D01*
X80599291Y-38347440D01*
X79654000Y-38347440D01*
X79654000Y-37649360D01*
X80599291Y-37649360D01*
X80720576Y-37871400D01*
X81864200Y-37871400D01*
X81864200Y-36728485D01*
X82118200Y-36728485D01*
X82118200Y-37871400D01*
X83261824Y-37871400D01*
X83383109Y-37649360D01*
X83288270Y-37384519D01*
X83143585Y-37143269D01*
X82954614Y-36934881D01*
X82728620Y-36767363D01*
X82474287Y-36647154D01*
X82340239Y-36606496D01*
X82118200Y-36728485D01*
X81864200Y-36728485D01*
X81642161Y-36606496D01*
X81508113Y-36647154D01*
X81253780Y-36767363D01*
X81027786Y-36934881D01*
X80838815Y-37143269D01*
X80694130Y-37384519D01*
X80599291Y-37649360D01*
X79654000Y-37649360D01*
X79654000Y-34199465D01*
X85179000Y-34199465D01*
X85179000Y-34482135D01*
X85234147Y-34759374D01*
X85342320Y-35020527D01*
X85499363Y-35255559D01*
X85699241Y-35455437D01*
X85934273Y-35612480D01*
X86195426Y-35720653D01*
X86472665Y-35775800D01*
X86755335Y-35775800D01*
X87032574Y-35720653D01*
X87293727Y-35612480D01*
X87528759Y-35455437D01*
X87728637Y-35255559D01*
X87884000Y-35023041D01*
X88039363Y-35255559D01*
X88239241Y-35455437D01*
X88394000Y-35558844D01*
X88394001Y-38445597D01*
X87518001Y-39321597D01*
X87488998Y-39345400D01*
X87452147Y-39390304D01*
X87394025Y-39461125D01*
X87382645Y-39482416D01*
X87323453Y-39593155D01*
X87279996Y-39736416D01*
X87268999Y-39848069D01*
X87268999Y-39848079D01*
X87265323Y-39885401D01*
X87268999Y-39922724D01*
X87268999Y-40523594D01*
X86899750Y-40525800D01*
X86741000Y-40684550D01*
X86741000Y-41833800D01*
X86761000Y-41833800D01*
X86761000Y-42087800D01*
X86741000Y-42087800D01*
X86741000Y-43237050D01*
X86899750Y-43395800D01*
X87342267Y-43398443D01*
X87394025Y-43495275D01*
X87435716Y-43546075D01*
X87488999Y-43611000D01*
X87517997Y-43634798D01*
X88394000Y-44510802D01*
X88394000Y-45213156D01*
X88239241Y-45316563D01*
X88039363Y-45516441D01*
X87884000Y-45748959D01*
X87728637Y-45516441D01*
X87528759Y-45316563D01*
X87293727Y-45159520D01*
X87032574Y-45051347D01*
X86755335Y-44996200D01*
X86472665Y-44996200D01*
X86195426Y-45051347D01*
X85934273Y-45159520D01*
X85699241Y-45316563D01*
X85499363Y-45516441D01*
X85342320Y-45751473D01*
X85234147Y-46012626D01*
X85179000Y-46289865D01*
X85179000Y-46572535D01*
X85234147Y-46849774D01*
X85342320Y-47110927D01*
X85499363Y-47345959D01*
X85699241Y-47545837D01*
X85934273Y-47702880D01*
X86195426Y-47811053D01*
X86472665Y-47866200D01*
X86755335Y-47866200D01*
X87032574Y-47811053D01*
X87293727Y-47702880D01*
X87528759Y-47545837D01*
X87728637Y-47345959D01*
X87884000Y-47113441D01*
X88039363Y-47345959D01*
X88239241Y-47545837D01*
X88474273Y-47702880D01*
X88735426Y-47811053D01*
X89012665Y-47866200D01*
X89295335Y-47866200D01*
X89572574Y-47811053D01*
X89833727Y-47702880D01*
X90068759Y-47545837D01*
X90268637Y-47345959D01*
X90424000Y-47113441D01*
X90579363Y-47345959D01*
X90779241Y-47545837D01*
X91014273Y-47702880D01*
X91275426Y-47811053D01*
X91552665Y-47866200D01*
X91835335Y-47866200D01*
X92112574Y-47811053D01*
X92373727Y-47702880D01*
X92608759Y-47545837D01*
X92808637Y-47345959D01*
X92964000Y-47113441D01*
X93119363Y-47345959D01*
X93319241Y-47545837D01*
X93554273Y-47702880D01*
X93815426Y-47811053D01*
X94092665Y-47866200D01*
X94375335Y-47866200D01*
X94652574Y-47811053D01*
X94913727Y-47702880D01*
X95148759Y-47545837D01*
X95348637Y-47345959D01*
X95504000Y-47113441D01*
X95659363Y-47345959D01*
X95859241Y-47545837D01*
X96094273Y-47702880D01*
X96355426Y-47811053D01*
X96632665Y-47866200D01*
X96915335Y-47866200D01*
X97192574Y-47811053D01*
X97453727Y-47702880D01*
X97688759Y-47545837D01*
X97888637Y-47345959D01*
X98044000Y-47113441D01*
X98199363Y-47345959D01*
X98399241Y-47545837D01*
X98634273Y-47702880D01*
X98895426Y-47811053D01*
X99172665Y-47866200D01*
X99455335Y-47866200D01*
X99732574Y-47811053D01*
X99993727Y-47702880D01*
X100228759Y-47545837D01*
X100428637Y-47345959D01*
X100584000Y-47113441D01*
X100739363Y-47345959D01*
X100939241Y-47545837D01*
X101174273Y-47702880D01*
X101435426Y-47811053D01*
X101712665Y-47866200D01*
X101995335Y-47866200D01*
X102272574Y-47811053D01*
X102533727Y-47702880D01*
X102768759Y-47545837D01*
X102968637Y-47345959D01*
X103072043Y-47191200D01*
X103175957Y-47191200D01*
X103279363Y-47345959D01*
X103479241Y-47545837D01*
X103714273Y-47702880D01*
X103975426Y-47811053D01*
X104252665Y-47866200D01*
X104535335Y-47866200D01*
X104717886Y-47829888D01*
X106167001Y-49279003D01*
X106190799Y-49308001D01*
X106306524Y-49402974D01*
X106438553Y-49473546D01*
X106581814Y-49517003D01*
X106693467Y-49528000D01*
X106693476Y-49528000D01*
X106730799Y-49531676D01*
X106768122Y-49528000D01*
X122441478Y-49528000D01*
X122478800Y-49531676D01*
X122516122Y-49528000D01*
X122516133Y-49528000D01*
X122627786Y-49517003D01*
X122771047Y-49473546D01*
X122903076Y-49402974D01*
X123018801Y-49308001D01*
X123042604Y-49278997D01*
X124542514Y-47779088D01*
X124725065Y-47815400D01*
X125007735Y-47815400D01*
X125284974Y-47760253D01*
X125376400Y-47722383D01*
X125376401Y-52415597D01*
X125190286Y-52601712D01*
X125007735Y-52565400D01*
X124725065Y-52565400D01*
X124447826Y-52620547D01*
X124186673Y-52728720D01*
X123951641Y-52885763D01*
X123751763Y-53085641D01*
X123596400Y-53318159D01*
X123441037Y-53085641D01*
X123241159Y-52885763D01*
X123006127Y-52728720D01*
X122744974Y-52620547D01*
X122467735Y-52565400D01*
X122185065Y-52565400D01*
X121907826Y-52620547D01*
X121646673Y-52728720D01*
X121411641Y-52885763D01*
X121211763Y-53085641D01*
X121056400Y-53318159D01*
X120901037Y-53085641D01*
X120701159Y-52885763D01*
X120466127Y-52728720D01*
X120204974Y-52620547D01*
X119927735Y-52565400D01*
X119645065Y-52565400D01*
X119367826Y-52620547D01*
X119106673Y-52728720D01*
X118871641Y-52885763D01*
X118671763Y-53085641D01*
X118516400Y-53318159D01*
X118361037Y-53085641D01*
X118161159Y-52885763D01*
X117926127Y-52728720D01*
X117664974Y-52620547D01*
X117387735Y-52565400D01*
X117105065Y-52565400D01*
X116827826Y-52620547D01*
X116566673Y-52728720D01*
X116331641Y-52885763D01*
X116131763Y-53085641D01*
X115976400Y-53318159D01*
X115821037Y-53085641D01*
X115621159Y-52885763D01*
X115386127Y-52728720D01*
X115124974Y-52620547D01*
X114847735Y-52565400D01*
X114565065Y-52565400D01*
X114287826Y-52620547D01*
X114026673Y-52728720D01*
X113791641Y-52885763D01*
X113591763Y-53085641D01*
X113434720Y-53320673D01*
X113430333Y-53331265D01*
X113318785Y-53145269D01*
X113129814Y-52936881D01*
X112903820Y-52769363D01*
X112649487Y-52649154D01*
X112515439Y-52608496D01*
X112293400Y-52730485D01*
X112293400Y-53873400D01*
X112313400Y-53873400D01*
X112313400Y-54127400D01*
X112293400Y-54127400D01*
X112293400Y-54147400D01*
X112039400Y-54147400D01*
X112039400Y-54127400D01*
X109753400Y-54127400D01*
X109753400Y-54147400D01*
X109499400Y-54147400D01*
X109499400Y-54127400D01*
X108350150Y-54127400D01*
X108191400Y-54286150D01*
X108188328Y-54800400D01*
X108194789Y-54866000D01*
X105570573Y-54866000D01*
X105691070Y-54665081D01*
X105785909Y-54400240D01*
X105664624Y-54178200D01*
X104521000Y-54178200D01*
X104521000Y-54198200D01*
X104267000Y-54198200D01*
X104267000Y-54178200D01*
X104247000Y-54178200D01*
X104247000Y-53924200D01*
X104267000Y-53924200D01*
X104267000Y-52781285D01*
X104521000Y-52781285D01*
X104521000Y-53924200D01*
X105664624Y-53924200D01*
X105785909Y-53702160D01*
X105691070Y-53437319D01*
X105548983Y-53200400D01*
X108188328Y-53200400D01*
X108191400Y-53714650D01*
X108350150Y-53873400D01*
X109499400Y-53873400D01*
X109499400Y-52724150D01*
X109753400Y-52724150D01*
X109753400Y-53873400D01*
X112039400Y-53873400D01*
X112039400Y-52730485D01*
X111817361Y-52608496D01*
X111683313Y-52649154D01*
X111428980Y-52769363D01*
X111202986Y-52936881D01*
X111054631Y-53100480D01*
X111052212Y-53075918D01*
X111015902Y-52956220D01*
X110956937Y-52845906D01*
X110877585Y-52749215D01*
X110780894Y-52669863D01*
X110670580Y-52610898D01*
X110550882Y-52574588D01*
X110426400Y-52562328D01*
X109912150Y-52565400D01*
X109753400Y-52724150D01*
X109499400Y-52724150D01*
X109340650Y-52565400D01*
X108826400Y-52562328D01*
X108701918Y-52574588D01*
X108582220Y-52610898D01*
X108471906Y-52669863D01*
X108375215Y-52749215D01*
X108295863Y-52845906D01*
X108236898Y-52956220D01*
X108200588Y-53075918D01*
X108188328Y-53200400D01*
X105548983Y-53200400D01*
X105546385Y-53196069D01*
X105357414Y-52987681D01*
X105131420Y-52820163D01*
X104877087Y-52699954D01*
X104743039Y-52659296D01*
X104521000Y-52781285D01*
X104267000Y-52781285D01*
X104044961Y-52659296D01*
X103910913Y-52699954D01*
X103656580Y-52820163D01*
X103430586Y-52987681D01*
X103241615Y-53196069D01*
X103130067Y-53382065D01*
X103125680Y-53371473D01*
X102968637Y-53136441D01*
X102768759Y-52936563D01*
X102533727Y-52779520D01*
X102272574Y-52671347D01*
X101995335Y-52616200D01*
X101712665Y-52616200D01*
X101435426Y-52671347D01*
X101174273Y-52779520D01*
X100939241Y-52936563D01*
X100739363Y-53136441D01*
X100584000Y-53368959D01*
X100428637Y-53136441D01*
X100228759Y-52936563D01*
X99993727Y-52779520D01*
X99732574Y-52671347D01*
X99455335Y-52616200D01*
X99172665Y-52616200D01*
X98895426Y-52671347D01*
X98634273Y-52779520D01*
X98399241Y-52936563D01*
X98199363Y-53136441D01*
X98044000Y-53368959D01*
X97888637Y-53136441D01*
X97688759Y-52936563D01*
X97453727Y-52779520D01*
X97192574Y-52671347D01*
X96915335Y-52616200D01*
X96632665Y-52616200D01*
X96355426Y-52671347D01*
X96094273Y-52779520D01*
X95859241Y-52936563D01*
X95659363Y-53136441D01*
X95504000Y-53368959D01*
X95348637Y-53136441D01*
X95148759Y-52936563D01*
X94913727Y-52779520D01*
X94652574Y-52671347D01*
X94375335Y-52616200D01*
X94092665Y-52616200D01*
X93815426Y-52671347D01*
X93554273Y-52779520D01*
X93319241Y-52936563D01*
X93119363Y-53136441D01*
X92964000Y-53368959D01*
X92808637Y-53136441D01*
X92608759Y-52936563D01*
X92373727Y-52779520D01*
X92112574Y-52671347D01*
X91835335Y-52616200D01*
X91552665Y-52616200D01*
X91275426Y-52671347D01*
X91014273Y-52779520D01*
X90779241Y-52936563D01*
X90579363Y-53136441D01*
X90422320Y-53371473D01*
X90417933Y-53382065D01*
X90306385Y-53196069D01*
X90117414Y-52987681D01*
X89891420Y-52820163D01*
X89637087Y-52699954D01*
X89503039Y-52659296D01*
X89281000Y-52781285D01*
X89281000Y-53924200D01*
X89301000Y-53924200D01*
X89301000Y-54178200D01*
X89281000Y-54178200D01*
X89281000Y-55321115D01*
X89503039Y-55443104D01*
X89637087Y-55402446D01*
X89891420Y-55282237D01*
X90117414Y-55114719D01*
X90306385Y-54906331D01*
X90417933Y-54720335D01*
X90422320Y-54730927D01*
X90579363Y-54965959D01*
X90779241Y-55165837D01*
X91014273Y-55322880D01*
X91275426Y-55431053D01*
X91552665Y-55486200D01*
X91835335Y-55486200D01*
X92017887Y-55449888D01*
X96667400Y-60099402D01*
X96691199Y-60128401D01*
X96806924Y-60223374D01*
X96938953Y-60293946D01*
X97082214Y-60337403D01*
X97193867Y-60348400D01*
X97193876Y-60348400D01*
X97231199Y-60352076D01*
X97268522Y-60348400D01*
X104993599Y-60348400D01*
X105440999Y-60795800D01*
X105314540Y-60795800D01*
X105027642Y-60852868D01*
X104757389Y-60964810D01*
X104514168Y-61127325D01*
X104307325Y-61334168D01*
X104190800Y-61508560D01*
X104074275Y-61334168D01*
X103867432Y-61127325D01*
X103624211Y-60964810D01*
X103353958Y-60852868D01*
X103067060Y-60795800D01*
X102774540Y-60795800D01*
X102487642Y-60852868D01*
X102217389Y-60964810D01*
X101974168Y-61127325D01*
X101767325Y-61334168D01*
X101650800Y-61508560D01*
X101534275Y-61334168D01*
X101327432Y-61127325D01*
X101084211Y-60964810D01*
X100813958Y-60852868D01*
X100527060Y-60795800D01*
X100234540Y-60795800D01*
X99947642Y-60852868D01*
X99677389Y-60964810D01*
X99434168Y-61127325D01*
X99227325Y-61334168D01*
X99110800Y-61508560D01*
X98994275Y-61334168D01*
X98787432Y-61127325D01*
X98544211Y-60964810D01*
X98273958Y-60852868D01*
X97987060Y-60795800D01*
X97694540Y-60795800D01*
X97407642Y-60852868D01*
X97137389Y-60964810D01*
X96894168Y-61127325D01*
X96687325Y-61334168D01*
X96570800Y-61508560D01*
X96454275Y-61334168D01*
X96247432Y-61127325D01*
X96004211Y-60964810D01*
X95733958Y-60852868D01*
X95447060Y-60795800D01*
X95154540Y-60795800D01*
X94867642Y-60852868D01*
X94597389Y-60964810D01*
X94354168Y-61127325D01*
X94147325Y-61334168D01*
X94030800Y-61508560D01*
X93914275Y-61334168D01*
X93707432Y-61127325D01*
X93464211Y-60964810D01*
X93193958Y-60852868D01*
X92907060Y-60795800D01*
X92614540Y-60795800D01*
X92327642Y-60852868D01*
X92057389Y-60964810D01*
X91814168Y-61127325D01*
X91607325Y-61334168D01*
X91490800Y-61508560D01*
X91374275Y-61334168D01*
X91167432Y-61127325D01*
X90924211Y-60964810D01*
X90653958Y-60852868D01*
X90367060Y-60795800D01*
X90074540Y-60795800D01*
X89787642Y-60852868D01*
X89517389Y-60964810D01*
X89274168Y-61127325D01*
X89142313Y-61259180D01*
X89120302Y-61186620D01*
X89061337Y-61076306D01*
X88981985Y-60979615D01*
X88885294Y-60900263D01*
X88774980Y-60841298D01*
X88655282Y-60804988D01*
X88530800Y-60792728D01*
X86830800Y-60792728D01*
X86706318Y-60804988D01*
X86586620Y-60841298D01*
X86476306Y-60900263D01*
X86379615Y-60979615D01*
X86300263Y-61076306D01*
X86241298Y-61186620D01*
X86204988Y-61306318D01*
X86192728Y-61430800D01*
X86192728Y-63130800D01*
X86204988Y-63255282D01*
X86241298Y-63374980D01*
X86300263Y-63485294D01*
X86379615Y-63581985D01*
X86476306Y-63661337D01*
X86586620Y-63720302D01*
X86706318Y-63756612D01*
X86830800Y-63768872D01*
X88530800Y-63768872D01*
X88655282Y-63756612D01*
X88774980Y-63720302D01*
X88885294Y-63661337D01*
X88981985Y-63581985D01*
X89061337Y-63485294D01*
X89120302Y-63374980D01*
X89142313Y-63302420D01*
X89274168Y-63434275D01*
X89517389Y-63596790D01*
X89787642Y-63708732D01*
X90074540Y-63765800D01*
X90367060Y-63765800D01*
X90653958Y-63708732D01*
X90924211Y-63596790D01*
X91167432Y-63434275D01*
X91374275Y-63227432D01*
X91490800Y-63053040D01*
X91607325Y-63227432D01*
X91814168Y-63434275D01*
X92057389Y-63596790D01*
X92327642Y-63708732D01*
X92614540Y-63765800D01*
X92907060Y-63765800D01*
X93193958Y-63708732D01*
X93464211Y-63596790D01*
X93707432Y-63434275D01*
X93914275Y-63227432D01*
X94030800Y-63053040D01*
X94147325Y-63227432D01*
X94354168Y-63434275D01*
X94597389Y-63596790D01*
X94867642Y-63708732D01*
X95154540Y-63765800D01*
X95447060Y-63765800D01*
X95733958Y-63708732D01*
X96004211Y-63596790D01*
X96247432Y-63434275D01*
X96454275Y-63227432D01*
X96570800Y-63053040D01*
X96687325Y-63227432D01*
X96894168Y-63434275D01*
X97137389Y-63596790D01*
X97407642Y-63708732D01*
X97694540Y-63765800D01*
X97987060Y-63765800D01*
X98273958Y-63708732D01*
X98544211Y-63596790D01*
X98787432Y-63434275D01*
X98994275Y-63227432D01*
X99110800Y-63053040D01*
X99227325Y-63227432D01*
X99434168Y-63434275D01*
X99677389Y-63596790D01*
X99947642Y-63708732D01*
X100234540Y-63765800D01*
X100527060Y-63765800D01*
X100813958Y-63708732D01*
X101084211Y-63596790D01*
X101327432Y-63434275D01*
X101534275Y-63227432D01*
X101650800Y-63053040D01*
X101767325Y-63227432D01*
X101974168Y-63434275D01*
X102217389Y-63596790D01*
X102487642Y-63708732D01*
X102774540Y-63765800D01*
X103067060Y-63765800D01*
X103353958Y-63708732D01*
X103624211Y-63596790D01*
X103867432Y-63434275D01*
X104074275Y-63227432D01*
X104190800Y-63053040D01*
X104307325Y-63227432D01*
X104514168Y-63434275D01*
X104757389Y-63596790D01*
X105027642Y-63708732D01*
X105314540Y-63765800D01*
X105607060Y-63765800D01*
X105893958Y-63708732D01*
X106164211Y-63596790D01*
X106407432Y-63434275D01*
X106614275Y-63227432D01*
X106730800Y-63053040D01*
X106847325Y-63227432D01*
X107054168Y-63434275D01*
X107297389Y-63596790D01*
X107567642Y-63708732D01*
X107854540Y-63765800D01*
X108147060Y-63765800D01*
X108433958Y-63708732D01*
X108704211Y-63596790D01*
X108947432Y-63434275D01*
X109154275Y-63227432D01*
X109270800Y-63053040D01*
X109387325Y-63227432D01*
X109594168Y-63434275D01*
X109837389Y-63596790D01*
X110107642Y-63708732D01*
X110394540Y-63765800D01*
X110687060Y-63765800D01*
X110973958Y-63708732D01*
X111244211Y-63596790D01*
X111487432Y-63434275D01*
X111694275Y-63227432D01*
X111810800Y-63053040D01*
X111927325Y-63227432D01*
X112134168Y-63434275D01*
X112377389Y-63596790D01*
X112647642Y-63708732D01*
X112934540Y-63765800D01*
X113227060Y-63765800D01*
X113513958Y-63708732D01*
X113784211Y-63596790D01*
X114027432Y-63434275D01*
X114234275Y-63227432D01*
X114350800Y-63053040D01*
X114467325Y-63227432D01*
X114674168Y-63434275D01*
X114917389Y-63596790D01*
X115187642Y-63708732D01*
X115474540Y-63765800D01*
X115767060Y-63765800D01*
X116053958Y-63708732D01*
X116324211Y-63596790D01*
X116567432Y-63434275D01*
X116774275Y-63227432D01*
X116890800Y-63053040D01*
X117007325Y-63227432D01*
X117214168Y-63434275D01*
X117457389Y-63596790D01*
X117727642Y-63708732D01*
X118014540Y-63765800D01*
X118307060Y-63765800D01*
X118593958Y-63708732D01*
X118864211Y-63596790D01*
X119107432Y-63434275D01*
X119314275Y-63227432D01*
X119430800Y-63053040D01*
X119547325Y-63227432D01*
X119754168Y-63434275D01*
X119997389Y-63596790D01*
X120267642Y-63708732D01*
X120554540Y-63765800D01*
X120847060Y-63765800D01*
X121133958Y-63708732D01*
X121404211Y-63596790D01*
X121647432Y-63434275D01*
X121854275Y-63227432D01*
X121970800Y-63053040D01*
X122087325Y-63227432D01*
X122294168Y-63434275D01*
X122537389Y-63596790D01*
X122807642Y-63708732D01*
X123094540Y-63765800D01*
X123387060Y-63765800D01*
X123673958Y-63708732D01*
X123944211Y-63596790D01*
X124187432Y-63434275D01*
X124394275Y-63227432D01*
X124510800Y-63053040D01*
X124627325Y-63227432D01*
X124834168Y-63434275D01*
X125077389Y-63596790D01*
X125347642Y-63708732D01*
X125634540Y-63765800D01*
X125927060Y-63765800D01*
X126213958Y-63708732D01*
X126484211Y-63596790D01*
X126727432Y-63434275D01*
X126934275Y-63227432D01*
X127096790Y-62984211D01*
X127208732Y-62713958D01*
X127265800Y-62427060D01*
X127265800Y-62134540D01*
X127208732Y-61847642D01*
X127096790Y-61577389D01*
X126934275Y-61334168D01*
X126727432Y-61127325D01*
X126484211Y-60964810D01*
X126213958Y-60852868D01*
X125927060Y-60795800D01*
X125634540Y-60795800D01*
X125347642Y-60852868D01*
X125077389Y-60964810D01*
X124834168Y-61127325D01*
X124627325Y-61334168D01*
X124510800Y-61508560D01*
X124394275Y-61334168D01*
X124187432Y-61127325D01*
X123944211Y-60964810D01*
X123673958Y-60852868D01*
X123387060Y-60795800D01*
X123094540Y-60795800D01*
X122807642Y-60852868D01*
X122537389Y-60964810D01*
X122294168Y-61127325D01*
X122087325Y-61334168D01*
X121970800Y-61508560D01*
X121854275Y-61334168D01*
X121647432Y-61127325D01*
X121404211Y-60964810D01*
X121133958Y-60852868D01*
X120847060Y-60795800D01*
X120554540Y-60795800D01*
X120267642Y-60852868D01*
X119997389Y-60964810D01*
X119754168Y-61127325D01*
X119547325Y-61334168D01*
X119430800Y-61508560D01*
X119314275Y-61334168D01*
X119107432Y-61127325D01*
X118864211Y-60964810D01*
X118593958Y-60852868D01*
X118307060Y-60795800D01*
X118014540Y-60795800D01*
X117727642Y-60852868D01*
X117457389Y-60964810D01*
X117214168Y-61127325D01*
X117007325Y-61334168D01*
X116890800Y-61508560D01*
X116774275Y-61334168D01*
X116567432Y-61127325D01*
X116324211Y-60964810D01*
X116053958Y-60852868D01*
X115767060Y-60795800D01*
X115474540Y-60795800D01*
X115254392Y-60839590D01*
X110952204Y-56537403D01*
X110928401Y-56508399D01*
X110812676Y-56413426D01*
X110761366Y-56386000D01*
X123203478Y-56386000D01*
X123240800Y-56389676D01*
X123278122Y-56386000D01*
X123278133Y-56386000D01*
X123389786Y-56375003D01*
X123533047Y-56331546D01*
X123665076Y-56260974D01*
X123780801Y-56166001D01*
X123804604Y-56136997D01*
X124542514Y-55399088D01*
X124725065Y-55435400D01*
X125007735Y-55435400D01*
X125284974Y-55380253D01*
X125546127Y-55272080D01*
X125781159Y-55115037D01*
X125981037Y-54915159D01*
X126138080Y-54680127D01*
X126142467Y-54669535D01*
X126254015Y-54855531D01*
X126442986Y-55063919D01*
X126668980Y-55231437D01*
X126923313Y-55351646D01*
X127057361Y-55392304D01*
X127279400Y-55270315D01*
X127279400Y-54127400D01*
X127533400Y-54127400D01*
X127533400Y-55270315D01*
X127755439Y-55392304D01*
X127889487Y-55351646D01*
X128143820Y-55231437D01*
X128369814Y-55063919D01*
X128558785Y-54855531D01*
X128703470Y-54614281D01*
X128798309Y-54349440D01*
X128677024Y-54127400D01*
X127533400Y-54127400D01*
X127279400Y-54127400D01*
X127259400Y-54127400D01*
X127259400Y-53873400D01*
X127279400Y-53873400D01*
X127279400Y-52730485D01*
X127533400Y-52730485D01*
X127533400Y-53873400D01*
X128677024Y-53873400D01*
X128798309Y-53651360D01*
X128703470Y-53386519D01*
X128558785Y-53145269D01*
X128369814Y-52936881D01*
X128143820Y-52769363D01*
X127889487Y-52649154D01*
X127755439Y-52608496D01*
X127533400Y-52730485D01*
X127279400Y-52730485D01*
X127057361Y-52608496D01*
X126923313Y-52649154D01*
X126896400Y-52661874D01*
X126896400Y-47722383D01*
X126987826Y-47760253D01*
X127265065Y-47815400D01*
X127547735Y-47815400D01*
X127824974Y-47760253D01*
X128086127Y-47652080D01*
X128321159Y-47495037D01*
X128521037Y-47295159D01*
X128678080Y-47060127D01*
X128786253Y-46798974D01*
X128841400Y-46521735D01*
X128841400Y-46239065D01*
X128786253Y-45961826D01*
X128678080Y-45700673D01*
X128521037Y-45465641D01*
X128321159Y-45265763D01*
X128086127Y-45108720D01*
X127824974Y-45000547D01*
X127547735Y-44945400D01*
X127265065Y-44945400D01*
X126987826Y-45000547D01*
X126896400Y-45038417D01*
X126896400Y-43197726D01*
X126923313Y-43210446D01*
X127057361Y-43251104D01*
X127279400Y-43129115D01*
X127279400Y-41986200D01*
X127533400Y-41986200D01*
X127533400Y-43129115D01*
X127755439Y-43251104D01*
X127889487Y-43210446D01*
X128143820Y-43090237D01*
X128369814Y-42922719D01*
X128558785Y-42714331D01*
X128703470Y-42473081D01*
X128798309Y-42208240D01*
X128677024Y-41986200D01*
X127533400Y-41986200D01*
X127279400Y-41986200D01*
X127259400Y-41986200D01*
X127259400Y-41732200D01*
X127279400Y-41732200D01*
X127279400Y-41712200D01*
X127533400Y-41712200D01*
X127533400Y-41732200D01*
X128677024Y-41732200D01*
X128798309Y-41510160D01*
X128703470Y-41245319D01*
X128558785Y-41004069D01*
X128503225Y-40942800D01*
X132275022Y-40942800D01*
X132399725Y-41129432D01*
X132606568Y-41336275D01*
X132780960Y-41452800D01*
X132606568Y-41569325D01*
X132399725Y-41776168D01*
X132237210Y-42019389D01*
X132125268Y-42289642D01*
X132068200Y-42576540D01*
X132068200Y-42869060D01*
X132125268Y-43155958D01*
X132237210Y-43426211D01*
X132399725Y-43669432D01*
X132606568Y-43876275D01*
X132780960Y-43992800D01*
X132606568Y-44109325D01*
X132399725Y-44316168D01*
X132237210Y-44559389D01*
X132125268Y-44829642D01*
X132068200Y-45116540D01*
X132068200Y-45409060D01*
X132125268Y-45695958D01*
X132237210Y-45966211D01*
X132399725Y-46209432D01*
X132606568Y-46416275D01*
X132849789Y-46578790D01*
X133120042Y-46690732D01*
X133406940Y-46747800D01*
X133699460Y-46747800D01*
X133986358Y-46690732D01*
X134256611Y-46578790D01*
X134499832Y-46416275D01*
X134706675Y-46209432D01*
X134869190Y-45966211D01*
X134981132Y-45695958D01*
X135038200Y-45409060D01*
X135038200Y-45116540D01*
X134994409Y-44896392D01*
X136147004Y-43743798D01*
X136176001Y-43720001D01*
X136217502Y-43669432D01*
X136270974Y-43604277D01*
X136341546Y-43472247D01*
X136349205Y-43446997D01*
X136385003Y-43328986D01*
X136396000Y-43217333D01*
X136396000Y-43217323D01*
X136399676Y-43180001D01*
X136396000Y-43142678D01*
X136396000Y-36511723D01*
X136399676Y-36474400D01*
X136396000Y-36437077D01*
X136396000Y-36437067D01*
X136385003Y-36325414D01*
X136341546Y-36182153D01*
X136294120Y-36093426D01*
X136270974Y-36050123D01*
X136199799Y-35963397D01*
X136176001Y-35934399D01*
X136147003Y-35910601D01*
X135234604Y-34998202D01*
X135210801Y-34969199D01*
X135095076Y-34874226D01*
X134963047Y-34803654D01*
X134819786Y-34760197D01*
X134708133Y-34749200D01*
X134708122Y-34749200D01*
X134670800Y-34745524D01*
X134633478Y-34749200D01*
X134101451Y-34749200D01*
X134184452Y-34719757D01*
X134434555Y-34570778D01*
X134650788Y-34375869D01*
X134824841Y-34142520D01*
X134950025Y-33879699D01*
X134994676Y-33732490D01*
X134873355Y-33502600D01*
X133680200Y-33502600D01*
X133680200Y-33522600D01*
X133426200Y-33522600D01*
X133426200Y-33502600D01*
X132233045Y-33502600D01*
X132111724Y-33732490D01*
X132156375Y-33879699D01*
X132281559Y-34142520D01*
X132455612Y-34375869D01*
X132671845Y-34570778D01*
X132921948Y-34719757D01*
X133004949Y-34749200D01*
X128991202Y-34749200D01*
X128805088Y-34563086D01*
X128841400Y-34380535D01*
X128841400Y-34097865D01*
X128786253Y-33820626D01*
X128678080Y-33559473D01*
X128521037Y-33324441D01*
X128321159Y-33124563D01*
X128086127Y-32967520D01*
X127824974Y-32859347D01*
X127547735Y-32804200D01*
X127265065Y-32804200D01*
X126987826Y-32859347D01*
X126726673Y-32967520D01*
X126491641Y-33124563D01*
X126291763Y-33324441D01*
X126188357Y-33479200D01*
X126084443Y-33479200D01*
X125981037Y-33324441D01*
X125781159Y-33124563D01*
X125546127Y-32967520D01*
X125284974Y-32859347D01*
X125007735Y-32804200D01*
X124725065Y-32804200D01*
X124542514Y-32840512D01*
X123855404Y-32153403D01*
X123831601Y-32124399D01*
X123715876Y-32029426D01*
X123583847Y-31958854D01*
X123440586Y-31915397D01*
X123328933Y-31904400D01*
X123328922Y-31904400D01*
X123291600Y-31900724D01*
X123254278Y-31904400D01*
X106107733Y-31904400D01*
X106070400Y-31900723D01*
X106033067Y-31904400D01*
X105921414Y-31915397D01*
X105778153Y-31958854D01*
X105646124Y-32029426D01*
X105530399Y-32124399D01*
X105506601Y-32153397D01*
X104717886Y-32942112D01*
X104535335Y-32905800D01*
X104252665Y-32905800D01*
X103975426Y-32960947D01*
X103714273Y-33069120D01*
X103479241Y-33226163D01*
X103279363Y-33426041D01*
X103175957Y-33580800D01*
X103072043Y-33580800D01*
X102968637Y-33426041D01*
X102768759Y-33226163D01*
X102533727Y-33069120D01*
X102272574Y-32960947D01*
X101995335Y-32905800D01*
X101712665Y-32905800D01*
X101435426Y-32960947D01*
X101174273Y-33069120D01*
X100939241Y-33226163D01*
X100739363Y-33426041D01*
X100584000Y-33658559D01*
X100428637Y-33426041D01*
X100228759Y-33226163D01*
X99993727Y-33069120D01*
X99732574Y-32960947D01*
X99455335Y-32905800D01*
X99172665Y-32905800D01*
X98895426Y-32960947D01*
X98634273Y-33069120D01*
X98399241Y-33226163D01*
X98199363Y-33426041D01*
X98044000Y-33658559D01*
X97888637Y-33426041D01*
X97688759Y-33226163D01*
X97453727Y-33069120D01*
X97192574Y-32960947D01*
X96915335Y-32905800D01*
X96632665Y-32905800D01*
X96355426Y-32960947D01*
X96094273Y-33069120D01*
X95859241Y-33226163D01*
X95659363Y-33426041D01*
X95504000Y-33658559D01*
X95348637Y-33426041D01*
X95148759Y-33226163D01*
X94913727Y-33069120D01*
X94652574Y-32960947D01*
X94375335Y-32905800D01*
X94092665Y-32905800D01*
X93815426Y-32960947D01*
X93554273Y-33069120D01*
X93319241Y-33226163D01*
X93119363Y-33426041D01*
X92964000Y-33658559D01*
X92808637Y-33426041D01*
X92608759Y-33226163D01*
X92373727Y-33069120D01*
X92112574Y-32960947D01*
X91835335Y-32905800D01*
X91552665Y-32905800D01*
X91275426Y-32960947D01*
X91014273Y-33069120D01*
X90779241Y-33226163D01*
X90579363Y-33426041D01*
X90424000Y-33658559D01*
X90268637Y-33426041D01*
X90068759Y-33226163D01*
X89833727Y-33069120D01*
X89572574Y-32960947D01*
X89295335Y-32905800D01*
X89012665Y-32905800D01*
X88735426Y-32960947D01*
X88474273Y-33069120D01*
X88239241Y-33226163D01*
X88039363Y-33426041D01*
X87884000Y-33658559D01*
X87728637Y-33426041D01*
X87528759Y-33226163D01*
X87293727Y-33069120D01*
X87032574Y-32960947D01*
X86755335Y-32905800D01*
X86472665Y-32905800D01*
X86195426Y-32960947D01*
X85934273Y-33069120D01*
X85699241Y-33226163D01*
X85499363Y-33426041D01*
X85342320Y-33661073D01*
X85234147Y-33922226D01*
X85179000Y-34199465D01*
X79654000Y-34199465D01*
X79654000Y-29068665D01*
X85331400Y-29068665D01*
X85331400Y-29351335D01*
X85386547Y-29628574D01*
X85494720Y-29889727D01*
X85651763Y-30124759D01*
X85851641Y-30324637D01*
X86086673Y-30481680D01*
X86347826Y-30589853D01*
X86625065Y-30645000D01*
X86907735Y-30645000D01*
X87184974Y-30589853D01*
X87446127Y-30481680D01*
X87681159Y-30324637D01*
X87803094Y-30202702D01*
X88453303Y-30202702D01*
X88524886Y-30446671D01*
X88780396Y-30567571D01*
X89054584Y-30636300D01*
X89336912Y-30650217D01*
X89616530Y-30608787D01*
X89882692Y-30513603D01*
X90007914Y-30446671D01*
X90079497Y-30202702D01*
X89266400Y-29389605D01*
X88453303Y-30202702D01*
X87803094Y-30202702D01*
X87881037Y-30124759D01*
X88015092Y-29924131D01*
X88029729Y-29951514D01*
X88273698Y-30023097D01*
X89086795Y-29210000D01*
X89446005Y-29210000D01*
X90259102Y-30023097D01*
X90503071Y-29951514D01*
X90623971Y-29696004D01*
X90692700Y-29421816D01*
X90706617Y-29139488D01*
X90665187Y-28859870D01*
X90570003Y-28593708D01*
X90503071Y-28468486D01*
X90259102Y-28396903D01*
X89446005Y-29210000D01*
X89086795Y-29210000D01*
X88273698Y-28396903D01*
X88029729Y-28468486D01*
X88016076Y-28497341D01*
X87881037Y-28295241D01*
X87803094Y-28217298D01*
X88453303Y-28217298D01*
X89266400Y-29030395D01*
X90079497Y-28217298D01*
X90007914Y-27973329D01*
X89752404Y-27852429D01*
X89478216Y-27783700D01*
X89195888Y-27769783D01*
X88916270Y-27811213D01*
X88650108Y-27906397D01*
X88524886Y-27973329D01*
X88453303Y-28217298D01*
X87803094Y-28217298D01*
X87681159Y-28095363D01*
X87446127Y-27938320D01*
X87184974Y-27830147D01*
X86907735Y-27775000D01*
X86625065Y-27775000D01*
X86347826Y-27830147D01*
X86086673Y-27938320D01*
X85851641Y-28095363D01*
X85651763Y-28295241D01*
X85494720Y-28530273D01*
X85386547Y-28791426D01*
X85331400Y-29068665D01*
X79654000Y-29068665D01*
X79654000Y-24529321D01*
X80313400Y-24529321D01*
X80313400Y-24949879D01*
X80395447Y-25362356D01*
X80556388Y-25750902D01*
X80790037Y-26100583D01*
X81087417Y-26397963D01*
X81437098Y-26631612D01*
X81825644Y-26792553D01*
X82238121Y-26874600D01*
X82658679Y-26874600D01*
X83071156Y-26792553D01*
X83459702Y-26631612D01*
X83809383Y-26397963D01*
X84106763Y-26100583D01*
X84340412Y-25750902D01*
X84501353Y-25362356D01*
X84583400Y-24949879D01*
X84583400Y-24676000D01*
X94878728Y-24676000D01*
X94890988Y-24800482D01*
X94927298Y-24920180D01*
X94986263Y-25030494D01*
X95065615Y-25127185D01*
X95162306Y-25206537D01*
X95272620Y-25265502D01*
X95392318Y-25301812D01*
X95516800Y-25314072D01*
X96031050Y-25311000D01*
X96189800Y-25152250D01*
X96189800Y-24003000D01*
X95040550Y-24003000D01*
X94881800Y-24161750D01*
X94878728Y-24676000D01*
X84583400Y-24676000D01*
X84583400Y-24529321D01*
X84501353Y-24116844D01*
X84340412Y-23728298D01*
X84106763Y-23378617D01*
X83809383Y-23081237D01*
X83801546Y-23076000D01*
X94878728Y-23076000D01*
X94881800Y-23590250D01*
X95040550Y-23749000D01*
X96189800Y-23749000D01*
X96189800Y-22599750D01*
X96443800Y-22599750D01*
X96443800Y-23749000D01*
X96463800Y-23749000D01*
X96463800Y-24003000D01*
X96443800Y-24003000D01*
X96443800Y-25152250D01*
X96602550Y-25311000D01*
X97116800Y-25314072D01*
X97241282Y-25301812D01*
X97360980Y-25265502D01*
X97471294Y-25206537D01*
X97567985Y-25127185D01*
X97647337Y-25030494D01*
X97706302Y-24920180D01*
X97742612Y-24800482D01*
X97743443Y-24792039D01*
X97842801Y-24891397D01*
X97842800Y-27322221D01*
X97656168Y-27446925D01*
X97449325Y-27653768D01*
X97286810Y-27896989D01*
X97174868Y-28167242D01*
X97117800Y-28454140D01*
X97117800Y-28746660D01*
X97174868Y-29033558D01*
X97286810Y-29303811D01*
X97449325Y-29547032D01*
X97656168Y-29753875D01*
X97899389Y-29916390D01*
X98169642Y-30028332D01*
X98456540Y-30085400D01*
X98749060Y-30085400D01*
X99035958Y-30028332D01*
X99306211Y-29916390D01*
X99549432Y-29753875D01*
X99756275Y-29547032D01*
X99872800Y-29372640D01*
X99989325Y-29547032D01*
X100196168Y-29753875D01*
X100439389Y-29916390D01*
X100709642Y-30028332D01*
X100996540Y-30085400D01*
X101289060Y-30085400D01*
X101575958Y-30028332D01*
X101846211Y-29916390D01*
X102089432Y-29753875D01*
X102296275Y-29547032D01*
X102412800Y-29372640D01*
X102529325Y-29547032D01*
X102736168Y-29753875D01*
X102979389Y-29916390D01*
X103249642Y-30028332D01*
X103536540Y-30085400D01*
X103829060Y-30085400D01*
X104115958Y-30028332D01*
X104386211Y-29916390D01*
X104629432Y-29753875D01*
X104836275Y-29547032D01*
X104952800Y-29372640D01*
X105069325Y-29547032D01*
X105276168Y-29753875D01*
X105519389Y-29916390D01*
X105789642Y-30028332D01*
X106076540Y-30085400D01*
X106369060Y-30085400D01*
X106655958Y-30028332D01*
X106926211Y-29916390D01*
X107169432Y-29753875D01*
X107376275Y-29547032D01*
X107492800Y-29372640D01*
X107609325Y-29547032D01*
X107816168Y-29753875D01*
X108059389Y-29916390D01*
X108329642Y-30028332D01*
X108616540Y-30085400D01*
X108909060Y-30085400D01*
X109195958Y-30028332D01*
X109466211Y-29916390D01*
X109709432Y-29753875D01*
X109916275Y-29547032D01*
X110032800Y-29372640D01*
X110149325Y-29547032D01*
X110356168Y-29753875D01*
X110599389Y-29916390D01*
X110869642Y-30028332D01*
X111156540Y-30085400D01*
X111449060Y-30085400D01*
X111735958Y-30028332D01*
X112006211Y-29916390D01*
X112249432Y-29753875D01*
X112456275Y-29547032D01*
X112572800Y-29372640D01*
X112689325Y-29547032D01*
X112896168Y-29753875D01*
X113139389Y-29916390D01*
X113409642Y-30028332D01*
X113696540Y-30085400D01*
X113989060Y-30085400D01*
X114275958Y-30028332D01*
X114546211Y-29916390D01*
X114789432Y-29753875D01*
X114921287Y-29622020D01*
X114943298Y-29694580D01*
X115002263Y-29804894D01*
X115081615Y-29901585D01*
X115178306Y-29980937D01*
X115288620Y-30039902D01*
X115408318Y-30076212D01*
X115532800Y-30088472D01*
X117232800Y-30088472D01*
X117357282Y-30076212D01*
X117476980Y-30039902D01*
X117587294Y-29980937D01*
X117683985Y-29901585D01*
X117763337Y-29804894D01*
X117822302Y-29694580D01*
X117858612Y-29574882D01*
X117870872Y-29450400D01*
X117870872Y-28865465D01*
X123482200Y-28865465D01*
X123482200Y-29148135D01*
X123537347Y-29425374D01*
X123645520Y-29686527D01*
X123802563Y-29921559D01*
X124002441Y-30121437D01*
X124237473Y-30278480D01*
X124498626Y-30386653D01*
X124775865Y-30441800D01*
X125058535Y-30441800D01*
X125335774Y-30386653D01*
X125596927Y-30278480D01*
X125831959Y-30121437D01*
X125953894Y-29999502D01*
X126604103Y-29999502D01*
X126675686Y-30243471D01*
X126931196Y-30364371D01*
X127205384Y-30433100D01*
X127487712Y-30447017D01*
X127767330Y-30405587D01*
X128033492Y-30310403D01*
X128158714Y-30243471D01*
X128230297Y-29999502D01*
X128216395Y-29985600D01*
X132065128Y-29985600D01*
X132065128Y-31685600D01*
X132077388Y-31810082D01*
X132113698Y-31929780D01*
X132172663Y-32040094D01*
X132252015Y-32136785D01*
X132348706Y-32216137D01*
X132459020Y-32275102D01*
X132539666Y-32299566D01*
X132455612Y-32375331D01*
X132281559Y-32608680D01*
X132156375Y-32871501D01*
X132111724Y-33018710D01*
X132233045Y-33248600D01*
X133426200Y-33248600D01*
X133426200Y-33228600D01*
X133680200Y-33228600D01*
X133680200Y-33248600D01*
X134873355Y-33248600D01*
X134994676Y-33018710D01*
X134950025Y-32871501D01*
X134824841Y-32608680D01*
X134650788Y-32375331D01*
X134566734Y-32299566D01*
X134647380Y-32275102D01*
X134757694Y-32216137D01*
X134854385Y-32136785D01*
X134933737Y-32040094D01*
X134992702Y-31929780D01*
X135029012Y-31810082D01*
X135041272Y-31685600D01*
X135041272Y-29985600D01*
X135029012Y-29861118D01*
X134992702Y-29741420D01*
X134933737Y-29631106D01*
X134854385Y-29534415D01*
X134757694Y-29455063D01*
X134647380Y-29396098D01*
X134527682Y-29359788D01*
X134403200Y-29347528D01*
X132703200Y-29347528D01*
X132578718Y-29359788D01*
X132459020Y-29396098D01*
X132348706Y-29455063D01*
X132252015Y-29534415D01*
X132172663Y-29631106D01*
X132113698Y-29741420D01*
X132077388Y-29861118D01*
X132065128Y-29985600D01*
X128216395Y-29985600D01*
X127417200Y-29186405D01*
X126604103Y-29999502D01*
X125953894Y-29999502D01*
X126031837Y-29921559D01*
X126165892Y-29720931D01*
X126180529Y-29748314D01*
X126424498Y-29819897D01*
X127237595Y-29006800D01*
X127596805Y-29006800D01*
X128409902Y-29819897D01*
X128653871Y-29748314D01*
X128774771Y-29492804D01*
X128843500Y-29218616D01*
X128857417Y-28936288D01*
X128815987Y-28656670D01*
X128720803Y-28390508D01*
X128653871Y-28265286D01*
X128409902Y-28193703D01*
X127596805Y-29006800D01*
X127237595Y-29006800D01*
X126424498Y-28193703D01*
X126180529Y-28265286D01*
X126166876Y-28294141D01*
X126031837Y-28092041D01*
X125953894Y-28014098D01*
X126604103Y-28014098D01*
X127417200Y-28827195D01*
X128230297Y-28014098D01*
X128158714Y-27770129D01*
X127903204Y-27649229D01*
X127629016Y-27580500D01*
X127346688Y-27566583D01*
X127067070Y-27608013D01*
X126800908Y-27703197D01*
X126675686Y-27770129D01*
X126604103Y-28014098D01*
X125953894Y-28014098D01*
X125831959Y-27892163D01*
X125596927Y-27735120D01*
X125335774Y-27626947D01*
X125058535Y-27571800D01*
X124775865Y-27571800D01*
X124498626Y-27626947D01*
X124237473Y-27735120D01*
X124002441Y-27892163D01*
X123802563Y-28092041D01*
X123645520Y-28327073D01*
X123537347Y-28588226D01*
X123482200Y-28865465D01*
X117870872Y-28865465D01*
X117870872Y-27750400D01*
X117858612Y-27625918D01*
X117822302Y-27506220D01*
X117763337Y-27395906D01*
X117683985Y-27299215D01*
X117587294Y-27219863D01*
X117476980Y-27160898D01*
X117396800Y-27136576D01*
X117396800Y-25094043D01*
X117551559Y-24990637D01*
X117751437Y-24790759D01*
X117892180Y-24580121D01*
X131418200Y-24580121D01*
X131418200Y-25000679D01*
X131500247Y-25413156D01*
X131661188Y-25801702D01*
X131894837Y-26151383D01*
X132192217Y-26448763D01*
X132541898Y-26682412D01*
X132930444Y-26843353D01*
X133342921Y-26925400D01*
X133763479Y-26925400D01*
X134175956Y-26843353D01*
X134564502Y-26682412D01*
X134914183Y-26448763D01*
X135211563Y-26151383D01*
X135445212Y-25801702D01*
X135606153Y-25413156D01*
X135688200Y-25000679D01*
X135688200Y-24580121D01*
X135606153Y-24167644D01*
X135445212Y-23779098D01*
X135211563Y-23429417D01*
X134914183Y-23132037D01*
X134564502Y-22898388D01*
X134175956Y-22737447D01*
X133763479Y-22655400D01*
X133342921Y-22655400D01*
X132930444Y-22737447D01*
X132541898Y-22898388D01*
X132192217Y-23132037D01*
X131894837Y-23429417D01*
X131661188Y-23779098D01*
X131500247Y-24167644D01*
X131418200Y-24580121D01*
X117892180Y-24580121D01*
X117908480Y-24555727D01*
X118016653Y-24294574D01*
X118071800Y-24017335D01*
X118071800Y-23734665D01*
X118016653Y-23457426D01*
X117908480Y-23196273D01*
X117751437Y-22961241D01*
X117551559Y-22761363D01*
X117316527Y-22604320D01*
X117055374Y-22496147D01*
X116778135Y-22441000D01*
X116495465Y-22441000D01*
X116218226Y-22496147D01*
X115957073Y-22604320D01*
X115722041Y-22761363D01*
X115522163Y-22961241D01*
X115366800Y-23193759D01*
X115211437Y-22961241D01*
X115011559Y-22761363D01*
X114776527Y-22604320D01*
X114515374Y-22496147D01*
X114238135Y-22441000D01*
X113955465Y-22441000D01*
X113678226Y-22496147D01*
X113417073Y-22604320D01*
X113182041Y-22761363D01*
X112982163Y-22961241D01*
X112826800Y-23193759D01*
X112671437Y-22961241D01*
X112471559Y-22761363D01*
X112236527Y-22604320D01*
X111975374Y-22496147D01*
X111698135Y-22441000D01*
X111415465Y-22441000D01*
X111138226Y-22496147D01*
X110877073Y-22604320D01*
X110642041Y-22761363D01*
X110442163Y-22961241D01*
X110286800Y-23193759D01*
X110131437Y-22961241D01*
X109931559Y-22761363D01*
X109696527Y-22604320D01*
X109435374Y-22496147D01*
X109158135Y-22441000D01*
X108875465Y-22441000D01*
X108598226Y-22496147D01*
X108337073Y-22604320D01*
X108102041Y-22761363D01*
X107902163Y-22961241D01*
X107746800Y-23193759D01*
X107591437Y-22961241D01*
X107391559Y-22761363D01*
X107156527Y-22604320D01*
X106895374Y-22496147D01*
X106618135Y-22441000D01*
X106335465Y-22441000D01*
X106058226Y-22496147D01*
X105797073Y-22604320D01*
X105562041Y-22761363D01*
X105362163Y-22961241D01*
X105206800Y-23193759D01*
X105051437Y-22961241D01*
X104851559Y-22761363D01*
X104616527Y-22604320D01*
X104355374Y-22496147D01*
X104078135Y-22441000D01*
X103795465Y-22441000D01*
X103518226Y-22496147D01*
X103257073Y-22604320D01*
X103022041Y-22761363D01*
X102822163Y-22961241D01*
X102666800Y-23193759D01*
X102511437Y-22961241D01*
X102311559Y-22761363D01*
X102076527Y-22604320D01*
X101815374Y-22496147D01*
X101538135Y-22441000D01*
X101255465Y-22441000D01*
X100978226Y-22496147D01*
X100717073Y-22604320D01*
X100482041Y-22761363D01*
X100282163Y-22961241D01*
X100126800Y-23193759D01*
X99971437Y-22961241D01*
X99771559Y-22761363D01*
X99536527Y-22604320D01*
X99275374Y-22496147D01*
X98998135Y-22441000D01*
X98715465Y-22441000D01*
X98438226Y-22496147D01*
X98177073Y-22604320D01*
X97942041Y-22761363D01*
X97743443Y-22959961D01*
X97742612Y-22951518D01*
X97706302Y-22831820D01*
X97647337Y-22721506D01*
X97567985Y-22624815D01*
X97471294Y-22545463D01*
X97360980Y-22486498D01*
X97241282Y-22450188D01*
X97116800Y-22437928D01*
X96602550Y-22441000D01*
X96443800Y-22599750D01*
X96189800Y-22599750D01*
X96031050Y-22441000D01*
X95516800Y-22437928D01*
X95392318Y-22450188D01*
X95272620Y-22486498D01*
X95162306Y-22545463D01*
X95065615Y-22624815D01*
X94986263Y-22721506D01*
X94927298Y-22831820D01*
X94890988Y-22951518D01*
X94878728Y-23076000D01*
X83801546Y-23076000D01*
X83459702Y-22847588D01*
X83071156Y-22686647D01*
X82658679Y-22604600D01*
X82238121Y-22604600D01*
X81825644Y-22686647D01*
X81437098Y-22847588D01*
X81087417Y-23081237D01*
X80790037Y-23378617D01*
X80556388Y-23728298D01*
X80395447Y-24116844D01*
X80313400Y-24529321D01*
X79654000Y-24529321D01*
X79654000Y-21488000D01*
X136754000Y-21488000D01*
X136754001Y-67513600D01*
%TA.AperFunction,Conductor*%
D18*
G36*
X136754001Y-67513600D02*
G01*
X79654000Y-67513600D01*
X79654000Y-64407321D01*
X80415000Y-64407321D01*
X80415000Y-64827879D01*
X80497047Y-65240356D01*
X80657988Y-65628902D01*
X80891637Y-65978583D01*
X81189017Y-66275963D01*
X81538698Y-66509612D01*
X81927244Y-66670553D01*
X82339721Y-66752600D01*
X82760279Y-66752600D01*
X83172756Y-66670553D01*
X83561302Y-66509612D01*
X83910983Y-66275963D01*
X84208363Y-65978583D01*
X84442012Y-65628902D01*
X84602953Y-65240356D01*
X84685000Y-64827879D01*
X84685000Y-64407321D01*
X84624372Y-64102521D01*
X131672200Y-64102521D01*
X131672200Y-64523079D01*
X131754247Y-64935556D01*
X131915188Y-65324102D01*
X132148837Y-65673783D01*
X132446217Y-65971163D01*
X132795898Y-66204812D01*
X133184444Y-66365753D01*
X133596921Y-66447800D01*
X134017479Y-66447800D01*
X134429956Y-66365753D01*
X134818502Y-66204812D01*
X135168183Y-65971163D01*
X135465563Y-65673783D01*
X135699212Y-65324102D01*
X135860153Y-64935556D01*
X135942200Y-64523079D01*
X135942200Y-64102521D01*
X135860153Y-63690044D01*
X135699212Y-63301498D01*
X135465563Y-62951817D01*
X135168183Y-62654437D01*
X134818502Y-62420788D01*
X134429956Y-62259847D01*
X134017479Y-62177800D01*
X133596921Y-62177800D01*
X133184444Y-62259847D01*
X132795898Y-62420788D01*
X132446217Y-62654437D01*
X132148837Y-62951817D01*
X131915188Y-63301498D01*
X131754247Y-63690044D01*
X131672200Y-64102521D01*
X84624372Y-64102521D01*
X84602953Y-63994844D01*
X84442012Y-63606298D01*
X84208363Y-63256617D01*
X83910983Y-62959237D01*
X83561302Y-62725588D01*
X83172756Y-62564647D01*
X82760279Y-62482600D01*
X82339721Y-62482600D01*
X81927244Y-62564647D01*
X81538698Y-62725588D01*
X81189017Y-62959237D01*
X80891637Y-63256617D01*
X80657988Y-63606298D01*
X80497047Y-63994844D01*
X80415000Y-64407321D01*
X79654000Y-64407321D01*
X79654000Y-54851200D01*
X85175928Y-54851200D01*
X85188188Y-54975682D01*
X85224498Y-55095380D01*
X85283463Y-55205694D01*
X85362815Y-55302385D01*
X85459506Y-55381737D01*
X85569820Y-55440702D01*
X85689518Y-55477012D01*
X85814000Y-55489272D01*
X86328250Y-55486200D01*
X86487000Y-55327450D01*
X86487000Y-54178200D01*
X86741000Y-54178200D01*
X86741000Y-55327450D01*
X86899750Y-55486200D01*
X87414000Y-55489272D01*
X87538482Y-55477012D01*
X87658180Y-55440702D01*
X87768494Y-55381737D01*
X87865185Y-55302385D01*
X87944537Y-55205694D01*
X88003502Y-55095380D01*
X88039812Y-54975682D01*
X88042231Y-54951120D01*
X88190586Y-55114719D01*
X88416580Y-55282237D01*
X88670913Y-55402446D01*
X88804961Y-55443104D01*
X89027000Y-55321115D01*
X89027000Y-54178200D01*
X86741000Y-54178200D01*
X86487000Y-54178200D01*
X85337750Y-54178200D01*
X85179000Y-54336950D01*
X85175928Y-54851200D01*
X79654000Y-54851200D01*
X79654000Y-53251200D01*
X85175928Y-53251200D01*
X85179000Y-53765450D01*
X85337750Y-53924200D01*
X86487000Y-53924200D01*
X86487000Y-52774950D01*
X86741000Y-52774950D01*
X86741000Y-53924200D01*
X89027000Y-53924200D01*
X89027000Y-52781285D01*
X88804961Y-52659296D01*
X88670913Y-52699954D01*
X88416580Y-52820163D01*
X88190586Y-52987681D01*
X88042231Y-53151280D01*
X88039812Y-53126718D01*
X88003502Y-53007020D01*
X87944537Y-52896706D01*
X87865185Y-52800015D01*
X87768494Y-52720663D01*
X87658180Y-52661698D01*
X87538482Y-52625388D01*
X87414000Y-52613128D01*
X86899750Y-52616200D01*
X86741000Y-52774950D01*
X86487000Y-52774950D01*
X86328250Y-52616200D01*
X85814000Y-52613128D01*
X85689518Y-52625388D01*
X85569820Y-52661698D01*
X85459506Y-52720663D01*
X85362815Y-52800015D01*
X85283463Y-52896706D01*
X85224498Y-53007020D01*
X85188188Y-53126718D01*
X85175928Y-53251200D01*
X79654000Y-53251200D01*
X79654000Y-48017065D01*
X80556200Y-48017065D01*
X80556200Y-48299735D01*
X80611347Y-48576974D01*
X80719520Y-48838127D01*
X80876563Y-49073159D01*
X81076441Y-49273037D01*
X81311473Y-49430080D01*
X81572626Y-49538253D01*
X81849865Y-49593400D01*
X82132535Y-49593400D01*
X82409774Y-49538253D01*
X82670927Y-49430080D01*
X82905959Y-49273037D01*
X83105837Y-49073159D01*
X83262880Y-48838127D01*
X83371053Y-48576974D01*
X83426200Y-48299735D01*
X83426200Y-48017065D01*
X83371053Y-47739826D01*
X83262880Y-47478673D01*
X83105837Y-47243641D01*
X82905959Y-47043763D01*
X82670927Y-46886720D01*
X82409774Y-46778547D01*
X82132535Y-46723400D01*
X81849865Y-46723400D01*
X81572626Y-46778547D01*
X81311473Y-46886720D01*
X81076441Y-47043763D01*
X80876563Y-47243641D01*
X80719520Y-47478673D01*
X80611347Y-47739826D01*
X80556200Y-48017065D01*
X79654000Y-48017065D01*
X79654000Y-42760800D01*
X85175928Y-42760800D01*
X85188188Y-42885282D01*
X85224498Y-43004980D01*
X85283463Y-43115294D01*
X85362815Y-43211985D01*
X85459506Y-43291337D01*
X85569820Y-43350302D01*
X85689518Y-43386612D01*
X85814000Y-43398872D01*
X86328250Y-43395800D01*
X86487000Y-43237050D01*
X86487000Y-42087800D01*
X85337750Y-42087800D01*
X85179000Y-42246550D01*
X85175928Y-42760800D01*
X79654000Y-42760800D01*
X79654000Y-41160800D01*
X85175928Y-41160800D01*
X85179000Y-41675050D01*
X85337750Y-41833800D01*
X86487000Y-41833800D01*
X86487000Y-40684550D01*
X86328250Y-40525800D01*
X85814000Y-40522728D01*
X85689518Y-40534988D01*
X85569820Y-40571298D01*
X85459506Y-40630263D01*
X85362815Y-40709615D01*
X85283463Y-40806306D01*
X85224498Y-40916620D01*
X85188188Y-41036318D01*
X85175928Y-41160800D01*
X79654000Y-41160800D01*
X79654000Y-38347440D01*
X80599291Y-38347440D01*
X80694130Y-38612281D01*
X80838815Y-38853531D01*
X81027786Y-39061919D01*
X81253780Y-39229437D01*
X81508113Y-39349646D01*
X81642161Y-39390304D01*
X81864200Y-39268315D01*
X81864200Y-38125400D01*
X82118200Y-38125400D01*
X82118200Y-39268315D01*
X82340239Y-39390304D01*
X82474287Y-39349646D01*
X82728620Y-39229437D01*
X82954614Y-39061919D01*
X83143585Y-38853531D01*
X83288270Y-38612281D01*
X83383109Y-38347440D01*
X83261824Y-38125400D01*
X82118200Y-38125400D01*
X81864200Y-38125400D01*
X80720576Y-38125400D01*
X80599291Y-38347440D01*
X79654000Y-38347440D01*
X79654000Y-37649360D01*
X80599291Y-37649360D01*
X80720576Y-37871400D01*
X81864200Y-37871400D01*
X81864200Y-36728485D01*
X82118200Y-36728485D01*
X82118200Y-37871400D01*
X83261824Y-37871400D01*
X83383109Y-37649360D01*
X83288270Y-37384519D01*
X83143585Y-37143269D01*
X82954614Y-36934881D01*
X82728620Y-36767363D01*
X82474287Y-36647154D01*
X82340239Y-36606496D01*
X82118200Y-36728485D01*
X81864200Y-36728485D01*
X81642161Y-36606496D01*
X81508113Y-36647154D01*
X81253780Y-36767363D01*
X81027786Y-36934881D01*
X80838815Y-37143269D01*
X80694130Y-37384519D01*
X80599291Y-37649360D01*
X79654000Y-37649360D01*
X79654000Y-34199465D01*
X85179000Y-34199465D01*
X85179000Y-34482135D01*
X85234147Y-34759374D01*
X85342320Y-35020527D01*
X85499363Y-35255559D01*
X85699241Y-35455437D01*
X85934273Y-35612480D01*
X86195426Y-35720653D01*
X86472665Y-35775800D01*
X86755335Y-35775800D01*
X87032574Y-35720653D01*
X87293727Y-35612480D01*
X87528759Y-35455437D01*
X87728637Y-35255559D01*
X87884000Y-35023041D01*
X88039363Y-35255559D01*
X88239241Y-35455437D01*
X88394000Y-35558844D01*
X88394001Y-38445597D01*
X87518001Y-39321597D01*
X87488998Y-39345400D01*
X87452147Y-39390304D01*
X87394025Y-39461125D01*
X87382645Y-39482416D01*
X87323453Y-39593155D01*
X87279996Y-39736416D01*
X87268999Y-39848069D01*
X87268999Y-39848079D01*
X87265323Y-39885401D01*
X87268999Y-39922724D01*
X87268999Y-40523594D01*
X86899750Y-40525800D01*
X86741000Y-40684550D01*
X86741000Y-41833800D01*
X86761000Y-41833800D01*
X86761000Y-42087800D01*
X86741000Y-42087800D01*
X86741000Y-43237050D01*
X86899750Y-43395800D01*
X87342267Y-43398443D01*
X87394025Y-43495275D01*
X87435716Y-43546075D01*
X87488999Y-43611000D01*
X87517997Y-43634798D01*
X88394000Y-44510802D01*
X88394000Y-45213156D01*
X88239241Y-45316563D01*
X88039363Y-45516441D01*
X87884000Y-45748959D01*
X87728637Y-45516441D01*
X87528759Y-45316563D01*
X87293727Y-45159520D01*
X87032574Y-45051347D01*
X86755335Y-44996200D01*
X86472665Y-44996200D01*
X86195426Y-45051347D01*
X85934273Y-45159520D01*
X85699241Y-45316563D01*
X85499363Y-45516441D01*
X85342320Y-45751473D01*
X85234147Y-46012626D01*
X85179000Y-46289865D01*
X85179000Y-46572535D01*
X85234147Y-46849774D01*
X85342320Y-47110927D01*
X85499363Y-47345959D01*
X85699241Y-47545837D01*
X85934273Y-47702880D01*
X86195426Y-47811053D01*
X86472665Y-47866200D01*
X86755335Y-47866200D01*
X87032574Y-47811053D01*
X87293727Y-47702880D01*
X87528759Y-47545837D01*
X87728637Y-47345959D01*
X87884000Y-47113441D01*
X88039363Y-47345959D01*
X88239241Y-47545837D01*
X88474273Y-47702880D01*
X88735426Y-47811053D01*
X89012665Y-47866200D01*
X89295335Y-47866200D01*
X89572574Y-47811053D01*
X89833727Y-47702880D01*
X90068759Y-47545837D01*
X90268637Y-47345959D01*
X90424000Y-47113441D01*
X90579363Y-47345959D01*
X90779241Y-47545837D01*
X91014273Y-47702880D01*
X91275426Y-47811053D01*
X91552665Y-47866200D01*
X91835335Y-47866200D01*
X92112574Y-47811053D01*
X92373727Y-47702880D01*
X92608759Y-47545837D01*
X92808637Y-47345959D01*
X92964000Y-47113441D01*
X93119363Y-47345959D01*
X93319241Y-47545837D01*
X93554273Y-47702880D01*
X93815426Y-47811053D01*
X94092665Y-47866200D01*
X94375335Y-47866200D01*
X94652574Y-47811053D01*
X94913727Y-47702880D01*
X95148759Y-47545837D01*
X95348637Y-47345959D01*
X95504000Y-47113441D01*
X95659363Y-47345959D01*
X95859241Y-47545837D01*
X96094273Y-47702880D01*
X96355426Y-47811053D01*
X96632665Y-47866200D01*
X96915335Y-47866200D01*
X97192574Y-47811053D01*
X97453727Y-47702880D01*
X97688759Y-47545837D01*
X97888637Y-47345959D01*
X98044000Y-47113441D01*
X98199363Y-47345959D01*
X98399241Y-47545837D01*
X98634273Y-47702880D01*
X98895426Y-47811053D01*
X99172665Y-47866200D01*
X99455335Y-47866200D01*
X99732574Y-47811053D01*
X99993727Y-47702880D01*
X100228759Y-47545837D01*
X100428637Y-47345959D01*
X100584000Y-47113441D01*
X100739363Y-47345959D01*
X100939241Y-47545837D01*
X101174273Y-47702880D01*
X101435426Y-47811053D01*
X101712665Y-47866200D01*
X101995335Y-47866200D01*
X102272574Y-47811053D01*
X102533727Y-47702880D01*
X102768759Y-47545837D01*
X102968637Y-47345959D01*
X103072043Y-47191200D01*
X103175957Y-47191200D01*
X103279363Y-47345959D01*
X103479241Y-47545837D01*
X103714273Y-47702880D01*
X103975426Y-47811053D01*
X104252665Y-47866200D01*
X104535335Y-47866200D01*
X104717886Y-47829888D01*
X106167001Y-49279003D01*
X106190799Y-49308001D01*
X106306524Y-49402974D01*
X106438553Y-49473546D01*
X106581814Y-49517003D01*
X106693467Y-49528000D01*
X106693476Y-49528000D01*
X106730799Y-49531676D01*
X106768122Y-49528000D01*
X122441478Y-49528000D01*
X122478800Y-49531676D01*
X122516122Y-49528000D01*
X122516133Y-49528000D01*
X122627786Y-49517003D01*
X122771047Y-49473546D01*
X122903076Y-49402974D01*
X123018801Y-49308001D01*
X123042604Y-49278997D01*
X124542514Y-47779088D01*
X124725065Y-47815400D01*
X125007735Y-47815400D01*
X125284974Y-47760253D01*
X125376400Y-47722383D01*
X125376401Y-52415597D01*
X125190286Y-52601712D01*
X125007735Y-52565400D01*
X124725065Y-52565400D01*
X124447826Y-52620547D01*
X124186673Y-52728720D01*
X123951641Y-52885763D01*
X123751763Y-53085641D01*
X123596400Y-53318159D01*
X123441037Y-53085641D01*
X123241159Y-52885763D01*
X123006127Y-52728720D01*
X122744974Y-52620547D01*
X122467735Y-52565400D01*
X122185065Y-52565400D01*
X121907826Y-52620547D01*
X121646673Y-52728720D01*
X121411641Y-52885763D01*
X121211763Y-53085641D01*
X121056400Y-53318159D01*
X120901037Y-53085641D01*
X120701159Y-52885763D01*
X120466127Y-52728720D01*
X120204974Y-52620547D01*
X119927735Y-52565400D01*
X119645065Y-52565400D01*
X119367826Y-52620547D01*
X119106673Y-52728720D01*
X118871641Y-52885763D01*
X118671763Y-53085641D01*
X118516400Y-53318159D01*
X118361037Y-53085641D01*
X118161159Y-52885763D01*
X117926127Y-52728720D01*
X117664974Y-52620547D01*
X117387735Y-52565400D01*
X117105065Y-52565400D01*
X116827826Y-52620547D01*
X116566673Y-52728720D01*
X116331641Y-52885763D01*
X116131763Y-53085641D01*
X115976400Y-53318159D01*
X115821037Y-53085641D01*
X115621159Y-52885763D01*
X115386127Y-52728720D01*
X115124974Y-52620547D01*
X114847735Y-52565400D01*
X114565065Y-52565400D01*
X114287826Y-52620547D01*
X114026673Y-52728720D01*
X113791641Y-52885763D01*
X113591763Y-53085641D01*
X113434720Y-53320673D01*
X113430333Y-53331265D01*
X113318785Y-53145269D01*
X113129814Y-52936881D01*
X112903820Y-52769363D01*
X112649487Y-52649154D01*
X112515439Y-52608496D01*
X112293400Y-52730485D01*
X112293400Y-53873400D01*
X112313400Y-53873400D01*
X112313400Y-54127400D01*
X112293400Y-54127400D01*
X112293400Y-54147400D01*
X112039400Y-54147400D01*
X112039400Y-54127400D01*
X109753400Y-54127400D01*
X109753400Y-54147400D01*
X109499400Y-54147400D01*
X109499400Y-54127400D01*
X108350150Y-54127400D01*
X108191400Y-54286150D01*
X108188328Y-54800400D01*
X108194789Y-54866000D01*
X105570573Y-54866000D01*
X105691070Y-54665081D01*
X105785909Y-54400240D01*
X105664624Y-54178200D01*
X104521000Y-54178200D01*
X104521000Y-54198200D01*
X104267000Y-54198200D01*
X104267000Y-54178200D01*
X104247000Y-54178200D01*
X104247000Y-53924200D01*
X104267000Y-53924200D01*
X104267000Y-52781285D01*
X104521000Y-52781285D01*
X104521000Y-53924200D01*
X105664624Y-53924200D01*
X105785909Y-53702160D01*
X105691070Y-53437319D01*
X105548983Y-53200400D01*
X108188328Y-53200400D01*
X108191400Y-53714650D01*
X108350150Y-53873400D01*
X109499400Y-53873400D01*
X109499400Y-52724150D01*
X109753400Y-52724150D01*
X109753400Y-53873400D01*
X112039400Y-53873400D01*
X112039400Y-52730485D01*
X111817361Y-52608496D01*
X111683313Y-52649154D01*
X111428980Y-52769363D01*
X111202986Y-52936881D01*
X111054631Y-53100480D01*
X111052212Y-53075918D01*
X111015902Y-52956220D01*
X110956937Y-52845906D01*
X110877585Y-52749215D01*
X110780894Y-52669863D01*
X110670580Y-52610898D01*
X110550882Y-52574588D01*
X110426400Y-52562328D01*
X109912150Y-52565400D01*
X109753400Y-52724150D01*
X109499400Y-52724150D01*
X109340650Y-52565400D01*
X108826400Y-52562328D01*
X108701918Y-52574588D01*
X108582220Y-52610898D01*
X108471906Y-52669863D01*
X108375215Y-52749215D01*
X108295863Y-52845906D01*
X108236898Y-52956220D01*
X108200588Y-53075918D01*
X108188328Y-53200400D01*
X105548983Y-53200400D01*
X105546385Y-53196069D01*
X105357414Y-52987681D01*
X105131420Y-52820163D01*
X104877087Y-52699954D01*
X104743039Y-52659296D01*
X104521000Y-52781285D01*
X104267000Y-52781285D01*
X104044961Y-52659296D01*
X103910913Y-52699954D01*
X103656580Y-52820163D01*
X103430586Y-52987681D01*
X103241615Y-53196069D01*
X103130067Y-53382065D01*
X103125680Y-53371473D01*
X102968637Y-53136441D01*
X102768759Y-52936563D01*
X102533727Y-52779520D01*
X102272574Y-52671347D01*
X101995335Y-52616200D01*
X101712665Y-52616200D01*
X101435426Y-52671347D01*
X101174273Y-52779520D01*
X100939241Y-52936563D01*
X100739363Y-53136441D01*
X100584000Y-53368959D01*
X100428637Y-53136441D01*
X100228759Y-52936563D01*
X99993727Y-52779520D01*
X99732574Y-52671347D01*
X99455335Y-52616200D01*
X99172665Y-52616200D01*
X98895426Y-52671347D01*
X98634273Y-52779520D01*
X98399241Y-52936563D01*
X98199363Y-53136441D01*
X98044000Y-53368959D01*
X97888637Y-53136441D01*
X97688759Y-52936563D01*
X97453727Y-52779520D01*
X97192574Y-52671347D01*
X96915335Y-52616200D01*
X96632665Y-52616200D01*
X96355426Y-52671347D01*
X96094273Y-52779520D01*
X95859241Y-52936563D01*
X95659363Y-53136441D01*
X95504000Y-53368959D01*
X95348637Y-53136441D01*
X95148759Y-52936563D01*
X94913727Y-52779520D01*
X94652574Y-52671347D01*
X94375335Y-52616200D01*
X94092665Y-52616200D01*
X93815426Y-52671347D01*
X93554273Y-52779520D01*
X93319241Y-52936563D01*
X93119363Y-53136441D01*
X92964000Y-53368959D01*
X92808637Y-53136441D01*
X92608759Y-52936563D01*
X92373727Y-52779520D01*
X92112574Y-52671347D01*
X91835335Y-52616200D01*
X91552665Y-52616200D01*
X91275426Y-52671347D01*
X91014273Y-52779520D01*
X90779241Y-52936563D01*
X90579363Y-53136441D01*
X90422320Y-53371473D01*
X90417933Y-53382065D01*
X90306385Y-53196069D01*
X90117414Y-52987681D01*
X89891420Y-52820163D01*
X89637087Y-52699954D01*
X89503039Y-52659296D01*
X89281000Y-52781285D01*
X89281000Y-53924200D01*
X89301000Y-53924200D01*
X89301000Y-54178200D01*
X89281000Y-54178200D01*
X89281000Y-55321115D01*
X89503039Y-55443104D01*
X89637087Y-55402446D01*
X89891420Y-55282237D01*
X90117414Y-55114719D01*
X90306385Y-54906331D01*
X90417933Y-54720335D01*
X90422320Y-54730927D01*
X90579363Y-54965959D01*
X90779241Y-55165837D01*
X91014273Y-55322880D01*
X91275426Y-55431053D01*
X91552665Y-55486200D01*
X91835335Y-55486200D01*
X92017887Y-55449888D01*
X96667400Y-60099402D01*
X96691199Y-60128401D01*
X96806924Y-60223374D01*
X96938953Y-60293946D01*
X97082214Y-60337403D01*
X97193867Y-60348400D01*
X97193876Y-60348400D01*
X97231199Y-60352076D01*
X97268522Y-60348400D01*
X104993599Y-60348400D01*
X105440999Y-60795800D01*
X105314540Y-60795800D01*
X105027642Y-60852868D01*
X104757389Y-60964810D01*
X104514168Y-61127325D01*
X104307325Y-61334168D01*
X104190800Y-61508560D01*
X104074275Y-61334168D01*
X103867432Y-61127325D01*
X103624211Y-60964810D01*
X103353958Y-60852868D01*
X103067060Y-60795800D01*
X102774540Y-60795800D01*
X102487642Y-60852868D01*
X102217389Y-60964810D01*
X101974168Y-61127325D01*
X101767325Y-61334168D01*
X101650800Y-61508560D01*
X101534275Y-61334168D01*
X101327432Y-61127325D01*
X101084211Y-60964810D01*
X100813958Y-60852868D01*
X100527060Y-60795800D01*
X100234540Y-60795800D01*
X99947642Y-60852868D01*
X99677389Y-60964810D01*
X99434168Y-61127325D01*
X99227325Y-61334168D01*
X99110800Y-61508560D01*
X98994275Y-61334168D01*
X98787432Y-61127325D01*
X98544211Y-60964810D01*
X98273958Y-60852868D01*
X97987060Y-60795800D01*
X97694540Y-60795800D01*
X97407642Y-60852868D01*
X97137389Y-60964810D01*
X96894168Y-61127325D01*
X96687325Y-61334168D01*
X96570800Y-61508560D01*
X96454275Y-61334168D01*
X96247432Y-61127325D01*
X96004211Y-60964810D01*
X95733958Y-60852868D01*
X95447060Y-60795800D01*
X95154540Y-60795800D01*
X94867642Y-60852868D01*
X94597389Y-60964810D01*
X94354168Y-61127325D01*
X94147325Y-61334168D01*
X94030800Y-61508560D01*
X93914275Y-61334168D01*
X93707432Y-61127325D01*
X93464211Y-60964810D01*
X93193958Y-60852868D01*
X92907060Y-60795800D01*
X92614540Y-60795800D01*
X92327642Y-60852868D01*
X92057389Y-60964810D01*
X91814168Y-61127325D01*
X91607325Y-61334168D01*
X91490800Y-61508560D01*
X91374275Y-61334168D01*
X91167432Y-61127325D01*
X90924211Y-60964810D01*
X90653958Y-60852868D01*
X90367060Y-60795800D01*
X90074540Y-60795800D01*
X89787642Y-60852868D01*
X89517389Y-60964810D01*
X89274168Y-61127325D01*
X89142313Y-61259180D01*
X89120302Y-61186620D01*
X89061337Y-61076306D01*
X88981985Y-60979615D01*
X88885294Y-60900263D01*
X88774980Y-60841298D01*
X88655282Y-60804988D01*
X88530800Y-60792728D01*
X86830800Y-60792728D01*
X86706318Y-60804988D01*
X86586620Y-60841298D01*
X86476306Y-60900263D01*
X86379615Y-60979615D01*
X86300263Y-61076306D01*
X86241298Y-61186620D01*
X86204988Y-61306318D01*
X86192728Y-61430800D01*
X86192728Y-63130800D01*
X86204988Y-63255282D01*
X86241298Y-63374980D01*
X86300263Y-63485294D01*
X86379615Y-63581985D01*
X86476306Y-63661337D01*
X86586620Y-63720302D01*
X86706318Y-63756612D01*
X86830800Y-63768872D01*
X88530800Y-63768872D01*
X88655282Y-63756612D01*
X88774980Y-63720302D01*
X88885294Y-63661337D01*
X88981985Y-63581985D01*
X89061337Y-63485294D01*
X89120302Y-63374980D01*
X89142313Y-63302420D01*
X89274168Y-63434275D01*
X89517389Y-63596790D01*
X89787642Y-63708732D01*
X90074540Y-63765800D01*
X90367060Y-63765800D01*
X90653958Y-63708732D01*
X90924211Y-63596790D01*
X91167432Y-63434275D01*
X91374275Y-63227432D01*
X91490800Y-63053040D01*
X91607325Y-63227432D01*
X91814168Y-63434275D01*
X92057389Y-63596790D01*
X92327642Y-63708732D01*
X92614540Y-63765800D01*
X92907060Y-63765800D01*
X93193958Y-63708732D01*
X93464211Y-63596790D01*
X93707432Y-63434275D01*
X93914275Y-63227432D01*
X94030800Y-63053040D01*
X94147325Y-63227432D01*
X94354168Y-63434275D01*
X94597389Y-63596790D01*
X94867642Y-63708732D01*
X95154540Y-63765800D01*
X95447060Y-63765800D01*
X95733958Y-63708732D01*
X96004211Y-63596790D01*
X96247432Y-63434275D01*
X96454275Y-63227432D01*
X96570800Y-63053040D01*
X96687325Y-63227432D01*
X96894168Y-63434275D01*
X97137389Y-63596790D01*
X97407642Y-63708732D01*
X97694540Y-63765800D01*
X97987060Y-63765800D01*
X98273958Y-63708732D01*
X98544211Y-63596790D01*
X98787432Y-63434275D01*
X98994275Y-63227432D01*
X99110800Y-63053040D01*
X99227325Y-63227432D01*
X99434168Y-63434275D01*
X99677389Y-63596790D01*
X99947642Y-63708732D01*
X100234540Y-63765800D01*
X100527060Y-63765800D01*
X100813958Y-63708732D01*
X101084211Y-63596790D01*
X101327432Y-63434275D01*
X101534275Y-63227432D01*
X101650800Y-63053040D01*
X101767325Y-63227432D01*
X101974168Y-63434275D01*
X102217389Y-63596790D01*
X102487642Y-63708732D01*
X102774540Y-63765800D01*
X103067060Y-63765800D01*
X103353958Y-63708732D01*
X103624211Y-63596790D01*
X103867432Y-63434275D01*
X104074275Y-63227432D01*
X104190800Y-63053040D01*
X104307325Y-63227432D01*
X104514168Y-63434275D01*
X104757389Y-63596790D01*
X105027642Y-63708732D01*
X105314540Y-63765800D01*
X105607060Y-63765800D01*
X105893958Y-63708732D01*
X106164211Y-63596790D01*
X106407432Y-63434275D01*
X106614275Y-63227432D01*
X106730800Y-63053040D01*
X106847325Y-63227432D01*
X107054168Y-63434275D01*
X107297389Y-63596790D01*
X107567642Y-63708732D01*
X107854540Y-63765800D01*
X108147060Y-63765800D01*
X108433958Y-63708732D01*
X108704211Y-63596790D01*
X108947432Y-63434275D01*
X109154275Y-63227432D01*
X109270800Y-63053040D01*
X109387325Y-63227432D01*
X109594168Y-63434275D01*
X109837389Y-63596790D01*
X110107642Y-63708732D01*
X110394540Y-63765800D01*
X110687060Y-63765800D01*
X110973958Y-63708732D01*
X111244211Y-63596790D01*
X111487432Y-63434275D01*
X111694275Y-63227432D01*
X111810800Y-63053040D01*
X111927325Y-63227432D01*
X112134168Y-63434275D01*
X112377389Y-63596790D01*
X112647642Y-63708732D01*
X112934540Y-63765800D01*
X113227060Y-63765800D01*
X113513958Y-63708732D01*
X113784211Y-63596790D01*
X114027432Y-63434275D01*
X114234275Y-63227432D01*
X114350800Y-63053040D01*
X114467325Y-63227432D01*
X114674168Y-63434275D01*
X114917389Y-63596790D01*
X115187642Y-63708732D01*
X115474540Y-63765800D01*
X115767060Y-63765800D01*
X116053958Y-63708732D01*
X116324211Y-63596790D01*
X116567432Y-63434275D01*
X116774275Y-63227432D01*
X116890800Y-63053040D01*
X117007325Y-63227432D01*
X117214168Y-63434275D01*
X117457389Y-63596790D01*
X117727642Y-63708732D01*
X118014540Y-63765800D01*
X118307060Y-63765800D01*
X118593958Y-63708732D01*
X118864211Y-63596790D01*
X119107432Y-63434275D01*
X119314275Y-63227432D01*
X119430800Y-63053040D01*
X119547325Y-63227432D01*
X119754168Y-63434275D01*
X119997389Y-63596790D01*
X120267642Y-63708732D01*
X120554540Y-63765800D01*
X120847060Y-63765800D01*
X121133958Y-63708732D01*
X121404211Y-63596790D01*
X121647432Y-63434275D01*
X121854275Y-63227432D01*
X121970800Y-63053040D01*
X122087325Y-63227432D01*
X122294168Y-63434275D01*
X122537389Y-63596790D01*
X122807642Y-63708732D01*
X123094540Y-63765800D01*
X123387060Y-63765800D01*
X123673958Y-63708732D01*
X123944211Y-63596790D01*
X124187432Y-63434275D01*
X124394275Y-63227432D01*
X124510800Y-63053040D01*
X124627325Y-63227432D01*
X124834168Y-63434275D01*
X125077389Y-63596790D01*
X125347642Y-63708732D01*
X125634540Y-63765800D01*
X125927060Y-63765800D01*
X126213958Y-63708732D01*
X126484211Y-63596790D01*
X126727432Y-63434275D01*
X126934275Y-63227432D01*
X127096790Y-62984211D01*
X127208732Y-62713958D01*
X127265800Y-62427060D01*
X127265800Y-62134540D01*
X127208732Y-61847642D01*
X127096790Y-61577389D01*
X126934275Y-61334168D01*
X126727432Y-61127325D01*
X126484211Y-60964810D01*
X126213958Y-60852868D01*
X125927060Y-60795800D01*
X125634540Y-60795800D01*
X125347642Y-60852868D01*
X125077389Y-60964810D01*
X124834168Y-61127325D01*
X124627325Y-61334168D01*
X124510800Y-61508560D01*
X124394275Y-61334168D01*
X124187432Y-61127325D01*
X123944211Y-60964810D01*
X123673958Y-60852868D01*
X123387060Y-60795800D01*
X123094540Y-60795800D01*
X122807642Y-60852868D01*
X122537389Y-60964810D01*
X122294168Y-61127325D01*
X122087325Y-61334168D01*
X121970800Y-61508560D01*
X121854275Y-61334168D01*
X121647432Y-61127325D01*
X121404211Y-60964810D01*
X121133958Y-60852868D01*
X120847060Y-60795800D01*
X120554540Y-60795800D01*
X120267642Y-60852868D01*
X119997389Y-60964810D01*
X119754168Y-61127325D01*
X119547325Y-61334168D01*
X119430800Y-61508560D01*
X119314275Y-61334168D01*
X119107432Y-61127325D01*
X118864211Y-60964810D01*
X118593958Y-60852868D01*
X118307060Y-60795800D01*
X118014540Y-60795800D01*
X117727642Y-60852868D01*
X117457389Y-60964810D01*
X117214168Y-61127325D01*
X117007325Y-61334168D01*
X116890800Y-61508560D01*
X116774275Y-61334168D01*
X116567432Y-61127325D01*
X116324211Y-60964810D01*
X116053958Y-60852868D01*
X115767060Y-60795800D01*
X115474540Y-60795800D01*
X115254392Y-60839590D01*
X110952204Y-56537403D01*
X110928401Y-56508399D01*
X110812676Y-56413426D01*
X110761366Y-56386000D01*
X123203478Y-56386000D01*
X123240800Y-56389676D01*
X123278122Y-56386000D01*
X123278133Y-56386000D01*
X123389786Y-56375003D01*
X123533047Y-56331546D01*
X123665076Y-56260974D01*
X123780801Y-56166001D01*
X123804604Y-56136997D01*
X124542514Y-55399088D01*
X124725065Y-55435400D01*
X125007735Y-55435400D01*
X125284974Y-55380253D01*
X125546127Y-55272080D01*
X125781159Y-55115037D01*
X125981037Y-54915159D01*
X126138080Y-54680127D01*
X126142467Y-54669535D01*
X126254015Y-54855531D01*
X126442986Y-55063919D01*
X126668980Y-55231437D01*
X126923313Y-55351646D01*
X127057361Y-55392304D01*
X127279400Y-55270315D01*
X127279400Y-54127400D01*
X127533400Y-54127400D01*
X127533400Y-55270315D01*
X127755439Y-55392304D01*
X127889487Y-55351646D01*
X128143820Y-55231437D01*
X128369814Y-55063919D01*
X128558785Y-54855531D01*
X128703470Y-54614281D01*
X128798309Y-54349440D01*
X128677024Y-54127400D01*
X127533400Y-54127400D01*
X127279400Y-54127400D01*
X127259400Y-54127400D01*
X127259400Y-53873400D01*
X127279400Y-53873400D01*
X127279400Y-52730485D01*
X127533400Y-52730485D01*
X127533400Y-53873400D01*
X128677024Y-53873400D01*
X128798309Y-53651360D01*
X128703470Y-53386519D01*
X128558785Y-53145269D01*
X128369814Y-52936881D01*
X128143820Y-52769363D01*
X127889487Y-52649154D01*
X127755439Y-52608496D01*
X127533400Y-52730485D01*
X127279400Y-52730485D01*
X127057361Y-52608496D01*
X126923313Y-52649154D01*
X126896400Y-52661874D01*
X126896400Y-47722383D01*
X126987826Y-47760253D01*
X127265065Y-47815400D01*
X127547735Y-47815400D01*
X127824974Y-47760253D01*
X128086127Y-47652080D01*
X128321159Y-47495037D01*
X128521037Y-47295159D01*
X128678080Y-47060127D01*
X128786253Y-46798974D01*
X128841400Y-46521735D01*
X128841400Y-46239065D01*
X128786253Y-45961826D01*
X128678080Y-45700673D01*
X128521037Y-45465641D01*
X128321159Y-45265763D01*
X128086127Y-45108720D01*
X127824974Y-45000547D01*
X127547735Y-44945400D01*
X127265065Y-44945400D01*
X126987826Y-45000547D01*
X126896400Y-45038417D01*
X126896400Y-43197726D01*
X126923313Y-43210446D01*
X127057361Y-43251104D01*
X127279400Y-43129115D01*
X127279400Y-41986200D01*
X127533400Y-41986200D01*
X127533400Y-43129115D01*
X127755439Y-43251104D01*
X127889487Y-43210446D01*
X128143820Y-43090237D01*
X128369814Y-42922719D01*
X128558785Y-42714331D01*
X128703470Y-42473081D01*
X128798309Y-42208240D01*
X128677024Y-41986200D01*
X127533400Y-41986200D01*
X127279400Y-41986200D01*
X127259400Y-41986200D01*
X127259400Y-41732200D01*
X127279400Y-41732200D01*
X127279400Y-41712200D01*
X127533400Y-41712200D01*
X127533400Y-41732200D01*
X128677024Y-41732200D01*
X128798309Y-41510160D01*
X128703470Y-41245319D01*
X128558785Y-41004069D01*
X128503225Y-40942800D01*
X132275022Y-40942800D01*
X132399725Y-41129432D01*
X132606568Y-41336275D01*
X132780960Y-41452800D01*
X132606568Y-41569325D01*
X132399725Y-41776168D01*
X132237210Y-42019389D01*
X132125268Y-42289642D01*
X132068200Y-42576540D01*
X132068200Y-42869060D01*
X132125268Y-43155958D01*
X132237210Y-43426211D01*
X132399725Y-43669432D01*
X132606568Y-43876275D01*
X132780960Y-43992800D01*
X132606568Y-44109325D01*
X132399725Y-44316168D01*
X132237210Y-44559389D01*
X132125268Y-44829642D01*
X132068200Y-45116540D01*
X132068200Y-45409060D01*
X132125268Y-45695958D01*
X132237210Y-45966211D01*
X132399725Y-46209432D01*
X132606568Y-46416275D01*
X132849789Y-46578790D01*
X133120042Y-46690732D01*
X133406940Y-46747800D01*
X133699460Y-46747800D01*
X133986358Y-46690732D01*
X134256611Y-46578790D01*
X134499832Y-46416275D01*
X134706675Y-46209432D01*
X134869190Y-45966211D01*
X134981132Y-45695958D01*
X135038200Y-45409060D01*
X135038200Y-45116540D01*
X134994409Y-44896392D01*
X136147004Y-43743798D01*
X136176001Y-43720001D01*
X136217502Y-43669432D01*
X136270974Y-43604277D01*
X136341546Y-43472247D01*
X136349205Y-43446997D01*
X136385003Y-43328986D01*
X136396000Y-43217333D01*
X136396000Y-43217323D01*
X136399676Y-43180001D01*
X136396000Y-43142678D01*
X136396000Y-36511723D01*
X136399676Y-36474400D01*
X136396000Y-36437077D01*
X136396000Y-36437067D01*
X136385003Y-36325414D01*
X136341546Y-36182153D01*
X136294120Y-36093426D01*
X136270974Y-36050123D01*
X136199799Y-35963397D01*
X136176001Y-35934399D01*
X136147003Y-35910601D01*
X135234604Y-34998202D01*
X135210801Y-34969199D01*
X135095076Y-34874226D01*
X134963047Y-34803654D01*
X134819786Y-34760197D01*
X134708133Y-34749200D01*
X134708122Y-34749200D01*
X134670800Y-34745524D01*
X134633478Y-34749200D01*
X134101451Y-34749200D01*
X134184452Y-34719757D01*
X134434555Y-34570778D01*
X134650788Y-34375869D01*
X134824841Y-34142520D01*
X134950025Y-33879699D01*
X134994676Y-33732490D01*
X134873355Y-33502600D01*
X133680200Y-33502600D01*
X133680200Y-33522600D01*
X133426200Y-33522600D01*
X133426200Y-33502600D01*
X132233045Y-33502600D01*
X132111724Y-33732490D01*
X132156375Y-33879699D01*
X132281559Y-34142520D01*
X132455612Y-34375869D01*
X132671845Y-34570778D01*
X132921948Y-34719757D01*
X133004949Y-34749200D01*
X128991202Y-34749200D01*
X128805088Y-34563086D01*
X128841400Y-34380535D01*
X128841400Y-34097865D01*
X128786253Y-33820626D01*
X128678080Y-33559473D01*
X128521037Y-33324441D01*
X128321159Y-33124563D01*
X128086127Y-32967520D01*
X127824974Y-32859347D01*
X127547735Y-32804200D01*
X127265065Y-32804200D01*
X126987826Y-32859347D01*
X126726673Y-32967520D01*
X126491641Y-33124563D01*
X126291763Y-33324441D01*
X126188357Y-33479200D01*
X126084443Y-33479200D01*
X125981037Y-33324441D01*
X125781159Y-33124563D01*
X125546127Y-32967520D01*
X125284974Y-32859347D01*
X125007735Y-32804200D01*
X124725065Y-32804200D01*
X124542514Y-32840512D01*
X123855404Y-32153403D01*
X123831601Y-32124399D01*
X123715876Y-32029426D01*
X123583847Y-31958854D01*
X123440586Y-31915397D01*
X123328933Y-31904400D01*
X123328922Y-31904400D01*
X123291600Y-31900724D01*
X123254278Y-31904400D01*
X106107733Y-31904400D01*
X106070400Y-31900723D01*
X106033067Y-31904400D01*
X105921414Y-31915397D01*
X105778153Y-31958854D01*
X105646124Y-32029426D01*
X105530399Y-32124399D01*
X105506601Y-32153397D01*
X104717886Y-32942112D01*
X104535335Y-32905800D01*
X104252665Y-32905800D01*
X103975426Y-32960947D01*
X103714273Y-33069120D01*
X103479241Y-33226163D01*
X103279363Y-33426041D01*
X103175957Y-33580800D01*
X103072043Y-33580800D01*
X102968637Y-33426041D01*
X102768759Y-33226163D01*
X102533727Y-33069120D01*
X102272574Y-32960947D01*
X101995335Y-32905800D01*
X101712665Y-32905800D01*
X101435426Y-32960947D01*
X101174273Y-33069120D01*
X100939241Y-33226163D01*
X100739363Y-33426041D01*
X100584000Y-33658559D01*
X100428637Y-33426041D01*
X100228759Y-33226163D01*
X99993727Y-33069120D01*
X99732574Y-32960947D01*
X99455335Y-32905800D01*
X99172665Y-32905800D01*
X98895426Y-32960947D01*
X98634273Y-33069120D01*
X98399241Y-33226163D01*
X98199363Y-33426041D01*
X98044000Y-33658559D01*
X97888637Y-33426041D01*
X97688759Y-33226163D01*
X97453727Y-33069120D01*
X97192574Y-32960947D01*
X96915335Y-32905800D01*
X96632665Y-32905800D01*
X96355426Y-32960947D01*
X96094273Y-33069120D01*
X95859241Y-33226163D01*
X95659363Y-33426041D01*
X95504000Y-33658559D01*
X95348637Y-33426041D01*
X95148759Y-33226163D01*
X94913727Y-33069120D01*
X94652574Y-32960947D01*
X94375335Y-32905800D01*
X94092665Y-32905800D01*
X93815426Y-32960947D01*
X93554273Y-33069120D01*
X93319241Y-33226163D01*
X93119363Y-33426041D01*
X92964000Y-33658559D01*
X92808637Y-33426041D01*
X92608759Y-33226163D01*
X92373727Y-33069120D01*
X92112574Y-32960947D01*
X91835335Y-32905800D01*
X91552665Y-32905800D01*
X91275426Y-32960947D01*
X91014273Y-33069120D01*
X90779241Y-33226163D01*
X90579363Y-33426041D01*
X90424000Y-33658559D01*
X90268637Y-33426041D01*
X90068759Y-33226163D01*
X89833727Y-33069120D01*
X89572574Y-32960947D01*
X89295335Y-32905800D01*
X89012665Y-32905800D01*
X88735426Y-32960947D01*
X88474273Y-33069120D01*
X88239241Y-33226163D01*
X88039363Y-33426041D01*
X87884000Y-33658559D01*
X87728637Y-33426041D01*
X87528759Y-33226163D01*
X87293727Y-33069120D01*
X87032574Y-32960947D01*
X86755335Y-32905800D01*
X86472665Y-32905800D01*
X86195426Y-32960947D01*
X85934273Y-33069120D01*
X85699241Y-33226163D01*
X85499363Y-33426041D01*
X85342320Y-33661073D01*
X85234147Y-33922226D01*
X85179000Y-34199465D01*
X79654000Y-34199465D01*
X79654000Y-29068665D01*
X85331400Y-29068665D01*
X85331400Y-29351335D01*
X85386547Y-29628574D01*
X85494720Y-29889727D01*
X85651763Y-30124759D01*
X85851641Y-30324637D01*
X86086673Y-30481680D01*
X86347826Y-30589853D01*
X86625065Y-30645000D01*
X86907735Y-30645000D01*
X87184974Y-30589853D01*
X87446127Y-30481680D01*
X87681159Y-30324637D01*
X87803094Y-30202702D01*
X88453303Y-30202702D01*
X88524886Y-30446671D01*
X88780396Y-30567571D01*
X89054584Y-30636300D01*
X89336912Y-30650217D01*
X89616530Y-30608787D01*
X89882692Y-30513603D01*
X90007914Y-30446671D01*
X90079497Y-30202702D01*
X89266400Y-29389605D01*
X88453303Y-30202702D01*
X87803094Y-30202702D01*
X87881037Y-30124759D01*
X88015092Y-29924131D01*
X88029729Y-29951514D01*
X88273698Y-30023097D01*
X89086795Y-29210000D01*
X89446005Y-29210000D01*
X90259102Y-30023097D01*
X90503071Y-29951514D01*
X90623971Y-29696004D01*
X90692700Y-29421816D01*
X90706617Y-29139488D01*
X90665187Y-28859870D01*
X90570003Y-28593708D01*
X90503071Y-28468486D01*
X90259102Y-28396903D01*
X89446005Y-29210000D01*
X89086795Y-29210000D01*
X88273698Y-28396903D01*
X88029729Y-28468486D01*
X88016076Y-28497341D01*
X87881037Y-28295241D01*
X87803094Y-28217298D01*
X88453303Y-28217298D01*
X89266400Y-29030395D01*
X90079497Y-28217298D01*
X90007914Y-27973329D01*
X89752404Y-27852429D01*
X89478216Y-27783700D01*
X89195888Y-27769783D01*
X88916270Y-27811213D01*
X88650108Y-27906397D01*
X88524886Y-27973329D01*
X88453303Y-28217298D01*
X87803094Y-28217298D01*
X87681159Y-28095363D01*
X87446127Y-27938320D01*
X87184974Y-27830147D01*
X86907735Y-27775000D01*
X86625065Y-27775000D01*
X86347826Y-27830147D01*
X86086673Y-27938320D01*
X85851641Y-28095363D01*
X85651763Y-28295241D01*
X85494720Y-28530273D01*
X85386547Y-28791426D01*
X85331400Y-29068665D01*
X79654000Y-29068665D01*
X79654000Y-24529321D01*
X80313400Y-24529321D01*
X80313400Y-24949879D01*
X80395447Y-25362356D01*
X80556388Y-25750902D01*
X80790037Y-26100583D01*
X81087417Y-26397963D01*
X81437098Y-26631612D01*
X81825644Y-26792553D01*
X82238121Y-26874600D01*
X82658679Y-26874600D01*
X83071156Y-26792553D01*
X83459702Y-26631612D01*
X83809383Y-26397963D01*
X84106763Y-26100583D01*
X84340412Y-25750902D01*
X84501353Y-25362356D01*
X84583400Y-24949879D01*
X84583400Y-24676000D01*
X94878728Y-24676000D01*
X94890988Y-24800482D01*
X94927298Y-24920180D01*
X94986263Y-25030494D01*
X95065615Y-25127185D01*
X95162306Y-25206537D01*
X95272620Y-25265502D01*
X95392318Y-25301812D01*
X95516800Y-25314072D01*
X96031050Y-25311000D01*
X96189800Y-25152250D01*
X96189800Y-24003000D01*
X95040550Y-24003000D01*
X94881800Y-24161750D01*
X94878728Y-24676000D01*
X84583400Y-24676000D01*
X84583400Y-24529321D01*
X84501353Y-24116844D01*
X84340412Y-23728298D01*
X84106763Y-23378617D01*
X83809383Y-23081237D01*
X83801546Y-23076000D01*
X94878728Y-23076000D01*
X94881800Y-23590250D01*
X95040550Y-23749000D01*
X96189800Y-23749000D01*
X96189800Y-22599750D01*
X96443800Y-22599750D01*
X96443800Y-23749000D01*
X96463800Y-23749000D01*
X96463800Y-24003000D01*
X96443800Y-24003000D01*
X96443800Y-25152250D01*
X96602550Y-25311000D01*
X97116800Y-25314072D01*
X97241282Y-25301812D01*
X97360980Y-25265502D01*
X97471294Y-25206537D01*
X97567985Y-25127185D01*
X97647337Y-25030494D01*
X97706302Y-24920180D01*
X97742612Y-24800482D01*
X97743443Y-24792039D01*
X97842801Y-24891397D01*
X97842800Y-27322221D01*
X97656168Y-27446925D01*
X97449325Y-27653768D01*
X97286810Y-27896989D01*
X97174868Y-28167242D01*
X97117800Y-28454140D01*
X97117800Y-28746660D01*
X97174868Y-29033558D01*
X97286810Y-29303811D01*
X97449325Y-29547032D01*
X97656168Y-29753875D01*
X97899389Y-29916390D01*
X98169642Y-30028332D01*
X98456540Y-30085400D01*
X98749060Y-30085400D01*
X99035958Y-30028332D01*
X99306211Y-29916390D01*
X99549432Y-29753875D01*
X99756275Y-29547032D01*
X99872800Y-29372640D01*
X99989325Y-29547032D01*
X100196168Y-29753875D01*
X100439389Y-29916390D01*
X100709642Y-30028332D01*
X100996540Y-30085400D01*
X101289060Y-30085400D01*
X101575958Y-30028332D01*
X101846211Y-29916390D01*
X102089432Y-29753875D01*
X102296275Y-29547032D01*
X102412800Y-29372640D01*
X102529325Y-29547032D01*
X102736168Y-29753875D01*
X102979389Y-29916390D01*
X103249642Y-30028332D01*
X103536540Y-30085400D01*
X103829060Y-30085400D01*
X104115958Y-30028332D01*
X104386211Y-29916390D01*
X104629432Y-29753875D01*
X104836275Y-29547032D01*
X104952800Y-29372640D01*
X105069325Y-29547032D01*
X105276168Y-29753875D01*
X105519389Y-29916390D01*
X105789642Y-30028332D01*
X106076540Y-30085400D01*
X106369060Y-30085400D01*
X106655958Y-30028332D01*
X106926211Y-29916390D01*
X107169432Y-29753875D01*
X107376275Y-29547032D01*
X107492800Y-29372640D01*
X107609325Y-29547032D01*
X107816168Y-29753875D01*
X108059389Y-29916390D01*
X108329642Y-30028332D01*
X108616540Y-30085400D01*
X108909060Y-30085400D01*
X109195958Y-30028332D01*
X109466211Y-29916390D01*
X109709432Y-29753875D01*
X109916275Y-29547032D01*
X110032800Y-29372640D01*
X110149325Y-29547032D01*
X110356168Y-29753875D01*
X110599389Y-29916390D01*
X110869642Y-30028332D01*
X111156540Y-30085400D01*
X111449060Y-30085400D01*
X111735958Y-30028332D01*
X112006211Y-29916390D01*
X112249432Y-29753875D01*
X112456275Y-29547032D01*
X112572800Y-29372640D01*
X112689325Y-29547032D01*
X112896168Y-29753875D01*
X113139389Y-29916390D01*
X113409642Y-30028332D01*
X113696540Y-30085400D01*
X113989060Y-30085400D01*
X114275958Y-30028332D01*
X114546211Y-29916390D01*
X114789432Y-29753875D01*
X114921287Y-29622020D01*
X114943298Y-29694580D01*
X115002263Y-29804894D01*
X115081615Y-29901585D01*
X115178306Y-29980937D01*
X115288620Y-30039902D01*
X115408318Y-30076212D01*
X115532800Y-30088472D01*
X117232800Y-30088472D01*
X117357282Y-30076212D01*
X117476980Y-30039902D01*
X117587294Y-29980937D01*
X117683985Y-29901585D01*
X117763337Y-29804894D01*
X117822302Y-29694580D01*
X117858612Y-29574882D01*
X117870872Y-29450400D01*
X117870872Y-28865465D01*
X123482200Y-28865465D01*
X123482200Y-29148135D01*
X123537347Y-29425374D01*
X123645520Y-29686527D01*
X123802563Y-29921559D01*
X124002441Y-30121437D01*
X124237473Y-30278480D01*
X124498626Y-30386653D01*
X124775865Y-30441800D01*
X125058535Y-30441800D01*
X125335774Y-30386653D01*
X125596927Y-30278480D01*
X125831959Y-30121437D01*
X125953894Y-29999502D01*
X126604103Y-29999502D01*
X126675686Y-30243471D01*
X126931196Y-30364371D01*
X127205384Y-30433100D01*
X127487712Y-30447017D01*
X127767330Y-30405587D01*
X128033492Y-30310403D01*
X128158714Y-30243471D01*
X128230297Y-29999502D01*
X128216395Y-29985600D01*
X132065128Y-29985600D01*
X132065128Y-31685600D01*
X132077388Y-31810082D01*
X132113698Y-31929780D01*
X132172663Y-32040094D01*
X132252015Y-32136785D01*
X132348706Y-32216137D01*
X132459020Y-32275102D01*
X132539666Y-32299566D01*
X132455612Y-32375331D01*
X132281559Y-32608680D01*
X132156375Y-32871501D01*
X132111724Y-33018710D01*
X132233045Y-33248600D01*
X133426200Y-33248600D01*
X133426200Y-33228600D01*
X133680200Y-33228600D01*
X133680200Y-33248600D01*
X134873355Y-33248600D01*
X134994676Y-33018710D01*
X134950025Y-32871501D01*
X134824841Y-32608680D01*
X134650788Y-32375331D01*
X134566734Y-32299566D01*
X134647380Y-32275102D01*
X134757694Y-32216137D01*
X134854385Y-32136785D01*
X134933737Y-32040094D01*
X134992702Y-31929780D01*
X135029012Y-31810082D01*
X135041272Y-31685600D01*
X135041272Y-29985600D01*
X135029012Y-29861118D01*
X134992702Y-29741420D01*
X134933737Y-29631106D01*
X134854385Y-29534415D01*
X134757694Y-29455063D01*
X134647380Y-29396098D01*
X134527682Y-29359788D01*
X134403200Y-29347528D01*
X132703200Y-29347528D01*
X132578718Y-29359788D01*
X132459020Y-29396098D01*
X132348706Y-29455063D01*
X132252015Y-29534415D01*
X132172663Y-29631106D01*
X132113698Y-29741420D01*
X132077388Y-29861118D01*
X132065128Y-29985600D01*
X128216395Y-29985600D01*
X127417200Y-29186405D01*
X126604103Y-29999502D01*
X125953894Y-29999502D01*
X126031837Y-29921559D01*
X126165892Y-29720931D01*
X126180529Y-29748314D01*
X126424498Y-29819897D01*
X127237595Y-29006800D01*
X127596805Y-29006800D01*
X128409902Y-29819897D01*
X128653871Y-29748314D01*
X128774771Y-29492804D01*
X128843500Y-29218616D01*
X128857417Y-28936288D01*
X128815987Y-28656670D01*
X128720803Y-28390508D01*
X128653871Y-28265286D01*
X128409902Y-28193703D01*
X127596805Y-29006800D01*
X127237595Y-29006800D01*
X126424498Y-28193703D01*
X126180529Y-28265286D01*
X126166876Y-28294141D01*
X126031837Y-28092041D01*
X125953894Y-28014098D01*
X126604103Y-28014098D01*
X127417200Y-28827195D01*
X128230297Y-28014098D01*
X128158714Y-27770129D01*
X127903204Y-27649229D01*
X127629016Y-27580500D01*
X127346688Y-27566583D01*
X127067070Y-27608013D01*
X126800908Y-27703197D01*
X126675686Y-27770129D01*
X126604103Y-28014098D01*
X125953894Y-28014098D01*
X125831959Y-27892163D01*
X125596927Y-27735120D01*
X125335774Y-27626947D01*
X125058535Y-27571800D01*
X124775865Y-27571800D01*
X124498626Y-27626947D01*
X124237473Y-27735120D01*
X124002441Y-27892163D01*
X123802563Y-28092041D01*
X123645520Y-28327073D01*
X123537347Y-28588226D01*
X123482200Y-28865465D01*
X117870872Y-28865465D01*
X117870872Y-27750400D01*
X117858612Y-27625918D01*
X117822302Y-27506220D01*
X117763337Y-27395906D01*
X117683985Y-27299215D01*
X117587294Y-27219863D01*
X117476980Y-27160898D01*
X117396800Y-27136576D01*
X117396800Y-25094043D01*
X117551559Y-24990637D01*
X117751437Y-24790759D01*
X117892180Y-24580121D01*
X131418200Y-24580121D01*
X131418200Y-25000679D01*
X131500247Y-25413156D01*
X131661188Y-25801702D01*
X131894837Y-26151383D01*
X132192217Y-26448763D01*
X132541898Y-26682412D01*
X132930444Y-26843353D01*
X133342921Y-26925400D01*
X133763479Y-26925400D01*
X134175956Y-26843353D01*
X134564502Y-26682412D01*
X134914183Y-26448763D01*
X135211563Y-26151383D01*
X135445212Y-25801702D01*
X135606153Y-25413156D01*
X135688200Y-25000679D01*
X135688200Y-24580121D01*
X135606153Y-24167644D01*
X135445212Y-23779098D01*
X135211563Y-23429417D01*
X134914183Y-23132037D01*
X134564502Y-22898388D01*
X134175956Y-22737447D01*
X133763479Y-22655400D01*
X133342921Y-22655400D01*
X132930444Y-22737447D01*
X132541898Y-22898388D01*
X132192217Y-23132037D01*
X131894837Y-23429417D01*
X131661188Y-23779098D01*
X131500247Y-24167644D01*
X131418200Y-24580121D01*
X117892180Y-24580121D01*
X117908480Y-24555727D01*
X118016653Y-24294574D01*
X118071800Y-24017335D01*
X118071800Y-23734665D01*
X118016653Y-23457426D01*
X117908480Y-23196273D01*
X117751437Y-22961241D01*
X117551559Y-22761363D01*
X117316527Y-22604320D01*
X117055374Y-22496147D01*
X116778135Y-22441000D01*
X116495465Y-22441000D01*
X116218226Y-22496147D01*
X115957073Y-22604320D01*
X115722041Y-22761363D01*
X115522163Y-22961241D01*
X115366800Y-23193759D01*
X115211437Y-22961241D01*
X115011559Y-22761363D01*
X114776527Y-22604320D01*
X114515374Y-22496147D01*
X114238135Y-22441000D01*
X113955465Y-22441000D01*
X113678226Y-22496147D01*
X113417073Y-22604320D01*
X113182041Y-22761363D01*
X112982163Y-22961241D01*
X112826800Y-23193759D01*
X112671437Y-22961241D01*
X112471559Y-22761363D01*
X112236527Y-22604320D01*
X111975374Y-22496147D01*
X111698135Y-22441000D01*
X111415465Y-22441000D01*
X111138226Y-22496147D01*
X110877073Y-22604320D01*
X110642041Y-22761363D01*
X110442163Y-22961241D01*
X110286800Y-23193759D01*
X110131437Y-22961241D01*
X109931559Y-22761363D01*
X109696527Y-22604320D01*
X109435374Y-22496147D01*
X109158135Y-22441000D01*
X108875465Y-22441000D01*
X108598226Y-22496147D01*
X108337073Y-22604320D01*
X108102041Y-22761363D01*
X107902163Y-22961241D01*
X107746800Y-23193759D01*
X107591437Y-22961241D01*
X107391559Y-22761363D01*
X107156527Y-22604320D01*
X106895374Y-22496147D01*
X106618135Y-22441000D01*
X106335465Y-22441000D01*
X106058226Y-22496147D01*
X105797073Y-22604320D01*
X105562041Y-22761363D01*
X105362163Y-22961241D01*
X105206800Y-23193759D01*
X105051437Y-22961241D01*
X104851559Y-22761363D01*
X104616527Y-22604320D01*
X104355374Y-22496147D01*
X104078135Y-22441000D01*
X103795465Y-22441000D01*
X103518226Y-22496147D01*
X103257073Y-22604320D01*
X103022041Y-22761363D01*
X102822163Y-22961241D01*
X102666800Y-23193759D01*
X102511437Y-22961241D01*
X102311559Y-22761363D01*
X102076527Y-22604320D01*
X101815374Y-22496147D01*
X101538135Y-22441000D01*
X101255465Y-22441000D01*
X100978226Y-22496147D01*
X100717073Y-22604320D01*
X100482041Y-22761363D01*
X100282163Y-22961241D01*
X100126800Y-23193759D01*
X99971437Y-22961241D01*
X99771559Y-22761363D01*
X99536527Y-22604320D01*
X99275374Y-22496147D01*
X98998135Y-22441000D01*
X98715465Y-22441000D01*
X98438226Y-22496147D01*
X98177073Y-22604320D01*
X97942041Y-22761363D01*
X97743443Y-22959961D01*
X97742612Y-22951518D01*
X97706302Y-22831820D01*
X97647337Y-22721506D01*
X97567985Y-22624815D01*
X97471294Y-22545463D01*
X97360980Y-22486498D01*
X97241282Y-22450188D01*
X97116800Y-22437928D01*
X96602550Y-22441000D01*
X96443800Y-22599750D01*
X96189800Y-22599750D01*
X96031050Y-22441000D01*
X95516800Y-22437928D01*
X95392318Y-22450188D01*
X95272620Y-22486498D01*
X95162306Y-22545463D01*
X95065615Y-22624815D01*
X94986263Y-22721506D01*
X94927298Y-22831820D01*
X94890988Y-22951518D01*
X94878728Y-23076000D01*
X83801546Y-23076000D01*
X83459702Y-22847588D01*
X83071156Y-22686647D01*
X82658679Y-22604600D01*
X82238121Y-22604600D01*
X81825644Y-22686647D01*
X81437098Y-22847588D01*
X81087417Y-23081237D01*
X80790037Y-23378617D01*
X80556388Y-23728298D01*
X80395447Y-24116844D01*
X80313400Y-24529321D01*
X79654000Y-24529321D01*
X79654000Y-21488000D01*
X136754000Y-21488000D01*
X136754001Y-67513600D01*
G37*
%TD.AperFunction*%
D17*
X111406401Y-38191597D02*
X110530401Y-39067597D01*
X110501398Y-39091400D01*
X110460386Y-39141374D01*
X110406425Y-39207125D01*
X110356568Y-39300401D01*
X110335853Y-39339155D01*
X110292396Y-39482416D01*
X110281399Y-39594069D01*
X110281399Y-39594079D01*
X110277723Y-39631401D01*
X110281399Y-39668724D01*
X110281399Y-40421994D01*
X109912150Y-40424200D01*
X109753400Y-40582950D01*
X109753400Y-41732200D01*
X109773400Y-41732200D01*
X109773400Y-41986200D01*
X109753400Y-41986200D01*
X109753400Y-43135450D01*
X109912150Y-43294200D01*
X110300203Y-43296518D01*
X110335853Y-43414045D01*
X110406425Y-43546075D01*
X110460386Y-43611826D01*
X110501399Y-43661800D01*
X110530397Y-43685598D01*
X111014906Y-44170108D01*
X110883847Y-44100054D01*
X110740586Y-44056597D01*
X110628933Y-44045600D01*
X110628922Y-44045600D01*
X110591600Y-44041924D01*
X110554278Y-44045600D01*
X90816933Y-44045600D01*
X90779600Y-44041923D01*
X90742267Y-44045600D01*
X90630614Y-44056597D01*
X90487353Y-44100054D01*
X90355324Y-44170626D01*
X90239599Y-44265599D01*
X90215801Y-44294597D01*
X89914000Y-44596398D01*
X89914000Y-44233325D01*
X89917676Y-44196000D01*
X89914000Y-44158675D01*
X89914000Y-44158667D01*
X89903003Y-44047014D01*
X89859546Y-43903753D01*
X89788974Y-43771724D01*
X89694001Y-43655999D01*
X89665004Y-43632202D01*
X89281002Y-43248201D01*
X89281002Y-43230716D01*
X89503039Y-43352704D01*
X89637087Y-43312046D01*
X89891420Y-43191837D01*
X90117414Y-43024319D01*
X90306385Y-42815931D01*
X90417933Y-42629935D01*
X90422320Y-42640527D01*
X90579363Y-42875559D01*
X90779241Y-43075437D01*
X91014273Y-43232480D01*
X91275426Y-43340653D01*
X91552665Y-43395800D01*
X91835335Y-43395800D01*
X92112574Y-43340653D01*
X92373727Y-43232480D01*
X92608759Y-43075437D01*
X92808637Y-42875559D01*
X92964000Y-42643041D01*
X93119363Y-42875559D01*
X93319241Y-43075437D01*
X93554273Y-43232480D01*
X93815426Y-43340653D01*
X94092665Y-43395800D01*
X94375335Y-43395800D01*
X94652574Y-43340653D01*
X94913727Y-43232480D01*
X95148759Y-43075437D01*
X95348637Y-42875559D01*
X95504000Y-42643041D01*
X95659363Y-42875559D01*
X95859241Y-43075437D01*
X96094273Y-43232480D01*
X96355426Y-43340653D01*
X96632665Y-43395800D01*
X96915335Y-43395800D01*
X97192574Y-43340653D01*
X97453727Y-43232480D01*
X97688759Y-43075437D01*
X97888637Y-42875559D01*
X98044000Y-42643041D01*
X98199363Y-42875559D01*
X98399241Y-43075437D01*
X98634273Y-43232480D01*
X98895426Y-43340653D01*
X99172665Y-43395800D01*
X99455335Y-43395800D01*
X99732574Y-43340653D01*
X99993727Y-43232480D01*
X100228759Y-43075437D01*
X100428637Y-42875559D01*
X100584000Y-42643041D01*
X100739363Y-42875559D01*
X100939241Y-43075437D01*
X101174273Y-43232480D01*
X101435426Y-43340653D01*
X101712665Y-43395800D01*
X101995335Y-43395800D01*
X102272574Y-43340653D01*
X102533727Y-43232480D01*
X102768759Y-43075437D01*
X102968637Y-42875559D01*
X103125680Y-42640527D01*
X103130067Y-42629935D01*
X103241615Y-42815931D01*
X103430586Y-43024319D01*
X103656580Y-43191837D01*
X103910913Y-43312046D01*
X104044961Y-43352704D01*
X104267000Y-43230715D01*
X104267000Y-42087800D01*
X104521000Y-42087800D01*
X104521000Y-43230715D01*
X104743039Y-43352704D01*
X104877087Y-43312046D01*
X105131420Y-43191837D01*
X105357414Y-43024319D01*
X105546385Y-42815931D01*
X105640381Y-42659200D01*
X108188328Y-42659200D01*
X108200588Y-42783682D01*
X108236898Y-42903380D01*
X108295863Y-43013694D01*
X108375215Y-43110385D01*
X108471906Y-43189737D01*
X108582220Y-43248702D01*
X108701918Y-43285012D01*
X108826400Y-43297272D01*
X109340650Y-43294200D01*
X109499400Y-43135450D01*
X109499400Y-41986200D01*
X108350150Y-41986200D01*
X108191400Y-42144950D01*
X108188328Y-42659200D01*
X105640381Y-42659200D01*
X105691070Y-42574681D01*
X105785909Y-42309840D01*
X105664624Y-42087800D01*
X104521000Y-42087800D01*
X104267000Y-42087800D01*
X104247000Y-42087800D01*
X104247000Y-41833800D01*
X104267000Y-41833800D01*
X104267000Y-40690885D01*
X104521000Y-40690885D01*
X104521000Y-41833800D01*
X105664624Y-41833800D01*
X105785909Y-41611760D01*
X105691070Y-41346919D01*
X105546385Y-41105669D01*
X105504246Y-41059200D01*
X108188328Y-41059200D01*
X108191400Y-41573450D01*
X108350150Y-41732200D01*
X109499400Y-41732200D01*
X109499400Y-40582950D01*
X109340650Y-40424200D01*
X108826400Y-40421128D01*
X108701918Y-40433388D01*
X108582220Y-40469698D01*
X108471906Y-40528663D01*
X108375215Y-40608015D01*
X108295863Y-40704706D01*
X108236898Y-40815020D01*
X108200588Y-40934718D01*
X108188328Y-41059200D01*
X105504246Y-41059200D01*
X105357414Y-40897281D01*
X105131420Y-40729763D01*
X104877087Y-40609554D01*
X104743039Y-40568896D01*
X104521000Y-40690885D01*
X104267000Y-40690885D01*
X104044961Y-40568896D01*
X103910913Y-40609554D01*
X103656580Y-40729763D01*
X103430586Y-40897281D01*
X103241615Y-41105669D01*
X103130067Y-41291665D01*
X103125680Y-41281073D01*
X102968637Y-41046041D01*
X102768759Y-40846163D01*
X102533727Y-40689120D01*
X102272574Y-40580947D01*
X101995335Y-40525800D01*
X101712665Y-40525800D01*
X101435426Y-40580947D01*
X101174273Y-40689120D01*
X100939241Y-40846163D01*
X100739363Y-41046041D01*
X100584000Y-41278559D01*
X100428637Y-41046041D01*
X100228759Y-40846163D01*
X99993727Y-40689120D01*
X99732574Y-40580947D01*
X99455335Y-40525800D01*
X99172665Y-40525800D01*
X98895426Y-40580947D01*
X98634273Y-40689120D01*
X98399241Y-40846163D01*
X98199363Y-41046041D01*
X98044000Y-41278559D01*
X97888637Y-41046041D01*
X97688759Y-40846163D01*
X97453727Y-40689120D01*
X97192574Y-40580947D01*
X96915335Y-40525800D01*
X96632665Y-40525800D01*
X96355426Y-40580947D01*
X96094273Y-40689120D01*
X95859241Y-40846163D01*
X95659363Y-41046041D01*
X95504000Y-41278559D01*
X95348637Y-41046041D01*
X95148759Y-40846163D01*
X94913727Y-40689120D01*
X94652574Y-40580947D01*
X94375335Y-40525800D01*
X94092665Y-40525800D01*
X93815426Y-40580947D01*
X93554273Y-40689120D01*
X93319241Y-40846163D01*
X93119363Y-41046041D01*
X92964000Y-41278559D01*
X92808637Y-41046041D01*
X92608759Y-40846163D01*
X92373727Y-40689120D01*
X92112574Y-40580947D01*
X91835335Y-40525800D01*
X91552665Y-40525800D01*
X91275426Y-40580947D01*
X91014273Y-40689120D01*
X90779241Y-40846163D01*
X90579363Y-41046041D01*
X90422320Y-41281073D01*
X90417933Y-41291665D01*
X90306385Y-41105669D01*
X90117414Y-40897281D01*
X89891420Y-40729763D01*
X89637087Y-40609554D01*
X89503039Y-40568896D01*
X89281000Y-40690885D01*
X89281000Y-41833800D01*
X89301000Y-41833800D01*
X89301000Y-42087800D01*
X89281000Y-42087800D01*
X89281000Y-42107800D01*
X89027000Y-42107800D01*
X89027000Y-42087800D01*
X89007000Y-42087800D01*
X89007000Y-41833800D01*
X89027000Y-41833800D01*
X89027000Y-40690885D01*
X88804961Y-40568896D01*
X88788999Y-40573737D01*
X88788999Y-40200202D01*
X89665003Y-39324199D01*
X89694001Y-39300401D01*
X89788974Y-39184676D01*
X89859546Y-39052647D01*
X89903003Y-38909386D01*
X89914000Y-38797733D01*
X89914000Y-38797725D01*
X89917676Y-38760400D01*
X89914000Y-38723075D01*
X89914000Y-36175602D01*
X90977801Y-37239403D01*
X91001599Y-37268401D01*
X91117324Y-37363374D01*
X91249353Y-37433946D01*
X91392614Y-37477403D01*
X91504267Y-37488400D01*
X91504276Y-37488400D01*
X91541599Y-37492076D01*
X91578922Y-37488400D01*
X109639878Y-37488400D01*
X109677200Y-37492076D01*
X109714522Y-37488400D01*
X109714533Y-37488400D01*
X109826186Y-37477403D01*
X109969447Y-37433946D01*
X110101476Y-37363374D01*
X110217201Y-37268401D01*
X110241004Y-37239397D01*
X111406400Y-36074002D01*
X111406401Y-38191597D01*
%TA.AperFunction,Conductor*%
D18*
G36*
X111406401Y-38191597D02*
G01*
X110530401Y-39067597D01*
X110501398Y-39091400D01*
X110460386Y-39141374D01*
X110406425Y-39207125D01*
X110356568Y-39300401D01*
X110335853Y-39339155D01*
X110292396Y-39482416D01*
X110281399Y-39594069D01*
X110281399Y-39594079D01*
X110277723Y-39631401D01*
X110281399Y-39668724D01*
X110281399Y-40421994D01*
X109912150Y-40424200D01*
X109753400Y-40582950D01*
X109753400Y-41732200D01*
X109773400Y-41732200D01*
X109773400Y-41986200D01*
X109753400Y-41986200D01*
X109753400Y-43135450D01*
X109912150Y-43294200D01*
X110300203Y-43296518D01*
X110335853Y-43414045D01*
X110406425Y-43546075D01*
X110460386Y-43611826D01*
X110501399Y-43661800D01*
X110530397Y-43685598D01*
X111014906Y-44170108D01*
X110883847Y-44100054D01*
X110740586Y-44056597D01*
X110628933Y-44045600D01*
X110628922Y-44045600D01*
X110591600Y-44041924D01*
X110554278Y-44045600D01*
X90816933Y-44045600D01*
X90779600Y-44041923D01*
X90742267Y-44045600D01*
X90630614Y-44056597D01*
X90487353Y-44100054D01*
X90355324Y-44170626D01*
X90239599Y-44265599D01*
X90215801Y-44294597D01*
X89914000Y-44596398D01*
X89914000Y-44233325D01*
X89917676Y-44196000D01*
X89914000Y-44158675D01*
X89914000Y-44158667D01*
X89903003Y-44047014D01*
X89859546Y-43903753D01*
X89788974Y-43771724D01*
X89694001Y-43655999D01*
X89665004Y-43632202D01*
X89281002Y-43248201D01*
X89281002Y-43230716D01*
X89503039Y-43352704D01*
X89637087Y-43312046D01*
X89891420Y-43191837D01*
X90117414Y-43024319D01*
X90306385Y-42815931D01*
X90417933Y-42629935D01*
X90422320Y-42640527D01*
X90579363Y-42875559D01*
X90779241Y-43075437D01*
X91014273Y-43232480D01*
X91275426Y-43340653D01*
X91552665Y-43395800D01*
X91835335Y-43395800D01*
X92112574Y-43340653D01*
X92373727Y-43232480D01*
X92608759Y-43075437D01*
X92808637Y-42875559D01*
X92964000Y-42643041D01*
X93119363Y-42875559D01*
X93319241Y-43075437D01*
X93554273Y-43232480D01*
X93815426Y-43340653D01*
X94092665Y-43395800D01*
X94375335Y-43395800D01*
X94652574Y-43340653D01*
X94913727Y-43232480D01*
X95148759Y-43075437D01*
X95348637Y-42875559D01*
X95504000Y-42643041D01*
X95659363Y-42875559D01*
X95859241Y-43075437D01*
X96094273Y-43232480D01*
X96355426Y-43340653D01*
X96632665Y-43395800D01*
X96915335Y-43395800D01*
X97192574Y-43340653D01*
X97453727Y-43232480D01*
X97688759Y-43075437D01*
X97888637Y-42875559D01*
X98044000Y-42643041D01*
X98199363Y-42875559D01*
X98399241Y-43075437D01*
X98634273Y-43232480D01*
X98895426Y-43340653D01*
X99172665Y-43395800D01*
X99455335Y-43395800D01*
X99732574Y-43340653D01*
X99993727Y-43232480D01*
X100228759Y-43075437D01*
X100428637Y-42875559D01*
X100584000Y-42643041D01*
X100739363Y-42875559D01*
X100939241Y-43075437D01*
X101174273Y-43232480D01*
X101435426Y-43340653D01*
X101712665Y-43395800D01*
X101995335Y-43395800D01*
X102272574Y-43340653D01*
X102533727Y-43232480D01*
X102768759Y-43075437D01*
X102968637Y-42875559D01*
X103125680Y-42640527D01*
X103130067Y-42629935D01*
X103241615Y-42815931D01*
X103430586Y-43024319D01*
X103656580Y-43191837D01*
X103910913Y-43312046D01*
X104044961Y-43352704D01*
X104267000Y-43230715D01*
X104267000Y-42087800D01*
X104521000Y-42087800D01*
X104521000Y-43230715D01*
X104743039Y-43352704D01*
X104877087Y-43312046D01*
X105131420Y-43191837D01*
X105357414Y-43024319D01*
X105546385Y-42815931D01*
X105640381Y-42659200D01*
X108188328Y-42659200D01*
X108200588Y-42783682D01*
X108236898Y-42903380D01*
X108295863Y-43013694D01*
X108375215Y-43110385D01*
X108471906Y-43189737D01*
X108582220Y-43248702D01*
X108701918Y-43285012D01*
X108826400Y-43297272D01*
X109340650Y-43294200D01*
X109499400Y-43135450D01*
X109499400Y-41986200D01*
X108350150Y-41986200D01*
X108191400Y-42144950D01*
X108188328Y-42659200D01*
X105640381Y-42659200D01*
X105691070Y-42574681D01*
X105785909Y-42309840D01*
X105664624Y-42087800D01*
X104521000Y-42087800D01*
X104267000Y-42087800D01*
X104247000Y-42087800D01*
X104247000Y-41833800D01*
X104267000Y-41833800D01*
X104267000Y-40690885D01*
X104521000Y-40690885D01*
X104521000Y-41833800D01*
X105664624Y-41833800D01*
X105785909Y-41611760D01*
X105691070Y-41346919D01*
X105546385Y-41105669D01*
X105504246Y-41059200D01*
X108188328Y-41059200D01*
X108191400Y-41573450D01*
X108350150Y-41732200D01*
X109499400Y-41732200D01*
X109499400Y-40582950D01*
X109340650Y-40424200D01*
X108826400Y-40421128D01*
X108701918Y-40433388D01*
X108582220Y-40469698D01*
X108471906Y-40528663D01*
X108375215Y-40608015D01*
X108295863Y-40704706D01*
X108236898Y-40815020D01*
X108200588Y-40934718D01*
X108188328Y-41059200D01*
X105504246Y-41059200D01*
X105357414Y-40897281D01*
X105131420Y-40729763D01*
X104877087Y-40609554D01*
X104743039Y-40568896D01*
X104521000Y-40690885D01*
X104267000Y-40690885D01*
X104044961Y-40568896D01*
X103910913Y-40609554D01*
X103656580Y-40729763D01*
X103430586Y-40897281D01*
X103241615Y-41105669D01*
X103130067Y-41291665D01*
X103125680Y-41281073D01*
X102968637Y-41046041D01*
X102768759Y-40846163D01*
X102533727Y-40689120D01*
X102272574Y-40580947D01*
X101995335Y-40525800D01*
X101712665Y-40525800D01*
X101435426Y-40580947D01*
X101174273Y-40689120D01*
X100939241Y-40846163D01*
X100739363Y-41046041D01*
X100584000Y-41278559D01*
X100428637Y-41046041D01*
X100228759Y-40846163D01*
X99993727Y-40689120D01*
X99732574Y-40580947D01*
X99455335Y-40525800D01*
X99172665Y-40525800D01*
X98895426Y-40580947D01*
X98634273Y-40689120D01*
X98399241Y-40846163D01*
X98199363Y-41046041D01*
X98044000Y-41278559D01*
X97888637Y-41046041D01*
X97688759Y-40846163D01*
X97453727Y-40689120D01*
X97192574Y-40580947D01*
X96915335Y-40525800D01*
X96632665Y-40525800D01*
X96355426Y-40580947D01*
X96094273Y-40689120D01*
X95859241Y-40846163D01*
X95659363Y-41046041D01*
X95504000Y-41278559D01*
X95348637Y-41046041D01*
X95148759Y-40846163D01*
X94913727Y-40689120D01*
X94652574Y-40580947D01*
X94375335Y-40525800D01*
X94092665Y-40525800D01*
X93815426Y-40580947D01*
X93554273Y-40689120D01*
X93319241Y-40846163D01*
X93119363Y-41046041D01*
X92964000Y-41278559D01*
X92808637Y-41046041D01*
X92608759Y-40846163D01*
X92373727Y-40689120D01*
X92112574Y-40580947D01*
X91835335Y-40525800D01*
X91552665Y-40525800D01*
X91275426Y-40580947D01*
X91014273Y-40689120D01*
X90779241Y-40846163D01*
X90579363Y-41046041D01*
X90422320Y-41281073D01*
X90417933Y-41291665D01*
X90306385Y-41105669D01*
X90117414Y-40897281D01*
X89891420Y-40729763D01*
X89637087Y-40609554D01*
X89503039Y-40568896D01*
X89281000Y-40690885D01*
X89281000Y-41833800D01*
X89301000Y-41833800D01*
X89301000Y-42087800D01*
X89281000Y-42087800D01*
X89281000Y-42107800D01*
X89027000Y-42107800D01*
X89027000Y-42087800D01*
X89007000Y-42087800D01*
X89007000Y-41833800D01*
X89027000Y-41833800D01*
X89027000Y-40690885D01*
X88804961Y-40568896D01*
X88788999Y-40573737D01*
X88788999Y-40200202D01*
X89665003Y-39324199D01*
X89694001Y-39300401D01*
X89788974Y-39184676D01*
X89859546Y-39052647D01*
X89903003Y-38909386D01*
X89914000Y-38797733D01*
X89914000Y-38797725D01*
X89917676Y-38760400D01*
X89914000Y-38723075D01*
X89914000Y-36175602D01*
X90977801Y-37239403D01*
X91001599Y-37268401D01*
X91117324Y-37363374D01*
X91249353Y-37433946D01*
X91392614Y-37477403D01*
X91504267Y-37488400D01*
X91504276Y-37488400D01*
X91541599Y-37492076D01*
X91578922Y-37488400D01*
X109639878Y-37488400D01*
X109677200Y-37492076D01*
X109714522Y-37488400D01*
X109714533Y-37488400D01*
X109826186Y-37477403D01*
X109969447Y-37433946D01*
X110101476Y-37363374D01*
X110217201Y-37268401D01*
X110241004Y-37239397D01*
X111406400Y-36074002D01*
X111406401Y-38191597D01*
G37*
%TD.AperFunction*%
D17*
X115006201Y-38153803D02*
X115029999Y-38182801D01*
X115145724Y-38277774D01*
X115277753Y-38348346D01*
X115421014Y-38391803D01*
X115532667Y-38402800D01*
X115532676Y-38402800D01*
X115569999Y-38406476D01*
X115607322Y-38402800D01*
X132065128Y-38402800D01*
X132065128Y-38492800D01*
X132077388Y-38617282D01*
X132113698Y-38736980D01*
X132172663Y-38847294D01*
X132252015Y-38943985D01*
X132348706Y-39023337D01*
X132459020Y-39082302D01*
X132531580Y-39104313D01*
X132399725Y-39236168D01*
X132275022Y-39422800D01*
X126580133Y-39422800D01*
X126542800Y-39419123D01*
X126505467Y-39422800D01*
X126393814Y-39433797D01*
X126250553Y-39477254D01*
X126118524Y-39547826D01*
X126002799Y-39642799D01*
X125979001Y-39671797D01*
X125190286Y-40460512D01*
X125007735Y-40424200D01*
X124725065Y-40424200D01*
X124447826Y-40479347D01*
X124186673Y-40587520D01*
X123951641Y-40744563D01*
X123751763Y-40944441D01*
X123596400Y-41176959D01*
X123441037Y-40944441D01*
X123241159Y-40744563D01*
X123006127Y-40587520D01*
X122744974Y-40479347D01*
X122467735Y-40424200D01*
X122185065Y-40424200D01*
X121907826Y-40479347D01*
X121646673Y-40587520D01*
X121411641Y-40744563D01*
X121211763Y-40944441D01*
X121056400Y-41176959D01*
X120901037Y-40944441D01*
X120701159Y-40744563D01*
X120466127Y-40587520D01*
X120204974Y-40479347D01*
X119927735Y-40424200D01*
X119645065Y-40424200D01*
X119367826Y-40479347D01*
X119106673Y-40587520D01*
X118871641Y-40744563D01*
X118671763Y-40944441D01*
X118516400Y-41176959D01*
X118361037Y-40944441D01*
X118161159Y-40744563D01*
X117926127Y-40587520D01*
X117664974Y-40479347D01*
X117387735Y-40424200D01*
X117105065Y-40424200D01*
X116827826Y-40479347D01*
X116566673Y-40587520D01*
X116331641Y-40744563D01*
X116131763Y-40944441D01*
X115976400Y-41176959D01*
X115821037Y-40944441D01*
X115621159Y-40744563D01*
X115386127Y-40587520D01*
X115124974Y-40479347D01*
X114847735Y-40424200D01*
X114565065Y-40424200D01*
X114287826Y-40479347D01*
X114026673Y-40587520D01*
X113791641Y-40744563D01*
X113591763Y-40944441D01*
X113434720Y-41179473D01*
X113430333Y-41190065D01*
X113318785Y-41004069D01*
X113129814Y-40795681D01*
X112903820Y-40628163D01*
X112649487Y-40507954D01*
X112515439Y-40467296D01*
X112293400Y-40589285D01*
X112293400Y-41732200D01*
X112313400Y-41732200D01*
X112313400Y-41986200D01*
X112293400Y-41986200D01*
X112293400Y-42006200D01*
X112039400Y-42006200D01*
X112039400Y-41986200D01*
X112019400Y-41986200D01*
X112019400Y-41732200D01*
X112039400Y-41732200D01*
X112039400Y-40589285D01*
X111817361Y-40467296D01*
X111801399Y-40472137D01*
X111801399Y-39946202D01*
X112677403Y-39070199D01*
X112706401Y-39046401D01*
X112801374Y-38930676D01*
X112871946Y-38798647D01*
X112915403Y-38655386D01*
X112926400Y-38543733D01*
X112926400Y-38543725D01*
X112930076Y-38506400D01*
X112926400Y-38469075D01*
X112926400Y-36074001D01*
X115006201Y-38153803D01*
%TA.AperFunction,Conductor*%
D18*
G36*
X115006201Y-38153803D02*
G01*
X115029999Y-38182801D01*
X115145724Y-38277774D01*
X115277753Y-38348346D01*
X115421014Y-38391803D01*
X115532667Y-38402800D01*
X115532676Y-38402800D01*
X115569999Y-38406476D01*
X115607322Y-38402800D01*
X132065128Y-38402800D01*
X132065128Y-38492800D01*
X132077388Y-38617282D01*
X132113698Y-38736980D01*
X132172663Y-38847294D01*
X132252015Y-38943985D01*
X132348706Y-39023337D01*
X132459020Y-39082302D01*
X132531580Y-39104313D01*
X132399725Y-39236168D01*
X132275022Y-39422800D01*
X126580133Y-39422800D01*
X126542800Y-39419123D01*
X126505467Y-39422800D01*
X126393814Y-39433797D01*
X126250553Y-39477254D01*
X126118524Y-39547826D01*
X126002799Y-39642799D01*
X125979001Y-39671797D01*
X125190286Y-40460512D01*
X125007735Y-40424200D01*
X124725065Y-40424200D01*
X124447826Y-40479347D01*
X124186673Y-40587520D01*
X123951641Y-40744563D01*
X123751763Y-40944441D01*
X123596400Y-41176959D01*
X123441037Y-40944441D01*
X123241159Y-40744563D01*
X123006127Y-40587520D01*
X122744974Y-40479347D01*
X122467735Y-40424200D01*
X122185065Y-40424200D01*
X121907826Y-40479347D01*
X121646673Y-40587520D01*
X121411641Y-40744563D01*
X121211763Y-40944441D01*
X121056400Y-41176959D01*
X120901037Y-40944441D01*
X120701159Y-40744563D01*
X120466127Y-40587520D01*
X120204974Y-40479347D01*
X119927735Y-40424200D01*
X119645065Y-40424200D01*
X119367826Y-40479347D01*
X119106673Y-40587520D01*
X118871641Y-40744563D01*
X118671763Y-40944441D01*
X118516400Y-41176959D01*
X118361037Y-40944441D01*
X118161159Y-40744563D01*
X117926127Y-40587520D01*
X117664974Y-40479347D01*
X117387735Y-40424200D01*
X117105065Y-40424200D01*
X116827826Y-40479347D01*
X116566673Y-40587520D01*
X116331641Y-40744563D01*
X116131763Y-40944441D01*
X115976400Y-41176959D01*
X115821037Y-40944441D01*
X115621159Y-40744563D01*
X115386127Y-40587520D01*
X115124974Y-40479347D01*
X114847735Y-40424200D01*
X114565065Y-40424200D01*
X114287826Y-40479347D01*
X114026673Y-40587520D01*
X113791641Y-40744563D01*
X113591763Y-40944441D01*
X113434720Y-41179473D01*
X113430333Y-41190065D01*
X113318785Y-41004069D01*
X113129814Y-40795681D01*
X112903820Y-40628163D01*
X112649487Y-40507954D01*
X112515439Y-40467296D01*
X112293400Y-40589285D01*
X112293400Y-41732200D01*
X112313400Y-41732200D01*
X112313400Y-41986200D01*
X112293400Y-41986200D01*
X112293400Y-42006200D01*
X112039400Y-42006200D01*
X112039400Y-41986200D01*
X112019400Y-41986200D01*
X112019400Y-41732200D01*
X112039400Y-41732200D01*
X112039400Y-40589285D01*
X111817361Y-40467296D01*
X111801399Y-40472137D01*
X111801399Y-39946202D01*
X112677403Y-39070199D01*
X112706401Y-39046401D01*
X112801374Y-38930676D01*
X112871946Y-38798647D01*
X112915403Y-38655386D01*
X112926400Y-38543733D01*
X112926400Y-38543725D01*
X112930076Y-38506400D01*
X112926400Y-38469075D01*
X112926400Y-36074001D01*
X115006201Y-38153803D01*
G37*
%TD.AperFunction*%
%TD*%
M02*
