%TF.GenerationSoftware,KiCad,Pcbnew,(5.1.9-0-10_14)*%
%TF.CreationDate,2021-07-04T10:57:11-04:00*%
%TF.ProjectId,register-smd,72656769-7374-4657-922d-736d642e6b69,rev?*%
%TF.SameCoordinates,Original*%
%TF.FileFunction,Soldermask,Top*%
%TF.FilePolarity,Negative*%
%FSLAX46Y46*%
G04 Gerber Fmt 4.6, Leading zero omitted, Abs format (unit mm)*
G04 Created by KiCad (PCBNEW (5.1.9-0-10_14)) date 2021-07-04 10:57:11*
%MOMM*%
%LPD*%
G01*
G04 APERTURE LIST*
%ADD10O,1.700000X1.700000*%
%ADD11R,1.700000X1.700000*%
%ADD12O,1.600000X1.600000*%
%ADD13R,1.600000X1.600000*%
%ADD14C,1.600000*%
%ADD15C,0.800000*%
%ADD16C,6.000000*%
%ADD17C,2.600000*%
%ADD18R,2.600000X2.600000*%
G04 APERTURE END LIST*
D10*
%TO.C,J2*%
X148590000Y-97028000D03*
X148590000Y-94488000D03*
X148590000Y-91948000D03*
X148590000Y-89408000D03*
X148590000Y-86868000D03*
X148590000Y-84328000D03*
X148590000Y-81788000D03*
X148590000Y-79248000D03*
X148590000Y-76708000D03*
X148590000Y-74168000D03*
X148590000Y-71628000D03*
X148590000Y-69088000D03*
X148590000Y-66548000D03*
X148590000Y-64008000D03*
X148590000Y-61468000D03*
D11*
X148590000Y-58928000D03*
%TD*%
%TO.C,R38*%
G36*
G01*
X71012000Y-63442002D02*
X71012000Y-62541998D01*
G75*
G02*
X71261998Y-62292000I249998J0D01*
G01*
X71787002Y-62292000D01*
G75*
G02*
X72037000Y-62541998I0J-249998D01*
G01*
X72037000Y-63442002D01*
G75*
G02*
X71787002Y-63692000I-249998J0D01*
G01*
X71261998Y-63692000D01*
G75*
G02*
X71012000Y-63442002I0J249998D01*
G01*
G37*
G36*
G01*
X69187000Y-63442002D02*
X69187000Y-62541998D01*
G75*
G02*
X69436998Y-62292000I249998J0D01*
G01*
X69962002Y-62292000D01*
G75*
G02*
X70212000Y-62541998I0J-249998D01*
G01*
X70212000Y-63442002D01*
G75*
G02*
X69962002Y-63692000I-249998J0D01*
G01*
X69436998Y-63692000D01*
G75*
G02*
X69187000Y-63442002I0J249998D01*
G01*
G37*
%TD*%
%TO.C,D32*%
G36*
G01*
X71062000Y-61162250D02*
X71062000Y-60249750D01*
G75*
G02*
X71305750Y-60006000I243750J0D01*
G01*
X71793250Y-60006000D01*
G75*
G02*
X72037000Y-60249750I0J-243750D01*
G01*
X72037000Y-61162250D01*
G75*
G02*
X71793250Y-61406000I-243750J0D01*
G01*
X71305750Y-61406000D01*
G75*
G02*
X71062000Y-61162250I0J243750D01*
G01*
G37*
G36*
G01*
X69187000Y-61162250D02*
X69187000Y-60249750D01*
G75*
G02*
X69430750Y-60006000I243750J0D01*
G01*
X69918250Y-60006000D01*
G75*
G02*
X70162000Y-60249750I0J-243750D01*
G01*
X70162000Y-61162250D01*
G75*
G02*
X69918250Y-61406000I-243750J0D01*
G01*
X69430750Y-61406000D01*
G75*
G02*
X69187000Y-61162250I0J243750D01*
G01*
G37*
%TD*%
D12*
%TO.C,U47*%
X66040000Y-67818000D03*
X88900000Y-75438000D03*
X68580000Y-67818000D03*
X86360000Y-75438000D03*
X71120000Y-67818000D03*
X83820000Y-75438000D03*
X73660000Y-67818000D03*
X81280000Y-75438000D03*
X76200000Y-67818000D03*
X78740000Y-75438000D03*
X78740000Y-67818000D03*
X76200000Y-75438000D03*
X81280000Y-67818000D03*
X73660000Y-75438000D03*
X83820000Y-67818000D03*
X71120000Y-75438000D03*
X86360000Y-67818000D03*
X68580000Y-75438000D03*
X88900000Y-67818000D03*
D13*
X66040000Y-75438000D03*
%TD*%
D12*
%TO.C,U7*%
X66040000Y-93218000D03*
X88900000Y-100838000D03*
X68580000Y-93218000D03*
X86360000Y-100838000D03*
X71120000Y-93218000D03*
X83820000Y-100838000D03*
X73660000Y-93218000D03*
X81280000Y-100838000D03*
X76200000Y-93218000D03*
X78740000Y-100838000D03*
X78740000Y-93218000D03*
X76200000Y-100838000D03*
X81280000Y-93218000D03*
X73660000Y-100838000D03*
X83820000Y-93218000D03*
X71120000Y-100838000D03*
X86360000Y-93218000D03*
X68580000Y-100838000D03*
X88900000Y-93218000D03*
D13*
X66040000Y-100838000D03*
%TD*%
D12*
%TO.C,U6*%
X94996000Y-93218000D03*
X117856000Y-100838000D03*
X97536000Y-93218000D03*
X115316000Y-100838000D03*
X100076000Y-93218000D03*
X112776000Y-100838000D03*
X102616000Y-93218000D03*
X110236000Y-100838000D03*
X105156000Y-93218000D03*
X107696000Y-100838000D03*
X107696000Y-93218000D03*
X105156000Y-100838000D03*
X110236000Y-93218000D03*
X102616000Y-100838000D03*
X112776000Y-93218000D03*
X100076000Y-100838000D03*
X115316000Y-93218000D03*
X97536000Y-100838000D03*
X117856000Y-93218000D03*
D13*
X94996000Y-100838000D03*
%TD*%
D12*
%TO.C,U5*%
X66040000Y-80264000D03*
X88900000Y-87884000D03*
X68580000Y-80264000D03*
X86360000Y-87884000D03*
X71120000Y-80264000D03*
X83820000Y-87884000D03*
X73660000Y-80264000D03*
X81280000Y-87884000D03*
X76200000Y-80264000D03*
X78740000Y-87884000D03*
X78740000Y-80264000D03*
X76200000Y-87884000D03*
X81280000Y-80264000D03*
X73660000Y-87884000D03*
X83820000Y-80264000D03*
X71120000Y-87884000D03*
X86360000Y-80264000D03*
X68580000Y-87884000D03*
X88900000Y-80264000D03*
D13*
X66040000Y-87884000D03*
%TD*%
D12*
%TO.C,U4*%
X101346000Y-52324000D03*
X116586000Y-59944000D03*
X103886000Y-52324000D03*
X114046000Y-59944000D03*
X106426000Y-52324000D03*
X111506000Y-59944000D03*
X108966000Y-52324000D03*
X108966000Y-59944000D03*
X111506000Y-52324000D03*
X106426000Y-59944000D03*
X114046000Y-52324000D03*
X103886000Y-59944000D03*
X116586000Y-52324000D03*
D13*
X101346000Y-59944000D03*
%TD*%
D12*
%TO.C,U3*%
X94996000Y-80264000D03*
X117856000Y-87884000D03*
X97536000Y-80264000D03*
X115316000Y-87884000D03*
X100076000Y-80264000D03*
X112776000Y-87884000D03*
X102616000Y-80264000D03*
X110236000Y-87884000D03*
X105156000Y-80264000D03*
X107696000Y-87884000D03*
X107696000Y-80264000D03*
X105156000Y-87884000D03*
X110236000Y-80264000D03*
X102616000Y-87884000D03*
X112776000Y-80264000D03*
X100076000Y-87884000D03*
X115316000Y-80264000D03*
X97536000Y-87884000D03*
X117856000Y-80264000D03*
D13*
X94996000Y-87884000D03*
%TD*%
D12*
%TO.C,U2*%
X76962000Y-52324000D03*
X92202000Y-59944000D03*
X79502000Y-52324000D03*
X89662000Y-59944000D03*
X82042000Y-52324000D03*
X87122000Y-59944000D03*
X84582000Y-52324000D03*
X84582000Y-59944000D03*
X87122000Y-52324000D03*
X82042000Y-59944000D03*
X89662000Y-52324000D03*
X79502000Y-59944000D03*
X92202000Y-52324000D03*
D13*
X76962000Y-59944000D03*
%TD*%
D12*
%TO.C,U1*%
X94996000Y-67818000D03*
X117856000Y-75438000D03*
X97536000Y-67818000D03*
X115316000Y-75438000D03*
X100076000Y-67818000D03*
X112776000Y-75438000D03*
X102616000Y-67818000D03*
X110236000Y-75438000D03*
X105156000Y-67818000D03*
X107696000Y-75438000D03*
X107696000Y-67818000D03*
X105156000Y-75438000D03*
X110236000Y-67818000D03*
X102616000Y-75438000D03*
X112776000Y-67818000D03*
X100076000Y-75438000D03*
X115316000Y-67818000D03*
X97536000Y-75438000D03*
X117856000Y-67818000D03*
D13*
X94996000Y-75438000D03*
%TD*%
%TO.C,R37*%
G36*
G01*
X104502000Y-49079998D02*
X104502000Y-49980002D01*
G75*
G02*
X104252002Y-50230000I-249998J0D01*
G01*
X103726998Y-50230000D01*
G75*
G02*
X103477000Y-49980002I0J249998D01*
G01*
X103477000Y-49079998D01*
G75*
G02*
X103726998Y-48830000I249998J0D01*
G01*
X104252002Y-48830000D01*
G75*
G02*
X104502000Y-49079998I0J-249998D01*
G01*
G37*
G36*
G01*
X106327000Y-49079998D02*
X106327000Y-49980002D01*
G75*
G02*
X106077002Y-50230000I-249998J0D01*
G01*
X105551998Y-50230000D01*
G75*
G02*
X105302000Y-49980002I0J249998D01*
G01*
X105302000Y-49079998D01*
G75*
G02*
X105551998Y-48830000I249998J0D01*
G01*
X106077002Y-48830000D01*
G75*
G02*
X106327000Y-49079998I0J-249998D01*
G01*
G37*
%TD*%
%TO.C,R36*%
G36*
G01*
X109582000Y-49079998D02*
X109582000Y-49980002D01*
G75*
G02*
X109332002Y-50230000I-249998J0D01*
G01*
X108806998Y-50230000D01*
G75*
G02*
X108557000Y-49980002I0J249998D01*
G01*
X108557000Y-49079998D01*
G75*
G02*
X108806998Y-48830000I249998J0D01*
G01*
X109332002Y-48830000D01*
G75*
G02*
X109582000Y-49079998I0J-249998D01*
G01*
G37*
G36*
G01*
X111407000Y-49079998D02*
X111407000Y-49980002D01*
G75*
G02*
X111157002Y-50230000I-249998J0D01*
G01*
X110631998Y-50230000D01*
G75*
G02*
X110382000Y-49980002I0J249998D01*
G01*
X110382000Y-49079998D01*
G75*
G02*
X110631998Y-48830000I249998J0D01*
G01*
X111157002Y-48830000D01*
G75*
G02*
X111407000Y-49079998I0J-249998D01*
G01*
G37*
%TD*%
%TO.C,R35*%
G36*
G01*
X114662000Y-49079998D02*
X114662000Y-49980002D01*
G75*
G02*
X114412002Y-50230000I-249998J0D01*
G01*
X113886998Y-50230000D01*
G75*
G02*
X113637000Y-49980002I0J249998D01*
G01*
X113637000Y-49079998D01*
G75*
G02*
X113886998Y-48830000I249998J0D01*
G01*
X114412002Y-48830000D01*
G75*
G02*
X114662000Y-49079998I0J-249998D01*
G01*
G37*
G36*
G01*
X116487000Y-49079998D02*
X116487000Y-49980002D01*
G75*
G02*
X116237002Y-50230000I-249998J0D01*
G01*
X115711998Y-50230000D01*
G75*
G02*
X115462000Y-49980002I0J249998D01*
G01*
X115462000Y-49079998D01*
G75*
G02*
X115711998Y-48830000I249998J0D01*
G01*
X116237002Y-48830000D01*
G75*
G02*
X116487000Y-49079998I0J-249998D01*
G01*
G37*
%TD*%
%TO.C,R34*%
G36*
G01*
X111868000Y-62541998D02*
X111868000Y-63442002D01*
G75*
G02*
X111618002Y-63692000I-249998J0D01*
G01*
X111092998Y-63692000D01*
G75*
G02*
X110843000Y-63442002I0J249998D01*
G01*
X110843000Y-62541998D01*
G75*
G02*
X111092998Y-62292000I249998J0D01*
G01*
X111618002Y-62292000D01*
G75*
G02*
X111868000Y-62541998I0J-249998D01*
G01*
G37*
G36*
G01*
X113693000Y-62541998D02*
X113693000Y-63442002D01*
G75*
G02*
X113443002Y-63692000I-249998J0D01*
G01*
X112917998Y-63692000D01*
G75*
G02*
X112668000Y-63442002I0J249998D01*
G01*
X112668000Y-62541998D01*
G75*
G02*
X112917998Y-62292000I249998J0D01*
G01*
X113443002Y-62292000D01*
G75*
G02*
X113693000Y-62541998I0J-249998D01*
G01*
G37*
%TD*%
%TO.C,R33*%
G36*
G01*
X107042000Y-62541998D02*
X107042000Y-63442002D01*
G75*
G02*
X106792002Y-63692000I-249998J0D01*
G01*
X106266998Y-63692000D01*
G75*
G02*
X106017000Y-63442002I0J249998D01*
G01*
X106017000Y-62541998D01*
G75*
G02*
X106266998Y-62292000I249998J0D01*
G01*
X106792002Y-62292000D01*
G75*
G02*
X107042000Y-62541998I0J-249998D01*
G01*
G37*
G36*
G01*
X108867000Y-62541998D02*
X108867000Y-63442002D01*
G75*
G02*
X108617002Y-63692000I-249998J0D01*
G01*
X108091998Y-63692000D01*
G75*
G02*
X107842000Y-63442002I0J249998D01*
G01*
X107842000Y-62541998D01*
G75*
G02*
X108091998Y-62292000I249998J0D01*
G01*
X108617002Y-62292000D01*
G75*
G02*
X108867000Y-62541998I0J-249998D01*
G01*
G37*
%TD*%
%TO.C,R32*%
G36*
G01*
X101962000Y-62541998D02*
X101962000Y-63442002D01*
G75*
G02*
X101712002Y-63692000I-249998J0D01*
G01*
X101186998Y-63692000D01*
G75*
G02*
X100937000Y-63442002I0J249998D01*
G01*
X100937000Y-62541998D01*
G75*
G02*
X101186998Y-62292000I249998J0D01*
G01*
X101712002Y-62292000D01*
G75*
G02*
X101962000Y-62541998I0J-249998D01*
G01*
G37*
G36*
G01*
X103787000Y-62541998D02*
X103787000Y-63442002D01*
G75*
G02*
X103537002Y-63692000I-249998J0D01*
G01*
X103011998Y-63692000D01*
G75*
G02*
X102762000Y-63442002I0J249998D01*
G01*
X102762000Y-62541998D01*
G75*
G02*
X103011998Y-62292000I249998J0D01*
G01*
X103537002Y-62292000D01*
G75*
G02*
X103787000Y-62541998I0J-249998D01*
G01*
G37*
%TD*%
D14*
%TO.C,C4*%
X65746000Y-60960000D03*
D13*
X63246000Y-60960000D03*
%TD*%
D10*
%TO.C,J8*%
X55118000Y-56134000D03*
X55118000Y-58674000D03*
X55118000Y-61214000D03*
X55118000Y-63754000D03*
X55118000Y-66294000D03*
X55118000Y-68834000D03*
X55118000Y-71374000D03*
X55118000Y-73914000D03*
X55118000Y-76454000D03*
X55118000Y-78994000D03*
X55118000Y-81534000D03*
X55118000Y-84074000D03*
X55118000Y-86614000D03*
X55118000Y-89154000D03*
X55118000Y-91694000D03*
X55118000Y-94234000D03*
X55118000Y-96774000D03*
D11*
X55118000Y-99314000D03*
%TD*%
D15*
%TO.C,REF\u002A\u002A*%
X148910990Y-104327010D03*
X147320000Y-103668000D03*
X145729010Y-104327010D03*
X145070000Y-105918000D03*
X145729010Y-107508990D03*
X147320000Y-108168000D03*
X148910990Y-107508990D03*
X149570000Y-105918000D03*
D16*
X147320000Y-105918000D03*
%TD*%
%TO.C,REF\u002A\u002A*%
X147320000Y-49784000D03*
D15*
X149570000Y-49784000D03*
X148910990Y-51374990D03*
X147320000Y-52034000D03*
X145729010Y-51374990D03*
X145070000Y-49784000D03*
X145729010Y-48193010D03*
X147320000Y-47534000D03*
X148910990Y-48193010D03*
%TD*%
%TO.C,R31*%
G36*
G01*
X141281998Y-63392000D02*
X142182002Y-63392000D01*
G75*
G02*
X142432000Y-63641998I0J-249998D01*
G01*
X142432000Y-64167002D01*
G75*
G02*
X142182002Y-64417000I-249998J0D01*
G01*
X141281998Y-64417000D01*
G75*
G02*
X141032000Y-64167002I0J249998D01*
G01*
X141032000Y-63641998D01*
G75*
G02*
X141281998Y-63392000I249998J0D01*
G01*
G37*
G36*
G01*
X141281998Y-61567000D02*
X142182002Y-61567000D01*
G75*
G02*
X142432000Y-61816998I0J-249998D01*
G01*
X142432000Y-62342002D01*
G75*
G02*
X142182002Y-62592000I-249998J0D01*
G01*
X141281998Y-62592000D01*
G75*
G02*
X141032000Y-62342002I0J249998D01*
G01*
X141032000Y-61816998D01*
G75*
G02*
X141281998Y-61567000I249998J0D01*
G01*
G37*
%TD*%
%TO.C,R30*%
G36*
G01*
X138995998Y-63392000D02*
X139896002Y-63392000D01*
G75*
G02*
X140146000Y-63641998I0J-249998D01*
G01*
X140146000Y-64167002D01*
G75*
G02*
X139896002Y-64417000I-249998J0D01*
G01*
X138995998Y-64417000D01*
G75*
G02*
X138746000Y-64167002I0J249998D01*
G01*
X138746000Y-63641998D01*
G75*
G02*
X138995998Y-63392000I249998J0D01*
G01*
G37*
G36*
G01*
X138995998Y-61567000D02*
X139896002Y-61567000D01*
G75*
G02*
X140146000Y-61816998I0J-249998D01*
G01*
X140146000Y-62342002D01*
G75*
G02*
X139896002Y-62592000I-249998J0D01*
G01*
X138995998Y-62592000D01*
G75*
G02*
X138746000Y-62342002I0J249998D01*
G01*
X138746000Y-61816998D01*
G75*
G02*
X138995998Y-61567000I249998J0D01*
G01*
G37*
%TD*%
%TO.C,R29*%
G36*
G01*
X126180002Y-93834000D02*
X125279998Y-93834000D01*
G75*
G02*
X125030000Y-93584002I0J249998D01*
G01*
X125030000Y-93058998D01*
G75*
G02*
X125279998Y-92809000I249998J0D01*
G01*
X126180002Y-92809000D01*
G75*
G02*
X126430000Y-93058998I0J-249998D01*
G01*
X126430000Y-93584002D01*
G75*
G02*
X126180002Y-93834000I-249998J0D01*
G01*
G37*
G36*
G01*
X126180002Y-95659000D02*
X125279998Y-95659000D01*
G75*
G02*
X125030000Y-95409002I0J249998D01*
G01*
X125030000Y-94883998D01*
G75*
G02*
X125279998Y-94634000I249998J0D01*
G01*
X126180002Y-94634000D01*
G75*
G02*
X126430000Y-94883998I0J-249998D01*
G01*
X126430000Y-95409002D01*
G75*
G02*
X126180002Y-95659000I-249998J0D01*
G01*
G37*
%TD*%
%TO.C,R28*%
G36*
G01*
X128466002Y-93834000D02*
X127565998Y-93834000D01*
G75*
G02*
X127316000Y-93584002I0J249998D01*
G01*
X127316000Y-93058998D01*
G75*
G02*
X127565998Y-92809000I249998J0D01*
G01*
X128466002Y-92809000D01*
G75*
G02*
X128716000Y-93058998I0J-249998D01*
G01*
X128716000Y-93584002D01*
G75*
G02*
X128466002Y-93834000I-249998J0D01*
G01*
G37*
G36*
G01*
X128466002Y-95659000D02*
X127565998Y-95659000D01*
G75*
G02*
X127316000Y-95409002I0J249998D01*
G01*
X127316000Y-94883998D01*
G75*
G02*
X127565998Y-94634000I249998J0D01*
G01*
X128466002Y-94634000D01*
G75*
G02*
X128716000Y-94883998I0J-249998D01*
G01*
X128716000Y-95409002D01*
G75*
G02*
X128466002Y-95659000I-249998J0D01*
G01*
G37*
%TD*%
%TO.C,R27*%
G36*
G01*
X130752002Y-93834000D02*
X129851998Y-93834000D01*
G75*
G02*
X129602000Y-93584002I0J249998D01*
G01*
X129602000Y-93058998D01*
G75*
G02*
X129851998Y-92809000I249998J0D01*
G01*
X130752002Y-92809000D01*
G75*
G02*
X131002000Y-93058998I0J-249998D01*
G01*
X131002000Y-93584002D01*
G75*
G02*
X130752002Y-93834000I-249998J0D01*
G01*
G37*
G36*
G01*
X130752002Y-95659000D02*
X129851998Y-95659000D01*
G75*
G02*
X129602000Y-95409002I0J249998D01*
G01*
X129602000Y-94883998D01*
G75*
G02*
X129851998Y-94634000I249998J0D01*
G01*
X130752002Y-94634000D01*
G75*
G02*
X131002000Y-94883998I0J-249998D01*
G01*
X131002000Y-95409002D01*
G75*
G02*
X130752002Y-95659000I-249998J0D01*
G01*
G37*
%TD*%
%TO.C,R26*%
G36*
G01*
X133038002Y-93730500D02*
X132137998Y-93730500D01*
G75*
G02*
X131888000Y-93480502I0J249998D01*
G01*
X131888000Y-92955498D01*
G75*
G02*
X132137998Y-92705500I249998J0D01*
G01*
X133038002Y-92705500D01*
G75*
G02*
X133288000Y-92955498I0J-249998D01*
G01*
X133288000Y-93480502D01*
G75*
G02*
X133038002Y-93730500I-249998J0D01*
G01*
G37*
G36*
G01*
X133038002Y-95555500D02*
X132137998Y-95555500D01*
G75*
G02*
X131888000Y-95305502I0J249998D01*
G01*
X131888000Y-94780498D01*
G75*
G02*
X132137998Y-94530500I249998J0D01*
G01*
X133038002Y-94530500D01*
G75*
G02*
X133288000Y-94780498I0J-249998D01*
G01*
X133288000Y-95305502D01*
G75*
G02*
X133038002Y-95555500I-249998J0D01*
G01*
G37*
%TD*%
%TO.C,R25*%
G36*
G01*
X135324002Y-93730500D02*
X134423998Y-93730500D01*
G75*
G02*
X134174000Y-93480502I0J249998D01*
G01*
X134174000Y-92955498D01*
G75*
G02*
X134423998Y-92705500I249998J0D01*
G01*
X135324002Y-92705500D01*
G75*
G02*
X135574000Y-92955498I0J-249998D01*
G01*
X135574000Y-93480502D01*
G75*
G02*
X135324002Y-93730500I-249998J0D01*
G01*
G37*
G36*
G01*
X135324002Y-95555500D02*
X134423998Y-95555500D01*
G75*
G02*
X134174000Y-95305502I0J249998D01*
G01*
X134174000Y-94780498D01*
G75*
G02*
X134423998Y-94530500I249998J0D01*
G01*
X135324002Y-94530500D01*
G75*
G02*
X135574000Y-94780498I0J-249998D01*
G01*
X135574000Y-95305502D01*
G75*
G02*
X135324002Y-95555500I-249998J0D01*
G01*
G37*
%TD*%
%TO.C,R24*%
G36*
G01*
X137610002Y-93834000D02*
X136709998Y-93834000D01*
G75*
G02*
X136460000Y-93584002I0J249998D01*
G01*
X136460000Y-93058998D01*
G75*
G02*
X136709998Y-92809000I249998J0D01*
G01*
X137610002Y-92809000D01*
G75*
G02*
X137860000Y-93058998I0J-249998D01*
G01*
X137860000Y-93584002D01*
G75*
G02*
X137610002Y-93834000I-249998J0D01*
G01*
G37*
G36*
G01*
X137610002Y-95659000D02*
X136709998Y-95659000D01*
G75*
G02*
X136460000Y-95409002I0J249998D01*
G01*
X136460000Y-94883998D01*
G75*
G02*
X136709998Y-94634000I249998J0D01*
G01*
X137610002Y-94634000D01*
G75*
G02*
X137860000Y-94883998I0J-249998D01*
G01*
X137860000Y-95409002D01*
G75*
G02*
X137610002Y-95659000I-249998J0D01*
G01*
G37*
%TD*%
%TO.C,R23*%
G36*
G01*
X139896002Y-93834000D02*
X138995998Y-93834000D01*
G75*
G02*
X138746000Y-93584002I0J249998D01*
G01*
X138746000Y-93058998D01*
G75*
G02*
X138995998Y-92809000I249998J0D01*
G01*
X139896002Y-92809000D01*
G75*
G02*
X140146000Y-93058998I0J-249998D01*
G01*
X140146000Y-93584002D01*
G75*
G02*
X139896002Y-93834000I-249998J0D01*
G01*
G37*
G36*
G01*
X139896002Y-95659000D02*
X138995998Y-95659000D01*
G75*
G02*
X138746000Y-95409002I0J249998D01*
G01*
X138746000Y-94883998D01*
G75*
G02*
X138995998Y-94634000I249998J0D01*
G01*
X139896002Y-94634000D01*
G75*
G02*
X140146000Y-94883998I0J-249998D01*
G01*
X140146000Y-95409002D01*
G75*
G02*
X139896002Y-95659000I-249998J0D01*
G01*
G37*
%TD*%
%TO.C,R22*%
G36*
G01*
X142182002Y-93834000D02*
X141281998Y-93834000D01*
G75*
G02*
X141032000Y-93584002I0J249998D01*
G01*
X141032000Y-93058998D01*
G75*
G02*
X141281998Y-92809000I249998J0D01*
G01*
X142182002Y-92809000D01*
G75*
G02*
X142432000Y-93058998I0J-249998D01*
G01*
X142432000Y-93584002D01*
G75*
G02*
X142182002Y-93834000I-249998J0D01*
G01*
G37*
G36*
G01*
X142182002Y-95659000D02*
X141281998Y-95659000D01*
G75*
G02*
X141032000Y-95409002I0J249998D01*
G01*
X141032000Y-94883998D01*
G75*
G02*
X141281998Y-94634000I249998J0D01*
G01*
X142182002Y-94634000D01*
G75*
G02*
X142432000Y-94883998I0J-249998D01*
G01*
X142432000Y-95409002D01*
G75*
G02*
X142182002Y-95659000I-249998J0D01*
G01*
G37*
%TD*%
%TO.C,D31*%
G36*
G01*
X142188250Y-58732000D02*
X141275750Y-58732000D01*
G75*
G02*
X141032000Y-58488250I0J243750D01*
G01*
X141032000Y-58000750D01*
G75*
G02*
X141275750Y-57757000I243750J0D01*
G01*
X142188250Y-57757000D01*
G75*
G02*
X142432000Y-58000750I0J-243750D01*
G01*
X142432000Y-58488250D01*
G75*
G02*
X142188250Y-58732000I-243750J0D01*
G01*
G37*
G36*
G01*
X142188250Y-60607000D02*
X141275750Y-60607000D01*
G75*
G02*
X141032000Y-60363250I0J243750D01*
G01*
X141032000Y-59875750D01*
G75*
G02*
X141275750Y-59632000I243750J0D01*
G01*
X142188250Y-59632000D01*
G75*
G02*
X142432000Y-59875750I0J-243750D01*
G01*
X142432000Y-60363250D01*
G75*
G02*
X142188250Y-60607000I-243750J0D01*
G01*
G37*
%TD*%
%TO.C,D30*%
G36*
G01*
X139902250Y-58732000D02*
X138989750Y-58732000D01*
G75*
G02*
X138746000Y-58488250I0J243750D01*
G01*
X138746000Y-58000750D01*
G75*
G02*
X138989750Y-57757000I243750J0D01*
G01*
X139902250Y-57757000D01*
G75*
G02*
X140146000Y-58000750I0J-243750D01*
G01*
X140146000Y-58488250D01*
G75*
G02*
X139902250Y-58732000I-243750J0D01*
G01*
G37*
G36*
G01*
X139902250Y-60607000D02*
X138989750Y-60607000D01*
G75*
G02*
X138746000Y-60363250I0J243750D01*
G01*
X138746000Y-59875750D01*
G75*
G02*
X138989750Y-59632000I243750J0D01*
G01*
X139902250Y-59632000D01*
G75*
G02*
X140146000Y-59875750I0J-243750D01*
G01*
X140146000Y-60363250D01*
G75*
G02*
X139902250Y-60607000I-243750J0D01*
G01*
G37*
%TD*%
%TO.C,D29*%
G36*
G01*
X125273750Y-98748000D02*
X126186250Y-98748000D01*
G75*
G02*
X126430000Y-98991750I0J-243750D01*
G01*
X126430000Y-99479250D01*
G75*
G02*
X126186250Y-99723000I-243750J0D01*
G01*
X125273750Y-99723000D01*
G75*
G02*
X125030000Y-99479250I0J243750D01*
G01*
X125030000Y-98991750D01*
G75*
G02*
X125273750Y-98748000I243750J0D01*
G01*
G37*
G36*
G01*
X125273750Y-96873000D02*
X126186250Y-96873000D01*
G75*
G02*
X126430000Y-97116750I0J-243750D01*
G01*
X126430000Y-97604250D01*
G75*
G02*
X126186250Y-97848000I-243750J0D01*
G01*
X125273750Y-97848000D01*
G75*
G02*
X125030000Y-97604250I0J243750D01*
G01*
X125030000Y-97116750D01*
G75*
G02*
X125273750Y-96873000I243750J0D01*
G01*
G37*
%TD*%
%TO.C,D28*%
G36*
G01*
X127559750Y-98748000D02*
X128472250Y-98748000D01*
G75*
G02*
X128716000Y-98991750I0J-243750D01*
G01*
X128716000Y-99479250D01*
G75*
G02*
X128472250Y-99723000I-243750J0D01*
G01*
X127559750Y-99723000D01*
G75*
G02*
X127316000Y-99479250I0J243750D01*
G01*
X127316000Y-98991750D01*
G75*
G02*
X127559750Y-98748000I243750J0D01*
G01*
G37*
G36*
G01*
X127559750Y-96873000D02*
X128472250Y-96873000D01*
G75*
G02*
X128716000Y-97116750I0J-243750D01*
G01*
X128716000Y-97604250D01*
G75*
G02*
X128472250Y-97848000I-243750J0D01*
G01*
X127559750Y-97848000D01*
G75*
G02*
X127316000Y-97604250I0J243750D01*
G01*
X127316000Y-97116750D01*
G75*
G02*
X127559750Y-96873000I243750J0D01*
G01*
G37*
%TD*%
%TO.C,D27*%
G36*
G01*
X129845750Y-98748000D02*
X130758250Y-98748000D01*
G75*
G02*
X131002000Y-98991750I0J-243750D01*
G01*
X131002000Y-99479250D01*
G75*
G02*
X130758250Y-99723000I-243750J0D01*
G01*
X129845750Y-99723000D01*
G75*
G02*
X129602000Y-99479250I0J243750D01*
G01*
X129602000Y-98991750D01*
G75*
G02*
X129845750Y-98748000I243750J0D01*
G01*
G37*
G36*
G01*
X129845750Y-96873000D02*
X130758250Y-96873000D01*
G75*
G02*
X131002000Y-97116750I0J-243750D01*
G01*
X131002000Y-97604250D01*
G75*
G02*
X130758250Y-97848000I-243750J0D01*
G01*
X129845750Y-97848000D01*
G75*
G02*
X129602000Y-97604250I0J243750D01*
G01*
X129602000Y-97116750D01*
G75*
G02*
X129845750Y-96873000I243750J0D01*
G01*
G37*
%TD*%
%TO.C,D26*%
G36*
G01*
X132131750Y-98748000D02*
X133044250Y-98748000D01*
G75*
G02*
X133288000Y-98991750I0J-243750D01*
G01*
X133288000Y-99479250D01*
G75*
G02*
X133044250Y-99723000I-243750J0D01*
G01*
X132131750Y-99723000D01*
G75*
G02*
X131888000Y-99479250I0J243750D01*
G01*
X131888000Y-98991750D01*
G75*
G02*
X132131750Y-98748000I243750J0D01*
G01*
G37*
G36*
G01*
X132131750Y-96873000D02*
X133044250Y-96873000D01*
G75*
G02*
X133288000Y-97116750I0J-243750D01*
G01*
X133288000Y-97604250D01*
G75*
G02*
X133044250Y-97848000I-243750J0D01*
G01*
X132131750Y-97848000D01*
G75*
G02*
X131888000Y-97604250I0J243750D01*
G01*
X131888000Y-97116750D01*
G75*
G02*
X132131750Y-96873000I243750J0D01*
G01*
G37*
%TD*%
%TO.C,D25*%
G36*
G01*
X134417750Y-98748000D02*
X135330250Y-98748000D01*
G75*
G02*
X135574000Y-98991750I0J-243750D01*
G01*
X135574000Y-99479250D01*
G75*
G02*
X135330250Y-99723000I-243750J0D01*
G01*
X134417750Y-99723000D01*
G75*
G02*
X134174000Y-99479250I0J243750D01*
G01*
X134174000Y-98991750D01*
G75*
G02*
X134417750Y-98748000I243750J0D01*
G01*
G37*
G36*
G01*
X134417750Y-96873000D02*
X135330250Y-96873000D01*
G75*
G02*
X135574000Y-97116750I0J-243750D01*
G01*
X135574000Y-97604250D01*
G75*
G02*
X135330250Y-97848000I-243750J0D01*
G01*
X134417750Y-97848000D01*
G75*
G02*
X134174000Y-97604250I0J243750D01*
G01*
X134174000Y-97116750D01*
G75*
G02*
X134417750Y-96873000I243750J0D01*
G01*
G37*
%TD*%
%TO.C,D24*%
G36*
G01*
X136703750Y-98748000D02*
X137616250Y-98748000D01*
G75*
G02*
X137860000Y-98991750I0J-243750D01*
G01*
X137860000Y-99479250D01*
G75*
G02*
X137616250Y-99723000I-243750J0D01*
G01*
X136703750Y-99723000D01*
G75*
G02*
X136460000Y-99479250I0J243750D01*
G01*
X136460000Y-98991750D01*
G75*
G02*
X136703750Y-98748000I243750J0D01*
G01*
G37*
G36*
G01*
X136703750Y-96873000D02*
X137616250Y-96873000D01*
G75*
G02*
X137860000Y-97116750I0J-243750D01*
G01*
X137860000Y-97604250D01*
G75*
G02*
X137616250Y-97848000I-243750J0D01*
G01*
X136703750Y-97848000D01*
G75*
G02*
X136460000Y-97604250I0J243750D01*
G01*
X136460000Y-97116750D01*
G75*
G02*
X136703750Y-96873000I243750J0D01*
G01*
G37*
%TD*%
%TO.C,D23*%
G36*
G01*
X138989750Y-98748000D02*
X139902250Y-98748000D01*
G75*
G02*
X140146000Y-98991750I0J-243750D01*
G01*
X140146000Y-99479250D01*
G75*
G02*
X139902250Y-99723000I-243750J0D01*
G01*
X138989750Y-99723000D01*
G75*
G02*
X138746000Y-99479250I0J243750D01*
G01*
X138746000Y-98991750D01*
G75*
G02*
X138989750Y-98748000I243750J0D01*
G01*
G37*
G36*
G01*
X138989750Y-96873000D02*
X139902250Y-96873000D01*
G75*
G02*
X140146000Y-97116750I0J-243750D01*
G01*
X140146000Y-97604250D01*
G75*
G02*
X139902250Y-97848000I-243750J0D01*
G01*
X138989750Y-97848000D01*
G75*
G02*
X138746000Y-97604250I0J243750D01*
G01*
X138746000Y-97116750D01*
G75*
G02*
X138989750Y-96873000I243750J0D01*
G01*
G37*
%TD*%
%TO.C,D22*%
G36*
G01*
X141275750Y-98748000D02*
X142188250Y-98748000D01*
G75*
G02*
X142432000Y-98991750I0J-243750D01*
G01*
X142432000Y-99479250D01*
G75*
G02*
X142188250Y-99723000I-243750J0D01*
G01*
X141275750Y-99723000D01*
G75*
G02*
X141032000Y-99479250I0J243750D01*
G01*
X141032000Y-98991750D01*
G75*
G02*
X141275750Y-98748000I243750J0D01*
G01*
G37*
G36*
G01*
X141275750Y-96873000D02*
X142188250Y-96873000D01*
G75*
G02*
X142432000Y-97116750I0J-243750D01*
G01*
X142432000Y-97604250D01*
G75*
G02*
X142188250Y-97848000I-243750J0D01*
G01*
X141275750Y-97848000D01*
G75*
G02*
X141032000Y-97604250I0J243750D01*
G01*
X141032000Y-97116750D01*
G75*
G02*
X141275750Y-96873000I243750J0D01*
G01*
G37*
%TD*%
D16*
%TO.C,REF\u002A\u002A*%
X55880000Y-105918000D03*
D15*
X58130000Y-105918000D03*
X57470990Y-107508990D03*
X55880000Y-108168000D03*
X54289010Y-107508990D03*
X53630000Y-105918000D03*
X54289010Y-104327010D03*
X55880000Y-103668000D03*
X57470990Y-104327010D03*
%TD*%
D17*
%TO.C,J1*%
X64596000Y-51562000D03*
D18*
X69596000Y-51562000D03*
%TD*%
D15*
%TO.C,REF\u002A\u002A*%
X57470990Y-48193010D03*
X55880000Y-47534000D03*
X54289010Y-48193010D03*
X53630000Y-49784000D03*
X54289010Y-51374990D03*
X55880000Y-52034000D03*
X57470990Y-51374990D03*
X58130000Y-49784000D03*
D16*
X55880000Y-49784000D03*
%TD*%
%TO.C,R21*%
G36*
G01*
X134423998Y-63392000D02*
X135324002Y-63392000D01*
G75*
G02*
X135574000Y-63641998I0J-249998D01*
G01*
X135574000Y-64167002D01*
G75*
G02*
X135324002Y-64417000I-249998J0D01*
G01*
X134423998Y-64417000D01*
G75*
G02*
X134174000Y-64167002I0J249998D01*
G01*
X134174000Y-63641998D01*
G75*
G02*
X134423998Y-63392000I249998J0D01*
G01*
G37*
G36*
G01*
X134423998Y-61567000D02*
X135324002Y-61567000D01*
G75*
G02*
X135574000Y-61816998I0J-249998D01*
G01*
X135574000Y-62342002D01*
G75*
G02*
X135324002Y-62592000I-249998J0D01*
G01*
X134423998Y-62592000D01*
G75*
G02*
X134174000Y-62342002I0J249998D01*
G01*
X134174000Y-61816998D01*
G75*
G02*
X134423998Y-61567000I249998J0D01*
G01*
G37*
%TD*%
%TO.C,R20*%
G36*
G01*
X132137998Y-63392000D02*
X133038002Y-63392000D01*
G75*
G02*
X133288000Y-63641998I0J-249998D01*
G01*
X133288000Y-64167002D01*
G75*
G02*
X133038002Y-64417000I-249998J0D01*
G01*
X132137998Y-64417000D01*
G75*
G02*
X131888000Y-64167002I0J249998D01*
G01*
X131888000Y-63641998D01*
G75*
G02*
X132137998Y-63392000I249998J0D01*
G01*
G37*
G36*
G01*
X132137998Y-61567000D02*
X133038002Y-61567000D01*
G75*
G02*
X133288000Y-61816998I0J-249998D01*
G01*
X133288000Y-62342002D01*
G75*
G02*
X133038002Y-62592000I-249998J0D01*
G01*
X132137998Y-62592000D01*
G75*
G02*
X131888000Y-62342002I0J249998D01*
G01*
X131888000Y-61816998D01*
G75*
G02*
X132137998Y-61567000I249998J0D01*
G01*
G37*
%TD*%
%TO.C,R19*%
G36*
G01*
X126180002Y-80626000D02*
X125279998Y-80626000D01*
G75*
G02*
X125030000Y-80376002I0J249998D01*
G01*
X125030000Y-79850998D01*
G75*
G02*
X125279998Y-79601000I249998J0D01*
G01*
X126180002Y-79601000D01*
G75*
G02*
X126430000Y-79850998I0J-249998D01*
G01*
X126430000Y-80376002D01*
G75*
G02*
X126180002Y-80626000I-249998J0D01*
G01*
G37*
G36*
G01*
X126180002Y-82451000D02*
X125279998Y-82451000D01*
G75*
G02*
X125030000Y-82201002I0J249998D01*
G01*
X125030000Y-81675998D01*
G75*
G02*
X125279998Y-81426000I249998J0D01*
G01*
X126180002Y-81426000D01*
G75*
G02*
X126430000Y-81675998I0J-249998D01*
G01*
X126430000Y-82201002D01*
G75*
G02*
X126180002Y-82451000I-249998J0D01*
G01*
G37*
%TD*%
%TO.C,R18*%
G36*
G01*
X128466002Y-80626000D02*
X127565998Y-80626000D01*
G75*
G02*
X127316000Y-80376002I0J249998D01*
G01*
X127316000Y-79850998D01*
G75*
G02*
X127565998Y-79601000I249998J0D01*
G01*
X128466002Y-79601000D01*
G75*
G02*
X128716000Y-79850998I0J-249998D01*
G01*
X128716000Y-80376002D01*
G75*
G02*
X128466002Y-80626000I-249998J0D01*
G01*
G37*
G36*
G01*
X128466002Y-82451000D02*
X127565998Y-82451000D01*
G75*
G02*
X127316000Y-82201002I0J249998D01*
G01*
X127316000Y-81675998D01*
G75*
G02*
X127565998Y-81426000I249998J0D01*
G01*
X128466002Y-81426000D01*
G75*
G02*
X128716000Y-81675998I0J-249998D01*
G01*
X128716000Y-82201002D01*
G75*
G02*
X128466002Y-82451000I-249998J0D01*
G01*
G37*
%TD*%
%TO.C,R17*%
G36*
G01*
X130752002Y-80626000D02*
X129851998Y-80626000D01*
G75*
G02*
X129602000Y-80376002I0J249998D01*
G01*
X129602000Y-79850998D01*
G75*
G02*
X129851998Y-79601000I249998J0D01*
G01*
X130752002Y-79601000D01*
G75*
G02*
X131002000Y-79850998I0J-249998D01*
G01*
X131002000Y-80376002D01*
G75*
G02*
X130752002Y-80626000I-249998J0D01*
G01*
G37*
G36*
G01*
X130752002Y-82451000D02*
X129851998Y-82451000D01*
G75*
G02*
X129602000Y-82201002I0J249998D01*
G01*
X129602000Y-81675998D01*
G75*
G02*
X129851998Y-81426000I249998J0D01*
G01*
X130752002Y-81426000D01*
G75*
G02*
X131002000Y-81675998I0J-249998D01*
G01*
X131002000Y-82201002D01*
G75*
G02*
X130752002Y-82451000I-249998J0D01*
G01*
G37*
%TD*%
%TO.C,R16*%
G36*
G01*
X133038002Y-80626000D02*
X132137998Y-80626000D01*
G75*
G02*
X131888000Y-80376002I0J249998D01*
G01*
X131888000Y-79850998D01*
G75*
G02*
X132137998Y-79601000I249998J0D01*
G01*
X133038002Y-79601000D01*
G75*
G02*
X133288000Y-79850998I0J-249998D01*
G01*
X133288000Y-80376002D01*
G75*
G02*
X133038002Y-80626000I-249998J0D01*
G01*
G37*
G36*
G01*
X133038002Y-82451000D02*
X132137998Y-82451000D01*
G75*
G02*
X131888000Y-82201002I0J249998D01*
G01*
X131888000Y-81675998D01*
G75*
G02*
X132137998Y-81426000I249998J0D01*
G01*
X133038002Y-81426000D01*
G75*
G02*
X133288000Y-81675998I0J-249998D01*
G01*
X133288000Y-82201002D01*
G75*
G02*
X133038002Y-82451000I-249998J0D01*
G01*
G37*
%TD*%
%TO.C,R15*%
G36*
G01*
X135324002Y-80626000D02*
X134423998Y-80626000D01*
G75*
G02*
X134174000Y-80376002I0J249998D01*
G01*
X134174000Y-79850998D01*
G75*
G02*
X134423998Y-79601000I249998J0D01*
G01*
X135324002Y-79601000D01*
G75*
G02*
X135574000Y-79850998I0J-249998D01*
G01*
X135574000Y-80376002D01*
G75*
G02*
X135324002Y-80626000I-249998J0D01*
G01*
G37*
G36*
G01*
X135324002Y-82451000D02*
X134423998Y-82451000D01*
G75*
G02*
X134174000Y-82201002I0J249998D01*
G01*
X134174000Y-81675998D01*
G75*
G02*
X134423998Y-81426000I249998J0D01*
G01*
X135324002Y-81426000D01*
G75*
G02*
X135574000Y-81675998I0J-249998D01*
G01*
X135574000Y-82201002D01*
G75*
G02*
X135324002Y-82451000I-249998J0D01*
G01*
G37*
%TD*%
%TO.C,R14*%
G36*
G01*
X137610002Y-80626000D02*
X136709998Y-80626000D01*
G75*
G02*
X136460000Y-80376002I0J249998D01*
G01*
X136460000Y-79850998D01*
G75*
G02*
X136709998Y-79601000I249998J0D01*
G01*
X137610002Y-79601000D01*
G75*
G02*
X137860000Y-79850998I0J-249998D01*
G01*
X137860000Y-80376002D01*
G75*
G02*
X137610002Y-80626000I-249998J0D01*
G01*
G37*
G36*
G01*
X137610002Y-82451000D02*
X136709998Y-82451000D01*
G75*
G02*
X136460000Y-82201002I0J249998D01*
G01*
X136460000Y-81675998D01*
G75*
G02*
X136709998Y-81426000I249998J0D01*
G01*
X137610002Y-81426000D01*
G75*
G02*
X137860000Y-81675998I0J-249998D01*
G01*
X137860000Y-82201002D01*
G75*
G02*
X137610002Y-82451000I-249998J0D01*
G01*
G37*
%TD*%
%TO.C,R13*%
G36*
G01*
X139896002Y-80626000D02*
X138995998Y-80626000D01*
G75*
G02*
X138746000Y-80376002I0J249998D01*
G01*
X138746000Y-79850998D01*
G75*
G02*
X138995998Y-79601000I249998J0D01*
G01*
X139896002Y-79601000D01*
G75*
G02*
X140146000Y-79850998I0J-249998D01*
G01*
X140146000Y-80376002D01*
G75*
G02*
X139896002Y-80626000I-249998J0D01*
G01*
G37*
G36*
G01*
X139896002Y-82451000D02*
X138995998Y-82451000D01*
G75*
G02*
X138746000Y-82201002I0J249998D01*
G01*
X138746000Y-81675998D01*
G75*
G02*
X138995998Y-81426000I249998J0D01*
G01*
X139896002Y-81426000D01*
G75*
G02*
X140146000Y-81675998I0J-249998D01*
G01*
X140146000Y-82201002D01*
G75*
G02*
X139896002Y-82451000I-249998J0D01*
G01*
G37*
%TD*%
%TO.C,R12*%
G36*
G01*
X142182002Y-80626000D02*
X141281998Y-80626000D01*
G75*
G02*
X141032000Y-80376002I0J249998D01*
G01*
X141032000Y-79850998D01*
G75*
G02*
X141281998Y-79601000I249998J0D01*
G01*
X142182002Y-79601000D01*
G75*
G02*
X142432000Y-79850998I0J-249998D01*
G01*
X142432000Y-80376002D01*
G75*
G02*
X142182002Y-80626000I-249998J0D01*
G01*
G37*
G36*
G01*
X142182002Y-82451000D02*
X141281998Y-82451000D01*
G75*
G02*
X141032000Y-82201002I0J249998D01*
G01*
X141032000Y-81675998D01*
G75*
G02*
X141281998Y-81426000I249998J0D01*
G01*
X142182002Y-81426000D01*
G75*
G02*
X142432000Y-81675998I0J-249998D01*
G01*
X142432000Y-82201002D01*
G75*
G02*
X142182002Y-82451000I-249998J0D01*
G01*
G37*
%TD*%
%TO.C,D21*%
G36*
G01*
X135330250Y-58732000D02*
X134417750Y-58732000D01*
G75*
G02*
X134174000Y-58488250I0J243750D01*
G01*
X134174000Y-58000750D01*
G75*
G02*
X134417750Y-57757000I243750J0D01*
G01*
X135330250Y-57757000D01*
G75*
G02*
X135574000Y-58000750I0J-243750D01*
G01*
X135574000Y-58488250D01*
G75*
G02*
X135330250Y-58732000I-243750J0D01*
G01*
G37*
G36*
G01*
X135330250Y-60607000D02*
X134417750Y-60607000D01*
G75*
G02*
X134174000Y-60363250I0J243750D01*
G01*
X134174000Y-59875750D01*
G75*
G02*
X134417750Y-59632000I243750J0D01*
G01*
X135330250Y-59632000D01*
G75*
G02*
X135574000Y-59875750I0J-243750D01*
G01*
X135574000Y-60363250D01*
G75*
G02*
X135330250Y-60607000I-243750J0D01*
G01*
G37*
%TD*%
%TO.C,D20*%
G36*
G01*
X133044250Y-58732000D02*
X132131750Y-58732000D01*
G75*
G02*
X131888000Y-58488250I0J243750D01*
G01*
X131888000Y-58000750D01*
G75*
G02*
X132131750Y-57757000I243750J0D01*
G01*
X133044250Y-57757000D01*
G75*
G02*
X133288000Y-58000750I0J-243750D01*
G01*
X133288000Y-58488250D01*
G75*
G02*
X133044250Y-58732000I-243750J0D01*
G01*
G37*
G36*
G01*
X133044250Y-60607000D02*
X132131750Y-60607000D01*
G75*
G02*
X131888000Y-60363250I0J243750D01*
G01*
X131888000Y-59875750D01*
G75*
G02*
X132131750Y-59632000I243750J0D01*
G01*
X133044250Y-59632000D01*
G75*
G02*
X133288000Y-59875750I0J-243750D01*
G01*
X133288000Y-60363250D01*
G75*
G02*
X133044250Y-60607000I-243750J0D01*
G01*
G37*
%TD*%
%TO.C,D19*%
G36*
G01*
X125273750Y-85540000D02*
X126186250Y-85540000D01*
G75*
G02*
X126430000Y-85783750I0J-243750D01*
G01*
X126430000Y-86271250D01*
G75*
G02*
X126186250Y-86515000I-243750J0D01*
G01*
X125273750Y-86515000D01*
G75*
G02*
X125030000Y-86271250I0J243750D01*
G01*
X125030000Y-85783750D01*
G75*
G02*
X125273750Y-85540000I243750J0D01*
G01*
G37*
G36*
G01*
X125273750Y-83665000D02*
X126186250Y-83665000D01*
G75*
G02*
X126430000Y-83908750I0J-243750D01*
G01*
X126430000Y-84396250D01*
G75*
G02*
X126186250Y-84640000I-243750J0D01*
G01*
X125273750Y-84640000D01*
G75*
G02*
X125030000Y-84396250I0J243750D01*
G01*
X125030000Y-83908750D01*
G75*
G02*
X125273750Y-83665000I243750J0D01*
G01*
G37*
%TD*%
%TO.C,D18*%
G36*
G01*
X127559750Y-85540000D02*
X128472250Y-85540000D01*
G75*
G02*
X128716000Y-85783750I0J-243750D01*
G01*
X128716000Y-86271250D01*
G75*
G02*
X128472250Y-86515000I-243750J0D01*
G01*
X127559750Y-86515000D01*
G75*
G02*
X127316000Y-86271250I0J243750D01*
G01*
X127316000Y-85783750D01*
G75*
G02*
X127559750Y-85540000I243750J0D01*
G01*
G37*
G36*
G01*
X127559750Y-83665000D02*
X128472250Y-83665000D01*
G75*
G02*
X128716000Y-83908750I0J-243750D01*
G01*
X128716000Y-84396250D01*
G75*
G02*
X128472250Y-84640000I-243750J0D01*
G01*
X127559750Y-84640000D01*
G75*
G02*
X127316000Y-84396250I0J243750D01*
G01*
X127316000Y-83908750D01*
G75*
G02*
X127559750Y-83665000I243750J0D01*
G01*
G37*
%TD*%
%TO.C,D17*%
G36*
G01*
X129845750Y-85540000D02*
X130758250Y-85540000D01*
G75*
G02*
X131002000Y-85783750I0J-243750D01*
G01*
X131002000Y-86271250D01*
G75*
G02*
X130758250Y-86515000I-243750J0D01*
G01*
X129845750Y-86515000D01*
G75*
G02*
X129602000Y-86271250I0J243750D01*
G01*
X129602000Y-85783750D01*
G75*
G02*
X129845750Y-85540000I243750J0D01*
G01*
G37*
G36*
G01*
X129845750Y-83665000D02*
X130758250Y-83665000D01*
G75*
G02*
X131002000Y-83908750I0J-243750D01*
G01*
X131002000Y-84396250D01*
G75*
G02*
X130758250Y-84640000I-243750J0D01*
G01*
X129845750Y-84640000D01*
G75*
G02*
X129602000Y-84396250I0J243750D01*
G01*
X129602000Y-83908750D01*
G75*
G02*
X129845750Y-83665000I243750J0D01*
G01*
G37*
%TD*%
%TO.C,D16*%
G36*
G01*
X132131750Y-85540000D02*
X133044250Y-85540000D01*
G75*
G02*
X133288000Y-85783750I0J-243750D01*
G01*
X133288000Y-86271250D01*
G75*
G02*
X133044250Y-86515000I-243750J0D01*
G01*
X132131750Y-86515000D01*
G75*
G02*
X131888000Y-86271250I0J243750D01*
G01*
X131888000Y-85783750D01*
G75*
G02*
X132131750Y-85540000I243750J0D01*
G01*
G37*
G36*
G01*
X132131750Y-83665000D02*
X133044250Y-83665000D01*
G75*
G02*
X133288000Y-83908750I0J-243750D01*
G01*
X133288000Y-84396250D01*
G75*
G02*
X133044250Y-84640000I-243750J0D01*
G01*
X132131750Y-84640000D01*
G75*
G02*
X131888000Y-84396250I0J243750D01*
G01*
X131888000Y-83908750D01*
G75*
G02*
X132131750Y-83665000I243750J0D01*
G01*
G37*
%TD*%
%TO.C,D15*%
G36*
G01*
X134417750Y-85540000D02*
X135330250Y-85540000D01*
G75*
G02*
X135574000Y-85783750I0J-243750D01*
G01*
X135574000Y-86271250D01*
G75*
G02*
X135330250Y-86515000I-243750J0D01*
G01*
X134417750Y-86515000D01*
G75*
G02*
X134174000Y-86271250I0J243750D01*
G01*
X134174000Y-85783750D01*
G75*
G02*
X134417750Y-85540000I243750J0D01*
G01*
G37*
G36*
G01*
X134417750Y-83665000D02*
X135330250Y-83665000D01*
G75*
G02*
X135574000Y-83908750I0J-243750D01*
G01*
X135574000Y-84396250D01*
G75*
G02*
X135330250Y-84640000I-243750J0D01*
G01*
X134417750Y-84640000D01*
G75*
G02*
X134174000Y-84396250I0J243750D01*
G01*
X134174000Y-83908750D01*
G75*
G02*
X134417750Y-83665000I243750J0D01*
G01*
G37*
%TD*%
%TO.C,D14*%
G36*
G01*
X136703750Y-85540000D02*
X137616250Y-85540000D01*
G75*
G02*
X137860000Y-85783750I0J-243750D01*
G01*
X137860000Y-86271250D01*
G75*
G02*
X137616250Y-86515000I-243750J0D01*
G01*
X136703750Y-86515000D01*
G75*
G02*
X136460000Y-86271250I0J243750D01*
G01*
X136460000Y-85783750D01*
G75*
G02*
X136703750Y-85540000I243750J0D01*
G01*
G37*
G36*
G01*
X136703750Y-83665000D02*
X137616250Y-83665000D01*
G75*
G02*
X137860000Y-83908750I0J-243750D01*
G01*
X137860000Y-84396250D01*
G75*
G02*
X137616250Y-84640000I-243750J0D01*
G01*
X136703750Y-84640000D01*
G75*
G02*
X136460000Y-84396250I0J243750D01*
G01*
X136460000Y-83908750D01*
G75*
G02*
X136703750Y-83665000I243750J0D01*
G01*
G37*
%TD*%
%TO.C,D13*%
G36*
G01*
X138989750Y-85540000D02*
X139902250Y-85540000D01*
G75*
G02*
X140146000Y-85783750I0J-243750D01*
G01*
X140146000Y-86271250D01*
G75*
G02*
X139902250Y-86515000I-243750J0D01*
G01*
X138989750Y-86515000D01*
G75*
G02*
X138746000Y-86271250I0J243750D01*
G01*
X138746000Y-85783750D01*
G75*
G02*
X138989750Y-85540000I243750J0D01*
G01*
G37*
G36*
G01*
X138989750Y-83665000D02*
X139902250Y-83665000D01*
G75*
G02*
X140146000Y-83908750I0J-243750D01*
G01*
X140146000Y-84396250D01*
G75*
G02*
X139902250Y-84640000I-243750J0D01*
G01*
X138989750Y-84640000D01*
G75*
G02*
X138746000Y-84396250I0J243750D01*
G01*
X138746000Y-83908750D01*
G75*
G02*
X138989750Y-83665000I243750J0D01*
G01*
G37*
%TD*%
%TO.C,D12*%
G36*
G01*
X141275750Y-85540000D02*
X142188250Y-85540000D01*
G75*
G02*
X142432000Y-85783750I0J-243750D01*
G01*
X142432000Y-86271250D01*
G75*
G02*
X142188250Y-86515000I-243750J0D01*
G01*
X141275750Y-86515000D01*
G75*
G02*
X141032000Y-86271250I0J243750D01*
G01*
X141032000Y-85783750D01*
G75*
G02*
X141275750Y-85540000I243750J0D01*
G01*
G37*
G36*
G01*
X141275750Y-83665000D02*
X142188250Y-83665000D01*
G75*
G02*
X142432000Y-83908750I0J-243750D01*
G01*
X142432000Y-84396250D01*
G75*
G02*
X142188250Y-84640000I-243750J0D01*
G01*
X141275750Y-84640000D01*
G75*
G02*
X141032000Y-84396250I0J243750D01*
G01*
X141032000Y-83908750D01*
G75*
G02*
X141275750Y-83665000I243750J0D01*
G01*
G37*
%TD*%
%TO.C,C3*%
G36*
G01*
X62771000Y-97412000D02*
X63721000Y-97412000D01*
G75*
G02*
X63971000Y-97662000I0J-250000D01*
G01*
X63971000Y-98162000D01*
G75*
G02*
X63721000Y-98412000I-250000J0D01*
G01*
X62771000Y-98412000D01*
G75*
G02*
X62521000Y-98162000I0J250000D01*
G01*
X62521000Y-97662000D01*
G75*
G02*
X62771000Y-97412000I250000J0D01*
G01*
G37*
G36*
G01*
X62771000Y-95512000D02*
X63721000Y-95512000D01*
G75*
G02*
X63971000Y-95762000I0J-250000D01*
G01*
X63971000Y-96262000D01*
G75*
G02*
X63721000Y-96512000I-250000J0D01*
G01*
X62771000Y-96512000D01*
G75*
G02*
X62521000Y-96262000I0J250000D01*
G01*
X62521000Y-95762000D01*
G75*
G02*
X62771000Y-95512000I250000J0D01*
G01*
G37*
%TD*%
%TO.C,C2*%
G36*
G01*
X62771000Y-84524000D02*
X63721000Y-84524000D01*
G75*
G02*
X63971000Y-84774000I0J-250000D01*
G01*
X63971000Y-85274000D01*
G75*
G02*
X63721000Y-85524000I-250000J0D01*
G01*
X62771000Y-85524000D01*
G75*
G02*
X62521000Y-85274000I0J250000D01*
G01*
X62521000Y-84774000D01*
G75*
G02*
X62771000Y-84524000I250000J0D01*
G01*
G37*
G36*
G01*
X62771000Y-82624000D02*
X63721000Y-82624000D01*
G75*
G02*
X63971000Y-82874000I0J-250000D01*
G01*
X63971000Y-83374000D01*
G75*
G02*
X63721000Y-83624000I-250000J0D01*
G01*
X62771000Y-83624000D01*
G75*
G02*
X62521000Y-83374000I0J250000D01*
G01*
X62521000Y-82874000D01*
G75*
G02*
X62771000Y-82624000I250000J0D01*
G01*
G37*
%TD*%
%TO.C,C1*%
G36*
G01*
X62771000Y-72078000D02*
X63721000Y-72078000D01*
G75*
G02*
X63971000Y-72328000I0J-250000D01*
G01*
X63971000Y-72828000D01*
G75*
G02*
X63721000Y-73078000I-250000J0D01*
G01*
X62771000Y-73078000D01*
G75*
G02*
X62521000Y-72828000I0J250000D01*
G01*
X62521000Y-72328000D01*
G75*
G02*
X62771000Y-72078000I250000J0D01*
G01*
G37*
G36*
G01*
X62771000Y-70178000D02*
X63721000Y-70178000D01*
G75*
G02*
X63971000Y-70428000I0J-250000D01*
G01*
X63971000Y-70928000D01*
G75*
G02*
X63721000Y-71178000I-250000J0D01*
G01*
X62771000Y-71178000D01*
G75*
G02*
X62521000Y-70928000I0J250000D01*
G01*
X62521000Y-70428000D01*
G75*
G02*
X62771000Y-70178000I250000J0D01*
G01*
G37*
%TD*%
%TO.C,R11*%
G36*
G01*
X127565998Y-63392000D02*
X128466002Y-63392000D01*
G75*
G02*
X128716000Y-63641998I0J-249998D01*
G01*
X128716000Y-64167002D01*
G75*
G02*
X128466002Y-64417000I-249998J0D01*
G01*
X127565998Y-64417000D01*
G75*
G02*
X127316000Y-64167002I0J249998D01*
G01*
X127316000Y-63641998D01*
G75*
G02*
X127565998Y-63392000I249998J0D01*
G01*
G37*
G36*
G01*
X127565998Y-61567000D02*
X128466002Y-61567000D01*
G75*
G02*
X128716000Y-61816998I0J-249998D01*
G01*
X128716000Y-62342002D01*
G75*
G02*
X128466002Y-62592000I-249998J0D01*
G01*
X127565998Y-62592000D01*
G75*
G02*
X127316000Y-62342002I0J249998D01*
G01*
X127316000Y-61816998D01*
G75*
G02*
X127565998Y-61567000I249998J0D01*
G01*
G37*
%TD*%
%TO.C,R10*%
G36*
G01*
X129902000Y-50095998D02*
X129902000Y-50996002D01*
G75*
G02*
X129652002Y-51246000I-249998J0D01*
G01*
X129126998Y-51246000D01*
G75*
G02*
X128877000Y-50996002I0J249998D01*
G01*
X128877000Y-50095998D01*
G75*
G02*
X129126998Y-49846000I249998J0D01*
G01*
X129652002Y-49846000D01*
G75*
G02*
X129902000Y-50095998I0J-249998D01*
G01*
G37*
G36*
G01*
X131727000Y-50095998D02*
X131727000Y-50996002D01*
G75*
G02*
X131477002Y-51246000I-249998J0D01*
G01*
X130951998Y-51246000D01*
G75*
G02*
X130702000Y-50996002I0J249998D01*
G01*
X130702000Y-50095998D01*
G75*
G02*
X130951998Y-49846000I249998J0D01*
G01*
X131477002Y-49846000D01*
G75*
G02*
X131727000Y-50095998I0J-249998D01*
G01*
G37*
%TD*%
%TO.C,R9*%
G36*
G01*
X125279998Y-63392000D02*
X126180002Y-63392000D01*
G75*
G02*
X126430000Y-63641998I0J-249998D01*
G01*
X126430000Y-64167002D01*
G75*
G02*
X126180002Y-64417000I-249998J0D01*
G01*
X125279998Y-64417000D01*
G75*
G02*
X125030000Y-64167002I0J249998D01*
G01*
X125030000Y-63641998D01*
G75*
G02*
X125279998Y-63392000I249998J0D01*
G01*
G37*
G36*
G01*
X125279998Y-61567000D02*
X126180002Y-61567000D01*
G75*
G02*
X126430000Y-61816998I0J-249998D01*
G01*
X126430000Y-62342002D01*
G75*
G02*
X126180002Y-62592000I-249998J0D01*
G01*
X125279998Y-62592000D01*
G75*
G02*
X125030000Y-62342002I0J249998D01*
G01*
X125030000Y-61816998D01*
G75*
G02*
X125279998Y-61567000I249998J0D01*
G01*
G37*
%TD*%
%TO.C,R8*%
G36*
G01*
X126180002Y-68688000D02*
X125279998Y-68688000D01*
G75*
G02*
X125030000Y-68438002I0J249998D01*
G01*
X125030000Y-67912998D01*
G75*
G02*
X125279998Y-67663000I249998J0D01*
G01*
X126180002Y-67663000D01*
G75*
G02*
X126430000Y-67912998I0J-249998D01*
G01*
X126430000Y-68438002D01*
G75*
G02*
X126180002Y-68688000I-249998J0D01*
G01*
G37*
G36*
G01*
X126180002Y-70513000D02*
X125279998Y-70513000D01*
G75*
G02*
X125030000Y-70263002I0J249998D01*
G01*
X125030000Y-69737998D01*
G75*
G02*
X125279998Y-69488000I249998J0D01*
G01*
X126180002Y-69488000D01*
G75*
G02*
X126430000Y-69737998I0J-249998D01*
G01*
X126430000Y-70263002D01*
G75*
G02*
X126180002Y-70513000I-249998J0D01*
G01*
G37*
%TD*%
%TO.C,R7*%
G36*
G01*
X128466002Y-68688000D02*
X127565998Y-68688000D01*
G75*
G02*
X127316000Y-68438002I0J249998D01*
G01*
X127316000Y-67912998D01*
G75*
G02*
X127565998Y-67663000I249998J0D01*
G01*
X128466002Y-67663000D01*
G75*
G02*
X128716000Y-67912998I0J-249998D01*
G01*
X128716000Y-68438002D01*
G75*
G02*
X128466002Y-68688000I-249998J0D01*
G01*
G37*
G36*
G01*
X128466002Y-70513000D02*
X127565998Y-70513000D01*
G75*
G02*
X127316000Y-70263002I0J249998D01*
G01*
X127316000Y-69737998D01*
G75*
G02*
X127565998Y-69488000I249998J0D01*
G01*
X128466002Y-69488000D01*
G75*
G02*
X128716000Y-69737998I0J-249998D01*
G01*
X128716000Y-70263002D01*
G75*
G02*
X128466002Y-70513000I-249998J0D01*
G01*
G37*
%TD*%
%TO.C,R6*%
G36*
G01*
X130752002Y-68688000D02*
X129851998Y-68688000D01*
G75*
G02*
X129602000Y-68438002I0J249998D01*
G01*
X129602000Y-67912998D01*
G75*
G02*
X129851998Y-67663000I249998J0D01*
G01*
X130752002Y-67663000D01*
G75*
G02*
X131002000Y-67912998I0J-249998D01*
G01*
X131002000Y-68438002D01*
G75*
G02*
X130752002Y-68688000I-249998J0D01*
G01*
G37*
G36*
G01*
X130752002Y-70513000D02*
X129851998Y-70513000D01*
G75*
G02*
X129602000Y-70263002I0J249998D01*
G01*
X129602000Y-69737998D01*
G75*
G02*
X129851998Y-69488000I249998J0D01*
G01*
X130752002Y-69488000D01*
G75*
G02*
X131002000Y-69737998I0J-249998D01*
G01*
X131002000Y-70263002D01*
G75*
G02*
X130752002Y-70513000I-249998J0D01*
G01*
G37*
%TD*%
%TO.C,R5*%
G36*
G01*
X133038002Y-68688000D02*
X132137998Y-68688000D01*
G75*
G02*
X131888000Y-68438002I0J249998D01*
G01*
X131888000Y-67912998D01*
G75*
G02*
X132137998Y-67663000I249998J0D01*
G01*
X133038002Y-67663000D01*
G75*
G02*
X133288000Y-67912998I0J-249998D01*
G01*
X133288000Y-68438002D01*
G75*
G02*
X133038002Y-68688000I-249998J0D01*
G01*
G37*
G36*
G01*
X133038002Y-70513000D02*
X132137998Y-70513000D01*
G75*
G02*
X131888000Y-70263002I0J249998D01*
G01*
X131888000Y-69737998D01*
G75*
G02*
X132137998Y-69488000I249998J0D01*
G01*
X133038002Y-69488000D01*
G75*
G02*
X133288000Y-69737998I0J-249998D01*
G01*
X133288000Y-70263002D01*
G75*
G02*
X133038002Y-70513000I-249998J0D01*
G01*
G37*
%TD*%
%TO.C,R4*%
G36*
G01*
X135324002Y-68688000D02*
X134423998Y-68688000D01*
G75*
G02*
X134174000Y-68438002I0J249998D01*
G01*
X134174000Y-67912998D01*
G75*
G02*
X134423998Y-67663000I249998J0D01*
G01*
X135324002Y-67663000D01*
G75*
G02*
X135574000Y-67912998I0J-249998D01*
G01*
X135574000Y-68438002D01*
G75*
G02*
X135324002Y-68688000I-249998J0D01*
G01*
G37*
G36*
G01*
X135324002Y-70513000D02*
X134423998Y-70513000D01*
G75*
G02*
X134174000Y-70263002I0J249998D01*
G01*
X134174000Y-69737998D01*
G75*
G02*
X134423998Y-69488000I249998J0D01*
G01*
X135324002Y-69488000D01*
G75*
G02*
X135574000Y-69737998I0J-249998D01*
G01*
X135574000Y-70263002D01*
G75*
G02*
X135324002Y-70513000I-249998J0D01*
G01*
G37*
%TD*%
%TO.C,R3*%
G36*
G01*
X137610002Y-68688000D02*
X136709998Y-68688000D01*
G75*
G02*
X136460000Y-68438002I0J249998D01*
G01*
X136460000Y-67912998D01*
G75*
G02*
X136709998Y-67663000I249998J0D01*
G01*
X137610002Y-67663000D01*
G75*
G02*
X137860000Y-67912998I0J-249998D01*
G01*
X137860000Y-68438002D01*
G75*
G02*
X137610002Y-68688000I-249998J0D01*
G01*
G37*
G36*
G01*
X137610002Y-70513000D02*
X136709998Y-70513000D01*
G75*
G02*
X136460000Y-70263002I0J249998D01*
G01*
X136460000Y-69737998D01*
G75*
G02*
X136709998Y-69488000I249998J0D01*
G01*
X137610002Y-69488000D01*
G75*
G02*
X137860000Y-69737998I0J-249998D01*
G01*
X137860000Y-70263002D01*
G75*
G02*
X137610002Y-70513000I-249998J0D01*
G01*
G37*
%TD*%
%TO.C,R2*%
G36*
G01*
X139896002Y-68688000D02*
X138995998Y-68688000D01*
G75*
G02*
X138746000Y-68438002I0J249998D01*
G01*
X138746000Y-67912998D01*
G75*
G02*
X138995998Y-67663000I249998J0D01*
G01*
X139896002Y-67663000D01*
G75*
G02*
X140146000Y-67912998I0J-249998D01*
G01*
X140146000Y-68438002D01*
G75*
G02*
X139896002Y-68688000I-249998J0D01*
G01*
G37*
G36*
G01*
X139896002Y-70513000D02*
X138995998Y-70513000D01*
G75*
G02*
X138746000Y-70263002I0J249998D01*
G01*
X138746000Y-69737998D01*
G75*
G02*
X138995998Y-69488000I249998J0D01*
G01*
X139896002Y-69488000D01*
G75*
G02*
X140146000Y-69737998I0J-249998D01*
G01*
X140146000Y-70263002D01*
G75*
G02*
X139896002Y-70513000I-249998J0D01*
G01*
G37*
%TD*%
%TO.C,R1*%
G36*
G01*
X142182002Y-68688000D02*
X141281998Y-68688000D01*
G75*
G02*
X141032000Y-68438002I0J249998D01*
G01*
X141032000Y-67912998D01*
G75*
G02*
X141281998Y-67663000I249998J0D01*
G01*
X142182002Y-67663000D01*
G75*
G02*
X142432000Y-67912998I0J-249998D01*
G01*
X142432000Y-68438002D01*
G75*
G02*
X142182002Y-68688000I-249998J0D01*
G01*
G37*
G36*
G01*
X142182002Y-70513000D02*
X141281998Y-70513000D01*
G75*
G02*
X141032000Y-70263002I0J249998D01*
G01*
X141032000Y-69737998D01*
G75*
G02*
X141281998Y-69488000I249998J0D01*
G01*
X142182002Y-69488000D01*
G75*
G02*
X142432000Y-69737998I0J-249998D01*
G01*
X142432000Y-70263002D01*
G75*
G02*
X142182002Y-70513000I-249998J0D01*
G01*
G37*
%TD*%
%TO.C,D11*%
G36*
G01*
X128472250Y-58732000D02*
X127559750Y-58732000D01*
G75*
G02*
X127316000Y-58488250I0J243750D01*
G01*
X127316000Y-58000750D01*
G75*
G02*
X127559750Y-57757000I243750J0D01*
G01*
X128472250Y-57757000D01*
G75*
G02*
X128716000Y-58000750I0J-243750D01*
G01*
X128716000Y-58488250D01*
G75*
G02*
X128472250Y-58732000I-243750J0D01*
G01*
G37*
G36*
G01*
X128472250Y-60607000D02*
X127559750Y-60607000D01*
G75*
G02*
X127316000Y-60363250I0J243750D01*
G01*
X127316000Y-59875750D01*
G75*
G02*
X127559750Y-59632000I243750J0D01*
G01*
X128472250Y-59632000D01*
G75*
G02*
X128716000Y-59875750I0J-243750D01*
G01*
X128716000Y-60363250D01*
G75*
G02*
X128472250Y-60607000I-243750J0D01*
G01*
G37*
%TD*%
%TO.C,D10*%
G36*
G01*
X134562000Y-51002250D02*
X134562000Y-50089750D01*
G75*
G02*
X134805750Y-49846000I243750J0D01*
G01*
X135293250Y-49846000D01*
G75*
G02*
X135537000Y-50089750I0J-243750D01*
G01*
X135537000Y-51002250D01*
G75*
G02*
X135293250Y-51246000I-243750J0D01*
G01*
X134805750Y-51246000D01*
G75*
G02*
X134562000Y-51002250I0J243750D01*
G01*
G37*
G36*
G01*
X132687000Y-51002250D02*
X132687000Y-50089750D01*
G75*
G02*
X132930750Y-49846000I243750J0D01*
G01*
X133418250Y-49846000D01*
G75*
G02*
X133662000Y-50089750I0J-243750D01*
G01*
X133662000Y-51002250D01*
G75*
G02*
X133418250Y-51246000I-243750J0D01*
G01*
X132930750Y-51246000D01*
G75*
G02*
X132687000Y-51002250I0J243750D01*
G01*
G37*
%TD*%
%TO.C,D9*%
G36*
G01*
X126186250Y-58732000D02*
X125273750Y-58732000D01*
G75*
G02*
X125030000Y-58488250I0J243750D01*
G01*
X125030000Y-58000750D01*
G75*
G02*
X125273750Y-57757000I243750J0D01*
G01*
X126186250Y-57757000D01*
G75*
G02*
X126430000Y-58000750I0J-243750D01*
G01*
X126430000Y-58488250D01*
G75*
G02*
X126186250Y-58732000I-243750J0D01*
G01*
G37*
G36*
G01*
X126186250Y-60607000D02*
X125273750Y-60607000D01*
G75*
G02*
X125030000Y-60363250I0J243750D01*
G01*
X125030000Y-59875750D01*
G75*
G02*
X125273750Y-59632000I243750J0D01*
G01*
X126186250Y-59632000D01*
G75*
G02*
X126430000Y-59875750I0J-243750D01*
G01*
X126430000Y-60363250D01*
G75*
G02*
X126186250Y-60607000I-243750J0D01*
G01*
G37*
%TD*%
%TO.C,D8*%
G36*
G01*
X125273750Y-73602000D02*
X126186250Y-73602000D01*
G75*
G02*
X126430000Y-73845750I0J-243750D01*
G01*
X126430000Y-74333250D01*
G75*
G02*
X126186250Y-74577000I-243750J0D01*
G01*
X125273750Y-74577000D01*
G75*
G02*
X125030000Y-74333250I0J243750D01*
G01*
X125030000Y-73845750D01*
G75*
G02*
X125273750Y-73602000I243750J0D01*
G01*
G37*
G36*
G01*
X125273750Y-71727000D02*
X126186250Y-71727000D01*
G75*
G02*
X126430000Y-71970750I0J-243750D01*
G01*
X126430000Y-72458250D01*
G75*
G02*
X126186250Y-72702000I-243750J0D01*
G01*
X125273750Y-72702000D01*
G75*
G02*
X125030000Y-72458250I0J243750D01*
G01*
X125030000Y-71970750D01*
G75*
G02*
X125273750Y-71727000I243750J0D01*
G01*
G37*
%TD*%
%TO.C,D7*%
G36*
G01*
X127559750Y-73602000D02*
X128472250Y-73602000D01*
G75*
G02*
X128716000Y-73845750I0J-243750D01*
G01*
X128716000Y-74333250D01*
G75*
G02*
X128472250Y-74577000I-243750J0D01*
G01*
X127559750Y-74577000D01*
G75*
G02*
X127316000Y-74333250I0J243750D01*
G01*
X127316000Y-73845750D01*
G75*
G02*
X127559750Y-73602000I243750J0D01*
G01*
G37*
G36*
G01*
X127559750Y-71727000D02*
X128472250Y-71727000D01*
G75*
G02*
X128716000Y-71970750I0J-243750D01*
G01*
X128716000Y-72458250D01*
G75*
G02*
X128472250Y-72702000I-243750J0D01*
G01*
X127559750Y-72702000D01*
G75*
G02*
X127316000Y-72458250I0J243750D01*
G01*
X127316000Y-71970750D01*
G75*
G02*
X127559750Y-71727000I243750J0D01*
G01*
G37*
%TD*%
%TO.C,D6*%
G36*
G01*
X129845750Y-73602000D02*
X130758250Y-73602000D01*
G75*
G02*
X131002000Y-73845750I0J-243750D01*
G01*
X131002000Y-74333250D01*
G75*
G02*
X130758250Y-74577000I-243750J0D01*
G01*
X129845750Y-74577000D01*
G75*
G02*
X129602000Y-74333250I0J243750D01*
G01*
X129602000Y-73845750D01*
G75*
G02*
X129845750Y-73602000I243750J0D01*
G01*
G37*
G36*
G01*
X129845750Y-71727000D02*
X130758250Y-71727000D01*
G75*
G02*
X131002000Y-71970750I0J-243750D01*
G01*
X131002000Y-72458250D01*
G75*
G02*
X130758250Y-72702000I-243750J0D01*
G01*
X129845750Y-72702000D01*
G75*
G02*
X129602000Y-72458250I0J243750D01*
G01*
X129602000Y-71970750D01*
G75*
G02*
X129845750Y-71727000I243750J0D01*
G01*
G37*
%TD*%
%TO.C,D5*%
G36*
G01*
X132131750Y-73602000D02*
X133044250Y-73602000D01*
G75*
G02*
X133288000Y-73845750I0J-243750D01*
G01*
X133288000Y-74333250D01*
G75*
G02*
X133044250Y-74577000I-243750J0D01*
G01*
X132131750Y-74577000D01*
G75*
G02*
X131888000Y-74333250I0J243750D01*
G01*
X131888000Y-73845750D01*
G75*
G02*
X132131750Y-73602000I243750J0D01*
G01*
G37*
G36*
G01*
X132131750Y-71727000D02*
X133044250Y-71727000D01*
G75*
G02*
X133288000Y-71970750I0J-243750D01*
G01*
X133288000Y-72458250D01*
G75*
G02*
X133044250Y-72702000I-243750J0D01*
G01*
X132131750Y-72702000D01*
G75*
G02*
X131888000Y-72458250I0J243750D01*
G01*
X131888000Y-71970750D01*
G75*
G02*
X132131750Y-71727000I243750J0D01*
G01*
G37*
%TD*%
%TO.C,D4*%
G36*
G01*
X134417750Y-73602000D02*
X135330250Y-73602000D01*
G75*
G02*
X135574000Y-73845750I0J-243750D01*
G01*
X135574000Y-74333250D01*
G75*
G02*
X135330250Y-74577000I-243750J0D01*
G01*
X134417750Y-74577000D01*
G75*
G02*
X134174000Y-74333250I0J243750D01*
G01*
X134174000Y-73845750D01*
G75*
G02*
X134417750Y-73602000I243750J0D01*
G01*
G37*
G36*
G01*
X134417750Y-71727000D02*
X135330250Y-71727000D01*
G75*
G02*
X135574000Y-71970750I0J-243750D01*
G01*
X135574000Y-72458250D01*
G75*
G02*
X135330250Y-72702000I-243750J0D01*
G01*
X134417750Y-72702000D01*
G75*
G02*
X134174000Y-72458250I0J243750D01*
G01*
X134174000Y-71970750D01*
G75*
G02*
X134417750Y-71727000I243750J0D01*
G01*
G37*
%TD*%
%TO.C,D3*%
G36*
G01*
X136703750Y-73602000D02*
X137616250Y-73602000D01*
G75*
G02*
X137860000Y-73845750I0J-243750D01*
G01*
X137860000Y-74333250D01*
G75*
G02*
X137616250Y-74577000I-243750J0D01*
G01*
X136703750Y-74577000D01*
G75*
G02*
X136460000Y-74333250I0J243750D01*
G01*
X136460000Y-73845750D01*
G75*
G02*
X136703750Y-73602000I243750J0D01*
G01*
G37*
G36*
G01*
X136703750Y-71727000D02*
X137616250Y-71727000D01*
G75*
G02*
X137860000Y-71970750I0J-243750D01*
G01*
X137860000Y-72458250D01*
G75*
G02*
X137616250Y-72702000I-243750J0D01*
G01*
X136703750Y-72702000D01*
G75*
G02*
X136460000Y-72458250I0J243750D01*
G01*
X136460000Y-71970750D01*
G75*
G02*
X136703750Y-71727000I243750J0D01*
G01*
G37*
%TD*%
%TO.C,D2*%
G36*
G01*
X138989750Y-73602000D02*
X139902250Y-73602000D01*
G75*
G02*
X140146000Y-73845750I0J-243750D01*
G01*
X140146000Y-74333250D01*
G75*
G02*
X139902250Y-74577000I-243750J0D01*
G01*
X138989750Y-74577000D01*
G75*
G02*
X138746000Y-74333250I0J243750D01*
G01*
X138746000Y-73845750D01*
G75*
G02*
X138989750Y-73602000I243750J0D01*
G01*
G37*
G36*
G01*
X138989750Y-71727000D02*
X139902250Y-71727000D01*
G75*
G02*
X140146000Y-71970750I0J-243750D01*
G01*
X140146000Y-72458250D01*
G75*
G02*
X139902250Y-72702000I-243750J0D01*
G01*
X138989750Y-72702000D01*
G75*
G02*
X138746000Y-72458250I0J243750D01*
G01*
X138746000Y-71970750D01*
G75*
G02*
X138989750Y-71727000I243750J0D01*
G01*
G37*
%TD*%
%TO.C,D1*%
G36*
G01*
X141275750Y-73602000D02*
X142188250Y-73602000D01*
G75*
G02*
X142432000Y-73845750I0J-243750D01*
G01*
X142432000Y-74333250D01*
G75*
G02*
X142188250Y-74577000I-243750J0D01*
G01*
X141275750Y-74577000D01*
G75*
G02*
X141032000Y-74333250I0J243750D01*
G01*
X141032000Y-73845750D01*
G75*
G02*
X141275750Y-73602000I243750J0D01*
G01*
G37*
G36*
G01*
X141275750Y-71727000D02*
X142188250Y-71727000D01*
G75*
G02*
X142432000Y-71970750I0J-243750D01*
G01*
X142432000Y-72458250D01*
G75*
G02*
X142188250Y-72702000I-243750J0D01*
G01*
X141275750Y-72702000D01*
G75*
G02*
X141032000Y-72458250I0J243750D01*
G01*
X141032000Y-71970750D01*
G75*
G02*
X141275750Y-71727000I243750J0D01*
G01*
G37*
%TD*%
M02*
