%TF.GenerationSoftware,KiCad,Pcbnew,(5.1.10-1-10_14)*%
%TF.CreationDate,2021-10-18T21:54:19-04:00*%
%TF.ProjectId,RAM-MODULE,52414d2d-4d4f-4445-954c-452e6b696361,rev?*%
%TF.SameCoordinates,Original*%
%TF.FileFunction,Legend,Top*%
%TF.FilePolarity,Positive*%
%FSLAX46Y46*%
G04 Gerber Fmt 4.6, Leading zero omitted, Abs format (unit mm)*
G04 Created by KiCad (PCBNEW (5.1.10-1-10_14)) date 2021-10-18 21:54:19*
%MOMM*%
%LPD*%
G01*
G04 APERTURE LIST*
%ADD10C,0.100000*%
%ADD11C,0.150000*%
%ADD12C,0.120000*%
G04 APERTURE END LIST*
D10*
X221002571Y-104065428D02*
X221002571Y-104494000D01*
X220974000Y-104579714D01*
X220916857Y-104636857D01*
X220831142Y-104665428D01*
X220774000Y-104665428D01*
X221574000Y-104665428D02*
X221288285Y-104665428D01*
X221288285Y-104065428D01*
X222116857Y-104608285D02*
X222088285Y-104636857D01*
X222002571Y-104665428D01*
X221945428Y-104665428D01*
X221859714Y-104636857D01*
X221802571Y-104579714D01*
X221774000Y-104522571D01*
X221745428Y-104408285D01*
X221745428Y-104322571D01*
X221774000Y-104208285D01*
X221802571Y-104151142D01*
X221859714Y-104094000D01*
X221945428Y-104065428D01*
X222002571Y-104065428D01*
X222088285Y-104094000D01*
X222116857Y-104122571D01*
X222545428Y-104065428D02*
X222545428Y-104494000D01*
X222516857Y-104579714D01*
X222459714Y-104636857D01*
X222374000Y-104665428D01*
X222316857Y-104665428D01*
X223116857Y-104665428D02*
X222831142Y-104665428D01*
X222831142Y-104065428D01*
X223659714Y-104608285D02*
X223631142Y-104636857D01*
X223545428Y-104665428D01*
X223488285Y-104665428D01*
X223402571Y-104636857D01*
X223345428Y-104579714D01*
X223316857Y-104522571D01*
X223288285Y-104408285D01*
X223288285Y-104322571D01*
X223316857Y-104208285D01*
X223345428Y-104151142D01*
X223402571Y-104094000D01*
X223488285Y-104065428D01*
X223545428Y-104065428D01*
X223631142Y-104094000D01*
X223659714Y-104122571D01*
X224088285Y-104065428D02*
X224088285Y-104494000D01*
X224059714Y-104579714D01*
X224002571Y-104636857D01*
X223916857Y-104665428D01*
X223859714Y-104665428D01*
X224659714Y-104665428D02*
X224374000Y-104665428D01*
X224374000Y-104065428D01*
X225202571Y-104608285D02*
X225174000Y-104636857D01*
X225088285Y-104665428D01*
X225031142Y-104665428D01*
X224945428Y-104636857D01*
X224888285Y-104579714D01*
X224859714Y-104522571D01*
X224831142Y-104408285D01*
X224831142Y-104322571D01*
X224859714Y-104208285D01*
X224888285Y-104151142D01*
X224945428Y-104094000D01*
X225031142Y-104065428D01*
X225088285Y-104065428D01*
X225174000Y-104094000D01*
X225202571Y-104122571D01*
X225631142Y-104065428D02*
X225631142Y-104494000D01*
X225602571Y-104579714D01*
X225545428Y-104636857D01*
X225459714Y-104665428D01*
X225402571Y-104665428D01*
X226202571Y-104665428D02*
X225916857Y-104665428D01*
X225916857Y-104065428D01*
X226745428Y-104608285D02*
X226716857Y-104636857D01*
X226631142Y-104665428D01*
X226574000Y-104665428D01*
X226488285Y-104636857D01*
X226431142Y-104579714D01*
X226402571Y-104522571D01*
X226374000Y-104408285D01*
X226374000Y-104322571D01*
X226402571Y-104208285D01*
X226431142Y-104151142D01*
X226488285Y-104094000D01*
X226574000Y-104065428D01*
X226631142Y-104065428D01*
X226716857Y-104094000D01*
X226745428Y-104122571D01*
X266274571Y-111530095D02*
X266274571Y-111225333D01*
X266007904Y-111415809D02*
X266693619Y-111415809D01*
X266769809Y-111377714D01*
X266807904Y-111301523D01*
X266807904Y-111225333D01*
X266807904Y-110958666D02*
X266007904Y-110958666D01*
X266807904Y-110615809D02*
X266388857Y-110615809D01*
X266312666Y-110653904D01*
X266274571Y-110730095D01*
X266274571Y-110844380D01*
X266312666Y-110920571D01*
X266350761Y-110958666D01*
X266769809Y-109930095D02*
X266807904Y-110006285D01*
X266807904Y-110158666D01*
X266769809Y-110234857D01*
X266693619Y-110272952D01*
X266388857Y-110272952D01*
X266312666Y-110234857D01*
X266274571Y-110158666D01*
X266274571Y-110006285D01*
X266312666Y-109930095D01*
X266388857Y-109892000D01*
X266465047Y-109892000D01*
X266541238Y-110272952D01*
X266007904Y-109625333D02*
X266807904Y-109434857D01*
X266236476Y-109282476D01*
X266807904Y-109130095D01*
X266007904Y-108939619D01*
X266807904Y-108634857D02*
X266274571Y-108634857D01*
X266007904Y-108634857D02*
X266046000Y-108672952D01*
X266084095Y-108634857D01*
X266046000Y-108596761D01*
X266007904Y-108634857D01*
X266084095Y-108634857D01*
X266769809Y-107911047D02*
X266807904Y-107987238D01*
X266807904Y-108139619D01*
X266769809Y-108215809D01*
X266731714Y-108253904D01*
X266655523Y-108292000D01*
X266426952Y-108292000D01*
X266350761Y-108253904D01*
X266312666Y-108215809D01*
X266274571Y-108139619D01*
X266274571Y-107987238D01*
X266312666Y-107911047D01*
X266807904Y-107568190D02*
X266007904Y-107568190D01*
X266503142Y-107492000D02*
X266807904Y-107263428D01*
X266274571Y-107263428D02*
X266579333Y-107568190D01*
X266769809Y-106615809D02*
X266807904Y-106692000D01*
X266807904Y-106844380D01*
X266769809Y-106920571D01*
X266693619Y-106958666D01*
X266388857Y-106958666D01*
X266312666Y-106920571D01*
X266274571Y-106844380D01*
X266274571Y-106692000D01*
X266312666Y-106615809D01*
X266388857Y-106577714D01*
X266465047Y-106577714D01*
X266541238Y-106958666D01*
X266807904Y-105892000D02*
X266007904Y-105892000D01*
X266769809Y-105892000D02*
X266807904Y-105968190D01*
X266807904Y-106120571D01*
X266769809Y-106196761D01*
X266731714Y-106234857D01*
X266655523Y-106272952D01*
X266426952Y-106272952D01*
X266350761Y-106234857D01*
X266312666Y-106196761D01*
X266274571Y-106120571D01*
X266274571Y-105968190D01*
X266312666Y-105892000D01*
X266007904Y-105587238D02*
X266807904Y-105396761D01*
X266236476Y-105244380D01*
X266807904Y-105092000D01*
X266007904Y-104901523D01*
X266769809Y-104292000D02*
X266807904Y-104368190D01*
X266807904Y-104520571D01*
X266769809Y-104596761D01*
X266693619Y-104634857D01*
X266388857Y-104634857D01*
X266312666Y-104596761D01*
X266274571Y-104520571D01*
X266274571Y-104368190D01*
X266312666Y-104292000D01*
X266388857Y-104253904D01*
X266465047Y-104253904D01*
X266541238Y-104634857D01*
X266807904Y-103911047D02*
X266007904Y-103911047D01*
X266312666Y-103911047D02*
X266274571Y-103834857D01*
X266274571Y-103682476D01*
X266312666Y-103606285D01*
X266350761Y-103568190D01*
X266426952Y-103530095D01*
X266655523Y-103530095D01*
X266731714Y-103568190D01*
X266769809Y-103606285D01*
X266807904Y-103682476D01*
X266807904Y-103834857D01*
X266769809Y-103911047D01*
X266807904Y-103187238D02*
X266007904Y-103187238D01*
X266007904Y-102996761D01*
X266046000Y-102882476D01*
X266122190Y-102806285D01*
X266198380Y-102768190D01*
X266350761Y-102730095D01*
X266465047Y-102730095D01*
X266617428Y-102768190D01*
X266693619Y-102806285D01*
X266769809Y-102882476D01*
X266807904Y-102996761D01*
X266807904Y-103187238D01*
X266769809Y-102082476D02*
X266807904Y-102158666D01*
X266807904Y-102311047D01*
X266769809Y-102387238D01*
X266693619Y-102425333D01*
X266388857Y-102425333D01*
X266312666Y-102387238D01*
X266274571Y-102311047D01*
X266274571Y-102158666D01*
X266312666Y-102082476D01*
X266388857Y-102044380D01*
X266465047Y-102044380D01*
X266541238Y-102425333D01*
X266274571Y-101777714D02*
X266807904Y-101587238D01*
X266274571Y-101396761D01*
X265969809Y-100520571D02*
X266998380Y-101206285D01*
X266350761Y-100139619D02*
X266312666Y-100215809D01*
X266274571Y-100253904D01*
X266198380Y-100292000D01*
X266160285Y-100292000D01*
X266084095Y-100253904D01*
X266046000Y-100215809D01*
X266007904Y-100139619D01*
X266007904Y-99987238D01*
X266046000Y-99911047D01*
X266084095Y-99872952D01*
X266160285Y-99834857D01*
X266198380Y-99834857D01*
X266274571Y-99872952D01*
X266312666Y-99911047D01*
X266350761Y-99987238D01*
X266350761Y-100139619D01*
X266388857Y-100215809D01*
X266426952Y-100253904D01*
X266503142Y-100292000D01*
X266655523Y-100292000D01*
X266731714Y-100253904D01*
X266769809Y-100215809D01*
X266807904Y-100139619D01*
X266807904Y-99987238D01*
X266769809Y-99911047D01*
X266731714Y-99872952D01*
X266655523Y-99834857D01*
X266503142Y-99834857D01*
X266426952Y-99872952D01*
X266388857Y-99911047D01*
X266350761Y-99987238D01*
X266503142Y-99492000D02*
X266503142Y-98882476D01*
X266807904Y-98501523D02*
X266007904Y-98501523D01*
X266312666Y-98501523D02*
X266274571Y-98425333D01*
X266274571Y-98272952D01*
X266312666Y-98196761D01*
X266350761Y-98158666D01*
X266426952Y-98120571D01*
X266655523Y-98120571D01*
X266731714Y-98158666D01*
X266769809Y-98196761D01*
X266807904Y-98272952D01*
X266807904Y-98425333D01*
X266769809Y-98501523D01*
X266807904Y-97777714D02*
X266274571Y-97777714D01*
X266007904Y-97777714D02*
X266046000Y-97815809D01*
X266084095Y-97777714D01*
X266046000Y-97739619D01*
X266007904Y-97777714D01*
X266084095Y-97777714D01*
X266274571Y-97511047D02*
X266274571Y-97206285D01*
X266007904Y-97396761D02*
X266693619Y-97396761D01*
X266769809Y-97358666D01*
X266807904Y-97282476D01*
X266807904Y-97206285D01*
X266503142Y-96939619D02*
X266503142Y-96330095D01*
X266769809Y-95606285D02*
X266807904Y-95682476D01*
X266807904Y-95834857D01*
X266769809Y-95911047D01*
X266731714Y-95949142D01*
X266655523Y-95987238D01*
X266426952Y-95987238D01*
X266350761Y-95949142D01*
X266312666Y-95911047D01*
X266274571Y-95834857D01*
X266274571Y-95682476D01*
X266312666Y-95606285D01*
X266807904Y-95149142D02*
X266769809Y-95225333D01*
X266731714Y-95263428D01*
X266655523Y-95301523D01*
X266426952Y-95301523D01*
X266350761Y-95263428D01*
X266312666Y-95225333D01*
X266274571Y-95149142D01*
X266274571Y-95034857D01*
X266312666Y-94958666D01*
X266350761Y-94920571D01*
X266426952Y-94882476D01*
X266655523Y-94882476D01*
X266731714Y-94920571D01*
X266769809Y-94958666D01*
X266807904Y-95034857D01*
X266807904Y-95149142D01*
X266807904Y-94539619D02*
X266274571Y-94539619D01*
X266350761Y-94539619D02*
X266312666Y-94501523D01*
X266274571Y-94425333D01*
X266274571Y-94311047D01*
X266312666Y-94234857D01*
X266388857Y-94196761D01*
X266807904Y-94196761D01*
X266388857Y-94196761D02*
X266312666Y-94158666D01*
X266274571Y-94082476D01*
X266274571Y-93968190D01*
X266312666Y-93892000D01*
X266388857Y-93853904D01*
X266807904Y-93853904D01*
X266274571Y-93472952D02*
X267074571Y-93472952D01*
X266312666Y-93472952D02*
X266274571Y-93396761D01*
X266274571Y-93244380D01*
X266312666Y-93168190D01*
X266350761Y-93130095D01*
X266426952Y-93092000D01*
X266655523Y-93092000D01*
X266731714Y-93130095D01*
X266769809Y-93168190D01*
X266807904Y-93244380D01*
X266807904Y-93396761D01*
X266769809Y-93472952D01*
X266274571Y-92406285D02*
X266807904Y-92406285D01*
X266274571Y-92749142D02*
X266693619Y-92749142D01*
X266769809Y-92711047D01*
X266807904Y-92634857D01*
X266807904Y-92520571D01*
X266769809Y-92444380D01*
X266731714Y-92406285D01*
X266274571Y-92139619D02*
X266274571Y-91834857D01*
X266007904Y-92025333D02*
X266693619Y-92025333D01*
X266769809Y-91987238D01*
X266807904Y-91911047D01*
X266807904Y-91834857D01*
X266769809Y-91263428D02*
X266807904Y-91339619D01*
X266807904Y-91492000D01*
X266769809Y-91568190D01*
X266693619Y-91606285D01*
X266388857Y-91606285D01*
X266312666Y-91568190D01*
X266274571Y-91492000D01*
X266274571Y-91339619D01*
X266312666Y-91263428D01*
X266388857Y-91225333D01*
X266465047Y-91225333D01*
X266541238Y-91606285D01*
X266807904Y-90882476D02*
X266274571Y-90882476D01*
X266426952Y-90882476D02*
X266350761Y-90844380D01*
X266312666Y-90806285D01*
X266274571Y-90730095D01*
X266274571Y-90653904D01*
D11*
X256941238Y-110096952D02*
X256941238Y-107596952D01*
X257774571Y-109382666D01*
X258607904Y-107596952D01*
X258607904Y-110096952D01*
X259679333Y-109382666D02*
X260869809Y-109382666D01*
X259441238Y-110096952D02*
X260274571Y-107596952D01*
X261107904Y-110096952D01*
X263369809Y-110096952D02*
X262536476Y-108906476D01*
X261941238Y-110096952D02*
X261941238Y-107596952D01*
X262893619Y-107596952D01*
X263131714Y-107716000D01*
X263250761Y-107835047D01*
X263369809Y-108073142D01*
X263369809Y-108430285D01*
X263250761Y-108668380D01*
X263131714Y-108787428D01*
X262893619Y-108906476D01*
X261941238Y-108906476D01*
D10*
X263793333Y-97090666D02*
X263793333Y-96390666D01*
X264126666Y-97090666D02*
X264126666Y-96390666D01*
X264526666Y-97090666D01*
X264526666Y-96390666D01*
X261744666Y-96390666D02*
X261878000Y-96390666D01*
X261944666Y-96424000D01*
X262011333Y-96490666D01*
X262044666Y-96624000D01*
X262044666Y-96857333D01*
X262011333Y-96990666D01*
X261944666Y-97057333D01*
X261878000Y-97090666D01*
X261744666Y-97090666D01*
X261678000Y-97057333D01*
X261611333Y-96990666D01*
X261578000Y-96857333D01*
X261578000Y-96624000D01*
X261611333Y-96490666D01*
X261678000Y-96424000D01*
X261744666Y-96390666D01*
X262344666Y-96724000D02*
X262578000Y-96724000D01*
X262678000Y-97090666D02*
X262344666Y-97090666D01*
X262344666Y-96390666D01*
X262678000Y-96390666D01*
D12*
X225298000Y-109474000D02*
X208534000Y-109474000D01*
X235204000Y-109474000D02*
X254000000Y-109474000D01*
D11*
X252301523Y-102814380D02*
X252301523Y-101814380D01*
X252872952Y-102814380D01*
X252872952Y-101814380D01*
X253539619Y-101814380D02*
X253730095Y-101814380D01*
X253825333Y-101862000D01*
X253920571Y-101957238D01*
X253968190Y-102147714D01*
X253968190Y-102481047D01*
X253920571Y-102671523D01*
X253825333Y-102766761D01*
X253730095Y-102814380D01*
X253539619Y-102814380D01*
X253444380Y-102766761D01*
X253349142Y-102671523D01*
X253301523Y-102481047D01*
X253301523Y-102147714D01*
X253349142Y-101957238D01*
X253444380Y-101862000D01*
X253539619Y-101814380D01*
X254253904Y-101814380D02*
X254825333Y-101814380D01*
X254539619Y-102814380D02*
X254539619Y-101814380D01*
X252992095Y-95416666D02*
X253468285Y-95416666D01*
X252896857Y-95702380D02*
X253230190Y-94702380D01*
X253563523Y-95702380D01*
X253896857Y-95702380D02*
X253896857Y-94702380D01*
X254468285Y-95702380D01*
X254468285Y-94702380D01*
X254944476Y-95702380D02*
X254944476Y-94702380D01*
X255182571Y-94702380D01*
X255325428Y-94750000D01*
X255420666Y-94845238D01*
X255468285Y-94940476D01*
X255515904Y-95130952D01*
X255515904Y-95273809D01*
X255468285Y-95464285D01*
X255420666Y-95559523D01*
X255325428Y-95654761D01*
X255182571Y-95702380D01*
X254944476Y-95702380D01*
D10*
X213161619Y-105401904D02*
X213114000Y-105354285D01*
X213066380Y-105259047D01*
X213066380Y-105020952D01*
X213114000Y-104925714D01*
X213161619Y-104878095D01*
X213256857Y-104830476D01*
X213352095Y-104830476D01*
X213494952Y-104878095D01*
X214066380Y-105449523D01*
X214066380Y-104830476D01*
X214066380Y-104401904D02*
X213066380Y-104401904D01*
X213447333Y-104401904D02*
X213399714Y-104306666D01*
X213399714Y-104116190D01*
X213447333Y-104020952D01*
X213494952Y-103973333D01*
X213590190Y-103925714D01*
X213875904Y-103925714D01*
X213971142Y-103973333D01*
X214018761Y-104020952D01*
X214066380Y-104116190D01*
X214066380Y-104306666D01*
X214018761Y-104401904D01*
X214066380Y-103497142D02*
X213399714Y-103497142D01*
X213066380Y-103497142D02*
X213114000Y-103544761D01*
X213161619Y-103497142D01*
X213114000Y-103449523D01*
X213066380Y-103497142D01*
X213161619Y-103497142D01*
X213399714Y-103163809D02*
X213399714Y-102782857D01*
X213066380Y-103020952D02*
X213923523Y-103020952D01*
X214018761Y-102973333D01*
X214066380Y-102878095D01*
X214066380Y-102782857D01*
X242530380Y-107147904D02*
X242530380Y-106481238D01*
X243530380Y-106909809D01*
X242863714Y-105671714D02*
X243530380Y-105671714D01*
X242482761Y-105909809D02*
X243197047Y-106147904D01*
X243197047Y-105528857D01*
X243530380Y-105147904D02*
X242530380Y-105147904D01*
X243006571Y-105147904D02*
X243006571Y-104576476D01*
X243530380Y-104576476D02*
X242530380Y-104576476D01*
X243435142Y-103528857D02*
X243482761Y-103576476D01*
X243530380Y-103719333D01*
X243530380Y-103814571D01*
X243482761Y-103957428D01*
X243387523Y-104052666D01*
X243292285Y-104100285D01*
X243101809Y-104147904D01*
X242958952Y-104147904D01*
X242768476Y-104100285D01*
X242673238Y-104052666D01*
X242578000Y-103957428D01*
X242530380Y-103814571D01*
X242530380Y-103719333D01*
X242578000Y-103576476D01*
X242625619Y-103528857D01*
X242530380Y-102624095D02*
X242530380Y-103100285D01*
X243006571Y-103147904D01*
X242958952Y-103100285D01*
X242911333Y-103005047D01*
X242911333Y-102766952D01*
X242958952Y-102671714D01*
X243006571Y-102624095D01*
X243101809Y-102576476D01*
X243339904Y-102576476D01*
X243435142Y-102624095D01*
X243482761Y-102671714D01*
X243530380Y-102766952D01*
X243530380Y-103005047D01*
X243482761Y-103100285D01*
X243435142Y-103147904D01*
X242530380Y-102243142D02*
X242530380Y-101576476D01*
X243530380Y-102005047D01*
X242863714Y-100766952D02*
X243530380Y-100766952D01*
X242482761Y-101005047D02*
X243197047Y-101243142D01*
X243197047Y-100624095D01*
X227798380Y-107147904D02*
X227798380Y-106481238D01*
X228798380Y-106909809D01*
X228131714Y-105671714D02*
X228798380Y-105671714D01*
X227750761Y-105909809D02*
X228465047Y-106147904D01*
X228465047Y-105528857D01*
X228798380Y-105147904D02*
X227798380Y-105147904D01*
X228274571Y-105147904D02*
X228274571Y-104576476D01*
X228798380Y-104576476D02*
X227798380Y-104576476D01*
X228703142Y-103528857D02*
X228750761Y-103576476D01*
X228798380Y-103719333D01*
X228798380Y-103814571D01*
X228750761Y-103957428D01*
X228655523Y-104052666D01*
X228560285Y-104100285D01*
X228369809Y-104147904D01*
X228226952Y-104147904D01*
X228036476Y-104100285D01*
X227941238Y-104052666D01*
X227846000Y-103957428D01*
X227798380Y-103814571D01*
X227798380Y-103719333D01*
X227846000Y-103576476D01*
X227893619Y-103528857D01*
X227798380Y-102624095D02*
X227798380Y-103100285D01*
X228274571Y-103147904D01*
X228226952Y-103100285D01*
X228179333Y-103005047D01*
X228179333Y-102766952D01*
X228226952Y-102671714D01*
X228274571Y-102624095D01*
X228369809Y-102576476D01*
X228607904Y-102576476D01*
X228703142Y-102624095D01*
X228750761Y-102671714D01*
X228798380Y-102766952D01*
X228798380Y-103005047D01*
X228750761Y-103100285D01*
X228703142Y-103147904D01*
X227798380Y-102243142D02*
X227798380Y-101576476D01*
X228798380Y-102005047D01*
X228131714Y-100766952D02*
X228798380Y-100766952D01*
X227750761Y-101005047D02*
X228465047Y-101243142D01*
X228465047Y-100624095D01*
D12*
X220472000Y-84074000D02*
X208788000Y-84074000D01*
X248666000Y-84074000D02*
X236982000Y-84074000D01*
D10*
X221377809Y-84526380D02*
X221377809Y-83526380D01*
X221711142Y-84240666D01*
X222044476Y-83526380D01*
X222044476Y-84526380D01*
X222901619Y-84478761D02*
X222806380Y-84526380D01*
X222615904Y-84526380D01*
X222520666Y-84478761D01*
X222473047Y-84383523D01*
X222473047Y-84002571D01*
X222520666Y-83907333D01*
X222615904Y-83859714D01*
X222806380Y-83859714D01*
X222901619Y-83907333D01*
X222949238Y-84002571D01*
X222949238Y-84097809D01*
X222473047Y-84193047D01*
X223377809Y-84526380D02*
X223377809Y-83859714D01*
X223377809Y-83954952D02*
X223425428Y-83907333D01*
X223520666Y-83859714D01*
X223663523Y-83859714D01*
X223758761Y-83907333D01*
X223806380Y-84002571D01*
X223806380Y-84526380D01*
X223806380Y-84002571D02*
X223854000Y-83907333D01*
X223949238Y-83859714D01*
X224092095Y-83859714D01*
X224187333Y-83907333D01*
X224234952Y-84002571D01*
X224234952Y-84526380D01*
X224854000Y-84526380D02*
X224758761Y-84478761D01*
X224711142Y-84431142D01*
X224663523Y-84335904D01*
X224663523Y-84050190D01*
X224711142Y-83954952D01*
X224758761Y-83907333D01*
X224854000Y-83859714D01*
X224996857Y-83859714D01*
X225092095Y-83907333D01*
X225139714Y-83954952D01*
X225187333Y-84050190D01*
X225187333Y-84335904D01*
X225139714Y-84431142D01*
X225092095Y-84478761D01*
X224996857Y-84526380D01*
X224854000Y-84526380D01*
X225615904Y-84526380D02*
X225615904Y-83859714D01*
X225615904Y-84050190D02*
X225663523Y-83954952D01*
X225711142Y-83907333D01*
X225806380Y-83859714D01*
X225901619Y-83859714D01*
X226139714Y-83859714D02*
X226377809Y-84526380D01*
X226615904Y-83859714D02*
X226377809Y-84526380D01*
X226282571Y-84764476D01*
X226234952Y-84812095D01*
X226139714Y-84859714D01*
X227711142Y-84240666D02*
X228187333Y-84240666D01*
X227615904Y-84526380D02*
X227949238Y-83526380D01*
X228282571Y-84526380D01*
X229044476Y-84526380D02*
X229044476Y-83526380D01*
X229044476Y-84478761D02*
X228949238Y-84526380D01*
X228758761Y-84526380D01*
X228663523Y-84478761D01*
X228615904Y-84431142D01*
X228568285Y-84335904D01*
X228568285Y-84050190D01*
X228615904Y-83954952D01*
X228663523Y-83907333D01*
X228758761Y-83859714D01*
X228949238Y-83859714D01*
X229044476Y-83907333D01*
X229949238Y-84526380D02*
X229949238Y-83526380D01*
X229949238Y-84478761D02*
X229854000Y-84526380D01*
X229663523Y-84526380D01*
X229568285Y-84478761D01*
X229520666Y-84431142D01*
X229473047Y-84335904D01*
X229473047Y-84050190D01*
X229520666Y-83954952D01*
X229568285Y-83907333D01*
X229663523Y-83859714D01*
X229854000Y-83859714D01*
X229949238Y-83907333D01*
X230425428Y-84526380D02*
X230425428Y-83859714D01*
X230425428Y-84050190D02*
X230473047Y-83954952D01*
X230520666Y-83907333D01*
X230615904Y-83859714D01*
X230711142Y-83859714D01*
X231425428Y-84478761D02*
X231330190Y-84526380D01*
X231139714Y-84526380D01*
X231044476Y-84478761D01*
X230996857Y-84383523D01*
X230996857Y-84002571D01*
X231044476Y-83907333D01*
X231139714Y-83859714D01*
X231330190Y-83859714D01*
X231425428Y-83907333D01*
X231473047Y-84002571D01*
X231473047Y-84097809D01*
X230996857Y-84193047D01*
X231854000Y-84478761D02*
X231949238Y-84526380D01*
X232139714Y-84526380D01*
X232234952Y-84478761D01*
X232282571Y-84383523D01*
X232282571Y-84335904D01*
X232234952Y-84240666D01*
X232139714Y-84193047D01*
X231996857Y-84193047D01*
X231901619Y-84145428D01*
X231854000Y-84050190D01*
X231854000Y-84002571D01*
X231901619Y-83907333D01*
X231996857Y-83859714D01*
X232139714Y-83859714D01*
X232234952Y-83907333D01*
X232663523Y-84478761D02*
X232758761Y-84526380D01*
X232949238Y-84526380D01*
X233044476Y-84478761D01*
X233092095Y-84383523D01*
X233092095Y-84335904D01*
X233044476Y-84240666D01*
X232949238Y-84193047D01*
X232806380Y-84193047D01*
X232711142Y-84145428D01*
X232663523Y-84050190D01*
X232663523Y-84002571D01*
X232711142Y-83907333D01*
X232806380Y-83859714D01*
X232949238Y-83859714D01*
X233044476Y-83907333D01*
X234473047Y-83526380D02*
X234663523Y-83526380D01*
X234758761Y-83574000D01*
X234854000Y-83669238D01*
X234901619Y-83859714D01*
X234901619Y-84193047D01*
X234854000Y-84383523D01*
X234758761Y-84478761D01*
X234663523Y-84526380D01*
X234473047Y-84526380D01*
X234377809Y-84478761D01*
X234282571Y-84383523D01*
X234234952Y-84193047D01*
X234234952Y-83859714D01*
X234282571Y-83669238D01*
X234377809Y-83574000D01*
X234473047Y-83526380D01*
X235758761Y-83859714D02*
X235758761Y-84526380D01*
X235330190Y-83859714D02*
X235330190Y-84383523D01*
X235377809Y-84478761D01*
X235473047Y-84526380D01*
X235615904Y-84526380D01*
X235711142Y-84478761D01*
X235758761Y-84431142D01*
X236092095Y-83859714D02*
X236473047Y-83859714D01*
X236234952Y-83526380D02*
X236234952Y-84383523D01*
X236282571Y-84478761D01*
X236377809Y-84526380D01*
X236473047Y-84526380D01*
X225695428Y-109640666D02*
X226171619Y-109640666D01*
X225600190Y-109926380D02*
X225933523Y-108926380D01*
X226266857Y-109926380D01*
X227028761Y-109926380D02*
X227028761Y-108926380D01*
X227028761Y-109878761D02*
X226933523Y-109926380D01*
X226743047Y-109926380D01*
X226647809Y-109878761D01*
X226600190Y-109831142D01*
X226552571Y-109735904D01*
X226552571Y-109450190D01*
X226600190Y-109354952D01*
X226647809Y-109307333D01*
X226743047Y-109259714D01*
X226933523Y-109259714D01*
X227028761Y-109307333D01*
X227933523Y-109926380D02*
X227933523Y-108926380D01*
X227933523Y-109878761D02*
X227838285Y-109926380D01*
X227647809Y-109926380D01*
X227552571Y-109878761D01*
X227504952Y-109831142D01*
X227457333Y-109735904D01*
X227457333Y-109450190D01*
X227504952Y-109354952D01*
X227552571Y-109307333D01*
X227647809Y-109259714D01*
X227838285Y-109259714D01*
X227933523Y-109307333D01*
X228409714Y-109926380D02*
X228409714Y-109259714D01*
X228409714Y-109450190D02*
X228457333Y-109354952D01*
X228504952Y-109307333D01*
X228600190Y-109259714D01*
X228695428Y-109259714D01*
X229409714Y-109878761D02*
X229314476Y-109926380D01*
X229124000Y-109926380D01*
X229028761Y-109878761D01*
X228981142Y-109783523D01*
X228981142Y-109402571D01*
X229028761Y-109307333D01*
X229124000Y-109259714D01*
X229314476Y-109259714D01*
X229409714Y-109307333D01*
X229457333Y-109402571D01*
X229457333Y-109497809D01*
X228981142Y-109593047D01*
X229838285Y-109878761D02*
X229933523Y-109926380D01*
X230124000Y-109926380D01*
X230219238Y-109878761D01*
X230266857Y-109783523D01*
X230266857Y-109735904D01*
X230219238Y-109640666D01*
X230124000Y-109593047D01*
X229981142Y-109593047D01*
X229885904Y-109545428D01*
X229838285Y-109450190D01*
X229838285Y-109402571D01*
X229885904Y-109307333D01*
X229981142Y-109259714D01*
X230124000Y-109259714D01*
X230219238Y-109307333D01*
X230647809Y-109878761D02*
X230743047Y-109926380D01*
X230933523Y-109926380D01*
X231028761Y-109878761D01*
X231076380Y-109783523D01*
X231076380Y-109735904D01*
X231028761Y-109640666D01*
X230933523Y-109593047D01*
X230790666Y-109593047D01*
X230695428Y-109545428D01*
X230647809Y-109450190D01*
X230647809Y-109402571D01*
X230695428Y-109307333D01*
X230790666Y-109259714D01*
X230933523Y-109259714D01*
X231028761Y-109307333D01*
X232600190Y-109402571D02*
X232743047Y-109450190D01*
X232790666Y-109497809D01*
X232838285Y-109593047D01*
X232838285Y-109735904D01*
X232790666Y-109831142D01*
X232743047Y-109878761D01*
X232647809Y-109926380D01*
X232266857Y-109926380D01*
X232266857Y-108926380D01*
X232600190Y-108926380D01*
X232695428Y-108974000D01*
X232743047Y-109021619D01*
X232790666Y-109116857D01*
X232790666Y-109212095D01*
X232743047Y-109307333D01*
X232695428Y-109354952D01*
X232600190Y-109402571D01*
X232266857Y-109402571D01*
X233695428Y-109259714D02*
X233695428Y-109926380D01*
X233266857Y-109259714D02*
X233266857Y-109783523D01*
X233314476Y-109878761D01*
X233409714Y-109926380D01*
X233552571Y-109926380D01*
X233647809Y-109878761D01*
X233695428Y-109831142D01*
X234124000Y-109878761D02*
X234219238Y-109926380D01*
X234409714Y-109926380D01*
X234504952Y-109878761D01*
X234552571Y-109783523D01*
X234552571Y-109735904D01*
X234504952Y-109640666D01*
X234409714Y-109593047D01*
X234266857Y-109593047D01*
X234171619Y-109545428D01*
X234124000Y-109450190D01*
X234124000Y-109402571D01*
X234171619Y-109307333D01*
X234266857Y-109259714D01*
X234409714Y-109259714D01*
X234504952Y-109307333D01*
X253055428Y-113666428D02*
X253007809Y-113809285D01*
X252960190Y-113856904D01*
X252864952Y-113904523D01*
X252722095Y-113904523D01*
X252626857Y-113856904D01*
X252579238Y-113809285D01*
X252531619Y-113714047D01*
X252531619Y-113333095D01*
X253531619Y-113333095D01*
X253531619Y-113666428D01*
X253484000Y-113761666D01*
X253436380Y-113809285D01*
X253341142Y-113856904D01*
X253245904Y-113856904D01*
X253150666Y-113809285D01*
X253103047Y-113761666D01*
X253055428Y-113666428D01*
X253055428Y-113333095D01*
X253531619Y-114523571D02*
X253531619Y-114618809D01*
X253484000Y-114714047D01*
X253436380Y-114761666D01*
X253341142Y-114809285D01*
X253150666Y-114856904D01*
X252912571Y-114856904D01*
X252722095Y-114809285D01*
X252626857Y-114761666D01*
X252579238Y-114714047D01*
X252531619Y-114618809D01*
X252531619Y-114523571D01*
X252579238Y-114428333D01*
X252626857Y-114380714D01*
X252722095Y-114333095D01*
X252912571Y-114285476D01*
X253150666Y-114285476D01*
X253341142Y-114333095D01*
X253436380Y-114380714D01*
X253484000Y-114428333D01*
X253531619Y-114523571D01*
X250515428Y-113666428D02*
X250467809Y-113809285D01*
X250420190Y-113856904D01*
X250324952Y-113904523D01*
X250182095Y-113904523D01*
X250086857Y-113856904D01*
X250039238Y-113809285D01*
X249991619Y-113714047D01*
X249991619Y-113333095D01*
X250991619Y-113333095D01*
X250991619Y-113666428D01*
X250944000Y-113761666D01*
X250896380Y-113809285D01*
X250801142Y-113856904D01*
X250705904Y-113856904D01*
X250610666Y-113809285D01*
X250563047Y-113761666D01*
X250515428Y-113666428D01*
X250515428Y-113333095D01*
X249991619Y-114856904D02*
X249991619Y-114285476D01*
X249991619Y-114571190D02*
X250991619Y-114571190D01*
X250848761Y-114475952D01*
X250753523Y-114380714D01*
X250705904Y-114285476D01*
X247975428Y-113666428D02*
X247927809Y-113809285D01*
X247880190Y-113856904D01*
X247784952Y-113904523D01*
X247642095Y-113904523D01*
X247546857Y-113856904D01*
X247499238Y-113809285D01*
X247451619Y-113714047D01*
X247451619Y-113333095D01*
X248451619Y-113333095D01*
X248451619Y-113666428D01*
X248404000Y-113761666D01*
X248356380Y-113809285D01*
X248261142Y-113856904D01*
X248165904Y-113856904D01*
X248070666Y-113809285D01*
X248023047Y-113761666D01*
X247975428Y-113666428D01*
X247975428Y-113333095D01*
X248356380Y-114285476D02*
X248404000Y-114333095D01*
X248451619Y-114428333D01*
X248451619Y-114666428D01*
X248404000Y-114761666D01*
X248356380Y-114809285D01*
X248261142Y-114856904D01*
X248165904Y-114856904D01*
X248023047Y-114809285D01*
X247451619Y-114237857D01*
X247451619Y-114856904D01*
X245435428Y-113666428D02*
X245387809Y-113809285D01*
X245340190Y-113856904D01*
X245244952Y-113904523D01*
X245102095Y-113904523D01*
X245006857Y-113856904D01*
X244959238Y-113809285D01*
X244911619Y-113714047D01*
X244911619Y-113333095D01*
X245911619Y-113333095D01*
X245911619Y-113666428D01*
X245864000Y-113761666D01*
X245816380Y-113809285D01*
X245721142Y-113856904D01*
X245625904Y-113856904D01*
X245530666Y-113809285D01*
X245483047Y-113761666D01*
X245435428Y-113666428D01*
X245435428Y-113333095D01*
X245911619Y-114237857D02*
X245911619Y-114856904D01*
X245530666Y-114523571D01*
X245530666Y-114666428D01*
X245483047Y-114761666D01*
X245435428Y-114809285D01*
X245340190Y-114856904D01*
X245102095Y-114856904D01*
X245006857Y-114809285D01*
X244959238Y-114761666D01*
X244911619Y-114666428D01*
X244911619Y-114380714D01*
X244959238Y-114285476D01*
X245006857Y-114237857D01*
X242895428Y-113666428D02*
X242847809Y-113809285D01*
X242800190Y-113856904D01*
X242704952Y-113904523D01*
X242562095Y-113904523D01*
X242466857Y-113856904D01*
X242419238Y-113809285D01*
X242371619Y-113714047D01*
X242371619Y-113333095D01*
X243371619Y-113333095D01*
X243371619Y-113666428D01*
X243324000Y-113761666D01*
X243276380Y-113809285D01*
X243181142Y-113856904D01*
X243085904Y-113856904D01*
X242990666Y-113809285D01*
X242943047Y-113761666D01*
X242895428Y-113666428D01*
X242895428Y-113333095D01*
X243038285Y-114761666D02*
X242371619Y-114761666D01*
X243419238Y-114523571D02*
X242704952Y-114285476D01*
X242704952Y-114904523D01*
X240355428Y-113666428D02*
X240307809Y-113809285D01*
X240260190Y-113856904D01*
X240164952Y-113904523D01*
X240022095Y-113904523D01*
X239926857Y-113856904D01*
X239879238Y-113809285D01*
X239831619Y-113714047D01*
X239831619Y-113333095D01*
X240831619Y-113333095D01*
X240831619Y-113666428D01*
X240784000Y-113761666D01*
X240736380Y-113809285D01*
X240641142Y-113856904D01*
X240545904Y-113856904D01*
X240450666Y-113809285D01*
X240403047Y-113761666D01*
X240355428Y-113666428D01*
X240355428Y-113333095D01*
X240831619Y-114809285D02*
X240831619Y-114333095D01*
X240355428Y-114285476D01*
X240403047Y-114333095D01*
X240450666Y-114428333D01*
X240450666Y-114666428D01*
X240403047Y-114761666D01*
X240355428Y-114809285D01*
X240260190Y-114856904D01*
X240022095Y-114856904D01*
X239926857Y-114809285D01*
X239879238Y-114761666D01*
X239831619Y-114666428D01*
X239831619Y-114428333D01*
X239879238Y-114333095D01*
X239926857Y-114285476D01*
X237815428Y-113666428D02*
X237767809Y-113809285D01*
X237720190Y-113856904D01*
X237624952Y-113904523D01*
X237482095Y-113904523D01*
X237386857Y-113856904D01*
X237339238Y-113809285D01*
X237291619Y-113714047D01*
X237291619Y-113333095D01*
X238291619Y-113333095D01*
X238291619Y-113666428D01*
X238244000Y-113761666D01*
X238196380Y-113809285D01*
X238101142Y-113856904D01*
X238005904Y-113856904D01*
X237910666Y-113809285D01*
X237863047Y-113761666D01*
X237815428Y-113666428D01*
X237815428Y-113333095D01*
X238291619Y-114761666D02*
X238291619Y-114571190D01*
X238244000Y-114475952D01*
X238196380Y-114428333D01*
X238053523Y-114333095D01*
X237863047Y-114285476D01*
X237482095Y-114285476D01*
X237386857Y-114333095D01*
X237339238Y-114380714D01*
X237291619Y-114475952D01*
X237291619Y-114666428D01*
X237339238Y-114761666D01*
X237386857Y-114809285D01*
X237482095Y-114856904D01*
X237720190Y-114856904D01*
X237815428Y-114809285D01*
X237863047Y-114761666D01*
X237910666Y-114666428D01*
X237910666Y-114475952D01*
X237863047Y-114380714D01*
X237815428Y-114333095D01*
X237720190Y-114285476D01*
X235275428Y-113666428D02*
X235227809Y-113809285D01*
X235180190Y-113856904D01*
X235084952Y-113904523D01*
X234942095Y-113904523D01*
X234846857Y-113856904D01*
X234799238Y-113809285D01*
X234751619Y-113714047D01*
X234751619Y-113333095D01*
X235751619Y-113333095D01*
X235751619Y-113666428D01*
X235704000Y-113761666D01*
X235656380Y-113809285D01*
X235561142Y-113856904D01*
X235465904Y-113856904D01*
X235370666Y-113809285D01*
X235323047Y-113761666D01*
X235275428Y-113666428D01*
X235275428Y-113333095D01*
X235751619Y-114237857D02*
X235751619Y-114904523D01*
X234751619Y-114475952D01*
X232735428Y-113666428D02*
X232687809Y-113809285D01*
X232640190Y-113856904D01*
X232544952Y-113904523D01*
X232402095Y-113904523D01*
X232306857Y-113856904D01*
X232259238Y-113809285D01*
X232211619Y-113714047D01*
X232211619Y-113333095D01*
X233211619Y-113333095D01*
X233211619Y-113666428D01*
X233164000Y-113761666D01*
X233116380Y-113809285D01*
X233021142Y-113856904D01*
X232925904Y-113856904D01*
X232830666Y-113809285D01*
X232783047Y-113761666D01*
X232735428Y-113666428D01*
X232735428Y-113333095D01*
X232783047Y-114475952D02*
X232830666Y-114380714D01*
X232878285Y-114333095D01*
X232973523Y-114285476D01*
X233021142Y-114285476D01*
X233116380Y-114333095D01*
X233164000Y-114380714D01*
X233211619Y-114475952D01*
X233211619Y-114666428D01*
X233164000Y-114761666D01*
X233116380Y-114809285D01*
X233021142Y-114856904D01*
X232973523Y-114856904D01*
X232878285Y-114809285D01*
X232830666Y-114761666D01*
X232783047Y-114666428D01*
X232783047Y-114475952D01*
X232735428Y-114380714D01*
X232687809Y-114333095D01*
X232592571Y-114285476D01*
X232402095Y-114285476D01*
X232306857Y-114333095D01*
X232259238Y-114380714D01*
X232211619Y-114475952D01*
X232211619Y-114666428D01*
X232259238Y-114761666D01*
X232306857Y-114809285D01*
X232402095Y-114856904D01*
X232592571Y-114856904D01*
X232687809Y-114809285D01*
X232735428Y-114761666D01*
X232783047Y-114666428D01*
X230195428Y-113666428D02*
X230147809Y-113809285D01*
X230100190Y-113856904D01*
X230004952Y-113904523D01*
X229862095Y-113904523D01*
X229766857Y-113856904D01*
X229719238Y-113809285D01*
X229671619Y-113714047D01*
X229671619Y-113333095D01*
X230671619Y-113333095D01*
X230671619Y-113666428D01*
X230624000Y-113761666D01*
X230576380Y-113809285D01*
X230481142Y-113856904D01*
X230385904Y-113856904D01*
X230290666Y-113809285D01*
X230243047Y-113761666D01*
X230195428Y-113666428D01*
X230195428Y-113333095D01*
X229671619Y-114380714D02*
X229671619Y-114571190D01*
X229719238Y-114666428D01*
X229766857Y-114714047D01*
X229909714Y-114809285D01*
X230100190Y-114856904D01*
X230481142Y-114856904D01*
X230576380Y-114809285D01*
X230624000Y-114761666D01*
X230671619Y-114666428D01*
X230671619Y-114475952D01*
X230624000Y-114380714D01*
X230576380Y-114333095D01*
X230481142Y-114285476D01*
X230243047Y-114285476D01*
X230147809Y-114333095D01*
X230100190Y-114380714D01*
X230052571Y-114475952D01*
X230052571Y-114666428D01*
X230100190Y-114761666D01*
X230147809Y-114809285D01*
X230243047Y-114856904D01*
X227655428Y-113666428D02*
X227607809Y-113809285D01*
X227560190Y-113856904D01*
X227464952Y-113904523D01*
X227322095Y-113904523D01*
X227226857Y-113856904D01*
X227179238Y-113809285D01*
X227131619Y-113714047D01*
X227131619Y-113333095D01*
X228131619Y-113333095D01*
X228131619Y-113666428D01*
X228084000Y-113761666D01*
X228036380Y-113809285D01*
X227941142Y-113856904D01*
X227845904Y-113856904D01*
X227750666Y-113809285D01*
X227703047Y-113761666D01*
X227655428Y-113666428D01*
X227655428Y-113333095D01*
X227131619Y-114856904D02*
X227131619Y-114285476D01*
X227131619Y-114571190D02*
X228131619Y-114571190D01*
X227988761Y-114475952D01*
X227893523Y-114380714D01*
X227845904Y-114285476D01*
X228131619Y-115475952D02*
X228131619Y-115571190D01*
X228084000Y-115666428D01*
X228036380Y-115714047D01*
X227941142Y-115761666D01*
X227750666Y-115809285D01*
X227512571Y-115809285D01*
X227322095Y-115761666D01*
X227226857Y-115714047D01*
X227179238Y-115666428D01*
X227131619Y-115571190D01*
X227131619Y-115475952D01*
X227179238Y-115380714D01*
X227226857Y-115333095D01*
X227322095Y-115285476D01*
X227512571Y-115237857D01*
X227750666Y-115237857D01*
X227941142Y-115285476D01*
X228036380Y-115333095D01*
X228084000Y-115380714D01*
X228131619Y-115475952D01*
X225115428Y-113666428D02*
X225067809Y-113809285D01*
X225020190Y-113856904D01*
X224924952Y-113904523D01*
X224782095Y-113904523D01*
X224686857Y-113856904D01*
X224639238Y-113809285D01*
X224591619Y-113714047D01*
X224591619Y-113333095D01*
X225591619Y-113333095D01*
X225591619Y-113666428D01*
X225544000Y-113761666D01*
X225496380Y-113809285D01*
X225401142Y-113856904D01*
X225305904Y-113856904D01*
X225210666Y-113809285D01*
X225163047Y-113761666D01*
X225115428Y-113666428D01*
X225115428Y-113333095D01*
X224591619Y-114856904D02*
X224591619Y-114285476D01*
X224591619Y-114571190D02*
X225591619Y-114571190D01*
X225448761Y-114475952D01*
X225353523Y-114380714D01*
X225305904Y-114285476D01*
X224591619Y-115809285D02*
X224591619Y-115237857D01*
X224591619Y-115523571D02*
X225591619Y-115523571D01*
X225448761Y-115428333D01*
X225353523Y-115333095D01*
X225305904Y-115237857D01*
X222575428Y-113666428D02*
X222527809Y-113809285D01*
X222480190Y-113856904D01*
X222384952Y-113904523D01*
X222242095Y-113904523D01*
X222146857Y-113856904D01*
X222099238Y-113809285D01*
X222051619Y-113714047D01*
X222051619Y-113333095D01*
X223051619Y-113333095D01*
X223051619Y-113666428D01*
X223004000Y-113761666D01*
X222956380Y-113809285D01*
X222861142Y-113856904D01*
X222765904Y-113856904D01*
X222670666Y-113809285D01*
X222623047Y-113761666D01*
X222575428Y-113666428D01*
X222575428Y-113333095D01*
X222051619Y-114856904D02*
X222051619Y-114285476D01*
X222051619Y-114571190D02*
X223051619Y-114571190D01*
X222908761Y-114475952D01*
X222813523Y-114380714D01*
X222765904Y-114285476D01*
X222956380Y-115237857D02*
X223004000Y-115285476D01*
X223051619Y-115380714D01*
X223051619Y-115618809D01*
X223004000Y-115714047D01*
X222956380Y-115761666D01*
X222861142Y-115809285D01*
X222765904Y-115809285D01*
X222623047Y-115761666D01*
X222051619Y-115190238D01*
X222051619Y-115809285D01*
X220035428Y-113666428D02*
X219987809Y-113809285D01*
X219940190Y-113856904D01*
X219844952Y-113904523D01*
X219702095Y-113904523D01*
X219606857Y-113856904D01*
X219559238Y-113809285D01*
X219511619Y-113714047D01*
X219511619Y-113333095D01*
X220511619Y-113333095D01*
X220511619Y-113666428D01*
X220464000Y-113761666D01*
X220416380Y-113809285D01*
X220321142Y-113856904D01*
X220225904Y-113856904D01*
X220130666Y-113809285D01*
X220083047Y-113761666D01*
X220035428Y-113666428D01*
X220035428Y-113333095D01*
X219511619Y-114856904D02*
X219511619Y-114285476D01*
X219511619Y-114571190D02*
X220511619Y-114571190D01*
X220368761Y-114475952D01*
X220273523Y-114380714D01*
X220225904Y-114285476D01*
X220511619Y-115190238D02*
X220511619Y-115809285D01*
X220130666Y-115475952D01*
X220130666Y-115618809D01*
X220083047Y-115714047D01*
X220035428Y-115761666D01*
X219940190Y-115809285D01*
X219702095Y-115809285D01*
X219606857Y-115761666D01*
X219559238Y-115714047D01*
X219511619Y-115618809D01*
X219511619Y-115333095D01*
X219559238Y-115237857D01*
X219606857Y-115190238D01*
X217495428Y-113666428D02*
X217447809Y-113809285D01*
X217400190Y-113856904D01*
X217304952Y-113904523D01*
X217162095Y-113904523D01*
X217066857Y-113856904D01*
X217019238Y-113809285D01*
X216971619Y-113714047D01*
X216971619Y-113333095D01*
X217971619Y-113333095D01*
X217971619Y-113666428D01*
X217924000Y-113761666D01*
X217876380Y-113809285D01*
X217781142Y-113856904D01*
X217685904Y-113856904D01*
X217590666Y-113809285D01*
X217543047Y-113761666D01*
X217495428Y-113666428D01*
X217495428Y-113333095D01*
X216971619Y-114856904D02*
X216971619Y-114285476D01*
X216971619Y-114571190D02*
X217971619Y-114571190D01*
X217828761Y-114475952D01*
X217733523Y-114380714D01*
X217685904Y-114285476D01*
X217638285Y-115714047D02*
X216971619Y-115714047D01*
X218019238Y-115475952D02*
X217304952Y-115237857D01*
X217304952Y-115856904D01*
X214955428Y-113666428D02*
X214907809Y-113809285D01*
X214860190Y-113856904D01*
X214764952Y-113904523D01*
X214622095Y-113904523D01*
X214526857Y-113856904D01*
X214479238Y-113809285D01*
X214431619Y-113714047D01*
X214431619Y-113333095D01*
X215431619Y-113333095D01*
X215431619Y-113666428D01*
X215384000Y-113761666D01*
X215336380Y-113809285D01*
X215241142Y-113856904D01*
X215145904Y-113856904D01*
X215050666Y-113809285D01*
X215003047Y-113761666D01*
X214955428Y-113666428D01*
X214955428Y-113333095D01*
X214431619Y-114856904D02*
X214431619Y-114285476D01*
X214431619Y-114571190D02*
X215431619Y-114571190D01*
X215288761Y-114475952D01*
X215193523Y-114380714D01*
X215145904Y-114285476D01*
X215431619Y-115761666D02*
X215431619Y-115285476D01*
X214955428Y-115237857D01*
X215003047Y-115285476D01*
X215050666Y-115380714D01*
X215050666Y-115618809D01*
X215003047Y-115714047D01*
X214955428Y-115761666D01*
X214860190Y-115809285D01*
X214622095Y-115809285D01*
X214526857Y-115761666D01*
X214479238Y-115714047D01*
X214431619Y-115618809D01*
X214431619Y-115380714D01*
X214479238Y-115285476D01*
X214526857Y-115237857D01*
X212415428Y-113666428D02*
X212367809Y-113809285D01*
X212320190Y-113856904D01*
X212224952Y-113904523D01*
X212082095Y-113904523D01*
X211986857Y-113856904D01*
X211939238Y-113809285D01*
X211891619Y-113714047D01*
X211891619Y-113333095D01*
X212891619Y-113333095D01*
X212891619Y-113666428D01*
X212844000Y-113761666D01*
X212796380Y-113809285D01*
X212701142Y-113856904D01*
X212605904Y-113856904D01*
X212510666Y-113809285D01*
X212463047Y-113761666D01*
X212415428Y-113666428D01*
X212415428Y-113333095D01*
X211891619Y-114856904D02*
X211891619Y-114285476D01*
X211891619Y-114571190D02*
X212891619Y-114571190D01*
X212748761Y-114475952D01*
X212653523Y-114380714D01*
X212605904Y-114285476D01*
X212891619Y-115714047D02*
X212891619Y-115523571D01*
X212844000Y-115428333D01*
X212796380Y-115380714D01*
X212653523Y-115285476D01*
X212463047Y-115237857D01*
X212082095Y-115237857D01*
X211986857Y-115285476D01*
X211939238Y-115333095D01*
X211891619Y-115428333D01*
X211891619Y-115618809D01*
X211939238Y-115714047D01*
X211986857Y-115761666D01*
X212082095Y-115809285D01*
X212320190Y-115809285D01*
X212415428Y-115761666D01*
X212463047Y-115714047D01*
X212510666Y-115618809D01*
X212510666Y-115428333D01*
X212463047Y-115333095D01*
X212415428Y-115285476D01*
X212320190Y-115237857D01*
X209875428Y-113666428D02*
X209827809Y-113809285D01*
X209780190Y-113856904D01*
X209684952Y-113904523D01*
X209542095Y-113904523D01*
X209446857Y-113856904D01*
X209399238Y-113809285D01*
X209351619Y-113714047D01*
X209351619Y-113333095D01*
X210351619Y-113333095D01*
X210351619Y-113666428D01*
X210304000Y-113761666D01*
X210256380Y-113809285D01*
X210161142Y-113856904D01*
X210065904Y-113856904D01*
X209970666Y-113809285D01*
X209923047Y-113761666D01*
X209875428Y-113666428D01*
X209875428Y-113333095D01*
X209351619Y-114856904D02*
X209351619Y-114285476D01*
X209351619Y-114571190D02*
X210351619Y-114571190D01*
X210208761Y-114475952D01*
X210113523Y-114380714D01*
X210065904Y-114285476D01*
X210351619Y-115190238D02*
X210351619Y-115856904D01*
X209351619Y-115428333D01*
X266067333Y-87863666D02*
X265367333Y-88097000D01*
X266067333Y-88330333D01*
X265400666Y-88863666D02*
X265367333Y-88797000D01*
X265367333Y-88663666D01*
X265400666Y-88597000D01*
X265434000Y-88563666D01*
X265500666Y-88530333D01*
X265700666Y-88530333D01*
X265767333Y-88563666D01*
X265800666Y-88597000D01*
X265834000Y-88663666D01*
X265834000Y-88797000D01*
X265800666Y-88863666D01*
X265400666Y-89463666D02*
X265367333Y-89397000D01*
X265367333Y-89263666D01*
X265400666Y-89197000D01*
X265434000Y-89163666D01*
X265500666Y-89130333D01*
X265700666Y-89130333D01*
X265767333Y-89163666D01*
X265800666Y-89197000D01*
X265834000Y-89263666D01*
X265834000Y-89397000D01*
X265800666Y-89463666D01*
X263494000Y-88163666D02*
X263527333Y-88097000D01*
X263527333Y-87997000D01*
X263494000Y-87897000D01*
X263427333Y-87830333D01*
X263360666Y-87797000D01*
X263227333Y-87763666D01*
X263127333Y-87763666D01*
X262994000Y-87797000D01*
X262927333Y-87830333D01*
X262860666Y-87897000D01*
X262827333Y-87997000D01*
X262827333Y-88063666D01*
X262860666Y-88163666D01*
X262894000Y-88197000D01*
X263127333Y-88197000D01*
X263127333Y-88063666D01*
X263294000Y-88497000D02*
X262827333Y-88497000D01*
X263227333Y-88497000D02*
X263260666Y-88530333D01*
X263294000Y-88597000D01*
X263294000Y-88697000D01*
X263260666Y-88763666D01*
X263194000Y-88797000D01*
X262827333Y-88797000D01*
X262827333Y-89430333D02*
X263527333Y-89430333D01*
X262860666Y-89430333D02*
X262827333Y-89363666D01*
X262827333Y-89230333D01*
X262860666Y-89163666D01*
X262894000Y-89130333D01*
X262960666Y-89097000D01*
X263160666Y-89097000D01*
X263227333Y-89130333D01*
X263260666Y-89163666D01*
X263294000Y-89230333D01*
X263294000Y-89363666D01*
X263260666Y-89430333D01*
X257747333Y-87935000D02*
X258447333Y-87935000D01*
X257747333Y-88268333D02*
X258447333Y-88268333D01*
X257747333Y-88668333D01*
X258447333Y-88668333D01*
X260354000Y-88255666D02*
X260320666Y-88222333D01*
X260287333Y-88122333D01*
X260287333Y-88055666D01*
X260320666Y-87955666D01*
X260387333Y-87889000D01*
X260454000Y-87855666D01*
X260587333Y-87822333D01*
X260687333Y-87822333D01*
X260820666Y-87855666D01*
X260887333Y-87889000D01*
X260954000Y-87955666D01*
X260987333Y-88055666D01*
X260987333Y-88122333D01*
X260954000Y-88222333D01*
X260920666Y-88255666D01*
X260287333Y-88555666D02*
X260987333Y-88555666D01*
X260987333Y-88822333D01*
X260954000Y-88889000D01*
X260920666Y-88922333D01*
X260854000Y-88955666D01*
X260754000Y-88955666D01*
X260687333Y-88922333D01*
X260654000Y-88889000D01*
X260620666Y-88822333D01*
X260620666Y-88555666D01*
X255907333Y-88022333D02*
X255907333Y-88155666D01*
X255874000Y-88222333D01*
X255807333Y-88289000D01*
X255674000Y-88322333D01*
X255440666Y-88322333D01*
X255307333Y-88289000D01*
X255240666Y-88222333D01*
X255207333Y-88155666D01*
X255207333Y-88022333D01*
X255240666Y-87955666D01*
X255307333Y-87889000D01*
X255440666Y-87855666D01*
X255674000Y-87855666D01*
X255807333Y-87889000D01*
X255874000Y-87955666D01*
X255907333Y-88022333D01*
X255574000Y-88622333D02*
X255574000Y-88855666D01*
X255207333Y-88955666D02*
X255207333Y-88622333D01*
X255907333Y-88622333D01*
X255907333Y-88955666D01*
X212177333Y-87885476D02*
X212177333Y-88361666D01*
X211891619Y-87790238D02*
X212891619Y-88123571D01*
X211891619Y-88456904D01*
X211891619Y-89314047D02*
X211891619Y-88742619D01*
X211891619Y-89028333D02*
X212891619Y-89028333D01*
X212748761Y-88933095D01*
X212653523Y-88837857D01*
X212605904Y-88742619D01*
X212891619Y-90171190D02*
X212891619Y-89980714D01*
X212844000Y-89885476D01*
X212796380Y-89837857D01*
X212653523Y-89742619D01*
X212463047Y-89695000D01*
X212082095Y-89695000D01*
X211986857Y-89742619D01*
X211939238Y-89790238D01*
X211891619Y-89885476D01*
X211891619Y-90075952D01*
X211939238Y-90171190D01*
X211986857Y-90218809D01*
X212082095Y-90266428D01*
X212320190Y-90266428D01*
X212415428Y-90218809D01*
X212463047Y-90171190D01*
X212510666Y-90075952D01*
X212510666Y-89885476D01*
X212463047Y-89790238D01*
X212415428Y-89742619D01*
X212320190Y-89695000D01*
X209637333Y-87885476D02*
X209637333Y-88361666D01*
X209351619Y-87790238D02*
X210351619Y-88123571D01*
X209351619Y-88456904D01*
X209351619Y-89314047D02*
X209351619Y-88742619D01*
X209351619Y-89028333D02*
X210351619Y-89028333D01*
X210208761Y-88933095D01*
X210113523Y-88837857D01*
X210065904Y-88742619D01*
X210351619Y-89647380D02*
X210351619Y-90314047D01*
X209351619Y-89885476D01*
X242657333Y-87885476D02*
X242657333Y-88361666D01*
X242371619Y-87790238D02*
X243371619Y-88123571D01*
X242371619Y-88456904D01*
X243038285Y-89218809D02*
X242371619Y-89218809D01*
X243419238Y-88980714D02*
X242704952Y-88742619D01*
X242704952Y-89361666D01*
X227417333Y-87885476D02*
X227417333Y-88361666D01*
X227131619Y-87790238D02*
X228131619Y-88123571D01*
X227131619Y-88456904D01*
X227131619Y-89314047D02*
X227131619Y-88742619D01*
X227131619Y-89028333D02*
X228131619Y-89028333D01*
X227988761Y-88933095D01*
X227893523Y-88837857D01*
X227845904Y-88742619D01*
X228131619Y-89933095D02*
X228131619Y-90028333D01*
X228084000Y-90123571D01*
X228036380Y-90171190D01*
X227941142Y-90218809D01*
X227750666Y-90266428D01*
X227512571Y-90266428D01*
X227322095Y-90218809D01*
X227226857Y-90171190D01*
X227179238Y-90123571D01*
X227131619Y-90028333D01*
X227131619Y-89933095D01*
X227179238Y-89837857D01*
X227226857Y-89790238D01*
X227322095Y-89742619D01*
X227512571Y-89695000D01*
X227750666Y-89695000D01*
X227941142Y-89742619D01*
X228036380Y-89790238D01*
X228084000Y-89837857D01*
X228131619Y-89933095D01*
X224877333Y-87885476D02*
X224877333Y-88361666D01*
X224591619Y-87790238D02*
X225591619Y-88123571D01*
X224591619Y-88456904D01*
X224591619Y-89314047D02*
X224591619Y-88742619D01*
X224591619Y-89028333D02*
X225591619Y-89028333D01*
X225448761Y-88933095D01*
X225353523Y-88837857D01*
X225305904Y-88742619D01*
X224591619Y-90266428D02*
X224591619Y-89695000D01*
X224591619Y-89980714D02*
X225591619Y-89980714D01*
X225448761Y-89885476D01*
X225353523Y-89790238D01*
X225305904Y-89695000D01*
X235037333Y-87885476D02*
X235037333Y-88361666D01*
X234751619Y-87790238D02*
X235751619Y-88123571D01*
X234751619Y-88456904D01*
X235751619Y-88695000D02*
X235751619Y-89361666D01*
X234751619Y-88933095D01*
X229957333Y-87885476D02*
X229957333Y-88361666D01*
X229671619Y-87790238D02*
X230671619Y-88123571D01*
X229671619Y-88456904D01*
X229671619Y-88837857D02*
X229671619Y-89028333D01*
X229719238Y-89123571D01*
X229766857Y-89171190D01*
X229909714Y-89266428D01*
X230100190Y-89314047D01*
X230481142Y-89314047D01*
X230576380Y-89266428D01*
X230624000Y-89218809D01*
X230671619Y-89123571D01*
X230671619Y-88933095D01*
X230624000Y-88837857D01*
X230576380Y-88790238D01*
X230481142Y-88742619D01*
X230243047Y-88742619D01*
X230147809Y-88790238D01*
X230100190Y-88837857D01*
X230052571Y-88933095D01*
X230052571Y-89123571D01*
X230100190Y-89218809D01*
X230147809Y-89266428D01*
X230243047Y-89314047D01*
X240117333Y-87885476D02*
X240117333Y-88361666D01*
X239831619Y-87790238D02*
X240831619Y-88123571D01*
X239831619Y-88456904D01*
X240831619Y-89266428D02*
X240831619Y-88790238D01*
X240355428Y-88742619D01*
X240403047Y-88790238D01*
X240450666Y-88885476D01*
X240450666Y-89123571D01*
X240403047Y-89218809D01*
X240355428Y-89266428D01*
X240260190Y-89314047D01*
X240022095Y-89314047D01*
X239926857Y-89266428D01*
X239879238Y-89218809D01*
X239831619Y-89123571D01*
X239831619Y-88885476D01*
X239879238Y-88790238D01*
X239926857Y-88742619D01*
X214717333Y-87885476D02*
X214717333Y-88361666D01*
X214431619Y-87790238D02*
X215431619Y-88123571D01*
X214431619Y-88456904D01*
X214431619Y-89314047D02*
X214431619Y-88742619D01*
X214431619Y-89028333D02*
X215431619Y-89028333D01*
X215288761Y-88933095D01*
X215193523Y-88837857D01*
X215145904Y-88742619D01*
X215431619Y-90218809D02*
X215431619Y-89742619D01*
X214955428Y-89695000D01*
X215003047Y-89742619D01*
X215050666Y-89837857D01*
X215050666Y-90075952D01*
X215003047Y-90171190D01*
X214955428Y-90218809D01*
X214860190Y-90266428D01*
X214622095Y-90266428D01*
X214526857Y-90218809D01*
X214479238Y-90171190D01*
X214431619Y-90075952D01*
X214431619Y-89837857D01*
X214479238Y-89742619D01*
X214526857Y-89695000D01*
X247737333Y-87885476D02*
X247737333Y-88361666D01*
X247451619Y-87790238D02*
X248451619Y-88123571D01*
X247451619Y-88456904D01*
X248356380Y-88742619D02*
X248404000Y-88790238D01*
X248451619Y-88885476D01*
X248451619Y-89123571D01*
X248404000Y-89218809D01*
X248356380Y-89266428D01*
X248261142Y-89314047D01*
X248165904Y-89314047D01*
X248023047Y-89266428D01*
X247451619Y-88695000D01*
X247451619Y-89314047D01*
X250277333Y-87885476D02*
X250277333Y-88361666D01*
X249991619Y-87790238D02*
X250991619Y-88123571D01*
X249991619Y-88456904D01*
X249991619Y-89314047D02*
X249991619Y-88742619D01*
X249991619Y-89028333D02*
X250991619Y-89028333D01*
X250848761Y-88933095D01*
X250753523Y-88837857D01*
X250705904Y-88742619D01*
X252817333Y-87885476D02*
X252817333Y-88361666D01*
X252531619Y-87790238D02*
X253531619Y-88123571D01*
X252531619Y-88456904D01*
X253531619Y-88980714D02*
X253531619Y-89075952D01*
X253484000Y-89171190D01*
X253436380Y-89218809D01*
X253341142Y-89266428D01*
X253150666Y-89314047D01*
X252912571Y-89314047D01*
X252722095Y-89266428D01*
X252626857Y-89218809D01*
X252579238Y-89171190D01*
X252531619Y-89075952D01*
X252531619Y-88980714D01*
X252579238Y-88885476D01*
X252626857Y-88837857D01*
X252722095Y-88790238D01*
X252912571Y-88742619D01*
X253150666Y-88742619D01*
X253341142Y-88790238D01*
X253436380Y-88837857D01*
X253484000Y-88885476D01*
X253531619Y-88980714D01*
X237577333Y-87885476D02*
X237577333Y-88361666D01*
X237291619Y-87790238D02*
X238291619Y-88123571D01*
X237291619Y-88456904D01*
X238291619Y-89218809D02*
X238291619Y-89028333D01*
X238244000Y-88933095D01*
X238196380Y-88885476D01*
X238053523Y-88790238D01*
X237863047Y-88742619D01*
X237482095Y-88742619D01*
X237386857Y-88790238D01*
X237339238Y-88837857D01*
X237291619Y-88933095D01*
X237291619Y-89123571D01*
X237339238Y-89218809D01*
X237386857Y-89266428D01*
X237482095Y-89314047D01*
X237720190Y-89314047D01*
X237815428Y-89266428D01*
X237863047Y-89218809D01*
X237910666Y-89123571D01*
X237910666Y-88933095D01*
X237863047Y-88837857D01*
X237815428Y-88790238D01*
X237720190Y-88742619D01*
X245197333Y-87885476D02*
X245197333Y-88361666D01*
X244911619Y-87790238D02*
X245911619Y-88123571D01*
X244911619Y-88456904D01*
X245911619Y-88695000D02*
X245911619Y-89314047D01*
X245530666Y-88980714D01*
X245530666Y-89123571D01*
X245483047Y-89218809D01*
X245435428Y-89266428D01*
X245340190Y-89314047D01*
X245102095Y-89314047D01*
X245006857Y-89266428D01*
X244959238Y-89218809D01*
X244911619Y-89123571D01*
X244911619Y-88837857D01*
X244959238Y-88742619D01*
X245006857Y-88695000D01*
X217257333Y-87885476D02*
X217257333Y-88361666D01*
X216971619Y-87790238D02*
X217971619Y-88123571D01*
X216971619Y-88456904D01*
X216971619Y-89314047D02*
X216971619Y-88742619D01*
X216971619Y-89028333D02*
X217971619Y-89028333D01*
X217828761Y-88933095D01*
X217733523Y-88837857D01*
X217685904Y-88742619D01*
X217638285Y-90171190D02*
X216971619Y-90171190D01*
X218019238Y-89933095D02*
X217304952Y-89695000D01*
X217304952Y-90314047D01*
X222337333Y-87885476D02*
X222337333Y-88361666D01*
X222051619Y-87790238D02*
X223051619Y-88123571D01*
X222051619Y-88456904D01*
X222051619Y-89314047D02*
X222051619Y-88742619D01*
X222051619Y-89028333D02*
X223051619Y-89028333D01*
X222908761Y-88933095D01*
X222813523Y-88837857D01*
X222765904Y-88742619D01*
X222956380Y-89695000D02*
X223004000Y-89742619D01*
X223051619Y-89837857D01*
X223051619Y-90075952D01*
X223004000Y-90171190D01*
X222956380Y-90218809D01*
X222861142Y-90266428D01*
X222765904Y-90266428D01*
X222623047Y-90218809D01*
X222051619Y-89647380D01*
X222051619Y-90266428D01*
X219797333Y-87885476D02*
X219797333Y-88361666D01*
X219511619Y-87790238D02*
X220511619Y-88123571D01*
X219511619Y-88456904D01*
X219511619Y-89314047D02*
X219511619Y-88742619D01*
X219511619Y-89028333D02*
X220511619Y-89028333D01*
X220368761Y-88933095D01*
X220273523Y-88837857D01*
X220225904Y-88742619D01*
X220511619Y-89647380D02*
X220511619Y-90266428D01*
X220130666Y-89933095D01*
X220130666Y-90075952D01*
X220083047Y-90171190D01*
X220035428Y-90218809D01*
X219940190Y-90266428D01*
X219702095Y-90266428D01*
X219606857Y-90218809D01*
X219559238Y-90171190D01*
X219511619Y-90075952D01*
X219511619Y-89790238D01*
X219559238Y-89695000D01*
X219606857Y-89647380D01*
X232497333Y-87885476D02*
X232497333Y-88361666D01*
X232211619Y-87790238D02*
X233211619Y-88123571D01*
X232211619Y-88456904D01*
X232783047Y-88933095D02*
X232830666Y-88837857D01*
X232878285Y-88790238D01*
X232973523Y-88742619D01*
X233021142Y-88742619D01*
X233116380Y-88790238D01*
X233164000Y-88837857D01*
X233211619Y-88933095D01*
X233211619Y-89123571D01*
X233164000Y-89218809D01*
X233116380Y-89266428D01*
X233021142Y-89314047D01*
X232973523Y-89314047D01*
X232878285Y-89266428D01*
X232830666Y-89218809D01*
X232783047Y-89123571D01*
X232783047Y-88933095D01*
X232735428Y-88837857D01*
X232687809Y-88790238D01*
X232592571Y-88742619D01*
X232402095Y-88742619D01*
X232306857Y-88790238D01*
X232259238Y-88837857D01*
X232211619Y-88933095D01*
X232211619Y-89123571D01*
X232259238Y-89218809D01*
X232306857Y-89266428D01*
X232402095Y-89314047D01*
X232592571Y-89314047D01*
X232687809Y-89266428D01*
X232735428Y-89218809D01*
X232783047Y-89123571D01*
D12*
%TO.C,U48*%
X264682500Y-102124742D02*
X264682500Y-102599258D01*
X263637500Y-102124742D02*
X263637500Y-102599258D01*
%TO.C,U47*%
X263425000Y-98260000D02*
X263425000Y-100545000D01*
X263425000Y-100545000D02*
X264895000Y-100545000D01*
X264895000Y-100545000D02*
X264895000Y-98260000D01*
%TO.C,U46*%
X262650500Y-102124742D02*
X262650500Y-102599258D01*
X261605500Y-102124742D02*
X261605500Y-102599258D01*
%TO.C,U45*%
X261367500Y-98260000D02*
X261367500Y-100545000D01*
X261367500Y-100545000D02*
X262837500Y-100545000D01*
X262837500Y-100545000D02*
X262837500Y-98260000D01*
%TO.C,U44*%
X215660500Y-96028742D02*
X215660500Y-96503258D01*
X214615500Y-96028742D02*
X214615500Y-96503258D01*
%TO.C,U43*%
X214403000Y-92418000D02*
X214403000Y-94703000D01*
X214403000Y-94703000D02*
X215873000Y-94703000D01*
X215873000Y-94703000D02*
X215873000Y-92418000D01*
%TO.C,U42*%
X213882500Y-96028742D02*
X213882500Y-96503258D01*
X212837500Y-96028742D02*
X212837500Y-96503258D01*
%TO.C,U4*%
X212625000Y-92418000D02*
X212625000Y-94703000D01*
X212625000Y-94703000D02*
X214095000Y-94703000D01*
X214095000Y-94703000D02*
X214095000Y-92418000D01*
%TO.C,U3*%
X212428000Y-103040000D02*
X212428000Y-105240000D01*
X210228000Y-103040000D02*
X210228000Y-106040000D01*
%TO.C,U41*%
X210326500Y-96028742D02*
X210326500Y-96503258D01*
X209281500Y-96028742D02*
X209281500Y-96503258D01*
%TO.C,U40*%
X212104500Y-96028742D02*
X212104500Y-96503258D01*
X211059500Y-96028742D02*
X211059500Y-96503258D01*
%TO.C,U39*%
X246140500Y-96028742D02*
X246140500Y-96503258D01*
X245095500Y-96028742D02*
X245095500Y-96503258D01*
%TO.C,U38*%
X244883000Y-92392500D02*
X244883000Y-94677500D01*
X244883000Y-94677500D02*
X246353000Y-94677500D01*
X246353000Y-94677500D02*
X246353000Y-92392500D01*
%TO.C,U37*%
X244362500Y-96028742D02*
X244362500Y-96503258D01*
X243317500Y-96028742D02*
X243317500Y-96503258D01*
%TO.C,U36*%
X243105000Y-92418000D02*
X243105000Y-94703000D01*
X243105000Y-94703000D02*
X244575000Y-94703000D01*
X244575000Y-94703000D02*
X244575000Y-92418000D01*
%TO.C,U35*%
X242584500Y-96028742D02*
X242584500Y-96503258D01*
X241539500Y-96028742D02*
X241539500Y-96503258D01*
%TO.C,U34*%
X241327000Y-92418000D02*
X241327000Y-94703000D01*
X241327000Y-94703000D02*
X242797000Y-94703000D01*
X242797000Y-94703000D02*
X242797000Y-92418000D01*
%TO.C,U33*%
X240806500Y-96028742D02*
X240806500Y-96503258D01*
X239761500Y-96028742D02*
X239761500Y-96503258D01*
%TO.C,U32*%
X239549000Y-92418000D02*
X239549000Y-94703000D01*
X239549000Y-94703000D02*
X241019000Y-94703000D01*
X241019000Y-94703000D02*
X241019000Y-92418000D01*
%TO.C,U31*%
X239028500Y-96028742D02*
X239028500Y-96503258D01*
X237983500Y-96028742D02*
X237983500Y-96503258D01*
%TO.C,U30*%
X237771000Y-92418000D02*
X237771000Y-94703000D01*
X237771000Y-94703000D02*
X239241000Y-94703000D01*
X239241000Y-94703000D02*
X239241000Y-92418000D01*
%TO.C,U29*%
X237250500Y-96028742D02*
X237250500Y-96503258D01*
X236205500Y-96028742D02*
X236205500Y-96503258D01*
%TO.C,U28*%
X235993000Y-92418000D02*
X235993000Y-94703000D01*
X235993000Y-94703000D02*
X237463000Y-94703000D01*
X237463000Y-94703000D02*
X237463000Y-92418000D01*
%TO.C,U27*%
X235472500Y-96028742D02*
X235472500Y-96503258D01*
X234427500Y-96028742D02*
X234427500Y-96503258D01*
%TO.C,U26*%
X234215000Y-92418000D02*
X234215000Y-94703000D01*
X234215000Y-94703000D02*
X235685000Y-94703000D01*
X235685000Y-94703000D02*
X235685000Y-92418000D01*
%TO.C,U25*%
X233694500Y-96028742D02*
X233694500Y-96503258D01*
X232649500Y-96028742D02*
X232649500Y-96503258D01*
%TO.C,U24*%
X232437000Y-92418000D02*
X232437000Y-94703000D01*
X232437000Y-94703000D02*
X233907000Y-94703000D01*
X233907000Y-94703000D02*
X233907000Y-92418000D01*
%TO.C,U23*%
X231408500Y-96028742D02*
X231408500Y-96503258D01*
X230363500Y-96028742D02*
X230363500Y-96503258D01*
%TO.C,U22*%
X230151000Y-92418000D02*
X230151000Y-94703000D01*
X230151000Y-94703000D02*
X231621000Y-94703000D01*
X231621000Y-94703000D02*
X231621000Y-92418000D01*
%TO.C,U21*%
X229630500Y-96028742D02*
X229630500Y-96503258D01*
X228585500Y-96028742D02*
X228585500Y-96503258D01*
%TO.C,U20*%
X228373000Y-92418000D02*
X228373000Y-94703000D01*
X228373000Y-94703000D02*
X229843000Y-94703000D01*
X229843000Y-94703000D02*
X229843000Y-92418000D01*
%TO.C,U19*%
X227852500Y-96028742D02*
X227852500Y-96503258D01*
X226807500Y-96028742D02*
X226807500Y-96503258D01*
%TO.C,U18*%
X226595000Y-92418000D02*
X226595000Y-94703000D01*
X226595000Y-94703000D02*
X228065000Y-94703000D01*
X228065000Y-94703000D02*
X228065000Y-92418000D01*
%TO.C,U17*%
X226074500Y-96028742D02*
X226074500Y-96503258D01*
X225029500Y-96028742D02*
X225029500Y-96503258D01*
%TO.C,U16*%
X224817000Y-92418000D02*
X224817000Y-94703000D01*
X224817000Y-94703000D02*
X226287000Y-94703000D01*
X226287000Y-94703000D02*
X226287000Y-92418000D01*
%TO.C,U15*%
X224296500Y-96028742D02*
X224296500Y-96503258D01*
X223251500Y-96028742D02*
X223251500Y-96503258D01*
%TO.C,U14*%
X223039000Y-92418000D02*
X223039000Y-94703000D01*
X223039000Y-94703000D02*
X224509000Y-94703000D01*
X224509000Y-94703000D02*
X224509000Y-92418000D01*
%TO.C,U13*%
X222518500Y-96028742D02*
X222518500Y-96503258D01*
X221473500Y-96028742D02*
X221473500Y-96503258D01*
%TO.C,U12*%
X221261000Y-92418000D02*
X221261000Y-94703000D01*
X221261000Y-94703000D02*
X222731000Y-94703000D01*
X222731000Y-94703000D02*
X222731000Y-92418000D01*
%TO.C,U11*%
X220740500Y-96028742D02*
X220740500Y-96503258D01*
X219695500Y-96028742D02*
X219695500Y-96503258D01*
%TO.C,U10*%
X219483000Y-92418000D02*
X219483000Y-94703000D01*
X219483000Y-94703000D02*
X220953000Y-94703000D01*
X220953000Y-94703000D02*
X220953000Y-92418000D01*
%TO.C,U9*%
X218962500Y-96028742D02*
X218962500Y-96503258D01*
X217917500Y-96028742D02*
X217917500Y-96503258D01*
%TO.C,U8*%
X217705000Y-92418000D02*
X217705000Y-94703000D01*
X217705000Y-94703000D02*
X219175000Y-94703000D01*
X219175000Y-94703000D02*
X219175000Y-92418000D01*
%TO.C,U7*%
X255794742Y-90409500D02*
X256269258Y-90409500D01*
X255794742Y-91454500D02*
X256269258Y-91454500D01*
%TO.C,U6*%
X258842742Y-90409500D02*
X259317258Y-90409500D01*
X258842742Y-91454500D02*
X259317258Y-91454500D01*
%TO.C,U5*%
X261890742Y-90409500D02*
X262365258Y-90409500D01*
X261890742Y-91454500D02*
X262365258Y-91454500D01*
%TO.C,R5*%
X250826000Y-105055641D02*
X250826000Y-104748359D01*
X251586000Y-105055641D02*
X251586000Y-104748359D01*
%TO.C,R4*%
X255398000Y-105055641D02*
X255398000Y-104748359D01*
X256158000Y-105055641D02*
X256158000Y-104748359D01*
%TO.C,R3*%
X256132359Y-99696000D02*
X256439641Y-99696000D01*
X256132359Y-100456000D02*
X256439641Y-100456000D01*
%TO.C,R2*%
X257455641Y-95884000D02*
X257148359Y-95884000D01*
X257455641Y-95124000D02*
X257148359Y-95124000D01*
%TO.C,R1*%
X251359641Y-95884000D02*
X251052359Y-95884000D01*
X251359641Y-95124000D02*
X251052359Y-95124000D01*
%TO.C,Q3*%
X252732000Y-103322000D02*
X252732000Y-104252000D01*
X252732000Y-106482000D02*
X252732000Y-105552000D01*
X252732000Y-106482000D02*
X254892000Y-106482000D01*
X252732000Y-103322000D02*
X254192000Y-103322000D01*
%TO.C,Q2*%
X254706000Y-98550000D02*
X255636000Y-98550000D01*
X257866000Y-98550000D02*
X256936000Y-98550000D01*
X257866000Y-98550000D02*
X257866000Y-96390000D01*
X254706000Y-98550000D02*
X254706000Y-97090000D01*
%TO.C,Q1*%
X250642000Y-98550000D02*
X251572000Y-98550000D01*
X253802000Y-98550000D02*
X252872000Y-98550000D01*
X253802000Y-98550000D02*
X253802000Y-96390000D01*
X250642000Y-98550000D02*
X250642000Y-97090000D01*
%TO.C,U2*%
X227159000Y-103886000D02*
X227159000Y-101686000D01*
X227159000Y-103886000D02*
X227159000Y-106086000D01*
X220389000Y-103886000D02*
X220389000Y-101686000D01*
X220389000Y-103886000D02*
X220389000Y-107486000D01*
%TO.C,U1*%
X241891000Y-103886000D02*
X241891000Y-101686000D01*
X241891000Y-103886000D02*
X241891000Y-106086000D01*
X235121000Y-103886000D02*
X235121000Y-101686000D01*
X235121000Y-103886000D02*
X235121000Y-107486000D01*
%TO.C,C2*%
X219712000Y-101459420D02*
X219712000Y-101740580D01*
X218692000Y-101459420D02*
X218692000Y-101740580D01*
%TO.C,C1*%
X234444000Y-101459420D02*
X234444000Y-101740580D01*
X233424000Y-101459420D02*
X233424000Y-101740580D01*
%TO.C,U3*%
D11*
X210566095Y-103592380D02*
X210566095Y-104401904D01*
X210613714Y-104497142D01*
X210661333Y-104544761D01*
X210756571Y-104592380D01*
X210947047Y-104592380D01*
X211042285Y-104544761D01*
X211089904Y-104497142D01*
X211137523Y-104401904D01*
X211137523Y-103592380D01*
X211518476Y-103592380D02*
X212137523Y-103592380D01*
X211804190Y-103973333D01*
X211947047Y-103973333D01*
X212042285Y-104020952D01*
X212089904Y-104068571D01*
X212137523Y-104163809D01*
X212137523Y-104401904D01*
X212089904Y-104497142D01*
X212042285Y-104544761D01*
X211947047Y-104592380D01*
X211661333Y-104592380D01*
X211566095Y-104544761D01*
X211518476Y-104497142D01*
%TD*%
M02*
