M48
; DRILL file {KiCad (5.1.10-1-10_14)} date Monday, October 18, 2021 at 09:54:21 PM
; FORMAT={-:-/ absolute / inch / decimal}
; #@! TF.CreationDate,2021-10-18T21:54:21-04:00
; #@! TF.GenerationSoftware,Kicad,Pcbnew,(5.1.10-1-10_14)
; #@! TF.FileFunction,Plated,1,2,PTH
FMAT,2
INCH
T1C0.0157
T2C0.0394
%
G90
G05
T1
X8.24Y-3.99
X8.25Y-4.15
X8.26Y-3.87
X8.31Y-4.24
X8.32Y-3.97
X8.3495Y-4.2095
X8.36Y-4.29
X8.39Y-4.19
X8.46Y-4.11
X8.47Y-3.87
X8.47Y-4.17
X8.58Y-4.11
X8.6Y-3.87
X8.65Y-4.2
X8.67Y-3.87
X8.69Y-4.04
X8.74Y-3.87
X8.81Y-3.87
X8.88Y-3.87
X8.95Y-3.87
X8.98Y-4.25
X9.02Y-3.87
X9.09Y-3.87
X9.1Y-4.15
X9.1Y-4.2
X9.18Y-3.87
X9.19Y-4.15
X9.25Y-3.87
X9.26Y-4.04
X9.31Y-4.07
X9.32Y-3.87
X9.39Y-3.87
X9.46Y-3.87
X9.53Y-3.87
X9.57Y-4.25
X9.6Y-3.87
X9.67Y-3.87
X9.89Y-3.98
X10.11Y-3.63
X10.12Y-3.69
X10.19Y-3.67
X10.19Y-3.76
X10.2476Y-3.6155
X10.29Y-3.67
X10.3525Y-3.6275
X10.41Y-3.72
T2
X8.26Y-3.4
X8.26Y-4.4
X8.36Y-3.4
X8.36Y-4.4
X8.46Y-3.4
X8.46Y-4.4
X8.56Y-3.4
X8.56Y-4.4
X8.66Y-3.4
X8.66Y-4.4
X8.76Y-3.4
X8.76Y-4.4
X8.86Y-3.4
X8.86Y-4.4
X8.96Y-3.4
X8.96Y-4.4
X9.06Y-3.4
X9.06Y-4.4
X9.16Y-3.4
X9.16Y-4.4
X9.26Y-3.4
X9.26Y-4.4
X9.36Y-3.4
X9.36Y-4.4
X9.46Y-3.4
X9.46Y-4.4
X9.56Y-3.4
X9.56Y-4.4
X9.66Y-3.4
X9.66Y-4.4
X9.76Y-3.4
X9.76Y-4.4
X9.86Y-3.4
X9.86Y-4.4
X9.96Y-3.4
X9.96Y-4.4
X10.06Y-3.4
X10.16Y-3.4
X10.26Y-3.4
X10.36Y-3.4
X10.46Y-3.4
T0
M30
