%TF.GenerationSoftware,KiCad,Pcbnew,(6.0.0-0)*%
%TF.CreationDate,2022-03-08T07:11:20-05:00*%
%TF.ProjectId,Backplane-Memory-2022,4261636b-706c-4616-9e65-2d4d656d6f72,rev?*%
%TF.SameCoordinates,Original*%
%TF.FileFunction,Copper,L2,Bot*%
%TF.FilePolarity,Positive*%
%FSLAX46Y46*%
G04 Gerber Fmt 4.6, Leading zero omitted, Abs format (unit mm)*
G04 Created by KiCad (PCBNEW (6.0.0-0)) date 2022-03-08 07:11:20*
%MOMM*%
%LPD*%
G01*
G04 APERTURE LIST*
%TA.AperFunction,ComponentPad*%
%ADD10R,1.700000X1.700000*%
%TD*%
%TA.AperFunction,ComponentPad*%
%ADD11O,1.700000X1.700000*%
%TD*%
%TA.AperFunction,ViaPad*%
%ADD12C,0.800000*%
%TD*%
%TA.AperFunction,Conductor*%
%ADD13C,0.250000*%
%TD*%
G04 APERTURE END LIST*
D10*
%TO.P,J5,1,Pin_1*%
%TO.N,~{LATCH_CODE_SEG}*%
X187706000Y-48260000D03*
D11*
%TO.P,J5,2,Pin_2*%
%TO.N,~{EN_CODE_SEG}*%
X187706000Y-50800000D03*
%TO.P,J5,3,Pin_3*%
%TO.N,~{ASSERT_CODE_SEG}*%
X187706000Y-53340000D03*
%TO.P,J5,4,Pin_4*%
%TO.N,~{LATCH_DATA_SEG}*%
X187706000Y-55880000D03*
%TO.P,J5,5,Pin_5*%
%TO.N,~{EN_DATA_SEG}*%
X187706000Y-58420000D03*
%TO.P,J5,6,Pin_6*%
%TO.N,~{ASSERT_DATA_SEG}*%
X187706000Y-60960000D03*
%TO.P,J5,7,Pin_7*%
%TO.N,~{LATCH_STACK_SEG}*%
X187706000Y-63500000D03*
%TO.P,J5,8,Pin_8*%
%TO.N,~{EN_STACK_SEG}*%
X187706000Y-66040000D03*
%TO.P,J5,9,Pin_9*%
%TO.N,~{ASSERT_STACK_SEG}*%
X187706000Y-68580000D03*
%TD*%
D10*
%TO.P,J2,1,Pin_1*%
%TO.N,BUS7*%
X91440000Y-48298000D03*
D11*
%TO.P,J2,2,Pin_2*%
%TO.N,BUS6*%
X91440000Y-50838000D03*
%TO.P,J2,3,Pin_3*%
%TO.N,BUS5*%
X91440000Y-53378000D03*
%TO.P,J2,4,Pin_4*%
%TO.N,BUS4*%
X91440000Y-55918000D03*
%TO.P,J2,5,Pin_5*%
%TO.N,BUS3*%
X91440000Y-58458000D03*
%TO.P,J2,6,Pin_6*%
%TO.N,BUS2*%
X91440000Y-60998000D03*
%TO.P,J2,7,Pin_7*%
%TO.N,BUS1*%
X91440000Y-63538000D03*
%TO.P,J2,8,Pin_8*%
%TO.N,BUS0*%
X91440000Y-66078000D03*
%TD*%
D10*
%TO.P,J1,1,Pin_1*%
%TO.N,VCC*%
X169667000Y-143256000D03*
D11*
%TO.P,J1,2,Pin_2*%
%TO.N,GND*%
X172207000Y-143256000D03*
%TO.P,J1,3,Pin_3*%
%TO.N,CLOCK*%
X174747000Y-143256000D03*
%TO.P,J1,4,Pin_4*%
%TO.N,RESET*%
X177287000Y-143256000D03*
%TO.P,J1,5,Pin_5*%
%TO.N,~{LATCH_MAR}*%
X179827000Y-143256000D03*
%TO.P,J1,6,Pin_6*%
%TO.N,~{READ}*%
X182367000Y-143256000D03*
%TO.P,J1,7,Pin_7*%
%TO.N,~{WRITE}*%
X184907000Y-143256000D03*
%TD*%
D10*
%TO.P,J4,1,Pin_1*%
%TO.N,A15*%
X94488000Y-143002000D03*
D11*
%TO.P,J4,2,Pin_2*%
%TO.N,A14*%
X97028000Y-143002000D03*
%TO.P,J4,3,Pin_3*%
%TO.N,A13*%
X99568000Y-143002000D03*
%TO.P,J4,4,Pin_4*%
%TO.N,A12*%
X102108000Y-143002000D03*
%TO.P,J4,5,Pin_5*%
%TO.N,A11*%
X104648000Y-143002000D03*
%TO.P,J4,6,Pin_6*%
%TO.N,A10*%
X107188000Y-143002000D03*
%TO.P,J4,7,Pin_7*%
%TO.N,A9*%
X109728000Y-143002000D03*
%TO.P,J4,8,Pin_8*%
%TO.N,A8*%
X112268000Y-143002000D03*
%TO.P,J4,9,Pin_9*%
%TO.N,A7*%
X114808000Y-143002000D03*
%TO.P,J4,10,Pin_10*%
%TO.N,A6*%
X117348000Y-143002000D03*
%TO.P,J4,11,Pin_11*%
%TO.N,A5*%
X119888000Y-143002000D03*
%TO.P,J4,12,Pin_12*%
%TO.N,A4*%
X122428000Y-143002000D03*
%TO.P,J4,13,Pin_13*%
%TO.N,A3*%
X124968000Y-143002000D03*
%TO.P,J4,14,Pin_14*%
%TO.N,A2*%
X127508000Y-143002000D03*
%TO.P,J4,15,Pin_15*%
%TO.N,A1*%
X130048000Y-143002000D03*
%TO.P,J4,16,Pin_16*%
%TO.N,A0*%
X132588000Y-143002000D03*
%TD*%
D10*
%TO.P,J3,1,Pin_1*%
%TO.N,~{ASSERT_STACK_SEG}*%
X89916000Y-38862000D03*
D11*
%TO.P,J3,2,Pin_2*%
%TO.N,~{EN_STACK_SEG}*%
X92456000Y-38862000D03*
%TO.P,J3,3,Pin_3*%
%TO.N,~{LATCH_STACK_SEG}*%
X94996000Y-38862000D03*
%TO.P,J3,4,Pin_4*%
%TO.N,~{ASSERT_DATA_SEG}*%
X97536000Y-38862000D03*
%TO.P,J3,5,Pin_5*%
%TO.N,~{EN_DATA_SEG}*%
X100076000Y-38862000D03*
%TO.P,J3,6,Pin_6*%
%TO.N,~{LATCH_DATA_SEG}*%
X102616000Y-38862000D03*
%TO.P,J3,7,Pin_7*%
%TO.N,~{ASSERT_CODE_SEG}*%
X105156000Y-38862000D03*
%TO.P,J3,8,Pin_8*%
%TO.N,~{EN_CODE_SEG}*%
X107696000Y-38862000D03*
%TO.P,J3,9,Pin_9*%
%TO.N,~{LATCH_CODE_SEG}*%
X110236000Y-38862000D03*
%TO.P,J3,10,Pin_10*%
%TO.N,A15*%
X112776000Y-38862000D03*
%TO.P,J3,11,Pin_11*%
%TO.N,A14*%
X115316000Y-38862000D03*
%TO.P,J3,12,Pin_12*%
%TO.N,A13*%
X117856000Y-38862000D03*
%TO.P,J3,13,Pin_13*%
%TO.N,A12*%
X120396000Y-38862000D03*
%TO.P,J3,14,Pin_14*%
%TO.N,A11*%
X122936000Y-38862000D03*
%TO.P,J3,15,Pin_15*%
%TO.N,A10*%
X125476000Y-38862000D03*
%TO.P,J3,16,Pin_16*%
%TO.N,A9*%
X128016000Y-38862000D03*
%TO.P,J3,17,Pin_17*%
%TO.N,A8*%
X130556000Y-38862000D03*
%TO.P,J3,18,Pin_18*%
%TO.N,A7*%
X133096000Y-38862000D03*
%TO.P,J3,19,Pin_19*%
%TO.N,A6*%
X135636000Y-38862000D03*
%TO.P,J3,20,Pin_20*%
%TO.N,A5*%
X138176000Y-38862000D03*
%TO.P,J3,21,Pin_21*%
%TO.N,A4*%
X140716000Y-38862000D03*
%TO.P,J3,22,Pin_22*%
%TO.N,A3*%
X143256000Y-38862000D03*
%TO.P,J3,23,Pin_23*%
%TO.N,A2*%
X145796000Y-38862000D03*
%TO.P,J3,24,Pin_24*%
%TO.N,A1*%
X148336000Y-38862000D03*
%TO.P,J3,25,Pin_25*%
%TO.N,A0*%
X150876000Y-38862000D03*
%TO.P,J3,26,Pin_26*%
%TO.N,BUS7*%
X153416000Y-38862000D03*
%TO.P,J3,27,Pin_27*%
%TO.N,BUS6*%
X155956000Y-38862000D03*
%TO.P,J3,28,Pin_28*%
%TO.N,BUS5*%
X158496000Y-38862000D03*
%TO.P,J3,29,Pin_29*%
%TO.N,BUS4*%
X161036000Y-38862000D03*
%TO.P,J3,30,Pin_30*%
%TO.N,BUS3*%
X163576000Y-38862000D03*
%TO.P,J3,31,Pin_31*%
%TO.N,BUS2*%
X166116000Y-38862000D03*
%TO.P,J3,32,Pin_32*%
%TO.N,BUS1*%
X168656000Y-38862000D03*
%TO.P,J3,33,Pin_33*%
%TO.N,BUS0*%
X171196000Y-38862000D03*
%TO.P,J3,34,Pin_34*%
%TO.N,~{WRITE}*%
X173736000Y-38862000D03*
%TO.P,J3,35,Pin_35*%
%TO.N,~{READ}*%
X176276000Y-38862000D03*
%TO.P,J3,36,Pin_36*%
%TO.N,~{LATCH_MAR}*%
X178816000Y-38862000D03*
%TO.P,J3,37,Pin_37*%
%TO.N,RESET*%
X181356000Y-38862000D03*
%TO.P,J3,38,Pin_38*%
%TO.N,CLOCK*%
X183896000Y-38862000D03*
%TO.P,J3,39,Pin_39*%
%TO.N,GND*%
X186436000Y-38862000D03*
%TO.P,J3,40,Pin_40*%
%TO.N,VCC*%
X188976000Y-38862000D03*
%TD*%
D12*
%TO.N,CLOCK*%
X182833967Y-131064000D03*
%TO.N,RESET*%
X181356000Y-128523998D03*
%TO.N,~{LATCH_MAR}*%
X178816000Y-127508000D03*
%TO.N,~{READ}*%
X176276000Y-126492000D03*
%TO.N,~{WRITE}*%
X173736000Y-125222000D03*
%TO.N,~{ASSERT_STACK_SEG}*%
X136144000Y-61976000D03*
%TO.N,~{EN_STACK_SEG}*%
X137160000Y-61214000D03*
%TO.N,~{LATCH_STACK_SEG}*%
X138176000Y-60452000D03*
%TO.N,~{ASSERT_DATA_SEG}*%
X139192000Y-59690000D03*
%TO.N,~{EN_DATA_SEG}*%
X140208000Y-58674000D03*
%TO.N,~{LATCH_DATA_SEG}*%
X140970000Y-57658000D03*
%TO.N,~{ASSERT_CODE_SEG}*%
X141986000Y-56642000D03*
%TO.N,~{EN_CODE_SEG}*%
X142748000Y-55626000D03*
%TO.N,~{LATCH_CODE_SEG}*%
X143510000Y-54610000D03*
%TD*%
D13*
%TO.N,CLOCK*%
X183896000Y-124206000D02*
X182833967Y-125268033D01*
X183896000Y-40640000D02*
X183896000Y-124206000D01*
X182833967Y-125268033D02*
X182833967Y-131064000D01*
%TO.N,RESET*%
X181356000Y-40640000D02*
X181356000Y-128523998D01*
%TO.N,~{LATCH_MAR}*%
X178816000Y-40640000D02*
X178816000Y-127508000D01*
%TO.N,~{READ}*%
X176276000Y-40640000D02*
X176276000Y-126492000D01*
%TO.N,~{WRITE}*%
X173736000Y-40640000D02*
X173736000Y-125222000D01*
%TO.N,BUS7*%
X153416000Y-56388000D02*
X153416000Y-40640000D01*
X146050000Y-63754000D02*
X153416000Y-56388000D01*
X91440000Y-48298000D02*
X106896000Y-63754000D01*
X106896000Y-63754000D02*
X146050000Y-63754000D01*
%TO.N,BUS6*%
X104805510Y-64203510D02*
X146236194Y-64203510D01*
X146236194Y-64203510D02*
X155956000Y-54483704D01*
X155956000Y-54483704D02*
X155956000Y-40640000D01*
X91440000Y-50838000D02*
X104805510Y-64203510D01*
%TO.N,BUS5*%
X158496000Y-52579408D02*
X158496000Y-40640000D01*
X146422388Y-64653020D02*
X158496000Y-52579408D01*
X91440000Y-53378000D02*
X102715020Y-64653020D01*
X102715020Y-64653020D02*
X146422388Y-64653020D01*
%TO.N,BUS4*%
X161036000Y-50675112D02*
X161036000Y-40640000D01*
X91440000Y-55918000D02*
X100624530Y-65102530D01*
X100624530Y-65102530D02*
X146608582Y-65102530D01*
X146608582Y-65102530D02*
X161036000Y-50675112D01*
%TO.N,BUS3*%
X98534040Y-65552040D02*
X146794776Y-65552040D01*
X163576000Y-48770816D02*
X163576000Y-40640000D01*
X91440000Y-58458000D02*
X98534040Y-65552040D01*
X146794776Y-65552040D02*
X163576000Y-48770816D01*
%TO.N,BUS2*%
X146980970Y-66001550D02*
X166116000Y-46866520D01*
X166116000Y-46866520D02*
X166116000Y-40640000D01*
X91440000Y-60998000D02*
X96443550Y-66001550D01*
X96443550Y-66001550D02*
X146980970Y-66001550D01*
%TO.N,BUS1*%
X147167164Y-66451060D02*
X168656000Y-44962224D01*
X94353060Y-66451060D02*
X147167164Y-66451060D01*
X168656000Y-44962224D02*
X168656000Y-40640000D01*
X91440000Y-63538000D02*
X94353060Y-66451060D01*
%TO.N,BUS0*%
X171196000Y-43141902D02*
X171196000Y-40640000D01*
X91440000Y-66078000D02*
X92290000Y-66928000D01*
X147409902Y-66928000D02*
X171196000Y-43141902D01*
X92290000Y-66928000D02*
X147409902Y-66928000D01*
%TO.N,~{ASSERT_STACK_SEG}*%
X89916000Y-40640000D02*
X89916000Y-41740000D01*
X110152000Y-61976000D02*
X136144000Y-61976000D01*
X89916000Y-41740000D02*
X110152000Y-61976000D01*
%TO.N,~{EN_STACK_SEG}*%
X113030000Y-61214000D02*
X137160000Y-61214000D01*
X92456000Y-40640000D02*
X113030000Y-61214000D01*
%TO.N,~{LATCH_STACK_SEG}*%
X114808000Y-60452000D02*
X138176000Y-60452000D01*
X94996000Y-40640000D02*
X114808000Y-60452000D01*
%TO.N,~{ASSERT_DATA_SEG}*%
X116586000Y-59690000D02*
X139192000Y-59690000D01*
X97536000Y-40640000D02*
X116586000Y-59690000D01*
%TO.N,~{EN_DATA_SEG}*%
X118110000Y-58674000D02*
X140208000Y-58674000D01*
X100076000Y-40640000D02*
X118110000Y-58674000D01*
%TO.N,~{LATCH_DATA_SEG}*%
X119634000Y-57658000D02*
X140970000Y-57658000D01*
X102616000Y-40640000D02*
X119634000Y-57658000D01*
%TO.N,~{ASSERT_CODE_SEG}*%
X121158000Y-56642000D02*
X141986000Y-56642000D01*
X105156000Y-40640000D02*
X121158000Y-56642000D01*
%TO.N,~{EN_CODE_SEG}*%
X122682000Y-55626000D02*
X142748000Y-55626000D01*
X107696000Y-40640000D02*
X122682000Y-55626000D01*
%TO.N,~{LATCH_CODE_SEG}*%
X110236000Y-40640000D02*
X124206000Y-54610000D01*
X124206000Y-54610000D02*
X143510000Y-54610000D01*
%TD*%
%TA.AperFunction,Conductor*%
%TO.N,VCC*%
G36*
X191712121Y-36088002D02*
G01*
X191758614Y-36141658D01*
X191770000Y-36194000D01*
X191770000Y-145416000D01*
X191749998Y-145484121D01*
X191696342Y-145530614D01*
X191644000Y-145542000D01*
X88010000Y-145542000D01*
X87941879Y-145521998D01*
X87895386Y-145468342D01*
X87884000Y-145416000D01*
X87884000Y-143900134D01*
X93129500Y-143900134D01*
X93136255Y-143962316D01*
X93187385Y-144098705D01*
X93274739Y-144215261D01*
X93391295Y-144302615D01*
X93527684Y-144353745D01*
X93589866Y-144360500D01*
X95386134Y-144360500D01*
X95448316Y-144353745D01*
X95584705Y-144302615D01*
X95701261Y-144215261D01*
X95788615Y-144098705D01*
X95802717Y-144061088D01*
X95832598Y-143981382D01*
X95875240Y-143924618D01*
X95941802Y-143899918D01*
X96011150Y-143915126D01*
X96045817Y-143943114D01*
X96074250Y-143975938D01*
X96246126Y-144118632D01*
X96439000Y-144231338D01*
X96647692Y-144311030D01*
X96652760Y-144312061D01*
X96652763Y-144312062D01*
X96760017Y-144333883D01*
X96866597Y-144355567D01*
X96871772Y-144355757D01*
X96871774Y-144355757D01*
X97084673Y-144363564D01*
X97084677Y-144363564D01*
X97089837Y-144363753D01*
X97094957Y-144363097D01*
X97094959Y-144363097D01*
X97306288Y-144336025D01*
X97306289Y-144336025D01*
X97311416Y-144335368D01*
X97316366Y-144333883D01*
X97520429Y-144272661D01*
X97520434Y-144272659D01*
X97525384Y-144271174D01*
X97725994Y-144172896D01*
X97907860Y-144043173D01*
X98066096Y-143885489D01*
X98196453Y-143704077D01*
X98197776Y-143705028D01*
X98244645Y-143661857D01*
X98314580Y-143649625D01*
X98380026Y-143677144D01*
X98407875Y-143708994D01*
X98467987Y-143807088D01*
X98614250Y-143975938D01*
X98786126Y-144118632D01*
X98979000Y-144231338D01*
X99187692Y-144311030D01*
X99192760Y-144312061D01*
X99192763Y-144312062D01*
X99300017Y-144333883D01*
X99406597Y-144355567D01*
X99411772Y-144355757D01*
X99411774Y-144355757D01*
X99624673Y-144363564D01*
X99624677Y-144363564D01*
X99629837Y-144363753D01*
X99634957Y-144363097D01*
X99634959Y-144363097D01*
X99846288Y-144336025D01*
X99846289Y-144336025D01*
X99851416Y-144335368D01*
X99856366Y-144333883D01*
X100060429Y-144272661D01*
X100060434Y-144272659D01*
X100065384Y-144271174D01*
X100265994Y-144172896D01*
X100447860Y-144043173D01*
X100606096Y-143885489D01*
X100736453Y-143704077D01*
X100737776Y-143705028D01*
X100784645Y-143661857D01*
X100854580Y-143649625D01*
X100920026Y-143677144D01*
X100947875Y-143708994D01*
X101007987Y-143807088D01*
X101154250Y-143975938D01*
X101326126Y-144118632D01*
X101519000Y-144231338D01*
X101727692Y-144311030D01*
X101732760Y-144312061D01*
X101732763Y-144312062D01*
X101840017Y-144333883D01*
X101946597Y-144355567D01*
X101951772Y-144355757D01*
X101951774Y-144355757D01*
X102164673Y-144363564D01*
X102164677Y-144363564D01*
X102169837Y-144363753D01*
X102174957Y-144363097D01*
X102174959Y-144363097D01*
X102386288Y-144336025D01*
X102386289Y-144336025D01*
X102391416Y-144335368D01*
X102396366Y-144333883D01*
X102600429Y-144272661D01*
X102600434Y-144272659D01*
X102605384Y-144271174D01*
X102805994Y-144172896D01*
X102987860Y-144043173D01*
X103146096Y-143885489D01*
X103276453Y-143704077D01*
X103277776Y-143705028D01*
X103324645Y-143661857D01*
X103394580Y-143649625D01*
X103460026Y-143677144D01*
X103487875Y-143708994D01*
X103547987Y-143807088D01*
X103694250Y-143975938D01*
X103866126Y-144118632D01*
X104059000Y-144231338D01*
X104267692Y-144311030D01*
X104272760Y-144312061D01*
X104272763Y-144312062D01*
X104380017Y-144333883D01*
X104486597Y-144355567D01*
X104491772Y-144355757D01*
X104491774Y-144355757D01*
X104704673Y-144363564D01*
X104704677Y-144363564D01*
X104709837Y-144363753D01*
X104714957Y-144363097D01*
X104714959Y-144363097D01*
X104926288Y-144336025D01*
X104926289Y-144336025D01*
X104931416Y-144335368D01*
X104936366Y-144333883D01*
X105140429Y-144272661D01*
X105140434Y-144272659D01*
X105145384Y-144271174D01*
X105345994Y-144172896D01*
X105527860Y-144043173D01*
X105686096Y-143885489D01*
X105816453Y-143704077D01*
X105817776Y-143705028D01*
X105864645Y-143661857D01*
X105934580Y-143649625D01*
X106000026Y-143677144D01*
X106027875Y-143708994D01*
X106087987Y-143807088D01*
X106234250Y-143975938D01*
X106406126Y-144118632D01*
X106599000Y-144231338D01*
X106807692Y-144311030D01*
X106812760Y-144312061D01*
X106812763Y-144312062D01*
X106920017Y-144333883D01*
X107026597Y-144355567D01*
X107031772Y-144355757D01*
X107031774Y-144355757D01*
X107244673Y-144363564D01*
X107244677Y-144363564D01*
X107249837Y-144363753D01*
X107254957Y-144363097D01*
X107254959Y-144363097D01*
X107466288Y-144336025D01*
X107466289Y-144336025D01*
X107471416Y-144335368D01*
X107476366Y-144333883D01*
X107680429Y-144272661D01*
X107680434Y-144272659D01*
X107685384Y-144271174D01*
X107885994Y-144172896D01*
X108067860Y-144043173D01*
X108226096Y-143885489D01*
X108356453Y-143704077D01*
X108357776Y-143705028D01*
X108404645Y-143661857D01*
X108474580Y-143649625D01*
X108540026Y-143677144D01*
X108567875Y-143708994D01*
X108627987Y-143807088D01*
X108774250Y-143975938D01*
X108946126Y-144118632D01*
X109139000Y-144231338D01*
X109347692Y-144311030D01*
X109352760Y-144312061D01*
X109352763Y-144312062D01*
X109460017Y-144333883D01*
X109566597Y-144355567D01*
X109571772Y-144355757D01*
X109571774Y-144355757D01*
X109784673Y-144363564D01*
X109784677Y-144363564D01*
X109789837Y-144363753D01*
X109794957Y-144363097D01*
X109794959Y-144363097D01*
X110006288Y-144336025D01*
X110006289Y-144336025D01*
X110011416Y-144335368D01*
X110016366Y-144333883D01*
X110220429Y-144272661D01*
X110220434Y-144272659D01*
X110225384Y-144271174D01*
X110425994Y-144172896D01*
X110607860Y-144043173D01*
X110766096Y-143885489D01*
X110896453Y-143704077D01*
X110897776Y-143705028D01*
X110944645Y-143661857D01*
X111014580Y-143649625D01*
X111080026Y-143677144D01*
X111107875Y-143708994D01*
X111167987Y-143807088D01*
X111314250Y-143975938D01*
X111486126Y-144118632D01*
X111679000Y-144231338D01*
X111887692Y-144311030D01*
X111892760Y-144312061D01*
X111892763Y-144312062D01*
X112000017Y-144333883D01*
X112106597Y-144355567D01*
X112111772Y-144355757D01*
X112111774Y-144355757D01*
X112324673Y-144363564D01*
X112324677Y-144363564D01*
X112329837Y-144363753D01*
X112334957Y-144363097D01*
X112334959Y-144363097D01*
X112546288Y-144336025D01*
X112546289Y-144336025D01*
X112551416Y-144335368D01*
X112556366Y-144333883D01*
X112760429Y-144272661D01*
X112760434Y-144272659D01*
X112765384Y-144271174D01*
X112965994Y-144172896D01*
X113147860Y-144043173D01*
X113306096Y-143885489D01*
X113436453Y-143704077D01*
X113437776Y-143705028D01*
X113484645Y-143661857D01*
X113554580Y-143649625D01*
X113620026Y-143677144D01*
X113647875Y-143708994D01*
X113707987Y-143807088D01*
X113854250Y-143975938D01*
X114026126Y-144118632D01*
X114219000Y-144231338D01*
X114427692Y-144311030D01*
X114432760Y-144312061D01*
X114432763Y-144312062D01*
X114540017Y-144333883D01*
X114646597Y-144355567D01*
X114651772Y-144355757D01*
X114651774Y-144355757D01*
X114864673Y-144363564D01*
X114864677Y-144363564D01*
X114869837Y-144363753D01*
X114874957Y-144363097D01*
X114874959Y-144363097D01*
X115086288Y-144336025D01*
X115086289Y-144336025D01*
X115091416Y-144335368D01*
X115096366Y-144333883D01*
X115300429Y-144272661D01*
X115300434Y-144272659D01*
X115305384Y-144271174D01*
X115505994Y-144172896D01*
X115687860Y-144043173D01*
X115846096Y-143885489D01*
X115976453Y-143704077D01*
X115977776Y-143705028D01*
X116024645Y-143661857D01*
X116094580Y-143649625D01*
X116160026Y-143677144D01*
X116187875Y-143708994D01*
X116247987Y-143807088D01*
X116394250Y-143975938D01*
X116566126Y-144118632D01*
X116759000Y-144231338D01*
X116967692Y-144311030D01*
X116972760Y-144312061D01*
X116972763Y-144312062D01*
X117080017Y-144333883D01*
X117186597Y-144355567D01*
X117191772Y-144355757D01*
X117191774Y-144355757D01*
X117404673Y-144363564D01*
X117404677Y-144363564D01*
X117409837Y-144363753D01*
X117414957Y-144363097D01*
X117414959Y-144363097D01*
X117626288Y-144336025D01*
X117626289Y-144336025D01*
X117631416Y-144335368D01*
X117636366Y-144333883D01*
X117840429Y-144272661D01*
X117840434Y-144272659D01*
X117845384Y-144271174D01*
X118045994Y-144172896D01*
X118227860Y-144043173D01*
X118386096Y-143885489D01*
X118516453Y-143704077D01*
X118517776Y-143705028D01*
X118564645Y-143661857D01*
X118634580Y-143649625D01*
X118700026Y-143677144D01*
X118727875Y-143708994D01*
X118787987Y-143807088D01*
X118934250Y-143975938D01*
X119106126Y-144118632D01*
X119299000Y-144231338D01*
X119507692Y-144311030D01*
X119512760Y-144312061D01*
X119512763Y-144312062D01*
X119620017Y-144333883D01*
X119726597Y-144355567D01*
X119731772Y-144355757D01*
X119731774Y-144355757D01*
X119944673Y-144363564D01*
X119944677Y-144363564D01*
X119949837Y-144363753D01*
X119954957Y-144363097D01*
X119954959Y-144363097D01*
X120166288Y-144336025D01*
X120166289Y-144336025D01*
X120171416Y-144335368D01*
X120176366Y-144333883D01*
X120380429Y-144272661D01*
X120380434Y-144272659D01*
X120385384Y-144271174D01*
X120585994Y-144172896D01*
X120767860Y-144043173D01*
X120926096Y-143885489D01*
X121056453Y-143704077D01*
X121057776Y-143705028D01*
X121104645Y-143661857D01*
X121174580Y-143649625D01*
X121240026Y-143677144D01*
X121267875Y-143708994D01*
X121327987Y-143807088D01*
X121474250Y-143975938D01*
X121646126Y-144118632D01*
X121839000Y-144231338D01*
X122047692Y-144311030D01*
X122052760Y-144312061D01*
X122052763Y-144312062D01*
X122160017Y-144333883D01*
X122266597Y-144355567D01*
X122271772Y-144355757D01*
X122271774Y-144355757D01*
X122484673Y-144363564D01*
X122484677Y-144363564D01*
X122489837Y-144363753D01*
X122494957Y-144363097D01*
X122494959Y-144363097D01*
X122706288Y-144336025D01*
X122706289Y-144336025D01*
X122711416Y-144335368D01*
X122716366Y-144333883D01*
X122920429Y-144272661D01*
X122920434Y-144272659D01*
X122925384Y-144271174D01*
X123125994Y-144172896D01*
X123307860Y-144043173D01*
X123466096Y-143885489D01*
X123596453Y-143704077D01*
X123597776Y-143705028D01*
X123644645Y-143661857D01*
X123714580Y-143649625D01*
X123780026Y-143677144D01*
X123807875Y-143708994D01*
X123867987Y-143807088D01*
X124014250Y-143975938D01*
X124186126Y-144118632D01*
X124379000Y-144231338D01*
X124587692Y-144311030D01*
X124592760Y-144312061D01*
X124592763Y-144312062D01*
X124700017Y-144333883D01*
X124806597Y-144355567D01*
X124811772Y-144355757D01*
X124811774Y-144355757D01*
X125024673Y-144363564D01*
X125024677Y-144363564D01*
X125029837Y-144363753D01*
X125034957Y-144363097D01*
X125034959Y-144363097D01*
X125246288Y-144336025D01*
X125246289Y-144336025D01*
X125251416Y-144335368D01*
X125256366Y-144333883D01*
X125460429Y-144272661D01*
X125460434Y-144272659D01*
X125465384Y-144271174D01*
X125665994Y-144172896D01*
X125847860Y-144043173D01*
X126006096Y-143885489D01*
X126136453Y-143704077D01*
X126137776Y-143705028D01*
X126184645Y-143661857D01*
X126254580Y-143649625D01*
X126320026Y-143677144D01*
X126347875Y-143708994D01*
X126407987Y-143807088D01*
X126554250Y-143975938D01*
X126726126Y-144118632D01*
X126919000Y-144231338D01*
X127127692Y-144311030D01*
X127132760Y-144312061D01*
X127132763Y-144312062D01*
X127240017Y-144333883D01*
X127346597Y-144355567D01*
X127351772Y-144355757D01*
X127351774Y-144355757D01*
X127564673Y-144363564D01*
X127564677Y-144363564D01*
X127569837Y-144363753D01*
X127574957Y-144363097D01*
X127574959Y-144363097D01*
X127786288Y-144336025D01*
X127786289Y-144336025D01*
X127791416Y-144335368D01*
X127796366Y-144333883D01*
X128000429Y-144272661D01*
X128000434Y-144272659D01*
X128005384Y-144271174D01*
X128205994Y-144172896D01*
X128387860Y-144043173D01*
X128546096Y-143885489D01*
X128676453Y-143704077D01*
X128677776Y-143705028D01*
X128724645Y-143661857D01*
X128794580Y-143649625D01*
X128860026Y-143677144D01*
X128887875Y-143708994D01*
X128947987Y-143807088D01*
X129094250Y-143975938D01*
X129266126Y-144118632D01*
X129459000Y-144231338D01*
X129667692Y-144311030D01*
X129672760Y-144312061D01*
X129672763Y-144312062D01*
X129780017Y-144333883D01*
X129886597Y-144355567D01*
X129891772Y-144355757D01*
X129891774Y-144355757D01*
X130104673Y-144363564D01*
X130104677Y-144363564D01*
X130109837Y-144363753D01*
X130114957Y-144363097D01*
X130114959Y-144363097D01*
X130326288Y-144336025D01*
X130326289Y-144336025D01*
X130331416Y-144335368D01*
X130336366Y-144333883D01*
X130540429Y-144272661D01*
X130540434Y-144272659D01*
X130545384Y-144271174D01*
X130745994Y-144172896D01*
X130927860Y-144043173D01*
X131086096Y-143885489D01*
X131216453Y-143704077D01*
X131217776Y-143705028D01*
X131264645Y-143661857D01*
X131334580Y-143649625D01*
X131400026Y-143677144D01*
X131427875Y-143708994D01*
X131487987Y-143807088D01*
X131634250Y-143975938D01*
X131806126Y-144118632D01*
X131999000Y-144231338D01*
X132207692Y-144311030D01*
X132212760Y-144312061D01*
X132212763Y-144312062D01*
X132320017Y-144333883D01*
X132426597Y-144355567D01*
X132431772Y-144355757D01*
X132431774Y-144355757D01*
X132644673Y-144363564D01*
X132644677Y-144363564D01*
X132649837Y-144363753D01*
X132654957Y-144363097D01*
X132654959Y-144363097D01*
X132866288Y-144336025D01*
X132866289Y-144336025D01*
X132871416Y-144335368D01*
X132876366Y-144333883D01*
X133080429Y-144272661D01*
X133080434Y-144272659D01*
X133085384Y-144271174D01*
X133285994Y-144172896D01*
X133317155Y-144150669D01*
X168309001Y-144150669D01*
X168309371Y-144157490D01*
X168314895Y-144208352D01*
X168318521Y-144223604D01*
X168363676Y-144344054D01*
X168372214Y-144359649D01*
X168448715Y-144461724D01*
X168461276Y-144474285D01*
X168563351Y-144550786D01*
X168578946Y-144559324D01*
X168699394Y-144604478D01*
X168714649Y-144608105D01*
X168765514Y-144613631D01*
X168772328Y-144614000D01*
X169394885Y-144614000D01*
X169410124Y-144609525D01*
X169411329Y-144608135D01*
X169413000Y-144600452D01*
X169413000Y-144595884D01*
X169921000Y-144595884D01*
X169925475Y-144611123D01*
X169926865Y-144612328D01*
X169934548Y-144613999D01*
X170561669Y-144613999D01*
X170568490Y-144613629D01*
X170619352Y-144608105D01*
X170634604Y-144604479D01*
X170755054Y-144559324D01*
X170770649Y-144550786D01*
X170872724Y-144474285D01*
X170885285Y-144461724D01*
X170961786Y-144359649D01*
X170970324Y-144344054D01*
X171011225Y-144234952D01*
X171053867Y-144178188D01*
X171120428Y-144153488D01*
X171189777Y-144168696D01*
X171224444Y-144196684D01*
X171249865Y-144226031D01*
X171249869Y-144226035D01*
X171253250Y-144229938D01*
X171329846Y-144293529D01*
X171414204Y-144363564D01*
X171425126Y-144372632D01*
X171618000Y-144485338D01*
X171826692Y-144565030D01*
X171831760Y-144566061D01*
X171831763Y-144566062D01*
X171939017Y-144587883D01*
X172045597Y-144609567D01*
X172050772Y-144609757D01*
X172050774Y-144609757D01*
X172263673Y-144617564D01*
X172263677Y-144617564D01*
X172268837Y-144617753D01*
X172273957Y-144617097D01*
X172273959Y-144617097D01*
X172485288Y-144590025D01*
X172485289Y-144590025D01*
X172490416Y-144589368D01*
X172495366Y-144587883D01*
X172699429Y-144526661D01*
X172699434Y-144526659D01*
X172704384Y-144525174D01*
X172904994Y-144426896D01*
X173086860Y-144297173D01*
X173152926Y-144231338D01*
X173187701Y-144196684D01*
X173245096Y-144139489D01*
X173269239Y-144105891D01*
X173375453Y-143958077D01*
X173376776Y-143959028D01*
X173423645Y-143915857D01*
X173493580Y-143903625D01*
X173559026Y-143931144D01*
X173586875Y-143962994D01*
X173646987Y-144061088D01*
X173793250Y-144229938D01*
X173869846Y-144293529D01*
X173954204Y-144363564D01*
X173965126Y-144372632D01*
X174158000Y-144485338D01*
X174366692Y-144565030D01*
X174371760Y-144566061D01*
X174371763Y-144566062D01*
X174479017Y-144587883D01*
X174585597Y-144609567D01*
X174590772Y-144609757D01*
X174590774Y-144609757D01*
X174803673Y-144617564D01*
X174803677Y-144617564D01*
X174808837Y-144617753D01*
X174813957Y-144617097D01*
X174813959Y-144617097D01*
X175025288Y-144590025D01*
X175025289Y-144590025D01*
X175030416Y-144589368D01*
X175035366Y-144587883D01*
X175239429Y-144526661D01*
X175239434Y-144526659D01*
X175244384Y-144525174D01*
X175444994Y-144426896D01*
X175626860Y-144297173D01*
X175692926Y-144231338D01*
X175727701Y-144196684D01*
X175785096Y-144139489D01*
X175809239Y-144105891D01*
X175915453Y-143958077D01*
X175916776Y-143959028D01*
X175963645Y-143915857D01*
X176033580Y-143903625D01*
X176099026Y-143931144D01*
X176126875Y-143962994D01*
X176186987Y-144061088D01*
X176333250Y-144229938D01*
X176409846Y-144293529D01*
X176494204Y-144363564D01*
X176505126Y-144372632D01*
X176698000Y-144485338D01*
X176906692Y-144565030D01*
X176911760Y-144566061D01*
X176911763Y-144566062D01*
X177019017Y-144587883D01*
X177125597Y-144609567D01*
X177130772Y-144609757D01*
X177130774Y-144609757D01*
X177343673Y-144617564D01*
X177343677Y-144617564D01*
X177348837Y-144617753D01*
X177353957Y-144617097D01*
X177353959Y-144617097D01*
X177565288Y-144590025D01*
X177565289Y-144590025D01*
X177570416Y-144589368D01*
X177575366Y-144587883D01*
X177779429Y-144526661D01*
X177779434Y-144526659D01*
X177784384Y-144525174D01*
X177984994Y-144426896D01*
X178166860Y-144297173D01*
X178232926Y-144231338D01*
X178267701Y-144196684D01*
X178325096Y-144139489D01*
X178349239Y-144105891D01*
X178455453Y-143958077D01*
X178456776Y-143959028D01*
X178503645Y-143915857D01*
X178573580Y-143903625D01*
X178639026Y-143931144D01*
X178666875Y-143962994D01*
X178726987Y-144061088D01*
X178873250Y-144229938D01*
X178949846Y-144293529D01*
X179034204Y-144363564D01*
X179045126Y-144372632D01*
X179238000Y-144485338D01*
X179446692Y-144565030D01*
X179451760Y-144566061D01*
X179451763Y-144566062D01*
X179559017Y-144587883D01*
X179665597Y-144609567D01*
X179670772Y-144609757D01*
X179670774Y-144609757D01*
X179883673Y-144617564D01*
X179883677Y-144617564D01*
X179888837Y-144617753D01*
X179893957Y-144617097D01*
X179893959Y-144617097D01*
X180105288Y-144590025D01*
X180105289Y-144590025D01*
X180110416Y-144589368D01*
X180115366Y-144587883D01*
X180319429Y-144526661D01*
X180319434Y-144526659D01*
X180324384Y-144525174D01*
X180524994Y-144426896D01*
X180706860Y-144297173D01*
X180772926Y-144231338D01*
X180807701Y-144196684D01*
X180865096Y-144139489D01*
X180889239Y-144105891D01*
X180995453Y-143958077D01*
X180996776Y-143959028D01*
X181043645Y-143915857D01*
X181113580Y-143903625D01*
X181179026Y-143931144D01*
X181206875Y-143962994D01*
X181266987Y-144061088D01*
X181413250Y-144229938D01*
X181489846Y-144293529D01*
X181574204Y-144363564D01*
X181585126Y-144372632D01*
X181778000Y-144485338D01*
X181986692Y-144565030D01*
X181991760Y-144566061D01*
X181991763Y-144566062D01*
X182099017Y-144587883D01*
X182205597Y-144609567D01*
X182210772Y-144609757D01*
X182210774Y-144609757D01*
X182423673Y-144617564D01*
X182423677Y-144617564D01*
X182428837Y-144617753D01*
X182433957Y-144617097D01*
X182433959Y-144617097D01*
X182645288Y-144590025D01*
X182645289Y-144590025D01*
X182650416Y-144589368D01*
X182655366Y-144587883D01*
X182859429Y-144526661D01*
X182859434Y-144526659D01*
X182864384Y-144525174D01*
X183064994Y-144426896D01*
X183246860Y-144297173D01*
X183312926Y-144231338D01*
X183347701Y-144196684D01*
X183405096Y-144139489D01*
X183429239Y-144105891D01*
X183535453Y-143958077D01*
X183536776Y-143959028D01*
X183583645Y-143915857D01*
X183653580Y-143903625D01*
X183719026Y-143931144D01*
X183746875Y-143962994D01*
X183806987Y-144061088D01*
X183953250Y-144229938D01*
X184029846Y-144293529D01*
X184114204Y-144363564D01*
X184125126Y-144372632D01*
X184318000Y-144485338D01*
X184526692Y-144565030D01*
X184531760Y-144566061D01*
X184531763Y-144566062D01*
X184639017Y-144587883D01*
X184745597Y-144609567D01*
X184750772Y-144609757D01*
X184750774Y-144609757D01*
X184963673Y-144617564D01*
X184963677Y-144617564D01*
X184968837Y-144617753D01*
X184973957Y-144617097D01*
X184973959Y-144617097D01*
X185185288Y-144590025D01*
X185185289Y-144590025D01*
X185190416Y-144589368D01*
X185195366Y-144587883D01*
X185399429Y-144526661D01*
X185399434Y-144526659D01*
X185404384Y-144525174D01*
X185604994Y-144426896D01*
X185786860Y-144297173D01*
X185852926Y-144231338D01*
X185887701Y-144196684D01*
X185945096Y-144139489D01*
X185969239Y-144105891D01*
X186072435Y-143962277D01*
X186075453Y-143958077D01*
X186091990Y-143924618D01*
X186172136Y-143762453D01*
X186172137Y-143762451D01*
X186174430Y-143757811D01*
X186207300Y-143649625D01*
X186237865Y-143549023D01*
X186237865Y-143549021D01*
X186239370Y-143544069D01*
X186268529Y-143322590D01*
X186270156Y-143256000D01*
X186251852Y-143033361D01*
X186197431Y-142816702D01*
X186108354Y-142611840D01*
X185987014Y-142424277D01*
X185836670Y-142259051D01*
X185832619Y-142255852D01*
X185832615Y-142255848D01*
X185665414Y-142123800D01*
X185665410Y-142123798D01*
X185661359Y-142120598D01*
X185465789Y-142012638D01*
X185460920Y-142010914D01*
X185460916Y-142010912D01*
X185260087Y-141939795D01*
X185260083Y-141939794D01*
X185255212Y-141938069D01*
X185250119Y-141937162D01*
X185250116Y-141937161D01*
X185040373Y-141899800D01*
X185040367Y-141899799D01*
X185035284Y-141898894D01*
X184961452Y-141897992D01*
X184817081Y-141896228D01*
X184817079Y-141896228D01*
X184811911Y-141896165D01*
X184591091Y-141929955D01*
X184378756Y-141999357D01*
X184348443Y-142015137D01*
X184266506Y-142057791D01*
X184180607Y-142102507D01*
X184176474Y-142105610D01*
X184176471Y-142105612D01*
X184084565Y-142174617D01*
X184001965Y-142236635D01*
X183847629Y-142398138D01*
X183740201Y-142555621D01*
X183685293Y-142600621D01*
X183614768Y-142608792D01*
X183551021Y-142577538D01*
X183530324Y-142553054D01*
X183449822Y-142428617D01*
X183449820Y-142428614D01*
X183447014Y-142424277D01*
X183296670Y-142259051D01*
X183292619Y-142255852D01*
X183292615Y-142255848D01*
X183125414Y-142123800D01*
X183125410Y-142123798D01*
X183121359Y-142120598D01*
X182925789Y-142012638D01*
X182920920Y-142010914D01*
X182920916Y-142010912D01*
X182720087Y-141939795D01*
X182720083Y-141939794D01*
X182715212Y-141938069D01*
X182710119Y-141937162D01*
X182710116Y-141937161D01*
X182500373Y-141899800D01*
X182500367Y-141899799D01*
X182495284Y-141898894D01*
X182421452Y-141897992D01*
X182277081Y-141896228D01*
X182277079Y-141896228D01*
X182271911Y-141896165D01*
X182051091Y-141929955D01*
X181838756Y-141999357D01*
X181808443Y-142015137D01*
X181726506Y-142057791D01*
X181640607Y-142102507D01*
X181636474Y-142105610D01*
X181636471Y-142105612D01*
X181544565Y-142174617D01*
X181461965Y-142236635D01*
X181307629Y-142398138D01*
X181200201Y-142555621D01*
X181145293Y-142600621D01*
X181074768Y-142608792D01*
X181011021Y-142577538D01*
X180990324Y-142553054D01*
X180909822Y-142428617D01*
X180909820Y-142428614D01*
X180907014Y-142424277D01*
X180756670Y-142259051D01*
X180752619Y-142255852D01*
X180752615Y-142255848D01*
X180585414Y-142123800D01*
X180585410Y-142123798D01*
X180581359Y-142120598D01*
X180385789Y-142012638D01*
X180380920Y-142010914D01*
X180380916Y-142010912D01*
X180180087Y-141939795D01*
X180180083Y-141939794D01*
X180175212Y-141938069D01*
X180170119Y-141937162D01*
X180170116Y-141937161D01*
X179960373Y-141899800D01*
X179960367Y-141899799D01*
X179955284Y-141898894D01*
X179881452Y-141897992D01*
X179737081Y-141896228D01*
X179737079Y-141896228D01*
X179731911Y-141896165D01*
X179511091Y-141929955D01*
X179298756Y-141999357D01*
X179268443Y-142015137D01*
X179186506Y-142057791D01*
X179100607Y-142102507D01*
X179096474Y-142105610D01*
X179096471Y-142105612D01*
X179004565Y-142174617D01*
X178921965Y-142236635D01*
X178767629Y-142398138D01*
X178660201Y-142555621D01*
X178605293Y-142600621D01*
X178534768Y-142608792D01*
X178471021Y-142577538D01*
X178450324Y-142553054D01*
X178369822Y-142428617D01*
X178369820Y-142428614D01*
X178367014Y-142424277D01*
X178216670Y-142259051D01*
X178212619Y-142255852D01*
X178212615Y-142255848D01*
X178045414Y-142123800D01*
X178045410Y-142123798D01*
X178041359Y-142120598D01*
X177845789Y-142012638D01*
X177840920Y-142010914D01*
X177840916Y-142010912D01*
X177640087Y-141939795D01*
X177640083Y-141939794D01*
X177635212Y-141938069D01*
X177630119Y-141937162D01*
X177630116Y-141937161D01*
X177420373Y-141899800D01*
X177420367Y-141899799D01*
X177415284Y-141898894D01*
X177341452Y-141897992D01*
X177197081Y-141896228D01*
X177197079Y-141896228D01*
X177191911Y-141896165D01*
X176971091Y-141929955D01*
X176758756Y-141999357D01*
X176728443Y-142015137D01*
X176646506Y-142057791D01*
X176560607Y-142102507D01*
X176556474Y-142105610D01*
X176556471Y-142105612D01*
X176464565Y-142174617D01*
X176381965Y-142236635D01*
X176227629Y-142398138D01*
X176120201Y-142555621D01*
X176065293Y-142600621D01*
X175994768Y-142608792D01*
X175931021Y-142577538D01*
X175910324Y-142553054D01*
X175829822Y-142428617D01*
X175829820Y-142428614D01*
X175827014Y-142424277D01*
X175676670Y-142259051D01*
X175672619Y-142255852D01*
X175672615Y-142255848D01*
X175505414Y-142123800D01*
X175505410Y-142123798D01*
X175501359Y-142120598D01*
X175305789Y-142012638D01*
X175300920Y-142010914D01*
X175300916Y-142010912D01*
X175100087Y-141939795D01*
X175100083Y-141939794D01*
X175095212Y-141938069D01*
X175090119Y-141937162D01*
X175090116Y-141937161D01*
X174880373Y-141899800D01*
X174880367Y-141899799D01*
X174875284Y-141898894D01*
X174801452Y-141897992D01*
X174657081Y-141896228D01*
X174657079Y-141896228D01*
X174651911Y-141896165D01*
X174431091Y-141929955D01*
X174218756Y-141999357D01*
X174188443Y-142015137D01*
X174106506Y-142057791D01*
X174020607Y-142102507D01*
X174016474Y-142105610D01*
X174016471Y-142105612D01*
X173924565Y-142174617D01*
X173841965Y-142236635D01*
X173687629Y-142398138D01*
X173580201Y-142555621D01*
X173525293Y-142600621D01*
X173454768Y-142608792D01*
X173391021Y-142577538D01*
X173370324Y-142553054D01*
X173289822Y-142428617D01*
X173289820Y-142428614D01*
X173287014Y-142424277D01*
X173136670Y-142259051D01*
X173132619Y-142255852D01*
X173132615Y-142255848D01*
X172965414Y-142123800D01*
X172965410Y-142123798D01*
X172961359Y-142120598D01*
X172765789Y-142012638D01*
X172760920Y-142010914D01*
X172760916Y-142010912D01*
X172560087Y-141939795D01*
X172560083Y-141939794D01*
X172555212Y-141938069D01*
X172550119Y-141937162D01*
X172550116Y-141937161D01*
X172340373Y-141899800D01*
X172340367Y-141899799D01*
X172335284Y-141898894D01*
X172261452Y-141897992D01*
X172117081Y-141896228D01*
X172117079Y-141896228D01*
X172111911Y-141896165D01*
X171891091Y-141929955D01*
X171678756Y-141999357D01*
X171648443Y-142015137D01*
X171566506Y-142057791D01*
X171480607Y-142102507D01*
X171476474Y-142105610D01*
X171476471Y-142105612D01*
X171384565Y-142174617D01*
X171301965Y-142236635D01*
X171298393Y-142240373D01*
X171220898Y-142321466D01*
X171159374Y-142356895D01*
X171088462Y-142353438D01*
X171030676Y-142312192D01*
X171011823Y-142278644D01*
X170970324Y-142167946D01*
X170961786Y-142152351D01*
X170885285Y-142050276D01*
X170872724Y-142037715D01*
X170770649Y-141961214D01*
X170755054Y-141952676D01*
X170634606Y-141907522D01*
X170619351Y-141903895D01*
X170568486Y-141898369D01*
X170561672Y-141898000D01*
X169939115Y-141898000D01*
X169923876Y-141902475D01*
X169922671Y-141903865D01*
X169921000Y-141911548D01*
X169921000Y-144595884D01*
X169413000Y-144595884D01*
X169413000Y-143528115D01*
X169408525Y-143512876D01*
X169407135Y-143511671D01*
X169399452Y-143510000D01*
X168327116Y-143510000D01*
X168311877Y-143514475D01*
X168310672Y-143515865D01*
X168309001Y-143523548D01*
X168309001Y-144150669D01*
X133317155Y-144150669D01*
X133467860Y-144043173D01*
X133626096Y-143885489D01*
X133756453Y-143704077D01*
X133777320Y-143661857D01*
X133853136Y-143508453D01*
X133853137Y-143508451D01*
X133855430Y-143503811D01*
X133920370Y-143290069D01*
X133949529Y-143068590D01*
X133950390Y-143033361D01*
X133951074Y-143005365D01*
X133951074Y-143005361D01*
X133951156Y-143002000D01*
X133949667Y-142983885D01*
X168309000Y-142983885D01*
X168313475Y-142999124D01*
X168314865Y-143000329D01*
X168322548Y-143002000D01*
X169394885Y-143002000D01*
X169410124Y-142997525D01*
X169411329Y-142996135D01*
X169413000Y-142988452D01*
X169413000Y-141916116D01*
X169408525Y-141900877D01*
X169407135Y-141899672D01*
X169399452Y-141898001D01*
X168772331Y-141898001D01*
X168765510Y-141898371D01*
X168714648Y-141903895D01*
X168699396Y-141907521D01*
X168578946Y-141952676D01*
X168563351Y-141961214D01*
X168461276Y-142037715D01*
X168448715Y-142050276D01*
X168372214Y-142152351D01*
X168363676Y-142167946D01*
X168318522Y-142288394D01*
X168314895Y-142303649D01*
X168309369Y-142354514D01*
X168309000Y-142361328D01*
X168309000Y-142983885D01*
X133949667Y-142983885D01*
X133932852Y-142779361D01*
X133878431Y-142562702D01*
X133789354Y-142357840D01*
X133668014Y-142170277D01*
X133517670Y-142005051D01*
X133513619Y-142001852D01*
X133513615Y-142001848D01*
X133346414Y-141869800D01*
X133346410Y-141869798D01*
X133342359Y-141866598D01*
X133146789Y-141758638D01*
X133141920Y-141756914D01*
X133141916Y-141756912D01*
X132941087Y-141685795D01*
X132941083Y-141685794D01*
X132936212Y-141684069D01*
X132931119Y-141683162D01*
X132931116Y-141683161D01*
X132721373Y-141645800D01*
X132721367Y-141645799D01*
X132716284Y-141644894D01*
X132642452Y-141643992D01*
X132498081Y-141642228D01*
X132498079Y-141642228D01*
X132492911Y-141642165D01*
X132272091Y-141675955D01*
X132059756Y-141745357D01*
X131861607Y-141848507D01*
X131857474Y-141851610D01*
X131857471Y-141851612D01*
X131711495Y-141961214D01*
X131682965Y-141982635D01*
X131651905Y-142015137D01*
X131553511Y-142118101D01*
X131528629Y-142144138D01*
X131421201Y-142301621D01*
X131366293Y-142346621D01*
X131295768Y-142354792D01*
X131232021Y-142323538D01*
X131211324Y-142299054D01*
X131130822Y-142174617D01*
X131130820Y-142174614D01*
X131128014Y-142170277D01*
X130977670Y-142005051D01*
X130973619Y-142001852D01*
X130973615Y-142001848D01*
X130806414Y-141869800D01*
X130806410Y-141869798D01*
X130802359Y-141866598D01*
X130606789Y-141758638D01*
X130601920Y-141756914D01*
X130601916Y-141756912D01*
X130401087Y-141685795D01*
X130401083Y-141685794D01*
X130396212Y-141684069D01*
X130391119Y-141683162D01*
X130391116Y-141683161D01*
X130181373Y-141645800D01*
X130181367Y-141645799D01*
X130176284Y-141644894D01*
X130102452Y-141643992D01*
X129958081Y-141642228D01*
X129958079Y-141642228D01*
X129952911Y-141642165D01*
X129732091Y-141675955D01*
X129519756Y-141745357D01*
X129321607Y-141848507D01*
X129317474Y-141851610D01*
X129317471Y-141851612D01*
X129171495Y-141961214D01*
X129142965Y-141982635D01*
X129111905Y-142015137D01*
X129013511Y-142118101D01*
X128988629Y-142144138D01*
X128881201Y-142301621D01*
X128826293Y-142346621D01*
X128755768Y-142354792D01*
X128692021Y-142323538D01*
X128671324Y-142299054D01*
X128590822Y-142174617D01*
X128590820Y-142174614D01*
X128588014Y-142170277D01*
X128437670Y-142005051D01*
X128433619Y-142001852D01*
X128433615Y-142001848D01*
X128266414Y-141869800D01*
X128266410Y-141869798D01*
X128262359Y-141866598D01*
X128066789Y-141758638D01*
X128061920Y-141756914D01*
X128061916Y-141756912D01*
X127861087Y-141685795D01*
X127861083Y-141685794D01*
X127856212Y-141684069D01*
X127851119Y-141683162D01*
X127851116Y-141683161D01*
X127641373Y-141645800D01*
X127641367Y-141645799D01*
X127636284Y-141644894D01*
X127562452Y-141643992D01*
X127418081Y-141642228D01*
X127418079Y-141642228D01*
X127412911Y-141642165D01*
X127192091Y-141675955D01*
X126979756Y-141745357D01*
X126781607Y-141848507D01*
X126777474Y-141851610D01*
X126777471Y-141851612D01*
X126631495Y-141961214D01*
X126602965Y-141982635D01*
X126571905Y-142015137D01*
X126473511Y-142118101D01*
X126448629Y-142144138D01*
X126341201Y-142301621D01*
X126286293Y-142346621D01*
X126215768Y-142354792D01*
X126152021Y-142323538D01*
X126131324Y-142299054D01*
X126050822Y-142174617D01*
X126050820Y-142174614D01*
X126048014Y-142170277D01*
X125897670Y-142005051D01*
X125893619Y-142001852D01*
X125893615Y-142001848D01*
X125726414Y-141869800D01*
X125726410Y-141869798D01*
X125722359Y-141866598D01*
X125526789Y-141758638D01*
X125521920Y-141756914D01*
X125521916Y-141756912D01*
X125321087Y-141685795D01*
X125321083Y-141685794D01*
X125316212Y-141684069D01*
X125311119Y-141683162D01*
X125311116Y-141683161D01*
X125101373Y-141645800D01*
X125101367Y-141645799D01*
X125096284Y-141644894D01*
X125022452Y-141643992D01*
X124878081Y-141642228D01*
X124878079Y-141642228D01*
X124872911Y-141642165D01*
X124652091Y-141675955D01*
X124439756Y-141745357D01*
X124241607Y-141848507D01*
X124237474Y-141851610D01*
X124237471Y-141851612D01*
X124091495Y-141961214D01*
X124062965Y-141982635D01*
X124031905Y-142015137D01*
X123933511Y-142118101D01*
X123908629Y-142144138D01*
X123801201Y-142301621D01*
X123746293Y-142346621D01*
X123675768Y-142354792D01*
X123612021Y-142323538D01*
X123591324Y-142299054D01*
X123510822Y-142174617D01*
X123510820Y-142174614D01*
X123508014Y-142170277D01*
X123357670Y-142005051D01*
X123353619Y-142001852D01*
X123353615Y-142001848D01*
X123186414Y-141869800D01*
X123186410Y-141869798D01*
X123182359Y-141866598D01*
X122986789Y-141758638D01*
X122981920Y-141756914D01*
X122981916Y-141756912D01*
X122781087Y-141685795D01*
X122781083Y-141685794D01*
X122776212Y-141684069D01*
X122771119Y-141683162D01*
X122771116Y-141683161D01*
X122561373Y-141645800D01*
X122561367Y-141645799D01*
X122556284Y-141644894D01*
X122482452Y-141643992D01*
X122338081Y-141642228D01*
X122338079Y-141642228D01*
X122332911Y-141642165D01*
X122112091Y-141675955D01*
X121899756Y-141745357D01*
X121701607Y-141848507D01*
X121697474Y-141851610D01*
X121697471Y-141851612D01*
X121551495Y-141961214D01*
X121522965Y-141982635D01*
X121491905Y-142015137D01*
X121393511Y-142118101D01*
X121368629Y-142144138D01*
X121261201Y-142301621D01*
X121206293Y-142346621D01*
X121135768Y-142354792D01*
X121072021Y-142323538D01*
X121051324Y-142299054D01*
X120970822Y-142174617D01*
X120970820Y-142174614D01*
X120968014Y-142170277D01*
X120817670Y-142005051D01*
X120813619Y-142001852D01*
X120813615Y-142001848D01*
X120646414Y-141869800D01*
X120646410Y-141869798D01*
X120642359Y-141866598D01*
X120446789Y-141758638D01*
X120441920Y-141756914D01*
X120441916Y-141756912D01*
X120241087Y-141685795D01*
X120241083Y-141685794D01*
X120236212Y-141684069D01*
X120231119Y-141683162D01*
X120231116Y-141683161D01*
X120021373Y-141645800D01*
X120021367Y-141645799D01*
X120016284Y-141644894D01*
X119942452Y-141643992D01*
X119798081Y-141642228D01*
X119798079Y-141642228D01*
X119792911Y-141642165D01*
X119572091Y-141675955D01*
X119359756Y-141745357D01*
X119161607Y-141848507D01*
X119157474Y-141851610D01*
X119157471Y-141851612D01*
X119011495Y-141961214D01*
X118982965Y-141982635D01*
X118951905Y-142015137D01*
X118853511Y-142118101D01*
X118828629Y-142144138D01*
X118721201Y-142301621D01*
X118666293Y-142346621D01*
X118595768Y-142354792D01*
X118532021Y-142323538D01*
X118511324Y-142299054D01*
X118430822Y-142174617D01*
X118430820Y-142174614D01*
X118428014Y-142170277D01*
X118277670Y-142005051D01*
X118273619Y-142001852D01*
X118273615Y-142001848D01*
X118106414Y-141869800D01*
X118106410Y-141869798D01*
X118102359Y-141866598D01*
X117906789Y-141758638D01*
X117901920Y-141756914D01*
X117901916Y-141756912D01*
X117701087Y-141685795D01*
X117701083Y-141685794D01*
X117696212Y-141684069D01*
X117691119Y-141683162D01*
X117691116Y-141683161D01*
X117481373Y-141645800D01*
X117481367Y-141645799D01*
X117476284Y-141644894D01*
X117402452Y-141643992D01*
X117258081Y-141642228D01*
X117258079Y-141642228D01*
X117252911Y-141642165D01*
X117032091Y-141675955D01*
X116819756Y-141745357D01*
X116621607Y-141848507D01*
X116617474Y-141851610D01*
X116617471Y-141851612D01*
X116471495Y-141961214D01*
X116442965Y-141982635D01*
X116411905Y-142015137D01*
X116313511Y-142118101D01*
X116288629Y-142144138D01*
X116181201Y-142301621D01*
X116126293Y-142346621D01*
X116055768Y-142354792D01*
X115992021Y-142323538D01*
X115971324Y-142299054D01*
X115890822Y-142174617D01*
X115890820Y-142174614D01*
X115888014Y-142170277D01*
X115737670Y-142005051D01*
X115733619Y-142001852D01*
X115733615Y-142001848D01*
X115566414Y-141869800D01*
X115566410Y-141869798D01*
X115562359Y-141866598D01*
X115366789Y-141758638D01*
X115361920Y-141756914D01*
X115361916Y-141756912D01*
X115161087Y-141685795D01*
X115161083Y-141685794D01*
X115156212Y-141684069D01*
X115151119Y-141683162D01*
X115151116Y-141683161D01*
X114941373Y-141645800D01*
X114941367Y-141645799D01*
X114936284Y-141644894D01*
X114862452Y-141643992D01*
X114718081Y-141642228D01*
X114718079Y-141642228D01*
X114712911Y-141642165D01*
X114492091Y-141675955D01*
X114279756Y-141745357D01*
X114081607Y-141848507D01*
X114077474Y-141851610D01*
X114077471Y-141851612D01*
X113931495Y-141961214D01*
X113902965Y-141982635D01*
X113871905Y-142015137D01*
X113773511Y-142118101D01*
X113748629Y-142144138D01*
X113641201Y-142301621D01*
X113586293Y-142346621D01*
X113515768Y-142354792D01*
X113452021Y-142323538D01*
X113431324Y-142299054D01*
X113350822Y-142174617D01*
X113350820Y-142174614D01*
X113348014Y-142170277D01*
X113197670Y-142005051D01*
X113193619Y-142001852D01*
X113193615Y-142001848D01*
X113026414Y-141869800D01*
X113026410Y-141869798D01*
X113022359Y-141866598D01*
X112826789Y-141758638D01*
X112821920Y-141756914D01*
X112821916Y-141756912D01*
X112621087Y-141685795D01*
X112621083Y-141685794D01*
X112616212Y-141684069D01*
X112611119Y-141683162D01*
X112611116Y-141683161D01*
X112401373Y-141645800D01*
X112401367Y-141645799D01*
X112396284Y-141644894D01*
X112322452Y-141643992D01*
X112178081Y-141642228D01*
X112178079Y-141642228D01*
X112172911Y-141642165D01*
X111952091Y-141675955D01*
X111739756Y-141745357D01*
X111541607Y-141848507D01*
X111537474Y-141851610D01*
X111537471Y-141851612D01*
X111391495Y-141961214D01*
X111362965Y-141982635D01*
X111331905Y-142015137D01*
X111233511Y-142118101D01*
X111208629Y-142144138D01*
X111101201Y-142301621D01*
X111046293Y-142346621D01*
X110975768Y-142354792D01*
X110912021Y-142323538D01*
X110891324Y-142299054D01*
X110810822Y-142174617D01*
X110810820Y-142174614D01*
X110808014Y-142170277D01*
X110657670Y-142005051D01*
X110653619Y-142001852D01*
X110653615Y-142001848D01*
X110486414Y-141869800D01*
X110486410Y-141869798D01*
X110482359Y-141866598D01*
X110286789Y-141758638D01*
X110281920Y-141756914D01*
X110281916Y-141756912D01*
X110081087Y-141685795D01*
X110081083Y-141685794D01*
X110076212Y-141684069D01*
X110071119Y-141683162D01*
X110071116Y-141683161D01*
X109861373Y-141645800D01*
X109861367Y-141645799D01*
X109856284Y-141644894D01*
X109782452Y-141643992D01*
X109638081Y-141642228D01*
X109638079Y-141642228D01*
X109632911Y-141642165D01*
X109412091Y-141675955D01*
X109199756Y-141745357D01*
X109001607Y-141848507D01*
X108997474Y-141851610D01*
X108997471Y-141851612D01*
X108851495Y-141961214D01*
X108822965Y-141982635D01*
X108791905Y-142015137D01*
X108693511Y-142118101D01*
X108668629Y-142144138D01*
X108561201Y-142301621D01*
X108506293Y-142346621D01*
X108435768Y-142354792D01*
X108372021Y-142323538D01*
X108351324Y-142299054D01*
X108270822Y-142174617D01*
X108270820Y-142174614D01*
X108268014Y-142170277D01*
X108117670Y-142005051D01*
X108113619Y-142001852D01*
X108113615Y-142001848D01*
X107946414Y-141869800D01*
X107946410Y-141869798D01*
X107942359Y-141866598D01*
X107746789Y-141758638D01*
X107741920Y-141756914D01*
X107741916Y-141756912D01*
X107541087Y-141685795D01*
X107541083Y-141685794D01*
X107536212Y-141684069D01*
X107531119Y-141683162D01*
X107531116Y-141683161D01*
X107321373Y-141645800D01*
X107321367Y-141645799D01*
X107316284Y-141644894D01*
X107242452Y-141643992D01*
X107098081Y-141642228D01*
X107098079Y-141642228D01*
X107092911Y-141642165D01*
X106872091Y-141675955D01*
X106659756Y-141745357D01*
X106461607Y-141848507D01*
X106457474Y-141851610D01*
X106457471Y-141851612D01*
X106311495Y-141961214D01*
X106282965Y-141982635D01*
X106251905Y-142015137D01*
X106153511Y-142118101D01*
X106128629Y-142144138D01*
X106021201Y-142301621D01*
X105966293Y-142346621D01*
X105895768Y-142354792D01*
X105832021Y-142323538D01*
X105811324Y-142299054D01*
X105730822Y-142174617D01*
X105730820Y-142174614D01*
X105728014Y-142170277D01*
X105577670Y-142005051D01*
X105573619Y-142001852D01*
X105573615Y-142001848D01*
X105406414Y-141869800D01*
X105406410Y-141869798D01*
X105402359Y-141866598D01*
X105206789Y-141758638D01*
X105201920Y-141756914D01*
X105201916Y-141756912D01*
X105001087Y-141685795D01*
X105001083Y-141685794D01*
X104996212Y-141684069D01*
X104991119Y-141683162D01*
X104991116Y-141683161D01*
X104781373Y-141645800D01*
X104781367Y-141645799D01*
X104776284Y-141644894D01*
X104702452Y-141643992D01*
X104558081Y-141642228D01*
X104558079Y-141642228D01*
X104552911Y-141642165D01*
X104332091Y-141675955D01*
X104119756Y-141745357D01*
X103921607Y-141848507D01*
X103917474Y-141851610D01*
X103917471Y-141851612D01*
X103771495Y-141961214D01*
X103742965Y-141982635D01*
X103711905Y-142015137D01*
X103613511Y-142118101D01*
X103588629Y-142144138D01*
X103481201Y-142301621D01*
X103426293Y-142346621D01*
X103355768Y-142354792D01*
X103292021Y-142323538D01*
X103271324Y-142299054D01*
X103190822Y-142174617D01*
X103190820Y-142174614D01*
X103188014Y-142170277D01*
X103037670Y-142005051D01*
X103033619Y-142001852D01*
X103033615Y-142001848D01*
X102866414Y-141869800D01*
X102866410Y-141869798D01*
X102862359Y-141866598D01*
X102666789Y-141758638D01*
X102661920Y-141756914D01*
X102661916Y-141756912D01*
X102461087Y-141685795D01*
X102461083Y-141685794D01*
X102456212Y-141684069D01*
X102451119Y-141683162D01*
X102451116Y-141683161D01*
X102241373Y-141645800D01*
X102241367Y-141645799D01*
X102236284Y-141644894D01*
X102162452Y-141643992D01*
X102018081Y-141642228D01*
X102018079Y-141642228D01*
X102012911Y-141642165D01*
X101792091Y-141675955D01*
X101579756Y-141745357D01*
X101381607Y-141848507D01*
X101377474Y-141851610D01*
X101377471Y-141851612D01*
X101231495Y-141961214D01*
X101202965Y-141982635D01*
X101171905Y-142015137D01*
X101073511Y-142118101D01*
X101048629Y-142144138D01*
X100941201Y-142301621D01*
X100886293Y-142346621D01*
X100815768Y-142354792D01*
X100752021Y-142323538D01*
X100731324Y-142299054D01*
X100650822Y-142174617D01*
X100650820Y-142174614D01*
X100648014Y-142170277D01*
X100497670Y-142005051D01*
X100493619Y-142001852D01*
X100493615Y-142001848D01*
X100326414Y-141869800D01*
X100326410Y-141869798D01*
X100322359Y-141866598D01*
X100126789Y-141758638D01*
X100121920Y-141756914D01*
X100121916Y-141756912D01*
X99921087Y-141685795D01*
X99921083Y-141685794D01*
X99916212Y-141684069D01*
X99911119Y-141683162D01*
X99911116Y-141683161D01*
X99701373Y-141645800D01*
X99701367Y-141645799D01*
X99696284Y-141644894D01*
X99622452Y-141643992D01*
X99478081Y-141642228D01*
X99478079Y-141642228D01*
X99472911Y-141642165D01*
X99252091Y-141675955D01*
X99039756Y-141745357D01*
X98841607Y-141848507D01*
X98837474Y-141851610D01*
X98837471Y-141851612D01*
X98691495Y-141961214D01*
X98662965Y-141982635D01*
X98631905Y-142015137D01*
X98533511Y-142118101D01*
X98508629Y-142144138D01*
X98401201Y-142301621D01*
X98346293Y-142346621D01*
X98275768Y-142354792D01*
X98212021Y-142323538D01*
X98191324Y-142299054D01*
X98110822Y-142174617D01*
X98110820Y-142174614D01*
X98108014Y-142170277D01*
X97957670Y-142005051D01*
X97953619Y-142001852D01*
X97953615Y-142001848D01*
X97786414Y-141869800D01*
X97786410Y-141869798D01*
X97782359Y-141866598D01*
X97586789Y-141758638D01*
X97581920Y-141756914D01*
X97581916Y-141756912D01*
X97381087Y-141685795D01*
X97381083Y-141685794D01*
X97376212Y-141684069D01*
X97371119Y-141683162D01*
X97371116Y-141683161D01*
X97161373Y-141645800D01*
X97161367Y-141645799D01*
X97156284Y-141644894D01*
X97082452Y-141643992D01*
X96938081Y-141642228D01*
X96938079Y-141642228D01*
X96932911Y-141642165D01*
X96712091Y-141675955D01*
X96499756Y-141745357D01*
X96301607Y-141848507D01*
X96297474Y-141851610D01*
X96297471Y-141851612D01*
X96151495Y-141961214D01*
X96122965Y-141982635D01*
X96066537Y-142041684D01*
X96042283Y-142067064D01*
X95980759Y-142102494D01*
X95909846Y-142099037D01*
X95852060Y-142057791D01*
X95833207Y-142024243D01*
X95791767Y-141913703D01*
X95788615Y-141905295D01*
X95701261Y-141788739D01*
X95584705Y-141701385D01*
X95448316Y-141650255D01*
X95386134Y-141643500D01*
X93589866Y-141643500D01*
X93527684Y-141650255D01*
X93391295Y-141701385D01*
X93274739Y-141788739D01*
X93187385Y-141905295D01*
X93136255Y-142041684D01*
X93129500Y-142103866D01*
X93129500Y-143900134D01*
X87884000Y-143900134D01*
X87884000Y-38180215D01*
X87904002Y-38112094D01*
X87957658Y-38065601D01*
X88006501Y-38054264D01*
X88109596Y-38051400D01*
X88428001Y-38042556D01*
X88496651Y-38060658D01*
X88544616Y-38113002D01*
X88557500Y-38168507D01*
X88557500Y-39760134D01*
X88564255Y-39822316D01*
X88615385Y-39958705D01*
X88702739Y-40075261D01*
X88819295Y-40162615D01*
X88955684Y-40213745D01*
X89017866Y-40220500D01*
X89210995Y-40220500D01*
X89279116Y-40240502D01*
X89325609Y-40294158D01*
X89335713Y-40364432D01*
X89328148Y-40392881D01*
X89326124Y-40397993D01*
X89322305Y-40404940D01*
X89282500Y-40559970D01*
X89282500Y-41661233D01*
X89281973Y-41672416D01*
X89280298Y-41679909D01*
X89280547Y-41687835D01*
X89280547Y-41687836D01*
X89282438Y-41747986D01*
X89282500Y-41751945D01*
X89282500Y-41779856D01*
X89282997Y-41783790D01*
X89282997Y-41783791D01*
X89283005Y-41783856D01*
X89283938Y-41795693D01*
X89285327Y-41839889D01*
X89290978Y-41859339D01*
X89294987Y-41878700D01*
X89297526Y-41898797D01*
X89300445Y-41906168D01*
X89300445Y-41906170D01*
X89313804Y-41939912D01*
X89317649Y-41951142D01*
X89329982Y-41993593D01*
X89334015Y-42000412D01*
X89334017Y-42000417D01*
X89340293Y-42011028D01*
X89348988Y-42028776D01*
X89356448Y-42047617D01*
X89361110Y-42054033D01*
X89361110Y-42054034D01*
X89382436Y-42083387D01*
X89388952Y-42093307D01*
X89411458Y-42131362D01*
X89425779Y-42145683D01*
X89438619Y-42160716D01*
X89450528Y-42177107D01*
X89456634Y-42182158D01*
X89484605Y-42205298D01*
X89493384Y-42213288D01*
X109648343Y-62368247D01*
X109655887Y-62376537D01*
X109660000Y-62383018D01*
X109665777Y-62388443D01*
X109709667Y-62429658D01*
X109712509Y-62432413D01*
X109732231Y-62452135D01*
X109735355Y-62454558D01*
X109735359Y-62454562D01*
X109735424Y-62454612D01*
X109744445Y-62462317D01*
X109776679Y-62492586D01*
X109783627Y-62496405D01*
X109783629Y-62496407D01*
X109794432Y-62502346D01*
X109810959Y-62513202D01*
X109820698Y-62520757D01*
X109820700Y-62520758D01*
X109826960Y-62525614D01*
X109867540Y-62543174D01*
X109878188Y-62548391D01*
X109916940Y-62569695D01*
X109924616Y-62571666D01*
X109924619Y-62571667D01*
X109936562Y-62574733D01*
X109955267Y-62581137D01*
X109973855Y-62589181D01*
X109981678Y-62590420D01*
X109981688Y-62590423D01*
X110017524Y-62596099D01*
X110029144Y-62598505D01*
X110064289Y-62607528D01*
X110071970Y-62609500D01*
X110092224Y-62609500D01*
X110111934Y-62611051D01*
X110131943Y-62614220D01*
X110139835Y-62613474D01*
X110175961Y-62610059D01*
X110187819Y-62609500D01*
X135435800Y-62609500D01*
X135503921Y-62629502D01*
X135523147Y-62645843D01*
X135523420Y-62645540D01*
X135528332Y-62649963D01*
X135532747Y-62654866D01*
X135687248Y-62767118D01*
X135693276Y-62769802D01*
X135693278Y-62769803D01*
X135811416Y-62822401D01*
X135861712Y-62844794D01*
X135955268Y-62864680D01*
X135986191Y-62871253D01*
X136048664Y-62904982D01*
X136082986Y-62967131D01*
X136078258Y-63037970D01*
X136035982Y-63095008D01*
X135969581Y-63120135D01*
X135959994Y-63120500D01*
X107210594Y-63120500D01*
X107142473Y-63100498D01*
X107121499Y-63083595D01*
X92835405Y-48797500D01*
X92801379Y-48735188D01*
X92798500Y-48708405D01*
X92798500Y-47399866D01*
X92791745Y-47337684D01*
X92740615Y-47201295D01*
X92653261Y-47084739D01*
X92536705Y-46997385D01*
X92400316Y-46946255D01*
X92338134Y-46939500D01*
X90541866Y-46939500D01*
X90479684Y-46946255D01*
X90343295Y-46997385D01*
X90226739Y-47084739D01*
X90139385Y-47201295D01*
X90088255Y-47337684D01*
X90081500Y-47399866D01*
X90081500Y-49196134D01*
X90088255Y-49258316D01*
X90139385Y-49394705D01*
X90226739Y-49511261D01*
X90343295Y-49598615D01*
X90351704Y-49601767D01*
X90351705Y-49601768D01*
X90460451Y-49642535D01*
X90517216Y-49685176D01*
X90541916Y-49751738D01*
X90526709Y-49821087D01*
X90507316Y-49847568D01*
X90391964Y-49968277D01*
X90380629Y-49980138D01*
X90254743Y-50164680D01*
X90160688Y-50367305D01*
X90100989Y-50582570D01*
X90077251Y-50804695D01*
X90077548Y-50809848D01*
X90077548Y-50809851D01*
X90083011Y-50904590D01*
X90090110Y-51027715D01*
X90091247Y-51032761D01*
X90091248Y-51032767D01*
X90104828Y-51093023D01*
X90139222Y-51245639D01*
X90223266Y-51452616D01*
X90234294Y-51470612D01*
X90316701Y-51605088D01*
X90339987Y-51643088D01*
X90486250Y-51811938D01*
X90658126Y-51954632D01*
X90685959Y-51970896D01*
X90731445Y-51997476D01*
X90780169Y-52049114D01*
X90793240Y-52118897D01*
X90766509Y-52184669D01*
X90726055Y-52218027D01*
X90713607Y-52224507D01*
X90709474Y-52227610D01*
X90709471Y-52227612D01*
X90541259Y-52353909D01*
X90534965Y-52358635D01*
X90531393Y-52362373D01*
X90391964Y-52508277D01*
X90380629Y-52520138D01*
X90254743Y-52704680D01*
X90160688Y-52907305D01*
X90100989Y-53122570D01*
X90077251Y-53344695D01*
X90077548Y-53349848D01*
X90077548Y-53349851D01*
X90083011Y-53444590D01*
X90090110Y-53567715D01*
X90091247Y-53572761D01*
X90091248Y-53572767D01*
X90104828Y-53633023D01*
X90139222Y-53785639D01*
X90223266Y-53992616D01*
X90225965Y-53997020D01*
X90331421Y-54169109D01*
X90339987Y-54183088D01*
X90486250Y-54351938D01*
X90658126Y-54494632D01*
X90685959Y-54510896D01*
X90731445Y-54537476D01*
X90780169Y-54589114D01*
X90793240Y-54658897D01*
X90766509Y-54724669D01*
X90726055Y-54758027D01*
X90713607Y-54764507D01*
X90709474Y-54767610D01*
X90709471Y-54767612D01*
X90539100Y-54895530D01*
X90534965Y-54898635D01*
X90531393Y-54902373D01*
X90391964Y-55048277D01*
X90380629Y-55060138D01*
X90377715Y-55064410D01*
X90377714Y-55064411D01*
X90321414Y-55146944D01*
X90254743Y-55244680D01*
X90160688Y-55447305D01*
X90100989Y-55662570D01*
X90077251Y-55884695D01*
X90077548Y-55889848D01*
X90077548Y-55889851D01*
X90082940Y-55983368D01*
X90090110Y-56107715D01*
X90091247Y-56112761D01*
X90091248Y-56112767D01*
X90104828Y-56173023D01*
X90139222Y-56325639D01*
X90177458Y-56419803D01*
X90220256Y-56525202D01*
X90223266Y-56532616D01*
X90225965Y-56537020D01*
X90316701Y-56685088D01*
X90339987Y-56723088D01*
X90486250Y-56891938D01*
X90658126Y-57034632D01*
X90685959Y-57050896D01*
X90731445Y-57077476D01*
X90780169Y-57129114D01*
X90793240Y-57198897D01*
X90766509Y-57264669D01*
X90726055Y-57298027D01*
X90713607Y-57304507D01*
X90709474Y-57307610D01*
X90709471Y-57307612D01*
X90539100Y-57435530D01*
X90534965Y-57438635D01*
X90531393Y-57442373D01*
X90391964Y-57588277D01*
X90380629Y-57600138D01*
X90254743Y-57784680D01*
X90160688Y-57987305D01*
X90100989Y-58202570D01*
X90077251Y-58424695D01*
X90077548Y-58429848D01*
X90077548Y-58429851D01*
X90084891Y-58557202D01*
X90090110Y-58647715D01*
X90091247Y-58652761D01*
X90091248Y-58652767D01*
X90104828Y-58713023D01*
X90139222Y-58865639D01*
X90223266Y-59072616D01*
X90225965Y-59077020D01*
X90316701Y-59225088D01*
X90339987Y-59263088D01*
X90486250Y-59431938D01*
X90658126Y-59574632D01*
X90682788Y-59589043D01*
X90731445Y-59617476D01*
X90780169Y-59669114D01*
X90793240Y-59738897D01*
X90766509Y-59804669D01*
X90726055Y-59838027D01*
X90713607Y-59844507D01*
X90709474Y-59847610D01*
X90709471Y-59847612D01*
X90539100Y-59975530D01*
X90534965Y-59978635D01*
X90531393Y-59982373D01*
X90391964Y-60128277D01*
X90380629Y-60140138D01*
X90377715Y-60144410D01*
X90377714Y-60144411D01*
X90321414Y-60226944D01*
X90254743Y-60324680D01*
X90160688Y-60527305D01*
X90100989Y-60742570D01*
X90077251Y-60964695D01*
X90077548Y-60969848D01*
X90077548Y-60969851D01*
X90083011Y-61064590D01*
X90090110Y-61187715D01*
X90091247Y-61192761D01*
X90091248Y-61192767D01*
X90104828Y-61253023D01*
X90139222Y-61405639D01*
X90223266Y-61612616D01*
X90225965Y-61617020D01*
X90316701Y-61765088D01*
X90339987Y-61803088D01*
X90486250Y-61971938D01*
X90658126Y-62114632D01*
X90685959Y-62130896D01*
X90731445Y-62157476D01*
X90780169Y-62209114D01*
X90793240Y-62278897D01*
X90766509Y-62344669D01*
X90726055Y-62378027D01*
X90713607Y-62384507D01*
X90709474Y-62387610D01*
X90709471Y-62387612D01*
X90542201Y-62513202D01*
X90534965Y-62518635D01*
X90489821Y-62565875D01*
X90391964Y-62668277D01*
X90380629Y-62680138D01*
X90254743Y-62864680D01*
X90207715Y-62965993D01*
X90170187Y-63046842D01*
X90160688Y-63067305D01*
X90100989Y-63282570D01*
X90077251Y-63504695D01*
X90077548Y-63509848D01*
X90077548Y-63509851D01*
X90083011Y-63604590D01*
X90090110Y-63727715D01*
X90091247Y-63732761D01*
X90091248Y-63732767D01*
X90111119Y-63820939D01*
X90139222Y-63945639D01*
X90223266Y-64152616D01*
X90225965Y-64157020D01*
X90316701Y-64305088D01*
X90339987Y-64343088D01*
X90486250Y-64511938D01*
X90658126Y-64654632D01*
X90685959Y-64670896D01*
X90731445Y-64697476D01*
X90780169Y-64749114D01*
X90793240Y-64818897D01*
X90766509Y-64884669D01*
X90726055Y-64918027D01*
X90713607Y-64924507D01*
X90709474Y-64927610D01*
X90709471Y-64927612D01*
X90539100Y-65055530D01*
X90534965Y-65058635D01*
X90531393Y-65062373D01*
X90391964Y-65208277D01*
X90380629Y-65220138D01*
X90254743Y-65404680D01*
X90252564Y-65409375D01*
X90162935Y-65602465D01*
X90160688Y-65607305D01*
X90100989Y-65822570D01*
X90077251Y-66044695D01*
X90077548Y-66049848D01*
X90077548Y-66049851D01*
X90082845Y-66141718D01*
X90090110Y-66267715D01*
X90091247Y-66272761D01*
X90091248Y-66272767D01*
X90104828Y-66333023D01*
X90139222Y-66485639D01*
X90223266Y-66692616D01*
X90225965Y-66697020D01*
X90316701Y-66845088D01*
X90339987Y-66883088D01*
X90486250Y-67051938D01*
X90658126Y-67194632D01*
X90851000Y-67307338D01*
X91059692Y-67387030D01*
X91064760Y-67388061D01*
X91064763Y-67388062D01*
X91172008Y-67409881D01*
X91278597Y-67431567D01*
X91283772Y-67431757D01*
X91283774Y-67431757D01*
X91496673Y-67439564D01*
X91496677Y-67439564D01*
X91501837Y-67439753D01*
X91506957Y-67439097D01*
X91506959Y-67439097D01*
X91718288Y-67412025D01*
X91718289Y-67412025D01*
X91723416Y-67411368D01*
X91728369Y-67409882D01*
X91728374Y-67409881D01*
X91772021Y-67396786D01*
X91843017Y-67396368D01*
X91894481Y-67425620D01*
X91914679Y-67444586D01*
X91921627Y-67448405D01*
X91921629Y-67448407D01*
X91932432Y-67454346D01*
X91948959Y-67465202D01*
X91958698Y-67472757D01*
X91958700Y-67472758D01*
X91964960Y-67477614D01*
X92005540Y-67495174D01*
X92016188Y-67500391D01*
X92040976Y-67514018D01*
X92054940Y-67521695D01*
X92062616Y-67523666D01*
X92062619Y-67523667D01*
X92074562Y-67526733D01*
X92093267Y-67533137D01*
X92111855Y-67541181D01*
X92119678Y-67542420D01*
X92119688Y-67542423D01*
X92155524Y-67548099D01*
X92167144Y-67550505D01*
X92194507Y-67557530D01*
X92209970Y-67561500D01*
X92230224Y-67561500D01*
X92249934Y-67563051D01*
X92269943Y-67566220D01*
X92277835Y-67565474D01*
X92296580Y-67563702D01*
X92313962Y-67562059D01*
X92325819Y-67561500D01*
X147331135Y-67561500D01*
X147342318Y-67562027D01*
X147349811Y-67563702D01*
X147357737Y-67563453D01*
X147357738Y-67563453D01*
X147417888Y-67561562D01*
X147421847Y-67561500D01*
X147449758Y-67561500D01*
X147453693Y-67561003D01*
X147453758Y-67560995D01*
X147465595Y-67560062D01*
X147497853Y-67559048D01*
X147501872Y-67558922D01*
X147509791Y-67558673D01*
X147529245Y-67553021D01*
X147548602Y-67549013D01*
X147560832Y-67547468D01*
X147560833Y-67547468D01*
X147568699Y-67546474D01*
X147576070Y-67543555D01*
X147576072Y-67543555D01*
X147609814Y-67530196D01*
X147621044Y-67526351D01*
X147655885Y-67516229D01*
X147655886Y-67516229D01*
X147663495Y-67514018D01*
X147670314Y-67509985D01*
X147670319Y-67509983D01*
X147680930Y-67503707D01*
X147698678Y-67495012D01*
X147717519Y-67487552D01*
X147753289Y-67461564D01*
X147763209Y-67455048D01*
X147794437Y-67436580D01*
X147794440Y-67436578D01*
X147801264Y-67432542D01*
X147815585Y-67418221D01*
X147830619Y-67405380D01*
X147840596Y-67398131D01*
X147847009Y-67393472D01*
X147875200Y-67359395D01*
X147883190Y-67350616D01*
X171588247Y-43645559D01*
X171596537Y-43638015D01*
X171603018Y-43633902D01*
X171649659Y-43584234D01*
X171652413Y-43581393D01*
X171672134Y-43561672D01*
X171674612Y-43558477D01*
X171682318Y-43549455D01*
X171707158Y-43523003D01*
X171712586Y-43517223D01*
X171722346Y-43499470D01*
X171733199Y-43482947D01*
X171740753Y-43473208D01*
X171745613Y-43466943D01*
X171763176Y-43426359D01*
X171768383Y-43415729D01*
X171789695Y-43376962D01*
X171791666Y-43369285D01*
X171791668Y-43369280D01*
X171794732Y-43357344D01*
X171801138Y-43338632D01*
X171806034Y-43327319D01*
X171809181Y-43320047D01*
X171816097Y-43276383D01*
X171818504Y-43264762D01*
X171827528Y-43229613D01*
X171827528Y-43229612D01*
X171829500Y-43221932D01*
X171829500Y-43201671D01*
X171831051Y-43181960D01*
X171832979Y-43169787D01*
X171834219Y-43161959D01*
X171830059Y-43117948D01*
X171829500Y-43106091D01*
X171829500Y-40600144D01*
X171814474Y-40481203D01*
X171755552Y-40332383D01*
X171750890Y-40325966D01*
X171719526Y-40282796D01*
X171695667Y-40215929D01*
X171711748Y-40146777D01*
X171766030Y-40095585D01*
X171889346Y-40035173D01*
X171893994Y-40032896D01*
X172075860Y-39903173D01*
X172234096Y-39745489D01*
X172364453Y-39564077D01*
X172365776Y-39565028D01*
X172412645Y-39521857D01*
X172482580Y-39509625D01*
X172548026Y-39537144D01*
X172575875Y-39568994D01*
X172635987Y-39667088D01*
X172782250Y-39835938D01*
X172954126Y-39978632D01*
X173147000Y-40091338D01*
X173151826Y-40093181D01*
X173156495Y-40095418D01*
X173155848Y-40096769D01*
X173206938Y-40135633D01*
X173231235Y-40202342D01*
X173215905Y-40271062D01*
X173142305Y-40404940D01*
X173102500Y-40559970D01*
X173102500Y-124519476D01*
X173082498Y-124587597D01*
X173070142Y-124603779D01*
X172996960Y-124685056D01*
X172901473Y-124850444D01*
X172842458Y-125032072D01*
X172841768Y-125038633D01*
X172841768Y-125038635D01*
X172837002Y-125083986D01*
X172822496Y-125222000D01*
X172842458Y-125411928D01*
X172901473Y-125593556D01*
X172996960Y-125758944D01*
X173124747Y-125900866D01*
X173279248Y-126013118D01*
X173285276Y-126015802D01*
X173285278Y-126015803D01*
X173447681Y-126088109D01*
X173453712Y-126090794D01*
X173547113Y-126110647D01*
X173634056Y-126129128D01*
X173634061Y-126129128D01*
X173640513Y-126130500D01*
X173831487Y-126130500D01*
X173837939Y-126129128D01*
X173837944Y-126129128D01*
X173924887Y-126110647D01*
X174018288Y-126090794D01*
X174024319Y-126088109D01*
X174186722Y-126015803D01*
X174186724Y-126015802D01*
X174192752Y-126013118D01*
X174347253Y-125900866D01*
X174475040Y-125758944D01*
X174570527Y-125593556D01*
X174629542Y-125411928D01*
X174649504Y-125222000D01*
X174634998Y-125083986D01*
X174630232Y-125038635D01*
X174630232Y-125038633D01*
X174629542Y-125032072D01*
X174570527Y-124850444D01*
X174475040Y-124685056D01*
X174401863Y-124603785D01*
X174371147Y-124539779D01*
X174369500Y-124519476D01*
X174369500Y-40600144D01*
X174354474Y-40481203D01*
X174295552Y-40332383D01*
X174290890Y-40325966D01*
X174259526Y-40282796D01*
X174235667Y-40215929D01*
X174251748Y-40146777D01*
X174306030Y-40095585D01*
X174429346Y-40035173D01*
X174433994Y-40032896D01*
X174615860Y-39903173D01*
X174774096Y-39745489D01*
X174904453Y-39564077D01*
X174905776Y-39565028D01*
X174952645Y-39521857D01*
X175022580Y-39509625D01*
X175088026Y-39537144D01*
X175115875Y-39568994D01*
X175175987Y-39667088D01*
X175322250Y-39835938D01*
X175494126Y-39978632D01*
X175687000Y-40091338D01*
X175691826Y-40093181D01*
X175696495Y-40095418D01*
X175695848Y-40096769D01*
X175746938Y-40135633D01*
X175771235Y-40202342D01*
X175755905Y-40271062D01*
X175682305Y-40404940D01*
X175642500Y-40559970D01*
X175642500Y-125789476D01*
X175622498Y-125857597D01*
X175610142Y-125873779D01*
X175536960Y-125955056D01*
X175441473Y-126120444D01*
X175382458Y-126302072D01*
X175362496Y-126492000D01*
X175382458Y-126681928D01*
X175441473Y-126863556D01*
X175444776Y-126869278D01*
X175444777Y-126869279D01*
X175478686Y-126928010D01*
X175536960Y-127028944D01*
X175664747Y-127170866D01*
X175819248Y-127283118D01*
X175825276Y-127285802D01*
X175825278Y-127285803D01*
X175897756Y-127318072D01*
X175993712Y-127360794D01*
X176087113Y-127380647D01*
X176174056Y-127399128D01*
X176174061Y-127399128D01*
X176180513Y-127400500D01*
X176371487Y-127400500D01*
X176377939Y-127399128D01*
X176377944Y-127399128D01*
X176464887Y-127380647D01*
X176558288Y-127360794D01*
X176654244Y-127318072D01*
X176726722Y-127285803D01*
X176726724Y-127285802D01*
X176732752Y-127283118D01*
X176887253Y-127170866D01*
X177015040Y-127028944D01*
X177073314Y-126928010D01*
X177107223Y-126869279D01*
X177107224Y-126869278D01*
X177110527Y-126863556D01*
X177169542Y-126681928D01*
X177189504Y-126492000D01*
X177169542Y-126302072D01*
X177110527Y-126120444D01*
X177015040Y-125955056D01*
X176941863Y-125873785D01*
X176911147Y-125809779D01*
X176909500Y-125789476D01*
X176909500Y-40600144D01*
X176894474Y-40481203D01*
X176835552Y-40332383D01*
X176830890Y-40325966D01*
X176799526Y-40282796D01*
X176775667Y-40215929D01*
X176791748Y-40146777D01*
X176846030Y-40095585D01*
X176969346Y-40035173D01*
X176973994Y-40032896D01*
X177155860Y-39903173D01*
X177314096Y-39745489D01*
X177444453Y-39564077D01*
X177445776Y-39565028D01*
X177492645Y-39521857D01*
X177562580Y-39509625D01*
X177628026Y-39537144D01*
X177655875Y-39568994D01*
X177715987Y-39667088D01*
X177862250Y-39835938D01*
X178034126Y-39978632D01*
X178227000Y-40091338D01*
X178231826Y-40093181D01*
X178236495Y-40095418D01*
X178235848Y-40096769D01*
X178286938Y-40135633D01*
X178311235Y-40202342D01*
X178295905Y-40271062D01*
X178222305Y-40404940D01*
X178182500Y-40559970D01*
X178182500Y-126805476D01*
X178162498Y-126873597D01*
X178150142Y-126889779D01*
X178076960Y-126971056D01*
X177981473Y-127136444D01*
X177922458Y-127318072D01*
X177921768Y-127324633D01*
X177921768Y-127324635D01*
X177903186Y-127501435D01*
X177902496Y-127508000D01*
X177922458Y-127697928D01*
X177981473Y-127879556D01*
X178076960Y-128044944D01*
X178081378Y-128049851D01*
X178081379Y-128049852D01*
X178200325Y-128181955D01*
X178204747Y-128186866D01*
X178359248Y-128299118D01*
X178365276Y-128301802D01*
X178365278Y-128301803D01*
X178527681Y-128374109D01*
X178533712Y-128376794D01*
X178627113Y-128396647D01*
X178714056Y-128415128D01*
X178714061Y-128415128D01*
X178720513Y-128416500D01*
X178911487Y-128416500D01*
X178917939Y-128415128D01*
X178917944Y-128415128D01*
X179004887Y-128396647D01*
X179098288Y-128376794D01*
X179104319Y-128374109D01*
X179266722Y-128301803D01*
X179266724Y-128301802D01*
X179272752Y-128299118D01*
X179427253Y-128186866D01*
X179431675Y-128181955D01*
X179550621Y-128049852D01*
X179550622Y-128049851D01*
X179555040Y-128044944D01*
X179650527Y-127879556D01*
X179709542Y-127697928D01*
X179729504Y-127508000D01*
X179728814Y-127501435D01*
X179710232Y-127324635D01*
X179710232Y-127324633D01*
X179709542Y-127318072D01*
X179650527Y-127136444D01*
X179555040Y-126971056D01*
X179481863Y-126889785D01*
X179451147Y-126825779D01*
X179449500Y-126805476D01*
X179449500Y-40600144D01*
X179434474Y-40481203D01*
X179375552Y-40332383D01*
X179370890Y-40325966D01*
X179339526Y-40282796D01*
X179315667Y-40215929D01*
X179331748Y-40146777D01*
X179386030Y-40095585D01*
X179509346Y-40035173D01*
X179513994Y-40032896D01*
X179695860Y-39903173D01*
X179854096Y-39745489D01*
X179984453Y-39564077D01*
X179985776Y-39565028D01*
X180032645Y-39521857D01*
X180102580Y-39509625D01*
X180168026Y-39537144D01*
X180195875Y-39568994D01*
X180255987Y-39667088D01*
X180402250Y-39835938D01*
X180574126Y-39978632D01*
X180767000Y-40091338D01*
X180771826Y-40093181D01*
X180776495Y-40095418D01*
X180775848Y-40096769D01*
X180826938Y-40135633D01*
X180851235Y-40202342D01*
X180835905Y-40271062D01*
X180762305Y-40404940D01*
X180722500Y-40559970D01*
X180722500Y-127821474D01*
X180702498Y-127889595D01*
X180690142Y-127905777D01*
X180616960Y-127987054D01*
X180521473Y-128152442D01*
X180462458Y-128334070D01*
X180461768Y-128340631D01*
X180461768Y-128340633D01*
X180453794Y-128416500D01*
X180442496Y-128523998D01*
X180462458Y-128713926D01*
X180521473Y-128895554D01*
X180616960Y-129060942D01*
X180744747Y-129202864D01*
X180899248Y-129315116D01*
X180905276Y-129317800D01*
X180905278Y-129317801D01*
X181067681Y-129390107D01*
X181073712Y-129392792D01*
X181167112Y-129412645D01*
X181254056Y-129431126D01*
X181254061Y-129431126D01*
X181260513Y-129432498D01*
X181451487Y-129432498D01*
X181457939Y-129431126D01*
X181457944Y-129431126D01*
X181544888Y-129412645D01*
X181638288Y-129392792D01*
X181644319Y-129390107D01*
X181806722Y-129317801D01*
X181806724Y-129317800D01*
X181812752Y-129315116D01*
X181967253Y-129202864D01*
X181980832Y-129187783D01*
X182041276Y-129150544D01*
X182112260Y-129151896D01*
X182171245Y-129191409D01*
X182199503Y-129256540D01*
X182200467Y-129272094D01*
X182200467Y-130361476D01*
X182180465Y-130429597D01*
X182168109Y-130445779D01*
X182094927Y-130527056D01*
X181999440Y-130692444D01*
X181940425Y-130874072D01*
X181920463Y-131064000D01*
X181940425Y-131253928D01*
X181999440Y-131435556D01*
X182094927Y-131600944D01*
X182222714Y-131742866D01*
X182377215Y-131855118D01*
X182383243Y-131857802D01*
X182383245Y-131857803D01*
X182545648Y-131930109D01*
X182551679Y-131932794D01*
X182645080Y-131952647D01*
X182732023Y-131971128D01*
X182732028Y-131971128D01*
X182738480Y-131972500D01*
X182929454Y-131972500D01*
X182935906Y-131971128D01*
X182935911Y-131971128D01*
X183022854Y-131952647D01*
X183116255Y-131932794D01*
X183122286Y-131930109D01*
X183284689Y-131857803D01*
X183284691Y-131857802D01*
X183290719Y-131855118D01*
X183445220Y-131742866D01*
X183573007Y-131600944D01*
X183668494Y-131435556D01*
X183727509Y-131253928D01*
X183747471Y-131064000D01*
X183727509Y-130874072D01*
X183668494Y-130692444D01*
X183573007Y-130527056D01*
X183499830Y-130445785D01*
X183469114Y-130381779D01*
X183467467Y-130361476D01*
X183467467Y-125582627D01*
X183487469Y-125514506D01*
X183504372Y-125493532D01*
X184288247Y-124709657D01*
X184296537Y-124702113D01*
X184303018Y-124698000D01*
X184349659Y-124648332D01*
X184352413Y-124645491D01*
X184372134Y-124625770D01*
X184374612Y-124622575D01*
X184382318Y-124613553D01*
X184407158Y-124587101D01*
X184412586Y-124581321D01*
X184422346Y-124563568D01*
X184433199Y-124547045D01*
X184440753Y-124537306D01*
X184445613Y-124531041D01*
X184463176Y-124490457D01*
X184468383Y-124479827D01*
X184489695Y-124441060D01*
X184491666Y-124433383D01*
X184491668Y-124433378D01*
X184494732Y-124421442D01*
X184501138Y-124402730D01*
X184506034Y-124391417D01*
X184509181Y-124384145D01*
X184516097Y-124340481D01*
X184518504Y-124328860D01*
X184527528Y-124293711D01*
X184527528Y-124293710D01*
X184529500Y-124286030D01*
X184529500Y-124265769D01*
X184531051Y-124246058D01*
X184532979Y-124233885D01*
X184534219Y-124226057D01*
X184530059Y-124182046D01*
X184529500Y-124170189D01*
X184529500Y-68546695D01*
X186343251Y-68546695D01*
X186343548Y-68551848D01*
X186343548Y-68551851D01*
X186349011Y-68646590D01*
X186356110Y-68769715D01*
X186357247Y-68774761D01*
X186357248Y-68774767D01*
X186377119Y-68862939D01*
X186405222Y-68987639D01*
X186489266Y-69194616D01*
X186605987Y-69385088D01*
X186752250Y-69553938D01*
X186924126Y-69696632D01*
X187117000Y-69809338D01*
X187325692Y-69889030D01*
X187330760Y-69890061D01*
X187330763Y-69890062D01*
X187438017Y-69911883D01*
X187544597Y-69933567D01*
X187549772Y-69933757D01*
X187549774Y-69933757D01*
X187762673Y-69941564D01*
X187762677Y-69941564D01*
X187767837Y-69941753D01*
X187772957Y-69941097D01*
X187772959Y-69941097D01*
X187984288Y-69914025D01*
X187984289Y-69914025D01*
X187989416Y-69913368D01*
X187994366Y-69911883D01*
X188198429Y-69850661D01*
X188198434Y-69850659D01*
X188203384Y-69849174D01*
X188403994Y-69750896D01*
X188585860Y-69621173D01*
X188744096Y-69463489D01*
X188803594Y-69380689D01*
X188871435Y-69286277D01*
X188874453Y-69282077D01*
X188973430Y-69081811D01*
X189038370Y-68868069D01*
X189067529Y-68646590D01*
X189069156Y-68580000D01*
X189050852Y-68357361D01*
X188996431Y-68140702D01*
X188907354Y-67935840D01*
X188786014Y-67748277D01*
X188635670Y-67583051D01*
X188631619Y-67579852D01*
X188631615Y-67579848D01*
X188464414Y-67447800D01*
X188464410Y-67447798D01*
X188460359Y-67444598D01*
X188419053Y-67421796D01*
X188369084Y-67371364D01*
X188354312Y-67301921D01*
X188379428Y-67235516D01*
X188406780Y-67208909D01*
X188450603Y-67177650D01*
X188585860Y-67081173D01*
X188615198Y-67051938D01*
X188740435Y-66927137D01*
X188744096Y-66923489D01*
X188803594Y-66840689D01*
X188871435Y-66746277D01*
X188874453Y-66742077D01*
X188896722Y-66697020D01*
X188971136Y-66546453D01*
X188971137Y-66546451D01*
X188973430Y-66541811D01*
X189038370Y-66328069D01*
X189067529Y-66106590D01*
X189068228Y-66078000D01*
X189069074Y-66043365D01*
X189069074Y-66043361D01*
X189069156Y-66040000D01*
X189050852Y-65817361D01*
X188996431Y-65600702D01*
X188907354Y-65395840D01*
X188796452Y-65224411D01*
X188788822Y-65212617D01*
X188788820Y-65212614D01*
X188786014Y-65208277D01*
X188635670Y-65043051D01*
X188631619Y-65039852D01*
X188631615Y-65039848D01*
X188464414Y-64907800D01*
X188464410Y-64907798D01*
X188460359Y-64904598D01*
X188419053Y-64881796D01*
X188369084Y-64831364D01*
X188354312Y-64761921D01*
X188379428Y-64695516D01*
X188406780Y-64668909D01*
X188450603Y-64637650D01*
X188585860Y-64541173D01*
X188615198Y-64511938D01*
X188678328Y-64449028D01*
X188744096Y-64383489D01*
X188803594Y-64300689D01*
X188871435Y-64206277D01*
X188874453Y-64202077D01*
X188896722Y-64157020D01*
X188971136Y-64006453D01*
X188971137Y-64006451D01*
X188973430Y-64001811D01*
X189038370Y-63788069D01*
X189067529Y-63566590D01*
X189067934Y-63550008D01*
X189069074Y-63503365D01*
X189069074Y-63503361D01*
X189069156Y-63500000D01*
X189050852Y-63277361D01*
X188996431Y-63060702D01*
X188907354Y-62855840D01*
X188796452Y-62684411D01*
X188788822Y-62672617D01*
X188788820Y-62672614D01*
X188786014Y-62668277D01*
X188635670Y-62503051D01*
X188631619Y-62499852D01*
X188631615Y-62499848D01*
X188464414Y-62367800D01*
X188464410Y-62367798D01*
X188460359Y-62364598D01*
X188419053Y-62341796D01*
X188369084Y-62291364D01*
X188354312Y-62221921D01*
X188379428Y-62155516D01*
X188406780Y-62128909D01*
X188475195Y-62080109D01*
X188585860Y-62001173D01*
X188615198Y-61971938D01*
X188667209Y-61920107D01*
X188744096Y-61843489D01*
X188803594Y-61760689D01*
X188871435Y-61666277D01*
X188874453Y-61662077D01*
X188896722Y-61617020D01*
X188971136Y-61466453D01*
X188971137Y-61466451D01*
X188973430Y-61461811D01*
X189028383Y-61280939D01*
X189036865Y-61253023D01*
X189036865Y-61253021D01*
X189038370Y-61248069D01*
X189067529Y-61026590D01*
X189068589Y-60983226D01*
X189069074Y-60963365D01*
X189069074Y-60963361D01*
X189069156Y-60960000D01*
X189050852Y-60737361D01*
X188996431Y-60520702D01*
X188907354Y-60315840D01*
X188849845Y-60226944D01*
X188788822Y-60132617D01*
X188788820Y-60132614D01*
X188786014Y-60128277D01*
X188635670Y-59963051D01*
X188631619Y-59959852D01*
X188631615Y-59959848D01*
X188464414Y-59827800D01*
X188464410Y-59827798D01*
X188460359Y-59824598D01*
X188419053Y-59801796D01*
X188369084Y-59751364D01*
X188354312Y-59681921D01*
X188379428Y-59615516D01*
X188406780Y-59588909D01*
X188475195Y-59540109D01*
X188585860Y-59461173D01*
X188615198Y-59431938D01*
X188667209Y-59380107D01*
X188744096Y-59303489D01*
X188803594Y-59220689D01*
X188871435Y-59126277D01*
X188874453Y-59122077D01*
X188896722Y-59077020D01*
X188971136Y-58926453D01*
X188971137Y-58926451D01*
X188973430Y-58921811D01*
X189038370Y-58708069D01*
X189067529Y-58486590D01*
X189068445Y-58449118D01*
X189069074Y-58423365D01*
X189069074Y-58423361D01*
X189069156Y-58420000D01*
X189050852Y-58197361D01*
X188996431Y-57980702D01*
X188907354Y-57775840D01*
X188796452Y-57604411D01*
X188788822Y-57592617D01*
X188788820Y-57592614D01*
X188786014Y-57588277D01*
X188635670Y-57423051D01*
X188631619Y-57419852D01*
X188631615Y-57419848D01*
X188464414Y-57287800D01*
X188464410Y-57287798D01*
X188460359Y-57284598D01*
X188419053Y-57261796D01*
X188369084Y-57211364D01*
X188354312Y-57141921D01*
X188379428Y-57075516D01*
X188406780Y-57048909D01*
X188476234Y-56999368D01*
X188585860Y-56921173D01*
X188615198Y-56891938D01*
X188740435Y-56767137D01*
X188744096Y-56763489D01*
X188803594Y-56680689D01*
X188871435Y-56586277D01*
X188874453Y-56582077D01*
X188881316Y-56568192D01*
X188971136Y-56386453D01*
X188971137Y-56386451D01*
X188973430Y-56381811D01*
X189038370Y-56168069D01*
X189067529Y-55946590D01*
X189068228Y-55918000D01*
X189069074Y-55883365D01*
X189069074Y-55883361D01*
X189069156Y-55880000D01*
X189050852Y-55657361D01*
X188996431Y-55440702D01*
X188907354Y-55235840D01*
X188849845Y-55146944D01*
X188788822Y-55052617D01*
X188788820Y-55052614D01*
X188786014Y-55048277D01*
X188635670Y-54883051D01*
X188631619Y-54879852D01*
X188631615Y-54879848D01*
X188464414Y-54747800D01*
X188464410Y-54747798D01*
X188460359Y-54744598D01*
X188419053Y-54721796D01*
X188369084Y-54671364D01*
X188354312Y-54601921D01*
X188379428Y-54535516D01*
X188406780Y-54508909D01*
X188450603Y-54477650D01*
X188585860Y-54381173D01*
X188615198Y-54351938D01*
X188709259Y-54258204D01*
X188744096Y-54223489D01*
X188803594Y-54140689D01*
X188871435Y-54046277D01*
X188874453Y-54042077D01*
X188896722Y-53997020D01*
X188971136Y-53846453D01*
X188971137Y-53846451D01*
X188973430Y-53841811D01*
X189038370Y-53628069D01*
X189067529Y-53406590D01*
X189068635Y-53361323D01*
X189069074Y-53343365D01*
X189069074Y-53343361D01*
X189069156Y-53340000D01*
X189050852Y-53117361D01*
X188996431Y-52900702D01*
X188907354Y-52695840D01*
X188796452Y-52524411D01*
X188788822Y-52512617D01*
X188788820Y-52512614D01*
X188786014Y-52508277D01*
X188635670Y-52343051D01*
X188631619Y-52339852D01*
X188631615Y-52339848D01*
X188464414Y-52207800D01*
X188464410Y-52207798D01*
X188460359Y-52204598D01*
X188419053Y-52181796D01*
X188369084Y-52131364D01*
X188354312Y-52061921D01*
X188379428Y-51995516D01*
X188406780Y-51968909D01*
X188450603Y-51937650D01*
X188585860Y-51841173D01*
X188615198Y-51811938D01*
X188740435Y-51687137D01*
X188744096Y-51683489D01*
X188803594Y-51600689D01*
X188871435Y-51506277D01*
X188874453Y-51502077D01*
X188896719Y-51457026D01*
X188971136Y-51306453D01*
X188971137Y-51306451D01*
X188973430Y-51301811D01*
X189038370Y-51088069D01*
X189067529Y-50866590D01*
X189068228Y-50838000D01*
X189069074Y-50803365D01*
X189069074Y-50803361D01*
X189069156Y-50800000D01*
X189050852Y-50577361D01*
X188996431Y-50360702D01*
X188907354Y-50155840D01*
X188796452Y-49984411D01*
X188788822Y-49972617D01*
X188788820Y-49972614D01*
X188786014Y-49968277D01*
X188782532Y-49964450D01*
X188638798Y-49806488D01*
X188607746Y-49742642D01*
X188616141Y-49672143D01*
X188661317Y-49617375D01*
X188687761Y-49603706D01*
X188794297Y-49563767D01*
X188802705Y-49560615D01*
X188919261Y-49473261D01*
X189006615Y-49356705D01*
X189057745Y-49220316D01*
X189064500Y-49158134D01*
X189064500Y-47361866D01*
X189057745Y-47299684D01*
X189006615Y-47163295D01*
X188919261Y-47046739D01*
X188802705Y-46959385D01*
X188666316Y-46908255D01*
X188604134Y-46901500D01*
X186807866Y-46901500D01*
X186745684Y-46908255D01*
X186609295Y-46959385D01*
X186492739Y-47046739D01*
X186405385Y-47163295D01*
X186354255Y-47299684D01*
X186347500Y-47361866D01*
X186347500Y-49158134D01*
X186354255Y-49220316D01*
X186405385Y-49356705D01*
X186492739Y-49473261D01*
X186609295Y-49560615D01*
X186617704Y-49563767D01*
X186617705Y-49563768D01*
X186726451Y-49604535D01*
X186783216Y-49647176D01*
X186807916Y-49713738D01*
X186792709Y-49783087D01*
X186773316Y-49809568D01*
X186646629Y-49942138D01*
X186520743Y-50126680D01*
X186426688Y-50329305D01*
X186366989Y-50544570D01*
X186343251Y-50766695D01*
X186343548Y-50771848D01*
X186343548Y-50771851D01*
X186349011Y-50866590D01*
X186356110Y-50989715D01*
X186357247Y-50994761D01*
X186357248Y-50994767D01*
X186365812Y-51032767D01*
X186405222Y-51207639D01*
X186489266Y-51414616D01*
X186605987Y-51605088D01*
X186752250Y-51773938D01*
X186924126Y-51916632D01*
X186993622Y-51957242D01*
X186997445Y-51959476D01*
X187046169Y-52011114D01*
X187059240Y-52080897D01*
X187032509Y-52146669D01*
X186992055Y-52180027D01*
X186979607Y-52186507D01*
X186975474Y-52189610D01*
X186975471Y-52189612D01*
X186805801Y-52317004D01*
X186800965Y-52320635D01*
X186646629Y-52482138D01*
X186520743Y-52666680D01*
X186426688Y-52869305D01*
X186366989Y-53084570D01*
X186343251Y-53306695D01*
X186343548Y-53311848D01*
X186343548Y-53311851D01*
X186348854Y-53403870D01*
X186356110Y-53529715D01*
X186357247Y-53534761D01*
X186357248Y-53534767D01*
X186365812Y-53572767D01*
X186405222Y-53747639D01*
X186443461Y-53841811D01*
X186483167Y-53939595D01*
X186489266Y-53954616D01*
X186605987Y-54145088D01*
X186752250Y-54313938D01*
X186924126Y-54456632D01*
X186993622Y-54497242D01*
X186997445Y-54499476D01*
X187046169Y-54551114D01*
X187059240Y-54620897D01*
X187032509Y-54686669D01*
X186992055Y-54720027D01*
X186979607Y-54726507D01*
X186975474Y-54729610D01*
X186975471Y-54729612D01*
X186828825Y-54839717D01*
X186800965Y-54860635D01*
X186797393Y-54864373D01*
X186675259Y-54992179D01*
X186646629Y-55022138D01*
X186520743Y-55206680D01*
X186505003Y-55240590D01*
X186432290Y-55397237D01*
X186426688Y-55409305D01*
X186366989Y-55624570D01*
X186343251Y-55846695D01*
X186343548Y-55851848D01*
X186343548Y-55851851D01*
X186351009Y-55981240D01*
X186356110Y-56069715D01*
X186357247Y-56074761D01*
X186357248Y-56074767D01*
X186377119Y-56162939D01*
X186405222Y-56287639D01*
X186489266Y-56494616D01*
X186502582Y-56516346D01*
X186571512Y-56628829D01*
X186605987Y-56685088D01*
X186752250Y-56853938D01*
X186924126Y-56996632D01*
X186993622Y-57037242D01*
X186997445Y-57039476D01*
X187046169Y-57091114D01*
X187059240Y-57160897D01*
X187032509Y-57226669D01*
X186992055Y-57260027D01*
X186979607Y-57266507D01*
X186975474Y-57269610D01*
X186975471Y-57269612D01*
X186805100Y-57397530D01*
X186800965Y-57400635D01*
X186767619Y-57435530D01*
X186657751Y-57550500D01*
X186646629Y-57562138D01*
X186520743Y-57746680D01*
X186426688Y-57949305D01*
X186366989Y-58164570D01*
X186343251Y-58386695D01*
X186343548Y-58391848D01*
X186343548Y-58391851D01*
X186353082Y-58557202D01*
X186356110Y-58609715D01*
X186357247Y-58614761D01*
X186357248Y-58614767D01*
X186365812Y-58652767D01*
X186405222Y-58827639D01*
X186443461Y-58921811D01*
X186483167Y-59019595D01*
X186489266Y-59034616D01*
X186509619Y-59067829D01*
X186597320Y-59210944D01*
X186605987Y-59225088D01*
X186752250Y-59393938D01*
X186924126Y-59536632D01*
X186993622Y-59577242D01*
X186997445Y-59579476D01*
X187046169Y-59631114D01*
X187059240Y-59700897D01*
X187032509Y-59766669D01*
X186992055Y-59800027D01*
X186979607Y-59806507D01*
X186975474Y-59809610D01*
X186975471Y-59809612D01*
X186805100Y-59937530D01*
X186800965Y-59940635D01*
X186646629Y-60102138D01*
X186520743Y-60286680D01*
X186505003Y-60320590D01*
X186432290Y-60477237D01*
X186426688Y-60489305D01*
X186366989Y-60704570D01*
X186343251Y-60926695D01*
X186343548Y-60931848D01*
X186343548Y-60931851D01*
X186349011Y-61026590D01*
X186356110Y-61149715D01*
X186357247Y-61154761D01*
X186357248Y-61154767D01*
X186377765Y-61245803D01*
X186405222Y-61367639D01*
X186489266Y-61574616D01*
X186495970Y-61585556D01*
X186597320Y-61750944D01*
X186605987Y-61765088D01*
X186752250Y-61933938D01*
X186924126Y-62076632D01*
X186993622Y-62117242D01*
X186997445Y-62119476D01*
X187046169Y-62171114D01*
X187059240Y-62240897D01*
X187032509Y-62306669D01*
X186992055Y-62340027D01*
X186979607Y-62346507D01*
X186975474Y-62349610D01*
X186975471Y-62349612D01*
X186825362Y-62462317D01*
X186800965Y-62480635D01*
X186646629Y-62642138D01*
X186643715Y-62646410D01*
X186643714Y-62646411D01*
X186635300Y-62658745D01*
X186520743Y-62826680D01*
X186505003Y-62860590D01*
X186451168Y-62976568D01*
X186426688Y-63029305D01*
X186366989Y-63244570D01*
X186343251Y-63466695D01*
X186343548Y-63471848D01*
X186343548Y-63471851D01*
X186349011Y-63566590D01*
X186356110Y-63689715D01*
X186357247Y-63694761D01*
X186357248Y-63694767D01*
X186365812Y-63732767D01*
X186405222Y-63907639D01*
X186489266Y-64114616D01*
X186491965Y-64119020D01*
X186574641Y-64253935D01*
X186605987Y-64305088D01*
X186752250Y-64473938D01*
X186924126Y-64616632D01*
X186993622Y-64657242D01*
X186997445Y-64659476D01*
X187046169Y-64711114D01*
X187059240Y-64780897D01*
X187032509Y-64846669D01*
X186992055Y-64880027D01*
X186979607Y-64886507D01*
X186975474Y-64889610D01*
X186975471Y-64889612D01*
X186924860Y-64927612D01*
X186800965Y-65020635D01*
X186646629Y-65182138D01*
X186520743Y-65366680D01*
X186426688Y-65569305D01*
X186366989Y-65784570D01*
X186343251Y-66006695D01*
X186343548Y-66011848D01*
X186343548Y-66011851D01*
X186349011Y-66106590D01*
X186356110Y-66229715D01*
X186357247Y-66234761D01*
X186357248Y-66234767D01*
X186365812Y-66272767D01*
X186405222Y-66447639D01*
X186489266Y-66654616D01*
X186605987Y-66845088D01*
X186752250Y-67013938D01*
X186924126Y-67156632D01*
X186993622Y-67197242D01*
X186997445Y-67199476D01*
X187046169Y-67251114D01*
X187059240Y-67320897D01*
X187032509Y-67386669D01*
X186992055Y-67420027D01*
X186979607Y-67426507D01*
X186975474Y-67429610D01*
X186975471Y-67429612D01*
X186805100Y-67557530D01*
X186800965Y-67560635D01*
X186646629Y-67722138D01*
X186520743Y-67906680D01*
X186426688Y-68109305D01*
X186366989Y-68324570D01*
X186343251Y-68546695D01*
X184529500Y-68546695D01*
X184529500Y-40600144D01*
X184514474Y-40481203D01*
X184455552Y-40332383D01*
X184450890Y-40325966D01*
X184419526Y-40282796D01*
X184395667Y-40215929D01*
X184411748Y-40146777D01*
X184466030Y-40095585D01*
X184589346Y-40035173D01*
X184593994Y-40032896D01*
X184775860Y-39903173D01*
X184934096Y-39745489D01*
X185064453Y-39564077D01*
X185065776Y-39565028D01*
X185112645Y-39521857D01*
X185182580Y-39509625D01*
X185248026Y-39537144D01*
X185275875Y-39568994D01*
X185335987Y-39667088D01*
X185482250Y-39835938D01*
X185654126Y-39978632D01*
X185847000Y-40091338D01*
X185851825Y-40093180D01*
X185851826Y-40093181D01*
X185861222Y-40096769D01*
X186055692Y-40171030D01*
X186060760Y-40172061D01*
X186060763Y-40172062D01*
X186155862Y-40191410D01*
X186274597Y-40215567D01*
X186279772Y-40215757D01*
X186279774Y-40215757D01*
X186492673Y-40223564D01*
X186492677Y-40223564D01*
X186497837Y-40223753D01*
X186502957Y-40223097D01*
X186502959Y-40223097D01*
X186714288Y-40196025D01*
X186714289Y-40196025D01*
X186719416Y-40195368D01*
X186724366Y-40193883D01*
X186928429Y-40132661D01*
X186928434Y-40132659D01*
X186933384Y-40131174D01*
X187133994Y-40032896D01*
X187315860Y-39903173D01*
X187474096Y-39745489D01*
X187604453Y-39564077D01*
X187605640Y-39564930D01*
X187652960Y-39521362D01*
X187722897Y-39509145D01*
X187788338Y-39536678D01*
X187816166Y-39568511D01*
X187873694Y-39662388D01*
X187879777Y-39670699D01*
X188019213Y-39831667D01*
X188026580Y-39838883D01*
X188190434Y-39974916D01*
X188198881Y-39980831D01*
X188382756Y-40088279D01*
X188392042Y-40092729D01*
X188591001Y-40168703D01*
X188600899Y-40171579D01*
X188704250Y-40192606D01*
X188718299Y-40191410D01*
X188722000Y-40181065D01*
X188722000Y-40180517D01*
X189230000Y-40180517D01*
X189234064Y-40194359D01*
X189247478Y-40196393D01*
X189254184Y-40195534D01*
X189264262Y-40193392D01*
X189468255Y-40132191D01*
X189477842Y-40128433D01*
X189669095Y-40034739D01*
X189677945Y-40029464D01*
X189851328Y-39905792D01*
X189859200Y-39899139D01*
X190010052Y-39748812D01*
X190016730Y-39740965D01*
X190141003Y-39568020D01*
X190146313Y-39559183D01*
X190240670Y-39368267D01*
X190244469Y-39358672D01*
X190306377Y-39154910D01*
X190308555Y-39144837D01*
X190309986Y-39133962D01*
X190307775Y-39119778D01*
X190294617Y-39116000D01*
X189248115Y-39116000D01*
X189232876Y-39120475D01*
X189231671Y-39121865D01*
X189230000Y-39129548D01*
X189230000Y-40180517D01*
X188722000Y-40180517D01*
X188722000Y-38589885D01*
X189230000Y-38589885D01*
X189234475Y-38605124D01*
X189235865Y-38606329D01*
X189243548Y-38608000D01*
X190294344Y-38608000D01*
X190307875Y-38604027D01*
X190309180Y-38594947D01*
X190267214Y-38427875D01*
X190263894Y-38418124D01*
X190178972Y-38222814D01*
X190174105Y-38213739D01*
X190058426Y-38034926D01*
X190052136Y-38026757D01*
X189908806Y-37869240D01*
X189901273Y-37862215D01*
X189734139Y-37730222D01*
X189725552Y-37724517D01*
X189539117Y-37621599D01*
X189529705Y-37617369D01*
X189328959Y-37546280D01*
X189318988Y-37543646D01*
X189247837Y-37530972D01*
X189234540Y-37532432D01*
X189230000Y-37546989D01*
X189230000Y-38589885D01*
X188722000Y-38589885D01*
X188722000Y-37545102D01*
X188718082Y-37531758D01*
X188703806Y-37529771D01*
X188665324Y-37535660D01*
X188655288Y-37538051D01*
X188452868Y-37604212D01*
X188443359Y-37608209D01*
X188254463Y-37706542D01*
X188245738Y-37712036D01*
X188075433Y-37839905D01*
X188067726Y-37846748D01*
X187920590Y-38000717D01*
X187914109Y-38008722D01*
X187809498Y-38162074D01*
X187754587Y-38207076D01*
X187684062Y-38215247D01*
X187620315Y-38183993D01*
X187599618Y-38159509D01*
X187518822Y-38034617D01*
X187518820Y-38034614D01*
X187516014Y-38030277D01*
X187365670Y-37865051D01*
X187361619Y-37861852D01*
X187361615Y-37861848D01*
X187194414Y-37729800D01*
X187194410Y-37729798D01*
X187190359Y-37726598D01*
X187154028Y-37706542D01*
X187134177Y-37695584D01*
X186994789Y-37618638D01*
X186989920Y-37616914D01*
X186989916Y-37616912D01*
X186789087Y-37545795D01*
X186789083Y-37545794D01*
X186784212Y-37544069D01*
X186779119Y-37543162D01*
X186779116Y-37543161D01*
X186569373Y-37505800D01*
X186569367Y-37505799D01*
X186564284Y-37504894D01*
X186490452Y-37503992D01*
X186346081Y-37502228D01*
X186346079Y-37502228D01*
X186340911Y-37502165D01*
X186120091Y-37535955D01*
X185907756Y-37605357D01*
X185709607Y-37708507D01*
X185705474Y-37711610D01*
X185705471Y-37711612D01*
X185538879Y-37836693D01*
X185530965Y-37842635D01*
X185376629Y-38004138D01*
X185269201Y-38161621D01*
X185214293Y-38206621D01*
X185143768Y-38214792D01*
X185080021Y-38183538D01*
X185059324Y-38159054D01*
X184978822Y-38034617D01*
X184978820Y-38034614D01*
X184976014Y-38030277D01*
X184825670Y-37865051D01*
X184821619Y-37861852D01*
X184821615Y-37861848D01*
X184654414Y-37729800D01*
X184654410Y-37729798D01*
X184650359Y-37726598D01*
X184614028Y-37706542D01*
X184594177Y-37695584D01*
X184454789Y-37618638D01*
X184449920Y-37616914D01*
X184449916Y-37616912D01*
X184249087Y-37545795D01*
X184249083Y-37545794D01*
X184244212Y-37544069D01*
X184239119Y-37543162D01*
X184239116Y-37543161D01*
X184029373Y-37505800D01*
X184029367Y-37505799D01*
X184024284Y-37504894D01*
X183950452Y-37503992D01*
X183806081Y-37502228D01*
X183806079Y-37502228D01*
X183800911Y-37502165D01*
X183580091Y-37535955D01*
X183367756Y-37605357D01*
X183169607Y-37708507D01*
X183165474Y-37711610D01*
X183165471Y-37711612D01*
X182998879Y-37836693D01*
X182990965Y-37842635D01*
X182836629Y-38004138D01*
X182729201Y-38161621D01*
X182674293Y-38206621D01*
X182603768Y-38214792D01*
X182540021Y-38183538D01*
X182519324Y-38159054D01*
X182438822Y-38034617D01*
X182438820Y-38034614D01*
X182436014Y-38030277D01*
X182285670Y-37865051D01*
X182281619Y-37861852D01*
X182281615Y-37861848D01*
X182114414Y-37729800D01*
X182114410Y-37729798D01*
X182110359Y-37726598D01*
X182074028Y-37706542D01*
X182054177Y-37695584D01*
X181914789Y-37618638D01*
X181909920Y-37616914D01*
X181909916Y-37616912D01*
X181709087Y-37545795D01*
X181709083Y-37545794D01*
X181704212Y-37544069D01*
X181699119Y-37543162D01*
X181699116Y-37543161D01*
X181489373Y-37505800D01*
X181489367Y-37505799D01*
X181484284Y-37504894D01*
X181410452Y-37503992D01*
X181266081Y-37502228D01*
X181266079Y-37502228D01*
X181260911Y-37502165D01*
X181040091Y-37535955D01*
X180827756Y-37605357D01*
X180629607Y-37708507D01*
X180625474Y-37711610D01*
X180625471Y-37711612D01*
X180458879Y-37836693D01*
X180450965Y-37842635D01*
X180296629Y-38004138D01*
X180189201Y-38161621D01*
X180134293Y-38206621D01*
X180063768Y-38214792D01*
X180000021Y-38183538D01*
X179979324Y-38159054D01*
X179898822Y-38034617D01*
X179898820Y-38034614D01*
X179896014Y-38030277D01*
X179745670Y-37865051D01*
X179741619Y-37861852D01*
X179741615Y-37861848D01*
X179574414Y-37729800D01*
X179574410Y-37729798D01*
X179570359Y-37726598D01*
X179534028Y-37706542D01*
X179514177Y-37695584D01*
X179374789Y-37618638D01*
X179369920Y-37616914D01*
X179369916Y-37616912D01*
X179169087Y-37545795D01*
X179169083Y-37545794D01*
X179164212Y-37544069D01*
X179159119Y-37543162D01*
X179159116Y-37543161D01*
X178949373Y-37505800D01*
X178949367Y-37505799D01*
X178944284Y-37504894D01*
X178870452Y-37503992D01*
X178726081Y-37502228D01*
X178726079Y-37502228D01*
X178720911Y-37502165D01*
X178500091Y-37535955D01*
X178287756Y-37605357D01*
X178089607Y-37708507D01*
X178085474Y-37711610D01*
X178085471Y-37711612D01*
X177918879Y-37836693D01*
X177910965Y-37842635D01*
X177756629Y-38004138D01*
X177649201Y-38161621D01*
X177594293Y-38206621D01*
X177523768Y-38214792D01*
X177460021Y-38183538D01*
X177439324Y-38159054D01*
X177358822Y-38034617D01*
X177358820Y-38034614D01*
X177356014Y-38030277D01*
X177205670Y-37865051D01*
X177201619Y-37861852D01*
X177201615Y-37861848D01*
X177034414Y-37729800D01*
X177034410Y-37729798D01*
X177030359Y-37726598D01*
X176994028Y-37706542D01*
X176974177Y-37695584D01*
X176834789Y-37618638D01*
X176829920Y-37616914D01*
X176829916Y-37616912D01*
X176629087Y-37545795D01*
X176629083Y-37545794D01*
X176624212Y-37544069D01*
X176619119Y-37543162D01*
X176619116Y-37543161D01*
X176409373Y-37505800D01*
X176409367Y-37505799D01*
X176404284Y-37504894D01*
X176330452Y-37503992D01*
X176186081Y-37502228D01*
X176186079Y-37502228D01*
X176180911Y-37502165D01*
X175960091Y-37535955D01*
X175747756Y-37605357D01*
X175549607Y-37708507D01*
X175545474Y-37711610D01*
X175545471Y-37711612D01*
X175378879Y-37836693D01*
X175370965Y-37842635D01*
X175216629Y-38004138D01*
X175109201Y-38161621D01*
X175054293Y-38206621D01*
X174983768Y-38214792D01*
X174920021Y-38183538D01*
X174899324Y-38159054D01*
X174818822Y-38034617D01*
X174818820Y-38034614D01*
X174816014Y-38030277D01*
X174665670Y-37865051D01*
X174661619Y-37861852D01*
X174661615Y-37861848D01*
X174494414Y-37729800D01*
X174494410Y-37729798D01*
X174490359Y-37726598D01*
X174454028Y-37706542D01*
X174434177Y-37695584D01*
X174294789Y-37618638D01*
X174289920Y-37616914D01*
X174289916Y-37616912D01*
X174089087Y-37545795D01*
X174089083Y-37545794D01*
X174084212Y-37544069D01*
X174079119Y-37543162D01*
X174079116Y-37543161D01*
X173869373Y-37505800D01*
X173869367Y-37505799D01*
X173864284Y-37504894D01*
X173790452Y-37503992D01*
X173646081Y-37502228D01*
X173646079Y-37502228D01*
X173640911Y-37502165D01*
X173420091Y-37535955D01*
X173207756Y-37605357D01*
X173009607Y-37708507D01*
X173005474Y-37711610D01*
X173005471Y-37711612D01*
X172838879Y-37836693D01*
X172830965Y-37842635D01*
X172676629Y-38004138D01*
X172569201Y-38161621D01*
X172514293Y-38206621D01*
X172443768Y-38214792D01*
X172380021Y-38183538D01*
X172359324Y-38159054D01*
X172278822Y-38034617D01*
X172278820Y-38034614D01*
X172276014Y-38030277D01*
X172125670Y-37865051D01*
X172121619Y-37861852D01*
X172121615Y-37861848D01*
X171954414Y-37729800D01*
X171954410Y-37729798D01*
X171950359Y-37726598D01*
X171914028Y-37706542D01*
X171894177Y-37695584D01*
X171754789Y-37618638D01*
X171749920Y-37616914D01*
X171749916Y-37616912D01*
X171549087Y-37545795D01*
X171549083Y-37545794D01*
X171544212Y-37544069D01*
X171539119Y-37543162D01*
X171539116Y-37543161D01*
X171329373Y-37505800D01*
X171329367Y-37505799D01*
X171324284Y-37504894D01*
X171250452Y-37503992D01*
X171106081Y-37502228D01*
X171106079Y-37502228D01*
X171100911Y-37502165D01*
X170880091Y-37535955D01*
X170667756Y-37605357D01*
X170469607Y-37708507D01*
X170465474Y-37711610D01*
X170465471Y-37711612D01*
X170298879Y-37836693D01*
X170290965Y-37842635D01*
X170136629Y-38004138D01*
X170029201Y-38161621D01*
X169974293Y-38206621D01*
X169903768Y-38214792D01*
X169840021Y-38183538D01*
X169819324Y-38159054D01*
X169738822Y-38034617D01*
X169738820Y-38034614D01*
X169736014Y-38030277D01*
X169585670Y-37865051D01*
X169581619Y-37861852D01*
X169581615Y-37861848D01*
X169414414Y-37729800D01*
X169414410Y-37729798D01*
X169410359Y-37726598D01*
X169374028Y-37706542D01*
X169354177Y-37695584D01*
X169214789Y-37618638D01*
X169209920Y-37616914D01*
X169209916Y-37616912D01*
X169009087Y-37545795D01*
X169009083Y-37545794D01*
X169004212Y-37544069D01*
X168999119Y-37543162D01*
X168999116Y-37543161D01*
X168789373Y-37505800D01*
X168789367Y-37505799D01*
X168784284Y-37504894D01*
X168710452Y-37503992D01*
X168566081Y-37502228D01*
X168566079Y-37502228D01*
X168560911Y-37502165D01*
X168340091Y-37535955D01*
X168127756Y-37605357D01*
X167929607Y-37708507D01*
X167925474Y-37711610D01*
X167925471Y-37711612D01*
X167758879Y-37836693D01*
X167750965Y-37842635D01*
X167596629Y-38004138D01*
X167489201Y-38161621D01*
X167434293Y-38206621D01*
X167363768Y-38214792D01*
X167300021Y-38183538D01*
X167279324Y-38159054D01*
X167198822Y-38034617D01*
X167198820Y-38034614D01*
X167196014Y-38030277D01*
X167045670Y-37865051D01*
X167041619Y-37861852D01*
X167041615Y-37861848D01*
X166874414Y-37729800D01*
X166874410Y-37729798D01*
X166870359Y-37726598D01*
X166834028Y-37706542D01*
X166814177Y-37695584D01*
X166674789Y-37618638D01*
X166669920Y-37616914D01*
X166669916Y-37616912D01*
X166469087Y-37545795D01*
X166469083Y-37545794D01*
X166464212Y-37544069D01*
X166459119Y-37543162D01*
X166459116Y-37543161D01*
X166249373Y-37505800D01*
X166249367Y-37505799D01*
X166244284Y-37504894D01*
X166170452Y-37503992D01*
X166026081Y-37502228D01*
X166026079Y-37502228D01*
X166020911Y-37502165D01*
X165800091Y-37535955D01*
X165587756Y-37605357D01*
X165389607Y-37708507D01*
X165385474Y-37711610D01*
X165385471Y-37711612D01*
X165218879Y-37836693D01*
X165210965Y-37842635D01*
X165056629Y-38004138D01*
X164949201Y-38161621D01*
X164894293Y-38206621D01*
X164823768Y-38214792D01*
X164760021Y-38183538D01*
X164739324Y-38159054D01*
X164658822Y-38034617D01*
X164658820Y-38034614D01*
X164656014Y-38030277D01*
X164505670Y-37865051D01*
X164501619Y-37861852D01*
X164501615Y-37861848D01*
X164334414Y-37729800D01*
X164334410Y-37729798D01*
X164330359Y-37726598D01*
X164294028Y-37706542D01*
X164274177Y-37695584D01*
X164134789Y-37618638D01*
X164129920Y-37616914D01*
X164129916Y-37616912D01*
X163929087Y-37545795D01*
X163929083Y-37545794D01*
X163924212Y-37544069D01*
X163919119Y-37543162D01*
X163919116Y-37543161D01*
X163709373Y-37505800D01*
X163709367Y-37505799D01*
X163704284Y-37504894D01*
X163630452Y-37503992D01*
X163486081Y-37502228D01*
X163486079Y-37502228D01*
X163480911Y-37502165D01*
X163260091Y-37535955D01*
X163047756Y-37605357D01*
X162849607Y-37708507D01*
X162845474Y-37711610D01*
X162845471Y-37711612D01*
X162678879Y-37836693D01*
X162670965Y-37842635D01*
X162516629Y-38004138D01*
X162409201Y-38161621D01*
X162354293Y-38206621D01*
X162283768Y-38214792D01*
X162220021Y-38183538D01*
X162199324Y-38159054D01*
X162118822Y-38034617D01*
X162118820Y-38034614D01*
X162116014Y-38030277D01*
X161965670Y-37865051D01*
X161961619Y-37861852D01*
X161961615Y-37861848D01*
X161794414Y-37729800D01*
X161794410Y-37729798D01*
X161790359Y-37726598D01*
X161754028Y-37706542D01*
X161734177Y-37695584D01*
X161594789Y-37618638D01*
X161589920Y-37616914D01*
X161589916Y-37616912D01*
X161389087Y-37545795D01*
X161389083Y-37545794D01*
X161384212Y-37544069D01*
X161379119Y-37543162D01*
X161379116Y-37543161D01*
X161169373Y-37505800D01*
X161169367Y-37505799D01*
X161164284Y-37504894D01*
X161090452Y-37503992D01*
X160946081Y-37502228D01*
X160946079Y-37502228D01*
X160940911Y-37502165D01*
X160720091Y-37535955D01*
X160507756Y-37605357D01*
X160309607Y-37708507D01*
X160305474Y-37711610D01*
X160305471Y-37711612D01*
X160138879Y-37836693D01*
X160130965Y-37842635D01*
X159976629Y-38004138D01*
X159869201Y-38161621D01*
X159814293Y-38206621D01*
X159743768Y-38214792D01*
X159680021Y-38183538D01*
X159659324Y-38159054D01*
X159578822Y-38034617D01*
X159578820Y-38034614D01*
X159576014Y-38030277D01*
X159425670Y-37865051D01*
X159421619Y-37861852D01*
X159421615Y-37861848D01*
X159254414Y-37729800D01*
X159254410Y-37729798D01*
X159250359Y-37726598D01*
X159214028Y-37706542D01*
X159194177Y-37695584D01*
X159054789Y-37618638D01*
X159049920Y-37616914D01*
X159049916Y-37616912D01*
X158849087Y-37545795D01*
X158849083Y-37545794D01*
X158844212Y-37544069D01*
X158839119Y-37543162D01*
X158839116Y-37543161D01*
X158629373Y-37505800D01*
X158629367Y-37505799D01*
X158624284Y-37504894D01*
X158550452Y-37503992D01*
X158406081Y-37502228D01*
X158406079Y-37502228D01*
X158400911Y-37502165D01*
X158180091Y-37535955D01*
X157967756Y-37605357D01*
X157769607Y-37708507D01*
X157765474Y-37711610D01*
X157765471Y-37711612D01*
X157598879Y-37836693D01*
X157590965Y-37842635D01*
X157436629Y-38004138D01*
X157329201Y-38161621D01*
X157274293Y-38206621D01*
X157203768Y-38214792D01*
X157140021Y-38183538D01*
X157119324Y-38159054D01*
X157038822Y-38034617D01*
X157038820Y-38034614D01*
X157036014Y-38030277D01*
X156885670Y-37865051D01*
X156881619Y-37861852D01*
X156881615Y-37861848D01*
X156714414Y-37729800D01*
X156714410Y-37729798D01*
X156710359Y-37726598D01*
X156674028Y-37706542D01*
X156654177Y-37695584D01*
X156514789Y-37618638D01*
X156509920Y-37616914D01*
X156509916Y-37616912D01*
X156309087Y-37545795D01*
X156309083Y-37545794D01*
X156304212Y-37544069D01*
X156299119Y-37543162D01*
X156299116Y-37543161D01*
X156089373Y-37505800D01*
X156089367Y-37505799D01*
X156084284Y-37504894D01*
X156010452Y-37503992D01*
X155866081Y-37502228D01*
X155866079Y-37502228D01*
X155860911Y-37502165D01*
X155640091Y-37535955D01*
X155427756Y-37605357D01*
X155229607Y-37708507D01*
X155225474Y-37711610D01*
X155225471Y-37711612D01*
X155058879Y-37836693D01*
X155050965Y-37842635D01*
X154896629Y-38004138D01*
X154789201Y-38161621D01*
X154734293Y-38206621D01*
X154663768Y-38214792D01*
X154600021Y-38183538D01*
X154579324Y-38159054D01*
X154498822Y-38034617D01*
X154498820Y-38034614D01*
X154496014Y-38030277D01*
X154345670Y-37865051D01*
X154341619Y-37861852D01*
X154341615Y-37861848D01*
X154174414Y-37729800D01*
X154174410Y-37729798D01*
X154170359Y-37726598D01*
X154134028Y-37706542D01*
X154114177Y-37695584D01*
X153974789Y-37618638D01*
X153969920Y-37616914D01*
X153969916Y-37616912D01*
X153769087Y-37545795D01*
X153769083Y-37545794D01*
X153764212Y-37544069D01*
X153759119Y-37543162D01*
X153759116Y-37543161D01*
X153549373Y-37505800D01*
X153549367Y-37505799D01*
X153544284Y-37504894D01*
X153470452Y-37503992D01*
X153326081Y-37502228D01*
X153326079Y-37502228D01*
X153320911Y-37502165D01*
X153100091Y-37535955D01*
X152887756Y-37605357D01*
X152689607Y-37708507D01*
X152685474Y-37711610D01*
X152685471Y-37711612D01*
X152518879Y-37836693D01*
X152510965Y-37842635D01*
X152356629Y-38004138D01*
X152249201Y-38161621D01*
X152194293Y-38206621D01*
X152123768Y-38214792D01*
X152060021Y-38183538D01*
X152039324Y-38159054D01*
X151958822Y-38034617D01*
X151958820Y-38034614D01*
X151956014Y-38030277D01*
X151805670Y-37865051D01*
X151801619Y-37861852D01*
X151801615Y-37861848D01*
X151634414Y-37729800D01*
X151634410Y-37729798D01*
X151630359Y-37726598D01*
X151594028Y-37706542D01*
X151574177Y-37695584D01*
X151434789Y-37618638D01*
X151429920Y-37616914D01*
X151429916Y-37616912D01*
X151229087Y-37545795D01*
X151229083Y-37545794D01*
X151224212Y-37544069D01*
X151219119Y-37543162D01*
X151219116Y-37543161D01*
X151009373Y-37505800D01*
X151009367Y-37505799D01*
X151004284Y-37504894D01*
X150930452Y-37503992D01*
X150786081Y-37502228D01*
X150786079Y-37502228D01*
X150780911Y-37502165D01*
X150560091Y-37535955D01*
X150347756Y-37605357D01*
X150149607Y-37708507D01*
X150145474Y-37711610D01*
X150145471Y-37711612D01*
X149978879Y-37836693D01*
X149970965Y-37842635D01*
X149816629Y-38004138D01*
X149709201Y-38161621D01*
X149654293Y-38206621D01*
X149583768Y-38214792D01*
X149520021Y-38183538D01*
X149499324Y-38159054D01*
X149418822Y-38034617D01*
X149418820Y-38034614D01*
X149416014Y-38030277D01*
X149265670Y-37865051D01*
X149261619Y-37861852D01*
X149261615Y-37861848D01*
X149094414Y-37729800D01*
X149094410Y-37729798D01*
X149090359Y-37726598D01*
X149054028Y-37706542D01*
X149034177Y-37695584D01*
X148894789Y-37618638D01*
X148889920Y-37616914D01*
X148889916Y-37616912D01*
X148689087Y-37545795D01*
X148689083Y-37545794D01*
X148684212Y-37544069D01*
X148679119Y-37543162D01*
X148679116Y-37543161D01*
X148469373Y-37505800D01*
X148469367Y-37505799D01*
X148464284Y-37504894D01*
X148390452Y-37503992D01*
X148246081Y-37502228D01*
X148246079Y-37502228D01*
X148240911Y-37502165D01*
X148020091Y-37535955D01*
X147807756Y-37605357D01*
X147609607Y-37708507D01*
X147605474Y-37711610D01*
X147605471Y-37711612D01*
X147438879Y-37836693D01*
X147430965Y-37842635D01*
X147276629Y-38004138D01*
X147169201Y-38161621D01*
X147114293Y-38206621D01*
X147043768Y-38214792D01*
X146980021Y-38183538D01*
X146959324Y-38159054D01*
X146878822Y-38034617D01*
X146878820Y-38034614D01*
X146876014Y-38030277D01*
X146725670Y-37865051D01*
X146721619Y-37861852D01*
X146721615Y-37861848D01*
X146554414Y-37729800D01*
X146554410Y-37729798D01*
X146550359Y-37726598D01*
X146514028Y-37706542D01*
X146494177Y-37695584D01*
X146354789Y-37618638D01*
X146349920Y-37616914D01*
X146349916Y-37616912D01*
X146149087Y-37545795D01*
X146149083Y-37545794D01*
X146144212Y-37544069D01*
X146139119Y-37543162D01*
X146139116Y-37543161D01*
X145929373Y-37505800D01*
X145929367Y-37505799D01*
X145924284Y-37504894D01*
X145850452Y-37503992D01*
X145706081Y-37502228D01*
X145706079Y-37502228D01*
X145700911Y-37502165D01*
X145480091Y-37535955D01*
X145267756Y-37605357D01*
X145069607Y-37708507D01*
X145065474Y-37711610D01*
X145065471Y-37711612D01*
X144898879Y-37836693D01*
X144890965Y-37842635D01*
X144736629Y-38004138D01*
X144629201Y-38161621D01*
X144574293Y-38206621D01*
X144503768Y-38214792D01*
X144440021Y-38183538D01*
X144419324Y-38159054D01*
X144338822Y-38034617D01*
X144338820Y-38034614D01*
X144336014Y-38030277D01*
X144185670Y-37865051D01*
X144181619Y-37861852D01*
X144181615Y-37861848D01*
X144014414Y-37729800D01*
X144014410Y-37729798D01*
X144010359Y-37726598D01*
X143974028Y-37706542D01*
X143954177Y-37695584D01*
X143814789Y-37618638D01*
X143809920Y-37616914D01*
X143809916Y-37616912D01*
X143609087Y-37545795D01*
X143609083Y-37545794D01*
X143604212Y-37544069D01*
X143599119Y-37543162D01*
X143599116Y-37543161D01*
X143389373Y-37505800D01*
X143389367Y-37505799D01*
X143384284Y-37504894D01*
X143310452Y-37503992D01*
X143166081Y-37502228D01*
X143166079Y-37502228D01*
X143160911Y-37502165D01*
X142940091Y-37535955D01*
X142727756Y-37605357D01*
X142529607Y-37708507D01*
X142525474Y-37711610D01*
X142525471Y-37711612D01*
X142358879Y-37836693D01*
X142350965Y-37842635D01*
X142196629Y-38004138D01*
X142089201Y-38161621D01*
X142034293Y-38206621D01*
X141963768Y-38214792D01*
X141900021Y-38183538D01*
X141879324Y-38159054D01*
X141798822Y-38034617D01*
X141798820Y-38034614D01*
X141796014Y-38030277D01*
X141645670Y-37865051D01*
X141641619Y-37861852D01*
X141641615Y-37861848D01*
X141474414Y-37729800D01*
X141474410Y-37729798D01*
X141470359Y-37726598D01*
X141434028Y-37706542D01*
X141414177Y-37695584D01*
X141274789Y-37618638D01*
X141269920Y-37616914D01*
X141269916Y-37616912D01*
X141069087Y-37545795D01*
X141069083Y-37545794D01*
X141064212Y-37544069D01*
X141059119Y-37543162D01*
X141059116Y-37543161D01*
X140849373Y-37505800D01*
X140849367Y-37505799D01*
X140844284Y-37504894D01*
X140770452Y-37503992D01*
X140626081Y-37502228D01*
X140626079Y-37502228D01*
X140620911Y-37502165D01*
X140400091Y-37535955D01*
X140187756Y-37605357D01*
X139989607Y-37708507D01*
X139985474Y-37711610D01*
X139985471Y-37711612D01*
X139818879Y-37836693D01*
X139810965Y-37842635D01*
X139656629Y-38004138D01*
X139549201Y-38161621D01*
X139494293Y-38206621D01*
X139423768Y-38214792D01*
X139360021Y-38183538D01*
X139339324Y-38159054D01*
X139258822Y-38034617D01*
X139258820Y-38034614D01*
X139256014Y-38030277D01*
X139105670Y-37865051D01*
X139101619Y-37861852D01*
X139101615Y-37861848D01*
X138934414Y-37729800D01*
X138934410Y-37729798D01*
X138930359Y-37726598D01*
X138894028Y-37706542D01*
X138874177Y-37695584D01*
X138734789Y-37618638D01*
X138729920Y-37616914D01*
X138729916Y-37616912D01*
X138529087Y-37545795D01*
X138529083Y-37545794D01*
X138524212Y-37544069D01*
X138519119Y-37543162D01*
X138519116Y-37543161D01*
X138309373Y-37505800D01*
X138309367Y-37505799D01*
X138304284Y-37504894D01*
X138230452Y-37503992D01*
X138086081Y-37502228D01*
X138086079Y-37502228D01*
X138080911Y-37502165D01*
X137860091Y-37535955D01*
X137647756Y-37605357D01*
X137449607Y-37708507D01*
X137445474Y-37711610D01*
X137445471Y-37711612D01*
X137278879Y-37836693D01*
X137270965Y-37842635D01*
X137116629Y-38004138D01*
X137009201Y-38161621D01*
X136954293Y-38206621D01*
X136883768Y-38214792D01*
X136820021Y-38183538D01*
X136799324Y-38159054D01*
X136718822Y-38034617D01*
X136718820Y-38034614D01*
X136716014Y-38030277D01*
X136565670Y-37865051D01*
X136561619Y-37861852D01*
X136561615Y-37861848D01*
X136394414Y-37729800D01*
X136394410Y-37729798D01*
X136390359Y-37726598D01*
X136354028Y-37706542D01*
X136334177Y-37695584D01*
X136194789Y-37618638D01*
X136189920Y-37616914D01*
X136189916Y-37616912D01*
X135989087Y-37545795D01*
X135989083Y-37545794D01*
X135984212Y-37544069D01*
X135979119Y-37543162D01*
X135979116Y-37543161D01*
X135769373Y-37505800D01*
X135769367Y-37505799D01*
X135764284Y-37504894D01*
X135690452Y-37503992D01*
X135546081Y-37502228D01*
X135546079Y-37502228D01*
X135540911Y-37502165D01*
X135320091Y-37535955D01*
X135107756Y-37605357D01*
X134909607Y-37708507D01*
X134905474Y-37711610D01*
X134905471Y-37711612D01*
X134738879Y-37836693D01*
X134730965Y-37842635D01*
X134576629Y-38004138D01*
X134469201Y-38161621D01*
X134414293Y-38206621D01*
X134343768Y-38214792D01*
X134280021Y-38183538D01*
X134259324Y-38159054D01*
X134178822Y-38034617D01*
X134178820Y-38034614D01*
X134176014Y-38030277D01*
X134025670Y-37865051D01*
X134021619Y-37861852D01*
X134021615Y-37861848D01*
X133854414Y-37729800D01*
X133854410Y-37729798D01*
X133850359Y-37726598D01*
X133814028Y-37706542D01*
X133794177Y-37695584D01*
X133654789Y-37618638D01*
X133649920Y-37616914D01*
X133649916Y-37616912D01*
X133449087Y-37545795D01*
X133449083Y-37545794D01*
X133444212Y-37544069D01*
X133439119Y-37543162D01*
X133439116Y-37543161D01*
X133229373Y-37505800D01*
X133229367Y-37505799D01*
X133224284Y-37504894D01*
X133150452Y-37503992D01*
X133006081Y-37502228D01*
X133006079Y-37502228D01*
X133000911Y-37502165D01*
X132780091Y-37535955D01*
X132567756Y-37605357D01*
X132369607Y-37708507D01*
X132365474Y-37711610D01*
X132365471Y-37711612D01*
X132198879Y-37836693D01*
X132190965Y-37842635D01*
X132036629Y-38004138D01*
X131929201Y-38161621D01*
X131874293Y-38206621D01*
X131803768Y-38214792D01*
X131740021Y-38183538D01*
X131719324Y-38159054D01*
X131638822Y-38034617D01*
X131638820Y-38034614D01*
X131636014Y-38030277D01*
X131485670Y-37865051D01*
X131481619Y-37861852D01*
X131481615Y-37861848D01*
X131314414Y-37729800D01*
X131314410Y-37729798D01*
X131310359Y-37726598D01*
X131274028Y-37706542D01*
X131254177Y-37695584D01*
X131114789Y-37618638D01*
X131109920Y-37616914D01*
X131109916Y-37616912D01*
X130909087Y-37545795D01*
X130909083Y-37545794D01*
X130904212Y-37544069D01*
X130899119Y-37543162D01*
X130899116Y-37543161D01*
X130689373Y-37505800D01*
X130689367Y-37505799D01*
X130684284Y-37504894D01*
X130610452Y-37503992D01*
X130466081Y-37502228D01*
X130466079Y-37502228D01*
X130460911Y-37502165D01*
X130240091Y-37535955D01*
X130027756Y-37605357D01*
X129829607Y-37708507D01*
X129825474Y-37711610D01*
X129825471Y-37711612D01*
X129658879Y-37836693D01*
X129650965Y-37842635D01*
X129496629Y-38004138D01*
X129389201Y-38161621D01*
X129334293Y-38206621D01*
X129263768Y-38214792D01*
X129200021Y-38183538D01*
X129179324Y-38159054D01*
X129098822Y-38034617D01*
X129098820Y-38034614D01*
X129096014Y-38030277D01*
X128945670Y-37865051D01*
X128941619Y-37861852D01*
X128941615Y-37861848D01*
X128774414Y-37729800D01*
X128774410Y-37729798D01*
X128770359Y-37726598D01*
X128734028Y-37706542D01*
X128714177Y-37695584D01*
X128574789Y-37618638D01*
X128569920Y-37616914D01*
X128569916Y-37616912D01*
X128369087Y-37545795D01*
X128369083Y-37545794D01*
X128364212Y-37544069D01*
X128359119Y-37543162D01*
X128359116Y-37543161D01*
X128149373Y-37505800D01*
X128149367Y-37505799D01*
X128144284Y-37504894D01*
X128070452Y-37503992D01*
X127926081Y-37502228D01*
X127926079Y-37502228D01*
X127920911Y-37502165D01*
X127700091Y-37535955D01*
X127487756Y-37605357D01*
X127289607Y-37708507D01*
X127285474Y-37711610D01*
X127285471Y-37711612D01*
X127118879Y-37836693D01*
X127110965Y-37842635D01*
X126956629Y-38004138D01*
X126849201Y-38161621D01*
X126794293Y-38206621D01*
X126723768Y-38214792D01*
X126660021Y-38183538D01*
X126639324Y-38159054D01*
X126558822Y-38034617D01*
X126558820Y-38034614D01*
X126556014Y-38030277D01*
X126405670Y-37865051D01*
X126401619Y-37861852D01*
X126401615Y-37861848D01*
X126234414Y-37729800D01*
X126234410Y-37729798D01*
X126230359Y-37726598D01*
X126194028Y-37706542D01*
X126174177Y-37695584D01*
X126034789Y-37618638D01*
X126029920Y-37616914D01*
X126029916Y-37616912D01*
X125829087Y-37545795D01*
X125829083Y-37545794D01*
X125824212Y-37544069D01*
X125819119Y-37543162D01*
X125819116Y-37543161D01*
X125609373Y-37505800D01*
X125609367Y-37505799D01*
X125604284Y-37504894D01*
X125530452Y-37503992D01*
X125386081Y-37502228D01*
X125386079Y-37502228D01*
X125380911Y-37502165D01*
X125160091Y-37535955D01*
X124947756Y-37605357D01*
X124749607Y-37708507D01*
X124745474Y-37711610D01*
X124745471Y-37711612D01*
X124578879Y-37836693D01*
X124570965Y-37842635D01*
X124416629Y-38004138D01*
X124309201Y-38161621D01*
X124254293Y-38206621D01*
X124183768Y-38214792D01*
X124120021Y-38183538D01*
X124099324Y-38159054D01*
X124018822Y-38034617D01*
X124018820Y-38034614D01*
X124016014Y-38030277D01*
X123865670Y-37865051D01*
X123861619Y-37861852D01*
X123861615Y-37861848D01*
X123694414Y-37729800D01*
X123694410Y-37729798D01*
X123690359Y-37726598D01*
X123654028Y-37706542D01*
X123634177Y-37695584D01*
X123494789Y-37618638D01*
X123489920Y-37616914D01*
X123489916Y-37616912D01*
X123289087Y-37545795D01*
X123289083Y-37545794D01*
X123284212Y-37544069D01*
X123279119Y-37543162D01*
X123279116Y-37543161D01*
X123069373Y-37505800D01*
X123069367Y-37505799D01*
X123064284Y-37504894D01*
X122990452Y-37503992D01*
X122846081Y-37502228D01*
X122846079Y-37502228D01*
X122840911Y-37502165D01*
X122620091Y-37535955D01*
X122407756Y-37605357D01*
X122209607Y-37708507D01*
X122205474Y-37711610D01*
X122205471Y-37711612D01*
X122038879Y-37836693D01*
X122030965Y-37842635D01*
X121876629Y-38004138D01*
X121769201Y-38161621D01*
X121714293Y-38206621D01*
X121643768Y-38214792D01*
X121580021Y-38183538D01*
X121559324Y-38159054D01*
X121478822Y-38034617D01*
X121478820Y-38034614D01*
X121476014Y-38030277D01*
X121325670Y-37865051D01*
X121321619Y-37861852D01*
X121321615Y-37861848D01*
X121154414Y-37729800D01*
X121154410Y-37729798D01*
X121150359Y-37726598D01*
X121114028Y-37706542D01*
X121094177Y-37695584D01*
X120954789Y-37618638D01*
X120949920Y-37616914D01*
X120949916Y-37616912D01*
X120749087Y-37545795D01*
X120749083Y-37545794D01*
X120744212Y-37544069D01*
X120739119Y-37543162D01*
X120739116Y-37543161D01*
X120529373Y-37505800D01*
X120529367Y-37505799D01*
X120524284Y-37504894D01*
X120450452Y-37503992D01*
X120306081Y-37502228D01*
X120306079Y-37502228D01*
X120300911Y-37502165D01*
X120080091Y-37535955D01*
X119867756Y-37605357D01*
X119669607Y-37708507D01*
X119665474Y-37711610D01*
X119665471Y-37711612D01*
X119498879Y-37836693D01*
X119490965Y-37842635D01*
X119336629Y-38004138D01*
X119229201Y-38161621D01*
X119174293Y-38206621D01*
X119103768Y-38214792D01*
X119040021Y-38183538D01*
X119019324Y-38159054D01*
X118938822Y-38034617D01*
X118938820Y-38034614D01*
X118936014Y-38030277D01*
X118785670Y-37865051D01*
X118781619Y-37861852D01*
X118781615Y-37861848D01*
X118614414Y-37729800D01*
X118614410Y-37729798D01*
X118610359Y-37726598D01*
X118574028Y-37706542D01*
X118554177Y-37695584D01*
X118414789Y-37618638D01*
X118409920Y-37616914D01*
X118409916Y-37616912D01*
X118209087Y-37545795D01*
X118209083Y-37545794D01*
X118204212Y-37544069D01*
X118199119Y-37543162D01*
X118199116Y-37543161D01*
X117989373Y-37505800D01*
X117989367Y-37505799D01*
X117984284Y-37504894D01*
X117910452Y-37503992D01*
X117766081Y-37502228D01*
X117766079Y-37502228D01*
X117760911Y-37502165D01*
X117540091Y-37535955D01*
X117327756Y-37605357D01*
X117129607Y-37708507D01*
X117125474Y-37711610D01*
X117125471Y-37711612D01*
X116958879Y-37836693D01*
X116950965Y-37842635D01*
X116796629Y-38004138D01*
X116689201Y-38161621D01*
X116634293Y-38206621D01*
X116563768Y-38214792D01*
X116500021Y-38183538D01*
X116479324Y-38159054D01*
X116398822Y-38034617D01*
X116398820Y-38034614D01*
X116396014Y-38030277D01*
X116245670Y-37865051D01*
X116241619Y-37861852D01*
X116241615Y-37861848D01*
X116074414Y-37729800D01*
X116074410Y-37729798D01*
X116070359Y-37726598D01*
X116034028Y-37706542D01*
X116014177Y-37695584D01*
X115874789Y-37618638D01*
X115869920Y-37616914D01*
X115869916Y-37616912D01*
X115669087Y-37545795D01*
X115669083Y-37545794D01*
X115664212Y-37544069D01*
X115622478Y-37536635D01*
X115558921Y-37504997D01*
X115522558Y-37444019D01*
X115524935Y-37373062D01*
X115565297Y-37314655D01*
X115630829Y-37287340D01*
X115641076Y-37286637D01*
X159510238Y-36068049D01*
X159513737Y-36068000D01*
X191644000Y-36068000D01*
X191712121Y-36088002D01*
G37*
%TD.AperFunction*%
%TD*%
M02*
