M48
; DRILL file {KiCad (6.0.0-0)} date Tuesday, March 08, 2022 at 07:11:25 AM
; FORMAT={-:-/ absolute / inch / decimal}
; #@! TF.CreationDate,2022-03-08T07:11:25-05:00
; #@! TF.GenerationSoftware,Kicad,Pcbnew,(6.0.0-0)
; #@! TF.FileFunction,Plated,1,2,PTH
FMAT,2
INCH
; #@! TA.AperFunction,Plated,PTH,ViaDrill
T1C0.0157
; #@! TA.AperFunction,Plated,PTH,ComponentDrill
T2C0.0394
%
G90
G05
T1
X5.36Y-2.44
X5.4Y-2.41
X5.44Y-2.38
X5.48Y-2.35
X5.52Y-2.31
X5.55Y-2.27
X5.59Y-2.23
X5.62Y-2.19
X5.65Y-2.15
X6.84Y-4.93
X6.94Y-4.98
X7.04Y-5.02
X7.14Y-5.06
X7.1982Y-5.16
T2
X3.54Y-1.53
X3.6Y-1.9015
X3.6Y-2.0015
X3.6Y-2.1015
X3.6Y-2.2015
X3.6Y-2.3015
X3.6Y-2.4015
X3.6Y-2.5015
X3.6Y-2.6015
X3.64Y-1.53
X3.72Y-5.63
X3.74Y-1.53
X3.82Y-5.63
X3.84Y-1.53
X3.92Y-5.63
X3.94Y-1.53
X4.02Y-5.63
X4.04Y-1.53
X4.12Y-5.63
X4.14Y-1.53
X4.22Y-5.63
X4.24Y-1.53
X4.32Y-5.63
X4.34Y-1.53
X4.42Y-5.63
X4.44Y-1.53
X4.52Y-5.63
X4.54Y-1.53
X4.62Y-5.63
X4.64Y-1.53
X4.72Y-5.63
X4.74Y-1.53
X4.82Y-5.63
X4.84Y-1.53
X4.92Y-5.63
X4.94Y-1.53
X5.02Y-5.63
X5.04Y-1.53
X5.12Y-5.63
X5.14Y-1.53
X5.22Y-5.63
X5.24Y-1.53
X5.34Y-1.53
X5.44Y-1.53
X5.54Y-1.53
X5.64Y-1.53
X5.74Y-1.53
X5.84Y-1.53
X5.94Y-1.53
X6.04Y-1.53
X6.14Y-1.53
X6.24Y-1.53
X6.34Y-1.53
X6.44Y-1.53
X6.54Y-1.53
X6.64Y-1.53
X6.6798Y-5.64
X6.74Y-1.53
X6.7798Y-5.64
X6.84Y-1.53
X6.8798Y-5.64
X6.94Y-1.53
X6.9798Y-5.64
X7.04Y-1.53
X7.0798Y-5.64
X7.14Y-1.53
X7.1798Y-5.64
X7.24Y-1.53
X7.2798Y-5.64
X7.34Y-1.53
X7.39Y-1.9
X7.39Y-2.0
X7.39Y-2.1
X7.39Y-2.2
X7.39Y-2.3
X7.39Y-2.4
X7.39Y-2.5
X7.39Y-2.6
X7.39Y-2.7
X7.44Y-1.53
T0
M30
