M48
; DRILL file {KiCad (6.0.0-0)} date Wednesday, February 02, 2022 at 01:00:55 AM
; FORMAT={-:-/ absolute / inch / decimal}
; #@! TF.CreationDate,2022-02-02T01:00:55-05:00
; #@! TF.GenerationSoftware,Kicad,Pcbnew,(6.0.0-0)
; #@! TF.FileFunction,Plated,1,2,PTH
FMAT,2
INCH
; #@! TA.AperFunction,Plated,PTH,ComponentDrill
T1C0.0394
%
G90
G05
T1
X3.4272Y-5.3188
X3.5272Y-5.3188
X3.6272Y-5.3188
X3.7272Y-5.3188
X3.7295Y-5.7477
X3.8272Y-5.3188
X3.8295Y-5.7477
X3.9272Y-5.3188
X3.9295Y-5.7477
X4.0272Y-5.3188
X4.0295Y-5.7477
X4.1272Y-5.3188
X4.1295Y-5.7477
X4.2272Y-5.3188
X4.2295Y-5.7477
X4.3272Y-5.3188
X4.3295Y-5.7477
X4.4272Y-5.3188
X4.4295Y-5.7477
X4.4656Y-1.7342
X4.5272Y-5.3188
X4.5295Y-5.7477
X4.5656Y-1.7342
X4.6272Y-5.3188
X4.6295Y-5.7477
X4.6656Y-1.7342
X4.7272Y-5.3188
X4.7295Y-5.7477
X4.7656Y-1.7342
X4.8272Y-5.3188
X4.8295Y-5.7477
X4.8656Y-1.7342
X4.9272Y-5.3188
X4.9295Y-5.7477
X4.9656Y-1.7342
X5.0295Y-5.7477
X5.0656Y-1.7342
X5.1295Y-5.7477
X5.1656Y-1.7342
X5.2295Y-5.7477
X5.3295Y-5.7477
X5.4295Y-5.7477
X5.4307Y-5.3189
X5.5295Y-5.7477
X5.5307Y-5.3189
X5.6295Y-5.7477
X5.6307Y-5.3189
X5.7295Y-5.7477
X5.7307Y-5.3189
X5.8295Y-5.7477
X5.8307Y-5.3189
X5.9295Y-5.7477
X5.9307Y-5.3189
X6.0295Y-5.7477
X6.0307Y-5.3189
X6.1307Y-5.3189
X6.2307Y-5.3189
X6.3307Y-5.3189
X6.4307Y-5.3189
X6.5307Y-5.3189
X6.6295Y-5.704
X6.6295Y-5.804
X6.6307Y-5.3189
X6.7295Y-5.704
X6.7295Y-5.804
X6.7307Y-5.3189
X6.8295Y-5.704
X6.8295Y-5.804
X6.8307Y-5.3189
X6.9295Y-5.704
X6.9295Y-5.804
X6.9307Y-5.3189
X7.3795Y-4.254
X7.3795Y-4.354
X7.3795Y-4.454
X7.3795Y-4.554
X7.3795Y-4.654
X7.3795Y-4.754
X7.3795Y-4.854
X7.3795Y-4.954
X7.3795Y-5.054
X7.3795Y-5.154
X7.3795Y-5.254
X7.3795Y-5.354
X7.3795Y-5.454
X7.3795Y-5.554
X7.3795Y-5.654
X7.3795Y-5.754
X7.3895Y-1.704
X7.3895Y-1.804
X7.3895Y-1.904
X7.3895Y-2.004
X7.3895Y-2.104
X7.3895Y-2.204
X7.3895Y-2.304
X7.3895Y-2.404
X7.3895Y-2.504
X7.3895Y-2.604
X7.3895Y-2.704
X7.3895Y-2.804
X7.3895Y-2.904
X7.3895Y-3.004
X7.3895Y-3.104
X7.3895Y-3.204
X7.3895Y-3.304
X7.3895Y-3.404
X7.3895Y-3.504
X7.3895Y-3.604
X7.3895Y-3.704
X7.3895Y-3.804
X7.3895Y-3.904
X7.3895Y-4.004
T0
M30
