%TF.GenerationSoftware,KiCad,Pcbnew,(6.0.0-0)*%
%TF.CreationDate,2022-02-02T01:00:53-05:00*%
%TF.ProjectId,Memory-Backplane,4d656d6f-7279-42d4-9261-636b706c616e,rev?*%
%TF.SameCoordinates,Original*%
%TF.FileFunction,Soldermask,Bot*%
%TF.FilePolarity,Negative*%
%FSLAX46Y46*%
G04 Gerber Fmt 4.6, Leading zero omitted, Abs format (unit mm)*
G04 Created by KiCad (PCBNEW (6.0.0-0)) date 2022-02-02 01:00:53*
%MOMM*%
%LPD*%
G01*
G04 APERTURE LIST*
%ADD10R,1.700000X1.700000*%
%ADD11O,1.700000X1.700000*%
G04 APERTURE END LIST*
D10*
%TO.C,J4*%
X125152000Y-135098000D03*
D11*
X122612000Y-135098000D03*
X120072000Y-135098000D03*
X117532000Y-135098000D03*
X114992000Y-135098000D03*
X112452000Y-135098000D03*
X109912000Y-135098000D03*
X107372000Y-135098000D03*
X104832000Y-135098000D03*
X102292000Y-135098000D03*
X99752000Y-135098000D03*
X97212000Y-135098000D03*
X94672000Y-135098000D03*
X92132000Y-135098000D03*
X89592000Y-135098000D03*
X87052000Y-135098000D03*
%TD*%
D10*
%TO.C,J5*%
X176040000Y-135100000D03*
D11*
X173500000Y-135100000D03*
X170960000Y-135100000D03*
X168420000Y-135100000D03*
X165880000Y-135100000D03*
X163340000Y-135100000D03*
X160800000Y-135100000D03*
X158260000Y-135100000D03*
X155720000Y-135100000D03*
X153180000Y-135100000D03*
X150640000Y-135100000D03*
X148100000Y-135100000D03*
X145560000Y-135100000D03*
X143020000Y-135100000D03*
X140480000Y-135100000D03*
X137940000Y-135100000D03*
%TD*%
D10*
%TO.C,J7*%
X168390000Y-147422000D03*
D11*
X168390000Y-144882000D03*
X170930000Y-147422000D03*
X170930000Y-144882000D03*
X173470000Y-147422000D03*
X173470000Y-144882000D03*
X176010000Y-147422000D03*
X176010000Y-144882000D03*
%TD*%
D10*
%TO.C,J2*%
X113427000Y-44048000D03*
D11*
X115967000Y-44048000D03*
X118507000Y-44048000D03*
X121047000Y-44048000D03*
X123587000Y-44048000D03*
X126127000Y-44048000D03*
X128667000Y-44048000D03*
X131207000Y-44048000D03*
%TD*%
D10*
%TO.C,J6*%
X187694000Y-43282000D03*
D11*
X187694000Y-45822000D03*
X187694000Y-48362000D03*
X187694000Y-50902000D03*
X187694000Y-53442000D03*
X187694000Y-55982000D03*
X187694000Y-58522000D03*
X187694000Y-61062000D03*
X187694000Y-63602000D03*
X187694000Y-66142000D03*
X187694000Y-68682000D03*
X187694000Y-71222000D03*
X187694000Y-73762000D03*
X187694000Y-76302000D03*
X187694000Y-78842000D03*
X187694000Y-81382000D03*
X187694000Y-83922000D03*
X187694000Y-86462000D03*
X187694000Y-89002000D03*
X187694000Y-91542000D03*
X187694000Y-94082000D03*
X187694000Y-96622000D03*
X187694000Y-99162000D03*
X187694000Y-101702000D03*
%TD*%
D10*
%TO.C,J3*%
X153150000Y-145992000D03*
D11*
X150610000Y-145992000D03*
X148070000Y-145992000D03*
X145530000Y-145992000D03*
X142990000Y-145992000D03*
X140450000Y-145992000D03*
X137910000Y-145992000D03*
X135370000Y-145992000D03*
X132830000Y-145992000D03*
X130290000Y-145992000D03*
X127750000Y-145992000D03*
X125210000Y-145992000D03*
X122670000Y-145992000D03*
X120130000Y-145992000D03*
X117590000Y-145992000D03*
X115050000Y-145992000D03*
X112510000Y-145992000D03*
X109970000Y-145992000D03*
X107430000Y-145992000D03*
X104890000Y-145992000D03*
X102350000Y-145992000D03*
X99810000Y-145992000D03*
X97270000Y-145992000D03*
X94730000Y-145992000D03*
%TD*%
D10*
%TO.C,J1*%
X187440000Y-108052000D03*
D11*
X187440000Y-110592000D03*
X187440000Y-113132000D03*
X187440000Y-115672000D03*
X187440000Y-118212000D03*
X187440000Y-120752000D03*
X187440000Y-123292000D03*
X187440000Y-125832000D03*
X187440000Y-128372000D03*
X187440000Y-130912000D03*
X187440000Y-133452000D03*
X187440000Y-135992000D03*
X187440000Y-138532000D03*
X187440000Y-141072000D03*
X187440000Y-143612000D03*
X187440000Y-146152000D03*
%TD*%
M02*
