M48
; DRILL file {KiCad (5.1.10-1-10_14)} date Friday, November 26, 2021 at 01:32:39 AM
; FORMAT={-:-/ absolute / inch / decimal}
; #@! TF.CreationDate,2021-11-26T01:32:39-05:00
; #@! TF.GenerationSoftware,Kicad,Pcbnew,(5.1.10-1-10_14)
; #@! TF.FileFunction,Plated,1,2,PTH
FMAT,2
INCH
T1C0.0394
%
G90
G05
T1
X2.81Y-4.79
X2.81Y-4.9769
X2.81Y-5.16
X2.91Y-4.79
X2.91Y-4.9769
X2.91Y-5.16
X3.01Y-4.79
X3.01Y-4.9769
X3.01Y-5.16
X3.59Y-4.7923
X3.59Y-4.9754
X3.59Y-5.1584
X3.69Y-4.7923
X3.69Y-4.9754
X3.69Y-5.1584
X3.79Y-4.7923
X3.79Y-4.9754
X3.79Y-5.1584
X3.89Y-4.7923
X3.89Y-4.9754
X3.89Y-5.1584
X3.99Y-4.7923
X3.99Y-4.9754
X3.99Y-5.1584
X4.09Y-4.7923
X4.09Y-4.9754
X4.09Y-5.1584
X4.19Y-4.7923
X4.19Y-4.9754
X4.19Y-5.1584
X4.29Y-4.7923
X4.29Y-4.9754
X4.29Y-5.1584
X4.39Y-4.7923
X4.39Y-4.9754
X4.39Y-5.1584
X4.49Y-4.7923
X4.49Y-4.9754
X4.49Y-5.1584
X4.59Y-4.7923
X4.59Y-4.9754
X4.59Y-5.1584
X4.69Y-4.7923
X4.69Y-4.9754
X4.69Y-5.1584
X4.79Y-4.7923
X4.79Y-4.9754
X4.79Y-5.1584
X4.89Y-4.7923
X4.89Y-4.9754
X4.89Y-5.1584
X4.99Y-4.7923
X4.99Y-4.9754
X4.99Y-5.1584
X5.09Y-4.7923
X5.09Y-4.9754
X5.09Y-5.1584
X5.19Y-4.7923
X5.19Y-4.9754
X5.19Y-5.1584
X5.29Y-4.7923
X5.29Y-4.9754
X5.29Y-5.1584
X5.39Y-4.7923
X5.39Y-4.9754
X5.39Y-5.1584
X5.49Y-4.7923
X5.49Y-4.9754
X5.49Y-5.1584
X5.59Y-4.7923
X5.59Y-4.9754
X5.59Y-5.1584
X5.69Y-4.7923
X5.69Y-4.9754
X5.69Y-5.1584
X5.79Y-4.7923
X5.79Y-4.9754
X5.79Y-5.1584
X5.89Y-4.7923
X5.89Y-4.9754
X5.89Y-5.1584
X5.99Y-4.7923
X5.99Y-4.9754
X5.99Y-5.1584
X6.09Y-4.7923
X6.09Y-4.9754
X6.09Y-5.1584
X6.19Y-4.7923
X6.19Y-4.9754
X6.19Y-5.1584
X6.29Y-4.7923
X6.29Y-4.9754
X6.29Y-5.1584
X6.69Y-4.7931
X6.69Y-4.9761
X6.69Y-5.1592
X6.79Y-4.7931
X6.79Y-4.9761
X6.79Y-5.1592
X6.89Y-4.7931
X6.89Y-4.9761
X6.89Y-5.1592
X6.99Y-4.7931
X6.99Y-4.9761
X6.99Y-5.1592
X7.09Y-4.7931
X7.09Y-4.9761
X7.09Y-5.1592
X7.19Y-4.7931
X7.19Y-4.9761
X7.19Y-5.1592
X7.29Y-4.7931
X7.29Y-4.9761
X7.29Y-5.1592
X7.39Y-4.7931
X7.39Y-4.9761
X7.39Y-5.1592
X7.49Y-4.7931
X7.49Y-4.9761
X7.49Y-5.1592
X7.59Y-4.7931
X7.59Y-4.9761
X7.59Y-5.1592
X7.69Y-4.7931
X7.69Y-4.9761
X7.69Y-5.1592
X7.79Y-4.7931
X7.79Y-4.9761
X7.79Y-5.1592
X7.89Y-4.7931
X7.89Y-4.9761
X7.89Y-5.1592
X7.99Y-4.7931
X7.99Y-4.9761
X7.99Y-5.1592
X8.09Y-4.7931
X8.09Y-4.9761
X8.09Y-5.1592
X8.19Y-4.7931
X8.19Y-4.9761
X8.19Y-5.1592
X8.29Y-4.7931
X8.29Y-4.9761
X8.29Y-5.1592
X8.39Y-4.7931
X8.39Y-4.9761
X8.39Y-5.1592
X8.49Y-4.7931
X8.49Y-4.9761
X8.49Y-5.1592
X8.59Y-4.7931
X8.59Y-4.9761
X8.59Y-5.1592
T0
M30
