%TF.GenerationSoftware,KiCad,Pcbnew,(5.1.10-1-10_14)*%
%TF.CreationDate,2021-12-18T11:23:09-05:00*%
%TF.ProjectId,Modules,4d6f6475-6c65-4732-9e6b-696361645f70,rev?*%
%TF.SameCoordinates,Original*%
%TF.FileFunction,Legend,Top*%
%TF.FilePolarity,Positive*%
%FSLAX46Y46*%
G04 Gerber Fmt 4.6, Leading zero omitted, Abs format (unit mm)*
G04 Created by KiCad (PCBNEW (5.1.10-1-10_14)) date 2021-12-18 11:23:09*
%MOMM*%
%LPD*%
G01*
G04 APERTURE LIST*
%ADD10C,0.100000*%
%ADD11C,0.150000*%
%ADD12C,0.120000*%
G04 APERTURE END LIST*
D10*
X154646380Y-107805761D02*
X154694000Y-107710523D01*
X154789238Y-107615285D01*
X154932095Y-107472428D01*
X154979714Y-107377190D01*
X154979714Y-107281952D01*
X154741619Y-107329571D02*
X154789238Y-107234333D01*
X154884476Y-107139095D01*
X155074952Y-107091476D01*
X155408285Y-107091476D01*
X155598761Y-107139095D01*
X155694000Y-107234333D01*
X155741619Y-107329571D01*
X155741619Y-107520047D01*
X155694000Y-107615285D01*
X155598761Y-107710523D01*
X155408285Y-107758142D01*
X155074952Y-107758142D01*
X154884476Y-107710523D01*
X154789238Y-107615285D01*
X154741619Y-107520047D01*
X154741619Y-107329571D01*
X155741619Y-108091476D02*
X155741619Y-108758142D01*
X154741619Y-108329571D01*
X157186380Y-107805761D02*
X157234000Y-107710523D01*
X157329238Y-107615285D01*
X157472095Y-107472428D01*
X157519714Y-107377190D01*
X157519714Y-107281952D01*
X157281619Y-107329571D02*
X157329238Y-107234333D01*
X157424476Y-107139095D01*
X157614952Y-107091476D01*
X157948285Y-107091476D01*
X158138761Y-107139095D01*
X158234000Y-107234333D01*
X158281619Y-107329571D01*
X158281619Y-107520047D01*
X158234000Y-107615285D01*
X158138761Y-107710523D01*
X157948285Y-107758142D01*
X157614952Y-107758142D01*
X157424476Y-107710523D01*
X157329238Y-107615285D01*
X157281619Y-107520047D01*
X157281619Y-107329571D01*
X158281619Y-108615285D02*
X158281619Y-108424809D01*
X158234000Y-108329571D01*
X158186380Y-108281952D01*
X158043523Y-108186714D01*
X157853047Y-108139095D01*
X157472095Y-108139095D01*
X157376857Y-108186714D01*
X157329238Y-108234333D01*
X157281619Y-108329571D01*
X157281619Y-108520047D01*
X157329238Y-108615285D01*
X157376857Y-108662904D01*
X157472095Y-108710523D01*
X157710190Y-108710523D01*
X157805428Y-108662904D01*
X157853047Y-108615285D01*
X157900666Y-108520047D01*
X157900666Y-108329571D01*
X157853047Y-108234333D01*
X157805428Y-108186714D01*
X157710190Y-108139095D01*
D11*
X135034928Y-108787428D02*
X134892071Y-108716000D01*
X134820642Y-108644571D01*
X134749214Y-108501714D01*
X134749214Y-108430285D01*
X134820642Y-108287428D01*
X134892071Y-108216000D01*
X135034928Y-108144571D01*
X135320642Y-108144571D01*
X135463500Y-108216000D01*
X135534928Y-108287428D01*
X135606357Y-108430285D01*
X135606357Y-108501714D01*
X135534928Y-108644571D01*
X135463500Y-108716000D01*
X135320642Y-108787428D01*
X135034928Y-108787428D01*
X134892071Y-108858857D01*
X134820642Y-108930285D01*
X134749214Y-109073142D01*
X134749214Y-109358857D01*
X134820642Y-109501714D01*
X134892071Y-109573142D01*
X135034928Y-109644571D01*
X135320642Y-109644571D01*
X135463500Y-109573142D01*
X135534928Y-109501714D01*
X135606357Y-109358857D01*
X135606357Y-109073142D01*
X135534928Y-108930285D01*
X135463500Y-108858857D01*
X135320642Y-108787428D01*
X136249214Y-109644571D02*
X136249214Y-108144571D01*
X136249214Y-108716000D02*
X136392071Y-108644571D01*
X136677785Y-108644571D01*
X136820642Y-108716000D01*
X136892071Y-108787428D01*
X136963500Y-108930285D01*
X136963500Y-109358857D01*
X136892071Y-109501714D01*
X136820642Y-109573142D01*
X136677785Y-109644571D01*
X136392071Y-109644571D01*
X136249214Y-109573142D01*
X137606357Y-109644571D02*
X137606357Y-108644571D01*
X137606357Y-108144571D02*
X137534928Y-108216000D01*
X137606357Y-108287428D01*
X137677785Y-108216000D01*
X137606357Y-108144571D01*
X137606357Y-108287428D01*
X138106357Y-108644571D02*
X138677785Y-108644571D01*
X138320642Y-108144571D02*
X138320642Y-109430285D01*
X138392071Y-109573142D01*
X138534928Y-109644571D01*
X138677785Y-109644571D01*
X141034928Y-109644571D02*
X140320642Y-109644571D01*
X140320642Y-108144571D01*
X141749214Y-109644571D02*
X141606357Y-109573142D01*
X141534928Y-109501714D01*
X141463500Y-109358857D01*
X141463500Y-108930285D01*
X141534928Y-108787428D01*
X141606357Y-108716000D01*
X141749214Y-108644571D01*
X141963500Y-108644571D01*
X142106357Y-108716000D01*
X142177785Y-108787428D01*
X142249214Y-108930285D01*
X142249214Y-109358857D01*
X142177785Y-109501714D01*
X142106357Y-109573142D01*
X141963500Y-109644571D01*
X141749214Y-109644571D01*
X143534928Y-108644571D02*
X143534928Y-109858857D01*
X143463500Y-110001714D01*
X143392071Y-110073142D01*
X143249214Y-110144571D01*
X143034928Y-110144571D01*
X142892071Y-110073142D01*
X143534928Y-109573142D02*
X143392071Y-109644571D01*
X143106357Y-109644571D01*
X142963500Y-109573142D01*
X142892071Y-109501714D01*
X142820642Y-109358857D01*
X142820642Y-108930285D01*
X142892071Y-108787428D01*
X142963500Y-108716000D01*
X143106357Y-108644571D01*
X143392071Y-108644571D01*
X143534928Y-108716000D01*
X144249214Y-109644571D02*
X144249214Y-108644571D01*
X144249214Y-108144571D02*
X144177785Y-108216000D01*
X144249214Y-108287428D01*
X144320642Y-108216000D01*
X144249214Y-108144571D01*
X144249214Y-108287428D01*
X145606357Y-109573142D02*
X145463500Y-109644571D01*
X145177785Y-109644571D01*
X145034928Y-109573142D01*
X144963500Y-109501714D01*
X144892071Y-109358857D01*
X144892071Y-108930285D01*
X144963500Y-108787428D01*
X145034928Y-108716000D01*
X145177785Y-108644571D01*
X145463500Y-108644571D01*
X145606357Y-108716000D01*
X148177785Y-108216000D02*
X148034928Y-108144571D01*
X147820642Y-108144571D01*
X147606357Y-108216000D01*
X147463500Y-108358857D01*
X147392071Y-108501714D01*
X147320642Y-108787428D01*
X147320642Y-109001714D01*
X147392071Y-109287428D01*
X147463500Y-109430285D01*
X147606357Y-109573142D01*
X147820642Y-109644571D01*
X147963500Y-109644571D01*
X148177785Y-109573142D01*
X148249214Y-109501714D01*
X148249214Y-109001714D01*
X147963500Y-109001714D01*
X149534928Y-109644571D02*
X149534928Y-108858857D01*
X149463500Y-108716000D01*
X149320642Y-108644571D01*
X149034928Y-108644571D01*
X148892071Y-108716000D01*
X149534928Y-109573142D02*
X149392071Y-109644571D01*
X149034928Y-109644571D01*
X148892071Y-109573142D01*
X148820642Y-109430285D01*
X148820642Y-109287428D01*
X148892071Y-109144571D01*
X149034928Y-109073142D01*
X149392071Y-109073142D01*
X149534928Y-109001714D01*
X150034928Y-108644571D02*
X150606357Y-108644571D01*
X150249214Y-108144571D02*
X150249214Y-109430285D01*
X150320642Y-109573142D01*
X150463500Y-109644571D01*
X150606357Y-109644571D01*
X151677785Y-109573142D02*
X151534928Y-109644571D01*
X151249214Y-109644571D01*
X151106357Y-109573142D01*
X151034928Y-109430285D01*
X151034928Y-108858857D01*
X151106357Y-108716000D01*
X151249214Y-108644571D01*
X151534928Y-108644571D01*
X151677785Y-108716000D01*
X151749214Y-108858857D01*
X151749214Y-109001714D01*
X151034928Y-109144571D01*
D10*
X185174000Y-108901095D02*
X185126380Y-108996333D01*
X185126380Y-109139190D01*
X185174000Y-109282047D01*
X185269238Y-109377285D01*
X185364476Y-109424904D01*
X185554952Y-109472523D01*
X185697809Y-109472523D01*
X185888285Y-109424904D01*
X185983523Y-109377285D01*
X186078761Y-109282047D01*
X186126380Y-109139190D01*
X186126380Y-109043952D01*
X186078761Y-108901095D01*
X186031142Y-108853476D01*
X185697809Y-108853476D01*
X185697809Y-109043952D01*
X185459714Y-108424904D02*
X186126380Y-108424904D01*
X185554952Y-108424904D02*
X185507333Y-108377285D01*
X185459714Y-108282047D01*
X185459714Y-108139190D01*
X185507333Y-108043952D01*
X185602571Y-107996333D01*
X186126380Y-107996333D01*
X186126380Y-107091571D02*
X185126380Y-107091571D01*
X186078761Y-107091571D02*
X186126380Y-107186809D01*
X186126380Y-107377285D01*
X186078761Y-107472523D01*
X186031142Y-107520142D01*
X185935904Y-107567761D01*
X185650190Y-107567761D01*
X185554952Y-107520142D01*
X185507333Y-107472523D01*
X185459714Y-107377285D01*
X185459714Y-107186809D01*
X185507333Y-107091571D01*
X182586380Y-109313761D02*
X183586380Y-108980428D01*
X182586380Y-108647095D01*
X183538761Y-107885190D02*
X183586380Y-107980428D01*
X183586380Y-108170904D01*
X183538761Y-108266142D01*
X183491142Y-108313761D01*
X183395904Y-108361380D01*
X183110190Y-108361380D01*
X183014952Y-108313761D01*
X182967333Y-108266142D01*
X182919714Y-108170904D01*
X182919714Y-107980428D01*
X182967333Y-107885190D01*
X183538761Y-107028047D02*
X183586380Y-107123285D01*
X183586380Y-107313761D01*
X183538761Y-107409000D01*
X183491142Y-107456619D01*
X183395904Y-107504238D01*
X183110190Y-107504238D01*
X183014952Y-107456619D01*
X182967333Y-107409000D01*
X182919714Y-107313761D01*
X182919714Y-107123285D01*
X182967333Y-107028047D01*
X171870666Y-124966523D02*
X171870666Y-124490333D01*
X172156380Y-125061761D02*
X171156380Y-124728428D01*
X172156380Y-124395095D01*
X171156380Y-123871285D02*
X171156380Y-123776047D01*
X171204000Y-123680809D01*
X171251619Y-123633190D01*
X171346857Y-123585571D01*
X171537333Y-123537952D01*
X171775428Y-123537952D01*
X171965904Y-123585571D01*
X172061142Y-123633190D01*
X172108761Y-123680809D01*
X172156380Y-123776047D01*
X172156380Y-123871285D01*
X172108761Y-123966523D01*
X172061142Y-124014142D01*
X171965904Y-124061761D01*
X171775428Y-124109380D01*
X171537333Y-124109380D01*
X171346857Y-124061761D01*
X171251619Y-124014142D01*
X171204000Y-123966523D01*
X171156380Y-123871285D01*
X169330666Y-124966523D02*
X169330666Y-124490333D01*
X169616380Y-125061761D02*
X168616380Y-124728428D01*
X169616380Y-124395095D01*
X169616380Y-123537952D02*
X169616380Y-124109380D01*
X169616380Y-123823666D02*
X168616380Y-123823666D01*
X168759238Y-123918904D01*
X168854476Y-124014142D01*
X168902095Y-124109380D01*
X166790666Y-124966523D02*
X166790666Y-124490333D01*
X167076380Y-125061761D02*
X166076380Y-124728428D01*
X167076380Y-124395095D01*
X166171619Y-124109380D02*
X166124000Y-124061761D01*
X166076380Y-123966523D01*
X166076380Y-123728428D01*
X166124000Y-123633190D01*
X166171619Y-123585571D01*
X166266857Y-123537952D01*
X166362095Y-123537952D01*
X166504952Y-123585571D01*
X167076380Y-124157000D01*
X167076380Y-123537952D01*
X164250666Y-124966523D02*
X164250666Y-124490333D01*
X164536380Y-125061761D02*
X163536380Y-124728428D01*
X164536380Y-124395095D01*
X163536380Y-124157000D02*
X163536380Y-123537952D01*
X163917333Y-123871285D01*
X163917333Y-123728428D01*
X163964952Y-123633190D01*
X164012571Y-123585571D01*
X164107809Y-123537952D01*
X164345904Y-123537952D01*
X164441142Y-123585571D01*
X164488761Y-123633190D01*
X164536380Y-123728428D01*
X164536380Y-124014142D01*
X164488761Y-124109380D01*
X164441142Y-124157000D01*
X161710666Y-124966523D02*
X161710666Y-124490333D01*
X161996380Y-125061761D02*
X160996380Y-124728428D01*
X161996380Y-124395095D01*
X161329714Y-123633190D02*
X161996380Y-123633190D01*
X160948761Y-123871285D02*
X161663047Y-124109380D01*
X161663047Y-123490333D01*
X159170666Y-124966523D02*
X159170666Y-124490333D01*
X159456380Y-125061761D02*
X158456380Y-124728428D01*
X159456380Y-124395095D01*
X158456380Y-123585571D02*
X158456380Y-124061761D01*
X158932571Y-124109380D01*
X158884952Y-124061761D01*
X158837333Y-123966523D01*
X158837333Y-123728428D01*
X158884952Y-123633190D01*
X158932571Y-123585571D01*
X159027809Y-123537952D01*
X159265904Y-123537952D01*
X159361142Y-123585571D01*
X159408761Y-123633190D01*
X159456380Y-123728428D01*
X159456380Y-123966523D01*
X159408761Y-124061761D01*
X159361142Y-124109380D01*
X156630666Y-124966523D02*
X156630666Y-124490333D01*
X156916380Y-125061761D02*
X155916380Y-124728428D01*
X156916380Y-124395095D01*
X155916380Y-123633190D02*
X155916380Y-123823666D01*
X155964000Y-123918904D01*
X156011619Y-123966523D01*
X156154476Y-124061761D01*
X156344952Y-124109380D01*
X156725904Y-124109380D01*
X156821142Y-124061761D01*
X156868761Y-124014142D01*
X156916380Y-123918904D01*
X156916380Y-123728428D01*
X156868761Y-123633190D01*
X156821142Y-123585571D01*
X156725904Y-123537952D01*
X156487809Y-123537952D01*
X156392571Y-123585571D01*
X156344952Y-123633190D01*
X156297333Y-123728428D01*
X156297333Y-123918904D01*
X156344952Y-124014142D01*
X156392571Y-124061761D01*
X156487809Y-124109380D01*
X154090666Y-124966523D02*
X154090666Y-124490333D01*
X154376380Y-125061761D02*
X153376380Y-124728428D01*
X154376380Y-124395095D01*
X153376380Y-124157000D02*
X153376380Y-123490333D01*
X154376380Y-123918904D01*
X151312571Y-124585571D02*
X151360190Y-124442714D01*
X151407809Y-124395095D01*
X151503047Y-124347476D01*
X151645904Y-124347476D01*
X151741142Y-124395095D01*
X151788761Y-124442714D01*
X151836380Y-124537952D01*
X151836380Y-124918904D01*
X150836380Y-124918904D01*
X150836380Y-124585571D01*
X150884000Y-124490333D01*
X150931619Y-124442714D01*
X151026857Y-124395095D01*
X151122095Y-124395095D01*
X151217333Y-124442714D01*
X151264952Y-124490333D01*
X151312571Y-124585571D01*
X151312571Y-124918904D01*
X150836380Y-123728428D02*
X150836380Y-123633190D01*
X150884000Y-123537952D01*
X150931619Y-123490333D01*
X151026857Y-123442714D01*
X151217333Y-123395095D01*
X151455428Y-123395095D01*
X151645904Y-123442714D01*
X151741142Y-123490333D01*
X151788761Y-123537952D01*
X151836380Y-123633190D01*
X151836380Y-123728428D01*
X151788761Y-123823666D01*
X151741142Y-123871285D01*
X151645904Y-123918904D01*
X151455428Y-123966523D01*
X151217333Y-123966523D01*
X151026857Y-123918904D01*
X150931619Y-123871285D01*
X150884000Y-123823666D01*
X150836380Y-123728428D01*
X148772571Y-124585571D02*
X148820190Y-124442714D01*
X148867809Y-124395095D01*
X148963047Y-124347476D01*
X149105904Y-124347476D01*
X149201142Y-124395095D01*
X149248761Y-124442714D01*
X149296380Y-124537952D01*
X149296380Y-124918904D01*
X148296380Y-124918904D01*
X148296380Y-124585571D01*
X148344000Y-124490333D01*
X148391619Y-124442714D01*
X148486857Y-124395095D01*
X148582095Y-124395095D01*
X148677333Y-124442714D01*
X148724952Y-124490333D01*
X148772571Y-124585571D01*
X148772571Y-124918904D01*
X149296380Y-123395095D02*
X149296380Y-123966523D01*
X149296380Y-123680809D02*
X148296380Y-123680809D01*
X148439238Y-123776047D01*
X148534476Y-123871285D01*
X148582095Y-123966523D01*
X146232571Y-124585571D02*
X146280190Y-124442714D01*
X146327809Y-124395095D01*
X146423047Y-124347476D01*
X146565904Y-124347476D01*
X146661142Y-124395095D01*
X146708761Y-124442714D01*
X146756380Y-124537952D01*
X146756380Y-124918904D01*
X145756380Y-124918904D01*
X145756380Y-124585571D01*
X145804000Y-124490333D01*
X145851619Y-124442714D01*
X145946857Y-124395095D01*
X146042095Y-124395095D01*
X146137333Y-124442714D01*
X146184952Y-124490333D01*
X146232571Y-124585571D01*
X146232571Y-124918904D01*
X145851619Y-123966523D02*
X145804000Y-123918904D01*
X145756380Y-123823666D01*
X145756380Y-123585571D01*
X145804000Y-123490333D01*
X145851619Y-123442714D01*
X145946857Y-123395095D01*
X146042095Y-123395095D01*
X146184952Y-123442714D01*
X146756380Y-124014142D01*
X146756380Y-123395095D01*
X143692571Y-124585571D02*
X143740190Y-124442714D01*
X143787809Y-124395095D01*
X143883047Y-124347476D01*
X144025904Y-124347476D01*
X144121142Y-124395095D01*
X144168761Y-124442714D01*
X144216380Y-124537952D01*
X144216380Y-124918904D01*
X143216380Y-124918904D01*
X143216380Y-124585571D01*
X143264000Y-124490333D01*
X143311619Y-124442714D01*
X143406857Y-124395095D01*
X143502095Y-124395095D01*
X143597333Y-124442714D01*
X143644952Y-124490333D01*
X143692571Y-124585571D01*
X143692571Y-124918904D01*
X143216380Y-124014142D02*
X143216380Y-123395095D01*
X143597333Y-123728428D01*
X143597333Y-123585571D01*
X143644952Y-123490333D01*
X143692571Y-123442714D01*
X143787809Y-123395095D01*
X144025904Y-123395095D01*
X144121142Y-123442714D01*
X144168761Y-123490333D01*
X144216380Y-123585571D01*
X144216380Y-123871285D01*
X144168761Y-123966523D01*
X144121142Y-124014142D01*
X141152571Y-124585571D02*
X141200190Y-124442714D01*
X141247809Y-124395095D01*
X141343047Y-124347476D01*
X141485904Y-124347476D01*
X141581142Y-124395095D01*
X141628761Y-124442714D01*
X141676380Y-124537952D01*
X141676380Y-124918904D01*
X140676380Y-124918904D01*
X140676380Y-124585571D01*
X140724000Y-124490333D01*
X140771619Y-124442714D01*
X140866857Y-124395095D01*
X140962095Y-124395095D01*
X141057333Y-124442714D01*
X141104952Y-124490333D01*
X141152571Y-124585571D01*
X141152571Y-124918904D01*
X141009714Y-123490333D02*
X141676380Y-123490333D01*
X140628761Y-123728428D02*
X141343047Y-123966523D01*
X141343047Y-123347476D01*
X138612571Y-124585571D02*
X138660190Y-124442714D01*
X138707809Y-124395095D01*
X138803047Y-124347476D01*
X138945904Y-124347476D01*
X139041142Y-124395095D01*
X139088761Y-124442714D01*
X139136380Y-124537952D01*
X139136380Y-124918904D01*
X138136380Y-124918904D01*
X138136380Y-124585571D01*
X138184000Y-124490333D01*
X138231619Y-124442714D01*
X138326857Y-124395095D01*
X138422095Y-124395095D01*
X138517333Y-124442714D01*
X138564952Y-124490333D01*
X138612571Y-124585571D01*
X138612571Y-124918904D01*
X138136380Y-123442714D02*
X138136380Y-123918904D01*
X138612571Y-123966523D01*
X138564952Y-123918904D01*
X138517333Y-123823666D01*
X138517333Y-123585571D01*
X138564952Y-123490333D01*
X138612571Y-123442714D01*
X138707809Y-123395095D01*
X138945904Y-123395095D01*
X139041142Y-123442714D01*
X139088761Y-123490333D01*
X139136380Y-123585571D01*
X139136380Y-123823666D01*
X139088761Y-123918904D01*
X139041142Y-123966523D01*
X136072571Y-124585571D02*
X136120190Y-124442714D01*
X136167809Y-124395095D01*
X136263047Y-124347476D01*
X136405904Y-124347476D01*
X136501142Y-124395095D01*
X136548761Y-124442714D01*
X136596380Y-124537952D01*
X136596380Y-124918904D01*
X135596380Y-124918904D01*
X135596380Y-124585571D01*
X135644000Y-124490333D01*
X135691619Y-124442714D01*
X135786857Y-124395095D01*
X135882095Y-124395095D01*
X135977333Y-124442714D01*
X136024952Y-124490333D01*
X136072571Y-124585571D01*
X136072571Y-124918904D01*
X135596380Y-123490333D02*
X135596380Y-123680809D01*
X135644000Y-123776047D01*
X135691619Y-123823666D01*
X135834476Y-123918904D01*
X136024952Y-123966523D01*
X136405904Y-123966523D01*
X136501142Y-123918904D01*
X136548761Y-123871285D01*
X136596380Y-123776047D01*
X136596380Y-123585571D01*
X136548761Y-123490333D01*
X136501142Y-123442714D01*
X136405904Y-123395095D01*
X136167809Y-123395095D01*
X136072571Y-123442714D01*
X136024952Y-123490333D01*
X135977333Y-123585571D01*
X135977333Y-123776047D01*
X136024952Y-123871285D01*
X136072571Y-123918904D01*
X136167809Y-123966523D01*
X133532571Y-124585571D02*
X133580190Y-124442714D01*
X133627809Y-124395095D01*
X133723047Y-124347476D01*
X133865904Y-124347476D01*
X133961142Y-124395095D01*
X134008761Y-124442714D01*
X134056380Y-124537952D01*
X134056380Y-124918904D01*
X133056380Y-124918904D01*
X133056380Y-124585571D01*
X133104000Y-124490333D01*
X133151619Y-124442714D01*
X133246857Y-124395095D01*
X133342095Y-124395095D01*
X133437333Y-124442714D01*
X133484952Y-124490333D01*
X133532571Y-124585571D01*
X133532571Y-124918904D01*
X133056380Y-124014142D02*
X133056380Y-123347476D01*
X134056380Y-123776047D01*
X159726380Y-107805761D02*
X159774000Y-107710523D01*
X159869238Y-107615285D01*
X160012095Y-107472428D01*
X160059714Y-107377190D01*
X160059714Y-107281952D01*
X159821619Y-107329571D02*
X159869238Y-107234333D01*
X159964476Y-107139095D01*
X160154952Y-107091476D01*
X160488285Y-107091476D01*
X160678761Y-107139095D01*
X160774000Y-107234333D01*
X160821619Y-107329571D01*
X160821619Y-107520047D01*
X160774000Y-107615285D01*
X160678761Y-107710523D01*
X160488285Y-107758142D01*
X160154952Y-107758142D01*
X159964476Y-107710523D01*
X159869238Y-107615285D01*
X159821619Y-107520047D01*
X159821619Y-107329571D01*
X160821619Y-108662904D02*
X160821619Y-108186714D01*
X160345428Y-108139095D01*
X160393047Y-108186714D01*
X160440666Y-108281952D01*
X160440666Y-108520047D01*
X160393047Y-108615285D01*
X160345428Y-108662904D01*
X160250190Y-108710523D01*
X160012095Y-108710523D01*
X159916857Y-108662904D01*
X159869238Y-108615285D01*
X159821619Y-108520047D01*
X159821619Y-108281952D01*
X159869238Y-108186714D01*
X159916857Y-108139095D01*
X162266380Y-107805761D02*
X162314000Y-107710523D01*
X162409238Y-107615285D01*
X162552095Y-107472428D01*
X162599714Y-107377190D01*
X162599714Y-107281952D01*
X162361619Y-107329571D02*
X162409238Y-107234333D01*
X162504476Y-107139095D01*
X162694952Y-107091476D01*
X163028285Y-107091476D01*
X163218761Y-107139095D01*
X163314000Y-107234333D01*
X163361619Y-107329571D01*
X163361619Y-107520047D01*
X163314000Y-107615285D01*
X163218761Y-107710523D01*
X163028285Y-107758142D01*
X162694952Y-107758142D01*
X162504476Y-107710523D01*
X162409238Y-107615285D01*
X162361619Y-107520047D01*
X162361619Y-107329571D01*
X163028285Y-108615285D02*
X162361619Y-108615285D01*
X163409238Y-108377190D02*
X162694952Y-108139095D01*
X162694952Y-108758142D01*
X164806380Y-107805761D02*
X164854000Y-107710523D01*
X164949238Y-107615285D01*
X165092095Y-107472428D01*
X165139714Y-107377190D01*
X165139714Y-107281952D01*
X164901619Y-107329571D02*
X164949238Y-107234333D01*
X165044476Y-107139095D01*
X165234952Y-107091476D01*
X165568285Y-107091476D01*
X165758761Y-107139095D01*
X165854000Y-107234333D01*
X165901619Y-107329571D01*
X165901619Y-107520047D01*
X165854000Y-107615285D01*
X165758761Y-107710523D01*
X165568285Y-107758142D01*
X165234952Y-107758142D01*
X165044476Y-107710523D01*
X164949238Y-107615285D01*
X164901619Y-107520047D01*
X164901619Y-107329571D01*
X165901619Y-108091476D02*
X165901619Y-108710523D01*
X165520666Y-108377190D01*
X165520666Y-108520047D01*
X165473047Y-108615285D01*
X165425428Y-108662904D01*
X165330190Y-108710523D01*
X165092095Y-108710523D01*
X164996857Y-108662904D01*
X164949238Y-108615285D01*
X164901619Y-108520047D01*
X164901619Y-108234333D01*
X164949238Y-108139095D01*
X164996857Y-108091476D01*
X167346380Y-107805761D02*
X167394000Y-107710523D01*
X167489238Y-107615285D01*
X167632095Y-107472428D01*
X167679714Y-107377190D01*
X167679714Y-107281952D01*
X167441619Y-107329571D02*
X167489238Y-107234333D01*
X167584476Y-107139095D01*
X167774952Y-107091476D01*
X168108285Y-107091476D01*
X168298761Y-107139095D01*
X168394000Y-107234333D01*
X168441619Y-107329571D01*
X168441619Y-107520047D01*
X168394000Y-107615285D01*
X168298761Y-107710523D01*
X168108285Y-107758142D01*
X167774952Y-107758142D01*
X167584476Y-107710523D01*
X167489238Y-107615285D01*
X167441619Y-107520047D01*
X167441619Y-107329571D01*
X168346380Y-108139095D02*
X168394000Y-108186714D01*
X168441619Y-108281952D01*
X168441619Y-108520047D01*
X168394000Y-108615285D01*
X168346380Y-108662904D01*
X168251142Y-108710523D01*
X168155904Y-108710523D01*
X168013047Y-108662904D01*
X167441619Y-108091476D01*
X167441619Y-108710523D01*
X169886380Y-107805761D02*
X169934000Y-107710523D01*
X170029238Y-107615285D01*
X170172095Y-107472428D01*
X170219714Y-107377190D01*
X170219714Y-107281952D01*
X169981619Y-107329571D02*
X170029238Y-107234333D01*
X170124476Y-107139095D01*
X170314952Y-107091476D01*
X170648285Y-107091476D01*
X170838761Y-107139095D01*
X170934000Y-107234333D01*
X170981619Y-107329571D01*
X170981619Y-107520047D01*
X170934000Y-107615285D01*
X170838761Y-107710523D01*
X170648285Y-107758142D01*
X170314952Y-107758142D01*
X170124476Y-107710523D01*
X170029238Y-107615285D01*
X169981619Y-107520047D01*
X169981619Y-107329571D01*
X169981619Y-108710523D02*
X169981619Y-108139095D01*
X169981619Y-108424809D02*
X170981619Y-108424809D01*
X170838761Y-108329571D01*
X170743523Y-108234333D01*
X170695904Y-108139095D01*
X172426380Y-107805761D02*
X172474000Y-107710523D01*
X172569238Y-107615285D01*
X172712095Y-107472428D01*
X172759714Y-107377190D01*
X172759714Y-107281952D01*
X172521619Y-107329571D02*
X172569238Y-107234333D01*
X172664476Y-107139095D01*
X172854952Y-107091476D01*
X173188285Y-107091476D01*
X173378761Y-107139095D01*
X173474000Y-107234333D01*
X173521619Y-107329571D01*
X173521619Y-107520047D01*
X173474000Y-107615285D01*
X173378761Y-107710523D01*
X173188285Y-107758142D01*
X172854952Y-107758142D01*
X172664476Y-107710523D01*
X172569238Y-107615285D01*
X172521619Y-107520047D01*
X172521619Y-107329571D01*
X173521619Y-108377190D02*
X173521619Y-108472428D01*
X173474000Y-108567666D01*
X173426380Y-108615285D01*
X173331142Y-108662904D01*
X173140666Y-108710523D01*
X172902571Y-108710523D01*
X172712095Y-108662904D01*
X172616857Y-108615285D01*
X172569238Y-108567666D01*
X172521619Y-108472428D01*
X172521619Y-108377190D01*
X172569238Y-108281952D01*
X172616857Y-108234333D01*
X172712095Y-108186714D01*
X172902571Y-108139095D01*
X173140666Y-108139095D01*
X173331142Y-108186714D01*
X173426380Y-108234333D01*
X173474000Y-108281952D01*
X173521619Y-108377190D01*
X176364000Y-106973809D02*
X176364000Y-108021428D01*
X176061619Y-107402380D02*
X176061619Y-107592857D01*
X176014000Y-107688095D01*
X175918761Y-107783333D01*
X175728285Y-107830952D01*
X175394952Y-107830952D01*
X175204476Y-107783333D01*
X175109238Y-107688095D01*
X175061619Y-107592857D01*
X175061619Y-107402380D01*
X175109238Y-107307142D01*
X175204476Y-107211904D01*
X175394952Y-107164285D01*
X175728285Y-107164285D01*
X175918761Y-107211904D01*
X176014000Y-107307142D01*
X176061619Y-107402380D01*
X176364000Y-108021428D02*
X176364000Y-108926190D01*
X175585428Y-108259523D02*
X175585428Y-108592857D01*
X175061619Y-108735714D02*
X175061619Y-108259523D01*
X176061619Y-108259523D01*
X176061619Y-108735714D01*
D12*
%TO.C,R8*%
X186155000Y-119406936D02*
X186155000Y-119861064D01*
X184685000Y-119406936D02*
X184685000Y-119861064D01*
%TO.C,R7*%
X183869000Y-119406936D02*
X183869000Y-119861064D01*
X182399000Y-119406936D02*
X182399000Y-119861064D01*
%TO.C,R6*%
X181583000Y-119406936D02*
X181583000Y-119861064D01*
X180113000Y-119406936D02*
X180113000Y-119861064D01*
%TO.C,R5*%
X179297000Y-119406936D02*
X179297000Y-119861064D01*
X177827000Y-119406936D02*
X177827000Y-119861064D01*
%TO.C,R4*%
X177011000Y-119406936D02*
X177011000Y-119861064D01*
X175541000Y-119406936D02*
X175541000Y-119861064D01*
%TO.C,R3*%
X174725000Y-119406936D02*
X174725000Y-119861064D01*
X173255000Y-119406936D02*
X173255000Y-119861064D01*
%TO.C,R2*%
X172439000Y-119406936D02*
X172439000Y-119861064D01*
X170969000Y-119406936D02*
X170969000Y-119861064D01*
%TO.C,R1*%
X170153000Y-119406936D02*
X170153000Y-119861064D01*
X168683000Y-119406936D02*
X168683000Y-119861064D01*
%TO.C,D8*%
X184460000Y-114824000D02*
X184460000Y-117509000D01*
X184460000Y-117509000D02*
X186380000Y-117509000D01*
X186380000Y-117509000D02*
X186380000Y-114824000D01*
%TO.C,D7*%
X182174000Y-114824000D02*
X182174000Y-117509000D01*
X182174000Y-117509000D02*
X184094000Y-117509000D01*
X184094000Y-117509000D02*
X184094000Y-114824000D01*
%TO.C,D6*%
X179888000Y-114824000D02*
X179888000Y-117509000D01*
X179888000Y-117509000D02*
X181808000Y-117509000D01*
X181808000Y-117509000D02*
X181808000Y-114824000D01*
%TO.C,D5*%
X177602000Y-114824000D02*
X177602000Y-117509000D01*
X177602000Y-117509000D02*
X179522000Y-117509000D01*
X179522000Y-117509000D02*
X179522000Y-114824000D01*
%TO.C,D4*%
X175316000Y-114824000D02*
X175316000Y-117509000D01*
X175316000Y-117509000D02*
X177236000Y-117509000D01*
X177236000Y-117509000D02*
X177236000Y-114824000D01*
%TO.C,D3*%
X173030000Y-114824000D02*
X173030000Y-117509000D01*
X173030000Y-117509000D02*
X174950000Y-117509000D01*
X174950000Y-117509000D02*
X174950000Y-114824000D01*
%TO.C,D2*%
X170744000Y-114824000D02*
X170744000Y-117509000D01*
X170744000Y-117509000D02*
X172664000Y-117509000D01*
X172664000Y-117509000D02*
X172664000Y-114824000D01*
%TO.C,D1*%
X168458000Y-114824000D02*
X168458000Y-117509000D01*
X168458000Y-117509000D02*
X170378000Y-117509000D01*
X170378000Y-117509000D02*
X170378000Y-114824000D01*
%TO.C,C1*%
X156237000Y-114881252D02*
X156237000Y-114358748D01*
X157707000Y-114881252D02*
X157707000Y-114358748D01*
%TO.C,U1*%
X165195000Y-117856000D02*
X165195000Y-115656000D01*
X165195000Y-117856000D02*
X165195000Y-120056000D01*
X158425000Y-117856000D02*
X158425000Y-115656000D01*
X158425000Y-117856000D02*
X158425000Y-121456000D01*
%TO.C,U8*%
X140900000Y-118110000D02*
X140900000Y-121710000D01*
X140900000Y-118110000D02*
X140900000Y-115910000D01*
X146120000Y-118110000D02*
X146120000Y-120310000D01*
X146120000Y-118110000D02*
X146120000Y-115910000D01*
%TO.C,U7*%
X150044000Y-118110000D02*
X150044000Y-121710000D01*
X150044000Y-118110000D02*
X150044000Y-115910000D01*
X155264000Y-118110000D02*
X155264000Y-120310000D01*
X155264000Y-118110000D02*
X155264000Y-115910000D01*
%TO.C,U1*%
D10*
X165822380Y-121117904D02*
X165822380Y-120451238D01*
X166822380Y-120879809D01*
X166155714Y-119641714D02*
X166822380Y-119641714D01*
X165774761Y-119879809D02*
X166489047Y-120117904D01*
X166489047Y-119498857D01*
X166727142Y-118546476D02*
X166774761Y-118594095D01*
X166822380Y-118736952D01*
X166822380Y-118832190D01*
X166774761Y-118975047D01*
X166679523Y-119070285D01*
X166584285Y-119117904D01*
X166393809Y-119165523D01*
X166250952Y-119165523D01*
X166060476Y-119117904D01*
X165965238Y-119070285D01*
X165870000Y-118975047D01*
X165822380Y-118832190D01*
X165822380Y-118736952D01*
X165870000Y-118594095D01*
X165917619Y-118546476D01*
X166822380Y-118117904D02*
X165822380Y-118117904D01*
X166298571Y-118117904D02*
X166298571Y-117546476D01*
X166822380Y-117546476D02*
X165822380Y-117546476D01*
X165917619Y-117117904D02*
X165870000Y-117070285D01*
X165822380Y-116975047D01*
X165822380Y-116736952D01*
X165870000Y-116641714D01*
X165917619Y-116594095D01*
X166012857Y-116546476D01*
X166108095Y-116546476D01*
X166250952Y-116594095D01*
X166822380Y-117165523D01*
X166822380Y-116546476D01*
X166155714Y-115689333D02*
X166822380Y-115689333D01*
X165774761Y-115927428D02*
X166489047Y-116165523D01*
X166489047Y-115546476D01*
X165822380Y-114689333D02*
X165822380Y-115165523D01*
X166298571Y-115213142D01*
X166250952Y-115165523D01*
X166203333Y-115070285D01*
X166203333Y-114832190D01*
X166250952Y-114736952D01*
X166298571Y-114689333D01*
X166393809Y-114641714D01*
X166631904Y-114641714D01*
X166727142Y-114689333D01*
X166774761Y-114736952D01*
X166822380Y-114832190D01*
X166822380Y-115070285D01*
X166774761Y-115165523D01*
X166727142Y-115213142D01*
%TO.C,U8*%
X146566000Y-119014761D02*
X146518380Y-119110000D01*
X146518380Y-119252857D01*
X146566000Y-119395714D01*
X146661238Y-119490952D01*
X146756476Y-119538571D01*
X146946952Y-119586190D01*
X147089809Y-119586190D01*
X147280285Y-119538571D01*
X147375523Y-119490952D01*
X147470761Y-119395714D01*
X147518380Y-119252857D01*
X147518380Y-119157619D01*
X147470761Y-119014761D01*
X147423142Y-118967142D01*
X147089809Y-118967142D01*
X147089809Y-119157619D01*
X147518380Y-118110000D02*
X146994571Y-118110000D01*
X146899333Y-118157619D01*
X146851714Y-118252857D01*
X146851714Y-118443333D01*
X146899333Y-118538571D01*
X147470761Y-118110000D02*
X147518380Y-118205238D01*
X147518380Y-118443333D01*
X147470761Y-118538571D01*
X147375523Y-118586190D01*
X147280285Y-118586190D01*
X147185047Y-118538571D01*
X147137428Y-118443333D01*
X147137428Y-118205238D01*
X147089809Y-118110000D01*
X146851714Y-117776666D02*
X146851714Y-117395714D01*
X146518380Y-117633809D02*
X147375523Y-117633809D01*
X147470761Y-117586190D01*
X147518380Y-117490952D01*
X147518380Y-117395714D01*
X147470761Y-116681428D02*
X147518380Y-116776666D01*
X147518380Y-116967142D01*
X147470761Y-117062380D01*
X147375523Y-117110000D01*
X146994571Y-117110000D01*
X146899333Y-117062380D01*
X146851714Y-116967142D01*
X146851714Y-116776666D01*
X146899333Y-116681428D01*
X146994571Y-116633809D01*
X147089809Y-116633809D01*
X147185047Y-117110000D01*
%TO.C,U7*%
X155710000Y-119014761D02*
X155662380Y-119110000D01*
X155662380Y-119252857D01*
X155710000Y-119395714D01*
X155805238Y-119490952D01*
X155900476Y-119538571D01*
X156090952Y-119586190D01*
X156233809Y-119586190D01*
X156424285Y-119538571D01*
X156519523Y-119490952D01*
X156614761Y-119395714D01*
X156662380Y-119252857D01*
X156662380Y-119157619D01*
X156614761Y-119014761D01*
X156567142Y-118967142D01*
X156233809Y-118967142D01*
X156233809Y-119157619D01*
X156662380Y-118110000D02*
X156138571Y-118110000D01*
X156043333Y-118157619D01*
X155995714Y-118252857D01*
X155995714Y-118443333D01*
X156043333Y-118538571D01*
X156614761Y-118110000D02*
X156662380Y-118205238D01*
X156662380Y-118443333D01*
X156614761Y-118538571D01*
X156519523Y-118586190D01*
X156424285Y-118586190D01*
X156329047Y-118538571D01*
X156281428Y-118443333D01*
X156281428Y-118205238D01*
X156233809Y-118110000D01*
X155995714Y-117776666D02*
X155995714Y-117395714D01*
X155662380Y-117633809D02*
X156519523Y-117633809D01*
X156614761Y-117586190D01*
X156662380Y-117490952D01*
X156662380Y-117395714D01*
X156614761Y-116681428D02*
X156662380Y-116776666D01*
X156662380Y-116967142D01*
X156614761Y-117062380D01*
X156519523Y-117110000D01*
X156138571Y-117110000D01*
X156043333Y-117062380D01*
X155995714Y-116967142D01*
X155995714Y-116776666D01*
X156043333Y-116681428D01*
X156138571Y-116633809D01*
X156233809Y-116633809D01*
X156329047Y-117110000D01*
%TD*%
M02*
