%TF.GenerationSoftware,KiCad,Pcbnew,(6.0.0-0)*%
%TF.CreationDate,2022-01-17T21:16:48-05:00*%
%TF.ProjectId,Modules,4d6f6475-6c65-4732-9e6b-696361645f70,rev?*%
%TF.SameCoordinates,Original*%
%TF.FileFunction,Legend,Bot*%
%TF.FilePolarity,Positive*%
%FSLAX46Y46*%
G04 Gerber Fmt 4.6, Leading zero omitted, Abs format (unit mm)*
G04 Created by KiCad (PCBNEW (6.0.0-0)) date 2022-01-17 21:16:48*
%MOMM*%
%LPD*%
G01*
G04 APERTURE LIST*
%ADD10C,0.100000*%
%ADD11C,0.120000*%
G04 APERTURE END LIST*
D10*
X237322619Y-87194047D02*
X236608333Y-87194047D01*
X236465476Y-87241666D01*
X236370238Y-87336904D01*
X236322619Y-87479761D01*
X236322619Y-87575000D01*
X236322619Y-86241666D02*
X236322619Y-86717857D01*
X237322619Y-86717857D01*
X236417857Y-85336904D02*
X236370238Y-85384523D01*
X236322619Y-85527380D01*
X236322619Y-85622619D01*
X236370238Y-85765476D01*
X236465476Y-85860714D01*
X236560714Y-85908333D01*
X236751190Y-85955952D01*
X236894047Y-85955952D01*
X237084523Y-85908333D01*
X237179761Y-85860714D01*
X237275000Y-85765476D01*
X237322619Y-85622619D01*
X237322619Y-85527380D01*
X237275000Y-85384523D01*
X237227380Y-85336904D01*
X237322619Y-84622619D02*
X236608333Y-84622619D01*
X236465476Y-84670238D01*
X236370238Y-84765476D01*
X236322619Y-84908333D01*
X236322619Y-85003571D01*
X236322619Y-83670238D02*
X236322619Y-84146428D01*
X237322619Y-84146428D01*
X236417857Y-82765476D02*
X236370238Y-82813095D01*
X236322619Y-82955952D01*
X236322619Y-83051190D01*
X236370238Y-83194047D01*
X236465476Y-83289285D01*
X236560714Y-83336904D01*
X236751190Y-83384523D01*
X236894047Y-83384523D01*
X237084523Y-83336904D01*
X237179761Y-83289285D01*
X237275000Y-83194047D01*
X237322619Y-83051190D01*
X237322619Y-82955952D01*
X237275000Y-82813095D01*
X237227380Y-82765476D01*
X237322619Y-82051190D02*
X236608333Y-82051190D01*
X236465476Y-82098809D01*
X236370238Y-82194047D01*
X236322619Y-82336904D01*
X236322619Y-82432142D01*
X236322619Y-81098809D02*
X236322619Y-81575000D01*
X237322619Y-81575000D01*
X236417857Y-80194047D02*
X236370238Y-80241666D01*
X236322619Y-80384523D01*
X236322619Y-80479761D01*
X236370238Y-80622619D01*
X236465476Y-80717857D01*
X236560714Y-80765476D01*
X236751190Y-80813095D01*
X236894047Y-80813095D01*
X237084523Y-80765476D01*
X237179761Y-80717857D01*
X237275000Y-80622619D01*
X237322619Y-80479761D01*
X237322619Y-80384523D01*
X237275000Y-80241666D01*
X237227380Y-80194047D01*
X237322619Y-79479761D02*
X236608333Y-79479761D01*
X236465476Y-79527380D01*
X236370238Y-79622619D01*
X236322619Y-79765476D01*
X236322619Y-79860714D01*
X236322619Y-78527380D02*
X236322619Y-79003571D01*
X237322619Y-79003571D01*
X236417857Y-77622619D02*
X236370238Y-77670238D01*
X236322619Y-77813095D01*
X236322619Y-77908333D01*
X236370238Y-78051190D01*
X236465476Y-78146428D01*
X236560714Y-78194047D01*
X236751190Y-78241666D01*
X236894047Y-78241666D01*
X237084523Y-78194047D01*
X237179761Y-78146428D01*
X237275000Y-78051190D01*
X237322619Y-77908333D01*
X237322619Y-77813095D01*
X237275000Y-77670238D01*
X237227380Y-77622619D01*
D11*
%TO.C,J1*%
X237180000Y-102825000D02*
X237180000Y-101495000D01*
X234580000Y-104155000D02*
X234580000Y-101495000D01*
X196420000Y-104155000D02*
X196420000Y-101495000D01*
X234580000Y-104155000D02*
X196420000Y-104155000D01*
X234580000Y-101495000D02*
X196420000Y-101495000D01*
X237180000Y-101495000D02*
X235850000Y-101495000D01*
%TO.C,JC*%
X234710000Y-62420000D02*
X234710000Y-65080000D01*
X204170000Y-62420000D02*
X234710000Y-62420000D01*
X204170000Y-65080000D02*
X234710000Y-65080000D01*
X201570000Y-65080000D02*
X202900000Y-65080000D01*
X201570000Y-63750000D02*
X201570000Y-65080000D01*
X204170000Y-62420000D02*
X204170000Y-65080000D01*
%TD*%
M02*
