%TF.GenerationSoftware,KiCad,Pcbnew,(5.1.10-1-10_14)*%
%TF.CreationDate,2021-10-26T13:01:21-04:00*%
%TF.ProjectId,SMD-board-panelize,534d442d-626f-4617-9264-2d70616e656c,rev?*%
%TF.SameCoordinates,Original*%
%TF.FileFunction,Paste,Top*%
%TF.FilePolarity,Positive*%
%FSLAX46Y46*%
G04 Gerber Fmt 4.6, Leading zero omitted, Abs format (unit mm)*
G04 Created by KiCad (PCBNEW (5.1.10-1-10_14)) date 2021-10-26 13:01:21*
%MOMM*%
%LPD*%
G01*
G04 APERTURE LIST*
%ADD10C,0.250000*%
%ADD11R,0.900000X1.000000*%
%ADD12R,1.700000X0.550000*%
%ADD13R,1.220000X0.650000*%
%ADD14R,1.900000X0.800000*%
%ADD15R,0.900000X0.800000*%
%ADD16R,2.000000X1.800000*%
%ADD17R,1.980000X3.000000*%
%ADD18R,1.800000X2.000000*%
%ADD19R,1.950000X1.650000*%
%ADD20R,1.300000X1.100000*%
%ADD21R,0.650000X0.850000*%
%ADD22R,0.500000X0.600000*%
%ADD23R,1.550000X1.300000*%
%ADD24R,1.550000X1.000000*%
%ADD25R,3.000000X1.000000*%
%ADD26R,1.300000X1.300000*%
%ADD27R,2.000000X1.300000*%
%ADD28R,2.000000X2.000000*%
%ADD29R,1.500000X1.600000*%
%ADD30R,1.200000X1.200000*%
%ADD31R,4.000000X2.000000*%
%ADD32R,1.200000X1.750000*%
%ADD33R,1.600000X1.750000*%
%ADD34R,1.300000X2.000000*%
%ADD35R,1.300000X1.900000*%
%ADD36R,2.000000X1.900000*%
%ADD37R,1.300000X1.600000*%
%ADD38R,2.000000X1.600000*%
%ADD39R,2.200000X1.600000*%
%ADD40R,0.500000X0.500000*%
%ADD41R,1.000000X1.500000*%
%ADD42R,0.850000X1.600000*%
%ADD43R,0.600000X1.000000*%
%ADD44R,1.600000X2.600000*%
%ADD45R,1.100000X2.000000*%
%ADD46R,1.500000X0.600000*%
%ADD47R,1.100000X0.250000*%
G04 APERTURE END LIST*
D10*
%TO.C,REF\u002A\u002A*%
X170660000Y75760000D03*
X170660000Y75360000D03*
X170660000Y74960000D03*
X171060000Y75760000D03*
X171060000Y75360000D03*
X171060000Y74960000D03*
%TD*%
%TO.C,REF\u002A\u002A*%
G36*
G01*
X89470000Y111290000D02*
X89470000Y112890000D01*
G75*
G02*
X89670000Y113090000I200000J0D01*
G01*
X90070000Y113090000D01*
G75*
G02*
X90270000Y112890000I0J-200000D01*
G01*
X90270000Y111290000D01*
G75*
G02*
X90070000Y111090000I-200000J0D01*
G01*
X89670000Y111090000D01*
G75*
G02*
X89470000Y111290000I0J200000D01*
G01*
G37*
G36*
G01*
X93670000Y111290000D02*
X93670000Y112890000D01*
G75*
G02*
X93870000Y113090000I200000J0D01*
G01*
X94270000Y113090000D01*
G75*
G02*
X94470000Y112890000I0J-200000D01*
G01*
X94470000Y111290000D01*
G75*
G02*
X94270000Y111090000I-200000J0D01*
G01*
X93870000Y111090000D01*
G75*
G02*
X93670000Y111290000I0J200000D01*
G01*
G37*
%TD*%
D11*
%TO.C,REF\u002A\u002A*%
X94070000Y107290000D03*
X94070000Y108890000D03*
X89970000Y107290000D03*
X89970000Y108890000D03*
%TD*%
D12*
%TO.C,REF\u002A\u002A*%
X91970000Y117385000D03*
D11*
X89920000Y116760000D03*
X89920000Y115160000D03*
X94020000Y116760000D03*
X94020000Y115160000D03*
%TD*%
%TO.C,REF\u002A\u002A*%
G36*
G01*
X133175000Y152042500D02*
X133175000Y152317500D01*
G75*
G02*
X133312500Y152455000I137500J0D01*
G01*
X134562500Y152455000D01*
G75*
G02*
X134700000Y152317500I0J-137500D01*
G01*
X134700000Y152042500D01*
G75*
G02*
X134562500Y151905000I-137500J0D01*
G01*
X133312500Y151905000D01*
G75*
G02*
X133175000Y152042500I0J137500D01*
G01*
G37*
G36*
G01*
X133175000Y151242500D02*
X133175000Y151517500D01*
G75*
G02*
X133312500Y151655000I137500J0D01*
G01*
X134562500Y151655000D01*
G75*
G02*
X134700000Y151517500I0J-137500D01*
G01*
X134700000Y151242500D01*
G75*
G02*
X134562500Y151105000I-137500J0D01*
G01*
X133312500Y151105000D01*
G75*
G02*
X133175000Y151242500I0J137500D01*
G01*
G37*
G36*
G01*
X133175000Y150442500D02*
X133175000Y150717500D01*
G75*
G02*
X133312500Y150855000I137500J0D01*
G01*
X134562500Y150855000D01*
G75*
G02*
X134700000Y150717500I0J-137500D01*
G01*
X134700000Y150442500D01*
G75*
G02*
X134562500Y150305000I-137500J0D01*
G01*
X133312500Y150305000D01*
G75*
G02*
X133175000Y150442500I0J137500D01*
G01*
G37*
G36*
G01*
X133175000Y149642500D02*
X133175000Y149917500D01*
G75*
G02*
X133312500Y150055000I137500J0D01*
G01*
X134562500Y150055000D01*
G75*
G02*
X134700000Y149917500I0J-137500D01*
G01*
X134700000Y149642500D01*
G75*
G02*
X134562500Y149505000I-137500J0D01*
G01*
X133312500Y149505000D01*
G75*
G02*
X133175000Y149642500I0J137500D01*
G01*
G37*
G36*
G01*
X133175000Y148842500D02*
X133175000Y149117500D01*
G75*
G02*
X133312500Y149255000I137500J0D01*
G01*
X134562500Y149255000D01*
G75*
G02*
X134700000Y149117500I0J-137500D01*
G01*
X134700000Y148842500D01*
G75*
G02*
X134562500Y148705000I-137500J0D01*
G01*
X133312500Y148705000D01*
G75*
G02*
X133175000Y148842500I0J137500D01*
G01*
G37*
G36*
G01*
X133175000Y148042500D02*
X133175000Y148317500D01*
G75*
G02*
X133312500Y148455000I137500J0D01*
G01*
X134562500Y148455000D01*
G75*
G02*
X134700000Y148317500I0J-137500D01*
G01*
X134700000Y148042500D01*
G75*
G02*
X134562500Y147905000I-137500J0D01*
G01*
X133312500Y147905000D01*
G75*
G02*
X133175000Y148042500I0J137500D01*
G01*
G37*
G36*
G01*
X133175000Y147242500D02*
X133175000Y147517500D01*
G75*
G02*
X133312500Y147655000I137500J0D01*
G01*
X134562500Y147655000D01*
G75*
G02*
X134700000Y147517500I0J-137500D01*
G01*
X134700000Y147242500D01*
G75*
G02*
X134562500Y147105000I-137500J0D01*
G01*
X133312500Y147105000D01*
G75*
G02*
X133175000Y147242500I0J137500D01*
G01*
G37*
G36*
G01*
X133175000Y146442500D02*
X133175000Y146717500D01*
G75*
G02*
X133312500Y146855000I137500J0D01*
G01*
X134562500Y146855000D01*
G75*
G02*
X134700000Y146717500I0J-137500D01*
G01*
X134700000Y146442500D01*
G75*
G02*
X134562500Y146305000I-137500J0D01*
G01*
X133312500Y146305000D01*
G75*
G02*
X133175000Y146442500I0J137500D01*
G01*
G37*
G36*
G01*
X133175000Y145642500D02*
X133175000Y145917500D01*
G75*
G02*
X133312500Y146055000I137500J0D01*
G01*
X134562500Y146055000D01*
G75*
G02*
X134700000Y145917500I0J-137500D01*
G01*
X134700000Y145642500D01*
G75*
G02*
X134562500Y145505000I-137500J0D01*
G01*
X133312500Y145505000D01*
G75*
G02*
X133175000Y145642500I0J137500D01*
G01*
G37*
G36*
G01*
X133175000Y144842500D02*
X133175000Y145117500D01*
G75*
G02*
X133312500Y145255000I137500J0D01*
G01*
X134562500Y145255000D01*
G75*
G02*
X134700000Y145117500I0J-137500D01*
G01*
X134700000Y144842500D01*
G75*
G02*
X134562500Y144705000I-137500J0D01*
G01*
X133312500Y144705000D01*
G75*
G02*
X133175000Y144842500I0J137500D01*
G01*
G37*
G36*
G01*
X133175000Y144042500D02*
X133175000Y144317500D01*
G75*
G02*
X133312500Y144455000I137500J0D01*
G01*
X134562500Y144455000D01*
G75*
G02*
X134700000Y144317500I0J-137500D01*
G01*
X134700000Y144042500D01*
G75*
G02*
X134562500Y143905000I-137500J0D01*
G01*
X133312500Y143905000D01*
G75*
G02*
X133175000Y144042500I0J137500D01*
G01*
G37*
G36*
G01*
X133175000Y143242500D02*
X133175000Y143517500D01*
G75*
G02*
X133312500Y143655000I137500J0D01*
G01*
X134562500Y143655000D01*
G75*
G02*
X134700000Y143517500I0J-137500D01*
G01*
X134700000Y143242500D01*
G75*
G02*
X134562500Y143105000I-137500J0D01*
G01*
X133312500Y143105000D01*
G75*
G02*
X133175000Y143242500I0J137500D01*
G01*
G37*
G36*
G01*
X133175000Y142442500D02*
X133175000Y142717500D01*
G75*
G02*
X133312500Y142855000I137500J0D01*
G01*
X134562500Y142855000D01*
G75*
G02*
X134700000Y142717500I0J-137500D01*
G01*
X134700000Y142442500D01*
G75*
G02*
X134562500Y142305000I-137500J0D01*
G01*
X133312500Y142305000D01*
G75*
G02*
X133175000Y142442500I0J137500D01*
G01*
G37*
G36*
G01*
X133175000Y141642500D02*
X133175000Y141917500D01*
G75*
G02*
X133312500Y142055000I137500J0D01*
G01*
X134562500Y142055000D01*
G75*
G02*
X134700000Y141917500I0J-137500D01*
G01*
X134700000Y141642500D01*
G75*
G02*
X134562500Y141505000I-137500J0D01*
G01*
X133312500Y141505000D01*
G75*
G02*
X133175000Y141642500I0J137500D01*
G01*
G37*
G36*
G01*
X133175000Y140842500D02*
X133175000Y141117500D01*
G75*
G02*
X133312500Y141255000I137500J0D01*
G01*
X134562500Y141255000D01*
G75*
G02*
X134700000Y141117500I0J-137500D01*
G01*
X134700000Y140842500D01*
G75*
G02*
X134562500Y140705000I-137500J0D01*
G01*
X133312500Y140705000D01*
G75*
G02*
X133175000Y140842500I0J137500D01*
G01*
G37*
G36*
G01*
X133175000Y140042500D02*
X133175000Y140317500D01*
G75*
G02*
X133312500Y140455000I137500J0D01*
G01*
X134562500Y140455000D01*
G75*
G02*
X134700000Y140317500I0J-137500D01*
G01*
X134700000Y140042500D01*
G75*
G02*
X134562500Y139905000I-137500J0D01*
G01*
X133312500Y139905000D01*
G75*
G02*
X133175000Y140042500I0J137500D01*
G01*
G37*
G36*
G01*
X133175000Y139242500D02*
X133175000Y139517500D01*
G75*
G02*
X133312500Y139655000I137500J0D01*
G01*
X134562500Y139655000D01*
G75*
G02*
X134700000Y139517500I0J-137500D01*
G01*
X134700000Y139242500D01*
G75*
G02*
X134562500Y139105000I-137500J0D01*
G01*
X133312500Y139105000D01*
G75*
G02*
X133175000Y139242500I0J137500D01*
G01*
G37*
G36*
G01*
X133175000Y138442500D02*
X133175000Y138717500D01*
G75*
G02*
X133312500Y138855000I137500J0D01*
G01*
X134562500Y138855000D01*
G75*
G02*
X134700000Y138717500I0J-137500D01*
G01*
X134700000Y138442500D01*
G75*
G02*
X134562500Y138305000I-137500J0D01*
G01*
X133312500Y138305000D01*
G75*
G02*
X133175000Y138442500I0J137500D01*
G01*
G37*
G36*
G01*
X133175000Y137642500D02*
X133175000Y137917500D01*
G75*
G02*
X133312500Y138055000I137500J0D01*
G01*
X134562500Y138055000D01*
G75*
G02*
X134700000Y137917500I0J-137500D01*
G01*
X134700000Y137642500D01*
G75*
G02*
X134562500Y137505000I-137500J0D01*
G01*
X133312500Y137505000D01*
G75*
G02*
X133175000Y137642500I0J137500D01*
G01*
G37*
G36*
G01*
X133175000Y136842500D02*
X133175000Y137117500D01*
G75*
G02*
X133312500Y137255000I137500J0D01*
G01*
X134562500Y137255000D01*
G75*
G02*
X134700000Y137117500I0J-137500D01*
G01*
X134700000Y136842500D01*
G75*
G02*
X134562500Y136705000I-137500J0D01*
G01*
X133312500Y136705000D01*
G75*
G02*
X133175000Y136842500I0J137500D01*
G01*
G37*
G36*
G01*
X133175000Y136042500D02*
X133175000Y136317500D01*
G75*
G02*
X133312500Y136455000I137500J0D01*
G01*
X134562500Y136455000D01*
G75*
G02*
X134700000Y136317500I0J-137500D01*
G01*
X134700000Y136042500D01*
G75*
G02*
X134562500Y135905000I-137500J0D01*
G01*
X133312500Y135905000D01*
G75*
G02*
X133175000Y136042500I0J137500D01*
G01*
G37*
G36*
G01*
X133175000Y135242500D02*
X133175000Y135517500D01*
G75*
G02*
X133312500Y135655000I137500J0D01*
G01*
X134562500Y135655000D01*
G75*
G02*
X134700000Y135517500I0J-137500D01*
G01*
X134700000Y135242500D01*
G75*
G02*
X134562500Y135105000I-137500J0D01*
G01*
X133312500Y135105000D01*
G75*
G02*
X133175000Y135242500I0J137500D01*
G01*
G37*
G36*
G01*
X122000000Y135242500D02*
X122000000Y135517500D01*
G75*
G02*
X122137500Y135655000I137500J0D01*
G01*
X123387500Y135655000D01*
G75*
G02*
X123525000Y135517500I0J-137500D01*
G01*
X123525000Y135242500D01*
G75*
G02*
X123387500Y135105000I-137500J0D01*
G01*
X122137500Y135105000D01*
G75*
G02*
X122000000Y135242500I0J137500D01*
G01*
G37*
G36*
G01*
X122000000Y136042500D02*
X122000000Y136317500D01*
G75*
G02*
X122137500Y136455000I137500J0D01*
G01*
X123387500Y136455000D01*
G75*
G02*
X123525000Y136317500I0J-137500D01*
G01*
X123525000Y136042500D01*
G75*
G02*
X123387500Y135905000I-137500J0D01*
G01*
X122137500Y135905000D01*
G75*
G02*
X122000000Y136042500I0J137500D01*
G01*
G37*
G36*
G01*
X122000000Y136842500D02*
X122000000Y137117500D01*
G75*
G02*
X122137500Y137255000I137500J0D01*
G01*
X123387500Y137255000D01*
G75*
G02*
X123525000Y137117500I0J-137500D01*
G01*
X123525000Y136842500D01*
G75*
G02*
X123387500Y136705000I-137500J0D01*
G01*
X122137500Y136705000D01*
G75*
G02*
X122000000Y136842500I0J137500D01*
G01*
G37*
G36*
G01*
X122000000Y137642500D02*
X122000000Y137917500D01*
G75*
G02*
X122137500Y138055000I137500J0D01*
G01*
X123387500Y138055000D01*
G75*
G02*
X123525000Y137917500I0J-137500D01*
G01*
X123525000Y137642500D01*
G75*
G02*
X123387500Y137505000I-137500J0D01*
G01*
X122137500Y137505000D01*
G75*
G02*
X122000000Y137642500I0J137500D01*
G01*
G37*
G36*
G01*
X122000000Y138442500D02*
X122000000Y138717500D01*
G75*
G02*
X122137500Y138855000I137500J0D01*
G01*
X123387500Y138855000D01*
G75*
G02*
X123525000Y138717500I0J-137500D01*
G01*
X123525000Y138442500D01*
G75*
G02*
X123387500Y138305000I-137500J0D01*
G01*
X122137500Y138305000D01*
G75*
G02*
X122000000Y138442500I0J137500D01*
G01*
G37*
G36*
G01*
X122000000Y139242500D02*
X122000000Y139517500D01*
G75*
G02*
X122137500Y139655000I137500J0D01*
G01*
X123387500Y139655000D01*
G75*
G02*
X123525000Y139517500I0J-137500D01*
G01*
X123525000Y139242500D01*
G75*
G02*
X123387500Y139105000I-137500J0D01*
G01*
X122137500Y139105000D01*
G75*
G02*
X122000000Y139242500I0J137500D01*
G01*
G37*
G36*
G01*
X122000000Y140042500D02*
X122000000Y140317500D01*
G75*
G02*
X122137500Y140455000I137500J0D01*
G01*
X123387500Y140455000D01*
G75*
G02*
X123525000Y140317500I0J-137500D01*
G01*
X123525000Y140042500D01*
G75*
G02*
X123387500Y139905000I-137500J0D01*
G01*
X122137500Y139905000D01*
G75*
G02*
X122000000Y140042500I0J137500D01*
G01*
G37*
G36*
G01*
X122000000Y140842500D02*
X122000000Y141117500D01*
G75*
G02*
X122137500Y141255000I137500J0D01*
G01*
X123387500Y141255000D01*
G75*
G02*
X123525000Y141117500I0J-137500D01*
G01*
X123525000Y140842500D01*
G75*
G02*
X123387500Y140705000I-137500J0D01*
G01*
X122137500Y140705000D01*
G75*
G02*
X122000000Y140842500I0J137500D01*
G01*
G37*
G36*
G01*
X122000000Y141642500D02*
X122000000Y141917500D01*
G75*
G02*
X122137500Y142055000I137500J0D01*
G01*
X123387500Y142055000D01*
G75*
G02*
X123525000Y141917500I0J-137500D01*
G01*
X123525000Y141642500D01*
G75*
G02*
X123387500Y141505000I-137500J0D01*
G01*
X122137500Y141505000D01*
G75*
G02*
X122000000Y141642500I0J137500D01*
G01*
G37*
G36*
G01*
X122000000Y142442500D02*
X122000000Y142717500D01*
G75*
G02*
X122137500Y142855000I137500J0D01*
G01*
X123387500Y142855000D01*
G75*
G02*
X123525000Y142717500I0J-137500D01*
G01*
X123525000Y142442500D01*
G75*
G02*
X123387500Y142305000I-137500J0D01*
G01*
X122137500Y142305000D01*
G75*
G02*
X122000000Y142442500I0J137500D01*
G01*
G37*
G36*
G01*
X122000000Y143242500D02*
X122000000Y143517500D01*
G75*
G02*
X122137500Y143655000I137500J0D01*
G01*
X123387500Y143655000D01*
G75*
G02*
X123525000Y143517500I0J-137500D01*
G01*
X123525000Y143242500D01*
G75*
G02*
X123387500Y143105000I-137500J0D01*
G01*
X122137500Y143105000D01*
G75*
G02*
X122000000Y143242500I0J137500D01*
G01*
G37*
G36*
G01*
X122000000Y144042500D02*
X122000000Y144317500D01*
G75*
G02*
X122137500Y144455000I137500J0D01*
G01*
X123387500Y144455000D01*
G75*
G02*
X123525000Y144317500I0J-137500D01*
G01*
X123525000Y144042500D01*
G75*
G02*
X123387500Y143905000I-137500J0D01*
G01*
X122137500Y143905000D01*
G75*
G02*
X122000000Y144042500I0J137500D01*
G01*
G37*
G36*
G01*
X122000000Y144842500D02*
X122000000Y145117500D01*
G75*
G02*
X122137500Y145255000I137500J0D01*
G01*
X123387500Y145255000D01*
G75*
G02*
X123525000Y145117500I0J-137500D01*
G01*
X123525000Y144842500D01*
G75*
G02*
X123387500Y144705000I-137500J0D01*
G01*
X122137500Y144705000D01*
G75*
G02*
X122000000Y144842500I0J137500D01*
G01*
G37*
G36*
G01*
X122000000Y145642500D02*
X122000000Y145917500D01*
G75*
G02*
X122137500Y146055000I137500J0D01*
G01*
X123387500Y146055000D01*
G75*
G02*
X123525000Y145917500I0J-137500D01*
G01*
X123525000Y145642500D01*
G75*
G02*
X123387500Y145505000I-137500J0D01*
G01*
X122137500Y145505000D01*
G75*
G02*
X122000000Y145642500I0J137500D01*
G01*
G37*
G36*
G01*
X122000000Y146442500D02*
X122000000Y146717500D01*
G75*
G02*
X122137500Y146855000I137500J0D01*
G01*
X123387500Y146855000D01*
G75*
G02*
X123525000Y146717500I0J-137500D01*
G01*
X123525000Y146442500D01*
G75*
G02*
X123387500Y146305000I-137500J0D01*
G01*
X122137500Y146305000D01*
G75*
G02*
X122000000Y146442500I0J137500D01*
G01*
G37*
G36*
G01*
X122000000Y147242500D02*
X122000000Y147517500D01*
G75*
G02*
X122137500Y147655000I137500J0D01*
G01*
X123387500Y147655000D01*
G75*
G02*
X123525000Y147517500I0J-137500D01*
G01*
X123525000Y147242500D01*
G75*
G02*
X123387500Y147105000I-137500J0D01*
G01*
X122137500Y147105000D01*
G75*
G02*
X122000000Y147242500I0J137500D01*
G01*
G37*
G36*
G01*
X122000000Y148042500D02*
X122000000Y148317500D01*
G75*
G02*
X122137500Y148455000I137500J0D01*
G01*
X123387500Y148455000D01*
G75*
G02*
X123525000Y148317500I0J-137500D01*
G01*
X123525000Y148042500D01*
G75*
G02*
X123387500Y147905000I-137500J0D01*
G01*
X122137500Y147905000D01*
G75*
G02*
X122000000Y148042500I0J137500D01*
G01*
G37*
G36*
G01*
X122000000Y148842500D02*
X122000000Y149117500D01*
G75*
G02*
X122137500Y149255000I137500J0D01*
G01*
X123387500Y149255000D01*
G75*
G02*
X123525000Y149117500I0J-137500D01*
G01*
X123525000Y148842500D01*
G75*
G02*
X123387500Y148705000I-137500J0D01*
G01*
X122137500Y148705000D01*
G75*
G02*
X122000000Y148842500I0J137500D01*
G01*
G37*
G36*
G01*
X122000000Y149642500D02*
X122000000Y149917500D01*
G75*
G02*
X122137500Y150055000I137500J0D01*
G01*
X123387500Y150055000D01*
G75*
G02*
X123525000Y149917500I0J-137500D01*
G01*
X123525000Y149642500D01*
G75*
G02*
X123387500Y149505000I-137500J0D01*
G01*
X122137500Y149505000D01*
G75*
G02*
X122000000Y149642500I0J137500D01*
G01*
G37*
G36*
G01*
X122000000Y150442500D02*
X122000000Y150717500D01*
G75*
G02*
X122137500Y150855000I137500J0D01*
G01*
X123387500Y150855000D01*
G75*
G02*
X123525000Y150717500I0J-137500D01*
G01*
X123525000Y150442500D01*
G75*
G02*
X123387500Y150305000I-137500J0D01*
G01*
X122137500Y150305000D01*
G75*
G02*
X122000000Y150442500I0J137500D01*
G01*
G37*
G36*
G01*
X122000000Y151242500D02*
X122000000Y151517500D01*
G75*
G02*
X122137500Y151655000I137500J0D01*
G01*
X123387500Y151655000D01*
G75*
G02*
X123525000Y151517500I0J-137500D01*
G01*
X123525000Y151242500D01*
G75*
G02*
X123387500Y151105000I-137500J0D01*
G01*
X122137500Y151105000D01*
G75*
G02*
X122000000Y151242500I0J137500D01*
G01*
G37*
G36*
G01*
X122000000Y152042500D02*
X122000000Y152317500D01*
G75*
G02*
X122137500Y152455000I137500J0D01*
G01*
X123387500Y152455000D01*
G75*
G02*
X123525000Y152317500I0J-137500D01*
G01*
X123525000Y152042500D01*
G75*
G02*
X123387500Y151905000I-137500J0D01*
G01*
X122137500Y151905000D01*
G75*
G02*
X122000000Y152042500I0J137500D01*
G01*
G37*
%TD*%
D13*
%TO.C,REF\u002A\u002A*%
X202540000Y125180000D03*
X202540000Y123280000D03*
X199920000Y123280000D03*
X199920000Y124230000D03*
X199920000Y125180000D03*
%TD*%
%TO.C,REF\u002A\u002A*%
X202570000Y128040000D03*
X199950000Y127090000D03*
X199950000Y128990000D03*
%TD*%
D14*
%TO.C,REF\u002A\u002A*%
X203280000Y131830000D03*
X200280000Y130880000D03*
X200280000Y132780000D03*
%TD*%
D15*
%TO.C,REF\u002A\u002A*%
X201770000Y135790000D03*
X199770000Y134840000D03*
X199770000Y136740000D03*
%TD*%
D16*
%TO.C,REF\u002A\u002A*%
X211022000Y80682000D03*
X206622000Y80682000D03*
X211022000Y85762000D03*
X206622000Y85762000D03*
%TD*%
D17*
%TO.C,REF\u002A\u002A*%
X198472000Y85182000D03*
X203732000Y85182000D03*
X203732000Y80182000D03*
X198472000Y80182000D03*
%TD*%
D18*
%TO.C,REF\u002A\u002A*%
X190482000Y85722000D03*
X195562000Y85722000D03*
X195562000Y81722000D03*
X190482000Y81722000D03*
%TD*%
D19*
%TO.C,REF\u002A\u002A*%
X203719000Y92910000D03*
X206469000Y92910000D03*
X206469000Y90710000D03*
X203719000Y90710000D03*
%TD*%
D20*
%TO.C,REF\u002A\u002A*%
X199174000Y93155000D03*
X201274000Y93155000D03*
X201274000Y91505000D03*
X199174000Y91505000D03*
%TD*%
D21*
%TO.C,REF\u002A\u002A*%
X195629000Y93375000D03*
X197279000Y93375000D03*
X197279000Y91825000D03*
X195629000Y91825000D03*
%TD*%
D22*
%TO.C,REF\u002A\u002A*%
X194130000Y93506000D03*
X194130000Y92406000D03*
X193330000Y92406000D03*
X193330000Y93506000D03*
%TD*%
D23*
%TO.C,REF\u002A\u002A*%
X76105000Y100020000D03*
X76105000Y104520000D03*
X68155000Y104520000D03*
X68155000Y100020000D03*
%TD*%
D24*
%TO.C,REF\u002A\u002A*%
X73710000Y109320000D03*
X68460000Y109320000D03*
X68460000Y107620000D03*
X73710000Y107620000D03*
%TD*%
D25*
%TO.C,REF\u002A\u002A*%
X87200000Y100370000D03*
X79200000Y100370000D03*
X79200000Y102910000D03*
X87200000Y105450000D03*
X79200000Y105450000D03*
%TD*%
%TO.C,REF\u002A\u002A*%
X85300000Y111190000D03*
X77300000Y111190000D03*
X85300000Y113730000D03*
X77300000Y113730000D03*
X85300000Y116270000D03*
X77300000Y116270000D03*
%TD*%
D24*
%TO.C,REF\u002A\u002A*%
X73715000Y115250000D03*
X68465000Y115250000D03*
X68465000Y113550000D03*
X73715000Y113550000D03*
%TD*%
D26*
%TO.C,REF\u002A\u002A*%
X165072000Y114720000D03*
D27*
X159572000Y115870000D03*
D26*
X165072000Y117020000D03*
%TD*%
D27*
%TO.C,REF\u002A\u002A*%
X163592000Y108790000D03*
D28*
X159592000Y109940000D03*
D27*
X163592000Y111090000D03*
%TD*%
D29*
%TO.C,REF\u002A\u002A*%
X170382000Y116750000D03*
D30*
X167132000Y115750000D03*
X167132000Y117750000D03*
%TD*%
D31*
%TO.C,REF\u002A\u002A*%
X149642000Y109480000D03*
X149642000Y114480000D03*
X133142000Y109480000D03*
X133142000Y111980000D03*
X133142000Y114480000D03*
%TD*%
D32*
%TO.C,REF\u002A\u002A*%
X167962000Y113345000D03*
D33*
X169112000Y109295000D03*
D32*
X170262000Y113345000D03*
%TD*%
D26*
%TO.C,REF\u002A\u002A*%
X154047000Y117665000D03*
D27*
X155202000Y111415000D03*
D26*
X156357000Y117665000D03*
%TD*%
D34*
%TO.C,REF\u002A\u002A*%
X153832000Y108900000D03*
D28*
X154982000Y104900000D03*
D34*
X156132000Y108900000D03*
%TD*%
D26*
%TO.C,REF\u002A\u002A*%
X178472000Y114790000D03*
D34*
X173272000Y115940000D03*
D26*
X178472000Y117090000D03*
%TD*%
D35*
%TO.C,REF\u002A\u002A*%
X174012000Y111570000D03*
D36*
X175162000Y106470000D03*
D35*
X176312000Y111570000D03*
%TD*%
D37*
%TO.C,REF\u002A\u002A*%
X181302000Y117480000D03*
D38*
X182552000Y114580000D03*
D37*
X183802000Y117480000D03*
%TD*%
D27*
%TO.C,REF\u002A\u002A*%
X183512000Y108960000D03*
D28*
X179512000Y110110000D03*
D27*
X183512000Y111260000D03*
%TD*%
D26*
%TO.C,REF\u002A\u002A*%
X164412000Y102840000D03*
D34*
X159212000Y103990000D03*
D26*
X164412000Y105140000D03*
%TD*%
D35*
%TO.C,REF\u002A\u002A*%
X168052000Y105460000D03*
D36*
X169202000Y100360000D03*
D35*
X170352000Y105460000D03*
%TD*%
D37*
%TO.C,REF\u002A\u002A*%
X173782000Y103640000D03*
D38*
X175032000Y100740000D03*
D37*
X176282000Y103640000D03*
%TD*%
D27*
%TO.C,REF\u002A\u002A*%
X183492000Y102810000D03*
D28*
X179492000Y103960000D03*
D27*
X183492000Y105110000D03*
%TD*%
D26*
%TO.C,REF\u002A\u002A*%
X156742000Y98900000D03*
D34*
X151542000Y100050000D03*
D26*
X156742000Y101200000D03*
%TD*%
%TO.C,REF\u002A\u002A*%
G36*
G01*
X104960000Y11299999D02*
X104960000Y20400001D01*
G75*
G02*
X105209999Y20650000I249999J0D01*
G01*
X113510001Y20650000D01*
G75*
G02*
X113760000Y20400001I0J-249999D01*
G01*
X113760000Y11299999D01*
G75*
G02*
X113510001Y11050000I-249999J0D01*
G01*
X105209999Y11050000D01*
G75*
G02*
X104960000Y11299999I0J249999D01*
G01*
G37*
G36*
G01*
X91460000Y11299999D02*
X91460000Y20400001D01*
G75*
G02*
X91709999Y20650000I249999J0D01*
G01*
X100010001Y20650000D01*
G75*
G02*
X100260000Y20400001I0J-249999D01*
G01*
X100260000Y11299999D01*
G75*
G02*
X100010001Y11050000I-249999J0D01*
G01*
X91709999Y11050000D01*
G75*
G02*
X91460000Y11299999I0J249999D01*
G01*
G37*
%TD*%
%TO.C,REF\u002A\u002A*%
G36*
G01*
X81130000Y11259999D02*
X81130000Y20360001D01*
G75*
G02*
X81379999Y20610000I249999J0D01*
G01*
X89680001Y20610000D01*
G75*
G02*
X89930000Y20360001I0J-249999D01*
G01*
X89930000Y11259999D01*
G75*
G02*
X89680001Y11010000I-249999J0D01*
G01*
X81379999Y11010000D01*
G75*
G02*
X81130000Y11259999I0J249999D01*
G01*
G37*
G36*
G01*
X67630000Y11259999D02*
X67630000Y20360001D01*
G75*
G02*
X67879999Y20610000I249999J0D01*
G01*
X76180001Y20610000D01*
G75*
G02*
X76430000Y20360001I0J-249999D01*
G01*
X76430000Y11259999D01*
G75*
G02*
X76180001Y11010000I-249999J0D01*
G01*
X67879999Y11010000D01*
G75*
G02*
X67630000Y11259999I0J249999D01*
G01*
G37*
%TD*%
%TO.C,REF\u002A\u002A*%
G36*
G01*
X102822000Y31901997D02*
X102822000Y41002003D01*
G75*
G02*
X103071997Y41252000I249997J0D01*
G01*
X110372003Y41252000D01*
G75*
G02*
X110622000Y41002003I0J-249997D01*
G01*
X110622000Y31901997D01*
G75*
G02*
X110372003Y31652000I-249997J0D01*
G01*
X103071997Y31652000D01*
G75*
G02*
X102822000Y31901997I0J249997D01*
G01*
G37*
G36*
G01*
X90322000Y31901997D02*
X90322000Y41002003D01*
G75*
G02*
X90571997Y41252000I249997J0D01*
G01*
X97872003Y41252000D01*
G75*
G02*
X98122000Y41002003I0J-249997D01*
G01*
X98122000Y31901997D01*
G75*
G02*
X97872003Y31652000I-249997J0D01*
G01*
X90571997Y31652000D01*
G75*
G02*
X90322000Y31901997I0J249997D01*
G01*
G37*
%TD*%
%TO.C,REF\u002A\u002A*%
G36*
G01*
X80216000Y32155997D02*
X80216000Y41256003D01*
G75*
G02*
X80465997Y41506000I249997J0D01*
G01*
X87766003Y41506000D01*
G75*
G02*
X88016000Y41256003I0J-249997D01*
G01*
X88016000Y32155997D01*
G75*
G02*
X87766003Y31906000I-249997J0D01*
G01*
X80465997Y31906000D01*
G75*
G02*
X80216000Y32155997I0J249997D01*
G01*
G37*
G36*
G01*
X67716000Y32155997D02*
X67716000Y41256003D01*
G75*
G02*
X67965997Y41506000I249997J0D01*
G01*
X75266003Y41506000D01*
G75*
G02*
X75516000Y41256003I0J-249997D01*
G01*
X75516000Y32155997D01*
G75*
G02*
X75266003Y31906000I-249997J0D01*
G01*
X67965997Y31906000D01*
G75*
G02*
X67716000Y32155997I0J249997D01*
G01*
G37*
%TD*%
%TO.C,REF\u002A\u002A*%
G36*
G01*
X117570000Y52740000D02*
X117570000Y54740000D01*
G75*
G02*
X117820000Y54990000I250000J0D01*
G01*
X121720000Y54990000D01*
G75*
G02*
X121970000Y54740000I0J-250000D01*
G01*
X121970000Y52740000D01*
G75*
G02*
X121720000Y52490000I-250000J0D01*
G01*
X117820000Y52490000D01*
G75*
G02*
X117570000Y52740000I0J250000D01*
G01*
G37*
G36*
G01*
X109170000Y52740000D02*
X109170000Y54740000D01*
G75*
G02*
X109420000Y54990000I250000J0D01*
G01*
X113320000Y54990000D01*
G75*
G02*
X113570000Y54740000I0J-250000D01*
G01*
X113570000Y52740000D01*
G75*
G02*
X113320000Y52490000I-250000J0D01*
G01*
X109420000Y52490000D01*
G75*
G02*
X109170000Y52740000I0J250000D01*
G01*
G37*
%TD*%
%TO.C,REF\u002A\u002A*%
G36*
G01*
X103854000Y52710000D02*
X103854000Y54710000D01*
G75*
G02*
X104104000Y54960000I250000J0D01*
G01*
X108004000Y54960000D01*
G75*
G02*
X108254000Y54710000I0J-250000D01*
G01*
X108254000Y52710000D01*
G75*
G02*
X108004000Y52460000I-250000J0D01*
G01*
X104104000Y52460000D01*
G75*
G02*
X103854000Y52710000I0J250000D01*
G01*
G37*
G36*
G01*
X95454000Y52710000D02*
X95454000Y54710000D01*
G75*
G02*
X95704000Y54960000I250000J0D01*
G01*
X99604000Y54960000D01*
G75*
G02*
X99854000Y54710000I0J-250000D01*
G01*
X99854000Y52710000D01*
G75*
G02*
X99604000Y52460000I-250000J0D01*
G01*
X95704000Y52460000D01*
G75*
G02*
X95454000Y52710000I0J250000D01*
G01*
G37*
%TD*%
%TO.C,REF\u002A\u002A*%
G36*
G01*
X90232000Y53020000D02*
X90232000Y54420000D01*
G75*
G02*
X90482000Y54670000I250000J0D01*
G01*
X94382000Y54670000D01*
G75*
G02*
X94632000Y54420000I0J-250000D01*
G01*
X94632000Y53020000D01*
G75*
G02*
X94382000Y52770000I-250000J0D01*
G01*
X90482000Y52770000D01*
G75*
G02*
X90232000Y53020000I0J250000D01*
G01*
G37*
G36*
G01*
X81532000Y53020000D02*
X81532000Y54420000D01*
G75*
G02*
X81782000Y54670000I250000J0D01*
G01*
X85682000Y54670000D01*
G75*
G02*
X85932000Y54420000I0J-250000D01*
G01*
X85932000Y53020000D01*
G75*
G02*
X85682000Y52770000I-250000J0D01*
G01*
X81782000Y52770000D01*
G75*
G02*
X81532000Y53020000I0J250000D01*
G01*
G37*
%TD*%
%TO.C,REF\u002A\u002A*%
G36*
G01*
X76180000Y52970000D02*
X76180000Y54370000D01*
G75*
G02*
X76430000Y54620000I250000J0D01*
G01*
X80330000Y54620000D01*
G75*
G02*
X80580000Y54370000I0J-250000D01*
G01*
X80580000Y52970000D01*
G75*
G02*
X80330000Y52720000I-250000J0D01*
G01*
X76430000Y52720000D01*
G75*
G02*
X76180000Y52970000I0J250000D01*
G01*
G37*
G36*
G01*
X67480000Y52970000D02*
X67480000Y54370000D01*
G75*
G02*
X67730000Y54620000I250000J0D01*
G01*
X71630000Y54620000D01*
G75*
G02*
X71880000Y54370000I0J-250000D01*
G01*
X71880000Y52970000D01*
G75*
G02*
X71630000Y52720000I-250000J0D01*
G01*
X67730000Y52720000D01*
G75*
G02*
X67480000Y52970000I0J250000D01*
G01*
G37*
%TD*%
%TO.C,REF\u002A\u002A*%
G36*
G01*
X157540000Y65890000D02*
X157540000Y67290000D01*
G75*
G02*
X157790000Y67540000I250000J0D01*
G01*
X161440000Y67540000D01*
G75*
G02*
X161690000Y67290000I0J-250000D01*
G01*
X161690000Y65890000D01*
G75*
G02*
X161440000Y65640000I-250000J0D01*
G01*
X157790000Y65640000D01*
G75*
G02*
X157540000Y65890000I0J250000D01*
G01*
G37*
G36*
G01*
X150590000Y65890000D02*
X150590000Y67290000D01*
G75*
G02*
X150840000Y67540000I250000J0D01*
G01*
X154490000Y67540000D01*
G75*
G02*
X154740000Y67290000I0J-250000D01*
G01*
X154740000Y65890000D01*
G75*
G02*
X154490000Y65640000I-250000J0D01*
G01*
X150840000Y65640000D01*
G75*
G02*
X150590000Y65890000I0J250000D01*
G01*
G37*
%TD*%
%TO.C,REF\u002A\u002A*%
G36*
G01*
X144820000Y65630000D02*
X144820000Y67630000D01*
G75*
G02*
X145070000Y67880000I250000J0D01*
G01*
X148970000Y67880000D01*
G75*
G02*
X149220000Y67630000I0J-250000D01*
G01*
X149220000Y65630000D01*
G75*
G02*
X148970000Y65380000I-250000J0D01*
G01*
X145070000Y65380000D01*
G75*
G02*
X144820000Y65630000I0J250000D01*
G01*
G37*
G36*
G01*
X137420000Y65630000D02*
X137420000Y67630000D01*
G75*
G02*
X137670000Y67880000I250000J0D01*
G01*
X141570000Y67880000D01*
G75*
G02*
X141820000Y67630000I0J-250000D01*
G01*
X141820000Y65630000D01*
G75*
G02*
X141570000Y65380000I-250000J0D01*
G01*
X137670000Y65380000D01*
G75*
G02*
X137420000Y65630000I0J250000D01*
G01*
G37*
%TD*%
%TO.C,REF\u002A\u002A*%
G36*
G01*
X132380000Y65560000D02*
X132380000Y67560000D01*
G75*
G02*
X132630000Y67810000I250000J0D01*
G01*
X135630000Y67810000D01*
G75*
G02*
X135880000Y67560000I0J-250000D01*
G01*
X135880000Y65560000D01*
G75*
G02*
X135630000Y65310000I-250000J0D01*
G01*
X132630000Y65310000D01*
G75*
G02*
X132380000Y65560000I0J250000D01*
G01*
G37*
G36*
G01*
X125880000Y65560000D02*
X125880000Y67560000D01*
G75*
G02*
X126130000Y67810000I250000J0D01*
G01*
X129130000Y67810000D01*
G75*
G02*
X129380000Y67560000I0J-250000D01*
G01*
X129380000Y65560000D01*
G75*
G02*
X129130000Y65310000I-250000J0D01*
G01*
X126130000Y65310000D01*
G75*
G02*
X125880000Y65560000I0J250000D01*
G01*
G37*
%TD*%
%TO.C,REF\u002A\u002A*%
G36*
G01*
X120330000Y65820000D02*
X120330000Y67220000D01*
G75*
G02*
X120580000Y67470000I250000J0D01*
G01*
X124230000Y67470000D01*
G75*
G02*
X124480000Y67220000I0J-250000D01*
G01*
X124480000Y65820000D01*
G75*
G02*
X124230000Y65570000I-250000J0D01*
G01*
X120580000Y65570000D01*
G75*
G02*
X120330000Y65820000I0J250000D01*
G01*
G37*
G36*
G01*
X113380000Y65820000D02*
X113380000Y67220000D01*
G75*
G02*
X113630000Y67470000I250000J0D01*
G01*
X117280000Y67470000D01*
G75*
G02*
X117530000Y67220000I0J-250000D01*
G01*
X117530000Y65820000D01*
G75*
G02*
X117280000Y65570000I-250000J0D01*
G01*
X113630000Y65570000D01*
G75*
G02*
X113380000Y65820000I0J250000D01*
G01*
G37*
%TD*%
%TO.C,REF\u002A\u002A*%
G36*
G01*
X108160000Y65520000D02*
X108160000Y67520000D01*
G75*
G02*
X108410000Y67770000I250000J0D01*
G01*
X111910000Y67770000D01*
G75*
G02*
X112160000Y67520000I0J-250000D01*
G01*
X112160000Y65520000D01*
G75*
G02*
X111910000Y65270000I-250000J0D01*
G01*
X108410000Y65270000D01*
G75*
G02*
X108160000Y65520000I0J250000D01*
G01*
G37*
G36*
G01*
X102060000Y65520000D02*
X102060000Y67520000D01*
G75*
G02*
X102310000Y67770000I250000J0D01*
G01*
X105810000Y67770000D01*
G75*
G02*
X106060000Y67520000I0J-250000D01*
G01*
X106060000Y65520000D01*
G75*
G02*
X105810000Y65270000I-250000J0D01*
G01*
X102310000Y65270000D01*
G75*
G02*
X102060000Y65520000I0J250000D01*
G01*
G37*
%TD*%
%TO.C,REF\u002A\u002A*%
G36*
G01*
X96870000Y65480000D02*
X96870000Y67480000D01*
G75*
G02*
X97120000Y67730000I250000J0D01*
G01*
X100620000Y67730000D01*
G75*
G02*
X100870000Y67480000I0J-250000D01*
G01*
X100870000Y65480000D01*
G75*
G02*
X100620000Y65230000I-250000J0D01*
G01*
X97120000Y65230000D01*
G75*
G02*
X96870000Y65480000I0J250000D01*
G01*
G37*
G36*
G01*
X90770000Y65480000D02*
X90770000Y67480000D01*
G75*
G02*
X91020000Y67730000I250000J0D01*
G01*
X94520000Y67730000D01*
G75*
G02*
X94770000Y67480000I0J-250000D01*
G01*
X94770000Y65480000D01*
G75*
G02*
X94520000Y65230000I-250000J0D01*
G01*
X91020000Y65230000D01*
G75*
G02*
X90770000Y65480000I0J250000D01*
G01*
G37*
%TD*%
%TO.C,REF\u002A\u002A*%
G36*
G01*
X85338000Y65554000D02*
X85338000Y67554000D01*
G75*
G02*
X85588000Y67804000I250000J0D01*
G01*
X89088000Y67804000D01*
G75*
G02*
X89338000Y67554000I0J-250000D01*
G01*
X89338000Y65554000D01*
G75*
G02*
X89088000Y65304000I-250000J0D01*
G01*
X85588000Y65304000D01*
G75*
G02*
X85338000Y65554000I0J250000D01*
G01*
G37*
G36*
G01*
X79238000Y65554000D02*
X79238000Y67554000D01*
G75*
G02*
X79488000Y67804000I250000J0D01*
G01*
X82988000Y67804000D01*
G75*
G02*
X83238000Y67554000I0J-250000D01*
G01*
X83238000Y65554000D01*
G75*
G02*
X82988000Y65304000I-250000J0D01*
G01*
X79488000Y65304000D01*
G75*
G02*
X79238000Y65554000I0J250000D01*
G01*
G37*
%TD*%
%TO.C,REF\u002A\u002A*%
G36*
G01*
X73640000Y65440000D02*
X73640000Y67440000D01*
G75*
G02*
X73890000Y67690000I250000J0D01*
G01*
X77390000Y67690000D01*
G75*
G02*
X77640000Y67440000I0J-250000D01*
G01*
X77640000Y65440000D01*
G75*
G02*
X77390000Y65190000I-250000J0D01*
G01*
X73890000Y65190000D01*
G75*
G02*
X73640000Y65440000I0J250000D01*
G01*
G37*
G36*
G01*
X67540000Y65440000D02*
X67540000Y67440000D01*
G75*
G02*
X67790000Y67690000I250000J0D01*
G01*
X71290000Y67690000D01*
G75*
G02*
X71540000Y67440000I0J-250000D01*
G01*
X71540000Y65440000D01*
G75*
G02*
X71290000Y65190000I-250000J0D01*
G01*
X67790000Y65190000D01*
G75*
G02*
X67540000Y65440000I0J250000D01*
G01*
G37*
%TD*%
%TO.C,REF\u002A\u002A*%
G36*
G01*
X154148000Y85824000D02*
X154148000Y86924000D01*
G75*
G02*
X154398000Y87174000I250000J0D01*
G01*
X157398000Y87174000D01*
G75*
G02*
X157648000Y86924000I0J-250000D01*
G01*
X157648000Y85824000D01*
G75*
G02*
X157398000Y85574000I-250000J0D01*
G01*
X154398000Y85574000D01*
G75*
G02*
X154148000Y85824000I0J250000D01*
G01*
G37*
G36*
G01*
X148548000Y85824000D02*
X148548000Y86924000D01*
G75*
G02*
X148798000Y87174000I250000J0D01*
G01*
X151798000Y87174000D01*
G75*
G02*
X152048000Y86924000I0J-250000D01*
G01*
X152048000Y85824000D01*
G75*
G02*
X151798000Y85574000I-250000J0D01*
G01*
X148798000Y85574000D01*
G75*
G02*
X148548000Y85824000I0J250000D01*
G01*
G37*
%TD*%
%TO.C,REF\u002A\u002A*%
G36*
G01*
X143928000Y85804000D02*
X143928000Y86904000D01*
G75*
G02*
X144178000Y87154000I250000J0D01*
G01*
X147178000Y87154000D01*
G75*
G02*
X147428000Y86904000I0J-250000D01*
G01*
X147428000Y85804000D01*
G75*
G02*
X147178000Y85554000I-250000J0D01*
G01*
X144178000Y85554000D01*
G75*
G02*
X143928000Y85804000I0J250000D01*
G01*
G37*
G36*
G01*
X138528000Y85804000D02*
X138528000Y86904000D01*
G75*
G02*
X138778000Y87154000I250000J0D01*
G01*
X141778000Y87154000D01*
G75*
G02*
X142028000Y86904000I0J-250000D01*
G01*
X142028000Y85804000D01*
G75*
G02*
X141778000Y85554000I-250000J0D01*
G01*
X138778000Y85554000D01*
G75*
G02*
X138528000Y85804000I0J250000D01*
G01*
G37*
%TD*%
%TO.C,REF\u002A\u002A*%
G36*
G01*
X133898000Y85804000D02*
X133898000Y86904000D01*
G75*
G02*
X134148000Y87154000I250000J0D01*
G01*
X137148000Y87154000D01*
G75*
G02*
X137398000Y86904000I0J-250000D01*
G01*
X137398000Y85804000D01*
G75*
G02*
X137148000Y85554000I-250000J0D01*
G01*
X134148000Y85554000D01*
G75*
G02*
X133898000Y85804000I0J250000D01*
G01*
G37*
G36*
G01*
X128298000Y85804000D02*
X128298000Y86904000D01*
G75*
G02*
X128548000Y87154000I250000J0D01*
G01*
X131548000Y87154000D01*
G75*
G02*
X131798000Y86904000I0J-250000D01*
G01*
X131798000Y85804000D01*
G75*
G02*
X131548000Y85554000I-250000J0D01*
G01*
X128548000Y85554000D01*
G75*
G02*
X128298000Y85804000I0J250000D01*
G01*
G37*
%TD*%
%TO.C,REF\u002A\u002A*%
G36*
G01*
X153750000Y76660000D02*
X153750000Y77760000D01*
G75*
G02*
X154000000Y78010000I250000J0D01*
G01*
X157000000Y78010000D01*
G75*
G02*
X157250000Y77760000I0J-250000D01*
G01*
X157250000Y76660000D01*
G75*
G02*
X157000000Y76410000I-250000J0D01*
G01*
X154000000Y76410000D01*
G75*
G02*
X153750000Y76660000I0J250000D01*
G01*
G37*
G36*
G01*
X148350000Y76660000D02*
X148350000Y77760000D01*
G75*
G02*
X148600000Y78010000I250000J0D01*
G01*
X151600000Y78010000D01*
G75*
G02*
X151850000Y77760000I0J-250000D01*
G01*
X151850000Y76660000D01*
G75*
G02*
X151600000Y76410000I-250000J0D01*
G01*
X148600000Y76410000D01*
G75*
G02*
X148350000Y76660000I0J250000D01*
G01*
G37*
%TD*%
%TO.C,REF\u002A\u002A*%
G36*
G01*
X143760000Y76660000D02*
X143760000Y77760000D01*
G75*
G02*
X144010000Y78010000I250000J0D01*
G01*
X147010000Y78010000D01*
G75*
G02*
X147260000Y77760000I0J-250000D01*
G01*
X147260000Y76660000D01*
G75*
G02*
X147010000Y76410000I-250000J0D01*
G01*
X144010000Y76410000D01*
G75*
G02*
X143760000Y76660000I0J250000D01*
G01*
G37*
G36*
G01*
X138360000Y76660000D02*
X138360000Y77760000D01*
G75*
G02*
X138610000Y78010000I250000J0D01*
G01*
X141610000Y78010000D01*
G75*
G02*
X141860000Y77760000I0J-250000D01*
G01*
X141860000Y76660000D01*
G75*
G02*
X141610000Y76410000I-250000J0D01*
G01*
X138610000Y76410000D01*
G75*
G02*
X138360000Y76660000I0J250000D01*
G01*
G37*
%TD*%
%TO.C,REF\u002A\u002A*%
G36*
G01*
X133800000Y76670000D02*
X133800000Y77770000D01*
G75*
G02*
X134050000Y78020000I250000J0D01*
G01*
X137050000Y78020000D01*
G75*
G02*
X137300000Y77770000I0J-250000D01*
G01*
X137300000Y76670000D01*
G75*
G02*
X137050000Y76420000I-250000J0D01*
G01*
X134050000Y76420000D01*
G75*
G02*
X133800000Y76670000I0J250000D01*
G01*
G37*
G36*
G01*
X128200000Y76670000D02*
X128200000Y77770000D01*
G75*
G02*
X128450000Y78020000I250000J0D01*
G01*
X131450000Y78020000D01*
G75*
G02*
X131700000Y77770000I0J-250000D01*
G01*
X131700000Y76670000D01*
G75*
G02*
X131450000Y76420000I-250000J0D01*
G01*
X128450000Y76420000D01*
G75*
G02*
X128200000Y76670000I0J250000D01*
G01*
G37*
%TD*%
%TO.C,REF\u002A\u002A*%
G36*
G01*
X123670000Y76630000D02*
X123670000Y77730000D01*
G75*
G02*
X123920000Y77980000I250000J0D01*
G01*
X126920000Y77980000D01*
G75*
G02*
X127170000Y77730000I0J-250000D01*
G01*
X127170000Y76630000D01*
G75*
G02*
X126920000Y76380000I-250000J0D01*
G01*
X123920000Y76380000D01*
G75*
G02*
X123670000Y76630000I0J250000D01*
G01*
G37*
G36*
G01*
X118070000Y76630000D02*
X118070000Y77730000D01*
G75*
G02*
X118320000Y77980000I250000J0D01*
G01*
X121320000Y77980000D01*
G75*
G02*
X121570000Y77730000I0J-250000D01*
G01*
X121570000Y76630000D01*
G75*
G02*
X121320000Y76380000I-250000J0D01*
G01*
X118320000Y76380000D01*
G75*
G02*
X118070000Y76630000I0J250000D01*
G01*
G37*
%TD*%
%TO.C,REF\u002A\u002A*%
G36*
G01*
X113510000Y76550000D02*
X113510000Y77650000D01*
G75*
G02*
X113760000Y77900000I250000J0D01*
G01*
X116760000Y77900000D01*
G75*
G02*
X117010000Y77650000I0J-250000D01*
G01*
X117010000Y76550000D01*
G75*
G02*
X116760000Y76300000I-250000J0D01*
G01*
X113760000Y76300000D01*
G75*
G02*
X113510000Y76550000I0J250000D01*
G01*
G37*
G36*
G01*
X107910000Y76550000D02*
X107910000Y77650000D01*
G75*
G02*
X108160000Y77900000I250000J0D01*
G01*
X111160000Y77900000D01*
G75*
G02*
X111410000Y77650000I0J-250000D01*
G01*
X111410000Y76550000D01*
G75*
G02*
X111160000Y76300000I-250000J0D01*
G01*
X108160000Y76300000D01*
G75*
G02*
X107910000Y76550000I0J250000D01*
G01*
G37*
%TD*%
%TO.C,REF\u002A\u002A*%
G36*
G01*
X103290000Y76528000D02*
X103290000Y77628000D01*
G75*
G02*
X103540000Y77878000I250000J0D01*
G01*
X106540000Y77878000D01*
G75*
G02*
X106790000Y77628000I0J-250000D01*
G01*
X106790000Y76528000D01*
G75*
G02*
X106540000Y76278000I-250000J0D01*
G01*
X103540000Y76278000D01*
G75*
G02*
X103290000Y76528000I0J250000D01*
G01*
G37*
G36*
G01*
X97690000Y76528000D02*
X97690000Y77628000D01*
G75*
G02*
X97940000Y77878000I250000J0D01*
G01*
X100940000Y77878000D01*
G75*
G02*
X101190000Y77628000I0J-250000D01*
G01*
X101190000Y76528000D01*
G75*
G02*
X100940000Y76278000I-250000J0D01*
G01*
X97940000Y76278000D01*
G75*
G02*
X97690000Y76528000I0J250000D01*
G01*
G37*
%TD*%
%TO.C,REF\u002A\u002A*%
G36*
G01*
X92990000Y76490000D02*
X92990000Y77590000D01*
G75*
G02*
X93240000Y77840000I250000J0D01*
G01*
X96240000Y77840000D01*
G75*
G02*
X96490000Y77590000I0J-250000D01*
G01*
X96490000Y76490000D01*
G75*
G02*
X96240000Y76240000I-250000J0D01*
G01*
X93240000Y76240000D01*
G75*
G02*
X92990000Y76490000I0J250000D01*
G01*
G37*
G36*
G01*
X87590000Y76490000D02*
X87590000Y77590000D01*
G75*
G02*
X87840000Y77840000I250000J0D01*
G01*
X90840000Y77840000D01*
G75*
G02*
X91090000Y77590000I0J-250000D01*
G01*
X91090000Y76490000D01*
G75*
G02*
X90840000Y76240000I-250000J0D01*
G01*
X87840000Y76240000D01*
G75*
G02*
X87590000Y76490000I0J250000D01*
G01*
G37*
%TD*%
%TO.C,REF\u002A\u002A*%
G36*
G01*
X82940000Y76410000D02*
X82940000Y77510000D01*
G75*
G02*
X83190000Y77760000I250000J0D01*
G01*
X86190000Y77760000D01*
G75*
G02*
X86440000Y77510000I0J-250000D01*
G01*
X86440000Y76410000D01*
G75*
G02*
X86190000Y76160000I-250000J0D01*
G01*
X83190000Y76160000D01*
G75*
G02*
X82940000Y76410000I0J250000D01*
G01*
G37*
G36*
G01*
X77540000Y76410000D02*
X77540000Y77510000D01*
G75*
G02*
X77790000Y77760000I250000J0D01*
G01*
X80790000Y77760000D01*
G75*
G02*
X81040000Y77510000I0J-250000D01*
G01*
X81040000Y76410000D01*
G75*
G02*
X80790000Y76160000I-250000J0D01*
G01*
X77790000Y76160000D01*
G75*
G02*
X77540000Y76410000I0J250000D01*
G01*
G37*
%TD*%
%TO.C,REF\u002A\u002A*%
G36*
G01*
X72890000Y76380000D02*
X72890000Y77480000D01*
G75*
G02*
X73140000Y77730000I250000J0D01*
G01*
X76140000Y77730000D01*
G75*
G02*
X76390000Y77480000I0J-250000D01*
G01*
X76390000Y76380000D01*
G75*
G02*
X76140000Y76130000I-250000J0D01*
G01*
X73140000Y76130000D01*
G75*
G02*
X72890000Y76380000I0J250000D01*
G01*
G37*
G36*
G01*
X67490000Y76380000D02*
X67490000Y77480000D01*
G75*
G02*
X67740000Y77730000I250000J0D01*
G01*
X70740000Y77730000D01*
G75*
G02*
X70990000Y77480000I0J-250000D01*
G01*
X70990000Y76380000D01*
G75*
G02*
X70740000Y76130000I-250000J0D01*
G01*
X67740000Y76130000D01*
G75*
G02*
X67490000Y76380000I0J250000D01*
G01*
G37*
%TD*%
%TO.C,REF\u002A\u002A*%
G36*
G01*
X140268000Y94754000D02*
X140268000Y95854000D01*
G75*
G02*
X140518000Y96104000I250000J0D01*
G01*
X143018000Y96104000D01*
G75*
G02*
X143268000Y95854000I0J-250000D01*
G01*
X143268000Y94754000D01*
G75*
G02*
X143018000Y94504000I-250000J0D01*
G01*
X140518000Y94504000D01*
G75*
G02*
X140268000Y94754000I0J250000D01*
G01*
G37*
G36*
G01*
X135868000Y94754000D02*
X135868000Y95854000D01*
G75*
G02*
X136118000Y96104000I250000J0D01*
G01*
X138618000Y96104000D01*
G75*
G02*
X138868000Y95854000I0J-250000D01*
G01*
X138868000Y94754000D01*
G75*
G02*
X138618000Y94504000I-250000J0D01*
G01*
X136118000Y94504000D01*
G75*
G02*
X135868000Y94754000I0J250000D01*
G01*
G37*
%TD*%
%TO.C,REF\u002A\u002A*%
G36*
G01*
X131798000Y94764000D02*
X131798000Y95864000D01*
G75*
G02*
X132048000Y96114000I250000J0D01*
G01*
X134548000Y96114000D01*
G75*
G02*
X134798000Y95864000I0J-250000D01*
G01*
X134798000Y94764000D01*
G75*
G02*
X134548000Y94514000I-250000J0D01*
G01*
X132048000Y94514000D01*
G75*
G02*
X131798000Y94764000I0J250000D01*
G01*
G37*
G36*
G01*
X127398000Y94764000D02*
X127398000Y95864000D01*
G75*
G02*
X127648000Y96114000I250000J0D01*
G01*
X130148000Y96114000D01*
G75*
G02*
X130398000Y95864000I0J-250000D01*
G01*
X130398000Y94764000D01*
G75*
G02*
X130148000Y94514000I-250000J0D01*
G01*
X127648000Y94514000D01*
G75*
G02*
X127398000Y94764000I0J250000D01*
G01*
G37*
%TD*%
%TO.C,REF\u002A\u002A*%
G36*
G01*
X123902000Y85580000D02*
X123902000Y86680000D01*
G75*
G02*
X124152000Y86930000I250000J0D01*
G01*
X126652000Y86930000D01*
G75*
G02*
X126902000Y86680000I0J-250000D01*
G01*
X126902000Y85580000D01*
G75*
G02*
X126652000Y85330000I-250000J0D01*
G01*
X124152000Y85330000D01*
G75*
G02*
X123902000Y85580000I0J250000D01*
G01*
G37*
G36*
G01*
X119502000Y85580000D02*
X119502000Y86680000D01*
G75*
G02*
X119752000Y86930000I250000J0D01*
G01*
X122252000Y86930000D01*
G75*
G02*
X122502000Y86680000I0J-250000D01*
G01*
X122502000Y85580000D01*
G75*
G02*
X122252000Y85330000I-250000J0D01*
G01*
X119752000Y85330000D01*
G75*
G02*
X119502000Y85580000I0J250000D01*
G01*
G37*
%TD*%
%TO.C,REF\u002A\u002A*%
G36*
G01*
X115012000Y85580000D02*
X115012000Y86680000D01*
G75*
G02*
X115262000Y86930000I250000J0D01*
G01*
X117762000Y86930000D01*
G75*
G02*
X118012000Y86680000I0J-250000D01*
G01*
X118012000Y85580000D01*
G75*
G02*
X117762000Y85330000I-250000J0D01*
G01*
X115262000Y85330000D01*
G75*
G02*
X115012000Y85580000I0J250000D01*
G01*
G37*
G36*
G01*
X110612000Y85580000D02*
X110612000Y86680000D01*
G75*
G02*
X110862000Y86930000I250000J0D01*
G01*
X113362000Y86930000D01*
G75*
G02*
X113612000Y86680000I0J-250000D01*
G01*
X113612000Y85580000D01*
G75*
G02*
X113362000Y85330000I-250000J0D01*
G01*
X110862000Y85330000D01*
G75*
G02*
X110612000Y85580000I0J250000D01*
G01*
G37*
%TD*%
%TO.C,REF\u002A\u002A*%
G36*
G01*
X106238000Y85600000D02*
X106238000Y86700000D01*
G75*
G02*
X106488000Y86950000I250000J0D01*
G01*
X108988000Y86950000D01*
G75*
G02*
X109238000Y86700000I0J-250000D01*
G01*
X109238000Y85600000D01*
G75*
G02*
X108988000Y85350000I-250000J0D01*
G01*
X106488000Y85350000D01*
G75*
G02*
X106238000Y85600000I0J250000D01*
G01*
G37*
G36*
G01*
X101838000Y85600000D02*
X101838000Y86700000D01*
G75*
G02*
X102088000Y86950000I250000J0D01*
G01*
X104588000Y86950000D01*
G75*
G02*
X104838000Y86700000I0J-250000D01*
G01*
X104838000Y85600000D01*
G75*
G02*
X104588000Y85350000I-250000J0D01*
G01*
X102088000Y85350000D01*
G75*
G02*
X101838000Y85600000I0J250000D01*
G01*
G37*
%TD*%
%TO.C,REF\u002A\u002A*%
G36*
G01*
X97598000Y85600000D02*
X97598000Y86700000D01*
G75*
G02*
X97848000Y86950000I250000J0D01*
G01*
X100348000Y86950000D01*
G75*
G02*
X100598000Y86700000I0J-250000D01*
G01*
X100598000Y85600000D01*
G75*
G02*
X100348000Y85350000I-250000J0D01*
G01*
X97848000Y85350000D01*
G75*
G02*
X97598000Y85600000I0J250000D01*
G01*
G37*
G36*
G01*
X93198000Y85600000D02*
X93198000Y86700000D01*
G75*
G02*
X93448000Y86950000I250000J0D01*
G01*
X95948000Y86950000D01*
G75*
G02*
X96198000Y86700000I0J-250000D01*
G01*
X96198000Y85600000D01*
G75*
G02*
X95948000Y85350000I-250000J0D01*
G01*
X93448000Y85350000D01*
G75*
G02*
X93198000Y85600000I0J250000D01*
G01*
G37*
%TD*%
%TO.C,REF\u002A\u002A*%
G36*
G01*
X89048000Y85600000D02*
X89048000Y86700000D01*
G75*
G02*
X89298000Y86950000I250000J0D01*
G01*
X91798000Y86950000D01*
G75*
G02*
X92048000Y86700000I0J-250000D01*
G01*
X92048000Y85600000D01*
G75*
G02*
X91798000Y85350000I-250000J0D01*
G01*
X89298000Y85350000D01*
G75*
G02*
X89048000Y85600000I0J250000D01*
G01*
G37*
G36*
G01*
X84648000Y85600000D02*
X84648000Y86700000D01*
G75*
G02*
X84898000Y86950000I250000J0D01*
G01*
X87398000Y86950000D01*
G75*
G02*
X87648000Y86700000I0J-250000D01*
G01*
X87648000Y85600000D01*
G75*
G02*
X87398000Y85350000I-250000J0D01*
G01*
X84898000Y85350000D01*
G75*
G02*
X84648000Y85600000I0J250000D01*
G01*
G37*
%TD*%
%TO.C,REF\u002A\u002A*%
G36*
G01*
X80602000Y85600000D02*
X80602000Y86700000D01*
G75*
G02*
X80852000Y86950000I250000J0D01*
G01*
X83352000Y86950000D01*
G75*
G02*
X83602000Y86700000I0J-250000D01*
G01*
X83602000Y85600000D01*
G75*
G02*
X83352000Y85350000I-250000J0D01*
G01*
X80852000Y85350000D01*
G75*
G02*
X80602000Y85600000I0J250000D01*
G01*
G37*
G36*
G01*
X76202000Y85600000D02*
X76202000Y86700000D01*
G75*
G02*
X76452000Y86950000I250000J0D01*
G01*
X78952000Y86950000D01*
G75*
G02*
X79202000Y86700000I0J-250000D01*
G01*
X79202000Y85600000D01*
G75*
G02*
X78952000Y85350000I-250000J0D01*
G01*
X76452000Y85350000D01*
G75*
G02*
X76202000Y85600000I0J250000D01*
G01*
G37*
%TD*%
%TO.C,REF\u002A\u002A*%
G36*
G01*
X72112000Y85600000D02*
X72112000Y86700000D01*
G75*
G02*
X72362000Y86950000I250000J0D01*
G01*
X74862000Y86950000D01*
G75*
G02*
X75112000Y86700000I0J-250000D01*
G01*
X75112000Y85600000D01*
G75*
G02*
X74862000Y85350000I-250000J0D01*
G01*
X72362000Y85350000D01*
G75*
G02*
X72112000Y85600000I0J250000D01*
G01*
G37*
G36*
G01*
X67712000Y85600000D02*
X67712000Y86700000D01*
G75*
G02*
X67962000Y86950000I250000J0D01*
G01*
X70462000Y86950000D01*
G75*
G02*
X70712000Y86700000I0J-250000D01*
G01*
X70712000Y85600000D01*
G75*
G02*
X70462000Y85350000I-250000J0D01*
G01*
X67962000Y85350000D01*
G75*
G02*
X67712000Y85600000I0J250000D01*
G01*
G37*
%TD*%
%TO.C,REF\u002A\u002A*%
G36*
G01*
X123270000Y93132000D02*
X123270000Y94232000D01*
G75*
G02*
X123520000Y94482000I250000J0D01*
G01*
X125620000Y94482000D01*
G75*
G02*
X125870000Y94232000I0J-250000D01*
G01*
X125870000Y93132000D01*
G75*
G02*
X125620000Y92882000I-250000J0D01*
G01*
X123520000Y92882000D01*
G75*
G02*
X123270000Y93132000I0J250000D01*
G01*
G37*
G36*
G01*
X119670000Y93132000D02*
X119670000Y94232000D01*
G75*
G02*
X119920000Y94482000I250000J0D01*
G01*
X122020000Y94482000D01*
G75*
G02*
X122270000Y94232000I0J-250000D01*
G01*
X122270000Y93132000D01*
G75*
G02*
X122020000Y92882000I-250000J0D01*
G01*
X119920000Y92882000D01*
G75*
G02*
X119670000Y93132000I0J250000D01*
G01*
G37*
%TD*%
%TO.C,REF\u002A\u002A*%
G36*
G01*
X115650000Y93132000D02*
X115650000Y94232000D01*
G75*
G02*
X115900000Y94482000I250000J0D01*
G01*
X118000000Y94482000D01*
G75*
G02*
X118250000Y94232000I0J-250000D01*
G01*
X118250000Y93132000D01*
G75*
G02*
X118000000Y92882000I-250000J0D01*
G01*
X115900000Y92882000D01*
G75*
G02*
X115650000Y93132000I0J250000D01*
G01*
G37*
G36*
G01*
X112050000Y93132000D02*
X112050000Y94232000D01*
G75*
G02*
X112300000Y94482000I250000J0D01*
G01*
X114400000Y94482000D01*
G75*
G02*
X114650000Y94232000I0J-250000D01*
G01*
X114650000Y93132000D01*
G75*
G02*
X114400000Y92882000I-250000J0D01*
G01*
X112300000Y92882000D01*
G75*
G02*
X112050000Y93132000I0J250000D01*
G01*
G37*
%TD*%
%TO.C,REF\u002A\u002A*%
G36*
G01*
X108284000Y93132000D02*
X108284000Y94232000D01*
G75*
G02*
X108534000Y94482000I250000J0D01*
G01*
X110634000Y94482000D01*
G75*
G02*
X110884000Y94232000I0J-250000D01*
G01*
X110884000Y93132000D01*
G75*
G02*
X110634000Y92882000I-250000J0D01*
G01*
X108534000Y92882000D01*
G75*
G02*
X108284000Y93132000I0J250000D01*
G01*
G37*
G36*
G01*
X104684000Y93132000D02*
X104684000Y94232000D01*
G75*
G02*
X104934000Y94482000I250000J0D01*
G01*
X107034000Y94482000D01*
G75*
G02*
X107284000Y94232000I0J-250000D01*
G01*
X107284000Y93132000D01*
G75*
G02*
X107034000Y92882000I-250000J0D01*
G01*
X104934000Y92882000D01*
G75*
G02*
X104684000Y93132000I0J250000D01*
G01*
G37*
%TD*%
%TO.C,REF\u002A\u002A*%
G36*
G01*
X100918000Y93132000D02*
X100918000Y94232000D01*
G75*
G02*
X101168000Y94482000I250000J0D01*
G01*
X103268000Y94482000D01*
G75*
G02*
X103518000Y94232000I0J-250000D01*
G01*
X103518000Y93132000D01*
G75*
G02*
X103268000Y92882000I-250000J0D01*
G01*
X101168000Y92882000D01*
G75*
G02*
X100918000Y93132000I0J250000D01*
G01*
G37*
G36*
G01*
X97318000Y93132000D02*
X97318000Y94232000D01*
G75*
G02*
X97568000Y94482000I250000J0D01*
G01*
X99668000Y94482000D01*
G75*
G02*
X99918000Y94232000I0J-250000D01*
G01*
X99918000Y93132000D01*
G75*
G02*
X99668000Y92882000I-250000J0D01*
G01*
X97568000Y92882000D01*
G75*
G02*
X97318000Y93132000I0J250000D01*
G01*
G37*
%TD*%
%TO.C,REF\u002A\u002A*%
G36*
G01*
X93298000Y93132000D02*
X93298000Y94232000D01*
G75*
G02*
X93548000Y94482000I250000J0D01*
G01*
X95648000Y94482000D01*
G75*
G02*
X95898000Y94232000I0J-250000D01*
G01*
X95898000Y93132000D01*
G75*
G02*
X95648000Y92882000I-250000J0D01*
G01*
X93548000Y92882000D01*
G75*
G02*
X93298000Y93132000I0J250000D01*
G01*
G37*
G36*
G01*
X89698000Y93132000D02*
X89698000Y94232000D01*
G75*
G02*
X89948000Y94482000I250000J0D01*
G01*
X92048000Y94482000D01*
G75*
G02*
X92298000Y94232000I0J-250000D01*
G01*
X92298000Y93132000D01*
G75*
G02*
X92048000Y92882000I-250000J0D01*
G01*
X89948000Y92882000D01*
G75*
G02*
X89698000Y93132000I0J250000D01*
G01*
G37*
%TD*%
%TO.C,REF\u002A\u002A*%
G36*
G01*
X85678000Y93132000D02*
X85678000Y94232000D01*
G75*
G02*
X85928000Y94482000I250000J0D01*
G01*
X88028000Y94482000D01*
G75*
G02*
X88278000Y94232000I0J-250000D01*
G01*
X88278000Y93132000D01*
G75*
G02*
X88028000Y92882000I-250000J0D01*
G01*
X85928000Y92882000D01*
G75*
G02*
X85678000Y93132000I0J250000D01*
G01*
G37*
G36*
G01*
X82078000Y93132000D02*
X82078000Y94232000D01*
G75*
G02*
X82328000Y94482000I250000J0D01*
G01*
X84428000Y94482000D01*
G75*
G02*
X84678000Y94232000I0J-250000D01*
G01*
X84678000Y93132000D01*
G75*
G02*
X84428000Y92882000I-250000J0D01*
G01*
X82328000Y92882000D01*
G75*
G02*
X82078000Y93132000I0J250000D01*
G01*
G37*
%TD*%
%TO.C,REF\u002A\u002A*%
G36*
G01*
X78312000Y93132000D02*
X78312000Y94232000D01*
G75*
G02*
X78562000Y94482000I250000J0D01*
G01*
X80662000Y94482000D01*
G75*
G02*
X80912000Y94232000I0J-250000D01*
G01*
X80912000Y93132000D01*
G75*
G02*
X80662000Y92882000I-250000J0D01*
G01*
X78562000Y92882000D01*
G75*
G02*
X78312000Y93132000I0J250000D01*
G01*
G37*
G36*
G01*
X74712000Y93132000D02*
X74712000Y94232000D01*
G75*
G02*
X74962000Y94482000I250000J0D01*
G01*
X77062000Y94482000D01*
G75*
G02*
X77312000Y94232000I0J-250000D01*
G01*
X77312000Y93132000D01*
G75*
G02*
X77062000Y92882000I-250000J0D01*
G01*
X74962000Y92882000D01*
G75*
G02*
X74712000Y93132000I0J250000D01*
G01*
G37*
%TD*%
D39*
%TO.C,REF\u002A\u002A*%
X71870000Y93150000D03*
X68870000Y93150000D03*
%TD*%
D40*
%TO.C,REF\u002A\u002A*%
X168120000Y137080000D03*
X168120000Y136180000D03*
X169020000Y136180000D03*
X169020000Y137080000D03*
%TD*%
D41*
%TO.C,REF\u002A\u002A*%
X178460000Y131660000D03*
X181660000Y131660000D03*
X178460000Y136560000D03*
X181660000Y136560000D03*
%TD*%
D42*
%TO.C,REF\u002A\u002A*%
X174135000Y133030000D03*
X175885000Y133030000D03*
X174135000Y136530000D03*
X175885000Y136530000D03*
%TD*%
D43*
%TO.C,REF\u002A\u002A*%
X170650000Y134870000D03*
X171950000Y134870000D03*
X170650000Y136870000D03*
X171950000Y136870000D03*
%TD*%
D44*
%TO.C,REF\u002A\u002A*%
X190130000Y131200000D03*
X192230000Y131200000D03*
X194330000Y131200000D03*
X190130000Y136100000D03*
X192230000Y136100000D03*
X194330000Y136100000D03*
%TD*%
D45*
%TO.C,REF\u002A\u002A*%
X184220000Y136390000D03*
X185920000Y136390000D03*
X187620000Y136390000D03*
X187620000Y131590000D03*
X185920000Y131590000D03*
X184220000Y131590000D03*
%TD*%
%TO.C,REF\u002A\u002A*%
G36*
G01*
X195084999Y145430000D02*
X191135001Y145430000D01*
G75*
G02*
X190885000Y145680001I0J250001D01*
G01*
X190885000Y148204999D01*
G75*
G02*
X191135001Y148455000I250001J0D01*
G01*
X195084999Y148455000D01*
G75*
G02*
X195335000Y148204999I0J-250001D01*
G01*
X195335000Y145680001D01*
G75*
G02*
X195084999Y145430000I-250001J0D01*
G01*
G37*
G36*
G01*
X195084999Y140405000D02*
X191135001Y140405000D01*
G75*
G02*
X190885000Y140655001I0J250001D01*
G01*
X190885000Y143179999D01*
G75*
G02*
X191135001Y143430000I250001J0D01*
G01*
X195084999Y143430000D01*
G75*
G02*
X195335000Y143179999I0J-250001D01*
G01*
X195335000Y140655001D01*
G75*
G02*
X195084999Y140405000I-250001J0D01*
G01*
G37*
%TD*%
%TO.C,REF\u002A\u002A*%
G36*
G01*
X189695001Y147135000D02*
X186844999Y147135000D01*
G75*
G02*
X186595000Y147384999I0J249999D01*
G01*
X186595000Y148235001D01*
G75*
G02*
X186844999Y148485000I249999J0D01*
G01*
X189695001Y148485000D01*
G75*
G02*
X189945000Y148235001I0J-249999D01*
G01*
X189945000Y147384999D01*
G75*
G02*
X189695001Y147135000I-249999J0D01*
G01*
G37*
G36*
G01*
X189695001Y141335000D02*
X186844999Y141335000D01*
G75*
G02*
X186595000Y141584999I0J249999D01*
G01*
X186595000Y142435001D01*
G75*
G02*
X186844999Y142685000I249999J0D01*
G01*
X189695001Y142685000D01*
G75*
G02*
X189945000Y142435001I0J-249999D01*
G01*
X189945000Y141584999D01*
G75*
G02*
X189695001Y141335000I-249999J0D01*
G01*
G37*
%TD*%
%TO.C,REF\u002A\u002A*%
G36*
G01*
X185415001Y147115000D02*
X183264999Y147115000D01*
G75*
G02*
X183015000Y147364999I0J249999D01*
G01*
X183015000Y148215001D01*
G75*
G02*
X183264999Y148465000I249999J0D01*
G01*
X185415001Y148465000D01*
G75*
G02*
X185665000Y148215001I0J-249999D01*
G01*
X185665000Y147364999D01*
G75*
G02*
X185415001Y147115000I-249999J0D01*
G01*
G37*
G36*
G01*
X185415001Y142615000D02*
X183264999Y142615000D01*
G75*
G02*
X183015000Y142864999I0J249999D01*
G01*
X183015000Y143715001D01*
G75*
G02*
X183264999Y143965000I249999J0D01*
G01*
X185415001Y143965000D01*
G75*
G02*
X185665000Y143715001I0J-249999D01*
G01*
X185665000Y142864999D01*
G75*
G02*
X185415001Y142615000I-249999J0D01*
G01*
G37*
%TD*%
%TO.C,REF\u002A\u002A*%
G36*
G01*
X181820001Y147305000D02*
X178919999Y147305000D01*
G75*
G02*
X178670000Y147554999I0J249999D01*
G01*
X178670000Y148180001D01*
G75*
G02*
X178919999Y148430000I249999J0D01*
G01*
X181820001Y148430000D01*
G75*
G02*
X182070000Y148180001I0J-249999D01*
G01*
X182070000Y147554999D01*
G75*
G02*
X181820001Y147305000I-249999J0D01*
G01*
G37*
G36*
G01*
X181820001Y143030000D02*
X178919999Y143030000D01*
G75*
G02*
X178670000Y143279999I0J249999D01*
G01*
X178670000Y143905001D01*
G75*
G02*
X178919999Y144155000I249999J0D01*
G01*
X181820001Y144155000D01*
G75*
G02*
X182070000Y143905001I0J-249999D01*
G01*
X182070000Y143279999D01*
G75*
G02*
X181820001Y143030000I-249999J0D01*
G01*
G37*
%TD*%
%TO.C,REF\u002A\u002A*%
G36*
G01*
X177505000Y147155000D02*
X175355000Y147155000D01*
G75*
G02*
X175105000Y147405000I0J250000D01*
G01*
X175105000Y148155000D01*
G75*
G02*
X175355000Y148405000I250000J0D01*
G01*
X177505000Y148405000D01*
G75*
G02*
X177755000Y148155000I0J-250000D01*
G01*
X177755000Y147405000D01*
G75*
G02*
X177505000Y147155000I-250000J0D01*
G01*
G37*
G36*
G01*
X177505000Y144355000D02*
X175355000Y144355000D01*
G75*
G02*
X175105000Y144605000I0J250000D01*
G01*
X175105000Y145355000D01*
G75*
G02*
X175355000Y145605000I250000J0D01*
G01*
X177505000Y145605000D01*
G75*
G02*
X177755000Y145355000I0J-250000D01*
G01*
X177755000Y144605000D01*
G75*
G02*
X177505000Y144355000I-250000J0D01*
G01*
G37*
%TD*%
%TO.C,REF\u002A\u002A*%
G36*
G01*
X173905000Y147205000D02*
X172655000Y147205000D01*
G75*
G02*
X172405000Y147455000I0J250000D01*
G01*
X172405000Y148205000D01*
G75*
G02*
X172655000Y148455000I250000J0D01*
G01*
X173905000Y148455000D01*
G75*
G02*
X174155000Y148205000I0J-250000D01*
G01*
X174155000Y147455000D01*
G75*
G02*
X173905000Y147205000I-250000J0D01*
G01*
G37*
G36*
G01*
X173905000Y144405000D02*
X172655000Y144405000D01*
G75*
G02*
X172405000Y144655000I0J250000D01*
G01*
X172405000Y145405000D01*
G75*
G02*
X172655000Y145655000I250000J0D01*
G01*
X173905000Y145655000D01*
G75*
G02*
X174155000Y145405000I0J-250000D01*
G01*
X174155000Y144655000D01*
G75*
G02*
X173905000Y144405000I-250000J0D01*
G01*
G37*
%TD*%
%TO.C,REF\u002A\u002A*%
G36*
G01*
X171346250Y147420000D02*
X170433750Y147420000D01*
G75*
G02*
X170190000Y147663750I0J243750D01*
G01*
X170190000Y148151250D01*
G75*
G02*
X170433750Y148395000I243750J0D01*
G01*
X171346250Y148395000D01*
G75*
G02*
X171590000Y148151250I0J-243750D01*
G01*
X171590000Y147663750D01*
G75*
G02*
X171346250Y147420000I-243750J0D01*
G01*
G37*
G36*
G01*
X171346250Y145545000D02*
X170433750Y145545000D01*
G75*
G02*
X170190000Y145788750I0J243750D01*
G01*
X170190000Y146276250D01*
G75*
G02*
X170433750Y146520000I243750J0D01*
G01*
X171346250Y146520000D01*
G75*
G02*
X171590000Y146276250I0J-243750D01*
G01*
X171590000Y145788750D01*
G75*
G02*
X171346250Y145545000I-243750J0D01*
G01*
G37*
%TD*%
%TO.C,REF\u002A\u002A*%
G36*
G01*
X169176250Y147490000D02*
X168663750Y147490000D01*
G75*
G02*
X168445000Y147708750I0J218750D01*
G01*
X168445000Y148146250D01*
G75*
G02*
X168663750Y148365000I218750J0D01*
G01*
X169176250Y148365000D01*
G75*
G02*
X169395000Y148146250I0J-218750D01*
G01*
X169395000Y147708750D01*
G75*
G02*
X169176250Y147490000I-218750J0D01*
G01*
G37*
G36*
G01*
X169176250Y145915000D02*
X168663750Y145915000D01*
G75*
G02*
X168445000Y146133750I0J218750D01*
G01*
X168445000Y146571250D01*
G75*
G02*
X168663750Y146790000I218750J0D01*
G01*
X169176250Y146790000D01*
G75*
G02*
X169395000Y146571250I0J-218750D01*
G01*
X169395000Y146133750D01*
G75*
G02*
X169176250Y145915000I-218750J0D01*
G01*
G37*
%TD*%
%TO.C,REF\u002A\u002A*%
G36*
G01*
X167352500Y147885000D02*
X167007500Y147885000D01*
G75*
G02*
X166860000Y148032500I0J147500D01*
G01*
X166860000Y148327500D01*
G75*
G02*
X167007500Y148475000I147500J0D01*
G01*
X167352500Y148475000D01*
G75*
G02*
X167500000Y148327500I0J-147500D01*
G01*
X167500000Y148032500D01*
G75*
G02*
X167352500Y147885000I-147500J0D01*
G01*
G37*
G36*
G01*
X167352500Y146915000D02*
X167007500Y146915000D01*
G75*
G02*
X166860000Y147062500I0J147500D01*
G01*
X166860000Y147357500D01*
G75*
G02*
X167007500Y147505000I147500J0D01*
G01*
X167352500Y147505000D01*
G75*
G02*
X167500000Y147357500I0J-147500D01*
G01*
X167500000Y147062500D01*
G75*
G02*
X167352500Y146915000I-147500J0D01*
G01*
G37*
%TD*%
%TO.C,REF\u002A\u002A*%
G36*
G01*
X165755500Y148101000D02*
X165554500Y148101000D01*
G75*
G02*
X165475000Y148180500I0J79500D01*
G01*
X165475000Y148339500D01*
G75*
G02*
X165554500Y148419000I79500J0D01*
G01*
X165755500Y148419000D01*
G75*
G02*
X165835000Y148339500I0J-79500D01*
G01*
X165835000Y148180500D01*
G75*
G02*
X165755500Y148101000I-79500J0D01*
G01*
G37*
G36*
G01*
X165755500Y147411000D02*
X165554500Y147411000D01*
G75*
G02*
X165475000Y147490500I0J79500D01*
G01*
X165475000Y147649500D01*
G75*
G02*
X165554500Y147729000I79500J0D01*
G01*
X165755500Y147729000D01*
G75*
G02*
X165835000Y147649500I0J-79500D01*
G01*
X165835000Y147490500D01*
G75*
G02*
X165755500Y147411000I-79500J0D01*
G01*
G37*
%TD*%
%TO.C,REF\u002A\u002A*%
G36*
G01*
X116445000Y138445000D02*
X116445000Y138745000D01*
G75*
G02*
X116595000Y138895000I150000J0D01*
G01*
X118270000Y138895000D01*
G75*
G02*
X118420000Y138745000I0J-150000D01*
G01*
X118420000Y138445000D01*
G75*
G02*
X118270000Y138295000I-150000J0D01*
G01*
X116595000Y138295000D01*
G75*
G02*
X116445000Y138445000I0J150000D01*
G01*
G37*
G36*
G01*
X116445000Y137175000D02*
X116445000Y137475000D01*
G75*
G02*
X116595000Y137625000I150000J0D01*
G01*
X118270000Y137625000D01*
G75*
G02*
X118420000Y137475000I0J-150000D01*
G01*
X118420000Y137175000D01*
G75*
G02*
X118270000Y137025000I-150000J0D01*
G01*
X116595000Y137025000D01*
G75*
G02*
X116445000Y137175000I0J150000D01*
G01*
G37*
G36*
G01*
X116445000Y135905000D02*
X116445000Y136205000D01*
G75*
G02*
X116595000Y136355000I150000J0D01*
G01*
X118270000Y136355000D01*
G75*
G02*
X118420000Y136205000I0J-150000D01*
G01*
X118420000Y135905000D01*
G75*
G02*
X118270000Y135755000I-150000J0D01*
G01*
X116595000Y135755000D01*
G75*
G02*
X116445000Y135905000I0J150000D01*
G01*
G37*
G36*
G01*
X116445000Y134635000D02*
X116445000Y134935000D01*
G75*
G02*
X116595000Y135085000I150000J0D01*
G01*
X118270000Y135085000D01*
G75*
G02*
X118420000Y134935000I0J-150000D01*
G01*
X118420000Y134635000D01*
G75*
G02*
X118270000Y134485000I-150000J0D01*
G01*
X116595000Y134485000D01*
G75*
G02*
X116445000Y134635000I0J150000D01*
G01*
G37*
G36*
G01*
X116445000Y133365000D02*
X116445000Y133665000D01*
G75*
G02*
X116595000Y133815000I150000J0D01*
G01*
X118270000Y133815000D01*
G75*
G02*
X118420000Y133665000I0J-150000D01*
G01*
X118420000Y133365000D01*
G75*
G02*
X118270000Y133215000I-150000J0D01*
G01*
X116595000Y133215000D01*
G75*
G02*
X116445000Y133365000I0J150000D01*
G01*
G37*
G36*
G01*
X116445000Y132095000D02*
X116445000Y132395000D01*
G75*
G02*
X116595000Y132545000I150000J0D01*
G01*
X118270000Y132545000D01*
G75*
G02*
X118420000Y132395000I0J-150000D01*
G01*
X118420000Y132095000D01*
G75*
G02*
X118270000Y131945000I-150000J0D01*
G01*
X116595000Y131945000D01*
G75*
G02*
X116445000Y132095000I0J150000D01*
G01*
G37*
G36*
G01*
X116445000Y130825000D02*
X116445000Y131125000D01*
G75*
G02*
X116595000Y131275000I150000J0D01*
G01*
X118270000Y131275000D01*
G75*
G02*
X118420000Y131125000I0J-150000D01*
G01*
X118420000Y130825000D01*
G75*
G02*
X118270000Y130675000I-150000J0D01*
G01*
X116595000Y130675000D01*
G75*
G02*
X116445000Y130825000I0J150000D01*
G01*
G37*
G36*
G01*
X116445000Y129555000D02*
X116445000Y129855000D01*
G75*
G02*
X116595000Y130005000I150000J0D01*
G01*
X118270000Y130005000D01*
G75*
G02*
X118420000Y129855000I0J-150000D01*
G01*
X118420000Y129555000D01*
G75*
G02*
X118270000Y129405000I-150000J0D01*
G01*
X116595000Y129405000D01*
G75*
G02*
X116445000Y129555000I0J150000D01*
G01*
G37*
G36*
G01*
X116445000Y128285000D02*
X116445000Y128585000D01*
G75*
G02*
X116595000Y128735000I150000J0D01*
G01*
X118270000Y128735000D01*
G75*
G02*
X118420000Y128585000I0J-150000D01*
G01*
X118420000Y128285000D01*
G75*
G02*
X118270000Y128135000I-150000J0D01*
G01*
X116595000Y128135000D01*
G75*
G02*
X116445000Y128285000I0J150000D01*
G01*
G37*
G36*
G01*
X116445000Y127015000D02*
X116445000Y127315000D01*
G75*
G02*
X116595000Y127465000I150000J0D01*
G01*
X118270000Y127465000D01*
G75*
G02*
X118420000Y127315000I0J-150000D01*
G01*
X118420000Y127015000D01*
G75*
G02*
X118270000Y126865000I-150000J0D01*
G01*
X116595000Y126865000D01*
G75*
G02*
X116445000Y127015000I0J150000D01*
G01*
G37*
G36*
G01*
X116445000Y125745000D02*
X116445000Y126045000D01*
G75*
G02*
X116595000Y126195000I150000J0D01*
G01*
X118270000Y126195000D01*
G75*
G02*
X118420000Y126045000I0J-150000D01*
G01*
X118420000Y125745000D01*
G75*
G02*
X118270000Y125595000I-150000J0D01*
G01*
X116595000Y125595000D01*
G75*
G02*
X116445000Y125745000I0J150000D01*
G01*
G37*
G36*
G01*
X116445000Y124475000D02*
X116445000Y124775000D01*
G75*
G02*
X116595000Y124925000I150000J0D01*
G01*
X118270000Y124925000D01*
G75*
G02*
X118420000Y124775000I0J-150000D01*
G01*
X118420000Y124475000D01*
G75*
G02*
X118270000Y124325000I-150000J0D01*
G01*
X116595000Y124325000D01*
G75*
G02*
X116445000Y124475000I0J150000D01*
G01*
G37*
G36*
G01*
X109520000Y124475000D02*
X109520000Y124775000D01*
G75*
G02*
X109670000Y124925000I150000J0D01*
G01*
X111345000Y124925000D01*
G75*
G02*
X111495000Y124775000I0J-150000D01*
G01*
X111495000Y124475000D01*
G75*
G02*
X111345000Y124325000I-150000J0D01*
G01*
X109670000Y124325000D01*
G75*
G02*
X109520000Y124475000I0J150000D01*
G01*
G37*
G36*
G01*
X109520000Y125745000D02*
X109520000Y126045000D01*
G75*
G02*
X109670000Y126195000I150000J0D01*
G01*
X111345000Y126195000D01*
G75*
G02*
X111495000Y126045000I0J-150000D01*
G01*
X111495000Y125745000D01*
G75*
G02*
X111345000Y125595000I-150000J0D01*
G01*
X109670000Y125595000D01*
G75*
G02*
X109520000Y125745000I0J150000D01*
G01*
G37*
G36*
G01*
X109520000Y127015000D02*
X109520000Y127315000D01*
G75*
G02*
X109670000Y127465000I150000J0D01*
G01*
X111345000Y127465000D01*
G75*
G02*
X111495000Y127315000I0J-150000D01*
G01*
X111495000Y127015000D01*
G75*
G02*
X111345000Y126865000I-150000J0D01*
G01*
X109670000Y126865000D01*
G75*
G02*
X109520000Y127015000I0J150000D01*
G01*
G37*
G36*
G01*
X109520000Y128285000D02*
X109520000Y128585000D01*
G75*
G02*
X109670000Y128735000I150000J0D01*
G01*
X111345000Y128735000D01*
G75*
G02*
X111495000Y128585000I0J-150000D01*
G01*
X111495000Y128285000D01*
G75*
G02*
X111345000Y128135000I-150000J0D01*
G01*
X109670000Y128135000D01*
G75*
G02*
X109520000Y128285000I0J150000D01*
G01*
G37*
G36*
G01*
X109520000Y129555000D02*
X109520000Y129855000D01*
G75*
G02*
X109670000Y130005000I150000J0D01*
G01*
X111345000Y130005000D01*
G75*
G02*
X111495000Y129855000I0J-150000D01*
G01*
X111495000Y129555000D01*
G75*
G02*
X111345000Y129405000I-150000J0D01*
G01*
X109670000Y129405000D01*
G75*
G02*
X109520000Y129555000I0J150000D01*
G01*
G37*
G36*
G01*
X109520000Y130825000D02*
X109520000Y131125000D01*
G75*
G02*
X109670000Y131275000I150000J0D01*
G01*
X111345000Y131275000D01*
G75*
G02*
X111495000Y131125000I0J-150000D01*
G01*
X111495000Y130825000D01*
G75*
G02*
X111345000Y130675000I-150000J0D01*
G01*
X109670000Y130675000D01*
G75*
G02*
X109520000Y130825000I0J150000D01*
G01*
G37*
G36*
G01*
X109520000Y132095000D02*
X109520000Y132395000D01*
G75*
G02*
X109670000Y132545000I150000J0D01*
G01*
X111345000Y132545000D01*
G75*
G02*
X111495000Y132395000I0J-150000D01*
G01*
X111495000Y132095000D01*
G75*
G02*
X111345000Y131945000I-150000J0D01*
G01*
X109670000Y131945000D01*
G75*
G02*
X109520000Y132095000I0J150000D01*
G01*
G37*
G36*
G01*
X109520000Y133365000D02*
X109520000Y133665000D01*
G75*
G02*
X109670000Y133815000I150000J0D01*
G01*
X111345000Y133815000D01*
G75*
G02*
X111495000Y133665000I0J-150000D01*
G01*
X111495000Y133365000D01*
G75*
G02*
X111345000Y133215000I-150000J0D01*
G01*
X109670000Y133215000D01*
G75*
G02*
X109520000Y133365000I0J150000D01*
G01*
G37*
G36*
G01*
X109520000Y134635000D02*
X109520000Y134935000D01*
G75*
G02*
X109670000Y135085000I150000J0D01*
G01*
X111345000Y135085000D01*
G75*
G02*
X111495000Y134935000I0J-150000D01*
G01*
X111495000Y134635000D01*
G75*
G02*
X111345000Y134485000I-150000J0D01*
G01*
X109670000Y134485000D01*
G75*
G02*
X109520000Y134635000I0J150000D01*
G01*
G37*
G36*
G01*
X109520000Y135905000D02*
X109520000Y136205000D01*
G75*
G02*
X109670000Y136355000I150000J0D01*
G01*
X111345000Y136355000D01*
G75*
G02*
X111495000Y136205000I0J-150000D01*
G01*
X111495000Y135905000D01*
G75*
G02*
X111345000Y135755000I-150000J0D01*
G01*
X109670000Y135755000D01*
G75*
G02*
X109520000Y135905000I0J150000D01*
G01*
G37*
G36*
G01*
X109520000Y137175000D02*
X109520000Y137475000D01*
G75*
G02*
X109670000Y137625000I150000J0D01*
G01*
X111345000Y137625000D01*
G75*
G02*
X111495000Y137475000I0J-150000D01*
G01*
X111495000Y137175000D01*
G75*
G02*
X111345000Y137025000I-150000J0D01*
G01*
X109670000Y137025000D01*
G75*
G02*
X109520000Y137175000I0J150000D01*
G01*
G37*
G36*
G01*
X109520000Y138445000D02*
X109520000Y138745000D01*
G75*
G02*
X109670000Y138895000I150000J0D01*
G01*
X111345000Y138895000D01*
G75*
G02*
X111495000Y138745000I0J-150000D01*
G01*
X111495000Y138445000D01*
G75*
G02*
X111345000Y138295000I-150000J0D01*
G01*
X109670000Y138295000D01*
G75*
G02*
X109520000Y138445000I0J150000D01*
G01*
G37*
%TD*%
D46*
%TO.C,REF\u002A\u002A*%
X120320000Y152273000D03*
X120320000Y151003000D03*
X120320000Y149733000D03*
X120320000Y148463000D03*
X120320000Y147193000D03*
X120320000Y145923000D03*
X120320000Y144653000D03*
X120320000Y143383000D03*
X120320000Y142113000D03*
X120320000Y140843000D03*
X110820000Y140843000D03*
X110820000Y142113000D03*
X110820000Y143383000D03*
X110820000Y144653000D03*
X110820000Y152273000D03*
X110820000Y151003000D03*
X110820000Y149733000D03*
X110820000Y148463000D03*
X110820000Y147193000D03*
X110820000Y145923000D03*
%TD*%
%TO.C,REF\u002A\u002A*%
G36*
G01*
X107377000Y152123000D02*
X107377000Y152423000D01*
G75*
G02*
X107527000Y152573000I150000J0D01*
G01*
X109202000Y152573000D01*
G75*
G02*
X109352000Y152423000I0J-150000D01*
G01*
X109352000Y152123000D01*
G75*
G02*
X109202000Y151973000I-150000J0D01*
G01*
X107527000Y151973000D01*
G75*
G02*
X107377000Y152123000I0J150000D01*
G01*
G37*
G36*
G01*
X107377000Y150853000D02*
X107377000Y151153000D01*
G75*
G02*
X107527000Y151303000I150000J0D01*
G01*
X109202000Y151303000D01*
G75*
G02*
X109352000Y151153000I0J-150000D01*
G01*
X109352000Y150853000D01*
G75*
G02*
X109202000Y150703000I-150000J0D01*
G01*
X107527000Y150703000D01*
G75*
G02*
X107377000Y150853000I0J150000D01*
G01*
G37*
G36*
G01*
X107377000Y149583000D02*
X107377000Y149883000D01*
G75*
G02*
X107527000Y150033000I150000J0D01*
G01*
X109202000Y150033000D01*
G75*
G02*
X109352000Y149883000I0J-150000D01*
G01*
X109352000Y149583000D01*
G75*
G02*
X109202000Y149433000I-150000J0D01*
G01*
X107527000Y149433000D01*
G75*
G02*
X107377000Y149583000I0J150000D01*
G01*
G37*
G36*
G01*
X107377000Y148313000D02*
X107377000Y148613000D01*
G75*
G02*
X107527000Y148763000I150000J0D01*
G01*
X109202000Y148763000D01*
G75*
G02*
X109352000Y148613000I0J-150000D01*
G01*
X109352000Y148313000D01*
G75*
G02*
X109202000Y148163000I-150000J0D01*
G01*
X107527000Y148163000D01*
G75*
G02*
X107377000Y148313000I0J150000D01*
G01*
G37*
G36*
G01*
X107377000Y147043000D02*
X107377000Y147343000D01*
G75*
G02*
X107527000Y147493000I150000J0D01*
G01*
X109202000Y147493000D01*
G75*
G02*
X109352000Y147343000I0J-150000D01*
G01*
X109352000Y147043000D01*
G75*
G02*
X109202000Y146893000I-150000J0D01*
G01*
X107527000Y146893000D01*
G75*
G02*
X107377000Y147043000I0J150000D01*
G01*
G37*
G36*
G01*
X107377000Y145773000D02*
X107377000Y146073000D01*
G75*
G02*
X107527000Y146223000I150000J0D01*
G01*
X109202000Y146223000D01*
G75*
G02*
X109352000Y146073000I0J-150000D01*
G01*
X109352000Y145773000D01*
G75*
G02*
X109202000Y145623000I-150000J0D01*
G01*
X107527000Y145623000D01*
G75*
G02*
X107377000Y145773000I0J150000D01*
G01*
G37*
G36*
G01*
X107377000Y144503000D02*
X107377000Y144803000D01*
G75*
G02*
X107527000Y144953000I150000J0D01*
G01*
X109202000Y144953000D01*
G75*
G02*
X109352000Y144803000I0J-150000D01*
G01*
X109352000Y144503000D01*
G75*
G02*
X109202000Y144353000I-150000J0D01*
G01*
X107527000Y144353000D01*
G75*
G02*
X107377000Y144503000I0J150000D01*
G01*
G37*
G36*
G01*
X107377000Y143233000D02*
X107377000Y143533000D01*
G75*
G02*
X107527000Y143683000I150000J0D01*
G01*
X109202000Y143683000D01*
G75*
G02*
X109352000Y143533000I0J-150000D01*
G01*
X109352000Y143233000D01*
G75*
G02*
X109202000Y143083000I-150000J0D01*
G01*
X107527000Y143083000D01*
G75*
G02*
X107377000Y143233000I0J150000D01*
G01*
G37*
G36*
G01*
X107377000Y141963000D02*
X107377000Y142263000D01*
G75*
G02*
X107527000Y142413000I150000J0D01*
G01*
X109202000Y142413000D01*
G75*
G02*
X109352000Y142263000I0J-150000D01*
G01*
X109352000Y141963000D01*
G75*
G02*
X109202000Y141813000I-150000J0D01*
G01*
X107527000Y141813000D01*
G75*
G02*
X107377000Y141963000I0J150000D01*
G01*
G37*
G36*
G01*
X107377000Y140693000D02*
X107377000Y140993000D01*
G75*
G02*
X107527000Y141143000I150000J0D01*
G01*
X109202000Y141143000D01*
G75*
G02*
X109352000Y140993000I0J-150000D01*
G01*
X109352000Y140693000D01*
G75*
G02*
X109202000Y140543000I-150000J0D01*
G01*
X107527000Y140543000D01*
G75*
G02*
X107377000Y140693000I0J150000D01*
G01*
G37*
G36*
G01*
X100452000Y140693000D02*
X100452000Y140993000D01*
G75*
G02*
X100602000Y141143000I150000J0D01*
G01*
X102277000Y141143000D01*
G75*
G02*
X102427000Y140993000I0J-150000D01*
G01*
X102427000Y140693000D01*
G75*
G02*
X102277000Y140543000I-150000J0D01*
G01*
X100602000Y140543000D01*
G75*
G02*
X100452000Y140693000I0J150000D01*
G01*
G37*
G36*
G01*
X100452000Y141963000D02*
X100452000Y142263000D01*
G75*
G02*
X100602000Y142413000I150000J0D01*
G01*
X102277000Y142413000D01*
G75*
G02*
X102427000Y142263000I0J-150000D01*
G01*
X102427000Y141963000D01*
G75*
G02*
X102277000Y141813000I-150000J0D01*
G01*
X100602000Y141813000D01*
G75*
G02*
X100452000Y141963000I0J150000D01*
G01*
G37*
G36*
G01*
X100452000Y143233000D02*
X100452000Y143533000D01*
G75*
G02*
X100602000Y143683000I150000J0D01*
G01*
X102277000Y143683000D01*
G75*
G02*
X102427000Y143533000I0J-150000D01*
G01*
X102427000Y143233000D01*
G75*
G02*
X102277000Y143083000I-150000J0D01*
G01*
X100602000Y143083000D01*
G75*
G02*
X100452000Y143233000I0J150000D01*
G01*
G37*
G36*
G01*
X100452000Y144503000D02*
X100452000Y144803000D01*
G75*
G02*
X100602000Y144953000I150000J0D01*
G01*
X102277000Y144953000D01*
G75*
G02*
X102427000Y144803000I0J-150000D01*
G01*
X102427000Y144503000D01*
G75*
G02*
X102277000Y144353000I-150000J0D01*
G01*
X100602000Y144353000D01*
G75*
G02*
X100452000Y144503000I0J150000D01*
G01*
G37*
G36*
G01*
X100452000Y145773000D02*
X100452000Y146073000D01*
G75*
G02*
X100602000Y146223000I150000J0D01*
G01*
X102277000Y146223000D01*
G75*
G02*
X102427000Y146073000I0J-150000D01*
G01*
X102427000Y145773000D01*
G75*
G02*
X102277000Y145623000I-150000J0D01*
G01*
X100602000Y145623000D01*
G75*
G02*
X100452000Y145773000I0J150000D01*
G01*
G37*
G36*
G01*
X100452000Y147043000D02*
X100452000Y147343000D01*
G75*
G02*
X100602000Y147493000I150000J0D01*
G01*
X102277000Y147493000D01*
G75*
G02*
X102427000Y147343000I0J-150000D01*
G01*
X102427000Y147043000D01*
G75*
G02*
X102277000Y146893000I-150000J0D01*
G01*
X100602000Y146893000D01*
G75*
G02*
X100452000Y147043000I0J150000D01*
G01*
G37*
G36*
G01*
X100452000Y148313000D02*
X100452000Y148613000D01*
G75*
G02*
X100602000Y148763000I150000J0D01*
G01*
X102277000Y148763000D01*
G75*
G02*
X102427000Y148613000I0J-150000D01*
G01*
X102427000Y148313000D01*
G75*
G02*
X102277000Y148163000I-150000J0D01*
G01*
X100602000Y148163000D01*
G75*
G02*
X100452000Y148313000I0J150000D01*
G01*
G37*
G36*
G01*
X100452000Y149583000D02*
X100452000Y149883000D01*
G75*
G02*
X100602000Y150033000I150000J0D01*
G01*
X102277000Y150033000D01*
G75*
G02*
X102427000Y149883000I0J-150000D01*
G01*
X102427000Y149583000D01*
G75*
G02*
X102277000Y149433000I-150000J0D01*
G01*
X100602000Y149433000D01*
G75*
G02*
X100452000Y149583000I0J150000D01*
G01*
G37*
G36*
G01*
X100452000Y150853000D02*
X100452000Y151153000D01*
G75*
G02*
X100602000Y151303000I150000J0D01*
G01*
X102277000Y151303000D01*
G75*
G02*
X102427000Y151153000I0J-150000D01*
G01*
X102427000Y150853000D01*
G75*
G02*
X102277000Y150703000I-150000J0D01*
G01*
X100602000Y150703000D01*
G75*
G02*
X100452000Y150853000I0J150000D01*
G01*
G37*
G36*
G01*
X100452000Y152123000D02*
X100452000Y152423000D01*
G75*
G02*
X100602000Y152573000I150000J0D01*
G01*
X102277000Y152573000D01*
G75*
G02*
X102427000Y152423000I0J-150000D01*
G01*
X102427000Y152123000D01*
G75*
G02*
X102277000Y151973000I-150000J0D01*
G01*
X100602000Y151973000D01*
G75*
G02*
X100452000Y152123000I0J150000D01*
G01*
G37*
%TD*%
%TO.C,REF\u002A\u002A*%
G36*
G01*
X97351000Y152123000D02*
X97351000Y152423000D01*
G75*
G02*
X97501000Y152573000I150000J0D01*
G01*
X99251000Y152573000D01*
G75*
G02*
X99401000Y152423000I0J-150000D01*
G01*
X99401000Y152123000D01*
G75*
G02*
X99251000Y151973000I-150000J0D01*
G01*
X97501000Y151973000D01*
G75*
G02*
X97351000Y152123000I0J150000D01*
G01*
G37*
G36*
G01*
X97351000Y150853000D02*
X97351000Y151153000D01*
G75*
G02*
X97501000Y151303000I150000J0D01*
G01*
X99251000Y151303000D01*
G75*
G02*
X99401000Y151153000I0J-150000D01*
G01*
X99401000Y150853000D01*
G75*
G02*
X99251000Y150703000I-150000J0D01*
G01*
X97501000Y150703000D01*
G75*
G02*
X97351000Y150853000I0J150000D01*
G01*
G37*
G36*
G01*
X97351000Y149583000D02*
X97351000Y149883000D01*
G75*
G02*
X97501000Y150033000I150000J0D01*
G01*
X99251000Y150033000D01*
G75*
G02*
X99401000Y149883000I0J-150000D01*
G01*
X99401000Y149583000D01*
G75*
G02*
X99251000Y149433000I-150000J0D01*
G01*
X97501000Y149433000D01*
G75*
G02*
X97351000Y149583000I0J150000D01*
G01*
G37*
G36*
G01*
X97351000Y148313000D02*
X97351000Y148613000D01*
G75*
G02*
X97501000Y148763000I150000J0D01*
G01*
X99251000Y148763000D01*
G75*
G02*
X99401000Y148613000I0J-150000D01*
G01*
X99401000Y148313000D01*
G75*
G02*
X99251000Y148163000I-150000J0D01*
G01*
X97501000Y148163000D01*
G75*
G02*
X97351000Y148313000I0J150000D01*
G01*
G37*
G36*
G01*
X97351000Y147043000D02*
X97351000Y147343000D01*
G75*
G02*
X97501000Y147493000I150000J0D01*
G01*
X99251000Y147493000D01*
G75*
G02*
X99401000Y147343000I0J-150000D01*
G01*
X99401000Y147043000D01*
G75*
G02*
X99251000Y146893000I-150000J0D01*
G01*
X97501000Y146893000D01*
G75*
G02*
X97351000Y147043000I0J150000D01*
G01*
G37*
G36*
G01*
X97351000Y145773000D02*
X97351000Y146073000D01*
G75*
G02*
X97501000Y146223000I150000J0D01*
G01*
X99251000Y146223000D01*
G75*
G02*
X99401000Y146073000I0J-150000D01*
G01*
X99401000Y145773000D01*
G75*
G02*
X99251000Y145623000I-150000J0D01*
G01*
X97501000Y145623000D01*
G75*
G02*
X97351000Y145773000I0J150000D01*
G01*
G37*
G36*
G01*
X97351000Y144503000D02*
X97351000Y144803000D01*
G75*
G02*
X97501000Y144953000I150000J0D01*
G01*
X99251000Y144953000D01*
G75*
G02*
X99401000Y144803000I0J-150000D01*
G01*
X99401000Y144503000D01*
G75*
G02*
X99251000Y144353000I-150000J0D01*
G01*
X97501000Y144353000D01*
G75*
G02*
X97351000Y144503000I0J150000D01*
G01*
G37*
G36*
G01*
X97351000Y143233000D02*
X97351000Y143533000D01*
G75*
G02*
X97501000Y143683000I150000J0D01*
G01*
X99251000Y143683000D01*
G75*
G02*
X99401000Y143533000I0J-150000D01*
G01*
X99401000Y143233000D01*
G75*
G02*
X99251000Y143083000I-150000J0D01*
G01*
X97501000Y143083000D01*
G75*
G02*
X97351000Y143233000I0J150000D01*
G01*
G37*
G36*
G01*
X97351000Y141963000D02*
X97351000Y142263000D01*
G75*
G02*
X97501000Y142413000I150000J0D01*
G01*
X99251000Y142413000D01*
G75*
G02*
X99401000Y142263000I0J-150000D01*
G01*
X99401000Y141963000D01*
G75*
G02*
X99251000Y141813000I-150000J0D01*
G01*
X97501000Y141813000D01*
G75*
G02*
X97351000Y141963000I0J150000D01*
G01*
G37*
G36*
G01*
X97351000Y140693000D02*
X97351000Y140993000D01*
G75*
G02*
X97501000Y141143000I150000J0D01*
G01*
X99251000Y141143000D01*
G75*
G02*
X99401000Y140993000I0J-150000D01*
G01*
X99401000Y140693000D01*
G75*
G02*
X99251000Y140543000I-150000J0D01*
G01*
X97501000Y140543000D01*
G75*
G02*
X97351000Y140693000I0J150000D01*
G01*
G37*
G36*
G01*
X88051000Y140693000D02*
X88051000Y140993000D01*
G75*
G02*
X88201000Y141143000I150000J0D01*
G01*
X89951000Y141143000D01*
G75*
G02*
X90101000Y140993000I0J-150000D01*
G01*
X90101000Y140693000D01*
G75*
G02*
X89951000Y140543000I-150000J0D01*
G01*
X88201000Y140543000D01*
G75*
G02*
X88051000Y140693000I0J150000D01*
G01*
G37*
G36*
G01*
X88051000Y141963000D02*
X88051000Y142263000D01*
G75*
G02*
X88201000Y142413000I150000J0D01*
G01*
X89951000Y142413000D01*
G75*
G02*
X90101000Y142263000I0J-150000D01*
G01*
X90101000Y141963000D01*
G75*
G02*
X89951000Y141813000I-150000J0D01*
G01*
X88201000Y141813000D01*
G75*
G02*
X88051000Y141963000I0J150000D01*
G01*
G37*
G36*
G01*
X88051000Y143233000D02*
X88051000Y143533000D01*
G75*
G02*
X88201000Y143683000I150000J0D01*
G01*
X89951000Y143683000D01*
G75*
G02*
X90101000Y143533000I0J-150000D01*
G01*
X90101000Y143233000D01*
G75*
G02*
X89951000Y143083000I-150000J0D01*
G01*
X88201000Y143083000D01*
G75*
G02*
X88051000Y143233000I0J150000D01*
G01*
G37*
G36*
G01*
X88051000Y144503000D02*
X88051000Y144803000D01*
G75*
G02*
X88201000Y144953000I150000J0D01*
G01*
X89951000Y144953000D01*
G75*
G02*
X90101000Y144803000I0J-150000D01*
G01*
X90101000Y144503000D01*
G75*
G02*
X89951000Y144353000I-150000J0D01*
G01*
X88201000Y144353000D01*
G75*
G02*
X88051000Y144503000I0J150000D01*
G01*
G37*
G36*
G01*
X88051000Y145773000D02*
X88051000Y146073000D01*
G75*
G02*
X88201000Y146223000I150000J0D01*
G01*
X89951000Y146223000D01*
G75*
G02*
X90101000Y146073000I0J-150000D01*
G01*
X90101000Y145773000D01*
G75*
G02*
X89951000Y145623000I-150000J0D01*
G01*
X88201000Y145623000D01*
G75*
G02*
X88051000Y145773000I0J150000D01*
G01*
G37*
G36*
G01*
X88051000Y147043000D02*
X88051000Y147343000D01*
G75*
G02*
X88201000Y147493000I150000J0D01*
G01*
X89951000Y147493000D01*
G75*
G02*
X90101000Y147343000I0J-150000D01*
G01*
X90101000Y147043000D01*
G75*
G02*
X89951000Y146893000I-150000J0D01*
G01*
X88201000Y146893000D01*
G75*
G02*
X88051000Y147043000I0J150000D01*
G01*
G37*
G36*
G01*
X88051000Y148313000D02*
X88051000Y148613000D01*
G75*
G02*
X88201000Y148763000I150000J0D01*
G01*
X89951000Y148763000D01*
G75*
G02*
X90101000Y148613000I0J-150000D01*
G01*
X90101000Y148313000D01*
G75*
G02*
X89951000Y148163000I-150000J0D01*
G01*
X88201000Y148163000D01*
G75*
G02*
X88051000Y148313000I0J150000D01*
G01*
G37*
G36*
G01*
X88051000Y149583000D02*
X88051000Y149883000D01*
G75*
G02*
X88201000Y150033000I150000J0D01*
G01*
X89951000Y150033000D01*
G75*
G02*
X90101000Y149883000I0J-150000D01*
G01*
X90101000Y149583000D01*
G75*
G02*
X89951000Y149433000I-150000J0D01*
G01*
X88201000Y149433000D01*
G75*
G02*
X88051000Y149583000I0J150000D01*
G01*
G37*
G36*
G01*
X88051000Y150853000D02*
X88051000Y151153000D01*
G75*
G02*
X88201000Y151303000I150000J0D01*
G01*
X89951000Y151303000D01*
G75*
G02*
X90101000Y151153000I0J-150000D01*
G01*
X90101000Y150853000D01*
G75*
G02*
X89951000Y150703000I-150000J0D01*
G01*
X88201000Y150703000D01*
G75*
G02*
X88051000Y150853000I0J150000D01*
G01*
G37*
G36*
G01*
X88051000Y152123000D02*
X88051000Y152423000D01*
G75*
G02*
X88201000Y152573000I150000J0D01*
G01*
X89951000Y152573000D01*
G75*
G02*
X90101000Y152423000I0J-150000D01*
G01*
X90101000Y152123000D01*
G75*
G02*
X89951000Y151973000I-150000J0D01*
G01*
X88201000Y151973000D01*
G75*
G02*
X88051000Y152123000I0J150000D01*
G01*
G37*
%TD*%
%TO.C,REF\u002A\u002A*%
G36*
G01*
X106605000Y129575000D02*
X106605000Y129875000D01*
G75*
G02*
X106755000Y130025000I150000J0D01*
G01*
X108430000Y130025000D01*
G75*
G02*
X108580000Y129875000I0J-150000D01*
G01*
X108580000Y129575000D01*
G75*
G02*
X108430000Y129425000I-150000J0D01*
G01*
X106755000Y129425000D01*
G75*
G02*
X106605000Y129575000I0J150000D01*
G01*
G37*
G36*
G01*
X106605000Y128305000D02*
X106605000Y128605000D01*
G75*
G02*
X106755000Y128755000I150000J0D01*
G01*
X108430000Y128755000D01*
G75*
G02*
X108580000Y128605000I0J-150000D01*
G01*
X108580000Y128305000D01*
G75*
G02*
X108430000Y128155000I-150000J0D01*
G01*
X106755000Y128155000D01*
G75*
G02*
X106605000Y128305000I0J150000D01*
G01*
G37*
G36*
G01*
X106605000Y127035000D02*
X106605000Y127335000D01*
G75*
G02*
X106755000Y127485000I150000J0D01*
G01*
X108430000Y127485000D01*
G75*
G02*
X108580000Y127335000I0J-150000D01*
G01*
X108580000Y127035000D01*
G75*
G02*
X108430000Y126885000I-150000J0D01*
G01*
X106755000Y126885000D01*
G75*
G02*
X106605000Y127035000I0J150000D01*
G01*
G37*
G36*
G01*
X106605000Y125765000D02*
X106605000Y126065000D01*
G75*
G02*
X106755000Y126215000I150000J0D01*
G01*
X108430000Y126215000D01*
G75*
G02*
X108580000Y126065000I0J-150000D01*
G01*
X108580000Y125765000D01*
G75*
G02*
X108430000Y125615000I-150000J0D01*
G01*
X106755000Y125615000D01*
G75*
G02*
X106605000Y125765000I0J150000D01*
G01*
G37*
G36*
G01*
X106605000Y124495000D02*
X106605000Y124795000D01*
G75*
G02*
X106755000Y124945000I150000J0D01*
G01*
X108430000Y124945000D01*
G75*
G02*
X108580000Y124795000I0J-150000D01*
G01*
X108580000Y124495000D01*
G75*
G02*
X108430000Y124345000I-150000J0D01*
G01*
X106755000Y124345000D01*
G75*
G02*
X106605000Y124495000I0J150000D01*
G01*
G37*
G36*
G01*
X106605000Y123225000D02*
X106605000Y123525000D01*
G75*
G02*
X106755000Y123675000I150000J0D01*
G01*
X108430000Y123675000D01*
G75*
G02*
X108580000Y123525000I0J-150000D01*
G01*
X108580000Y123225000D01*
G75*
G02*
X108430000Y123075000I-150000J0D01*
G01*
X106755000Y123075000D01*
G75*
G02*
X106605000Y123225000I0J150000D01*
G01*
G37*
G36*
G01*
X106605000Y121955000D02*
X106605000Y122255000D01*
G75*
G02*
X106755000Y122405000I150000J0D01*
G01*
X108430000Y122405000D01*
G75*
G02*
X108580000Y122255000I0J-150000D01*
G01*
X108580000Y121955000D01*
G75*
G02*
X108430000Y121805000I-150000J0D01*
G01*
X106755000Y121805000D01*
G75*
G02*
X106605000Y121955000I0J150000D01*
G01*
G37*
G36*
G01*
X106605000Y120685000D02*
X106605000Y120985000D01*
G75*
G02*
X106755000Y121135000I150000J0D01*
G01*
X108430000Y121135000D01*
G75*
G02*
X108580000Y120985000I0J-150000D01*
G01*
X108580000Y120685000D01*
G75*
G02*
X108430000Y120535000I-150000J0D01*
G01*
X106755000Y120535000D01*
G75*
G02*
X106605000Y120685000I0J150000D01*
G01*
G37*
G36*
G01*
X99680000Y120685000D02*
X99680000Y120985000D01*
G75*
G02*
X99830000Y121135000I150000J0D01*
G01*
X101505000Y121135000D01*
G75*
G02*
X101655000Y120985000I0J-150000D01*
G01*
X101655000Y120685000D01*
G75*
G02*
X101505000Y120535000I-150000J0D01*
G01*
X99830000Y120535000D01*
G75*
G02*
X99680000Y120685000I0J150000D01*
G01*
G37*
G36*
G01*
X99680000Y121955000D02*
X99680000Y122255000D01*
G75*
G02*
X99830000Y122405000I150000J0D01*
G01*
X101505000Y122405000D01*
G75*
G02*
X101655000Y122255000I0J-150000D01*
G01*
X101655000Y121955000D01*
G75*
G02*
X101505000Y121805000I-150000J0D01*
G01*
X99830000Y121805000D01*
G75*
G02*
X99680000Y121955000I0J150000D01*
G01*
G37*
G36*
G01*
X99680000Y123225000D02*
X99680000Y123525000D01*
G75*
G02*
X99830000Y123675000I150000J0D01*
G01*
X101505000Y123675000D01*
G75*
G02*
X101655000Y123525000I0J-150000D01*
G01*
X101655000Y123225000D01*
G75*
G02*
X101505000Y123075000I-150000J0D01*
G01*
X99830000Y123075000D01*
G75*
G02*
X99680000Y123225000I0J150000D01*
G01*
G37*
G36*
G01*
X99680000Y124495000D02*
X99680000Y124795000D01*
G75*
G02*
X99830000Y124945000I150000J0D01*
G01*
X101505000Y124945000D01*
G75*
G02*
X101655000Y124795000I0J-150000D01*
G01*
X101655000Y124495000D01*
G75*
G02*
X101505000Y124345000I-150000J0D01*
G01*
X99830000Y124345000D01*
G75*
G02*
X99680000Y124495000I0J150000D01*
G01*
G37*
G36*
G01*
X99680000Y125765000D02*
X99680000Y126065000D01*
G75*
G02*
X99830000Y126215000I150000J0D01*
G01*
X101505000Y126215000D01*
G75*
G02*
X101655000Y126065000I0J-150000D01*
G01*
X101655000Y125765000D01*
G75*
G02*
X101505000Y125615000I-150000J0D01*
G01*
X99830000Y125615000D01*
G75*
G02*
X99680000Y125765000I0J150000D01*
G01*
G37*
G36*
G01*
X99680000Y127035000D02*
X99680000Y127335000D01*
G75*
G02*
X99830000Y127485000I150000J0D01*
G01*
X101505000Y127485000D01*
G75*
G02*
X101655000Y127335000I0J-150000D01*
G01*
X101655000Y127035000D01*
G75*
G02*
X101505000Y126885000I-150000J0D01*
G01*
X99830000Y126885000D01*
G75*
G02*
X99680000Y127035000I0J150000D01*
G01*
G37*
G36*
G01*
X99680000Y128305000D02*
X99680000Y128605000D01*
G75*
G02*
X99830000Y128755000I150000J0D01*
G01*
X101505000Y128755000D01*
G75*
G02*
X101655000Y128605000I0J-150000D01*
G01*
X101655000Y128305000D01*
G75*
G02*
X101505000Y128155000I-150000J0D01*
G01*
X99830000Y128155000D01*
G75*
G02*
X99680000Y128305000I0J150000D01*
G01*
G37*
G36*
G01*
X99680000Y129575000D02*
X99680000Y129875000D01*
G75*
G02*
X99830000Y130025000I150000J0D01*
G01*
X101505000Y130025000D01*
G75*
G02*
X101655000Y129875000I0J-150000D01*
G01*
X101655000Y129575000D01*
G75*
G02*
X101505000Y129425000I-150000J0D01*
G01*
X99830000Y129425000D01*
G75*
G02*
X99680000Y129575000I0J150000D01*
G01*
G37*
%TD*%
%TO.C,REF\u002A\u002A*%
G36*
G01*
X97174000Y129437000D02*
X97174000Y129737000D01*
G75*
G02*
X97324000Y129887000I150000J0D01*
G01*
X98774000Y129887000D01*
G75*
G02*
X98924000Y129737000I0J-150000D01*
G01*
X98924000Y129437000D01*
G75*
G02*
X98774000Y129287000I-150000J0D01*
G01*
X97324000Y129287000D01*
G75*
G02*
X97174000Y129437000I0J150000D01*
G01*
G37*
G36*
G01*
X97174000Y128167000D02*
X97174000Y128467000D01*
G75*
G02*
X97324000Y128617000I150000J0D01*
G01*
X98774000Y128617000D01*
G75*
G02*
X98924000Y128467000I0J-150000D01*
G01*
X98924000Y128167000D01*
G75*
G02*
X98774000Y128017000I-150000J0D01*
G01*
X97324000Y128017000D01*
G75*
G02*
X97174000Y128167000I0J150000D01*
G01*
G37*
G36*
G01*
X97174000Y126897000D02*
X97174000Y127197000D01*
G75*
G02*
X97324000Y127347000I150000J0D01*
G01*
X98774000Y127347000D01*
G75*
G02*
X98924000Y127197000I0J-150000D01*
G01*
X98924000Y126897000D01*
G75*
G02*
X98774000Y126747000I-150000J0D01*
G01*
X97324000Y126747000D01*
G75*
G02*
X97174000Y126897000I0J150000D01*
G01*
G37*
G36*
G01*
X97174000Y125627000D02*
X97174000Y125927000D01*
G75*
G02*
X97324000Y126077000I150000J0D01*
G01*
X98774000Y126077000D01*
G75*
G02*
X98924000Y125927000I0J-150000D01*
G01*
X98924000Y125627000D01*
G75*
G02*
X98774000Y125477000I-150000J0D01*
G01*
X97324000Y125477000D01*
G75*
G02*
X97174000Y125627000I0J150000D01*
G01*
G37*
G36*
G01*
X97174000Y124357000D02*
X97174000Y124657000D01*
G75*
G02*
X97324000Y124807000I150000J0D01*
G01*
X98774000Y124807000D01*
G75*
G02*
X98924000Y124657000I0J-150000D01*
G01*
X98924000Y124357000D01*
G75*
G02*
X98774000Y124207000I-150000J0D01*
G01*
X97324000Y124207000D01*
G75*
G02*
X97174000Y124357000I0J150000D01*
G01*
G37*
G36*
G01*
X97174000Y123087000D02*
X97174000Y123387000D01*
G75*
G02*
X97324000Y123537000I150000J0D01*
G01*
X98774000Y123537000D01*
G75*
G02*
X98924000Y123387000I0J-150000D01*
G01*
X98924000Y123087000D01*
G75*
G02*
X98774000Y122937000I-150000J0D01*
G01*
X97324000Y122937000D01*
G75*
G02*
X97174000Y123087000I0J150000D01*
G01*
G37*
G36*
G01*
X97174000Y121817000D02*
X97174000Y122117000D01*
G75*
G02*
X97324000Y122267000I150000J0D01*
G01*
X98774000Y122267000D01*
G75*
G02*
X98924000Y122117000I0J-150000D01*
G01*
X98924000Y121817000D01*
G75*
G02*
X98774000Y121667000I-150000J0D01*
G01*
X97324000Y121667000D01*
G75*
G02*
X97174000Y121817000I0J150000D01*
G01*
G37*
G36*
G01*
X97174000Y120547000D02*
X97174000Y120847000D01*
G75*
G02*
X97324000Y120997000I150000J0D01*
G01*
X98774000Y120997000D01*
G75*
G02*
X98924000Y120847000I0J-150000D01*
G01*
X98924000Y120547000D01*
G75*
G02*
X98774000Y120397000I-150000J0D01*
G01*
X97324000Y120397000D01*
G75*
G02*
X97174000Y120547000I0J150000D01*
G01*
G37*
G36*
G01*
X92024000Y120547000D02*
X92024000Y120847000D01*
G75*
G02*
X92174000Y120997000I150000J0D01*
G01*
X93624000Y120997000D01*
G75*
G02*
X93774000Y120847000I0J-150000D01*
G01*
X93774000Y120547000D01*
G75*
G02*
X93624000Y120397000I-150000J0D01*
G01*
X92174000Y120397000D01*
G75*
G02*
X92024000Y120547000I0J150000D01*
G01*
G37*
G36*
G01*
X92024000Y121817000D02*
X92024000Y122117000D01*
G75*
G02*
X92174000Y122267000I150000J0D01*
G01*
X93624000Y122267000D01*
G75*
G02*
X93774000Y122117000I0J-150000D01*
G01*
X93774000Y121817000D01*
G75*
G02*
X93624000Y121667000I-150000J0D01*
G01*
X92174000Y121667000D01*
G75*
G02*
X92024000Y121817000I0J150000D01*
G01*
G37*
G36*
G01*
X92024000Y123087000D02*
X92024000Y123387000D01*
G75*
G02*
X92174000Y123537000I150000J0D01*
G01*
X93624000Y123537000D01*
G75*
G02*
X93774000Y123387000I0J-150000D01*
G01*
X93774000Y123087000D01*
G75*
G02*
X93624000Y122937000I-150000J0D01*
G01*
X92174000Y122937000D01*
G75*
G02*
X92024000Y123087000I0J150000D01*
G01*
G37*
G36*
G01*
X92024000Y124357000D02*
X92024000Y124657000D01*
G75*
G02*
X92174000Y124807000I150000J0D01*
G01*
X93624000Y124807000D01*
G75*
G02*
X93774000Y124657000I0J-150000D01*
G01*
X93774000Y124357000D01*
G75*
G02*
X93624000Y124207000I-150000J0D01*
G01*
X92174000Y124207000D01*
G75*
G02*
X92024000Y124357000I0J150000D01*
G01*
G37*
G36*
G01*
X92024000Y125627000D02*
X92024000Y125927000D01*
G75*
G02*
X92174000Y126077000I150000J0D01*
G01*
X93624000Y126077000D01*
G75*
G02*
X93774000Y125927000I0J-150000D01*
G01*
X93774000Y125627000D01*
G75*
G02*
X93624000Y125477000I-150000J0D01*
G01*
X92174000Y125477000D01*
G75*
G02*
X92024000Y125627000I0J150000D01*
G01*
G37*
G36*
G01*
X92024000Y126897000D02*
X92024000Y127197000D01*
G75*
G02*
X92174000Y127347000I150000J0D01*
G01*
X93624000Y127347000D01*
G75*
G02*
X93774000Y127197000I0J-150000D01*
G01*
X93774000Y126897000D01*
G75*
G02*
X93624000Y126747000I-150000J0D01*
G01*
X92174000Y126747000D01*
G75*
G02*
X92024000Y126897000I0J150000D01*
G01*
G37*
G36*
G01*
X92024000Y128167000D02*
X92024000Y128467000D01*
G75*
G02*
X92174000Y128617000I150000J0D01*
G01*
X93624000Y128617000D01*
G75*
G02*
X93774000Y128467000I0J-150000D01*
G01*
X93774000Y128167000D01*
G75*
G02*
X93624000Y128017000I-150000J0D01*
G01*
X92174000Y128017000D01*
G75*
G02*
X92024000Y128167000I0J150000D01*
G01*
G37*
G36*
G01*
X92024000Y129437000D02*
X92024000Y129737000D01*
G75*
G02*
X92174000Y129887000I150000J0D01*
G01*
X93624000Y129887000D01*
G75*
G02*
X93774000Y129737000I0J-150000D01*
G01*
X93774000Y129437000D01*
G75*
G02*
X93624000Y129287000I-150000J0D01*
G01*
X92174000Y129287000D01*
G75*
G02*
X92024000Y129437000I0J150000D01*
G01*
G37*
%TD*%
%TO.C,REF\u002A\u002A*%
G36*
G01*
X89313000Y129437000D02*
X89313000Y129737000D01*
G75*
G02*
X89463000Y129887000I150000J0D01*
G01*
X91138000Y129887000D01*
G75*
G02*
X91288000Y129737000I0J-150000D01*
G01*
X91288000Y129437000D01*
G75*
G02*
X91138000Y129287000I-150000J0D01*
G01*
X89463000Y129287000D01*
G75*
G02*
X89313000Y129437000I0J150000D01*
G01*
G37*
G36*
G01*
X89313000Y128167000D02*
X89313000Y128467000D01*
G75*
G02*
X89463000Y128617000I150000J0D01*
G01*
X91138000Y128617000D01*
G75*
G02*
X91288000Y128467000I0J-150000D01*
G01*
X91288000Y128167000D01*
G75*
G02*
X91138000Y128017000I-150000J0D01*
G01*
X89463000Y128017000D01*
G75*
G02*
X89313000Y128167000I0J150000D01*
G01*
G37*
G36*
G01*
X89313000Y126897000D02*
X89313000Y127197000D01*
G75*
G02*
X89463000Y127347000I150000J0D01*
G01*
X91138000Y127347000D01*
G75*
G02*
X91288000Y127197000I0J-150000D01*
G01*
X91288000Y126897000D01*
G75*
G02*
X91138000Y126747000I-150000J0D01*
G01*
X89463000Y126747000D01*
G75*
G02*
X89313000Y126897000I0J150000D01*
G01*
G37*
G36*
G01*
X89313000Y125627000D02*
X89313000Y125927000D01*
G75*
G02*
X89463000Y126077000I150000J0D01*
G01*
X91138000Y126077000D01*
G75*
G02*
X91288000Y125927000I0J-150000D01*
G01*
X91288000Y125627000D01*
G75*
G02*
X91138000Y125477000I-150000J0D01*
G01*
X89463000Y125477000D01*
G75*
G02*
X89313000Y125627000I0J150000D01*
G01*
G37*
G36*
G01*
X89313000Y124357000D02*
X89313000Y124657000D01*
G75*
G02*
X89463000Y124807000I150000J0D01*
G01*
X91138000Y124807000D01*
G75*
G02*
X91288000Y124657000I0J-150000D01*
G01*
X91288000Y124357000D01*
G75*
G02*
X91138000Y124207000I-150000J0D01*
G01*
X89463000Y124207000D01*
G75*
G02*
X89313000Y124357000I0J150000D01*
G01*
G37*
G36*
G01*
X89313000Y123087000D02*
X89313000Y123387000D01*
G75*
G02*
X89463000Y123537000I150000J0D01*
G01*
X91138000Y123537000D01*
G75*
G02*
X91288000Y123387000I0J-150000D01*
G01*
X91288000Y123087000D01*
G75*
G02*
X91138000Y122937000I-150000J0D01*
G01*
X89463000Y122937000D01*
G75*
G02*
X89313000Y123087000I0J150000D01*
G01*
G37*
G36*
G01*
X89313000Y121817000D02*
X89313000Y122117000D01*
G75*
G02*
X89463000Y122267000I150000J0D01*
G01*
X91138000Y122267000D01*
G75*
G02*
X91288000Y122117000I0J-150000D01*
G01*
X91288000Y121817000D01*
G75*
G02*
X91138000Y121667000I-150000J0D01*
G01*
X89463000Y121667000D01*
G75*
G02*
X89313000Y121817000I0J150000D01*
G01*
G37*
G36*
G01*
X89313000Y120547000D02*
X89313000Y120847000D01*
G75*
G02*
X89463000Y120997000I150000J0D01*
G01*
X91138000Y120997000D01*
G75*
G02*
X91288000Y120847000I0J-150000D01*
G01*
X91288000Y120547000D01*
G75*
G02*
X91138000Y120397000I-150000J0D01*
G01*
X89463000Y120397000D01*
G75*
G02*
X89313000Y120547000I0J150000D01*
G01*
G37*
G36*
G01*
X82388000Y120547000D02*
X82388000Y120847000D01*
G75*
G02*
X82538000Y120997000I150000J0D01*
G01*
X84213000Y120997000D01*
G75*
G02*
X84363000Y120847000I0J-150000D01*
G01*
X84363000Y120547000D01*
G75*
G02*
X84213000Y120397000I-150000J0D01*
G01*
X82538000Y120397000D01*
G75*
G02*
X82388000Y120547000I0J150000D01*
G01*
G37*
G36*
G01*
X82388000Y121817000D02*
X82388000Y122117000D01*
G75*
G02*
X82538000Y122267000I150000J0D01*
G01*
X84213000Y122267000D01*
G75*
G02*
X84363000Y122117000I0J-150000D01*
G01*
X84363000Y121817000D01*
G75*
G02*
X84213000Y121667000I-150000J0D01*
G01*
X82538000Y121667000D01*
G75*
G02*
X82388000Y121817000I0J150000D01*
G01*
G37*
G36*
G01*
X82388000Y123087000D02*
X82388000Y123387000D01*
G75*
G02*
X82538000Y123537000I150000J0D01*
G01*
X84213000Y123537000D01*
G75*
G02*
X84363000Y123387000I0J-150000D01*
G01*
X84363000Y123087000D01*
G75*
G02*
X84213000Y122937000I-150000J0D01*
G01*
X82538000Y122937000D01*
G75*
G02*
X82388000Y123087000I0J150000D01*
G01*
G37*
G36*
G01*
X82388000Y124357000D02*
X82388000Y124657000D01*
G75*
G02*
X82538000Y124807000I150000J0D01*
G01*
X84213000Y124807000D01*
G75*
G02*
X84363000Y124657000I0J-150000D01*
G01*
X84363000Y124357000D01*
G75*
G02*
X84213000Y124207000I-150000J0D01*
G01*
X82538000Y124207000D01*
G75*
G02*
X82388000Y124357000I0J150000D01*
G01*
G37*
G36*
G01*
X82388000Y125627000D02*
X82388000Y125927000D01*
G75*
G02*
X82538000Y126077000I150000J0D01*
G01*
X84213000Y126077000D01*
G75*
G02*
X84363000Y125927000I0J-150000D01*
G01*
X84363000Y125627000D01*
G75*
G02*
X84213000Y125477000I-150000J0D01*
G01*
X82538000Y125477000D01*
G75*
G02*
X82388000Y125627000I0J150000D01*
G01*
G37*
G36*
G01*
X82388000Y126897000D02*
X82388000Y127197000D01*
G75*
G02*
X82538000Y127347000I150000J0D01*
G01*
X84213000Y127347000D01*
G75*
G02*
X84363000Y127197000I0J-150000D01*
G01*
X84363000Y126897000D01*
G75*
G02*
X84213000Y126747000I-150000J0D01*
G01*
X82538000Y126747000D01*
G75*
G02*
X82388000Y126897000I0J150000D01*
G01*
G37*
G36*
G01*
X82388000Y128167000D02*
X82388000Y128467000D01*
G75*
G02*
X82538000Y128617000I150000J0D01*
G01*
X84213000Y128617000D01*
G75*
G02*
X84363000Y128467000I0J-150000D01*
G01*
X84363000Y128167000D01*
G75*
G02*
X84213000Y128017000I-150000J0D01*
G01*
X82538000Y128017000D01*
G75*
G02*
X82388000Y128167000I0J150000D01*
G01*
G37*
G36*
G01*
X82388000Y129437000D02*
X82388000Y129737000D01*
G75*
G02*
X82538000Y129887000I150000J0D01*
G01*
X84213000Y129887000D01*
G75*
G02*
X84363000Y129737000I0J-150000D01*
G01*
X84363000Y129437000D01*
G75*
G02*
X84213000Y129287000I-150000J0D01*
G01*
X82538000Y129287000D01*
G75*
G02*
X82388000Y129437000I0J150000D01*
G01*
G37*
%TD*%
%TO.C,REF\u002A\u002A*%
G36*
G01*
X79630000Y133500000D02*
X79630000Y133800000D01*
G75*
G02*
X79780000Y133950000I150000J0D01*
G01*
X81430000Y133950000D01*
G75*
G02*
X81580000Y133800000I0J-150000D01*
G01*
X81580000Y133500000D01*
G75*
G02*
X81430000Y133350000I-150000J0D01*
G01*
X79780000Y133350000D01*
G75*
G02*
X79630000Y133500000I0J150000D01*
G01*
G37*
G36*
G01*
X79630000Y132230000D02*
X79630000Y132530000D01*
G75*
G02*
X79780000Y132680000I150000J0D01*
G01*
X81430000Y132680000D01*
G75*
G02*
X81580000Y132530000I0J-150000D01*
G01*
X81580000Y132230000D01*
G75*
G02*
X81430000Y132080000I-150000J0D01*
G01*
X79780000Y132080000D01*
G75*
G02*
X79630000Y132230000I0J150000D01*
G01*
G37*
G36*
G01*
X79630000Y130960000D02*
X79630000Y131260000D01*
G75*
G02*
X79780000Y131410000I150000J0D01*
G01*
X81430000Y131410000D01*
G75*
G02*
X81580000Y131260000I0J-150000D01*
G01*
X81580000Y130960000D01*
G75*
G02*
X81430000Y130810000I-150000J0D01*
G01*
X79780000Y130810000D01*
G75*
G02*
X79630000Y130960000I0J150000D01*
G01*
G37*
G36*
G01*
X79630000Y129690000D02*
X79630000Y129990000D01*
G75*
G02*
X79780000Y130140000I150000J0D01*
G01*
X81430000Y130140000D01*
G75*
G02*
X81580000Y129990000I0J-150000D01*
G01*
X81580000Y129690000D01*
G75*
G02*
X81430000Y129540000I-150000J0D01*
G01*
X79780000Y129540000D01*
G75*
G02*
X79630000Y129690000I0J150000D01*
G01*
G37*
G36*
G01*
X79630000Y128420000D02*
X79630000Y128720000D01*
G75*
G02*
X79780000Y128870000I150000J0D01*
G01*
X81430000Y128870000D01*
G75*
G02*
X81580000Y128720000I0J-150000D01*
G01*
X81580000Y128420000D01*
G75*
G02*
X81430000Y128270000I-150000J0D01*
G01*
X79780000Y128270000D01*
G75*
G02*
X79630000Y128420000I0J150000D01*
G01*
G37*
G36*
G01*
X79630000Y127150000D02*
X79630000Y127450000D01*
G75*
G02*
X79780000Y127600000I150000J0D01*
G01*
X81430000Y127600000D01*
G75*
G02*
X81580000Y127450000I0J-150000D01*
G01*
X81580000Y127150000D01*
G75*
G02*
X81430000Y127000000I-150000J0D01*
G01*
X79780000Y127000000D01*
G75*
G02*
X79630000Y127150000I0J150000D01*
G01*
G37*
G36*
G01*
X79630000Y125880000D02*
X79630000Y126180000D01*
G75*
G02*
X79780000Y126330000I150000J0D01*
G01*
X81430000Y126330000D01*
G75*
G02*
X81580000Y126180000I0J-150000D01*
G01*
X81580000Y125880000D01*
G75*
G02*
X81430000Y125730000I-150000J0D01*
G01*
X79780000Y125730000D01*
G75*
G02*
X79630000Y125880000I0J150000D01*
G01*
G37*
G36*
G01*
X74680000Y125880000D02*
X74680000Y126180000D01*
G75*
G02*
X74830000Y126330000I150000J0D01*
G01*
X76480000Y126330000D01*
G75*
G02*
X76630000Y126180000I0J-150000D01*
G01*
X76630000Y125880000D01*
G75*
G02*
X76480000Y125730000I-150000J0D01*
G01*
X74830000Y125730000D01*
G75*
G02*
X74680000Y125880000I0J150000D01*
G01*
G37*
G36*
G01*
X74680000Y127150000D02*
X74680000Y127450000D01*
G75*
G02*
X74830000Y127600000I150000J0D01*
G01*
X76480000Y127600000D01*
G75*
G02*
X76630000Y127450000I0J-150000D01*
G01*
X76630000Y127150000D01*
G75*
G02*
X76480000Y127000000I-150000J0D01*
G01*
X74830000Y127000000D01*
G75*
G02*
X74680000Y127150000I0J150000D01*
G01*
G37*
G36*
G01*
X74680000Y128420000D02*
X74680000Y128720000D01*
G75*
G02*
X74830000Y128870000I150000J0D01*
G01*
X76480000Y128870000D01*
G75*
G02*
X76630000Y128720000I0J-150000D01*
G01*
X76630000Y128420000D01*
G75*
G02*
X76480000Y128270000I-150000J0D01*
G01*
X74830000Y128270000D01*
G75*
G02*
X74680000Y128420000I0J150000D01*
G01*
G37*
G36*
G01*
X74680000Y129690000D02*
X74680000Y129990000D01*
G75*
G02*
X74830000Y130140000I150000J0D01*
G01*
X76480000Y130140000D01*
G75*
G02*
X76630000Y129990000I0J-150000D01*
G01*
X76630000Y129690000D01*
G75*
G02*
X76480000Y129540000I-150000J0D01*
G01*
X74830000Y129540000D01*
G75*
G02*
X74680000Y129690000I0J150000D01*
G01*
G37*
G36*
G01*
X74680000Y130960000D02*
X74680000Y131260000D01*
G75*
G02*
X74830000Y131410000I150000J0D01*
G01*
X76480000Y131410000D01*
G75*
G02*
X76630000Y131260000I0J-150000D01*
G01*
X76630000Y130960000D01*
G75*
G02*
X76480000Y130810000I-150000J0D01*
G01*
X74830000Y130810000D01*
G75*
G02*
X74680000Y130960000I0J150000D01*
G01*
G37*
G36*
G01*
X74680000Y132230000D02*
X74680000Y132530000D01*
G75*
G02*
X74830000Y132680000I150000J0D01*
G01*
X76480000Y132680000D01*
G75*
G02*
X76630000Y132530000I0J-150000D01*
G01*
X76630000Y132230000D01*
G75*
G02*
X76480000Y132080000I-150000J0D01*
G01*
X74830000Y132080000D01*
G75*
G02*
X74680000Y132230000I0J150000D01*
G01*
G37*
G36*
G01*
X74680000Y133500000D02*
X74680000Y133800000D01*
G75*
G02*
X74830000Y133950000I150000J0D01*
G01*
X76480000Y133950000D01*
G75*
G02*
X76630000Y133800000I0J-150000D01*
G01*
X76630000Y133500000D01*
G75*
G02*
X76480000Y133350000I-150000J0D01*
G01*
X74830000Y133350000D01*
G75*
G02*
X74680000Y133500000I0J150000D01*
G01*
G37*
%TD*%
%TO.C,REF\u002A\u002A*%
G36*
G01*
X85275000Y139795000D02*
X85275000Y140095000D01*
G75*
G02*
X85425000Y140245000I150000J0D01*
G01*
X86925000Y140245000D01*
G75*
G02*
X87075000Y140095000I0J-150000D01*
G01*
X87075000Y139795000D01*
G75*
G02*
X86925000Y139645000I-150000J0D01*
G01*
X85425000Y139645000D01*
G75*
G02*
X85275000Y139795000I0J150000D01*
G01*
G37*
G36*
G01*
X85275000Y138525000D02*
X85275000Y138825000D01*
G75*
G02*
X85425000Y138975000I150000J0D01*
G01*
X86925000Y138975000D01*
G75*
G02*
X87075000Y138825000I0J-150000D01*
G01*
X87075000Y138525000D01*
G75*
G02*
X86925000Y138375000I-150000J0D01*
G01*
X85425000Y138375000D01*
G75*
G02*
X85275000Y138525000I0J150000D01*
G01*
G37*
G36*
G01*
X85275000Y137255000D02*
X85275000Y137555000D01*
G75*
G02*
X85425000Y137705000I150000J0D01*
G01*
X86925000Y137705000D01*
G75*
G02*
X87075000Y137555000I0J-150000D01*
G01*
X87075000Y137255000D01*
G75*
G02*
X86925000Y137105000I-150000J0D01*
G01*
X85425000Y137105000D01*
G75*
G02*
X85275000Y137255000I0J150000D01*
G01*
G37*
G36*
G01*
X85275000Y135985000D02*
X85275000Y136285000D01*
G75*
G02*
X85425000Y136435000I150000J0D01*
G01*
X86925000Y136435000D01*
G75*
G02*
X87075000Y136285000I0J-150000D01*
G01*
X87075000Y135985000D01*
G75*
G02*
X86925000Y135835000I-150000J0D01*
G01*
X85425000Y135835000D01*
G75*
G02*
X85275000Y135985000I0J150000D01*
G01*
G37*
G36*
G01*
X74625000Y135985000D02*
X74625000Y136285000D01*
G75*
G02*
X74775000Y136435000I150000J0D01*
G01*
X76275000Y136435000D01*
G75*
G02*
X76425000Y136285000I0J-150000D01*
G01*
X76425000Y135985000D01*
G75*
G02*
X76275000Y135835000I-150000J0D01*
G01*
X74775000Y135835000D01*
G75*
G02*
X74625000Y135985000I0J150000D01*
G01*
G37*
G36*
G01*
X74625000Y137255000D02*
X74625000Y137555000D01*
G75*
G02*
X74775000Y137705000I150000J0D01*
G01*
X76275000Y137705000D01*
G75*
G02*
X76425000Y137555000I0J-150000D01*
G01*
X76425000Y137255000D01*
G75*
G02*
X76275000Y137105000I-150000J0D01*
G01*
X74775000Y137105000D01*
G75*
G02*
X74625000Y137255000I0J150000D01*
G01*
G37*
G36*
G01*
X74625000Y138525000D02*
X74625000Y138825000D01*
G75*
G02*
X74775000Y138975000I150000J0D01*
G01*
X76275000Y138975000D01*
G75*
G02*
X76425000Y138825000I0J-150000D01*
G01*
X76425000Y138525000D01*
G75*
G02*
X76275000Y138375000I-150000J0D01*
G01*
X74775000Y138375000D01*
G75*
G02*
X74625000Y138525000I0J150000D01*
G01*
G37*
G36*
G01*
X74625000Y139795000D02*
X74625000Y140095000D01*
G75*
G02*
X74775000Y140245000I150000J0D01*
G01*
X76275000Y140245000D01*
G75*
G02*
X76425000Y140095000I0J-150000D01*
G01*
X76425000Y139795000D01*
G75*
G02*
X76275000Y139645000I-150000J0D01*
G01*
X74775000Y139645000D01*
G75*
G02*
X74625000Y139795000I0J150000D01*
G01*
G37*
%TD*%
%TO.C,REF\u002A\u002A*%
G36*
G01*
X81830000Y146245000D02*
X81830000Y146545000D01*
G75*
G02*
X81980000Y146695000I150000J0D01*
G01*
X83280000Y146695000D01*
G75*
G02*
X83430000Y146545000I0J-150000D01*
G01*
X83430000Y146245000D01*
G75*
G02*
X83280000Y146095000I-150000J0D01*
G01*
X81980000Y146095000D01*
G75*
G02*
X81830000Y146245000I0J150000D01*
G01*
G37*
G36*
G01*
X81830000Y144975000D02*
X81830000Y145275000D01*
G75*
G02*
X81980000Y145425000I150000J0D01*
G01*
X83280000Y145425000D01*
G75*
G02*
X83430000Y145275000I0J-150000D01*
G01*
X83430000Y144975000D01*
G75*
G02*
X83280000Y144825000I-150000J0D01*
G01*
X81980000Y144825000D01*
G75*
G02*
X81830000Y144975000I0J150000D01*
G01*
G37*
G36*
G01*
X81830000Y143705000D02*
X81830000Y144005000D01*
G75*
G02*
X81980000Y144155000I150000J0D01*
G01*
X83280000Y144155000D01*
G75*
G02*
X83430000Y144005000I0J-150000D01*
G01*
X83430000Y143705000D01*
G75*
G02*
X83280000Y143555000I-150000J0D01*
G01*
X81980000Y143555000D01*
G75*
G02*
X81830000Y143705000I0J150000D01*
G01*
G37*
G36*
G01*
X81830000Y142435000D02*
X81830000Y142735000D01*
G75*
G02*
X81980000Y142885000I150000J0D01*
G01*
X83280000Y142885000D01*
G75*
G02*
X83430000Y142735000I0J-150000D01*
G01*
X83430000Y142435000D01*
G75*
G02*
X83280000Y142285000I-150000J0D01*
G01*
X81980000Y142285000D01*
G75*
G02*
X81830000Y142435000I0J150000D01*
G01*
G37*
G36*
G01*
X74630000Y142435000D02*
X74630000Y142735000D01*
G75*
G02*
X74780000Y142885000I150000J0D01*
G01*
X76080000Y142885000D01*
G75*
G02*
X76230000Y142735000I0J-150000D01*
G01*
X76230000Y142435000D01*
G75*
G02*
X76080000Y142285000I-150000J0D01*
G01*
X74780000Y142285000D01*
G75*
G02*
X74630000Y142435000I0J150000D01*
G01*
G37*
G36*
G01*
X74630000Y143705000D02*
X74630000Y144005000D01*
G75*
G02*
X74780000Y144155000I150000J0D01*
G01*
X76080000Y144155000D01*
G75*
G02*
X76230000Y144005000I0J-150000D01*
G01*
X76230000Y143705000D01*
G75*
G02*
X76080000Y143555000I-150000J0D01*
G01*
X74780000Y143555000D01*
G75*
G02*
X74630000Y143705000I0J150000D01*
G01*
G37*
G36*
G01*
X74630000Y144975000D02*
X74630000Y145275000D01*
G75*
G02*
X74780000Y145425000I150000J0D01*
G01*
X76080000Y145425000D01*
G75*
G02*
X76230000Y145275000I0J-150000D01*
G01*
X76230000Y144975000D01*
G75*
G02*
X76080000Y144825000I-150000J0D01*
G01*
X74780000Y144825000D01*
G75*
G02*
X74630000Y144975000I0J150000D01*
G01*
G37*
G36*
G01*
X74630000Y146245000D02*
X74630000Y146545000D01*
G75*
G02*
X74780000Y146695000I150000J0D01*
G01*
X76080000Y146695000D01*
G75*
G02*
X76230000Y146545000I0J-150000D01*
G01*
X76230000Y146245000D01*
G75*
G02*
X76080000Y146095000I-150000J0D01*
G01*
X74780000Y146095000D01*
G75*
G02*
X74630000Y146245000I0J150000D01*
G01*
G37*
%TD*%
%TO.C,REF\u002A\u002A*%
G36*
G01*
X79580000Y152185000D02*
X79580000Y152485000D01*
G75*
G02*
X79730000Y152635000I150000J0D01*
G01*
X81380000Y152635000D01*
G75*
G02*
X81530000Y152485000I0J-150000D01*
G01*
X81530000Y152185000D01*
G75*
G02*
X81380000Y152035000I-150000J0D01*
G01*
X79730000Y152035000D01*
G75*
G02*
X79580000Y152185000I0J150000D01*
G01*
G37*
G36*
G01*
X79580000Y150915000D02*
X79580000Y151215000D01*
G75*
G02*
X79730000Y151365000I150000J0D01*
G01*
X81380000Y151365000D01*
G75*
G02*
X81530000Y151215000I0J-150000D01*
G01*
X81530000Y150915000D01*
G75*
G02*
X81380000Y150765000I-150000J0D01*
G01*
X79730000Y150765000D01*
G75*
G02*
X79580000Y150915000I0J150000D01*
G01*
G37*
G36*
G01*
X79580000Y149645000D02*
X79580000Y149945000D01*
G75*
G02*
X79730000Y150095000I150000J0D01*
G01*
X81380000Y150095000D01*
G75*
G02*
X81530000Y149945000I0J-150000D01*
G01*
X81530000Y149645000D01*
G75*
G02*
X81380000Y149495000I-150000J0D01*
G01*
X79730000Y149495000D01*
G75*
G02*
X79580000Y149645000I0J150000D01*
G01*
G37*
G36*
G01*
X79580000Y148375000D02*
X79580000Y148675000D01*
G75*
G02*
X79730000Y148825000I150000J0D01*
G01*
X81380000Y148825000D01*
G75*
G02*
X81530000Y148675000I0J-150000D01*
G01*
X81530000Y148375000D01*
G75*
G02*
X81380000Y148225000I-150000J0D01*
G01*
X79730000Y148225000D01*
G75*
G02*
X79580000Y148375000I0J150000D01*
G01*
G37*
G36*
G01*
X74630000Y148375000D02*
X74630000Y148675000D01*
G75*
G02*
X74780000Y148825000I150000J0D01*
G01*
X76430000Y148825000D01*
G75*
G02*
X76580000Y148675000I0J-150000D01*
G01*
X76580000Y148375000D01*
G75*
G02*
X76430000Y148225000I-150000J0D01*
G01*
X74780000Y148225000D01*
G75*
G02*
X74630000Y148375000I0J150000D01*
G01*
G37*
G36*
G01*
X74630000Y149645000D02*
X74630000Y149945000D01*
G75*
G02*
X74780000Y150095000I150000J0D01*
G01*
X76430000Y150095000D01*
G75*
G02*
X76580000Y149945000I0J-150000D01*
G01*
X76580000Y149645000D01*
G75*
G02*
X76430000Y149495000I-150000J0D01*
G01*
X74780000Y149495000D01*
G75*
G02*
X74630000Y149645000I0J150000D01*
G01*
G37*
G36*
G01*
X74630000Y150915000D02*
X74630000Y151215000D01*
G75*
G02*
X74780000Y151365000I150000J0D01*
G01*
X76430000Y151365000D01*
G75*
G02*
X76580000Y151215000I0J-150000D01*
G01*
X76580000Y150915000D01*
G75*
G02*
X76430000Y150765000I-150000J0D01*
G01*
X74780000Y150765000D01*
G75*
G02*
X74630000Y150915000I0J150000D01*
G01*
G37*
G36*
G01*
X74630000Y152185000D02*
X74630000Y152485000D01*
G75*
G02*
X74780000Y152635000I150000J0D01*
G01*
X76430000Y152635000D01*
G75*
G02*
X76580000Y152485000I0J-150000D01*
G01*
X76580000Y152185000D01*
G75*
G02*
X76430000Y152035000I-150000J0D01*
G01*
X74780000Y152035000D01*
G75*
G02*
X74630000Y152185000I0J150000D01*
G01*
G37*
%TD*%
%TO.C,REF\u002A\u002A*%
G36*
G01*
X89595000Y131755000D02*
X89595000Y131555000D01*
G75*
G02*
X89495000Y131455000I-100000J0D01*
G01*
X88220000Y131455000D01*
G75*
G02*
X88120000Y131555000I0J100000D01*
G01*
X88120000Y131755000D01*
G75*
G02*
X88220000Y131855000I100000J0D01*
G01*
X89495000Y131855000D01*
G75*
G02*
X89595000Y131755000I0J-100000D01*
G01*
G37*
G36*
G01*
X89595000Y132405000D02*
X89595000Y132205000D01*
G75*
G02*
X89495000Y132105000I-100000J0D01*
G01*
X88220000Y132105000D01*
G75*
G02*
X88120000Y132205000I0J100000D01*
G01*
X88120000Y132405000D01*
G75*
G02*
X88220000Y132505000I100000J0D01*
G01*
X89495000Y132505000D01*
G75*
G02*
X89595000Y132405000I0J-100000D01*
G01*
G37*
G36*
G01*
X89595000Y133055000D02*
X89595000Y132855000D01*
G75*
G02*
X89495000Y132755000I-100000J0D01*
G01*
X88220000Y132755000D01*
G75*
G02*
X88120000Y132855000I0J100000D01*
G01*
X88120000Y133055000D01*
G75*
G02*
X88220000Y133155000I100000J0D01*
G01*
X89495000Y133155000D01*
G75*
G02*
X89595000Y133055000I0J-100000D01*
G01*
G37*
G36*
G01*
X89595000Y133705000D02*
X89595000Y133505000D01*
G75*
G02*
X89495000Y133405000I-100000J0D01*
G01*
X88220000Y133405000D01*
G75*
G02*
X88120000Y133505000I0J100000D01*
G01*
X88120000Y133705000D01*
G75*
G02*
X88220000Y133805000I100000J0D01*
G01*
X89495000Y133805000D01*
G75*
G02*
X89595000Y133705000I0J-100000D01*
G01*
G37*
G36*
G01*
X89595000Y134355000D02*
X89595000Y134155000D01*
G75*
G02*
X89495000Y134055000I-100000J0D01*
G01*
X88220000Y134055000D01*
G75*
G02*
X88120000Y134155000I0J100000D01*
G01*
X88120000Y134355000D01*
G75*
G02*
X88220000Y134455000I100000J0D01*
G01*
X89495000Y134455000D01*
G75*
G02*
X89595000Y134355000I0J-100000D01*
G01*
G37*
G36*
G01*
X89595000Y135005000D02*
X89595000Y134805000D01*
G75*
G02*
X89495000Y134705000I-100000J0D01*
G01*
X88220000Y134705000D01*
G75*
G02*
X88120000Y134805000I0J100000D01*
G01*
X88120000Y135005000D01*
G75*
G02*
X88220000Y135105000I100000J0D01*
G01*
X89495000Y135105000D01*
G75*
G02*
X89595000Y135005000I0J-100000D01*
G01*
G37*
G36*
G01*
X89595000Y135655000D02*
X89595000Y135455000D01*
G75*
G02*
X89495000Y135355000I-100000J0D01*
G01*
X88220000Y135355000D01*
G75*
G02*
X88120000Y135455000I0J100000D01*
G01*
X88120000Y135655000D01*
G75*
G02*
X88220000Y135755000I100000J0D01*
G01*
X89495000Y135755000D01*
G75*
G02*
X89595000Y135655000I0J-100000D01*
G01*
G37*
G36*
G01*
X89595000Y136305000D02*
X89595000Y136105000D01*
G75*
G02*
X89495000Y136005000I-100000J0D01*
G01*
X88220000Y136005000D01*
G75*
G02*
X88120000Y136105000I0J100000D01*
G01*
X88120000Y136305000D01*
G75*
G02*
X88220000Y136405000I100000J0D01*
G01*
X89495000Y136405000D01*
G75*
G02*
X89595000Y136305000I0J-100000D01*
G01*
G37*
G36*
G01*
X89595000Y136955000D02*
X89595000Y136755000D01*
G75*
G02*
X89495000Y136655000I-100000J0D01*
G01*
X88220000Y136655000D01*
G75*
G02*
X88120000Y136755000I0J100000D01*
G01*
X88120000Y136955000D01*
G75*
G02*
X88220000Y137055000I100000J0D01*
G01*
X89495000Y137055000D01*
G75*
G02*
X89595000Y136955000I0J-100000D01*
G01*
G37*
G36*
G01*
X89595000Y137605000D02*
X89595000Y137405000D01*
G75*
G02*
X89495000Y137305000I-100000J0D01*
G01*
X88220000Y137305000D01*
G75*
G02*
X88120000Y137405000I0J100000D01*
G01*
X88120000Y137605000D01*
G75*
G02*
X88220000Y137705000I100000J0D01*
G01*
X89495000Y137705000D01*
G75*
G02*
X89595000Y137605000I0J-100000D01*
G01*
G37*
G36*
G01*
X89595000Y138255000D02*
X89595000Y138055000D01*
G75*
G02*
X89495000Y137955000I-100000J0D01*
G01*
X88220000Y137955000D01*
G75*
G02*
X88120000Y138055000I0J100000D01*
G01*
X88120000Y138255000D01*
G75*
G02*
X88220000Y138355000I100000J0D01*
G01*
X89495000Y138355000D01*
G75*
G02*
X89595000Y138255000I0J-100000D01*
G01*
G37*
G36*
G01*
X89595000Y138905000D02*
X89595000Y138705000D01*
G75*
G02*
X89495000Y138605000I-100000J0D01*
G01*
X88220000Y138605000D01*
G75*
G02*
X88120000Y138705000I0J100000D01*
G01*
X88120000Y138905000D01*
G75*
G02*
X88220000Y139005000I100000J0D01*
G01*
X89495000Y139005000D01*
G75*
G02*
X89595000Y138905000I0J-100000D01*
G01*
G37*
G36*
G01*
X95320000Y138905000D02*
X95320000Y138705000D01*
G75*
G02*
X95220000Y138605000I-100000J0D01*
G01*
X93945000Y138605000D01*
G75*
G02*
X93845000Y138705000I0J100000D01*
G01*
X93845000Y138905000D01*
G75*
G02*
X93945000Y139005000I100000J0D01*
G01*
X95220000Y139005000D01*
G75*
G02*
X95320000Y138905000I0J-100000D01*
G01*
G37*
G36*
G01*
X95320000Y138255000D02*
X95320000Y138055000D01*
G75*
G02*
X95220000Y137955000I-100000J0D01*
G01*
X93945000Y137955000D01*
G75*
G02*
X93845000Y138055000I0J100000D01*
G01*
X93845000Y138255000D01*
G75*
G02*
X93945000Y138355000I100000J0D01*
G01*
X95220000Y138355000D01*
G75*
G02*
X95320000Y138255000I0J-100000D01*
G01*
G37*
G36*
G01*
X95320000Y137605000D02*
X95320000Y137405000D01*
G75*
G02*
X95220000Y137305000I-100000J0D01*
G01*
X93945000Y137305000D01*
G75*
G02*
X93845000Y137405000I0J100000D01*
G01*
X93845000Y137605000D01*
G75*
G02*
X93945000Y137705000I100000J0D01*
G01*
X95220000Y137705000D01*
G75*
G02*
X95320000Y137605000I0J-100000D01*
G01*
G37*
G36*
G01*
X95320000Y136955000D02*
X95320000Y136755000D01*
G75*
G02*
X95220000Y136655000I-100000J0D01*
G01*
X93945000Y136655000D01*
G75*
G02*
X93845000Y136755000I0J100000D01*
G01*
X93845000Y136955000D01*
G75*
G02*
X93945000Y137055000I100000J0D01*
G01*
X95220000Y137055000D01*
G75*
G02*
X95320000Y136955000I0J-100000D01*
G01*
G37*
G36*
G01*
X95320000Y136305000D02*
X95320000Y136105000D01*
G75*
G02*
X95220000Y136005000I-100000J0D01*
G01*
X93945000Y136005000D01*
G75*
G02*
X93845000Y136105000I0J100000D01*
G01*
X93845000Y136305000D01*
G75*
G02*
X93945000Y136405000I100000J0D01*
G01*
X95220000Y136405000D01*
G75*
G02*
X95320000Y136305000I0J-100000D01*
G01*
G37*
G36*
G01*
X95320000Y135655000D02*
X95320000Y135455000D01*
G75*
G02*
X95220000Y135355000I-100000J0D01*
G01*
X93945000Y135355000D01*
G75*
G02*
X93845000Y135455000I0J100000D01*
G01*
X93845000Y135655000D01*
G75*
G02*
X93945000Y135755000I100000J0D01*
G01*
X95220000Y135755000D01*
G75*
G02*
X95320000Y135655000I0J-100000D01*
G01*
G37*
G36*
G01*
X95320000Y135005000D02*
X95320000Y134805000D01*
G75*
G02*
X95220000Y134705000I-100000J0D01*
G01*
X93945000Y134705000D01*
G75*
G02*
X93845000Y134805000I0J100000D01*
G01*
X93845000Y135005000D01*
G75*
G02*
X93945000Y135105000I100000J0D01*
G01*
X95220000Y135105000D01*
G75*
G02*
X95320000Y135005000I0J-100000D01*
G01*
G37*
G36*
G01*
X95320000Y134355000D02*
X95320000Y134155000D01*
G75*
G02*
X95220000Y134055000I-100000J0D01*
G01*
X93945000Y134055000D01*
G75*
G02*
X93845000Y134155000I0J100000D01*
G01*
X93845000Y134355000D01*
G75*
G02*
X93945000Y134455000I100000J0D01*
G01*
X95220000Y134455000D01*
G75*
G02*
X95320000Y134355000I0J-100000D01*
G01*
G37*
G36*
G01*
X95320000Y133705000D02*
X95320000Y133505000D01*
G75*
G02*
X95220000Y133405000I-100000J0D01*
G01*
X93945000Y133405000D01*
G75*
G02*
X93845000Y133505000I0J100000D01*
G01*
X93845000Y133705000D01*
G75*
G02*
X93945000Y133805000I100000J0D01*
G01*
X95220000Y133805000D01*
G75*
G02*
X95320000Y133705000I0J-100000D01*
G01*
G37*
G36*
G01*
X95320000Y133055000D02*
X95320000Y132855000D01*
G75*
G02*
X95220000Y132755000I-100000J0D01*
G01*
X93945000Y132755000D01*
G75*
G02*
X93845000Y132855000I0J100000D01*
G01*
X93845000Y133055000D01*
G75*
G02*
X93945000Y133155000I100000J0D01*
G01*
X95220000Y133155000D01*
G75*
G02*
X95320000Y133055000I0J-100000D01*
G01*
G37*
G36*
G01*
X95320000Y132405000D02*
X95320000Y132205000D01*
G75*
G02*
X95220000Y132105000I-100000J0D01*
G01*
X93945000Y132105000D01*
G75*
G02*
X93845000Y132205000I0J100000D01*
G01*
X93845000Y132405000D01*
G75*
G02*
X93945000Y132505000I100000J0D01*
G01*
X95220000Y132505000D01*
G75*
G02*
X95320000Y132405000I0J-100000D01*
G01*
G37*
G36*
G01*
X95320000Y131755000D02*
X95320000Y131555000D01*
G75*
G02*
X95220000Y131455000I-100000J0D01*
G01*
X93945000Y131455000D01*
G75*
G02*
X93845000Y131555000I0J100000D01*
G01*
X93845000Y131755000D01*
G75*
G02*
X93945000Y131855000I100000J0D01*
G01*
X95220000Y131855000D01*
G75*
G02*
X95320000Y131755000I0J-100000D01*
G01*
G37*
%TD*%
%TO.C,REF\u002A\u002A*%
G36*
G01*
X68017000Y127417000D02*
X68017000Y127217000D01*
G75*
G02*
X67917000Y127117000I-100000J0D01*
G01*
X66642000Y127117000D01*
G75*
G02*
X66542000Y127217000I0J100000D01*
G01*
X66542000Y127417000D01*
G75*
G02*
X66642000Y127517000I100000J0D01*
G01*
X67917000Y127517000D01*
G75*
G02*
X68017000Y127417000I0J-100000D01*
G01*
G37*
G36*
G01*
X68017000Y128067000D02*
X68017000Y127867000D01*
G75*
G02*
X67917000Y127767000I-100000J0D01*
G01*
X66642000Y127767000D01*
G75*
G02*
X66542000Y127867000I0J100000D01*
G01*
X66542000Y128067000D01*
G75*
G02*
X66642000Y128167000I100000J0D01*
G01*
X67917000Y128167000D01*
G75*
G02*
X68017000Y128067000I0J-100000D01*
G01*
G37*
G36*
G01*
X68017000Y128717000D02*
X68017000Y128517000D01*
G75*
G02*
X67917000Y128417000I-100000J0D01*
G01*
X66642000Y128417000D01*
G75*
G02*
X66542000Y128517000I0J100000D01*
G01*
X66542000Y128717000D01*
G75*
G02*
X66642000Y128817000I100000J0D01*
G01*
X67917000Y128817000D01*
G75*
G02*
X68017000Y128717000I0J-100000D01*
G01*
G37*
G36*
G01*
X68017000Y129367000D02*
X68017000Y129167000D01*
G75*
G02*
X67917000Y129067000I-100000J0D01*
G01*
X66642000Y129067000D01*
G75*
G02*
X66542000Y129167000I0J100000D01*
G01*
X66542000Y129367000D01*
G75*
G02*
X66642000Y129467000I100000J0D01*
G01*
X67917000Y129467000D01*
G75*
G02*
X68017000Y129367000I0J-100000D01*
G01*
G37*
G36*
G01*
X68017000Y130017000D02*
X68017000Y129817000D01*
G75*
G02*
X67917000Y129717000I-100000J0D01*
G01*
X66642000Y129717000D01*
G75*
G02*
X66542000Y129817000I0J100000D01*
G01*
X66542000Y130017000D01*
G75*
G02*
X66642000Y130117000I100000J0D01*
G01*
X67917000Y130117000D01*
G75*
G02*
X68017000Y130017000I0J-100000D01*
G01*
G37*
G36*
G01*
X68017000Y130667000D02*
X68017000Y130467000D01*
G75*
G02*
X67917000Y130367000I-100000J0D01*
G01*
X66642000Y130367000D01*
G75*
G02*
X66542000Y130467000I0J100000D01*
G01*
X66542000Y130667000D01*
G75*
G02*
X66642000Y130767000I100000J0D01*
G01*
X67917000Y130767000D01*
G75*
G02*
X68017000Y130667000I0J-100000D01*
G01*
G37*
G36*
G01*
X68017000Y131317000D02*
X68017000Y131117000D01*
G75*
G02*
X67917000Y131017000I-100000J0D01*
G01*
X66642000Y131017000D01*
G75*
G02*
X66542000Y131117000I0J100000D01*
G01*
X66542000Y131317000D01*
G75*
G02*
X66642000Y131417000I100000J0D01*
G01*
X67917000Y131417000D01*
G75*
G02*
X68017000Y131317000I0J-100000D01*
G01*
G37*
G36*
G01*
X68017000Y131967000D02*
X68017000Y131767000D01*
G75*
G02*
X67917000Y131667000I-100000J0D01*
G01*
X66642000Y131667000D01*
G75*
G02*
X66542000Y131767000I0J100000D01*
G01*
X66542000Y131967000D01*
G75*
G02*
X66642000Y132067000I100000J0D01*
G01*
X67917000Y132067000D01*
G75*
G02*
X68017000Y131967000I0J-100000D01*
G01*
G37*
G36*
G01*
X68017000Y132617000D02*
X68017000Y132417000D01*
G75*
G02*
X67917000Y132317000I-100000J0D01*
G01*
X66642000Y132317000D01*
G75*
G02*
X66542000Y132417000I0J100000D01*
G01*
X66542000Y132617000D01*
G75*
G02*
X66642000Y132717000I100000J0D01*
G01*
X67917000Y132717000D01*
G75*
G02*
X68017000Y132617000I0J-100000D01*
G01*
G37*
G36*
G01*
X68017000Y133267000D02*
X68017000Y133067000D01*
G75*
G02*
X67917000Y132967000I-100000J0D01*
G01*
X66642000Y132967000D01*
G75*
G02*
X66542000Y133067000I0J100000D01*
G01*
X66542000Y133267000D01*
G75*
G02*
X66642000Y133367000I100000J0D01*
G01*
X67917000Y133367000D01*
G75*
G02*
X68017000Y133267000I0J-100000D01*
G01*
G37*
G36*
G01*
X73742000Y133267000D02*
X73742000Y133067000D01*
G75*
G02*
X73642000Y132967000I-100000J0D01*
G01*
X72367000Y132967000D01*
G75*
G02*
X72267000Y133067000I0J100000D01*
G01*
X72267000Y133267000D01*
G75*
G02*
X72367000Y133367000I100000J0D01*
G01*
X73642000Y133367000D01*
G75*
G02*
X73742000Y133267000I0J-100000D01*
G01*
G37*
G36*
G01*
X73742000Y132617000D02*
X73742000Y132417000D01*
G75*
G02*
X73642000Y132317000I-100000J0D01*
G01*
X72367000Y132317000D01*
G75*
G02*
X72267000Y132417000I0J100000D01*
G01*
X72267000Y132617000D01*
G75*
G02*
X72367000Y132717000I100000J0D01*
G01*
X73642000Y132717000D01*
G75*
G02*
X73742000Y132617000I0J-100000D01*
G01*
G37*
G36*
G01*
X73742000Y131967000D02*
X73742000Y131767000D01*
G75*
G02*
X73642000Y131667000I-100000J0D01*
G01*
X72367000Y131667000D01*
G75*
G02*
X72267000Y131767000I0J100000D01*
G01*
X72267000Y131967000D01*
G75*
G02*
X72367000Y132067000I100000J0D01*
G01*
X73642000Y132067000D01*
G75*
G02*
X73742000Y131967000I0J-100000D01*
G01*
G37*
G36*
G01*
X73742000Y131317000D02*
X73742000Y131117000D01*
G75*
G02*
X73642000Y131017000I-100000J0D01*
G01*
X72367000Y131017000D01*
G75*
G02*
X72267000Y131117000I0J100000D01*
G01*
X72267000Y131317000D01*
G75*
G02*
X72367000Y131417000I100000J0D01*
G01*
X73642000Y131417000D01*
G75*
G02*
X73742000Y131317000I0J-100000D01*
G01*
G37*
G36*
G01*
X73742000Y130667000D02*
X73742000Y130467000D01*
G75*
G02*
X73642000Y130367000I-100000J0D01*
G01*
X72367000Y130367000D01*
G75*
G02*
X72267000Y130467000I0J100000D01*
G01*
X72267000Y130667000D01*
G75*
G02*
X72367000Y130767000I100000J0D01*
G01*
X73642000Y130767000D01*
G75*
G02*
X73742000Y130667000I0J-100000D01*
G01*
G37*
G36*
G01*
X73742000Y130017000D02*
X73742000Y129817000D01*
G75*
G02*
X73642000Y129717000I-100000J0D01*
G01*
X72367000Y129717000D01*
G75*
G02*
X72267000Y129817000I0J100000D01*
G01*
X72267000Y130017000D01*
G75*
G02*
X72367000Y130117000I100000J0D01*
G01*
X73642000Y130117000D01*
G75*
G02*
X73742000Y130017000I0J-100000D01*
G01*
G37*
G36*
G01*
X73742000Y129367000D02*
X73742000Y129167000D01*
G75*
G02*
X73642000Y129067000I-100000J0D01*
G01*
X72367000Y129067000D01*
G75*
G02*
X72267000Y129167000I0J100000D01*
G01*
X72267000Y129367000D01*
G75*
G02*
X72367000Y129467000I100000J0D01*
G01*
X73642000Y129467000D01*
G75*
G02*
X73742000Y129367000I0J-100000D01*
G01*
G37*
G36*
G01*
X73742000Y128717000D02*
X73742000Y128517000D01*
G75*
G02*
X73642000Y128417000I-100000J0D01*
G01*
X72367000Y128417000D01*
G75*
G02*
X72267000Y128517000I0J100000D01*
G01*
X72267000Y128717000D01*
G75*
G02*
X72367000Y128817000I100000J0D01*
G01*
X73642000Y128817000D01*
G75*
G02*
X73742000Y128717000I0J-100000D01*
G01*
G37*
G36*
G01*
X73742000Y128067000D02*
X73742000Y127867000D01*
G75*
G02*
X73642000Y127767000I-100000J0D01*
G01*
X72367000Y127767000D01*
G75*
G02*
X72267000Y127867000I0J100000D01*
G01*
X72267000Y128067000D01*
G75*
G02*
X72367000Y128167000I100000J0D01*
G01*
X73642000Y128167000D01*
G75*
G02*
X73742000Y128067000I0J-100000D01*
G01*
G37*
G36*
G01*
X73742000Y127417000D02*
X73742000Y127217000D01*
G75*
G02*
X73642000Y127117000I-100000J0D01*
G01*
X72367000Y127117000D01*
G75*
G02*
X72267000Y127217000I0J100000D01*
G01*
X72267000Y127417000D01*
G75*
G02*
X72367000Y127517000I100000J0D01*
G01*
X73642000Y127517000D01*
G75*
G02*
X73742000Y127417000I0J-100000D01*
G01*
G37*
%TD*%
%TO.C,REF\u002A\u002A*%
G36*
G01*
X68017000Y134671000D02*
X68017000Y134471000D01*
G75*
G02*
X67917000Y134371000I-100000J0D01*
G01*
X66642000Y134371000D01*
G75*
G02*
X66542000Y134471000I0J100000D01*
G01*
X66542000Y134671000D01*
G75*
G02*
X66642000Y134771000I100000J0D01*
G01*
X67917000Y134771000D01*
G75*
G02*
X68017000Y134671000I0J-100000D01*
G01*
G37*
G36*
G01*
X68017000Y135321000D02*
X68017000Y135121000D01*
G75*
G02*
X67917000Y135021000I-100000J0D01*
G01*
X66642000Y135021000D01*
G75*
G02*
X66542000Y135121000I0J100000D01*
G01*
X66542000Y135321000D01*
G75*
G02*
X66642000Y135421000I100000J0D01*
G01*
X67917000Y135421000D01*
G75*
G02*
X68017000Y135321000I0J-100000D01*
G01*
G37*
G36*
G01*
X68017000Y135971000D02*
X68017000Y135771000D01*
G75*
G02*
X67917000Y135671000I-100000J0D01*
G01*
X66642000Y135671000D01*
G75*
G02*
X66542000Y135771000I0J100000D01*
G01*
X66542000Y135971000D01*
G75*
G02*
X66642000Y136071000I100000J0D01*
G01*
X67917000Y136071000D01*
G75*
G02*
X68017000Y135971000I0J-100000D01*
G01*
G37*
G36*
G01*
X68017000Y136621000D02*
X68017000Y136421000D01*
G75*
G02*
X67917000Y136321000I-100000J0D01*
G01*
X66642000Y136321000D01*
G75*
G02*
X66542000Y136421000I0J100000D01*
G01*
X66542000Y136621000D01*
G75*
G02*
X66642000Y136721000I100000J0D01*
G01*
X67917000Y136721000D01*
G75*
G02*
X68017000Y136621000I0J-100000D01*
G01*
G37*
G36*
G01*
X68017000Y137271000D02*
X68017000Y137071000D01*
G75*
G02*
X67917000Y136971000I-100000J0D01*
G01*
X66642000Y136971000D01*
G75*
G02*
X66542000Y137071000I0J100000D01*
G01*
X66542000Y137271000D01*
G75*
G02*
X66642000Y137371000I100000J0D01*
G01*
X67917000Y137371000D01*
G75*
G02*
X68017000Y137271000I0J-100000D01*
G01*
G37*
G36*
G01*
X68017000Y137921000D02*
X68017000Y137721000D01*
G75*
G02*
X67917000Y137621000I-100000J0D01*
G01*
X66642000Y137621000D01*
G75*
G02*
X66542000Y137721000I0J100000D01*
G01*
X66542000Y137921000D01*
G75*
G02*
X66642000Y138021000I100000J0D01*
G01*
X67917000Y138021000D01*
G75*
G02*
X68017000Y137921000I0J-100000D01*
G01*
G37*
G36*
G01*
X68017000Y138571000D02*
X68017000Y138371000D01*
G75*
G02*
X67917000Y138271000I-100000J0D01*
G01*
X66642000Y138271000D01*
G75*
G02*
X66542000Y138371000I0J100000D01*
G01*
X66542000Y138571000D01*
G75*
G02*
X66642000Y138671000I100000J0D01*
G01*
X67917000Y138671000D01*
G75*
G02*
X68017000Y138571000I0J-100000D01*
G01*
G37*
G36*
G01*
X68017000Y139221000D02*
X68017000Y139021000D01*
G75*
G02*
X67917000Y138921000I-100000J0D01*
G01*
X66642000Y138921000D01*
G75*
G02*
X66542000Y139021000I0J100000D01*
G01*
X66542000Y139221000D01*
G75*
G02*
X66642000Y139321000I100000J0D01*
G01*
X67917000Y139321000D01*
G75*
G02*
X68017000Y139221000I0J-100000D01*
G01*
G37*
G36*
G01*
X73742000Y139221000D02*
X73742000Y139021000D01*
G75*
G02*
X73642000Y138921000I-100000J0D01*
G01*
X72367000Y138921000D01*
G75*
G02*
X72267000Y139021000I0J100000D01*
G01*
X72267000Y139221000D01*
G75*
G02*
X72367000Y139321000I100000J0D01*
G01*
X73642000Y139321000D01*
G75*
G02*
X73742000Y139221000I0J-100000D01*
G01*
G37*
G36*
G01*
X73742000Y138571000D02*
X73742000Y138371000D01*
G75*
G02*
X73642000Y138271000I-100000J0D01*
G01*
X72367000Y138271000D01*
G75*
G02*
X72267000Y138371000I0J100000D01*
G01*
X72267000Y138571000D01*
G75*
G02*
X72367000Y138671000I100000J0D01*
G01*
X73642000Y138671000D01*
G75*
G02*
X73742000Y138571000I0J-100000D01*
G01*
G37*
G36*
G01*
X73742000Y137921000D02*
X73742000Y137721000D01*
G75*
G02*
X73642000Y137621000I-100000J0D01*
G01*
X72367000Y137621000D01*
G75*
G02*
X72267000Y137721000I0J100000D01*
G01*
X72267000Y137921000D01*
G75*
G02*
X72367000Y138021000I100000J0D01*
G01*
X73642000Y138021000D01*
G75*
G02*
X73742000Y137921000I0J-100000D01*
G01*
G37*
G36*
G01*
X73742000Y137271000D02*
X73742000Y137071000D01*
G75*
G02*
X73642000Y136971000I-100000J0D01*
G01*
X72367000Y136971000D01*
G75*
G02*
X72267000Y137071000I0J100000D01*
G01*
X72267000Y137271000D01*
G75*
G02*
X72367000Y137371000I100000J0D01*
G01*
X73642000Y137371000D01*
G75*
G02*
X73742000Y137271000I0J-100000D01*
G01*
G37*
G36*
G01*
X73742000Y136621000D02*
X73742000Y136421000D01*
G75*
G02*
X73642000Y136321000I-100000J0D01*
G01*
X72367000Y136321000D01*
G75*
G02*
X72267000Y136421000I0J100000D01*
G01*
X72267000Y136621000D01*
G75*
G02*
X72367000Y136721000I100000J0D01*
G01*
X73642000Y136721000D01*
G75*
G02*
X73742000Y136621000I0J-100000D01*
G01*
G37*
G36*
G01*
X73742000Y135971000D02*
X73742000Y135771000D01*
G75*
G02*
X73642000Y135671000I-100000J0D01*
G01*
X72367000Y135671000D01*
G75*
G02*
X72267000Y135771000I0J100000D01*
G01*
X72267000Y135971000D01*
G75*
G02*
X72367000Y136071000I100000J0D01*
G01*
X73642000Y136071000D01*
G75*
G02*
X73742000Y135971000I0J-100000D01*
G01*
G37*
G36*
G01*
X73742000Y135321000D02*
X73742000Y135121000D01*
G75*
G02*
X73642000Y135021000I-100000J0D01*
G01*
X72367000Y135021000D01*
G75*
G02*
X72267000Y135121000I0J100000D01*
G01*
X72267000Y135321000D01*
G75*
G02*
X72367000Y135421000I100000J0D01*
G01*
X73642000Y135421000D01*
G75*
G02*
X73742000Y135321000I0J-100000D01*
G01*
G37*
G36*
G01*
X73742000Y134671000D02*
X73742000Y134471000D01*
G75*
G02*
X73642000Y134371000I-100000J0D01*
G01*
X72367000Y134371000D01*
G75*
G02*
X72267000Y134471000I0J100000D01*
G01*
X72267000Y134671000D01*
G75*
G02*
X72367000Y134771000I100000J0D01*
G01*
X73642000Y134771000D01*
G75*
G02*
X73742000Y134671000I0J-100000D01*
G01*
G37*
%TD*%
%TO.C,REF\u002A\u002A*%
G36*
G01*
X68017000Y140838000D02*
X68017000Y140638000D01*
G75*
G02*
X67917000Y140538000I-100000J0D01*
G01*
X66642000Y140538000D01*
G75*
G02*
X66542000Y140638000I0J100000D01*
G01*
X66542000Y140838000D01*
G75*
G02*
X66642000Y140938000I100000J0D01*
G01*
X67917000Y140938000D01*
G75*
G02*
X68017000Y140838000I0J-100000D01*
G01*
G37*
G36*
G01*
X68017000Y141488000D02*
X68017000Y141288000D01*
G75*
G02*
X67917000Y141188000I-100000J0D01*
G01*
X66642000Y141188000D01*
G75*
G02*
X66542000Y141288000I0J100000D01*
G01*
X66542000Y141488000D01*
G75*
G02*
X66642000Y141588000I100000J0D01*
G01*
X67917000Y141588000D01*
G75*
G02*
X68017000Y141488000I0J-100000D01*
G01*
G37*
G36*
G01*
X68017000Y142138000D02*
X68017000Y141938000D01*
G75*
G02*
X67917000Y141838000I-100000J0D01*
G01*
X66642000Y141838000D01*
G75*
G02*
X66542000Y141938000I0J100000D01*
G01*
X66542000Y142138000D01*
G75*
G02*
X66642000Y142238000I100000J0D01*
G01*
X67917000Y142238000D01*
G75*
G02*
X68017000Y142138000I0J-100000D01*
G01*
G37*
G36*
G01*
X68017000Y142788000D02*
X68017000Y142588000D01*
G75*
G02*
X67917000Y142488000I-100000J0D01*
G01*
X66642000Y142488000D01*
G75*
G02*
X66542000Y142588000I0J100000D01*
G01*
X66542000Y142788000D01*
G75*
G02*
X66642000Y142888000I100000J0D01*
G01*
X67917000Y142888000D01*
G75*
G02*
X68017000Y142788000I0J-100000D01*
G01*
G37*
G36*
G01*
X68017000Y143438000D02*
X68017000Y143238000D01*
G75*
G02*
X67917000Y143138000I-100000J0D01*
G01*
X66642000Y143138000D01*
G75*
G02*
X66542000Y143238000I0J100000D01*
G01*
X66542000Y143438000D01*
G75*
G02*
X66642000Y143538000I100000J0D01*
G01*
X67917000Y143538000D01*
G75*
G02*
X68017000Y143438000I0J-100000D01*
G01*
G37*
G36*
G01*
X68017000Y144088000D02*
X68017000Y143888000D01*
G75*
G02*
X67917000Y143788000I-100000J0D01*
G01*
X66642000Y143788000D01*
G75*
G02*
X66542000Y143888000I0J100000D01*
G01*
X66542000Y144088000D01*
G75*
G02*
X66642000Y144188000I100000J0D01*
G01*
X67917000Y144188000D01*
G75*
G02*
X68017000Y144088000I0J-100000D01*
G01*
G37*
G36*
G01*
X68017000Y144738000D02*
X68017000Y144538000D01*
G75*
G02*
X67917000Y144438000I-100000J0D01*
G01*
X66642000Y144438000D01*
G75*
G02*
X66542000Y144538000I0J100000D01*
G01*
X66542000Y144738000D01*
G75*
G02*
X66642000Y144838000I100000J0D01*
G01*
X67917000Y144838000D01*
G75*
G02*
X68017000Y144738000I0J-100000D01*
G01*
G37*
G36*
G01*
X73742000Y144738000D02*
X73742000Y144538000D01*
G75*
G02*
X73642000Y144438000I-100000J0D01*
G01*
X72367000Y144438000D01*
G75*
G02*
X72267000Y144538000I0J100000D01*
G01*
X72267000Y144738000D01*
G75*
G02*
X72367000Y144838000I100000J0D01*
G01*
X73642000Y144838000D01*
G75*
G02*
X73742000Y144738000I0J-100000D01*
G01*
G37*
G36*
G01*
X73742000Y144088000D02*
X73742000Y143888000D01*
G75*
G02*
X73642000Y143788000I-100000J0D01*
G01*
X72367000Y143788000D01*
G75*
G02*
X72267000Y143888000I0J100000D01*
G01*
X72267000Y144088000D01*
G75*
G02*
X72367000Y144188000I100000J0D01*
G01*
X73642000Y144188000D01*
G75*
G02*
X73742000Y144088000I0J-100000D01*
G01*
G37*
G36*
G01*
X73742000Y143438000D02*
X73742000Y143238000D01*
G75*
G02*
X73642000Y143138000I-100000J0D01*
G01*
X72367000Y143138000D01*
G75*
G02*
X72267000Y143238000I0J100000D01*
G01*
X72267000Y143438000D01*
G75*
G02*
X72367000Y143538000I100000J0D01*
G01*
X73642000Y143538000D01*
G75*
G02*
X73742000Y143438000I0J-100000D01*
G01*
G37*
G36*
G01*
X73742000Y142788000D02*
X73742000Y142588000D01*
G75*
G02*
X73642000Y142488000I-100000J0D01*
G01*
X72367000Y142488000D01*
G75*
G02*
X72267000Y142588000I0J100000D01*
G01*
X72267000Y142788000D01*
G75*
G02*
X72367000Y142888000I100000J0D01*
G01*
X73642000Y142888000D01*
G75*
G02*
X73742000Y142788000I0J-100000D01*
G01*
G37*
G36*
G01*
X73742000Y142138000D02*
X73742000Y141938000D01*
G75*
G02*
X73642000Y141838000I-100000J0D01*
G01*
X72367000Y141838000D01*
G75*
G02*
X72267000Y141938000I0J100000D01*
G01*
X72267000Y142138000D01*
G75*
G02*
X72367000Y142238000I100000J0D01*
G01*
X73642000Y142238000D01*
G75*
G02*
X73742000Y142138000I0J-100000D01*
G01*
G37*
G36*
G01*
X73742000Y141488000D02*
X73742000Y141288000D01*
G75*
G02*
X73642000Y141188000I-100000J0D01*
G01*
X72367000Y141188000D01*
G75*
G02*
X72267000Y141288000I0J100000D01*
G01*
X72267000Y141488000D01*
G75*
G02*
X72367000Y141588000I100000J0D01*
G01*
X73642000Y141588000D01*
G75*
G02*
X73742000Y141488000I0J-100000D01*
G01*
G37*
G36*
G01*
X73742000Y140838000D02*
X73742000Y140638000D01*
G75*
G02*
X73642000Y140538000I-100000J0D01*
G01*
X72367000Y140538000D01*
G75*
G02*
X72267000Y140638000I0J100000D01*
G01*
X72267000Y140838000D01*
G75*
G02*
X72367000Y140938000I100000J0D01*
G01*
X73642000Y140938000D01*
G75*
G02*
X73742000Y140838000I0J-100000D01*
G01*
G37*
%TD*%
D47*
%TO.C,REF\u002A\u002A*%
X67090000Y146520000D03*
X67090000Y147020000D03*
X67090000Y147520000D03*
X67090000Y148020000D03*
X67090000Y148520000D03*
X71390000Y148520000D03*
X71390000Y148020000D03*
X71390000Y147520000D03*
X71390000Y147020000D03*
X71390000Y146520000D03*
%TD*%
%TO.C,REF\u002A\u002A*%
G36*
G01*
X68017000Y150475000D02*
X68017000Y150275000D01*
G75*
G02*
X67917000Y150175000I-100000J0D01*
G01*
X66642000Y150175000D01*
G75*
G02*
X66542000Y150275000I0J100000D01*
G01*
X66542000Y150475000D01*
G75*
G02*
X66642000Y150575000I100000J0D01*
G01*
X67917000Y150575000D01*
G75*
G02*
X68017000Y150475000I0J-100000D01*
G01*
G37*
G36*
G01*
X68017000Y151125000D02*
X68017000Y150925000D01*
G75*
G02*
X67917000Y150825000I-100000J0D01*
G01*
X66642000Y150825000D01*
G75*
G02*
X66542000Y150925000I0J100000D01*
G01*
X66542000Y151125000D01*
G75*
G02*
X66642000Y151225000I100000J0D01*
G01*
X67917000Y151225000D01*
G75*
G02*
X68017000Y151125000I0J-100000D01*
G01*
G37*
G36*
G01*
X68017000Y151775000D02*
X68017000Y151575000D01*
G75*
G02*
X67917000Y151475000I-100000J0D01*
G01*
X66642000Y151475000D01*
G75*
G02*
X66542000Y151575000I0J100000D01*
G01*
X66542000Y151775000D01*
G75*
G02*
X66642000Y151875000I100000J0D01*
G01*
X67917000Y151875000D01*
G75*
G02*
X68017000Y151775000I0J-100000D01*
G01*
G37*
G36*
G01*
X68017000Y152425000D02*
X68017000Y152225000D01*
G75*
G02*
X67917000Y152125000I-100000J0D01*
G01*
X66642000Y152125000D01*
G75*
G02*
X66542000Y152225000I0J100000D01*
G01*
X66542000Y152425000D01*
G75*
G02*
X66642000Y152525000I100000J0D01*
G01*
X67917000Y152525000D01*
G75*
G02*
X68017000Y152425000I0J-100000D01*
G01*
G37*
G36*
G01*
X73742000Y152425000D02*
X73742000Y152225000D01*
G75*
G02*
X73642000Y152125000I-100000J0D01*
G01*
X72367000Y152125000D01*
G75*
G02*
X72267000Y152225000I0J100000D01*
G01*
X72267000Y152425000D01*
G75*
G02*
X72367000Y152525000I100000J0D01*
G01*
X73642000Y152525000D01*
G75*
G02*
X73742000Y152425000I0J-100000D01*
G01*
G37*
G36*
G01*
X73742000Y151775000D02*
X73742000Y151575000D01*
G75*
G02*
X73642000Y151475000I-100000J0D01*
G01*
X72367000Y151475000D01*
G75*
G02*
X72267000Y151575000I0J100000D01*
G01*
X72267000Y151775000D01*
G75*
G02*
X72367000Y151875000I100000J0D01*
G01*
X73642000Y151875000D01*
G75*
G02*
X73742000Y151775000I0J-100000D01*
G01*
G37*
G36*
G01*
X73742000Y151125000D02*
X73742000Y150925000D01*
G75*
G02*
X73642000Y150825000I-100000J0D01*
G01*
X72367000Y150825000D01*
G75*
G02*
X72267000Y150925000I0J100000D01*
G01*
X72267000Y151125000D01*
G75*
G02*
X72367000Y151225000I100000J0D01*
G01*
X73642000Y151225000D01*
G75*
G02*
X73742000Y151125000I0J-100000D01*
G01*
G37*
G36*
G01*
X73742000Y150475000D02*
X73742000Y150275000D01*
G75*
G02*
X73642000Y150175000I-100000J0D01*
G01*
X72367000Y150175000D01*
G75*
G02*
X72267000Y150275000I0J100000D01*
G01*
X72267000Y150475000D01*
G75*
G02*
X72367000Y150575000I100000J0D01*
G01*
X73642000Y150575000D01*
G75*
G02*
X73742000Y150475000I0J-100000D01*
G01*
G37*
%TD*%
M02*
