%TF.GenerationSoftware,KiCad,Pcbnew,(5.1.10-1-10_14)*%
%TF.CreationDate,2021-12-11T09:21:19-05:00*%
%TF.ProjectId,control-unit,636f6e74-726f-46c2-9d75-6e69742e6b69,rev?*%
%TF.SameCoordinates,Original*%
%TF.FileFunction,Copper,L1,Top*%
%TF.FilePolarity,Positive*%
%FSLAX46Y46*%
G04 Gerber Fmt 4.6, Leading zero omitted, Abs format (unit mm)*
G04 Created by KiCad (PCBNEW (5.1.10-1-10_14)) date 2021-12-11 09:21:19*
%MOMM*%
%LPD*%
G01*
G04 APERTURE LIST*
%TA.AperFunction,ComponentPad*%
%ADD10O,2.200000X2.200000*%
%TD*%
%TA.AperFunction,ComponentPad*%
%ADD11R,2.200000X2.200000*%
%TD*%
%TA.AperFunction,ComponentPad*%
%ADD12O,1.700000X1.700000*%
%TD*%
%TA.AperFunction,ComponentPad*%
%ADD13R,1.700000X1.700000*%
%TD*%
%TA.AperFunction,ViaPad*%
%ADD14C,0.800000*%
%TD*%
%TA.AperFunction,Conductor*%
%ADD15C,0.250000*%
%TD*%
%TA.AperFunction,Conductor*%
%ADD16C,0.500000*%
%TD*%
%TA.AperFunction,Conductor*%
%ADD17C,0.254000*%
%TD*%
%TA.AperFunction,Conductor*%
%ADD18C,0.100000*%
%TD*%
G04 APERTURE END LIST*
D10*
%TO.P,D55,2*%
%TO.N,Q15*%
X245872000Y-128016000D03*
D11*
%TO.P,D55,1*%
%TO.N,D5*%
X248412000Y-128016000D03*
%TD*%
D10*
%TO.P,D54,2*%
%TO.N,Q15*%
X245872000Y-116586000D03*
D11*
%TO.P,D54,1*%
%TO.N,D2*%
X248412000Y-116586000D03*
%TD*%
D10*
%TO.P,D53,2*%
%TO.N,Q15*%
X245872000Y-108966000D03*
D11*
%TO.P,D53,1*%
%TO.N,D0*%
X248412000Y-108966000D03*
%TD*%
D10*
%TO.P,D52,2*%
%TO.N,Q14*%
X239776000Y-128016000D03*
D11*
%TO.P,D52,1*%
%TO.N,D5*%
X242316000Y-128016000D03*
%TD*%
D10*
%TO.P,D51,2*%
%TO.N,Q14*%
X239776000Y-124206000D03*
D11*
%TO.P,D51,1*%
%TO.N,D4*%
X242316000Y-124206000D03*
%TD*%
D10*
%TO.P,D50,2*%
%TO.N,Q14*%
X239776000Y-120396000D03*
D11*
%TO.P,D50,1*%
%TO.N,D3*%
X242316000Y-120396000D03*
%TD*%
D10*
%TO.P,D49,2*%
%TO.N,Q14*%
X239776000Y-108966000D03*
D11*
%TO.P,D49,1*%
%TO.N,D0*%
X242316000Y-108966000D03*
%TD*%
D10*
%TO.P,D48,2*%
%TO.N,Q13*%
X233680000Y-116586000D03*
D11*
%TO.P,D48,1*%
%TO.N,D2*%
X236220000Y-116586000D03*
%TD*%
D10*
%TO.P,D47,2*%
%TO.N,Q13*%
X233680000Y-108966000D03*
D11*
%TO.P,D47,1*%
%TO.N,D0*%
X236220000Y-108966000D03*
%TD*%
D10*
%TO.P,D46,2*%
%TO.N,Q12*%
X227584000Y-128016000D03*
D11*
%TO.P,D46,1*%
%TO.N,D5*%
X230124000Y-128016000D03*
%TD*%
D10*
%TO.P,D45,2*%
%TO.N,Q12*%
X227584000Y-120396000D03*
D11*
%TO.P,D45,1*%
%TO.N,D3*%
X230124000Y-120396000D03*
%TD*%
D10*
%TO.P,D44,2*%
%TO.N,Q12*%
X227584000Y-116586000D03*
D11*
%TO.P,D44,1*%
%TO.N,D2*%
X230124000Y-116586000D03*
%TD*%
D10*
%TO.P,D43,2*%
%TO.N,Q12*%
X227584000Y-108966000D03*
D11*
%TO.P,D43,1*%
%TO.N,D0*%
X230124000Y-108966000D03*
%TD*%
D10*
%TO.P,D42,2*%
%TO.N,Q11*%
X221488000Y-124206000D03*
D11*
%TO.P,D42,1*%
%TO.N,D4*%
X224028000Y-124206000D03*
%TD*%
D10*
%TO.P,D41,2*%
%TO.N,Q11*%
X221488000Y-108966000D03*
D11*
%TO.P,D41,1*%
%TO.N,D0*%
X224028000Y-108966000D03*
%TD*%
D10*
%TO.P,D40,2*%
%TO.N,Q10*%
X215392000Y-128016000D03*
D11*
%TO.P,D40,1*%
%TO.N,D5*%
X217932000Y-128016000D03*
%TD*%
D10*
%TO.P,D39,2*%
%TO.N,Q10*%
X215392000Y-120396000D03*
D11*
%TO.P,D39,1*%
%TO.N,D3*%
X217932000Y-120396000D03*
%TD*%
D10*
%TO.P,D38,2*%
%TO.N,Q10*%
X215392000Y-108966000D03*
D11*
%TO.P,D38,1*%
%TO.N,D0*%
X217932000Y-108966000D03*
%TD*%
D10*
%TO.P,D37,2*%
%TO.N,Q9*%
X209296000Y-128016000D03*
D11*
%TO.P,D37,1*%
%TO.N,D5*%
X211836000Y-128016000D03*
%TD*%
D10*
%TO.P,D36,2*%
%TO.N,Q9*%
X209296000Y-124206000D03*
D11*
%TO.P,D36,1*%
%TO.N,D4*%
X211836000Y-124206000D03*
%TD*%
D10*
%TO.P,D35,2*%
%TO.N,Q9*%
X209296000Y-120396000D03*
D11*
%TO.P,D35,1*%
%TO.N,D3*%
X211836000Y-120396000D03*
%TD*%
D10*
%TO.P,D34,2*%
%TO.N,Q9*%
X209296000Y-116586000D03*
D11*
%TO.P,D34,1*%
%TO.N,D2*%
X211836000Y-116586000D03*
%TD*%
D10*
%TO.P,D33,2*%
%TO.N,Q9*%
X209296000Y-108966000D03*
D11*
%TO.P,D33,1*%
%TO.N,D0*%
X211836000Y-108966000D03*
%TD*%
D10*
%TO.P,D32,2*%
%TO.N,Q8*%
X203200000Y-124206000D03*
D11*
%TO.P,D32,1*%
%TO.N,D4*%
X205740000Y-124206000D03*
%TD*%
D10*
%TO.P,D31,2*%
%TO.N,Q8*%
X203200000Y-116586000D03*
D11*
%TO.P,D31,1*%
%TO.N,D2*%
X205740000Y-116586000D03*
%TD*%
D10*
%TO.P,D30,2*%
%TO.N,Q8*%
X203200000Y-108966000D03*
D11*
%TO.P,D30,1*%
%TO.N,D0*%
X205740000Y-108966000D03*
%TD*%
D10*
%TO.P,D29,2*%
%TO.N,Q7*%
X197104000Y-128016000D03*
D11*
%TO.P,D29,1*%
%TO.N,D5*%
X199644000Y-128016000D03*
%TD*%
D10*
%TO.P,D28,2*%
%TO.N,Q7*%
X197104000Y-124206000D03*
D11*
%TO.P,D28,1*%
%TO.N,D4*%
X199644000Y-124206000D03*
%TD*%
D10*
%TO.P,D27,2*%
%TO.N,Q7*%
X197104000Y-108966000D03*
D11*
%TO.P,D27,1*%
%TO.N,D0*%
X199644000Y-108966000D03*
%TD*%
D10*
%TO.P,D26,2*%
%TO.N,Q6*%
X191008000Y-120396000D03*
D11*
%TO.P,D26,1*%
%TO.N,D3*%
X193548000Y-120396000D03*
%TD*%
D10*
%TO.P,D25,2*%
%TO.N,Q6*%
X191008000Y-116586000D03*
D11*
%TO.P,D25,1*%
%TO.N,D2*%
X193548000Y-116586000D03*
%TD*%
D10*
%TO.P,D24,2*%
%TO.N,Q6*%
X191008000Y-108966000D03*
D11*
%TO.P,D24,1*%
%TO.N,D0*%
X193548000Y-108966000D03*
%TD*%
D10*
%TO.P,D23,2*%
%TO.N,Q5*%
X184912000Y-128016000D03*
D11*
%TO.P,D23,1*%
%TO.N,D5*%
X187452000Y-128016000D03*
%TD*%
D10*
%TO.P,D22,2*%
%TO.N,Q5*%
X184912000Y-116586000D03*
D11*
%TO.P,D22,1*%
%TO.N,D2*%
X187452000Y-116586000D03*
%TD*%
D10*
%TO.P,D21,2*%
%TO.N,Q5*%
X184912000Y-112776000D03*
D11*
%TO.P,D21,1*%
%TO.N,D1*%
X187452000Y-112776000D03*
%TD*%
D10*
%TO.P,D20,2*%
%TO.N,Q5*%
X184912000Y-108966000D03*
D11*
%TO.P,D20,1*%
%TO.N,D0*%
X187452000Y-108966000D03*
%TD*%
D10*
%TO.P,D19,2*%
%TO.N,Q4*%
X178816000Y-124206000D03*
D11*
%TO.P,D19,1*%
%TO.N,D4*%
X181356000Y-124206000D03*
%TD*%
D10*
%TO.P,D18,2*%
%TO.N,Q4*%
X178816000Y-120396000D03*
D11*
%TO.P,D18,1*%
%TO.N,D3*%
X181356000Y-120396000D03*
%TD*%
D10*
%TO.P,D17,2*%
%TO.N,Q4*%
X178816000Y-112776000D03*
D11*
%TO.P,D17,1*%
%TO.N,D1*%
X181356000Y-112776000D03*
%TD*%
D10*
%TO.P,D16,2*%
%TO.N,Q4*%
X178816000Y-108966000D03*
D11*
%TO.P,D16,1*%
%TO.N,D0*%
X181356000Y-108966000D03*
%TD*%
D10*
%TO.P,D15,2*%
%TO.N,Q3*%
X172720000Y-128016000D03*
D11*
%TO.P,D15,1*%
%TO.N,D5*%
X175260000Y-128016000D03*
%TD*%
D10*
%TO.P,D14,2*%
%TO.N,Q3*%
X172720000Y-116586000D03*
D11*
%TO.P,D14,1*%
%TO.N,D2*%
X175260000Y-116586000D03*
%TD*%
D10*
%TO.P,D13,2*%
%TO.N,Q3*%
X172720000Y-112776000D03*
D11*
%TO.P,D13,1*%
%TO.N,D1*%
X175260000Y-112776000D03*
%TD*%
D10*
%TO.P,D12,2*%
%TO.N,Q3*%
X172720000Y-108966000D03*
D11*
%TO.P,D12,1*%
%TO.N,D0*%
X175260000Y-108966000D03*
%TD*%
D10*
%TO.P,D11,2*%
%TO.N,Q2*%
X166624000Y-124206000D03*
D11*
%TO.P,D11,1*%
%TO.N,D4*%
X169164000Y-124206000D03*
%TD*%
D10*
%TO.P,D10,2*%
%TO.N,Q2*%
X166624000Y-120396000D03*
D11*
%TO.P,D10,1*%
%TO.N,D3*%
X169164000Y-120396000D03*
%TD*%
D10*
%TO.P,D9,2*%
%TO.N,Q2*%
X166624000Y-112776000D03*
D11*
%TO.P,D9,1*%
%TO.N,D1*%
X169164000Y-112776000D03*
%TD*%
D10*
%TO.P,D8,2*%
%TO.N,Q2*%
X166624000Y-108966000D03*
D11*
%TO.P,D8,1*%
%TO.N,D0*%
X169164000Y-108966000D03*
%TD*%
D10*
%TO.P,D7,2*%
%TO.N,Q1*%
X160528000Y-112776000D03*
D11*
%TO.P,D7,1*%
%TO.N,D1*%
X163068000Y-112776000D03*
%TD*%
D10*
%TO.P,D6,2*%
%TO.N,Q0*%
X154432000Y-124206000D03*
D11*
%TO.P,D6,1*%
%TO.N,D4*%
X156972000Y-124206000D03*
%TD*%
D10*
%TO.P,D5,2*%
%TO.N,Q0*%
X154432000Y-120396000D03*
D11*
%TO.P,D5,1*%
%TO.N,D3*%
X156972000Y-120396000D03*
%TD*%
D10*
%TO.P,D4,2*%
%TO.N,Q0*%
X154432000Y-116586000D03*
D11*
%TO.P,D4,1*%
%TO.N,D2*%
X156972000Y-116586000D03*
%TD*%
D10*
%TO.P,D3,2*%
%TO.N,Q0*%
X154432000Y-112776000D03*
D11*
%TO.P,D3,1*%
%TO.N,D1*%
X156972000Y-112776000D03*
%TD*%
D10*
%TO.P,D1,2*%
%TO.N,Q0*%
X154432000Y-128016000D03*
D11*
%TO.P,D1,1*%
%TO.N,D5*%
X156972000Y-128016000D03*
%TD*%
D10*
%TO.P,D2,2*%
%TO.N,Q0*%
X154432000Y-108966000D03*
D11*
%TO.P,D2,1*%
%TO.N,D0*%
X156972000Y-108966000D03*
%TD*%
%TO.P,U2,20*%
%TO.N,VCC*%
%TA.AperFunction,SMDPad,CuDef*%
G36*
G01*
X261713000Y-115670000D02*
X261713000Y-115470000D01*
G75*
G02*
X261813000Y-115370000I100000J0D01*
G01*
X263088000Y-115370000D01*
G75*
G02*
X263188000Y-115470000I0J-100000D01*
G01*
X263188000Y-115670000D01*
G75*
G02*
X263088000Y-115770000I-100000J0D01*
G01*
X261813000Y-115770000D01*
G75*
G02*
X261713000Y-115670000I0J100000D01*
G01*
G37*
%TD.AperFunction*%
%TO.P,U2,19*%
%TO.N,GND*%
%TA.AperFunction,SMDPad,CuDef*%
G36*
G01*
X261713000Y-116320000D02*
X261713000Y-116120000D01*
G75*
G02*
X261813000Y-116020000I100000J0D01*
G01*
X263088000Y-116020000D01*
G75*
G02*
X263188000Y-116120000I0J-100000D01*
G01*
X263188000Y-116320000D01*
G75*
G02*
X263088000Y-116420000I-100000J0D01*
G01*
X261813000Y-116420000D01*
G75*
G02*
X261713000Y-116320000I0J100000D01*
G01*
G37*
%TD.AperFunction*%
%TO.P,U2,18*%
%TO.N,Cn*%
%TA.AperFunction,SMDPad,CuDef*%
G36*
G01*
X261713000Y-116970000D02*
X261713000Y-116770000D01*
G75*
G02*
X261813000Y-116670000I100000J0D01*
G01*
X263088000Y-116670000D01*
G75*
G02*
X263188000Y-116770000I0J-100000D01*
G01*
X263188000Y-116970000D01*
G75*
G02*
X263088000Y-117070000I-100000J0D01*
G01*
X261813000Y-117070000D01*
G75*
G02*
X261713000Y-116970000I0J100000D01*
G01*
G37*
%TD.AperFunction*%
%TO.P,U2,17*%
%TO.N,Mode*%
%TA.AperFunction,SMDPad,CuDef*%
G36*
G01*
X261713000Y-117620000D02*
X261713000Y-117420000D01*
G75*
G02*
X261813000Y-117320000I100000J0D01*
G01*
X263088000Y-117320000D01*
G75*
G02*
X263188000Y-117420000I0J-100000D01*
G01*
X263188000Y-117620000D01*
G75*
G02*
X263088000Y-117720000I-100000J0D01*
G01*
X261813000Y-117720000D01*
G75*
G02*
X261713000Y-117620000I0J100000D01*
G01*
G37*
%TD.AperFunction*%
%TO.P,U2,16*%
%TO.N,F0*%
%TA.AperFunction,SMDPad,CuDef*%
G36*
G01*
X261713000Y-118270000D02*
X261713000Y-118070000D01*
G75*
G02*
X261813000Y-117970000I100000J0D01*
G01*
X263088000Y-117970000D01*
G75*
G02*
X263188000Y-118070000I0J-100000D01*
G01*
X263188000Y-118270000D01*
G75*
G02*
X263088000Y-118370000I-100000J0D01*
G01*
X261813000Y-118370000D01*
G75*
G02*
X261713000Y-118270000I0J100000D01*
G01*
G37*
%TD.AperFunction*%
%TO.P,U2,15*%
%TO.N,F1*%
%TA.AperFunction,SMDPad,CuDef*%
G36*
G01*
X261713000Y-118920000D02*
X261713000Y-118720000D01*
G75*
G02*
X261813000Y-118620000I100000J0D01*
G01*
X263088000Y-118620000D01*
G75*
G02*
X263188000Y-118720000I0J-100000D01*
G01*
X263188000Y-118920000D01*
G75*
G02*
X263088000Y-119020000I-100000J0D01*
G01*
X261813000Y-119020000D01*
G75*
G02*
X261713000Y-118920000I0J100000D01*
G01*
G37*
%TD.AperFunction*%
%TO.P,U2,14*%
%TO.N,F2*%
%TA.AperFunction,SMDPad,CuDef*%
G36*
G01*
X261713000Y-119570000D02*
X261713000Y-119370000D01*
G75*
G02*
X261813000Y-119270000I100000J0D01*
G01*
X263088000Y-119270000D01*
G75*
G02*
X263188000Y-119370000I0J-100000D01*
G01*
X263188000Y-119570000D01*
G75*
G02*
X263088000Y-119670000I-100000J0D01*
G01*
X261813000Y-119670000D01*
G75*
G02*
X261713000Y-119570000I0J100000D01*
G01*
G37*
%TD.AperFunction*%
%TO.P,U2,13*%
%TO.N,F3*%
%TA.AperFunction,SMDPad,CuDef*%
G36*
G01*
X261713000Y-120220000D02*
X261713000Y-120020000D01*
G75*
G02*
X261813000Y-119920000I100000J0D01*
G01*
X263088000Y-119920000D01*
G75*
G02*
X263188000Y-120020000I0J-100000D01*
G01*
X263188000Y-120220000D01*
G75*
G02*
X263088000Y-120320000I-100000J0D01*
G01*
X261813000Y-120320000D01*
G75*
G02*
X261713000Y-120220000I0J100000D01*
G01*
G37*
%TD.AperFunction*%
%TO.P,U2,12*%
%TO.N,Net-(U2-Pad12)*%
%TA.AperFunction,SMDPad,CuDef*%
G36*
G01*
X261713000Y-120870000D02*
X261713000Y-120670000D01*
G75*
G02*
X261813000Y-120570000I100000J0D01*
G01*
X263088000Y-120570000D01*
G75*
G02*
X263188000Y-120670000I0J-100000D01*
G01*
X263188000Y-120870000D01*
G75*
G02*
X263088000Y-120970000I-100000J0D01*
G01*
X261813000Y-120970000D01*
G75*
G02*
X261713000Y-120870000I0J100000D01*
G01*
G37*
%TD.AperFunction*%
%TO.P,U2,11*%
%TO.N,Net-(U2-Pad11)*%
%TA.AperFunction,SMDPad,CuDef*%
G36*
G01*
X261713000Y-121520000D02*
X261713000Y-121320000D01*
G75*
G02*
X261813000Y-121220000I100000J0D01*
G01*
X263088000Y-121220000D01*
G75*
G02*
X263188000Y-121320000I0J-100000D01*
G01*
X263188000Y-121520000D01*
G75*
G02*
X263088000Y-121620000I-100000J0D01*
G01*
X261813000Y-121620000D01*
G75*
G02*
X261713000Y-121520000I0J100000D01*
G01*
G37*
%TD.AperFunction*%
%TO.P,U2,10*%
%TO.N,GND*%
%TA.AperFunction,SMDPad,CuDef*%
G36*
G01*
X255988000Y-121520000D02*
X255988000Y-121320000D01*
G75*
G02*
X256088000Y-121220000I100000J0D01*
G01*
X257363000Y-121220000D01*
G75*
G02*
X257463000Y-121320000I0J-100000D01*
G01*
X257463000Y-121520000D01*
G75*
G02*
X257363000Y-121620000I-100000J0D01*
G01*
X256088000Y-121620000D01*
G75*
G02*
X255988000Y-121520000I0J100000D01*
G01*
G37*
%TD.AperFunction*%
%TO.P,U2,9*%
%TA.AperFunction,SMDPad,CuDef*%
G36*
G01*
X255988000Y-120870000D02*
X255988000Y-120670000D01*
G75*
G02*
X256088000Y-120570000I100000J0D01*
G01*
X257363000Y-120570000D01*
G75*
G02*
X257463000Y-120670000I0J-100000D01*
G01*
X257463000Y-120870000D01*
G75*
G02*
X257363000Y-120970000I-100000J0D01*
G01*
X256088000Y-120970000D01*
G75*
G02*
X255988000Y-120870000I0J100000D01*
G01*
G37*
%TD.AperFunction*%
%TO.P,U2,8*%
%TA.AperFunction,SMDPad,CuDef*%
G36*
G01*
X255988000Y-120220000D02*
X255988000Y-120020000D01*
G75*
G02*
X256088000Y-119920000I100000J0D01*
G01*
X257363000Y-119920000D01*
G75*
G02*
X257463000Y-120020000I0J-100000D01*
G01*
X257463000Y-120220000D01*
G75*
G02*
X257363000Y-120320000I-100000J0D01*
G01*
X256088000Y-120320000D01*
G75*
G02*
X255988000Y-120220000I0J100000D01*
G01*
G37*
%TD.AperFunction*%
%TO.P,U2,7*%
%TO.N,D5*%
%TA.AperFunction,SMDPad,CuDef*%
G36*
G01*
X255988000Y-119570000D02*
X255988000Y-119370000D01*
G75*
G02*
X256088000Y-119270000I100000J0D01*
G01*
X257363000Y-119270000D01*
G75*
G02*
X257463000Y-119370000I0J-100000D01*
G01*
X257463000Y-119570000D01*
G75*
G02*
X257363000Y-119670000I-100000J0D01*
G01*
X256088000Y-119670000D01*
G75*
G02*
X255988000Y-119570000I0J100000D01*
G01*
G37*
%TD.AperFunction*%
%TO.P,U2,6*%
%TO.N,D4*%
%TA.AperFunction,SMDPad,CuDef*%
G36*
G01*
X255988000Y-118920000D02*
X255988000Y-118720000D01*
G75*
G02*
X256088000Y-118620000I100000J0D01*
G01*
X257363000Y-118620000D01*
G75*
G02*
X257463000Y-118720000I0J-100000D01*
G01*
X257463000Y-118920000D01*
G75*
G02*
X257363000Y-119020000I-100000J0D01*
G01*
X256088000Y-119020000D01*
G75*
G02*
X255988000Y-118920000I0J100000D01*
G01*
G37*
%TD.AperFunction*%
%TO.P,U2,5*%
%TO.N,D3*%
%TA.AperFunction,SMDPad,CuDef*%
G36*
G01*
X255988000Y-118270000D02*
X255988000Y-118070000D01*
G75*
G02*
X256088000Y-117970000I100000J0D01*
G01*
X257363000Y-117970000D01*
G75*
G02*
X257463000Y-118070000I0J-100000D01*
G01*
X257463000Y-118270000D01*
G75*
G02*
X257363000Y-118370000I-100000J0D01*
G01*
X256088000Y-118370000D01*
G75*
G02*
X255988000Y-118270000I0J100000D01*
G01*
G37*
%TD.AperFunction*%
%TO.P,U2,4*%
%TO.N,D2*%
%TA.AperFunction,SMDPad,CuDef*%
G36*
G01*
X255988000Y-117620000D02*
X255988000Y-117420000D01*
G75*
G02*
X256088000Y-117320000I100000J0D01*
G01*
X257363000Y-117320000D01*
G75*
G02*
X257463000Y-117420000I0J-100000D01*
G01*
X257463000Y-117620000D01*
G75*
G02*
X257363000Y-117720000I-100000J0D01*
G01*
X256088000Y-117720000D01*
G75*
G02*
X255988000Y-117620000I0J100000D01*
G01*
G37*
%TD.AperFunction*%
%TO.P,U2,3*%
%TO.N,D1*%
%TA.AperFunction,SMDPad,CuDef*%
G36*
G01*
X255988000Y-116970000D02*
X255988000Y-116770000D01*
G75*
G02*
X256088000Y-116670000I100000J0D01*
G01*
X257363000Y-116670000D01*
G75*
G02*
X257463000Y-116770000I0J-100000D01*
G01*
X257463000Y-116970000D01*
G75*
G02*
X257363000Y-117070000I-100000J0D01*
G01*
X256088000Y-117070000D01*
G75*
G02*
X255988000Y-116970000I0J100000D01*
G01*
G37*
%TD.AperFunction*%
%TO.P,U2,2*%
%TO.N,D0*%
%TA.AperFunction,SMDPad,CuDef*%
G36*
G01*
X255988000Y-116320000D02*
X255988000Y-116120000D01*
G75*
G02*
X256088000Y-116020000I100000J0D01*
G01*
X257363000Y-116020000D01*
G75*
G02*
X257463000Y-116120000I0J-100000D01*
G01*
X257463000Y-116320000D01*
G75*
G02*
X257363000Y-116420000I-100000J0D01*
G01*
X256088000Y-116420000D01*
G75*
G02*
X255988000Y-116320000I0J100000D01*
G01*
G37*
%TD.AperFunction*%
%TO.P,U2,1*%
%TO.N,VCC*%
%TA.AperFunction,SMDPad,CuDef*%
G36*
G01*
X255988000Y-115670000D02*
X255988000Y-115470000D01*
G75*
G02*
X256088000Y-115370000I100000J0D01*
G01*
X257363000Y-115370000D01*
G75*
G02*
X257463000Y-115470000I0J-100000D01*
G01*
X257463000Y-115670000D01*
G75*
G02*
X257363000Y-115770000I-100000J0D01*
G01*
X256088000Y-115770000D01*
G75*
G02*
X255988000Y-115670000I0J100000D01*
G01*
G37*
%TD.AperFunction*%
%TD*%
%TO.P,U1,24*%
%TO.N,VCC*%
%TA.AperFunction,SMDPad,CuDef*%
G36*
G01*
X141155000Y-125199000D02*
X141155000Y-125499000D01*
G75*
G02*
X141005000Y-125649000I-150000J0D01*
G01*
X139255000Y-125649000D01*
G75*
G02*
X139105000Y-125499000I0J150000D01*
G01*
X139105000Y-125199000D01*
G75*
G02*
X139255000Y-125049000I150000J0D01*
G01*
X141005000Y-125049000D01*
G75*
G02*
X141155000Y-125199000I0J-150000D01*
G01*
G37*
%TD.AperFunction*%
%TO.P,U1,23*%
%TO.N,A0*%
%TA.AperFunction,SMDPad,CuDef*%
G36*
G01*
X141155000Y-123929000D02*
X141155000Y-124229000D01*
G75*
G02*
X141005000Y-124379000I-150000J0D01*
G01*
X139255000Y-124379000D01*
G75*
G02*
X139105000Y-124229000I0J150000D01*
G01*
X139105000Y-123929000D01*
G75*
G02*
X139255000Y-123779000I150000J0D01*
G01*
X141005000Y-123779000D01*
G75*
G02*
X141155000Y-123929000I0J-150000D01*
G01*
G37*
%TD.AperFunction*%
%TO.P,U1,22*%
%TO.N,A1*%
%TA.AperFunction,SMDPad,CuDef*%
G36*
G01*
X141155000Y-122659000D02*
X141155000Y-122959000D01*
G75*
G02*
X141005000Y-123109000I-150000J0D01*
G01*
X139255000Y-123109000D01*
G75*
G02*
X139105000Y-122959000I0J150000D01*
G01*
X139105000Y-122659000D01*
G75*
G02*
X139255000Y-122509000I150000J0D01*
G01*
X141005000Y-122509000D01*
G75*
G02*
X141155000Y-122659000I0J-150000D01*
G01*
G37*
%TD.AperFunction*%
%TO.P,U1,21*%
%TO.N,A2*%
%TA.AperFunction,SMDPad,CuDef*%
G36*
G01*
X141155000Y-121389000D02*
X141155000Y-121689000D01*
G75*
G02*
X141005000Y-121839000I-150000J0D01*
G01*
X139255000Y-121839000D01*
G75*
G02*
X139105000Y-121689000I0J150000D01*
G01*
X139105000Y-121389000D01*
G75*
G02*
X139255000Y-121239000I150000J0D01*
G01*
X141005000Y-121239000D01*
G75*
G02*
X141155000Y-121389000I0J-150000D01*
G01*
G37*
%TD.AperFunction*%
%TO.P,U1,20*%
%TO.N,A3*%
%TA.AperFunction,SMDPad,CuDef*%
G36*
G01*
X141155000Y-120119000D02*
X141155000Y-120419000D01*
G75*
G02*
X141005000Y-120569000I-150000J0D01*
G01*
X139255000Y-120569000D01*
G75*
G02*
X139105000Y-120419000I0J150000D01*
G01*
X139105000Y-120119000D01*
G75*
G02*
X139255000Y-119969000I150000J0D01*
G01*
X141005000Y-119969000D01*
G75*
G02*
X141155000Y-120119000I0J-150000D01*
G01*
G37*
%TD.AperFunction*%
%TO.P,U1,19*%
%TO.N,~ALU_ENABLE*%
%TA.AperFunction,SMDPad,CuDef*%
G36*
G01*
X141155000Y-118849000D02*
X141155000Y-119149000D01*
G75*
G02*
X141005000Y-119299000I-150000J0D01*
G01*
X139255000Y-119299000D01*
G75*
G02*
X139105000Y-119149000I0J150000D01*
G01*
X139105000Y-118849000D01*
G75*
G02*
X139255000Y-118699000I150000J0D01*
G01*
X141005000Y-118699000D01*
G75*
G02*
X141155000Y-118849000I0J-150000D01*
G01*
G37*
%TD.AperFunction*%
%TO.P,U1,18*%
%TA.AperFunction,SMDPad,CuDef*%
G36*
G01*
X141155000Y-117579000D02*
X141155000Y-117879000D01*
G75*
G02*
X141005000Y-118029000I-150000J0D01*
G01*
X139255000Y-118029000D01*
G75*
G02*
X139105000Y-117879000I0J150000D01*
G01*
X139105000Y-117579000D01*
G75*
G02*
X139255000Y-117429000I150000J0D01*
G01*
X141005000Y-117429000D01*
G75*
G02*
X141155000Y-117579000I0J-150000D01*
G01*
G37*
%TD.AperFunction*%
%TO.P,U1,17*%
%TO.N,Q15*%
%TA.AperFunction,SMDPad,CuDef*%
G36*
G01*
X141155000Y-116309000D02*
X141155000Y-116609000D01*
G75*
G02*
X141005000Y-116759000I-150000J0D01*
G01*
X139255000Y-116759000D01*
G75*
G02*
X139105000Y-116609000I0J150000D01*
G01*
X139105000Y-116309000D01*
G75*
G02*
X139255000Y-116159000I150000J0D01*
G01*
X141005000Y-116159000D01*
G75*
G02*
X141155000Y-116309000I0J-150000D01*
G01*
G37*
%TD.AperFunction*%
%TO.P,U1,16*%
%TO.N,Q14*%
%TA.AperFunction,SMDPad,CuDef*%
G36*
G01*
X141155000Y-115039000D02*
X141155000Y-115339000D01*
G75*
G02*
X141005000Y-115489000I-150000J0D01*
G01*
X139255000Y-115489000D01*
G75*
G02*
X139105000Y-115339000I0J150000D01*
G01*
X139105000Y-115039000D01*
G75*
G02*
X139255000Y-114889000I150000J0D01*
G01*
X141005000Y-114889000D01*
G75*
G02*
X141155000Y-115039000I0J-150000D01*
G01*
G37*
%TD.AperFunction*%
%TO.P,U1,15*%
%TO.N,Q13*%
%TA.AperFunction,SMDPad,CuDef*%
G36*
G01*
X141155000Y-113769000D02*
X141155000Y-114069000D01*
G75*
G02*
X141005000Y-114219000I-150000J0D01*
G01*
X139255000Y-114219000D01*
G75*
G02*
X139105000Y-114069000I0J150000D01*
G01*
X139105000Y-113769000D01*
G75*
G02*
X139255000Y-113619000I150000J0D01*
G01*
X141005000Y-113619000D01*
G75*
G02*
X141155000Y-113769000I0J-150000D01*
G01*
G37*
%TD.AperFunction*%
%TO.P,U1,14*%
%TO.N,Q12*%
%TA.AperFunction,SMDPad,CuDef*%
G36*
G01*
X141155000Y-112499000D02*
X141155000Y-112799000D01*
G75*
G02*
X141005000Y-112949000I-150000J0D01*
G01*
X139255000Y-112949000D01*
G75*
G02*
X139105000Y-112799000I0J150000D01*
G01*
X139105000Y-112499000D01*
G75*
G02*
X139255000Y-112349000I150000J0D01*
G01*
X141005000Y-112349000D01*
G75*
G02*
X141155000Y-112499000I0J-150000D01*
G01*
G37*
%TD.AperFunction*%
%TO.P,U1,13*%
%TO.N,Q11*%
%TA.AperFunction,SMDPad,CuDef*%
G36*
G01*
X141155000Y-111229000D02*
X141155000Y-111529000D01*
G75*
G02*
X141005000Y-111679000I-150000J0D01*
G01*
X139255000Y-111679000D01*
G75*
G02*
X139105000Y-111529000I0J150000D01*
G01*
X139105000Y-111229000D01*
G75*
G02*
X139255000Y-111079000I150000J0D01*
G01*
X141005000Y-111079000D01*
G75*
G02*
X141155000Y-111229000I0J-150000D01*
G01*
G37*
%TD.AperFunction*%
%TO.P,U1,12*%
%TO.N,GND*%
%TA.AperFunction,SMDPad,CuDef*%
G36*
G01*
X150455000Y-111229000D02*
X150455000Y-111529000D01*
G75*
G02*
X150305000Y-111679000I-150000J0D01*
G01*
X148555000Y-111679000D01*
G75*
G02*
X148405000Y-111529000I0J150000D01*
G01*
X148405000Y-111229000D01*
G75*
G02*
X148555000Y-111079000I150000J0D01*
G01*
X150305000Y-111079000D01*
G75*
G02*
X150455000Y-111229000I0J-150000D01*
G01*
G37*
%TD.AperFunction*%
%TO.P,U1,11*%
%TO.N,Q10*%
%TA.AperFunction,SMDPad,CuDef*%
G36*
G01*
X150455000Y-112499000D02*
X150455000Y-112799000D01*
G75*
G02*
X150305000Y-112949000I-150000J0D01*
G01*
X148555000Y-112949000D01*
G75*
G02*
X148405000Y-112799000I0J150000D01*
G01*
X148405000Y-112499000D01*
G75*
G02*
X148555000Y-112349000I150000J0D01*
G01*
X150305000Y-112349000D01*
G75*
G02*
X150455000Y-112499000I0J-150000D01*
G01*
G37*
%TD.AperFunction*%
%TO.P,U1,10*%
%TO.N,Q9*%
%TA.AperFunction,SMDPad,CuDef*%
G36*
G01*
X150455000Y-113769000D02*
X150455000Y-114069000D01*
G75*
G02*
X150305000Y-114219000I-150000J0D01*
G01*
X148555000Y-114219000D01*
G75*
G02*
X148405000Y-114069000I0J150000D01*
G01*
X148405000Y-113769000D01*
G75*
G02*
X148555000Y-113619000I150000J0D01*
G01*
X150305000Y-113619000D01*
G75*
G02*
X150455000Y-113769000I0J-150000D01*
G01*
G37*
%TD.AperFunction*%
%TO.P,U1,9*%
%TO.N,Q8*%
%TA.AperFunction,SMDPad,CuDef*%
G36*
G01*
X150455000Y-115039000D02*
X150455000Y-115339000D01*
G75*
G02*
X150305000Y-115489000I-150000J0D01*
G01*
X148555000Y-115489000D01*
G75*
G02*
X148405000Y-115339000I0J150000D01*
G01*
X148405000Y-115039000D01*
G75*
G02*
X148555000Y-114889000I150000J0D01*
G01*
X150305000Y-114889000D01*
G75*
G02*
X150455000Y-115039000I0J-150000D01*
G01*
G37*
%TD.AperFunction*%
%TO.P,U1,8*%
%TO.N,Q7*%
%TA.AperFunction,SMDPad,CuDef*%
G36*
G01*
X150455000Y-116309000D02*
X150455000Y-116609000D01*
G75*
G02*
X150305000Y-116759000I-150000J0D01*
G01*
X148555000Y-116759000D01*
G75*
G02*
X148405000Y-116609000I0J150000D01*
G01*
X148405000Y-116309000D01*
G75*
G02*
X148555000Y-116159000I150000J0D01*
G01*
X150305000Y-116159000D01*
G75*
G02*
X150455000Y-116309000I0J-150000D01*
G01*
G37*
%TD.AperFunction*%
%TO.P,U1,7*%
%TO.N,Q6*%
%TA.AperFunction,SMDPad,CuDef*%
G36*
G01*
X150455000Y-117579000D02*
X150455000Y-117879000D01*
G75*
G02*
X150305000Y-118029000I-150000J0D01*
G01*
X148555000Y-118029000D01*
G75*
G02*
X148405000Y-117879000I0J150000D01*
G01*
X148405000Y-117579000D01*
G75*
G02*
X148555000Y-117429000I150000J0D01*
G01*
X150305000Y-117429000D01*
G75*
G02*
X150455000Y-117579000I0J-150000D01*
G01*
G37*
%TD.AperFunction*%
%TO.P,U1,6*%
%TO.N,Q5*%
%TA.AperFunction,SMDPad,CuDef*%
G36*
G01*
X150455000Y-118849000D02*
X150455000Y-119149000D01*
G75*
G02*
X150305000Y-119299000I-150000J0D01*
G01*
X148555000Y-119299000D01*
G75*
G02*
X148405000Y-119149000I0J150000D01*
G01*
X148405000Y-118849000D01*
G75*
G02*
X148555000Y-118699000I150000J0D01*
G01*
X150305000Y-118699000D01*
G75*
G02*
X150455000Y-118849000I0J-150000D01*
G01*
G37*
%TD.AperFunction*%
%TO.P,U1,5*%
%TO.N,Q4*%
%TA.AperFunction,SMDPad,CuDef*%
G36*
G01*
X150455000Y-120119000D02*
X150455000Y-120419000D01*
G75*
G02*
X150305000Y-120569000I-150000J0D01*
G01*
X148555000Y-120569000D01*
G75*
G02*
X148405000Y-120419000I0J150000D01*
G01*
X148405000Y-120119000D01*
G75*
G02*
X148555000Y-119969000I150000J0D01*
G01*
X150305000Y-119969000D01*
G75*
G02*
X150455000Y-120119000I0J-150000D01*
G01*
G37*
%TD.AperFunction*%
%TO.P,U1,4*%
%TO.N,Q3*%
%TA.AperFunction,SMDPad,CuDef*%
G36*
G01*
X150455000Y-121389000D02*
X150455000Y-121689000D01*
G75*
G02*
X150305000Y-121839000I-150000J0D01*
G01*
X148555000Y-121839000D01*
G75*
G02*
X148405000Y-121689000I0J150000D01*
G01*
X148405000Y-121389000D01*
G75*
G02*
X148555000Y-121239000I150000J0D01*
G01*
X150305000Y-121239000D01*
G75*
G02*
X150455000Y-121389000I0J-150000D01*
G01*
G37*
%TD.AperFunction*%
%TO.P,U1,3*%
%TO.N,Q2*%
%TA.AperFunction,SMDPad,CuDef*%
G36*
G01*
X150455000Y-122659000D02*
X150455000Y-122959000D01*
G75*
G02*
X150305000Y-123109000I-150000J0D01*
G01*
X148555000Y-123109000D01*
G75*
G02*
X148405000Y-122959000I0J150000D01*
G01*
X148405000Y-122659000D01*
G75*
G02*
X148555000Y-122509000I150000J0D01*
G01*
X150305000Y-122509000D01*
G75*
G02*
X150455000Y-122659000I0J-150000D01*
G01*
G37*
%TD.AperFunction*%
%TO.P,U1,2*%
%TO.N,Q1*%
%TA.AperFunction,SMDPad,CuDef*%
G36*
G01*
X150455000Y-123929000D02*
X150455000Y-124229000D01*
G75*
G02*
X150305000Y-124379000I-150000J0D01*
G01*
X148555000Y-124379000D01*
G75*
G02*
X148405000Y-124229000I0J150000D01*
G01*
X148405000Y-123929000D01*
G75*
G02*
X148555000Y-123779000I150000J0D01*
G01*
X150305000Y-123779000D01*
G75*
G02*
X150455000Y-123929000I0J-150000D01*
G01*
G37*
%TD.AperFunction*%
%TO.P,U1,1*%
%TO.N,Q0*%
%TA.AperFunction,SMDPad,CuDef*%
G36*
G01*
X150455000Y-125199000D02*
X150455000Y-125499000D01*
G75*
G02*
X150305000Y-125649000I-150000J0D01*
G01*
X148555000Y-125649000D01*
G75*
G02*
X148405000Y-125499000I0J150000D01*
G01*
X148405000Y-125199000D01*
G75*
G02*
X148555000Y-125049000I150000J0D01*
G01*
X150305000Y-125049000D01*
G75*
G02*
X150455000Y-125199000I0J-150000D01*
G01*
G37*
%TD.AperFunction*%
%TD*%
D12*
%TO.P,J2,8*%
%TO.N,VCC*%
X267208000Y-109474000D03*
%TO.P,J2,7*%
%TO.N,GND*%
X267208000Y-112014000D03*
%TO.P,J2,6*%
%TO.N,Cn*%
X267208000Y-114554000D03*
%TO.P,J2,5*%
%TO.N,Mode*%
X267208000Y-117094000D03*
%TO.P,J2,4*%
%TO.N,F0*%
X267208000Y-119634000D03*
%TO.P,J2,3*%
%TO.N,F1*%
X267208000Y-122174000D03*
%TO.P,J2,2*%
%TO.N,F2*%
X267208000Y-124714000D03*
D13*
%TO.P,J2,1*%
%TO.N,F3*%
X267208000Y-127254000D03*
%TD*%
D12*
%TO.P,J1,7*%
%TO.N,VCC*%
X135128000Y-125984000D03*
%TO.P,J1,6*%
%TO.N,GND*%
X135128000Y-123444000D03*
%TO.P,J1,5*%
%TO.N,A0*%
X135128000Y-120904000D03*
%TO.P,J1,4*%
%TO.N,A1*%
X135128000Y-118364000D03*
%TO.P,J1,3*%
%TO.N,A2*%
X135128000Y-115824000D03*
%TO.P,J1,2*%
%TO.N,A3*%
X135128000Y-113284000D03*
D13*
%TO.P,J1,1*%
%TO.N,~ALU_ENABLE*%
X135128000Y-110744000D03*
%TD*%
%TO.P,R6,2*%
%TO.N,D5*%
%TA.AperFunction,SMDPad,CuDef*%
G36*
G01*
X251009998Y-128416000D02*
X251910002Y-128416000D01*
G75*
G02*
X252160000Y-128665998I0J-249998D01*
G01*
X252160000Y-129191002D01*
G75*
G02*
X251910002Y-129441000I-249998J0D01*
G01*
X251009998Y-129441000D01*
G75*
G02*
X250760000Y-129191002I0J249998D01*
G01*
X250760000Y-128665998D01*
G75*
G02*
X251009998Y-128416000I249998J0D01*
G01*
G37*
%TD.AperFunction*%
%TO.P,R6,1*%
%TO.N,VCC*%
%TA.AperFunction,SMDPad,CuDef*%
G36*
G01*
X251009998Y-126591000D02*
X251910002Y-126591000D01*
G75*
G02*
X252160000Y-126840998I0J-249998D01*
G01*
X252160000Y-127366002D01*
G75*
G02*
X251910002Y-127616000I-249998J0D01*
G01*
X251009998Y-127616000D01*
G75*
G02*
X250760000Y-127366002I0J249998D01*
G01*
X250760000Y-126840998D01*
G75*
G02*
X251009998Y-126591000I249998J0D01*
G01*
G37*
%TD.AperFunction*%
%TD*%
%TO.P,R5,2*%
%TO.N,D4*%
%TA.AperFunction,SMDPad,CuDef*%
G36*
G01*
X251009998Y-124606000D02*
X251910002Y-124606000D01*
G75*
G02*
X252160000Y-124855998I0J-249998D01*
G01*
X252160000Y-125381002D01*
G75*
G02*
X251910002Y-125631000I-249998J0D01*
G01*
X251009998Y-125631000D01*
G75*
G02*
X250760000Y-125381002I0J249998D01*
G01*
X250760000Y-124855998D01*
G75*
G02*
X251009998Y-124606000I249998J0D01*
G01*
G37*
%TD.AperFunction*%
%TO.P,R5,1*%
%TO.N,VCC*%
%TA.AperFunction,SMDPad,CuDef*%
G36*
G01*
X251009998Y-122781000D02*
X251910002Y-122781000D01*
G75*
G02*
X252160000Y-123030998I0J-249998D01*
G01*
X252160000Y-123556002D01*
G75*
G02*
X251910002Y-123806000I-249998J0D01*
G01*
X251009998Y-123806000D01*
G75*
G02*
X250760000Y-123556002I0J249998D01*
G01*
X250760000Y-123030998D01*
G75*
G02*
X251009998Y-122781000I249998J0D01*
G01*
G37*
%TD.AperFunction*%
%TD*%
%TO.P,R4,2*%
%TO.N,D3*%
%TA.AperFunction,SMDPad,CuDef*%
G36*
G01*
X251009998Y-120796000D02*
X251910002Y-120796000D01*
G75*
G02*
X252160000Y-121045998I0J-249998D01*
G01*
X252160000Y-121571002D01*
G75*
G02*
X251910002Y-121821000I-249998J0D01*
G01*
X251009998Y-121821000D01*
G75*
G02*
X250760000Y-121571002I0J249998D01*
G01*
X250760000Y-121045998D01*
G75*
G02*
X251009998Y-120796000I249998J0D01*
G01*
G37*
%TD.AperFunction*%
%TO.P,R4,1*%
%TO.N,VCC*%
%TA.AperFunction,SMDPad,CuDef*%
G36*
G01*
X251009998Y-118971000D02*
X251910002Y-118971000D01*
G75*
G02*
X252160000Y-119220998I0J-249998D01*
G01*
X252160000Y-119746002D01*
G75*
G02*
X251910002Y-119996000I-249998J0D01*
G01*
X251009998Y-119996000D01*
G75*
G02*
X250760000Y-119746002I0J249998D01*
G01*
X250760000Y-119220998D01*
G75*
G02*
X251009998Y-118971000I249998J0D01*
G01*
G37*
%TD.AperFunction*%
%TD*%
%TO.P,R3,2*%
%TO.N,D2*%
%TA.AperFunction,SMDPad,CuDef*%
G36*
G01*
X251009998Y-116986000D02*
X251910002Y-116986000D01*
G75*
G02*
X252160000Y-117235998I0J-249998D01*
G01*
X252160000Y-117761002D01*
G75*
G02*
X251910002Y-118011000I-249998J0D01*
G01*
X251009998Y-118011000D01*
G75*
G02*
X250760000Y-117761002I0J249998D01*
G01*
X250760000Y-117235998D01*
G75*
G02*
X251009998Y-116986000I249998J0D01*
G01*
G37*
%TD.AperFunction*%
%TO.P,R3,1*%
%TO.N,VCC*%
%TA.AperFunction,SMDPad,CuDef*%
G36*
G01*
X251009998Y-115161000D02*
X251910002Y-115161000D01*
G75*
G02*
X252160000Y-115410998I0J-249998D01*
G01*
X252160000Y-115936002D01*
G75*
G02*
X251910002Y-116186000I-249998J0D01*
G01*
X251009998Y-116186000D01*
G75*
G02*
X250760000Y-115936002I0J249998D01*
G01*
X250760000Y-115410998D01*
G75*
G02*
X251009998Y-115161000I249998J0D01*
G01*
G37*
%TD.AperFunction*%
%TD*%
%TO.P,R2,2*%
%TO.N,D1*%
%TA.AperFunction,SMDPad,CuDef*%
G36*
G01*
X251009998Y-113176000D02*
X251910002Y-113176000D01*
G75*
G02*
X252160000Y-113425998I0J-249998D01*
G01*
X252160000Y-113951002D01*
G75*
G02*
X251910002Y-114201000I-249998J0D01*
G01*
X251009998Y-114201000D01*
G75*
G02*
X250760000Y-113951002I0J249998D01*
G01*
X250760000Y-113425998D01*
G75*
G02*
X251009998Y-113176000I249998J0D01*
G01*
G37*
%TD.AperFunction*%
%TO.P,R2,1*%
%TO.N,VCC*%
%TA.AperFunction,SMDPad,CuDef*%
G36*
G01*
X251009998Y-111351000D02*
X251910002Y-111351000D01*
G75*
G02*
X252160000Y-111600998I0J-249998D01*
G01*
X252160000Y-112126002D01*
G75*
G02*
X251910002Y-112376000I-249998J0D01*
G01*
X251009998Y-112376000D01*
G75*
G02*
X250760000Y-112126002I0J249998D01*
G01*
X250760000Y-111600998D01*
G75*
G02*
X251009998Y-111351000I249998J0D01*
G01*
G37*
%TD.AperFunction*%
%TD*%
%TO.P,R1,2*%
%TO.N,D0*%
%TA.AperFunction,SMDPad,CuDef*%
G36*
G01*
X251009998Y-109366000D02*
X251910002Y-109366000D01*
G75*
G02*
X252160000Y-109615998I0J-249998D01*
G01*
X252160000Y-110141002D01*
G75*
G02*
X251910002Y-110391000I-249998J0D01*
G01*
X251009998Y-110391000D01*
G75*
G02*
X250760000Y-110141002I0J249998D01*
G01*
X250760000Y-109615998D01*
G75*
G02*
X251009998Y-109366000I249998J0D01*
G01*
G37*
%TD.AperFunction*%
%TO.P,R1,1*%
%TO.N,VCC*%
%TA.AperFunction,SMDPad,CuDef*%
G36*
G01*
X251009998Y-107541000D02*
X251910002Y-107541000D01*
G75*
G02*
X252160000Y-107790998I0J-249998D01*
G01*
X252160000Y-108316002D01*
G75*
G02*
X251910002Y-108566000I-249998J0D01*
G01*
X251009998Y-108566000D01*
G75*
G02*
X250760000Y-108316002I0J249998D01*
G01*
X250760000Y-107790998D01*
G75*
G02*
X251009998Y-107541000I249998J0D01*
G01*
G37*
%TD.AperFunction*%
%TD*%
D14*
%TO.N,VCC*%
X140130000Y-127684000D03*
X262450500Y-113977500D03*
X256725500Y-114114500D03*
X253087500Y-108053500D03*
X253134500Y-111863500D03*
X253134500Y-115673500D03*
X253238000Y-118618000D03*
X252984000Y-122428000D03*
X253238000Y-125730000D03*
%TO.N,GND*%
X149430000Y-109044000D03*
X256725500Y-123121500D03*
X264414000Y-114046000D03*
%TO.N,Q8*%
X203200000Y-128270000D03*
%TO.N,Q6*%
X191008000Y-128270000D03*
%TO.N,Q4*%
X178816000Y-128270000D03*
%TO.N,Q2*%
X166624000Y-128270000D03*
%TO.N,Q1*%
X160528000Y-128270000D03*
%TD*%
D15*
%TO.N,VCC*%
X140130000Y-127938000D02*
X140130000Y-127684000D01*
X140130000Y-125349000D02*
X140130000Y-127684000D01*
X262450500Y-113860500D02*
X262450500Y-113977500D01*
X262450500Y-115570000D02*
X262450500Y-113977500D01*
X256725500Y-115570000D02*
X256725500Y-114114500D01*
X253341500Y-108053500D02*
X253087500Y-108053500D01*
X251460000Y-108053500D02*
X253087500Y-108053500D01*
X251460000Y-111863500D02*
X253134500Y-111863500D01*
X251460000Y-115673500D02*
X253134500Y-115673500D01*
X251460000Y-119483500D02*
X252372500Y-119483500D01*
X252372500Y-119483500D02*
X253238000Y-118618000D01*
X251460000Y-123293500D02*
X252118500Y-123293500D01*
X252118500Y-123293500D02*
X252984000Y-122428000D01*
X251460000Y-127103500D02*
X251864500Y-127103500D01*
X251864500Y-127103500D02*
X253238000Y-125730000D01*
%TO.N,A0*%
X135128000Y-120904000D02*
X138303000Y-124079000D01*
X138303000Y-124079000D02*
X140130000Y-124079000D01*
%TO.N,A1*%
X138682589Y-122809000D02*
X140130000Y-122809000D01*
X136652000Y-119888000D02*
X136652000Y-120778411D01*
X136652000Y-120778411D02*
X138682589Y-122809000D01*
X135128000Y-118364000D02*
X136652000Y-119888000D01*
%TO.N,A2*%
X136652000Y-119086000D02*
X139105000Y-121539000D01*
X139105000Y-121539000D02*
X140130000Y-121539000D01*
X135128000Y-116330178D02*
X136652000Y-117854178D01*
X136652000Y-117854178D02*
X136652000Y-119086000D01*
X135128000Y-115824000D02*
X135128000Y-116330178D01*
%TO.N,A3*%
X136303001Y-114459001D02*
X136303001Y-116868769D01*
X135128000Y-113284000D02*
X136303001Y-114459001D01*
X139403232Y-119969000D02*
X139830000Y-119969000D01*
X136303001Y-116868769D02*
X139403232Y-119969000D01*
X139830000Y-119969000D02*
X140130000Y-120269000D01*
%TO.N,~ALU_ENABLE*%
X140130000Y-118999000D02*
X140130000Y-117729000D01*
X136753012Y-113005422D02*
X136753012Y-116433012D01*
X135128000Y-110744000D02*
X135128000Y-111380410D01*
X138049000Y-117729000D02*
X140130000Y-117729000D01*
X136753012Y-116433012D02*
X138049000Y-117729000D01*
X135128000Y-111380410D02*
X136753012Y-113005422D01*
%TO.N,Q15*%
X138303000Y-116459000D02*
X137203023Y-115359023D01*
X240030000Y-103124000D02*
X244772001Y-107866001D01*
X140130000Y-116459000D02*
X138303000Y-116459000D01*
X137203023Y-115359023D02*
X137203023Y-107521744D01*
X141600767Y-103124000D02*
X240030000Y-103124000D01*
X244772001Y-107866001D02*
X245872000Y-108966000D01*
X137203023Y-107521744D02*
X141600767Y-103124000D01*
%TO.N,Q14*%
X234442000Y-103632000D02*
X141729179Y-103632000D01*
X239776000Y-108966000D02*
X234442000Y-103632000D01*
X137668000Y-107693179D02*
X137668000Y-113752000D01*
X137668000Y-113752000D02*
X139105000Y-115189000D01*
X139105000Y-115189000D02*
X140130000Y-115189000D01*
X141729179Y-103632000D02*
X137668000Y-107693179D01*
%TO.N,Q13*%
X138176000Y-113284000D02*
X138176000Y-107821589D01*
X141857589Y-104140000D02*
X228854000Y-104140000D01*
X138176000Y-107821589D02*
X141857589Y-104140000D01*
X138811000Y-113919000D02*
X138176000Y-113284000D01*
X140130000Y-113919000D02*
X138811000Y-113919000D01*
X228854000Y-104140000D02*
X233680000Y-108966000D01*
%TO.N,Q12*%
X227584000Y-108966000D02*
X223266000Y-104648000D01*
X223266000Y-104648000D02*
X141986000Y-104648000D01*
X141986000Y-104648000D02*
X138684000Y-107950000D01*
X138684000Y-112228000D02*
X139105000Y-112649000D01*
X139105000Y-112649000D02*
X140130000Y-112649000D01*
X138684000Y-107950000D02*
X138684000Y-112228000D01*
%TO.N,Q11*%
X140130000Y-111379000D02*
X140130000Y-110920000D01*
X140130000Y-110920000D02*
X139192000Y-109982000D01*
X139192000Y-109982000D02*
X139192000Y-108204000D01*
X139192000Y-108204000D02*
X142240000Y-105156000D01*
X217678000Y-105156000D02*
X221488000Y-108966000D01*
X142240000Y-105156000D02*
X217678000Y-105156000D01*
%TO.N,GND*%
X256725500Y-120120000D02*
X256725500Y-121420000D01*
X149430000Y-111379000D02*
X149430000Y-109044000D01*
X256725500Y-121420000D02*
X256725500Y-123121500D01*
X262450500Y-116220000D02*
X263764000Y-116220000D01*
X263764000Y-116220000D02*
X264414000Y-115570000D01*
X264414000Y-115570000D02*
X264414000Y-114046000D01*
%TO.N,Q10*%
X149430000Y-112649000D02*
X148209000Y-112649000D01*
X148209000Y-112649000D02*
X143764000Y-117094000D01*
X143764000Y-127000000D02*
X143821990Y-127057990D01*
X143764000Y-117094000D02*
X143764000Y-127000000D01*
X143821990Y-127057990D02*
X143821991Y-127311991D01*
X143821991Y-127311991D02*
X150114000Y-133604000D01*
X209804000Y-133604000D02*
X215392000Y-128016000D01*
X150114000Y-133604000D02*
X209804000Y-133604000D01*
%TO.N,Q9*%
X148209000Y-113919000D02*
X144272000Y-117856000D01*
X149430000Y-113919000D02*
X148209000Y-113919000D01*
X144272000Y-127125590D02*
X150242410Y-133096000D01*
X150242410Y-133096000D02*
X204216000Y-133096000D01*
X204216000Y-133096000D02*
X209296000Y-128016000D01*
X144272000Y-117856000D02*
X144272000Y-127125590D01*
%TO.N,Q8*%
X144780000Y-126997180D02*
X150373898Y-132591078D01*
X150373898Y-132591078D02*
X198878922Y-132591078D01*
X148209000Y-115189000D02*
X144780000Y-118618000D01*
X198878922Y-132591078D02*
X203200000Y-128270000D01*
X144780000Y-118618000D02*
X144780000Y-126997180D01*
X149430000Y-115189000D02*
X148209000Y-115189000D01*
%TO.N,Q7*%
X149430000Y-116459000D02*
X148209000Y-116459000D01*
X145230011Y-119437989D02*
X145230011Y-126810780D01*
X148209000Y-116459000D02*
X145230011Y-119437989D01*
X150560298Y-132141067D02*
X192978933Y-132141067D01*
X192978933Y-132141067D02*
X197104000Y-128016000D01*
X145230011Y-126810780D02*
X150560298Y-132141067D01*
%TO.N,Q6*%
X145680022Y-120257978D02*
X145680022Y-126624380D01*
X149430000Y-117729000D02*
X148209000Y-117729000D01*
X148209000Y-117729000D02*
X145680022Y-120257978D01*
X145680022Y-126624380D02*
X150746698Y-131691056D01*
X150746698Y-131691056D02*
X187586944Y-131691056D01*
X187586944Y-131691056D02*
X191008000Y-128270000D01*
%TO.N,Q5*%
X149430000Y-118999000D02*
X148209000Y-118999000D01*
X181686955Y-131241045D02*
X184912000Y-128016000D01*
X148209000Y-118999000D02*
X146130033Y-121077967D01*
X146130033Y-121077967D02*
X146130033Y-126437980D01*
X146130033Y-126437980D02*
X150933098Y-131241045D01*
X150933098Y-131241045D02*
X181686955Y-131241045D01*
%TO.N,Q4*%
X147955000Y-120269000D02*
X146580044Y-121643956D01*
X151119498Y-130791034D02*
X176294966Y-130791034D01*
X149430000Y-120269000D02*
X147955000Y-120269000D01*
X146580044Y-121643956D02*
X146580044Y-126251580D01*
X146580044Y-126251580D02*
X151119498Y-130791034D01*
X176294966Y-130791034D02*
X178816000Y-128270000D01*
%TO.N,Q3*%
X149430000Y-121539000D02*
X147955000Y-121539000D01*
X151305898Y-130341023D02*
X170394977Y-130341023D01*
X147030055Y-126065180D02*
X151305898Y-130341023D01*
X170394977Y-130341023D02*
X172720000Y-128016000D01*
X147955000Y-121539000D02*
X147030055Y-122463945D01*
X147030055Y-122463945D02*
X147030055Y-126065180D01*
%TO.N,Q2*%
X151492298Y-129891012D02*
X165002988Y-129891012D01*
X148209000Y-122809000D02*
X147480066Y-123537934D01*
X147480066Y-123537934D02*
X147480066Y-125878780D01*
X149430000Y-122809000D02*
X148209000Y-122809000D01*
X165002988Y-129891012D02*
X166624000Y-128270000D01*
X147480066Y-125878780D02*
X151492298Y-129891012D01*
%TO.N,Q1*%
X147930077Y-124357923D02*
X147930077Y-125692380D01*
X149430000Y-124079000D02*
X148209000Y-124079000D01*
X148209000Y-124079000D02*
X147930077Y-124357923D01*
X151678698Y-129441001D02*
X159356999Y-129441001D01*
X147930077Y-125692380D02*
X151678698Y-129441001D01*
X159356999Y-129441001D02*
X160528000Y-128270000D01*
%TO.N,Q0*%
X149430000Y-125349000D02*
X152097000Y-128016000D01*
X152097000Y-128016000D02*
X154432000Y-128016000D01*
%TO.N,D5*%
X255988000Y-119470000D02*
X254254000Y-121204000D01*
X256725500Y-119470000D02*
X255988000Y-119470000D01*
X254254000Y-126134500D02*
X251460000Y-128928500D01*
X254254000Y-121204000D02*
X254254000Y-126134500D01*
D16*
X248412000Y-128016000D02*
X249428000Y-128016000D01*
X250340500Y-128928500D02*
X251460000Y-128928500D01*
X249428000Y-128016000D02*
X250340500Y-128928500D01*
D15*
%TO.N,D0*%
X256725500Y-116220000D02*
X255666000Y-116220000D01*
X255666000Y-116220000D02*
X254762000Y-115316000D01*
X254762000Y-115316000D02*
X254762000Y-111760000D01*
X252880500Y-109878500D02*
X251460000Y-109878500D01*
X254762000Y-111760000D02*
X252880500Y-109878500D01*
D16*
X167613999Y-110516001D02*
X169164000Y-108966000D01*
X158522001Y-110516001D02*
X167613999Y-110516001D01*
X156972000Y-108966000D02*
X158522001Y-110516001D01*
X248412000Y-108966000D02*
X249174000Y-108966000D01*
X250086500Y-109878500D02*
X251460000Y-109878500D01*
X249174000Y-108966000D02*
X250086500Y-109878500D01*
X179578000Y-110744000D02*
X181356000Y-108966000D01*
X177038000Y-110744000D02*
X179578000Y-110744000D01*
X175260000Y-108966000D02*
X177038000Y-110744000D01*
X173482000Y-110744000D02*
X175260000Y-108966000D01*
X170942000Y-110744000D02*
X173482000Y-110744000D01*
X169164000Y-108966000D02*
X170942000Y-110744000D01*
X185674000Y-110744000D02*
X187452000Y-108966000D01*
X183134000Y-110744000D02*
X185674000Y-110744000D01*
X181356000Y-108966000D02*
X183134000Y-110744000D01*
X189230000Y-110744000D02*
X191770000Y-110744000D01*
X191770000Y-110744000D02*
X193548000Y-108966000D01*
X187452000Y-108966000D02*
X189230000Y-110744000D01*
X197866000Y-110744000D02*
X199644000Y-108966000D01*
X195326000Y-110744000D02*
X197866000Y-110744000D01*
X193548000Y-108966000D02*
X195326000Y-110744000D01*
X203962000Y-110744000D02*
X205740000Y-108966000D01*
X201422000Y-110744000D02*
X203962000Y-110744000D01*
X199644000Y-108966000D02*
X201422000Y-110744000D01*
X210058000Y-110744000D02*
X211836000Y-108966000D01*
X207518000Y-110744000D02*
X210058000Y-110744000D01*
X205740000Y-108966000D02*
X207518000Y-110744000D01*
X216154000Y-110744000D02*
X217932000Y-108966000D01*
X213614000Y-110744000D02*
X216154000Y-110744000D01*
X211836000Y-108966000D02*
X213614000Y-110744000D01*
X222250000Y-110744000D02*
X224028000Y-108966000D01*
X219710000Y-110744000D02*
X222250000Y-110744000D01*
X217932000Y-108966000D02*
X219710000Y-110744000D01*
X228346000Y-110744000D02*
X230124000Y-108966000D01*
X225806000Y-110744000D02*
X228346000Y-110744000D01*
X224028000Y-108966000D02*
X225806000Y-110744000D01*
X234442000Y-110744000D02*
X236220000Y-108966000D01*
X231902000Y-110744000D02*
X234442000Y-110744000D01*
X230124000Y-108966000D02*
X231902000Y-110744000D01*
X240538000Y-110744000D02*
X242316000Y-108966000D01*
X237998000Y-110744000D02*
X240538000Y-110744000D01*
X236220000Y-108966000D02*
X237998000Y-110744000D01*
X246634000Y-110744000D02*
X248412000Y-108966000D01*
X244094000Y-110744000D02*
X246634000Y-110744000D01*
X242316000Y-108966000D02*
X244094000Y-110744000D01*
D15*
%TO.N,D1*%
X252372500Y-113688500D02*
X251460000Y-113688500D01*
X255554000Y-116870000D02*
X252372500Y-113688500D01*
X256725500Y-116870000D02*
X255554000Y-116870000D01*
D16*
X251460000Y-113688500D02*
X250340500Y-113688500D01*
X250340500Y-113688500D02*
X249174000Y-112522000D01*
X187706000Y-112522000D02*
X187452000Y-112776000D01*
X249174000Y-112522000D02*
X187706000Y-112522000D01*
X182906001Y-114326001D02*
X181356000Y-112776000D01*
X185901999Y-114326001D02*
X182906001Y-114326001D01*
X187452000Y-112776000D02*
X185901999Y-114326001D01*
X176810001Y-114326001D02*
X175260000Y-112776000D01*
X179805999Y-114326001D02*
X176810001Y-114326001D01*
X181356000Y-112776000D02*
X179805999Y-114326001D01*
X170714001Y-114326001D02*
X169164000Y-112776000D01*
X173709999Y-114326001D02*
X170714001Y-114326001D01*
X175260000Y-112776000D02*
X173709999Y-114326001D01*
X164618001Y-114326001D02*
X163068000Y-112776000D01*
X167613999Y-114326001D02*
X164618001Y-114326001D01*
X169164000Y-112776000D02*
X167613999Y-114326001D01*
X158522001Y-114326001D02*
X156972000Y-112776000D01*
X161517999Y-114326001D02*
X158522001Y-114326001D01*
X163068000Y-112776000D02*
X161517999Y-114326001D01*
D15*
%TO.N,D2*%
X251481500Y-117520000D02*
X251460000Y-117498500D01*
X256725500Y-117520000D02*
X251481500Y-117520000D01*
D16*
X173709999Y-118136001D02*
X175260000Y-116586000D01*
X158522001Y-118136001D02*
X173709999Y-118136001D01*
X156972000Y-116586000D02*
X158522001Y-118136001D01*
X249324500Y-117498500D02*
X248412000Y-116586000D01*
X251460000Y-117498500D02*
X249324500Y-117498500D01*
X203962000Y-118364000D02*
X205740000Y-116586000D01*
X195326000Y-118364000D02*
X203962000Y-118364000D01*
X193548000Y-116586000D02*
X195326000Y-118364000D01*
X185674000Y-118364000D02*
X187452000Y-116586000D01*
X177038000Y-118364000D02*
X185674000Y-118364000D01*
X175260000Y-116586000D02*
X177038000Y-118364000D01*
X191770000Y-118364000D02*
X193548000Y-116586000D01*
X189230000Y-118364000D02*
X191770000Y-118364000D01*
X187452000Y-116586000D02*
X189230000Y-118364000D01*
X247396000Y-118364000D02*
X248412000Y-117348000D01*
X238506000Y-118364000D02*
X247396000Y-118364000D01*
X248412000Y-117348000D02*
X248412000Y-116586000D01*
X236728000Y-116586000D02*
X238506000Y-118364000D01*
X236220000Y-116586000D02*
X236728000Y-116586000D01*
X234442000Y-118364000D02*
X236220000Y-116586000D01*
X231902000Y-118364000D02*
X234442000Y-118364000D01*
X230124000Y-116586000D02*
X231902000Y-118364000D01*
X228346000Y-118364000D02*
X230124000Y-116586000D01*
X213614000Y-118364000D02*
X228346000Y-118364000D01*
X211836000Y-116586000D02*
X213614000Y-118364000D01*
X210058000Y-118364000D02*
X211836000Y-116586000D01*
X207518000Y-118364000D02*
X210058000Y-118364000D01*
X205740000Y-116586000D02*
X207518000Y-118364000D01*
D15*
%TO.N,D3*%
X256725500Y-118170000D02*
X255210000Y-118170000D01*
X252071500Y-121308500D02*
X251460000Y-121308500D01*
X255210000Y-118170000D02*
X252071500Y-121308500D01*
D16*
X243228500Y-121308500D02*
X242316000Y-120396000D01*
X251460000Y-121308500D02*
X243228500Y-121308500D01*
X231674001Y-121946001D02*
X230124000Y-120396000D01*
X240765999Y-121946001D02*
X231674001Y-121946001D01*
X242316000Y-120396000D02*
X240765999Y-121946001D01*
X228573999Y-121946001D02*
X219482001Y-121946001D01*
X219482001Y-121946001D02*
X217932000Y-120396000D01*
X230124000Y-120396000D02*
X228573999Y-121946001D01*
X195098001Y-121946001D02*
X193548000Y-120396000D01*
X210285999Y-121946001D02*
X195098001Y-121946001D01*
X211836000Y-120396000D02*
X210285999Y-121946001D01*
X182906001Y-121946001D02*
X181356000Y-120396000D01*
X191997999Y-121946001D02*
X182906001Y-121946001D01*
X193548000Y-120396000D02*
X191997999Y-121946001D01*
X213868000Y-122428000D02*
X211836000Y-120396000D01*
X215900000Y-122428000D02*
X213868000Y-122428000D01*
X217932000Y-120396000D02*
X215900000Y-122428000D01*
X179578000Y-122174000D02*
X170942000Y-122174000D01*
X170942000Y-122174000D02*
X169164000Y-120396000D01*
X181356000Y-120396000D02*
X179578000Y-122174000D01*
X158750000Y-122174000D02*
X156972000Y-120396000D01*
X167386000Y-122174000D02*
X158750000Y-122174000D01*
X169164000Y-120396000D02*
X167386000Y-122174000D01*
D15*
%TO.N,D4*%
X255988000Y-118820000D02*
X253746000Y-121062000D01*
X256725500Y-118820000D02*
X255988000Y-118820000D01*
X253746000Y-121062000D02*
X253746000Y-123444000D01*
X252071500Y-125118500D02*
X251460000Y-125118500D01*
X253746000Y-123444000D02*
X252071500Y-125118500D01*
D16*
X251460000Y-125118500D02*
X248308500Y-125118500D01*
X247396000Y-124206000D02*
X242316000Y-124206000D01*
X248308500Y-125118500D02*
X247396000Y-124206000D01*
X199644000Y-124206000D02*
X197866000Y-125984000D01*
X197866000Y-125984000D02*
X190754000Y-125984000D01*
X188976000Y-124206000D02*
X181356000Y-124206000D01*
X190754000Y-125984000D02*
X188976000Y-124206000D01*
X167386000Y-125984000D02*
X158750000Y-125984000D01*
X158750000Y-125984000D02*
X156972000Y-124206000D01*
X169164000Y-124206000D02*
X167386000Y-125984000D01*
X170942000Y-125984000D02*
X169164000Y-124206000D01*
X179578000Y-125984000D02*
X170942000Y-125984000D01*
X181356000Y-124206000D02*
X179578000Y-125984000D01*
X203962000Y-125984000D02*
X201422000Y-125984000D01*
X201422000Y-125984000D02*
X199644000Y-124206000D01*
X205740000Y-124206000D02*
X203962000Y-125984000D01*
X207518000Y-125984000D02*
X205740000Y-124206000D01*
X210058000Y-125984000D02*
X207518000Y-125984000D01*
X211836000Y-124206000D02*
X210058000Y-125984000D01*
X213614000Y-125984000D02*
X211836000Y-124206000D01*
X222250000Y-125984000D02*
X213614000Y-125984000D01*
X224028000Y-124206000D02*
X222250000Y-125984000D01*
X225806000Y-125984000D02*
X224028000Y-124206000D01*
X240538000Y-125984000D02*
X225806000Y-125984000D01*
X242316000Y-124206000D02*
X240538000Y-125984000D01*
D15*
%TO.N,Cn*%
X264892000Y-116870000D02*
X262450500Y-116870000D01*
X267208000Y-114554000D02*
X264892000Y-116870000D01*
%TO.N,Mode*%
X266782000Y-117520000D02*
X262450500Y-117520000D01*
X267208000Y-117094000D02*
X266782000Y-117520000D01*
%TO.N,F0*%
X265744000Y-118170000D02*
X262450500Y-118170000D01*
X267208000Y-119634000D02*
X265744000Y-118170000D01*
%TO.N,F1*%
X267208000Y-122174000D02*
X267208000Y-122045589D01*
X267208000Y-122045589D02*
X263982411Y-118820000D01*
X263982411Y-118820000D02*
X262450500Y-118820000D01*
%TO.N,F2*%
X267208000Y-124714000D02*
X265176000Y-122682000D01*
X265176000Y-122682000D02*
X265176000Y-120650000D01*
X263996000Y-119470000D02*
X262450500Y-119470000D01*
X265176000Y-120650000D02*
X263996000Y-119470000D01*
%TO.N,F3*%
X267208000Y-127254000D02*
X266446000Y-127254000D01*
X266446000Y-127254000D02*
X264668000Y-125476000D01*
X264668000Y-125476000D02*
X264668000Y-121158000D01*
X263630000Y-120120000D02*
X262450500Y-120120000D01*
X264668000Y-121158000D02*
X263630000Y-120120000D01*
%TD*%
D17*
%TO.N,VCC*%
X272898000Y-135484000D02*
X129946000Y-135484000D01*
X129946000Y-126340890D01*
X133686524Y-126340890D01*
X133731175Y-126488099D01*
X133856359Y-126750920D01*
X134030412Y-126984269D01*
X134246645Y-127179178D01*
X134496748Y-127328157D01*
X134771109Y-127425481D01*
X135001000Y-127304814D01*
X135001000Y-126111000D01*
X135255000Y-126111000D01*
X135255000Y-127304814D01*
X135484891Y-127425481D01*
X135759252Y-127328157D01*
X136009355Y-127179178D01*
X136225588Y-126984269D01*
X136399641Y-126750920D01*
X136524825Y-126488099D01*
X136569476Y-126340890D01*
X136448155Y-126111000D01*
X135255000Y-126111000D01*
X135001000Y-126111000D01*
X133807845Y-126111000D01*
X133686524Y-126340890D01*
X129946000Y-126340890D01*
X129946000Y-109894000D01*
X133639928Y-109894000D01*
X133639928Y-111594000D01*
X133652188Y-111718482D01*
X133688498Y-111838180D01*
X133747463Y-111948494D01*
X133826815Y-112045185D01*
X133923506Y-112124537D01*
X134033820Y-112183502D01*
X134106380Y-112205513D01*
X133974525Y-112337368D01*
X133812010Y-112580589D01*
X133700068Y-112850842D01*
X133643000Y-113137740D01*
X133643000Y-113430260D01*
X133700068Y-113717158D01*
X133812010Y-113987411D01*
X133974525Y-114230632D01*
X134181368Y-114437475D01*
X134355760Y-114554000D01*
X134181368Y-114670525D01*
X133974525Y-114877368D01*
X133812010Y-115120589D01*
X133700068Y-115390842D01*
X133643000Y-115677740D01*
X133643000Y-115970260D01*
X133700068Y-116257158D01*
X133812010Y-116527411D01*
X133974525Y-116770632D01*
X134181368Y-116977475D01*
X134355760Y-117094000D01*
X134181368Y-117210525D01*
X133974525Y-117417368D01*
X133812010Y-117660589D01*
X133700068Y-117930842D01*
X133643000Y-118217740D01*
X133643000Y-118510260D01*
X133700068Y-118797158D01*
X133812010Y-119067411D01*
X133974525Y-119310632D01*
X134181368Y-119517475D01*
X134355760Y-119634000D01*
X134181368Y-119750525D01*
X133974525Y-119957368D01*
X133812010Y-120200589D01*
X133700068Y-120470842D01*
X133643000Y-120757740D01*
X133643000Y-121050260D01*
X133700068Y-121337158D01*
X133812010Y-121607411D01*
X133974525Y-121850632D01*
X134181368Y-122057475D01*
X134355760Y-122174000D01*
X134181368Y-122290525D01*
X133974525Y-122497368D01*
X133812010Y-122740589D01*
X133700068Y-123010842D01*
X133643000Y-123297740D01*
X133643000Y-123590260D01*
X133700068Y-123877158D01*
X133812010Y-124147411D01*
X133974525Y-124390632D01*
X134181368Y-124597475D01*
X134363534Y-124719195D01*
X134246645Y-124788822D01*
X134030412Y-124983731D01*
X133856359Y-125217080D01*
X133731175Y-125479901D01*
X133686524Y-125627110D01*
X133807845Y-125857000D01*
X135001000Y-125857000D01*
X135001000Y-125837000D01*
X135255000Y-125837000D01*
X135255000Y-125857000D01*
X136448155Y-125857000D01*
X136557923Y-125649000D01*
X138466928Y-125649000D01*
X138479188Y-125773482D01*
X138515498Y-125893180D01*
X138574463Y-126003494D01*
X138653815Y-126100185D01*
X138750506Y-126179537D01*
X138860820Y-126238502D01*
X138980518Y-126274812D01*
X139105000Y-126287072D01*
X139844250Y-126284000D01*
X140003000Y-126125250D01*
X140003000Y-125476000D01*
X140257000Y-125476000D01*
X140257000Y-126125250D01*
X140415750Y-126284000D01*
X141155000Y-126287072D01*
X141279482Y-126274812D01*
X141399180Y-126238502D01*
X141509494Y-126179537D01*
X141606185Y-126100185D01*
X141685537Y-126003494D01*
X141744502Y-125893180D01*
X141780812Y-125773482D01*
X141793072Y-125649000D01*
X141790000Y-125634750D01*
X141631250Y-125476000D01*
X140257000Y-125476000D01*
X140003000Y-125476000D01*
X138628750Y-125476000D01*
X138470000Y-125634750D01*
X138466928Y-125649000D01*
X136557923Y-125649000D01*
X136569476Y-125627110D01*
X136524825Y-125479901D01*
X136399641Y-125217080D01*
X136225588Y-124983731D01*
X136009355Y-124788822D01*
X135892466Y-124719195D01*
X136074632Y-124597475D01*
X136281475Y-124390632D01*
X136443990Y-124147411D01*
X136555932Y-123877158D01*
X136613000Y-123590260D01*
X136613000Y-123463802D01*
X137739200Y-124590002D01*
X137762999Y-124619001D01*
X137791997Y-124642799D01*
X137878723Y-124713974D01*
X137967022Y-124761171D01*
X138010753Y-124784546D01*
X138154014Y-124828003D01*
X138265667Y-124839000D01*
X138265676Y-124839000D01*
X138302999Y-124842676D01*
X138340322Y-124839000D01*
X138505130Y-124839000D01*
X138479188Y-124924518D01*
X138466928Y-125049000D01*
X138470000Y-125063250D01*
X138628750Y-125222000D01*
X140003000Y-125222000D01*
X140003000Y-125202000D01*
X140257000Y-125202000D01*
X140257000Y-125222000D01*
X141631250Y-125222000D01*
X141790000Y-125063250D01*
X141793072Y-125049000D01*
X141780812Y-124924518D01*
X141744502Y-124804820D01*
X141685537Y-124694506D01*
X141661270Y-124664936D01*
X141733084Y-124530582D01*
X141777929Y-124382745D01*
X141793072Y-124229000D01*
X141793072Y-123929000D01*
X141777929Y-123775255D01*
X141733084Y-123627418D01*
X141660258Y-123491171D01*
X141621546Y-123444000D01*
X141660258Y-123396829D01*
X141733084Y-123260582D01*
X141777929Y-123112745D01*
X141793072Y-122959000D01*
X141793072Y-122659000D01*
X141777929Y-122505255D01*
X141733084Y-122357418D01*
X141660258Y-122221171D01*
X141621546Y-122174000D01*
X141660258Y-122126829D01*
X141733084Y-121990582D01*
X141777929Y-121842745D01*
X141793072Y-121689000D01*
X141793072Y-121389000D01*
X141777929Y-121235255D01*
X141733084Y-121087418D01*
X141660258Y-120951171D01*
X141621546Y-120904000D01*
X141660258Y-120856829D01*
X141733084Y-120720582D01*
X141777929Y-120572745D01*
X141793072Y-120419000D01*
X141793072Y-120119000D01*
X141777929Y-119965255D01*
X141733084Y-119817418D01*
X141660258Y-119681171D01*
X141621546Y-119634000D01*
X141660258Y-119586829D01*
X141733084Y-119450582D01*
X141777929Y-119302745D01*
X141793072Y-119149000D01*
X141793072Y-118849000D01*
X141777929Y-118695255D01*
X141733084Y-118547418D01*
X141660258Y-118411171D01*
X141621546Y-118364000D01*
X141660258Y-118316829D01*
X141733084Y-118180582D01*
X141777929Y-118032745D01*
X141793072Y-117879000D01*
X141793072Y-117579000D01*
X141777929Y-117425255D01*
X141733084Y-117277418D01*
X141660258Y-117141171D01*
X141621546Y-117094000D01*
X141660258Y-117046829D01*
X141733084Y-116910582D01*
X141777929Y-116762745D01*
X141793072Y-116609000D01*
X141793072Y-116309000D01*
X141777929Y-116155255D01*
X141733084Y-116007418D01*
X141660258Y-115871171D01*
X141621546Y-115824000D01*
X141660258Y-115776829D01*
X141733084Y-115640582D01*
X141777929Y-115492745D01*
X141793072Y-115339000D01*
X141793072Y-115039000D01*
X141777929Y-114885255D01*
X141733084Y-114737418D01*
X141660258Y-114601171D01*
X141621546Y-114554000D01*
X141660258Y-114506829D01*
X141733084Y-114370582D01*
X141777929Y-114222745D01*
X141793072Y-114069000D01*
X141793072Y-113769000D01*
X141777929Y-113615255D01*
X141733084Y-113467418D01*
X141660258Y-113331171D01*
X141621546Y-113284000D01*
X141660258Y-113236829D01*
X141733084Y-113100582D01*
X141777929Y-112952745D01*
X141793072Y-112799000D01*
X141793072Y-112499000D01*
X141777929Y-112345255D01*
X141733084Y-112197418D01*
X141660258Y-112061171D01*
X141621546Y-112014000D01*
X141660258Y-111966829D01*
X141733084Y-111830582D01*
X141777929Y-111682745D01*
X141793072Y-111529000D01*
X141793072Y-111229000D01*
X141777929Y-111075255D01*
X141733084Y-110927418D01*
X141660258Y-110791171D01*
X141562251Y-110671749D01*
X141442829Y-110573742D01*
X141306582Y-110500916D01*
X141158745Y-110456071D01*
X141005000Y-110440928D01*
X140720004Y-110440928D01*
X140670001Y-110379999D01*
X140641003Y-110356201D01*
X139952000Y-109667199D01*
X139952000Y-108518801D01*
X142554802Y-105916000D01*
X217363199Y-105916000D01*
X218675127Y-107227928D01*
X216832000Y-107227928D01*
X216707518Y-107240188D01*
X216587820Y-107276498D01*
X216477506Y-107335463D01*
X216380815Y-107414815D01*
X216314443Y-107495690D01*
X216213831Y-107428463D01*
X215898081Y-107297675D01*
X215562883Y-107231000D01*
X215221117Y-107231000D01*
X214885919Y-107297675D01*
X214570169Y-107428463D01*
X214286002Y-107618337D01*
X214044337Y-107860002D01*
X213854463Y-108144169D01*
X213723675Y-108459919D01*
X213657000Y-108795117D01*
X213657000Y-109136883D01*
X213723675Y-109472081D01*
X213815610Y-109694031D01*
X213574072Y-109452493D01*
X213574072Y-107866000D01*
X213561812Y-107741518D01*
X213525502Y-107621820D01*
X213466537Y-107511506D01*
X213387185Y-107414815D01*
X213290494Y-107335463D01*
X213180180Y-107276498D01*
X213060482Y-107240188D01*
X212936000Y-107227928D01*
X210736000Y-107227928D01*
X210611518Y-107240188D01*
X210491820Y-107276498D01*
X210381506Y-107335463D01*
X210284815Y-107414815D01*
X210218443Y-107495690D01*
X210117831Y-107428463D01*
X209802081Y-107297675D01*
X209466883Y-107231000D01*
X209125117Y-107231000D01*
X208789919Y-107297675D01*
X208474169Y-107428463D01*
X208190002Y-107618337D01*
X207948337Y-107860002D01*
X207758463Y-108144169D01*
X207627675Y-108459919D01*
X207561000Y-108795117D01*
X207561000Y-109136883D01*
X207627675Y-109472081D01*
X207719610Y-109694031D01*
X207478072Y-109452493D01*
X207478072Y-107866000D01*
X207465812Y-107741518D01*
X207429502Y-107621820D01*
X207370537Y-107511506D01*
X207291185Y-107414815D01*
X207194494Y-107335463D01*
X207084180Y-107276498D01*
X206964482Y-107240188D01*
X206840000Y-107227928D01*
X204640000Y-107227928D01*
X204515518Y-107240188D01*
X204395820Y-107276498D01*
X204285506Y-107335463D01*
X204188815Y-107414815D01*
X204122443Y-107495690D01*
X204021831Y-107428463D01*
X203706081Y-107297675D01*
X203370883Y-107231000D01*
X203029117Y-107231000D01*
X202693919Y-107297675D01*
X202378169Y-107428463D01*
X202094002Y-107618337D01*
X201852337Y-107860002D01*
X201662463Y-108144169D01*
X201531675Y-108459919D01*
X201465000Y-108795117D01*
X201465000Y-109136883D01*
X201531675Y-109472081D01*
X201623610Y-109694031D01*
X201382072Y-109452493D01*
X201382072Y-107866000D01*
X201369812Y-107741518D01*
X201333502Y-107621820D01*
X201274537Y-107511506D01*
X201195185Y-107414815D01*
X201098494Y-107335463D01*
X200988180Y-107276498D01*
X200868482Y-107240188D01*
X200744000Y-107227928D01*
X198544000Y-107227928D01*
X198419518Y-107240188D01*
X198299820Y-107276498D01*
X198189506Y-107335463D01*
X198092815Y-107414815D01*
X198026443Y-107495690D01*
X197925831Y-107428463D01*
X197610081Y-107297675D01*
X197274883Y-107231000D01*
X196933117Y-107231000D01*
X196597919Y-107297675D01*
X196282169Y-107428463D01*
X195998002Y-107618337D01*
X195756337Y-107860002D01*
X195566463Y-108144169D01*
X195435675Y-108459919D01*
X195369000Y-108795117D01*
X195369000Y-109136883D01*
X195435675Y-109472081D01*
X195527610Y-109694031D01*
X195286072Y-109452493D01*
X195286072Y-107866000D01*
X195273812Y-107741518D01*
X195237502Y-107621820D01*
X195178537Y-107511506D01*
X195099185Y-107414815D01*
X195002494Y-107335463D01*
X194892180Y-107276498D01*
X194772482Y-107240188D01*
X194648000Y-107227928D01*
X192448000Y-107227928D01*
X192323518Y-107240188D01*
X192203820Y-107276498D01*
X192093506Y-107335463D01*
X191996815Y-107414815D01*
X191930443Y-107495690D01*
X191829831Y-107428463D01*
X191514081Y-107297675D01*
X191178883Y-107231000D01*
X190837117Y-107231000D01*
X190501919Y-107297675D01*
X190186169Y-107428463D01*
X189902002Y-107618337D01*
X189660337Y-107860002D01*
X189470463Y-108144169D01*
X189339675Y-108459919D01*
X189273000Y-108795117D01*
X189273000Y-109136883D01*
X189339675Y-109472081D01*
X189431610Y-109694031D01*
X189190072Y-109452493D01*
X189190072Y-107866000D01*
X189177812Y-107741518D01*
X189141502Y-107621820D01*
X189082537Y-107511506D01*
X189003185Y-107414815D01*
X188906494Y-107335463D01*
X188796180Y-107276498D01*
X188676482Y-107240188D01*
X188552000Y-107227928D01*
X186352000Y-107227928D01*
X186227518Y-107240188D01*
X186107820Y-107276498D01*
X185997506Y-107335463D01*
X185900815Y-107414815D01*
X185834443Y-107495690D01*
X185733831Y-107428463D01*
X185418081Y-107297675D01*
X185082883Y-107231000D01*
X184741117Y-107231000D01*
X184405919Y-107297675D01*
X184090169Y-107428463D01*
X183806002Y-107618337D01*
X183564337Y-107860002D01*
X183374463Y-108144169D01*
X183243675Y-108459919D01*
X183177000Y-108795117D01*
X183177000Y-109136883D01*
X183243675Y-109472081D01*
X183335610Y-109694031D01*
X183094072Y-109452493D01*
X183094072Y-107866000D01*
X183081812Y-107741518D01*
X183045502Y-107621820D01*
X182986537Y-107511506D01*
X182907185Y-107414815D01*
X182810494Y-107335463D01*
X182700180Y-107276498D01*
X182580482Y-107240188D01*
X182456000Y-107227928D01*
X180256000Y-107227928D01*
X180131518Y-107240188D01*
X180011820Y-107276498D01*
X179901506Y-107335463D01*
X179804815Y-107414815D01*
X179738443Y-107495690D01*
X179637831Y-107428463D01*
X179322081Y-107297675D01*
X178986883Y-107231000D01*
X178645117Y-107231000D01*
X178309919Y-107297675D01*
X177994169Y-107428463D01*
X177710002Y-107618337D01*
X177468337Y-107860002D01*
X177278463Y-108144169D01*
X177147675Y-108459919D01*
X177081000Y-108795117D01*
X177081000Y-109136883D01*
X177147675Y-109472081D01*
X177239610Y-109694031D01*
X176998072Y-109452493D01*
X176998072Y-107866000D01*
X176985812Y-107741518D01*
X176949502Y-107621820D01*
X176890537Y-107511506D01*
X176811185Y-107414815D01*
X176714494Y-107335463D01*
X176604180Y-107276498D01*
X176484482Y-107240188D01*
X176360000Y-107227928D01*
X174160000Y-107227928D01*
X174035518Y-107240188D01*
X173915820Y-107276498D01*
X173805506Y-107335463D01*
X173708815Y-107414815D01*
X173642443Y-107495690D01*
X173541831Y-107428463D01*
X173226081Y-107297675D01*
X172890883Y-107231000D01*
X172549117Y-107231000D01*
X172213919Y-107297675D01*
X171898169Y-107428463D01*
X171614002Y-107618337D01*
X171372337Y-107860002D01*
X171182463Y-108144169D01*
X171051675Y-108459919D01*
X170985000Y-108795117D01*
X170985000Y-109136883D01*
X171051675Y-109472081D01*
X171143610Y-109694031D01*
X170902072Y-109452493D01*
X170902072Y-107866000D01*
X170889812Y-107741518D01*
X170853502Y-107621820D01*
X170794537Y-107511506D01*
X170715185Y-107414815D01*
X170618494Y-107335463D01*
X170508180Y-107276498D01*
X170388482Y-107240188D01*
X170264000Y-107227928D01*
X168064000Y-107227928D01*
X167939518Y-107240188D01*
X167819820Y-107276498D01*
X167709506Y-107335463D01*
X167612815Y-107414815D01*
X167546443Y-107495690D01*
X167445831Y-107428463D01*
X167130081Y-107297675D01*
X166794883Y-107231000D01*
X166453117Y-107231000D01*
X166117919Y-107297675D01*
X165802169Y-107428463D01*
X165518002Y-107618337D01*
X165276337Y-107860002D01*
X165086463Y-108144169D01*
X164955675Y-108459919D01*
X164889000Y-108795117D01*
X164889000Y-109136883D01*
X164955675Y-109472081D01*
X165021502Y-109631001D01*
X158888580Y-109631001D01*
X158710072Y-109452493D01*
X158710072Y-107866000D01*
X158697812Y-107741518D01*
X158661502Y-107621820D01*
X158602537Y-107511506D01*
X158523185Y-107414815D01*
X158426494Y-107335463D01*
X158316180Y-107276498D01*
X158196482Y-107240188D01*
X158072000Y-107227928D01*
X155872000Y-107227928D01*
X155747518Y-107240188D01*
X155627820Y-107276498D01*
X155517506Y-107335463D01*
X155420815Y-107414815D01*
X155354443Y-107495690D01*
X155253831Y-107428463D01*
X154938081Y-107297675D01*
X154602883Y-107231000D01*
X154261117Y-107231000D01*
X153925919Y-107297675D01*
X153610169Y-107428463D01*
X153326002Y-107618337D01*
X153084337Y-107860002D01*
X152894463Y-108144169D01*
X152763675Y-108459919D01*
X152697000Y-108795117D01*
X152697000Y-109136883D01*
X152763675Y-109472081D01*
X152894463Y-109787831D01*
X153084337Y-110071998D01*
X153326002Y-110313663D01*
X153610169Y-110503537D01*
X153925919Y-110634325D01*
X154261117Y-110701000D01*
X154602883Y-110701000D01*
X154938081Y-110634325D01*
X155253831Y-110503537D01*
X155354443Y-110436310D01*
X155420815Y-110517185D01*
X155517506Y-110596537D01*
X155627820Y-110655502D01*
X155747518Y-110691812D01*
X155872000Y-110704072D01*
X157458493Y-110704072D01*
X157792349Y-111037928D01*
X155872000Y-111037928D01*
X155747518Y-111050188D01*
X155627820Y-111086498D01*
X155517506Y-111145463D01*
X155420815Y-111224815D01*
X155354443Y-111305690D01*
X155253831Y-111238463D01*
X154938081Y-111107675D01*
X154602883Y-111041000D01*
X154261117Y-111041000D01*
X153925919Y-111107675D01*
X153610169Y-111238463D01*
X153326002Y-111428337D01*
X153084337Y-111670002D01*
X152894463Y-111954169D01*
X152763675Y-112269919D01*
X152697000Y-112605117D01*
X152697000Y-112946883D01*
X152763675Y-113282081D01*
X152894463Y-113597831D01*
X153084337Y-113881998D01*
X153326002Y-114123663D01*
X153610169Y-114313537D01*
X153925919Y-114444325D01*
X154261117Y-114511000D01*
X154602883Y-114511000D01*
X154938081Y-114444325D01*
X155253831Y-114313537D01*
X155354443Y-114246310D01*
X155420815Y-114327185D01*
X155517506Y-114406537D01*
X155627820Y-114465502D01*
X155747518Y-114501812D01*
X155872000Y-114514072D01*
X157458493Y-114514072D01*
X157792349Y-114847928D01*
X155872000Y-114847928D01*
X155747518Y-114860188D01*
X155627820Y-114896498D01*
X155517506Y-114955463D01*
X155420815Y-115034815D01*
X155354443Y-115115690D01*
X155253831Y-115048463D01*
X154938081Y-114917675D01*
X154602883Y-114851000D01*
X154261117Y-114851000D01*
X153925919Y-114917675D01*
X153610169Y-115048463D01*
X153326002Y-115238337D01*
X153084337Y-115480002D01*
X152894463Y-115764169D01*
X152763675Y-116079919D01*
X152697000Y-116415117D01*
X152697000Y-116756883D01*
X152763675Y-117092081D01*
X152894463Y-117407831D01*
X153084337Y-117691998D01*
X153326002Y-117933663D01*
X153610169Y-118123537D01*
X153925919Y-118254325D01*
X154261117Y-118321000D01*
X154602883Y-118321000D01*
X154938081Y-118254325D01*
X155253831Y-118123537D01*
X155354443Y-118056310D01*
X155420815Y-118137185D01*
X155517506Y-118216537D01*
X155627820Y-118275502D01*
X155747518Y-118311812D01*
X155872000Y-118324072D01*
X157458493Y-118324072D01*
X157792349Y-118657928D01*
X155872000Y-118657928D01*
X155747518Y-118670188D01*
X155627820Y-118706498D01*
X155517506Y-118765463D01*
X155420815Y-118844815D01*
X155354443Y-118925690D01*
X155253831Y-118858463D01*
X154938081Y-118727675D01*
X154602883Y-118661000D01*
X154261117Y-118661000D01*
X153925919Y-118727675D01*
X153610169Y-118858463D01*
X153326002Y-119048337D01*
X153084337Y-119290002D01*
X152894463Y-119574169D01*
X152763675Y-119889919D01*
X152697000Y-120225117D01*
X152697000Y-120566883D01*
X152763675Y-120902081D01*
X152894463Y-121217831D01*
X153084337Y-121501998D01*
X153326002Y-121743663D01*
X153610169Y-121933537D01*
X153925919Y-122064325D01*
X154261117Y-122131000D01*
X154602883Y-122131000D01*
X154938081Y-122064325D01*
X155253831Y-121933537D01*
X155354443Y-121866310D01*
X155420815Y-121947185D01*
X155517506Y-122026537D01*
X155627820Y-122085502D01*
X155747518Y-122121812D01*
X155872000Y-122134072D01*
X157458493Y-122134072D01*
X157792349Y-122467928D01*
X155872000Y-122467928D01*
X155747518Y-122480188D01*
X155627820Y-122516498D01*
X155517506Y-122575463D01*
X155420815Y-122654815D01*
X155354443Y-122735690D01*
X155253831Y-122668463D01*
X154938081Y-122537675D01*
X154602883Y-122471000D01*
X154261117Y-122471000D01*
X153925919Y-122537675D01*
X153610169Y-122668463D01*
X153326002Y-122858337D01*
X153084337Y-123100002D01*
X152894463Y-123384169D01*
X152763675Y-123699919D01*
X152697000Y-124035117D01*
X152697000Y-124376883D01*
X152763675Y-124712081D01*
X152894463Y-125027831D01*
X153084337Y-125311998D01*
X153326002Y-125553663D01*
X153610169Y-125743537D01*
X153925919Y-125874325D01*
X154261117Y-125941000D01*
X154602883Y-125941000D01*
X154938081Y-125874325D01*
X155253831Y-125743537D01*
X155354443Y-125676310D01*
X155420815Y-125757185D01*
X155517506Y-125836537D01*
X155627820Y-125895502D01*
X155747518Y-125931812D01*
X155872000Y-125944072D01*
X157458493Y-125944072D01*
X157792349Y-126277928D01*
X155872000Y-126277928D01*
X155747518Y-126290188D01*
X155627820Y-126326498D01*
X155517506Y-126385463D01*
X155420815Y-126464815D01*
X155354443Y-126545690D01*
X155253831Y-126478463D01*
X154938081Y-126347675D01*
X154602883Y-126281000D01*
X154261117Y-126281000D01*
X153925919Y-126347675D01*
X153610169Y-126478463D01*
X153326002Y-126668337D01*
X153084337Y-126910002D01*
X152894463Y-127194169D01*
X152868852Y-127256000D01*
X152411802Y-127256000D01*
X151006367Y-125850566D01*
X151033084Y-125800582D01*
X151077929Y-125652745D01*
X151093072Y-125499000D01*
X151093072Y-125199000D01*
X151077929Y-125045255D01*
X151033084Y-124897418D01*
X150960258Y-124761171D01*
X150921546Y-124714000D01*
X150960258Y-124666829D01*
X151033084Y-124530582D01*
X151077929Y-124382745D01*
X151093072Y-124229000D01*
X151093072Y-123929000D01*
X151077929Y-123775255D01*
X151033084Y-123627418D01*
X150960258Y-123491171D01*
X150921546Y-123444000D01*
X150960258Y-123396829D01*
X151033084Y-123260582D01*
X151077929Y-123112745D01*
X151093072Y-122959000D01*
X151093072Y-122659000D01*
X151077929Y-122505255D01*
X151033084Y-122357418D01*
X150960258Y-122221171D01*
X150921546Y-122174000D01*
X150960258Y-122126829D01*
X151033084Y-121990582D01*
X151077929Y-121842745D01*
X151093072Y-121689000D01*
X151093072Y-121389000D01*
X151077929Y-121235255D01*
X151033084Y-121087418D01*
X150960258Y-120951171D01*
X150921546Y-120904000D01*
X150960258Y-120856829D01*
X151033084Y-120720582D01*
X151077929Y-120572745D01*
X151093072Y-120419000D01*
X151093072Y-120119000D01*
X151077929Y-119965255D01*
X151033084Y-119817418D01*
X150960258Y-119681171D01*
X150921546Y-119634000D01*
X150960258Y-119586829D01*
X151033084Y-119450582D01*
X151077929Y-119302745D01*
X151093072Y-119149000D01*
X151093072Y-118849000D01*
X151077929Y-118695255D01*
X151033084Y-118547418D01*
X150960258Y-118411171D01*
X150921546Y-118364000D01*
X150960258Y-118316829D01*
X151033084Y-118180582D01*
X151077929Y-118032745D01*
X151093072Y-117879000D01*
X151093072Y-117579000D01*
X151077929Y-117425255D01*
X151033084Y-117277418D01*
X150960258Y-117141171D01*
X150921546Y-117094000D01*
X150960258Y-117046829D01*
X151033084Y-116910582D01*
X151077929Y-116762745D01*
X151093072Y-116609000D01*
X151093072Y-116309000D01*
X151077929Y-116155255D01*
X151033084Y-116007418D01*
X150960258Y-115871171D01*
X150921546Y-115824000D01*
X150960258Y-115776829D01*
X151033084Y-115640582D01*
X151077929Y-115492745D01*
X151093072Y-115339000D01*
X151093072Y-115039000D01*
X151077929Y-114885255D01*
X151033084Y-114737418D01*
X150960258Y-114601171D01*
X150921546Y-114554000D01*
X150960258Y-114506829D01*
X151033084Y-114370582D01*
X151077929Y-114222745D01*
X151093072Y-114069000D01*
X151093072Y-113769000D01*
X151077929Y-113615255D01*
X151033084Y-113467418D01*
X150960258Y-113331171D01*
X150921546Y-113284000D01*
X150960258Y-113236829D01*
X151033084Y-113100582D01*
X151077929Y-112952745D01*
X151093072Y-112799000D01*
X151093072Y-112499000D01*
X151077929Y-112345255D01*
X151033084Y-112197418D01*
X150960258Y-112061171D01*
X150921546Y-112014000D01*
X150960258Y-111966829D01*
X151033084Y-111830582D01*
X151077929Y-111682745D01*
X151093072Y-111529000D01*
X151093072Y-111229000D01*
X151077929Y-111075255D01*
X151033084Y-110927418D01*
X150960258Y-110791171D01*
X150862251Y-110671749D01*
X150742829Y-110573742D01*
X150606582Y-110500916D01*
X150458745Y-110456071D01*
X150305000Y-110440928D01*
X150190000Y-110440928D01*
X150190000Y-109747711D01*
X150233937Y-109703774D01*
X150347205Y-109534256D01*
X150425226Y-109345898D01*
X150465000Y-109145939D01*
X150465000Y-108942061D01*
X150425226Y-108742102D01*
X150347205Y-108553744D01*
X150233937Y-108384226D01*
X150089774Y-108240063D01*
X149920256Y-108126795D01*
X149731898Y-108048774D01*
X149531939Y-108009000D01*
X149328061Y-108009000D01*
X149128102Y-108048774D01*
X148939744Y-108126795D01*
X148770226Y-108240063D01*
X148626063Y-108384226D01*
X148512795Y-108553744D01*
X148434774Y-108742102D01*
X148395000Y-108942061D01*
X148395000Y-109145939D01*
X148434774Y-109345898D01*
X148512795Y-109534256D01*
X148626063Y-109703774D01*
X148670001Y-109747712D01*
X148670000Y-110440928D01*
X148555000Y-110440928D01*
X148401255Y-110456071D01*
X148253418Y-110500916D01*
X148117171Y-110573742D01*
X147997749Y-110671749D01*
X147899742Y-110791171D01*
X147826916Y-110927418D01*
X147782071Y-111075255D01*
X147766928Y-111229000D01*
X147766928Y-111529000D01*
X147782071Y-111682745D01*
X147826916Y-111830582D01*
X147893804Y-111955720D01*
X147784724Y-112014026D01*
X147668999Y-112108999D01*
X147645201Y-112137997D01*
X143253003Y-116530196D01*
X143223999Y-116553999D01*
X143179651Y-116608038D01*
X143129026Y-116669724D01*
X143094229Y-116734824D01*
X143058454Y-116801754D01*
X143014997Y-116945015D01*
X143004000Y-117056668D01*
X143004000Y-117056678D01*
X143000324Y-117094000D01*
X143004000Y-117131322D01*
X143004001Y-126962668D01*
X143000324Y-127000000D01*
X143004001Y-127037333D01*
X143014998Y-127148986D01*
X143026524Y-127186983D01*
X143058454Y-127292246D01*
X143059979Y-127295099D01*
X143058315Y-127311991D01*
X143061992Y-127349321D01*
X143061992Y-127349326D01*
X143072989Y-127460979D01*
X143091195Y-127520997D01*
X143116445Y-127604237D01*
X143187017Y-127736267D01*
X143257103Y-127821666D01*
X143281993Y-127851994D01*
X143310990Y-127875791D01*
X149550205Y-134115008D01*
X149573999Y-134144001D01*
X149602992Y-134167795D01*
X149602996Y-134167799D01*
X149673685Y-134225811D01*
X149689724Y-134238974D01*
X149821753Y-134309546D01*
X149965014Y-134353003D01*
X150076667Y-134364000D01*
X150076676Y-134364000D01*
X150113999Y-134367676D01*
X150151322Y-134364000D01*
X209766678Y-134364000D01*
X209804000Y-134367676D01*
X209841322Y-134364000D01*
X209841333Y-134364000D01*
X209952986Y-134353003D01*
X210096247Y-134309546D01*
X210228276Y-134238974D01*
X210344001Y-134144001D01*
X210367804Y-134114997D01*
X214824089Y-129658714D01*
X214885919Y-129684325D01*
X215221117Y-129751000D01*
X215562883Y-129751000D01*
X215898081Y-129684325D01*
X216213831Y-129553537D01*
X216314443Y-129486310D01*
X216380815Y-129567185D01*
X216477506Y-129646537D01*
X216587820Y-129705502D01*
X216707518Y-129741812D01*
X216832000Y-129754072D01*
X219032000Y-129754072D01*
X219156482Y-129741812D01*
X219276180Y-129705502D01*
X219386494Y-129646537D01*
X219483185Y-129567185D01*
X219562537Y-129470494D01*
X219621502Y-129360180D01*
X219657812Y-129240482D01*
X219670072Y-129116000D01*
X219670072Y-126916000D01*
X219665443Y-126869000D01*
X222206531Y-126869000D01*
X222250000Y-126873281D01*
X222293469Y-126869000D01*
X222293477Y-126869000D01*
X222423490Y-126856195D01*
X222590313Y-126805589D01*
X222744059Y-126723411D01*
X222878817Y-126612817D01*
X222906534Y-126579044D01*
X223541506Y-125944072D01*
X224514493Y-125944072D01*
X225149470Y-126579049D01*
X225177183Y-126612817D01*
X225210951Y-126640530D01*
X225210953Y-126640532D01*
X225311940Y-126723410D01*
X225311941Y-126723411D01*
X225465687Y-126805589D01*
X225632510Y-126856195D01*
X225762523Y-126869000D01*
X225762531Y-126869000D01*
X225806000Y-126873281D01*
X225849469Y-126869000D01*
X226277339Y-126869000D01*
X226236337Y-126910002D01*
X226046463Y-127194169D01*
X225915675Y-127509919D01*
X225849000Y-127845117D01*
X225849000Y-128186883D01*
X225915675Y-128522081D01*
X226046463Y-128837831D01*
X226236337Y-129121998D01*
X226478002Y-129363663D01*
X226762169Y-129553537D01*
X227077919Y-129684325D01*
X227413117Y-129751000D01*
X227754883Y-129751000D01*
X228090081Y-129684325D01*
X228405831Y-129553537D01*
X228506443Y-129486310D01*
X228572815Y-129567185D01*
X228669506Y-129646537D01*
X228779820Y-129705502D01*
X228899518Y-129741812D01*
X229024000Y-129754072D01*
X231224000Y-129754072D01*
X231348482Y-129741812D01*
X231468180Y-129705502D01*
X231578494Y-129646537D01*
X231675185Y-129567185D01*
X231754537Y-129470494D01*
X231813502Y-129360180D01*
X231849812Y-129240482D01*
X231862072Y-129116000D01*
X231862072Y-126916000D01*
X231857443Y-126869000D01*
X238469339Y-126869000D01*
X238428337Y-126910002D01*
X238238463Y-127194169D01*
X238107675Y-127509919D01*
X238041000Y-127845117D01*
X238041000Y-128186883D01*
X238107675Y-128522081D01*
X238238463Y-128837831D01*
X238428337Y-129121998D01*
X238670002Y-129363663D01*
X238954169Y-129553537D01*
X239269919Y-129684325D01*
X239605117Y-129751000D01*
X239946883Y-129751000D01*
X240282081Y-129684325D01*
X240597831Y-129553537D01*
X240698443Y-129486310D01*
X240764815Y-129567185D01*
X240861506Y-129646537D01*
X240971820Y-129705502D01*
X241091518Y-129741812D01*
X241216000Y-129754072D01*
X243416000Y-129754072D01*
X243540482Y-129741812D01*
X243660180Y-129705502D01*
X243770494Y-129646537D01*
X243867185Y-129567185D01*
X243946537Y-129470494D01*
X244005502Y-129360180D01*
X244041812Y-129240482D01*
X244054072Y-129116000D01*
X244054072Y-126916000D01*
X244041812Y-126791518D01*
X244005502Y-126671820D01*
X243946537Y-126561506D01*
X243867185Y-126464815D01*
X243770494Y-126385463D01*
X243660180Y-126326498D01*
X243540482Y-126290188D01*
X243416000Y-126277928D01*
X241495650Y-126277928D01*
X241829506Y-125944072D01*
X243416000Y-125944072D01*
X243540482Y-125931812D01*
X243660180Y-125895502D01*
X243770494Y-125836537D01*
X243867185Y-125757185D01*
X243946537Y-125660494D01*
X244005502Y-125550180D01*
X244041812Y-125430482D01*
X244054072Y-125306000D01*
X244054072Y-125091000D01*
X247029422Y-125091000D01*
X247651970Y-125713549D01*
X247679683Y-125747317D01*
X247713451Y-125775030D01*
X247713453Y-125775032D01*
X247788397Y-125836537D01*
X247814441Y-125857911D01*
X247968187Y-125940089D01*
X248135010Y-125990695D01*
X248265023Y-126003500D01*
X248265031Y-126003500D01*
X248308500Y-126007781D01*
X248351969Y-126003500D01*
X250377555Y-126003500D01*
X250382038Y-126008962D01*
X250429297Y-126047746D01*
X250405506Y-126060463D01*
X250308815Y-126139815D01*
X250229463Y-126236506D01*
X250170498Y-126346820D01*
X250134188Y-126466518D01*
X250121928Y-126591000D01*
X250124029Y-126746082D01*
X250101502Y-126671820D01*
X250042537Y-126561506D01*
X249963185Y-126464815D01*
X249866494Y-126385463D01*
X249756180Y-126326498D01*
X249636482Y-126290188D01*
X249512000Y-126277928D01*
X247312000Y-126277928D01*
X247187518Y-126290188D01*
X247067820Y-126326498D01*
X246957506Y-126385463D01*
X246860815Y-126464815D01*
X246794443Y-126545690D01*
X246693831Y-126478463D01*
X246378081Y-126347675D01*
X246042883Y-126281000D01*
X245701117Y-126281000D01*
X245365919Y-126347675D01*
X245050169Y-126478463D01*
X244766002Y-126668337D01*
X244524337Y-126910002D01*
X244334463Y-127194169D01*
X244203675Y-127509919D01*
X244137000Y-127845117D01*
X244137000Y-128186883D01*
X244203675Y-128522081D01*
X244334463Y-128837831D01*
X244524337Y-129121998D01*
X244766002Y-129363663D01*
X245050169Y-129553537D01*
X245365919Y-129684325D01*
X245701117Y-129751000D01*
X246042883Y-129751000D01*
X246378081Y-129684325D01*
X246693831Y-129553537D01*
X246794443Y-129486310D01*
X246860815Y-129567185D01*
X246957506Y-129646537D01*
X247067820Y-129705502D01*
X247187518Y-129741812D01*
X247312000Y-129754072D01*
X249512000Y-129754072D01*
X249636482Y-129741812D01*
X249756180Y-129705502D01*
X249838579Y-129661458D01*
X249846441Y-129667911D01*
X250000187Y-129750089D01*
X250167010Y-129800695D01*
X250297023Y-129813500D01*
X250297031Y-129813500D01*
X250340500Y-129817781D01*
X250378035Y-129814084D01*
X250382038Y-129818962D01*
X250516613Y-129929405D01*
X250670148Y-130011472D01*
X250836744Y-130062008D01*
X251009998Y-130079072D01*
X251910002Y-130079072D01*
X252083256Y-130062008D01*
X252249852Y-130011472D01*
X252403387Y-129929405D01*
X252537962Y-129818962D01*
X252648405Y-129684387D01*
X252730472Y-129530852D01*
X252781008Y-129364256D01*
X252798072Y-129191002D01*
X252798072Y-128665998D01*
X252798003Y-128665298D01*
X254765003Y-126698299D01*
X254794001Y-126674501D01*
X254888974Y-126558776D01*
X254959546Y-126426747D01*
X255003003Y-126283486D01*
X255014000Y-126171833D01*
X255014000Y-126171825D01*
X255017676Y-126134500D01*
X255014000Y-126097175D01*
X255014000Y-121518801D01*
X255367296Y-121165505D01*
X255364110Y-121176009D01*
X255349928Y-121320000D01*
X255349928Y-121520000D01*
X255364110Y-121663991D01*
X255406110Y-121802448D01*
X255474316Y-121930051D01*
X255566104Y-122041896D01*
X255677949Y-122133684D01*
X255805552Y-122201890D01*
X255944009Y-122243890D01*
X255965500Y-122246007D01*
X255965501Y-122417788D01*
X255921563Y-122461726D01*
X255808295Y-122631244D01*
X255730274Y-122819602D01*
X255690500Y-123019561D01*
X255690500Y-123223439D01*
X255730274Y-123423398D01*
X255808295Y-123611756D01*
X255921563Y-123781274D01*
X256065726Y-123925437D01*
X256235244Y-124038705D01*
X256423602Y-124116726D01*
X256623561Y-124156500D01*
X256827439Y-124156500D01*
X257027398Y-124116726D01*
X257215756Y-124038705D01*
X257385274Y-123925437D01*
X257529437Y-123781274D01*
X257642705Y-123611756D01*
X257720726Y-123423398D01*
X257760500Y-123223439D01*
X257760500Y-123019561D01*
X257720726Y-122819602D01*
X257642705Y-122631244D01*
X257529437Y-122461726D01*
X257485500Y-122417789D01*
X257485500Y-122246007D01*
X257506991Y-122243890D01*
X257645448Y-122201890D01*
X257773051Y-122133684D01*
X257884896Y-122041896D01*
X257976684Y-121930051D01*
X258044890Y-121802448D01*
X258086890Y-121663991D01*
X258101072Y-121520000D01*
X258101072Y-121320000D01*
X258086890Y-121176009D01*
X258062316Y-121095000D01*
X258086890Y-121013991D01*
X258101072Y-120870000D01*
X258101072Y-120670000D01*
X258086890Y-120526009D01*
X258062316Y-120445000D01*
X258086890Y-120363991D01*
X258101072Y-120220000D01*
X258101072Y-120020000D01*
X258086890Y-119876009D01*
X258062316Y-119795000D01*
X258086890Y-119713991D01*
X258101072Y-119570000D01*
X258101072Y-119370000D01*
X258086890Y-119226009D01*
X258062316Y-119145000D01*
X258086890Y-119063991D01*
X258101072Y-118920000D01*
X258101072Y-118720000D01*
X258086890Y-118576009D01*
X258062316Y-118495000D01*
X258086890Y-118413991D01*
X258101072Y-118270000D01*
X258101072Y-118070000D01*
X258086890Y-117926009D01*
X258062316Y-117845000D01*
X258086890Y-117763991D01*
X258101072Y-117620000D01*
X258101072Y-117420000D01*
X258086890Y-117276009D01*
X258062316Y-117195000D01*
X258086890Y-117113991D01*
X258101072Y-116970000D01*
X258101072Y-116770000D01*
X258086890Y-116626009D01*
X258062316Y-116545000D01*
X258086890Y-116463991D01*
X258101072Y-116320000D01*
X258101072Y-116120000D01*
X261074928Y-116120000D01*
X261074928Y-116320000D01*
X261089110Y-116463991D01*
X261113684Y-116545000D01*
X261089110Y-116626009D01*
X261074928Y-116770000D01*
X261074928Y-116970000D01*
X261089110Y-117113991D01*
X261113684Y-117195000D01*
X261089110Y-117276009D01*
X261074928Y-117420000D01*
X261074928Y-117620000D01*
X261089110Y-117763991D01*
X261113684Y-117845000D01*
X261089110Y-117926009D01*
X261074928Y-118070000D01*
X261074928Y-118270000D01*
X261089110Y-118413991D01*
X261113684Y-118495000D01*
X261089110Y-118576009D01*
X261074928Y-118720000D01*
X261074928Y-118920000D01*
X261089110Y-119063991D01*
X261113684Y-119145000D01*
X261089110Y-119226009D01*
X261074928Y-119370000D01*
X261074928Y-119570000D01*
X261089110Y-119713991D01*
X261113684Y-119795000D01*
X261089110Y-119876009D01*
X261074928Y-120020000D01*
X261074928Y-120220000D01*
X261089110Y-120363991D01*
X261113684Y-120445000D01*
X261089110Y-120526009D01*
X261074928Y-120670000D01*
X261074928Y-120870000D01*
X261089110Y-121013991D01*
X261113684Y-121095000D01*
X261089110Y-121176009D01*
X261074928Y-121320000D01*
X261074928Y-121520000D01*
X261089110Y-121663991D01*
X261131110Y-121802448D01*
X261199316Y-121930051D01*
X261291104Y-122041896D01*
X261402949Y-122133684D01*
X261530552Y-122201890D01*
X261669009Y-122243890D01*
X261813000Y-122258072D01*
X263088000Y-122258072D01*
X263231991Y-122243890D01*
X263370448Y-122201890D01*
X263498051Y-122133684D01*
X263609896Y-122041896D01*
X263701684Y-121930051D01*
X263769890Y-121802448D01*
X263811890Y-121663991D01*
X263826072Y-121520000D01*
X263826072Y-121390874D01*
X263908001Y-121472803D01*
X263908000Y-125438677D01*
X263904324Y-125476000D01*
X263908000Y-125513322D01*
X263908000Y-125513332D01*
X263918997Y-125624985D01*
X263957973Y-125753474D01*
X263962454Y-125768246D01*
X264033026Y-125900276D01*
X264063025Y-125936829D01*
X264127999Y-126016001D01*
X264157003Y-126039804D01*
X265719928Y-127602730D01*
X265719928Y-128104000D01*
X265732188Y-128228482D01*
X265768498Y-128348180D01*
X265827463Y-128458494D01*
X265906815Y-128555185D01*
X266003506Y-128634537D01*
X266113820Y-128693502D01*
X266233518Y-128729812D01*
X266358000Y-128742072D01*
X268058000Y-128742072D01*
X268182482Y-128729812D01*
X268302180Y-128693502D01*
X268412494Y-128634537D01*
X268509185Y-128555185D01*
X268588537Y-128458494D01*
X268647502Y-128348180D01*
X268683812Y-128228482D01*
X268696072Y-128104000D01*
X268696072Y-126404000D01*
X268683812Y-126279518D01*
X268647502Y-126159820D01*
X268588537Y-126049506D01*
X268509185Y-125952815D01*
X268412494Y-125873463D01*
X268302180Y-125814498D01*
X268229620Y-125792487D01*
X268361475Y-125660632D01*
X268523990Y-125417411D01*
X268635932Y-125147158D01*
X268693000Y-124860260D01*
X268693000Y-124567740D01*
X268635932Y-124280842D01*
X268523990Y-124010589D01*
X268361475Y-123767368D01*
X268154632Y-123560525D01*
X267980240Y-123444000D01*
X268154632Y-123327475D01*
X268361475Y-123120632D01*
X268523990Y-122877411D01*
X268635932Y-122607158D01*
X268693000Y-122320260D01*
X268693000Y-122027740D01*
X268635932Y-121740842D01*
X268523990Y-121470589D01*
X268361475Y-121227368D01*
X268154632Y-121020525D01*
X267980240Y-120904000D01*
X268154632Y-120787475D01*
X268361475Y-120580632D01*
X268523990Y-120337411D01*
X268635932Y-120067158D01*
X268693000Y-119780260D01*
X268693000Y-119487740D01*
X268635932Y-119200842D01*
X268523990Y-118930589D01*
X268361475Y-118687368D01*
X268154632Y-118480525D01*
X267980240Y-118364000D01*
X268154632Y-118247475D01*
X268361475Y-118040632D01*
X268523990Y-117797411D01*
X268635932Y-117527158D01*
X268693000Y-117240260D01*
X268693000Y-116947740D01*
X268635932Y-116660842D01*
X268523990Y-116390589D01*
X268361475Y-116147368D01*
X268154632Y-115940525D01*
X267980240Y-115824000D01*
X268154632Y-115707475D01*
X268361475Y-115500632D01*
X268523990Y-115257411D01*
X268635932Y-114987158D01*
X268693000Y-114700260D01*
X268693000Y-114407740D01*
X268635932Y-114120842D01*
X268523990Y-113850589D01*
X268361475Y-113607368D01*
X268154632Y-113400525D01*
X267980240Y-113284000D01*
X268154632Y-113167475D01*
X268361475Y-112960632D01*
X268523990Y-112717411D01*
X268635932Y-112447158D01*
X268693000Y-112160260D01*
X268693000Y-111867740D01*
X268635932Y-111580842D01*
X268523990Y-111310589D01*
X268361475Y-111067368D01*
X268154632Y-110860525D01*
X267972466Y-110738805D01*
X268089355Y-110669178D01*
X268305588Y-110474269D01*
X268479641Y-110240920D01*
X268604825Y-109978099D01*
X268649476Y-109830890D01*
X268528155Y-109601000D01*
X267335000Y-109601000D01*
X267335000Y-109621000D01*
X267081000Y-109621000D01*
X267081000Y-109601000D01*
X265887845Y-109601000D01*
X265766524Y-109830890D01*
X265811175Y-109978099D01*
X265936359Y-110240920D01*
X266110412Y-110474269D01*
X266326645Y-110669178D01*
X266443534Y-110738805D01*
X266261368Y-110860525D01*
X266054525Y-111067368D01*
X265892010Y-111310589D01*
X265780068Y-111580842D01*
X265723000Y-111867740D01*
X265723000Y-112160260D01*
X265780068Y-112447158D01*
X265892010Y-112717411D01*
X266054525Y-112960632D01*
X266261368Y-113167475D01*
X266435760Y-113284000D01*
X266261368Y-113400525D01*
X266054525Y-113607368D01*
X265892010Y-113850589D01*
X265780068Y-114120842D01*
X265723000Y-114407740D01*
X265723000Y-114700260D01*
X265766790Y-114920408D01*
X265174000Y-115513199D01*
X265174000Y-114749711D01*
X265217937Y-114705774D01*
X265331205Y-114536256D01*
X265409226Y-114347898D01*
X265449000Y-114147939D01*
X265449000Y-113944061D01*
X265409226Y-113744102D01*
X265331205Y-113555744D01*
X265217937Y-113386226D01*
X265073774Y-113242063D01*
X264904256Y-113128795D01*
X264715898Y-113050774D01*
X264515939Y-113011000D01*
X264312061Y-113011000D01*
X264112102Y-113050774D01*
X263923744Y-113128795D01*
X263754226Y-113242063D01*
X263610063Y-113386226D01*
X263496795Y-113555744D01*
X263418774Y-113744102D01*
X263379000Y-113944061D01*
X263379000Y-114147939D01*
X263418774Y-114347898D01*
X263496795Y-114536256D01*
X263610063Y-114705774D01*
X263654001Y-114749712D01*
X263654000Y-114937669D01*
X263632346Y-114912078D01*
X263534471Y-114834189D01*
X263423282Y-114776891D01*
X263303052Y-114742386D01*
X263178400Y-114732000D01*
X262736250Y-114735000D01*
X262577500Y-114893750D01*
X262577500Y-115381928D01*
X262323500Y-115381928D01*
X262323500Y-114893750D01*
X262164750Y-114735000D01*
X261722600Y-114732000D01*
X261597948Y-114742386D01*
X261477718Y-114776891D01*
X261366529Y-114834189D01*
X261268654Y-114912078D01*
X261187856Y-115007564D01*
X261127239Y-115116979D01*
X261089132Y-115236117D01*
X261078000Y-115338250D01*
X261236750Y-115497000D01*
X261420378Y-115497000D01*
X261402949Y-115506316D01*
X261291104Y-115598104D01*
X261254259Y-115643000D01*
X261236750Y-115643000D01*
X261078000Y-115801750D01*
X261089132Y-115903883D01*
X261100350Y-115938955D01*
X261089110Y-115976009D01*
X261074928Y-116120000D01*
X258101072Y-116120000D01*
X258086890Y-115976009D01*
X258075650Y-115938955D01*
X258086868Y-115903883D01*
X258098000Y-115801750D01*
X257939250Y-115643000D01*
X257921741Y-115643000D01*
X257884896Y-115598104D01*
X257773051Y-115506316D01*
X257755622Y-115497000D01*
X257939250Y-115497000D01*
X258098000Y-115338250D01*
X258086868Y-115236117D01*
X258048761Y-115116979D01*
X257988144Y-115007564D01*
X257907346Y-114912078D01*
X257809471Y-114834189D01*
X257698282Y-114776891D01*
X257578052Y-114742386D01*
X257453400Y-114732000D01*
X257011250Y-114735000D01*
X256852500Y-114893750D01*
X256852500Y-115381928D01*
X256598500Y-115381928D01*
X256598500Y-114893750D01*
X256439750Y-114735000D01*
X255997600Y-114732000D01*
X255872948Y-114742386D01*
X255752718Y-114776891D01*
X255641529Y-114834189D01*
X255543654Y-114912078D01*
X255522000Y-114937668D01*
X255522000Y-111797323D01*
X255525676Y-111760000D01*
X255522000Y-111722677D01*
X255522000Y-111722667D01*
X255511003Y-111611014D01*
X255467546Y-111467753D01*
X255396974Y-111335724D01*
X255302001Y-111219999D01*
X255273003Y-111196201D01*
X253444304Y-109367503D01*
X253420501Y-109338499D01*
X253304776Y-109243526D01*
X253172747Y-109172954D01*
X253029486Y-109129497D01*
X252917833Y-109118500D01*
X252917822Y-109118500D01*
X252903710Y-109117110D01*
X265766524Y-109117110D01*
X265887845Y-109347000D01*
X267081000Y-109347000D01*
X267081000Y-108153186D01*
X267335000Y-108153186D01*
X267335000Y-109347000D01*
X268528155Y-109347000D01*
X268649476Y-109117110D01*
X268604825Y-108969901D01*
X268479641Y-108707080D01*
X268305588Y-108473731D01*
X268089355Y-108278822D01*
X267839252Y-108129843D01*
X267564891Y-108032519D01*
X267335000Y-108153186D01*
X267081000Y-108153186D01*
X266851109Y-108032519D01*
X266576748Y-108129843D01*
X266326645Y-108278822D01*
X266110412Y-108473731D01*
X265936359Y-108707080D01*
X265811175Y-108969901D01*
X265766524Y-109117110D01*
X252903710Y-109117110D01*
X252880500Y-109114824D01*
X252843178Y-109118500D01*
X252645030Y-109118500D01*
X252581724Y-109041363D01*
X252611185Y-109017185D01*
X252690537Y-108920494D01*
X252749502Y-108810180D01*
X252785812Y-108690482D01*
X252798072Y-108566000D01*
X252795000Y-108339250D01*
X252636250Y-108180500D01*
X251587000Y-108180500D01*
X251587000Y-108200500D01*
X251333000Y-108200500D01*
X251333000Y-108180500D01*
X251313000Y-108180500D01*
X251313000Y-107926500D01*
X251333000Y-107926500D01*
X251333000Y-107064750D01*
X251587000Y-107064750D01*
X251587000Y-107926500D01*
X252636250Y-107926500D01*
X252795000Y-107767750D01*
X252798072Y-107541000D01*
X252785812Y-107416518D01*
X252749502Y-107296820D01*
X252690537Y-107186506D01*
X252611185Y-107089815D01*
X252514494Y-107010463D01*
X252404180Y-106951498D01*
X252284482Y-106915188D01*
X252160000Y-106902928D01*
X251745750Y-106906000D01*
X251587000Y-107064750D01*
X251333000Y-107064750D01*
X251174250Y-106906000D01*
X250760000Y-106902928D01*
X250635518Y-106915188D01*
X250515820Y-106951498D01*
X250405506Y-107010463D01*
X250308815Y-107089815D01*
X250229463Y-107186506D01*
X250170498Y-107296820D01*
X250134188Y-107416518D01*
X250121928Y-107541000D01*
X250124029Y-107696082D01*
X250101502Y-107621820D01*
X250042537Y-107511506D01*
X249963185Y-107414815D01*
X249866494Y-107335463D01*
X249756180Y-107276498D01*
X249636482Y-107240188D01*
X249512000Y-107227928D01*
X247312000Y-107227928D01*
X247187518Y-107240188D01*
X247067820Y-107276498D01*
X246957506Y-107335463D01*
X246860815Y-107414815D01*
X246794443Y-107495690D01*
X246693831Y-107428463D01*
X246378081Y-107297675D01*
X246042883Y-107231000D01*
X245701117Y-107231000D01*
X245365919Y-107297675D01*
X245304088Y-107323286D01*
X240593804Y-102613003D01*
X240570001Y-102583999D01*
X240454276Y-102489026D01*
X240322247Y-102418454D01*
X240178986Y-102374997D01*
X240067333Y-102364000D01*
X240067322Y-102364000D01*
X240030000Y-102360324D01*
X239992678Y-102364000D01*
X141638089Y-102364000D01*
X141600766Y-102360324D01*
X141563443Y-102364000D01*
X141563434Y-102364000D01*
X141451781Y-102374997D01*
X141308520Y-102418454D01*
X141176491Y-102489026D01*
X141060766Y-102583999D01*
X141036968Y-102612997D01*
X136692021Y-106957945D01*
X136663023Y-106981743D01*
X136639225Y-107010741D01*
X136639224Y-107010742D01*
X136568049Y-107097468D01*
X136497477Y-107229498D01*
X136468205Y-107326000D01*
X136454021Y-107372758D01*
X136447497Y-107438998D01*
X136439347Y-107521744D01*
X136443024Y-107559076D01*
X136443024Y-109459678D01*
X136429185Y-109442815D01*
X136332494Y-109363463D01*
X136222180Y-109304498D01*
X136102482Y-109268188D01*
X135978000Y-109255928D01*
X134278000Y-109255928D01*
X134153518Y-109268188D01*
X134033820Y-109304498D01*
X133923506Y-109363463D01*
X133826815Y-109442815D01*
X133747463Y-109539506D01*
X133688498Y-109649820D01*
X133652188Y-109769518D01*
X133639928Y-109894000D01*
X129946000Y-109894000D01*
X129946000Y-100990000D01*
X272898001Y-100990000D01*
X272898000Y-135484000D01*
%TA.AperFunction,Conductor*%
D18*
G36*
X272898000Y-135484000D02*
G01*
X129946000Y-135484000D01*
X129946000Y-126340890D01*
X133686524Y-126340890D01*
X133731175Y-126488099D01*
X133856359Y-126750920D01*
X134030412Y-126984269D01*
X134246645Y-127179178D01*
X134496748Y-127328157D01*
X134771109Y-127425481D01*
X135001000Y-127304814D01*
X135001000Y-126111000D01*
X135255000Y-126111000D01*
X135255000Y-127304814D01*
X135484891Y-127425481D01*
X135759252Y-127328157D01*
X136009355Y-127179178D01*
X136225588Y-126984269D01*
X136399641Y-126750920D01*
X136524825Y-126488099D01*
X136569476Y-126340890D01*
X136448155Y-126111000D01*
X135255000Y-126111000D01*
X135001000Y-126111000D01*
X133807845Y-126111000D01*
X133686524Y-126340890D01*
X129946000Y-126340890D01*
X129946000Y-109894000D01*
X133639928Y-109894000D01*
X133639928Y-111594000D01*
X133652188Y-111718482D01*
X133688498Y-111838180D01*
X133747463Y-111948494D01*
X133826815Y-112045185D01*
X133923506Y-112124537D01*
X134033820Y-112183502D01*
X134106380Y-112205513D01*
X133974525Y-112337368D01*
X133812010Y-112580589D01*
X133700068Y-112850842D01*
X133643000Y-113137740D01*
X133643000Y-113430260D01*
X133700068Y-113717158D01*
X133812010Y-113987411D01*
X133974525Y-114230632D01*
X134181368Y-114437475D01*
X134355760Y-114554000D01*
X134181368Y-114670525D01*
X133974525Y-114877368D01*
X133812010Y-115120589D01*
X133700068Y-115390842D01*
X133643000Y-115677740D01*
X133643000Y-115970260D01*
X133700068Y-116257158D01*
X133812010Y-116527411D01*
X133974525Y-116770632D01*
X134181368Y-116977475D01*
X134355760Y-117094000D01*
X134181368Y-117210525D01*
X133974525Y-117417368D01*
X133812010Y-117660589D01*
X133700068Y-117930842D01*
X133643000Y-118217740D01*
X133643000Y-118510260D01*
X133700068Y-118797158D01*
X133812010Y-119067411D01*
X133974525Y-119310632D01*
X134181368Y-119517475D01*
X134355760Y-119634000D01*
X134181368Y-119750525D01*
X133974525Y-119957368D01*
X133812010Y-120200589D01*
X133700068Y-120470842D01*
X133643000Y-120757740D01*
X133643000Y-121050260D01*
X133700068Y-121337158D01*
X133812010Y-121607411D01*
X133974525Y-121850632D01*
X134181368Y-122057475D01*
X134355760Y-122174000D01*
X134181368Y-122290525D01*
X133974525Y-122497368D01*
X133812010Y-122740589D01*
X133700068Y-123010842D01*
X133643000Y-123297740D01*
X133643000Y-123590260D01*
X133700068Y-123877158D01*
X133812010Y-124147411D01*
X133974525Y-124390632D01*
X134181368Y-124597475D01*
X134363534Y-124719195D01*
X134246645Y-124788822D01*
X134030412Y-124983731D01*
X133856359Y-125217080D01*
X133731175Y-125479901D01*
X133686524Y-125627110D01*
X133807845Y-125857000D01*
X135001000Y-125857000D01*
X135001000Y-125837000D01*
X135255000Y-125837000D01*
X135255000Y-125857000D01*
X136448155Y-125857000D01*
X136557923Y-125649000D01*
X138466928Y-125649000D01*
X138479188Y-125773482D01*
X138515498Y-125893180D01*
X138574463Y-126003494D01*
X138653815Y-126100185D01*
X138750506Y-126179537D01*
X138860820Y-126238502D01*
X138980518Y-126274812D01*
X139105000Y-126287072D01*
X139844250Y-126284000D01*
X140003000Y-126125250D01*
X140003000Y-125476000D01*
X140257000Y-125476000D01*
X140257000Y-126125250D01*
X140415750Y-126284000D01*
X141155000Y-126287072D01*
X141279482Y-126274812D01*
X141399180Y-126238502D01*
X141509494Y-126179537D01*
X141606185Y-126100185D01*
X141685537Y-126003494D01*
X141744502Y-125893180D01*
X141780812Y-125773482D01*
X141793072Y-125649000D01*
X141790000Y-125634750D01*
X141631250Y-125476000D01*
X140257000Y-125476000D01*
X140003000Y-125476000D01*
X138628750Y-125476000D01*
X138470000Y-125634750D01*
X138466928Y-125649000D01*
X136557923Y-125649000D01*
X136569476Y-125627110D01*
X136524825Y-125479901D01*
X136399641Y-125217080D01*
X136225588Y-124983731D01*
X136009355Y-124788822D01*
X135892466Y-124719195D01*
X136074632Y-124597475D01*
X136281475Y-124390632D01*
X136443990Y-124147411D01*
X136555932Y-123877158D01*
X136613000Y-123590260D01*
X136613000Y-123463802D01*
X137739200Y-124590002D01*
X137762999Y-124619001D01*
X137791997Y-124642799D01*
X137878723Y-124713974D01*
X137967022Y-124761171D01*
X138010753Y-124784546D01*
X138154014Y-124828003D01*
X138265667Y-124839000D01*
X138265676Y-124839000D01*
X138302999Y-124842676D01*
X138340322Y-124839000D01*
X138505130Y-124839000D01*
X138479188Y-124924518D01*
X138466928Y-125049000D01*
X138470000Y-125063250D01*
X138628750Y-125222000D01*
X140003000Y-125222000D01*
X140003000Y-125202000D01*
X140257000Y-125202000D01*
X140257000Y-125222000D01*
X141631250Y-125222000D01*
X141790000Y-125063250D01*
X141793072Y-125049000D01*
X141780812Y-124924518D01*
X141744502Y-124804820D01*
X141685537Y-124694506D01*
X141661270Y-124664936D01*
X141733084Y-124530582D01*
X141777929Y-124382745D01*
X141793072Y-124229000D01*
X141793072Y-123929000D01*
X141777929Y-123775255D01*
X141733084Y-123627418D01*
X141660258Y-123491171D01*
X141621546Y-123444000D01*
X141660258Y-123396829D01*
X141733084Y-123260582D01*
X141777929Y-123112745D01*
X141793072Y-122959000D01*
X141793072Y-122659000D01*
X141777929Y-122505255D01*
X141733084Y-122357418D01*
X141660258Y-122221171D01*
X141621546Y-122174000D01*
X141660258Y-122126829D01*
X141733084Y-121990582D01*
X141777929Y-121842745D01*
X141793072Y-121689000D01*
X141793072Y-121389000D01*
X141777929Y-121235255D01*
X141733084Y-121087418D01*
X141660258Y-120951171D01*
X141621546Y-120904000D01*
X141660258Y-120856829D01*
X141733084Y-120720582D01*
X141777929Y-120572745D01*
X141793072Y-120419000D01*
X141793072Y-120119000D01*
X141777929Y-119965255D01*
X141733084Y-119817418D01*
X141660258Y-119681171D01*
X141621546Y-119634000D01*
X141660258Y-119586829D01*
X141733084Y-119450582D01*
X141777929Y-119302745D01*
X141793072Y-119149000D01*
X141793072Y-118849000D01*
X141777929Y-118695255D01*
X141733084Y-118547418D01*
X141660258Y-118411171D01*
X141621546Y-118364000D01*
X141660258Y-118316829D01*
X141733084Y-118180582D01*
X141777929Y-118032745D01*
X141793072Y-117879000D01*
X141793072Y-117579000D01*
X141777929Y-117425255D01*
X141733084Y-117277418D01*
X141660258Y-117141171D01*
X141621546Y-117094000D01*
X141660258Y-117046829D01*
X141733084Y-116910582D01*
X141777929Y-116762745D01*
X141793072Y-116609000D01*
X141793072Y-116309000D01*
X141777929Y-116155255D01*
X141733084Y-116007418D01*
X141660258Y-115871171D01*
X141621546Y-115824000D01*
X141660258Y-115776829D01*
X141733084Y-115640582D01*
X141777929Y-115492745D01*
X141793072Y-115339000D01*
X141793072Y-115039000D01*
X141777929Y-114885255D01*
X141733084Y-114737418D01*
X141660258Y-114601171D01*
X141621546Y-114554000D01*
X141660258Y-114506829D01*
X141733084Y-114370582D01*
X141777929Y-114222745D01*
X141793072Y-114069000D01*
X141793072Y-113769000D01*
X141777929Y-113615255D01*
X141733084Y-113467418D01*
X141660258Y-113331171D01*
X141621546Y-113284000D01*
X141660258Y-113236829D01*
X141733084Y-113100582D01*
X141777929Y-112952745D01*
X141793072Y-112799000D01*
X141793072Y-112499000D01*
X141777929Y-112345255D01*
X141733084Y-112197418D01*
X141660258Y-112061171D01*
X141621546Y-112014000D01*
X141660258Y-111966829D01*
X141733084Y-111830582D01*
X141777929Y-111682745D01*
X141793072Y-111529000D01*
X141793072Y-111229000D01*
X141777929Y-111075255D01*
X141733084Y-110927418D01*
X141660258Y-110791171D01*
X141562251Y-110671749D01*
X141442829Y-110573742D01*
X141306582Y-110500916D01*
X141158745Y-110456071D01*
X141005000Y-110440928D01*
X140720004Y-110440928D01*
X140670001Y-110379999D01*
X140641003Y-110356201D01*
X139952000Y-109667199D01*
X139952000Y-108518801D01*
X142554802Y-105916000D01*
X217363199Y-105916000D01*
X218675127Y-107227928D01*
X216832000Y-107227928D01*
X216707518Y-107240188D01*
X216587820Y-107276498D01*
X216477506Y-107335463D01*
X216380815Y-107414815D01*
X216314443Y-107495690D01*
X216213831Y-107428463D01*
X215898081Y-107297675D01*
X215562883Y-107231000D01*
X215221117Y-107231000D01*
X214885919Y-107297675D01*
X214570169Y-107428463D01*
X214286002Y-107618337D01*
X214044337Y-107860002D01*
X213854463Y-108144169D01*
X213723675Y-108459919D01*
X213657000Y-108795117D01*
X213657000Y-109136883D01*
X213723675Y-109472081D01*
X213815610Y-109694031D01*
X213574072Y-109452493D01*
X213574072Y-107866000D01*
X213561812Y-107741518D01*
X213525502Y-107621820D01*
X213466537Y-107511506D01*
X213387185Y-107414815D01*
X213290494Y-107335463D01*
X213180180Y-107276498D01*
X213060482Y-107240188D01*
X212936000Y-107227928D01*
X210736000Y-107227928D01*
X210611518Y-107240188D01*
X210491820Y-107276498D01*
X210381506Y-107335463D01*
X210284815Y-107414815D01*
X210218443Y-107495690D01*
X210117831Y-107428463D01*
X209802081Y-107297675D01*
X209466883Y-107231000D01*
X209125117Y-107231000D01*
X208789919Y-107297675D01*
X208474169Y-107428463D01*
X208190002Y-107618337D01*
X207948337Y-107860002D01*
X207758463Y-108144169D01*
X207627675Y-108459919D01*
X207561000Y-108795117D01*
X207561000Y-109136883D01*
X207627675Y-109472081D01*
X207719610Y-109694031D01*
X207478072Y-109452493D01*
X207478072Y-107866000D01*
X207465812Y-107741518D01*
X207429502Y-107621820D01*
X207370537Y-107511506D01*
X207291185Y-107414815D01*
X207194494Y-107335463D01*
X207084180Y-107276498D01*
X206964482Y-107240188D01*
X206840000Y-107227928D01*
X204640000Y-107227928D01*
X204515518Y-107240188D01*
X204395820Y-107276498D01*
X204285506Y-107335463D01*
X204188815Y-107414815D01*
X204122443Y-107495690D01*
X204021831Y-107428463D01*
X203706081Y-107297675D01*
X203370883Y-107231000D01*
X203029117Y-107231000D01*
X202693919Y-107297675D01*
X202378169Y-107428463D01*
X202094002Y-107618337D01*
X201852337Y-107860002D01*
X201662463Y-108144169D01*
X201531675Y-108459919D01*
X201465000Y-108795117D01*
X201465000Y-109136883D01*
X201531675Y-109472081D01*
X201623610Y-109694031D01*
X201382072Y-109452493D01*
X201382072Y-107866000D01*
X201369812Y-107741518D01*
X201333502Y-107621820D01*
X201274537Y-107511506D01*
X201195185Y-107414815D01*
X201098494Y-107335463D01*
X200988180Y-107276498D01*
X200868482Y-107240188D01*
X200744000Y-107227928D01*
X198544000Y-107227928D01*
X198419518Y-107240188D01*
X198299820Y-107276498D01*
X198189506Y-107335463D01*
X198092815Y-107414815D01*
X198026443Y-107495690D01*
X197925831Y-107428463D01*
X197610081Y-107297675D01*
X197274883Y-107231000D01*
X196933117Y-107231000D01*
X196597919Y-107297675D01*
X196282169Y-107428463D01*
X195998002Y-107618337D01*
X195756337Y-107860002D01*
X195566463Y-108144169D01*
X195435675Y-108459919D01*
X195369000Y-108795117D01*
X195369000Y-109136883D01*
X195435675Y-109472081D01*
X195527610Y-109694031D01*
X195286072Y-109452493D01*
X195286072Y-107866000D01*
X195273812Y-107741518D01*
X195237502Y-107621820D01*
X195178537Y-107511506D01*
X195099185Y-107414815D01*
X195002494Y-107335463D01*
X194892180Y-107276498D01*
X194772482Y-107240188D01*
X194648000Y-107227928D01*
X192448000Y-107227928D01*
X192323518Y-107240188D01*
X192203820Y-107276498D01*
X192093506Y-107335463D01*
X191996815Y-107414815D01*
X191930443Y-107495690D01*
X191829831Y-107428463D01*
X191514081Y-107297675D01*
X191178883Y-107231000D01*
X190837117Y-107231000D01*
X190501919Y-107297675D01*
X190186169Y-107428463D01*
X189902002Y-107618337D01*
X189660337Y-107860002D01*
X189470463Y-108144169D01*
X189339675Y-108459919D01*
X189273000Y-108795117D01*
X189273000Y-109136883D01*
X189339675Y-109472081D01*
X189431610Y-109694031D01*
X189190072Y-109452493D01*
X189190072Y-107866000D01*
X189177812Y-107741518D01*
X189141502Y-107621820D01*
X189082537Y-107511506D01*
X189003185Y-107414815D01*
X188906494Y-107335463D01*
X188796180Y-107276498D01*
X188676482Y-107240188D01*
X188552000Y-107227928D01*
X186352000Y-107227928D01*
X186227518Y-107240188D01*
X186107820Y-107276498D01*
X185997506Y-107335463D01*
X185900815Y-107414815D01*
X185834443Y-107495690D01*
X185733831Y-107428463D01*
X185418081Y-107297675D01*
X185082883Y-107231000D01*
X184741117Y-107231000D01*
X184405919Y-107297675D01*
X184090169Y-107428463D01*
X183806002Y-107618337D01*
X183564337Y-107860002D01*
X183374463Y-108144169D01*
X183243675Y-108459919D01*
X183177000Y-108795117D01*
X183177000Y-109136883D01*
X183243675Y-109472081D01*
X183335610Y-109694031D01*
X183094072Y-109452493D01*
X183094072Y-107866000D01*
X183081812Y-107741518D01*
X183045502Y-107621820D01*
X182986537Y-107511506D01*
X182907185Y-107414815D01*
X182810494Y-107335463D01*
X182700180Y-107276498D01*
X182580482Y-107240188D01*
X182456000Y-107227928D01*
X180256000Y-107227928D01*
X180131518Y-107240188D01*
X180011820Y-107276498D01*
X179901506Y-107335463D01*
X179804815Y-107414815D01*
X179738443Y-107495690D01*
X179637831Y-107428463D01*
X179322081Y-107297675D01*
X178986883Y-107231000D01*
X178645117Y-107231000D01*
X178309919Y-107297675D01*
X177994169Y-107428463D01*
X177710002Y-107618337D01*
X177468337Y-107860002D01*
X177278463Y-108144169D01*
X177147675Y-108459919D01*
X177081000Y-108795117D01*
X177081000Y-109136883D01*
X177147675Y-109472081D01*
X177239610Y-109694031D01*
X176998072Y-109452493D01*
X176998072Y-107866000D01*
X176985812Y-107741518D01*
X176949502Y-107621820D01*
X176890537Y-107511506D01*
X176811185Y-107414815D01*
X176714494Y-107335463D01*
X176604180Y-107276498D01*
X176484482Y-107240188D01*
X176360000Y-107227928D01*
X174160000Y-107227928D01*
X174035518Y-107240188D01*
X173915820Y-107276498D01*
X173805506Y-107335463D01*
X173708815Y-107414815D01*
X173642443Y-107495690D01*
X173541831Y-107428463D01*
X173226081Y-107297675D01*
X172890883Y-107231000D01*
X172549117Y-107231000D01*
X172213919Y-107297675D01*
X171898169Y-107428463D01*
X171614002Y-107618337D01*
X171372337Y-107860002D01*
X171182463Y-108144169D01*
X171051675Y-108459919D01*
X170985000Y-108795117D01*
X170985000Y-109136883D01*
X171051675Y-109472081D01*
X171143610Y-109694031D01*
X170902072Y-109452493D01*
X170902072Y-107866000D01*
X170889812Y-107741518D01*
X170853502Y-107621820D01*
X170794537Y-107511506D01*
X170715185Y-107414815D01*
X170618494Y-107335463D01*
X170508180Y-107276498D01*
X170388482Y-107240188D01*
X170264000Y-107227928D01*
X168064000Y-107227928D01*
X167939518Y-107240188D01*
X167819820Y-107276498D01*
X167709506Y-107335463D01*
X167612815Y-107414815D01*
X167546443Y-107495690D01*
X167445831Y-107428463D01*
X167130081Y-107297675D01*
X166794883Y-107231000D01*
X166453117Y-107231000D01*
X166117919Y-107297675D01*
X165802169Y-107428463D01*
X165518002Y-107618337D01*
X165276337Y-107860002D01*
X165086463Y-108144169D01*
X164955675Y-108459919D01*
X164889000Y-108795117D01*
X164889000Y-109136883D01*
X164955675Y-109472081D01*
X165021502Y-109631001D01*
X158888580Y-109631001D01*
X158710072Y-109452493D01*
X158710072Y-107866000D01*
X158697812Y-107741518D01*
X158661502Y-107621820D01*
X158602537Y-107511506D01*
X158523185Y-107414815D01*
X158426494Y-107335463D01*
X158316180Y-107276498D01*
X158196482Y-107240188D01*
X158072000Y-107227928D01*
X155872000Y-107227928D01*
X155747518Y-107240188D01*
X155627820Y-107276498D01*
X155517506Y-107335463D01*
X155420815Y-107414815D01*
X155354443Y-107495690D01*
X155253831Y-107428463D01*
X154938081Y-107297675D01*
X154602883Y-107231000D01*
X154261117Y-107231000D01*
X153925919Y-107297675D01*
X153610169Y-107428463D01*
X153326002Y-107618337D01*
X153084337Y-107860002D01*
X152894463Y-108144169D01*
X152763675Y-108459919D01*
X152697000Y-108795117D01*
X152697000Y-109136883D01*
X152763675Y-109472081D01*
X152894463Y-109787831D01*
X153084337Y-110071998D01*
X153326002Y-110313663D01*
X153610169Y-110503537D01*
X153925919Y-110634325D01*
X154261117Y-110701000D01*
X154602883Y-110701000D01*
X154938081Y-110634325D01*
X155253831Y-110503537D01*
X155354443Y-110436310D01*
X155420815Y-110517185D01*
X155517506Y-110596537D01*
X155627820Y-110655502D01*
X155747518Y-110691812D01*
X155872000Y-110704072D01*
X157458493Y-110704072D01*
X157792349Y-111037928D01*
X155872000Y-111037928D01*
X155747518Y-111050188D01*
X155627820Y-111086498D01*
X155517506Y-111145463D01*
X155420815Y-111224815D01*
X155354443Y-111305690D01*
X155253831Y-111238463D01*
X154938081Y-111107675D01*
X154602883Y-111041000D01*
X154261117Y-111041000D01*
X153925919Y-111107675D01*
X153610169Y-111238463D01*
X153326002Y-111428337D01*
X153084337Y-111670002D01*
X152894463Y-111954169D01*
X152763675Y-112269919D01*
X152697000Y-112605117D01*
X152697000Y-112946883D01*
X152763675Y-113282081D01*
X152894463Y-113597831D01*
X153084337Y-113881998D01*
X153326002Y-114123663D01*
X153610169Y-114313537D01*
X153925919Y-114444325D01*
X154261117Y-114511000D01*
X154602883Y-114511000D01*
X154938081Y-114444325D01*
X155253831Y-114313537D01*
X155354443Y-114246310D01*
X155420815Y-114327185D01*
X155517506Y-114406537D01*
X155627820Y-114465502D01*
X155747518Y-114501812D01*
X155872000Y-114514072D01*
X157458493Y-114514072D01*
X157792349Y-114847928D01*
X155872000Y-114847928D01*
X155747518Y-114860188D01*
X155627820Y-114896498D01*
X155517506Y-114955463D01*
X155420815Y-115034815D01*
X155354443Y-115115690D01*
X155253831Y-115048463D01*
X154938081Y-114917675D01*
X154602883Y-114851000D01*
X154261117Y-114851000D01*
X153925919Y-114917675D01*
X153610169Y-115048463D01*
X153326002Y-115238337D01*
X153084337Y-115480002D01*
X152894463Y-115764169D01*
X152763675Y-116079919D01*
X152697000Y-116415117D01*
X152697000Y-116756883D01*
X152763675Y-117092081D01*
X152894463Y-117407831D01*
X153084337Y-117691998D01*
X153326002Y-117933663D01*
X153610169Y-118123537D01*
X153925919Y-118254325D01*
X154261117Y-118321000D01*
X154602883Y-118321000D01*
X154938081Y-118254325D01*
X155253831Y-118123537D01*
X155354443Y-118056310D01*
X155420815Y-118137185D01*
X155517506Y-118216537D01*
X155627820Y-118275502D01*
X155747518Y-118311812D01*
X155872000Y-118324072D01*
X157458493Y-118324072D01*
X157792349Y-118657928D01*
X155872000Y-118657928D01*
X155747518Y-118670188D01*
X155627820Y-118706498D01*
X155517506Y-118765463D01*
X155420815Y-118844815D01*
X155354443Y-118925690D01*
X155253831Y-118858463D01*
X154938081Y-118727675D01*
X154602883Y-118661000D01*
X154261117Y-118661000D01*
X153925919Y-118727675D01*
X153610169Y-118858463D01*
X153326002Y-119048337D01*
X153084337Y-119290002D01*
X152894463Y-119574169D01*
X152763675Y-119889919D01*
X152697000Y-120225117D01*
X152697000Y-120566883D01*
X152763675Y-120902081D01*
X152894463Y-121217831D01*
X153084337Y-121501998D01*
X153326002Y-121743663D01*
X153610169Y-121933537D01*
X153925919Y-122064325D01*
X154261117Y-122131000D01*
X154602883Y-122131000D01*
X154938081Y-122064325D01*
X155253831Y-121933537D01*
X155354443Y-121866310D01*
X155420815Y-121947185D01*
X155517506Y-122026537D01*
X155627820Y-122085502D01*
X155747518Y-122121812D01*
X155872000Y-122134072D01*
X157458493Y-122134072D01*
X157792349Y-122467928D01*
X155872000Y-122467928D01*
X155747518Y-122480188D01*
X155627820Y-122516498D01*
X155517506Y-122575463D01*
X155420815Y-122654815D01*
X155354443Y-122735690D01*
X155253831Y-122668463D01*
X154938081Y-122537675D01*
X154602883Y-122471000D01*
X154261117Y-122471000D01*
X153925919Y-122537675D01*
X153610169Y-122668463D01*
X153326002Y-122858337D01*
X153084337Y-123100002D01*
X152894463Y-123384169D01*
X152763675Y-123699919D01*
X152697000Y-124035117D01*
X152697000Y-124376883D01*
X152763675Y-124712081D01*
X152894463Y-125027831D01*
X153084337Y-125311998D01*
X153326002Y-125553663D01*
X153610169Y-125743537D01*
X153925919Y-125874325D01*
X154261117Y-125941000D01*
X154602883Y-125941000D01*
X154938081Y-125874325D01*
X155253831Y-125743537D01*
X155354443Y-125676310D01*
X155420815Y-125757185D01*
X155517506Y-125836537D01*
X155627820Y-125895502D01*
X155747518Y-125931812D01*
X155872000Y-125944072D01*
X157458493Y-125944072D01*
X157792349Y-126277928D01*
X155872000Y-126277928D01*
X155747518Y-126290188D01*
X155627820Y-126326498D01*
X155517506Y-126385463D01*
X155420815Y-126464815D01*
X155354443Y-126545690D01*
X155253831Y-126478463D01*
X154938081Y-126347675D01*
X154602883Y-126281000D01*
X154261117Y-126281000D01*
X153925919Y-126347675D01*
X153610169Y-126478463D01*
X153326002Y-126668337D01*
X153084337Y-126910002D01*
X152894463Y-127194169D01*
X152868852Y-127256000D01*
X152411802Y-127256000D01*
X151006367Y-125850566D01*
X151033084Y-125800582D01*
X151077929Y-125652745D01*
X151093072Y-125499000D01*
X151093072Y-125199000D01*
X151077929Y-125045255D01*
X151033084Y-124897418D01*
X150960258Y-124761171D01*
X150921546Y-124714000D01*
X150960258Y-124666829D01*
X151033084Y-124530582D01*
X151077929Y-124382745D01*
X151093072Y-124229000D01*
X151093072Y-123929000D01*
X151077929Y-123775255D01*
X151033084Y-123627418D01*
X150960258Y-123491171D01*
X150921546Y-123444000D01*
X150960258Y-123396829D01*
X151033084Y-123260582D01*
X151077929Y-123112745D01*
X151093072Y-122959000D01*
X151093072Y-122659000D01*
X151077929Y-122505255D01*
X151033084Y-122357418D01*
X150960258Y-122221171D01*
X150921546Y-122174000D01*
X150960258Y-122126829D01*
X151033084Y-121990582D01*
X151077929Y-121842745D01*
X151093072Y-121689000D01*
X151093072Y-121389000D01*
X151077929Y-121235255D01*
X151033084Y-121087418D01*
X150960258Y-120951171D01*
X150921546Y-120904000D01*
X150960258Y-120856829D01*
X151033084Y-120720582D01*
X151077929Y-120572745D01*
X151093072Y-120419000D01*
X151093072Y-120119000D01*
X151077929Y-119965255D01*
X151033084Y-119817418D01*
X150960258Y-119681171D01*
X150921546Y-119634000D01*
X150960258Y-119586829D01*
X151033084Y-119450582D01*
X151077929Y-119302745D01*
X151093072Y-119149000D01*
X151093072Y-118849000D01*
X151077929Y-118695255D01*
X151033084Y-118547418D01*
X150960258Y-118411171D01*
X150921546Y-118364000D01*
X150960258Y-118316829D01*
X151033084Y-118180582D01*
X151077929Y-118032745D01*
X151093072Y-117879000D01*
X151093072Y-117579000D01*
X151077929Y-117425255D01*
X151033084Y-117277418D01*
X150960258Y-117141171D01*
X150921546Y-117094000D01*
X150960258Y-117046829D01*
X151033084Y-116910582D01*
X151077929Y-116762745D01*
X151093072Y-116609000D01*
X151093072Y-116309000D01*
X151077929Y-116155255D01*
X151033084Y-116007418D01*
X150960258Y-115871171D01*
X150921546Y-115824000D01*
X150960258Y-115776829D01*
X151033084Y-115640582D01*
X151077929Y-115492745D01*
X151093072Y-115339000D01*
X151093072Y-115039000D01*
X151077929Y-114885255D01*
X151033084Y-114737418D01*
X150960258Y-114601171D01*
X150921546Y-114554000D01*
X150960258Y-114506829D01*
X151033084Y-114370582D01*
X151077929Y-114222745D01*
X151093072Y-114069000D01*
X151093072Y-113769000D01*
X151077929Y-113615255D01*
X151033084Y-113467418D01*
X150960258Y-113331171D01*
X150921546Y-113284000D01*
X150960258Y-113236829D01*
X151033084Y-113100582D01*
X151077929Y-112952745D01*
X151093072Y-112799000D01*
X151093072Y-112499000D01*
X151077929Y-112345255D01*
X151033084Y-112197418D01*
X150960258Y-112061171D01*
X150921546Y-112014000D01*
X150960258Y-111966829D01*
X151033084Y-111830582D01*
X151077929Y-111682745D01*
X151093072Y-111529000D01*
X151093072Y-111229000D01*
X151077929Y-111075255D01*
X151033084Y-110927418D01*
X150960258Y-110791171D01*
X150862251Y-110671749D01*
X150742829Y-110573742D01*
X150606582Y-110500916D01*
X150458745Y-110456071D01*
X150305000Y-110440928D01*
X150190000Y-110440928D01*
X150190000Y-109747711D01*
X150233937Y-109703774D01*
X150347205Y-109534256D01*
X150425226Y-109345898D01*
X150465000Y-109145939D01*
X150465000Y-108942061D01*
X150425226Y-108742102D01*
X150347205Y-108553744D01*
X150233937Y-108384226D01*
X150089774Y-108240063D01*
X149920256Y-108126795D01*
X149731898Y-108048774D01*
X149531939Y-108009000D01*
X149328061Y-108009000D01*
X149128102Y-108048774D01*
X148939744Y-108126795D01*
X148770226Y-108240063D01*
X148626063Y-108384226D01*
X148512795Y-108553744D01*
X148434774Y-108742102D01*
X148395000Y-108942061D01*
X148395000Y-109145939D01*
X148434774Y-109345898D01*
X148512795Y-109534256D01*
X148626063Y-109703774D01*
X148670001Y-109747712D01*
X148670000Y-110440928D01*
X148555000Y-110440928D01*
X148401255Y-110456071D01*
X148253418Y-110500916D01*
X148117171Y-110573742D01*
X147997749Y-110671749D01*
X147899742Y-110791171D01*
X147826916Y-110927418D01*
X147782071Y-111075255D01*
X147766928Y-111229000D01*
X147766928Y-111529000D01*
X147782071Y-111682745D01*
X147826916Y-111830582D01*
X147893804Y-111955720D01*
X147784724Y-112014026D01*
X147668999Y-112108999D01*
X147645201Y-112137997D01*
X143253003Y-116530196D01*
X143223999Y-116553999D01*
X143179651Y-116608038D01*
X143129026Y-116669724D01*
X143094229Y-116734824D01*
X143058454Y-116801754D01*
X143014997Y-116945015D01*
X143004000Y-117056668D01*
X143004000Y-117056678D01*
X143000324Y-117094000D01*
X143004000Y-117131322D01*
X143004001Y-126962668D01*
X143000324Y-127000000D01*
X143004001Y-127037333D01*
X143014998Y-127148986D01*
X143026524Y-127186983D01*
X143058454Y-127292246D01*
X143059979Y-127295099D01*
X143058315Y-127311991D01*
X143061992Y-127349321D01*
X143061992Y-127349326D01*
X143072989Y-127460979D01*
X143091195Y-127520997D01*
X143116445Y-127604237D01*
X143187017Y-127736267D01*
X143257103Y-127821666D01*
X143281993Y-127851994D01*
X143310990Y-127875791D01*
X149550205Y-134115008D01*
X149573999Y-134144001D01*
X149602992Y-134167795D01*
X149602996Y-134167799D01*
X149673685Y-134225811D01*
X149689724Y-134238974D01*
X149821753Y-134309546D01*
X149965014Y-134353003D01*
X150076667Y-134364000D01*
X150076676Y-134364000D01*
X150113999Y-134367676D01*
X150151322Y-134364000D01*
X209766678Y-134364000D01*
X209804000Y-134367676D01*
X209841322Y-134364000D01*
X209841333Y-134364000D01*
X209952986Y-134353003D01*
X210096247Y-134309546D01*
X210228276Y-134238974D01*
X210344001Y-134144001D01*
X210367804Y-134114997D01*
X214824089Y-129658714D01*
X214885919Y-129684325D01*
X215221117Y-129751000D01*
X215562883Y-129751000D01*
X215898081Y-129684325D01*
X216213831Y-129553537D01*
X216314443Y-129486310D01*
X216380815Y-129567185D01*
X216477506Y-129646537D01*
X216587820Y-129705502D01*
X216707518Y-129741812D01*
X216832000Y-129754072D01*
X219032000Y-129754072D01*
X219156482Y-129741812D01*
X219276180Y-129705502D01*
X219386494Y-129646537D01*
X219483185Y-129567185D01*
X219562537Y-129470494D01*
X219621502Y-129360180D01*
X219657812Y-129240482D01*
X219670072Y-129116000D01*
X219670072Y-126916000D01*
X219665443Y-126869000D01*
X222206531Y-126869000D01*
X222250000Y-126873281D01*
X222293469Y-126869000D01*
X222293477Y-126869000D01*
X222423490Y-126856195D01*
X222590313Y-126805589D01*
X222744059Y-126723411D01*
X222878817Y-126612817D01*
X222906534Y-126579044D01*
X223541506Y-125944072D01*
X224514493Y-125944072D01*
X225149470Y-126579049D01*
X225177183Y-126612817D01*
X225210951Y-126640530D01*
X225210953Y-126640532D01*
X225311940Y-126723410D01*
X225311941Y-126723411D01*
X225465687Y-126805589D01*
X225632510Y-126856195D01*
X225762523Y-126869000D01*
X225762531Y-126869000D01*
X225806000Y-126873281D01*
X225849469Y-126869000D01*
X226277339Y-126869000D01*
X226236337Y-126910002D01*
X226046463Y-127194169D01*
X225915675Y-127509919D01*
X225849000Y-127845117D01*
X225849000Y-128186883D01*
X225915675Y-128522081D01*
X226046463Y-128837831D01*
X226236337Y-129121998D01*
X226478002Y-129363663D01*
X226762169Y-129553537D01*
X227077919Y-129684325D01*
X227413117Y-129751000D01*
X227754883Y-129751000D01*
X228090081Y-129684325D01*
X228405831Y-129553537D01*
X228506443Y-129486310D01*
X228572815Y-129567185D01*
X228669506Y-129646537D01*
X228779820Y-129705502D01*
X228899518Y-129741812D01*
X229024000Y-129754072D01*
X231224000Y-129754072D01*
X231348482Y-129741812D01*
X231468180Y-129705502D01*
X231578494Y-129646537D01*
X231675185Y-129567185D01*
X231754537Y-129470494D01*
X231813502Y-129360180D01*
X231849812Y-129240482D01*
X231862072Y-129116000D01*
X231862072Y-126916000D01*
X231857443Y-126869000D01*
X238469339Y-126869000D01*
X238428337Y-126910002D01*
X238238463Y-127194169D01*
X238107675Y-127509919D01*
X238041000Y-127845117D01*
X238041000Y-128186883D01*
X238107675Y-128522081D01*
X238238463Y-128837831D01*
X238428337Y-129121998D01*
X238670002Y-129363663D01*
X238954169Y-129553537D01*
X239269919Y-129684325D01*
X239605117Y-129751000D01*
X239946883Y-129751000D01*
X240282081Y-129684325D01*
X240597831Y-129553537D01*
X240698443Y-129486310D01*
X240764815Y-129567185D01*
X240861506Y-129646537D01*
X240971820Y-129705502D01*
X241091518Y-129741812D01*
X241216000Y-129754072D01*
X243416000Y-129754072D01*
X243540482Y-129741812D01*
X243660180Y-129705502D01*
X243770494Y-129646537D01*
X243867185Y-129567185D01*
X243946537Y-129470494D01*
X244005502Y-129360180D01*
X244041812Y-129240482D01*
X244054072Y-129116000D01*
X244054072Y-126916000D01*
X244041812Y-126791518D01*
X244005502Y-126671820D01*
X243946537Y-126561506D01*
X243867185Y-126464815D01*
X243770494Y-126385463D01*
X243660180Y-126326498D01*
X243540482Y-126290188D01*
X243416000Y-126277928D01*
X241495650Y-126277928D01*
X241829506Y-125944072D01*
X243416000Y-125944072D01*
X243540482Y-125931812D01*
X243660180Y-125895502D01*
X243770494Y-125836537D01*
X243867185Y-125757185D01*
X243946537Y-125660494D01*
X244005502Y-125550180D01*
X244041812Y-125430482D01*
X244054072Y-125306000D01*
X244054072Y-125091000D01*
X247029422Y-125091000D01*
X247651970Y-125713549D01*
X247679683Y-125747317D01*
X247713451Y-125775030D01*
X247713453Y-125775032D01*
X247788397Y-125836537D01*
X247814441Y-125857911D01*
X247968187Y-125940089D01*
X248135010Y-125990695D01*
X248265023Y-126003500D01*
X248265031Y-126003500D01*
X248308500Y-126007781D01*
X248351969Y-126003500D01*
X250377555Y-126003500D01*
X250382038Y-126008962D01*
X250429297Y-126047746D01*
X250405506Y-126060463D01*
X250308815Y-126139815D01*
X250229463Y-126236506D01*
X250170498Y-126346820D01*
X250134188Y-126466518D01*
X250121928Y-126591000D01*
X250124029Y-126746082D01*
X250101502Y-126671820D01*
X250042537Y-126561506D01*
X249963185Y-126464815D01*
X249866494Y-126385463D01*
X249756180Y-126326498D01*
X249636482Y-126290188D01*
X249512000Y-126277928D01*
X247312000Y-126277928D01*
X247187518Y-126290188D01*
X247067820Y-126326498D01*
X246957506Y-126385463D01*
X246860815Y-126464815D01*
X246794443Y-126545690D01*
X246693831Y-126478463D01*
X246378081Y-126347675D01*
X246042883Y-126281000D01*
X245701117Y-126281000D01*
X245365919Y-126347675D01*
X245050169Y-126478463D01*
X244766002Y-126668337D01*
X244524337Y-126910002D01*
X244334463Y-127194169D01*
X244203675Y-127509919D01*
X244137000Y-127845117D01*
X244137000Y-128186883D01*
X244203675Y-128522081D01*
X244334463Y-128837831D01*
X244524337Y-129121998D01*
X244766002Y-129363663D01*
X245050169Y-129553537D01*
X245365919Y-129684325D01*
X245701117Y-129751000D01*
X246042883Y-129751000D01*
X246378081Y-129684325D01*
X246693831Y-129553537D01*
X246794443Y-129486310D01*
X246860815Y-129567185D01*
X246957506Y-129646537D01*
X247067820Y-129705502D01*
X247187518Y-129741812D01*
X247312000Y-129754072D01*
X249512000Y-129754072D01*
X249636482Y-129741812D01*
X249756180Y-129705502D01*
X249838579Y-129661458D01*
X249846441Y-129667911D01*
X250000187Y-129750089D01*
X250167010Y-129800695D01*
X250297023Y-129813500D01*
X250297031Y-129813500D01*
X250340500Y-129817781D01*
X250378035Y-129814084D01*
X250382038Y-129818962D01*
X250516613Y-129929405D01*
X250670148Y-130011472D01*
X250836744Y-130062008D01*
X251009998Y-130079072D01*
X251910002Y-130079072D01*
X252083256Y-130062008D01*
X252249852Y-130011472D01*
X252403387Y-129929405D01*
X252537962Y-129818962D01*
X252648405Y-129684387D01*
X252730472Y-129530852D01*
X252781008Y-129364256D01*
X252798072Y-129191002D01*
X252798072Y-128665998D01*
X252798003Y-128665298D01*
X254765003Y-126698299D01*
X254794001Y-126674501D01*
X254888974Y-126558776D01*
X254959546Y-126426747D01*
X255003003Y-126283486D01*
X255014000Y-126171833D01*
X255014000Y-126171825D01*
X255017676Y-126134500D01*
X255014000Y-126097175D01*
X255014000Y-121518801D01*
X255367296Y-121165505D01*
X255364110Y-121176009D01*
X255349928Y-121320000D01*
X255349928Y-121520000D01*
X255364110Y-121663991D01*
X255406110Y-121802448D01*
X255474316Y-121930051D01*
X255566104Y-122041896D01*
X255677949Y-122133684D01*
X255805552Y-122201890D01*
X255944009Y-122243890D01*
X255965500Y-122246007D01*
X255965501Y-122417788D01*
X255921563Y-122461726D01*
X255808295Y-122631244D01*
X255730274Y-122819602D01*
X255690500Y-123019561D01*
X255690500Y-123223439D01*
X255730274Y-123423398D01*
X255808295Y-123611756D01*
X255921563Y-123781274D01*
X256065726Y-123925437D01*
X256235244Y-124038705D01*
X256423602Y-124116726D01*
X256623561Y-124156500D01*
X256827439Y-124156500D01*
X257027398Y-124116726D01*
X257215756Y-124038705D01*
X257385274Y-123925437D01*
X257529437Y-123781274D01*
X257642705Y-123611756D01*
X257720726Y-123423398D01*
X257760500Y-123223439D01*
X257760500Y-123019561D01*
X257720726Y-122819602D01*
X257642705Y-122631244D01*
X257529437Y-122461726D01*
X257485500Y-122417789D01*
X257485500Y-122246007D01*
X257506991Y-122243890D01*
X257645448Y-122201890D01*
X257773051Y-122133684D01*
X257884896Y-122041896D01*
X257976684Y-121930051D01*
X258044890Y-121802448D01*
X258086890Y-121663991D01*
X258101072Y-121520000D01*
X258101072Y-121320000D01*
X258086890Y-121176009D01*
X258062316Y-121095000D01*
X258086890Y-121013991D01*
X258101072Y-120870000D01*
X258101072Y-120670000D01*
X258086890Y-120526009D01*
X258062316Y-120445000D01*
X258086890Y-120363991D01*
X258101072Y-120220000D01*
X258101072Y-120020000D01*
X258086890Y-119876009D01*
X258062316Y-119795000D01*
X258086890Y-119713991D01*
X258101072Y-119570000D01*
X258101072Y-119370000D01*
X258086890Y-119226009D01*
X258062316Y-119145000D01*
X258086890Y-119063991D01*
X258101072Y-118920000D01*
X258101072Y-118720000D01*
X258086890Y-118576009D01*
X258062316Y-118495000D01*
X258086890Y-118413991D01*
X258101072Y-118270000D01*
X258101072Y-118070000D01*
X258086890Y-117926009D01*
X258062316Y-117845000D01*
X258086890Y-117763991D01*
X258101072Y-117620000D01*
X258101072Y-117420000D01*
X258086890Y-117276009D01*
X258062316Y-117195000D01*
X258086890Y-117113991D01*
X258101072Y-116970000D01*
X258101072Y-116770000D01*
X258086890Y-116626009D01*
X258062316Y-116545000D01*
X258086890Y-116463991D01*
X258101072Y-116320000D01*
X258101072Y-116120000D01*
X261074928Y-116120000D01*
X261074928Y-116320000D01*
X261089110Y-116463991D01*
X261113684Y-116545000D01*
X261089110Y-116626009D01*
X261074928Y-116770000D01*
X261074928Y-116970000D01*
X261089110Y-117113991D01*
X261113684Y-117195000D01*
X261089110Y-117276009D01*
X261074928Y-117420000D01*
X261074928Y-117620000D01*
X261089110Y-117763991D01*
X261113684Y-117845000D01*
X261089110Y-117926009D01*
X261074928Y-118070000D01*
X261074928Y-118270000D01*
X261089110Y-118413991D01*
X261113684Y-118495000D01*
X261089110Y-118576009D01*
X261074928Y-118720000D01*
X261074928Y-118920000D01*
X261089110Y-119063991D01*
X261113684Y-119145000D01*
X261089110Y-119226009D01*
X261074928Y-119370000D01*
X261074928Y-119570000D01*
X261089110Y-119713991D01*
X261113684Y-119795000D01*
X261089110Y-119876009D01*
X261074928Y-120020000D01*
X261074928Y-120220000D01*
X261089110Y-120363991D01*
X261113684Y-120445000D01*
X261089110Y-120526009D01*
X261074928Y-120670000D01*
X261074928Y-120870000D01*
X261089110Y-121013991D01*
X261113684Y-121095000D01*
X261089110Y-121176009D01*
X261074928Y-121320000D01*
X261074928Y-121520000D01*
X261089110Y-121663991D01*
X261131110Y-121802448D01*
X261199316Y-121930051D01*
X261291104Y-122041896D01*
X261402949Y-122133684D01*
X261530552Y-122201890D01*
X261669009Y-122243890D01*
X261813000Y-122258072D01*
X263088000Y-122258072D01*
X263231991Y-122243890D01*
X263370448Y-122201890D01*
X263498051Y-122133684D01*
X263609896Y-122041896D01*
X263701684Y-121930051D01*
X263769890Y-121802448D01*
X263811890Y-121663991D01*
X263826072Y-121520000D01*
X263826072Y-121390874D01*
X263908001Y-121472803D01*
X263908000Y-125438677D01*
X263904324Y-125476000D01*
X263908000Y-125513322D01*
X263908000Y-125513332D01*
X263918997Y-125624985D01*
X263957973Y-125753474D01*
X263962454Y-125768246D01*
X264033026Y-125900276D01*
X264063025Y-125936829D01*
X264127999Y-126016001D01*
X264157003Y-126039804D01*
X265719928Y-127602730D01*
X265719928Y-128104000D01*
X265732188Y-128228482D01*
X265768498Y-128348180D01*
X265827463Y-128458494D01*
X265906815Y-128555185D01*
X266003506Y-128634537D01*
X266113820Y-128693502D01*
X266233518Y-128729812D01*
X266358000Y-128742072D01*
X268058000Y-128742072D01*
X268182482Y-128729812D01*
X268302180Y-128693502D01*
X268412494Y-128634537D01*
X268509185Y-128555185D01*
X268588537Y-128458494D01*
X268647502Y-128348180D01*
X268683812Y-128228482D01*
X268696072Y-128104000D01*
X268696072Y-126404000D01*
X268683812Y-126279518D01*
X268647502Y-126159820D01*
X268588537Y-126049506D01*
X268509185Y-125952815D01*
X268412494Y-125873463D01*
X268302180Y-125814498D01*
X268229620Y-125792487D01*
X268361475Y-125660632D01*
X268523990Y-125417411D01*
X268635932Y-125147158D01*
X268693000Y-124860260D01*
X268693000Y-124567740D01*
X268635932Y-124280842D01*
X268523990Y-124010589D01*
X268361475Y-123767368D01*
X268154632Y-123560525D01*
X267980240Y-123444000D01*
X268154632Y-123327475D01*
X268361475Y-123120632D01*
X268523990Y-122877411D01*
X268635932Y-122607158D01*
X268693000Y-122320260D01*
X268693000Y-122027740D01*
X268635932Y-121740842D01*
X268523990Y-121470589D01*
X268361475Y-121227368D01*
X268154632Y-121020525D01*
X267980240Y-120904000D01*
X268154632Y-120787475D01*
X268361475Y-120580632D01*
X268523990Y-120337411D01*
X268635932Y-120067158D01*
X268693000Y-119780260D01*
X268693000Y-119487740D01*
X268635932Y-119200842D01*
X268523990Y-118930589D01*
X268361475Y-118687368D01*
X268154632Y-118480525D01*
X267980240Y-118364000D01*
X268154632Y-118247475D01*
X268361475Y-118040632D01*
X268523990Y-117797411D01*
X268635932Y-117527158D01*
X268693000Y-117240260D01*
X268693000Y-116947740D01*
X268635932Y-116660842D01*
X268523990Y-116390589D01*
X268361475Y-116147368D01*
X268154632Y-115940525D01*
X267980240Y-115824000D01*
X268154632Y-115707475D01*
X268361475Y-115500632D01*
X268523990Y-115257411D01*
X268635932Y-114987158D01*
X268693000Y-114700260D01*
X268693000Y-114407740D01*
X268635932Y-114120842D01*
X268523990Y-113850589D01*
X268361475Y-113607368D01*
X268154632Y-113400525D01*
X267980240Y-113284000D01*
X268154632Y-113167475D01*
X268361475Y-112960632D01*
X268523990Y-112717411D01*
X268635932Y-112447158D01*
X268693000Y-112160260D01*
X268693000Y-111867740D01*
X268635932Y-111580842D01*
X268523990Y-111310589D01*
X268361475Y-111067368D01*
X268154632Y-110860525D01*
X267972466Y-110738805D01*
X268089355Y-110669178D01*
X268305588Y-110474269D01*
X268479641Y-110240920D01*
X268604825Y-109978099D01*
X268649476Y-109830890D01*
X268528155Y-109601000D01*
X267335000Y-109601000D01*
X267335000Y-109621000D01*
X267081000Y-109621000D01*
X267081000Y-109601000D01*
X265887845Y-109601000D01*
X265766524Y-109830890D01*
X265811175Y-109978099D01*
X265936359Y-110240920D01*
X266110412Y-110474269D01*
X266326645Y-110669178D01*
X266443534Y-110738805D01*
X266261368Y-110860525D01*
X266054525Y-111067368D01*
X265892010Y-111310589D01*
X265780068Y-111580842D01*
X265723000Y-111867740D01*
X265723000Y-112160260D01*
X265780068Y-112447158D01*
X265892010Y-112717411D01*
X266054525Y-112960632D01*
X266261368Y-113167475D01*
X266435760Y-113284000D01*
X266261368Y-113400525D01*
X266054525Y-113607368D01*
X265892010Y-113850589D01*
X265780068Y-114120842D01*
X265723000Y-114407740D01*
X265723000Y-114700260D01*
X265766790Y-114920408D01*
X265174000Y-115513199D01*
X265174000Y-114749711D01*
X265217937Y-114705774D01*
X265331205Y-114536256D01*
X265409226Y-114347898D01*
X265449000Y-114147939D01*
X265449000Y-113944061D01*
X265409226Y-113744102D01*
X265331205Y-113555744D01*
X265217937Y-113386226D01*
X265073774Y-113242063D01*
X264904256Y-113128795D01*
X264715898Y-113050774D01*
X264515939Y-113011000D01*
X264312061Y-113011000D01*
X264112102Y-113050774D01*
X263923744Y-113128795D01*
X263754226Y-113242063D01*
X263610063Y-113386226D01*
X263496795Y-113555744D01*
X263418774Y-113744102D01*
X263379000Y-113944061D01*
X263379000Y-114147939D01*
X263418774Y-114347898D01*
X263496795Y-114536256D01*
X263610063Y-114705774D01*
X263654001Y-114749712D01*
X263654000Y-114937669D01*
X263632346Y-114912078D01*
X263534471Y-114834189D01*
X263423282Y-114776891D01*
X263303052Y-114742386D01*
X263178400Y-114732000D01*
X262736250Y-114735000D01*
X262577500Y-114893750D01*
X262577500Y-115381928D01*
X262323500Y-115381928D01*
X262323500Y-114893750D01*
X262164750Y-114735000D01*
X261722600Y-114732000D01*
X261597948Y-114742386D01*
X261477718Y-114776891D01*
X261366529Y-114834189D01*
X261268654Y-114912078D01*
X261187856Y-115007564D01*
X261127239Y-115116979D01*
X261089132Y-115236117D01*
X261078000Y-115338250D01*
X261236750Y-115497000D01*
X261420378Y-115497000D01*
X261402949Y-115506316D01*
X261291104Y-115598104D01*
X261254259Y-115643000D01*
X261236750Y-115643000D01*
X261078000Y-115801750D01*
X261089132Y-115903883D01*
X261100350Y-115938955D01*
X261089110Y-115976009D01*
X261074928Y-116120000D01*
X258101072Y-116120000D01*
X258086890Y-115976009D01*
X258075650Y-115938955D01*
X258086868Y-115903883D01*
X258098000Y-115801750D01*
X257939250Y-115643000D01*
X257921741Y-115643000D01*
X257884896Y-115598104D01*
X257773051Y-115506316D01*
X257755622Y-115497000D01*
X257939250Y-115497000D01*
X258098000Y-115338250D01*
X258086868Y-115236117D01*
X258048761Y-115116979D01*
X257988144Y-115007564D01*
X257907346Y-114912078D01*
X257809471Y-114834189D01*
X257698282Y-114776891D01*
X257578052Y-114742386D01*
X257453400Y-114732000D01*
X257011250Y-114735000D01*
X256852500Y-114893750D01*
X256852500Y-115381928D01*
X256598500Y-115381928D01*
X256598500Y-114893750D01*
X256439750Y-114735000D01*
X255997600Y-114732000D01*
X255872948Y-114742386D01*
X255752718Y-114776891D01*
X255641529Y-114834189D01*
X255543654Y-114912078D01*
X255522000Y-114937668D01*
X255522000Y-111797323D01*
X255525676Y-111760000D01*
X255522000Y-111722677D01*
X255522000Y-111722667D01*
X255511003Y-111611014D01*
X255467546Y-111467753D01*
X255396974Y-111335724D01*
X255302001Y-111219999D01*
X255273003Y-111196201D01*
X253444304Y-109367503D01*
X253420501Y-109338499D01*
X253304776Y-109243526D01*
X253172747Y-109172954D01*
X253029486Y-109129497D01*
X252917833Y-109118500D01*
X252917822Y-109118500D01*
X252903710Y-109117110D01*
X265766524Y-109117110D01*
X265887845Y-109347000D01*
X267081000Y-109347000D01*
X267081000Y-108153186D01*
X267335000Y-108153186D01*
X267335000Y-109347000D01*
X268528155Y-109347000D01*
X268649476Y-109117110D01*
X268604825Y-108969901D01*
X268479641Y-108707080D01*
X268305588Y-108473731D01*
X268089355Y-108278822D01*
X267839252Y-108129843D01*
X267564891Y-108032519D01*
X267335000Y-108153186D01*
X267081000Y-108153186D01*
X266851109Y-108032519D01*
X266576748Y-108129843D01*
X266326645Y-108278822D01*
X266110412Y-108473731D01*
X265936359Y-108707080D01*
X265811175Y-108969901D01*
X265766524Y-109117110D01*
X252903710Y-109117110D01*
X252880500Y-109114824D01*
X252843178Y-109118500D01*
X252645030Y-109118500D01*
X252581724Y-109041363D01*
X252611185Y-109017185D01*
X252690537Y-108920494D01*
X252749502Y-108810180D01*
X252785812Y-108690482D01*
X252798072Y-108566000D01*
X252795000Y-108339250D01*
X252636250Y-108180500D01*
X251587000Y-108180500D01*
X251587000Y-108200500D01*
X251333000Y-108200500D01*
X251333000Y-108180500D01*
X251313000Y-108180500D01*
X251313000Y-107926500D01*
X251333000Y-107926500D01*
X251333000Y-107064750D01*
X251587000Y-107064750D01*
X251587000Y-107926500D01*
X252636250Y-107926500D01*
X252795000Y-107767750D01*
X252798072Y-107541000D01*
X252785812Y-107416518D01*
X252749502Y-107296820D01*
X252690537Y-107186506D01*
X252611185Y-107089815D01*
X252514494Y-107010463D01*
X252404180Y-106951498D01*
X252284482Y-106915188D01*
X252160000Y-106902928D01*
X251745750Y-106906000D01*
X251587000Y-107064750D01*
X251333000Y-107064750D01*
X251174250Y-106906000D01*
X250760000Y-106902928D01*
X250635518Y-106915188D01*
X250515820Y-106951498D01*
X250405506Y-107010463D01*
X250308815Y-107089815D01*
X250229463Y-107186506D01*
X250170498Y-107296820D01*
X250134188Y-107416518D01*
X250121928Y-107541000D01*
X250124029Y-107696082D01*
X250101502Y-107621820D01*
X250042537Y-107511506D01*
X249963185Y-107414815D01*
X249866494Y-107335463D01*
X249756180Y-107276498D01*
X249636482Y-107240188D01*
X249512000Y-107227928D01*
X247312000Y-107227928D01*
X247187518Y-107240188D01*
X247067820Y-107276498D01*
X246957506Y-107335463D01*
X246860815Y-107414815D01*
X246794443Y-107495690D01*
X246693831Y-107428463D01*
X246378081Y-107297675D01*
X246042883Y-107231000D01*
X245701117Y-107231000D01*
X245365919Y-107297675D01*
X245304088Y-107323286D01*
X240593804Y-102613003D01*
X240570001Y-102583999D01*
X240454276Y-102489026D01*
X240322247Y-102418454D01*
X240178986Y-102374997D01*
X240067333Y-102364000D01*
X240067322Y-102364000D01*
X240030000Y-102360324D01*
X239992678Y-102364000D01*
X141638089Y-102364000D01*
X141600766Y-102360324D01*
X141563443Y-102364000D01*
X141563434Y-102364000D01*
X141451781Y-102374997D01*
X141308520Y-102418454D01*
X141176491Y-102489026D01*
X141060766Y-102583999D01*
X141036968Y-102612997D01*
X136692021Y-106957945D01*
X136663023Y-106981743D01*
X136639225Y-107010741D01*
X136639224Y-107010742D01*
X136568049Y-107097468D01*
X136497477Y-107229498D01*
X136468205Y-107326000D01*
X136454021Y-107372758D01*
X136447497Y-107438998D01*
X136439347Y-107521744D01*
X136443024Y-107559076D01*
X136443024Y-109459678D01*
X136429185Y-109442815D01*
X136332494Y-109363463D01*
X136222180Y-109304498D01*
X136102482Y-109268188D01*
X135978000Y-109255928D01*
X134278000Y-109255928D01*
X134153518Y-109268188D01*
X134033820Y-109304498D01*
X133923506Y-109363463D01*
X133826815Y-109442815D01*
X133747463Y-109539506D01*
X133688498Y-109649820D01*
X133652188Y-109769518D01*
X133639928Y-109894000D01*
X129946000Y-109894000D01*
X129946000Y-100990000D01*
X272898001Y-100990000D01*
X272898000Y-135484000D01*
G37*
%TD.AperFunction*%
D17*
X251587000Y-126976500D02*
X251607000Y-126976500D01*
X251607000Y-127230500D01*
X251587000Y-127230500D01*
X251587000Y-127250500D01*
X251333000Y-127250500D01*
X251333000Y-127230500D01*
X251313000Y-127230500D01*
X251313000Y-126976500D01*
X251333000Y-126976500D01*
X251333000Y-126956500D01*
X251587000Y-126956500D01*
X251587000Y-126976500D01*
%TA.AperFunction,Conductor*%
D18*
G36*
X251587000Y-126976500D02*
G01*
X251607000Y-126976500D01*
X251607000Y-127230500D01*
X251587000Y-127230500D01*
X251587000Y-127250500D01*
X251333000Y-127250500D01*
X251333000Y-127230500D01*
X251313000Y-127230500D01*
X251313000Y-126976500D01*
X251333000Y-126976500D01*
X251333000Y-126956500D01*
X251587000Y-126956500D01*
X251587000Y-126976500D01*
G37*
%TD.AperFunction*%
D17*
X253494001Y-125819697D02*
X252791314Y-126522384D01*
X252785812Y-126466518D01*
X252749502Y-126346820D01*
X252690537Y-126236506D01*
X252611185Y-126139815D01*
X252514494Y-126060463D01*
X252490703Y-126047746D01*
X252537962Y-126008962D01*
X252648405Y-125874387D01*
X252730472Y-125720852D01*
X252781008Y-125554256D01*
X252788706Y-125476095D01*
X253494001Y-124770801D01*
X253494001Y-125819697D01*
%TA.AperFunction,Conductor*%
D18*
G36*
X253494001Y-125819697D02*
G01*
X252791314Y-126522384D01*
X252785812Y-126466518D01*
X252749502Y-126346820D01*
X252690537Y-126236506D01*
X252611185Y-126139815D01*
X252514494Y-126060463D01*
X252490703Y-126047746D01*
X252537962Y-126008962D01*
X252648405Y-125874387D01*
X252730472Y-125720852D01*
X252781008Y-125554256D01*
X252788706Y-125476095D01*
X253494001Y-124770801D01*
X253494001Y-125819697D01*
G37*
%TD.AperFunction*%
D17*
X252986001Y-123129197D02*
X252665474Y-123449724D01*
X252636250Y-123420500D01*
X251587000Y-123420500D01*
X251587000Y-123440500D01*
X251333000Y-123440500D01*
X251333000Y-123420500D01*
X250283750Y-123420500D01*
X250125000Y-123579250D01*
X250121928Y-123806000D01*
X250134188Y-123930482D01*
X250170498Y-124050180D01*
X250229463Y-124160494D01*
X250289377Y-124233500D01*
X248675079Y-124233500D01*
X248052534Y-123610956D01*
X248024817Y-123577183D01*
X247890059Y-123466589D01*
X247736313Y-123384411D01*
X247569490Y-123333805D01*
X247439477Y-123321000D01*
X247439469Y-123321000D01*
X247396000Y-123316719D01*
X247352531Y-123321000D01*
X244054072Y-123321000D01*
X244054072Y-123106000D01*
X244041812Y-122981518D01*
X244005502Y-122861820D01*
X243946537Y-122751506D01*
X243867185Y-122654815D01*
X243770494Y-122575463D01*
X243660180Y-122516498D01*
X243540482Y-122480188D01*
X243416000Y-122467928D01*
X241495650Y-122467928D01*
X241829506Y-122134072D01*
X242901317Y-122134072D01*
X243055010Y-122180695D01*
X243185023Y-122193500D01*
X243185031Y-122193500D01*
X243228500Y-122197781D01*
X243271969Y-122193500D01*
X250377555Y-122193500D01*
X250382038Y-122198962D01*
X250429297Y-122237746D01*
X250405506Y-122250463D01*
X250308815Y-122329815D01*
X250229463Y-122426506D01*
X250170498Y-122536820D01*
X250134188Y-122656518D01*
X250121928Y-122781000D01*
X250125000Y-123007750D01*
X250283750Y-123166500D01*
X251333000Y-123166500D01*
X251333000Y-123146500D01*
X251587000Y-123146500D01*
X251587000Y-123166500D01*
X252636250Y-123166500D01*
X252795000Y-123007750D01*
X252798072Y-122781000D01*
X252785812Y-122656518D01*
X252749502Y-122536820D01*
X252690537Y-122426506D01*
X252611185Y-122329815D01*
X252514494Y-122250463D01*
X252490703Y-122237746D01*
X252537962Y-122198962D01*
X252648405Y-122064387D01*
X252730472Y-121910852D01*
X252781008Y-121744256D01*
X252788706Y-121666095D01*
X252986000Y-121468801D01*
X252986001Y-123129197D01*
%TA.AperFunction,Conductor*%
D18*
G36*
X252986001Y-123129197D02*
G01*
X252665474Y-123449724D01*
X252636250Y-123420500D01*
X251587000Y-123420500D01*
X251587000Y-123440500D01*
X251333000Y-123440500D01*
X251333000Y-123420500D01*
X250283750Y-123420500D01*
X250125000Y-123579250D01*
X250121928Y-123806000D01*
X250134188Y-123930482D01*
X250170498Y-124050180D01*
X250229463Y-124160494D01*
X250289377Y-124233500D01*
X248675079Y-124233500D01*
X248052534Y-123610956D01*
X248024817Y-123577183D01*
X247890059Y-123466589D01*
X247736313Y-123384411D01*
X247569490Y-123333805D01*
X247439477Y-123321000D01*
X247439469Y-123321000D01*
X247396000Y-123316719D01*
X247352531Y-123321000D01*
X244054072Y-123321000D01*
X244054072Y-123106000D01*
X244041812Y-122981518D01*
X244005502Y-122861820D01*
X243946537Y-122751506D01*
X243867185Y-122654815D01*
X243770494Y-122575463D01*
X243660180Y-122516498D01*
X243540482Y-122480188D01*
X243416000Y-122467928D01*
X241495650Y-122467928D01*
X241829506Y-122134072D01*
X242901317Y-122134072D01*
X243055010Y-122180695D01*
X243185023Y-122193500D01*
X243185031Y-122193500D01*
X243228500Y-122197781D01*
X243271969Y-122193500D01*
X250377555Y-122193500D01*
X250382038Y-122198962D01*
X250429297Y-122237746D01*
X250405506Y-122250463D01*
X250308815Y-122329815D01*
X250229463Y-122426506D01*
X250170498Y-122536820D01*
X250134188Y-122656518D01*
X250121928Y-122781000D01*
X250125000Y-123007750D01*
X250283750Y-123166500D01*
X251333000Y-123166500D01*
X251333000Y-123146500D01*
X251587000Y-123146500D01*
X251587000Y-123166500D01*
X252636250Y-123166500D01*
X252795000Y-123007750D01*
X252798072Y-122781000D01*
X252785812Y-122656518D01*
X252749502Y-122536820D01*
X252690537Y-122426506D01*
X252611185Y-122329815D01*
X252514494Y-122250463D01*
X252490703Y-122237746D01*
X252537962Y-122198962D01*
X252648405Y-122064387D01*
X252730472Y-121910852D01*
X252781008Y-121744256D01*
X252788706Y-121666095D01*
X252986000Y-121468801D01*
X252986001Y-123129197D01*
G37*
%TD.AperFunction*%
D17*
X252665474Y-119639724D02*
X252636250Y-119610500D01*
X251587000Y-119610500D01*
X251587000Y-119630500D01*
X251333000Y-119630500D01*
X251333000Y-119610500D01*
X250283750Y-119610500D01*
X250125000Y-119769250D01*
X250121928Y-119996000D01*
X250134188Y-120120482D01*
X250170498Y-120240180D01*
X250229463Y-120350494D01*
X250289377Y-120423500D01*
X244054072Y-120423500D01*
X244054072Y-119296000D01*
X244049443Y-119249000D01*
X247352531Y-119249000D01*
X247396000Y-119253281D01*
X247439469Y-119249000D01*
X247439477Y-119249000D01*
X247569490Y-119236195D01*
X247736313Y-119185589D01*
X247890059Y-119103411D01*
X248024817Y-118992817D01*
X248052534Y-118959044D01*
X248687507Y-118324072D01*
X248997317Y-118324072D01*
X249151010Y-118370695D01*
X249281023Y-118383500D01*
X249281031Y-118383500D01*
X249324500Y-118387781D01*
X249367969Y-118383500D01*
X250377555Y-118383500D01*
X250382038Y-118388962D01*
X250429297Y-118427746D01*
X250405506Y-118440463D01*
X250308815Y-118519815D01*
X250229463Y-118616506D01*
X250170498Y-118726820D01*
X250134188Y-118846518D01*
X250121928Y-118971000D01*
X250125000Y-119197750D01*
X250283750Y-119356500D01*
X251333000Y-119356500D01*
X251333000Y-119336500D01*
X251587000Y-119336500D01*
X251587000Y-119356500D01*
X252636250Y-119356500D01*
X252795000Y-119197750D01*
X252798072Y-118971000D01*
X252785812Y-118846518D01*
X252749502Y-118726820D01*
X252690537Y-118616506D01*
X252611185Y-118519815D01*
X252514494Y-118440463D01*
X252490703Y-118427746D01*
X252537962Y-118388962D01*
X252627385Y-118280000D01*
X254025198Y-118280000D01*
X252665474Y-119639724D01*
%TA.AperFunction,Conductor*%
D18*
G36*
X252665474Y-119639724D02*
G01*
X252636250Y-119610500D01*
X251587000Y-119610500D01*
X251587000Y-119630500D01*
X251333000Y-119630500D01*
X251333000Y-119610500D01*
X250283750Y-119610500D01*
X250125000Y-119769250D01*
X250121928Y-119996000D01*
X250134188Y-120120482D01*
X250170498Y-120240180D01*
X250229463Y-120350494D01*
X250289377Y-120423500D01*
X244054072Y-120423500D01*
X244054072Y-119296000D01*
X244049443Y-119249000D01*
X247352531Y-119249000D01*
X247396000Y-119253281D01*
X247439469Y-119249000D01*
X247439477Y-119249000D01*
X247569490Y-119236195D01*
X247736313Y-119185589D01*
X247890059Y-119103411D01*
X248024817Y-118992817D01*
X248052534Y-118959044D01*
X248687507Y-118324072D01*
X248997317Y-118324072D01*
X249151010Y-118370695D01*
X249281023Y-118383500D01*
X249281031Y-118383500D01*
X249324500Y-118387781D01*
X249367969Y-118383500D01*
X250377555Y-118383500D01*
X250382038Y-118388962D01*
X250429297Y-118427746D01*
X250405506Y-118440463D01*
X250308815Y-118519815D01*
X250229463Y-118616506D01*
X250170498Y-118726820D01*
X250134188Y-118846518D01*
X250121928Y-118971000D01*
X250125000Y-119197750D01*
X250283750Y-119356500D01*
X251333000Y-119356500D01*
X251333000Y-119336500D01*
X251587000Y-119336500D01*
X251587000Y-119356500D01*
X252636250Y-119356500D01*
X252795000Y-119197750D01*
X252798072Y-118971000D01*
X252785812Y-118846518D01*
X252749502Y-118726820D01*
X252690537Y-118616506D01*
X252611185Y-118519815D01*
X252514494Y-118440463D01*
X252490703Y-118427746D01*
X252537962Y-118388962D01*
X252627385Y-118280000D01*
X254025198Y-118280000D01*
X252665474Y-119639724D01*
G37*
%TD.AperFunction*%
D17*
X254369197Y-116760000D02*
X252657699Y-116760000D01*
X252648405Y-116742613D01*
X252581724Y-116661363D01*
X252611185Y-116637185D01*
X252690537Y-116540494D01*
X252749502Y-116430180D01*
X252785812Y-116310482D01*
X252798072Y-116186000D01*
X252795000Y-115959250D01*
X252636250Y-115800500D01*
X251587000Y-115800500D01*
X251587000Y-115820500D01*
X251333000Y-115820500D01*
X251333000Y-115800500D01*
X251313000Y-115800500D01*
X251313000Y-115546500D01*
X251333000Y-115546500D01*
X251333000Y-115526500D01*
X251587000Y-115526500D01*
X251587000Y-115546500D01*
X252636250Y-115546500D01*
X252795000Y-115387750D01*
X252797699Y-115188501D01*
X254369197Y-116760000D01*
%TA.AperFunction,Conductor*%
D18*
G36*
X254369197Y-116760000D02*
G01*
X252657699Y-116760000D01*
X252648405Y-116742613D01*
X252581724Y-116661363D01*
X252611185Y-116637185D01*
X252690537Y-116540494D01*
X252749502Y-116430180D01*
X252785812Y-116310482D01*
X252798072Y-116186000D01*
X252795000Y-115959250D01*
X252636250Y-115800500D01*
X251587000Y-115800500D01*
X251587000Y-115820500D01*
X251333000Y-115820500D01*
X251333000Y-115800500D01*
X251313000Y-115800500D01*
X251313000Y-115546500D01*
X251333000Y-115546500D01*
X251333000Y-115526500D01*
X251587000Y-115526500D01*
X251587000Y-115546500D01*
X252636250Y-115546500D01*
X252795000Y-115387750D01*
X252797699Y-115188501D01*
X254369197Y-116760000D01*
G37*
%TD.AperFunction*%
D17*
X249746187Y-110700089D02*
X249913010Y-110750695D01*
X250043023Y-110763500D01*
X250043031Y-110763500D01*
X250086500Y-110767781D01*
X250129969Y-110763500D01*
X250377555Y-110763500D01*
X250382038Y-110768962D01*
X250429297Y-110807746D01*
X250405506Y-110820463D01*
X250308815Y-110899815D01*
X250229463Y-110996506D01*
X250170498Y-111106820D01*
X250134188Y-111226518D01*
X250121928Y-111351000D01*
X250125000Y-111577750D01*
X250283750Y-111736500D01*
X251333000Y-111736500D01*
X251333000Y-111716500D01*
X251587000Y-111716500D01*
X251587000Y-111736500D01*
X252636250Y-111736500D01*
X252795000Y-111577750D01*
X252798072Y-111351000D01*
X252785812Y-111226518D01*
X252749502Y-111106820D01*
X252690537Y-110996506D01*
X252611185Y-110899815D01*
X252514494Y-110820463D01*
X252490703Y-110807746D01*
X252537962Y-110768962D01*
X252609271Y-110682072D01*
X254002001Y-112074803D01*
X254002000Y-114243199D01*
X252936304Y-113177503D01*
X252912501Y-113148499D01*
X252796776Y-113053526D01*
X252679539Y-112990861D01*
X252648405Y-112932613D01*
X252581724Y-112851363D01*
X252611185Y-112827185D01*
X252690537Y-112730494D01*
X252749502Y-112620180D01*
X252785812Y-112500482D01*
X252798072Y-112376000D01*
X252795000Y-112149250D01*
X252636250Y-111990500D01*
X251587000Y-111990500D01*
X251587000Y-112010500D01*
X251333000Y-112010500D01*
X251333000Y-111990500D01*
X250283750Y-111990500D01*
X250125000Y-112149250D01*
X250124035Y-112220457D01*
X249830534Y-111926956D01*
X249802817Y-111893183D01*
X249668059Y-111782589D01*
X249514313Y-111700411D01*
X249347490Y-111649805D01*
X249217477Y-111637000D01*
X249217469Y-111637000D01*
X249174000Y-111632719D01*
X249130531Y-111637000D01*
X189186231Y-111637000D01*
X189185432Y-111628893D01*
X189186523Y-111629000D01*
X189186531Y-111629000D01*
X189230000Y-111633281D01*
X189273469Y-111629000D01*
X191726531Y-111629000D01*
X191770000Y-111633281D01*
X191813469Y-111629000D01*
X191813477Y-111629000D01*
X191943490Y-111616195D01*
X192110313Y-111565589D01*
X192264059Y-111483411D01*
X192398817Y-111372817D01*
X192426534Y-111339044D01*
X193061506Y-110704072D01*
X194034493Y-110704072D01*
X194669470Y-111339049D01*
X194697183Y-111372817D01*
X194730951Y-111400530D01*
X194730953Y-111400532D01*
X194803415Y-111460000D01*
X194831941Y-111483411D01*
X194985687Y-111565589D01*
X195152510Y-111616195D01*
X195282523Y-111629000D01*
X195282531Y-111629000D01*
X195326000Y-111633281D01*
X195369469Y-111629000D01*
X197822531Y-111629000D01*
X197866000Y-111633281D01*
X197909469Y-111629000D01*
X197909477Y-111629000D01*
X198039490Y-111616195D01*
X198206313Y-111565589D01*
X198360059Y-111483411D01*
X198494817Y-111372817D01*
X198522534Y-111339044D01*
X199157506Y-110704072D01*
X200130493Y-110704072D01*
X200765470Y-111339049D01*
X200793183Y-111372817D01*
X200826951Y-111400530D01*
X200826953Y-111400532D01*
X200899415Y-111460000D01*
X200927941Y-111483411D01*
X201081687Y-111565589D01*
X201248510Y-111616195D01*
X201378523Y-111629000D01*
X201378531Y-111629000D01*
X201422000Y-111633281D01*
X201465469Y-111629000D01*
X203918531Y-111629000D01*
X203962000Y-111633281D01*
X204005469Y-111629000D01*
X204005477Y-111629000D01*
X204135490Y-111616195D01*
X204302313Y-111565589D01*
X204456059Y-111483411D01*
X204590817Y-111372817D01*
X204618534Y-111339044D01*
X205253506Y-110704072D01*
X206226493Y-110704072D01*
X206861470Y-111339049D01*
X206889183Y-111372817D01*
X206922951Y-111400530D01*
X206922953Y-111400532D01*
X206995415Y-111460000D01*
X207023941Y-111483411D01*
X207177687Y-111565589D01*
X207344510Y-111616195D01*
X207474523Y-111629000D01*
X207474531Y-111629000D01*
X207518000Y-111633281D01*
X207561469Y-111629000D01*
X210014531Y-111629000D01*
X210058000Y-111633281D01*
X210101469Y-111629000D01*
X210101477Y-111629000D01*
X210231490Y-111616195D01*
X210398313Y-111565589D01*
X210552059Y-111483411D01*
X210686817Y-111372817D01*
X210714534Y-111339044D01*
X211349506Y-110704072D01*
X212322493Y-110704072D01*
X212957470Y-111339049D01*
X212985183Y-111372817D01*
X213018951Y-111400530D01*
X213018953Y-111400532D01*
X213091415Y-111460000D01*
X213119941Y-111483411D01*
X213273687Y-111565589D01*
X213440510Y-111616195D01*
X213570523Y-111629000D01*
X213570531Y-111629000D01*
X213614000Y-111633281D01*
X213657469Y-111629000D01*
X216110531Y-111629000D01*
X216154000Y-111633281D01*
X216197469Y-111629000D01*
X216197477Y-111629000D01*
X216327490Y-111616195D01*
X216494313Y-111565589D01*
X216648059Y-111483411D01*
X216782817Y-111372817D01*
X216810534Y-111339044D01*
X217445506Y-110704072D01*
X218418493Y-110704072D01*
X219053470Y-111339049D01*
X219081183Y-111372817D01*
X219114951Y-111400530D01*
X219114953Y-111400532D01*
X219187415Y-111460000D01*
X219215941Y-111483411D01*
X219369687Y-111565589D01*
X219536510Y-111616195D01*
X219666523Y-111629000D01*
X219666531Y-111629000D01*
X219710000Y-111633281D01*
X219753469Y-111629000D01*
X222206531Y-111629000D01*
X222250000Y-111633281D01*
X222293469Y-111629000D01*
X222293477Y-111629000D01*
X222423490Y-111616195D01*
X222590313Y-111565589D01*
X222744059Y-111483411D01*
X222878817Y-111372817D01*
X222906534Y-111339044D01*
X223541506Y-110704072D01*
X224514493Y-110704072D01*
X225149470Y-111339049D01*
X225177183Y-111372817D01*
X225210951Y-111400530D01*
X225210953Y-111400532D01*
X225283415Y-111460000D01*
X225311941Y-111483411D01*
X225465687Y-111565589D01*
X225632510Y-111616195D01*
X225762523Y-111629000D01*
X225762531Y-111629000D01*
X225806000Y-111633281D01*
X225849469Y-111629000D01*
X228302531Y-111629000D01*
X228346000Y-111633281D01*
X228389469Y-111629000D01*
X228389477Y-111629000D01*
X228519490Y-111616195D01*
X228686313Y-111565589D01*
X228840059Y-111483411D01*
X228974817Y-111372817D01*
X229002534Y-111339044D01*
X229637506Y-110704072D01*
X230610493Y-110704072D01*
X231245470Y-111339049D01*
X231273183Y-111372817D01*
X231306951Y-111400530D01*
X231306953Y-111400532D01*
X231379415Y-111460000D01*
X231407941Y-111483411D01*
X231561687Y-111565589D01*
X231728510Y-111616195D01*
X231858523Y-111629000D01*
X231858531Y-111629000D01*
X231902000Y-111633281D01*
X231945469Y-111629000D01*
X234398531Y-111629000D01*
X234442000Y-111633281D01*
X234485469Y-111629000D01*
X234485477Y-111629000D01*
X234615490Y-111616195D01*
X234782313Y-111565589D01*
X234936059Y-111483411D01*
X235070817Y-111372817D01*
X235098534Y-111339044D01*
X235733506Y-110704072D01*
X236706493Y-110704072D01*
X237341470Y-111339049D01*
X237369183Y-111372817D01*
X237402951Y-111400530D01*
X237402953Y-111400532D01*
X237475415Y-111460000D01*
X237503941Y-111483411D01*
X237657687Y-111565589D01*
X237824510Y-111616195D01*
X237954523Y-111629000D01*
X237954531Y-111629000D01*
X237998000Y-111633281D01*
X238041469Y-111629000D01*
X240494531Y-111629000D01*
X240538000Y-111633281D01*
X240581469Y-111629000D01*
X240581477Y-111629000D01*
X240711490Y-111616195D01*
X240878313Y-111565589D01*
X241032059Y-111483411D01*
X241166817Y-111372817D01*
X241194534Y-111339044D01*
X241829506Y-110704072D01*
X242802493Y-110704072D01*
X243437470Y-111339049D01*
X243465183Y-111372817D01*
X243498951Y-111400530D01*
X243498953Y-111400532D01*
X243571415Y-111460000D01*
X243599941Y-111483411D01*
X243753687Y-111565589D01*
X243920510Y-111616195D01*
X244050523Y-111629000D01*
X244050531Y-111629000D01*
X244094000Y-111633281D01*
X244137469Y-111629000D01*
X246590531Y-111629000D01*
X246634000Y-111633281D01*
X246677469Y-111629000D01*
X246677477Y-111629000D01*
X246807490Y-111616195D01*
X246974313Y-111565589D01*
X247128059Y-111483411D01*
X247262817Y-111372817D01*
X247290534Y-111339044D01*
X247925506Y-110704072D01*
X249512000Y-110704072D01*
X249636482Y-110691812D01*
X249696589Y-110673579D01*
X249746187Y-110700089D01*
%TA.AperFunction,Conductor*%
D18*
G36*
X249746187Y-110700089D02*
G01*
X249913010Y-110750695D01*
X250043023Y-110763500D01*
X250043031Y-110763500D01*
X250086500Y-110767781D01*
X250129969Y-110763500D01*
X250377555Y-110763500D01*
X250382038Y-110768962D01*
X250429297Y-110807746D01*
X250405506Y-110820463D01*
X250308815Y-110899815D01*
X250229463Y-110996506D01*
X250170498Y-111106820D01*
X250134188Y-111226518D01*
X250121928Y-111351000D01*
X250125000Y-111577750D01*
X250283750Y-111736500D01*
X251333000Y-111736500D01*
X251333000Y-111716500D01*
X251587000Y-111716500D01*
X251587000Y-111736500D01*
X252636250Y-111736500D01*
X252795000Y-111577750D01*
X252798072Y-111351000D01*
X252785812Y-111226518D01*
X252749502Y-111106820D01*
X252690537Y-110996506D01*
X252611185Y-110899815D01*
X252514494Y-110820463D01*
X252490703Y-110807746D01*
X252537962Y-110768962D01*
X252609271Y-110682072D01*
X254002001Y-112074803D01*
X254002000Y-114243199D01*
X252936304Y-113177503D01*
X252912501Y-113148499D01*
X252796776Y-113053526D01*
X252679539Y-112990861D01*
X252648405Y-112932613D01*
X252581724Y-112851363D01*
X252611185Y-112827185D01*
X252690537Y-112730494D01*
X252749502Y-112620180D01*
X252785812Y-112500482D01*
X252798072Y-112376000D01*
X252795000Y-112149250D01*
X252636250Y-111990500D01*
X251587000Y-111990500D01*
X251587000Y-112010500D01*
X251333000Y-112010500D01*
X251333000Y-111990500D01*
X250283750Y-111990500D01*
X250125000Y-112149250D01*
X250124035Y-112220457D01*
X249830534Y-111926956D01*
X249802817Y-111893183D01*
X249668059Y-111782589D01*
X249514313Y-111700411D01*
X249347490Y-111649805D01*
X249217477Y-111637000D01*
X249217469Y-111637000D01*
X249174000Y-111632719D01*
X249130531Y-111637000D01*
X189186231Y-111637000D01*
X189185432Y-111628893D01*
X189186523Y-111629000D01*
X189186531Y-111629000D01*
X189230000Y-111633281D01*
X189273469Y-111629000D01*
X191726531Y-111629000D01*
X191770000Y-111633281D01*
X191813469Y-111629000D01*
X191813477Y-111629000D01*
X191943490Y-111616195D01*
X192110313Y-111565589D01*
X192264059Y-111483411D01*
X192398817Y-111372817D01*
X192426534Y-111339044D01*
X193061506Y-110704072D01*
X194034493Y-110704072D01*
X194669470Y-111339049D01*
X194697183Y-111372817D01*
X194730951Y-111400530D01*
X194730953Y-111400532D01*
X194803415Y-111460000D01*
X194831941Y-111483411D01*
X194985687Y-111565589D01*
X195152510Y-111616195D01*
X195282523Y-111629000D01*
X195282531Y-111629000D01*
X195326000Y-111633281D01*
X195369469Y-111629000D01*
X197822531Y-111629000D01*
X197866000Y-111633281D01*
X197909469Y-111629000D01*
X197909477Y-111629000D01*
X198039490Y-111616195D01*
X198206313Y-111565589D01*
X198360059Y-111483411D01*
X198494817Y-111372817D01*
X198522534Y-111339044D01*
X199157506Y-110704072D01*
X200130493Y-110704072D01*
X200765470Y-111339049D01*
X200793183Y-111372817D01*
X200826951Y-111400530D01*
X200826953Y-111400532D01*
X200899415Y-111460000D01*
X200927941Y-111483411D01*
X201081687Y-111565589D01*
X201248510Y-111616195D01*
X201378523Y-111629000D01*
X201378531Y-111629000D01*
X201422000Y-111633281D01*
X201465469Y-111629000D01*
X203918531Y-111629000D01*
X203962000Y-111633281D01*
X204005469Y-111629000D01*
X204005477Y-111629000D01*
X204135490Y-111616195D01*
X204302313Y-111565589D01*
X204456059Y-111483411D01*
X204590817Y-111372817D01*
X204618534Y-111339044D01*
X205253506Y-110704072D01*
X206226493Y-110704072D01*
X206861470Y-111339049D01*
X206889183Y-111372817D01*
X206922951Y-111400530D01*
X206922953Y-111400532D01*
X206995415Y-111460000D01*
X207023941Y-111483411D01*
X207177687Y-111565589D01*
X207344510Y-111616195D01*
X207474523Y-111629000D01*
X207474531Y-111629000D01*
X207518000Y-111633281D01*
X207561469Y-111629000D01*
X210014531Y-111629000D01*
X210058000Y-111633281D01*
X210101469Y-111629000D01*
X210101477Y-111629000D01*
X210231490Y-111616195D01*
X210398313Y-111565589D01*
X210552059Y-111483411D01*
X210686817Y-111372817D01*
X210714534Y-111339044D01*
X211349506Y-110704072D01*
X212322493Y-110704072D01*
X212957470Y-111339049D01*
X212985183Y-111372817D01*
X213018951Y-111400530D01*
X213018953Y-111400532D01*
X213091415Y-111460000D01*
X213119941Y-111483411D01*
X213273687Y-111565589D01*
X213440510Y-111616195D01*
X213570523Y-111629000D01*
X213570531Y-111629000D01*
X213614000Y-111633281D01*
X213657469Y-111629000D01*
X216110531Y-111629000D01*
X216154000Y-111633281D01*
X216197469Y-111629000D01*
X216197477Y-111629000D01*
X216327490Y-111616195D01*
X216494313Y-111565589D01*
X216648059Y-111483411D01*
X216782817Y-111372817D01*
X216810534Y-111339044D01*
X217445506Y-110704072D01*
X218418493Y-110704072D01*
X219053470Y-111339049D01*
X219081183Y-111372817D01*
X219114951Y-111400530D01*
X219114953Y-111400532D01*
X219187415Y-111460000D01*
X219215941Y-111483411D01*
X219369687Y-111565589D01*
X219536510Y-111616195D01*
X219666523Y-111629000D01*
X219666531Y-111629000D01*
X219710000Y-111633281D01*
X219753469Y-111629000D01*
X222206531Y-111629000D01*
X222250000Y-111633281D01*
X222293469Y-111629000D01*
X222293477Y-111629000D01*
X222423490Y-111616195D01*
X222590313Y-111565589D01*
X222744059Y-111483411D01*
X222878817Y-111372817D01*
X222906534Y-111339044D01*
X223541506Y-110704072D01*
X224514493Y-110704072D01*
X225149470Y-111339049D01*
X225177183Y-111372817D01*
X225210951Y-111400530D01*
X225210953Y-111400532D01*
X225283415Y-111460000D01*
X225311941Y-111483411D01*
X225465687Y-111565589D01*
X225632510Y-111616195D01*
X225762523Y-111629000D01*
X225762531Y-111629000D01*
X225806000Y-111633281D01*
X225849469Y-111629000D01*
X228302531Y-111629000D01*
X228346000Y-111633281D01*
X228389469Y-111629000D01*
X228389477Y-111629000D01*
X228519490Y-111616195D01*
X228686313Y-111565589D01*
X228840059Y-111483411D01*
X228974817Y-111372817D01*
X229002534Y-111339044D01*
X229637506Y-110704072D01*
X230610493Y-110704072D01*
X231245470Y-111339049D01*
X231273183Y-111372817D01*
X231306951Y-111400530D01*
X231306953Y-111400532D01*
X231379415Y-111460000D01*
X231407941Y-111483411D01*
X231561687Y-111565589D01*
X231728510Y-111616195D01*
X231858523Y-111629000D01*
X231858531Y-111629000D01*
X231902000Y-111633281D01*
X231945469Y-111629000D01*
X234398531Y-111629000D01*
X234442000Y-111633281D01*
X234485469Y-111629000D01*
X234485477Y-111629000D01*
X234615490Y-111616195D01*
X234782313Y-111565589D01*
X234936059Y-111483411D01*
X235070817Y-111372817D01*
X235098534Y-111339044D01*
X235733506Y-110704072D01*
X236706493Y-110704072D01*
X237341470Y-111339049D01*
X237369183Y-111372817D01*
X237402951Y-111400530D01*
X237402953Y-111400532D01*
X237475415Y-111460000D01*
X237503941Y-111483411D01*
X237657687Y-111565589D01*
X237824510Y-111616195D01*
X237954523Y-111629000D01*
X237954531Y-111629000D01*
X237998000Y-111633281D01*
X238041469Y-111629000D01*
X240494531Y-111629000D01*
X240538000Y-111633281D01*
X240581469Y-111629000D01*
X240581477Y-111629000D01*
X240711490Y-111616195D01*
X240878313Y-111565589D01*
X241032059Y-111483411D01*
X241166817Y-111372817D01*
X241194534Y-111339044D01*
X241829506Y-110704072D01*
X242802493Y-110704072D01*
X243437470Y-111339049D01*
X243465183Y-111372817D01*
X243498951Y-111400530D01*
X243498953Y-111400532D01*
X243571415Y-111460000D01*
X243599941Y-111483411D01*
X243753687Y-111565589D01*
X243920510Y-111616195D01*
X244050523Y-111629000D01*
X244050531Y-111629000D01*
X244094000Y-111633281D01*
X244137469Y-111629000D01*
X246590531Y-111629000D01*
X246634000Y-111633281D01*
X246677469Y-111629000D01*
X246677477Y-111629000D01*
X246807490Y-111616195D01*
X246974313Y-111565589D01*
X247128059Y-111483411D01*
X247262817Y-111372817D01*
X247290534Y-111339044D01*
X247925506Y-110704072D01*
X249512000Y-110704072D01*
X249636482Y-110691812D01*
X249696589Y-110673579D01*
X249746187Y-110700089D01*
G37*
%TD.AperFunction*%
%TD*%
M02*
