%TF.GenerationSoftware,KiCad,Pcbnew,(6.0.0-0)*%
%TF.CreationDate,2022-07-05T21:41:24-04:00*%
%TF.ProjectId,IO-VGA-DAC,494f2d56-4741-42d4-9441-432e6b696361,rev?*%
%TF.SameCoordinates,Original*%
%TF.FileFunction,Legend,Bot*%
%TF.FilePolarity,Positive*%
%FSLAX46Y46*%
G04 Gerber Fmt 4.6, Leading zero omitted, Abs format (unit mm)*
G04 Created by KiCad (PCBNEW (6.0.0-0)) date 2022-07-05 21:41:24*
%MOMM*%
%LPD*%
G01*
G04 APERTURE LIST*
%ADD10C,0.150000*%
%ADD11C,0.120000*%
G04 APERTURE END LIST*
D10*
X181062380Y-120094952D02*
X181776666Y-120094952D01*
X181919523Y-120047333D01*
X182014761Y-119952095D01*
X182062380Y-119809238D01*
X182062380Y-119714000D01*
X182062380Y-121047333D02*
X182062380Y-120571142D01*
X181062380Y-120571142D01*
X181967142Y-121952095D02*
X182014761Y-121904476D01*
X182062380Y-121761619D01*
X182062380Y-121666380D01*
X182014761Y-121523523D01*
X181919523Y-121428285D01*
X181824285Y-121380666D01*
X181633809Y-121333047D01*
X181490952Y-121333047D01*
X181300476Y-121380666D01*
X181205238Y-121428285D01*
X181110000Y-121523523D01*
X181062380Y-121666380D01*
X181062380Y-121761619D01*
X181110000Y-121904476D01*
X181157619Y-121952095D01*
X181062380Y-122666380D02*
X181776666Y-122666380D01*
X181919523Y-122618761D01*
X182014761Y-122523523D01*
X182062380Y-122380666D01*
X182062380Y-122285428D01*
X182062380Y-123618761D02*
X182062380Y-123142571D01*
X181062380Y-123142571D01*
X181967142Y-124523523D02*
X182014761Y-124475904D01*
X182062380Y-124333047D01*
X182062380Y-124237809D01*
X182014761Y-124094952D01*
X181919523Y-123999714D01*
X181824285Y-123952095D01*
X181633809Y-123904476D01*
X181490952Y-123904476D01*
X181300476Y-123952095D01*
X181205238Y-123999714D01*
X181110000Y-124094952D01*
X181062380Y-124237809D01*
X181062380Y-124333047D01*
X181110000Y-124475904D01*
X181157619Y-124523523D01*
X181062380Y-125237809D02*
X181776666Y-125237809D01*
X181919523Y-125190190D01*
X182014761Y-125094952D01*
X182062380Y-124952095D01*
X182062380Y-124856857D01*
X182062380Y-126190190D02*
X182062380Y-125714000D01*
X181062380Y-125714000D01*
X181967142Y-127094952D02*
X182014761Y-127047333D01*
X182062380Y-126904476D01*
X182062380Y-126809238D01*
X182014761Y-126666380D01*
X181919523Y-126571142D01*
X181824285Y-126523523D01*
X181633809Y-126475904D01*
X181490952Y-126475904D01*
X181300476Y-126523523D01*
X181205238Y-126571142D01*
X181110000Y-126666380D01*
X181062380Y-126809238D01*
X181062380Y-126904476D01*
X181110000Y-127047333D01*
X181157619Y-127094952D01*
X181062380Y-127809238D02*
X181776666Y-127809238D01*
X181919523Y-127761619D01*
X182014761Y-127666380D01*
X182062380Y-127523523D01*
X182062380Y-127428285D01*
X182062380Y-128761619D02*
X182062380Y-128285428D01*
X181062380Y-128285428D01*
X181967142Y-129666380D02*
X182014761Y-129618761D01*
X182062380Y-129475904D01*
X182062380Y-129380666D01*
X182014761Y-129237809D01*
X181919523Y-129142571D01*
X181824285Y-129094952D01*
X181633809Y-129047333D01*
X181490952Y-129047333D01*
X181300476Y-129094952D01*
X181205238Y-129142571D01*
X181110000Y-129237809D01*
X181062380Y-129380666D01*
X181062380Y-129475904D01*
X181110000Y-129618761D01*
X181157619Y-129666380D01*
D11*
%TO.C,J2*%
X151070000Y-129480000D02*
X151070000Y-130810000D01*
X174050000Y-129480000D02*
X174050000Y-132140000D01*
X152400000Y-129480000D02*
X151070000Y-129480000D01*
X153670000Y-132140000D02*
X174050000Y-132140000D01*
X153670000Y-129480000D02*
X153670000Y-132140000D01*
X153670000Y-129480000D02*
X174050000Y-129480000D01*
%TO.C,J4*%
X174498000Y-114240000D02*
X182178000Y-114240000D01*
X171898000Y-114240000D02*
X171898000Y-115570000D01*
X174498000Y-114240000D02*
X174498000Y-116900000D01*
X182178000Y-114240000D02*
X182178000Y-116900000D01*
X174498000Y-116900000D02*
X182178000Y-116900000D01*
X173228000Y-114240000D02*
X171898000Y-114240000D01*
%TO.C,J1*%
X148575000Y-116900000D02*
X143435000Y-116900000D01*
X151175000Y-116900000D02*
X151175000Y-115570000D01*
X143435000Y-116900000D02*
X143435000Y-114240000D01*
X148575000Y-114240000D02*
X143435000Y-114240000D01*
X149845000Y-116900000D02*
X151175000Y-116900000D01*
X148575000Y-116900000D02*
X148575000Y-114240000D01*
%TD*%
M02*
