%TF.GenerationSoftware,KiCad,Pcbnew,(6.0.0-0)*%
%TF.CreationDate,2022-08-12T08:36:24-04:00*%
%TF.ProjectId,inst-step-irq-decode,696e7374-2d73-4746-9570-2d6972712d64,rev?*%
%TF.SameCoordinates,Original*%
%TF.FileFunction,Legend,Bot*%
%TF.FilePolarity,Positive*%
%FSLAX46Y46*%
G04 Gerber Fmt 4.6, Leading zero omitted, Abs format (unit mm)*
G04 Created by KiCad (PCBNEW (6.0.0-0)) date 2022-08-12 08:36:24*
%MOMM*%
%LPD*%
G01*
G04 APERTURE LIST*
%ADD10C,0.100000*%
%ADD11C,0.120000*%
G04 APERTURE END LIST*
D10*
X127301047Y-121626380D02*
X127301047Y-122340666D01*
X127348666Y-122483523D01*
X127443904Y-122578761D01*
X127586761Y-122626380D01*
X127682000Y-122626380D01*
X126348666Y-122626380D02*
X126824857Y-122626380D01*
X126824857Y-121626380D01*
X125443904Y-122531142D02*
X125491523Y-122578761D01*
X125634380Y-122626380D01*
X125729619Y-122626380D01*
X125872476Y-122578761D01*
X125967714Y-122483523D01*
X126015333Y-122388285D01*
X126062952Y-122197809D01*
X126062952Y-122054952D01*
X126015333Y-121864476D01*
X125967714Y-121769238D01*
X125872476Y-121674000D01*
X125729619Y-121626380D01*
X125634380Y-121626380D01*
X125491523Y-121674000D01*
X125443904Y-121721619D01*
X124729619Y-121626380D02*
X124729619Y-122340666D01*
X124777238Y-122483523D01*
X124872476Y-122578761D01*
X125015333Y-122626380D01*
X125110571Y-122626380D01*
X123777238Y-122626380D02*
X124253428Y-122626380D01*
X124253428Y-121626380D01*
X122872476Y-122531142D02*
X122920095Y-122578761D01*
X123062952Y-122626380D01*
X123158190Y-122626380D01*
X123301047Y-122578761D01*
X123396285Y-122483523D01*
X123443904Y-122388285D01*
X123491523Y-122197809D01*
X123491523Y-122054952D01*
X123443904Y-121864476D01*
X123396285Y-121769238D01*
X123301047Y-121674000D01*
X123158190Y-121626380D01*
X123062952Y-121626380D01*
X122920095Y-121674000D01*
X122872476Y-121721619D01*
X122158190Y-121626380D02*
X122158190Y-122340666D01*
X122205809Y-122483523D01*
X122301047Y-122578761D01*
X122443904Y-122626380D01*
X122539142Y-122626380D01*
X121205809Y-122626380D02*
X121682000Y-122626380D01*
X121682000Y-121626380D01*
X120301047Y-122531142D02*
X120348666Y-122578761D01*
X120491523Y-122626380D01*
X120586761Y-122626380D01*
X120729619Y-122578761D01*
X120824857Y-122483523D01*
X120872476Y-122388285D01*
X120920095Y-122197809D01*
X120920095Y-122054952D01*
X120872476Y-121864476D01*
X120824857Y-121769238D01*
X120729619Y-121674000D01*
X120586761Y-121626380D01*
X120491523Y-121626380D01*
X120348666Y-121674000D01*
X120301047Y-121721619D01*
X119586761Y-121626380D02*
X119586761Y-122340666D01*
X119634380Y-122483523D01*
X119729619Y-122578761D01*
X119872476Y-122626380D01*
X119967714Y-122626380D01*
X118634380Y-122626380D02*
X119110571Y-122626380D01*
X119110571Y-121626380D01*
X117729619Y-122531142D02*
X117777238Y-122578761D01*
X117920095Y-122626380D01*
X118015333Y-122626380D01*
X118158190Y-122578761D01*
X118253428Y-122483523D01*
X118301047Y-122388285D01*
X118348666Y-122197809D01*
X118348666Y-122054952D01*
X118301047Y-121864476D01*
X118253428Y-121769238D01*
X118158190Y-121674000D01*
X118015333Y-121626380D01*
X117920095Y-121626380D01*
X117777238Y-121674000D01*
X117729619Y-121721619D01*
D11*
%TO.C,J1*%
X113478000Y-100584242D02*
X113478000Y-118424242D01*
X116138000Y-100584242D02*
X116138000Y-118424242D01*
X116138000Y-118424242D02*
X113478000Y-118424242D01*
X116138000Y-97984242D02*
X114808000Y-97984242D01*
X116138000Y-99314242D02*
X116138000Y-97984242D01*
X116138000Y-100584242D02*
X113478000Y-100584242D01*
%TO.C,J2*%
X184598000Y-115570000D02*
X187258000Y-115570000D01*
X184598000Y-85030000D02*
X187258000Y-85030000D01*
X184598000Y-115570000D02*
X184598000Y-85030000D01*
X184598000Y-116840000D02*
X184598000Y-118170000D01*
X187258000Y-115570000D02*
X187258000Y-85030000D01*
X184598000Y-118170000D02*
X185928000Y-118170000D01*
%TO.C,J3*%
X113478000Y-80264242D02*
X113478000Y-95564242D01*
X116138000Y-78994242D02*
X116138000Y-77664242D01*
X116138000Y-80264242D02*
X113478000Y-80264242D01*
X116138000Y-95564242D02*
X113478000Y-95564242D01*
X116138000Y-80264242D02*
X116138000Y-95564242D01*
X116138000Y-77664242D02*
X114808000Y-77664242D01*
%TD*%
M02*
