%TF.GenerationSoftware,KiCad,Pcbnew,(5.1.10-1-10_14)*%
%TF.CreationDate,2021-10-20T01:40:30-04:00*%
%TF.ProjectId,ALU-RHS-bitwise,414c552d-5248-4532-9d62-697477697365,rev?*%
%TF.SameCoordinates,Original*%
%TF.FileFunction,Legend,Bot*%
%TF.FilePolarity,Positive*%
%FSLAX46Y46*%
G04 Gerber Fmt 4.6, Leading zero omitted, Abs format (unit mm)*
G04 Created by KiCad (PCBNEW (5.1.10-1-10_14)) date 2021-10-20 01:40:30*
%MOMM*%
%LPD*%
G01*
G04 APERTURE LIST*
%ADD10C,0.120000*%
G04 APERTURE END LIST*
D10*
%TO.C,J4*%
X170120000Y-107756000D02*
X170120000Y-105096000D01*
X187960000Y-107756000D02*
X170120000Y-107756000D01*
X187960000Y-105096000D02*
X170120000Y-105096000D01*
X187960000Y-107756000D02*
X187960000Y-105096000D01*
X189230000Y-107756000D02*
X190560000Y-107756000D01*
X190560000Y-107756000D02*
X190560000Y-106426000D01*
%TO.C,J3*%
X197806000Y-105096000D02*
X197806000Y-106426000D01*
X199136000Y-105096000D02*
X197806000Y-105096000D01*
X200406000Y-105096000D02*
X200406000Y-107756000D01*
X200406000Y-107756000D02*
X218246000Y-107756000D01*
X200406000Y-105096000D02*
X218246000Y-105096000D01*
X218246000Y-105096000D02*
X218246000Y-107756000D01*
%TO.C,J2*%
X203140000Y-71822000D02*
X203140000Y-73152000D01*
X204470000Y-71822000D02*
X203140000Y-71822000D01*
X205740000Y-71822000D02*
X205740000Y-74482000D01*
X205740000Y-74482000D02*
X223580000Y-74482000D01*
X205740000Y-71822000D02*
X223580000Y-71822000D01*
X223580000Y-71822000D02*
X223580000Y-74482000D01*
%TO.C,J1*%
X172780000Y-74482000D02*
X172780000Y-73152000D01*
X171450000Y-74482000D02*
X172780000Y-74482000D01*
X170180000Y-74482000D02*
X170180000Y-71822000D01*
X170180000Y-71822000D02*
X152340000Y-71822000D01*
X170180000Y-74482000D02*
X152340000Y-74482000D01*
X152340000Y-74482000D02*
X152340000Y-71822000D01*
%TD*%
M02*
