%TF.GenerationSoftware,KiCad,Pcbnew,(5.1.9-0-10_14)*%
%TF.CreationDate,2021-07-06T13:22:30-04:00*%
%TF.ProjectId,prototyping-board,70726f74-6f74-4797-9069-6e672d626f61,rev?*%
%TF.SameCoordinates,Original*%
%TF.FileFunction,Copper,L2,Bot*%
%TF.FilePolarity,Positive*%
%FSLAX46Y46*%
G04 Gerber Fmt 4.6, Leading zero omitted, Abs format (unit mm)*
G04 Created by KiCad (PCBNEW (5.1.9-0-10_14)) date 2021-07-06 13:22:30*
%MOMM*%
%LPD*%
G01*
G04 APERTURE LIST*
%TA.AperFunction,ComponentPad*%
%ADD10C,4.400000*%
%TD*%
%TA.AperFunction,ComponentPad*%
%ADD11C,0.700000*%
%TD*%
%TA.AperFunction,ComponentPad*%
%ADD12O,1.600000X1.600000*%
%TD*%
%TA.AperFunction,ComponentPad*%
%ADD13R,1.600000X1.600000*%
%TD*%
%TA.AperFunction,ComponentPad*%
%ADD14O,1.700000X1.700000*%
%TD*%
%TA.AperFunction,ComponentPad*%
%ADD15R,1.700000X1.700000*%
%TD*%
%TA.AperFunction,ComponentPad*%
%ADD16C,2.000000*%
%TD*%
%TA.AperFunction,ViaPad*%
%ADD17C,0.800000*%
%TD*%
%TA.AperFunction,Conductor*%
%ADD18C,0.500000*%
%TD*%
%TA.AperFunction,Conductor*%
%ADD19C,0.250000*%
%TD*%
%TA.AperFunction,Conductor*%
%ADD20C,0.254000*%
%TD*%
%TA.AperFunction,Conductor*%
%ADD21C,0.100000*%
%TD*%
G04 APERTURE END LIST*
D10*
%TO.P,REF\u002A\u002A,1*%
%TO.N,N/C*%
X43434000Y-126746000D03*
D11*
X45084000Y-126746000D03*
X44600726Y-127912726D03*
X43434000Y-128396000D03*
X42267274Y-127912726D03*
X41784000Y-126746000D03*
X42267274Y-125579274D03*
X43434000Y-125096000D03*
X44600726Y-125579274D03*
%TD*%
%TO.P,REF\u002A\u002A,1*%
%TO.N,N/C*%
X44600726Y-100687274D03*
X43434000Y-100204000D03*
X42267274Y-100687274D03*
X41784000Y-101854000D03*
X42267274Y-103020726D03*
X43434000Y-103504000D03*
X44600726Y-103020726D03*
X45084000Y-101854000D03*
D10*
X43434000Y-101854000D03*
%TD*%
D11*
%TO.P,REF\u002A\u002A,1*%
%TO.N,N/C*%
X156868726Y-125579274D03*
X155702000Y-125096000D03*
X154535274Y-125579274D03*
X154052000Y-126746000D03*
X154535274Y-127912726D03*
X155702000Y-128396000D03*
X156868726Y-127912726D03*
X157352000Y-126746000D03*
D10*
X155702000Y-126746000D03*
%TD*%
D12*
%TO.P,SW8,16*%
%TO.N,Net-(R32-Pad1)*%
X122682000Y-117856000D03*
%TO.P,SW8,8*%
%TO.N,/B7*%
X104902000Y-110236000D03*
%TO.P,SW8,15*%
%TO.N,Net-(R31-Pad1)*%
X120142000Y-117856000D03*
%TO.P,SW8,7*%
%TO.N,/B6*%
X107442000Y-110236000D03*
%TO.P,SW8,14*%
%TO.N,Net-(R30-Pad1)*%
X117602000Y-117856000D03*
%TO.P,SW8,6*%
%TO.N,/B5*%
X109982000Y-110236000D03*
%TO.P,SW8,13*%
%TO.N,Net-(R29-Pad1)*%
X115062000Y-117856000D03*
%TO.P,SW8,5*%
%TO.N,/B4*%
X112522000Y-110236000D03*
%TO.P,SW8,12*%
%TO.N,Net-(R28-Pad1)*%
X112522000Y-117856000D03*
%TO.P,SW8,4*%
%TO.N,/B3*%
X115062000Y-110236000D03*
%TO.P,SW8,11*%
%TO.N,Net-(R27-Pad1)*%
X109982000Y-117856000D03*
%TO.P,SW8,3*%
%TO.N,/B2*%
X117602000Y-110236000D03*
%TO.P,SW8,10*%
%TO.N,Net-(R26-Pad1)*%
X107442000Y-117856000D03*
%TO.P,SW8,2*%
%TO.N,/B1*%
X120142000Y-110236000D03*
%TO.P,SW8,9*%
%TO.N,Net-(R25-Pad1)*%
X104902000Y-117856000D03*
D13*
%TO.P,SW8,1*%
%TO.N,/B0*%
X122682000Y-110236000D03*
%TD*%
D10*
%TO.P,REF\u002A\u002A,1*%
%TO.N,N/C*%
X155702000Y-101854000D03*
D11*
X157352000Y-101854000D03*
X156868726Y-103020726D03*
X155702000Y-103504000D03*
X154535274Y-103020726D03*
X154052000Y-101854000D03*
X154535274Y-100687274D03*
X155702000Y-100204000D03*
X156868726Y-100687274D03*
%TD*%
D14*
%TO.P,J1,26*%
%TO.N,Net-(J1-Pad26)*%
X129540000Y-97536000D03*
%TO.P,J1,25*%
%TO.N,Net-(J1-Pad25)*%
X127000000Y-97536000D03*
%TO.P,J1,24*%
%TO.N,Net-(J1-Pad24)*%
X124460000Y-97536000D03*
%TO.P,J1,23*%
%TO.N,Net-(J1-Pad23)*%
X121920000Y-97536000D03*
%TO.P,J1,22*%
%TO.N,/B0*%
X119380000Y-97536000D03*
%TO.P,J1,21*%
%TO.N,/B1*%
X116840000Y-97536000D03*
%TO.P,J1,20*%
%TO.N,/B2*%
X114300000Y-97536000D03*
%TO.P,J1,19*%
%TO.N,/B3*%
X111760000Y-97536000D03*
%TO.P,J1,18*%
%TO.N,/B4*%
X109220000Y-97536000D03*
%TO.P,J1,17*%
%TO.N,/B5*%
X106680000Y-97536000D03*
%TO.P,J1,16*%
%TO.N,/B6*%
X104140000Y-97536000D03*
%TO.P,J1,15*%
%TO.N,/B7*%
X101600000Y-97536000D03*
%TO.P,J1,14*%
%TO.N,/A0*%
X99060000Y-97536000D03*
%TO.P,J1,13*%
%TO.N,/A1*%
X96520000Y-97536000D03*
%TO.P,J1,12*%
%TO.N,/A2*%
X93980000Y-97536000D03*
%TO.P,J1,11*%
%TO.N,/A3*%
X91440000Y-97536000D03*
%TO.P,J1,10*%
%TO.N,/A4*%
X88900000Y-97536000D03*
%TO.P,J1,9*%
%TO.N,/A5*%
X86360000Y-97536000D03*
%TO.P,J1,8*%
%TO.N,/A6*%
X83820000Y-97536000D03*
%TO.P,J1,7*%
%TO.N,/A7*%
X81280000Y-97536000D03*
%TO.P,J1,6*%
%TO.N,Net-(J1-Pad6)*%
X78740000Y-97536000D03*
%TO.P,J1,5*%
%TO.N,Net-(J1-Pad5)*%
X76200000Y-97536000D03*
%TO.P,J1,4*%
%TO.N,Net-(J1-Pad4)*%
X73660000Y-97536000D03*
%TO.P,J1,3*%
%TO.N,Net-(J1-Pad3)*%
X71120000Y-97536000D03*
%TO.P,J1,2*%
%TO.N,GND*%
X68580000Y-97536000D03*
D15*
%TO.P,J1,1*%
%TO.N,VCC*%
X66040000Y-97536000D03*
%TD*%
D16*
%TO.P,SW10,1*%
%TO.N,Net-(J1-Pad26)*%
X149502000Y-118618000D03*
%TO.P,SW10,2*%
%TO.N,GND*%
X149502000Y-123118000D03*
%TO.P,SW10,1*%
%TO.N,Net-(J1-Pad26)*%
X143002000Y-118618000D03*
%TO.P,SW10,2*%
%TO.N,GND*%
X143002000Y-123118000D03*
%TD*%
%TO.P,SW9,1*%
%TO.N,Net-(J1-Pad25)*%
X138834000Y-118618000D03*
%TO.P,SW9,2*%
%TO.N,GND*%
X138834000Y-123118000D03*
%TO.P,SW9,1*%
%TO.N,Net-(J1-Pad25)*%
X132334000Y-118618000D03*
%TO.P,SW9,2*%
%TO.N,GND*%
X132334000Y-123118000D03*
%TD*%
%TO.P,SW6,1*%
%TO.N,Net-(J1-Pad24)*%
X149502000Y-105156000D03*
%TO.P,SW6,2*%
%TO.N,GND*%
X149502000Y-109656000D03*
%TO.P,SW6,1*%
%TO.N,Net-(J1-Pad24)*%
X143002000Y-105156000D03*
%TO.P,SW6,2*%
%TO.N,GND*%
X143002000Y-109656000D03*
%TD*%
%TO.P,SW5,1*%
%TO.N,Net-(J1-Pad23)*%
X138834000Y-105156000D03*
%TO.P,SW5,2*%
%TO.N,GND*%
X138834000Y-109656000D03*
%TO.P,SW5,1*%
%TO.N,Net-(J1-Pad23)*%
X132334000Y-105156000D03*
%TO.P,SW5,2*%
%TO.N,GND*%
X132334000Y-109656000D03*
%TD*%
%TO.P,SW4,1*%
%TO.N,VCC*%
X49380000Y-109220000D03*
%TO.P,SW4,2*%
%TO.N,Net-(J1-Pad5)*%
X49380000Y-104720000D03*
%TO.P,SW4,1*%
%TO.N,VCC*%
X55880000Y-109220000D03*
%TO.P,SW4,2*%
%TO.N,Net-(J1-Pad5)*%
X55880000Y-104720000D03*
%TD*%
%TO.P,SW3,1*%
%TO.N,VCC*%
X49126000Y-122428000D03*
%TO.P,SW3,2*%
%TO.N,Net-(J1-Pad4)*%
X49126000Y-117928000D03*
%TO.P,SW3,1*%
%TO.N,VCC*%
X55626000Y-122428000D03*
%TO.P,SW3,2*%
%TO.N,Net-(J1-Pad4)*%
X55626000Y-117928000D03*
%TD*%
%TO.P,SW2,1*%
%TO.N,VCC*%
X60556000Y-109220000D03*
%TO.P,SW2,2*%
%TO.N,Net-(J1-Pad3)*%
X60556000Y-104720000D03*
%TO.P,SW2,1*%
%TO.N,VCC*%
X67056000Y-109220000D03*
%TO.P,SW2,2*%
%TO.N,Net-(J1-Pad3)*%
X67056000Y-104720000D03*
%TD*%
%TO.P,SW1,1*%
%TO.N,VCC*%
X60302000Y-122682000D03*
%TO.P,SW1,2*%
%TO.N,Net-(J1-Pad6)*%
X60302000Y-118182000D03*
%TO.P,SW1,1*%
%TO.N,VCC*%
X66802000Y-122682000D03*
%TO.P,SW1,2*%
%TO.N,Net-(J1-Pad6)*%
X66802000Y-118182000D03*
%TD*%
D12*
%TO.P,SW7,16*%
%TO.N,Net-(R8-Pad1)*%
X94488000Y-117856000D03*
%TO.P,SW7,8*%
%TO.N,/A7*%
X76708000Y-110236000D03*
%TO.P,SW7,15*%
%TO.N,Net-(R7-Pad1)*%
X91948000Y-117856000D03*
%TO.P,SW7,7*%
%TO.N,/A6*%
X79248000Y-110236000D03*
%TO.P,SW7,14*%
%TO.N,Net-(R6-Pad1)*%
X89408000Y-117856000D03*
%TO.P,SW7,6*%
%TO.N,/A5*%
X81788000Y-110236000D03*
%TO.P,SW7,13*%
%TO.N,Net-(R5-Pad1)*%
X86868000Y-117856000D03*
%TO.P,SW7,5*%
%TO.N,/A4*%
X84328000Y-110236000D03*
%TO.P,SW7,12*%
%TO.N,Net-(R4-Pad1)*%
X84328000Y-117856000D03*
%TO.P,SW7,4*%
%TO.N,/A3*%
X86868000Y-110236000D03*
%TO.P,SW7,11*%
%TO.N,Net-(R3-Pad1)*%
X81788000Y-117856000D03*
%TO.P,SW7,3*%
%TO.N,/A2*%
X89408000Y-110236000D03*
%TO.P,SW7,10*%
%TO.N,Net-(R2-Pad1)*%
X79248000Y-117856000D03*
%TO.P,SW7,2*%
%TO.N,/A1*%
X91948000Y-110236000D03*
%TO.P,SW7,9*%
%TO.N,Net-(R1-Pad1)*%
X76708000Y-117856000D03*
D13*
%TO.P,SW7,1*%
%TO.N,/A0*%
X94488000Y-110236000D03*
%TD*%
D17*
%TO.N,GND*%
X94845500Y-122832500D03*
X104497500Y-122832500D03*
X135454000Y-109656000D03*
X146122000Y-109656000D03*
X146122000Y-123118000D03*
X135708000Y-123118000D03*
X53086000Y-101600000D03*
X53086000Y-115062000D03*
X64008000Y-115062000D03*
%TO.N,Net-(J1-Pad25)*%
X131318000Y-101854000D03*
%TD*%
D18*
%TO.N,Net-(J1-Pad26)*%
X130644001Y-103786001D02*
X130644001Y-112356001D01*
X130644001Y-112356001D02*
X132334000Y-114046000D01*
X138430000Y-114046000D02*
X143002000Y-118618000D01*
X132168001Y-100164001D02*
X132168001Y-102262001D01*
X129540000Y-97536000D02*
X132168001Y-100164001D01*
X132168001Y-102262001D02*
X130644001Y-103786001D01*
X132334000Y-114046000D02*
X138430000Y-114046000D01*
%TO.N,Net-(J1-Pad25)*%
X129647999Y-103524001D02*
X131318000Y-101854000D01*
X129647999Y-115931999D02*
X129647999Y-103524001D01*
X132334000Y-118618000D02*
X129647999Y-115931999D01*
D19*
%TO.N,/B0*%
X122682000Y-100838000D02*
X119380000Y-97536000D01*
X122682000Y-110236000D02*
X122682000Y-100838000D01*
%TO.N,/B1*%
X120142000Y-100838000D02*
X116840000Y-97536000D01*
X120142000Y-110236000D02*
X120142000Y-100838000D01*
%TO.N,/B2*%
X117602000Y-100838000D02*
X114300000Y-97536000D01*
X117602000Y-110236000D02*
X117602000Y-100838000D01*
%TO.N,/B3*%
X115062000Y-100838000D02*
X111760000Y-97536000D01*
X115062000Y-110236000D02*
X115062000Y-100838000D01*
%TO.N,/B4*%
X112522000Y-100838000D02*
X109220000Y-97536000D01*
X112522000Y-110236000D02*
X112522000Y-100838000D01*
%TO.N,/B5*%
X109982000Y-100838000D02*
X106680000Y-97536000D01*
X109982000Y-110236000D02*
X109982000Y-100838000D01*
%TO.N,/B6*%
X107442000Y-100838000D02*
X104140000Y-97536000D01*
X107442000Y-110236000D02*
X107442000Y-100838000D01*
%TO.N,/B7*%
X104902000Y-100838000D02*
X101600000Y-97536000D01*
X104902000Y-110236000D02*
X104902000Y-100838000D01*
%TO.N,/A0*%
X94488000Y-102108000D02*
X99060000Y-97536000D01*
X94488000Y-110236000D02*
X94488000Y-102108000D01*
%TO.N,/A1*%
X91948000Y-102108000D02*
X96520000Y-97536000D01*
X91948000Y-110236000D02*
X91948000Y-102108000D01*
%TO.N,/A2*%
X89408000Y-102108000D02*
X93980000Y-97536000D01*
X89408000Y-110236000D02*
X89408000Y-102108000D01*
%TO.N,/A3*%
X86868000Y-102108000D02*
X91440000Y-97536000D01*
X86868000Y-110236000D02*
X86868000Y-102108000D01*
%TO.N,/A4*%
X84328000Y-102108000D02*
X88900000Y-97536000D01*
X84328000Y-110236000D02*
X84328000Y-102108000D01*
%TO.N,/A5*%
X81788000Y-102108000D02*
X86360000Y-97536000D01*
X81788000Y-110236000D02*
X81788000Y-102108000D01*
%TO.N,/A6*%
X79248000Y-102108000D02*
X83820000Y-97536000D01*
X79248000Y-110236000D02*
X79248000Y-102108000D01*
%TO.N,/A7*%
X76708000Y-102108000D02*
X81280000Y-97536000D01*
X76708000Y-110236000D02*
X76708000Y-102108000D01*
%TD*%
D20*
%TO.N,GND*%
X147739693Y-95733409D02*
X149415482Y-95962963D01*
X151063552Y-96343451D01*
X152670375Y-96871747D01*
X154222691Y-97543494D01*
X155707745Y-98353172D01*
X157113304Y-99294112D01*
X158427790Y-100358562D01*
X159640395Y-101537769D01*
X160741136Y-102822025D01*
X161720955Y-104200765D01*
X162571779Y-105662629D01*
X163286608Y-107195584D01*
X163859560Y-108787019D01*
X164285916Y-110423829D01*
X164562172Y-112092555D01*
X164686051Y-113779457D01*
X164656531Y-115470613D01*
X164473857Y-117152165D01*
X164139533Y-118810224D01*
X163656312Y-120431160D01*
X163028161Y-122001647D01*
X162260273Y-123508711D01*
X161358947Y-124939994D01*
X160331614Y-126283690D01*
X159186723Y-127528750D01*
X157933694Y-128664927D01*
X156582854Y-129682856D01*
X155145325Y-130574162D01*
X153632918Y-131331520D01*
X152058105Y-131948682D01*
X150433829Y-132420578D01*
X148773469Y-132743319D01*
X147084966Y-132914832D01*
X146040773Y-132943998D01*
X53354987Y-132943998D01*
X51650307Y-132866589D01*
X49974518Y-132637035D01*
X48326438Y-132256545D01*
X46719625Y-131728251D01*
X45167305Y-131056502D01*
X43682257Y-130246828D01*
X42391589Y-129382801D01*
X42607061Y-129472052D01*
X43154777Y-129581000D01*
X43713223Y-129581000D01*
X44260939Y-129472052D01*
X44776876Y-129258344D01*
X45241207Y-128948088D01*
X45636088Y-128553207D01*
X45946344Y-128088876D01*
X46160052Y-127572939D01*
X46269000Y-127025223D01*
X46269000Y-126466777D01*
X152867000Y-126466777D01*
X152867000Y-127025223D01*
X152975948Y-127572939D01*
X153189656Y-128088876D01*
X153499912Y-128553207D01*
X153894793Y-128948088D01*
X154359124Y-129258344D01*
X154875061Y-129472052D01*
X155422777Y-129581000D01*
X155981223Y-129581000D01*
X156528939Y-129472052D01*
X157044876Y-129258344D01*
X157509207Y-128948088D01*
X157904088Y-128553207D01*
X158214344Y-128088876D01*
X158428052Y-127572939D01*
X158537000Y-127025223D01*
X158537000Y-126466777D01*
X158428052Y-125919061D01*
X158214344Y-125403124D01*
X157904088Y-124938793D01*
X157509207Y-124543912D01*
X157044876Y-124233656D01*
X156528939Y-124019948D01*
X155981223Y-123911000D01*
X155422777Y-123911000D01*
X154875061Y-124019948D01*
X154359124Y-124233656D01*
X153894793Y-124543912D01*
X153499912Y-124938793D01*
X153189656Y-125403124D01*
X152975948Y-125919061D01*
X152867000Y-126466777D01*
X46269000Y-126466777D01*
X46160052Y-125919061D01*
X45946344Y-125403124D01*
X45636088Y-124938793D01*
X45241207Y-124543912D01*
X44776876Y-124233656D01*
X44260939Y-124019948D01*
X43713223Y-123911000D01*
X43154777Y-123911000D01*
X42607061Y-124019948D01*
X42091124Y-124233656D01*
X41626793Y-124543912D01*
X41231912Y-124938793D01*
X40921656Y-125403124D01*
X40707948Y-125919061D01*
X40599000Y-126466777D01*
X40599000Y-127025223D01*
X40707948Y-127572939D01*
X40921656Y-128088876D01*
X41095967Y-128349751D01*
X40962216Y-128241442D01*
X39749605Y-127062229D01*
X38648864Y-125777973D01*
X37669046Y-124399235D01*
X36818225Y-122937377D01*
X36505608Y-122266967D01*
X47491000Y-122266967D01*
X47491000Y-122589033D01*
X47553832Y-122904912D01*
X47677082Y-123202463D01*
X47856013Y-123470252D01*
X48083748Y-123697987D01*
X48351537Y-123876918D01*
X48649088Y-124000168D01*
X48964967Y-124063000D01*
X49287033Y-124063000D01*
X49602912Y-124000168D01*
X49900463Y-123876918D01*
X50168252Y-123697987D01*
X50395987Y-123470252D01*
X50574918Y-123202463D01*
X50698168Y-122904912D01*
X50761000Y-122589033D01*
X50761000Y-122266967D01*
X53991000Y-122266967D01*
X53991000Y-122589033D01*
X54053832Y-122904912D01*
X54177082Y-123202463D01*
X54356013Y-123470252D01*
X54583748Y-123697987D01*
X54851537Y-123876918D01*
X55149088Y-124000168D01*
X55464967Y-124063000D01*
X55787033Y-124063000D01*
X56102912Y-124000168D01*
X56400463Y-123876918D01*
X56668252Y-123697987D01*
X56895987Y-123470252D01*
X57074918Y-123202463D01*
X57198168Y-122904912D01*
X57261000Y-122589033D01*
X57261000Y-122520967D01*
X58667000Y-122520967D01*
X58667000Y-122843033D01*
X58729832Y-123158912D01*
X58853082Y-123456463D01*
X59032013Y-123724252D01*
X59259748Y-123951987D01*
X59527537Y-124130918D01*
X59825088Y-124254168D01*
X60140967Y-124317000D01*
X60463033Y-124317000D01*
X60778912Y-124254168D01*
X61076463Y-124130918D01*
X61344252Y-123951987D01*
X61571987Y-123724252D01*
X61750918Y-123456463D01*
X61874168Y-123158912D01*
X61937000Y-122843033D01*
X61937000Y-122520967D01*
X65167000Y-122520967D01*
X65167000Y-122843033D01*
X65229832Y-123158912D01*
X65353082Y-123456463D01*
X65532013Y-123724252D01*
X65759748Y-123951987D01*
X66027537Y-124130918D01*
X66325088Y-124254168D01*
X66640967Y-124317000D01*
X66963033Y-124317000D01*
X67278912Y-124254168D01*
X67280734Y-124253413D01*
X131378192Y-124253413D01*
X131473956Y-124517814D01*
X131763571Y-124658704D01*
X132075108Y-124740384D01*
X132396595Y-124759718D01*
X132715675Y-124715961D01*
X133020088Y-124610795D01*
X133194044Y-124517814D01*
X133289808Y-124253413D01*
X137878192Y-124253413D01*
X137973956Y-124517814D01*
X138263571Y-124658704D01*
X138575108Y-124740384D01*
X138896595Y-124759718D01*
X139215675Y-124715961D01*
X139520088Y-124610795D01*
X139694044Y-124517814D01*
X139789808Y-124253413D01*
X142046192Y-124253413D01*
X142141956Y-124517814D01*
X142431571Y-124658704D01*
X142743108Y-124740384D01*
X143064595Y-124759718D01*
X143383675Y-124715961D01*
X143688088Y-124610795D01*
X143862044Y-124517814D01*
X143957808Y-124253413D01*
X148546192Y-124253413D01*
X148641956Y-124517814D01*
X148931571Y-124658704D01*
X149243108Y-124740384D01*
X149564595Y-124759718D01*
X149883675Y-124715961D01*
X150188088Y-124610795D01*
X150362044Y-124517814D01*
X150457808Y-124253413D01*
X149502000Y-123297605D01*
X148546192Y-124253413D01*
X143957808Y-124253413D01*
X143002000Y-123297605D01*
X142046192Y-124253413D01*
X139789808Y-124253413D01*
X138834000Y-123297605D01*
X137878192Y-124253413D01*
X133289808Y-124253413D01*
X132334000Y-123297605D01*
X131378192Y-124253413D01*
X67280734Y-124253413D01*
X67576463Y-124130918D01*
X67844252Y-123951987D01*
X68071987Y-123724252D01*
X68250918Y-123456463D01*
X68365186Y-123180595D01*
X130692282Y-123180595D01*
X130736039Y-123499675D01*
X130841205Y-123804088D01*
X130934186Y-123978044D01*
X131198587Y-124073808D01*
X132154395Y-123118000D01*
X132513605Y-123118000D01*
X133469413Y-124073808D01*
X133733814Y-123978044D01*
X133874704Y-123688429D01*
X133956384Y-123376892D01*
X133968189Y-123180595D01*
X137192282Y-123180595D01*
X137236039Y-123499675D01*
X137341205Y-123804088D01*
X137434186Y-123978044D01*
X137698587Y-124073808D01*
X138654395Y-123118000D01*
X139013605Y-123118000D01*
X139969413Y-124073808D01*
X140233814Y-123978044D01*
X140374704Y-123688429D01*
X140456384Y-123376892D01*
X140468189Y-123180595D01*
X141360282Y-123180595D01*
X141404039Y-123499675D01*
X141509205Y-123804088D01*
X141602186Y-123978044D01*
X141866587Y-124073808D01*
X142822395Y-123118000D01*
X143181605Y-123118000D01*
X144137413Y-124073808D01*
X144401814Y-123978044D01*
X144542704Y-123688429D01*
X144624384Y-123376892D01*
X144636189Y-123180595D01*
X147860282Y-123180595D01*
X147904039Y-123499675D01*
X148009205Y-123804088D01*
X148102186Y-123978044D01*
X148366587Y-124073808D01*
X149322395Y-123118000D01*
X149681605Y-123118000D01*
X150637413Y-124073808D01*
X150901814Y-123978044D01*
X151042704Y-123688429D01*
X151124384Y-123376892D01*
X151143718Y-123055405D01*
X151099961Y-122736325D01*
X150994795Y-122431912D01*
X150901814Y-122257956D01*
X150637413Y-122162192D01*
X149681605Y-123118000D01*
X149322395Y-123118000D01*
X148366587Y-122162192D01*
X148102186Y-122257956D01*
X147961296Y-122547571D01*
X147879616Y-122859108D01*
X147860282Y-123180595D01*
X144636189Y-123180595D01*
X144643718Y-123055405D01*
X144599961Y-122736325D01*
X144494795Y-122431912D01*
X144401814Y-122257956D01*
X144137413Y-122162192D01*
X143181605Y-123118000D01*
X142822395Y-123118000D01*
X141866587Y-122162192D01*
X141602186Y-122257956D01*
X141461296Y-122547571D01*
X141379616Y-122859108D01*
X141360282Y-123180595D01*
X140468189Y-123180595D01*
X140475718Y-123055405D01*
X140431961Y-122736325D01*
X140326795Y-122431912D01*
X140233814Y-122257956D01*
X139969413Y-122162192D01*
X139013605Y-123118000D01*
X138654395Y-123118000D01*
X137698587Y-122162192D01*
X137434186Y-122257956D01*
X137293296Y-122547571D01*
X137211616Y-122859108D01*
X137192282Y-123180595D01*
X133968189Y-123180595D01*
X133975718Y-123055405D01*
X133931961Y-122736325D01*
X133826795Y-122431912D01*
X133733814Y-122257956D01*
X133469413Y-122162192D01*
X132513605Y-123118000D01*
X132154395Y-123118000D01*
X131198587Y-122162192D01*
X130934186Y-122257956D01*
X130793296Y-122547571D01*
X130711616Y-122859108D01*
X130692282Y-123180595D01*
X68365186Y-123180595D01*
X68374168Y-123158912D01*
X68437000Y-122843033D01*
X68437000Y-122520967D01*
X68374168Y-122205088D01*
X68282005Y-121982587D01*
X131378192Y-121982587D01*
X132334000Y-122938395D01*
X133289808Y-121982587D01*
X137878192Y-121982587D01*
X138834000Y-122938395D01*
X139789808Y-121982587D01*
X142046192Y-121982587D01*
X143002000Y-122938395D01*
X143957808Y-121982587D01*
X148546192Y-121982587D01*
X149502000Y-122938395D01*
X150457808Y-121982587D01*
X150362044Y-121718186D01*
X150072429Y-121577296D01*
X149760892Y-121495616D01*
X149439405Y-121476282D01*
X149120325Y-121520039D01*
X148815912Y-121625205D01*
X148641956Y-121718186D01*
X148546192Y-121982587D01*
X143957808Y-121982587D01*
X143862044Y-121718186D01*
X143572429Y-121577296D01*
X143260892Y-121495616D01*
X142939405Y-121476282D01*
X142620325Y-121520039D01*
X142315912Y-121625205D01*
X142141956Y-121718186D01*
X142046192Y-121982587D01*
X139789808Y-121982587D01*
X139694044Y-121718186D01*
X139404429Y-121577296D01*
X139092892Y-121495616D01*
X138771405Y-121476282D01*
X138452325Y-121520039D01*
X138147912Y-121625205D01*
X137973956Y-121718186D01*
X137878192Y-121982587D01*
X133289808Y-121982587D01*
X133194044Y-121718186D01*
X132904429Y-121577296D01*
X132592892Y-121495616D01*
X132271405Y-121476282D01*
X131952325Y-121520039D01*
X131647912Y-121625205D01*
X131473956Y-121718186D01*
X131378192Y-121982587D01*
X68282005Y-121982587D01*
X68250918Y-121907537D01*
X68071987Y-121639748D01*
X67844252Y-121412013D01*
X67576463Y-121233082D01*
X67278912Y-121109832D01*
X66963033Y-121047000D01*
X66640967Y-121047000D01*
X66325088Y-121109832D01*
X66027537Y-121233082D01*
X65759748Y-121412013D01*
X65532013Y-121639748D01*
X65353082Y-121907537D01*
X65229832Y-122205088D01*
X65167000Y-122520967D01*
X61937000Y-122520967D01*
X61874168Y-122205088D01*
X61750918Y-121907537D01*
X61571987Y-121639748D01*
X61344252Y-121412013D01*
X61076463Y-121233082D01*
X60778912Y-121109832D01*
X60463033Y-121047000D01*
X60140967Y-121047000D01*
X59825088Y-121109832D01*
X59527537Y-121233082D01*
X59259748Y-121412013D01*
X59032013Y-121639748D01*
X58853082Y-121907537D01*
X58729832Y-122205088D01*
X58667000Y-122520967D01*
X57261000Y-122520967D01*
X57261000Y-122266967D01*
X57198168Y-121951088D01*
X57074918Y-121653537D01*
X56895987Y-121385748D01*
X56668252Y-121158013D01*
X56400463Y-120979082D01*
X56102912Y-120855832D01*
X55787033Y-120793000D01*
X55464967Y-120793000D01*
X55149088Y-120855832D01*
X54851537Y-120979082D01*
X54583748Y-121158013D01*
X54356013Y-121385748D01*
X54177082Y-121653537D01*
X54053832Y-121951088D01*
X53991000Y-122266967D01*
X50761000Y-122266967D01*
X50698168Y-121951088D01*
X50574918Y-121653537D01*
X50395987Y-121385748D01*
X50168252Y-121158013D01*
X49900463Y-120979082D01*
X49602912Y-120855832D01*
X49287033Y-120793000D01*
X48964967Y-120793000D01*
X48649088Y-120855832D01*
X48351537Y-120979082D01*
X48083748Y-121158013D01*
X47856013Y-121385748D01*
X47677082Y-121653537D01*
X47553832Y-121951088D01*
X47491000Y-122266967D01*
X36505608Y-122266967D01*
X36103392Y-121404414D01*
X35530441Y-119812982D01*
X35104084Y-118176169D01*
X35036341Y-117766967D01*
X47491000Y-117766967D01*
X47491000Y-118089033D01*
X47553832Y-118404912D01*
X47677082Y-118702463D01*
X47856013Y-118970252D01*
X48083748Y-119197987D01*
X48351537Y-119376918D01*
X48649088Y-119500168D01*
X48964967Y-119563000D01*
X49287033Y-119563000D01*
X49602912Y-119500168D01*
X49900463Y-119376918D01*
X50168252Y-119197987D01*
X50395987Y-118970252D01*
X50574918Y-118702463D01*
X50698168Y-118404912D01*
X50761000Y-118089033D01*
X50761000Y-117766967D01*
X53991000Y-117766967D01*
X53991000Y-118089033D01*
X54053832Y-118404912D01*
X54177082Y-118702463D01*
X54356013Y-118970252D01*
X54583748Y-119197987D01*
X54851537Y-119376918D01*
X55149088Y-119500168D01*
X55464967Y-119563000D01*
X55787033Y-119563000D01*
X56102912Y-119500168D01*
X56400463Y-119376918D01*
X56668252Y-119197987D01*
X56895987Y-118970252D01*
X57074918Y-118702463D01*
X57198168Y-118404912D01*
X57261000Y-118089033D01*
X57261000Y-118020967D01*
X58667000Y-118020967D01*
X58667000Y-118343033D01*
X58729832Y-118658912D01*
X58853082Y-118956463D01*
X59032013Y-119224252D01*
X59259748Y-119451987D01*
X59527537Y-119630918D01*
X59825088Y-119754168D01*
X60140967Y-119817000D01*
X60463033Y-119817000D01*
X60778912Y-119754168D01*
X61076463Y-119630918D01*
X61344252Y-119451987D01*
X61571987Y-119224252D01*
X61750918Y-118956463D01*
X61874168Y-118658912D01*
X61937000Y-118343033D01*
X61937000Y-118020967D01*
X65167000Y-118020967D01*
X65167000Y-118343033D01*
X65229832Y-118658912D01*
X65353082Y-118956463D01*
X65532013Y-119224252D01*
X65759748Y-119451987D01*
X66027537Y-119630918D01*
X66325088Y-119754168D01*
X66640967Y-119817000D01*
X66963033Y-119817000D01*
X67278912Y-119754168D01*
X67576463Y-119630918D01*
X67844252Y-119451987D01*
X68071987Y-119224252D01*
X68250918Y-118956463D01*
X68374168Y-118658912D01*
X68437000Y-118343033D01*
X68437000Y-118020967D01*
X68376073Y-117714665D01*
X75273000Y-117714665D01*
X75273000Y-117997335D01*
X75328147Y-118274574D01*
X75436320Y-118535727D01*
X75593363Y-118770759D01*
X75793241Y-118970637D01*
X76028273Y-119127680D01*
X76289426Y-119235853D01*
X76566665Y-119291000D01*
X76849335Y-119291000D01*
X77126574Y-119235853D01*
X77387727Y-119127680D01*
X77622759Y-118970637D01*
X77822637Y-118770759D01*
X77978000Y-118538241D01*
X78133363Y-118770759D01*
X78333241Y-118970637D01*
X78568273Y-119127680D01*
X78829426Y-119235853D01*
X79106665Y-119291000D01*
X79389335Y-119291000D01*
X79666574Y-119235853D01*
X79927727Y-119127680D01*
X80162759Y-118970637D01*
X80362637Y-118770759D01*
X80518000Y-118538241D01*
X80673363Y-118770759D01*
X80873241Y-118970637D01*
X81108273Y-119127680D01*
X81369426Y-119235853D01*
X81646665Y-119291000D01*
X81929335Y-119291000D01*
X82206574Y-119235853D01*
X82467727Y-119127680D01*
X82702759Y-118970637D01*
X82902637Y-118770759D01*
X83058000Y-118538241D01*
X83213363Y-118770759D01*
X83413241Y-118970637D01*
X83648273Y-119127680D01*
X83909426Y-119235853D01*
X84186665Y-119291000D01*
X84469335Y-119291000D01*
X84746574Y-119235853D01*
X85007727Y-119127680D01*
X85242759Y-118970637D01*
X85442637Y-118770759D01*
X85598000Y-118538241D01*
X85753363Y-118770759D01*
X85953241Y-118970637D01*
X86188273Y-119127680D01*
X86449426Y-119235853D01*
X86726665Y-119291000D01*
X87009335Y-119291000D01*
X87286574Y-119235853D01*
X87547727Y-119127680D01*
X87782759Y-118970637D01*
X87982637Y-118770759D01*
X88138000Y-118538241D01*
X88293363Y-118770759D01*
X88493241Y-118970637D01*
X88728273Y-119127680D01*
X88989426Y-119235853D01*
X89266665Y-119291000D01*
X89549335Y-119291000D01*
X89826574Y-119235853D01*
X90087727Y-119127680D01*
X90322759Y-118970637D01*
X90522637Y-118770759D01*
X90678000Y-118538241D01*
X90833363Y-118770759D01*
X91033241Y-118970637D01*
X91268273Y-119127680D01*
X91529426Y-119235853D01*
X91806665Y-119291000D01*
X92089335Y-119291000D01*
X92366574Y-119235853D01*
X92627727Y-119127680D01*
X92862759Y-118970637D01*
X93062637Y-118770759D01*
X93218000Y-118538241D01*
X93373363Y-118770759D01*
X93573241Y-118970637D01*
X93808273Y-119127680D01*
X94069426Y-119235853D01*
X94346665Y-119291000D01*
X94629335Y-119291000D01*
X94906574Y-119235853D01*
X95167727Y-119127680D01*
X95402759Y-118970637D01*
X95602637Y-118770759D01*
X95759680Y-118535727D01*
X95867853Y-118274574D01*
X95923000Y-117997335D01*
X95923000Y-117714665D01*
X103467000Y-117714665D01*
X103467000Y-117997335D01*
X103522147Y-118274574D01*
X103630320Y-118535727D01*
X103787363Y-118770759D01*
X103987241Y-118970637D01*
X104222273Y-119127680D01*
X104483426Y-119235853D01*
X104760665Y-119291000D01*
X105043335Y-119291000D01*
X105320574Y-119235853D01*
X105581727Y-119127680D01*
X105816759Y-118970637D01*
X106016637Y-118770759D01*
X106172000Y-118538241D01*
X106327363Y-118770759D01*
X106527241Y-118970637D01*
X106762273Y-119127680D01*
X107023426Y-119235853D01*
X107300665Y-119291000D01*
X107583335Y-119291000D01*
X107860574Y-119235853D01*
X108121727Y-119127680D01*
X108356759Y-118970637D01*
X108556637Y-118770759D01*
X108712000Y-118538241D01*
X108867363Y-118770759D01*
X109067241Y-118970637D01*
X109302273Y-119127680D01*
X109563426Y-119235853D01*
X109840665Y-119291000D01*
X110123335Y-119291000D01*
X110400574Y-119235853D01*
X110661727Y-119127680D01*
X110896759Y-118970637D01*
X111096637Y-118770759D01*
X111252000Y-118538241D01*
X111407363Y-118770759D01*
X111607241Y-118970637D01*
X111842273Y-119127680D01*
X112103426Y-119235853D01*
X112380665Y-119291000D01*
X112663335Y-119291000D01*
X112940574Y-119235853D01*
X113201727Y-119127680D01*
X113436759Y-118970637D01*
X113636637Y-118770759D01*
X113792000Y-118538241D01*
X113947363Y-118770759D01*
X114147241Y-118970637D01*
X114382273Y-119127680D01*
X114643426Y-119235853D01*
X114920665Y-119291000D01*
X115203335Y-119291000D01*
X115480574Y-119235853D01*
X115741727Y-119127680D01*
X115976759Y-118970637D01*
X116176637Y-118770759D01*
X116332000Y-118538241D01*
X116487363Y-118770759D01*
X116687241Y-118970637D01*
X116922273Y-119127680D01*
X117183426Y-119235853D01*
X117460665Y-119291000D01*
X117743335Y-119291000D01*
X118020574Y-119235853D01*
X118281727Y-119127680D01*
X118516759Y-118970637D01*
X118716637Y-118770759D01*
X118872000Y-118538241D01*
X119027363Y-118770759D01*
X119227241Y-118970637D01*
X119462273Y-119127680D01*
X119723426Y-119235853D01*
X120000665Y-119291000D01*
X120283335Y-119291000D01*
X120560574Y-119235853D01*
X120821727Y-119127680D01*
X121056759Y-118970637D01*
X121256637Y-118770759D01*
X121412000Y-118538241D01*
X121567363Y-118770759D01*
X121767241Y-118970637D01*
X122002273Y-119127680D01*
X122263426Y-119235853D01*
X122540665Y-119291000D01*
X122823335Y-119291000D01*
X123100574Y-119235853D01*
X123361727Y-119127680D01*
X123596759Y-118970637D01*
X123796637Y-118770759D01*
X123953680Y-118535727D01*
X124061853Y-118274574D01*
X124117000Y-117997335D01*
X124117000Y-117714665D01*
X124061853Y-117437426D01*
X123953680Y-117176273D01*
X123796637Y-116941241D01*
X123596759Y-116741363D01*
X123361727Y-116584320D01*
X123100574Y-116476147D01*
X122823335Y-116421000D01*
X122540665Y-116421000D01*
X122263426Y-116476147D01*
X122002273Y-116584320D01*
X121767241Y-116741363D01*
X121567363Y-116941241D01*
X121412000Y-117173759D01*
X121256637Y-116941241D01*
X121056759Y-116741363D01*
X120821727Y-116584320D01*
X120560574Y-116476147D01*
X120283335Y-116421000D01*
X120000665Y-116421000D01*
X119723426Y-116476147D01*
X119462273Y-116584320D01*
X119227241Y-116741363D01*
X119027363Y-116941241D01*
X118872000Y-117173759D01*
X118716637Y-116941241D01*
X118516759Y-116741363D01*
X118281727Y-116584320D01*
X118020574Y-116476147D01*
X117743335Y-116421000D01*
X117460665Y-116421000D01*
X117183426Y-116476147D01*
X116922273Y-116584320D01*
X116687241Y-116741363D01*
X116487363Y-116941241D01*
X116332000Y-117173759D01*
X116176637Y-116941241D01*
X115976759Y-116741363D01*
X115741727Y-116584320D01*
X115480574Y-116476147D01*
X115203335Y-116421000D01*
X114920665Y-116421000D01*
X114643426Y-116476147D01*
X114382273Y-116584320D01*
X114147241Y-116741363D01*
X113947363Y-116941241D01*
X113792000Y-117173759D01*
X113636637Y-116941241D01*
X113436759Y-116741363D01*
X113201727Y-116584320D01*
X112940574Y-116476147D01*
X112663335Y-116421000D01*
X112380665Y-116421000D01*
X112103426Y-116476147D01*
X111842273Y-116584320D01*
X111607241Y-116741363D01*
X111407363Y-116941241D01*
X111252000Y-117173759D01*
X111096637Y-116941241D01*
X110896759Y-116741363D01*
X110661727Y-116584320D01*
X110400574Y-116476147D01*
X110123335Y-116421000D01*
X109840665Y-116421000D01*
X109563426Y-116476147D01*
X109302273Y-116584320D01*
X109067241Y-116741363D01*
X108867363Y-116941241D01*
X108712000Y-117173759D01*
X108556637Y-116941241D01*
X108356759Y-116741363D01*
X108121727Y-116584320D01*
X107860574Y-116476147D01*
X107583335Y-116421000D01*
X107300665Y-116421000D01*
X107023426Y-116476147D01*
X106762273Y-116584320D01*
X106527241Y-116741363D01*
X106327363Y-116941241D01*
X106172000Y-117173759D01*
X106016637Y-116941241D01*
X105816759Y-116741363D01*
X105581727Y-116584320D01*
X105320574Y-116476147D01*
X105043335Y-116421000D01*
X104760665Y-116421000D01*
X104483426Y-116476147D01*
X104222273Y-116584320D01*
X103987241Y-116741363D01*
X103787363Y-116941241D01*
X103630320Y-117176273D01*
X103522147Y-117437426D01*
X103467000Y-117714665D01*
X95923000Y-117714665D01*
X95867853Y-117437426D01*
X95759680Y-117176273D01*
X95602637Y-116941241D01*
X95402759Y-116741363D01*
X95167727Y-116584320D01*
X94906574Y-116476147D01*
X94629335Y-116421000D01*
X94346665Y-116421000D01*
X94069426Y-116476147D01*
X93808273Y-116584320D01*
X93573241Y-116741363D01*
X93373363Y-116941241D01*
X93218000Y-117173759D01*
X93062637Y-116941241D01*
X92862759Y-116741363D01*
X92627727Y-116584320D01*
X92366574Y-116476147D01*
X92089335Y-116421000D01*
X91806665Y-116421000D01*
X91529426Y-116476147D01*
X91268273Y-116584320D01*
X91033241Y-116741363D01*
X90833363Y-116941241D01*
X90678000Y-117173759D01*
X90522637Y-116941241D01*
X90322759Y-116741363D01*
X90087727Y-116584320D01*
X89826574Y-116476147D01*
X89549335Y-116421000D01*
X89266665Y-116421000D01*
X88989426Y-116476147D01*
X88728273Y-116584320D01*
X88493241Y-116741363D01*
X88293363Y-116941241D01*
X88138000Y-117173759D01*
X87982637Y-116941241D01*
X87782759Y-116741363D01*
X87547727Y-116584320D01*
X87286574Y-116476147D01*
X87009335Y-116421000D01*
X86726665Y-116421000D01*
X86449426Y-116476147D01*
X86188273Y-116584320D01*
X85953241Y-116741363D01*
X85753363Y-116941241D01*
X85598000Y-117173759D01*
X85442637Y-116941241D01*
X85242759Y-116741363D01*
X85007727Y-116584320D01*
X84746574Y-116476147D01*
X84469335Y-116421000D01*
X84186665Y-116421000D01*
X83909426Y-116476147D01*
X83648273Y-116584320D01*
X83413241Y-116741363D01*
X83213363Y-116941241D01*
X83058000Y-117173759D01*
X82902637Y-116941241D01*
X82702759Y-116741363D01*
X82467727Y-116584320D01*
X82206574Y-116476147D01*
X81929335Y-116421000D01*
X81646665Y-116421000D01*
X81369426Y-116476147D01*
X81108273Y-116584320D01*
X80873241Y-116741363D01*
X80673363Y-116941241D01*
X80518000Y-117173759D01*
X80362637Y-116941241D01*
X80162759Y-116741363D01*
X79927727Y-116584320D01*
X79666574Y-116476147D01*
X79389335Y-116421000D01*
X79106665Y-116421000D01*
X78829426Y-116476147D01*
X78568273Y-116584320D01*
X78333241Y-116741363D01*
X78133363Y-116941241D01*
X77978000Y-117173759D01*
X77822637Y-116941241D01*
X77622759Y-116741363D01*
X77387727Y-116584320D01*
X77126574Y-116476147D01*
X76849335Y-116421000D01*
X76566665Y-116421000D01*
X76289426Y-116476147D01*
X76028273Y-116584320D01*
X75793241Y-116741363D01*
X75593363Y-116941241D01*
X75436320Y-117176273D01*
X75328147Y-117437426D01*
X75273000Y-117714665D01*
X68376073Y-117714665D01*
X68374168Y-117705088D01*
X68250918Y-117407537D01*
X68071987Y-117139748D01*
X67844252Y-116912013D01*
X67576463Y-116733082D01*
X67278912Y-116609832D01*
X66963033Y-116547000D01*
X66640967Y-116547000D01*
X66325088Y-116609832D01*
X66027537Y-116733082D01*
X65759748Y-116912013D01*
X65532013Y-117139748D01*
X65353082Y-117407537D01*
X65229832Y-117705088D01*
X65167000Y-118020967D01*
X61937000Y-118020967D01*
X61874168Y-117705088D01*
X61750918Y-117407537D01*
X61571987Y-117139748D01*
X61344252Y-116912013D01*
X61076463Y-116733082D01*
X60778912Y-116609832D01*
X60463033Y-116547000D01*
X60140967Y-116547000D01*
X59825088Y-116609832D01*
X59527537Y-116733082D01*
X59259748Y-116912013D01*
X59032013Y-117139748D01*
X58853082Y-117407537D01*
X58729832Y-117705088D01*
X58667000Y-118020967D01*
X57261000Y-118020967D01*
X57261000Y-117766967D01*
X57198168Y-117451088D01*
X57074918Y-117153537D01*
X56895987Y-116885748D01*
X56668252Y-116658013D01*
X56400463Y-116479082D01*
X56102912Y-116355832D01*
X55787033Y-116293000D01*
X55464967Y-116293000D01*
X55149088Y-116355832D01*
X54851537Y-116479082D01*
X54583748Y-116658013D01*
X54356013Y-116885748D01*
X54177082Y-117153537D01*
X54053832Y-117451088D01*
X53991000Y-117766967D01*
X50761000Y-117766967D01*
X50698168Y-117451088D01*
X50574918Y-117153537D01*
X50395987Y-116885748D01*
X50168252Y-116658013D01*
X49900463Y-116479082D01*
X49602912Y-116355832D01*
X49287033Y-116293000D01*
X48964967Y-116293000D01*
X48649088Y-116355832D01*
X48351537Y-116479082D01*
X48083748Y-116658013D01*
X47856013Y-116885748D01*
X47677082Y-117153537D01*
X47553832Y-117451088D01*
X47491000Y-117766967D01*
X35036341Y-117766967D01*
X34827828Y-116507443D01*
X34703949Y-114820541D01*
X34733469Y-113129384D01*
X34916143Y-111447833D01*
X35250467Y-109789773D01*
X35468329Y-109058967D01*
X47745000Y-109058967D01*
X47745000Y-109381033D01*
X47807832Y-109696912D01*
X47931082Y-109994463D01*
X48110013Y-110262252D01*
X48337748Y-110489987D01*
X48605537Y-110668918D01*
X48903088Y-110792168D01*
X49218967Y-110855000D01*
X49541033Y-110855000D01*
X49856912Y-110792168D01*
X50154463Y-110668918D01*
X50422252Y-110489987D01*
X50649987Y-110262252D01*
X50828918Y-109994463D01*
X50952168Y-109696912D01*
X51015000Y-109381033D01*
X51015000Y-109058967D01*
X54245000Y-109058967D01*
X54245000Y-109381033D01*
X54307832Y-109696912D01*
X54431082Y-109994463D01*
X54610013Y-110262252D01*
X54837748Y-110489987D01*
X55105537Y-110668918D01*
X55403088Y-110792168D01*
X55718967Y-110855000D01*
X56041033Y-110855000D01*
X56356912Y-110792168D01*
X56654463Y-110668918D01*
X56922252Y-110489987D01*
X57149987Y-110262252D01*
X57328918Y-109994463D01*
X57452168Y-109696912D01*
X57515000Y-109381033D01*
X57515000Y-109058967D01*
X58921000Y-109058967D01*
X58921000Y-109381033D01*
X58983832Y-109696912D01*
X59107082Y-109994463D01*
X59286013Y-110262252D01*
X59513748Y-110489987D01*
X59781537Y-110668918D01*
X60079088Y-110792168D01*
X60394967Y-110855000D01*
X60717033Y-110855000D01*
X61032912Y-110792168D01*
X61330463Y-110668918D01*
X61598252Y-110489987D01*
X61825987Y-110262252D01*
X62004918Y-109994463D01*
X62128168Y-109696912D01*
X62191000Y-109381033D01*
X62191000Y-109058967D01*
X65421000Y-109058967D01*
X65421000Y-109381033D01*
X65483832Y-109696912D01*
X65607082Y-109994463D01*
X65786013Y-110262252D01*
X66013748Y-110489987D01*
X66281537Y-110668918D01*
X66579088Y-110792168D01*
X66894967Y-110855000D01*
X67217033Y-110855000D01*
X67532912Y-110792168D01*
X67830463Y-110668918D01*
X68098252Y-110489987D01*
X68325987Y-110262252D01*
X68504918Y-109994463D01*
X68628168Y-109696912D01*
X68691000Y-109381033D01*
X68691000Y-109058967D01*
X68628168Y-108743088D01*
X68504918Y-108445537D01*
X68325987Y-108177748D01*
X68098252Y-107950013D01*
X67830463Y-107771082D01*
X67532912Y-107647832D01*
X67217033Y-107585000D01*
X66894967Y-107585000D01*
X66579088Y-107647832D01*
X66281537Y-107771082D01*
X66013748Y-107950013D01*
X65786013Y-108177748D01*
X65607082Y-108445537D01*
X65483832Y-108743088D01*
X65421000Y-109058967D01*
X62191000Y-109058967D01*
X62128168Y-108743088D01*
X62004918Y-108445537D01*
X61825987Y-108177748D01*
X61598252Y-107950013D01*
X61330463Y-107771082D01*
X61032912Y-107647832D01*
X60717033Y-107585000D01*
X60394967Y-107585000D01*
X60079088Y-107647832D01*
X59781537Y-107771082D01*
X59513748Y-107950013D01*
X59286013Y-108177748D01*
X59107082Y-108445537D01*
X58983832Y-108743088D01*
X58921000Y-109058967D01*
X57515000Y-109058967D01*
X57452168Y-108743088D01*
X57328918Y-108445537D01*
X57149987Y-108177748D01*
X56922252Y-107950013D01*
X56654463Y-107771082D01*
X56356912Y-107647832D01*
X56041033Y-107585000D01*
X55718967Y-107585000D01*
X55403088Y-107647832D01*
X55105537Y-107771082D01*
X54837748Y-107950013D01*
X54610013Y-108177748D01*
X54431082Y-108445537D01*
X54307832Y-108743088D01*
X54245000Y-109058967D01*
X51015000Y-109058967D01*
X50952168Y-108743088D01*
X50828918Y-108445537D01*
X50649987Y-108177748D01*
X50422252Y-107950013D01*
X50154463Y-107771082D01*
X49856912Y-107647832D01*
X49541033Y-107585000D01*
X49218967Y-107585000D01*
X48903088Y-107647832D01*
X48605537Y-107771082D01*
X48337748Y-107950013D01*
X48110013Y-108177748D01*
X47931082Y-108445537D01*
X47807832Y-108743088D01*
X47745000Y-109058967D01*
X35468329Y-109058967D01*
X35733688Y-108168838D01*
X36361833Y-106598364D01*
X37129727Y-105091287D01*
X38031058Y-103659997D01*
X39058391Y-102316303D01*
X40203283Y-101071243D01*
X41076374Y-100279572D01*
X40921656Y-100511124D01*
X40707948Y-101027061D01*
X40599000Y-101574777D01*
X40599000Y-102133223D01*
X40707948Y-102680939D01*
X40921656Y-103196876D01*
X41231912Y-103661207D01*
X41626793Y-104056088D01*
X42091124Y-104366344D01*
X42607061Y-104580052D01*
X43154777Y-104689000D01*
X43713223Y-104689000D01*
X44260939Y-104580052D01*
X44311842Y-104558967D01*
X47745000Y-104558967D01*
X47745000Y-104881033D01*
X47807832Y-105196912D01*
X47931082Y-105494463D01*
X48110013Y-105762252D01*
X48337748Y-105989987D01*
X48605537Y-106168918D01*
X48903088Y-106292168D01*
X49218967Y-106355000D01*
X49541033Y-106355000D01*
X49856912Y-106292168D01*
X50154463Y-106168918D01*
X50422252Y-105989987D01*
X50649987Y-105762252D01*
X50828918Y-105494463D01*
X50952168Y-105196912D01*
X51015000Y-104881033D01*
X51015000Y-104558967D01*
X54245000Y-104558967D01*
X54245000Y-104881033D01*
X54307832Y-105196912D01*
X54431082Y-105494463D01*
X54610013Y-105762252D01*
X54837748Y-105989987D01*
X55105537Y-106168918D01*
X55403088Y-106292168D01*
X55718967Y-106355000D01*
X56041033Y-106355000D01*
X56356912Y-106292168D01*
X56654463Y-106168918D01*
X56922252Y-105989987D01*
X57149987Y-105762252D01*
X57328918Y-105494463D01*
X57452168Y-105196912D01*
X57515000Y-104881033D01*
X57515000Y-104558967D01*
X58921000Y-104558967D01*
X58921000Y-104881033D01*
X58983832Y-105196912D01*
X59107082Y-105494463D01*
X59286013Y-105762252D01*
X59513748Y-105989987D01*
X59781537Y-106168918D01*
X60079088Y-106292168D01*
X60394967Y-106355000D01*
X60717033Y-106355000D01*
X61032912Y-106292168D01*
X61330463Y-106168918D01*
X61598252Y-105989987D01*
X61825987Y-105762252D01*
X62004918Y-105494463D01*
X62128168Y-105196912D01*
X62191000Y-104881033D01*
X62191000Y-104558967D01*
X65421000Y-104558967D01*
X65421000Y-104881033D01*
X65483832Y-105196912D01*
X65607082Y-105494463D01*
X65786013Y-105762252D01*
X66013748Y-105989987D01*
X66281537Y-106168918D01*
X66579088Y-106292168D01*
X66894967Y-106355000D01*
X67217033Y-106355000D01*
X67532912Y-106292168D01*
X67830463Y-106168918D01*
X68098252Y-105989987D01*
X68325987Y-105762252D01*
X68504918Y-105494463D01*
X68628168Y-105196912D01*
X68691000Y-104881033D01*
X68691000Y-104558967D01*
X68628168Y-104243088D01*
X68504918Y-103945537D01*
X68325987Y-103677748D01*
X68098252Y-103450013D01*
X67830463Y-103271082D01*
X67532912Y-103147832D01*
X67217033Y-103085000D01*
X66894967Y-103085000D01*
X66579088Y-103147832D01*
X66281537Y-103271082D01*
X66013748Y-103450013D01*
X65786013Y-103677748D01*
X65607082Y-103945537D01*
X65483832Y-104243088D01*
X65421000Y-104558967D01*
X62191000Y-104558967D01*
X62128168Y-104243088D01*
X62004918Y-103945537D01*
X61825987Y-103677748D01*
X61598252Y-103450013D01*
X61330463Y-103271082D01*
X61032912Y-103147832D01*
X60717033Y-103085000D01*
X60394967Y-103085000D01*
X60079088Y-103147832D01*
X59781537Y-103271082D01*
X59513748Y-103450013D01*
X59286013Y-103677748D01*
X59107082Y-103945537D01*
X58983832Y-104243088D01*
X58921000Y-104558967D01*
X57515000Y-104558967D01*
X57452168Y-104243088D01*
X57328918Y-103945537D01*
X57149987Y-103677748D01*
X56922252Y-103450013D01*
X56654463Y-103271082D01*
X56356912Y-103147832D01*
X56041033Y-103085000D01*
X55718967Y-103085000D01*
X55403088Y-103147832D01*
X55105537Y-103271082D01*
X54837748Y-103450013D01*
X54610013Y-103677748D01*
X54431082Y-103945537D01*
X54307832Y-104243088D01*
X54245000Y-104558967D01*
X51015000Y-104558967D01*
X50952168Y-104243088D01*
X50828918Y-103945537D01*
X50649987Y-103677748D01*
X50422252Y-103450013D01*
X50154463Y-103271082D01*
X49856912Y-103147832D01*
X49541033Y-103085000D01*
X49218967Y-103085000D01*
X48903088Y-103147832D01*
X48605537Y-103271082D01*
X48337748Y-103450013D01*
X48110013Y-103677748D01*
X47931082Y-103945537D01*
X47807832Y-104243088D01*
X47745000Y-104558967D01*
X44311842Y-104558967D01*
X44776876Y-104366344D01*
X45241207Y-104056088D01*
X45636088Y-103661207D01*
X45946344Y-103196876D01*
X46160052Y-102680939D01*
X46269000Y-102133223D01*
X46269000Y-101574777D01*
X46160052Y-101027061D01*
X45946344Y-100511124D01*
X45636088Y-100046793D01*
X45241207Y-99651912D01*
X44776876Y-99341656D01*
X44260939Y-99127948D01*
X43713223Y-99019000D01*
X43154777Y-99019000D01*
X42607061Y-99127948D01*
X42430154Y-99201225D01*
X42807146Y-98917142D01*
X44244675Y-98025836D01*
X45757082Y-97268478D01*
X47243393Y-96686000D01*
X64551928Y-96686000D01*
X64551928Y-98386000D01*
X64564188Y-98510482D01*
X64600498Y-98630180D01*
X64659463Y-98740494D01*
X64738815Y-98837185D01*
X64835506Y-98916537D01*
X64945820Y-98975502D01*
X65065518Y-99011812D01*
X65190000Y-99024072D01*
X66890000Y-99024072D01*
X67014482Y-99011812D01*
X67134180Y-98975502D01*
X67244494Y-98916537D01*
X67341185Y-98837185D01*
X67420537Y-98740494D01*
X67479502Y-98630180D01*
X67503966Y-98549534D01*
X67579731Y-98633588D01*
X67813080Y-98807641D01*
X68075901Y-98932825D01*
X68223110Y-98977476D01*
X68453000Y-98856155D01*
X68453000Y-97663000D01*
X68433000Y-97663000D01*
X68433000Y-97409000D01*
X68453000Y-97409000D01*
X68453000Y-96215845D01*
X68707000Y-96215845D01*
X68707000Y-97409000D01*
X68727000Y-97409000D01*
X68727000Y-97663000D01*
X68707000Y-97663000D01*
X68707000Y-98856155D01*
X68936890Y-98977476D01*
X69084099Y-98932825D01*
X69346920Y-98807641D01*
X69580269Y-98633588D01*
X69775178Y-98417355D01*
X69844805Y-98300466D01*
X69966525Y-98482632D01*
X70173368Y-98689475D01*
X70416589Y-98851990D01*
X70686842Y-98963932D01*
X70973740Y-99021000D01*
X71266260Y-99021000D01*
X71553158Y-98963932D01*
X71823411Y-98851990D01*
X72066632Y-98689475D01*
X72273475Y-98482632D01*
X72390000Y-98308240D01*
X72506525Y-98482632D01*
X72713368Y-98689475D01*
X72956589Y-98851990D01*
X73226842Y-98963932D01*
X73513740Y-99021000D01*
X73806260Y-99021000D01*
X74093158Y-98963932D01*
X74363411Y-98851990D01*
X74606632Y-98689475D01*
X74813475Y-98482632D01*
X74930000Y-98308240D01*
X75046525Y-98482632D01*
X75253368Y-98689475D01*
X75496589Y-98851990D01*
X75766842Y-98963932D01*
X76053740Y-99021000D01*
X76346260Y-99021000D01*
X76633158Y-98963932D01*
X76903411Y-98851990D01*
X77146632Y-98689475D01*
X77353475Y-98482632D01*
X77470000Y-98308240D01*
X77586525Y-98482632D01*
X77793368Y-98689475D01*
X78036589Y-98851990D01*
X78306842Y-98963932D01*
X78593740Y-99021000D01*
X78720198Y-99021000D01*
X76196998Y-101544201D01*
X76168000Y-101567999D01*
X76144202Y-101596997D01*
X76144201Y-101596998D01*
X76073026Y-101683724D01*
X76002454Y-101815754D01*
X75986964Y-101866820D01*
X75958998Y-101959014D01*
X75951716Y-102032945D01*
X75944324Y-102108000D01*
X75948001Y-102145332D01*
X75948000Y-109017956D01*
X75793241Y-109121363D01*
X75593363Y-109321241D01*
X75436320Y-109556273D01*
X75328147Y-109817426D01*
X75273000Y-110094665D01*
X75273000Y-110377335D01*
X75328147Y-110654574D01*
X75436320Y-110915727D01*
X75593363Y-111150759D01*
X75793241Y-111350637D01*
X76028273Y-111507680D01*
X76289426Y-111615853D01*
X76566665Y-111671000D01*
X76849335Y-111671000D01*
X77126574Y-111615853D01*
X77387727Y-111507680D01*
X77622759Y-111350637D01*
X77822637Y-111150759D01*
X77978000Y-110918241D01*
X78133363Y-111150759D01*
X78333241Y-111350637D01*
X78568273Y-111507680D01*
X78829426Y-111615853D01*
X79106665Y-111671000D01*
X79389335Y-111671000D01*
X79666574Y-111615853D01*
X79927727Y-111507680D01*
X80162759Y-111350637D01*
X80362637Y-111150759D01*
X80518000Y-110918241D01*
X80673363Y-111150759D01*
X80873241Y-111350637D01*
X81108273Y-111507680D01*
X81369426Y-111615853D01*
X81646665Y-111671000D01*
X81929335Y-111671000D01*
X82206574Y-111615853D01*
X82467727Y-111507680D01*
X82702759Y-111350637D01*
X82902637Y-111150759D01*
X83058000Y-110918241D01*
X83213363Y-111150759D01*
X83413241Y-111350637D01*
X83648273Y-111507680D01*
X83909426Y-111615853D01*
X84186665Y-111671000D01*
X84469335Y-111671000D01*
X84746574Y-111615853D01*
X85007727Y-111507680D01*
X85242759Y-111350637D01*
X85442637Y-111150759D01*
X85598000Y-110918241D01*
X85753363Y-111150759D01*
X85953241Y-111350637D01*
X86188273Y-111507680D01*
X86449426Y-111615853D01*
X86726665Y-111671000D01*
X87009335Y-111671000D01*
X87286574Y-111615853D01*
X87547727Y-111507680D01*
X87782759Y-111350637D01*
X87982637Y-111150759D01*
X88138000Y-110918241D01*
X88293363Y-111150759D01*
X88493241Y-111350637D01*
X88728273Y-111507680D01*
X88989426Y-111615853D01*
X89266665Y-111671000D01*
X89549335Y-111671000D01*
X89826574Y-111615853D01*
X90087727Y-111507680D01*
X90322759Y-111350637D01*
X90522637Y-111150759D01*
X90678000Y-110918241D01*
X90833363Y-111150759D01*
X91033241Y-111350637D01*
X91268273Y-111507680D01*
X91529426Y-111615853D01*
X91806665Y-111671000D01*
X92089335Y-111671000D01*
X92366574Y-111615853D01*
X92627727Y-111507680D01*
X92862759Y-111350637D01*
X93061357Y-111152039D01*
X93062188Y-111160482D01*
X93098498Y-111280180D01*
X93157463Y-111390494D01*
X93236815Y-111487185D01*
X93333506Y-111566537D01*
X93443820Y-111625502D01*
X93563518Y-111661812D01*
X93688000Y-111674072D01*
X95288000Y-111674072D01*
X95412482Y-111661812D01*
X95532180Y-111625502D01*
X95642494Y-111566537D01*
X95739185Y-111487185D01*
X95818537Y-111390494D01*
X95877502Y-111280180D01*
X95913812Y-111160482D01*
X95926072Y-111036000D01*
X95926072Y-109436000D01*
X95913812Y-109311518D01*
X95877502Y-109191820D01*
X95818537Y-109081506D01*
X95739185Y-108984815D01*
X95642494Y-108905463D01*
X95532180Y-108846498D01*
X95412482Y-108810188D01*
X95288000Y-108797928D01*
X95248000Y-108797928D01*
X95248000Y-102422801D01*
X98693593Y-98977210D01*
X98913740Y-99021000D01*
X99206260Y-99021000D01*
X99493158Y-98963932D01*
X99763411Y-98851990D01*
X100006632Y-98689475D01*
X100213475Y-98482632D01*
X100330000Y-98308240D01*
X100446525Y-98482632D01*
X100653368Y-98689475D01*
X100896589Y-98851990D01*
X101166842Y-98963932D01*
X101453740Y-99021000D01*
X101746260Y-99021000D01*
X101966408Y-98977209D01*
X104142001Y-101152803D01*
X104142000Y-109017956D01*
X103987241Y-109121363D01*
X103787363Y-109321241D01*
X103630320Y-109556273D01*
X103522147Y-109817426D01*
X103467000Y-110094665D01*
X103467000Y-110377335D01*
X103522147Y-110654574D01*
X103630320Y-110915727D01*
X103787363Y-111150759D01*
X103987241Y-111350637D01*
X104222273Y-111507680D01*
X104483426Y-111615853D01*
X104760665Y-111671000D01*
X105043335Y-111671000D01*
X105320574Y-111615853D01*
X105581727Y-111507680D01*
X105816759Y-111350637D01*
X106016637Y-111150759D01*
X106172000Y-110918241D01*
X106327363Y-111150759D01*
X106527241Y-111350637D01*
X106762273Y-111507680D01*
X107023426Y-111615853D01*
X107300665Y-111671000D01*
X107583335Y-111671000D01*
X107860574Y-111615853D01*
X108121727Y-111507680D01*
X108356759Y-111350637D01*
X108556637Y-111150759D01*
X108712000Y-110918241D01*
X108867363Y-111150759D01*
X109067241Y-111350637D01*
X109302273Y-111507680D01*
X109563426Y-111615853D01*
X109840665Y-111671000D01*
X110123335Y-111671000D01*
X110400574Y-111615853D01*
X110661727Y-111507680D01*
X110896759Y-111350637D01*
X111096637Y-111150759D01*
X111252000Y-110918241D01*
X111407363Y-111150759D01*
X111607241Y-111350637D01*
X111842273Y-111507680D01*
X112103426Y-111615853D01*
X112380665Y-111671000D01*
X112663335Y-111671000D01*
X112940574Y-111615853D01*
X113201727Y-111507680D01*
X113436759Y-111350637D01*
X113636637Y-111150759D01*
X113792000Y-110918241D01*
X113947363Y-111150759D01*
X114147241Y-111350637D01*
X114382273Y-111507680D01*
X114643426Y-111615853D01*
X114920665Y-111671000D01*
X115203335Y-111671000D01*
X115480574Y-111615853D01*
X115741727Y-111507680D01*
X115976759Y-111350637D01*
X116176637Y-111150759D01*
X116332000Y-110918241D01*
X116487363Y-111150759D01*
X116687241Y-111350637D01*
X116922273Y-111507680D01*
X117183426Y-111615853D01*
X117460665Y-111671000D01*
X117743335Y-111671000D01*
X118020574Y-111615853D01*
X118281727Y-111507680D01*
X118516759Y-111350637D01*
X118716637Y-111150759D01*
X118872000Y-110918241D01*
X119027363Y-111150759D01*
X119227241Y-111350637D01*
X119462273Y-111507680D01*
X119723426Y-111615853D01*
X120000665Y-111671000D01*
X120283335Y-111671000D01*
X120560574Y-111615853D01*
X120821727Y-111507680D01*
X121056759Y-111350637D01*
X121255357Y-111152039D01*
X121256188Y-111160482D01*
X121292498Y-111280180D01*
X121351463Y-111390494D01*
X121430815Y-111487185D01*
X121527506Y-111566537D01*
X121637820Y-111625502D01*
X121757518Y-111661812D01*
X121882000Y-111674072D01*
X123482000Y-111674072D01*
X123606482Y-111661812D01*
X123726180Y-111625502D01*
X123836494Y-111566537D01*
X123933185Y-111487185D01*
X124012537Y-111390494D01*
X124071502Y-111280180D01*
X124107812Y-111160482D01*
X124120072Y-111036000D01*
X124120072Y-109436000D01*
X124107812Y-109311518D01*
X124071502Y-109191820D01*
X124012537Y-109081506D01*
X123933185Y-108984815D01*
X123836494Y-108905463D01*
X123726180Y-108846498D01*
X123606482Y-108810188D01*
X123482000Y-108797928D01*
X123442000Y-108797928D01*
X123442000Y-100875322D01*
X123445676Y-100837999D01*
X123442000Y-100800676D01*
X123442000Y-100800667D01*
X123431003Y-100689014D01*
X123387546Y-100545753D01*
X123316974Y-100413724D01*
X123222001Y-100297999D01*
X123193003Y-100274201D01*
X121939802Y-99021000D01*
X122066260Y-99021000D01*
X122353158Y-98963932D01*
X122623411Y-98851990D01*
X122866632Y-98689475D01*
X123073475Y-98482632D01*
X123190000Y-98308240D01*
X123306525Y-98482632D01*
X123513368Y-98689475D01*
X123756589Y-98851990D01*
X124026842Y-98963932D01*
X124313740Y-99021000D01*
X124606260Y-99021000D01*
X124893158Y-98963932D01*
X125163411Y-98851990D01*
X125406632Y-98689475D01*
X125613475Y-98482632D01*
X125730000Y-98308240D01*
X125846525Y-98482632D01*
X126053368Y-98689475D01*
X126296589Y-98851990D01*
X126566842Y-98963932D01*
X126853740Y-99021000D01*
X127146260Y-99021000D01*
X127433158Y-98963932D01*
X127703411Y-98851990D01*
X127946632Y-98689475D01*
X128153475Y-98482632D01*
X128270000Y-98308240D01*
X128386525Y-98482632D01*
X128593368Y-98689475D01*
X128836589Y-98851990D01*
X129106842Y-98963932D01*
X129393740Y-99021000D01*
X129686260Y-99021000D01*
X129758961Y-99006539D01*
X131283001Y-100530580D01*
X131283001Y-100819000D01*
X131216061Y-100819000D01*
X131016102Y-100858774D01*
X130827744Y-100936795D01*
X130658226Y-101050063D01*
X130514063Y-101194226D01*
X130400795Y-101363744D01*
X130322774Y-101552102D01*
X130311465Y-101608956D01*
X129052950Y-102867472D01*
X129019183Y-102895184D01*
X128991470Y-102928952D01*
X128991467Y-102928955D01*
X128908589Y-103029942D01*
X128826411Y-103183688D01*
X128775804Y-103350511D01*
X128758718Y-103524001D01*
X128763000Y-103567480D01*
X128762999Y-115888530D01*
X128758718Y-115931999D01*
X128762999Y-115975468D01*
X128762999Y-115975475D01*
X128771379Y-116060556D01*
X128775804Y-116105489D01*
X128777934Y-116112509D01*
X128826410Y-116272311D01*
X128908588Y-116426057D01*
X129019182Y-116560816D01*
X129052955Y-116588533D01*
X130735896Y-118271475D01*
X130699000Y-118456967D01*
X130699000Y-118779033D01*
X130761832Y-119094912D01*
X130885082Y-119392463D01*
X131064013Y-119660252D01*
X131291748Y-119887987D01*
X131559537Y-120066918D01*
X131857088Y-120190168D01*
X132172967Y-120253000D01*
X132495033Y-120253000D01*
X132810912Y-120190168D01*
X133108463Y-120066918D01*
X133376252Y-119887987D01*
X133603987Y-119660252D01*
X133782918Y-119392463D01*
X133906168Y-119094912D01*
X133969000Y-118779033D01*
X133969000Y-118456967D01*
X137199000Y-118456967D01*
X137199000Y-118779033D01*
X137261832Y-119094912D01*
X137385082Y-119392463D01*
X137564013Y-119660252D01*
X137791748Y-119887987D01*
X138059537Y-120066918D01*
X138357088Y-120190168D01*
X138672967Y-120253000D01*
X138995033Y-120253000D01*
X139310912Y-120190168D01*
X139608463Y-120066918D01*
X139876252Y-119887987D01*
X140103987Y-119660252D01*
X140282918Y-119392463D01*
X140406168Y-119094912D01*
X140469000Y-118779033D01*
X140469000Y-118456967D01*
X140406168Y-118141088D01*
X140282918Y-117843537D01*
X140103987Y-117575748D01*
X139876252Y-117348013D01*
X139608463Y-117169082D01*
X139310912Y-117045832D01*
X138995033Y-116983000D01*
X138672967Y-116983000D01*
X138357088Y-117045832D01*
X138059537Y-117169082D01*
X137791748Y-117348013D01*
X137564013Y-117575748D01*
X137385082Y-117843537D01*
X137261832Y-118141088D01*
X137199000Y-118456967D01*
X133969000Y-118456967D01*
X133906168Y-118141088D01*
X133782918Y-117843537D01*
X133603987Y-117575748D01*
X133376252Y-117348013D01*
X133108463Y-117169082D01*
X132810912Y-117045832D01*
X132495033Y-116983000D01*
X132172967Y-116983000D01*
X131987475Y-117019896D01*
X130532999Y-115565421D01*
X130532999Y-113496577D01*
X131677470Y-114641049D01*
X131705183Y-114674817D01*
X131738951Y-114702530D01*
X131738953Y-114702532D01*
X131839941Y-114785411D01*
X131993686Y-114867589D01*
X132058783Y-114887336D01*
X132160510Y-114918195D01*
X132290523Y-114931000D01*
X132290531Y-114931000D01*
X132334000Y-114935281D01*
X132377469Y-114931000D01*
X138063422Y-114931000D01*
X141403896Y-118271475D01*
X141367000Y-118456967D01*
X141367000Y-118779033D01*
X141429832Y-119094912D01*
X141553082Y-119392463D01*
X141732013Y-119660252D01*
X141959748Y-119887987D01*
X142227537Y-120066918D01*
X142525088Y-120190168D01*
X142840967Y-120253000D01*
X143163033Y-120253000D01*
X143478912Y-120190168D01*
X143776463Y-120066918D01*
X144044252Y-119887987D01*
X144271987Y-119660252D01*
X144450918Y-119392463D01*
X144574168Y-119094912D01*
X144637000Y-118779033D01*
X144637000Y-118456967D01*
X147867000Y-118456967D01*
X147867000Y-118779033D01*
X147929832Y-119094912D01*
X148053082Y-119392463D01*
X148232013Y-119660252D01*
X148459748Y-119887987D01*
X148727537Y-120066918D01*
X149025088Y-120190168D01*
X149340967Y-120253000D01*
X149663033Y-120253000D01*
X149978912Y-120190168D01*
X150276463Y-120066918D01*
X150544252Y-119887987D01*
X150771987Y-119660252D01*
X150950918Y-119392463D01*
X151074168Y-119094912D01*
X151137000Y-118779033D01*
X151137000Y-118456967D01*
X151074168Y-118141088D01*
X150950918Y-117843537D01*
X150771987Y-117575748D01*
X150544252Y-117348013D01*
X150276463Y-117169082D01*
X149978912Y-117045832D01*
X149663033Y-116983000D01*
X149340967Y-116983000D01*
X149025088Y-117045832D01*
X148727537Y-117169082D01*
X148459748Y-117348013D01*
X148232013Y-117575748D01*
X148053082Y-117843537D01*
X147929832Y-118141088D01*
X147867000Y-118456967D01*
X144637000Y-118456967D01*
X144574168Y-118141088D01*
X144450918Y-117843537D01*
X144271987Y-117575748D01*
X144044252Y-117348013D01*
X143776463Y-117169082D01*
X143478912Y-117045832D01*
X143163033Y-116983000D01*
X142840967Y-116983000D01*
X142655475Y-117019896D01*
X139086534Y-113450956D01*
X139058817Y-113417183D01*
X138924059Y-113306589D01*
X138770313Y-113224411D01*
X138603490Y-113173805D01*
X138473477Y-113161000D01*
X138473469Y-113161000D01*
X138430000Y-113156719D01*
X138386531Y-113161000D01*
X132700579Y-113161000D01*
X131529001Y-111989423D01*
X131529001Y-111082592D01*
X131763571Y-111196704D01*
X132075108Y-111278384D01*
X132396595Y-111297718D01*
X132715675Y-111253961D01*
X133020088Y-111148795D01*
X133194044Y-111055814D01*
X133289808Y-110791413D01*
X137878192Y-110791413D01*
X137973956Y-111055814D01*
X138263571Y-111196704D01*
X138575108Y-111278384D01*
X138896595Y-111297718D01*
X139215675Y-111253961D01*
X139520088Y-111148795D01*
X139694044Y-111055814D01*
X139789808Y-110791413D01*
X142046192Y-110791413D01*
X142141956Y-111055814D01*
X142431571Y-111196704D01*
X142743108Y-111278384D01*
X143064595Y-111297718D01*
X143383675Y-111253961D01*
X143688088Y-111148795D01*
X143862044Y-111055814D01*
X143957808Y-110791413D01*
X148546192Y-110791413D01*
X148641956Y-111055814D01*
X148931571Y-111196704D01*
X149243108Y-111278384D01*
X149564595Y-111297718D01*
X149883675Y-111253961D01*
X150188088Y-111148795D01*
X150362044Y-111055814D01*
X150457808Y-110791413D01*
X149502000Y-109835605D01*
X148546192Y-110791413D01*
X143957808Y-110791413D01*
X143002000Y-109835605D01*
X142046192Y-110791413D01*
X139789808Y-110791413D01*
X138834000Y-109835605D01*
X137878192Y-110791413D01*
X133289808Y-110791413D01*
X132334000Y-109835605D01*
X132319858Y-109849748D01*
X132140253Y-109670143D01*
X132154395Y-109656000D01*
X132513605Y-109656000D01*
X133469413Y-110611808D01*
X133733814Y-110516044D01*
X133874704Y-110226429D01*
X133956384Y-109914892D01*
X133968189Y-109718595D01*
X137192282Y-109718595D01*
X137236039Y-110037675D01*
X137341205Y-110342088D01*
X137434186Y-110516044D01*
X137698587Y-110611808D01*
X138654395Y-109656000D01*
X139013605Y-109656000D01*
X139969413Y-110611808D01*
X140233814Y-110516044D01*
X140374704Y-110226429D01*
X140456384Y-109914892D01*
X140468189Y-109718595D01*
X141360282Y-109718595D01*
X141404039Y-110037675D01*
X141509205Y-110342088D01*
X141602186Y-110516044D01*
X141866587Y-110611808D01*
X142822395Y-109656000D01*
X143181605Y-109656000D01*
X144137413Y-110611808D01*
X144401814Y-110516044D01*
X144542704Y-110226429D01*
X144624384Y-109914892D01*
X144636189Y-109718595D01*
X147860282Y-109718595D01*
X147904039Y-110037675D01*
X148009205Y-110342088D01*
X148102186Y-110516044D01*
X148366587Y-110611808D01*
X149322395Y-109656000D01*
X149681605Y-109656000D01*
X150637413Y-110611808D01*
X150901814Y-110516044D01*
X151042704Y-110226429D01*
X151124384Y-109914892D01*
X151143718Y-109593405D01*
X151099961Y-109274325D01*
X150994795Y-108969912D01*
X150901814Y-108795956D01*
X150637413Y-108700192D01*
X149681605Y-109656000D01*
X149322395Y-109656000D01*
X148366587Y-108700192D01*
X148102186Y-108795956D01*
X147961296Y-109085571D01*
X147879616Y-109397108D01*
X147860282Y-109718595D01*
X144636189Y-109718595D01*
X144643718Y-109593405D01*
X144599961Y-109274325D01*
X144494795Y-108969912D01*
X144401814Y-108795956D01*
X144137413Y-108700192D01*
X143181605Y-109656000D01*
X142822395Y-109656000D01*
X141866587Y-108700192D01*
X141602186Y-108795956D01*
X141461296Y-109085571D01*
X141379616Y-109397108D01*
X141360282Y-109718595D01*
X140468189Y-109718595D01*
X140475718Y-109593405D01*
X140431961Y-109274325D01*
X140326795Y-108969912D01*
X140233814Y-108795956D01*
X139969413Y-108700192D01*
X139013605Y-109656000D01*
X138654395Y-109656000D01*
X137698587Y-108700192D01*
X137434186Y-108795956D01*
X137293296Y-109085571D01*
X137211616Y-109397108D01*
X137192282Y-109718595D01*
X133968189Y-109718595D01*
X133975718Y-109593405D01*
X133931961Y-109274325D01*
X133826795Y-108969912D01*
X133733814Y-108795956D01*
X133469413Y-108700192D01*
X132513605Y-109656000D01*
X132154395Y-109656000D01*
X132140253Y-109641858D01*
X132319858Y-109462253D01*
X132334000Y-109476395D01*
X133289808Y-108520587D01*
X137878192Y-108520587D01*
X138834000Y-109476395D01*
X139789808Y-108520587D01*
X142046192Y-108520587D01*
X143002000Y-109476395D01*
X143957808Y-108520587D01*
X148546192Y-108520587D01*
X149502000Y-109476395D01*
X150457808Y-108520587D01*
X150362044Y-108256186D01*
X150072429Y-108115296D01*
X149760892Y-108033616D01*
X149439405Y-108014282D01*
X149120325Y-108058039D01*
X148815912Y-108163205D01*
X148641956Y-108256186D01*
X148546192Y-108520587D01*
X143957808Y-108520587D01*
X143862044Y-108256186D01*
X143572429Y-108115296D01*
X143260892Y-108033616D01*
X142939405Y-108014282D01*
X142620325Y-108058039D01*
X142315912Y-108163205D01*
X142141956Y-108256186D01*
X142046192Y-108520587D01*
X139789808Y-108520587D01*
X139694044Y-108256186D01*
X139404429Y-108115296D01*
X139092892Y-108033616D01*
X138771405Y-108014282D01*
X138452325Y-108058039D01*
X138147912Y-108163205D01*
X137973956Y-108256186D01*
X137878192Y-108520587D01*
X133289808Y-108520587D01*
X133194044Y-108256186D01*
X132904429Y-108115296D01*
X132592892Y-108033616D01*
X132271405Y-108014282D01*
X131952325Y-108058039D01*
X131647912Y-108163205D01*
X131529001Y-108226764D01*
X131529001Y-106584514D01*
X131559537Y-106604918D01*
X131857088Y-106728168D01*
X132172967Y-106791000D01*
X132495033Y-106791000D01*
X132810912Y-106728168D01*
X133108463Y-106604918D01*
X133376252Y-106425987D01*
X133603987Y-106198252D01*
X133782918Y-105930463D01*
X133906168Y-105632912D01*
X133969000Y-105317033D01*
X133969000Y-104994967D01*
X137199000Y-104994967D01*
X137199000Y-105317033D01*
X137261832Y-105632912D01*
X137385082Y-105930463D01*
X137564013Y-106198252D01*
X137791748Y-106425987D01*
X138059537Y-106604918D01*
X138357088Y-106728168D01*
X138672967Y-106791000D01*
X138995033Y-106791000D01*
X139310912Y-106728168D01*
X139608463Y-106604918D01*
X139876252Y-106425987D01*
X140103987Y-106198252D01*
X140282918Y-105930463D01*
X140406168Y-105632912D01*
X140469000Y-105317033D01*
X140469000Y-104994967D01*
X141367000Y-104994967D01*
X141367000Y-105317033D01*
X141429832Y-105632912D01*
X141553082Y-105930463D01*
X141732013Y-106198252D01*
X141959748Y-106425987D01*
X142227537Y-106604918D01*
X142525088Y-106728168D01*
X142840967Y-106791000D01*
X143163033Y-106791000D01*
X143478912Y-106728168D01*
X143776463Y-106604918D01*
X144044252Y-106425987D01*
X144271987Y-106198252D01*
X144450918Y-105930463D01*
X144574168Y-105632912D01*
X144637000Y-105317033D01*
X144637000Y-104994967D01*
X147867000Y-104994967D01*
X147867000Y-105317033D01*
X147929832Y-105632912D01*
X148053082Y-105930463D01*
X148232013Y-106198252D01*
X148459748Y-106425987D01*
X148727537Y-106604918D01*
X149025088Y-106728168D01*
X149340967Y-106791000D01*
X149663033Y-106791000D01*
X149978912Y-106728168D01*
X150276463Y-106604918D01*
X150544252Y-106425987D01*
X150771987Y-106198252D01*
X150950918Y-105930463D01*
X151074168Y-105632912D01*
X151137000Y-105317033D01*
X151137000Y-104994967D01*
X151074168Y-104679088D01*
X150950918Y-104381537D01*
X150771987Y-104113748D01*
X150544252Y-103886013D01*
X150276463Y-103707082D01*
X149978912Y-103583832D01*
X149663033Y-103521000D01*
X149340967Y-103521000D01*
X149025088Y-103583832D01*
X148727537Y-103707082D01*
X148459748Y-103886013D01*
X148232013Y-104113748D01*
X148053082Y-104381537D01*
X147929832Y-104679088D01*
X147867000Y-104994967D01*
X144637000Y-104994967D01*
X144574168Y-104679088D01*
X144450918Y-104381537D01*
X144271987Y-104113748D01*
X144044252Y-103886013D01*
X143776463Y-103707082D01*
X143478912Y-103583832D01*
X143163033Y-103521000D01*
X142840967Y-103521000D01*
X142525088Y-103583832D01*
X142227537Y-103707082D01*
X141959748Y-103886013D01*
X141732013Y-104113748D01*
X141553082Y-104381537D01*
X141429832Y-104679088D01*
X141367000Y-104994967D01*
X140469000Y-104994967D01*
X140406168Y-104679088D01*
X140282918Y-104381537D01*
X140103987Y-104113748D01*
X139876252Y-103886013D01*
X139608463Y-103707082D01*
X139310912Y-103583832D01*
X138995033Y-103521000D01*
X138672967Y-103521000D01*
X138357088Y-103583832D01*
X138059537Y-103707082D01*
X137791748Y-103886013D01*
X137564013Y-104113748D01*
X137385082Y-104381537D01*
X137261832Y-104679088D01*
X137199000Y-104994967D01*
X133969000Y-104994967D01*
X133906168Y-104679088D01*
X133782918Y-104381537D01*
X133603987Y-104113748D01*
X133376252Y-103886013D01*
X133108463Y-103707082D01*
X132810912Y-103583832D01*
X132495033Y-103521000D01*
X132172967Y-103521000D01*
X132157505Y-103524076D01*
X132763050Y-102918531D01*
X132796818Y-102890818D01*
X132824571Y-102857002D01*
X132907411Y-102756061D01*
X132912114Y-102747263D01*
X132989590Y-102602314D01*
X133040196Y-102435491D01*
X133053001Y-102305478D01*
X133053001Y-102305468D01*
X133057282Y-102262002D01*
X133053001Y-102218536D01*
X133053001Y-101574777D01*
X152867000Y-101574777D01*
X152867000Y-102133223D01*
X152975948Y-102680939D01*
X153189656Y-103196876D01*
X153499912Y-103661207D01*
X153894793Y-104056088D01*
X154359124Y-104366344D01*
X154875061Y-104580052D01*
X155422777Y-104689000D01*
X155981223Y-104689000D01*
X156528939Y-104580052D01*
X157044876Y-104366344D01*
X157509207Y-104056088D01*
X157904088Y-103661207D01*
X158214344Y-103196876D01*
X158428052Y-102680939D01*
X158537000Y-102133223D01*
X158537000Y-101574777D01*
X158428052Y-101027061D01*
X158214344Y-100511124D01*
X157904088Y-100046793D01*
X157509207Y-99651912D01*
X157044876Y-99341656D01*
X156528939Y-99127948D01*
X155981223Y-99019000D01*
X155422777Y-99019000D01*
X154875061Y-99127948D01*
X154359124Y-99341656D01*
X153894793Y-99651912D01*
X153499912Y-100046793D01*
X153189656Y-100511124D01*
X152975948Y-101027061D01*
X152867000Y-101574777D01*
X133053001Y-101574777D01*
X133053001Y-100207470D01*
X133057282Y-100164001D01*
X133053001Y-100120532D01*
X133053001Y-100120524D01*
X133040196Y-99990511D01*
X133016635Y-99912842D01*
X132989590Y-99823687D01*
X132907412Y-99669942D01*
X132824533Y-99568954D01*
X132824531Y-99568952D01*
X132796818Y-99535184D01*
X132763051Y-99507472D01*
X131010539Y-97754961D01*
X131025000Y-97682260D01*
X131025000Y-97389740D01*
X130967932Y-97102842D01*
X130855990Y-96832589D01*
X130693475Y-96589368D01*
X130486632Y-96382525D01*
X130243411Y-96220010D01*
X129973158Y-96108068D01*
X129686260Y-96051000D01*
X129393740Y-96051000D01*
X129106842Y-96108068D01*
X128836589Y-96220010D01*
X128593368Y-96382525D01*
X128386525Y-96589368D01*
X128270000Y-96763760D01*
X128153475Y-96589368D01*
X127946632Y-96382525D01*
X127703411Y-96220010D01*
X127433158Y-96108068D01*
X127146260Y-96051000D01*
X126853740Y-96051000D01*
X126566842Y-96108068D01*
X126296589Y-96220010D01*
X126053368Y-96382525D01*
X125846525Y-96589368D01*
X125730000Y-96763760D01*
X125613475Y-96589368D01*
X125406632Y-96382525D01*
X125163411Y-96220010D01*
X124893158Y-96108068D01*
X124606260Y-96051000D01*
X124313740Y-96051000D01*
X124026842Y-96108068D01*
X123756589Y-96220010D01*
X123513368Y-96382525D01*
X123306525Y-96589368D01*
X123190000Y-96763760D01*
X123073475Y-96589368D01*
X122866632Y-96382525D01*
X122623411Y-96220010D01*
X122353158Y-96108068D01*
X122066260Y-96051000D01*
X121773740Y-96051000D01*
X121486842Y-96108068D01*
X121216589Y-96220010D01*
X120973368Y-96382525D01*
X120766525Y-96589368D01*
X120650000Y-96763760D01*
X120533475Y-96589368D01*
X120326632Y-96382525D01*
X120083411Y-96220010D01*
X119813158Y-96108068D01*
X119526260Y-96051000D01*
X119233740Y-96051000D01*
X118946842Y-96108068D01*
X118676589Y-96220010D01*
X118433368Y-96382525D01*
X118226525Y-96589368D01*
X118110000Y-96763760D01*
X117993475Y-96589368D01*
X117786632Y-96382525D01*
X117543411Y-96220010D01*
X117273158Y-96108068D01*
X116986260Y-96051000D01*
X116693740Y-96051000D01*
X116406842Y-96108068D01*
X116136589Y-96220010D01*
X115893368Y-96382525D01*
X115686525Y-96589368D01*
X115570000Y-96763760D01*
X115453475Y-96589368D01*
X115246632Y-96382525D01*
X115003411Y-96220010D01*
X114733158Y-96108068D01*
X114446260Y-96051000D01*
X114153740Y-96051000D01*
X113866842Y-96108068D01*
X113596589Y-96220010D01*
X113353368Y-96382525D01*
X113146525Y-96589368D01*
X113030000Y-96763760D01*
X112913475Y-96589368D01*
X112706632Y-96382525D01*
X112463411Y-96220010D01*
X112193158Y-96108068D01*
X111906260Y-96051000D01*
X111613740Y-96051000D01*
X111326842Y-96108068D01*
X111056589Y-96220010D01*
X110813368Y-96382525D01*
X110606525Y-96589368D01*
X110490000Y-96763760D01*
X110373475Y-96589368D01*
X110166632Y-96382525D01*
X109923411Y-96220010D01*
X109653158Y-96108068D01*
X109366260Y-96051000D01*
X109073740Y-96051000D01*
X108786842Y-96108068D01*
X108516589Y-96220010D01*
X108273368Y-96382525D01*
X108066525Y-96589368D01*
X107950000Y-96763760D01*
X107833475Y-96589368D01*
X107626632Y-96382525D01*
X107383411Y-96220010D01*
X107113158Y-96108068D01*
X106826260Y-96051000D01*
X106533740Y-96051000D01*
X106246842Y-96108068D01*
X105976589Y-96220010D01*
X105733368Y-96382525D01*
X105526525Y-96589368D01*
X105410000Y-96763760D01*
X105293475Y-96589368D01*
X105086632Y-96382525D01*
X104843411Y-96220010D01*
X104573158Y-96108068D01*
X104286260Y-96051000D01*
X103993740Y-96051000D01*
X103706842Y-96108068D01*
X103436589Y-96220010D01*
X103193368Y-96382525D01*
X102986525Y-96589368D01*
X102870000Y-96763760D01*
X102753475Y-96589368D01*
X102546632Y-96382525D01*
X102303411Y-96220010D01*
X102033158Y-96108068D01*
X101746260Y-96051000D01*
X101453740Y-96051000D01*
X101166842Y-96108068D01*
X100896589Y-96220010D01*
X100653368Y-96382525D01*
X100446525Y-96589368D01*
X100330000Y-96763760D01*
X100213475Y-96589368D01*
X100006632Y-96382525D01*
X99763411Y-96220010D01*
X99493158Y-96108068D01*
X99206260Y-96051000D01*
X98913740Y-96051000D01*
X98626842Y-96108068D01*
X98356589Y-96220010D01*
X98113368Y-96382525D01*
X97906525Y-96589368D01*
X97790000Y-96763760D01*
X97673475Y-96589368D01*
X97466632Y-96382525D01*
X97223411Y-96220010D01*
X96953158Y-96108068D01*
X96666260Y-96051000D01*
X96373740Y-96051000D01*
X96086842Y-96108068D01*
X95816589Y-96220010D01*
X95573368Y-96382525D01*
X95366525Y-96589368D01*
X95250000Y-96763760D01*
X95133475Y-96589368D01*
X94926632Y-96382525D01*
X94683411Y-96220010D01*
X94413158Y-96108068D01*
X94126260Y-96051000D01*
X93833740Y-96051000D01*
X93546842Y-96108068D01*
X93276589Y-96220010D01*
X93033368Y-96382525D01*
X92826525Y-96589368D01*
X92710000Y-96763760D01*
X92593475Y-96589368D01*
X92386632Y-96382525D01*
X92143411Y-96220010D01*
X91873158Y-96108068D01*
X91586260Y-96051000D01*
X91293740Y-96051000D01*
X91006842Y-96108068D01*
X90736589Y-96220010D01*
X90493368Y-96382525D01*
X90286525Y-96589368D01*
X90170000Y-96763760D01*
X90053475Y-96589368D01*
X89846632Y-96382525D01*
X89603411Y-96220010D01*
X89333158Y-96108068D01*
X89046260Y-96051000D01*
X88753740Y-96051000D01*
X88466842Y-96108068D01*
X88196589Y-96220010D01*
X87953368Y-96382525D01*
X87746525Y-96589368D01*
X87630000Y-96763760D01*
X87513475Y-96589368D01*
X87306632Y-96382525D01*
X87063411Y-96220010D01*
X86793158Y-96108068D01*
X86506260Y-96051000D01*
X86213740Y-96051000D01*
X85926842Y-96108068D01*
X85656589Y-96220010D01*
X85413368Y-96382525D01*
X85206525Y-96589368D01*
X85090000Y-96763760D01*
X84973475Y-96589368D01*
X84766632Y-96382525D01*
X84523411Y-96220010D01*
X84253158Y-96108068D01*
X83966260Y-96051000D01*
X83673740Y-96051000D01*
X83386842Y-96108068D01*
X83116589Y-96220010D01*
X82873368Y-96382525D01*
X82666525Y-96589368D01*
X82550000Y-96763760D01*
X82433475Y-96589368D01*
X82226632Y-96382525D01*
X81983411Y-96220010D01*
X81713158Y-96108068D01*
X81426260Y-96051000D01*
X81133740Y-96051000D01*
X80846842Y-96108068D01*
X80576589Y-96220010D01*
X80333368Y-96382525D01*
X80126525Y-96589368D01*
X80010000Y-96763760D01*
X79893475Y-96589368D01*
X79686632Y-96382525D01*
X79443411Y-96220010D01*
X79173158Y-96108068D01*
X78886260Y-96051000D01*
X78593740Y-96051000D01*
X78306842Y-96108068D01*
X78036589Y-96220010D01*
X77793368Y-96382525D01*
X77586525Y-96589368D01*
X77470000Y-96763760D01*
X77353475Y-96589368D01*
X77146632Y-96382525D01*
X76903411Y-96220010D01*
X76633158Y-96108068D01*
X76346260Y-96051000D01*
X76053740Y-96051000D01*
X75766842Y-96108068D01*
X75496589Y-96220010D01*
X75253368Y-96382525D01*
X75046525Y-96589368D01*
X74930000Y-96763760D01*
X74813475Y-96589368D01*
X74606632Y-96382525D01*
X74363411Y-96220010D01*
X74093158Y-96108068D01*
X73806260Y-96051000D01*
X73513740Y-96051000D01*
X73226842Y-96108068D01*
X72956589Y-96220010D01*
X72713368Y-96382525D01*
X72506525Y-96589368D01*
X72390000Y-96763760D01*
X72273475Y-96589368D01*
X72066632Y-96382525D01*
X71823411Y-96220010D01*
X71553158Y-96108068D01*
X71266260Y-96051000D01*
X70973740Y-96051000D01*
X70686842Y-96108068D01*
X70416589Y-96220010D01*
X70173368Y-96382525D01*
X69966525Y-96589368D01*
X69844805Y-96771534D01*
X69775178Y-96654645D01*
X69580269Y-96438412D01*
X69346920Y-96264359D01*
X69084099Y-96139175D01*
X68936890Y-96094524D01*
X68707000Y-96215845D01*
X68453000Y-96215845D01*
X68223110Y-96094524D01*
X68075901Y-96139175D01*
X67813080Y-96264359D01*
X67579731Y-96438412D01*
X67503966Y-96522466D01*
X67479502Y-96441820D01*
X67420537Y-96331506D01*
X67341185Y-96234815D01*
X67244494Y-96155463D01*
X67134180Y-96096498D01*
X67014482Y-96060188D01*
X66890000Y-96047928D01*
X65190000Y-96047928D01*
X65065518Y-96060188D01*
X64945820Y-96096498D01*
X64835506Y-96155463D01*
X64738815Y-96234815D01*
X64659463Y-96331506D01*
X64600498Y-96441820D01*
X64564188Y-96561518D01*
X64551928Y-96686000D01*
X47243393Y-96686000D01*
X47331899Y-96651315D01*
X48956171Y-96179420D01*
X50616531Y-95856679D01*
X52305035Y-95685166D01*
X53349227Y-95656000D01*
X146035013Y-95656000D01*
X147739693Y-95733409D01*
%TA.AperFunction,Conductor*%
D21*
G36*
X147739693Y-95733409D02*
G01*
X149415482Y-95962963D01*
X151063552Y-96343451D01*
X152670375Y-96871747D01*
X154222691Y-97543494D01*
X155707745Y-98353172D01*
X157113304Y-99294112D01*
X158427790Y-100358562D01*
X159640395Y-101537769D01*
X160741136Y-102822025D01*
X161720955Y-104200765D01*
X162571779Y-105662629D01*
X163286608Y-107195584D01*
X163859560Y-108787019D01*
X164285916Y-110423829D01*
X164562172Y-112092555D01*
X164686051Y-113779457D01*
X164656531Y-115470613D01*
X164473857Y-117152165D01*
X164139533Y-118810224D01*
X163656312Y-120431160D01*
X163028161Y-122001647D01*
X162260273Y-123508711D01*
X161358947Y-124939994D01*
X160331614Y-126283690D01*
X159186723Y-127528750D01*
X157933694Y-128664927D01*
X156582854Y-129682856D01*
X155145325Y-130574162D01*
X153632918Y-131331520D01*
X152058105Y-131948682D01*
X150433829Y-132420578D01*
X148773469Y-132743319D01*
X147084966Y-132914832D01*
X146040773Y-132943998D01*
X53354987Y-132943998D01*
X51650307Y-132866589D01*
X49974518Y-132637035D01*
X48326438Y-132256545D01*
X46719625Y-131728251D01*
X45167305Y-131056502D01*
X43682257Y-130246828D01*
X42391589Y-129382801D01*
X42607061Y-129472052D01*
X43154777Y-129581000D01*
X43713223Y-129581000D01*
X44260939Y-129472052D01*
X44776876Y-129258344D01*
X45241207Y-128948088D01*
X45636088Y-128553207D01*
X45946344Y-128088876D01*
X46160052Y-127572939D01*
X46269000Y-127025223D01*
X46269000Y-126466777D01*
X152867000Y-126466777D01*
X152867000Y-127025223D01*
X152975948Y-127572939D01*
X153189656Y-128088876D01*
X153499912Y-128553207D01*
X153894793Y-128948088D01*
X154359124Y-129258344D01*
X154875061Y-129472052D01*
X155422777Y-129581000D01*
X155981223Y-129581000D01*
X156528939Y-129472052D01*
X157044876Y-129258344D01*
X157509207Y-128948088D01*
X157904088Y-128553207D01*
X158214344Y-128088876D01*
X158428052Y-127572939D01*
X158537000Y-127025223D01*
X158537000Y-126466777D01*
X158428052Y-125919061D01*
X158214344Y-125403124D01*
X157904088Y-124938793D01*
X157509207Y-124543912D01*
X157044876Y-124233656D01*
X156528939Y-124019948D01*
X155981223Y-123911000D01*
X155422777Y-123911000D01*
X154875061Y-124019948D01*
X154359124Y-124233656D01*
X153894793Y-124543912D01*
X153499912Y-124938793D01*
X153189656Y-125403124D01*
X152975948Y-125919061D01*
X152867000Y-126466777D01*
X46269000Y-126466777D01*
X46160052Y-125919061D01*
X45946344Y-125403124D01*
X45636088Y-124938793D01*
X45241207Y-124543912D01*
X44776876Y-124233656D01*
X44260939Y-124019948D01*
X43713223Y-123911000D01*
X43154777Y-123911000D01*
X42607061Y-124019948D01*
X42091124Y-124233656D01*
X41626793Y-124543912D01*
X41231912Y-124938793D01*
X40921656Y-125403124D01*
X40707948Y-125919061D01*
X40599000Y-126466777D01*
X40599000Y-127025223D01*
X40707948Y-127572939D01*
X40921656Y-128088876D01*
X41095967Y-128349751D01*
X40962216Y-128241442D01*
X39749605Y-127062229D01*
X38648864Y-125777973D01*
X37669046Y-124399235D01*
X36818225Y-122937377D01*
X36505608Y-122266967D01*
X47491000Y-122266967D01*
X47491000Y-122589033D01*
X47553832Y-122904912D01*
X47677082Y-123202463D01*
X47856013Y-123470252D01*
X48083748Y-123697987D01*
X48351537Y-123876918D01*
X48649088Y-124000168D01*
X48964967Y-124063000D01*
X49287033Y-124063000D01*
X49602912Y-124000168D01*
X49900463Y-123876918D01*
X50168252Y-123697987D01*
X50395987Y-123470252D01*
X50574918Y-123202463D01*
X50698168Y-122904912D01*
X50761000Y-122589033D01*
X50761000Y-122266967D01*
X53991000Y-122266967D01*
X53991000Y-122589033D01*
X54053832Y-122904912D01*
X54177082Y-123202463D01*
X54356013Y-123470252D01*
X54583748Y-123697987D01*
X54851537Y-123876918D01*
X55149088Y-124000168D01*
X55464967Y-124063000D01*
X55787033Y-124063000D01*
X56102912Y-124000168D01*
X56400463Y-123876918D01*
X56668252Y-123697987D01*
X56895987Y-123470252D01*
X57074918Y-123202463D01*
X57198168Y-122904912D01*
X57261000Y-122589033D01*
X57261000Y-122520967D01*
X58667000Y-122520967D01*
X58667000Y-122843033D01*
X58729832Y-123158912D01*
X58853082Y-123456463D01*
X59032013Y-123724252D01*
X59259748Y-123951987D01*
X59527537Y-124130918D01*
X59825088Y-124254168D01*
X60140967Y-124317000D01*
X60463033Y-124317000D01*
X60778912Y-124254168D01*
X61076463Y-124130918D01*
X61344252Y-123951987D01*
X61571987Y-123724252D01*
X61750918Y-123456463D01*
X61874168Y-123158912D01*
X61937000Y-122843033D01*
X61937000Y-122520967D01*
X65167000Y-122520967D01*
X65167000Y-122843033D01*
X65229832Y-123158912D01*
X65353082Y-123456463D01*
X65532013Y-123724252D01*
X65759748Y-123951987D01*
X66027537Y-124130918D01*
X66325088Y-124254168D01*
X66640967Y-124317000D01*
X66963033Y-124317000D01*
X67278912Y-124254168D01*
X67280734Y-124253413D01*
X131378192Y-124253413D01*
X131473956Y-124517814D01*
X131763571Y-124658704D01*
X132075108Y-124740384D01*
X132396595Y-124759718D01*
X132715675Y-124715961D01*
X133020088Y-124610795D01*
X133194044Y-124517814D01*
X133289808Y-124253413D01*
X137878192Y-124253413D01*
X137973956Y-124517814D01*
X138263571Y-124658704D01*
X138575108Y-124740384D01*
X138896595Y-124759718D01*
X139215675Y-124715961D01*
X139520088Y-124610795D01*
X139694044Y-124517814D01*
X139789808Y-124253413D01*
X142046192Y-124253413D01*
X142141956Y-124517814D01*
X142431571Y-124658704D01*
X142743108Y-124740384D01*
X143064595Y-124759718D01*
X143383675Y-124715961D01*
X143688088Y-124610795D01*
X143862044Y-124517814D01*
X143957808Y-124253413D01*
X148546192Y-124253413D01*
X148641956Y-124517814D01*
X148931571Y-124658704D01*
X149243108Y-124740384D01*
X149564595Y-124759718D01*
X149883675Y-124715961D01*
X150188088Y-124610795D01*
X150362044Y-124517814D01*
X150457808Y-124253413D01*
X149502000Y-123297605D01*
X148546192Y-124253413D01*
X143957808Y-124253413D01*
X143002000Y-123297605D01*
X142046192Y-124253413D01*
X139789808Y-124253413D01*
X138834000Y-123297605D01*
X137878192Y-124253413D01*
X133289808Y-124253413D01*
X132334000Y-123297605D01*
X131378192Y-124253413D01*
X67280734Y-124253413D01*
X67576463Y-124130918D01*
X67844252Y-123951987D01*
X68071987Y-123724252D01*
X68250918Y-123456463D01*
X68365186Y-123180595D01*
X130692282Y-123180595D01*
X130736039Y-123499675D01*
X130841205Y-123804088D01*
X130934186Y-123978044D01*
X131198587Y-124073808D01*
X132154395Y-123118000D01*
X132513605Y-123118000D01*
X133469413Y-124073808D01*
X133733814Y-123978044D01*
X133874704Y-123688429D01*
X133956384Y-123376892D01*
X133968189Y-123180595D01*
X137192282Y-123180595D01*
X137236039Y-123499675D01*
X137341205Y-123804088D01*
X137434186Y-123978044D01*
X137698587Y-124073808D01*
X138654395Y-123118000D01*
X139013605Y-123118000D01*
X139969413Y-124073808D01*
X140233814Y-123978044D01*
X140374704Y-123688429D01*
X140456384Y-123376892D01*
X140468189Y-123180595D01*
X141360282Y-123180595D01*
X141404039Y-123499675D01*
X141509205Y-123804088D01*
X141602186Y-123978044D01*
X141866587Y-124073808D01*
X142822395Y-123118000D01*
X143181605Y-123118000D01*
X144137413Y-124073808D01*
X144401814Y-123978044D01*
X144542704Y-123688429D01*
X144624384Y-123376892D01*
X144636189Y-123180595D01*
X147860282Y-123180595D01*
X147904039Y-123499675D01*
X148009205Y-123804088D01*
X148102186Y-123978044D01*
X148366587Y-124073808D01*
X149322395Y-123118000D01*
X149681605Y-123118000D01*
X150637413Y-124073808D01*
X150901814Y-123978044D01*
X151042704Y-123688429D01*
X151124384Y-123376892D01*
X151143718Y-123055405D01*
X151099961Y-122736325D01*
X150994795Y-122431912D01*
X150901814Y-122257956D01*
X150637413Y-122162192D01*
X149681605Y-123118000D01*
X149322395Y-123118000D01*
X148366587Y-122162192D01*
X148102186Y-122257956D01*
X147961296Y-122547571D01*
X147879616Y-122859108D01*
X147860282Y-123180595D01*
X144636189Y-123180595D01*
X144643718Y-123055405D01*
X144599961Y-122736325D01*
X144494795Y-122431912D01*
X144401814Y-122257956D01*
X144137413Y-122162192D01*
X143181605Y-123118000D01*
X142822395Y-123118000D01*
X141866587Y-122162192D01*
X141602186Y-122257956D01*
X141461296Y-122547571D01*
X141379616Y-122859108D01*
X141360282Y-123180595D01*
X140468189Y-123180595D01*
X140475718Y-123055405D01*
X140431961Y-122736325D01*
X140326795Y-122431912D01*
X140233814Y-122257956D01*
X139969413Y-122162192D01*
X139013605Y-123118000D01*
X138654395Y-123118000D01*
X137698587Y-122162192D01*
X137434186Y-122257956D01*
X137293296Y-122547571D01*
X137211616Y-122859108D01*
X137192282Y-123180595D01*
X133968189Y-123180595D01*
X133975718Y-123055405D01*
X133931961Y-122736325D01*
X133826795Y-122431912D01*
X133733814Y-122257956D01*
X133469413Y-122162192D01*
X132513605Y-123118000D01*
X132154395Y-123118000D01*
X131198587Y-122162192D01*
X130934186Y-122257956D01*
X130793296Y-122547571D01*
X130711616Y-122859108D01*
X130692282Y-123180595D01*
X68365186Y-123180595D01*
X68374168Y-123158912D01*
X68437000Y-122843033D01*
X68437000Y-122520967D01*
X68374168Y-122205088D01*
X68282005Y-121982587D01*
X131378192Y-121982587D01*
X132334000Y-122938395D01*
X133289808Y-121982587D01*
X137878192Y-121982587D01*
X138834000Y-122938395D01*
X139789808Y-121982587D01*
X142046192Y-121982587D01*
X143002000Y-122938395D01*
X143957808Y-121982587D01*
X148546192Y-121982587D01*
X149502000Y-122938395D01*
X150457808Y-121982587D01*
X150362044Y-121718186D01*
X150072429Y-121577296D01*
X149760892Y-121495616D01*
X149439405Y-121476282D01*
X149120325Y-121520039D01*
X148815912Y-121625205D01*
X148641956Y-121718186D01*
X148546192Y-121982587D01*
X143957808Y-121982587D01*
X143862044Y-121718186D01*
X143572429Y-121577296D01*
X143260892Y-121495616D01*
X142939405Y-121476282D01*
X142620325Y-121520039D01*
X142315912Y-121625205D01*
X142141956Y-121718186D01*
X142046192Y-121982587D01*
X139789808Y-121982587D01*
X139694044Y-121718186D01*
X139404429Y-121577296D01*
X139092892Y-121495616D01*
X138771405Y-121476282D01*
X138452325Y-121520039D01*
X138147912Y-121625205D01*
X137973956Y-121718186D01*
X137878192Y-121982587D01*
X133289808Y-121982587D01*
X133194044Y-121718186D01*
X132904429Y-121577296D01*
X132592892Y-121495616D01*
X132271405Y-121476282D01*
X131952325Y-121520039D01*
X131647912Y-121625205D01*
X131473956Y-121718186D01*
X131378192Y-121982587D01*
X68282005Y-121982587D01*
X68250918Y-121907537D01*
X68071987Y-121639748D01*
X67844252Y-121412013D01*
X67576463Y-121233082D01*
X67278912Y-121109832D01*
X66963033Y-121047000D01*
X66640967Y-121047000D01*
X66325088Y-121109832D01*
X66027537Y-121233082D01*
X65759748Y-121412013D01*
X65532013Y-121639748D01*
X65353082Y-121907537D01*
X65229832Y-122205088D01*
X65167000Y-122520967D01*
X61937000Y-122520967D01*
X61874168Y-122205088D01*
X61750918Y-121907537D01*
X61571987Y-121639748D01*
X61344252Y-121412013D01*
X61076463Y-121233082D01*
X60778912Y-121109832D01*
X60463033Y-121047000D01*
X60140967Y-121047000D01*
X59825088Y-121109832D01*
X59527537Y-121233082D01*
X59259748Y-121412013D01*
X59032013Y-121639748D01*
X58853082Y-121907537D01*
X58729832Y-122205088D01*
X58667000Y-122520967D01*
X57261000Y-122520967D01*
X57261000Y-122266967D01*
X57198168Y-121951088D01*
X57074918Y-121653537D01*
X56895987Y-121385748D01*
X56668252Y-121158013D01*
X56400463Y-120979082D01*
X56102912Y-120855832D01*
X55787033Y-120793000D01*
X55464967Y-120793000D01*
X55149088Y-120855832D01*
X54851537Y-120979082D01*
X54583748Y-121158013D01*
X54356013Y-121385748D01*
X54177082Y-121653537D01*
X54053832Y-121951088D01*
X53991000Y-122266967D01*
X50761000Y-122266967D01*
X50698168Y-121951088D01*
X50574918Y-121653537D01*
X50395987Y-121385748D01*
X50168252Y-121158013D01*
X49900463Y-120979082D01*
X49602912Y-120855832D01*
X49287033Y-120793000D01*
X48964967Y-120793000D01*
X48649088Y-120855832D01*
X48351537Y-120979082D01*
X48083748Y-121158013D01*
X47856013Y-121385748D01*
X47677082Y-121653537D01*
X47553832Y-121951088D01*
X47491000Y-122266967D01*
X36505608Y-122266967D01*
X36103392Y-121404414D01*
X35530441Y-119812982D01*
X35104084Y-118176169D01*
X35036341Y-117766967D01*
X47491000Y-117766967D01*
X47491000Y-118089033D01*
X47553832Y-118404912D01*
X47677082Y-118702463D01*
X47856013Y-118970252D01*
X48083748Y-119197987D01*
X48351537Y-119376918D01*
X48649088Y-119500168D01*
X48964967Y-119563000D01*
X49287033Y-119563000D01*
X49602912Y-119500168D01*
X49900463Y-119376918D01*
X50168252Y-119197987D01*
X50395987Y-118970252D01*
X50574918Y-118702463D01*
X50698168Y-118404912D01*
X50761000Y-118089033D01*
X50761000Y-117766967D01*
X53991000Y-117766967D01*
X53991000Y-118089033D01*
X54053832Y-118404912D01*
X54177082Y-118702463D01*
X54356013Y-118970252D01*
X54583748Y-119197987D01*
X54851537Y-119376918D01*
X55149088Y-119500168D01*
X55464967Y-119563000D01*
X55787033Y-119563000D01*
X56102912Y-119500168D01*
X56400463Y-119376918D01*
X56668252Y-119197987D01*
X56895987Y-118970252D01*
X57074918Y-118702463D01*
X57198168Y-118404912D01*
X57261000Y-118089033D01*
X57261000Y-118020967D01*
X58667000Y-118020967D01*
X58667000Y-118343033D01*
X58729832Y-118658912D01*
X58853082Y-118956463D01*
X59032013Y-119224252D01*
X59259748Y-119451987D01*
X59527537Y-119630918D01*
X59825088Y-119754168D01*
X60140967Y-119817000D01*
X60463033Y-119817000D01*
X60778912Y-119754168D01*
X61076463Y-119630918D01*
X61344252Y-119451987D01*
X61571987Y-119224252D01*
X61750918Y-118956463D01*
X61874168Y-118658912D01*
X61937000Y-118343033D01*
X61937000Y-118020967D01*
X65167000Y-118020967D01*
X65167000Y-118343033D01*
X65229832Y-118658912D01*
X65353082Y-118956463D01*
X65532013Y-119224252D01*
X65759748Y-119451987D01*
X66027537Y-119630918D01*
X66325088Y-119754168D01*
X66640967Y-119817000D01*
X66963033Y-119817000D01*
X67278912Y-119754168D01*
X67576463Y-119630918D01*
X67844252Y-119451987D01*
X68071987Y-119224252D01*
X68250918Y-118956463D01*
X68374168Y-118658912D01*
X68437000Y-118343033D01*
X68437000Y-118020967D01*
X68376073Y-117714665D01*
X75273000Y-117714665D01*
X75273000Y-117997335D01*
X75328147Y-118274574D01*
X75436320Y-118535727D01*
X75593363Y-118770759D01*
X75793241Y-118970637D01*
X76028273Y-119127680D01*
X76289426Y-119235853D01*
X76566665Y-119291000D01*
X76849335Y-119291000D01*
X77126574Y-119235853D01*
X77387727Y-119127680D01*
X77622759Y-118970637D01*
X77822637Y-118770759D01*
X77978000Y-118538241D01*
X78133363Y-118770759D01*
X78333241Y-118970637D01*
X78568273Y-119127680D01*
X78829426Y-119235853D01*
X79106665Y-119291000D01*
X79389335Y-119291000D01*
X79666574Y-119235853D01*
X79927727Y-119127680D01*
X80162759Y-118970637D01*
X80362637Y-118770759D01*
X80518000Y-118538241D01*
X80673363Y-118770759D01*
X80873241Y-118970637D01*
X81108273Y-119127680D01*
X81369426Y-119235853D01*
X81646665Y-119291000D01*
X81929335Y-119291000D01*
X82206574Y-119235853D01*
X82467727Y-119127680D01*
X82702759Y-118970637D01*
X82902637Y-118770759D01*
X83058000Y-118538241D01*
X83213363Y-118770759D01*
X83413241Y-118970637D01*
X83648273Y-119127680D01*
X83909426Y-119235853D01*
X84186665Y-119291000D01*
X84469335Y-119291000D01*
X84746574Y-119235853D01*
X85007727Y-119127680D01*
X85242759Y-118970637D01*
X85442637Y-118770759D01*
X85598000Y-118538241D01*
X85753363Y-118770759D01*
X85953241Y-118970637D01*
X86188273Y-119127680D01*
X86449426Y-119235853D01*
X86726665Y-119291000D01*
X87009335Y-119291000D01*
X87286574Y-119235853D01*
X87547727Y-119127680D01*
X87782759Y-118970637D01*
X87982637Y-118770759D01*
X88138000Y-118538241D01*
X88293363Y-118770759D01*
X88493241Y-118970637D01*
X88728273Y-119127680D01*
X88989426Y-119235853D01*
X89266665Y-119291000D01*
X89549335Y-119291000D01*
X89826574Y-119235853D01*
X90087727Y-119127680D01*
X90322759Y-118970637D01*
X90522637Y-118770759D01*
X90678000Y-118538241D01*
X90833363Y-118770759D01*
X91033241Y-118970637D01*
X91268273Y-119127680D01*
X91529426Y-119235853D01*
X91806665Y-119291000D01*
X92089335Y-119291000D01*
X92366574Y-119235853D01*
X92627727Y-119127680D01*
X92862759Y-118970637D01*
X93062637Y-118770759D01*
X93218000Y-118538241D01*
X93373363Y-118770759D01*
X93573241Y-118970637D01*
X93808273Y-119127680D01*
X94069426Y-119235853D01*
X94346665Y-119291000D01*
X94629335Y-119291000D01*
X94906574Y-119235853D01*
X95167727Y-119127680D01*
X95402759Y-118970637D01*
X95602637Y-118770759D01*
X95759680Y-118535727D01*
X95867853Y-118274574D01*
X95923000Y-117997335D01*
X95923000Y-117714665D01*
X103467000Y-117714665D01*
X103467000Y-117997335D01*
X103522147Y-118274574D01*
X103630320Y-118535727D01*
X103787363Y-118770759D01*
X103987241Y-118970637D01*
X104222273Y-119127680D01*
X104483426Y-119235853D01*
X104760665Y-119291000D01*
X105043335Y-119291000D01*
X105320574Y-119235853D01*
X105581727Y-119127680D01*
X105816759Y-118970637D01*
X106016637Y-118770759D01*
X106172000Y-118538241D01*
X106327363Y-118770759D01*
X106527241Y-118970637D01*
X106762273Y-119127680D01*
X107023426Y-119235853D01*
X107300665Y-119291000D01*
X107583335Y-119291000D01*
X107860574Y-119235853D01*
X108121727Y-119127680D01*
X108356759Y-118970637D01*
X108556637Y-118770759D01*
X108712000Y-118538241D01*
X108867363Y-118770759D01*
X109067241Y-118970637D01*
X109302273Y-119127680D01*
X109563426Y-119235853D01*
X109840665Y-119291000D01*
X110123335Y-119291000D01*
X110400574Y-119235853D01*
X110661727Y-119127680D01*
X110896759Y-118970637D01*
X111096637Y-118770759D01*
X111252000Y-118538241D01*
X111407363Y-118770759D01*
X111607241Y-118970637D01*
X111842273Y-119127680D01*
X112103426Y-119235853D01*
X112380665Y-119291000D01*
X112663335Y-119291000D01*
X112940574Y-119235853D01*
X113201727Y-119127680D01*
X113436759Y-118970637D01*
X113636637Y-118770759D01*
X113792000Y-118538241D01*
X113947363Y-118770759D01*
X114147241Y-118970637D01*
X114382273Y-119127680D01*
X114643426Y-119235853D01*
X114920665Y-119291000D01*
X115203335Y-119291000D01*
X115480574Y-119235853D01*
X115741727Y-119127680D01*
X115976759Y-118970637D01*
X116176637Y-118770759D01*
X116332000Y-118538241D01*
X116487363Y-118770759D01*
X116687241Y-118970637D01*
X116922273Y-119127680D01*
X117183426Y-119235853D01*
X117460665Y-119291000D01*
X117743335Y-119291000D01*
X118020574Y-119235853D01*
X118281727Y-119127680D01*
X118516759Y-118970637D01*
X118716637Y-118770759D01*
X118872000Y-118538241D01*
X119027363Y-118770759D01*
X119227241Y-118970637D01*
X119462273Y-119127680D01*
X119723426Y-119235853D01*
X120000665Y-119291000D01*
X120283335Y-119291000D01*
X120560574Y-119235853D01*
X120821727Y-119127680D01*
X121056759Y-118970637D01*
X121256637Y-118770759D01*
X121412000Y-118538241D01*
X121567363Y-118770759D01*
X121767241Y-118970637D01*
X122002273Y-119127680D01*
X122263426Y-119235853D01*
X122540665Y-119291000D01*
X122823335Y-119291000D01*
X123100574Y-119235853D01*
X123361727Y-119127680D01*
X123596759Y-118970637D01*
X123796637Y-118770759D01*
X123953680Y-118535727D01*
X124061853Y-118274574D01*
X124117000Y-117997335D01*
X124117000Y-117714665D01*
X124061853Y-117437426D01*
X123953680Y-117176273D01*
X123796637Y-116941241D01*
X123596759Y-116741363D01*
X123361727Y-116584320D01*
X123100574Y-116476147D01*
X122823335Y-116421000D01*
X122540665Y-116421000D01*
X122263426Y-116476147D01*
X122002273Y-116584320D01*
X121767241Y-116741363D01*
X121567363Y-116941241D01*
X121412000Y-117173759D01*
X121256637Y-116941241D01*
X121056759Y-116741363D01*
X120821727Y-116584320D01*
X120560574Y-116476147D01*
X120283335Y-116421000D01*
X120000665Y-116421000D01*
X119723426Y-116476147D01*
X119462273Y-116584320D01*
X119227241Y-116741363D01*
X119027363Y-116941241D01*
X118872000Y-117173759D01*
X118716637Y-116941241D01*
X118516759Y-116741363D01*
X118281727Y-116584320D01*
X118020574Y-116476147D01*
X117743335Y-116421000D01*
X117460665Y-116421000D01*
X117183426Y-116476147D01*
X116922273Y-116584320D01*
X116687241Y-116741363D01*
X116487363Y-116941241D01*
X116332000Y-117173759D01*
X116176637Y-116941241D01*
X115976759Y-116741363D01*
X115741727Y-116584320D01*
X115480574Y-116476147D01*
X115203335Y-116421000D01*
X114920665Y-116421000D01*
X114643426Y-116476147D01*
X114382273Y-116584320D01*
X114147241Y-116741363D01*
X113947363Y-116941241D01*
X113792000Y-117173759D01*
X113636637Y-116941241D01*
X113436759Y-116741363D01*
X113201727Y-116584320D01*
X112940574Y-116476147D01*
X112663335Y-116421000D01*
X112380665Y-116421000D01*
X112103426Y-116476147D01*
X111842273Y-116584320D01*
X111607241Y-116741363D01*
X111407363Y-116941241D01*
X111252000Y-117173759D01*
X111096637Y-116941241D01*
X110896759Y-116741363D01*
X110661727Y-116584320D01*
X110400574Y-116476147D01*
X110123335Y-116421000D01*
X109840665Y-116421000D01*
X109563426Y-116476147D01*
X109302273Y-116584320D01*
X109067241Y-116741363D01*
X108867363Y-116941241D01*
X108712000Y-117173759D01*
X108556637Y-116941241D01*
X108356759Y-116741363D01*
X108121727Y-116584320D01*
X107860574Y-116476147D01*
X107583335Y-116421000D01*
X107300665Y-116421000D01*
X107023426Y-116476147D01*
X106762273Y-116584320D01*
X106527241Y-116741363D01*
X106327363Y-116941241D01*
X106172000Y-117173759D01*
X106016637Y-116941241D01*
X105816759Y-116741363D01*
X105581727Y-116584320D01*
X105320574Y-116476147D01*
X105043335Y-116421000D01*
X104760665Y-116421000D01*
X104483426Y-116476147D01*
X104222273Y-116584320D01*
X103987241Y-116741363D01*
X103787363Y-116941241D01*
X103630320Y-117176273D01*
X103522147Y-117437426D01*
X103467000Y-117714665D01*
X95923000Y-117714665D01*
X95867853Y-117437426D01*
X95759680Y-117176273D01*
X95602637Y-116941241D01*
X95402759Y-116741363D01*
X95167727Y-116584320D01*
X94906574Y-116476147D01*
X94629335Y-116421000D01*
X94346665Y-116421000D01*
X94069426Y-116476147D01*
X93808273Y-116584320D01*
X93573241Y-116741363D01*
X93373363Y-116941241D01*
X93218000Y-117173759D01*
X93062637Y-116941241D01*
X92862759Y-116741363D01*
X92627727Y-116584320D01*
X92366574Y-116476147D01*
X92089335Y-116421000D01*
X91806665Y-116421000D01*
X91529426Y-116476147D01*
X91268273Y-116584320D01*
X91033241Y-116741363D01*
X90833363Y-116941241D01*
X90678000Y-117173759D01*
X90522637Y-116941241D01*
X90322759Y-116741363D01*
X90087727Y-116584320D01*
X89826574Y-116476147D01*
X89549335Y-116421000D01*
X89266665Y-116421000D01*
X88989426Y-116476147D01*
X88728273Y-116584320D01*
X88493241Y-116741363D01*
X88293363Y-116941241D01*
X88138000Y-117173759D01*
X87982637Y-116941241D01*
X87782759Y-116741363D01*
X87547727Y-116584320D01*
X87286574Y-116476147D01*
X87009335Y-116421000D01*
X86726665Y-116421000D01*
X86449426Y-116476147D01*
X86188273Y-116584320D01*
X85953241Y-116741363D01*
X85753363Y-116941241D01*
X85598000Y-117173759D01*
X85442637Y-116941241D01*
X85242759Y-116741363D01*
X85007727Y-116584320D01*
X84746574Y-116476147D01*
X84469335Y-116421000D01*
X84186665Y-116421000D01*
X83909426Y-116476147D01*
X83648273Y-116584320D01*
X83413241Y-116741363D01*
X83213363Y-116941241D01*
X83058000Y-117173759D01*
X82902637Y-116941241D01*
X82702759Y-116741363D01*
X82467727Y-116584320D01*
X82206574Y-116476147D01*
X81929335Y-116421000D01*
X81646665Y-116421000D01*
X81369426Y-116476147D01*
X81108273Y-116584320D01*
X80873241Y-116741363D01*
X80673363Y-116941241D01*
X80518000Y-117173759D01*
X80362637Y-116941241D01*
X80162759Y-116741363D01*
X79927727Y-116584320D01*
X79666574Y-116476147D01*
X79389335Y-116421000D01*
X79106665Y-116421000D01*
X78829426Y-116476147D01*
X78568273Y-116584320D01*
X78333241Y-116741363D01*
X78133363Y-116941241D01*
X77978000Y-117173759D01*
X77822637Y-116941241D01*
X77622759Y-116741363D01*
X77387727Y-116584320D01*
X77126574Y-116476147D01*
X76849335Y-116421000D01*
X76566665Y-116421000D01*
X76289426Y-116476147D01*
X76028273Y-116584320D01*
X75793241Y-116741363D01*
X75593363Y-116941241D01*
X75436320Y-117176273D01*
X75328147Y-117437426D01*
X75273000Y-117714665D01*
X68376073Y-117714665D01*
X68374168Y-117705088D01*
X68250918Y-117407537D01*
X68071987Y-117139748D01*
X67844252Y-116912013D01*
X67576463Y-116733082D01*
X67278912Y-116609832D01*
X66963033Y-116547000D01*
X66640967Y-116547000D01*
X66325088Y-116609832D01*
X66027537Y-116733082D01*
X65759748Y-116912013D01*
X65532013Y-117139748D01*
X65353082Y-117407537D01*
X65229832Y-117705088D01*
X65167000Y-118020967D01*
X61937000Y-118020967D01*
X61874168Y-117705088D01*
X61750918Y-117407537D01*
X61571987Y-117139748D01*
X61344252Y-116912013D01*
X61076463Y-116733082D01*
X60778912Y-116609832D01*
X60463033Y-116547000D01*
X60140967Y-116547000D01*
X59825088Y-116609832D01*
X59527537Y-116733082D01*
X59259748Y-116912013D01*
X59032013Y-117139748D01*
X58853082Y-117407537D01*
X58729832Y-117705088D01*
X58667000Y-118020967D01*
X57261000Y-118020967D01*
X57261000Y-117766967D01*
X57198168Y-117451088D01*
X57074918Y-117153537D01*
X56895987Y-116885748D01*
X56668252Y-116658013D01*
X56400463Y-116479082D01*
X56102912Y-116355832D01*
X55787033Y-116293000D01*
X55464967Y-116293000D01*
X55149088Y-116355832D01*
X54851537Y-116479082D01*
X54583748Y-116658013D01*
X54356013Y-116885748D01*
X54177082Y-117153537D01*
X54053832Y-117451088D01*
X53991000Y-117766967D01*
X50761000Y-117766967D01*
X50698168Y-117451088D01*
X50574918Y-117153537D01*
X50395987Y-116885748D01*
X50168252Y-116658013D01*
X49900463Y-116479082D01*
X49602912Y-116355832D01*
X49287033Y-116293000D01*
X48964967Y-116293000D01*
X48649088Y-116355832D01*
X48351537Y-116479082D01*
X48083748Y-116658013D01*
X47856013Y-116885748D01*
X47677082Y-117153537D01*
X47553832Y-117451088D01*
X47491000Y-117766967D01*
X35036341Y-117766967D01*
X34827828Y-116507443D01*
X34703949Y-114820541D01*
X34733469Y-113129384D01*
X34916143Y-111447833D01*
X35250467Y-109789773D01*
X35468329Y-109058967D01*
X47745000Y-109058967D01*
X47745000Y-109381033D01*
X47807832Y-109696912D01*
X47931082Y-109994463D01*
X48110013Y-110262252D01*
X48337748Y-110489987D01*
X48605537Y-110668918D01*
X48903088Y-110792168D01*
X49218967Y-110855000D01*
X49541033Y-110855000D01*
X49856912Y-110792168D01*
X50154463Y-110668918D01*
X50422252Y-110489987D01*
X50649987Y-110262252D01*
X50828918Y-109994463D01*
X50952168Y-109696912D01*
X51015000Y-109381033D01*
X51015000Y-109058967D01*
X54245000Y-109058967D01*
X54245000Y-109381033D01*
X54307832Y-109696912D01*
X54431082Y-109994463D01*
X54610013Y-110262252D01*
X54837748Y-110489987D01*
X55105537Y-110668918D01*
X55403088Y-110792168D01*
X55718967Y-110855000D01*
X56041033Y-110855000D01*
X56356912Y-110792168D01*
X56654463Y-110668918D01*
X56922252Y-110489987D01*
X57149987Y-110262252D01*
X57328918Y-109994463D01*
X57452168Y-109696912D01*
X57515000Y-109381033D01*
X57515000Y-109058967D01*
X58921000Y-109058967D01*
X58921000Y-109381033D01*
X58983832Y-109696912D01*
X59107082Y-109994463D01*
X59286013Y-110262252D01*
X59513748Y-110489987D01*
X59781537Y-110668918D01*
X60079088Y-110792168D01*
X60394967Y-110855000D01*
X60717033Y-110855000D01*
X61032912Y-110792168D01*
X61330463Y-110668918D01*
X61598252Y-110489987D01*
X61825987Y-110262252D01*
X62004918Y-109994463D01*
X62128168Y-109696912D01*
X62191000Y-109381033D01*
X62191000Y-109058967D01*
X65421000Y-109058967D01*
X65421000Y-109381033D01*
X65483832Y-109696912D01*
X65607082Y-109994463D01*
X65786013Y-110262252D01*
X66013748Y-110489987D01*
X66281537Y-110668918D01*
X66579088Y-110792168D01*
X66894967Y-110855000D01*
X67217033Y-110855000D01*
X67532912Y-110792168D01*
X67830463Y-110668918D01*
X68098252Y-110489987D01*
X68325987Y-110262252D01*
X68504918Y-109994463D01*
X68628168Y-109696912D01*
X68691000Y-109381033D01*
X68691000Y-109058967D01*
X68628168Y-108743088D01*
X68504918Y-108445537D01*
X68325987Y-108177748D01*
X68098252Y-107950013D01*
X67830463Y-107771082D01*
X67532912Y-107647832D01*
X67217033Y-107585000D01*
X66894967Y-107585000D01*
X66579088Y-107647832D01*
X66281537Y-107771082D01*
X66013748Y-107950013D01*
X65786013Y-108177748D01*
X65607082Y-108445537D01*
X65483832Y-108743088D01*
X65421000Y-109058967D01*
X62191000Y-109058967D01*
X62128168Y-108743088D01*
X62004918Y-108445537D01*
X61825987Y-108177748D01*
X61598252Y-107950013D01*
X61330463Y-107771082D01*
X61032912Y-107647832D01*
X60717033Y-107585000D01*
X60394967Y-107585000D01*
X60079088Y-107647832D01*
X59781537Y-107771082D01*
X59513748Y-107950013D01*
X59286013Y-108177748D01*
X59107082Y-108445537D01*
X58983832Y-108743088D01*
X58921000Y-109058967D01*
X57515000Y-109058967D01*
X57452168Y-108743088D01*
X57328918Y-108445537D01*
X57149987Y-108177748D01*
X56922252Y-107950013D01*
X56654463Y-107771082D01*
X56356912Y-107647832D01*
X56041033Y-107585000D01*
X55718967Y-107585000D01*
X55403088Y-107647832D01*
X55105537Y-107771082D01*
X54837748Y-107950013D01*
X54610013Y-108177748D01*
X54431082Y-108445537D01*
X54307832Y-108743088D01*
X54245000Y-109058967D01*
X51015000Y-109058967D01*
X50952168Y-108743088D01*
X50828918Y-108445537D01*
X50649987Y-108177748D01*
X50422252Y-107950013D01*
X50154463Y-107771082D01*
X49856912Y-107647832D01*
X49541033Y-107585000D01*
X49218967Y-107585000D01*
X48903088Y-107647832D01*
X48605537Y-107771082D01*
X48337748Y-107950013D01*
X48110013Y-108177748D01*
X47931082Y-108445537D01*
X47807832Y-108743088D01*
X47745000Y-109058967D01*
X35468329Y-109058967D01*
X35733688Y-108168838D01*
X36361833Y-106598364D01*
X37129727Y-105091287D01*
X38031058Y-103659997D01*
X39058391Y-102316303D01*
X40203283Y-101071243D01*
X41076374Y-100279572D01*
X40921656Y-100511124D01*
X40707948Y-101027061D01*
X40599000Y-101574777D01*
X40599000Y-102133223D01*
X40707948Y-102680939D01*
X40921656Y-103196876D01*
X41231912Y-103661207D01*
X41626793Y-104056088D01*
X42091124Y-104366344D01*
X42607061Y-104580052D01*
X43154777Y-104689000D01*
X43713223Y-104689000D01*
X44260939Y-104580052D01*
X44311842Y-104558967D01*
X47745000Y-104558967D01*
X47745000Y-104881033D01*
X47807832Y-105196912D01*
X47931082Y-105494463D01*
X48110013Y-105762252D01*
X48337748Y-105989987D01*
X48605537Y-106168918D01*
X48903088Y-106292168D01*
X49218967Y-106355000D01*
X49541033Y-106355000D01*
X49856912Y-106292168D01*
X50154463Y-106168918D01*
X50422252Y-105989987D01*
X50649987Y-105762252D01*
X50828918Y-105494463D01*
X50952168Y-105196912D01*
X51015000Y-104881033D01*
X51015000Y-104558967D01*
X54245000Y-104558967D01*
X54245000Y-104881033D01*
X54307832Y-105196912D01*
X54431082Y-105494463D01*
X54610013Y-105762252D01*
X54837748Y-105989987D01*
X55105537Y-106168918D01*
X55403088Y-106292168D01*
X55718967Y-106355000D01*
X56041033Y-106355000D01*
X56356912Y-106292168D01*
X56654463Y-106168918D01*
X56922252Y-105989987D01*
X57149987Y-105762252D01*
X57328918Y-105494463D01*
X57452168Y-105196912D01*
X57515000Y-104881033D01*
X57515000Y-104558967D01*
X58921000Y-104558967D01*
X58921000Y-104881033D01*
X58983832Y-105196912D01*
X59107082Y-105494463D01*
X59286013Y-105762252D01*
X59513748Y-105989987D01*
X59781537Y-106168918D01*
X60079088Y-106292168D01*
X60394967Y-106355000D01*
X60717033Y-106355000D01*
X61032912Y-106292168D01*
X61330463Y-106168918D01*
X61598252Y-105989987D01*
X61825987Y-105762252D01*
X62004918Y-105494463D01*
X62128168Y-105196912D01*
X62191000Y-104881033D01*
X62191000Y-104558967D01*
X65421000Y-104558967D01*
X65421000Y-104881033D01*
X65483832Y-105196912D01*
X65607082Y-105494463D01*
X65786013Y-105762252D01*
X66013748Y-105989987D01*
X66281537Y-106168918D01*
X66579088Y-106292168D01*
X66894967Y-106355000D01*
X67217033Y-106355000D01*
X67532912Y-106292168D01*
X67830463Y-106168918D01*
X68098252Y-105989987D01*
X68325987Y-105762252D01*
X68504918Y-105494463D01*
X68628168Y-105196912D01*
X68691000Y-104881033D01*
X68691000Y-104558967D01*
X68628168Y-104243088D01*
X68504918Y-103945537D01*
X68325987Y-103677748D01*
X68098252Y-103450013D01*
X67830463Y-103271082D01*
X67532912Y-103147832D01*
X67217033Y-103085000D01*
X66894967Y-103085000D01*
X66579088Y-103147832D01*
X66281537Y-103271082D01*
X66013748Y-103450013D01*
X65786013Y-103677748D01*
X65607082Y-103945537D01*
X65483832Y-104243088D01*
X65421000Y-104558967D01*
X62191000Y-104558967D01*
X62128168Y-104243088D01*
X62004918Y-103945537D01*
X61825987Y-103677748D01*
X61598252Y-103450013D01*
X61330463Y-103271082D01*
X61032912Y-103147832D01*
X60717033Y-103085000D01*
X60394967Y-103085000D01*
X60079088Y-103147832D01*
X59781537Y-103271082D01*
X59513748Y-103450013D01*
X59286013Y-103677748D01*
X59107082Y-103945537D01*
X58983832Y-104243088D01*
X58921000Y-104558967D01*
X57515000Y-104558967D01*
X57452168Y-104243088D01*
X57328918Y-103945537D01*
X57149987Y-103677748D01*
X56922252Y-103450013D01*
X56654463Y-103271082D01*
X56356912Y-103147832D01*
X56041033Y-103085000D01*
X55718967Y-103085000D01*
X55403088Y-103147832D01*
X55105537Y-103271082D01*
X54837748Y-103450013D01*
X54610013Y-103677748D01*
X54431082Y-103945537D01*
X54307832Y-104243088D01*
X54245000Y-104558967D01*
X51015000Y-104558967D01*
X50952168Y-104243088D01*
X50828918Y-103945537D01*
X50649987Y-103677748D01*
X50422252Y-103450013D01*
X50154463Y-103271082D01*
X49856912Y-103147832D01*
X49541033Y-103085000D01*
X49218967Y-103085000D01*
X48903088Y-103147832D01*
X48605537Y-103271082D01*
X48337748Y-103450013D01*
X48110013Y-103677748D01*
X47931082Y-103945537D01*
X47807832Y-104243088D01*
X47745000Y-104558967D01*
X44311842Y-104558967D01*
X44776876Y-104366344D01*
X45241207Y-104056088D01*
X45636088Y-103661207D01*
X45946344Y-103196876D01*
X46160052Y-102680939D01*
X46269000Y-102133223D01*
X46269000Y-101574777D01*
X46160052Y-101027061D01*
X45946344Y-100511124D01*
X45636088Y-100046793D01*
X45241207Y-99651912D01*
X44776876Y-99341656D01*
X44260939Y-99127948D01*
X43713223Y-99019000D01*
X43154777Y-99019000D01*
X42607061Y-99127948D01*
X42430154Y-99201225D01*
X42807146Y-98917142D01*
X44244675Y-98025836D01*
X45757082Y-97268478D01*
X47243393Y-96686000D01*
X64551928Y-96686000D01*
X64551928Y-98386000D01*
X64564188Y-98510482D01*
X64600498Y-98630180D01*
X64659463Y-98740494D01*
X64738815Y-98837185D01*
X64835506Y-98916537D01*
X64945820Y-98975502D01*
X65065518Y-99011812D01*
X65190000Y-99024072D01*
X66890000Y-99024072D01*
X67014482Y-99011812D01*
X67134180Y-98975502D01*
X67244494Y-98916537D01*
X67341185Y-98837185D01*
X67420537Y-98740494D01*
X67479502Y-98630180D01*
X67503966Y-98549534D01*
X67579731Y-98633588D01*
X67813080Y-98807641D01*
X68075901Y-98932825D01*
X68223110Y-98977476D01*
X68453000Y-98856155D01*
X68453000Y-97663000D01*
X68433000Y-97663000D01*
X68433000Y-97409000D01*
X68453000Y-97409000D01*
X68453000Y-96215845D01*
X68707000Y-96215845D01*
X68707000Y-97409000D01*
X68727000Y-97409000D01*
X68727000Y-97663000D01*
X68707000Y-97663000D01*
X68707000Y-98856155D01*
X68936890Y-98977476D01*
X69084099Y-98932825D01*
X69346920Y-98807641D01*
X69580269Y-98633588D01*
X69775178Y-98417355D01*
X69844805Y-98300466D01*
X69966525Y-98482632D01*
X70173368Y-98689475D01*
X70416589Y-98851990D01*
X70686842Y-98963932D01*
X70973740Y-99021000D01*
X71266260Y-99021000D01*
X71553158Y-98963932D01*
X71823411Y-98851990D01*
X72066632Y-98689475D01*
X72273475Y-98482632D01*
X72390000Y-98308240D01*
X72506525Y-98482632D01*
X72713368Y-98689475D01*
X72956589Y-98851990D01*
X73226842Y-98963932D01*
X73513740Y-99021000D01*
X73806260Y-99021000D01*
X74093158Y-98963932D01*
X74363411Y-98851990D01*
X74606632Y-98689475D01*
X74813475Y-98482632D01*
X74930000Y-98308240D01*
X75046525Y-98482632D01*
X75253368Y-98689475D01*
X75496589Y-98851990D01*
X75766842Y-98963932D01*
X76053740Y-99021000D01*
X76346260Y-99021000D01*
X76633158Y-98963932D01*
X76903411Y-98851990D01*
X77146632Y-98689475D01*
X77353475Y-98482632D01*
X77470000Y-98308240D01*
X77586525Y-98482632D01*
X77793368Y-98689475D01*
X78036589Y-98851990D01*
X78306842Y-98963932D01*
X78593740Y-99021000D01*
X78720198Y-99021000D01*
X76196998Y-101544201D01*
X76168000Y-101567999D01*
X76144202Y-101596997D01*
X76144201Y-101596998D01*
X76073026Y-101683724D01*
X76002454Y-101815754D01*
X75986964Y-101866820D01*
X75958998Y-101959014D01*
X75951716Y-102032945D01*
X75944324Y-102108000D01*
X75948001Y-102145332D01*
X75948000Y-109017956D01*
X75793241Y-109121363D01*
X75593363Y-109321241D01*
X75436320Y-109556273D01*
X75328147Y-109817426D01*
X75273000Y-110094665D01*
X75273000Y-110377335D01*
X75328147Y-110654574D01*
X75436320Y-110915727D01*
X75593363Y-111150759D01*
X75793241Y-111350637D01*
X76028273Y-111507680D01*
X76289426Y-111615853D01*
X76566665Y-111671000D01*
X76849335Y-111671000D01*
X77126574Y-111615853D01*
X77387727Y-111507680D01*
X77622759Y-111350637D01*
X77822637Y-111150759D01*
X77978000Y-110918241D01*
X78133363Y-111150759D01*
X78333241Y-111350637D01*
X78568273Y-111507680D01*
X78829426Y-111615853D01*
X79106665Y-111671000D01*
X79389335Y-111671000D01*
X79666574Y-111615853D01*
X79927727Y-111507680D01*
X80162759Y-111350637D01*
X80362637Y-111150759D01*
X80518000Y-110918241D01*
X80673363Y-111150759D01*
X80873241Y-111350637D01*
X81108273Y-111507680D01*
X81369426Y-111615853D01*
X81646665Y-111671000D01*
X81929335Y-111671000D01*
X82206574Y-111615853D01*
X82467727Y-111507680D01*
X82702759Y-111350637D01*
X82902637Y-111150759D01*
X83058000Y-110918241D01*
X83213363Y-111150759D01*
X83413241Y-111350637D01*
X83648273Y-111507680D01*
X83909426Y-111615853D01*
X84186665Y-111671000D01*
X84469335Y-111671000D01*
X84746574Y-111615853D01*
X85007727Y-111507680D01*
X85242759Y-111350637D01*
X85442637Y-111150759D01*
X85598000Y-110918241D01*
X85753363Y-111150759D01*
X85953241Y-111350637D01*
X86188273Y-111507680D01*
X86449426Y-111615853D01*
X86726665Y-111671000D01*
X87009335Y-111671000D01*
X87286574Y-111615853D01*
X87547727Y-111507680D01*
X87782759Y-111350637D01*
X87982637Y-111150759D01*
X88138000Y-110918241D01*
X88293363Y-111150759D01*
X88493241Y-111350637D01*
X88728273Y-111507680D01*
X88989426Y-111615853D01*
X89266665Y-111671000D01*
X89549335Y-111671000D01*
X89826574Y-111615853D01*
X90087727Y-111507680D01*
X90322759Y-111350637D01*
X90522637Y-111150759D01*
X90678000Y-110918241D01*
X90833363Y-111150759D01*
X91033241Y-111350637D01*
X91268273Y-111507680D01*
X91529426Y-111615853D01*
X91806665Y-111671000D01*
X92089335Y-111671000D01*
X92366574Y-111615853D01*
X92627727Y-111507680D01*
X92862759Y-111350637D01*
X93061357Y-111152039D01*
X93062188Y-111160482D01*
X93098498Y-111280180D01*
X93157463Y-111390494D01*
X93236815Y-111487185D01*
X93333506Y-111566537D01*
X93443820Y-111625502D01*
X93563518Y-111661812D01*
X93688000Y-111674072D01*
X95288000Y-111674072D01*
X95412482Y-111661812D01*
X95532180Y-111625502D01*
X95642494Y-111566537D01*
X95739185Y-111487185D01*
X95818537Y-111390494D01*
X95877502Y-111280180D01*
X95913812Y-111160482D01*
X95926072Y-111036000D01*
X95926072Y-109436000D01*
X95913812Y-109311518D01*
X95877502Y-109191820D01*
X95818537Y-109081506D01*
X95739185Y-108984815D01*
X95642494Y-108905463D01*
X95532180Y-108846498D01*
X95412482Y-108810188D01*
X95288000Y-108797928D01*
X95248000Y-108797928D01*
X95248000Y-102422801D01*
X98693593Y-98977210D01*
X98913740Y-99021000D01*
X99206260Y-99021000D01*
X99493158Y-98963932D01*
X99763411Y-98851990D01*
X100006632Y-98689475D01*
X100213475Y-98482632D01*
X100330000Y-98308240D01*
X100446525Y-98482632D01*
X100653368Y-98689475D01*
X100896589Y-98851990D01*
X101166842Y-98963932D01*
X101453740Y-99021000D01*
X101746260Y-99021000D01*
X101966408Y-98977209D01*
X104142001Y-101152803D01*
X104142000Y-109017956D01*
X103987241Y-109121363D01*
X103787363Y-109321241D01*
X103630320Y-109556273D01*
X103522147Y-109817426D01*
X103467000Y-110094665D01*
X103467000Y-110377335D01*
X103522147Y-110654574D01*
X103630320Y-110915727D01*
X103787363Y-111150759D01*
X103987241Y-111350637D01*
X104222273Y-111507680D01*
X104483426Y-111615853D01*
X104760665Y-111671000D01*
X105043335Y-111671000D01*
X105320574Y-111615853D01*
X105581727Y-111507680D01*
X105816759Y-111350637D01*
X106016637Y-111150759D01*
X106172000Y-110918241D01*
X106327363Y-111150759D01*
X106527241Y-111350637D01*
X106762273Y-111507680D01*
X107023426Y-111615853D01*
X107300665Y-111671000D01*
X107583335Y-111671000D01*
X107860574Y-111615853D01*
X108121727Y-111507680D01*
X108356759Y-111350637D01*
X108556637Y-111150759D01*
X108712000Y-110918241D01*
X108867363Y-111150759D01*
X109067241Y-111350637D01*
X109302273Y-111507680D01*
X109563426Y-111615853D01*
X109840665Y-111671000D01*
X110123335Y-111671000D01*
X110400574Y-111615853D01*
X110661727Y-111507680D01*
X110896759Y-111350637D01*
X111096637Y-111150759D01*
X111252000Y-110918241D01*
X111407363Y-111150759D01*
X111607241Y-111350637D01*
X111842273Y-111507680D01*
X112103426Y-111615853D01*
X112380665Y-111671000D01*
X112663335Y-111671000D01*
X112940574Y-111615853D01*
X113201727Y-111507680D01*
X113436759Y-111350637D01*
X113636637Y-111150759D01*
X113792000Y-110918241D01*
X113947363Y-111150759D01*
X114147241Y-111350637D01*
X114382273Y-111507680D01*
X114643426Y-111615853D01*
X114920665Y-111671000D01*
X115203335Y-111671000D01*
X115480574Y-111615853D01*
X115741727Y-111507680D01*
X115976759Y-111350637D01*
X116176637Y-111150759D01*
X116332000Y-110918241D01*
X116487363Y-111150759D01*
X116687241Y-111350637D01*
X116922273Y-111507680D01*
X117183426Y-111615853D01*
X117460665Y-111671000D01*
X117743335Y-111671000D01*
X118020574Y-111615853D01*
X118281727Y-111507680D01*
X118516759Y-111350637D01*
X118716637Y-111150759D01*
X118872000Y-110918241D01*
X119027363Y-111150759D01*
X119227241Y-111350637D01*
X119462273Y-111507680D01*
X119723426Y-111615853D01*
X120000665Y-111671000D01*
X120283335Y-111671000D01*
X120560574Y-111615853D01*
X120821727Y-111507680D01*
X121056759Y-111350637D01*
X121255357Y-111152039D01*
X121256188Y-111160482D01*
X121292498Y-111280180D01*
X121351463Y-111390494D01*
X121430815Y-111487185D01*
X121527506Y-111566537D01*
X121637820Y-111625502D01*
X121757518Y-111661812D01*
X121882000Y-111674072D01*
X123482000Y-111674072D01*
X123606482Y-111661812D01*
X123726180Y-111625502D01*
X123836494Y-111566537D01*
X123933185Y-111487185D01*
X124012537Y-111390494D01*
X124071502Y-111280180D01*
X124107812Y-111160482D01*
X124120072Y-111036000D01*
X124120072Y-109436000D01*
X124107812Y-109311518D01*
X124071502Y-109191820D01*
X124012537Y-109081506D01*
X123933185Y-108984815D01*
X123836494Y-108905463D01*
X123726180Y-108846498D01*
X123606482Y-108810188D01*
X123482000Y-108797928D01*
X123442000Y-108797928D01*
X123442000Y-100875322D01*
X123445676Y-100837999D01*
X123442000Y-100800676D01*
X123442000Y-100800667D01*
X123431003Y-100689014D01*
X123387546Y-100545753D01*
X123316974Y-100413724D01*
X123222001Y-100297999D01*
X123193003Y-100274201D01*
X121939802Y-99021000D01*
X122066260Y-99021000D01*
X122353158Y-98963932D01*
X122623411Y-98851990D01*
X122866632Y-98689475D01*
X123073475Y-98482632D01*
X123190000Y-98308240D01*
X123306525Y-98482632D01*
X123513368Y-98689475D01*
X123756589Y-98851990D01*
X124026842Y-98963932D01*
X124313740Y-99021000D01*
X124606260Y-99021000D01*
X124893158Y-98963932D01*
X125163411Y-98851990D01*
X125406632Y-98689475D01*
X125613475Y-98482632D01*
X125730000Y-98308240D01*
X125846525Y-98482632D01*
X126053368Y-98689475D01*
X126296589Y-98851990D01*
X126566842Y-98963932D01*
X126853740Y-99021000D01*
X127146260Y-99021000D01*
X127433158Y-98963932D01*
X127703411Y-98851990D01*
X127946632Y-98689475D01*
X128153475Y-98482632D01*
X128270000Y-98308240D01*
X128386525Y-98482632D01*
X128593368Y-98689475D01*
X128836589Y-98851990D01*
X129106842Y-98963932D01*
X129393740Y-99021000D01*
X129686260Y-99021000D01*
X129758961Y-99006539D01*
X131283001Y-100530580D01*
X131283001Y-100819000D01*
X131216061Y-100819000D01*
X131016102Y-100858774D01*
X130827744Y-100936795D01*
X130658226Y-101050063D01*
X130514063Y-101194226D01*
X130400795Y-101363744D01*
X130322774Y-101552102D01*
X130311465Y-101608956D01*
X129052950Y-102867472D01*
X129019183Y-102895184D01*
X128991470Y-102928952D01*
X128991467Y-102928955D01*
X128908589Y-103029942D01*
X128826411Y-103183688D01*
X128775804Y-103350511D01*
X128758718Y-103524001D01*
X128763000Y-103567480D01*
X128762999Y-115888530D01*
X128758718Y-115931999D01*
X128762999Y-115975468D01*
X128762999Y-115975475D01*
X128771379Y-116060556D01*
X128775804Y-116105489D01*
X128777934Y-116112509D01*
X128826410Y-116272311D01*
X128908588Y-116426057D01*
X129019182Y-116560816D01*
X129052955Y-116588533D01*
X130735896Y-118271475D01*
X130699000Y-118456967D01*
X130699000Y-118779033D01*
X130761832Y-119094912D01*
X130885082Y-119392463D01*
X131064013Y-119660252D01*
X131291748Y-119887987D01*
X131559537Y-120066918D01*
X131857088Y-120190168D01*
X132172967Y-120253000D01*
X132495033Y-120253000D01*
X132810912Y-120190168D01*
X133108463Y-120066918D01*
X133376252Y-119887987D01*
X133603987Y-119660252D01*
X133782918Y-119392463D01*
X133906168Y-119094912D01*
X133969000Y-118779033D01*
X133969000Y-118456967D01*
X137199000Y-118456967D01*
X137199000Y-118779033D01*
X137261832Y-119094912D01*
X137385082Y-119392463D01*
X137564013Y-119660252D01*
X137791748Y-119887987D01*
X138059537Y-120066918D01*
X138357088Y-120190168D01*
X138672967Y-120253000D01*
X138995033Y-120253000D01*
X139310912Y-120190168D01*
X139608463Y-120066918D01*
X139876252Y-119887987D01*
X140103987Y-119660252D01*
X140282918Y-119392463D01*
X140406168Y-119094912D01*
X140469000Y-118779033D01*
X140469000Y-118456967D01*
X140406168Y-118141088D01*
X140282918Y-117843537D01*
X140103987Y-117575748D01*
X139876252Y-117348013D01*
X139608463Y-117169082D01*
X139310912Y-117045832D01*
X138995033Y-116983000D01*
X138672967Y-116983000D01*
X138357088Y-117045832D01*
X138059537Y-117169082D01*
X137791748Y-117348013D01*
X137564013Y-117575748D01*
X137385082Y-117843537D01*
X137261832Y-118141088D01*
X137199000Y-118456967D01*
X133969000Y-118456967D01*
X133906168Y-118141088D01*
X133782918Y-117843537D01*
X133603987Y-117575748D01*
X133376252Y-117348013D01*
X133108463Y-117169082D01*
X132810912Y-117045832D01*
X132495033Y-116983000D01*
X132172967Y-116983000D01*
X131987475Y-117019896D01*
X130532999Y-115565421D01*
X130532999Y-113496577D01*
X131677470Y-114641049D01*
X131705183Y-114674817D01*
X131738951Y-114702530D01*
X131738953Y-114702532D01*
X131839941Y-114785411D01*
X131993686Y-114867589D01*
X132058783Y-114887336D01*
X132160510Y-114918195D01*
X132290523Y-114931000D01*
X132290531Y-114931000D01*
X132334000Y-114935281D01*
X132377469Y-114931000D01*
X138063422Y-114931000D01*
X141403896Y-118271475D01*
X141367000Y-118456967D01*
X141367000Y-118779033D01*
X141429832Y-119094912D01*
X141553082Y-119392463D01*
X141732013Y-119660252D01*
X141959748Y-119887987D01*
X142227537Y-120066918D01*
X142525088Y-120190168D01*
X142840967Y-120253000D01*
X143163033Y-120253000D01*
X143478912Y-120190168D01*
X143776463Y-120066918D01*
X144044252Y-119887987D01*
X144271987Y-119660252D01*
X144450918Y-119392463D01*
X144574168Y-119094912D01*
X144637000Y-118779033D01*
X144637000Y-118456967D01*
X147867000Y-118456967D01*
X147867000Y-118779033D01*
X147929832Y-119094912D01*
X148053082Y-119392463D01*
X148232013Y-119660252D01*
X148459748Y-119887987D01*
X148727537Y-120066918D01*
X149025088Y-120190168D01*
X149340967Y-120253000D01*
X149663033Y-120253000D01*
X149978912Y-120190168D01*
X150276463Y-120066918D01*
X150544252Y-119887987D01*
X150771987Y-119660252D01*
X150950918Y-119392463D01*
X151074168Y-119094912D01*
X151137000Y-118779033D01*
X151137000Y-118456967D01*
X151074168Y-118141088D01*
X150950918Y-117843537D01*
X150771987Y-117575748D01*
X150544252Y-117348013D01*
X150276463Y-117169082D01*
X149978912Y-117045832D01*
X149663033Y-116983000D01*
X149340967Y-116983000D01*
X149025088Y-117045832D01*
X148727537Y-117169082D01*
X148459748Y-117348013D01*
X148232013Y-117575748D01*
X148053082Y-117843537D01*
X147929832Y-118141088D01*
X147867000Y-118456967D01*
X144637000Y-118456967D01*
X144574168Y-118141088D01*
X144450918Y-117843537D01*
X144271987Y-117575748D01*
X144044252Y-117348013D01*
X143776463Y-117169082D01*
X143478912Y-117045832D01*
X143163033Y-116983000D01*
X142840967Y-116983000D01*
X142655475Y-117019896D01*
X139086534Y-113450956D01*
X139058817Y-113417183D01*
X138924059Y-113306589D01*
X138770313Y-113224411D01*
X138603490Y-113173805D01*
X138473477Y-113161000D01*
X138473469Y-113161000D01*
X138430000Y-113156719D01*
X138386531Y-113161000D01*
X132700579Y-113161000D01*
X131529001Y-111989423D01*
X131529001Y-111082592D01*
X131763571Y-111196704D01*
X132075108Y-111278384D01*
X132396595Y-111297718D01*
X132715675Y-111253961D01*
X133020088Y-111148795D01*
X133194044Y-111055814D01*
X133289808Y-110791413D01*
X137878192Y-110791413D01*
X137973956Y-111055814D01*
X138263571Y-111196704D01*
X138575108Y-111278384D01*
X138896595Y-111297718D01*
X139215675Y-111253961D01*
X139520088Y-111148795D01*
X139694044Y-111055814D01*
X139789808Y-110791413D01*
X142046192Y-110791413D01*
X142141956Y-111055814D01*
X142431571Y-111196704D01*
X142743108Y-111278384D01*
X143064595Y-111297718D01*
X143383675Y-111253961D01*
X143688088Y-111148795D01*
X143862044Y-111055814D01*
X143957808Y-110791413D01*
X148546192Y-110791413D01*
X148641956Y-111055814D01*
X148931571Y-111196704D01*
X149243108Y-111278384D01*
X149564595Y-111297718D01*
X149883675Y-111253961D01*
X150188088Y-111148795D01*
X150362044Y-111055814D01*
X150457808Y-110791413D01*
X149502000Y-109835605D01*
X148546192Y-110791413D01*
X143957808Y-110791413D01*
X143002000Y-109835605D01*
X142046192Y-110791413D01*
X139789808Y-110791413D01*
X138834000Y-109835605D01*
X137878192Y-110791413D01*
X133289808Y-110791413D01*
X132334000Y-109835605D01*
X132319858Y-109849748D01*
X132140253Y-109670143D01*
X132154395Y-109656000D01*
X132513605Y-109656000D01*
X133469413Y-110611808D01*
X133733814Y-110516044D01*
X133874704Y-110226429D01*
X133956384Y-109914892D01*
X133968189Y-109718595D01*
X137192282Y-109718595D01*
X137236039Y-110037675D01*
X137341205Y-110342088D01*
X137434186Y-110516044D01*
X137698587Y-110611808D01*
X138654395Y-109656000D01*
X139013605Y-109656000D01*
X139969413Y-110611808D01*
X140233814Y-110516044D01*
X140374704Y-110226429D01*
X140456384Y-109914892D01*
X140468189Y-109718595D01*
X141360282Y-109718595D01*
X141404039Y-110037675D01*
X141509205Y-110342088D01*
X141602186Y-110516044D01*
X141866587Y-110611808D01*
X142822395Y-109656000D01*
X143181605Y-109656000D01*
X144137413Y-110611808D01*
X144401814Y-110516044D01*
X144542704Y-110226429D01*
X144624384Y-109914892D01*
X144636189Y-109718595D01*
X147860282Y-109718595D01*
X147904039Y-110037675D01*
X148009205Y-110342088D01*
X148102186Y-110516044D01*
X148366587Y-110611808D01*
X149322395Y-109656000D01*
X149681605Y-109656000D01*
X150637413Y-110611808D01*
X150901814Y-110516044D01*
X151042704Y-110226429D01*
X151124384Y-109914892D01*
X151143718Y-109593405D01*
X151099961Y-109274325D01*
X150994795Y-108969912D01*
X150901814Y-108795956D01*
X150637413Y-108700192D01*
X149681605Y-109656000D01*
X149322395Y-109656000D01*
X148366587Y-108700192D01*
X148102186Y-108795956D01*
X147961296Y-109085571D01*
X147879616Y-109397108D01*
X147860282Y-109718595D01*
X144636189Y-109718595D01*
X144643718Y-109593405D01*
X144599961Y-109274325D01*
X144494795Y-108969912D01*
X144401814Y-108795956D01*
X144137413Y-108700192D01*
X143181605Y-109656000D01*
X142822395Y-109656000D01*
X141866587Y-108700192D01*
X141602186Y-108795956D01*
X141461296Y-109085571D01*
X141379616Y-109397108D01*
X141360282Y-109718595D01*
X140468189Y-109718595D01*
X140475718Y-109593405D01*
X140431961Y-109274325D01*
X140326795Y-108969912D01*
X140233814Y-108795956D01*
X139969413Y-108700192D01*
X139013605Y-109656000D01*
X138654395Y-109656000D01*
X137698587Y-108700192D01*
X137434186Y-108795956D01*
X137293296Y-109085571D01*
X137211616Y-109397108D01*
X137192282Y-109718595D01*
X133968189Y-109718595D01*
X133975718Y-109593405D01*
X133931961Y-109274325D01*
X133826795Y-108969912D01*
X133733814Y-108795956D01*
X133469413Y-108700192D01*
X132513605Y-109656000D01*
X132154395Y-109656000D01*
X132140253Y-109641858D01*
X132319858Y-109462253D01*
X132334000Y-109476395D01*
X133289808Y-108520587D01*
X137878192Y-108520587D01*
X138834000Y-109476395D01*
X139789808Y-108520587D01*
X142046192Y-108520587D01*
X143002000Y-109476395D01*
X143957808Y-108520587D01*
X148546192Y-108520587D01*
X149502000Y-109476395D01*
X150457808Y-108520587D01*
X150362044Y-108256186D01*
X150072429Y-108115296D01*
X149760892Y-108033616D01*
X149439405Y-108014282D01*
X149120325Y-108058039D01*
X148815912Y-108163205D01*
X148641956Y-108256186D01*
X148546192Y-108520587D01*
X143957808Y-108520587D01*
X143862044Y-108256186D01*
X143572429Y-108115296D01*
X143260892Y-108033616D01*
X142939405Y-108014282D01*
X142620325Y-108058039D01*
X142315912Y-108163205D01*
X142141956Y-108256186D01*
X142046192Y-108520587D01*
X139789808Y-108520587D01*
X139694044Y-108256186D01*
X139404429Y-108115296D01*
X139092892Y-108033616D01*
X138771405Y-108014282D01*
X138452325Y-108058039D01*
X138147912Y-108163205D01*
X137973956Y-108256186D01*
X137878192Y-108520587D01*
X133289808Y-108520587D01*
X133194044Y-108256186D01*
X132904429Y-108115296D01*
X132592892Y-108033616D01*
X132271405Y-108014282D01*
X131952325Y-108058039D01*
X131647912Y-108163205D01*
X131529001Y-108226764D01*
X131529001Y-106584514D01*
X131559537Y-106604918D01*
X131857088Y-106728168D01*
X132172967Y-106791000D01*
X132495033Y-106791000D01*
X132810912Y-106728168D01*
X133108463Y-106604918D01*
X133376252Y-106425987D01*
X133603987Y-106198252D01*
X133782918Y-105930463D01*
X133906168Y-105632912D01*
X133969000Y-105317033D01*
X133969000Y-104994967D01*
X137199000Y-104994967D01*
X137199000Y-105317033D01*
X137261832Y-105632912D01*
X137385082Y-105930463D01*
X137564013Y-106198252D01*
X137791748Y-106425987D01*
X138059537Y-106604918D01*
X138357088Y-106728168D01*
X138672967Y-106791000D01*
X138995033Y-106791000D01*
X139310912Y-106728168D01*
X139608463Y-106604918D01*
X139876252Y-106425987D01*
X140103987Y-106198252D01*
X140282918Y-105930463D01*
X140406168Y-105632912D01*
X140469000Y-105317033D01*
X140469000Y-104994967D01*
X141367000Y-104994967D01*
X141367000Y-105317033D01*
X141429832Y-105632912D01*
X141553082Y-105930463D01*
X141732013Y-106198252D01*
X141959748Y-106425987D01*
X142227537Y-106604918D01*
X142525088Y-106728168D01*
X142840967Y-106791000D01*
X143163033Y-106791000D01*
X143478912Y-106728168D01*
X143776463Y-106604918D01*
X144044252Y-106425987D01*
X144271987Y-106198252D01*
X144450918Y-105930463D01*
X144574168Y-105632912D01*
X144637000Y-105317033D01*
X144637000Y-104994967D01*
X147867000Y-104994967D01*
X147867000Y-105317033D01*
X147929832Y-105632912D01*
X148053082Y-105930463D01*
X148232013Y-106198252D01*
X148459748Y-106425987D01*
X148727537Y-106604918D01*
X149025088Y-106728168D01*
X149340967Y-106791000D01*
X149663033Y-106791000D01*
X149978912Y-106728168D01*
X150276463Y-106604918D01*
X150544252Y-106425987D01*
X150771987Y-106198252D01*
X150950918Y-105930463D01*
X151074168Y-105632912D01*
X151137000Y-105317033D01*
X151137000Y-104994967D01*
X151074168Y-104679088D01*
X150950918Y-104381537D01*
X150771987Y-104113748D01*
X150544252Y-103886013D01*
X150276463Y-103707082D01*
X149978912Y-103583832D01*
X149663033Y-103521000D01*
X149340967Y-103521000D01*
X149025088Y-103583832D01*
X148727537Y-103707082D01*
X148459748Y-103886013D01*
X148232013Y-104113748D01*
X148053082Y-104381537D01*
X147929832Y-104679088D01*
X147867000Y-104994967D01*
X144637000Y-104994967D01*
X144574168Y-104679088D01*
X144450918Y-104381537D01*
X144271987Y-104113748D01*
X144044252Y-103886013D01*
X143776463Y-103707082D01*
X143478912Y-103583832D01*
X143163033Y-103521000D01*
X142840967Y-103521000D01*
X142525088Y-103583832D01*
X142227537Y-103707082D01*
X141959748Y-103886013D01*
X141732013Y-104113748D01*
X141553082Y-104381537D01*
X141429832Y-104679088D01*
X141367000Y-104994967D01*
X140469000Y-104994967D01*
X140406168Y-104679088D01*
X140282918Y-104381537D01*
X140103987Y-104113748D01*
X139876252Y-103886013D01*
X139608463Y-103707082D01*
X139310912Y-103583832D01*
X138995033Y-103521000D01*
X138672967Y-103521000D01*
X138357088Y-103583832D01*
X138059537Y-103707082D01*
X137791748Y-103886013D01*
X137564013Y-104113748D01*
X137385082Y-104381537D01*
X137261832Y-104679088D01*
X137199000Y-104994967D01*
X133969000Y-104994967D01*
X133906168Y-104679088D01*
X133782918Y-104381537D01*
X133603987Y-104113748D01*
X133376252Y-103886013D01*
X133108463Y-103707082D01*
X132810912Y-103583832D01*
X132495033Y-103521000D01*
X132172967Y-103521000D01*
X132157505Y-103524076D01*
X132763050Y-102918531D01*
X132796818Y-102890818D01*
X132824571Y-102857002D01*
X132907411Y-102756061D01*
X132912114Y-102747263D01*
X132989590Y-102602314D01*
X133040196Y-102435491D01*
X133053001Y-102305478D01*
X133053001Y-102305468D01*
X133057282Y-102262002D01*
X133053001Y-102218536D01*
X133053001Y-101574777D01*
X152867000Y-101574777D01*
X152867000Y-102133223D01*
X152975948Y-102680939D01*
X153189656Y-103196876D01*
X153499912Y-103661207D01*
X153894793Y-104056088D01*
X154359124Y-104366344D01*
X154875061Y-104580052D01*
X155422777Y-104689000D01*
X155981223Y-104689000D01*
X156528939Y-104580052D01*
X157044876Y-104366344D01*
X157509207Y-104056088D01*
X157904088Y-103661207D01*
X158214344Y-103196876D01*
X158428052Y-102680939D01*
X158537000Y-102133223D01*
X158537000Y-101574777D01*
X158428052Y-101027061D01*
X158214344Y-100511124D01*
X157904088Y-100046793D01*
X157509207Y-99651912D01*
X157044876Y-99341656D01*
X156528939Y-99127948D01*
X155981223Y-99019000D01*
X155422777Y-99019000D01*
X154875061Y-99127948D01*
X154359124Y-99341656D01*
X153894793Y-99651912D01*
X153499912Y-100046793D01*
X153189656Y-100511124D01*
X152975948Y-101027061D01*
X152867000Y-101574777D01*
X133053001Y-101574777D01*
X133053001Y-100207470D01*
X133057282Y-100164001D01*
X133053001Y-100120532D01*
X133053001Y-100120524D01*
X133040196Y-99990511D01*
X133016635Y-99912842D01*
X132989590Y-99823687D01*
X132907412Y-99669942D01*
X132824533Y-99568954D01*
X132824531Y-99568952D01*
X132796818Y-99535184D01*
X132763051Y-99507472D01*
X131010539Y-97754961D01*
X131025000Y-97682260D01*
X131025000Y-97389740D01*
X130967932Y-97102842D01*
X130855990Y-96832589D01*
X130693475Y-96589368D01*
X130486632Y-96382525D01*
X130243411Y-96220010D01*
X129973158Y-96108068D01*
X129686260Y-96051000D01*
X129393740Y-96051000D01*
X129106842Y-96108068D01*
X128836589Y-96220010D01*
X128593368Y-96382525D01*
X128386525Y-96589368D01*
X128270000Y-96763760D01*
X128153475Y-96589368D01*
X127946632Y-96382525D01*
X127703411Y-96220010D01*
X127433158Y-96108068D01*
X127146260Y-96051000D01*
X126853740Y-96051000D01*
X126566842Y-96108068D01*
X126296589Y-96220010D01*
X126053368Y-96382525D01*
X125846525Y-96589368D01*
X125730000Y-96763760D01*
X125613475Y-96589368D01*
X125406632Y-96382525D01*
X125163411Y-96220010D01*
X124893158Y-96108068D01*
X124606260Y-96051000D01*
X124313740Y-96051000D01*
X124026842Y-96108068D01*
X123756589Y-96220010D01*
X123513368Y-96382525D01*
X123306525Y-96589368D01*
X123190000Y-96763760D01*
X123073475Y-96589368D01*
X122866632Y-96382525D01*
X122623411Y-96220010D01*
X122353158Y-96108068D01*
X122066260Y-96051000D01*
X121773740Y-96051000D01*
X121486842Y-96108068D01*
X121216589Y-96220010D01*
X120973368Y-96382525D01*
X120766525Y-96589368D01*
X120650000Y-96763760D01*
X120533475Y-96589368D01*
X120326632Y-96382525D01*
X120083411Y-96220010D01*
X119813158Y-96108068D01*
X119526260Y-96051000D01*
X119233740Y-96051000D01*
X118946842Y-96108068D01*
X118676589Y-96220010D01*
X118433368Y-96382525D01*
X118226525Y-96589368D01*
X118110000Y-96763760D01*
X117993475Y-96589368D01*
X117786632Y-96382525D01*
X117543411Y-96220010D01*
X117273158Y-96108068D01*
X116986260Y-96051000D01*
X116693740Y-96051000D01*
X116406842Y-96108068D01*
X116136589Y-96220010D01*
X115893368Y-96382525D01*
X115686525Y-96589368D01*
X115570000Y-96763760D01*
X115453475Y-96589368D01*
X115246632Y-96382525D01*
X115003411Y-96220010D01*
X114733158Y-96108068D01*
X114446260Y-96051000D01*
X114153740Y-96051000D01*
X113866842Y-96108068D01*
X113596589Y-96220010D01*
X113353368Y-96382525D01*
X113146525Y-96589368D01*
X113030000Y-96763760D01*
X112913475Y-96589368D01*
X112706632Y-96382525D01*
X112463411Y-96220010D01*
X112193158Y-96108068D01*
X111906260Y-96051000D01*
X111613740Y-96051000D01*
X111326842Y-96108068D01*
X111056589Y-96220010D01*
X110813368Y-96382525D01*
X110606525Y-96589368D01*
X110490000Y-96763760D01*
X110373475Y-96589368D01*
X110166632Y-96382525D01*
X109923411Y-96220010D01*
X109653158Y-96108068D01*
X109366260Y-96051000D01*
X109073740Y-96051000D01*
X108786842Y-96108068D01*
X108516589Y-96220010D01*
X108273368Y-96382525D01*
X108066525Y-96589368D01*
X107950000Y-96763760D01*
X107833475Y-96589368D01*
X107626632Y-96382525D01*
X107383411Y-96220010D01*
X107113158Y-96108068D01*
X106826260Y-96051000D01*
X106533740Y-96051000D01*
X106246842Y-96108068D01*
X105976589Y-96220010D01*
X105733368Y-96382525D01*
X105526525Y-96589368D01*
X105410000Y-96763760D01*
X105293475Y-96589368D01*
X105086632Y-96382525D01*
X104843411Y-96220010D01*
X104573158Y-96108068D01*
X104286260Y-96051000D01*
X103993740Y-96051000D01*
X103706842Y-96108068D01*
X103436589Y-96220010D01*
X103193368Y-96382525D01*
X102986525Y-96589368D01*
X102870000Y-96763760D01*
X102753475Y-96589368D01*
X102546632Y-96382525D01*
X102303411Y-96220010D01*
X102033158Y-96108068D01*
X101746260Y-96051000D01*
X101453740Y-96051000D01*
X101166842Y-96108068D01*
X100896589Y-96220010D01*
X100653368Y-96382525D01*
X100446525Y-96589368D01*
X100330000Y-96763760D01*
X100213475Y-96589368D01*
X100006632Y-96382525D01*
X99763411Y-96220010D01*
X99493158Y-96108068D01*
X99206260Y-96051000D01*
X98913740Y-96051000D01*
X98626842Y-96108068D01*
X98356589Y-96220010D01*
X98113368Y-96382525D01*
X97906525Y-96589368D01*
X97790000Y-96763760D01*
X97673475Y-96589368D01*
X97466632Y-96382525D01*
X97223411Y-96220010D01*
X96953158Y-96108068D01*
X96666260Y-96051000D01*
X96373740Y-96051000D01*
X96086842Y-96108068D01*
X95816589Y-96220010D01*
X95573368Y-96382525D01*
X95366525Y-96589368D01*
X95250000Y-96763760D01*
X95133475Y-96589368D01*
X94926632Y-96382525D01*
X94683411Y-96220010D01*
X94413158Y-96108068D01*
X94126260Y-96051000D01*
X93833740Y-96051000D01*
X93546842Y-96108068D01*
X93276589Y-96220010D01*
X93033368Y-96382525D01*
X92826525Y-96589368D01*
X92710000Y-96763760D01*
X92593475Y-96589368D01*
X92386632Y-96382525D01*
X92143411Y-96220010D01*
X91873158Y-96108068D01*
X91586260Y-96051000D01*
X91293740Y-96051000D01*
X91006842Y-96108068D01*
X90736589Y-96220010D01*
X90493368Y-96382525D01*
X90286525Y-96589368D01*
X90170000Y-96763760D01*
X90053475Y-96589368D01*
X89846632Y-96382525D01*
X89603411Y-96220010D01*
X89333158Y-96108068D01*
X89046260Y-96051000D01*
X88753740Y-96051000D01*
X88466842Y-96108068D01*
X88196589Y-96220010D01*
X87953368Y-96382525D01*
X87746525Y-96589368D01*
X87630000Y-96763760D01*
X87513475Y-96589368D01*
X87306632Y-96382525D01*
X87063411Y-96220010D01*
X86793158Y-96108068D01*
X86506260Y-96051000D01*
X86213740Y-96051000D01*
X85926842Y-96108068D01*
X85656589Y-96220010D01*
X85413368Y-96382525D01*
X85206525Y-96589368D01*
X85090000Y-96763760D01*
X84973475Y-96589368D01*
X84766632Y-96382525D01*
X84523411Y-96220010D01*
X84253158Y-96108068D01*
X83966260Y-96051000D01*
X83673740Y-96051000D01*
X83386842Y-96108068D01*
X83116589Y-96220010D01*
X82873368Y-96382525D01*
X82666525Y-96589368D01*
X82550000Y-96763760D01*
X82433475Y-96589368D01*
X82226632Y-96382525D01*
X81983411Y-96220010D01*
X81713158Y-96108068D01*
X81426260Y-96051000D01*
X81133740Y-96051000D01*
X80846842Y-96108068D01*
X80576589Y-96220010D01*
X80333368Y-96382525D01*
X80126525Y-96589368D01*
X80010000Y-96763760D01*
X79893475Y-96589368D01*
X79686632Y-96382525D01*
X79443411Y-96220010D01*
X79173158Y-96108068D01*
X78886260Y-96051000D01*
X78593740Y-96051000D01*
X78306842Y-96108068D01*
X78036589Y-96220010D01*
X77793368Y-96382525D01*
X77586525Y-96589368D01*
X77470000Y-96763760D01*
X77353475Y-96589368D01*
X77146632Y-96382525D01*
X76903411Y-96220010D01*
X76633158Y-96108068D01*
X76346260Y-96051000D01*
X76053740Y-96051000D01*
X75766842Y-96108068D01*
X75496589Y-96220010D01*
X75253368Y-96382525D01*
X75046525Y-96589368D01*
X74930000Y-96763760D01*
X74813475Y-96589368D01*
X74606632Y-96382525D01*
X74363411Y-96220010D01*
X74093158Y-96108068D01*
X73806260Y-96051000D01*
X73513740Y-96051000D01*
X73226842Y-96108068D01*
X72956589Y-96220010D01*
X72713368Y-96382525D01*
X72506525Y-96589368D01*
X72390000Y-96763760D01*
X72273475Y-96589368D01*
X72066632Y-96382525D01*
X71823411Y-96220010D01*
X71553158Y-96108068D01*
X71266260Y-96051000D01*
X70973740Y-96051000D01*
X70686842Y-96108068D01*
X70416589Y-96220010D01*
X70173368Y-96382525D01*
X69966525Y-96589368D01*
X69844805Y-96771534D01*
X69775178Y-96654645D01*
X69580269Y-96438412D01*
X69346920Y-96264359D01*
X69084099Y-96139175D01*
X68936890Y-96094524D01*
X68707000Y-96215845D01*
X68453000Y-96215845D01*
X68223110Y-96094524D01*
X68075901Y-96139175D01*
X67813080Y-96264359D01*
X67579731Y-96438412D01*
X67503966Y-96522466D01*
X67479502Y-96441820D01*
X67420537Y-96331506D01*
X67341185Y-96234815D01*
X67244494Y-96155463D01*
X67134180Y-96096498D01*
X67014482Y-96060188D01*
X66890000Y-96047928D01*
X65190000Y-96047928D01*
X65065518Y-96060188D01*
X64945820Y-96096498D01*
X64835506Y-96155463D01*
X64738815Y-96234815D01*
X64659463Y-96331506D01*
X64600498Y-96441820D01*
X64564188Y-96561518D01*
X64551928Y-96686000D01*
X47243393Y-96686000D01*
X47331899Y-96651315D01*
X48956171Y-96179420D01*
X50616531Y-95856679D01*
X52305035Y-95685166D01*
X53349227Y-95656000D01*
X146035013Y-95656000D01*
X147739693Y-95733409D01*
G37*
%TD.AperFunction*%
%TD*%
M02*
