%TF.GenerationSoftware,KiCad,Pcbnew,(6.0.0-0)*%
%TF.CreationDate,2022-02-14T20:56:18-05:00*%
%TF.ProjectId,RAM-MODULE,52414d2d-4d4f-4445-954c-452e6b696361,rev?*%
%TF.SameCoordinates,Original*%
%TF.FileFunction,Soldermask,Bot*%
%TF.FilePolarity,Negative*%
%FSLAX46Y46*%
G04 Gerber Fmt 4.6, Leading zero omitted, Abs format (unit mm)*
G04 Created by KiCad (PCBNEW (6.0.0-0)) date 2022-02-14 20:56:18*
%MOMM*%
%LPD*%
G01*
G04 APERTURE LIST*
%ADD10R,1.440000X2.000000*%
%ADD11O,1.440000X2.000000*%
%ADD12R,1.600000X1.600000*%
%ADD13O,1.600000X1.600000*%
%ADD14R,3.000000X3.000000*%
%ADD15C,3.000000*%
%ADD16R,1.700000X1.700000*%
%ADD17O,1.700000X1.700000*%
G04 APERTURE END LIST*
D10*
%TO.C,U1*%
X90757330Y-78241318D03*
D11*
X93297330Y-78241318D03*
X95837330Y-78241318D03*
X98377330Y-78241318D03*
X100917330Y-78241318D03*
X103457330Y-78241318D03*
X105997330Y-78241318D03*
X108537330Y-78241318D03*
X111077330Y-78241318D03*
X113617330Y-78241318D03*
X116157330Y-78241318D03*
X118697330Y-78241318D03*
X121237330Y-78241318D03*
X123777330Y-78241318D03*
X123777330Y-63001318D03*
X121237330Y-63001318D03*
X118697330Y-63001318D03*
X116157330Y-63001318D03*
X113617330Y-63001318D03*
X111077330Y-63001318D03*
X108537330Y-63001318D03*
X105997330Y-63001318D03*
X103457330Y-63001318D03*
X100917330Y-63001318D03*
X98377330Y-63001318D03*
X95837330Y-63001318D03*
X93297330Y-63001318D03*
X90757330Y-63001318D03*
%TD*%
D12*
%TO.C,U18*%
X150547330Y-54698818D03*
D13*
X153087330Y-54698818D03*
X155627330Y-54698818D03*
X158167330Y-54698818D03*
X158167330Y-47078818D03*
X155627330Y-47078818D03*
X153087330Y-47078818D03*
X150547330Y-47078818D03*
%TD*%
D14*
%TO.C,BT1*%
X139121250Y-74148818D03*
D15*
X159611250Y-74148818D03*
%TD*%
D16*
%TO.C,J3*%
X168437330Y-136498818D03*
D17*
X165897330Y-136498818D03*
X163357330Y-136498818D03*
X160817330Y-136498818D03*
X158277330Y-136498818D03*
X155737330Y-136498818D03*
X153197330Y-136498818D03*
X150657330Y-136498818D03*
X148117330Y-136498818D03*
X145577330Y-136498818D03*
X143037330Y-136498818D03*
X140497330Y-136498818D03*
X137957330Y-136498818D03*
X135417330Y-136498818D03*
X132877330Y-136498818D03*
X130337330Y-136498818D03*
%TD*%
D16*
%TO.C,J2*%
X105827330Y-45448818D03*
D17*
X108367330Y-45448818D03*
X110907330Y-45448818D03*
X113447330Y-45448818D03*
X115987330Y-45448818D03*
X118527330Y-45448818D03*
X121067330Y-45448818D03*
X123607330Y-45448818D03*
%TD*%
D16*
%TO.C,J1*%
X117547330Y-136498818D03*
D17*
X115007330Y-136498818D03*
X112467330Y-136498818D03*
X109927330Y-136498818D03*
X107387330Y-136498818D03*
X104847330Y-136498818D03*
X102307330Y-136498818D03*
X99767330Y-136498818D03*
X97227330Y-136498818D03*
X94687330Y-136498818D03*
X92147330Y-136498818D03*
X89607330Y-136498818D03*
X87067330Y-136498818D03*
X84527330Y-136498818D03*
X81987330Y-136498818D03*
X79447330Y-136498818D03*
%TD*%
M02*
