M48
; DRILL file {KiCad (5.1.10-1-10_14)} date Monday, November 15, 2021 at 09:00:56 AM
; FORMAT={-:-/ absolute / inch / decimal}
; #@! TF.CreationDate,2021-11-15T09:00:56-05:00
; #@! TF.GenerationSoftware,Kicad,Pcbnew,(5.1.10-1-10_14)
; #@! TF.FileFunction,Plated,1,4,PTH
FMAT,2
INCH
T1C0.0157
T2C0.0315
T3C0.0394
%
G90
G05
T1
X2.64Y-5.67
X2.7Y-5.29
X2.74Y-5.02
X2.83Y-4.92
X2.85Y-5.65
X2.91Y-5.28
X3.03Y-5.34
X3.04Y-5.11
X3.05Y-4.9624
X3.09Y-5.11
X3.1Y-5.23
X3.1452Y-5.0789
X3.28Y-4.99
X3.29Y-5.38
X3.31Y-5.14
X3.32Y-5.22
X3.32Y-5.45
X3.385Y-5.295
X3.395Y-5.075
X3.4Y-5.49
X3.4Y-5.55
X3.44Y-5.34
X3.49Y-5.31
X3.495Y-5.075
X3.5Y-4.81
X3.5094Y-4.5206
X3.54Y-4.78
X3.5446Y-5.347
X3.5626Y-5.2826
X3.57Y-4.46
X3.59Y-5.34
X3.59Y-5.59
X3.64Y-4.46
X3.65Y-5.29
X3.68Y-4.46
X3.7Y-4.97
X3.71Y-5.07
X3.73Y-4.46
X3.7454Y-5.3576
X3.77Y-4.7
X3.82Y-4.96
X3.85Y-4.35
X3.925Y-5.345
X3.93Y-5.07
X3.95Y-5.28
X4.0Y-5.07
X4.0141Y-4.2641
X4.02Y-5.34
X4.08Y-5.34
X4.1295Y-5.3095
X4.16Y-4.2
X4.18Y-5.2976
X4.225Y-5.2976
X4.23Y-5.07
X4.27Y-5.34
X4.36Y-5.47
X4.45Y-5.29
X4.49Y-5.09
X4.5Y-5.53
X4.51Y-5.34
X4.54Y-5.05
X4.55Y-4.35
X4.59Y-5.34
X4.5943Y-5.2746
X4.66Y-5.24
X4.66Y-5.34
X4.75Y-4.99
X4.75Y-5.23
X4.79Y-5.34
X4.8Y-4.53
X4.81Y-4.91
X4.845Y-5.345
X4.94Y-5.4
X4.9406Y-5.3294
X4.97Y-5.36
X5.0Y-4.7
X5.01Y-5.23
X5.02Y-5.07
X5.04Y-4.44
X5.0496Y-4.7267
X5.06Y-4.48
X5.06Y-4.64
X5.0627Y-4.5373
X5.1304Y-4.5996
X5.14Y-4.89
X5.16Y-4.64
X5.18Y-4.89
X5.22Y-5.41
X5.23Y-4.89
X5.28Y-4.89
X5.32Y-5.23
X5.385Y-4.7676
X5.412Y-4.7997
X5.42Y-4.84
X5.43Y-5.39
X5.44Y-5.11
X5.46Y-4.85
X5.48Y-4.8
X5.51Y-5.24
X5.55Y-5.25
X5.59Y-5.25
X5.63Y-5.24
X5.7052Y-5.3348
X5.92Y-5.4
X6.32Y-4.94
T2
X2.7Y-4.51
X2.7Y-4.81
X2.8Y-4.51
X2.8Y-4.81
X2.9Y-4.51
X2.9Y-4.81
X3.0Y-4.51
X3.0Y-4.81
X3.1Y-4.51
X3.1Y-4.81
X3.2Y-4.51
X3.2Y-4.81
X3.3Y-4.51
X3.3Y-4.81
X3.4Y-4.51
X3.4Y-4.81
X3.97Y-4.51
X3.97Y-4.81
X4.07Y-4.51
X4.07Y-4.81
X4.17Y-4.51
X4.17Y-4.81
X4.27Y-4.51
X4.27Y-4.81
X4.37Y-4.51
X4.37Y-4.81
X4.47Y-4.51
X4.47Y-4.81
X4.57Y-4.51
X4.57Y-4.81
X4.67Y-4.51
X4.67Y-4.81
T3
X2.7Y-4.22
X2.8Y-4.22
X2.9Y-4.22
X3.0Y-4.22
X3.1Y-4.22
X3.2Y-4.22
X3.3Y-4.22
X3.4Y-4.22
X4.64Y-4.22
X4.74Y-4.22
X4.84Y-4.22
X4.92Y-5.78
X4.94Y-4.22
X5.02Y-5.78
X5.04Y-4.22
X5.12Y-5.78
X5.14Y-4.22
X5.22Y-5.78
X5.24Y-4.22
X5.32Y-5.78
X5.34Y-4.22
X5.44Y-4.22
X5.54Y-4.22
X5.64Y-4.22
X5.74Y-4.22
T0
M30
