%TF.GenerationSoftware,KiCad,Pcbnew,(5.1.9-0-10_14)*%
%TF.CreationDate,2021-06-04T12:52:24-04:00*%
%TF.ProjectId,CLOCK,434c4f43-4b2e-46b6-9963-61645f706362,rev?*%
%TF.SameCoordinates,Original*%
%TF.FileFunction,Copper,L1,Top*%
%TF.FilePolarity,Positive*%
%FSLAX46Y46*%
G04 Gerber Fmt 4.6, Leading zero omitted, Abs format (unit mm)*
G04 Created by KiCad (PCBNEW (5.1.9-0-10_14)) date 2021-06-04 12:52:24*
%MOMM*%
%LPD*%
G01*
G04 APERTURE LIST*
%TA.AperFunction,ComponentPad*%
%ADD10C,1.524000*%
%TD*%
%TA.AperFunction,ComponentPad*%
%ADD11O,1.700000X1.700000*%
%TD*%
%TA.AperFunction,ComponentPad*%
%ADD12R,1.700000X1.700000*%
%TD*%
%TA.AperFunction,ComponentPad*%
%ADD13C,1.600000*%
%TD*%
%TA.AperFunction,ComponentPad*%
%ADD14R,1.600000X1.600000*%
%TD*%
%TA.AperFunction,ComponentPad*%
%ADD15O,1.600000X1.600000*%
%TD*%
%TA.AperFunction,ComponentPad*%
%ADD16C,2.000000*%
%TD*%
%TA.AperFunction,ComponentPad*%
%ADD17C,2.600000*%
%TD*%
%TA.AperFunction,ComponentPad*%
%ADD18R,2.600000X2.600000*%
%TD*%
%TA.AperFunction,ComponentPad*%
%ADD19C,1.800000*%
%TD*%
%TA.AperFunction,ComponentPad*%
%ADD20R,1.800000X1.800000*%
%TD*%
%TA.AperFunction,Conductor*%
%ADD21C,0.250000*%
%TD*%
%TA.AperFunction,Conductor*%
%ADD22C,0.500000*%
%TD*%
%TA.AperFunction,Conductor*%
%ADD23C,0.750000*%
%TD*%
%TA.AperFunction,Conductor*%
%ADD24C,1.000000*%
%TD*%
%TA.AperFunction,Conductor*%
%ADD25C,0.700000*%
%TD*%
G04 APERTURE END LIST*
D10*
%TO.P,SW2,3*%
%TO.N,+5V*%
X139239600Y-87763200D03*
%TO.P,SW2,2*%
%TO.N,Net-(D2-Pad2)*%
X139239600Y-90303200D03*
%TO.P,SW2,1*%
%TO.N,GND*%
X139239600Y-92843200D03*
%TD*%
D11*
%TO.P,J34,8*%
%TO.N,Net-(J34-Pad8)*%
X126746000Y-88900000D03*
%TO.P,J34,7*%
%TO.N,Net-(J34-Pad1)*%
X129286000Y-88900000D03*
%TO.P,J34,6*%
%TO.N,Net-(J34-Pad6)*%
X126746000Y-91440000D03*
%TO.P,J34,5*%
%TO.N,Net-(J34-Pad1)*%
X129286000Y-91440000D03*
%TO.P,J34,4*%
%TO.N,Net-(J34-Pad4)*%
X126746000Y-93980000D03*
%TO.P,J34,3*%
%TO.N,Net-(J34-Pad1)*%
X129286000Y-93980000D03*
%TO.P,J34,2*%
%TO.N,Net-(J34-Pad2)*%
X126746000Y-96520000D03*
D12*
%TO.P,J34,1*%
%TO.N,Net-(J34-Pad1)*%
X129286000Y-96520000D03*
%TD*%
D13*
%TO.P,C4,2*%
%TO.N,GND*%
X76414000Y-98044000D03*
D14*
%TO.P,C4,1*%
%TO.N,+5V*%
X73914000Y-98044000D03*
%TD*%
D13*
%TO.P,C3,2*%
%TO.N,GND*%
X124754000Y-69342000D03*
D14*
%TO.P,C3,1*%
%TO.N,+5V*%
X127254000Y-69342000D03*
%TD*%
D15*
%TO.P,U11,16*%
%TO.N,+5V*%
X96266000Y-52324000D03*
%TO.P,U11,8*%
%TO.N,GND*%
X114046000Y-59944000D03*
%TO.P,U11,15*%
X98806000Y-52324000D03*
%TO.P,U11,7*%
%TO.N,/1MHz_Pulse*%
X111506000Y-59944000D03*
%TO.P,U11,14*%
%TO.N,Net-(J2-Pad4)*%
X101346000Y-52324000D03*
%TO.P,U11,6*%
%TO.N,/A7*%
X108966000Y-59944000D03*
%TO.P,U11,13*%
%TO.N,Net-(J2-Pad3)*%
X103886000Y-52324000D03*
%TO.P,U11,5*%
%TO.N,/A6*%
X106426000Y-59944000D03*
%TO.P,U11,12*%
%TO.N,Net-(J2-Pad2)*%
X106426000Y-52324000D03*
%TO.P,U11,4*%
%TO.N,/A5*%
X103886000Y-59944000D03*
%TO.P,U11,11*%
%TO.N,Net-(J2-Pad1)*%
X108966000Y-52324000D03*
%TO.P,U11,3*%
%TO.N,/A4*%
X101346000Y-59944000D03*
%TO.P,U11,10*%
%TO.N,/SET_SPEED*%
X111506000Y-52324000D03*
%TO.P,U11,2*%
%TO.N,GND*%
X98806000Y-59944000D03*
%TO.P,U11,9*%
%TO.N,/SET_SPEED*%
X114046000Y-52324000D03*
D14*
%TO.P,U11,1*%
%TO.N,GND*%
X96266000Y-59944000D03*
%TD*%
D15*
%TO.P,U10,14*%
%TO.N,+5V*%
X136652000Y-73914000D03*
%TO.P,U10,7*%
%TO.N,GND*%
X151892000Y-81534000D03*
%TO.P,U10,13*%
%TO.N,N/C*%
X139192000Y-73914000D03*
%TO.P,U10,6*%
X149352000Y-81534000D03*
%TO.P,U10,12*%
X141732000Y-73914000D03*
%TO.P,U10,5*%
X146812000Y-81534000D03*
%TO.P,U10,11*%
X144272000Y-73914000D03*
%TO.P,U10,4*%
X144272000Y-81534000D03*
%TO.P,U10,10*%
X146812000Y-73914000D03*
%TO.P,U10,3*%
%TO.N,/CLOCK_OUT*%
X141732000Y-81534000D03*
%TO.P,U10,9*%
%TO.N,N/C*%
X149352000Y-73914000D03*
%TO.P,U10,2*%
%TO.N,Net-(U10-Pad2)*%
X139192000Y-81534000D03*
%TO.P,U10,8*%
%TO.N,N/C*%
X151892000Y-73914000D03*
D14*
%TO.P,U10,1*%
%TO.N,Net-(U10-Pad1)*%
X136652000Y-81534000D03*
%TD*%
D15*
%TO.P,U9,14*%
%TO.N,+5V*%
X136652000Y-50546000D03*
%TO.P,U9,7*%
%TO.N,GND*%
X151892000Y-58166000D03*
%TO.P,U9,13*%
%TO.N,Net-(J34-Pad1)*%
X139192000Y-50546000D03*
%TO.P,U9,6*%
%TO.N,Net-(U10-Pad1)*%
X149352000Y-58166000D03*
%TO.P,U9,12*%
%TO.N,Net-(D2-Pad2)*%
X141732000Y-50546000D03*
%TO.P,U9,5*%
%TO.N,/HALT*%
X146812000Y-58166000D03*
%TO.P,U9,11*%
%TO.N,Net-(U9-Pad10)*%
X144272000Y-50546000D03*
%TO.P,U9,4*%
%TO.N,Net-(U9-Pad3)*%
X144272000Y-58166000D03*
%TO.P,U9,10*%
%TO.N,Net-(U9-Pad10)*%
X146812000Y-50546000D03*
%TO.P,U9,3*%
%TO.N,Net-(U9-Pad3)*%
X141732000Y-58166000D03*
%TO.P,U9,9*%
%TO.N,/HALT*%
X149352000Y-50546000D03*
%TO.P,U9,2*%
%TO.N,Net-(U8-Pad2)*%
X139192000Y-58166000D03*
%TO.P,U9,8*%
%TO.N,Net-(U10-Pad2)*%
X151892000Y-50546000D03*
D14*
%TO.P,U9,1*%
%TO.N,Net-(U7-Pad3)*%
X136652000Y-58166000D03*
%TD*%
D15*
%TO.P,U8,14*%
%TO.N,+5V*%
X136652000Y-62230000D03*
%TO.P,U8,7*%
%TO.N,GND*%
X151892000Y-69850000D03*
%TO.P,U8,13*%
%TO.N,N/C*%
X139192000Y-62230000D03*
%TO.P,U8,6*%
X149352000Y-69850000D03*
%TO.P,U8,12*%
X141732000Y-62230000D03*
%TO.P,U8,5*%
X146812000Y-69850000D03*
%TO.P,U8,11*%
X144272000Y-62230000D03*
%TO.P,U8,4*%
X144272000Y-69850000D03*
%TO.P,U8,10*%
X146812000Y-62230000D03*
%TO.P,U8,3*%
X141732000Y-69850000D03*
%TO.P,U8,9*%
X149352000Y-62230000D03*
%TO.P,U8,2*%
%TO.N,Net-(U8-Pad2)*%
X139192000Y-69850000D03*
%TO.P,U8,8*%
%TO.N,N/C*%
X151892000Y-62230000D03*
D14*
%TO.P,U8,1*%
%TO.N,Net-(D2-Pad2)*%
X136652000Y-69850000D03*
%TD*%
D15*
%TO.P,U7,8*%
%TO.N,+5V*%
X123444000Y-42418000D03*
%TO.P,U7,4*%
X131064000Y-50038000D03*
%TO.P,U7,7*%
%TO.N,Net-(C2-Pad2)*%
X125984000Y-42418000D03*
%TO.P,U7,3*%
%TO.N,Net-(U7-Pad3)*%
X128524000Y-50038000D03*
%TO.P,U7,6*%
%TO.N,Net-(C2-Pad2)*%
X128524000Y-42418000D03*
%TO.P,U7,2*%
%TO.N,Net-(R1-Pad2)*%
X125984000Y-50038000D03*
%TO.P,U7,5*%
%TO.N,Net-(C1-Pad2)*%
X131064000Y-42418000D03*
D14*
%TO.P,U7,1*%
%TO.N,GND*%
X123444000Y-50038000D03*
%TD*%
D15*
%TO.P,U6,16*%
%TO.N,+5V*%
X81280000Y-89408000D03*
%TO.P,U6,8*%
%TO.N,GND*%
X99060000Y-97028000D03*
%TO.P,U6,15*%
%TO.N,Net-(U6-Pad15)*%
X83820000Y-89408000D03*
%TO.P,U6,7*%
%TO.N,Net-(J34-Pad8)*%
X96520000Y-97028000D03*
%TO.P,U6,14*%
%TO.N,GND*%
X86360000Y-89408000D03*
%TO.P,U6,6*%
%TO.N,Net-(J34-Pad6)*%
X93980000Y-97028000D03*
%TO.P,U6,13*%
%TO.N,Net-(U6-Pad13)*%
X88900000Y-89408000D03*
%TO.P,U6,5*%
%TO.N,Net-(U2-Pad11)*%
X91440000Y-97028000D03*
%TO.P,U6,12*%
%TO.N,Net-(U6-Pad12)*%
X91440000Y-89408000D03*
%TO.P,U6,4*%
%TO.N,+5V*%
X88900000Y-97028000D03*
%TO.P,U6,11*%
X93980000Y-89408000D03*
%TO.P,U6,3*%
%TO.N,Net-(J34-Pad2)*%
X86360000Y-97028000D03*
%TO.P,U6,10*%
%TO.N,Net-(U6-Pad10)*%
X96520000Y-89408000D03*
%TO.P,U6,2*%
%TO.N,Net-(J34-Pad4)*%
X83820000Y-97028000D03*
%TO.P,U6,9*%
%TO.N,Net-(U6-Pad9)*%
X99060000Y-89408000D03*
D14*
%TO.P,U6,1*%
%TO.N,Net-(U6-Pad1)*%
X81280000Y-97028000D03*
%TD*%
D15*
%TO.P,U5,16*%
%TO.N,+5V*%
X103124000Y-89408000D03*
%TO.P,U5,8*%
%TO.N,GND*%
X120904000Y-97028000D03*
%TO.P,U5,15*%
X105664000Y-89408000D03*
%TO.P,U5,7*%
%TO.N,Net-(U5-Pad7)*%
X118364000Y-97028000D03*
%TO.P,U5,14*%
%TO.N,GND*%
X108204000Y-89408000D03*
%TO.P,U5,6*%
%TO.N,Net-(U5-Pad6)*%
X115824000Y-97028000D03*
%TO.P,U5,13*%
%TO.N,Net-(U2-Pad11)*%
X110744000Y-89408000D03*
%TO.P,U5,5*%
%TO.N,+5V*%
X113284000Y-97028000D03*
%TO.P,U5,12*%
%TO.N,Net-(U5-Pad12)*%
X113284000Y-89408000D03*
%TO.P,U5,4*%
%TO.N,Net-(U4-Pad13)*%
X110744000Y-97028000D03*
%TO.P,U5,11*%
%TO.N,Net-(U2-Pad11)*%
X115824000Y-89408000D03*
%TO.P,U5,3*%
%TO.N,Net-(U5-Pad3)*%
X108204000Y-97028000D03*
%TO.P,U5,10*%
%TO.N,GND*%
X118364000Y-89408000D03*
%TO.P,U5,2*%
%TO.N,Net-(U5-Pad2)*%
X105664000Y-97028000D03*
%TO.P,U5,9*%
%TO.N,GND*%
X120904000Y-89408000D03*
D14*
%TO.P,U5,1*%
X103124000Y-97028000D03*
%TD*%
D15*
%TO.P,U4,16*%
%TO.N,+5V*%
X103124000Y-76708000D03*
%TO.P,U4,8*%
%TO.N,GND*%
X120904000Y-84328000D03*
%TO.P,U4,15*%
%TO.N,/A4*%
X105664000Y-76708000D03*
%TO.P,U4,7*%
%TO.N,Net-(U4-Pad7)*%
X118364000Y-84328000D03*
%TO.P,U4,14*%
%TO.N,GND*%
X108204000Y-76708000D03*
%TO.P,U4,6*%
%TO.N,Net-(U4-Pad6)*%
X115824000Y-84328000D03*
%TO.P,U4,13*%
%TO.N,Net-(U4-Pad13)*%
X110744000Y-76708000D03*
%TO.P,U4,5*%
%TO.N,+5V*%
X113284000Y-84328000D03*
%TO.P,U4,12*%
%TO.N,Net-(U4-Pad12)*%
X113284000Y-76708000D03*
%TO.P,U4,4*%
%TO.N,Net-(U2-Pad13)*%
X110744000Y-84328000D03*
%TO.P,U4,11*%
%TO.N,Net-(U2-Pad11)*%
X115824000Y-76708000D03*
%TO.P,U4,3*%
%TO.N,Net-(U4-Pad3)*%
X108204000Y-84328000D03*
%TO.P,U4,10*%
%TO.N,/A6*%
X118364000Y-76708000D03*
%TO.P,U4,2*%
%TO.N,Net-(U4-Pad2)*%
X105664000Y-84328000D03*
%TO.P,U4,9*%
%TO.N,/A7*%
X120904000Y-76708000D03*
D14*
%TO.P,U4,1*%
%TO.N,/A5*%
X103124000Y-84328000D03*
%TD*%
D15*
%TO.P,U3,16*%
%TO.N,+5V*%
X74422000Y-52324000D03*
%TO.P,U3,8*%
%TO.N,GND*%
X92202000Y-59944000D03*
%TO.P,U3,15*%
X76962000Y-52324000D03*
%TO.P,U3,7*%
%TO.N,/1MHz_Pulse*%
X89662000Y-59944000D03*
%TO.P,U3,14*%
%TO.N,Net-(J2-Pad8)*%
X79502000Y-52324000D03*
%TO.P,U3,6*%
%TO.N,/A3*%
X87122000Y-59944000D03*
%TO.P,U3,13*%
%TO.N,Net-(J2-Pad7)*%
X82042000Y-52324000D03*
%TO.P,U3,5*%
%TO.N,/A2*%
X84582000Y-59944000D03*
%TO.P,U3,12*%
%TO.N,Net-(J2-Pad6)*%
X84582000Y-52324000D03*
%TO.P,U3,4*%
%TO.N,/A1*%
X82042000Y-59944000D03*
%TO.P,U3,11*%
%TO.N,Net-(J2-Pad5)*%
X87122000Y-52324000D03*
%TO.P,U3,3*%
%TO.N,/A0*%
X79502000Y-59944000D03*
%TO.P,U3,10*%
%TO.N,/SET_SPEED*%
X89662000Y-52324000D03*
%TO.P,U3,2*%
%TO.N,GND*%
X76962000Y-59944000D03*
%TO.P,U3,9*%
%TO.N,/SET_SPEED*%
X92202000Y-52324000D03*
D14*
%TO.P,U3,1*%
%TO.N,GND*%
X74422000Y-59944000D03*
%TD*%
D15*
%TO.P,U2,16*%
%TO.N,+5V*%
X81280000Y-76708000D03*
%TO.P,U2,8*%
%TO.N,GND*%
X99060000Y-84328000D03*
%TO.P,U2,15*%
%TO.N,/A0*%
X83820000Y-76708000D03*
%TO.P,U2,7*%
%TO.N,Net-(U2-Pad7)*%
X96520000Y-84328000D03*
%TO.P,U2,14*%
%TO.N,GND*%
X86360000Y-76708000D03*
%TO.P,U2,6*%
%TO.N,Net-(U2-Pad6)*%
X93980000Y-84328000D03*
%TO.P,U2,13*%
%TO.N,Net-(U2-Pad13)*%
X88900000Y-76708000D03*
%TO.P,U2,5*%
%TO.N,+5V*%
X91440000Y-84328000D03*
%TO.P,U2,12*%
%TO.N,Net-(U2-Pad12)*%
X91440000Y-76708000D03*
%TO.P,U2,4*%
%TO.N,/1MHz_Pulse*%
X88900000Y-84328000D03*
%TO.P,U2,11*%
%TO.N,Net-(U2-Pad11)*%
X93980000Y-76708000D03*
%TO.P,U2,3*%
%TO.N,Net-(U2-Pad3)*%
X86360000Y-84328000D03*
%TO.P,U2,10*%
%TO.N,/A2*%
X96520000Y-76708000D03*
%TO.P,U2,2*%
%TO.N,Net-(U2-Pad2)*%
X83820000Y-84328000D03*
%TO.P,U2,9*%
%TO.N,/A3*%
X99060000Y-76708000D03*
D14*
%TO.P,U2,1*%
%TO.N,/A1*%
X81280000Y-84328000D03*
%TD*%
D10*
%TO.P,U1,8*%
%TO.N,/1MHz_Pulse*%
X76200000Y-79756000D03*
%TO.P,U1,7*%
%TO.N,GND*%
X68580000Y-79756000D03*
%TO.P,U1,14*%
%TO.N,+5V*%
X76200000Y-64516000D03*
%TO.P,U1,1*%
%TO.N,Net-(U1-Pad1)*%
X68580000Y-64516000D03*
%TD*%
D15*
%TO.P,SW13,16*%
%TO.N,Net-(J2-Pad8)*%
X81534000Y-36576000D03*
%TO.P,SW13,8*%
%TO.N,Net-(RN2-Pad2)*%
X99314000Y-44196000D03*
%TO.P,SW13,15*%
%TO.N,Net-(J2-Pad7)*%
X84074000Y-36576000D03*
%TO.P,SW13,7*%
%TO.N,Net-(RN2-Pad3)*%
X96774000Y-44196000D03*
%TO.P,SW13,14*%
%TO.N,Net-(J2-Pad6)*%
X86614000Y-36576000D03*
%TO.P,SW13,6*%
%TO.N,Net-(RN2-Pad4)*%
X94234000Y-44196000D03*
%TO.P,SW13,13*%
%TO.N,Net-(J2-Pad5)*%
X89154000Y-36576000D03*
%TO.P,SW13,5*%
%TO.N,Net-(RN2-Pad5)*%
X91694000Y-44196000D03*
%TO.P,SW13,12*%
%TO.N,Net-(J2-Pad4)*%
X91694000Y-36576000D03*
%TO.P,SW13,4*%
%TO.N,Net-(RN2-Pad6)*%
X89154000Y-44196000D03*
%TO.P,SW13,11*%
%TO.N,Net-(J2-Pad3)*%
X94234000Y-36576000D03*
%TO.P,SW13,3*%
%TO.N,Net-(RN2-Pad7)*%
X86614000Y-44196000D03*
%TO.P,SW13,10*%
%TO.N,Net-(J2-Pad2)*%
X96774000Y-36576000D03*
%TO.P,SW13,2*%
%TO.N,Net-(RN2-Pad8)*%
X84074000Y-44196000D03*
%TO.P,SW13,9*%
%TO.N,Net-(J2-Pad1)*%
X99314000Y-36576000D03*
D14*
%TO.P,SW13,1*%
%TO.N,Net-(RN2-Pad9)*%
X81534000Y-44196000D03*
%TD*%
D16*
%TO.P,SW1,1*%
%TO.N,GND*%
X126388000Y-55626000D03*
%TO.P,SW1,2*%
%TO.N,Net-(R1-Pad2)*%
X126388000Y-60126000D03*
%TO.P,SW1,1*%
%TO.N,GND*%
X119888000Y-55626000D03*
%TO.P,SW1,2*%
%TO.N,Net-(R1-Pad2)*%
X119888000Y-60126000D03*
%TD*%
D15*
%TO.P,RN3,9*%
%TO.N,Net-(D8-Pad1)*%
X111252000Y-70866000D03*
%TO.P,RN3,8*%
%TO.N,Net-(D7-Pad1)*%
X108712000Y-70866000D03*
%TO.P,RN3,7*%
%TO.N,Net-(D6-Pad1)*%
X106172000Y-70866000D03*
%TO.P,RN3,6*%
%TO.N,Net-(D5-Pad1)*%
X103632000Y-70866000D03*
%TO.P,RN3,5*%
%TO.N,Net-(D4-Pad1)*%
X101092000Y-70866000D03*
%TO.P,RN3,4*%
%TO.N,Net-(D3-Pad1)*%
X98552000Y-70866000D03*
%TO.P,RN3,3*%
%TO.N,Net-(D54-Pad1)*%
X96012000Y-70866000D03*
%TO.P,RN3,2*%
%TO.N,Net-(D1-Pad1)*%
X93472000Y-70866000D03*
D14*
%TO.P,RN3,1*%
%TO.N,GND*%
X90932000Y-70866000D03*
%TD*%
D15*
%TO.P,RN2,9*%
%TO.N,Net-(RN2-Pad9)*%
X80518000Y-48260000D03*
%TO.P,RN2,8*%
%TO.N,Net-(RN2-Pad8)*%
X83058000Y-48260000D03*
%TO.P,RN2,7*%
%TO.N,Net-(RN2-Pad7)*%
X85598000Y-48260000D03*
%TO.P,RN2,6*%
%TO.N,Net-(RN2-Pad6)*%
X88138000Y-48260000D03*
%TO.P,RN2,5*%
%TO.N,Net-(RN2-Pad5)*%
X90678000Y-48260000D03*
%TO.P,RN2,4*%
%TO.N,Net-(RN2-Pad4)*%
X93218000Y-48260000D03*
%TO.P,RN2,3*%
%TO.N,Net-(RN2-Pad3)*%
X95758000Y-48260000D03*
%TO.P,RN2,2*%
%TO.N,Net-(RN2-Pad2)*%
X98298000Y-48260000D03*
D14*
%TO.P,RN2,1*%
%TO.N,+5V*%
X100838000Y-48260000D03*
%TD*%
D15*
%TO.P,RN1,9*%
%TO.N,Net-(J2-Pad1)*%
X100838000Y-32766000D03*
%TO.P,RN1,8*%
%TO.N,Net-(J2-Pad2)*%
X98298000Y-32766000D03*
%TO.P,RN1,7*%
%TO.N,Net-(J2-Pad3)*%
X95758000Y-32766000D03*
%TO.P,RN1,6*%
%TO.N,Net-(J2-Pad4)*%
X93218000Y-32766000D03*
%TO.P,RN1,5*%
%TO.N,Net-(J2-Pad5)*%
X90678000Y-32766000D03*
%TO.P,RN1,4*%
%TO.N,Net-(J2-Pad6)*%
X88138000Y-32766000D03*
%TO.P,RN1,3*%
%TO.N,Net-(J2-Pad7)*%
X85598000Y-32766000D03*
%TO.P,RN1,2*%
%TO.N,Net-(J2-Pad8)*%
X83058000Y-32766000D03*
D14*
%TO.P,RN1,1*%
%TO.N,GND*%
X80518000Y-32766000D03*
%TD*%
D15*
%TO.P,R5,2*%
%TO.N,GND*%
X140208000Y-43180000D03*
D13*
%TO.P,R5,1*%
%TO.N,Net-(D2-Pad1)*%
X140208000Y-33020000D03*
%TD*%
D15*
%TO.P,R4,2*%
%TO.N,GND*%
X149606000Y-86106000D03*
D13*
%TO.P,R4,1*%
%TO.N,Net-(D55-Pad1)*%
X149606000Y-96266000D03*
%TD*%
D15*
%TO.P,R2,2*%
%TO.N,+5V*%
X119380000Y-51308000D03*
D13*
%TO.P,R2,1*%
%TO.N,Net-(C2-Pad2)*%
X119380000Y-41148000D03*
%TD*%
D15*
%TO.P,R1,2*%
%TO.N,Net-(R1-Pad2)*%
X131064000Y-63246000D03*
D13*
%TO.P,R1,1*%
%TO.N,+5V*%
X131064000Y-53086000D03*
%TD*%
D11*
%TO.P,J5,8*%
%TO.N,/CLOCK_OUT*%
X156972000Y-70612000D03*
%TO.P,J5,7*%
X156972000Y-68072000D03*
%TO.P,J5,6*%
X156972000Y-65532000D03*
%TO.P,J5,5*%
X156972000Y-62992000D03*
%TO.P,J5,4*%
X156972000Y-60452000D03*
%TO.P,J5,3*%
X156972000Y-57912000D03*
%TO.P,J5,2*%
X156972000Y-55372000D03*
D12*
%TO.P,J5,1*%
X156972000Y-52832000D03*
%TD*%
D11*
%TO.P,J3,2*%
%TO.N,/SET_SPEED*%
X156972000Y-44450000D03*
D12*
%TO.P,J3,1*%
%TO.N,/HALT*%
X156972000Y-41910000D03*
%TD*%
D11*
%TO.P,J2,8*%
%TO.N,Net-(J2-Pad8)*%
X67056000Y-55880000D03*
%TO.P,J2,7*%
%TO.N,Net-(J2-Pad7)*%
X67056000Y-53340000D03*
%TO.P,J2,6*%
%TO.N,Net-(J2-Pad6)*%
X67056000Y-50800000D03*
%TO.P,J2,5*%
%TO.N,Net-(J2-Pad5)*%
X67056000Y-48260000D03*
%TO.P,J2,4*%
%TO.N,Net-(J2-Pad4)*%
X67056000Y-45720000D03*
%TO.P,J2,3*%
%TO.N,Net-(J2-Pad3)*%
X67056000Y-43180000D03*
%TO.P,J2,2*%
%TO.N,Net-(J2-Pad2)*%
X67056000Y-40640000D03*
D12*
%TO.P,J2,1*%
%TO.N,Net-(J2-Pad1)*%
X67056000Y-38100000D03*
%TD*%
D17*
%TO.P,J1,2*%
%TO.N,+5V*%
X68834000Y-91106000D03*
D18*
%TO.P,J1,1*%
%TO.N,GND*%
X68834000Y-86106000D03*
%TD*%
D19*
%TO.P,D55,2*%
%TO.N,/CLOCK_OUT*%
X156972000Y-88138000D03*
D20*
%TO.P,D55,1*%
%TO.N,Net-(D55-Pad1)*%
X154432000Y-88138000D03*
%TD*%
D19*
%TO.P,D54,2*%
%TO.N,/A1*%
X89408000Y-65024000D03*
D20*
%TO.P,D54,1*%
%TO.N,Net-(D54-Pad1)*%
X89408000Y-67564000D03*
%TD*%
D19*
%TO.P,D8,2*%
%TO.N,/A7*%
X116840000Y-65024000D03*
D20*
%TO.P,D8,1*%
%TO.N,Net-(D8-Pad1)*%
X116840000Y-67564000D03*
%TD*%
D19*
%TO.P,D7,2*%
%TO.N,/A6*%
X112268000Y-65024000D03*
D20*
%TO.P,D7,1*%
%TO.N,Net-(D7-Pad1)*%
X112268000Y-67564000D03*
%TD*%
D19*
%TO.P,D6,2*%
%TO.N,/A5*%
X107696000Y-65024000D03*
D20*
%TO.P,D6,1*%
%TO.N,Net-(D6-Pad1)*%
X107696000Y-67564000D03*
%TD*%
D19*
%TO.P,D5,2*%
%TO.N,/A4*%
X103124000Y-65024000D03*
D20*
%TO.P,D5,1*%
%TO.N,Net-(D5-Pad1)*%
X103124000Y-67564000D03*
%TD*%
D19*
%TO.P,D4,2*%
%TO.N,/A3*%
X98552000Y-65024000D03*
D20*
%TO.P,D4,1*%
%TO.N,Net-(D4-Pad1)*%
X98552000Y-67564000D03*
%TD*%
D19*
%TO.P,D3,2*%
%TO.N,/A2*%
X93980000Y-65024000D03*
D20*
%TO.P,D3,1*%
%TO.N,Net-(D3-Pad1)*%
X93980000Y-67564000D03*
%TD*%
D19*
%TO.P,D2,2*%
%TO.N,Net-(D2-Pad2)*%
X147828000Y-36830000D03*
D20*
%TO.P,D2,1*%
%TO.N,Net-(D2-Pad1)*%
X145288000Y-36830000D03*
%TD*%
D19*
%TO.P,D1,2*%
%TO.N,/A0*%
X84836000Y-65024000D03*
D20*
%TO.P,D1,1*%
%TO.N,Net-(D1-Pad1)*%
X84836000Y-67564000D03*
%TD*%
D13*
%TO.P,C2,2*%
%TO.N,Net-(C2-Pad2)*%
X122468000Y-35560000D03*
D14*
%TO.P,C2,1*%
%TO.N,+5V*%
X124968000Y-35560000D03*
%TD*%
D13*
%TO.P,C1,2*%
%TO.N,Net-(C1-Pad2)*%
X132294000Y-35560000D03*
D14*
%TO.P,C1,1*%
%TO.N,+5V*%
X129794000Y-35560000D03*
%TD*%
D21*
%TO.N,Net-(U2-Pad13)*%
X90424000Y-75184000D02*
X88900000Y-76708000D01*
X94234000Y-75184000D02*
X90424000Y-75184000D01*
X101092000Y-83312000D02*
X95250000Y-77470000D01*
X109220000Y-85852000D02*
X101854000Y-85852000D01*
X101092000Y-85090000D02*
X101092000Y-83312000D01*
X95250000Y-76200000D02*
X94234000Y-75184000D01*
X101854000Y-85852000D02*
X101092000Y-85090000D01*
X95250000Y-77470000D02*
X95250000Y-76200000D01*
X110744000Y-84328000D02*
X109220000Y-85852000D01*
%TO.N,Net-(U2-Pad11)*%
X92854999Y-95613001D02*
X91440000Y-97028000D01*
D22*
X91440000Y-93472000D02*
X91440000Y-97028000D01*
X92710000Y-92202000D02*
X91440000Y-93472000D01*
X92710000Y-77978000D02*
X92710000Y-92202000D01*
X93980000Y-76708000D02*
X92710000Y-77978000D01*
X115824000Y-80759409D02*
X115824000Y-76708000D01*
X117094000Y-88138000D02*
X117094000Y-82029409D01*
X117094000Y-82029409D02*
X115824000Y-80759409D01*
X115824000Y-89408000D02*
X117094000Y-88138000D01*
X113792000Y-94996000D02*
X93472000Y-94996000D01*
X115824000Y-92964000D02*
X113792000Y-94996000D01*
X93472000Y-94996000D02*
X91440000Y-97028000D01*
X115824000Y-89408000D02*
X115824000Y-92964000D01*
D23*
X115824000Y-89408000D02*
X115824000Y-88138000D01*
X115824000Y-88138000D02*
X115316000Y-87630000D01*
X115316000Y-87630000D02*
X111252000Y-87630000D01*
X110744000Y-88138000D02*
X110744000Y-89408000D01*
X111252000Y-87630000D02*
X110744000Y-88138000D01*
D21*
%TO.N,Net-(C1-Pad2)*%
X132294000Y-35560000D02*
X132294000Y-37886000D01*
X131064000Y-39116000D02*
X131064000Y-42418000D01*
X132294000Y-37886000D02*
X131064000Y-39116000D01*
%TO.N,Net-(C2-Pad2)*%
X122468000Y-38060000D02*
X119380000Y-41148000D01*
X122468000Y-35560000D02*
X122468000Y-38060000D01*
X124714000Y-41148000D02*
X119380000Y-41148000D01*
X125984000Y-42418000D02*
X124714000Y-41148000D01*
D23*
X128524000Y-42418000D02*
X125984000Y-42418000D01*
%TO.N,Net-(R1-Pad2)*%
X119888000Y-60126000D02*
X126388000Y-60126000D01*
X129508000Y-63246000D02*
X126388000Y-60126000D01*
X131064000Y-63246000D02*
X129508000Y-63246000D01*
X125984000Y-50038000D02*
X125984000Y-51308000D01*
X125984000Y-51308000D02*
X128524000Y-53848000D01*
X128524000Y-57990000D02*
X126388000Y-60126000D01*
X128524000Y-53848000D02*
X128524000Y-57990000D01*
D21*
%TO.N,Net-(U7-Pad3)*%
X128524000Y-50038000D02*
X130302000Y-48260000D01*
X130302000Y-48260000D02*
X138938000Y-48260000D01*
X136652000Y-54751002D02*
X136652000Y-58166000D01*
X140317001Y-51086001D02*
X136652000Y-54751002D01*
X140317001Y-49639001D02*
X140317001Y-51086001D01*
X138938000Y-48260000D02*
X140317001Y-49639001D01*
D23*
%TO.N,/CLOCK_OUT*%
X156972000Y-88138000D02*
X156972000Y-86868000D01*
X156972000Y-86868000D02*
X154178000Y-84074000D01*
X144272000Y-84074000D02*
X141732000Y-81534000D01*
X154178000Y-84074000D02*
X144272000Y-84074000D01*
X141732000Y-81534000D02*
X143764000Y-79502000D01*
X143764000Y-79502000D02*
X154432000Y-79502000D01*
X156972000Y-76962000D02*
X156972000Y-70612000D01*
X154432000Y-79502000D02*
X156972000Y-76962000D01*
D24*
X156972000Y-52832000D02*
X156972000Y-70612000D01*
D22*
%TO.N,Net-(U8-Pad2)*%
X140462000Y-59436000D02*
X139192000Y-58166000D01*
X140462000Y-68580000D02*
X140462000Y-59436000D01*
X139192000Y-69850000D02*
X140462000Y-68580000D01*
%TO.N,Net-(U10-Pad1)*%
X140442001Y-73353997D02*
X140442001Y-76219999D01*
X142982001Y-70813997D02*
X140442001Y-73353997D01*
X142982001Y-61669997D02*
X142982001Y-70813997D01*
X145235997Y-59416001D02*
X142982001Y-61669997D01*
X148101999Y-59416001D02*
X145235997Y-59416001D01*
X149352000Y-58166000D02*
X148101999Y-59416001D01*
X136652000Y-80010000D02*
X136652000Y-81534000D01*
X140442001Y-76219999D02*
X136652000Y-80010000D01*
%TO.N,/HALT*%
X146812000Y-58166000D02*
X146812000Y-56134000D01*
X149352000Y-53594000D02*
X149352000Y-50546000D01*
X146812000Y-56134000D02*
X149352000Y-53594000D01*
X156972000Y-41910000D02*
X154432000Y-41910000D01*
X149352000Y-46990000D02*
X149352000Y-50546000D01*
X154432000Y-41910000D02*
X149352000Y-46990000D01*
D23*
%TO.N,Net-(U9-Pad10)*%
X144272000Y-50546000D02*
X146812000Y-50546000D01*
%TO.N,Net-(U9-Pad3)*%
X141732000Y-58166000D02*
X144272000Y-58166000D01*
D22*
%TO.N,Net-(U10-Pad2)*%
X145561999Y-69249999D02*
X145561999Y-75164001D01*
X145561999Y-75164001D02*
X139192000Y-81534000D01*
X150641999Y-64169999D02*
X145561999Y-69249999D01*
X150641999Y-51796001D02*
X150641999Y-64169999D01*
X151892000Y-50546000D02*
X150641999Y-51796001D01*
D23*
%TO.N,Net-(D2-Pad2)*%
X147828000Y-36830000D02*
X147828000Y-41148000D01*
X141732000Y-47244000D02*
X141732000Y-50546000D01*
X147828000Y-41148000D02*
X141732000Y-47244000D01*
D22*
X137941999Y-68560001D02*
X136652000Y-69850000D01*
X137941999Y-54336001D02*
X137941999Y-68560001D01*
X141732000Y-50546000D02*
X137941999Y-54336001D01*
D21*
X136603200Y-90303200D02*
X139239600Y-90303200D01*
X134112000Y-87812000D02*
X136603200Y-90303200D01*
X134112000Y-72390000D02*
X134112000Y-87812000D01*
X136652000Y-69850000D02*
X134112000Y-72390000D01*
D23*
%TO.N,Net-(D2-Pad1)*%
X141478000Y-33020000D02*
X145288000Y-36830000D01*
X140208000Y-33020000D02*
X141478000Y-33020000D01*
D21*
%TO.N,/A0*%
X84582000Y-65024000D02*
X84836000Y-65024000D01*
X79502000Y-59944000D02*
X84582000Y-65024000D01*
X83020001Y-75908001D02*
X83820000Y-76708000D01*
X83020001Y-66839999D02*
X83020001Y-75908001D01*
X84836000Y-65024000D02*
X83020001Y-66839999D01*
%TO.N,/A1*%
X82042000Y-59944000D02*
X85344000Y-63246000D01*
X87630000Y-63246000D02*
X89408000Y-65024000D01*
X85344000Y-63246000D02*
X87630000Y-63246000D01*
X89408000Y-65024000D02*
X88138000Y-65024000D01*
X88138000Y-65024000D02*
X87122000Y-66040000D01*
X84945001Y-76457997D02*
X84945001Y-78884999D01*
X87122000Y-74280998D02*
X84945001Y-76457997D01*
X87122000Y-66040000D02*
X87122000Y-74280998D01*
X81280000Y-82550000D02*
X81280000Y-84328000D01*
X84945001Y-78884999D02*
X81280000Y-82550000D01*
%TO.N,/A2*%
X84582000Y-59944000D02*
X84964410Y-59944000D01*
X92346999Y-66657001D02*
X92346999Y-72280999D01*
X93980000Y-65024000D02*
X92346999Y-66657001D01*
X92346999Y-72280999D02*
X93726000Y-73660000D01*
X93726000Y-73660000D02*
X94996000Y-73660000D01*
X96520000Y-75184000D02*
X96520000Y-76708000D01*
X94996000Y-73660000D02*
X96520000Y-75184000D01*
X84582000Y-59944000D02*
X87122000Y-62484000D01*
X91440000Y-62484000D02*
X93980000Y-65024000D01*
X87122000Y-62484000D02*
X91440000Y-62484000D01*
%TO.N,/A3*%
X97326999Y-66249001D02*
X97326999Y-74974999D01*
X97326999Y-74974999D02*
X99060000Y-76708000D01*
X98552000Y-65024000D02*
X97326999Y-66249001D01*
X87122000Y-59944000D02*
X89154000Y-61976000D01*
X95504000Y-61976000D02*
X98552000Y-65024000D01*
X89154000Y-61976000D02*
X95504000Y-61976000D01*
%TO.N,Net-(D4-Pad1)*%
X98552000Y-68326000D02*
X101092000Y-70866000D01*
X98552000Y-67564000D02*
X98552000Y-68326000D01*
%TO.N,/A4*%
X104757001Y-75801001D02*
X105664000Y-76708000D01*
X104757001Y-66657001D02*
X104757001Y-75801001D01*
X103124000Y-65024000D02*
X104757001Y-66657001D01*
X101346000Y-63246000D02*
X103124000Y-65024000D01*
X101346000Y-59944000D02*
X101346000Y-63246000D01*
%TO.N,Net-(D5-Pad1)*%
X103124000Y-70358000D02*
X103632000Y-70866000D01*
X103124000Y-67564000D02*
X103124000Y-70358000D01*
%TO.N,/A5*%
X106789001Y-76457997D02*
X106789001Y-80662999D01*
X107297001Y-75949997D02*
X106789001Y-76457997D01*
X107297001Y-70615997D02*
X107297001Y-75949997D01*
X106789001Y-80662999D02*
X103124000Y-84328000D01*
X108921001Y-68991997D02*
X107297001Y-70615997D01*
X108921001Y-66249001D02*
X108921001Y-68991997D01*
X107696000Y-65024000D02*
X108921001Y-66249001D01*
X103886000Y-61214000D02*
X107696000Y-65024000D01*
X103886000Y-59944000D02*
X103886000Y-61214000D01*
%TO.N,Net-(D6-Pad1)*%
X107696000Y-69342000D02*
X106172000Y-70866000D01*
X107696000Y-67564000D02*
X107696000Y-69342000D01*
%TO.N,/A6*%
X113493001Y-66249001D02*
X113493001Y-70821001D01*
X112268000Y-65024000D02*
X113493001Y-66249001D01*
X118364000Y-75692000D02*
X118364000Y-76708000D01*
X113493001Y-70821001D02*
X118364000Y-75692000D01*
X111506000Y-65024000D02*
X112268000Y-65024000D01*
X106426000Y-59944000D02*
X111506000Y-65024000D01*
%TO.N,Net-(D7-Pad1)*%
X112014000Y-67564000D02*
X108712000Y-70866000D01*
X112268000Y-67564000D02*
X112014000Y-67564000D01*
%TO.N,/A7*%
X120904000Y-69088000D02*
X120904000Y-76708000D01*
X116840000Y-65024000D02*
X120904000Y-69088000D01*
X108966000Y-59944000D02*
X111760000Y-62738000D01*
X114554000Y-62738000D02*
X116840000Y-65024000D01*
X111760000Y-62738000D02*
X114554000Y-62738000D01*
%TO.N,Net-(J2-Pad8)*%
X83058000Y-35052000D02*
X81534000Y-36576000D01*
X83058000Y-32766000D02*
X83058000Y-35052000D01*
X81280000Y-34544000D02*
X83058000Y-32766000D01*
X72136000Y-36322000D02*
X73914000Y-34544000D01*
X72136000Y-41910000D02*
X72136000Y-36322000D01*
X71374000Y-51562000D02*
X71374000Y-42672000D01*
X73914000Y-34544000D02*
X81280000Y-34544000D01*
X71374000Y-42672000D02*
X72136000Y-41910000D01*
X67056000Y-55880000D02*
X71374000Y-51562000D01*
X81534000Y-36576000D02*
X78740000Y-39370000D01*
X78740000Y-51562000D02*
X79502000Y-52324000D01*
X78740000Y-39370000D02*
X78740000Y-51562000D01*
%TO.N,Net-(J2-Pad7)*%
X85598000Y-35052000D02*
X84074000Y-36576000D01*
X85598000Y-32766000D02*
X85598000Y-35052000D01*
X84328000Y-31496000D02*
X85598000Y-32766000D01*
X71628000Y-36076460D02*
X76208460Y-31496000D01*
X71628000Y-41781589D02*
X71628000Y-36076460D01*
X76208460Y-31496000D02*
X84328000Y-31496000D01*
X70923989Y-42485600D02*
X71628000Y-41781589D01*
X70923989Y-49472011D02*
X70923989Y-42485600D01*
X67056000Y-53340000D02*
X70923989Y-49472011D01*
X81932999Y-52214999D02*
X82042000Y-52324000D01*
X81932999Y-47719999D02*
X81932999Y-52214999D01*
X82948999Y-46703999D02*
X81932999Y-47719999D01*
X82948999Y-37701001D02*
X82948999Y-46703999D01*
X84074000Y-36576000D02*
X82948999Y-37701001D01*
%TO.N,Net-(J2-Pad6)*%
X88138000Y-35052000D02*
X86614000Y-36576000D01*
X88138000Y-32766000D02*
X88138000Y-35052000D01*
X86360000Y-30988000D02*
X88138000Y-32766000D01*
X71177989Y-41595189D02*
X71177989Y-35890061D01*
X76080050Y-30988000D02*
X86360000Y-30988000D01*
X67056000Y-50800000D02*
X70473978Y-47382022D01*
X70473978Y-42299200D02*
X71177989Y-41595189D01*
X70473978Y-47382022D02*
X70473978Y-42299200D01*
X71177989Y-35890061D02*
X76080050Y-30988000D01*
X85488999Y-46703999D02*
X84472999Y-47719999D01*
X84472999Y-52214999D02*
X84582000Y-52324000D01*
X85488999Y-37701001D02*
X85488999Y-46703999D01*
X84472999Y-47719999D02*
X84472999Y-52214999D01*
X86614000Y-36576000D02*
X85488999Y-37701001D01*
%TO.N,Net-(J2-Pad5)*%
X90678000Y-35052000D02*
X89154000Y-36576000D01*
X90678000Y-32766000D02*
X90678000Y-35052000D01*
X70023967Y-45292033D02*
X70023967Y-42112800D01*
X88414044Y-30502044D02*
X90678000Y-32766000D01*
X70727978Y-35703662D02*
X75929596Y-30502044D01*
X70727978Y-41408789D02*
X70727978Y-35703662D01*
X70023967Y-42112800D02*
X70727978Y-41408789D01*
X67056000Y-48260000D02*
X70023967Y-45292033D01*
X75929596Y-30502044D02*
X88414044Y-30502044D01*
X87012999Y-52214999D02*
X87122000Y-52324000D01*
X87012999Y-47719999D02*
X87012999Y-52214999D01*
X88028999Y-37701001D02*
X88028999Y-46703999D01*
X88028999Y-46703999D02*
X87012999Y-47719999D01*
X89154000Y-36576000D02*
X88028999Y-37701001D01*
%TO.N,Net-(J2-Pad4)*%
X93218000Y-35052000D02*
X91694000Y-36576000D01*
X93218000Y-32766000D02*
X93218000Y-35052000D01*
X67056000Y-45720000D02*
X69573956Y-43202044D01*
X69573956Y-41926400D02*
X70277967Y-41222389D01*
X69573956Y-43202044D02*
X69573956Y-41926400D01*
X70277967Y-35517263D02*
X75743197Y-30052033D01*
X70277967Y-41222389D02*
X70277967Y-35517263D01*
X75743197Y-30052033D02*
X90504033Y-30052033D01*
X90504033Y-30052033D02*
X93218000Y-32766000D01*
X103378000Y-50292000D02*
X101346000Y-52324000D01*
X103378000Y-45720000D02*
X103378000Y-50292000D01*
X99822000Y-42164000D02*
X103378000Y-45720000D01*
X91694000Y-36576000D02*
X91694000Y-37592000D01*
X91694000Y-37592000D02*
X93472000Y-39370000D01*
X98044000Y-42164000D02*
X99822000Y-42164000D01*
X95250000Y-39370000D02*
X98044000Y-42164000D01*
X93472000Y-39370000D02*
X95250000Y-39370000D01*
%TO.N,Net-(J2-Pad3)*%
X95758000Y-35052000D02*
X94234000Y-36576000D01*
X95758000Y-32766000D02*
X95758000Y-35052000D01*
X69827956Y-40408044D02*
X69827956Y-35330864D01*
X69827956Y-35330864D02*
X75556798Y-29602022D01*
X75556798Y-29602022D02*
X92594022Y-29602022D01*
X92594022Y-29602022D02*
X95758000Y-32766000D01*
X67056000Y-43180000D02*
X69827956Y-40408044D01*
X98172410Y-41656000D02*
X100073180Y-41656000D01*
X94234000Y-37717590D02*
X98172410Y-41656000D01*
X94234000Y-36576000D02*
X94234000Y-37717590D01*
X100073180Y-41656000D02*
X103886000Y-45468820D01*
X103886000Y-45468820D02*
X103886000Y-52324000D01*
%TO.N,Net-(J2-Pad2)*%
X98298000Y-35052000D02*
X96774000Y-36576000D01*
X98298000Y-32766000D02*
X98298000Y-35052000D01*
X67056000Y-40640000D02*
X69377945Y-38318055D01*
X69377945Y-35144465D02*
X75370399Y-29152011D01*
X75370399Y-29152011D02*
X94684011Y-29152011D01*
X69377945Y-38318055D02*
X69377945Y-35144465D01*
X94684011Y-29152011D02*
X98298000Y-32766000D01*
X104394000Y-50292000D02*
X106426000Y-52324000D01*
X104394000Y-45340410D02*
X104394000Y-50292000D01*
X98300820Y-41148000D02*
X100201590Y-41148000D01*
X100201590Y-41148000D02*
X104394000Y-45340410D01*
X96774000Y-39621179D02*
X98300820Y-41148000D01*
X96774000Y-36576000D02*
X96774000Y-39621179D01*
%TO.N,Net-(J2-Pad1)*%
X100838000Y-35052000D02*
X99314000Y-36576000D01*
X100838000Y-32766000D02*
X100838000Y-35052000D01*
X67310000Y-38100000D02*
X67056000Y-38100000D01*
X68834000Y-35052000D02*
X68834000Y-36576000D01*
X68834000Y-36576000D02*
X67310000Y-38100000D01*
X75184000Y-28702000D02*
X68834000Y-35052000D01*
X100838000Y-32766000D02*
X96774000Y-28702000D01*
X96774000Y-28702000D02*
X75184000Y-28702000D01*
X108966000Y-51562000D02*
X108966000Y-52324000D01*
X106172000Y-50800000D02*
X108204000Y-50800000D01*
X108204000Y-50800000D02*
X108966000Y-51562000D01*
X104902000Y-45212000D02*
X104902000Y-49530000D01*
X100330000Y-40640000D02*
X104902000Y-45212000D01*
X104902000Y-49530000D02*
X106172000Y-50800000D01*
X100076000Y-40640000D02*
X100330000Y-40640000D01*
X99314000Y-39878000D02*
X100076000Y-40640000D01*
X99314000Y-36576000D02*
X99314000Y-39878000D01*
%TO.N,Net-(RN2-Pad9)*%
X81534000Y-47244000D02*
X80518000Y-48260000D01*
X81534000Y-44196000D02*
X81534000Y-47244000D01*
%TO.N,Net-(RN2-Pad8)*%
X84074000Y-47244000D02*
X83058000Y-48260000D01*
X84074000Y-44196000D02*
X84074000Y-47244000D01*
%TO.N,Net-(RN2-Pad7)*%
X86614000Y-47244000D02*
X85598000Y-48260000D01*
X86614000Y-44196000D02*
X86614000Y-47244000D01*
%TO.N,Net-(RN2-Pad6)*%
X89154000Y-47244000D02*
X88138000Y-48260000D01*
X89154000Y-44196000D02*
X89154000Y-47244000D01*
%TO.N,Net-(RN2-Pad5)*%
X91694000Y-47244000D02*
X90678000Y-48260000D01*
X91694000Y-44196000D02*
X91694000Y-47244000D01*
%TO.N,Net-(RN2-Pad4)*%
X94234000Y-47244000D02*
X93218000Y-48260000D01*
X94234000Y-44196000D02*
X94234000Y-47244000D01*
%TO.N,Net-(RN2-Pad3)*%
X96774000Y-47244000D02*
X95758000Y-48260000D01*
X96774000Y-44196000D02*
X96774000Y-47244000D01*
%TO.N,Net-(RN2-Pad2)*%
X99314000Y-47244000D02*
X98298000Y-48260000D01*
X99314000Y-44196000D02*
X99314000Y-47244000D01*
D24*
%TO.N,/1MHz_Pulse*%
X88900000Y-84328000D02*
X86614000Y-86614000D01*
X86614000Y-86614000D02*
X79756000Y-86614000D01*
X76200000Y-83058000D02*
X76200000Y-79756000D01*
X79756000Y-86614000D02*
X76200000Y-83058000D01*
D25*
X89662000Y-59944000D02*
X91694000Y-57912000D01*
X109474000Y-57912000D02*
X111506000Y-59944000D01*
X91694000Y-57912000D02*
X109474000Y-57912000D01*
D24*
X71374000Y-59436000D02*
X71374000Y-74930000D01*
X71374000Y-74930000D02*
X76200000Y-79756000D01*
X72898000Y-57912000D02*
X71374000Y-59436000D01*
X87630000Y-57912000D02*
X72898000Y-57912000D01*
X89662000Y-59944000D02*
X87630000Y-57912000D01*
D23*
%TO.N,/SET_SPEED*%
X89662000Y-52324000D02*
X92202000Y-52324000D01*
X114046000Y-52324000D02*
X111506000Y-52324000D01*
X92202000Y-52324000D02*
X93980000Y-54102000D01*
X109728000Y-54102000D02*
X111506000Y-52324000D01*
X93980000Y-54102000D02*
X109728000Y-54102000D01*
D22*
X114046000Y-52324000D02*
X119380000Y-46990000D01*
X128342002Y-46990000D02*
X136906000Y-38426002D01*
X119380000Y-46990000D02*
X128342002Y-46990000D01*
X136906000Y-38426002D02*
X136906000Y-32766000D01*
X136906000Y-32766000D02*
X138938000Y-30734000D01*
X138938000Y-30734000D02*
X148336000Y-30734000D01*
X148336000Y-30734000D02*
X154686000Y-37084000D01*
X154686000Y-37084000D02*
X157226000Y-37084000D01*
X157226000Y-37084000D02*
X159004000Y-38862000D01*
X159004000Y-42418000D02*
X156972000Y-44450000D01*
X159004000Y-38862000D02*
X159004000Y-42418000D01*
D21*
%TO.N,Net-(U4-Pad13)*%
X110744000Y-76708000D02*
X112268000Y-75184000D01*
X119489001Y-82151001D02*
X119489001Y-90112187D01*
X112268000Y-75184000D02*
X116078000Y-75184000D01*
X116078000Y-75184000D02*
X117094000Y-76200000D01*
X117094000Y-76200000D02*
X117094000Y-79756000D01*
X119489001Y-90112187D02*
X113776177Y-95825011D01*
X117094000Y-79756000D02*
X119489001Y-82151001D01*
X113776177Y-95825011D02*
X111946989Y-95825011D01*
X111946989Y-95825011D02*
X110744000Y-97028000D01*
%TO.N,Net-(D55-Pad1)*%
X149606000Y-92964000D02*
X154432000Y-88138000D01*
X149606000Y-96266000D02*
X149606000Y-92964000D01*
%TO.N,Net-(J34-Pad8)*%
X126746000Y-88900000D02*
X124517989Y-91128011D01*
X124517989Y-91128011D02*
X124517989Y-99007655D01*
X100098042Y-100606042D02*
X96520000Y-97028000D01*
X124517989Y-99007655D02*
X122919602Y-100606042D01*
X122919602Y-100606042D02*
X100098042Y-100606042D01*
%TO.N,Net-(J34-Pad6)*%
X124968000Y-99194055D02*
X123106002Y-101056053D01*
X126746000Y-91440000D02*
X124968000Y-93218000D01*
X124968000Y-93218000D02*
X124968000Y-99194055D01*
X123106002Y-101056053D02*
X98008053Y-101056053D01*
X98008053Y-101056053D02*
X93980000Y-97028000D01*
%TO.N,Net-(J34-Pad4)*%
X127921001Y-97513876D02*
X123478802Y-101956075D01*
X123478802Y-101956075D02*
X88748075Y-101956075D01*
X127921001Y-95155001D02*
X127921001Y-97513876D01*
X88748075Y-101956075D02*
X83820000Y-97028000D01*
X126746000Y-93980000D02*
X127921001Y-95155001D01*
%TO.N,Net-(J34-Pad2)*%
X90838064Y-101506064D02*
X86360000Y-97028000D01*
X123292402Y-101506064D02*
X90838064Y-101506064D01*
X126746000Y-96520000D02*
X126746000Y-98052466D01*
X126746000Y-98052466D02*
X123292402Y-101506064D01*
D24*
%TO.N,Net-(J34-Pad1)*%
X129286000Y-78740000D02*
X129286000Y-96520000D01*
D22*
X139192000Y-50546000D02*
X133858000Y-55880000D01*
X133858000Y-55880000D02*
X133858000Y-69850000D01*
X129286000Y-74422000D02*
X129286000Y-78740000D01*
X133858000Y-69850000D02*
X129286000Y-74422000D01*
%TD*%
M02*
