%TF.GenerationSoftware,KiCad,Pcbnew,(5.1.10-1-10_14)*%
%TF.CreationDate,2021-09-17T00:17:13-04:00*%
%TF.ProjectId,clock,636c6f63-6b2e-46b6-9963-61645f706362,rev?*%
%TF.SameCoordinates,Original*%
%TF.FileFunction,Legend,Bot*%
%TF.FilePolarity,Positive*%
%FSLAX46Y46*%
G04 Gerber Fmt 4.6, Leading zero omitted, Abs format (unit mm)*
G04 Created by KiCad (PCBNEW (5.1.10-1-10_14)) date 2021-09-17 00:17:13*
%MOMM*%
%LPD*%
G01*
G04 APERTURE LIST*
%ADD10C,0.120000*%
%ADD11C,0.080000*%
G04 APERTURE END LIST*
D10*
%TO.C,J2*%
X125162000Y-106112000D02*
X127822000Y-106112000D01*
X125162000Y-118872000D02*
X125162000Y-106112000D01*
X127822000Y-118872000D02*
X127822000Y-106112000D01*
X125162000Y-118872000D02*
X127822000Y-118872000D01*
X125162000Y-120142000D02*
X125162000Y-121472000D01*
X125162000Y-121472000D02*
X126492000Y-121472000D01*
%TO.C,J1*%
X224342000Y-121472000D02*
X219142000Y-121472000D01*
X224342000Y-111252000D02*
X224342000Y-121472000D01*
X219142000Y-108652000D02*
X219142000Y-121472000D01*
X224342000Y-111252000D02*
X221742000Y-111252000D01*
X221742000Y-111252000D02*
X221742000Y-108652000D01*
X221742000Y-108652000D02*
X219142000Y-108652000D01*
X224342000Y-109982000D02*
X224342000Y-108652000D01*
X224342000Y-108652000D02*
X223012000Y-108652000D01*
%TO.C,J2*%
D11*
X126658666Y-122198190D02*
X126658666Y-122555333D01*
X126682476Y-122626761D01*
X126730095Y-122674380D01*
X126801523Y-122698190D01*
X126849142Y-122698190D01*
X126444380Y-122245809D02*
X126420571Y-122222000D01*
X126372952Y-122198190D01*
X126253904Y-122198190D01*
X126206285Y-122222000D01*
X126182476Y-122245809D01*
X126158666Y-122293428D01*
X126158666Y-122341047D01*
X126182476Y-122412476D01*
X126468190Y-122698190D01*
X126158666Y-122698190D01*
%TO.C,J1*%
X221908666Y-107378190D02*
X221908666Y-107735333D01*
X221932476Y-107806761D01*
X221980095Y-107854380D01*
X222051523Y-107878190D01*
X222099142Y-107878190D01*
X221408666Y-107878190D02*
X221694380Y-107878190D01*
X221551523Y-107878190D02*
X221551523Y-107378190D01*
X221599142Y-107449619D01*
X221646761Y-107497238D01*
X221694380Y-107521047D01*
%TD*%
M02*
