M48
; DRILL file {KiCad (6.0.0-0)} date Monday, February 14, 2022 at 09:23:09 PM
; FORMAT={-:-/ absolute / inch / decimal}
; #@! TF.CreationDate,2022-02-14T21:23:09-05:00
; #@! TF.GenerationSoftware,Kicad,Pcbnew,(6.0.0-0)
; #@! TF.FileFunction,Plated,1,4,PTH
FMAT,2
INCH
; #@! TA.AperFunction,Plated,PTH,ViaDrill
T1C0.0157
; #@! TA.AperFunction,Plated,PTH,ComponentDrill
T2C0.0394
%
G90
G05
T1
X3.62Y-3.22
X3.69Y-4.23
X3.72Y-3.55
X3.77Y-3.93
X3.77Y-4.62
X3.8Y-3.26
X3.81Y-3.41
X3.83Y-3.7
X3.83Y-4.24
X3.86Y-3.87
X3.8668Y-3.5916
X3.87Y-3.83
X3.88Y-3.94
X3.91Y-3.19
X3.92Y-3.62
X3.9515Y-3.8718
X3.96Y-3.37
X3.9999Y-3.9901
X4.01Y-3.87
X4.1Y-3.74
X4.12Y-4.0
X4.14Y-3.6415
X4.15Y-3.38
X4.15Y-3.91
X4.16Y-3.18
X4.18Y-3.14
X4.21Y-3.43
X4.21Y-3.71
X4.23Y-3.93
X4.255Y-3.873
X4.2565Y-3.6518
X4.28Y-4.51
X4.2975Y-3.8348
X4.31Y-3.93
X4.34Y-4.02
X4.3504Y-3.977
X4.37Y-3.46
X4.37Y-3.83
X4.37Y-4.21
X4.4Y-3.8
X4.41Y-4.46
X4.42Y-3.22
X4.45Y-4.42
X4.48Y-4.37
X4.49Y-4.01
X4.49Y-4.0507
X4.51Y-3.36
X4.5102Y-3.7198
X4.55Y-4.4385
X4.58Y-3.41
X4.58Y-4.38
X4.6Y-3.19
X4.61Y-3.6862
X4.62Y-3.93
X4.63Y-4.38
X4.67Y-3.45
X4.67Y-3.93
X4.72Y-3.6785
X4.72Y-4.96
X4.74Y-3.13
X4.74Y-3.2
X4.74Y-3.93
X4.79Y-3.68
X4.82Y-4.66
X4.83Y-4.59
X4.85Y-3.67
X4.853Y-4.2515
X4.8798Y-4.6602
X4.89Y-3.41
X4.8921Y-4.2475
X4.9315Y-4.2468
X4.95Y-4.01
X4.96Y-3.64
X4.96Y-3.9
X4.96Y-4.31
X4.96Y-4.66
X4.98Y-4.04
X4.99Y-4.28
X4.9902Y-4.2302
X4.9973Y-3.8315
X5.01Y-4.01
X5.0193Y-3.9344
X5.0246Y-3.9734
X5.03Y-3.42
X5.03Y-3.86
X5.05Y-4.66
X5.07Y-4.05
X5.08Y-4.59
X5.11Y-3.15
X5.13Y-3.73
X5.14Y-4.02
X5.23Y-3.42
X5.25Y-3.65
X5.31Y-3.49
X5.33Y-3.54
X5.33Y-3.65
X5.36Y-3.61
X5.39Y-4.44
X5.44Y-4.44
X5.45Y-3.19
X5.47Y-3.26
X5.48Y-4.96
X5.4942Y-4.4215
X5.5102Y-3.1198
X5.5448Y-4.4215
X5.55Y-3.56
X5.59Y-4.2316
X5.65Y-4.63
X5.6507Y-4.0867
X5.71Y-4.3
X5.73Y-4.35
X5.73Y-4.4
X5.76Y-3.17
X5.87Y-3.47
T2
X3.4896Y-3.15
X3.4896Y-3.25
X3.4896Y-3.35
X3.4896Y-3.45
X3.4896Y-3.55
X3.4896Y-3.65
X3.4896Y-3.75
X3.4896Y-3.85
X3.4896Y-4.2474
X3.4896Y-4.3474
X3.4896Y-4.4474
X3.4896Y-4.5474
X3.4896Y-4.6474
X3.4896Y-4.7474
X3.4896Y-4.8474
X3.4896Y-4.9474
X6.0124Y-3.5955
X6.0124Y-3.6955
X6.0124Y-3.7955
X6.0124Y-3.8955
X6.0124Y-3.9955
X6.0124Y-4.0955
X6.0124Y-4.1955
X6.0124Y-4.2955
T0
M30
