%TF.GenerationSoftware,KiCad,Pcbnew,(5.1.9-0-10_14)*%
%TF.CreationDate,2021-06-29T00:25:17-04:00*%
%TF.ProjectId,ram-combined,72616d2d-636f-46d6-9269-6e65642e6b69,rev?*%
%TF.SameCoordinates,Original*%
%TF.FileFunction,Copper,L1,Top*%
%TF.FilePolarity,Positive*%
%FSLAX46Y46*%
G04 Gerber Fmt 4.6, Leading zero omitted, Abs format (unit mm)*
G04 Created by KiCad (PCBNEW (5.1.9-0-10_14)) date 2021-06-29 00:25:17*
%MOMM*%
%LPD*%
G01*
G04 APERTURE LIST*
%TA.AperFunction,ComponentPad*%
%ADD10O,1.700000X1.700000*%
%TD*%
%TA.AperFunction,ComponentPad*%
%ADD11R,1.700000X1.700000*%
%TD*%
%TA.AperFunction,ComponentPad*%
%ADD12C,6.000000*%
%TD*%
%TA.AperFunction,ComponentPad*%
%ADD13C,0.800000*%
%TD*%
%TA.AperFunction,ComponentPad*%
%ADD14C,1.800000*%
%TD*%
%TA.AperFunction,ComponentPad*%
%ADD15R,1.800000X1.800000*%
%TD*%
%TA.AperFunction,ComponentPad*%
%ADD16O,1.600000X1.600000*%
%TD*%
%TA.AperFunction,ComponentPad*%
%ADD17R,1.600000X1.600000*%
%TD*%
%TA.AperFunction,ComponentPad*%
%ADD18C,2.032000*%
%TD*%
%TA.AperFunction,ComponentPad*%
%ADD19R,2.032000X2.032000*%
%TD*%
%TA.AperFunction,ComponentPad*%
%ADD20C,2.000000*%
%TD*%
%TA.AperFunction,ComponentPad*%
%ADD21C,1.600000*%
%TD*%
%TA.AperFunction,ComponentPad*%
%ADD22C,2.600000*%
%TD*%
%TA.AperFunction,ComponentPad*%
%ADD23R,2.600000X2.600000*%
%TD*%
%TA.AperFunction,ViaPad*%
%ADD24C,0.800000*%
%TD*%
%TA.AperFunction,Conductor*%
%ADD25C,0.250000*%
%TD*%
G04 APERTURE END LIST*
D10*
%TO.P,J8,8*%
%TO.N,BUS_00*%
X227330000Y-34290000D03*
%TO.P,J8,7*%
%TO.N,BUS_01*%
X229870000Y-34290000D03*
%TO.P,J8,6*%
%TO.N,BUS_02*%
X232410000Y-34290000D03*
%TO.P,J8,5*%
%TO.N,BUS_03*%
X234950000Y-34290000D03*
%TO.P,J8,4*%
%TO.N,BUS_04*%
X237490000Y-34290000D03*
%TO.P,J8,3*%
%TO.N,BUS_05*%
X240030000Y-34290000D03*
%TO.P,J8,2*%
%TO.N,BUS_06*%
X242570000Y-34290000D03*
D11*
%TO.P,J8,1*%
%TO.N,BUS_07*%
X245110000Y-34290000D03*
%TD*%
D12*
%TO.P,REF\u002A\u002A,1*%
%TO.N,N/C*%
X68072000Y-108966000D03*
D13*
X70322000Y-108966000D03*
X69662990Y-110556990D03*
X68072000Y-111216000D03*
X66481010Y-110556990D03*
X65822000Y-108966000D03*
X66481010Y-107375010D03*
X68072000Y-106716000D03*
X69662990Y-107375010D03*
%TD*%
%TO.P,REF\u002A\u002A,1*%
%TO.N,N/C*%
X254574990Y-107375010D03*
X252984000Y-106716000D03*
X251393010Y-107375010D03*
X250734000Y-108966000D03*
X251393010Y-110556990D03*
X252984000Y-111216000D03*
X254574990Y-110556990D03*
X255234000Y-108966000D03*
D12*
X252984000Y-108966000D03*
%TD*%
%TO.P,REF\u002A\u002A,1*%
%TO.N,N/C*%
X252984000Y-34544000D03*
D13*
X255234000Y-34544000D03*
X254574990Y-36134990D03*
X252984000Y-36794000D03*
X251393010Y-36134990D03*
X250734000Y-34544000D03*
X251393010Y-32953010D03*
X252984000Y-32294000D03*
X254574990Y-32953010D03*
%TD*%
%TO.P,REF\u002A\u002A,1*%
%TO.N,N/C*%
X69662990Y-32953010D03*
X68072000Y-32294000D03*
X66481010Y-32953010D03*
X65822000Y-34544000D03*
X66481010Y-36134990D03*
X68072000Y-36794000D03*
X69662990Y-36134990D03*
X70322000Y-34544000D03*
D12*
X68072000Y-34544000D03*
%TD*%
D10*
%TO.P,J3,10*%
%TO.N,WRITE_ENABLE*%
X73406000Y-62484000D03*
%TO.P,J3,9*%
X73406000Y-59944000D03*
%TO.P,J3,8*%
%TO.N,PROGRAM_MODE*%
X73406000Y-57404000D03*
%TO.P,J3,7*%
X73406000Y-54864000D03*
%TO.P,J3,6*%
%TO.N,OUTPUT_ENABLE*%
X73406000Y-52324000D03*
%TO.P,J3,5*%
%TO.N,RESET*%
X73406000Y-49784000D03*
%TO.P,J3,4*%
%TO.N,MDR_IN*%
X73406000Y-47244000D03*
%TO.P,J3,3*%
%TO.N,MAR1_IN*%
X73406000Y-44704000D03*
%TO.P,J3,2*%
%TO.N,MAR2_IN*%
X73406000Y-42164000D03*
D11*
%TO.P,J3,1*%
%TO.N,CLOCK*%
X73406000Y-39624000D03*
%TD*%
D10*
%TO.P,J7,3*%
%TO.N,VCC*%
X72898000Y-92456000D03*
%TO.P,J7,2*%
%TO.N,A16*%
X72898000Y-94996000D03*
D11*
%TO.P,J7,1*%
%TO.N,GND*%
X72898000Y-97536000D03*
%TD*%
D10*
%TO.P,SW1,3*%
%TO.N,Net-(R3-Pad2)*%
X96266000Y-77470000D03*
%TO.P,SW1,2*%
%TO.N,PROGRAM_MODE*%
X96266000Y-74930000D03*
D11*
%TO.P,SW1,1*%
%TO.N,VCC*%
X96266000Y-72390000D03*
%TD*%
D14*
%TO.P,D1,2*%
%TO.N,/IO7*%
X200660000Y-74168000D03*
D15*
%TO.P,D1,1*%
%TO.N,Net-(D1-Pad1)*%
X200660000Y-76708000D03*
%TD*%
D16*
%TO.P,RN10,9*%
%TO.N,Net-(BAR3-Pad13)*%
X185166000Y-102870000D03*
%TO.P,RN10,8*%
%TO.N,Net-(BAR3-Pad14)*%
X187706000Y-102870000D03*
%TO.P,RN10,7*%
%TO.N,Net-(BAR3-Pad15)*%
X190246000Y-102870000D03*
%TO.P,RN10,6*%
%TO.N,Net-(BAR3-Pad16)*%
X192786000Y-102870000D03*
%TO.P,RN10,5*%
%TO.N,Net-(BAR3-Pad17)*%
X195326000Y-102870000D03*
%TO.P,RN10,4*%
%TO.N,Net-(BAR3-Pad18)*%
X197866000Y-102870000D03*
%TO.P,RN10,3*%
%TO.N,Net-(BAR3-Pad19)*%
X200406000Y-102870000D03*
%TO.P,RN10,2*%
%TO.N,Net-(BAR3-Pad20)*%
X202946000Y-102870000D03*
D17*
%TO.P,RN10,1*%
%TO.N,GND*%
X205486000Y-102870000D03*
%TD*%
D18*
%TO.P,BAR3,20*%
%TO.N,Net-(BAR3-Pad20)*%
X206502000Y-98552000D03*
%TO.P,BAR3,19*%
%TO.N,Net-(BAR3-Pad19)*%
X203962000Y-98552000D03*
%TO.P,BAR3,18*%
%TO.N,Net-(BAR3-Pad18)*%
X201422000Y-98552000D03*
%TO.P,BAR3,17*%
%TO.N,Net-(BAR3-Pad17)*%
X198882000Y-98552000D03*
%TO.P,BAR3,9*%
%TO.N,Net-(BAR3-Pad9)*%
X186182000Y-90932000D03*
%TO.P,BAR3,10*%
%TO.N,Net-(BAR3-Pad10)*%
X183642000Y-90932000D03*
%TO.P,BAR3,11*%
%TO.N,Net-(BAR3-Pad11)*%
X183642000Y-98552000D03*
%TO.P,BAR3,12*%
%TO.N,Net-(BAR3-Pad12)*%
X186182000Y-98552000D03*
%TO.P,BAR3,8*%
%TO.N,D7*%
X188722000Y-90932000D03*
%TO.P,BAR3,7*%
%TO.N,D6*%
X191262000Y-90932000D03*
%TO.P,BAR3,6*%
%TO.N,D5*%
X193802000Y-90932000D03*
%TO.P,BAR3,5*%
%TO.N,D4*%
X196342000Y-90932000D03*
%TO.P,BAR3,16*%
%TO.N,Net-(BAR3-Pad16)*%
X196342000Y-98552000D03*
%TO.P,BAR3,15*%
%TO.N,Net-(BAR3-Pad15)*%
X193802000Y-98552000D03*
%TO.P,BAR3,14*%
%TO.N,Net-(BAR3-Pad14)*%
X191262000Y-98552000D03*
%TO.P,BAR3,13*%
%TO.N,Net-(BAR3-Pad13)*%
X188722000Y-98552000D03*
%TO.P,BAR3,4*%
%TO.N,D3*%
X198882000Y-90932000D03*
%TO.P,BAR3,3*%
%TO.N,D2*%
X201422000Y-90932000D03*
%TO.P,BAR3,2*%
%TO.N,D1*%
X203962000Y-90932000D03*
D19*
%TO.P,BAR3,1*%
%TO.N,D0*%
X206502000Y-90932000D03*
%TD*%
D16*
%TO.P,U13,20*%
%TO.N,VCC*%
X243840000Y-52070000D03*
%TO.P,U13,10*%
%TO.N,GND*%
X220980000Y-44450000D03*
%TO.P,U13,19*%
%TO.N,OUTPUT_ENABLE*%
X241300000Y-52070000D03*
%TO.P,U13,9*%
%TO.N,/IO7*%
X223520000Y-44450000D03*
%TO.P,U13,18*%
%TO.N,BUS_00*%
X238760000Y-52070000D03*
%TO.P,U13,8*%
%TO.N,/IO6*%
X226060000Y-44450000D03*
%TO.P,U13,17*%
%TO.N,BUS_01*%
X236220000Y-52070000D03*
%TO.P,U13,7*%
%TO.N,/IO5*%
X228600000Y-44450000D03*
%TO.P,U13,16*%
%TO.N,BUS_02*%
X233680000Y-52070000D03*
%TO.P,U13,6*%
%TO.N,/IO4*%
X231140000Y-44450000D03*
%TO.P,U13,15*%
%TO.N,BUS_03*%
X231140000Y-52070000D03*
%TO.P,U13,5*%
%TO.N,/IO3*%
X233680000Y-44450000D03*
%TO.P,U13,14*%
%TO.N,BUS_04*%
X228600000Y-52070000D03*
%TO.P,U13,4*%
%TO.N,/IO2*%
X236220000Y-44450000D03*
%TO.P,U13,13*%
%TO.N,BUS_05*%
X226060000Y-52070000D03*
%TO.P,U13,3*%
%TO.N,/IO1*%
X238760000Y-44450000D03*
%TO.P,U13,12*%
%TO.N,BUS_06*%
X223520000Y-52070000D03*
%TO.P,U13,2*%
%TO.N,/IO0*%
X241300000Y-44450000D03*
%TO.P,U13,11*%
%TO.N,BUS_07*%
X220980000Y-52070000D03*
D17*
%TO.P,U13,1*%
%TO.N,VCC*%
X243840000Y-44450000D03*
%TD*%
D16*
%TO.P,U11,20*%
%TO.N,VCC*%
X243840000Y-63754000D03*
%TO.P,U11,10*%
%TO.N,GND*%
X220980000Y-56134000D03*
%TO.P,U11,19*%
%TO.N,Net-(U1-Pad3)*%
X241300000Y-63754000D03*
%TO.P,U11,9*%
%TO.N,D7*%
X223520000Y-56134000D03*
%TO.P,U11,18*%
%TO.N,/IO0*%
X238760000Y-63754000D03*
%TO.P,U11,8*%
%TO.N,D6*%
X226060000Y-56134000D03*
%TO.P,U11,17*%
%TO.N,/IO1*%
X236220000Y-63754000D03*
%TO.P,U11,7*%
%TO.N,D5*%
X228600000Y-56134000D03*
%TO.P,U11,16*%
%TO.N,/IO2*%
X233680000Y-63754000D03*
%TO.P,U11,6*%
%TO.N,D4*%
X231140000Y-56134000D03*
%TO.P,U11,15*%
%TO.N,/IO3*%
X231140000Y-63754000D03*
%TO.P,U11,5*%
%TO.N,D3*%
X233680000Y-56134000D03*
%TO.P,U11,14*%
%TO.N,/IO4*%
X228600000Y-63754000D03*
%TO.P,U11,4*%
%TO.N,D2*%
X236220000Y-56134000D03*
%TO.P,U11,13*%
%TO.N,/IO5*%
X226060000Y-63754000D03*
%TO.P,U11,3*%
%TO.N,D1*%
X238760000Y-56134000D03*
%TO.P,U11,12*%
%TO.N,/IO6*%
X223520000Y-63754000D03*
%TO.P,U11,2*%
%TO.N,D0*%
X241300000Y-56134000D03*
%TO.P,U11,11*%
%TO.N,/IO7*%
X220980000Y-63754000D03*
D17*
%TO.P,U11,1*%
%TO.N,VCC*%
X243840000Y-56134000D03*
%TD*%
%TO.P,U2,1*%
%TO.N,PROGRAM_MODE*%
X101854000Y-79248000D03*
D16*
%TO.P,U2,8*%
%TO.N,N/C*%
X117094000Y-71628000D03*
%TO.P,U2,2*%
%TO.N,CLOCK*%
X104394000Y-79248000D03*
%TO.P,U2,9*%
%TO.N,N/C*%
X114554000Y-71628000D03*
%TO.P,U2,3*%
%TO.N,Net-(U1-Pad1)*%
X106934000Y-79248000D03*
%TO.P,U2,10*%
%TO.N,N/C*%
X112014000Y-71628000D03*
%TO.P,U2,4*%
X109474000Y-79248000D03*
%TO.P,U2,11*%
X109474000Y-71628000D03*
%TO.P,U2,5*%
X112014000Y-79248000D03*
%TO.P,U2,12*%
X106934000Y-71628000D03*
%TO.P,U2,6*%
X114554000Y-79248000D03*
%TO.P,U2,13*%
X104394000Y-71628000D03*
%TO.P,U2,7*%
%TO.N,GND*%
X117094000Y-79248000D03*
%TO.P,U2,14*%
%TO.N,VCC*%
X101854000Y-71628000D03*
%TD*%
D17*
%TO.P,U1,1*%
%TO.N,Net-(U1-Pad1)*%
X122428000Y-79248000D03*
D16*
%TO.P,U1,8*%
%TO.N,N/C*%
X137668000Y-71628000D03*
%TO.P,U1,2*%
%TO.N,WRITE_ENABLE*%
X124968000Y-79248000D03*
%TO.P,U1,9*%
%TO.N,N/C*%
X135128000Y-71628000D03*
%TO.P,U1,3*%
%TO.N,Net-(U1-Pad3)*%
X127508000Y-79248000D03*
%TO.P,U1,10*%
%TO.N,N/C*%
X132588000Y-71628000D03*
%TO.P,U1,4*%
X130048000Y-79248000D03*
%TO.P,U1,11*%
X130048000Y-71628000D03*
%TO.P,U1,5*%
X132588000Y-79248000D03*
%TO.P,U1,12*%
X127508000Y-71628000D03*
%TO.P,U1,6*%
X135128000Y-79248000D03*
%TO.P,U1,13*%
X124968000Y-71628000D03*
%TO.P,U1,7*%
%TO.N,GND*%
X137668000Y-79248000D03*
%TO.P,U1,14*%
%TO.N,VCC*%
X122428000Y-71628000D03*
%TD*%
%TO.P,U17,16*%
%TO.N,VCC*%
X196088000Y-56134000D03*
%TO.P,U17,8*%
%TO.N,GND*%
X213868000Y-63754000D03*
%TO.P,U17,15*%
X198628000Y-56134000D03*
%TO.P,U17,7*%
%TO.N,D1*%
X211328000Y-63754000D03*
%TO.P,U17,14*%
%TO.N,Net-(U16-Pad6)*%
X201168000Y-56134000D03*
%TO.P,U17,6*%
%TO.N,/MANUAL_DATA_01*%
X208788000Y-63754000D03*
%TO.P,U17,13*%
%TO.N,/MANUAL_DATA_03*%
X203708000Y-56134000D03*
%TO.P,U17,5*%
%TO.N,Net-(U16-Pad4)*%
X206248000Y-63754000D03*
%TO.P,U17,12*%
%TO.N,D3*%
X206248000Y-56134000D03*
%TO.P,U17,4*%
%TO.N,D0*%
X203708000Y-63754000D03*
%TO.P,U17,11*%
%TO.N,Net-(U16-Pad5)*%
X208788000Y-56134000D03*
%TO.P,U17,3*%
%TO.N,/MANUAL_DATA_00*%
X201168000Y-63754000D03*
%TO.P,U17,10*%
%TO.N,/MANUAL_DATA_02*%
X211328000Y-56134000D03*
%TO.P,U17,2*%
%TO.N,Net-(U16-Pad3)*%
X198628000Y-63754000D03*
%TO.P,U17,9*%
%TO.N,D2*%
X213868000Y-56134000D03*
D17*
%TO.P,U17,1*%
%TO.N,PROGRAM_MODE*%
X196088000Y-63754000D03*
%TD*%
D16*
%TO.P,U16,16*%
%TO.N,VCC*%
X196088000Y-44450000D03*
%TO.P,U16,8*%
%TO.N,GND*%
X213868000Y-52070000D03*
%TO.P,U16,15*%
%TO.N,RESET*%
X198628000Y-44450000D03*
%TO.P,U16,7*%
%TO.N,CLOCK*%
X211328000Y-52070000D03*
%TO.P,U16,14*%
%TO.N,BUS_00*%
X201168000Y-44450000D03*
%TO.P,U16,6*%
%TO.N,Net-(U16-Pad6)*%
X208788000Y-52070000D03*
%TO.P,U16,13*%
%TO.N,BUS_01*%
X203708000Y-44450000D03*
%TO.P,U16,5*%
%TO.N,Net-(U16-Pad5)*%
X206248000Y-52070000D03*
%TO.P,U16,12*%
%TO.N,BUS_02*%
X206248000Y-44450000D03*
%TO.P,U16,4*%
%TO.N,Net-(U16-Pad4)*%
X203708000Y-52070000D03*
%TO.P,U16,11*%
%TO.N,BUS_03*%
X208788000Y-44450000D03*
%TO.P,U16,3*%
%TO.N,Net-(U16-Pad3)*%
X201168000Y-52070000D03*
%TO.P,U16,10*%
%TO.N,MDR_IN*%
X211328000Y-44450000D03*
%TO.P,U16,2*%
%TO.N,GND*%
X198628000Y-52070000D03*
%TO.P,U16,9*%
%TO.N,MDR_IN*%
X213868000Y-44450000D03*
D17*
%TO.P,U16,1*%
%TO.N,GND*%
X196088000Y-52070000D03*
%TD*%
D16*
%TO.P,U15,16*%
%TO.N,VCC*%
X172974000Y-56134000D03*
%TO.P,U15,8*%
%TO.N,GND*%
X190754000Y-63754000D03*
%TO.P,U15,15*%
X175514000Y-56134000D03*
%TO.P,U15,7*%
%TO.N,D5*%
X188214000Y-63754000D03*
%TO.P,U15,14*%
%TO.N,Net-(U14-Pad6)*%
X178054000Y-56134000D03*
%TO.P,U15,6*%
%TO.N,/MANUAL_DATA_05*%
X185674000Y-63754000D03*
%TO.P,U15,13*%
%TO.N,/MANUAL_DATA_07*%
X180594000Y-56134000D03*
%TO.P,U15,5*%
%TO.N,Net-(U14-Pad4)*%
X183134000Y-63754000D03*
%TO.P,U15,12*%
%TO.N,D7*%
X183134000Y-56134000D03*
%TO.P,U15,4*%
%TO.N,D4*%
X180594000Y-63754000D03*
%TO.P,U15,11*%
%TO.N,Net-(U14-Pad5)*%
X185674000Y-56134000D03*
%TO.P,U15,3*%
%TO.N,/MANUAL_DATA_04*%
X178054000Y-63754000D03*
%TO.P,U15,10*%
%TO.N,/MANUAL_DATA_06*%
X188214000Y-56134000D03*
%TO.P,U15,2*%
%TO.N,Net-(U14-Pad3)*%
X175514000Y-63754000D03*
%TO.P,U15,9*%
%TO.N,D6*%
X190754000Y-56134000D03*
D17*
%TO.P,U15,1*%
%TO.N,PROGRAM_MODE*%
X172974000Y-63754000D03*
%TD*%
D16*
%TO.P,U14,16*%
%TO.N,VCC*%
X172974000Y-44450000D03*
%TO.P,U14,8*%
%TO.N,GND*%
X190754000Y-52070000D03*
%TO.P,U14,15*%
%TO.N,RESET*%
X175514000Y-44450000D03*
%TO.P,U14,7*%
%TO.N,CLOCK*%
X188214000Y-52070000D03*
%TO.P,U14,14*%
%TO.N,BUS_04*%
X178054000Y-44450000D03*
%TO.P,U14,6*%
%TO.N,Net-(U14-Pad6)*%
X185674000Y-52070000D03*
%TO.P,U14,13*%
%TO.N,BUS_05*%
X180594000Y-44450000D03*
%TO.P,U14,5*%
%TO.N,Net-(U14-Pad5)*%
X183134000Y-52070000D03*
%TO.P,U14,12*%
%TO.N,BUS_06*%
X183134000Y-44450000D03*
%TO.P,U14,4*%
%TO.N,Net-(U14-Pad4)*%
X180594000Y-52070000D03*
%TO.P,U14,11*%
%TO.N,BUS_07*%
X185674000Y-44450000D03*
%TO.P,U14,3*%
%TO.N,Net-(U14-Pad3)*%
X178054000Y-52070000D03*
%TO.P,U14,10*%
%TO.N,MDR_IN*%
X188214000Y-44450000D03*
%TO.P,U14,2*%
%TO.N,GND*%
X175514000Y-52070000D03*
%TO.P,U14,9*%
%TO.N,MDR_IN*%
X190754000Y-44450000D03*
D17*
%TO.P,U14,1*%
%TO.N,GND*%
X172974000Y-52070000D03*
%TD*%
D16*
%TO.P,U12,16*%
%TO.N,VCC*%
X149352000Y-44450000D03*
%TO.P,U12,8*%
%TO.N,GND*%
X167132000Y-52070000D03*
%TO.P,U12,15*%
%TO.N,RESET*%
X151892000Y-44450000D03*
%TO.P,U12,7*%
%TO.N,CLOCK*%
X164592000Y-52070000D03*
%TO.P,U12,14*%
%TO.N,BUS_00*%
X154432000Y-44450000D03*
%TO.P,U12,6*%
%TO.N,/MAR_03*%
X162052000Y-52070000D03*
%TO.P,U12,13*%
%TO.N,BUS_01*%
X156972000Y-44450000D03*
%TO.P,U12,5*%
%TO.N,/MAR_02*%
X159512000Y-52070000D03*
%TO.P,U12,12*%
%TO.N,BUS_02*%
X159512000Y-44450000D03*
%TO.P,U12,4*%
%TO.N,/MAR_01*%
X156972000Y-52070000D03*
%TO.P,U12,11*%
%TO.N,BUS_03*%
X162052000Y-44450000D03*
%TO.P,U12,3*%
%TO.N,/MAR_00*%
X154432000Y-52070000D03*
%TO.P,U12,10*%
%TO.N,MAR1_IN*%
X164592000Y-44450000D03*
%TO.P,U12,2*%
%TO.N,GND*%
X151892000Y-52070000D03*
%TO.P,U12,9*%
%TO.N,MAR1_IN*%
X167132000Y-44450000D03*
D17*
%TO.P,U12,1*%
%TO.N,GND*%
X149352000Y-52070000D03*
%TD*%
D16*
%TO.P,U10,16*%
%TO.N,VCC*%
X125984000Y-44450000D03*
%TO.P,U10,8*%
%TO.N,GND*%
X143764000Y-52070000D03*
%TO.P,U10,15*%
%TO.N,RESET*%
X128524000Y-44450000D03*
%TO.P,U10,7*%
%TO.N,CLOCK*%
X141224000Y-52070000D03*
%TO.P,U10,14*%
%TO.N,BUS_04*%
X131064000Y-44450000D03*
%TO.P,U10,6*%
%TO.N,/MAR_07*%
X138684000Y-52070000D03*
%TO.P,U10,13*%
%TO.N,BUS_05*%
X133604000Y-44450000D03*
%TO.P,U10,5*%
%TO.N,/MAR_06*%
X136144000Y-52070000D03*
%TO.P,U10,12*%
%TO.N,BUS_06*%
X136144000Y-44450000D03*
%TO.P,U10,4*%
%TO.N,/MAR_05*%
X133604000Y-52070000D03*
%TO.P,U10,11*%
%TO.N,BUS_07*%
X138684000Y-44450000D03*
%TO.P,U10,3*%
%TO.N,/MAR_04*%
X131064000Y-52070000D03*
%TO.P,U10,10*%
%TO.N,MAR1_IN*%
X141224000Y-44450000D03*
%TO.P,U10,2*%
%TO.N,GND*%
X128524000Y-52070000D03*
%TO.P,U10,9*%
%TO.N,MAR1_IN*%
X143764000Y-44450000D03*
D17*
%TO.P,U10,1*%
%TO.N,GND*%
X125984000Y-52070000D03*
%TD*%
D16*
%TO.P,U9,32*%
%TO.N,VCC*%
X149098000Y-71628000D03*
%TO.P,U9,16*%
%TO.N,GND*%
X187198000Y-79248000D03*
%TO.P,U9,31*%
%TO.N,/A15*%
X151638000Y-71628000D03*
%TO.P,U9,15*%
%TO.N,/IO2*%
X184658000Y-79248000D03*
%TO.P,U9,30*%
%TO.N,VCC*%
X154178000Y-71628000D03*
%TO.P,U9,14*%
%TO.N,/IO1*%
X182118000Y-79248000D03*
%TO.P,U9,29*%
%TO.N,Net-(U1-Pad3)*%
X156718000Y-71628000D03*
%TO.P,U9,13*%
%TO.N,/IO0*%
X179578000Y-79248000D03*
%TO.P,U9,28*%
%TO.N,/A13*%
X159258000Y-71628000D03*
%TO.P,U9,12*%
%TO.N,/A0*%
X177038000Y-79248000D03*
%TO.P,U9,27*%
%TO.N,/A8*%
X161798000Y-71628000D03*
%TO.P,U9,11*%
%TO.N,/A1*%
X174498000Y-79248000D03*
%TO.P,U9,26*%
%TO.N,/A9*%
X164338000Y-71628000D03*
%TO.P,U9,10*%
%TO.N,/A2*%
X171958000Y-79248000D03*
%TO.P,U9,25*%
%TO.N,/A11*%
X166878000Y-71628000D03*
%TO.P,U9,9*%
%TO.N,/A3*%
X169418000Y-79248000D03*
%TO.P,U9,24*%
%TO.N,GND*%
X169418000Y-71628000D03*
%TO.P,U9,8*%
%TO.N,/A4*%
X166878000Y-79248000D03*
%TO.P,U9,23*%
%TO.N,/A10*%
X171958000Y-71628000D03*
%TO.P,U9,7*%
%TO.N,/A5*%
X164338000Y-79248000D03*
%TO.P,U9,22*%
%TO.N,GND*%
X174498000Y-71628000D03*
%TO.P,U9,6*%
%TO.N,/A6*%
X161798000Y-79248000D03*
%TO.P,U9,21*%
%TO.N,/IO7*%
X177038000Y-71628000D03*
%TO.P,U9,5*%
%TO.N,/A7*%
X159258000Y-79248000D03*
%TO.P,U9,20*%
%TO.N,/IO6*%
X179578000Y-71628000D03*
%TO.P,U9,4*%
%TO.N,/A12*%
X156718000Y-79248000D03*
%TO.P,U9,19*%
%TO.N,/IO5*%
X182118000Y-71628000D03*
%TO.P,U9,3*%
%TO.N,/A14*%
X154178000Y-79248000D03*
%TO.P,U9,18*%
%TO.N,/IO4*%
X184658000Y-71628000D03*
%TO.P,U9,2*%
%TO.N,A16*%
X151638000Y-79248000D03*
%TO.P,U9,17*%
%TO.N,/IO3*%
X187198000Y-71628000D03*
D17*
%TO.P,U9,1*%
%TO.N,Net-(U9-Pad1)*%
X149098000Y-79248000D03*
%TD*%
D16*
%TO.P,U8,16*%
%TO.N,VCC*%
X102616000Y-44450000D03*
%TO.P,U8,8*%
%TO.N,GND*%
X120396000Y-52070000D03*
%TO.P,U8,15*%
%TO.N,RESET*%
X105156000Y-44450000D03*
%TO.P,U8,7*%
%TO.N,CLOCK*%
X117856000Y-52070000D03*
%TO.P,U8,14*%
%TO.N,BUS_00*%
X107696000Y-44450000D03*
%TO.P,U8,6*%
%TO.N,/MAR_11*%
X115316000Y-52070000D03*
%TO.P,U8,13*%
%TO.N,BUS_01*%
X110236000Y-44450000D03*
%TO.P,U8,5*%
%TO.N,/MAR_10*%
X112776000Y-52070000D03*
%TO.P,U8,12*%
%TO.N,BUS_02*%
X112776000Y-44450000D03*
%TO.P,U8,4*%
%TO.N,/MAR_09*%
X110236000Y-52070000D03*
%TO.P,U8,11*%
%TO.N,BUS_03*%
X115316000Y-44450000D03*
%TO.P,U8,3*%
%TO.N,/MAR_08*%
X107696000Y-52070000D03*
%TO.P,U8,10*%
%TO.N,MAR2_IN*%
X117856000Y-44450000D03*
%TO.P,U8,2*%
%TO.N,GND*%
X105156000Y-52070000D03*
%TO.P,U8,9*%
%TO.N,MAR2_IN*%
X120396000Y-44450000D03*
D17*
%TO.P,U8,1*%
%TO.N,GND*%
X102616000Y-52070000D03*
%TD*%
D16*
%TO.P,U7,16*%
%TO.N,VCC*%
X125730000Y-56134000D03*
%TO.P,U7,8*%
%TO.N,GND*%
X143510000Y-63754000D03*
%TO.P,U7,15*%
X128270000Y-56134000D03*
%TO.P,U7,7*%
%TO.N,/A6*%
X140970000Y-63754000D03*
%TO.P,U7,14*%
%TO.N,/MAR_04*%
X130810000Y-56134000D03*
%TO.P,U7,6*%
%TO.N,/MANUAL_MEM_ADR_06*%
X138430000Y-63754000D03*
%TO.P,U7,13*%
%TO.N,/MANUAL_MEM_ADR_04*%
X133350000Y-56134000D03*
%TO.P,U7,5*%
%TO.N,/MAR_06*%
X135890000Y-63754000D03*
%TO.P,U7,12*%
%TO.N,/A4*%
X135890000Y-56134000D03*
%TO.P,U7,4*%
%TO.N,/A7*%
X133350000Y-63754000D03*
%TO.P,U7,11*%
%TO.N,/MAR_05*%
X138430000Y-56134000D03*
%TO.P,U7,3*%
%TO.N,/MANUAL_MEM_ADR_07*%
X130810000Y-63754000D03*
%TO.P,U7,10*%
%TO.N,/MANUAL_MEM_ADR_05*%
X140970000Y-56134000D03*
%TO.P,U7,2*%
%TO.N,/MAR_07*%
X128270000Y-63754000D03*
%TO.P,U7,9*%
%TO.N,/A5*%
X143510000Y-56134000D03*
D17*
%TO.P,U7,1*%
%TO.N,PROGRAM_MODE*%
X125730000Y-63754000D03*
%TD*%
D16*
%TO.P,U6,16*%
%TO.N,VCC*%
X102616000Y-56134000D03*
%TO.P,U6,8*%
%TO.N,GND*%
X120396000Y-63754000D03*
%TO.P,U6,15*%
X105156000Y-56134000D03*
%TO.P,U6,7*%
%TO.N,/A10*%
X117856000Y-63754000D03*
%TO.P,U6,14*%
%TO.N,/MAR_08*%
X107696000Y-56134000D03*
%TO.P,U6,6*%
%TO.N,/MANUAL_MEM_ADR_10*%
X115316000Y-63754000D03*
%TO.P,U6,13*%
%TO.N,/MANUAL_MEM_ADR_08*%
X110236000Y-56134000D03*
%TO.P,U6,5*%
%TO.N,/MAR_10*%
X112776000Y-63754000D03*
%TO.P,U6,12*%
%TO.N,/A8*%
X112776000Y-56134000D03*
%TO.P,U6,4*%
%TO.N,/A11*%
X110236000Y-63754000D03*
%TO.P,U6,11*%
%TO.N,/MAR_09*%
X115316000Y-56134000D03*
%TO.P,U6,3*%
%TO.N,/MANUAL_MEM_ADR_11*%
X107696000Y-63754000D03*
%TO.P,U6,10*%
%TO.N,/MANUAL_MEM_ADR_09*%
X117856000Y-56134000D03*
%TO.P,U6,2*%
%TO.N,/MAR_11*%
X105156000Y-63754000D03*
%TO.P,U6,9*%
%TO.N,/A9*%
X120396000Y-56134000D03*
D17*
%TO.P,U6,1*%
%TO.N,PROGRAM_MODE*%
X102616000Y-63754000D03*
%TD*%
D16*
%TO.P,U5,16*%
%TO.N,VCC*%
X79248000Y-44450000D03*
%TO.P,U5,8*%
%TO.N,GND*%
X97028000Y-52070000D03*
%TO.P,U5,15*%
%TO.N,RESET*%
X81788000Y-44450000D03*
%TO.P,U5,7*%
%TO.N,CLOCK*%
X94488000Y-52070000D03*
%TO.P,U5,14*%
%TO.N,BUS_04*%
X84328000Y-44450000D03*
%TO.P,U5,6*%
%TO.N,/MAR_15*%
X91948000Y-52070000D03*
%TO.P,U5,13*%
%TO.N,BUS_05*%
X86868000Y-44450000D03*
%TO.P,U5,5*%
%TO.N,/MAR_14*%
X89408000Y-52070000D03*
%TO.P,U5,12*%
%TO.N,BUS_06*%
X89408000Y-44450000D03*
%TO.P,U5,4*%
%TO.N,/MAR_13*%
X86868000Y-52070000D03*
%TO.P,U5,11*%
%TO.N,BUS_07*%
X91948000Y-44450000D03*
%TO.P,U5,3*%
%TO.N,/MAR_12*%
X84328000Y-52070000D03*
%TO.P,U5,10*%
%TO.N,MAR2_IN*%
X94488000Y-44450000D03*
%TO.P,U5,2*%
%TO.N,GND*%
X81788000Y-52070000D03*
%TO.P,U5,9*%
%TO.N,MAR2_IN*%
X97028000Y-44450000D03*
D17*
%TO.P,U5,1*%
%TO.N,GND*%
X79248000Y-52070000D03*
%TD*%
D16*
%TO.P,U4,16*%
%TO.N,VCC*%
X149352000Y-56134000D03*
%TO.P,U4,8*%
%TO.N,GND*%
X167132000Y-63754000D03*
%TO.P,U4,15*%
X151892000Y-56134000D03*
%TO.P,U4,7*%
%TO.N,/A2*%
X164592000Y-63754000D03*
%TO.P,U4,14*%
%TO.N,/MAR_00*%
X154432000Y-56134000D03*
%TO.P,U4,6*%
%TO.N,/MANUAL_MEM_ADR_02*%
X162052000Y-63754000D03*
%TO.P,U4,13*%
%TO.N,/MANUAL_MEM_ADR_00*%
X156972000Y-56134000D03*
%TO.P,U4,5*%
%TO.N,/MAR_02*%
X159512000Y-63754000D03*
%TO.P,U4,12*%
%TO.N,/A0*%
X159512000Y-56134000D03*
%TO.P,U4,4*%
%TO.N,/A3*%
X156972000Y-63754000D03*
%TO.P,U4,11*%
%TO.N,/MAR_01*%
X162052000Y-56134000D03*
%TO.P,U4,3*%
%TO.N,/MANUAL_MEM_ADR_03*%
X154432000Y-63754000D03*
%TO.P,U4,10*%
%TO.N,/MANUAL_MEM_ADR_01*%
X164592000Y-56134000D03*
%TO.P,U4,2*%
%TO.N,/MAR_03*%
X151892000Y-63754000D03*
%TO.P,U4,9*%
%TO.N,/A1*%
X167132000Y-56134000D03*
D17*
%TO.P,U4,1*%
%TO.N,PROGRAM_MODE*%
X149352000Y-63754000D03*
%TD*%
D16*
%TO.P,U3,16*%
%TO.N,VCC*%
X79502000Y-56134000D03*
%TO.P,U3,8*%
%TO.N,GND*%
X97282000Y-63754000D03*
%TO.P,U3,15*%
X82042000Y-56134000D03*
%TO.P,U3,7*%
%TO.N,/A14*%
X94742000Y-63754000D03*
%TO.P,U3,14*%
%TO.N,/MAR_12*%
X84582000Y-56134000D03*
%TO.P,U3,6*%
%TO.N,/MANUAL_MEM_ADR_14*%
X92202000Y-63754000D03*
%TO.P,U3,13*%
%TO.N,/MANUAL_MEM_ADR_12*%
X87122000Y-56134000D03*
%TO.P,U3,5*%
%TO.N,/MAR_14*%
X89662000Y-63754000D03*
%TO.P,U3,12*%
%TO.N,/A12*%
X89662000Y-56134000D03*
%TO.P,U3,4*%
%TO.N,/A15*%
X87122000Y-63754000D03*
%TO.P,U3,11*%
%TO.N,/MAR_13*%
X92202000Y-56134000D03*
%TO.P,U3,3*%
%TO.N,/MANUAL_MEM_ADR_15*%
X84582000Y-63754000D03*
%TO.P,U3,10*%
%TO.N,/MANUAL_MEM_ADR_13*%
X94742000Y-56134000D03*
%TO.P,U3,2*%
%TO.N,/MAR_15*%
X82042000Y-63754000D03*
%TO.P,U3,9*%
%TO.N,/A13*%
X97282000Y-56134000D03*
D17*
%TO.P,U3,1*%
%TO.N,PROGRAM_MODE*%
X79502000Y-63754000D03*
%TD*%
D16*
%TO.P,SW5,16*%
%TO.N,/MANUAL_DATA_00*%
X239810000Y-98580000D03*
%TO.P,SW5,8*%
%TO.N,Net-(RN9-Pad2)*%
X222030000Y-90960000D03*
%TO.P,SW5,15*%
%TO.N,/MANUAL_DATA_01*%
X237270000Y-98580000D03*
%TO.P,SW5,7*%
%TO.N,Net-(RN9-Pad3)*%
X224570000Y-90960000D03*
%TO.P,SW5,14*%
%TO.N,/MANUAL_DATA_02*%
X234730000Y-98580000D03*
%TO.P,SW5,6*%
%TO.N,Net-(RN9-Pad4)*%
X227110000Y-90960000D03*
%TO.P,SW5,13*%
%TO.N,/MANUAL_DATA_03*%
X232190000Y-98580000D03*
%TO.P,SW5,5*%
%TO.N,Net-(RN9-Pad5)*%
X229650000Y-90960000D03*
%TO.P,SW5,12*%
%TO.N,/MANUAL_DATA_04*%
X229650000Y-98580000D03*
%TO.P,SW5,4*%
%TO.N,Net-(RN9-Pad6)*%
X232190000Y-90960000D03*
%TO.P,SW5,11*%
%TO.N,/MANUAL_DATA_05*%
X227110000Y-98580000D03*
%TO.P,SW5,3*%
%TO.N,Net-(RN9-Pad7)*%
X234730000Y-90960000D03*
%TO.P,SW5,10*%
%TO.N,/MANUAL_DATA_06*%
X224570000Y-98580000D03*
%TO.P,SW5,2*%
%TO.N,Net-(RN9-Pad8)*%
X237270000Y-90960000D03*
%TO.P,SW5,9*%
%TO.N,/MANUAL_DATA_07*%
X222030000Y-98580000D03*
D17*
%TO.P,SW5,1*%
%TO.N,Net-(RN9-Pad9)*%
X239810000Y-90960000D03*
%TD*%
D16*
%TO.P,SW4,16*%
%TO.N,/MANUAL_MEM_ADR_00*%
X120396000Y-98552000D03*
%TO.P,SW4,8*%
%TO.N,Net-(RN7-Pad2)*%
X102616000Y-90932000D03*
%TO.P,SW4,15*%
%TO.N,/MANUAL_MEM_ADR_01*%
X117856000Y-98552000D03*
%TO.P,SW4,7*%
%TO.N,Net-(RN7-Pad3)*%
X105156000Y-90932000D03*
%TO.P,SW4,14*%
%TO.N,/MANUAL_MEM_ADR_02*%
X115316000Y-98552000D03*
%TO.P,SW4,6*%
%TO.N,Net-(RN7-Pad4)*%
X107696000Y-90932000D03*
%TO.P,SW4,13*%
%TO.N,/MANUAL_MEM_ADR_03*%
X112776000Y-98552000D03*
%TO.P,SW4,5*%
%TO.N,Net-(RN7-Pad5)*%
X110236000Y-90932000D03*
%TO.P,SW4,12*%
%TO.N,/MANUAL_MEM_ADR_04*%
X110236000Y-98552000D03*
%TO.P,SW4,4*%
%TO.N,Net-(RN7-Pad6)*%
X112776000Y-90932000D03*
%TO.P,SW4,11*%
%TO.N,/MANUAL_MEM_ADR_05*%
X107696000Y-98552000D03*
%TO.P,SW4,3*%
%TO.N,Net-(RN7-Pad7)*%
X115316000Y-90932000D03*
%TO.P,SW4,10*%
%TO.N,/MANUAL_MEM_ADR_06*%
X105156000Y-98552000D03*
%TO.P,SW4,2*%
%TO.N,Net-(RN7-Pad8)*%
X117856000Y-90932000D03*
%TO.P,SW4,9*%
%TO.N,/MANUAL_MEM_ADR_07*%
X102616000Y-98552000D03*
D17*
%TO.P,SW4,1*%
%TO.N,Net-(RN7-Pad9)*%
X120396000Y-90932000D03*
%TD*%
D16*
%TO.P,SW3,16*%
%TO.N,/MANUAL_MEM_ADR_08*%
X96774000Y-98590000D03*
%TO.P,SW3,8*%
%TO.N,Net-(RN5-Pad2)*%
X78994000Y-90970000D03*
%TO.P,SW3,15*%
%TO.N,/MANUAL_MEM_ADR_09*%
X94234000Y-98590000D03*
%TO.P,SW3,7*%
%TO.N,Net-(RN5-Pad3)*%
X81534000Y-90970000D03*
%TO.P,SW3,14*%
%TO.N,/MANUAL_MEM_ADR_10*%
X91694000Y-98590000D03*
%TO.P,SW3,6*%
%TO.N,Net-(RN5-Pad4)*%
X84074000Y-90970000D03*
%TO.P,SW3,13*%
%TO.N,/MANUAL_MEM_ADR_11*%
X89154000Y-98590000D03*
%TO.P,SW3,5*%
%TO.N,Net-(RN5-Pad5)*%
X86614000Y-90970000D03*
%TO.P,SW3,12*%
%TO.N,/MANUAL_MEM_ADR_12*%
X86614000Y-98590000D03*
%TO.P,SW3,4*%
%TO.N,Net-(RN5-Pad6)*%
X89154000Y-90970000D03*
%TO.P,SW3,11*%
%TO.N,/MANUAL_MEM_ADR_13*%
X84074000Y-98590000D03*
%TO.P,SW3,3*%
%TO.N,Net-(RN5-Pad7)*%
X91694000Y-90970000D03*
%TO.P,SW3,10*%
%TO.N,/MANUAL_MEM_ADR_14*%
X81534000Y-98590000D03*
%TO.P,SW3,2*%
%TO.N,Net-(RN5-Pad8)*%
X94234000Y-90970000D03*
%TO.P,SW3,9*%
%TO.N,/MANUAL_MEM_ADR_15*%
X78994000Y-98590000D03*
D17*
%TO.P,SW3,1*%
%TO.N,Net-(RN5-Pad9)*%
X96774000Y-90970000D03*
%TD*%
D20*
%TO.P,SW2,1*%
%TO.N,WRITE_ENABLE*%
X84986000Y-72898000D03*
%TO.P,SW2,2*%
%TO.N,VCC*%
X84986000Y-77398000D03*
%TO.P,SW2,1*%
%TO.N,WRITE_ENABLE*%
X78486000Y-72898000D03*
%TO.P,SW2,2*%
%TO.N,VCC*%
X78486000Y-77398000D03*
%TD*%
D16*
%TO.P,RN9,9*%
%TO.N,Net-(RN9-Pad9)*%
X241046000Y-86614000D03*
%TO.P,RN9,8*%
%TO.N,Net-(RN9-Pad8)*%
X238506000Y-86614000D03*
%TO.P,RN9,7*%
%TO.N,Net-(RN9-Pad7)*%
X235966000Y-86614000D03*
%TO.P,RN9,6*%
%TO.N,Net-(RN9-Pad6)*%
X233426000Y-86614000D03*
%TO.P,RN9,5*%
%TO.N,Net-(RN9-Pad5)*%
X230886000Y-86614000D03*
%TO.P,RN9,4*%
%TO.N,Net-(RN9-Pad4)*%
X228346000Y-86614000D03*
%TO.P,RN9,3*%
%TO.N,Net-(RN9-Pad3)*%
X225806000Y-86614000D03*
%TO.P,RN9,2*%
%TO.N,Net-(RN9-Pad2)*%
X223266000Y-86614000D03*
D17*
%TO.P,RN9,1*%
%TO.N,VCC*%
X220726000Y-86614000D03*
%TD*%
D16*
%TO.P,RN8,9*%
%TO.N,/MANUAL_DATA_07*%
X220726000Y-102870000D03*
%TO.P,RN8,8*%
%TO.N,/MANUAL_DATA_06*%
X223266000Y-102870000D03*
%TO.P,RN8,7*%
%TO.N,/MANUAL_DATA_05*%
X225806000Y-102870000D03*
%TO.P,RN8,6*%
%TO.N,/MANUAL_DATA_04*%
X228346000Y-102870000D03*
%TO.P,RN8,5*%
%TO.N,/MANUAL_DATA_03*%
X230886000Y-102870000D03*
%TO.P,RN8,4*%
%TO.N,/MANUAL_DATA_02*%
X233426000Y-102870000D03*
%TO.P,RN8,3*%
%TO.N,/MANUAL_DATA_01*%
X235966000Y-102870000D03*
%TO.P,RN8,2*%
%TO.N,/MANUAL_DATA_00*%
X238506000Y-102870000D03*
D17*
%TO.P,RN8,1*%
%TO.N,GND*%
X241046000Y-102870000D03*
%TD*%
D16*
%TO.P,RN7,9*%
%TO.N,Net-(RN7-Pad9)*%
X121920000Y-86614000D03*
%TO.P,RN7,8*%
%TO.N,Net-(RN7-Pad8)*%
X119380000Y-86614000D03*
%TO.P,RN7,7*%
%TO.N,Net-(RN7-Pad7)*%
X116840000Y-86614000D03*
%TO.P,RN7,6*%
%TO.N,Net-(RN7-Pad6)*%
X114300000Y-86614000D03*
%TO.P,RN7,5*%
%TO.N,Net-(RN7-Pad5)*%
X111760000Y-86614000D03*
%TO.P,RN7,4*%
%TO.N,Net-(RN7-Pad4)*%
X109220000Y-86614000D03*
%TO.P,RN7,3*%
%TO.N,Net-(RN7-Pad3)*%
X106680000Y-86614000D03*
%TO.P,RN7,2*%
%TO.N,Net-(RN7-Pad2)*%
X104140000Y-86614000D03*
D17*
%TO.P,RN7,1*%
%TO.N,VCC*%
X101600000Y-86614000D03*
%TD*%
D16*
%TO.P,RN6,9*%
%TO.N,/MANUAL_MEM_ADR_07*%
X101600000Y-102616000D03*
%TO.P,RN6,8*%
%TO.N,/MANUAL_MEM_ADR_06*%
X104140000Y-102616000D03*
%TO.P,RN6,7*%
%TO.N,/MANUAL_MEM_ADR_05*%
X106680000Y-102616000D03*
%TO.P,RN6,6*%
%TO.N,/MANUAL_MEM_ADR_04*%
X109220000Y-102616000D03*
%TO.P,RN6,5*%
%TO.N,/MANUAL_MEM_ADR_03*%
X111760000Y-102616000D03*
%TO.P,RN6,4*%
%TO.N,/MANUAL_MEM_ADR_02*%
X114300000Y-102616000D03*
%TO.P,RN6,3*%
%TO.N,/MANUAL_MEM_ADR_01*%
X116840000Y-102616000D03*
%TO.P,RN6,2*%
%TO.N,/MANUAL_MEM_ADR_00*%
X119380000Y-102616000D03*
D17*
%TO.P,RN6,1*%
%TO.N,GND*%
X121920000Y-102616000D03*
%TD*%
D16*
%TO.P,RN5,9*%
%TO.N,Net-(RN5-Pad9)*%
X97790000Y-86614000D03*
%TO.P,RN5,8*%
%TO.N,Net-(RN5-Pad8)*%
X95250000Y-86614000D03*
%TO.P,RN5,7*%
%TO.N,Net-(RN5-Pad7)*%
X92710000Y-86614000D03*
%TO.P,RN5,6*%
%TO.N,Net-(RN5-Pad6)*%
X90170000Y-86614000D03*
%TO.P,RN5,5*%
%TO.N,Net-(RN5-Pad5)*%
X87630000Y-86614000D03*
%TO.P,RN5,4*%
%TO.N,Net-(RN5-Pad4)*%
X85090000Y-86614000D03*
%TO.P,RN5,3*%
%TO.N,Net-(RN5-Pad3)*%
X82550000Y-86614000D03*
%TO.P,RN5,2*%
%TO.N,Net-(RN5-Pad2)*%
X80010000Y-86614000D03*
D17*
%TO.P,RN5,1*%
%TO.N,VCC*%
X77470000Y-86614000D03*
%TD*%
D16*
%TO.P,RN4,9*%
%TO.N,/MANUAL_MEM_ADR_15*%
X77470000Y-102616000D03*
%TO.P,RN4,8*%
%TO.N,/MANUAL_MEM_ADR_14*%
X80010000Y-102616000D03*
%TO.P,RN4,7*%
%TO.N,/MANUAL_MEM_ADR_13*%
X82550000Y-102616000D03*
%TO.P,RN4,6*%
%TO.N,/MANUAL_MEM_ADR_12*%
X85090000Y-102616000D03*
%TO.P,RN4,5*%
%TO.N,/MANUAL_MEM_ADR_11*%
X87630000Y-102616000D03*
%TO.P,RN4,4*%
%TO.N,/MANUAL_MEM_ADR_10*%
X90170000Y-102616000D03*
%TO.P,RN4,3*%
%TO.N,/MANUAL_MEM_ADR_09*%
X92710000Y-102616000D03*
%TO.P,RN4,2*%
%TO.N,/MANUAL_MEM_ADR_08*%
X95250000Y-102616000D03*
D17*
%TO.P,RN4,1*%
%TO.N,GND*%
X97790000Y-102616000D03*
%TD*%
D16*
%TO.P,RN3,9*%
%TO.N,Net-(BAR2-Pad13)*%
X155702000Y-103124000D03*
%TO.P,RN3,8*%
%TO.N,Net-(BAR2-Pad14)*%
X158242000Y-103124000D03*
%TO.P,RN3,7*%
%TO.N,Net-(BAR2-Pad15)*%
X160782000Y-103124000D03*
%TO.P,RN3,6*%
%TO.N,Net-(BAR2-Pad16)*%
X163322000Y-103124000D03*
%TO.P,RN3,5*%
%TO.N,Net-(BAR2-Pad17)*%
X165862000Y-103124000D03*
%TO.P,RN3,4*%
%TO.N,Net-(BAR2-Pad18)*%
X168402000Y-103124000D03*
%TO.P,RN3,3*%
%TO.N,Net-(BAR2-Pad19)*%
X170942000Y-103124000D03*
%TO.P,RN3,2*%
%TO.N,Net-(BAR2-Pad20)*%
X173482000Y-103124000D03*
D17*
%TO.P,RN3,1*%
%TO.N,GND*%
X176022000Y-103124000D03*
%TD*%
D16*
%TO.P,RN2,9*%
%TO.N,Net-(D1-Pad1)*%
X213614000Y-81026000D03*
%TO.P,RN2,8*%
%TO.N,Net-(D2-Pad1)*%
X216154000Y-81026000D03*
%TO.P,RN2,7*%
%TO.N,Net-(D3-Pad1)*%
X218694000Y-81026000D03*
%TO.P,RN2,6*%
%TO.N,Net-(D4-Pad1)*%
X221234000Y-81026000D03*
%TO.P,RN2,5*%
%TO.N,Net-(D5-Pad1)*%
X223774000Y-81026000D03*
%TO.P,RN2,4*%
%TO.N,Net-(D6-Pad1)*%
X226314000Y-81026000D03*
%TO.P,RN2,3*%
%TO.N,Net-(D7-Pad1)*%
X228854000Y-81026000D03*
%TO.P,RN2,2*%
%TO.N,Net-(D8-Pad1)*%
X231394000Y-81026000D03*
D17*
%TO.P,RN2,1*%
%TO.N,GND*%
X233934000Y-81026000D03*
%TD*%
D16*
%TO.P,RN1,9*%
%TO.N,Net-(BAR1-Pad15)*%
X131064000Y-103124000D03*
%TO.P,RN1,8*%
%TO.N,Net-(BAR1-Pad16)*%
X133604000Y-103124000D03*
%TO.P,RN1,7*%
%TO.N,Net-(BAR1-Pad17)*%
X136144000Y-103124000D03*
%TO.P,RN1,6*%
%TO.N,Net-(BAR1-Pad18)*%
X138684000Y-103124000D03*
%TO.P,RN1,5*%
%TO.N,Net-(BAR1-Pad19)*%
X141224000Y-103124000D03*
%TO.P,RN1,4*%
%TO.N,Net-(BAR1-Pad20)*%
X143764000Y-103124000D03*
%TO.P,RN1,3*%
%TO.N,Net-(BAR2-Pad11)*%
X146304000Y-103124000D03*
%TO.P,RN1,2*%
%TO.N,Net-(BAR2-Pad12)*%
X148844000Y-103124000D03*
D17*
%TO.P,RN1,1*%
%TO.N,GND*%
X151384000Y-103124000D03*
%TD*%
D16*
%TO.P,R3,2*%
%TO.N,Net-(R3-Pad2)*%
X90424000Y-70612000D03*
D21*
%TO.P,R3,1*%
%TO.N,GND*%
X90424000Y-80772000D03*
%TD*%
D16*
%TO.P,R2,2*%
%TO.N,GND*%
X73914000Y-80518000D03*
D21*
%TO.P,R2,1*%
%TO.N,WRITE_ENABLE*%
X73914000Y-70358000D03*
%TD*%
D16*
%TO.P,R1,2*%
%TO.N,GND*%
X122682000Y-106934000D03*
D21*
%TO.P,R1,1*%
%TO.N,Net-(BAR1-Pad11)*%
X132842000Y-106934000D03*
%TD*%
D10*
%TO.P,J6,16*%
%TO.N,/MANUAL_MEM_ADR_15*%
X80772000Y-106934000D03*
%TO.P,J6,15*%
%TO.N,/MANUAL_MEM_ADR_14*%
X83312000Y-106934000D03*
%TO.P,J6,14*%
%TO.N,/MANUAL_MEM_ADR_13*%
X85852000Y-106934000D03*
%TO.P,J6,13*%
%TO.N,/MANUAL_MEM_ADR_12*%
X88392000Y-106934000D03*
%TO.P,J6,12*%
%TO.N,/MANUAL_MEM_ADR_11*%
X90932000Y-106934000D03*
%TO.P,J6,11*%
%TO.N,/MANUAL_MEM_ADR_10*%
X93472000Y-106934000D03*
%TO.P,J6,10*%
%TO.N,/MANUAL_MEM_ADR_09*%
X96012000Y-106934000D03*
%TO.P,J6,9*%
%TO.N,/MANUAL_MEM_ADR_08*%
X98552000Y-106934000D03*
%TO.P,J6,8*%
%TO.N,/MANUAL_MEM_ADR_07*%
X101092000Y-106934000D03*
%TO.P,J6,7*%
%TO.N,/MANUAL_MEM_ADR_06*%
X103632000Y-106934000D03*
%TO.P,J6,6*%
%TO.N,/MANUAL_MEM_ADR_05*%
X106172000Y-106934000D03*
%TO.P,J6,5*%
%TO.N,/MANUAL_MEM_ADR_04*%
X108712000Y-106934000D03*
%TO.P,J6,4*%
%TO.N,/MANUAL_MEM_ADR_03*%
X111252000Y-106934000D03*
%TO.P,J6,3*%
%TO.N,/MANUAL_MEM_ADR_02*%
X113792000Y-106934000D03*
%TO.P,J6,2*%
%TO.N,/MANUAL_MEM_ADR_01*%
X116332000Y-106934000D03*
D11*
%TO.P,J6,1*%
%TO.N,/MANUAL_MEM_ADR_00*%
X118872000Y-106934000D03*
%TD*%
D22*
%TO.P,J5,2*%
%TO.N,VCC*%
X250698000Y-94568000D03*
D23*
%TO.P,J5,1*%
%TO.N,GND*%
X250698000Y-99568000D03*
%TD*%
D10*
%TO.P,J4,2*%
%TO.N,VCC*%
X214630000Y-107696000D03*
D11*
%TO.P,J4,1*%
%TO.N,GND*%
X212090000Y-107696000D03*
%TD*%
D10*
%TO.P,J2,8*%
%TO.N,BUS_00*%
X251460000Y-62992000D03*
%TO.P,J2,7*%
%TO.N,BUS_01*%
X251460000Y-60452000D03*
%TO.P,J2,6*%
%TO.N,BUS_02*%
X251460000Y-57912000D03*
%TO.P,J2,5*%
%TO.N,BUS_03*%
X251460000Y-55372000D03*
%TO.P,J2,4*%
%TO.N,BUS_04*%
X251460000Y-52832000D03*
%TO.P,J2,3*%
%TO.N,BUS_05*%
X251460000Y-50292000D03*
%TO.P,J2,2*%
%TO.N,BUS_06*%
X251460000Y-47752000D03*
D11*
%TO.P,J2,1*%
%TO.N,BUS_07*%
X251460000Y-45212000D03*
%TD*%
D10*
%TO.P,J1,8*%
%TO.N,/MANUAL_DATA_07*%
X222250000Y-107696000D03*
%TO.P,J1,7*%
%TO.N,/MANUAL_DATA_06*%
X224790000Y-107696000D03*
%TO.P,J1,6*%
%TO.N,/MANUAL_DATA_05*%
X227330000Y-107696000D03*
%TO.P,J1,5*%
%TO.N,/MANUAL_DATA_04*%
X229870000Y-107696000D03*
%TO.P,J1,4*%
%TO.N,/MANUAL_DATA_03*%
X232410000Y-107696000D03*
%TO.P,J1,3*%
%TO.N,/MANUAL_DATA_02*%
X234950000Y-107696000D03*
%TO.P,J1,2*%
%TO.N,/MANUAL_DATA_01*%
X237490000Y-107696000D03*
D11*
%TO.P,J1,1*%
%TO.N,/MANUAL_DATA_00*%
X240030000Y-107696000D03*
%TD*%
D14*
%TO.P,D8,2*%
%TO.N,/IO0*%
X246888000Y-74168000D03*
D15*
%TO.P,D8,1*%
%TO.N,Net-(D8-Pad1)*%
X246888000Y-76708000D03*
%TD*%
D14*
%TO.P,D7,2*%
%TO.N,/IO1*%
X240284000Y-74168000D03*
D15*
%TO.P,D7,1*%
%TO.N,Net-(D7-Pad1)*%
X240284000Y-76708000D03*
%TD*%
D14*
%TO.P,D6,2*%
%TO.N,/IO2*%
X233680000Y-74168000D03*
D15*
%TO.P,D6,1*%
%TO.N,Net-(D6-Pad1)*%
X233680000Y-76708000D03*
%TD*%
D14*
%TO.P,D5,2*%
%TO.N,/IO3*%
X227076000Y-74168000D03*
D15*
%TO.P,D5,1*%
%TO.N,Net-(D5-Pad1)*%
X227076000Y-76708000D03*
%TD*%
D14*
%TO.P,D4,2*%
%TO.N,/IO4*%
X220472000Y-74168000D03*
D15*
%TO.P,D4,1*%
%TO.N,Net-(D4-Pad1)*%
X220472000Y-76708000D03*
%TD*%
D14*
%TO.P,D3,2*%
%TO.N,/IO5*%
X213868000Y-74168000D03*
D15*
%TO.P,D3,1*%
%TO.N,Net-(D3-Pad1)*%
X213868000Y-76708000D03*
%TD*%
D14*
%TO.P,D2,2*%
%TO.N,/IO6*%
X207264000Y-74168000D03*
D15*
%TO.P,D2,1*%
%TO.N,Net-(D2-Pad1)*%
X207264000Y-76708000D03*
%TD*%
D21*
%TO.P,C5,2*%
%TO.N,GND*%
X145582000Y-38100000D03*
D17*
%TO.P,C5,1*%
%TO.N,VCC*%
X148082000Y-38100000D03*
%TD*%
D21*
%TO.P,C4,2*%
%TO.N,GND*%
X192318000Y-38100000D03*
D17*
%TO.P,C4,1*%
%TO.N,VCC*%
X194818000Y-38100000D03*
%TD*%
D21*
%TO.P,C3,2*%
%TO.N,GND*%
X142280000Y-72136000D03*
D17*
%TO.P,C3,1*%
%TO.N,VCC*%
X144780000Y-72136000D03*
%TD*%
D21*
%TO.P,C2,2*%
%TO.N,GND*%
X211876000Y-88138000D03*
D17*
%TO.P,C2,1*%
%TO.N,VCC*%
X214376000Y-88138000D03*
%TD*%
D21*
%TO.P,C1,2*%
%TO.N,GND*%
X98592000Y-38100000D03*
D17*
%TO.P,C1,1*%
%TO.N,VCC*%
X101092000Y-38100000D03*
%TD*%
D18*
%TO.P,BAR2,20*%
%TO.N,Net-(BAR2-Pad20)*%
X177038000Y-98552000D03*
%TO.P,BAR2,19*%
%TO.N,Net-(BAR2-Pad19)*%
X174498000Y-98552000D03*
%TO.P,BAR2,18*%
%TO.N,Net-(BAR2-Pad18)*%
X171958000Y-98552000D03*
%TO.P,BAR2,17*%
%TO.N,Net-(BAR2-Pad17)*%
X169418000Y-98552000D03*
%TO.P,BAR2,9*%
%TO.N,/A8*%
X156718000Y-90932000D03*
%TO.P,BAR2,10*%
%TO.N,/A9*%
X154178000Y-90932000D03*
%TO.P,BAR2,11*%
%TO.N,Net-(BAR2-Pad11)*%
X154178000Y-98552000D03*
%TO.P,BAR2,12*%
%TO.N,Net-(BAR2-Pad12)*%
X156718000Y-98552000D03*
%TO.P,BAR2,8*%
%TO.N,/A7*%
X159258000Y-90932000D03*
%TO.P,BAR2,7*%
%TO.N,/A6*%
X161798000Y-90932000D03*
%TO.P,BAR2,6*%
%TO.N,/A5*%
X164338000Y-90932000D03*
%TO.P,BAR2,5*%
%TO.N,/A4*%
X166878000Y-90932000D03*
%TO.P,BAR2,16*%
%TO.N,Net-(BAR2-Pad16)*%
X166878000Y-98552000D03*
%TO.P,BAR2,15*%
%TO.N,Net-(BAR2-Pad15)*%
X164338000Y-98552000D03*
%TO.P,BAR2,14*%
%TO.N,Net-(BAR2-Pad14)*%
X161798000Y-98552000D03*
%TO.P,BAR2,13*%
%TO.N,Net-(BAR2-Pad13)*%
X159258000Y-98552000D03*
%TO.P,BAR2,4*%
%TO.N,/A3*%
X169418000Y-90932000D03*
%TO.P,BAR2,3*%
%TO.N,/A2*%
X171958000Y-90932000D03*
%TO.P,BAR2,2*%
%TO.N,/A1*%
X174498000Y-90932000D03*
D19*
%TO.P,BAR2,1*%
%TO.N,/A0*%
X177038000Y-90932000D03*
%TD*%
D18*
%TO.P,BAR1,20*%
%TO.N,Net-(BAR1-Pad20)*%
X150368000Y-98552000D03*
%TO.P,BAR1,19*%
%TO.N,Net-(BAR1-Pad19)*%
X147828000Y-98552000D03*
%TO.P,BAR1,18*%
%TO.N,Net-(BAR1-Pad18)*%
X145288000Y-98552000D03*
%TO.P,BAR1,17*%
%TO.N,Net-(BAR1-Pad17)*%
X142748000Y-98552000D03*
%TO.P,BAR1,9*%
%TO.N,Net-(BAR1-Pad9)*%
X130048000Y-90932000D03*
%TO.P,BAR1,10*%
%TO.N,A16*%
X127508000Y-90932000D03*
%TO.P,BAR1,11*%
%TO.N,Net-(BAR1-Pad11)*%
X127508000Y-98552000D03*
%TO.P,BAR1,12*%
%TO.N,Net-(BAR1-Pad12)*%
X130048000Y-98552000D03*
%TO.P,BAR1,8*%
%TO.N,Net-(BAR1-Pad8)*%
X132588000Y-90932000D03*
%TO.P,BAR1,7*%
%TO.N,Net-(BAR1-Pad7)*%
X135128000Y-90932000D03*
%TO.P,BAR1,6*%
%TO.N,/A15*%
X137668000Y-90932000D03*
%TO.P,BAR1,5*%
%TO.N,/A14*%
X140208000Y-90932000D03*
%TO.P,BAR1,16*%
%TO.N,Net-(BAR1-Pad16)*%
X140208000Y-98552000D03*
%TO.P,BAR1,15*%
%TO.N,Net-(BAR1-Pad15)*%
X137668000Y-98552000D03*
%TO.P,BAR1,14*%
%TO.N,Net-(BAR1-Pad14)*%
X135128000Y-98552000D03*
%TO.P,BAR1,13*%
%TO.N,Net-(BAR1-Pad13)*%
X132588000Y-98552000D03*
%TO.P,BAR1,4*%
%TO.N,/A13*%
X142748000Y-90932000D03*
%TO.P,BAR1,3*%
%TO.N,/A12*%
X145288000Y-90932000D03*
%TO.P,BAR1,2*%
%TO.N,/A11*%
X147828000Y-90932000D03*
D19*
%TO.P,BAR1,1*%
%TO.N,/A10*%
X150368000Y-90932000D03*
%TD*%
D24*
%TO.N,WRITE_ENABLE*%
X88900000Y-75184000D03*
%TO.N,D0*%
X211836000Y-61722000D03*
%TO.N,OUTPUT_ENABLE*%
X218694000Y-42418000D03*
%TO.N,PROGRAM_MODE*%
X87376000Y-66294000D03*
X151384000Y-58674000D03*
%TO.N,Net-(U1-Pad3)*%
X151892000Y-77216000D03*
X189992000Y-82550000D03*
%TO.N,/MANUAL_DATA_07*%
X179324000Y-82296000D03*
%TO.N,/MANUAL_DATA_06*%
X185674000Y-82550000D03*
%TO.N,/MANUAL_DATA_04*%
X191025608Y-75240903D03*
%TO.N,/MANUAL_DATA_01*%
X192278000Y-71628000D03*
X192024000Y-75184000D03*
%TO.N,/MANUAL_DATA_02*%
X195019555Y-75187163D03*
%TO.N,/MANUAL_DATA_03*%
X194019730Y-75167827D03*
%TO.N,/MANUAL_DATA_00*%
X193022392Y-75240903D03*
X198163041Y-84328000D03*
%TO.N,/A14*%
X152146000Y-69850000D03*
%TO.N,/A13*%
X155956000Y-68326000D03*
%TO.N,/A12*%
X153924000Y-68580000D03*
%TO.N,/A8*%
X140716000Y-69088000D03*
X115824000Y-69088000D03*
X114046000Y-65278000D03*
%TO.N,/A9*%
X162560000Y-67310000D03*
%TD*%
D25*
%TO.N,Net-(BAR1-Pad20)*%
X145288000Y-101600000D02*
X147320000Y-101600000D01*
X143764000Y-103124000D02*
X145288000Y-101600000D01*
X147320000Y-101600000D02*
X150368000Y-98552000D01*
%TO.N,Net-(BAR1-Pad19)*%
X147828000Y-98741795D02*
X147828000Y-98552000D01*
X145419806Y-101149989D02*
X147828000Y-98741795D01*
X143198011Y-101149989D02*
X145419806Y-101149989D01*
X141224000Y-103124000D02*
X143198011Y-101149989D01*
%TO.N,Net-(BAR1-Pad18)*%
X138684000Y-103124000D02*
X138812410Y-103124000D01*
X138812410Y-103124000D02*
X141352410Y-100584000D01*
X141352410Y-100584000D02*
X143256000Y-100584000D01*
X143256000Y-100584000D02*
X145288000Y-98552000D01*
%TO.N,Net-(BAR1-Pad17)*%
X140208000Y-101092000D02*
X142748000Y-98552000D01*
X136523589Y-103124000D02*
X138555589Y-101092000D01*
X136144000Y-103124000D02*
X136523589Y-103124000D01*
X138555589Y-101092000D02*
X140208000Y-101092000D01*
%TO.N,Net-(BAR1-Pad11)*%
X127508000Y-101600000D02*
X132842000Y-106934000D01*
X127508000Y-98552000D02*
X127508000Y-101600000D01*
%TO.N,/MAR_15*%
X83202999Y-51529999D02*
X83202999Y-59799001D01*
X83787999Y-50944999D02*
X83202999Y-51529999D01*
X90822999Y-50944999D02*
X83787999Y-50944999D01*
X91948000Y-52070000D02*
X90822999Y-50944999D01*
X82042000Y-60960000D02*
X82042000Y-63754000D01*
X83202999Y-59799001D02*
X82042000Y-60960000D01*
%TO.N,Net-(BAR1-Pad16)*%
X133604000Y-103124000D02*
X135636000Y-101092000D01*
X137668000Y-101092000D02*
X140208000Y-98552000D01*
X135636000Y-101092000D02*
X137668000Y-101092000D01*
%TO.N,Net-(BAR1-Pad15)*%
X131064000Y-103124000D02*
X133858000Y-100330000D01*
X135890000Y-100330000D02*
X137668000Y-98552000D01*
X133858000Y-100330000D02*
X135890000Y-100330000D01*
%TO.N,/MAR_13*%
X86868000Y-52070000D02*
X86868000Y-53086000D01*
X86868000Y-53086000D02*
X87630000Y-53848000D01*
X87630000Y-53848000D02*
X91186000Y-53848000D01*
X92202000Y-54864000D02*
X92202000Y-56134000D01*
X91186000Y-53848000D02*
X92202000Y-54864000D01*
%TO.N,/MAR_12*%
X84328000Y-55880000D02*
X84582000Y-56134000D01*
X84328000Y-52070000D02*
X84328000Y-55880000D01*
%TO.N,/MAR_11*%
X115316000Y-52070000D02*
X113538000Y-50292000D01*
X106570999Y-51529999D02*
X106570999Y-59037001D01*
X107808998Y-50292000D02*
X106570999Y-51529999D01*
X113538000Y-50292000D02*
X107808998Y-50292000D01*
X105156000Y-60452000D02*
X105156000Y-63754000D01*
X106570999Y-59037001D02*
X105156000Y-60452000D01*
%TO.N,Net-(BAR2-Pad20)*%
X177038000Y-99568000D02*
X177038000Y-98552000D01*
X173482000Y-103124000D02*
X177038000Y-99568000D01*
%TO.N,Net-(BAR2-Pad19)*%
X174498000Y-99568000D02*
X174498000Y-98552000D01*
X170942000Y-103124000D02*
X174498000Y-99568000D01*
%TO.N,Net-(BAR2-Pad18)*%
X171958000Y-99568000D02*
X171958000Y-98552000D01*
X168402000Y-103124000D02*
X171958000Y-99568000D01*
%TO.N,Net-(BAR2-Pad17)*%
X169418000Y-99568000D02*
X169418000Y-98552000D01*
X165862000Y-103124000D02*
X169418000Y-99568000D01*
%TO.N,/MAR_08*%
X107696000Y-52070000D02*
X107696000Y-56134000D01*
%TO.N,/MAR_09*%
X113538000Y-54356000D02*
X115316000Y-56134000D01*
X112522000Y-54356000D02*
X113538000Y-54356000D01*
X110236000Y-52070000D02*
X112522000Y-54356000D01*
%TO.N,Net-(BAR2-Pad11)*%
X146304000Y-103124000D02*
X146558000Y-103124000D01*
X146558000Y-103124000D02*
X149352000Y-100330000D01*
X152400000Y-100330000D02*
X154178000Y-98552000D01*
X149352000Y-100330000D02*
X152400000Y-100330000D01*
%TO.N,Net-(BAR2-Pad12)*%
X148844000Y-103124000D02*
X148844000Y-101854000D01*
X148844000Y-101854000D02*
X149606000Y-101092000D01*
X154178000Y-101092000D02*
X156718000Y-98552000D01*
X149606000Y-101092000D02*
X154178000Y-101092000D01*
%TO.N,/MAR_07*%
X138684000Y-52070000D02*
X137160000Y-50546000D01*
X129649001Y-51819997D02*
X129649001Y-59326999D01*
X130922998Y-50546000D02*
X129649001Y-51819997D01*
X137160000Y-50546000D02*
X130922998Y-50546000D01*
X128270000Y-60706000D02*
X128270000Y-63754000D01*
X129649001Y-59326999D02*
X128270000Y-60706000D01*
%TO.N,/MAR_05*%
X133604000Y-52070000D02*
X133604000Y-53340000D01*
X135636000Y-53340000D02*
X138430000Y-56134000D01*
X133604000Y-53340000D02*
X135636000Y-53340000D01*
%TO.N,/MAR_04*%
X131064000Y-55880000D02*
X130810000Y-56134000D01*
X131064000Y-52070000D02*
X131064000Y-55880000D01*
%TO.N,Net-(BAR2-Pad16)*%
X166878000Y-99568000D02*
X166878000Y-98552000D01*
X163322000Y-103124000D02*
X166878000Y-99568000D01*
%TO.N,Net-(BAR2-Pad15)*%
X164338000Y-99568000D02*
X164338000Y-98552000D01*
X160782000Y-103124000D02*
X164338000Y-99568000D01*
%TO.N,Net-(BAR2-Pad14)*%
X161798000Y-99568000D02*
X161798000Y-98552000D01*
X158242000Y-103124000D02*
X161798000Y-99568000D01*
%TO.N,Net-(BAR2-Pad13)*%
X155702000Y-103124000D02*
X155702000Y-101854000D01*
X155702000Y-101854000D02*
X156972000Y-100584000D01*
X156972000Y-100584000D02*
X158496000Y-100584000D01*
X159258000Y-99822000D02*
X159258000Y-98552000D01*
X158496000Y-100584000D02*
X159258000Y-99822000D01*
%TO.N,/MAR_01*%
X156972000Y-52070000D02*
X159004000Y-54102000D01*
X159004000Y-54102000D02*
X161036000Y-54102000D01*
X162052000Y-55118000D02*
X162052000Y-56134000D01*
X161036000Y-54102000D02*
X162052000Y-55118000D01*
%TO.N,/MAR_00*%
X154432000Y-52070000D02*
X154432000Y-56134000D01*
%TO.N,WRITE_ENABLE*%
X78486000Y-72898000D02*
X75946000Y-70358000D01*
X75946000Y-70358000D02*
X73914000Y-70358000D01*
X73406000Y-69850000D02*
X73914000Y-70358000D01*
X73406000Y-62484000D02*
X73406000Y-69850000D01*
X84986000Y-72898000D02*
X78486000Y-72898000D01*
X73406000Y-59944000D02*
X73406000Y-62484000D01*
X100838000Y-76962000D02*
X122682000Y-76962000D01*
X122682000Y-76962000D02*
X124968000Y-79248000D01*
X98044000Y-79756000D02*
X100838000Y-76962000D01*
X93472000Y-79756000D02*
X98044000Y-79756000D01*
X88900000Y-75184000D02*
X93472000Y-79756000D01*
%TO.N,/IO7*%
X222394999Y-45575001D02*
X222394999Y-62339001D01*
X222394999Y-62339001D02*
X220980000Y-63754000D01*
X223520000Y-44450000D02*
X222394999Y-45575001D01*
%TO.N,Net-(D1-Pad1)*%
X211582000Y-78994000D02*
X213614000Y-81026000D01*
X202946000Y-78994000D02*
X211582000Y-78994000D01*
X200660000Y-76708000D02*
X202946000Y-78994000D01*
%TO.N,/IO6*%
X224934999Y-62339001D02*
X223520000Y-63754000D01*
X224934999Y-45575001D02*
X224934999Y-62339001D01*
X226060000Y-44450000D02*
X224934999Y-45575001D01*
%TO.N,Net-(D2-Pad1)*%
X207264000Y-76708000D02*
X207264000Y-77216000D01*
X207264000Y-77216000D02*
X208280000Y-78232000D01*
X213360000Y-78232000D02*
X216154000Y-81026000D01*
X208280000Y-78232000D02*
X213360000Y-78232000D01*
%TO.N,/IO5*%
X227474999Y-62339001D02*
X226060000Y-63754000D01*
X227474999Y-45575001D02*
X227474999Y-62339001D01*
X228600000Y-44450000D02*
X227474999Y-45575001D01*
%TO.N,Net-(D3-Pad1)*%
X214376000Y-76708000D02*
X218694000Y-81026000D01*
X213868000Y-76708000D02*
X214376000Y-76708000D01*
%TO.N,/IO4*%
X230014999Y-45575001D02*
X230014999Y-62339001D01*
X230014999Y-62339001D02*
X228600000Y-63754000D01*
X231140000Y-44450000D02*
X230014999Y-45575001D01*
%TO.N,Net-(D4-Pad1)*%
X220472000Y-80264000D02*
X221234000Y-81026000D01*
X220472000Y-76708000D02*
X220472000Y-80264000D01*
%TO.N,/IO3*%
X232554999Y-62339001D02*
X231140000Y-63754000D01*
X232554999Y-45575001D02*
X232554999Y-62339001D01*
X233680000Y-44450000D02*
X232554999Y-45575001D01*
%TO.N,Net-(D5-Pad1)*%
X227076000Y-76708000D02*
X226568000Y-76708000D01*
X223774000Y-79502000D02*
X223774000Y-81026000D01*
X226568000Y-76708000D02*
X223774000Y-79502000D01*
%TO.N,/IO2*%
X235094999Y-62339001D02*
X233680000Y-63754000D01*
X235094999Y-45575001D02*
X235094999Y-62339001D01*
X236220000Y-44450000D02*
X235094999Y-45575001D01*
X184658000Y-79248000D02*
X185826976Y-78079024D01*
X185826976Y-78079024D02*
X194473518Y-78079024D01*
X194473518Y-78079024D02*
X200220531Y-72332011D01*
X200220531Y-72332011D02*
X231844011Y-72332011D01*
X231844011Y-72332011D02*
X233680000Y-74168000D01*
%TO.N,Net-(D6-Pad1)*%
X233680000Y-76708000D02*
X230632000Y-76708000D01*
X230632000Y-76708000D02*
X226314000Y-81026000D01*
%TO.N,/IO1*%
X237634999Y-62339001D02*
X236220000Y-63754000D01*
X237634999Y-45575001D02*
X237634999Y-62339001D01*
X238760000Y-44450000D02*
X237634999Y-45575001D01*
X200034131Y-71882000D02*
X237998000Y-71882000D01*
X183736987Y-77629013D02*
X194287118Y-77629013D01*
X194287118Y-77629013D02*
X200034131Y-71882000D01*
X237998000Y-71882000D02*
X240284000Y-74168000D01*
X182118000Y-79248000D02*
X183736987Y-77629013D01*
%TO.N,Net-(D7-Pad1)*%
X238448011Y-78543989D02*
X231336011Y-78543989D01*
X240284000Y-76708000D02*
X238448011Y-78543989D01*
X231336011Y-78543989D02*
X228854000Y-81026000D01*
%TO.N,/IO0*%
X240174999Y-45575001D02*
X240174999Y-62339001D01*
X240174999Y-62339001D02*
X238760000Y-63754000D01*
X241300000Y-44450000D02*
X240174999Y-45575001D01*
X199905720Y-71374000D02*
X244094000Y-71374000D01*
X244094000Y-71374000D02*
X246888000Y-74168000D01*
X194100718Y-77179002D02*
X199905720Y-71374000D01*
X179578000Y-79248000D02*
X181646998Y-77179002D01*
X181646998Y-77179002D02*
X194100718Y-77179002D01*
%TO.N,Net-(D8-Pad1)*%
X231394000Y-80010000D02*
X231394000Y-81026000D01*
X232410000Y-78994000D02*
X231394000Y-80010000D01*
X244602000Y-78994000D02*
X232410000Y-78994000D01*
X246888000Y-76708000D02*
X244602000Y-78994000D01*
%TO.N,OUTPUT_ENABLE*%
X187452000Y-42418000D02*
X218694000Y-42418000D01*
X71374000Y-39370000D02*
X72644000Y-38100000D01*
X76708000Y-38100000D02*
X79502000Y-40894000D01*
X136652000Y-40640000D02*
X148336000Y-40640000D01*
X149860000Y-39116000D02*
X184150000Y-39116000D01*
X134366000Y-38354000D02*
X136652000Y-40640000D01*
X71374000Y-50292000D02*
X71374000Y-39370000D01*
X103023002Y-38354000D02*
X134366000Y-38354000D01*
X184150000Y-39116000D02*
X187452000Y-42418000D01*
X73406000Y-52324000D02*
X71374000Y-50292000D01*
X100483002Y-40894000D02*
X103023002Y-38354000D01*
X72644000Y-38100000D02*
X76708000Y-38100000D01*
X148336000Y-40640000D02*
X149860000Y-39116000D01*
X79502000Y-40894000D02*
X100483002Y-40894000D01*
%TO.N,PROGRAM_MODE*%
X73406000Y-57404000D02*
X74930000Y-57404000D01*
X79502000Y-61976000D02*
X79502000Y-63754000D01*
X74930000Y-57404000D02*
X79502000Y-61976000D01*
X73406000Y-54864000D02*
X73406000Y-57404000D01*
X96266000Y-74930000D02*
X94488000Y-74930000D01*
X94488000Y-74930000D02*
X93726000Y-74168000D01*
X93726000Y-74168000D02*
X93726000Y-71120000D01*
X93726000Y-71120000D02*
X88900000Y-66294000D01*
X88900000Y-66294000D02*
X87376000Y-66294000D01*
X170688000Y-58674000D02*
X172974000Y-60960000D01*
X172974000Y-60960000D02*
X172974000Y-63754000D01*
X151384000Y-58674000D02*
X170688000Y-58674000D01*
%TO.N,MAR2_IN*%
X92202000Y-42164000D02*
X73406000Y-42164000D01*
X94488000Y-44450000D02*
X92202000Y-42164000D01*
X94488000Y-44450000D02*
X97028000Y-44450000D01*
X117856000Y-44450000D02*
X120396000Y-44450000D01*
%TO.N,Net-(R3-Pad2)*%
X96266000Y-77470000D02*
X94996000Y-77470000D01*
X94996000Y-77470000D02*
X92710000Y-75184000D01*
X92710000Y-72898000D02*
X90424000Y-70612000D01*
X92710000Y-75184000D02*
X92710000Y-72898000D01*
%TO.N,/MANUAL_MEM_ADR_15*%
X77470000Y-100114000D02*
X78994000Y-98590000D01*
X77470000Y-102616000D02*
X77470000Y-100114000D01*
X77470000Y-103632000D02*
X77470000Y-102616000D01*
X80772000Y-106934000D02*
X77470000Y-103632000D01*
%TO.N,/MANUAL_MEM_ADR_14*%
X80010000Y-100114000D02*
X81534000Y-98590000D01*
X80010000Y-102616000D02*
X80010000Y-100114000D01*
X80010000Y-103632000D02*
X80010000Y-102616000D01*
X83312000Y-106934000D02*
X80010000Y-103632000D01*
%TO.N,/MANUAL_MEM_ADR_13*%
X82550000Y-100114000D02*
X84074000Y-98590000D01*
X82550000Y-102616000D02*
X82550000Y-100114000D01*
X82550000Y-103632000D02*
X82550000Y-102616000D01*
X85852000Y-106934000D02*
X82550000Y-103632000D01*
%TO.N,/MANUAL_MEM_ADR_12*%
X86614000Y-95758000D02*
X86614000Y-98590000D01*
X82948999Y-92092999D02*
X86614000Y-95758000D01*
X82948999Y-90429999D02*
X82948999Y-92092999D01*
X83675001Y-86073999D02*
X83675001Y-89703997D01*
X87376000Y-82373000D02*
X83675001Y-86073999D01*
X83675001Y-89703997D02*
X82948999Y-90429999D01*
X87376000Y-69814002D02*
X87376000Y-82373000D01*
X85996999Y-68435001D02*
X87376000Y-69814002D01*
X85996999Y-57259001D02*
X85996999Y-68435001D01*
X87122000Y-56134000D02*
X85996999Y-57259001D01*
X85090000Y-100114000D02*
X86614000Y-98590000D01*
X85090000Y-102616000D02*
X85090000Y-100114000D01*
X85090000Y-103632000D02*
X85090000Y-102616000D01*
X88392000Y-106934000D02*
X85090000Y-103632000D01*
%TO.N,/MANUAL_MEM_ADR_11*%
X87630000Y-100114000D02*
X89154000Y-98590000D01*
X87630000Y-102616000D02*
X87630000Y-100114000D01*
X87630000Y-103632000D02*
X87630000Y-102616000D01*
X90932000Y-106934000D02*
X87630000Y-103632000D01*
%TO.N,/MANUAL_MEM_ADR_10*%
X90170000Y-100114000D02*
X91694000Y-98590000D01*
X90170000Y-102616000D02*
X90170000Y-100114000D01*
X90170000Y-103632000D02*
X90170000Y-102616000D01*
X93472000Y-106934000D02*
X90170000Y-103632000D01*
%TO.N,/MANUAL_MEM_ADR_09*%
X92710000Y-100114000D02*
X94234000Y-98590000D01*
X92710000Y-102616000D02*
X92710000Y-100114000D01*
X92710000Y-103632000D02*
X92710000Y-102616000D01*
X96012000Y-106934000D02*
X92710000Y-103632000D01*
%TO.N,/MANUAL_MEM_ADR_08*%
X95250000Y-100114000D02*
X96774000Y-98590000D01*
X95250000Y-102616000D02*
X95250000Y-100114000D01*
X95250000Y-103632000D02*
X95250000Y-102616000D01*
X98552000Y-106934000D02*
X95250000Y-103632000D01*
%TO.N,Net-(RN5-Pad9)*%
X97790000Y-89954000D02*
X96774000Y-90970000D01*
X97790000Y-86614000D02*
X97790000Y-89954000D01*
%TO.N,Net-(RN5-Pad8)*%
X95250000Y-89954000D02*
X94234000Y-90970000D01*
X95250000Y-86614000D02*
X95250000Y-89954000D01*
%TO.N,Net-(RN5-Pad7)*%
X92710000Y-89954000D02*
X91694000Y-90970000D01*
X92710000Y-86614000D02*
X92710000Y-89954000D01*
%TO.N,Net-(RN5-Pad6)*%
X90170000Y-89954000D02*
X89154000Y-90970000D01*
X90170000Y-86614000D02*
X90170000Y-89954000D01*
%TO.N,Net-(RN5-Pad5)*%
X87630000Y-89954000D02*
X86614000Y-90970000D01*
X87630000Y-86614000D02*
X87630000Y-89954000D01*
%TO.N,Net-(RN5-Pad4)*%
X85090000Y-89954000D02*
X84074000Y-90970000D01*
X85090000Y-86614000D02*
X85090000Y-89954000D01*
%TO.N,Net-(RN5-Pad3)*%
X82550000Y-89954000D02*
X81534000Y-90970000D01*
X82550000Y-86614000D02*
X82550000Y-89954000D01*
%TO.N,Net-(RN5-Pad2)*%
X80010000Y-89954000D02*
X78994000Y-90970000D01*
X80010000Y-86614000D02*
X80010000Y-89954000D01*
%TO.N,/MANUAL_MEM_ADR_07*%
X101092000Y-103124000D02*
X101600000Y-102616000D01*
X101092000Y-106934000D02*
X101092000Y-103124000D01*
X101600000Y-99568000D02*
X102616000Y-98552000D01*
X101600000Y-102616000D02*
X101600000Y-99568000D01*
%TO.N,/MANUAL_MEM_ADR_06*%
X103632000Y-103124000D02*
X104140000Y-102616000D01*
X103632000Y-106934000D02*
X103632000Y-103124000D01*
X104140000Y-99568000D02*
X105156000Y-98552000D01*
X104140000Y-102616000D02*
X104140000Y-99568000D01*
%TO.N,/MANUAL_MEM_ADR_05*%
X106172000Y-103124000D02*
X106680000Y-102616000D01*
X106172000Y-106934000D02*
X106172000Y-103124000D01*
X106680000Y-99568000D02*
X107696000Y-98552000D01*
X106680000Y-102616000D02*
X106680000Y-99568000D01*
%TO.N,/MANUAL_MEM_ADR_04*%
X108712000Y-103124000D02*
X109220000Y-102616000D01*
X108712000Y-106934000D02*
X108712000Y-103124000D01*
X109220000Y-99568000D02*
X110236000Y-98552000D01*
X109220000Y-102616000D02*
X109220000Y-99568000D01*
%TO.N,/MANUAL_MEM_ADR_03*%
X111252000Y-103124000D02*
X111760000Y-102616000D01*
X111252000Y-106934000D02*
X111252000Y-103124000D01*
X111760000Y-99568000D02*
X112776000Y-98552000D01*
X111760000Y-102616000D02*
X111760000Y-99568000D01*
%TO.N,/MANUAL_MEM_ADR_02*%
X113792000Y-103124000D02*
X114300000Y-102616000D01*
X113792000Y-106934000D02*
X113792000Y-103124000D01*
X114300000Y-99568000D02*
X115316000Y-98552000D01*
X114300000Y-102616000D02*
X114300000Y-99568000D01*
%TO.N,/MANUAL_MEM_ADR_01*%
X116332000Y-103124000D02*
X116840000Y-102616000D01*
X116332000Y-106934000D02*
X116332000Y-103124000D01*
X116840000Y-99568000D02*
X117856000Y-98552000D01*
X116840000Y-102616000D02*
X116840000Y-99568000D01*
%TO.N,/MANUAL_MEM_ADR_00*%
X118872000Y-103124000D02*
X119380000Y-102616000D01*
X118872000Y-106934000D02*
X118872000Y-103124000D01*
X119380000Y-99568000D02*
X120396000Y-98552000D01*
X119380000Y-102616000D02*
X119380000Y-99568000D01*
%TO.N,Net-(RN7-Pad9)*%
X120396000Y-90932000D02*
X120396000Y-89408000D01*
X121920000Y-87884000D02*
X121920000Y-86614000D01*
X120396000Y-89408000D02*
X121920000Y-87884000D01*
%TO.N,Net-(RN7-Pad8)*%
X117856000Y-90932000D02*
X117856000Y-89662000D01*
X119380000Y-88138000D02*
X119380000Y-86614000D01*
X117856000Y-89662000D02*
X119380000Y-88138000D01*
%TO.N,Net-(RN7-Pad7)*%
X115316000Y-90932000D02*
X115316000Y-89408000D01*
X116840000Y-87884000D02*
X116840000Y-86614000D01*
X115316000Y-89408000D02*
X116840000Y-87884000D01*
%TO.N,Net-(RN7-Pad6)*%
X112776000Y-90932000D02*
X112776000Y-89154000D01*
X114300000Y-87630000D02*
X114300000Y-86614000D01*
X112776000Y-89154000D02*
X114300000Y-87630000D01*
%TO.N,Net-(RN7-Pad5)*%
X110236000Y-90932000D02*
X110236000Y-89408000D01*
X111760000Y-87884000D02*
X111760000Y-86614000D01*
X110236000Y-89408000D02*
X111760000Y-87884000D01*
%TO.N,Net-(RN7-Pad4)*%
X107696000Y-90932000D02*
X107696000Y-89662000D01*
X109220000Y-88138000D02*
X109220000Y-86614000D01*
X107696000Y-89662000D02*
X109220000Y-88138000D01*
%TO.N,Net-(RN7-Pad3)*%
X105156000Y-90932000D02*
X105156000Y-89154000D01*
X106680000Y-87630000D02*
X106680000Y-86614000D01*
X105156000Y-89154000D02*
X106680000Y-87630000D01*
%TO.N,Net-(RN7-Pad2)*%
X102616000Y-90932000D02*
X102616000Y-89408000D01*
X104140000Y-87884000D02*
X104140000Y-86614000D01*
X102616000Y-89408000D02*
X104140000Y-87884000D01*
%TO.N,Net-(U1-Pad3)*%
X152654000Y-77216000D02*
X151892000Y-77216000D01*
X156718000Y-71628000D02*
X156718000Y-73152000D01*
X156718000Y-73152000D02*
X152654000Y-77216000D01*
X244348000Y-82550000D02*
X189992000Y-82550000D01*
X249028001Y-77869999D02*
X244348000Y-82550000D01*
X249028001Y-71482001D02*
X249028001Y-77869999D01*
X241300000Y-63754000D02*
X249028001Y-71482001D01*
%TO.N,Net-(U1-Pad1)*%
X122428000Y-79248000D02*
X120396000Y-81280000D01*
X108966000Y-81280000D02*
X106934000Y-79248000D01*
X120396000Y-81280000D02*
X108966000Y-81280000D01*
%TO.N,BUS_04*%
X84328000Y-44450000D02*
X87376000Y-47498000D01*
X87376000Y-47498000D02*
X99314000Y-47498000D01*
X99314000Y-47498000D02*
X101092000Y-45720000D01*
X101092000Y-44308998D02*
X104506998Y-40894000D01*
X101092000Y-45720000D02*
X101092000Y-44308998D01*
X104506998Y-40894000D02*
X129032000Y-40894000D01*
X131064000Y-42926000D02*
X131064000Y-44450000D01*
X129032000Y-40894000D02*
X131064000Y-42926000D01*
X247650000Y-51816000D02*
X248666000Y-52832000D01*
X231648000Y-40894000D02*
X246380000Y-40894000D01*
X229870000Y-42672000D02*
X231648000Y-40894000D01*
X246380000Y-40894000D02*
X247650000Y-42164000D01*
X229870000Y-44845002D02*
X229870000Y-42672000D01*
X248666000Y-52832000D02*
X251460000Y-52832000D01*
X228600000Y-46115002D02*
X229870000Y-44845002D01*
X247650000Y-42164000D02*
X247650000Y-51816000D01*
X228600000Y-52070000D02*
X228600000Y-46115002D01*
X150502054Y-41656000D02*
X144682098Y-47475956D01*
X134089956Y-47475956D02*
X131064000Y-44450000D01*
X178054000Y-44450000D02*
X175260000Y-41656000D01*
X175260000Y-41656000D02*
X150502054Y-41656000D01*
X144682098Y-47475956D02*
X134089956Y-47475956D01*
%TO.N,BUS_05*%
X86868000Y-44450000D02*
X89408000Y-46990000D01*
X89408000Y-46990000D02*
X99060000Y-46990000D01*
X99060000Y-46990000D02*
X100584000Y-45466000D01*
X100584000Y-45466000D02*
X100584000Y-43942000D01*
X100584000Y-43942000D02*
X104140000Y-40386000D01*
X104140000Y-40386000D02*
X131318000Y-40386000D01*
X133604000Y-42672000D02*
X133604000Y-44450000D01*
X131318000Y-40386000D02*
X133604000Y-42672000D01*
X226060000Y-46115002D02*
X227330000Y-44845002D01*
X226060000Y-52070000D02*
X226060000Y-46115002D01*
X227330000Y-44845002D02*
X227330000Y-43434000D01*
X227330000Y-43434000D02*
X230378000Y-40386000D01*
X230378000Y-40386000D02*
X246888000Y-40386000D01*
X246888000Y-40386000D02*
X248158000Y-41656000D01*
X248158000Y-41656000D02*
X248158000Y-49784000D01*
X248666000Y-50292000D02*
X251460000Y-50292000D01*
X248158000Y-49784000D02*
X248666000Y-50292000D01*
X144495698Y-47025945D02*
X136179945Y-47025945D01*
X150373643Y-41148000D02*
X144495698Y-47025945D01*
X136179945Y-47025945D02*
X133604000Y-44450000D01*
X177292000Y-41148000D02*
X150373643Y-41148000D01*
X180594000Y-44450000D02*
X177292000Y-41148000D01*
%TO.N,BUS_06*%
X89408000Y-44450000D02*
X91440000Y-46482000D01*
X91440000Y-46482000D02*
X98806000Y-46482000D01*
X98806000Y-46482000D02*
X100076000Y-45212000D01*
X100076000Y-45212000D02*
X100076000Y-43688000D01*
X100076000Y-43688000D02*
X103886000Y-39878000D01*
X103886000Y-39878000D02*
X133604000Y-39878000D01*
X136144000Y-42418000D02*
X136144000Y-44450000D01*
X133604000Y-39878000D02*
X136144000Y-42418000D01*
X248666000Y-47244000D02*
X249174000Y-47752000D01*
X248666000Y-41148000D02*
X248666000Y-47244000D01*
X249174000Y-47752000D02*
X251460000Y-47752000D01*
X247396000Y-39878000D02*
X248666000Y-41148000D01*
X223520000Y-52070000D02*
X223520000Y-46115002D01*
X228600000Y-39878000D02*
X247396000Y-39878000D01*
X224790000Y-43688000D02*
X228600000Y-39878000D01*
X224790000Y-44845002D02*
X224790000Y-43688000D01*
X223520000Y-46115002D02*
X224790000Y-44845002D01*
X179324000Y-40640000D02*
X150245232Y-40640000D01*
X183134000Y-44450000D02*
X179324000Y-40640000D01*
X138269934Y-46575934D02*
X136144000Y-44450000D01*
X150245232Y-40640000D02*
X144309298Y-46575934D01*
X144309298Y-46575934D02*
X138269934Y-46575934D01*
%TO.N,BUS_07*%
X133858000Y-39370000D02*
X138684000Y-44196000D01*
X103632000Y-39370000D02*
X133858000Y-39370000D01*
X99568000Y-44958000D02*
X99568000Y-43434000D01*
X91948000Y-44450000D02*
X93472000Y-45974000D01*
X99568000Y-43434000D02*
X103632000Y-39370000D01*
X98552000Y-45974000D02*
X99568000Y-44958000D01*
X138684000Y-44196000D02*
X138684000Y-44450000D01*
X93472000Y-45974000D02*
X98552000Y-45974000D01*
X249936000Y-45212000D02*
X251460000Y-45212000D01*
X220980000Y-46115002D02*
X222250000Y-44845002D01*
X222250000Y-42926000D02*
X225806000Y-39370000D01*
X222250000Y-44845002D02*
X222250000Y-42926000D01*
X249174000Y-44450000D02*
X249936000Y-45212000D01*
X249174000Y-40894000D02*
X249174000Y-44450000D01*
X247650000Y-39370000D02*
X249174000Y-40894000D01*
X225806000Y-39370000D02*
X247650000Y-39370000D01*
X220980000Y-52070000D02*
X220980000Y-46115002D01*
X185674000Y-44450000D02*
X181356000Y-40132000D01*
X141593978Y-41540022D02*
X138684000Y-44450000D01*
X181356000Y-40132000D02*
X150116821Y-40132000D01*
X150116821Y-40132000D02*
X148708800Y-41540022D01*
X148708800Y-41540022D02*
X141593978Y-41540022D01*
%TO.N,BUS_00*%
X201168000Y-44450000D02*
X201168000Y-45466000D01*
X201168000Y-45466000D02*
X200406000Y-46228000D01*
X200406000Y-46228000D02*
X169926000Y-46228000D01*
X169926000Y-46228000D02*
X168656000Y-44958000D01*
X168656000Y-44958000D02*
X168656000Y-43180000D01*
X168656000Y-43180000D02*
X167640000Y-42164000D01*
X156718000Y-42164000D02*
X154432000Y-44450000D01*
X167640000Y-42164000D02*
X156718000Y-42164000D01*
X150956033Y-47925967D02*
X154432000Y-44450000D01*
X126543197Y-47925967D02*
X150956033Y-47925967D01*
X124286033Y-45668803D02*
X126543197Y-47925967D01*
X124286033Y-43768033D02*
X124286033Y-45668803D01*
X121920000Y-41402000D02*
X124286033Y-43768033D01*
X110744000Y-41402000D02*
X121920000Y-41402000D01*
X107696000Y-44450000D02*
X110744000Y-41402000D01*
X245675989Y-59876400D02*
X248791589Y-62992000D01*
X244856000Y-42926000D02*
X245675989Y-43745989D01*
X238760000Y-46115002D02*
X240030000Y-44845002D01*
X245675989Y-43745989D02*
X245675989Y-59876400D01*
X238760000Y-52070000D02*
X238760000Y-46115002D01*
X241046000Y-42926000D02*
X244856000Y-42926000D01*
X248791589Y-62992000D02*
X251460000Y-62992000D01*
X240030000Y-43942000D02*
X241046000Y-42926000D01*
X240030000Y-44845002D02*
X240030000Y-43942000D01*
%TO.N,BUS_01*%
X158807989Y-42614011D02*
X156972000Y-44450000D01*
X164788011Y-42614011D02*
X158807989Y-42614011D01*
X166878000Y-46736000D02*
X165862000Y-45720000D01*
X165862000Y-45720000D02*
X165862000Y-43688000D01*
X203708000Y-44450000D02*
X201422000Y-46736000D01*
X165862000Y-43688000D02*
X164788011Y-42614011D01*
X201422000Y-46736000D02*
X166878000Y-46736000D01*
X121791590Y-41910000D02*
X123836022Y-43954432D01*
X112776000Y-41910000D02*
X121791590Y-41910000D01*
X153046022Y-48375978D02*
X156972000Y-44450000D01*
X110236000Y-44450000D02*
X112776000Y-41910000D01*
X123836022Y-43954432D02*
X123836022Y-45855203D01*
X123836022Y-45855203D02*
X126356797Y-48375978D01*
X126356797Y-48375978D02*
X153046022Y-48375978D01*
X236220000Y-46115002D02*
X237490000Y-44845002D01*
X236220000Y-52070000D02*
X236220000Y-46115002D01*
X237490000Y-44845002D02*
X237490000Y-43434000D01*
X237490000Y-43434000D02*
X238506000Y-42418000D01*
X238506000Y-42418000D02*
X245364000Y-42418000D01*
X245364000Y-42418000D02*
X246126000Y-43180000D01*
X246126000Y-43180000D02*
X246126000Y-58166000D01*
X248412000Y-60452000D02*
X251460000Y-60452000D01*
X246126000Y-58166000D02*
X248412000Y-60452000D01*
%TO.N,BUS_02*%
X206248000Y-44450000D02*
X203454000Y-47244000D01*
X203454000Y-47244000D02*
X165537499Y-47244000D01*
X163322000Y-45028501D02*
X163322000Y-43688000D01*
X160897978Y-43064022D02*
X159512000Y-44450000D01*
X163322000Y-43688000D02*
X162698022Y-43064022D01*
X162698022Y-43064022D02*
X160897978Y-43064022D01*
X165537499Y-47244000D02*
X163322000Y-45028501D01*
X114808000Y-42418000D02*
X121540411Y-42418000D01*
X112776000Y-44450000D02*
X114808000Y-42418000D01*
X123386011Y-44263600D02*
X123386011Y-46041601D01*
X121540411Y-42418000D02*
X123386011Y-44263600D01*
X123386011Y-46041601D02*
X126170399Y-48825989D01*
X126170399Y-48825989D02*
X155136011Y-48825989D01*
X155136011Y-48825989D02*
X159512000Y-44450000D01*
X246634000Y-55880000D02*
X248666000Y-57912000D01*
X245618000Y-41910000D02*
X246634000Y-42926000D01*
X233680000Y-52070000D02*
X233680000Y-46115002D01*
X234950000Y-42926000D02*
X235966000Y-41910000D01*
X235966000Y-41910000D02*
X245618000Y-41910000D01*
X246634000Y-42926000D02*
X246634000Y-55880000D01*
X233680000Y-46115002D02*
X234950000Y-44845002D01*
X248666000Y-57912000D02*
X251460000Y-57912000D01*
X234950000Y-44845002D02*
X234950000Y-42926000D01*
%TO.N,BUS_03*%
X165354000Y-47752000D02*
X162052000Y-44450000D01*
X205486000Y-47752000D02*
X165354000Y-47752000D01*
X208788000Y-44450000D02*
X205486000Y-47752000D01*
X125984000Y-49276000D02*
X157988000Y-49276000D01*
X122936000Y-46228000D02*
X125984000Y-49276000D01*
X122936000Y-44450000D02*
X122936000Y-46228000D01*
X157988000Y-49276000D02*
X162052000Y-45212000D01*
X121412000Y-42926000D02*
X122936000Y-44450000D01*
X116840000Y-42926000D02*
X121412000Y-42926000D01*
X162052000Y-45212000D02*
X162052000Y-44450000D01*
X115316000Y-44450000D02*
X116840000Y-42926000D01*
X248666000Y-55372000D02*
X251460000Y-55372000D01*
X247142000Y-42418000D02*
X247142000Y-53848000D01*
X246126000Y-41402000D02*
X247142000Y-42418000D01*
X232410000Y-42926000D02*
X233934000Y-41402000D01*
X233934000Y-41402000D02*
X246126000Y-41402000D01*
X247142000Y-53848000D02*
X248666000Y-55372000D01*
X232410000Y-44845002D02*
X232410000Y-42926000D01*
X231140000Y-46115002D02*
X232410000Y-44845002D01*
X231140000Y-52070000D02*
X231140000Y-46115002D01*
%TO.N,/MANUAL_DATA_07*%
X220726000Y-106172000D02*
X222250000Y-107696000D01*
X220726000Y-102870000D02*
X220726000Y-106172000D01*
X220726000Y-99884000D02*
X222030000Y-98580000D01*
X220726000Y-102870000D02*
X220726000Y-99884000D01*
%TO.N,/MANUAL_DATA_06*%
X223266000Y-106172000D02*
X224790000Y-107696000D01*
X223266000Y-102870000D02*
X223266000Y-106172000D01*
X223266000Y-99884000D02*
X224570000Y-98580000D01*
X223266000Y-102870000D02*
X223266000Y-99884000D01*
%TO.N,/MANUAL_DATA_05*%
X225806000Y-106172000D02*
X227330000Y-107696000D01*
X225806000Y-102870000D02*
X225806000Y-106172000D01*
X225806000Y-99884000D02*
X227110000Y-98580000D01*
X225806000Y-102870000D02*
X225806000Y-99884000D01*
%TO.N,/MANUAL_DATA_04*%
X228346000Y-106172000D02*
X229870000Y-107696000D01*
X228346000Y-102870000D02*
X228346000Y-106172000D01*
X228346000Y-99884000D02*
X229650000Y-98580000D01*
X228346000Y-102870000D02*
X228346000Y-99884000D01*
X191025608Y-71899608D02*
X191025608Y-75240903D01*
X187088999Y-63136999D02*
X187088999Y-67962999D01*
X179832000Y-65532000D02*
X183642000Y-65532000D01*
X184404000Y-64770000D02*
X184404000Y-62992000D01*
X184404000Y-62992000D02*
X184767001Y-62628999D01*
X184767001Y-62628999D02*
X186580999Y-62628999D01*
X183642000Y-65532000D02*
X184404000Y-64770000D01*
X187088999Y-67962999D02*
X191025608Y-71899608D01*
X178054000Y-63754000D02*
X179832000Y-65532000D01*
X186580999Y-62628999D02*
X187088999Y-63136999D01*
%TO.N,/MANUAL_DATA_03*%
X230886000Y-106172000D02*
X232410000Y-107696000D01*
X230886000Y-102870000D02*
X230886000Y-106172000D01*
X230886000Y-99884000D02*
X232190000Y-98580000D01*
X230886000Y-102870000D02*
X230886000Y-99884000D01*
%TO.N,/MANUAL_DATA_01*%
X192278000Y-71628000D02*
X192278000Y-73406000D01*
X192278000Y-73406000D02*
X192024000Y-73660000D01*
X192024000Y-73660000D02*
X192024000Y-75184000D01*
%TO.N,/MANUAL_DATA_02*%
X233426000Y-106172000D02*
X234950000Y-107696000D01*
X233426000Y-102870000D02*
X233426000Y-106172000D01*
X233426000Y-99884000D02*
X234730000Y-98580000D01*
X233426000Y-102870000D02*
X233426000Y-99884000D01*
X210202999Y-57259001D02*
X210202999Y-66403001D01*
X211328000Y-56134000D02*
X210202999Y-57259001D01*
X206248000Y-70358000D02*
X199848718Y-70358000D01*
X199848718Y-70358000D02*
X195019555Y-75187163D01*
X210202999Y-66403001D02*
X206248000Y-70358000D01*
%TO.N,/MANUAL_DATA_01*%
X235966000Y-106172000D02*
X237490000Y-107696000D01*
X235966000Y-102870000D02*
X235966000Y-106172000D01*
X235966000Y-99884000D02*
X237270000Y-98580000D01*
X235966000Y-102870000D02*
X235966000Y-99884000D01*
%TO.N,D1*%
X203962000Y-90170000D02*
X203962000Y-90932000D01*
%TO.N,/MANUAL_DATA_07*%
X219970000Y-96520000D02*
X222030000Y-98580000D01*
X215900000Y-96520000D02*
X219970000Y-96520000D01*
X190246000Y-89154000D02*
X208534000Y-89154000D01*
X208534000Y-89154000D02*
X215900000Y-96520000D01*
X183388000Y-82296000D02*
X190246000Y-89154000D01*
X179324000Y-82296000D02*
X183388000Y-82296000D01*
%TO.N,/MANUAL_DATA_06*%
X216086400Y-96069989D02*
X222059989Y-96069989D01*
X191827989Y-88703989D02*
X208720400Y-88703989D01*
X222059989Y-96069989D02*
X224570000Y-98580000D01*
X208720400Y-88703989D02*
X216086400Y-96069989D01*
X185674000Y-82550000D02*
X191827989Y-88703989D01*
%TO.N,/MANUAL_DATA_05*%
X185674000Y-63754000D02*
X185783001Y-63863001D01*
X224149978Y-95619978D02*
X227110000Y-98580000D01*
X179070000Y-81534000D02*
X186944000Y-81534000D01*
X216272800Y-95619978D02*
X224149978Y-95619978D01*
X179973002Y-77978000D02*
X178999499Y-77978000D01*
X178308000Y-80772000D02*
X179070000Y-81534000D01*
X178999499Y-77978000D02*
X178308000Y-78669499D01*
X186944000Y-81534000D02*
X193663978Y-88253978D01*
X185783001Y-63863001D02*
X185783001Y-72168001D01*
X208906800Y-88253978D02*
X216272800Y-95619978D01*
X178308000Y-78669499D02*
X178308000Y-80772000D01*
X185783001Y-72168001D02*
X179973002Y-77978000D01*
X193663978Y-88253978D02*
X208906800Y-88253978D01*
%TO.N,/MANUAL_DATA_03*%
X194019730Y-74204270D02*
X194019730Y-75167827D01*
X205087001Y-67962999D02*
X200261001Y-67962999D01*
X200261001Y-67962999D02*
X194019730Y-74204270D01*
X207373001Y-65676999D02*
X205087001Y-67962999D01*
X207373001Y-59799001D02*
X207373001Y-65676999D01*
X203708000Y-56134000D02*
X207373001Y-59799001D01*
%TO.N,/MANUAL_DATA_00*%
X238506000Y-106172000D02*
X240030000Y-107696000D01*
X238506000Y-102870000D02*
X238506000Y-106172000D01*
X238506000Y-99884000D02*
X239810000Y-98580000D01*
X238506000Y-102870000D02*
X238506000Y-99884000D01*
X201168000Y-63754000D02*
X193022392Y-71899608D01*
X193022392Y-71899608D02*
X193022392Y-75240903D01*
X205617233Y-84328000D02*
X198163041Y-84328000D01*
X236399967Y-95169967D02*
X216459200Y-95169967D01*
X216459200Y-95169967D02*
X205617233Y-84328000D01*
X239810000Y-98580000D02*
X236399967Y-95169967D01*
%TO.N,Net-(RN9-Pad9)*%
X241046000Y-89724000D02*
X239810000Y-90960000D01*
X241046000Y-86614000D02*
X241046000Y-89724000D01*
%TO.N,Net-(RN9-Pad8)*%
X238506000Y-89724000D02*
X237270000Y-90960000D01*
X238506000Y-86614000D02*
X238506000Y-89724000D01*
%TO.N,Net-(RN9-Pad7)*%
X235966000Y-89724000D02*
X234730000Y-90960000D01*
X235966000Y-86614000D02*
X235966000Y-89724000D01*
%TO.N,Net-(RN9-Pad6)*%
X233426000Y-89724000D02*
X232190000Y-90960000D01*
X233426000Y-86614000D02*
X233426000Y-89724000D01*
%TO.N,Net-(RN9-Pad5)*%
X230886000Y-89724000D02*
X229650000Y-90960000D01*
X230886000Y-86614000D02*
X230886000Y-89724000D01*
%TO.N,Net-(RN9-Pad4)*%
X228346000Y-89724000D02*
X227110000Y-90960000D01*
X228346000Y-86614000D02*
X228346000Y-89724000D01*
%TO.N,Net-(RN9-Pad3)*%
X225806000Y-89724000D02*
X224570000Y-90960000D01*
X225806000Y-86614000D02*
X225806000Y-89724000D01*
%TO.N,Net-(RN9-Pad2)*%
X223266000Y-89724000D02*
X222030000Y-90960000D01*
X223266000Y-86614000D02*
X223266000Y-89724000D01*
%TO.N,Net-(U14-Pad6)*%
X185674000Y-52070000D02*
X183896000Y-53848000D01*
X180340000Y-53848000D02*
X178054000Y-56134000D01*
X183896000Y-53848000D02*
X180340000Y-53848000D01*
%TO.N,Net-(U14-Pad5)*%
X183134000Y-52070000D02*
X184404000Y-50800000D01*
X186069002Y-50800000D02*
X186944000Y-51674998D01*
X184404000Y-50800000D02*
X186069002Y-50800000D01*
X186944000Y-51674998D02*
X186944000Y-53340000D01*
X185674000Y-54610000D02*
X185674000Y-56134000D01*
X186944000Y-53340000D02*
X185674000Y-54610000D01*
%TO.N,Net-(U14-Pad4)*%
X176928999Y-57548999D02*
X183134000Y-63754000D01*
X176928999Y-55593999D02*
X176928999Y-57548999D01*
X180452998Y-52070000D02*
X176928999Y-55593999D01*
X180594000Y-52070000D02*
X180452998Y-52070000D01*
%TO.N,Net-(U14-Pad3)*%
X174388999Y-62628999D02*
X175514000Y-63754000D01*
X177912998Y-52070000D02*
X174388999Y-55593999D01*
X174388999Y-55593999D02*
X174388999Y-62628999D01*
X178054000Y-52070000D02*
X177912998Y-52070000D01*
%TO.N,MDR_IN*%
X188214000Y-44450000D02*
X190754000Y-44450000D01*
X213868000Y-44450000D02*
X211328000Y-44450000D01*
X211328000Y-44450000D02*
X209804000Y-42926000D01*
X192278000Y-42926000D02*
X190754000Y-44450000D01*
X209804000Y-42926000D02*
X192278000Y-42926000D01*
X148522400Y-41090011D02*
X136465600Y-41090011D01*
X188214000Y-44450000D02*
X183388000Y-39624000D01*
X149988410Y-39624000D02*
X148522400Y-41090011D01*
X72644000Y-40894000D02*
X71882000Y-41656000D01*
X78865589Y-40894000D02*
X72644000Y-40894000D01*
X134237590Y-38862000D02*
X103378000Y-38862000D01*
X136465600Y-41090011D02*
X134237590Y-38862000D01*
X103378000Y-38862000D02*
X100895989Y-41344011D01*
X100895989Y-41344011D02*
X79315600Y-41344011D01*
X79315600Y-41344011D02*
X78865589Y-40894000D01*
X183388000Y-39624000D02*
X149988410Y-39624000D01*
X71882000Y-45720000D02*
X73406000Y-47244000D01*
X71882000Y-41656000D02*
X71882000Y-45720000D01*
%TO.N,Net-(U16-Pad6)*%
X208788000Y-52070000D02*
X206756000Y-54102000D01*
X203200000Y-54102000D02*
X201168000Y-56134000D01*
X206756000Y-54102000D02*
X203200000Y-54102000D01*
%TO.N,Net-(U16-Pad5)*%
X206248000Y-52070000D02*
X207772000Y-50546000D01*
X208929002Y-50546000D02*
X210058000Y-51674998D01*
X207772000Y-50546000D02*
X208929002Y-50546000D01*
X210058000Y-54864000D02*
X208788000Y-56134000D01*
X210058000Y-51674998D02*
X210058000Y-54864000D01*
%TO.N,Net-(U16-Pad4)*%
X200042999Y-55593999D02*
X200042999Y-57294999D01*
X203566998Y-52070000D02*
X200042999Y-55593999D01*
X203708000Y-52070000D02*
X203566998Y-52070000D01*
X206248000Y-63500000D02*
X206248000Y-63754000D01*
X200042999Y-57294999D02*
X206248000Y-63500000D01*
%TO.N,Net-(U16-Pad3)*%
X197502999Y-62628999D02*
X198628000Y-63754000D01*
X201026998Y-52070000D02*
X197502999Y-55593999D01*
X197502999Y-55593999D02*
X197502999Y-62628999D01*
X201168000Y-52070000D02*
X201026998Y-52070000D01*
%TO.N,Net-(BAR3-Pad20)*%
X206502000Y-99314000D02*
X206502000Y-98552000D01*
X202946000Y-102870000D02*
X206502000Y-99314000D01*
%TO.N,Net-(BAR3-Pad19)*%
X203962000Y-99314000D02*
X203962000Y-98552000D01*
X200406000Y-102870000D02*
X203962000Y-99314000D01*
%TO.N,Net-(BAR3-Pad18)*%
X201422000Y-99314000D02*
X201422000Y-98552000D01*
X197866000Y-102870000D02*
X201422000Y-99314000D01*
%TO.N,Net-(BAR3-Pad17)*%
X198882000Y-99314000D02*
X198882000Y-98552000D01*
X195326000Y-102870000D02*
X198882000Y-99314000D01*
%TO.N,Net-(BAR3-Pad16)*%
X196342000Y-99314000D02*
X196342000Y-98552000D01*
X192786000Y-102870000D02*
X196342000Y-99314000D01*
%TO.N,Net-(BAR3-Pad15)*%
X193802000Y-99314000D02*
X193802000Y-98552000D01*
X190246000Y-102870000D02*
X193802000Y-99314000D01*
%TO.N,Net-(BAR3-Pad14)*%
X191262000Y-99314000D02*
X191262000Y-98552000D01*
X187706000Y-102870000D02*
X191262000Y-99314000D01*
%TO.N,Net-(BAR3-Pad13)*%
X188722000Y-99314000D02*
X188722000Y-98552000D01*
X185166000Y-102870000D02*
X188722000Y-99314000D01*
%TO.N,/A15*%
X138430000Y-88900000D02*
X137668000Y-89662000D01*
X147066000Y-86360000D02*
X144526000Y-88900000D01*
X137668000Y-89662000D02*
X137668000Y-90932000D01*
X144526000Y-88900000D02*
X138430000Y-88900000D01*
X147066000Y-76200000D02*
X147066000Y-86360000D01*
X151638000Y-71628000D02*
X147066000Y-76200000D01*
X92568998Y-68326000D02*
X87996998Y-63754000D01*
X148336000Y-68326000D02*
X92568998Y-68326000D01*
X87996998Y-63754000D02*
X87122000Y-63754000D01*
X151638000Y-71628000D02*
X148336000Y-68326000D01*
%TO.N,/A14*%
X152146000Y-69850000D02*
X150114000Y-67818000D01*
X98806000Y-67818000D02*
X94742000Y-63754000D01*
X150114000Y-67818000D02*
X98806000Y-67818000D01*
%TO.N,/A13*%
X155194000Y-75946000D02*
X156972000Y-75946000D01*
X152908000Y-78232000D02*
X155194000Y-75946000D01*
X152146000Y-89154000D02*
X152908000Y-88392000D01*
X159258000Y-73660000D02*
X159258000Y-71628000D01*
X152908000Y-88392000D02*
X152908000Y-78232000D01*
X152146000Y-91771002D02*
X152146000Y-89154000D01*
X145034000Y-93218000D02*
X150699002Y-93218000D01*
X156972000Y-75946000D02*
X159258000Y-73660000D01*
X150699002Y-93218000D02*
X152146000Y-91771002D01*
X142748000Y-90932000D02*
X145034000Y-93218000D01*
X99256011Y-64075600D02*
X99256011Y-58108011D01*
X155956000Y-68326000D02*
X154489989Y-66859989D01*
X154489989Y-66859989D02*
X102040400Y-66859989D01*
X102040400Y-66859989D02*
X99256011Y-64075600D01*
X99256011Y-58108011D02*
X97282000Y-56134000D01*
%TO.N,/A12*%
X90565002Y-57912000D02*
X89662000Y-57008998D01*
X97282000Y-57912000D02*
X90565002Y-57912000D01*
X98806000Y-64516000D02*
X98806000Y-59436000D01*
X101600000Y-67310000D02*
X98806000Y-64516000D01*
X98806000Y-59436000D02*
X97282000Y-57912000D01*
X89662000Y-57008998D02*
X89662000Y-56134000D01*
X152654000Y-67310000D02*
X101600000Y-67310000D01*
X153924000Y-68580000D02*
X152654000Y-67310000D01*
%TO.N,/A11*%
X166878000Y-70612000D02*
X166878000Y-71628000D01*
X154178000Y-69342000D02*
X165608000Y-69342000D01*
X152908000Y-70612000D02*
X154178000Y-69342000D01*
X165608000Y-69342000D02*
X166878000Y-70612000D01*
X152908000Y-72644000D02*
X152908000Y-70612000D01*
X147828000Y-77724000D02*
X152908000Y-72644000D01*
X147828000Y-90932000D02*
X147828000Y-77724000D01*
X163830000Y-68580000D02*
X157480000Y-68580000D01*
X155274033Y-66374033D02*
X112856033Y-66374033D01*
X112856033Y-66374033D02*
X110236000Y-63754000D01*
X157480000Y-68580000D02*
X155274033Y-66374033D01*
X166878000Y-71628000D02*
X163830000Y-68580000D01*
%TO.N,/A10*%
X155586022Y-65924022D02*
X120026022Y-65924022D01*
X171958000Y-71628000D02*
X168402000Y-68072000D01*
X168402000Y-68072000D02*
X157734000Y-68072000D01*
X157734000Y-68072000D02*
X155586022Y-65924022D01*
X120026022Y-65924022D02*
X117856000Y-63754000D01*
X171958000Y-72644000D02*
X171958000Y-71628000D01*
X171450000Y-73152000D02*
X171958000Y-72644000D01*
X166116000Y-73152000D02*
X171450000Y-73152000D01*
X165608000Y-72644000D02*
X166116000Y-73152000D01*
X164408501Y-69850000D02*
X165608000Y-71049499D01*
X165608000Y-71049499D02*
X165608000Y-72644000D01*
X156210000Y-69850000D02*
X164408501Y-69850000D01*
X152146000Y-76200000D02*
X155448000Y-72898000D01*
X155448000Y-72898000D02*
X155448000Y-70612000D01*
X150368000Y-77216000D02*
X151384000Y-76200000D01*
X151384000Y-76200000D02*
X152146000Y-76200000D01*
X155448000Y-70612000D02*
X156210000Y-69850000D01*
X150368000Y-90932000D02*
X150368000Y-77216000D01*
%TO.N,/A8*%
X161402998Y-72023002D02*
X161798000Y-71628000D01*
X161402998Y-73547002D02*
X161402998Y-72023002D01*
X157988000Y-76962000D02*
X161402998Y-73547002D01*
X157988000Y-89662000D02*
X157988000Y-76962000D01*
X156718000Y-90932000D02*
X157988000Y-89662000D01*
X140716000Y-69088000D02*
X115824000Y-69088000D01*
X114046000Y-57404000D02*
X112776000Y-56134000D01*
X114046000Y-65278000D02*
X114046000Y-57404000D01*
%TO.N,/A9*%
X160528000Y-70922499D02*
X161092499Y-70358000D01*
X161092499Y-70358000D02*
X163068000Y-70358000D01*
X155448000Y-89662000D02*
X155448000Y-78740000D01*
X154178000Y-90932000D02*
X155448000Y-89662000D01*
X160528000Y-73660000D02*
X160528000Y-70922499D01*
X155448000Y-78740000D02*
X160528000Y-73660000D01*
X163068000Y-70358000D02*
X164338000Y-71628000D01*
X123132011Y-65474011D02*
X121920000Y-64262000D01*
X160724011Y-65474011D02*
X123132011Y-65474011D01*
X121920000Y-57658000D02*
X120396000Y-56134000D01*
X162560000Y-67310000D02*
X160724011Y-65474011D01*
X121920000Y-64262000D02*
X121920000Y-57658000D01*
%TO.N,/A7*%
X159258000Y-90932000D02*
X159258000Y-79248000D01*
X133350000Y-62992000D02*
X133350000Y-63754000D01*
X173083001Y-72168001D02*
X173083001Y-69959001D01*
X171417033Y-73833969D02*
X173083001Y-72168001D01*
X134620000Y-65024000D02*
X133350000Y-63754000D01*
X159258000Y-79248000D02*
X164672031Y-73833969D01*
X173083001Y-69959001D02*
X168148000Y-65024000D01*
X164672031Y-73833969D02*
X171417033Y-73833969D01*
X168148000Y-65024000D02*
X134620000Y-65024000D01*
%TO.N,/A6*%
X161798000Y-79248000D02*
X161798000Y-90932000D01*
X169279978Y-65396800D02*
X169279978Y-62602798D01*
X175768000Y-71248410D02*
X174253612Y-69734022D01*
X166762020Y-74283980D02*
X174636020Y-74283980D01*
X173617200Y-69734022D02*
X169279978Y-65396800D01*
X167891180Y-61214000D02*
X143510000Y-61214000D01*
X175768000Y-73152000D02*
X175768000Y-71248410D01*
X174253612Y-69734022D02*
X173617200Y-69734022D01*
X174636020Y-74283980D02*
X175768000Y-73152000D01*
X169279978Y-62602798D02*
X167891180Y-61214000D01*
X161798000Y-79248000D02*
X166762020Y-74283980D01*
X143510000Y-61214000D02*
X140970000Y-63754000D01*
%TO.N,/A5*%
X164338000Y-90932000D02*
X164338000Y-79248000D01*
X148082000Y-60706000D02*
X143510000Y-56134000D01*
X164338000Y-79248000D02*
X168852009Y-74733991D01*
X168852009Y-74733991D02*
X175597011Y-74733991D01*
X175597011Y-74733991D02*
X178163001Y-72168001D01*
X178163001Y-72168001D02*
X178163001Y-70467001D01*
X178163001Y-70467001D02*
X176980011Y-69284011D01*
X173803600Y-69284011D02*
X169729989Y-65210400D01*
X169729989Y-65210400D02*
X169729989Y-62416399D01*
X176980011Y-69284011D02*
X173803600Y-69284011D01*
X169729989Y-62416399D02*
X168019590Y-60706000D01*
X168019590Y-60706000D02*
X148082000Y-60706000D01*
%TO.N,/A4*%
X166878000Y-79248000D02*
X166878000Y-90932000D01*
X137160000Y-57404000D02*
X135890000Y-56134000D01*
X139700000Y-56712501D02*
X139008501Y-57404000D01*
X139700000Y-55449000D02*
X139700000Y-56712501D01*
X144670999Y-55008999D02*
X140140001Y-55008999D01*
X166878000Y-79248000D02*
X170942000Y-75184000D01*
X173990000Y-68834000D02*
X170180000Y-65024000D01*
X180703001Y-69959001D02*
X179578000Y-68834000D01*
X179578000Y-68834000D02*
X173990000Y-68834000D01*
X168148000Y-60198000D02*
X149860000Y-60198000D01*
X170180000Y-62230000D02*
X168148000Y-60198000D01*
X139008501Y-57404000D02*
X137160000Y-57404000D01*
X149860000Y-60198000D02*
X144670999Y-55008999D01*
X140140001Y-55008999D02*
X139700000Y-55449000D01*
X178308000Y-75184000D02*
X180703001Y-72788999D01*
X170180000Y-65024000D02*
X170180000Y-62230000D01*
X180703001Y-72788999D02*
X180703001Y-69959001D01*
X170942000Y-75184000D02*
X178308000Y-75184000D01*
%TO.N,/A3*%
X169418000Y-90932000D02*
X169418000Y-79248000D01*
%TO.N,/A2*%
X171958000Y-79248000D02*
X171958000Y-90932000D01*
%TO.N,/A1*%
X174498000Y-90932000D02*
X174498000Y-79248000D01*
%TO.N,/A0*%
X177038000Y-90932000D02*
X177038000Y-79248000D01*
%TO.N,RESET*%
X77724000Y-49784000D02*
X73856009Y-49784000D01*
X81788000Y-45720000D02*
X77724000Y-49784000D01*
X81788000Y-44450000D02*
X81788000Y-45720000D01*
%TD*%
M02*
