M48
; DRILL file {KiCad (5.1.10-1-10_14)} date Monday, November 22, 2021 at 02:45:23 AM
; FORMAT={-:-/ absolute / inch / decimal}
; #@! TF.CreationDate,2021-11-22T02:45:23-05:00
; #@! TF.GenerationSoftware,Kicad,Pcbnew,(5.1.10-1-10_14)
; #@! TF.FileFunction,Plated,1,4,PTH
FMAT,2
INCH
T1C0.0157
T2C0.0394
%
G90
G05
T1
X3.51Y-3.55
X3.5276Y-3.49
X3.5651Y-3.5439
X3.5733Y-3.4967
X3.58Y-3.34
X3.6068Y-3.5822
X3.7499Y-3.6501
X3.84Y-3.58
X3.86Y-3.62
X3.9126Y-3.3639
X3.95Y-3.49
X3.95Y-3.58
X4.01Y-3.58
X4.1173Y-3.6527
X4.19Y-3.71
X4.24Y-3.71
X4.32Y-3.37
X4.5073Y-3.6527
X4.59Y-3.67
X4.6307Y-3.5038
X4.6373Y-3.5589
X4.64Y-3.63
X4.65Y-3.4106
X4.7Y-3.58
X4.76Y-3.5
X4.79Y-3.78
X4.8Y-3.59
X4.81Y-3.51
X4.8873Y-3.6527
X4.9Y-3.59
X4.91Y-3.46
X4.95Y-3.57
X5.01Y-3.87
X5.02Y-3.4
X5.04Y-3.71
X5.06Y-3.8
X5.09Y-3.5
X5.1Y-2.98
X5.13Y-3.49
X5.19Y-3.8
X5.2025Y-3.7626
X5.2612Y-3.3715
X5.2671Y-3.5218
X5.2673Y-3.6527
X5.2695Y-3.4667
X5.2854Y-3.5567
X5.3Y-3.35
X5.35Y-3.35
X5.36Y-3.44
X5.39Y-3.37
X5.42Y-4.48
X5.43Y-3.38
X5.4374Y-4.0774
X5.46Y-4.16
X5.47Y-3.49
X5.4749Y-3.7707
X5.49Y-3.58
X5.52Y-3.54
X5.5296Y-3.8351
X5.53Y-3.93
X5.54Y-3.78
X5.55Y-4.49
X5.56Y-3.49
X5.56Y-3.59
X5.61Y-3.89
X5.6144Y-3.5554
X5.64Y-3.86
X5.65Y-4.49
X5.671Y-3.4051
X5.68Y-3.65
X5.69Y-3.49
X5.71Y-3.56
X5.72Y-3.96
X5.74Y-3.33
X5.75Y-4.49
X5.77Y-3.4
X5.81Y-3.51
X5.8527Y-3.4273
X5.86Y-3.48
X5.88Y-3.39
X5.89Y-3.5676
X5.9234Y-3.781
X5.9459Y-4.5159
X5.95Y-3.81
X5.96Y-3.95
X5.9678Y-3.3593
X5.9893Y-3.609
X5.9901Y-3.5381
X6.01Y-3.37
X6.03Y-3.87
X6.04Y-3.81
X6.0401Y-3.5901
X6.0474Y-4.0774
X6.1Y-4.06
X6.1101Y-3.8301
X6.1288Y-3.6601
X6.14Y-3.43
X6.1451Y-3.6009
X6.2024Y-3.6326
X6.23Y-3.51
X6.2427Y-3.8673
X6.28Y-3.51
X6.3027Y-3.4273
X6.3226Y-4.0274
X6.3259Y-4.5159
X6.34Y-3.59
X6.382Y-4.0297
X6.42Y-3.6
X6.454Y-3.7996
X6.47Y-3.6
X6.49Y-3.78
X6.5073Y-4.0927
X6.52Y-3.82
X6.5306Y-3.8667
X6.5673Y-3.6527
X6.67Y-3.63
X6.7427Y-3.4273
X6.7875Y-3.5
X6.82Y-3.82
X6.8268Y-3.5006
X6.8306Y-3.3076
X6.87Y-3.53
X6.93Y-3.34
X6.93Y-3.5
X6.93Y-3.55
X6.97Y-3.48
X7.0Y-3.33
X7.0073Y-3.6527
X7.02Y-3.59
X7.06Y-3.32
X7.08Y-3.58
X7.0827Y-3.4273
X7.1027Y-3.9673
X7.15Y-3.75
X7.16Y-3.08
X7.2563Y-3.5114
X7.27Y-3.37
X7.31Y-3.76
X7.32Y-3.55
X7.3409Y-3.6478
X7.3573Y-4.1927
X7.36Y-3.5
T2
X3.9Y-4.39
X4.0Y-4.39
X4.8Y-3.19
X4.9Y-3.19
X5.0Y-3.19
X5.1Y-3.19
X5.2Y-3.19
X5.3Y-3.19
X5.4Y-3.19
X5.5Y-3.19
X5.5Y-4.39
X5.6Y-3.19
X5.6Y-4.39
X5.7Y-3.19
X5.7Y-4.39
X5.8Y-3.19
X5.8Y-4.39
X5.9Y-3.19
X6.0Y-3.19
X6.1Y-3.19
X6.2Y-3.19
X6.3Y-3.19
X6.4Y-3.19
X6.5Y-3.19
X7.0Y-4.39
X7.1Y-4.39
T0
M30
