%TF.GenerationSoftware,KiCad,Pcbnew,(5.1.10-1-10_14)*%
%TF.CreationDate,2021-10-28T11:05:28-04:00*%
%TF.ProjectId,ALU-smd,414c552d-736d-4642-9e6b-696361645f70,rev?*%
%TF.SameCoordinates,Original*%
%TF.FileFunction,Legend,Top*%
%TF.FilePolarity,Positive*%
%FSLAX46Y46*%
G04 Gerber Fmt 4.6, Leading zero omitted, Abs format (unit mm)*
G04 Created by KiCad (PCBNEW (5.1.10-1-10_14)) date 2021-10-28 11:05:28*
%MOMM*%
%LPD*%
G01*
G04 APERTURE LIST*
%ADD10C,0.100000*%
%ADD11C,0.700000*%
%ADD12C,0.120000*%
G04 APERTURE END LIST*
D10*
X77795523Y-146248380D02*
X77224095Y-146248380D01*
X77509809Y-146248380D02*
X77509809Y-145248380D01*
X77414571Y-145391238D01*
X77319333Y-145486476D01*
X77224095Y-145534095D01*
X78224095Y-146248380D02*
X78224095Y-145248380D01*
X78319333Y-145867428D02*
X78605047Y-146248380D01*
X78605047Y-145581714D02*
X78224095Y-145962666D01*
X78986000Y-146248380D02*
X79224095Y-146248380D01*
X79224095Y-146057904D01*
X79128857Y-146010285D01*
X79033619Y-145915047D01*
X78986000Y-145772190D01*
X78986000Y-145534095D01*
X79033619Y-145391238D01*
X79128857Y-145296000D01*
X79271714Y-145248380D01*
X79462190Y-145248380D01*
X79605047Y-145296000D01*
X79700285Y-145391238D01*
X79747904Y-145534095D01*
X79747904Y-145772190D01*
X79700285Y-145915047D01*
X79605047Y-146010285D01*
X79509809Y-146057904D01*
X79509809Y-146248380D01*
X79747904Y-146248380D01*
X97013571Y-141324380D02*
X97108809Y-141324380D01*
X97204047Y-141372000D01*
X97251666Y-141419619D01*
X97299285Y-141514857D01*
X97346904Y-141705333D01*
X97346904Y-141943428D01*
X97299285Y-142133904D01*
X97251666Y-142229142D01*
X97204047Y-142276761D01*
X97108809Y-142324380D01*
X97013571Y-142324380D01*
X96918333Y-142276761D01*
X96870714Y-142229142D01*
X96823095Y-142133904D01*
X96775476Y-141943428D01*
X96775476Y-141705333D01*
X96823095Y-141514857D01*
X96870714Y-141419619D01*
X96918333Y-141372000D01*
X97013571Y-141324380D01*
X97965952Y-141324380D02*
X98061190Y-141324380D01*
X98156428Y-141372000D01*
X98204047Y-141419619D01*
X98251666Y-141514857D01*
X98299285Y-141705333D01*
X98299285Y-141943428D01*
X98251666Y-142133904D01*
X98204047Y-142229142D01*
X98156428Y-142276761D01*
X98061190Y-142324380D01*
X97965952Y-142324380D01*
X97870714Y-142276761D01*
X97823095Y-142229142D01*
X97775476Y-142133904D01*
X97727857Y-141943428D01*
X97727857Y-141705333D01*
X97775476Y-141514857D01*
X97823095Y-141419619D01*
X97870714Y-141372000D01*
X97965952Y-141324380D01*
X99965952Y-142324380D02*
X99489761Y-142324380D01*
X99489761Y-141324380D01*
X100299285Y-142324380D02*
X100299285Y-141324380D01*
X100299285Y-141800571D02*
X100870714Y-141800571D01*
X100870714Y-142324380D02*
X100870714Y-141324380D01*
X101299285Y-142276761D02*
X101442142Y-142324380D01*
X101680238Y-142324380D01*
X101775476Y-142276761D01*
X101823095Y-142229142D01*
X101870714Y-142133904D01*
X101870714Y-142038666D01*
X101823095Y-141943428D01*
X101775476Y-141895809D01*
X101680238Y-141848190D01*
X101489761Y-141800571D01*
X101394523Y-141752952D01*
X101346904Y-141705333D01*
X101299285Y-141610095D01*
X101299285Y-141514857D01*
X101346904Y-141419619D01*
X101394523Y-141372000D01*
X101489761Y-141324380D01*
X101727857Y-141324380D01*
X101870714Y-141372000D01*
X97013571Y-142924380D02*
X97108809Y-142924380D01*
X97204047Y-142972000D01*
X97251666Y-143019619D01*
X97299285Y-143114857D01*
X97346904Y-143305333D01*
X97346904Y-143543428D01*
X97299285Y-143733904D01*
X97251666Y-143829142D01*
X97204047Y-143876761D01*
X97108809Y-143924380D01*
X97013571Y-143924380D01*
X96918333Y-143876761D01*
X96870714Y-143829142D01*
X96823095Y-143733904D01*
X96775476Y-143543428D01*
X96775476Y-143305333D01*
X96823095Y-143114857D01*
X96870714Y-143019619D01*
X96918333Y-142972000D01*
X97013571Y-142924380D01*
X98299285Y-143924380D02*
X97727857Y-143924380D01*
X98013571Y-143924380D02*
X98013571Y-142924380D01*
X97918333Y-143067238D01*
X97823095Y-143162476D01*
X97727857Y-143210095D01*
X99442142Y-143876761D02*
X99585000Y-143924380D01*
X99823095Y-143924380D01*
X99918333Y-143876761D01*
X99965952Y-143829142D01*
X100013571Y-143733904D01*
X100013571Y-143638666D01*
X99965952Y-143543428D01*
X99918333Y-143495809D01*
X99823095Y-143448190D01*
X99632619Y-143400571D01*
X99537380Y-143352952D01*
X99489761Y-143305333D01*
X99442142Y-143210095D01*
X99442142Y-143114857D01*
X99489761Y-143019619D01*
X99537380Y-142972000D01*
X99632619Y-142924380D01*
X99870714Y-142924380D01*
X100013571Y-142972000D01*
X100442142Y-143924380D02*
X100442142Y-142924380D01*
X100442142Y-143400571D02*
X101013571Y-143400571D01*
X101013571Y-143924380D02*
X101013571Y-142924380D01*
X102061190Y-143924380D02*
X101727857Y-143448190D01*
X101489761Y-143924380D02*
X101489761Y-142924380D01*
X101870714Y-142924380D01*
X101965952Y-142972000D01*
X102013571Y-143019619D01*
X102061190Y-143114857D01*
X102061190Y-143257714D01*
X102013571Y-143352952D01*
X101965952Y-143400571D01*
X101870714Y-143448190D01*
X101489761Y-143448190D01*
X97346904Y-145524380D02*
X96775476Y-145524380D01*
X97061190Y-145524380D02*
X97061190Y-144524380D01*
X96965952Y-144667238D01*
X96870714Y-144762476D01*
X96775476Y-144810095D01*
X97965952Y-144524380D02*
X98061190Y-144524380D01*
X98156428Y-144572000D01*
X98204047Y-144619619D01*
X98251666Y-144714857D01*
X98299285Y-144905333D01*
X98299285Y-145143428D01*
X98251666Y-145333904D01*
X98204047Y-145429142D01*
X98156428Y-145476761D01*
X98061190Y-145524380D01*
X97965952Y-145524380D01*
X97870714Y-145476761D01*
X97823095Y-145429142D01*
X97775476Y-145333904D01*
X97727857Y-145143428D01*
X97727857Y-144905333D01*
X97775476Y-144714857D01*
X97823095Y-144619619D01*
X97870714Y-144572000D01*
X97965952Y-144524380D01*
X99442142Y-145476761D02*
X99585000Y-145524380D01*
X99823095Y-145524380D01*
X99918333Y-145476761D01*
X99965952Y-145429142D01*
X100013571Y-145333904D01*
X100013571Y-145238666D01*
X99965952Y-145143428D01*
X99918333Y-145095809D01*
X99823095Y-145048190D01*
X99632619Y-145000571D01*
X99537380Y-144952952D01*
X99489761Y-144905333D01*
X99442142Y-144810095D01*
X99442142Y-144714857D01*
X99489761Y-144619619D01*
X99537380Y-144572000D01*
X99632619Y-144524380D01*
X99870714Y-144524380D01*
X100013571Y-144572000D01*
X100442142Y-145524380D02*
X100442142Y-144524380D01*
X100442142Y-145000571D02*
X101013571Y-145000571D01*
X101013571Y-145524380D02*
X101013571Y-144524380D01*
X101965952Y-145524380D02*
X101489761Y-145524380D01*
X101489761Y-144524380D01*
X97346904Y-147124380D02*
X96775476Y-147124380D01*
X97061190Y-147124380D02*
X97061190Y-146124380D01*
X96965952Y-146267238D01*
X96870714Y-146362476D01*
X96775476Y-146410095D01*
X98299285Y-147124380D02*
X97727857Y-147124380D01*
X98013571Y-147124380D02*
X98013571Y-146124380D01*
X97918333Y-146267238D01*
X97823095Y-146362476D01*
X97727857Y-146410095D01*
X99394523Y-146124380D02*
X100061190Y-146124380D01*
X99394523Y-147124380D01*
X100061190Y-147124380D01*
X100823095Y-147076761D02*
X100727857Y-147124380D01*
X100537380Y-147124380D01*
X100442142Y-147076761D01*
X100394523Y-146981523D01*
X100394523Y-146600571D01*
X100442142Y-146505333D01*
X100537380Y-146457714D01*
X100727857Y-146457714D01*
X100823095Y-146505333D01*
X100870714Y-146600571D01*
X100870714Y-146695809D01*
X100394523Y-146791047D01*
X101299285Y-147124380D02*
X101299285Y-146457714D01*
X101299285Y-146648190D02*
X101346904Y-146552952D01*
X101394523Y-146505333D01*
X101489761Y-146457714D01*
X101585000Y-146457714D01*
X102061190Y-147124380D02*
X101965952Y-147076761D01*
X101918333Y-147029142D01*
X101870714Y-146933904D01*
X101870714Y-146648190D01*
X101918333Y-146552952D01*
X101965952Y-146505333D01*
X102061190Y-146457714D01*
X102204047Y-146457714D01*
X102299285Y-146505333D01*
X102346904Y-146552952D01*
X102394523Y-146648190D01*
X102394523Y-146933904D01*
X102346904Y-147029142D01*
X102299285Y-147076761D01*
X102204047Y-147124380D01*
X102061190Y-147124380D01*
X131100809Y-162121904D02*
X131253190Y-162121904D01*
X131329380Y-162160000D01*
X131405571Y-162236190D01*
X131443666Y-162388571D01*
X131443666Y-162655238D01*
X131405571Y-162807619D01*
X131329380Y-162883809D01*
X131253190Y-162921904D01*
X131100809Y-162921904D01*
X131024619Y-162883809D01*
X130948428Y-162807619D01*
X130910333Y-162655238D01*
X130910333Y-162388571D01*
X130948428Y-162236190D01*
X131024619Y-162160000D01*
X131100809Y-162121904D01*
X132129380Y-162388571D02*
X132129380Y-162921904D01*
X131786523Y-162388571D02*
X131786523Y-162807619D01*
X131824619Y-162883809D01*
X131900809Y-162921904D01*
X132015095Y-162921904D01*
X132091285Y-162883809D01*
X132129380Y-162845714D01*
X132396047Y-162388571D02*
X132700809Y-162388571D01*
X132510333Y-162121904D02*
X132510333Y-162807619D01*
X132548428Y-162883809D01*
X132624619Y-162921904D01*
X132700809Y-162921904D01*
X96775476Y-162921904D02*
X96775476Y-162121904D01*
X97727857Y-162083809D02*
X97042142Y-163112380D01*
X98146904Y-162121904D02*
X98299285Y-162121904D01*
X98375476Y-162160000D01*
X98451666Y-162236190D01*
X98489761Y-162388571D01*
X98489761Y-162655238D01*
X98451666Y-162807619D01*
X98375476Y-162883809D01*
X98299285Y-162921904D01*
X98146904Y-162921904D01*
X98070714Y-162883809D01*
X97994523Y-162807619D01*
X97956428Y-162655238D01*
X97956428Y-162388571D01*
X97994523Y-162236190D01*
X98070714Y-162160000D01*
X98146904Y-162121904D01*
X96648428Y-161218571D02*
X96791285Y-161266190D01*
X96838904Y-161313809D01*
X96886523Y-161409047D01*
X96886523Y-161551904D01*
X96838904Y-161647142D01*
X96791285Y-161694761D01*
X96696047Y-161742380D01*
X96315095Y-161742380D01*
X96315095Y-160742380D01*
X96648428Y-160742380D01*
X96743666Y-160790000D01*
X96791285Y-160837619D01*
X96838904Y-160932857D01*
X96838904Y-161028095D01*
X96791285Y-161123333D01*
X96743666Y-161170952D01*
X96648428Y-161218571D01*
X96315095Y-161218571D01*
X97315095Y-160742380D02*
X97315095Y-161551904D01*
X97362714Y-161647142D01*
X97410333Y-161694761D01*
X97505571Y-161742380D01*
X97696047Y-161742380D01*
X97791285Y-161694761D01*
X97838904Y-161647142D01*
X97886523Y-161551904D01*
X97886523Y-160742380D01*
X98315095Y-161694761D02*
X98457952Y-161742380D01*
X98696047Y-161742380D01*
X98791285Y-161694761D01*
X98838904Y-161647142D01*
X98886523Y-161551904D01*
X98886523Y-161456666D01*
X98838904Y-161361428D01*
X98791285Y-161313809D01*
X98696047Y-161266190D01*
X98505571Y-161218571D01*
X98410333Y-161170952D01*
X98362714Y-161123333D01*
X98315095Y-161028095D01*
X98315095Y-160932857D01*
X98362714Y-160837619D01*
X98410333Y-160790000D01*
X98505571Y-160742380D01*
X98743666Y-160742380D01*
X98886523Y-160790000D01*
X130935761Y-161742380D02*
X130459571Y-161742380D01*
X130459571Y-160742380D01*
X131269095Y-161742380D02*
X131269095Y-160742380D01*
X131269095Y-161218571D02*
X131840523Y-161218571D01*
X131840523Y-161742380D02*
X131840523Y-160742380D01*
X132269095Y-161694761D02*
X132411952Y-161742380D01*
X132650047Y-161742380D01*
X132745285Y-161694761D01*
X132792904Y-161647142D01*
X132840523Y-161551904D01*
X132840523Y-161456666D01*
X132792904Y-161361428D01*
X132745285Y-161313809D01*
X132650047Y-161266190D01*
X132459571Y-161218571D01*
X132364333Y-161170952D01*
X132316714Y-161123333D01*
X132269095Y-161028095D01*
X132269095Y-160932857D01*
X132316714Y-160837619D01*
X132364333Y-160790000D01*
X132459571Y-160742380D01*
X132697666Y-160742380D01*
X132840523Y-160790000D01*
X123738095Y-158456380D02*
X124404761Y-158456380D01*
X123976190Y-159456380D01*
X125214285Y-158789714D02*
X125214285Y-159456380D01*
X124976190Y-158408761D02*
X124738095Y-159123047D01*
X125357142Y-159123047D01*
X125738095Y-159456380D02*
X125738095Y-158456380D01*
X125738095Y-158932571D02*
X126309523Y-158932571D01*
X126309523Y-159456380D02*
X126309523Y-158456380D01*
X127357142Y-159361142D02*
X127309523Y-159408761D01*
X127166666Y-159456380D01*
X127071428Y-159456380D01*
X126928571Y-159408761D01*
X126833333Y-159313523D01*
X126785714Y-159218285D01*
X126738095Y-159027809D01*
X126738095Y-158884952D01*
X126785714Y-158694476D01*
X126833333Y-158599238D01*
X126928571Y-158504000D01*
X127071428Y-158456380D01*
X127166666Y-158456380D01*
X127309523Y-158504000D01*
X127357142Y-158551619D01*
X128309523Y-159456380D02*
X127738095Y-159456380D01*
X128023809Y-159456380D02*
X128023809Y-158456380D01*
X127928571Y-158599238D01*
X127833333Y-158694476D01*
X127738095Y-158742095D01*
X129214285Y-158456380D02*
X128738095Y-158456380D01*
X128690476Y-158932571D01*
X128738095Y-158884952D01*
X128833333Y-158837333D01*
X129071428Y-158837333D01*
X129166666Y-158884952D01*
X129214285Y-158932571D01*
X129261904Y-159027809D01*
X129261904Y-159265904D01*
X129214285Y-159361142D01*
X129166666Y-159408761D01*
X129071428Y-159456380D01*
X128833333Y-159456380D01*
X128738095Y-159408761D01*
X128690476Y-159361142D01*
X129595238Y-158456380D02*
X130214285Y-158456380D01*
X129880952Y-158837333D01*
X130023809Y-158837333D01*
X130119047Y-158884952D01*
X130166666Y-158932571D01*
X130214285Y-159027809D01*
X130214285Y-159265904D01*
X130166666Y-159361142D01*
X130119047Y-159408761D01*
X130023809Y-159456380D01*
X129738095Y-159456380D01*
X129642857Y-159408761D01*
X129595238Y-159361142D01*
X111800095Y-158456380D02*
X112466761Y-158456380D01*
X112038190Y-159456380D01*
X113276285Y-158789714D02*
X113276285Y-159456380D01*
X113038190Y-158408761D02*
X112800095Y-159123047D01*
X113419142Y-159123047D01*
X113800095Y-159456380D02*
X113800095Y-158456380D01*
X113800095Y-158932571D02*
X114371523Y-158932571D01*
X114371523Y-159456380D02*
X114371523Y-158456380D01*
X115419142Y-159361142D02*
X115371523Y-159408761D01*
X115228666Y-159456380D01*
X115133428Y-159456380D01*
X114990571Y-159408761D01*
X114895333Y-159313523D01*
X114847714Y-159218285D01*
X114800095Y-159027809D01*
X114800095Y-158884952D01*
X114847714Y-158694476D01*
X114895333Y-158599238D01*
X114990571Y-158504000D01*
X115133428Y-158456380D01*
X115228666Y-158456380D01*
X115371523Y-158504000D01*
X115419142Y-158551619D01*
X116371523Y-159456380D02*
X115800095Y-159456380D01*
X116085809Y-159456380D02*
X116085809Y-158456380D01*
X115990571Y-158599238D01*
X115895333Y-158694476D01*
X115800095Y-158742095D01*
X117276285Y-158456380D02*
X116800095Y-158456380D01*
X116752476Y-158932571D01*
X116800095Y-158884952D01*
X116895333Y-158837333D01*
X117133428Y-158837333D01*
X117228666Y-158884952D01*
X117276285Y-158932571D01*
X117323904Y-159027809D01*
X117323904Y-159265904D01*
X117276285Y-159361142D01*
X117228666Y-159408761D01*
X117133428Y-159456380D01*
X116895333Y-159456380D01*
X116800095Y-159408761D01*
X116752476Y-159361142D01*
X117657238Y-158456380D02*
X118276285Y-158456380D01*
X117942952Y-158837333D01*
X118085809Y-158837333D01*
X118181047Y-158884952D01*
X118228666Y-158932571D01*
X118276285Y-159027809D01*
X118276285Y-159265904D01*
X118228666Y-159361142D01*
X118181047Y-159408761D01*
X118085809Y-159456380D01*
X117800095Y-159456380D01*
X117704857Y-159408761D01*
X117657238Y-159361142D01*
X100116095Y-158456380D02*
X100782761Y-158456380D01*
X100354190Y-159456380D01*
X101592285Y-158789714D02*
X101592285Y-159456380D01*
X101354190Y-158408761D02*
X101116095Y-159123047D01*
X101735142Y-159123047D01*
X102116095Y-159456380D02*
X102116095Y-158456380D01*
X102116095Y-158932571D02*
X102687523Y-158932571D01*
X102687523Y-159456380D02*
X102687523Y-158456380D01*
X103735142Y-159361142D02*
X103687523Y-159408761D01*
X103544666Y-159456380D01*
X103449428Y-159456380D01*
X103306571Y-159408761D01*
X103211333Y-159313523D01*
X103163714Y-159218285D01*
X103116095Y-159027809D01*
X103116095Y-158884952D01*
X103163714Y-158694476D01*
X103211333Y-158599238D01*
X103306571Y-158504000D01*
X103449428Y-158456380D01*
X103544666Y-158456380D01*
X103687523Y-158504000D01*
X103735142Y-158551619D01*
X104687523Y-159456380D02*
X104116095Y-159456380D01*
X104401809Y-159456380D02*
X104401809Y-158456380D01*
X104306571Y-158599238D01*
X104211333Y-158694476D01*
X104116095Y-158742095D01*
X105592285Y-158456380D02*
X105116095Y-158456380D01*
X105068476Y-158932571D01*
X105116095Y-158884952D01*
X105211333Y-158837333D01*
X105449428Y-158837333D01*
X105544666Y-158884952D01*
X105592285Y-158932571D01*
X105639904Y-159027809D01*
X105639904Y-159265904D01*
X105592285Y-159361142D01*
X105544666Y-159408761D01*
X105449428Y-159456380D01*
X105211333Y-159456380D01*
X105116095Y-159408761D01*
X105068476Y-159361142D01*
X105973238Y-158456380D02*
X106592285Y-158456380D01*
X106258952Y-158837333D01*
X106401809Y-158837333D01*
X106497047Y-158884952D01*
X106544666Y-158932571D01*
X106592285Y-159027809D01*
X106592285Y-159265904D01*
X106544666Y-159361142D01*
X106497047Y-159408761D01*
X106401809Y-159456380D01*
X106116095Y-159456380D01*
X106020857Y-159408761D01*
X105973238Y-159361142D01*
X88432095Y-158456380D02*
X89098761Y-158456380D01*
X88670190Y-159456380D01*
X89908285Y-158789714D02*
X89908285Y-159456380D01*
X89670190Y-158408761D02*
X89432095Y-159123047D01*
X90051142Y-159123047D01*
X90432095Y-159456380D02*
X90432095Y-158456380D01*
X90432095Y-158932571D02*
X91003523Y-158932571D01*
X91003523Y-159456380D02*
X91003523Y-158456380D01*
X92051142Y-159361142D02*
X92003523Y-159408761D01*
X91860666Y-159456380D01*
X91765428Y-159456380D01*
X91622571Y-159408761D01*
X91527333Y-159313523D01*
X91479714Y-159218285D01*
X91432095Y-159027809D01*
X91432095Y-158884952D01*
X91479714Y-158694476D01*
X91527333Y-158599238D01*
X91622571Y-158504000D01*
X91765428Y-158456380D01*
X91860666Y-158456380D01*
X92003523Y-158504000D01*
X92051142Y-158551619D01*
X93003523Y-159456380D02*
X92432095Y-159456380D01*
X92717809Y-159456380D02*
X92717809Y-158456380D01*
X92622571Y-158599238D01*
X92527333Y-158694476D01*
X92432095Y-158742095D01*
X93908285Y-158456380D02*
X93432095Y-158456380D01*
X93384476Y-158932571D01*
X93432095Y-158884952D01*
X93527333Y-158837333D01*
X93765428Y-158837333D01*
X93860666Y-158884952D01*
X93908285Y-158932571D01*
X93955904Y-159027809D01*
X93955904Y-159265904D01*
X93908285Y-159361142D01*
X93860666Y-159408761D01*
X93765428Y-159456380D01*
X93527333Y-159456380D01*
X93432095Y-159408761D01*
X93384476Y-159361142D01*
X94289238Y-158456380D02*
X94908285Y-158456380D01*
X94574952Y-158837333D01*
X94717809Y-158837333D01*
X94813047Y-158884952D01*
X94860666Y-158932571D01*
X94908285Y-159027809D01*
X94908285Y-159265904D01*
X94860666Y-159361142D01*
X94813047Y-159408761D01*
X94717809Y-159456380D01*
X94432095Y-159456380D01*
X94336857Y-159408761D01*
X94289238Y-159361142D01*
X76494095Y-158456380D02*
X77160761Y-158456380D01*
X76732190Y-159456380D01*
X77970285Y-158789714D02*
X77970285Y-159456380D01*
X77732190Y-158408761D02*
X77494095Y-159123047D01*
X78113142Y-159123047D01*
X78494095Y-159456380D02*
X78494095Y-158456380D01*
X78494095Y-158932571D02*
X79065523Y-158932571D01*
X79065523Y-159456380D02*
X79065523Y-158456380D01*
X80113142Y-159361142D02*
X80065523Y-159408761D01*
X79922666Y-159456380D01*
X79827428Y-159456380D01*
X79684571Y-159408761D01*
X79589333Y-159313523D01*
X79541714Y-159218285D01*
X79494095Y-159027809D01*
X79494095Y-158884952D01*
X79541714Y-158694476D01*
X79589333Y-158599238D01*
X79684571Y-158504000D01*
X79827428Y-158456380D01*
X79922666Y-158456380D01*
X80065523Y-158504000D01*
X80113142Y-158551619D01*
X81065523Y-159456380D02*
X80494095Y-159456380D01*
X80779809Y-159456380D02*
X80779809Y-158456380D01*
X80684571Y-158599238D01*
X80589333Y-158694476D01*
X80494095Y-158742095D01*
X81970285Y-158456380D02*
X81494095Y-158456380D01*
X81446476Y-158932571D01*
X81494095Y-158884952D01*
X81589333Y-158837333D01*
X81827428Y-158837333D01*
X81922666Y-158884952D01*
X81970285Y-158932571D01*
X82017904Y-159027809D01*
X82017904Y-159265904D01*
X81970285Y-159361142D01*
X81922666Y-159408761D01*
X81827428Y-159456380D01*
X81589333Y-159456380D01*
X81494095Y-159408761D01*
X81446476Y-159361142D01*
X82351238Y-158456380D02*
X82970285Y-158456380D01*
X82636952Y-158837333D01*
X82779809Y-158837333D01*
X82875047Y-158884952D01*
X82922666Y-158932571D01*
X82970285Y-159027809D01*
X82970285Y-159265904D01*
X82922666Y-159361142D01*
X82875047Y-159408761D01*
X82779809Y-159456380D01*
X82494095Y-159456380D01*
X82398857Y-159408761D01*
X82351238Y-159361142D01*
X104912666Y-164950000D02*
X105179333Y-164950000D01*
X105012666Y-164716666D02*
X105012666Y-165316666D01*
X105046000Y-165383333D01*
X105112666Y-165416666D01*
X105179333Y-165416666D01*
X105412666Y-165416666D02*
X105412666Y-164716666D01*
X105712666Y-165416666D02*
X105712666Y-165050000D01*
X105679333Y-164983333D01*
X105612666Y-164950000D01*
X105512666Y-164950000D01*
X105446000Y-164983333D01*
X105412666Y-165016666D01*
X106312666Y-165383333D02*
X106246000Y-165416666D01*
X106112666Y-165416666D01*
X106046000Y-165383333D01*
X106012666Y-165316666D01*
X106012666Y-165050000D01*
X106046000Y-164983333D01*
X106112666Y-164950000D01*
X106246000Y-164950000D01*
X106312666Y-164983333D01*
X106346000Y-165050000D01*
X106346000Y-165116666D01*
X106012666Y-165183333D01*
X106579333Y-164716666D02*
X106746000Y-165416666D01*
X106879333Y-164916666D01*
X107012666Y-165416666D01*
X107179333Y-164716666D01*
X107446000Y-165416666D02*
X107446000Y-164950000D01*
X107446000Y-164716666D02*
X107412666Y-164750000D01*
X107446000Y-164783333D01*
X107479333Y-164750000D01*
X107446000Y-164716666D01*
X107446000Y-164783333D01*
X108079333Y-165383333D02*
X108012666Y-165416666D01*
X107879333Y-165416666D01*
X107812666Y-165383333D01*
X107779333Y-165350000D01*
X107746000Y-165283333D01*
X107746000Y-165083333D01*
X107779333Y-165016666D01*
X107812666Y-164983333D01*
X107879333Y-164950000D01*
X108012666Y-164950000D01*
X108079333Y-164983333D01*
X108379333Y-165416666D02*
X108379333Y-164716666D01*
X108446000Y-165150000D02*
X108646000Y-165416666D01*
X108646000Y-164950000D02*
X108379333Y-165216666D01*
X109212666Y-165383333D02*
X109146000Y-165416666D01*
X109012666Y-165416666D01*
X108946000Y-165383333D01*
X108912666Y-165316666D01*
X108912666Y-165050000D01*
X108946000Y-164983333D01*
X109012666Y-164950000D01*
X109146000Y-164950000D01*
X109212666Y-164983333D01*
X109246000Y-165050000D01*
X109246000Y-165116666D01*
X108912666Y-165183333D01*
X109846000Y-165416666D02*
X109846000Y-164716666D01*
X109846000Y-165383333D02*
X109779333Y-165416666D01*
X109646000Y-165416666D01*
X109579333Y-165383333D01*
X109546000Y-165350000D01*
X109512666Y-165283333D01*
X109512666Y-165083333D01*
X109546000Y-165016666D01*
X109579333Y-164983333D01*
X109646000Y-164950000D01*
X109779333Y-164950000D01*
X109846000Y-164983333D01*
X110112666Y-164716666D02*
X110279333Y-165416666D01*
X110412666Y-164916666D01*
X110546000Y-165416666D01*
X110712666Y-164716666D01*
X111246000Y-165383333D02*
X111179333Y-165416666D01*
X111046000Y-165416666D01*
X110979333Y-165383333D01*
X110946000Y-165316666D01*
X110946000Y-165050000D01*
X110979333Y-164983333D01*
X111046000Y-164950000D01*
X111179333Y-164950000D01*
X111246000Y-164983333D01*
X111279333Y-165050000D01*
X111279333Y-165116666D01*
X110946000Y-165183333D01*
X111579333Y-165416666D02*
X111579333Y-164716666D01*
X111579333Y-164983333D02*
X111646000Y-164950000D01*
X111779333Y-164950000D01*
X111846000Y-164983333D01*
X111879333Y-165016666D01*
X111912666Y-165083333D01*
X111912666Y-165283333D01*
X111879333Y-165350000D01*
X111846000Y-165383333D01*
X111779333Y-165416666D01*
X111646000Y-165416666D01*
X111579333Y-165383333D01*
X112212666Y-165416666D02*
X112212666Y-164716666D01*
X112379333Y-164716666D01*
X112479333Y-164750000D01*
X112546000Y-164816666D01*
X112579333Y-164883333D01*
X112612666Y-165016666D01*
X112612666Y-165116666D01*
X112579333Y-165250000D01*
X112546000Y-165316666D01*
X112479333Y-165383333D01*
X112379333Y-165416666D01*
X112212666Y-165416666D01*
X113179333Y-165383333D02*
X113112666Y-165416666D01*
X112979333Y-165416666D01*
X112912666Y-165383333D01*
X112879333Y-165316666D01*
X112879333Y-165050000D01*
X112912666Y-164983333D01*
X112979333Y-164950000D01*
X113112666Y-164950000D01*
X113179333Y-164983333D01*
X113212666Y-165050000D01*
X113212666Y-165116666D01*
X112879333Y-165183333D01*
X113446000Y-164950000D02*
X113612666Y-165416666D01*
X113779333Y-164950000D01*
X114546000Y-164683333D02*
X113946000Y-165583333D01*
X114879333Y-165016666D02*
X114812666Y-164983333D01*
X114779333Y-164950000D01*
X114746000Y-164883333D01*
X114746000Y-164850000D01*
X114779333Y-164783333D01*
X114812666Y-164750000D01*
X114879333Y-164716666D01*
X115012666Y-164716666D01*
X115079333Y-164750000D01*
X115112666Y-164783333D01*
X115146000Y-164850000D01*
X115146000Y-164883333D01*
X115112666Y-164950000D01*
X115079333Y-164983333D01*
X115012666Y-165016666D01*
X114879333Y-165016666D01*
X114812666Y-165050000D01*
X114779333Y-165083333D01*
X114746000Y-165150000D01*
X114746000Y-165283333D01*
X114779333Y-165350000D01*
X114812666Y-165383333D01*
X114879333Y-165416666D01*
X115012666Y-165416666D01*
X115079333Y-165383333D01*
X115112666Y-165350000D01*
X115146000Y-165283333D01*
X115146000Y-165150000D01*
X115112666Y-165083333D01*
X115079333Y-165050000D01*
X115012666Y-165016666D01*
X115446000Y-165150000D02*
X115979333Y-165150000D01*
X116312666Y-165416666D02*
X116312666Y-164716666D01*
X116312666Y-164983333D02*
X116379333Y-164950000D01*
X116512666Y-164950000D01*
X116579333Y-164983333D01*
X116612666Y-165016666D01*
X116646000Y-165083333D01*
X116646000Y-165283333D01*
X116612666Y-165350000D01*
X116579333Y-165383333D01*
X116512666Y-165416666D01*
X116379333Y-165416666D01*
X116312666Y-165383333D01*
X116946000Y-165416666D02*
X116946000Y-164950000D01*
X116946000Y-164716666D02*
X116912666Y-164750000D01*
X116946000Y-164783333D01*
X116979333Y-164750000D01*
X116946000Y-164716666D01*
X116946000Y-164783333D01*
X117179333Y-164950000D02*
X117446000Y-164950000D01*
X117279333Y-164716666D02*
X117279333Y-165316666D01*
X117312666Y-165383333D01*
X117379333Y-165416666D01*
X117446000Y-165416666D01*
X117679333Y-165150000D02*
X118212666Y-165150000D01*
X118846000Y-165383333D02*
X118779333Y-165416666D01*
X118646000Y-165416666D01*
X118579333Y-165383333D01*
X118546000Y-165350000D01*
X118512666Y-165283333D01*
X118512666Y-165083333D01*
X118546000Y-165016666D01*
X118579333Y-164983333D01*
X118646000Y-164950000D01*
X118779333Y-164950000D01*
X118846000Y-164983333D01*
X119246000Y-165416666D02*
X119179333Y-165383333D01*
X119146000Y-165350000D01*
X119112666Y-165283333D01*
X119112666Y-165083333D01*
X119146000Y-165016666D01*
X119179333Y-164983333D01*
X119246000Y-164950000D01*
X119346000Y-164950000D01*
X119412666Y-164983333D01*
X119446000Y-165016666D01*
X119479333Y-165083333D01*
X119479333Y-165283333D01*
X119446000Y-165350000D01*
X119412666Y-165383333D01*
X119346000Y-165416666D01*
X119246000Y-165416666D01*
X119779333Y-165416666D02*
X119779333Y-164950000D01*
X119779333Y-165016666D02*
X119812666Y-164983333D01*
X119879333Y-164950000D01*
X119979333Y-164950000D01*
X120046000Y-164983333D01*
X120079333Y-165050000D01*
X120079333Y-165416666D01*
X120079333Y-165050000D02*
X120112666Y-164983333D01*
X120179333Y-164950000D01*
X120279333Y-164950000D01*
X120346000Y-164983333D01*
X120379333Y-165050000D01*
X120379333Y-165416666D01*
X120712666Y-164950000D02*
X120712666Y-165650000D01*
X120712666Y-164983333D02*
X120779333Y-164950000D01*
X120912666Y-164950000D01*
X120979333Y-164983333D01*
X121012666Y-165016666D01*
X121046000Y-165083333D01*
X121046000Y-165283333D01*
X121012666Y-165350000D01*
X120979333Y-165383333D01*
X120912666Y-165416666D01*
X120779333Y-165416666D01*
X120712666Y-165383333D01*
X121646000Y-164950000D02*
X121646000Y-165416666D01*
X121346000Y-164950000D02*
X121346000Y-165316666D01*
X121379333Y-165383333D01*
X121446000Y-165416666D01*
X121546000Y-165416666D01*
X121612666Y-165383333D01*
X121646000Y-165350000D01*
X121879333Y-164950000D02*
X122146000Y-164950000D01*
X121979333Y-164716666D02*
X121979333Y-165316666D01*
X122012666Y-165383333D01*
X122079333Y-165416666D01*
X122146000Y-165416666D01*
X122646000Y-165383333D02*
X122579333Y-165416666D01*
X122446000Y-165416666D01*
X122379333Y-165383333D01*
X122346000Y-165316666D01*
X122346000Y-165050000D01*
X122379333Y-164983333D01*
X122446000Y-164950000D01*
X122579333Y-164950000D01*
X122646000Y-164983333D01*
X122679333Y-165050000D01*
X122679333Y-165116666D01*
X122346000Y-165183333D01*
X122979333Y-165416666D02*
X122979333Y-164950000D01*
X122979333Y-165083333D02*
X123012666Y-165016666D01*
X123046000Y-164983333D01*
X123112666Y-164950000D01*
X123179333Y-164950000D01*
D11*
X75946000Y-155448000D02*
G75*
G03*
X75946000Y-155448000I0J0D01*
G01*
X87884000Y-155448000D02*
G75*
G03*
X87884000Y-155448000I0J0D01*
G01*
X99568000Y-155448000D02*
G75*
G03*
X99568000Y-155448000I0J0D01*
G01*
X111252000Y-155448000D02*
G75*
G03*
X111252000Y-155448000I0J0D01*
G01*
X123190000Y-155448000D02*
G75*
G03*
X123190000Y-155448000I0J0D01*
G01*
X125984000Y-144526000D02*
G75*
G03*
X125984000Y-144526000I0J0D01*
G01*
X119380000Y-141986000D02*
G75*
G03*
X119380000Y-141986000I0J0D01*
G01*
D10*
X108426952Y-163464761D02*
X107474571Y-163464761D01*
X107474571Y-161464761D01*
X109093619Y-163464761D02*
X109093619Y-161464761D01*
X109093619Y-162417142D02*
X110236476Y-162417142D01*
X110236476Y-163464761D02*
X110236476Y-161464761D01*
X111093619Y-163369523D02*
X111379333Y-163464761D01*
X111855523Y-163464761D01*
X112046000Y-163369523D01*
X112141238Y-163274285D01*
X112236476Y-163083809D01*
X112236476Y-162893333D01*
X112141238Y-162702857D01*
X112046000Y-162607619D01*
X111855523Y-162512380D01*
X111474571Y-162417142D01*
X111284095Y-162321904D01*
X111188857Y-162226666D01*
X111093619Y-162036190D01*
X111093619Y-161845714D01*
X111188857Y-161655238D01*
X111284095Y-161560000D01*
X111474571Y-161464761D01*
X111950761Y-161464761D01*
X112236476Y-161560000D01*
X114522190Y-163369523D02*
X114807904Y-163464761D01*
X115284095Y-163464761D01*
X115474571Y-163369523D01*
X115569809Y-163274285D01*
X115665047Y-163083809D01*
X115665047Y-162893333D01*
X115569809Y-162702857D01*
X115474571Y-162607619D01*
X115284095Y-162512380D01*
X114903142Y-162417142D01*
X114712666Y-162321904D01*
X114617428Y-162226666D01*
X114522190Y-162036190D01*
X114522190Y-161845714D01*
X114617428Y-161655238D01*
X114712666Y-161560000D01*
X114903142Y-161464761D01*
X115379333Y-161464761D01*
X115665047Y-161560000D01*
X116522190Y-163464761D02*
X116522190Y-161464761D01*
X117379333Y-163464761D02*
X117379333Y-162417142D01*
X117284095Y-162226666D01*
X117093619Y-162131428D01*
X116807904Y-162131428D01*
X116617428Y-162226666D01*
X116522190Y-162321904D01*
X118331714Y-163464761D02*
X118331714Y-162131428D01*
X118331714Y-161464761D02*
X118236476Y-161560000D01*
X118331714Y-161655238D01*
X118426952Y-161560000D01*
X118331714Y-161464761D01*
X118331714Y-161655238D01*
X118998380Y-162131428D02*
X119760285Y-162131428D01*
X119284095Y-163464761D02*
X119284095Y-161750476D01*
X119379333Y-161560000D01*
X119569809Y-161464761D01*
X119760285Y-161464761D01*
X120141238Y-162131428D02*
X120903142Y-162131428D01*
X120426952Y-161464761D02*
X120426952Y-163179047D01*
X120522190Y-163369523D01*
X120712666Y-163464761D01*
X120903142Y-163464761D01*
X96877142Y-136383476D02*
X96924761Y-136431095D01*
X96972380Y-136573952D01*
X96972380Y-136669190D01*
X96924761Y-136812047D01*
X96829523Y-136907285D01*
X96734285Y-136954904D01*
X96543809Y-137002523D01*
X96400952Y-137002523D01*
X96210476Y-136954904D01*
X96115238Y-136907285D01*
X96020000Y-136812047D01*
X95972380Y-136669190D01*
X95972380Y-136573952D01*
X96020000Y-136431095D01*
X96067619Y-136383476D01*
X96972380Y-135954904D02*
X95972380Y-135954904D01*
X95972380Y-135573952D01*
X96020000Y-135478714D01*
X96067619Y-135431095D01*
X96162857Y-135383476D01*
X96305714Y-135383476D01*
X96400952Y-135431095D01*
X96448571Y-135478714D01*
X96496190Y-135573952D01*
X96496190Y-135954904D01*
X94432380Y-138193000D02*
X94432380Y-138669190D01*
X93432380Y-138669190D01*
X93432380Y-137669190D02*
X93432380Y-137478714D01*
X93480000Y-137383476D01*
X93575238Y-137288238D01*
X93765714Y-137240619D01*
X94099047Y-137240619D01*
X94289523Y-137288238D01*
X94384761Y-137383476D01*
X94432380Y-137478714D01*
X94432380Y-137669190D01*
X94384761Y-137764428D01*
X94289523Y-137859666D01*
X94099047Y-137907285D01*
X93765714Y-137907285D01*
X93575238Y-137859666D01*
X93480000Y-137764428D01*
X93432380Y-137669190D01*
X94146666Y-136859666D02*
X94146666Y-136383476D01*
X94432380Y-136954904D02*
X93432380Y-136621571D01*
X94432380Y-136288238D01*
X94432380Y-135954904D02*
X93432380Y-135954904D01*
X93432380Y-135716809D01*
X93480000Y-135573952D01*
X93575238Y-135478714D01*
X93670476Y-135431095D01*
X93860952Y-135383476D01*
X94003809Y-135383476D01*
X94194285Y-135431095D01*
X94289523Y-135478714D01*
X94384761Y-135573952D01*
X94432380Y-135716809D01*
X94432380Y-135954904D01*
X134286666Y-163282380D02*
X134953333Y-163282380D01*
X134524761Y-164282380D01*
X142756095Y-142406666D02*
X143232285Y-142406666D01*
X142660857Y-142692380D02*
X142994190Y-141692380D01*
X143327523Y-142692380D01*
X143660857Y-142692380D02*
X143660857Y-141692380D01*
X144232285Y-142692380D01*
X144232285Y-141692380D01*
X144708476Y-142692380D02*
X144708476Y-141692380D01*
X144946571Y-141692380D01*
X145089428Y-141740000D01*
X145184666Y-141835238D01*
X145232285Y-141930476D01*
X145279904Y-142120952D01*
X145279904Y-142263809D01*
X145232285Y-142454285D01*
X145184666Y-142549523D01*
X145089428Y-142644761D01*
X144946571Y-142692380D01*
X144708476Y-142692380D01*
X152447619Y-164377619D02*
X152352380Y-164377619D01*
X152257142Y-164330000D01*
X152209523Y-164282380D01*
X152161904Y-164187142D01*
X152114285Y-163996666D01*
X152114285Y-163758571D01*
X152161904Y-163568095D01*
X152209523Y-163472857D01*
X152257142Y-163425238D01*
X152352380Y-163377619D01*
X152447619Y-163377619D01*
X152542857Y-163425238D01*
X152590476Y-163472857D01*
X152638095Y-163568095D01*
X152685714Y-163758571D01*
X152685714Y-163996666D01*
X152638095Y-164187142D01*
X152590476Y-164282380D01*
X152542857Y-164330000D01*
X152447619Y-164377619D01*
X125262095Y-147534380D02*
X125928761Y-147534380D01*
X125500190Y-148534380D01*
X126738285Y-147867714D02*
X126738285Y-148534380D01*
X126500190Y-147486761D02*
X126262095Y-148201047D01*
X126881142Y-148201047D01*
X127262095Y-148534380D02*
X127262095Y-147534380D01*
X127262095Y-148010571D02*
X127833523Y-148010571D01*
X127833523Y-148534380D02*
X127833523Y-147534380D01*
X128881142Y-148439142D02*
X128833523Y-148486761D01*
X128690666Y-148534380D01*
X128595428Y-148534380D01*
X128452571Y-148486761D01*
X128357333Y-148391523D01*
X128309714Y-148296285D01*
X128262095Y-148105809D01*
X128262095Y-147962952D01*
X128309714Y-147772476D01*
X128357333Y-147677238D01*
X128452571Y-147582000D01*
X128595428Y-147534380D01*
X128690666Y-147534380D01*
X128833523Y-147582000D01*
X128881142Y-147629619D01*
X129262095Y-147629619D02*
X129309714Y-147582000D01*
X129404952Y-147534380D01*
X129643047Y-147534380D01*
X129738285Y-147582000D01*
X129785904Y-147629619D01*
X129833523Y-147724857D01*
X129833523Y-147820095D01*
X129785904Y-147962952D01*
X129214476Y-148534380D01*
X129833523Y-148534380D01*
X130690666Y-147867714D02*
X130690666Y-148534380D01*
X130452571Y-147486761D02*
X130214476Y-148201047D01*
X130833523Y-148201047D01*
X131690666Y-147534380D02*
X131214476Y-147534380D01*
X131166857Y-148010571D01*
X131214476Y-147962952D01*
X131309714Y-147915333D01*
X131547809Y-147915333D01*
X131643047Y-147962952D01*
X131690666Y-148010571D01*
X131738285Y-148105809D01*
X131738285Y-148343904D01*
X131690666Y-148439142D01*
X131643047Y-148486761D01*
X131547809Y-148534380D01*
X131309714Y-148534380D01*
X131214476Y-148486761D01*
X131166857Y-148439142D01*
X112943142Y-147534380D02*
X113609809Y-147534380D01*
X113181238Y-148534380D01*
X114419333Y-147867714D02*
X114419333Y-148534380D01*
X114181238Y-147486761D02*
X113943142Y-148201047D01*
X114562190Y-148201047D01*
X114943142Y-148534380D02*
X114943142Y-147534380D01*
X114943142Y-148010571D02*
X115514571Y-148010571D01*
X115514571Y-148534380D02*
X115514571Y-147534380D01*
X116562190Y-148439142D02*
X116514571Y-148486761D01*
X116371714Y-148534380D01*
X116276476Y-148534380D01*
X116133619Y-148486761D01*
X116038380Y-148391523D01*
X115990761Y-148296285D01*
X115943142Y-148105809D01*
X115943142Y-147962952D01*
X115990761Y-147772476D01*
X116038380Y-147677238D01*
X116133619Y-147582000D01*
X116276476Y-147534380D01*
X116371714Y-147534380D01*
X116514571Y-147582000D01*
X116562190Y-147629619D01*
X116847904Y-147534380D02*
X117419333Y-147534380D01*
X117133619Y-148534380D02*
X117133619Y-147534380D01*
X118228857Y-147534380D02*
X117752666Y-147534380D01*
X117705047Y-148010571D01*
X117752666Y-147962952D01*
X117847904Y-147915333D01*
X118086000Y-147915333D01*
X118181238Y-147962952D01*
X118228857Y-148010571D01*
X118276476Y-148105809D01*
X118276476Y-148343904D01*
X118228857Y-148439142D01*
X118181238Y-148486761D01*
X118086000Y-148534380D01*
X117847904Y-148534380D01*
X117752666Y-148486761D01*
X117705047Y-148439142D01*
X118609809Y-147534380D02*
X119276476Y-147534380D01*
X118847904Y-148534380D01*
X120086000Y-147867714D02*
X120086000Y-148534380D01*
X119847904Y-147486761D02*
X119609809Y-148201047D01*
X120228857Y-148201047D01*
X139938095Y-163282380D02*
X139461904Y-163282380D01*
X139414285Y-163758571D01*
X139461904Y-163710952D01*
X139557142Y-163663333D01*
X139795238Y-163663333D01*
X139890476Y-163710952D01*
X139938095Y-163758571D01*
X139985714Y-163853809D01*
X139985714Y-164091904D01*
X139938095Y-164187142D01*
X139890476Y-164234761D01*
X139795238Y-164282380D01*
X139557142Y-164282380D01*
X139461904Y-164234761D01*
X139414285Y-164187142D01*
X89352380Y-138494619D02*
X89352380Y-138970809D01*
X88352380Y-138970809D01*
X89352380Y-138161285D02*
X88352380Y-138161285D01*
X88828571Y-138161285D02*
X88828571Y-137589857D01*
X89352380Y-137589857D02*
X88352380Y-137589857D01*
X89304761Y-137161285D02*
X89352380Y-137018428D01*
X89352380Y-136780333D01*
X89304761Y-136685095D01*
X89257142Y-136637476D01*
X89161904Y-136589857D01*
X89066666Y-136589857D01*
X88971428Y-136637476D01*
X88923809Y-136685095D01*
X88876190Y-136780333D01*
X88828571Y-136970809D01*
X88780952Y-137066047D01*
X88733333Y-137113666D01*
X88638095Y-137161285D01*
X88542857Y-137161285D01*
X88447619Y-137113666D01*
X88400000Y-137066047D01*
X88352380Y-136970809D01*
X88352380Y-136732714D01*
X88400000Y-136589857D01*
X88352380Y-135970809D02*
X88352380Y-135875571D01*
X88400000Y-135780333D01*
X88447619Y-135732714D01*
X88542857Y-135685095D01*
X88733333Y-135637476D01*
X88971428Y-135637476D01*
X89161904Y-135685095D01*
X89257142Y-135732714D01*
X89304761Y-135780333D01*
X89352380Y-135875571D01*
X89352380Y-135970809D01*
X89304761Y-136066047D01*
X89257142Y-136113666D01*
X89161904Y-136161285D01*
X88971428Y-136208904D01*
X88733333Y-136208904D01*
X88542857Y-136161285D01*
X88447619Y-136113666D01*
X88400000Y-136066047D01*
X88352380Y-135970809D01*
X142430476Y-163615714D02*
X142430476Y-164282380D01*
X142192380Y-163234761D02*
X141954285Y-163949047D01*
X142573333Y-163949047D01*
X120967619Y-138029904D02*
X120967619Y-137229904D01*
X121424761Y-138029904D01*
X121424761Y-137229904D01*
X121958095Y-137229904D02*
X122110476Y-137229904D01*
X122186666Y-137268000D01*
X122262857Y-137344190D01*
X122300952Y-137496571D01*
X122300952Y-137763238D01*
X122262857Y-137915619D01*
X122186666Y-137991809D01*
X122110476Y-138029904D01*
X121958095Y-138029904D01*
X121881904Y-137991809D01*
X121805714Y-137915619D01*
X121767619Y-137763238D01*
X121767619Y-137496571D01*
X121805714Y-137344190D01*
X121881904Y-137268000D01*
X121958095Y-137229904D01*
X122529523Y-137229904D02*
X122986666Y-137229904D01*
X122758095Y-138029904D02*
X122758095Y-137229904D01*
X150145714Y-164282380D02*
X149574285Y-164282380D01*
X149860000Y-164282380D02*
X149860000Y-163282380D01*
X149764761Y-163425238D01*
X149669523Y-163520476D01*
X149574285Y-163568095D01*
X78240000Y-137748619D02*
X78192380Y-137843857D01*
X78192380Y-137986714D01*
X78240000Y-138129571D01*
X78335238Y-138224809D01*
X78430476Y-138272428D01*
X78620952Y-138320047D01*
X78763809Y-138320047D01*
X78954285Y-138272428D01*
X79049523Y-138224809D01*
X79144761Y-138129571D01*
X79192380Y-137986714D01*
X79192380Y-137891476D01*
X79144761Y-137748619D01*
X79097142Y-137701000D01*
X78763809Y-137701000D01*
X78763809Y-137891476D01*
X78525714Y-137272428D02*
X79192380Y-137272428D01*
X78620952Y-137272428D02*
X78573333Y-137224809D01*
X78525714Y-137129571D01*
X78525714Y-136986714D01*
X78573333Y-136891476D01*
X78668571Y-136843857D01*
X79192380Y-136843857D01*
X79192380Y-135939095D02*
X78192380Y-135939095D01*
X79144761Y-135939095D02*
X79192380Y-136034333D01*
X79192380Y-136224809D01*
X79144761Y-136320047D01*
X79097142Y-136367666D01*
X79001904Y-136415285D01*
X78716190Y-136415285D01*
X78620952Y-136367666D01*
X78573333Y-136320047D01*
X78525714Y-136224809D01*
X78525714Y-136034333D01*
X78573333Y-135939095D01*
X81637142Y-136367666D02*
X81684761Y-136415285D01*
X81732380Y-136558142D01*
X81732380Y-136653380D01*
X81684761Y-136796238D01*
X81589523Y-136891476D01*
X81494285Y-136939095D01*
X81303809Y-136986714D01*
X81160952Y-136986714D01*
X80970476Y-136939095D01*
X80875238Y-136891476D01*
X80780000Y-136796238D01*
X80732380Y-136653380D01*
X80732380Y-136558142D01*
X80780000Y-136415285D01*
X80827619Y-136367666D01*
X81732380Y-135939095D02*
X80732380Y-135939095D01*
X84177142Y-136939095D02*
X84224761Y-136986714D01*
X84272380Y-137129571D01*
X84272380Y-137224809D01*
X84224761Y-137367666D01*
X84129523Y-137462904D01*
X84034285Y-137510523D01*
X83843809Y-137558142D01*
X83700952Y-137558142D01*
X83510476Y-137510523D01*
X83415238Y-137462904D01*
X83320000Y-137367666D01*
X83272380Y-137224809D01*
X83272380Y-137129571D01*
X83320000Y-136986714D01*
X83367619Y-136939095D01*
X83272380Y-136320047D02*
X83272380Y-136129571D01*
X83320000Y-136034333D01*
X83415238Y-135939095D01*
X83605714Y-135891476D01*
X83939047Y-135891476D01*
X84129523Y-135939095D01*
X84224761Y-136034333D01*
X84272380Y-136129571D01*
X84272380Y-136320047D01*
X84224761Y-136415285D01*
X84129523Y-136510523D01*
X83939047Y-136558142D01*
X83605714Y-136558142D01*
X83415238Y-136510523D01*
X83320000Y-136415285D01*
X83272380Y-136320047D01*
X94305428Y-163908047D02*
X94257809Y-164050904D01*
X94210190Y-164098523D01*
X94114952Y-164146142D01*
X93972095Y-164146142D01*
X93876857Y-164098523D01*
X93829238Y-164050904D01*
X93781619Y-163955666D01*
X93781619Y-163574714D01*
X94781619Y-163574714D01*
X94781619Y-163908047D01*
X94734000Y-164003285D01*
X94686380Y-164050904D01*
X94591142Y-164098523D01*
X94495904Y-164098523D01*
X94400666Y-164050904D01*
X94353047Y-164003285D01*
X94305428Y-163908047D01*
X94305428Y-163574714D01*
X94781619Y-164765190D02*
X94781619Y-164860428D01*
X94734000Y-164955666D01*
X94686380Y-165003285D01*
X94591142Y-165050904D01*
X94400666Y-165098523D01*
X94162571Y-165098523D01*
X93972095Y-165050904D01*
X93876857Y-165003285D01*
X93829238Y-164955666D01*
X93781619Y-164860428D01*
X93781619Y-164765190D01*
X93829238Y-164669952D01*
X93876857Y-164622333D01*
X93972095Y-164574714D01*
X94162571Y-164527095D01*
X94400666Y-164527095D01*
X94591142Y-164574714D01*
X94686380Y-164622333D01*
X94734000Y-164669952D01*
X94781619Y-164765190D01*
X76525428Y-163908047D02*
X76477809Y-164050904D01*
X76430190Y-164098523D01*
X76334952Y-164146142D01*
X76192095Y-164146142D01*
X76096857Y-164098523D01*
X76049238Y-164050904D01*
X76001619Y-163955666D01*
X76001619Y-163574714D01*
X77001619Y-163574714D01*
X77001619Y-163908047D01*
X76954000Y-164003285D01*
X76906380Y-164050904D01*
X76811142Y-164098523D01*
X76715904Y-164098523D01*
X76620666Y-164050904D01*
X76573047Y-164003285D01*
X76525428Y-163908047D01*
X76525428Y-163574714D01*
X77001619Y-164479476D02*
X77001619Y-165146142D01*
X76001619Y-164717571D01*
X137350476Y-163282380D02*
X137160000Y-163282380D01*
X137064761Y-163330000D01*
X137017142Y-163377619D01*
X136921904Y-163520476D01*
X136874285Y-163710952D01*
X136874285Y-164091904D01*
X136921904Y-164187142D01*
X136969523Y-164234761D01*
X137064761Y-164282380D01*
X137255238Y-164282380D01*
X137350476Y-164234761D01*
X137398095Y-164187142D01*
X137445714Y-164091904D01*
X137445714Y-163853809D01*
X137398095Y-163758571D01*
X137350476Y-163710952D01*
X137255238Y-163663333D01*
X137064761Y-163663333D01*
X136969523Y-163710952D01*
X136921904Y-163758571D01*
X136874285Y-163853809D01*
X91765428Y-163908047D02*
X91717809Y-164050904D01*
X91670190Y-164098523D01*
X91574952Y-164146142D01*
X91432095Y-164146142D01*
X91336857Y-164098523D01*
X91289238Y-164050904D01*
X91241619Y-163955666D01*
X91241619Y-163574714D01*
X92241619Y-163574714D01*
X92241619Y-163908047D01*
X92194000Y-164003285D01*
X92146380Y-164050904D01*
X92051142Y-164098523D01*
X91955904Y-164098523D01*
X91860666Y-164050904D01*
X91813047Y-164003285D01*
X91765428Y-163908047D01*
X91765428Y-163574714D01*
X91241619Y-165098523D02*
X91241619Y-164527095D01*
X91241619Y-164812809D02*
X92241619Y-164812809D01*
X92098761Y-164717571D01*
X92003523Y-164622333D01*
X91955904Y-164527095D01*
X89225428Y-163908047D02*
X89177809Y-164050904D01*
X89130190Y-164098523D01*
X89034952Y-164146142D01*
X88892095Y-164146142D01*
X88796857Y-164098523D01*
X88749238Y-164050904D01*
X88701619Y-163955666D01*
X88701619Y-163574714D01*
X89701619Y-163574714D01*
X89701619Y-163908047D01*
X89654000Y-164003285D01*
X89606380Y-164050904D01*
X89511142Y-164098523D01*
X89415904Y-164098523D01*
X89320666Y-164050904D01*
X89273047Y-164003285D01*
X89225428Y-163908047D01*
X89225428Y-163574714D01*
X89606380Y-164527095D02*
X89654000Y-164574714D01*
X89701619Y-164669952D01*
X89701619Y-164908047D01*
X89654000Y-165003285D01*
X89606380Y-165050904D01*
X89511142Y-165098523D01*
X89415904Y-165098523D01*
X89273047Y-165050904D01*
X88701619Y-164479476D01*
X88701619Y-165098523D01*
X84145428Y-163908047D02*
X84097809Y-164050904D01*
X84050190Y-164098523D01*
X83954952Y-164146142D01*
X83812095Y-164146142D01*
X83716857Y-164098523D01*
X83669238Y-164050904D01*
X83621619Y-163955666D01*
X83621619Y-163574714D01*
X84621619Y-163574714D01*
X84621619Y-163908047D01*
X84574000Y-164003285D01*
X84526380Y-164050904D01*
X84431142Y-164098523D01*
X84335904Y-164098523D01*
X84240666Y-164050904D01*
X84193047Y-164003285D01*
X84145428Y-163908047D01*
X84145428Y-163574714D01*
X84288285Y-165003285D02*
X83621619Y-165003285D01*
X84669238Y-164765190D02*
X83954952Y-164527095D01*
X83954952Y-165146142D01*
X90892380Y-137875571D02*
X90892380Y-137685095D01*
X90940000Y-137589857D01*
X91035238Y-137494619D01*
X91225714Y-137447000D01*
X91559047Y-137447000D01*
X91749523Y-137494619D01*
X91844761Y-137589857D01*
X91892380Y-137685095D01*
X91892380Y-137875571D01*
X91844761Y-137970809D01*
X91749523Y-138066047D01*
X91559047Y-138113666D01*
X91225714Y-138113666D01*
X91035238Y-138066047D01*
X90940000Y-137970809D01*
X90892380Y-137875571D01*
X90892380Y-137018428D02*
X91701904Y-137018428D01*
X91797142Y-136970809D01*
X91844761Y-136923190D01*
X91892380Y-136827952D01*
X91892380Y-136637476D01*
X91844761Y-136542238D01*
X91797142Y-136494619D01*
X91701904Y-136447000D01*
X90892380Y-136447000D01*
X90892380Y-136113666D02*
X90892380Y-135542238D01*
X91892380Y-135827952D02*
X90892380Y-135827952D01*
X86685428Y-163908047D02*
X86637809Y-164050904D01*
X86590190Y-164098523D01*
X86494952Y-164146142D01*
X86352095Y-164146142D01*
X86256857Y-164098523D01*
X86209238Y-164050904D01*
X86161619Y-163955666D01*
X86161619Y-163574714D01*
X87161619Y-163574714D01*
X87161619Y-163908047D01*
X87114000Y-164003285D01*
X87066380Y-164050904D01*
X86971142Y-164098523D01*
X86875904Y-164098523D01*
X86780666Y-164050904D01*
X86733047Y-164003285D01*
X86685428Y-163908047D01*
X86685428Y-163574714D01*
X87161619Y-164479476D02*
X87161619Y-165098523D01*
X86780666Y-164765190D01*
X86780666Y-164908047D01*
X86733047Y-165003285D01*
X86685428Y-165050904D01*
X86590190Y-165098523D01*
X86352095Y-165098523D01*
X86256857Y-165050904D01*
X86209238Y-165003285D01*
X86161619Y-164908047D01*
X86161619Y-164622333D01*
X86209238Y-164527095D01*
X86256857Y-164479476D01*
X75652380Y-138177190D02*
X76652380Y-137843857D01*
X75652380Y-137510523D01*
X76604761Y-136748619D02*
X76652380Y-136843857D01*
X76652380Y-137034333D01*
X76604761Y-137129571D01*
X76557142Y-137177190D01*
X76461904Y-137224809D01*
X76176190Y-137224809D01*
X76080952Y-137177190D01*
X76033333Y-137129571D01*
X75985714Y-137034333D01*
X75985714Y-136843857D01*
X76033333Y-136748619D01*
X76604761Y-135891476D02*
X76652380Y-135986714D01*
X76652380Y-136177190D01*
X76604761Y-136272428D01*
X76557142Y-136320047D01*
X76461904Y-136367666D01*
X76176190Y-136367666D01*
X76080952Y-136320047D01*
X76033333Y-136272428D01*
X75985714Y-136177190D01*
X75985714Y-135986714D01*
X76033333Y-135891476D01*
X86812380Y-138494619D02*
X86812380Y-138970809D01*
X85812380Y-138970809D01*
X86812380Y-138161285D02*
X85812380Y-138161285D01*
X86288571Y-138161285D02*
X86288571Y-137589857D01*
X86812380Y-137589857D02*
X85812380Y-137589857D01*
X86764761Y-137161285D02*
X86812380Y-137018428D01*
X86812380Y-136780333D01*
X86764761Y-136685095D01*
X86717142Y-136637476D01*
X86621904Y-136589857D01*
X86526666Y-136589857D01*
X86431428Y-136637476D01*
X86383809Y-136685095D01*
X86336190Y-136780333D01*
X86288571Y-136970809D01*
X86240952Y-137066047D01*
X86193333Y-137113666D01*
X86098095Y-137161285D01*
X86002857Y-137161285D01*
X85907619Y-137113666D01*
X85860000Y-137066047D01*
X85812380Y-136970809D01*
X85812380Y-136732714D01*
X85860000Y-136589857D01*
X86812380Y-135637476D02*
X86812380Y-136208904D01*
X86812380Y-135923190D02*
X85812380Y-135923190D01*
X85955238Y-136018428D01*
X86050476Y-136113666D01*
X86098095Y-136208904D01*
X147034285Y-163377619D02*
X147081904Y-163330000D01*
X147177142Y-163282380D01*
X147415238Y-163282380D01*
X147510476Y-163330000D01*
X147558095Y-163377619D01*
X147605714Y-163472857D01*
X147605714Y-163568095D01*
X147558095Y-163710952D01*
X146986666Y-164282380D01*
X147605714Y-164282380D01*
X81605428Y-163908047D02*
X81557809Y-164050904D01*
X81510190Y-164098523D01*
X81414952Y-164146142D01*
X81272095Y-164146142D01*
X81176857Y-164098523D01*
X81129238Y-164050904D01*
X81081619Y-163955666D01*
X81081619Y-163574714D01*
X82081619Y-163574714D01*
X82081619Y-163908047D01*
X82034000Y-164003285D01*
X81986380Y-164050904D01*
X81891142Y-164098523D01*
X81795904Y-164098523D01*
X81700666Y-164050904D01*
X81653047Y-164003285D01*
X81605428Y-163908047D01*
X81605428Y-163574714D01*
X82081619Y-165050904D02*
X82081619Y-164574714D01*
X81605428Y-164527095D01*
X81653047Y-164574714D01*
X81700666Y-164669952D01*
X81700666Y-164908047D01*
X81653047Y-165003285D01*
X81605428Y-165050904D01*
X81510190Y-165098523D01*
X81272095Y-165098523D01*
X81176857Y-165050904D01*
X81129238Y-165003285D01*
X81081619Y-164908047D01*
X81081619Y-164669952D01*
X81129238Y-164574714D01*
X81176857Y-164527095D01*
X79065428Y-163908047D02*
X79017809Y-164050904D01*
X78970190Y-164098523D01*
X78874952Y-164146142D01*
X78732095Y-164146142D01*
X78636857Y-164098523D01*
X78589238Y-164050904D01*
X78541619Y-163955666D01*
X78541619Y-163574714D01*
X79541619Y-163574714D01*
X79541619Y-163908047D01*
X79494000Y-164003285D01*
X79446380Y-164050904D01*
X79351142Y-164098523D01*
X79255904Y-164098523D01*
X79160666Y-164050904D01*
X79113047Y-164003285D01*
X79065428Y-163908047D01*
X79065428Y-163574714D01*
X79541619Y-165003285D02*
X79541619Y-164812809D01*
X79494000Y-164717571D01*
X79446380Y-164669952D01*
X79303523Y-164574714D01*
X79113047Y-164527095D01*
X78732095Y-164527095D01*
X78636857Y-164574714D01*
X78589238Y-164622333D01*
X78541619Y-164717571D01*
X78541619Y-164908047D01*
X78589238Y-165003285D01*
X78636857Y-165050904D01*
X78732095Y-165098523D01*
X78970190Y-165098523D01*
X79065428Y-165050904D01*
X79113047Y-165003285D01*
X79160666Y-164908047D01*
X79160666Y-164717571D01*
X79113047Y-164622333D01*
X79065428Y-164574714D01*
X78970190Y-164527095D01*
X144446666Y-163282380D02*
X145065714Y-163282380D01*
X144732380Y-163663333D01*
X144875238Y-163663333D01*
X144970476Y-163710952D01*
X145018095Y-163758571D01*
X145065714Y-163853809D01*
X145065714Y-164091904D01*
X145018095Y-164187142D01*
X144970476Y-164234761D01*
X144875238Y-164282380D01*
X144589523Y-164282380D01*
X144494285Y-164234761D01*
X144446666Y-164187142D01*
D12*
%TO.C,U9*%
X90705000Y-146785064D02*
X90705000Y-146330936D01*
X92175000Y-146785064D02*
X92175000Y-146330936D01*
%TO.C,U8*%
X90305000Y-140640000D02*
X90305000Y-144525000D01*
X90305000Y-144525000D02*
X92575000Y-144525000D01*
X92575000Y-144525000D02*
X92575000Y-140640000D01*
%TO.C,U4*%
X80037000Y-142721064D02*
X80037000Y-142266936D01*
X81507000Y-142721064D02*
X81507000Y-142266936D01*
%TO.C,U23*%
X113201000Y-143256000D02*
X113201000Y-145456000D01*
X113201000Y-143256000D02*
X113201000Y-141056000D01*
X119971000Y-143256000D02*
X119971000Y-145456000D01*
X119971000Y-143256000D02*
X119971000Y-139656000D01*
%TO.C,U7*%
X93141500Y-146785064D02*
X93141500Y-146330936D01*
X94611500Y-146785064D02*
X94611500Y-146330936D01*
%TO.C,U3*%
X92845000Y-140640000D02*
X92845000Y-144525000D01*
X92845000Y-144525000D02*
X95115000Y-144525000D01*
X95115000Y-144525000D02*
X95115000Y-140640000D01*
%TO.C,U2*%
X83085000Y-146785064D02*
X83085000Y-146330936D01*
X84555000Y-146785064D02*
X84555000Y-146330936D01*
%TO.C,U1*%
X82685000Y-140640000D02*
X82685000Y-144525000D01*
X82685000Y-144525000D02*
X84955000Y-144525000D01*
X84955000Y-144525000D02*
X84955000Y-140640000D01*
%TO.C,U41*%
X85625000Y-146785064D02*
X85625000Y-146330936D01*
X87095000Y-146785064D02*
X87095000Y-146330936D01*
%TO.C,U40*%
X88165000Y-146785064D02*
X88165000Y-146330936D01*
X89635000Y-146785064D02*
X89635000Y-146330936D01*
%TO.C,U6*%
X77751000Y-142721064D02*
X77751000Y-142266936D01*
X79221000Y-142721064D02*
X79221000Y-142266936D01*
%TO.C,U5*%
X76935000Y-142266936D02*
X76935000Y-142721064D01*
X75465000Y-142266936D02*
X75465000Y-142721064D01*
%TO.C,R8*%
X153135000Y-156998936D02*
X153135000Y-157453064D01*
X151665000Y-156998936D02*
X151665000Y-157453064D01*
%TO.C,R7*%
X150595000Y-156998936D02*
X150595000Y-157453064D01*
X149125000Y-156998936D02*
X149125000Y-157453064D01*
%TO.C,R6*%
X148055000Y-156998936D02*
X148055000Y-157453064D01*
X146585000Y-156998936D02*
X146585000Y-157453064D01*
%TO.C,R5*%
X145515000Y-156998936D02*
X145515000Y-157453064D01*
X144045000Y-156998936D02*
X144045000Y-157453064D01*
%TO.C,R4*%
X142975000Y-156998936D02*
X142975000Y-157453064D01*
X141505000Y-156998936D02*
X141505000Y-157453064D01*
%TO.C,R3*%
X140435000Y-156998936D02*
X140435000Y-157453064D01*
X138965000Y-156998936D02*
X138965000Y-157453064D01*
%TO.C,R2*%
X137895000Y-156998936D02*
X137895000Y-157453064D01*
X136425000Y-156998936D02*
X136425000Y-157453064D01*
%TO.C,R1*%
X135355000Y-156998936D02*
X135355000Y-157453064D01*
X133885000Y-156998936D02*
X133885000Y-157453064D01*
%TO.C,R13*%
X125703000Y-134900936D02*
X125703000Y-135355064D01*
X124233000Y-134900936D02*
X124233000Y-135355064D01*
%TO.C,R12*%
X118137000Y-135355064D02*
X118137000Y-134900936D01*
X119607000Y-135355064D02*
X119607000Y-134900936D01*
%TO.C,R11*%
X146277064Y-137387000D02*
X145822936Y-137387000D01*
X146277064Y-135917000D02*
X145822936Y-135917000D01*
%TO.C,R10*%
X138457000Y-139927064D02*
X138457000Y-139472936D01*
X139927000Y-139927064D02*
X139927000Y-139472936D01*
%TO.C,R9*%
X142467064Y-137387000D02*
X142012936Y-137387000D01*
X142467064Y-135917000D02*
X142012936Y-135917000D01*
%TO.C,U39*%
X87495000Y-144525000D02*
X87495000Y-140640000D01*
X85225000Y-144525000D02*
X87495000Y-144525000D01*
X85225000Y-140640000D02*
X85225000Y-144525000D01*
%TO.C,Q3*%
X120340000Y-135888000D02*
X120340000Y-134428000D01*
X123500000Y-135888000D02*
X123500000Y-133728000D01*
X123500000Y-135888000D02*
X122570000Y-135888000D01*
X120340000Y-135888000D02*
X121270000Y-135888000D01*
%TO.C,U38*%
X90035000Y-144525000D02*
X90035000Y-140640000D01*
X87765000Y-144525000D02*
X90035000Y-144525000D01*
X87765000Y-140640000D02*
X87765000Y-144525000D01*
%TO.C,U32*%
X153535000Y-154685000D02*
X153535000Y-150800000D01*
X151265000Y-154685000D02*
X153535000Y-154685000D01*
X151265000Y-150800000D02*
X151265000Y-154685000D01*
%TO.C,U24*%
X125139000Y-143256000D02*
X125139000Y-146856000D01*
X125139000Y-143256000D02*
X125139000Y-141056000D01*
X131909000Y-143256000D02*
X131909000Y-145456000D01*
X131909000Y-143256000D02*
X131909000Y-141056000D01*
%TO.C,U26*%
X138295000Y-154685000D02*
X138295000Y-150800000D01*
X136025000Y-154685000D02*
X138295000Y-154685000D01*
X136025000Y-150800000D02*
X136025000Y-154685000D01*
%TO.C,U27*%
X140835000Y-154685000D02*
X140835000Y-150800000D01*
X138565000Y-154685000D02*
X140835000Y-154685000D01*
X138565000Y-150800000D02*
X138565000Y-154685000D01*
%TO.C,U28*%
X143375000Y-154685000D02*
X143375000Y-150800000D01*
X141105000Y-154685000D02*
X143375000Y-154685000D01*
X141105000Y-150800000D02*
X141105000Y-154685000D01*
%TO.C,U29*%
X145915000Y-154685000D02*
X145915000Y-150800000D01*
X143645000Y-154685000D02*
X145915000Y-154685000D01*
X143645000Y-150800000D02*
X143645000Y-154685000D01*
%TO.C,U25*%
X135755000Y-154685000D02*
X135755000Y-150800000D01*
X133485000Y-154685000D02*
X135755000Y-154685000D01*
X133485000Y-150800000D02*
X133485000Y-154685000D01*
%TO.C,U30*%
X148455000Y-154685000D02*
X148455000Y-150800000D01*
X146185000Y-154685000D02*
X148455000Y-154685000D01*
X146185000Y-150800000D02*
X146185000Y-154685000D01*
%TO.C,U31*%
X150995000Y-154685000D02*
X150995000Y-150800000D01*
X148725000Y-154685000D02*
X150995000Y-154685000D01*
X148725000Y-150800000D02*
X148725000Y-154685000D01*
%TO.C,U35*%
X108438000Y-154432000D02*
X108438000Y-152482000D01*
X108438000Y-154432000D02*
X108438000Y-156382000D01*
X98318000Y-154432000D02*
X98318000Y-152482000D01*
X98318000Y-154432000D02*
X98318000Y-157882000D01*
%TO.C,Q1*%
X140660000Y-140460000D02*
X141590000Y-140460000D01*
X143820000Y-140460000D02*
X142890000Y-140460000D01*
X143820000Y-140460000D02*
X143820000Y-138300000D01*
X140660000Y-140460000D02*
X140660000Y-139000000D01*
%TO.C,Q2*%
X144470000Y-140460000D02*
X145400000Y-140460000D01*
X147630000Y-140460000D02*
X146700000Y-140460000D01*
X147630000Y-140460000D02*
X147630000Y-138300000D01*
X144470000Y-140460000D02*
X144470000Y-139000000D01*
%TO.C,U34*%
X96754000Y-154432000D02*
X96754000Y-152482000D01*
X96754000Y-154432000D02*
X96754000Y-156382000D01*
X86634000Y-154432000D02*
X86634000Y-152482000D01*
X86634000Y-154432000D02*
X86634000Y-157882000D01*
%TO.C,U37*%
X132060000Y-154432000D02*
X132060000Y-152482000D01*
X132060000Y-154432000D02*
X132060000Y-156382000D01*
X121940000Y-154432000D02*
X121940000Y-152482000D01*
X121940000Y-154432000D02*
X121940000Y-157882000D01*
%TO.C,U33*%
X84816000Y-154432000D02*
X84816000Y-152482000D01*
X84816000Y-154432000D02*
X84816000Y-156382000D01*
X74696000Y-154432000D02*
X74696000Y-152482000D01*
X74696000Y-154432000D02*
X74696000Y-157882000D01*
%TO.C,U36*%
X120122000Y-154432000D02*
X120122000Y-152482000D01*
X120122000Y-154432000D02*
X120122000Y-156382000D01*
X110002000Y-154432000D02*
X110002000Y-152482000D01*
X110002000Y-154432000D02*
X110002000Y-157882000D01*
%TO.C,R13*%
D10*
X126307904Y-136747047D02*
X126307904Y-136251809D01*
X126612666Y-136518476D01*
X126612666Y-136404190D01*
X126650761Y-136328000D01*
X126688857Y-136289904D01*
X126765047Y-136251809D01*
X126955523Y-136251809D01*
X127031714Y-136289904D01*
X127069809Y-136328000D01*
X127107904Y-136404190D01*
X127107904Y-136632761D01*
X127069809Y-136708952D01*
X127031714Y-136747047D01*
X127031714Y-135908952D02*
X127069809Y-135870857D01*
X127107904Y-135908952D01*
X127069809Y-135947047D01*
X127031714Y-135908952D01*
X127107904Y-135908952D01*
X127107904Y-135489904D02*
X127107904Y-135337523D01*
X127069809Y-135261333D01*
X127031714Y-135223238D01*
X126917428Y-135147047D01*
X126765047Y-135108952D01*
X126460285Y-135108952D01*
X126384095Y-135147047D01*
X126346000Y-135185142D01*
X126307904Y-135261333D01*
X126307904Y-135413714D01*
X126346000Y-135489904D01*
X126384095Y-135528000D01*
X126460285Y-135566095D01*
X126650761Y-135566095D01*
X126726952Y-135528000D01*
X126765047Y-135489904D01*
X126803142Y-135413714D01*
X126803142Y-135261333D01*
X126765047Y-135185142D01*
X126726952Y-135147047D01*
X126650761Y-135108952D01*
X127107904Y-134766095D02*
X126307904Y-134766095D01*
X126803142Y-134689904D02*
X127107904Y-134461333D01*
X126574571Y-134461333D02*
X126879333Y-134766095D01*
X127107904Y-134156571D02*
X127107904Y-133966095D01*
X126955523Y-133966095D01*
X126917428Y-134042285D01*
X126841238Y-134118476D01*
X126726952Y-134156571D01*
X126536476Y-134156571D01*
X126422190Y-134118476D01*
X126346000Y-134042285D01*
X126307904Y-133928000D01*
X126307904Y-133775619D01*
X126346000Y-133661333D01*
X126422190Y-133585142D01*
X126536476Y-133547047D01*
X126726952Y-133547047D01*
X126841238Y-133585142D01*
X126917428Y-133661333D01*
X126955523Y-133737523D01*
X127107904Y-133737523D01*
X127107904Y-133547047D01*
%TO.C,R12*%
X117455904Y-136061333D02*
X117455904Y-136518476D01*
X117455904Y-136289904D02*
X116655904Y-136289904D01*
X116770190Y-136366095D01*
X116846380Y-136442285D01*
X116884476Y-136518476D01*
X116655904Y-135566095D02*
X116655904Y-135489904D01*
X116694000Y-135413714D01*
X116732095Y-135375619D01*
X116808285Y-135337523D01*
X116960666Y-135299428D01*
X117151142Y-135299428D01*
X117303523Y-135337523D01*
X117379714Y-135375619D01*
X117417809Y-135413714D01*
X117455904Y-135489904D01*
X117455904Y-135566095D01*
X117417809Y-135642285D01*
X117379714Y-135680380D01*
X117303523Y-135718476D01*
X117151142Y-135756571D01*
X116960666Y-135756571D01*
X116808285Y-135718476D01*
X116732095Y-135680380D01*
X116694000Y-135642285D01*
X116655904Y-135566095D01*
X117455904Y-134956571D02*
X116655904Y-134956571D01*
X117151142Y-134880380D02*
X117455904Y-134651809D01*
X116922571Y-134651809D02*
X117227333Y-134956571D01*
X117455904Y-134347047D02*
X117455904Y-134156571D01*
X117303523Y-134156571D01*
X117265428Y-134232761D01*
X117189238Y-134308952D01*
X117074952Y-134347047D01*
X116884476Y-134347047D01*
X116770190Y-134308952D01*
X116694000Y-134232761D01*
X116655904Y-134118476D01*
X116655904Y-133966095D01*
X116694000Y-133851809D01*
X116770190Y-133775619D01*
X116884476Y-133737523D01*
X117074952Y-133737523D01*
X117189238Y-133775619D01*
X117265428Y-133851809D01*
X117303523Y-133928000D01*
X117455904Y-133928000D01*
X117455904Y-133737523D01*
%TO.C,R11*%
X145116666Y-135235904D02*
X144659523Y-135235904D01*
X144888095Y-135235904D02*
X144888095Y-134435904D01*
X144811904Y-134550190D01*
X144735714Y-134626380D01*
X144659523Y-134664476D01*
X145611904Y-134435904D02*
X145688095Y-134435904D01*
X145764285Y-134474000D01*
X145802380Y-134512095D01*
X145840476Y-134588285D01*
X145878571Y-134740666D01*
X145878571Y-134931142D01*
X145840476Y-135083523D01*
X145802380Y-135159714D01*
X145764285Y-135197809D01*
X145688095Y-135235904D01*
X145611904Y-135235904D01*
X145535714Y-135197809D01*
X145497619Y-135159714D01*
X145459523Y-135083523D01*
X145421428Y-134931142D01*
X145421428Y-134740666D01*
X145459523Y-134588285D01*
X145497619Y-134512095D01*
X145535714Y-134474000D01*
X145611904Y-134435904D01*
X146221428Y-135235904D02*
X146221428Y-134435904D01*
X146297619Y-134931142D02*
X146526190Y-135235904D01*
X146526190Y-134702571D02*
X146221428Y-135007333D01*
X146830952Y-135235904D02*
X147021428Y-135235904D01*
X147021428Y-135083523D01*
X146945238Y-135045428D01*
X146869047Y-134969238D01*
X146830952Y-134854952D01*
X146830952Y-134664476D01*
X146869047Y-134550190D01*
X146945238Y-134474000D01*
X147059523Y-134435904D01*
X147211904Y-134435904D01*
X147326190Y-134474000D01*
X147402380Y-134550190D01*
X147440476Y-134664476D01*
X147440476Y-134854952D01*
X147402380Y-134969238D01*
X147326190Y-135045428D01*
X147250000Y-135083523D01*
X147250000Y-135235904D01*
X147440476Y-135235904D01*
%TO.C,R10*%
X138029904Y-140633333D02*
X138029904Y-141090476D01*
X138029904Y-140861904D02*
X137229904Y-140861904D01*
X137344190Y-140938095D01*
X137420380Y-141014285D01*
X137458476Y-141090476D01*
X137229904Y-140138095D02*
X137229904Y-140061904D01*
X137268000Y-139985714D01*
X137306095Y-139947619D01*
X137382285Y-139909523D01*
X137534666Y-139871428D01*
X137725142Y-139871428D01*
X137877523Y-139909523D01*
X137953714Y-139947619D01*
X137991809Y-139985714D01*
X138029904Y-140061904D01*
X138029904Y-140138095D01*
X137991809Y-140214285D01*
X137953714Y-140252380D01*
X137877523Y-140290476D01*
X137725142Y-140328571D01*
X137534666Y-140328571D01*
X137382285Y-140290476D01*
X137306095Y-140252380D01*
X137268000Y-140214285D01*
X137229904Y-140138095D01*
X138029904Y-139528571D02*
X137229904Y-139528571D01*
X137725142Y-139452380D02*
X138029904Y-139223809D01*
X137496571Y-139223809D02*
X137801333Y-139528571D01*
X138029904Y-138919047D02*
X138029904Y-138728571D01*
X137877523Y-138728571D01*
X137839428Y-138804761D01*
X137763238Y-138880952D01*
X137648952Y-138919047D01*
X137458476Y-138919047D01*
X137344190Y-138880952D01*
X137268000Y-138804761D01*
X137229904Y-138690476D01*
X137229904Y-138538095D01*
X137268000Y-138423809D01*
X137344190Y-138347619D01*
X137458476Y-138309523D01*
X137648952Y-138309523D01*
X137763238Y-138347619D01*
X137839428Y-138423809D01*
X137877523Y-138500000D01*
X138029904Y-138500000D01*
X138029904Y-138309523D01*
%TO.C,R9*%
X140620952Y-134435904D02*
X141116190Y-134435904D01*
X140849523Y-134740666D01*
X140963809Y-134740666D01*
X141040000Y-134778761D01*
X141078095Y-134816857D01*
X141116190Y-134893047D01*
X141116190Y-135083523D01*
X141078095Y-135159714D01*
X141040000Y-135197809D01*
X140963809Y-135235904D01*
X140735238Y-135235904D01*
X140659047Y-135197809D01*
X140620952Y-135159714D01*
X141459047Y-135159714D02*
X141497142Y-135197809D01*
X141459047Y-135235904D01*
X141420952Y-135197809D01*
X141459047Y-135159714D01*
X141459047Y-135235904D01*
X141878095Y-135235904D02*
X142030476Y-135235904D01*
X142106666Y-135197809D01*
X142144761Y-135159714D01*
X142220952Y-135045428D01*
X142259047Y-134893047D01*
X142259047Y-134588285D01*
X142220952Y-134512095D01*
X142182857Y-134474000D01*
X142106666Y-134435904D01*
X141954285Y-134435904D01*
X141878095Y-134474000D01*
X141840000Y-134512095D01*
X141801904Y-134588285D01*
X141801904Y-134778761D01*
X141840000Y-134854952D01*
X141878095Y-134893047D01*
X141954285Y-134931142D01*
X142106666Y-134931142D01*
X142182857Y-134893047D01*
X142220952Y-134854952D01*
X142259047Y-134778761D01*
X142601904Y-135235904D02*
X142601904Y-134435904D01*
X142678095Y-134931142D02*
X142906666Y-135235904D01*
X142906666Y-134702571D02*
X142601904Y-135007333D01*
X143211428Y-135235904D02*
X143401904Y-135235904D01*
X143401904Y-135083523D01*
X143325714Y-135045428D01*
X143249523Y-134969238D01*
X143211428Y-134854952D01*
X143211428Y-134664476D01*
X143249523Y-134550190D01*
X143325714Y-134474000D01*
X143440000Y-134435904D01*
X143592380Y-134435904D01*
X143706666Y-134474000D01*
X143782857Y-134550190D01*
X143820952Y-134664476D01*
X143820952Y-134854952D01*
X143782857Y-134969238D01*
X143706666Y-135045428D01*
X143630476Y-135083523D01*
X143630476Y-135235904D01*
X143820952Y-135235904D01*
%TD*%
M02*
