M48
; DRILL file {KiCad (6.0.0-0)} date Monday, February 14, 2022 at 10:32:40 PM
; FORMAT={-:-/ absolute / inch / decimal}
; #@! TF.CreationDate,2022-02-14T22:32:40-05:00
; #@! TF.GenerationSoftware,Kicad,Pcbnew,(6.0.0-0)
; #@! TF.FileFunction,Plated,1,4,PTH
FMAT,2
INCH
; #@! TA.AperFunction,Plated,PTH,ViaDrill
T1C0.0157
; #@! TA.AperFunction,Plated,PTH,ComponentDrill
T2C0.0394
%
G90
G05
T1
X3.4235Y-3.743
X3.43Y-4.0
X3.48Y-3.58
X3.49Y-3.48
X3.49Y-4.1
X3.51Y-4.2
X3.53Y-4.31
X3.54Y-3.58
X3.55Y-4.4
X3.5758Y-4.6831
X3.643Y-4.6622
X3.6487Y-4.2283
X3.677Y-4.682
X3.6853Y-4.2032
X3.7164Y-4.6879
X3.7268Y-4.1875
X3.7554Y-4.7052
X3.7674Y-4.1584
X3.7944Y-4.7184
X3.8022Y-3.1099
X3.8034Y-3.1599
X3.8054Y-3.065
X3.8054Y-3.2091
X3.8067Y-4.1204
X3.8069Y-3.2599
X3.8136Y-3.0229
X3.8232Y-2.9819
X3.8353Y-4.7272
X3.8378Y-4.0536
X3.8663Y-4.0099
X3.8758Y-4.7387
X3.9026Y-2.8851
X3.9172Y-4.7454
X3.9805Y-3.9655
X3.9845Y-3.7446
X4.0071Y-3.5412
X4.0317Y-3.7087
X4.0463Y-4.73
X4.05Y-2.62
X4.0605Y-4.8721
X4.0723Y-5.5772
X4.09Y-2.8009
X4.09Y-4.3981
X4.0908Y-4.0229
X4.1223Y-3.504
X4.1703Y-5.2534
X4.1896Y-4.8083
X4.2132Y-3.3331
X4.2134Y-3.0599
X4.2134Y-3.1099
X4.2134Y-3.1595
X4.2134Y-3.2087
X4.2134Y-3.2599
X4.2156Y-3.7064
X4.2254Y-5.03
X4.2262Y-5.0769
X4.2262Y-5.1792
X4.2266Y-5.1276
X4.2276Y-5.2216
X4.2277Y-5.2814
X4.2282Y-3.0054
X4.2286Y-5.3272
X4.24Y-2.7997
X4.2408Y-3.8483
X4.2495Y-2.9623
X4.2609Y-4.0587
X4.262Y-3.3343
X4.2632Y-4.7292
X4.2668Y-4.8099
X4.27Y-2.6257
X4.3054Y-4.8702
X4.3412Y-3.9339
X4.3494Y-4.9465
X4.3498Y-2.8737
X4.4302Y-4.5302
X4.4337Y-5.3479
X4.4391Y-5.2589
X4.4396Y-5.5182
X4.4431Y-3.2595
X4.446Y-3.1632
X4.4475Y-4.2107
X4.46Y-4.59
X4.4632Y-4.2961
X4.4851Y-3.713
X4.5136Y-4.1146
X4.5479Y-3.669
X4.6054Y-4.8052
X4.6266Y-3.4355
X4.6593Y-4.8044
X4.668Y-4.995
X4.7077Y-4.0576
X4.7081Y-4.9402
X4.71Y-3.98
X4.7101Y-4.8036
X4.73Y-5.6
X4.73Y-5.75
X4.7306Y-3.4194
X4.74Y-3.1603
X4.7404Y-2.9619
X4.7404Y-3.0087
X4.7404Y-3.0599
X4.7404Y-3.2083
X4.7408Y-3.1107
X4.742Y-3.2603
X4.75Y-4.21
X4.7506Y-4.8981
X4.7519Y-2.5814
X4.7624Y-2.9036
X4.78Y-4.83
X4.7849Y-2.8611
X4.7899Y-4.1569
X4.8085Y-2.8237
X4.8177Y-2.6526
X4.82Y-2.6089
X4.83Y-3.98
X4.8362Y-2.6873
X4.8691Y-4.0221
X4.8983Y-4.4932
X4.927Y-5.0328
X4.9298Y-5.0761
X4.9309Y-5.1316
X4.9341Y-5.1824
X4.9341Y-5.28
X4.9345Y-5.3304
X4.9349Y-5.2304
X4.9522Y-4.3233
X4.9585Y-4.1017
X4.9601Y-4.8591
X4.9615Y-4.3645
X4.966Y-3.9359
X4.9683Y-4.4032
X4.9765Y-4.2586
X4.9794Y-4.2119
X4.9873Y-4.7819
X4.9987Y-2.8048
X5.0002Y-3.5229
X5.0101Y-5.6044
X5.0109Y-5.0477
X5.02Y-5.41
X5.0501Y-5.0453
X5.0522Y-4.0753
X5.064Y-4.1666
X5.07Y-5.41
X5.0931Y-5.0454
X5.12Y-5.41
X5.1278Y-2.9611
X5.129Y-3.0083
X5.129Y-3.0595
X5.1317Y-3.2119
X5.1385Y-3.8789
X5.1402Y-5.3762
X5.15Y-4.25
X5.1506Y-2.7973
X5.1609Y-4.867
X5.1711Y-3.2898
X5.1802Y-4.4599
X5.21Y-4.87
X5.2105Y-4.2643
X5.2113Y-4.2249
X5.2154Y-3.5457
X5.2341Y-4.1644
X5.2664Y-2.88
X5.2786Y-4.23
X5.2957Y-4.7534
X5.3Y-4.91
X5.3077Y-4.3119
X5.31Y-4.97
X5.3148Y-3.9457
X5.3479Y-3.3107
X5.3498Y-4.2304
X5.3498Y-4.2989
X5.3514Y-3.1587
X5.3514Y-3.2513
X5.3521Y-4.168
X5.36Y-5.03
X5.367Y-4.5685
X5.3788Y-2.9147
X5.3809Y-3.7389
X5.3851Y-5.3357
X5.3857Y-4.6552
X5.3863Y-4.843
X5.39Y-4.2261
X5.39Y-4.2969
X5.3956Y-4.9485
X5.4079Y-5.3961
X5.411Y-4.733
X5.4336Y-4.8864
X5.44Y-4.26
X5.44Y-5.19
X5.44Y-5.23
X5.44Y-5.27
X5.4404Y-4.0532
X5.4482Y-4.7458
X5.4546Y-4.6741
X5.461Y-4.1968
X5.479Y-3.443
X5.48Y-5.31
X5.4806Y-3.3977
X5.4831Y-3.0961
X5.4857Y-2.5804
X5.4896Y-3.1977
X5.492Y-2.9776
X5.5117Y-3.0552
X5.513Y-2.6091
X5.514Y-3.3635
X5.52Y-5.11
X5.52Y-5.15
X5.525Y-5.065
X5.53Y-5.66
X5.53Y-5.71
X5.53Y-5.76
X5.5337Y-4.1572
X5.5388Y-4.2558
X5.5394Y-4.8508
X5.544Y-3.3126
X5.5496Y-2.6376
X5.5663Y-5.6185
X5.5696Y-2.6715
X5.5904Y-3.4127
X5.6Y-5.66
X5.6Y-5.71
X5.6Y-5.76
X5.6022Y-3.3126
X5.6152Y-5.4948
X5.6231Y-4.1568
X5.625Y-4.2556
X5.638Y-4.9257
X5.6762Y-5.1501
X5.6784Y-2.7959
X5.6822Y-4.1923
X5.6825Y-3.5446
X5.6837Y-3.1898
X5.6886Y-3.5057
X5.6908Y-4.3129
X5.6916Y-4.0635
X5.6963Y-2.8473
X5.701Y-3.6099
X5.7199Y-2.8902
X5.7239Y-3.1316
X5.7282Y-2.7208
X5.7404Y-5.2591
X5.7657Y-4.1339
X5.7717Y-4.2917
X5.7823Y-5.4123
X5.788Y-3.5438
X5.7881Y-3.7207
X5.81Y-4.26
X5.8277Y-5.392
X5.8294Y-3.6552
X5.8345Y-3.4783
X5.8345Y-3.8728
X5.8365Y-3.1178
X5.8405Y-4.2284
X5.8449Y-3.3696
X5.8455Y-4.1536
X5.8571Y-3.6973
X5.8632Y-3.4044
X5.8881Y-5.8169
X5.89Y-5.4
X5.9089Y-4.0465
X5.93Y-3.85
X5.9341Y-2.6798
X5.94Y-3.56
X5.9617Y-4.2528
X5.9654Y-2.7054
X5.9766Y-2.9749
X5.98Y-3.84
X6.0128Y-3.6075
X6.0157Y-3.5557
X6.031Y-2.6944
X6.0361Y-4.8867
X6.0396Y-4.3225
X6.0404Y-4.043
X6.0412Y-4.4863
X6.0467Y-2.8351
X6.0467Y-3.3753
X6.05Y-2.66
X6.0533Y-3.6064
X6.0624Y-4.1402
X6.0904Y-5.2186
X6.1002Y-3.3737
X6.1089Y-2.843
X6.1298Y-3.6245
X6.1325Y-5.1457
X6.1346Y-2.9643
X6.1542Y-3.3146
X6.16Y-5.33
X6.1624Y-2.8206
X6.1633Y-3.8271
X6.168Y-3.7572
X6.1683Y-3.6717
X6.1735Y-4.917
X6.1798Y-3.5272
X6.1892Y-5.217
X6.2124Y-3.595
X6.2152Y-3.3796
X6.2577Y-3.7977
X6.28Y-3.13
X6.28Y-5.3
X6.2869Y-3.5891
X6.31Y-2.97
X6.3206Y-5.3285
X6.3246Y-4.1442
X6.3254Y-3.3741
X6.34Y-4.22
X6.3656Y-3.3686
X6.3727Y-3.6006
X6.3749Y-3.5551
X6.38Y-3.2
X6.4Y-5.35
X6.4428Y-3.6316
X6.466Y-2.9194
X6.47Y-5.38
X6.4743Y-5.0485
X6.477Y-3.7798
X6.5093Y-3.3871
X6.5353Y-3.5717
X6.616Y-2.919
X6.6172Y-2.4346
X6.6183Y-2.832
X6.644Y-5.8128
X6.65Y-5.45
X6.6644Y-3.2426
X6.6683Y-3.593
X6.6699Y-2.4523
X6.6821Y-4.9048
X6.6935Y-5.1595
X6.71Y-2.83
X6.7156Y-2.4796
X6.75Y-5.43
X6.7577Y-3.6312
X6.7731Y-2.4733
X6.7731Y-4.5206
X6.7764Y-4.3454
X6.8054Y-3.2206
X6.81Y-2.74
X6.8117Y-2.5249
X6.814Y-4.5603
X6.8169Y-3.9395
X6.8176Y-2.9666
X6.8347Y-4.0741
X6.84Y-4.75
X6.8475Y-3.0386
X6.8483Y-2.7028
X6.87Y-5.46
X6.9408Y-5.1363
X6.99Y-5.45
X7.0415Y-5.8069
T2
X3.32Y-3.1286
X3.32Y-3.2286
X3.32Y-3.3286
X3.32Y-3.4286
X3.32Y-3.5286
X3.32Y-3.6286
X3.3246Y-3.9478
X3.3246Y-4.0478
X3.3246Y-4.1478
X3.3246Y-4.2478
X3.3246Y-4.3478
X3.3246Y-4.4478
X3.3246Y-4.5478
X3.3246Y-4.6478
X3.3246Y-4.7478
X3.3246Y-4.8478
X3.3246Y-4.9478
X3.3246Y-5.2776
X3.3246Y-5.3776
X3.3246Y-5.4776
X3.3246Y-5.5776
X3.3246Y-5.6776
X3.3246Y-5.7776
X3.3246Y-5.8776
X3.3246Y-5.9776
X4.1094Y-2.27
X4.2094Y-2.27
X4.3094Y-2.27
X4.4094Y-2.27
X4.5094Y-2.27
X4.6094Y-2.27
X4.7094Y-2.27
X4.73Y-4.62
X4.7778Y-5.9873
X4.8094Y-2.27
X4.8778Y-5.9873
X4.9094Y-2.27
X4.9778Y-5.9873
X5.0094Y-2.27
X5.0778Y-5.9873
X5.1094Y-2.27
X5.1778Y-5.9873
X5.2094Y-2.27
X5.2778Y-5.9873
X5.3778Y-5.9873
X5.4778Y-5.9873
X5.72Y-5.65
X5.72Y-5.75
X5.72Y-5.85
X5.72Y-5.95
X5.7298Y-2.2694
X5.8298Y-2.2694
X5.9298Y-2.2694
X6.0298Y-2.2694
X6.1298Y-2.2694
X6.2298Y-2.2694
X6.3298Y-2.2694
X6.4298Y-2.2694
X7.1227Y-3.7328
X7.1227Y-3.8328
X7.1227Y-3.9328
X7.1227Y-4.0328
X7.1227Y-4.1328
X7.1227Y-4.2328
X7.1227Y-4.3328
X7.1227Y-4.4328
X7.1227Y-4.5328
X7.1227Y-4.6328
T0
M30
