%TF.GenerationSoftware,KiCad,Pcbnew,(5.1.10-1-10_14)*%
%TF.CreationDate,2021-07-31T10:33:50-04:00*%
%TF.ProjectId,bus,6275732e-6b69-4636-9164-5f7063625858,rev?*%
%TF.SameCoordinates,Original*%
%TF.FileFunction,Soldermask,Top*%
%TF.FilePolarity,Negative*%
%FSLAX46Y46*%
G04 Gerber Fmt 4.6, Leading zero omitted, Abs format (unit mm)*
G04 Created by KiCad (PCBNEW (5.1.10-1-10_14)) date 2021-07-31 10:33:50*
%MOMM*%
%LPD*%
G01*
G04 APERTURE LIST*
%ADD10O,1.700000X1.700000*%
%ADD11R,1.700000X1.700000*%
%ADD12O,1.600000X1.600000*%
%ADD13R,1.600000X1.600000*%
%ADD14C,2.000000*%
%ADD15R,2.600000X1.500000*%
%ADD16R,3.300000X1.600000*%
%ADD17R,1.500000X2.600000*%
%ADD18C,0.800000*%
%ADD19C,6.000000*%
%ADD20R,2.600000X2.600000*%
%ADD21C,2.600000*%
%ADD22C,1.800000*%
%ADD23R,1.800000X1.800000*%
G04 APERTURE END LIST*
D10*
%TO.C,J4*%
X192024000Y-762000D03*
X192024000Y1778000D03*
X192024000Y4318000D03*
X192024000Y6858000D03*
X192024000Y9398000D03*
X192024000Y11938000D03*
X192024000Y14478000D03*
X192024000Y17018000D03*
X192024000Y19558000D03*
X192024000Y22098000D03*
X192024000Y24638000D03*
X192024000Y27178000D03*
X192024000Y29718000D03*
X192024000Y32258000D03*
X192024000Y34798000D03*
X192024000Y37338000D03*
X192024000Y39878000D03*
X192024000Y42418000D03*
X192024000Y44958000D03*
X192024000Y47498000D03*
X192024000Y50038000D03*
X192024000Y52578000D03*
X192024000Y55118000D03*
X192024000Y57658000D03*
X192024000Y60198000D03*
X192024000Y62738000D03*
D11*
X192024000Y65278000D03*
%TD*%
%TO.C,R6*%
G36*
G01*
X146246001Y-17126000D02*
X145345999Y-17126000D01*
G75*
G02*
X145096000Y-16876001I0J249999D01*
G01*
X145096000Y-16350999D01*
G75*
G02*
X145345999Y-16101000I249999J0D01*
G01*
X146246001Y-16101000D01*
G75*
G02*
X146496000Y-16350999I0J-249999D01*
G01*
X146496000Y-16876001D01*
G75*
G02*
X146246001Y-17126000I-249999J0D01*
G01*
G37*
G36*
G01*
X146246001Y-18951000D02*
X145345999Y-18951000D01*
G75*
G02*
X145096000Y-18701001I0J249999D01*
G01*
X145096000Y-18175999D01*
G75*
G02*
X145345999Y-17926000I249999J0D01*
G01*
X146246001Y-17926000D01*
G75*
G02*
X146496000Y-18175999I0J-249999D01*
G01*
X146496000Y-18701001D01*
G75*
G02*
X146246001Y-18951000I-249999J0D01*
G01*
G37*
%TD*%
D12*
%TO.C,U6*%
X150876000Y-20828000D03*
X158496000Y-3048000D03*
X150876000Y-18288000D03*
X158496000Y-5588000D03*
X150876000Y-15748000D03*
X158496000Y-8128000D03*
X150876000Y-13208000D03*
X158496000Y-10668000D03*
X150876000Y-10668000D03*
X158496000Y-13208000D03*
X150876000Y-8128000D03*
X158496000Y-15748000D03*
X150876000Y-5588000D03*
X158496000Y-18288000D03*
X150876000Y-3048000D03*
D13*
X158496000Y-20828000D03*
%TD*%
D12*
%TO.C,U5*%
X150876000Y-45720000D03*
X158496000Y-27940000D03*
X150876000Y-43180000D03*
X158496000Y-30480000D03*
X150876000Y-40640000D03*
X158496000Y-33020000D03*
X150876000Y-38100000D03*
X158496000Y-35560000D03*
X150876000Y-35560000D03*
X158496000Y-38100000D03*
X150876000Y-33020000D03*
X158496000Y-40640000D03*
X150876000Y-30480000D03*
X158496000Y-43180000D03*
X150876000Y-27940000D03*
D13*
X158496000Y-45720000D03*
%TD*%
D12*
%TO.C,U1*%
X156210000Y-99822000D03*
X163830000Y-84582000D03*
X156210000Y-97282000D03*
X163830000Y-87122000D03*
X156210000Y-94742000D03*
X163830000Y-89662000D03*
X156210000Y-92202000D03*
X163830000Y-92202000D03*
X156210000Y-89662000D03*
X163830000Y-94742000D03*
X156210000Y-87122000D03*
X163830000Y-97282000D03*
X156210000Y-84582000D03*
D13*
X163830000Y-99822000D03*
%TD*%
D12*
%TO.C,RN5*%
X163322000Y-22098000D03*
X163322000Y-19558000D03*
X163322000Y-17018000D03*
X163322000Y-14478000D03*
X163322000Y-11938000D03*
X163322000Y-9398000D03*
X163322000Y-6858000D03*
X163322000Y-4318000D03*
D13*
X163322000Y-1778000D03*
%TD*%
D12*
%TO.C,RN4*%
X163322000Y-46990000D03*
X163322000Y-44450000D03*
X163322000Y-41910000D03*
X163322000Y-39370000D03*
X163322000Y-36830000D03*
X163322000Y-34290000D03*
X163322000Y-31750000D03*
X163322000Y-29210000D03*
D13*
X163322000Y-26670000D03*
%TD*%
D12*
%TO.C,RN3*%
X163322000Y-73152000D03*
X163322000Y-70612000D03*
X163322000Y-68072000D03*
X163322000Y-65532000D03*
X163322000Y-62992000D03*
X163322000Y-60452000D03*
X163322000Y-57912000D03*
X163322000Y-55372000D03*
D13*
X163322000Y-52832000D03*
%TD*%
D10*
%TO.C,J10*%
X192024000Y-253238000D03*
X192024000Y-250698000D03*
X192024000Y-248158000D03*
X192024000Y-245618000D03*
X192024000Y-243078000D03*
X192024000Y-240538000D03*
X192024000Y-237998000D03*
X192024000Y-235458000D03*
X192024000Y-232918000D03*
X192024000Y-230378000D03*
X192024000Y-227838000D03*
X192024000Y-225298000D03*
X192024000Y-222758000D03*
X192024000Y-220218000D03*
X192024000Y-217678000D03*
X192024000Y-215138000D03*
X192024000Y-212598000D03*
D11*
X192024000Y-210058000D03*
%TD*%
D10*
%TO.C,J19*%
X143764000Y47498000D03*
X143764000Y50038000D03*
X143764000Y52578000D03*
X143764000Y55118000D03*
X143764000Y57658000D03*
X143764000Y60198000D03*
X143764000Y62738000D03*
D11*
X143764000Y65278000D03*
%TD*%
D12*
%TO.C,SW3*%
X178816000Y-135636000D03*
D13*
X178816000Y-143256000D03*
%TD*%
%TO.C,R7*%
G36*
G01*
X146246001Y-9506000D02*
X145345999Y-9506000D01*
G75*
G02*
X145096000Y-9256001I0J249999D01*
G01*
X145096000Y-8730999D01*
G75*
G02*
X145345999Y-8481000I249999J0D01*
G01*
X146246001Y-8481000D01*
G75*
G02*
X146496000Y-8730999I0J-249999D01*
G01*
X146496000Y-9256001D01*
G75*
G02*
X146246001Y-9506000I-249999J0D01*
G01*
G37*
G36*
G01*
X146246001Y-11331000D02*
X145345999Y-11331000D01*
G75*
G02*
X145096000Y-11081001I0J249999D01*
G01*
X145096000Y-10555999D01*
G75*
G02*
X145345999Y-10306000I249999J0D01*
G01*
X146246001Y-10306000D01*
G75*
G02*
X146496000Y-10555999I0J-249999D01*
G01*
X146496000Y-11081001D01*
G75*
G02*
X146246001Y-11331000I-249999J0D01*
G01*
G37*
%TD*%
D11*
%TO.C,J18*%
X112268000Y-145542000D03*
%TD*%
D12*
%TO.C,U4*%
X150876000Y-71882000D03*
X158496000Y-54102000D03*
X150876000Y-69342000D03*
X158496000Y-56642000D03*
X150876000Y-66802000D03*
X158496000Y-59182000D03*
X150876000Y-64262000D03*
X158496000Y-61722000D03*
X150876000Y-61722000D03*
X158496000Y-64262000D03*
X150876000Y-59182000D03*
X158496000Y-66802000D03*
X150876000Y-56642000D03*
X158496000Y-69342000D03*
X150876000Y-54102000D03*
D13*
X158496000Y-71882000D03*
%TD*%
D12*
%TO.C,U3*%
X143256000Y-99822000D03*
X150876000Y-84582000D03*
X143256000Y-97282000D03*
X150876000Y-87122000D03*
X143256000Y-94742000D03*
X150876000Y-89662000D03*
X143256000Y-92202000D03*
X150876000Y-92202000D03*
X143256000Y-89662000D03*
X150876000Y-94742000D03*
X143256000Y-87122000D03*
X150876000Y-97282000D03*
X143256000Y-84582000D03*
D13*
X150876000Y-99822000D03*
%TD*%
D12*
%TO.C,U2*%
X130302000Y-99822000D03*
X137922000Y-84582000D03*
X130302000Y-97282000D03*
X137922000Y-87122000D03*
X130302000Y-94742000D03*
X137922000Y-89662000D03*
X130302000Y-92202000D03*
X137922000Y-92202000D03*
X130302000Y-89662000D03*
X137922000Y-94742000D03*
X130302000Y-87122000D03*
X137922000Y-97282000D03*
X130302000Y-84582000D03*
D13*
X137922000Y-99822000D03*
%TD*%
D14*
%TO.C,SW2*%
X133604000Y-55222000D03*
X138104000Y-55222000D03*
X133604000Y-61722000D03*
X138104000Y-61722000D03*
%TD*%
%TO.C,R5*%
G36*
G01*
X95815999Y-192424000D02*
X96716001Y-192424000D01*
G75*
G02*
X96966000Y-192673999I0J-249999D01*
G01*
X96966000Y-193199001D01*
G75*
G02*
X96716001Y-193449000I-249999J0D01*
G01*
X95815999Y-193449000D01*
G75*
G02*
X95566000Y-193199001I0J249999D01*
G01*
X95566000Y-192673999D01*
G75*
G02*
X95815999Y-192424000I249999J0D01*
G01*
G37*
G36*
G01*
X95815999Y-190599000D02*
X96716001Y-190599000D01*
G75*
G02*
X96966000Y-190848999I0J-249999D01*
G01*
X96966000Y-191374001D01*
G75*
G02*
X96716001Y-191624000I-249999J0D01*
G01*
X95815999Y-191624000D01*
G75*
G02*
X95566000Y-191374001I0J249999D01*
G01*
X95566000Y-190848999D01*
G75*
G02*
X95815999Y-190599000I249999J0D01*
G01*
G37*
%TD*%
%TO.C,R4*%
G36*
G01*
X146246001Y-29826000D02*
X145345999Y-29826000D01*
G75*
G02*
X145096000Y-29576001I0J249999D01*
G01*
X145096000Y-29050999D01*
G75*
G02*
X145345999Y-28801000I249999J0D01*
G01*
X146246001Y-28801000D01*
G75*
G02*
X146496000Y-29050999I0J-249999D01*
G01*
X146496000Y-29576001D01*
G75*
G02*
X146246001Y-29826000I-249999J0D01*
G01*
G37*
G36*
G01*
X146246001Y-31651000D02*
X145345999Y-31651000D01*
G75*
G02*
X145096000Y-31401001I0J249999D01*
G01*
X145096000Y-30875999D01*
G75*
G02*
X145345999Y-30626000I249999J0D01*
G01*
X146246001Y-30626000D01*
G75*
G02*
X146496000Y-30875999I0J-249999D01*
G01*
X146496000Y-31401001D01*
G75*
G02*
X146246001Y-31651000I-249999J0D01*
G01*
G37*
%TD*%
%TO.C,R3*%
G36*
G01*
X145345999Y-35198000D02*
X146246001Y-35198000D01*
G75*
G02*
X146496000Y-35447999I0J-249999D01*
G01*
X146496000Y-35973001D01*
G75*
G02*
X146246001Y-36223000I-249999J0D01*
G01*
X145345999Y-36223000D01*
G75*
G02*
X145096000Y-35973001I0J249999D01*
G01*
X145096000Y-35447999D01*
G75*
G02*
X145345999Y-35198000I249999J0D01*
G01*
G37*
G36*
G01*
X145345999Y-33373000D02*
X146246001Y-33373000D01*
G75*
G02*
X146496000Y-33622999I0J-249999D01*
G01*
X146496000Y-34148001D01*
G75*
G02*
X146246001Y-34398000I-249999J0D01*
G01*
X145345999Y-34398000D01*
G75*
G02*
X145096000Y-34148001I0J249999D01*
G01*
X145096000Y-33622999D01*
G75*
G02*
X145345999Y-33373000I249999J0D01*
G01*
G37*
%TD*%
%TO.C,R2*%
G36*
G01*
X137102001Y-67418000D02*
X136201999Y-67418000D01*
G75*
G02*
X135952000Y-67168001I0J249999D01*
G01*
X135952000Y-66642999D01*
G75*
G02*
X136201999Y-66393000I249999J0D01*
G01*
X137102001Y-66393000D01*
G75*
G02*
X137352000Y-66642999I0J-249999D01*
G01*
X137352000Y-67168001D01*
G75*
G02*
X137102001Y-67418000I-249999J0D01*
G01*
G37*
G36*
G01*
X137102001Y-69243000D02*
X136201999Y-69243000D01*
G75*
G02*
X135952000Y-68993001I0J249999D01*
G01*
X135952000Y-68467999D01*
G75*
G02*
X136201999Y-68218000I249999J0D01*
G01*
X137102001Y-68218000D01*
G75*
G02*
X137352000Y-68467999I0J-249999D01*
G01*
X137352000Y-68993001D01*
G75*
G02*
X137102001Y-69243000I-249999J0D01*
G01*
G37*
%TD*%
D11*
%TO.C,J17*%
X94740000Y-186030000D03*
%TD*%
D12*
%TO.C,A1*%
X127508000Y-8382000D03*
X142748000Y-8382000D03*
X127508000Y-43942000D03*
X142748000Y-10922000D03*
X127508000Y-41402000D03*
X142748000Y-13462000D03*
X127508000Y-38862000D03*
X142748000Y-16002000D03*
X127508000Y-36322000D03*
X142748000Y-18542000D03*
X127508000Y-33782000D03*
X142748000Y-21082000D03*
X127508000Y-31242000D03*
X142748000Y-23622000D03*
X127508000Y-28702000D03*
X142748000Y-26162000D03*
X127508000Y-26162000D03*
X142748000Y-28702000D03*
X127508000Y-23622000D03*
X142748000Y-31242000D03*
X127508000Y-21082000D03*
X142748000Y-33782000D03*
X127508000Y-18542000D03*
X142748000Y-36322000D03*
X127508000Y-16002000D03*
X142748000Y-38862000D03*
X127508000Y-13462000D03*
X142748000Y-41402000D03*
X127508000Y-10922000D03*
D13*
X142748000Y-43942000D03*
%TD*%
D10*
%TO.C,J16*%
X97028000Y7874000D03*
D11*
X97028000Y10414000D03*
%TD*%
D10*
%TO.C,J8*%
X96266000Y-204724000D03*
D11*
X96266000Y-202184000D03*
%TD*%
D15*
%TO.C,J6*%
X187452000Y78994000D03*
D16*
X187452000Y73914000D03*
D17*
X184912000Y76454000D03*
X189992000Y76454000D03*
%TD*%
D10*
%TO.C,J3*%
X94742000Y-84328000D03*
X94742000Y-86868000D03*
X94742000Y-89408000D03*
X94742000Y-91948000D03*
X94742000Y-94488000D03*
X94742000Y-97028000D03*
X94742000Y-99568000D03*
X94742000Y-102108000D03*
X94742000Y-104648000D03*
X94742000Y-107188000D03*
X94742000Y-109728000D03*
X94742000Y-112268000D03*
X94742000Y-114808000D03*
X94742000Y-117348000D03*
X94742000Y-119888000D03*
X94742000Y-122428000D03*
X94742000Y-124968000D03*
X94742000Y-127508000D03*
X94742000Y-130048000D03*
X94742000Y-132588000D03*
X94742000Y-135128000D03*
X94742000Y-137668000D03*
X94742000Y-140208000D03*
X94742000Y-142748000D03*
X94742000Y-145288000D03*
X94742000Y-147828000D03*
X94742000Y-150368000D03*
X94742000Y-152908000D03*
X94742000Y-155448000D03*
X94742000Y-157988000D03*
X94742000Y-160528000D03*
X94742000Y-163068000D03*
X94742000Y-165608000D03*
X94742000Y-168148000D03*
X94742000Y-170688000D03*
X94742000Y-173228000D03*
X94742000Y-175768000D03*
X94742000Y-178308000D03*
X94742000Y-180848000D03*
D11*
X94742000Y-183388000D03*
%TD*%
D18*
%TO.C,REF\u002A\u002A*%
X145354990Y21910990D03*
X143764000Y22570000D03*
X142173010Y21910990D03*
X141514000Y20320000D03*
X142173010Y18729010D03*
X143764000Y18070000D03*
X145354990Y18729010D03*
X146014000Y20320000D03*
D19*
X143764000Y20320000D03*
%TD*%
D10*
%TO.C,J9*%
X155702000Y47498000D03*
X155702000Y50038000D03*
X155702000Y52578000D03*
X155702000Y55118000D03*
X155702000Y57658000D03*
X155702000Y60198000D03*
X155702000Y62738000D03*
D11*
X155702000Y65278000D03*
%TD*%
D20*
%TO.C,J5*%
X188468000Y87376000D03*
D21*
X188468000Y92376000D03*
%TD*%
D12*
%TO.C,RN2*%
X153670000Y-244856000D03*
X151130000Y-244856000D03*
X148590000Y-244856000D03*
X146050000Y-244856000D03*
X143510000Y-244856000D03*
X140970000Y-244856000D03*
X138430000Y-244856000D03*
X135890000Y-244856000D03*
D13*
X133350000Y-244856000D03*
%TD*%
%TO.C,C9*%
G36*
G01*
X189451000Y-248978000D02*
X188501000Y-248978000D01*
G75*
G02*
X188251000Y-248728000I0J250000D01*
G01*
X188251000Y-248228000D01*
G75*
G02*
X188501000Y-247978000I250000J0D01*
G01*
X189451000Y-247978000D01*
G75*
G02*
X189701000Y-248228000I0J-250000D01*
G01*
X189701000Y-248728000D01*
G75*
G02*
X189451000Y-248978000I-250000J0D01*
G01*
G37*
G36*
G01*
X189451000Y-250878000D02*
X188501000Y-250878000D01*
G75*
G02*
X188251000Y-250628000I0J250000D01*
G01*
X188251000Y-250128000D01*
G75*
G02*
X188501000Y-249878000I250000J0D01*
G01*
X189451000Y-249878000D01*
G75*
G02*
X189701000Y-250128000I0J-250000D01*
G01*
X189701000Y-250628000D01*
G75*
G02*
X189451000Y-250878000I-250000J0D01*
G01*
G37*
%TD*%
%TO.C,C8*%
G36*
G01*
X189451000Y-170238000D02*
X188501000Y-170238000D01*
G75*
G02*
X188251000Y-169988000I0J250000D01*
G01*
X188251000Y-169488000D01*
G75*
G02*
X188501000Y-169238000I250000J0D01*
G01*
X189451000Y-169238000D01*
G75*
G02*
X189701000Y-169488000I0J-250000D01*
G01*
X189701000Y-169988000D01*
G75*
G02*
X189451000Y-170238000I-250000J0D01*
G01*
G37*
G36*
G01*
X189451000Y-172138000D02*
X188501000Y-172138000D01*
G75*
G02*
X188251000Y-171888000I0J250000D01*
G01*
X188251000Y-171388000D01*
G75*
G02*
X188501000Y-171138000I250000J0D01*
G01*
X189451000Y-171138000D01*
G75*
G02*
X189701000Y-171388000I0J-250000D01*
G01*
X189701000Y-171888000D01*
G75*
G02*
X189451000Y-172138000I-250000J0D01*
G01*
G37*
%TD*%
%TO.C,C6*%
G36*
G01*
X188247000Y-958000D02*
X189197000Y-958000D01*
G75*
G02*
X189447000Y-1208000I0J-250000D01*
G01*
X189447000Y-1708000D01*
G75*
G02*
X189197000Y-1958000I-250000J0D01*
G01*
X188247000Y-1958000D01*
G75*
G02*
X187997000Y-1708000I0J250000D01*
G01*
X187997000Y-1208000D01*
G75*
G02*
X188247000Y-958000I250000J0D01*
G01*
G37*
G36*
G01*
X188247000Y942000D02*
X189197000Y942000D01*
G75*
G02*
X189447000Y692000I0J-250000D01*
G01*
X189447000Y192000D01*
G75*
G02*
X189197000Y-58000I-250000J0D01*
G01*
X188247000Y-58000D01*
G75*
G02*
X187997000Y192000I0J250000D01*
G01*
X187997000Y692000D01*
G75*
G02*
X188247000Y942000I250000J0D01*
G01*
G37*
%TD*%
%TO.C,C4*%
G36*
G01*
X97315000Y-182568000D02*
X98265000Y-182568000D01*
G75*
G02*
X98515000Y-182818000I0J-250000D01*
G01*
X98515000Y-183318000D01*
G75*
G02*
X98265000Y-183568000I-250000J0D01*
G01*
X97315000Y-183568000D01*
G75*
G02*
X97065000Y-183318000I0J250000D01*
G01*
X97065000Y-182818000D01*
G75*
G02*
X97315000Y-182568000I250000J0D01*
G01*
G37*
G36*
G01*
X97315000Y-180668000D02*
X98265000Y-180668000D01*
G75*
G02*
X98515000Y-180918000I0J-250000D01*
G01*
X98515000Y-181418000D01*
G75*
G02*
X98265000Y-181668000I-250000J0D01*
G01*
X97315000Y-181668000D01*
G75*
G02*
X97065000Y-181418000I0J250000D01*
G01*
X97065000Y-180918000D01*
G75*
G02*
X97315000Y-180668000I250000J0D01*
G01*
G37*
%TD*%
%TO.C,C3*%
G36*
G01*
X98011000Y-248978000D02*
X97061000Y-248978000D01*
G75*
G02*
X96811000Y-248728000I0J250000D01*
G01*
X96811000Y-248228000D01*
G75*
G02*
X97061000Y-247978000I250000J0D01*
G01*
X98011000Y-247978000D01*
G75*
G02*
X98261000Y-248228000I0J-250000D01*
G01*
X98261000Y-248728000D01*
G75*
G02*
X98011000Y-248978000I-250000J0D01*
G01*
G37*
G36*
G01*
X98011000Y-250878000D02*
X97061000Y-250878000D01*
G75*
G02*
X96811000Y-250628000I0J250000D01*
G01*
X96811000Y-250128000D01*
G75*
G02*
X97061000Y-249878000I250000J0D01*
G01*
X98011000Y-249878000D01*
G75*
G02*
X98261000Y-250128000I0J-250000D01*
G01*
X98261000Y-250628000D01*
G75*
G02*
X98011000Y-250878000I-250000J0D01*
G01*
G37*
%TD*%
%TO.C,C2*%
G36*
G01*
X97569000Y-31184000D02*
X98519000Y-31184000D01*
G75*
G02*
X98769000Y-31434000I0J-250000D01*
G01*
X98769000Y-31934000D01*
G75*
G02*
X98519000Y-32184000I-250000J0D01*
G01*
X97569000Y-32184000D01*
G75*
G02*
X97319000Y-31934000I0J250000D01*
G01*
X97319000Y-31434000D01*
G75*
G02*
X97569000Y-31184000I250000J0D01*
G01*
G37*
G36*
G01*
X97569000Y-29284000D02*
X98519000Y-29284000D01*
G75*
G02*
X98769000Y-29534000I0J-250000D01*
G01*
X98769000Y-30034000D01*
G75*
G02*
X98519000Y-30284000I-250000J0D01*
G01*
X97569000Y-30284000D01*
G75*
G02*
X97319000Y-30034000I0J250000D01*
G01*
X97319000Y-29534000D01*
G75*
G02*
X97569000Y-29284000I250000J0D01*
G01*
G37*
%TD*%
%TO.C,C1*%
G36*
G01*
X98077000Y42984000D02*
X99027000Y42984000D01*
G75*
G02*
X99277000Y42734000I0J-250000D01*
G01*
X99277000Y42234000D01*
G75*
G02*
X99027000Y41984000I-250000J0D01*
G01*
X98077000Y41984000D01*
G75*
G02*
X97827000Y42234000I0J250000D01*
G01*
X97827000Y42734000D01*
G75*
G02*
X98077000Y42984000I250000J0D01*
G01*
G37*
G36*
G01*
X98077000Y44884000D02*
X99027000Y44884000D01*
G75*
G02*
X99277000Y44634000I0J-250000D01*
G01*
X99277000Y44134000D01*
G75*
G02*
X99027000Y43884000I-250000J0D01*
G01*
X98077000Y43884000D01*
G75*
G02*
X97827000Y44134000I0J250000D01*
G01*
X97827000Y44634000D01*
G75*
G02*
X98077000Y44884000I250000J0D01*
G01*
G37*
%TD*%
D12*
%TO.C,SW1*%
X141986000Y102108000D03*
D13*
X141986000Y94488000D03*
%TD*%
%TO.C,R1*%
G36*
G01*
X116224000Y92513999D02*
X116224000Y93414001D01*
G75*
G02*
X116473999Y93664000I249999J0D01*
G01*
X116999001Y93664000D01*
G75*
G02*
X117249000Y93414001I0J-249999D01*
G01*
X117249000Y92513999D01*
G75*
G02*
X116999001Y92264000I-249999J0D01*
G01*
X116473999Y92264000D01*
G75*
G02*
X116224000Y92513999I0J249999D01*
G01*
G37*
G36*
G01*
X114399000Y92513999D02*
X114399000Y93414001D01*
G75*
G02*
X114648999Y93664000I249999J0D01*
G01*
X115174001Y93664000D01*
G75*
G02*
X115424000Y93414001I0J-249999D01*
G01*
X115424000Y92513999D01*
G75*
G02*
X115174001Y92264000I-249999J0D01*
G01*
X114648999Y92264000D01*
G75*
G02*
X114399000Y92513999I0J249999D01*
G01*
G37*
%TD*%
D22*
%TO.C,D9*%
X115824000Y98806000D03*
D23*
X115824000Y96266000D03*
%TD*%
D20*
%TO.C,J12*%
X169672000Y100076000D03*
D21*
X164672000Y100076000D03*
%TD*%
D20*
%TO.C,J11*%
X157226000Y100076000D03*
D21*
X152226000Y100076000D03*
%TD*%
D10*
%TO.C,J2*%
X94996000Y75438000D03*
X94996000Y72898000D03*
X94996000Y70358000D03*
X94996000Y67818000D03*
X94996000Y65278000D03*
X94996000Y62738000D03*
X94996000Y60198000D03*
X94996000Y57658000D03*
X94996000Y55118000D03*
X94996000Y52578000D03*
X94996000Y50038000D03*
X94996000Y47498000D03*
X94996000Y44958000D03*
D11*
X94996000Y42418000D03*
%TD*%
D21*
%TO.C,J1*%
X124586000Y97996000D03*
X129286000Y100996000D03*
D20*
X129286000Y94996000D03*
%TD*%
D10*
%TO.C,J7*%
X94742000Y-1524000D03*
X94742000Y-4064000D03*
X94742000Y-6604000D03*
X94742000Y-9144000D03*
X94742000Y-11684000D03*
X94742000Y-14224000D03*
X94742000Y-16764000D03*
X94742000Y-19304000D03*
X94742000Y-21844000D03*
X94742000Y-24384000D03*
X94742000Y-26924000D03*
X94742000Y-29464000D03*
D11*
X94742000Y-32004000D03*
%TD*%
D12*
%TO.C,RN1*%
X153670000Y-271272000D03*
X151130000Y-271272000D03*
X148590000Y-271272000D03*
X146050000Y-271272000D03*
X143510000Y-271272000D03*
X140970000Y-271272000D03*
X138430000Y-271272000D03*
X135890000Y-271272000D03*
D13*
X133350000Y-271272000D03*
%TD*%
D22*
%TO.C,D8*%
X120396000Y-263652000D03*
D23*
X120396000Y-266192000D03*
%TD*%
D22*
%TO.C,D7*%
X127000000Y-263652000D03*
D23*
X127000000Y-266192000D03*
%TD*%
D22*
%TO.C,D6*%
X133604000Y-263652000D03*
D23*
X133604000Y-266192000D03*
%TD*%
D22*
%TO.C,D5*%
X140208000Y-263652000D03*
D23*
X140208000Y-266192000D03*
%TD*%
D22*
%TO.C,D4*%
X146812000Y-263652000D03*
D23*
X146812000Y-266192000D03*
%TD*%
D22*
%TO.C,D3*%
X153416000Y-263652000D03*
D23*
X153416000Y-266192000D03*
%TD*%
D22*
%TO.C,D2*%
X160020000Y-263652000D03*
D23*
X160020000Y-266192000D03*
%TD*%
D22*
%TO.C,D1*%
X166624000Y-263652000D03*
D23*
X166624000Y-266192000D03*
%TD*%
D10*
%TO.C,J15*%
X192024000Y-171958000D03*
X192024000Y-169418000D03*
X192024000Y-166878000D03*
X192024000Y-164338000D03*
X192024000Y-161798000D03*
X192024000Y-159258000D03*
X192024000Y-156718000D03*
X192024000Y-154178000D03*
X192024000Y-151638000D03*
X192024000Y-149098000D03*
X192024000Y-146558000D03*
X192024000Y-144018000D03*
X192024000Y-141478000D03*
X192024000Y-138938000D03*
X192024000Y-136398000D03*
D11*
X192024000Y-133858000D03*
%TD*%
D10*
%TO.C,J14*%
X94742000Y-212344000D03*
X94742000Y-214884000D03*
X94742000Y-217424000D03*
X94742000Y-219964000D03*
X94742000Y-222504000D03*
X94742000Y-225044000D03*
X94742000Y-227584000D03*
X94742000Y-230124000D03*
X94742000Y-232664000D03*
X94742000Y-235204000D03*
X94742000Y-237744000D03*
X94742000Y-240284000D03*
X94742000Y-242824000D03*
X94742000Y-245364000D03*
X94742000Y-247904000D03*
D11*
X94742000Y-250444000D03*
%TD*%
D19*
%TO.C,REF\u002A\u002A*%
X143510000Y-72136000D03*
D18*
X145760000Y-72136000D03*
X145100990Y-73726990D03*
X143510000Y-74386000D03*
X141919010Y-73726990D03*
X141260000Y-72136000D03*
X141919010Y-70545010D03*
X143510000Y-69886000D03*
X145100990Y-70545010D03*
%TD*%
%TO.C,REF\u002A\u002A*%
X145354990Y-143189010D03*
X143764000Y-142530000D03*
X142173010Y-143189010D03*
X141514000Y-144780000D03*
X142173010Y-146370990D03*
X143764000Y-147030000D03*
X145354990Y-146370990D03*
X146014000Y-144780000D03*
D19*
X143764000Y-144780000D03*
%TD*%
D18*
%TO.C,REF\u002A\u002A*%
X191836990Y-269427010D03*
X190246000Y-268768000D03*
X188655010Y-269427010D03*
X187996000Y-271018000D03*
X188655010Y-272608990D03*
X190246000Y-273268000D03*
X191836990Y-272608990D03*
X192496000Y-271018000D03*
D19*
X190246000Y-271018000D03*
%TD*%
%TO.C,REF\u002A\u002A*%
X96520000Y-271018000D03*
D18*
X98770000Y-271018000D03*
X98110990Y-272608990D03*
X96520000Y-273268000D03*
X94929010Y-272608990D03*
X94270000Y-271018000D03*
X94929010Y-269427010D03*
X96520000Y-268768000D03*
X98110990Y-269427010D03*
%TD*%
D19*
%TO.C,REF\u002A\u002A*%
X190246000Y101854000D03*
D18*
X192496000Y101854000D03*
X191836990Y100263010D03*
X190246000Y99604000D03*
X188655010Y100263010D03*
X187996000Y101854000D03*
X188655010Y103444990D03*
X190246000Y104104000D03*
X191836990Y103444990D03*
%TD*%
%TO.C,REF\u002A\u002A*%
X98110990Y103444990D03*
X96520000Y104104000D03*
X94929010Y103444990D03*
X94270000Y101854000D03*
X94929010Y100263010D03*
X96520000Y99604000D03*
X98110990Y100263010D03*
X98770000Y101854000D03*
D19*
X96520000Y101854000D03*
%TD*%
%TO.C,C5*%
G36*
G01*
X128836000Y91407000D02*
X128836000Y90457000D01*
G75*
G02*
X128586000Y90207000I-250000J0D01*
G01*
X128086000Y90207000D01*
G75*
G02*
X127836000Y90457000I0J250000D01*
G01*
X127836000Y91407000D01*
G75*
G02*
X128086000Y91657000I250000J0D01*
G01*
X128586000Y91657000D01*
G75*
G02*
X128836000Y91407000I0J-250000D01*
G01*
G37*
G36*
G01*
X130736000Y91407000D02*
X130736000Y90457000D01*
G75*
G02*
X130486000Y90207000I-250000J0D01*
G01*
X129986000Y90207000D01*
G75*
G02*
X129736000Y90457000I0J250000D01*
G01*
X129736000Y91407000D01*
G75*
G02*
X129986000Y91657000I250000J0D01*
G01*
X130486000Y91657000D01*
G75*
G02*
X130736000Y91407000I0J-250000D01*
G01*
G37*
%TD*%
M02*
