%TF.GenerationSoftware,KiCad,Pcbnew,(5.1.10-1-10_14)*%
%TF.CreationDate,2021-11-08T19:33:34-05:00*%
%TF.ProjectId,RAM-MODULE,52414d2d-4d4f-4445-954c-452e6b696361,rev?*%
%TF.SameCoordinates,Original*%
%TF.FileFunction,Copper,L4,Bot*%
%TF.FilePolarity,Positive*%
%FSLAX46Y46*%
G04 Gerber Fmt 4.6, Leading zero omitted, Abs format (unit mm)*
G04 Created by KiCad (PCBNEW (5.1.10-1-10_14)) date 2021-11-08 19:33:34*
%MOMM*%
%LPD*%
G01*
G04 APERTURE LIST*
%TA.AperFunction,ComponentPad*%
%ADD10O,1.600000X1.600000*%
%TD*%
%TA.AperFunction,ComponentPad*%
%ADD11R,1.600000X1.600000*%
%TD*%
%TA.AperFunction,ComponentPad*%
%ADD12O,1.700000X1.700000*%
%TD*%
%TA.AperFunction,ComponentPad*%
%ADD13R,1.700000X1.700000*%
%TD*%
%TA.AperFunction,ViaPad*%
%ADD14C,0.800000*%
%TD*%
%TA.AperFunction,Conductor*%
%ADD15C,0.200000*%
%TD*%
G04 APERTURE END LIST*
D10*
%TO.P,U9,28*%
%TO.N,+5V*%
X4826000Y-109474000D03*
%TO.P,U9,14*%
%TO.N,GND*%
X37846000Y-124714000D03*
%TO.P,U9,27*%
%TO.N,+5V*%
X7366000Y-109474000D03*
%TO.P,U9,13*%
%TO.N,/IO2*%
X35306000Y-124714000D03*
%TO.P,U9,26*%
%TO.N,/A13*%
X9906000Y-109474000D03*
%TO.P,U9,12*%
%TO.N,/IO1*%
X32766000Y-124714000D03*
%TO.P,U9,25*%
%TO.N,/A8*%
X12446000Y-109474000D03*
%TO.P,U9,11*%
%TO.N,/IO0*%
X30226000Y-124714000D03*
%TO.P,U9,24*%
%TO.N,/A9*%
X14986000Y-109474000D03*
%TO.P,U9,10*%
%TO.N,/A0*%
X27686000Y-124714000D03*
%TO.P,U9,23*%
%TO.N,/A11*%
X17526000Y-109474000D03*
%TO.P,U9,9*%
%TO.N,/A1*%
X25146000Y-124714000D03*
%TO.P,U9,22*%
%TO.N,~OE*%
X20066000Y-109474000D03*
%TO.P,U9,8*%
%TO.N,/A2*%
X22606000Y-124714000D03*
%TO.P,U9,21*%
%TO.N,/A10*%
X22606000Y-109474000D03*
%TO.P,U9,7*%
%TO.N,/A3*%
X20066000Y-124714000D03*
%TO.P,U9,20*%
%TO.N,/~ROM_EN*%
X25146000Y-109474000D03*
%TO.P,U9,6*%
%TO.N,/A4*%
X17526000Y-124714000D03*
%TO.P,U9,19*%
%TO.N,/IO7*%
X27686000Y-109474000D03*
%TO.P,U9,5*%
%TO.N,/A5*%
X14986000Y-124714000D03*
%TO.P,U9,18*%
%TO.N,/IO6*%
X30226000Y-109474000D03*
%TO.P,U9,4*%
%TO.N,/A6*%
X12446000Y-124714000D03*
%TO.P,U9,17*%
%TO.N,/IO5*%
X32766000Y-109474000D03*
%TO.P,U9,3*%
%TO.N,/A7*%
X9906000Y-124714000D03*
%TO.P,U9,16*%
%TO.N,/IO4*%
X35306000Y-109474000D03*
%TO.P,U9,2*%
%TO.N,/A12*%
X7366000Y-124714000D03*
%TO.P,U9,15*%
%TO.N,/IO3*%
X37846000Y-109474000D03*
D11*
%TO.P,U9,1*%
%TO.N,/A14*%
X4826000Y-124714000D03*
%TD*%
D12*
%TO.P,J1,9*%
%TO.N,MR*%
X5080000Y-167894000D03*
%TO.P,J1,8*%
%TO.N,MODE*%
X7620000Y-167894000D03*
%TO.P,J1,7*%
%TO.N,CLOCK*%
X10160000Y-167894000D03*
%TO.P,J1,6*%
%TO.N,~DS_IN*%
X12700000Y-167894000D03*
%TO.P,J1,5*%
%TO.N,~CS_IN*%
X15240000Y-167894000D03*
%TO.P,J1,4*%
%TO.N,~OE*%
X17780000Y-167894000D03*
%TO.P,J1,3*%
%TO.N,~WE*%
X20320000Y-167894000D03*
%TO.P,J1,2*%
%TO.N,GND*%
X22860000Y-167894000D03*
D13*
%TO.P,J1,1*%
%TO.N,+5V*%
X25400000Y-167894000D03*
%TD*%
D12*
%TO.P,J3,16*%
%TO.N,/A15*%
X5080000Y-101854000D03*
%TO.P,J3,15*%
%TO.N,/A14*%
X7620000Y-101854000D03*
%TO.P,J3,14*%
%TO.N,/A13*%
X10160000Y-101854000D03*
%TO.P,J3,13*%
%TO.N,/A12*%
X12700000Y-101854000D03*
%TO.P,J3,12*%
%TO.N,/A11*%
X15240000Y-101854000D03*
%TO.P,J3,11*%
%TO.N,/A10*%
X17780000Y-101854000D03*
%TO.P,J3,10*%
%TO.N,/A9*%
X20320000Y-101854000D03*
%TO.P,J3,9*%
%TO.N,/A8*%
X22860000Y-101854000D03*
%TO.P,J3,8*%
%TO.N,/A7*%
X25400000Y-101854000D03*
%TO.P,J3,7*%
%TO.N,/A6*%
X27940000Y-101854000D03*
%TO.P,J3,6*%
%TO.N,/A5*%
X30480000Y-101854000D03*
%TO.P,J3,5*%
%TO.N,/A4*%
X33020000Y-101854000D03*
%TO.P,J3,4*%
%TO.N,/A3*%
X35560000Y-101854000D03*
%TO.P,J3,3*%
%TO.N,/A2*%
X38100000Y-101854000D03*
%TO.P,J3,2*%
%TO.N,/A1*%
X40640000Y-101854000D03*
D13*
%TO.P,J3,1*%
%TO.N,/A0*%
X43180000Y-101854000D03*
%TD*%
D12*
%TO.P,J2,8*%
%TO.N,/IO0*%
X65278000Y-167894000D03*
%TO.P,J2,7*%
%TO.N,/IO1*%
X62738000Y-167894000D03*
%TO.P,J2,6*%
%TO.N,/IO2*%
X60198000Y-167894000D03*
%TO.P,J2,5*%
%TO.N,/IO3*%
X57658000Y-167894000D03*
%TO.P,J2,4*%
%TO.N,/IO4*%
X55118000Y-167894000D03*
%TO.P,J2,3*%
%TO.N,/IO5*%
X52578000Y-167894000D03*
%TO.P,J2,2*%
%TO.N,/IO6*%
X50038000Y-167894000D03*
D13*
%TO.P,J2,1*%
%TO.N,/IO7*%
X47498000Y-167894000D03*
%TD*%
D14*
%TO.N,GND*%
X62888500Y-149756500D03*
X56642000Y-147320000D03*
X57589500Y-157040500D03*
X39777000Y-139293000D03*
X43677000Y-144791000D03*
X33020000Y-144018000D03*
X16123000Y-155581000D03*
X7620000Y-162306000D03*
X13462000Y-143952000D03*
X16002000Y-140462000D03*
X14853000Y-149473000D03*
X14224000Y-134366000D03*
X1016000Y-151775000D03*
X-3586000Y-132618000D03*
X-2286000Y-117602000D03*
X33020000Y-157226000D03*
X63500000Y-133858000D03*
X60960000Y-133858000D03*
X58420000Y-133858000D03*
X55880000Y-133858000D03*
X53340000Y-133858000D03*
X50800000Y-133858000D03*
X48260000Y-133858000D03*
X45720000Y-133858000D03*
X39116000Y-155448000D03*
X-254000Y-128016000D03*
X-762000Y-138176000D03*
X51054000Y-156972000D03*
X44821601Y-150440932D03*
%TO.N,/A17*%
X7112000Y-153670000D03*
X-762000Y-155194000D03*
X44958010Y-147066000D03*
%TO.N,/A16*%
X32258000Y-149352000D03*
X8636000Y-152654000D03*
X2794000Y-152654000D03*
X37592000Y-148082000D03*
%TO.N,/A15*%
X-5334000Y-150677000D03*
X9742980Y-150114000D03*
%TO.N,/A14*%
X19825018Y-136130982D03*
%TO.N,/A13*%
X21209000Y-134493000D03*
X17018000Y-127254000D03*
%TO.N,/A12*%
X22352000Y-131064000D03*
%TO.N,/A11*%
X24130000Y-131064000D03*
%TO.N,/A10*%
X25019000Y-134493000D03*
%TO.N,/A9*%
X23368000Y-122428000D03*
X32512000Y-131826000D03*
%TO.N,/A8*%
X15875000Y-118999000D03*
X25146000Y-139446000D03*
%TO.N,/A7*%
X23876000Y-140208000D03*
%TO.N,/A6*%
X22475989Y-140444323D03*
%TO.N,/A5*%
X21075977Y-140208000D03*
%TO.N,/IO7*%
X45720000Y-125222000D03*
%TO.N,/IO6*%
X48260000Y-125222000D03*
X22352000Y-129032000D03*
X20320000Y-129032000D03*
%TO.N,/IO5*%
X50800000Y-125222000D03*
X23622000Y-128524000D03*
X21082000Y-129794000D03*
%TO.N,/IO4*%
X53340000Y-125222000D03*
X24892000Y-128016000D03*
X18711545Y-130953509D03*
%TO.N,/IO3*%
X55880000Y-125222000D03*
X18926011Y-139934526D03*
X32983994Y-128500032D03*
X37878448Y-153145436D03*
%TO.N,/IO2*%
X58420000Y-125222000D03*
X17526000Y-139954000D03*
X31706744Y-128100021D03*
X36987772Y-153600101D03*
%TO.N,/IO1*%
X60960000Y-125222000D03*
X30480000Y-128016000D03*
X13716000Y-139954000D03*
X35997000Y-154107000D03*
%TO.N,/IO0*%
X63500000Y-125222000D03*
X29464000Y-128016000D03*
X12192000Y-139446000D03*
X34798000Y-154178000D03*
%TO.N,/A4*%
X5080000Y-127000000D03*
%TO.N,/A3*%
X2794000Y-126492000D03*
%TO.N,/A2*%
X2093990Y-124460000D03*
%TO.N,/A1*%
X1848708Y-122077353D03*
%TO.N,/A0*%
X972642Y-121595137D03*
%TO.N,/A18*%
X30226000Y-150114000D03*
X5842000Y-151384000D03*
X1270000Y-152908000D03*
%TO.N,+5V*%
X52137000Y-149927000D03*
X14986000Y-155702000D03*
X16123000Y-149473000D03*
X16256000Y-134366000D03*
X34047000Y-150125000D03*
X33086000Y-147000000D03*
X38354000Y-139446000D03*
X-4236000Y-147656000D03*
X-4318000Y-135890000D03*
X-4236000Y-117684000D03*
X20320000Y-162306000D03*
X11326500Y-163679500D03*
%TO.N,MR*%
X53340000Y-149860000D03*
X40640000Y-162306000D03*
X31750000Y-162306000D03*
X29210000Y-160528000D03*
%TO.N,CLOCK*%
X39878000Y-161290000D03*
X37866132Y-155611054D03*
%TO.N,~OE*%
X11176000Y-154940000D03*
X10922000Y-130556000D03*
%TO.N,~WE*%
X16002000Y-161290000D03*
%TO.N,/CS2*%
X43434000Y-158242000D03*
X42414246Y-142786227D03*
%TO.N,/CS1*%
X45720000Y-158242000D03*
X41656000Y-144780000D03*
%TO.N,/CS0*%
X48006000Y-158242000D03*
X39878000Y-144018000D03*
%TO.N,/DS2*%
X61468000Y-158496000D03*
X42987990Y-138938000D03*
%TO.N,/DS1*%
X63500000Y-158750000D03*
X47498000Y-145288000D03*
%TO.N,/DS0*%
X65024000Y-158496000D03*
X48768000Y-146050000D03*
%TO.N,/CS3*%
X41148000Y-158242000D03*
X40640000Y-142748000D03*
%TO.N,/DS3*%
X59182000Y-158496000D03*
X41148000Y-138938000D03*
%TO.N,Net-(U1-Pad6)*%
X2032000Y-136652000D03*
X10922000Y-140208000D03*
%TO.N,/~RAM_CS*%
X30988000Y-148844000D03*
X2032000Y-150876000D03*
X2032000Y-148590000D03*
X-4572000Y-143256000D03*
%TO.N,/~ROM_EN*%
X-1270000Y-132334000D03*
%TO.N,Net-(U6-Pad10)*%
X-1636000Y-144638000D03*
X-981716Y-149976990D03*
%TO.N,Net-(U6-Pad3)*%
X-762000Y-147574000D03*
X-2794000Y-149860000D03*
%TD*%
D15*
%TO.N,/A17*%
X1524000Y-155194000D02*
X-762000Y-155194000D01*
X3048000Y-153670000D02*
X1524000Y-155194000D01*
X7112000Y-153670000D02*
X3048000Y-153670000D01*
X7112000Y-153670000D02*
X7511999Y-154069999D01*
X41910010Y-144018000D02*
X44958010Y-147066000D01*
X40132000Y-143256000D02*
X40894000Y-144018000D01*
X39370000Y-143256000D02*
X40132000Y-143256000D01*
X28556001Y-154069999D02*
X39370000Y-143256000D01*
X40894000Y-144018000D02*
X41910010Y-144018000D01*
X7511999Y-154069999D02*
X28556001Y-154069999D01*
%TO.N,/A16*%
X32258000Y-149352000D02*
X29464000Y-152146000D01*
X29464000Y-152146000D02*
X28194000Y-153416000D01*
X28194000Y-153416000D02*
X12446000Y-153416000D01*
X12446000Y-153416000D02*
X9144000Y-153416000D01*
X8636000Y-152908000D02*
X8636000Y-152654000D01*
X9144000Y-153416000D02*
X8636000Y-152908000D01*
X8636000Y-152654000D02*
X2794000Y-152654000D01*
%TO.N,/A15*%
X453000Y-150677000D02*
X1415999Y-149714001D01*
X1415999Y-149714001D02*
X9342981Y-149714001D01*
X9342981Y-149714001D02*
X9742980Y-150114000D01*
X-5334000Y-150677000D02*
X453000Y-150677000D01*
%TO.N,/A13*%
X21209000Y-134493000D02*
X17018000Y-130302000D01*
X17018000Y-130302000D02*
X17018000Y-127254000D01*
%TO.N,/A11*%
X17526000Y-109474000D02*
X17526000Y-114300000D01*
X17526000Y-114300000D02*
X26416000Y-123190000D01*
X26416000Y-123190000D02*
X26416000Y-128778000D01*
X26416000Y-128778000D02*
X24130000Y-131064000D01*
%TO.N,/A10*%
X28702000Y-130810000D02*
X25019000Y-134493000D01*
X28702000Y-126746000D02*
X28702000Y-130810000D01*
X28956000Y-115824000D02*
X28956000Y-126492000D01*
X28956000Y-126492000D02*
X28702000Y-126746000D01*
X22606000Y-109474000D02*
X28956000Y-115824000D01*
%TO.N,/A9*%
X14986000Y-109474000D02*
X14986000Y-113284000D01*
X14986000Y-113284000D02*
X14986000Y-114046000D01*
X14986000Y-114046000D02*
X23368000Y-122428000D01*
%TO.N,/IO7*%
X27686000Y-112187100D02*
X27686000Y-110605370D01*
X27686000Y-110605370D02*
X27686000Y-109474000D01*
X39704900Y-124206000D02*
X27686000Y-112187100D01*
X44704000Y-124206000D02*
X39704900Y-124206000D01*
X45720000Y-125222000D02*
X44704000Y-124206000D01*
%TO.N,/IO6*%
X30226000Y-109474000D02*
X30226000Y-114161400D01*
X30226000Y-114161400D02*
X39692633Y-123628033D01*
X39692633Y-123628033D02*
X46666033Y-123628033D01*
X46666033Y-123628033D02*
X48260000Y-125222000D01*
X22352000Y-129032000D02*
X20574000Y-129032000D01*
X20574000Y-129032000D02*
X20320000Y-129032000D01*
%TO.N,/IO5*%
X48806022Y-123228022D02*
X50400001Y-124822001D01*
X32766000Y-109474000D02*
X32766000Y-116135700D01*
X32766000Y-116135700D02*
X39858322Y-123228022D01*
X39858322Y-123228022D02*
X48806022Y-123228022D01*
X50400001Y-124822001D02*
X50800000Y-125222000D01*
X23622000Y-128524000D02*
X23622000Y-129286000D01*
X23622000Y-129286000D02*
X23114000Y-129794000D01*
X23114000Y-129794000D02*
X21082000Y-129794000D01*
%TO.N,/IO4*%
X53340000Y-125222000D02*
X50946011Y-122828011D01*
X50946011Y-122828011D02*
X40024011Y-122828011D01*
X40024011Y-122828011D02*
X35306000Y-118110000D01*
X35306000Y-118110000D02*
X35306000Y-109474000D01*
X24892000Y-128016000D02*
X24892000Y-129032000D01*
X21426489Y-130953509D02*
X18711545Y-130953509D01*
X23560001Y-130363999D02*
X22015999Y-130363999D01*
X24892000Y-129032000D02*
X23560001Y-130363999D01*
X22015999Y-130363999D02*
X21426489Y-130953509D01*
%TO.N,/IO3*%
X37846000Y-109474000D02*
X37846000Y-119634000D01*
X37846000Y-119634000D02*
X40640000Y-122428000D01*
X53086000Y-122428000D02*
X55880000Y-125222000D01*
X40640000Y-122428000D02*
X53086000Y-122428000D01*
X55918022Y-169633978D02*
X46813378Y-169633978D01*
X44772633Y-167708633D02*
X37191989Y-160127989D01*
X57658000Y-167894000D02*
X55918022Y-169633978D01*
X37878448Y-154562736D02*
X37878448Y-153145436D01*
X46813378Y-169633978D02*
X44888033Y-167708633D01*
X37191989Y-155972913D02*
X37166131Y-155947055D01*
X37166131Y-155275053D02*
X37878448Y-154562736D01*
X37191989Y-160127989D02*
X37191989Y-155972913D01*
X44888033Y-167708633D02*
X44772633Y-167708633D01*
X37166131Y-155947055D02*
X37166131Y-155275053D01*
X32983994Y-129945406D02*
X32983994Y-128500032D01*
X20999999Y-139253999D02*
X23675401Y-139253999D01*
X20319472Y-139934526D02*
X20999999Y-139253999D01*
X23675401Y-139253999D02*
X32983994Y-129945406D01*
X18926011Y-139934526D02*
X20319472Y-139934526D01*
%TO.N,/IO2*%
X58420000Y-125222000D02*
X58420000Y-125984000D01*
X58420000Y-125984000D02*
X57658000Y-126746000D01*
X37338000Y-126746000D02*
X35306000Y-124714000D01*
X57658000Y-126746000D02*
X37338000Y-126746000D01*
X36987772Y-154165786D02*
X36987772Y-153600101D01*
X46532289Y-170033989D02*
X36537980Y-160039680D01*
X36537980Y-154615578D02*
X36987772Y-154165786D01*
X36537980Y-160039680D02*
X36537980Y-154615578D01*
X60198000Y-167894000D02*
X58058011Y-170033989D01*
X58058011Y-170033989D02*
X46532289Y-170033989D01*
X31706744Y-130656956D02*
X31706744Y-128100021D01*
X23509712Y-138853988D02*
X31706744Y-130656956D01*
X17526000Y-139954000D02*
X18503978Y-138976022D01*
X18503978Y-138976022D02*
X20712276Y-138976022D01*
X20834310Y-138853988D02*
X23509712Y-138853988D01*
X20712276Y-138976022D02*
X20834310Y-138853988D01*
%TO.N,/IO1*%
X32766000Y-124714000D02*
X35306000Y-127254000D01*
X58928000Y-127254000D02*
X60960000Y-125222000D01*
X35306000Y-127254000D02*
X58928000Y-127254000D01*
X60198000Y-170434000D02*
X62738000Y-167894000D01*
X35997000Y-154107000D02*
X35997000Y-160064400D01*
X35997000Y-160064400D02*
X46366600Y-170434000D01*
X46366600Y-170434000D02*
X60198000Y-170434000D01*
X14115999Y-139554001D02*
X13716000Y-139954000D01*
X15093989Y-138576011D02*
X14115999Y-139554001D01*
X20546587Y-138576011D02*
X15093989Y-138576011D01*
X30480000Y-131318000D02*
X23344023Y-138453977D01*
X23344023Y-138453977D02*
X20668621Y-138453977D01*
X20668621Y-138453977D02*
X20546587Y-138576011D01*
X30480000Y-128016000D02*
X30480000Y-131318000D01*
%TO.N,/IO0*%
X31008002Y-124714000D02*
X30226000Y-124714000D01*
X60960000Y-127762000D02*
X34056002Y-127762000D01*
X63500000Y-125222000D02*
X60960000Y-127762000D01*
X34056002Y-127762000D02*
X31008002Y-124714000D01*
X46228000Y-170942000D02*
X34798000Y-159512000D01*
X34798000Y-154743685D02*
X34798000Y-154178000D01*
X65278000Y-167894000D02*
X62230000Y-170942000D01*
X62230000Y-170942000D02*
X46228000Y-170942000D01*
X34798000Y-159512000D02*
X34798000Y-154743685D01*
X12591999Y-139046001D02*
X12192000Y-139446000D01*
X29464000Y-131572000D02*
X22982034Y-138053966D01*
X29464000Y-128016000D02*
X29464000Y-131572000D01*
X22982034Y-138053966D02*
X13584034Y-138053966D01*
X13584034Y-138053966D02*
X12591999Y-139046001D01*
%TO.N,/A18*%
X5842000Y-151384000D02*
X2794000Y-151384000D01*
X2794000Y-151384000D02*
X1270000Y-152908000D01*
X6407685Y-151384000D02*
X5842000Y-151384000D01*
X9313987Y-152393691D02*
X9313987Y-151807987D01*
X27347987Y-152992013D02*
X9912309Y-152992013D01*
X8890000Y-151384000D02*
X6407685Y-151384000D01*
X30226000Y-150114000D02*
X27347987Y-152992013D01*
X9313987Y-151807987D02*
X8890000Y-151384000D01*
X9912309Y-152992013D02*
X9313987Y-152393691D01*
%TO.N,MR*%
X53340000Y-149860000D02*
X53340000Y-150876000D01*
X53340000Y-150876000D02*
X49276000Y-154940000D01*
X49276000Y-154940000D02*
X49276000Y-158496000D01*
X49276000Y-158496000D02*
X45466000Y-162306000D01*
X45466000Y-162306000D02*
X40640000Y-162306000D01*
X5080000Y-167894000D02*
X7874000Y-170688000D01*
X29972000Y-160528000D02*
X29210000Y-160528000D01*
X29210000Y-167894000D02*
X29210000Y-160528000D01*
X7874000Y-170688000D02*
X26416000Y-170688000D01*
X26416000Y-170688000D02*
X29210000Y-167894000D01*
X31750000Y-162306000D02*
X29972000Y-160528000D01*
%TO.N,CLOCK*%
X39878000Y-161290000D02*
X37866132Y-159278132D01*
X37866132Y-159278132D02*
X37866132Y-155611054D01*
%TO.N,~OE*%
X17780000Y-167894000D02*
X17780000Y-164084000D01*
X17780000Y-164084000D02*
X11176000Y-157480000D01*
X11176000Y-157480000D02*
X11176000Y-154940000D01*
X20066000Y-109474000D02*
X18288000Y-107696000D01*
X6265999Y-108945999D02*
X6265999Y-125899999D01*
X7515998Y-107696000D02*
X6265999Y-108945999D01*
X18288000Y-107696000D02*
X7515998Y-107696000D01*
X6265999Y-125899999D02*
X10922000Y-130556000D01*
%TO.N,~WE*%
X20320000Y-165608000D02*
X16002000Y-161290000D01*
X20320000Y-167894000D02*
X20320000Y-165608000D01*
%TO.N,/CS2*%
X46228000Y-155448000D02*
X46228000Y-145288000D01*
X43726227Y-142786227D02*
X42414246Y-142786227D01*
X43434000Y-158242000D02*
X46228000Y-155448000D01*
X46228000Y-145288000D02*
X43726227Y-142786227D01*
%TO.N,/CS1*%
X41656000Y-154178000D02*
X41656000Y-148356002D01*
X40246954Y-155587046D02*
X41656000Y-154178000D01*
X44704000Y-159258000D02*
X40894000Y-159258000D01*
X41656000Y-148356002D02*
X42055999Y-147956003D01*
X45720000Y-158242000D02*
X44704000Y-159258000D01*
X42055999Y-147956003D02*
X42055999Y-145179999D01*
X40246954Y-158610954D02*
X40246954Y-155587046D01*
X42055999Y-145179999D02*
X41656000Y-144780000D01*
X40894000Y-159258000D02*
X40246954Y-158610954D01*
%TO.N,/CS0*%
X40277999Y-144417999D02*
X39878000Y-144018000D01*
X39846943Y-155225057D02*
X41148000Y-153924000D01*
X41148000Y-145288000D02*
X40277999Y-144417999D01*
X40640000Y-159766000D02*
X39846943Y-158972943D01*
X48006000Y-158242000D02*
X46482000Y-159766000D01*
X39846943Y-158972943D02*
X39846943Y-155225057D01*
X46482000Y-159766000D02*
X40640000Y-159766000D01*
X41148000Y-153924000D02*
X41148000Y-145288000D01*
%TO.N,/DS2*%
X49530000Y-138938000D02*
X42987990Y-138938000D01*
X60452000Y-159512000D02*
X58928000Y-159512000D01*
X61468000Y-158496000D02*
X60452000Y-159512000D01*
X58420000Y-147828000D02*
X49530000Y-138938000D01*
X58928000Y-159512000D02*
X58420000Y-159004000D01*
X58420000Y-159004000D02*
X58420000Y-147828000D01*
%TO.N,/DS1*%
X63500000Y-158750000D02*
X62230000Y-160020000D01*
X56388000Y-157734000D02*
X56388000Y-150818300D01*
X58674000Y-160020000D02*
X56388000Y-157734000D01*
X56388000Y-150818300D02*
X50857700Y-145288000D01*
X62230000Y-160020000D02*
X58674000Y-160020000D01*
X50857700Y-145288000D02*
X48063685Y-145288000D01*
X48063685Y-145288000D02*
X47498000Y-145288000D01*
%TO.N,/DS0*%
X65024000Y-158496000D02*
X62992000Y-160528000D01*
X62992000Y-160528000D02*
X58420000Y-160528000D01*
X58420000Y-160528000D02*
X55880000Y-157988000D01*
X55880000Y-157988000D02*
X55880000Y-150876000D01*
X55880000Y-150876000D02*
X51054000Y-146050000D01*
X51054000Y-146050000D02*
X48768000Y-146050000D01*
%TO.N,/CS3*%
X41148000Y-158242000D02*
X41148000Y-156210000D01*
X41148000Y-156210000D02*
X45720000Y-151638000D01*
X45720000Y-151638000D02*
X45720000Y-145542000D01*
X45720000Y-145542000D02*
X43688000Y-143510000D01*
X43688000Y-143510000D02*
X41402000Y-143510000D01*
X41402000Y-143510000D02*
X40640000Y-142748000D01*
%TO.N,/DS3*%
X59182000Y-158496000D02*
X59182000Y-148024300D01*
X59182000Y-148024300D02*
X49395698Y-138237998D01*
X49395698Y-138237998D02*
X41848002Y-138237998D01*
X41848002Y-138237998D02*
X41148000Y-138938000D01*
%TO.N,Net-(U1-Pad6)*%
X2032000Y-136652000D02*
X7620000Y-136652000D01*
X7620000Y-136652000D02*
X10922000Y-139954000D01*
X10922000Y-139954000D02*
X10922000Y-140208000D01*
%TO.N,/~RAM_CS*%
X2431999Y-150476001D02*
X2032000Y-150876000D01*
X8890000Y-150368000D02*
X2540000Y-150368000D01*
X10668000Y-152146000D02*
X8890000Y-150368000D01*
X2540000Y-150368000D02*
X2431999Y-150476001D01*
X26670000Y-152146000D02*
X10668000Y-152146000D01*
X29972000Y-148844000D02*
X26670000Y-152146000D01*
X30988000Y-148844000D02*
X29972000Y-148844000D01*
X-1524000Y-143256000D02*
X-4572000Y-143256000D01*
X2032000Y-146812000D02*
X-1524000Y-143256000D01*
X2032000Y-148590000D02*
X2032000Y-146812000D01*
%TO.N,/~ROM_EN*%
X4826000Y-106172000D02*
X21844000Y-106172000D01*
X-1270000Y-112268000D02*
X4826000Y-106172000D01*
X21844000Y-106172000D02*
X24346001Y-108674001D01*
X-1270000Y-132334000D02*
X-1270000Y-112268000D01*
X24346001Y-108674001D02*
X25146000Y-109474000D01*
%TO.N,Net-(U6-Pad10)*%
X254000Y-148741274D02*
X-981716Y-149976990D01*
X-1636000Y-144638000D02*
X254000Y-146528000D01*
X254000Y-146528000D02*
X254000Y-148741274D01*
%TO.N,Net-(U6-Pad3)*%
X-762000Y-147574000D02*
X-2794000Y-149606000D01*
X-2794000Y-149606000D02*
X-2794000Y-149860000D01*
%TD*%
M02*
