%TF.GenerationSoftware,KiCad,Pcbnew,(6.0.0-0)*%
%TF.CreationDate,2022-01-17T16:58:40-05:00*%
%TF.ProjectId,ALU-Backplane,414c552d-4261-4636-9b70-6c616e652e6b,rev?*%
%TF.SameCoordinates,Original*%
%TF.FileFunction,Paste,Top*%
%TF.FilePolarity,Positive*%
%FSLAX46Y46*%
G04 Gerber Fmt 4.6, Leading zero omitted, Abs format (unit mm)*
G04 Created by KiCad (PCBNEW (6.0.0-0)) date 2022-01-17 16:58:40*
%MOMM*%
%LPD*%
G01*
G04 APERTURE LIST*
G04 Aperture macros list*
%AMRoundRect*
0 Rectangle with rounded corners*
0 $1 Rounding radius*
0 $2 $3 $4 $5 $6 $7 $8 $9 X,Y pos of 4 corners*
0 Add a 4 corners polygon primitive as box body*
4,1,4,$2,$3,$4,$5,$6,$7,$8,$9,$2,$3,0*
0 Add four circle primitives for the rounded corners*
1,1,$1+$1,$2,$3*
1,1,$1+$1,$4,$5*
1,1,$1+$1,$6,$7*
1,1,$1+$1,$8,$9*
0 Add four rect primitives between the rounded corners*
20,1,$1+$1,$2,$3,$4,$5,0*
20,1,$1+$1,$4,$5,$6,$7,0*
20,1,$1+$1,$6,$7,$8,$9,0*
20,1,$1+$1,$8,$9,$2,$3,0*%
G04 Aperture macros list end*
%ADD10RoundRect,0.250000X-0.450000X0.262500X-0.450000X-0.262500X0.450000X-0.262500X0.450000X0.262500X0*%
%ADD11RoundRect,0.243750X0.456250X-0.243750X0.456250X0.243750X-0.456250X0.243750X-0.456250X-0.243750X0*%
G04 APERTURE END LIST*
D10*
%TO.C,R16*%
X131925000Y-140962500D03*
X131925000Y-142787500D03*
%TD*%
%TO.C,R15*%
X134200000Y-140962500D03*
X134200000Y-142787500D03*
%TD*%
%TO.C,R14*%
X136450000Y-140962500D03*
X136450000Y-142787500D03*
%TD*%
%TO.C,R13*%
X138725000Y-140962500D03*
X138725000Y-142787500D03*
%TD*%
%TO.C,R12*%
X140975000Y-140962500D03*
X140975000Y-142787500D03*
%TD*%
%TO.C,R11*%
X143250000Y-140962500D03*
X143250000Y-142787500D03*
%TD*%
%TO.C,R10*%
X145500000Y-140962500D03*
X145500000Y-142787500D03*
%TD*%
%TO.C,R9*%
X147775000Y-140962500D03*
X147775000Y-142787500D03*
%TD*%
%TO.C,R8*%
X112975000Y-140937500D03*
X112975000Y-142762500D03*
%TD*%
%TO.C,R7*%
X115225000Y-140937500D03*
X115225000Y-142762500D03*
%TD*%
%TO.C,R6*%
X117475000Y-140950000D03*
X117475000Y-142775000D03*
%TD*%
%TO.C,R5*%
X119725000Y-140962500D03*
X119725000Y-142787500D03*
%TD*%
%TO.C,R4*%
X121975000Y-140962500D03*
X121975000Y-142787500D03*
%TD*%
%TO.C,R3*%
X124225000Y-140962500D03*
X124225000Y-142787500D03*
%TD*%
%TO.C,R2*%
X126475000Y-140962500D03*
X126475000Y-142787500D03*
%TD*%
D11*
%TO.C,D16*%
X131925000Y-138962500D03*
X131925000Y-137087500D03*
%TD*%
%TO.C,D15*%
X134189285Y-138962500D03*
X134189285Y-137087500D03*
%TD*%
%TO.C,D14*%
X136453570Y-137087500D03*
X136453570Y-138962500D03*
%TD*%
%TO.C,D13*%
X138717855Y-138962500D03*
X138717855Y-137087500D03*
%TD*%
%TO.C,D12*%
X140982140Y-138962500D03*
X140982140Y-137087500D03*
%TD*%
%TO.C,D11*%
X143246425Y-138962500D03*
X143246425Y-137087500D03*
%TD*%
%TO.C,D10*%
X145510710Y-138962500D03*
X145510710Y-137087500D03*
%TD*%
%TO.C,D9*%
X147775000Y-138937500D03*
X147775000Y-137062500D03*
%TD*%
%TO.C,D8*%
X112975000Y-138937500D03*
X112975000Y-137062500D03*
%TD*%
%TO.C,D7*%
X115225000Y-138962500D03*
X115225000Y-137087500D03*
%TD*%
%TO.C,D6*%
X117475000Y-138962500D03*
X117475000Y-137087500D03*
%TD*%
%TO.C,D5*%
X119725000Y-138962500D03*
X119725000Y-137087500D03*
%TD*%
%TO.C,D4*%
X121975000Y-138962500D03*
X121975000Y-137087500D03*
%TD*%
%TO.C,D3*%
X124225000Y-138962500D03*
X124225000Y-137087500D03*
%TD*%
%TO.C,D2*%
X126475000Y-138962500D03*
X126475000Y-137087500D03*
%TD*%
D10*
%TO.C,R1*%
X128725000Y-140962500D03*
X128725000Y-142787500D03*
%TD*%
D11*
%TO.C,D1*%
X128725000Y-138962500D03*
X128725000Y-137087500D03*
%TD*%
M02*
