%TF.GenerationSoftware,KiCad,Pcbnew,(5.1.9-0-10_14)*%
%TF.CreationDate,2021-05-08T23:41:31-04:00*%
%TF.ProjectId,ALU,414c552e-6b69-4636-9164-5f7063625858,rev?*%
%TF.SameCoordinates,Original*%
%TF.FileFunction,Legend,Top*%
%TF.FilePolarity,Positive*%
%FSLAX46Y46*%
G04 Gerber Fmt 4.6, Leading zero omitted, Abs format (unit mm)*
G04 Created by KiCad (PCBNEW (5.1.9-0-10_14)) date 2021-05-08 23:41:31*
%MOMM*%
%LPD*%
G01*
G04 APERTURE LIST*
%ADD10C,0.150000*%
%ADD11C,0.090000*%
%ADD12C,0.100000*%
%ADD13C,0.120000*%
%ADD14C,0.050000*%
G04 APERTURE END LIST*
D10*
X111436760Y-110542506D02*
X111036760Y-110542506D01*
X111236760Y-110542506D02*
X111236760Y-109842506D01*
X111170093Y-109942506D01*
X111103426Y-110009173D01*
X111036760Y-110042506D01*
X108578040Y-109883773D02*
X108611373Y-109850440D01*
X108678040Y-109817106D01*
X108844706Y-109817106D01*
X108911373Y-109850440D01*
X108944706Y-109883773D01*
X108978040Y-109950440D01*
X108978040Y-110017106D01*
X108944706Y-110117106D01*
X108544706Y-110517106D01*
X108978040Y-110517106D01*
X98568493Y-109842506D02*
X98435160Y-109842506D01*
X98368493Y-109875840D01*
X98335160Y-109909173D01*
X98268493Y-110009173D01*
X98235160Y-110142506D01*
X98235160Y-110409173D01*
X98268493Y-110475840D01*
X98301826Y-110509173D01*
X98368493Y-110542506D01*
X98501826Y-110542506D01*
X98568493Y-110509173D01*
X98601826Y-110475840D01*
X98635160Y-110409173D01*
X98635160Y-110242506D01*
X98601826Y-110175840D01*
X98568493Y-110142506D01*
X98501826Y-110109173D01*
X98368493Y-110109173D01*
X98301826Y-110142506D01*
X98268493Y-110175840D01*
X98235160Y-110242506D01*
X93339293Y-110142506D02*
X93272626Y-110109173D01*
X93239293Y-110075840D01*
X93205960Y-110009173D01*
X93205960Y-109975840D01*
X93239293Y-109909173D01*
X93272626Y-109875840D01*
X93339293Y-109842506D01*
X93472626Y-109842506D01*
X93539293Y-109875840D01*
X93572626Y-109909173D01*
X93605960Y-109975840D01*
X93605960Y-110009173D01*
X93572626Y-110075840D01*
X93539293Y-110109173D01*
X93472626Y-110142506D01*
X93339293Y-110142506D01*
X93272626Y-110175840D01*
X93239293Y-110209173D01*
X93205960Y-110275840D01*
X93205960Y-110409173D01*
X93239293Y-110475840D01*
X93272626Y-110509173D01*
X93339293Y-110542506D01*
X93472626Y-110542506D01*
X93539293Y-110509173D01*
X93572626Y-110475840D01*
X93605960Y-110409173D01*
X93605960Y-110275840D01*
X93572626Y-110209173D01*
X93539293Y-110175840D01*
X93472626Y-110142506D01*
X101228186Y-109842506D02*
X100894853Y-109842506D01*
X100861520Y-110175840D01*
X100894853Y-110142506D01*
X100961520Y-110109173D01*
X101128186Y-110109173D01*
X101194853Y-110142506D01*
X101228186Y-110175840D01*
X101261520Y-110242506D01*
X101261520Y-110409173D01*
X101228186Y-110475840D01*
X101194853Y-110509173D01*
X101128186Y-110542506D01*
X100961520Y-110542506D01*
X100894853Y-110509173D01*
X100861520Y-110475840D01*
X105933586Y-109837426D02*
X106366920Y-109837426D01*
X106133586Y-110104093D01*
X106233586Y-110104093D01*
X106300253Y-110137426D01*
X106333586Y-110170760D01*
X106366920Y-110237426D01*
X106366920Y-110404093D01*
X106333586Y-110470760D01*
X106300253Y-110504093D01*
X106233586Y-110537426D01*
X106033586Y-110537426D01*
X105966920Y-110504093D01*
X105933586Y-110470760D01*
X95646586Y-109812026D02*
X96113253Y-109812026D01*
X95813253Y-110512026D01*
X103729773Y-110050440D02*
X103729773Y-110517106D01*
X103563106Y-109783773D02*
X103396440Y-110283773D01*
X103829773Y-110283773D01*
X90553746Y-108893840D02*
X90553746Y-108760506D01*
X90587080Y-108693840D01*
X90653746Y-108627173D01*
X90787080Y-108593840D01*
X91020413Y-108593840D01*
X91153746Y-108627173D01*
X91220413Y-108693840D01*
X91253746Y-108760506D01*
X91253746Y-108893840D01*
X91220413Y-108960506D01*
X91153746Y-109027173D01*
X91020413Y-109060506D01*
X90787080Y-109060506D01*
X90653746Y-109027173D01*
X90587080Y-108960506D01*
X90553746Y-108893840D01*
X90553746Y-108293840D02*
X91120413Y-108293840D01*
X91187080Y-108260506D01*
X91220413Y-108227173D01*
X91253746Y-108160506D01*
X91253746Y-108027173D01*
X91220413Y-107960506D01*
X91187080Y-107927173D01*
X91120413Y-107893840D01*
X90553746Y-107893840D01*
X90553746Y-107660506D02*
X90553746Y-107260506D01*
X91253746Y-107460506D02*
X90553746Y-107460506D01*
D11*
X85032857Y-55529785D02*
X85032857Y-56139309D01*
X84728095Y-55834547D02*
X85337619Y-55834547D01*
X85528095Y-56405976D02*
X84728095Y-56672642D01*
X85528095Y-56939309D01*
X84804285Y-57663119D02*
X84766190Y-57625023D01*
X84728095Y-57510738D01*
X84728095Y-57434547D01*
X84766190Y-57320261D01*
X84842380Y-57244071D01*
X84918571Y-57205976D01*
X85070952Y-57167880D01*
X85185238Y-57167880D01*
X85337619Y-57205976D01*
X85413809Y-57244071D01*
X85490000Y-57320261D01*
X85528095Y-57434547D01*
X85528095Y-57510738D01*
X85490000Y-57625023D01*
X85451904Y-57663119D01*
X84804285Y-58463119D02*
X84766190Y-58425023D01*
X84728095Y-58310738D01*
X84728095Y-58234547D01*
X84766190Y-58120261D01*
X84842380Y-58044071D01*
X84918571Y-58005976D01*
X85070952Y-57967880D01*
X85185238Y-57967880D01*
X85337619Y-58005976D01*
X85413809Y-58044071D01*
X85490000Y-58120261D01*
X85528095Y-58234547D01*
X85528095Y-58310738D01*
X85490000Y-58425023D01*
X85451904Y-58463119D01*
X77252857Y-55503404D02*
X77252857Y-56112928D01*
X77710000Y-56912928D02*
X77748095Y-56836738D01*
X77748095Y-56722452D01*
X77710000Y-56608166D01*
X77633809Y-56531976D01*
X77557619Y-56493880D01*
X77405238Y-56455785D01*
X77290952Y-56455785D01*
X77138571Y-56493880D01*
X77062380Y-56531976D01*
X76986190Y-56608166D01*
X76948095Y-56722452D01*
X76948095Y-56798642D01*
X76986190Y-56912928D01*
X77024285Y-56951023D01*
X77290952Y-56951023D01*
X77290952Y-56798642D01*
X76948095Y-57293880D02*
X77748095Y-57293880D01*
X76948095Y-57751023D01*
X77748095Y-57751023D01*
X76948095Y-58131976D02*
X77748095Y-58131976D01*
X77748095Y-58322452D01*
X77710000Y-58436738D01*
X77633809Y-58512928D01*
X77557619Y-58551023D01*
X77405238Y-58589119D01*
X77290952Y-58589119D01*
X77138571Y-58551023D01*
X77062380Y-58512928D01*
X76986190Y-58436738D01*
X76948095Y-58322452D01*
X76948095Y-58131976D01*
D10*
X68245520Y-78577200D02*
X68278853Y-78477200D01*
X68312186Y-78443866D01*
X68378853Y-78410533D01*
X68478853Y-78410533D01*
X68545520Y-78443866D01*
X68578853Y-78477200D01*
X68612186Y-78543866D01*
X68612186Y-78810533D01*
X67912186Y-78810533D01*
X67912186Y-78577200D01*
X67945520Y-78510533D01*
X67978853Y-78477200D01*
X68045520Y-78443866D01*
X68112186Y-78443866D01*
X68178853Y-78477200D01*
X68212186Y-78510533D01*
X68245520Y-78577200D01*
X68245520Y-78810533D01*
X67912186Y-78110533D02*
X68478853Y-78110533D01*
X68545520Y-78077200D01*
X68578853Y-78043866D01*
X68612186Y-77977200D01*
X68612186Y-77843866D01*
X68578853Y-77777200D01*
X68545520Y-77743866D01*
X68478853Y-77710533D01*
X67912186Y-77710533D01*
X68578853Y-77410533D02*
X68612186Y-77310533D01*
X68612186Y-77143866D01*
X68578853Y-77077200D01*
X68545520Y-77043866D01*
X68478853Y-77010533D01*
X68412186Y-77010533D01*
X68345520Y-77043866D01*
X68312186Y-77077200D01*
X68278853Y-77143866D01*
X68245520Y-77277200D01*
X68212186Y-77343866D01*
X68178853Y-77377200D01*
X68112186Y-77410533D01*
X68045520Y-77410533D01*
X67978853Y-77377200D01*
X67945520Y-77343866D01*
X67912186Y-77277200D01*
X67912186Y-77110533D01*
X67945520Y-77010533D01*
D11*
X78496412Y-79543150D02*
X78258317Y-79543150D01*
X78234507Y-79781245D01*
X78258317Y-79757436D01*
X78305936Y-79733626D01*
X78424983Y-79733626D01*
X78472602Y-79757436D01*
X78496412Y-79781245D01*
X78520221Y-79828864D01*
X78520221Y-79947912D01*
X78496412Y-79995531D01*
X78472602Y-80019340D01*
X78424983Y-80043150D01*
X78305936Y-80043150D01*
X78258317Y-80019340D01*
X78234507Y-79995531D01*
X83300858Y-79578710D02*
X83610381Y-79578710D01*
X83443715Y-79769186D01*
X83515143Y-79769186D01*
X83562762Y-79792996D01*
X83586572Y-79816805D01*
X83610381Y-79864424D01*
X83610381Y-79983472D01*
X83586572Y-80031091D01*
X83562762Y-80054900D01*
X83515143Y-80078710D01*
X83372286Y-80078710D01*
X83324667Y-80054900D01*
X83300858Y-80031091D01*
X75907202Y-79527910D02*
X75811964Y-79527910D01*
X75764345Y-79551720D01*
X75740536Y-79575529D01*
X75692917Y-79646958D01*
X75669107Y-79742196D01*
X75669107Y-79932672D01*
X75692917Y-79980291D01*
X75716726Y-80004100D01*
X75764345Y-80027910D01*
X75859583Y-80027910D01*
X75907202Y-80004100D01*
X75931012Y-79980291D01*
X75954821Y-79932672D01*
X75954821Y-79813624D01*
X75931012Y-79766005D01*
X75907202Y-79742196D01*
X75859583Y-79718386D01*
X75764345Y-79718386D01*
X75716726Y-79742196D01*
X75692917Y-79766005D01*
X75669107Y-79813624D01*
X88700541Y-80053310D02*
X88414827Y-80053310D01*
X88557684Y-80053310D02*
X88557684Y-79553310D01*
X88510065Y-79624739D01*
X88462446Y-79672358D01*
X88414827Y-79696167D01*
X70674185Y-79767596D02*
X70626566Y-79743786D01*
X70602757Y-79719977D01*
X70578947Y-79672358D01*
X70578947Y-79648548D01*
X70602757Y-79600929D01*
X70626566Y-79577120D01*
X70674185Y-79553310D01*
X70769423Y-79553310D01*
X70817042Y-79577120D01*
X70840852Y-79600929D01*
X70864661Y-79648548D01*
X70864661Y-79672358D01*
X70840852Y-79719977D01*
X70817042Y-79743786D01*
X70769423Y-79767596D01*
X70674185Y-79767596D01*
X70626566Y-79791405D01*
X70602757Y-79815215D01*
X70578947Y-79862834D01*
X70578947Y-79958072D01*
X70602757Y-80005691D01*
X70626566Y-80029500D01*
X70674185Y-80053310D01*
X70769423Y-80053310D01*
X70817042Y-80029500D01*
X70840852Y-80005691D01*
X70864661Y-79958072D01*
X70864661Y-79862834D01*
X70840852Y-79815215D01*
X70817042Y-79791405D01*
X70769423Y-79767596D01*
X73120538Y-79568550D02*
X73453871Y-79568550D01*
X73239585Y-80068550D01*
X85849427Y-79585689D02*
X85873237Y-79561880D01*
X85920856Y-79538070D01*
X86039903Y-79538070D01*
X86087522Y-79561880D01*
X86111332Y-79585689D01*
X86135141Y-79633308D01*
X86135141Y-79680927D01*
X86111332Y-79752356D01*
X85825618Y-80038070D01*
X86135141Y-80038070D01*
X80997362Y-79730137D02*
X80997362Y-80063470D01*
X80878315Y-79539660D02*
X80759267Y-79896803D01*
X81068791Y-79896803D01*
D12*
X99980885Y-102289664D02*
X100514219Y-103089664D01*
X100514219Y-102289664D02*
X99980885Y-103089664D01*
X100971361Y-102289664D02*
X101123742Y-102289664D01*
X101199933Y-102327760D01*
X101276123Y-102403950D01*
X101314219Y-102556331D01*
X101314219Y-102822998D01*
X101276123Y-102975379D01*
X101199933Y-103051569D01*
X101123742Y-103089664D01*
X100971361Y-103089664D01*
X100895171Y-103051569D01*
X100818980Y-102975379D01*
X100780885Y-102822998D01*
X100780885Y-102556331D01*
X100818980Y-102403950D01*
X100895171Y-102327760D01*
X100971361Y-102289664D01*
X102114219Y-103089664D02*
X101847552Y-102708712D01*
X101657076Y-103089664D02*
X101657076Y-102289664D01*
X101961838Y-102289664D01*
X102038028Y-102327760D01*
X102076123Y-102365855D01*
X102114219Y-102442045D01*
X102114219Y-102556331D01*
X102076123Y-102632521D01*
X102038028Y-102670617D01*
X101961838Y-102708712D01*
X101657076Y-102708712D01*
D13*
X162615880Y-99070160D02*
X164053520Y-99070160D01*
X152908000Y-94127320D02*
X147670520Y-94127320D01*
D11*
X154478282Y-95228369D02*
X154592568Y-95266464D01*
X154783044Y-95266464D01*
X154859235Y-95228369D01*
X154897330Y-95190274D01*
X154935425Y-95114083D01*
X154935425Y-95037893D01*
X154897330Y-94961702D01*
X154859235Y-94923607D01*
X154783044Y-94885512D01*
X154630663Y-94847417D01*
X154554473Y-94809321D01*
X154516378Y-94771226D01*
X154478282Y-94695036D01*
X154478282Y-94618845D01*
X154516378Y-94542655D01*
X154554473Y-94504560D01*
X154630663Y-94466464D01*
X154821140Y-94466464D01*
X154935425Y-94504560D01*
X155278282Y-94466464D02*
X155278282Y-95114083D01*
X155316378Y-95190274D01*
X155354473Y-95228369D01*
X155430663Y-95266464D01*
X155583044Y-95266464D01*
X155659235Y-95228369D01*
X155697330Y-95190274D01*
X155735425Y-95114083D01*
X155735425Y-94466464D01*
X156383044Y-94847417D02*
X156497330Y-94885512D01*
X156535425Y-94923607D01*
X156573520Y-94999798D01*
X156573520Y-95114083D01*
X156535425Y-95190274D01*
X156497330Y-95228369D01*
X156421140Y-95266464D01*
X156116378Y-95266464D01*
X156116378Y-94466464D01*
X156383044Y-94466464D01*
X156459235Y-94504560D01*
X156497330Y-94542655D01*
X156535425Y-94618845D01*
X156535425Y-94695036D01*
X156497330Y-94771226D01*
X156459235Y-94809321D01*
X156383044Y-94847417D01*
X156116378Y-94847417D01*
X157678282Y-94466464D02*
X157830663Y-94466464D01*
X157906854Y-94504560D01*
X157983044Y-94580750D01*
X158021140Y-94733131D01*
X158021140Y-94999798D01*
X157983044Y-95152179D01*
X157906854Y-95228369D01*
X157830663Y-95266464D01*
X157678282Y-95266464D01*
X157602092Y-95228369D01*
X157525901Y-95152179D01*
X157487806Y-94999798D01*
X157487806Y-94733131D01*
X157525901Y-94580750D01*
X157602092Y-94504560D01*
X157678282Y-94466464D01*
X158363997Y-94466464D02*
X158363997Y-95114083D01*
X158402092Y-95190274D01*
X158440187Y-95228369D01*
X158516378Y-95266464D01*
X158668759Y-95266464D01*
X158744949Y-95228369D01*
X158783044Y-95190274D01*
X158821140Y-95114083D01*
X158821140Y-94466464D01*
X159087806Y-94466464D02*
X159544949Y-94466464D01*
X159316378Y-95266464D02*
X159316378Y-94466464D01*
X147678717Y-95202969D02*
X147793002Y-95241064D01*
X147983479Y-95241064D01*
X148059669Y-95202969D01*
X148097764Y-95164874D01*
X148135860Y-95088683D01*
X148135860Y-95012493D01*
X148097764Y-94936302D01*
X148059669Y-94898207D01*
X147983479Y-94860112D01*
X147831098Y-94822017D01*
X147754907Y-94783921D01*
X147716812Y-94745826D01*
X147678717Y-94669636D01*
X147678717Y-94593445D01*
X147716812Y-94517255D01*
X147754907Y-94479160D01*
X147831098Y-94441064D01*
X148021574Y-94441064D01*
X148135860Y-94479160D01*
X148478717Y-94441064D02*
X148478717Y-95088683D01*
X148516812Y-95164874D01*
X148554907Y-95202969D01*
X148631098Y-95241064D01*
X148783479Y-95241064D01*
X148859669Y-95202969D01*
X148897764Y-95164874D01*
X148935860Y-95088683D01*
X148935860Y-94441064D01*
X149316812Y-95241064D02*
X149316812Y-94441064D01*
X149583479Y-95012493D01*
X149850145Y-94441064D01*
X149850145Y-95241064D01*
X150993002Y-94441064D02*
X151145383Y-94441064D01*
X151221574Y-94479160D01*
X151297764Y-94555350D01*
X151335860Y-94707731D01*
X151335860Y-94974398D01*
X151297764Y-95126779D01*
X151221574Y-95202969D01*
X151145383Y-95241064D01*
X150993002Y-95241064D01*
X150916812Y-95202969D01*
X150840621Y-95126779D01*
X150802526Y-94974398D01*
X150802526Y-94707731D01*
X150840621Y-94555350D01*
X150916812Y-94479160D01*
X150993002Y-94441064D01*
X151678717Y-94441064D02*
X151678717Y-95088683D01*
X151716812Y-95164874D01*
X151754907Y-95202969D01*
X151831098Y-95241064D01*
X151983479Y-95241064D01*
X152059669Y-95202969D01*
X152097764Y-95164874D01*
X152135860Y-95088683D01*
X152135860Y-94441064D01*
X152402526Y-94441064D02*
X152859669Y-94441064D01*
X152631098Y-95241064D02*
X152631098Y-94441064D01*
X141209313Y-95235984D02*
X141209313Y-94435984D01*
X141209313Y-94816937D02*
X141666456Y-94816937D01*
X141666456Y-95235984D02*
X141666456Y-94435984D01*
X142047408Y-95235984D02*
X142047408Y-94435984D01*
X142847408Y-94474080D02*
X142771218Y-94435984D01*
X142656932Y-94435984D01*
X142542646Y-94474080D01*
X142466456Y-94550270D01*
X142428360Y-94626460D01*
X142390265Y-94778841D01*
X142390265Y-94893127D01*
X142428360Y-95045508D01*
X142466456Y-95121699D01*
X142542646Y-95197889D01*
X142656932Y-95235984D01*
X142733122Y-95235984D01*
X142847408Y-95197889D01*
X142885503Y-95159794D01*
X142885503Y-94893127D01*
X142733122Y-94893127D01*
X143228360Y-95235984D02*
X143228360Y-94435984D01*
X143228360Y-94816937D02*
X143685503Y-94816937D01*
X143685503Y-95235984D02*
X143685503Y-94435984D01*
X144942646Y-94816937D02*
X145056932Y-94855032D01*
X145095027Y-94893127D01*
X145133122Y-94969318D01*
X145133122Y-95083603D01*
X145095027Y-95159794D01*
X145056932Y-95197889D01*
X144980741Y-95235984D01*
X144675980Y-95235984D01*
X144675980Y-94435984D01*
X144942646Y-94435984D01*
X145018837Y-94474080D01*
X145056932Y-94512175D01*
X145095027Y-94588365D01*
X145095027Y-94664556D01*
X145056932Y-94740746D01*
X145018837Y-94778841D01*
X144942646Y-94816937D01*
X144675980Y-94816937D01*
X145475980Y-95235984D02*
X145475980Y-94435984D01*
X145742646Y-94435984D02*
X146199789Y-94435984D01*
X145971218Y-95235984D02*
X145971218Y-94435984D01*
X135776010Y-95108994D02*
X135737915Y-95147089D01*
X135623629Y-95185184D01*
X135547439Y-95185184D01*
X135433153Y-95147089D01*
X135356962Y-95070899D01*
X135318867Y-94994708D01*
X135280772Y-94842327D01*
X135280772Y-94728041D01*
X135318867Y-94575660D01*
X135356962Y-94499470D01*
X135433153Y-94423280D01*
X135547439Y-94385184D01*
X135623629Y-94385184D01*
X135737915Y-94423280D01*
X135776010Y-94461375D01*
X136080772Y-94956613D02*
X136461724Y-94956613D01*
X136004581Y-95185184D02*
X136271248Y-94385184D01*
X136537915Y-95185184D01*
X137261724Y-95185184D02*
X136995058Y-94804232D01*
X136804581Y-95185184D02*
X136804581Y-94385184D01*
X137109343Y-94385184D01*
X137185534Y-94423280D01*
X137223629Y-94461375D01*
X137261724Y-94537565D01*
X137261724Y-94651851D01*
X137223629Y-94728041D01*
X137185534Y-94766137D01*
X137109343Y-94804232D01*
X136804581Y-94804232D01*
X138061724Y-95185184D02*
X137795058Y-94804232D01*
X137604581Y-95185184D02*
X137604581Y-94385184D01*
X137909343Y-94385184D01*
X137985534Y-94423280D01*
X138023629Y-94461375D01*
X138061724Y-94537565D01*
X138061724Y-94651851D01*
X138023629Y-94728041D01*
X137985534Y-94766137D01*
X137909343Y-94804232D01*
X137604581Y-94804232D01*
X138556962Y-94804232D02*
X138556962Y-95185184D01*
X138290296Y-94385184D02*
X138556962Y-94804232D01*
X138823629Y-94385184D01*
D14*
X143441904Y-110458571D02*
X143746666Y-110458571D01*
X143556190Y-110191904D02*
X143556190Y-110877619D01*
X143594285Y-110953809D01*
X143670476Y-110991904D01*
X143746666Y-110991904D01*
X144013333Y-110991904D02*
X144013333Y-110191904D01*
X144356190Y-110991904D02*
X144356190Y-110572857D01*
X144318095Y-110496666D01*
X144241904Y-110458571D01*
X144127619Y-110458571D01*
X144051428Y-110496666D01*
X144013333Y-110534761D01*
X145041904Y-110953809D02*
X144965714Y-110991904D01*
X144813333Y-110991904D01*
X144737142Y-110953809D01*
X144699047Y-110877619D01*
X144699047Y-110572857D01*
X144737142Y-110496666D01*
X144813333Y-110458571D01*
X144965714Y-110458571D01*
X145041904Y-110496666D01*
X145080000Y-110572857D01*
X145080000Y-110649047D01*
X144699047Y-110725238D01*
X145346666Y-110191904D02*
X145537142Y-110991904D01*
X145689523Y-110420476D01*
X145841904Y-110991904D01*
X146032380Y-110191904D01*
X146337142Y-110991904D02*
X146337142Y-110458571D01*
X146337142Y-110191904D02*
X146299047Y-110230000D01*
X146337142Y-110268095D01*
X146375238Y-110230000D01*
X146337142Y-110191904D01*
X146337142Y-110268095D01*
X147060952Y-110953809D02*
X146984761Y-110991904D01*
X146832380Y-110991904D01*
X146756190Y-110953809D01*
X146718095Y-110915714D01*
X146680000Y-110839523D01*
X146680000Y-110610952D01*
X146718095Y-110534761D01*
X146756190Y-110496666D01*
X146832380Y-110458571D01*
X146984761Y-110458571D01*
X147060952Y-110496666D01*
X147403809Y-110991904D02*
X147403809Y-110191904D01*
X147480000Y-110687142D02*
X147708571Y-110991904D01*
X147708571Y-110458571D02*
X147403809Y-110763333D01*
X148356190Y-110953809D02*
X148280000Y-110991904D01*
X148127619Y-110991904D01*
X148051428Y-110953809D01*
X148013333Y-110877619D01*
X148013333Y-110572857D01*
X148051428Y-110496666D01*
X148127619Y-110458571D01*
X148280000Y-110458571D01*
X148356190Y-110496666D01*
X148394285Y-110572857D01*
X148394285Y-110649047D01*
X148013333Y-110725238D01*
X149080000Y-110991904D02*
X149080000Y-110191904D01*
X149080000Y-110953809D02*
X149003809Y-110991904D01*
X148851428Y-110991904D01*
X148775238Y-110953809D01*
X148737142Y-110915714D01*
X148699047Y-110839523D01*
X148699047Y-110610952D01*
X148737142Y-110534761D01*
X148775238Y-110496666D01*
X148851428Y-110458571D01*
X149003809Y-110458571D01*
X149080000Y-110496666D01*
X149384761Y-110191904D02*
X149575238Y-110991904D01*
X149727619Y-110420476D01*
X149880000Y-110991904D01*
X150070476Y-110191904D01*
X150680000Y-110953809D02*
X150603809Y-110991904D01*
X150451428Y-110991904D01*
X150375238Y-110953809D01*
X150337142Y-110877619D01*
X150337142Y-110572857D01*
X150375238Y-110496666D01*
X150451428Y-110458571D01*
X150603809Y-110458571D01*
X150680000Y-110496666D01*
X150718095Y-110572857D01*
X150718095Y-110649047D01*
X150337142Y-110725238D01*
X151060952Y-110991904D02*
X151060952Y-110191904D01*
X151060952Y-110496666D02*
X151137142Y-110458571D01*
X151289523Y-110458571D01*
X151365714Y-110496666D01*
X151403809Y-110534761D01*
X151441904Y-110610952D01*
X151441904Y-110839523D01*
X151403809Y-110915714D01*
X151365714Y-110953809D01*
X151289523Y-110991904D01*
X151137142Y-110991904D01*
X151060952Y-110953809D01*
X151784761Y-110991904D02*
X151784761Y-110191904D01*
X151975238Y-110191904D01*
X152089523Y-110230000D01*
X152165714Y-110306190D01*
X152203809Y-110382380D01*
X152241904Y-110534761D01*
X152241904Y-110649047D01*
X152203809Y-110801428D01*
X152165714Y-110877619D01*
X152089523Y-110953809D01*
X151975238Y-110991904D01*
X151784761Y-110991904D01*
X152889523Y-110953809D02*
X152813333Y-110991904D01*
X152660952Y-110991904D01*
X152584761Y-110953809D01*
X152546666Y-110877619D01*
X152546666Y-110572857D01*
X152584761Y-110496666D01*
X152660952Y-110458571D01*
X152813333Y-110458571D01*
X152889523Y-110496666D01*
X152927619Y-110572857D01*
X152927619Y-110649047D01*
X152546666Y-110725238D01*
X153194285Y-110458571D02*
X153384761Y-110991904D01*
X153575238Y-110458571D01*
X154451428Y-110153809D02*
X153765714Y-111182380D01*
X154832380Y-110534761D02*
X154756190Y-110496666D01*
X154718095Y-110458571D01*
X154680000Y-110382380D01*
X154680000Y-110344285D01*
X154718095Y-110268095D01*
X154756190Y-110230000D01*
X154832380Y-110191904D01*
X154984761Y-110191904D01*
X155060952Y-110230000D01*
X155099047Y-110268095D01*
X155137142Y-110344285D01*
X155137142Y-110382380D01*
X155099047Y-110458571D01*
X155060952Y-110496666D01*
X154984761Y-110534761D01*
X154832380Y-110534761D01*
X154756190Y-110572857D01*
X154718095Y-110610952D01*
X154680000Y-110687142D01*
X154680000Y-110839523D01*
X154718095Y-110915714D01*
X154756190Y-110953809D01*
X154832380Y-110991904D01*
X154984761Y-110991904D01*
X155060952Y-110953809D01*
X155099047Y-110915714D01*
X155137142Y-110839523D01*
X155137142Y-110687142D01*
X155099047Y-110610952D01*
X155060952Y-110572857D01*
X154984761Y-110534761D01*
X155480000Y-110687142D02*
X156089523Y-110687142D01*
X156470476Y-110991904D02*
X156470476Y-110191904D01*
X156470476Y-110496666D02*
X156546666Y-110458571D01*
X156699047Y-110458571D01*
X156775238Y-110496666D01*
X156813333Y-110534761D01*
X156851428Y-110610952D01*
X156851428Y-110839523D01*
X156813333Y-110915714D01*
X156775238Y-110953809D01*
X156699047Y-110991904D01*
X156546666Y-110991904D01*
X156470476Y-110953809D01*
X157194285Y-110991904D02*
X157194285Y-110458571D01*
X157194285Y-110191904D02*
X157156190Y-110230000D01*
X157194285Y-110268095D01*
X157232380Y-110230000D01*
X157194285Y-110191904D01*
X157194285Y-110268095D01*
X157460952Y-110458571D02*
X157765714Y-110458571D01*
X157575238Y-110191904D02*
X157575238Y-110877619D01*
X157613333Y-110953809D01*
X157689523Y-110991904D01*
X157765714Y-110991904D01*
X158032380Y-110687142D02*
X158641904Y-110687142D01*
X159365714Y-110953809D02*
X159289523Y-110991904D01*
X159137142Y-110991904D01*
X159060952Y-110953809D01*
X159022857Y-110915714D01*
X158984761Y-110839523D01*
X158984761Y-110610952D01*
X159022857Y-110534761D01*
X159060952Y-110496666D01*
X159137142Y-110458571D01*
X159289523Y-110458571D01*
X159365714Y-110496666D01*
X159822857Y-110991904D02*
X159746666Y-110953809D01*
X159708571Y-110915714D01*
X159670476Y-110839523D01*
X159670476Y-110610952D01*
X159708571Y-110534761D01*
X159746666Y-110496666D01*
X159822857Y-110458571D01*
X159937142Y-110458571D01*
X160013333Y-110496666D01*
X160051428Y-110534761D01*
X160089523Y-110610952D01*
X160089523Y-110839523D01*
X160051428Y-110915714D01*
X160013333Y-110953809D01*
X159937142Y-110991904D01*
X159822857Y-110991904D01*
X160432380Y-110991904D02*
X160432380Y-110458571D01*
X160432380Y-110534761D02*
X160470476Y-110496666D01*
X160546666Y-110458571D01*
X160660952Y-110458571D01*
X160737142Y-110496666D01*
X160775238Y-110572857D01*
X160775238Y-110991904D01*
X160775238Y-110572857D02*
X160813333Y-110496666D01*
X160889523Y-110458571D01*
X161003809Y-110458571D01*
X161080000Y-110496666D01*
X161118095Y-110572857D01*
X161118095Y-110991904D01*
X161499047Y-110458571D02*
X161499047Y-111258571D01*
X161499047Y-110496666D02*
X161575238Y-110458571D01*
X161727619Y-110458571D01*
X161803809Y-110496666D01*
X161841904Y-110534761D01*
X161880000Y-110610952D01*
X161880000Y-110839523D01*
X161841904Y-110915714D01*
X161803809Y-110953809D01*
X161727619Y-110991904D01*
X161575238Y-110991904D01*
X161499047Y-110953809D01*
X162565714Y-110458571D02*
X162565714Y-110991904D01*
X162222857Y-110458571D02*
X162222857Y-110877619D01*
X162260952Y-110953809D01*
X162337142Y-110991904D01*
X162451428Y-110991904D01*
X162527619Y-110953809D01*
X162565714Y-110915714D01*
X162832380Y-110458571D02*
X163137142Y-110458571D01*
X162946666Y-110191904D02*
X162946666Y-110877619D01*
X162984761Y-110953809D01*
X163060952Y-110991904D01*
X163137142Y-110991904D01*
X163708571Y-110953809D02*
X163632380Y-110991904D01*
X163480000Y-110991904D01*
X163403809Y-110953809D01*
X163365714Y-110877619D01*
X163365714Y-110572857D01*
X163403809Y-110496666D01*
X163480000Y-110458571D01*
X163632380Y-110458571D01*
X163708571Y-110496666D01*
X163746666Y-110572857D01*
X163746666Y-110649047D01*
X163365714Y-110725238D01*
X164089523Y-110991904D02*
X164089523Y-110458571D01*
X164089523Y-110610952D02*
X164127619Y-110534761D01*
X164165714Y-110496666D01*
X164241904Y-110458571D01*
X164318095Y-110458571D01*
D12*
X138324984Y-87668693D02*
X139277365Y-87668693D01*
X138134508Y-88240121D02*
X138801175Y-86240121D01*
X139467841Y-88240121D01*
X140134508Y-88240121D02*
X140134508Y-86240121D01*
X140610699Y-86240121D01*
X140896413Y-86335360D01*
X141086889Y-86525836D01*
X141182127Y-86716312D01*
X141277365Y-87097264D01*
X141277365Y-87382979D01*
X141182127Y-87763931D01*
X141086889Y-87954407D01*
X140896413Y-88144883D01*
X140610699Y-88240121D01*
X140134508Y-88240121D01*
X142134508Y-88240121D02*
X142134508Y-86240121D01*
X142610699Y-86240121D01*
X142896413Y-86335360D01*
X143086889Y-86525836D01*
X143182127Y-86716312D01*
X143277365Y-87097264D01*
X143277365Y-87382979D01*
X143182127Y-87763931D01*
X143086889Y-87954407D01*
X142896413Y-88144883D01*
X142610699Y-88240121D01*
X142134508Y-88240121D01*
X147277365Y-88240121D02*
X147182127Y-88240121D01*
X146991651Y-88144883D01*
X146705937Y-87859169D01*
X146229746Y-87287740D01*
X146039270Y-87002026D01*
X145944032Y-86716312D01*
X145944032Y-86525836D01*
X146039270Y-86335360D01*
X146229746Y-86240121D01*
X146324984Y-86240121D01*
X146515460Y-86335360D01*
X146610699Y-86525836D01*
X146610699Y-86621074D01*
X146515460Y-86811550D01*
X146420222Y-86906788D01*
X145848794Y-87287740D01*
X145753556Y-87382979D01*
X145658318Y-87573455D01*
X145658318Y-87859169D01*
X145753556Y-88049645D01*
X145848794Y-88144883D01*
X146039270Y-88240121D01*
X146324984Y-88240121D01*
X146515460Y-88144883D01*
X146610699Y-88049645D01*
X146896413Y-87668693D01*
X146991651Y-87382979D01*
X146991651Y-87192502D01*
X149563080Y-88144883D02*
X149848794Y-88240121D01*
X150324984Y-88240121D01*
X150515460Y-88144883D01*
X150610699Y-88049645D01*
X150705937Y-87859169D01*
X150705937Y-87668693D01*
X150610699Y-87478217D01*
X150515460Y-87382979D01*
X150324984Y-87287740D01*
X149944032Y-87192502D01*
X149753556Y-87097264D01*
X149658318Y-87002026D01*
X149563080Y-86811550D01*
X149563080Y-86621074D01*
X149658318Y-86430598D01*
X149753556Y-86335360D01*
X149944032Y-86240121D01*
X150420222Y-86240121D01*
X150705937Y-86335360D01*
X151563080Y-86240121D02*
X151563080Y-87859169D01*
X151658318Y-88049645D01*
X151753556Y-88144883D01*
X151944032Y-88240121D01*
X152324984Y-88240121D01*
X152515460Y-88144883D01*
X152610699Y-88049645D01*
X152705937Y-87859169D01*
X152705937Y-86240121D01*
X154324984Y-87192502D02*
X154610699Y-87287740D01*
X154705937Y-87382979D01*
X154801175Y-87573455D01*
X154801175Y-87859169D01*
X154705937Y-88049645D01*
X154610699Y-88144883D01*
X154420222Y-88240121D01*
X153658318Y-88240121D01*
X153658318Y-86240121D01*
X154324984Y-86240121D01*
X154515460Y-86335360D01*
X154610699Y-86430598D01*
X154705937Y-86621074D01*
X154705937Y-86811550D01*
X154610699Y-87002026D01*
X154515460Y-87097264D01*
X154324984Y-87192502D01*
X153658318Y-87192502D01*
X104220236Y-74832857D02*
X104334521Y-74870952D01*
X104372617Y-74909047D01*
X104410712Y-74985238D01*
X104410712Y-75099523D01*
X104372617Y-75175714D01*
X104334521Y-75213809D01*
X104258331Y-75251904D01*
X103953569Y-75251904D01*
X103953569Y-74451904D01*
X104220236Y-74451904D01*
X104296426Y-74490000D01*
X104334521Y-74528095D01*
X104372617Y-74604285D01*
X104372617Y-74680476D01*
X104334521Y-74756666D01*
X104296426Y-74794761D01*
X104220236Y-74832857D01*
X103953569Y-74832857D01*
X104753569Y-74451904D02*
X104753569Y-75099523D01*
X104791664Y-75175714D01*
X104829760Y-75213809D01*
X104905950Y-75251904D01*
X105058331Y-75251904D01*
X105134521Y-75213809D01*
X105172617Y-75175714D01*
X105210712Y-75099523D01*
X105210712Y-74451904D01*
X105858331Y-74832857D02*
X105591664Y-74832857D01*
X105591664Y-75251904D02*
X105591664Y-74451904D01*
X105972617Y-74451904D01*
X106544045Y-74832857D02*
X106277379Y-74832857D01*
X106277379Y-75251904D02*
X106277379Y-74451904D01*
X106658331Y-74451904D01*
X106963093Y-74832857D02*
X107229760Y-74832857D01*
X107344045Y-75251904D02*
X106963093Y-75251904D01*
X106963093Y-74451904D01*
X107344045Y-74451904D01*
X108144045Y-75251904D02*
X107877379Y-74870952D01*
X107686902Y-75251904D02*
X107686902Y-74451904D01*
X107991664Y-74451904D01*
X108067855Y-74490000D01*
X108105950Y-74528095D01*
X108144045Y-74604285D01*
X108144045Y-74718571D01*
X108105950Y-74794761D01*
X108067855Y-74832857D01*
X107991664Y-74870952D01*
X107686902Y-74870952D01*
D10*
X127406666Y-73206666D02*
X127873333Y-73206666D01*
X127573333Y-73906666D01*
X128440000Y-73440000D02*
X128440000Y-73906666D01*
X128273333Y-73173333D02*
X128106666Y-73673333D01*
X128540000Y-73673333D01*
X129140000Y-73906666D02*
X128806666Y-73906666D01*
X128806666Y-73206666D01*
X129340000Y-73873333D02*
X129440000Y-73906666D01*
X129606666Y-73906666D01*
X129673333Y-73873333D01*
X129706666Y-73840000D01*
X129740000Y-73773333D01*
X129740000Y-73706666D01*
X129706666Y-73640000D01*
X129673333Y-73606666D01*
X129606666Y-73573333D01*
X129473333Y-73540000D01*
X129406666Y-73506666D01*
X129373333Y-73473333D01*
X129340000Y-73406666D01*
X129340000Y-73340000D01*
X129373333Y-73273333D01*
X129406666Y-73240000D01*
X129473333Y-73206666D01*
X129640000Y-73206666D01*
X129740000Y-73240000D01*
X130006666Y-73273333D02*
X130040000Y-73240000D01*
X130106666Y-73206666D01*
X130273333Y-73206666D01*
X130340000Y-73240000D01*
X130373333Y-73273333D01*
X130406666Y-73340000D01*
X130406666Y-73406666D01*
X130373333Y-73506666D01*
X129973333Y-73906666D01*
X130406666Y-73906666D01*
X130806666Y-73506666D02*
X130740000Y-73473333D01*
X130706666Y-73440000D01*
X130673333Y-73373333D01*
X130673333Y-73340000D01*
X130706666Y-73273333D01*
X130740000Y-73240000D01*
X130806666Y-73206666D01*
X130940000Y-73206666D01*
X131006666Y-73240000D01*
X131040000Y-73273333D01*
X131073333Y-73340000D01*
X131073333Y-73373333D01*
X131040000Y-73440000D01*
X131006666Y-73473333D01*
X130940000Y-73506666D01*
X130806666Y-73506666D01*
X130740000Y-73540000D01*
X130706666Y-73573333D01*
X130673333Y-73640000D01*
X130673333Y-73773333D01*
X130706666Y-73840000D01*
X130740000Y-73873333D01*
X130806666Y-73906666D01*
X130940000Y-73906666D01*
X131006666Y-73873333D01*
X131040000Y-73840000D01*
X131073333Y-73773333D01*
X131073333Y-73640000D01*
X131040000Y-73573333D01*
X131006666Y-73540000D01*
X130940000Y-73506666D01*
X131306666Y-73206666D02*
X131740000Y-73206666D01*
X131506666Y-73473333D01*
X131606666Y-73473333D01*
X131673333Y-73506666D01*
X131706666Y-73540000D01*
X131740000Y-73606666D01*
X131740000Y-73773333D01*
X131706666Y-73840000D01*
X131673333Y-73873333D01*
X131606666Y-73906666D01*
X131406666Y-73906666D01*
X131340000Y-73873333D01*
X131306666Y-73840000D01*
D12*
X127858739Y-74885533D02*
X128239691Y-74885533D01*
X127782548Y-75114104D02*
X128049215Y-74314104D01*
X128315881Y-75114104D01*
X128582548Y-75114104D02*
X128582548Y-74314104D01*
X128773024Y-74314104D01*
X128887310Y-74352200D01*
X128963500Y-74428390D01*
X129001596Y-74504580D01*
X129039691Y-74656961D01*
X129039691Y-74771247D01*
X129001596Y-74923628D01*
X128963500Y-74999819D01*
X128887310Y-75076009D01*
X128773024Y-75114104D01*
X128582548Y-75114104D01*
X129382548Y-75114104D02*
X129382548Y-74314104D01*
X129573024Y-74314104D01*
X129687310Y-74352200D01*
X129763500Y-74428390D01*
X129801596Y-74504580D01*
X129839691Y-74656961D01*
X129839691Y-74771247D01*
X129801596Y-74923628D01*
X129763500Y-74999819D01*
X129687310Y-75076009D01*
X129573024Y-75114104D01*
X129382548Y-75114104D01*
X130182548Y-74695057D02*
X130449215Y-74695057D01*
X130563500Y-75114104D02*
X130182548Y-75114104D01*
X130182548Y-74314104D01*
X130563500Y-74314104D01*
X131363500Y-75114104D02*
X131096834Y-74733152D01*
X130906358Y-75114104D02*
X130906358Y-74314104D01*
X131211120Y-74314104D01*
X131287310Y-74352200D01*
X131325405Y-74390295D01*
X131363500Y-74466485D01*
X131363500Y-74580771D01*
X131325405Y-74656961D01*
X131287310Y-74695057D01*
X131211120Y-74733152D01*
X130906358Y-74733152D01*
X150087619Y-74873333D02*
X150468571Y-74873333D01*
X150011428Y-75101904D02*
X150278095Y-74301904D01*
X150544761Y-75101904D01*
X150811428Y-75101904D02*
X150811428Y-74301904D01*
X151001904Y-74301904D01*
X151116190Y-74340000D01*
X151192380Y-74416190D01*
X151230476Y-74492380D01*
X151268571Y-74644761D01*
X151268571Y-74759047D01*
X151230476Y-74911428D01*
X151192380Y-74987619D01*
X151116190Y-75063809D01*
X151001904Y-75101904D01*
X150811428Y-75101904D01*
X151611428Y-75101904D02*
X151611428Y-74301904D01*
X151801904Y-74301904D01*
X151916190Y-74340000D01*
X151992380Y-74416190D01*
X152030476Y-74492380D01*
X152068571Y-74644761D01*
X152068571Y-74759047D01*
X152030476Y-74911428D01*
X151992380Y-74987619D01*
X151916190Y-75063809D01*
X151801904Y-75101904D01*
X151611428Y-75101904D01*
X152411428Y-74682857D02*
X152678095Y-74682857D01*
X152792380Y-75101904D02*
X152411428Y-75101904D01*
X152411428Y-74301904D01*
X152792380Y-74301904D01*
X153592380Y-75101904D02*
X153325714Y-74720952D01*
X153135238Y-75101904D02*
X153135238Y-74301904D01*
X153440000Y-74301904D01*
X153516190Y-74340000D01*
X153554285Y-74378095D01*
X153592380Y-74454285D01*
X153592380Y-74568571D01*
X153554285Y-74644761D01*
X153516190Y-74682857D01*
X153440000Y-74720952D01*
X153135238Y-74720952D01*
X119681125Y-102304904D02*
X120214459Y-103104904D01*
X120214459Y-102304904D02*
X119681125Y-103104904D01*
X120671601Y-102304904D02*
X120823982Y-102304904D01*
X120900173Y-102343000D01*
X120976363Y-102419190D01*
X121014459Y-102571571D01*
X121014459Y-102838238D01*
X120976363Y-102990619D01*
X120900173Y-103066809D01*
X120823982Y-103104904D01*
X120671601Y-103104904D01*
X120595411Y-103066809D01*
X120519220Y-102990619D01*
X120481125Y-102838238D01*
X120481125Y-102571571D01*
X120519220Y-102419190D01*
X120595411Y-102343000D01*
X120671601Y-102304904D01*
X121814459Y-103104904D02*
X121547792Y-102723952D01*
X121357316Y-103104904D02*
X121357316Y-102304904D01*
X121662078Y-102304904D01*
X121738268Y-102343000D01*
X121776363Y-102381095D01*
X121814459Y-102457285D01*
X121814459Y-102571571D01*
X121776363Y-102647761D01*
X121738268Y-102685857D01*
X121662078Y-102723952D01*
X121357316Y-102723952D01*
D11*
X160467194Y-79349300D02*
X160467194Y-78968347D01*
X160507834Y-76900740D02*
X160507834Y-76519787D01*
X160698310Y-76710263D02*
X160317358Y-76710263D01*
D10*
X118896520Y-101257306D02*
X119363186Y-101257306D01*
X119063186Y-101957306D01*
X119929853Y-101490640D02*
X119929853Y-101957306D01*
X119763186Y-101223973D02*
X119596520Y-101723973D01*
X120029853Y-101723973D01*
X120629853Y-101957306D02*
X120296520Y-101957306D01*
X120296520Y-101257306D01*
X120829853Y-101923973D02*
X120929853Y-101957306D01*
X121096520Y-101957306D01*
X121163186Y-101923973D01*
X121196520Y-101890640D01*
X121229853Y-101823973D01*
X121229853Y-101757306D01*
X121196520Y-101690640D01*
X121163186Y-101657306D01*
X121096520Y-101623973D01*
X120963186Y-101590640D01*
X120896520Y-101557306D01*
X120863186Y-101523973D01*
X120829853Y-101457306D01*
X120829853Y-101390640D01*
X120863186Y-101323973D01*
X120896520Y-101290640D01*
X120963186Y-101257306D01*
X121129853Y-101257306D01*
X121229853Y-101290640D01*
X121629853Y-101557306D02*
X121563186Y-101523973D01*
X121529853Y-101490640D01*
X121496520Y-101423973D01*
X121496520Y-101390640D01*
X121529853Y-101323973D01*
X121563186Y-101290640D01*
X121629853Y-101257306D01*
X121763186Y-101257306D01*
X121829853Y-101290640D01*
X121863186Y-101323973D01*
X121896520Y-101390640D01*
X121896520Y-101423973D01*
X121863186Y-101490640D01*
X121829853Y-101523973D01*
X121763186Y-101557306D01*
X121629853Y-101557306D01*
X121563186Y-101590640D01*
X121529853Y-101623973D01*
X121496520Y-101690640D01*
X121496520Y-101823973D01*
X121529853Y-101890640D01*
X121563186Y-101923973D01*
X121629853Y-101957306D01*
X121763186Y-101957306D01*
X121829853Y-101923973D01*
X121863186Y-101890640D01*
X121896520Y-101823973D01*
X121896520Y-101690640D01*
X121863186Y-101623973D01*
X121829853Y-101590640D01*
X121763186Y-101557306D01*
X122496520Y-101257306D02*
X122363186Y-101257306D01*
X122296520Y-101290640D01*
X122263186Y-101323973D01*
X122196520Y-101423973D01*
X122163186Y-101557306D01*
X122163186Y-101823973D01*
X122196520Y-101890640D01*
X122229853Y-101923973D01*
X122296520Y-101957306D01*
X122429853Y-101957306D01*
X122496520Y-101923973D01*
X122529853Y-101890640D01*
X122563186Y-101823973D01*
X122563186Y-101657306D01*
X122529853Y-101590640D01*
X122496520Y-101557306D01*
X122429853Y-101523973D01*
X122296520Y-101523973D01*
X122229853Y-101557306D01*
X122196520Y-101590640D01*
X122163186Y-101657306D01*
X99201360Y-101267466D02*
X99668026Y-101267466D01*
X99368026Y-101967466D01*
X100234693Y-101500800D02*
X100234693Y-101967466D01*
X100068026Y-101234133D02*
X99901360Y-101734133D01*
X100334693Y-101734133D01*
X100934693Y-101967466D02*
X100601360Y-101967466D01*
X100601360Y-101267466D01*
X101134693Y-101934133D02*
X101234693Y-101967466D01*
X101401360Y-101967466D01*
X101468026Y-101934133D01*
X101501360Y-101900800D01*
X101534693Y-101834133D01*
X101534693Y-101767466D01*
X101501360Y-101700800D01*
X101468026Y-101667466D01*
X101401360Y-101634133D01*
X101268026Y-101600800D01*
X101201360Y-101567466D01*
X101168026Y-101534133D01*
X101134693Y-101467466D01*
X101134693Y-101400800D01*
X101168026Y-101334133D01*
X101201360Y-101300800D01*
X101268026Y-101267466D01*
X101434693Y-101267466D01*
X101534693Y-101300800D01*
X101934693Y-101567466D02*
X101868026Y-101534133D01*
X101834693Y-101500800D01*
X101801360Y-101434133D01*
X101801360Y-101400800D01*
X101834693Y-101334133D01*
X101868026Y-101300800D01*
X101934693Y-101267466D01*
X102068026Y-101267466D01*
X102134693Y-101300800D01*
X102168026Y-101334133D01*
X102201360Y-101400800D01*
X102201360Y-101434133D01*
X102168026Y-101500800D01*
X102134693Y-101534133D01*
X102068026Y-101567466D01*
X101934693Y-101567466D01*
X101868026Y-101600800D01*
X101834693Y-101634133D01*
X101801360Y-101700800D01*
X101801360Y-101834133D01*
X101834693Y-101900800D01*
X101868026Y-101934133D01*
X101934693Y-101967466D01*
X102068026Y-101967466D01*
X102134693Y-101934133D01*
X102168026Y-101900800D01*
X102201360Y-101834133D01*
X102201360Y-101700800D01*
X102168026Y-101634133D01*
X102134693Y-101600800D01*
X102068026Y-101567466D01*
X102801360Y-101267466D02*
X102668026Y-101267466D01*
X102601360Y-101300800D01*
X102568026Y-101334133D01*
X102501360Y-101434133D01*
X102468026Y-101567466D01*
X102468026Y-101834133D01*
X102501360Y-101900800D01*
X102534693Y-101934133D01*
X102601360Y-101967466D01*
X102734693Y-101967466D01*
X102801360Y-101934133D01*
X102834693Y-101900800D01*
X102868026Y-101834133D01*
X102868026Y-101667466D01*
X102834693Y-101600800D01*
X102801360Y-101567466D01*
X102734693Y-101534133D01*
X102601360Y-101534133D01*
X102534693Y-101567466D01*
X102501360Y-101600800D01*
X102468026Y-101667466D01*
X149525786Y-73256346D02*
X149992453Y-73256346D01*
X149692453Y-73956346D01*
X150559120Y-73489680D02*
X150559120Y-73956346D01*
X150392453Y-73223013D02*
X150225786Y-73723013D01*
X150659120Y-73723013D01*
X151259120Y-73956346D02*
X150925786Y-73956346D01*
X150925786Y-73256346D01*
X151459120Y-73923013D02*
X151559120Y-73956346D01*
X151725786Y-73956346D01*
X151792453Y-73923013D01*
X151825786Y-73889680D01*
X151859120Y-73823013D01*
X151859120Y-73756346D01*
X151825786Y-73689680D01*
X151792453Y-73656346D01*
X151725786Y-73623013D01*
X151592453Y-73589680D01*
X151525786Y-73556346D01*
X151492453Y-73523013D01*
X151459120Y-73456346D01*
X151459120Y-73389680D01*
X151492453Y-73323013D01*
X151525786Y-73289680D01*
X151592453Y-73256346D01*
X151759120Y-73256346D01*
X151859120Y-73289680D01*
X152125786Y-73323013D02*
X152159120Y-73289680D01*
X152225786Y-73256346D01*
X152392453Y-73256346D01*
X152459120Y-73289680D01*
X152492453Y-73323013D01*
X152525786Y-73389680D01*
X152525786Y-73456346D01*
X152492453Y-73556346D01*
X152092453Y-73956346D01*
X152525786Y-73956346D01*
X152925786Y-73556346D02*
X152859120Y-73523013D01*
X152825786Y-73489680D01*
X152792453Y-73423013D01*
X152792453Y-73389680D01*
X152825786Y-73323013D01*
X152859120Y-73289680D01*
X152925786Y-73256346D01*
X153059120Y-73256346D01*
X153125786Y-73289680D01*
X153159120Y-73323013D01*
X153192453Y-73389680D01*
X153192453Y-73423013D01*
X153159120Y-73489680D01*
X153125786Y-73523013D01*
X153059120Y-73556346D01*
X152925786Y-73556346D01*
X152859120Y-73589680D01*
X152825786Y-73623013D01*
X152792453Y-73689680D01*
X152792453Y-73823013D01*
X152825786Y-73889680D01*
X152859120Y-73923013D01*
X152925786Y-73956346D01*
X153059120Y-73956346D01*
X153125786Y-73923013D01*
X153159120Y-73889680D01*
X153192453Y-73823013D01*
X153192453Y-73689680D01*
X153159120Y-73623013D01*
X153125786Y-73589680D01*
X153059120Y-73556346D01*
X153425786Y-73256346D02*
X153859120Y-73256346D01*
X153625786Y-73523013D01*
X153725786Y-73523013D01*
X153792453Y-73556346D01*
X153825786Y-73589680D01*
X153859120Y-73656346D01*
X153859120Y-73823013D01*
X153825786Y-73889680D01*
X153792453Y-73923013D01*
X153725786Y-73956346D01*
X153525786Y-73956346D01*
X153459120Y-73923013D01*
X153425786Y-73889680D01*
X103800706Y-73429066D02*
X104267373Y-73429066D01*
X103967373Y-74129066D01*
X104834040Y-73662400D02*
X104834040Y-74129066D01*
X104667373Y-73395733D02*
X104500706Y-73895733D01*
X104934040Y-73895733D01*
X105534040Y-74129066D02*
X105200706Y-74129066D01*
X105200706Y-73429066D01*
X105734040Y-74095733D02*
X105834040Y-74129066D01*
X106000706Y-74129066D01*
X106067373Y-74095733D01*
X106100706Y-74062400D01*
X106134040Y-73995733D01*
X106134040Y-73929066D01*
X106100706Y-73862400D01*
X106067373Y-73829066D01*
X106000706Y-73795733D01*
X105867373Y-73762400D01*
X105800706Y-73729066D01*
X105767373Y-73695733D01*
X105734040Y-73629066D01*
X105734040Y-73562400D01*
X105767373Y-73495733D01*
X105800706Y-73462400D01*
X105867373Y-73429066D01*
X106034040Y-73429066D01*
X106134040Y-73462400D01*
X106400706Y-73495733D02*
X106434040Y-73462400D01*
X106500706Y-73429066D01*
X106667373Y-73429066D01*
X106734040Y-73462400D01*
X106767373Y-73495733D01*
X106800706Y-73562400D01*
X106800706Y-73629066D01*
X106767373Y-73729066D01*
X106367373Y-74129066D01*
X106800706Y-74129066D01*
X107400706Y-73662400D02*
X107400706Y-74129066D01*
X107234040Y-73395733D02*
X107067373Y-73895733D01*
X107500706Y-73895733D01*
X108100706Y-73429066D02*
X107767373Y-73429066D01*
X107734040Y-73762400D01*
X107767373Y-73729066D01*
X107834040Y-73695733D01*
X108000706Y-73695733D01*
X108067373Y-73729066D01*
X108100706Y-73762400D01*
X108134040Y-73829066D01*
X108134040Y-73995733D01*
X108100706Y-74062400D01*
X108067373Y-74095733D01*
X108000706Y-74129066D01*
X107834040Y-74129066D01*
X107767373Y-74095733D01*
X107734040Y-74062400D01*
D11*
X90820085Y-56987740D02*
X90820085Y-57368692D01*
X93268645Y-56972500D02*
X93268645Y-57353452D01*
X93078169Y-57162976D02*
X93459121Y-57162976D01*
X80997362Y-84500257D02*
X80997362Y-84833590D01*
X80878315Y-84309780D02*
X80759267Y-84666923D01*
X81068791Y-84666923D01*
X83300858Y-84348830D02*
X83610381Y-84348830D01*
X83443715Y-84539306D01*
X83515143Y-84539306D01*
X83562762Y-84563116D01*
X83586572Y-84586925D01*
X83610381Y-84634544D01*
X83610381Y-84753592D01*
X83586572Y-84801211D01*
X83562762Y-84825020D01*
X83515143Y-84848830D01*
X83372286Y-84848830D01*
X83324667Y-84825020D01*
X83300858Y-84801211D01*
X85849427Y-84355809D02*
X85873237Y-84332000D01*
X85920856Y-84308190D01*
X86039903Y-84308190D01*
X86087522Y-84332000D01*
X86111332Y-84355809D01*
X86135141Y-84403428D01*
X86135141Y-84451047D01*
X86111332Y-84522476D01*
X85825618Y-84808190D01*
X86135141Y-84808190D01*
X88700541Y-84823430D02*
X88414827Y-84823430D01*
X88557684Y-84823430D02*
X88557684Y-84323430D01*
X88510065Y-84394859D01*
X88462446Y-84442478D01*
X88414827Y-84466287D01*
X75907202Y-84298030D02*
X75811964Y-84298030D01*
X75764345Y-84321840D01*
X75740536Y-84345649D01*
X75692917Y-84417078D01*
X75669107Y-84512316D01*
X75669107Y-84702792D01*
X75692917Y-84750411D01*
X75716726Y-84774220D01*
X75764345Y-84798030D01*
X75859583Y-84798030D01*
X75907202Y-84774220D01*
X75931012Y-84750411D01*
X75954821Y-84702792D01*
X75954821Y-84583744D01*
X75931012Y-84536125D01*
X75907202Y-84512316D01*
X75859583Y-84488506D01*
X75764345Y-84488506D01*
X75716726Y-84512316D01*
X75692917Y-84536125D01*
X75669107Y-84583744D01*
X78496412Y-84313270D02*
X78258317Y-84313270D01*
X78234507Y-84551365D01*
X78258317Y-84527556D01*
X78305936Y-84503746D01*
X78424983Y-84503746D01*
X78472602Y-84527556D01*
X78496412Y-84551365D01*
X78520221Y-84598984D01*
X78520221Y-84718032D01*
X78496412Y-84765651D01*
X78472602Y-84789460D01*
X78424983Y-84813270D01*
X78305936Y-84813270D01*
X78258317Y-84789460D01*
X78234507Y-84765651D01*
X73120538Y-84338670D02*
X73453871Y-84338670D01*
X73239585Y-84838670D01*
X70674185Y-84537716D02*
X70626566Y-84513906D01*
X70602757Y-84490097D01*
X70578947Y-84442478D01*
X70578947Y-84418668D01*
X70602757Y-84371049D01*
X70626566Y-84347240D01*
X70674185Y-84323430D01*
X70769423Y-84323430D01*
X70817042Y-84347240D01*
X70840852Y-84371049D01*
X70864661Y-84418668D01*
X70864661Y-84442478D01*
X70840852Y-84490097D01*
X70817042Y-84513906D01*
X70769423Y-84537716D01*
X70674185Y-84537716D01*
X70626566Y-84561525D01*
X70602757Y-84585335D01*
X70578947Y-84632954D01*
X70578947Y-84728192D01*
X70602757Y-84775811D01*
X70626566Y-84799620D01*
X70674185Y-84823430D01*
X70769423Y-84823430D01*
X70817042Y-84799620D01*
X70840852Y-84775811D01*
X70864661Y-84728192D01*
X70864661Y-84632954D01*
X70840852Y-84585335D01*
X70817042Y-84561525D01*
X70769423Y-84537716D01*
D10*
X68265840Y-82981560D02*
X68299173Y-82881560D01*
X68332506Y-82848226D01*
X68399173Y-82814893D01*
X68499173Y-82814893D01*
X68565840Y-82848226D01*
X68599173Y-82881560D01*
X68632506Y-82948226D01*
X68632506Y-83214893D01*
X67932506Y-83214893D01*
X67932506Y-82981560D01*
X67965840Y-82914893D01*
X67999173Y-82881560D01*
X68065840Y-82848226D01*
X68132506Y-82848226D01*
X68199173Y-82881560D01*
X68232506Y-82914893D01*
X68265840Y-82981560D01*
X68265840Y-83214893D01*
X67932506Y-82514893D02*
X68499173Y-82514893D01*
X68565840Y-82481560D01*
X68599173Y-82448226D01*
X68632506Y-82381560D01*
X68632506Y-82248226D01*
X68599173Y-82181560D01*
X68565840Y-82148226D01*
X68499173Y-82114893D01*
X67932506Y-82114893D01*
X68599173Y-81814893D02*
X68632506Y-81714893D01*
X68632506Y-81548226D01*
X68599173Y-81481560D01*
X68565840Y-81448226D01*
X68499173Y-81414893D01*
X68432506Y-81414893D01*
X68365840Y-81448226D01*
X68332506Y-81481560D01*
X68299173Y-81548226D01*
X68265840Y-81681560D01*
X68232506Y-81748226D01*
X68199173Y-81781560D01*
X68132506Y-81814893D01*
X68065840Y-81814893D01*
X67999173Y-81781560D01*
X67965840Y-81748226D01*
X67932506Y-81681560D01*
X67932506Y-81514893D01*
X67965840Y-81414893D01*
D11*
X163987785Y-74225142D02*
X164597309Y-74225142D01*
X164292547Y-74529904D02*
X164292547Y-73920380D01*
X164863976Y-73729904D02*
X165130642Y-74529904D01*
X165397309Y-73729904D01*
X166121119Y-74453714D02*
X166083023Y-74491809D01*
X165968738Y-74529904D01*
X165892547Y-74529904D01*
X165778261Y-74491809D01*
X165702071Y-74415619D01*
X165663976Y-74339428D01*
X165625880Y-74187047D01*
X165625880Y-74072761D01*
X165663976Y-73920380D01*
X165702071Y-73844190D01*
X165778261Y-73768000D01*
X165892547Y-73729904D01*
X165968738Y-73729904D01*
X166083023Y-73768000D01*
X166121119Y-73806095D01*
X166921119Y-74453714D02*
X166883023Y-74491809D01*
X166768738Y-74529904D01*
X166692547Y-74529904D01*
X166578261Y-74491809D01*
X166502071Y-74415619D01*
X166463976Y-74339428D01*
X166425880Y-74187047D01*
X166425880Y-74072761D01*
X166463976Y-73920380D01*
X166502071Y-73844190D01*
X166578261Y-73768000D01*
X166692547Y-73729904D01*
X166768738Y-73729904D01*
X166883023Y-73768000D01*
X166921119Y-73806095D01*
X163835404Y-81845142D02*
X164444928Y-81845142D01*
X165244928Y-81388000D02*
X165168738Y-81349904D01*
X165054452Y-81349904D01*
X164940166Y-81388000D01*
X164863976Y-81464190D01*
X164825880Y-81540380D01*
X164787785Y-81692761D01*
X164787785Y-81807047D01*
X164825880Y-81959428D01*
X164863976Y-82035619D01*
X164940166Y-82111809D01*
X165054452Y-82149904D01*
X165130642Y-82149904D01*
X165244928Y-82111809D01*
X165283023Y-82073714D01*
X165283023Y-81807047D01*
X165130642Y-81807047D01*
X165625880Y-82149904D02*
X165625880Y-81349904D01*
X166083023Y-82149904D01*
X166083023Y-81349904D01*
X166463976Y-82149904D02*
X166463976Y-81349904D01*
X166654452Y-81349904D01*
X166768738Y-81388000D01*
X166844928Y-81464190D01*
X166883023Y-81540380D01*
X166921119Y-81692761D01*
X166921119Y-81807047D01*
X166883023Y-81959428D01*
X166844928Y-82035619D01*
X166768738Y-82111809D01*
X166654452Y-82149904D01*
X166463976Y-82149904D01*
X162691858Y-102361180D02*
X162763286Y-102384990D01*
X162882334Y-102384990D01*
X162929953Y-102361180D01*
X162953762Y-102337371D01*
X162977572Y-102289752D01*
X162977572Y-102242133D01*
X162953762Y-102194514D01*
X162929953Y-102170704D01*
X162882334Y-102146895D01*
X162787096Y-102123085D01*
X162739477Y-102099276D01*
X162715667Y-102075466D01*
X162691858Y-102027847D01*
X162691858Y-101980228D01*
X162715667Y-101932609D01*
X162739477Y-101908800D01*
X162787096Y-101884990D01*
X162906143Y-101884990D01*
X162977572Y-101908800D01*
X163191858Y-101884990D02*
X163191858Y-102289752D01*
X163215667Y-102337371D01*
X163239477Y-102361180D01*
X163287096Y-102384990D01*
X163382334Y-102384990D01*
X163429953Y-102361180D01*
X163453762Y-102337371D01*
X163477572Y-102289752D01*
X163477572Y-101884990D01*
X163882334Y-102123085D02*
X163953762Y-102146895D01*
X163977572Y-102170704D01*
X164001381Y-102218323D01*
X164001381Y-102289752D01*
X163977572Y-102337371D01*
X163953762Y-102361180D01*
X163906143Y-102384990D01*
X163715667Y-102384990D01*
X163715667Y-101884990D01*
X163882334Y-101884990D01*
X163929953Y-101908800D01*
X163953762Y-101932609D01*
X163977572Y-101980228D01*
X163977572Y-102027847D01*
X163953762Y-102075466D01*
X163929953Y-102099276D01*
X163882334Y-102123085D01*
X163715667Y-102123085D01*
X162661069Y-99795780D02*
X162732498Y-99819590D01*
X162851545Y-99819590D01*
X162899164Y-99795780D01*
X162922974Y-99771971D01*
X162946783Y-99724352D01*
X162946783Y-99676733D01*
X162922974Y-99629114D01*
X162899164Y-99605304D01*
X162851545Y-99581495D01*
X162756307Y-99557685D01*
X162708688Y-99533876D01*
X162684879Y-99510066D01*
X162661069Y-99462447D01*
X162661069Y-99414828D01*
X162684879Y-99367209D01*
X162708688Y-99343400D01*
X162756307Y-99319590D01*
X162875355Y-99319590D01*
X162946783Y-99343400D01*
X163161069Y-99319590D02*
X163161069Y-99724352D01*
X163184879Y-99771971D01*
X163208688Y-99795780D01*
X163256307Y-99819590D01*
X163351545Y-99819590D01*
X163399164Y-99795780D01*
X163422974Y-99771971D01*
X163446783Y-99724352D01*
X163446783Y-99319590D01*
X163684879Y-99819590D02*
X163684879Y-99319590D01*
X163851545Y-99676733D01*
X164018212Y-99319590D01*
X164018212Y-99819590D01*
X163497892Y-94651331D02*
X163474082Y-94675140D01*
X163402654Y-94698950D01*
X163355035Y-94698950D01*
X163283606Y-94675140D01*
X163235987Y-94627521D01*
X163212178Y-94579902D01*
X163188368Y-94484664D01*
X163188368Y-94413236D01*
X163212178Y-94317998D01*
X163235987Y-94270379D01*
X163283606Y-94222760D01*
X163355035Y-94198950D01*
X163402654Y-94198950D01*
X163474082Y-94222760D01*
X163497892Y-94246569D01*
X163807416Y-94198950D02*
X163902654Y-94198950D01*
X163950273Y-94222760D01*
X163997892Y-94270379D01*
X164021701Y-94365617D01*
X164021701Y-94532283D01*
X163997892Y-94627521D01*
X163950273Y-94675140D01*
X163902654Y-94698950D01*
X163807416Y-94698950D01*
X163759797Y-94675140D01*
X163712178Y-94627521D01*
X163688368Y-94532283D01*
X163688368Y-94365617D01*
X163712178Y-94270379D01*
X163759797Y-94222760D01*
X163807416Y-94198950D01*
X162409633Y-96869750D02*
X162409633Y-96369750D01*
X162409633Y-96607845D02*
X162695347Y-96607845D01*
X162695347Y-96869750D02*
X162695347Y-96369750D01*
X162933442Y-96869750D02*
X162933442Y-96369750D01*
X163433442Y-96393560D02*
X163385823Y-96369750D01*
X163314395Y-96369750D01*
X163242966Y-96393560D01*
X163195347Y-96441179D01*
X163171538Y-96488798D01*
X163147728Y-96584036D01*
X163147728Y-96655464D01*
X163171538Y-96750702D01*
X163195347Y-96798321D01*
X163242966Y-96845940D01*
X163314395Y-96869750D01*
X163362014Y-96869750D01*
X163433442Y-96845940D01*
X163457252Y-96822131D01*
X163457252Y-96655464D01*
X163362014Y-96655464D01*
X163671538Y-96869750D02*
X163671538Y-96369750D01*
X163671538Y-96607845D02*
X163957252Y-96607845D01*
X163957252Y-96869750D02*
X163957252Y-96369750D01*
X163242966Y-97447845D02*
X163314395Y-97471655D01*
X163338204Y-97495464D01*
X163362014Y-97543083D01*
X163362014Y-97614512D01*
X163338204Y-97662131D01*
X163314395Y-97685940D01*
X163266776Y-97709750D01*
X163076300Y-97709750D01*
X163076300Y-97209750D01*
X163242966Y-97209750D01*
X163290585Y-97233560D01*
X163314395Y-97257369D01*
X163338204Y-97304988D01*
X163338204Y-97352607D01*
X163314395Y-97400226D01*
X163290585Y-97424036D01*
X163242966Y-97447845D01*
X163076300Y-97447845D01*
X163576300Y-97709750D02*
X163576300Y-97209750D01*
X163742966Y-97209750D02*
X164028680Y-97209750D01*
X163885823Y-97709750D02*
X163885823Y-97209750D01*
D10*
X78939960Y-93503280D02*
X79039960Y-93536613D01*
X79073293Y-93569946D01*
X79106626Y-93636613D01*
X79106626Y-93736613D01*
X79073293Y-93803280D01*
X79039960Y-93836613D01*
X78973293Y-93869946D01*
X78706626Y-93869946D01*
X78706626Y-93169946D01*
X78939960Y-93169946D01*
X79006626Y-93203280D01*
X79039960Y-93236613D01*
X79073293Y-93303280D01*
X79073293Y-93369946D01*
X79039960Y-93436613D01*
X79006626Y-93469946D01*
X78939960Y-93503280D01*
X78706626Y-93503280D01*
X79939960Y-93869946D02*
X79939960Y-93169946D01*
X80273293Y-93869946D02*
X80273293Y-93169946D01*
X80673293Y-93869946D01*
X80673293Y-93169946D01*
X85847266Y-97411746D02*
X86313933Y-97411746D01*
X86013933Y-98111746D01*
X71050760Y-98218426D02*
X70650760Y-98218426D01*
X70850760Y-98218426D02*
X70850760Y-97518426D01*
X70784093Y-97618426D01*
X70717426Y-97685093D01*
X70650760Y-97718426D01*
X75717746Y-97442226D02*
X76151080Y-97442226D01*
X75917746Y-97708893D01*
X76017746Y-97708893D01*
X76084413Y-97742226D01*
X76117746Y-97775560D01*
X76151080Y-97842226D01*
X76151080Y-98008893D01*
X76117746Y-98075560D01*
X76084413Y-98108893D01*
X76017746Y-98142226D01*
X75817746Y-98142226D01*
X75751080Y-98108893D01*
X75717746Y-98075560D01*
X81116466Y-97432066D02*
X80783133Y-97432066D01*
X80749800Y-97765400D01*
X80783133Y-97732066D01*
X80849800Y-97698733D01*
X81016466Y-97698733D01*
X81083133Y-97732066D01*
X81116466Y-97765400D01*
X81149800Y-97832066D01*
X81149800Y-97998733D01*
X81116466Y-98065400D01*
X81083133Y-98098733D01*
X81016466Y-98132066D01*
X80849800Y-98132066D01*
X80783133Y-98098733D01*
X80749800Y-98065400D01*
X88538693Y-97706666D02*
X88472026Y-97673333D01*
X88438693Y-97640000D01*
X88405360Y-97573333D01*
X88405360Y-97540000D01*
X88438693Y-97473333D01*
X88472026Y-97440000D01*
X88538693Y-97406666D01*
X88672026Y-97406666D01*
X88738693Y-97440000D01*
X88772026Y-97473333D01*
X88805360Y-97540000D01*
X88805360Y-97573333D01*
X88772026Y-97640000D01*
X88738693Y-97673333D01*
X88672026Y-97706666D01*
X88538693Y-97706666D01*
X88472026Y-97740000D01*
X88438693Y-97773333D01*
X88405360Y-97840000D01*
X88405360Y-97973333D01*
X88438693Y-98040000D01*
X88472026Y-98073333D01*
X88538693Y-98106666D01*
X88672026Y-98106666D01*
X88738693Y-98073333D01*
X88772026Y-98040000D01*
X88805360Y-97973333D01*
X88805360Y-97840000D01*
X88772026Y-97773333D01*
X88738693Y-97740000D01*
X88672026Y-97706666D01*
X83724733Y-97396506D02*
X83591400Y-97396506D01*
X83524733Y-97429840D01*
X83491400Y-97463173D01*
X83424733Y-97563173D01*
X83391400Y-97696506D01*
X83391400Y-97963173D01*
X83424733Y-98029840D01*
X83458066Y-98063173D01*
X83524733Y-98096506D01*
X83658066Y-98096506D01*
X83724733Y-98063173D01*
X83758066Y-98029840D01*
X83791400Y-97963173D01*
X83791400Y-97796506D01*
X83758066Y-97729840D01*
X83724733Y-97696506D01*
X83658066Y-97663173D01*
X83524733Y-97663173D01*
X83458066Y-97696506D01*
X83424733Y-97729840D01*
X83391400Y-97796506D01*
X78604093Y-97645080D02*
X78604093Y-98111746D01*
X78437426Y-97378413D02*
X78270760Y-97878413D01*
X78704093Y-97878413D01*
X73160280Y-97544453D02*
X73193613Y-97511120D01*
X73260280Y-97477786D01*
X73426946Y-97477786D01*
X73493613Y-97511120D01*
X73526946Y-97544453D01*
X73560280Y-97611120D01*
X73560280Y-97677786D01*
X73526946Y-97777786D01*
X73126946Y-98177786D01*
X73560280Y-98177786D01*
X88320253Y-70157826D02*
X88253586Y-70124493D01*
X88220253Y-70091160D01*
X88186920Y-70024493D01*
X88186920Y-69991160D01*
X88220253Y-69924493D01*
X88253586Y-69891160D01*
X88320253Y-69857826D01*
X88453586Y-69857826D01*
X88520253Y-69891160D01*
X88553586Y-69924493D01*
X88586920Y-69991160D01*
X88586920Y-70024493D01*
X88553586Y-70091160D01*
X88520253Y-70124493D01*
X88453586Y-70157826D01*
X88320253Y-70157826D01*
X88253586Y-70191160D01*
X88220253Y-70224493D01*
X88186920Y-70291160D01*
X88186920Y-70424493D01*
X88220253Y-70491160D01*
X88253586Y-70524493D01*
X88320253Y-70557826D01*
X88453586Y-70557826D01*
X88520253Y-70524493D01*
X88553586Y-70491160D01*
X88586920Y-70424493D01*
X88586920Y-70291160D01*
X88553586Y-70224493D01*
X88520253Y-70191160D01*
X88453586Y-70157826D01*
X85628826Y-69862906D02*
X86095493Y-69862906D01*
X85795493Y-70562906D01*
X83506293Y-69847666D02*
X83372960Y-69847666D01*
X83306293Y-69881000D01*
X83272960Y-69914333D01*
X83206293Y-70014333D01*
X83172960Y-70147666D01*
X83172960Y-70414333D01*
X83206293Y-70481000D01*
X83239626Y-70514333D01*
X83306293Y-70547666D01*
X83439626Y-70547666D01*
X83506293Y-70514333D01*
X83539626Y-70481000D01*
X83572960Y-70414333D01*
X83572960Y-70247666D01*
X83539626Y-70181000D01*
X83506293Y-70147666D01*
X83439626Y-70114333D01*
X83306293Y-70114333D01*
X83239626Y-70147666D01*
X83206293Y-70181000D01*
X83172960Y-70247666D01*
X80898026Y-69883226D02*
X80564693Y-69883226D01*
X80531360Y-70216560D01*
X80564693Y-70183226D01*
X80631360Y-70149893D01*
X80798026Y-70149893D01*
X80864693Y-70183226D01*
X80898026Y-70216560D01*
X80931360Y-70283226D01*
X80931360Y-70449893D01*
X80898026Y-70516560D01*
X80864693Y-70549893D01*
X80798026Y-70583226D01*
X80631360Y-70583226D01*
X80564693Y-70549893D01*
X80531360Y-70516560D01*
X78385653Y-70096240D02*
X78385653Y-70562906D01*
X78218986Y-69829573D02*
X78052320Y-70329573D01*
X78485653Y-70329573D01*
X75499306Y-69893386D02*
X75932640Y-69893386D01*
X75699306Y-70160053D01*
X75799306Y-70160053D01*
X75865973Y-70193386D01*
X75899306Y-70226720D01*
X75932640Y-70293386D01*
X75932640Y-70460053D01*
X75899306Y-70526720D01*
X75865973Y-70560053D01*
X75799306Y-70593386D01*
X75599306Y-70593386D01*
X75532640Y-70560053D01*
X75499306Y-70526720D01*
X72941840Y-69995613D02*
X72975173Y-69962280D01*
X73041840Y-69928946D01*
X73208506Y-69928946D01*
X73275173Y-69962280D01*
X73308506Y-69995613D01*
X73341840Y-70062280D01*
X73341840Y-70128946D01*
X73308506Y-70228946D01*
X72908506Y-70628946D01*
X73341840Y-70628946D01*
X70832320Y-70669586D02*
X70432320Y-70669586D01*
X70632320Y-70669586D02*
X70632320Y-69969586D01*
X70565653Y-70069586D01*
X70498986Y-70136253D01*
X70432320Y-70169586D01*
X78575973Y-66060146D02*
X78909306Y-66060146D01*
X78509306Y-66260146D02*
X78742640Y-65560146D01*
X78975973Y-66260146D01*
X79742640Y-66260146D02*
X79742640Y-65560146D01*
X80075973Y-66260146D02*
X80075973Y-65560146D01*
X80475973Y-66260146D01*
X80475973Y-65560146D01*
D13*
%TO.C,J8*%
X92111520Y-106736840D02*
X92111520Y-109396840D01*
X109951520Y-106736840D02*
X92111520Y-106736840D01*
X109951520Y-109396840D02*
X92111520Y-109396840D01*
X109951520Y-106736840D02*
X109951520Y-109396840D01*
X111221520Y-106736840D02*
X112551520Y-106736840D01*
X112551520Y-106736840D02*
X112551520Y-108066840D01*
%TO.C,J7*%
X78659680Y-58439360D02*
X78659680Y-57109360D01*
X79989680Y-58439360D02*
X78659680Y-58439360D01*
X81259680Y-58439360D02*
X81259680Y-55779360D01*
X81259680Y-55779360D02*
X83859680Y-55779360D01*
X81259680Y-58439360D02*
X83859680Y-58439360D01*
X83859680Y-58439360D02*
X83859680Y-55779360D01*
%TO.C,J3*%
X89904880Y-96986400D02*
X89904880Y-94326400D01*
X72064880Y-96986400D02*
X89904880Y-96986400D01*
X72064880Y-94326400D02*
X89904880Y-94326400D01*
X72064880Y-96986400D02*
X72064880Y-94326400D01*
X70794880Y-96986400D02*
X69464880Y-96986400D01*
X69464880Y-96986400D02*
X69464880Y-95656400D01*
%TO.C,J5*%
X167085320Y-103341480D02*
X165755320Y-103341480D01*
X167085320Y-102011480D02*
X167085320Y-103341480D01*
X167085320Y-100741480D02*
X164425320Y-100741480D01*
X164425320Y-100741480D02*
X164425320Y-93061480D01*
X167085320Y-100741480D02*
X167085320Y-93061480D01*
X167085320Y-93061480D02*
X164425320Y-93061480D01*
%TO.C,RN1*%
X127416560Y-87714280D02*
X127416560Y-84914280D01*
X106926560Y-87714280D02*
X130126560Y-87714280D01*
X106926560Y-84914280D02*
X106926560Y-87714280D01*
X130126560Y-84914280D02*
X106926560Y-84914280D01*
X130126560Y-87714280D02*
X130126560Y-84914280D01*
%TO.C,D8*%
X140024440Y-82189000D02*
X143114440Y-82189000D01*
X144069440Y-79629000D02*
G75*
G03*
X144069440Y-79629000I-2500000J0D01*
G01*
X141568978Y-76639000D02*
G75*
G02*
X143114270Y-82189000I462J-2990000D01*
G01*
X141569902Y-76639000D02*
G75*
G03*
X140024610Y-82189000I-462J-2990000D01*
G01*
%TO.C,D7*%
X133395040Y-82189000D02*
X136485040Y-82189000D01*
X137440040Y-79629000D02*
G75*
G03*
X137440040Y-79629000I-2500000J0D01*
G01*
X134939578Y-76639000D02*
G75*
G02*
X136484870Y-82189000I462J-2990000D01*
G01*
X134940502Y-76639000D02*
G75*
G03*
X133395210Y-82189000I-462J-2990000D01*
G01*
%TO.C,D6*%
X126780880Y-82178840D02*
X129870880Y-82178840D01*
X130825880Y-79618840D02*
G75*
G03*
X130825880Y-79618840I-2500000J0D01*
G01*
X128325418Y-76628840D02*
G75*
G02*
X129870710Y-82178840I462J-2990000D01*
G01*
X128326342Y-76628840D02*
G75*
G03*
X126781050Y-82178840I-462J-2990000D01*
G01*
%TO.C,D5*%
X120151480Y-82163600D02*
X123241480Y-82163600D01*
X124196480Y-79603600D02*
G75*
G03*
X124196480Y-79603600I-2500000J0D01*
G01*
X121696018Y-76613600D02*
G75*
G02*
X123241310Y-82163600I462J-2990000D01*
G01*
X121696942Y-76613600D02*
G75*
G03*
X120151650Y-82163600I-462J-2990000D01*
G01*
%TO.C,D4*%
X113522080Y-82163600D02*
X116612080Y-82163600D01*
X117567080Y-79603600D02*
G75*
G03*
X117567080Y-79603600I-2500000J0D01*
G01*
X115066618Y-76613600D02*
G75*
G02*
X116611910Y-82163600I462J-2990000D01*
G01*
X115067542Y-76613600D02*
G75*
G03*
X113522250Y-82163600I-462J-2990000D01*
G01*
%TO.C,D3*%
X106806320Y-82163600D02*
X109896320Y-82163600D01*
X110851320Y-79603600D02*
G75*
G03*
X110851320Y-79603600I-2500000J0D01*
G01*
X108350858Y-76613600D02*
G75*
G02*
X109896150Y-82163600I462J-2990000D01*
G01*
X108351782Y-76613600D02*
G75*
G03*
X106806490Y-82163600I-462J-2990000D01*
G01*
%TO.C,D2*%
X100090560Y-82163600D02*
X103180560Y-82163600D01*
X104135560Y-79603600D02*
G75*
G03*
X104135560Y-79603600I-2500000J0D01*
G01*
X101635098Y-76613600D02*
G75*
G02*
X103180390Y-82163600I462J-2990000D01*
G01*
X101636022Y-76613600D02*
G75*
G03*
X100090730Y-82163600I-462J-2990000D01*
G01*
%TO.C,D1*%
X93390040Y-82138200D02*
X96480040Y-82138200D01*
X97435040Y-79578200D02*
G75*
G03*
X97435040Y-79578200I-2500000J0D01*
G01*
X94934578Y-76588200D02*
G75*
G02*
X96479870Y-82138200I462J-2990000D01*
G01*
X94935502Y-76588200D02*
G75*
G03*
X93390210Y-82138200I-462J-2990000D01*
G01*
%TO.C,C4*%
X95314200Y-58887360D02*
G75*
G03*
X95314200Y-58887360I-3270000J0D01*
G01*
%TO.C,J6*%
X89869320Y-83656480D02*
X89869320Y-80996480D01*
X72029320Y-83656480D02*
X89869320Y-83656480D01*
X72029320Y-80996480D02*
X89869320Y-80996480D01*
X72029320Y-83656480D02*
X72029320Y-80996480D01*
X70759320Y-83656480D02*
X69429320Y-83656480D01*
X69429320Y-83656480D02*
X69429320Y-82326480D01*
%TO.C,J4*%
X89859160Y-79206400D02*
X89859160Y-76546400D01*
X72019160Y-79206400D02*
X89859160Y-79206400D01*
X72019160Y-76546400D02*
X89859160Y-76546400D01*
X72019160Y-79206400D02*
X72019160Y-76546400D01*
X70749160Y-79206400D02*
X69419160Y-79206400D01*
X69419160Y-79206400D02*
X69419160Y-77876400D01*
%TO.C,U15*%
X92081040Y-96930720D02*
X92081040Y-98580720D01*
X92081040Y-98580720D02*
X109981040Y-98580720D01*
X109981040Y-98580720D02*
X109981040Y-93280720D01*
X109981040Y-93280720D02*
X92081040Y-93280720D01*
X92081040Y-93280720D02*
X92081040Y-94930720D01*
X92081040Y-94930720D02*
G75*
G02*
X92081040Y-96930720I0J-1000000D01*
G01*
%TO.C,U14*%
X111730480Y-96920560D02*
X111730480Y-98570560D01*
X111730480Y-98570560D02*
X129630480Y-98570560D01*
X129630480Y-98570560D02*
X129630480Y-93270560D01*
X129630480Y-93270560D02*
X111730480Y-93270560D01*
X111730480Y-93270560D02*
X111730480Y-94920560D01*
X111730480Y-94920560D02*
G75*
G02*
X111730480Y-96920560I0J-1000000D01*
G01*
%TO.C,U13*%
X119373340Y-68899280D02*
X119373340Y-70549280D01*
X119373340Y-70549280D02*
X139813340Y-70549280D01*
X139813340Y-70549280D02*
X139813340Y-65249280D01*
X139813340Y-65249280D02*
X119373340Y-65249280D01*
X119373340Y-65249280D02*
X119373340Y-66899280D01*
X119373340Y-66899280D02*
G75*
G02*
X119373340Y-68899280I0J-1000000D01*
G01*
%TO.C,U12*%
X141529760Y-68899280D02*
X141529760Y-70549280D01*
X141529760Y-70549280D02*
X161969760Y-70549280D01*
X161969760Y-70549280D02*
X161969760Y-65249280D01*
X161969760Y-65249280D02*
X141529760Y-65249280D01*
X141529760Y-65249280D02*
X141529760Y-66899280D01*
X141529760Y-66899280D02*
G75*
G02*
X141529760Y-68899280I0J-1000000D01*
G01*
%TO.C,U11*%
X91964200Y-69066920D02*
X91964200Y-70716920D01*
X91964200Y-70716920D02*
X117484200Y-70716920D01*
X117484200Y-70716920D02*
X117484200Y-65416920D01*
X117484200Y-65416920D02*
X91964200Y-65416920D01*
X91964200Y-65416920D02*
X91964200Y-67066920D01*
X91964200Y-67066920D02*
G75*
G02*
X91964200Y-69066920I0J-1000000D01*
G01*
%TO.C,R4*%
X134900920Y-102526160D02*
X134900920Y-105266160D01*
X134900920Y-105266160D02*
X141440920Y-105266160D01*
X141440920Y-105266160D02*
X141440920Y-102526160D01*
X141440920Y-102526160D02*
X134900920Y-102526160D01*
X134130920Y-103896160D02*
X134900920Y-103896160D01*
X142210920Y-103896160D02*
X141440920Y-103896160D01*
%TO.C,R3*%
X147479000Y-102526160D02*
X147479000Y-105266160D01*
X147479000Y-105266160D02*
X154019000Y-105266160D01*
X154019000Y-105266160D02*
X154019000Y-102526160D01*
X154019000Y-102526160D02*
X147479000Y-102526160D01*
X146709000Y-103896160D02*
X147479000Y-103896160D01*
X154789000Y-103896160D02*
X154019000Y-103896160D01*
%TO.C,R2*%
X144951200Y-108613880D02*
X144951200Y-105873880D01*
X144951200Y-105873880D02*
X138411200Y-105873880D01*
X138411200Y-105873880D02*
X138411200Y-108613880D01*
X138411200Y-108613880D02*
X144951200Y-108613880D01*
X145721200Y-107243880D02*
X144951200Y-107243880D01*
X137641200Y-107243880D02*
X138411200Y-107243880D01*
%TO.C,R1*%
X157529280Y-108613880D02*
X157529280Y-105873880D01*
X157529280Y-105873880D02*
X150989280Y-105873880D01*
X150989280Y-105873880D02*
X150989280Y-108613880D01*
X150989280Y-108613880D02*
X157529280Y-108613880D01*
X158299280Y-107243880D02*
X157529280Y-107243880D01*
X150219280Y-107243880D02*
X150989280Y-107243880D01*
%TO.C,J2*%
X89737240Y-69473120D02*
X89737240Y-66813120D01*
X71897240Y-69473120D02*
X89737240Y-69473120D01*
X71897240Y-66813120D02*
X89737240Y-66813120D01*
X71897240Y-69473120D02*
X71897240Y-66813120D01*
X70627240Y-69473120D02*
X69297240Y-69473120D01*
X69297240Y-69473120D02*
X69297240Y-68143120D01*
%TO.C,J1*%
X167085320Y-75337360D02*
X164425320Y-75337360D01*
X167085320Y-77937360D02*
X167085320Y-75337360D01*
X164425320Y-77937360D02*
X164425320Y-75337360D01*
X167085320Y-77937360D02*
X164425320Y-77937360D01*
X167085320Y-79207360D02*
X167085320Y-80537360D01*
X167085320Y-80537360D02*
X165755320Y-80537360D01*
%TO.C,D28*%
X139614280Y-98831400D02*
G75*
G03*
X139614280Y-98831400I-2500000J0D01*
G01*
X135569280Y-101391400D02*
X138659280Y-101391400D01*
X137113818Y-95841400D02*
G75*
G02*
X138659110Y-101391400I462J-2990000D01*
G01*
X137114742Y-95841400D02*
G75*
G03*
X135569450Y-101391400I-462J-2990000D01*
G01*
%TO.C,D27*%
X146243680Y-98836480D02*
G75*
G03*
X146243680Y-98836480I-2500000J0D01*
G01*
X142198680Y-101396480D02*
X145288680Y-101396480D01*
X143743218Y-95846480D02*
G75*
G02*
X145288510Y-101396480I462J-2990000D01*
G01*
X143744142Y-95846480D02*
G75*
G03*
X142198850Y-101396480I-462J-2990000D01*
G01*
%TO.C,D26*%
X152852760Y-98826320D02*
G75*
G03*
X152852760Y-98826320I-2500000J0D01*
G01*
X148807760Y-101386320D02*
X151897760Y-101386320D01*
X150352298Y-95836320D02*
G75*
G02*
X151897590Y-101386320I462J-2990000D01*
G01*
X150353222Y-95836320D02*
G75*
G03*
X148807930Y-101386320I-462J-2990000D01*
G01*
%TO.C,D25*%
X159466920Y-98821240D02*
G75*
G03*
X159466920Y-98821240I-2500000J0D01*
G01*
X155421920Y-101381240D02*
X158511920Y-101381240D01*
X156966458Y-95831240D02*
G75*
G02*
X158511750Y-101381240I462J-2990000D01*
G01*
X156967382Y-95831240D02*
G75*
G03*
X155422090Y-101381240I-462J-2990000D01*
G01*
%TO.C,C5*%
X162172400Y-77922440D02*
G75*
G03*
X162172400Y-77922440I-3270000J0D01*
G01*
%TD*%
M02*
