M48
; DRILL file {KiCad (6.0.0-0)} date Sunday, January 16, 2022 at 09:32:16 PM
; FORMAT={-:-/ absolute / inch / decimal}
; #@! TF.CreationDate,2022-01-16T21:32:16-05:00
; #@! TF.GenerationSoftware,Kicad,Pcbnew,(6.0.0-0)
; #@! TF.FileFunction,Plated,1,2,PTH
FMAT,2
INCH
; #@! TA.AperFunction,Plated,PTH,ViaDrill
T1C0.0157
; #@! TA.AperFunction,Plated,PTH,ComponentDrill
T2C0.0394
%
G90
G05
T1
X6.3602Y-3.313
X6.3681Y-3.7677
X6.377Y-3.5069
X6.4055Y-3.7913
X6.4193Y-3.0
X6.4528Y-2.6417
X6.4547Y-3.3445
X6.4921Y-3.25
X6.5059Y-2.8386
X6.5098Y-2.9626
X6.511Y-2.7689
X6.5236Y-3.128
X6.5256Y-3.4685
X6.5591Y-3.0689
X6.5591Y-3.628
X6.5815Y-3.285
X6.5846Y-2.7697
X6.5906Y-3.0394
X6.5906Y-3.7854
X6.5945Y-3.3864
X6.5965Y-3.1299
X6.5978Y-3.584
X6.626Y-3.1988
X6.6421Y-3.4572
X6.646Y-2.8689
X6.6628Y-3.3149
X6.6676Y-3.7937
X6.6808Y-2.9561
X6.6854Y-3.2263
X6.6921Y-3.4941
X6.7028Y-2.8563
X6.7028Y-3.0807
X6.706Y-3.7854
X6.7185Y-3.7303
X6.7224Y-3.439
X6.7265Y-2.9105
X6.7353Y-3.1975
X6.7401Y-3.5824
X6.7556Y-3.7489
X6.7559Y-2.9682
X6.7651Y-3.3124
X6.8071Y-3.7657
X6.815Y-3.313
X6.8195Y-3.2357
X6.8228Y-3.0256
X6.8602Y-3.0709
X6.8733Y-3.7995
X6.8976Y-3.3957
X6.9114Y-3.124
X6.9122Y-3.8054
X6.9193Y-3.1969
X6.929Y-3.3147
X6.9429Y-2.9331
X6.9488Y-3.7382
X6.952Y-3.6556
X6.961Y-3.6173
X6.9656Y-2.7392
X6.9665Y-3.2402
X6.9744Y-3.7894
X6.9941Y-3.3121
X6.9961Y-2.8799
X6.9979Y-3.5699
X7.0059Y-3.6167
X7.0078Y-3.7387
X7.0138Y-2.9606
X7.0335Y-3.5886
X7.0531Y-3.3071
X7.0551Y-2.8524
X7.0728Y-3.1909
X7.0768Y-2.935
X7.0886Y-2.7441
X7.1338Y-3.0088
X7.1378Y-3.2275
X7.141Y-3.079
X7.1496Y-3.3642
X7.1516Y-3.5315
X7.1801Y-3.503
X7.1849Y-3.1416
X7.1929Y-2.75
X7.2126Y-2.8263
T2
X6.4815Y-3.9803
X6.5384Y-2.5748
X6.5815Y-3.9803
X6.6384Y-2.5748
X6.6815Y-3.9803
X6.7384Y-2.5748
X6.7815Y-3.9803
X6.8384Y-2.5748
X6.8815Y-3.9803
X6.9384Y-2.5748
X6.9815Y-3.9803
X7.0384Y-2.5748
X7.0815Y-3.9803
X7.1384Y-2.5748
X7.1815Y-3.9803
X7.2717Y-2.9516
X7.2717Y-3.0516
X7.2717Y-3.1516
X7.2717Y-3.2516
X7.2717Y-3.3516
X7.2717Y-3.4516
X7.2717Y-3.5516
X7.2717Y-3.6516
T0
M30
