%TF.GenerationSoftware,KiCad,Pcbnew,(5.1.9-0-10_14)*%
%TF.CreationDate,2021-05-25T00:06:21-04:00*%
%TF.ProjectId,sound,736f756e-642e-46b6-9963-61645f706362,rev?*%
%TF.SameCoordinates,Original*%
%TF.FileFunction,Copper,L1,Top*%
%TF.FilePolarity,Positive*%
%FSLAX46Y46*%
G04 Gerber Fmt 4.6, Leading zero omitted, Abs format (unit mm)*
G04 Created by KiCad (PCBNEW (5.1.9-0-10_14)) date 2021-05-25 00:06:21*
%MOMM*%
%LPD*%
G01*
G04 APERTURE LIST*
%TA.AperFunction,ComponentPad*%
%ADD10O,1.600000X1.600000*%
%TD*%
%TA.AperFunction,ComponentPad*%
%ADD11R,1.600000X1.600000*%
%TD*%
%TA.AperFunction,ComponentPad*%
%ADD12O,1.700000X1.700000*%
%TD*%
%TA.AperFunction,ComponentPad*%
%ADD13R,1.700000X1.700000*%
%TD*%
%TA.AperFunction,ComponentPad*%
%ADD14C,2.600000*%
%TD*%
%TA.AperFunction,ComponentPad*%
%ADD15R,2.600000X2.600000*%
%TD*%
%TA.AperFunction,ComponentPad*%
%ADD16C,1.600000*%
%TD*%
%TA.AperFunction,ComponentPad*%
%ADD17C,1.440000*%
%TD*%
%TA.AperFunction,ComponentPad*%
%ADD18C,0.800000*%
%TD*%
%TA.AperFunction,ComponentPad*%
%ADD19C,7.000000*%
%TD*%
%TA.AperFunction,ComponentPad*%
%ADD20R,2.600000X1.500000*%
%TD*%
%TA.AperFunction,ComponentPad*%
%ADD21R,1.600000X3.300000*%
%TD*%
%TA.AperFunction,ComponentPad*%
%ADD22R,1.500000X2.600000*%
%TD*%
%TA.AperFunction,Conductor*%
%ADD23C,1.000000*%
%TD*%
%TA.AperFunction,Conductor*%
%ADD24C,0.250000*%
%TD*%
%TA.AperFunction,Conductor*%
%ADD25C,0.500000*%
%TD*%
G04 APERTURE END LIST*
D10*
%TO.P,U7,16*%
%TO.N,VCC*%
X133858000Y-112268000D03*
%TO.P,U7,8*%
%TO.N,GND*%
X151638000Y-119888000D03*
%TO.P,U7,15*%
%TO.N,Net-(U1-Pad2)*%
X136398000Y-112268000D03*
%TO.P,U7,7*%
%TO.N,GND*%
X149098000Y-119888000D03*
%TO.P,U7,14*%
%TO.N,Net-(U1-Pad6)*%
X138938000Y-112268000D03*
%TO.P,U7,6*%
%TO.N,GND*%
X146558000Y-119888000D03*
%TO.P,U7,13*%
%TO.N,SPEAKER*%
X141478000Y-112268000D03*
%TO.P,U7,5*%
%TO.N,Net-(U7-Pad5)*%
X144018000Y-119888000D03*
%TO.P,U7,12*%
%TO.N,Net-(U1-Pad7)*%
X144018000Y-112268000D03*
%TO.P,U7,4*%
%TO.N,Net-(U7-Pad4)*%
X141478000Y-119888000D03*
%TO.P,U7,11*%
%TO.N,Net-(U1-Pad3)*%
X146558000Y-112268000D03*
%TO.P,U7,3*%
%TO.N,Net-(U7-Pad3)*%
X138938000Y-119888000D03*
%TO.P,U7,10*%
%TO.N,OCTAVE_00*%
X149098000Y-112268000D03*
%TO.P,U7,2*%
%TO.N,Net-(U7-Pad2)*%
X136398000Y-119888000D03*
%TO.P,U7,9*%
%TO.N,OCTAVE_01*%
X151638000Y-112268000D03*
D11*
%TO.P,U7,1*%
%TO.N,Net-(U7-Pad1)*%
X133858000Y-119888000D03*
%TD*%
D12*
%TO.P,J6,10*%
%TO.N,BUS_00*%
X204216000Y-104902000D03*
%TO.P,J6,9*%
%TO.N,BUS_01*%
X204216000Y-102362000D03*
%TO.P,J6,8*%
%TO.N,BUS_02*%
X204216000Y-99822000D03*
%TO.P,J6,7*%
%TO.N,BUS_03*%
X204216000Y-97282000D03*
%TO.P,J6,6*%
%TO.N,BUS_04*%
X204216000Y-94742000D03*
%TO.P,J6,5*%
%TO.N,BUS_05*%
X204216000Y-92202000D03*
%TO.P,J6,4*%
%TO.N,BUS_06*%
X204216000Y-89662000D03*
%TO.P,J6,3*%
%TO.N,BUS_07*%
X204216000Y-87122000D03*
%TO.P,J6,2*%
%TO.N,OCTAVE_00*%
X204216000Y-84582000D03*
D13*
%TO.P,J6,1*%
%TO.N,OCTAVE_01*%
X204216000Y-82042000D03*
%TD*%
D14*
%TO.P,J7,2*%
%TO.N,SPEAKER*%
X194484000Y-117348000D03*
D15*
%TO.P,J7,1*%
%TO.N,Net-(J1-Pad1)*%
X189484000Y-117348000D03*
%TD*%
D10*
%TO.P,R2,2*%
%TO.N,Net-(R1-Pad2)*%
X176276000Y-73660000D03*
D16*
%TO.P,R2,1*%
%TO.N,VCC*%
X176276000Y-83820000D03*
%TD*%
D10*
%TO.P,R1,2*%
%TO.N,Net-(R1-Pad2)*%
X179578000Y-73660000D03*
D16*
%TO.P,R1,1*%
%TO.N,Net-(C1-Pad2)*%
X179578000Y-83820000D03*
%TD*%
%TO.P,C1,2*%
%TO.N,Net-(C1-Pad2)*%
X161036000Y-78272000D03*
%TO.P,C1,1*%
%TO.N,GND*%
X161036000Y-80772000D03*
%TD*%
D17*
%TO.P,RV1,1*%
%TO.N,Net-(RV1-Pad1)*%
X190754000Y-82042000D03*
%TO.P,RV1,2*%
%TO.N,Net-(J1-Pad1)*%
X188214000Y-76962000D03*
%TO.P,RV1,3*%
%TO.N,GND*%
X185674000Y-82042000D03*
%TD*%
D10*
%TO.P,U2,8*%
%TO.N,VCC*%
X164846000Y-75692000D03*
%TO.P,U2,4*%
X172466000Y-83312000D03*
%TO.P,U2,7*%
%TO.N,Net-(R1-Pad2)*%
X167386000Y-75692000D03*
%TO.P,U2,3*%
%TO.N,Net-(U2-Pad3)*%
X169926000Y-83312000D03*
%TO.P,U2,6*%
%TO.N,Net-(C1-Pad2)*%
X169926000Y-75692000D03*
%TO.P,U2,2*%
X167386000Y-83312000D03*
%TO.P,U2,5*%
%TO.N,VCC*%
X172466000Y-75692000D03*
D11*
%TO.P,U2,1*%
%TO.N,GND*%
X164846000Y-83312000D03*
%TD*%
D13*
%TO.P,J3,1*%
%TO.N,LATCH_NOTE*%
X196850000Y-75692000D03*
%TD*%
D18*
%TO.P,REF\u002A\u002A,1*%
%TO.N,N/C*%
X127586155Y-117015845D03*
X125730000Y-116247000D03*
X123873845Y-117015845D03*
X123105000Y-118872000D03*
X123873845Y-120728155D03*
X125730000Y-121497000D03*
X127586155Y-120728155D03*
X128355000Y-118872000D03*
D19*
X125730000Y-118872000D03*
%TD*%
%TO.P,REF\u002A\u002A,1*%
%TO.N,N/C*%
X203962000Y-118872000D03*
D18*
X206587000Y-118872000D03*
X205818155Y-120728155D03*
X203962000Y-121497000D03*
X202105845Y-120728155D03*
X201337000Y-118872000D03*
X202105845Y-117015845D03*
X203962000Y-116247000D03*
X205818155Y-117015845D03*
%TD*%
D19*
%TO.P,REF\u002A\u002A,1*%
%TO.N,N/C*%
X125730000Y-75692000D03*
D18*
X128355000Y-75692000D03*
X127586155Y-77548155D03*
X125730000Y-78317000D03*
X123873845Y-77548155D03*
X123105000Y-75692000D03*
X123873845Y-73835845D03*
X125730000Y-73067000D03*
X127586155Y-73835845D03*
%TD*%
%TO.P,REF\u002A\u002A,1*%
%TO.N,N/C*%
X205818155Y-73835845D03*
X203962000Y-73067000D03*
X202105845Y-73835845D03*
X201337000Y-75692000D03*
X202105845Y-77548155D03*
X203962000Y-78317000D03*
X205818155Y-77548155D03*
X206587000Y-75692000D03*
D19*
X203962000Y-75692000D03*
%TD*%
D10*
%TO.P,U6,20*%
%TO.N,VCC*%
X176276000Y-87376000D03*
%TO.P,U6,10*%
%TO.N,GND*%
X199136000Y-94996000D03*
%TO.P,U6,19*%
%TO.N,Net-(U4-Pad9)*%
X178816000Y-87376000D03*
%TO.P,U6,9*%
%TO.N,Net-(U5-Pad9)*%
X196596000Y-94996000D03*
%TO.P,U6,18*%
%TO.N,BUS_07*%
X181356000Y-87376000D03*
%TO.P,U6,8*%
%TO.N,BUS_03*%
X194056000Y-94996000D03*
%TO.P,U6,17*%
%TO.N,BUS_06*%
X183896000Y-87376000D03*
%TO.P,U6,7*%
%TO.N,BUS_02*%
X191516000Y-94996000D03*
%TO.P,U6,16*%
%TO.N,Net-(U4-Pad10)*%
X186436000Y-87376000D03*
%TO.P,U6,6*%
%TO.N,Net-(U5-Pad10)*%
X188976000Y-94996000D03*
%TO.P,U6,15*%
%TO.N,Net-(U4-Pad1)*%
X188976000Y-87376000D03*
%TO.P,U6,5*%
%TO.N,Net-(U5-Pad1)*%
X186436000Y-94996000D03*
%TO.P,U6,14*%
%TO.N,BUS_05*%
X191516000Y-87376000D03*
%TO.P,U6,4*%
%TO.N,BUS_01*%
X183896000Y-94996000D03*
%TO.P,U6,13*%
%TO.N,BUS_04*%
X194056000Y-87376000D03*
%TO.P,U6,3*%
%TO.N,BUS_00*%
X181356000Y-94996000D03*
%TO.P,U6,12*%
%TO.N,Net-(U4-Pad15)*%
X196596000Y-87376000D03*
%TO.P,U6,2*%
%TO.N,Net-(U5-Pad15)*%
X178816000Y-94996000D03*
%TO.P,U6,11*%
%TO.N,LATCH_NOTE*%
X199136000Y-87376000D03*
D11*
%TO.P,U6,1*%
%TO.N,VCC*%
X176276000Y-94996000D03*
%TD*%
D10*
%TO.P,U5,16*%
%TO.N,VCC*%
X151638000Y-87884000D03*
%TO.P,U5,8*%
%TO.N,GND*%
X169418000Y-95504000D03*
%TO.P,U5,15*%
%TO.N,Net-(U5-Pad15)*%
X154178000Y-87884000D03*
%TO.P,U5,7*%
%TO.N,Net-(U5-Pad7)*%
X166878000Y-95504000D03*
%TO.P,U5,14*%
%TO.N,GND*%
X156718000Y-87884000D03*
%TO.P,U5,6*%
%TO.N,Net-(U5-Pad6)*%
X164338000Y-95504000D03*
%TO.P,U5,13*%
%TO.N,Net-(U4-Pad4)*%
X159258000Y-87884000D03*
%TO.P,U5,5*%
%TO.N,VCC*%
X161798000Y-95504000D03*
%TO.P,U5,12*%
%TO.N,Net-(U5-Pad12)*%
X161798000Y-87884000D03*
%TO.P,U5,4*%
%TO.N,Net-(U2-Pad3)*%
X159258000Y-95504000D03*
%TO.P,U5,11*%
%TO.N,Net-(U1-Pad5)*%
X164338000Y-87884000D03*
%TO.P,U5,3*%
%TO.N,Net-(U5-Pad3)*%
X156718000Y-95504000D03*
%TO.P,U5,10*%
%TO.N,Net-(U5-Pad10)*%
X166878000Y-87884000D03*
%TO.P,U5,2*%
%TO.N,Net-(U5-Pad2)*%
X154178000Y-95504000D03*
%TO.P,U5,9*%
%TO.N,Net-(U5-Pad9)*%
X169418000Y-87884000D03*
D11*
%TO.P,U5,1*%
%TO.N,Net-(U5-Pad1)*%
X151638000Y-95504000D03*
%TD*%
D10*
%TO.P,U4,16*%
%TO.N,VCC*%
X128016000Y-87884000D03*
%TO.P,U4,8*%
%TO.N,GND*%
X145796000Y-95504000D03*
%TO.P,U4,15*%
%TO.N,Net-(U4-Pad15)*%
X130556000Y-87884000D03*
%TO.P,U4,7*%
%TO.N,Net-(U4-Pad7)*%
X143256000Y-95504000D03*
%TO.P,U4,14*%
%TO.N,GND*%
X133096000Y-87884000D03*
%TO.P,U4,6*%
%TO.N,Net-(U4-Pad6)*%
X140716000Y-95504000D03*
%TO.P,U4,13*%
%TO.N,Net-(U3-Pad4)*%
X135636000Y-87884000D03*
%TO.P,U4,5*%
%TO.N,VCC*%
X138176000Y-95504000D03*
%TO.P,U4,12*%
%TO.N,Net-(U4-Pad12)*%
X138176000Y-87884000D03*
%TO.P,U4,4*%
%TO.N,Net-(U4-Pad4)*%
X135636000Y-95504000D03*
%TO.P,U4,11*%
%TO.N,Net-(U1-Pad5)*%
X140716000Y-87884000D03*
%TO.P,U4,3*%
%TO.N,Net-(U4-Pad3)*%
X133096000Y-95504000D03*
%TO.P,U4,10*%
%TO.N,Net-(U4-Pad10)*%
X143256000Y-87884000D03*
%TO.P,U4,2*%
%TO.N,Net-(U4-Pad2)*%
X130556000Y-95504000D03*
%TO.P,U4,9*%
%TO.N,Net-(U4-Pad9)*%
X145796000Y-87884000D03*
D11*
%TO.P,U4,1*%
%TO.N,Net-(U4-Pad1)*%
X128016000Y-95504000D03*
%TD*%
%TO.P,U3,1*%
%TO.N,GND*%
X151638000Y-107950000D03*
D10*
%TO.P,U3,9*%
X169418000Y-100330000D03*
%TO.P,U3,2*%
%TO.N,Net-(U3-Pad2)*%
X154178000Y-107950000D03*
%TO.P,U3,10*%
%TO.N,GND*%
X166878000Y-100330000D03*
%TO.P,U3,3*%
%TO.N,Net-(U3-Pad3)*%
X156718000Y-107950000D03*
%TO.P,U3,11*%
%TO.N,Net-(U1-Pad5)*%
X164338000Y-100330000D03*
%TO.P,U3,4*%
%TO.N,Net-(U3-Pad4)*%
X159258000Y-107950000D03*
%TO.P,U3,12*%
%TO.N,Net-(U3-Pad12)*%
X161798000Y-100330000D03*
%TO.P,U3,5*%
%TO.N,VCC*%
X161798000Y-107950000D03*
%TO.P,U3,13*%
%TO.N,Net-(U1-Pad5)*%
X159258000Y-100330000D03*
%TO.P,U3,6*%
%TO.N,Net-(U3-Pad6)*%
X164338000Y-107950000D03*
%TO.P,U3,14*%
%TO.N,GND*%
X156718000Y-100330000D03*
%TO.P,U3,7*%
%TO.N,Net-(U3-Pad7)*%
X166878000Y-107950000D03*
%TO.P,U3,15*%
%TO.N,GND*%
X154178000Y-100330000D03*
%TO.P,U3,8*%
X169418000Y-107950000D03*
%TO.P,U3,16*%
%TO.N,VCC*%
X151638000Y-100330000D03*
%TD*%
D11*
%TO.P,U1,1*%
%TO.N,Net-(U1-Pad1)*%
X128016000Y-107950000D03*
D10*
%TO.P,U1,9*%
%TO.N,Net-(U1-Pad9)*%
X145796000Y-100330000D03*
%TO.P,U1,2*%
%TO.N,Net-(U1-Pad2)*%
X130556000Y-107950000D03*
%TO.P,U1,10*%
%TO.N,Net-(U1-Pad10)*%
X143256000Y-100330000D03*
%TO.P,U1,3*%
%TO.N,Net-(U1-Pad3)*%
X133096000Y-107950000D03*
%TO.P,U1,11*%
%TO.N,VCC*%
X140716000Y-100330000D03*
%TO.P,U1,4*%
X135636000Y-107950000D03*
%TO.P,U1,12*%
%TO.N,Net-(U1-Pad12)*%
X138176000Y-100330000D03*
%TO.P,U1,5*%
%TO.N,Net-(U1-Pad5)*%
X138176000Y-107950000D03*
%TO.P,U1,13*%
%TO.N,Net-(U1-Pad13)*%
X135636000Y-100330000D03*
%TO.P,U1,6*%
%TO.N,Net-(U1-Pad6)*%
X140716000Y-107950000D03*
%TO.P,U1,14*%
%TO.N,GND*%
X133096000Y-100330000D03*
%TO.P,U1,7*%
%TO.N,Net-(U1-Pad7)*%
X143256000Y-107950000D03*
%TO.P,U1,15*%
%TO.N,Net-(U1-Pad15)*%
X130556000Y-100330000D03*
%TO.P,U1,8*%
%TO.N,GND*%
X145796000Y-107950000D03*
%TO.P,U1,16*%
%TO.N,VCC*%
X128016000Y-100330000D03*
%TD*%
D20*
%TO.P,LS1,R1*%
%TO.N,Net-(J1-Pad1)*%
X180340000Y-103124000D03*
%TO.P,LS1,T*%
%TO.N,SPEAKER*%
X180340000Y-108204000D03*
D21*
%TO.P,LS1,R2*%
%TO.N,Net-(J1-Pad1)*%
X182880000Y-105664000D03*
D22*
%TO.P,LS1,S*%
%TO.N,SPEAKER*%
X177800000Y-105664000D03*
%TD*%
D14*
%TO.P,J5,2*%
%TO.N,GND*%
X170100000Y-117094000D03*
D15*
%TO.P,J5,1*%
%TO.N,VCC*%
X165100000Y-117094000D03*
%TD*%
D12*
%TO.P,J2,2*%
%TO.N,GND*%
X159258000Y-120142000D03*
D13*
%TO.P,J2,1*%
%TO.N,VCC*%
X156718000Y-120142000D03*
%TD*%
D12*
%TO.P,J1,2*%
%TO.N,SPEAKER*%
X204216000Y-111760000D03*
D13*
%TO.P,J1,1*%
%TO.N,Net-(J1-Pad1)*%
X204216000Y-109220000D03*
%TD*%
D16*
%TO.P,C3,2*%
%TO.N,GND*%
X158964000Y-113284000D03*
D11*
%TO.P,C3,1*%
%TO.N,VCC*%
X156464000Y-113284000D03*
%TD*%
D23*
%TO.N,VCC*%
X156464000Y-119888000D02*
X156718000Y-120142000D01*
X156464000Y-113284000D02*
X156464000Y-119888000D01*
X161036000Y-122174000D02*
X157480000Y-122174000D01*
X156718000Y-121412000D02*
X156718000Y-120142000D01*
X165100000Y-118110000D02*
X161036000Y-122174000D01*
X157480000Y-122174000D02*
X156718000Y-121412000D01*
X165100000Y-117094000D02*
X165100000Y-118110000D01*
X161798000Y-107950000D02*
X156464000Y-113284000D01*
D24*
%TO.N,Net-(U1-Pad7)*%
X143256000Y-107950000D02*
X141732000Y-106426000D01*
X135494998Y-106426000D02*
X134221001Y-107699997D01*
X141732000Y-106426000D02*
X135494998Y-106426000D01*
%TO.N,Net-(U1-Pad5)*%
X138176000Y-107950000D02*
X139700000Y-109474000D01*
X139700000Y-109474000D02*
X146812000Y-109474000D01*
X146812000Y-109474000D02*
X148844000Y-107442000D01*
X148844000Y-107442000D02*
X148844000Y-105156000D01*
X148844000Y-105156000D02*
X151892000Y-102108000D01*
X157480000Y-102108000D02*
X159258000Y-100330000D01*
X151892000Y-102108000D02*
X157480000Y-102108000D01*
%TO.N,Net-(U4-Pad4)*%
X159258000Y-87884000D02*
X157480000Y-89662000D01*
X157480000Y-89662000D02*
X150368000Y-89662000D01*
X150368000Y-89662000D02*
X147066000Y-92964000D01*
X138176000Y-92964000D02*
X135636000Y-95504000D01*
X147066000Y-92964000D02*
X138176000Y-92964000D01*
D25*
%TO.N,Net-(J1-Pad1)*%
X180340000Y-103124000D02*
X182880000Y-105664000D01*
X182880000Y-105664000D02*
X183388000Y-105664000D01*
X204216000Y-109220000D02*
X203200000Y-109220000D01*
X203200000Y-109220000D02*
X199644000Y-112776000D01*
X199644000Y-112776000D02*
X191770000Y-112776000D01*
X189484000Y-115062000D02*
X189484000Y-117348000D01*
X191770000Y-112776000D02*
X189484000Y-115062000D01*
X182880000Y-110744000D02*
X189484000Y-117348000D01*
X182880000Y-105664000D02*
X182880000Y-110744000D01*
%TO.N,Net-(C1-Pad2)*%
X167386000Y-83312000D02*
X167386000Y-81280000D01*
X169926000Y-78740000D02*
X169926000Y-75692000D01*
X167386000Y-81280000D02*
X169926000Y-78740000D01*
X169926000Y-75692000D02*
X171196000Y-76962000D01*
X171196000Y-76962000D02*
X171196000Y-79248000D01*
X171196000Y-79248000D02*
X172974000Y-81026000D01*
X172974000Y-81026000D02*
X178308000Y-81026000D01*
X179578000Y-82296000D02*
X179578000Y-83820000D01*
X178308000Y-81026000D02*
X179578000Y-82296000D01*
D24*
X167346000Y-78272000D02*
X169926000Y-75692000D01*
X161036000Y-78272000D02*
X167346000Y-78272000D01*
X161036000Y-78272000D02*
X162266000Y-79502000D01*
X162266000Y-79502000D02*
X164084000Y-79502000D01*
X167386000Y-82804000D02*
X167386000Y-83312000D01*
X164084000Y-79502000D02*
X167386000Y-82804000D01*
%TO.N,BUS_07*%
X183388000Y-85344000D02*
X181356000Y-87376000D01*
X192529178Y-84074000D02*
X191259178Y-85344000D01*
X191259178Y-85344000D02*
X183388000Y-85344000D01*
X201168000Y-84074000D02*
X204216000Y-87122000D01*
X192529178Y-84074000D02*
X201168000Y-84074000D01*
%TO.N,BUS_06*%
X191387590Y-85852000D02*
X185420000Y-85852000D01*
X192657590Y-84582000D02*
X191387590Y-85852000D01*
X185420000Y-85852000D02*
X183896000Y-87376000D01*
X192657590Y-84582000D02*
X200406000Y-84582000D01*
X200406000Y-84582000D02*
X202692000Y-86868000D01*
X202692000Y-86868000D02*
X202692000Y-89154000D01*
X203200000Y-89662000D02*
X204216000Y-89662000D01*
X202692000Y-89154000D02*
X203200000Y-89662000D01*
%TO.N,BUS_05*%
X200084400Y-85147990D02*
X193744011Y-85147989D01*
X204216000Y-92202000D02*
X203200000Y-92202000D01*
X201930000Y-86993590D02*
X200084400Y-85147990D01*
X203200000Y-92202000D02*
X201930000Y-90932000D01*
X193744011Y-85147989D02*
X191516000Y-87376000D01*
X201930000Y-90932000D02*
X201930000Y-86993590D01*
%TO.N,BUS_04*%
X201422000Y-91948000D02*
X204216000Y-94742000D01*
X201422000Y-87122000D02*
X201422000Y-91948000D01*
X199898000Y-85598000D02*
X201422000Y-87122000D01*
X194056000Y-87376000D02*
X194056000Y-86360000D01*
X194056000Y-86360000D02*
X194818000Y-85598000D01*
X194818000Y-85598000D02*
X199898000Y-85598000D01*
%TO.N,BUS_03*%
X203200000Y-96266000D02*
X204216000Y-97282000D01*
X195326000Y-96266000D02*
X203200000Y-96266000D01*
X194056000Y-94996000D02*
X195326000Y-96266000D01*
%TO.N,BUS_02*%
X203200000Y-99822000D02*
X204216000Y-99822000D01*
X202946000Y-99568000D02*
X203200000Y-99822000D01*
X202946000Y-98806000D02*
X202946000Y-99568000D01*
X201422000Y-97282000D02*
X202946000Y-98806000D01*
X193802000Y-97282000D02*
X201422000Y-97282000D01*
X191516000Y-94996000D02*
X193802000Y-97282000D01*
%TO.N,BUS_01*%
X183896000Y-94996000D02*
X186182000Y-97282000D01*
X204216000Y-102362000D02*
X202946000Y-102362000D01*
X202946000Y-102362000D02*
X201930000Y-101346000D01*
X201930000Y-101346000D02*
X201930000Y-99568000D01*
X201930000Y-99568000D02*
X200152000Y-97790000D01*
X186690000Y-97790000D02*
X186182000Y-97282000D01*
X200152000Y-97790000D02*
X186690000Y-97790000D01*
%TO.N,BUS_00*%
X202946000Y-104902000D02*
X204216000Y-104902000D01*
X201422000Y-100584000D02*
X201422000Y-103378000D01*
X201422000Y-103378000D02*
X202946000Y-104902000D01*
X199644000Y-98806000D02*
X201422000Y-100584000D01*
X185166000Y-98806000D02*
X199644000Y-98806000D01*
X181356000Y-94996000D02*
X185166000Y-98806000D01*
D25*
%TO.N,SPEAKER*%
X177800000Y-105664000D02*
X180340000Y-108204000D01*
X180340000Y-108204000D02*
X180340000Y-108458000D01*
X197024000Y-114808000D02*
X194484000Y-117348000D01*
X201168000Y-114808000D02*
X197024000Y-114808000D01*
X204216000Y-111760000D02*
X201168000Y-114808000D01*
X180340000Y-108204000D02*
X180340000Y-114300000D01*
X180340000Y-114300000D02*
X186436000Y-120396000D01*
X191436000Y-120396000D02*
X194484000Y-117348000D01*
X186436000Y-120396000D02*
X191436000Y-120396000D01*
D24*
%TO.N,Net-(U4-Pad10)*%
X184912000Y-88900000D02*
X181102000Y-88900000D01*
X186436000Y-87376000D02*
X184912000Y-88900000D01*
X181102000Y-88900000D02*
X180086000Y-87884000D01*
X180086000Y-86360000D02*
X179127989Y-85401989D01*
X180086000Y-87884000D02*
X180086000Y-86360000D01*
X179127989Y-85401989D02*
X145738011Y-85401989D01*
X145738011Y-85401989D02*
X143256000Y-87884000D01*
%TO.N,Net-(U4-Pad9)*%
X145542000Y-87630000D02*
X145796000Y-87884000D01*
X178816000Y-87376000D02*
X177292000Y-85852000D01*
X147828000Y-85852000D02*
X145796000Y-87884000D01*
X177292000Y-85852000D02*
X147828000Y-85852000D01*
%TO.N,Net-(U4-Pad1)*%
X188976000Y-87376000D02*
X186944000Y-89408000D01*
X185278998Y-89408000D02*
X181214998Y-93472000D01*
X186944000Y-89408000D02*
X185278998Y-89408000D01*
X181214998Y-93472000D02*
X174752000Y-93472000D01*
X174752000Y-93472000D02*
X169672000Y-98552000D01*
X169672000Y-98552000D02*
X129540000Y-98552000D01*
X128016000Y-97028000D02*
X128016000Y-95504000D01*
X129540000Y-98552000D02*
X128016000Y-97028000D01*
%TO.N,Net-(R1-Pad2)*%
X179578000Y-73660000D02*
X176276000Y-73660000D01*
X176276000Y-73660000D02*
X168656000Y-73660000D01*
X167386000Y-74930000D02*
X167386000Y-75692000D01*
X168656000Y-73660000D02*
X167386000Y-74930000D01*
%TD*%
M02*
