M48
; DRILL file {KiCad (6.0.0-0)} date Wednesday, October 19, 2022 at 10:54:41 PM
; FORMAT={-:-/ absolute / inch / decimal}
; #@! TF.CreationDate,2022-10-19T22:54:41-04:00
; #@! TF.GenerationSoftware,Kicad,Pcbnew,(6.0.0-0)
; #@! TF.FileFunction,Plated,1,4,PTH
FMAT,2
INCH
; #@! TA.AperFunction,Plated,PTH,ViaDrill
T1C0.0157
; #@! TA.AperFunction,Plated,PTH,ComponentDrill
T2C0.0300
; #@! TA.AperFunction,Plated,PTH,ComponentDrill
T3C0.0315
; #@! TA.AperFunction,Plated,PTH,ComponentDrill
T4C0.0394
; #@! TA.AperFunction,Plated,PTH,ComponentDrill
T5C0.0433
%
G90
G05
T1
X3.2Y-3.24
X4.05Y-3.43
X4.07Y-4.63
X4.1Y-3.8
X4.14Y-4.54
X4.15Y-3.9
X4.19Y-3.95
X4.2Y-5.32
X4.21Y-4.19
X4.22Y-4.51
X4.23Y-3.43
X4.23Y-3.9
X4.27Y-4.19
X4.29Y-4.0
X4.29Y-4.96
X4.292Y-4.558
X4.34Y-4.0
X4.35Y-4.57
X4.37Y-4.19
X4.38Y-4.76
X4.39Y-4.0
X4.44Y-4.71
X4.45Y-3.58
X4.4594Y-3.9934
X4.4706Y-4.1366
X4.52Y-4.26
X4.6Y-3.99
X4.6Y-4.38
X4.61Y-4.74
X4.62Y-4.5366
X4.65Y-5.32
X4.67Y-3.99
X4.6707Y-4.1215
X4.68Y-4.37
X4.71Y-4.57
X4.73Y-4.7
X4.7306Y-4.1549
X4.75Y-4.33
X4.8Y-4.1883
X4.84Y-3.51
X4.84Y-4.71
X4.84Y-4.76
X4.86Y-4.56
X4.89Y-3.24
X4.94Y-4.3266
X4.96Y-4.72
X4.99Y-4.3234
X5.0Y-3.98
X5.02Y-4.16
X5.03Y-4.4
X5.03Y-4.52
X5.04Y-3.24
X5.0784Y-4.2034
X5.09Y-4.09
X5.13Y-4.55
X5.14Y-4.19
X5.14Y-5.32
X5.15Y-4.39
X5.19Y-3.41
X5.2008Y-5.0034
X5.21Y-3.96
X5.25Y-4.23
X5.29Y-4.19
X5.2943Y-4.1271
X5.31Y-4.76
X5.37Y-4.16
X5.4Y-4.72
X5.47Y-4.31
T2
X3.34Y-5.07
X3.54Y-4.27
X3.64Y-4.27
X3.74Y-4.27
X3.94Y-5.07
T3
X3.3038Y-3.7496
X3.3038Y-4.0496
X3.9038Y-3.7496
X3.9038Y-4.0496
T4
X3.22Y-5.2102
X3.22Y-5.3102
X4.09Y-3.24
X4.19Y-3.24
X4.29Y-3.24
X4.36Y-3.74
X4.36Y-3.84
X4.39Y-3.24
X4.46Y-3.74
X4.46Y-3.84
X4.49Y-3.24
X4.56Y-3.74
X4.56Y-3.84
X4.59Y-3.24
X4.66Y-3.74
X4.66Y-3.84
X4.76Y-3.74
X4.76Y-3.84
X4.86Y-3.74
X4.86Y-3.84
X4.96Y-3.74
X4.96Y-3.84
X5.06Y-3.74
X5.06Y-3.84
X5.16Y-3.74
X5.16Y-3.84
X5.26Y-3.74
X5.26Y-3.84
X5.36Y-3.74
X5.36Y-3.84
X5.46Y-5.2102
X5.46Y-5.3102
T5
X4.1641Y-4.8726
X4.1641Y-5.0498
X4.42Y-4.8726
X4.42Y-5.0498
X4.6241Y-4.8726
X4.6241Y-5.0498
X4.88Y-4.8726
X4.88Y-5.0498
X5.0941Y-4.8726
X5.0941Y-5.0498
X5.35Y-4.8726
X5.35Y-5.0498
T0
M30
