%TF.GenerationSoftware,KiCad,Pcbnew,(6.0.0-0)*%
%TF.CreationDate,2022-07-05T22:52:52-04:00*%
%TF.ProjectId,IO-VGA-nand-gates,494f2d56-4741-42d6-9e61-6e642d676174,rev?*%
%TF.SameCoordinates,Original*%
%TF.FileFunction,Copper,L2,Bot*%
%TF.FilePolarity,Positive*%
%FSLAX46Y46*%
G04 Gerber Fmt 4.6, Leading zero omitted, Abs format (unit mm)*
G04 Created by KiCad (PCBNEW (6.0.0-0)) date 2022-07-05 22:52:52*
%MOMM*%
%LPD*%
G01*
G04 APERTURE LIST*
%TA.AperFunction,ComponentPad*%
%ADD10R,1.700000X1.700000*%
%TD*%
%TA.AperFunction,ComponentPad*%
%ADD11O,1.700000X1.700000*%
%TD*%
%TA.AperFunction,ViaPad*%
%ADD12C,0.800000*%
%TD*%
%TA.AperFunction,Conductor*%
%ADD13C,0.250000*%
%TD*%
G04 APERTURE END LIST*
D10*
%TO.P,J5,1,Pin_1*%
%TO.N,/~{Q0}*%
X137414000Y-83312000D03*
D11*
%TO.P,J5,2,Pin_2*%
%TO.N,/Q0*%
X139954000Y-83312000D03*
%TO.P,J5,3,Pin_3*%
%TO.N,/~{Q1}*%
X142494000Y-83312000D03*
%TO.P,J5,4,Pin_4*%
%TO.N,/Q1*%
X145034000Y-83312000D03*
%TD*%
D10*
%TO.P,J2,1,Pin_1*%
%TO.N,VCC*%
X129794000Y-83312000D03*
D11*
%TO.P,J2,2,Pin_2*%
%TO.N,GND*%
X132334000Y-83312000D03*
%TD*%
D10*
%TO.P,J4,1,Pin_1*%
%TO.N,/~{Q2}*%
X150114000Y-83312000D03*
D11*
%TO.P,J4,2,Pin_2*%
%TO.N,/Q2*%
X152654000Y-83312000D03*
%TO.P,J4,3,Pin_3*%
%TO.N,/~{Q3}*%
X155194000Y-83312000D03*
%TO.P,J4,4,Pin_4*%
%TO.N,/Q3*%
X157734000Y-83312000D03*
%TD*%
D10*
%TO.P,J3,1,Pin_1*%
%TO.N,/~{S2}*%
X150114000Y-101092000D03*
D11*
%TO.P,J3,2,Pin_2*%
%TO.N,/~{R2}*%
X152654000Y-101092000D03*
%TO.P,J3,3,Pin_3*%
%TO.N,/~{S3}*%
X155194000Y-101092000D03*
%TO.P,J3,4,Pin_4*%
%TO.N,/~{R3}*%
X157734000Y-101092000D03*
%TD*%
D10*
%TO.P,J1,1,Pin_1*%
%TO.N,/~{S0}*%
X137434000Y-101092000D03*
D11*
%TO.P,J1,2,Pin_2*%
%TO.N,/~{R0}*%
X139974000Y-101092000D03*
%TO.P,J1,3,Pin_3*%
%TO.N,/~{S1}*%
X142514000Y-101092000D03*
%TO.P,J1,4,Pin_4*%
%TO.N,/~{R1}*%
X145054000Y-101092000D03*
%TD*%
D12*
%TO.N,VCC*%
X148082000Y-86106000D03*
X147574000Y-83058000D03*
X131572000Y-86106000D03*
X135382000Y-86106000D03*
%TO.N,/~{Q0}*%
X140461999Y-92202001D03*
X137414000Y-92202000D03*
%TO.N,/~{S1}*%
X143764000Y-97282000D03*
X143764000Y-87122000D03*
%TO.N,GND*%
X135386299Y-90673701D03*
X145034000Y-96012000D03*
X148082000Y-90678000D03*
%TO.N,/~{Q2}*%
X153162000Y-91948000D03*
X150622000Y-92202000D03*
%TO.N,GND*%
X157734000Y-96012000D03*
%TO.N,/~{S3}*%
X156464000Y-86868000D03*
X156464000Y-97282000D03*
%TD*%
D13*
%TO.N,VCC*%
X148082000Y-86106000D02*
X148082000Y-83566000D01*
X148082000Y-83566000D02*
X147574000Y-83058000D01*
X135382000Y-86106000D02*
X131572000Y-86106000D01*
%TO.N,/~{Q0}*%
X137414000Y-92202000D02*
X140461999Y-92202001D01*
%TO.N,/~{S1}*%
X143764000Y-97282000D02*
X143764000Y-87122000D01*
%TO.N,/~{Q2}*%
X152908000Y-92202000D02*
X150622000Y-92202000D01*
X153162000Y-91948000D02*
X152908000Y-92202000D01*
%TO.N,/~{S3}*%
X156464000Y-97282000D02*
X156464000Y-86868000D01*
%TD*%
%TA.AperFunction,Conductor*%
%TO.N,GND*%
G36*
X159708121Y-81554002D02*
G01*
X159754614Y-81607658D01*
X159766000Y-81660000D01*
X159766000Y-102998000D01*
X159745998Y-103066121D01*
X159692342Y-103112614D01*
X159640000Y-103124000D01*
X128142000Y-103124000D01*
X128073879Y-103103998D01*
X128027386Y-103050342D01*
X128016000Y-102998000D01*
X128016000Y-101990134D01*
X136075500Y-101990134D01*
X136082255Y-102052316D01*
X136133385Y-102188705D01*
X136220739Y-102305261D01*
X136337295Y-102392615D01*
X136473684Y-102443745D01*
X136535866Y-102450500D01*
X138332134Y-102450500D01*
X138394316Y-102443745D01*
X138530705Y-102392615D01*
X138647261Y-102305261D01*
X138734615Y-102188705D01*
X138756799Y-102129529D01*
X138778598Y-102071382D01*
X138821240Y-102014618D01*
X138887802Y-101989918D01*
X138957150Y-102005126D01*
X138991817Y-102033114D01*
X139020250Y-102065938D01*
X139192126Y-102208632D01*
X139385000Y-102321338D01*
X139593692Y-102401030D01*
X139598760Y-102402061D01*
X139598763Y-102402062D01*
X139706017Y-102423883D01*
X139812597Y-102445567D01*
X139817772Y-102445757D01*
X139817774Y-102445757D01*
X140030673Y-102453564D01*
X140030677Y-102453564D01*
X140035837Y-102453753D01*
X140040957Y-102453097D01*
X140040959Y-102453097D01*
X140252288Y-102426025D01*
X140252289Y-102426025D01*
X140257416Y-102425368D01*
X140262366Y-102423883D01*
X140466429Y-102362661D01*
X140466434Y-102362659D01*
X140471384Y-102361174D01*
X140671994Y-102262896D01*
X140853860Y-102133173D01*
X141012096Y-101975489D01*
X141142453Y-101794077D01*
X141143776Y-101795028D01*
X141190645Y-101751857D01*
X141260580Y-101739625D01*
X141326026Y-101767144D01*
X141353875Y-101798994D01*
X141413987Y-101897088D01*
X141560250Y-102065938D01*
X141732126Y-102208632D01*
X141925000Y-102321338D01*
X142133692Y-102401030D01*
X142138760Y-102402061D01*
X142138763Y-102402062D01*
X142246017Y-102423883D01*
X142352597Y-102445567D01*
X142357772Y-102445757D01*
X142357774Y-102445757D01*
X142570673Y-102453564D01*
X142570677Y-102453564D01*
X142575837Y-102453753D01*
X142580957Y-102453097D01*
X142580959Y-102453097D01*
X142792288Y-102426025D01*
X142792289Y-102426025D01*
X142797416Y-102425368D01*
X142802366Y-102423883D01*
X143006429Y-102362661D01*
X143006434Y-102362659D01*
X143011384Y-102361174D01*
X143211994Y-102262896D01*
X143393860Y-102133173D01*
X143552096Y-101975489D01*
X143682453Y-101794077D01*
X143683776Y-101795028D01*
X143730645Y-101751857D01*
X143800580Y-101739625D01*
X143866026Y-101767144D01*
X143893875Y-101798994D01*
X143953987Y-101897088D01*
X144100250Y-102065938D01*
X144272126Y-102208632D01*
X144465000Y-102321338D01*
X144673692Y-102401030D01*
X144678760Y-102402061D01*
X144678763Y-102402062D01*
X144786017Y-102423883D01*
X144892597Y-102445567D01*
X144897772Y-102445757D01*
X144897774Y-102445757D01*
X145110673Y-102453564D01*
X145110677Y-102453564D01*
X145115837Y-102453753D01*
X145120957Y-102453097D01*
X145120959Y-102453097D01*
X145332288Y-102426025D01*
X145332289Y-102426025D01*
X145337416Y-102425368D01*
X145342366Y-102423883D01*
X145546429Y-102362661D01*
X145546434Y-102362659D01*
X145551384Y-102361174D01*
X145751994Y-102262896D01*
X145933860Y-102133173D01*
X146077400Y-101990134D01*
X148755500Y-101990134D01*
X148762255Y-102052316D01*
X148813385Y-102188705D01*
X148900739Y-102305261D01*
X149017295Y-102392615D01*
X149153684Y-102443745D01*
X149215866Y-102450500D01*
X151012134Y-102450500D01*
X151074316Y-102443745D01*
X151210705Y-102392615D01*
X151327261Y-102305261D01*
X151414615Y-102188705D01*
X151436799Y-102129529D01*
X151458598Y-102071382D01*
X151501240Y-102014618D01*
X151567802Y-101989918D01*
X151637150Y-102005126D01*
X151671817Y-102033114D01*
X151700250Y-102065938D01*
X151872126Y-102208632D01*
X152065000Y-102321338D01*
X152273692Y-102401030D01*
X152278760Y-102402061D01*
X152278763Y-102402062D01*
X152386017Y-102423883D01*
X152492597Y-102445567D01*
X152497772Y-102445757D01*
X152497774Y-102445757D01*
X152710673Y-102453564D01*
X152710677Y-102453564D01*
X152715837Y-102453753D01*
X152720957Y-102453097D01*
X152720959Y-102453097D01*
X152932288Y-102426025D01*
X152932289Y-102426025D01*
X152937416Y-102425368D01*
X152942366Y-102423883D01*
X153146429Y-102362661D01*
X153146434Y-102362659D01*
X153151384Y-102361174D01*
X153351994Y-102262896D01*
X153533860Y-102133173D01*
X153692096Y-101975489D01*
X153822453Y-101794077D01*
X153823776Y-101795028D01*
X153870645Y-101751857D01*
X153940580Y-101739625D01*
X154006026Y-101767144D01*
X154033875Y-101798994D01*
X154093987Y-101897088D01*
X154240250Y-102065938D01*
X154412126Y-102208632D01*
X154605000Y-102321338D01*
X154813692Y-102401030D01*
X154818760Y-102402061D01*
X154818763Y-102402062D01*
X154926017Y-102423883D01*
X155032597Y-102445567D01*
X155037772Y-102445757D01*
X155037774Y-102445757D01*
X155250673Y-102453564D01*
X155250677Y-102453564D01*
X155255837Y-102453753D01*
X155260957Y-102453097D01*
X155260959Y-102453097D01*
X155472288Y-102426025D01*
X155472289Y-102426025D01*
X155477416Y-102425368D01*
X155482366Y-102423883D01*
X155686429Y-102362661D01*
X155686434Y-102362659D01*
X155691384Y-102361174D01*
X155891994Y-102262896D01*
X156073860Y-102133173D01*
X156232096Y-101975489D01*
X156362453Y-101794077D01*
X156363776Y-101795028D01*
X156410645Y-101751857D01*
X156480580Y-101739625D01*
X156546026Y-101767144D01*
X156573875Y-101798994D01*
X156633987Y-101897088D01*
X156780250Y-102065938D01*
X156952126Y-102208632D01*
X157145000Y-102321338D01*
X157353692Y-102401030D01*
X157358760Y-102402061D01*
X157358763Y-102402062D01*
X157466017Y-102423883D01*
X157572597Y-102445567D01*
X157577772Y-102445757D01*
X157577774Y-102445757D01*
X157790673Y-102453564D01*
X157790677Y-102453564D01*
X157795837Y-102453753D01*
X157800957Y-102453097D01*
X157800959Y-102453097D01*
X158012288Y-102426025D01*
X158012289Y-102426025D01*
X158017416Y-102425368D01*
X158022366Y-102423883D01*
X158226429Y-102362661D01*
X158226434Y-102362659D01*
X158231384Y-102361174D01*
X158431994Y-102262896D01*
X158613860Y-102133173D01*
X158772096Y-101975489D01*
X158902453Y-101794077D01*
X158923320Y-101751857D01*
X158999136Y-101598453D01*
X158999137Y-101598451D01*
X159001430Y-101593811D01*
X159066370Y-101380069D01*
X159095529Y-101158590D01*
X159097156Y-101092000D01*
X159078852Y-100869361D01*
X159024431Y-100652702D01*
X158935354Y-100447840D01*
X158814014Y-100260277D01*
X158663670Y-100095051D01*
X158659619Y-100091852D01*
X158659615Y-100091848D01*
X158492414Y-99959800D01*
X158492410Y-99959798D01*
X158488359Y-99956598D01*
X158292789Y-99848638D01*
X158287920Y-99846914D01*
X158287916Y-99846912D01*
X158087087Y-99775795D01*
X158087083Y-99775794D01*
X158082212Y-99774069D01*
X158077119Y-99773162D01*
X158077116Y-99773161D01*
X157867373Y-99735800D01*
X157867367Y-99735799D01*
X157862284Y-99734894D01*
X157788452Y-99733992D01*
X157644081Y-99732228D01*
X157644079Y-99732228D01*
X157638911Y-99732165D01*
X157418091Y-99765955D01*
X157205756Y-99835357D01*
X157007607Y-99938507D01*
X157003474Y-99941610D01*
X157003471Y-99941612D01*
X156833100Y-100069530D01*
X156828965Y-100072635D01*
X156825393Y-100076373D01*
X156717729Y-100189037D01*
X156674629Y-100234138D01*
X156567201Y-100391621D01*
X156512293Y-100436621D01*
X156441768Y-100444792D01*
X156378021Y-100413538D01*
X156357324Y-100389054D01*
X156276822Y-100264617D01*
X156276820Y-100264614D01*
X156274014Y-100260277D01*
X156123670Y-100095051D01*
X156119619Y-100091852D01*
X156119615Y-100091848D01*
X155952414Y-99959800D01*
X155952410Y-99959798D01*
X155948359Y-99956598D01*
X155752789Y-99848638D01*
X155747920Y-99846914D01*
X155747916Y-99846912D01*
X155547087Y-99775795D01*
X155547083Y-99775794D01*
X155542212Y-99774069D01*
X155537119Y-99773162D01*
X155537116Y-99773161D01*
X155327373Y-99735800D01*
X155327367Y-99735799D01*
X155322284Y-99734894D01*
X155248452Y-99733992D01*
X155104081Y-99732228D01*
X155104079Y-99732228D01*
X155098911Y-99732165D01*
X154878091Y-99765955D01*
X154665756Y-99835357D01*
X154467607Y-99938507D01*
X154463474Y-99941610D01*
X154463471Y-99941612D01*
X154293100Y-100069530D01*
X154288965Y-100072635D01*
X154285393Y-100076373D01*
X154177729Y-100189037D01*
X154134629Y-100234138D01*
X154027201Y-100391621D01*
X153972293Y-100436621D01*
X153901768Y-100444792D01*
X153838021Y-100413538D01*
X153817324Y-100389054D01*
X153736822Y-100264617D01*
X153736820Y-100264614D01*
X153734014Y-100260277D01*
X153583670Y-100095051D01*
X153579619Y-100091852D01*
X153579615Y-100091848D01*
X153412414Y-99959800D01*
X153412410Y-99959798D01*
X153408359Y-99956598D01*
X153212789Y-99848638D01*
X153207920Y-99846914D01*
X153207916Y-99846912D01*
X153007087Y-99775795D01*
X153007083Y-99775794D01*
X153002212Y-99774069D01*
X152997119Y-99773162D01*
X152997116Y-99773161D01*
X152787373Y-99735800D01*
X152787367Y-99735799D01*
X152782284Y-99734894D01*
X152708452Y-99733992D01*
X152564081Y-99732228D01*
X152564079Y-99732228D01*
X152558911Y-99732165D01*
X152338091Y-99765955D01*
X152125756Y-99835357D01*
X151927607Y-99938507D01*
X151923474Y-99941610D01*
X151923471Y-99941612D01*
X151753100Y-100069530D01*
X151748965Y-100072635D01*
X151692537Y-100131684D01*
X151668283Y-100157064D01*
X151606759Y-100192494D01*
X151535846Y-100189037D01*
X151478060Y-100147791D01*
X151459207Y-100114243D01*
X151417767Y-100003703D01*
X151414615Y-99995295D01*
X151327261Y-99878739D01*
X151210705Y-99791385D01*
X151074316Y-99740255D01*
X151012134Y-99733500D01*
X149215866Y-99733500D01*
X149153684Y-99740255D01*
X149017295Y-99791385D01*
X148900739Y-99878739D01*
X148813385Y-99995295D01*
X148762255Y-100131684D01*
X148755500Y-100193866D01*
X148755500Y-101990134D01*
X146077400Y-101990134D01*
X146092096Y-101975489D01*
X146222453Y-101794077D01*
X146243320Y-101751857D01*
X146319136Y-101598453D01*
X146319137Y-101598451D01*
X146321430Y-101593811D01*
X146386370Y-101380069D01*
X146415529Y-101158590D01*
X146417156Y-101092000D01*
X146398852Y-100869361D01*
X146344431Y-100652702D01*
X146255354Y-100447840D01*
X146134014Y-100260277D01*
X145983670Y-100095051D01*
X145979619Y-100091852D01*
X145979615Y-100091848D01*
X145812414Y-99959800D01*
X145812410Y-99959798D01*
X145808359Y-99956598D01*
X145612789Y-99848638D01*
X145607920Y-99846914D01*
X145607916Y-99846912D01*
X145407087Y-99775795D01*
X145407083Y-99775794D01*
X145402212Y-99774069D01*
X145397119Y-99773162D01*
X145397116Y-99773161D01*
X145187373Y-99735800D01*
X145187367Y-99735799D01*
X145182284Y-99734894D01*
X145108452Y-99733992D01*
X144964081Y-99732228D01*
X144964079Y-99732228D01*
X144958911Y-99732165D01*
X144738091Y-99765955D01*
X144525756Y-99835357D01*
X144327607Y-99938507D01*
X144323474Y-99941610D01*
X144323471Y-99941612D01*
X144153100Y-100069530D01*
X144148965Y-100072635D01*
X144145393Y-100076373D01*
X144037729Y-100189037D01*
X143994629Y-100234138D01*
X143887201Y-100391621D01*
X143832293Y-100436621D01*
X143761768Y-100444792D01*
X143698021Y-100413538D01*
X143677324Y-100389054D01*
X143596822Y-100264617D01*
X143596820Y-100264614D01*
X143594014Y-100260277D01*
X143443670Y-100095051D01*
X143439619Y-100091852D01*
X143439615Y-100091848D01*
X143272414Y-99959800D01*
X143272410Y-99959798D01*
X143268359Y-99956598D01*
X143072789Y-99848638D01*
X143067920Y-99846914D01*
X143067916Y-99846912D01*
X142867087Y-99775795D01*
X142867083Y-99775794D01*
X142862212Y-99774069D01*
X142857119Y-99773162D01*
X142857116Y-99773161D01*
X142647373Y-99735800D01*
X142647367Y-99735799D01*
X142642284Y-99734894D01*
X142568452Y-99733992D01*
X142424081Y-99732228D01*
X142424079Y-99732228D01*
X142418911Y-99732165D01*
X142198091Y-99765955D01*
X141985756Y-99835357D01*
X141787607Y-99938507D01*
X141783474Y-99941610D01*
X141783471Y-99941612D01*
X141613100Y-100069530D01*
X141608965Y-100072635D01*
X141605393Y-100076373D01*
X141497729Y-100189037D01*
X141454629Y-100234138D01*
X141347201Y-100391621D01*
X141292293Y-100436621D01*
X141221768Y-100444792D01*
X141158021Y-100413538D01*
X141137324Y-100389054D01*
X141056822Y-100264617D01*
X141056820Y-100264614D01*
X141054014Y-100260277D01*
X140903670Y-100095051D01*
X140899619Y-100091852D01*
X140899615Y-100091848D01*
X140732414Y-99959800D01*
X140732410Y-99959798D01*
X140728359Y-99956598D01*
X140532789Y-99848638D01*
X140527920Y-99846914D01*
X140527916Y-99846912D01*
X140327087Y-99775795D01*
X140327083Y-99775794D01*
X140322212Y-99774069D01*
X140317119Y-99773162D01*
X140317116Y-99773161D01*
X140107373Y-99735800D01*
X140107367Y-99735799D01*
X140102284Y-99734894D01*
X140028452Y-99733992D01*
X139884081Y-99732228D01*
X139884079Y-99732228D01*
X139878911Y-99732165D01*
X139658091Y-99765955D01*
X139445756Y-99835357D01*
X139247607Y-99938507D01*
X139243474Y-99941610D01*
X139243471Y-99941612D01*
X139073100Y-100069530D01*
X139068965Y-100072635D01*
X139012537Y-100131684D01*
X138988283Y-100157064D01*
X138926759Y-100192494D01*
X138855846Y-100189037D01*
X138798060Y-100147791D01*
X138779207Y-100114243D01*
X138737767Y-100003703D01*
X138734615Y-99995295D01*
X138647261Y-99878739D01*
X138530705Y-99791385D01*
X138394316Y-99740255D01*
X138332134Y-99733500D01*
X136535866Y-99733500D01*
X136473684Y-99740255D01*
X136337295Y-99791385D01*
X136220739Y-99878739D01*
X136133385Y-99995295D01*
X136082255Y-100131684D01*
X136075500Y-100193866D01*
X136075500Y-101990134D01*
X128016000Y-101990134D01*
X128016000Y-97282000D01*
X142850496Y-97282000D01*
X142870458Y-97471928D01*
X142929473Y-97653556D01*
X143024960Y-97818944D01*
X143152747Y-97960866D01*
X143307248Y-98073118D01*
X143313276Y-98075802D01*
X143313278Y-98075803D01*
X143475681Y-98148109D01*
X143481712Y-98150794D01*
X143575113Y-98170647D01*
X143662056Y-98189128D01*
X143662061Y-98189128D01*
X143668513Y-98190500D01*
X143859487Y-98190500D01*
X143865939Y-98189128D01*
X143865944Y-98189128D01*
X143952887Y-98170647D01*
X144046288Y-98150794D01*
X144052319Y-98148109D01*
X144214722Y-98075803D01*
X144214724Y-98075802D01*
X144220752Y-98073118D01*
X144375253Y-97960866D01*
X144503040Y-97818944D01*
X144598527Y-97653556D01*
X144657542Y-97471928D01*
X144677504Y-97282000D01*
X155550496Y-97282000D01*
X155570458Y-97471928D01*
X155629473Y-97653556D01*
X155724960Y-97818944D01*
X155852747Y-97960866D01*
X156007248Y-98073118D01*
X156013276Y-98075802D01*
X156013278Y-98075803D01*
X156175681Y-98148109D01*
X156181712Y-98150794D01*
X156275113Y-98170647D01*
X156362056Y-98189128D01*
X156362061Y-98189128D01*
X156368513Y-98190500D01*
X156559487Y-98190500D01*
X156565939Y-98189128D01*
X156565944Y-98189128D01*
X156652887Y-98170647D01*
X156746288Y-98150794D01*
X156752319Y-98148109D01*
X156914722Y-98075803D01*
X156914724Y-98075802D01*
X156920752Y-98073118D01*
X157075253Y-97960866D01*
X157203040Y-97818944D01*
X157298527Y-97653556D01*
X157357542Y-97471928D01*
X157377504Y-97282000D01*
X157357542Y-97092072D01*
X157298527Y-96910444D01*
X157203040Y-96745056D01*
X157129863Y-96663785D01*
X157099147Y-96599779D01*
X157097500Y-96579476D01*
X157097500Y-87570524D01*
X157117502Y-87502403D01*
X157129858Y-87486221D01*
X157203040Y-87404944D01*
X157298527Y-87239556D01*
X157357542Y-87057928D01*
X157362107Y-87014500D01*
X157376814Y-86874565D01*
X157377504Y-86868000D01*
X157376814Y-86861435D01*
X157358232Y-86684635D01*
X157358232Y-86684633D01*
X157357542Y-86678072D01*
X157298527Y-86496444D01*
X157203040Y-86331056D01*
X157177064Y-86302206D01*
X157079675Y-86194045D01*
X157079674Y-86194044D01*
X157075253Y-86189134D01*
X156960829Y-86106000D01*
X156926094Y-86080763D01*
X156926093Y-86080762D01*
X156920752Y-86076882D01*
X156914724Y-86074198D01*
X156914722Y-86074197D01*
X156752319Y-86001891D01*
X156752318Y-86001891D01*
X156746288Y-85999206D01*
X156652888Y-85979353D01*
X156565944Y-85960872D01*
X156565939Y-85960872D01*
X156559487Y-85959500D01*
X156368513Y-85959500D01*
X156362061Y-85960872D01*
X156362056Y-85960872D01*
X156275112Y-85979353D01*
X156181712Y-85999206D01*
X156175682Y-86001891D01*
X156175681Y-86001891D01*
X156013278Y-86074197D01*
X156013276Y-86074198D01*
X156007248Y-86076882D01*
X156001907Y-86080762D01*
X156001906Y-86080763D01*
X155967171Y-86106000D01*
X155852747Y-86189134D01*
X155848326Y-86194044D01*
X155848325Y-86194045D01*
X155750937Y-86302206D01*
X155724960Y-86331056D01*
X155629473Y-86496444D01*
X155570458Y-86678072D01*
X155569768Y-86684633D01*
X155569768Y-86684635D01*
X155551186Y-86861435D01*
X155550496Y-86868000D01*
X155551186Y-86874565D01*
X155565894Y-87014500D01*
X155570458Y-87057928D01*
X155629473Y-87239556D01*
X155724960Y-87404944D01*
X155798137Y-87486215D01*
X155828853Y-87550221D01*
X155830500Y-87570524D01*
X155830500Y-96579476D01*
X155810498Y-96647597D01*
X155798142Y-96663779D01*
X155724960Y-96745056D01*
X155629473Y-96910444D01*
X155570458Y-97092072D01*
X155550496Y-97282000D01*
X144677504Y-97282000D01*
X144657542Y-97092072D01*
X144598527Y-96910444D01*
X144503040Y-96745056D01*
X144429863Y-96663785D01*
X144399147Y-96599779D01*
X144397500Y-96579476D01*
X144397500Y-92202000D01*
X149708496Y-92202000D01*
X149728458Y-92391928D01*
X149787473Y-92573556D01*
X149882960Y-92738944D01*
X149887378Y-92743851D01*
X149887379Y-92743852D01*
X150003474Y-92872789D01*
X150010747Y-92880866D01*
X150165248Y-92993118D01*
X150171276Y-92995802D01*
X150171278Y-92995803D01*
X150333681Y-93068109D01*
X150339712Y-93070794D01*
X150433113Y-93090647D01*
X150520056Y-93109128D01*
X150520061Y-93109128D01*
X150526513Y-93110500D01*
X150717487Y-93110500D01*
X150723939Y-93109128D01*
X150723944Y-93109128D01*
X150810888Y-93090647D01*
X150904288Y-93070794D01*
X150910319Y-93068109D01*
X151072722Y-92995803D01*
X151072724Y-92995802D01*
X151078752Y-92993118D01*
X151233253Y-92880866D01*
X151237668Y-92875963D01*
X151242580Y-92871540D01*
X151243705Y-92872789D01*
X151297014Y-92839949D01*
X151330200Y-92835500D01*
X152829233Y-92835500D01*
X152840416Y-92836027D01*
X152847909Y-92837702D01*
X152855835Y-92837453D01*
X152855836Y-92837453D01*
X152915986Y-92835562D01*
X152919945Y-92835500D01*
X152947856Y-92835500D01*
X152947856Y-92835632D01*
X152979158Y-92837932D01*
X153066513Y-92856500D01*
X153257487Y-92856500D01*
X153263939Y-92855128D01*
X153263944Y-92855128D01*
X153362696Y-92834137D01*
X153444288Y-92816794D01*
X153450319Y-92814109D01*
X153612722Y-92741803D01*
X153612724Y-92741802D01*
X153618752Y-92739118D01*
X153626861Y-92733227D01*
X153674157Y-92698864D01*
X153773253Y-92626866D01*
X153816100Y-92579280D01*
X153896621Y-92489852D01*
X153896622Y-92489851D01*
X153901040Y-92484944D01*
X153996527Y-92319556D01*
X154055542Y-92137928D01*
X154075504Y-91948000D01*
X154055542Y-91758072D01*
X153996527Y-91576444D01*
X153989373Y-91564052D01*
X153904341Y-91416774D01*
X153901040Y-91411056D01*
X153796429Y-91294873D01*
X153777675Y-91274045D01*
X153777674Y-91274044D01*
X153773253Y-91269134D01*
X153618752Y-91156882D01*
X153612724Y-91154198D01*
X153612722Y-91154197D01*
X153450319Y-91081891D01*
X153450318Y-91081891D01*
X153444288Y-91079206D01*
X153350887Y-91059353D01*
X153263944Y-91040872D01*
X153263939Y-91040872D01*
X153257487Y-91039500D01*
X153066513Y-91039500D01*
X153060061Y-91040872D01*
X153060056Y-91040872D01*
X152973113Y-91059353D01*
X152879712Y-91079206D01*
X152873682Y-91081891D01*
X152873681Y-91081891D01*
X152711278Y-91154197D01*
X152711276Y-91154198D01*
X152705248Y-91156882D01*
X152550747Y-91269134D01*
X152546326Y-91274044D01*
X152546325Y-91274045D01*
X152527572Y-91294873D01*
X152422960Y-91411056D01*
X152419659Y-91416774D01*
X152368432Y-91505501D01*
X152317049Y-91554494D01*
X152259313Y-91568500D01*
X151330200Y-91568500D01*
X151262079Y-91548498D01*
X151242853Y-91532157D01*
X151242580Y-91532460D01*
X151237668Y-91528037D01*
X151233253Y-91523134D01*
X151086862Y-91416774D01*
X151084094Y-91414763D01*
X151084093Y-91414762D01*
X151078752Y-91410882D01*
X151072724Y-91408198D01*
X151072722Y-91408197D01*
X150910319Y-91335891D01*
X150910318Y-91335891D01*
X150904288Y-91333206D01*
X150810888Y-91313353D01*
X150723944Y-91294872D01*
X150723939Y-91294872D01*
X150717487Y-91293500D01*
X150526513Y-91293500D01*
X150520061Y-91294872D01*
X150520056Y-91294872D01*
X150433113Y-91313353D01*
X150339712Y-91333206D01*
X150333682Y-91335891D01*
X150333681Y-91335891D01*
X150171278Y-91408197D01*
X150171276Y-91408198D01*
X150165248Y-91410882D01*
X150159907Y-91414762D01*
X150159906Y-91414763D01*
X150157138Y-91416774D01*
X150010747Y-91523134D01*
X150006326Y-91528044D01*
X150006325Y-91528045D01*
X149962747Y-91576444D01*
X149882960Y-91665056D01*
X149787473Y-91830444D01*
X149728458Y-92012072D01*
X149708496Y-92202000D01*
X144397500Y-92202000D01*
X144397500Y-87824524D01*
X144417502Y-87756403D01*
X144429858Y-87740221D01*
X144503040Y-87658944D01*
X144598527Y-87493556D01*
X144657542Y-87311928D01*
X144677504Y-87122000D01*
X144670080Y-87051365D01*
X144658232Y-86938635D01*
X144658232Y-86938633D01*
X144657542Y-86932072D01*
X144598527Y-86750444D01*
X144592209Y-86739500D01*
X144506341Y-86590774D01*
X144503040Y-86585056D01*
X144423254Y-86496444D01*
X144379675Y-86448045D01*
X144379674Y-86448044D01*
X144375253Y-86443134D01*
X144220752Y-86330882D01*
X144214724Y-86328198D01*
X144214722Y-86328197D01*
X144052319Y-86255891D01*
X144052318Y-86255891D01*
X144046288Y-86253206D01*
X143952887Y-86233353D01*
X143865944Y-86214872D01*
X143865939Y-86214872D01*
X143859487Y-86213500D01*
X143668513Y-86213500D01*
X143662061Y-86214872D01*
X143662056Y-86214872D01*
X143575112Y-86233353D01*
X143481712Y-86253206D01*
X143475682Y-86255891D01*
X143475681Y-86255891D01*
X143313278Y-86328197D01*
X143313276Y-86328198D01*
X143307248Y-86330882D01*
X143152747Y-86443134D01*
X143148326Y-86448044D01*
X143148325Y-86448045D01*
X143104747Y-86496444D01*
X143024960Y-86585056D01*
X143021659Y-86590774D01*
X142935792Y-86739500D01*
X142929473Y-86750444D01*
X142870458Y-86932072D01*
X142869768Y-86938633D01*
X142869768Y-86938635D01*
X142857920Y-87051365D01*
X142850496Y-87122000D01*
X142870458Y-87311928D01*
X142929473Y-87493556D01*
X143024960Y-87658944D01*
X143098137Y-87740215D01*
X143128853Y-87804221D01*
X143130500Y-87824524D01*
X143130500Y-96579476D01*
X143110498Y-96647597D01*
X143098142Y-96663779D01*
X143024960Y-96745056D01*
X142929473Y-96910444D01*
X142870458Y-97092072D01*
X142850496Y-97282000D01*
X128016000Y-97282000D01*
X128016000Y-92202000D01*
X136500496Y-92202000D01*
X136520458Y-92391928D01*
X136579473Y-92573556D01*
X136674960Y-92738944D01*
X136679378Y-92743851D01*
X136679379Y-92743852D01*
X136795474Y-92872789D01*
X136802747Y-92880866D01*
X136957248Y-92993118D01*
X136963276Y-92995802D01*
X136963278Y-92995803D01*
X137125681Y-93068109D01*
X137131712Y-93070794D01*
X137225113Y-93090647D01*
X137312056Y-93109128D01*
X137312061Y-93109128D01*
X137318513Y-93110500D01*
X137509487Y-93110500D01*
X137515939Y-93109128D01*
X137515944Y-93109128D01*
X137602888Y-93090647D01*
X137696288Y-93070794D01*
X137702319Y-93068109D01*
X137864722Y-92995803D01*
X137864724Y-92995802D01*
X137870752Y-92993118D01*
X137876094Y-92989237D01*
X138019909Y-92884749D01*
X138019911Y-92884747D01*
X138025253Y-92880866D01*
X138029674Y-92875956D01*
X138034580Y-92871539D01*
X138035706Y-92872789D01*
X138089012Y-92839949D01*
X138122200Y-92835500D01*
X138938007Y-92835501D01*
X139753799Y-92835501D01*
X139821920Y-92855503D01*
X139841146Y-92871844D01*
X139841419Y-92871541D01*
X139846331Y-92875964D01*
X139850746Y-92880867D01*
X140005247Y-92993119D01*
X140011275Y-92995803D01*
X140011277Y-92995804D01*
X140173678Y-93068109D01*
X140179711Y-93070795D01*
X140273112Y-93090648D01*
X140360055Y-93109129D01*
X140360060Y-93109129D01*
X140366512Y-93110501D01*
X140557486Y-93110501D01*
X140563938Y-93109129D01*
X140563943Y-93109129D01*
X140650886Y-93090648D01*
X140744287Y-93070795D01*
X140750320Y-93068109D01*
X140912721Y-92995804D01*
X140912723Y-92995803D01*
X140918751Y-92993119D01*
X141073252Y-92880867D01*
X141077675Y-92875955D01*
X141196620Y-92743853D01*
X141196621Y-92743852D01*
X141201039Y-92738945D01*
X141296526Y-92573557D01*
X141355541Y-92391929D01*
X141375503Y-92202001D01*
X141355541Y-92012073D01*
X141296526Y-91830445D01*
X141201039Y-91665057D01*
X141081376Y-91532157D01*
X141077674Y-91528046D01*
X141077673Y-91528045D01*
X141073252Y-91523135D01*
X140974156Y-91451137D01*
X140924093Y-91414764D01*
X140924092Y-91414763D01*
X140918751Y-91410883D01*
X140912723Y-91408199D01*
X140912721Y-91408198D01*
X140750318Y-91335892D01*
X140750315Y-91335891D01*
X140744287Y-91333207D01*
X140650887Y-91313354D01*
X140563943Y-91294873D01*
X140563938Y-91294873D01*
X140557486Y-91293501D01*
X140366512Y-91293501D01*
X140360060Y-91294873D01*
X140360055Y-91294873D01*
X140273111Y-91313354D01*
X140179711Y-91333207D01*
X140173683Y-91335891D01*
X140173680Y-91335892D01*
X140011277Y-91408198D01*
X140011275Y-91408199D01*
X140005247Y-91410883D01*
X139999906Y-91414763D01*
X139999905Y-91414764D01*
X139856092Y-91519251D01*
X139850746Y-91523135D01*
X139846328Y-91528042D01*
X139841419Y-91532462D01*
X139840293Y-91531212D01*
X139786987Y-91564052D01*
X139753799Y-91568501D01*
X138937992Y-91568500D01*
X138122200Y-91568500D01*
X138054079Y-91548498D01*
X138034853Y-91532157D01*
X138034580Y-91532460D01*
X138029668Y-91528037D01*
X138025253Y-91523134D01*
X137878862Y-91416774D01*
X137876094Y-91414763D01*
X137876093Y-91414762D01*
X137870752Y-91410882D01*
X137864724Y-91408198D01*
X137864722Y-91408197D01*
X137702319Y-91335891D01*
X137702318Y-91335891D01*
X137696288Y-91333206D01*
X137602888Y-91313353D01*
X137515944Y-91294872D01*
X137515939Y-91294872D01*
X137509487Y-91293500D01*
X137318513Y-91293500D01*
X137312061Y-91294872D01*
X137312056Y-91294872D01*
X137225113Y-91313353D01*
X137131712Y-91333206D01*
X137125682Y-91335891D01*
X137125681Y-91335891D01*
X136963278Y-91408197D01*
X136963276Y-91408198D01*
X136957248Y-91410882D01*
X136951907Y-91414762D01*
X136951906Y-91414763D01*
X136949138Y-91416774D01*
X136802747Y-91523134D01*
X136798326Y-91528044D01*
X136798325Y-91528045D01*
X136754747Y-91576444D01*
X136674960Y-91665056D01*
X136579473Y-91830444D01*
X136520458Y-92012072D01*
X136500496Y-92202000D01*
X128016000Y-92202000D01*
X128016000Y-86106000D01*
X130658496Y-86106000D01*
X130659186Y-86112565D01*
X130673824Y-86251834D01*
X130678458Y-86295928D01*
X130737473Y-86477556D01*
X130832960Y-86642944D01*
X130837378Y-86647851D01*
X130837379Y-86647852D01*
X130864589Y-86678072D01*
X130960747Y-86784866D01*
X131059843Y-86856864D01*
X131084207Y-86874565D01*
X131115248Y-86897118D01*
X131121276Y-86899802D01*
X131121278Y-86899803D01*
X131193756Y-86932072D01*
X131289712Y-86974794D01*
X131383112Y-86994647D01*
X131470056Y-87013128D01*
X131470061Y-87013128D01*
X131476513Y-87014500D01*
X131667487Y-87014500D01*
X131673939Y-87013128D01*
X131673944Y-87013128D01*
X131760888Y-86994647D01*
X131854288Y-86974794D01*
X131950244Y-86932072D01*
X132022722Y-86899803D01*
X132022724Y-86899802D01*
X132028752Y-86897118D01*
X132059794Y-86874565D01*
X132161671Y-86800546D01*
X132183253Y-86784866D01*
X132187668Y-86779963D01*
X132192580Y-86775540D01*
X132193705Y-86776789D01*
X132247014Y-86743949D01*
X132280200Y-86739500D01*
X134673800Y-86739500D01*
X134741921Y-86759502D01*
X134761147Y-86775843D01*
X134761420Y-86775540D01*
X134766332Y-86779963D01*
X134770747Y-86784866D01*
X134792329Y-86800546D01*
X134894207Y-86874565D01*
X134925248Y-86897118D01*
X134931276Y-86899802D01*
X134931278Y-86899803D01*
X135003756Y-86932072D01*
X135099712Y-86974794D01*
X135193112Y-86994647D01*
X135280056Y-87013128D01*
X135280061Y-87013128D01*
X135286513Y-87014500D01*
X135477487Y-87014500D01*
X135483939Y-87013128D01*
X135483944Y-87013128D01*
X135570888Y-86994647D01*
X135664288Y-86974794D01*
X135760244Y-86932072D01*
X135832722Y-86899803D01*
X135832724Y-86899802D01*
X135838752Y-86897118D01*
X135869794Y-86874565D01*
X135894157Y-86856864D01*
X135993253Y-86784866D01*
X136089411Y-86678072D01*
X136116621Y-86647852D01*
X136116622Y-86647851D01*
X136121040Y-86642944D01*
X136216527Y-86477556D01*
X136275542Y-86295928D01*
X136280177Y-86251834D01*
X136294814Y-86112565D01*
X136295504Y-86106000D01*
X136284280Y-85999206D01*
X136276232Y-85922635D01*
X136276232Y-85922633D01*
X136275542Y-85916072D01*
X136216527Y-85734444D01*
X136121040Y-85569056D01*
X135993253Y-85427134D01*
X135838752Y-85314882D01*
X135832724Y-85312198D01*
X135832722Y-85312197D01*
X135670319Y-85239891D01*
X135670318Y-85239891D01*
X135664288Y-85237206D01*
X135570888Y-85217353D01*
X135483944Y-85198872D01*
X135483939Y-85198872D01*
X135477487Y-85197500D01*
X135286513Y-85197500D01*
X135280061Y-85198872D01*
X135280056Y-85198872D01*
X135193112Y-85217353D01*
X135099712Y-85237206D01*
X135093682Y-85239891D01*
X135093681Y-85239891D01*
X134931278Y-85312197D01*
X134931276Y-85312198D01*
X134925248Y-85314882D01*
X134770747Y-85427134D01*
X134766332Y-85432037D01*
X134761420Y-85436460D01*
X134760295Y-85435211D01*
X134706986Y-85468051D01*
X134673800Y-85472500D01*
X132280200Y-85472500D01*
X132212079Y-85452498D01*
X132192853Y-85436157D01*
X132192580Y-85436460D01*
X132187668Y-85432037D01*
X132183253Y-85427134D01*
X132028752Y-85314882D01*
X132022724Y-85312198D01*
X132022722Y-85312197D01*
X131860319Y-85239891D01*
X131860318Y-85239891D01*
X131854288Y-85237206D01*
X131760888Y-85217353D01*
X131673944Y-85198872D01*
X131673939Y-85198872D01*
X131667487Y-85197500D01*
X131476513Y-85197500D01*
X131470061Y-85198872D01*
X131470056Y-85198872D01*
X131383112Y-85217353D01*
X131289712Y-85237206D01*
X131283682Y-85239891D01*
X131283681Y-85239891D01*
X131121278Y-85312197D01*
X131121276Y-85312198D01*
X131115248Y-85314882D01*
X130960747Y-85427134D01*
X130832960Y-85569056D01*
X130737473Y-85734444D01*
X130678458Y-85916072D01*
X130677768Y-85922633D01*
X130677768Y-85922635D01*
X130669720Y-85999206D01*
X130658496Y-86106000D01*
X128016000Y-86106000D01*
X128016000Y-84210134D01*
X128435500Y-84210134D01*
X128442255Y-84272316D01*
X128493385Y-84408705D01*
X128580739Y-84525261D01*
X128697295Y-84612615D01*
X128833684Y-84663745D01*
X128895866Y-84670500D01*
X130692134Y-84670500D01*
X130754316Y-84663745D01*
X130890705Y-84612615D01*
X131007261Y-84525261D01*
X131094615Y-84408705D01*
X131116945Y-84349139D01*
X131138798Y-84290848D01*
X131181440Y-84234084D01*
X131248001Y-84209384D01*
X131317350Y-84224592D01*
X131352017Y-84252580D01*
X131377218Y-84281673D01*
X131384580Y-84288883D01*
X131548434Y-84424916D01*
X131556881Y-84430831D01*
X131740756Y-84538279D01*
X131750042Y-84542729D01*
X131949001Y-84618703D01*
X131958899Y-84621579D01*
X132062250Y-84642606D01*
X132076299Y-84641410D01*
X132080000Y-84631065D01*
X132080000Y-84630517D01*
X132588000Y-84630517D01*
X132592064Y-84644359D01*
X132605478Y-84646393D01*
X132612184Y-84645534D01*
X132622262Y-84643392D01*
X132826255Y-84582191D01*
X132835842Y-84578433D01*
X133027095Y-84484739D01*
X133035945Y-84479464D01*
X133209328Y-84355792D01*
X133217200Y-84349139D01*
X133356690Y-84210134D01*
X136055500Y-84210134D01*
X136062255Y-84272316D01*
X136113385Y-84408705D01*
X136200739Y-84525261D01*
X136317295Y-84612615D01*
X136453684Y-84663745D01*
X136515866Y-84670500D01*
X138312134Y-84670500D01*
X138374316Y-84663745D01*
X138510705Y-84612615D01*
X138627261Y-84525261D01*
X138714615Y-84408705D01*
X138736799Y-84349529D01*
X138758598Y-84291382D01*
X138801240Y-84234618D01*
X138867802Y-84209918D01*
X138937150Y-84225126D01*
X138971817Y-84253114D01*
X139000250Y-84285938D01*
X139172126Y-84428632D01*
X139365000Y-84541338D01*
X139573692Y-84621030D01*
X139578760Y-84622061D01*
X139578763Y-84622062D01*
X139658689Y-84638323D01*
X139792597Y-84665567D01*
X139797772Y-84665757D01*
X139797774Y-84665757D01*
X140010673Y-84673564D01*
X140010677Y-84673564D01*
X140015837Y-84673753D01*
X140020957Y-84673097D01*
X140020959Y-84673097D01*
X140232288Y-84646025D01*
X140232289Y-84646025D01*
X140237416Y-84645368D01*
X140242366Y-84643883D01*
X140446429Y-84582661D01*
X140446434Y-84582659D01*
X140451384Y-84581174D01*
X140651994Y-84482896D01*
X140833860Y-84353173D01*
X140992096Y-84195489D01*
X141122453Y-84014077D01*
X141123776Y-84015028D01*
X141170645Y-83971857D01*
X141240580Y-83959625D01*
X141306026Y-83987144D01*
X141333875Y-84018994D01*
X141393987Y-84117088D01*
X141540250Y-84285938D01*
X141712126Y-84428632D01*
X141905000Y-84541338D01*
X142113692Y-84621030D01*
X142118760Y-84622061D01*
X142118763Y-84622062D01*
X142198689Y-84638323D01*
X142332597Y-84665567D01*
X142337772Y-84665757D01*
X142337774Y-84665757D01*
X142550673Y-84673564D01*
X142550677Y-84673564D01*
X142555837Y-84673753D01*
X142560957Y-84673097D01*
X142560959Y-84673097D01*
X142772288Y-84646025D01*
X142772289Y-84646025D01*
X142777416Y-84645368D01*
X142782366Y-84643883D01*
X142986429Y-84582661D01*
X142986434Y-84582659D01*
X142991384Y-84581174D01*
X143191994Y-84482896D01*
X143373860Y-84353173D01*
X143532096Y-84195489D01*
X143662453Y-84014077D01*
X143663776Y-84015028D01*
X143710645Y-83971857D01*
X143780580Y-83959625D01*
X143846026Y-83987144D01*
X143873875Y-84018994D01*
X143933987Y-84117088D01*
X144080250Y-84285938D01*
X144252126Y-84428632D01*
X144445000Y-84541338D01*
X144653692Y-84621030D01*
X144658760Y-84622061D01*
X144658763Y-84622062D01*
X144738689Y-84638323D01*
X144872597Y-84665567D01*
X144877772Y-84665757D01*
X144877774Y-84665757D01*
X145090673Y-84673564D01*
X145090677Y-84673564D01*
X145095837Y-84673753D01*
X145100957Y-84673097D01*
X145100959Y-84673097D01*
X145312288Y-84646025D01*
X145312289Y-84646025D01*
X145317416Y-84645368D01*
X145322366Y-84643883D01*
X145526429Y-84582661D01*
X145526434Y-84582659D01*
X145531384Y-84581174D01*
X145731994Y-84482896D01*
X145913860Y-84353173D01*
X146072096Y-84195489D01*
X146202453Y-84014077D01*
X146223320Y-83971857D01*
X146299136Y-83818453D01*
X146299137Y-83818451D01*
X146301430Y-83813811D01*
X146366370Y-83600069D01*
X146395529Y-83378590D01*
X146397156Y-83312000D01*
X146378852Y-83089361D01*
X146370975Y-83058000D01*
X146660496Y-83058000D01*
X146680458Y-83247928D01*
X146739473Y-83429556D01*
X146742776Y-83435278D01*
X146742777Y-83435279D01*
X146776686Y-83494010D01*
X146834960Y-83594944D01*
X146839378Y-83599851D01*
X146839379Y-83599852D01*
X146843933Y-83604910D01*
X146962747Y-83736866D01*
X147117248Y-83849118D01*
X147123276Y-83851802D01*
X147123278Y-83851803D01*
X147223878Y-83896593D01*
X147291712Y-83926794D01*
X147348024Y-83938764D01*
X147348698Y-83938907D01*
X147411171Y-83972635D01*
X147445492Y-84034785D01*
X147448500Y-84062153D01*
X147448500Y-85403476D01*
X147428498Y-85471597D01*
X147416142Y-85487779D01*
X147342960Y-85569056D01*
X147247473Y-85734444D01*
X147188458Y-85916072D01*
X147187768Y-85922633D01*
X147187768Y-85922635D01*
X147179720Y-85999206D01*
X147168496Y-86106000D01*
X147169186Y-86112565D01*
X147183824Y-86251834D01*
X147188458Y-86295928D01*
X147247473Y-86477556D01*
X147342960Y-86642944D01*
X147347378Y-86647851D01*
X147347379Y-86647852D01*
X147374589Y-86678072D01*
X147470747Y-86784866D01*
X147569843Y-86856864D01*
X147594207Y-86874565D01*
X147625248Y-86897118D01*
X147631276Y-86899802D01*
X147631278Y-86899803D01*
X147703756Y-86932072D01*
X147799712Y-86974794D01*
X147893112Y-86994647D01*
X147980056Y-87013128D01*
X147980061Y-87013128D01*
X147986513Y-87014500D01*
X148177487Y-87014500D01*
X148183939Y-87013128D01*
X148183944Y-87013128D01*
X148270888Y-86994647D01*
X148364288Y-86974794D01*
X148460244Y-86932072D01*
X148532722Y-86899803D01*
X148532724Y-86899802D01*
X148538752Y-86897118D01*
X148569794Y-86874565D01*
X148594157Y-86856864D01*
X148693253Y-86784866D01*
X148789411Y-86678072D01*
X148816621Y-86647852D01*
X148816622Y-86647851D01*
X148821040Y-86642944D01*
X148916527Y-86477556D01*
X148975542Y-86295928D01*
X148980177Y-86251834D01*
X148994814Y-86112565D01*
X148995504Y-86106000D01*
X148984280Y-85999206D01*
X148976232Y-85922635D01*
X148976232Y-85922633D01*
X148975542Y-85916072D01*
X148916527Y-85734444D01*
X148821040Y-85569056D01*
X148747863Y-85487785D01*
X148717147Y-85423779D01*
X148715500Y-85403476D01*
X148715500Y-84638323D01*
X148735502Y-84570202D01*
X148789158Y-84523709D01*
X148859432Y-84513605D01*
X148917065Y-84537497D01*
X148977328Y-84582661D01*
X149017295Y-84612615D01*
X149153684Y-84663745D01*
X149215866Y-84670500D01*
X151012134Y-84670500D01*
X151074316Y-84663745D01*
X151210705Y-84612615D01*
X151327261Y-84525261D01*
X151414615Y-84408705D01*
X151436799Y-84349529D01*
X151458598Y-84291382D01*
X151501240Y-84234618D01*
X151567802Y-84209918D01*
X151637150Y-84225126D01*
X151671817Y-84253114D01*
X151700250Y-84285938D01*
X151872126Y-84428632D01*
X152065000Y-84541338D01*
X152273692Y-84621030D01*
X152278760Y-84622061D01*
X152278763Y-84622062D01*
X152358689Y-84638323D01*
X152492597Y-84665567D01*
X152497772Y-84665757D01*
X152497774Y-84665757D01*
X152710673Y-84673564D01*
X152710677Y-84673564D01*
X152715837Y-84673753D01*
X152720957Y-84673097D01*
X152720959Y-84673097D01*
X152932288Y-84646025D01*
X152932289Y-84646025D01*
X152937416Y-84645368D01*
X152942366Y-84643883D01*
X153146429Y-84582661D01*
X153146434Y-84582659D01*
X153151384Y-84581174D01*
X153351994Y-84482896D01*
X153533860Y-84353173D01*
X153692096Y-84195489D01*
X153822453Y-84014077D01*
X153823776Y-84015028D01*
X153870645Y-83971857D01*
X153940580Y-83959625D01*
X154006026Y-83987144D01*
X154033875Y-84018994D01*
X154093987Y-84117088D01*
X154240250Y-84285938D01*
X154412126Y-84428632D01*
X154605000Y-84541338D01*
X154813692Y-84621030D01*
X154818760Y-84622061D01*
X154818763Y-84622062D01*
X154898689Y-84638323D01*
X155032597Y-84665567D01*
X155037772Y-84665757D01*
X155037774Y-84665757D01*
X155250673Y-84673564D01*
X155250677Y-84673564D01*
X155255837Y-84673753D01*
X155260957Y-84673097D01*
X155260959Y-84673097D01*
X155472288Y-84646025D01*
X155472289Y-84646025D01*
X155477416Y-84645368D01*
X155482366Y-84643883D01*
X155686429Y-84582661D01*
X155686434Y-84582659D01*
X155691384Y-84581174D01*
X155891994Y-84482896D01*
X156073860Y-84353173D01*
X156232096Y-84195489D01*
X156362453Y-84014077D01*
X156363776Y-84015028D01*
X156410645Y-83971857D01*
X156480580Y-83959625D01*
X156546026Y-83987144D01*
X156573875Y-84018994D01*
X156633987Y-84117088D01*
X156780250Y-84285938D01*
X156952126Y-84428632D01*
X157145000Y-84541338D01*
X157353692Y-84621030D01*
X157358760Y-84622061D01*
X157358763Y-84622062D01*
X157438689Y-84638323D01*
X157572597Y-84665567D01*
X157577772Y-84665757D01*
X157577774Y-84665757D01*
X157790673Y-84673564D01*
X157790677Y-84673564D01*
X157795837Y-84673753D01*
X157800957Y-84673097D01*
X157800959Y-84673097D01*
X158012288Y-84646025D01*
X158012289Y-84646025D01*
X158017416Y-84645368D01*
X158022366Y-84643883D01*
X158226429Y-84582661D01*
X158226434Y-84582659D01*
X158231384Y-84581174D01*
X158431994Y-84482896D01*
X158613860Y-84353173D01*
X158772096Y-84195489D01*
X158902453Y-84014077D01*
X158923320Y-83971857D01*
X158999136Y-83818453D01*
X158999137Y-83818451D01*
X159001430Y-83813811D01*
X159066370Y-83600069D01*
X159095529Y-83378590D01*
X159097156Y-83312000D01*
X159078852Y-83089361D01*
X159024431Y-82872702D01*
X158935354Y-82667840D01*
X158814014Y-82480277D01*
X158663670Y-82315051D01*
X158659619Y-82311852D01*
X158659615Y-82311848D01*
X158492414Y-82179800D01*
X158492410Y-82179798D01*
X158488359Y-82176598D01*
X158452028Y-82156542D01*
X158436136Y-82147769D01*
X158292789Y-82068638D01*
X158287920Y-82066914D01*
X158287916Y-82066912D01*
X158087087Y-81995795D01*
X158087083Y-81995794D01*
X158082212Y-81994069D01*
X158077119Y-81993162D01*
X158077116Y-81993161D01*
X157867373Y-81955800D01*
X157867367Y-81955799D01*
X157862284Y-81954894D01*
X157788452Y-81953992D01*
X157644081Y-81952228D01*
X157644079Y-81952228D01*
X157638911Y-81952165D01*
X157418091Y-81985955D01*
X157205756Y-82055357D01*
X157132757Y-82093358D01*
X157022274Y-82150872D01*
X157007607Y-82158507D01*
X157003474Y-82161610D01*
X157003471Y-82161612D01*
X156833100Y-82289530D01*
X156828965Y-82292635D01*
X156825393Y-82296373D01*
X156717729Y-82409037D01*
X156674629Y-82454138D01*
X156567201Y-82611621D01*
X156512293Y-82656621D01*
X156441768Y-82664792D01*
X156378021Y-82633538D01*
X156357324Y-82609054D01*
X156276822Y-82484617D01*
X156276820Y-82484614D01*
X156274014Y-82480277D01*
X156123670Y-82315051D01*
X156119619Y-82311852D01*
X156119615Y-82311848D01*
X155952414Y-82179800D01*
X155952410Y-82179798D01*
X155948359Y-82176598D01*
X155912028Y-82156542D01*
X155896136Y-82147769D01*
X155752789Y-82068638D01*
X155747920Y-82066914D01*
X155747916Y-82066912D01*
X155547087Y-81995795D01*
X155547083Y-81995794D01*
X155542212Y-81994069D01*
X155537119Y-81993162D01*
X155537116Y-81993161D01*
X155327373Y-81955800D01*
X155327367Y-81955799D01*
X155322284Y-81954894D01*
X155248452Y-81953992D01*
X155104081Y-81952228D01*
X155104079Y-81952228D01*
X155098911Y-81952165D01*
X154878091Y-81985955D01*
X154665756Y-82055357D01*
X154592757Y-82093358D01*
X154482274Y-82150872D01*
X154467607Y-82158507D01*
X154463474Y-82161610D01*
X154463471Y-82161612D01*
X154293100Y-82289530D01*
X154288965Y-82292635D01*
X154285393Y-82296373D01*
X154177729Y-82409037D01*
X154134629Y-82454138D01*
X154027201Y-82611621D01*
X153972293Y-82656621D01*
X153901768Y-82664792D01*
X153838021Y-82633538D01*
X153817324Y-82609054D01*
X153736822Y-82484617D01*
X153736820Y-82484614D01*
X153734014Y-82480277D01*
X153583670Y-82315051D01*
X153579619Y-82311852D01*
X153579615Y-82311848D01*
X153412414Y-82179800D01*
X153412410Y-82179798D01*
X153408359Y-82176598D01*
X153372028Y-82156542D01*
X153356136Y-82147769D01*
X153212789Y-82068638D01*
X153207920Y-82066914D01*
X153207916Y-82066912D01*
X153007087Y-81995795D01*
X153007083Y-81995794D01*
X153002212Y-81994069D01*
X152997119Y-81993162D01*
X152997116Y-81993161D01*
X152787373Y-81955800D01*
X152787367Y-81955799D01*
X152782284Y-81954894D01*
X152708452Y-81953992D01*
X152564081Y-81952228D01*
X152564079Y-81952228D01*
X152558911Y-81952165D01*
X152338091Y-81985955D01*
X152125756Y-82055357D01*
X152052757Y-82093358D01*
X151942274Y-82150872D01*
X151927607Y-82158507D01*
X151923474Y-82161610D01*
X151923471Y-82161612D01*
X151753100Y-82289530D01*
X151748965Y-82292635D01*
X151670016Y-82375251D01*
X151668283Y-82377064D01*
X151606759Y-82412494D01*
X151535846Y-82409037D01*
X151478060Y-82367791D01*
X151459207Y-82334243D01*
X151417767Y-82223703D01*
X151414615Y-82215295D01*
X151327261Y-82098739D01*
X151210705Y-82011385D01*
X151074316Y-81960255D01*
X151012134Y-81953500D01*
X149215866Y-81953500D01*
X149153684Y-81960255D01*
X149017295Y-82011385D01*
X148900739Y-82098739D01*
X148813385Y-82215295D01*
X148762255Y-82351684D01*
X148755500Y-82413866D01*
X148755500Y-83033632D01*
X148735498Y-83101753D01*
X148681842Y-83148246D01*
X148611568Y-83158350D01*
X148547672Y-83129168D01*
X148547472Y-83128893D01*
X148529574Y-83114086D01*
X148489836Y-83055255D01*
X148484579Y-83030172D01*
X148468232Y-82874635D01*
X148468232Y-82874633D01*
X148467542Y-82868072D01*
X148408527Y-82686444D01*
X148400529Y-82672590D01*
X148316341Y-82526774D01*
X148313040Y-82521056D01*
X148280509Y-82484926D01*
X148189675Y-82384045D01*
X148189674Y-82384044D01*
X148185253Y-82379134D01*
X148030752Y-82266882D01*
X148024724Y-82264198D01*
X148024722Y-82264197D01*
X147862319Y-82191891D01*
X147862318Y-82191891D01*
X147856288Y-82189206D01*
X147762888Y-82169353D01*
X147675944Y-82150872D01*
X147675939Y-82150872D01*
X147669487Y-82149500D01*
X147478513Y-82149500D01*
X147472061Y-82150872D01*
X147472056Y-82150872D01*
X147385112Y-82169353D01*
X147291712Y-82189206D01*
X147285682Y-82191891D01*
X147285681Y-82191891D01*
X147123278Y-82264197D01*
X147123276Y-82264198D01*
X147117248Y-82266882D01*
X146962747Y-82379134D01*
X146958326Y-82384044D01*
X146958325Y-82384045D01*
X146867492Y-82484926D01*
X146834960Y-82521056D01*
X146831659Y-82526774D01*
X146747472Y-82672590D01*
X146739473Y-82686444D01*
X146680458Y-82868072D01*
X146679768Y-82874633D01*
X146679768Y-82874635D01*
X146663421Y-83030172D01*
X146660496Y-83058000D01*
X146370975Y-83058000D01*
X146324431Y-82872702D01*
X146235354Y-82667840D01*
X146114014Y-82480277D01*
X145963670Y-82315051D01*
X145959619Y-82311852D01*
X145959615Y-82311848D01*
X145792414Y-82179800D01*
X145792410Y-82179798D01*
X145788359Y-82176598D01*
X145752028Y-82156542D01*
X145736136Y-82147769D01*
X145592789Y-82068638D01*
X145587920Y-82066914D01*
X145587916Y-82066912D01*
X145387087Y-81995795D01*
X145387083Y-81995794D01*
X145382212Y-81994069D01*
X145377119Y-81993162D01*
X145377116Y-81993161D01*
X145167373Y-81955800D01*
X145167367Y-81955799D01*
X145162284Y-81954894D01*
X145088452Y-81953992D01*
X144944081Y-81952228D01*
X144944079Y-81952228D01*
X144938911Y-81952165D01*
X144718091Y-81985955D01*
X144505756Y-82055357D01*
X144432757Y-82093358D01*
X144322274Y-82150872D01*
X144307607Y-82158507D01*
X144303474Y-82161610D01*
X144303471Y-82161612D01*
X144133100Y-82289530D01*
X144128965Y-82292635D01*
X144125393Y-82296373D01*
X144017729Y-82409037D01*
X143974629Y-82454138D01*
X143867201Y-82611621D01*
X143812293Y-82656621D01*
X143741768Y-82664792D01*
X143678021Y-82633538D01*
X143657324Y-82609054D01*
X143576822Y-82484617D01*
X143576820Y-82484614D01*
X143574014Y-82480277D01*
X143423670Y-82315051D01*
X143419619Y-82311852D01*
X143419615Y-82311848D01*
X143252414Y-82179800D01*
X143252410Y-82179798D01*
X143248359Y-82176598D01*
X143212028Y-82156542D01*
X143196136Y-82147769D01*
X143052789Y-82068638D01*
X143047920Y-82066914D01*
X143047916Y-82066912D01*
X142847087Y-81995795D01*
X142847083Y-81995794D01*
X142842212Y-81994069D01*
X142837119Y-81993162D01*
X142837116Y-81993161D01*
X142627373Y-81955800D01*
X142627367Y-81955799D01*
X142622284Y-81954894D01*
X142548452Y-81953992D01*
X142404081Y-81952228D01*
X142404079Y-81952228D01*
X142398911Y-81952165D01*
X142178091Y-81985955D01*
X141965756Y-82055357D01*
X141892757Y-82093358D01*
X141782274Y-82150872D01*
X141767607Y-82158507D01*
X141763474Y-82161610D01*
X141763471Y-82161612D01*
X141593100Y-82289530D01*
X141588965Y-82292635D01*
X141585393Y-82296373D01*
X141477729Y-82409037D01*
X141434629Y-82454138D01*
X141327201Y-82611621D01*
X141272293Y-82656621D01*
X141201768Y-82664792D01*
X141138021Y-82633538D01*
X141117324Y-82609054D01*
X141036822Y-82484617D01*
X141036820Y-82484614D01*
X141034014Y-82480277D01*
X140883670Y-82315051D01*
X140879619Y-82311852D01*
X140879615Y-82311848D01*
X140712414Y-82179800D01*
X140712410Y-82179798D01*
X140708359Y-82176598D01*
X140672028Y-82156542D01*
X140656136Y-82147769D01*
X140512789Y-82068638D01*
X140507920Y-82066914D01*
X140507916Y-82066912D01*
X140307087Y-81995795D01*
X140307083Y-81995794D01*
X140302212Y-81994069D01*
X140297119Y-81993162D01*
X140297116Y-81993161D01*
X140087373Y-81955800D01*
X140087367Y-81955799D01*
X140082284Y-81954894D01*
X140008452Y-81953992D01*
X139864081Y-81952228D01*
X139864079Y-81952228D01*
X139858911Y-81952165D01*
X139638091Y-81985955D01*
X139425756Y-82055357D01*
X139352757Y-82093358D01*
X139242274Y-82150872D01*
X139227607Y-82158507D01*
X139223474Y-82161610D01*
X139223471Y-82161612D01*
X139053100Y-82289530D01*
X139048965Y-82292635D01*
X138970016Y-82375251D01*
X138968283Y-82377064D01*
X138906759Y-82412494D01*
X138835846Y-82409037D01*
X138778060Y-82367791D01*
X138759207Y-82334243D01*
X138717767Y-82223703D01*
X138714615Y-82215295D01*
X138627261Y-82098739D01*
X138510705Y-82011385D01*
X138374316Y-81960255D01*
X138312134Y-81953500D01*
X136515866Y-81953500D01*
X136453684Y-81960255D01*
X136317295Y-82011385D01*
X136200739Y-82098739D01*
X136113385Y-82215295D01*
X136062255Y-82351684D01*
X136055500Y-82413866D01*
X136055500Y-84210134D01*
X133356690Y-84210134D01*
X133368052Y-84198812D01*
X133374730Y-84190965D01*
X133499003Y-84018020D01*
X133504313Y-84009183D01*
X133598670Y-83818267D01*
X133602469Y-83808672D01*
X133664377Y-83604910D01*
X133666555Y-83594837D01*
X133667986Y-83583962D01*
X133665775Y-83569778D01*
X133652617Y-83566000D01*
X132606115Y-83566000D01*
X132590876Y-83570475D01*
X132589671Y-83571865D01*
X132588000Y-83579548D01*
X132588000Y-84630517D01*
X132080000Y-84630517D01*
X132080000Y-83039885D01*
X132588000Y-83039885D01*
X132592475Y-83055124D01*
X132593865Y-83056329D01*
X132601548Y-83058000D01*
X133652344Y-83058000D01*
X133665875Y-83054027D01*
X133667180Y-83044947D01*
X133625214Y-82877875D01*
X133621894Y-82868124D01*
X133536972Y-82672814D01*
X133532105Y-82663739D01*
X133416426Y-82484926D01*
X133410136Y-82476757D01*
X133266806Y-82319240D01*
X133259273Y-82312215D01*
X133092139Y-82180222D01*
X133083552Y-82174517D01*
X132897117Y-82071599D01*
X132887705Y-82067369D01*
X132686959Y-81996280D01*
X132676988Y-81993646D01*
X132605837Y-81980972D01*
X132592540Y-81982432D01*
X132588000Y-81996989D01*
X132588000Y-83039885D01*
X132080000Y-83039885D01*
X132080000Y-81995102D01*
X132076082Y-81981758D01*
X132061806Y-81979771D01*
X132023324Y-81985660D01*
X132013288Y-81988051D01*
X131810868Y-82054212D01*
X131801359Y-82058209D01*
X131612463Y-82156542D01*
X131603738Y-82162036D01*
X131433433Y-82289905D01*
X131425726Y-82296748D01*
X131348478Y-82377584D01*
X131286954Y-82413014D01*
X131216042Y-82409557D01*
X131158255Y-82368311D01*
X131139402Y-82334763D01*
X131097767Y-82223703D01*
X131094615Y-82215295D01*
X131007261Y-82098739D01*
X130890705Y-82011385D01*
X130754316Y-81960255D01*
X130692134Y-81953500D01*
X128895866Y-81953500D01*
X128833684Y-81960255D01*
X128697295Y-82011385D01*
X128580739Y-82098739D01*
X128493385Y-82215295D01*
X128442255Y-82351684D01*
X128435500Y-82413866D01*
X128435500Y-84210134D01*
X128016000Y-84210134D01*
X128016000Y-81660000D01*
X128036002Y-81591879D01*
X128089658Y-81545386D01*
X128142000Y-81534000D01*
X159640000Y-81534000D01*
X159708121Y-81554002D01*
G37*
%TD.AperFunction*%
%TD*%
M02*
