%TF.GenerationSoftware,KiCad,Pcbnew,(5.1.10-1-10_14)*%
%TF.CreationDate,2021-11-29T15:29:07-05:00*%
%TF.ProjectId,FULL-assembly-backplane,46554c4c-2d61-4737-9365-6d626c792d62,rev?*%
%TF.SameCoordinates,Original*%
%TF.FileFunction,Paste,Top*%
%TF.FilePolarity,Positive*%
%FSLAX46Y46*%
G04 Gerber Fmt 4.6, Leading zero omitted, Abs format (unit mm)*
G04 Created by KiCad (PCBNEW (5.1.10-1-10_14)) date 2021-11-29 15:29:07*
%MOMM*%
%LPD*%
G01*
G04 APERTURE LIST*
G04 APERTURE END LIST*
%TO.C,R24*%
G36*
G01*
X195129998Y-7258000D02*
X196030002Y-7258000D01*
G75*
G02*
X196280000Y-7507998I0J-249998D01*
G01*
X196280000Y-8033002D01*
G75*
G02*
X196030002Y-8283000I-249998J0D01*
G01*
X195129998Y-8283000D01*
G75*
G02*
X194880000Y-8033002I0J249998D01*
G01*
X194880000Y-7507998D01*
G75*
G02*
X195129998Y-7258000I249998J0D01*
G01*
G37*
G36*
G01*
X195129998Y-5433000D02*
X196030002Y-5433000D01*
G75*
G02*
X196280000Y-5682998I0J-249998D01*
G01*
X196280000Y-6208002D01*
G75*
G02*
X196030002Y-6458000I-249998J0D01*
G01*
X195129998Y-6458000D01*
G75*
G02*
X194880000Y-6208002I0J249998D01*
G01*
X194880000Y-5682998D01*
G75*
G02*
X195129998Y-5433000I249998J0D01*
G01*
G37*
%TD*%
%TO.C,R23*%
G36*
G01*
X192589998Y-7258000D02*
X193490002Y-7258000D01*
G75*
G02*
X193740000Y-7507998I0J-249998D01*
G01*
X193740000Y-8033002D01*
G75*
G02*
X193490002Y-8283000I-249998J0D01*
G01*
X192589998Y-8283000D01*
G75*
G02*
X192340000Y-8033002I0J249998D01*
G01*
X192340000Y-7507998D01*
G75*
G02*
X192589998Y-7258000I249998J0D01*
G01*
G37*
G36*
G01*
X192589998Y-5433000D02*
X193490002Y-5433000D01*
G75*
G02*
X193740000Y-5682998I0J-249998D01*
G01*
X193740000Y-6208002D01*
G75*
G02*
X193490002Y-6458000I-249998J0D01*
G01*
X192589998Y-6458000D01*
G75*
G02*
X192340000Y-6208002I0J249998D01*
G01*
X192340000Y-5682998D01*
G75*
G02*
X192589998Y-5433000I249998J0D01*
G01*
G37*
%TD*%
%TO.C,R22*%
G36*
G01*
X190049998Y-7258000D02*
X190950002Y-7258000D01*
G75*
G02*
X191200000Y-7507998I0J-249998D01*
G01*
X191200000Y-8033002D01*
G75*
G02*
X190950002Y-8283000I-249998J0D01*
G01*
X190049998Y-8283000D01*
G75*
G02*
X189800000Y-8033002I0J249998D01*
G01*
X189800000Y-7507998D01*
G75*
G02*
X190049998Y-7258000I249998J0D01*
G01*
G37*
G36*
G01*
X190049998Y-5433000D02*
X190950002Y-5433000D01*
G75*
G02*
X191200000Y-5682998I0J-249998D01*
G01*
X191200000Y-6208002D01*
G75*
G02*
X190950002Y-6458000I-249998J0D01*
G01*
X190049998Y-6458000D01*
G75*
G02*
X189800000Y-6208002I0J249998D01*
G01*
X189800000Y-5682998D01*
G75*
G02*
X190049998Y-5433000I249998J0D01*
G01*
G37*
%TD*%
%TO.C,R21*%
G36*
G01*
X187509998Y-7258000D02*
X188410002Y-7258000D01*
G75*
G02*
X188660000Y-7507998I0J-249998D01*
G01*
X188660000Y-8033002D01*
G75*
G02*
X188410002Y-8283000I-249998J0D01*
G01*
X187509998Y-8283000D01*
G75*
G02*
X187260000Y-8033002I0J249998D01*
G01*
X187260000Y-7507998D01*
G75*
G02*
X187509998Y-7258000I249998J0D01*
G01*
G37*
G36*
G01*
X187509998Y-5433000D02*
X188410002Y-5433000D01*
G75*
G02*
X188660000Y-5682998I0J-249998D01*
G01*
X188660000Y-6208002D01*
G75*
G02*
X188410002Y-6458000I-249998J0D01*
G01*
X187509998Y-6458000D01*
G75*
G02*
X187260000Y-6208002I0J249998D01*
G01*
X187260000Y-5682998D01*
G75*
G02*
X187509998Y-5433000I249998J0D01*
G01*
G37*
%TD*%
%TO.C,R20*%
G36*
G01*
X184969998Y-7258000D02*
X185870002Y-7258000D01*
G75*
G02*
X186120000Y-7507998I0J-249998D01*
G01*
X186120000Y-8033002D01*
G75*
G02*
X185870002Y-8283000I-249998J0D01*
G01*
X184969998Y-8283000D01*
G75*
G02*
X184720000Y-8033002I0J249998D01*
G01*
X184720000Y-7507998D01*
G75*
G02*
X184969998Y-7258000I249998J0D01*
G01*
G37*
G36*
G01*
X184969998Y-5433000D02*
X185870002Y-5433000D01*
G75*
G02*
X186120000Y-5682998I0J-249998D01*
G01*
X186120000Y-6208002D01*
G75*
G02*
X185870002Y-6458000I-249998J0D01*
G01*
X184969998Y-6458000D01*
G75*
G02*
X184720000Y-6208002I0J249998D01*
G01*
X184720000Y-5682998D01*
G75*
G02*
X184969998Y-5433000I249998J0D01*
G01*
G37*
%TD*%
%TO.C,R19*%
G36*
G01*
X182429998Y-7258000D02*
X183330002Y-7258000D01*
G75*
G02*
X183580000Y-7507998I0J-249998D01*
G01*
X183580000Y-8033002D01*
G75*
G02*
X183330002Y-8283000I-249998J0D01*
G01*
X182429998Y-8283000D01*
G75*
G02*
X182180000Y-8033002I0J249998D01*
G01*
X182180000Y-7507998D01*
G75*
G02*
X182429998Y-7258000I249998J0D01*
G01*
G37*
G36*
G01*
X182429998Y-5433000D02*
X183330002Y-5433000D01*
G75*
G02*
X183580000Y-5682998I0J-249998D01*
G01*
X183580000Y-6208002D01*
G75*
G02*
X183330002Y-6458000I-249998J0D01*
G01*
X182429998Y-6458000D01*
G75*
G02*
X182180000Y-6208002I0J249998D01*
G01*
X182180000Y-5682998D01*
G75*
G02*
X182429998Y-5433000I249998J0D01*
G01*
G37*
%TD*%
%TO.C,R18*%
G36*
G01*
X179889998Y-7258000D02*
X180790002Y-7258000D01*
G75*
G02*
X181040000Y-7507998I0J-249998D01*
G01*
X181040000Y-8033002D01*
G75*
G02*
X180790002Y-8283000I-249998J0D01*
G01*
X179889998Y-8283000D01*
G75*
G02*
X179640000Y-8033002I0J249998D01*
G01*
X179640000Y-7507998D01*
G75*
G02*
X179889998Y-7258000I249998J0D01*
G01*
G37*
G36*
G01*
X179889998Y-5433000D02*
X180790002Y-5433000D01*
G75*
G02*
X181040000Y-5682998I0J-249998D01*
G01*
X181040000Y-6208002D01*
G75*
G02*
X180790002Y-6458000I-249998J0D01*
G01*
X179889998Y-6458000D01*
G75*
G02*
X179640000Y-6208002I0J249998D01*
G01*
X179640000Y-5682998D01*
G75*
G02*
X179889998Y-5433000I249998J0D01*
G01*
G37*
%TD*%
%TO.C,R17*%
G36*
G01*
X177349998Y-7258000D02*
X178250002Y-7258000D01*
G75*
G02*
X178500000Y-7507998I0J-249998D01*
G01*
X178500000Y-8033002D01*
G75*
G02*
X178250002Y-8283000I-249998J0D01*
G01*
X177349998Y-8283000D01*
G75*
G02*
X177100000Y-8033002I0J249998D01*
G01*
X177100000Y-7507998D01*
G75*
G02*
X177349998Y-7258000I249998J0D01*
G01*
G37*
G36*
G01*
X177349998Y-5433000D02*
X178250002Y-5433000D01*
G75*
G02*
X178500000Y-5682998I0J-249998D01*
G01*
X178500000Y-6208002D01*
G75*
G02*
X178250002Y-6458000I-249998J0D01*
G01*
X177349998Y-6458000D01*
G75*
G02*
X177100000Y-6208002I0J249998D01*
G01*
X177100000Y-5682998D01*
G75*
G02*
X177349998Y-5433000I249998J0D01*
G01*
G37*
%TD*%
%TO.C,R16*%
G36*
G01*
X174809998Y-7258000D02*
X175710002Y-7258000D01*
G75*
G02*
X175960000Y-7507998I0J-249998D01*
G01*
X175960000Y-8033002D01*
G75*
G02*
X175710002Y-8283000I-249998J0D01*
G01*
X174809998Y-8283000D01*
G75*
G02*
X174560000Y-8033002I0J249998D01*
G01*
X174560000Y-7507998D01*
G75*
G02*
X174809998Y-7258000I249998J0D01*
G01*
G37*
G36*
G01*
X174809998Y-5433000D02*
X175710002Y-5433000D01*
G75*
G02*
X175960000Y-5682998I0J-249998D01*
G01*
X175960000Y-6208002D01*
G75*
G02*
X175710002Y-6458000I-249998J0D01*
G01*
X174809998Y-6458000D01*
G75*
G02*
X174560000Y-6208002I0J249998D01*
G01*
X174560000Y-5682998D01*
G75*
G02*
X174809998Y-5433000I249998J0D01*
G01*
G37*
%TD*%
%TO.C,R15*%
G36*
G01*
X172269998Y-7258000D02*
X173170002Y-7258000D01*
G75*
G02*
X173420000Y-7507998I0J-249998D01*
G01*
X173420000Y-8033002D01*
G75*
G02*
X173170002Y-8283000I-249998J0D01*
G01*
X172269998Y-8283000D01*
G75*
G02*
X172020000Y-8033002I0J249998D01*
G01*
X172020000Y-7507998D01*
G75*
G02*
X172269998Y-7258000I249998J0D01*
G01*
G37*
G36*
G01*
X172269998Y-5433000D02*
X173170002Y-5433000D01*
G75*
G02*
X173420000Y-5682998I0J-249998D01*
G01*
X173420000Y-6208002D01*
G75*
G02*
X173170002Y-6458000I-249998J0D01*
G01*
X172269998Y-6458000D01*
G75*
G02*
X172020000Y-6208002I0J249998D01*
G01*
X172020000Y-5682998D01*
G75*
G02*
X172269998Y-5433000I249998J0D01*
G01*
G37*
%TD*%
%TO.C,R14*%
G36*
G01*
X169729998Y-7258000D02*
X170630002Y-7258000D01*
G75*
G02*
X170880000Y-7507998I0J-249998D01*
G01*
X170880000Y-8033002D01*
G75*
G02*
X170630002Y-8283000I-249998J0D01*
G01*
X169729998Y-8283000D01*
G75*
G02*
X169480000Y-8033002I0J249998D01*
G01*
X169480000Y-7507998D01*
G75*
G02*
X169729998Y-7258000I249998J0D01*
G01*
G37*
G36*
G01*
X169729998Y-5433000D02*
X170630002Y-5433000D01*
G75*
G02*
X170880000Y-5682998I0J-249998D01*
G01*
X170880000Y-6208002D01*
G75*
G02*
X170630002Y-6458000I-249998J0D01*
G01*
X169729998Y-6458000D01*
G75*
G02*
X169480000Y-6208002I0J249998D01*
G01*
X169480000Y-5682998D01*
G75*
G02*
X169729998Y-5433000I249998J0D01*
G01*
G37*
%TD*%
%TO.C,R13*%
G36*
G01*
X167189998Y-7258000D02*
X168090002Y-7258000D01*
G75*
G02*
X168340000Y-7507998I0J-249998D01*
G01*
X168340000Y-8033002D01*
G75*
G02*
X168090002Y-8283000I-249998J0D01*
G01*
X167189998Y-8283000D01*
G75*
G02*
X166940000Y-8033002I0J249998D01*
G01*
X166940000Y-7507998D01*
G75*
G02*
X167189998Y-7258000I249998J0D01*
G01*
G37*
G36*
G01*
X167189998Y-5433000D02*
X168090002Y-5433000D01*
G75*
G02*
X168340000Y-5682998I0J-249998D01*
G01*
X168340000Y-6208002D01*
G75*
G02*
X168090002Y-6458000I-249998J0D01*
G01*
X167189998Y-6458000D01*
G75*
G02*
X166940000Y-6208002I0J249998D01*
G01*
X166940000Y-5682998D01*
G75*
G02*
X167189998Y-5433000I249998J0D01*
G01*
G37*
%TD*%
%TO.C,R12*%
G36*
G01*
X164649998Y-7258000D02*
X165550002Y-7258000D01*
G75*
G02*
X165800000Y-7507998I0J-249998D01*
G01*
X165800000Y-8033002D01*
G75*
G02*
X165550002Y-8283000I-249998J0D01*
G01*
X164649998Y-8283000D01*
G75*
G02*
X164400000Y-8033002I0J249998D01*
G01*
X164400000Y-7507998D01*
G75*
G02*
X164649998Y-7258000I249998J0D01*
G01*
G37*
G36*
G01*
X164649998Y-5433000D02*
X165550002Y-5433000D01*
G75*
G02*
X165800000Y-5682998I0J-249998D01*
G01*
X165800000Y-6208002D01*
G75*
G02*
X165550002Y-6458000I-249998J0D01*
G01*
X164649998Y-6458000D01*
G75*
G02*
X164400000Y-6208002I0J249998D01*
G01*
X164400000Y-5682998D01*
G75*
G02*
X164649998Y-5433000I249998J0D01*
G01*
G37*
%TD*%
%TO.C,R11*%
G36*
G01*
X162109998Y-7258000D02*
X163010002Y-7258000D01*
G75*
G02*
X163260000Y-7507998I0J-249998D01*
G01*
X163260000Y-8033002D01*
G75*
G02*
X163010002Y-8283000I-249998J0D01*
G01*
X162109998Y-8283000D01*
G75*
G02*
X161860000Y-8033002I0J249998D01*
G01*
X161860000Y-7507998D01*
G75*
G02*
X162109998Y-7258000I249998J0D01*
G01*
G37*
G36*
G01*
X162109998Y-5433000D02*
X163010002Y-5433000D01*
G75*
G02*
X163260000Y-5682998I0J-249998D01*
G01*
X163260000Y-6208002D01*
G75*
G02*
X163010002Y-6458000I-249998J0D01*
G01*
X162109998Y-6458000D01*
G75*
G02*
X161860000Y-6208002I0J249998D01*
G01*
X161860000Y-5682998D01*
G75*
G02*
X162109998Y-5433000I249998J0D01*
G01*
G37*
%TD*%
%TO.C,R10*%
G36*
G01*
X159569998Y-7258000D02*
X160470002Y-7258000D01*
G75*
G02*
X160720000Y-7507998I0J-249998D01*
G01*
X160720000Y-8033002D01*
G75*
G02*
X160470002Y-8283000I-249998J0D01*
G01*
X159569998Y-8283000D01*
G75*
G02*
X159320000Y-8033002I0J249998D01*
G01*
X159320000Y-7507998D01*
G75*
G02*
X159569998Y-7258000I249998J0D01*
G01*
G37*
G36*
G01*
X159569998Y-5433000D02*
X160470002Y-5433000D01*
G75*
G02*
X160720000Y-5682998I0J-249998D01*
G01*
X160720000Y-6208002D01*
G75*
G02*
X160470002Y-6458000I-249998J0D01*
G01*
X159569998Y-6458000D01*
G75*
G02*
X159320000Y-6208002I0J249998D01*
G01*
X159320000Y-5682998D01*
G75*
G02*
X159569998Y-5433000I249998J0D01*
G01*
G37*
%TD*%
%TO.C,R9*%
G36*
G01*
X157029998Y-7258000D02*
X157930002Y-7258000D01*
G75*
G02*
X158180000Y-7507998I0J-249998D01*
G01*
X158180000Y-8033002D01*
G75*
G02*
X157930002Y-8283000I-249998J0D01*
G01*
X157029998Y-8283000D01*
G75*
G02*
X156780000Y-8033002I0J249998D01*
G01*
X156780000Y-7507998D01*
G75*
G02*
X157029998Y-7258000I249998J0D01*
G01*
G37*
G36*
G01*
X157029998Y-5433000D02*
X157930002Y-5433000D01*
G75*
G02*
X158180000Y-5682998I0J-249998D01*
G01*
X158180000Y-6208002D01*
G75*
G02*
X157930002Y-6458000I-249998J0D01*
G01*
X157029998Y-6458000D01*
G75*
G02*
X156780000Y-6208002I0J249998D01*
G01*
X156780000Y-5682998D01*
G75*
G02*
X157029998Y-5433000I249998J0D01*
G01*
G37*
%TD*%
%TO.C,D24*%
G36*
G01*
X196036250Y-2598000D02*
X195123750Y-2598000D01*
G75*
G02*
X194880000Y-2354250I0J243750D01*
G01*
X194880000Y-1866750D01*
G75*
G02*
X195123750Y-1623000I243750J0D01*
G01*
X196036250Y-1623000D01*
G75*
G02*
X196280000Y-1866750I0J-243750D01*
G01*
X196280000Y-2354250D01*
G75*
G02*
X196036250Y-2598000I-243750J0D01*
G01*
G37*
G36*
G01*
X196036250Y-4473000D02*
X195123750Y-4473000D01*
G75*
G02*
X194880000Y-4229250I0J243750D01*
G01*
X194880000Y-3741750D01*
G75*
G02*
X195123750Y-3498000I243750J0D01*
G01*
X196036250Y-3498000D01*
G75*
G02*
X196280000Y-3741750I0J-243750D01*
G01*
X196280000Y-4229250D01*
G75*
G02*
X196036250Y-4473000I-243750J0D01*
G01*
G37*
%TD*%
%TO.C,D23*%
G36*
G01*
X193496250Y-2598000D02*
X192583750Y-2598000D01*
G75*
G02*
X192340000Y-2354250I0J243750D01*
G01*
X192340000Y-1866750D01*
G75*
G02*
X192583750Y-1623000I243750J0D01*
G01*
X193496250Y-1623000D01*
G75*
G02*
X193740000Y-1866750I0J-243750D01*
G01*
X193740000Y-2354250D01*
G75*
G02*
X193496250Y-2598000I-243750J0D01*
G01*
G37*
G36*
G01*
X193496250Y-4473000D02*
X192583750Y-4473000D01*
G75*
G02*
X192340000Y-4229250I0J243750D01*
G01*
X192340000Y-3741750D01*
G75*
G02*
X192583750Y-3498000I243750J0D01*
G01*
X193496250Y-3498000D01*
G75*
G02*
X193740000Y-3741750I0J-243750D01*
G01*
X193740000Y-4229250D01*
G75*
G02*
X193496250Y-4473000I-243750J0D01*
G01*
G37*
%TD*%
%TO.C,D22*%
G36*
G01*
X190956250Y-2598000D02*
X190043750Y-2598000D01*
G75*
G02*
X189800000Y-2354250I0J243750D01*
G01*
X189800000Y-1866750D01*
G75*
G02*
X190043750Y-1623000I243750J0D01*
G01*
X190956250Y-1623000D01*
G75*
G02*
X191200000Y-1866750I0J-243750D01*
G01*
X191200000Y-2354250D01*
G75*
G02*
X190956250Y-2598000I-243750J0D01*
G01*
G37*
G36*
G01*
X190956250Y-4473000D02*
X190043750Y-4473000D01*
G75*
G02*
X189800000Y-4229250I0J243750D01*
G01*
X189800000Y-3741750D01*
G75*
G02*
X190043750Y-3498000I243750J0D01*
G01*
X190956250Y-3498000D01*
G75*
G02*
X191200000Y-3741750I0J-243750D01*
G01*
X191200000Y-4229250D01*
G75*
G02*
X190956250Y-4473000I-243750J0D01*
G01*
G37*
%TD*%
%TO.C,D21*%
G36*
G01*
X188416250Y-2598000D02*
X187503750Y-2598000D01*
G75*
G02*
X187260000Y-2354250I0J243750D01*
G01*
X187260000Y-1866750D01*
G75*
G02*
X187503750Y-1623000I243750J0D01*
G01*
X188416250Y-1623000D01*
G75*
G02*
X188660000Y-1866750I0J-243750D01*
G01*
X188660000Y-2354250D01*
G75*
G02*
X188416250Y-2598000I-243750J0D01*
G01*
G37*
G36*
G01*
X188416250Y-4473000D02*
X187503750Y-4473000D01*
G75*
G02*
X187260000Y-4229250I0J243750D01*
G01*
X187260000Y-3741750D01*
G75*
G02*
X187503750Y-3498000I243750J0D01*
G01*
X188416250Y-3498000D01*
G75*
G02*
X188660000Y-3741750I0J-243750D01*
G01*
X188660000Y-4229250D01*
G75*
G02*
X188416250Y-4473000I-243750J0D01*
G01*
G37*
%TD*%
%TO.C,D20*%
G36*
G01*
X185876250Y-2598000D02*
X184963750Y-2598000D01*
G75*
G02*
X184720000Y-2354250I0J243750D01*
G01*
X184720000Y-1866750D01*
G75*
G02*
X184963750Y-1623000I243750J0D01*
G01*
X185876250Y-1623000D01*
G75*
G02*
X186120000Y-1866750I0J-243750D01*
G01*
X186120000Y-2354250D01*
G75*
G02*
X185876250Y-2598000I-243750J0D01*
G01*
G37*
G36*
G01*
X185876250Y-4473000D02*
X184963750Y-4473000D01*
G75*
G02*
X184720000Y-4229250I0J243750D01*
G01*
X184720000Y-3741750D01*
G75*
G02*
X184963750Y-3498000I243750J0D01*
G01*
X185876250Y-3498000D01*
G75*
G02*
X186120000Y-3741750I0J-243750D01*
G01*
X186120000Y-4229250D01*
G75*
G02*
X185876250Y-4473000I-243750J0D01*
G01*
G37*
%TD*%
%TO.C,D19*%
G36*
G01*
X183336250Y-2598000D02*
X182423750Y-2598000D01*
G75*
G02*
X182180000Y-2354250I0J243750D01*
G01*
X182180000Y-1866750D01*
G75*
G02*
X182423750Y-1623000I243750J0D01*
G01*
X183336250Y-1623000D01*
G75*
G02*
X183580000Y-1866750I0J-243750D01*
G01*
X183580000Y-2354250D01*
G75*
G02*
X183336250Y-2598000I-243750J0D01*
G01*
G37*
G36*
G01*
X183336250Y-4473000D02*
X182423750Y-4473000D01*
G75*
G02*
X182180000Y-4229250I0J243750D01*
G01*
X182180000Y-3741750D01*
G75*
G02*
X182423750Y-3498000I243750J0D01*
G01*
X183336250Y-3498000D01*
G75*
G02*
X183580000Y-3741750I0J-243750D01*
G01*
X183580000Y-4229250D01*
G75*
G02*
X183336250Y-4473000I-243750J0D01*
G01*
G37*
%TD*%
%TO.C,D18*%
G36*
G01*
X180796250Y-2598000D02*
X179883750Y-2598000D01*
G75*
G02*
X179640000Y-2354250I0J243750D01*
G01*
X179640000Y-1866750D01*
G75*
G02*
X179883750Y-1623000I243750J0D01*
G01*
X180796250Y-1623000D01*
G75*
G02*
X181040000Y-1866750I0J-243750D01*
G01*
X181040000Y-2354250D01*
G75*
G02*
X180796250Y-2598000I-243750J0D01*
G01*
G37*
G36*
G01*
X180796250Y-4473000D02*
X179883750Y-4473000D01*
G75*
G02*
X179640000Y-4229250I0J243750D01*
G01*
X179640000Y-3741750D01*
G75*
G02*
X179883750Y-3498000I243750J0D01*
G01*
X180796250Y-3498000D01*
G75*
G02*
X181040000Y-3741750I0J-243750D01*
G01*
X181040000Y-4229250D01*
G75*
G02*
X180796250Y-4473000I-243750J0D01*
G01*
G37*
%TD*%
%TO.C,D17*%
G36*
G01*
X178256250Y-2598000D02*
X177343750Y-2598000D01*
G75*
G02*
X177100000Y-2354250I0J243750D01*
G01*
X177100000Y-1866750D01*
G75*
G02*
X177343750Y-1623000I243750J0D01*
G01*
X178256250Y-1623000D01*
G75*
G02*
X178500000Y-1866750I0J-243750D01*
G01*
X178500000Y-2354250D01*
G75*
G02*
X178256250Y-2598000I-243750J0D01*
G01*
G37*
G36*
G01*
X178256250Y-4473000D02*
X177343750Y-4473000D01*
G75*
G02*
X177100000Y-4229250I0J243750D01*
G01*
X177100000Y-3741750D01*
G75*
G02*
X177343750Y-3498000I243750J0D01*
G01*
X178256250Y-3498000D01*
G75*
G02*
X178500000Y-3741750I0J-243750D01*
G01*
X178500000Y-4229250D01*
G75*
G02*
X178256250Y-4473000I-243750J0D01*
G01*
G37*
%TD*%
%TO.C,D16*%
G36*
G01*
X175716250Y-2598000D02*
X174803750Y-2598000D01*
G75*
G02*
X174560000Y-2354250I0J243750D01*
G01*
X174560000Y-1866750D01*
G75*
G02*
X174803750Y-1623000I243750J0D01*
G01*
X175716250Y-1623000D01*
G75*
G02*
X175960000Y-1866750I0J-243750D01*
G01*
X175960000Y-2354250D01*
G75*
G02*
X175716250Y-2598000I-243750J0D01*
G01*
G37*
G36*
G01*
X175716250Y-4473000D02*
X174803750Y-4473000D01*
G75*
G02*
X174560000Y-4229250I0J243750D01*
G01*
X174560000Y-3741750D01*
G75*
G02*
X174803750Y-3498000I243750J0D01*
G01*
X175716250Y-3498000D01*
G75*
G02*
X175960000Y-3741750I0J-243750D01*
G01*
X175960000Y-4229250D01*
G75*
G02*
X175716250Y-4473000I-243750J0D01*
G01*
G37*
%TD*%
%TO.C,D15*%
G36*
G01*
X173176250Y-2598000D02*
X172263750Y-2598000D01*
G75*
G02*
X172020000Y-2354250I0J243750D01*
G01*
X172020000Y-1866750D01*
G75*
G02*
X172263750Y-1623000I243750J0D01*
G01*
X173176250Y-1623000D01*
G75*
G02*
X173420000Y-1866750I0J-243750D01*
G01*
X173420000Y-2354250D01*
G75*
G02*
X173176250Y-2598000I-243750J0D01*
G01*
G37*
G36*
G01*
X173176250Y-4473000D02*
X172263750Y-4473000D01*
G75*
G02*
X172020000Y-4229250I0J243750D01*
G01*
X172020000Y-3741750D01*
G75*
G02*
X172263750Y-3498000I243750J0D01*
G01*
X173176250Y-3498000D01*
G75*
G02*
X173420000Y-3741750I0J-243750D01*
G01*
X173420000Y-4229250D01*
G75*
G02*
X173176250Y-4473000I-243750J0D01*
G01*
G37*
%TD*%
%TO.C,D14*%
G36*
G01*
X170636250Y-2598000D02*
X169723750Y-2598000D01*
G75*
G02*
X169480000Y-2354250I0J243750D01*
G01*
X169480000Y-1866750D01*
G75*
G02*
X169723750Y-1623000I243750J0D01*
G01*
X170636250Y-1623000D01*
G75*
G02*
X170880000Y-1866750I0J-243750D01*
G01*
X170880000Y-2354250D01*
G75*
G02*
X170636250Y-2598000I-243750J0D01*
G01*
G37*
G36*
G01*
X170636250Y-4473000D02*
X169723750Y-4473000D01*
G75*
G02*
X169480000Y-4229250I0J243750D01*
G01*
X169480000Y-3741750D01*
G75*
G02*
X169723750Y-3498000I243750J0D01*
G01*
X170636250Y-3498000D01*
G75*
G02*
X170880000Y-3741750I0J-243750D01*
G01*
X170880000Y-4229250D01*
G75*
G02*
X170636250Y-4473000I-243750J0D01*
G01*
G37*
%TD*%
%TO.C,D13*%
G36*
G01*
X168096250Y-2598000D02*
X167183750Y-2598000D01*
G75*
G02*
X166940000Y-2354250I0J243750D01*
G01*
X166940000Y-1866750D01*
G75*
G02*
X167183750Y-1623000I243750J0D01*
G01*
X168096250Y-1623000D01*
G75*
G02*
X168340000Y-1866750I0J-243750D01*
G01*
X168340000Y-2354250D01*
G75*
G02*
X168096250Y-2598000I-243750J0D01*
G01*
G37*
G36*
G01*
X168096250Y-4473000D02*
X167183750Y-4473000D01*
G75*
G02*
X166940000Y-4229250I0J243750D01*
G01*
X166940000Y-3741750D01*
G75*
G02*
X167183750Y-3498000I243750J0D01*
G01*
X168096250Y-3498000D01*
G75*
G02*
X168340000Y-3741750I0J-243750D01*
G01*
X168340000Y-4229250D01*
G75*
G02*
X168096250Y-4473000I-243750J0D01*
G01*
G37*
%TD*%
%TO.C,D12*%
G36*
G01*
X165556250Y-2598000D02*
X164643750Y-2598000D01*
G75*
G02*
X164400000Y-2354250I0J243750D01*
G01*
X164400000Y-1866750D01*
G75*
G02*
X164643750Y-1623000I243750J0D01*
G01*
X165556250Y-1623000D01*
G75*
G02*
X165800000Y-1866750I0J-243750D01*
G01*
X165800000Y-2354250D01*
G75*
G02*
X165556250Y-2598000I-243750J0D01*
G01*
G37*
G36*
G01*
X165556250Y-4473000D02*
X164643750Y-4473000D01*
G75*
G02*
X164400000Y-4229250I0J243750D01*
G01*
X164400000Y-3741750D01*
G75*
G02*
X164643750Y-3498000I243750J0D01*
G01*
X165556250Y-3498000D01*
G75*
G02*
X165800000Y-3741750I0J-243750D01*
G01*
X165800000Y-4229250D01*
G75*
G02*
X165556250Y-4473000I-243750J0D01*
G01*
G37*
%TD*%
%TO.C,D11*%
G36*
G01*
X163016250Y-2598000D02*
X162103750Y-2598000D01*
G75*
G02*
X161860000Y-2354250I0J243750D01*
G01*
X161860000Y-1866750D01*
G75*
G02*
X162103750Y-1623000I243750J0D01*
G01*
X163016250Y-1623000D01*
G75*
G02*
X163260000Y-1866750I0J-243750D01*
G01*
X163260000Y-2354250D01*
G75*
G02*
X163016250Y-2598000I-243750J0D01*
G01*
G37*
G36*
G01*
X163016250Y-4473000D02*
X162103750Y-4473000D01*
G75*
G02*
X161860000Y-4229250I0J243750D01*
G01*
X161860000Y-3741750D01*
G75*
G02*
X162103750Y-3498000I243750J0D01*
G01*
X163016250Y-3498000D01*
G75*
G02*
X163260000Y-3741750I0J-243750D01*
G01*
X163260000Y-4229250D01*
G75*
G02*
X163016250Y-4473000I-243750J0D01*
G01*
G37*
%TD*%
%TO.C,D10*%
G36*
G01*
X160476250Y-2598000D02*
X159563750Y-2598000D01*
G75*
G02*
X159320000Y-2354250I0J243750D01*
G01*
X159320000Y-1866750D01*
G75*
G02*
X159563750Y-1623000I243750J0D01*
G01*
X160476250Y-1623000D01*
G75*
G02*
X160720000Y-1866750I0J-243750D01*
G01*
X160720000Y-2354250D01*
G75*
G02*
X160476250Y-2598000I-243750J0D01*
G01*
G37*
G36*
G01*
X160476250Y-4473000D02*
X159563750Y-4473000D01*
G75*
G02*
X159320000Y-4229250I0J243750D01*
G01*
X159320000Y-3741750D01*
G75*
G02*
X159563750Y-3498000I243750J0D01*
G01*
X160476250Y-3498000D01*
G75*
G02*
X160720000Y-3741750I0J-243750D01*
G01*
X160720000Y-4229250D01*
G75*
G02*
X160476250Y-4473000I-243750J0D01*
G01*
G37*
%TD*%
%TO.C,D9*%
G36*
G01*
X157936250Y-2598000D02*
X157023750Y-2598000D01*
G75*
G02*
X156780000Y-2354250I0J243750D01*
G01*
X156780000Y-1866750D01*
G75*
G02*
X157023750Y-1623000I243750J0D01*
G01*
X157936250Y-1623000D01*
G75*
G02*
X158180000Y-1866750I0J-243750D01*
G01*
X158180000Y-2354250D01*
G75*
G02*
X157936250Y-2598000I-243750J0D01*
G01*
G37*
G36*
G01*
X157936250Y-4473000D02*
X157023750Y-4473000D01*
G75*
G02*
X156780000Y-4229250I0J243750D01*
G01*
X156780000Y-3741750D01*
G75*
G02*
X157023750Y-3498000I243750J0D01*
G01*
X157936250Y-3498000D01*
G75*
G02*
X158180000Y-3741750I0J-243750D01*
G01*
X158180000Y-4229250D01*
G75*
G02*
X157936250Y-4473000I-243750J0D01*
G01*
G37*
%TD*%
%TO.C,R8*%
G36*
G01*
X154489998Y-7258000D02*
X155390002Y-7258000D01*
G75*
G02*
X155640000Y-7507998I0J-249998D01*
G01*
X155640000Y-8033002D01*
G75*
G02*
X155390002Y-8283000I-249998J0D01*
G01*
X154489998Y-8283000D01*
G75*
G02*
X154240000Y-8033002I0J249998D01*
G01*
X154240000Y-7507998D01*
G75*
G02*
X154489998Y-7258000I249998J0D01*
G01*
G37*
G36*
G01*
X154489998Y-5433000D02*
X155390002Y-5433000D01*
G75*
G02*
X155640000Y-5682998I0J-249998D01*
G01*
X155640000Y-6208002D01*
G75*
G02*
X155390002Y-6458000I-249998J0D01*
G01*
X154489998Y-6458000D01*
G75*
G02*
X154240000Y-6208002I0J249998D01*
G01*
X154240000Y-5682998D01*
G75*
G02*
X154489998Y-5433000I249998J0D01*
G01*
G37*
%TD*%
%TO.C,R7*%
G36*
G01*
X151949998Y-7258000D02*
X152850002Y-7258000D01*
G75*
G02*
X153100000Y-7507998I0J-249998D01*
G01*
X153100000Y-8033002D01*
G75*
G02*
X152850002Y-8283000I-249998J0D01*
G01*
X151949998Y-8283000D01*
G75*
G02*
X151700000Y-8033002I0J249998D01*
G01*
X151700000Y-7507998D01*
G75*
G02*
X151949998Y-7258000I249998J0D01*
G01*
G37*
G36*
G01*
X151949998Y-5433000D02*
X152850002Y-5433000D01*
G75*
G02*
X153100000Y-5682998I0J-249998D01*
G01*
X153100000Y-6208002D01*
G75*
G02*
X152850002Y-6458000I-249998J0D01*
G01*
X151949998Y-6458000D01*
G75*
G02*
X151700000Y-6208002I0J249998D01*
G01*
X151700000Y-5682998D01*
G75*
G02*
X151949998Y-5433000I249998J0D01*
G01*
G37*
%TD*%
%TO.C,R6*%
G36*
G01*
X149409998Y-7258000D02*
X150310002Y-7258000D01*
G75*
G02*
X150560000Y-7507998I0J-249998D01*
G01*
X150560000Y-8033002D01*
G75*
G02*
X150310002Y-8283000I-249998J0D01*
G01*
X149409998Y-8283000D01*
G75*
G02*
X149160000Y-8033002I0J249998D01*
G01*
X149160000Y-7507998D01*
G75*
G02*
X149409998Y-7258000I249998J0D01*
G01*
G37*
G36*
G01*
X149409998Y-5433000D02*
X150310002Y-5433000D01*
G75*
G02*
X150560000Y-5682998I0J-249998D01*
G01*
X150560000Y-6208002D01*
G75*
G02*
X150310002Y-6458000I-249998J0D01*
G01*
X149409998Y-6458000D01*
G75*
G02*
X149160000Y-6208002I0J249998D01*
G01*
X149160000Y-5682998D01*
G75*
G02*
X149409998Y-5433000I249998J0D01*
G01*
G37*
%TD*%
%TO.C,R5*%
G36*
G01*
X146869998Y-7258000D02*
X147770002Y-7258000D01*
G75*
G02*
X148020000Y-7507998I0J-249998D01*
G01*
X148020000Y-8033002D01*
G75*
G02*
X147770002Y-8283000I-249998J0D01*
G01*
X146869998Y-8283000D01*
G75*
G02*
X146620000Y-8033002I0J249998D01*
G01*
X146620000Y-7507998D01*
G75*
G02*
X146869998Y-7258000I249998J0D01*
G01*
G37*
G36*
G01*
X146869998Y-5433000D02*
X147770002Y-5433000D01*
G75*
G02*
X148020000Y-5682998I0J-249998D01*
G01*
X148020000Y-6208002D01*
G75*
G02*
X147770002Y-6458000I-249998J0D01*
G01*
X146869998Y-6458000D01*
G75*
G02*
X146620000Y-6208002I0J249998D01*
G01*
X146620000Y-5682998D01*
G75*
G02*
X146869998Y-5433000I249998J0D01*
G01*
G37*
%TD*%
%TO.C,R4*%
G36*
G01*
X144329998Y-7258000D02*
X145230002Y-7258000D01*
G75*
G02*
X145480000Y-7507998I0J-249998D01*
G01*
X145480000Y-8033002D01*
G75*
G02*
X145230002Y-8283000I-249998J0D01*
G01*
X144329998Y-8283000D01*
G75*
G02*
X144080000Y-8033002I0J249998D01*
G01*
X144080000Y-7507998D01*
G75*
G02*
X144329998Y-7258000I249998J0D01*
G01*
G37*
G36*
G01*
X144329998Y-5433000D02*
X145230002Y-5433000D01*
G75*
G02*
X145480000Y-5682998I0J-249998D01*
G01*
X145480000Y-6208002D01*
G75*
G02*
X145230002Y-6458000I-249998J0D01*
G01*
X144329998Y-6458000D01*
G75*
G02*
X144080000Y-6208002I0J249998D01*
G01*
X144080000Y-5682998D01*
G75*
G02*
X144329998Y-5433000I249998J0D01*
G01*
G37*
%TD*%
%TO.C,R3*%
G36*
G01*
X141789998Y-7258000D02*
X142690002Y-7258000D01*
G75*
G02*
X142940000Y-7507998I0J-249998D01*
G01*
X142940000Y-8033002D01*
G75*
G02*
X142690002Y-8283000I-249998J0D01*
G01*
X141789998Y-8283000D01*
G75*
G02*
X141540000Y-8033002I0J249998D01*
G01*
X141540000Y-7507998D01*
G75*
G02*
X141789998Y-7258000I249998J0D01*
G01*
G37*
G36*
G01*
X141789998Y-5433000D02*
X142690002Y-5433000D01*
G75*
G02*
X142940000Y-5682998I0J-249998D01*
G01*
X142940000Y-6208002D01*
G75*
G02*
X142690002Y-6458000I-249998J0D01*
G01*
X141789998Y-6458000D01*
G75*
G02*
X141540000Y-6208002I0J249998D01*
G01*
X141540000Y-5682998D01*
G75*
G02*
X141789998Y-5433000I249998J0D01*
G01*
G37*
%TD*%
%TO.C,R2*%
G36*
G01*
X139249998Y-7258000D02*
X140150002Y-7258000D01*
G75*
G02*
X140400000Y-7507998I0J-249998D01*
G01*
X140400000Y-8033002D01*
G75*
G02*
X140150002Y-8283000I-249998J0D01*
G01*
X139249998Y-8283000D01*
G75*
G02*
X139000000Y-8033002I0J249998D01*
G01*
X139000000Y-7507998D01*
G75*
G02*
X139249998Y-7258000I249998J0D01*
G01*
G37*
G36*
G01*
X139249998Y-5433000D02*
X140150002Y-5433000D01*
G75*
G02*
X140400000Y-5682998I0J-249998D01*
G01*
X140400000Y-6208002D01*
G75*
G02*
X140150002Y-6458000I-249998J0D01*
G01*
X139249998Y-6458000D01*
G75*
G02*
X139000000Y-6208002I0J249998D01*
G01*
X139000000Y-5682998D01*
G75*
G02*
X139249998Y-5433000I249998J0D01*
G01*
G37*
%TD*%
%TO.C,R1*%
G36*
G01*
X136709998Y-7258000D02*
X137610002Y-7258000D01*
G75*
G02*
X137860000Y-7507998I0J-249998D01*
G01*
X137860000Y-8033002D01*
G75*
G02*
X137610002Y-8283000I-249998J0D01*
G01*
X136709998Y-8283000D01*
G75*
G02*
X136460000Y-8033002I0J249998D01*
G01*
X136460000Y-7507998D01*
G75*
G02*
X136709998Y-7258000I249998J0D01*
G01*
G37*
G36*
G01*
X136709998Y-5433000D02*
X137610002Y-5433000D01*
G75*
G02*
X137860000Y-5682998I0J-249998D01*
G01*
X137860000Y-6208002D01*
G75*
G02*
X137610002Y-6458000I-249998J0D01*
G01*
X136709998Y-6458000D01*
G75*
G02*
X136460000Y-6208002I0J249998D01*
G01*
X136460000Y-5682998D01*
G75*
G02*
X136709998Y-5433000I249998J0D01*
G01*
G37*
%TD*%
%TO.C,D8*%
G36*
G01*
X155396250Y-2598000D02*
X154483750Y-2598000D01*
G75*
G02*
X154240000Y-2354250I0J243750D01*
G01*
X154240000Y-1866750D01*
G75*
G02*
X154483750Y-1623000I243750J0D01*
G01*
X155396250Y-1623000D01*
G75*
G02*
X155640000Y-1866750I0J-243750D01*
G01*
X155640000Y-2354250D01*
G75*
G02*
X155396250Y-2598000I-243750J0D01*
G01*
G37*
G36*
G01*
X155396250Y-4473000D02*
X154483750Y-4473000D01*
G75*
G02*
X154240000Y-4229250I0J243750D01*
G01*
X154240000Y-3741750D01*
G75*
G02*
X154483750Y-3498000I243750J0D01*
G01*
X155396250Y-3498000D01*
G75*
G02*
X155640000Y-3741750I0J-243750D01*
G01*
X155640000Y-4229250D01*
G75*
G02*
X155396250Y-4473000I-243750J0D01*
G01*
G37*
%TD*%
%TO.C,D7*%
G36*
G01*
X152856250Y-2598000D02*
X151943750Y-2598000D01*
G75*
G02*
X151700000Y-2354250I0J243750D01*
G01*
X151700000Y-1866750D01*
G75*
G02*
X151943750Y-1623000I243750J0D01*
G01*
X152856250Y-1623000D01*
G75*
G02*
X153100000Y-1866750I0J-243750D01*
G01*
X153100000Y-2354250D01*
G75*
G02*
X152856250Y-2598000I-243750J0D01*
G01*
G37*
G36*
G01*
X152856250Y-4473000D02*
X151943750Y-4473000D01*
G75*
G02*
X151700000Y-4229250I0J243750D01*
G01*
X151700000Y-3741750D01*
G75*
G02*
X151943750Y-3498000I243750J0D01*
G01*
X152856250Y-3498000D01*
G75*
G02*
X153100000Y-3741750I0J-243750D01*
G01*
X153100000Y-4229250D01*
G75*
G02*
X152856250Y-4473000I-243750J0D01*
G01*
G37*
%TD*%
%TO.C,D6*%
G36*
G01*
X150316250Y-2598000D02*
X149403750Y-2598000D01*
G75*
G02*
X149160000Y-2354250I0J243750D01*
G01*
X149160000Y-1866750D01*
G75*
G02*
X149403750Y-1623000I243750J0D01*
G01*
X150316250Y-1623000D01*
G75*
G02*
X150560000Y-1866750I0J-243750D01*
G01*
X150560000Y-2354250D01*
G75*
G02*
X150316250Y-2598000I-243750J0D01*
G01*
G37*
G36*
G01*
X150316250Y-4473000D02*
X149403750Y-4473000D01*
G75*
G02*
X149160000Y-4229250I0J243750D01*
G01*
X149160000Y-3741750D01*
G75*
G02*
X149403750Y-3498000I243750J0D01*
G01*
X150316250Y-3498000D01*
G75*
G02*
X150560000Y-3741750I0J-243750D01*
G01*
X150560000Y-4229250D01*
G75*
G02*
X150316250Y-4473000I-243750J0D01*
G01*
G37*
%TD*%
%TO.C,D5*%
G36*
G01*
X147776250Y-2598000D02*
X146863750Y-2598000D01*
G75*
G02*
X146620000Y-2354250I0J243750D01*
G01*
X146620000Y-1866750D01*
G75*
G02*
X146863750Y-1623000I243750J0D01*
G01*
X147776250Y-1623000D01*
G75*
G02*
X148020000Y-1866750I0J-243750D01*
G01*
X148020000Y-2354250D01*
G75*
G02*
X147776250Y-2598000I-243750J0D01*
G01*
G37*
G36*
G01*
X147776250Y-4473000D02*
X146863750Y-4473000D01*
G75*
G02*
X146620000Y-4229250I0J243750D01*
G01*
X146620000Y-3741750D01*
G75*
G02*
X146863750Y-3498000I243750J0D01*
G01*
X147776250Y-3498000D01*
G75*
G02*
X148020000Y-3741750I0J-243750D01*
G01*
X148020000Y-4229250D01*
G75*
G02*
X147776250Y-4473000I-243750J0D01*
G01*
G37*
%TD*%
%TO.C,D4*%
G36*
G01*
X145236250Y-2598000D02*
X144323750Y-2598000D01*
G75*
G02*
X144080000Y-2354250I0J243750D01*
G01*
X144080000Y-1866750D01*
G75*
G02*
X144323750Y-1623000I243750J0D01*
G01*
X145236250Y-1623000D01*
G75*
G02*
X145480000Y-1866750I0J-243750D01*
G01*
X145480000Y-2354250D01*
G75*
G02*
X145236250Y-2598000I-243750J0D01*
G01*
G37*
G36*
G01*
X145236250Y-4473000D02*
X144323750Y-4473000D01*
G75*
G02*
X144080000Y-4229250I0J243750D01*
G01*
X144080000Y-3741750D01*
G75*
G02*
X144323750Y-3498000I243750J0D01*
G01*
X145236250Y-3498000D01*
G75*
G02*
X145480000Y-3741750I0J-243750D01*
G01*
X145480000Y-4229250D01*
G75*
G02*
X145236250Y-4473000I-243750J0D01*
G01*
G37*
%TD*%
%TO.C,D3*%
G36*
G01*
X142696250Y-2598000D02*
X141783750Y-2598000D01*
G75*
G02*
X141540000Y-2354250I0J243750D01*
G01*
X141540000Y-1866750D01*
G75*
G02*
X141783750Y-1623000I243750J0D01*
G01*
X142696250Y-1623000D01*
G75*
G02*
X142940000Y-1866750I0J-243750D01*
G01*
X142940000Y-2354250D01*
G75*
G02*
X142696250Y-2598000I-243750J0D01*
G01*
G37*
G36*
G01*
X142696250Y-4473000D02*
X141783750Y-4473000D01*
G75*
G02*
X141540000Y-4229250I0J243750D01*
G01*
X141540000Y-3741750D01*
G75*
G02*
X141783750Y-3498000I243750J0D01*
G01*
X142696250Y-3498000D01*
G75*
G02*
X142940000Y-3741750I0J-243750D01*
G01*
X142940000Y-4229250D01*
G75*
G02*
X142696250Y-4473000I-243750J0D01*
G01*
G37*
%TD*%
%TO.C,D2*%
G36*
G01*
X140156250Y-2598000D02*
X139243750Y-2598000D01*
G75*
G02*
X139000000Y-2354250I0J243750D01*
G01*
X139000000Y-1866750D01*
G75*
G02*
X139243750Y-1623000I243750J0D01*
G01*
X140156250Y-1623000D01*
G75*
G02*
X140400000Y-1866750I0J-243750D01*
G01*
X140400000Y-2354250D01*
G75*
G02*
X140156250Y-2598000I-243750J0D01*
G01*
G37*
G36*
G01*
X140156250Y-4473000D02*
X139243750Y-4473000D01*
G75*
G02*
X139000000Y-4229250I0J243750D01*
G01*
X139000000Y-3741750D01*
G75*
G02*
X139243750Y-3498000I243750J0D01*
G01*
X140156250Y-3498000D01*
G75*
G02*
X140400000Y-3741750I0J-243750D01*
G01*
X140400000Y-4229250D01*
G75*
G02*
X140156250Y-4473000I-243750J0D01*
G01*
G37*
%TD*%
%TO.C,D1*%
G36*
G01*
X137616250Y-2598000D02*
X136703750Y-2598000D01*
G75*
G02*
X136460000Y-2354250I0J243750D01*
G01*
X136460000Y-1866750D01*
G75*
G02*
X136703750Y-1623000I243750J0D01*
G01*
X137616250Y-1623000D01*
G75*
G02*
X137860000Y-1866750I0J-243750D01*
G01*
X137860000Y-2354250D01*
G75*
G02*
X137616250Y-2598000I-243750J0D01*
G01*
G37*
G36*
G01*
X137616250Y-4473000D02*
X136703750Y-4473000D01*
G75*
G02*
X136460000Y-4229250I0J243750D01*
G01*
X136460000Y-3741750D01*
G75*
G02*
X136703750Y-3498000I243750J0D01*
G01*
X137616250Y-3498000D01*
G75*
G02*
X137860000Y-3741750I0J-243750D01*
G01*
X137860000Y-4229250D01*
G75*
G02*
X137616250Y-4473000I-243750J0D01*
G01*
G37*
%TD*%
M02*
