M48
; DRILL file {KiCad (5.1.9-0-10_14)} date Tuesday, April 27, 2021 at 01:13:02 AM
; FORMAT={-:-/ absolute / inch / decimal}
; #@! TF.CreationDate,2021-04-27T01:13:02-04:00
; #@! TF.GenerationSoftware,Kicad,Pcbnew,(5.1.9-0-10_14)
; #@! TF.FileFunction,Plated,1,4,PTH
FMAT,2
INCH
T1C0.0236
T2C0.0315
T3C0.0354
T4C0.0394
%
G90
G05
T1
X2.7698Y-4.8345
X2.808Y-3.6393
X2.808Y-3.718
X2.8485Y-4.8345
X5.1163Y-4.5345
X5.195Y-4.5345
X5.845Y-3.447
X5.845Y-3.5257
T2
X2.986Y-3.718
X2.986Y-4.018
X2.991Y-4.833
X2.991Y-5.133
X3.086Y-3.718
X3.086Y-4.018
X3.091Y-4.833
X3.091Y-5.133
X3.186Y-3.718
X3.186Y-4.018
X3.191Y-4.833
X3.191Y-5.133
X3.286Y-3.718
X3.286Y-4.018
X3.291Y-4.833
X3.291Y-5.133
X3.386Y-3.718
X3.386Y-4.018
X3.391Y-4.833
X3.391Y-5.133
X3.486Y-3.718
X3.486Y-4.018
X3.491Y-4.833
X3.491Y-5.133
X3.567Y-4.596
X3.5675Y-5.7305
X3.586Y-3.718
X3.586Y-4.018
X3.591Y-4.833
X3.591Y-5.133
X3.667Y-4.596
X3.6675Y-5.7305
X3.686Y-3.718
X3.686Y-4.018
X3.691Y-4.833
X3.691Y-5.133
X3.767Y-4.596
X3.7675Y-5.7305
X3.786Y-3.718
X3.786Y-4.018
X3.791Y-4.833
X3.791Y-5.133
X3.867Y-4.596
X3.8675Y-5.7305
X3.886Y-3.718
X3.886Y-4.018
X3.891Y-4.833
X3.891Y-5.133
X3.967Y-4.596
X3.9675Y-5.7305
X4.067Y-4.596
X4.0675Y-5.7305
X4.167Y-4.596
X4.1675Y-5.7305
X4.202Y-3.726
X4.202Y-4.026
X4.202Y-4.831
X4.202Y-5.131
X4.267Y-4.596
X4.2675Y-5.7305
X4.302Y-3.726
X4.302Y-4.026
X4.302Y-4.831
X4.302Y-5.131
X4.367Y-4.596
X4.3675Y-5.7305
X4.402Y-3.726
X4.402Y-4.026
X4.402Y-4.831
X4.402Y-5.131
X4.502Y-3.726
X4.502Y-4.026
X4.502Y-4.831
X4.502Y-5.131
X4.602Y-3.726
X4.602Y-4.026
X4.602Y-4.831
X4.602Y-5.131
X4.702Y-3.726
X4.702Y-4.026
X4.702Y-4.831
X4.702Y-5.131
X4.802Y-3.726
X4.802Y-4.026
X4.802Y-4.831
X4.802Y-5.131
X4.902Y-3.726
X4.902Y-4.026
X4.902Y-4.831
X4.902Y-5.131
X5.151Y-3.727
X5.151Y-4.027
X5.152Y-4.83
X5.152Y-5.13
X5.251Y-3.727
X5.251Y-4.027
X5.252Y-4.83
X5.252Y-5.13
X5.351Y-3.727
X5.351Y-4.027
X5.352Y-4.83
X5.352Y-5.13
X5.451Y-3.727
X5.451Y-4.027
X5.452Y-4.83
X5.452Y-5.13
X5.551Y-3.727
X5.551Y-4.027
X5.552Y-4.83
X5.552Y-5.13
X5.651Y-3.727
X5.651Y-4.027
X5.652Y-4.83
X5.652Y-5.13
X5.751Y-3.727
X5.751Y-4.027
X5.752Y-4.83
X5.752Y-5.13
X5.851Y-3.727
X5.851Y-4.027
X5.852Y-4.83
X5.852Y-5.13
T3
X3.003Y-4.321
X3.007Y-5.423
X3.103Y-4.321
X3.107Y-5.423
X3.262Y-4.321
X3.267Y-5.423
X3.362Y-4.321
X3.367Y-5.423
X3.521Y-4.321
X3.526Y-5.423
X3.621Y-4.321
X3.626Y-5.423
X3.78Y-4.321
X3.785Y-5.423
X3.88Y-4.321
X3.885Y-5.423
X4.039Y-4.321
X4.044Y-5.424
X4.139Y-4.321
X4.144Y-5.424
X4.298Y-4.321
X4.303Y-5.424
X4.398Y-4.321
X4.403Y-5.424
X4.557Y-4.321
X4.561Y-5.424
X4.657Y-4.321
X4.661Y-5.424
X4.816Y-4.321
X4.819Y-5.424
X4.916Y-4.321
X4.919Y-5.424
T4
X2.992Y-3.458
X3.092Y-3.458
X3.192Y-3.458
X3.292Y-3.458
X3.392Y-3.458
X3.492Y-3.458
X3.592Y-3.458
X3.692Y-3.458
X4.208Y-3.458
X4.308Y-3.458
X4.408Y-3.458
X4.508Y-3.458
X4.608Y-3.458
X4.708Y-3.458
X4.808Y-3.458
X6.076Y-3.7515
X6.076Y-3.8515
X6.076Y-3.9515
X6.076Y-4.0515
X6.076Y-4.1515
X6.076Y-4.2515
X6.076Y-4.3515
X6.076Y-4.4515
X6.0765Y-3.431
X6.0765Y-3.531
X6.079Y-4.8505
X6.079Y-4.9505
X6.079Y-5.0505
X6.079Y-5.1505
X6.079Y-5.2505
X6.079Y-5.3505
X6.079Y-5.4505
X6.079Y-5.5505
X6.225Y-3.7515
X6.225Y-3.8515
X6.225Y-3.9515
X6.225Y-4.0515
X6.225Y-4.1515
X6.225Y-4.2515
X6.225Y-4.3515
X6.225Y-4.4515
X6.23Y-4.8505
X6.23Y-4.9505
X6.23Y-5.0505
X6.23Y-5.1505
X6.23Y-5.2505
X6.23Y-5.3505
X6.23Y-5.4505
X6.23Y-5.5505
T0
M30
