%TF.GenerationSoftware,KiCad,Pcbnew,(5.1.9-0-10_14)*%
%TF.CreationDate,2021-04-27T01:12:58-04:00*%
%TF.ProjectId,REGISTER,52454749-5354-4455-922e-6b696361645f,rev?*%
%TF.SameCoordinates,Original*%
%TF.FileFunction,Legend,Top*%
%TF.FilePolarity,Positive*%
%FSLAX46Y46*%
G04 Gerber Fmt 4.6, Leading zero omitted, Abs format (unit mm)*
G04 Created by KiCad (PCBNEW (5.1.9-0-10_14)) date 2021-04-27 01:12:58*
%MOMM*%
%LPD*%
G01*
G04 APERTURE LIST*
%ADD10C,0.050000*%
%ADD11C,0.150000*%
%ADD12C,0.100000*%
%ADD13C,0.120000*%
G04 APERTURE END LIST*
D10*
X130038838Y-137850619D02*
X130086457Y-137803000D01*
X130181695Y-137755380D01*
X130419790Y-137755380D01*
X130515028Y-137803000D01*
X130562647Y-137850619D01*
X130610266Y-137945857D01*
X130610266Y-138041095D01*
X130562647Y-138183952D01*
X129991219Y-138755380D01*
X130610266Y-138755380D01*
X131705504Y-138755380D02*
X132229314Y-138088714D01*
X131705504Y-138088714D02*
X132229314Y-138755380D01*
X133515028Y-138183952D02*
X133419790Y-138136333D01*
X133372171Y-138088714D01*
X133324552Y-137993476D01*
X133324552Y-137945857D01*
X133372171Y-137850619D01*
X133419790Y-137803000D01*
X133515028Y-137755380D01*
X133705504Y-137755380D01*
X133800742Y-137803000D01*
X133848361Y-137850619D01*
X133895980Y-137945857D01*
X133895980Y-137993476D01*
X133848361Y-138088714D01*
X133800742Y-138136333D01*
X133705504Y-138183952D01*
X133515028Y-138183952D01*
X133419790Y-138231571D01*
X133372171Y-138279190D01*
X133324552Y-138374428D01*
X133324552Y-138564904D01*
X133372171Y-138660142D01*
X133419790Y-138707761D01*
X133515028Y-138755380D01*
X133705504Y-138755380D01*
X133800742Y-138707761D01*
X133848361Y-138660142D01*
X133895980Y-138564904D01*
X133895980Y-138374428D01*
X133848361Y-138279190D01*
X133800742Y-138231571D01*
X133705504Y-138183952D01*
X134324552Y-138755380D02*
X134324552Y-137755380D01*
X134324552Y-138136333D02*
X134419790Y-138088714D01*
X134610266Y-138088714D01*
X134705504Y-138136333D01*
X134753123Y-138183952D01*
X134800742Y-138279190D01*
X134800742Y-138564904D01*
X134753123Y-138660142D01*
X134705504Y-138707761D01*
X134610266Y-138755380D01*
X134419790Y-138755380D01*
X134324552Y-138707761D01*
X135229314Y-138755380D02*
X135229314Y-138088714D01*
X135229314Y-137755380D02*
X135181695Y-137803000D01*
X135229314Y-137850619D01*
X135276933Y-137803000D01*
X135229314Y-137755380D01*
X135229314Y-137850619D01*
X135562647Y-138088714D02*
X135943600Y-138088714D01*
X135705504Y-137755380D02*
X135705504Y-138612523D01*
X135753123Y-138707761D01*
X135848361Y-138755380D01*
X135943600Y-138755380D01*
D11*
X113766600Y-85598000D02*
X113766600Y-84455000D01*
X116332000Y-85623400D02*
X116332000Y-84734400D01*
X108712000Y-85623400D02*
X108712000Y-84734400D01*
X106146600Y-85598000D02*
X106146600Y-84455000D01*
D12*
X112254466Y-85194933D02*
X111921133Y-85428266D01*
X112254466Y-85594933D02*
X111554466Y-85594933D01*
X111554466Y-85328266D01*
X111587800Y-85261600D01*
X111621133Y-85228266D01*
X111687800Y-85194933D01*
X111787800Y-85194933D01*
X111854466Y-85228266D01*
X111887800Y-85261600D01*
X111921133Y-85328266D01*
X111921133Y-85594933D01*
X112221133Y-84928266D02*
X112254466Y-84828266D01*
X112254466Y-84661600D01*
X112221133Y-84594933D01*
X112187800Y-84561600D01*
X112121133Y-84528266D01*
X112054466Y-84528266D01*
X111987800Y-84561600D01*
X111954466Y-84594933D01*
X111921133Y-84661600D01*
X111887800Y-84794933D01*
X111854466Y-84861600D01*
X111821133Y-84894933D01*
X111754466Y-84928266D01*
X111687800Y-84928266D01*
X111621133Y-84894933D01*
X111587800Y-84861600D01*
X111554466Y-84794933D01*
X111554466Y-84628266D01*
X111587800Y-84528266D01*
X111621133Y-84261600D02*
X111587800Y-84228266D01*
X111554466Y-84161600D01*
X111554466Y-83994933D01*
X111587800Y-83928266D01*
X111621133Y-83894933D01*
X111687800Y-83861600D01*
X111754466Y-83861600D01*
X111854466Y-83894933D01*
X112254466Y-84294933D01*
X112254466Y-83861600D01*
D11*
X104559100Y-120472200D02*
X110921800Y-120472200D01*
X150012400Y-120472200D02*
X119964200Y-120472200D01*
X74663300Y-120472200D02*
X104559100Y-120472200D01*
X74663300Y-120472200D02*
X74663300Y-121589800D01*
X150012400Y-120472200D02*
X150012400Y-121589800D01*
X112012047Y-120741219D02*
X111645380Y-120217409D01*
X111383476Y-120741219D02*
X111383476Y-119641219D01*
X111802523Y-119641219D01*
X111907285Y-119693600D01*
X111959666Y-119745980D01*
X112012047Y-119850742D01*
X112012047Y-120007885D01*
X111959666Y-120112647D01*
X111907285Y-120165028D01*
X111802523Y-120217409D01*
X111383476Y-120217409D01*
X112902523Y-120688838D02*
X112797761Y-120741219D01*
X112588238Y-120741219D01*
X112483476Y-120688838D01*
X112431095Y-120584076D01*
X112431095Y-120165028D01*
X112483476Y-120060266D01*
X112588238Y-120007885D01*
X112797761Y-120007885D01*
X112902523Y-120060266D01*
X112954904Y-120165028D01*
X112954904Y-120269790D01*
X112431095Y-120374552D01*
X113897761Y-120007885D02*
X113897761Y-120898361D01*
X113845380Y-121003123D01*
X113793000Y-121055504D01*
X113688238Y-121107885D01*
X113531095Y-121107885D01*
X113426333Y-121055504D01*
X113897761Y-120688838D02*
X113793000Y-120741219D01*
X113583476Y-120741219D01*
X113478714Y-120688838D01*
X113426333Y-120636457D01*
X113373952Y-120531695D01*
X113373952Y-120217409D01*
X113426333Y-120112647D01*
X113478714Y-120060266D01*
X113583476Y-120007885D01*
X113793000Y-120007885D01*
X113897761Y-120060266D01*
X114421571Y-120741219D02*
X114421571Y-120007885D01*
X114421571Y-119641219D02*
X114369190Y-119693600D01*
X114421571Y-119745980D01*
X114473952Y-119693600D01*
X114421571Y-119641219D01*
X114421571Y-119745980D01*
X114893000Y-120688838D02*
X114997761Y-120741219D01*
X115207285Y-120741219D01*
X115312047Y-120688838D01*
X115364428Y-120584076D01*
X115364428Y-120531695D01*
X115312047Y-120426933D01*
X115207285Y-120374552D01*
X115050142Y-120374552D01*
X114945380Y-120322171D01*
X114893000Y-120217409D01*
X114893000Y-120165028D01*
X114945380Y-120060266D01*
X115050142Y-120007885D01*
X115207285Y-120007885D01*
X115312047Y-120060266D01*
X115678714Y-120007885D02*
X116097761Y-120007885D01*
X115835857Y-119641219D02*
X115835857Y-120584076D01*
X115888238Y-120688838D01*
X115993000Y-120741219D01*
X116097761Y-120741219D01*
X116883476Y-120688838D02*
X116778714Y-120741219D01*
X116569190Y-120741219D01*
X116464428Y-120688838D01*
X116412047Y-120584076D01*
X116412047Y-120165028D01*
X116464428Y-120060266D01*
X116569190Y-120007885D01*
X116778714Y-120007885D01*
X116883476Y-120060266D01*
X116935857Y-120165028D01*
X116935857Y-120269790D01*
X116412047Y-120374552D01*
X117407285Y-120741219D02*
X117407285Y-120007885D01*
X117407285Y-120217409D02*
X117459666Y-120112647D01*
X117512047Y-120060266D01*
X117616809Y-120007885D01*
X117721571Y-120007885D01*
X119293000Y-120165028D02*
X119450142Y-120217409D01*
X119502523Y-120269790D01*
X119554904Y-120374552D01*
X119554904Y-120531695D01*
X119502523Y-120636457D01*
X119450142Y-120688838D01*
X119345380Y-120741219D01*
X118926333Y-120741219D01*
X118926333Y-119641219D01*
X119293000Y-119641219D01*
X119397761Y-119693600D01*
X119450142Y-119745980D01*
X119502523Y-119850742D01*
X119502523Y-119955504D01*
X119450142Y-120060266D01*
X119397761Y-120112647D01*
X119293000Y-120165028D01*
X118926333Y-120165028D01*
X149834600Y-92227400D02*
X119786400Y-92227400D01*
X104381300Y-92227400D02*
X110820200Y-92227400D01*
D12*
X147116000Y-89862133D02*
X147116000Y-89328800D01*
X147116000Y-87855533D02*
X147116000Y-87322200D01*
X147382666Y-87588866D02*
X146849333Y-87588866D01*
X129670066Y-113816600D02*
X130203400Y-113816600D01*
X131676666Y-113816600D02*
X132210000Y-113816600D01*
X131943333Y-114083266D02*
X131943333Y-113549933D01*
X70003200Y-92230466D02*
X70003200Y-92763800D01*
X70003200Y-94237066D02*
X70003200Y-94770400D01*
X69736533Y-94503733D02*
X70269866Y-94503733D01*
X70107066Y-124154400D02*
X70640400Y-124154400D01*
X72113666Y-124154400D02*
X72647000Y-124154400D01*
X72380333Y-124421066D02*
X72380333Y-123887733D01*
X73798866Y-88668133D02*
X73098866Y-88668133D01*
X73065533Y-87834800D02*
X73965533Y-88434800D01*
X73098866Y-87468133D02*
X73098866Y-87334800D01*
X73132200Y-87268133D01*
X73198866Y-87201466D01*
X73332200Y-87168133D01*
X73565533Y-87168133D01*
X73698866Y-87201466D01*
X73765533Y-87268133D01*
X73798866Y-87334800D01*
X73798866Y-87468133D01*
X73765533Y-87534800D01*
X73698866Y-87601466D01*
X73565533Y-87634800D01*
X73332200Y-87634800D01*
X73198866Y-87601466D01*
X73132200Y-87534800D01*
X73098866Y-87468133D01*
D11*
X152019000Y-114655600D02*
X152019000Y-115366800D01*
X160655000Y-114630200D02*
X160655000Y-115341400D01*
X152019000Y-115366800D02*
X160655000Y-115366800D01*
X152298400Y-143205200D02*
X160934400Y-143205200D01*
X152298400Y-142494000D02*
X152298400Y-143205200D01*
X160934400Y-142468600D02*
X160934400Y-143179800D01*
X158089600Y-120650000D02*
X160680400Y-120650000D01*
X154482800Y-120675400D02*
X152044400Y-120675400D01*
X160680400Y-120650000D02*
X160680400Y-121361200D01*
X152044400Y-120675400D02*
X152044400Y-121386600D01*
X151993600Y-92786200D02*
X151993600Y-93497400D01*
X154432000Y-92786200D02*
X151993600Y-92786200D01*
X160629600Y-92760800D02*
X160629600Y-93472000D01*
X158038800Y-92760800D02*
X160629600Y-92760800D01*
X130026200Y-141094542D02*
X130240485Y-141165971D01*
X130597628Y-141165971D01*
X130740485Y-141094542D01*
X130811914Y-141023114D01*
X130883342Y-140880257D01*
X130883342Y-140737400D01*
X130811914Y-140594542D01*
X130740485Y-140523114D01*
X130597628Y-140451685D01*
X130311914Y-140380257D01*
X130169057Y-140308828D01*
X130097628Y-140237400D01*
X130026200Y-140094542D01*
X130026200Y-139951685D01*
X130097628Y-139808828D01*
X130169057Y-139737400D01*
X130311914Y-139665971D01*
X130669057Y-139665971D01*
X130883342Y-139737400D01*
X131311914Y-140165971D02*
X131883342Y-140165971D01*
X131526200Y-139665971D02*
X131526200Y-140951685D01*
X131597628Y-141094542D01*
X131740485Y-141165971D01*
X131883342Y-141165971D01*
X132597628Y-141165971D02*
X132454771Y-141094542D01*
X132383342Y-141023114D01*
X132311914Y-140880257D01*
X132311914Y-140451685D01*
X132383342Y-140308828D01*
X132454771Y-140237400D01*
X132597628Y-140165971D01*
X132811914Y-140165971D01*
X132954771Y-140237400D01*
X133026200Y-140308828D01*
X133097628Y-140451685D01*
X133097628Y-140880257D01*
X133026200Y-141023114D01*
X132954771Y-141094542D01*
X132811914Y-141165971D01*
X132597628Y-141165971D01*
X133740485Y-141165971D02*
X133740485Y-140165971D01*
X133740485Y-140451685D02*
X133811914Y-140308828D01*
X133883342Y-140237400D01*
X134026200Y-140165971D01*
X134169057Y-140165971D01*
X135311914Y-141165971D02*
X135311914Y-140380257D01*
X135240485Y-140237400D01*
X135097628Y-140165971D01*
X134811914Y-140165971D01*
X134669057Y-140237400D01*
X135311914Y-141094542D02*
X135169057Y-141165971D01*
X134811914Y-141165971D01*
X134669057Y-141094542D01*
X134597628Y-140951685D01*
X134597628Y-140808828D01*
X134669057Y-140665971D01*
X134811914Y-140594542D01*
X135169057Y-140594542D01*
X135311914Y-140523114D01*
X136669057Y-140165971D02*
X136669057Y-141380257D01*
X136597628Y-141523114D01*
X136526200Y-141594542D01*
X136383342Y-141665971D01*
X136169057Y-141665971D01*
X136026200Y-141594542D01*
X136669057Y-141094542D02*
X136526200Y-141165971D01*
X136240485Y-141165971D01*
X136097628Y-141094542D01*
X136026200Y-141023114D01*
X135954771Y-140880257D01*
X135954771Y-140451685D01*
X136026200Y-140308828D01*
X136097628Y-140237400D01*
X136240485Y-140165971D01*
X136526200Y-140165971D01*
X136669057Y-140237400D01*
X137954771Y-141094542D02*
X137811914Y-141165971D01*
X137526200Y-141165971D01*
X137383342Y-141094542D01*
X137311914Y-140951685D01*
X137311914Y-140380257D01*
X137383342Y-140237400D01*
X137526200Y-140165971D01*
X137811914Y-140165971D01*
X137954771Y-140237400D01*
X138026200Y-140380257D01*
X138026200Y-140523114D01*
X137311914Y-140665971D01*
X140669057Y-141165971D02*
X140169057Y-140451685D01*
X139811914Y-141165971D02*
X139811914Y-139665971D01*
X140383342Y-139665971D01*
X140526200Y-139737400D01*
X140597628Y-139808828D01*
X140669057Y-139951685D01*
X140669057Y-140165971D01*
X140597628Y-140308828D01*
X140526200Y-140380257D01*
X140383342Y-140451685D01*
X139811914Y-140451685D01*
X141883342Y-141094542D02*
X141740485Y-141165971D01*
X141454771Y-141165971D01*
X141311914Y-141094542D01*
X141240485Y-140951685D01*
X141240485Y-140380257D01*
X141311914Y-140237400D01*
X141454771Y-140165971D01*
X141740485Y-140165971D01*
X141883342Y-140237400D01*
X141954771Y-140380257D01*
X141954771Y-140523114D01*
X141240485Y-140665971D01*
X143240485Y-140165971D02*
X143240485Y-141380257D01*
X143169057Y-141523114D01*
X143097628Y-141594542D01*
X142954771Y-141665971D01*
X142740485Y-141665971D01*
X142597628Y-141594542D01*
X143240485Y-141094542D02*
X143097628Y-141165971D01*
X142811914Y-141165971D01*
X142669057Y-141094542D01*
X142597628Y-141023114D01*
X142526200Y-140880257D01*
X142526200Y-140451685D01*
X142597628Y-140308828D01*
X142669057Y-140237400D01*
X142811914Y-140165971D01*
X143097628Y-140165971D01*
X143240485Y-140237400D01*
X143954771Y-141165971D02*
X143954771Y-140165971D01*
X143954771Y-139665971D02*
X143883342Y-139737400D01*
X143954771Y-139808828D01*
X144026200Y-139737400D01*
X143954771Y-139665971D01*
X143954771Y-139808828D01*
X144597628Y-141094542D02*
X144740485Y-141165971D01*
X145026200Y-141165971D01*
X145169057Y-141094542D01*
X145240485Y-140951685D01*
X145240485Y-140880257D01*
X145169057Y-140737400D01*
X145026200Y-140665971D01*
X144811914Y-140665971D01*
X144669057Y-140594542D01*
X144597628Y-140451685D01*
X144597628Y-140380257D01*
X144669057Y-140237400D01*
X144811914Y-140165971D01*
X145026200Y-140165971D01*
X145169057Y-140237400D01*
X145669057Y-140165971D02*
X146240485Y-140165971D01*
X145883342Y-139665971D02*
X145883342Y-140951685D01*
X145954771Y-141094542D01*
X146097628Y-141165971D01*
X146240485Y-141165971D01*
X147311914Y-141094542D02*
X147169057Y-141165971D01*
X146883342Y-141165971D01*
X146740485Y-141094542D01*
X146669057Y-140951685D01*
X146669057Y-140380257D01*
X146740485Y-140237400D01*
X146883342Y-140165971D01*
X147169057Y-140165971D01*
X147311914Y-140237400D01*
X147383342Y-140380257D01*
X147383342Y-140523114D01*
X146669057Y-140665971D01*
X148026200Y-141165971D02*
X148026200Y-140165971D01*
X148026200Y-140451685D02*
X148097628Y-140308828D01*
X148169057Y-140237400D01*
X148311914Y-140165971D01*
X148454771Y-140165971D01*
X148883342Y-141094542D02*
X149026200Y-141165971D01*
X149311914Y-141165971D01*
X149454771Y-141094542D01*
X149526200Y-140951685D01*
X149526200Y-140880257D01*
X149454771Y-140737400D01*
X149311914Y-140665971D01*
X149097628Y-140665971D01*
X148954771Y-140594542D01*
X148883342Y-140451685D01*
X148883342Y-140380257D01*
X148954771Y-140237400D01*
X149097628Y-140165971D01*
X149311914Y-140165971D01*
X149454771Y-140237400D01*
D12*
X110541600Y-142371900D02*
X110574933Y-142271900D01*
X110608266Y-142238566D01*
X110674933Y-142205233D01*
X110774933Y-142205233D01*
X110841600Y-142238566D01*
X110874933Y-142271900D01*
X110908266Y-142338566D01*
X110908266Y-142605233D01*
X110208266Y-142605233D01*
X110208266Y-142371900D01*
X110241600Y-142305233D01*
X110274933Y-142271900D01*
X110341600Y-142238566D01*
X110408266Y-142238566D01*
X110474933Y-142271900D01*
X110508266Y-142305233D01*
X110541600Y-142371900D01*
X110541600Y-142605233D01*
X110208266Y-141971900D02*
X110208266Y-141538566D01*
X110474933Y-141771900D01*
X110474933Y-141671900D01*
X110508266Y-141605233D01*
X110541600Y-141571900D01*
X110608266Y-141538566D01*
X110774933Y-141538566D01*
X110841600Y-141571900D01*
X110874933Y-141605233D01*
X110908266Y-141671900D01*
X110908266Y-141871900D01*
X110874933Y-141938566D01*
X110841600Y-141971900D01*
X103950300Y-142333800D02*
X103983633Y-142233800D01*
X104016966Y-142200466D01*
X104083633Y-142167133D01*
X104183633Y-142167133D01*
X104250300Y-142200466D01*
X104283633Y-142233800D01*
X104316966Y-142300466D01*
X104316966Y-142567133D01*
X103616966Y-142567133D01*
X103616966Y-142333800D01*
X103650300Y-142267133D01*
X103683633Y-142233800D01*
X103750300Y-142200466D01*
X103816966Y-142200466D01*
X103883633Y-142233800D01*
X103916966Y-142267133D01*
X103950300Y-142333800D01*
X103950300Y-142567133D01*
X103850300Y-141567133D02*
X104316966Y-141567133D01*
X103583633Y-141733800D02*
X104083633Y-141900466D01*
X104083633Y-141467133D01*
X117183700Y-142384600D02*
X117217033Y-142284600D01*
X117250366Y-142251266D01*
X117317033Y-142217933D01*
X117417033Y-142217933D01*
X117483700Y-142251266D01*
X117517033Y-142284600D01*
X117550366Y-142351266D01*
X117550366Y-142617933D01*
X116850366Y-142617933D01*
X116850366Y-142384600D01*
X116883700Y-142317933D01*
X116917033Y-142284600D01*
X116983700Y-142251266D01*
X117050366Y-142251266D01*
X117117033Y-142284600D01*
X117150366Y-142317933D01*
X117183700Y-142384600D01*
X117183700Y-142617933D01*
X116917033Y-141951266D02*
X116883700Y-141917933D01*
X116850366Y-141851266D01*
X116850366Y-141684600D01*
X116883700Y-141617933D01*
X116917033Y-141584600D01*
X116983700Y-141551266D01*
X117050366Y-141551266D01*
X117150366Y-141584600D01*
X117550366Y-141984600D01*
X117550366Y-141551266D01*
X90970900Y-142397300D02*
X91004233Y-142297300D01*
X91037566Y-142263966D01*
X91104233Y-142230633D01*
X91204233Y-142230633D01*
X91270900Y-142263966D01*
X91304233Y-142297300D01*
X91337566Y-142363966D01*
X91337566Y-142630633D01*
X90637566Y-142630633D01*
X90637566Y-142397300D01*
X90670900Y-142330633D01*
X90704233Y-142297300D01*
X90770900Y-142263966D01*
X90837566Y-142263966D01*
X90904233Y-142297300D01*
X90937566Y-142330633D01*
X90970900Y-142397300D01*
X90970900Y-142630633D01*
X90637566Y-141630633D02*
X90637566Y-141763966D01*
X90670900Y-141830633D01*
X90704233Y-141863966D01*
X90804233Y-141930633D01*
X90937566Y-141963966D01*
X91204233Y-141963966D01*
X91270900Y-141930633D01*
X91304233Y-141897300D01*
X91337566Y-141830633D01*
X91337566Y-141697300D01*
X91304233Y-141630633D01*
X91270900Y-141597300D01*
X91204233Y-141563966D01*
X91037566Y-141563966D01*
X90970900Y-141597300D01*
X90937566Y-141630633D01*
X90904233Y-141697300D01*
X90904233Y-141830633D01*
X90937566Y-141897300D01*
X90970900Y-141930633D01*
X91037566Y-141963966D01*
X97562200Y-142435400D02*
X97595533Y-142335400D01*
X97628866Y-142302066D01*
X97695533Y-142268733D01*
X97795533Y-142268733D01*
X97862200Y-142302066D01*
X97895533Y-142335400D01*
X97928866Y-142402066D01*
X97928866Y-142668733D01*
X97228866Y-142668733D01*
X97228866Y-142435400D01*
X97262200Y-142368733D01*
X97295533Y-142335400D01*
X97362200Y-142302066D01*
X97428866Y-142302066D01*
X97495533Y-142335400D01*
X97528866Y-142368733D01*
X97562200Y-142435400D01*
X97562200Y-142668733D01*
X97228866Y-141635400D02*
X97228866Y-141968733D01*
X97562200Y-142002066D01*
X97528866Y-141968733D01*
X97495533Y-141902066D01*
X97495533Y-141735400D01*
X97528866Y-141668733D01*
X97562200Y-141635400D01*
X97628866Y-141602066D01*
X97795533Y-141602066D01*
X97862200Y-141635400D01*
X97895533Y-141668733D01*
X97928866Y-141735400D01*
X97928866Y-141902066D01*
X97895533Y-141968733D01*
X97862200Y-142002066D01*
X84328800Y-142384600D02*
X84362133Y-142284600D01*
X84395466Y-142251266D01*
X84462133Y-142217933D01*
X84562133Y-142217933D01*
X84628800Y-142251266D01*
X84662133Y-142284600D01*
X84695466Y-142351266D01*
X84695466Y-142617933D01*
X83995466Y-142617933D01*
X83995466Y-142384600D01*
X84028800Y-142317933D01*
X84062133Y-142284600D01*
X84128800Y-142251266D01*
X84195466Y-142251266D01*
X84262133Y-142284600D01*
X84295466Y-142317933D01*
X84328800Y-142384600D01*
X84328800Y-142617933D01*
X83995466Y-141984600D02*
X83995466Y-141517933D01*
X84695466Y-141817933D01*
X77737500Y-142346500D02*
X77770833Y-142246500D01*
X77804166Y-142213166D01*
X77870833Y-142179833D01*
X77970833Y-142179833D01*
X78037500Y-142213166D01*
X78070833Y-142246500D01*
X78104166Y-142313166D01*
X78104166Y-142579833D01*
X77404166Y-142579833D01*
X77404166Y-142346500D01*
X77437500Y-142279833D01*
X77470833Y-142246500D01*
X77537500Y-142213166D01*
X77604166Y-142213166D01*
X77670833Y-142246500D01*
X77704166Y-142279833D01*
X77737500Y-142346500D01*
X77737500Y-142579833D01*
X77704166Y-141779833D02*
X77670833Y-141846500D01*
X77637500Y-141879833D01*
X77570833Y-141913166D01*
X77537500Y-141913166D01*
X77470833Y-141879833D01*
X77437500Y-141846500D01*
X77404166Y-141779833D01*
X77404166Y-141646500D01*
X77437500Y-141579833D01*
X77470833Y-141546500D01*
X77537500Y-141513166D01*
X77570833Y-141513166D01*
X77637500Y-141546500D01*
X77670833Y-141579833D01*
X77704166Y-141646500D01*
X77704166Y-141779833D01*
X77737500Y-141846500D01*
X77770833Y-141879833D01*
X77837500Y-141913166D01*
X77970833Y-141913166D01*
X78037500Y-141879833D01*
X78070833Y-141846500D01*
X78104166Y-141779833D01*
X78104166Y-141646500D01*
X78070833Y-141579833D01*
X78037500Y-141546500D01*
X77970833Y-141513166D01*
X77837500Y-141513166D01*
X77770833Y-141546500D01*
X77737500Y-141579833D01*
X77704166Y-141646500D01*
X123775000Y-142422700D02*
X123808333Y-142322700D01*
X123841666Y-142289366D01*
X123908333Y-142256033D01*
X124008333Y-142256033D01*
X124075000Y-142289366D01*
X124108333Y-142322700D01*
X124141666Y-142389366D01*
X124141666Y-142656033D01*
X123441666Y-142656033D01*
X123441666Y-142422700D01*
X123475000Y-142356033D01*
X123508333Y-142322700D01*
X123575000Y-142289366D01*
X123641666Y-142289366D01*
X123708333Y-142322700D01*
X123741666Y-142356033D01*
X123775000Y-142422700D01*
X123775000Y-142656033D01*
X124141666Y-141589366D02*
X124141666Y-141989366D01*
X124141666Y-141789366D02*
X123441666Y-141789366D01*
X123541666Y-141856033D01*
X123608333Y-141922700D01*
X123641666Y-141989366D01*
X84304966Y-114431866D02*
X84304966Y-114098533D01*
X84504966Y-114498533D02*
X83804966Y-114265200D01*
X84504966Y-114031866D01*
X83804966Y-113865200D02*
X83804966Y-113398533D01*
X84504966Y-113698533D01*
X77713666Y-114393766D02*
X77713666Y-114060433D01*
X77913666Y-114460433D02*
X77213666Y-114227100D01*
X77913666Y-113993766D01*
X77513666Y-113660433D02*
X77480333Y-113727100D01*
X77447000Y-113760433D01*
X77380333Y-113793766D01*
X77347000Y-113793766D01*
X77280333Y-113760433D01*
X77247000Y-113727100D01*
X77213666Y-113660433D01*
X77213666Y-113527100D01*
X77247000Y-113460433D01*
X77280333Y-113427100D01*
X77347000Y-113393766D01*
X77380333Y-113393766D01*
X77447000Y-113427100D01*
X77480333Y-113460433D01*
X77513666Y-113527100D01*
X77513666Y-113660433D01*
X77547000Y-113727100D01*
X77580333Y-113760433D01*
X77647000Y-113793766D01*
X77780333Y-113793766D01*
X77847000Y-113760433D01*
X77880333Y-113727100D01*
X77913666Y-113660433D01*
X77913666Y-113527100D01*
X77880333Y-113460433D01*
X77847000Y-113427100D01*
X77780333Y-113393766D01*
X77647000Y-113393766D01*
X77580333Y-113427100D01*
X77547000Y-113460433D01*
X77513666Y-113527100D01*
X90947066Y-114444566D02*
X90947066Y-114111233D01*
X91147066Y-114511233D02*
X90447066Y-114277900D01*
X91147066Y-114044566D01*
X90447066Y-113511233D02*
X90447066Y-113644566D01*
X90480400Y-113711233D01*
X90513733Y-113744566D01*
X90613733Y-113811233D01*
X90747066Y-113844566D01*
X91013733Y-113844566D01*
X91080400Y-113811233D01*
X91113733Y-113777900D01*
X91147066Y-113711233D01*
X91147066Y-113577900D01*
X91113733Y-113511233D01*
X91080400Y-113477900D01*
X91013733Y-113444566D01*
X90847066Y-113444566D01*
X90780400Y-113477900D01*
X90747066Y-113511233D01*
X90713733Y-113577900D01*
X90713733Y-113711233D01*
X90747066Y-113777900D01*
X90780400Y-113811233D01*
X90847066Y-113844566D01*
X97538366Y-114482666D02*
X97538366Y-114149333D01*
X97738366Y-114549333D02*
X97038366Y-114316000D01*
X97738366Y-114082666D01*
X97038366Y-113516000D02*
X97038366Y-113849333D01*
X97371700Y-113882666D01*
X97338366Y-113849333D01*
X97305033Y-113782666D01*
X97305033Y-113616000D01*
X97338366Y-113549333D01*
X97371700Y-113516000D01*
X97438366Y-113482666D01*
X97605033Y-113482666D01*
X97671700Y-113516000D01*
X97705033Y-113549333D01*
X97738366Y-113616000D01*
X97738366Y-113782666D01*
X97705033Y-113849333D01*
X97671700Y-113882666D01*
X103926466Y-114381066D02*
X103926466Y-114047733D01*
X104126466Y-114447733D02*
X103426466Y-114214400D01*
X104126466Y-113981066D01*
X103659800Y-113447733D02*
X104126466Y-113447733D01*
X103393133Y-113614400D02*
X103893133Y-113781066D01*
X103893133Y-113347733D01*
X110517766Y-114419166D02*
X110517766Y-114085833D01*
X110717766Y-114485833D02*
X110017766Y-114252500D01*
X110717766Y-114019166D01*
X110017766Y-113852500D02*
X110017766Y-113419166D01*
X110284433Y-113652500D01*
X110284433Y-113552500D01*
X110317766Y-113485833D01*
X110351100Y-113452500D01*
X110417766Y-113419166D01*
X110584433Y-113419166D01*
X110651100Y-113452500D01*
X110684433Y-113485833D01*
X110717766Y-113552500D01*
X110717766Y-113752500D01*
X110684433Y-113819166D01*
X110651100Y-113852500D01*
X117159866Y-114431866D02*
X117159866Y-114098533D01*
X117359866Y-114498533D02*
X116659866Y-114265200D01*
X117359866Y-114031866D01*
X116726533Y-113831866D02*
X116693200Y-113798533D01*
X116659866Y-113731866D01*
X116659866Y-113565200D01*
X116693200Y-113498533D01*
X116726533Y-113465200D01*
X116793200Y-113431866D01*
X116859866Y-113431866D01*
X116959866Y-113465200D01*
X117359866Y-113865200D01*
X117359866Y-113431866D01*
X123751166Y-114469966D02*
X123751166Y-114136633D01*
X123951166Y-114536633D02*
X123251166Y-114303300D01*
X123951166Y-114069966D01*
X123951166Y-113469966D02*
X123951166Y-113869966D01*
X123951166Y-113669966D02*
X123251166Y-113669966D01*
X123351166Y-113736633D01*
X123417833Y-113803300D01*
X123451166Y-113869966D01*
D10*
X149239314Y-141642314D02*
X149310742Y-141842314D01*
X149382171Y-141642314D01*
X149482171Y-141570885D02*
X149496457Y-141556600D01*
X149525028Y-141542314D01*
X149596457Y-141542314D01*
X149625028Y-141556600D01*
X149639314Y-141570885D01*
X149653600Y-141599457D01*
X149653600Y-141628028D01*
X149639314Y-141670885D01*
X149467885Y-141842314D01*
X149653600Y-141842314D01*
X130169628Y-142454328D02*
X130398200Y-142454328D01*
X130255342Y-142254328D02*
X130255342Y-142768614D01*
X130283914Y-142825757D01*
X130341057Y-142854328D01*
X130398200Y-142854328D01*
X130598200Y-142854328D02*
X130598200Y-142254328D01*
X130855342Y-142854328D02*
X130855342Y-142540042D01*
X130826771Y-142482900D01*
X130769628Y-142454328D01*
X130683914Y-142454328D01*
X130626771Y-142482900D01*
X130598200Y-142511471D01*
X131369628Y-142825757D02*
X131312485Y-142854328D01*
X131198200Y-142854328D01*
X131141057Y-142825757D01*
X131112485Y-142768614D01*
X131112485Y-142540042D01*
X131141057Y-142482900D01*
X131198200Y-142454328D01*
X131312485Y-142454328D01*
X131369628Y-142482900D01*
X131398200Y-142540042D01*
X131398200Y-142597185D01*
X131112485Y-142654328D01*
X131598200Y-142254328D02*
X131741057Y-142854328D01*
X131855342Y-142425757D01*
X131969628Y-142854328D01*
X132112485Y-142254328D01*
X132341057Y-142854328D02*
X132341057Y-142454328D01*
X132341057Y-142254328D02*
X132312485Y-142282900D01*
X132341057Y-142311471D01*
X132369628Y-142282900D01*
X132341057Y-142254328D01*
X132341057Y-142311471D01*
X132883914Y-142825757D02*
X132826771Y-142854328D01*
X132712485Y-142854328D01*
X132655342Y-142825757D01*
X132626771Y-142797185D01*
X132598200Y-142740042D01*
X132598200Y-142568614D01*
X132626771Y-142511471D01*
X132655342Y-142482900D01*
X132712485Y-142454328D01*
X132826771Y-142454328D01*
X132883914Y-142482900D01*
X133141057Y-142854328D02*
X133141057Y-142254328D01*
X133198200Y-142625757D02*
X133369628Y-142854328D01*
X133369628Y-142454328D02*
X133141057Y-142682900D01*
X133855342Y-142825757D02*
X133798200Y-142854328D01*
X133683914Y-142854328D01*
X133626771Y-142825757D01*
X133598200Y-142768614D01*
X133598200Y-142540042D01*
X133626771Y-142482900D01*
X133683914Y-142454328D01*
X133798200Y-142454328D01*
X133855342Y-142482900D01*
X133883914Y-142540042D01*
X133883914Y-142597185D01*
X133598200Y-142654328D01*
X134398200Y-142854328D02*
X134398200Y-142254328D01*
X134398200Y-142825757D02*
X134341057Y-142854328D01*
X134226771Y-142854328D01*
X134169628Y-142825757D01*
X134141057Y-142797185D01*
X134112485Y-142740042D01*
X134112485Y-142568614D01*
X134141057Y-142511471D01*
X134169628Y-142482900D01*
X134226771Y-142454328D01*
X134341057Y-142454328D01*
X134398200Y-142482900D01*
X134626771Y-142254328D02*
X134769628Y-142854328D01*
X134883914Y-142425757D01*
X134998200Y-142854328D01*
X135141057Y-142254328D01*
X135598200Y-142825757D02*
X135541057Y-142854328D01*
X135426771Y-142854328D01*
X135369628Y-142825757D01*
X135341057Y-142768614D01*
X135341057Y-142540042D01*
X135369628Y-142482900D01*
X135426771Y-142454328D01*
X135541057Y-142454328D01*
X135598200Y-142482900D01*
X135626771Y-142540042D01*
X135626771Y-142597185D01*
X135341057Y-142654328D01*
X135883914Y-142854328D02*
X135883914Y-142254328D01*
X135883914Y-142482900D02*
X135941057Y-142454328D01*
X136055342Y-142454328D01*
X136112485Y-142482900D01*
X136141057Y-142511471D01*
X136169628Y-142568614D01*
X136169628Y-142740042D01*
X136141057Y-142797185D01*
X136112485Y-142825757D01*
X136055342Y-142854328D01*
X135941057Y-142854328D01*
X135883914Y-142825757D01*
X136426771Y-142854328D02*
X136426771Y-142254328D01*
X136569628Y-142254328D01*
X136655342Y-142282900D01*
X136712485Y-142340042D01*
X136741057Y-142397185D01*
X136769628Y-142511471D01*
X136769628Y-142597185D01*
X136741057Y-142711471D01*
X136712485Y-142768614D01*
X136655342Y-142825757D01*
X136569628Y-142854328D01*
X136426771Y-142854328D01*
X137255342Y-142825757D02*
X137198200Y-142854328D01*
X137083914Y-142854328D01*
X137026771Y-142825757D01*
X136998200Y-142768614D01*
X136998200Y-142540042D01*
X137026771Y-142482900D01*
X137083914Y-142454328D01*
X137198200Y-142454328D01*
X137255342Y-142482900D01*
X137283914Y-142540042D01*
X137283914Y-142597185D01*
X136998200Y-142654328D01*
X137483914Y-142454328D02*
X137626771Y-142854328D01*
X137769628Y-142454328D01*
X138426771Y-142225757D02*
X137912485Y-142997185D01*
X138712485Y-142511471D02*
X138655342Y-142482900D01*
X138626771Y-142454328D01*
X138598200Y-142397185D01*
X138598200Y-142368614D01*
X138626771Y-142311471D01*
X138655342Y-142282900D01*
X138712485Y-142254328D01*
X138826771Y-142254328D01*
X138883914Y-142282900D01*
X138912485Y-142311471D01*
X138941057Y-142368614D01*
X138941057Y-142397185D01*
X138912485Y-142454328D01*
X138883914Y-142482900D01*
X138826771Y-142511471D01*
X138712485Y-142511471D01*
X138655342Y-142540042D01*
X138626771Y-142568614D01*
X138598200Y-142625757D01*
X138598200Y-142740042D01*
X138626771Y-142797185D01*
X138655342Y-142825757D01*
X138712485Y-142854328D01*
X138826771Y-142854328D01*
X138883914Y-142825757D01*
X138912485Y-142797185D01*
X138941057Y-142740042D01*
X138941057Y-142625757D01*
X138912485Y-142568614D01*
X138883914Y-142540042D01*
X138826771Y-142511471D01*
X139198200Y-142625757D02*
X139655342Y-142625757D01*
X139941057Y-142854328D02*
X139941057Y-142254328D01*
X139941057Y-142482900D02*
X139998200Y-142454328D01*
X140112485Y-142454328D01*
X140169628Y-142482900D01*
X140198200Y-142511471D01*
X140226771Y-142568614D01*
X140226771Y-142740042D01*
X140198200Y-142797185D01*
X140169628Y-142825757D01*
X140112485Y-142854328D01*
X139998200Y-142854328D01*
X139941057Y-142825757D01*
X140483914Y-142854328D02*
X140483914Y-142454328D01*
X140483914Y-142254328D02*
X140455342Y-142282900D01*
X140483914Y-142311471D01*
X140512485Y-142282900D01*
X140483914Y-142254328D01*
X140483914Y-142311471D01*
X140683914Y-142454328D02*
X140912485Y-142454328D01*
X140769628Y-142254328D02*
X140769628Y-142768614D01*
X140798200Y-142825757D01*
X140855342Y-142854328D01*
X140912485Y-142854328D01*
X141112485Y-142625757D02*
X141569628Y-142625757D01*
X142112485Y-142825757D02*
X142055342Y-142854328D01*
X141941057Y-142854328D01*
X141883914Y-142825757D01*
X141855342Y-142797185D01*
X141826771Y-142740042D01*
X141826771Y-142568614D01*
X141855342Y-142511471D01*
X141883914Y-142482900D01*
X141941057Y-142454328D01*
X142055342Y-142454328D01*
X142112485Y-142482900D01*
X142455342Y-142854328D02*
X142398200Y-142825757D01*
X142369628Y-142797185D01*
X142341057Y-142740042D01*
X142341057Y-142568614D01*
X142369628Y-142511471D01*
X142398200Y-142482900D01*
X142455342Y-142454328D01*
X142541057Y-142454328D01*
X142598200Y-142482900D01*
X142626771Y-142511471D01*
X142655342Y-142568614D01*
X142655342Y-142740042D01*
X142626771Y-142797185D01*
X142598200Y-142825757D01*
X142541057Y-142854328D01*
X142455342Y-142854328D01*
X142912485Y-142854328D02*
X142912485Y-142454328D01*
X142912485Y-142511471D02*
X142941057Y-142482900D01*
X142998200Y-142454328D01*
X143083914Y-142454328D01*
X143141057Y-142482900D01*
X143169628Y-142540042D01*
X143169628Y-142854328D01*
X143169628Y-142540042D02*
X143198200Y-142482900D01*
X143255342Y-142454328D01*
X143341057Y-142454328D01*
X143398200Y-142482900D01*
X143426771Y-142540042D01*
X143426771Y-142854328D01*
X143712485Y-142454328D02*
X143712485Y-143054328D01*
X143712485Y-142482900D02*
X143769628Y-142454328D01*
X143883914Y-142454328D01*
X143941057Y-142482900D01*
X143969628Y-142511471D01*
X143998200Y-142568614D01*
X143998200Y-142740042D01*
X143969628Y-142797185D01*
X143941057Y-142825757D01*
X143883914Y-142854328D01*
X143769628Y-142854328D01*
X143712485Y-142825757D01*
X144512485Y-142454328D02*
X144512485Y-142854328D01*
X144255342Y-142454328D02*
X144255342Y-142768614D01*
X144283914Y-142825757D01*
X144341057Y-142854328D01*
X144426771Y-142854328D01*
X144483914Y-142825757D01*
X144512485Y-142797185D01*
X144712485Y-142454328D02*
X144941057Y-142454328D01*
X144798200Y-142254328D02*
X144798200Y-142768614D01*
X144826771Y-142825757D01*
X144883914Y-142854328D01*
X144941057Y-142854328D01*
X145369628Y-142825757D02*
X145312485Y-142854328D01*
X145198200Y-142854328D01*
X145141057Y-142825757D01*
X145112485Y-142768614D01*
X145112485Y-142540042D01*
X145141057Y-142482900D01*
X145198200Y-142454328D01*
X145312485Y-142454328D01*
X145369628Y-142482900D01*
X145398200Y-142540042D01*
X145398200Y-142597185D01*
X145112485Y-142654328D01*
X145655342Y-142854328D02*
X145655342Y-142454328D01*
X145655342Y-142568614D02*
X145683914Y-142511471D01*
X145712485Y-142482900D01*
X145769628Y-142454328D01*
X145826771Y-142454328D01*
D12*
X84389495Y-132022090D02*
X84675209Y-132022090D01*
X84532352Y-132522090D02*
X84532352Y-132022090D01*
X84841876Y-132522090D02*
X84841876Y-132188757D01*
X84841876Y-132283995D02*
X84865685Y-132236376D01*
X84889495Y-132212566D01*
X84937114Y-132188757D01*
X84984733Y-132188757D01*
X85151400Y-132522090D02*
X85151400Y-132188757D01*
X85151400Y-132022090D02*
X85127590Y-132045900D01*
X85151400Y-132069709D01*
X85175209Y-132045900D01*
X85151400Y-132022090D01*
X85151400Y-132069709D01*
X85389495Y-132331614D02*
X85770447Y-132331614D01*
X85984733Y-132498280D02*
X86056161Y-132522090D01*
X86175209Y-132522090D01*
X86222828Y-132498280D01*
X86246638Y-132474471D01*
X86270447Y-132426852D01*
X86270447Y-132379233D01*
X86246638Y-132331614D01*
X86222828Y-132307804D01*
X86175209Y-132283995D01*
X86079971Y-132260185D01*
X86032352Y-132236376D01*
X86008542Y-132212566D01*
X85984733Y-132164947D01*
X85984733Y-132117328D01*
X86008542Y-132069709D01*
X86032352Y-132045900D01*
X86079971Y-132022090D01*
X86199019Y-132022090D01*
X86270447Y-132045900D01*
X86413304Y-132188757D02*
X86603780Y-132188757D01*
X86484733Y-132022090D02*
X86484733Y-132450661D01*
X86508542Y-132498280D01*
X86556161Y-132522090D01*
X86603780Y-132522090D01*
X86984733Y-132522090D02*
X86984733Y-132260185D01*
X86960923Y-132212566D01*
X86913304Y-132188757D01*
X86818066Y-132188757D01*
X86770447Y-132212566D01*
X86984733Y-132498280D02*
X86937114Y-132522090D01*
X86818066Y-132522090D01*
X86770447Y-132498280D01*
X86746638Y-132450661D01*
X86746638Y-132403042D01*
X86770447Y-132355423D01*
X86818066Y-132331614D01*
X86937114Y-132331614D01*
X86984733Y-132307804D01*
X87151400Y-132188757D02*
X87341876Y-132188757D01*
X87222828Y-132022090D02*
X87222828Y-132450661D01*
X87246638Y-132498280D01*
X87294257Y-132522090D01*
X87341876Y-132522090D01*
X87699019Y-132498280D02*
X87651400Y-132522090D01*
X87556161Y-132522090D01*
X87508542Y-132498280D01*
X87484733Y-132450661D01*
X87484733Y-132260185D01*
X87508542Y-132212566D01*
X87556161Y-132188757D01*
X87651400Y-132188757D01*
X87699019Y-132212566D01*
X87722828Y-132260185D01*
X87722828Y-132307804D01*
X87484733Y-132355423D01*
X88484733Y-132260185D02*
X88556161Y-132283995D01*
X88579971Y-132307804D01*
X88603780Y-132355423D01*
X88603780Y-132426852D01*
X88579971Y-132474471D01*
X88556161Y-132498280D01*
X88508542Y-132522090D01*
X88318066Y-132522090D01*
X88318066Y-132022090D01*
X88484733Y-132022090D01*
X88532352Y-132045900D01*
X88556161Y-132069709D01*
X88579971Y-132117328D01*
X88579971Y-132164947D01*
X88556161Y-132212566D01*
X88532352Y-132236376D01*
X88484733Y-132260185D01*
X88318066Y-132260185D01*
X89032352Y-132188757D02*
X89032352Y-132522090D01*
X88818066Y-132188757D02*
X88818066Y-132450661D01*
X88841876Y-132498280D01*
X88889495Y-132522090D01*
X88960923Y-132522090D01*
X89008542Y-132498280D01*
X89032352Y-132474471D01*
X89199019Y-132188757D02*
X89389495Y-132188757D01*
X89270447Y-132522090D02*
X89270447Y-132093519D01*
X89294257Y-132045900D01*
X89341876Y-132022090D01*
X89389495Y-132022090D01*
X89484733Y-132188757D02*
X89675209Y-132188757D01*
X89556161Y-132522090D02*
X89556161Y-132093519D01*
X89579971Y-132045900D01*
X89627590Y-132022090D01*
X89675209Y-132022090D01*
X90032352Y-132498280D02*
X89984733Y-132522090D01*
X89889495Y-132522090D01*
X89841876Y-132498280D01*
X89818066Y-132450661D01*
X89818066Y-132260185D01*
X89841876Y-132212566D01*
X89889495Y-132188757D01*
X89984733Y-132188757D01*
X90032352Y-132212566D01*
X90056161Y-132260185D01*
X90056161Y-132307804D01*
X89818066Y-132355423D01*
X90270447Y-132522090D02*
X90270447Y-132188757D01*
X90270447Y-132283995D02*
X90294257Y-132236376D01*
X90318066Y-132212566D01*
X90365685Y-132188757D01*
X90413304Y-132188757D01*
X84300595Y-103535990D02*
X84586309Y-103535990D01*
X84443452Y-104035990D02*
X84443452Y-103535990D01*
X84752976Y-104035990D02*
X84752976Y-103702657D01*
X84752976Y-103797895D02*
X84776785Y-103750276D01*
X84800595Y-103726466D01*
X84848214Y-103702657D01*
X84895833Y-103702657D01*
X85062500Y-104035990D02*
X85062500Y-103702657D01*
X85062500Y-103535990D02*
X85038690Y-103559800D01*
X85062500Y-103583609D01*
X85086309Y-103559800D01*
X85062500Y-103535990D01*
X85062500Y-103583609D01*
X85300595Y-103845514D02*
X85681547Y-103845514D01*
X85895833Y-104012180D02*
X85967261Y-104035990D01*
X86086309Y-104035990D01*
X86133928Y-104012180D01*
X86157738Y-103988371D01*
X86181547Y-103940752D01*
X86181547Y-103893133D01*
X86157738Y-103845514D01*
X86133928Y-103821704D01*
X86086309Y-103797895D01*
X85991071Y-103774085D01*
X85943452Y-103750276D01*
X85919642Y-103726466D01*
X85895833Y-103678847D01*
X85895833Y-103631228D01*
X85919642Y-103583609D01*
X85943452Y-103559800D01*
X85991071Y-103535990D01*
X86110119Y-103535990D01*
X86181547Y-103559800D01*
X86324404Y-103702657D02*
X86514880Y-103702657D01*
X86395833Y-103535990D02*
X86395833Y-103964561D01*
X86419642Y-104012180D01*
X86467261Y-104035990D01*
X86514880Y-104035990D01*
X86895833Y-104035990D02*
X86895833Y-103774085D01*
X86872023Y-103726466D01*
X86824404Y-103702657D01*
X86729166Y-103702657D01*
X86681547Y-103726466D01*
X86895833Y-104012180D02*
X86848214Y-104035990D01*
X86729166Y-104035990D01*
X86681547Y-104012180D01*
X86657738Y-103964561D01*
X86657738Y-103916942D01*
X86681547Y-103869323D01*
X86729166Y-103845514D01*
X86848214Y-103845514D01*
X86895833Y-103821704D01*
X87062500Y-103702657D02*
X87252976Y-103702657D01*
X87133928Y-103535990D02*
X87133928Y-103964561D01*
X87157738Y-104012180D01*
X87205357Y-104035990D01*
X87252976Y-104035990D01*
X87610119Y-104012180D02*
X87562500Y-104035990D01*
X87467261Y-104035990D01*
X87419642Y-104012180D01*
X87395833Y-103964561D01*
X87395833Y-103774085D01*
X87419642Y-103726466D01*
X87467261Y-103702657D01*
X87562500Y-103702657D01*
X87610119Y-103726466D01*
X87633928Y-103774085D01*
X87633928Y-103821704D01*
X87395833Y-103869323D01*
X88395833Y-103774085D02*
X88467261Y-103797895D01*
X88491071Y-103821704D01*
X88514880Y-103869323D01*
X88514880Y-103940752D01*
X88491071Y-103988371D01*
X88467261Y-104012180D01*
X88419642Y-104035990D01*
X88229166Y-104035990D01*
X88229166Y-103535990D01*
X88395833Y-103535990D01*
X88443452Y-103559800D01*
X88467261Y-103583609D01*
X88491071Y-103631228D01*
X88491071Y-103678847D01*
X88467261Y-103726466D01*
X88443452Y-103750276D01*
X88395833Y-103774085D01*
X88229166Y-103774085D01*
X88943452Y-103702657D02*
X88943452Y-104035990D01*
X88729166Y-103702657D02*
X88729166Y-103964561D01*
X88752976Y-104012180D01*
X88800595Y-104035990D01*
X88872023Y-104035990D01*
X88919642Y-104012180D01*
X88943452Y-103988371D01*
X89110119Y-103702657D02*
X89300595Y-103702657D01*
X89181547Y-104035990D02*
X89181547Y-103607419D01*
X89205357Y-103559800D01*
X89252976Y-103535990D01*
X89300595Y-103535990D01*
X89395833Y-103702657D02*
X89586309Y-103702657D01*
X89467261Y-104035990D02*
X89467261Y-103607419D01*
X89491071Y-103559800D01*
X89538690Y-103535990D01*
X89586309Y-103535990D01*
X89943452Y-104012180D02*
X89895833Y-104035990D01*
X89800595Y-104035990D01*
X89752976Y-104012180D01*
X89729166Y-103964561D01*
X89729166Y-103774085D01*
X89752976Y-103726466D01*
X89800595Y-103702657D01*
X89895833Y-103702657D01*
X89943452Y-103726466D01*
X89967261Y-103774085D01*
X89967261Y-103821704D01*
X89729166Y-103869323D01*
X90181547Y-104035990D02*
X90181547Y-103702657D01*
X90181547Y-103797895D02*
X90205357Y-103750276D01*
X90229166Y-103726466D01*
X90276785Y-103702657D01*
X90324404Y-103702657D01*
X113570795Y-132061757D02*
X113570795Y-132395090D01*
X113451747Y-131871280D02*
X113332700Y-132228423D01*
X113642223Y-132228423D01*
X113832700Y-132395090D02*
X113832700Y-131895090D01*
X113832700Y-132085566D02*
X113880319Y-132061757D01*
X113975557Y-132061757D01*
X114023176Y-132085566D01*
X114046985Y-132109376D01*
X114070795Y-132156995D01*
X114070795Y-132299852D01*
X114046985Y-132347471D01*
X114023176Y-132371280D01*
X113975557Y-132395090D01*
X113880319Y-132395090D01*
X113832700Y-132371280D01*
X114285080Y-132395090D02*
X114285080Y-132061757D01*
X114285080Y-131895090D02*
X114261271Y-131918900D01*
X114285080Y-131942709D01*
X114308890Y-131918900D01*
X114285080Y-131895090D01*
X114285080Y-131942709D01*
X114451747Y-132061757D02*
X114642223Y-132061757D01*
X114523176Y-131895090D02*
X114523176Y-132323661D01*
X114546985Y-132371280D01*
X114594604Y-132395090D01*
X114642223Y-132395090D01*
X115166033Y-132371280D02*
X115237461Y-132395090D01*
X115356509Y-132395090D01*
X115404128Y-132371280D01*
X115427938Y-132347471D01*
X115451747Y-132299852D01*
X115451747Y-132252233D01*
X115427938Y-132204614D01*
X115404128Y-132180804D01*
X115356509Y-132156995D01*
X115261271Y-132133185D01*
X115213652Y-132109376D01*
X115189842Y-132085566D01*
X115166033Y-132037947D01*
X115166033Y-131990328D01*
X115189842Y-131942709D01*
X115213652Y-131918900D01*
X115261271Y-131895090D01*
X115380319Y-131895090D01*
X115451747Y-131918900D01*
X115594604Y-132061757D02*
X115785080Y-132061757D01*
X115666033Y-131895090D02*
X115666033Y-132323661D01*
X115689842Y-132371280D01*
X115737461Y-132395090D01*
X115785080Y-132395090D01*
X116023176Y-132395090D02*
X115975557Y-132371280D01*
X115951747Y-132347471D01*
X115927938Y-132299852D01*
X115927938Y-132156995D01*
X115951747Y-132109376D01*
X115975557Y-132085566D01*
X116023176Y-132061757D01*
X116094604Y-132061757D01*
X116142223Y-132085566D01*
X116166033Y-132109376D01*
X116189842Y-132156995D01*
X116189842Y-132299852D01*
X116166033Y-132347471D01*
X116142223Y-132371280D01*
X116094604Y-132395090D01*
X116023176Y-132395090D01*
X116404128Y-132395090D02*
X116404128Y-132061757D01*
X116404128Y-132156995D02*
X116427938Y-132109376D01*
X116451747Y-132085566D01*
X116499366Y-132061757D01*
X116546985Y-132061757D01*
X116927938Y-132395090D02*
X116927938Y-132133185D01*
X116904128Y-132085566D01*
X116856509Y-132061757D01*
X116761271Y-132061757D01*
X116713652Y-132085566D01*
X116927938Y-132371280D02*
X116880319Y-132395090D01*
X116761271Y-132395090D01*
X116713652Y-132371280D01*
X116689842Y-132323661D01*
X116689842Y-132276042D01*
X116713652Y-132228423D01*
X116761271Y-132204614D01*
X116880319Y-132204614D01*
X116927938Y-132180804D01*
X117380319Y-132061757D02*
X117380319Y-132466519D01*
X117356509Y-132514138D01*
X117332700Y-132537947D01*
X117285080Y-132561757D01*
X117213652Y-132561757D01*
X117166033Y-132537947D01*
X117380319Y-132371280D02*
X117332700Y-132395090D01*
X117237461Y-132395090D01*
X117189842Y-132371280D01*
X117166033Y-132347471D01*
X117142223Y-132299852D01*
X117142223Y-132156995D01*
X117166033Y-132109376D01*
X117189842Y-132085566D01*
X117237461Y-132061757D01*
X117332700Y-132061757D01*
X117380319Y-132085566D01*
X117808890Y-132371280D02*
X117761271Y-132395090D01*
X117666033Y-132395090D01*
X117618414Y-132371280D01*
X117594604Y-132323661D01*
X117594604Y-132133185D01*
X117618414Y-132085566D01*
X117666033Y-132061757D01*
X117761271Y-132061757D01*
X117808890Y-132085566D01*
X117832700Y-132133185D01*
X117832700Y-132180804D01*
X117594604Y-132228423D01*
X137675395Y-132023657D02*
X137675395Y-132356990D01*
X137556347Y-131833180D02*
X137437300Y-132190323D01*
X137746823Y-132190323D01*
X137937300Y-132356990D02*
X137937300Y-131856990D01*
X137937300Y-132047466D02*
X137984919Y-132023657D01*
X138080157Y-132023657D01*
X138127776Y-132047466D01*
X138151585Y-132071276D01*
X138175395Y-132118895D01*
X138175395Y-132261752D01*
X138151585Y-132309371D01*
X138127776Y-132333180D01*
X138080157Y-132356990D01*
X137984919Y-132356990D01*
X137937300Y-132333180D01*
X138389680Y-132356990D02*
X138389680Y-132023657D01*
X138389680Y-131856990D02*
X138365871Y-131880800D01*
X138389680Y-131904609D01*
X138413490Y-131880800D01*
X138389680Y-131856990D01*
X138389680Y-131904609D01*
X138556347Y-132023657D02*
X138746823Y-132023657D01*
X138627776Y-131856990D02*
X138627776Y-132285561D01*
X138651585Y-132333180D01*
X138699204Y-132356990D01*
X138746823Y-132356990D01*
X139270633Y-132333180D02*
X139342061Y-132356990D01*
X139461109Y-132356990D01*
X139508728Y-132333180D01*
X139532538Y-132309371D01*
X139556347Y-132261752D01*
X139556347Y-132214133D01*
X139532538Y-132166514D01*
X139508728Y-132142704D01*
X139461109Y-132118895D01*
X139365871Y-132095085D01*
X139318252Y-132071276D01*
X139294442Y-132047466D01*
X139270633Y-131999847D01*
X139270633Y-131952228D01*
X139294442Y-131904609D01*
X139318252Y-131880800D01*
X139365871Y-131856990D01*
X139484919Y-131856990D01*
X139556347Y-131880800D01*
X139699204Y-132023657D02*
X139889680Y-132023657D01*
X139770633Y-131856990D02*
X139770633Y-132285561D01*
X139794442Y-132333180D01*
X139842061Y-132356990D01*
X139889680Y-132356990D01*
X140127776Y-132356990D02*
X140080157Y-132333180D01*
X140056347Y-132309371D01*
X140032538Y-132261752D01*
X140032538Y-132118895D01*
X140056347Y-132071276D01*
X140080157Y-132047466D01*
X140127776Y-132023657D01*
X140199204Y-132023657D01*
X140246823Y-132047466D01*
X140270633Y-132071276D01*
X140294442Y-132118895D01*
X140294442Y-132261752D01*
X140270633Y-132309371D01*
X140246823Y-132333180D01*
X140199204Y-132356990D01*
X140127776Y-132356990D01*
X140508728Y-132356990D02*
X140508728Y-132023657D01*
X140508728Y-132118895D02*
X140532538Y-132071276D01*
X140556347Y-132047466D01*
X140603966Y-132023657D01*
X140651585Y-132023657D01*
X141032538Y-132356990D02*
X141032538Y-132095085D01*
X141008728Y-132047466D01*
X140961109Y-132023657D01*
X140865871Y-132023657D01*
X140818252Y-132047466D01*
X141032538Y-132333180D02*
X140984919Y-132356990D01*
X140865871Y-132356990D01*
X140818252Y-132333180D01*
X140794442Y-132285561D01*
X140794442Y-132237942D01*
X140818252Y-132190323D01*
X140865871Y-132166514D01*
X140984919Y-132166514D01*
X141032538Y-132142704D01*
X141484919Y-132023657D02*
X141484919Y-132428419D01*
X141461109Y-132476038D01*
X141437300Y-132499847D01*
X141389680Y-132523657D01*
X141318252Y-132523657D01*
X141270633Y-132499847D01*
X141484919Y-132333180D02*
X141437300Y-132356990D01*
X141342061Y-132356990D01*
X141294442Y-132333180D01*
X141270633Y-132309371D01*
X141246823Y-132261752D01*
X141246823Y-132118895D01*
X141270633Y-132071276D01*
X141294442Y-132047466D01*
X141342061Y-132023657D01*
X141437300Y-132023657D01*
X141484919Y-132047466D01*
X141913490Y-132333180D02*
X141865871Y-132356990D01*
X141770633Y-132356990D01*
X141723014Y-132333180D01*
X141699204Y-132285561D01*
X141699204Y-132095085D01*
X141723014Y-132047466D01*
X141770633Y-132023657D01*
X141865871Y-132023657D01*
X141913490Y-132047466D01*
X141937300Y-132095085D01*
X141937300Y-132142704D01*
X141699204Y-132190323D01*
X137713495Y-104020157D02*
X137713495Y-104353490D01*
X137594447Y-103829680D02*
X137475400Y-104186823D01*
X137784923Y-104186823D01*
X137975400Y-104353490D02*
X137975400Y-103853490D01*
X137975400Y-104043966D02*
X138023019Y-104020157D01*
X138118257Y-104020157D01*
X138165876Y-104043966D01*
X138189685Y-104067776D01*
X138213495Y-104115395D01*
X138213495Y-104258252D01*
X138189685Y-104305871D01*
X138165876Y-104329680D01*
X138118257Y-104353490D01*
X138023019Y-104353490D01*
X137975400Y-104329680D01*
X138427780Y-104353490D02*
X138427780Y-104020157D01*
X138427780Y-103853490D02*
X138403971Y-103877300D01*
X138427780Y-103901109D01*
X138451590Y-103877300D01*
X138427780Y-103853490D01*
X138427780Y-103901109D01*
X138594447Y-104020157D02*
X138784923Y-104020157D01*
X138665876Y-103853490D02*
X138665876Y-104282061D01*
X138689685Y-104329680D01*
X138737304Y-104353490D01*
X138784923Y-104353490D01*
X139308733Y-104329680D02*
X139380161Y-104353490D01*
X139499209Y-104353490D01*
X139546828Y-104329680D01*
X139570638Y-104305871D01*
X139594447Y-104258252D01*
X139594447Y-104210633D01*
X139570638Y-104163014D01*
X139546828Y-104139204D01*
X139499209Y-104115395D01*
X139403971Y-104091585D01*
X139356352Y-104067776D01*
X139332542Y-104043966D01*
X139308733Y-103996347D01*
X139308733Y-103948728D01*
X139332542Y-103901109D01*
X139356352Y-103877300D01*
X139403971Y-103853490D01*
X139523019Y-103853490D01*
X139594447Y-103877300D01*
X139737304Y-104020157D02*
X139927780Y-104020157D01*
X139808733Y-103853490D02*
X139808733Y-104282061D01*
X139832542Y-104329680D01*
X139880161Y-104353490D01*
X139927780Y-104353490D01*
X140165876Y-104353490D02*
X140118257Y-104329680D01*
X140094447Y-104305871D01*
X140070638Y-104258252D01*
X140070638Y-104115395D01*
X140094447Y-104067776D01*
X140118257Y-104043966D01*
X140165876Y-104020157D01*
X140237304Y-104020157D01*
X140284923Y-104043966D01*
X140308733Y-104067776D01*
X140332542Y-104115395D01*
X140332542Y-104258252D01*
X140308733Y-104305871D01*
X140284923Y-104329680D01*
X140237304Y-104353490D01*
X140165876Y-104353490D01*
X140546828Y-104353490D02*
X140546828Y-104020157D01*
X140546828Y-104115395D02*
X140570638Y-104067776D01*
X140594447Y-104043966D01*
X140642066Y-104020157D01*
X140689685Y-104020157D01*
X141070638Y-104353490D02*
X141070638Y-104091585D01*
X141046828Y-104043966D01*
X140999209Y-104020157D01*
X140903971Y-104020157D01*
X140856352Y-104043966D01*
X141070638Y-104329680D02*
X141023019Y-104353490D01*
X140903971Y-104353490D01*
X140856352Y-104329680D01*
X140832542Y-104282061D01*
X140832542Y-104234442D01*
X140856352Y-104186823D01*
X140903971Y-104163014D01*
X141023019Y-104163014D01*
X141070638Y-104139204D01*
X141523019Y-104020157D02*
X141523019Y-104424919D01*
X141499209Y-104472538D01*
X141475400Y-104496347D01*
X141427780Y-104520157D01*
X141356352Y-104520157D01*
X141308733Y-104496347D01*
X141523019Y-104329680D02*
X141475400Y-104353490D01*
X141380161Y-104353490D01*
X141332542Y-104329680D01*
X141308733Y-104305871D01*
X141284923Y-104258252D01*
X141284923Y-104115395D01*
X141308733Y-104067776D01*
X141332542Y-104043966D01*
X141380161Y-104020157D01*
X141475400Y-104020157D01*
X141523019Y-104043966D01*
X141951590Y-104329680D02*
X141903971Y-104353490D01*
X141808733Y-104353490D01*
X141761114Y-104329680D01*
X141737304Y-104282061D01*
X141737304Y-104091585D01*
X141761114Y-104043966D01*
X141808733Y-104020157D01*
X141903971Y-104020157D01*
X141951590Y-104043966D01*
X141975400Y-104091585D01*
X141975400Y-104139204D01*
X141737304Y-104186823D01*
X113608895Y-104058257D02*
X113608895Y-104391590D01*
X113489847Y-103867780D02*
X113370800Y-104224923D01*
X113680323Y-104224923D01*
X113870800Y-104391590D02*
X113870800Y-103891590D01*
X113870800Y-104082066D02*
X113918419Y-104058257D01*
X114013657Y-104058257D01*
X114061276Y-104082066D01*
X114085085Y-104105876D01*
X114108895Y-104153495D01*
X114108895Y-104296352D01*
X114085085Y-104343971D01*
X114061276Y-104367780D01*
X114013657Y-104391590D01*
X113918419Y-104391590D01*
X113870800Y-104367780D01*
X114323180Y-104391590D02*
X114323180Y-104058257D01*
X114323180Y-103891590D02*
X114299371Y-103915400D01*
X114323180Y-103939209D01*
X114346990Y-103915400D01*
X114323180Y-103891590D01*
X114323180Y-103939209D01*
X114489847Y-104058257D02*
X114680323Y-104058257D01*
X114561276Y-103891590D02*
X114561276Y-104320161D01*
X114585085Y-104367780D01*
X114632704Y-104391590D01*
X114680323Y-104391590D01*
X115204133Y-104367780D02*
X115275561Y-104391590D01*
X115394609Y-104391590D01*
X115442228Y-104367780D01*
X115466038Y-104343971D01*
X115489847Y-104296352D01*
X115489847Y-104248733D01*
X115466038Y-104201114D01*
X115442228Y-104177304D01*
X115394609Y-104153495D01*
X115299371Y-104129685D01*
X115251752Y-104105876D01*
X115227942Y-104082066D01*
X115204133Y-104034447D01*
X115204133Y-103986828D01*
X115227942Y-103939209D01*
X115251752Y-103915400D01*
X115299371Y-103891590D01*
X115418419Y-103891590D01*
X115489847Y-103915400D01*
X115632704Y-104058257D02*
X115823180Y-104058257D01*
X115704133Y-103891590D02*
X115704133Y-104320161D01*
X115727942Y-104367780D01*
X115775561Y-104391590D01*
X115823180Y-104391590D01*
X116061276Y-104391590D02*
X116013657Y-104367780D01*
X115989847Y-104343971D01*
X115966038Y-104296352D01*
X115966038Y-104153495D01*
X115989847Y-104105876D01*
X116013657Y-104082066D01*
X116061276Y-104058257D01*
X116132704Y-104058257D01*
X116180323Y-104082066D01*
X116204133Y-104105876D01*
X116227942Y-104153495D01*
X116227942Y-104296352D01*
X116204133Y-104343971D01*
X116180323Y-104367780D01*
X116132704Y-104391590D01*
X116061276Y-104391590D01*
X116442228Y-104391590D02*
X116442228Y-104058257D01*
X116442228Y-104153495D02*
X116466038Y-104105876D01*
X116489847Y-104082066D01*
X116537466Y-104058257D01*
X116585085Y-104058257D01*
X116966038Y-104391590D02*
X116966038Y-104129685D01*
X116942228Y-104082066D01*
X116894609Y-104058257D01*
X116799371Y-104058257D01*
X116751752Y-104082066D01*
X116966038Y-104367780D02*
X116918419Y-104391590D01*
X116799371Y-104391590D01*
X116751752Y-104367780D01*
X116727942Y-104320161D01*
X116727942Y-104272542D01*
X116751752Y-104224923D01*
X116799371Y-104201114D01*
X116918419Y-104201114D01*
X116966038Y-104177304D01*
X117418419Y-104058257D02*
X117418419Y-104463019D01*
X117394609Y-104510638D01*
X117370800Y-104534447D01*
X117323180Y-104558257D01*
X117251752Y-104558257D01*
X117204133Y-104534447D01*
X117418419Y-104367780D02*
X117370800Y-104391590D01*
X117275561Y-104391590D01*
X117227942Y-104367780D01*
X117204133Y-104343971D01*
X117180323Y-104296352D01*
X117180323Y-104153495D01*
X117204133Y-104105876D01*
X117227942Y-104082066D01*
X117275561Y-104058257D01*
X117370800Y-104058257D01*
X117418419Y-104082066D01*
X117846990Y-104367780D02*
X117799371Y-104391590D01*
X117704133Y-104391590D01*
X117656514Y-104367780D01*
X117632704Y-104320161D01*
X117632704Y-104129685D01*
X117656514Y-104082066D01*
X117704133Y-104058257D01*
X117799371Y-104058257D01*
X117846990Y-104082066D01*
X117870800Y-104129685D01*
X117870800Y-104177304D01*
X117632704Y-104224923D01*
D11*
X149834600Y-92227400D02*
X149834600Y-93345000D01*
X74485500Y-92227400D02*
X74485500Y-93345000D01*
X111912819Y-92496419D02*
X111546152Y-91972609D01*
X111284247Y-92496419D02*
X111284247Y-91396419D01*
X111703295Y-91396419D01*
X111808057Y-91448800D01*
X111860438Y-91501180D01*
X111912819Y-91605942D01*
X111912819Y-91763085D01*
X111860438Y-91867847D01*
X111808057Y-91920228D01*
X111703295Y-91972609D01*
X111284247Y-91972609D01*
X112803295Y-92444038D02*
X112698533Y-92496419D01*
X112489009Y-92496419D01*
X112384247Y-92444038D01*
X112331866Y-92339276D01*
X112331866Y-91920228D01*
X112384247Y-91815466D01*
X112489009Y-91763085D01*
X112698533Y-91763085D01*
X112803295Y-91815466D01*
X112855676Y-91920228D01*
X112855676Y-92024990D01*
X112331866Y-92129752D01*
X113798533Y-91763085D02*
X113798533Y-92653561D01*
X113746152Y-92758323D01*
X113693771Y-92810704D01*
X113589009Y-92863085D01*
X113431866Y-92863085D01*
X113327104Y-92810704D01*
X113798533Y-92444038D02*
X113693771Y-92496419D01*
X113484247Y-92496419D01*
X113379485Y-92444038D01*
X113327104Y-92391657D01*
X113274723Y-92286895D01*
X113274723Y-91972609D01*
X113327104Y-91867847D01*
X113379485Y-91815466D01*
X113484247Y-91763085D01*
X113693771Y-91763085D01*
X113798533Y-91815466D01*
X114322342Y-92496419D02*
X114322342Y-91763085D01*
X114322342Y-91396419D02*
X114269961Y-91448800D01*
X114322342Y-91501180D01*
X114374723Y-91448800D01*
X114322342Y-91396419D01*
X114322342Y-91501180D01*
X114793771Y-92444038D02*
X114898533Y-92496419D01*
X115108057Y-92496419D01*
X115212819Y-92444038D01*
X115265200Y-92339276D01*
X115265200Y-92286895D01*
X115212819Y-92182133D01*
X115108057Y-92129752D01*
X114950914Y-92129752D01*
X114846152Y-92077371D01*
X114793771Y-91972609D01*
X114793771Y-91920228D01*
X114846152Y-91815466D01*
X114950914Y-91763085D01*
X115108057Y-91763085D01*
X115212819Y-91815466D01*
X115579485Y-91763085D02*
X115998533Y-91763085D01*
X115736628Y-91396419D02*
X115736628Y-92339276D01*
X115789009Y-92444038D01*
X115893771Y-92496419D01*
X115998533Y-92496419D01*
X116784247Y-92444038D02*
X116679485Y-92496419D01*
X116469961Y-92496419D01*
X116365200Y-92444038D01*
X116312819Y-92339276D01*
X116312819Y-91920228D01*
X116365200Y-91815466D01*
X116469961Y-91763085D01*
X116679485Y-91763085D01*
X116784247Y-91815466D01*
X116836628Y-91920228D01*
X116836628Y-92024990D01*
X116312819Y-92129752D01*
X117308057Y-92496419D02*
X117308057Y-91763085D01*
X117308057Y-91972609D02*
X117360438Y-91867847D01*
X117412819Y-91815466D01*
X117517580Y-91763085D01*
X117622342Y-91763085D01*
X118774723Y-92182133D02*
X119298533Y-92182133D01*
X118669961Y-92496419D02*
X119036628Y-91396419D01*
X119403295Y-92496419D01*
X74485500Y-92227400D02*
X104381300Y-92227400D01*
D12*
X100678490Y-128178523D02*
X100678490Y-127845190D01*
X101178490Y-128059476D01*
X100845157Y-127440428D02*
X101178490Y-127440428D01*
X100654680Y-127559476D02*
X101011823Y-127678523D01*
X101011823Y-127369000D01*
X101178490Y-126940428D02*
X101178490Y-127178523D01*
X100678490Y-127178523D01*
X101154680Y-126797571D02*
X101178490Y-126726142D01*
X101178490Y-126607095D01*
X101154680Y-126559476D01*
X101130871Y-126535666D01*
X101083252Y-126511857D01*
X101035633Y-126511857D01*
X100988014Y-126535666D01*
X100964204Y-126559476D01*
X100940395Y-126607095D01*
X100916585Y-126702333D01*
X100892776Y-126749952D01*
X100868966Y-126773761D01*
X100821347Y-126797571D01*
X100773728Y-126797571D01*
X100726109Y-126773761D01*
X100702300Y-126749952D01*
X100678490Y-126702333D01*
X100678490Y-126583285D01*
X100702300Y-126511857D01*
X100726109Y-126321380D02*
X100702300Y-126297571D01*
X100678490Y-126249952D01*
X100678490Y-126130904D01*
X100702300Y-126083285D01*
X100726109Y-126059476D01*
X100773728Y-126035666D01*
X100821347Y-126035666D01*
X100892776Y-126059476D01*
X101178490Y-126345190D01*
X101178490Y-126035666D01*
X100845157Y-125607095D02*
X101178490Y-125607095D01*
X100654680Y-125726142D02*
X101011823Y-125845190D01*
X101011823Y-125535666D01*
X100678490Y-125107095D02*
X100678490Y-125345190D01*
X100916585Y-125369000D01*
X100892776Y-125345190D01*
X100868966Y-125297571D01*
X100868966Y-125178523D01*
X100892776Y-125130904D01*
X100916585Y-125107095D01*
X100964204Y-125083285D01*
X101083252Y-125083285D01*
X101130871Y-125107095D01*
X101154680Y-125130904D01*
X101178490Y-125178523D01*
X101178490Y-125297571D01*
X101154680Y-125345190D01*
X101130871Y-125369000D01*
X126383290Y-128356323D02*
X126383290Y-128022990D01*
X126883290Y-128237276D01*
X126549957Y-127618228D02*
X126883290Y-127618228D01*
X126359480Y-127737276D02*
X126716623Y-127856323D01*
X126716623Y-127546800D01*
X126883290Y-127118228D02*
X126883290Y-127356323D01*
X126383290Y-127356323D01*
X126859480Y-126975371D02*
X126883290Y-126903942D01*
X126883290Y-126784895D01*
X126859480Y-126737276D01*
X126835671Y-126713466D01*
X126788052Y-126689657D01*
X126740433Y-126689657D01*
X126692814Y-126713466D01*
X126669004Y-126737276D01*
X126645195Y-126784895D01*
X126621385Y-126880133D01*
X126597576Y-126927752D01*
X126573766Y-126951561D01*
X126526147Y-126975371D01*
X126478528Y-126975371D01*
X126430909Y-126951561D01*
X126407100Y-126927752D01*
X126383290Y-126880133D01*
X126383290Y-126761085D01*
X126407100Y-126689657D01*
X126883290Y-126213466D02*
X126883290Y-126499180D01*
X126883290Y-126356323D02*
X126383290Y-126356323D01*
X126454719Y-126403942D01*
X126502338Y-126451561D01*
X126526147Y-126499180D01*
X126383290Y-126046800D02*
X126383290Y-125713466D01*
X126883290Y-125927752D01*
X126383290Y-125570609D02*
X126383290Y-125261085D01*
X126573766Y-125427752D01*
X126573766Y-125356323D01*
X126597576Y-125308704D01*
X126621385Y-125284895D01*
X126669004Y-125261085D01*
X126788052Y-125261085D01*
X126835671Y-125284895D01*
X126859480Y-125308704D01*
X126883290Y-125356323D01*
X126883290Y-125499180D01*
X126859480Y-125546800D01*
X126835671Y-125570609D01*
X150424390Y-128356323D02*
X150424390Y-128022990D01*
X150924390Y-128237276D01*
X150591057Y-127618228D02*
X150924390Y-127618228D01*
X150400580Y-127737276D02*
X150757723Y-127856323D01*
X150757723Y-127546800D01*
X150924390Y-127118228D02*
X150924390Y-127356323D01*
X150424390Y-127356323D01*
X150900580Y-126975371D02*
X150924390Y-126903942D01*
X150924390Y-126784895D01*
X150900580Y-126737276D01*
X150876771Y-126713466D01*
X150829152Y-126689657D01*
X150781533Y-126689657D01*
X150733914Y-126713466D01*
X150710104Y-126737276D01*
X150686295Y-126784895D01*
X150662485Y-126880133D01*
X150638676Y-126927752D01*
X150614866Y-126951561D01*
X150567247Y-126975371D01*
X150519628Y-126975371D01*
X150472009Y-126951561D01*
X150448200Y-126927752D01*
X150424390Y-126880133D01*
X150424390Y-126761085D01*
X150448200Y-126689657D01*
X150924390Y-126213466D02*
X150924390Y-126499180D01*
X150924390Y-126356323D02*
X150424390Y-126356323D01*
X150495819Y-126403942D01*
X150543438Y-126451561D01*
X150567247Y-126499180D01*
X150424390Y-126046800D02*
X150424390Y-125713466D01*
X150924390Y-125927752D01*
X150424390Y-125570609D02*
X150424390Y-125261085D01*
X150614866Y-125427752D01*
X150614866Y-125356323D01*
X150638676Y-125308704D01*
X150662485Y-125284895D01*
X150710104Y-125261085D01*
X150829152Y-125261085D01*
X150876771Y-125284895D01*
X150900580Y-125308704D01*
X150924390Y-125356323D01*
X150924390Y-125499180D01*
X150900580Y-125546800D01*
X150876771Y-125570609D01*
X150437090Y-99971823D02*
X150437090Y-99638490D01*
X150937090Y-99852776D01*
X150603757Y-99233728D02*
X150937090Y-99233728D01*
X150413280Y-99352776D02*
X150770423Y-99471823D01*
X150770423Y-99162300D01*
X150937090Y-98733728D02*
X150937090Y-98971823D01*
X150437090Y-98971823D01*
X150913280Y-98590871D02*
X150937090Y-98519442D01*
X150937090Y-98400395D01*
X150913280Y-98352776D01*
X150889471Y-98328966D01*
X150841852Y-98305157D01*
X150794233Y-98305157D01*
X150746614Y-98328966D01*
X150722804Y-98352776D01*
X150698995Y-98400395D01*
X150675185Y-98495633D01*
X150651376Y-98543252D01*
X150627566Y-98567061D01*
X150579947Y-98590871D01*
X150532328Y-98590871D01*
X150484709Y-98567061D01*
X150460900Y-98543252D01*
X150437090Y-98495633D01*
X150437090Y-98376585D01*
X150460900Y-98305157D01*
X150937090Y-97828966D02*
X150937090Y-98114680D01*
X150937090Y-97971823D02*
X150437090Y-97971823D01*
X150508519Y-98019442D01*
X150556138Y-98067061D01*
X150579947Y-98114680D01*
X150437090Y-97662300D02*
X150437090Y-97328966D01*
X150937090Y-97543252D01*
X150437090Y-97186109D02*
X150437090Y-96876585D01*
X150627566Y-97043252D01*
X150627566Y-96971823D01*
X150651376Y-96924204D01*
X150675185Y-96900395D01*
X150722804Y-96876585D01*
X150841852Y-96876585D01*
X150889471Y-96900395D01*
X150913280Y-96924204D01*
X150937090Y-96971823D01*
X150937090Y-97114680D01*
X150913280Y-97162300D01*
X150889471Y-97186109D01*
X126395990Y-99971823D02*
X126395990Y-99638490D01*
X126895990Y-99852776D01*
X126562657Y-99233728D02*
X126895990Y-99233728D01*
X126372180Y-99352776D02*
X126729323Y-99471823D01*
X126729323Y-99162300D01*
X126895990Y-98733728D02*
X126895990Y-98971823D01*
X126395990Y-98971823D01*
X126872180Y-98590871D02*
X126895990Y-98519442D01*
X126895990Y-98400395D01*
X126872180Y-98352776D01*
X126848371Y-98328966D01*
X126800752Y-98305157D01*
X126753133Y-98305157D01*
X126705514Y-98328966D01*
X126681704Y-98352776D01*
X126657895Y-98400395D01*
X126634085Y-98495633D01*
X126610276Y-98543252D01*
X126586466Y-98567061D01*
X126538847Y-98590871D01*
X126491228Y-98590871D01*
X126443609Y-98567061D01*
X126419800Y-98543252D01*
X126395990Y-98495633D01*
X126395990Y-98376585D01*
X126419800Y-98305157D01*
X126895990Y-97828966D02*
X126895990Y-98114680D01*
X126895990Y-97971823D02*
X126395990Y-97971823D01*
X126467419Y-98019442D01*
X126515038Y-98067061D01*
X126538847Y-98114680D01*
X126395990Y-97662300D02*
X126395990Y-97328966D01*
X126895990Y-97543252D01*
X126395990Y-97186109D02*
X126395990Y-96876585D01*
X126586466Y-97043252D01*
X126586466Y-96971823D01*
X126610276Y-96924204D01*
X126634085Y-96900395D01*
X126681704Y-96876585D01*
X126800752Y-96876585D01*
X126848371Y-96900395D01*
X126872180Y-96924204D01*
X126895990Y-96971823D01*
X126895990Y-97114680D01*
X126872180Y-97162300D01*
X126848371Y-97186109D01*
X100691190Y-99794023D02*
X100691190Y-99460690D01*
X101191190Y-99674976D01*
X100857857Y-99055928D02*
X101191190Y-99055928D01*
X100667380Y-99174976D02*
X101024523Y-99294023D01*
X101024523Y-98984500D01*
X101191190Y-98555928D02*
X101191190Y-98794023D01*
X100691190Y-98794023D01*
X101167380Y-98413071D02*
X101191190Y-98341642D01*
X101191190Y-98222595D01*
X101167380Y-98174976D01*
X101143571Y-98151166D01*
X101095952Y-98127357D01*
X101048333Y-98127357D01*
X101000714Y-98151166D01*
X100976904Y-98174976D01*
X100953095Y-98222595D01*
X100929285Y-98317833D01*
X100905476Y-98365452D01*
X100881666Y-98389261D01*
X100834047Y-98413071D01*
X100786428Y-98413071D01*
X100738809Y-98389261D01*
X100715000Y-98365452D01*
X100691190Y-98317833D01*
X100691190Y-98198785D01*
X100715000Y-98127357D01*
X100738809Y-97936880D02*
X100715000Y-97913071D01*
X100691190Y-97865452D01*
X100691190Y-97746404D01*
X100715000Y-97698785D01*
X100738809Y-97674976D01*
X100786428Y-97651166D01*
X100834047Y-97651166D01*
X100905476Y-97674976D01*
X101191190Y-97960690D01*
X101191190Y-97651166D01*
X100857857Y-97222595D02*
X101191190Y-97222595D01*
X100667380Y-97341642D02*
X101024523Y-97460690D01*
X101024523Y-97151166D01*
X100691190Y-96722595D02*
X100691190Y-96960690D01*
X100929285Y-96984500D01*
X100905476Y-96960690D01*
X100881666Y-96913071D01*
X100881666Y-96794023D01*
X100905476Y-96746404D01*
X100929285Y-96722595D01*
X100976904Y-96698785D01*
X101095952Y-96698785D01*
X101143571Y-96722595D01*
X101167380Y-96746404D01*
X101191190Y-96794023D01*
X101191190Y-96913071D01*
X101167380Y-96960690D01*
X101143571Y-96984500D01*
X155246257Y-120632542D02*
X155331971Y-120661114D01*
X155360542Y-120689685D01*
X155389114Y-120746828D01*
X155389114Y-120832542D01*
X155360542Y-120889685D01*
X155331971Y-120918257D01*
X155274828Y-120946828D01*
X155046257Y-120946828D01*
X155046257Y-120346828D01*
X155246257Y-120346828D01*
X155303400Y-120375400D01*
X155331971Y-120403971D01*
X155360542Y-120461114D01*
X155360542Y-120518257D01*
X155331971Y-120575400D01*
X155303400Y-120603971D01*
X155246257Y-120632542D01*
X155046257Y-120632542D01*
X156217685Y-120346828D02*
X156331971Y-120346828D01*
X156389114Y-120375400D01*
X156446257Y-120432542D01*
X156474828Y-120546828D01*
X156474828Y-120746828D01*
X156446257Y-120861114D01*
X156389114Y-120918257D01*
X156331971Y-120946828D01*
X156217685Y-120946828D01*
X156160542Y-120918257D01*
X156103400Y-120861114D01*
X156074828Y-120746828D01*
X156074828Y-120546828D01*
X156103400Y-120432542D01*
X156160542Y-120375400D01*
X156217685Y-120346828D01*
X156731971Y-120346828D02*
X156731971Y-120832542D01*
X156760542Y-120889685D01*
X156789114Y-120918257D01*
X156846257Y-120946828D01*
X156960542Y-120946828D01*
X157017685Y-120918257D01*
X157046257Y-120889685D01*
X157074828Y-120832542D01*
X157074828Y-120346828D01*
X157274828Y-120346828D02*
X157617685Y-120346828D01*
X157446257Y-120946828D02*
X157446257Y-120346828D01*
X155043085Y-92860800D02*
X155328800Y-92860800D01*
X154985942Y-93032228D02*
X155185942Y-92432228D01*
X155385942Y-93032228D01*
X156157371Y-92432228D02*
X156271657Y-92432228D01*
X156328800Y-92460800D01*
X156385942Y-92517942D01*
X156414514Y-92632228D01*
X156414514Y-92832228D01*
X156385942Y-92946514D01*
X156328800Y-93003657D01*
X156271657Y-93032228D01*
X156157371Y-93032228D01*
X156100228Y-93003657D01*
X156043085Y-92946514D01*
X156014514Y-92832228D01*
X156014514Y-92632228D01*
X156043085Y-92517942D01*
X156100228Y-92460800D01*
X156157371Y-92432228D01*
X156671657Y-92432228D02*
X156671657Y-92917942D01*
X156700228Y-92975085D01*
X156728800Y-93003657D01*
X156785942Y-93032228D01*
X156900228Y-93032228D01*
X156957371Y-93003657D01*
X156985942Y-92975085D01*
X157014514Y-92917942D01*
X157014514Y-92432228D01*
X157214514Y-92432228D02*
X157557371Y-92432228D01*
X157385942Y-93032228D02*
X157385942Y-92432228D01*
X160637400Y-125667300D02*
X160737400Y-125700633D01*
X160770733Y-125733966D01*
X160804066Y-125800633D01*
X160804066Y-125900633D01*
X160770733Y-125967300D01*
X160737400Y-126000633D01*
X160670733Y-126033966D01*
X160404066Y-126033966D01*
X160404066Y-125333966D01*
X160637400Y-125333966D01*
X160704066Y-125367300D01*
X160737400Y-125400633D01*
X160770733Y-125467300D01*
X160770733Y-125533966D01*
X160737400Y-125600633D01*
X160704066Y-125633966D01*
X160637400Y-125667300D01*
X160404066Y-125667300D01*
X161070733Y-125400633D02*
X161104066Y-125367300D01*
X161170733Y-125333966D01*
X161337400Y-125333966D01*
X161404066Y-125367300D01*
X161437400Y-125400633D01*
X161470733Y-125467300D01*
X161470733Y-125533966D01*
X161437400Y-125633966D01*
X161037400Y-126033966D01*
X161470733Y-126033966D01*
X160662800Y-138468900D02*
X160762800Y-138502233D01*
X160796133Y-138535566D01*
X160829466Y-138602233D01*
X160829466Y-138702233D01*
X160796133Y-138768900D01*
X160762800Y-138802233D01*
X160696133Y-138835566D01*
X160429466Y-138835566D01*
X160429466Y-138135566D01*
X160662800Y-138135566D01*
X160729466Y-138168900D01*
X160762800Y-138202233D01*
X160796133Y-138268900D01*
X160796133Y-138335566D01*
X160762800Y-138402233D01*
X160729466Y-138435566D01*
X160662800Y-138468900D01*
X160429466Y-138468900D01*
X161062800Y-138135566D02*
X161529466Y-138135566D01*
X161229466Y-138835566D01*
X160662800Y-135852700D02*
X160762800Y-135886033D01*
X160796133Y-135919366D01*
X160829466Y-135986033D01*
X160829466Y-136086033D01*
X160796133Y-136152700D01*
X160762800Y-136186033D01*
X160696133Y-136219366D01*
X160429466Y-136219366D01*
X160429466Y-135519366D01*
X160662800Y-135519366D01*
X160729466Y-135552700D01*
X160762800Y-135586033D01*
X160796133Y-135652700D01*
X160796133Y-135719366D01*
X160762800Y-135786033D01*
X160729466Y-135819366D01*
X160662800Y-135852700D01*
X160429466Y-135852700D01*
X161429466Y-135519366D02*
X161296133Y-135519366D01*
X161229466Y-135552700D01*
X161196133Y-135586033D01*
X161129466Y-135686033D01*
X161096133Y-135819366D01*
X161096133Y-136086033D01*
X161129466Y-136152700D01*
X161162800Y-136186033D01*
X161229466Y-136219366D01*
X161362800Y-136219366D01*
X161429466Y-136186033D01*
X161462800Y-136152700D01*
X161496133Y-136086033D01*
X161496133Y-135919366D01*
X161462800Y-135852700D01*
X161429466Y-135819366D01*
X161362800Y-135786033D01*
X161229466Y-135786033D01*
X161162800Y-135819366D01*
X161129466Y-135852700D01*
X161096133Y-135919366D01*
X160662800Y-133338100D02*
X160762800Y-133371433D01*
X160796133Y-133404766D01*
X160829466Y-133471433D01*
X160829466Y-133571433D01*
X160796133Y-133638100D01*
X160762800Y-133671433D01*
X160696133Y-133704766D01*
X160429466Y-133704766D01*
X160429466Y-133004766D01*
X160662800Y-133004766D01*
X160729466Y-133038100D01*
X160762800Y-133071433D01*
X160796133Y-133138100D01*
X160796133Y-133204766D01*
X160762800Y-133271433D01*
X160729466Y-133304766D01*
X160662800Y-133338100D01*
X160429466Y-133338100D01*
X161462800Y-133004766D02*
X161129466Y-133004766D01*
X161096133Y-133338100D01*
X161129466Y-133304766D01*
X161196133Y-133271433D01*
X161362800Y-133271433D01*
X161429466Y-133304766D01*
X161462800Y-133338100D01*
X161496133Y-133404766D01*
X161496133Y-133571433D01*
X161462800Y-133638100D01*
X161429466Y-133671433D01*
X161362800Y-133704766D01*
X161196133Y-133704766D01*
X161129466Y-133671433D01*
X161096133Y-133638100D01*
X160637400Y-128283500D02*
X160737400Y-128316833D01*
X160770733Y-128350166D01*
X160804066Y-128416833D01*
X160804066Y-128516833D01*
X160770733Y-128583500D01*
X160737400Y-128616833D01*
X160670733Y-128650166D01*
X160404066Y-128650166D01*
X160404066Y-127950166D01*
X160637400Y-127950166D01*
X160704066Y-127983500D01*
X160737400Y-128016833D01*
X160770733Y-128083500D01*
X160770733Y-128150166D01*
X160737400Y-128216833D01*
X160704066Y-128250166D01*
X160637400Y-128283500D01*
X160404066Y-128283500D01*
X161037400Y-127950166D02*
X161470733Y-127950166D01*
X161237400Y-128216833D01*
X161337400Y-128216833D01*
X161404066Y-128250166D01*
X161437400Y-128283500D01*
X161470733Y-128350166D01*
X161470733Y-128516833D01*
X161437400Y-128583500D01*
X161404066Y-128616833D01*
X161337400Y-128650166D01*
X161137400Y-128650166D01*
X161070733Y-128616833D01*
X161037400Y-128583500D01*
X160662800Y-140983500D02*
X160762800Y-141016833D01*
X160796133Y-141050166D01*
X160829466Y-141116833D01*
X160829466Y-141216833D01*
X160796133Y-141283500D01*
X160762800Y-141316833D01*
X160696133Y-141350166D01*
X160429466Y-141350166D01*
X160429466Y-140650166D01*
X160662800Y-140650166D01*
X160729466Y-140683500D01*
X160762800Y-140716833D01*
X160796133Y-140783500D01*
X160796133Y-140850166D01*
X160762800Y-140916833D01*
X160729466Y-140950166D01*
X160662800Y-140983500D01*
X160429466Y-140983500D01*
X161229466Y-140950166D02*
X161162800Y-140916833D01*
X161129466Y-140883500D01*
X161096133Y-140816833D01*
X161096133Y-140783500D01*
X161129466Y-140716833D01*
X161162800Y-140683500D01*
X161229466Y-140650166D01*
X161362800Y-140650166D01*
X161429466Y-140683500D01*
X161462800Y-140716833D01*
X161496133Y-140783500D01*
X161496133Y-140816833D01*
X161462800Y-140883500D01*
X161429466Y-140916833D01*
X161362800Y-140950166D01*
X161229466Y-140950166D01*
X161162800Y-140983500D01*
X161129466Y-141016833D01*
X161096133Y-141083500D01*
X161096133Y-141216833D01*
X161129466Y-141283500D01*
X161162800Y-141316833D01*
X161229466Y-141350166D01*
X161362800Y-141350166D01*
X161429466Y-141316833D01*
X161462800Y-141283500D01*
X161496133Y-141216833D01*
X161496133Y-141083500D01*
X161462800Y-141016833D01*
X161429466Y-140983500D01*
X161362800Y-140950166D01*
X160637400Y-130798100D02*
X160737400Y-130831433D01*
X160770733Y-130864766D01*
X160804066Y-130931433D01*
X160804066Y-131031433D01*
X160770733Y-131098100D01*
X160737400Y-131131433D01*
X160670733Y-131164766D01*
X160404066Y-131164766D01*
X160404066Y-130464766D01*
X160637400Y-130464766D01*
X160704066Y-130498100D01*
X160737400Y-130531433D01*
X160770733Y-130598100D01*
X160770733Y-130664766D01*
X160737400Y-130731433D01*
X160704066Y-130764766D01*
X160637400Y-130798100D01*
X160404066Y-130798100D01*
X161404066Y-130698100D02*
X161404066Y-131164766D01*
X161237400Y-130431433D02*
X161070733Y-130931433D01*
X161504066Y-130931433D01*
X160637400Y-123152700D02*
X160737400Y-123186033D01*
X160770733Y-123219366D01*
X160804066Y-123286033D01*
X160804066Y-123386033D01*
X160770733Y-123452700D01*
X160737400Y-123486033D01*
X160670733Y-123519366D01*
X160404066Y-123519366D01*
X160404066Y-122819366D01*
X160637400Y-122819366D01*
X160704066Y-122852700D01*
X160737400Y-122886033D01*
X160770733Y-122952700D01*
X160770733Y-123019366D01*
X160737400Y-123086033D01*
X160704066Y-123119366D01*
X160637400Y-123152700D01*
X160404066Y-123152700D01*
X161470733Y-123519366D02*
X161070733Y-123519366D01*
X161270733Y-123519366D02*
X161270733Y-122819366D01*
X161204066Y-122919366D01*
X161137400Y-122986033D01*
X161070733Y-123019366D01*
X160269133Y-108104766D02*
X160602466Y-108104766D01*
X160202466Y-108304766D02*
X160435800Y-107604766D01*
X160669133Y-108304766D01*
X161202466Y-107604766D02*
X161069133Y-107604766D01*
X161002466Y-107638100D01*
X160969133Y-107671433D01*
X160902466Y-107771433D01*
X160869133Y-107904766D01*
X160869133Y-108171433D01*
X160902466Y-108238100D01*
X160935800Y-108271433D01*
X161002466Y-108304766D01*
X161135800Y-108304766D01*
X161202466Y-108271433D01*
X161235800Y-108238100D01*
X161269133Y-108171433D01*
X161269133Y-108004766D01*
X161235800Y-107938100D01*
X161202466Y-107904766D01*
X161135800Y-107871433D01*
X161002466Y-107871433D01*
X160935800Y-107904766D01*
X160902466Y-107938100D01*
X160869133Y-108004766D01*
X160269133Y-110720966D02*
X160602466Y-110720966D01*
X160202466Y-110920966D02*
X160435800Y-110220966D01*
X160669133Y-110920966D01*
X160835800Y-110220966D02*
X161302466Y-110220966D01*
X161002466Y-110920966D01*
X160269133Y-113235566D02*
X160602466Y-113235566D01*
X160202466Y-113435566D02*
X160435800Y-112735566D01*
X160669133Y-113435566D01*
X161002466Y-113035566D02*
X160935800Y-113002233D01*
X160902466Y-112968900D01*
X160869133Y-112902233D01*
X160869133Y-112868900D01*
X160902466Y-112802233D01*
X160935800Y-112768900D01*
X161002466Y-112735566D01*
X161135800Y-112735566D01*
X161202466Y-112768900D01*
X161235800Y-112802233D01*
X161269133Y-112868900D01*
X161269133Y-112902233D01*
X161235800Y-112968900D01*
X161202466Y-113002233D01*
X161135800Y-113035566D01*
X161002466Y-113035566D01*
X160935800Y-113068900D01*
X160902466Y-113102233D01*
X160869133Y-113168900D01*
X160869133Y-113302233D01*
X160902466Y-113368900D01*
X160935800Y-113402233D01*
X161002466Y-113435566D01*
X161135800Y-113435566D01*
X161202466Y-113402233D01*
X161235800Y-113368900D01*
X161269133Y-113302233D01*
X161269133Y-113168900D01*
X161235800Y-113102233D01*
X161202466Y-113068900D01*
X161135800Y-113035566D01*
X160269133Y-105590166D02*
X160602466Y-105590166D01*
X160202466Y-105790166D02*
X160435800Y-105090166D01*
X160669133Y-105790166D01*
X161235800Y-105090166D02*
X160902466Y-105090166D01*
X160869133Y-105423500D01*
X160902466Y-105390166D01*
X160969133Y-105356833D01*
X161135800Y-105356833D01*
X161202466Y-105390166D01*
X161235800Y-105423500D01*
X161269133Y-105490166D01*
X161269133Y-105656833D01*
X161235800Y-105723500D01*
X161202466Y-105756833D01*
X161135800Y-105790166D01*
X160969133Y-105790166D01*
X160902466Y-105756833D01*
X160869133Y-105723500D01*
X160243733Y-103050166D02*
X160577066Y-103050166D01*
X160177066Y-103250166D02*
X160410400Y-102550166D01*
X160643733Y-103250166D01*
X161177066Y-102783500D02*
X161177066Y-103250166D01*
X161010400Y-102516833D02*
X160843733Y-103016833D01*
X161277066Y-103016833D01*
X160243733Y-100535566D02*
X160577066Y-100535566D01*
X160177066Y-100735566D02*
X160410400Y-100035566D01*
X160643733Y-100735566D01*
X160810400Y-100035566D02*
X161243733Y-100035566D01*
X161010400Y-100302233D01*
X161110400Y-100302233D01*
X161177066Y-100335566D01*
X161210400Y-100368900D01*
X161243733Y-100435566D01*
X161243733Y-100602233D01*
X161210400Y-100668900D01*
X161177066Y-100702233D01*
X161110400Y-100735566D01*
X160910400Y-100735566D01*
X160843733Y-100702233D01*
X160810400Y-100668900D01*
X160243733Y-97919366D02*
X160577066Y-97919366D01*
X160177066Y-98119366D02*
X160410400Y-97419366D01*
X160643733Y-98119366D01*
X160843733Y-97486033D02*
X160877066Y-97452700D01*
X160943733Y-97419366D01*
X161110400Y-97419366D01*
X161177066Y-97452700D01*
X161210400Y-97486033D01*
X161243733Y-97552700D01*
X161243733Y-97619366D01*
X161210400Y-97719366D01*
X160810400Y-98119366D01*
X161243733Y-98119366D01*
X160243733Y-95404766D02*
X160577066Y-95404766D01*
X160177066Y-95604766D02*
X160410400Y-94904766D01*
X160643733Y-95604766D01*
X161243733Y-95604766D02*
X160843733Y-95604766D01*
X161043733Y-95604766D02*
X161043733Y-94904766D01*
X160977066Y-95004766D01*
X160910400Y-95071433D01*
X160843733Y-95104766D01*
X156428966Y-89661200D02*
X156962300Y-89661200D01*
X157662300Y-89261200D02*
X157595633Y-89227866D01*
X157495633Y-89227866D01*
X157395633Y-89261200D01*
X157328966Y-89327866D01*
X157295633Y-89394533D01*
X157262300Y-89527866D01*
X157262300Y-89627866D01*
X157295633Y-89761200D01*
X157328966Y-89827866D01*
X157395633Y-89894533D01*
X157495633Y-89927866D01*
X157562300Y-89927866D01*
X157662300Y-89894533D01*
X157695633Y-89861200D01*
X157695633Y-89627866D01*
X157562300Y-89627866D01*
X157995633Y-89927866D02*
X157995633Y-89227866D01*
X158395633Y-89927866D01*
X158395633Y-89227866D01*
X158728966Y-89927866D02*
X158728966Y-89227866D01*
X158895633Y-89227866D01*
X158995633Y-89261200D01*
X159062300Y-89327866D01*
X159095633Y-89394533D01*
X159128966Y-89527866D01*
X159128966Y-89627866D01*
X159095633Y-89761200D01*
X159062300Y-89827866D01*
X158995633Y-89894533D01*
X158895633Y-89927866D01*
X158728966Y-89927866D01*
X156428966Y-87121200D02*
X156962300Y-87121200D01*
X156695633Y-87387866D02*
X156695633Y-86854533D01*
X157195633Y-86687866D02*
X157428966Y-87387866D01*
X157662300Y-86687866D01*
X158295633Y-87321200D02*
X158262300Y-87354533D01*
X158162300Y-87387866D01*
X158095633Y-87387866D01*
X157995633Y-87354533D01*
X157928966Y-87287866D01*
X157895633Y-87221200D01*
X157862300Y-87087866D01*
X157862300Y-86987866D01*
X157895633Y-86854533D01*
X157928966Y-86787866D01*
X157995633Y-86721200D01*
X158095633Y-86687866D01*
X158162300Y-86687866D01*
X158262300Y-86721200D01*
X158295633Y-86754533D01*
X158995633Y-87321200D02*
X158962300Y-87354533D01*
X158862300Y-87387866D01*
X158795633Y-87387866D01*
X158695633Y-87354533D01*
X158628966Y-87287866D01*
X158595633Y-87221200D01*
X158562300Y-87087866D01*
X158562300Y-86987866D01*
X158595633Y-86854533D01*
X158628966Y-86787866D01*
X158695633Y-86721200D01*
X158795633Y-86687866D01*
X158862300Y-86687866D01*
X158962300Y-86721200D01*
X158995633Y-86754533D01*
X106807800Y-85310800D02*
X106841133Y-85210800D01*
X106874466Y-85177466D01*
X106941133Y-85144133D01*
X107041133Y-85144133D01*
X107107800Y-85177466D01*
X107141133Y-85210800D01*
X107174466Y-85277466D01*
X107174466Y-85544133D01*
X106474466Y-85544133D01*
X106474466Y-85310800D01*
X106507800Y-85244133D01*
X106541133Y-85210800D01*
X106607800Y-85177466D01*
X106674466Y-85177466D01*
X106741133Y-85210800D01*
X106774466Y-85244133D01*
X106807800Y-85310800D01*
X106807800Y-85544133D01*
X106474466Y-84710800D02*
X106474466Y-84577466D01*
X106507800Y-84510800D01*
X106574466Y-84444133D01*
X106707800Y-84410800D01*
X106941133Y-84410800D01*
X107074466Y-84444133D01*
X107141133Y-84510800D01*
X107174466Y-84577466D01*
X107174466Y-84710800D01*
X107141133Y-84777466D01*
X107074466Y-84844133D01*
X106941133Y-84877466D01*
X106707800Y-84877466D01*
X106574466Y-84844133D01*
X106507800Y-84777466D01*
X106474466Y-84710800D01*
X109347800Y-85310800D02*
X109381133Y-85210800D01*
X109414466Y-85177466D01*
X109481133Y-85144133D01*
X109581133Y-85144133D01*
X109647800Y-85177466D01*
X109681133Y-85210800D01*
X109714466Y-85277466D01*
X109714466Y-85544133D01*
X109014466Y-85544133D01*
X109014466Y-85310800D01*
X109047800Y-85244133D01*
X109081133Y-85210800D01*
X109147800Y-85177466D01*
X109214466Y-85177466D01*
X109281133Y-85210800D01*
X109314466Y-85244133D01*
X109347800Y-85310800D01*
X109347800Y-85544133D01*
X109714466Y-84844133D02*
X109014466Y-84844133D01*
X114569066Y-85501266D02*
X114569066Y-85167933D01*
X114769066Y-85567933D02*
X114069066Y-85334600D01*
X114769066Y-85101266D01*
X114069066Y-84734600D02*
X114069066Y-84601266D01*
X114102400Y-84534600D01*
X114169066Y-84467933D01*
X114302400Y-84434600D01*
X114535733Y-84434600D01*
X114669066Y-84467933D01*
X114735733Y-84534600D01*
X114769066Y-84601266D01*
X114769066Y-84734600D01*
X114735733Y-84801266D01*
X114669066Y-84867933D01*
X114535733Y-84901266D01*
X114302400Y-84901266D01*
X114169066Y-84867933D01*
X114102400Y-84801266D01*
X114069066Y-84734600D01*
X117083666Y-85526666D02*
X117083666Y-85193333D01*
X117283666Y-85593333D02*
X116583666Y-85360000D01*
X117283666Y-85126666D01*
X117283666Y-84893333D02*
X116583666Y-84893333D01*
X119772866Y-85194933D02*
X119439533Y-85428266D01*
X119772866Y-85594933D02*
X119072866Y-85594933D01*
X119072866Y-85328266D01*
X119106200Y-85261600D01*
X119139533Y-85228266D01*
X119206200Y-85194933D01*
X119306200Y-85194933D01*
X119372866Y-85228266D01*
X119406200Y-85261600D01*
X119439533Y-85328266D01*
X119439533Y-85594933D01*
X119739533Y-84928266D02*
X119772866Y-84828266D01*
X119772866Y-84661600D01*
X119739533Y-84594933D01*
X119706200Y-84561600D01*
X119639533Y-84528266D01*
X119572866Y-84528266D01*
X119506200Y-84561600D01*
X119472866Y-84594933D01*
X119439533Y-84661600D01*
X119406200Y-84794933D01*
X119372866Y-84861600D01*
X119339533Y-84894933D01*
X119272866Y-84928266D01*
X119206200Y-84928266D01*
X119139533Y-84894933D01*
X119106200Y-84861600D01*
X119072866Y-84794933D01*
X119072866Y-84628266D01*
X119106200Y-84528266D01*
X119772866Y-83861600D02*
X119772866Y-84261600D01*
X119772866Y-84061600D02*
X119072866Y-84061600D01*
X119172866Y-84128266D01*
X119239533Y-84194933D01*
X119272866Y-84261600D01*
X122322400Y-85194933D02*
X122355733Y-85228266D01*
X122389066Y-85328266D01*
X122389066Y-85394933D01*
X122355733Y-85494933D01*
X122289066Y-85561600D01*
X122222400Y-85594933D01*
X122089066Y-85628266D01*
X121989066Y-85628266D01*
X121855733Y-85594933D01*
X121789066Y-85561600D01*
X121722400Y-85494933D01*
X121689066Y-85394933D01*
X121689066Y-85328266D01*
X121722400Y-85228266D01*
X121755733Y-85194933D01*
X122389066Y-84561600D02*
X122389066Y-84894933D01*
X121689066Y-84894933D01*
X122389066Y-84328266D02*
X121689066Y-84328266D01*
X122389066Y-83928266D02*
X121989066Y-84228266D01*
X121689066Y-83928266D02*
X122089066Y-84328266D01*
X75921400Y-85489133D02*
X75954733Y-85389133D01*
X75988066Y-85355800D01*
X76054733Y-85322466D01*
X76154733Y-85322466D01*
X76221400Y-85355800D01*
X76254733Y-85389133D01*
X76288066Y-85455800D01*
X76288066Y-85722466D01*
X75588066Y-85722466D01*
X75588066Y-85489133D01*
X75621400Y-85422466D01*
X75654733Y-85389133D01*
X75721400Y-85355800D01*
X75788066Y-85355800D01*
X75854733Y-85389133D01*
X75888066Y-85422466D01*
X75921400Y-85489133D01*
X75921400Y-85722466D01*
X75588066Y-85022466D02*
X76154733Y-85022466D01*
X76221400Y-84989133D01*
X76254733Y-84955800D01*
X76288066Y-84889133D01*
X76288066Y-84755800D01*
X76254733Y-84689133D01*
X76221400Y-84655800D01*
X76154733Y-84622466D01*
X75588066Y-84622466D01*
X76254733Y-84322466D02*
X76288066Y-84222466D01*
X76288066Y-84055800D01*
X76254733Y-83989133D01*
X76221400Y-83955800D01*
X76154733Y-83922466D01*
X76088066Y-83922466D01*
X76021400Y-83955800D01*
X75988066Y-83989133D01*
X75954733Y-84055800D01*
X75921400Y-84189133D01*
X75888066Y-84255800D01*
X75854733Y-84289133D01*
X75788066Y-84322466D01*
X75721400Y-84322466D01*
X75654733Y-84289133D01*
X75621400Y-84255800D01*
X75588066Y-84189133D01*
X75588066Y-84022466D01*
X75621400Y-83922466D01*
X75888066Y-83522466D02*
X75854733Y-83589133D01*
X75821400Y-83622466D01*
X75754733Y-83655800D01*
X75721400Y-83655800D01*
X75654733Y-83622466D01*
X75621400Y-83589133D01*
X75588066Y-83522466D01*
X75588066Y-83389133D01*
X75621400Y-83322466D01*
X75654733Y-83289133D01*
X75721400Y-83255800D01*
X75754733Y-83255800D01*
X75821400Y-83289133D01*
X75854733Y-83322466D01*
X75888066Y-83389133D01*
X75888066Y-83522466D01*
X75921400Y-83589133D01*
X75954733Y-83622466D01*
X76021400Y-83655800D01*
X76154733Y-83655800D01*
X76221400Y-83622466D01*
X76254733Y-83589133D01*
X76288066Y-83522466D01*
X76288066Y-83389133D01*
X76254733Y-83322466D01*
X76221400Y-83289133D01*
X76154733Y-83255800D01*
X76021400Y-83255800D01*
X75954733Y-83289133D01*
X75921400Y-83322466D01*
X75888066Y-83389133D01*
X78461400Y-85489133D02*
X78494733Y-85389133D01*
X78528066Y-85355800D01*
X78594733Y-85322466D01*
X78694733Y-85322466D01*
X78761400Y-85355800D01*
X78794733Y-85389133D01*
X78828066Y-85455800D01*
X78828066Y-85722466D01*
X78128066Y-85722466D01*
X78128066Y-85489133D01*
X78161400Y-85422466D01*
X78194733Y-85389133D01*
X78261400Y-85355800D01*
X78328066Y-85355800D01*
X78394733Y-85389133D01*
X78428066Y-85422466D01*
X78461400Y-85489133D01*
X78461400Y-85722466D01*
X78128066Y-85022466D02*
X78694733Y-85022466D01*
X78761400Y-84989133D01*
X78794733Y-84955800D01*
X78828066Y-84889133D01*
X78828066Y-84755800D01*
X78794733Y-84689133D01*
X78761400Y-84655800D01*
X78694733Y-84622466D01*
X78128066Y-84622466D01*
X78794733Y-84322466D02*
X78828066Y-84222466D01*
X78828066Y-84055800D01*
X78794733Y-83989133D01*
X78761400Y-83955800D01*
X78694733Y-83922466D01*
X78628066Y-83922466D01*
X78561400Y-83955800D01*
X78528066Y-83989133D01*
X78494733Y-84055800D01*
X78461400Y-84189133D01*
X78428066Y-84255800D01*
X78394733Y-84289133D01*
X78328066Y-84322466D01*
X78261400Y-84322466D01*
X78194733Y-84289133D01*
X78161400Y-84255800D01*
X78128066Y-84189133D01*
X78128066Y-84022466D01*
X78161400Y-83922466D01*
X78128066Y-83689133D02*
X78128066Y-83222466D01*
X78828066Y-83522466D01*
X83566800Y-85514533D02*
X83600133Y-85414533D01*
X83633466Y-85381200D01*
X83700133Y-85347866D01*
X83800133Y-85347866D01*
X83866800Y-85381200D01*
X83900133Y-85414533D01*
X83933466Y-85481200D01*
X83933466Y-85747866D01*
X83233466Y-85747866D01*
X83233466Y-85514533D01*
X83266800Y-85447866D01*
X83300133Y-85414533D01*
X83366800Y-85381200D01*
X83433466Y-85381200D01*
X83500133Y-85414533D01*
X83533466Y-85447866D01*
X83566800Y-85514533D01*
X83566800Y-85747866D01*
X83233466Y-85047866D02*
X83800133Y-85047866D01*
X83866800Y-85014533D01*
X83900133Y-84981200D01*
X83933466Y-84914533D01*
X83933466Y-84781200D01*
X83900133Y-84714533D01*
X83866800Y-84681200D01*
X83800133Y-84647866D01*
X83233466Y-84647866D01*
X83900133Y-84347866D02*
X83933466Y-84247866D01*
X83933466Y-84081200D01*
X83900133Y-84014533D01*
X83866800Y-83981200D01*
X83800133Y-83947866D01*
X83733466Y-83947866D01*
X83666800Y-83981200D01*
X83633466Y-84014533D01*
X83600133Y-84081200D01*
X83566800Y-84214533D01*
X83533466Y-84281200D01*
X83500133Y-84314533D01*
X83433466Y-84347866D01*
X83366800Y-84347866D01*
X83300133Y-84314533D01*
X83266800Y-84281200D01*
X83233466Y-84214533D01*
X83233466Y-84047866D01*
X83266800Y-83947866D01*
X83233466Y-83314533D02*
X83233466Y-83647866D01*
X83566800Y-83681200D01*
X83533466Y-83647866D01*
X83500133Y-83581200D01*
X83500133Y-83414533D01*
X83533466Y-83347866D01*
X83566800Y-83314533D01*
X83633466Y-83281200D01*
X83800133Y-83281200D01*
X83866800Y-83314533D01*
X83900133Y-83347866D01*
X83933466Y-83414533D01*
X83933466Y-83581200D01*
X83900133Y-83647866D01*
X83866800Y-83681200D01*
X81026800Y-85514533D02*
X81060133Y-85414533D01*
X81093466Y-85381200D01*
X81160133Y-85347866D01*
X81260133Y-85347866D01*
X81326800Y-85381200D01*
X81360133Y-85414533D01*
X81393466Y-85481200D01*
X81393466Y-85747866D01*
X80693466Y-85747866D01*
X80693466Y-85514533D01*
X80726800Y-85447866D01*
X80760133Y-85414533D01*
X80826800Y-85381200D01*
X80893466Y-85381200D01*
X80960133Y-85414533D01*
X80993466Y-85447866D01*
X81026800Y-85514533D01*
X81026800Y-85747866D01*
X80693466Y-85047866D02*
X81260133Y-85047866D01*
X81326800Y-85014533D01*
X81360133Y-84981200D01*
X81393466Y-84914533D01*
X81393466Y-84781200D01*
X81360133Y-84714533D01*
X81326800Y-84681200D01*
X81260133Y-84647866D01*
X80693466Y-84647866D01*
X81360133Y-84347866D02*
X81393466Y-84247866D01*
X81393466Y-84081200D01*
X81360133Y-84014533D01*
X81326800Y-83981200D01*
X81260133Y-83947866D01*
X81193466Y-83947866D01*
X81126800Y-83981200D01*
X81093466Y-84014533D01*
X81060133Y-84081200D01*
X81026800Y-84214533D01*
X80993466Y-84281200D01*
X80960133Y-84314533D01*
X80893466Y-84347866D01*
X80826800Y-84347866D01*
X80760133Y-84314533D01*
X80726800Y-84281200D01*
X80693466Y-84214533D01*
X80693466Y-84047866D01*
X80726800Y-83947866D01*
X80693466Y-83347866D02*
X80693466Y-83481200D01*
X80726800Y-83547866D01*
X80760133Y-83581200D01*
X80860133Y-83647866D01*
X80993466Y-83681200D01*
X81260133Y-83681200D01*
X81326800Y-83647866D01*
X81360133Y-83614533D01*
X81393466Y-83547866D01*
X81393466Y-83414533D01*
X81360133Y-83347866D01*
X81326800Y-83314533D01*
X81260133Y-83281200D01*
X81093466Y-83281200D01*
X81026800Y-83314533D01*
X80993466Y-83347866D01*
X80960133Y-83414533D01*
X80960133Y-83547866D01*
X80993466Y-83614533D01*
X81026800Y-83647866D01*
X81093466Y-83681200D01*
X86132200Y-85514533D02*
X86165533Y-85414533D01*
X86198866Y-85381200D01*
X86265533Y-85347866D01*
X86365533Y-85347866D01*
X86432200Y-85381200D01*
X86465533Y-85414533D01*
X86498866Y-85481200D01*
X86498866Y-85747866D01*
X85798866Y-85747866D01*
X85798866Y-85514533D01*
X85832200Y-85447866D01*
X85865533Y-85414533D01*
X85932200Y-85381200D01*
X85998866Y-85381200D01*
X86065533Y-85414533D01*
X86098866Y-85447866D01*
X86132200Y-85514533D01*
X86132200Y-85747866D01*
X85798866Y-85047866D02*
X86365533Y-85047866D01*
X86432200Y-85014533D01*
X86465533Y-84981200D01*
X86498866Y-84914533D01*
X86498866Y-84781200D01*
X86465533Y-84714533D01*
X86432200Y-84681200D01*
X86365533Y-84647866D01*
X85798866Y-84647866D01*
X86465533Y-84347866D02*
X86498866Y-84247866D01*
X86498866Y-84081200D01*
X86465533Y-84014533D01*
X86432200Y-83981200D01*
X86365533Y-83947866D01*
X86298866Y-83947866D01*
X86232200Y-83981200D01*
X86198866Y-84014533D01*
X86165533Y-84081200D01*
X86132200Y-84214533D01*
X86098866Y-84281200D01*
X86065533Y-84314533D01*
X85998866Y-84347866D01*
X85932200Y-84347866D01*
X85865533Y-84314533D01*
X85832200Y-84281200D01*
X85798866Y-84214533D01*
X85798866Y-84047866D01*
X85832200Y-83947866D01*
X86032200Y-83347866D02*
X86498866Y-83347866D01*
X85765533Y-83514533D02*
X86265533Y-83681200D01*
X86265533Y-83247866D01*
X88621400Y-85514533D02*
X88654733Y-85414533D01*
X88688066Y-85381200D01*
X88754733Y-85347866D01*
X88854733Y-85347866D01*
X88921400Y-85381200D01*
X88954733Y-85414533D01*
X88988066Y-85481200D01*
X88988066Y-85747866D01*
X88288066Y-85747866D01*
X88288066Y-85514533D01*
X88321400Y-85447866D01*
X88354733Y-85414533D01*
X88421400Y-85381200D01*
X88488066Y-85381200D01*
X88554733Y-85414533D01*
X88588066Y-85447866D01*
X88621400Y-85514533D01*
X88621400Y-85747866D01*
X88288066Y-85047866D02*
X88854733Y-85047866D01*
X88921400Y-85014533D01*
X88954733Y-84981200D01*
X88988066Y-84914533D01*
X88988066Y-84781200D01*
X88954733Y-84714533D01*
X88921400Y-84681200D01*
X88854733Y-84647866D01*
X88288066Y-84647866D01*
X88954733Y-84347866D02*
X88988066Y-84247866D01*
X88988066Y-84081200D01*
X88954733Y-84014533D01*
X88921400Y-83981200D01*
X88854733Y-83947866D01*
X88788066Y-83947866D01*
X88721400Y-83981200D01*
X88688066Y-84014533D01*
X88654733Y-84081200D01*
X88621400Y-84214533D01*
X88588066Y-84281200D01*
X88554733Y-84314533D01*
X88488066Y-84347866D01*
X88421400Y-84347866D01*
X88354733Y-84314533D01*
X88321400Y-84281200D01*
X88288066Y-84214533D01*
X88288066Y-84047866D01*
X88321400Y-83947866D01*
X88288066Y-83714533D02*
X88288066Y-83281200D01*
X88554733Y-83514533D01*
X88554733Y-83414533D01*
X88588066Y-83347866D01*
X88621400Y-83314533D01*
X88688066Y-83281200D01*
X88854733Y-83281200D01*
X88921400Y-83314533D01*
X88954733Y-83347866D01*
X88988066Y-83414533D01*
X88988066Y-83614533D01*
X88954733Y-83681200D01*
X88921400Y-83714533D01*
X91161400Y-85514533D02*
X91194733Y-85414533D01*
X91228066Y-85381200D01*
X91294733Y-85347866D01*
X91394733Y-85347866D01*
X91461400Y-85381200D01*
X91494733Y-85414533D01*
X91528066Y-85481200D01*
X91528066Y-85747866D01*
X90828066Y-85747866D01*
X90828066Y-85514533D01*
X90861400Y-85447866D01*
X90894733Y-85414533D01*
X90961400Y-85381200D01*
X91028066Y-85381200D01*
X91094733Y-85414533D01*
X91128066Y-85447866D01*
X91161400Y-85514533D01*
X91161400Y-85747866D01*
X90828066Y-85047866D02*
X91394733Y-85047866D01*
X91461400Y-85014533D01*
X91494733Y-84981200D01*
X91528066Y-84914533D01*
X91528066Y-84781200D01*
X91494733Y-84714533D01*
X91461400Y-84681200D01*
X91394733Y-84647866D01*
X90828066Y-84647866D01*
X91494733Y-84347866D02*
X91528066Y-84247866D01*
X91528066Y-84081200D01*
X91494733Y-84014533D01*
X91461400Y-83981200D01*
X91394733Y-83947866D01*
X91328066Y-83947866D01*
X91261400Y-83981200D01*
X91228066Y-84014533D01*
X91194733Y-84081200D01*
X91161400Y-84214533D01*
X91128066Y-84281200D01*
X91094733Y-84314533D01*
X91028066Y-84347866D01*
X90961400Y-84347866D01*
X90894733Y-84314533D01*
X90861400Y-84281200D01*
X90828066Y-84214533D01*
X90828066Y-84047866D01*
X90861400Y-83947866D01*
X90894733Y-83681200D02*
X90861400Y-83647866D01*
X90828066Y-83581200D01*
X90828066Y-83414533D01*
X90861400Y-83347866D01*
X90894733Y-83314533D01*
X90961400Y-83281200D01*
X91028066Y-83281200D01*
X91128066Y-83314533D01*
X91528066Y-83714533D01*
X91528066Y-83281200D01*
X93726800Y-85514533D02*
X93760133Y-85414533D01*
X93793466Y-85381200D01*
X93860133Y-85347866D01*
X93960133Y-85347866D01*
X94026800Y-85381200D01*
X94060133Y-85414533D01*
X94093466Y-85481200D01*
X94093466Y-85747866D01*
X93393466Y-85747866D01*
X93393466Y-85514533D01*
X93426800Y-85447866D01*
X93460133Y-85414533D01*
X93526800Y-85381200D01*
X93593466Y-85381200D01*
X93660133Y-85414533D01*
X93693466Y-85447866D01*
X93726800Y-85514533D01*
X93726800Y-85747866D01*
X93393466Y-85047866D02*
X93960133Y-85047866D01*
X94026800Y-85014533D01*
X94060133Y-84981200D01*
X94093466Y-84914533D01*
X94093466Y-84781200D01*
X94060133Y-84714533D01*
X94026800Y-84681200D01*
X93960133Y-84647866D01*
X93393466Y-84647866D01*
X94060133Y-84347866D02*
X94093466Y-84247866D01*
X94093466Y-84081200D01*
X94060133Y-84014533D01*
X94026800Y-83981200D01*
X93960133Y-83947866D01*
X93893466Y-83947866D01*
X93826800Y-83981200D01*
X93793466Y-84014533D01*
X93760133Y-84081200D01*
X93726800Y-84214533D01*
X93693466Y-84281200D01*
X93660133Y-84314533D01*
X93593466Y-84347866D01*
X93526800Y-84347866D01*
X93460133Y-84314533D01*
X93426800Y-84281200D01*
X93393466Y-84214533D01*
X93393466Y-84047866D01*
X93426800Y-83947866D01*
X94093466Y-83281200D02*
X94093466Y-83681200D01*
X94093466Y-83481200D02*
X93393466Y-83481200D01*
X93493466Y-83547866D01*
X93560133Y-83614533D01*
X93593466Y-83681200D01*
D13*
%TO.C,J6*%
X123453200Y-89163200D02*
X123453200Y-86503200D01*
X108153200Y-89163200D02*
X123453200Y-89163200D01*
X108153200Y-86503200D02*
X123453200Y-86503200D01*
X108153200Y-89163200D02*
X108153200Y-86503200D01*
X106883200Y-89163200D02*
X105553200Y-89163200D01*
X105553200Y-89163200D02*
X105553200Y-87833200D01*
%TO.C,J3*%
X153013100Y-85817400D02*
X154343100Y-85817400D01*
X153013100Y-87147400D02*
X153013100Y-85817400D01*
X153013100Y-88417400D02*
X155673100Y-88417400D01*
X155673100Y-88417400D02*
X155673100Y-91017400D01*
X153013100Y-88417400D02*
X153013100Y-91017400D01*
X153013100Y-91017400D02*
X155673100Y-91017400D01*
%TO.C,C4*%
X133573000Y-115176300D02*
G75*
G03*
X133573000Y-115176300I-2620000J0D01*
G01*
%TO.C,C3*%
X151083000Y-88553800D02*
G75*
G03*
X151083000Y-88553800I-2620000J0D01*
G01*
%TO.C,C2*%
X73971900Y-122796300D02*
G75*
G03*
X73971900Y-122796300I-2620000J0D01*
G01*
%TO.C,C1*%
X73943200Y-93437200D02*
G75*
G03*
X73943200Y-93437200I-2620000J0D01*
G01*
%TO.C,U6*%
X129530800Y-123842000D02*
X129530800Y-125492000D01*
X149970800Y-123842000D02*
X129530800Y-123842000D01*
X149970800Y-129142000D02*
X149970800Y-123842000D01*
X129530800Y-129142000D02*
X149970800Y-129142000D01*
X129530800Y-127492000D02*
X129530800Y-129142000D01*
X129530800Y-125492000D02*
G75*
G02*
X129530800Y-127492000I0J-1000000D01*
G01*
%TO.C,U5*%
X105400800Y-123867400D02*
X105400800Y-125517400D01*
X125840800Y-123867400D02*
X105400800Y-123867400D01*
X125840800Y-129167400D02*
X125840800Y-123867400D01*
X105400800Y-129167400D02*
X125840800Y-129167400D01*
X105400800Y-127517400D02*
X105400800Y-129167400D01*
X105400800Y-125517400D02*
G75*
G02*
X105400800Y-127517400I0J-1000000D01*
G01*
%TO.C,U4*%
X74641400Y-123918200D02*
X74641400Y-125568200D01*
X100161400Y-123918200D02*
X74641400Y-123918200D01*
X100161400Y-129218200D02*
X100161400Y-123918200D01*
X74641400Y-129218200D02*
X100161400Y-129218200D01*
X74641400Y-127568200D02*
X74641400Y-129218200D01*
X74641400Y-125568200D02*
G75*
G02*
X74641400Y-127568200I0J-1000000D01*
G01*
%TO.C,U3*%
X129505400Y-95825800D02*
X129505400Y-97475800D01*
X149945400Y-95825800D02*
X129505400Y-95825800D01*
X149945400Y-101125800D02*
X149945400Y-95825800D01*
X129505400Y-101125800D02*
X149945400Y-101125800D01*
X129505400Y-99475800D02*
X129505400Y-101125800D01*
X129505400Y-97475800D02*
G75*
G02*
X129505400Y-99475800I0J-1000000D01*
G01*
%TO.C,U2*%
X105400800Y-95800400D02*
X105400800Y-97450400D01*
X125840800Y-95800400D02*
X105400800Y-95800400D01*
X125840800Y-101100400D02*
X125840800Y-95800400D01*
X105400800Y-101100400D02*
X125840800Y-101100400D01*
X105400800Y-99450400D02*
X105400800Y-101100400D01*
X105400800Y-97450400D02*
G75*
G02*
X105400800Y-99450400I0J-1000000D01*
G01*
%TO.C,U1*%
X74514400Y-95597200D02*
X74514400Y-97247200D01*
X100034400Y-95597200D02*
X74514400Y-95597200D01*
X100034400Y-100897200D02*
X100034400Y-95597200D01*
X74514400Y-100897200D02*
X100034400Y-100897200D01*
X74514400Y-99247200D02*
X74514400Y-100897200D01*
X74514400Y-97247200D02*
G75*
G02*
X74514400Y-99247200I0J-1000000D01*
G01*
%TO.C,RN2*%
X109664500Y-146954700D02*
X109664500Y-144154700D01*
X89174500Y-146954700D02*
X112374500Y-146954700D01*
X89174500Y-144154700D02*
X89174500Y-146954700D01*
X112374500Y-144154700D02*
X89174500Y-144154700D01*
X112374500Y-146954700D02*
X112374500Y-144154700D01*
%TO.C,RN1*%
X109651800Y-118138400D02*
X109651800Y-115338400D01*
X89161800Y-118138400D02*
X112361800Y-118138400D01*
X89161800Y-115338400D02*
X89161800Y-118138400D01*
X112361800Y-115338400D02*
X89161800Y-115338400D01*
X112361800Y-118138400D02*
X112361800Y-115338400D01*
%TO.C,J8*%
X153000400Y-93958100D02*
X154330400Y-93958100D01*
X153000400Y-95288100D02*
X153000400Y-93958100D01*
X153000400Y-96558100D02*
X155660400Y-96558100D01*
X155660400Y-96558100D02*
X155660400Y-114398100D01*
X153000400Y-96558100D02*
X153000400Y-114398100D01*
X153000400Y-114398100D02*
X155660400Y-114398100D01*
%TO.C,J7*%
X156785000Y-93958100D02*
X158115000Y-93958100D01*
X156785000Y-95288100D02*
X156785000Y-93958100D01*
X156785000Y-96558100D02*
X159445000Y-96558100D01*
X159445000Y-96558100D02*
X159445000Y-114398100D01*
X156785000Y-96558100D02*
X156785000Y-114398100D01*
X156785000Y-114398100D02*
X159445000Y-114398100D01*
%TO.C,J5*%
X74666800Y-89163200D02*
X74666800Y-87833200D01*
X75996800Y-89163200D02*
X74666800Y-89163200D01*
X77266800Y-89163200D02*
X77266800Y-86503200D01*
X77266800Y-86503200D02*
X95106800Y-86503200D01*
X77266800Y-89163200D02*
X95106800Y-89163200D01*
X95106800Y-89163200D02*
X95106800Y-86503200D01*
%TO.C,J2*%
X153076600Y-121872700D02*
X154406600Y-121872700D01*
X153076600Y-123202700D02*
X153076600Y-121872700D01*
X153076600Y-124472700D02*
X155736600Y-124472700D01*
X155736600Y-124472700D02*
X155736600Y-142312700D01*
X153076600Y-124472700D02*
X153076600Y-142312700D01*
X153076600Y-142312700D02*
X155736600Y-142312700D01*
%TO.C,J1*%
X156912000Y-121872700D02*
X158242000Y-121872700D01*
X156912000Y-123202700D02*
X156912000Y-121872700D01*
X156912000Y-124472700D02*
X159572000Y-124472700D01*
X159572000Y-124472700D02*
X159572000Y-142312700D01*
X156912000Y-124472700D02*
X156912000Y-142312700D01*
X156912000Y-142312700D02*
X159572000Y-142312700D01*
%TO.C,D16*%
X121112600Y-136224600D02*
X121112600Y-139314600D01*
X126172600Y-137769600D02*
G75*
G03*
X126172600Y-137769600I-2500000J0D01*
G01*
X126662600Y-137769138D02*
G75*
G02*
X121112600Y-139314430I-2990000J-462D01*
G01*
X126662600Y-137770062D02*
G75*
G03*
X121112600Y-136224770I-2990000J462D01*
G01*
%TO.C,D15*%
X114559400Y-136224600D02*
X114559400Y-139314600D01*
X119619400Y-137769600D02*
G75*
G03*
X119619400Y-137769600I-2500000J0D01*
G01*
X120109400Y-137769138D02*
G75*
G02*
X114559400Y-139314430I-2990000J-462D01*
G01*
X120109400Y-137770062D02*
G75*
G03*
X114559400Y-136224770I-2990000J462D01*
G01*
%TO.C,D14*%
X108006200Y-136224600D02*
X108006200Y-139314600D01*
X113066200Y-137769600D02*
G75*
G03*
X113066200Y-137769600I-2500000J0D01*
G01*
X113556200Y-137769138D02*
G75*
G02*
X108006200Y-139314430I-2990000J-462D01*
G01*
X113556200Y-137770062D02*
G75*
G03*
X108006200Y-136224770I-2990000J462D01*
G01*
%TO.C,D13*%
X101427600Y-136224600D02*
X101427600Y-139314600D01*
X106487600Y-137769600D02*
G75*
G03*
X106487600Y-137769600I-2500000J0D01*
G01*
X106977600Y-137769138D02*
G75*
G02*
X101427600Y-139314430I-2990000J-462D01*
G01*
X106977600Y-137770062D02*
G75*
G03*
X101427600Y-136224770I-2990000J462D01*
G01*
%TO.C,D12*%
X94849000Y-136199200D02*
X94849000Y-139289200D01*
X99909000Y-137744200D02*
G75*
G03*
X99909000Y-137744200I-2500000J0D01*
G01*
X100399000Y-137743738D02*
G75*
G02*
X94849000Y-139289030I-2990000J-462D01*
G01*
X100399000Y-137744662D02*
G75*
G03*
X94849000Y-136199370I-2990000J462D01*
G01*
%TO.C,D11*%
X88270400Y-136199200D02*
X88270400Y-139289200D01*
X93330400Y-137744200D02*
G75*
G03*
X93330400Y-137744200I-2500000J0D01*
G01*
X93820400Y-137743738D02*
G75*
G02*
X88270400Y-139289030I-2990000J-462D01*
G01*
X93820400Y-137744662D02*
G75*
G03*
X88270400Y-136199370I-2990000J462D01*
G01*
%TO.C,D10*%
X81691800Y-136199200D02*
X81691800Y-139289200D01*
X86751800Y-137744200D02*
G75*
G03*
X86751800Y-137744200I-2500000J0D01*
G01*
X87241800Y-137743738D02*
G75*
G02*
X81691800Y-139289030I-2990000J-462D01*
G01*
X87241800Y-137744662D02*
G75*
G03*
X81691800Y-136199370I-2990000J462D01*
G01*
%TO.C,D9*%
X75087800Y-136199200D02*
X75087800Y-139289200D01*
X80147800Y-137744200D02*
G75*
G03*
X80147800Y-137744200I-2500000J0D01*
G01*
X80637800Y-137743738D02*
G75*
G02*
X75087800Y-139289030I-2990000J-462D01*
G01*
X80637800Y-137744662D02*
G75*
G03*
X75087800Y-136199370I-2990000J462D01*
G01*
%TO.C,D8*%
X121036400Y-108208400D02*
X121036400Y-111298400D01*
X126096400Y-109753400D02*
G75*
G03*
X126096400Y-109753400I-2500000J0D01*
G01*
X126586400Y-109752938D02*
G75*
G02*
X121036400Y-111298230I-2990000J-462D01*
G01*
X126586400Y-109753862D02*
G75*
G03*
X121036400Y-108208570I-2990000J462D01*
G01*
%TO.C,D7*%
X114457800Y-108208400D02*
X114457800Y-111298400D01*
X119517800Y-109753400D02*
G75*
G03*
X119517800Y-109753400I-2500000J0D01*
G01*
X120007800Y-109752938D02*
G75*
G02*
X114457800Y-111298230I-2990000J-462D01*
G01*
X120007800Y-109753862D02*
G75*
G03*
X114457800Y-108208570I-2990000J462D01*
G01*
%TO.C,D6*%
X107879200Y-108208400D02*
X107879200Y-111298400D01*
X112939200Y-109753400D02*
G75*
G03*
X112939200Y-109753400I-2500000J0D01*
G01*
X113429200Y-109752938D02*
G75*
G02*
X107879200Y-111298230I-2990000J-462D01*
G01*
X113429200Y-109753862D02*
G75*
G03*
X107879200Y-108208570I-2990000J462D01*
G01*
%TO.C,D5*%
X101300600Y-108208400D02*
X101300600Y-111298400D01*
X106360600Y-109753400D02*
G75*
G03*
X106360600Y-109753400I-2500000J0D01*
G01*
X106850600Y-109752938D02*
G75*
G02*
X101300600Y-111298230I-2990000J-462D01*
G01*
X106850600Y-109753862D02*
G75*
G03*
X101300600Y-108208570I-2990000J462D01*
G01*
%TO.C,D4*%
X94722000Y-108208400D02*
X94722000Y-111298400D01*
X99782000Y-109753400D02*
G75*
G03*
X99782000Y-109753400I-2500000J0D01*
G01*
X100272000Y-109752938D02*
G75*
G02*
X94722000Y-111298230I-2990000J-462D01*
G01*
X100272000Y-109753862D02*
G75*
G03*
X94722000Y-108208570I-2990000J462D01*
G01*
%TO.C,D3*%
X88143400Y-108208400D02*
X88143400Y-111298400D01*
X93203400Y-109753400D02*
G75*
G03*
X93203400Y-109753400I-2500000J0D01*
G01*
X93693400Y-109752938D02*
G75*
G02*
X88143400Y-111298230I-2990000J-462D01*
G01*
X93693400Y-109753862D02*
G75*
G03*
X88143400Y-108208570I-2990000J462D01*
G01*
%TO.C,D2*%
X81564800Y-108208400D02*
X81564800Y-111298400D01*
X86624800Y-109753400D02*
G75*
G03*
X86624800Y-109753400I-2500000J0D01*
G01*
X87114800Y-109752938D02*
G75*
G02*
X81564800Y-111298230I-2990000J-462D01*
G01*
X87114800Y-109753862D02*
G75*
G03*
X81564800Y-108208570I-2990000J462D01*
G01*
%TO.C,D1*%
X74986200Y-108208400D02*
X74986200Y-111298400D01*
X80046200Y-109753400D02*
G75*
G03*
X80046200Y-109753400I-2500000J0D01*
G01*
X80536200Y-109752938D02*
G75*
G02*
X74986200Y-111298230I-2990000J-462D01*
G01*
X80536200Y-109753862D02*
G75*
G03*
X74986200Y-108208570I-2990000J462D01*
G01*
%TD*%
M02*
