%TF.GenerationSoftware,KiCad,Pcbnew,(5.1.9-0-10_14)*%
%TF.CreationDate,2021-04-19T11:13:06-04:00*%
%TF.ProjectId,DISPLAY,44495350-4c41-4592-9e6b-696361645f70,rev?*%
%TF.SameCoordinates,Original*%
%TF.FileFunction,Copper,L2,Bot*%
%TF.FilePolarity,Positive*%
%FSLAX46Y46*%
G04 Gerber Fmt 4.6, Leading zero omitted, Abs format (unit mm)*
G04 Created by KiCad (PCBNEW (5.1.9-0-10_14)) date 2021-04-19 11:13:06*
%MOMM*%
%LPD*%
G01*
G04 APERTURE LIST*
%TA.AperFunction,NonConductor*%
%ADD10C,0.300000*%
%TD*%
%TA.AperFunction,ComponentPad*%
%ADD11O,1.700000X1.700000*%
%TD*%
%TA.AperFunction,ComponentPad*%
%ADD12R,1.700000X1.700000*%
%TD*%
%TA.AperFunction,ComponentPad*%
%ADD13O,1.600000X1.600000*%
%TD*%
%TA.AperFunction,ComponentPad*%
%ADD14R,1.600000X1.600000*%
%TD*%
%TA.AperFunction,ComponentPad*%
%ADD15R,1.524000X2.524000*%
%TD*%
%TA.AperFunction,ComponentPad*%
%ADD16O,1.524000X2.524000*%
%TD*%
%TA.AperFunction,ComponentPad*%
%ADD17C,1.600000*%
%TD*%
%TA.AperFunction,Conductor*%
%ADD18C,0.250000*%
%TD*%
%TA.AperFunction,Conductor*%
%ADD19C,0.254000*%
%TD*%
%TA.AperFunction,Conductor*%
%ADD20C,0.100000*%
%TD*%
G04 APERTURE END LIST*
D10*
X207450428Y-58717571D02*
X207450428Y-57717571D01*
X207450428Y-58003285D02*
X207379000Y-57860428D01*
X207307571Y-57789000D01*
X207164714Y-57717571D01*
X207021857Y-57717571D01*
X205736142Y-58717571D02*
X206593285Y-58717571D01*
X206164714Y-58717571D02*
X206164714Y-57217571D01*
X206307571Y-57431857D01*
X206450428Y-57574714D01*
X206593285Y-57646142D01*
D11*
%TO.P,J1,9*%
%TO.N,Net-(J1-Pad9)*%
X201549000Y-108331000D03*
%TO.P,J1,8*%
%TO.N,Net-(J1-Pad8)*%
X204089000Y-108331000D03*
%TO.P,J1,7*%
%TO.N,Net-(J1-Pad7)*%
X206629000Y-108331000D03*
%TO.P,J1,6*%
%TO.N,Net-(J1-Pad6)*%
X209169000Y-108331000D03*
%TO.P,J1,5*%
%TO.N,Net-(J1-Pad5)*%
X211709000Y-108331000D03*
%TO.P,J1,4*%
%TO.N,Net-(J1-Pad4)*%
X214249000Y-108331000D03*
%TO.P,J1,3*%
%TO.N,Net-(J1-Pad3)*%
X216789000Y-108331000D03*
%TO.P,J1,2*%
%TO.N,Net-(J1-Pad2)*%
X219329000Y-108331000D03*
D12*
%TO.P,J1,1*%
%TO.N,Net-(J1-Pad1)*%
X221869000Y-108331000D03*
%TD*%
D13*
%TO.P,U1,8*%
%TO.N,VCC*%
X165354000Y-68072000D03*
%TO.P,U1,4*%
%TO.N,Net-(U1-Pad4)*%
X157734000Y-75692000D03*
%TO.P,U1,7*%
%TO.N,Net-(R1-Pad1)*%
X165354000Y-70612000D03*
%TO.P,U1,3*%
%TO.N,/CLOCK_DISPLAY*%
X157734000Y-73152000D03*
%TO.P,U1,6*%
%TO.N,Net-(R1-Pad2)*%
X165354000Y-73152000D03*
%TO.P,U1,2*%
%TO.N,Net-(C1-Pad2)*%
X157734000Y-70612000D03*
%TO.P,U1,5*%
%TO.N,Net-(C2-Pad1)*%
X165354000Y-75692000D03*
D14*
%TO.P,U1,1*%
%TO.N,GND*%
X157734000Y-68072000D03*
%TD*%
D15*
%TO.P,U10,1*%
%TO.N,Net-(U10-Pad1)*%
X211709000Y-78486000D03*
D16*
%TO.P,U10,2*%
%TO.N,/F*%
X214249000Y-78486000D03*
%TO.P,U10,3*%
%TO.N,/G*%
X216789000Y-78486000D03*
%TO.P,U10,4*%
%TO.N,/E*%
X219329000Y-78486000D03*
%TO.P,U10,5*%
%TO.N,/D*%
X221869000Y-78486000D03*
%TO.P,U10,6*%
%TO.N,Net-(U10-Pad1)*%
X221869000Y-63246000D03*
%TO.P,U10,7*%
%TO.N,/DP*%
X219329000Y-63246000D03*
%TO.P,U10,8*%
%TO.N,/C*%
X216789000Y-63246000D03*
%TO.P,U10,9*%
%TO.N,/B*%
X214249000Y-63246000D03*
%TO.P,U10,10*%
%TO.N,/A*%
X211709000Y-63246000D03*
%TD*%
D13*
%TO.P,U9,28*%
%TO.N,VCC*%
X189103000Y-87757000D03*
%TO.P,U9,14*%
%TO.N,GND*%
X222123000Y-102997000D03*
%TO.P,U9,27*%
%TO.N,VCC*%
X191643000Y-87757000D03*
%TO.P,U9,13*%
%TO.N,/C*%
X219583000Y-102997000D03*
%TO.P,U9,26*%
%TO.N,GND*%
X194183000Y-87757000D03*
%TO.P,U9,12*%
%TO.N,/B*%
X217043000Y-102997000D03*
%TO.P,U9,25*%
%TO.N,Net-(U2-Pad1)*%
X196723000Y-87757000D03*
%TO.P,U9,11*%
%TO.N,/A*%
X214503000Y-102997000D03*
%TO.P,U9,24*%
%TO.N,VCC*%
X199263000Y-87757000D03*
%TO.P,U9,10*%
%TO.N,Net-(J1-Pad1)*%
X211963000Y-102997000D03*
%TO.P,U9,23*%
%TO.N,GND*%
X201803000Y-87757000D03*
%TO.P,U9,9*%
%TO.N,Net-(J1-Pad2)*%
X209423000Y-102997000D03*
%TO.P,U9,22*%
%TO.N,GND*%
X204343000Y-87757000D03*
%TO.P,U9,8*%
%TO.N,Net-(J1-Pad3)*%
X206883000Y-102997000D03*
%TO.P,U9,21*%
%TO.N,Net-(J1-Pad9)*%
X206883000Y-87757000D03*
%TO.P,U9,7*%
%TO.N,Net-(J1-Pad4)*%
X204343000Y-102997000D03*
%TO.P,U9,20*%
%TO.N,GND*%
X209423000Y-87757000D03*
%TO.P,U9,6*%
%TO.N,Net-(J1-Pad5)*%
X201803000Y-102997000D03*
%TO.P,U9,19*%
%TO.N,/H*%
X211963000Y-87757000D03*
%TO.P,U9,5*%
%TO.N,Net-(J1-Pad6)*%
X199263000Y-102997000D03*
%TO.P,U9,18*%
%TO.N,/G*%
X214503000Y-87757000D03*
%TO.P,U9,4*%
%TO.N,Net-(J1-Pad7)*%
X196723000Y-102997000D03*
%TO.P,U9,17*%
%TO.N,/F*%
X217043000Y-87757000D03*
%TO.P,U9,3*%
%TO.N,Net-(J1-Pad8)*%
X194183000Y-102997000D03*
%TO.P,U9,16*%
%TO.N,/E*%
X219583000Y-87757000D03*
%TO.P,U9,2*%
%TO.N,GND*%
X191643000Y-102997000D03*
%TO.P,U9,15*%
%TO.N,/D*%
X222123000Y-87757000D03*
D14*
%TO.P,U9,1*%
%TO.N,GND*%
X189103000Y-102997000D03*
%TD*%
D15*
%TO.P,U8,1*%
%TO.N,Net-(U4-Pad5)*%
X197993000Y-78486000D03*
D16*
%TO.P,U8,2*%
%TO.N,/F*%
X200533000Y-78486000D03*
%TO.P,U8,3*%
%TO.N,/G*%
X203073000Y-78486000D03*
%TO.P,U8,4*%
%TO.N,/E*%
X205613000Y-78486000D03*
%TO.P,U8,5*%
%TO.N,/D*%
X208153000Y-78486000D03*
%TO.P,U8,6*%
%TO.N,Net-(U4-Pad5)*%
X208153000Y-63246000D03*
%TO.P,U8,7*%
%TO.N,/DP*%
X205613000Y-63246000D03*
%TO.P,U8,8*%
%TO.N,/C*%
X203073000Y-63246000D03*
%TO.P,U8,9*%
%TO.N,/B*%
X200533000Y-63246000D03*
%TO.P,U8,10*%
%TO.N,/A*%
X197993000Y-63246000D03*
%TD*%
D15*
%TO.P,U7,1*%
%TO.N,Net-(U4-Pad6)*%
X184277000Y-78486000D03*
D16*
%TO.P,U7,2*%
%TO.N,/F*%
X186817000Y-78486000D03*
%TO.P,U7,3*%
%TO.N,/G*%
X189357000Y-78486000D03*
%TO.P,U7,4*%
%TO.N,/E*%
X191897000Y-78486000D03*
%TO.P,U7,5*%
%TO.N,/D*%
X194437000Y-78486000D03*
%TO.P,U7,6*%
%TO.N,Net-(U4-Pad6)*%
X194437000Y-63246000D03*
%TO.P,U7,7*%
%TO.N,/DP*%
X191897000Y-63246000D03*
%TO.P,U7,8*%
%TO.N,/C*%
X189357000Y-63246000D03*
%TO.P,U7,9*%
%TO.N,/B*%
X186817000Y-63246000D03*
%TO.P,U7,10*%
%TO.N,/A*%
X184277000Y-63246000D03*
%TD*%
D15*
%TO.P,U6,1*%
%TO.N,Net-(U4-Pad7)*%
X170688000Y-78486000D03*
D16*
%TO.P,U6,2*%
%TO.N,/F*%
X173228000Y-78486000D03*
%TO.P,U6,3*%
%TO.N,/G*%
X175768000Y-78486000D03*
%TO.P,U6,4*%
%TO.N,/E*%
X178308000Y-78486000D03*
%TO.P,U6,5*%
%TO.N,/D*%
X180848000Y-78486000D03*
%TO.P,U6,6*%
%TO.N,Net-(U4-Pad7)*%
X180848000Y-63246000D03*
%TO.P,U6,7*%
%TO.N,/DP*%
X178308000Y-63246000D03*
%TO.P,U6,8*%
%TO.N,/C*%
X175768000Y-63246000D03*
%TO.P,U6,9*%
%TO.N,/B*%
X173228000Y-63246000D03*
%TO.P,U6,10*%
%TO.N,/A*%
X170688000Y-63246000D03*
%TD*%
D13*
%TO.P,U4,16*%
%TO.N,VCC*%
X164338000Y-85471000D03*
%TO.P,U4,8*%
%TO.N,GND*%
X182118000Y-93091000D03*
%TO.P,U4,15*%
%TO.N,N/C*%
X166878000Y-85471000D03*
%TO.P,U4,7*%
%TO.N,Net-(U4-Pad7)*%
X179578000Y-93091000D03*
%TO.P,U4,14*%
%TO.N,N/C*%
X169418000Y-85471000D03*
%TO.P,U4,6*%
%TO.N,Net-(U4-Pad6)*%
X177038000Y-93091000D03*
%TO.P,U4,13*%
%TO.N,N/C*%
X171958000Y-85471000D03*
%TO.P,U4,5*%
%TO.N,Net-(U4-Pad5)*%
X174498000Y-93091000D03*
%TO.P,U4,12*%
%TO.N,N/C*%
X174498000Y-85471000D03*
%TO.P,U4,4*%
%TO.N,Net-(U10-Pad1)*%
X171958000Y-93091000D03*
%TO.P,U4,11*%
%TO.N,N/C*%
X177038000Y-85471000D03*
%TO.P,U4,3*%
%TO.N,VCC*%
X169418000Y-93091000D03*
%TO.P,U4,10*%
%TO.N,N/C*%
X179578000Y-85471000D03*
%TO.P,U4,2*%
%TO.N,Net-(U2-Pad1)*%
X166878000Y-93091000D03*
%TO.P,U4,9*%
%TO.N,N/C*%
X182118000Y-85471000D03*
D14*
%TO.P,U4,1*%
%TO.N,GND*%
X164338000Y-93091000D03*
%TD*%
D13*
%TO.P,U2,16*%
%TO.N,VCC*%
X164465000Y-98044000D03*
%TO.P,U2,8*%
X182245000Y-105664000D03*
%TO.P,U2,15*%
X167005000Y-98044000D03*
%TO.P,U2,7*%
X179705000Y-105664000D03*
%TO.P,U2,14*%
%TO.N,Net-(U2-Pad14)*%
X169545000Y-98044000D03*
%TO.P,U2,6*%
%TO.N,/CLOCK_DISPLAY*%
X177165000Y-105664000D03*
%TO.P,U2,13*%
%TO.N,GND*%
X172085000Y-98044000D03*
%TO.P,U2,5*%
%TO.N,VCC*%
X174625000Y-105664000D03*
%TO.P,U2,12*%
X174625000Y-98044000D03*
%TO.P,U2,4*%
X172085000Y-105664000D03*
%TO.P,U2,11*%
%TO.N,Net-(U2-Pad11)*%
X177165000Y-98044000D03*
%TO.P,U2,3*%
%TO.N,VCC*%
X169545000Y-105664000D03*
%TO.P,U2,10*%
%TO.N,Net-(U2-Pad1)*%
X179705000Y-98044000D03*
%TO.P,U2,2*%
%TO.N,VCC*%
X167005000Y-105664000D03*
%TO.P,U2,9*%
X182245000Y-98044000D03*
D14*
%TO.P,U2,1*%
%TO.N,Net-(U2-Pad1)*%
X164465000Y-105664000D03*
%TD*%
D13*
%TO.P,R2,2*%
%TO.N,VCC*%
X158115000Y-111379000D03*
D17*
%TO.P,R2,1*%
%TO.N,Net-(R1-Pad1)*%
X158115000Y-101219000D03*
%TD*%
D13*
%TO.P,R1,2*%
%TO.N,Net-(R1-Pad2)*%
X158115000Y-85979000D03*
D17*
%TO.P,R1,1*%
%TO.N,Net-(R1-Pad1)*%
X158115000Y-96139000D03*
%TD*%
D11*
%TO.P,J16,2*%
%TO.N,GND*%
X181483000Y-111125000D03*
D12*
%TO.P,J16,1*%
%TO.N,VCC*%
X184023000Y-111125000D03*
%TD*%
D17*
%TO.P,C16,2*%
%TO.N,GND*%
X191897000Y-108625000D03*
%TO.P,C16,1*%
%TO.N,VCC*%
X191897000Y-111125000D03*
%TD*%
%TO.P,C2,2*%
%TO.N,GND*%
X159211000Y-81280000D03*
%TO.P,C2,1*%
%TO.N,Net-(C2-Pad1)*%
X164211000Y-81280000D03*
%TD*%
%TO.P,C1,2*%
%TO.N,Net-(C1-Pad2)*%
X163496000Y-62611000D03*
%TO.P,C1,1*%
%TO.N,GND*%
X158496000Y-62611000D03*
%TD*%
D18*
%TO.N,GND*%
X195383989Y-86556011D02*
X197554011Y-86556011D01*
X197993000Y-89281000D02*
X190627000Y-96647000D01*
X173482000Y-96647000D02*
X172085000Y-98044000D01*
X197554011Y-86556011D02*
X197993000Y-86995000D01*
X194183000Y-87757000D02*
X195383989Y-86556011D01*
X197993000Y-86995000D02*
X197993000Y-89281000D01*
X190627000Y-96647000D02*
X173482000Y-96647000D01*
%TO.N,Net-(U2-Pad1)*%
X179705000Y-98044000D02*
X181610000Y-99949000D01*
X181610000Y-99949000D02*
X188468000Y-99949000D01*
X188468000Y-99949000D02*
X198882000Y-89535000D01*
X198882000Y-89535000D02*
X199771000Y-89535000D01*
X199771000Y-89535000D02*
X200406000Y-88900000D01*
X200406000Y-88900000D02*
X200406000Y-86995000D01*
X200406000Y-86995000D02*
X199390000Y-85979000D01*
X199390000Y-85979000D02*
X193802000Y-85979000D01*
X193802000Y-85979000D02*
X192786000Y-86995000D01*
X192786000Y-86995000D02*
X192786000Y-88265000D01*
X192786000Y-88265000D02*
X193675000Y-89154000D01*
X169983989Y-96196989D02*
X166878000Y-93091000D01*
X189172011Y-96196989D02*
X169983989Y-96196989D01*
X196723000Y-88646000D02*
X189172011Y-96196989D01*
X196723000Y-87757000D02*
X196723000Y-88646000D01*
X195326000Y-89154000D02*
X196723000Y-87757000D01*
X193675000Y-89154000D02*
X195326000Y-89154000D01*
%TO.N,Net-(U4-Pad7)*%
X180848000Y-68326000D02*
X170688000Y-78486000D01*
X180848000Y-63246000D02*
X180848000Y-68326000D01*
X170688000Y-78486000D02*
X175387000Y-83185000D01*
X182499000Y-83185000D02*
X183642000Y-84328000D01*
X183642000Y-89027000D02*
X179578000Y-93091000D01*
X175387000Y-83185000D02*
X182499000Y-83185000D01*
X183642000Y-84328000D02*
X183642000Y-89027000D01*
%TO.N,Net-(U4-Pad6)*%
X194437000Y-68326000D02*
X184277000Y-78486000D01*
X194437000Y-63246000D02*
X194437000Y-68326000D01*
X184277000Y-78486000D02*
X184277000Y-93593356D01*
X183023400Y-94846956D02*
X178793956Y-94846956D01*
X184277000Y-93593356D02*
X183023400Y-94846956D01*
X178793956Y-94846956D02*
X177038000Y-93091000D01*
%TO.N,Net-(U4-Pad5)*%
X208153000Y-63246000D02*
X208153000Y-64389000D01*
X197993000Y-74549000D02*
X197993000Y-78486000D01*
X208153000Y-64389000D02*
X197993000Y-74549000D01*
X203005401Y-73473599D02*
X211258991Y-73473599D01*
X211258991Y-73473599D02*
X220781990Y-63950600D01*
X221418746Y-61658990D02*
X222319254Y-61658990D01*
X191916011Y-85528989D02*
X190228001Y-87216999D01*
X212796001Y-76963999D02*
X212796001Y-80008001D01*
X222319254Y-61658990D02*
X222956010Y-62295746D01*
X183396200Y-95746978D02*
X176022608Y-95746978D01*
X220781990Y-63950600D02*
X220781990Y-62295746D01*
X174498000Y-94222370D02*
X174498000Y-93091000D01*
X222956010Y-62295746D02*
X222956010Y-66803990D01*
X197993000Y-78486000D02*
X203005401Y-73473599D01*
X207275013Y-85528989D02*
X191916011Y-85528989D01*
X212796001Y-80008001D02*
X207275013Y-85528989D01*
X220781990Y-62295746D02*
X221418746Y-61658990D01*
X190228001Y-87216999D02*
X190228001Y-88915177D01*
X190228001Y-88915177D02*
X183396200Y-95746978D01*
X222956010Y-66803990D02*
X212796001Y-76963999D01*
X176022608Y-95746978D02*
X174498000Y-94222370D01*
%TO.N,Net-(U10-Pad1)*%
X221869000Y-63246000D02*
X221869000Y-63500000D01*
X211709000Y-73660000D02*
X211709000Y-78486000D01*
X221869000Y-63500000D02*
X211709000Y-73660000D01*
X185177022Y-90034799D02*
X185177022Y-93329745D01*
X175321022Y-91959022D02*
X173089978Y-91959022D01*
X206178989Y-84016011D02*
X191195810Y-84016011D01*
X185177022Y-93329745D02*
X183209800Y-95296967D01*
X173089978Y-91959022D02*
X171958000Y-93091000D01*
X177210556Y-95296967D02*
X175912999Y-93999410D01*
X175912999Y-93999410D02*
X175912999Y-92550999D01*
X191195810Y-84016011D02*
X185177022Y-90034799D01*
X175912999Y-92550999D02*
X175321022Y-91959022D01*
X211709000Y-78486000D02*
X206178989Y-84016011D01*
X183209800Y-95296967D02*
X177210556Y-95296967D01*
%TO.N,/DP*%
X178308000Y-63246000D02*
X178308000Y-62230000D01*
X178308000Y-62230000D02*
X179959000Y-60579000D01*
X179959000Y-60579000D02*
X190881000Y-60579000D01*
X191897000Y-61595000D02*
X191897000Y-63246000D01*
X190881000Y-60579000D02*
X191897000Y-61595000D01*
X191897000Y-63246000D02*
X191897000Y-62103000D01*
X191897000Y-62103000D02*
X193421000Y-60579000D01*
X193421000Y-60579000D02*
X204597000Y-60579000D01*
X205613000Y-61595000D02*
X205613000Y-63246000D01*
X204597000Y-60579000D02*
X205613000Y-61595000D01*
X205613000Y-63246000D02*
X205613000Y-61722000D01*
X205613000Y-61722000D02*
X206756000Y-60579000D01*
X206756000Y-60579000D02*
X218567000Y-60579000D01*
X219329000Y-61341000D02*
X219329000Y-63246000D01*
X218567000Y-60579000D02*
X219329000Y-61341000D01*
%TD*%
D19*
%TO.N,GND*%
X231344000Y-119457000D02*
X149021000Y-119457000D01*
X149021000Y-115867721D01*
X150138000Y-115867721D01*
X150138000Y-116288279D01*
X150220047Y-116700756D01*
X150380988Y-117089302D01*
X150614637Y-117438983D01*
X150912017Y-117736363D01*
X151261698Y-117970012D01*
X151650244Y-118130953D01*
X152062721Y-118213000D01*
X152483279Y-118213000D01*
X152895756Y-118130953D01*
X153284302Y-117970012D01*
X153633983Y-117736363D01*
X153931363Y-117438983D01*
X154165012Y-117089302D01*
X154325953Y-116700756D01*
X154408000Y-116288279D01*
X154408000Y-115867721D01*
X225322000Y-115867721D01*
X225322000Y-116288279D01*
X225404047Y-116700756D01*
X225564988Y-117089302D01*
X225798637Y-117438983D01*
X226096017Y-117736363D01*
X226445698Y-117970012D01*
X226834244Y-118130953D01*
X227246721Y-118213000D01*
X227667279Y-118213000D01*
X228079756Y-118130953D01*
X228468302Y-117970012D01*
X228817983Y-117736363D01*
X229115363Y-117438983D01*
X229349012Y-117089302D01*
X229509953Y-116700756D01*
X229592000Y-116288279D01*
X229592000Y-115867721D01*
X229509953Y-115455244D01*
X229349012Y-115066698D01*
X229115363Y-114717017D01*
X228817983Y-114419637D01*
X228468302Y-114185988D01*
X228079756Y-114025047D01*
X227667279Y-113943000D01*
X227246721Y-113943000D01*
X226834244Y-114025047D01*
X226445698Y-114185988D01*
X226096017Y-114419637D01*
X225798637Y-114717017D01*
X225564988Y-115066698D01*
X225404047Y-115455244D01*
X225322000Y-115867721D01*
X154408000Y-115867721D01*
X154325953Y-115455244D01*
X154165012Y-115066698D01*
X153931363Y-114717017D01*
X153633983Y-114419637D01*
X153284302Y-114185988D01*
X152895756Y-114025047D01*
X152483279Y-113943000D01*
X152062721Y-113943000D01*
X151650244Y-114025047D01*
X151261698Y-114185988D01*
X150912017Y-114419637D01*
X150614637Y-114717017D01*
X150380988Y-115066698D01*
X150220047Y-115455244D01*
X150138000Y-115867721D01*
X149021000Y-115867721D01*
X149021000Y-111237665D01*
X156680000Y-111237665D01*
X156680000Y-111520335D01*
X156735147Y-111797574D01*
X156843320Y-112058727D01*
X157000363Y-112293759D01*
X157200241Y-112493637D01*
X157435273Y-112650680D01*
X157696426Y-112758853D01*
X157973665Y-112814000D01*
X158256335Y-112814000D01*
X158533574Y-112758853D01*
X158794727Y-112650680D01*
X159029759Y-112493637D01*
X159229637Y-112293759D01*
X159386680Y-112058727D01*
X159494853Y-111797574D01*
X159550000Y-111520335D01*
X159550000Y-111481891D01*
X180041519Y-111481891D01*
X180138843Y-111756252D01*
X180287822Y-112006355D01*
X180482731Y-112222588D01*
X180716080Y-112396641D01*
X180978901Y-112521825D01*
X181126110Y-112566476D01*
X181356000Y-112445155D01*
X181356000Y-111252000D01*
X180162186Y-111252000D01*
X180041519Y-111481891D01*
X159550000Y-111481891D01*
X159550000Y-111237665D01*
X159494853Y-110960426D01*
X159415193Y-110768109D01*
X180041519Y-110768109D01*
X180162186Y-110998000D01*
X181356000Y-110998000D01*
X181356000Y-109804845D01*
X181610000Y-109804845D01*
X181610000Y-110998000D01*
X181630000Y-110998000D01*
X181630000Y-111252000D01*
X181610000Y-111252000D01*
X181610000Y-112445155D01*
X181839890Y-112566476D01*
X181987099Y-112521825D01*
X182249920Y-112396641D01*
X182483269Y-112222588D01*
X182559034Y-112138534D01*
X182583498Y-112219180D01*
X182642463Y-112329494D01*
X182721815Y-112426185D01*
X182818506Y-112505537D01*
X182928820Y-112564502D01*
X183048518Y-112600812D01*
X183173000Y-112613072D01*
X184873000Y-112613072D01*
X184997482Y-112600812D01*
X185117180Y-112564502D01*
X185227494Y-112505537D01*
X185324185Y-112426185D01*
X185403537Y-112329494D01*
X185462502Y-112219180D01*
X185498812Y-112099482D01*
X185511072Y-111975000D01*
X185511072Y-110983665D01*
X190462000Y-110983665D01*
X190462000Y-111266335D01*
X190517147Y-111543574D01*
X190625320Y-111804727D01*
X190782363Y-112039759D01*
X190982241Y-112239637D01*
X191217273Y-112396680D01*
X191478426Y-112504853D01*
X191755665Y-112560000D01*
X192038335Y-112560000D01*
X192315574Y-112504853D01*
X192576727Y-112396680D01*
X192811759Y-112239637D01*
X193011637Y-112039759D01*
X193168680Y-111804727D01*
X193276853Y-111543574D01*
X193332000Y-111266335D01*
X193332000Y-110983665D01*
X193276853Y-110706426D01*
X193168680Y-110445273D01*
X193011637Y-110210241D01*
X192811759Y-110010363D01*
X192611131Y-109876308D01*
X192638514Y-109861671D01*
X192710097Y-109617702D01*
X191897000Y-108804605D01*
X191083903Y-109617702D01*
X191155486Y-109861671D01*
X191184341Y-109875324D01*
X190982241Y-110010363D01*
X190782363Y-110210241D01*
X190625320Y-110445273D01*
X190517147Y-110706426D01*
X190462000Y-110983665D01*
X185511072Y-110983665D01*
X185511072Y-110275000D01*
X185498812Y-110150518D01*
X185462502Y-110030820D01*
X185403537Y-109920506D01*
X185324185Y-109823815D01*
X185227494Y-109744463D01*
X185117180Y-109685498D01*
X184997482Y-109649188D01*
X184873000Y-109636928D01*
X183173000Y-109636928D01*
X183048518Y-109649188D01*
X182928820Y-109685498D01*
X182818506Y-109744463D01*
X182721815Y-109823815D01*
X182642463Y-109920506D01*
X182583498Y-110030820D01*
X182559034Y-110111466D01*
X182483269Y-110027412D01*
X182249920Y-109853359D01*
X181987099Y-109728175D01*
X181839890Y-109683524D01*
X181610000Y-109804845D01*
X181356000Y-109804845D01*
X181126110Y-109683524D01*
X180978901Y-109728175D01*
X180716080Y-109853359D01*
X180482731Y-110027412D01*
X180287822Y-110243645D01*
X180138843Y-110493748D01*
X180041519Y-110768109D01*
X159415193Y-110768109D01*
X159386680Y-110699273D01*
X159229637Y-110464241D01*
X159029759Y-110264363D01*
X158794727Y-110107320D01*
X158533574Y-109999147D01*
X158256335Y-109944000D01*
X157973665Y-109944000D01*
X157696426Y-109999147D01*
X157435273Y-110107320D01*
X157200241Y-110264363D01*
X157000363Y-110464241D01*
X156843320Y-110699273D01*
X156735147Y-110960426D01*
X156680000Y-111237665D01*
X149021000Y-111237665D01*
X149021000Y-108695512D01*
X190456783Y-108695512D01*
X190498213Y-108975130D01*
X190593397Y-109241292D01*
X190660329Y-109366514D01*
X190904298Y-109438097D01*
X191717395Y-108625000D01*
X192076605Y-108625000D01*
X192889702Y-109438097D01*
X193133671Y-109366514D01*
X193254571Y-109111004D01*
X193323300Y-108836816D01*
X193337217Y-108554488D01*
X193295787Y-108274870D01*
X193263555Y-108184740D01*
X200064000Y-108184740D01*
X200064000Y-108477260D01*
X200121068Y-108764158D01*
X200233010Y-109034411D01*
X200395525Y-109277632D01*
X200602368Y-109484475D01*
X200845589Y-109646990D01*
X201115842Y-109758932D01*
X201402740Y-109816000D01*
X201695260Y-109816000D01*
X201982158Y-109758932D01*
X202252411Y-109646990D01*
X202495632Y-109484475D01*
X202702475Y-109277632D01*
X202819000Y-109103240D01*
X202935525Y-109277632D01*
X203142368Y-109484475D01*
X203385589Y-109646990D01*
X203655842Y-109758932D01*
X203942740Y-109816000D01*
X204235260Y-109816000D01*
X204522158Y-109758932D01*
X204792411Y-109646990D01*
X205035632Y-109484475D01*
X205242475Y-109277632D01*
X205359000Y-109103240D01*
X205475525Y-109277632D01*
X205682368Y-109484475D01*
X205925589Y-109646990D01*
X206195842Y-109758932D01*
X206482740Y-109816000D01*
X206775260Y-109816000D01*
X207062158Y-109758932D01*
X207332411Y-109646990D01*
X207575632Y-109484475D01*
X207782475Y-109277632D01*
X207899000Y-109103240D01*
X208015525Y-109277632D01*
X208222368Y-109484475D01*
X208465589Y-109646990D01*
X208735842Y-109758932D01*
X209022740Y-109816000D01*
X209315260Y-109816000D01*
X209602158Y-109758932D01*
X209872411Y-109646990D01*
X210115632Y-109484475D01*
X210322475Y-109277632D01*
X210439000Y-109103240D01*
X210555525Y-109277632D01*
X210762368Y-109484475D01*
X211005589Y-109646990D01*
X211275842Y-109758932D01*
X211562740Y-109816000D01*
X211855260Y-109816000D01*
X212142158Y-109758932D01*
X212412411Y-109646990D01*
X212655632Y-109484475D01*
X212862475Y-109277632D01*
X212979000Y-109103240D01*
X213095525Y-109277632D01*
X213302368Y-109484475D01*
X213545589Y-109646990D01*
X213815842Y-109758932D01*
X214102740Y-109816000D01*
X214395260Y-109816000D01*
X214682158Y-109758932D01*
X214952411Y-109646990D01*
X215195632Y-109484475D01*
X215402475Y-109277632D01*
X215519000Y-109103240D01*
X215635525Y-109277632D01*
X215842368Y-109484475D01*
X216085589Y-109646990D01*
X216355842Y-109758932D01*
X216642740Y-109816000D01*
X216935260Y-109816000D01*
X217222158Y-109758932D01*
X217492411Y-109646990D01*
X217735632Y-109484475D01*
X217942475Y-109277632D01*
X218059000Y-109103240D01*
X218175525Y-109277632D01*
X218382368Y-109484475D01*
X218625589Y-109646990D01*
X218895842Y-109758932D01*
X219182740Y-109816000D01*
X219475260Y-109816000D01*
X219762158Y-109758932D01*
X220032411Y-109646990D01*
X220275632Y-109484475D01*
X220407487Y-109352620D01*
X220429498Y-109425180D01*
X220488463Y-109535494D01*
X220567815Y-109632185D01*
X220664506Y-109711537D01*
X220774820Y-109770502D01*
X220894518Y-109806812D01*
X221019000Y-109819072D01*
X222719000Y-109819072D01*
X222843482Y-109806812D01*
X222963180Y-109770502D01*
X223073494Y-109711537D01*
X223170185Y-109632185D01*
X223249537Y-109535494D01*
X223308502Y-109425180D01*
X223344812Y-109305482D01*
X223357072Y-109181000D01*
X223357072Y-107481000D01*
X223344812Y-107356518D01*
X223308502Y-107236820D01*
X223249537Y-107126506D01*
X223170185Y-107029815D01*
X223073494Y-106950463D01*
X222963180Y-106891498D01*
X222843482Y-106855188D01*
X222719000Y-106842928D01*
X221019000Y-106842928D01*
X220894518Y-106855188D01*
X220774820Y-106891498D01*
X220664506Y-106950463D01*
X220567815Y-107029815D01*
X220488463Y-107126506D01*
X220429498Y-107236820D01*
X220407487Y-107309380D01*
X220275632Y-107177525D01*
X220032411Y-107015010D01*
X219762158Y-106903068D01*
X219475260Y-106846000D01*
X219182740Y-106846000D01*
X218895842Y-106903068D01*
X218625589Y-107015010D01*
X218382368Y-107177525D01*
X218175525Y-107384368D01*
X218059000Y-107558760D01*
X217942475Y-107384368D01*
X217735632Y-107177525D01*
X217492411Y-107015010D01*
X217222158Y-106903068D01*
X216935260Y-106846000D01*
X216642740Y-106846000D01*
X216355842Y-106903068D01*
X216085589Y-107015010D01*
X215842368Y-107177525D01*
X215635525Y-107384368D01*
X215519000Y-107558760D01*
X215402475Y-107384368D01*
X215195632Y-107177525D01*
X214952411Y-107015010D01*
X214682158Y-106903068D01*
X214395260Y-106846000D01*
X214102740Y-106846000D01*
X213815842Y-106903068D01*
X213545589Y-107015010D01*
X213302368Y-107177525D01*
X213095525Y-107384368D01*
X212979000Y-107558760D01*
X212862475Y-107384368D01*
X212655632Y-107177525D01*
X212412411Y-107015010D01*
X212142158Y-106903068D01*
X211855260Y-106846000D01*
X211562740Y-106846000D01*
X211275842Y-106903068D01*
X211005589Y-107015010D01*
X210762368Y-107177525D01*
X210555525Y-107384368D01*
X210439000Y-107558760D01*
X210322475Y-107384368D01*
X210115632Y-107177525D01*
X209872411Y-107015010D01*
X209602158Y-106903068D01*
X209315260Y-106846000D01*
X209022740Y-106846000D01*
X208735842Y-106903068D01*
X208465589Y-107015010D01*
X208222368Y-107177525D01*
X208015525Y-107384368D01*
X207899000Y-107558760D01*
X207782475Y-107384368D01*
X207575632Y-107177525D01*
X207332411Y-107015010D01*
X207062158Y-106903068D01*
X206775260Y-106846000D01*
X206482740Y-106846000D01*
X206195842Y-106903068D01*
X205925589Y-107015010D01*
X205682368Y-107177525D01*
X205475525Y-107384368D01*
X205359000Y-107558760D01*
X205242475Y-107384368D01*
X205035632Y-107177525D01*
X204792411Y-107015010D01*
X204522158Y-106903068D01*
X204235260Y-106846000D01*
X203942740Y-106846000D01*
X203655842Y-106903068D01*
X203385589Y-107015010D01*
X203142368Y-107177525D01*
X202935525Y-107384368D01*
X202819000Y-107558760D01*
X202702475Y-107384368D01*
X202495632Y-107177525D01*
X202252411Y-107015010D01*
X201982158Y-106903068D01*
X201695260Y-106846000D01*
X201402740Y-106846000D01*
X201115842Y-106903068D01*
X200845589Y-107015010D01*
X200602368Y-107177525D01*
X200395525Y-107384368D01*
X200233010Y-107627589D01*
X200121068Y-107897842D01*
X200064000Y-108184740D01*
X193263555Y-108184740D01*
X193200603Y-108008708D01*
X193133671Y-107883486D01*
X192889702Y-107811903D01*
X192076605Y-108625000D01*
X191717395Y-108625000D01*
X190904298Y-107811903D01*
X190660329Y-107883486D01*
X190539429Y-108138996D01*
X190470700Y-108413184D01*
X190456783Y-108695512D01*
X149021000Y-108695512D01*
X149021000Y-107632298D01*
X191083903Y-107632298D01*
X191897000Y-108445395D01*
X192710097Y-107632298D01*
X192638514Y-107388329D01*
X192383004Y-107267429D01*
X192108816Y-107198700D01*
X191826488Y-107184783D01*
X191546870Y-107226213D01*
X191280708Y-107321397D01*
X191155486Y-107388329D01*
X191083903Y-107632298D01*
X149021000Y-107632298D01*
X149021000Y-104864000D01*
X163026928Y-104864000D01*
X163026928Y-106464000D01*
X163039188Y-106588482D01*
X163075498Y-106708180D01*
X163134463Y-106818494D01*
X163213815Y-106915185D01*
X163310506Y-106994537D01*
X163420820Y-107053502D01*
X163540518Y-107089812D01*
X163665000Y-107102072D01*
X165265000Y-107102072D01*
X165389482Y-107089812D01*
X165509180Y-107053502D01*
X165619494Y-106994537D01*
X165716185Y-106915185D01*
X165795537Y-106818494D01*
X165854502Y-106708180D01*
X165890812Y-106588482D01*
X165891643Y-106580039D01*
X166090241Y-106778637D01*
X166325273Y-106935680D01*
X166586426Y-107043853D01*
X166863665Y-107099000D01*
X167146335Y-107099000D01*
X167423574Y-107043853D01*
X167684727Y-106935680D01*
X167919759Y-106778637D01*
X168119637Y-106578759D01*
X168275000Y-106346241D01*
X168430363Y-106578759D01*
X168630241Y-106778637D01*
X168865273Y-106935680D01*
X169126426Y-107043853D01*
X169403665Y-107099000D01*
X169686335Y-107099000D01*
X169963574Y-107043853D01*
X170224727Y-106935680D01*
X170459759Y-106778637D01*
X170659637Y-106578759D01*
X170815000Y-106346241D01*
X170970363Y-106578759D01*
X171170241Y-106778637D01*
X171405273Y-106935680D01*
X171666426Y-107043853D01*
X171943665Y-107099000D01*
X172226335Y-107099000D01*
X172503574Y-107043853D01*
X172764727Y-106935680D01*
X172999759Y-106778637D01*
X173199637Y-106578759D01*
X173355000Y-106346241D01*
X173510363Y-106578759D01*
X173710241Y-106778637D01*
X173945273Y-106935680D01*
X174206426Y-107043853D01*
X174483665Y-107099000D01*
X174766335Y-107099000D01*
X175043574Y-107043853D01*
X175304727Y-106935680D01*
X175539759Y-106778637D01*
X175739637Y-106578759D01*
X175895000Y-106346241D01*
X176050363Y-106578759D01*
X176250241Y-106778637D01*
X176485273Y-106935680D01*
X176746426Y-107043853D01*
X177023665Y-107099000D01*
X177306335Y-107099000D01*
X177583574Y-107043853D01*
X177844727Y-106935680D01*
X178079759Y-106778637D01*
X178279637Y-106578759D01*
X178435000Y-106346241D01*
X178590363Y-106578759D01*
X178790241Y-106778637D01*
X179025273Y-106935680D01*
X179286426Y-107043853D01*
X179563665Y-107099000D01*
X179846335Y-107099000D01*
X180123574Y-107043853D01*
X180384727Y-106935680D01*
X180619759Y-106778637D01*
X180819637Y-106578759D01*
X180975000Y-106346241D01*
X181130363Y-106578759D01*
X181330241Y-106778637D01*
X181565273Y-106935680D01*
X181826426Y-107043853D01*
X182103665Y-107099000D01*
X182386335Y-107099000D01*
X182663574Y-107043853D01*
X182924727Y-106935680D01*
X183159759Y-106778637D01*
X183359637Y-106578759D01*
X183516680Y-106343727D01*
X183624853Y-106082574D01*
X183680000Y-105805335D01*
X183680000Y-105522665D01*
X183624853Y-105245426D01*
X183516680Y-104984273D01*
X183359637Y-104749241D01*
X183159759Y-104549363D01*
X182924727Y-104392320D01*
X182663574Y-104284147D01*
X182386335Y-104229000D01*
X182103665Y-104229000D01*
X181826426Y-104284147D01*
X181565273Y-104392320D01*
X181330241Y-104549363D01*
X181130363Y-104749241D01*
X180975000Y-104981759D01*
X180819637Y-104749241D01*
X180619759Y-104549363D01*
X180384727Y-104392320D01*
X180123574Y-104284147D01*
X179846335Y-104229000D01*
X179563665Y-104229000D01*
X179286426Y-104284147D01*
X179025273Y-104392320D01*
X178790241Y-104549363D01*
X178590363Y-104749241D01*
X178435000Y-104981759D01*
X178279637Y-104749241D01*
X178079759Y-104549363D01*
X177844727Y-104392320D01*
X177583574Y-104284147D01*
X177306335Y-104229000D01*
X177023665Y-104229000D01*
X176746426Y-104284147D01*
X176485273Y-104392320D01*
X176250241Y-104549363D01*
X176050363Y-104749241D01*
X175895000Y-104981759D01*
X175739637Y-104749241D01*
X175539759Y-104549363D01*
X175304727Y-104392320D01*
X175043574Y-104284147D01*
X174766335Y-104229000D01*
X174483665Y-104229000D01*
X174206426Y-104284147D01*
X173945273Y-104392320D01*
X173710241Y-104549363D01*
X173510363Y-104749241D01*
X173355000Y-104981759D01*
X173199637Y-104749241D01*
X172999759Y-104549363D01*
X172764727Y-104392320D01*
X172503574Y-104284147D01*
X172226335Y-104229000D01*
X171943665Y-104229000D01*
X171666426Y-104284147D01*
X171405273Y-104392320D01*
X171170241Y-104549363D01*
X170970363Y-104749241D01*
X170815000Y-104981759D01*
X170659637Y-104749241D01*
X170459759Y-104549363D01*
X170224727Y-104392320D01*
X169963574Y-104284147D01*
X169686335Y-104229000D01*
X169403665Y-104229000D01*
X169126426Y-104284147D01*
X168865273Y-104392320D01*
X168630241Y-104549363D01*
X168430363Y-104749241D01*
X168275000Y-104981759D01*
X168119637Y-104749241D01*
X167919759Y-104549363D01*
X167684727Y-104392320D01*
X167423574Y-104284147D01*
X167146335Y-104229000D01*
X166863665Y-104229000D01*
X166586426Y-104284147D01*
X166325273Y-104392320D01*
X166090241Y-104549363D01*
X165891643Y-104747961D01*
X165890812Y-104739518D01*
X165854502Y-104619820D01*
X165795537Y-104509506D01*
X165716185Y-104412815D01*
X165619494Y-104333463D01*
X165509180Y-104274498D01*
X165389482Y-104238188D01*
X165265000Y-104225928D01*
X163665000Y-104225928D01*
X163540518Y-104238188D01*
X163420820Y-104274498D01*
X163310506Y-104333463D01*
X163213815Y-104412815D01*
X163134463Y-104509506D01*
X163075498Y-104619820D01*
X163039188Y-104739518D01*
X163026928Y-104864000D01*
X149021000Y-104864000D01*
X149021000Y-103797000D01*
X187664928Y-103797000D01*
X187677188Y-103921482D01*
X187713498Y-104041180D01*
X187772463Y-104151494D01*
X187851815Y-104248185D01*
X187948506Y-104327537D01*
X188058820Y-104386502D01*
X188178518Y-104422812D01*
X188303000Y-104435072D01*
X188817250Y-104432000D01*
X188976000Y-104273250D01*
X188976000Y-103124000D01*
X189230000Y-103124000D01*
X189230000Y-104273250D01*
X189388750Y-104432000D01*
X189903000Y-104435072D01*
X190027482Y-104422812D01*
X190147180Y-104386502D01*
X190257494Y-104327537D01*
X190354185Y-104248185D01*
X190433537Y-104151494D01*
X190492502Y-104041180D01*
X190528812Y-103921482D01*
X190531231Y-103896920D01*
X190679586Y-104060519D01*
X190905580Y-104228037D01*
X191159913Y-104348246D01*
X191293961Y-104388904D01*
X191516000Y-104266915D01*
X191516000Y-103124000D01*
X189230000Y-103124000D01*
X188976000Y-103124000D01*
X187826750Y-103124000D01*
X187668000Y-103282750D01*
X187664928Y-103797000D01*
X149021000Y-103797000D01*
X149021000Y-101077665D01*
X156680000Y-101077665D01*
X156680000Y-101360335D01*
X156735147Y-101637574D01*
X156843320Y-101898727D01*
X157000363Y-102133759D01*
X157200241Y-102333637D01*
X157435273Y-102490680D01*
X157696426Y-102598853D01*
X157973665Y-102654000D01*
X158256335Y-102654000D01*
X158533574Y-102598853D01*
X158794727Y-102490680D01*
X159029759Y-102333637D01*
X159166396Y-102197000D01*
X187664928Y-102197000D01*
X187668000Y-102711250D01*
X187826750Y-102870000D01*
X188976000Y-102870000D01*
X188976000Y-101720750D01*
X189230000Y-101720750D01*
X189230000Y-102870000D01*
X191516000Y-102870000D01*
X191516000Y-101727085D01*
X191770000Y-101727085D01*
X191770000Y-102870000D01*
X191790000Y-102870000D01*
X191790000Y-103124000D01*
X191770000Y-103124000D01*
X191770000Y-104266915D01*
X191992039Y-104388904D01*
X192126087Y-104348246D01*
X192380420Y-104228037D01*
X192606414Y-104060519D01*
X192795385Y-103852131D01*
X192906933Y-103666135D01*
X192911320Y-103676727D01*
X193068363Y-103911759D01*
X193268241Y-104111637D01*
X193503273Y-104268680D01*
X193764426Y-104376853D01*
X194041665Y-104432000D01*
X194324335Y-104432000D01*
X194601574Y-104376853D01*
X194862727Y-104268680D01*
X195097759Y-104111637D01*
X195297637Y-103911759D01*
X195453000Y-103679241D01*
X195608363Y-103911759D01*
X195808241Y-104111637D01*
X196043273Y-104268680D01*
X196304426Y-104376853D01*
X196581665Y-104432000D01*
X196864335Y-104432000D01*
X197141574Y-104376853D01*
X197402727Y-104268680D01*
X197637759Y-104111637D01*
X197837637Y-103911759D01*
X197993000Y-103679241D01*
X198148363Y-103911759D01*
X198348241Y-104111637D01*
X198583273Y-104268680D01*
X198844426Y-104376853D01*
X199121665Y-104432000D01*
X199404335Y-104432000D01*
X199681574Y-104376853D01*
X199942727Y-104268680D01*
X200177759Y-104111637D01*
X200377637Y-103911759D01*
X200533000Y-103679241D01*
X200688363Y-103911759D01*
X200888241Y-104111637D01*
X201123273Y-104268680D01*
X201384426Y-104376853D01*
X201661665Y-104432000D01*
X201944335Y-104432000D01*
X202221574Y-104376853D01*
X202482727Y-104268680D01*
X202717759Y-104111637D01*
X202917637Y-103911759D01*
X203073000Y-103679241D01*
X203228363Y-103911759D01*
X203428241Y-104111637D01*
X203663273Y-104268680D01*
X203924426Y-104376853D01*
X204201665Y-104432000D01*
X204484335Y-104432000D01*
X204761574Y-104376853D01*
X205022727Y-104268680D01*
X205257759Y-104111637D01*
X205457637Y-103911759D01*
X205613000Y-103679241D01*
X205768363Y-103911759D01*
X205968241Y-104111637D01*
X206203273Y-104268680D01*
X206464426Y-104376853D01*
X206741665Y-104432000D01*
X207024335Y-104432000D01*
X207301574Y-104376853D01*
X207562727Y-104268680D01*
X207797759Y-104111637D01*
X207997637Y-103911759D01*
X208153000Y-103679241D01*
X208308363Y-103911759D01*
X208508241Y-104111637D01*
X208743273Y-104268680D01*
X209004426Y-104376853D01*
X209281665Y-104432000D01*
X209564335Y-104432000D01*
X209841574Y-104376853D01*
X210102727Y-104268680D01*
X210337759Y-104111637D01*
X210537637Y-103911759D01*
X210693000Y-103679241D01*
X210848363Y-103911759D01*
X211048241Y-104111637D01*
X211283273Y-104268680D01*
X211544426Y-104376853D01*
X211821665Y-104432000D01*
X212104335Y-104432000D01*
X212381574Y-104376853D01*
X212642727Y-104268680D01*
X212877759Y-104111637D01*
X213077637Y-103911759D01*
X213233000Y-103679241D01*
X213388363Y-103911759D01*
X213588241Y-104111637D01*
X213823273Y-104268680D01*
X214084426Y-104376853D01*
X214361665Y-104432000D01*
X214644335Y-104432000D01*
X214921574Y-104376853D01*
X215182727Y-104268680D01*
X215417759Y-104111637D01*
X215617637Y-103911759D01*
X215773000Y-103679241D01*
X215928363Y-103911759D01*
X216128241Y-104111637D01*
X216363273Y-104268680D01*
X216624426Y-104376853D01*
X216901665Y-104432000D01*
X217184335Y-104432000D01*
X217461574Y-104376853D01*
X217722727Y-104268680D01*
X217957759Y-104111637D01*
X218157637Y-103911759D01*
X218313000Y-103679241D01*
X218468363Y-103911759D01*
X218668241Y-104111637D01*
X218903273Y-104268680D01*
X219164426Y-104376853D01*
X219441665Y-104432000D01*
X219724335Y-104432000D01*
X220001574Y-104376853D01*
X220262727Y-104268680D01*
X220497759Y-104111637D01*
X220697637Y-103911759D01*
X220854680Y-103676727D01*
X220859067Y-103666135D01*
X220970615Y-103852131D01*
X221159586Y-104060519D01*
X221385580Y-104228037D01*
X221639913Y-104348246D01*
X221773961Y-104388904D01*
X221996000Y-104266915D01*
X221996000Y-103124000D01*
X222250000Y-103124000D01*
X222250000Y-104266915D01*
X222472039Y-104388904D01*
X222606087Y-104348246D01*
X222860420Y-104228037D01*
X223086414Y-104060519D01*
X223275385Y-103852131D01*
X223420070Y-103610881D01*
X223514909Y-103346040D01*
X223393624Y-103124000D01*
X222250000Y-103124000D01*
X221996000Y-103124000D01*
X221976000Y-103124000D01*
X221976000Y-102870000D01*
X221996000Y-102870000D01*
X221996000Y-101727085D01*
X222250000Y-101727085D01*
X222250000Y-102870000D01*
X223393624Y-102870000D01*
X223514909Y-102647960D01*
X223420070Y-102383119D01*
X223275385Y-102141869D01*
X223086414Y-101933481D01*
X222860420Y-101765963D01*
X222606087Y-101645754D01*
X222472039Y-101605096D01*
X222250000Y-101727085D01*
X221996000Y-101727085D01*
X221773961Y-101605096D01*
X221639913Y-101645754D01*
X221385580Y-101765963D01*
X221159586Y-101933481D01*
X220970615Y-102141869D01*
X220859067Y-102327865D01*
X220854680Y-102317273D01*
X220697637Y-102082241D01*
X220497759Y-101882363D01*
X220262727Y-101725320D01*
X220001574Y-101617147D01*
X219724335Y-101562000D01*
X219441665Y-101562000D01*
X219164426Y-101617147D01*
X218903273Y-101725320D01*
X218668241Y-101882363D01*
X218468363Y-102082241D01*
X218313000Y-102314759D01*
X218157637Y-102082241D01*
X217957759Y-101882363D01*
X217722727Y-101725320D01*
X217461574Y-101617147D01*
X217184335Y-101562000D01*
X216901665Y-101562000D01*
X216624426Y-101617147D01*
X216363273Y-101725320D01*
X216128241Y-101882363D01*
X215928363Y-102082241D01*
X215773000Y-102314759D01*
X215617637Y-102082241D01*
X215417759Y-101882363D01*
X215182727Y-101725320D01*
X214921574Y-101617147D01*
X214644335Y-101562000D01*
X214361665Y-101562000D01*
X214084426Y-101617147D01*
X213823273Y-101725320D01*
X213588241Y-101882363D01*
X213388363Y-102082241D01*
X213233000Y-102314759D01*
X213077637Y-102082241D01*
X212877759Y-101882363D01*
X212642727Y-101725320D01*
X212381574Y-101617147D01*
X212104335Y-101562000D01*
X211821665Y-101562000D01*
X211544426Y-101617147D01*
X211283273Y-101725320D01*
X211048241Y-101882363D01*
X210848363Y-102082241D01*
X210693000Y-102314759D01*
X210537637Y-102082241D01*
X210337759Y-101882363D01*
X210102727Y-101725320D01*
X209841574Y-101617147D01*
X209564335Y-101562000D01*
X209281665Y-101562000D01*
X209004426Y-101617147D01*
X208743273Y-101725320D01*
X208508241Y-101882363D01*
X208308363Y-102082241D01*
X208153000Y-102314759D01*
X207997637Y-102082241D01*
X207797759Y-101882363D01*
X207562727Y-101725320D01*
X207301574Y-101617147D01*
X207024335Y-101562000D01*
X206741665Y-101562000D01*
X206464426Y-101617147D01*
X206203273Y-101725320D01*
X205968241Y-101882363D01*
X205768363Y-102082241D01*
X205613000Y-102314759D01*
X205457637Y-102082241D01*
X205257759Y-101882363D01*
X205022727Y-101725320D01*
X204761574Y-101617147D01*
X204484335Y-101562000D01*
X204201665Y-101562000D01*
X203924426Y-101617147D01*
X203663273Y-101725320D01*
X203428241Y-101882363D01*
X203228363Y-102082241D01*
X203073000Y-102314759D01*
X202917637Y-102082241D01*
X202717759Y-101882363D01*
X202482727Y-101725320D01*
X202221574Y-101617147D01*
X201944335Y-101562000D01*
X201661665Y-101562000D01*
X201384426Y-101617147D01*
X201123273Y-101725320D01*
X200888241Y-101882363D01*
X200688363Y-102082241D01*
X200533000Y-102314759D01*
X200377637Y-102082241D01*
X200177759Y-101882363D01*
X199942727Y-101725320D01*
X199681574Y-101617147D01*
X199404335Y-101562000D01*
X199121665Y-101562000D01*
X198844426Y-101617147D01*
X198583273Y-101725320D01*
X198348241Y-101882363D01*
X198148363Y-102082241D01*
X197993000Y-102314759D01*
X197837637Y-102082241D01*
X197637759Y-101882363D01*
X197402727Y-101725320D01*
X197141574Y-101617147D01*
X196864335Y-101562000D01*
X196581665Y-101562000D01*
X196304426Y-101617147D01*
X196043273Y-101725320D01*
X195808241Y-101882363D01*
X195608363Y-102082241D01*
X195453000Y-102314759D01*
X195297637Y-102082241D01*
X195097759Y-101882363D01*
X194862727Y-101725320D01*
X194601574Y-101617147D01*
X194324335Y-101562000D01*
X194041665Y-101562000D01*
X193764426Y-101617147D01*
X193503273Y-101725320D01*
X193268241Y-101882363D01*
X193068363Y-102082241D01*
X192911320Y-102317273D01*
X192906933Y-102327865D01*
X192795385Y-102141869D01*
X192606414Y-101933481D01*
X192380420Y-101765963D01*
X192126087Y-101645754D01*
X191992039Y-101605096D01*
X191770000Y-101727085D01*
X191516000Y-101727085D01*
X191293961Y-101605096D01*
X191159913Y-101645754D01*
X190905580Y-101765963D01*
X190679586Y-101933481D01*
X190531231Y-102097080D01*
X190528812Y-102072518D01*
X190492502Y-101952820D01*
X190433537Y-101842506D01*
X190354185Y-101745815D01*
X190257494Y-101666463D01*
X190147180Y-101607498D01*
X190027482Y-101571188D01*
X189903000Y-101558928D01*
X189388750Y-101562000D01*
X189230000Y-101720750D01*
X188976000Y-101720750D01*
X188817250Y-101562000D01*
X188303000Y-101558928D01*
X188178518Y-101571188D01*
X188058820Y-101607498D01*
X187948506Y-101666463D01*
X187851815Y-101745815D01*
X187772463Y-101842506D01*
X187713498Y-101952820D01*
X187677188Y-102072518D01*
X187664928Y-102197000D01*
X159166396Y-102197000D01*
X159229637Y-102133759D01*
X159386680Y-101898727D01*
X159494853Y-101637574D01*
X159550000Y-101360335D01*
X159550000Y-101077665D01*
X159494853Y-100800426D01*
X159386680Y-100539273D01*
X159229637Y-100304241D01*
X159029759Y-100104363D01*
X158794727Y-99947320D01*
X158533574Y-99839147D01*
X158256335Y-99784000D01*
X157973665Y-99784000D01*
X157696426Y-99839147D01*
X157435273Y-99947320D01*
X157200241Y-100104363D01*
X157000363Y-100304241D01*
X156843320Y-100539273D01*
X156735147Y-100800426D01*
X156680000Y-101077665D01*
X149021000Y-101077665D01*
X149021000Y-95997665D01*
X156680000Y-95997665D01*
X156680000Y-96280335D01*
X156735147Y-96557574D01*
X156843320Y-96818727D01*
X157000363Y-97053759D01*
X157200241Y-97253637D01*
X157435273Y-97410680D01*
X157696426Y-97518853D01*
X157973665Y-97574000D01*
X158256335Y-97574000D01*
X158533574Y-97518853D01*
X158794727Y-97410680D01*
X159029759Y-97253637D01*
X159229637Y-97053759D01*
X159386680Y-96818727D01*
X159494853Y-96557574D01*
X159550000Y-96280335D01*
X159550000Y-95997665D01*
X159494853Y-95720426D01*
X159386680Y-95459273D01*
X159229637Y-95224241D01*
X159029759Y-95024363D01*
X158794727Y-94867320D01*
X158533574Y-94759147D01*
X158256335Y-94704000D01*
X157973665Y-94704000D01*
X157696426Y-94759147D01*
X157435273Y-94867320D01*
X157200241Y-95024363D01*
X157000363Y-95224241D01*
X156843320Y-95459273D01*
X156735147Y-95720426D01*
X156680000Y-95997665D01*
X149021000Y-95997665D01*
X149021000Y-93891000D01*
X162899928Y-93891000D01*
X162912188Y-94015482D01*
X162948498Y-94135180D01*
X163007463Y-94245494D01*
X163086815Y-94342185D01*
X163183506Y-94421537D01*
X163293820Y-94480502D01*
X163413518Y-94516812D01*
X163538000Y-94529072D01*
X164052250Y-94526000D01*
X164211000Y-94367250D01*
X164211000Y-93218000D01*
X163061750Y-93218000D01*
X162903000Y-93376750D01*
X162899928Y-93891000D01*
X149021000Y-93891000D01*
X149021000Y-92291000D01*
X162899928Y-92291000D01*
X162903000Y-92805250D01*
X163061750Y-92964000D01*
X164211000Y-92964000D01*
X164211000Y-91814750D01*
X164052250Y-91656000D01*
X163538000Y-91652928D01*
X163413518Y-91665188D01*
X163293820Y-91701498D01*
X163183506Y-91760463D01*
X163086815Y-91839815D01*
X163007463Y-91936506D01*
X162948498Y-92046820D01*
X162912188Y-92166518D01*
X162899928Y-92291000D01*
X149021000Y-92291000D01*
X149021000Y-85837665D01*
X156680000Y-85837665D01*
X156680000Y-86120335D01*
X156735147Y-86397574D01*
X156843320Y-86658727D01*
X157000363Y-86893759D01*
X157200241Y-87093637D01*
X157435273Y-87250680D01*
X157696426Y-87358853D01*
X157973665Y-87414000D01*
X158256335Y-87414000D01*
X158533574Y-87358853D01*
X158794727Y-87250680D01*
X159029759Y-87093637D01*
X159229637Y-86893759D01*
X159386680Y-86658727D01*
X159494853Y-86397574D01*
X159550000Y-86120335D01*
X159550000Y-85837665D01*
X159494853Y-85560426D01*
X159399269Y-85329665D01*
X162903000Y-85329665D01*
X162903000Y-85612335D01*
X162958147Y-85889574D01*
X163066320Y-86150727D01*
X163223363Y-86385759D01*
X163423241Y-86585637D01*
X163658273Y-86742680D01*
X163919426Y-86850853D01*
X164196665Y-86906000D01*
X164479335Y-86906000D01*
X164756574Y-86850853D01*
X165017727Y-86742680D01*
X165252759Y-86585637D01*
X165452637Y-86385759D01*
X165608000Y-86153241D01*
X165763363Y-86385759D01*
X165963241Y-86585637D01*
X166198273Y-86742680D01*
X166459426Y-86850853D01*
X166736665Y-86906000D01*
X167019335Y-86906000D01*
X167296574Y-86850853D01*
X167557727Y-86742680D01*
X167792759Y-86585637D01*
X167992637Y-86385759D01*
X168148000Y-86153241D01*
X168303363Y-86385759D01*
X168503241Y-86585637D01*
X168738273Y-86742680D01*
X168999426Y-86850853D01*
X169276665Y-86906000D01*
X169559335Y-86906000D01*
X169836574Y-86850853D01*
X170097727Y-86742680D01*
X170332759Y-86585637D01*
X170532637Y-86385759D01*
X170688000Y-86153241D01*
X170843363Y-86385759D01*
X171043241Y-86585637D01*
X171278273Y-86742680D01*
X171539426Y-86850853D01*
X171816665Y-86906000D01*
X172099335Y-86906000D01*
X172376574Y-86850853D01*
X172637727Y-86742680D01*
X172872759Y-86585637D01*
X173072637Y-86385759D01*
X173228000Y-86153241D01*
X173383363Y-86385759D01*
X173583241Y-86585637D01*
X173818273Y-86742680D01*
X174079426Y-86850853D01*
X174356665Y-86906000D01*
X174639335Y-86906000D01*
X174916574Y-86850853D01*
X175177727Y-86742680D01*
X175412759Y-86585637D01*
X175612637Y-86385759D01*
X175768000Y-86153241D01*
X175923363Y-86385759D01*
X176123241Y-86585637D01*
X176358273Y-86742680D01*
X176619426Y-86850853D01*
X176896665Y-86906000D01*
X177179335Y-86906000D01*
X177456574Y-86850853D01*
X177717727Y-86742680D01*
X177952759Y-86585637D01*
X178152637Y-86385759D01*
X178308000Y-86153241D01*
X178463363Y-86385759D01*
X178663241Y-86585637D01*
X178898273Y-86742680D01*
X179159426Y-86850853D01*
X179436665Y-86906000D01*
X179719335Y-86906000D01*
X179996574Y-86850853D01*
X180257727Y-86742680D01*
X180492759Y-86585637D01*
X180692637Y-86385759D01*
X180848000Y-86153241D01*
X181003363Y-86385759D01*
X181203241Y-86585637D01*
X181438273Y-86742680D01*
X181699426Y-86850853D01*
X181976665Y-86906000D01*
X182259335Y-86906000D01*
X182536574Y-86850853D01*
X182797727Y-86742680D01*
X182882001Y-86686370D01*
X182882001Y-88712197D01*
X179901887Y-91692312D01*
X179719335Y-91656000D01*
X179436665Y-91656000D01*
X179159426Y-91711147D01*
X178898273Y-91819320D01*
X178663241Y-91976363D01*
X178463363Y-92176241D01*
X178308000Y-92408759D01*
X178152637Y-92176241D01*
X177952759Y-91976363D01*
X177717727Y-91819320D01*
X177456574Y-91711147D01*
X177179335Y-91656000D01*
X176896665Y-91656000D01*
X176619426Y-91711147D01*
X176358273Y-91819320D01*
X176297038Y-91860236D01*
X175884825Y-91448024D01*
X175861023Y-91419021D01*
X175745298Y-91324048D01*
X175613269Y-91253476D01*
X175470008Y-91210019D01*
X175358355Y-91199022D01*
X175358344Y-91199022D01*
X175321022Y-91195346D01*
X175283700Y-91199022D01*
X173127303Y-91199022D01*
X173089978Y-91195346D01*
X173052653Y-91199022D01*
X173052645Y-91199022D01*
X172940992Y-91210019D01*
X172797731Y-91253476D01*
X172665702Y-91324048D01*
X172549977Y-91419021D01*
X172526179Y-91448019D01*
X172281886Y-91692312D01*
X172099335Y-91656000D01*
X171816665Y-91656000D01*
X171539426Y-91711147D01*
X171278273Y-91819320D01*
X171043241Y-91976363D01*
X170843363Y-92176241D01*
X170688000Y-92408759D01*
X170532637Y-92176241D01*
X170332759Y-91976363D01*
X170097727Y-91819320D01*
X169836574Y-91711147D01*
X169559335Y-91656000D01*
X169276665Y-91656000D01*
X168999426Y-91711147D01*
X168738273Y-91819320D01*
X168503241Y-91976363D01*
X168303363Y-92176241D01*
X168148000Y-92408759D01*
X167992637Y-92176241D01*
X167792759Y-91976363D01*
X167557727Y-91819320D01*
X167296574Y-91711147D01*
X167019335Y-91656000D01*
X166736665Y-91656000D01*
X166459426Y-91711147D01*
X166198273Y-91819320D01*
X165963241Y-91976363D01*
X165764643Y-92174961D01*
X165763812Y-92166518D01*
X165727502Y-92046820D01*
X165668537Y-91936506D01*
X165589185Y-91839815D01*
X165492494Y-91760463D01*
X165382180Y-91701498D01*
X165262482Y-91665188D01*
X165138000Y-91652928D01*
X164623750Y-91656000D01*
X164465000Y-91814750D01*
X164465000Y-92964000D01*
X164485000Y-92964000D01*
X164485000Y-93218000D01*
X164465000Y-93218000D01*
X164465000Y-94367250D01*
X164623750Y-94526000D01*
X165138000Y-94529072D01*
X165262482Y-94516812D01*
X165382180Y-94480502D01*
X165492494Y-94421537D01*
X165589185Y-94342185D01*
X165668537Y-94245494D01*
X165727502Y-94135180D01*
X165763812Y-94015482D01*
X165764643Y-94007039D01*
X165963241Y-94205637D01*
X166198273Y-94362680D01*
X166459426Y-94470853D01*
X166736665Y-94526000D01*
X167019335Y-94526000D01*
X167201886Y-94489688D01*
X169334880Y-96622682D01*
X169126426Y-96664147D01*
X168865273Y-96772320D01*
X168630241Y-96929363D01*
X168430363Y-97129241D01*
X168275000Y-97361759D01*
X168119637Y-97129241D01*
X167919759Y-96929363D01*
X167684727Y-96772320D01*
X167423574Y-96664147D01*
X167146335Y-96609000D01*
X166863665Y-96609000D01*
X166586426Y-96664147D01*
X166325273Y-96772320D01*
X166090241Y-96929363D01*
X165890363Y-97129241D01*
X165735000Y-97361759D01*
X165579637Y-97129241D01*
X165379759Y-96929363D01*
X165144727Y-96772320D01*
X164883574Y-96664147D01*
X164606335Y-96609000D01*
X164323665Y-96609000D01*
X164046426Y-96664147D01*
X163785273Y-96772320D01*
X163550241Y-96929363D01*
X163350363Y-97129241D01*
X163193320Y-97364273D01*
X163085147Y-97625426D01*
X163030000Y-97902665D01*
X163030000Y-98185335D01*
X163085147Y-98462574D01*
X163193320Y-98723727D01*
X163350363Y-98958759D01*
X163550241Y-99158637D01*
X163785273Y-99315680D01*
X164046426Y-99423853D01*
X164323665Y-99479000D01*
X164606335Y-99479000D01*
X164883574Y-99423853D01*
X165144727Y-99315680D01*
X165379759Y-99158637D01*
X165579637Y-98958759D01*
X165735000Y-98726241D01*
X165890363Y-98958759D01*
X166090241Y-99158637D01*
X166325273Y-99315680D01*
X166586426Y-99423853D01*
X166863665Y-99479000D01*
X167146335Y-99479000D01*
X167423574Y-99423853D01*
X167684727Y-99315680D01*
X167919759Y-99158637D01*
X168119637Y-98958759D01*
X168275000Y-98726241D01*
X168430363Y-98958759D01*
X168630241Y-99158637D01*
X168865273Y-99315680D01*
X169126426Y-99423853D01*
X169403665Y-99479000D01*
X169686335Y-99479000D01*
X169963574Y-99423853D01*
X170224727Y-99315680D01*
X170459759Y-99158637D01*
X170659637Y-98958759D01*
X170816680Y-98723727D01*
X170821067Y-98713135D01*
X170932615Y-98899131D01*
X171121586Y-99107519D01*
X171347580Y-99275037D01*
X171601913Y-99395246D01*
X171735961Y-99435904D01*
X171958000Y-99313915D01*
X171958000Y-98171000D01*
X171938000Y-98171000D01*
X171938000Y-97917000D01*
X171958000Y-97917000D01*
X171958000Y-97897000D01*
X172212000Y-97897000D01*
X172212000Y-97917000D01*
X172232000Y-97917000D01*
X172232000Y-98171000D01*
X172212000Y-98171000D01*
X172212000Y-99313915D01*
X172434039Y-99435904D01*
X172568087Y-99395246D01*
X172822420Y-99275037D01*
X173048414Y-99107519D01*
X173237385Y-98899131D01*
X173348933Y-98713135D01*
X173353320Y-98723727D01*
X173510363Y-98958759D01*
X173710241Y-99158637D01*
X173945273Y-99315680D01*
X174206426Y-99423853D01*
X174483665Y-99479000D01*
X174766335Y-99479000D01*
X175043574Y-99423853D01*
X175304727Y-99315680D01*
X175539759Y-99158637D01*
X175739637Y-98958759D01*
X175895000Y-98726241D01*
X176050363Y-98958759D01*
X176250241Y-99158637D01*
X176485273Y-99315680D01*
X176746426Y-99423853D01*
X177023665Y-99479000D01*
X177306335Y-99479000D01*
X177583574Y-99423853D01*
X177844727Y-99315680D01*
X178079759Y-99158637D01*
X178279637Y-98958759D01*
X178435000Y-98726241D01*
X178590363Y-98958759D01*
X178790241Y-99158637D01*
X179025273Y-99315680D01*
X179286426Y-99423853D01*
X179563665Y-99479000D01*
X179846335Y-99479000D01*
X180028886Y-99442688D01*
X181046201Y-100460003D01*
X181069999Y-100489001D01*
X181185724Y-100583974D01*
X181317753Y-100654546D01*
X181461014Y-100698003D01*
X181572667Y-100709000D01*
X181572677Y-100709000D01*
X181610000Y-100712676D01*
X181647323Y-100709000D01*
X188430678Y-100709000D01*
X188468000Y-100712676D01*
X188505322Y-100709000D01*
X188505333Y-100709000D01*
X188616986Y-100698003D01*
X188760247Y-100654546D01*
X188892276Y-100583974D01*
X189008001Y-100489001D01*
X189031804Y-100459997D01*
X199196802Y-90295000D01*
X199733678Y-90295000D01*
X199771000Y-90298676D01*
X199808322Y-90295000D01*
X199808333Y-90295000D01*
X199919986Y-90284003D01*
X200063247Y-90240546D01*
X200195276Y-90169974D01*
X200311001Y-90075001D01*
X200334803Y-90045998D01*
X200917004Y-89463798D01*
X200946001Y-89440001D01*
X201040974Y-89324276D01*
X201111546Y-89192247D01*
X201155003Y-89048986D01*
X201156761Y-89031133D01*
X201319913Y-89108246D01*
X201453961Y-89148904D01*
X201676000Y-89026915D01*
X201676000Y-87884000D01*
X201930000Y-87884000D01*
X201930000Y-89026915D01*
X202152039Y-89148904D01*
X202286087Y-89108246D01*
X202540420Y-88988037D01*
X202766414Y-88820519D01*
X202955385Y-88612131D01*
X203073000Y-88416018D01*
X203190615Y-88612131D01*
X203379586Y-88820519D01*
X203605580Y-88988037D01*
X203859913Y-89108246D01*
X203993961Y-89148904D01*
X204216000Y-89026915D01*
X204216000Y-87884000D01*
X201930000Y-87884000D01*
X201676000Y-87884000D01*
X201656000Y-87884000D01*
X201656000Y-87630000D01*
X201676000Y-87630000D01*
X201676000Y-86487085D01*
X201930000Y-86487085D01*
X201930000Y-87630000D01*
X204216000Y-87630000D01*
X204216000Y-86487085D01*
X204470000Y-86487085D01*
X204470000Y-87630000D01*
X204490000Y-87630000D01*
X204490000Y-87884000D01*
X204470000Y-87884000D01*
X204470000Y-89026915D01*
X204692039Y-89148904D01*
X204826087Y-89108246D01*
X205080420Y-88988037D01*
X205306414Y-88820519D01*
X205495385Y-88612131D01*
X205606933Y-88426135D01*
X205611320Y-88436727D01*
X205768363Y-88671759D01*
X205968241Y-88871637D01*
X206203273Y-89028680D01*
X206464426Y-89136853D01*
X206741665Y-89192000D01*
X207024335Y-89192000D01*
X207301574Y-89136853D01*
X207562727Y-89028680D01*
X207797759Y-88871637D01*
X207997637Y-88671759D01*
X208154680Y-88436727D01*
X208159067Y-88426135D01*
X208270615Y-88612131D01*
X208459586Y-88820519D01*
X208685580Y-88988037D01*
X208939913Y-89108246D01*
X209073961Y-89148904D01*
X209296000Y-89026915D01*
X209296000Y-87884000D01*
X209276000Y-87884000D01*
X209276000Y-87630000D01*
X209296000Y-87630000D01*
X209296000Y-86487085D01*
X209550000Y-86487085D01*
X209550000Y-87630000D01*
X209570000Y-87630000D01*
X209570000Y-87884000D01*
X209550000Y-87884000D01*
X209550000Y-89026915D01*
X209772039Y-89148904D01*
X209906087Y-89108246D01*
X210160420Y-88988037D01*
X210386414Y-88820519D01*
X210575385Y-88612131D01*
X210686933Y-88426135D01*
X210691320Y-88436727D01*
X210848363Y-88671759D01*
X211048241Y-88871637D01*
X211283273Y-89028680D01*
X211544426Y-89136853D01*
X211821665Y-89192000D01*
X212104335Y-89192000D01*
X212381574Y-89136853D01*
X212642727Y-89028680D01*
X212877759Y-88871637D01*
X213077637Y-88671759D01*
X213233000Y-88439241D01*
X213388363Y-88671759D01*
X213588241Y-88871637D01*
X213823273Y-89028680D01*
X214084426Y-89136853D01*
X214361665Y-89192000D01*
X214644335Y-89192000D01*
X214921574Y-89136853D01*
X215182727Y-89028680D01*
X215417759Y-88871637D01*
X215617637Y-88671759D01*
X215773000Y-88439241D01*
X215928363Y-88671759D01*
X216128241Y-88871637D01*
X216363273Y-89028680D01*
X216624426Y-89136853D01*
X216901665Y-89192000D01*
X217184335Y-89192000D01*
X217461574Y-89136853D01*
X217722727Y-89028680D01*
X217957759Y-88871637D01*
X218157637Y-88671759D01*
X218313000Y-88439241D01*
X218468363Y-88671759D01*
X218668241Y-88871637D01*
X218903273Y-89028680D01*
X219164426Y-89136853D01*
X219441665Y-89192000D01*
X219724335Y-89192000D01*
X220001574Y-89136853D01*
X220262727Y-89028680D01*
X220497759Y-88871637D01*
X220697637Y-88671759D01*
X220853000Y-88439241D01*
X221008363Y-88671759D01*
X221208241Y-88871637D01*
X221443273Y-89028680D01*
X221704426Y-89136853D01*
X221981665Y-89192000D01*
X222264335Y-89192000D01*
X222541574Y-89136853D01*
X222802727Y-89028680D01*
X223037759Y-88871637D01*
X223237637Y-88671759D01*
X223394680Y-88436727D01*
X223502853Y-88175574D01*
X223558000Y-87898335D01*
X223558000Y-87615665D01*
X223502853Y-87338426D01*
X223394680Y-87077273D01*
X223237637Y-86842241D01*
X223037759Y-86642363D01*
X222802727Y-86485320D01*
X222541574Y-86377147D01*
X222264335Y-86322000D01*
X221981665Y-86322000D01*
X221704426Y-86377147D01*
X221443273Y-86485320D01*
X221208241Y-86642363D01*
X221008363Y-86842241D01*
X220853000Y-87074759D01*
X220697637Y-86842241D01*
X220497759Y-86642363D01*
X220262727Y-86485320D01*
X220001574Y-86377147D01*
X219724335Y-86322000D01*
X219441665Y-86322000D01*
X219164426Y-86377147D01*
X218903273Y-86485320D01*
X218668241Y-86642363D01*
X218468363Y-86842241D01*
X218313000Y-87074759D01*
X218157637Y-86842241D01*
X217957759Y-86642363D01*
X217722727Y-86485320D01*
X217461574Y-86377147D01*
X217184335Y-86322000D01*
X216901665Y-86322000D01*
X216624426Y-86377147D01*
X216363273Y-86485320D01*
X216128241Y-86642363D01*
X215928363Y-86842241D01*
X215773000Y-87074759D01*
X215617637Y-86842241D01*
X215417759Y-86642363D01*
X215182727Y-86485320D01*
X214921574Y-86377147D01*
X214644335Y-86322000D01*
X214361665Y-86322000D01*
X214084426Y-86377147D01*
X213823273Y-86485320D01*
X213588241Y-86642363D01*
X213388363Y-86842241D01*
X213233000Y-87074759D01*
X213077637Y-86842241D01*
X212877759Y-86642363D01*
X212642727Y-86485320D01*
X212381574Y-86377147D01*
X212104335Y-86322000D01*
X211821665Y-86322000D01*
X211544426Y-86377147D01*
X211283273Y-86485320D01*
X211048241Y-86642363D01*
X210848363Y-86842241D01*
X210691320Y-87077273D01*
X210686933Y-87087865D01*
X210575385Y-86901869D01*
X210386414Y-86693481D01*
X210160420Y-86525963D01*
X209906087Y-86405754D01*
X209772039Y-86365096D01*
X209550000Y-86487085D01*
X209296000Y-86487085D01*
X209073961Y-86365096D01*
X208939913Y-86405754D01*
X208685580Y-86525963D01*
X208459586Y-86693481D01*
X208270615Y-86901869D01*
X208159067Y-87087865D01*
X208154680Y-87077273D01*
X207997637Y-86842241D01*
X207797759Y-86642363D01*
X207562727Y-86485320D01*
X207301574Y-86377147D01*
X207024335Y-86322000D01*
X206741665Y-86322000D01*
X206464426Y-86377147D01*
X206203273Y-86485320D01*
X205968241Y-86642363D01*
X205768363Y-86842241D01*
X205611320Y-87077273D01*
X205606933Y-87087865D01*
X205495385Y-86901869D01*
X205306414Y-86693481D01*
X205080420Y-86525963D01*
X204826087Y-86405754D01*
X204692039Y-86365096D01*
X204470000Y-86487085D01*
X204216000Y-86487085D01*
X203993961Y-86365096D01*
X203859913Y-86405754D01*
X203605580Y-86525963D01*
X203379586Y-86693481D01*
X203190615Y-86901869D01*
X203073000Y-87097982D01*
X202955385Y-86901869D01*
X202766414Y-86693481D01*
X202540420Y-86525963D01*
X202286087Y-86405754D01*
X202152039Y-86365096D01*
X201930000Y-86487085D01*
X201676000Y-86487085D01*
X201453961Y-86365096D01*
X201319913Y-86405754D01*
X201065580Y-86525963D01*
X201027441Y-86554233D01*
X200969799Y-86483997D01*
X200946001Y-86454999D01*
X200917003Y-86431201D01*
X200774791Y-86288989D01*
X207237691Y-86288989D01*
X207275013Y-86292665D01*
X207312335Y-86288989D01*
X207312346Y-86288989D01*
X207423999Y-86277992D01*
X207567260Y-86234535D01*
X207699289Y-86163963D01*
X207815014Y-86068990D01*
X207838817Y-86039986D01*
X213307004Y-80571800D01*
X213336002Y-80548002D01*
X213362333Y-80515918D01*
X213430975Y-80432278D01*
X213501547Y-80300248D01*
X213508133Y-80278537D01*
X213535409Y-80188618D01*
X213711806Y-80282904D01*
X213975141Y-80362786D01*
X214249000Y-80389759D01*
X214522860Y-80362786D01*
X214786195Y-80282904D01*
X215028887Y-80153183D01*
X215241608Y-79978608D01*
X215416183Y-79765887D01*
X215519000Y-79573529D01*
X215621817Y-79765887D01*
X215796393Y-79978608D01*
X216009114Y-80153183D01*
X216251806Y-80282904D01*
X216515141Y-80362786D01*
X216789000Y-80389759D01*
X217062860Y-80362786D01*
X217326195Y-80282904D01*
X217568887Y-80153183D01*
X217781608Y-79978608D01*
X217956183Y-79765887D01*
X218059000Y-79573529D01*
X218161817Y-79765887D01*
X218336393Y-79978608D01*
X218549114Y-80153183D01*
X218791806Y-80282904D01*
X219055141Y-80362786D01*
X219329000Y-80389759D01*
X219602860Y-80362786D01*
X219866195Y-80282904D01*
X220108887Y-80153183D01*
X220321608Y-79978608D01*
X220496183Y-79765887D01*
X220599000Y-79573529D01*
X220701817Y-79765887D01*
X220876393Y-79978608D01*
X221089114Y-80153183D01*
X221331806Y-80282904D01*
X221595141Y-80362786D01*
X221869000Y-80389759D01*
X222142860Y-80362786D01*
X222406195Y-80282904D01*
X222648887Y-80153183D01*
X222861608Y-79978608D01*
X223036183Y-79765887D01*
X223165904Y-79523195D01*
X223245786Y-79259860D01*
X223266000Y-79054625D01*
X223266000Y-77917375D01*
X223245786Y-77712140D01*
X223165904Y-77448805D01*
X223036183Y-77206113D01*
X222861607Y-76993392D01*
X222648886Y-76818817D01*
X222406194Y-76689096D01*
X222142859Y-76609214D01*
X221869000Y-76582241D01*
X221595140Y-76609214D01*
X221331805Y-76689096D01*
X221089113Y-76818817D01*
X220876392Y-76993393D01*
X220701817Y-77206114D01*
X220599000Y-77398471D01*
X220496183Y-77206113D01*
X220321607Y-76993392D01*
X220108886Y-76818817D01*
X219866194Y-76689096D01*
X219602859Y-76609214D01*
X219329000Y-76582241D01*
X219055140Y-76609214D01*
X218791805Y-76689096D01*
X218549113Y-76818817D01*
X218336392Y-76993393D01*
X218161817Y-77206114D01*
X218059000Y-77398471D01*
X217956183Y-77206113D01*
X217781607Y-76993392D01*
X217568886Y-76818817D01*
X217326194Y-76689096D01*
X217062859Y-76609214D01*
X216789000Y-76582241D01*
X216515140Y-76609214D01*
X216251805Y-76689096D01*
X216009113Y-76818817D01*
X215796392Y-76993393D01*
X215621817Y-77206114D01*
X215519000Y-77398471D01*
X215416183Y-77206113D01*
X215241607Y-76993392D01*
X215028886Y-76818817D01*
X214786194Y-76689096D01*
X214522859Y-76609214D01*
X214252241Y-76582560D01*
X223467013Y-67367789D01*
X223496011Y-67343991D01*
X223590984Y-67228266D01*
X223661556Y-67096237D01*
X223705013Y-66952976D01*
X223716010Y-66841323D01*
X223719687Y-66803990D01*
X223716010Y-66766657D01*
X223716010Y-62333069D01*
X223719686Y-62295746D01*
X223716010Y-62258423D01*
X223716010Y-62258413D01*
X223705013Y-62146760D01*
X223661556Y-62003499D01*
X223641573Y-61966114D01*
X223590984Y-61871469D01*
X223519809Y-61784743D01*
X223496011Y-61755745D01*
X223467014Y-61731948D01*
X222883057Y-61147992D01*
X222859255Y-61118989D01*
X222743530Y-61024016D01*
X222611501Y-60953444D01*
X222468240Y-60909987D01*
X222356587Y-60898990D01*
X222356576Y-60898990D01*
X222319254Y-60895314D01*
X222281932Y-60898990D01*
X221456069Y-60898990D01*
X221418746Y-60895314D01*
X221381423Y-60898990D01*
X221381413Y-60898990D01*
X221269760Y-60909987D01*
X221126499Y-60953444D01*
X220994469Y-61024016D01*
X220956717Y-61054999D01*
X220878745Y-61118989D01*
X220854946Y-61147988D01*
X220282026Y-61720909D01*
X220108886Y-61578817D01*
X220089000Y-61568188D01*
X220089000Y-61378325D01*
X220092676Y-61341000D01*
X220089000Y-61303675D01*
X220089000Y-61303667D01*
X220078003Y-61192014D01*
X220034546Y-61048753D01*
X219963974Y-60916724D01*
X219869001Y-60800999D01*
X219840004Y-60777202D01*
X219130803Y-60068002D01*
X219107001Y-60038999D01*
X218991276Y-59944026D01*
X218859247Y-59873454D01*
X218715986Y-59829997D01*
X218604333Y-59819000D01*
X218604322Y-59819000D01*
X218567000Y-59815324D01*
X218529678Y-59819000D01*
X208592572Y-59819000D01*
X208592572Y-56249000D01*
X204665429Y-56249000D01*
X204665429Y-59822063D01*
X204634333Y-59819000D01*
X204634322Y-59819000D01*
X204597000Y-59815324D01*
X204559678Y-59819000D01*
X193458322Y-59819000D01*
X193420999Y-59815324D01*
X193383676Y-59819000D01*
X193383667Y-59819000D01*
X193272014Y-59829997D01*
X193128753Y-59873454D01*
X192996724Y-59944026D01*
X192996722Y-59944027D01*
X192996723Y-59944027D01*
X192909996Y-60015201D01*
X192909992Y-60015205D01*
X192880999Y-60038999D01*
X192857205Y-60067992D01*
X192151000Y-60774198D01*
X191444804Y-60068002D01*
X191421001Y-60038999D01*
X191305276Y-59944026D01*
X191173247Y-59873454D01*
X191029986Y-59829997D01*
X190918333Y-59819000D01*
X190918322Y-59819000D01*
X190881000Y-59815324D01*
X190843678Y-59819000D01*
X179996333Y-59819000D01*
X179959000Y-59815323D01*
X179921667Y-59819000D01*
X179810014Y-59829997D01*
X179666753Y-59873454D01*
X179534724Y-59944026D01*
X179418999Y-60038999D01*
X179395201Y-60067997D01*
X178100523Y-61362676D01*
X178034140Y-61369214D01*
X177770805Y-61449096D01*
X177528113Y-61578817D01*
X177315392Y-61753393D01*
X177140817Y-61966114D01*
X177038000Y-62158471D01*
X176935183Y-61966113D01*
X176760607Y-61753392D01*
X176547886Y-61578817D01*
X176305194Y-61449096D01*
X176041859Y-61369214D01*
X175768000Y-61342241D01*
X175494140Y-61369214D01*
X175230805Y-61449096D01*
X174988113Y-61578817D01*
X174775392Y-61753393D01*
X174600817Y-61966114D01*
X174498000Y-62158471D01*
X174395183Y-61966113D01*
X174220607Y-61753392D01*
X174007886Y-61578817D01*
X173765194Y-61449096D01*
X173501859Y-61369214D01*
X173228000Y-61342241D01*
X172954140Y-61369214D01*
X172690805Y-61449096D01*
X172448113Y-61578817D01*
X172235392Y-61753393D01*
X172060817Y-61966114D01*
X171958000Y-62158471D01*
X171855183Y-61966113D01*
X171680607Y-61753392D01*
X171467886Y-61578817D01*
X171225194Y-61449096D01*
X170961859Y-61369214D01*
X170688000Y-61342241D01*
X170414140Y-61369214D01*
X170150805Y-61449096D01*
X169908113Y-61578817D01*
X169695392Y-61753393D01*
X169520817Y-61966114D01*
X169391096Y-62208806D01*
X169311214Y-62472141D01*
X169291000Y-62677376D01*
X169291000Y-63814625D01*
X169311214Y-64019860D01*
X169391096Y-64283195D01*
X169520817Y-64525887D01*
X169695393Y-64738608D01*
X169908114Y-64913183D01*
X170150806Y-65042904D01*
X170414141Y-65122786D01*
X170688000Y-65149759D01*
X170961860Y-65122786D01*
X171225195Y-65042904D01*
X171467887Y-64913183D01*
X171680608Y-64738608D01*
X171855183Y-64525887D01*
X171958000Y-64333529D01*
X172060817Y-64525887D01*
X172235393Y-64738608D01*
X172448114Y-64913183D01*
X172690806Y-65042904D01*
X172954141Y-65122786D01*
X173228000Y-65149759D01*
X173501860Y-65122786D01*
X173765195Y-65042904D01*
X174007887Y-64913183D01*
X174220608Y-64738608D01*
X174395183Y-64525887D01*
X174498000Y-64333529D01*
X174600817Y-64525887D01*
X174775393Y-64738608D01*
X174988114Y-64913183D01*
X175230806Y-65042904D01*
X175494141Y-65122786D01*
X175768000Y-65149759D01*
X176041860Y-65122786D01*
X176305195Y-65042904D01*
X176547887Y-64913183D01*
X176760608Y-64738608D01*
X176935183Y-64525887D01*
X177038000Y-64333529D01*
X177140817Y-64525887D01*
X177315393Y-64738608D01*
X177528114Y-64913183D01*
X177770806Y-65042904D01*
X178034141Y-65122786D01*
X178308000Y-65149759D01*
X178581860Y-65122786D01*
X178845195Y-65042904D01*
X179087887Y-64913183D01*
X179300608Y-64738608D01*
X179475183Y-64525887D01*
X179578000Y-64333529D01*
X179680817Y-64525887D01*
X179855393Y-64738608D01*
X180068114Y-64913183D01*
X180088000Y-64923812D01*
X180088001Y-68011197D01*
X171507598Y-76591601D01*
X171450000Y-76585928D01*
X169926000Y-76585928D01*
X169801518Y-76598188D01*
X169681820Y-76634498D01*
X169571506Y-76693463D01*
X169474815Y-76772815D01*
X169395463Y-76869506D01*
X169336498Y-76979820D01*
X169300188Y-77099518D01*
X169287928Y-77224000D01*
X169287928Y-79748000D01*
X169300188Y-79872482D01*
X169336498Y-79992180D01*
X169395463Y-80102494D01*
X169474815Y-80199185D01*
X169571506Y-80278537D01*
X169681820Y-80337502D01*
X169801518Y-80373812D01*
X169926000Y-80386072D01*
X171450000Y-80386072D01*
X171507598Y-80380399D01*
X174823200Y-83696002D01*
X174846999Y-83725001D01*
X174875997Y-83748799D01*
X174962724Y-83819974D01*
X175094753Y-83890546D01*
X175238014Y-83934003D01*
X175387000Y-83948677D01*
X175424333Y-83945000D01*
X182184199Y-83945000D01*
X182279138Y-84039939D01*
X182259335Y-84036000D01*
X181976665Y-84036000D01*
X181699426Y-84091147D01*
X181438273Y-84199320D01*
X181203241Y-84356363D01*
X181003363Y-84556241D01*
X180848000Y-84788759D01*
X180692637Y-84556241D01*
X180492759Y-84356363D01*
X180257727Y-84199320D01*
X179996574Y-84091147D01*
X179719335Y-84036000D01*
X179436665Y-84036000D01*
X179159426Y-84091147D01*
X178898273Y-84199320D01*
X178663241Y-84356363D01*
X178463363Y-84556241D01*
X178308000Y-84788759D01*
X178152637Y-84556241D01*
X177952759Y-84356363D01*
X177717727Y-84199320D01*
X177456574Y-84091147D01*
X177179335Y-84036000D01*
X176896665Y-84036000D01*
X176619426Y-84091147D01*
X176358273Y-84199320D01*
X176123241Y-84356363D01*
X175923363Y-84556241D01*
X175768000Y-84788759D01*
X175612637Y-84556241D01*
X175412759Y-84356363D01*
X175177727Y-84199320D01*
X174916574Y-84091147D01*
X174639335Y-84036000D01*
X174356665Y-84036000D01*
X174079426Y-84091147D01*
X173818273Y-84199320D01*
X173583241Y-84356363D01*
X173383363Y-84556241D01*
X173228000Y-84788759D01*
X173072637Y-84556241D01*
X172872759Y-84356363D01*
X172637727Y-84199320D01*
X172376574Y-84091147D01*
X172099335Y-84036000D01*
X171816665Y-84036000D01*
X171539426Y-84091147D01*
X171278273Y-84199320D01*
X171043241Y-84356363D01*
X170843363Y-84556241D01*
X170688000Y-84788759D01*
X170532637Y-84556241D01*
X170332759Y-84356363D01*
X170097727Y-84199320D01*
X169836574Y-84091147D01*
X169559335Y-84036000D01*
X169276665Y-84036000D01*
X168999426Y-84091147D01*
X168738273Y-84199320D01*
X168503241Y-84356363D01*
X168303363Y-84556241D01*
X168148000Y-84788759D01*
X167992637Y-84556241D01*
X167792759Y-84356363D01*
X167557727Y-84199320D01*
X167296574Y-84091147D01*
X167019335Y-84036000D01*
X166736665Y-84036000D01*
X166459426Y-84091147D01*
X166198273Y-84199320D01*
X165963241Y-84356363D01*
X165763363Y-84556241D01*
X165608000Y-84788759D01*
X165452637Y-84556241D01*
X165252759Y-84356363D01*
X165017727Y-84199320D01*
X164756574Y-84091147D01*
X164479335Y-84036000D01*
X164196665Y-84036000D01*
X163919426Y-84091147D01*
X163658273Y-84199320D01*
X163423241Y-84356363D01*
X163223363Y-84556241D01*
X163066320Y-84791273D01*
X162958147Y-85052426D01*
X162903000Y-85329665D01*
X159399269Y-85329665D01*
X159386680Y-85299273D01*
X159229637Y-85064241D01*
X159029759Y-84864363D01*
X158794727Y-84707320D01*
X158533574Y-84599147D01*
X158256335Y-84544000D01*
X157973665Y-84544000D01*
X157696426Y-84599147D01*
X157435273Y-84707320D01*
X157200241Y-84864363D01*
X157000363Y-85064241D01*
X156843320Y-85299273D01*
X156735147Y-85560426D01*
X156680000Y-85837665D01*
X149021000Y-85837665D01*
X149021000Y-82272702D01*
X158397903Y-82272702D01*
X158469486Y-82516671D01*
X158724996Y-82637571D01*
X158999184Y-82706300D01*
X159281512Y-82720217D01*
X159561130Y-82678787D01*
X159827292Y-82583603D01*
X159952514Y-82516671D01*
X160024097Y-82272702D01*
X159211000Y-81459605D01*
X158397903Y-82272702D01*
X149021000Y-82272702D01*
X149021000Y-81350512D01*
X157770783Y-81350512D01*
X157812213Y-81630130D01*
X157907397Y-81896292D01*
X157974329Y-82021514D01*
X158218298Y-82093097D01*
X159031395Y-81280000D01*
X159390605Y-81280000D01*
X160203702Y-82093097D01*
X160447671Y-82021514D01*
X160568571Y-81766004D01*
X160637300Y-81491816D01*
X160651217Y-81209488D01*
X160640724Y-81138665D01*
X162776000Y-81138665D01*
X162776000Y-81421335D01*
X162831147Y-81698574D01*
X162939320Y-81959727D01*
X163096363Y-82194759D01*
X163296241Y-82394637D01*
X163531273Y-82551680D01*
X163792426Y-82659853D01*
X164069665Y-82715000D01*
X164352335Y-82715000D01*
X164629574Y-82659853D01*
X164890727Y-82551680D01*
X165125759Y-82394637D01*
X165325637Y-82194759D01*
X165482680Y-81959727D01*
X165590853Y-81698574D01*
X165646000Y-81421335D01*
X165646000Y-81138665D01*
X165590853Y-80861426D01*
X165482680Y-80600273D01*
X165325637Y-80365241D01*
X165125759Y-80165363D01*
X164890727Y-80008320D01*
X164629574Y-79900147D01*
X164352335Y-79845000D01*
X164069665Y-79845000D01*
X163792426Y-79900147D01*
X163531273Y-80008320D01*
X163296241Y-80165363D01*
X163096363Y-80365241D01*
X162939320Y-80600273D01*
X162831147Y-80861426D01*
X162776000Y-81138665D01*
X160640724Y-81138665D01*
X160609787Y-80929870D01*
X160514603Y-80663708D01*
X160447671Y-80538486D01*
X160203702Y-80466903D01*
X159390605Y-81280000D01*
X159031395Y-81280000D01*
X158218298Y-80466903D01*
X157974329Y-80538486D01*
X157853429Y-80793996D01*
X157784700Y-81068184D01*
X157770783Y-81350512D01*
X149021000Y-81350512D01*
X149021000Y-80287298D01*
X158397903Y-80287298D01*
X159211000Y-81100395D01*
X160024097Y-80287298D01*
X159952514Y-80043329D01*
X159697004Y-79922429D01*
X159422816Y-79853700D01*
X159140488Y-79839783D01*
X158860870Y-79881213D01*
X158594708Y-79976397D01*
X158469486Y-80043329D01*
X158397903Y-80287298D01*
X149021000Y-80287298D01*
X149021000Y-68872000D01*
X156295928Y-68872000D01*
X156308188Y-68996482D01*
X156344498Y-69116180D01*
X156403463Y-69226494D01*
X156482815Y-69323185D01*
X156579506Y-69402537D01*
X156689820Y-69461502D01*
X156809518Y-69497812D01*
X156817961Y-69498643D01*
X156619363Y-69697241D01*
X156462320Y-69932273D01*
X156354147Y-70193426D01*
X156299000Y-70470665D01*
X156299000Y-70753335D01*
X156354147Y-71030574D01*
X156462320Y-71291727D01*
X156619363Y-71526759D01*
X156819241Y-71726637D01*
X157051759Y-71882000D01*
X156819241Y-72037363D01*
X156619363Y-72237241D01*
X156462320Y-72472273D01*
X156354147Y-72733426D01*
X156299000Y-73010665D01*
X156299000Y-73293335D01*
X156354147Y-73570574D01*
X156462320Y-73831727D01*
X156619363Y-74066759D01*
X156819241Y-74266637D01*
X157051759Y-74422000D01*
X156819241Y-74577363D01*
X156619363Y-74777241D01*
X156462320Y-75012273D01*
X156354147Y-75273426D01*
X156299000Y-75550665D01*
X156299000Y-75833335D01*
X156354147Y-76110574D01*
X156462320Y-76371727D01*
X156619363Y-76606759D01*
X156819241Y-76806637D01*
X157054273Y-76963680D01*
X157315426Y-77071853D01*
X157592665Y-77127000D01*
X157875335Y-77127000D01*
X158152574Y-77071853D01*
X158413727Y-76963680D01*
X158648759Y-76806637D01*
X158848637Y-76606759D01*
X159005680Y-76371727D01*
X159113853Y-76110574D01*
X159169000Y-75833335D01*
X159169000Y-75550665D01*
X159113853Y-75273426D01*
X159005680Y-75012273D01*
X158848637Y-74777241D01*
X158648759Y-74577363D01*
X158416241Y-74422000D01*
X158648759Y-74266637D01*
X158848637Y-74066759D01*
X159005680Y-73831727D01*
X159113853Y-73570574D01*
X159169000Y-73293335D01*
X159169000Y-73010665D01*
X159113853Y-72733426D01*
X159005680Y-72472273D01*
X158848637Y-72237241D01*
X158648759Y-72037363D01*
X158416241Y-71882000D01*
X158648759Y-71726637D01*
X158848637Y-71526759D01*
X159005680Y-71291727D01*
X159113853Y-71030574D01*
X159169000Y-70753335D01*
X159169000Y-70470665D01*
X159113853Y-70193426D01*
X159005680Y-69932273D01*
X158848637Y-69697241D01*
X158650039Y-69498643D01*
X158658482Y-69497812D01*
X158778180Y-69461502D01*
X158888494Y-69402537D01*
X158985185Y-69323185D01*
X159064537Y-69226494D01*
X159123502Y-69116180D01*
X159159812Y-68996482D01*
X159172072Y-68872000D01*
X159169000Y-68357750D01*
X159010250Y-68199000D01*
X157861000Y-68199000D01*
X157861000Y-68219000D01*
X157607000Y-68219000D01*
X157607000Y-68199000D01*
X156457750Y-68199000D01*
X156299000Y-68357750D01*
X156295928Y-68872000D01*
X149021000Y-68872000D01*
X149021000Y-67272000D01*
X156295928Y-67272000D01*
X156299000Y-67786250D01*
X156457750Y-67945000D01*
X157607000Y-67945000D01*
X157607000Y-66795750D01*
X157861000Y-66795750D01*
X157861000Y-67945000D01*
X159010250Y-67945000D01*
X159024585Y-67930665D01*
X163919000Y-67930665D01*
X163919000Y-68213335D01*
X163974147Y-68490574D01*
X164082320Y-68751727D01*
X164239363Y-68986759D01*
X164439241Y-69186637D01*
X164671759Y-69342000D01*
X164439241Y-69497363D01*
X164239363Y-69697241D01*
X164082320Y-69932273D01*
X163974147Y-70193426D01*
X163919000Y-70470665D01*
X163919000Y-70753335D01*
X163974147Y-71030574D01*
X164082320Y-71291727D01*
X164239363Y-71526759D01*
X164439241Y-71726637D01*
X164671759Y-71882000D01*
X164439241Y-72037363D01*
X164239363Y-72237241D01*
X164082320Y-72472273D01*
X163974147Y-72733426D01*
X163919000Y-73010665D01*
X163919000Y-73293335D01*
X163974147Y-73570574D01*
X164082320Y-73831727D01*
X164239363Y-74066759D01*
X164439241Y-74266637D01*
X164671759Y-74422000D01*
X164439241Y-74577363D01*
X164239363Y-74777241D01*
X164082320Y-75012273D01*
X163974147Y-75273426D01*
X163919000Y-75550665D01*
X163919000Y-75833335D01*
X163974147Y-76110574D01*
X164082320Y-76371727D01*
X164239363Y-76606759D01*
X164439241Y-76806637D01*
X164674273Y-76963680D01*
X164935426Y-77071853D01*
X165212665Y-77127000D01*
X165495335Y-77127000D01*
X165772574Y-77071853D01*
X166033727Y-76963680D01*
X166268759Y-76806637D01*
X166468637Y-76606759D01*
X166625680Y-76371727D01*
X166733853Y-76110574D01*
X166789000Y-75833335D01*
X166789000Y-75550665D01*
X166733853Y-75273426D01*
X166625680Y-75012273D01*
X166468637Y-74777241D01*
X166268759Y-74577363D01*
X166036241Y-74422000D01*
X166268759Y-74266637D01*
X166468637Y-74066759D01*
X166625680Y-73831727D01*
X166733853Y-73570574D01*
X166789000Y-73293335D01*
X166789000Y-73010665D01*
X166733853Y-72733426D01*
X166625680Y-72472273D01*
X166468637Y-72237241D01*
X166268759Y-72037363D01*
X166036241Y-71882000D01*
X166268759Y-71726637D01*
X166468637Y-71526759D01*
X166625680Y-71291727D01*
X166733853Y-71030574D01*
X166789000Y-70753335D01*
X166789000Y-70470665D01*
X166733853Y-70193426D01*
X166625680Y-69932273D01*
X166468637Y-69697241D01*
X166268759Y-69497363D01*
X166036241Y-69342000D01*
X166268759Y-69186637D01*
X166468637Y-68986759D01*
X166625680Y-68751727D01*
X166733853Y-68490574D01*
X166789000Y-68213335D01*
X166789000Y-67930665D01*
X166733853Y-67653426D01*
X166625680Y-67392273D01*
X166468637Y-67157241D01*
X166268759Y-66957363D01*
X166033727Y-66800320D01*
X165772574Y-66692147D01*
X165495335Y-66637000D01*
X165212665Y-66637000D01*
X164935426Y-66692147D01*
X164674273Y-66800320D01*
X164439241Y-66957363D01*
X164239363Y-67157241D01*
X164082320Y-67392273D01*
X163974147Y-67653426D01*
X163919000Y-67930665D01*
X159024585Y-67930665D01*
X159169000Y-67786250D01*
X159172072Y-67272000D01*
X159159812Y-67147518D01*
X159123502Y-67027820D01*
X159064537Y-66917506D01*
X158985185Y-66820815D01*
X158888494Y-66741463D01*
X158778180Y-66682498D01*
X158658482Y-66646188D01*
X158534000Y-66633928D01*
X158019750Y-66637000D01*
X157861000Y-66795750D01*
X157607000Y-66795750D01*
X157448250Y-66637000D01*
X156934000Y-66633928D01*
X156809518Y-66646188D01*
X156689820Y-66682498D01*
X156579506Y-66741463D01*
X156482815Y-66820815D01*
X156403463Y-66917506D01*
X156344498Y-67027820D01*
X156308188Y-67147518D01*
X156295928Y-67272000D01*
X149021000Y-67272000D01*
X149021000Y-63603702D01*
X157682903Y-63603702D01*
X157754486Y-63847671D01*
X158009996Y-63968571D01*
X158284184Y-64037300D01*
X158566512Y-64051217D01*
X158846130Y-64009787D01*
X159112292Y-63914603D01*
X159237514Y-63847671D01*
X159309097Y-63603702D01*
X158496000Y-62790605D01*
X157682903Y-63603702D01*
X149021000Y-63603702D01*
X149021000Y-62681512D01*
X157055783Y-62681512D01*
X157097213Y-62961130D01*
X157192397Y-63227292D01*
X157259329Y-63352514D01*
X157503298Y-63424097D01*
X158316395Y-62611000D01*
X158675605Y-62611000D01*
X159488702Y-63424097D01*
X159732671Y-63352514D01*
X159853571Y-63097004D01*
X159922300Y-62822816D01*
X159936217Y-62540488D01*
X159925724Y-62469665D01*
X162061000Y-62469665D01*
X162061000Y-62752335D01*
X162116147Y-63029574D01*
X162224320Y-63290727D01*
X162381363Y-63525759D01*
X162581241Y-63725637D01*
X162816273Y-63882680D01*
X163077426Y-63990853D01*
X163354665Y-64046000D01*
X163637335Y-64046000D01*
X163914574Y-63990853D01*
X164175727Y-63882680D01*
X164410759Y-63725637D01*
X164610637Y-63525759D01*
X164767680Y-63290727D01*
X164875853Y-63029574D01*
X164931000Y-62752335D01*
X164931000Y-62469665D01*
X164875853Y-62192426D01*
X164767680Y-61931273D01*
X164610637Y-61696241D01*
X164410759Y-61496363D01*
X164175727Y-61339320D01*
X163914574Y-61231147D01*
X163637335Y-61176000D01*
X163354665Y-61176000D01*
X163077426Y-61231147D01*
X162816273Y-61339320D01*
X162581241Y-61496363D01*
X162381363Y-61696241D01*
X162224320Y-61931273D01*
X162116147Y-62192426D01*
X162061000Y-62469665D01*
X159925724Y-62469665D01*
X159894787Y-62260870D01*
X159799603Y-61994708D01*
X159732671Y-61869486D01*
X159488702Y-61797903D01*
X158675605Y-62611000D01*
X158316395Y-62611000D01*
X157503298Y-61797903D01*
X157259329Y-61869486D01*
X157138429Y-62124996D01*
X157069700Y-62399184D01*
X157055783Y-62681512D01*
X149021000Y-62681512D01*
X149021000Y-61618298D01*
X157682903Y-61618298D01*
X158496000Y-62431395D01*
X159309097Y-61618298D01*
X159237514Y-61374329D01*
X158982004Y-61253429D01*
X158707816Y-61184700D01*
X158425488Y-61170783D01*
X158145870Y-61212213D01*
X157879708Y-61307397D01*
X157754486Y-61374329D01*
X157682903Y-61618298D01*
X149021000Y-61618298D01*
X149021000Y-54399721D01*
X150392000Y-54399721D01*
X150392000Y-54820279D01*
X150474047Y-55232756D01*
X150634988Y-55621302D01*
X150868637Y-55970983D01*
X151166017Y-56268363D01*
X151515698Y-56502012D01*
X151904244Y-56662953D01*
X152316721Y-56745000D01*
X152737279Y-56745000D01*
X153149756Y-56662953D01*
X153538302Y-56502012D01*
X153887983Y-56268363D01*
X154185363Y-55970983D01*
X154419012Y-55621302D01*
X154579953Y-55232756D01*
X154662000Y-54820279D01*
X154662000Y-54399721D01*
X225576000Y-54399721D01*
X225576000Y-54820279D01*
X225658047Y-55232756D01*
X225818988Y-55621302D01*
X226052637Y-55970983D01*
X226350017Y-56268363D01*
X226699698Y-56502012D01*
X227088244Y-56662953D01*
X227500721Y-56745000D01*
X227921279Y-56745000D01*
X228333756Y-56662953D01*
X228722302Y-56502012D01*
X229071983Y-56268363D01*
X229369363Y-55970983D01*
X229603012Y-55621302D01*
X229763953Y-55232756D01*
X229846000Y-54820279D01*
X229846000Y-54399721D01*
X229763953Y-53987244D01*
X229603012Y-53598698D01*
X229369363Y-53249017D01*
X229071983Y-52951637D01*
X228722302Y-52717988D01*
X228333756Y-52557047D01*
X227921279Y-52475000D01*
X227500721Y-52475000D01*
X227088244Y-52557047D01*
X226699698Y-52717988D01*
X226350017Y-52951637D01*
X226052637Y-53249017D01*
X225818988Y-53598698D01*
X225658047Y-53987244D01*
X225576000Y-54399721D01*
X154662000Y-54399721D01*
X154579953Y-53987244D01*
X154419012Y-53598698D01*
X154185363Y-53249017D01*
X153887983Y-52951637D01*
X153538302Y-52717988D01*
X153149756Y-52557047D01*
X152737279Y-52475000D01*
X152316721Y-52475000D01*
X151904244Y-52557047D01*
X151515698Y-52717988D01*
X151166017Y-52951637D01*
X150868637Y-53249017D01*
X150634988Y-53598698D01*
X150474047Y-53987244D01*
X150392000Y-54399721D01*
X149021000Y-54399721D01*
X149021000Y-50469000D01*
X231344001Y-50469000D01*
X231344000Y-119457000D01*
%TA.AperFunction,Conductor*%
D20*
G36*
X231344000Y-119457000D02*
G01*
X149021000Y-119457000D01*
X149021000Y-115867721D01*
X150138000Y-115867721D01*
X150138000Y-116288279D01*
X150220047Y-116700756D01*
X150380988Y-117089302D01*
X150614637Y-117438983D01*
X150912017Y-117736363D01*
X151261698Y-117970012D01*
X151650244Y-118130953D01*
X152062721Y-118213000D01*
X152483279Y-118213000D01*
X152895756Y-118130953D01*
X153284302Y-117970012D01*
X153633983Y-117736363D01*
X153931363Y-117438983D01*
X154165012Y-117089302D01*
X154325953Y-116700756D01*
X154408000Y-116288279D01*
X154408000Y-115867721D01*
X225322000Y-115867721D01*
X225322000Y-116288279D01*
X225404047Y-116700756D01*
X225564988Y-117089302D01*
X225798637Y-117438983D01*
X226096017Y-117736363D01*
X226445698Y-117970012D01*
X226834244Y-118130953D01*
X227246721Y-118213000D01*
X227667279Y-118213000D01*
X228079756Y-118130953D01*
X228468302Y-117970012D01*
X228817983Y-117736363D01*
X229115363Y-117438983D01*
X229349012Y-117089302D01*
X229509953Y-116700756D01*
X229592000Y-116288279D01*
X229592000Y-115867721D01*
X229509953Y-115455244D01*
X229349012Y-115066698D01*
X229115363Y-114717017D01*
X228817983Y-114419637D01*
X228468302Y-114185988D01*
X228079756Y-114025047D01*
X227667279Y-113943000D01*
X227246721Y-113943000D01*
X226834244Y-114025047D01*
X226445698Y-114185988D01*
X226096017Y-114419637D01*
X225798637Y-114717017D01*
X225564988Y-115066698D01*
X225404047Y-115455244D01*
X225322000Y-115867721D01*
X154408000Y-115867721D01*
X154325953Y-115455244D01*
X154165012Y-115066698D01*
X153931363Y-114717017D01*
X153633983Y-114419637D01*
X153284302Y-114185988D01*
X152895756Y-114025047D01*
X152483279Y-113943000D01*
X152062721Y-113943000D01*
X151650244Y-114025047D01*
X151261698Y-114185988D01*
X150912017Y-114419637D01*
X150614637Y-114717017D01*
X150380988Y-115066698D01*
X150220047Y-115455244D01*
X150138000Y-115867721D01*
X149021000Y-115867721D01*
X149021000Y-111237665D01*
X156680000Y-111237665D01*
X156680000Y-111520335D01*
X156735147Y-111797574D01*
X156843320Y-112058727D01*
X157000363Y-112293759D01*
X157200241Y-112493637D01*
X157435273Y-112650680D01*
X157696426Y-112758853D01*
X157973665Y-112814000D01*
X158256335Y-112814000D01*
X158533574Y-112758853D01*
X158794727Y-112650680D01*
X159029759Y-112493637D01*
X159229637Y-112293759D01*
X159386680Y-112058727D01*
X159494853Y-111797574D01*
X159550000Y-111520335D01*
X159550000Y-111481891D01*
X180041519Y-111481891D01*
X180138843Y-111756252D01*
X180287822Y-112006355D01*
X180482731Y-112222588D01*
X180716080Y-112396641D01*
X180978901Y-112521825D01*
X181126110Y-112566476D01*
X181356000Y-112445155D01*
X181356000Y-111252000D01*
X180162186Y-111252000D01*
X180041519Y-111481891D01*
X159550000Y-111481891D01*
X159550000Y-111237665D01*
X159494853Y-110960426D01*
X159415193Y-110768109D01*
X180041519Y-110768109D01*
X180162186Y-110998000D01*
X181356000Y-110998000D01*
X181356000Y-109804845D01*
X181610000Y-109804845D01*
X181610000Y-110998000D01*
X181630000Y-110998000D01*
X181630000Y-111252000D01*
X181610000Y-111252000D01*
X181610000Y-112445155D01*
X181839890Y-112566476D01*
X181987099Y-112521825D01*
X182249920Y-112396641D01*
X182483269Y-112222588D01*
X182559034Y-112138534D01*
X182583498Y-112219180D01*
X182642463Y-112329494D01*
X182721815Y-112426185D01*
X182818506Y-112505537D01*
X182928820Y-112564502D01*
X183048518Y-112600812D01*
X183173000Y-112613072D01*
X184873000Y-112613072D01*
X184997482Y-112600812D01*
X185117180Y-112564502D01*
X185227494Y-112505537D01*
X185324185Y-112426185D01*
X185403537Y-112329494D01*
X185462502Y-112219180D01*
X185498812Y-112099482D01*
X185511072Y-111975000D01*
X185511072Y-110983665D01*
X190462000Y-110983665D01*
X190462000Y-111266335D01*
X190517147Y-111543574D01*
X190625320Y-111804727D01*
X190782363Y-112039759D01*
X190982241Y-112239637D01*
X191217273Y-112396680D01*
X191478426Y-112504853D01*
X191755665Y-112560000D01*
X192038335Y-112560000D01*
X192315574Y-112504853D01*
X192576727Y-112396680D01*
X192811759Y-112239637D01*
X193011637Y-112039759D01*
X193168680Y-111804727D01*
X193276853Y-111543574D01*
X193332000Y-111266335D01*
X193332000Y-110983665D01*
X193276853Y-110706426D01*
X193168680Y-110445273D01*
X193011637Y-110210241D01*
X192811759Y-110010363D01*
X192611131Y-109876308D01*
X192638514Y-109861671D01*
X192710097Y-109617702D01*
X191897000Y-108804605D01*
X191083903Y-109617702D01*
X191155486Y-109861671D01*
X191184341Y-109875324D01*
X190982241Y-110010363D01*
X190782363Y-110210241D01*
X190625320Y-110445273D01*
X190517147Y-110706426D01*
X190462000Y-110983665D01*
X185511072Y-110983665D01*
X185511072Y-110275000D01*
X185498812Y-110150518D01*
X185462502Y-110030820D01*
X185403537Y-109920506D01*
X185324185Y-109823815D01*
X185227494Y-109744463D01*
X185117180Y-109685498D01*
X184997482Y-109649188D01*
X184873000Y-109636928D01*
X183173000Y-109636928D01*
X183048518Y-109649188D01*
X182928820Y-109685498D01*
X182818506Y-109744463D01*
X182721815Y-109823815D01*
X182642463Y-109920506D01*
X182583498Y-110030820D01*
X182559034Y-110111466D01*
X182483269Y-110027412D01*
X182249920Y-109853359D01*
X181987099Y-109728175D01*
X181839890Y-109683524D01*
X181610000Y-109804845D01*
X181356000Y-109804845D01*
X181126110Y-109683524D01*
X180978901Y-109728175D01*
X180716080Y-109853359D01*
X180482731Y-110027412D01*
X180287822Y-110243645D01*
X180138843Y-110493748D01*
X180041519Y-110768109D01*
X159415193Y-110768109D01*
X159386680Y-110699273D01*
X159229637Y-110464241D01*
X159029759Y-110264363D01*
X158794727Y-110107320D01*
X158533574Y-109999147D01*
X158256335Y-109944000D01*
X157973665Y-109944000D01*
X157696426Y-109999147D01*
X157435273Y-110107320D01*
X157200241Y-110264363D01*
X157000363Y-110464241D01*
X156843320Y-110699273D01*
X156735147Y-110960426D01*
X156680000Y-111237665D01*
X149021000Y-111237665D01*
X149021000Y-108695512D01*
X190456783Y-108695512D01*
X190498213Y-108975130D01*
X190593397Y-109241292D01*
X190660329Y-109366514D01*
X190904298Y-109438097D01*
X191717395Y-108625000D01*
X192076605Y-108625000D01*
X192889702Y-109438097D01*
X193133671Y-109366514D01*
X193254571Y-109111004D01*
X193323300Y-108836816D01*
X193337217Y-108554488D01*
X193295787Y-108274870D01*
X193263555Y-108184740D01*
X200064000Y-108184740D01*
X200064000Y-108477260D01*
X200121068Y-108764158D01*
X200233010Y-109034411D01*
X200395525Y-109277632D01*
X200602368Y-109484475D01*
X200845589Y-109646990D01*
X201115842Y-109758932D01*
X201402740Y-109816000D01*
X201695260Y-109816000D01*
X201982158Y-109758932D01*
X202252411Y-109646990D01*
X202495632Y-109484475D01*
X202702475Y-109277632D01*
X202819000Y-109103240D01*
X202935525Y-109277632D01*
X203142368Y-109484475D01*
X203385589Y-109646990D01*
X203655842Y-109758932D01*
X203942740Y-109816000D01*
X204235260Y-109816000D01*
X204522158Y-109758932D01*
X204792411Y-109646990D01*
X205035632Y-109484475D01*
X205242475Y-109277632D01*
X205359000Y-109103240D01*
X205475525Y-109277632D01*
X205682368Y-109484475D01*
X205925589Y-109646990D01*
X206195842Y-109758932D01*
X206482740Y-109816000D01*
X206775260Y-109816000D01*
X207062158Y-109758932D01*
X207332411Y-109646990D01*
X207575632Y-109484475D01*
X207782475Y-109277632D01*
X207899000Y-109103240D01*
X208015525Y-109277632D01*
X208222368Y-109484475D01*
X208465589Y-109646990D01*
X208735842Y-109758932D01*
X209022740Y-109816000D01*
X209315260Y-109816000D01*
X209602158Y-109758932D01*
X209872411Y-109646990D01*
X210115632Y-109484475D01*
X210322475Y-109277632D01*
X210439000Y-109103240D01*
X210555525Y-109277632D01*
X210762368Y-109484475D01*
X211005589Y-109646990D01*
X211275842Y-109758932D01*
X211562740Y-109816000D01*
X211855260Y-109816000D01*
X212142158Y-109758932D01*
X212412411Y-109646990D01*
X212655632Y-109484475D01*
X212862475Y-109277632D01*
X212979000Y-109103240D01*
X213095525Y-109277632D01*
X213302368Y-109484475D01*
X213545589Y-109646990D01*
X213815842Y-109758932D01*
X214102740Y-109816000D01*
X214395260Y-109816000D01*
X214682158Y-109758932D01*
X214952411Y-109646990D01*
X215195632Y-109484475D01*
X215402475Y-109277632D01*
X215519000Y-109103240D01*
X215635525Y-109277632D01*
X215842368Y-109484475D01*
X216085589Y-109646990D01*
X216355842Y-109758932D01*
X216642740Y-109816000D01*
X216935260Y-109816000D01*
X217222158Y-109758932D01*
X217492411Y-109646990D01*
X217735632Y-109484475D01*
X217942475Y-109277632D01*
X218059000Y-109103240D01*
X218175525Y-109277632D01*
X218382368Y-109484475D01*
X218625589Y-109646990D01*
X218895842Y-109758932D01*
X219182740Y-109816000D01*
X219475260Y-109816000D01*
X219762158Y-109758932D01*
X220032411Y-109646990D01*
X220275632Y-109484475D01*
X220407487Y-109352620D01*
X220429498Y-109425180D01*
X220488463Y-109535494D01*
X220567815Y-109632185D01*
X220664506Y-109711537D01*
X220774820Y-109770502D01*
X220894518Y-109806812D01*
X221019000Y-109819072D01*
X222719000Y-109819072D01*
X222843482Y-109806812D01*
X222963180Y-109770502D01*
X223073494Y-109711537D01*
X223170185Y-109632185D01*
X223249537Y-109535494D01*
X223308502Y-109425180D01*
X223344812Y-109305482D01*
X223357072Y-109181000D01*
X223357072Y-107481000D01*
X223344812Y-107356518D01*
X223308502Y-107236820D01*
X223249537Y-107126506D01*
X223170185Y-107029815D01*
X223073494Y-106950463D01*
X222963180Y-106891498D01*
X222843482Y-106855188D01*
X222719000Y-106842928D01*
X221019000Y-106842928D01*
X220894518Y-106855188D01*
X220774820Y-106891498D01*
X220664506Y-106950463D01*
X220567815Y-107029815D01*
X220488463Y-107126506D01*
X220429498Y-107236820D01*
X220407487Y-107309380D01*
X220275632Y-107177525D01*
X220032411Y-107015010D01*
X219762158Y-106903068D01*
X219475260Y-106846000D01*
X219182740Y-106846000D01*
X218895842Y-106903068D01*
X218625589Y-107015010D01*
X218382368Y-107177525D01*
X218175525Y-107384368D01*
X218059000Y-107558760D01*
X217942475Y-107384368D01*
X217735632Y-107177525D01*
X217492411Y-107015010D01*
X217222158Y-106903068D01*
X216935260Y-106846000D01*
X216642740Y-106846000D01*
X216355842Y-106903068D01*
X216085589Y-107015010D01*
X215842368Y-107177525D01*
X215635525Y-107384368D01*
X215519000Y-107558760D01*
X215402475Y-107384368D01*
X215195632Y-107177525D01*
X214952411Y-107015010D01*
X214682158Y-106903068D01*
X214395260Y-106846000D01*
X214102740Y-106846000D01*
X213815842Y-106903068D01*
X213545589Y-107015010D01*
X213302368Y-107177525D01*
X213095525Y-107384368D01*
X212979000Y-107558760D01*
X212862475Y-107384368D01*
X212655632Y-107177525D01*
X212412411Y-107015010D01*
X212142158Y-106903068D01*
X211855260Y-106846000D01*
X211562740Y-106846000D01*
X211275842Y-106903068D01*
X211005589Y-107015010D01*
X210762368Y-107177525D01*
X210555525Y-107384368D01*
X210439000Y-107558760D01*
X210322475Y-107384368D01*
X210115632Y-107177525D01*
X209872411Y-107015010D01*
X209602158Y-106903068D01*
X209315260Y-106846000D01*
X209022740Y-106846000D01*
X208735842Y-106903068D01*
X208465589Y-107015010D01*
X208222368Y-107177525D01*
X208015525Y-107384368D01*
X207899000Y-107558760D01*
X207782475Y-107384368D01*
X207575632Y-107177525D01*
X207332411Y-107015010D01*
X207062158Y-106903068D01*
X206775260Y-106846000D01*
X206482740Y-106846000D01*
X206195842Y-106903068D01*
X205925589Y-107015010D01*
X205682368Y-107177525D01*
X205475525Y-107384368D01*
X205359000Y-107558760D01*
X205242475Y-107384368D01*
X205035632Y-107177525D01*
X204792411Y-107015010D01*
X204522158Y-106903068D01*
X204235260Y-106846000D01*
X203942740Y-106846000D01*
X203655842Y-106903068D01*
X203385589Y-107015010D01*
X203142368Y-107177525D01*
X202935525Y-107384368D01*
X202819000Y-107558760D01*
X202702475Y-107384368D01*
X202495632Y-107177525D01*
X202252411Y-107015010D01*
X201982158Y-106903068D01*
X201695260Y-106846000D01*
X201402740Y-106846000D01*
X201115842Y-106903068D01*
X200845589Y-107015010D01*
X200602368Y-107177525D01*
X200395525Y-107384368D01*
X200233010Y-107627589D01*
X200121068Y-107897842D01*
X200064000Y-108184740D01*
X193263555Y-108184740D01*
X193200603Y-108008708D01*
X193133671Y-107883486D01*
X192889702Y-107811903D01*
X192076605Y-108625000D01*
X191717395Y-108625000D01*
X190904298Y-107811903D01*
X190660329Y-107883486D01*
X190539429Y-108138996D01*
X190470700Y-108413184D01*
X190456783Y-108695512D01*
X149021000Y-108695512D01*
X149021000Y-107632298D01*
X191083903Y-107632298D01*
X191897000Y-108445395D01*
X192710097Y-107632298D01*
X192638514Y-107388329D01*
X192383004Y-107267429D01*
X192108816Y-107198700D01*
X191826488Y-107184783D01*
X191546870Y-107226213D01*
X191280708Y-107321397D01*
X191155486Y-107388329D01*
X191083903Y-107632298D01*
X149021000Y-107632298D01*
X149021000Y-104864000D01*
X163026928Y-104864000D01*
X163026928Y-106464000D01*
X163039188Y-106588482D01*
X163075498Y-106708180D01*
X163134463Y-106818494D01*
X163213815Y-106915185D01*
X163310506Y-106994537D01*
X163420820Y-107053502D01*
X163540518Y-107089812D01*
X163665000Y-107102072D01*
X165265000Y-107102072D01*
X165389482Y-107089812D01*
X165509180Y-107053502D01*
X165619494Y-106994537D01*
X165716185Y-106915185D01*
X165795537Y-106818494D01*
X165854502Y-106708180D01*
X165890812Y-106588482D01*
X165891643Y-106580039D01*
X166090241Y-106778637D01*
X166325273Y-106935680D01*
X166586426Y-107043853D01*
X166863665Y-107099000D01*
X167146335Y-107099000D01*
X167423574Y-107043853D01*
X167684727Y-106935680D01*
X167919759Y-106778637D01*
X168119637Y-106578759D01*
X168275000Y-106346241D01*
X168430363Y-106578759D01*
X168630241Y-106778637D01*
X168865273Y-106935680D01*
X169126426Y-107043853D01*
X169403665Y-107099000D01*
X169686335Y-107099000D01*
X169963574Y-107043853D01*
X170224727Y-106935680D01*
X170459759Y-106778637D01*
X170659637Y-106578759D01*
X170815000Y-106346241D01*
X170970363Y-106578759D01*
X171170241Y-106778637D01*
X171405273Y-106935680D01*
X171666426Y-107043853D01*
X171943665Y-107099000D01*
X172226335Y-107099000D01*
X172503574Y-107043853D01*
X172764727Y-106935680D01*
X172999759Y-106778637D01*
X173199637Y-106578759D01*
X173355000Y-106346241D01*
X173510363Y-106578759D01*
X173710241Y-106778637D01*
X173945273Y-106935680D01*
X174206426Y-107043853D01*
X174483665Y-107099000D01*
X174766335Y-107099000D01*
X175043574Y-107043853D01*
X175304727Y-106935680D01*
X175539759Y-106778637D01*
X175739637Y-106578759D01*
X175895000Y-106346241D01*
X176050363Y-106578759D01*
X176250241Y-106778637D01*
X176485273Y-106935680D01*
X176746426Y-107043853D01*
X177023665Y-107099000D01*
X177306335Y-107099000D01*
X177583574Y-107043853D01*
X177844727Y-106935680D01*
X178079759Y-106778637D01*
X178279637Y-106578759D01*
X178435000Y-106346241D01*
X178590363Y-106578759D01*
X178790241Y-106778637D01*
X179025273Y-106935680D01*
X179286426Y-107043853D01*
X179563665Y-107099000D01*
X179846335Y-107099000D01*
X180123574Y-107043853D01*
X180384727Y-106935680D01*
X180619759Y-106778637D01*
X180819637Y-106578759D01*
X180975000Y-106346241D01*
X181130363Y-106578759D01*
X181330241Y-106778637D01*
X181565273Y-106935680D01*
X181826426Y-107043853D01*
X182103665Y-107099000D01*
X182386335Y-107099000D01*
X182663574Y-107043853D01*
X182924727Y-106935680D01*
X183159759Y-106778637D01*
X183359637Y-106578759D01*
X183516680Y-106343727D01*
X183624853Y-106082574D01*
X183680000Y-105805335D01*
X183680000Y-105522665D01*
X183624853Y-105245426D01*
X183516680Y-104984273D01*
X183359637Y-104749241D01*
X183159759Y-104549363D01*
X182924727Y-104392320D01*
X182663574Y-104284147D01*
X182386335Y-104229000D01*
X182103665Y-104229000D01*
X181826426Y-104284147D01*
X181565273Y-104392320D01*
X181330241Y-104549363D01*
X181130363Y-104749241D01*
X180975000Y-104981759D01*
X180819637Y-104749241D01*
X180619759Y-104549363D01*
X180384727Y-104392320D01*
X180123574Y-104284147D01*
X179846335Y-104229000D01*
X179563665Y-104229000D01*
X179286426Y-104284147D01*
X179025273Y-104392320D01*
X178790241Y-104549363D01*
X178590363Y-104749241D01*
X178435000Y-104981759D01*
X178279637Y-104749241D01*
X178079759Y-104549363D01*
X177844727Y-104392320D01*
X177583574Y-104284147D01*
X177306335Y-104229000D01*
X177023665Y-104229000D01*
X176746426Y-104284147D01*
X176485273Y-104392320D01*
X176250241Y-104549363D01*
X176050363Y-104749241D01*
X175895000Y-104981759D01*
X175739637Y-104749241D01*
X175539759Y-104549363D01*
X175304727Y-104392320D01*
X175043574Y-104284147D01*
X174766335Y-104229000D01*
X174483665Y-104229000D01*
X174206426Y-104284147D01*
X173945273Y-104392320D01*
X173710241Y-104549363D01*
X173510363Y-104749241D01*
X173355000Y-104981759D01*
X173199637Y-104749241D01*
X172999759Y-104549363D01*
X172764727Y-104392320D01*
X172503574Y-104284147D01*
X172226335Y-104229000D01*
X171943665Y-104229000D01*
X171666426Y-104284147D01*
X171405273Y-104392320D01*
X171170241Y-104549363D01*
X170970363Y-104749241D01*
X170815000Y-104981759D01*
X170659637Y-104749241D01*
X170459759Y-104549363D01*
X170224727Y-104392320D01*
X169963574Y-104284147D01*
X169686335Y-104229000D01*
X169403665Y-104229000D01*
X169126426Y-104284147D01*
X168865273Y-104392320D01*
X168630241Y-104549363D01*
X168430363Y-104749241D01*
X168275000Y-104981759D01*
X168119637Y-104749241D01*
X167919759Y-104549363D01*
X167684727Y-104392320D01*
X167423574Y-104284147D01*
X167146335Y-104229000D01*
X166863665Y-104229000D01*
X166586426Y-104284147D01*
X166325273Y-104392320D01*
X166090241Y-104549363D01*
X165891643Y-104747961D01*
X165890812Y-104739518D01*
X165854502Y-104619820D01*
X165795537Y-104509506D01*
X165716185Y-104412815D01*
X165619494Y-104333463D01*
X165509180Y-104274498D01*
X165389482Y-104238188D01*
X165265000Y-104225928D01*
X163665000Y-104225928D01*
X163540518Y-104238188D01*
X163420820Y-104274498D01*
X163310506Y-104333463D01*
X163213815Y-104412815D01*
X163134463Y-104509506D01*
X163075498Y-104619820D01*
X163039188Y-104739518D01*
X163026928Y-104864000D01*
X149021000Y-104864000D01*
X149021000Y-103797000D01*
X187664928Y-103797000D01*
X187677188Y-103921482D01*
X187713498Y-104041180D01*
X187772463Y-104151494D01*
X187851815Y-104248185D01*
X187948506Y-104327537D01*
X188058820Y-104386502D01*
X188178518Y-104422812D01*
X188303000Y-104435072D01*
X188817250Y-104432000D01*
X188976000Y-104273250D01*
X188976000Y-103124000D01*
X189230000Y-103124000D01*
X189230000Y-104273250D01*
X189388750Y-104432000D01*
X189903000Y-104435072D01*
X190027482Y-104422812D01*
X190147180Y-104386502D01*
X190257494Y-104327537D01*
X190354185Y-104248185D01*
X190433537Y-104151494D01*
X190492502Y-104041180D01*
X190528812Y-103921482D01*
X190531231Y-103896920D01*
X190679586Y-104060519D01*
X190905580Y-104228037D01*
X191159913Y-104348246D01*
X191293961Y-104388904D01*
X191516000Y-104266915D01*
X191516000Y-103124000D01*
X189230000Y-103124000D01*
X188976000Y-103124000D01*
X187826750Y-103124000D01*
X187668000Y-103282750D01*
X187664928Y-103797000D01*
X149021000Y-103797000D01*
X149021000Y-101077665D01*
X156680000Y-101077665D01*
X156680000Y-101360335D01*
X156735147Y-101637574D01*
X156843320Y-101898727D01*
X157000363Y-102133759D01*
X157200241Y-102333637D01*
X157435273Y-102490680D01*
X157696426Y-102598853D01*
X157973665Y-102654000D01*
X158256335Y-102654000D01*
X158533574Y-102598853D01*
X158794727Y-102490680D01*
X159029759Y-102333637D01*
X159166396Y-102197000D01*
X187664928Y-102197000D01*
X187668000Y-102711250D01*
X187826750Y-102870000D01*
X188976000Y-102870000D01*
X188976000Y-101720750D01*
X189230000Y-101720750D01*
X189230000Y-102870000D01*
X191516000Y-102870000D01*
X191516000Y-101727085D01*
X191770000Y-101727085D01*
X191770000Y-102870000D01*
X191790000Y-102870000D01*
X191790000Y-103124000D01*
X191770000Y-103124000D01*
X191770000Y-104266915D01*
X191992039Y-104388904D01*
X192126087Y-104348246D01*
X192380420Y-104228037D01*
X192606414Y-104060519D01*
X192795385Y-103852131D01*
X192906933Y-103666135D01*
X192911320Y-103676727D01*
X193068363Y-103911759D01*
X193268241Y-104111637D01*
X193503273Y-104268680D01*
X193764426Y-104376853D01*
X194041665Y-104432000D01*
X194324335Y-104432000D01*
X194601574Y-104376853D01*
X194862727Y-104268680D01*
X195097759Y-104111637D01*
X195297637Y-103911759D01*
X195453000Y-103679241D01*
X195608363Y-103911759D01*
X195808241Y-104111637D01*
X196043273Y-104268680D01*
X196304426Y-104376853D01*
X196581665Y-104432000D01*
X196864335Y-104432000D01*
X197141574Y-104376853D01*
X197402727Y-104268680D01*
X197637759Y-104111637D01*
X197837637Y-103911759D01*
X197993000Y-103679241D01*
X198148363Y-103911759D01*
X198348241Y-104111637D01*
X198583273Y-104268680D01*
X198844426Y-104376853D01*
X199121665Y-104432000D01*
X199404335Y-104432000D01*
X199681574Y-104376853D01*
X199942727Y-104268680D01*
X200177759Y-104111637D01*
X200377637Y-103911759D01*
X200533000Y-103679241D01*
X200688363Y-103911759D01*
X200888241Y-104111637D01*
X201123273Y-104268680D01*
X201384426Y-104376853D01*
X201661665Y-104432000D01*
X201944335Y-104432000D01*
X202221574Y-104376853D01*
X202482727Y-104268680D01*
X202717759Y-104111637D01*
X202917637Y-103911759D01*
X203073000Y-103679241D01*
X203228363Y-103911759D01*
X203428241Y-104111637D01*
X203663273Y-104268680D01*
X203924426Y-104376853D01*
X204201665Y-104432000D01*
X204484335Y-104432000D01*
X204761574Y-104376853D01*
X205022727Y-104268680D01*
X205257759Y-104111637D01*
X205457637Y-103911759D01*
X205613000Y-103679241D01*
X205768363Y-103911759D01*
X205968241Y-104111637D01*
X206203273Y-104268680D01*
X206464426Y-104376853D01*
X206741665Y-104432000D01*
X207024335Y-104432000D01*
X207301574Y-104376853D01*
X207562727Y-104268680D01*
X207797759Y-104111637D01*
X207997637Y-103911759D01*
X208153000Y-103679241D01*
X208308363Y-103911759D01*
X208508241Y-104111637D01*
X208743273Y-104268680D01*
X209004426Y-104376853D01*
X209281665Y-104432000D01*
X209564335Y-104432000D01*
X209841574Y-104376853D01*
X210102727Y-104268680D01*
X210337759Y-104111637D01*
X210537637Y-103911759D01*
X210693000Y-103679241D01*
X210848363Y-103911759D01*
X211048241Y-104111637D01*
X211283273Y-104268680D01*
X211544426Y-104376853D01*
X211821665Y-104432000D01*
X212104335Y-104432000D01*
X212381574Y-104376853D01*
X212642727Y-104268680D01*
X212877759Y-104111637D01*
X213077637Y-103911759D01*
X213233000Y-103679241D01*
X213388363Y-103911759D01*
X213588241Y-104111637D01*
X213823273Y-104268680D01*
X214084426Y-104376853D01*
X214361665Y-104432000D01*
X214644335Y-104432000D01*
X214921574Y-104376853D01*
X215182727Y-104268680D01*
X215417759Y-104111637D01*
X215617637Y-103911759D01*
X215773000Y-103679241D01*
X215928363Y-103911759D01*
X216128241Y-104111637D01*
X216363273Y-104268680D01*
X216624426Y-104376853D01*
X216901665Y-104432000D01*
X217184335Y-104432000D01*
X217461574Y-104376853D01*
X217722727Y-104268680D01*
X217957759Y-104111637D01*
X218157637Y-103911759D01*
X218313000Y-103679241D01*
X218468363Y-103911759D01*
X218668241Y-104111637D01*
X218903273Y-104268680D01*
X219164426Y-104376853D01*
X219441665Y-104432000D01*
X219724335Y-104432000D01*
X220001574Y-104376853D01*
X220262727Y-104268680D01*
X220497759Y-104111637D01*
X220697637Y-103911759D01*
X220854680Y-103676727D01*
X220859067Y-103666135D01*
X220970615Y-103852131D01*
X221159586Y-104060519D01*
X221385580Y-104228037D01*
X221639913Y-104348246D01*
X221773961Y-104388904D01*
X221996000Y-104266915D01*
X221996000Y-103124000D01*
X222250000Y-103124000D01*
X222250000Y-104266915D01*
X222472039Y-104388904D01*
X222606087Y-104348246D01*
X222860420Y-104228037D01*
X223086414Y-104060519D01*
X223275385Y-103852131D01*
X223420070Y-103610881D01*
X223514909Y-103346040D01*
X223393624Y-103124000D01*
X222250000Y-103124000D01*
X221996000Y-103124000D01*
X221976000Y-103124000D01*
X221976000Y-102870000D01*
X221996000Y-102870000D01*
X221996000Y-101727085D01*
X222250000Y-101727085D01*
X222250000Y-102870000D01*
X223393624Y-102870000D01*
X223514909Y-102647960D01*
X223420070Y-102383119D01*
X223275385Y-102141869D01*
X223086414Y-101933481D01*
X222860420Y-101765963D01*
X222606087Y-101645754D01*
X222472039Y-101605096D01*
X222250000Y-101727085D01*
X221996000Y-101727085D01*
X221773961Y-101605096D01*
X221639913Y-101645754D01*
X221385580Y-101765963D01*
X221159586Y-101933481D01*
X220970615Y-102141869D01*
X220859067Y-102327865D01*
X220854680Y-102317273D01*
X220697637Y-102082241D01*
X220497759Y-101882363D01*
X220262727Y-101725320D01*
X220001574Y-101617147D01*
X219724335Y-101562000D01*
X219441665Y-101562000D01*
X219164426Y-101617147D01*
X218903273Y-101725320D01*
X218668241Y-101882363D01*
X218468363Y-102082241D01*
X218313000Y-102314759D01*
X218157637Y-102082241D01*
X217957759Y-101882363D01*
X217722727Y-101725320D01*
X217461574Y-101617147D01*
X217184335Y-101562000D01*
X216901665Y-101562000D01*
X216624426Y-101617147D01*
X216363273Y-101725320D01*
X216128241Y-101882363D01*
X215928363Y-102082241D01*
X215773000Y-102314759D01*
X215617637Y-102082241D01*
X215417759Y-101882363D01*
X215182727Y-101725320D01*
X214921574Y-101617147D01*
X214644335Y-101562000D01*
X214361665Y-101562000D01*
X214084426Y-101617147D01*
X213823273Y-101725320D01*
X213588241Y-101882363D01*
X213388363Y-102082241D01*
X213233000Y-102314759D01*
X213077637Y-102082241D01*
X212877759Y-101882363D01*
X212642727Y-101725320D01*
X212381574Y-101617147D01*
X212104335Y-101562000D01*
X211821665Y-101562000D01*
X211544426Y-101617147D01*
X211283273Y-101725320D01*
X211048241Y-101882363D01*
X210848363Y-102082241D01*
X210693000Y-102314759D01*
X210537637Y-102082241D01*
X210337759Y-101882363D01*
X210102727Y-101725320D01*
X209841574Y-101617147D01*
X209564335Y-101562000D01*
X209281665Y-101562000D01*
X209004426Y-101617147D01*
X208743273Y-101725320D01*
X208508241Y-101882363D01*
X208308363Y-102082241D01*
X208153000Y-102314759D01*
X207997637Y-102082241D01*
X207797759Y-101882363D01*
X207562727Y-101725320D01*
X207301574Y-101617147D01*
X207024335Y-101562000D01*
X206741665Y-101562000D01*
X206464426Y-101617147D01*
X206203273Y-101725320D01*
X205968241Y-101882363D01*
X205768363Y-102082241D01*
X205613000Y-102314759D01*
X205457637Y-102082241D01*
X205257759Y-101882363D01*
X205022727Y-101725320D01*
X204761574Y-101617147D01*
X204484335Y-101562000D01*
X204201665Y-101562000D01*
X203924426Y-101617147D01*
X203663273Y-101725320D01*
X203428241Y-101882363D01*
X203228363Y-102082241D01*
X203073000Y-102314759D01*
X202917637Y-102082241D01*
X202717759Y-101882363D01*
X202482727Y-101725320D01*
X202221574Y-101617147D01*
X201944335Y-101562000D01*
X201661665Y-101562000D01*
X201384426Y-101617147D01*
X201123273Y-101725320D01*
X200888241Y-101882363D01*
X200688363Y-102082241D01*
X200533000Y-102314759D01*
X200377637Y-102082241D01*
X200177759Y-101882363D01*
X199942727Y-101725320D01*
X199681574Y-101617147D01*
X199404335Y-101562000D01*
X199121665Y-101562000D01*
X198844426Y-101617147D01*
X198583273Y-101725320D01*
X198348241Y-101882363D01*
X198148363Y-102082241D01*
X197993000Y-102314759D01*
X197837637Y-102082241D01*
X197637759Y-101882363D01*
X197402727Y-101725320D01*
X197141574Y-101617147D01*
X196864335Y-101562000D01*
X196581665Y-101562000D01*
X196304426Y-101617147D01*
X196043273Y-101725320D01*
X195808241Y-101882363D01*
X195608363Y-102082241D01*
X195453000Y-102314759D01*
X195297637Y-102082241D01*
X195097759Y-101882363D01*
X194862727Y-101725320D01*
X194601574Y-101617147D01*
X194324335Y-101562000D01*
X194041665Y-101562000D01*
X193764426Y-101617147D01*
X193503273Y-101725320D01*
X193268241Y-101882363D01*
X193068363Y-102082241D01*
X192911320Y-102317273D01*
X192906933Y-102327865D01*
X192795385Y-102141869D01*
X192606414Y-101933481D01*
X192380420Y-101765963D01*
X192126087Y-101645754D01*
X191992039Y-101605096D01*
X191770000Y-101727085D01*
X191516000Y-101727085D01*
X191293961Y-101605096D01*
X191159913Y-101645754D01*
X190905580Y-101765963D01*
X190679586Y-101933481D01*
X190531231Y-102097080D01*
X190528812Y-102072518D01*
X190492502Y-101952820D01*
X190433537Y-101842506D01*
X190354185Y-101745815D01*
X190257494Y-101666463D01*
X190147180Y-101607498D01*
X190027482Y-101571188D01*
X189903000Y-101558928D01*
X189388750Y-101562000D01*
X189230000Y-101720750D01*
X188976000Y-101720750D01*
X188817250Y-101562000D01*
X188303000Y-101558928D01*
X188178518Y-101571188D01*
X188058820Y-101607498D01*
X187948506Y-101666463D01*
X187851815Y-101745815D01*
X187772463Y-101842506D01*
X187713498Y-101952820D01*
X187677188Y-102072518D01*
X187664928Y-102197000D01*
X159166396Y-102197000D01*
X159229637Y-102133759D01*
X159386680Y-101898727D01*
X159494853Y-101637574D01*
X159550000Y-101360335D01*
X159550000Y-101077665D01*
X159494853Y-100800426D01*
X159386680Y-100539273D01*
X159229637Y-100304241D01*
X159029759Y-100104363D01*
X158794727Y-99947320D01*
X158533574Y-99839147D01*
X158256335Y-99784000D01*
X157973665Y-99784000D01*
X157696426Y-99839147D01*
X157435273Y-99947320D01*
X157200241Y-100104363D01*
X157000363Y-100304241D01*
X156843320Y-100539273D01*
X156735147Y-100800426D01*
X156680000Y-101077665D01*
X149021000Y-101077665D01*
X149021000Y-95997665D01*
X156680000Y-95997665D01*
X156680000Y-96280335D01*
X156735147Y-96557574D01*
X156843320Y-96818727D01*
X157000363Y-97053759D01*
X157200241Y-97253637D01*
X157435273Y-97410680D01*
X157696426Y-97518853D01*
X157973665Y-97574000D01*
X158256335Y-97574000D01*
X158533574Y-97518853D01*
X158794727Y-97410680D01*
X159029759Y-97253637D01*
X159229637Y-97053759D01*
X159386680Y-96818727D01*
X159494853Y-96557574D01*
X159550000Y-96280335D01*
X159550000Y-95997665D01*
X159494853Y-95720426D01*
X159386680Y-95459273D01*
X159229637Y-95224241D01*
X159029759Y-95024363D01*
X158794727Y-94867320D01*
X158533574Y-94759147D01*
X158256335Y-94704000D01*
X157973665Y-94704000D01*
X157696426Y-94759147D01*
X157435273Y-94867320D01*
X157200241Y-95024363D01*
X157000363Y-95224241D01*
X156843320Y-95459273D01*
X156735147Y-95720426D01*
X156680000Y-95997665D01*
X149021000Y-95997665D01*
X149021000Y-93891000D01*
X162899928Y-93891000D01*
X162912188Y-94015482D01*
X162948498Y-94135180D01*
X163007463Y-94245494D01*
X163086815Y-94342185D01*
X163183506Y-94421537D01*
X163293820Y-94480502D01*
X163413518Y-94516812D01*
X163538000Y-94529072D01*
X164052250Y-94526000D01*
X164211000Y-94367250D01*
X164211000Y-93218000D01*
X163061750Y-93218000D01*
X162903000Y-93376750D01*
X162899928Y-93891000D01*
X149021000Y-93891000D01*
X149021000Y-92291000D01*
X162899928Y-92291000D01*
X162903000Y-92805250D01*
X163061750Y-92964000D01*
X164211000Y-92964000D01*
X164211000Y-91814750D01*
X164052250Y-91656000D01*
X163538000Y-91652928D01*
X163413518Y-91665188D01*
X163293820Y-91701498D01*
X163183506Y-91760463D01*
X163086815Y-91839815D01*
X163007463Y-91936506D01*
X162948498Y-92046820D01*
X162912188Y-92166518D01*
X162899928Y-92291000D01*
X149021000Y-92291000D01*
X149021000Y-85837665D01*
X156680000Y-85837665D01*
X156680000Y-86120335D01*
X156735147Y-86397574D01*
X156843320Y-86658727D01*
X157000363Y-86893759D01*
X157200241Y-87093637D01*
X157435273Y-87250680D01*
X157696426Y-87358853D01*
X157973665Y-87414000D01*
X158256335Y-87414000D01*
X158533574Y-87358853D01*
X158794727Y-87250680D01*
X159029759Y-87093637D01*
X159229637Y-86893759D01*
X159386680Y-86658727D01*
X159494853Y-86397574D01*
X159550000Y-86120335D01*
X159550000Y-85837665D01*
X159494853Y-85560426D01*
X159399269Y-85329665D01*
X162903000Y-85329665D01*
X162903000Y-85612335D01*
X162958147Y-85889574D01*
X163066320Y-86150727D01*
X163223363Y-86385759D01*
X163423241Y-86585637D01*
X163658273Y-86742680D01*
X163919426Y-86850853D01*
X164196665Y-86906000D01*
X164479335Y-86906000D01*
X164756574Y-86850853D01*
X165017727Y-86742680D01*
X165252759Y-86585637D01*
X165452637Y-86385759D01*
X165608000Y-86153241D01*
X165763363Y-86385759D01*
X165963241Y-86585637D01*
X166198273Y-86742680D01*
X166459426Y-86850853D01*
X166736665Y-86906000D01*
X167019335Y-86906000D01*
X167296574Y-86850853D01*
X167557727Y-86742680D01*
X167792759Y-86585637D01*
X167992637Y-86385759D01*
X168148000Y-86153241D01*
X168303363Y-86385759D01*
X168503241Y-86585637D01*
X168738273Y-86742680D01*
X168999426Y-86850853D01*
X169276665Y-86906000D01*
X169559335Y-86906000D01*
X169836574Y-86850853D01*
X170097727Y-86742680D01*
X170332759Y-86585637D01*
X170532637Y-86385759D01*
X170688000Y-86153241D01*
X170843363Y-86385759D01*
X171043241Y-86585637D01*
X171278273Y-86742680D01*
X171539426Y-86850853D01*
X171816665Y-86906000D01*
X172099335Y-86906000D01*
X172376574Y-86850853D01*
X172637727Y-86742680D01*
X172872759Y-86585637D01*
X173072637Y-86385759D01*
X173228000Y-86153241D01*
X173383363Y-86385759D01*
X173583241Y-86585637D01*
X173818273Y-86742680D01*
X174079426Y-86850853D01*
X174356665Y-86906000D01*
X174639335Y-86906000D01*
X174916574Y-86850853D01*
X175177727Y-86742680D01*
X175412759Y-86585637D01*
X175612637Y-86385759D01*
X175768000Y-86153241D01*
X175923363Y-86385759D01*
X176123241Y-86585637D01*
X176358273Y-86742680D01*
X176619426Y-86850853D01*
X176896665Y-86906000D01*
X177179335Y-86906000D01*
X177456574Y-86850853D01*
X177717727Y-86742680D01*
X177952759Y-86585637D01*
X178152637Y-86385759D01*
X178308000Y-86153241D01*
X178463363Y-86385759D01*
X178663241Y-86585637D01*
X178898273Y-86742680D01*
X179159426Y-86850853D01*
X179436665Y-86906000D01*
X179719335Y-86906000D01*
X179996574Y-86850853D01*
X180257727Y-86742680D01*
X180492759Y-86585637D01*
X180692637Y-86385759D01*
X180848000Y-86153241D01*
X181003363Y-86385759D01*
X181203241Y-86585637D01*
X181438273Y-86742680D01*
X181699426Y-86850853D01*
X181976665Y-86906000D01*
X182259335Y-86906000D01*
X182536574Y-86850853D01*
X182797727Y-86742680D01*
X182882001Y-86686370D01*
X182882001Y-88712197D01*
X179901887Y-91692312D01*
X179719335Y-91656000D01*
X179436665Y-91656000D01*
X179159426Y-91711147D01*
X178898273Y-91819320D01*
X178663241Y-91976363D01*
X178463363Y-92176241D01*
X178308000Y-92408759D01*
X178152637Y-92176241D01*
X177952759Y-91976363D01*
X177717727Y-91819320D01*
X177456574Y-91711147D01*
X177179335Y-91656000D01*
X176896665Y-91656000D01*
X176619426Y-91711147D01*
X176358273Y-91819320D01*
X176297038Y-91860236D01*
X175884825Y-91448024D01*
X175861023Y-91419021D01*
X175745298Y-91324048D01*
X175613269Y-91253476D01*
X175470008Y-91210019D01*
X175358355Y-91199022D01*
X175358344Y-91199022D01*
X175321022Y-91195346D01*
X175283700Y-91199022D01*
X173127303Y-91199022D01*
X173089978Y-91195346D01*
X173052653Y-91199022D01*
X173052645Y-91199022D01*
X172940992Y-91210019D01*
X172797731Y-91253476D01*
X172665702Y-91324048D01*
X172549977Y-91419021D01*
X172526179Y-91448019D01*
X172281886Y-91692312D01*
X172099335Y-91656000D01*
X171816665Y-91656000D01*
X171539426Y-91711147D01*
X171278273Y-91819320D01*
X171043241Y-91976363D01*
X170843363Y-92176241D01*
X170688000Y-92408759D01*
X170532637Y-92176241D01*
X170332759Y-91976363D01*
X170097727Y-91819320D01*
X169836574Y-91711147D01*
X169559335Y-91656000D01*
X169276665Y-91656000D01*
X168999426Y-91711147D01*
X168738273Y-91819320D01*
X168503241Y-91976363D01*
X168303363Y-92176241D01*
X168148000Y-92408759D01*
X167992637Y-92176241D01*
X167792759Y-91976363D01*
X167557727Y-91819320D01*
X167296574Y-91711147D01*
X167019335Y-91656000D01*
X166736665Y-91656000D01*
X166459426Y-91711147D01*
X166198273Y-91819320D01*
X165963241Y-91976363D01*
X165764643Y-92174961D01*
X165763812Y-92166518D01*
X165727502Y-92046820D01*
X165668537Y-91936506D01*
X165589185Y-91839815D01*
X165492494Y-91760463D01*
X165382180Y-91701498D01*
X165262482Y-91665188D01*
X165138000Y-91652928D01*
X164623750Y-91656000D01*
X164465000Y-91814750D01*
X164465000Y-92964000D01*
X164485000Y-92964000D01*
X164485000Y-93218000D01*
X164465000Y-93218000D01*
X164465000Y-94367250D01*
X164623750Y-94526000D01*
X165138000Y-94529072D01*
X165262482Y-94516812D01*
X165382180Y-94480502D01*
X165492494Y-94421537D01*
X165589185Y-94342185D01*
X165668537Y-94245494D01*
X165727502Y-94135180D01*
X165763812Y-94015482D01*
X165764643Y-94007039D01*
X165963241Y-94205637D01*
X166198273Y-94362680D01*
X166459426Y-94470853D01*
X166736665Y-94526000D01*
X167019335Y-94526000D01*
X167201886Y-94489688D01*
X169334880Y-96622682D01*
X169126426Y-96664147D01*
X168865273Y-96772320D01*
X168630241Y-96929363D01*
X168430363Y-97129241D01*
X168275000Y-97361759D01*
X168119637Y-97129241D01*
X167919759Y-96929363D01*
X167684727Y-96772320D01*
X167423574Y-96664147D01*
X167146335Y-96609000D01*
X166863665Y-96609000D01*
X166586426Y-96664147D01*
X166325273Y-96772320D01*
X166090241Y-96929363D01*
X165890363Y-97129241D01*
X165735000Y-97361759D01*
X165579637Y-97129241D01*
X165379759Y-96929363D01*
X165144727Y-96772320D01*
X164883574Y-96664147D01*
X164606335Y-96609000D01*
X164323665Y-96609000D01*
X164046426Y-96664147D01*
X163785273Y-96772320D01*
X163550241Y-96929363D01*
X163350363Y-97129241D01*
X163193320Y-97364273D01*
X163085147Y-97625426D01*
X163030000Y-97902665D01*
X163030000Y-98185335D01*
X163085147Y-98462574D01*
X163193320Y-98723727D01*
X163350363Y-98958759D01*
X163550241Y-99158637D01*
X163785273Y-99315680D01*
X164046426Y-99423853D01*
X164323665Y-99479000D01*
X164606335Y-99479000D01*
X164883574Y-99423853D01*
X165144727Y-99315680D01*
X165379759Y-99158637D01*
X165579637Y-98958759D01*
X165735000Y-98726241D01*
X165890363Y-98958759D01*
X166090241Y-99158637D01*
X166325273Y-99315680D01*
X166586426Y-99423853D01*
X166863665Y-99479000D01*
X167146335Y-99479000D01*
X167423574Y-99423853D01*
X167684727Y-99315680D01*
X167919759Y-99158637D01*
X168119637Y-98958759D01*
X168275000Y-98726241D01*
X168430363Y-98958759D01*
X168630241Y-99158637D01*
X168865273Y-99315680D01*
X169126426Y-99423853D01*
X169403665Y-99479000D01*
X169686335Y-99479000D01*
X169963574Y-99423853D01*
X170224727Y-99315680D01*
X170459759Y-99158637D01*
X170659637Y-98958759D01*
X170816680Y-98723727D01*
X170821067Y-98713135D01*
X170932615Y-98899131D01*
X171121586Y-99107519D01*
X171347580Y-99275037D01*
X171601913Y-99395246D01*
X171735961Y-99435904D01*
X171958000Y-99313915D01*
X171958000Y-98171000D01*
X171938000Y-98171000D01*
X171938000Y-97917000D01*
X171958000Y-97917000D01*
X171958000Y-97897000D01*
X172212000Y-97897000D01*
X172212000Y-97917000D01*
X172232000Y-97917000D01*
X172232000Y-98171000D01*
X172212000Y-98171000D01*
X172212000Y-99313915D01*
X172434039Y-99435904D01*
X172568087Y-99395246D01*
X172822420Y-99275037D01*
X173048414Y-99107519D01*
X173237385Y-98899131D01*
X173348933Y-98713135D01*
X173353320Y-98723727D01*
X173510363Y-98958759D01*
X173710241Y-99158637D01*
X173945273Y-99315680D01*
X174206426Y-99423853D01*
X174483665Y-99479000D01*
X174766335Y-99479000D01*
X175043574Y-99423853D01*
X175304727Y-99315680D01*
X175539759Y-99158637D01*
X175739637Y-98958759D01*
X175895000Y-98726241D01*
X176050363Y-98958759D01*
X176250241Y-99158637D01*
X176485273Y-99315680D01*
X176746426Y-99423853D01*
X177023665Y-99479000D01*
X177306335Y-99479000D01*
X177583574Y-99423853D01*
X177844727Y-99315680D01*
X178079759Y-99158637D01*
X178279637Y-98958759D01*
X178435000Y-98726241D01*
X178590363Y-98958759D01*
X178790241Y-99158637D01*
X179025273Y-99315680D01*
X179286426Y-99423853D01*
X179563665Y-99479000D01*
X179846335Y-99479000D01*
X180028886Y-99442688D01*
X181046201Y-100460003D01*
X181069999Y-100489001D01*
X181185724Y-100583974D01*
X181317753Y-100654546D01*
X181461014Y-100698003D01*
X181572667Y-100709000D01*
X181572677Y-100709000D01*
X181610000Y-100712676D01*
X181647323Y-100709000D01*
X188430678Y-100709000D01*
X188468000Y-100712676D01*
X188505322Y-100709000D01*
X188505333Y-100709000D01*
X188616986Y-100698003D01*
X188760247Y-100654546D01*
X188892276Y-100583974D01*
X189008001Y-100489001D01*
X189031804Y-100459997D01*
X199196802Y-90295000D01*
X199733678Y-90295000D01*
X199771000Y-90298676D01*
X199808322Y-90295000D01*
X199808333Y-90295000D01*
X199919986Y-90284003D01*
X200063247Y-90240546D01*
X200195276Y-90169974D01*
X200311001Y-90075001D01*
X200334803Y-90045998D01*
X200917004Y-89463798D01*
X200946001Y-89440001D01*
X201040974Y-89324276D01*
X201111546Y-89192247D01*
X201155003Y-89048986D01*
X201156761Y-89031133D01*
X201319913Y-89108246D01*
X201453961Y-89148904D01*
X201676000Y-89026915D01*
X201676000Y-87884000D01*
X201930000Y-87884000D01*
X201930000Y-89026915D01*
X202152039Y-89148904D01*
X202286087Y-89108246D01*
X202540420Y-88988037D01*
X202766414Y-88820519D01*
X202955385Y-88612131D01*
X203073000Y-88416018D01*
X203190615Y-88612131D01*
X203379586Y-88820519D01*
X203605580Y-88988037D01*
X203859913Y-89108246D01*
X203993961Y-89148904D01*
X204216000Y-89026915D01*
X204216000Y-87884000D01*
X201930000Y-87884000D01*
X201676000Y-87884000D01*
X201656000Y-87884000D01*
X201656000Y-87630000D01*
X201676000Y-87630000D01*
X201676000Y-86487085D01*
X201930000Y-86487085D01*
X201930000Y-87630000D01*
X204216000Y-87630000D01*
X204216000Y-86487085D01*
X204470000Y-86487085D01*
X204470000Y-87630000D01*
X204490000Y-87630000D01*
X204490000Y-87884000D01*
X204470000Y-87884000D01*
X204470000Y-89026915D01*
X204692039Y-89148904D01*
X204826087Y-89108246D01*
X205080420Y-88988037D01*
X205306414Y-88820519D01*
X205495385Y-88612131D01*
X205606933Y-88426135D01*
X205611320Y-88436727D01*
X205768363Y-88671759D01*
X205968241Y-88871637D01*
X206203273Y-89028680D01*
X206464426Y-89136853D01*
X206741665Y-89192000D01*
X207024335Y-89192000D01*
X207301574Y-89136853D01*
X207562727Y-89028680D01*
X207797759Y-88871637D01*
X207997637Y-88671759D01*
X208154680Y-88436727D01*
X208159067Y-88426135D01*
X208270615Y-88612131D01*
X208459586Y-88820519D01*
X208685580Y-88988037D01*
X208939913Y-89108246D01*
X209073961Y-89148904D01*
X209296000Y-89026915D01*
X209296000Y-87884000D01*
X209276000Y-87884000D01*
X209276000Y-87630000D01*
X209296000Y-87630000D01*
X209296000Y-86487085D01*
X209550000Y-86487085D01*
X209550000Y-87630000D01*
X209570000Y-87630000D01*
X209570000Y-87884000D01*
X209550000Y-87884000D01*
X209550000Y-89026915D01*
X209772039Y-89148904D01*
X209906087Y-89108246D01*
X210160420Y-88988037D01*
X210386414Y-88820519D01*
X210575385Y-88612131D01*
X210686933Y-88426135D01*
X210691320Y-88436727D01*
X210848363Y-88671759D01*
X211048241Y-88871637D01*
X211283273Y-89028680D01*
X211544426Y-89136853D01*
X211821665Y-89192000D01*
X212104335Y-89192000D01*
X212381574Y-89136853D01*
X212642727Y-89028680D01*
X212877759Y-88871637D01*
X213077637Y-88671759D01*
X213233000Y-88439241D01*
X213388363Y-88671759D01*
X213588241Y-88871637D01*
X213823273Y-89028680D01*
X214084426Y-89136853D01*
X214361665Y-89192000D01*
X214644335Y-89192000D01*
X214921574Y-89136853D01*
X215182727Y-89028680D01*
X215417759Y-88871637D01*
X215617637Y-88671759D01*
X215773000Y-88439241D01*
X215928363Y-88671759D01*
X216128241Y-88871637D01*
X216363273Y-89028680D01*
X216624426Y-89136853D01*
X216901665Y-89192000D01*
X217184335Y-89192000D01*
X217461574Y-89136853D01*
X217722727Y-89028680D01*
X217957759Y-88871637D01*
X218157637Y-88671759D01*
X218313000Y-88439241D01*
X218468363Y-88671759D01*
X218668241Y-88871637D01*
X218903273Y-89028680D01*
X219164426Y-89136853D01*
X219441665Y-89192000D01*
X219724335Y-89192000D01*
X220001574Y-89136853D01*
X220262727Y-89028680D01*
X220497759Y-88871637D01*
X220697637Y-88671759D01*
X220853000Y-88439241D01*
X221008363Y-88671759D01*
X221208241Y-88871637D01*
X221443273Y-89028680D01*
X221704426Y-89136853D01*
X221981665Y-89192000D01*
X222264335Y-89192000D01*
X222541574Y-89136853D01*
X222802727Y-89028680D01*
X223037759Y-88871637D01*
X223237637Y-88671759D01*
X223394680Y-88436727D01*
X223502853Y-88175574D01*
X223558000Y-87898335D01*
X223558000Y-87615665D01*
X223502853Y-87338426D01*
X223394680Y-87077273D01*
X223237637Y-86842241D01*
X223037759Y-86642363D01*
X222802727Y-86485320D01*
X222541574Y-86377147D01*
X222264335Y-86322000D01*
X221981665Y-86322000D01*
X221704426Y-86377147D01*
X221443273Y-86485320D01*
X221208241Y-86642363D01*
X221008363Y-86842241D01*
X220853000Y-87074759D01*
X220697637Y-86842241D01*
X220497759Y-86642363D01*
X220262727Y-86485320D01*
X220001574Y-86377147D01*
X219724335Y-86322000D01*
X219441665Y-86322000D01*
X219164426Y-86377147D01*
X218903273Y-86485320D01*
X218668241Y-86642363D01*
X218468363Y-86842241D01*
X218313000Y-87074759D01*
X218157637Y-86842241D01*
X217957759Y-86642363D01*
X217722727Y-86485320D01*
X217461574Y-86377147D01*
X217184335Y-86322000D01*
X216901665Y-86322000D01*
X216624426Y-86377147D01*
X216363273Y-86485320D01*
X216128241Y-86642363D01*
X215928363Y-86842241D01*
X215773000Y-87074759D01*
X215617637Y-86842241D01*
X215417759Y-86642363D01*
X215182727Y-86485320D01*
X214921574Y-86377147D01*
X214644335Y-86322000D01*
X214361665Y-86322000D01*
X214084426Y-86377147D01*
X213823273Y-86485320D01*
X213588241Y-86642363D01*
X213388363Y-86842241D01*
X213233000Y-87074759D01*
X213077637Y-86842241D01*
X212877759Y-86642363D01*
X212642727Y-86485320D01*
X212381574Y-86377147D01*
X212104335Y-86322000D01*
X211821665Y-86322000D01*
X211544426Y-86377147D01*
X211283273Y-86485320D01*
X211048241Y-86642363D01*
X210848363Y-86842241D01*
X210691320Y-87077273D01*
X210686933Y-87087865D01*
X210575385Y-86901869D01*
X210386414Y-86693481D01*
X210160420Y-86525963D01*
X209906087Y-86405754D01*
X209772039Y-86365096D01*
X209550000Y-86487085D01*
X209296000Y-86487085D01*
X209073961Y-86365096D01*
X208939913Y-86405754D01*
X208685580Y-86525963D01*
X208459586Y-86693481D01*
X208270615Y-86901869D01*
X208159067Y-87087865D01*
X208154680Y-87077273D01*
X207997637Y-86842241D01*
X207797759Y-86642363D01*
X207562727Y-86485320D01*
X207301574Y-86377147D01*
X207024335Y-86322000D01*
X206741665Y-86322000D01*
X206464426Y-86377147D01*
X206203273Y-86485320D01*
X205968241Y-86642363D01*
X205768363Y-86842241D01*
X205611320Y-87077273D01*
X205606933Y-87087865D01*
X205495385Y-86901869D01*
X205306414Y-86693481D01*
X205080420Y-86525963D01*
X204826087Y-86405754D01*
X204692039Y-86365096D01*
X204470000Y-86487085D01*
X204216000Y-86487085D01*
X203993961Y-86365096D01*
X203859913Y-86405754D01*
X203605580Y-86525963D01*
X203379586Y-86693481D01*
X203190615Y-86901869D01*
X203073000Y-87097982D01*
X202955385Y-86901869D01*
X202766414Y-86693481D01*
X202540420Y-86525963D01*
X202286087Y-86405754D01*
X202152039Y-86365096D01*
X201930000Y-86487085D01*
X201676000Y-86487085D01*
X201453961Y-86365096D01*
X201319913Y-86405754D01*
X201065580Y-86525963D01*
X201027441Y-86554233D01*
X200969799Y-86483997D01*
X200946001Y-86454999D01*
X200917003Y-86431201D01*
X200774791Y-86288989D01*
X207237691Y-86288989D01*
X207275013Y-86292665D01*
X207312335Y-86288989D01*
X207312346Y-86288989D01*
X207423999Y-86277992D01*
X207567260Y-86234535D01*
X207699289Y-86163963D01*
X207815014Y-86068990D01*
X207838817Y-86039986D01*
X213307004Y-80571800D01*
X213336002Y-80548002D01*
X213362333Y-80515918D01*
X213430975Y-80432278D01*
X213501547Y-80300248D01*
X213508133Y-80278537D01*
X213535409Y-80188618D01*
X213711806Y-80282904D01*
X213975141Y-80362786D01*
X214249000Y-80389759D01*
X214522860Y-80362786D01*
X214786195Y-80282904D01*
X215028887Y-80153183D01*
X215241608Y-79978608D01*
X215416183Y-79765887D01*
X215519000Y-79573529D01*
X215621817Y-79765887D01*
X215796393Y-79978608D01*
X216009114Y-80153183D01*
X216251806Y-80282904D01*
X216515141Y-80362786D01*
X216789000Y-80389759D01*
X217062860Y-80362786D01*
X217326195Y-80282904D01*
X217568887Y-80153183D01*
X217781608Y-79978608D01*
X217956183Y-79765887D01*
X218059000Y-79573529D01*
X218161817Y-79765887D01*
X218336393Y-79978608D01*
X218549114Y-80153183D01*
X218791806Y-80282904D01*
X219055141Y-80362786D01*
X219329000Y-80389759D01*
X219602860Y-80362786D01*
X219866195Y-80282904D01*
X220108887Y-80153183D01*
X220321608Y-79978608D01*
X220496183Y-79765887D01*
X220599000Y-79573529D01*
X220701817Y-79765887D01*
X220876393Y-79978608D01*
X221089114Y-80153183D01*
X221331806Y-80282904D01*
X221595141Y-80362786D01*
X221869000Y-80389759D01*
X222142860Y-80362786D01*
X222406195Y-80282904D01*
X222648887Y-80153183D01*
X222861608Y-79978608D01*
X223036183Y-79765887D01*
X223165904Y-79523195D01*
X223245786Y-79259860D01*
X223266000Y-79054625D01*
X223266000Y-77917375D01*
X223245786Y-77712140D01*
X223165904Y-77448805D01*
X223036183Y-77206113D01*
X222861607Y-76993392D01*
X222648886Y-76818817D01*
X222406194Y-76689096D01*
X222142859Y-76609214D01*
X221869000Y-76582241D01*
X221595140Y-76609214D01*
X221331805Y-76689096D01*
X221089113Y-76818817D01*
X220876392Y-76993393D01*
X220701817Y-77206114D01*
X220599000Y-77398471D01*
X220496183Y-77206113D01*
X220321607Y-76993392D01*
X220108886Y-76818817D01*
X219866194Y-76689096D01*
X219602859Y-76609214D01*
X219329000Y-76582241D01*
X219055140Y-76609214D01*
X218791805Y-76689096D01*
X218549113Y-76818817D01*
X218336392Y-76993393D01*
X218161817Y-77206114D01*
X218059000Y-77398471D01*
X217956183Y-77206113D01*
X217781607Y-76993392D01*
X217568886Y-76818817D01*
X217326194Y-76689096D01*
X217062859Y-76609214D01*
X216789000Y-76582241D01*
X216515140Y-76609214D01*
X216251805Y-76689096D01*
X216009113Y-76818817D01*
X215796392Y-76993393D01*
X215621817Y-77206114D01*
X215519000Y-77398471D01*
X215416183Y-77206113D01*
X215241607Y-76993392D01*
X215028886Y-76818817D01*
X214786194Y-76689096D01*
X214522859Y-76609214D01*
X214252241Y-76582560D01*
X223467013Y-67367789D01*
X223496011Y-67343991D01*
X223590984Y-67228266D01*
X223661556Y-67096237D01*
X223705013Y-66952976D01*
X223716010Y-66841323D01*
X223719687Y-66803990D01*
X223716010Y-66766657D01*
X223716010Y-62333069D01*
X223719686Y-62295746D01*
X223716010Y-62258423D01*
X223716010Y-62258413D01*
X223705013Y-62146760D01*
X223661556Y-62003499D01*
X223641573Y-61966114D01*
X223590984Y-61871469D01*
X223519809Y-61784743D01*
X223496011Y-61755745D01*
X223467014Y-61731948D01*
X222883057Y-61147992D01*
X222859255Y-61118989D01*
X222743530Y-61024016D01*
X222611501Y-60953444D01*
X222468240Y-60909987D01*
X222356587Y-60898990D01*
X222356576Y-60898990D01*
X222319254Y-60895314D01*
X222281932Y-60898990D01*
X221456069Y-60898990D01*
X221418746Y-60895314D01*
X221381423Y-60898990D01*
X221381413Y-60898990D01*
X221269760Y-60909987D01*
X221126499Y-60953444D01*
X220994469Y-61024016D01*
X220956717Y-61054999D01*
X220878745Y-61118989D01*
X220854946Y-61147988D01*
X220282026Y-61720909D01*
X220108886Y-61578817D01*
X220089000Y-61568188D01*
X220089000Y-61378325D01*
X220092676Y-61341000D01*
X220089000Y-61303675D01*
X220089000Y-61303667D01*
X220078003Y-61192014D01*
X220034546Y-61048753D01*
X219963974Y-60916724D01*
X219869001Y-60800999D01*
X219840004Y-60777202D01*
X219130803Y-60068002D01*
X219107001Y-60038999D01*
X218991276Y-59944026D01*
X218859247Y-59873454D01*
X218715986Y-59829997D01*
X218604333Y-59819000D01*
X218604322Y-59819000D01*
X218567000Y-59815324D01*
X218529678Y-59819000D01*
X208592572Y-59819000D01*
X208592572Y-56249000D01*
X204665429Y-56249000D01*
X204665429Y-59822063D01*
X204634333Y-59819000D01*
X204634322Y-59819000D01*
X204597000Y-59815324D01*
X204559678Y-59819000D01*
X193458322Y-59819000D01*
X193420999Y-59815324D01*
X193383676Y-59819000D01*
X193383667Y-59819000D01*
X193272014Y-59829997D01*
X193128753Y-59873454D01*
X192996724Y-59944026D01*
X192996722Y-59944027D01*
X192996723Y-59944027D01*
X192909996Y-60015201D01*
X192909992Y-60015205D01*
X192880999Y-60038999D01*
X192857205Y-60067992D01*
X192151000Y-60774198D01*
X191444804Y-60068002D01*
X191421001Y-60038999D01*
X191305276Y-59944026D01*
X191173247Y-59873454D01*
X191029986Y-59829997D01*
X190918333Y-59819000D01*
X190918322Y-59819000D01*
X190881000Y-59815324D01*
X190843678Y-59819000D01*
X179996333Y-59819000D01*
X179959000Y-59815323D01*
X179921667Y-59819000D01*
X179810014Y-59829997D01*
X179666753Y-59873454D01*
X179534724Y-59944026D01*
X179418999Y-60038999D01*
X179395201Y-60067997D01*
X178100523Y-61362676D01*
X178034140Y-61369214D01*
X177770805Y-61449096D01*
X177528113Y-61578817D01*
X177315392Y-61753393D01*
X177140817Y-61966114D01*
X177038000Y-62158471D01*
X176935183Y-61966113D01*
X176760607Y-61753392D01*
X176547886Y-61578817D01*
X176305194Y-61449096D01*
X176041859Y-61369214D01*
X175768000Y-61342241D01*
X175494140Y-61369214D01*
X175230805Y-61449096D01*
X174988113Y-61578817D01*
X174775392Y-61753393D01*
X174600817Y-61966114D01*
X174498000Y-62158471D01*
X174395183Y-61966113D01*
X174220607Y-61753392D01*
X174007886Y-61578817D01*
X173765194Y-61449096D01*
X173501859Y-61369214D01*
X173228000Y-61342241D01*
X172954140Y-61369214D01*
X172690805Y-61449096D01*
X172448113Y-61578817D01*
X172235392Y-61753393D01*
X172060817Y-61966114D01*
X171958000Y-62158471D01*
X171855183Y-61966113D01*
X171680607Y-61753392D01*
X171467886Y-61578817D01*
X171225194Y-61449096D01*
X170961859Y-61369214D01*
X170688000Y-61342241D01*
X170414140Y-61369214D01*
X170150805Y-61449096D01*
X169908113Y-61578817D01*
X169695392Y-61753393D01*
X169520817Y-61966114D01*
X169391096Y-62208806D01*
X169311214Y-62472141D01*
X169291000Y-62677376D01*
X169291000Y-63814625D01*
X169311214Y-64019860D01*
X169391096Y-64283195D01*
X169520817Y-64525887D01*
X169695393Y-64738608D01*
X169908114Y-64913183D01*
X170150806Y-65042904D01*
X170414141Y-65122786D01*
X170688000Y-65149759D01*
X170961860Y-65122786D01*
X171225195Y-65042904D01*
X171467887Y-64913183D01*
X171680608Y-64738608D01*
X171855183Y-64525887D01*
X171958000Y-64333529D01*
X172060817Y-64525887D01*
X172235393Y-64738608D01*
X172448114Y-64913183D01*
X172690806Y-65042904D01*
X172954141Y-65122786D01*
X173228000Y-65149759D01*
X173501860Y-65122786D01*
X173765195Y-65042904D01*
X174007887Y-64913183D01*
X174220608Y-64738608D01*
X174395183Y-64525887D01*
X174498000Y-64333529D01*
X174600817Y-64525887D01*
X174775393Y-64738608D01*
X174988114Y-64913183D01*
X175230806Y-65042904D01*
X175494141Y-65122786D01*
X175768000Y-65149759D01*
X176041860Y-65122786D01*
X176305195Y-65042904D01*
X176547887Y-64913183D01*
X176760608Y-64738608D01*
X176935183Y-64525887D01*
X177038000Y-64333529D01*
X177140817Y-64525887D01*
X177315393Y-64738608D01*
X177528114Y-64913183D01*
X177770806Y-65042904D01*
X178034141Y-65122786D01*
X178308000Y-65149759D01*
X178581860Y-65122786D01*
X178845195Y-65042904D01*
X179087887Y-64913183D01*
X179300608Y-64738608D01*
X179475183Y-64525887D01*
X179578000Y-64333529D01*
X179680817Y-64525887D01*
X179855393Y-64738608D01*
X180068114Y-64913183D01*
X180088000Y-64923812D01*
X180088001Y-68011197D01*
X171507598Y-76591601D01*
X171450000Y-76585928D01*
X169926000Y-76585928D01*
X169801518Y-76598188D01*
X169681820Y-76634498D01*
X169571506Y-76693463D01*
X169474815Y-76772815D01*
X169395463Y-76869506D01*
X169336498Y-76979820D01*
X169300188Y-77099518D01*
X169287928Y-77224000D01*
X169287928Y-79748000D01*
X169300188Y-79872482D01*
X169336498Y-79992180D01*
X169395463Y-80102494D01*
X169474815Y-80199185D01*
X169571506Y-80278537D01*
X169681820Y-80337502D01*
X169801518Y-80373812D01*
X169926000Y-80386072D01*
X171450000Y-80386072D01*
X171507598Y-80380399D01*
X174823200Y-83696002D01*
X174846999Y-83725001D01*
X174875997Y-83748799D01*
X174962724Y-83819974D01*
X175094753Y-83890546D01*
X175238014Y-83934003D01*
X175387000Y-83948677D01*
X175424333Y-83945000D01*
X182184199Y-83945000D01*
X182279138Y-84039939D01*
X182259335Y-84036000D01*
X181976665Y-84036000D01*
X181699426Y-84091147D01*
X181438273Y-84199320D01*
X181203241Y-84356363D01*
X181003363Y-84556241D01*
X180848000Y-84788759D01*
X180692637Y-84556241D01*
X180492759Y-84356363D01*
X180257727Y-84199320D01*
X179996574Y-84091147D01*
X179719335Y-84036000D01*
X179436665Y-84036000D01*
X179159426Y-84091147D01*
X178898273Y-84199320D01*
X178663241Y-84356363D01*
X178463363Y-84556241D01*
X178308000Y-84788759D01*
X178152637Y-84556241D01*
X177952759Y-84356363D01*
X177717727Y-84199320D01*
X177456574Y-84091147D01*
X177179335Y-84036000D01*
X176896665Y-84036000D01*
X176619426Y-84091147D01*
X176358273Y-84199320D01*
X176123241Y-84356363D01*
X175923363Y-84556241D01*
X175768000Y-84788759D01*
X175612637Y-84556241D01*
X175412759Y-84356363D01*
X175177727Y-84199320D01*
X174916574Y-84091147D01*
X174639335Y-84036000D01*
X174356665Y-84036000D01*
X174079426Y-84091147D01*
X173818273Y-84199320D01*
X173583241Y-84356363D01*
X173383363Y-84556241D01*
X173228000Y-84788759D01*
X173072637Y-84556241D01*
X172872759Y-84356363D01*
X172637727Y-84199320D01*
X172376574Y-84091147D01*
X172099335Y-84036000D01*
X171816665Y-84036000D01*
X171539426Y-84091147D01*
X171278273Y-84199320D01*
X171043241Y-84356363D01*
X170843363Y-84556241D01*
X170688000Y-84788759D01*
X170532637Y-84556241D01*
X170332759Y-84356363D01*
X170097727Y-84199320D01*
X169836574Y-84091147D01*
X169559335Y-84036000D01*
X169276665Y-84036000D01*
X168999426Y-84091147D01*
X168738273Y-84199320D01*
X168503241Y-84356363D01*
X168303363Y-84556241D01*
X168148000Y-84788759D01*
X167992637Y-84556241D01*
X167792759Y-84356363D01*
X167557727Y-84199320D01*
X167296574Y-84091147D01*
X167019335Y-84036000D01*
X166736665Y-84036000D01*
X166459426Y-84091147D01*
X166198273Y-84199320D01*
X165963241Y-84356363D01*
X165763363Y-84556241D01*
X165608000Y-84788759D01*
X165452637Y-84556241D01*
X165252759Y-84356363D01*
X165017727Y-84199320D01*
X164756574Y-84091147D01*
X164479335Y-84036000D01*
X164196665Y-84036000D01*
X163919426Y-84091147D01*
X163658273Y-84199320D01*
X163423241Y-84356363D01*
X163223363Y-84556241D01*
X163066320Y-84791273D01*
X162958147Y-85052426D01*
X162903000Y-85329665D01*
X159399269Y-85329665D01*
X159386680Y-85299273D01*
X159229637Y-85064241D01*
X159029759Y-84864363D01*
X158794727Y-84707320D01*
X158533574Y-84599147D01*
X158256335Y-84544000D01*
X157973665Y-84544000D01*
X157696426Y-84599147D01*
X157435273Y-84707320D01*
X157200241Y-84864363D01*
X157000363Y-85064241D01*
X156843320Y-85299273D01*
X156735147Y-85560426D01*
X156680000Y-85837665D01*
X149021000Y-85837665D01*
X149021000Y-82272702D01*
X158397903Y-82272702D01*
X158469486Y-82516671D01*
X158724996Y-82637571D01*
X158999184Y-82706300D01*
X159281512Y-82720217D01*
X159561130Y-82678787D01*
X159827292Y-82583603D01*
X159952514Y-82516671D01*
X160024097Y-82272702D01*
X159211000Y-81459605D01*
X158397903Y-82272702D01*
X149021000Y-82272702D01*
X149021000Y-81350512D01*
X157770783Y-81350512D01*
X157812213Y-81630130D01*
X157907397Y-81896292D01*
X157974329Y-82021514D01*
X158218298Y-82093097D01*
X159031395Y-81280000D01*
X159390605Y-81280000D01*
X160203702Y-82093097D01*
X160447671Y-82021514D01*
X160568571Y-81766004D01*
X160637300Y-81491816D01*
X160651217Y-81209488D01*
X160640724Y-81138665D01*
X162776000Y-81138665D01*
X162776000Y-81421335D01*
X162831147Y-81698574D01*
X162939320Y-81959727D01*
X163096363Y-82194759D01*
X163296241Y-82394637D01*
X163531273Y-82551680D01*
X163792426Y-82659853D01*
X164069665Y-82715000D01*
X164352335Y-82715000D01*
X164629574Y-82659853D01*
X164890727Y-82551680D01*
X165125759Y-82394637D01*
X165325637Y-82194759D01*
X165482680Y-81959727D01*
X165590853Y-81698574D01*
X165646000Y-81421335D01*
X165646000Y-81138665D01*
X165590853Y-80861426D01*
X165482680Y-80600273D01*
X165325637Y-80365241D01*
X165125759Y-80165363D01*
X164890727Y-80008320D01*
X164629574Y-79900147D01*
X164352335Y-79845000D01*
X164069665Y-79845000D01*
X163792426Y-79900147D01*
X163531273Y-80008320D01*
X163296241Y-80165363D01*
X163096363Y-80365241D01*
X162939320Y-80600273D01*
X162831147Y-80861426D01*
X162776000Y-81138665D01*
X160640724Y-81138665D01*
X160609787Y-80929870D01*
X160514603Y-80663708D01*
X160447671Y-80538486D01*
X160203702Y-80466903D01*
X159390605Y-81280000D01*
X159031395Y-81280000D01*
X158218298Y-80466903D01*
X157974329Y-80538486D01*
X157853429Y-80793996D01*
X157784700Y-81068184D01*
X157770783Y-81350512D01*
X149021000Y-81350512D01*
X149021000Y-80287298D01*
X158397903Y-80287298D01*
X159211000Y-81100395D01*
X160024097Y-80287298D01*
X159952514Y-80043329D01*
X159697004Y-79922429D01*
X159422816Y-79853700D01*
X159140488Y-79839783D01*
X158860870Y-79881213D01*
X158594708Y-79976397D01*
X158469486Y-80043329D01*
X158397903Y-80287298D01*
X149021000Y-80287298D01*
X149021000Y-68872000D01*
X156295928Y-68872000D01*
X156308188Y-68996482D01*
X156344498Y-69116180D01*
X156403463Y-69226494D01*
X156482815Y-69323185D01*
X156579506Y-69402537D01*
X156689820Y-69461502D01*
X156809518Y-69497812D01*
X156817961Y-69498643D01*
X156619363Y-69697241D01*
X156462320Y-69932273D01*
X156354147Y-70193426D01*
X156299000Y-70470665D01*
X156299000Y-70753335D01*
X156354147Y-71030574D01*
X156462320Y-71291727D01*
X156619363Y-71526759D01*
X156819241Y-71726637D01*
X157051759Y-71882000D01*
X156819241Y-72037363D01*
X156619363Y-72237241D01*
X156462320Y-72472273D01*
X156354147Y-72733426D01*
X156299000Y-73010665D01*
X156299000Y-73293335D01*
X156354147Y-73570574D01*
X156462320Y-73831727D01*
X156619363Y-74066759D01*
X156819241Y-74266637D01*
X157051759Y-74422000D01*
X156819241Y-74577363D01*
X156619363Y-74777241D01*
X156462320Y-75012273D01*
X156354147Y-75273426D01*
X156299000Y-75550665D01*
X156299000Y-75833335D01*
X156354147Y-76110574D01*
X156462320Y-76371727D01*
X156619363Y-76606759D01*
X156819241Y-76806637D01*
X157054273Y-76963680D01*
X157315426Y-77071853D01*
X157592665Y-77127000D01*
X157875335Y-77127000D01*
X158152574Y-77071853D01*
X158413727Y-76963680D01*
X158648759Y-76806637D01*
X158848637Y-76606759D01*
X159005680Y-76371727D01*
X159113853Y-76110574D01*
X159169000Y-75833335D01*
X159169000Y-75550665D01*
X159113853Y-75273426D01*
X159005680Y-75012273D01*
X158848637Y-74777241D01*
X158648759Y-74577363D01*
X158416241Y-74422000D01*
X158648759Y-74266637D01*
X158848637Y-74066759D01*
X159005680Y-73831727D01*
X159113853Y-73570574D01*
X159169000Y-73293335D01*
X159169000Y-73010665D01*
X159113853Y-72733426D01*
X159005680Y-72472273D01*
X158848637Y-72237241D01*
X158648759Y-72037363D01*
X158416241Y-71882000D01*
X158648759Y-71726637D01*
X158848637Y-71526759D01*
X159005680Y-71291727D01*
X159113853Y-71030574D01*
X159169000Y-70753335D01*
X159169000Y-70470665D01*
X159113853Y-70193426D01*
X159005680Y-69932273D01*
X158848637Y-69697241D01*
X158650039Y-69498643D01*
X158658482Y-69497812D01*
X158778180Y-69461502D01*
X158888494Y-69402537D01*
X158985185Y-69323185D01*
X159064537Y-69226494D01*
X159123502Y-69116180D01*
X159159812Y-68996482D01*
X159172072Y-68872000D01*
X159169000Y-68357750D01*
X159010250Y-68199000D01*
X157861000Y-68199000D01*
X157861000Y-68219000D01*
X157607000Y-68219000D01*
X157607000Y-68199000D01*
X156457750Y-68199000D01*
X156299000Y-68357750D01*
X156295928Y-68872000D01*
X149021000Y-68872000D01*
X149021000Y-67272000D01*
X156295928Y-67272000D01*
X156299000Y-67786250D01*
X156457750Y-67945000D01*
X157607000Y-67945000D01*
X157607000Y-66795750D01*
X157861000Y-66795750D01*
X157861000Y-67945000D01*
X159010250Y-67945000D01*
X159024585Y-67930665D01*
X163919000Y-67930665D01*
X163919000Y-68213335D01*
X163974147Y-68490574D01*
X164082320Y-68751727D01*
X164239363Y-68986759D01*
X164439241Y-69186637D01*
X164671759Y-69342000D01*
X164439241Y-69497363D01*
X164239363Y-69697241D01*
X164082320Y-69932273D01*
X163974147Y-70193426D01*
X163919000Y-70470665D01*
X163919000Y-70753335D01*
X163974147Y-71030574D01*
X164082320Y-71291727D01*
X164239363Y-71526759D01*
X164439241Y-71726637D01*
X164671759Y-71882000D01*
X164439241Y-72037363D01*
X164239363Y-72237241D01*
X164082320Y-72472273D01*
X163974147Y-72733426D01*
X163919000Y-73010665D01*
X163919000Y-73293335D01*
X163974147Y-73570574D01*
X164082320Y-73831727D01*
X164239363Y-74066759D01*
X164439241Y-74266637D01*
X164671759Y-74422000D01*
X164439241Y-74577363D01*
X164239363Y-74777241D01*
X164082320Y-75012273D01*
X163974147Y-75273426D01*
X163919000Y-75550665D01*
X163919000Y-75833335D01*
X163974147Y-76110574D01*
X164082320Y-76371727D01*
X164239363Y-76606759D01*
X164439241Y-76806637D01*
X164674273Y-76963680D01*
X164935426Y-77071853D01*
X165212665Y-77127000D01*
X165495335Y-77127000D01*
X165772574Y-77071853D01*
X166033727Y-76963680D01*
X166268759Y-76806637D01*
X166468637Y-76606759D01*
X166625680Y-76371727D01*
X166733853Y-76110574D01*
X166789000Y-75833335D01*
X166789000Y-75550665D01*
X166733853Y-75273426D01*
X166625680Y-75012273D01*
X166468637Y-74777241D01*
X166268759Y-74577363D01*
X166036241Y-74422000D01*
X166268759Y-74266637D01*
X166468637Y-74066759D01*
X166625680Y-73831727D01*
X166733853Y-73570574D01*
X166789000Y-73293335D01*
X166789000Y-73010665D01*
X166733853Y-72733426D01*
X166625680Y-72472273D01*
X166468637Y-72237241D01*
X166268759Y-72037363D01*
X166036241Y-71882000D01*
X166268759Y-71726637D01*
X166468637Y-71526759D01*
X166625680Y-71291727D01*
X166733853Y-71030574D01*
X166789000Y-70753335D01*
X166789000Y-70470665D01*
X166733853Y-70193426D01*
X166625680Y-69932273D01*
X166468637Y-69697241D01*
X166268759Y-69497363D01*
X166036241Y-69342000D01*
X166268759Y-69186637D01*
X166468637Y-68986759D01*
X166625680Y-68751727D01*
X166733853Y-68490574D01*
X166789000Y-68213335D01*
X166789000Y-67930665D01*
X166733853Y-67653426D01*
X166625680Y-67392273D01*
X166468637Y-67157241D01*
X166268759Y-66957363D01*
X166033727Y-66800320D01*
X165772574Y-66692147D01*
X165495335Y-66637000D01*
X165212665Y-66637000D01*
X164935426Y-66692147D01*
X164674273Y-66800320D01*
X164439241Y-66957363D01*
X164239363Y-67157241D01*
X164082320Y-67392273D01*
X163974147Y-67653426D01*
X163919000Y-67930665D01*
X159024585Y-67930665D01*
X159169000Y-67786250D01*
X159172072Y-67272000D01*
X159159812Y-67147518D01*
X159123502Y-67027820D01*
X159064537Y-66917506D01*
X158985185Y-66820815D01*
X158888494Y-66741463D01*
X158778180Y-66682498D01*
X158658482Y-66646188D01*
X158534000Y-66633928D01*
X158019750Y-66637000D01*
X157861000Y-66795750D01*
X157607000Y-66795750D01*
X157448250Y-66637000D01*
X156934000Y-66633928D01*
X156809518Y-66646188D01*
X156689820Y-66682498D01*
X156579506Y-66741463D01*
X156482815Y-66820815D01*
X156403463Y-66917506D01*
X156344498Y-67027820D01*
X156308188Y-67147518D01*
X156295928Y-67272000D01*
X149021000Y-67272000D01*
X149021000Y-63603702D01*
X157682903Y-63603702D01*
X157754486Y-63847671D01*
X158009996Y-63968571D01*
X158284184Y-64037300D01*
X158566512Y-64051217D01*
X158846130Y-64009787D01*
X159112292Y-63914603D01*
X159237514Y-63847671D01*
X159309097Y-63603702D01*
X158496000Y-62790605D01*
X157682903Y-63603702D01*
X149021000Y-63603702D01*
X149021000Y-62681512D01*
X157055783Y-62681512D01*
X157097213Y-62961130D01*
X157192397Y-63227292D01*
X157259329Y-63352514D01*
X157503298Y-63424097D01*
X158316395Y-62611000D01*
X158675605Y-62611000D01*
X159488702Y-63424097D01*
X159732671Y-63352514D01*
X159853571Y-63097004D01*
X159922300Y-62822816D01*
X159936217Y-62540488D01*
X159925724Y-62469665D01*
X162061000Y-62469665D01*
X162061000Y-62752335D01*
X162116147Y-63029574D01*
X162224320Y-63290727D01*
X162381363Y-63525759D01*
X162581241Y-63725637D01*
X162816273Y-63882680D01*
X163077426Y-63990853D01*
X163354665Y-64046000D01*
X163637335Y-64046000D01*
X163914574Y-63990853D01*
X164175727Y-63882680D01*
X164410759Y-63725637D01*
X164610637Y-63525759D01*
X164767680Y-63290727D01*
X164875853Y-63029574D01*
X164931000Y-62752335D01*
X164931000Y-62469665D01*
X164875853Y-62192426D01*
X164767680Y-61931273D01*
X164610637Y-61696241D01*
X164410759Y-61496363D01*
X164175727Y-61339320D01*
X163914574Y-61231147D01*
X163637335Y-61176000D01*
X163354665Y-61176000D01*
X163077426Y-61231147D01*
X162816273Y-61339320D01*
X162581241Y-61496363D01*
X162381363Y-61696241D01*
X162224320Y-61931273D01*
X162116147Y-62192426D01*
X162061000Y-62469665D01*
X159925724Y-62469665D01*
X159894787Y-62260870D01*
X159799603Y-61994708D01*
X159732671Y-61869486D01*
X159488702Y-61797903D01*
X158675605Y-62611000D01*
X158316395Y-62611000D01*
X157503298Y-61797903D01*
X157259329Y-61869486D01*
X157138429Y-62124996D01*
X157069700Y-62399184D01*
X157055783Y-62681512D01*
X149021000Y-62681512D01*
X149021000Y-61618298D01*
X157682903Y-61618298D01*
X158496000Y-62431395D01*
X159309097Y-61618298D01*
X159237514Y-61374329D01*
X158982004Y-61253429D01*
X158707816Y-61184700D01*
X158425488Y-61170783D01*
X158145870Y-61212213D01*
X157879708Y-61307397D01*
X157754486Y-61374329D01*
X157682903Y-61618298D01*
X149021000Y-61618298D01*
X149021000Y-54399721D01*
X150392000Y-54399721D01*
X150392000Y-54820279D01*
X150474047Y-55232756D01*
X150634988Y-55621302D01*
X150868637Y-55970983D01*
X151166017Y-56268363D01*
X151515698Y-56502012D01*
X151904244Y-56662953D01*
X152316721Y-56745000D01*
X152737279Y-56745000D01*
X153149756Y-56662953D01*
X153538302Y-56502012D01*
X153887983Y-56268363D01*
X154185363Y-55970983D01*
X154419012Y-55621302D01*
X154579953Y-55232756D01*
X154662000Y-54820279D01*
X154662000Y-54399721D01*
X225576000Y-54399721D01*
X225576000Y-54820279D01*
X225658047Y-55232756D01*
X225818988Y-55621302D01*
X226052637Y-55970983D01*
X226350017Y-56268363D01*
X226699698Y-56502012D01*
X227088244Y-56662953D01*
X227500721Y-56745000D01*
X227921279Y-56745000D01*
X228333756Y-56662953D01*
X228722302Y-56502012D01*
X229071983Y-56268363D01*
X229369363Y-55970983D01*
X229603012Y-55621302D01*
X229763953Y-55232756D01*
X229846000Y-54820279D01*
X229846000Y-54399721D01*
X229763953Y-53987244D01*
X229603012Y-53598698D01*
X229369363Y-53249017D01*
X229071983Y-52951637D01*
X228722302Y-52717988D01*
X228333756Y-52557047D01*
X227921279Y-52475000D01*
X227500721Y-52475000D01*
X227088244Y-52557047D01*
X226699698Y-52717988D01*
X226350017Y-52951637D01*
X226052637Y-53249017D01*
X225818988Y-53598698D01*
X225658047Y-53987244D01*
X225576000Y-54399721D01*
X154662000Y-54399721D01*
X154579953Y-53987244D01*
X154419012Y-53598698D01*
X154185363Y-53249017D01*
X153887983Y-52951637D01*
X153538302Y-52717988D01*
X153149756Y-52557047D01*
X152737279Y-52475000D01*
X152316721Y-52475000D01*
X151904244Y-52557047D01*
X151515698Y-52717988D01*
X151166017Y-52951637D01*
X150868637Y-53249017D01*
X150634988Y-53598698D01*
X150474047Y-53987244D01*
X150392000Y-54399721D01*
X149021000Y-54399721D01*
X149021000Y-50469000D01*
X231344001Y-50469000D01*
X231344000Y-119457000D01*
G37*
%TD.AperFunction*%
D19*
X198148363Y-88671759D02*
X198348241Y-88871637D01*
X198427657Y-88924701D01*
X198393772Y-88952510D01*
X198341999Y-88994999D01*
X198318201Y-89023997D01*
X188153199Y-99189000D01*
X183114317Y-99189000D01*
X183159759Y-99158637D01*
X183359637Y-98958759D01*
X183516680Y-98723727D01*
X183624853Y-98462574D01*
X183680000Y-98185335D01*
X183680000Y-97902665D01*
X183624853Y-97625426D01*
X183516680Y-97364273D01*
X183359637Y-97129241D01*
X183187385Y-96956989D01*
X189134689Y-96956989D01*
X189172011Y-96960665D01*
X189209333Y-96956989D01*
X189209344Y-96956989D01*
X189320997Y-96945992D01*
X189464258Y-96902535D01*
X189596287Y-96831963D01*
X189712012Y-96736990D01*
X189735815Y-96707986D01*
X197234003Y-89209799D01*
X197263001Y-89186001D01*
X197303336Y-89136853D01*
X197357974Y-89070277D01*
X197373805Y-89040660D01*
X197402727Y-89028680D01*
X197637759Y-88871637D01*
X197837637Y-88671759D01*
X197993000Y-88439241D01*
X198148363Y-88671759D01*
%TA.AperFunction,Conductor*%
D20*
G36*
X198148363Y-88671759D02*
G01*
X198348241Y-88871637D01*
X198427657Y-88924701D01*
X198393772Y-88952510D01*
X198341999Y-88994999D01*
X198318201Y-89023997D01*
X188153199Y-99189000D01*
X183114317Y-99189000D01*
X183159759Y-99158637D01*
X183359637Y-98958759D01*
X183516680Y-98723727D01*
X183624853Y-98462574D01*
X183680000Y-98185335D01*
X183680000Y-97902665D01*
X183624853Y-97625426D01*
X183516680Y-97364273D01*
X183359637Y-97129241D01*
X183187385Y-96956989D01*
X189134689Y-96956989D01*
X189172011Y-96960665D01*
X189209333Y-96956989D01*
X189209344Y-96956989D01*
X189320997Y-96945992D01*
X189464258Y-96902535D01*
X189596287Y-96831963D01*
X189712012Y-96736990D01*
X189735815Y-96707986D01*
X197234003Y-89209799D01*
X197263001Y-89186001D01*
X197303336Y-89136853D01*
X197357974Y-89070277D01*
X197373805Y-89040660D01*
X197402727Y-89028680D01*
X197637759Y-88871637D01*
X197837637Y-88671759D01*
X197993000Y-88439241D01*
X198148363Y-88671759D01*
G37*
%TD.AperFunction*%
D19*
X183517001Y-92963998D02*
X183388625Y-92963998D01*
X183509909Y-92741960D01*
X183415070Y-92477119D01*
X183270385Y-92235869D01*
X183081414Y-92027481D01*
X182855420Y-91859963D01*
X182601087Y-91739754D01*
X182467039Y-91699096D01*
X182245000Y-91821085D01*
X182245000Y-92964000D01*
X182265000Y-92964000D01*
X182265000Y-93218000D01*
X182245000Y-93218000D01*
X182245000Y-93238000D01*
X181991000Y-93238000D01*
X181991000Y-93218000D01*
X181971000Y-93218000D01*
X181971000Y-92964000D01*
X181991000Y-92964000D01*
X181991000Y-91821085D01*
X181946929Y-91796872D01*
X183517001Y-90226801D01*
X183517001Y-92963998D01*
%TA.AperFunction,Conductor*%
D20*
G36*
X183517001Y-92963998D02*
G01*
X183388625Y-92963998D01*
X183509909Y-92741960D01*
X183415070Y-92477119D01*
X183270385Y-92235869D01*
X183081414Y-92027481D01*
X182855420Y-91859963D01*
X182601087Y-91739754D01*
X182467039Y-91699096D01*
X182245000Y-91821085D01*
X182245000Y-92964000D01*
X182265000Y-92964000D01*
X182265000Y-93218000D01*
X182245000Y-93218000D01*
X182245000Y-93238000D01*
X181991000Y-93238000D01*
X181991000Y-93218000D01*
X181971000Y-93218000D01*
X181971000Y-92964000D01*
X181991000Y-92964000D01*
X181991000Y-91821085D01*
X181946929Y-91796872D01*
X183517001Y-90226801D01*
X183517001Y-92963998D01*
G37*
%TD.AperFunction*%
D19*
X194310000Y-87630000D02*
X194330000Y-87630000D01*
X194330000Y-87884000D01*
X194310000Y-87884000D01*
X194310000Y-87904000D01*
X194056000Y-87904000D01*
X194056000Y-87884000D01*
X194036000Y-87884000D01*
X194036000Y-87630000D01*
X194056000Y-87630000D01*
X194056000Y-87610000D01*
X194310000Y-87610000D01*
X194310000Y-87630000D01*
%TA.AperFunction,Conductor*%
D20*
G36*
X194310000Y-87630000D02*
G01*
X194330000Y-87630000D01*
X194330000Y-87884000D01*
X194310000Y-87884000D01*
X194310000Y-87904000D01*
X194056000Y-87904000D01*
X194056000Y-87884000D01*
X194036000Y-87884000D01*
X194036000Y-87630000D01*
X194056000Y-87630000D01*
X194056000Y-87610000D01*
X194310000Y-87610000D01*
X194310000Y-87630000D01*
G37*
%TD.AperFunction*%
D19*
X198148363Y-86842241D02*
X197993000Y-87074759D01*
X197837637Y-86842241D01*
X197734396Y-86739000D01*
X198251604Y-86739000D01*
X198148363Y-86842241D01*
%TA.AperFunction,Conductor*%
D20*
G36*
X198148363Y-86842241D02*
G01*
X197993000Y-87074759D01*
X197837637Y-86842241D01*
X197734396Y-86739000D01*
X198251604Y-86739000D01*
X198148363Y-86842241D01*
G37*
%TD.AperFunction*%
%TD*%
M02*
