%TF.GenerationSoftware,KiCad,Pcbnew,(5.1.10-1-10_14)*%
%TF.CreationDate,2021-12-06T09:36:28-05:00*%
%TF.ProjectId,control-unit,636f6e74-726f-46c2-9d75-6e69742e6b69,rev?*%
%TF.SameCoordinates,Original*%
%TF.FileFunction,Copper,L1,Top*%
%TF.FilePolarity,Positive*%
%FSLAX46Y46*%
G04 Gerber Fmt 4.6, Leading zero omitted, Abs format (unit mm)*
G04 Created by KiCad (PCBNEW (5.1.10-1-10_14)) date 2021-12-06 09:36:28*
%MOMM*%
%LPD*%
G01*
G04 APERTURE LIST*
%TA.AperFunction,ComponentPad*%
%ADD10O,1.700000X1.700000*%
%TD*%
%TA.AperFunction,ComponentPad*%
%ADD11R,1.700000X1.700000*%
%TD*%
%TA.AperFunction,ViaPad*%
%ADD12C,0.800000*%
%TD*%
%TA.AperFunction,Conductor*%
%ADD13C,0.250000*%
%TD*%
G04 APERTURE END LIST*
%TO.P,R10,2*%
%TO.N,GND*%
%TA.AperFunction,SMDPad,CuDef*%
G36*
G01*
X112718001Y-111360000D02*
X111817999Y-111360000D01*
G75*
G02*
X111568000Y-111110001I0J249999D01*
G01*
X111568000Y-110584999D01*
G75*
G02*
X111817999Y-110335000I249999J0D01*
G01*
X112718001Y-110335000D01*
G75*
G02*
X112968000Y-110584999I0J-249999D01*
G01*
X112968000Y-111110001D01*
G75*
G02*
X112718001Y-111360000I-249999J0D01*
G01*
G37*
%TD.AperFunction*%
%TO.P,R10,1*%
%TO.N,Net-(D10-Pad1)*%
%TA.AperFunction,SMDPad,CuDef*%
G36*
G01*
X112718001Y-113185000D02*
X111817999Y-113185000D01*
G75*
G02*
X111568000Y-112935001I0J249999D01*
G01*
X111568000Y-112409999D01*
G75*
G02*
X111817999Y-112160000I249999J0D01*
G01*
X112718001Y-112160000D01*
G75*
G02*
X112968000Y-112409999I0J-249999D01*
G01*
X112968000Y-112935001D01*
G75*
G02*
X112718001Y-113185000I-249999J0D01*
G01*
G37*
%TD.AperFunction*%
%TD*%
%TO.P,R9,2*%
%TO.N,GND*%
%TA.AperFunction,SMDPad,CuDef*%
G36*
G01*
X115004001Y-111360000D02*
X114103999Y-111360000D01*
G75*
G02*
X113854000Y-111110001I0J249999D01*
G01*
X113854000Y-110584999D01*
G75*
G02*
X114103999Y-110335000I249999J0D01*
G01*
X115004001Y-110335000D01*
G75*
G02*
X115254000Y-110584999I0J-249999D01*
G01*
X115254000Y-111110001D01*
G75*
G02*
X115004001Y-111360000I-249999J0D01*
G01*
G37*
%TD.AperFunction*%
%TO.P,R9,1*%
%TO.N,Net-(D9-Pad1)*%
%TA.AperFunction,SMDPad,CuDef*%
G36*
G01*
X115004001Y-113185000D02*
X114103999Y-113185000D01*
G75*
G02*
X113854000Y-112935001I0J249999D01*
G01*
X113854000Y-112409999D01*
G75*
G02*
X114103999Y-112160000I249999J0D01*
G01*
X115004001Y-112160000D01*
G75*
G02*
X115254000Y-112409999I0J-249999D01*
G01*
X115254000Y-112935001D01*
G75*
G02*
X115004001Y-113185000I-249999J0D01*
G01*
G37*
%TD.AperFunction*%
%TD*%
%TO.P,R8,2*%
%TO.N,GND*%
%TA.AperFunction,SMDPad,CuDef*%
G36*
G01*
X117290001Y-111360000D02*
X116389999Y-111360000D01*
G75*
G02*
X116140000Y-111110001I0J249999D01*
G01*
X116140000Y-110584999D01*
G75*
G02*
X116389999Y-110335000I249999J0D01*
G01*
X117290001Y-110335000D01*
G75*
G02*
X117540000Y-110584999I0J-249999D01*
G01*
X117540000Y-111110001D01*
G75*
G02*
X117290001Y-111360000I-249999J0D01*
G01*
G37*
%TD.AperFunction*%
%TO.P,R8,1*%
%TO.N,Net-(D8-Pad1)*%
%TA.AperFunction,SMDPad,CuDef*%
G36*
G01*
X117290001Y-113185000D02*
X116389999Y-113185000D01*
G75*
G02*
X116140000Y-112935001I0J249999D01*
G01*
X116140000Y-112409999D01*
G75*
G02*
X116389999Y-112160000I249999J0D01*
G01*
X117290001Y-112160000D01*
G75*
G02*
X117540000Y-112409999I0J-249999D01*
G01*
X117540000Y-112935001D01*
G75*
G02*
X117290001Y-113185000I-249999J0D01*
G01*
G37*
%TD.AperFunction*%
%TD*%
%TO.P,R7,2*%
%TO.N,GND*%
%TA.AperFunction,SMDPad,CuDef*%
G36*
G01*
X119576001Y-111360000D02*
X118675999Y-111360000D01*
G75*
G02*
X118426000Y-111110001I0J249999D01*
G01*
X118426000Y-110584999D01*
G75*
G02*
X118675999Y-110335000I249999J0D01*
G01*
X119576001Y-110335000D01*
G75*
G02*
X119826000Y-110584999I0J-249999D01*
G01*
X119826000Y-111110001D01*
G75*
G02*
X119576001Y-111360000I-249999J0D01*
G01*
G37*
%TD.AperFunction*%
%TO.P,R7,1*%
%TO.N,Net-(D7-Pad1)*%
%TA.AperFunction,SMDPad,CuDef*%
G36*
G01*
X119576001Y-113185000D02*
X118675999Y-113185000D01*
G75*
G02*
X118426000Y-112935001I0J249999D01*
G01*
X118426000Y-112409999D01*
G75*
G02*
X118675999Y-112160000I249999J0D01*
G01*
X119576001Y-112160000D01*
G75*
G02*
X119826000Y-112409999I0J-249999D01*
G01*
X119826000Y-112935001D01*
G75*
G02*
X119576001Y-113185000I-249999J0D01*
G01*
G37*
%TD.AperFunction*%
%TD*%
%TO.P,R6,2*%
%TO.N,GND*%
%TA.AperFunction,SMDPad,CuDef*%
G36*
G01*
X121862001Y-111360000D02*
X120961999Y-111360000D01*
G75*
G02*
X120712000Y-111110001I0J249999D01*
G01*
X120712000Y-110584999D01*
G75*
G02*
X120961999Y-110335000I249999J0D01*
G01*
X121862001Y-110335000D01*
G75*
G02*
X122112000Y-110584999I0J-249999D01*
G01*
X122112000Y-111110001D01*
G75*
G02*
X121862001Y-111360000I-249999J0D01*
G01*
G37*
%TD.AperFunction*%
%TO.P,R6,1*%
%TO.N,Net-(D6-Pad1)*%
%TA.AperFunction,SMDPad,CuDef*%
G36*
G01*
X121862001Y-113185000D02*
X120961999Y-113185000D01*
G75*
G02*
X120712000Y-112935001I0J249999D01*
G01*
X120712000Y-112409999D01*
G75*
G02*
X120961999Y-112160000I249999J0D01*
G01*
X121862001Y-112160000D01*
G75*
G02*
X122112000Y-112409999I0J-249999D01*
G01*
X122112000Y-112935001D01*
G75*
G02*
X121862001Y-113185000I-249999J0D01*
G01*
G37*
%TD.AperFunction*%
%TD*%
%TO.P,D10,2*%
%TO.N,EN*%
%TA.AperFunction,SMDPad,CuDef*%
G36*
G01*
X111811750Y-116020000D02*
X112724250Y-116020000D01*
G75*
G02*
X112968000Y-116263750I0J-243750D01*
G01*
X112968000Y-116751250D01*
G75*
G02*
X112724250Y-116995000I-243750J0D01*
G01*
X111811750Y-116995000D01*
G75*
G02*
X111568000Y-116751250I0J243750D01*
G01*
X111568000Y-116263750D01*
G75*
G02*
X111811750Y-116020000I243750J0D01*
G01*
G37*
%TD.AperFunction*%
%TO.P,D10,1*%
%TO.N,Net-(D10-Pad1)*%
%TA.AperFunction,SMDPad,CuDef*%
G36*
G01*
X111811750Y-114145000D02*
X112724250Y-114145000D01*
G75*
G02*
X112968000Y-114388750I0J-243750D01*
G01*
X112968000Y-114876250D01*
G75*
G02*
X112724250Y-115120000I-243750J0D01*
G01*
X111811750Y-115120000D01*
G75*
G02*
X111568000Y-114876250I0J243750D01*
G01*
X111568000Y-114388750D01*
G75*
G02*
X111811750Y-114145000I243750J0D01*
G01*
G37*
%TD.AperFunction*%
%TD*%
%TO.P,D9,2*%
%TO.N,ADR3*%
%TA.AperFunction,SMDPad,CuDef*%
G36*
G01*
X114097750Y-116020000D02*
X115010250Y-116020000D01*
G75*
G02*
X115254000Y-116263750I0J-243750D01*
G01*
X115254000Y-116751250D01*
G75*
G02*
X115010250Y-116995000I-243750J0D01*
G01*
X114097750Y-116995000D01*
G75*
G02*
X113854000Y-116751250I0J243750D01*
G01*
X113854000Y-116263750D01*
G75*
G02*
X114097750Y-116020000I243750J0D01*
G01*
G37*
%TD.AperFunction*%
%TO.P,D9,1*%
%TO.N,Net-(D9-Pad1)*%
%TA.AperFunction,SMDPad,CuDef*%
G36*
G01*
X114097750Y-114145000D02*
X115010250Y-114145000D01*
G75*
G02*
X115254000Y-114388750I0J-243750D01*
G01*
X115254000Y-114876250D01*
G75*
G02*
X115010250Y-115120000I-243750J0D01*
G01*
X114097750Y-115120000D01*
G75*
G02*
X113854000Y-114876250I0J243750D01*
G01*
X113854000Y-114388750D01*
G75*
G02*
X114097750Y-114145000I243750J0D01*
G01*
G37*
%TD.AperFunction*%
%TD*%
%TO.P,D8,2*%
%TO.N,ADR2*%
%TA.AperFunction,SMDPad,CuDef*%
G36*
G01*
X116383750Y-116020000D02*
X117296250Y-116020000D01*
G75*
G02*
X117540000Y-116263750I0J-243750D01*
G01*
X117540000Y-116751250D01*
G75*
G02*
X117296250Y-116995000I-243750J0D01*
G01*
X116383750Y-116995000D01*
G75*
G02*
X116140000Y-116751250I0J243750D01*
G01*
X116140000Y-116263750D01*
G75*
G02*
X116383750Y-116020000I243750J0D01*
G01*
G37*
%TD.AperFunction*%
%TO.P,D8,1*%
%TO.N,Net-(D8-Pad1)*%
%TA.AperFunction,SMDPad,CuDef*%
G36*
G01*
X116383750Y-114145000D02*
X117296250Y-114145000D01*
G75*
G02*
X117540000Y-114388750I0J-243750D01*
G01*
X117540000Y-114876250D01*
G75*
G02*
X117296250Y-115120000I-243750J0D01*
G01*
X116383750Y-115120000D01*
G75*
G02*
X116140000Y-114876250I0J243750D01*
G01*
X116140000Y-114388750D01*
G75*
G02*
X116383750Y-114145000I243750J0D01*
G01*
G37*
%TD.AperFunction*%
%TD*%
%TO.P,D7,2*%
%TO.N,ADR1*%
%TA.AperFunction,SMDPad,CuDef*%
G36*
G01*
X118669750Y-116020000D02*
X119582250Y-116020000D01*
G75*
G02*
X119826000Y-116263750I0J-243750D01*
G01*
X119826000Y-116751250D01*
G75*
G02*
X119582250Y-116995000I-243750J0D01*
G01*
X118669750Y-116995000D01*
G75*
G02*
X118426000Y-116751250I0J243750D01*
G01*
X118426000Y-116263750D01*
G75*
G02*
X118669750Y-116020000I243750J0D01*
G01*
G37*
%TD.AperFunction*%
%TO.P,D7,1*%
%TO.N,Net-(D7-Pad1)*%
%TA.AperFunction,SMDPad,CuDef*%
G36*
G01*
X118669750Y-114145000D02*
X119582250Y-114145000D01*
G75*
G02*
X119826000Y-114388750I0J-243750D01*
G01*
X119826000Y-114876250D01*
G75*
G02*
X119582250Y-115120000I-243750J0D01*
G01*
X118669750Y-115120000D01*
G75*
G02*
X118426000Y-114876250I0J243750D01*
G01*
X118426000Y-114388750D01*
G75*
G02*
X118669750Y-114145000I243750J0D01*
G01*
G37*
%TD.AperFunction*%
%TD*%
%TO.P,D6,2*%
%TO.N,ADR0*%
%TA.AperFunction,SMDPad,CuDef*%
G36*
G01*
X120955750Y-116020000D02*
X121868250Y-116020000D01*
G75*
G02*
X122112000Y-116263750I0J-243750D01*
G01*
X122112000Y-116751250D01*
G75*
G02*
X121868250Y-116995000I-243750J0D01*
G01*
X120955750Y-116995000D01*
G75*
G02*
X120712000Y-116751250I0J243750D01*
G01*
X120712000Y-116263750D01*
G75*
G02*
X120955750Y-116020000I243750J0D01*
G01*
G37*
%TD.AperFunction*%
%TO.P,D6,1*%
%TO.N,Net-(D6-Pad1)*%
%TA.AperFunction,SMDPad,CuDef*%
G36*
G01*
X120955750Y-114145000D02*
X121868250Y-114145000D01*
G75*
G02*
X122112000Y-114388750I0J-243750D01*
G01*
X122112000Y-114876250D01*
G75*
G02*
X121868250Y-115120000I-243750J0D01*
G01*
X120955750Y-115120000D01*
G75*
G02*
X120712000Y-114876250I0J243750D01*
G01*
X120712000Y-114388750D01*
G75*
G02*
X120955750Y-114145000I243750J0D01*
G01*
G37*
%TD.AperFunction*%
%TD*%
%TO.P,R5,2*%
%TO.N,GND*%
%TA.AperFunction,SMDPad,CuDef*%
G36*
G01*
X164026001Y-80626000D02*
X163125999Y-80626000D01*
G75*
G02*
X162876000Y-80376001I0J249999D01*
G01*
X162876000Y-79850999D01*
G75*
G02*
X163125999Y-79601000I249999J0D01*
G01*
X164026001Y-79601000D01*
G75*
G02*
X164276000Y-79850999I0J-249999D01*
G01*
X164276000Y-80376001D01*
G75*
G02*
X164026001Y-80626000I-249999J0D01*
G01*
G37*
%TD.AperFunction*%
%TO.P,R5,1*%
%TO.N,Net-(D5-Pad1)*%
%TA.AperFunction,SMDPad,CuDef*%
G36*
G01*
X164026001Y-82451000D02*
X163125999Y-82451000D01*
G75*
G02*
X162876000Y-82201001I0J249999D01*
G01*
X162876000Y-81675999D01*
G75*
G02*
X163125999Y-81426000I249999J0D01*
G01*
X164026001Y-81426000D01*
G75*
G02*
X164276000Y-81675999I0J-249999D01*
G01*
X164276000Y-82201001D01*
G75*
G02*
X164026001Y-82451000I-249999J0D01*
G01*
G37*
%TD.AperFunction*%
%TD*%
%TO.P,R4,2*%
%TO.N,GND*%
%TA.AperFunction,SMDPad,CuDef*%
G36*
G01*
X166566001Y-80626000D02*
X165665999Y-80626000D01*
G75*
G02*
X165416000Y-80376001I0J249999D01*
G01*
X165416000Y-79850999D01*
G75*
G02*
X165665999Y-79601000I249999J0D01*
G01*
X166566001Y-79601000D01*
G75*
G02*
X166816000Y-79850999I0J-249999D01*
G01*
X166816000Y-80376001D01*
G75*
G02*
X166566001Y-80626000I-249999J0D01*
G01*
G37*
%TD.AperFunction*%
%TO.P,R4,1*%
%TO.N,Net-(D4-Pad1)*%
%TA.AperFunction,SMDPad,CuDef*%
G36*
G01*
X166566001Y-82451000D02*
X165665999Y-82451000D01*
G75*
G02*
X165416000Y-82201001I0J249999D01*
G01*
X165416000Y-81675999D01*
G75*
G02*
X165665999Y-81426000I249999J0D01*
G01*
X166566001Y-81426000D01*
G75*
G02*
X166816000Y-81675999I0J-249999D01*
G01*
X166816000Y-82201001D01*
G75*
G02*
X166566001Y-82451000I-249999J0D01*
G01*
G37*
%TD.AperFunction*%
%TD*%
%TO.P,R3,2*%
%TO.N,GND*%
%TA.AperFunction,SMDPad,CuDef*%
G36*
G01*
X169106001Y-80626000D02*
X168205999Y-80626000D01*
G75*
G02*
X167956000Y-80376001I0J249999D01*
G01*
X167956000Y-79850999D01*
G75*
G02*
X168205999Y-79601000I249999J0D01*
G01*
X169106001Y-79601000D01*
G75*
G02*
X169356000Y-79850999I0J-249999D01*
G01*
X169356000Y-80376001D01*
G75*
G02*
X169106001Y-80626000I-249999J0D01*
G01*
G37*
%TD.AperFunction*%
%TO.P,R3,1*%
%TO.N,Net-(D3-Pad1)*%
%TA.AperFunction,SMDPad,CuDef*%
G36*
G01*
X169106001Y-82451000D02*
X168205999Y-82451000D01*
G75*
G02*
X167956000Y-82201001I0J249999D01*
G01*
X167956000Y-81675999D01*
G75*
G02*
X168205999Y-81426000I249999J0D01*
G01*
X169106001Y-81426000D01*
G75*
G02*
X169356000Y-81675999I0J-249999D01*
G01*
X169356000Y-82201001D01*
G75*
G02*
X169106001Y-82451000I-249999J0D01*
G01*
G37*
%TD.AperFunction*%
%TD*%
%TO.P,R2,2*%
%TO.N,GND*%
%TA.AperFunction,SMDPad,CuDef*%
G36*
G01*
X171646001Y-80626000D02*
X170745999Y-80626000D01*
G75*
G02*
X170496000Y-80376001I0J249999D01*
G01*
X170496000Y-79850999D01*
G75*
G02*
X170745999Y-79601000I249999J0D01*
G01*
X171646001Y-79601000D01*
G75*
G02*
X171896000Y-79850999I0J-249999D01*
G01*
X171896000Y-80376001D01*
G75*
G02*
X171646001Y-80626000I-249999J0D01*
G01*
G37*
%TD.AperFunction*%
%TO.P,R2,1*%
%TO.N,Net-(D2-Pad1)*%
%TA.AperFunction,SMDPad,CuDef*%
G36*
G01*
X171646001Y-82451000D02*
X170745999Y-82451000D01*
G75*
G02*
X170496000Y-82201001I0J249999D01*
G01*
X170496000Y-81675999D01*
G75*
G02*
X170745999Y-81426000I249999J0D01*
G01*
X171646001Y-81426000D01*
G75*
G02*
X171896000Y-81675999I0J-249999D01*
G01*
X171896000Y-82201001D01*
G75*
G02*
X171646001Y-82451000I-249999J0D01*
G01*
G37*
%TD.AperFunction*%
%TD*%
%TO.P,R1,2*%
%TO.N,GND*%
%TA.AperFunction,SMDPad,CuDef*%
G36*
G01*
X135070001Y-82404000D02*
X134169999Y-82404000D01*
G75*
G02*
X133920000Y-82154001I0J249999D01*
G01*
X133920000Y-81628999D01*
G75*
G02*
X134169999Y-81379000I249999J0D01*
G01*
X135070001Y-81379000D01*
G75*
G02*
X135320000Y-81628999I0J-249999D01*
G01*
X135320000Y-82154001D01*
G75*
G02*
X135070001Y-82404000I-249999J0D01*
G01*
G37*
%TD.AperFunction*%
%TO.P,R1,1*%
%TO.N,Net-(D1-Pad1)*%
%TA.AperFunction,SMDPad,CuDef*%
G36*
G01*
X135070001Y-84229000D02*
X134169999Y-84229000D01*
G75*
G02*
X133920000Y-83979001I0J249999D01*
G01*
X133920000Y-83453999D01*
G75*
G02*
X134169999Y-83204000I249999J0D01*
G01*
X135070001Y-83204000D01*
G75*
G02*
X135320000Y-83453999I0J-249999D01*
G01*
X135320000Y-83979001D01*
G75*
G02*
X135070001Y-84229000I-249999J0D01*
G01*
G37*
%TD.AperFunction*%
%TD*%
%TO.P,D5,2*%
%TO.N,OVERFLOW_FLAG*%
%TA.AperFunction,SMDPad,CuDef*%
G36*
G01*
X163119750Y-85286000D02*
X164032250Y-85286000D01*
G75*
G02*
X164276000Y-85529750I0J-243750D01*
G01*
X164276000Y-86017250D01*
G75*
G02*
X164032250Y-86261000I-243750J0D01*
G01*
X163119750Y-86261000D01*
G75*
G02*
X162876000Y-86017250I0J243750D01*
G01*
X162876000Y-85529750D01*
G75*
G02*
X163119750Y-85286000I243750J0D01*
G01*
G37*
%TD.AperFunction*%
%TO.P,D5,1*%
%TO.N,Net-(D5-Pad1)*%
%TA.AperFunction,SMDPad,CuDef*%
G36*
G01*
X163119750Y-83411000D02*
X164032250Y-83411000D01*
G75*
G02*
X164276000Y-83654750I0J-243750D01*
G01*
X164276000Y-84142250D01*
G75*
G02*
X164032250Y-84386000I-243750J0D01*
G01*
X163119750Y-84386000D01*
G75*
G02*
X162876000Y-84142250I0J243750D01*
G01*
X162876000Y-83654750D01*
G75*
G02*
X163119750Y-83411000I243750J0D01*
G01*
G37*
%TD.AperFunction*%
%TD*%
%TO.P,D4,2*%
%TO.N,ZERO_FLAG*%
%TA.AperFunction,SMDPad,CuDef*%
G36*
G01*
X165659750Y-85286000D02*
X166572250Y-85286000D01*
G75*
G02*
X166816000Y-85529750I0J-243750D01*
G01*
X166816000Y-86017250D01*
G75*
G02*
X166572250Y-86261000I-243750J0D01*
G01*
X165659750Y-86261000D01*
G75*
G02*
X165416000Y-86017250I0J243750D01*
G01*
X165416000Y-85529750D01*
G75*
G02*
X165659750Y-85286000I243750J0D01*
G01*
G37*
%TD.AperFunction*%
%TO.P,D4,1*%
%TO.N,Net-(D4-Pad1)*%
%TA.AperFunction,SMDPad,CuDef*%
G36*
G01*
X165659750Y-83411000D02*
X166572250Y-83411000D01*
G75*
G02*
X166816000Y-83654750I0J-243750D01*
G01*
X166816000Y-84142250D01*
G75*
G02*
X166572250Y-84386000I-243750J0D01*
G01*
X165659750Y-84386000D01*
G75*
G02*
X165416000Y-84142250I0J243750D01*
G01*
X165416000Y-83654750D01*
G75*
G02*
X165659750Y-83411000I243750J0D01*
G01*
G37*
%TD.AperFunction*%
%TD*%
%TO.P,D3,2*%
%TO.N,SIGN_FLAG*%
%TA.AperFunction,SMDPad,CuDef*%
G36*
G01*
X168199750Y-85286000D02*
X169112250Y-85286000D01*
G75*
G02*
X169356000Y-85529750I0J-243750D01*
G01*
X169356000Y-86017250D01*
G75*
G02*
X169112250Y-86261000I-243750J0D01*
G01*
X168199750Y-86261000D01*
G75*
G02*
X167956000Y-86017250I0J243750D01*
G01*
X167956000Y-85529750D01*
G75*
G02*
X168199750Y-85286000I243750J0D01*
G01*
G37*
%TD.AperFunction*%
%TO.P,D3,1*%
%TO.N,Net-(D3-Pad1)*%
%TA.AperFunction,SMDPad,CuDef*%
G36*
G01*
X168199750Y-83411000D02*
X169112250Y-83411000D01*
G75*
G02*
X169356000Y-83654750I0J-243750D01*
G01*
X169356000Y-84142250D01*
G75*
G02*
X169112250Y-84386000I-243750J0D01*
G01*
X168199750Y-84386000D01*
G75*
G02*
X167956000Y-84142250I0J243750D01*
G01*
X167956000Y-83654750D01*
G75*
G02*
X168199750Y-83411000I243750J0D01*
G01*
G37*
%TD.AperFunction*%
%TD*%
%TO.P,D2,2*%
%TO.N,CARRY_FLAG*%
%TA.AperFunction,SMDPad,CuDef*%
G36*
G01*
X170739750Y-85286000D02*
X171652250Y-85286000D01*
G75*
G02*
X171896000Y-85529750I0J-243750D01*
G01*
X171896000Y-86017250D01*
G75*
G02*
X171652250Y-86261000I-243750J0D01*
G01*
X170739750Y-86261000D01*
G75*
G02*
X170496000Y-86017250I0J243750D01*
G01*
X170496000Y-85529750D01*
G75*
G02*
X170739750Y-85286000I243750J0D01*
G01*
G37*
%TD.AperFunction*%
%TO.P,D2,1*%
%TO.N,Net-(D2-Pad1)*%
%TA.AperFunction,SMDPad,CuDef*%
G36*
G01*
X170739750Y-83411000D02*
X171652250Y-83411000D01*
G75*
G02*
X171896000Y-83654750I0J-243750D01*
G01*
X171896000Y-84142250D01*
G75*
G02*
X171652250Y-84386000I-243750J0D01*
G01*
X170739750Y-84386000D01*
G75*
G02*
X170496000Y-84142250I0J243750D01*
G01*
X170496000Y-83654750D01*
G75*
G02*
X170739750Y-83411000I243750J0D01*
G01*
G37*
%TD.AperFunction*%
%TD*%
%TO.P,D1,2*%
%TO.N,LOAD_PROGRAM_COUNTER_COND*%
%TA.AperFunction,SMDPad,CuDef*%
G36*
G01*
X132790250Y-82354000D02*
X131877750Y-82354000D01*
G75*
G02*
X131634000Y-82110250I0J243750D01*
G01*
X131634000Y-81622750D01*
G75*
G02*
X131877750Y-81379000I243750J0D01*
G01*
X132790250Y-81379000D01*
G75*
G02*
X133034000Y-81622750I0J-243750D01*
G01*
X133034000Y-82110250D01*
G75*
G02*
X132790250Y-82354000I-243750J0D01*
G01*
G37*
%TD.AperFunction*%
%TO.P,D1,1*%
%TO.N,Net-(D1-Pad1)*%
%TA.AperFunction,SMDPad,CuDef*%
G36*
G01*
X132790250Y-84229000D02*
X131877750Y-84229000D01*
G75*
G02*
X131634000Y-83985250I0J243750D01*
G01*
X131634000Y-83497750D01*
G75*
G02*
X131877750Y-83254000I243750J0D01*
G01*
X132790250Y-83254000D01*
G75*
G02*
X133034000Y-83497750I0J-243750D01*
G01*
X133034000Y-83985250D01*
G75*
G02*
X132790250Y-84229000I-243750J0D01*
G01*
G37*
%TD.AperFunction*%
%TD*%
%TO.P,U11,14*%
%TO.N,VCC*%
%TA.AperFunction,SMDPad,CuDef*%
G36*
G01*
X179220000Y-105180000D02*
X178920000Y-105180000D01*
G75*
G02*
X178770000Y-105030000I0J150000D01*
G01*
X178770000Y-103380000D01*
G75*
G02*
X178920000Y-103230000I150000J0D01*
G01*
X179220000Y-103230000D01*
G75*
G02*
X179370000Y-103380000I0J-150000D01*
G01*
X179370000Y-105030000D01*
G75*
G02*
X179220000Y-105180000I-150000J0D01*
G01*
G37*
%TD.AperFunction*%
%TO.P,U11,13*%
%TO.N,Net-(U11-Pad13)*%
%TA.AperFunction,SMDPad,CuDef*%
G36*
G01*
X180490000Y-105180000D02*
X180190000Y-105180000D01*
G75*
G02*
X180040000Y-105030000I0J150000D01*
G01*
X180040000Y-103380000D01*
G75*
G02*
X180190000Y-103230000I150000J0D01*
G01*
X180490000Y-103230000D01*
G75*
G02*
X180640000Y-103380000I0J-150000D01*
G01*
X180640000Y-105030000D01*
G75*
G02*
X180490000Y-105180000I-150000J0D01*
G01*
G37*
%TD.AperFunction*%
%TO.P,U11,12*%
%TO.N,Net-(U11-Pad1)*%
%TA.AperFunction,SMDPad,CuDef*%
G36*
G01*
X181760000Y-105180000D02*
X181460000Y-105180000D01*
G75*
G02*
X181310000Y-105030000I0J150000D01*
G01*
X181310000Y-103380000D01*
G75*
G02*
X181460000Y-103230000I150000J0D01*
G01*
X181760000Y-103230000D01*
G75*
G02*
X181910000Y-103380000I0J-150000D01*
G01*
X181910000Y-105030000D01*
G75*
G02*
X181760000Y-105180000I-150000J0D01*
G01*
G37*
%TD.AperFunction*%
%TO.P,U11,11*%
%TO.N,OR_JUMP*%
%TA.AperFunction,SMDPad,CuDef*%
G36*
G01*
X183030000Y-105180000D02*
X182730000Y-105180000D01*
G75*
G02*
X182580000Y-105030000I0J150000D01*
G01*
X182580000Y-103380000D01*
G75*
G02*
X182730000Y-103230000I150000J0D01*
G01*
X183030000Y-103230000D01*
G75*
G02*
X183180000Y-103380000I0J-150000D01*
G01*
X183180000Y-105030000D01*
G75*
G02*
X183030000Y-105180000I-150000J0D01*
G01*
G37*
%TD.AperFunction*%
%TO.P,U11,10*%
%TO.N,OR_JLE_JNG*%
%TA.AperFunction,SMDPad,CuDef*%
G36*
G01*
X184300000Y-105180000D02*
X184000000Y-105180000D01*
G75*
G02*
X183850000Y-105030000I0J150000D01*
G01*
X183850000Y-103380000D01*
G75*
G02*
X184000000Y-103230000I150000J0D01*
G01*
X184300000Y-103230000D01*
G75*
G02*
X184450000Y-103380000I0J-150000D01*
G01*
X184450000Y-105030000D01*
G75*
G02*
X184300000Y-105180000I-150000J0D01*
G01*
G37*
%TD.AperFunction*%
%TO.P,U11,9*%
%TO.N,OR_JG_JNLE*%
%TA.AperFunction,SMDPad,CuDef*%
G36*
G01*
X185570000Y-105180000D02*
X185270000Y-105180000D01*
G75*
G02*
X185120000Y-105030000I0J150000D01*
G01*
X185120000Y-103380000D01*
G75*
G02*
X185270000Y-103230000I150000J0D01*
G01*
X185570000Y-103230000D01*
G75*
G02*
X185720000Y-103380000I0J-150000D01*
G01*
X185720000Y-105030000D01*
G75*
G02*
X185570000Y-105180000I-150000J0D01*
G01*
G37*
%TD.AperFunction*%
%TO.P,U11,8*%
%TO.N,N/C*%
%TA.AperFunction,SMDPad,CuDef*%
G36*
G01*
X186840000Y-105180000D02*
X186540000Y-105180000D01*
G75*
G02*
X186390000Y-105030000I0J150000D01*
G01*
X186390000Y-103380000D01*
G75*
G02*
X186540000Y-103230000I150000J0D01*
G01*
X186840000Y-103230000D01*
G75*
G02*
X186990000Y-103380000I0J-150000D01*
G01*
X186990000Y-105030000D01*
G75*
G02*
X186840000Y-105180000I-150000J0D01*
G01*
G37*
%TD.AperFunction*%
%TO.P,U11,7*%
%TO.N,GND*%
%TA.AperFunction,SMDPad,CuDef*%
G36*
G01*
X186840000Y-110130000D02*
X186540000Y-110130000D01*
G75*
G02*
X186390000Y-109980000I0J150000D01*
G01*
X186390000Y-108330000D01*
G75*
G02*
X186540000Y-108180000I150000J0D01*
G01*
X186840000Y-108180000D01*
G75*
G02*
X186990000Y-108330000I0J-150000D01*
G01*
X186990000Y-109980000D01*
G75*
G02*
X186840000Y-110130000I-150000J0D01*
G01*
G37*
%TD.AperFunction*%
%TO.P,U11,6*%
%TO.N,N/C*%
%TA.AperFunction,SMDPad,CuDef*%
G36*
G01*
X185570000Y-110130000D02*
X185270000Y-110130000D01*
G75*
G02*
X185120000Y-109980000I0J150000D01*
G01*
X185120000Y-108330000D01*
G75*
G02*
X185270000Y-108180000I150000J0D01*
G01*
X185570000Y-108180000D01*
G75*
G02*
X185720000Y-108330000I0J-150000D01*
G01*
X185720000Y-109980000D01*
G75*
G02*
X185570000Y-110130000I-150000J0D01*
G01*
G37*
%TD.AperFunction*%
%TO.P,U11,5*%
%TO.N,OR_JGE_JNL*%
%TA.AperFunction,SMDPad,CuDef*%
G36*
G01*
X184300000Y-110130000D02*
X184000000Y-110130000D01*
G75*
G02*
X183850000Y-109980000I0J150000D01*
G01*
X183850000Y-108330000D01*
G75*
G02*
X184000000Y-108180000I150000J0D01*
G01*
X184300000Y-108180000D01*
G75*
G02*
X184450000Y-108330000I0J-150000D01*
G01*
X184450000Y-109980000D01*
G75*
G02*
X184300000Y-110130000I-150000J0D01*
G01*
G37*
%TD.AperFunction*%
%TO.P,U11,4*%
%TO.N,OR_JL_JNGE*%
%TA.AperFunction,SMDPad,CuDef*%
G36*
G01*
X183030000Y-110130000D02*
X182730000Y-110130000D01*
G75*
G02*
X182580000Y-109980000I0J150000D01*
G01*
X182580000Y-108330000D01*
G75*
G02*
X182730000Y-108180000I150000J0D01*
G01*
X183030000Y-108180000D01*
G75*
G02*
X183180000Y-108330000I0J-150000D01*
G01*
X183180000Y-109980000D01*
G75*
G02*
X183030000Y-110130000I-150000J0D01*
G01*
G37*
%TD.AperFunction*%
%TO.P,U11,3*%
%TO.N,OR_JA_JNBE*%
%TA.AperFunction,SMDPad,CuDef*%
G36*
G01*
X181760000Y-110130000D02*
X181460000Y-110130000D01*
G75*
G02*
X181310000Y-109980000I0J150000D01*
G01*
X181310000Y-108330000D01*
G75*
G02*
X181460000Y-108180000I150000J0D01*
G01*
X181760000Y-108180000D01*
G75*
G02*
X181910000Y-108330000I0J-150000D01*
G01*
X181910000Y-109980000D01*
G75*
G02*
X181760000Y-110130000I-150000J0D01*
G01*
G37*
%TD.AperFunction*%
%TO.P,U11,2*%
%TO.N,OR_JBE_JNA*%
%TA.AperFunction,SMDPad,CuDef*%
G36*
G01*
X180490000Y-110130000D02*
X180190000Y-110130000D01*
G75*
G02*
X180040000Y-109980000I0J150000D01*
G01*
X180040000Y-108330000D01*
G75*
G02*
X180190000Y-108180000I150000J0D01*
G01*
X180490000Y-108180000D01*
G75*
G02*
X180640000Y-108330000I0J-150000D01*
G01*
X180640000Y-109980000D01*
G75*
G02*
X180490000Y-110130000I-150000J0D01*
G01*
G37*
%TD.AperFunction*%
%TO.P,U11,1*%
%TO.N,Net-(U11-Pad1)*%
%TA.AperFunction,SMDPad,CuDef*%
G36*
G01*
X179220000Y-110130000D02*
X178920000Y-110130000D01*
G75*
G02*
X178770000Y-109980000I0J150000D01*
G01*
X178770000Y-108330000D01*
G75*
G02*
X178920000Y-108180000I150000J0D01*
G01*
X179220000Y-108180000D01*
G75*
G02*
X179370000Y-108330000I0J-150000D01*
G01*
X179370000Y-109980000D01*
G75*
G02*
X179220000Y-110130000I-150000J0D01*
G01*
G37*
%TD.AperFunction*%
%TD*%
%TO.P,U10,14*%
%TO.N,VCC*%
%TA.AperFunction,SMDPad,CuDef*%
G36*
G01*
X179220000Y-92734000D02*
X178920000Y-92734000D01*
G75*
G02*
X178770000Y-92584000I0J150000D01*
G01*
X178770000Y-90934000D01*
G75*
G02*
X178920000Y-90784000I150000J0D01*
G01*
X179220000Y-90784000D01*
G75*
G02*
X179370000Y-90934000I0J-150000D01*
G01*
X179370000Y-92584000D01*
G75*
G02*
X179220000Y-92734000I-150000J0D01*
G01*
G37*
%TD.AperFunction*%
%TO.P,U10,13*%
%TO.N,Net-(U10-Pad13)*%
%TA.AperFunction,SMDPad,CuDef*%
G36*
G01*
X180490000Y-92734000D02*
X180190000Y-92734000D01*
G75*
G02*
X180040000Y-92584000I0J150000D01*
G01*
X180040000Y-90934000D01*
G75*
G02*
X180190000Y-90784000I150000J0D01*
G01*
X180490000Y-90784000D01*
G75*
G02*
X180640000Y-90934000I0J-150000D01*
G01*
X180640000Y-92584000D01*
G75*
G02*
X180490000Y-92734000I-150000J0D01*
G01*
G37*
%TD.AperFunction*%
%TO.P,U10,12*%
%TO.N,OR_JNB_JAE_JNC*%
%TA.AperFunction,SMDPad,CuDef*%
G36*
G01*
X181760000Y-92734000D02*
X181460000Y-92734000D01*
G75*
G02*
X181310000Y-92584000I0J150000D01*
G01*
X181310000Y-90934000D01*
G75*
G02*
X181460000Y-90784000I150000J0D01*
G01*
X181760000Y-90784000D01*
G75*
G02*
X181910000Y-90934000I0J-150000D01*
G01*
X181910000Y-92584000D01*
G75*
G02*
X181760000Y-92734000I-150000J0D01*
G01*
G37*
%TD.AperFunction*%
%TO.P,U10,11*%
%TO.N,OR_JB_JNAE_JC*%
%TA.AperFunction,SMDPad,CuDef*%
G36*
G01*
X183030000Y-92734000D02*
X182730000Y-92734000D01*
G75*
G02*
X182580000Y-92584000I0J150000D01*
G01*
X182580000Y-90934000D01*
G75*
G02*
X182730000Y-90784000I150000J0D01*
G01*
X183030000Y-90784000D01*
G75*
G02*
X183180000Y-90934000I0J-150000D01*
G01*
X183180000Y-92584000D01*
G75*
G02*
X183030000Y-92734000I-150000J0D01*
G01*
G37*
%TD.AperFunction*%
%TO.P,U10,10*%
%TO.N,OR_JNE_JNZ*%
%TA.AperFunction,SMDPad,CuDef*%
G36*
G01*
X184300000Y-92734000D02*
X184000000Y-92734000D01*
G75*
G02*
X183850000Y-92584000I0J150000D01*
G01*
X183850000Y-90934000D01*
G75*
G02*
X184000000Y-90784000I150000J0D01*
G01*
X184300000Y-90784000D01*
G75*
G02*
X184450000Y-90934000I0J-150000D01*
G01*
X184450000Y-92584000D01*
G75*
G02*
X184300000Y-92734000I-150000J0D01*
G01*
G37*
%TD.AperFunction*%
%TO.P,U10,9*%
%TO.N,OR_JE_JZ*%
%TA.AperFunction,SMDPad,CuDef*%
G36*
G01*
X185570000Y-92734000D02*
X185270000Y-92734000D01*
G75*
G02*
X185120000Y-92584000I0J150000D01*
G01*
X185120000Y-90934000D01*
G75*
G02*
X185270000Y-90784000I150000J0D01*
G01*
X185570000Y-90784000D01*
G75*
G02*
X185720000Y-90934000I0J-150000D01*
G01*
X185720000Y-92584000D01*
G75*
G02*
X185570000Y-92734000I-150000J0D01*
G01*
G37*
%TD.AperFunction*%
%TO.P,U10,8*%
%TO.N,N/C*%
%TA.AperFunction,SMDPad,CuDef*%
G36*
G01*
X186840000Y-92734000D02*
X186540000Y-92734000D01*
G75*
G02*
X186390000Y-92584000I0J150000D01*
G01*
X186390000Y-90934000D01*
G75*
G02*
X186540000Y-90784000I150000J0D01*
G01*
X186840000Y-90784000D01*
G75*
G02*
X186990000Y-90934000I0J-150000D01*
G01*
X186990000Y-92584000D01*
G75*
G02*
X186840000Y-92734000I-150000J0D01*
G01*
G37*
%TD.AperFunction*%
%TO.P,U10,7*%
%TO.N,GND*%
%TA.AperFunction,SMDPad,CuDef*%
G36*
G01*
X186840000Y-97684000D02*
X186540000Y-97684000D01*
G75*
G02*
X186390000Y-97534000I0J150000D01*
G01*
X186390000Y-95884000D01*
G75*
G02*
X186540000Y-95734000I150000J0D01*
G01*
X186840000Y-95734000D01*
G75*
G02*
X186990000Y-95884000I0J-150000D01*
G01*
X186990000Y-97534000D01*
G75*
G02*
X186840000Y-97684000I-150000J0D01*
G01*
G37*
%TD.AperFunction*%
%TO.P,U10,6*%
%TO.N,N/C*%
%TA.AperFunction,SMDPad,CuDef*%
G36*
G01*
X185570000Y-97684000D02*
X185270000Y-97684000D01*
G75*
G02*
X185120000Y-97534000I0J150000D01*
G01*
X185120000Y-95884000D01*
G75*
G02*
X185270000Y-95734000I150000J0D01*
G01*
X185570000Y-95734000D01*
G75*
G02*
X185720000Y-95884000I0J-150000D01*
G01*
X185720000Y-97534000D01*
G75*
G02*
X185570000Y-97684000I-150000J0D01*
G01*
G37*
%TD.AperFunction*%
%TO.P,U10,5*%
%TO.N,OR_JNS*%
%TA.AperFunction,SMDPad,CuDef*%
G36*
G01*
X184300000Y-97684000D02*
X184000000Y-97684000D01*
G75*
G02*
X183850000Y-97534000I0J150000D01*
G01*
X183850000Y-95884000D01*
G75*
G02*
X184000000Y-95734000I150000J0D01*
G01*
X184300000Y-95734000D01*
G75*
G02*
X184450000Y-95884000I0J-150000D01*
G01*
X184450000Y-97534000D01*
G75*
G02*
X184300000Y-97684000I-150000J0D01*
G01*
G37*
%TD.AperFunction*%
%TO.P,U10,4*%
%TO.N,OR_JS*%
%TA.AperFunction,SMDPad,CuDef*%
G36*
G01*
X183030000Y-97684000D02*
X182730000Y-97684000D01*
G75*
G02*
X182580000Y-97534000I0J150000D01*
G01*
X182580000Y-95884000D01*
G75*
G02*
X182730000Y-95734000I150000J0D01*
G01*
X183030000Y-95734000D01*
G75*
G02*
X183180000Y-95884000I0J-150000D01*
G01*
X183180000Y-97534000D01*
G75*
G02*
X183030000Y-97684000I-150000J0D01*
G01*
G37*
%TD.AperFunction*%
%TO.P,U10,3*%
%TO.N,OR_JNO*%
%TA.AperFunction,SMDPad,CuDef*%
G36*
G01*
X181760000Y-97684000D02*
X181460000Y-97684000D01*
G75*
G02*
X181310000Y-97534000I0J150000D01*
G01*
X181310000Y-95884000D01*
G75*
G02*
X181460000Y-95734000I150000J0D01*
G01*
X181760000Y-95734000D01*
G75*
G02*
X181910000Y-95884000I0J-150000D01*
G01*
X181910000Y-97534000D01*
G75*
G02*
X181760000Y-97684000I-150000J0D01*
G01*
G37*
%TD.AperFunction*%
%TO.P,U10,2*%
%TO.N,OR_JO*%
%TA.AperFunction,SMDPad,CuDef*%
G36*
G01*
X180490000Y-97684000D02*
X180190000Y-97684000D01*
G75*
G02*
X180040000Y-97534000I0J150000D01*
G01*
X180040000Y-95884000D01*
G75*
G02*
X180190000Y-95734000I150000J0D01*
G01*
X180490000Y-95734000D01*
G75*
G02*
X180640000Y-95884000I0J-150000D01*
G01*
X180640000Y-97534000D01*
G75*
G02*
X180490000Y-97684000I-150000J0D01*
G01*
G37*
%TD.AperFunction*%
%TO.P,U10,1*%
%TO.N,Net-(U10-Pad1)*%
%TA.AperFunction,SMDPad,CuDef*%
G36*
G01*
X179220000Y-97684000D02*
X178920000Y-97684000D01*
G75*
G02*
X178770000Y-97534000I0J150000D01*
G01*
X178770000Y-95884000D01*
G75*
G02*
X178920000Y-95734000I150000J0D01*
G01*
X179220000Y-95734000D01*
G75*
G02*
X179370000Y-95884000I0J-150000D01*
G01*
X179370000Y-97534000D01*
G75*
G02*
X179220000Y-97684000I-150000J0D01*
G01*
G37*
%TD.AperFunction*%
%TD*%
D10*
%TO.P,J4,4*%
%TO.N,CARRY_FLAG*%
X182372000Y-116332000D03*
%TO.P,J4,3*%
%TO.N,SIGN_FLAG*%
X179832000Y-116332000D03*
%TO.P,J4,2*%
%TO.N,ZERO_FLAG*%
X177292000Y-116332000D03*
D11*
%TO.P,J4,1*%
%TO.N,OVERFLOW_FLAG*%
X174752000Y-116332000D03*
%TD*%
%TO.P,U6,1*%
%TO.N,Net-(U4-Pad2)*%
%TA.AperFunction,SMDPad,CuDef*%
G36*
G01*
X137342000Y-110026000D02*
X137142000Y-110026000D01*
G75*
G02*
X137042000Y-109926000I0J100000D01*
G01*
X137042000Y-108651000D01*
G75*
G02*
X137142000Y-108551000I100000J0D01*
G01*
X137342000Y-108551000D01*
G75*
G02*
X137442000Y-108651000I0J-100000D01*
G01*
X137442000Y-109926000D01*
G75*
G02*
X137342000Y-110026000I-100000J0D01*
G01*
G37*
%TD.AperFunction*%
%TO.P,U6,2*%
%TO.N,Net-(U6-Pad2)*%
%TA.AperFunction,SMDPad,CuDef*%
G36*
G01*
X137992000Y-110026000D02*
X137792000Y-110026000D01*
G75*
G02*
X137692000Y-109926000I0J100000D01*
G01*
X137692000Y-108651000D01*
G75*
G02*
X137792000Y-108551000I100000J0D01*
G01*
X137992000Y-108551000D01*
G75*
G02*
X138092000Y-108651000I0J-100000D01*
G01*
X138092000Y-109926000D01*
G75*
G02*
X137992000Y-110026000I-100000J0D01*
G01*
G37*
%TD.AperFunction*%
%TO.P,U6,3*%
%TO.N,OR_JBE_JNA*%
%TA.AperFunction,SMDPad,CuDef*%
G36*
G01*
X138642000Y-110026000D02*
X138442000Y-110026000D01*
G75*
G02*
X138342000Y-109926000I0J100000D01*
G01*
X138342000Y-108651000D01*
G75*
G02*
X138442000Y-108551000I100000J0D01*
G01*
X138642000Y-108551000D01*
G75*
G02*
X138742000Y-108651000I0J-100000D01*
G01*
X138742000Y-109926000D01*
G75*
G02*
X138642000Y-110026000I-100000J0D01*
G01*
G37*
%TD.AperFunction*%
%TO.P,U6,4*%
%TO.N,OVERFLOW_FLAG*%
%TA.AperFunction,SMDPad,CuDef*%
G36*
G01*
X139292000Y-110026000D02*
X139092000Y-110026000D01*
G75*
G02*
X138992000Y-109926000I0J100000D01*
G01*
X138992000Y-108651000D01*
G75*
G02*
X139092000Y-108551000I100000J0D01*
G01*
X139292000Y-108551000D01*
G75*
G02*
X139392000Y-108651000I0J-100000D01*
G01*
X139392000Y-109926000D01*
G75*
G02*
X139292000Y-110026000I-100000J0D01*
G01*
G37*
%TD.AperFunction*%
%TO.P,U6,5*%
%TO.N,SIGN_FLAG*%
%TA.AperFunction,SMDPad,CuDef*%
G36*
G01*
X139942000Y-110026000D02*
X139742000Y-110026000D01*
G75*
G02*
X139642000Y-109926000I0J100000D01*
G01*
X139642000Y-108651000D01*
G75*
G02*
X139742000Y-108551000I100000J0D01*
G01*
X139942000Y-108551000D01*
G75*
G02*
X140042000Y-108651000I0J-100000D01*
G01*
X140042000Y-109926000D01*
G75*
G02*
X139942000Y-110026000I-100000J0D01*
G01*
G37*
%TD.AperFunction*%
%TO.P,U6,6*%
%TO.N,Net-(U6-Pad6)*%
%TA.AperFunction,SMDPad,CuDef*%
G36*
G01*
X140592000Y-110026000D02*
X140392000Y-110026000D01*
G75*
G02*
X140292000Y-109926000I0J100000D01*
G01*
X140292000Y-108651000D01*
G75*
G02*
X140392000Y-108551000I100000J0D01*
G01*
X140592000Y-108551000D01*
G75*
G02*
X140692000Y-108651000I0J-100000D01*
G01*
X140692000Y-109926000D01*
G75*
G02*
X140592000Y-110026000I-100000J0D01*
G01*
G37*
%TD.AperFunction*%
%TO.P,U6,7*%
%TO.N,GND*%
%TA.AperFunction,SMDPad,CuDef*%
G36*
G01*
X141242000Y-110026000D02*
X141042000Y-110026000D01*
G75*
G02*
X140942000Y-109926000I0J100000D01*
G01*
X140942000Y-108651000D01*
G75*
G02*
X141042000Y-108551000I100000J0D01*
G01*
X141242000Y-108551000D01*
G75*
G02*
X141342000Y-108651000I0J-100000D01*
G01*
X141342000Y-109926000D01*
G75*
G02*
X141242000Y-110026000I-100000J0D01*
G01*
G37*
%TD.AperFunction*%
%TO.P,U6,8*%
%TO.N,OR_JGE_JNL*%
%TA.AperFunction,SMDPad,CuDef*%
G36*
G01*
X141242000Y-104301000D02*
X141042000Y-104301000D01*
G75*
G02*
X140942000Y-104201000I0J100000D01*
G01*
X140942000Y-102926000D01*
G75*
G02*
X141042000Y-102826000I100000J0D01*
G01*
X141242000Y-102826000D01*
G75*
G02*
X141342000Y-102926000I0J-100000D01*
G01*
X141342000Y-104201000D01*
G75*
G02*
X141242000Y-104301000I-100000J0D01*
G01*
G37*
%TD.AperFunction*%
%TO.P,U6,9*%
%TO.N,Net-(U4-Pad4)*%
%TA.AperFunction,SMDPad,CuDef*%
G36*
G01*
X140592000Y-104301000D02*
X140392000Y-104301000D01*
G75*
G02*
X140292000Y-104201000I0J100000D01*
G01*
X140292000Y-102926000D01*
G75*
G02*
X140392000Y-102826000I100000J0D01*
G01*
X140592000Y-102826000D01*
G75*
G02*
X140692000Y-102926000I0J-100000D01*
G01*
X140692000Y-104201000D01*
G75*
G02*
X140592000Y-104301000I-100000J0D01*
G01*
G37*
%TD.AperFunction*%
%TO.P,U6,10*%
%TO.N,SF=OF*%
%TA.AperFunction,SMDPad,CuDef*%
G36*
G01*
X139942000Y-104301000D02*
X139742000Y-104301000D01*
G75*
G02*
X139642000Y-104201000I0J100000D01*
G01*
X139642000Y-102926000D01*
G75*
G02*
X139742000Y-102826000I100000J0D01*
G01*
X139942000Y-102826000D01*
G75*
G02*
X140042000Y-102926000I0J-100000D01*
G01*
X140042000Y-104201000D01*
G75*
G02*
X139942000Y-104301000I-100000J0D01*
G01*
G37*
%TD.AperFunction*%
%TO.P,U6,11*%
%TO.N,OR_JG_JNLE*%
%TA.AperFunction,SMDPad,CuDef*%
G36*
G01*
X139292000Y-104301000D02*
X139092000Y-104301000D01*
G75*
G02*
X138992000Y-104201000I0J100000D01*
G01*
X138992000Y-102926000D01*
G75*
G02*
X139092000Y-102826000I100000J0D01*
G01*
X139292000Y-102826000D01*
G75*
G02*
X139392000Y-102926000I0J-100000D01*
G01*
X139392000Y-104201000D01*
G75*
G02*
X139292000Y-104301000I-100000J0D01*
G01*
G37*
%TD.AperFunction*%
%TO.P,U6,12*%
%TO.N,Net-(U6-Pad12)*%
%TA.AperFunction,SMDPad,CuDef*%
G36*
G01*
X138642000Y-104301000D02*
X138442000Y-104301000D01*
G75*
G02*
X138342000Y-104201000I0J100000D01*
G01*
X138342000Y-102926000D01*
G75*
G02*
X138442000Y-102826000I100000J0D01*
G01*
X138642000Y-102826000D01*
G75*
G02*
X138742000Y-102926000I0J-100000D01*
G01*
X138742000Y-104201000D01*
G75*
G02*
X138642000Y-104301000I-100000J0D01*
G01*
G37*
%TD.AperFunction*%
%TO.P,U6,13*%
%TO.N,SF=OF*%
%TA.AperFunction,SMDPad,CuDef*%
G36*
G01*
X137992000Y-104301000D02*
X137792000Y-104301000D01*
G75*
G02*
X137692000Y-104201000I0J100000D01*
G01*
X137692000Y-102926000D01*
G75*
G02*
X137792000Y-102826000I100000J0D01*
G01*
X137992000Y-102826000D01*
G75*
G02*
X138092000Y-102926000I0J-100000D01*
G01*
X138092000Y-104201000D01*
G75*
G02*
X137992000Y-104301000I-100000J0D01*
G01*
G37*
%TD.AperFunction*%
%TO.P,U6,14*%
%TO.N,VCC*%
%TA.AperFunction,SMDPad,CuDef*%
G36*
G01*
X137342000Y-104301000D02*
X137142000Y-104301000D01*
G75*
G02*
X137042000Y-104201000I0J100000D01*
G01*
X137042000Y-102926000D01*
G75*
G02*
X137142000Y-102826000I100000J0D01*
G01*
X137342000Y-102826000D01*
G75*
G02*
X137442000Y-102926000I0J-100000D01*
G01*
X137442000Y-104201000D01*
G75*
G02*
X137342000Y-104301000I-100000J0D01*
G01*
G37*
%TD.AperFunction*%
%TD*%
%TO.P,U14,1*%
%TO.N,Net-(U14-Pad1)*%
%TA.AperFunction,SMDPad,CuDef*%
G36*
G01*
X169600000Y-110280000D02*
X169400000Y-110280000D01*
G75*
G02*
X169300000Y-110180000I0J100000D01*
G01*
X169300000Y-108905000D01*
G75*
G02*
X169400000Y-108805000I100000J0D01*
G01*
X169600000Y-108805000D01*
G75*
G02*
X169700000Y-108905000I0J-100000D01*
G01*
X169700000Y-110180000D01*
G75*
G02*
X169600000Y-110280000I-100000J0D01*
G01*
G37*
%TD.AperFunction*%
%TO.P,U14,2*%
%TO.N,Net-(U14-Pad2)*%
%TA.AperFunction,SMDPad,CuDef*%
G36*
G01*
X170250000Y-110280000D02*
X170050000Y-110280000D01*
G75*
G02*
X169950000Y-110180000I0J100000D01*
G01*
X169950000Y-108905000D01*
G75*
G02*
X170050000Y-108805000I100000J0D01*
G01*
X170250000Y-108805000D01*
G75*
G02*
X170350000Y-108905000I0J-100000D01*
G01*
X170350000Y-110180000D01*
G75*
G02*
X170250000Y-110280000I-100000J0D01*
G01*
G37*
%TD.AperFunction*%
%TO.P,U14,3*%
%TO.N,OR_JLE_JNG*%
%TA.AperFunction,SMDPad,CuDef*%
G36*
G01*
X170900000Y-110280000D02*
X170700000Y-110280000D01*
G75*
G02*
X170600000Y-110180000I0J100000D01*
G01*
X170600000Y-108905000D01*
G75*
G02*
X170700000Y-108805000I100000J0D01*
G01*
X170900000Y-108805000D01*
G75*
G02*
X171000000Y-108905000I0J-100000D01*
G01*
X171000000Y-110180000D01*
G75*
G02*
X170900000Y-110280000I-100000J0D01*
G01*
G37*
%TD.AperFunction*%
%TO.P,U14,4*%
%TO.N,GND*%
%TA.AperFunction,SMDPad,CuDef*%
G36*
G01*
X171550000Y-110280000D02*
X171350000Y-110280000D01*
G75*
G02*
X171250000Y-110180000I0J100000D01*
G01*
X171250000Y-108905000D01*
G75*
G02*
X171350000Y-108805000I100000J0D01*
G01*
X171550000Y-108805000D01*
G75*
G02*
X171650000Y-108905000I0J-100000D01*
G01*
X171650000Y-110180000D01*
G75*
G02*
X171550000Y-110280000I-100000J0D01*
G01*
G37*
%TD.AperFunction*%
%TO.P,U14,5*%
%TA.AperFunction,SMDPad,CuDef*%
G36*
G01*
X172200000Y-110280000D02*
X172000000Y-110280000D01*
G75*
G02*
X171900000Y-110180000I0J100000D01*
G01*
X171900000Y-108905000D01*
G75*
G02*
X172000000Y-108805000I100000J0D01*
G01*
X172200000Y-108805000D01*
G75*
G02*
X172300000Y-108905000I0J-100000D01*
G01*
X172300000Y-110180000D01*
G75*
G02*
X172200000Y-110280000I-100000J0D01*
G01*
G37*
%TD.AperFunction*%
%TO.P,U14,6*%
%TO.N,Net-(U14-Pad6)*%
%TA.AperFunction,SMDPad,CuDef*%
G36*
G01*
X172850000Y-110280000D02*
X172650000Y-110280000D01*
G75*
G02*
X172550000Y-110180000I0J100000D01*
G01*
X172550000Y-108905000D01*
G75*
G02*
X172650000Y-108805000I100000J0D01*
G01*
X172850000Y-108805000D01*
G75*
G02*
X172950000Y-108905000I0J-100000D01*
G01*
X172950000Y-110180000D01*
G75*
G02*
X172850000Y-110280000I-100000J0D01*
G01*
G37*
%TD.AperFunction*%
%TO.P,U14,7*%
%TO.N,GND*%
%TA.AperFunction,SMDPad,CuDef*%
G36*
G01*
X173500000Y-110280000D02*
X173300000Y-110280000D01*
G75*
G02*
X173200000Y-110180000I0J100000D01*
G01*
X173200000Y-108905000D01*
G75*
G02*
X173300000Y-108805000I100000J0D01*
G01*
X173500000Y-108805000D01*
G75*
G02*
X173600000Y-108905000I0J-100000D01*
G01*
X173600000Y-110180000D01*
G75*
G02*
X173500000Y-110280000I-100000J0D01*
G01*
G37*
%TD.AperFunction*%
%TO.P,U14,8*%
%TO.N,Net-(U14-Pad8)*%
%TA.AperFunction,SMDPad,CuDef*%
G36*
G01*
X173500000Y-104555000D02*
X173300000Y-104555000D01*
G75*
G02*
X173200000Y-104455000I0J100000D01*
G01*
X173200000Y-103180000D01*
G75*
G02*
X173300000Y-103080000I100000J0D01*
G01*
X173500000Y-103080000D01*
G75*
G02*
X173600000Y-103180000I0J-100000D01*
G01*
X173600000Y-104455000D01*
G75*
G02*
X173500000Y-104555000I-100000J0D01*
G01*
G37*
%TD.AperFunction*%
%TO.P,U14,9*%
%TO.N,GND*%
%TA.AperFunction,SMDPad,CuDef*%
G36*
G01*
X172850000Y-104555000D02*
X172650000Y-104555000D01*
G75*
G02*
X172550000Y-104455000I0J100000D01*
G01*
X172550000Y-103180000D01*
G75*
G02*
X172650000Y-103080000I100000J0D01*
G01*
X172850000Y-103080000D01*
G75*
G02*
X172950000Y-103180000I0J-100000D01*
G01*
X172950000Y-104455000D01*
G75*
G02*
X172850000Y-104555000I-100000J0D01*
G01*
G37*
%TD.AperFunction*%
%TO.P,U14,10*%
%TA.AperFunction,SMDPad,CuDef*%
G36*
G01*
X172200000Y-104555000D02*
X172000000Y-104555000D01*
G75*
G02*
X171900000Y-104455000I0J100000D01*
G01*
X171900000Y-103180000D01*
G75*
G02*
X172000000Y-103080000I100000J0D01*
G01*
X172200000Y-103080000D01*
G75*
G02*
X172300000Y-103180000I0J-100000D01*
G01*
X172300000Y-104455000D01*
G75*
G02*
X172200000Y-104555000I-100000J0D01*
G01*
G37*
%TD.AperFunction*%
%TO.P,U14,11*%
%TO.N,Net-(U14-Pad11)*%
%TA.AperFunction,SMDPad,CuDef*%
G36*
G01*
X171550000Y-104555000D02*
X171350000Y-104555000D01*
G75*
G02*
X171250000Y-104455000I0J100000D01*
G01*
X171250000Y-103180000D01*
G75*
G02*
X171350000Y-103080000I100000J0D01*
G01*
X171550000Y-103080000D01*
G75*
G02*
X171650000Y-103180000I0J-100000D01*
G01*
X171650000Y-104455000D01*
G75*
G02*
X171550000Y-104555000I-100000J0D01*
G01*
G37*
%TD.AperFunction*%
%TO.P,U14,12*%
%TO.N,GND*%
%TA.AperFunction,SMDPad,CuDef*%
G36*
G01*
X170900000Y-104555000D02*
X170700000Y-104555000D01*
G75*
G02*
X170600000Y-104455000I0J100000D01*
G01*
X170600000Y-103180000D01*
G75*
G02*
X170700000Y-103080000I100000J0D01*
G01*
X170900000Y-103080000D01*
G75*
G02*
X171000000Y-103180000I0J-100000D01*
G01*
X171000000Y-104455000D01*
G75*
G02*
X170900000Y-104555000I-100000J0D01*
G01*
G37*
%TD.AperFunction*%
%TO.P,U14,13*%
%TA.AperFunction,SMDPad,CuDef*%
G36*
G01*
X170250000Y-104555000D02*
X170050000Y-104555000D01*
G75*
G02*
X169950000Y-104455000I0J100000D01*
G01*
X169950000Y-103180000D01*
G75*
G02*
X170050000Y-103080000I100000J0D01*
G01*
X170250000Y-103080000D01*
G75*
G02*
X170350000Y-103180000I0J-100000D01*
G01*
X170350000Y-104455000D01*
G75*
G02*
X170250000Y-104555000I-100000J0D01*
G01*
G37*
%TD.AperFunction*%
%TO.P,U14,14*%
%TO.N,VCC*%
%TA.AperFunction,SMDPad,CuDef*%
G36*
G01*
X169600000Y-104555000D02*
X169400000Y-104555000D01*
G75*
G02*
X169300000Y-104455000I0J100000D01*
G01*
X169300000Y-103180000D01*
G75*
G02*
X169400000Y-103080000I100000J0D01*
G01*
X169600000Y-103080000D01*
G75*
G02*
X169700000Y-103180000I0J-100000D01*
G01*
X169700000Y-104455000D01*
G75*
G02*
X169600000Y-104555000I-100000J0D01*
G01*
G37*
%TD.AperFunction*%
%TD*%
%TO.P,U12,1*%
%TO.N,Net-(U10-Pad1)*%
%TA.AperFunction,SMDPad,CuDef*%
G36*
G01*
X169600000Y-97580000D02*
X169400000Y-97580000D01*
G75*
G02*
X169300000Y-97480000I0J100000D01*
G01*
X169300000Y-96205000D01*
G75*
G02*
X169400000Y-96105000I100000J0D01*
G01*
X169600000Y-96105000D01*
G75*
G02*
X169700000Y-96205000I0J-100000D01*
G01*
X169700000Y-97480000D01*
G75*
G02*
X169600000Y-97580000I-100000J0D01*
G01*
G37*
%TD.AperFunction*%
%TO.P,U12,2*%
%TO.N,Net-(U10-Pad13)*%
%TA.AperFunction,SMDPad,CuDef*%
G36*
G01*
X170250000Y-97580000D02*
X170050000Y-97580000D01*
G75*
G02*
X169950000Y-97480000I0J100000D01*
G01*
X169950000Y-96205000D01*
G75*
G02*
X170050000Y-96105000I100000J0D01*
G01*
X170250000Y-96105000D01*
G75*
G02*
X170350000Y-96205000I0J-100000D01*
G01*
X170350000Y-97480000D01*
G75*
G02*
X170250000Y-97580000I-100000J0D01*
G01*
G37*
%TD.AperFunction*%
%TO.P,U12,3*%
%TO.N,Net-(U12-Pad3)*%
%TA.AperFunction,SMDPad,CuDef*%
G36*
G01*
X170900000Y-97580000D02*
X170700000Y-97580000D01*
G75*
G02*
X170600000Y-97480000I0J100000D01*
G01*
X170600000Y-96205000D01*
G75*
G02*
X170700000Y-96105000I100000J0D01*
G01*
X170900000Y-96105000D01*
G75*
G02*
X171000000Y-96205000I0J-100000D01*
G01*
X171000000Y-97480000D01*
G75*
G02*
X170900000Y-97580000I-100000J0D01*
G01*
G37*
%TD.AperFunction*%
%TO.P,U12,4*%
%TO.N,GND*%
%TA.AperFunction,SMDPad,CuDef*%
G36*
G01*
X171550000Y-97580000D02*
X171350000Y-97580000D01*
G75*
G02*
X171250000Y-97480000I0J100000D01*
G01*
X171250000Y-96205000D01*
G75*
G02*
X171350000Y-96105000I100000J0D01*
G01*
X171550000Y-96105000D01*
G75*
G02*
X171650000Y-96205000I0J-100000D01*
G01*
X171650000Y-97480000D01*
G75*
G02*
X171550000Y-97580000I-100000J0D01*
G01*
G37*
%TD.AperFunction*%
%TO.P,U12,5*%
%TO.N,Net-(U11-Pad13)*%
%TA.AperFunction,SMDPad,CuDef*%
G36*
G01*
X172200000Y-97580000D02*
X172000000Y-97580000D01*
G75*
G02*
X171900000Y-97480000I0J100000D01*
G01*
X171900000Y-96205000D01*
G75*
G02*
X172000000Y-96105000I100000J0D01*
G01*
X172200000Y-96105000D01*
G75*
G02*
X172300000Y-96205000I0J-100000D01*
G01*
X172300000Y-97480000D01*
G75*
G02*
X172200000Y-97580000I-100000J0D01*
G01*
G37*
%TD.AperFunction*%
%TO.P,U12,6*%
%TO.N,Net-(U12-Pad10)*%
%TA.AperFunction,SMDPad,CuDef*%
G36*
G01*
X172850000Y-97580000D02*
X172650000Y-97580000D01*
G75*
G02*
X172550000Y-97480000I0J100000D01*
G01*
X172550000Y-96205000D01*
G75*
G02*
X172650000Y-96105000I100000J0D01*
G01*
X172850000Y-96105000D01*
G75*
G02*
X172950000Y-96205000I0J-100000D01*
G01*
X172950000Y-97480000D01*
G75*
G02*
X172850000Y-97580000I-100000J0D01*
G01*
G37*
%TD.AperFunction*%
%TO.P,U12,7*%
%TO.N,GND*%
%TA.AperFunction,SMDPad,CuDef*%
G36*
G01*
X173500000Y-97580000D02*
X173300000Y-97580000D01*
G75*
G02*
X173200000Y-97480000I0J100000D01*
G01*
X173200000Y-96205000D01*
G75*
G02*
X173300000Y-96105000I100000J0D01*
G01*
X173500000Y-96105000D01*
G75*
G02*
X173600000Y-96205000I0J-100000D01*
G01*
X173600000Y-97480000D01*
G75*
G02*
X173500000Y-97580000I-100000J0D01*
G01*
G37*
%TD.AperFunction*%
%TO.P,U12,8*%
%TO.N,Net-(U12-Pad8)*%
%TA.AperFunction,SMDPad,CuDef*%
G36*
G01*
X173500000Y-91855000D02*
X173300000Y-91855000D01*
G75*
G02*
X173200000Y-91755000I0J100000D01*
G01*
X173200000Y-90480000D01*
G75*
G02*
X173300000Y-90380000I100000J0D01*
G01*
X173500000Y-90380000D01*
G75*
G02*
X173600000Y-90480000I0J-100000D01*
G01*
X173600000Y-91755000D01*
G75*
G02*
X173500000Y-91855000I-100000J0D01*
G01*
G37*
%TD.AperFunction*%
%TO.P,U12,9*%
%TO.N,Net-(U12-Pad3)*%
%TA.AperFunction,SMDPad,CuDef*%
G36*
G01*
X172850000Y-91855000D02*
X172650000Y-91855000D01*
G75*
G02*
X172550000Y-91755000I0J100000D01*
G01*
X172550000Y-90480000D01*
G75*
G02*
X172650000Y-90380000I100000J0D01*
G01*
X172850000Y-90380000D01*
G75*
G02*
X172950000Y-90480000I0J-100000D01*
G01*
X172950000Y-91755000D01*
G75*
G02*
X172850000Y-91855000I-100000J0D01*
G01*
G37*
%TD.AperFunction*%
%TO.P,U12,10*%
%TO.N,Net-(U12-Pad10)*%
%TA.AperFunction,SMDPad,CuDef*%
G36*
G01*
X172200000Y-91855000D02*
X172000000Y-91855000D01*
G75*
G02*
X171900000Y-91755000I0J100000D01*
G01*
X171900000Y-90480000D01*
G75*
G02*
X172000000Y-90380000I100000J0D01*
G01*
X172200000Y-90380000D01*
G75*
G02*
X172300000Y-90480000I0J-100000D01*
G01*
X172300000Y-91755000D01*
G75*
G02*
X172200000Y-91855000I-100000J0D01*
G01*
G37*
%TD.AperFunction*%
%TO.P,U12,11*%
%TO.N,Net-(U12-Pad11)*%
%TA.AperFunction,SMDPad,CuDef*%
G36*
G01*
X171550000Y-91855000D02*
X171350000Y-91855000D01*
G75*
G02*
X171250000Y-91755000I0J100000D01*
G01*
X171250000Y-90480000D01*
G75*
G02*
X171350000Y-90380000I100000J0D01*
G01*
X171550000Y-90380000D01*
G75*
G02*
X171650000Y-90480000I0J-100000D01*
G01*
X171650000Y-91755000D01*
G75*
G02*
X171550000Y-91855000I-100000J0D01*
G01*
G37*
%TD.AperFunction*%
%TO.P,U12,12*%
%TO.N,Net-(U12-Pad12)*%
%TA.AperFunction,SMDPad,CuDef*%
G36*
G01*
X170900000Y-91855000D02*
X170700000Y-91855000D01*
G75*
G02*
X170600000Y-91755000I0J100000D01*
G01*
X170600000Y-90480000D01*
G75*
G02*
X170700000Y-90380000I100000J0D01*
G01*
X170900000Y-90380000D01*
G75*
G02*
X171000000Y-90480000I0J-100000D01*
G01*
X171000000Y-91755000D01*
G75*
G02*
X170900000Y-91855000I-100000J0D01*
G01*
G37*
%TD.AperFunction*%
%TO.P,U12,13*%
%TO.N,Net-(U12-Pad13)*%
%TA.AperFunction,SMDPad,CuDef*%
G36*
G01*
X170250000Y-91855000D02*
X170050000Y-91855000D01*
G75*
G02*
X169950000Y-91755000I0J100000D01*
G01*
X169950000Y-90480000D01*
G75*
G02*
X170050000Y-90380000I100000J0D01*
G01*
X170250000Y-90380000D01*
G75*
G02*
X170350000Y-90480000I0J-100000D01*
G01*
X170350000Y-91755000D01*
G75*
G02*
X170250000Y-91855000I-100000J0D01*
G01*
G37*
%TD.AperFunction*%
%TO.P,U12,14*%
%TO.N,VCC*%
%TA.AperFunction,SMDPad,CuDef*%
G36*
G01*
X169600000Y-91855000D02*
X169400000Y-91855000D01*
G75*
G02*
X169300000Y-91755000I0J100000D01*
G01*
X169300000Y-90480000D01*
G75*
G02*
X169400000Y-90380000I100000J0D01*
G01*
X169600000Y-90380000D01*
G75*
G02*
X169700000Y-90480000I0J-100000D01*
G01*
X169700000Y-91755000D01*
G75*
G02*
X169600000Y-91855000I-100000J0D01*
G01*
G37*
%TD.AperFunction*%
%TD*%
%TO.P,U9,1*%
%TO.N,Net-(U6-Pad12)*%
%TA.AperFunction,SMDPad,CuDef*%
G36*
G01*
X145216000Y-110026000D02*
X145016000Y-110026000D01*
G75*
G02*
X144916000Y-109926000I0J100000D01*
G01*
X144916000Y-108651000D01*
G75*
G02*
X145016000Y-108551000I100000J0D01*
G01*
X145216000Y-108551000D01*
G75*
G02*
X145316000Y-108651000I0J-100000D01*
G01*
X145316000Y-109926000D01*
G75*
G02*
X145216000Y-110026000I-100000J0D01*
G01*
G37*
%TD.AperFunction*%
%TO.P,U9,2*%
%TO.N,ZERO_FLAG*%
%TA.AperFunction,SMDPad,CuDef*%
G36*
G01*
X145866000Y-110026000D02*
X145666000Y-110026000D01*
G75*
G02*
X145566000Y-109926000I0J100000D01*
G01*
X145566000Y-108651000D01*
G75*
G02*
X145666000Y-108551000I100000J0D01*
G01*
X145866000Y-108551000D01*
G75*
G02*
X145966000Y-108651000I0J-100000D01*
G01*
X145966000Y-109926000D01*
G75*
G02*
X145866000Y-110026000I-100000J0D01*
G01*
G37*
%TD.AperFunction*%
%TO.P,U9,3*%
%TO.N,~JG_JNLE*%
%TA.AperFunction,SMDPad,CuDef*%
G36*
G01*
X146516000Y-110026000D02*
X146316000Y-110026000D01*
G75*
G02*
X146216000Y-109926000I0J100000D01*
G01*
X146216000Y-108651000D01*
G75*
G02*
X146316000Y-108551000I100000J0D01*
G01*
X146516000Y-108551000D01*
G75*
G02*
X146616000Y-108651000I0J-100000D01*
G01*
X146616000Y-109926000D01*
G75*
G02*
X146516000Y-110026000I-100000J0D01*
G01*
G37*
%TD.AperFunction*%
%TO.P,U9,4*%
%TO.N,OR_JL_JNGE*%
%TA.AperFunction,SMDPad,CuDef*%
G36*
G01*
X147166000Y-110026000D02*
X146966000Y-110026000D01*
G75*
G02*
X146866000Y-109926000I0J100000D01*
G01*
X146866000Y-108651000D01*
G75*
G02*
X146966000Y-108551000I100000J0D01*
G01*
X147166000Y-108551000D01*
G75*
G02*
X147266000Y-108651000I0J-100000D01*
G01*
X147266000Y-109926000D01*
G75*
G02*
X147166000Y-110026000I-100000J0D01*
G01*
G37*
%TD.AperFunction*%
%TO.P,U9,5*%
%TO.N,~JL_JNGE*%
%TA.AperFunction,SMDPad,CuDef*%
G36*
G01*
X147816000Y-110026000D02*
X147616000Y-110026000D01*
G75*
G02*
X147516000Y-109926000I0J100000D01*
G01*
X147516000Y-108651000D01*
G75*
G02*
X147616000Y-108551000I100000J0D01*
G01*
X147816000Y-108551000D01*
G75*
G02*
X147916000Y-108651000I0J-100000D01*
G01*
X147916000Y-109926000D01*
G75*
G02*
X147816000Y-110026000I-100000J0D01*
G01*
G37*
%TD.AperFunction*%
%TO.P,U9,6*%
%TO.N,SF=OF*%
%TA.AperFunction,SMDPad,CuDef*%
G36*
G01*
X148466000Y-110026000D02*
X148266000Y-110026000D01*
G75*
G02*
X148166000Y-109926000I0J100000D01*
G01*
X148166000Y-108651000D01*
G75*
G02*
X148266000Y-108551000I100000J0D01*
G01*
X148466000Y-108551000D01*
G75*
G02*
X148566000Y-108651000I0J-100000D01*
G01*
X148566000Y-109926000D01*
G75*
G02*
X148466000Y-110026000I-100000J0D01*
G01*
G37*
%TD.AperFunction*%
%TO.P,U9,7*%
%TO.N,GND*%
%TA.AperFunction,SMDPad,CuDef*%
G36*
G01*
X149116000Y-110026000D02*
X148916000Y-110026000D01*
G75*
G02*
X148816000Y-109926000I0J100000D01*
G01*
X148816000Y-108651000D01*
G75*
G02*
X148916000Y-108551000I100000J0D01*
G01*
X149116000Y-108551000D01*
G75*
G02*
X149216000Y-108651000I0J-100000D01*
G01*
X149216000Y-109926000D01*
G75*
G02*
X149116000Y-110026000I-100000J0D01*
G01*
G37*
%TD.AperFunction*%
%TO.P,U9,8*%
%TA.AperFunction,SMDPad,CuDef*%
G36*
G01*
X149116000Y-104301000D02*
X148916000Y-104301000D01*
G75*
G02*
X148816000Y-104201000I0J100000D01*
G01*
X148816000Y-102926000D01*
G75*
G02*
X148916000Y-102826000I100000J0D01*
G01*
X149116000Y-102826000D01*
G75*
G02*
X149216000Y-102926000I0J-100000D01*
G01*
X149216000Y-104201000D01*
G75*
G02*
X149116000Y-104301000I-100000J0D01*
G01*
G37*
%TD.AperFunction*%
%TO.P,U9,9*%
%TA.AperFunction,SMDPad,CuDef*%
G36*
G01*
X148466000Y-104301000D02*
X148266000Y-104301000D01*
G75*
G02*
X148166000Y-104201000I0J100000D01*
G01*
X148166000Y-102926000D01*
G75*
G02*
X148266000Y-102826000I100000J0D01*
G01*
X148466000Y-102826000D01*
G75*
G02*
X148566000Y-102926000I0J-100000D01*
G01*
X148566000Y-104201000D01*
G75*
G02*
X148466000Y-104301000I-100000J0D01*
G01*
G37*
%TD.AperFunction*%
%TO.P,U9,10*%
%TO.N,Net-(U9-Pad10)*%
%TA.AperFunction,SMDPad,CuDef*%
G36*
G01*
X147816000Y-104301000D02*
X147616000Y-104301000D01*
G75*
G02*
X147516000Y-104201000I0J100000D01*
G01*
X147516000Y-102926000D01*
G75*
G02*
X147616000Y-102826000I100000J0D01*
G01*
X147816000Y-102826000D01*
G75*
G02*
X147916000Y-102926000I0J-100000D01*
G01*
X147916000Y-104201000D01*
G75*
G02*
X147816000Y-104301000I-100000J0D01*
G01*
G37*
%TD.AperFunction*%
%TO.P,U9,11*%
%TO.N,GND*%
%TA.AperFunction,SMDPad,CuDef*%
G36*
G01*
X147166000Y-104301000D02*
X146966000Y-104301000D01*
G75*
G02*
X146866000Y-104201000I0J100000D01*
G01*
X146866000Y-102926000D01*
G75*
G02*
X146966000Y-102826000I100000J0D01*
G01*
X147166000Y-102826000D01*
G75*
G02*
X147266000Y-102926000I0J-100000D01*
G01*
X147266000Y-104201000D01*
G75*
G02*
X147166000Y-104301000I-100000J0D01*
G01*
G37*
%TD.AperFunction*%
%TO.P,U9,12*%
%TA.AperFunction,SMDPad,CuDef*%
G36*
G01*
X146516000Y-104301000D02*
X146316000Y-104301000D01*
G75*
G02*
X146216000Y-104201000I0J100000D01*
G01*
X146216000Y-102926000D01*
G75*
G02*
X146316000Y-102826000I100000J0D01*
G01*
X146516000Y-102826000D01*
G75*
G02*
X146616000Y-102926000I0J-100000D01*
G01*
X146616000Y-104201000D01*
G75*
G02*
X146516000Y-104301000I-100000J0D01*
G01*
G37*
%TD.AperFunction*%
%TO.P,U9,13*%
%TO.N,Net-(U9-Pad13)*%
%TA.AperFunction,SMDPad,CuDef*%
G36*
G01*
X145866000Y-104301000D02*
X145666000Y-104301000D01*
G75*
G02*
X145566000Y-104201000I0J100000D01*
G01*
X145566000Y-102926000D01*
G75*
G02*
X145666000Y-102826000I100000J0D01*
G01*
X145866000Y-102826000D01*
G75*
G02*
X145966000Y-102926000I0J-100000D01*
G01*
X145966000Y-104201000D01*
G75*
G02*
X145866000Y-104301000I-100000J0D01*
G01*
G37*
%TD.AperFunction*%
%TO.P,U9,14*%
%TO.N,VCC*%
%TA.AperFunction,SMDPad,CuDef*%
G36*
G01*
X145216000Y-104301000D02*
X145016000Y-104301000D01*
G75*
G02*
X144916000Y-104201000I0J100000D01*
G01*
X144916000Y-102926000D01*
G75*
G02*
X145016000Y-102826000I100000J0D01*
G01*
X145216000Y-102826000D01*
G75*
G02*
X145316000Y-102926000I0J-100000D01*
G01*
X145316000Y-104201000D01*
G75*
G02*
X145216000Y-104301000I-100000J0D01*
G01*
G37*
%TD.AperFunction*%
%TD*%
%TO.P,U8,1*%
%TO.N,Net-(U5-Pad13)*%
%TA.AperFunction,SMDPad,CuDef*%
G36*
G01*
X153344000Y-110026000D02*
X153144000Y-110026000D01*
G75*
G02*
X153044000Y-109926000I0J100000D01*
G01*
X153044000Y-108651000D01*
G75*
G02*
X153144000Y-108551000I100000J0D01*
G01*
X153344000Y-108551000D01*
G75*
G02*
X153444000Y-108651000I0J-100000D01*
G01*
X153444000Y-109926000D01*
G75*
G02*
X153344000Y-110026000I-100000J0D01*
G01*
G37*
%TD.AperFunction*%
%TO.P,U8,2*%
%TO.N,Net-(U6-Pad6)*%
%TA.AperFunction,SMDPad,CuDef*%
G36*
G01*
X153994000Y-110026000D02*
X153794000Y-110026000D01*
G75*
G02*
X153694000Y-109926000I0J100000D01*
G01*
X153694000Y-108651000D01*
G75*
G02*
X153794000Y-108551000I100000J0D01*
G01*
X153994000Y-108551000D01*
G75*
G02*
X154094000Y-108651000I0J-100000D01*
G01*
X154094000Y-109926000D01*
G75*
G02*
X153994000Y-110026000I-100000J0D01*
G01*
G37*
%TD.AperFunction*%
%TO.P,U8,3*%
%TO.N,SF=OF*%
%TA.AperFunction,SMDPad,CuDef*%
G36*
G01*
X154644000Y-110026000D02*
X154444000Y-110026000D01*
G75*
G02*
X154344000Y-109926000I0J100000D01*
G01*
X154344000Y-108651000D01*
G75*
G02*
X154444000Y-108551000I100000J0D01*
G01*
X154644000Y-108551000D01*
G75*
G02*
X154744000Y-108651000I0J-100000D01*
G01*
X154744000Y-109926000D01*
G75*
G02*
X154644000Y-110026000I-100000J0D01*
G01*
G37*
%TD.AperFunction*%
%TO.P,U8,4*%
%TO.N,GND*%
%TA.AperFunction,SMDPad,CuDef*%
G36*
G01*
X155294000Y-110026000D02*
X155094000Y-110026000D01*
G75*
G02*
X154994000Y-109926000I0J100000D01*
G01*
X154994000Y-108651000D01*
G75*
G02*
X155094000Y-108551000I100000J0D01*
G01*
X155294000Y-108551000D01*
G75*
G02*
X155394000Y-108651000I0J-100000D01*
G01*
X155394000Y-109926000D01*
G75*
G02*
X155294000Y-110026000I-100000J0D01*
G01*
G37*
%TD.AperFunction*%
%TO.P,U8,5*%
%TA.AperFunction,SMDPad,CuDef*%
G36*
G01*
X155944000Y-110026000D02*
X155744000Y-110026000D01*
G75*
G02*
X155644000Y-109926000I0J100000D01*
G01*
X155644000Y-108651000D01*
G75*
G02*
X155744000Y-108551000I100000J0D01*
G01*
X155944000Y-108551000D01*
G75*
G02*
X156044000Y-108651000I0J-100000D01*
G01*
X156044000Y-109926000D01*
G75*
G02*
X155944000Y-110026000I-100000J0D01*
G01*
G37*
%TD.AperFunction*%
%TO.P,U8,6*%
%TO.N,Net-(U8-Pad6)*%
%TA.AperFunction,SMDPad,CuDef*%
G36*
G01*
X156594000Y-110026000D02*
X156394000Y-110026000D01*
G75*
G02*
X156294000Y-109926000I0J100000D01*
G01*
X156294000Y-108651000D01*
G75*
G02*
X156394000Y-108551000I100000J0D01*
G01*
X156594000Y-108551000D01*
G75*
G02*
X156694000Y-108651000I0J-100000D01*
G01*
X156694000Y-109926000D01*
G75*
G02*
X156594000Y-110026000I-100000J0D01*
G01*
G37*
%TD.AperFunction*%
%TO.P,U8,7*%
%TO.N,GND*%
%TA.AperFunction,SMDPad,CuDef*%
G36*
G01*
X157244000Y-110026000D02*
X157044000Y-110026000D01*
G75*
G02*
X156944000Y-109926000I0J100000D01*
G01*
X156944000Y-108651000D01*
G75*
G02*
X157044000Y-108551000I100000J0D01*
G01*
X157244000Y-108551000D01*
G75*
G02*
X157344000Y-108651000I0J-100000D01*
G01*
X157344000Y-109926000D01*
G75*
G02*
X157244000Y-110026000I-100000J0D01*
G01*
G37*
%TD.AperFunction*%
%TO.P,U8,8*%
%TO.N,Net-(U8-Pad8)*%
%TA.AperFunction,SMDPad,CuDef*%
G36*
G01*
X157244000Y-104301000D02*
X157044000Y-104301000D01*
G75*
G02*
X156944000Y-104201000I0J100000D01*
G01*
X156944000Y-102926000D01*
G75*
G02*
X157044000Y-102826000I100000J0D01*
G01*
X157244000Y-102826000D01*
G75*
G02*
X157344000Y-102926000I0J-100000D01*
G01*
X157344000Y-104201000D01*
G75*
G02*
X157244000Y-104301000I-100000J0D01*
G01*
G37*
%TD.AperFunction*%
%TO.P,U8,9*%
%TO.N,GND*%
%TA.AperFunction,SMDPad,CuDef*%
G36*
G01*
X156594000Y-104301000D02*
X156394000Y-104301000D01*
G75*
G02*
X156294000Y-104201000I0J100000D01*
G01*
X156294000Y-102926000D01*
G75*
G02*
X156394000Y-102826000I100000J0D01*
G01*
X156594000Y-102826000D01*
G75*
G02*
X156694000Y-102926000I0J-100000D01*
G01*
X156694000Y-104201000D01*
G75*
G02*
X156594000Y-104301000I-100000J0D01*
G01*
G37*
%TD.AperFunction*%
%TO.P,U8,10*%
%TA.AperFunction,SMDPad,CuDef*%
G36*
G01*
X155944000Y-104301000D02*
X155744000Y-104301000D01*
G75*
G02*
X155644000Y-104201000I0J100000D01*
G01*
X155644000Y-102926000D01*
G75*
G02*
X155744000Y-102826000I100000J0D01*
G01*
X155944000Y-102826000D01*
G75*
G02*
X156044000Y-102926000I0J-100000D01*
G01*
X156044000Y-104201000D01*
G75*
G02*
X155944000Y-104301000I-100000J0D01*
G01*
G37*
%TD.AperFunction*%
%TO.P,U8,11*%
%TO.N,Net-(U8-Pad11)*%
%TA.AperFunction,SMDPad,CuDef*%
G36*
G01*
X155294000Y-104301000D02*
X155094000Y-104301000D01*
G75*
G02*
X154994000Y-104201000I0J100000D01*
G01*
X154994000Y-102926000D01*
G75*
G02*
X155094000Y-102826000I100000J0D01*
G01*
X155294000Y-102826000D01*
G75*
G02*
X155394000Y-102926000I0J-100000D01*
G01*
X155394000Y-104201000D01*
G75*
G02*
X155294000Y-104301000I-100000J0D01*
G01*
G37*
%TD.AperFunction*%
%TO.P,U8,12*%
%TO.N,GND*%
%TA.AperFunction,SMDPad,CuDef*%
G36*
G01*
X154644000Y-104301000D02*
X154444000Y-104301000D01*
G75*
G02*
X154344000Y-104201000I0J100000D01*
G01*
X154344000Y-102926000D01*
G75*
G02*
X154444000Y-102826000I100000J0D01*
G01*
X154644000Y-102826000D01*
G75*
G02*
X154744000Y-102926000I0J-100000D01*
G01*
X154744000Y-104201000D01*
G75*
G02*
X154644000Y-104301000I-100000J0D01*
G01*
G37*
%TD.AperFunction*%
%TO.P,U8,13*%
%TA.AperFunction,SMDPad,CuDef*%
G36*
G01*
X153994000Y-104301000D02*
X153794000Y-104301000D01*
G75*
G02*
X153694000Y-104201000I0J100000D01*
G01*
X153694000Y-102926000D01*
G75*
G02*
X153794000Y-102826000I100000J0D01*
G01*
X153994000Y-102826000D01*
G75*
G02*
X154094000Y-102926000I0J-100000D01*
G01*
X154094000Y-104201000D01*
G75*
G02*
X153994000Y-104301000I-100000J0D01*
G01*
G37*
%TD.AperFunction*%
%TO.P,U8,14*%
%TO.N,VCC*%
%TA.AperFunction,SMDPad,CuDef*%
G36*
G01*
X153344000Y-104301000D02*
X153144000Y-104301000D01*
G75*
G02*
X153044000Y-104201000I0J100000D01*
G01*
X153044000Y-102926000D01*
G75*
G02*
X153144000Y-102826000I100000J0D01*
G01*
X153344000Y-102826000D01*
G75*
G02*
X153444000Y-102926000I0J-100000D01*
G01*
X153444000Y-104201000D01*
G75*
G02*
X153344000Y-104301000I-100000J0D01*
G01*
G37*
%TD.AperFunction*%
%TD*%
%TO.P,U7,1*%
%TO.N,CARRY_FLAG*%
%TA.AperFunction,SMDPad,CuDef*%
G36*
G01*
X161218000Y-110280000D02*
X161018000Y-110280000D01*
G75*
G02*
X160918000Y-110180000I0J100000D01*
G01*
X160918000Y-108905000D01*
G75*
G02*
X161018000Y-108805000I100000J0D01*
G01*
X161218000Y-108805000D01*
G75*
G02*
X161318000Y-108905000I0J-100000D01*
G01*
X161318000Y-110180000D01*
G75*
G02*
X161218000Y-110280000I-100000J0D01*
G01*
G37*
%TD.AperFunction*%
%TO.P,U7,2*%
%TO.N,ZERO_FLAG*%
%TA.AperFunction,SMDPad,CuDef*%
G36*
G01*
X161868000Y-110280000D02*
X161668000Y-110280000D01*
G75*
G02*
X161568000Y-110180000I0J100000D01*
G01*
X161568000Y-108905000D01*
G75*
G02*
X161668000Y-108805000I100000J0D01*
G01*
X161868000Y-108805000D01*
G75*
G02*
X161968000Y-108905000I0J-100000D01*
G01*
X161968000Y-110180000D01*
G75*
G02*
X161868000Y-110280000I-100000J0D01*
G01*
G37*
%TD.AperFunction*%
%TO.P,U7,3*%
%TO.N,Net-(U6-Pad2)*%
%TA.AperFunction,SMDPad,CuDef*%
G36*
G01*
X162518000Y-110280000D02*
X162318000Y-110280000D01*
G75*
G02*
X162218000Y-110180000I0J100000D01*
G01*
X162218000Y-108905000D01*
G75*
G02*
X162318000Y-108805000I100000J0D01*
G01*
X162518000Y-108805000D01*
G75*
G02*
X162618000Y-108905000I0J-100000D01*
G01*
X162618000Y-110180000D01*
G75*
G02*
X162518000Y-110280000I-100000J0D01*
G01*
G37*
%TD.AperFunction*%
%TO.P,U7,4*%
%TO.N,Net-(U4-Pad8)*%
%TA.AperFunction,SMDPad,CuDef*%
G36*
G01*
X163168000Y-110280000D02*
X162968000Y-110280000D01*
G75*
G02*
X162868000Y-110180000I0J100000D01*
G01*
X162868000Y-108905000D01*
G75*
G02*
X162968000Y-108805000I100000J0D01*
G01*
X163168000Y-108805000D01*
G75*
G02*
X163268000Y-108905000I0J-100000D01*
G01*
X163268000Y-110180000D01*
G75*
G02*
X163168000Y-110280000I-100000J0D01*
G01*
G37*
%TD.AperFunction*%
%TO.P,U7,5*%
%TO.N,ZERO_FLAG*%
%TA.AperFunction,SMDPad,CuDef*%
G36*
G01*
X163818000Y-110280000D02*
X163618000Y-110280000D01*
G75*
G02*
X163518000Y-110180000I0J100000D01*
G01*
X163518000Y-108905000D01*
G75*
G02*
X163618000Y-108805000I100000J0D01*
G01*
X163818000Y-108805000D01*
G75*
G02*
X163918000Y-108905000I0J-100000D01*
G01*
X163918000Y-110180000D01*
G75*
G02*
X163818000Y-110280000I-100000J0D01*
G01*
G37*
%TD.AperFunction*%
%TO.P,U7,6*%
%TO.N,Net-(U14-Pad2)*%
%TA.AperFunction,SMDPad,CuDef*%
G36*
G01*
X164468000Y-110280000D02*
X164268000Y-110280000D01*
G75*
G02*
X164168000Y-110180000I0J100000D01*
G01*
X164168000Y-108905000D01*
G75*
G02*
X164268000Y-108805000I100000J0D01*
G01*
X164468000Y-108805000D01*
G75*
G02*
X164568000Y-108905000I0J-100000D01*
G01*
X164568000Y-110180000D01*
G75*
G02*
X164468000Y-110280000I-100000J0D01*
G01*
G37*
%TD.AperFunction*%
%TO.P,U7,7*%
%TO.N,GND*%
%TA.AperFunction,SMDPad,CuDef*%
G36*
G01*
X165118000Y-110280000D02*
X164918000Y-110280000D01*
G75*
G02*
X164818000Y-110180000I0J100000D01*
G01*
X164818000Y-108905000D01*
G75*
G02*
X164918000Y-108805000I100000J0D01*
G01*
X165118000Y-108805000D01*
G75*
G02*
X165218000Y-108905000I0J-100000D01*
G01*
X165218000Y-110180000D01*
G75*
G02*
X165118000Y-110280000I-100000J0D01*
G01*
G37*
%TD.AperFunction*%
%TO.P,U7,8*%
%TO.N,Net-(U7-Pad8)*%
%TA.AperFunction,SMDPad,CuDef*%
G36*
G01*
X165118000Y-104555000D02*
X164918000Y-104555000D01*
G75*
G02*
X164818000Y-104455000I0J100000D01*
G01*
X164818000Y-103180000D01*
G75*
G02*
X164918000Y-103080000I100000J0D01*
G01*
X165118000Y-103080000D01*
G75*
G02*
X165218000Y-103180000I0J-100000D01*
G01*
X165218000Y-104455000D01*
G75*
G02*
X165118000Y-104555000I-100000J0D01*
G01*
G37*
%TD.AperFunction*%
%TO.P,U7,9*%
%TO.N,GND*%
%TA.AperFunction,SMDPad,CuDef*%
G36*
G01*
X164468000Y-104555000D02*
X164268000Y-104555000D01*
G75*
G02*
X164168000Y-104455000I0J100000D01*
G01*
X164168000Y-103180000D01*
G75*
G02*
X164268000Y-103080000I100000J0D01*
G01*
X164468000Y-103080000D01*
G75*
G02*
X164568000Y-103180000I0J-100000D01*
G01*
X164568000Y-104455000D01*
G75*
G02*
X164468000Y-104555000I-100000J0D01*
G01*
G37*
%TD.AperFunction*%
%TO.P,U7,10*%
%TA.AperFunction,SMDPad,CuDef*%
G36*
G01*
X163818000Y-104555000D02*
X163618000Y-104555000D01*
G75*
G02*
X163518000Y-104455000I0J100000D01*
G01*
X163518000Y-103180000D01*
G75*
G02*
X163618000Y-103080000I100000J0D01*
G01*
X163818000Y-103080000D01*
G75*
G02*
X163918000Y-103180000I0J-100000D01*
G01*
X163918000Y-104455000D01*
G75*
G02*
X163818000Y-104555000I-100000J0D01*
G01*
G37*
%TD.AperFunction*%
%TO.P,U7,11*%
%TO.N,Net-(U7-Pad11)*%
%TA.AperFunction,SMDPad,CuDef*%
G36*
G01*
X163168000Y-104555000D02*
X162968000Y-104555000D01*
G75*
G02*
X162868000Y-104455000I0J100000D01*
G01*
X162868000Y-103180000D01*
G75*
G02*
X162968000Y-103080000I100000J0D01*
G01*
X163168000Y-103080000D01*
G75*
G02*
X163268000Y-103180000I0J-100000D01*
G01*
X163268000Y-104455000D01*
G75*
G02*
X163168000Y-104555000I-100000J0D01*
G01*
G37*
%TD.AperFunction*%
%TO.P,U7,12*%
%TO.N,GND*%
%TA.AperFunction,SMDPad,CuDef*%
G36*
G01*
X162518000Y-104555000D02*
X162318000Y-104555000D01*
G75*
G02*
X162218000Y-104455000I0J100000D01*
G01*
X162218000Y-103180000D01*
G75*
G02*
X162318000Y-103080000I100000J0D01*
G01*
X162518000Y-103080000D01*
G75*
G02*
X162618000Y-103180000I0J-100000D01*
G01*
X162618000Y-104455000D01*
G75*
G02*
X162518000Y-104555000I-100000J0D01*
G01*
G37*
%TD.AperFunction*%
%TO.P,U7,13*%
%TA.AperFunction,SMDPad,CuDef*%
G36*
G01*
X161868000Y-104555000D02*
X161668000Y-104555000D01*
G75*
G02*
X161568000Y-104455000I0J100000D01*
G01*
X161568000Y-103180000D01*
G75*
G02*
X161668000Y-103080000I100000J0D01*
G01*
X161868000Y-103080000D01*
G75*
G02*
X161968000Y-103180000I0J-100000D01*
G01*
X161968000Y-104455000D01*
G75*
G02*
X161868000Y-104555000I-100000J0D01*
G01*
G37*
%TD.AperFunction*%
%TO.P,U7,14*%
%TO.N,VCC*%
%TA.AperFunction,SMDPad,CuDef*%
G36*
G01*
X161218000Y-104555000D02*
X161018000Y-104555000D01*
G75*
G02*
X160918000Y-104455000I0J100000D01*
G01*
X160918000Y-103180000D01*
G75*
G02*
X161018000Y-103080000I100000J0D01*
G01*
X161218000Y-103080000D01*
G75*
G02*
X161318000Y-103180000I0J-100000D01*
G01*
X161318000Y-104455000D01*
G75*
G02*
X161218000Y-104555000I-100000J0D01*
G01*
G37*
%TD.AperFunction*%
%TD*%
%TO.P,U5,1*%
%TO.N,Net-(U5-Pad1)*%
%TA.AperFunction,SMDPad,CuDef*%
G36*
G01*
X158678000Y-97580000D02*
X158478000Y-97580000D01*
G75*
G02*
X158378000Y-97480000I0J100000D01*
G01*
X158378000Y-96205000D01*
G75*
G02*
X158478000Y-96105000I100000J0D01*
G01*
X158678000Y-96105000D01*
G75*
G02*
X158778000Y-96205000I0J-100000D01*
G01*
X158778000Y-97480000D01*
G75*
G02*
X158678000Y-97580000I-100000J0D01*
G01*
G37*
%TD.AperFunction*%
%TO.P,U5,2*%
%TO.N,~JA_JNBE*%
%TA.AperFunction,SMDPad,CuDef*%
G36*
G01*
X159328000Y-97580000D02*
X159128000Y-97580000D01*
G75*
G02*
X159028000Y-97480000I0J100000D01*
G01*
X159028000Y-96205000D01*
G75*
G02*
X159128000Y-96105000I100000J0D01*
G01*
X159328000Y-96105000D01*
G75*
G02*
X159428000Y-96205000I0J-100000D01*
G01*
X159428000Y-97480000D01*
G75*
G02*
X159328000Y-97580000I-100000J0D01*
G01*
G37*
%TD.AperFunction*%
%TO.P,U5,3*%
%TO.N,CARRY_FLAG*%
%TA.AperFunction,SMDPad,CuDef*%
G36*
G01*
X159978000Y-97580000D02*
X159778000Y-97580000D01*
G75*
G02*
X159678000Y-97480000I0J100000D01*
G01*
X159678000Y-96205000D01*
G75*
G02*
X159778000Y-96105000I100000J0D01*
G01*
X159978000Y-96105000D01*
G75*
G02*
X160078000Y-96205000I0J-100000D01*
G01*
X160078000Y-97480000D01*
G75*
G02*
X159978000Y-97580000I-100000J0D01*
G01*
G37*
%TD.AperFunction*%
%TO.P,U5,4*%
%TO.N,Net-(U5-Pad4)*%
%TA.AperFunction,SMDPad,CuDef*%
G36*
G01*
X160628000Y-97580000D02*
X160428000Y-97580000D01*
G75*
G02*
X160328000Y-97480000I0J100000D01*
G01*
X160328000Y-96205000D01*
G75*
G02*
X160428000Y-96105000I100000J0D01*
G01*
X160628000Y-96105000D01*
G75*
G02*
X160728000Y-96205000I0J-100000D01*
G01*
X160728000Y-97480000D01*
G75*
G02*
X160628000Y-97580000I-100000J0D01*
G01*
G37*
%TD.AperFunction*%
%TO.P,U5,5*%
%TO.N,Net-(U5-Pad1)*%
%TA.AperFunction,SMDPad,CuDef*%
G36*
G01*
X161278000Y-97580000D02*
X161078000Y-97580000D01*
G75*
G02*
X160978000Y-97480000I0J100000D01*
G01*
X160978000Y-96205000D01*
G75*
G02*
X161078000Y-96105000I100000J0D01*
G01*
X161278000Y-96105000D01*
G75*
G02*
X161378000Y-96205000I0J-100000D01*
G01*
X161378000Y-97480000D01*
G75*
G02*
X161278000Y-97580000I-100000J0D01*
G01*
G37*
%TD.AperFunction*%
%TO.P,U5,6*%
%TA.AperFunction,SMDPad,CuDef*%
G36*
G01*
X161928000Y-97580000D02*
X161728000Y-97580000D01*
G75*
G02*
X161628000Y-97480000I0J100000D01*
G01*
X161628000Y-96205000D01*
G75*
G02*
X161728000Y-96105000I100000J0D01*
G01*
X161928000Y-96105000D01*
G75*
G02*
X162028000Y-96205000I0J-100000D01*
G01*
X162028000Y-97480000D01*
G75*
G02*
X161928000Y-97580000I-100000J0D01*
G01*
G37*
%TD.AperFunction*%
%TO.P,U5,7*%
%TO.N,GND*%
%TA.AperFunction,SMDPad,CuDef*%
G36*
G01*
X162578000Y-97580000D02*
X162378000Y-97580000D01*
G75*
G02*
X162278000Y-97480000I0J100000D01*
G01*
X162278000Y-96205000D01*
G75*
G02*
X162378000Y-96105000I100000J0D01*
G01*
X162578000Y-96105000D01*
G75*
G02*
X162678000Y-96205000I0J-100000D01*
G01*
X162678000Y-97480000D01*
G75*
G02*
X162578000Y-97580000I-100000J0D01*
G01*
G37*
%TD.AperFunction*%
%TO.P,U5,8*%
%TO.N,Net-(U5-Pad4)*%
%TA.AperFunction,SMDPad,CuDef*%
G36*
G01*
X162578000Y-91855000D02*
X162378000Y-91855000D01*
G75*
G02*
X162278000Y-91755000I0J100000D01*
G01*
X162278000Y-90480000D01*
G75*
G02*
X162378000Y-90380000I100000J0D01*
G01*
X162578000Y-90380000D01*
G75*
G02*
X162678000Y-90480000I0J-100000D01*
G01*
X162678000Y-91755000D01*
G75*
G02*
X162578000Y-91855000I-100000J0D01*
G01*
G37*
%TD.AperFunction*%
%TO.P,U5,9*%
%TO.N,ZERO_FLAG*%
%TA.AperFunction,SMDPad,CuDef*%
G36*
G01*
X161928000Y-91855000D02*
X161728000Y-91855000D01*
G75*
G02*
X161628000Y-91755000I0J100000D01*
G01*
X161628000Y-90480000D01*
G75*
G02*
X161728000Y-90380000I100000J0D01*
G01*
X161928000Y-90380000D01*
G75*
G02*
X162028000Y-90480000I0J-100000D01*
G01*
X162028000Y-91755000D01*
G75*
G02*
X161928000Y-91855000I-100000J0D01*
G01*
G37*
%TD.AperFunction*%
%TO.P,U5,10*%
%TO.N,OR_JA_JNBE*%
%TA.AperFunction,SMDPad,CuDef*%
G36*
G01*
X161278000Y-91855000D02*
X161078000Y-91855000D01*
G75*
G02*
X160978000Y-91755000I0J100000D01*
G01*
X160978000Y-90480000D01*
G75*
G02*
X161078000Y-90380000I100000J0D01*
G01*
X161278000Y-90380000D01*
G75*
G02*
X161378000Y-90480000I0J-100000D01*
G01*
X161378000Y-91755000D01*
G75*
G02*
X161278000Y-91855000I-100000J0D01*
G01*
G37*
%TD.AperFunction*%
%TO.P,U5,11*%
%TO.N,OVERFLOW_FLAG*%
%TA.AperFunction,SMDPad,CuDef*%
G36*
G01*
X160628000Y-91855000D02*
X160428000Y-91855000D01*
G75*
G02*
X160328000Y-91755000I0J100000D01*
G01*
X160328000Y-90480000D01*
G75*
G02*
X160428000Y-90380000I100000J0D01*
G01*
X160628000Y-90380000D01*
G75*
G02*
X160728000Y-90480000I0J-100000D01*
G01*
X160728000Y-91755000D01*
G75*
G02*
X160628000Y-91855000I-100000J0D01*
G01*
G37*
%TD.AperFunction*%
%TO.P,U5,12*%
%TO.N,SIGN_FLAG*%
%TA.AperFunction,SMDPad,CuDef*%
G36*
G01*
X159978000Y-91855000D02*
X159778000Y-91855000D01*
G75*
G02*
X159678000Y-91755000I0J100000D01*
G01*
X159678000Y-90480000D01*
G75*
G02*
X159778000Y-90380000I100000J0D01*
G01*
X159978000Y-90380000D01*
G75*
G02*
X160078000Y-90480000I0J-100000D01*
G01*
X160078000Y-91755000D01*
G75*
G02*
X159978000Y-91855000I-100000J0D01*
G01*
G37*
%TD.AperFunction*%
%TO.P,U5,13*%
%TO.N,Net-(U5-Pad13)*%
%TA.AperFunction,SMDPad,CuDef*%
G36*
G01*
X159328000Y-91855000D02*
X159128000Y-91855000D01*
G75*
G02*
X159028000Y-91755000I0J100000D01*
G01*
X159028000Y-90480000D01*
G75*
G02*
X159128000Y-90380000I100000J0D01*
G01*
X159328000Y-90380000D01*
G75*
G02*
X159428000Y-90480000I0J-100000D01*
G01*
X159428000Y-91755000D01*
G75*
G02*
X159328000Y-91855000I-100000J0D01*
G01*
G37*
%TD.AperFunction*%
%TO.P,U5,14*%
%TO.N,VCC*%
%TA.AperFunction,SMDPad,CuDef*%
G36*
G01*
X158678000Y-91855000D02*
X158478000Y-91855000D01*
G75*
G02*
X158378000Y-91755000I0J100000D01*
G01*
X158378000Y-90480000D01*
G75*
G02*
X158478000Y-90380000I100000J0D01*
G01*
X158678000Y-90380000D01*
G75*
G02*
X158778000Y-90480000I0J-100000D01*
G01*
X158778000Y-91755000D01*
G75*
G02*
X158678000Y-91855000I-100000J0D01*
G01*
G37*
%TD.AperFunction*%
%TD*%
%TO.P,U4,1*%
%TO.N,~JBE_JNA*%
%TA.AperFunction,SMDPad,CuDef*%
G36*
G01*
X129468000Y-110026000D02*
X129268000Y-110026000D01*
G75*
G02*
X129168000Y-109926000I0J100000D01*
G01*
X129168000Y-108651000D01*
G75*
G02*
X129268000Y-108551000I100000J0D01*
G01*
X129468000Y-108551000D01*
G75*
G02*
X129568000Y-108651000I0J-100000D01*
G01*
X129568000Y-109926000D01*
G75*
G02*
X129468000Y-110026000I-100000J0D01*
G01*
G37*
%TD.AperFunction*%
%TO.P,U4,2*%
%TO.N,Net-(U4-Pad2)*%
%TA.AperFunction,SMDPad,CuDef*%
G36*
G01*
X130118000Y-110026000D02*
X129918000Y-110026000D01*
G75*
G02*
X129818000Y-109926000I0J100000D01*
G01*
X129818000Y-108651000D01*
G75*
G02*
X129918000Y-108551000I100000J0D01*
G01*
X130118000Y-108551000D01*
G75*
G02*
X130218000Y-108651000I0J-100000D01*
G01*
X130218000Y-109926000D01*
G75*
G02*
X130118000Y-110026000I-100000J0D01*
G01*
G37*
%TD.AperFunction*%
%TO.P,U4,3*%
%TO.N,~JGE_JNL*%
%TA.AperFunction,SMDPad,CuDef*%
G36*
G01*
X130768000Y-110026000D02*
X130568000Y-110026000D01*
G75*
G02*
X130468000Y-109926000I0J100000D01*
G01*
X130468000Y-108651000D01*
G75*
G02*
X130568000Y-108551000I100000J0D01*
G01*
X130768000Y-108551000D01*
G75*
G02*
X130868000Y-108651000I0J-100000D01*
G01*
X130868000Y-109926000D01*
G75*
G02*
X130768000Y-110026000I-100000J0D01*
G01*
G37*
%TD.AperFunction*%
%TO.P,U4,4*%
%TO.N,Net-(U4-Pad4)*%
%TA.AperFunction,SMDPad,CuDef*%
G36*
G01*
X131418000Y-110026000D02*
X131218000Y-110026000D01*
G75*
G02*
X131118000Y-109926000I0J100000D01*
G01*
X131118000Y-108651000D01*
G75*
G02*
X131218000Y-108551000I100000J0D01*
G01*
X131418000Y-108551000D01*
G75*
G02*
X131518000Y-108651000I0J-100000D01*
G01*
X131518000Y-109926000D01*
G75*
G02*
X131418000Y-110026000I-100000J0D01*
G01*
G37*
%TD.AperFunction*%
%TO.P,U4,5*%
%TO.N,~JLE_JNG*%
%TA.AperFunction,SMDPad,CuDef*%
G36*
G01*
X132068000Y-110026000D02*
X131868000Y-110026000D01*
G75*
G02*
X131768000Y-109926000I0J100000D01*
G01*
X131768000Y-108651000D01*
G75*
G02*
X131868000Y-108551000I100000J0D01*
G01*
X132068000Y-108551000D01*
G75*
G02*
X132168000Y-108651000I0J-100000D01*
G01*
X132168000Y-109926000D01*
G75*
G02*
X132068000Y-110026000I-100000J0D01*
G01*
G37*
%TD.AperFunction*%
%TO.P,U4,6*%
%TO.N,Net-(U14-Pad1)*%
%TA.AperFunction,SMDPad,CuDef*%
G36*
G01*
X132718000Y-110026000D02*
X132518000Y-110026000D01*
G75*
G02*
X132418000Y-109926000I0J100000D01*
G01*
X132418000Y-108651000D01*
G75*
G02*
X132518000Y-108551000I100000J0D01*
G01*
X132718000Y-108551000D01*
G75*
G02*
X132818000Y-108651000I0J-100000D01*
G01*
X132818000Y-109926000D01*
G75*
G02*
X132718000Y-110026000I-100000J0D01*
G01*
G37*
%TD.AperFunction*%
%TO.P,U4,7*%
%TO.N,GND*%
%TA.AperFunction,SMDPad,CuDef*%
G36*
G01*
X133368000Y-110026000D02*
X133168000Y-110026000D01*
G75*
G02*
X133068000Y-109926000I0J100000D01*
G01*
X133068000Y-108651000D01*
G75*
G02*
X133168000Y-108551000I100000J0D01*
G01*
X133368000Y-108551000D01*
G75*
G02*
X133468000Y-108651000I0J-100000D01*
G01*
X133468000Y-109926000D01*
G75*
G02*
X133368000Y-110026000I-100000J0D01*
G01*
G37*
%TD.AperFunction*%
%TO.P,U4,8*%
%TO.N,Net-(U4-Pad8)*%
%TA.AperFunction,SMDPad,CuDef*%
G36*
G01*
X133368000Y-104301000D02*
X133168000Y-104301000D01*
G75*
G02*
X133068000Y-104201000I0J100000D01*
G01*
X133068000Y-102926000D01*
G75*
G02*
X133168000Y-102826000I100000J0D01*
G01*
X133368000Y-102826000D01*
G75*
G02*
X133468000Y-102926000I0J-100000D01*
G01*
X133468000Y-104201000D01*
G75*
G02*
X133368000Y-104301000I-100000J0D01*
G01*
G37*
%TD.AperFunction*%
%TO.P,U4,9*%
%TO.N,SF=OF*%
%TA.AperFunction,SMDPad,CuDef*%
G36*
G01*
X132718000Y-104301000D02*
X132518000Y-104301000D01*
G75*
G02*
X132418000Y-104201000I0J100000D01*
G01*
X132418000Y-102926000D01*
G75*
G02*
X132518000Y-102826000I100000J0D01*
G01*
X132718000Y-102826000D01*
G75*
G02*
X132818000Y-102926000I0J-100000D01*
G01*
X132818000Y-104201000D01*
G75*
G02*
X132718000Y-104301000I-100000J0D01*
G01*
G37*
%TD.AperFunction*%
%TO.P,U4,10*%
%TO.N,Net-(U4-Pad10)*%
%TA.AperFunction,SMDPad,CuDef*%
G36*
G01*
X132068000Y-104301000D02*
X131868000Y-104301000D01*
G75*
G02*
X131768000Y-104201000I0J100000D01*
G01*
X131768000Y-102926000D01*
G75*
G02*
X131868000Y-102826000I100000J0D01*
G01*
X132068000Y-102826000D01*
G75*
G02*
X132168000Y-102926000I0J-100000D01*
G01*
X132168000Y-104201000D01*
G75*
G02*
X132068000Y-104301000I-100000J0D01*
G01*
G37*
%TD.AperFunction*%
%TO.P,U4,11*%
%TO.N,GND*%
%TA.AperFunction,SMDPad,CuDef*%
G36*
G01*
X131418000Y-104301000D02*
X131218000Y-104301000D01*
G75*
G02*
X131118000Y-104201000I0J100000D01*
G01*
X131118000Y-102926000D01*
G75*
G02*
X131218000Y-102826000I100000J0D01*
G01*
X131418000Y-102826000D01*
G75*
G02*
X131518000Y-102926000I0J-100000D01*
G01*
X131518000Y-104201000D01*
G75*
G02*
X131418000Y-104301000I-100000J0D01*
G01*
G37*
%TD.AperFunction*%
%TO.P,U4,12*%
%TO.N,LOAD_PROGRAM_COUNTER_COND*%
%TA.AperFunction,SMDPad,CuDef*%
G36*
G01*
X130768000Y-104301000D02*
X130568000Y-104301000D01*
G75*
G02*
X130468000Y-104201000I0J100000D01*
G01*
X130468000Y-102926000D01*
G75*
G02*
X130568000Y-102826000I100000J0D01*
G01*
X130768000Y-102826000D01*
G75*
G02*
X130868000Y-102926000I0J-100000D01*
G01*
X130868000Y-104201000D01*
G75*
G02*
X130768000Y-104301000I-100000J0D01*
G01*
G37*
%TD.AperFunction*%
%TO.P,U4,13*%
%TO.N,Net-(U12-Pad8)*%
%TA.AperFunction,SMDPad,CuDef*%
G36*
G01*
X130118000Y-104301000D02*
X129918000Y-104301000D01*
G75*
G02*
X129818000Y-104201000I0J100000D01*
G01*
X129818000Y-102926000D01*
G75*
G02*
X129918000Y-102826000I100000J0D01*
G01*
X130118000Y-102826000D01*
G75*
G02*
X130218000Y-102926000I0J-100000D01*
G01*
X130218000Y-104201000D01*
G75*
G02*
X130118000Y-104301000I-100000J0D01*
G01*
G37*
%TD.AperFunction*%
%TO.P,U4,14*%
%TO.N,VCC*%
%TA.AperFunction,SMDPad,CuDef*%
G36*
G01*
X129468000Y-104301000D02*
X129268000Y-104301000D01*
G75*
G02*
X129168000Y-104201000I0J100000D01*
G01*
X129168000Y-102926000D01*
G75*
G02*
X129268000Y-102826000I100000J0D01*
G01*
X129468000Y-102826000D01*
G75*
G02*
X129568000Y-102926000I0J-100000D01*
G01*
X129568000Y-104201000D01*
G75*
G02*
X129468000Y-104301000I-100000J0D01*
G01*
G37*
%TD.AperFunction*%
%TD*%
%TO.P,U13,24*%
%TO.N,VCC*%
%TA.AperFunction,SMDPad,CuDef*%
G36*
G01*
X113469000Y-104879000D02*
X113469000Y-105179000D01*
G75*
G02*
X113319000Y-105329000I-150000J0D01*
G01*
X111569000Y-105329000D01*
G75*
G02*
X111419000Y-105179000I0J150000D01*
G01*
X111419000Y-104879000D01*
G75*
G02*
X111569000Y-104729000I150000J0D01*
G01*
X113319000Y-104729000D01*
G75*
G02*
X113469000Y-104879000I0J-150000D01*
G01*
G37*
%TD.AperFunction*%
%TO.P,U13,23*%
%TO.N,ADR0*%
%TA.AperFunction,SMDPad,CuDef*%
G36*
G01*
X113469000Y-103609000D02*
X113469000Y-103909000D01*
G75*
G02*
X113319000Y-104059000I-150000J0D01*
G01*
X111569000Y-104059000D01*
G75*
G02*
X111419000Y-103909000I0J150000D01*
G01*
X111419000Y-103609000D01*
G75*
G02*
X111569000Y-103459000I150000J0D01*
G01*
X113319000Y-103459000D01*
G75*
G02*
X113469000Y-103609000I0J-150000D01*
G01*
G37*
%TD.AperFunction*%
%TO.P,U13,22*%
%TO.N,ADR1*%
%TA.AperFunction,SMDPad,CuDef*%
G36*
G01*
X113469000Y-102339000D02*
X113469000Y-102639000D01*
G75*
G02*
X113319000Y-102789000I-150000J0D01*
G01*
X111569000Y-102789000D01*
G75*
G02*
X111419000Y-102639000I0J150000D01*
G01*
X111419000Y-102339000D01*
G75*
G02*
X111569000Y-102189000I150000J0D01*
G01*
X113319000Y-102189000D01*
G75*
G02*
X113469000Y-102339000I0J-150000D01*
G01*
G37*
%TD.AperFunction*%
%TO.P,U13,21*%
%TO.N,ADR2*%
%TA.AperFunction,SMDPad,CuDef*%
G36*
G01*
X113469000Y-101069000D02*
X113469000Y-101369000D01*
G75*
G02*
X113319000Y-101519000I-150000J0D01*
G01*
X111569000Y-101519000D01*
G75*
G02*
X111419000Y-101369000I0J150000D01*
G01*
X111419000Y-101069000D01*
G75*
G02*
X111569000Y-100919000I150000J0D01*
G01*
X113319000Y-100919000D01*
G75*
G02*
X113469000Y-101069000I0J-150000D01*
G01*
G37*
%TD.AperFunction*%
%TO.P,U13,20*%
%TO.N,ADR3*%
%TA.AperFunction,SMDPad,CuDef*%
G36*
G01*
X113469000Y-99799000D02*
X113469000Y-100099000D01*
G75*
G02*
X113319000Y-100249000I-150000J0D01*
G01*
X111569000Y-100249000D01*
G75*
G02*
X111419000Y-100099000I0J150000D01*
G01*
X111419000Y-99799000D01*
G75*
G02*
X111569000Y-99649000I150000J0D01*
G01*
X113319000Y-99649000D01*
G75*
G02*
X113469000Y-99799000I0J-150000D01*
G01*
G37*
%TD.AperFunction*%
%TO.P,U13,19*%
%TO.N,GND*%
%TA.AperFunction,SMDPad,CuDef*%
G36*
G01*
X113469000Y-98529000D02*
X113469000Y-98829000D01*
G75*
G02*
X113319000Y-98979000I-150000J0D01*
G01*
X111569000Y-98979000D01*
G75*
G02*
X111419000Y-98829000I0J150000D01*
G01*
X111419000Y-98529000D01*
G75*
G02*
X111569000Y-98379000I150000J0D01*
G01*
X113319000Y-98379000D01*
G75*
G02*
X113469000Y-98529000I0J-150000D01*
G01*
G37*
%TD.AperFunction*%
%TO.P,U13,18*%
%TO.N,EN*%
%TA.AperFunction,SMDPad,CuDef*%
G36*
G01*
X113469000Y-97259000D02*
X113469000Y-97559000D01*
G75*
G02*
X113319000Y-97709000I-150000J0D01*
G01*
X111569000Y-97709000D01*
G75*
G02*
X111419000Y-97559000I0J150000D01*
G01*
X111419000Y-97259000D01*
G75*
G02*
X111569000Y-97109000I150000J0D01*
G01*
X113319000Y-97109000D01*
G75*
G02*
X113469000Y-97259000I0J-150000D01*
G01*
G37*
%TD.AperFunction*%
%TO.P,U13,17*%
%TO.N,Net-(U13-Pad17)*%
%TA.AperFunction,SMDPad,CuDef*%
G36*
G01*
X113469000Y-95989000D02*
X113469000Y-96289000D01*
G75*
G02*
X113319000Y-96439000I-150000J0D01*
G01*
X111569000Y-96439000D01*
G75*
G02*
X111419000Y-96289000I0J150000D01*
G01*
X111419000Y-95989000D01*
G75*
G02*
X111569000Y-95839000I150000J0D01*
G01*
X113319000Y-95839000D01*
G75*
G02*
X113469000Y-95989000I0J-150000D01*
G01*
G37*
%TD.AperFunction*%
%TO.P,U13,16*%
%TO.N,~JO*%
%TA.AperFunction,SMDPad,CuDef*%
G36*
G01*
X113469000Y-94719000D02*
X113469000Y-95019000D01*
G75*
G02*
X113319000Y-95169000I-150000J0D01*
G01*
X111569000Y-95169000D01*
G75*
G02*
X111419000Y-95019000I0J150000D01*
G01*
X111419000Y-94719000D01*
G75*
G02*
X111569000Y-94569000I150000J0D01*
G01*
X113319000Y-94569000D01*
G75*
G02*
X113469000Y-94719000I0J-150000D01*
G01*
G37*
%TD.AperFunction*%
%TO.P,U13,15*%
%TO.N,~JNO*%
%TA.AperFunction,SMDPad,CuDef*%
G36*
G01*
X113469000Y-93449000D02*
X113469000Y-93749000D01*
G75*
G02*
X113319000Y-93899000I-150000J0D01*
G01*
X111569000Y-93899000D01*
G75*
G02*
X111419000Y-93749000I0J150000D01*
G01*
X111419000Y-93449000D01*
G75*
G02*
X111569000Y-93299000I150000J0D01*
G01*
X113319000Y-93299000D01*
G75*
G02*
X113469000Y-93449000I0J-150000D01*
G01*
G37*
%TD.AperFunction*%
%TO.P,U13,14*%
%TO.N,~JS*%
%TA.AperFunction,SMDPad,CuDef*%
G36*
G01*
X113469000Y-92179000D02*
X113469000Y-92479000D01*
G75*
G02*
X113319000Y-92629000I-150000J0D01*
G01*
X111569000Y-92629000D01*
G75*
G02*
X111419000Y-92479000I0J150000D01*
G01*
X111419000Y-92179000D01*
G75*
G02*
X111569000Y-92029000I150000J0D01*
G01*
X113319000Y-92029000D01*
G75*
G02*
X113469000Y-92179000I0J-150000D01*
G01*
G37*
%TD.AperFunction*%
%TO.P,U13,13*%
%TO.N,~JNS*%
%TA.AperFunction,SMDPad,CuDef*%
G36*
G01*
X113469000Y-90909000D02*
X113469000Y-91209000D01*
G75*
G02*
X113319000Y-91359000I-150000J0D01*
G01*
X111569000Y-91359000D01*
G75*
G02*
X111419000Y-91209000I0J150000D01*
G01*
X111419000Y-90909000D01*
G75*
G02*
X111569000Y-90759000I150000J0D01*
G01*
X113319000Y-90759000D01*
G75*
G02*
X113469000Y-90909000I0J-150000D01*
G01*
G37*
%TD.AperFunction*%
%TO.P,U13,12*%
%TO.N,GND*%
%TA.AperFunction,SMDPad,CuDef*%
G36*
G01*
X122769000Y-90909000D02*
X122769000Y-91209000D01*
G75*
G02*
X122619000Y-91359000I-150000J0D01*
G01*
X120869000Y-91359000D01*
G75*
G02*
X120719000Y-91209000I0J150000D01*
G01*
X120719000Y-90909000D01*
G75*
G02*
X120869000Y-90759000I150000J0D01*
G01*
X122619000Y-90759000D01*
G75*
G02*
X122769000Y-90909000I0J-150000D01*
G01*
G37*
%TD.AperFunction*%
%TO.P,U13,11*%
%TO.N,~JE_JZ*%
%TA.AperFunction,SMDPad,CuDef*%
G36*
G01*
X122769000Y-92179000D02*
X122769000Y-92479000D01*
G75*
G02*
X122619000Y-92629000I-150000J0D01*
G01*
X120869000Y-92629000D01*
G75*
G02*
X120719000Y-92479000I0J150000D01*
G01*
X120719000Y-92179000D01*
G75*
G02*
X120869000Y-92029000I150000J0D01*
G01*
X122619000Y-92029000D01*
G75*
G02*
X122769000Y-92179000I0J-150000D01*
G01*
G37*
%TD.AperFunction*%
%TO.P,U13,10*%
%TO.N,~JNE_JNZ*%
%TA.AperFunction,SMDPad,CuDef*%
G36*
G01*
X122769000Y-93449000D02*
X122769000Y-93749000D01*
G75*
G02*
X122619000Y-93899000I-150000J0D01*
G01*
X120869000Y-93899000D01*
G75*
G02*
X120719000Y-93749000I0J150000D01*
G01*
X120719000Y-93449000D01*
G75*
G02*
X120869000Y-93299000I150000J0D01*
G01*
X122619000Y-93299000D01*
G75*
G02*
X122769000Y-93449000I0J-150000D01*
G01*
G37*
%TD.AperFunction*%
%TO.P,U13,9*%
%TO.N,~JB_JNAE_JC*%
%TA.AperFunction,SMDPad,CuDef*%
G36*
G01*
X122769000Y-94719000D02*
X122769000Y-95019000D01*
G75*
G02*
X122619000Y-95169000I-150000J0D01*
G01*
X120869000Y-95169000D01*
G75*
G02*
X120719000Y-95019000I0J150000D01*
G01*
X120719000Y-94719000D01*
G75*
G02*
X120869000Y-94569000I150000J0D01*
G01*
X122619000Y-94569000D01*
G75*
G02*
X122769000Y-94719000I0J-150000D01*
G01*
G37*
%TD.AperFunction*%
%TO.P,U13,8*%
%TO.N,~JNB_JAE_JNC*%
%TA.AperFunction,SMDPad,CuDef*%
G36*
G01*
X122769000Y-95989000D02*
X122769000Y-96289000D01*
G75*
G02*
X122619000Y-96439000I-150000J0D01*
G01*
X120869000Y-96439000D01*
G75*
G02*
X120719000Y-96289000I0J150000D01*
G01*
X120719000Y-95989000D01*
G75*
G02*
X120869000Y-95839000I150000J0D01*
G01*
X122619000Y-95839000D01*
G75*
G02*
X122769000Y-95989000I0J-150000D01*
G01*
G37*
%TD.AperFunction*%
%TO.P,U13,7*%
%TO.N,~JBE_JNA*%
%TA.AperFunction,SMDPad,CuDef*%
G36*
G01*
X122769000Y-97259000D02*
X122769000Y-97559000D01*
G75*
G02*
X122619000Y-97709000I-150000J0D01*
G01*
X120869000Y-97709000D01*
G75*
G02*
X120719000Y-97559000I0J150000D01*
G01*
X120719000Y-97259000D01*
G75*
G02*
X120869000Y-97109000I150000J0D01*
G01*
X122619000Y-97109000D01*
G75*
G02*
X122769000Y-97259000I0J-150000D01*
G01*
G37*
%TD.AperFunction*%
%TO.P,U13,6*%
%TO.N,~JA_JNBE*%
%TA.AperFunction,SMDPad,CuDef*%
G36*
G01*
X122769000Y-98529000D02*
X122769000Y-98829000D01*
G75*
G02*
X122619000Y-98979000I-150000J0D01*
G01*
X120869000Y-98979000D01*
G75*
G02*
X120719000Y-98829000I0J150000D01*
G01*
X120719000Y-98529000D01*
G75*
G02*
X120869000Y-98379000I150000J0D01*
G01*
X122619000Y-98379000D01*
G75*
G02*
X122769000Y-98529000I0J-150000D01*
G01*
G37*
%TD.AperFunction*%
%TO.P,U13,5*%
%TO.N,~JL_JNGE*%
%TA.AperFunction,SMDPad,CuDef*%
G36*
G01*
X122769000Y-99799000D02*
X122769000Y-100099000D01*
G75*
G02*
X122619000Y-100249000I-150000J0D01*
G01*
X120869000Y-100249000D01*
G75*
G02*
X120719000Y-100099000I0J150000D01*
G01*
X120719000Y-99799000D01*
G75*
G02*
X120869000Y-99649000I150000J0D01*
G01*
X122619000Y-99649000D01*
G75*
G02*
X122769000Y-99799000I0J-150000D01*
G01*
G37*
%TD.AperFunction*%
%TO.P,U13,4*%
%TO.N,~JGE_JNL*%
%TA.AperFunction,SMDPad,CuDef*%
G36*
G01*
X122769000Y-101069000D02*
X122769000Y-101369000D01*
G75*
G02*
X122619000Y-101519000I-150000J0D01*
G01*
X120869000Y-101519000D01*
G75*
G02*
X120719000Y-101369000I0J150000D01*
G01*
X120719000Y-101069000D01*
G75*
G02*
X120869000Y-100919000I150000J0D01*
G01*
X122619000Y-100919000D01*
G75*
G02*
X122769000Y-101069000I0J-150000D01*
G01*
G37*
%TD.AperFunction*%
%TO.P,U13,3*%
%TO.N,~JG_JNLE*%
%TA.AperFunction,SMDPad,CuDef*%
G36*
G01*
X122769000Y-102339000D02*
X122769000Y-102639000D01*
G75*
G02*
X122619000Y-102789000I-150000J0D01*
G01*
X120869000Y-102789000D01*
G75*
G02*
X120719000Y-102639000I0J150000D01*
G01*
X120719000Y-102339000D01*
G75*
G02*
X120869000Y-102189000I150000J0D01*
G01*
X122619000Y-102189000D01*
G75*
G02*
X122769000Y-102339000I0J-150000D01*
G01*
G37*
%TD.AperFunction*%
%TO.P,U13,2*%
%TO.N,~JLE_JNG*%
%TA.AperFunction,SMDPad,CuDef*%
G36*
G01*
X122769000Y-103609000D02*
X122769000Y-103909000D01*
G75*
G02*
X122619000Y-104059000I-150000J0D01*
G01*
X120869000Y-104059000D01*
G75*
G02*
X120719000Y-103909000I0J150000D01*
G01*
X120719000Y-103609000D01*
G75*
G02*
X120869000Y-103459000I150000J0D01*
G01*
X122619000Y-103459000D01*
G75*
G02*
X122769000Y-103609000I0J-150000D01*
G01*
G37*
%TD.AperFunction*%
%TO.P,U13,1*%
%TO.N,~J*%
%TA.AperFunction,SMDPad,CuDef*%
G36*
G01*
X122769000Y-104879000D02*
X122769000Y-105179000D01*
G75*
G02*
X122619000Y-105329000I-150000J0D01*
G01*
X120869000Y-105329000D01*
G75*
G02*
X120719000Y-105179000I0J150000D01*
G01*
X120719000Y-104879000D01*
G75*
G02*
X120869000Y-104729000I150000J0D01*
G01*
X122619000Y-104729000D01*
G75*
G02*
X122769000Y-104879000I0J-150000D01*
G01*
G37*
%TD.AperFunction*%
%TD*%
%TO.P,U3,14*%
%TO.N,VCC*%
%TA.AperFunction,SMDPad,CuDef*%
G36*
G01*
X138358000Y-91855000D02*
X138158000Y-91855000D01*
G75*
G02*
X138058000Y-91755000I0J100000D01*
G01*
X138058000Y-90480000D01*
G75*
G02*
X138158000Y-90380000I100000J0D01*
G01*
X138358000Y-90380000D01*
G75*
G02*
X138458000Y-90480000I0J-100000D01*
G01*
X138458000Y-91755000D01*
G75*
G02*
X138358000Y-91855000I-100000J0D01*
G01*
G37*
%TD.AperFunction*%
%TO.P,U3,13*%
%TO.N,CARRY_FLAG*%
%TA.AperFunction,SMDPad,CuDef*%
G36*
G01*
X139008000Y-91855000D02*
X138808000Y-91855000D01*
G75*
G02*
X138708000Y-91755000I0J100000D01*
G01*
X138708000Y-90480000D01*
G75*
G02*
X138808000Y-90380000I100000J0D01*
G01*
X139008000Y-90380000D01*
G75*
G02*
X139108000Y-90480000I0J-100000D01*
G01*
X139108000Y-91755000D01*
G75*
G02*
X139008000Y-91855000I-100000J0D01*
G01*
G37*
%TD.AperFunction*%
%TO.P,U3,12*%
%TO.N,Net-(U1-Pad10)*%
%TA.AperFunction,SMDPad,CuDef*%
G36*
G01*
X139658000Y-91855000D02*
X139458000Y-91855000D01*
G75*
G02*
X139358000Y-91755000I0J100000D01*
G01*
X139358000Y-90480000D01*
G75*
G02*
X139458000Y-90380000I100000J0D01*
G01*
X139658000Y-90380000D01*
G75*
G02*
X139758000Y-90480000I0J-100000D01*
G01*
X139758000Y-91755000D01*
G75*
G02*
X139658000Y-91855000I-100000J0D01*
G01*
G37*
%TD.AperFunction*%
%TO.P,U3,11*%
%TO.N,OR_JB_JNAE_JC*%
%TA.AperFunction,SMDPad,CuDef*%
G36*
G01*
X140308000Y-91855000D02*
X140108000Y-91855000D01*
G75*
G02*
X140008000Y-91755000I0J100000D01*
G01*
X140008000Y-90480000D01*
G75*
G02*
X140108000Y-90380000I100000J0D01*
G01*
X140308000Y-90380000D01*
G75*
G02*
X140408000Y-90480000I0J-100000D01*
G01*
X140408000Y-91755000D01*
G75*
G02*
X140308000Y-91855000I-100000J0D01*
G01*
G37*
%TD.AperFunction*%
%TO.P,U3,10*%
%TO.N,SIGN_FLAG*%
%TA.AperFunction,SMDPad,CuDef*%
G36*
G01*
X140958000Y-91855000D02*
X140758000Y-91855000D01*
G75*
G02*
X140658000Y-91755000I0J100000D01*
G01*
X140658000Y-90480000D01*
G75*
G02*
X140758000Y-90380000I100000J0D01*
G01*
X140958000Y-90380000D01*
G75*
G02*
X141058000Y-90480000I0J-100000D01*
G01*
X141058000Y-91755000D01*
G75*
G02*
X140958000Y-91855000I-100000J0D01*
G01*
G37*
%TD.AperFunction*%
%TO.P,U3,9*%
%TO.N,Net-(U1-Pad8)*%
%TA.AperFunction,SMDPad,CuDef*%
G36*
G01*
X141608000Y-91855000D02*
X141408000Y-91855000D01*
G75*
G02*
X141308000Y-91755000I0J100000D01*
G01*
X141308000Y-90480000D01*
G75*
G02*
X141408000Y-90380000I100000J0D01*
G01*
X141608000Y-90380000D01*
G75*
G02*
X141708000Y-90480000I0J-100000D01*
G01*
X141708000Y-91755000D01*
G75*
G02*
X141608000Y-91855000I-100000J0D01*
G01*
G37*
%TD.AperFunction*%
%TO.P,U3,8*%
%TO.N,OR_JS*%
%TA.AperFunction,SMDPad,CuDef*%
G36*
G01*
X142258000Y-91855000D02*
X142058000Y-91855000D01*
G75*
G02*
X141958000Y-91755000I0J100000D01*
G01*
X141958000Y-90480000D01*
G75*
G02*
X142058000Y-90380000I100000J0D01*
G01*
X142258000Y-90380000D01*
G75*
G02*
X142358000Y-90480000I0J-100000D01*
G01*
X142358000Y-91755000D01*
G75*
G02*
X142258000Y-91855000I-100000J0D01*
G01*
G37*
%TD.AperFunction*%
%TO.P,U3,7*%
%TO.N,GND*%
%TA.AperFunction,SMDPad,CuDef*%
G36*
G01*
X142258000Y-97580000D02*
X142058000Y-97580000D01*
G75*
G02*
X141958000Y-97480000I0J100000D01*
G01*
X141958000Y-96205000D01*
G75*
G02*
X142058000Y-96105000I100000J0D01*
G01*
X142258000Y-96105000D01*
G75*
G02*
X142358000Y-96205000I0J-100000D01*
G01*
X142358000Y-97480000D01*
G75*
G02*
X142258000Y-97580000I-100000J0D01*
G01*
G37*
%TD.AperFunction*%
%TO.P,U3,6*%
%TO.N,OR_JE_JZ*%
%TA.AperFunction,SMDPad,CuDef*%
G36*
G01*
X141608000Y-97580000D02*
X141408000Y-97580000D01*
G75*
G02*
X141308000Y-97480000I0J100000D01*
G01*
X141308000Y-96205000D01*
G75*
G02*
X141408000Y-96105000I100000J0D01*
G01*
X141608000Y-96105000D01*
G75*
G02*
X141708000Y-96205000I0J-100000D01*
G01*
X141708000Y-97480000D01*
G75*
G02*
X141608000Y-97580000I-100000J0D01*
G01*
G37*
%TD.AperFunction*%
%TO.P,U3,5*%
%TO.N,ZERO_FLAG*%
%TA.AperFunction,SMDPad,CuDef*%
G36*
G01*
X140958000Y-97580000D02*
X140758000Y-97580000D01*
G75*
G02*
X140658000Y-97480000I0J100000D01*
G01*
X140658000Y-96205000D01*
G75*
G02*
X140758000Y-96105000I100000J0D01*
G01*
X140958000Y-96105000D01*
G75*
G02*
X141058000Y-96205000I0J-100000D01*
G01*
X141058000Y-97480000D01*
G75*
G02*
X140958000Y-97580000I-100000J0D01*
G01*
G37*
%TD.AperFunction*%
%TO.P,U3,4*%
%TO.N,Net-(U1-Pad6)*%
%TA.AperFunction,SMDPad,CuDef*%
G36*
G01*
X140308000Y-97580000D02*
X140108000Y-97580000D01*
G75*
G02*
X140008000Y-97480000I0J100000D01*
G01*
X140008000Y-96205000D01*
G75*
G02*
X140108000Y-96105000I100000J0D01*
G01*
X140308000Y-96105000D01*
G75*
G02*
X140408000Y-96205000I0J-100000D01*
G01*
X140408000Y-97480000D01*
G75*
G02*
X140308000Y-97580000I-100000J0D01*
G01*
G37*
%TD.AperFunction*%
%TO.P,U3,3*%
%TO.N,OR_JO*%
%TA.AperFunction,SMDPad,CuDef*%
G36*
G01*
X139658000Y-97580000D02*
X139458000Y-97580000D01*
G75*
G02*
X139358000Y-97480000I0J100000D01*
G01*
X139358000Y-96205000D01*
G75*
G02*
X139458000Y-96105000I100000J0D01*
G01*
X139658000Y-96105000D01*
G75*
G02*
X139758000Y-96205000I0J-100000D01*
G01*
X139758000Y-97480000D01*
G75*
G02*
X139658000Y-97580000I-100000J0D01*
G01*
G37*
%TD.AperFunction*%
%TO.P,U3,2*%
%TO.N,OVERFLOW_FLAG*%
%TA.AperFunction,SMDPad,CuDef*%
G36*
G01*
X139008000Y-97580000D02*
X138808000Y-97580000D01*
G75*
G02*
X138708000Y-97480000I0J100000D01*
G01*
X138708000Y-96205000D01*
G75*
G02*
X138808000Y-96105000I100000J0D01*
G01*
X139008000Y-96105000D01*
G75*
G02*
X139108000Y-96205000I0J-100000D01*
G01*
X139108000Y-97480000D01*
G75*
G02*
X139008000Y-97580000I-100000J0D01*
G01*
G37*
%TD.AperFunction*%
%TO.P,U3,1*%
%TO.N,Net-(U1-Pad4)*%
%TA.AperFunction,SMDPad,CuDef*%
G36*
G01*
X138358000Y-97580000D02*
X138158000Y-97580000D01*
G75*
G02*
X138058000Y-97480000I0J100000D01*
G01*
X138058000Y-96205000D01*
G75*
G02*
X138158000Y-96105000I100000J0D01*
G01*
X138358000Y-96105000D01*
G75*
G02*
X138458000Y-96205000I0J-100000D01*
G01*
X138458000Y-97480000D01*
G75*
G02*
X138358000Y-97580000I-100000J0D01*
G01*
G37*
%TD.AperFunction*%
%TD*%
%TO.P,U2,14*%
%TO.N,VCC*%
%TA.AperFunction,SMDPad,CuDef*%
G36*
G01*
X147248000Y-91855000D02*
X147048000Y-91855000D01*
G75*
G02*
X146948000Y-91755000I0J100000D01*
G01*
X146948000Y-90480000D01*
G75*
G02*
X147048000Y-90380000I100000J0D01*
G01*
X147248000Y-90380000D01*
G75*
G02*
X147348000Y-90480000I0J-100000D01*
G01*
X147348000Y-91755000D01*
G75*
G02*
X147248000Y-91855000I-100000J0D01*
G01*
G37*
%TD.AperFunction*%
%TO.P,U2,13*%
%TO.N,OR_JNB_JAE_JNC*%
%TA.AperFunction,SMDPad,CuDef*%
G36*
G01*
X147898000Y-91855000D02*
X147698000Y-91855000D01*
G75*
G02*
X147598000Y-91755000I0J100000D01*
G01*
X147598000Y-90480000D01*
G75*
G02*
X147698000Y-90380000I100000J0D01*
G01*
X147898000Y-90380000D01*
G75*
G02*
X147998000Y-90480000I0J-100000D01*
G01*
X147998000Y-91755000D01*
G75*
G02*
X147898000Y-91855000I-100000J0D01*
G01*
G37*
%TD.AperFunction*%
%TO.P,U2,12*%
%TO.N,CARRY_FLAG*%
%TA.AperFunction,SMDPad,CuDef*%
G36*
G01*
X148548000Y-91855000D02*
X148348000Y-91855000D01*
G75*
G02*
X148248000Y-91755000I0J100000D01*
G01*
X148248000Y-90480000D01*
G75*
G02*
X148348000Y-90380000I100000J0D01*
G01*
X148548000Y-90380000D01*
G75*
G02*
X148648000Y-90480000I0J-100000D01*
G01*
X148648000Y-91755000D01*
G75*
G02*
X148548000Y-91855000I-100000J0D01*
G01*
G37*
%TD.AperFunction*%
%TO.P,U2,11*%
%TO.N,~JNB_JAE_JNC*%
%TA.AperFunction,SMDPad,CuDef*%
G36*
G01*
X149198000Y-91855000D02*
X148998000Y-91855000D01*
G75*
G02*
X148898000Y-91755000I0J100000D01*
G01*
X148898000Y-90480000D01*
G75*
G02*
X148998000Y-90380000I100000J0D01*
G01*
X149198000Y-90380000D01*
G75*
G02*
X149298000Y-90480000I0J-100000D01*
G01*
X149298000Y-91755000D01*
G75*
G02*
X149198000Y-91855000I-100000J0D01*
G01*
G37*
%TD.AperFunction*%
%TO.P,U2,10*%
%TO.N,OR_JNS*%
%TA.AperFunction,SMDPad,CuDef*%
G36*
G01*
X149848000Y-91855000D02*
X149648000Y-91855000D01*
G75*
G02*
X149548000Y-91755000I0J100000D01*
G01*
X149548000Y-90480000D01*
G75*
G02*
X149648000Y-90380000I100000J0D01*
G01*
X149848000Y-90380000D01*
G75*
G02*
X149948000Y-90480000I0J-100000D01*
G01*
X149948000Y-91755000D01*
G75*
G02*
X149848000Y-91855000I-100000J0D01*
G01*
G37*
%TD.AperFunction*%
%TO.P,U2,9*%
%TO.N,SIGN_FLAG*%
%TA.AperFunction,SMDPad,CuDef*%
G36*
G01*
X150498000Y-91855000D02*
X150298000Y-91855000D01*
G75*
G02*
X150198000Y-91755000I0J100000D01*
G01*
X150198000Y-90480000D01*
G75*
G02*
X150298000Y-90380000I100000J0D01*
G01*
X150498000Y-90380000D01*
G75*
G02*
X150598000Y-90480000I0J-100000D01*
G01*
X150598000Y-91755000D01*
G75*
G02*
X150498000Y-91855000I-100000J0D01*
G01*
G37*
%TD.AperFunction*%
%TO.P,U2,8*%
%TO.N,~JNS*%
%TA.AperFunction,SMDPad,CuDef*%
G36*
G01*
X151148000Y-91855000D02*
X150948000Y-91855000D01*
G75*
G02*
X150848000Y-91755000I0J100000D01*
G01*
X150848000Y-90480000D01*
G75*
G02*
X150948000Y-90380000I100000J0D01*
G01*
X151148000Y-90380000D01*
G75*
G02*
X151248000Y-90480000I0J-100000D01*
G01*
X151248000Y-91755000D01*
G75*
G02*
X151148000Y-91855000I-100000J0D01*
G01*
G37*
%TD.AperFunction*%
%TO.P,U2,7*%
%TO.N,GND*%
%TA.AperFunction,SMDPad,CuDef*%
G36*
G01*
X151148000Y-97580000D02*
X150948000Y-97580000D01*
G75*
G02*
X150848000Y-97480000I0J100000D01*
G01*
X150848000Y-96205000D01*
G75*
G02*
X150948000Y-96105000I100000J0D01*
G01*
X151148000Y-96105000D01*
G75*
G02*
X151248000Y-96205000I0J-100000D01*
G01*
X151248000Y-97480000D01*
G75*
G02*
X151148000Y-97580000I-100000J0D01*
G01*
G37*
%TD.AperFunction*%
%TO.P,U2,6*%
%TO.N,ZERO_FLAG*%
%TA.AperFunction,SMDPad,CuDef*%
G36*
G01*
X150498000Y-97580000D02*
X150298000Y-97580000D01*
G75*
G02*
X150198000Y-97480000I0J100000D01*
G01*
X150198000Y-96205000D01*
G75*
G02*
X150298000Y-96105000I100000J0D01*
G01*
X150498000Y-96105000D01*
G75*
G02*
X150598000Y-96205000I0J-100000D01*
G01*
X150598000Y-97480000D01*
G75*
G02*
X150498000Y-97580000I-100000J0D01*
G01*
G37*
%TD.AperFunction*%
%TO.P,U2,5*%
%TO.N,~JNE_JNZ*%
%TA.AperFunction,SMDPad,CuDef*%
G36*
G01*
X149848000Y-97580000D02*
X149648000Y-97580000D01*
G75*
G02*
X149548000Y-97480000I0J100000D01*
G01*
X149548000Y-96205000D01*
G75*
G02*
X149648000Y-96105000I100000J0D01*
G01*
X149848000Y-96105000D01*
G75*
G02*
X149948000Y-96205000I0J-100000D01*
G01*
X149948000Y-97480000D01*
G75*
G02*
X149848000Y-97580000I-100000J0D01*
G01*
G37*
%TD.AperFunction*%
%TO.P,U2,4*%
%TO.N,OR_JNE_JNZ*%
%TA.AperFunction,SMDPad,CuDef*%
G36*
G01*
X149198000Y-97580000D02*
X148998000Y-97580000D01*
G75*
G02*
X148898000Y-97480000I0J100000D01*
G01*
X148898000Y-96205000D01*
G75*
G02*
X148998000Y-96105000I100000J0D01*
G01*
X149198000Y-96105000D01*
G75*
G02*
X149298000Y-96205000I0J-100000D01*
G01*
X149298000Y-97480000D01*
G75*
G02*
X149198000Y-97580000I-100000J0D01*
G01*
G37*
%TD.AperFunction*%
%TO.P,U2,3*%
%TO.N,OVERFLOW_FLAG*%
%TA.AperFunction,SMDPad,CuDef*%
G36*
G01*
X148548000Y-97580000D02*
X148348000Y-97580000D01*
G75*
G02*
X148248000Y-97480000I0J100000D01*
G01*
X148248000Y-96205000D01*
G75*
G02*
X148348000Y-96105000I100000J0D01*
G01*
X148548000Y-96105000D01*
G75*
G02*
X148648000Y-96205000I0J-100000D01*
G01*
X148648000Y-97480000D01*
G75*
G02*
X148548000Y-97580000I-100000J0D01*
G01*
G37*
%TD.AperFunction*%
%TO.P,U2,2*%
%TO.N,~JNO*%
%TA.AperFunction,SMDPad,CuDef*%
G36*
G01*
X147898000Y-97580000D02*
X147698000Y-97580000D01*
G75*
G02*
X147598000Y-97480000I0J100000D01*
G01*
X147598000Y-96205000D01*
G75*
G02*
X147698000Y-96105000I100000J0D01*
G01*
X147898000Y-96105000D01*
G75*
G02*
X147998000Y-96205000I0J-100000D01*
G01*
X147998000Y-97480000D01*
G75*
G02*
X147898000Y-97580000I-100000J0D01*
G01*
G37*
%TD.AperFunction*%
%TO.P,U2,1*%
%TO.N,OR_JNO*%
%TA.AperFunction,SMDPad,CuDef*%
G36*
G01*
X147248000Y-97580000D02*
X147048000Y-97580000D01*
G75*
G02*
X146948000Y-97480000I0J100000D01*
G01*
X146948000Y-96205000D01*
G75*
G02*
X147048000Y-96105000I100000J0D01*
G01*
X147248000Y-96105000D01*
G75*
G02*
X147348000Y-96205000I0J-100000D01*
G01*
X147348000Y-97480000D01*
G75*
G02*
X147248000Y-97580000I-100000J0D01*
G01*
G37*
%TD.AperFunction*%
%TD*%
%TO.P,U1,14*%
%TO.N,VCC*%
%TA.AperFunction,SMDPad,CuDef*%
G36*
G01*
X129468000Y-91855000D02*
X129268000Y-91855000D01*
G75*
G02*
X129168000Y-91755000I0J100000D01*
G01*
X129168000Y-90480000D01*
G75*
G02*
X129268000Y-90380000I100000J0D01*
G01*
X129468000Y-90380000D01*
G75*
G02*
X129568000Y-90480000I0J-100000D01*
G01*
X129568000Y-91755000D01*
G75*
G02*
X129468000Y-91855000I-100000J0D01*
G01*
G37*
%TD.AperFunction*%
%TO.P,U1,13*%
%TO.N,GND*%
%TA.AperFunction,SMDPad,CuDef*%
G36*
G01*
X130118000Y-91855000D02*
X129918000Y-91855000D01*
G75*
G02*
X129818000Y-91755000I0J100000D01*
G01*
X129818000Y-90480000D01*
G75*
G02*
X129918000Y-90380000I100000J0D01*
G01*
X130118000Y-90380000D01*
G75*
G02*
X130218000Y-90480000I0J-100000D01*
G01*
X130218000Y-91755000D01*
G75*
G02*
X130118000Y-91855000I-100000J0D01*
G01*
G37*
%TD.AperFunction*%
%TO.P,U1,12*%
%TO.N,Net-(U1-Pad12)*%
%TA.AperFunction,SMDPad,CuDef*%
G36*
G01*
X130768000Y-91855000D02*
X130568000Y-91855000D01*
G75*
G02*
X130468000Y-91755000I0J100000D01*
G01*
X130468000Y-90480000D01*
G75*
G02*
X130568000Y-90380000I100000J0D01*
G01*
X130768000Y-90380000D01*
G75*
G02*
X130868000Y-90480000I0J-100000D01*
G01*
X130868000Y-91755000D01*
G75*
G02*
X130768000Y-91855000I-100000J0D01*
G01*
G37*
%TD.AperFunction*%
%TO.P,U1,11*%
%TO.N,~JB_JNAE_JC*%
%TA.AperFunction,SMDPad,CuDef*%
G36*
G01*
X131418000Y-91855000D02*
X131218000Y-91855000D01*
G75*
G02*
X131118000Y-91755000I0J100000D01*
G01*
X131118000Y-90480000D01*
G75*
G02*
X131218000Y-90380000I100000J0D01*
G01*
X131418000Y-90380000D01*
G75*
G02*
X131518000Y-90480000I0J-100000D01*
G01*
X131518000Y-91755000D01*
G75*
G02*
X131418000Y-91855000I-100000J0D01*
G01*
G37*
%TD.AperFunction*%
%TO.P,U1,10*%
%TO.N,Net-(U1-Pad10)*%
%TA.AperFunction,SMDPad,CuDef*%
G36*
G01*
X132068000Y-91855000D02*
X131868000Y-91855000D01*
G75*
G02*
X131768000Y-91755000I0J100000D01*
G01*
X131768000Y-90480000D01*
G75*
G02*
X131868000Y-90380000I100000J0D01*
G01*
X132068000Y-90380000D01*
G75*
G02*
X132168000Y-90480000I0J-100000D01*
G01*
X132168000Y-91755000D01*
G75*
G02*
X132068000Y-91855000I-100000J0D01*
G01*
G37*
%TD.AperFunction*%
%TO.P,U1,9*%
%TO.N,~JS*%
%TA.AperFunction,SMDPad,CuDef*%
G36*
G01*
X132718000Y-91855000D02*
X132518000Y-91855000D01*
G75*
G02*
X132418000Y-91755000I0J100000D01*
G01*
X132418000Y-90480000D01*
G75*
G02*
X132518000Y-90380000I100000J0D01*
G01*
X132718000Y-90380000D01*
G75*
G02*
X132818000Y-90480000I0J-100000D01*
G01*
X132818000Y-91755000D01*
G75*
G02*
X132718000Y-91855000I-100000J0D01*
G01*
G37*
%TD.AperFunction*%
%TO.P,U1,8*%
%TO.N,Net-(U1-Pad8)*%
%TA.AperFunction,SMDPad,CuDef*%
G36*
G01*
X133368000Y-91855000D02*
X133168000Y-91855000D01*
G75*
G02*
X133068000Y-91755000I0J100000D01*
G01*
X133068000Y-90480000D01*
G75*
G02*
X133168000Y-90380000I100000J0D01*
G01*
X133368000Y-90380000D01*
G75*
G02*
X133468000Y-90480000I0J-100000D01*
G01*
X133468000Y-91755000D01*
G75*
G02*
X133368000Y-91855000I-100000J0D01*
G01*
G37*
%TD.AperFunction*%
%TO.P,U1,7*%
%TO.N,GND*%
%TA.AperFunction,SMDPad,CuDef*%
G36*
G01*
X133368000Y-97580000D02*
X133168000Y-97580000D01*
G75*
G02*
X133068000Y-97480000I0J100000D01*
G01*
X133068000Y-96205000D01*
G75*
G02*
X133168000Y-96105000I100000J0D01*
G01*
X133368000Y-96105000D01*
G75*
G02*
X133468000Y-96205000I0J-100000D01*
G01*
X133468000Y-97480000D01*
G75*
G02*
X133368000Y-97580000I-100000J0D01*
G01*
G37*
%TD.AperFunction*%
%TO.P,U1,6*%
%TO.N,Net-(U1-Pad6)*%
%TA.AperFunction,SMDPad,CuDef*%
G36*
G01*
X132718000Y-97580000D02*
X132518000Y-97580000D01*
G75*
G02*
X132418000Y-97480000I0J100000D01*
G01*
X132418000Y-96205000D01*
G75*
G02*
X132518000Y-96105000I100000J0D01*
G01*
X132718000Y-96105000D01*
G75*
G02*
X132818000Y-96205000I0J-100000D01*
G01*
X132818000Y-97480000D01*
G75*
G02*
X132718000Y-97580000I-100000J0D01*
G01*
G37*
%TD.AperFunction*%
%TO.P,U1,5*%
%TO.N,~JE_JZ*%
%TA.AperFunction,SMDPad,CuDef*%
G36*
G01*
X132068000Y-97580000D02*
X131868000Y-97580000D01*
G75*
G02*
X131768000Y-97480000I0J100000D01*
G01*
X131768000Y-96205000D01*
G75*
G02*
X131868000Y-96105000I100000J0D01*
G01*
X132068000Y-96105000D01*
G75*
G02*
X132168000Y-96205000I0J-100000D01*
G01*
X132168000Y-97480000D01*
G75*
G02*
X132068000Y-97580000I-100000J0D01*
G01*
G37*
%TD.AperFunction*%
%TO.P,U1,4*%
%TO.N,Net-(U1-Pad4)*%
%TA.AperFunction,SMDPad,CuDef*%
G36*
G01*
X131418000Y-97580000D02*
X131218000Y-97580000D01*
G75*
G02*
X131118000Y-97480000I0J100000D01*
G01*
X131118000Y-96205000D01*
G75*
G02*
X131218000Y-96105000I100000J0D01*
G01*
X131418000Y-96105000D01*
G75*
G02*
X131518000Y-96205000I0J-100000D01*
G01*
X131518000Y-97480000D01*
G75*
G02*
X131418000Y-97580000I-100000J0D01*
G01*
G37*
%TD.AperFunction*%
%TO.P,U1,3*%
%TO.N,~JO*%
%TA.AperFunction,SMDPad,CuDef*%
G36*
G01*
X130768000Y-97580000D02*
X130568000Y-97580000D01*
G75*
G02*
X130468000Y-97480000I0J100000D01*
G01*
X130468000Y-96205000D01*
G75*
G02*
X130568000Y-96105000I100000J0D01*
G01*
X130768000Y-96105000D01*
G75*
G02*
X130868000Y-96205000I0J-100000D01*
G01*
X130868000Y-97480000D01*
G75*
G02*
X130768000Y-97580000I-100000J0D01*
G01*
G37*
%TD.AperFunction*%
%TO.P,U1,2*%
%TO.N,OR_JUMP*%
%TA.AperFunction,SMDPad,CuDef*%
G36*
G01*
X130118000Y-97580000D02*
X129918000Y-97580000D01*
G75*
G02*
X129818000Y-97480000I0J100000D01*
G01*
X129818000Y-96205000D01*
G75*
G02*
X129918000Y-96105000I100000J0D01*
G01*
X130118000Y-96105000D01*
G75*
G02*
X130218000Y-96205000I0J-100000D01*
G01*
X130218000Y-97480000D01*
G75*
G02*
X130118000Y-97580000I-100000J0D01*
G01*
G37*
%TD.AperFunction*%
%TO.P,U1,1*%
%TO.N,~J*%
%TA.AperFunction,SMDPad,CuDef*%
G36*
G01*
X129468000Y-97580000D02*
X129268000Y-97580000D01*
G75*
G02*
X129168000Y-97480000I0J100000D01*
G01*
X129168000Y-96205000D01*
G75*
G02*
X129268000Y-96105000I100000J0D01*
G01*
X129468000Y-96105000D01*
G75*
G02*
X129568000Y-96205000I0J-100000D01*
G01*
X129568000Y-97480000D01*
G75*
G02*
X129468000Y-97580000I-100000J0D01*
G01*
G37*
%TD.AperFunction*%
%TD*%
D10*
%TO.P,J3,8*%
%TO.N,GND*%
X110744000Y-82804000D03*
%TO.P,J3,7*%
%TO.N,VCC*%
X113284000Y-82804000D03*
%TO.P,J3,6*%
%TO.N,ADR0*%
X115824000Y-82804000D03*
%TO.P,J3,5*%
%TO.N,ADR1*%
X118364000Y-82804000D03*
%TO.P,J3,4*%
%TO.N,ADR2*%
X120904000Y-82804000D03*
%TO.P,J3,3*%
%TO.N,ADR3*%
X123444000Y-82804000D03*
%TO.P,J3,2*%
%TO.N,EN*%
X125984000Y-82804000D03*
D11*
%TO.P,J3,1*%
%TO.N,LOAD_PROGRAM_COUNTER_COND*%
X128524000Y-82804000D03*
%TD*%
D12*
%TO.N,VCC*%
X110109000Y-105029000D03*
X129048633Y-89626104D03*
X136466500Y-91117500D03*
X145677521Y-91009202D03*
X127830500Y-103563500D03*
X135704500Y-103563500D03*
X157040500Y-91117500D03*
X145116000Y-101936000D03*
X169500000Y-101936000D03*
X168393712Y-91203607D03*
X177800000Y-90932000D03*
X177640500Y-102775500D03*
X161216011Y-102071010D03*
X153339125Y-102325010D03*
%TO.N,GND*%
X124079000Y-91059000D03*
X130048000Y-89662000D03*
X134551500Y-96842500D03*
X143441500Y-96842500D03*
X131318000Y-101600000D03*
X156494000Y-101884000D03*
X150114000Y-109982000D03*
X158427500Y-109288500D03*
X166301500Y-109542500D03*
X174937500Y-109542500D03*
X172974000Y-102108000D03*
X174788990Y-96842500D03*
X134315118Y-109261562D03*
X142792240Y-109557609D03*
X164158248Y-97079124D03*
X188149000Y-96709000D03*
X187895000Y-109155000D03*
X163718000Y-102071010D03*
X148287507Y-101689236D03*
X152902141Y-96567264D03*
X173378500Y-80113500D03*
X136144000Y-81788000D03*
X123594500Y-110847500D03*
X114808000Y-99060000D03*
%TO.N,CARRY_FLAG*%
X139446000Y-89662000D03*
X156972000Y-92456000D03*
X159802990Y-94915205D03*
X161036000Y-107950000D03*
X148451357Y-88682990D03*
X173403500Y-85773500D03*
X161036000Y-93980000D03*
%TO.N,SIGN_FLAG*%
X144780000Y-90170000D03*
X145034000Y-96774000D03*
X142561305Y-92647769D03*
X142683650Y-107752310D03*
X159512000Y-92710000D03*
X176784000Y-112776000D03*
X145288000Y-87884000D03*
%TO.N,OVERFLOW_FLAG*%
X141753507Y-107024652D03*
X144186526Y-99283205D03*
X145288000Y-112776000D03*
X166241412Y-115629089D03*
X161539340Y-85348660D03*
X160115733Y-88699004D03*
%TO.N,ZERO_FLAG*%
X140970000Y-95032990D03*
X155207149Y-94922011D03*
X163718000Y-107584000D03*
X150810199Y-100874990D03*
X150404990Y-95032990D03*
X161798000Y-84074000D03*
X161255708Y-92675708D03*
%TO.N,Net-(U10-Pad1)*%
X177546000Y-98044000D03*
X168402000Y-94996000D03*
%TO.N,Net-(U11-Pad1)*%
X181610000Y-106172000D03*
X179070000Y-107188000D03*
%TO.N,~JS*%
X130048000Y-87376000D03*
X132588000Y-89662000D03*
%TO.N,~JNO*%
X119634000Y-94742000D03*
X147542766Y-94307980D03*
%TO.N,OR_JNS*%
X154686000Y-90932000D03*
X175768000Y-89916000D03*
%TO.N,OR_JS*%
X143256000Y-90424000D03*
X162150882Y-88943043D03*
%TO.N,OR_JNO*%
X146118500Y-96842500D03*
X159258000Y-100330000D03*
%TO.N,OR_JO*%
X145759010Y-97971421D03*
X158750000Y-101600000D03*
%TO.N,~JNB_JAE_JNC*%
X126238000Y-93980000D03*
X149636883Y-93239564D03*
%TO.N,~JB_JNAE_JC*%
X127254000Y-93218000D03*
X131318000Y-92710000D03*
%TO.N,OR_JNB_JAE_JNC*%
X147574000Y-92456000D03*
X175260000Y-88943043D03*
%TO.N,OR_JNE_JNZ*%
X152654000Y-97536000D03*
X152654012Y-87122000D03*
%TO.N,OR_JE_JZ*%
X144272000Y-97536000D03*
X151379336Y-87117344D03*
%TO.N,OR_JB_JNAE_JC*%
X139700000Y-93218000D03*
X159665080Y-87223032D03*
%TO.N,~JG_JNLE*%
X146304000Y-107950000D03*
X146079228Y-106499989D03*
%TO.N,~JA_JNBE*%
X127508000Y-95758000D03*
X154371114Y-95647021D03*
%TO.N,OR_JL_JNGE*%
X151384000Y-109982000D03*
X160781992Y-112986957D03*
%TO.N,OR_JA_JNBE*%
X167386000Y-97790000D03*
X183134000Y-107188000D03*
%TO.N,SF=OF*%
X148366000Y-107472000D03*
X154656000Y-107472000D03*
%TO.N,~JLE_JNG*%
X130302000Y-105918000D03*
X131826000Y-107950000D03*
%TO.N,OR_JGE_JNL*%
X143256000Y-104902000D03*
X159004000Y-104394000D03*
X175768000Y-105410000D03*
X184404000Y-107188000D03*
%TO.N,OR_JBE_JNA*%
X185166000Y-115316000D03*
X153924000Y-112812990D03*
%TO.N,OR_JG_JNLE*%
X139446000Y-105156000D03*
X159004000Y-105664000D03*
X177800000Y-105664000D03*
X185420000Y-106172000D03*
%TO.N,OR_JUMP*%
X124968000Y-106680000D03*
X187960000Y-106934000D03*
%TO.N,Net-(U14-Pad1)*%
X159983010Y-109489677D03*
X143793142Y-108741142D03*
%TO.N,Net-(U4-Pad8)*%
X132842000Y-105918000D03*
X162791076Y-107959281D03*
%TO.N,Net-(U4-Pad4)*%
X135382000Y-109219988D03*
X137159992Y-105918000D03*
%TO.N,Net-(U5-Pad13)*%
X156209994Y-93472000D03*
X151810211Y-101610337D03*
%TO.N,Net-(U6-Pad12)*%
X143764000Y-109982000D03*
X138430000Y-105156000D03*
%TO.N,Net-(U10-Pad13)*%
X180340000Y-93472000D03*
X176400953Y-94625094D03*
%TO.N,Net-(U11-Pad13)*%
X171704000Y-94996000D03*
X176760428Y-99600891D03*
%TO.N,LOAD_PROGRAM_COUNTER_COND*%
X125730000Y-105156000D03*
%TD*%
D13*
%TO.N,VCC*%
X112444000Y-105029000D02*
X110109000Y-105029000D01*
X129368000Y-89945471D02*
X129048633Y-89626104D01*
X129368000Y-91117500D02*
X129368000Y-89945471D01*
X138258000Y-91117500D02*
X136466500Y-91117500D01*
X147148000Y-91117500D02*
X145785819Y-91117500D01*
X145785819Y-91117500D02*
X145677521Y-91009202D01*
X129368000Y-103563500D02*
X127830500Y-103563500D01*
X137242000Y-103563500D02*
X135704500Y-103563500D01*
X158578000Y-91117500D02*
X157040500Y-91117500D01*
X145116000Y-103563500D02*
X145116000Y-101936000D01*
X169500000Y-103817500D02*
X169500000Y-101936000D01*
X169500000Y-91117500D02*
X168479819Y-91117500D01*
X168479819Y-91117500D02*
X168393712Y-91203607D01*
X179070000Y-91759000D02*
X178627000Y-91759000D01*
X178627000Y-91759000D02*
X177800000Y-90932000D01*
X177546000Y-102681000D02*
X177640500Y-102775500D01*
X179070000Y-104205000D02*
X177640500Y-102775500D01*
X161118000Y-102169021D02*
X161216011Y-102071010D01*
X161118000Y-103817500D02*
X161118000Y-102169021D01*
X153244000Y-102420135D02*
X153339125Y-102325010D01*
X153244000Y-103563500D02*
X153244000Y-102420135D01*
%TO.N,GND*%
X121744000Y-91059000D02*
X124079000Y-91059000D01*
X130018000Y-91117500D02*
X130018000Y-89946000D01*
X130018000Y-89946000D02*
X130048000Y-89916000D01*
X130048000Y-89916000D02*
X130048000Y-89662000D01*
X133268000Y-96842500D02*
X134551500Y-96842500D01*
X142158000Y-96842500D02*
X143441500Y-96842500D01*
X131318000Y-103563500D02*
X131318000Y-101600000D01*
X149016000Y-103563500D02*
X148366000Y-103563500D01*
X147066000Y-104301000D02*
X147066000Y-103563500D01*
X147391010Y-104626010D02*
X147066000Y-104301000D01*
X148040990Y-104626010D02*
X147391010Y-104626010D01*
X148366000Y-104301000D02*
X148040990Y-104626010D01*
X148366000Y-103563500D02*
X148366000Y-104301000D01*
X146416000Y-103563500D02*
X147066000Y-103563500D01*
X153894000Y-103563500D02*
X154363500Y-103563500D01*
X154363500Y-103563500D02*
X154544000Y-103563500D01*
X155844000Y-104301000D02*
X155844000Y-103563500D01*
X155518990Y-104626010D02*
X155844000Y-104301000D01*
X154544000Y-104301000D02*
X154869010Y-104626010D01*
X154869010Y-104626010D02*
X155518990Y-104626010D01*
X154544000Y-103563500D02*
X154544000Y-104301000D01*
X156494000Y-103563500D02*
X155844000Y-103563500D01*
X156494000Y-103563500D02*
X156494000Y-101884000D01*
X149016000Y-109288500D02*
X149420500Y-109288500D01*
X149420500Y-109288500D02*
X150114000Y-109982000D01*
X155194000Y-109288500D02*
X155844000Y-109288500D01*
X157144000Y-110026000D02*
X157144000Y-109288500D01*
X156818990Y-110351010D02*
X157144000Y-110026000D01*
X156169010Y-110351010D02*
X156818990Y-110351010D01*
X155844000Y-110026000D02*
X156169010Y-110351010D01*
X155844000Y-109288500D02*
X155844000Y-110026000D01*
X157144000Y-109288500D02*
X158427500Y-109288500D01*
X161768000Y-103817500D02*
X162418000Y-103817500D01*
X164368000Y-103817500D02*
X163718000Y-103817500D01*
X162743010Y-104880010D02*
X162418000Y-104555000D01*
X163392990Y-104880010D02*
X162743010Y-104880010D01*
X162418000Y-104555000D02*
X162418000Y-103817500D01*
X163718000Y-104555000D02*
X163392990Y-104880010D01*
X163718000Y-103817500D02*
X163718000Y-104555000D01*
X165018000Y-109542500D02*
X166301500Y-109542500D01*
X171450000Y-109542500D02*
X172100000Y-109542500D01*
X173074990Y-110605010D02*
X173400000Y-110280000D01*
X172425010Y-110605010D02*
X173074990Y-110605010D01*
X172100000Y-110280000D02*
X172425010Y-110605010D01*
X173400000Y-110280000D02*
X173400000Y-109542500D01*
X172100000Y-109542500D02*
X172100000Y-110280000D01*
X173400000Y-109542500D02*
X174937500Y-109542500D01*
X172100000Y-103817500D02*
X172750000Y-103817500D01*
X170150000Y-103817500D02*
X170800000Y-103817500D01*
X172100000Y-104555000D02*
X172100000Y-103817500D01*
X170800000Y-104555000D02*
X171125010Y-104880010D01*
X171774990Y-104880010D02*
X172100000Y-104555000D01*
X171125010Y-104880010D02*
X171774990Y-104880010D01*
X170800000Y-103817500D02*
X170800000Y-104555000D01*
X172750000Y-103817500D02*
X172750000Y-102332000D01*
X172750000Y-102332000D02*
X172974000Y-102108000D01*
X171775010Y-97905010D02*
X173026048Y-97905010D01*
X173400000Y-97531058D02*
X173400000Y-96842500D01*
X171450000Y-97580000D02*
X171775010Y-97905010D01*
X173026048Y-97905010D02*
X173400000Y-97531058D01*
X171450000Y-96842500D02*
X171450000Y-97580000D01*
X173400000Y-96842500D02*
X174788990Y-96842500D01*
X134288180Y-109288500D02*
X134315118Y-109261562D01*
X133268000Y-109288500D02*
X134288180Y-109288500D01*
X142679500Y-109444869D02*
X142792240Y-109557609D01*
X142392241Y-109957608D02*
X142792240Y-109557609D01*
X141142000Y-109288500D02*
X141811108Y-109957608D01*
X141811108Y-109957608D02*
X142392241Y-109957608D01*
X142679500Y-109288500D02*
X142679500Y-109444869D01*
X162478000Y-96842500D02*
X162714624Y-97079124D01*
X162714624Y-97079124D02*
X164158248Y-97079124D01*
X186690000Y-96709000D02*
X188149000Y-96709000D01*
X186690000Y-109155000D02*
X187895000Y-109155000D01*
X163718000Y-103817500D02*
X163718000Y-102071010D01*
X149016000Y-103563500D02*
X149016000Y-102417729D01*
X149016000Y-102417729D02*
X148287507Y-101689236D01*
X151048000Y-96842500D02*
X151323236Y-96567264D01*
X151323236Y-96567264D02*
X152902141Y-96567264D01*
X163576000Y-80113500D02*
X171196000Y-80113500D01*
X171196000Y-80113500D02*
X173378500Y-80113500D01*
X112268000Y-110847500D02*
X121412000Y-110847500D01*
X121412000Y-110847500D02*
X123594500Y-110847500D01*
X112444000Y-98679000D02*
X114427000Y-98679000D01*
X114427000Y-98679000D02*
X114808000Y-99060000D01*
X136040500Y-81891500D02*
X136144000Y-81788000D01*
X134620000Y-81891500D02*
X136040500Y-81891500D01*
%TO.N,CARRY_FLAG*%
X138908000Y-90380000D02*
X139372000Y-89916000D01*
X138908000Y-91117500D02*
X138908000Y-90380000D01*
X139372000Y-89736000D02*
X139446000Y-89662000D01*
X139372000Y-89916000D02*
X139372000Y-89736000D01*
X148448000Y-91117500D02*
X148448000Y-93076000D01*
X148448000Y-93076000D02*
X149606000Y-94234000D01*
X149606000Y-94234000D02*
X153162000Y-94234000D01*
X153162000Y-94234000D02*
X154940000Y-92456000D01*
X154940000Y-92456000D02*
X156972000Y-92456000D01*
X159878000Y-96842500D02*
X159878000Y-94990215D01*
X159878000Y-94990215D02*
X159802990Y-94915205D01*
X161118000Y-108032000D02*
X161118000Y-109542500D01*
X161036000Y-107950000D02*
X161118000Y-108032000D01*
X148448000Y-91117500D02*
X148448000Y-88686347D01*
X148448000Y-88686347D02*
X148451357Y-88682990D01*
X171196000Y-85773500D02*
X173403500Y-85773500D01*
X160100795Y-94915205D02*
X161036000Y-93980000D01*
X159802990Y-94915205D02*
X160100795Y-94915205D01*
%TO.N,SIGN_FLAG*%
X141161769Y-92647769D02*
X142561305Y-92647769D01*
X140858000Y-91117500D02*
X140858000Y-92344000D01*
X145034000Y-96774000D02*
X142561305Y-94301305D01*
X140858000Y-92344000D02*
X141161769Y-92647769D01*
X142561305Y-94301305D02*
X142561305Y-92647769D01*
X148799358Y-87957989D02*
X146992011Y-87957989D01*
X150398000Y-89556631D02*
X148799358Y-87957989D01*
X146992011Y-87957989D02*
X144780000Y-90170000D01*
X150398000Y-91117500D02*
X150398000Y-89556631D01*
X139842000Y-109288500D02*
X139842000Y-108572822D01*
X140262513Y-108152309D02*
X142283651Y-108152309D01*
X139842000Y-108572822D02*
X140262513Y-108152309D01*
X142283651Y-108152309D02*
X142683650Y-107752310D01*
X159878000Y-91117500D02*
X159878000Y-92344000D01*
X159878000Y-92344000D02*
X159512000Y-92710000D01*
X179832000Y-116332000D02*
X179832000Y-114808000D01*
X177800000Y-112776000D02*
X176784000Y-112776000D01*
X179832000Y-114808000D02*
X177800000Y-112776000D01*
X150398000Y-91978000D02*
X150398000Y-91117500D01*
X150876000Y-92456000D02*
X150398000Y-91978000D01*
X152146000Y-92456000D02*
X150876000Y-92456000D01*
X159878000Y-90380000D02*
X157890000Y-88392000D01*
X154940000Y-88392000D02*
X152908000Y-90424000D01*
X157890000Y-88392000D02*
X154940000Y-88392000D01*
X152908000Y-91694000D02*
X152146000Y-92456000D01*
X152908000Y-90424000D02*
X152908000Y-91694000D01*
X159878000Y-91117500D02*
X159878000Y-90380000D01*
X147574000Y-85598000D02*
X145687999Y-87484001D01*
X160703914Y-85598000D02*
X147574000Y-85598000D01*
X161973914Y-86868000D02*
X160703914Y-85598000D01*
X167561500Y-86868000D02*
X161973914Y-86868000D01*
X168656000Y-85773500D02*
X167561500Y-86868000D01*
X145687999Y-87484001D02*
X145288000Y-87884000D01*
%TO.N,OVERFLOW_FLAG*%
X139192000Y-108586410D02*
X140097367Y-107681046D01*
X141097113Y-107681046D02*
X141753507Y-107024652D01*
X140097367Y-107681046D02*
X141097113Y-107681046D01*
X139192000Y-109288500D02*
X139192000Y-108586410D01*
X141011204Y-99683204D02*
X143786527Y-99683204D01*
X148448000Y-97735004D02*
X146899799Y-99283205D01*
X138908000Y-97580000D02*
X141011204Y-99683204D01*
X148448000Y-96842500D02*
X148448000Y-97735004D01*
X143786527Y-99683204D02*
X144186526Y-99283205D01*
X146899799Y-99283205D02*
X144186526Y-99283205D01*
X138908000Y-96842500D02*
X138908000Y-97580000D01*
X139192000Y-109288500D02*
X139192000Y-110026000D01*
X139192000Y-110026000D02*
X141942000Y-112776000D01*
X141942000Y-112776000D02*
X145288000Y-112776000D01*
X166944323Y-116332000D02*
X166241412Y-115629089D01*
X174752000Y-116332000D02*
X166944323Y-116332000D01*
X154571818Y-94197001D02*
X153646113Y-95122706D01*
X160528000Y-91117500D02*
X160528000Y-92767004D01*
X153646113Y-95122706D02*
X153646113Y-97870891D01*
X160528000Y-92767004D02*
X159860002Y-93435002D01*
X159423408Y-93435002D02*
X158661409Y-94197001D01*
X148448000Y-97580000D02*
X148448000Y-96842500D01*
X159860002Y-93435002D02*
X159423408Y-93435002D01*
X158661409Y-94197001D02*
X154571818Y-94197001D01*
X149383002Y-98515002D02*
X148448000Y-97580000D01*
X153002002Y-98515002D02*
X149383002Y-98515002D01*
X153646113Y-97870891D02*
X153002002Y-98515002D01*
X163576000Y-85773500D02*
X161964180Y-85773500D01*
X161964180Y-85773500D02*
X161539340Y-85348660D01*
X160528000Y-89111271D02*
X160115733Y-88699004D01*
X160528000Y-91117500D02*
X160528000Y-89111271D01*
%TO.N,ZERO_FLAG*%
X140858000Y-96842500D02*
X140858000Y-95144990D01*
X140858000Y-95144990D02*
X140970000Y-95032990D01*
X163718000Y-107584000D02*
X163358998Y-107224998D01*
X163358998Y-107224998D02*
X162465998Y-107224998D01*
X163718000Y-109542500D02*
X163718000Y-107584000D01*
X162465998Y-107224998D02*
X161768000Y-107922996D01*
X161768000Y-107922996D02*
X161768000Y-109542500D01*
X150810199Y-100802000D02*
X150810199Y-100874990D01*
X155448000Y-99568000D02*
X152044199Y-99568000D01*
X152044199Y-99568000D02*
X150810199Y-100802000D01*
X158278999Y-106012001D02*
X158278999Y-102398999D01*
X161768000Y-109542500D02*
X161768000Y-110520000D01*
X159258000Y-110236000D02*
X159258000Y-106991002D01*
X161486979Y-110801021D02*
X159823021Y-110801021D01*
X158278999Y-102398999D02*
X155448000Y-99568000D01*
X161768000Y-110520000D02*
X161486979Y-110801021D01*
X159258000Y-106991002D02*
X158278999Y-106012001D01*
X159823021Y-110801021D02*
X159258000Y-110236000D01*
X150398000Y-96842500D02*
X150398000Y-95039980D01*
X150398000Y-95039980D02*
X150404990Y-95032990D01*
X150810199Y-101440675D02*
X150810199Y-100874990D01*
X145766000Y-109288500D02*
X145766000Y-110080410D01*
X151015007Y-111702011D02*
X152109002Y-110608016D01*
X145766000Y-110080410D02*
X147387600Y-111702011D01*
X147387600Y-111702011D02*
X151015007Y-111702011D01*
X152109002Y-110608016D02*
X152109002Y-109125998D01*
X150810199Y-107827195D02*
X150810199Y-101440675D01*
X152109002Y-109125998D02*
X150810199Y-107827195D01*
X159797987Y-93885013D02*
X158760989Y-94922011D01*
X161828000Y-91117500D02*
X161828000Y-92103415D01*
X160046402Y-93885013D02*
X159797987Y-93885013D01*
X158760989Y-94922011D02*
X155207149Y-94922011D01*
X166116000Y-85773500D02*
X165178500Y-84836000D01*
X165178500Y-84836000D02*
X162814000Y-84836000D01*
X162052000Y-84074000D02*
X161798000Y-84074000D01*
X162814000Y-84836000D02*
X162052000Y-84074000D01*
X161255708Y-92675708D02*
X160046402Y-93885013D01*
X161828000Y-92103415D02*
X161255708Y-92675708D01*
%TO.N,Net-(U1-Pad10)*%
X131968000Y-91855000D02*
X132569000Y-92456000D01*
X131968000Y-91117500D02*
X131968000Y-91855000D01*
X132569000Y-92456000D02*
X138938000Y-92456000D01*
X139558000Y-91836000D02*
X139558000Y-91117500D01*
X138938000Y-92456000D02*
X139558000Y-91836000D01*
%TO.N,Net-(U1-Pad8)*%
X141508000Y-89692000D02*
X141508000Y-91117500D01*
X134735978Y-88784022D02*
X140600022Y-88784022D01*
X133268000Y-90252000D02*
X134735978Y-88784022D01*
X133268000Y-91117500D02*
X133268000Y-90252000D01*
X140600022Y-88784022D02*
X141508000Y-89692000D01*
%TO.N,Net-(U1-Pad6)*%
X132618000Y-96105000D02*
X133219000Y-95504000D01*
X132618000Y-96842500D02*
X132618000Y-96105000D01*
X140208000Y-96105000D02*
X140208000Y-96842500D01*
X139607000Y-95504000D02*
X140208000Y-96105000D01*
X133219000Y-95504000D02*
X139607000Y-95504000D01*
%TO.N,Net-(U1-Pad4)*%
X131318000Y-96842500D02*
X131318000Y-97536000D01*
X131318000Y-97536000D02*
X131826000Y-98044000D01*
X137056500Y-98044000D02*
X138258000Y-96842500D01*
X131826000Y-98044000D02*
X137056500Y-98044000D01*
%TO.N,Net-(U10-Pad1)*%
X179070000Y-96709000D02*
X177735000Y-98044000D01*
X177735000Y-98044000D02*
X177546000Y-98044000D01*
X168402000Y-94996000D02*
X168402000Y-96266000D01*
X168978500Y-96842500D02*
X169500000Y-96842500D01*
X168402000Y-96266000D02*
X168978500Y-96842500D01*
%TO.N,Net-(U11-Pad1)*%
X181610000Y-104205000D02*
X181610000Y-105918000D01*
X181610000Y-105918000D02*
X181610000Y-106172000D01*
X179070000Y-107188000D02*
X179070000Y-109155000D01*
%TO.N,~JNS*%
X151048000Y-89570220D02*
X151048000Y-91117500D01*
X146805612Y-87507978D02*
X148985758Y-87507978D01*
X145413590Y-88900000D02*
X146805612Y-87507978D01*
X141988821Y-88900000D02*
X145413590Y-88900000D01*
X134363178Y-87884000D02*
X140972822Y-87884000D01*
X133892176Y-88355002D02*
X134363178Y-87884000D01*
X140972822Y-87884000D02*
X141988821Y-88900000D01*
X128560998Y-88355002D02*
X133892176Y-88355002D01*
X148985758Y-87507978D02*
X151048000Y-89570220D01*
X127311989Y-89604011D02*
X128560998Y-88355002D01*
X113898989Y-89604011D02*
X127311989Y-89604011D01*
X112444000Y-91059000D02*
X113898989Y-89604011D01*
%TO.N,~JS*%
X112444000Y-92329000D02*
X111379000Y-92329000D01*
X111379000Y-92329000D02*
X110998000Y-91948000D01*
X110998000Y-91948000D02*
X110998000Y-90424000D01*
X110998000Y-90424000D02*
X112268000Y-89154000D01*
X112268000Y-89154000D02*
X127000000Y-89154000D01*
X127000000Y-89154000D02*
X128524000Y-87630000D01*
X128524000Y-87630000D02*
X128778000Y-87376000D01*
X128778000Y-87376000D02*
X130048000Y-87376000D01*
X132588000Y-91087500D02*
X132618000Y-91117500D01*
X132588000Y-89662000D02*
X132588000Y-91087500D01*
%TO.N,~JNO*%
X112444000Y-93599000D02*
X118491000Y-93599000D01*
X118491000Y-93599000D02*
X119634000Y-94742000D01*
X147798000Y-96842500D02*
X147798000Y-94563214D01*
X147798000Y-94563214D02*
X147542766Y-94307980D01*
%TO.N,~JO*%
X112444000Y-94869000D02*
X117983000Y-94869000D01*
X119878010Y-96764010D02*
X124469990Y-96764010D01*
X117983000Y-94869000D02*
X119878010Y-96764010D01*
X124469990Y-96764010D02*
X126238000Y-94996000D01*
X126238000Y-94996000D02*
X130048000Y-94996000D01*
X130668000Y-95616000D02*
X130668000Y-96842500D01*
X130048000Y-94996000D02*
X130668000Y-95616000D01*
%TO.N,OR_JNS*%
X149748000Y-91117500D02*
X149748000Y-92090000D01*
X149748000Y-92090000D02*
X150622000Y-92964000D01*
X150622000Y-92964000D02*
X152654000Y-92964000D01*
X152654000Y-92964000D02*
X154686000Y-90932000D01*
X175768000Y-89916000D02*
X175768000Y-91440000D01*
X178562000Y-94234000D02*
X182650000Y-94234000D01*
X182650000Y-94234000D02*
X184150000Y-95734000D01*
X175768000Y-91440000D02*
X178562000Y-94234000D01*
X184150000Y-95734000D02*
X184150000Y-96709000D01*
%TO.N,OR_JS*%
X142158000Y-91117500D02*
X142679500Y-91117500D01*
X142679500Y-91117500D02*
X143256000Y-90541000D01*
X143256000Y-90541000D02*
X143256000Y-90424000D01*
X182060011Y-94684011D02*
X178375601Y-94684011D01*
X172634633Y-88943043D02*
X162150882Y-88943043D01*
X182880000Y-95504000D02*
X182060011Y-94684011D01*
X182880000Y-96709000D02*
X182880000Y-95504000D01*
X178375601Y-94684011D02*
X172634633Y-88943043D01*
%TO.N,OR_JNO*%
X147148000Y-96842500D02*
X146118500Y-96842500D01*
X159766000Y-99822000D02*
X159258000Y-100330000D01*
X181102000Y-98806000D02*
X176530000Y-98806000D01*
X175514000Y-99822000D02*
X159766000Y-99822000D01*
X181610000Y-98298000D02*
X181102000Y-98806000D01*
X176530000Y-98806000D02*
X175514000Y-99822000D01*
X181610000Y-96709000D02*
X181610000Y-98298000D01*
%TO.N,OR_JO*%
X140980011Y-99002011D02*
X143442400Y-99002011D01*
X145359011Y-98371420D02*
X145759010Y-97971421D01*
X139558000Y-96842500D02*
X139558000Y-97580000D01*
X139558000Y-97580000D02*
X140980011Y-99002011D01*
X143442400Y-99002011D02*
X144072991Y-98371420D01*
X144072991Y-98371420D02*
X145359011Y-98371420D01*
X158750000Y-101600000D02*
X158350001Y-101200001D01*
X158350001Y-100164995D02*
X159143007Y-99371989D01*
X179856000Y-95250000D02*
X180340000Y-95734000D01*
X180340000Y-95734000D02*
X180340000Y-96709000D01*
X159143007Y-99371989D02*
X175073601Y-99371989D01*
X175073601Y-99371989D02*
X178054000Y-96391590D01*
X158350001Y-101200001D02*
X158350001Y-100164995D01*
X178054000Y-96391590D02*
X178054000Y-95758000D01*
X178054000Y-95758000D02*
X178562000Y-95250000D01*
X178562000Y-95250000D02*
X179856000Y-95250000D01*
%TO.N,~JNB_JAE_JNC*%
X121744000Y-96139000D02*
X123317000Y-96139000D01*
X123317000Y-96139000D02*
X125476000Y-93980000D01*
X125476000Y-93980000D02*
X126238000Y-93980000D01*
X149098000Y-92700681D02*
X149636883Y-93239564D01*
X149098000Y-91117500D02*
X149098000Y-92700681D01*
%TO.N,~JB_JNAE_JC*%
X121744000Y-94869000D02*
X123317000Y-94869000D01*
X123317000Y-94869000D02*
X124968000Y-93218000D01*
X124968000Y-93218000D02*
X127254000Y-93218000D01*
X131318000Y-92710000D02*
X131318000Y-91117500D01*
%TO.N,~JNE_JNZ*%
X147890768Y-93582978D02*
X149748000Y-95440210D01*
X143604002Y-89698998D02*
X143981002Y-90075998D01*
X143981002Y-90075998D02*
X143981002Y-90583998D01*
X121744000Y-93599000D02*
X120523000Y-93599000D01*
X120523000Y-93599000D02*
X119888000Y-92964000D01*
X142151409Y-89698998D02*
X143604002Y-89698998D01*
X119888000Y-92964000D02*
X119888000Y-91060410D01*
X149748000Y-95440210D02*
X149748000Y-96842500D01*
X119888000Y-91060410D02*
X120894388Y-90054022D01*
X120894388Y-90054022D02*
X127498389Y-90054022D01*
X128747398Y-88805013D02*
X134078576Y-88805013D01*
X134549578Y-88334011D02*
X140786422Y-88334011D01*
X143981002Y-90583998D02*
X146979982Y-93582978D01*
X140786422Y-88334011D02*
X142151409Y-89698998D01*
X127498389Y-90054022D02*
X128747398Y-88805013D01*
X134078576Y-88805013D02*
X134549578Y-88334011D01*
X146979982Y-93582978D02*
X147890768Y-93582978D01*
%TO.N,~JE_JZ*%
X131968000Y-95392000D02*
X131968000Y-96842500D01*
X128905000Y-92329000D02*
X131968000Y-95392000D01*
X121744000Y-92329000D02*
X128905000Y-92329000D01*
%TO.N,OR_JNB_JAE_JNC*%
X147798000Y-91117500D02*
X147798000Y-92232000D01*
X147798000Y-92232000D02*
X147574000Y-92456000D01*
X181610000Y-90424000D02*
X180129043Y-88943043D01*
X181610000Y-91759000D02*
X181610000Y-90424000D01*
X180129043Y-88943043D02*
X175260000Y-88943043D01*
%TO.N,OR_JNE_JNZ*%
X149098000Y-97580000D02*
X149562000Y-98044000D01*
X149098000Y-96842500D02*
X149098000Y-97580000D01*
X149562000Y-98044000D02*
X151892000Y-98044000D01*
X152400000Y-97536000D02*
X152654000Y-97536000D01*
X151892000Y-98044000D02*
X152400000Y-97536000D01*
X161601114Y-87768022D02*
X160331114Y-86498022D01*
X153277990Y-86498022D02*
X152654012Y-87122000D01*
X184150000Y-91759000D02*
X184150000Y-90784000D01*
X160331114Y-86498022D02*
X153277990Y-86498022D01*
X184150000Y-90784000D02*
X181134022Y-87768022D01*
X181134022Y-87768022D02*
X161601114Y-87768022D01*
%TO.N,OR_JE_JZ*%
X143256000Y-98552000D02*
X144272000Y-97536000D01*
X142240000Y-98552000D02*
X143256000Y-98552000D01*
X141508000Y-97820000D02*
X142240000Y-98552000D01*
X141508000Y-96842500D02*
X141508000Y-97820000D01*
X185420000Y-90784000D02*
X181954011Y-87318011D01*
X161787514Y-87318011D02*
X160517514Y-86048011D01*
X185420000Y-91759000D02*
X185420000Y-90784000D01*
X181954011Y-87318011D02*
X161787514Y-87318011D01*
X160517514Y-86048011D02*
X152448669Y-86048011D01*
X152448669Y-86048011D02*
X151379336Y-87117344D01*
%TO.N,OR_JB_JNAE_JC*%
X140208000Y-91117500D02*
X140208000Y-92456000D01*
X139700000Y-92964000D02*
X139700000Y-93218000D01*
X140208000Y-92456000D02*
X139700000Y-92964000D01*
X180928033Y-88218033D02*
X160660081Y-88218033D01*
X160660081Y-88218033D02*
X159665080Y-87223032D01*
X182880000Y-90170000D02*
X180928033Y-88218033D01*
X182880000Y-91759000D02*
X182880000Y-90170000D01*
%TO.N,~JG_JNLE*%
X146304000Y-109176500D02*
X146416000Y-109288500D01*
X146304000Y-107950000D02*
X146304000Y-109176500D01*
X119888000Y-105792411D02*
X121987600Y-107892011D01*
X145714241Y-106135002D02*
X146079228Y-106499989D01*
X143161998Y-106135002D02*
X145714241Y-106135002D01*
X142247317Y-105220321D02*
X143161998Y-106135002D01*
X139980402Y-106331013D02*
X141091094Y-105220321D01*
X141091094Y-105220321D02*
X142247317Y-105220321D01*
X121744000Y-102489000D02*
X120523000Y-102489000D01*
X119888000Y-103124000D02*
X119888000Y-105792411D01*
X120523000Y-102489000D02*
X119888000Y-103124000D01*
X128153110Y-107892011D02*
X129270133Y-106774988D01*
X139094190Y-106774988D02*
X139538167Y-106331013D01*
X139538167Y-106331013D02*
X139980402Y-106331013D01*
X121987600Y-107892011D02*
X128153110Y-107892011D01*
X129270133Y-106774988D02*
X139094190Y-106774988D01*
%TO.N,~JL_JNGE*%
X141398404Y-105670332D02*
X142060917Y-105670332D01*
X142060917Y-105670332D02*
X142975598Y-106585013D01*
X147716000Y-108288998D02*
X147716000Y-109288500D01*
X144183410Y-107224999D02*
X146652001Y-107224999D01*
X139280590Y-107224999D02*
X139724567Y-106781024D01*
X120683642Y-99949000D02*
X119437989Y-101194653D01*
X140287712Y-106781024D02*
X141398404Y-105670332D01*
X129456533Y-107224999D02*
X139280590Y-107224999D01*
X128339510Y-108342022D02*
X129456533Y-107224999D01*
X139724567Y-106781024D02*
X140287712Y-106781024D01*
X121801200Y-108342022D02*
X128339510Y-108342022D01*
X143543425Y-106585013D02*
X144183410Y-107224999D01*
X119437989Y-105978811D02*
X121801200Y-108342022D01*
X119437989Y-101194653D02*
X119437989Y-105978811D01*
X121744000Y-99949000D02*
X120683642Y-99949000D01*
X146652001Y-107224999D02*
X147716000Y-108288998D01*
X142975598Y-106585013D02*
X143543425Y-106585013D01*
%TO.N,Net-(U5-Pad4)*%
X160652990Y-95633010D02*
X162478000Y-93808000D01*
X160652990Y-96141010D02*
X160652990Y-95633010D01*
X162478000Y-93808000D02*
X162478000Y-91117500D01*
X160528000Y-96266000D02*
X160652990Y-96141010D01*
X160528000Y-96842500D02*
X160528000Y-96266000D01*
%TO.N,~JA_JNBE*%
X121744000Y-98679000D02*
X124079000Y-98679000D01*
X124079000Y-98679000D02*
X127000000Y-95758000D01*
X127000000Y-95758000D02*
X127508000Y-95758000D01*
X158770013Y-95647013D02*
X154371122Y-95647013D01*
X159228000Y-96105000D02*
X158770013Y-95647013D01*
X159228000Y-96842500D02*
X159228000Y-96105000D01*
X154371122Y-95647013D02*
X154371114Y-95647021D01*
%TO.N,~JBE_JNA*%
X121349267Y-109288500D02*
X129168000Y-109288500D01*
X118537967Y-106477200D02*
X121349267Y-109288500D01*
X129168000Y-109288500D02*
X129368000Y-109288500D01*
X121744000Y-97409000D02*
X120719000Y-97409000D01*
X118537967Y-99590033D02*
X118537967Y-106477200D01*
X120719000Y-97409000D02*
X118537967Y-99590033D01*
%TO.N,Net-(U6-Pad6)*%
X141718000Y-111252000D02*
X146301178Y-111252000D01*
X151767978Y-112152022D02*
X153894000Y-110026000D01*
X140492000Y-109288500D02*
X140492000Y-110026000D01*
X153894000Y-110026000D02*
X153894000Y-109288500D01*
X146301178Y-111252000D02*
X147201200Y-112152022D01*
X140492000Y-110026000D02*
X141718000Y-111252000D01*
X147201200Y-112152022D02*
X151767978Y-112152022D01*
%TO.N,OR_JL_JNGE*%
X147066000Y-109288500D02*
X147066000Y-110744000D01*
X147066000Y-110744000D02*
X147574000Y-111252000D01*
X147574000Y-111252000D02*
X150368000Y-111252000D01*
X150368000Y-111252000D02*
X151384000Y-110236000D01*
X151384000Y-110236000D02*
X151384000Y-109982000D01*
X182880000Y-111252000D02*
X186436000Y-114808000D01*
X186436000Y-114808000D02*
X186436000Y-116078000D01*
X166159035Y-118364000D02*
X160781992Y-112986957D01*
X182880000Y-109155000D02*
X182880000Y-111252000D01*
X184150000Y-118364000D02*
X166159035Y-118364000D01*
X186436000Y-116078000D02*
X184150000Y-118364000D01*
%TO.N,OR_JA_JNBE*%
X161178000Y-90380000D02*
X161642000Y-89916000D01*
X161178000Y-91117500D02*
X161178000Y-90380000D01*
X161642000Y-89916000D02*
X163322000Y-89916000D01*
X163322000Y-89916000D02*
X167386000Y-93980000D01*
X167386000Y-93980000D02*
X167386000Y-97790000D01*
X183134000Y-107188000D02*
X182880000Y-107442000D01*
X182880000Y-107442000D02*
X182118000Y-107442000D01*
X181610000Y-107950000D02*
X181610000Y-109155000D01*
X182118000Y-107442000D02*
X181610000Y-107950000D01*
%TO.N,SF=OF*%
X132618000Y-102826000D02*
X133336000Y-102108000D01*
X132618000Y-103563500D02*
X132618000Y-102826000D01*
X133336000Y-102108000D02*
X137414000Y-102108000D01*
X137892000Y-102586000D02*
X137892000Y-103563500D01*
X137414000Y-102108000D02*
X137892000Y-102586000D01*
X139842000Y-102826000D02*
X139378000Y-102362000D01*
X139842000Y-103563500D02*
X139842000Y-102826000D01*
X137892000Y-102826000D02*
X137892000Y-103563500D01*
X138356000Y-102362000D02*
X137892000Y-102826000D01*
X139378000Y-102362000D02*
X138356000Y-102362000D01*
X148366000Y-107472000D02*
X148366000Y-109288500D01*
X154544000Y-107584000D02*
X154656000Y-107472000D01*
X154544000Y-109288500D02*
X154544000Y-107584000D01*
X141789004Y-102362000D02*
X144329004Y-104902000D01*
X144329004Y-104902000D02*
X145796000Y-104902000D01*
X139842000Y-102826000D02*
X140306000Y-102362000D01*
X140306000Y-102362000D02*
X141789004Y-102362000D01*
X145796000Y-104902000D02*
X148366000Y-107472000D01*
%TO.N,~JLE_JNG*%
X131968000Y-108092000D02*
X131968000Y-109288500D01*
X131826000Y-107950000D02*
X131968000Y-108092000D01*
X120393990Y-105661990D02*
X122174000Y-107442000D01*
X129490710Y-105918000D02*
X130302000Y-105918000D01*
X121744000Y-103759000D02*
X120719000Y-103759000D01*
X120719000Y-103759000D02*
X120393990Y-104084010D01*
X120393990Y-104084010D02*
X120393990Y-105661990D01*
X122174000Y-107442000D02*
X127966710Y-107442000D01*
X127966710Y-107442000D02*
X129490710Y-105918000D01*
%TO.N,~JGE_JNL*%
X130067000Y-107950000D02*
X130668000Y-108551000D01*
X130668000Y-108551000D02*
X130668000Y-109288500D01*
X129367943Y-107950000D02*
X130067000Y-107950000D01*
X128525910Y-108792033D02*
X129367943Y-107950000D01*
X121614800Y-108792033D02*
X128525910Y-108792033D01*
X123094010Y-100893990D02*
X123094010Y-99602242D01*
X120672242Y-99323990D02*
X118987978Y-101008253D01*
X118987978Y-101008253D02*
X118987978Y-106165211D01*
X121744000Y-101219000D02*
X122769000Y-101219000D01*
X123094010Y-99602242D02*
X122815758Y-99323990D01*
X122769000Y-101219000D02*
X123094010Y-100893990D01*
X118987978Y-106165211D02*
X121614800Y-108792033D01*
X122815758Y-99323990D02*
X120672242Y-99323990D01*
%TO.N,OR_JLE_JNG*%
X178721999Y-106462999D02*
X179418001Y-106462999D01*
X178250998Y-106934000D02*
X178721999Y-106462999D01*
X172671000Y-106934000D02*
X178250998Y-106934000D01*
X170800000Y-108805000D02*
X172671000Y-106934000D01*
X170800000Y-109542500D02*
X170800000Y-108805000D01*
X179889002Y-106934000D02*
X182314998Y-106934000D01*
X182314998Y-106934000D02*
X184150000Y-105098998D01*
X184150000Y-105098998D02*
X184150000Y-104205000D01*
X179418001Y-106462999D02*
X179889002Y-106934000D01*
%TO.N,OR_JGE_JNL*%
X141142000Y-103563500D02*
X141917500Y-103563500D01*
X141917500Y-103563500D02*
X143256000Y-104902000D01*
X159004000Y-104394000D02*
X159766000Y-105156000D01*
X159766000Y-105156000D02*
X160020000Y-105410000D01*
X160020000Y-105410000D02*
X160274000Y-105664000D01*
X160274000Y-105664000D02*
X175514000Y-105664000D01*
X175514000Y-105664000D02*
X175768000Y-105410000D01*
X184404000Y-107188000D02*
X184404000Y-107442000D01*
X184150000Y-107696000D02*
X184150000Y-109155000D01*
X184404000Y-107442000D02*
X184150000Y-107696000D01*
%TO.N,OR_JBE_JNA*%
X180340000Y-110490000D02*
X180340000Y-109155000D01*
X185166000Y-115316000D02*
X180340000Y-110490000D01*
X138542000Y-109288500D02*
X138542000Y-110026000D01*
X142017002Y-113501002D02*
X145636002Y-113501002D01*
X138542000Y-110026000D02*
X142017002Y-113501002D01*
X145636002Y-113501002D02*
X146534971Y-112602033D01*
X146534971Y-112602033D02*
X153713043Y-112602033D01*
X153713043Y-112602033D02*
X153924000Y-112812990D01*
%TO.N,OR_JG_JNLE*%
X139192000Y-103563500D02*
X139192000Y-104648000D01*
X139446000Y-104902000D02*
X139446000Y-105156000D01*
X139192000Y-104648000D02*
X139446000Y-104902000D01*
X185420000Y-106172000D02*
X185420000Y-104205000D01*
X159004000Y-105664000D02*
X159475002Y-106135002D01*
X159475002Y-106135002D02*
X177328998Y-106135002D01*
X177328998Y-106135002D02*
X177800000Y-105664000D01*
%TO.N,OR_JUMP*%
X130018000Y-96842500D02*
X130018000Y-98328000D01*
X130018000Y-98328000D02*
X129540000Y-98806000D01*
X129540000Y-98806000D02*
X127762000Y-98806000D01*
X127762000Y-98806000D02*
X124968000Y-101600000D01*
X124968000Y-101600000D02*
X124968000Y-106680000D01*
X183748000Y-102362000D02*
X182880000Y-103230000D01*
X187198000Y-102362000D02*
X183748000Y-102362000D01*
X182880000Y-103230000D02*
X182880000Y-104205000D01*
X187960000Y-103124000D02*
X187198000Y-102362000D01*
X187960000Y-106934000D02*
X187960000Y-103124000D01*
%TO.N,~J*%
X122769000Y-105029000D02*
X124333000Y-103465000D01*
X128201500Y-96842500D02*
X129368000Y-96842500D01*
X124333000Y-103465000D02*
X124333000Y-100711000D01*
X121744000Y-105029000D02*
X122769000Y-105029000D01*
X124333000Y-100711000D02*
X128201500Y-96842500D01*
%TO.N,Net-(U12-Pad10)*%
X172750000Y-94518000D02*
X172750000Y-96842500D01*
X172100000Y-93868000D02*
X172750000Y-94518000D01*
X172100000Y-91117500D02*
X172100000Y-93868000D01*
%TO.N,Net-(U14-Pad1)*%
X159983010Y-107929988D02*
X159983010Y-109489677D01*
X169500000Y-109542500D02*
X166695491Y-106737991D01*
X166695491Y-106737991D02*
X161175007Y-106737991D01*
X161175007Y-106737991D02*
X159983010Y-107929988D01*
X141884976Y-106130802D02*
X142789198Y-107035024D01*
X142789198Y-107035024D02*
X143357025Y-107035024D01*
X139910967Y-107231035D02*
X140474112Y-107231035D01*
X132618000Y-108551000D02*
X133473000Y-107696000D01*
X141574345Y-106130802D02*
X141884976Y-106130802D01*
X143357025Y-107035024D02*
X143793142Y-107471141D01*
X143793142Y-107471141D02*
X143793142Y-108741142D01*
X140474112Y-107231035D02*
X141574345Y-106130802D01*
X139446000Y-107696000D02*
X139910967Y-107231035D01*
X132618000Y-109288500D02*
X132618000Y-108551000D01*
X133473000Y-107696000D02*
X139446000Y-107696000D01*
%TO.N,Net-(D1-Pad1)*%
X132359000Y-83716500D02*
X132334000Y-83741500D01*
X134620000Y-83716500D02*
X132359000Y-83716500D01*
%TO.N,Net-(D2-Pad1)*%
X171196000Y-83898500D02*
X171196000Y-81938500D01*
%TO.N,Net-(D3-Pad1)*%
X168656000Y-83898500D02*
X168656000Y-81938500D01*
%TO.N,Net-(D4-Pad1)*%
X166116000Y-81938500D02*
X166116000Y-83898500D01*
%TO.N,Net-(D5-Pad1)*%
X163576000Y-81938500D02*
X163576000Y-83898500D01*
%TO.N,Net-(U4-Pad8)*%
X133268000Y-103563500D02*
X133268000Y-104984000D01*
X132842000Y-105410000D02*
X132842000Y-105918000D01*
X133268000Y-104984000D02*
X132842000Y-105410000D01*
X163068000Y-108236205D02*
X162791076Y-107959281D01*
X163068000Y-109542500D02*
X163068000Y-108236205D01*
%TO.N,Net-(U4-Pad4)*%
X131318000Y-110236000D02*
X131826000Y-110744000D01*
X131318000Y-109288500D02*
X131318000Y-110236000D01*
X133857988Y-110744000D02*
X135382000Y-109219988D01*
X131826000Y-110744000D02*
X133857988Y-110744000D01*
X137196990Y-105881002D02*
X137159992Y-105918000D01*
X140492000Y-103563500D02*
X140492000Y-105183004D01*
X139794002Y-105881002D02*
X137196990Y-105881002D01*
X140492000Y-105183004D02*
X139794002Y-105881002D01*
%TO.N,Net-(U4-Pad2)*%
X130018000Y-110026000D02*
X131244000Y-111252000D01*
X130018000Y-109288500D02*
X130018000Y-110026000D01*
X131244000Y-111252000D02*
X136144000Y-111252000D01*
X137242000Y-110154000D02*
X137242000Y-109288500D01*
X136144000Y-111252000D02*
X137242000Y-110154000D01*
%TO.N,Net-(U5-Pad13)*%
X159228000Y-91855000D02*
X157611000Y-93472000D01*
X157611000Y-93472000D02*
X156209994Y-93472000D01*
X159228000Y-91117500D02*
X159228000Y-91855000D01*
X151810211Y-107854711D02*
X151810211Y-101610337D01*
X153244000Y-109288500D02*
X151810211Y-107854711D01*
%TO.N,Net-(U5-Pad1)*%
X158578000Y-96842500D02*
X158578000Y-97618000D01*
X158578000Y-97618000D02*
X159004000Y-98044000D01*
X161178000Y-97580000D02*
X161178000Y-96842500D01*
X160714000Y-98044000D02*
X161178000Y-97580000D01*
X159004000Y-98044000D02*
X160714000Y-98044000D01*
X161828000Y-96842500D02*
X161178000Y-96842500D01*
%TO.N,Net-(U6-Pad12)*%
X144422500Y-109982000D02*
X145116000Y-109288500D01*
X143764000Y-109982000D02*
X144422500Y-109982000D01*
X138542000Y-105044000D02*
X138430000Y-105156000D01*
X138542000Y-103563500D02*
X138542000Y-105044000D01*
%TO.N,Net-(U6-Pad2)*%
X137892000Y-109288500D02*
X137892000Y-110080411D01*
X137892000Y-110080411D02*
X141762602Y-113951013D01*
X141762602Y-113951013D02*
X145929431Y-113951013D01*
X145929431Y-113951013D02*
X146828400Y-113052044D01*
X152930044Y-113052044D02*
X153416000Y-113538000D01*
X157168998Y-113538000D02*
X158655999Y-112050999D01*
X160941999Y-112050999D02*
X162418000Y-110574998D01*
X153416000Y-113538000D02*
X157168998Y-113538000D01*
X162418000Y-110574998D02*
X162418000Y-109542500D01*
X158655999Y-112050999D02*
X160941999Y-112050999D01*
X146828400Y-113052044D02*
X152930044Y-113052044D01*
%TO.N,Net-(U10-Pad13)*%
X180340000Y-93472000D02*
X180340000Y-91759000D01*
X176400953Y-96771815D02*
X176400953Y-94625094D01*
X174700801Y-98471967D02*
X176400953Y-96771815D01*
X170607967Y-98471967D02*
X174700801Y-98471967D01*
X170150000Y-98014000D02*
X170607967Y-98471967D01*
X170150000Y-96842500D02*
X170150000Y-98014000D01*
%TO.N,Net-(U11-Pad13)*%
X172100000Y-96842500D02*
X172100000Y-95392000D01*
X172100000Y-95392000D02*
X171704000Y-94996000D01*
X180340000Y-104205000D02*
X180340000Y-103180463D01*
X180340000Y-103180463D02*
X176760428Y-99600891D01*
%TO.N,Net-(U12-Pad3)*%
X168656000Y-89916000D02*
X167640000Y-90932000D01*
X172750000Y-90380000D02*
X172286000Y-89916000D01*
X170800000Y-95362000D02*
X170800000Y-96842500D01*
X167640000Y-90932000D02*
X167640000Y-92202000D01*
X172286000Y-89916000D02*
X168656000Y-89916000D01*
X172750000Y-91117500D02*
X172750000Y-90380000D01*
X167640000Y-92202000D02*
X170800000Y-95362000D01*
%TO.N,ADR0*%
X108712000Y-101052000D02*
X111419000Y-103759000D01*
X111268400Y-86845956D02*
X108712000Y-89402356D01*
X113179044Y-86845956D02*
X111268400Y-86845956D01*
X108712000Y-89402356D02*
X108712000Y-101052000D01*
X115824000Y-84201000D02*
X113179044Y-86845956D01*
X115824000Y-82804000D02*
X115824000Y-84201000D01*
X111419000Y-103759000D02*
X112444000Y-103759000D01*
X113469000Y-103759000D02*
X112444000Y-103759000D01*
X114277956Y-104567956D02*
X113469000Y-103759000D01*
X111754356Y-106426000D02*
X113532360Y-106426000D01*
X108689956Y-117457189D02*
X108689956Y-109490400D01*
X110692800Y-119460033D02*
X108689956Y-117457189D01*
X121412000Y-116507500D02*
X118459467Y-119460033D01*
X108689956Y-109490400D02*
X111754356Y-106426000D01*
X114277956Y-105680404D02*
X114277956Y-104567956D01*
X118459467Y-119460033D02*
X110692800Y-119460033D01*
X113532360Y-106426000D02*
X114277956Y-105680404D01*
%TO.N,ADR1*%
X111419000Y-102489000D02*
X112444000Y-102489000D01*
X109162011Y-100232011D02*
X111419000Y-102489000D01*
X115650033Y-87295967D02*
X111454800Y-87295967D01*
X118364000Y-84582000D02*
X115650033Y-87295967D01*
X109162011Y-89588756D02*
X109162011Y-100232011D01*
X111454800Y-87295967D02*
X109162011Y-89588756D01*
X118364000Y-82804000D02*
X118364000Y-84582000D01*
X116623478Y-119010022D02*
X110879200Y-119010022D01*
X109139967Y-117270789D02*
X109139967Y-109676800D01*
X113469000Y-102489000D02*
X112444000Y-102489000D01*
X113718760Y-106876011D02*
X114727967Y-105866804D01*
X111940756Y-106876011D02*
X113718760Y-106876011D01*
X109139967Y-109676800D02*
X111940756Y-106876011D01*
X119126000Y-116507500D02*
X116623478Y-119010022D01*
X110879200Y-119010022D02*
X109139967Y-117270789D01*
X114727967Y-105866804D02*
X114727967Y-103747967D01*
X114727967Y-103747967D02*
X113469000Y-102489000D01*
%TO.N,ADR2*%
X111419000Y-101219000D02*
X112444000Y-101219000D01*
X111641200Y-87745978D02*
X109612022Y-89775156D01*
X117740022Y-87745978D02*
X111641200Y-87745978D01*
X109612022Y-89775156D02*
X109612022Y-99412022D01*
X109612022Y-99412022D02*
X111419000Y-101219000D01*
X120904000Y-84582000D02*
X117740022Y-87745978D01*
X120904000Y-82804000D02*
X120904000Y-84582000D01*
X112444000Y-101219000D02*
X113469000Y-101219000D01*
X115177978Y-106053204D02*
X113905160Y-107326022D01*
X113905160Y-107326022D02*
X112127156Y-107326022D01*
X113469000Y-101219000D02*
X115177978Y-102927978D01*
X114787491Y-118560009D02*
X116840000Y-116507500D01*
X111065598Y-118560009D02*
X114787491Y-118560009D01*
X109589978Y-117084389D02*
X111065598Y-118560009D01*
X109589978Y-109863200D02*
X109589978Y-117084389D01*
X115177978Y-102927978D02*
X115177978Y-106053204D01*
X112127156Y-107326022D02*
X109589978Y-109863200D01*
%TO.N,ADR3*%
X110062033Y-98592033D02*
X111419000Y-99949000D01*
X111827601Y-88195989D02*
X110062033Y-89961557D01*
X119830011Y-88195989D02*
X111827601Y-88195989D01*
X110062033Y-89961557D02*
X110062033Y-98592033D01*
X111419000Y-99949000D02*
X112444000Y-99949000D01*
X123444000Y-84582000D02*
X119830011Y-88195989D01*
X123444000Y-82804000D02*
X123444000Y-84582000D01*
X111251998Y-118109998D02*
X110039989Y-116897989D01*
X114091560Y-107776033D02*
X115627989Y-106239604D01*
X110039989Y-110049600D02*
X112313556Y-107776033D01*
X112313556Y-107776033D02*
X114091560Y-107776033D01*
X115627989Y-102107989D02*
X113469000Y-99949000D01*
X114554000Y-116507500D02*
X112951502Y-118109998D01*
X115627989Y-106239604D02*
X115627989Y-102107989D01*
X112951502Y-118109998D02*
X111251998Y-118109998D01*
X113469000Y-99949000D02*
X112444000Y-99949000D01*
X110039989Y-116897989D02*
X110039989Y-110049600D01*
%TO.N,EN*%
X110512044Y-96502044D02*
X111419000Y-97409000D01*
X125984000Y-82804000D02*
X120142000Y-88646000D01*
X112014000Y-88646000D02*
X110512044Y-90147956D01*
X111419000Y-97409000D02*
X112444000Y-97409000D01*
X110512044Y-90147956D02*
X110512044Y-96502044D01*
X120142000Y-88646000D02*
X112014000Y-88646000D01*
X112268000Y-116507500D02*
X110490000Y-114729500D01*
X116078000Y-98552000D02*
X114935000Y-97409000D01*
X110490000Y-110236000D02*
X112499956Y-108226044D01*
X116078000Y-106426004D02*
X116078000Y-98552000D01*
X112499956Y-108226044D02*
X114277960Y-108226044D01*
X114935000Y-97409000D02*
X112444000Y-97409000D01*
X110490000Y-114729500D02*
X110490000Y-110236000D01*
X114277960Y-108226044D02*
X116078000Y-106426004D01*
%TO.N,Net-(U14-Pad2)*%
X170150000Y-109542500D02*
X170150000Y-110520000D01*
X170150000Y-110520000D02*
X169926000Y-110744000D01*
X169926000Y-110744000D02*
X168910000Y-110744000D01*
X168910000Y-110744000D02*
X166370000Y-108204000D01*
X166370000Y-108204000D02*
X164846000Y-108204000D01*
X164368000Y-108682000D02*
X164368000Y-109542500D01*
X164846000Y-108204000D02*
X164368000Y-108682000D01*
%TO.N,LOAD_PROGRAM_COUNTER_COND*%
X130668000Y-103563500D02*
X130668000Y-104790000D01*
X130668000Y-104790000D02*
X130302000Y-105156000D01*
X130302000Y-105156000D02*
X125730000Y-105156000D01*
X130048000Y-82804000D02*
X128524000Y-82804000D01*
X130985500Y-81866500D02*
X130048000Y-82804000D01*
X132334000Y-81866500D02*
X130985500Y-81866500D01*
%TO.N,Net-(U12-Pad8)*%
X177255002Y-96554177D02*
X177255002Y-94453823D01*
X153231437Y-98921978D02*
X174887201Y-98921978D01*
X173918678Y-91117500D02*
X173400000Y-91117500D01*
X153188402Y-98965013D02*
X153231437Y-98921978D01*
X151647174Y-98965013D02*
X153188402Y-98965013D01*
X149774187Y-100838000D02*
X151647174Y-98965013D01*
X177255002Y-94453823D02*
X173918678Y-91117500D01*
X130810000Y-100838000D02*
X149774187Y-100838000D01*
X130018000Y-103563500D02*
X130018000Y-101630000D01*
X130018000Y-101630000D02*
X130810000Y-100838000D01*
X174887201Y-98921978D02*
X177255002Y-96554177D01*
%TO.N,Net-(D6-Pad1)*%
X121412000Y-112672500D02*
X121412000Y-114632500D01*
%TO.N,Net-(D7-Pad1)*%
X119126000Y-114632500D02*
X119126000Y-112672500D01*
%TO.N,Net-(D8-Pad1)*%
X116840000Y-112672500D02*
X116840000Y-114632500D01*
%TO.N,Net-(D9-Pad1)*%
X114554000Y-114632500D02*
X114554000Y-112672500D01*
%TO.N,Net-(D10-Pad1)*%
X112268000Y-112672500D02*
X112268000Y-114632500D01*
%TD*%
M02*
