%TF.GenerationSoftware,KiCad,Pcbnew,(6.0.0-0)*%
%TF.CreationDate,2022-03-08T07:13:55-05:00*%
%TF.ProjectId,Backplane-GPR-Registers-Condensed,4261636b-706c-4616-9e65-2d4750522d52,rev?*%
%TF.SameCoordinates,Original*%
%TF.FileFunction,Soldermask,Top*%
%TF.FilePolarity,Negative*%
%FSLAX46Y46*%
G04 Gerber Fmt 4.6, Leading zero omitted, Abs format (unit mm)*
G04 Created by KiCad (PCBNEW (6.0.0-0)) date 2022-03-08 07:13:55*
%MOMM*%
%LPD*%
G01*
G04 APERTURE LIST*
%ADD10R,1.700000X1.700000*%
%ADD11O,1.700000X1.700000*%
G04 APERTURE END LIST*
D10*
%TO.C,J2*%
X100595000Y-152770000D03*
D11*
X103135000Y-152770000D03*
X105675000Y-152770000D03*
X108215000Y-152770000D03*
X110755000Y-152770000D03*
X113295000Y-152770000D03*
X115835000Y-152770000D03*
X118375000Y-152770000D03*
%TD*%
D10*
%TO.C,J3*%
X91925000Y-60300000D03*
D11*
X94465000Y-60300000D03*
X97005000Y-60300000D03*
X99545000Y-60300000D03*
X102085000Y-60300000D03*
X104625000Y-60300000D03*
X107165000Y-60300000D03*
X109705000Y-60300000D03*
X112245000Y-60300000D03*
X114785000Y-60300000D03*
X117325000Y-60300000D03*
X119865000Y-60300000D03*
X122405000Y-60300000D03*
X124945000Y-60300000D03*
X127485000Y-60300000D03*
X130025000Y-60300000D03*
X132565000Y-60300000D03*
X135105000Y-60300000D03*
X137645000Y-60300000D03*
X140185000Y-60300000D03*
X142725000Y-60300000D03*
X145265000Y-60300000D03*
X147805000Y-60300000D03*
X150345000Y-60300000D03*
X152885000Y-60300000D03*
X155425000Y-60300000D03*
X157965000Y-60300000D03*
X160505000Y-60300000D03*
X163045000Y-60300000D03*
X165585000Y-60300000D03*
X168125000Y-60300000D03*
X170665000Y-60300000D03*
X173205000Y-60300000D03*
X175745000Y-60300000D03*
X178285000Y-60300000D03*
%TD*%
D10*
%TO.C,J1*%
X147830000Y-72450000D03*
D11*
X145290000Y-72450000D03*
X142750000Y-72450000D03*
X140210000Y-72450000D03*
X137670000Y-72450000D03*
X135130000Y-72450000D03*
X132590000Y-72450000D03*
X130050000Y-72450000D03*
X127510000Y-72450000D03*
X124970000Y-72450000D03*
X122430000Y-72450000D03*
%TD*%
D10*
%TO.C,J4*%
X131320000Y-152780000D03*
D11*
X133860000Y-152780000D03*
X136400000Y-152780000D03*
X138940000Y-152780000D03*
X141480000Y-152780000D03*
X144020000Y-152780000D03*
X146560000Y-152780000D03*
X149100000Y-152780000D03*
X151640000Y-152780000D03*
X154180000Y-152780000D03*
X156720000Y-152780000D03*
X159260000Y-152780000D03*
X161800000Y-152780000D03*
X164340000Y-152780000D03*
X166880000Y-152780000D03*
X169420000Y-152780000D03*
%TD*%
M02*
