M48
; DRILL file {KiCad (6.0.0-0)} date Wednesday, March 09, 2022 at 10:25:06 AM
; FORMAT={-:-/ absolute / inch / decimal}
; #@! TF.CreationDate,2022-03-09T10:25:06-05:00
; #@! TF.GenerationSoftware,Kicad,Pcbnew,(6.0.0-0)
; #@! TF.FileFunction,Plated,1,2,PTH
FMAT,2
INCH
; #@! TA.AperFunction,Plated,PTH,ViaDrill
T1C0.0157
; #@! TA.AperFunction,Plated,PTH,ComponentDrill
T2C0.0394
%
G90
G05
T1
X4.77Y-3.59
X4.93Y-3.49
X4.98Y-3.39
X5.02Y-3.29
X6.88Y-2.72
X6.88Y-2.92
T2
X4.49Y-3.2898
X4.49Y-3.3898
X4.49Y-3.4898
X4.49Y-3.5898
X4.49Y-3.6898
X4.49Y-3.7898
X4.49Y-3.8898
X5.48Y-4.88
X5.4803Y-4.7
X5.58Y-4.88
X5.5803Y-4.7
X5.68Y-4.88
X5.6803Y-4.7
X5.78Y-4.88
X5.7803Y-4.7
X5.88Y-4.88
X5.8803Y-4.7
X5.98Y-4.88
X5.9803Y-4.7
X6.08Y-4.88
X6.0803Y-4.7
X6.18Y-4.88
X6.1803Y-4.7
X6.96Y-3.1702
X6.96Y-3.2702
X6.96Y-3.3702
X6.96Y-3.4702
X6.96Y-3.5702
X6.96Y-3.6702
X6.96Y-3.7702
X6.96Y-3.8702
X6.96Y-3.9702
X6.96Y-4.0702
X6.96Y-4.1702
X6.96Y-4.2702
X7.2878Y-2.8004
X7.2878Y-2.9004
X7.2878Y-3.0004
X7.2878Y-3.1004
X7.2878Y-3.2004
X7.2878Y-3.3004
X7.2878Y-3.4004
X7.2878Y-3.5004
X7.2878Y-3.6004
X7.2878Y-3.7004
X7.2878Y-3.8004
X7.2878Y-3.9004
X7.2878Y-4.0004
X7.2878Y-4.1004
X7.2878Y-4.2004
X7.2878Y-4.3004
X7.2878Y-4.4004
X7.2878Y-4.5004
X7.2878Y-4.6004
T0
M30
